ISO-10303-21;
HEADER;
/* Generated by software containing ST-Developer
 * from STEP Tools, Inc. (www.steptools.com) 
 */
/* OPTION: strings as raw bytes, not using required /X/ escapes */

FILE_DESCRIPTION(
/* description */ ('Unknown'),
/* implementation_level */ '2;1');

FILE_NAME(
/* name */ 'Black_4640742_AVV',
/* time_stamp */ '2025-07-21T23:48:40+02:00',
/* author */ ('Unknown'),
/* organization */ ('Unknown'),
/* preprocessor_version */ 'ST-DEVELOPER v19.4',
/* originating_system */ 'Solid Edge',
/* authorisation */ 'Unknown');

FILE_SCHEMA (('AUTOMOTIVE_DESIGN {1 0 10303 214 3 1 1}'));
ENDSEC;

DATA;
#10=PROPERTY_DEFINITION_REPRESENTATION(#14,#12);
#11=PROPERTY_DEFINITION_REPRESENTATION(#15,#13);
#12=REPRESENTATION('',(#16),#419);
#13=REPRESENTATION('',(#17),#419);
#14=PROPERTY_DEFINITION('pmi validation property','',#424);
#15=PROPERTY_DEFINITION('pmi validation property','',#424);
#16=VALUE_REPRESENTATION_ITEM('number of annotations',COUNT_MEASURE(0.));
#17=VALUE_REPRESENTATION_ITEM('number of views',COUNT_MEASURE(0.));
#18=SHAPE_REPRESENTATION_RELATIONSHIP('','',#98,#19);
#19=ADVANCED_BREP_SHAPE_REPRESENTATION('',(#96),#419);
#20=PLANE('',#105);
#21=PLANE('',#106);
#22=(
BOUNDED_SURFACE()
B_SPLINE_SURFACE(3,3,((#143,#144,#145,#146,#147,#148,#149,#150,#151,#152,
#153,#154,#155,#156,#157,#158,#159,#160),(#161,#162,#163,#164,#165,#166,
#167,#168,#169,#170,#171,#172,#173,#174,#175,#176,#177,#178),(#179,#180,
#181,#182,#183,#184,#185,#186,#187,#188,#189,#190,#191,#192,#193,#194,#195,
#196),(#197,#198,#199,#200,#201,#202,#203,#204,#205,#206,#207,#208,#209,
#210,#211,#212,#213,#214),(#215,#216,#217,#218,#219,#220,#221,#222,#223,
#224,#225,#226,#227,#228,#229,#230,#231,#232),(#233,#234,#235,#236,#237,
#238,#239,#240,#241,#242,#243,#244,#245,#246,#247,#248,#249,#250),(#251,
#252,#253,#254,#255,#256,#257,#258,#259,#260,#261,#262,#263,#264,#265,#266,
#267,#268)),.UNSPECIFIED.,.T.,.F.,.F.)
B_SPLINE_SURFACE_WITH_KNOTS((4,3,4),(4,2,2,2,2,2,2,2,4),(0.,0.5,1.),(0.499999999999999,
0.75,0.875,0.9375,0.96875,0.984375,0.9921875,1.,1.00450448188909),
 .UNSPECIFIED.)
GEOMETRIC_REPRESENTATION_ITEM()
RATIONAL_B_SPLINE_SURFACE(((1.,1.,1.,1.,1.,1.,1.,1.,1.,1.,1.,1.,1.,1.,1.,
1.,1.,1.),(0.333333333333333,0.333333333333333,0.333333333333333,0.333333333333333,
0.333333333333333,0.333333333333333,0.333333333333333,0.333333333333333,
0.333333333333333,0.333333333333333,0.333333333333333,0.333333333333333,
0.333333333333333,0.333333333333333,0.333333333333333,0.333333333333333,
0.333333333333333,0.333333333333333),(0.333333333333333,0.333333333333333,
0.333333333333333,0.333333333333333,0.333333333333333,0.333333333333333,
0.333333333333333,0.333333333333333,0.333333333333333,0.333333333333333,
0.333333333333333,0.333333333333333,0.333333333333333,0.333333333333333,
0.333333333333333,0.333333333333333,0.333333333333333,0.333333333333333),
(1.,1.,1.,1.,1.,1.,1.,1.,1.,1.,1.,1.,1.,1.,1.,1.,1.,1.),(0.333333333333333,
0.333333333333333,0.333333333333333,0.333333333333333,0.333333333333333,
0.333333333333333,0.333333333333333,0.333333333333333,0.333333333333333,
0.333333333333333,0.333333333333333,0.333333333333333,0.333333333333333,
0.333333333333333,0.333333333333333,0.333333333333333,0.333333333333333,
0.333333333333333),(0.333333333333333,0.333333333333333,0.333333333333333,
0.333333333333333,0.333333333333333,0.333333333333333,0.333333333333333,
0.333333333333333,0.333333333333333,0.333333333333333,0.333333333333333,
0.333333333333333,0.333333333333333,0.333333333333333,0.333333333333333,
0.333333333333333,0.333333333333333,0.333333333333333),(1.,1.,1.,1.,1.,
1.,1.,1.,1.,1.,1.,1.,1.,1.,1.,1.,1.,1.)))
REPRESENTATION_ITEM('')
SURFACE()
);
#23=(
BOUNDED_SURFACE()
B_SPLINE_SURFACE(3,3,((#287,#288,#289,#290,#291,#292,#293,#294,#295,#296,
#297,#298,#299,#300,#301,#302,#303,#304),(#305,#306,#307,#308,#309,#310,
#311,#312,#313,#314,#315,#316,#317,#318,#319,#320,#321,#322),(#323,#324,
#325,#326,#327,#328,#329,#330,#331,#332,#333,#334,#335,#336,#337,#338,#339,
#340),(#341,#342,#343,#344,#345,#346,#347,#348,#349,#350,#351,#352,#353,
#354,#355,#356,#357,#358),(#359,#360,#361,#362,#363,#364,#365,#366,#367,
#368,#369,#370,#371,#372,#373,#374,#375,#376),(#377,#378,#379,#380,#381,
#382,#383,#384,#385,#386,#387,#388,#389,#390,#391,#392,#393,#394),(#395,
#396,#397,#398,#399,#400,#401,#402,#403,#404,#405,#406,#407,#408,#409,#410,
#411,#412)),.UNSPECIFIED.,.T.,.F.,.F.)
B_SPLINE_SURFACE_WITH_KNOTS((4,3,4),(4,2,2,2,2,2,2,2,4),(0.,0.5,1.),(-0.0045084990716604,
0.,0.00781249999999999,0.015625,0.0312499999999999,0.0624999999999999,0.125,
0.25,0.499999999999999),.UNSPECIFIED.)
GEOMETRIC_REPRESENTATION_ITEM()
RATIONAL_B_SPLINE_SURFACE(((1.,1.,1.,1.,1.,1.,1.,1.,1.,1.,1.,1.,1.,1.,1.,
1.,1.,1.),(0.333333333333333,0.333333333333333,0.333333333333333,0.333333333333333,
0.333333333333333,0.333333333333333,0.333333333333333,0.333333333333333,
0.333333333333333,0.333333333333333,0.333333333333333,0.333333333333333,
0.333333333333333,0.333333333333333,0.333333333333333,0.333333333333333,
0.333333333333333,0.333333333333333),(0.333333333333333,0.333333333333333,
0.333333333333333,0.333333333333333,0.333333333333333,0.333333333333333,
0.333333333333333,0.333333333333333,0.333333333333333,0.333333333333333,
0.333333333333333,0.333333333333333,0.333333333333333,0.333333333333333,
0.333333333333333,0.333333333333333,0.333333333333333,0.333333333333333),
(1.,1.,1.,1.,1.,1.,1.,1.,1.,1.,1.,1.,1.,1.,1.,1.,1.,1.),(0.333333333333333,
0.333333333333333,0.333333333333333,0.333333333333333,0.333333333333333,
0.333333333333333,0.333333333333333,0.333333333333333,0.333333333333333,
0.333333333333333,0.333333333333333,0.333333333333333,0.333333333333333,
0.333333333333333,0.333333333333333,0.333333333333333,0.333333333333333,
0.333333333333333),(0.333333333333333,0.333333333333333,0.333333333333333,
0.333333333333333,0.333333333333333,0.333333333333333,0.333333333333333,
0.333333333333333,0.333333333333333,0.333333333333333,0.333333333333333,
0.333333333333333,0.333333333333333,0.333333333333333,0.333333333333333,
0.333333333333333,0.333333333333333,0.333333333333333),(1.,1.,1.,1.,1.,
1.,1.,1.,1.,1.,1.,1.,1.,1.,1.,1.,1.,1.)))
REPRESENTATION_ITEM('')
SURFACE()
);
#24=CIRCLE('',#101,1.48);
#25=CIRCLE('',#102,1.48);
#26=CIRCLE('',#104,1.48);
#27=ORIENTED_EDGE('',*,*,#41,.T.);
#28=ORIENTED_EDGE('',*,*,#42,.F.);
#29=ORIENTED_EDGE('',*,*,#43,.F.);
#30=ORIENTED_EDGE('',*,*,#44,.T.);
#31=ORIENTED_EDGE('',*,*,#45,.F.);
#32=ORIENTED_EDGE('',*,*,#46,.F.);
#33=ORIENTED_EDGE('',*,*,#41,.F.);
#34=ORIENTED_EDGE('',*,*,#42,.T.);
#35=ORIENTED_EDGE('',*,*,#46,.T.);
#36=ORIENTED_EDGE('',*,*,#45,.T.);
#37=ORIENTED_EDGE('',*,*,#44,.F.);
#38=ORIENTED_EDGE('',*,*,#47,.T.);
#39=ORIENTED_EDGE('',*,*,#43,.T.);
#40=ORIENTED_EDGE('',*,*,#47,.F.);
#41=EDGE_CURVE('',#48,#49,#55,.T.);
#42=EDGE_CURVE('',#48,#49,#56,.T.);
#43=EDGE_CURVE('',#50,#50,#24,.F.);
#44=EDGE_CURVE('',#51,#52,#57,.T.);
#45=EDGE_CURVE('',#51,#52,#58,.T.);
#46=EDGE_CURVE('',#53,#53,#25,.F.);
#47=EDGE_CURVE('',#54,#54,#26,.F.);
#48=VERTEX_POINT('',#132);
#49=VERTEX_POINT('',#133);
#50=VERTEX_POINT('',#142);
#51=VERTEX_POINT('',#276);
#52=VERTEX_POINT('',#277);
#53=VERTEX_POINT('',#286);
#54=VERTEX_POINT('',#415);
#55=B_SPLINE_CURVE_WITH_KNOTS('',3,(#125,#126,#127,#128,#129,#130,#131),
 .UNSPECIFIED.,.F.,.F.,(4,1,1,1,4),(-3.00581539199931E-5,0.00112698634833722,
0.00228403085059444,0.00344107535285165,0.00459811985510887),
 .UNSPECIFIED.);
#56=B_SPLINE_CURVE_WITH_KNOTS('',3,(#134,#135,#136,#137,#138,#139,#140),
 .UNSPECIFIED.,.F.,.F.,(4,1,1,1,4),(-3.00581539217137E-5,0.00112698173820051,
0.00228402163032273,0.00344106152244495,0.00459810141456718),
 .UNSPECIFIED.);
#57=B_SPLINE_CURVE_WITH_KNOTS('',3,(#269,#270,#271,#272,#273,#274,#275),
 .UNSPECIFIED.,.F.,.F.,(4,1,1,1,4),(-3.00581539197579E-5,0.00112633769835863,
0.00228273355063701,0.0034391294029154,0.00459552525519379),
 .UNSPECIFIED.);
#58=B_SPLINE_CURVE_WITH_KNOTS('',3,(#278,#279,#280,#281,#282,#283,#284),
 .UNSPECIFIED.,.F.,.F.,(4,1,1,1,4),(-3.00581539214921E-5,0.00112698173820076,
0.00228402163032301,0.00344106152244526,0.00459810141456751),
 .UNSPECIFIED.);
#59=EDGE_LOOP('',(#27,#28));
#60=EDGE_LOOP('',(#29));
#61=EDGE_LOOP('',(#30,#31));
#62=EDGE_LOOP('',(#32));
#63=EDGE_LOOP('',(#33,#34));
#64=EDGE_LOOP('',(#35));
#65=EDGE_LOOP('',(#36,#37));
#66=EDGE_LOOP('',(#38));
#67=EDGE_LOOP('',(#39));
#68=EDGE_LOOP('',(#40));
#69=FACE_BOUND('',#59,.T.);
#70=FACE_BOUND('',#60,.T.);
#71=FACE_BOUND('',#61,.T.);
#72=FACE_BOUND('',#62,.T.);
#73=FACE_BOUND('',#63,.T.);
#74=FACE_BOUND('',#64,.T.);
#75=FACE_BOUND('',#65,.T.);
#76=FACE_BOUND('',#66,.T.);
#77=FACE_BOUND('',#67,.T.);
#78=FACE_BOUND('',#68,.T.);
#79=CYLINDRICAL_SURFACE('',#100,1.48);
#80=CYLINDRICAL_SURFACE('',#103,1.48);
#81=ADVANCED_FACE('',(#69,#70),#79,.T.);
#82=ADVANCED_FACE('',(#71,#72),#22,.F.);
#83=ADVANCED_FACE('',(#73,#74),#23,.F.);
#84=ADVANCED_FACE('',(#75,#76),#80,.T.);
#85=ADVANCED_FACE('',(#77),#20,.F.);
#86=ADVANCED_FACE('',(#78),#21,.T.);
#87=CLOSED_SHELL('',(#81,#82,#83,#84,#85,#86));
#88=STYLED_ITEM('',(#89),#96);
#89=PRESENTATION_STYLE_ASSIGNMENT((#90));
#90=SURFACE_STYLE_USAGE(.BOTH.,#91);
#91=SURFACE_SIDE_STYLE('',(#92));
#92=SURFACE_STYLE_FILL_AREA(#93);
#93=FILL_AREA_STYLE('',(#94));
#94=FILL_AREA_STYLE_COLOUR('',#95);
#95=COLOUR_RGB('',0.200000002980232,0.200000002980232,0.200000002980232);
#96=MANIFOLD_SOLID_BREP('',#87);
#97=SHAPE_DEFINITION_REPRESENTATION(#424,#98);
#98=SHAPE_REPRESENTATION('Black_4640742_AVV',(#99),#419);
#99=AXIS2_PLACEMENT_3D('',#123,#107,#108);
#100=AXIS2_PLACEMENT_3D('',#124,#109,#110);
#101=AXIS2_PLACEMENT_3D('',#141,#111,#112);
#102=AXIS2_PLACEMENT_3D('',#285,#113,#114);
#103=AXIS2_PLACEMENT_3D('',#413,#115,#116);
#104=AXIS2_PLACEMENT_3D('',#414,#117,#118);
#105=AXIS2_PLACEMENT_3D('',#416,#119,#120);
#106=AXIS2_PLACEMENT_3D('',#417,#121,#122);
#107=DIRECTION('',(0.,0.,1.));
#108=DIRECTION('',(1.,0.,0.));
#109=DIRECTION('',(-0.0655362461507769,0.,0.997850189377376));
#110=DIRECTION('',(0.997850189377376,0.,0.0655362461507769));
#111=DIRECTION('',(-0.0655362461507769,1.54074395550979E-33,0.997850189377376));
#112=DIRECTION('',(0.997850189377376,-1.18262642010166E-16,0.0655362461507769));
#113=DIRECTION('',(-0.385546156609164,1.54074395550979E-33,0.922688550445871));
#114=DIRECTION('',(0.922688550445871,-1.18262642010166E-16,0.385546156609164));
#115=DIRECTION('',(-0.0655362461508823,0.,0.997850189377369));
#116=DIRECTION('',(0.997850189377369,0.,0.0655362461508823));
#117=DIRECTION('',(-0.0655362461507769,1.54074395550979E-33,0.997850189377376));
#118=DIRECTION('',(0.997850189377376,-1.18262642010166E-16,0.0655362461507769));
#119=DIRECTION('',(-0.0655362461507769,1.54074395550979E-33,0.997850189377376));
#120=DIRECTION('',(0.997850189377376,0.,0.0655362461507769));
#121=DIRECTION('',(-0.0655362461507769,1.54074395550979E-33,0.997850189377376));
#122=DIRECTION('',(0.997850189377376,0.,0.0655362461507769));
#123=CARTESIAN_POINT('',(0.,0.,0.));
#124=CARTESIAN_POINT('',(-9.74639049248813,0.,-0.349247566282675));
#125=CARTESIAN_POINT('',(-10.2280819016971,-1.48,6.98495132565349));
#126=CARTESIAN_POINT('',(-10.6135758573207,-1.48000000000001,6.97230467042625));
#127=CARTESIAN_POINT('',(-11.3883566941888,-1.15956404098699,6.94688796140868));
#128=CARTESIAN_POINT('',(-11.8677212473541,-0.000899393546331076,6.93116311068408));
#129=CARTESIAN_POINT('',(-11.3892478644264,1.15918644231267,6.94685872685891));
#130=CARTESIAN_POINT('',(-10.6135758573317,1.48000000000002,6.97230467076194));
#131=CARTESIAN_POINT('',(-10.2280819016971,1.48,6.98495132565352));
#132=CARTESIAN_POINT('',(-10.2280819016971,-1.48,6.98495132565349));
#133=CARTESIAN_POINT('',(-10.2280819016971,1.48,6.98495132565352));
#134=CARTESIAN_POINT('',(-10.2280819016971,-1.48,6.98495132565349));
#135=CARTESIAN_POINT('',(-9.84258955711794,-1.47999999999999,6.997600219336));
#136=CARTESIAN_POINT('',(-9.06781858776014,-1.15956241609815,7.02323132322647));
#137=CARTESIAN_POINT('',(-8.58847969943995,-0.000899099908066956,7.03928327055211));
#138=CARTESIAN_POINT('',(-9.06692721029908,1.15918441615897,7.02326093579249));
#139=CARTESIAN_POINT('',(-9.84258955713002,1.47999999999998,6.99760021970565));
#140=CARTESIAN_POINT('',(-10.2280819016971,1.48,6.98495132565352));
#141=CARTESIAN_POINT('',(-9.74639049248813,0.,-0.349247566282675));
#142=CARTESIAN_POINT('',(-8.26957221220962,-1.75028710175045E-16,-0.252253921979525));
#143=CARTESIAN_POINT('',(-12.0760678932266,-1.75028710175045E-16,23.5813573649033));
#144=CARTESIAN_POINT('',(-13.0955943667717,-1.75028710175045E-16,26.0212867686612));
#145=CARTESIAN_POINT('',(-13.8728791413506,-1.75028710175045E-16,28.5623639444569));
#146=CARTESIAN_POINT('',(-14.6527456982624,-1.75028710175045E-16,32.4514975129209));
#147=CARTESIAN_POINT('',(-14.8485087292705,-1.75028710175045E-16,33.7607332917315));
#148=CARTESIAN_POINT('',(-15.0444343644255,-1.75028710175045E-16,35.7343095131358));
#149=CARTESIAN_POINT('',(-15.0934658733231,-1.75028710175045E-16,36.3937847781692));
#150=CARTESIAN_POINT('',(-15.1425074478107,-1.75028710175045E-16,37.3842114624294));
#151=CARTESIAN_POINT('',(-15.1547709906497,-1.75028710175045E-16,37.7145559882075));
#152=CARTESIAN_POINT('',(-15.1670351934066,-1.75028710175045E-16,38.2102254715842));
#153=CARTESIAN_POINT('',(-15.170101447764,-1.75028710175045E-16,38.3754740896108));
#154=CARTESIAN_POINT('',(-15.173167747934,-1.75028710175045E-16,38.6233664464794));
#155=CARTESIAN_POINT('',(-15.1739343367875,-1.75028710175045E-16,38.7060004711632));
#156=CARTESIAN_POINT('',(-15.1749564598547,-1.75028710175045E-16,38.8712718820679));
#157=CARTESIAN_POINT('',(-15.1752114970558,-1.75028710175045E-16,38.9523837728164));
#158=CARTESIAN_POINT('',(-15.1752122806445,-1.75028710175045E-16,39.0850729558538));
#159=CARTESIAN_POINT('',(-15.1752121424691,-1.75028710175045E-16,39.1349027916438));
#160=CARTESIAN_POINT('',(-15.1752120517074,-1.75028710175045E-16,39.1845871010314));
#161=CARTESIAN_POINT('',(-12.0760678932266,-2.96,23.5813573649033));
#162=CARTESIAN_POINT('',(-13.0955943667717,-2.96,26.0212867686612));
#163=CARTESIAN_POINT('',(-13.8728791413506,-2.96,28.5623639444569));
#164=CARTESIAN_POINT('',(-14.6527456982624,-2.96,32.4514975129209));
#165=CARTESIAN_POINT('',(-14.8485087292705,-2.96,33.7607332917315));
#166=CARTESIAN_POINT('',(-15.0444343644255,-2.96,35.7343095131358));
#167=CARTESIAN_POINT('',(-15.0934658733231,-2.96,36.3937847781692));
#168=CARTESIAN_POINT('',(-15.1425074478107,-2.96,37.3842114624294));
#169=CARTESIAN_POINT('',(-15.1547709906497,-2.96,37.7145559882075));
#170=CARTESIAN_POINT('',(-15.1670351934066,-2.96,38.2102254715842));
#171=CARTESIAN_POINT('',(-15.170101447764,-2.96,38.3754740896108));
#172=CARTESIAN_POINT('',(-15.173167747934,-2.96,38.6233664464794));
#173=CARTESIAN_POINT('',(-15.1739343367875,-2.96,38.7060004711632));
#174=CARTESIAN_POINT('',(-15.1749564598547,-2.96,38.8712718820679));
#175=CARTESIAN_POINT('',(-15.1752114970558,-2.96,38.9523837728164));
#176=CARTESIAN_POINT('',(-15.1752122806445,-2.96,39.0850729558538));
#177=CARTESIAN_POINT('',(-15.1752121424691,-2.96,39.1349027916438));
#178=CARTESIAN_POINT('',(-15.1752120517074,-2.96,39.1845871010314));
#179=CARTESIAN_POINT('',(-14.8072260025464,-2.96,22.4401407413402));
#180=CARTESIAN_POINT('',(-15.9020346695657,-2.96,25.0602353906344));
#181=CARTESIAN_POINT('',(-16.7367144253504,-2.96,27.7889465990303));
#182=CARTESIAN_POINT('',(-17.5741666031751,-2.96,31.9652551583909));
#183=CARTESIAN_POINT('',(-17.7843848452658,-2.96,33.371165367692));
#184=CARTESIAN_POINT('',(-17.9947776982437,-2.96,35.4904711515857));
#185=CARTESIAN_POINT('',(-18.0474297110084,-2.96,36.19864230219));
#186=CARTESIAN_POINT('',(-18.1000925326092,-2.96,37.2622024412485));
#187=CARTESIAN_POINT('',(-18.1132616197658,-2.96,37.6169397230232));
#188=CARTESIAN_POINT('',(-18.1264314155685,-2.96,38.1492096154291));
#189=CARTESIAN_POINT('',(-18.129724083226,-2.96,38.3266602495452));
#190=CARTESIAN_POINT('',(-18.1330168000799,-2.96,38.5928570652523));
#191=CARTESIAN_POINT('',(-18.1338399941241,-2.96,38.6815928153894));
#192=CARTESIAN_POINT('',(-18.1349375911177,-2.96,38.8590679254176));
#193=CARTESIAN_POINT('',(-18.1352114603557,-2.96,38.9493327813454));
#194=CARTESIAN_POINT('',(-18.1352123018048,-2.96,39.0868320772394));
#195=CARTESIAN_POINT('',(-18.1352121534265,-2.96,39.1358137138063));
#196=CARTESIAN_POINT('',(-18.135212055963,-2.96,39.1849408767257));
#197=CARTESIAN_POINT('',(-14.8072260025464,3.56276436448854E-16,22.4401407413402));
#198=CARTESIAN_POINT('',(-15.9020346695657,3.56276436448854E-16,25.0602353906344));
#199=CARTESIAN_POINT('',(-16.7367144253504,3.56276436448854E-16,27.7889465990327));
#200=CARTESIAN_POINT('',(-17.5741666031751,3.56276436448854E-16,31.9652551583897));
#201=CARTESIAN_POINT('',(-17.7843848452658,3.56276436448854E-16,33.371165367692));
#202=CARTESIAN_POINT('',(-17.9947776982437,3.56276436448854E-16,35.4904711515857));
#203=CARTESIAN_POINT('',(-18.0474297110084,3.56276436448854E-16,36.19864230219));
#204=CARTESIAN_POINT('',(-18.1000925326092,3.56276436448854E-16,37.2622024412485));
#205=CARTESIAN_POINT('',(-18.1132616197658,3.56276436448854E-16,37.6169397230232));
#206=CARTESIAN_POINT('',(-18.1264314155685,3.56276436448854E-16,38.1492096154291));
#207=CARTESIAN_POINT('',(-18.129724083226,3.56276436448854E-16,38.3266602495449));
#208=CARTESIAN_POINT('',(-18.1330168000799,3.56276436448854E-16,38.5928570652524));
#209=CARTESIAN_POINT('',(-18.1338399941241,3.56276436448854E-16,38.6815928153894));
#210=CARTESIAN_POINT('',(-18.1349375911177,3.56276436448854E-16,38.8590679254176));
#211=CARTESIAN_POINT('',(-18.1352114603557,3.56276436448854E-16,38.9493327813454));
#212=CARTESIAN_POINT('',(-18.1352123018048,3.56276436448854E-16,39.0868320772394));
#213=CARTESIAN_POINT('',(-18.1352121534265,3.56276436448854E-16,39.1358137138063));
#214=CARTESIAN_POINT('',(-18.135212055963,3.56276436448854E-16,39.1849408767257));
#215=CARTESIAN_POINT('',(-14.8072260025464,2.96,22.4401407413402));
#216=CARTESIAN_POINT('',(-15.9020346695657,2.96,25.0602353906344));
#217=CARTESIAN_POINT('',(-16.7367144253504,2.96,27.7889465990351));
#218=CARTESIAN_POINT('',(-17.5741666031751,2.96,31.9652551583885));
#219=CARTESIAN_POINT('',(-17.7843848452658,2.96,33.371165367692));
#220=CARTESIAN_POINT('',(-17.9947776982437,2.96,35.4904711515857));
#221=CARTESIAN_POINT('',(-18.0474297110084,2.96,36.19864230219));
#222=CARTESIAN_POINT('',(-18.1000925326092,2.96,37.2622024412485));
#223=CARTESIAN_POINT('',(-18.1132616197658,2.96,37.6169397230232));
#224=CARTESIAN_POINT('',(-18.1264314155685,2.96,38.1492096154291));
#225=CARTESIAN_POINT('',(-18.129724083226,2.96,38.3266602495446));
#226=CARTESIAN_POINT('',(-18.1330168000799,2.96,38.5928570652526));
#227=CARTESIAN_POINT('',(-18.1338399941241,2.96,38.6815928153894));
#228=CARTESIAN_POINT('',(-18.1349375911177,2.96,38.8590679254177));
#229=CARTESIAN_POINT('',(-18.1352114603557,2.96,38.9493327813454));
#230=CARTESIAN_POINT('',(-18.1352123018048,2.96,39.0868320772394));
#231=CARTESIAN_POINT('',(-18.1352121534265,2.96,39.1358137138063));
#232=CARTESIAN_POINT('',(-18.135212055963,2.96,39.1849408767257));
#233=CARTESIAN_POINT('',(-12.0760678932266,2.96,23.5813573649033));
#234=CARTESIAN_POINT('',(-13.0955943667717,2.96,26.0212867686612));
#235=CARTESIAN_POINT('',(-13.8728791413506,2.96,28.5623639444569));
#236=CARTESIAN_POINT('',(-14.6527456982624,2.96,32.4514975129209));
#237=CARTESIAN_POINT('',(-14.8485087292705,2.96,33.7607332917315));
#238=CARTESIAN_POINT('',(-15.0444343644255,2.96,35.7343095131358));
#239=CARTESIAN_POINT('',(-15.0934658733231,2.96,36.3937847781692));
#240=CARTESIAN_POINT('',(-15.1425074478107,2.96,37.3842114624294));
#241=CARTESIAN_POINT('',(-15.1547709906497,2.96,37.7145559882075));
#242=CARTESIAN_POINT('',(-15.1670351934066,2.96,38.2102254715842));
#243=CARTESIAN_POINT('',(-15.170101447764,2.96,38.3754740896108));
#244=CARTESIAN_POINT('',(-15.173167747934,2.96,38.6233664464794));
#245=CARTESIAN_POINT('',(-15.1739343367875,2.96,38.7060004711632));
#246=CARTESIAN_POINT('',(-15.1749564598547,2.96,38.8712718820679));
#247=CARTESIAN_POINT('',(-15.1752114970558,2.96,38.9523837728164));
#248=CARTESIAN_POINT('',(-15.1752122806445,2.96,39.0850729558538));
#249=CARTESIAN_POINT('',(-15.1752121424691,2.96,39.1349027916438));
#250=CARTESIAN_POINT('',(-15.1752120517074,2.96,39.1845871010314));
#251=CARTESIAN_POINT('',(-12.0760678932266,-1.75028710175045E-16,23.5813573649033));
#252=CARTESIAN_POINT('',(-13.0955943667717,-1.75028710175045E-16,26.0212867686612));
#253=CARTESIAN_POINT('',(-13.8728791413506,-1.75028710175045E-16,28.5623639444569));
#254=CARTESIAN_POINT('',(-14.6527456982624,-1.75028710175045E-16,32.4514975129209));
#255=CARTESIAN_POINT('',(-14.8485087292705,-1.75028710175045E-16,33.7607332917315));
#256=CARTESIAN_POINT('',(-15.0444343644255,-1.75028710175045E-16,35.7343095131358));
#257=CARTESIAN_POINT('',(-15.0934658733231,-1.75028710175045E-16,36.3937847781692));
#258=CARTESIAN_POINT('',(-15.1425074478107,-1.75028710175045E-16,37.3842114624294));
#259=CARTESIAN_POINT('',(-15.1547709906497,-1.75028710175045E-16,37.7145559882075));
#260=CARTESIAN_POINT('',(-15.1670351934066,-1.75028710175045E-16,38.2102254715842));
#261=CARTESIAN_POINT('',(-15.170101447764,-1.75028710175045E-16,38.3754740896108));
#262=CARTESIAN_POINT('',(-15.173167747934,-1.75028710175045E-16,38.6233664464794));
#263=CARTESIAN_POINT('',(-15.1739343367875,-1.75028710175045E-16,38.7060004711632));
#264=CARTESIAN_POINT('',(-15.1749564598547,-1.75028710175045E-16,38.8712718820679));
#265=CARTESIAN_POINT('',(-15.1752114970558,-1.75028710175045E-16,38.9523837728164));
#266=CARTESIAN_POINT('',(-15.1752122806445,-1.75028710175045E-16,39.0850729558538));
#267=CARTESIAN_POINT('',(-15.1752121424691,-1.75028710175045E-16,39.1349027916438));
#268=CARTESIAN_POINT('',(-15.1752120517074,-1.75028710175045E-16,39.1845871010314));
#269=CARTESIAN_POINT('',(-16.6552119940758,1.48,39.0365467805906));
#270=CARTESIAN_POINT('',(-16.2699341499719,1.48,39.049186345974));
#271=CARTESIAN_POINT('',(-15.4957108699126,1.1609073394632,39.0745847652288));
#272=CARTESIAN_POINT('',(-15.0153011901163,-0.00104304903611249,39.090343900512));
#273=CARTESIAN_POINT('',(-15.494357584768,-1.1589583094234,39.0746291592402));
#274=CARTESIAN_POINT('',(-16.2699341499605,-1.48,39.0491863456255));
#275=CARTESIAN_POINT('',(-16.6552119940758,-1.48,39.0365467805907));
#276=CARTESIAN_POINT('',(-16.6552119940758,1.48,39.0365467805906));
#277=CARTESIAN_POINT('',(-16.6552119940758,-1.48,39.0365467805907));
#278=CARTESIAN_POINT('',(-16.6552119940758,1.48,39.0365467805906));
#279=CARTESIAN_POINT('',(-17.0407043386553,1.48,39.0238978869166));
#280=CARTESIAN_POINT('',(-17.8154753080127,1.15956241609817,38.9982667830141));
#281=CARTESIAN_POINT('',(-18.294814196333,0.000899099908045545,38.9822148356921));
#282=CARTESIAN_POINT('',(-17.816366685474,-1.15918441615901,38.9982371704541));
#283=CARTESIAN_POINT('',(-17.0407043386427,-1.48,39.0238978865331));
#284=CARTESIAN_POINT('',(-16.6552119940758,-1.48,39.0365467805907));
#285=CARTESIAN_POINT('',(-13.4416469478865,0.,23.0107490531218));
#286=CARTESIAN_POINT('',(-12.0760678932266,-1.75028710175045E-16,23.5813573649033));
#287=CARTESIAN_POINT('',(-8.74808184007063,-1.75028710175045E-16,6.83642579155657));
#288=CARTESIAN_POINT('',(-8.74808174261151,-1.75028710175045E-16,6.88559702796511));
#289=CARTESIAN_POINT('',(-8.74808159369372,-1.75028710175045E-16,6.93462118362061));
#290=CARTESIAN_POINT('',(-8.74808243541733,-1.75028710175045E-16,7.07216532489855));
#291=CARTESIAN_POINT('',(-8.74835630465512,-1.75028710175045E-16,7.16243018082592));
#292=CARTESIAN_POINT('',(-8.74945390164907,-1.75028710175045E-16,7.33990529085424));
#293=CARTESIAN_POINT('',(-8.75027709569327,-1.75028710175045E-16,7.42864104099099));
#294=CARTESIAN_POINT('',(-8.75356981254659,-1.75028710175045E-16,7.6948378566991));
#295=CARTESIAN_POINT('',(-8.75686248020433,-1.75028710175045E-16,7.87228849081431));
#296=CARTESIAN_POINT('',(-8.77003227600753,-1.75028710175045E-16,8.40455838322077));
#297=CARTESIAN_POINT('',(-8.78320136316439,-1.75028710175045E-16,8.75929566499707));
#298=CARTESIAN_POINT('',(-8.83586418476342,-1.75028710175045E-16,9.82285580404973));
#299=CARTESIAN_POINT('',(-8.88851619752865,-1.75028710175045E-16,10.5310269546502));
#300=CARTESIAN_POINT('',(-9.09890905050832,-1.75028710175045E-16,12.650332738567));
#301=CARTESIAN_POINT('',(-9.30912729259549,-1.75028710175045E-16,14.0562429478562));
#302=CARTESIAN_POINT('',(-10.1465794704273,-1.75028710175045E-16,18.2325515072061));
#303=CARTESIAN_POINT('',(-10.9812592262073,-1.75028710175045E-16,20.9612627156091));
#304=CARTESIAN_POINT('',(-12.0760678932266,-1.75028710175045E-16,23.5813573649033));
#305=CARTESIAN_POINT('',(-8.74808184007063,-2.96,6.83642579155657));
#306=CARTESIAN_POINT('',(-8.74808174261151,-2.96,6.88559702796511));
#307=CARTESIAN_POINT('',(-8.74808159369372,-2.96,6.93462118362061));
#308=CARTESIAN_POINT('',(-8.74808243541733,-2.96,7.07216532489855));
#309=CARTESIAN_POINT('',(-8.74835630465512,-2.96,7.16243018082592));
#310=CARTESIAN_POINT('',(-8.74945390164907,-2.96,7.33990529085424));
#311=CARTESIAN_POINT('',(-8.75027709569327,-2.96,7.42864104099099));
#312=CARTESIAN_POINT('',(-8.75356981254659,-2.96,7.6948378566991));
#313=CARTESIAN_POINT('',(-8.75686248020433,-2.96,7.87228849081431));
#314=CARTESIAN_POINT('',(-8.77003227600753,-2.96,8.40455838322077));
#315=CARTESIAN_POINT('',(-8.78320136316439,-2.96,8.75929566499707));
#316=CARTESIAN_POINT('',(-8.83586418476342,-2.96,9.82285580404973));
#317=CARTESIAN_POINT('',(-8.88851619752865,-2.96,10.5310269546502));
#318=CARTESIAN_POINT('',(-9.09890905050832,-2.96,12.650332738567));
#319=CARTESIAN_POINT('',(-9.30912729259549,-2.96,14.0562429478562));
#320=CARTESIAN_POINT('',(-10.1465794704273,-2.96,18.2325515072061));
#321=CARTESIAN_POINT('',(-10.9812592262073,-2.96,20.9612627156091));
#322=CARTESIAN_POINT('',(-12.0760678932266,-2.96,23.5813573649034));
#323=CARTESIAN_POINT('',(-11.7080818443082,-2.96,6.83677807732602));
#324=CARTESIAN_POINT('',(-11.7080817535507,-2.96,6.88650643517353));
#325=CARTESIAN_POINT('',(-11.7080816148729,-2.96,6.93638187382393));
#326=CARTESIAN_POINT('',(-11.7080823987173,-2.96,7.06911433342781));
#327=CARTESIAN_POINT('',(-11.7083374359183,-2.96,7.15022622417562));
#328=CARTESIAN_POINT('',(-11.7093595589855,-2.96,7.31549763508053));
#329=CARTESIAN_POINT('',(-11.7101261478391,-2.96,7.39813165976415));
#330=CARTESIAN_POINT('',(-11.7131924480088,-2.96,7.64602401663292));
#331=CARTESIAN_POINT('',(-11.7162587023661,-2.96,7.81127263465902));
#332=CARTESIAN_POINT('',(-11.7285229051239,-2.96,8.30694211803696));
#333=CARTESIAN_POINT('',(-11.7407864479629,-2.96,8.63728664381522));
#334=CARTESIAN_POINT('',(-11.7898280224487,-2.96,9.62771332807223));
#335=CARTESIAN_POINT('',(-11.8388595313477,-2.96,10.2871885931001));
#336=CARTESIAN_POINT('',(-12.0347851665019,-2.96,12.2607648145275));
#337=CARTESIAN_POINT('',(-12.2305481975117,-2.96,13.5700005933226));
#338=CARTESIAN_POINT('',(-13.0104147544199,-2.96,17.4591341617866));
#339=CARTESIAN_POINT('',(-13.7876995290013,-2.96,20.0002113375824));
#340=CARTESIAN_POINT('',(-14.8072260025464,-2.96,22.4401407413402));
#341=CARTESIAN_POINT('',(-11.7080818443082,3.56276436448854E-16,6.83677807732602));
#342=CARTESIAN_POINT('',(-11.7080817535507,3.56276436448854E-16,6.88650643517353));
#343=CARTESIAN_POINT('',(-11.7080816148729,3.56276436448854E-16,6.93638187382393));
#344=CARTESIAN_POINT('',(-11.7080823987173,3.56276436448854E-16,7.06911433342781));
#345=CARTESIAN_POINT('',(-11.7083374359183,3.56276436448854E-16,7.15022622417564));
#346=CARTESIAN_POINT('',(-11.7093595589855,3.56276436448854E-16,7.31549763508052));
#347=CARTESIAN_POINT('',(-11.7101261478391,3.56276436448854E-16,7.39813165976413));
#348=CARTESIAN_POINT('',(-11.7131924480088,3.56276436448854E-16,7.64602401663296));
#349=CARTESIAN_POINT('',(-11.7162587023661,3.56276436448854E-16,7.81127263465894));
#350=CARTESIAN_POINT('',(-11.7285229051239,3.56276436448854E-16,8.30694211803711));
#351=CARTESIAN_POINT('',(-11.7407864479629,3.56276436448854E-16,8.63728664381522));
#352=CARTESIAN_POINT('',(-11.7898280224487,3.56276436448854E-16,9.62771332807223));
#353=CARTESIAN_POINT('',(-11.8388595313474,3.56276436448854E-16,10.2871885931001));
#354=CARTESIAN_POINT('',(-12.0347851665025,3.56276436448854E-16,12.2607648145275));
#355=CARTESIAN_POINT('',(-12.2305481975117,3.56276436448854E-16,13.5700005933226));
#356=CARTESIAN_POINT('',(-13.0104147544199,3.56276436448854E-16,17.4591341617866));
#357=CARTESIAN_POINT('',(-13.7876995290013,3.56276436448854E-16,20.0002113375824));
#358=CARTESIAN_POINT('',(-14.8072260025464,3.56276436448854E-16,22.4401407413402));
#359=CARTESIAN_POINT('',(-11.7080818443082,2.96,6.83677807732602));
#360=CARTESIAN_POINT('',(-11.7080817535507,2.96,6.88650643517353));
#361=CARTESIAN_POINT('',(-11.7080816148729,2.96,6.93638187382393));
#362=CARTESIAN_POINT('',(-11.7080823987173,2.96,7.06911433342781));
#363=CARTESIAN_POINT('',(-11.7083374359183,2.96,7.15022622417566));
#364=CARTESIAN_POINT('',(-11.7093595589855,2.96,7.3154976350805));
#365=CARTESIAN_POINT('',(-11.7101261478391,2.96,7.39813165976411));
#366=CARTESIAN_POINT('',(-11.7131924480088,2.96,7.646024016633));
#367=CARTESIAN_POINT('',(-11.7162587023661,2.96,7.81127263465887));
#368=CARTESIAN_POINT('',(-11.7285229051239,2.96,8.30694211803726));
#369=CARTESIAN_POINT('',(-11.7407864479629,2.96,8.63728664381522));
#370=CARTESIAN_POINT('',(-11.7898280224487,2.96,9.62771332807223));
#371=CARTESIAN_POINT('',(-11.8388595313471,2.96,10.2871885931001));
#372=CARTESIAN_POINT('',(-12.034785166503,2.96,12.2607648145275));
#373=CARTESIAN_POINT('',(-12.2305481975117,2.96,13.5700005933226));
#374=CARTESIAN_POINT('',(-13.0104147544199,2.96,17.4591341617866));
#375=CARTESIAN_POINT('',(-13.7876995290013,2.96,20.0002113375824));
#376=CARTESIAN_POINT('',(-14.8072260025464,2.96,22.4401407413402));
#377=CARTESIAN_POINT('',(-8.74808184007063,2.96,6.83642579155657));
#378=CARTESIAN_POINT('',(-8.74808174261151,2.96,6.88559702796511));
#379=CARTESIAN_POINT('',(-8.74808159369372,2.96,6.93462118362061));
#380=CARTESIAN_POINT('',(-8.74808243541733,2.96,7.07216532489855));
#381=CARTESIAN_POINT('',(-8.74835630465512,2.96,7.16243018082592));
#382=CARTESIAN_POINT('',(-8.74945390164907,2.96,7.33990529085424));
#383=CARTESIAN_POINT('',(-8.75027709569327,2.96,7.42864104099099));
#384=CARTESIAN_POINT('',(-8.75356981254659,2.96,7.6948378566991));
#385=CARTESIAN_POINT('',(-8.75686248020433,2.96,7.87228849081431));
#386=CARTESIAN_POINT('',(-8.77003227600753,2.96,8.40455838322077));
#387=CARTESIAN_POINT('',(-8.78320136316439,2.96,8.75929566499707));
#388=CARTESIAN_POINT('',(-8.83586418476342,2.96,9.82285580404973));
#389=CARTESIAN_POINT('',(-8.88851619752865,2.96,10.5310269546502));
#390=CARTESIAN_POINT('',(-9.09890905050832,2.96,12.650332738567));
#391=CARTESIAN_POINT('',(-9.30912729259549,2.96,14.0562429478562));
#392=CARTESIAN_POINT('',(-10.1465794704273,2.96,18.2325515072061));
#393=CARTESIAN_POINT('',(-10.9812592262073,2.96,20.9612627156091));
#394=CARTESIAN_POINT('',(-12.0760678932266,2.96,23.5813573649034));
#395=CARTESIAN_POINT('',(-8.74808184007063,-1.75028710175045E-16,6.83642579155657));
#396=CARTESIAN_POINT('',(-8.74808174261151,-1.75028710175045E-16,6.88559702796511));
#397=CARTESIAN_POINT('',(-8.74808159369372,-1.75028710175045E-16,6.93462118362061));
#398=CARTESIAN_POINT('',(-8.74808243541733,-1.75028710175045E-16,7.07216532489855));
#399=CARTESIAN_POINT('',(-8.74835630465512,-1.75028710175045E-16,7.16243018082592));
#400=CARTESIAN_POINT('',(-8.74945390164907,-1.75028710175045E-16,7.33990529085424));
#401=CARTESIAN_POINT('',(-8.75027709569327,-1.75028710175045E-16,7.42864104099099));
#402=CARTESIAN_POINT('',(-8.75356981254659,-1.75028710175045E-16,7.6948378566991));
#403=CARTESIAN_POINT('',(-8.75686248020433,-1.75028710175045E-16,7.87228849081431));
#404=CARTESIAN_POINT('',(-8.77003227600753,-1.75028710175045E-16,8.40455838322077));
#405=CARTESIAN_POINT('',(-8.78320136316439,-1.75028710175045E-16,8.75929566499707));
#406=CARTESIAN_POINT('',(-8.83586418476342,-1.75028710175045E-16,9.82285580404973));
#407=CARTESIAN_POINT('',(-8.88851619752865,-1.75028710175045E-16,10.5310269546502));
#408=CARTESIAN_POINT('',(-9.09890905050832,-1.75028710175045E-16,12.650332738567));
#409=CARTESIAN_POINT('',(-9.30912729259549,-1.75028710175045E-16,14.0562429478562));
#410=CARTESIAN_POINT('',(-10.1465794704273,-1.75028710175045E-16,18.2325515072061));
#411=CARTESIAN_POINT('',(-10.9812592262073,-1.75028710175045E-16,20.9612627156091));
#412=CARTESIAN_POINT('',(-12.0760678932266,-1.75028710175045E-16,23.5813573649033));
#413=CARTESIAN_POINT('',(-16.6421047448457,0.,38.8369767427156));
#414=CARTESIAN_POINT('',(-17.1795019632829,0.,47.0193482956101));
#415=CARTESIAN_POINT('',(-15.7026836830044,-1.75028710175045E-16,47.1163419399132));
#416=CARTESIAN_POINT('',(-9.74639049248813,0.,-0.349247566282675));
#417=CARTESIAN_POINT('',(-17.1795019632829,0.,47.0193482956101));
#418=MECHANICAL_DESIGN_GEOMETRIC_PRESENTATION_REPRESENTATION('',(#88),#419);
#419=(
GEOMETRIC_REPRESENTATION_CONTEXT(3)
GLOBAL_UNCERTAINTY_ASSIGNED_CONTEXT((#420))
GLOBAL_UNIT_ASSIGNED_CONTEXT((#423,#422,#421))
REPRESENTATION_CONTEXT('Black_4640742_AVV','TOP_LEVEL_ASSEMBLY_PART')
);
#420=UNCERTAINTY_MEASURE_WITH_UNIT(LENGTH_MEASURE(0.005),#423,
'DISTANCE_ACCURACY_VALUE','Maximum Tolerance applied to model');
#421=(
NAMED_UNIT(*)
SI_UNIT($,.STERADIAN.)
SOLID_ANGLE_UNIT()
);
#422=(
NAMED_UNIT(*)
PLANE_ANGLE_UNIT()
SI_UNIT($,.RADIAN.)
);
#423=(
LENGTH_UNIT()
NAMED_UNIT(*)
SI_UNIT(.MILLI.,.METRE.)
);
#424=PRODUCT_DEFINITION_SHAPE('','',#425);
#425=PRODUCT_DEFINITION('','',#427,#426);
#426=PRODUCT_DEFINITION_CONTEXT('',#433,'design');
#427=PRODUCT_DEFINITION_FORMATION_WITH_SPECIFIED_SOURCE('','',#429,
 .NOT_KNOWN.);
#428=PRODUCT_RELATED_PRODUCT_CATEGORY('','',(#429));
#429=PRODUCT('Black_4640742_AVV','Black_4640742_AVV',
'Black_4640742_AVV',(#431));
#430=PRODUCT_CATEGORY('','');
#431=PRODUCT_CONTEXT('',#433,'mechanical');
#432=APPLICATION_PROTOCOL_DEFINITION('international standard',
'automotive_design',2010,#433);
#433=APPLICATION_CONTEXT(
'core data for automotive mechanical design processes');
ENDSEC;
END-ISO-10303-21;
