ISO-10303-21;
HEADER;
/* Generated by software containing ST-Developer
 * from STEP Tools, Inc. (www.steptools.com) 
 */
/* OPTION: strings as raw bytes, not using required /X/ escapes */

FILE_DESCRIPTION(
/* description */ ('Unknown'),
/* implementation_level */ '2;1');

FILE_NAME(
/* name */ 'Black_4614226_AVV',
/* time_stamp */ '2025-07-21T23:48:08+02:00',
/* author */ ('Unknown'),
/* organization */ ('Unknown'),
/* preprocessor_version */ 'ST-DEVELOPER v19.4',
/* originating_system */ 'Solid Edge',
/* authorisation */ 'Unknown');

FILE_SCHEMA (('AUTOMOTIVE_DESIGN {1 0 10303 214 3 1 1}'));
ENDSEC;

DATA;
#10=PROPERTY_DEFINITION_REPRESENTATION(#14,#12);
#11=PROPERTY_DEFINITION_REPRESENTATION(#15,#13);
#12=REPRESENTATION('',(#16),#459);
#13=REPRESENTATION('',(#17),#459);
#14=PROPERTY_DEFINITION('pmi validation property','',#464);
#15=PROPERTY_DEFINITION('pmi validation property','',#464);
#16=VALUE_REPRESENTATION_ITEM('number of annotations',COUNT_MEASURE(0.));
#17=VALUE_REPRESENTATION_ITEM('number of views',COUNT_MEASURE(0.));
#18=SHAPE_REPRESENTATION_RELATIONSHIP('','',#87,#19);
#19=ADVANCED_BREP_SHAPE_REPRESENTATION('',(#85),#459);
#20=PLANE('',#93);
#21=PLANE('',#94);
#22=(
BOUNDED_SURFACE()
B_SPLINE_SURFACE(3,3,((#129,#130,#131,#132,#133,#134,#135,#136,#137,#138,
#139,#140,#141,#142,#143,#144,#145,#146,#147,#148,#149,#150,#151,#152,#153,
#154,#155,#156,#157,#158,#159,#160,#161,#162,#163,#164,#165,#166,#167,#168,
#169,#170,#171,#172),(#173,#174,#175,#176,#177,#178,#179,#180,#181,#182,
#183,#184,#185,#186,#187,#188,#189,#190,#191,#192,#193,#194,#195,#196,#197,
#198,#199,#200,#201,#202,#203,#204,#205,#206,#207,#208,#209,#210,#211,#212,
#213,#214,#215,#216),(#217,#218,#219,#220,#221,#222,#223,#224,#225,#226,
#227,#228,#229,#230,#231,#232,#233,#234,#235,#236,#237,#238,#239,#240,#241,
#242,#243,#244,#245,#246,#247,#248,#249,#250,#251,#252,#253,#254,#255,#256,
#257,#258,#259,#260),(#261,#262,#263,#264,#265,#266,#267,#268,#269,#270,
#271,#272,#273,#274,#275,#276,#277,#278,#279,#280,#281,#282,#283,#284,#285,
#286,#287,#288,#289,#290,#291,#292,#293,#294,#295,#296,#297,#298,#299,#300,
#301,#302,#303,#304),(#305,#306,#307,#308,#309,#310,#311,#312,#313,#314,
#315,#316,#317,#318,#319,#320,#321,#322,#323,#324,#325,#326,#327,#328,#329,
#330,#331,#332,#333,#334,#335,#336,#337,#338,#339,#340,#341,#342,#343,#344,
#345,#346,#347,#348),(#349,#350,#351,#352,#353,#354,#355,#356,#357,#358,
#359,#360,#361,#362,#363,#364,#365,#366,#367,#368,#369,#370,#371,#372,#373,
#374,#375,#376,#377,#378,#379,#380,#381,#382,#383,#384,#385,#386,#387,#388,
#389,#390,#391,#392),(#393,#394,#395,#396,#397,#398,#399,#400,#401,#402,
#403,#404,#405,#406,#407,#408,#409,#410,#411,#412,#413,#414,#415,#416,#417,
#418,#419,#420,#421,#422,#423,#424,#425,#426,#427,#428,#429,#430,#431,#432,
#433,#434,#435,#436)),.UNSPECIFIED.,.T.,.F.,.F.)
B_SPLINE_SURFACE_WITH_KNOTS((4,3,4),(4,2,2,2,2,2,2,2,2,2,2,2,2,2,2,2,2,
2,2,2,2,4),(0.,0.5,1.),(-0.00454930722112737,-0.00227465361056368,0.,0.00390625,
0.0078125,0.015625,0.03125,0.0625,0.125,0.25,0.375,0.5,0.625,0.75,0.875,
0.9375,0.96875,0.984375,0.9921875,0.99609375,1.,1.00341677191743),
 .UNSPECIFIED.)
GEOMETRIC_REPRESENTATION_ITEM()
RATIONAL_B_SPLINE_SURFACE(((1.,1.,1.,1.,1.,1.,1.,1.,1.,1.,1.,1.,1.,1.,1.,
1.,1.,1.,1.,1.,1.,1.,1.,1.,1.,1.,1.,1.,1.,1.,1.,1.,1.,1.,1.,1.,1.,1.,1.,
1.,1.,1.,1.,1.),(0.333333333333333,0.333333333333333,0.333333333333333,
0.333333333333333,0.333333333333333,0.333333333333333,0.333333333333333,
0.333333333333333,0.333333333333333,0.333333333333333,0.333333333333333,
0.333333333333333,0.333333333333333,0.333333333333333,0.333333333333333,
0.333333333333333,0.333333333333333,0.333333333333333,0.333333333333333,
0.333333333333333,0.333333333333333,0.333333333333333,0.333333333333333,
0.333333333333333,0.333333333333333,0.333333333333333,0.333333333333333,
0.333333333333333,0.333333333333333,0.333333333333333,0.333333333333333,
0.333333333333333,0.333333333333333,0.333333333333333,0.333333333333333,
0.333333333333333,0.333333333333333,0.333333333333333,0.333333333333333,
0.333333333333333,0.333333333333333,0.333333333333333,0.333333333333333,
0.333333333333333),(0.333333333333333,0.333333333333333,0.333333333333333,
0.333333333333333,0.333333333333333,0.333333333333333,0.333333333333333,
0.333333333333333,0.333333333333333,0.333333333333333,0.333333333333333,
0.333333333333333,0.333333333333333,0.333333333333333,0.333333333333333,
0.333333333333333,0.333333333333333,0.333333333333333,0.333333333333333,
0.333333333333333,0.333333333333333,0.333333333333333,0.333333333333333,
0.333333333333333,0.333333333333333,0.333333333333333,0.333333333333333,
0.333333333333333,0.333333333333333,0.333333333333333,0.333333333333333,
0.333333333333333,0.333333333333333,0.333333333333333,0.333333333333333,
0.333333333333333,0.333333333333333,0.333333333333333,0.333333333333333,
0.333333333333333,0.333333333333333,0.333333333333333,0.333333333333333,
0.333333333333333),(1.,1.,1.,1.,1.,1.,1.,1.,1.,1.,1.,1.,1.,1.,1.,1.,1.,
1.,1.,1.,1.,1.,1.,1.,1.,1.,1.,1.,1.,1.,1.,1.,1.,1.,1.,1.,1.,1.,1.,1.,1.,
1.,1.,1.),(0.333333333333333,0.333333333333333,0.333333333333333,0.333333333333333,
0.333333333333333,0.333333333333333,0.333333333333333,0.333333333333333,
0.333333333333333,0.333333333333333,0.333333333333333,0.333333333333333,
0.333333333333333,0.333333333333333,0.333333333333333,0.333333333333333,
0.333333333333333,0.333333333333333,0.333333333333333,0.333333333333333,
0.333333333333333,0.333333333333333,0.333333333333333,0.333333333333333,
0.333333333333333,0.333333333333333,0.333333333333333,0.333333333333333,
0.333333333333333,0.333333333333333,0.333333333333333,0.333333333333333,
0.333333333333333,0.333333333333333,0.333333333333333,0.333333333333333,
0.333333333333333,0.333333333333333,0.333333333333333,0.333333333333333,
0.333333333333333,0.333333333333333,0.333333333333333,0.333333333333333),
(0.333333333333333,0.333333333333333,0.333333333333333,0.333333333333333,
0.333333333333333,0.333333333333333,0.333333333333333,0.333333333333333,
0.333333333333333,0.333333333333333,0.333333333333333,0.333333333333333,
0.333333333333333,0.333333333333333,0.333333333333333,0.333333333333333,
0.333333333333333,0.333333333333333,0.333333333333333,0.333333333333333,
0.333333333333333,0.333333333333333,0.333333333333333,0.333333333333333,
0.333333333333333,0.333333333333333,0.333333333333333,0.333333333333333,
0.333333333333333,0.333333333333333,0.333333333333333,0.333333333333333,
0.333333333333333,0.333333333333333,0.333333333333333,0.333333333333333,
0.333333333333333,0.333333333333333,0.333333333333333,0.333333333333333,
0.333333333333333,0.333333333333333,0.333333333333333,0.333333333333333),
(1.,1.,1.,1.,1.,1.,1.,1.,1.,1.,1.,1.,1.,1.,1.,1.,1.,1.,1.,1.,1.,1.,1.,1.,
1.,1.,1.,1.,1.,1.,1.,1.,1.,1.,1.,1.,1.,1.,1.,1.,1.,1.,1.,1.)))
REPRESENTATION_ITEM('')
SURFACE()
);
#23=CIRCLE('',#90,1.48);
#24=CIRCLE('',#92,1.48);
#25=ORIENTED_EDGE('',*,*,#37,.F.);
#26=ORIENTED_EDGE('',*,*,#38,.T.);
#27=ORIENTED_EDGE('',*,*,#39,.T.);
#28=ORIENTED_EDGE('',*,*,#40,.F.);
#29=ORIENTED_EDGE('',*,*,#41,.T.);
#30=ORIENTED_EDGE('',*,*,#38,.F.);
#31=ORIENTED_EDGE('',*,*,#37,.T.);
#32=ORIENTED_EDGE('',*,*,#41,.F.);
#33=ORIENTED_EDGE('',*,*,#40,.T.);
#34=ORIENTED_EDGE('',*,*,#42,.F.);
#35=ORIENTED_EDGE('',*,*,#39,.F.);
#36=ORIENTED_EDGE('',*,*,#42,.T.);
#37=EDGE_CURVE('',#43,#44,#49,.T.);
#38=EDGE_CURVE('',#43,#44,#50,.T.);
#39=EDGE_CURVE('',#45,#45,#23,.F.);
#40=EDGE_CURVE('',#46,#47,#51,.F.);
#41=EDGE_CURVE('',#46,#47,#52,.F.);
#42=EDGE_CURVE('',#48,#48,#24,.F.);
#43=VERTEX_POINT('',#118);
#44=VERTEX_POINT('',#119);
#45=VERTEX_POINT('',#128);
#46=VERTEX_POINT('',#444);
#47=VERTEX_POINT('',#445);
#48=VERTEX_POINT('',#455);
#49=B_SPLINE_CURVE_WITH_KNOTS('',3,(#111,#112,#113,#114,#115,#116,#117),
 .UNSPECIFIED.,.F.,.F.,(4,1,1,1,4),(-2.41069382924717E-5,0.00113332660621364,
0.00229076015071976,0.00344819369522588,0.00460562723973199),
 .UNSPECIFIED.);
#50=B_SPLINE_CURVE_WITH_KNOTS('',3,(#120,#121,#122,#123,#124,#125,#126),
 .UNSPECIFIED.,.F.,.F.,(4,1,1,1,4),(-2.41069382910158E-5,0.00113333586320983,
0.00229077866471068,0.00344822146621153,0.00460566426771238),
 .UNSPECIFIED.);
#51=B_SPLINE_CURVE_WITH_KNOTS('',3,(#437,#438,#439,#440,#441,#442,#443),
 .UNSPECIFIED.,.F.,.F.,(4,1,1,1,4),(-3.12377183409555E-5,0.00112577389944457,
0.00228278551723009,0.00343979713501562,0.00459680875280114),
 .UNSPECIFIED.);
#52=B_SPLINE_CURVE_WITH_KNOTS('',3,(#446,#447,#448,#449,#450,#451,#452),
 .UNSPECIFIED.,.F.,.F.,(4,1,1,1,4),(-3.12377183416071E-5,0.0011257706234316,
0.00228277896520481,0.00343978730697801,0.00459679564875122),
 .UNSPECIFIED.);
#53=EDGE_LOOP('',(#25,#26));
#54=EDGE_LOOP('',(#27));
#55=EDGE_LOOP('',(#28,#29));
#56=EDGE_LOOP('',(#30,#31));
#57=EDGE_LOOP('',(#32,#33));
#58=EDGE_LOOP('',(#34));
#59=EDGE_LOOP('',(#35));
#60=EDGE_LOOP('',(#36));
#61=FACE_BOUND('',#53,.T.);
#62=FACE_BOUND('',#54,.T.);
#63=FACE_BOUND('',#55,.T.);
#64=FACE_BOUND('',#56,.T.);
#65=FACE_BOUND('',#57,.T.);
#66=FACE_BOUND('',#58,.T.);
#67=FACE_BOUND('',#59,.T.);
#68=FACE_BOUND('',#60,.T.);
#69=CYLINDRICAL_SURFACE('',#89,1.48);
#70=CYLINDRICAL_SURFACE('',#91,1.48);
#71=ADVANCED_FACE('',(#61,#62),#69,.T.);
#72=ADVANCED_FACE('',(#63,#64),#22,.T.);
#73=ADVANCED_FACE('',(#65,#66),#70,.T.);
#74=ADVANCED_FACE('',(#67),#20,.T.);
#75=ADVANCED_FACE('',(#68),#21,.F.);
#76=CLOSED_SHELL('',(#71,#72,#73,#74,#75));
#77=STYLED_ITEM('',(#78),#85);
#78=PRESENTATION_STYLE_ASSIGNMENT((#79));
#79=SURFACE_STYLE_USAGE(.BOTH.,#80);
#80=SURFACE_SIDE_STYLE('',(#81));
#81=SURFACE_STYLE_FILL_AREA(#82);
#82=FILL_AREA_STYLE('',(#83));
#83=FILL_AREA_STYLE_COLOUR('',#84);
#84=COLOUR_RGB('',0.200000002980232,0.200000002980232,0.200000002980232);
#85=MANIFOLD_SOLID_BREP('',#76);
#86=SHAPE_DEFINITION_REPRESENTATION(#464,#87);
#87=SHAPE_REPRESENTATION('Black_4614226_AVV',(#88),#459);
#88=AXIS2_PLACEMENT_3D('',#109,#95,#96);
#89=AXIS2_PLACEMENT_3D('',#110,#97,#98);
#90=AXIS2_PLACEMENT_3D('',#127,#99,#100);
#91=AXIS2_PLACEMENT_3D('',#453,#101,#102);
#92=AXIS2_PLACEMENT_3D('',#454,#103,#104);
#93=AXIS2_PLACEMENT_3D('',#456,#105,#106);
#94=AXIS2_PLACEMENT_3D('',#457,#107,#108);
#95=DIRECTION('',(0.,0.,1.));
#96=DIRECTION('',(1.,0.,0.));
#97=DIRECTION('',(-0.485642931178626,0.,0.874157276121541));
#98=DIRECTION('',(0.874157276121541,0.,0.485642931178626));
#99=DIRECTION('',(0.485642931178626,0.,-0.874157276121542));
#100=DIRECTION('',(0.,-1.,0.));
#101=DIRECTION('',(-0.997850189377369,0.,-0.0655362461508801));
#102=DIRECTION('',(-0.0655362461508801,0.,0.997850189377369));
#103=DIRECTION('',(0.997850189377369,0.,0.0655362461508801));
#104=DIRECTION('',(0.,-1.,0.));
#105=DIRECTION('',(0.485642931178626,0.,-0.874157276121542));
#106=DIRECTION('',(-0.874157276121542,0.,-0.485642931178626));
#107=DIRECTION('',(0.997850189377369,0.,0.0655362461508801));
#108=DIRECTION('',(0.0655362461508801,0.,-0.997850189377369));
#109=CARTESIAN_POINT('',(0.,0.,0.));
#110=CARTESIAN_POINT('',(-0.365485921973961,0.,-0.557315935659414));
#111=CARTESIAN_POINT('',(-3.76498644022453,-1.48,5.56178499719181));
#112=CARTESIAN_POINT('',(-3.41859896936469,-1.47999999999999,5.73171383580851));
#113=CARTESIAN_POINT('',(-2.72239084410383,-1.15990450713088,6.07355853423193));
#114=CARTESIAN_POINT('',(-2.29122411918662,-0.00102004772469532,6.28553961280599));
#115=CARTESIAN_POINT('',(-2.7215011891119,1.15949740737802,6.07399555701633));
#116=CARTESIAN_POINT('',(-3.41859896936856,1.48,5.7317138358163));
#117=CARTESIAN_POINT('',(-3.76498644022455,1.48,5.56178499719175));
#118=CARTESIAN_POINT('',(-3.76498644022453,-1.48,5.56178499719181));
#119=CARTESIAN_POINT('',(-3.76498644022454,1.48,5.56178499719175));
#120=CARTESIAN_POINT('',(-3.76498644022453,-1.48,5.56178499719181));
#121=CARTESIAN_POINT('',(-4.11137772997297,-1.48000000000001,5.39185693691037));
#122=CARTESIAN_POINT('',(-4.80771361584714,-1.15990777984575,5.05025971139084));
#123=CARTESIAN_POINT('',(-5.23909176037967,-0.00102065112991613,4.83864183628844));
#124=CARTESIAN_POINT('',(-4.8086031095111,1.15950149528924,5.04982335840788));
#125=CARTESIAN_POINT('',(-4.11137772997736,1.48,5.39185693691923));
#126=CARTESIAN_POINT('',(-3.76498644022454,1.48,5.56178499719175));
#127=CARTESIAN_POINT('',(-0.365485921973961,0.,-0.557315935659414));
#128=CARTESIAN_POINT('',(-0.365485921973961,-1.48,-0.557315935659414));
#129=CARTESIAN_POINT('',(-3.660051892028,-1.48,5.31703911556588));
#130=CARTESIAN_POINT('',(-3.67754098339412,-1.48,5.35783009583674));
#131=CARTESIAN_POINT('',(-3.69503007476013,-1.48,5.39862107610776));
#132=CARTESIAN_POINT('',(-3.73000825749221,-1.48,5.48020303664948));
#133=CARTESIAN_POINT('',(-3.74749714504328,-1.48,5.52099410469298));
#134=CARTESIAN_POINT('',(-3.79502070961101,-1.48,5.63183497011111));
#135=CARTESIAN_POINT('',(-3.82521434039835,-1.48,5.70181631606087));
#136=CARTESIAN_POINT('',(-3.8859218097953,-1.48,5.84163944237229));
#137=CARTESIAN_POINT('',(-3.91643529840496,-1.48,5.91148137348271));
#138=CARTESIAN_POINT('',(-4.00845409239316,-1.48,6.12079615800716));
#139=CARTESIAN_POINT('',(-4.07043772965443,-1.48,6.26005800308576));
#140=CARTESIAN_POINT('',(-4.25829436435411,-1.48,6.67698258678791));
#141=CARTESIAN_POINT('',(-4.38607314412004,-1.48,6.95378437588128));
#142=CARTESIAN_POINT('',(-4.77696961656254,-1.48,7.7806104464843));
#143=CARTESIAN_POINT('',(-5.04764838705916,-1.48,8.32705532142526));
#144=CARTESIAN_POINT('',(-5.88939046229056,-1.48,9.95098959822023));
#145=CARTESIAN_POINT('',(-6.49017358975193,-1.48,11.01307260634));
#146=CARTESIAN_POINT('',(-8.40655939408684,-1.48,14.1291706732633));
#147=CARTESIAN_POINT('',(-9.83633817893211,-1.48,16.1128277052545));
#148=CARTESIAN_POINT('',(-12.9700000608281,-1.48,19.8506612817742));
#149=CARTESIAN_POINT('',(-14.6737728903891,-1.48,21.6046987660275));
#150=CARTESIAN_POINT('',(-18.3190039253003,-1.48,24.8457254418463));
#151=CARTESIAN_POINT('',(-20.260323091213,-1.48,26.3325910124636));
#152=CARTESIAN_POINT('',(-24.339100226817,-1.48,29.007439382249));
#153=CARTESIAN_POINT('',(-26.4764655545778,-1.48,30.1953614271056));
#154=CARTESIAN_POINT('',(-30.9017324945238,-1.48,32.2469402634605));
#155=CARTESIAN_POINT('',(-33.189465315303,-1.48,33.1105188015834));
#156=CARTESIAN_POINT('',(-37.8665030043811,-1.48,34.4949158150798));
#157=CARTESIAN_POINT('',(-40.2556363876387,-1.48,35.0156885785027));
#158=CARTESIAN_POINT('',(-43.8773215401567,-1.48,35.5314388763706));
#159=CARTESIAN_POINT('',(-45.0908472093643,-1.48,35.6591734939047));
#160=CARTESIAN_POINT('',(-46.9157071036312,-1.48,35.7839878478222));
#161=CARTESIAN_POINT('',(-47.5247556479751,-1.48,35.8144651963094));
#162=CARTESIAN_POINT('',(-48.4388676459575,-1.48,35.8434593050266));
#163=CARTESIAN_POINT('',(-48.7436615777848,-1.48,35.8503372498189));
#164=CARTESIAN_POINT('',(-49.2009126974885,-1.48,35.8564721684657));
#165=CARTESIAN_POINT('',(-49.3533397807617,-1.48,35.8578201550127));
#166=CARTESIAN_POINT('',(-49.5819861980478,-1.48,35.8587965408799));
#167=CARTESIAN_POINT('',(-49.6582026363523,-1.48,35.8589477379836));
#168=CARTESIAN_POINT('',(-49.8106359049087,-1.48,35.8589015929798));
#169=CARTESIAN_POINT('',(-49.8868527339328,-1.48,35.8587038697906));
#170=CARTESIAN_POINT('',(-50.029734868885,-1.48,35.8580079230681));
#171=CARTESIAN_POINT('',(-50.0964007420352,-1.48,35.8576825419301));
#172=CARTESIAN_POINT('',(-50.1630666162763,-1.48,35.8573574941227));
#173=CARTESIAN_POINT('',(-0.939557527492994,-1.48,6.4834483115744));
#174=CARTESIAN_POINT('',(-0.957046618859113,-1.48,6.52423929184526));
#175=CARTESIAN_POINT('',(-0.974535710225128,-1.48,6.56503027211628));
#176=CARTESIAN_POINT('',(-1.00951389295721,-1.48,6.64661223265801));
#177=CARTESIAN_POINT('',(-1.02648509133803,-1.48,6.68619589288161));
#178=CARTESIAN_POINT('',(-1.0754153698101,-1.48,6.80031764085646));
#179=CARTESIAN_POINT('',(-1.10828546755357,-1.48,6.87651536614658));
#180=CARTESIAN_POINT('',(-1.17258681913895,-1.48,7.02461602153543));
#181=CARTESIAN_POINT('',(-1.20490670627419,-1.48,7.09859259496736));
#182=CARTESIAN_POINT('',(-1.30237301286664,-1.48,7.32029881473662));
#183=CARTESIAN_POINT('',(-1.36802608145368,-1.48,7.46780496104371));
#184=CARTESIAN_POINT('',(-1.5670038289276,-1.48,7.90941148009963));
#185=CARTESIAN_POINT('',(-1.70234711245601,-1.48,8.20259993510776));
#186=CARTESIAN_POINT('',(-2.11638465606602,-1.48,9.07837410909193));
#187=CARTESIAN_POINT('',(-2.40308760977725,-1.48,9.65716852062973));
#188=CARTESIAN_POINT('',(-3.29466081586092,-1.48,11.3772397066071));
#189=CARTESIAN_POINT('',(-3.93101030446989,-1.48,12.5021980288143));
#190=CARTESIAN_POINT('',(-5.96084614841861,-1.48,15.8027691012869));
#191=CARTESIAN_POINT('',(-7.47526783732932,-1.48,17.9038586295769));
#192=CARTESIAN_POINT('',(-10.7944425026321,-1.48,21.8629719538336));
#193=CARTESIAN_POINT('',(-12.5990786837015,-1.48,23.7208484571451));
#194=CARTESIAN_POINT('',(-16.4601073958841,-1.48,27.1537439121844));
#195=CARTESIAN_POINT('',(-18.5163526564144,-1.48,28.7286319245762));
#196=CARTESIAN_POINT('',(-22.8365933984504,-1.48,31.561831317853));
#197=CARTESIAN_POINT('',(-25.1004907536187,-1.48,32.8200783477629));
#198=CARTESIAN_POINT('',(-29.7877334963971,-1.48,34.9931106512343));
#199=CARTESIAN_POINT('',(-32.2109001001726,-1.48,35.9078130388129));
#200=CARTESIAN_POINT('',(-37.1648184204441,-1.48,37.3741663555064));
#201=CARTESIAN_POINT('',(-39.6953884999905,-1.48,37.9257688665292));
#202=CARTESIAN_POINT('',(-43.5314774135377,-1.48,38.4720515820243));
#203=CARTESIAN_POINT('',(-44.8168438023633,-1.48,38.6073480889218));
#204=CARTESIAN_POINT('',(-46.7497354023694,-1.48,38.7395514525865));
#205=CARTESIAN_POINT('',(-47.3948396205402,-1.48,38.7718330601058));
#206=CARTESIAN_POINT('',(-48.3630670488012,-1.48,38.8025436200589));
#207=CARTESIAN_POINT('',(-48.6859047813929,-1.48,38.8098287391833));
#208=CARTESIAN_POINT('',(-49.1702251673838,-1.48,38.8163268450135));
#209=CARTESIAN_POINT('',(-49.3316759339864,-1.48,38.8177546323647));
#210=CARTESIAN_POINT('',(-49.573858219176,-1.48,38.8187888202745));
#211=CARTESIAN_POINT('',(-49.6545866706282,-1.48,38.818948968247));
#212=CARTESIAN_POINT('',(-49.816043988683,-1.48,38.8189000914591));
#213=CARTESIAN_POINT('',(-49.8990288552331,-1.48,38.8186796633022));
#214=CARTESIAN_POINT('',(-50.0461403014491,-1.48,38.8179631377038));
#215=CARTESIAN_POINT('',(-50.1108328646572,-1.48,38.8176473582475));
#216=CARTESIAN_POINT('',(-50.1774987388983,-1.48,38.8173223104401));
#217=CARTESIAN_POINT('',(-0.939557527492994,1.48,6.4834483115744));
#218=CARTESIAN_POINT('',(-0.957046618859113,1.48,6.52423929184526));
#219=CARTESIAN_POINT('',(-0.974535710225128,1.48,6.56503027211628));
#220=CARTESIAN_POINT('',(-1.00951389295721,1.48,6.64661223265801));
#221=CARTESIAN_POINT('',(-1.02648509133803,1.48,6.68619589288161));
#222=CARTESIAN_POINT('',(-1.0754153698101,1.48,6.80031764085646));
#223=CARTESIAN_POINT('',(-1.10828546755357,1.48,6.87651536614658));
#224=CARTESIAN_POINT('',(-1.17258681913895,1.48,7.02461602153543));
#225=CARTESIAN_POINT('',(-1.20490670627419,1.48,7.09859259496736));
#226=CARTESIAN_POINT('',(-1.30237301286664,1.48,7.32029881473662));
#227=CARTESIAN_POINT('',(-1.36802608145368,1.48,7.46780496104371));
#228=CARTESIAN_POINT('',(-1.5670038289276,1.48,7.90941148009963));
#229=CARTESIAN_POINT('',(-1.70234711245601,1.48,8.20259993510776));
#230=CARTESIAN_POINT('',(-2.11638465606602,1.48,9.07837410909193));
#231=CARTESIAN_POINT('',(-2.40308760977725,1.48,9.65716852062973));
#232=CARTESIAN_POINT('',(-3.29466081586092,1.48,11.3772397066071));
#233=CARTESIAN_POINT('',(-3.93101030446989,1.48,12.5021980288143));
#234=CARTESIAN_POINT('',(-5.96084614841861,1.48,15.8027691012869));
#235=CARTESIAN_POINT('',(-7.47526783732932,1.48,17.9038586295769));
#236=CARTESIAN_POINT('',(-10.7944425026321,1.48,21.8629719538336));
#237=CARTESIAN_POINT('',(-12.5990786837015,1.48,23.7208484571451));
#238=CARTESIAN_POINT('',(-16.4601073958841,1.48,27.1537439121844));
#239=CARTESIAN_POINT('',(-18.5163526564144,1.48,28.7286319245762));
#240=CARTESIAN_POINT('',(-22.8365933984504,1.48,31.561831317853));
#241=CARTESIAN_POINT('',(-25.1004907536187,1.48,32.8200783477629));
#242=CARTESIAN_POINT('',(-29.7877334963971,1.48,34.9931106512343));
#243=CARTESIAN_POINT('',(-32.2109001001726,1.48,35.9078130388129));
#244=CARTESIAN_POINT('',(-37.1648184204441,1.48,37.3741663555064));
#245=CARTESIAN_POINT('',(-39.6953884999905,1.48,37.9257688665292));
#246=CARTESIAN_POINT('',(-43.5314774135377,1.48,38.4720515820243));
#247=CARTESIAN_POINT('',(-44.8168438023633,1.48,38.6073480889218));
#248=CARTESIAN_POINT('',(-46.7497354023694,1.48,38.7395514525865));
#249=CARTESIAN_POINT('',(-47.3948396205402,1.48,38.7718330601058));
#250=CARTESIAN_POINT('',(-48.3630670488012,1.48,38.8025436200589));
#251=CARTESIAN_POINT('',(-48.6859047813929,1.48,38.8098287391833));
#252=CARTESIAN_POINT('',(-49.1702251673838,1.48,38.8163268450135));
#253=CARTESIAN_POINT('',(-49.3316759339864,1.48,38.8177546323647));
#254=CARTESIAN_POINT('',(-49.573858219176,1.48,38.8187888202745));
#255=CARTESIAN_POINT('',(-49.6545866706282,1.48,38.818948968247));
#256=CARTESIAN_POINT('',(-49.816043988683,1.48,38.8189000914591));
#257=CARTESIAN_POINT('',(-49.8990288552331,1.48,38.8186796633022));
#258=CARTESIAN_POINT('',(-50.0461403014491,1.48,38.8179631377038));
#259=CARTESIAN_POINT('',(-50.1108328646572,1.48,38.8176473582475));
#260=CARTESIAN_POINT('',(-50.1774987388983,1.48,38.8173223104401));
#261=CARTESIAN_POINT('',(-3.660051892028,1.48,5.31703911556588));
#262=CARTESIAN_POINT('',(-3.67754098339412,1.48,5.35783009583674));
#263=CARTESIAN_POINT('',(-3.69503007476013,1.48,5.39862107610776));
#264=CARTESIAN_POINT('',(-3.73000825749221,1.48,5.48020303664948));
#265=CARTESIAN_POINT('',(-3.74749714504328,1.48,5.52099410469298));
#266=CARTESIAN_POINT('',(-3.79502070961101,1.48,5.63183497011111));
#267=CARTESIAN_POINT('',(-3.82521434039835,1.48,5.70181631606087));
#268=CARTESIAN_POINT('',(-3.8859218097953,1.48,5.84163944237229));
#269=CARTESIAN_POINT('',(-3.91643529840496,1.48,5.91148137348271));
#270=CARTESIAN_POINT('',(-4.00845409239316,1.48,6.12079615800716));
#271=CARTESIAN_POINT('',(-4.07043772965443,1.48,6.26005800308576));
#272=CARTESIAN_POINT('',(-4.25829436435411,1.48,6.67698258678791));
#273=CARTESIAN_POINT('',(-4.38607314412004,1.48,6.95378437588128));
#274=CARTESIAN_POINT('',(-4.77696961656254,1.48,7.7806104464843));
#275=CARTESIAN_POINT('',(-5.04764838705916,1.48,8.32705532142526));
#276=CARTESIAN_POINT('',(-5.88939046229056,1.48,9.95098959822023));
#277=CARTESIAN_POINT('',(-6.49017358975193,1.48,11.01307260634));
#278=CARTESIAN_POINT('',(-8.40655939408684,1.48,14.1291706732633));
#279=CARTESIAN_POINT('',(-9.83633817893211,1.48,16.1128277052545));
#280=CARTESIAN_POINT('',(-12.9700000608281,1.48,19.8506612817742));
#281=CARTESIAN_POINT('',(-14.6737728903891,1.48,21.6046987660275));
#282=CARTESIAN_POINT('',(-18.3190039253003,1.48,24.8457254418463));
#283=CARTESIAN_POINT('',(-20.260323091213,1.48,26.3325910124636));
#284=CARTESIAN_POINT('',(-24.339100226817,1.48,29.007439382249));
#285=CARTESIAN_POINT('',(-26.4764655545778,1.48,30.1953614271056));
#286=CARTESIAN_POINT('',(-30.9017324945238,1.48,32.2469402634605));
#287=CARTESIAN_POINT('',(-33.189465315303,1.48,33.1105188015834));
#288=CARTESIAN_POINT('',(-37.8665030043811,1.48,34.4949158150798));
#289=CARTESIAN_POINT('',(-40.2556363876387,1.48,35.0156885785027));
#290=CARTESIAN_POINT('',(-43.8773215401567,1.48,35.5314388763706));
#291=CARTESIAN_POINT('',(-45.0908472093643,1.48,35.6591734939047));
#292=CARTESIAN_POINT('',(-46.9157071036312,1.48,35.7839878478222));
#293=CARTESIAN_POINT('',(-47.5247556479751,1.48,35.8144651963094));
#294=CARTESIAN_POINT('',(-48.4388676459575,1.48,35.8434593050266));
#295=CARTESIAN_POINT('',(-48.7436615777848,1.48,35.8503372498189));
#296=CARTESIAN_POINT('',(-49.2009126974885,1.48,35.8564721684657));
#297=CARTESIAN_POINT('',(-49.3533397807617,1.48,35.8578201550127));
#298=CARTESIAN_POINT('',(-49.5819861980478,1.48,35.8587965408799));
#299=CARTESIAN_POINT('',(-49.6582026363523,1.48,35.8589477379836));
#300=CARTESIAN_POINT('',(-49.8106359049087,1.48,35.8589015929798));
#301=CARTESIAN_POINT('',(-49.8868527339328,1.48,35.8587038697906));
#302=CARTESIAN_POINT('',(-50.029734868885,1.48,35.8580079230681));
#303=CARTESIAN_POINT('',(-50.0964007420352,1.48,35.8576825419301));
#304=CARTESIAN_POINT('',(-50.1630666162763,1.48,35.8573574941227));
#305=CARTESIAN_POINT('',(-6.38054625656302,1.48,4.15062991955736));
#306=CARTESIAN_POINT('',(-6.39803534792913,1.48,4.19142089982822));
#307=CARTESIAN_POINT('',(-6.41552443929515,1.48,4.23221188009924));
#308=CARTESIAN_POINT('',(-6.45050262202723,1.48,4.31379384064096));
#309=CARTESIAN_POINT('',(-6.46850919874854,1.48,4.35579231650436));
#310=CARTESIAN_POINT('',(-6.51462604941194,1.48,4.46335229936578));
#311=CARTESIAN_POINT('',(-6.54214321324312,1.48,4.52711726597517));
#312=CARTESIAN_POINT('',(-6.59925680045164,1.48,4.65866286320917));
#313=CARTESIAN_POINT('',(-6.62796389053572,1.48,4.72437015199805));
#314=CARTESIAN_POINT('',(-6.71453517191969,1.48,4.9212935012777));
#315=CARTESIAN_POINT('',(-6.7728493778552,1.48,5.05231104512782));
#316=CARTESIAN_POINT('',(-6.94958489978062,1.48,5.4445536934762));
#317=CARTESIAN_POINT('',(-7.06979917578406,1.48,5.7049688166548));
#318=CARTESIAN_POINT('',(-7.43755457705906,1.48,6.48284678387667));
#319=CARTESIAN_POINT('',(-7.69220916434109,1.48,6.9969421222208));
#320=CARTESIAN_POINT('',(-8.48412010872019,1.48,8.52473948983338));
#321=CARTESIAN_POINT('',(-9.04933687503397,1.48,9.52394718386571));
#322=CARTESIAN_POINT('',(-10.8522726397551,1.48,12.4555722452397));
#323=CARTESIAN_POINT('',(-12.1974085205349,1.48,14.3217967809322));
#324=CARTESIAN_POINT('',(-15.1455576190241,1.48,17.8383506097149));
#325=CARTESIAN_POINT('',(-16.7484670970767,1.48,19.4885490749099));
#326=CARTESIAN_POINT('',(-20.1779004547165,1.48,22.5377069715082));
#327=CARTESIAN_POINT('',(-22.0042935260116,1.48,23.936550100351));
#328=CARTESIAN_POINT('',(-25.8416070551836,1.48,26.453047446645));
#329=CARTESIAN_POINT('',(-27.8524403555369,1.48,27.5706445064483));
#330=CARTESIAN_POINT('',(-32.0157314926505,1.48,29.5007698756867));
#331=CARTESIAN_POINT('',(-34.1680305304333,1.48,30.313224564354));
#332=CARTESIAN_POINT('',(-38.568187588318,1.48,31.6156652746532));
#333=CARTESIAN_POINT('',(-40.8158842752869,1.48,32.1056082904762));
#334=CARTESIAN_POINT('',(-44.2231656667757,1.48,32.5908261707168));
#335=CARTESIAN_POINT('',(-45.3648506163654,1.48,32.7109988988876));
#336=CARTESIAN_POINT('',(-47.0816788048929,1.48,32.8284242430579));
#337=CARTESIAN_POINT('',(-47.6546716754101,1.48,32.857097332513));
#338=CARTESIAN_POINT('',(-48.5146682431137,1.48,32.8843749899943));
#339=CARTESIAN_POINT('',(-48.8014183741767,1.48,32.8908457604545));
#340=CARTESIAN_POINT('',(-49.2316002275933,1.48,32.8966174919179));
#341=CARTESIAN_POINT('',(-49.3750036275371,1.48,32.8978856776607));
#342=CARTESIAN_POINT('',(-49.5901141769195,1.48,32.8988042614852));
#343=CARTESIAN_POINT('',(-49.6618186020765,1.48,32.8989465077203));
#344=CARTESIAN_POINT('',(-49.8052278211345,1.48,32.8989030945005));
#345=CARTESIAN_POINT('',(-49.8746766126325,1.48,32.8987280762789));
#346=CARTESIAN_POINT('',(-50.0133294363208,1.48,32.8980527084325));
#347=CARTESIAN_POINT('',(-50.0819686194132,1.48,32.8977177256128));
#348=CARTESIAN_POINT('',(-50.1486344936543,1.48,32.8973926778053));
#349=CARTESIAN_POINT('',(-6.38054625656302,-1.48,4.15062991955736));
#350=CARTESIAN_POINT('',(-6.39803534792913,-1.48,4.19142089982822));
#351=CARTESIAN_POINT('',(-6.41552443929515,-1.48,4.23221188009924));
#352=CARTESIAN_POINT('',(-6.45050262202723,-1.48,4.31379384064096));
#353=CARTESIAN_POINT('',(-6.46850919874854,-1.48,4.35579231650436));
#354=CARTESIAN_POINT('',(-6.51462604941194,-1.48,4.46335229936578));
#355=CARTESIAN_POINT('',(-6.54214321324312,-1.48,4.52711726597517));
#356=CARTESIAN_POINT('',(-6.59925680045164,-1.48,4.65866286320917));
#357=CARTESIAN_POINT('',(-6.62796389053572,-1.48,4.72437015199805));
#358=CARTESIAN_POINT('',(-6.71453517191969,-1.48,4.9212935012777));
#359=CARTESIAN_POINT('',(-6.7728493778552,-1.48,5.05231104512782));
#360=CARTESIAN_POINT('',(-6.94958489978062,-1.48,5.4445536934762));
#361=CARTESIAN_POINT('',(-7.06979917578406,-1.48,5.7049688166548));
#362=CARTESIAN_POINT('',(-7.43755457705906,-1.48,6.48284678387667));
#363=CARTESIAN_POINT('',(-7.69220916434109,-1.48,6.9969421222208));
#364=CARTESIAN_POINT('',(-8.48412010872019,-1.48,8.52473948983338));
#365=CARTESIAN_POINT('',(-9.04933687503397,-1.48,9.52394718386571));
#366=CARTESIAN_POINT('',(-10.8522726397551,-1.48,12.4555722452397));
#367=CARTESIAN_POINT('',(-12.1974085205349,-1.48,14.3217967809322));
#368=CARTESIAN_POINT('',(-15.1455576190241,-1.48,17.8383506097149));
#369=CARTESIAN_POINT('',(-16.7484670970767,-1.48,19.4885490749099));
#370=CARTESIAN_POINT('',(-20.1779004547165,-1.48,22.5377069715082));
#371=CARTESIAN_POINT('',(-22.0042935260116,-1.48,23.936550100351));
#372=CARTESIAN_POINT('',(-25.8416070551836,-1.48,26.453047446645));
#373=CARTESIAN_POINT('',(-27.8524403555369,-1.48,27.5706445064483));
#374=CARTESIAN_POINT('',(-32.0157314926505,-1.48,29.5007698756867));
#375=CARTESIAN_POINT('',(-34.1680305304333,-1.48,30.313224564354));
#376=CARTESIAN_POINT('',(-38.568187588318,-1.48,31.6156652746532));
#377=CARTESIAN_POINT('',(-40.8158842752869,-1.48,32.1056082904762));
#378=CARTESIAN_POINT('',(-44.2231656667757,-1.48,32.5908261707168));
#379=CARTESIAN_POINT('',(-45.3648506163654,-1.48,32.7109988988876));
#380=CARTESIAN_POINT('',(-47.0816788048929,-1.48,32.8284242430579));
#381=CARTESIAN_POINT('',(-47.6546716754101,-1.48,32.857097332513));
#382=CARTESIAN_POINT('',(-48.5146682431137,-1.48,32.8843749899943));
#383=CARTESIAN_POINT('',(-48.8014183741767,-1.48,32.8908457604545));
#384=CARTESIAN_POINT('',(-49.2316002275933,-1.48,32.8966174919179));
#385=CARTESIAN_POINT('',(-49.3750036275371,-1.48,32.8978856776607));
#386=CARTESIAN_POINT('',(-49.5901141769195,-1.48,32.8988042614852));
#387=CARTESIAN_POINT('',(-49.6618186020765,-1.48,32.8989465077203));
#388=CARTESIAN_POINT('',(-49.8052278211345,-1.48,32.8989030945005));
#389=CARTESIAN_POINT('',(-49.8746766126325,-1.48,32.8987280762789));
#390=CARTESIAN_POINT('',(-50.0133294363208,-1.48,32.8980527084325));
#391=CARTESIAN_POINT('',(-50.0819686194132,-1.48,32.8977177256128));
#392=CARTESIAN_POINT('',(-50.1486344936543,-1.48,32.8973926778053));
#393=CARTESIAN_POINT('',(-3.660051892028,-1.48,5.31703911556588));
#394=CARTESIAN_POINT('',(-3.67754098339412,-1.48,5.35783009583674));
#395=CARTESIAN_POINT('',(-3.69503007476013,-1.48,5.39862107610776));
#396=CARTESIAN_POINT('',(-3.73000825749221,-1.48,5.48020303664948));
#397=CARTESIAN_POINT('',(-3.74749714504328,-1.48,5.52099410469298));
#398=CARTESIAN_POINT('',(-3.79502070961101,-1.48,5.63183497011111));
#399=CARTESIAN_POINT('',(-3.82521434039835,-1.48,5.70181631606087));
#400=CARTESIAN_POINT('',(-3.8859218097953,-1.48,5.84163944237229));
#401=CARTESIAN_POINT('',(-3.91643529840496,-1.48,5.91148137348271));
#402=CARTESIAN_POINT('',(-4.00845409239316,-1.48,6.12079615800716));
#403=CARTESIAN_POINT('',(-4.07043772965443,-1.48,6.26005800308576));
#404=CARTESIAN_POINT('',(-4.25829436435411,-1.48,6.67698258678791));
#405=CARTESIAN_POINT('',(-4.38607314412004,-1.48,6.95378437588128));
#406=CARTESIAN_POINT('',(-4.77696961656254,-1.48,7.7806104464843));
#407=CARTESIAN_POINT('',(-5.04764838705916,-1.48,8.32705532142526));
#408=CARTESIAN_POINT('',(-5.88939046229056,-1.48,9.95098959822023));
#409=CARTESIAN_POINT('',(-6.49017358975193,-1.48,11.01307260634));
#410=CARTESIAN_POINT('',(-8.40655939408684,-1.48,14.1291706732633));
#411=CARTESIAN_POINT('',(-9.83633817893211,-1.48,16.1128277052545));
#412=CARTESIAN_POINT('',(-12.9700000608281,-1.48,19.8506612817742));
#413=CARTESIAN_POINT('',(-14.6737728903891,-1.48,21.6046987660275));
#414=CARTESIAN_POINT('',(-18.3190039253003,-1.48,24.8457254418463));
#415=CARTESIAN_POINT('',(-20.260323091213,-1.48,26.3325910124636));
#416=CARTESIAN_POINT('',(-24.339100226817,-1.48,29.007439382249));
#417=CARTESIAN_POINT('',(-26.4764655545778,-1.48,30.1953614271056));
#418=CARTESIAN_POINT('',(-30.9017324945238,-1.48,32.2469402634605));
#419=CARTESIAN_POINT('',(-33.189465315303,-1.48,33.1105188015834));
#420=CARTESIAN_POINT('',(-37.8665030043811,-1.48,34.4949158150798));
#421=CARTESIAN_POINT('',(-40.2556363876387,-1.48,35.0156885785027));
#422=CARTESIAN_POINT('',(-43.8773215401567,-1.48,35.5314388763706));
#423=CARTESIAN_POINT('',(-45.0908472093643,-1.48,35.6591734939047));
#424=CARTESIAN_POINT('',(-46.9157071036312,-1.48,35.7839878478222));
#425=CARTESIAN_POINT('',(-47.5247556479751,-1.48,35.8144651963094));
#426=CARTESIAN_POINT('',(-48.4388676459575,-1.48,35.8434593050266));
#427=CARTESIAN_POINT('',(-48.7436615777848,-1.48,35.8503372498189));
#428=CARTESIAN_POINT('',(-49.2009126974885,-1.48,35.8564721684657));
#429=CARTESIAN_POINT('',(-49.3533397807617,-1.48,35.8578201550127));
#430=CARTESIAN_POINT('',(-49.5819861980478,-1.48,35.8587965408799));
#431=CARTESIAN_POINT('',(-49.6582026363523,-1.48,35.8589477379836));
#432=CARTESIAN_POINT('',(-49.8106359049087,-1.48,35.8589015929798));
#433=CARTESIAN_POINT('',(-49.8868527339328,-1.48,35.8587038697906));
#434=CARTESIAN_POINT('',(-50.029734868885,-1.48,35.8580079230681));
#435=CARTESIAN_POINT('',(-50.0964007420352,-1.48,35.8576825419301));
#436=CARTESIAN_POINT('',(-50.1630666162763,-1.48,35.8573574941227));
#437=CARTESIAN_POINT('',(-49.9630689935522,-1.48,35.8583326375431));
#438=CARTESIAN_POINT('',(-49.9494868524,-1.48,35.4728798813491));
#439=CARTESIAN_POINT('',(-49.9223478588687,-1.15953114369694,34.6981982675667));
#440=CARTESIAN_POINT('',(-49.9057073881764,-0.000877109959805715,34.2189400812128));
#441=CARTESIAN_POINT('',(-49.9223174289771,1.15916057921804,34.6973270065348));
#442=CARTESIAN_POINT('',(-49.9494868523847,1.48,35.4728798813496));
#443=CARTESIAN_POINT('',(-49.9630689935531,1.48,35.858332637543));
#444=CARTESIAN_POINT('',(-49.9630689935531,1.48,35.858332637543));
#445=CARTESIAN_POINT('',(-49.9630689935522,-1.48,35.8583326375431));
#446=CARTESIAN_POINT('',(-49.9630689935522,-1.48,35.8583326375431));
#447=CARTESIAN_POINT('',(-49.9766529227897,-1.48,36.243784237996));
#448=CARTESIAN_POINT('',(-50.0039543982097,-1.1595300048997,37.0184581538903));
#449=CARTESIAN_POINT('',(-50.0208445220449,-0.000876897933093534,37.4976969997414));
#450=CARTESIAN_POINT('',(-50.0039851091501,1.15915915357138,37.0193295611901));
#451=CARTESIAN_POINT('',(-49.9766529227786,1.48,36.2437842379964));
#452=CARTESIAN_POINT('',(-49.9630689935531,1.48,35.8583326375431));
#453=CARTESIAN_POINT('',(-49.7634989556767,0.,35.8714398867733));
#454=CARTESIAN_POINT('',(-57.9458705085711,0.,35.3340426683361));
#455=CARTESIAN_POINT('',(-57.9458705085711,-1.48,35.3340426683361));
#456=CARTESIAN_POINT('',(-0.365485921973961,0.,-0.557315935659414));
#457=CARTESIAN_POINT('',(-57.9458705085711,0.,35.3340426683361));
#458=MECHANICAL_DESIGN_GEOMETRIC_PRESENTATION_REPRESENTATION('',(#77),#459);
#459=(
GEOMETRIC_REPRESENTATION_CONTEXT(3)
GLOBAL_UNCERTAINTY_ASSIGNED_CONTEXT((#460))
GLOBAL_UNIT_ASSIGNED_CONTEXT((#463,#462,#461))
REPRESENTATION_CONTEXT('Black_4614226_AVV','TOP_LEVEL_ASSEMBLY_PART')
);
#460=UNCERTAINTY_MEASURE_WITH_UNIT(LENGTH_MEASURE(0.005),#463,
'DISTANCE_ACCURACY_VALUE','Maximum Tolerance applied to model');
#461=(
NAMED_UNIT(*)
SI_UNIT($,.STERADIAN.)
SOLID_ANGLE_UNIT()
);
#462=(
NAMED_UNIT(*)
PLANE_ANGLE_UNIT()
SI_UNIT($,.RADIAN.)
);
#463=(
LENGTH_UNIT()
NAMED_UNIT(*)
SI_UNIT(.MILLI.,.METRE.)
);
#464=PRODUCT_DEFINITION_SHAPE('','',#465);
#465=PRODUCT_DEFINITION('','',#467,#466);
#466=PRODUCT_DEFINITION_CONTEXT('',#473,'design');
#467=PRODUCT_DEFINITION_FORMATION_WITH_SPECIFIED_SOURCE('','',#469,
 .NOT_KNOWN.);
#468=PRODUCT_RELATED_PRODUCT_CATEGORY('','',(#469));
#469=PRODUCT('Black_4614226_AVV','Black_4614226_AVV',
'Black_4614226_AVV',(#471));
#470=PRODUCT_CATEGORY('','');
#471=PRODUCT_CONTEXT('',#473,'mechanical');
#472=APPLICATION_PROTOCOL_DEFINITION('international standard',
'automotive_design',2010,#473);
#473=APPLICATION_CONTEXT(
'core data for automotive mechanical design processes');
ENDSEC;
END-ISO-10303-21;
