ISO-10303-21;
HEADER;
/* Generated by software containing ST-Developer
 * from STEP Tools, Inc. (www.steptools.com) 
 */
/* OPTION: strings as raw bytes, not using required /X/ escapes */

FILE_DESCRIPTION(
/* description */ ('Unknown'),
/* implementation_level */ '2;1');

FILE_NAME(
/* name */ 'Black_6019986_AVV',
/* time_stamp */ '2025-07-21T23:49:09+02:00',
/* author */ ('Unknown'),
/* organization */ ('Unknown'),
/* preprocessor_version */ 'ST-DEVELOPER v19.4',
/* originating_system */ 'Solid Edge',
/* authorisation */ 'Unknown');

FILE_SCHEMA (('AUTOMOTIVE_DESIGN {1 0 10303 214 3 1 1}'));
ENDSEC;

DATA;
#10=PROPERTY_DEFINITION_REPRESENTATION(#14,#12);
#11=PROPERTY_DEFINITION_REPRESENTATION(#15,#13);
#12=REPRESENTATION('',(#16),#1550);
#13=REPRESENTATION('',(#17),#1550);
#14=PROPERTY_DEFINITION('pmi validation property','',#1555);
#15=PROPERTY_DEFINITION('pmi validation property','',#1555);
#16=VALUE_REPRESENTATION_ITEM('number of annotations',COUNT_MEASURE(0.));
#17=VALUE_REPRESENTATION_ITEM('number of views',COUNT_MEASURE(0.));
#18=SHAPE_REPRESENTATION_RELATIONSHIP('','',#915,#19);
#19=ADVANCED_BREP_SHAPE_REPRESENTATION('',(#913),#1550);
#20=ELLIPSE('',#921,3.92885992350294,3.6);
#21=CIRCLE('',#919,3.6);
#22=CIRCLE('',#920,3.6);
#23=CIRCLE('',#922,3.6);
#24=CIRCLE('',#923,3.6);
#25=CIRCLE('',#924,3.6);
#26=CIRCLE('',#925,3.6);
#27=CIRCLE('',#926,3.6);
#28=CIRCLE('',#927,3.6);
#29=CIRCLE('',#928,3.6);
#30=CIRCLE('',#930,3.1);
#31=CIRCLE('',#932,3.6);
#32=CIRCLE('',#935,2.4);
#33=CIRCLE('',#936,3.1);
#34=CIRCLE('',#939,3.6);
#35=CIRCLE('',#941,3.6);
#36=CIRCLE('',#943,3.6);
#37=CIRCLE('',#944,3.6);
#38=CIRCLE('',#945,3.6);
#39=CIRCLE('',#946,3.6);
#40=CIRCLE('',#947,3.6);
#41=CIRCLE('',#948,3.6);
#42=CIRCLE('',#949,3.6);
#43=CIRCLE('',#950,3.6);
#44=CIRCLE('',#951,3.6);
#45=CIRCLE('',#953,3.6);
#46=CIRCLE('',#955,3.6);
#47=CIRCLE('',#957,3.6);
#48=CIRCLE('',#959,3.6);
#49=CIRCLE('',#961,3.6);
#50=CIRCLE('',#963,3.1);
#51=CIRCLE('',#965,3.1);
#52=CIRCLE('',#967,2.4);
#53=CIRCLE('',#969,2.4);
#54=CIRCLE('',#971,3.1);
#55=CIRCLE('',#973,3.1);
#56=CIRCLE('',#978,3.6);
#57=CIRCLE('',#980,3.6);
#58=CIRCLE('',#981,3.6);
#59=CIRCLE('',#983,3.1);
#60=CIRCLE('',#985,3.1);
#61=CIRCLE('',#987,2.4);
#62=CIRCLE('',#989,2.4);
#63=CIRCLE('',#991,3.1);
#64=CIRCLE('',#993,3.1);
#65=CIRCLE('',#1002,3.1);
#66=CIRCLE('',#1003,3.1);
#67=CIRCLE('',#1006,2.4);
#68=CYLINDRICAL_SURFACE('',#918,3.6);
#69=CYLINDRICAL_SURFACE('',#942,3.6);
#70=CYLINDRICAL_SURFACE('',#964,3.1);
#71=CYLINDRICAL_SURFACE('',#968,2.4);
#72=CYLINDRICAL_SURFACE('',#972,3.1);
#73=CYLINDRICAL_SURFACE('',#979,3.6);
#74=CYLINDRICAL_SURFACE('',#984,3.1);
#75=CYLINDRICAL_SURFACE('',#988,2.4);
#76=CYLINDRICAL_SURFACE('',#992,3.1);
#77=CYLINDRICAL_SURFACE('',#1001,3.1);
#78=CYLINDRICAL_SURFACE('',#1005,2.4);
#79=CYLINDRICAL_SURFACE('',#1014,3.1);
#80=ORIENTED_EDGE('',*,*,#314,.F.);
#81=ORIENTED_EDGE('',*,*,#315,.T.);
#82=ORIENTED_EDGE('',*,*,#316,.F.);
#83=ORIENTED_EDGE('',*,*,#317,.F.);
#84=ORIENTED_EDGE('',*,*,#318,.T.);
#85=ORIENTED_EDGE('',*,*,#319,.T.);
#86=ORIENTED_EDGE('',*,*,#320,.T.);
#87=ORIENTED_EDGE('',*,*,#321,.T.);
#88=ORIENTED_EDGE('',*,*,#322,.F.);
#89=ORIENTED_EDGE('',*,*,#323,.F.);
#90=ORIENTED_EDGE('',*,*,#324,.T.);
#91=ORIENTED_EDGE('',*,*,#325,.T.);
#92=ORIENTED_EDGE('',*,*,#326,.F.);
#93=ORIENTED_EDGE('',*,*,#327,.F.);
#94=ORIENTED_EDGE('',*,*,#328,.F.);
#95=ORIENTED_EDGE('',*,*,#329,.T.);
#96=ORIENTED_EDGE('',*,*,#330,.T.);
#97=ORIENTED_EDGE('',*,*,#331,.F.);
#98=ORIENTED_EDGE('',*,*,#332,.F.);
#99=ORIENTED_EDGE('',*,*,#333,.T.);
#100=ORIENTED_EDGE('',*,*,#320,.F.);
#101=ORIENTED_EDGE('',*,*,#334,.T.);
#102=ORIENTED_EDGE('',*,*,#335,.F.);
#103=ORIENTED_EDGE('',*,*,#336,.F.);
#104=ORIENTED_EDGE('',*,*,#337,.T.);
#105=ORIENTED_EDGE('',*,*,#338,.T.);
#106=ORIENTED_EDGE('',*,*,#339,.F.);
#107=ORIENTED_EDGE('',*,*,#333,.F.);
#108=ORIENTED_EDGE('',*,*,#340,.F.);
#109=ORIENTED_EDGE('',*,*,#341,.F.);
#110=ORIENTED_EDGE('',*,*,#342,.F.);
#111=ORIENTED_EDGE('',*,*,#343,.F.);
#112=ORIENTED_EDGE('',*,*,#344,.T.);
#113=ORIENTED_EDGE('',*,*,#345,.T.);
#114=ORIENTED_EDGE('',*,*,#346,.T.);
#115=ORIENTED_EDGE('',*,*,#347,.T.);
#116=ORIENTED_EDGE('',*,*,#316,.T.);
#117=ORIENTED_EDGE('',*,*,#318,.F.);
#118=ORIENTED_EDGE('',*,*,#339,.T.);
#119=ORIENTED_EDGE('',*,*,#343,.T.);
#120=ORIENTED_EDGE('',*,*,#322,.T.);
#121=ORIENTED_EDGE('',*,*,#348,.F.);
#122=ORIENTED_EDGE('',*,*,#349,.F.);
#123=ORIENTED_EDGE('',*,*,#342,.T.);
#124=ORIENTED_EDGE('',*,*,#350,.T.);
#125=ORIENTED_EDGE('',*,*,#351,.T.);
#126=ORIENTED_EDGE('',*,*,#352,.T.);
#127=ORIENTED_EDGE('',*,*,#353,.T.);
#128=ORIENTED_EDGE('',*,*,#354,.T.);
#129=ORIENTED_EDGE('',*,*,#355,.F.);
#130=ORIENTED_EDGE('',*,*,#356,.T.);
#131=ORIENTED_EDGE('',*,*,#357,.T.);
#132=ORIENTED_EDGE('',*,*,#358,.T.);
#133=ORIENTED_EDGE('',*,*,#359,.F.);
#134=ORIENTED_EDGE('',*,*,#360,.F.);
#135=ORIENTED_EDGE('',*,*,#361,.T.);
#136=ORIENTED_EDGE('',*,*,#329,.F.);
#137=ORIENTED_EDGE('',*,*,#362,.F.);
#138=ORIENTED_EDGE('',*,*,#363,.F.);
#139=ORIENTED_EDGE('',*,*,#364,.T.);
#140=ORIENTED_EDGE('',*,*,#365,.T.);
#141=ORIENTED_EDGE('',*,*,#327,.T.);
#142=ORIENTED_EDGE('',*,*,#364,.F.);
#143=ORIENTED_EDGE('',*,*,#366,.F.);
#144=ORIENTED_EDGE('',*,*,#367,.T.);
#145=ORIENTED_EDGE('',*,*,#368,.T.);
#146=ORIENTED_EDGE('',*,*,#369,.F.);
#147=ORIENTED_EDGE('',*,*,#358,.F.);
#148=ORIENTED_EDGE('',*,*,#370,.T.);
#149=ORIENTED_EDGE('',*,*,#371,.T.);
#150=ORIENTED_EDGE('',*,*,#372,.F.);
#151=ORIENTED_EDGE('',*,*,#373,.F.);
#152=ORIENTED_EDGE('',*,*,#374,.T.);
#153=ORIENTED_EDGE('',*,*,#375,.F.);
#154=ORIENTED_EDGE('',*,*,#376,.T.);
#155=ORIENTED_EDGE('',*,*,#350,.F.);
#156=ORIENTED_EDGE('',*,*,#341,.T.);
#157=ORIENTED_EDGE('',*,*,#377,.F.);
#158=ORIENTED_EDGE('',*,*,#378,.T.);
#159=ORIENTED_EDGE('',*,*,#379,.T.);
#160=ORIENTED_EDGE('',*,*,#360,.T.);
#161=ORIENTED_EDGE('',*,*,#380,.T.);
#162=ORIENTED_EDGE('',*,*,#381,.F.);
#163=ORIENTED_EDGE('',*,*,#382,.T.);
#164=ORIENTED_EDGE('',*,*,#351,.F.);
#165=ORIENTED_EDGE('',*,*,#376,.F.);
#166=ORIENTED_EDGE('',*,*,#383,.F.);
#167=ORIENTED_EDGE('',*,*,#384,.F.);
#168=ORIENTED_EDGE('',*,*,#385,.F.);
#169=ORIENTED_EDGE('',*,*,#357,.F.);
#170=ORIENTED_EDGE('',*,*,#386,.F.);
#171=ORIENTED_EDGE('',*,*,#387,.F.);
#172=ORIENTED_EDGE('',*,*,#388,.F.);
#173=ORIENTED_EDGE('',*,*,#370,.F.);
#174=ORIENTED_EDGE('',*,*,#389,.T.);
#175=ORIENTED_EDGE('',*,*,#355,.T.);
#176=ORIENTED_EDGE('',*,*,#390,.T.);
#177=ORIENTED_EDGE('',*,*,#391,.T.);
#178=ORIENTED_EDGE('',*,*,#392,.F.);
#179=ORIENTED_EDGE('',*,*,#393,.T.);
#180=ORIENTED_EDGE('',*,*,#374,.F.);
#181=ORIENTED_EDGE('',*,*,#394,.F.);
#182=ORIENTED_EDGE('',*,*,#353,.F.);
#183=ORIENTED_EDGE('',*,*,#395,.T.);
#184=ORIENTED_EDGE('',*,*,#396,.F.);
#185=ORIENTED_EDGE('',*,*,#397,.F.);
#186=ORIENTED_EDGE('',*,*,#398,.F.);
#187=ORIENTED_EDGE('',*,*,#381,.T.);
#188=ORIENTED_EDGE('',*,*,#399,.F.);
#189=ORIENTED_EDGE('',*,*,#398,.T.);
#190=ORIENTED_EDGE('',*,*,#400,.F.);
#191=ORIENTED_EDGE('',*,*,#399,.T.);
#192=ORIENTED_EDGE('',*,*,#401,.F.);
#193=ORIENTED_EDGE('',*,*,#400,.T.);
#194=ORIENTED_EDGE('',*,*,#402,.F.);
#195=ORIENTED_EDGE('',*,*,#401,.T.);
#196=ORIENTED_EDGE('',*,*,#403,.F.);
#197=ORIENTED_EDGE('',*,*,#402,.T.);
#198=ORIENTED_EDGE('',*,*,#382,.F.);
#199=ORIENTED_EDGE('',*,*,#403,.T.);
#200=ORIENTED_EDGE('',*,*,#354,.F.);
#201=ORIENTED_EDGE('',*,*,#397,.T.);
#202=ORIENTED_EDGE('',*,*,#404,.T.);
#203=ORIENTED_EDGE('',*,*,#390,.F.);
#204=ORIENTED_EDGE('',*,*,#405,.F.);
#205=ORIENTED_EDGE('',*,*,#406,.F.);
#206=ORIENTED_EDGE('',*,*,#394,.T.);
#207=ORIENTED_EDGE('',*,*,#373,.T.);
#208=ORIENTED_EDGE('',*,*,#372,.T.);
#209=ORIENTED_EDGE('',*,*,#407,.T.);
#210=ORIENTED_EDGE('',*,*,#408,.T.);
#211=ORIENTED_EDGE('',*,*,#405,.T.);
#212=ORIENTED_EDGE('',*,*,#409,.T.);
#213=ORIENTED_EDGE('',*,*,#410,.F.);
#214=ORIENTED_EDGE('',*,*,#404,.F.);
#215=ORIENTED_EDGE('',*,*,#396,.T.);
#216=ORIENTED_EDGE('',*,*,#411,.F.);
#217=ORIENTED_EDGE('',*,*,#384,.T.);
#218=ORIENTED_EDGE('',*,*,#412,.T.);
#219=ORIENTED_EDGE('',*,*,#392,.T.);
#220=ORIENTED_EDGE('',*,*,#406,.T.);
#221=ORIENTED_EDGE('',*,*,#408,.F.);
#222=ORIENTED_EDGE('',*,*,#413,.F.);
#223=ORIENTED_EDGE('',*,*,#387,.T.);
#224=ORIENTED_EDGE('',*,*,#414,.T.);
#225=ORIENTED_EDGE('',*,*,#391,.F.);
#226=ORIENTED_EDGE('',*,*,#415,.F.);
#227=ORIENTED_EDGE('',*,*,#410,.T.);
#228=ORIENTED_EDGE('',*,*,#416,.F.);
#229=ORIENTED_EDGE('',*,*,#415,.T.);
#230=ORIENTED_EDGE('',*,*,#417,.F.);
#231=ORIENTED_EDGE('',*,*,#416,.T.);
#232=ORIENTED_EDGE('',*,*,#418,.F.);
#233=ORIENTED_EDGE('',*,*,#417,.T.);
#234=ORIENTED_EDGE('',*,*,#419,.F.);
#235=ORIENTED_EDGE('',*,*,#418,.T.);
#236=ORIENTED_EDGE('',*,*,#420,.F.);
#237=ORIENTED_EDGE('',*,*,#419,.T.);
#238=ORIENTED_EDGE('',*,*,#409,.F.);
#239=ORIENTED_EDGE('',*,*,#420,.T.);
#240=ORIENTED_EDGE('',*,*,#352,.F.);
#241=ORIENTED_EDGE('',*,*,#385,.T.);
#242=ORIENTED_EDGE('',*,*,#411,.T.);
#243=ORIENTED_EDGE('',*,*,#395,.F.);
#244=ORIENTED_EDGE('',*,*,#393,.F.);
#245=ORIENTED_EDGE('',*,*,#412,.F.);
#246=ORIENTED_EDGE('',*,*,#383,.T.);
#247=ORIENTED_EDGE('',*,*,#375,.T.);
#248=ORIENTED_EDGE('',*,*,#356,.F.);
#249=ORIENTED_EDGE('',*,*,#389,.F.);
#250=ORIENTED_EDGE('',*,*,#414,.F.);
#251=ORIENTED_EDGE('',*,*,#386,.T.);
#252=ORIENTED_EDGE('',*,*,#407,.F.);
#253=ORIENTED_EDGE('',*,*,#371,.F.);
#254=ORIENTED_EDGE('',*,*,#388,.T.);
#255=ORIENTED_EDGE('',*,*,#413,.T.);
#256=ORIENTED_EDGE('',*,*,#362,.T.);
#257=ORIENTED_EDGE('',*,*,#328,.T.);
#258=ORIENTED_EDGE('',*,*,#365,.F.);
#259=ORIENTED_EDGE('',*,*,#380,.F.);
#260=ORIENTED_EDGE('',*,*,#369,.T.);
#261=ORIENTED_EDGE('',*,*,#421,.T.);
#262=ORIENTED_EDGE('',*,*,#323,.T.);
#263=ORIENTED_EDGE('',*,*,#359,.T.);
#264=ORIENTED_EDGE('',*,*,#422,.T.);
#265=ORIENTED_EDGE('',*,*,#423,.F.);
#266=ORIENTED_EDGE('',*,*,#317,.T.);
#267=ORIENTED_EDGE('',*,*,#422,.F.);
#268=ORIENTED_EDGE('',*,*,#424,.T.);
#269=ORIENTED_EDGE('',*,*,#346,.F.);
#270=ORIENTED_EDGE('',*,*,#423,.T.);
#271=ORIENTED_EDGE('',*,*,#424,.F.);
#272=ORIENTED_EDGE('',*,*,#324,.F.);
#273=ORIENTED_EDGE('',*,*,#421,.F.);
#274=ORIENTED_EDGE('',*,*,#368,.F.);
#275=ORIENTED_EDGE('',*,*,#425,.F.);
#276=ORIENTED_EDGE('',*,*,#426,.T.);
#277=ORIENTED_EDGE('',*,*,#366,.T.);
#278=ORIENTED_EDGE('',*,*,#363,.T.);
#279=ORIENTED_EDGE('',*,*,#326,.T.);
#280=ORIENTED_EDGE('',*,*,#367,.F.);
#281=ORIENTED_EDGE('',*,*,#426,.F.);
#282=ORIENTED_EDGE('',*,*,#325,.F.);
#283=ORIENTED_EDGE('',*,*,#425,.T.);
#284=ORIENTED_EDGE('',*,*,#427,.T.);
#285=ORIENTED_EDGE('',*,*,#377,.T.);
#286=ORIENTED_EDGE('',*,*,#340,.T.);
#287=ORIENTED_EDGE('',*,*,#332,.T.);
#288=ORIENTED_EDGE('',*,*,#428,.T.);
#289=ORIENTED_EDGE('',*,*,#378,.F.);
#290=ORIENTED_EDGE('',*,*,#427,.F.);
#291=ORIENTED_EDGE('',*,*,#331,.T.);
#292=ORIENTED_EDGE('',*,*,#330,.F.);
#293=ORIENTED_EDGE('',*,*,#361,.F.);
#294=ORIENTED_EDGE('',*,*,#379,.F.);
#295=ORIENTED_EDGE('',*,*,#428,.F.);
#296=ORIENTED_EDGE('',*,*,#347,.F.);
#297=ORIENTED_EDGE('',*,*,#345,.F.);
#298=ORIENTED_EDGE('',*,*,#335,.T.);
#299=ORIENTED_EDGE('',*,*,#314,.T.);
#300=ORIENTED_EDGE('',*,*,#429,.F.);
#301=ORIENTED_EDGE('',*,*,#348,.T.);
#302=ORIENTED_EDGE('',*,*,#321,.F.);
#303=ORIENTED_EDGE('',*,*,#344,.F.);
#304=ORIENTED_EDGE('',*,*,#338,.F.);
#305=ORIENTED_EDGE('',*,*,#430,.T.);
#306=ORIENTED_EDGE('',*,*,#429,.T.);
#307=ORIENTED_EDGE('',*,*,#336,.T.);
#308=ORIENTED_EDGE('',*,*,#430,.F.);
#309=ORIENTED_EDGE('',*,*,#337,.F.);
#310=ORIENTED_EDGE('',*,*,#349,.T.);
#311=ORIENTED_EDGE('',*,*,#315,.F.);
#312=ORIENTED_EDGE('',*,*,#334,.F.);
#313=ORIENTED_EDGE('',*,*,#319,.F.);
#314=EDGE_CURVE('',#431,#432,#514,.T.);
#315=EDGE_CURVE('',#431,#433,#515,.T.);
#316=EDGE_CURVE('',#432,#433,#516,.T.);
#317=EDGE_CURVE('',#434,#434,#21,.T.);
#318=EDGE_CURVE('',#435,#433,#22,.T.);
#319=EDGE_CURVE('',#433,#436,#20,.F.);
#320=EDGE_CURVE('',#436,#437,#23,.T.);
#321=EDGE_CURVE('',#437,#438,#517,.T.);
#322=EDGE_CURVE('',#439,#438,#24,.T.);
#323=EDGE_CURVE('',#440,#439,#518,.T.);
#324=EDGE_CURVE('',#440,#441,#25,.T.);
#325=EDGE_CURVE('',#441,#442,#519,.T.);
#326=EDGE_CURVE('',#443,#442,#26,.T.);
#327=EDGE_CURVE('',#444,#443,#520,.T.);
#328=EDGE_CURVE('',#445,#444,#27,.F.);
#329=EDGE_CURVE('',#445,#446,#521,.T.);
#330=EDGE_CURVE('',#446,#447,#28,.T.);
#331=EDGE_CURVE('',#448,#447,#522,.T.);
#332=EDGE_CURVE('',#449,#448,#29,.T.);
#333=EDGE_CURVE('',#449,#435,#523,.T.);
#334=EDGE_CURVE('',#436,#431,#524,.T.);
#335=EDGE_CURVE('',#450,#431,#30,.T.);
#336=EDGE_CURVE('',#437,#450,#525,.T.);
#337=EDGE_CURVE('',#451,#452,#526,.T.);
#338=EDGE_CURVE('',#452,#453,#527,.T.);
#339=EDGE_CURVE('',#435,#453,#528,.T.);
#340=EDGE_CURVE('',#454,#449,#529,.T.);
#341=EDGE_CURVE('',#455,#454,#31,.T.);
#342=EDGE_CURVE('',#451,#455,#530,.T.);
#343=EDGE_CURVE('',#453,#456,#531,.T.);
#344=EDGE_CURVE('',#453,#450,#532,.T.);
#345=EDGE_CURVE('',#450,#456,#533,.T.);
#346=EDGE_CURVE('',#457,#457,#32,.T.);
#347=EDGE_CURVE('',#456,#432,#33,.T.);
#348=EDGE_CURVE('',#458,#438,#534,.T.);
#349=EDGE_CURVE('',#451,#458,#535,.T.);
#350=EDGE_CURVE('',#455,#459,#536,.T.);
#351=EDGE_CURVE('',#459,#460,#537,.T.);
#352=EDGE_CURVE('',#460,#461,#538,.T.);
#353=EDGE_CURVE('',#461,#462,#539,.T.);
#354=EDGE_CURVE('',#462,#463,#540,.T.);
#355=EDGE_CURVE('',#464,#463,#541,.T.);
#356=EDGE_CURVE('',#464,#465,#542,.T.);
#357=EDGE_CURVE('',#465,#466,#543,.T.);
#358=EDGE_CURVE('',#466,#467,#544,.T.);
#359=EDGE_CURVE('',#439,#467,#545,.T.);
#360=EDGE_CURVE('',#468,#469,#34,.T.);
#361=EDGE_CURVE('',#468,#446,#546,.T.);
#362=EDGE_CURVE('',#469,#445,#547,.T.);
#363=EDGE_CURVE('',#470,#443,#548,.T.);
#364=EDGE_CURVE('',#470,#471,#35,.T.);
#365=EDGE_CURVE('',#471,#444,#549,.T.);
#366=EDGE_CURVE('',#472,#470,#550,.T.);
#367=EDGE_CURVE('',#472,#473,#36,.T.);
#368=EDGE_CURVE('',#473,#474,#551,.T.);
#369=EDGE_CURVE('',#467,#474,#37,.T.);
#370=EDGE_CURVE('',#466,#475,#38,.T.);
#371=EDGE_CURVE('',#475,#476,#552,.T.);
#372=EDGE_CURVE('',#477,#476,#39,.T.);
#373=EDGE_CURVE('',#478,#477,#553,.T.);
#374=EDGE_CURVE('',#478,#479,#40,.T.);
#375=EDGE_CURVE('',#480,#479,#554,.T.);
#376=EDGE_CURVE('',#480,#459,#41,.T.);
#377=EDGE_CURVE('',#481,#454,#555,.T.);
#378=EDGE_CURVE('',#481,#482,#42,.T.);
#379=EDGE_CURVE('',#482,#468,#556,.T.);
#380=EDGE_CURVE('',#469,#471,#557,.T.);
#381=EDGE_CURVE('',#483,#483,#43,.T.);
#382=EDGE_CURVE('',#484,#484,#44,.T.);
#383=EDGE_CURVE('',#485,#480,#558,.T.);
#384=EDGE_CURVE('',#486,#485,#45,.T.);
#385=EDGE_CURVE('',#460,#486,#559,.T.);
#386=EDGE_CURVE('',#487,#465,#560,.T.);
#387=EDGE_CURVE('',#488,#487,#46,.T.);
#388=EDGE_CURVE('',#475,#488,#561,.T.);
#389=EDGE_CURVE('',#489,#464,#562,.T.);
#390=EDGE_CURVE('',#463,#490,#563,.T.);
#391=EDGE_CURVE('',#490,#489,#47,.T.);
#392=EDGE_CURVE('',#491,#492,#48,.T.);
#393=EDGE_CURVE('',#491,#479,#564,.T.);
#394=EDGE_CURVE('',#492,#478,#565,.T.);
#395=EDGE_CURVE('',#461,#493,#566,.T.);
#396=EDGE_CURVE('',#494,#493,#49,.T.);
#397=EDGE_CURVE('',#462,#494,#567,.T.);
#398=EDGE_CURVE('',#495,#495,#50,.T.);
#399=EDGE_CURVE('',#496,#496,#51,.T.);
#400=EDGE_CURVE('',#497,#497,#52,.T.);
#401=EDGE_CURVE('',#498,#498,#53,.T.);
#402=EDGE_CURVE('',#499,#499,#54,.T.);
#403=EDGE_CURVE('',#500,#500,#55,.T.);
#404=EDGE_CURVE('',#494,#490,#568,.T.);
#405=EDGE_CURVE('',#501,#477,#569,.T.);
#406=EDGE_CURVE('',#492,#501,#570,.T.);
#407=EDGE_CURVE('',#476,#502,#571,.T.);
#408=EDGE_CURVE('',#502,#501,#56,.T.);
#409=EDGE_CURVE('',#503,#503,#57,.T.);
#410=EDGE_CURVE('',#504,#504,#58,.T.);
#411=EDGE_CURVE('',#486,#493,#572,.T.);
#412=EDGE_CURVE('',#485,#491,#573,.T.);
#413=EDGE_CURVE('',#488,#502,#574,.T.);
#414=EDGE_CURVE('',#487,#489,#575,.T.);
#415=EDGE_CURVE('',#505,#505,#59,.T.);
#416=EDGE_CURVE('',#506,#506,#60,.T.);
#417=EDGE_CURVE('',#507,#507,#61,.T.);
#418=EDGE_CURVE('',#508,#508,#62,.T.);
#419=EDGE_CURVE('',#509,#509,#63,.T.);
#420=EDGE_CURVE('',#510,#510,#64,.T.);
#421=EDGE_CURVE('',#474,#440,#576,.T.);
#422=EDGE_CURVE('',#511,#511,#65,.T.);
#423=EDGE_CURVE('',#512,#512,#66,.T.);
#424=EDGE_CURVE('',#513,#513,#67,.T.);
#425=EDGE_CURVE('',#441,#473,#577,.T.);
#426=EDGE_CURVE('',#442,#472,#578,.T.);
#427=EDGE_CURVE('',#448,#481,#579,.T.);
#428=EDGE_CURVE('',#447,#482,#580,.T.);
#429=EDGE_CURVE('',#458,#437,#581,.T.);
#430=EDGE_CURVE('',#452,#458,#582,.T.);
#431=VERTEX_POINT('',#1297);
#432=VERTEX_POINT('',#1298);
#433=VERTEX_POINT('',#1300);
#434=VERTEX_POINT('',#1304);
#435=VERTEX_POINT('',#1306);
#436=VERTEX_POINT('',#1308);
#437=VERTEX_POINT('',#1310);
#438=VERTEX_POINT('',#1312);
#439=VERTEX_POINT('',#1314);
#440=VERTEX_POINT('',#1316);
#441=VERTEX_POINT('',#1318);
#442=VERTEX_POINT('',#1320);
#443=VERTEX_POINT('',#1322);
#444=VERTEX_POINT('',#1324);
#445=VERTEX_POINT('',#1326);
#446=VERTEX_POINT('',#1328);
#447=VERTEX_POINT('',#1330);
#448=VERTEX_POINT('',#1332);
#449=VERTEX_POINT('',#1334);
#450=VERTEX_POINT('',#1339);
#451=VERTEX_POINT('',#1343);
#452=VERTEX_POINT('',#1344);
#453=VERTEX_POINT('',#1346);
#454=VERTEX_POINT('',#1349);
#455=VERTEX_POINT('',#1351);
#456=VERTEX_POINT('',#1355);
#457=VERTEX_POINT('',#1360);
#458=VERTEX_POINT('',#1364);
#459=VERTEX_POINT('',#1367);
#460=VERTEX_POINT('',#1369);
#461=VERTEX_POINT('',#1371);
#462=VERTEX_POINT('',#1373);
#463=VERTEX_POINT('',#1375);
#464=VERTEX_POINT('',#1377);
#465=VERTEX_POINT('',#1379);
#466=VERTEX_POINT('',#1381);
#467=VERTEX_POINT('',#1383);
#468=VERTEX_POINT('',#1387);
#469=VERTEX_POINT('',#1388);
#470=VERTEX_POINT('',#1393);
#471=VERTEX_POINT('',#1395);
#472=VERTEX_POINT('',#1399);
#473=VERTEX_POINT('',#1401);
#474=VERTEX_POINT('',#1403);
#475=VERTEX_POINT('',#1406);
#476=VERTEX_POINT('',#1408);
#477=VERTEX_POINT('',#1410);
#478=VERTEX_POINT('',#1412);
#479=VERTEX_POINT('',#1414);
#480=VERTEX_POINT('',#1416);
#481=VERTEX_POINT('',#1419);
#482=VERTEX_POINT('',#1421);
#483=VERTEX_POINT('',#1425);
#484=VERTEX_POINT('',#1427);
#485=VERTEX_POINT('',#1430);
#486=VERTEX_POINT('',#1432);
#487=VERTEX_POINT('',#1436);
#488=VERTEX_POINT('',#1438);
#489=VERTEX_POINT('',#1442);
#490=VERTEX_POINT('',#1444);
#491=VERTEX_POINT('',#1448);
#492=VERTEX_POINT('',#1449);
#493=VERTEX_POINT('',#1454);
#494=VERTEX_POINT('',#1456);
#495=VERTEX_POINT('',#1460);
#496=VERTEX_POINT('',#1463);
#497=VERTEX_POINT('',#1466);
#498=VERTEX_POINT('',#1469);
#499=VERTEX_POINT('',#1472);
#500=VERTEX_POINT('',#1475);
#501=VERTEX_POINT('',#1481);
#502=VERTEX_POINT('',#1485);
#503=VERTEX_POINT('',#1489);
#504=VERTEX_POINT('',#1491);
#505=VERTEX_POINT('',#1498);
#506=VERTEX_POINT('',#1501);
#507=VERTEX_POINT('',#1504);
#508=VERTEX_POINT('',#1507);
#509=VERTEX_POINT('',#1510);
#510=VERTEX_POINT('',#1513);
#511=VERTEX_POINT('',#1524);
#512=VERTEX_POINT('',#1526);
#513=VERTEX_POINT('',#1530);
#514=LINE('',#1296,#583);
#515=LINE('',#1299,#584);
#516=LINE('',#1301,#585);
#517=LINE('',#1311,#586);
#518=LINE('',#1315,#587);
#519=LINE('',#1319,#588);
#520=LINE('',#1323,#589);
#521=LINE('',#1327,#590);
#522=LINE('',#1331,#591);
#523=LINE('',#1335,#592);
#524=LINE('',#1337,#593);
#525=LINE('',#1340,#594);
#526=LINE('',#1342,#595);
#527=LINE('',#1345,#596);
#528=LINE('',#1347,#597);
#529=LINE('',#1348,#598);
#530=LINE('',#1352,#599);
#531=LINE('',#1354,#600);
#532=LINE('',#1356,#601);
#533=LINE('',#1357,#602);
#534=LINE('',#1363,#603);
#535=LINE('',#1365,#604);
#536=LINE('',#1366,#605);
#537=LINE('',#1368,#606);
#538=LINE('',#1370,#607);
#539=LINE('',#1372,#608);
#540=LINE('',#1374,#609);
#541=LINE('',#1376,#610);
#542=LINE('',#1378,#611);
#543=LINE('',#1380,#612);
#544=LINE('',#1382,#613);
#545=LINE('',#1384,#614);
#546=LINE('',#1389,#615);
#547=LINE('',#1390,#616);
#548=LINE('',#1392,#617);
#549=LINE('',#1396,#618);
#550=LINE('',#1398,#619);
#551=LINE('',#1402,#620);
#552=LINE('',#1407,#621);
#553=LINE('',#1411,#622);
#554=LINE('',#1415,#623);
#555=LINE('',#1418,#624);
#556=LINE('',#1422,#625);
#557=LINE('',#1423,#626);
#558=LINE('',#1429,#627);
#559=LINE('',#1433,#628);
#560=LINE('',#1435,#629);
#561=LINE('',#1439,#630);
#562=LINE('',#1441,#631);
#563=LINE('',#1443,#632);
#564=LINE('',#1450,#633);
#565=LINE('',#1451,#634);
#566=LINE('',#1453,#635);
#567=LINE('',#1457,#636);
#568=LINE('',#1478,#637);
#569=LINE('',#1480,#638);
#570=LINE('',#1482,#639);
#571=LINE('',#1484,#640);
#572=LINE('',#1492,#641);
#573=LINE('',#1493,#642);
#574=LINE('',#1494,#643);
#575=LINE('',#1495,#644);
#576=LINE('',#1521,#645);
#577=LINE('',#1533,#646);
#578=LINE('',#1535,#647);
#579=LINE('',#1538,#648);
#580=LINE('',#1540,#649);
#581=LINE('',#1544,#650);
#582=LINE('',#1546,#651);
#583=VECTOR('',#1023,1000.);
#584=VECTOR('',#1024,1000.);
#585=VECTOR('',#1025,1000.);
#586=VECTOR('',#1036,1000.);
#587=VECTOR('',#1039,1000.);
#588=VECTOR('',#1042,1000.);
#589=VECTOR('',#1045,1000.);
#590=VECTOR('',#1048,1000.);
#591=VECTOR('',#1051,1000.);
#592=VECTOR('',#1054,1000.);
#593=VECTOR('',#1057,1000.);
#594=VECTOR('',#1060,1000.);
#595=VECTOR('',#1063,1000.);
#596=VECTOR('',#1064,1000.);
#597=VECTOR('',#1065,1000.);
#598=VECTOR('',#1066,1000.);
#599=VECTOR('',#1069,1000.);
#600=VECTOR('',#1072,1000.);
#601=VECTOR('',#1073,1000.);
#602=VECTOR('',#1074,1000.);
#603=VECTOR('',#1083,1000.);
#604=VECTOR('',#1084,1000.);
#605=VECTOR('',#1085,1000.);
#606=VECTOR('',#1086,1000.);
#607=VECTOR('',#1087,1000.);
#608=VECTOR('',#1088,1000.);
#609=VECTOR('',#1089,1000.);
#610=VECTOR('',#1090,1000.);
#611=VECTOR('',#1091,1000.);
#612=VECTOR('',#1092,1000.);
#613=VECTOR('',#1093,1000.);
#614=VECTOR('',#1094,1000.);
#615=VECTOR('',#1099,1000.);
#616=VECTOR('',#1100,1000.);
#617=VECTOR('',#1103,1000.);
#618=VECTOR('',#1106,1000.);
#619=VECTOR('',#1109,1000.);
#620=VECTOR('',#1112,1000.);
#621=VECTOR('',#1117,1000.);
#622=VECTOR('',#1120,1000.);
#623=VECTOR('',#1123,1000.);
#624=VECTOR('',#1126,1000.);
#625=VECTOR('',#1129,1000.);
#626=VECTOR('',#1130,1000.);
#627=VECTOR('',#1137,1000.);
#628=VECTOR('',#1140,1000.);
#629=VECTOR('',#1143,1000.);
#630=VECTOR('',#1146,1000.);
#631=VECTOR('',#1149,1000.);
#632=VECTOR('',#1150,1000.);
#633=VECTOR('',#1157,1000.);
#634=VECTOR('',#1158,1000.);
#635=VECTOR('',#1161,1000.);
#636=VECTOR('',#1164,1000.);
#637=VECTOR('',#1193,1000.);
#638=VECTOR('',#1196,1000.);
#639=VECTOR('',#1197,1000.);
#640=VECTOR('',#1200,1000.);
#641=VECTOR('',#1209,1000.);
#642=VECTOR('',#1210,1000.);
#643=VECTOR('',#1211,1000.);
#644=VECTOR('',#1212,1000.);
#645=VECTOR('',#1251,1000.);
#646=VECTOR('',#1268,1000.);
#647=VECTOR('',#1271,1000.);
#648=VECTOR('',#1276,1000.);
#649=VECTOR('',#1279,1000.);
#650=VECTOR('',#1286,1000.);
#651=VECTOR('',#1289,1000.);
#652=EDGE_LOOP('',(#80,#81,#82));
#653=EDGE_LOOP('',(#83));
#654=EDGE_LOOP('',(#84,#85,#86,#87,#88,#89,#90,#91,#92,#93,#94,#95,#96,
#97,#98,#99));
#655=EDGE_LOOP('',(#100,#101,#102,#103));
#656=EDGE_LOOP('',(#104,#105,#106,#107,#108,#109,#110));
#657=EDGE_LOOP('',(#111,#112,#113));
#658=EDGE_LOOP('',(#114));
#659=EDGE_LOOP('',(#115,#116,#117,#118,#119));
#660=EDGE_LOOP('',(#120,#121,#122,#123,#124,#125,#126,#127,#128,#129,#130,
#131,#132,#133));
#661=EDGE_LOOP('',(#134,#135,#136,#137));
#662=EDGE_LOOP('',(#138,#139,#140,#141));
#663=EDGE_LOOP('',(#142,#143,#144,#145,#146,#147,#148,#149,#150,#151,#152,
#153,#154,#155,#156,#157,#158,#159,#160,#161));
#664=EDGE_LOOP('',(#162));
#665=EDGE_LOOP('',(#163));
#666=EDGE_LOOP('',(#164,#165,#166,#167,#168));
#667=EDGE_LOOP('',(#169,#170,#171,#172,#173));
#668=EDGE_LOOP('',(#174,#175,#176,#177));
#669=EDGE_LOOP('',(#178,#179,#180,#181));
#670=EDGE_LOOP('',(#182,#183,#184,#185));
#671=EDGE_LOOP('',(#186));
#672=EDGE_LOOP('',(#187));
#673=EDGE_LOOP('',(#188));
#674=EDGE_LOOP('',(#189));
#675=EDGE_LOOP('',(#190));
#676=EDGE_LOOP('',(#191));
#677=EDGE_LOOP('',(#192));
#678=EDGE_LOOP('',(#193));
#679=EDGE_LOOP('',(#194));
#680=EDGE_LOOP('',(#195));
#681=EDGE_LOOP('',(#196));
#682=EDGE_LOOP('',(#197));
#683=EDGE_LOOP('',(#198));
#684=EDGE_LOOP('',(#199));
#685=EDGE_LOOP('',(#200,#201,#202,#203));
#686=EDGE_LOOP('',(#204,#205,#206,#207));
#687=EDGE_LOOP('',(#208,#209,#210,#211));
#688=EDGE_LOOP('',(#212));
#689=EDGE_LOOP('',(#213));
#690=EDGE_LOOP('',(#214,#215,#216,#217,#218,#219,#220,#221,#222,#223,#224,
#225));
#691=EDGE_LOOP('',(#226));
#692=EDGE_LOOP('',(#227));
#693=EDGE_LOOP('',(#228));
#694=EDGE_LOOP('',(#229));
#695=EDGE_LOOP('',(#230));
#696=EDGE_LOOP('',(#231));
#697=EDGE_LOOP('',(#232));
#698=EDGE_LOOP('',(#233));
#699=EDGE_LOOP('',(#234));
#700=EDGE_LOOP('',(#235));
#701=EDGE_LOOP('',(#236));
#702=EDGE_LOOP('',(#237));
#703=EDGE_LOOP('',(#238));
#704=EDGE_LOOP('',(#239));
#705=EDGE_LOOP('',(#240,#241,#242,#243));
#706=EDGE_LOOP('',(#244,#245,#246,#247));
#707=EDGE_LOOP('',(#248,#249,#250,#251));
#708=EDGE_LOOP('',(#252,#253,#254,#255));
#709=EDGE_LOOP('',(#256,#257,#258,#259));
#710=EDGE_LOOP('',(#260,#261,#262,#263));
#711=EDGE_LOOP('',(#264));
#712=EDGE_LOOP('',(#265));
#713=EDGE_LOOP('',(#266));
#714=EDGE_LOOP('',(#267));
#715=EDGE_LOOP('',(#268));
#716=EDGE_LOOP('',(#269));
#717=EDGE_LOOP('',(#270));
#718=EDGE_LOOP('',(#271));
#719=EDGE_LOOP('',(#272,#273,#274,#275));
#720=EDGE_LOOP('',(#276,#277,#278,#279));
#721=EDGE_LOOP('',(#280,#281,#282,#283));
#722=EDGE_LOOP('',(#284,#285,#286,#287));
#723=EDGE_LOOP('',(#288,#289,#290,#291));
#724=EDGE_LOOP('',(#292,#293,#294,#295));
#725=EDGE_LOOP('',(#296,#297,#298,#299));
#726=EDGE_LOOP('',(#300,#301,#302));
#727=EDGE_LOOP('',(#303,#304,#305,#306,#307));
#728=EDGE_LOOP('',(#308,#309,#310));
#729=EDGE_LOOP('',(#311,#312,#313));
#730=FACE_BOUND('',#652,.T.);
#731=FACE_BOUND('',#653,.T.);
#732=FACE_BOUND('',#654,.T.);
#733=FACE_BOUND('',#655,.T.);
#734=FACE_BOUND('',#656,.T.);
#735=FACE_BOUND('',#657,.T.);
#736=FACE_BOUND('',#658,.T.);
#737=FACE_BOUND('',#659,.T.);
#738=FACE_BOUND('',#660,.T.);
#739=FACE_BOUND('',#661,.T.);
#740=FACE_BOUND('',#662,.T.);
#741=FACE_BOUND('',#663,.T.);
#742=FACE_BOUND('',#664,.T.);
#743=FACE_BOUND('',#665,.T.);
#744=FACE_BOUND('',#666,.T.);
#745=FACE_BOUND('',#667,.T.);
#746=FACE_BOUND('',#668,.T.);
#747=FACE_BOUND('',#669,.T.);
#748=FACE_BOUND('',#670,.T.);
#749=FACE_BOUND('',#671,.T.);
#750=FACE_BOUND('',#672,.T.);
#751=FACE_BOUND('',#673,.T.);
#752=FACE_BOUND('',#674,.T.);
#753=FACE_BOUND('',#675,.T.);
#754=FACE_BOUND('',#676,.T.);
#755=FACE_BOUND('',#677,.T.);
#756=FACE_BOUND('',#678,.T.);
#757=FACE_BOUND('',#679,.T.);
#758=FACE_BOUND('',#680,.T.);
#759=FACE_BOUND('',#681,.T.);
#760=FACE_BOUND('',#682,.T.);
#761=FACE_BOUND('',#683,.T.);
#762=FACE_BOUND('',#684,.T.);
#763=FACE_BOUND('',#685,.T.);
#764=FACE_BOUND('',#686,.T.);
#765=FACE_BOUND('',#687,.T.);
#766=FACE_BOUND('',#688,.T.);
#767=FACE_BOUND('',#689,.T.);
#768=FACE_BOUND('',#690,.T.);
#769=FACE_BOUND('',#691,.T.);
#770=FACE_BOUND('',#692,.T.);
#771=FACE_BOUND('',#693,.T.);
#772=FACE_BOUND('',#694,.T.);
#773=FACE_BOUND('',#695,.T.);
#774=FACE_BOUND('',#696,.T.);
#775=FACE_BOUND('',#697,.T.);
#776=FACE_BOUND('',#698,.T.);
#777=FACE_BOUND('',#699,.T.);
#778=FACE_BOUND('',#700,.T.);
#779=FACE_BOUND('',#701,.T.);
#780=FACE_BOUND('',#702,.T.);
#781=FACE_BOUND('',#703,.T.);
#782=FACE_BOUND('',#704,.T.);
#783=FACE_BOUND('',#705,.T.);
#784=FACE_BOUND('',#706,.T.);
#785=FACE_BOUND('',#707,.T.);
#786=FACE_BOUND('',#708,.T.);
#787=FACE_BOUND('',#709,.T.);
#788=FACE_BOUND('',#710,.T.);
#789=FACE_BOUND('',#711,.T.);
#790=FACE_BOUND('',#712,.T.);
#791=FACE_BOUND('',#713,.T.);
#792=FACE_BOUND('',#714,.T.);
#793=FACE_BOUND('',#715,.T.);
#794=FACE_BOUND('',#716,.T.);
#795=FACE_BOUND('',#717,.T.);
#796=FACE_BOUND('',#718,.T.);
#797=FACE_BOUND('',#719,.T.);
#798=FACE_BOUND('',#720,.T.);
#799=FACE_BOUND('',#721,.T.);
#800=FACE_BOUND('',#722,.T.);
#801=FACE_BOUND('',#723,.T.);
#802=FACE_BOUND('',#724,.T.);
#803=FACE_BOUND('',#725,.T.);
#804=FACE_BOUND('',#726,.T.);
#805=FACE_BOUND('',#727,.T.);
#806=FACE_BOUND('',#728,.T.);
#807=FACE_BOUND('',#729,.T.);
#808=PLANE('',#917);
#809=PLANE('',#929);
#810=PLANE('',#931);
#811=PLANE('',#933);
#812=PLANE('',#934);
#813=PLANE('',#937);
#814=PLANE('',#938);
#815=PLANE('',#940);
#816=PLANE('',#952);
#817=PLANE('',#954);
#818=PLANE('',#956);
#819=PLANE('',#958);
#820=PLANE('',#960);
#821=PLANE('',#962);
#822=PLANE('',#966);
#823=PLANE('',#970);
#824=PLANE('',#974);
#825=PLANE('',#975);
#826=PLANE('',#976);
#827=PLANE('',#977);
#828=PLANE('',#982);
#829=PLANE('',#986);
#830=PLANE('',#990);
#831=PLANE('',#994);
#832=PLANE('',#995);
#833=PLANE('',#996);
#834=PLANE('',#997);
#835=PLANE('',#998);
#836=PLANE('',#999);
#837=PLANE('',#1000);
#838=PLANE('',#1004);
#839=PLANE('',#1007);
#840=PLANE('',#1008);
#841=PLANE('',#1009);
#842=PLANE('',#1010);
#843=PLANE('',#1011);
#844=PLANE('',#1012);
#845=PLANE('',#1013);
#846=PLANE('',#1015);
#847=PLANE('',#1016);
#848=PLANE('',#1017);
#849=PLANE('',#1018);
#850=ADVANCED_FACE('',(#730),#808,.T.);
#851=ADVANCED_FACE('',(#731,#732),#68,.T.);
#852=ADVANCED_FACE('',(#733),#809,.T.);
#853=ADVANCED_FACE('',(#734),#810,.T.);
#854=ADVANCED_FACE('',(#735),#811,.T.);
#855=ADVANCED_FACE('',(#736,#737),#812,.T.);
#856=ADVANCED_FACE('',(#738),#813,.T.);
#857=ADVANCED_FACE('',(#739),#814,.T.);
#858=ADVANCED_FACE('',(#740),#815,.F.);
#859=ADVANCED_FACE('',(#741,#742,#743),#69,.T.);
#860=ADVANCED_FACE('',(#744),#816,.T.);
#861=ADVANCED_FACE('',(#745),#817,.T.);
#862=ADVANCED_FACE('',(#746),#818,.F.);
#863=ADVANCED_FACE('',(#747),#819,.T.);
#864=ADVANCED_FACE('',(#748),#820,.T.);
#865=ADVANCED_FACE('',(#749,#750),#821,.F.);
#866=ADVANCED_FACE('',(#751,#752),#70,.F.);
#867=ADVANCED_FACE('',(#753,#754),#822,.F.);
#868=ADVANCED_FACE('',(#755,#756),#71,.F.);
#869=ADVANCED_FACE('',(#757,#758),#823,.F.);
#870=ADVANCED_FACE('',(#759,#760),#72,.F.);
#871=ADVANCED_FACE('',(#761,#762),#824,.F.);
#872=ADVANCED_FACE('',(#763),#825,.T.);
#873=ADVANCED_FACE('',(#764),#826,.T.);
#874=ADVANCED_FACE('',(#765),#827,.F.);
#875=ADVANCED_FACE('',(#766,#767,#768),#73,.T.);
#876=ADVANCED_FACE('',(#769,#770),#828,.F.);
#877=ADVANCED_FACE('',(#771,#772),#74,.F.);
#878=ADVANCED_FACE('',(#773,#774),#829,.F.);
#879=ADVANCED_FACE('',(#775,#776),#75,.F.);
#880=ADVANCED_FACE('',(#777,#778),#830,.F.);
#881=ADVANCED_FACE('',(#779,#780),#76,.F.);
#882=ADVANCED_FACE('',(#781,#782),#831,.F.);
#883=ADVANCED_FACE('',(#783),#832,.T.);
#884=ADVANCED_FACE('',(#784),#833,.T.);
#885=ADVANCED_FACE('',(#785),#834,.T.);
#886=ADVANCED_FACE('',(#786),#835,.T.);
#887=ADVANCED_FACE('',(#787),#836,.T.);
#888=ADVANCED_FACE('',(#788),#837,.F.);
#889=ADVANCED_FACE('',(#789,#790),#77,.F.);
#890=ADVANCED_FACE('',(#791,#792),#838,.T.);
#891=ADVANCED_FACE('',(#793,#794),#78,.F.);
#892=ADVANCED_FACE('',(#795,#796),#839,.T.);
#893=ADVANCED_FACE('',(#797),#840,.T.);
#894=ADVANCED_FACE('',(#798),#841,.F.);
#895=ADVANCED_FACE('',(#799),#842,.T.);
#896=ADVANCED_FACE('',(#800),#843,.F.);
#897=ADVANCED_FACE('',(#801),#844,.F.);
#898=ADVANCED_FACE('',(#802),#845,.T.);
#899=ADVANCED_FACE('',(#803),#79,.F.);
#900=ADVANCED_FACE('',(#804),#846,.T.);
#901=ADVANCED_FACE('',(#805),#847,.T.);
#902=ADVANCED_FACE('',(#806),#848,.T.);
#903=ADVANCED_FACE('',(#807),#849,.T.);
#904=CLOSED_SHELL('',(#850,#851,#852,#853,#854,#855,#856,#857,#858,#859,
#860,#861,#862,#863,#864,#865,#866,#867,#868,#869,#870,#871,#872,#873,#874,
#875,#876,#877,#878,#879,#880,#881,#882,#883,#884,#885,#886,#887,#888,#889,
#890,#891,#892,#893,#894,#895,#896,#897,#898,#899,#900,#901,#902,#903));
#905=STYLED_ITEM('',(#906),#913);
#906=PRESENTATION_STYLE_ASSIGNMENT((#907));
#907=SURFACE_STYLE_USAGE(.BOTH.,#908);
#908=SURFACE_SIDE_STYLE('',(#909));
#909=SURFACE_STYLE_FILL_AREA(#910);
#910=FILL_AREA_STYLE('',(#911));
#911=FILL_AREA_STYLE_COLOUR('',#912);
#912=COLOUR_RGB('',0.200000002980232,0.200000002980232,0.200000002980232);
#913=MANIFOLD_SOLID_BREP('',#904);
#914=SHAPE_DEFINITION_REPRESENTATION(#1555,#915);
#915=SHAPE_REPRESENTATION('Black_6019986_AVV',(#916),#1550);
#916=AXIS2_PLACEMENT_3D('',#1294,#1019,#1020);
#917=AXIS2_PLACEMENT_3D('',#1295,#1021,#1022);
#918=AXIS2_PLACEMENT_3D('',#1302,#1026,#1027);
#919=AXIS2_PLACEMENT_3D('',#1303,#1028,#1029);
#920=AXIS2_PLACEMENT_3D('',#1305,#1030,#1031);
#921=AXIS2_PLACEMENT_3D('',#1307,#1032,#1033);
#922=AXIS2_PLACEMENT_3D('',#1309,#1034,#1035);
#923=AXIS2_PLACEMENT_3D('',#1313,#1037,#1038);
#924=AXIS2_PLACEMENT_3D('',#1317,#1040,#1041);
#925=AXIS2_PLACEMENT_3D('',#1321,#1043,#1044);
#926=AXIS2_PLACEMENT_3D('',#1325,#1046,#1047);
#927=AXIS2_PLACEMENT_3D('',#1329,#1049,#1050);
#928=AXIS2_PLACEMENT_3D('',#1333,#1052,#1053);
#929=AXIS2_PLACEMENT_3D('',#1336,#1055,#1056);
#930=AXIS2_PLACEMENT_3D('',#1338,#1058,#1059);
#931=AXIS2_PLACEMENT_3D('',#1341,#1061,#1062);
#932=AXIS2_PLACEMENT_3D('',#1350,#1067,#1068);
#933=AXIS2_PLACEMENT_3D('',#1353,#1070,#1071);
#934=AXIS2_PLACEMENT_3D('',#1358,#1075,#1076);
#935=AXIS2_PLACEMENT_3D('',#1359,#1077,#1078);
#936=AXIS2_PLACEMENT_3D('',#1361,#1079,#1080);
#937=AXIS2_PLACEMENT_3D('',#1362,#1081,#1082);
#938=AXIS2_PLACEMENT_3D('',#1385,#1095,#1096);
#939=AXIS2_PLACEMENT_3D('',#1386,#1097,#1098);
#940=AXIS2_PLACEMENT_3D('',#1391,#1101,#1102);
#941=AXIS2_PLACEMENT_3D('',#1394,#1104,#1105);
#942=AXIS2_PLACEMENT_3D('',#1397,#1107,#1108);
#943=AXIS2_PLACEMENT_3D('',#1400,#1110,#1111);
#944=AXIS2_PLACEMENT_3D('',#1404,#1113,#1114);
#945=AXIS2_PLACEMENT_3D('',#1405,#1115,#1116);
#946=AXIS2_PLACEMENT_3D('',#1409,#1118,#1119);
#947=AXIS2_PLACEMENT_3D('',#1413,#1121,#1122);
#948=AXIS2_PLACEMENT_3D('',#1417,#1124,#1125);
#949=AXIS2_PLACEMENT_3D('',#1420,#1127,#1128);
#950=AXIS2_PLACEMENT_3D('',#1424,#1131,#1132);
#951=AXIS2_PLACEMENT_3D('',#1426,#1133,#1134);
#952=AXIS2_PLACEMENT_3D('',#1428,#1135,#1136);
#953=AXIS2_PLACEMENT_3D('',#1431,#1138,#1139);
#954=AXIS2_PLACEMENT_3D('',#1434,#1141,#1142);
#955=AXIS2_PLACEMENT_3D('',#1437,#1144,#1145);
#956=AXIS2_PLACEMENT_3D('',#1440,#1147,#1148);
#957=AXIS2_PLACEMENT_3D('',#1445,#1151,#1152);
#958=AXIS2_PLACEMENT_3D('',#1446,#1153,#1154);
#959=AXIS2_PLACEMENT_3D('',#1447,#1155,#1156);
#960=AXIS2_PLACEMENT_3D('',#1452,#1159,#1160);
#961=AXIS2_PLACEMENT_3D('',#1455,#1162,#1163);
#962=AXIS2_PLACEMENT_3D('',#1458,#1165,#1166);
#963=AXIS2_PLACEMENT_3D('',#1459,#1167,#1168);
#964=AXIS2_PLACEMENT_3D('',#1461,#1169,#1170);
#965=AXIS2_PLACEMENT_3D('',#1462,#1171,#1172);
#966=AXIS2_PLACEMENT_3D('',#1464,#1173,#1174);
#967=AXIS2_PLACEMENT_3D('',#1465,#1175,#1176);
#968=AXIS2_PLACEMENT_3D('',#1467,#1177,#1178);
#969=AXIS2_PLACEMENT_3D('',#1468,#1179,#1180);
#970=AXIS2_PLACEMENT_3D('',#1470,#1181,#1182);
#971=AXIS2_PLACEMENT_3D('',#1471,#1183,#1184);
#972=AXIS2_PLACEMENT_3D('',#1473,#1185,#1186);
#973=AXIS2_PLACEMENT_3D('',#1474,#1187,#1188);
#974=AXIS2_PLACEMENT_3D('',#1476,#1189,#1190);
#975=AXIS2_PLACEMENT_3D('',#1477,#1191,#1192);
#976=AXIS2_PLACEMENT_3D('',#1479,#1194,#1195);
#977=AXIS2_PLACEMENT_3D('',#1483,#1198,#1199);
#978=AXIS2_PLACEMENT_3D('',#1486,#1201,#1202);
#979=AXIS2_PLACEMENT_3D('',#1487,#1203,#1204);
#980=AXIS2_PLACEMENT_3D('',#1488,#1205,#1206);
#981=AXIS2_PLACEMENT_3D('',#1490,#1207,#1208);
#982=AXIS2_PLACEMENT_3D('',#1496,#1213,#1214);
#983=AXIS2_PLACEMENT_3D('',#1497,#1215,#1216);
#984=AXIS2_PLACEMENT_3D('',#1499,#1217,#1218);
#985=AXIS2_PLACEMENT_3D('',#1500,#1219,#1220);
#986=AXIS2_PLACEMENT_3D('',#1502,#1221,#1222);
#987=AXIS2_PLACEMENT_3D('',#1503,#1223,#1224);
#988=AXIS2_PLACEMENT_3D('',#1505,#1225,#1226);
#989=AXIS2_PLACEMENT_3D('',#1506,#1227,#1228);
#990=AXIS2_PLACEMENT_3D('',#1508,#1229,#1230);
#991=AXIS2_PLACEMENT_3D('',#1509,#1231,#1232);
#992=AXIS2_PLACEMENT_3D('',#1511,#1233,#1234);
#993=AXIS2_PLACEMENT_3D('',#1512,#1235,#1236);
#994=AXIS2_PLACEMENT_3D('',#1514,#1237,#1238);
#995=AXIS2_PLACEMENT_3D('',#1515,#1239,#1240);
#996=AXIS2_PLACEMENT_3D('',#1516,#1241,#1242);
#997=AXIS2_PLACEMENT_3D('',#1517,#1243,#1244);
#998=AXIS2_PLACEMENT_3D('',#1518,#1245,#1246);
#999=AXIS2_PLACEMENT_3D('',#1519,#1247,#1248);
#1000=AXIS2_PLACEMENT_3D('',#1520,#1249,#1250);
#1001=AXIS2_PLACEMENT_3D('',#1522,#1252,#1253);
#1002=AXIS2_PLACEMENT_3D('',#1523,#1254,#1255);
#1003=AXIS2_PLACEMENT_3D('',#1525,#1256,#1257);
#1004=AXIS2_PLACEMENT_3D('',#1527,#1258,#1259);
#1005=AXIS2_PLACEMENT_3D('',#1528,#1260,#1261);
#1006=AXIS2_PLACEMENT_3D('',#1529,#1262,#1263);
#1007=AXIS2_PLACEMENT_3D('',#1531,#1264,#1265);
#1008=AXIS2_PLACEMENT_3D('',#1532,#1266,#1267);
#1009=AXIS2_PLACEMENT_3D('',#1534,#1269,#1270);
#1010=AXIS2_PLACEMENT_3D('',#1536,#1272,#1273);
#1011=AXIS2_PLACEMENT_3D('',#1537,#1274,#1275);
#1012=AXIS2_PLACEMENT_3D('',#1539,#1277,#1278);
#1013=AXIS2_PLACEMENT_3D('',#1541,#1280,#1281);
#1014=AXIS2_PLACEMENT_3D('',#1542,#1282,#1283);
#1015=AXIS2_PLACEMENT_3D('',#1543,#1284,#1285);
#1016=AXIS2_PLACEMENT_3D('',#1545,#1287,#1288);
#1017=AXIS2_PLACEMENT_3D('',#1547,#1290,#1291);
#1018=AXIS2_PLACEMENT_3D('',#1548,#1292,#1293);
#1019=DIRECTION('',(0.,0.,1.));
#1020=DIRECTION('',(1.,0.,0.));
#1021=DIRECTION('',(6.02334540269724E-16,-1.,2.36945170388884E-16));
#1022=DIRECTION('',(1.,6.02334540269724E-16,0.));
#1023=DIRECTION('',(-1.,-4.8186763221578E-16,0.));
#1024=DIRECTION('',(-0.400500939457409,-2.41235549245671E-16,0.916296348073991));
#1025=DIRECTION('',(-1.4272026027532E-31,2.36945170388884E-16,1.));
#1026=DIRECTION('',(-1.,-5.42101086242752E-16,0.));
#1027=DIRECTION('',(5.42101086242752E-16,-1.,0.));
#1028=DIRECTION('',(-1.,-5.42101086242752E-16,0.));
#1029=DIRECTION('',(5.42101086242752E-16,-1.,0.));
#1030=DIRECTION('',(-1.,-5.42101086242752E-16,0.));
#1031=DIRECTION('',(5.42101086242752E-16,-1.,0.));
#1032=DIRECTION('',(0.916296348073991,5.51916939567975E-16,0.400500939457409));
#1033=DIRECTION('',(-0.400500939457409,-9.0840261512825E-17,0.916296348073992));
#1034=DIRECTION('',(-1.,-4.82691951083054E-16,0.));
#1035=DIRECTION('',(-4.82691951083054E-16,1.,0.));
#1036=DIRECTION('',(-1.,0.,0.));
#1037=DIRECTION('',(-1.,-5.42101086242752E-16,0.));
#1038=DIRECTION('',(0.,0.,-1.));
#1039=DIRECTION('',(1.,5.42101086242752E-16,0.));
#1040=DIRECTION('',(-1.,-1.82740752550157E-16,0.));
#1041=DIRECTION('',(0.,0.,1.));
#1042=DIRECTION('',(-1.,-1.82740752550157E-16,0.));
#1043=DIRECTION('',(-1.,-1.82740752550157E-16,0.));
#1044=DIRECTION('',(0.,0.,1.));
#1045=DIRECTION('',(1.,5.42101086242752E-16,0.));
#1046=DIRECTION('',(-1.,-1.82740752550157E-16,0.));
#1047=DIRECTION('',(1.82740752550157E-16,-1.,0.));
#1048=DIRECTION('',(1.,5.42101086242752E-16,0.));
#1049=DIRECTION('',(1.,1.82740752550157E-16,0.));
#1050=DIRECTION('',(0.,0.,-1.));
#1051=DIRECTION('',(-1.,-1.82740752550157E-16,0.));
#1052=DIRECTION('',(1.,1.82740752550157E-16,0.));
#1053=DIRECTION('',(0.,0.,-1.));
#1054=DIRECTION('',(1.,5.42101086242752E-16,0.));
#1055=DIRECTION('',(1.,4.82691951083054E-16,0.));
#1056=DIRECTION('',(-4.82691951083054E-16,1.,0.));
#1057=DIRECTION('',(6.02334540269724E-16,-1.,0.));
#1058=DIRECTION('',(1.,4.82691951083054E-16,0.));
#1059=DIRECTION('',(4.82691951083054E-16,-1.,0.));
#1060=DIRECTION('',(-1.0842021724855E-15,1.,-1.20466908053945E-16));
#1061=DIRECTION('',(0.,0.,1.));
#1062=DIRECTION('',(1.,0.,0.));
#1063=DIRECTION('',(-1.,-1.0842021724855E-15,0.));
#1064=DIRECTION('',(-1.0842021724855E-15,1.,-1.20466908053945E-16));
#1065=DIRECTION('',(0.,-1.,0.));
#1066=DIRECTION('',(-1.82740752550157E-16,1.,1.08420217248551E-15));
#1067=DIRECTION('',(0.,0.,1.));
#1068=DIRECTION('',(1.,0.,0.));
#1069=DIRECTION('',(0.,-1.,0.));
#1070=DIRECTION('',(-6.02334540269724E-16,1.,-1.20466908053945E-16));
#1071=DIRECTION('',(-1.,-6.02334540269724E-16,0.));
#1072=DIRECTION('',(7.25613796803881E-32,-1.20466908053945E-16,-1.));
#1073=DIRECTION('',(0.216930457818656,1.17598236822631E-16,-0.976187060183953));
#1074=DIRECTION('',(-1.,-4.8186763221578E-16,0.));
#1075=DIRECTION('',(1.,5.42101086242752E-16,0.));
#1076=DIRECTION('',(-5.42101086242752E-16,1.,0.));
#1077=DIRECTION('',(-1.,-5.42101086242752E-16,0.));
#1078=DIRECTION('',(5.42101086242752E-16,-1.,0.));
#1079=DIRECTION('',(1.,4.82691951083054E-16,0.));
#1080=DIRECTION('',(4.82691951083054E-16,-1.,0.));
#1081=DIRECTION('',(1.,0.,0.));
#1082=DIRECTION('',(0.,0.,-1.));
#1083=DIRECTION('',(0.,0.,-1.));
#1084=DIRECTION('',(0.,0.,-1.));
#1085=DIRECTION('',(0.,0.,-1.));
#1086=DIRECTION('',(0.,1.,0.));
#1087=DIRECTION('',(0.,0.,1.));
#1088=DIRECTION('',(0.,1.,0.));
#1089=DIRECTION('',(0.,0.,-1.));
#1090=DIRECTION('',(0.,1.,0.));
#1091=DIRECTION('',(0.,0.,1.));
#1092=DIRECTION('',(0.,-1.,0.));
#1093=DIRECTION('',(0.,0.,-1.));
#1094=DIRECTION('',(0.,-1.,0.));
#1095=DIRECTION('',(0.,0.,1.));
#1096=DIRECTION('',(1.,0.,0.));
#1097=DIRECTION('',(0.,0.,1.));
#1098=DIRECTION('',(1.,0.,0.));
#1099=DIRECTION('',(-1.82740752550157E-16,1.,1.08420217248551E-15));
#1100=DIRECTION('',(-1.82740752550157E-16,1.,0.));
#1101=DIRECTION('',(0.,0.,1.));
#1102=DIRECTION('',(1.,0.,0.));
#1103=DIRECTION('',(-1.82740752550157E-16,1.,0.));
#1104=DIRECTION('',(0.,0.,1.));
#1105=DIRECTION('',(1.,0.,0.));
#1106=DIRECTION('',(-1.82740752550157E-16,1.,0.));
#1107=DIRECTION('',(0.,0.,1.));
#1108=DIRECTION('',(1.,0.,0.));
#1109=DIRECTION('',(0.,0.,-1.));
#1110=DIRECTION('',(0.,0.,-1.));
#1111=DIRECTION('',(-1.,0.,0.));
#1112=DIRECTION('',(0.,0.,-1.));
#1113=DIRECTION('',(0.,0.,1.));
#1114=DIRECTION('',(1.,0.,0.));
#1115=DIRECTION('',(0.,0.,-1.));
#1116=DIRECTION('',(-1.,0.,0.));
#1117=DIRECTION('',(0.,0.,-1.));
#1118=DIRECTION('',(0.,0.,1.));
#1119=DIRECTION('',(-1.,0.,0.));
#1120=DIRECTION('',(0.,0.,-1.));
#1121=DIRECTION('',(0.,0.,1.));
#1122=DIRECTION('',(-1.,0.,0.));
#1123=DIRECTION('',(0.,0.,1.));
#1124=DIRECTION('',(0.,0.,1.));
#1125=DIRECTION('',(-1.,0.,0.));
#1126=DIRECTION('',(0.,0.,1.));
#1127=DIRECTION('',(0.,0.,1.));
#1128=DIRECTION('',(-1.,0.,0.));
#1129=DIRECTION('',(0.,0.,1.));
#1130=DIRECTION('',(0.,0.,-1.));
#1131=DIRECTION('',(0.,0.,1.));
#1132=DIRECTION('',(1.,0.,0.));
#1133=DIRECTION('',(0.,0.,1.));
#1134=DIRECTION('',(1.,0.,0.));
#1135=DIRECTION('',(0.,0.,1.));
#1136=DIRECTION('',(1.,0.,0.));
#1137=DIRECTION('',(-1.,1.02438075270722E-15,0.));
#1138=DIRECTION('',(0.,0.,1.));
#1139=DIRECTION('',(1.,0.,0.));
#1140=DIRECTION('',(1.,0.,0.));
#1141=DIRECTION('',(0.,0.,-1.));
#1142=DIRECTION('',(-1.,0.,0.));
#1143=DIRECTION('',(-1.,0.,0.));
#1144=DIRECTION('',(0.,0.,-1.));
#1145=DIRECTION('',(1.,0.,0.));
#1146=DIRECTION('',(1.,-1.02438075270722E-15,0.));
#1147=DIRECTION('',(0.,0.,1.));
#1148=DIRECTION('',(1.,0.,0.));
#1149=DIRECTION('',(-1.,0.,0.));
#1150=DIRECTION('',(1.,3.0719061553756E-16,0.));
#1151=DIRECTION('',(0.,0.,1.));
#1152=DIRECTION('',(1.,0.,0.));
#1153=DIRECTION('',(0.,0.,1.));
#1154=DIRECTION('',(1.,0.,0.));
#1155=DIRECTION('',(0.,0.,1.));
#1156=DIRECTION('',(1.,0.,0.));
#1157=DIRECTION('',(-1.,1.02438075270722E-15,0.));
#1158=DIRECTION('',(-1.,-8.49291701780312E-16,0.));
#1159=DIRECTION('',(0.,0.,1.));
#1160=DIRECTION('',(1.,0.,0.));
#1161=DIRECTION('',(1.,0.,0.));
#1162=DIRECTION('',(0.,0.,1.));
#1163=DIRECTION('',(1.,0.,0.));
#1164=DIRECTION('',(1.,3.0719061553756E-16,0.));
#1165=DIRECTION('',(0.,0.,-1.));
#1166=DIRECTION('',(-1.,0.,0.));
#1167=DIRECTION('',(0.,0.,1.));
#1168=DIRECTION('',(1.,0.,0.));
#1169=DIRECTION('',(0.,0.,1.));
#1170=DIRECTION('',(1.,0.,0.));
#1171=DIRECTION('',(0.,0.,1.));
#1172=DIRECTION('',(1.,0.,0.));
#1173=DIRECTION('',(0.,0.,-1.));
#1174=DIRECTION('',(-1.,0.,0.));
#1175=DIRECTION('',(0.,0.,1.));
#1176=DIRECTION('',(1.,0.,0.));
#1177=DIRECTION('',(0.,0.,1.));
#1178=DIRECTION('',(1.,0.,0.));
#1179=DIRECTION('',(0.,0.,1.));
#1180=DIRECTION('',(1.,0.,0.));
#1181=DIRECTION('',(0.,0.,1.));
#1182=DIRECTION('',(1.,0.,0.));
#1183=DIRECTION('',(0.,0.,1.));
#1184=DIRECTION('',(1.,0.,0.));
#1185=DIRECTION('',(0.,0.,1.));
#1186=DIRECTION('',(1.,0.,0.));
#1187=DIRECTION('',(0.,0.,1.));
#1188=DIRECTION('',(1.,0.,0.));
#1189=DIRECTION('',(0.,0.,1.));
#1190=DIRECTION('',(1.,0.,0.));
#1191=DIRECTION('',(-3.0719061553756E-16,1.,0.));
#1192=DIRECTION('',(-1.,-3.0719061553756E-16,0.));
#1193=DIRECTION('',(0.,0.,-1.));
#1194=DIRECTION('',(8.49291701780312E-16,-1.,0.));
#1195=DIRECTION('',(1.,8.49291701780312E-16,0.));
#1196=DIRECTION('',(-1.,-8.49291701780312E-16,0.));
#1197=DIRECTION('',(0.,0.,-1.));
#1198=DIRECTION('',(0.,0.,1.));
#1199=DIRECTION('',(1.,0.,0.));
#1200=DIRECTION('',(1.,-1.02438075270722E-15,0.));
#1201=DIRECTION('',(0.,0.,1.));
#1202=DIRECTION('',(1.,0.,0.));
#1203=DIRECTION('',(0.,0.,1.));
#1204=DIRECTION('',(1.,0.,0.));
#1205=DIRECTION('',(0.,0.,1.));
#1206=DIRECTION('',(1.,0.,0.));
#1207=DIRECTION('',(0.,0.,1.));
#1208=DIRECTION('',(1.,0.,0.));
#1209=DIRECTION('',(0.,0.,1.));
#1210=DIRECTION('',(0.,0.,1.));
#1211=DIRECTION('',(0.,0.,-1.));
#1212=DIRECTION('',(0.,0.,-1.));
#1213=DIRECTION('',(0.,0.,-1.));
#1214=DIRECTION('',(-1.,0.,0.));
#1215=DIRECTION('',(0.,0.,1.));
#1216=DIRECTION('',(1.,0.,0.));
#1217=DIRECTION('',(0.,0.,1.));
#1218=DIRECTION('',(1.,0.,0.));
#1219=DIRECTION('',(0.,0.,1.));
#1220=DIRECTION('',(1.,0.,0.));
#1221=DIRECTION('',(0.,0.,-1.));
#1222=DIRECTION('',(-1.,0.,0.));
#1223=DIRECTION('',(0.,0.,1.));
#1224=DIRECTION('',(1.,0.,0.));
#1225=DIRECTION('',(0.,0.,1.));
#1226=DIRECTION('',(1.,0.,0.));
#1227=DIRECTION('',(0.,0.,1.));
#1228=DIRECTION('',(1.,0.,0.));
#1229=DIRECTION('',(0.,0.,1.));
#1230=DIRECTION('',(1.,0.,0.));
#1231=DIRECTION('',(0.,0.,1.));
#1232=DIRECTION('',(1.,0.,0.));
#1233=DIRECTION('',(0.,0.,1.));
#1234=DIRECTION('',(1.,0.,0.));
#1235=DIRECTION('',(0.,0.,1.));
#1236=DIRECTION('',(1.,0.,0.));
#1237=DIRECTION('',(0.,0.,1.));
#1238=DIRECTION('',(1.,0.,0.));
#1239=DIRECTION('',(0.,-1.,0.));
#1240=DIRECTION('',(0.,0.,-1.));
#1241=DIRECTION('',(1.02438075270722E-15,1.,0.));
#1242=DIRECTION('',(-1.,1.02438075270722E-15,0.));
#1243=DIRECTION('',(0.,-1.,0.));
#1244=DIRECTION('',(0.,0.,-1.));
#1245=DIRECTION('',(1.02438075270722E-15,1.,0.));
#1246=DIRECTION('',(-1.,1.02438075270722E-15,0.));
#1247=DIRECTION('',(-1.,-1.82740752550157E-16,0.));
#1248=DIRECTION('',(1.82740752550157E-16,-1.,0.));
#1249=DIRECTION('',(0.,0.,1.));
#1250=DIRECTION('',(1.,0.,0.));
#1251=DIRECTION('',(-1.82740752550157E-16,1.,0.));
#1252=DIRECTION('',(-1.,-5.42101086242752E-16,0.));
#1253=DIRECTION('',(5.42101086242752E-16,-1.,0.));
#1254=DIRECTION('',(-1.,-5.42101086242752E-16,0.));
#1255=DIRECTION('',(5.42101086242752E-16,-1.,0.));
#1256=DIRECTION('',(-1.,-5.42101086242752E-16,0.));
#1257=DIRECTION('',(5.42101086242752E-16,-1.,0.));
#1258=DIRECTION('',(-1.,-5.42101086242752E-16,0.));
#1259=DIRECTION('',(5.42101086242752E-16,-1.,0.));
#1260=DIRECTION('',(-1.,-5.42101086242752E-16,0.));
#1261=DIRECTION('',(5.42101086242752E-16,-1.,0.));
#1262=DIRECTION('',(-1.,-5.42101086242752E-16,0.));
#1263=DIRECTION('',(5.42101086242752E-16,-1.,0.));
#1264=DIRECTION('',(-1.,-5.42101086242752E-16,0.));
#1265=DIRECTION('',(5.42101086242752E-16,-1.,0.));
#1266=DIRECTION('',(-1.,-1.82740752550157E-16,0.));
#1267=DIRECTION('',(1.82740752550157E-16,-1.,0.));
#1268=DIRECTION('',(1.82740752550157E-16,-1.,1.18580815826612E-16));
#1269=DIRECTION('',(-1.,-1.82740752550157E-16,0.));
#1270=DIRECTION('',(1.82740752550157E-16,-1.,0.));
#1271=DIRECTION('',(1.82740752550157E-16,-1.,1.18580815826612E-16));
#1272=DIRECTION('',(2.16695475221666E-32,-1.18580815826612E-16,-1.));
#1273=DIRECTION('',(0.,1.,-1.18580815826612E-16));
#1274=DIRECTION('',(1.,1.82740752550157E-16,0.));
#1275=DIRECTION('',(-1.82740752550157E-16,1.,0.));
#1276=DIRECTION('',(1.82740752550157E-16,-1.,-1.18580815826612E-16));
#1277=DIRECTION('',(-2.16695475221666E-32,1.18580815826612E-16,-1.));
#1278=DIRECTION('',(0.,1.,1.18580815826612E-16));
#1279=DIRECTION('',(1.82740752550157E-16,-1.,-1.18580815826612E-16));
#1280=DIRECTION('',(1.,1.82740752550157E-16,0.));
#1281=DIRECTION('',(-1.82740752550157E-16,1.,0.));
#1282=DIRECTION('',(-1.,-4.8186763221578E-16,0.));
#1283=DIRECTION('',(4.8186763221578E-16,-1.,0.));
#1284=DIRECTION('',(6.02334540269724E-16,-1.,2.4093381610789E-16));
#1285=DIRECTION('',(1.,6.02334540269724E-16,0.));
#1286=DIRECTION('',(0.216930457818656,1.17598236822631E-16,-0.976187060183953));
#1287=DIRECTION('',(0.976187060183953,1.08451707291982E-15,0.216930457818656));
#1288=DIRECTION('',(0.216930457818656,0.,-0.976187060183953));
#1289=DIRECTION('',(0.216930457818656,1.17598236822631E-16,-0.976187060183953));
#1290=DIRECTION('',(-1.0842021724855E-15,1.,-1.20466908053945E-16));
#1291=DIRECTION('',(-1.,-1.0842021724855E-15,0.));
#1292=DIRECTION('',(0.916296348073991,5.51916939567975E-16,0.400500939457409));
#1293=DIRECTION('',(0.400500939457409,0.,-0.916296348073992));
#1294=CARTESIAN_POINT('',(0.,0.,0.));
#1295=CARTESIAN_POINT('',(4.,11.1,4.));
#1296=CARTESIAN_POINT('',(4.00000000000001,11.1,4.));
#1297=CARTESIAN_POINT('',(4.00000000000001,11.1,4.));
#1298=CARTESIAN_POINT('',(3.2,11.1,4.));
#1299=CARTESIAN_POINT('',(4.00000000000001,11.1,4.));
#1300=CARTESIAN_POINT('',(3.20000000000001,11.1,5.8303005217723));
#1301=CARTESIAN_POINT('',(3.2,11.1,4.));
#1302=CARTESIAN_POINT('',(3.2,8.,4.));
#1303=CARTESIAN_POINT('',(-3.99999999999999,8.,4.));
#1304=CARTESIAN_POINT('',(-3.99999999999999,4.39999999999999,4.));
#1305=CARTESIAN_POINT('',(3.20000000000001,8.,4.));
#1306=CARTESIAN_POINT('',(3.20000000000001,8.,7.6));
#1307=CARTESIAN_POINT('',(4.00000000000001,8.,4.));
#1308=CARTESIAN_POINT('',(4.,11.6,4.));
#1309=CARTESIAN_POINT('',(4.00000000000001,8.,4.));
#1310=CARTESIAN_POINT('',(4.00000000000001,4.4,4.));
#1311=CARTESIAN_POINT('',(4.,4.4,4.));
#1312=CARTESIAN_POINT('',(3.60000000000001,4.4,4.));
#1313=CARTESIAN_POINT('',(3.60000000000001,8.,4.));
#1314=CARTESIAN_POINT('',(3.60000000000001,8.,0.400000000000001));
#1315=CARTESIAN_POINT('',(-3.59999999999999,7.99999999999999,0.399999999999995));
#1316=CARTESIAN_POINT('',(2.60000000000003,8.,0.399999999999996));
#1317=CARTESIAN_POINT('',(2.60000000000003,8.,4.));
#1318=CARTESIAN_POINT('',(2.60000000000003,4.51431498841332,3.1));
#1319=CARTESIAN_POINT('',(2.60000000000003,4.51431498841332,3.1));
#1320=CARTESIAN_POINT('',(-2.79999999999997,4.51431498841332,3.1));
#1321=CARTESIAN_POINT('',(-2.79999999999997,8.,4.));
#1322=CARTESIAN_POINT('',(-2.79999999999997,8.,0.399999999999996));
#1323=CARTESIAN_POINT('',(-3.59999999999999,7.99999999999999,0.399999999999995));
#1324=CARTESIAN_POINT('',(-3.59999999999999,7.99999999999999,0.399999999999998));
#1325=CARTESIAN_POINT('',(-3.59999999999997,8.,4.));
#1326=CARTESIAN_POINT('',(-3.59999999999999,8.,7.6));
#1327=CARTESIAN_POINT('',(-3.59999999999999,8.,7.6));
#1328=CARTESIAN_POINT('',(-2.79999999999997,7.99999999999999,7.6));
#1329=CARTESIAN_POINT('',(-2.79999999999997,8.,4.));
#1330=CARTESIAN_POINT('',(-2.79999999999997,4.51431498841332,4.9));
#1331=CARTESIAN_POINT('',(2.60000000000003,4.51431498841332,4.9));
#1332=CARTESIAN_POINT('',(2.60000000000003,4.51431498841332,4.9));
#1333=CARTESIAN_POINT('',(2.60000000000003,8.,4.));
#1334=CARTESIAN_POINT('',(2.60000000000003,7.99999999999999,7.6));
#1335=CARTESIAN_POINT('',(-3.59999999999999,8.,7.6));
#1336=CARTESIAN_POINT('',(4.00000000000001,8.,4.));
#1337=CARTESIAN_POINT('',(3.99999999999999,41.1,4.));
#1338=CARTESIAN_POINT('',(4.00000000000001,8.,4.));
#1339=CARTESIAN_POINT('',(4.00000000000001,4.9,4.));
#1340=CARTESIAN_POINT('',(4.00000000000001,4.4,4.));
#1341=CARTESIAN_POINT('',(0.,0.,7.6));
#1342=CARTESIAN_POINT('',(4.00000000000001,4.4,7.6));
#1343=CARTESIAN_POINT('',(3.6,4.4,7.6));
#1344=CARTESIAN_POINT('',(3.20000000000001,4.4,7.6));
#1345=CARTESIAN_POINT('',(3.20000000000001,4.4,7.6));
#1346=CARTESIAN_POINT('',(3.20000000000001,4.9,7.6));
#1347=CARTESIAN_POINT('',(3.20000000000001,4.4,7.6));
#1348=CARTESIAN_POINT('',(2.60000000000003,3.6,7.6));
#1349=CARTESIAN_POINT('',(2.60000000000003,2.48997991959771,7.6));
#1350=CARTESIAN_POINT('',(0.,0.,7.6));
#1351=CARTESIAN_POINT('',(3.6,0.,7.6));
#1352=CARTESIAN_POINT('',(3.6,0.,7.6));
#1353=CARTESIAN_POINT('',(4.00000000000001,4.9,4.));
#1354=CARTESIAN_POINT('',(3.20000000000001,4.9,4.));
#1355=CARTESIAN_POINT('',(3.20000000000001,4.9,4.));
#1356=CARTESIAN_POINT('',(4.00000000000001,4.9,4.));
#1357=CARTESIAN_POINT('',(4.00000000000001,4.9,4.));
#1358=CARTESIAN_POINT('',(3.2,11.6,4.));
#1359=CARTESIAN_POINT('',(3.20000000000001,8.,4.));
#1360=CARTESIAN_POINT('',(3.20000000000001,5.6,4.));
#1361=CARTESIAN_POINT('',(3.20000000000001,8.,4.));
#1362=CARTESIAN_POINT('',(3.6,0.,7.6));
#1363=CARTESIAN_POINT('',(3.6,4.4,7.6));
#1364=CARTESIAN_POINT('',(3.6,4.4,5.80000000000005));
#1365=CARTESIAN_POINT('',(3.6,4.4,7.6));
#1366=CARTESIAN_POINT('',(3.6,0.,7.6));
#1367=CARTESIAN_POINT('',(3.6,1.54074395550979E-30,4.4));
#1368=CARTESIAN_POINT('',(3.6,-3.36102673470506E-15,4.4));
#1369=CARTESIAN_POINT('',(3.6,2.8,4.4));
#1370=CARTESIAN_POINT('',(3.6,2.8,4.4));
#1371=CARTESIAN_POINT('',(3.6,2.8,6.));
#1372=CARTESIAN_POINT('',(3.6,0.,6.));
#1373=CARTESIAN_POINT('',(3.6,3.6,6.));
#1374=CARTESIAN_POINT('',(3.6,3.6,6.));
#1375=CARTESIAN_POINT('',(3.6,3.6,2.));
#1376=CARTESIAN_POINT('',(3.6,0.,2.));
#1377=CARTESIAN_POINT('',(3.6,2.8,2.));
#1378=CARTESIAN_POINT('',(3.6,2.8,3.6));
#1379=CARTESIAN_POINT('',(3.6,2.8,3.6));
#1380=CARTESIAN_POINT('',(3.6,-3.36102673470506E-15,3.6));
#1381=CARTESIAN_POINT('',(3.6,0.,3.6));
#1382=CARTESIAN_POINT('',(3.6,0.,7.6));
#1383=CARTESIAN_POINT('',(3.6,0.,0.4));
#1384=CARTESIAN_POINT('',(3.6,0.,0.4));
#1385=CARTESIAN_POINT('',(0.,0.,7.6));
#1386=CARTESIAN_POINT('',(0.,0.,7.6));
#1387=CARTESIAN_POINT('',(-2.79999999999997,2.26274169979699,7.6));
#1388=CARTESIAN_POINT('',(-3.6,4.40872847693047E-16,7.6));
#1389=CARTESIAN_POINT('',(-2.79999999999997,3.6,7.6));
#1390=CARTESIAN_POINT('',(-3.59999999999997,0.,7.6));
#1391=CARTESIAN_POINT('',(0.,0.,0.4));
#1392=CARTESIAN_POINT('',(-2.79999999999997,3.6,0.399999999999996));
#1393=CARTESIAN_POINT('',(-2.79999999999997,2.26274169979698,0.399999999999998));
#1394=CARTESIAN_POINT('',(0.,0.,0.4));
#1395=CARTESIAN_POINT('',(-3.6,4.40872847693047E-16,0.4));
#1396=CARTESIAN_POINT('',(-3.59999999999997,0.,0.4));
#1397=CARTESIAN_POINT('',(0.,0.,0.));
#1398=CARTESIAN_POINT('',(-2.79999999999997,2.26274169979698,3.1));
#1399=CARTESIAN_POINT('',(-2.79999999999997,2.26274169979698,3.1));
#1400=CARTESIAN_POINT('',(0.,0.,3.1));
#1401=CARTESIAN_POINT('',(2.60000000000003,2.48997991959771,3.1));
#1402=CARTESIAN_POINT('',(2.60000000000003,2.48997991959771,3.1));
#1403=CARTESIAN_POINT('',(2.60000000000003,2.48997991959771,0.399999999999998));
#1404=CARTESIAN_POINT('',(0.,0.,0.4));
#1405=CARTESIAN_POINT('',(3.46944695195361E-15,-3.36102673470506E-15,3.6));
#1406=CARTESIAN_POINT('',(2.26274169979699,-2.79999999999997,3.6));
#1407=CARTESIAN_POINT('',(2.26274169979699,-2.79999999999997,3.6));
#1408=CARTESIAN_POINT('',(2.26274169979699,-2.79999999999997,2.));
#1409=CARTESIAN_POINT('',(3.30643715532042E-15,0.,2.));
#1410=CARTESIAN_POINT('',(3.08600801163242E-15,-3.6,2.));
#1411=CARTESIAN_POINT('',(3.08600801163239E-15,-3.59999999999997,6.));
#1412=CARTESIAN_POINT('',(3.08600801163239E-15,-3.59999999999997,6.));
#1413=CARTESIAN_POINT('',(3.30643715532042E-15,0.,6.));
#1414=CARTESIAN_POINT('',(2.26274169979699,-2.79999999999997,6.));
#1415=CARTESIAN_POINT('',(2.26274169979699,-2.79999999999997,4.4));
#1416=CARTESIAN_POINT('',(2.26274169979699,-2.79999999999997,4.4));
#1417=CARTESIAN_POINT('',(3.46944695195361E-15,-3.36102673470506E-15,4.4));
#1418=CARTESIAN_POINT('',(2.60000000000003,2.48997991959771,4.9));
#1419=CARTESIAN_POINT('',(2.60000000000003,2.48997991959771,4.9));
#1420=CARTESIAN_POINT('',(0.,0.,4.9));
#1421=CARTESIAN_POINT('',(-2.79999999999997,2.26274169979699,4.9));
#1422=CARTESIAN_POINT('',(-2.79999999999997,2.26274169979699,4.9));
#1423=CARTESIAN_POINT('',(-3.6,4.40872847693047E-16,7.6));
#1424=CARTESIAN_POINT('',(0.,0.,8.));
#1425=CARTESIAN_POINT('',(3.6,0.,8.));
#1426=CARTESIAN_POINT('',(0.,0.,0.));
#1427=CARTESIAN_POINT('',(3.6,0.,0.));
#1428=CARTESIAN_POINT('',(3.46944695195361E-15,-3.36102673470506E-15,4.4));
#1429=CARTESIAN_POINT('',(2.26274169979699,-2.79999999999997,4.4));
#1430=CARTESIAN_POINT('',(21.737258300203,-2.79999999999999,4.4));
#1431=CARTESIAN_POINT('',(24.,0.,4.4));
#1432=CARTESIAN_POINT('',(21.7372583002031,2.8,4.4));
#1433=CARTESIAN_POINT('',(2.26274169979695,2.8,4.4));
#1434=CARTESIAN_POINT('',(3.46944695195361E-15,-3.36102673470506E-15,3.6));
#1435=CARTESIAN_POINT('',(21.7372583002031,2.8,3.6));
#1436=CARTESIAN_POINT('',(21.737258300203,2.8,3.6));
#1437=CARTESIAN_POINT('',(24.,0.,3.6));
#1438=CARTESIAN_POINT('',(21.737258300203,-2.79999999999999,3.6));
#1439=CARTESIAN_POINT('',(2.26274169979699,-2.79999999999997,3.6));
#1440=CARTESIAN_POINT('',(3.30643715532042E-15,0.,2.));
#1441=CARTESIAN_POINT('',(21.7372583002031,2.8,2.));
#1442=CARTESIAN_POINT('',(21.737258300203,2.8,2.));
#1443=CARTESIAN_POINT('',(0.,3.6,2.));
#1444=CARTESIAN_POINT('',(24.,3.60000000000001,2.));
#1445=CARTESIAN_POINT('',(24.,0.,2.));
#1446=CARTESIAN_POINT('',(3.30643715532042E-15,0.,6.));
#1447=CARTESIAN_POINT('',(24.,0.,6.));
#1448=CARTESIAN_POINT('',(21.737258300203,-2.79999999999999,6.));
#1449=CARTESIAN_POINT('',(24.,-3.6,6.));
#1450=CARTESIAN_POINT('',(2.26274169979699,-2.79999999999997,6.));
#1451=CARTESIAN_POINT('',(3.08600801163239E-15,-3.59999999999997,6.));
#1452=CARTESIAN_POINT('',(3.30643715532042E-15,0.,6.));
#1453=CARTESIAN_POINT('',(2.26274169979695,2.8,6.));
#1454=CARTESIAN_POINT('',(21.737258300203,2.8,6.));
#1455=CARTESIAN_POINT('',(24.,0.,6.));
#1456=CARTESIAN_POINT('',(24.,3.60000000000001,6.));
#1457=CARTESIAN_POINT('',(0.,3.6,6.));
#1458=CARTESIAN_POINT('',(3.1,0.,8.));
#1459=CARTESIAN_POINT('',(0.,0.,8.));
#1460=CARTESIAN_POINT('',(3.1,0.,8.));
#1461=CARTESIAN_POINT('',(0.,0.,0.));
#1462=CARTESIAN_POINT('',(0.,0.,7.2));
#1463=CARTESIAN_POINT('',(3.1,0.,7.2));
#1464=CARTESIAN_POINT('',(3.1,0.,7.2));
#1465=CARTESIAN_POINT('',(0.,0.,7.2));
#1466=CARTESIAN_POINT('',(2.4,0.,7.2));
#1467=CARTESIAN_POINT('',(0.,0.,0.));
#1468=CARTESIAN_POINT('',(0.,0.,0.799999999999999));
#1469=CARTESIAN_POINT('',(2.4,0.,0.799999999999999));
#1470=CARTESIAN_POINT('',(2.4,0.,0.799999999999998));
#1471=CARTESIAN_POINT('',(0.,0.,0.799999999999998));
#1472=CARTESIAN_POINT('',(3.1,0.,0.799999999999998));
#1473=CARTESIAN_POINT('',(0.,0.,0.));
#1474=CARTESIAN_POINT('',(0.,0.,0.));
#1475=CARTESIAN_POINT('',(3.1,0.,0.));
#1476=CARTESIAN_POINT('',(3.1,0.,0.));
#1477=CARTESIAN_POINT('',(0.,3.6,6.));
#1478=CARTESIAN_POINT('',(24.,3.60000000000001,6.));
#1479=CARTESIAN_POINT('',(3.08600801163239E-15,-3.59999999999997,6.));
#1480=CARTESIAN_POINT('',(3.08600801163239E-15,-3.59999999999997,2.));
#1481=CARTESIAN_POINT('',(24.,-3.6,2.));
#1482=CARTESIAN_POINT('',(24.,-3.6,6.));
#1483=CARTESIAN_POINT('',(3.30643715532042E-15,0.,2.));
#1484=CARTESIAN_POINT('',(2.26274169979699,-2.79999999999997,2.));
#1485=CARTESIAN_POINT('',(21.737258300203,-2.79999999999999,2.));
#1486=CARTESIAN_POINT('',(24.,0.,2.));
#1487=CARTESIAN_POINT('',(24.,0.,0.));
#1488=CARTESIAN_POINT('',(24.,0.,0.));
#1489=CARTESIAN_POINT('',(27.6,0.,0.));
#1490=CARTESIAN_POINT('',(24.,0.,8.));
#1491=CARTESIAN_POINT('',(27.6,0.,8.));
#1492=CARTESIAN_POINT('',(21.7372583002031,2.8,4.4));
#1493=CARTESIAN_POINT('',(21.737258300203,-2.79999999999999,4.4));
#1494=CARTESIAN_POINT('',(21.737258300203,-2.79999999999999,3.6));
#1495=CARTESIAN_POINT('',(21.737258300203,2.8,3.6));
#1496=CARTESIAN_POINT('',(27.1,0.,8.));
#1497=CARTESIAN_POINT('',(24.,0.,8.));
#1498=CARTESIAN_POINT('',(27.1,0.,8.));
#1499=CARTESIAN_POINT('',(24.,0.,0.));
#1500=CARTESIAN_POINT('',(24.,0.,7.2));
#1501=CARTESIAN_POINT('',(27.1,0.,7.2));
#1502=CARTESIAN_POINT('',(27.1,0.,7.2));
#1503=CARTESIAN_POINT('',(24.,0.,7.2));
#1504=CARTESIAN_POINT('',(26.4,0.,7.2));
#1505=CARTESIAN_POINT('',(24.,0.,0.));
#1506=CARTESIAN_POINT('',(24.,0.,0.799999999999999));
#1507=CARTESIAN_POINT('',(26.4,0.,0.799999999999999));
#1508=CARTESIAN_POINT('',(26.4,0.,0.799999999999998));
#1509=CARTESIAN_POINT('',(24.,0.,0.799999999999998));
#1510=CARTESIAN_POINT('',(27.1,0.,0.799999999999998));
#1511=CARTESIAN_POINT('',(24.,0.,0.));
#1512=CARTESIAN_POINT('',(24.,0.,0.));
#1513=CARTESIAN_POINT('',(27.1,0.,0.));
#1514=CARTESIAN_POINT('',(27.1,0.,0.));
#1515=CARTESIAN_POINT('',(2.26274169979695,2.8,4.4));
#1516=CARTESIAN_POINT('',(2.26274169979699,-2.79999999999997,4.4));
#1517=CARTESIAN_POINT('',(21.7372583002031,2.8,3.6));
#1518=CARTESIAN_POINT('',(2.26274169979699,-2.79999999999997,3.6));
#1519=CARTESIAN_POINT('',(-3.59999999999997,0.,7.6));
#1520=CARTESIAN_POINT('',(0.,0.,0.4));
#1521=CARTESIAN_POINT('',(2.60000000000003,3.6,0.399999999999996));
#1522=CARTESIAN_POINT('',(3.2,8.,4.));
#1523=CARTESIAN_POINT('',(-3.99999999999999,8.,4.));
#1524=CARTESIAN_POINT('',(-3.99999999999999,4.9,4.));
#1525=CARTESIAN_POINT('',(-3.19999999999999,8.,4.));
#1526=CARTESIAN_POINT('',(-3.19999999999999,4.9,4.));
#1527=CARTESIAN_POINT('',(-4.,11.1,4.));
#1528=CARTESIAN_POINT('',(3.2,8.,4.));
#1529=CARTESIAN_POINT('',(-3.19999999999999,8.,4.));
#1530=CARTESIAN_POINT('',(-3.19999999999999,5.59999999999999,4.));
#1531=CARTESIAN_POINT('',(-3.2,11.1,4.));
#1532=CARTESIAN_POINT('',(2.60000000000003,8.,4.));
#1533=CARTESIAN_POINT('',(2.60000000000003,3.6,3.1));
#1534=CARTESIAN_POINT('',(-2.79999999999997,8.,4.));
#1535=CARTESIAN_POINT('',(-2.79999999999997,3.6,3.1));
#1536=CARTESIAN_POINT('',(2.60000000000003,3.6,3.1));
#1537=CARTESIAN_POINT('',(2.60000000000003,8.,4.));
#1538=CARTESIAN_POINT('',(2.60000000000003,3.6,4.9));
#1539=CARTESIAN_POINT('',(2.60000000000003,3.6,4.9));
#1540=CARTESIAN_POINT('',(-2.79999999999997,3.6,4.9));
#1541=CARTESIAN_POINT('',(-2.79999999999997,8.,4.));
#1542=CARTESIAN_POINT('',(4.00000000000001,8.,4.));
#1543=CARTESIAN_POINT('',(4.00000000000001,4.4,4.));
#1544=CARTESIAN_POINT('',(4.00000000000001,4.4,4.));
#1545=CARTESIAN_POINT('',(4.00000000000001,4.4,4.));
#1546=CARTESIAN_POINT('',(4.00000000000001,4.4,4.));
#1547=CARTESIAN_POINT('',(-4.77048955893621E-15,4.39999999999999,-5.30054395437357E-16));
#1548=CARTESIAN_POINT('',(3.99999999999999,41.1,4.));
#1549=MECHANICAL_DESIGN_GEOMETRIC_PRESENTATION_REPRESENTATION('',(#905),
#1550);
#1550=(
GEOMETRIC_REPRESENTATION_CONTEXT(3)
GLOBAL_UNCERTAINTY_ASSIGNED_CONTEXT((#1551))
GLOBAL_UNIT_ASSIGNED_CONTEXT((#1554,#1553,#1552))
REPRESENTATION_CONTEXT('Black_6019986_AVV','TOP_LEVEL_ASSEMBLY_PART')
);
#1551=UNCERTAINTY_MEASURE_WITH_UNIT(LENGTH_MEASURE(0.005),#1554,
'DISTANCE_ACCURACY_VALUE','Maximum Tolerance applied to model');
#1552=(
NAMED_UNIT(*)
SI_UNIT($,.STERADIAN.)
SOLID_ANGLE_UNIT()
);
#1553=(
NAMED_UNIT(*)
PLANE_ANGLE_UNIT()
SI_UNIT($,.RADIAN.)
);
#1554=(
LENGTH_UNIT()
NAMED_UNIT(*)
SI_UNIT(.MILLI.,.METRE.)
);
#1555=PRODUCT_DEFINITION_SHAPE('','',#1556);
#1556=PRODUCT_DEFINITION('','',#1558,#1557);
#1557=PRODUCT_DEFINITION_CONTEXT('',#1564,'design');
#1558=PRODUCT_DEFINITION_FORMATION_WITH_SPECIFIED_SOURCE('','',#1560,
 .NOT_KNOWN.);
#1559=PRODUCT_RELATED_PRODUCT_CATEGORY('','',(#1560));
#1560=PRODUCT('Black_6019986_AVV','Black_6019986_AVV',
'Black_6019986_AVV',(#1562));
#1561=PRODUCT_CATEGORY('','');
#1562=PRODUCT_CONTEXT('',#1564,'mechanical');
#1563=APPLICATION_PROTOCOL_DEFINITION('international standard',
'automotive_design',2010,#1564);
#1564=APPLICATION_CONTEXT(
'core data for automotive mechanical design processes');
ENDSEC;
END-ISO-10303-21;
