ISO-10303-21;
HEADER;
/* Generated by software containing ST-Developer
 * from STEP Tools, Inc. (www.steptools.com) 
 */
/* OPTION: strings as raw bytes, not using required /X/ escapes */

FILE_DESCRIPTION(
/* description */ ('Unknown'),
/* implementation_level */ '2;1');

FILE_NAME(
/* name */ 'Black_4121715_MCM',
/* time_stamp */ '2025-07-21T23:45:24+02:00',
/* author */ ('Unknown'),
/* organization */ ('Unknown'),
/* preprocessor_version */ 'ST-DEVELOPER v19.4',
/* originating_system */ 'Solid Edge',
/* authorisation */ 'Unknown');

FILE_SCHEMA (('AUTOMOTIVE_DESIGN {1 0 10303 214 3 1 1}'));
ENDSEC;

DATA;
#10=PROPERTY_DEFINITION_REPRESENTATION(#14,#12);
#11=PROPERTY_DEFINITION_REPRESENTATION(#15,#13);
#12=REPRESENTATION('',(#16),#1863);
#13=REPRESENTATION('',(#17),#1863);
#14=PROPERTY_DEFINITION('pmi validation property','',#1868);
#15=PROPERTY_DEFINITION('pmi validation property','',#1868);
#16=VALUE_REPRESENTATION_ITEM('number of annotations',COUNT_MEASURE(0.));
#17=VALUE_REPRESENTATION_ITEM('number of views',COUNT_MEASURE(0.));
#18=SHAPE_REPRESENTATION_RELATIONSHIP('','',#1061,#19);
#19=ADVANCED_BREP_SHAPE_REPRESENTATION('',(#1059),#1863);
#20=TOROIDAL_SURFACE('',#1140,2.5,0.1);
#21=TOROIDAL_SURFACE('',#1141,2.5,0.1);
#22=TOROIDAL_SURFACE('',#1142,2.5,0.1);
#23=TOROIDAL_SURFACE('',#1143,2.5,0.1);
#24=TOROIDAL_SURFACE('',#1144,2.5,0.1);
#25=TOROIDAL_SURFACE('',#1145,3.,0.1);
#26=TOROIDAL_SURFACE('',#1146,3.,0.1);
#27=TOROIDAL_SURFACE('',#1147,3.,0.1);
#28=TOROIDAL_SURFACE('',#1148,3.,0.1);
#29=TOROIDAL_SURFACE('',#1149,2.5,0.1);
#30=TOROIDAL_SURFACE('',#1150,2.5,0.1);
#31=TOROIDAL_SURFACE('',#1151,2.5,0.1);
#32=B_SPLINE_CURVE_WITH_KNOTS('',3,(#1444,#1445,#1446,#1447,#1448),
 .UNSPECIFIED.,.F.,.F.,(4,1,4),(4.37055868292169E-19,0.000626703356852405,
0.00125340671370481),.UNSPECIFIED.);
#33=B_SPLINE_CURVE_WITH_KNOTS('',3,(#1452,#1453,#1454,#1455,#1456),
 .UNSPECIFIED.,.F.,.F.,(4,1,4),(8.74111736584338E-19,0.000626703356852404,
0.00125340671370481),.UNSPECIFIED.);
#34=B_SPLINE_CURVE_WITH_KNOTS('',3,(#1460,#1461,#1462,#1463,#1464),
 .UNSPECIFIED.,.F.,.F.,(4,1,4),(4.83929604428754E-18,0.000626703356852407,
0.00125340671370481),.UNSPECIFIED.);
#35=B_SPLINE_CURVE_WITH_KNOTS('',3,(#1468,#1469,#1470,#1471,#1472),
 .UNSPECIFIED.,.F.,.F.,(4,1,4),(0.,0.000626703356852404,0.00125340671370481),
 .UNSPECIFIED.);
#36=B_SPLINE_CURVE_WITH_KNOTS('',3,(#1473,#1474,#1475,#1476,#1477),
 .UNSPECIFIED.,.F.,.F.,(4,1,4),(8.69054152744994E-19,0.000626703356852403,
0.0012534067137048),.UNSPECIFIED.);
#37=B_SPLINE_CURVE_WITH_KNOTS('',3,(#1486,#1487,#1488,#1489,#1490),
 .UNSPECIFIED.,.F.,.F.,(4,1,4),(0.,0.000626703356852403,0.00125340671370481),
 .UNSPECIFIED.);
#38=B_SPLINE_CURVE_WITH_KNOTS('',3,(#1500,#1501,#1502,#1503,#1504),
 .UNSPECIFIED.,.F.,.F.,(4,1,4),(0.,0.000626703356852404,0.00125340671370481),
 .UNSPECIFIED.);
#39=B_SPLINE_CURVE_WITH_KNOTS('',3,(#1512,#1513,#1514,#1515,#1516),
 .UNSPECIFIED.,.F.,.F.,(4,1,4),(8.69054152744994E-19,0.000626703356852404,
0.00125340671370481),.UNSPECIFIED.);
#40=B_SPLINE_CURVE_WITH_KNOTS('',3,(#1566,#1567,#1568,#1569,#1570),
 .UNSPECIFIED.,.F.,.F.,(4,1,4),(0.,0.000626227329652796,0.00125245465930559),
 .UNSPECIFIED.);
#41=B_SPLINE_CURVE_WITH_KNOTS('',3,(#1578,#1579,#1580,#1581,#1582),
 .UNSPECIFIED.,.F.,.F.,(4,1,4),(0.,0.000626227329652796,0.00125245465930559),
 .UNSPECIFIED.);
#42=B_SPLINE_CURVE_WITH_KNOTS('',3,(#1587,#1588,#1589,#1590,#1591),
 .UNSPECIFIED.,.F.,.F.,(4,1,4),(0.,0.000626227329652795,0.00125245465930559),
 .UNSPECIFIED.);
#43=B_SPLINE_CURVE_WITH_KNOTS('',3,(#1596,#1597,#1598,#1599,#1600),
 .UNSPECIFIED.,.F.,.F.,(4,1,4),(0.,0.000626227329652796,0.00125245465930559),
 .UNSPECIFIED.);
#44=B_SPLINE_CURVE_WITH_KNOTS('',3,(#1675,#1676,#1677,#1678,#1679),
 .UNSPECIFIED.,.F.,.F.,(4,1,4),(0.,0.000626227329652796,0.00125245465930559),
 .UNSPECIFIED.);
#45=B_SPLINE_CURVE_WITH_KNOTS('',3,(#1687,#1688,#1689,#1690,#1691),
 .UNSPECIFIED.,.F.,.F.,(4,1,4),(0.,0.000626227329652796,0.00125245465930559),
 .UNSPECIFIED.);
#46=B_SPLINE_CURVE_WITH_KNOTS('',3,(#1694,#1695,#1696,#1697,#1698),
 .UNSPECIFIED.,.F.,.F.,(4,1,4),(5.42101086242752E-20,0.000626227329652794,
0.00125245465930559),.UNSPECIFIED.);
#47=B_SPLINE_CURVE_WITH_KNOTS('',3,(#1704,#1705,#1706,#1707,#1708),
 .UNSPECIFIED.,.F.,.F.,(4,1,4),(0.,0.000626227329652794,0.00125245465930559),
 .UNSPECIFIED.);
#48=B_SPLINE_CURVE_WITH_KNOTS('',3,(#1719,#1720,#1721,#1722),
 .UNSPECIFIED.,.F.,.F.,(4,4),(0.,0.000157202770432761),.UNSPECIFIED.);
#49=B_SPLINE_CURVE_WITH_KNOTS('',3,(#1724,#1725,#1726,#1727),
 .UNSPECIFIED.,.F.,.F.,(4,4),(2.32454563987457E-17,0.000157204075759016),
 .UNSPECIFIED.);
#50=B_SPLINE_CURVE_WITH_KNOTS('',3,(#1731,#1732,#1733,#1734),
 .UNSPECIFIED.,.F.,.F.,(4,4),(0.,0.00015720407575902),.UNSPECIFIED.);
#51=B_SPLINE_CURVE_WITH_KNOTS('',3,(#1735,#1736,#1737,#1738),
 .UNSPECIFIED.,.F.,.F.,(4,4),(0.,0.000157202770432735),.UNSPECIFIED.);
#52=B_SPLINE_CURVE_WITH_KNOTS('',3,(#1740,#1741,#1742,#1743),
 .UNSPECIFIED.,.F.,.F.,(4,4),(0.,0.000157202770432759),.UNSPECIFIED.);
#53=B_SPLINE_CURVE_WITH_KNOTS('',3,(#1745,#1746,#1747,#1748),
 .UNSPECIFIED.,.F.,.F.,(4,4),(3.20835922728123E-17,0.000157204075759016),
 .UNSPECIFIED.);
#54=B_SPLINE_CURVE_WITH_KNOTS('',3,(#1752,#1753,#1754,#1755),
 .UNSPECIFIED.,.F.,.F.,(4,4),(0.,0.000157204075759021),.UNSPECIFIED.);
#55=B_SPLINE_CURVE_WITH_KNOTS('',3,(#1756,#1757,#1758,#1759),
 .UNSPECIFIED.,.F.,.F.,(4,4),(0.,0.000157202770432792),.UNSPECIFIED.);
#56=B_SPLINE_CURVE_WITH_KNOTS('',3,(#1764,#1765,#1766,#1767),
 .UNSPECIFIED.,.F.,.F.,(4,4),(0.,0.000157202770432793),.UNSPECIFIED.);
#57=B_SPLINE_CURVE_WITH_KNOTS('',3,(#1768,#1769,#1770,#1771),
 .UNSPECIFIED.,.F.,.F.,(4,4),(0.,0.000157204075759021),.UNSPECIFIED.);
#58=B_SPLINE_CURVE_WITH_KNOTS('',3,(#1773,#1774,#1775,#1776),
 .UNSPECIFIED.,.F.,.F.,(4,4),(3.1228034095059E-17,0.000157204075759017),
 .UNSPECIFIED.);
#59=B_SPLINE_CURVE_WITH_KNOTS('',3,(#1777,#1778,#1779,#1780),
 .UNSPECIFIED.,.F.,.F.,(4,4),(0.,0.000157202770432761),.UNSPECIFIED.);
#60=B_SPLINE_CURVE_WITH_KNOTS('',3,(#1782,#1783,#1784,#1785),
 .UNSPECIFIED.,.F.,.F.,(4,4),(0.,0.000157202770432737),.UNSPECIFIED.);
#61=B_SPLINE_CURVE_WITH_KNOTS('',3,(#1787,#1788,#1789,#1790),
 .UNSPECIFIED.,.F.,.F.,(4,4),(0.,0.000157204075759021),.UNSPECIFIED.);
#62=B_SPLINE_CURVE_WITH_KNOTS('',3,(#1792,#1793,#1794,#1795),
 .UNSPECIFIED.,.F.,.F.,(4,4),(2.2816724964205E-17,0.000157204075759016),
 .UNSPECIFIED.);
#63=B_SPLINE_CURVE_WITH_KNOTS('',3,(#1796,#1797,#1798,#1799),
 .UNSPECIFIED.,.F.,.F.,(4,4),(0.,0.000157202770432762),.UNSPECIFIED.);
#64=B_SPLINE_CURVE_WITH_KNOTS('',3,(#1803,#1804,#1805,#1806),
 .UNSPECIFIED.,.F.,.F.,(4,4),(0.,0.000156901574945496),.UNSPECIFIED.);
#65=B_SPLINE_CURVE_WITH_KNOTS('',3,(#1807,#1808,#1809,#1810),
 .UNSPECIFIED.,.F.,.F.,(4,4),(0.,0.000156900617326206),.UNSPECIFIED.);
#66=B_SPLINE_CURVE_WITH_KNOTS('',3,(#1814,#1815,#1816,#1817),
 .UNSPECIFIED.,.F.,.F.,(4,4),(0.,0.000156900617326205),.UNSPECIFIED.);
#67=B_SPLINE_CURVE_WITH_KNOTS('',3,(#1820,#1821,#1822,#1823),
 .UNSPECIFIED.,.F.,.F.,(4,4),(0.,0.000156901574945496),.UNSPECIFIED.);
#68=B_SPLINE_CURVE_WITH_KNOTS('',3,(#1833,#1834,#1835,#1836),
 .UNSPECIFIED.,.F.,.F.,(4,4),(0.,0.000156900617326206),.UNSPECIFIED.);
#69=B_SPLINE_CURVE_WITH_KNOTS('',3,(#1837,#1838,#1839,#1840),
 .UNSPECIFIED.,.F.,.F.,(4,4),(0.,0.000156901574945496),.UNSPECIFIED.);
#70=B_SPLINE_CURVE_WITH_KNOTS('',3,(#1842,#1843,#1844,#1845),
 .UNSPECIFIED.,.F.,.F.,(4,4),(0.,0.000156901574945496),.UNSPECIFIED.);
#71=B_SPLINE_CURVE_WITH_KNOTS('',3,(#1846,#1847,#1848,#1849),
 .UNSPECIFIED.,.F.,.F.,(4,4),(0.,0.000156900617326205),.UNSPECIFIED.);
#72=CYLINDRICAL_SURFACE('',#1066,3.1);
#73=CYLINDRICAL_SURFACE('',#1072,2.);
#74=CYLINDRICAL_SURFACE('',#1079,2.6);
#75=CYLINDRICAL_SURFACE('',#1082,2.6);
#76=CYLINDRICAL_SURFACE('',#1091,2.4);
#77=CYLINDRICAL_SURFACE('',#1095,2.6);
#78=CYLINDRICAL_SURFACE('',#1105,3.1);
#79=CYLINDRICAL_SURFACE('',#1110,2.6);
#80=CYLINDRICAL_SURFACE('',#1116,2.4);
#81=CYLINDRICAL_SURFACE('',#1121,0.399999999999998);
#82=CYLINDRICAL_SURFACE('',#1124,0.399999999999998);
#83=CYLINDRICAL_SURFACE('',#1126,0.399999999999999);
#84=CYLINDRICAL_SURFACE('',#1131,0.399999999999999);
#85=CYLINDRICAL_SURFACE('',#1134,0.4);
#86=CYLINDRICAL_SURFACE('',#1135,0.4);
#87=CYLINDRICAL_SURFACE('',#1136,0.4);
#88=CYLINDRICAL_SURFACE('',#1137,0.4);
#89=CIRCLE('',#1064,3.);
#90=CIRCLE('',#1065,2.4);
#91=CIRCLE('',#1067,3.1);
#92=CIRCLE('',#1068,3.1);
#93=CIRCLE('',#1070,3.);
#94=CIRCLE('',#1071,2.4);
#95=CIRCLE('',#1073,2.);
#96=CIRCLE('',#1074,2.);
#97=CIRCLE('',#1075,2.);
#98=CIRCLE('',#1076,2.);
#99=CIRCLE('',#1078,2.5);
#100=CIRCLE('',#1080,2.6);
#101=CIRCLE('',#1081,2.6);
#102=CIRCLE('',#1083,2.6);
#103=CIRCLE('',#1084,2.6);
#104=CIRCLE('',#1086,2.5);
#105=CIRCLE('',#1087,2.4);
#106=CIRCLE('',#1089,2.5);
#107=CIRCLE('',#1090,2.4);
#108=CIRCLE('',#1092,2.4);
#109=CIRCLE('',#1094,2.5);
#110=CIRCLE('',#1096,2.6);
#111=CIRCLE('',#1097,2.6);
#112=CIRCLE('',#1099,2.5);
#113=CIRCLE('',#1100,2.4);
#114=CIRCLE('',#1102,2.5);
#115=CIRCLE('',#1104,3.);
#116=CIRCLE('',#1106,3.1);
#117=CIRCLE('',#1107,3.1);
#118=CIRCLE('',#1109,2.5);
#119=CIRCLE('',#1111,2.6);
#120=CIRCLE('',#1112,2.6);
#121=CIRCLE('',#1114,2.5);
#122=CIRCLE('',#1115,2.4);
#123=CIRCLE('',#1117,2.4);
#124=CIRCLE('',#1119,3.);
#125=ORIENTED_EDGE('',*,*,#437,.T.);
#126=ORIENTED_EDGE('',*,*,#438,.T.);
#127=ORIENTED_EDGE('',*,*,#439,.T.);
#128=ORIENTED_EDGE('',*,*,#440,.T.);
#129=ORIENTED_EDGE('',*,*,#441,.T.);
#130=ORIENTED_EDGE('',*,*,#442,.T.);
#131=ORIENTED_EDGE('',*,*,#443,.T.);
#132=ORIENTED_EDGE('',*,*,#444,.T.);
#133=ORIENTED_EDGE('',*,*,#445,.T.);
#134=ORIENTED_EDGE('',*,*,#446,.T.);
#135=ORIENTED_EDGE('',*,*,#447,.T.);
#136=ORIENTED_EDGE('',*,*,#448,.F.);
#137=ORIENTED_EDGE('',*,*,#449,.T.);
#138=ORIENTED_EDGE('',*,*,#450,.T.);
#139=ORIENTED_EDGE('',*,*,#451,.T.);
#140=ORIENTED_EDGE('',*,*,#452,.T.);
#141=ORIENTED_EDGE('',*,*,#453,.T.);
#142=ORIENTED_EDGE('',*,*,#454,.T.);
#143=ORIENTED_EDGE('',*,*,#455,.T.);
#144=ORIENTED_EDGE('',*,*,#456,.T.);
#145=ORIENTED_EDGE('',*,*,#457,.T.);
#146=ORIENTED_EDGE('',*,*,#458,.T.);
#147=ORIENTED_EDGE('',*,*,#459,.T.);
#148=ORIENTED_EDGE('',*,*,#460,.T.);
#149=ORIENTED_EDGE('',*,*,#461,.T.);
#150=ORIENTED_EDGE('',*,*,#462,.T.);
#151=ORIENTED_EDGE('',*,*,#463,.T.);
#152=ORIENTED_EDGE('',*,*,#464,.T.);
#153=ORIENTED_EDGE('',*,*,#465,.F.);
#154=ORIENTED_EDGE('',*,*,#466,.F.);
#155=ORIENTED_EDGE('',*,*,#467,.F.);
#156=ORIENTED_EDGE('',*,*,#468,.F.);
#157=ORIENTED_EDGE('',*,*,#469,.F.);
#158=ORIENTED_EDGE('',*,*,#470,.F.);
#159=ORIENTED_EDGE('',*,*,#471,.F.);
#160=ORIENTED_EDGE('',*,*,#472,.F.);
#161=ORIENTED_EDGE('',*,*,#473,.F.);
#162=ORIENTED_EDGE('',*,*,#474,.T.);
#163=ORIENTED_EDGE('',*,*,#475,.F.);
#164=ORIENTED_EDGE('',*,*,#472,.T.);
#165=ORIENTED_EDGE('',*,*,#476,.F.);
#166=ORIENTED_EDGE('',*,*,#477,.T.);
#167=ORIENTED_EDGE('',*,*,#478,.F.);
#168=ORIENTED_EDGE('',*,*,#479,.T.);
#169=ORIENTED_EDGE('',*,*,#480,.F.);
#170=ORIENTED_EDGE('',*,*,#481,.T.);
#171=ORIENTED_EDGE('',*,*,#482,.F.);
#172=ORIENTED_EDGE('',*,*,#483,.T.);
#173=ORIENTED_EDGE('',*,*,#484,.F.);
#174=ORIENTED_EDGE('',*,*,#485,.T.);
#175=ORIENTED_EDGE('',*,*,#486,.F.);
#176=ORIENTED_EDGE('',*,*,#487,.F.);
#177=ORIENTED_EDGE('',*,*,#488,.F.);
#178=ORIENTED_EDGE('',*,*,#489,.T.);
#179=ORIENTED_EDGE('',*,*,#490,.F.);
#180=ORIENTED_EDGE('',*,*,#491,.F.);
#181=ORIENTED_EDGE('',*,*,#440,.F.);
#182=ORIENTED_EDGE('',*,*,#492,.T.);
#183=ORIENTED_EDGE('',*,*,#493,.T.);
#184=ORIENTED_EDGE('',*,*,#494,.T.);
#185=ORIENTED_EDGE('',*,*,#495,.F.);
#186=ORIENTED_EDGE('',*,*,#496,.T.);
#187=ORIENTED_EDGE('',*,*,#497,.T.);
#188=ORIENTED_EDGE('',*,*,#498,.T.);
#189=ORIENTED_EDGE('',*,*,#499,.F.);
#190=ORIENTED_EDGE('',*,*,#500,.F.);
#191=ORIENTED_EDGE('',*,*,#501,.F.);
#192=ORIENTED_EDGE('',*,*,#491,.T.);
#193=ORIENTED_EDGE('',*,*,#502,.F.);
#194=ORIENTED_EDGE('',*,*,#503,.F.);
#195=ORIENTED_EDGE('',*,*,#504,.F.);
#196=ORIENTED_EDGE('',*,*,#487,.T.);
#197=ORIENTED_EDGE('',*,*,#505,.F.);
#198=ORIENTED_EDGE('',*,*,#506,.T.);
#199=ORIENTED_EDGE('',*,*,#507,.F.);
#200=ORIENTED_EDGE('',*,*,#459,.F.);
#201=ORIENTED_EDGE('',*,*,#508,.T.);
#202=ORIENTED_EDGE('',*,*,#509,.T.);
#203=ORIENTED_EDGE('',*,*,#510,.T.);
#204=ORIENTED_EDGE('',*,*,#511,.T.);
#205=ORIENTED_EDGE('',*,*,#512,.T.);
#206=ORIENTED_EDGE('',*,*,#513,.T.);
#207=ORIENTED_EDGE('',*,*,#514,.T.);
#208=ORIENTED_EDGE('',*,*,#515,.T.);
#209=ORIENTED_EDGE('',*,*,#516,.T.);
#210=ORIENTED_EDGE('',*,*,#517,.T.);
#211=ORIENTED_EDGE('',*,*,#518,.T.);
#212=ORIENTED_EDGE('',*,*,#468,.T.);
#213=ORIENTED_EDGE('',*,*,#519,.T.);
#214=ORIENTED_EDGE('',*,*,#520,.T.);
#215=ORIENTED_EDGE('',*,*,#521,.T.);
#216=ORIENTED_EDGE('',*,*,#495,.T.);
#217=ORIENTED_EDGE('',*,*,#522,.T.);
#218=ORIENTED_EDGE('',*,*,#523,.T.);
#219=ORIENTED_EDGE('',*,*,#524,.T.);
#220=ORIENTED_EDGE('',*,*,#525,.T.);
#221=ORIENTED_EDGE('',*,*,#526,.T.);
#222=ORIENTED_EDGE('',*,*,#527,.T.);
#223=ORIENTED_EDGE('',*,*,#528,.T.);
#224=ORIENTED_EDGE('',*,*,#463,.F.);
#225=ORIENTED_EDGE('',*,*,#529,.T.);
#226=ORIENTED_EDGE('',*,*,#530,.T.);
#227=ORIENTED_EDGE('',*,*,#531,.T.);
#228=ORIENTED_EDGE('',*,*,#532,.T.);
#229=ORIENTED_EDGE('',*,*,#533,.T.);
#230=ORIENTED_EDGE('',*,*,#534,.T.);
#231=ORIENTED_EDGE('',*,*,#535,.T.);
#232=ORIENTED_EDGE('',*,*,#536,.T.);
#233=ORIENTED_EDGE('',*,*,#448,.T.);
#234=ORIENTED_EDGE('',*,*,#537,.T.);
#235=ORIENTED_EDGE('',*,*,#538,.T.);
#236=ORIENTED_EDGE('',*,*,#539,.T.);
#237=ORIENTED_EDGE('',*,*,#540,.T.);
#238=ORIENTED_EDGE('',*,*,#541,.T.);
#239=ORIENTED_EDGE('',*,*,#542,.T.);
#240=ORIENTED_EDGE('',*,*,#543,.T.);
#241=ORIENTED_EDGE('',*,*,#544,.T.);
#242=ORIENTED_EDGE('',*,*,#545,.T.);
#243=ORIENTED_EDGE('',*,*,#515,.F.);
#244=ORIENTED_EDGE('',*,*,#546,.T.);
#245=ORIENTED_EDGE('',*,*,#547,.T.);
#246=ORIENTED_EDGE('',*,*,#548,.T.);
#247=ORIENTED_EDGE('',*,*,#536,.F.);
#248=ORIENTED_EDGE('',*,*,#549,.T.);
#249=ORIENTED_EDGE('',*,*,#550,.T.);
#250=ORIENTED_EDGE('',*,*,#551,.T.);
#251=ORIENTED_EDGE('',*,*,#552,.T.);
#252=ORIENTED_EDGE('',*,*,#540,.F.);
#253=ORIENTED_EDGE('',*,*,#531,.F.);
#254=ORIENTED_EDGE('',*,*,#553,.T.);
#255=ORIENTED_EDGE('',*,*,#533,.F.);
#256=ORIENTED_EDGE('',*,*,#548,.F.);
#257=ORIENTED_EDGE('',*,*,#554,.T.);
#258=ORIENTED_EDGE('',*,*,#464,.F.);
#259=ORIENTED_EDGE('',*,*,#528,.F.);
#260=ORIENTED_EDGE('',*,*,#555,.T.);
#261=ORIENTED_EDGE('',*,*,#554,.F.);
#262=ORIENTED_EDGE('',*,*,#547,.F.);
#263=ORIENTED_EDGE('',*,*,#556,.T.);
#264=ORIENTED_EDGE('',*,*,#457,.F.);
#265=ORIENTED_EDGE('',*,*,#514,.F.);
#266=ORIENTED_EDGE('',*,*,#557,.T.);
#267=ORIENTED_EDGE('',*,*,#508,.F.);
#268=ORIENTED_EDGE('',*,*,#558,.T.);
#269=ORIENTED_EDGE('',*,*,#505,.T.);
#270=ORIENTED_EDGE('',*,*,#458,.F.);
#271=ORIENTED_EDGE('',*,*,#556,.F.);
#272=ORIENTED_EDGE('',*,*,#546,.F.);
#273=ORIENTED_EDGE('',*,*,#510,.F.);
#274=ORIENTED_EDGE('',*,*,#559,.T.);
#275=ORIENTED_EDGE('',*,*,#512,.F.);
#276=ORIENTED_EDGE('',*,*,#545,.F.);
#277=ORIENTED_EDGE('',*,*,#560,.F.);
#278=ORIENTED_EDGE('',*,*,#460,.F.);
#279=ORIENTED_EDGE('',*,*,#507,.T.);
#280=ORIENTED_EDGE('',*,*,#561,.T.);
#281=ORIENTED_EDGE('',*,*,#560,.T.);
#282=ORIENTED_EDGE('',*,*,#544,.F.);
#283=ORIENTED_EDGE('',*,*,#562,.F.);
#284=ORIENTED_EDGE('',*,*,#461,.F.);
#285=ORIENTED_EDGE('',*,*,#535,.F.);
#286=ORIENTED_EDGE('',*,*,#563,.T.);
#287=ORIENTED_EDGE('',*,*,#529,.F.);
#288=ORIENTED_EDGE('',*,*,#564,.T.);
#289=ORIENTED_EDGE('',*,*,#526,.F.);
#290=ORIENTED_EDGE('',*,*,#462,.F.);
#291=ORIENTED_EDGE('',*,*,#562,.T.);
#292=ORIENTED_EDGE('',*,*,#549,.F.);
#293=ORIENTED_EDGE('',*,*,#466,.T.);
#294=ORIENTED_EDGE('',*,*,#565,.T.);
#295=ORIENTED_EDGE('',*,*,#503,.T.);
#296=ORIENTED_EDGE('',*,*,#566,.F.);
#297=ORIENTED_EDGE('',*,*,#482,.T.);
#298=ORIENTED_EDGE('',*,*,#567,.T.);
#299=ORIENTED_EDGE('',*,*,#516,.F.);
#300=ORIENTED_EDGE('',*,*,#467,.T.);
#301=ORIENTED_EDGE('',*,*,#566,.T.);
#302=ORIENTED_EDGE('',*,*,#502,.T.);
#303=ORIENTED_EDGE('',*,*,#490,.T.);
#304=ORIENTED_EDGE('',*,*,#568,.T.);
#305=ORIENTED_EDGE('',*,*,#475,.T.);
#306=ORIENTED_EDGE('',*,*,#569,.T.);
#307=ORIENTED_EDGE('',*,*,#476,.T.);
#308=ORIENTED_EDGE('',*,*,#570,.T.);
#309=ORIENTED_EDGE('',*,*,#484,.T.);
#310=ORIENTED_EDGE('',*,*,#504,.T.);
#311=ORIENTED_EDGE('',*,*,#565,.F.);
#312=ORIENTED_EDGE('',*,*,#465,.T.);
#313=ORIENTED_EDGE('',*,*,#478,.T.);
#314=ORIENTED_EDGE('',*,*,#571,.T.);
#315=ORIENTED_EDGE('',*,*,#473,.T.);
#316=ORIENTED_EDGE('',*,*,#471,.T.);
#317=ORIENTED_EDGE('',*,*,#572,.F.);
#318=ORIENTED_EDGE('',*,*,#499,.T.);
#319=ORIENTED_EDGE('',*,*,#486,.T.);
#320=ORIENTED_EDGE('',*,*,#573,.T.);
#321=ORIENTED_EDGE('',*,*,#518,.F.);
#322=ORIENTED_EDGE('',*,*,#574,.T.);
#323=ORIENTED_EDGE('',*,*,#480,.T.);
#324=ORIENTED_EDGE('',*,*,#575,.T.);
#325=ORIENTED_EDGE('',*,*,#488,.T.);
#326=ORIENTED_EDGE('',*,*,#501,.T.);
#327=ORIENTED_EDGE('',*,*,#576,.T.);
#328=ORIENTED_EDGE('',*,*,#469,.T.);
#329=ORIENTED_EDGE('',*,*,#470,.T.);
#330=ORIENTED_EDGE('',*,*,#576,.F.);
#331=ORIENTED_EDGE('',*,*,#500,.T.);
#332=ORIENTED_EDGE('',*,*,#572,.T.);
#333=ORIENTED_EDGE('',*,*,#447,.F.);
#334=ORIENTED_EDGE('',*,*,#577,.T.);
#335=ORIENTED_EDGE('',*,*,#441,.F.);
#336=ORIENTED_EDGE('',*,*,#578,.T.);
#337=ORIENTED_EDGE('',*,*,#437,.F.);
#338=ORIENTED_EDGE('',*,*,#498,.F.);
#339=ORIENTED_EDGE('',*,*,#579,.F.);
#340=ORIENTED_EDGE('',*,*,#455,.F.);
#341=ORIENTED_EDGE('',*,*,#580,.T.);
#342=ORIENTED_EDGE('',*,*,#537,.F.);
#343=ORIENTED_EDGE('',*,*,#524,.F.);
#344=ORIENTED_EDGE('',*,*,#581,.T.);
#345=ORIENTED_EDGE('',*,*,#550,.F.);
#346=ORIENTED_EDGE('',*,*,#539,.F.);
#347=ORIENTED_EDGE('',*,*,#582,.F.);
#348=ORIENTED_EDGE('',*,*,#453,.F.);
#349=ORIENTED_EDGE('',*,*,#583,.T.);
#350=ORIENTED_EDGE('',*,*,#496,.F.);
#351=ORIENTED_EDGE('',*,*,#521,.F.);
#352=ORIENTED_EDGE('',*,*,#584,.T.);
#353=ORIENTED_EDGE('',*,*,#582,.T.);
#354=ORIENTED_EDGE('',*,*,#538,.F.);
#355=ORIENTED_EDGE('',*,*,#580,.F.);
#356=ORIENTED_EDGE('',*,*,#454,.F.);
#357=ORIENTED_EDGE('',*,*,#579,.T.);
#358=ORIENTED_EDGE('',*,*,#497,.F.);
#359=ORIENTED_EDGE('',*,*,#583,.F.);
#360=ORIENTED_EDGE('',*,*,#456,.F.);
#361=ORIENTED_EDGE('',*,*,#585,.F.);
#362=ORIENTED_EDGE('',*,*,#493,.F.);
#363=ORIENTED_EDGE('',*,*,#586,.T.);
#364=ORIENTED_EDGE('',*,*,#452,.F.);
#365=ORIENTED_EDGE('',*,*,#587,.F.);
#366=ORIENTED_EDGE('',*,*,#542,.F.);
#367=ORIENTED_EDGE('',*,*,#588,.T.);
#368=ORIENTED_EDGE('',*,*,#450,.F.);
#369=ORIENTED_EDGE('',*,*,#443,.F.);
#370=ORIENTED_EDGE('',*,*,#589,.T.);
#371=ORIENTED_EDGE('',*,*,#445,.F.);
#372=ORIENTED_EDGE('',*,*,#543,.F.);
#373=ORIENTED_EDGE('',*,*,#587,.T.);
#374=ORIENTED_EDGE('',*,*,#449,.F.);
#375=ORIENTED_EDGE('',*,*,#586,.F.);
#376=ORIENTED_EDGE('',*,*,#492,.F.);
#377=ORIENTED_EDGE('',*,*,#439,.F.);
#378=ORIENTED_EDGE('',*,*,#590,.T.);
#379=ORIENTED_EDGE('',*,*,#552,.F.);
#380=ORIENTED_EDGE('',*,*,#591,.T.);
#381=ORIENTED_EDGE('',*,*,#522,.F.);
#382=ORIENTED_EDGE('',*,*,#592,.T.);
#383=ORIENTED_EDGE('',*,*,#519,.F.);
#384=ORIENTED_EDGE('',*,*,#494,.F.);
#385=ORIENTED_EDGE('',*,*,#585,.T.);
#386=ORIENTED_EDGE('',*,*,#451,.F.);
#387=ORIENTED_EDGE('',*,*,#588,.F.);
#388=ORIENTED_EDGE('',*,*,#541,.F.);
#389=ORIENTED_EDGE('',*,*,#570,.F.);
#390=ORIENTED_EDGE('',*,*,#479,.F.);
#391=ORIENTED_EDGE('',*,*,#573,.F.);
#392=ORIENTED_EDGE('',*,*,#485,.F.);
#393=ORIENTED_EDGE('',*,*,#564,.F.);
#394=ORIENTED_EDGE('',*,*,#532,.F.);
#395=ORIENTED_EDGE('',*,*,#555,.F.);
#396=ORIENTED_EDGE('',*,*,#527,.F.);
#397=ORIENTED_EDGE('',*,*,#558,.F.);
#398=ORIENTED_EDGE('',*,*,#511,.F.);
#399=ORIENTED_EDGE('',*,*,#561,.F.);
#400=ORIENTED_EDGE('',*,*,#506,.F.);
#401=ORIENTED_EDGE('',*,*,#557,.F.);
#402=ORIENTED_EDGE('',*,*,#513,.F.);
#403=ORIENTED_EDGE('',*,*,#559,.F.);
#404=ORIENTED_EDGE('',*,*,#509,.F.);
#405=ORIENTED_EDGE('',*,*,#563,.F.);
#406=ORIENTED_EDGE('',*,*,#534,.F.);
#407=ORIENTED_EDGE('',*,*,#553,.F.);
#408=ORIENTED_EDGE('',*,*,#530,.F.);
#409=ORIENTED_EDGE('',*,*,#590,.F.);
#410=ORIENTED_EDGE('',*,*,#438,.F.);
#411=ORIENTED_EDGE('',*,*,#578,.F.);
#412=ORIENTED_EDGE('',*,*,#444,.F.);
#413=ORIENTED_EDGE('',*,*,#589,.F.);
#414=ORIENTED_EDGE('',*,*,#442,.F.);
#415=ORIENTED_EDGE('',*,*,#577,.F.);
#416=ORIENTED_EDGE('',*,*,#446,.F.);
#417=ORIENTED_EDGE('',*,*,#584,.F.);
#418=ORIENTED_EDGE('',*,*,#520,.F.);
#419=ORIENTED_EDGE('',*,*,#592,.F.);
#420=ORIENTED_EDGE('',*,*,#525,.F.);
#421=ORIENTED_EDGE('',*,*,#581,.F.);
#422=ORIENTED_EDGE('',*,*,#523,.F.);
#423=ORIENTED_EDGE('',*,*,#591,.F.);
#424=ORIENTED_EDGE('',*,*,#551,.F.);
#425=ORIENTED_EDGE('',*,*,#575,.F.);
#426=ORIENTED_EDGE('',*,*,#483,.F.);
#427=ORIENTED_EDGE('',*,*,#568,.F.);
#428=ORIENTED_EDGE('',*,*,#489,.F.);
#429=ORIENTED_EDGE('',*,*,#574,.F.);
#430=ORIENTED_EDGE('',*,*,#517,.F.);
#431=ORIENTED_EDGE('',*,*,#567,.F.);
#432=ORIENTED_EDGE('',*,*,#481,.F.);
#433=ORIENTED_EDGE('',*,*,#569,.F.);
#434=ORIENTED_EDGE('',*,*,#474,.F.);
#435=ORIENTED_EDGE('',*,*,#571,.F.);
#436=ORIENTED_EDGE('',*,*,#477,.F.);
#437=EDGE_CURVE('',#593,#594,#697,.T.);
#438=EDGE_CURVE('',#594,#595,#89,.F.);
#439=EDGE_CURVE('',#595,#596,#698,.T.);
#440=EDGE_CURVE('',#596,#593,#90,.T.);
#441=EDGE_CURVE('',#597,#598,#699,.T.);
#442=EDGE_CURVE('',#598,#599,#91,.T.);
#443=EDGE_CURVE('',#599,#600,#700,.F.);
#444=EDGE_CURVE('',#600,#597,#92,.T.);
#445=EDGE_CURVE('',#601,#602,#701,.T.);
#446=EDGE_CURVE('',#602,#603,#93,.F.);
#447=EDGE_CURVE('',#603,#604,#702,.T.);
#448=EDGE_CURVE('',#601,#604,#94,.T.);
#449=EDGE_CURVE('',#605,#606,#703,.T.);
#450=EDGE_CURVE('',#606,#607,#32,.T.);
#451=EDGE_CURVE('',#607,#608,#704,.F.);
#452=EDGE_CURVE('',#608,#605,#33,.T.);
#453=EDGE_CURVE('',#609,#610,#705,.T.);
#454=EDGE_CURVE('',#610,#611,#34,.T.);
#455=EDGE_CURVE('',#611,#612,#706,.F.);
#456=EDGE_CURVE('',#612,#609,#35,.T.);
#457=EDGE_CURVE('',#613,#614,#36,.T.);
#458=EDGE_CURVE('',#614,#615,#707,.T.);
#459=EDGE_CURVE('',#615,#616,#95,.T.);
#460=EDGE_CURVE('',#616,#617,#708,.F.);
#461=EDGE_CURVE('',#617,#618,#37,.T.);
#462=EDGE_CURVE('',#618,#619,#709,.T.);
#463=EDGE_CURVE('',#619,#620,#96,.T.);
#464=EDGE_CURVE('',#620,#613,#710,.F.);
#465=EDGE_CURVE('',#621,#622,#711,.F.);
#466=EDGE_CURVE('',#623,#621,#38,.T.);
#467=EDGE_CURVE('',#624,#623,#712,.T.);
#468=EDGE_CURVE('',#625,#624,#97,.T.);
#469=EDGE_CURVE('',#626,#625,#713,.F.);
#470=EDGE_CURVE('',#627,#626,#39,.T.);
#471=EDGE_CURVE('',#628,#627,#714,.T.);
#472=EDGE_CURVE('',#622,#628,#98,.T.);
#473=EDGE_CURVE('',#629,#628,#715,.T.);
#474=EDGE_CURVE('',#629,#630,#99,.F.);
#475=EDGE_CURVE('',#622,#630,#716,.T.);
#476=EDGE_CURVE('',#631,#632,#717,.T.);
#477=EDGE_CURVE('',#631,#633,#100,.T.);
#478=EDGE_CURVE('',#634,#633,#718,.F.);
#479=EDGE_CURVE('',#634,#632,#101,.T.);
#480=EDGE_CURVE('',#635,#636,#719,.T.);
#481=EDGE_CURVE('',#635,#637,#102,.T.);
#482=EDGE_CURVE('',#638,#637,#720,.F.);
#483=EDGE_CURVE('',#638,#636,#103,.T.);
#484=EDGE_CURVE('',#639,#640,#721,.T.);
#485=EDGE_CURVE('',#639,#641,#104,.F.);
#486=EDGE_CURVE('',#642,#641,#722,.T.);
#487=EDGE_CURVE('',#640,#642,#105,.T.);
#488=EDGE_CURVE('',#643,#644,#723,.T.);
#489=EDGE_CURVE('',#643,#645,#106,.F.);
#490=EDGE_CURVE('',#646,#645,#724,.T.);
#491=EDGE_CURVE('',#644,#646,#107,.T.);
#492=EDGE_CURVE('',#596,#647,#725,.F.);
#493=EDGE_CURVE('',#647,#648,#40,.T.);
#494=EDGE_CURVE('',#648,#649,#726,.T.);
#495=EDGE_CURVE('',#650,#649,#108,.T.);
#496=EDGE_CURVE('',#650,#651,#727,.F.);
#497=EDGE_CURVE('',#651,#652,#41,.T.);
#498=EDGE_CURVE('',#652,#593,#728,.T.);
#499=EDGE_CURVE('',#653,#642,#729,.F.);
#500=EDGE_CURVE('',#654,#653,#42,.T.);
#501=EDGE_CURVE('',#644,#654,#730,.T.);
#502=EDGE_CURVE('',#655,#646,#731,.F.);
#503=EDGE_CURVE('',#656,#655,#43,.T.);
#504=EDGE_CURVE('',#640,#656,#732,.T.);
#505=EDGE_CURVE('',#657,#615,#733,.T.);
#506=EDGE_CURVE('',#657,#658,#109,.F.);
#507=EDGE_CURVE('',#616,#658,#734,.T.);
#508=EDGE_CURVE('',#659,#660,#735,.T.);
#509=EDGE_CURVE('',#660,#661,#110,.T.);
#510=EDGE_CURVE('',#661,#662,#736,.F.);
#511=EDGE_CURVE('',#662,#659,#111,.T.);
#512=EDGE_CURVE('',#663,#664,#737,.T.);
#513=EDGE_CURVE('',#664,#665,#112,.F.);
#514=EDGE_CURVE('',#665,#666,#738,.T.);
#515=EDGE_CURVE('',#666,#663,#113,.T.);
#516=EDGE_CURVE('',#624,#667,#739,.T.);
#517=EDGE_CURVE('',#667,#668,#114,.F.);
#518=EDGE_CURVE('',#668,#625,#740,.T.);
#519=EDGE_CURVE('',#649,#669,#741,.T.);
#520=EDGE_CURVE('',#669,#670,#115,.F.);
#521=EDGE_CURVE('',#670,#650,#742,.T.);
#522=EDGE_CURVE('',#671,#672,#743,.T.);
#523=EDGE_CURVE('',#672,#673,#116,.T.);
#524=EDGE_CURVE('',#673,#674,#744,.F.);
#525=EDGE_CURVE('',#674,#671,#117,.T.);
#526=EDGE_CURVE('',#619,#675,#745,.T.);
#527=EDGE_CURVE('',#675,#676,#118,.F.);
#528=EDGE_CURVE('',#676,#620,#746,.T.);
#529=EDGE_CURVE('',#677,#678,#747,.T.);
#530=EDGE_CURVE('',#678,#679,#119,.T.);
#531=EDGE_CURVE('',#679,#680,#748,.F.);
#532=EDGE_CURVE('',#680,#677,#120,.T.);
#533=EDGE_CURVE('',#681,#682,#749,.T.);
#534=EDGE_CURVE('',#682,#683,#121,.F.);
#535=EDGE_CURVE('',#683,#684,#750,.T.);
#536=EDGE_CURVE('',#684,#681,#122,.T.);
#537=EDGE_CURVE('',#604,#685,#751,.F.);
#538=EDGE_CURVE('',#685,#686,#44,.T.);
#539=EDGE_CURVE('',#686,#687,#752,.T.);
#540=EDGE_CURVE('',#687,#688,#123,.T.);
#541=EDGE_CURVE('',#688,#689,#753,.F.);
#542=EDGE_CURVE('',#689,#690,#45,.T.);
#543=EDGE_CURVE('',#690,#601,#754,.T.);
#544=EDGE_CURVE('',#691,#692,#46,.T.);
#545=EDGE_CURVE('',#692,#663,#755,.F.);
#546=EDGE_CURVE('',#666,#693,#756,.T.);
#547=EDGE_CURVE('',#693,#694,#47,.T.);
#548=EDGE_CURVE('',#694,#681,#757,.F.);
#549=EDGE_CURVE('',#684,#691,#758,.T.);
#550=EDGE_CURVE('',#687,#695,#759,.T.);
#551=EDGE_CURVE('',#695,#696,#124,.F.);
#552=EDGE_CURVE('',#696,#688,#760,.T.);
#553=EDGE_CURVE('',#679,#682,#48,.T.);
#554=EDGE_CURVE('',#694,#613,#761,.T.);
#555=EDGE_CURVE('',#676,#680,#49,.T.);
#556=EDGE_CURVE('',#693,#614,#762,.T.);
#557=EDGE_CURVE('',#665,#660,#50,.T.);
#558=EDGE_CURVE('',#659,#657,#51,.T.);
#559=EDGE_CURVE('',#661,#664,#52,.T.);
#560=EDGE_CURVE('',#617,#692,#763,.T.);
#561=EDGE_CURVE('',#658,#662,#53,.T.);
#562=EDGE_CURVE('',#618,#691,#764,.T.);
#563=EDGE_CURVE('',#683,#678,#54,.T.);
#564=EDGE_CURVE('',#677,#675,#55,.T.);
#565=EDGE_CURVE('',#621,#656,#765,.T.);
#566=EDGE_CURVE('',#623,#655,#766,.T.);
#567=EDGE_CURVE('',#637,#667,#56,.T.);
#568=EDGE_CURVE('',#645,#638,#57,.T.);
#569=EDGE_CURVE('',#630,#631,#58,.T.);
#570=EDGE_CURVE('',#632,#639,#59,.T.);
#571=EDGE_CURVE('',#633,#629,#60,.T.);
#572=EDGE_CURVE('',#653,#627,#767,.T.);
#573=EDGE_CURVE('',#641,#634,#61,.T.);
#574=EDGE_CURVE('',#668,#635,#62,.T.);
#575=EDGE_CURVE('',#636,#643,#63,.T.);
#576=EDGE_CURVE('',#654,#626,#768,.T.);
#577=EDGE_CURVE('',#603,#598,#64,.T.);
#578=EDGE_CURVE('',#597,#594,#65,.T.);
#579=EDGE_CURVE('',#612,#652,#769,.T.);
#580=EDGE_CURVE('',#611,#685,#770,.T.);
#581=EDGE_CURVE('',#673,#695,#66,.T.);
#582=EDGE_CURVE('',#610,#686,#771,.T.);
#583=EDGE_CURVE('',#609,#651,#772,.T.);
#584=EDGE_CURVE('',#670,#674,#67,.T.);
#585=EDGE_CURVE('',#648,#608,#773,.T.);
#586=EDGE_CURVE('',#647,#605,#774,.T.);
#587=EDGE_CURVE('',#690,#606,#775,.T.);
#588=EDGE_CURVE('',#689,#607,#776,.T.);
#589=EDGE_CURVE('',#599,#602,#68,.T.);
#590=EDGE_CURVE('',#595,#600,#69,.T.);
#591=EDGE_CURVE('',#696,#672,#70,.T.);
#592=EDGE_CURVE('',#671,#669,#71,.T.);
#593=VERTEX_POINT('',#1415);
#594=VERTEX_POINT('',#1416);
#595=VERTEX_POINT('',#1418);
#596=VERTEX_POINT('',#1420);
#597=VERTEX_POINT('',#1424);
#598=VERTEX_POINT('',#1425);
#599=VERTEX_POINT('',#1427);
#600=VERTEX_POINT('',#1429);
#601=VERTEX_POINT('',#1433);
#602=VERTEX_POINT('',#1434);
#603=VERTEX_POINT('',#1436);
#604=VERTEX_POINT('',#1438);
#605=VERTEX_POINT('',#1442);
#606=VERTEX_POINT('',#1443);
#607=VERTEX_POINT('',#1449);
#608=VERTEX_POINT('',#1451);
#609=VERTEX_POINT('',#1458);
#610=VERTEX_POINT('',#1459);
#611=VERTEX_POINT('',#1465);
#612=VERTEX_POINT('',#1467);
#613=VERTEX_POINT('',#1478);
#614=VERTEX_POINT('',#1479);
#615=VERTEX_POINT('',#1481);
#616=VERTEX_POINT('',#1483);
#617=VERTEX_POINT('',#1485);
#618=VERTEX_POINT('',#1491);
#619=VERTEX_POINT('',#1493);
#620=VERTEX_POINT('',#1495);
#621=VERTEX_POINT('',#1498);
#622=VERTEX_POINT('',#1499);
#623=VERTEX_POINT('',#1505);
#624=VERTEX_POINT('',#1507);
#625=VERTEX_POINT('',#1509);
#626=VERTEX_POINT('',#1511);
#627=VERTEX_POINT('',#1517);
#628=VERTEX_POINT('',#1519);
#629=VERTEX_POINT('',#1523);
#630=VERTEX_POINT('',#1525);
#631=VERTEX_POINT('',#1529);
#632=VERTEX_POINT('',#1530);
#633=VERTEX_POINT('',#1532);
#634=VERTEX_POINT('',#1534);
#635=VERTEX_POINT('',#1538);
#636=VERTEX_POINT('',#1539);
#637=VERTEX_POINT('',#1541);
#638=VERTEX_POINT('',#1543);
#639=VERTEX_POINT('',#1547);
#640=VERTEX_POINT('',#1548);
#641=VERTEX_POINT('',#1550);
#642=VERTEX_POINT('',#1552);
#643=VERTEX_POINT('',#1556);
#644=VERTEX_POINT('',#1557);
#645=VERTEX_POINT('',#1559);
#646=VERTEX_POINT('',#1561);
#647=VERTEX_POINT('',#1565);
#648=VERTEX_POINT('',#1571);
#649=VERTEX_POINT('',#1573);
#650=VERTEX_POINT('',#1575);
#651=VERTEX_POINT('',#1577);
#652=VERTEX_POINT('',#1583);
#653=VERTEX_POINT('',#1586);
#654=VERTEX_POINT('',#1592);
#655=VERTEX_POINT('',#1595);
#656=VERTEX_POINT('',#1601);
#657=VERTEX_POINT('',#1605);
#658=VERTEX_POINT('',#1607);
#659=VERTEX_POINT('',#1611);
#660=VERTEX_POINT('',#1612);
#661=VERTEX_POINT('',#1614);
#662=VERTEX_POINT('',#1616);
#663=VERTEX_POINT('',#1620);
#664=VERTEX_POINT('',#1621);
#665=VERTEX_POINT('',#1623);
#666=VERTEX_POINT('',#1625);
#667=VERTEX_POINT('',#1629);
#668=VERTEX_POINT('',#1631);
#669=VERTEX_POINT('',#1635);
#670=VERTEX_POINT('',#1637);
#671=VERTEX_POINT('',#1641);
#672=VERTEX_POINT('',#1642);
#673=VERTEX_POINT('',#1644);
#674=VERTEX_POINT('',#1646);
#675=VERTEX_POINT('',#1650);
#676=VERTEX_POINT('',#1652);
#677=VERTEX_POINT('',#1656);
#678=VERTEX_POINT('',#1657);
#679=VERTEX_POINT('',#1659);
#680=VERTEX_POINT('',#1661);
#681=VERTEX_POINT('',#1665);
#682=VERTEX_POINT('',#1666);
#683=VERTEX_POINT('',#1668);
#684=VERTEX_POINT('',#1670);
#685=VERTEX_POINT('',#1674);
#686=VERTEX_POINT('',#1680);
#687=VERTEX_POINT('',#1682);
#688=VERTEX_POINT('',#1684);
#689=VERTEX_POINT('',#1686);
#690=VERTEX_POINT('',#1692);
#691=VERTEX_POINT('',#1699);
#692=VERTEX_POINT('',#1700);
#693=VERTEX_POINT('',#1703);
#694=VERTEX_POINT('',#1709);
#695=VERTEX_POINT('',#1714);
#696=VERTEX_POINT('',#1716);
#697=LINE('',#1414,#777);
#698=LINE('',#1419,#778);
#699=LINE('',#1423,#779);
#700=LINE('',#1428,#780);
#701=LINE('',#1432,#781);
#702=LINE('',#1437,#782);
#703=LINE('',#1441,#783);
#704=LINE('',#1450,#784);
#705=LINE('',#1457,#785);
#706=LINE('',#1466,#786);
#707=LINE('',#1480,#787);
#708=LINE('',#1484,#788);
#709=LINE('',#1492,#789);
#710=LINE('',#1496,#790);
#711=LINE('',#1497,#791);
#712=LINE('',#1506,#792);
#713=LINE('',#1510,#793);
#714=LINE('',#1518,#794);
#715=LINE('',#1522,#795);
#716=LINE('',#1526,#796);
#717=LINE('',#1528,#797);
#718=LINE('',#1533,#798);
#719=LINE('',#1537,#799);
#720=LINE('',#1542,#800);
#721=LINE('',#1546,#801);
#722=LINE('',#1551,#802);
#723=LINE('',#1555,#803);
#724=LINE('',#1560,#804);
#725=LINE('',#1564,#805);
#726=LINE('',#1572,#806);
#727=LINE('',#1576,#807);
#728=LINE('',#1584,#808);
#729=LINE('',#1585,#809);
#730=LINE('',#1593,#810);
#731=LINE('',#1594,#811);
#732=LINE('',#1602,#812);
#733=LINE('',#1604,#813);
#734=LINE('',#1608,#814);
#735=LINE('',#1610,#815);
#736=LINE('',#1615,#816);
#737=LINE('',#1619,#817);
#738=LINE('',#1624,#818);
#739=LINE('',#1628,#819);
#740=LINE('',#1632,#820);
#741=LINE('',#1634,#821);
#742=LINE('',#1638,#822);
#743=LINE('',#1640,#823);
#744=LINE('',#1645,#824);
#745=LINE('',#1649,#825);
#746=LINE('',#1653,#826);
#747=LINE('',#1655,#827);
#748=LINE('',#1660,#828);
#749=LINE('',#1664,#829);
#750=LINE('',#1669,#830);
#751=LINE('',#1673,#831);
#752=LINE('',#1681,#832);
#753=LINE('',#1685,#833);
#754=LINE('',#1693,#834);
#755=LINE('',#1701,#835);
#756=LINE('',#1702,#836);
#757=LINE('',#1710,#837);
#758=LINE('',#1711,#838);
#759=LINE('',#1713,#839);
#760=LINE('',#1717,#840);
#761=LINE('',#1723,#841);
#762=LINE('',#1729,#842);
#763=LINE('',#1744,#843);
#764=LINE('',#1750,#844);
#765=LINE('',#1761,#845);
#766=LINE('',#1762,#846);
#767=LINE('',#1786,#847);
#768=LINE('',#1800,#848);
#769=LINE('',#1811,#849);
#770=LINE('',#1812,#850);
#771=LINE('',#1818,#851);
#772=LINE('',#1819,#852);
#773=LINE('',#1827,#853);
#774=LINE('',#1828,#854);
#775=LINE('',#1830,#855);
#776=LINE('',#1831,#856);
#777=VECTOR('',#1156,1000.);
#778=VECTOR('',#1159,1000.);
#779=VECTOR('',#1164,1000.);
#780=VECTOR('',#1167,1000.);
#781=VECTOR('',#1172,1000.);
#782=VECTOR('',#1175,1000.);
#783=VECTOR('',#1180,1000.);
#784=VECTOR('',#1181,1000.);
#785=VECTOR('',#1182,1000.);
#786=VECTOR('',#1183,1000.);
#787=VECTOR('',#1184,1000.);
#788=VECTOR('',#1187,1000.);
#789=VECTOR('',#1188,1000.);
#790=VECTOR('',#1191,1000.);
#791=VECTOR('',#1192,1000.);
#792=VECTOR('',#1193,1000.);
#793=VECTOR('',#1196,1000.);
#794=VECTOR('',#1197,1000.);
#795=VECTOR('',#1202,1000.);
#796=VECTOR('',#1205,1000.);
#797=VECTOR('',#1208,1000.);
#798=VECTOR('',#1211,1000.);
#799=VECTOR('',#1216,1000.);
#800=VECTOR('',#1219,1000.);
#801=VECTOR('',#1224,1000.);
#802=VECTOR('',#1227,1000.);
#803=VECTOR('',#1232,1000.);
#804=VECTOR('',#1235,1000.);
#805=VECTOR('',#1240,1000.);
#806=VECTOR('',#1241,1000.);
#807=VECTOR('',#1244,1000.);
#808=VECTOR('',#1245,1000.);
#809=VECTOR('',#1246,1000.);
#810=VECTOR('',#1247,1000.);
#811=VECTOR('',#1248,1000.);
#812=VECTOR('',#1249,1000.);
#813=VECTOR('',#1252,1000.);
#814=VECTOR('',#1255,1000.);
#815=VECTOR('',#1258,1000.);
#816=VECTOR('',#1261,1000.);
#817=VECTOR('',#1266,1000.);
#818=VECTOR('',#1269,1000.);
#819=VECTOR('',#1274,1000.);
#820=VECTOR('',#1277,1000.);
#821=VECTOR('',#1280,1000.);
#822=VECTOR('',#1283,1000.);
#823=VECTOR('',#1286,1000.);
#824=VECTOR('',#1289,1000.);
#825=VECTOR('',#1294,1000.);
#826=VECTOR('',#1297,1000.);
#827=VECTOR('',#1300,1000.);
#828=VECTOR('',#1303,1000.);
#829=VECTOR('',#1308,1000.);
#830=VECTOR('',#1311,1000.);
#831=VECTOR('',#1316,1000.);
#832=VECTOR('',#1317,1000.);
#833=VECTOR('',#1320,1000.);
#834=VECTOR('',#1321,1000.);
#835=VECTOR('',#1322,1000.);
#836=VECTOR('',#1323,1000.);
#837=VECTOR('',#1324,1000.);
#838=VECTOR('',#1325,1000.);
#839=VECTOR('',#1328,1000.);
#840=VECTOR('',#1331,1000.);
#841=VECTOR('',#1334,1000.);
#842=VECTOR('',#1337,1000.);
#843=VECTOR('',#1342,1000.);
#844=VECTOR('',#1345,1000.);
#845=VECTOR('',#1350,1000.);
#846=VECTOR('',#1351,1000.);
#847=VECTOR('',#1358,1000.);
#848=VECTOR('',#1361,1000.);
#849=VECTOR('',#1366,1000.);
#850=VECTOR('',#1367,1000.);
#851=VECTOR('',#1370,1000.);
#852=VECTOR('',#1371,1000.);
#853=VECTOR('',#1378,1000.);
#854=VECTOR('',#1379,1000.);
#855=VECTOR('',#1382,1000.);
#856=VECTOR('',#1383,1000.);
#857=EDGE_LOOP('',(#125,#126,#127,#128));
#858=EDGE_LOOP('',(#129,#130,#131,#132));
#859=EDGE_LOOP('',(#133,#134,#135,#136));
#860=EDGE_LOOP('',(#137,#138,#139,#140));
#861=EDGE_LOOP('',(#141,#142,#143,#144));
#862=EDGE_LOOP('',(#145,#146,#147,#148,#149,#150,#151,#152));
#863=EDGE_LOOP('',(#153,#154,#155,#156,#157,#158,#159,#160));
#864=EDGE_LOOP('',(#161,#162,#163,#164));
#865=EDGE_LOOP('',(#165,#166,#167,#168));
#866=EDGE_LOOP('',(#169,#170,#171,#172));
#867=EDGE_LOOP('',(#173,#174,#175,#176));
#868=EDGE_LOOP('',(#177,#178,#179,#180));
#869=EDGE_LOOP('',(#181,#182,#183,#184,#185,#186,#187,#188));
#870=EDGE_LOOP('',(#189,#190,#191,#192,#193,#194,#195,#196));
#871=EDGE_LOOP('',(#197,#198,#199,#200));
#872=EDGE_LOOP('',(#201,#202,#203,#204));
#873=EDGE_LOOP('',(#205,#206,#207,#208));
#874=EDGE_LOOP('',(#209,#210,#211,#212));
#875=EDGE_LOOP('',(#213,#214,#215,#216));
#876=EDGE_LOOP('',(#217,#218,#219,#220));
#877=EDGE_LOOP('',(#221,#222,#223,#224));
#878=EDGE_LOOP('',(#225,#226,#227,#228));
#879=EDGE_LOOP('',(#229,#230,#231,#232));
#880=EDGE_LOOP('',(#233,#234,#235,#236,#237,#238,#239,#240));
#881=EDGE_LOOP('',(#241,#242,#243,#244,#245,#246,#247,#248));
#882=EDGE_LOOP('',(#249,#250,#251,#252));
#883=EDGE_LOOP('',(#253,#254,#255,#256,#257,#258,#259,#260));
#884=EDGE_LOOP('',(#261,#262,#263,#264));
#885=EDGE_LOOP('',(#265,#266,#267,#268,#269,#270,#271,#272));
#886=EDGE_LOOP('',(#273,#274,#275,#276,#277,#278,#279,#280));
#887=EDGE_LOOP('',(#281,#282,#283,#284));
#888=EDGE_LOOP('',(#285,#286,#287,#288,#289,#290,#291,#292));
#889=EDGE_LOOP('',(#293,#294,#295,#296));
#890=EDGE_LOOP('',(#297,#298,#299,#300,#301,#302,#303,#304));
#891=EDGE_LOOP('',(#305,#306,#307,#308,#309,#310,#311,#312));
#892=EDGE_LOOP('',(#313,#314,#315,#316,#317,#318,#319,#320));
#893=EDGE_LOOP('',(#321,#322,#323,#324,#325,#326,#327,#328));
#894=EDGE_LOOP('',(#329,#330,#331,#332));
#895=EDGE_LOOP('',(#333,#334,#335,#336,#337,#338,#339,#340,#341,#342));
#896=EDGE_LOOP('',(#343,#344,#345,#346,#347,#348,#349,#350,#351,#352));
#897=EDGE_LOOP('',(#353,#354,#355,#356));
#898=EDGE_LOOP('',(#357,#358,#359,#360));
#899=EDGE_LOOP('',(#361,#362,#363,#364));
#900=EDGE_LOOP('',(#365,#366,#367,#368));
#901=EDGE_LOOP('',(#369,#370,#371,#372,#373,#374,#375,#376,#377,#378));
#902=EDGE_LOOP('',(#379,#380,#381,#382,#383,#384,#385,#386,#387,#388));
#903=EDGE_LOOP('',(#389,#390,#391,#392));
#904=EDGE_LOOP('',(#393,#394,#395,#396));
#905=EDGE_LOOP('',(#397,#398,#399,#400));
#906=EDGE_LOOP('',(#401,#402,#403,#404));
#907=EDGE_LOOP('',(#405,#406,#407,#408));
#908=EDGE_LOOP('',(#409,#410,#411,#412));
#909=EDGE_LOOP('',(#413,#414,#415,#416));
#910=EDGE_LOOP('',(#417,#418,#419,#420));
#911=EDGE_LOOP('',(#421,#422,#423,#424));
#912=EDGE_LOOP('',(#425,#426,#427,#428));
#913=EDGE_LOOP('',(#429,#430,#431,#432));
#914=EDGE_LOOP('',(#433,#434,#435,#436));
#915=FACE_BOUND('',#857,.T.);
#916=FACE_BOUND('',#858,.T.);
#917=FACE_BOUND('',#859,.T.);
#918=FACE_BOUND('',#860,.T.);
#919=FACE_BOUND('',#861,.T.);
#920=FACE_BOUND('',#862,.T.);
#921=FACE_BOUND('',#863,.T.);
#922=FACE_BOUND('',#864,.T.);
#923=FACE_BOUND('',#865,.T.);
#924=FACE_BOUND('',#866,.T.);
#925=FACE_BOUND('',#867,.T.);
#926=FACE_BOUND('',#868,.T.);
#927=FACE_BOUND('',#869,.T.);
#928=FACE_BOUND('',#870,.T.);
#929=FACE_BOUND('',#871,.T.);
#930=FACE_BOUND('',#872,.T.);
#931=FACE_BOUND('',#873,.T.);
#932=FACE_BOUND('',#874,.T.);
#933=FACE_BOUND('',#875,.T.);
#934=FACE_BOUND('',#876,.T.);
#935=FACE_BOUND('',#877,.T.);
#936=FACE_BOUND('',#878,.T.);
#937=FACE_BOUND('',#879,.T.);
#938=FACE_BOUND('',#880,.T.);
#939=FACE_BOUND('',#881,.T.);
#940=FACE_BOUND('',#882,.T.);
#941=FACE_BOUND('',#883,.T.);
#942=FACE_BOUND('',#884,.T.);
#943=FACE_BOUND('',#885,.T.);
#944=FACE_BOUND('',#886,.T.);
#945=FACE_BOUND('',#887,.T.);
#946=FACE_BOUND('',#888,.T.);
#947=FACE_BOUND('',#889,.T.);
#948=FACE_BOUND('',#890,.T.);
#949=FACE_BOUND('',#891,.T.);
#950=FACE_BOUND('',#892,.T.);
#951=FACE_BOUND('',#893,.T.);
#952=FACE_BOUND('',#894,.T.);
#953=FACE_BOUND('',#895,.T.);
#954=FACE_BOUND('',#896,.T.);
#955=FACE_BOUND('',#897,.T.);
#956=FACE_BOUND('',#898,.T.);
#957=FACE_BOUND('',#899,.T.);
#958=FACE_BOUND('',#900,.T.);
#959=FACE_BOUND('',#901,.T.);
#960=FACE_BOUND('',#902,.T.);
#961=FACE_BOUND('',#903,.T.);
#962=FACE_BOUND('',#904,.T.);
#963=FACE_BOUND('',#905,.T.);
#964=FACE_BOUND('',#906,.T.);
#965=FACE_BOUND('',#907,.T.);
#966=FACE_BOUND('',#908,.T.);
#967=FACE_BOUND('',#909,.T.);
#968=FACE_BOUND('',#910,.T.);
#969=FACE_BOUND('',#911,.T.);
#970=FACE_BOUND('',#912,.T.);
#971=FACE_BOUND('',#913,.T.);
#972=FACE_BOUND('',#914,.T.);
#973=PLANE('',#1063);
#974=PLANE('',#1069);
#975=PLANE('',#1077);
#976=PLANE('',#1085);
#977=PLANE('',#1088);
#978=PLANE('',#1093);
#979=PLANE('',#1098);
#980=PLANE('',#1101);
#981=PLANE('',#1103);
#982=PLANE('',#1108);
#983=PLANE('',#1113);
#984=PLANE('',#1118);
#985=PLANE('',#1120);
#986=PLANE('',#1122);
#987=PLANE('',#1123);
#988=PLANE('',#1125);
#989=PLANE('',#1127);
#990=PLANE('',#1128);
#991=PLANE('',#1129);
#992=PLANE('',#1130);
#993=PLANE('',#1132);
#994=PLANE('',#1133);
#995=PLANE('',#1138);
#996=PLANE('',#1139);
#997=ADVANCED_FACE('',(#915),#973,.F.);
#998=ADVANCED_FACE('',(#916),#72,.T.);
#999=ADVANCED_FACE('',(#917),#974,.F.);
#1000=ADVANCED_FACE('',(#918,#919,#920,#921),#73,.F.);
#1001=ADVANCED_FACE('',(#922),#975,.F.);
#1002=ADVANCED_FACE('',(#923),#74,.T.);
#1003=ADVANCED_FACE('',(#924),#75,.T.);
#1004=ADVANCED_FACE('',(#925),#976,.F.);
#1005=ADVANCED_FACE('',(#926),#977,.F.);
#1006=ADVANCED_FACE('',(#927,#928),#76,.T.);
#1007=ADVANCED_FACE('',(#929),#978,.F.);
#1008=ADVANCED_FACE('',(#930),#77,.T.);
#1009=ADVANCED_FACE('',(#931),#979,.F.);
#1010=ADVANCED_FACE('',(#932),#980,.F.);
#1011=ADVANCED_FACE('',(#933),#981,.F.);
#1012=ADVANCED_FACE('',(#934),#78,.T.);
#1013=ADVANCED_FACE('',(#935),#982,.F.);
#1014=ADVANCED_FACE('',(#936),#79,.T.);
#1015=ADVANCED_FACE('',(#937),#983,.F.);
#1016=ADVANCED_FACE('',(#938,#939),#80,.T.);
#1017=ADVANCED_FACE('',(#940),#984,.F.);
#1018=ADVANCED_FACE('',(#941),#985,.F.);
#1019=ADVANCED_FACE('',(#942),#81,.F.);
#1020=ADVANCED_FACE('',(#943),#986,.F.);
#1021=ADVANCED_FACE('',(#944),#987,.F.);
#1022=ADVANCED_FACE('',(#945),#82,.F.);
#1023=ADVANCED_FACE('',(#946),#988,.F.);
#1024=ADVANCED_FACE('',(#947),#83,.F.);
#1025=ADVANCED_FACE('',(#948),#989,.T.);
#1026=ADVANCED_FACE('',(#949),#990,.T.);
#1027=ADVANCED_FACE('',(#950),#991,.T.);
#1028=ADVANCED_FACE('',(#951),#992,.T.);
#1029=ADVANCED_FACE('',(#952),#84,.F.);
#1030=ADVANCED_FACE('',(#953),#993,.F.);
#1031=ADVANCED_FACE('',(#954),#994,.F.);
#1032=ADVANCED_FACE('',(#955),#85,.F.);
#1033=ADVANCED_FACE('',(#956),#86,.F.);
#1034=ADVANCED_FACE('',(#957),#87,.F.);
#1035=ADVANCED_FACE('',(#958),#88,.F.);
#1036=ADVANCED_FACE('',(#959),#995,.F.);
#1037=ADVANCED_FACE('',(#960),#996,.F.);
#1038=ADVANCED_FACE('',(#961),#20,.T.);
#1039=ADVANCED_FACE('',(#962),#21,.T.);
#1040=ADVANCED_FACE('',(#963),#22,.T.);
#1041=ADVANCED_FACE('',(#964),#23,.T.);
#1042=ADVANCED_FACE('',(#965),#24,.T.);
#1043=ADVANCED_FACE('',(#966),#25,.T.);
#1044=ADVANCED_FACE('',(#967),#26,.T.);
#1045=ADVANCED_FACE('',(#968),#27,.T.);
#1046=ADVANCED_FACE('',(#969),#28,.T.);
#1047=ADVANCED_FACE('',(#970),#29,.T.);
#1048=ADVANCED_FACE('',(#971),#30,.T.);
#1049=ADVANCED_FACE('',(#972),#31,.T.);
#1050=CLOSED_SHELL('',(#997,#998,#999,#1000,#1001,#1002,#1003,#1004,#1005,
#1006,#1007,#1008,#1009,#1010,#1011,#1012,#1013,#1014,#1015,#1016,#1017,
#1018,#1019,#1020,#1021,#1022,#1023,#1024,#1025,#1026,#1027,#1028,#1029,
#1030,#1031,#1032,#1033,#1034,#1035,#1036,#1037,#1038,#1039,#1040,#1041,
#1042,#1043,#1044,#1045,#1046,#1047,#1048,#1049));
#1051=STYLED_ITEM('',(#1052),#1059);
#1052=PRESENTATION_STYLE_ASSIGNMENT((#1053));
#1053=SURFACE_STYLE_USAGE(.BOTH.,#1054);
#1054=SURFACE_SIDE_STYLE('',(#1055));
#1055=SURFACE_STYLE_FILL_AREA(#1056);
#1056=FILL_AREA_STYLE('',(#1057));
#1057=FILL_AREA_STYLE_COLOUR('',#1058);
#1058=COLOUR_RGB('',0.200000002980232,0.200000002980232,0.200000002980232);
#1059=MANIFOLD_SOLID_BREP('',#1050);
#1060=SHAPE_DEFINITION_REPRESENTATION(#1868,#1061);
#1061=SHAPE_REPRESENTATION('Black_4121715_MCM',(#1062),#1863);
#1062=AXIS2_PLACEMENT_3D('',#1412,#1152,#1153);
#1063=AXIS2_PLACEMENT_3D('',#1413,#1154,#1155);
#1064=AXIS2_PLACEMENT_3D('',#1417,#1157,#1158);
#1065=AXIS2_PLACEMENT_3D('',#1421,#1160,#1161);
#1066=AXIS2_PLACEMENT_3D('',#1422,#1162,#1163);
#1067=AXIS2_PLACEMENT_3D('',#1426,#1165,#1166);
#1068=AXIS2_PLACEMENT_3D('',#1430,#1168,#1169);
#1069=AXIS2_PLACEMENT_3D('',#1431,#1170,#1171);
#1070=AXIS2_PLACEMENT_3D('',#1435,#1173,#1174);
#1071=AXIS2_PLACEMENT_3D('',#1439,#1176,#1177);
#1072=AXIS2_PLACEMENT_3D('',#1440,#1178,#1179);
#1073=AXIS2_PLACEMENT_3D('',#1482,#1185,#1186);
#1074=AXIS2_PLACEMENT_3D('',#1494,#1189,#1190);
#1075=AXIS2_PLACEMENT_3D('',#1508,#1194,#1195);
#1076=AXIS2_PLACEMENT_3D('',#1520,#1198,#1199);
#1077=AXIS2_PLACEMENT_3D('',#1521,#1200,#1201);
#1078=AXIS2_PLACEMENT_3D('',#1524,#1203,#1204);
#1079=AXIS2_PLACEMENT_3D('',#1527,#1206,#1207);
#1080=AXIS2_PLACEMENT_3D('',#1531,#1209,#1210);
#1081=AXIS2_PLACEMENT_3D('',#1535,#1212,#1213);
#1082=AXIS2_PLACEMENT_3D('',#1536,#1214,#1215);
#1083=AXIS2_PLACEMENT_3D('',#1540,#1217,#1218);
#1084=AXIS2_PLACEMENT_3D('',#1544,#1220,#1221);
#1085=AXIS2_PLACEMENT_3D('',#1545,#1222,#1223);
#1086=AXIS2_PLACEMENT_3D('',#1549,#1225,#1226);
#1087=AXIS2_PLACEMENT_3D('',#1553,#1228,#1229);
#1088=AXIS2_PLACEMENT_3D('',#1554,#1230,#1231);
#1089=AXIS2_PLACEMENT_3D('',#1558,#1233,#1234);
#1090=AXIS2_PLACEMENT_3D('',#1562,#1236,#1237);
#1091=AXIS2_PLACEMENT_3D('',#1563,#1238,#1239);
#1092=AXIS2_PLACEMENT_3D('',#1574,#1242,#1243);
#1093=AXIS2_PLACEMENT_3D('',#1603,#1250,#1251);
#1094=AXIS2_PLACEMENT_3D('',#1606,#1253,#1254);
#1095=AXIS2_PLACEMENT_3D('',#1609,#1256,#1257);
#1096=AXIS2_PLACEMENT_3D('',#1613,#1259,#1260);
#1097=AXIS2_PLACEMENT_3D('',#1617,#1262,#1263);
#1098=AXIS2_PLACEMENT_3D('',#1618,#1264,#1265);
#1099=AXIS2_PLACEMENT_3D('',#1622,#1267,#1268);
#1100=AXIS2_PLACEMENT_3D('',#1626,#1270,#1271);
#1101=AXIS2_PLACEMENT_3D('',#1627,#1272,#1273);
#1102=AXIS2_PLACEMENT_3D('',#1630,#1275,#1276);
#1103=AXIS2_PLACEMENT_3D('',#1633,#1278,#1279);
#1104=AXIS2_PLACEMENT_3D('',#1636,#1281,#1282);
#1105=AXIS2_PLACEMENT_3D('',#1639,#1284,#1285);
#1106=AXIS2_PLACEMENT_3D('',#1643,#1287,#1288);
#1107=AXIS2_PLACEMENT_3D('',#1647,#1290,#1291);
#1108=AXIS2_PLACEMENT_3D('',#1648,#1292,#1293);
#1109=AXIS2_PLACEMENT_3D('',#1651,#1295,#1296);
#1110=AXIS2_PLACEMENT_3D('',#1654,#1298,#1299);
#1111=AXIS2_PLACEMENT_3D('',#1658,#1301,#1302);
#1112=AXIS2_PLACEMENT_3D('',#1662,#1304,#1305);
#1113=AXIS2_PLACEMENT_3D('',#1663,#1306,#1307);
#1114=AXIS2_PLACEMENT_3D('',#1667,#1309,#1310);
#1115=AXIS2_PLACEMENT_3D('',#1671,#1312,#1313);
#1116=AXIS2_PLACEMENT_3D('',#1672,#1314,#1315);
#1117=AXIS2_PLACEMENT_3D('',#1683,#1318,#1319);
#1118=AXIS2_PLACEMENT_3D('',#1712,#1326,#1327);
#1119=AXIS2_PLACEMENT_3D('',#1715,#1329,#1330);
#1120=AXIS2_PLACEMENT_3D('',#1718,#1332,#1333);
#1121=AXIS2_PLACEMENT_3D('',#1728,#1335,#1336);
#1122=AXIS2_PLACEMENT_3D('',#1730,#1338,#1339);
#1123=AXIS2_PLACEMENT_3D('',#1739,#1340,#1341);
#1124=AXIS2_PLACEMENT_3D('',#1749,#1343,#1344);
#1125=AXIS2_PLACEMENT_3D('',#1751,#1346,#1347);
#1126=AXIS2_PLACEMENT_3D('',#1760,#1348,#1349);
#1127=AXIS2_PLACEMENT_3D('',#1763,#1352,#1353);
#1128=AXIS2_PLACEMENT_3D('',#1772,#1354,#1355);
#1129=AXIS2_PLACEMENT_3D('',#1781,#1356,#1357);
#1130=AXIS2_PLACEMENT_3D('',#1791,#1359,#1360);
#1131=AXIS2_PLACEMENT_3D('',#1801,#1362,#1363);
#1132=AXIS2_PLACEMENT_3D('',#1802,#1364,#1365);
#1133=AXIS2_PLACEMENT_3D('',#1813,#1368,#1369);
#1134=AXIS2_PLACEMENT_3D('',#1824,#1372,#1373);
#1135=AXIS2_PLACEMENT_3D('',#1825,#1374,#1375);
#1136=AXIS2_PLACEMENT_3D('',#1826,#1376,#1377);
#1137=AXIS2_PLACEMENT_3D('',#1829,#1380,#1381);
#1138=AXIS2_PLACEMENT_3D('',#1832,#1384,#1385);
#1139=AXIS2_PLACEMENT_3D('',#1841,#1386,#1387);
#1140=AXIS2_PLACEMENT_3D('',#1850,#1388,#1389);
#1141=AXIS2_PLACEMENT_3D('',#1851,#1390,#1391);
#1142=AXIS2_PLACEMENT_3D('',#1852,#1392,#1393);
#1143=AXIS2_PLACEMENT_3D('',#1853,#1394,#1395);
#1144=AXIS2_PLACEMENT_3D('',#1854,#1396,#1397);
#1145=AXIS2_PLACEMENT_3D('',#1855,#1398,#1399);
#1146=AXIS2_PLACEMENT_3D('',#1856,#1400,#1401);
#1147=AXIS2_PLACEMENT_3D('',#1857,#1402,#1403);
#1148=AXIS2_PLACEMENT_3D('',#1858,#1404,#1405);
#1149=AXIS2_PLACEMENT_3D('',#1859,#1406,#1407);
#1150=AXIS2_PLACEMENT_3D('',#1860,#1408,#1409);
#1151=AXIS2_PLACEMENT_3D('',#1861,#1410,#1411);
#1152=DIRECTION('',(0.,0.,1.));
#1153=DIRECTION('',(1.,0.,0.));
#1154=DIRECTION('',(-1.,0.,0.));
#1155=DIRECTION('',(0.,0.,1.));
#1156=DIRECTION('',(0.,0.,-1.));
#1157=DIRECTION('',(-1.,0.,0.));
#1158=DIRECTION('',(0.,0.,1.));
#1159=DIRECTION('',(0.,0.,-1.));
#1160=DIRECTION('',(-1.,0.,0.));
#1161=DIRECTION('',(0.,0.,1.));
#1162=DIRECTION('',(-1.,0.,0.));
#1163=DIRECTION('',(0.,0.,1.));
#1164=DIRECTION('',(-1.,0.,0.));
#1165=DIRECTION('',(1.,0.,0.));
#1166=DIRECTION('',(0.,0.,-1.));
#1167=DIRECTION('',(-1.,0.,0.));
#1168=DIRECTION('',(-1.,0.,0.));
#1169=DIRECTION('',(0.,0.,1.));
#1170=DIRECTION('',(1.,0.,0.));
#1171=DIRECTION('',(0.,0.,1.));
#1172=DIRECTION('',(0.,0.,1.));
#1173=DIRECTION('',(1.,0.,0.));
#1174=DIRECTION('',(0.,0.,-1.));
#1175=DIRECTION('',(0.,0.,1.));
#1176=DIRECTION('',(-1.,0.,0.));
#1177=DIRECTION('',(0.,0.,1.));
#1178=DIRECTION('',(-1.,0.,0.));
#1179=DIRECTION('',(0.,0.,1.));
#1180=DIRECTION('',(-1.,0.,0.));
#1181=DIRECTION('',(-1.,0.,0.));
#1182=DIRECTION('',(-1.,0.,0.));
#1183=DIRECTION('',(-1.,0.,0.));
#1184=DIRECTION('',(-1.,0.,0.));
#1185=DIRECTION('',(-1.,0.,0.));
#1186=DIRECTION('',(0.,0.,1.));
#1187=DIRECTION('',(-1.,0.,0.));
#1188=DIRECTION('',(-1.,0.,0.));
#1189=DIRECTION('',(-1.,0.,0.));
#1190=DIRECTION('',(0.,0.,1.));
#1191=DIRECTION('',(-1.,0.,0.));
#1192=DIRECTION('',(-1.,0.,0.));
#1193=DIRECTION('',(-1.,0.,0.));
#1194=DIRECTION('',(-1.,0.,0.));
#1195=DIRECTION('',(0.,0.,1.));
#1196=DIRECTION('',(-1.,0.,0.));
#1197=DIRECTION('',(-1.,0.,0.));
#1198=DIRECTION('',(-1.,0.,0.));
#1199=DIRECTION('',(0.,0.,1.));
#1200=DIRECTION('',(-1.,0.,0.));
#1201=DIRECTION('',(0.,0.,1.));
#1202=DIRECTION('',(0.,1.,0.));
#1203=DIRECTION('',(-1.,0.,0.));
#1204=DIRECTION('',(0.,0.,1.));
#1205=DIRECTION('',(0.,1.,0.));
#1206=DIRECTION('',(-1.,0.,0.));
#1207=DIRECTION('',(0.,0.,1.));
#1208=DIRECTION('',(-1.,0.,0.));
#1209=DIRECTION('',(-1.,0.,0.));
#1210=DIRECTION('',(0.,0.,1.));
#1211=DIRECTION('',(-1.,0.,0.));
#1212=DIRECTION('',(1.,0.,0.));
#1213=DIRECTION('',(0.,0.,-1.));
#1214=DIRECTION('',(-1.,0.,0.));
#1215=DIRECTION('',(0.,0.,1.));
#1216=DIRECTION('',(-1.,0.,0.));
#1217=DIRECTION('',(-1.,0.,0.));
#1218=DIRECTION('',(0.,0.,1.));
#1219=DIRECTION('',(-1.,0.,0.));
#1220=DIRECTION('',(1.,0.,0.));
#1221=DIRECTION('',(0.,0.,-1.));
#1222=DIRECTION('',(1.,0.,0.));
#1223=DIRECTION('',(0.,0.,-1.));
#1224=DIRECTION('',(0.,-1.,0.));
#1225=DIRECTION('',(1.,0.,0.));
#1226=DIRECTION('',(0.,0.,-1.));
#1227=DIRECTION('',(0.,-1.,0.));
#1228=DIRECTION('',(-1.,0.,0.));
#1229=DIRECTION('',(0.,0.,1.));
#1230=DIRECTION('',(1.,0.,0.));
#1231=DIRECTION('',(0.,0.,-1.));
#1232=DIRECTION('',(0.,1.,0.));
#1233=DIRECTION('',(1.,0.,0.));
#1234=DIRECTION('',(0.,0.,-1.));
#1235=DIRECTION('',(0.,1.,0.));
#1236=DIRECTION('',(-1.,0.,0.));
#1237=DIRECTION('',(0.,0.,1.));
#1238=DIRECTION('',(-1.,0.,0.));
#1239=DIRECTION('',(0.,0.,1.));
#1240=DIRECTION('',(-1.,0.,0.));
#1241=DIRECTION('',(-1.,0.,0.));
#1242=DIRECTION('',(-1.,0.,0.));
#1243=DIRECTION('',(0.,0.,1.));
#1244=DIRECTION('',(-1.,0.,0.));
#1245=DIRECTION('',(-1.,0.,0.));
#1246=DIRECTION('',(-1.,0.,0.));
#1247=DIRECTION('',(-1.,0.,0.));
#1248=DIRECTION('',(-1.,0.,0.));
#1249=DIRECTION('',(-1.,0.,0.));
#1250=DIRECTION('',(1.,0.,0.));
#1251=DIRECTION('',(0.,0.,1.));
#1252=DIRECTION('',(0.,1.,0.));
#1253=DIRECTION('',(1.,0.,0.));
#1254=DIRECTION('',(0.,0.,-1.));
#1255=DIRECTION('',(0.,1.,0.));
#1256=DIRECTION('',(1.,0.,0.));
#1257=DIRECTION('',(0.,0.,1.));
#1258=DIRECTION('',(1.,0.,0.));
#1259=DIRECTION('',(-1.,0.,0.));
#1260=DIRECTION('',(0.,0.,1.));
#1261=DIRECTION('',(1.,0.,0.));
#1262=DIRECTION('',(1.,0.,0.));
#1263=DIRECTION('',(0.,0.,-1.));
#1264=DIRECTION('',(-1.,0.,0.));
#1265=DIRECTION('',(0.,0.,-1.));
#1266=DIRECTION('',(0.,1.,0.));
#1267=DIRECTION('',(-1.,0.,0.));
#1268=DIRECTION('',(0.,0.,1.));
#1269=DIRECTION('',(0.,1.,0.));
#1270=DIRECTION('',(-1.,0.,0.));
#1271=DIRECTION('',(0.,0.,1.));
#1272=DIRECTION('',(-1.,0.,0.));
#1273=DIRECTION('',(0.,0.,1.));
#1274=DIRECTION('',(0.,1.,0.));
#1275=DIRECTION('',(-1.,0.,0.));
#1276=DIRECTION('',(0.,0.,1.));
#1277=DIRECTION('',(0.,1.,0.));
#1278=DIRECTION('',(-1.,0.,0.));
#1279=DIRECTION('',(0.,0.,1.));
#1280=DIRECTION('',(0.,0.,1.));
#1281=DIRECTION('',(-1.,0.,0.));
#1282=DIRECTION('',(0.,0.,1.));
#1283=DIRECTION('',(0.,0.,1.));
#1284=DIRECTION('',(-1.,0.,0.));
#1285=DIRECTION('',(0.,0.,1.));
#1286=DIRECTION('',(-1.,0.,0.));
#1287=DIRECTION('',(1.,0.,0.));
#1288=DIRECTION('',(0.,0.,-1.));
#1289=DIRECTION('',(-1.,0.,0.));
#1290=DIRECTION('',(-1.,0.,0.));
#1291=DIRECTION('',(0.,0.,1.));
#1292=DIRECTION('',(1.,0.,0.));
#1293=DIRECTION('',(0.,0.,1.));
#1294=DIRECTION('',(0.,1.,0.));
#1295=DIRECTION('',(1.,0.,0.));
#1296=DIRECTION('',(0.,0.,-1.));
#1297=DIRECTION('',(0.,1.,0.));
#1298=DIRECTION('',(1.,0.,0.));
#1299=DIRECTION('',(0.,0.,1.));
#1300=DIRECTION('',(1.,0.,0.));
#1301=DIRECTION('',(-1.,0.,0.));
#1302=DIRECTION('',(0.,0.,1.));
#1303=DIRECTION('',(1.,0.,0.));
#1304=DIRECTION('',(1.,0.,0.));
#1305=DIRECTION('',(0.,0.,-1.));
#1306=DIRECTION('',(-1.,0.,0.));
#1307=DIRECTION('',(0.,0.,-1.));
#1308=DIRECTION('',(0.,-1.,0.));
#1309=DIRECTION('',(-1.,0.,0.));
#1310=DIRECTION('',(0.,0.,1.));
#1311=DIRECTION('',(0.,-1.,0.));
#1312=DIRECTION('',(-1.,0.,0.));
#1313=DIRECTION('',(0.,0.,1.));
#1314=DIRECTION('',(1.,0.,0.));
#1315=DIRECTION('',(0.,0.,1.));
#1316=DIRECTION('',(1.,0.,0.));
#1317=DIRECTION('',(1.,0.,0.));
#1318=DIRECTION('',(-1.,0.,0.));
#1319=DIRECTION('',(0.,0.,1.));
#1320=DIRECTION('',(1.,0.,0.));
#1321=DIRECTION('',(1.,0.,0.));
#1322=DIRECTION('',(1.,0.,0.));
#1323=DIRECTION('',(1.,0.,0.));
#1324=DIRECTION('',(1.,0.,0.));
#1325=DIRECTION('',(1.,0.,0.));
#1326=DIRECTION('',(1.,0.,0.));
#1327=DIRECTION('',(0.,0.,1.));
#1328=DIRECTION('',(0.,0.,-1.));
#1329=DIRECTION('',(1.,0.,0.));
#1330=DIRECTION('',(0.,0.,-1.));
#1331=DIRECTION('',(0.,0.,-1.));
#1332=DIRECTION('',(0.,0.,-1.));
#1333=DIRECTION('',(-1.,0.,0.));
#1334=DIRECTION('',(0.,1.,0.));
#1335=DIRECTION('',(0.,1.,0.));
#1336=DIRECTION('',(0.,0.,1.));
#1337=DIRECTION('',(0.,1.,0.));
#1338=DIRECTION('',(-2.52980506913284E-16,0.,1.));
#1339=DIRECTION('',(1.,0.,2.52980506913284E-16));
#1340=DIRECTION('',(-2.52980506913284E-16,0.,1.));
#1341=DIRECTION('',(1.,0.,2.52980506913284E-16));
#1342=DIRECTION('',(0.,1.,0.));
#1343=DIRECTION('',(0.,1.,0.));
#1344=DIRECTION('',(0.,0.,1.));
#1345=DIRECTION('',(0.,1.,0.));
#1346=DIRECTION('',(0.,0.,-1.));
#1347=DIRECTION('',(-1.,0.,0.));
#1348=DIRECTION('',(0.,1.,0.));
#1349=DIRECTION('',(0.,0.,1.));
#1350=DIRECTION('',(0.,1.,0.));
#1351=DIRECTION('',(0.,1.,0.));
#1352=DIRECTION('',(1.44560289664734E-16,0.,-1.));
#1353=DIRECTION('',(-1.,0.,-1.44560289664734E-16));
#1354=DIRECTION('',(0.,0.,1.));
#1355=DIRECTION('',(1.,0.,0.));
#1356=DIRECTION('',(0.,0.,1.));
#1357=DIRECTION('',(1.,0.,0.));
#1358=DIRECTION('',(0.,1.,0.));
#1359=DIRECTION('',(1.44560289664734E-16,0.,-1.));
#1360=DIRECTION('',(-1.,0.,-1.44560289664734E-16));
#1361=DIRECTION('',(0.,1.,0.));
#1362=DIRECTION('',(0.,1.,0.));
#1363=DIRECTION('',(0.,0.,1.));
#1364=DIRECTION('',(9.03501810404587E-18,1.,0.));
#1365=DIRECTION('',(-1.,9.03501810404587E-18,0.));
#1366=DIRECTION('',(0.,0.,-1.));
#1367=DIRECTION('',(0.,0.,-1.));
#1368=DIRECTION('',(1.26490253456642E-16,-1.,0.));
#1369=DIRECTION('',(1.,1.26490253456642E-16,0.));
#1370=DIRECTION('',(0.,0.,-1.));
#1371=DIRECTION('',(0.,0.,-1.));
#1372=DIRECTION('',(0.,0.,-1.));
#1373=DIRECTION('',(-1.,0.,0.));
#1374=DIRECTION('',(0.,0.,-1.));
#1375=DIRECTION('',(-1.,0.,0.));
#1376=DIRECTION('',(0.,0.,-1.));
#1377=DIRECTION('',(-1.,0.,0.));
#1378=DIRECTION('',(0.,0.,-1.));
#1379=DIRECTION('',(0.,0.,-1.));
#1380=DIRECTION('',(0.,0.,-1.));
#1381=DIRECTION('',(-1.,0.,0.));
#1382=DIRECTION('',(0.,0.,-1.));
#1383=DIRECTION('',(0.,0.,-1.));
#1384=DIRECTION('',(9.03501810404587E-18,1.,0.));
#1385=DIRECTION('',(-1.,9.03501810404587E-18,0.));
#1386=DIRECTION('',(1.26490253456642E-16,-1.,0.));
#1387=DIRECTION('',(1.,1.26490253456642E-16,0.));
#1388=DIRECTION('',(1.,0.,0.));
#1389=DIRECTION('',(0.,0.,-1.));
#1390=DIRECTION('',(1.,0.,0.));
#1391=DIRECTION('',(0.,0.,-1.));
#1392=DIRECTION('',(1.,0.,0.));
#1393=DIRECTION('',(0.,0.,-1.));
#1394=DIRECTION('',(-1.,0.,0.));
#1395=DIRECTION('',(0.,0.,1.));
#1396=DIRECTION('',(-1.,0.,0.));
#1397=DIRECTION('',(0.,0.,1.));
#1398=DIRECTION('',(-1.,0.,0.));
#1399=DIRECTION('',(0.,0.,1.));
#1400=DIRECTION('',(1.,0.,0.));
#1401=DIRECTION('',(0.,0.,-1.));
#1402=DIRECTION('',(-1.,0.,0.));
#1403=DIRECTION('',(0.,0.,1.));
#1404=DIRECTION('',(1.,0.,0.));
#1405=DIRECTION('',(0.,0.,-1.));
#1406=DIRECTION('',(1.,0.,0.));
#1407=DIRECTION('',(0.,0.,-1.));
#1408=DIRECTION('',(-1.,0.,0.));
#1409=DIRECTION('',(0.,0.,1.));
#1410=DIRECTION('',(-1.,0.,0.));
#1411=DIRECTION('',(0.,0.,1.));
#1412=CARTESIAN_POINT('',(0.,0.,0.));
#1413=CARTESIAN_POINT('',(0.8,0.,2.4));
#1414=CARTESIAN_POINT('',(0.8,0.4,2.4));
#1415=CARTESIAN_POINT('',(0.800000000000002,0.4,-2.36643191323985));
#1416=CARTESIAN_POINT('',(0.8,0.4,-2.9732137494637));
#1417=CARTESIAN_POINT('',(0.8,0.,0.));
#1418=CARTESIAN_POINT('',(0.8,0.4,2.9732137494637));
#1419=CARTESIAN_POINT('',(0.8,0.4,2.4));
#1420=CARTESIAN_POINT('',(0.800000000000002,0.4,2.36643191323985));
#1421=CARTESIAN_POINT('',(0.800000000000002,0.,0.));
#1422=CARTESIAN_POINT('',(-60.,0.,0.));
#1423=CARTESIAN_POINT('',(-60.,0.400000000000001,-3.07408522978788));
#1424=CARTESIAN_POINT('',(0.699999999999999,0.400000000000001,-3.07408522978788));
#1425=CARTESIAN_POINT('',(-0.699999999999999,0.400000000000001,-3.07408522978788));
#1426=CARTESIAN_POINT('',(-0.699999999999999,0.,0.));
#1427=CARTESIAN_POINT('',(-0.699999999999999,0.400000000000001,3.07408522978788));
#1428=CARTESIAN_POINT('',(-60.,0.400000000000001,3.07408522978788));
#1429=CARTESIAN_POINT('',(0.699999999999999,0.400000000000001,3.07408522978788));
#1430=CARTESIAN_POINT('',(0.699999999999999,0.,0.));
#1431=CARTESIAN_POINT('',(-0.8,0.,2.4));
#1432=CARTESIAN_POINT('',(-0.8,0.4,2.4));
#1433=CARTESIAN_POINT('',(-0.800000000000002,0.4,2.36643191323985));
#1434=CARTESIAN_POINT('',(-0.8,0.4,2.9732137494637));
#1435=CARTESIAN_POINT('',(-0.8,0.,0.));
#1436=CARTESIAN_POINT('',(-0.8,0.4,-2.9732137494637));
#1437=CARTESIAN_POINT('',(-0.8,0.4,2.4));
#1438=CARTESIAN_POINT('',(-0.800000000000002,0.4,-2.36643191323985));
#1439=CARTESIAN_POINT('',(-0.800000000000002,0.,0.));
#1440=CARTESIAN_POINT('',(-60.,0.,0.));
#1441=CARTESIAN_POINT('',(-60.,0.400000000000001,1.95959179422654));
#1442=CARTESIAN_POINT('',(3.,0.4,1.95959179422654));
#1443=CARTESIAN_POINT('',(-3.,0.4,1.95959179422653));
#1444=CARTESIAN_POINT('',(-3.,0.4,1.95959179422654));
#1445=CARTESIAN_POINT('',(-3.21195183835938,0.4,1.95959179422654));
#1446=CARTESIAN_POINT('',(-3.58804720794681,0.000649222677642791,2.04040815308718));
#1447=CARTESIAN_POINT('',(-3.2119532188843,-0.400000000000003,1.95959179422656));
#1448=CARTESIAN_POINT('',(-3.,-0.400000000000002,1.95959179422656));
#1449=CARTESIAN_POINT('',(-3.,-0.400000000000001,1.95959179422653));
#1450=CARTESIAN_POINT('',(-60.,-0.400000000000008,1.95959179422654));
#1451=CARTESIAN_POINT('',(3.,-0.400000000000008,1.95959179422654));
#1452=CARTESIAN_POINT('',(3.,-0.4,1.95959179422654));
#1453=CARTESIAN_POINT('',(3.21195183835938,-0.4,1.95959179422654));
#1454=CARTESIAN_POINT('',(3.58804720794681,-0.000649222677643469,2.04040815308719));
#1455=CARTESIAN_POINT('',(3.21195321888431,0.400000000000002,1.95959179422656));
#1456=CARTESIAN_POINT('',(3.,0.400000000000002,1.95959179422656));
#1457=CARTESIAN_POINT('',(-60.,-0.400000000000008,-1.95959179422654));
#1458=CARTESIAN_POINT('',(3.,-0.4,-1.95959179422653));
#1459=CARTESIAN_POINT('',(-3.,-0.400000000000008,-1.95959179422654));
#1460=CARTESIAN_POINT('',(-3.,-0.4,-1.95959179422654));
#1461=CARTESIAN_POINT('',(-3.21195183835938,-0.400000000000001,-1.95959179422654));
#1462=CARTESIAN_POINT('',(-3.58804720794681,-0.000649222677639945,-2.04040815308719));
#1463=CARTESIAN_POINT('',(-3.2119532188843,0.400000000000002,-1.95959179422656));
#1464=CARTESIAN_POINT('',(-3.,0.400000000000002,-1.95959179422656));
#1465=CARTESIAN_POINT('',(-3.,0.4,-1.95959179422653));
#1466=CARTESIAN_POINT('',(-60.,0.400000000000001,-1.95959179422654));
#1467=CARTESIAN_POINT('',(3.,0.4,-1.95959179422654));
#1468=CARTESIAN_POINT('',(3.,0.4,-1.95959179422654));
#1469=CARTESIAN_POINT('',(3.21195183835938,0.4,-1.95959179422654));
#1470=CARTESIAN_POINT('',(3.58804720794681,0.000649222677644444,-2.04040815308718));
#1471=CARTESIAN_POINT('',(3.21195321888431,-0.400000000000002,-1.95959179422656));
#1472=CARTESIAN_POINT('',(3.,-0.400000000000002,-1.95959179422656));
#1473=CARTESIAN_POINT('',(-5.,-1.95959179422656,-0.399999999999998));
#1474=CARTESIAN_POINT('',(-4.78804816164062,-1.95959179422656,-0.399999999999998));
#1475=CARTESIAN_POINT('',(-4.4119527920532,-2.04040815308718,-0.000649222677641653));
#1476=CARTESIAN_POINT('',(-4.7880467811157,-1.95959179422656,0.400000000000002));
#1477=CARTESIAN_POINT('',(-5.00000000000001,-1.95959179422656,0.4));
#1478=CARTESIAN_POINT('',(-5.,-1.95959179422657,-0.399999999999998));
#1479=CARTESIAN_POINT('',(-5.00000000000001,-1.95959179422656,0.399999999999999));
#1480=CARTESIAN_POINT('',(-60.,-1.95959179422654,0.399999999999985));
#1481=CARTESIAN_POINT('',(-8.00000000000001,-1.95959179422657,0.399999999999998));
#1482=CARTESIAN_POINT('',(-8.00000000000001,0.,0.));
#1483=CARTESIAN_POINT('',(-8.00000000000001,1.95959179422651,0.399999999999998));
#1484=CARTESIAN_POINT('',(-60.,1.95959179422654,0.399999999999985));
#1485=CARTESIAN_POINT('',(-5.00000000000001,1.95959179422653,0.399999999999999));
#1486=CARTESIAN_POINT('',(-5.00000000000001,1.95959179422653,0.399999999999999));
#1487=CARTESIAN_POINT('',(-4.78804816164063,1.95959179422653,0.4));
#1488=CARTESIAN_POINT('',(-4.4119527920532,2.04040815308719,0.000649222677645529));
#1489=CARTESIAN_POINT('',(-4.7880467811157,1.95959179422657,-0.400000000000001));
#1490=CARTESIAN_POINT('',(-5.00000000000001,1.95959179422657,-0.4));
#1491=CARTESIAN_POINT('',(-5.,1.95959179422651,-0.399999999999998));
#1492=CARTESIAN_POINT('',(-60.,1.95959179422654,-0.400000000000002));
#1493=CARTESIAN_POINT('',(-8.00000000000001,1.95959179422651,-0.400000000000002));
#1494=CARTESIAN_POINT('',(-8.00000000000001,0.,0.));
#1495=CARTESIAN_POINT('',(-8.00000000000001,-1.95959179422657,-0.400000000000002));
#1496=CARTESIAN_POINT('',(-60.,-1.95959179422654,-0.400000000000002));
#1497=CARTESIAN_POINT('',(-60.,1.95959179422654,-0.400000000000002));
#1498=CARTESIAN_POINT('',(5.,1.95959179422653,-0.400000000000002));
#1499=CARTESIAN_POINT('',(8.00000000000001,1.95959179422651,-0.400000000000002));
#1500=CARTESIAN_POINT('',(5.00000000000001,1.95959179422653,0.399999999999999));
#1501=CARTESIAN_POINT('',(4.78804816164062,1.95959179422653,0.400000000000001));
#1502=CARTESIAN_POINT('',(4.41195279205319,2.04040815308719,0.000649222677646016));
#1503=CARTESIAN_POINT('',(4.7880467811157,1.95959179422656,-0.400000000000002));
#1504=CARTESIAN_POINT('',(5.00000000000001,1.95959179422656,-0.400000000000001));
#1505=CARTESIAN_POINT('',(5.00000000000001,1.95959179422653,0.4));
#1506=CARTESIAN_POINT('',(-60.,1.95959179422654,0.39999999999999));
#1507=CARTESIAN_POINT('',(8.00000000000001,1.95959179422651,0.4));
#1508=CARTESIAN_POINT('',(8.00000000000001,0.,0.));
#1509=CARTESIAN_POINT('',(8.00000000000001,-1.95959179422657,0.4));
#1510=CARTESIAN_POINT('',(-60.,-1.95959179422654,0.39999999999999));
#1511=CARTESIAN_POINT('',(5.00000000000001,-1.95959179422656,0.4));
#1512=CARTESIAN_POINT('',(5.,-1.95959179422656,-0.399999999999999));
#1513=CARTESIAN_POINT('',(4.78804816164062,-1.95959179422656,-0.399999999999999));
#1514=CARTESIAN_POINT('',(4.41195279205319,-2.04040815308718,-0.000649222677641869));
#1515=CARTESIAN_POINT('',(4.7880467811157,-1.95959179422656,0.400000000000003));
#1516=CARTESIAN_POINT('',(5.00000000000001,-1.95959179422656,0.400000000000001));
#1517=CARTESIAN_POINT('',(5.,-1.95959179422656,-0.400000000000002));
#1518=CARTESIAN_POINT('',(-60.,-1.95959179422654,-0.400000000000002));
#1519=CARTESIAN_POINT('',(8.00000000000001,-1.95959179422657,-0.400000000000002));
#1520=CARTESIAN_POINT('',(8.00000000000001,0.,0.));
#1521=CARTESIAN_POINT('',(8.,0.,2.));
#1522=CARTESIAN_POINT('',(8.00000000000001,-90.,-0.400000000000002));
#1523=CARTESIAN_POINT('',(8.00000000000001,-2.46779253585064,-0.400000000000002));
#1524=CARTESIAN_POINT('',(8.,0.,0.));
#1525=CARTESIAN_POINT('',(8.00000000000001,2.46779253585058,-0.400000000000002));
#1526=CARTESIAN_POINT('',(8.00000000000001,-90.,-0.400000000000002));
#1527=CARTESIAN_POINT('',(-60.,0.,0.));
#1528=CARTESIAN_POINT('',(-60.,2.56904651573303,-0.400000000000002));
#1529=CARTESIAN_POINT('',(7.9,2.56904651573303,-0.400000000000002));
#1530=CARTESIAN_POINT('',(7.3,2.56904651573303,-0.400000000000002));
#1531=CARTESIAN_POINT('',(7.9,0.,0.));
#1532=CARTESIAN_POINT('',(7.9,-2.56904651573303,-0.400000000000002));
#1533=CARTESIAN_POINT('',(-60.,-2.56904651573303,-0.400000000000002));
#1534=CARTESIAN_POINT('',(7.3,-2.56904651573303,-0.400000000000002));
#1535=CARTESIAN_POINT('',(7.3,0.,0.));
#1536=CARTESIAN_POINT('',(-60.,0.,0.));
#1537=CARTESIAN_POINT('',(-60.,-2.56904651573303,0.39999999999999));
#1538=CARTESIAN_POINT('',(7.9,-2.56904651573303,0.39999999999999));
#1539=CARTESIAN_POINT('',(7.3,-2.56904651573303,0.39999999999999));
#1540=CARTESIAN_POINT('',(7.9,0.,0.));
#1541=CARTESIAN_POINT('',(7.9,2.56904651573303,0.39999999999999));
#1542=CARTESIAN_POINT('',(-60.,2.56904651573303,0.39999999999999));
#1543=CARTESIAN_POINT('',(7.3,2.56904651573303,0.39999999999999));
#1544=CARTESIAN_POINT('',(7.3,0.,0.));
#1545=CARTESIAN_POINT('',(7.2,0.,2.6));
#1546=CARTESIAN_POINT('',(7.2,0.,-0.400000000000002));
#1547=CARTESIAN_POINT('',(7.2,2.46779253585061,-0.400000000000002));
#1548=CARTESIAN_POINT('',(7.2,2.36643191323985,-0.400000000000002));
#1549=CARTESIAN_POINT('',(7.2,0.,0.));
#1550=CARTESIAN_POINT('',(7.2,-2.46779253585061,-0.400000000000002));
#1551=CARTESIAN_POINT('',(7.2,0.,-0.400000000000002));
#1552=CARTESIAN_POINT('',(7.2,-2.36643191323985,-0.400000000000002));
#1553=CARTESIAN_POINT('',(7.2,0.,0.));
#1554=CARTESIAN_POINT('',(7.2,0.,2.6));
#1555=CARTESIAN_POINT('',(7.2,0.,0.4));
#1556=CARTESIAN_POINT('',(7.2,-2.46779253585061,0.4));
#1557=CARTESIAN_POINT('',(7.2,-2.36643191323985,0.39999999999999));
#1558=CARTESIAN_POINT('',(7.2,0.,0.));
#1559=CARTESIAN_POINT('',(7.2,2.46779253585061,0.4));
#1560=CARTESIAN_POINT('',(7.2,0.,0.4));
#1561=CARTESIAN_POINT('',(7.2,2.36643191323985,0.39999999999999));
#1562=CARTESIAN_POINT('',(7.2,0.,0.));
#1563=CARTESIAN_POINT('',(-60.,0.,0.));
#1564=CARTESIAN_POINT('',(-60.,0.400000000000001,2.36643191323985));
#1565=CARTESIAN_POINT('',(3.,0.4,2.36643191323985));
#1566=CARTESIAN_POINT('',(3.,0.4,2.36643191323985));
#1567=CARTESIAN_POINT('',(3.21177731416687,0.4,2.36643191323985));
#1568=CARTESIAN_POINT('',(3.58822237907096,0.000615622984669203,2.43356804728186));
#1569=CARTESIAN_POINT('',(3.21177745395156,-0.400000000000001,2.36643191323985));
#1570=CARTESIAN_POINT('',(3.,-0.400000000000001,2.36643191323985));
#1571=CARTESIAN_POINT('',(3.,-0.4,2.36643191323985));
#1572=CARTESIAN_POINT('',(-60.,-0.400000000000008,2.36643191323985));
#1573=CARTESIAN_POINT('',(0.800000000000002,-0.4,2.36643191323985));
#1574=CARTESIAN_POINT('',(0.800000000000002,0.,0.));
#1575=CARTESIAN_POINT('',(0.800000000000002,-0.4,-2.36643191323985));
#1576=CARTESIAN_POINT('',(-60.,-0.400000000000008,-2.36643191323985));
#1577=CARTESIAN_POINT('',(3.,-0.4,-2.36643191323985));
#1578=CARTESIAN_POINT('',(3.,-0.4,-2.36643191323985));
#1579=CARTESIAN_POINT('',(3.21177731416687,-0.4,-2.36643191323985));
#1580=CARTESIAN_POINT('',(3.58822237907096,-0.000615622984668146,-2.43356804728186));
#1581=CARTESIAN_POINT('',(3.21177745395156,0.400000000000001,-2.36643191323985));
#1582=CARTESIAN_POINT('',(3.,0.4,-2.36643191323985));
#1583=CARTESIAN_POINT('',(3.,0.4,-2.36643191323985));
#1584=CARTESIAN_POINT('',(-60.,0.400000000000001,-2.36643191323985));
#1585=CARTESIAN_POINT('',(-60.,-2.36643191323985,-0.400000000000002));
#1586=CARTESIAN_POINT('',(5.,-2.36643191323986,-0.400000000000002));
#1587=CARTESIAN_POINT('',(5.00000000000001,-2.36643191323986,0.399999999999999));
#1588=CARTESIAN_POINT('',(4.78822268583314,-2.36643191323986,0.400000000000001));
#1589=CARTESIAN_POINT('',(4.41177762092905,-2.43356804728185,0.000615622984670639));
#1590=CARTESIAN_POINT('',(4.78822254604844,-2.36643191323985,-0.4));
#1591=CARTESIAN_POINT('',(5.,-2.36643191323985,-0.4));
#1592=CARTESIAN_POINT('',(5.00000000000001,-2.36643191323986,0.399999999999999));
#1593=CARTESIAN_POINT('',(-60.,-2.36643191323985,0.39999999999999));
#1594=CARTESIAN_POINT('',(-60.,2.36643191323985,0.39999999999999));
#1595=CARTESIAN_POINT('',(5.00000000000001,2.36643191323983,0.4));
#1596=CARTESIAN_POINT('',(5.,2.36643191323983,-0.399999999999999));
#1597=CARTESIAN_POINT('',(4.78822268583313,2.36643191323983,-0.399999999999999));
#1598=CARTESIAN_POINT('',(4.41177762092904,2.43356804728186,-0.000615622984666628));
#1599=CARTESIAN_POINT('',(4.78822254604844,2.36643191323985,0.400000000000001));
#1600=CARTESIAN_POINT('',(5.00000000000001,2.36643191323985,0.4));
#1601=CARTESIAN_POINT('',(5.,2.36643191323983,-0.399999999999999));
#1602=CARTESIAN_POINT('',(-60.,2.36643191323985,-0.400000000000002));
#1603=CARTESIAN_POINT('',(-8.,0.,2.));
#1604=CARTESIAN_POINT('',(-8.00000000000001,-90.,0.399999999999998));
#1605=CARTESIAN_POINT('',(-8.00000000000001,-2.46779253585064,0.399999999999998));
#1606=CARTESIAN_POINT('',(-8.,0.,0.));
#1607=CARTESIAN_POINT('',(-8.00000000000001,2.46779253585058,0.399999999999998));
#1608=CARTESIAN_POINT('',(-8.00000000000001,-90.,0.399999999999998));
#1609=CARTESIAN_POINT('',(60.,0.,0.));
#1610=CARTESIAN_POINT('',(60.,-2.56904651573302,0.400000000000015));
#1611=CARTESIAN_POINT('',(-7.9,-2.56904651573302,0.400000000000015));
#1612=CARTESIAN_POINT('',(-7.3,-2.56904651573302,0.400000000000015));
#1613=CARTESIAN_POINT('',(-7.3,0.,0.));
#1614=CARTESIAN_POINT('',(-7.3,2.56904651573302,0.400000000000015));
#1615=CARTESIAN_POINT('',(60.,2.56904651573302,0.400000000000015));
#1616=CARTESIAN_POINT('',(-7.9,2.56904651573302,0.400000000000015));
#1617=CARTESIAN_POINT('',(-7.9,0.,0.));
#1618=CARTESIAN_POINT('',(-7.2,0.,2.6));
#1619=CARTESIAN_POINT('',(-7.2,0.,0.399999999999998));
#1620=CARTESIAN_POINT('',(-7.2,2.36643191323984,0.400000000000015));
#1621=CARTESIAN_POINT('',(-7.2,2.46779253585061,0.399999999999998));
#1622=CARTESIAN_POINT('',(-7.2,0.,0.));
#1623=CARTESIAN_POINT('',(-7.2,-2.46779253585061,0.399999999999998));
#1624=CARTESIAN_POINT('',(-7.2,0.,0.399999999999998));
#1625=CARTESIAN_POINT('',(-7.2,-2.36643191323984,0.400000000000015));
#1626=CARTESIAN_POINT('',(-7.2,0.,0.));
#1627=CARTESIAN_POINT('',(8.,0.,2.));
#1628=CARTESIAN_POINT('',(8.00000000000001,-90.,0.4));
#1629=CARTESIAN_POINT('',(8.00000000000001,2.46779253585058,0.4));
#1630=CARTESIAN_POINT('',(8.,0.,0.));
#1631=CARTESIAN_POINT('',(8.00000000000001,-2.46779253585064,0.4));
#1632=CARTESIAN_POINT('',(8.00000000000001,-90.,0.4));
#1633=CARTESIAN_POINT('',(0.8,0.,2.4));
#1634=CARTESIAN_POINT('',(0.8,-0.4,2.4));
#1635=CARTESIAN_POINT('',(0.8,-0.4,2.9732137494637));
#1636=CARTESIAN_POINT('',(0.8,0.,0.));
#1637=CARTESIAN_POINT('',(0.8,-0.4,-2.9732137494637));
#1638=CARTESIAN_POINT('',(0.8,-0.4,2.4));
#1639=CARTESIAN_POINT('',(-60.,0.,0.));
#1640=CARTESIAN_POINT('',(-60.,-0.400000000000008,3.07408522978788));
#1641=CARTESIAN_POINT('',(0.699999999999999,-0.400000000000008,3.07408522978788));
#1642=CARTESIAN_POINT('',(-0.699999999999999,-0.400000000000008,3.07408522978788));
#1643=CARTESIAN_POINT('',(-0.699999999999999,0.,0.));
#1644=CARTESIAN_POINT('',(-0.699999999999999,-0.400000000000008,-3.07408522978788));
#1645=CARTESIAN_POINT('',(-60.,-0.400000000000008,-3.07408522978788));
#1646=CARTESIAN_POINT('',(0.699999999999999,-0.400000000000008,-3.07408522978788));
#1647=CARTESIAN_POINT('',(0.699999999999999,0.,0.));
#1648=CARTESIAN_POINT('',(-8.,0.,2.));
#1649=CARTESIAN_POINT('',(-8.00000000000001,-90.,-0.400000000000002));
#1650=CARTESIAN_POINT('',(-8.00000000000001,2.46779253585058,-0.400000000000002));
#1651=CARTESIAN_POINT('',(-8.,0.,0.));
#1652=CARTESIAN_POINT('',(-8.00000000000001,-2.46779253585064,-0.400000000000002));
#1653=CARTESIAN_POINT('',(-8.00000000000001,-90.,-0.400000000000002));
#1654=CARTESIAN_POINT('',(60.,0.,0.));
#1655=CARTESIAN_POINT('',(60.,2.56904651573303,-0.400000000000002));
#1656=CARTESIAN_POINT('',(-7.9,2.56904651573303,-0.400000000000002));
#1657=CARTESIAN_POINT('',(-7.3,2.56904651573303,-0.400000000000002));
#1658=CARTESIAN_POINT('',(-7.3,0.,0.));
#1659=CARTESIAN_POINT('',(-7.3,-2.56904651573303,-0.400000000000002));
#1660=CARTESIAN_POINT('',(60.,-2.56904651573303,-0.400000000000002));
#1661=CARTESIAN_POINT('',(-7.9,-2.56904651573303,-0.400000000000002));
#1662=CARTESIAN_POINT('',(-7.9,0.,0.));
#1663=CARTESIAN_POINT('',(-7.2,0.,2.6));
#1664=CARTESIAN_POINT('',(-7.2,0.,-0.400000000000002));
#1665=CARTESIAN_POINT('',(-7.2,-2.36643191323985,-0.400000000000002));
#1666=CARTESIAN_POINT('',(-7.2,-2.46779253585061,-0.400000000000002));
#1667=CARTESIAN_POINT('',(-7.2,0.,0.));
#1668=CARTESIAN_POINT('',(-7.2,2.46779253585061,-0.400000000000002));
#1669=CARTESIAN_POINT('',(-7.2,0.,-0.400000000000002));
#1670=CARTESIAN_POINT('',(-7.2,2.36643191323985,-0.400000000000002));
#1671=CARTESIAN_POINT('',(-7.2,0.,0.));
#1672=CARTESIAN_POINT('',(60.,0.,0.));
#1673=CARTESIAN_POINT('',(60.,0.399999999999999,-2.36643191323985));
#1674=CARTESIAN_POINT('',(-3.,0.4,-2.36643191323985));
#1675=CARTESIAN_POINT('',(-3.,0.4,-2.36643191323985));
#1676=CARTESIAN_POINT('',(-3.21177731416687,0.4,-2.36643191323985));
#1677=CARTESIAN_POINT('',(-3.58822237907096,0.000615622984667631,-2.43356804728186));
#1678=CARTESIAN_POINT('',(-3.21177745395156,-0.400000000000001,-2.36643191323985));
#1679=CARTESIAN_POINT('',(-3.,-0.400000000000001,-2.36643191323985));
#1680=CARTESIAN_POINT('',(-3.,-0.400000000000001,-2.36643191323985));
#1681=CARTESIAN_POINT('',(60.,-0.399999999999993,-2.36643191323985));
#1682=CARTESIAN_POINT('',(-0.800000000000002,-0.400000000000001,-2.36643191323985));
#1683=CARTESIAN_POINT('',(-0.800000000000002,0.,0.));
#1684=CARTESIAN_POINT('',(-0.800000000000002,-0.400000000000001,2.36643191323985));
#1685=CARTESIAN_POINT('',(60.,-0.399999999999993,2.36643191323985));
#1686=CARTESIAN_POINT('',(-3.,-0.400000000000001,2.36643191323985));
#1687=CARTESIAN_POINT('',(-3.,-0.4,2.36643191323985));
#1688=CARTESIAN_POINT('',(-3.21177731416687,-0.400000000000001,2.36643191323985));
#1689=CARTESIAN_POINT('',(-3.58822237907096,-0.000615622984668688,2.43356804728186));
#1690=CARTESIAN_POINT('',(-3.21177745395156,0.400000000000001,2.36643191323985));
#1691=CARTESIAN_POINT('',(-3.,0.400000000000001,2.36643191323985));
#1692=CARTESIAN_POINT('',(-3.,0.4,2.36643191323985));
#1693=CARTESIAN_POINT('',(60.,0.399999999999999,2.36643191323985));
#1694=CARTESIAN_POINT('',(-5.,2.36643191323983,-0.399999999999998));
#1695=CARTESIAN_POINT('',(-4.78822268583313,2.36643191323983,-0.399999999999998));
#1696=CARTESIAN_POINT('',(-4.41177762092905,2.43356804728186,-0.000615622984666926));
#1697=CARTESIAN_POINT('',(-4.78822254604844,2.36643191323985,0.400000000000001));
#1698=CARTESIAN_POINT('',(-5.00000000000001,2.36643191323985,0.399999999999999));
#1699=CARTESIAN_POINT('',(-5.,2.36643191323985,-0.400000000000002));
#1700=CARTESIAN_POINT('',(-5.00000000000001,2.36643191323983,0.399999999999999));
#1701=CARTESIAN_POINT('',(60.,2.36643191323984,0.400000000000015));
#1702=CARTESIAN_POINT('',(60.,-2.36643191323984,0.400000000000015));
#1703=CARTESIAN_POINT('',(-5.00000000000001,-2.36643191323986,0.399999999999999));
#1704=CARTESIAN_POINT('',(-5.00000000000001,-2.36643191323986,0.399999999999998));
#1705=CARTESIAN_POINT('',(-4.78822268583314,-2.36643191323986,0.4));
#1706=CARTESIAN_POINT('',(-4.41177762092905,-2.43356804728185,0.000615622984670287));
#1707=CARTESIAN_POINT('',(-4.78822254604844,-2.36643191323985,-0.399999999999999));
#1708=CARTESIAN_POINT('',(-5.,-2.36643191323985,-0.399999999999999));
#1709=CARTESIAN_POINT('',(-5.,-2.36643191323987,-0.399999999999998));
#1710=CARTESIAN_POINT('',(60.,-2.36643191323985,-0.400000000000002));
#1711=CARTESIAN_POINT('',(60.,2.36643191323985,-0.400000000000002));
#1712=CARTESIAN_POINT('',(-0.8,0.,2.4));
#1713=CARTESIAN_POINT('',(-0.8,-0.400000000000001,2.4));
#1714=CARTESIAN_POINT('',(-0.8,-0.400000000000001,-2.9732137494637));
#1715=CARTESIAN_POINT('',(-0.8,0.,0.));
#1716=CARTESIAN_POINT('',(-0.8,-0.400000000000001,2.9732137494637));
#1717=CARTESIAN_POINT('',(-0.8,-0.400000000000001,2.4));
#1718=CARTESIAN_POINT('',(-8.00000000000001,-90.,-0.400000000000002));
#1719=CARTESIAN_POINT('',(-7.3,-2.56904651573303,-0.400000000000002));
#1720=CARTESIAN_POINT('',(-7.24684098283808,-2.56904651573303,-0.400000000000002));
#1721=CARTESIAN_POINT('',(-7.19999999999926,-2.52093314467838,-0.400000000000002));
#1722=CARTESIAN_POINT('',(-7.19999999999916,-2.46779253585081,-0.400000000000002));
#1723=CARTESIAN_POINT('',(-5.,-90.,-0.399999999999998));
#1724=CARTESIAN_POINT('',(-8.,-2.46779253585061,-0.4));
#1725=CARTESIAN_POINT('',(-8.,-2.52094409811739,-0.4));
#1726=CARTESIAN_POINT('',(-7.95317088969334,-2.56904651573326,-0.400000000000002));
#1727=CARTESIAN_POINT('',(-7.90000000000006,-2.5690465157333,-0.400000000000002));
#1728=CARTESIAN_POINT('',(-5.,-90.,0.));
#1729=CARTESIAN_POINT('',(-5.00000000000001,-90.,0.399999999999999));
#1730=CARTESIAN_POINT('',(-8.00000000000001,-90.,0.399999999999998));
#1731=CARTESIAN_POINT('',(-7.2,-2.46779253585061,0.399999999999998));
#1732=CARTESIAN_POINT('',(-7.2,-2.5209440981174,0.399999999999998));
#1733=CARTESIAN_POINT('',(-7.24682911030666,-2.56904651573327,0.399999999999998));
#1734=CARTESIAN_POINT('',(-7.29999999999994,-2.5690465157333,0.399999999999998));
#1735=CARTESIAN_POINT('',(-7.9,-2.56904651573302,0.400000000000015));
#1736=CARTESIAN_POINT('',(-7.95315901716191,-2.56904651573302,0.400000000000015));
#1737=CARTESIAN_POINT('',(-8.00000000000074,-2.52093314467837,0.399999999999998));
#1738=CARTESIAN_POINT('',(-8.00000000000085,-2.46779253585081,0.399999999999998));
#1739=CARTESIAN_POINT('',(-8.00000000000001,-90.,0.399999999999998));
#1740=CARTESIAN_POINT('',(-7.3,2.56904651573302,0.400000000000015));
#1741=CARTESIAN_POINT('',(-7.24684098283808,2.56904651573302,0.400000000000015));
#1742=CARTESIAN_POINT('',(-7.19999999999926,2.52093314467838,0.399999999999998));
#1743=CARTESIAN_POINT('',(-7.19999999999916,2.46779253585081,0.399999999999998));
#1744=CARTESIAN_POINT('',(-5.00000000000001,-90.,0.399999999999999));
#1745=CARTESIAN_POINT('',(-8.,2.46779253585061,0.4));
#1746=CARTESIAN_POINT('',(-8.,2.52094409811739,0.4));
#1747=CARTESIAN_POINT('',(-7.95317088969334,2.56904651573327,0.399999999999998));
#1748=CARTESIAN_POINT('',(-7.90000000000006,2.5690465157333,0.399999999999998));
#1749=CARTESIAN_POINT('',(-5.,-90.,0.));
#1750=CARTESIAN_POINT('',(-5.,-90.,-0.399999999999998));
#1751=CARTESIAN_POINT('',(-8.00000000000001,-90.,-0.400000000000002));
#1752=CARTESIAN_POINT('',(-7.2,2.46779253585061,-0.400000000000002));
#1753=CARTESIAN_POINT('',(-7.2,2.5209440981174,-0.400000000000002));
#1754=CARTESIAN_POINT('',(-7.24682911030666,2.56904651573326,-0.400000000000002));
#1755=CARTESIAN_POINT('',(-7.29999999999994,2.5690465157333,-0.400000000000002));
#1756=CARTESIAN_POINT('',(-7.90000000000001,2.56904651573303,-0.400000000000002));
#1757=CARTESIAN_POINT('',(-7.95315901716193,2.56904651573303,-0.400000000000002));
#1758=CARTESIAN_POINT('',(-8.00000000000074,2.52093314467839,-0.400000000000002));
#1759=CARTESIAN_POINT('',(-8.00000000000085,2.46779253585081,-0.400000000000002));
#1760=CARTESIAN_POINT('',(5.,-90.,0.));
#1761=CARTESIAN_POINT('',(5.,-90.,-0.400000000000002));
#1762=CARTESIAN_POINT('',(5.00000000000001,-90.,0.4));
#1763=CARTESIAN_POINT('',(8.00000000000001,-90.,0.4));
#1764=CARTESIAN_POINT('',(7.9,2.56904651573303,0.39999999999999));
#1765=CARTESIAN_POINT('',(7.95315901716193,2.56904651573303,0.39999999999999));
#1766=CARTESIAN_POINT('',(8.00000000000074,2.52093314467839,0.4));
#1767=CARTESIAN_POINT('',(8.00000000000085,2.46779253585081,0.4));
#1768=CARTESIAN_POINT('',(7.2,2.46779253585061,0.4));
#1769=CARTESIAN_POINT('',(7.2,2.5209440981174,0.4));
#1770=CARTESIAN_POINT('',(7.24682911030666,2.56904651573327,0.4));
#1771=CARTESIAN_POINT('',(7.29999999999994,2.5690465157333,0.4));
#1772=CARTESIAN_POINT('',(5.,-90.,-0.400000000000002));
#1773=CARTESIAN_POINT('',(8.,2.46779253585061,-0.400000000000004));
#1774=CARTESIAN_POINT('',(8.,2.52094409811739,-0.400000000000004));
#1775=CARTESIAN_POINT('',(7.95317088969334,2.56904651573326,-0.400000000000002));
#1776=CARTESIAN_POINT('',(7.90000000000006,2.5690465157333,-0.400000000000002));
#1777=CARTESIAN_POINT('',(7.3,2.56904651573303,-0.400000000000002));
#1778=CARTESIAN_POINT('',(7.24684098283808,2.56904651573303,-0.400000000000002));
#1779=CARTESIAN_POINT('',(7.19999999999926,2.52093314467838,-0.400000000000002));
#1780=CARTESIAN_POINT('',(7.19999999999916,2.46779253585081,-0.400000000000002));
#1781=CARTESIAN_POINT('',(5.,-90.,-0.400000000000002));
#1782=CARTESIAN_POINT('',(7.9,-2.56904651573303,-0.400000000000002));
#1783=CARTESIAN_POINT('',(7.95315901716192,-2.56904651573303,-0.400000000000002));
#1784=CARTESIAN_POINT('',(8.00000000000074,-2.52093314467837,-0.400000000000002));
#1785=CARTESIAN_POINT('',(8.00000000000085,-2.46779253585081,-0.400000000000002));
#1786=CARTESIAN_POINT('',(5.,-90.,-0.400000000000002));
#1787=CARTESIAN_POINT('',(7.2,-2.46779253585061,-0.400000000000002));
#1788=CARTESIAN_POINT('',(7.2,-2.5209440981174,-0.400000000000002));
#1789=CARTESIAN_POINT('',(7.24682911030666,-2.56904651573326,-0.400000000000002));
#1790=CARTESIAN_POINT('',(7.29999999999994,-2.5690465157333,-0.400000000000002));
#1791=CARTESIAN_POINT('',(8.00000000000001,-90.,0.4));
#1792=CARTESIAN_POINT('',(8.,-2.46779253585061,0.399999999999998));
#1793=CARTESIAN_POINT('',(8.,-2.52094409811739,0.399999999999998));
#1794=CARTESIAN_POINT('',(7.95317088969334,-2.56904651573327,0.4));
#1795=CARTESIAN_POINT('',(7.90000000000006,-2.5690465157333,0.4));
#1796=CARTESIAN_POINT('',(7.3,-2.56904651573303,0.39999999999999));
#1797=CARTESIAN_POINT('',(7.24684098283808,-2.56904651573303,0.39999999999999));
#1798=CARTESIAN_POINT('',(7.19999999999926,-2.52093314467838,0.4));
#1799=CARTESIAN_POINT('',(7.19999999999916,-2.46779253585081,0.4));
#1800=CARTESIAN_POINT('',(5.00000000000001,-90.,0.4));
#1801=CARTESIAN_POINT('',(5.,-90.,0.));
#1802=CARTESIAN_POINT('',(-3.,0.4,150.));
#1803=CARTESIAN_POINT('',(-0.8,0.4,-2.9732137494637));
#1804=CARTESIAN_POINT('',(-0.8,0.4,-3.02626435793116));
#1805=CARTESIAN_POINT('',(-0.753063930071133,0.4,-3.07408522978816));
#1806=CARTESIAN_POINT('',(-0.700000000000069,0.4,-3.0740852297882));
#1807=CARTESIAN_POINT('',(0.699999999999999,0.400000000000001,-3.07408522978788));
#1808=CARTESIAN_POINT('',(0.753055758767085,0.400000000000001,-3.07408522978788));
#1809=CARTESIAN_POINT('',(0.800000000000624,0.4,-3.02625665568214));
#1810=CARTESIAN_POINT('',(0.80000000000071,0.4,-2.97321374946387));
#1811=CARTESIAN_POINT('',(3.,0.4,150.));
#1812=CARTESIAN_POINT('',(-3.,0.4,150.));
#1813=CARTESIAN_POINT('',(3.,-0.4,150.));
#1814=CARTESIAN_POINT('',(-0.699999999999999,-0.400000000000008,-3.07408522978788));
#1815=CARTESIAN_POINT('',(-0.753055758767084,-0.400000000000008,-3.07408522978788));
#1816=CARTESIAN_POINT('',(-0.800000000000624,-0.400000000000001,-3.02625665568214));
#1817=CARTESIAN_POINT('',(-0.80000000000071,-0.400000000000001,-2.97321374946387));
#1818=CARTESIAN_POINT('',(-3.,-0.400000000000001,150.));
#1819=CARTESIAN_POINT('',(3.,-0.4,150.));
#1820=CARTESIAN_POINT('',(0.8,-0.4,-2.9732137494637));
#1821=CARTESIAN_POINT('',(0.8,-0.4,-3.02626435793116));
#1822=CARTESIAN_POINT('',(0.753063930071134,-0.4,-3.07408522978816));
#1823=CARTESIAN_POINT('',(0.700000000000069,-0.4,-3.0740852297882));
#1824=CARTESIAN_POINT('',(-3.,0.,150.));
#1825=CARTESIAN_POINT('',(3.,-5.42101086242752E-17,150.));
#1826=CARTESIAN_POINT('',(3.,-5.42101086242752E-17,150.));
#1827=CARTESIAN_POINT('',(3.,-0.4,150.));
#1828=CARTESIAN_POINT('',(3.,0.4,150.));
#1829=CARTESIAN_POINT('',(-3.,0.,150.));
#1830=CARTESIAN_POINT('',(-3.,0.4,150.));
#1831=CARTESIAN_POINT('',(-3.,-0.400000000000001,150.));
#1832=CARTESIAN_POINT('',(-3.,0.4,150.));
#1833=CARTESIAN_POINT('',(-0.699999999999999,0.400000000000001,3.07408522978788));
#1834=CARTESIAN_POINT('',(-0.753055758767085,0.400000000000001,3.07408522978788));
#1835=CARTESIAN_POINT('',(-0.800000000000624,0.4,3.02625665568214));
#1836=CARTESIAN_POINT('',(-0.80000000000071,0.4,2.97321374946387));
#1837=CARTESIAN_POINT('',(0.8,0.4,2.9732137494637));
#1838=CARTESIAN_POINT('',(0.8,0.4,3.02626435793116));
#1839=CARTESIAN_POINT('',(0.753063930071133,0.4,3.07408522978816));
#1840=CARTESIAN_POINT('',(0.700000000000069,0.4,3.0740852297882));
#1841=CARTESIAN_POINT('',(3.,-0.4,150.));
#1842=CARTESIAN_POINT('',(-0.8,-0.400000000000001,2.9732137494637));
#1843=CARTESIAN_POINT('',(-0.8,-0.400000000000001,3.02626435793116));
#1844=CARTESIAN_POINT('',(-0.753063930071134,-0.400000000000001,3.07408522978816));
#1845=CARTESIAN_POINT('',(-0.700000000000069,-0.400000000000001,3.0740852297882));
#1846=CARTESIAN_POINT('',(0.699999999999999,-0.400000000000008,3.07408522978788));
#1847=CARTESIAN_POINT('',(0.753055758767084,-0.400000000000008,3.07408522978788));
#1848=CARTESIAN_POINT('',(0.800000000000624,-0.4,3.02625665568214));
#1849=CARTESIAN_POINT('',(0.80000000000071,-0.4,2.97321374946387));
#1850=CARTESIAN_POINT('',(7.3,0.,0.));
#1851=CARTESIAN_POINT('',(-7.9,0.,0.));
#1852=CARTESIAN_POINT('',(-7.9,0.,0.));
#1853=CARTESIAN_POINT('',(-7.3,0.,0.));
#1854=CARTESIAN_POINT('',(-7.3,0.,0.));
#1855=CARTESIAN_POINT('',(0.699999999999999,0.,0.));
#1856=CARTESIAN_POINT('',(-0.699999999999999,0.,0.));
#1857=CARTESIAN_POINT('',(0.699999999999999,0.,0.));
#1858=CARTESIAN_POINT('',(-0.699999999999999,0.,0.));
#1859=CARTESIAN_POINT('',(7.3,0.,0.));
#1860=CARTESIAN_POINT('',(7.9,0.,0.));
#1861=CARTESIAN_POINT('',(7.9,0.,0.));
#1862=MECHANICAL_DESIGN_GEOMETRIC_PRESENTATION_REPRESENTATION('',(#1051),
#1863);
#1863=(
GEOMETRIC_REPRESENTATION_CONTEXT(3)
GLOBAL_UNCERTAINTY_ASSIGNED_CONTEXT((#1864))
GLOBAL_UNIT_ASSIGNED_CONTEXT((#1867,#1866,#1865))
REPRESENTATION_CONTEXT('Black_4121715_MCM','TOP_LEVEL_ASSEMBLY_PART')
);
#1864=UNCERTAINTY_MEASURE_WITH_UNIT(LENGTH_MEASURE(0.005),#1867,
'DISTANCE_ACCURACY_VALUE','Maximum Tolerance applied to model');
#1865=(
NAMED_UNIT(*)
SI_UNIT($,.STERADIAN.)
SOLID_ANGLE_UNIT()
);
#1866=(
NAMED_UNIT(*)
PLANE_ANGLE_UNIT()
SI_UNIT($,.RADIAN.)
);
#1867=(
LENGTH_UNIT()
NAMED_UNIT(*)
SI_UNIT(.MILLI.,.METRE.)
);
#1868=PRODUCT_DEFINITION_SHAPE('','',#1869);
#1869=PRODUCT_DEFINITION('','',#1871,#1870);
#1870=PRODUCT_DEFINITION_CONTEXT('',#1877,'design');
#1871=PRODUCT_DEFINITION_FORMATION_WITH_SPECIFIED_SOURCE('','',#1873,
 .NOT_KNOWN.);
#1872=PRODUCT_RELATED_PRODUCT_CATEGORY('','',(#1873));
#1873=PRODUCT('Black_4121715_MCM','Black_4121715_MCM',
'Black_4121715_MCM',(#1875));
#1874=PRODUCT_CATEGORY('','');
#1875=PRODUCT_CONTEXT('',#1877,'mechanical');
#1876=APPLICATION_PROTOCOL_DEFINITION('international standard',
'automotive_design',2010,#1877);
#1877=APPLICATION_CONTEXT(
'core data for automotive mechanical design processes');
ENDSEC;
END-ISO-10303-21;
