ISO-10303-21;
HEADER;
/* Generated by software containing ST-Developer
 * from STEP Tools, Inc. (www.steptools.com) 
 */
/* OPTION: strings as raw bytes, not using required /X/ escapes */

FILE_DESCRIPTION(
/* description */ ('Unknown'),
/* implementation_level */ '2;1');

FILE_NAME(
/* name */ 'Black_4140430_AVV',
/* time_stamp */ '2025-07-21T23:45:38+02:00',
/* author */ ('Unknown'),
/* organization */ ('Unknown'),
/* preprocessor_version */ 'ST-DEVELOPER v19.4',
/* originating_system */ 'Solid Edge',
/* authorisation */ 'Unknown');

FILE_SCHEMA (('AUTOMOTIVE_DESIGN {1 0 10303 214 3 1 1}'));
ENDSEC;

DATA;
#10=PROPERTY_DEFINITION_REPRESENTATION(#14,#12);
#11=PROPERTY_DEFINITION_REPRESENTATION(#15,#13);
#12=REPRESENTATION('',(#16),#2193);
#13=REPRESENTATION('',(#17),#2193);
#14=PROPERTY_DEFINITION('pmi validation property','',#2198);
#15=PROPERTY_DEFINITION('pmi validation property','',#2198);
#16=VALUE_REPRESENTATION_ITEM('number of annotations',COUNT_MEASURE(0.));
#17=VALUE_REPRESENTATION_ITEM('number of views',COUNT_MEASURE(0.));
#18=SHAPE_REPRESENTATION_RELATIONSHIP('','',#1263,#19);
#19=ADVANCED_BREP_SHAPE_REPRESENTATION('',(#1261),#2193);
#20=PLANE('',#1286);
#21=PLANE('',#1289);
#22=PLANE('',#1292);
#23=PLANE('',#1294);
#24=PLANE('',#1299);
#25=PLANE('',#1300);
#26=PLANE('',#1301);
#27=PLANE('',#1305);
#28=PLANE('',#1309);
#29=PLANE('',#1326);
#30=PLANE('',#1329);
#31=PLANE('',#1333);
#32=PLANE('',#1336);
#33=PLANE('',#1337);
#34=PLANE('',#1338);
#35=PLANE('',#1358);
#36=PLANE('',#1359);
#37=PLANE('',#1362);
#38=PLANE('',#1366);
#39=PLANE('',#1369);
#40=PLANE('',#1370);
#41=PLANE('',#1372);
#42=PLANE('',#1373);
#43=PLANE('',#1375);
#44=PLANE('',#1376);
#45=PLANE('',#1378);
#46=PLANE('',#1379);
#47=PLANE('',#1381);
#48=PLANE('',#1382);
#49=PLANE('',#1395);
#50=PLANE('',#1397);
#51=PLANE('',#1400);
#52=PLANE('',#1402);
#53=CONICAL_SURFACE('',#1271,2.74999999999999,1.39626340159547);
#54=CONICAL_SURFACE('',#1276,3.6,1.39626340159546);
#55=CIRCLE('',#1266,2.74999999999999);
#56=CIRCLE('',#1267,2.74999999999999);
#57=CIRCLE('',#1269,2.74999999999999);
#58=CIRCLE('',#1270,2.74999999999999);
#59=CIRCLE('',#1272,3.6);
#60=CIRCLE('',#1273,3.6);
#61=CIRCLE('',#1274,3.6);
#62=CIRCLE('',#1275,2.74999999999999);
#63=CIRCLE('',#1277,3.6);
#64=CIRCLE('',#1278,2.74999999999999);
#65=CIRCLE('',#1279,3.6);
#66=CIRCLE('',#1280,3.6);
#67=CIRCLE('',#1283,3.6);
#68=CIRCLE('',#1285,3.6);
#69=CIRCLE('',#1287,3.6);
#70=CIRCLE('',#1288,3.6);
#71=CIRCLE('',#1290,3.6);
#72=CIRCLE('',#1291,3.6);
#73=CIRCLE('',#1293,3.6);
#74=CIRCLE('',#1296,3.6);
#75=CIRCLE('',#1297,3.6);
#76=CIRCLE('',#1298,3.6);
#77=CIRCLE('',#1302,3.1);
#78=CIRCLE('',#1303,3.6);
#79=CIRCLE('',#1304,3.1);
#80=CIRCLE('',#1306,3.1);
#81=CIRCLE('',#1307,3.6);
#82=CIRCLE('',#1308,3.1);
#83=CIRCLE('',#1310,0.5);
#84=CIRCLE('',#1311,0.1);
#85=CIRCLE('',#1312,2.4);
#86=CIRCLE('',#1313,0.1);
#87=CIRCLE('',#1314,0.5);
#88=CIRCLE('',#1315,0.1);
#89=CIRCLE('',#1316,2.4);
#90=CIRCLE('',#1317,0.1);
#91=CIRCLE('',#1318,0.5);
#92=CIRCLE('',#1319,0.1);
#93=CIRCLE('',#1320,2.4);
#94=CIRCLE('',#1321,0.1);
#95=CIRCLE('',#1322,0.5);
#96=CIRCLE('',#1323,0.1);
#97=CIRCLE('',#1324,2.4);
#98=CIRCLE('',#1325,0.1);
#99=CIRCLE('',#1328,3.1);
#100=CIRCLE('',#1330,2.4);
#101=CIRCLE('',#1332,2.4);
#102=CIRCLE('',#1334,3.1);
#103=CIRCLE('',#1339,0.5);
#104=CIRCLE('',#1340,0.1);
#105=CIRCLE('',#1341,2.4);
#106=CIRCLE('',#1342,0.1);
#107=CIRCLE('',#1343,0.5);
#108=CIRCLE('',#1344,0.1);
#109=CIRCLE('',#1345,2.4);
#110=CIRCLE('',#1346,0.1);
#111=CIRCLE('',#1347,0.5);
#112=CIRCLE('',#1348,0.1);
#113=CIRCLE('',#1349,2.4);
#114=CIRCLE('',#1350,0.1);
#115=CIRCLE('',#1351,0.5);
#116=CIRCLE('',#1352,0.1);
#117=CIRCLE('',#1353,2.4);
#118=CIRCLE('',#1354,0.1);
#119=CIRCLE('',#1356,3.6);
#120=CIRCLE('',#1357,3.6);
#121=CIRCLE('',#1361,3.1);
#122=CIRCLE('',#1363,2.4);
#123=CIRCLE('',#1365,2.4);
#124=CIRCLE('',#1367,3.1);
#125=LINE('',#1781,#217);
#126=LINE('',#1795,#218);
#127=LINE('',#1804,#219);
#128=LINE('',#1813,#220);
#129=LINE('',#1862,#221);
#130=LINE('',#1868,#222);
#131=LINE('',#1870,#223);
#132=LINE('',#1872,#224);
#133=LINE('',#1876,#225);
#134=LINE('',#1880,#226);
#135=LINE('',#1882,#227);
#136=LINE('',#1886,#228);
#137=LINE('',#1890,#229);
#138=LINE('',#1892,#230);
#139=LINE('',#1894,#231);
#140=LINE('',#1898,#232);
#141=LINE('',#1902,#233);
#142=LINE('',#1906,#234);
#143=LINE('',#1908,#235);
#144=LINE('',#1911,#236);
#145=LINE('',#1912,#237);
#146=LINE('',#1917,#238);
#147=LINE('',#1918,#239);
#148=LINE('',#1919,#240);
#149=LINE('',#1923,#241);
#150=LINE('',#1926,#242);
#151=LINE('',#1928,#243);
#152=LINE('',#1930,#244);
#153=LINE('',#1932,#245);
#154=LINE('',#1934,#246);
#155=LINE('',#1936,#247);
#156=LINE('',#1950,#248);
#157=LINE('',#1955,#249);
#158=LINE('',#1963,#250);
#159=LINE('',#1967,#251);
#160=LINE('',#1975,#252);
#161=LINE('',#1979,#253);
#162=LINE('',#1987,#254);
#163=LINE('',#1991,#255);
#164=LINE('',#1998,#256);
#165=LINE('',#2000,#257);
#166=LINE('',#2017,#258);
#167=LINE('',#2022,#259);
#168=LINE('',#2030,#260);
#169=LINE('',#2034,#261);
#170=LINE('',#2042,#262);
#171=LINE('',#2046,#263);
#172=LINE('',#2054,#264);
#173=LINE('',#2058,#265);
#174=LINE('',#2065,#266);
#175=LINE('',#2067,#267);
#176=LINE('',#2069,#268);
#177=LINE('',#2073,#269);
#178=LINE('',#2074,#270);
#179=LINE('',#2078,#271);
#180=LINE('',#2080,#272);
#181=LINE('',#2097,#273);
#182=LINE('',#2106,#274);
#183=LINE('',#2113,#275);
#184=LINE('',#2114,#276);
#185=LINE('',#2116,#277);
#186=LINE('',#2117,#278);
#187=LINE('',#2119,#279);
#188=LINE('',#2120,#280);
#189=LINE('',#2122,#281);
#190=LINE('',#2123,#282);
#191=LINE('',#2125,#283);
#192=LINE('',#2126,#284);
#193=LINE('',#2128,#285);
#194=LINE('',#2129,#286);
#195=LINE('',#2131,#287);
#196=LINE('',#2140,#288);
#197=LINE('',#2147,#289);
#198=LINE('',#2148,#290);
#199=LINE('',#2150,#291);
#200=LINE('',#2151,#292);
#201=LINE('',#2153,#293);
#202=LINE('',#2154,#294);
#203=LINE('',#2156,#295);
#204=LINE('',#2157,#296);
#205=LINE('',#2159,#297);
#206=LINE('',#2160,#298);
#207=LINE('',#2162,#299);
#208=LINE('',#2163,#300);
#209=LINE('',#2177,#301);
#210=LINE('',#2178,#302);
#211=LINE('',#2180,#303);
#212=LINE('',#2182,#304);
#213=LINE('',#2185,#305);
#214=LINE('',#2186,#306);
#215=LINE('',#2188,#307);
#216=LINE('',#2190,#308);
#217=VECTOR('',#1407,1000.);
#218=VECTOR('',#1410,1000.);
#219=VECTOR('',#1415,1000.);
#220=VECTOR('',#1418,1000.);
#221=VECTOR('',#1443,1000.);
#222=VECTOR('',#1444,1000.);
#223=VECTOR('',#1447,1000.);
#224=VECTOR('',#1448,1000.);
#225=VECTOR('',#1453,1000.);
#226=VECTOR('',#1456,1000.);
#227=VECTOR('',#1459,1000.);
#228=VECTOR('',#1462,1000.);
#229=VECTOR('',#1465,1000.);
#230=VECTOR('',#1468,1000.);
#231=VECTOR('',#1469,1000.);
#232=VECTOR('',#1472,1000.);
#233=VECTOR('',#1477,1000.);
#234=VECTOR('',#1480,1000.);
#235=VECTOR('',#1483,1000.);
#236=VECTOR('',#1484,1000.);
#237=VECTOR('',#1485,1000.);
#238=VECTOR('',#1490,1000.);
#239=VECTOR('',#1491,1000.);
#240=VECTOR('',#1492,1000.);
#241=VECTOR('',#1495,1000.);
#242=VECTOR('',#1498,1000.);
#243=VECTOR('',#1501,1000.);
#244=VECTOR('',#1502,1000.);
#245=VECTOR('',#1503,1000.);
#246=VECTOR('',#1506,1000.);
#247=VECTOR('',#1507,1000.);
#248=VECTOR('',#1526,1000.);
#249=VECTOR('',#1529,1000.);
#250=VECTOR('',#1536,1000.);
#251=VECTOR('',#1539,1000.);
#252=VECTOR('',#1546,1000.);
#253=VECTOR('',#1549,1000.);
#254=VECTOR('',#1556,1000.);
#255=VECTOR('',#1559,1000.);
#256=VECTOR('',#1566,1000.);
#257=VECTOR('',#1569,1000.);
#258=VECTOR('',#1594,1000.);
#259=VECTOR('',#1597,1000.);
#260=VECTOR('',#1604,1000.);
#261=VECTOR('',#1607,1000.);
#262=VECTOR('',#1614,1000.);
#263=VECTOR('',#1617,1000.);
#264=VECTOR('',#1624,1000.);
#265=VECTOR('',#1627,1000.);
#266=VECTOR('',#1634,1000.);
#267=VECTOR('',#1635,1000.);
#268=VECTOR('',#1636,1000.);
#269=VECTOR('',#1641,1000.);
#270=VECTOR('',#1642,1000.);
#271=VECTOR('',#1647,1000.);
#272=VECTOR('',#1650,1000.);
#273=VECTOR('',#1675,1000.);
#274=VECTOR('',#1676,1000.);
#275=VECTOR('',#1677,1000.);
#276=VECTOR('',#1678,1000.);
#277=VECTOR('',#1681,1000.);
#278=VECTOR('',#1682,1000.);
#279=VECTOR('',#1685,1000.);
#280=VECTOR('',#1686,1000.);
#281=VECTOR('',#1689,1000.);
#282=VECTOR('',#1690,1000.);
#283=VECTOR('',#1693,1000.);
#284=VECTOR('',#1694,1000.);
#285=VECTOR('',#1697,1000.);
#286=VECTOR('',#1698,1000.);
#287=VECTOR('',#1701,1000.);
#288=VECTOR('',#1702,1000.);
#289=VECTOR('',#1703,1000.);
#290=VECTOR('',#1704,1000.);
#291=VECTOR('',#1707,1000.);
#292=VECTOR('',#1708,1000.);
#293=VECTOR('',#1711,1000.);
#294=VECTOR('',#1712,1000.);
#295=VECTOR('',#1715,1000.);
#296=VECTOR('',#1716,1000.);
#297=VECTOR('',#1719,1000.);
#298=VECTOR('',#1720,1000.);
#299=VECTOR('',#1723,1000.);
#300=VECTOR('',#1724,1000.);
#301=VECTOR('',#1751,1000.);
#302=VECTOR('',#1752,1000.);
#303=VECTOR('',#1755,1000.);
#304=VECTOR('',#1758,1000.);
#305=VECTOR('',#1763,1000.);
#306=VECTOR('',#1764,1000.);
#307=VECTOR('',#1767,1000.);
#308=VECTOR('',#1770,1000.);
#309=ORIENTED_EDGE('',*,*,#665,.F.);
#310=ORIENTED_EDGE('',*,*,#666,.F.);
#311=ORIENTED_EDGE('',*,*,#667,.F.);
#312=ORIENTED_EDGE('',*,*,#668,.F.);
#313=ORIENTED_EDGE('',*,*,#669,.F.);
#314=ORIENTED_EDGE('',*,*,#670,.F.);
#315=ORIENTED_EDGE('',*,*,#671,.F.);
#316=ORIENTED_EDGE('',*,*,#672,.T.);
#317=ORIENTED_EDGE('',*,*,#673,.F.);
#318=ORIENTED_EDGE('',*,*,#674,.F.);
#319=ORIENTED_EDGE('',*,*,#675,.F.);
#320=ORIENTED_EDGE('',*,*,#676,.T.);
#321=ORIENTED_EDGE('',*,*,#677,.T.);
#322=ORIENTED_EDGE('',*,*,#678,.F.);
#323=ORIENTED_EDGE('',*,*,#677,.F.);
#324=ORIENTED_EDGE('',*,*,#679,.T.);
#325=ORIENTED_EDGE('',*,*,#680,.F.);
#326=ORIENTED_EDGE('',*,*,#681,.T.);
#327=ORIENTED_EDGE('',*,*,#682,.F.);
#328=ORIENTED_EDGE('',*,*,#683,.F.);
#329=ORIENTED_EDGE('',*,*,#684,.F.);
#330=ORIENTED_EDGE('',*,*,#672,.F.);
#331=ORIENTED_EDGE('',*,*,#685,.T.);
#332=ORIENTED_EDGE('',*,*,#686,.T.);
#333=ORIENTED_EDGE('',*,*,#675,.T.);
#334=ORIENTED_EDGE('',*,*,#668,.T.);
#335=ORIENTED_EDGE('',*,*,#687,.T.);
#336=ORIENTED_EDGE('',*,*,#688,.F.);
#337=ORIENTED_EDGE('',*,*,#689,.T.);
#338=ORIENTED_EDGE('',*,*,#690,.F.);
#339=ORIENTED_EDGE('',*,*,#691,.F.);
#340=ORIENTED_EDGE('',*,*,#684,.T.);
#341=ORIENTED_EDGE('',*,*,#692,.F.);
#342=ORIENTED_EDGE('',*,*,#687,.F.);
#343=ORIENTED_EDGE('',*,*,#693,.F.);
#344=ORIENTED_EDGE('',*,*,#694,.F.);
#345=ORIENTED_EDGE('',*,*,#695,.F.);
#346=ORIENTED_EDGE('',*,*,#690,.T.);
#347=ORIENTED_EDGE('',*,*,#696,.T.);
#348=ORIENTED_EDGE('',*,*,#697,.F.);
#349=ORIENTED_EDGE('',*,*,#681,.F.);
#350=ORIENTED_EDGE('',*,*,#698,.T.);
#351=ORIENTED_EDGE('',*,*,#699,.T.);
#352=ORIENTED_EDGE('',*,*,#700,.F.);
#353=ORIENTED_EDGE('',*,*,#701,.T.);
#354=ORIENTED_EDGE('',*,*,#702,.T.);
#355=ORIENTED_EDGE('',*,*,#703,.F.);
#356=ORIENTED_EDGE('',*,*,#704,.F.);
#357=ORIENTED_EDGE('',*,*,#705,.F.);
#358=ORIENTED_EDGE('',*,*,#679,.F.);
#359=ORIENTED_EDGE('',*,*,#676,.F.);
#360=ORIENTED_EDGE('',*,*,#686,.F.);
#361=ORIENTED_EDGE('',*,*,#706,.T.);
#362=ORIENTED_EDGE('',*,*,#688,.T.);
#363=ORIENTED_EDGE('',*,*,#692,.T.);
#364=ORIENTED_EDGE('',*,*,#683,.T.);
#365=ORIENTED_EDGE('',*,*,#707,.F.);
#366=ORIENTED_EDGE('',*,*,#708,.F.);
#367=ORIENTED_EDGE('',*,*,#709,.F.);
#368=ORIENTED_EDGE('',*,*,#710,.T.);
#369=ORIENTED_EDGE('',*,*,#698,.F.);
#370=ORIENTED_EDGE('',*,*,#711,.T.);
#371=ORIENTED_EDGE('',*,*,#712,.F.);
#372=ORIENTED_EDGE('',*,*,#713,.F.);
#373=ORIENTED_EDGE('',*,*,#714,.T.);
#374=ORIENTED_EDGE('',*,*,#715,.F.);
#375=ORIENTED_EDGE('',*,*,#709,.T.);
#376=ORIENTED_EDGE('',*,*,#716,.T.);
#377=ORIENTED_EDGE('',*,*,#717,.F.);
#378=ORIENTED_EDGE('',*,*,#718,.F.);
#379=ORIENTED_EDGE('',*,*,#712,.T.);
#380=ORIENTED_EDGE('',*,*,#719,.F.);
#381=ORIENTED_EDGE('',*,*,#704,.T.);
#382=ORIENTED_EDGE('',*,*,#720,.F.);
#383=ORIENTED_EDGE('',*,*,#721,.F.);
#384=ORIENTED_EDGE('',*,*,#722,.T.);
#385=ORIENTED_EDGE('',*,*,#723,.T.);
#386=ORIENTED_EDGE('',*,*,#716,.F.);
#387=ORIENTED_EDGE('',*,*,#708,.T.);
#388=ORIENTED_EDGE('',*,*,#724,.T.);
#389=ORIENTED_EDGE('',*,*,#725,.T.);
#390=ORIENTED_EDGE('',*,*,#722,.F.);
#391=ORIENTED_EDGE('',*,*,#726,.F.);
#392=ORIENTED_EDGE('',*,*,#727,.T.);
#393=ORIENTED_EDGE('',*,*,#720,.T.);
#394=ORIENTED_EDGE('',*,*,#703,.T.);
#395=ORIENTED_EDGE('',*,*,#728,.F.);
#396=ORIENTED_EDGE('',*,*,#729,.F.);
#397=ORIENTED_EDGE('',*,*,#730,.F.);
#398=ORIENTED_EDGE('',*,*,#729,.T.);
#399=ORIENTED_EDGE('',*,*,#731,.F.);
#400=ORIENTED_EDGE('',*,*,#726,.T.);
#401=ORIENTED_EDGE('',*,*,#721,.T.);
#402=ORIENTED_EDGE('',*,*,#732,.T.);
#403=ORIENTED_EDGE('',*,*,#733,.T.);
#404=ORIENTED_EDGE('',*,*,#725,.F.);
#405=ORIENTED_EDGE('',*,*,#734,.T.);
#406=ORIENTED_EDGE('',*,*,#714,.F.);
#407=ORIENTED_EDGE('',*,*,#723,.F.);
#408=ORIENTED_EDGE('',*,*,#735,.F.);
#409=ORIENTED_EDGE('',*,*,#736,.F.);
#410=ORIENTED_EDGE('',*,*,#737,.T.);
#411=ORIENTED_EDGE('',*,*,#738,.F.);
#412=ORIENTED_EDGE('',*,*,#739,.T.);
#413=ORIENTED_EDGE('',*,*,#740,.F.);
#414=ORIENTED_EDGE('',*,*,#741,.T.);
#415=ORIENTED_EDGE('',*,*,#742,.F.);
#416=ORIENTED_EDGE('',*,*,#743,.T.);
#417=ORIENTED_EDGE('',*,*,#744,.F.);
#418=ORIENTED_EDGE('',*,*,#745,.T.);
#419=ORIENTED_EDGE('',*,*,#746,.F.);
#420=ORIENTED_EDGE('',*,*,#747,.T.);
#421=ORIENTED_EDGE('',*,*,#748,.F.);
#422=ORIENTED_EDGE('',*,*,#749,.T.);
#423=ORIENTED_EDGE('',*,*,#750,.F.);
#424=ORIENTED_EDGE('',*,*,#751,.T.);
#425=ORIENTED_EDGE('',*,*,#752,.F.);
#426=ORIENTED_EDGE('',*,*,#753,.T.);
#427=ORIENTED_EDGE('',*,*,#754,.F.);
#428=ORIENTED_EDGE('',*,*,#755,.T.);
#429=ORIENTED_EDGE('',*,*,#756,.F.);
#430=ORIENTED_EDGE('',*,*,#757,.T.);
#431=ORIENTED_EDGE('',*,*,#758,.F.);
#432=ORIENTED_EDGE('',*,*,#759,.T.);
#433=ORIENTED_EDGE('',*,*,#760,.F.);
#434=ORIENTED_EDGE('',*,*,#699,.F.);
#435=ORIENTED_EDGE('',*,*,#713,.T.);
#436=ORIENTED_EDGE('',*,*,#718,.T.);
#437=ORIENTED_EDGE('',*,*,#717,.T.);
#438=ORIENTED_EDGE('',*,*,#761,.T.);
#439=ORIENTED_EDGE('',*,*,#700,.T.);
#440=ORIENTED_EDGE('',*,*,#760,.T.);
#441=ORIENTED_EDGE('',*,*,#762,.F.);
#442=ORIENTED_EDGE('',*,*,#730,.T.);
#443=ORIENTED_EDGE('',*,*,#763,.F.);
#444=ORIENTED_EDGE('',*,*,#762,.T.);
#445=ORIENTED_EDGE('',*,*,#764,.F.);
#446=ORIENTED_EDGE('',*,*,#763,.T.);
#447=ORIENTED_EDGE('',*,*,#765,.F.);
#448=ORIENTED_EDGE('',*,*,#764,.T.);
#449=ORIENTED_EDGE('',*,*,#733,.F.);
#450=ORIENTED_EDGE('',*,*,#765,.T.);
#451=ORIENTED_EDGE('',*,*,#711,.F.);
#452=ORIENTED_EDGE('',*,*,#680,.T.);
#453=ORIENTED_EDGE('',*,*,#705,.T.);
#454=ORIENTED_EDGE('',*,*,#719,.T.);
#455=ORIENTED_EDGE('',*,*,#707,.T.);
#456=ORIENTED_EDGE('',*,*,#682,.T.);
#457=ORIENTED_EDGE('',*,*,#761,.F.);
#458=ORIENTED_EDGE('',*,*,#724,.F.);
#459=ORIENTED_EDGE('',*,*,#766,.F.);
#460=ORIENTED_EDGE('',*,*,#767,.T.);
#461=ORIENTED_EDGE('',*,*,#768,.F.);
#462=ORIENTED_EDGE('',*,*,#769,.T.);
#463=ORIENTED_EDGE('',*,*,#770,.F.);
#464=ORIENTED_EDGE('',*,*,#771,.T.);
#465=ORIENTED_EDGE('',*,*,#772,.F.);
#466=ORIENTED_EDGE('',*,*,#773,.T.);
#467=ORIENTED_EDGE('',*,*,#774,.F.);
#468=ORIENTED_EDGE('',*,*,#775,.T.);
#469=ORIENTED_EDGE('',*,*,#776,.F.);
#470=ORIENTED_EDGE('',*,*,#777,.T.);
#471=ORIENTED_EDGE('',*,*,#778,.F.);
#472=ORIENTED_EDGE('',*,*,#779,.T.);
#473=ORIENTED_EDGE('',*,*,#780,.F.);
#474=ORIENTED_EDGE('',*,*,#781,.T.);
#475=ORIENTED_EDGE('',*,*,#782,.F.);
#476=ORIENTED_EDGE('',*,*,#783,.T.);
#477=ORIENTED_EDGE('',*,*,#784,.F.);
#478=ORIENTED_EDGE('',*,*,#785,.T.);
#479=ORIENTED_EDGE('',*,*,#786,.F.);
#480=ORIENTED_EDGE('',*,*,#787,.T.);
#481=ORIENTED_EDGE('',*,*,#788,.F.);
#482=ORIENTED_EDGE('',*,*,#789,.T.);
#483=ORIENTED_EDGE('',*,*,#790,.T.);
#484=ORIENTED_EDGE('',*,*,#791,.F.);
#485=ORIENTED_EDGE('',*,*,#792,.F.);
#486=ORIENTED_EDGE('',*,*,#697,.T.);
#487=ORIENTED_EDGE('',*,*,#793,.T.);
#488=ORIENTED_EDGE('',*,*,#794,.F.);
#489=ORIENTED_EDGE('',*,*,#710,.F.);
#490=ORIENTED_EDGE('',*,*,#715,.T.);
#491=ORIENTED_EDGE('',*,*,#734,.F.);
#492=ORIENTED_EDGE('',*,*,#727,.F.);
#493=ORIENTED_EDGE('',*,*,#731,.T.);
#494=ORIENTED_EDGE('',*,*,#728,.T.);
#495=ORIENTED_EDGE('',*,*,#702,.F.);
#496=ORIENTED_EDGE('',*,*,#795,.T.);
#497=ORIENTED_EDGE('',*,*,#796,.F.);
#498=ORIENTED_EDGE('',*,*,#791,.T.);
#499=ORIENTED_EDGE('',*,*,#706,.F.);
#500=ORIENTED_EDGE('',*,*,#794,.T.);
#501=ORIENTED_EDGE('',*,*,#797,.T.);
#502=ORIENTED_EDGE('',*,*,#689,.F.);
#503=ORIENTED_EDGE('',*,*,#798,.T.);
#504=ORIENTED_EDGE('',*,*,#795,.F.);
#505=ORIENTED_EDGE('',*,*,#701,.F.);
#506=ORIENTED_EDGE('',*,*,#685,.F.);
#507=ORIENTED_EDGE('',*,*,#735,.T.);
#508=ORIENTED_EDGE('',*,*,#799,.F.);
#509=ORIENTED_EDGE('',*,*,#799,.T.);
#510=ORIENTED_EDGE('',*,*,#800,.F.);
#511=ORIENTED_EDGE('',*,*,#800,.T.);
#512=ORIENTED_EDGE('',*,*,#801,.F.);
#513=ORIENTED_EDGE('',*,*,#801,.T.);
#514=ORIENTED_EDGE('',*,*,#802,.F.);
#515=ORIENTED_EDGE('',*,*,#802,.T.);
#516=ORIENTED_EDGE('',*,*,#732,.F.);
#517=ORIENTED_EDGE('',*,*,#695,.T.);
#518=ORIENTED_EDGE('',*,*,#792,.T.);
#519=ORIENTED_EDGE('',*,*,#796,.T.);
#520=ORIENTED_EDGE('',*,*,#798,.F.);
#521=ORIENTED_EDGE('',*,*,#793,.F.);
#522=ORIENTED_EDGE('',*,*,#790,.F.);
#523=ORIENTED_EDGE('',*,*,#696,.F.);
#524=ORIENTED_EDGE('',*,*,#797,.F.);
#525=ORIENTED_EDGE('',*,*,#803,.T.);
#526=ORIENTED_EDGE('',*,*,#804,.T.);
#527=ORIENTED_EDGE('',*,*,#805,.T.);
#528=ORIENTED_EDGE('',*,*,#806,.T.);
#529=ORIENTED_EDGE('',*,*,#746,.T.);
#530=ORIENTED_EDGE('',*,*,#807,.T.);
#531=ORIENTED_EDGE('',*,*,#782,.T.);
#532=ORIENTED_EDGE('',*,*,#808,.T.);
#533=ORIENTED_EDGE('',*,*,#748,.T.);
#534=ORIENTED_EDGE('',*,*,#809,.T.);
#535=ORIENTED_EDGE('',*,*,#780,.T.);
#536=ORIENTED_EDGE('',*,*,#810,.T.);
#537=ORIENTED_EDGE('',*,*,#778,.T.);
#538=ORIENTED_EDGE('',*,*,#811,.T.);
#539=ORIENTED_EDGE('',*,*,#750,.T.);
#540=ORIENTED_EDGE('',*,*,#812,.T.);
#541=ORIENTED_EDGE('',*,*,#752,.T.);
#542=ORIENTED_EDGE('',*,*,#813,.T.);
#543=ORIENTED_EDGE('',*,*,#776,.T.);
#544=ORIENTED_EDGE('',*,*,#814,.T.);
#545=ORIENTED_EDGE('',*,*,#754,.T.);
#546=ORIENTED_EDGE('',*,*,#815,.T.);
#547=ORIENTED_EDGE('',*,*,#774,.T.);
#548=ORIENTED_EDGE('',*,*,#816,.T.);
#549=ORIENTED_EDGE('',*,*,#772,.T.);
#550=ORIENTED_EDGE('',*,*,#817,.T.);
#551=ORIENTED_EDGE('',*,*,#756,.T.);
#552=ORIENTED_EDGE('',*,*,#818,.T.);
#553=ORIENTED_EDGE('',*,*,#819,.T.);
#554=ORIENTED_EDGE('',*,*,#820,.T.);
#555=ORIENTED_EDGE('',*,*,#821,.T.);
#556=ORIENTED_EDGE('',*,*,#822,.T.);
#557=ORIENTED_EDGE('',*,*,#770,.T.);
#558=ORIENTED_EDGE('',*,*,#823,.T.);
#559=ORIENTED_EDGE('',*,*,#758,.T.);
#560=ORIENTED_EDGE('',*,*,#824,.T.);
#561=ORIENTED_EDGE('',*,*,#736,.T.);
#562=ORIENTED_EDGE('',*,*,#825,.T.);
#563=ORIENTED_EDGE('',*,*,#768,.T.);
#564=ORIENTED_EDGE('',*,*,#826,.T.);
#565=ORIENTED_EDGE('',*,*,#766,.T.);
#566=ORIENTED_EDGE('',*,*,#827,.T.);
#567=ORIENTED_EDGE('',*,*,#738,.T.);
#568=ORIENTED_EDGE('',*,*,#828,.T.);
#569=ORIENTED_EDGE('',*,*,#740,.T.);
#570=ORIENTED_EDGE('',*,*,#829,.T.);
#571=ORIENTED_EDGE('',*,*,#788,.T.);
#572=ORIENTED_EDGE('',*,*,#830,.T.);
#573=ORIENTED_EDGE('',*,*,#742,.T.);
#574=ORIENTED_EDGE('',*,*,#831,.T.);
#575=ORIENTED_EDGE('',*,*,#786,.T.);
#576=ORIENTED_EDGE('',*,*,#832,.T.);
#577=ORIENTED_EDGE('',*,*,#784,.T.);
#578=ORIENTED_EDGE('',*,*,#833,.T.);
#579=ORIENTED_EDGE('',*,*,#744,.T.);
#580=ORIENTED_EDGE('',*,*,#834,.T.);
#581=ORIENTED_EDGE('',*,*,#755,.F.);
#582=ORIENTED_EDGE('',*,*,#816,.F.);
#583=ORIENTED_EDGE('',*,*,#773,.F.);
#584=ORIENTED_EDGE('',*,*,#818,.F.);
#585=ORIENTED_EDGE('',*,*,#749,.F.);
#586=ORIENTED_EDGE('',*,*,#810,.F.);
#587=ORIENTED_EDGE('',*,*,#779,.F.);
#588=ORIENTED_EDGE('',*,*,#812,.F.);
#589=ORIENTED_EDGE('',*,*,#743,.F.);
#590=ORIENTED_EDGE('',*,*,#832,.F.);
#591=ORIENTED_EDGE('',*,*,#785,.F.);
#592=ORIENTED_EDGE('',*,*,#834,.F.);
#593=ORIENTED_EDGE('',*,*,#737,.F.);
#594=ORIENTED_EDGE('',*,*,#826,.F.);
#595=ORIENTED_EDGE('',*,*,#767,.F.);
#596=ORIENTED_EDGE('',*,*,#828,.F.);
#597=ORIENTED_EDGE('',*,*,#757,.F.);
#598=ORIENTED_EDGE('',*,*,#817,.F.);
#599=ORIENTED_EDGE('',*,*,#771,.F.);
#600=ORIENTED_EDGE('',*,*,#824,.F.);
#601=ORIENTED_EDGE('',*,*,#753,.F.);
#602=ORIENTED_EDGE('',*,*,#814,.F.);
#603=ORIENTED_EDGE('',*,*,#775,.F.);
#604=ORIENTED_EDGE('',*,*,#815,.F.);
#605=ORIENTED_EDGE('',*,*,#751,.F.);
#606=ORIENTED_EDGE('',*,*,#811,.F.);
#607=ORIENTED_EDGE('',*,*,#777,.F.);
#608=ORIENTED_EDGE('',*,*,#813,.F.);
#609=ORIENTED_EDGE('',*,*,#747,.F.);
#610=ORIENTED_EDGE('',*,*,#808,.F.);
#611=ORIENTED_EDGE('',*,*,#781,.F.);
#612=ORIENTED_EDGE('',*,*,#809,.F.);
#613=ORIENTED_EDGE('',*,*,#745,.F.);
#614=ORIENTED_EDGE('',*,*,#833,.F.);
#615=ORIENTED_EDGE('',*,*,#783,.F.);
#616=ORIENTED_EDGE('',*,*,#807,.F.);
#617=ORIENTED_EDGE('',*,*,#741,.F.);
#618=ORIENTED_EDGE('',*,*,#830,.F.);
#619=ORIENTED_EDGE('',*,*,#787,.F.);
#620=ORIENTED_EDGE('',*,*,#831,.F.);
#621=ORIENTED_EDGE('',*,*,#739,.F.);
#622=ORIENTED_EDGE('',*,*,#827,.F.);
#623=ORIENTED_EDGE('',*,*,#789,.F.);
#624=ORIENTED_EDGE('',*,*,#829,.F.);
#625=ORIENTED_EDGE('',*,*,#759,.F.);
#626=ORIENTED_EDGE('',*,*,#823,.F.);
#627=ORIENTED_EDGE('',*,*,#769,.F.);
#628=ORIENTED_EDGE('',*,*,#825,.F.);
#629=ORIENTED_EDGE('',*,*,#670,.T.);
#630=ORIENTED_EDGE('',*,*,#835,.T.);
#631=ORIENTED_EDGE('',*,*,#821,.F.);
#632=ORIENTED_EDGE('',*,*,#836,.F.);
#633=ORIENTED_EDGE('',*,*,#669,.T.);
#634=ORIENTED_EDGE('',*,*,#674,.T.);
#635=ORIENTED_EDGE('',*,*,#837,.T.);
#636=ORIENTED_EDGE('',*,*,#822,.F.);
#637=ORIENTED_EDGE('',*,*,#835,.F.);
#638=ORIENTED_EDGE('',*,*,#673,.T.);
#639=ORIENTED_EDGE('',*,*,#838,.T.);
#640=ORIENTED_EDGE('',*,*,#819,.F.);
#641=ORIENTED_EDGE('',*,*,#837,.F.);
#642=ORIENTED_EDGE('',*,*,#678,.T.);
#643=ORIENTED_EDGE('',*,*,#671,.T.);
#644=ORIENTED_EDGE('',*,*,#836,.T.);
#645=ORIENTED_EDGE('',*,*,#820,.F.);
#646=ORIENTED_EDGE('',*,*,#838,.F.);
#647=ORIENTED_EDGE('',*,*,#665,.T.);
#648=ORIENTED_EDGE('',*,*,#691,.T.);
#649=ORIENTED_EDGE('',*,*,#839,.F.);
#650=ORIENTED_EDGE('',*,*,#804,.F.);
#651=ORIENTED_EDGE('',*,*,#840,.T.);
#652=ORIENTED_EDGE('',*,*,#694,.T.);
#653=ORIENTED_EDGE('',*,*,#841,.F.);
#654=ORIENTED_EDGE('',*,*,#805,.F.);
#655=ORIENTED_EDGE('',*,*,#839,.T.);
#656=ORIENTED_EDGE('',*,*,#693,.T.);
#657=ORIENTED_EDGE('',*,*,#667,.T.);
#658=ORIENTED_EDGE('',*,*,#842,.F.);
#659=ORIENTED_EDGE('',*,*,#806,.F.);
#660=ORIENTED_EDGE('',*,*,#841,.T.);
#661=ORIENTED_EDGE('',*,*,#666,.T.);
#662=ORIENTED_EDGE('',*,*,#840,.F.);
#663=ORIENTED_EDGE('',*,*,#803,.F.);
#664=ORIENTED_EDGE('',*,*,#842,.T.);
#665=EDGE_CURVE('',#843,#844,#963,.T.);
#666=EDGE_CURVE('',#845,#843,#125,.F.);
#667=EDGE_CURVE('',#846,#845,#964,.T.);
#668=EDGE_CURVE('',#847,#846,#55,.T.);
#669=EDGE_CURVE('',#848,#847,#965,.T.);
#670=EDGE_CURVE('',#849,#848,#126,.T.);
#671=EDGE_CURVE('',#850,#849,#966,.T.);
#672=EDGE_CURVE('',#850,#844,#56,.T.);
#673=EDGE_CURVE('',#851,#852,#127,.F.);
#674=EDGE_CURVE('',#847,#851,#967,.T.);
#675=EDGE_CURVE('',#853,#847,#57,.T.);
#676=EDGE_CURVE('',#853,#854,#128,.F.);
#677=EDGE_CURVE('',#854,#850,#58,.T.);
#678=EDGE_CURVE('',#852,#850,#968,.T.);
#679=EDGE_CURVE('',#854,#855,#969,.T.);
#680=EDGE_CURVE('',#856,#855,#59,.F.);
#681=EDGE_CURVE('',#856,#857,#60,.T.);
#682=EDGE_CURVE('',#858,#857,#61,.F.);
#683=EDGE_CURVE('',#859,#858,#970,.T.);
#684=EDGE_CURVE('',#844,#859,#62,.T.);
#685=EDGE_CURVE('',#860,#861,#63,.F.);
#686=EDGE_CURVE('',#861,#853,#971,.T.);
#687=EDGE_CURVE('',#846,#862,#64,.T.);
#688=EDGE_CURVE('',#863,#862,#972,.T.);
#689=EDGE_CURVE('',#863,#864,#65,.F.);
#690=EDGE_CURVE('',#860,#864,#66,.T.);
#691=EDGE_CURVE('',#844,#865,#973,.T.);
#692=EDGE_CURVE('',#862,#859,#129,.F.);
#693=EDGE_CURVE('',#866,#846,#974,.T.);
#694=EDGE_CURVE('',#865,#866,#130,.T.);
#695=EDGE_CURVE('',#860,#867,#131,.T.);
#696=EDGE_CURVE('',#864,#868,#132,.T.);
#697=EDGE_CURVE('',#867,#868,#67,.T.);
#698=EDGE_CURVE('',#856,#869,#133,.T.);
#699=EDGE_CURVE('',#869,#870,#68,.T.);
#700=EDGE_CURVE('',#857,#870,#134,.T.);
#701=EDGE_CURVE('',#861,#871,#135,.T.);
#702=EDGE_CURVE('',#871,#872,#69,.T.);
#703=EDGE_CURVE('',#873,#872,#136,.T.);
#704=EDGE_CURVE('',#874,#873,#70,.T.);
#705=EDGE_CURVE('',#855,#874,#137,.T.);
#706=EDGE_CURVE('',#875,#863,#138,.T.);
#707=EDGE_CURVE('',#876,#858,#139,.T.);
#708=EDGE_CURVE('',#877,#876,#71,.T.);
#709=EDGE_CURVE('',#878,#877,#140,.T.);
#710=EDGE_CURVE('',#878,#875,#72,.T.);
#711=EDGE_CURVE('',#856,#879,#141,.T.);
#712=EDGE_CURVE('',#880,#879,#73,.T.);
#713=EDGE_CURVE('',#869,#880,#142,.T.);
#714=EDGE_CURVE('',#881,#882,#143,.T.);
#715=EDGE_CURVE('',#878,#882,#144,.T.);
#716=EDGE_CURVE('',#877,#881,#145,.T.);
#717=EDGE_CURVE('',#883,#884,#74,.T.);
#718=EDGE_CURVE('',#880,#883,#146,.T.);
#719=EDGE_CURVE('',#874,#879,#147,.T.);
#720=EDGE_CURVE('',#885,#873,#148,.T.);
#721=EDGE_CURVE('',#886,#885,#75,.T.);
#722=EDGE_CURVE('',#886,#887,#149,.T.);
#723=EDGE_CURVE('',#887,#881,#76,.T.);
#724=EDGE_CURVE('',#876,#884,#150,.T.);
#725=EDGE_CURVE('',#888,#887,#151,.T.);
#726=EDGE_CURVE('',#889,#886,#152,.T.);
#727=EDGE_CURVE('',#889,#888,#153,.T.);
#728=EDGE_CURVE('',#890,#872,#154,.T.);
#729=EDGE_CURVE('',#885,#890,#155,.T.);
#730=EDGE_CURVE('',#891,#891,#77,.T.);
#731=EDGE_CURVE('',#889,#890,#78,.T.);
#732=EDGE_CURVE('',#892,#892,#79,.T.);
#733=EDGE_CURVE('',#893,#893,#80,.T.);
#734=EDGE_CURVE('',#888,#882,#81,.T.);
#735=EDGE_CURVE('',#894,#894,#82,.T.);
#736=EDGE_CURVE('',#895,#896,#156,.T.);
#737=EDGE_CURVE('',#895,#897,#83,.T.);
#738=EDGE_CURVE('',#898,#897,#157,.T.);
#739=EDGE_CURVE('',#898,#899,#84,.F.);
#740=EDGE_CURVE('',#900,#899,#85,.T.);
#741=EDGE_CURVE('',#900,#901,#86,.F.);
#742=EDGE_CURVE('',#902,#901,#158,.T.);
#743=EDGE_CURVE('',#902,#903,#87,.T.);
#744=EDGE_CURVE('',#904,#903,#159,.T.);
#745=EDGE_CURVE('',#904,#905,#88,.F.);
#746=EDGE_CURVE('',#906,#905,#89,.T.);
#747=EDGE_CURVE('',#906,#907,#90,.F.);
#748=EDGE_CURVE('',#908,#907,#160,.T.);
#749=EDGE_CURVE('',#908,#909,#91,.T.);
#750=EDGE_CURVE('',#910,#909,#161,.T.);
#751=EDGE_CURVE('',#910,#911,#92,.F.);
#752=EDGE_CURVE('',#912,#911,#93,.T.);
#753=EDGE_CURVE('',#912,#913,#94,.F.);
#754=EDGE_CURVE('',#914,#913,#162,.T.);
#755=EDGE_CURVE('',#914,#915,#95,.T.);
#756=EDGE_CURVE('',#916,#915,#163,.T.);
#757=EDGE_CURVE('',#916,#917,#96,.F.);
#758=EDGE_CURVE('',#918,#917,#97,.T.);
#759=EDGE_CURVE('',#918,#896,#98,.F.);
#760=EDGE_CURVE('',#870,#883,#164,.T.);
#761=EDGE_CURVE('',#884,#857,#165,.T.);
#762=EDGE_CURVE('',#919,#919,#99,.T.);
#763=EDGE_CURVE('',#920,#920,#100,.T.);
#764=EDGE_CURVE('',#921,#921,#101,.T.);
#765=EDGE_CURVE('',#922,#922,#102,.T.);
#766=EDGE_CURVE('',#923,#924,#166,.T.);
#767=EDGE_CURVE('',#923,#925,#103,.T.);
#768=EDGE_CURVE('',#926,#925,#167,.T.);
#769=EDGE_CURVE('',#926,#927,#104,.F.);
#770=EDGE_CURVE('',#928,#927,#105,.T.);
#771=EDGE_CURVE('',#928,#929,#106,.F.);
#772=EDGE_CURVE('',#930,#929,#168,.T.);
#773=EDGE_CURVE('',#930,#931,#107,.T.);
#774=EDGE_CURVE('',#932,#931,#169,.T.);
#775=EDGE_CURVE('',#932,#933,#108,.F.);
#776=EDGE_CURVE('',#934,#933,#109,.T.);
#777=EDGE_CURVE('',#934,#935,#110,.F.);
#778=EDGE_CURVE('',#936,#935,#170,.T.);
#779=EDGE_CURVE('',#936,#937,#111,.T.);
#780=EDGE_CURVE('',#938,#937,#171,.T.);
#781=EDGE_CURVE('',#938,#939,#112,.F.);
#782=EDGE_CURVE('',#940,#939,#113,.T.);
#783=EDGE_CURVE('',#940,#941,#114,.F.);
#784=EDGE_CURVE('',#942,#941,#172,.T.);
#785=EDGE_CURVE('',#942,#943,#115,.T.);
#786=EDGE_CURVE('',#944,#943,#173,.T.);
#787=EDGE_CURVE('',#944,#945,#116,.F.);
#788=EDGE_CURVE('',#946,#945,#117,.T.);
#789=EDGE_CURVE('',#946,#924,#118,.F.);
#790=EDGE_CURVE('',#868,#947,#174,.T.);
#791=EDGE_CURVE('',#948,#947,#175,.T.);
#792=EDGE_CURVE('',#867,#948,#176,.T.);
#793=EDGE_CURVE('',#947,#949,#119,.T.);
#794=EDGE_CURVE('',#875,#949,#177,.T.);
#795=EDGE_CURVE('',#871,#950,#178,.T.);
#796=EDGE_CURVE('',#948,#950,#120,.T.);
#797=EDGE_CURVE('',#949,#864,#179,.T.);
#798=EDGE_CURVE('',#860,#950,#180,.T.);
#799=EDGE_CURVE('',#951,#951,#121,.T.);
#800=EDGE_CURVE('',#952,#952,#122,.T.);
#801=EDGE_CURVE('',#953,#953,#123,.T.);
#802=EDGE_CURVE('',#954,#954,#124,.T.);
#803=EDGE_CURVE('',#955,#956,#181,.F.);
#804=EDGE_CURVE('',#956,#957,#975,.T.);
#805=EDGE_CURVE('',#957,#958,#182,.T.);
#806=EDGE_CURVE('',#958,#955,#976,.T.);
#807=EDGE_CURVE('',#905,#940,#183,.T.);
#808=EDGE_CURVE('',#939,#906,#184,.F.);
#809=EDGE_CURVE('',#907,#938,#185,.F.);
#810=EDGE_CURVE('',#937,#908,#186,.F.);
#811=EDGE_CURVE('',#935,#910,#187,.T.);
#812=EDGE_CURVE('',#909,#936,#188,.T.);
#813=EDGE_CURVE('',#911,#934,#189,.T.);
#814=EDGE_CURVE('',#933,#912,#190,.F.);
#815=EDGE_CURVE('',#913,#932,#191,.F.);
#816=EDGE_CURVE('',#931,#914,#192,.F.);
#817=EDGE_CURVE('',#929,#916,#193,.T.);
#818=EDGE_CURVE('',#915,#930,#194,.T.);
#819=EDGE_CURVE('',#959,#960,#195,.F.);
#820=EDGE_CURVE('',#960,#961,#977,.T.);
#821=EDGE_CURVE('',#961,#962,#196,.T.);
#822=EDGE_CURVE('',#962,#959,#978,.T.);
#823=EDGE_CURVE('',#927,#918,#197,.F.);
#824=EDGE_CURVE('',#917,#928,#198,.T.);
#825=EDGE_CURVE('',#896,#926,#199,.F.);
#826=EDGE_CURVE('',#925,#895,#200,.F.);
#827=EDGE_CURVE('',#924,#898,#201,.T.);
#828=EDGE_CURVE('',#897,#923,#202,.T.);
#829=EDGE_CURVE('',#899,#946,#203,.T.);
#830=EDGE_CURVE('',#945,#900,#204,.F.);
#831=EDGE_CURVE('',#901,#944,#205,.F.);
#832=EDGE_CURVE('',#943,#902,#206,.F.);
#833=EDGE_CURVE('',#941,#904,#207,.T.);
#834=EDGE_CURVE('',#903,#942,#208,.T.);
#835=EDGE_CURVE('',#848,#962,#209,.T.);
#836=EDGE_CURVE('',#849,#961,#210,.T.);
#837=EDGE_CURVE('',#851,#959,#211,.T.);
#838=EDGE_CURVE('',#852,#960,#212,.T.);
#839=EDGE_CURVE('',#957,#865,#213,.T.);
#840=EDGE_CURVE('',#956,#843,#214,.T.);
#841=EDGE_CURVE('',#958,#866,#215,.T.);
#842=EDGE_CURVE('',#955,#845,#216,.T.);
#843=VERTEX_POINT('',#1779);
#844=VERTEX_POINT('',#1780);
#845=VERTEX_POINT('',#1782);
#846=VERTEX_POINT('',#1787);
#847=VERTEX_POINT('',#1789);
#848=VERTEX_POINT('',#1794);
#849=VERTEX_POINT('',#1796);
#850=VERTEX_POINT('',#1801);
#851=VERTEX_POINT('',#1805);
#852=VERTEX_POINT('',#1806);
#853=VERTEX_POINT('',#1812);
#854=VERTEX_POINT('',#1814);
#855=VERTEX_POINT('',#1825);
#856=VERTEX_POINT('',#1827);
#857=VERTEX_POINT('',#1829);
#858=VERTEX_POINT('',#1831);
#859=VERTEX_POINT('',#1836);
#860=VERTEX_POINT('',#1840);
#861=VERTEX_POINT('',#1841);
#862=VERTEX_POINT('',#1847);
#863=VERTEX_POINT('',#1852);
#864=VERTEX_POINT('',#1854);
#865=VERTEX_POINT('',#1861);
#866=VERTEX_POINT('',#1867);
#867=VERTEX_POINT('',#1871);
#868=VERTEX_POINT('',#1873);
#869=VERTEX_POINT('',#1877);
#870=VERTEX_POINT('',#1879);
#871=VERTEX_POINT('',#1883);
#872=VERTEX_POINT('',#1885);
#873=VERTEX_POINT('',#1887);
#874=VERTEX_POINT('',#1889);
#875=VERTEX_POINT('',#1893);
#876=VERTEX_POINT('',#1895);
#877=VERTEX_POINT('',#1897);
#878=VERTEX_POINT('',#1899);
#879=VERTEX_POINT('',#1903);
#880=VERTEX_POINT('',#1905);
#881=VERTEX_POINT('',#1909);
#882=VERTEX_POINT('',#1910);
#883=VERTEX_POINT('',#1915);
#884=VERTEX_POINT('',#1916);
#885=VERTEX_POINT('',#1920);
#886=VERTEX_POINT('',#1922);
#887=VERTEX_POINT('',#1924);
#888=VERTEX_POINT('',#1929);
#889=VERTEX_POINT('',#1931);
#890=VERTEX_POINT('',#1935);
#891=VERTEX_POINT('',#1939);
#892=VERTEX_POINT('',#1942);
#893=VERTEX_POINT('',#1945);
#894=VERTEX_POINT('',#1948);
#895=VERTEX_POINT('',#1951);
#896=VERTEX_POINT('',#1952);
#897=VERTEX_POINT('',#1954);
#898=VERTEX_POINT('',#1956);
#899=VERTEX_POINT('',#1958);
#900=VERTEX_POINT('',#1960);
#901=VERTEX_POINT('',#1962);
#902=VERTEX_POINT('',#1964);
#903=VERTEX_POINT('',#1966);
#904=VERTEX_POINT('',#1968);
#905=VERTEX_POINT('',#1970);
#906=VERTEX_POINT('',#1972);
#907=VERTEX_POINT('',#1974);
#908=VERTEX_POINT('',#1976);
#909=VERTEX_POINT('',#1978);
#910=VERTEX_POINT('',#1980);
#911=VERTEX_POINT('',#1982);
#912=VERTEX_POINT('',#1984);
#913=VERTEX_POINT('',#1986);
#914=VERTEX_POINT('',#1988);
#915=VERTEX_POINT('',#1990);
#916=VERTEX_POINT('',#1992);
#917=VERTEX_POINT('',#1994);
#918=VERTEX_POINT('',#1996);
#919=VERTEX_POINT('',#2003);
#920=VERTEX_POINT('',#2006);
#921=VERTEX_POINT('',#2009);
#922=VERTEX_POINT('',#2012);
#923=VERTEX_POINT('',#2018);
#924=VERTEX_POINT('',#2019);
#925=VERTEX_POINT('',#2021);
#926=VERTEX_POINT('',#2023);
#927=VERTEX_POINT('',#2025);
#928=VERTEX_POINT('',#2027);
#929=VERTEX_POINT('',#2029);
#930=VERTEX_POINT('',#2031);
#931=VERTEX_POINT('',#2033);
#932=VERTEX_POINT('',#2035);
#933=VERTEX_POINT('',#2037);
#934=VERTEX_POINT('',#2039);
#935=VERTEX_POINT('',#2041);
#936=VERTEX_POINT('',#2043);
#937=VERTEX_POINT('',#2045);
#938=VERTEX_POINT('',#2047);
#939=VERTEX_POINT('',#2049);
#940=VERTEX_POINT('',#2051);
#941=VERTEX_POINT('',#2053);
#942=VERTEX_POINT('',#2055);
#943=VERTEX_POINT('',#2057);
#944=VERTEX_POINT('',#2059);
#945=VERTEX_POINT('',#2061);
#946=VERTEX_POINT('',#2063);
#947=VERTEX_POINT('',#2066);
#948=VERTEX_POINT('',#2068);
#949=VERTEX_POINT('',#2072);
#950=VERTEX_POINT('',#2075);
#951=VERTEX_POINT('',#2083);
#952=VERTEX_POINT('',#2086);
#953=VERTEX_POINT('',#2089);
#954=VERTEX_POINT('',#2092);
#955=VERTEX_POINT('',#2098);
#956=VERTEX_POINT('',#2099);
#957=VERTEX_POINT('',#2105);
#958=VERTEX_POINT('',#2107);
#959=VERTEX_POINT('',#2132);
#960=VERTEX_POINT('',#2133);
#961=VERTEX_POINT('',#2139);
#962=VERTEX_POINT('',#2141);
#963=B_SPLINE_CURVE_WITH_KNOTS('',3,(#1775,#1776,#1777,#1778),
 .UNSPECIFIED.,.F.,.F.,(4,4),(4.33680868994202E-19,0.000626269799469576),
 .UNSPECIFIED.);
#964=B_SPLINE_CURVE_WITH_KNOTS('',3,(#1783,#1784,#1785,#1786),
 .UNSPECIFIED.,.F.,.F.,(4,4),(0.000626269799469575,0.00125194294788157),
 .UNSPECIFIED.);
#965=B_SPLINE_CURVE_WITH_KNOTS('',3,(#1790,#1791,#1792,#1793),
 .UNSPECIFIED.,.F.,.F.,(4,4),(8.67361737988404E-19,0.000626269799469577),
 .UNSPECIFIED.);
#966=B_SPLINE_CURVE_WITH_KNOTS('',3,(#1797,#1798,#1799,#1800),
 .UNSPECIFIED.,.F.,.F.,(4,4),(0.000626269799469576,0.00125194294788157),
 .UNSPECIFIED.);
#967=B_SPLINE_CURVE_WITH_KNOTS('',3,(#1807,#1808,#1809,#1810),
 .UNSPECIFIED.,.F.,.F.,(4,4),(0.000626269799469577,0.00125194294788158),
 .UNSPECIFIED.);
#968=B_SPLINE_CURVE_WITH_KNOTS('',3,(#1816,#1817,#1818,#1819),
 .UNSPECIFIED.,.F.,.F.,(4,4),(4.33680868994202E-19,0.000626269799469576),
 .UNSPECIFIED.);
#969=B_SPLINE_CURVE_WITH_KNOTS('',3,(#1821,#1822,#1823,#1824),
 .UNSPECIFIED.,.F.,.F.,(4,4),(0.00142543476954383,0.00232510328532877),
 .UNSPECIFIED.);
#970=B_SPLINE_CURVE_WITH_KNOTS('',3,(#1832,#1833,#1834,#1835),
 .UNSPECIFIED.,.F.,.F.,(4,4),(0.00142543476954383,0.00232510328532877),
 .UNSPECIFIED.);
#971=B_SPLINE_CURVE_WITH_KNOTS('',3,(#1842,#1843,#1844,#1845),
 .UNSPECIFIED.,.F.,.F.,(4,4),(0.00134330037832652,0.00224299523270565),
 .UNSPECIFIED.);
#972=B_SPLINE_CURVE_WITH_KNOTS('',3,(#1848,#1849,#1850,#1851),
 .UNSPECIFIED.,.F.,.F.,(4,4),(0.00134330037832652,0.00224299523270565),
 .UNSPECIFIED.);
#973=B_SPLINE_CURVE_WITH_KNOTS('',3,(#1857,#1858,#1859,#1860),
 .UNSPECIFIED.,.F.,.F.,(4,4),(0.000626269799469576,0.00125194294788157),
 .UNSPECIFIED.);
#974=B_SPLINE_CURVE_WITH_KNOTS('',3,(#1863,#1864,#1865,#1866),
 .UNSPECIFIED.,.F.,.F.,(4,4),(4.84869951806108E-18,0.000626269799469575),
 .UNSPECIFIED.);
#975=B_SPLINE_CURVE_WITH_KNOTS('',3,(#2100,#2101,#2102,#2103,#2104),
 .UNSPECIFIED.,.F.,.F.,(4,1,4),(3.46944695195361E-18,0.000626227329652798,
0.00125245465930559),.UNSPECIFIED.);
#976=B_SPLINE_CURVE_WITH_KNOTS('',3,(#2108,#2109,#2110,#2111,#2112),
 .UNSPECIFIED.,.F.,.F.,(4,1,4),(4.84869951806108E-18,0.000626227329652798,
0.00125245465930559),.UNSPECIFIED.);
#977=B_SPLINE_CURVE_WITH_KNOTS('',3,(#2134,#2135,#2136,#2137,#2138),
 .UNSPECIFIED.,.F.,.F.,(4,1,4),(4.33680868994202E-19,0.000626227329652796,
0.00125245465930559),.UNSPECIFIED.);
#978=B_SPLINE_CURVE_WITH_KNOTS('',3,(#2142,#2143,#2144,#2145,#2146),
 .UNSPECIFIED.,.F.,.F.,(4,1,4),(4.33680868994202E-19,0.000626227329652797,
0.00125245465930559),.UNSPECIFIED.);
#979=EDGE_LOOP('',(#309,#310,#311,#312,#313,#314,#315,#316));
#980=EDGE_LOOP('',(#317,#318,#319,#320,#321,#322));
#981=EDGE_LOOP('',(#323,#324,#325,#326,#327,#328,#329,#330));
#982=EDGE_LOOP('',(#331,#332,#333,#334,#335,#336,#337,#338));
#983=EDGE_LOOP('',(#339,#340,#341,#342,#343,#344));
#984=EDGE_LOOP('',(#345,#346,#347,#348));
#985=EDGE_LOOP('',(#349,#350,#351,#352));
#986=EDGE_LOOP('',(#353,#354,#355,#356,#357,#358,#359,#360));
#987=EDGE_LOOP('',(#361,#362,#363,#364,#365,#366,#367,#368));
#988=EDGE_LOOP('',(#369,#370,#371,#372));
#989=EDGE_LOOP('',(#373,#374,#375,#376));
#990=EDGE_LOOP('',(#377,#378,#379,#380,#381,#382,#383,#384,#385,#386,#387,
#388));
#991=EDGE_LOOP('',(#389,#390,#391,#392));
#992=EDGE_LOOP('',(#393,#394,#395,#396));
#993=EDGE_LOOP('',(#397));
#994=EDGE_LOOP('',(#398,#399,#400,#401));
#995=EDGE_LOOP('',(#402));
#996=EDGE_LOOP('',(#403));
#997=EDGE_LOOP('',(#404,#405,#406,#407));
#998=EDGE_LOOP('',(#408));
#999=EDGE_LOOP('',(#409,#410,#411,#412,#413,#414,#415,#416,#417,#418,#419,
#420,#421,#422,#423,#424,#425,#426,#427,#428,#429,#430,#431,#432));
#1000=EDGE_LOOP('',(#433,#434,#435,#436));
#1001=EDGE_LOOP('',(#437,#438,#439,#440));
#1002=EDGE_LOOP('',(#441));
#1003=EDGE_LOOP('',(#442));
#1004=EDGE_LOOP('',(#443));
#1005=EDGE_LOOP('',(#444));
#1006=EDGE_LOOP('',(#445));
#1007=EDGE_LOOP('',(#446));
#1008=EDGE_LOOP('',(#447));
#1009=EDGE_LOOP('',(#448));
#1010=EDGE_LOOP('',(#449));
#1011=EDGE_LOOP('',(#450));
#1012=EDGE_LOOP('',(#451,#452,#453,#454));
#1013=EDGE_LOOP('',(#455,#456,#457,#458));
#1014=EDGE_LOOP('',(#459,#460,#461,#462,#463,#464,#465,#466,#467,#468,#469,
#470,#471,#472,#473,#474,#475,#476,#477,#478,#479,#480,#481,#482));
#1015=EDGE_LOOP('',(#483,#484,#485,#486));
#1016=EDGE_LOOP('',(#487,#488,#489,#490,#491,#492,#493,#494,#495,#496,#497,
#498));
#1017=EDGE_LOOP('',(#499,#500,#501,#502));
#1018=EDGE_LOOP('',(#503,#504,#505,#506));
#1019=EDGE_LOOP('',(#507));
#1020=EDGE_LOOP('',(#508));
#1021=EDGE_LOOP('',(#509));
#1022=EDGE_LOOP('',(#510));
#1023=EDGE_LOOP('',(#511));
#1024=EDGE_LOOP('',(#512));
#1025=EDGE_LOOP('',(#513));
#1026=EDGE_LOOP('',(#514));
#1027=EDGE_LOOP('',(#515));
#1028=EDGE_LOOP('',(#516));
#1029=EDGE_LOOP('',(#517,#518,#519,#520));
#1030=EDGE_LOOP('',(#521,#522,#523,#524));
#1031=EDGE_LOOP('',(#525,#526,#527,#528));
#1032=EDGE_LOOP('',(#529,#530,#531,#532));
#1033=EDGE_LOOP('',(#533,#534,#535,#536));
#1034=EDGE_LOOP('',(#537,#538,#539,#540));
#1035=EDGE_LOOP('',(#541,#542,#543,#544));
#1036=EDGE_LOOP('',(#545,#546,#547,#548));
#1037=EDGE_LOOP('',(#549,#550,#551,#552));
#1038=EDGE_LOOP('',(#553,#554,#555,#556));
#1039=EDGE_LOOP('',(#557,#558,#559,#560));
#1040=EDGE_LOOP('',(#561,#562,#563,#564));
#1041=EDGE_LOOP('',(#565,#566,#567,#568));
#1042=EDGE_LOOP('',(#569,#570,#571,#572));
#1043=EDGE_LOOP('',(#573,#574,#575,#576));
#1044=EDGE_LOOP('',(#577,#578,#579,#580));
#1045=EDGE_LOOP('',(#581,#582,#583,#584));
#1046=EDGE_LOOP('',(#585,#586,#587,#588));
#1047=EDGE_LOOP('',(#589,#590,#591,#592));
#1048=EDGE_LOOP('',(#593,#594,#595,#596));
#1049=EDGE_LOOP('',(#597,#598,#599,#600));
#1050=EDGE_LOOP('',(#601,#602,#603,#604));
#1051=EDGE_LOOP('',(#605,#606,#607,#608));
#1052=EDGE_LOOP('',(#609,#610,#611,#612));
#1053=EDGE_LOOP('',(#613,#614,#615,#616));
#1054=EDGE_LOOP('',(#617,#618,#619,#620));
#1055=EDGE_LOOP('',(#621,#622,#623,#624));
#1056=EDGE_LOOP('',(#625,#626,#627,#628));
#1057=EDGE_LOOP('',(#629,#630,#631,#632));
#1058=EDGE_LOOP('',(#633,#634,#635,#636,#637));
#1059=EDGE_LOOP('',(#638,#639,#640,#641));
#1060=EDGE_LOOP('',(#642,#643,#644,#645,#646));
#1061=EDGE_LOOP('',(#647,#648,#649,#650,#651));
#1062=EDGE_LOOP('',(#652,#653,#654,#655));
#1063=EDGE_LOOP('',(#656,#657,#658,#659,#660));
#1064=EDGE_LOOP('',(#661,#662,#663,#664));
#1065=FACE_BOUND('',#979,.T.);
#1066=FACE_BOUND('',#980,.T.);
#1067=FACE_BOUND('',#981,.T.);
#1068=FACE_BOUND('',#982,.T.);
#1069=FACE_BOUND('',#983,.T.);
#1070=FACE_BOUND('',#984,.T.);
#1071=FACE_BOUND('',#985,.T.);
#1072=FACE_BOUND('',#986,.T.);
#1073=FACE_BOUND('',#987,.T.);
#1074=FACE_BOUND('',#988,.T.);
#1075=FACE_BOUND('',#989,.T.);
#1076=FACE_BOUND('',#990,.T.);
#1077=FACE_BOUND('',#991,.T.);
#1078=FACE_BOUND('',#992,.T.);
#1079=FACE_BOUND('',#993,.T.);
#1080=FACE_BOUND('',#994,.T.);
#1081=FACE_BOUND('',#995,.T.);
#1082=FACE_BOUND('',#996,.T.);
#1083=FACE_BOUND('',#997,.T.);
#1084=FACE_BOUND('',#998,.T.);
#1085=FACE_BOUND('',#999,.T.);
#1086=FACE_BOUND('',#1000,.T.);
#1087=FACE_BOUND('',#1001,.T.);
#1088=FACE_BOUND('',#1002,.T.);
#1089=FACE_BOUND('',#1003,.T.);
#1090=FACE_BOUND('',#1004,.T.);
#1091=FACE_BOUND('',#1005,.T.);
#1092=FACE_BOUND('',#1006,.T.);
#1093=FACE_BOUND('',#1007,.T.);
#1094=FACE_BOUND('',#1008,.T.);
#1095=FACE_BOUND('',#1009,.T.);
#1096=FACE_BOUND('',#1010,.T.);
#1097=FACE_BOUND('',#1011,.T.);
#1098=FACE_BOUND('',#1012,.T.);
#1099=FACE_BOUND('',#1013,.T.);
#1100=FACE_BOUND('',#1014,.T.);
#1101=FACE_BOUND('',#1015,.T.);
#1102=FACE_BOUND('',#1016,.T.);
#1103=FACE_BOUND('',#1017,.T.);
#1104=FACE_BOUND('',#1018,.T.);
#1105=FACE_BOUND('',#1019,.T.);
#1106=FACE_BOUND('',#1020,.T.);
#1107=FACE_BOUND('',#1021,.T.);
#1108=FACE_BOUND('',#1022,.T.);
#1109=FACE_BOUND('',#1023,.T.);
#1110=FACE_BOUND('',#1024,.T.);
#1111=FACE_BOUND('',#1025,.T.);
#1112=FACE_BOUND('',#1026,.T.);
#1113=FACE_BOUND('',#1027,.T.);
#1114=FACE_BOUND('',#1028,.T.);
#1115=FACE_BOUND('',#1029,.T.);
#1116=FACE_BOUND('',#1030,.T.);
#1117=FACE_BOUND('',#1031,.T.);
#1118=FACE_BOUND('',#1032,.T.);
#1119=FACE_BOUND('',#1033,.T.);
#1120=FACE_BOUND('',#1034,.T.);
#1121=FACE_BOUND('',#1035,.T.);
#1122=FACE_BOUND('',#1036,.T.);
#1123=FACE_BOUND('',#1037,.T.);
#1124=FACE_BOUND('',#1038,.T.);
#1125=FACE_BOUND('',#1039,.T.);
#1126=FACE_BOUND('',#1040,.T.);
#1127=FACE_BOUND('',#1041,.T.);
#1128=FACE_BOUND('',#1042,.T.);
#1129=FACE_BOUND('',#1043,.T.);
#1130=FACE_BOUND('',#1044,.T.);
#1131=FACE_BOUND('',#1045,.T.);
#1132=FACE_BOUND('',#1046,.T.);
#1133=FACE_BOUND('',#1047,.T.);
#1134=FACE_BOUND('',#1048,.T.);
#1135=FACE_BOUND('',#1049,.T.);
#1136=FACE_BOUND('',#1050,.T.);
#1137=FACE_BOUND('',#1051,.T.);
#1138=FACE_BOUND('',#1052,.T.);
#1139=FACE_BOUND('',#1053,.T.);
#1140=FACE_BOUND('',#1054,.T.);
#1141=FACE_BOUND('',#1055,.T.);
#1142=FACE_BOUND('',#1056,.T.);
#1143=FACE_BOUND('',#1057,.T.);
#1144=FACE_BOUND('',#1058,.T.);
#1145=FACE_BOUND('',#1059,.T.);
#1146=FACE_BOUND('',#1060,.T.);
#1147=FACE_BOUND('',#1061,.T.);
#1148=FACE_BOUND('',#1062,.T.);
#1149=FACE_BOUND('',#1063,.T.);
#1150=FACE_BOUND('',#1064,.T.);
#1151=CYLINDRICAL_SURFACE('',#1265,2.74999999999999);
#1152=CYLINDRICAL_SURFACE('',#1268,2.74999999999999);
#1153=CYLINDRICAL_SURFACE('',#1281,2.74999999999999);
#1154=CYLINDRICAL_SURFACE('',#1282,3.6);
#1155=CYLINDRICAL_SURFACE('',#1284,3.6);
#1156=CYLINDRICAL_SURFACE('',#1295,3.6);
#1157=CYLINDRICAL_SURFACE('',#1327,3.1);
#1158=CYLINDRICAL_SURFACE('',#1331,2.4);
#1159=CYLINDRICAL_SURFACE('',#1335,3.1);
#1160=CYLINDRICAL_SURFACE('',#1355,3.6);
#1161=CYLINDRICAL_SURFACE('',#1360,3.1);
#1162=CYLINDRICAL_SURFACE('',#1364,2.4);
#1163=CYLINDRICAL_SURFACE('',#1368,3.1);
#1164=CYLINDRICAL_SURFACE('',#1371,2.4);
#1165=CYLINDRICAL_SURFACE('',#1374,2.4);
#1166=CYLINDRICAL_SURFACE('',#1377,2.4);
#1167=CYLINDRICAL_SURFACE('',#1380,2.4);
#1168=CYLINDRICAL_SURFACE('',#1383,0.5);
#1169=CYLINDRICAL_SURFACE('',#1384,0.5);
#1170=CYLINDRICAL_SURFACE('',#1385,0.5);
#1171=CYLINDRICAL_SURFACE('',#1386,0.5);
#1172=CYLINDRICAL_SURFACE('',#1387,0.1);
#1173=CYLINDRICAL_SURFACE('',#1388,0.1);
#1174=CYLINDRICAL_SURFACE('',#1389,0.1);
#1175=CYLINDRICAL_SURFACE('',#1390,0.1);
#1176=CYLINDRICAL_SURFACE('',#1391,0.1);
#1177=CYLINDRICAL_SURFACE('',#1392,0.1);
#1178=CYLINDRICAL_SURFACE('',#1393,0.1);
#1179=CYLINDRICAL_SURFACE('',#1394,0.1);
#1180=CYLINDRICAL_SURFACE('',#1396,0.4);
#1181=CYLINDRICAL_SURFACE('',#1398,0.4);
#1182=CYLINDRICAL_SURFACE('',#1399,0.4);
#1183=CYLINDRICAL_SURFACE('',#1401,0.4);
#1184=ADVANCED_FACE('',(#1065),#1151,.T.);
#1185=ADVANCED_FACE('',(#1066),#1152,.T.);
#1186=ADVANCED_FACE('',(#1067),#53,.T.);
#1187=ADVANCED_FACE('',(#1068),#54,.T.);
#1188=ADVANCED_FACE('',(#1069),#1153,.T.);
#1189=ADVANCED_FACE('',(#1070),#1154,.T.);
#1190=ADVANCED_FACE('',(#1071),#1155,.T.);
#1191=ADVANCED_FACE('',(#1072),#20,.T.);
#1192=ADVANCED_FACE('',(#1073),#21,.T.);
#1193=ADVANCED_FACE('',(#1074),#22,.T.);
#1194=ADVANCED_FACE('',(#1075),#23,.F.);
#1195=ADVANCED_FACE('',(#1076),#1156,.T.);
#1196=ADVANCED_FACE('',(#1077),#24,.F.);
#1197=ADVANCED_FACE('',(#1078),#25,.F.);
#1198=ADVANCED_FACE('',(#1079,#1080,#1081),#26,.T.);
#1199=ADVANCED_FACE('',(#1082,#1083,#1084),#27,.F.);
#1200=ADVANCED_FACE('',(#1085,#1086),#28,.T.);
#1201=ADVANCED_FACE('',(#1087),#29,.F.);
#1202=ADVANCED_FACE('',(#1088,#1089),#1157,.F.);
#1203=ADVANCED_FACE('',(#1090,#1091),#30,.F.);
#1204=ADVANCED_FACE('',(#1092,#1093),#1158,.F.);
#1205=ADVANCED_FACE('',(#1094,#1095),#31,.F.);
#1206=ADVANCED_FACE('',(#1096,#1097),#1159,.F.);
#1207=ADVANCED_FACE('',(#1098),#32,.T.);
#1208=ADVANCED_FACE('',(#1099),#33,.T.);
#1209=ADVANCED_FACE('',(#1100,#1101),#34,.T.);
#1210=ADVANCED_FACE('',(#1102),#1160,.T.);
#1211=ADVANCED_FACE('',(#1103),#35,.T.);
#1212=ADVANCED_FACE('',(#1104),#36,.T.);
#1213=ADVANCED_FACE('',(#1105,#1106),#1161,.F.);
#1214=ADVANCED_FACE('',(#1107,#1108),#37,.F.);
#1215=ADVANCED_FACE('',(#1109,#1110),#1162,.F.);
#1216=ADVANCED_FACE('',(#1111,#1112),#38,.F.);
#1217=ADVANCED_FACE('',(#1113,#1114),#1163,.F.);
#1218=ADVANCED_FACE('',(#1115),#39,.T.);
#1219=ADVANCED_FACE('',(#1116),#40,.F.);
#1220=ADVANCED_FACE('',(#1117,#1118),#1164,.F.);
#1221=ADVANCED_FACE('',(#1119),#41,.F.);
#1222=ADVANCED_FACE('',(#1120),#42,.F.);
#1223=ADVANCED_FACE('',(#1121),#1165,.F.);
#1224=ADVANCED_FACE('',(#1122),#43,.F.);
#1225=ADVANCED_FACE('',(#1123),#44,.F.);
#1226=ADVANCED_FACE('',(#1124,#1125),#1166,.F.);
#1227=ADVANCED_FACE('',(#1126),#45,.F.);
#1228=ADVANCED_FACE('',(#1127),#46,.F.);
#1229=ADVANCED_FACE('',(#1128),#1167,.F.);
#1230=ADVANCED_FACE('',(#1129),#47,.F.);
#1231=ADVANCED_FACE('',(#1130),#48,.F.);
#1232=ADVANCED_FACE('',(#1131),#1168,.T.);
#1233=ADVANCED_FACE('',(#1132),#1169,.T.);
#1234=ADVANCED_FACE('',(#1133),#1170,.T.);
#1235=ADVANCED_FACE('',(#1134),#1171,.T.);
#1236=ADVANCED_FACE('',(#1135),#1172,.F.);
#1237=ADVANCED_FACE('',(#1136),#1173,.F.);
#1238=ADVANCED_FACE('',(#1137),#1174,.F.);
#1239=ADVANCED_FACE('',(#1138),#1175,.F.);
#1240=ADVANCED_FACE('',(#1139),#1176,.F.);
#1241=ADVANCED_FACE('',(#1140),#1177,.F.);
#1242=ADVANCED_FACE('',(#1141),#1178,.F.);
#1243=ADVANCED_FACE('',(#1142),#1179,.F.);
#1244=ADVANCED_FACE('',(#1143),#49,.F.);
#1245=ADVANCED_FACE('',(#1144),#1180,.F.);
#1246=ADVANCED_FACE('',(#1145),#50,.F.);
#1247=ADVANCED_FACE('',(#1146),#1181,.F.);
#1248=ADVANCED_FACE('',(#1147),#1182,.F.);
#1249=ADVANCED_FACE('',(#1148),#51,.F.);
#1250=ADVANCED_FACE('',(#1149),#1183,.F.);
#1251=ADVANCED_FACE('',(#1150),#52,.F.);
#1252=CLOSED_SHELL('',(#1184,#1185,#1186,#1187,#1188,#1189,#1190,#1191,
#1192,#1193,#1194,#1195,#1196,#1197,#1198,#1199,#1200,#1201,#1202,#1203,
#1204,#1205,#1206,#1207,#1208,#1209,#1210,#1211,#1212,#1213,#1214,#1215,
#1216,#1217,#1218,#1219,#1220,#1221,#1222,#1223,#1224,#1225,#1226,#1227,
#1228,#1229,#1230,#1231,#1232,#1233,#1234,#1235,#1236,#1237,#1238,#1239,
#1240,#1241,#1242,#1243,#1244,#1245,#1246,#1247,#1248,#1249,#1250,#1251));
#1253=STYLED_ITEM('',(#1254),#1261);
#1254=PRESENTATION_STYLE_ASSIGNMENT((#1255));
#1255=SURFACE_STYLE_USAGE(.BOTH.,#1256);
#1256=SURFACE_SIDE_STYLE('',(#1257));
#1257=SURFACE_STYLE_FILL_AREA(#1258);
#1258=FILL_AREA_STYLE('',(#1259));
#1259=FILL_AREA_STYLE_COLOUR('',#1260);
#1260=COLOUR_RGB('',0.200000002980232,0.200000002980232,0.200000002980232);
#1261=MANIFOLD_SOLID_BREP('',#1252);
#1262=SHAPE_DEFINITION_REPRESENTATION(#2198,#1263);
#1263=SHAPE_REPRESENTATION('Black_4140430_AVV',(#1264),#2193);
#1264=AXIS2_PLACEMENT_3D('',#1773,#1403,#1404);
#1265=AXIS2_PLACEMENT_3D('',#1774,#1405,#1406);
#1266=AXIS2_PLACEMENT_3D('',#1788,#1408,#1409);
#1267=AXIS2_PLACEMENT_3D('',#1802,#1411,#1412);
#1268=AXIS2_PLACEMENT_3D('',#1803,#1413,#1414);
#1269=AXIS2_PLACEMENT_3D('',#1811,#1416,#1417);
#1270=AXIS2_PLACEMENT_3D('',#1815,#1419,#1420);
#1271=AXIS2_PLACEMENT_3D('',#1820,#1421,#1422);
#1272=AXIS2_PLACEMENT_3D('',#1826,#1423,#1424);
#1273=AXIS2_PLACEMENT_3D('',#1828,#1425,#1426);
#1274=AXIS2_PLACEMENT_3D('',#1830,#1427,#1428);
#1275=AXIS2_PLACEMENT_3D('',#1837,#1429,#1430);
#1276=AXIS2_PLACEMENT_3D('',#1838,#1431,#1432);
#1277=AXIS2_PLACEMENT_3D('',#1839,#1433,#1434);
#1278=AXIS2_PLACEMENT_3D('',#1846,#1435,#1436);
#1279=AXIS2_PLACEMENT_3D('',#1853,#1437,#1438);
#1280=AXIS2_PLACEMENT_3D('',#1855,#1439,#1440);
#1281=AXIS2_PLACEMENT_3D('',#1856,#1441,#1442);
#1282=AXIS2_PLACEMENT_3D('',#1869,#1445,#1446);
#1283=AXIS2_PLACEMENT_3D('',#1874,#1449,#1450);
#1284=AXIS2_PLACEMENT_3D('',#1875,#1451,#1452);
#1285=AXIS2_PLACEMENT_3D('',#1878,#1454,#1455);
#1286=AXIS2_PLACEMENT_3D('',#1881,#1457,#1458);
#1287=AXIS2_PLACEMENT_3D('',#1884,#1460,#1461);
#1288=AXIS2_PLACEMENT_3D('',#1888,#1463,#1464);
#1289=AXIS2_PLACEMENT_3D('',#1891,#1466,#1467);
#1290=AXIS2_PLACEMENT_3D('',#1896,#1470,#1471);
#1291=AXIS2_PLACEMENT_3D('',#1900,#1473,#1474);
#1292=AXIS2_PLACEMENT_3D('',#1901,#1475,#1476);
#1293=AXIS2_PLACEMENT_3D('',#1904,#1478,#1479);
#1294=AXIS2_PLACEMENT_3D('',#1907,#1481,#1482);
#1295=AXIS2_PLACEMENT_3D('',#1913,#1486,#1487);
#1296=AXIS2_PLACEMENT_3D('',#1914,#1488,#1489);
#1297=AXIS2_PLACEMENT_3D('',#1921,#1493,#1494);
#1298=AXIS2_PLACEMENT_3D('',#1925,#1496,#1497);
#1299=AXIS2_PLACEMENT_3D('',#1927,#1499,#1500);
#1300=AXIS2_PLACEMENT_3D('',#1933,#1504,#1505);
#1301=AXIS2_PLACEMENT_3D('',#1937,#1508,#1509);
#1302=AXIS2_PLACEMENT_3D('',#1938,#1510,#1511);
#1303=AXIS2_PLACEMENT_3D('',#1940,#1512,#1513);
#1304=AXIS2_PLACEMENT_3D('',#1941,#1514,#1515);
#1305=AXIS2_PLACEMENT_3D('',#1943,#1516,#1517);
#1306=AXIS2_PLACEMENT_3D('',#1944,#1518,#1519);
#1307=AXIS2_PLACEMENT_3D('',#1946,#1520,#1521);
#1308=AXIS2_PLACEMENT_3D('',#1947,#1522,#1523);
#1309=AXIS2_PLACEMENT_3D('',#1949,#1524,#1525);
#1310=AXIS2_PLACEMENT_3D('',#1953,#1527,#1528);
#1311=AXIS2_PLACEMENT_3D('',#1957,#1530,#1531);
#1312=AXIS2_PLACEMENT_3D('',#1959,#1532,#1533);
#1313=AXIS2_PLACEMENT_3D('',#1961,#1534,#1535);
#1314=AXIS2_PLACEMENT_3D('',#1965,#1537,#1538);
#1315=AXIS2_PLACEMENT_3D('',#1969,#1540,#1541);
#1316=AXIS2_PLACEMENT_3D('',#1971,#1542,#1543);
#1317=AXIS2_PLACEMENT_3D('',#1973,#1544,#1545);
#1318=AXIS2_PLACEMENT_3D('',#1977,#1547,#1548);
#1319=AXIS2_PLACEMENT_3D('',#1981,#1550,#1551);
#1320=AXIS2_PLACEMENT_3D('',#1983,#1552,#1553);
#1321=AXIS2_PLACEMENT_3D('',#1985,#1554,#1555);
#1322=AXIS2_PLACEMENT_3D('',#1989,#1557,#1558);
#1323=AXIS2_PLACEMENT_3D('',#1993,#1560,#1561);
#1324=AXIS2_PLACEMENT_3D('',#1995,#1562,#1563);
#1325=AXIS2_PLACEMENT_3D('',#1997,#1564,#1565);
#1326=AXIS2_PLACEMENT_3D('',#1999,#1567,#1568);
#1327=AXIS2_PLACEMENT_3D('',#2001,#1570,#1571);
#1328=AXIS2_PLACEMENT_3D('',#2002,#1572,#1573);
#1329=AXIS2_PLACEMENT_3D('',#2004,#1574,#1575);
#1330=AXIS2_PLACEMENT_3D('',#2005,#1576,#1577);
#1331=AXIS2_PLACEMENT_3D('',#2007,#1578,#1579);
#1332=AXIS2_PLACEMENT_3D('',#2008,#1580,#1581);
#1333=AXIS2_PLACEMENT_3D('',#2010,#1582,#1583);
#1334=AXIS2_PLACEMENT_3D('',#2011,#1584,#1585);
#1335=AXIS2_PLACEMENT_3D('',#2013,#1586,#1587);
#1336=AXIS2_PLACEMENT_3D('',#2014,#1588,#1589);
#1337=AXIS2_PLACEMENT_3D('',#2015,#1590,#1591);
#1338=AXIS2_PLACEMENT_3D('',#2016,#1592,#1593);
#1339=AXIS2_PLACEMENT_3D('',#2020,#1595,#1596);
#1340=AXIS2_PLACEMENT_3D('',#2024,#1598,#1599);
#1341=AXIS2_PLACEMENT_3D('',#2026,#1600,#1601);
#1342=AXIS2_PLACEMENT_3D('',#2028,#1602,#1603);
#1343=AXIS2_PLACEMENT_3D('',#2032,#1605,#1606);
#1344=AXIS2_PLACEMENT_3D('',#2036,#1608,#1609);
#1345=AXIS2_PLACEMENT_3D('',#2038,#1610,#1611);
#1346=AXIS2_PLACEMENT_3D('',#2040,#1612,#1613);
#1347=AXIS2_PLACEMENT_3D('',#2044,#1615,#1616);
#1348=AXIS2_PLACEMENT_3D('',#2048,#1618,#1619);
#1349=AXIS2_PLACEMENT_3D('',#2050,#1620,#1621);
#1350=AXIS2_PLACEMENT_3D('',#2052,#1622,#1623);
#1351=AXIS2_PLACEMENT_3D('',#2056,#1625,#1626);
#1352=AXIS2_PLACEMENT_3D('',#2060,#1628,#1629);
#1353=AXIS2_PLACEMENT_3D('',#2062,#1630,#1631);
#1354=AXIS2_PLACEMENT_3D('',#2064,#1632,#1633);
#1355=AXIS2_PLACEMENT_3D('',#2070,#1637,#1638);
#1356=AXIS2_PLACEMENT_3D('',#2071,#1639,#1640);
#1357=AXIS2_PLACEMENT_3D('',#2076,#1643,#1644);
#1358=AXIS2_PLACEMENT_3D('',#2077,#1645,#1646);
#1359=AXIS2_PLACEMENT_3D('',#2079,#1648,#1649);
#1360=AXIS2_PLACEMENT_3D('',#2081,#1651,#1652);
#1361=AXIS2_PLACEMENT_3D('',#2082,#1653,#1654);
#1362=AXIS2_PLACEMENT_3D('',#2084,#1655,#1656);
#1363=AXIS2_PLACEMENT_3D('',#2085,#1657,#1658);
#1364=AXIS2_PLACEMENT_3D('',#2087,#1659,#1660);
#1365=AXIS2_PLACEMENT_3D('',#2088,#1661,#1662);
#1366=AXIS2_PLACEMENT_3D('',#2090,#1663,#1664);
#1367=AXIS2_PLACEMENT_3D('',#2091,#1665,#1666);
#1368=AXIS2_PLACEMENT_3D('',#2093,#1667,#1668);
#1369=AXIS2_PLACEMENT_3D('',#2094,#1669,#1670);
#1370=AXIS2_PLACEMENT_3D('',#2095,#1671,#1672);
#1371=AXIS2_PLACEMENT_3D('',#2096,#1673,#1674);
#1372=AXIS2_PLACEMENT_3D('',#2115,#1679,#1680);
#1373=AXIS2_PLACEMENT_3D('',#2118,#1683,#1684);
#1374=AXIS2_PLACEMENT_3D('',#2121,#1687,#1688);
#1375=AXIS2_PLACEMENT_3D('',#2124,#1691,#1692);
#1376=AXIS2_PLACEMENT_3D('',#2127,#1695,#1696);
#1377=AXIS2_PLACEMENT_3D('',#2130,#1699,#1700);
#1378=AXIS2_PLACEMENT_3D('',#2149,#1705,#1706);
#1379=AXIS2_PLACEMENT_3D('',#2152,#1709,#1710);
#1380=AXIS2_PLACEMENT_3D('',#2155,#1713,#1714);
#1381=AXIS2_PLACEMENT_3D('',#2158,#1717,#1718);
#1382=AXIS2_PLACEMENT_3D('',#2161,#1721,#1722);
#1383=AXIS2_PLACEMENT_3D('',#2164,#1725,#1726);
#1384=AXIS2_PLACEMENT_3D('',#2165,#1727,#1728);
#1385=AXIS2_PLACEMENT_3D('',#2166,#1729,#1730);
#1386=AXIS2_PLACEMENT_3D('',#2167,#1731,#1732);
#1387=AXIS2_PLACEMENT_3D('',#2168,#1733,#1734);
#1388=AXIS2_PLACEMENT_3D('',#2169,#1735,#1736);
#1389=AXIS2_PLACEMENT_3D('',#2170,#1737,#1738);
#1390=AXIS2_PLACEMENT_3D('',#2171,#1739,#1740);
#1391=AXIS2_PLACEMENT_3D('',#2172,#1741,#1742);
#1392=AXIS2_PLACEMENT_3D('',#2173,#1743,#1744);
#1393=AXIS2_PLACEMENT_3D('',#2174,#1745,#1746);
#1394=AXIS2_PLACEMENT_3D('',#2175,#1747,#1748);
#1395=AXIS2_PLACEMENT_3D('',#2176,#1749,#1750);
#1396=AXIS2_PLACEMENT_3D('',#2179,#1753,#1754);
#1397=AXIS2_PLACEMENT_3D('',#2181,#1756,#1757);
#1398=AXIS2_PLACEMENT_3D('',#2183,#1759,#1760);
#1399=AXIS2_PLACEMENT_3D('',#2184,#1761,#1762);
#1400=AXIS2_PLACEMENT_3D('',#2187,#1765,#1766);
#1401=AXIS2_PLACEMENT_3D('',#2189,#1768,#1769);
#1402=AXIS2_PLACEMENT_3D('',#2191,#1771,#1772);
#1403=DIRECTION('',(0.,0.,1.));
#1404=DIRECTION('',(1.,0.,0.));
#1405=DIRECTION('',(-6.12303176911189E-17,-1.,-6.12303176911189E-17));
#1406=DIRECTION('',(0.,6.12303176911189E-17,-1.));
#1407=DIRECTION('',(-6.12303176911189E-17,-1.,-6.12303176911189E-17));
#1408=DIRECTION('',(-6.12303176911189E-17,-1.,-6.12303176911189E-17));
#1409=DIRECTION('',(0.,6.12303176911189E-17,-1.));
#1410=DIRECTION('',(-6.12303176911189E-17,-1.,-6.12303176911189E-17));
#1411=DIRECTION('',(-6.12303176911189E-17,-1.,-6.12303176911189E-17));
#1412=DIRECTION('',(0.,6.12303176911189E-17,-1.));
#1413=DIRECTION('',(-6.12303176911189E-17,-1.,-6.12303176911189E-17));
#1414=DIRECTION('',(0.,6.12303176911189E-17,-1.));
#1415=DIRECTION('',(-6.12303176911189E-17,-1.,-6.12303176911189E-17));
#1416=DIRECTION('',(-6.12303176911189E-17,-1.,-6.12303176911189E-17));
#1417=DIRECTION('',(0.,6.12303176911189E-17,-1.));
#1418=DIRECTION('',(-6.12303176911189E-17,-1.,-6.12303176911189E-17));
#1419=DIRECTION('',(-6.12303176911189E-17,-1.,-6.12303176911189E-17));
#1420=DIRECTION('',(0.,6.12303176911189E-17,-1.));
#1421=DIRECTION('',(6.12303176911189E-17,1.,6.12303176911189E-17));
#1422=DIRECTION('',(0.,-6.12303176911189E-17,1.));
#1423=DIRECTION('',(0.,-1.,0.));
#1424=DIRECTION('',(0.,0.,-1.));
#1425=DIRECTION('',(-6.12303176911189E-17,-1.,-6.12303176911189E-17));
#1426=DIRECTION('',(0.,6.12303176911189E-17,-1.));
#1427=DIRECTION('',(0.,-1.,0.));
#1428=DIRECTION('',(0.,0.,-1.));
#1429=DIRECTION('',(-6.12303176911189E-17,-1.,-6.12303176911189E-17));
#1430=DIRECTION('',(0.,6.12303176911189E-17,-1.));
#1431=DIRECTION('',(-6.12303176911189E-17,-1.,-6.12303176911189E-17));
#1432=DIRECTION('',(0.,6.12303176911189E-17,-1.));
#1433=DIRECTION('',(0.,-1.,0.));
#1434=DIRECTION('',(0.,0.,-1.));
#1435=DIRECTION('',(-6.12303176911189E-17,-1.,-6.12303176911189E-17));
#1436=DIRECTION('',(0.,6.12303176911189E-17,-1.));
#1437=DIRECTION('',(0.,-1.,0.));
#1438=DIRECTION('',(0.,0.,-1.));
#1439=DIRECTION('',(-6.12303176911189E-17,-1.,-6.12303176911189E-17));
#1440=DIRECTION('',(0.,6.12303176911189E-17,-1.));
#1441=DIRECTION('',(-6.12303176911189E-17,-1.,-6.12303176911189E-17));
#1442=DIRECTION('',(0.,6.12303176911189E-17,-1.));
#1443=DIRECTION('',(-6.12303176911189E-17,-1.,-6.12303176911189E-17));
#1444=DIRECTION('',(-6.12303176911189E-17,-1.,-6.12303176911189E-17));
#1445=DIRECTION('',(0.,1.,0.));
#1446=DIRECTION('',(0.,0.,1.));
#1447=DIRECTION('',(0.,-1.,0.));
#1448=DIRECTION('',(0.,-1.,0.));
#1449=DIRECTION('',(0.,-1.,0.));
#1450=DIRECTION('',(0.,0.,-1.));
#1451=DIRECTION('',(0.,1.,0.));
#1452=DIRECTION('',(0.,0.,1.));
#1453=DIRECTION('',(0.,1.,0.));
#1454=DIRECTION('',(0.,-1.,0.));
#1455=DIRECTION('',(0.,0.,-1.));
#1456=DIRECTION('',(0.,1.,0.));
#1457=DIRECTION('',(0.,0.,1.));
#1458=DIRECTION('',(1.,0.,0.));
#1459=DIRECTION('',(1.,0.,0.));
#1460=DIRECTION('',(0.,0.,-1.));
#1461=DIRECTION('',(1.,0.,0.));
#1462=DIRECTION('',(8.85037268571674E-16,-1.,0.));
#1463=DIRECTION('',(0.,0.,1.));
#1464=DIRECTION('',(1.,0.,0.));
#1465=DIRECTION('',(1.,0.,0.));
#1466=DIRECTION('',(0.,0.,-1.));
#1467=DIRECTION('',(-1.,0.,0.));
#1468=DIRECTION('',(-1.,0.,0.));
#1469=DIRECTION('',(-1.,0.,0.));
#1470=DIRECTION('',(0.,0.,-1.));
#1471=DIRECTION('',(1.,0.,0.));
#1472=DIRECTION('',(-8.85037268571674E-16,1.,0.));
#1473=DIRECTION('',(0.,0.,1.));
#1474=DIRECTION('',(1.,0.,0.));
#1475=DIRECTION('',(0.,0.,1.));
#1476=DIRECTION('',(1.,0.,0.));
#1477=DIRECTION('',(1.,0.,0.));
#1478=DIRECTION('',(0.,0.,1.));
#1479=DIRECTION('',(1.,0.,0.));
#1480=DIRECTION('',(1.,0.,0.));
#1481=DIRECTION('',(1.,-2.21259317142918E-16,0.));
#1482=DIRECTION('',(2.21259317142918E-16,1.,0.));
#1483=DIRECTION('',(-2.21259317142918E-16,-1.,0.));
#1484=DIRECTION('',(0.,0.,-1.));
#1485=DIRECTION('',(0.,0.,-1.));
#1486=DIRECTION('',(0.,0.,-1.));
#1487=DIRECTION('',(-1.,0.,0.));
#1488=DIRECTION('',(0.,0.,1.));
#1489=DIRECTION('',(1.,0.,0.));
#1490=DIRECTION('',(0.,0.,-1.));
#1491=DIRECTION('',(0.,0.,1.));
#1492=DIRECTION('',(0.,0.,-1.));
#1493=DIRECTION('',(0.,0.,1.));
#1494=DIRECTION('',(0.,-1.,0.));
#1495=DIRECTION('',(0.,0.,-1.));
#1496=DIRECTION('',(0.,0.,1.));
#1497=DIRECTION('',(0.,-1.,0.));
#1498=DIRECTION('',(0.,0.,-1.));
#1499=DIRECTION('',(-1.,-2.21259317142919E-16,0.));
#1500=DIRECTION('',(2.21259317142919E-16,-1.,0.));
#1501=DIRECTION('',(-2.21259317142919E-16,1.,0.));
#1502=DIRECTION('',(-2.21259317142919E-16,1.,0.));
#1503=DIRECTION('',(0.,0.,-1.));
#1504=DIRECTION('',(1.,-2.21259317142918E-16,0.));
#1505=DIRECTION('',(2.21259317142918E-16,1.,0.));
#1506=DIRECTION('',(0.,0.,-1.));
#1507=DIRECTION('',(-2.21259317142918E-16,-1.,0.));
#1508=DIRECTION('',(0.,0.,1.));
#1509=DIRECTION('',(1.,0.,0.));
#1510=DIRECTION('',(0.,0.,1.));
#1511=DIRECTION('',(1.,0.,0.));
#1512=DIRECTION('',(0.,0.,-1.));
#1513=DIRECTION('',(0.,1.,0.));
#1514=DIRECTION('',(0.,0.,-1.));
#1515=DIRECTION('',(1.,0.,0.));
#1516=DIRECTION('',(0.,0.,1.));
#1517=DIRECTION('',(1.,0.,0.));
#1518=DIRECTION('',(0.,0.,1.));
#1519=DIRECTION('',(1.,0.,0.));
#1520=DIRECTION('',(0.,0.,-1.));
#1521=DIRECTION('',(0.,1.,0.));
#1522=DIRECTION('',(0.,0.,-1.));
#1523=DIRECTION('',(1.,0.,0.));
#1524=DIRECTION('',(0.,1.,0.));
#1525=DIRECTION('',(0.,0.,1.));
#1526=DIRECTION('',(0.,0.,1.));
#1527=DIRECTION('',(0.,1.,0.));
#1528=DIRECTION('',(0.,0.,1.));
#1529=DIRECTION('',(1.,0.,1.63670507663034E-16));
#1530=DIRECTION('',(0.,1.,0.));
#1531=DIRECTION('',(0.,0.,1.));
#1532=DIRECTION('',(0.,1.,0.));
#1533=DIRECTION('',(0.,0.,1.));
#1534=DIRECTION('',(0.,1.,0.));
#1535=DIRECTION('',(0.,0.,1.));
#1536=DIRECTION('',(-1.,0.,0.));
#1537=DIRECTION('',(0.,1.,0.));
#1538=DIRECTION('',(0.,0.,1.));
#1539=DIRECTION('',(0.,0.,1.));
#1540=DIRECTION('',(0.,1.,0.));
#1541=DIRECTION('',(0.,0.,1.));
#1542=DIRECTION('',(0.,1.,0.));
#1543=DIRECTION('',(0.,0.,1.));
#1544=DIRECTION('',(0.,1.,0.));
#1545=DIRECTION('',(0.,0.,1.));
#1546=DIRECTION('',(0.,0.,-1.));
#1547=DIRECTION('',(0.,1.,0.));
#1548=DIRECTION('',(0.,0.,1.));
#1549=DIRECTION('',(-1.,0.,0.));
#1550=DIRECTION('',(0.,1.,0.));
#1551=DIRECTION('',(0.,0.,1.));
#1552=DIRECTION('',(0.,1.,0.));
#1553=DIRECTION('',(0.,0.,1.));
#1554=DIRECTION('',(0.,1.,0.));
#1555=DIRECTION('',(0.,0.,1.));
#1556=DIRECTION('',(1.,0.,1.63670507663034E-16));
#1557=DIRECTION('',(0.,1.,0.));
#1558=DIRECTION('',(0.,0.,1.));
#1559=DIRECTION('',(0.,0.,-1.));
#1560=DIRECTION('',(0.,1.,0.));
#1561=DIRECTION('',(0.,0.,1.));
#1562=DIRECTION('',(0.,1.,0.));
#1563=DIRECTION('',(0.,0.,1.));
#1564=DIRECTION('',(0.,1.,0.));
#1565=DIRECTION('',(0.,0.,1.));
#1566=DIRECTION('',(1.,0.,0.));
#1567=DIRECTION('',(0.,0.,1.));
#1568=DIRECTION('',(1.,0.,0.));
#1569=DIRECTION('',(-1.,0.,0.));
#1570=DIRECTION('',(0.,0.,1.));
#1571=DIRECTION('',(1.,0.,0.));
#1572=DIRECTION('',(0.,0.,1.));
#1573=DIRECTION('',(1.,0.,0.));
#1574=DIRECTION('',(0.,0.,-1.));
#1575=DIRECTION('',(-1.,0.,0.));
#1576=DIRECTION('',(0.,0.,1.));
#1577=DIRECTION('',(1.,0.,0.));
#1578=DIRECTION('',(0.,0.,1.));
#1579=DIRECTION('',(1.,0.,0.));
#1580=DIRECTION('',(0.,0.,1.));
#1581=DIRECTION('',(1.,0.,0.));
#1582=DIRECTION('',(0.,0.,1.));
#1583=DIRECTION('',(1.,0.,0.));
#1584=DIRECTION('',(0.,0.,1.));
#1585=DIRECTION('',(1.,0.,0.));
#1586=DIRECTION('',(0.,0.,1.));
#1587=DIRECTION('',(1.,0.,0.));
#1588=DIRECTION('',(0.,-1.,0.));
#1589=DIRECTION('',(0.,0.,-1.));
#1590=DIRECTION('',(0.,-1.,0.));
#1591=DIRECTION('',(0.,0.,-1.));
#1592=DIRECTION('',(0.,-1.,0.));
#1593=DIRECTION('',(0.,0.,1.));
#1594=DIRECTION('',(-1.,0.,-1.63670507663034E-16));
#1595=DIRECTION('',(0.,-1.,0.));
#1596=DIRECTION('',(0.,0.,-1.));
#1597=DIRECTION('',(0.,0.,-1.));
#1598=DIRECTION('',(0.,-1.,0.));
#1599=DIRECTION('',(0.,0.,-1.));
#1600=DIRECTION('',(0.,-1.,0.));
#1601=DIRECTION('',(-1.,0.,0.));
#1602=DIRECTION('',(0.,-1.,0.));
#1603=DIRECTION('',(0.,0.,-1.));
#1604=DIRECTION('',(0.,0.,1.));
#1605=DIRECTION('',(0.,-1.,0.));
#1606=DIRECTION('',(0.,0.,-1.));
#1607=DIRECTION('',(-1.,0.,-1.63670507663034E-16));
#1608=DIRECTION('',(0.,-1.,0.));
#1609=DIRECTION('',(0.,0.,-1.));
#1610=DIRECTION('',(0.,-1.,0.));
#1611=DIRECTION('',(-1.,0.,0.));
#1612=DIRECTION('',(0.,-1.,0.));
#1613=DIRECTION('',(0.,0.,-1.));
#1614=DIRECTION('',(1.,0.,0.));
#1615=DIRECTION('',(0.,-1.,0.));
#1616=DIRECTION('',(0.,0.,-1.));
#1617=DIRECTION('',(0.,0.,1.));
#1618=DIRECTION('',(0.,-1.,0.));
#1619=DIRECTION('',(0.,0.,-1.));
#1620=DIRECTION('',(0.,-1.,0.));
#1621=DIRECTION('',(-1.,0.,0.));
#1622=DIRECTION('',(0.,-1.,0.));
#1623=DIRECTION('',(0.,0.,-1.));
#1624=DIRECTION('',(0.,0.,-1.));
#1625=DIRECTION('',(0.,-1.,0.));
#1626=DIRECTION('',(0.,0.,-1.));
#1627=DIRECTION('',(1.,0.,0.));
#1628=DIRECTION('',(0.,-1.,0.));
#1629=DIRECTION('',(0.,0.,-1.));
#1630=DIRECTION('',(0.,-1.,0.));
#1631=DIRECTION('',(1.,0.,0.));
#1632=DIRECTION('',(0.,-1.,0.));
#1633=DIRECTION('',(0.,0.,-1.));
#1634=DIRECTION('',(1.,0.,0.));
#1635=DIRECTION('',(0.,0.,-1.));
#1636=DIRECTION('',(1.,0.,0.));
#1637=DIRECTION('',(0.,0.,-1.));
#1638=DIRECTION('',(-1.,0.,0.));
#1639=DIRECTION('',(0.,0.,-1.));
#1640=DIRECTION('',(1.,0.,0.));
#1641=DIRECTION('',(0.,0.,-1.));
#1642=DIRECTION('',(0.,0.,1.));
#1643=DIRECTION('',(0.,0.,-1.));
#1644=DIRECTION('',(1.,0.,0.));
#1645=DIRECTION('',(0.,1.,0.));
#1646=DIRECTION('',(0.,0.,-1.));
#1647=DIRECTION('',(-1.,0.,0.));
#1648=DIRECTION('',(0.,1.,0.));
#1649=DIRECTION('',(0.,0.,-1.));
#1650=DIRECTION('',(1.,0.,0.));
#1651=DIRECTION('',(0.,0.,1.));
#1652=DIRECTION('',(1.,0.,0.));
#1653=DIRECTION('',(0.,0.,-1.));
#1654=DIRECTION('',(1.,0.,0.));
#1655=DIRECTION('',(0.,0.,1.));
#1656=DIRECTION('',(1.,0.,0.));
#1657=DIRECTION('',(0.,0.,-1.));
#1658=DIRECTION('',(1.,0.,0.));
#1659=DIRECTION('',(0.,0.,1.));
#1660=DIRECTION('',(1.,0.,0.));
#1661=DIRECTION('',(0.,0.,-1.));
#1662=DIRECTION('',(1.,0.,0.));
#1663=DIRECTION('',(0.,0.,-1.));
#1664=DIRECTION('',(-1.,0.,0.));
#1665=DIRECTION('',(0.,0.,-1.));
#1666=DIRECTION('',(1.,0.,0.));
#1667=DIRECTION('',(0.,0.,1.));
#1668=DIRECTION('',(1.,0.,0.));
#1669=DIRECTION('',(0.,0.,1.));
#1670=DIRECTION('',(1.,0.,0.));
#1671=DIRECTION('',(0.,0.,1.));
#1672=DIRECTION('',(1.,0.,0.));
#1673=DIRECTION('',(0.,-1.,0.));
#1674=DIRECTION('',(0.,0.,-1.));
#1675=DIRECTION('',(0.,-1.,0.));
#1676=DIRECTION('',(0.,-1.,0.));
#1677=DIRECTION('',(0.,-1.,0.));
#1678=DIRECTION('',(0.,-1.,0.));
#1679=DIRECTION('',(1.,0.,0.));
#1680=DIRECTION('',(0.,0.,-1.));
#1681=DIRECTION('',(0.,1.,0.));
#1682=DIRECTION('',(0.,-1.,0.));
#1683=DIRECTION('',(0.,0.,-1.));
#1684=DIRECTION('',(-1.,0.,0.));
#1685=DIRECTION('',(0.,1.,0.));
#1686=DIRECTION('',(0.,-1.,0.));
#1687=DIRECTION('',(0.,-1.,0.));
#1688=DIRECTION('',(0.,0.,-1.));
#1689=DIRECTION('',(0.,-1.,0.));
#1690=DIRECTION('',(0.,-1.,0.));
#1691=DIRECTION('',(-1.63670507663034E-16,0.,1.));
#1692=DIRECTION('',(1.,0.,1.63670507663034E-16));
#1693=DIRECTION('',(0.,1.,0.));
#1694=DIRECTION('',(0.,-1.,0.));
#1695=DIRECTION('',(1.,0.,0.));
#1696=DIRECTION('',(0.,0.,-1.));
#1697=DIRECTION('',(0.,1.,0.));
#1698=DIRECTION('',(0.,-1.,0.));
#1699=DIRECTION('',(0.,-1.,0.));
#1700=DIRECTION('',(0.,0.,-1.));
#1701=DIRECTION('',(0.,-1.,0.));
#1702=DIRECTION('',(0.,-1.,0.));
#1703=DIRECTION('',(0.,-1.,0.));
#1704=DIRECTION('',(0.,-1.,0.));
#1705=DIRECTION('',(-1.,0.,0.));
#1706=DIRECTION('',(0.,0.,1.));
#1707=DIRECTION('',(0.,1.,0.));
#1708=DIRECTION('',(0.,-1.,0.));
#1709=DIRECTION('',(-1.63670507663034E-16,0.,1.));
#1710=DIRECTION('',(1.,0.,1.63670507663034E-16));
#1711=DIRECTION('',(0.,1.,0.));
#1712=DIRECTION('',(0.,-1.,0.));
#1713=DIRECTION('',(0.,-1.,0.));
#1714=DIRECTION('',(0.,0.,-1.));
#1715=DIRECTION('',(0.,-1.,0.));
#1716=DIRECTION('',(0.,-1.,0.));
#1717=DIRECTION('',(0.,0.,-1.));
#1718=DIRECTION('',(-1.,0.,0.));
#1719=DIRECTION('',(0.,1.,0.));
#1720=DIRECTION('',(0.,-1.,0.));
#1721=DIRECTION('',(-1.,0.,0.));
#1722=DIRECTION('',(0.,0.,1.));
#1723=DIRECTION('',(0.,1.,0.));
#1724=DIRECTION('',(0.,-1.,0.));
#1725=DIRECTION('',(0.,-1.,0.));
#1726=DIRECTION('',(0.,0.,-1.));
#1727=DIRECTION('',(0.,-1.,0.));
#1728=DIRECTION('',(0.,0.,-1.));
#1729=DIRECTION('',(0.,-1.,0.));
#1730=DIRECTION('',(0.,0.,-1.));
#1731=DIRECTION('',(0.,-1.,0.));
#1732=DIRECTION('',(0.,0.,-1.));
#1733=DIRECTION('',(0.,-1.,0.));
#1734=DIRECTION('',(0.,0.,-1.));
#1735=DIRECTION('',(0.,-1.,0.));
#1736=DIRECTION('',(0.,0.,-1.));
#1737=DIRECTION('',(0.,-1.,0.));
#1738=DIRECTION('',(0.,0.,-1.));
#1739=DIRECTION('',(0.,-1.,0.));
#1740=DIRECTION('',(0.,0.,-1.));
#1741=DIRECTION('',(0.,-1.,0.));
#1742=DIRECTION('',(0.,0.,-1.));
#1743=DIRECTION('',(0.,-1.,0.));
#1744=DIRECTION('',(0.,0.,-1.));
#1745=DIRECTION('',(0.,-1.,0.));
#1746=DIRECTION('',(0.,0.,-1.));
#1747=DIRECTION('',(0.,-1.,0.));
#1748=DIRECTION('',(0.,0.,-1.));
#1749=DIRECTION('',(-1.,-6.54582480547675E-16,0.));
#1750=DIRECTION('',(6.54582480547675E-16,-1.,0.));
#1751=DIRECTION('',(0.,0.,-1.));
#1752=DIRECTION('',(0.,0.,-1.));
#1753=DIRECTION('',(0.,0.,-1.));
#1754=DIRECTION('',(-1.,0.,0.));
#1755=DIRECTION('',(0.,0.,-1.));
#1756=DIRECTION('',(1.,3.27291240273838E-16,0.));
#1757=DIRECTION('',(-3.27291240273838E-16,1.,0.));
#1758=DIRECTION('',(0.,0.,-1.));
#1759=DIRECTION('',(0.,0.,-1.));
#1760=DIRECTION('',(-1.,0.,0.));
#1761=DIRECTION('',(0.,0.,-1.));
#1762=DIRECTION('',(-1.,0.,0.));
#1763=DIRECTION('',(0.,0.,-1.));
#1764=DIRECTION('',(0.,0.,-1.));
#1765=DIRECTION('',(1.,3.27291240273838E-16,0.));
#1766=DIRECTION('',(-3.27291240273838E-16,1.,0.));
#1767=DIRECTION('',(0.,0.,-1.));
#1768=DIRECTION('',(0.,0.,-1.));
#1769=DIRECTION('',(-1.,0.,0.));
#1770=DIRECTION('',(0.,0.,-1.));
#1771=DIRECTION('',(-1.,-6.54582480547675E-16,0.));
#1772=DIRECTION('',(6.54582480547675E-16,-1.,0.));
#1773=CARTESIAN_POINT('',(0.,0.,0.));
#1774=CARTESIAN_POINT('',(-8.,-60.,0.));
#1775=CARTESIAN_POINT('',(-8.4,2.65012206639781,-2.72075357208254));
#1776=CARTESIAN_POINT('',(-8.4,2.86190656533048,-2.72075357208254));
#1777=CARTESIAN_POINT('',(-8.20907998373288,3.05012206639814,-2.75000000000004));
#1778=CARTESIAN_POINT('',(-7.99999999999936,3.05012206639781,-2.74999999999999));
#1779=CARTESIAN_POINT('',(-8.4,2.65012206639781,-2.72075357208253));
#1780=CARTESIAN_POINT('',(-7.99999999999958,3.05012206640152,-2.75000000000053));
#1781=CARTESIAN_POINT('',(-8.39999999999996,-60.,-2.72075357208256));
#1782=CARTESIAN_POINT('',(-8.39999999999996,-2.6501220663978,-2.72075357208256));
#1783=CARTESIAN_POINT('',(-8.00000000000067,-3.05012206639781,-2.74999999999999));
#1784=CARTESIAN_POINT('',(-8.20888079195852,-3.05012206639747,-2.74999999999994));
#1785=CARTESIAN_POINT('',(-8.40000000000003,-2.8617045645305,-2.72075357208255));
#1786=CARTESIAN_POINT('',(-8.40000000000003,-2.65012206639781,-2.72075357208255));
#1787=CARTESIAN_POINT('',(-8.00000000000045,-3.05012206640152,-2.75000000000053));
#1788=CARTESIAN_POINT('',(-8.,-3.05012206639781,3.4870591183449E-15));
#1789=CARTESIAN_POINT('',(-7.9999999999996,-3.05012206640152,2.75000000000054));
#1790=CARTESIAN_POINT('',(-8.40000000000003,-2.65012206639781,2.72075357208256));
#1791=CARTESIAN_POINT('',(-8.40000000000003,-2.86190656533048,2.72075357208256));
#1792=CARTESIAN_POINT('',(-8.20907998373291,-3.05012206639814,2.75000000000004));
#1793=CARTESIAN_POINT('',(-7.99999999999938,-3.05012206639781,2.75));
#1794=CARTESIAN_POINT('',(-8.40000000000003,-2.65012206639781,2.7207535720826));
#1795=CARTESIAN_POINT('',(-8.39999999999996,-60.,2.72075357208256));
#1796=CARTESIAN_POINT('',(-8.39999999999996,2.65012206639781,2.72075357208256));
#1797=CARTESIAN_POINT('',(-8.00000000000064,3.05012206639781,2.75));
#1798=CARTESIAN_POINT('',(-8.20888079195849,3.05012206639747,2.74999999999995));
#1799=CARTESIAN_POINT('',(-8.4,2.8617045645305,2.72075357208256));
#1800=CARTESIAN_POINT('',(-8.4,2.65012206639781,2.72075357208256));
#1801=CARTESIAN_POINT('',(-8.00000000000042,3.05012206640152,2.75000000000054));
#1802=CARTESIAN_POINT('',(-8.,3.05012206639781,3.86057900458936E-15));
#1803=CARTESIAN_POINT('',(-8.,-60.,0.));
#1804=CARTESIAN_POINT('',(-7.59999999999998,-60.,2.72075357208255));
#1805=CARTESIAN_POINT('',(-7.6,-2.65012206639781,2.72075357208257));
#1806=CARTESIAN_POINT('',(-7.6,2.65012206639781,2.72075357208258));
#1807=CARTESIAN_POINT('',(-7.99999999999938,-3.05012206639781,2.75));
#1808=CARTESIAN_POINT('',(-7.79111920804154,-3.05012206639747,2.74999999999995));
#1809=CARTESIAN_POINT('',(-7.60000000000003,-2.86170456453051,2.72075357208256));
#1810=CARTESIAN_POINT('',(-7.60000000000003,-2.65012206639781,2.72075357208256));
#1811=CARTESIAN_POINT('',(-8.,-3.05012206639781,3.4870591183449E-15));
#1812=CARTESIAN_POINT('',(-5.40144270796275,-3.05012206639781,0.900000000000004));
#1813=CARTESIAN_POINT('',(-5.40144270796275,-60.,0.9));
#1814=CARTESIAN_POINT('',(-5.40144270796275,3.05012206639781,0.900000000000004));
#1815=CARTESIAN_POINT('',(-8.,3.05012206639781,3.86057900458936E-15));
#1816=CARTESIAN_POINT('',(-7.6,2.65012206639781,2.72075357208257));
#1817=CARTESIAN_POINT('',(-7.6,2.86190656533048,2.72075357208257));
#1818=CARTESIAN_POINT('',(-7.79092001626712,3.05012206639814,2.75000000000005));
#1819=CARTESIAN_POINT('',(-8.00000000000064,3.05012206639781,2.75));
#1820=CARTESIAN_POINT('',(-8.,3.05012206639781,3.86057900458936E-15));
#1821=CARTESIAN_POINT('',(-5.40144270796275,3.05012206639781,0.9));
#1822=CARTESIAN_POINT('',(-5.10562063480784,3.09941094642638,0.9));
#1823=CARTESIAN_POINT('',(-4.80993680544685,3.14952911834737,0.9));
#1824=CARTESIAN_POINT('',(-4.51431498841333,3.19999999999999,0.9));
#1825=CARTESIAN_POINT('',(-4.51431498841333,3.19999999999999,0.900000000000004));
#1826=CARTESIAN_POINT('',(-8.,3.2,1.0842021724855E-16));
#1827=CARTESIAN_POINT('',(-8.,3.2,3.6));
#1828=CARTESIAN_POINT('',(-8.,3.19999999999999,3.86975607807871E-15));
#1829=CARTESIAN_POINT('',(-8.,3.19999999999999,-3.59999999999999));
#1830=CARTESIAN_POINT('',(-8.,3.2,1.0842021724855E-16));
#1831=CARTESIAN_POINT('',(-4.51431498841333,3.19999999999999,-0.899999999999998));
#1832=CARTESIAN_POINT('',(-5.40144270796275,3.05012206639781,-0.9));
#1833=CARTESIAN_POINT('',(-5.10562063480784,3.09941094642638,-0.9));
#1834=CARTESIAN_POINT('',(-4.80993680544685,3.14952911834737,-0.9));
#1835=CARTESIAN_POINT('',(-4.51431498841333,3.19999999999999,-0.9));
#1836=CARTESIAN_POINT('',(-5.40144270796275,3.05012206639781,-0.899999999999996));
#1837=CARTESIAN_POINT('',(-8.,3.05012206639781,3.86057900458936E-15));
#1838=CARTESIAN_POINT('',(-8.,-3.2,3.47788204485555E-15));
#1839=CARTESIAN_POINT('',(-8.,-3.2,1.0842021724855E-16));
#1840=CARTESIAN_POINT('',(-8.,-3.2,3.6));
#1841=CARTESIAN_POINT('',(-4.51431498841333,-3.2,0.9));
#1842=CARTESIAN_POINT('',(-4.51431498841333,-3.2,0.9));
#1843=CARTESIAN_POINT('',(-4.80993939567953,-3.14952867612248,0.9));
#1844=CARTESIAN_POINT('',(-5.10562234093517,-3.09941066215718,0.9));
#1845=CARTESIAN_POINT('',(-5.40144270796275,-3.05012206639781,0.9));
#1846=CARTESIAN_POINT('',(-8.,-3.05012206639781,3.4870591183449E-15));
#1847=CARTESIAN_POINT('',(-5.40144270796275,-3.05012206639781,-0.899999999999996));
#1848=CARTESIAN_POINT('',(-4.51431498841333,-3.2,-0.9));
#1849=CARTESIAN_POINT('',(-4.80993939567953,-3.14952867612248,-0.9));
#1850=CARTESIAN_POINT('',(-5.10562234093518,-3.09941066215718,-0.9));
#1851=CARTESIAN_POINT('',(-5.40144270796275,-3.05012206639781,-0.9));
#1852=CARTESIAN_POINT('',(-4.51431498841333,-3.2,-0.899999999999998));
#1853=CARTESIAN_POINT('',(-8.,-3.2,1.0842021724855E-16));
#1854=CARTESIAN_POINT('',(-8.,-3.2,-3.6));
#1855=CARTESIAN_POINT('',(-8.,-3.2,3.47788204485555E-15));
#1856=CARTESIAN_POINT('',(-8.,-60.,0.));
#1857=CARTESIAN_POINT('',(-7.99999999999936,3.05012206639781,-2.74999999999999));
#1858=CARTESIAN_POINT('',(-7.79111920804151,3.05012206639747,-2.74999999999994));
#1859=CARTESIAN_POINT('',(-7.6,2.8617045645305,-2.72075357208255));
#1860=CARTESIAN_POINT('',(-7.6,2.65012206639781,-2.72075357208255));
#1861=CARTESIAN_POINT('',(-7.6,2.65012206639781,-2.72075357208251));
#1862=CARTESIAN_POINT('',(-5.40144270796275,-60.,-0.9));
#1863=CARTESIAN_POINT('',(-7.60000000000003,-2.65012206639781,-2.72075357208254));
#1864=CARTESIAN_POINT('',(-7.60000000000003,-2.86190656533048,-2.72075357208254));
#1865=CARTESIAN_POINT('',(-7.79092001626715,-3.05012206639814,-2.75000000000004));
#1866=CARTESIAN_POINT('',(-8.00000000000067,-3.05012206639781,-2.74999999999999));
#1867=CARTESIAN_POINT('',(-7.6,-2.65012206639781,-2.72075357208254));
#1868=CARTESIAN_POINT('',(-7.59999999999998,-60.,-2.72075357208255));
#1869=CARTESIAN_POINT('',(-8.,0.,1.0842021724855E-16));
#1870=CARTESIAN_POINT('',(-8.,-2.11758236813575E-19,3.6));
#1871=CARTESIAN_POINT('',(-8.,-4.,3.6));
#1872=CARTESIAN_POINT('',(-8.,-2.11758236813575E-19,-3.6));
#1873=CARTESIAN_POINT('',(-8.,-4.,-3.6));
#1874=CARTESIAN_POINT('',(-8.,-4.,1.0842021724855E-16));
#1875=CARTESIAN_POINT('',(-8.,0.,1.0842021724855E-16));
#1876=CARTESIAN_POINT('',(-8.,2.11758236813575E-19,3.6));
#1877=CARTESIAN_POINT('',(-8.,4.,3.6));
#1878=CARTESIAN_POINT('',(-8.,4.,1.0842021724855E-16));
#1879=CARTESIAN_POINT('',(-8.,4.,-3.6));
#1880=CARTESIAN_POINT('',(-8.,2.11758236813575E-19,-3.6));
#1881=CARTESIAN_POINT('',(3.46944695195361E-15,4.,0.9));
#1882=CARTESIAN_POINT('',(-8.,-3.2,0.9));
#1883=CARTESIAN_POINT('',(-3.50998575495685,-3.2,0.9));
#1884=CARTESIAN_POINT('',(3.46944695195361E-15,-4.,0.9));
#1885=CARTESIAN_POINT('',(-0.800000000000001,-0.490014245043151,0.9));
#1886=CARTESIAN_POINT('',(-0.8,0.,0.9));
#1887=CARTESIAN_POINT('',(-0.800000000000001,0.490014245043151,0.9));
#1888=CARTESIAN_POINT('',(3.46944695195361E-15,4.,0.9));
#1889=CARTESIAN_POINT('',(-3.50998575495685,3.2,0.9));
#1890=CARTESIAN_POINT('',(-8.,3.2,0.9));
#1891=CARTESIAN_POINT('',(3.46944695195361E-15,4.,-0.9));
#1892=CARTESIAN_POINT('',(-3.50998575495685,-3.2,-0.9));
#1893=CARTESIAN_POINT('',(-3.50998575495685,-3.20000000000001,-0.9));
#1894=CARTESIAN_POINT('',(-3.50998575495685,3.2,-0.9));
#1895=CARTESIAN_POINT('',(-3.50998575495685,3.20000000000001,-0.9));
#1896=CARTESIAN_POINT('',(3.46944695195361E-15,4.,-0.9));
#1897=CARTESIAN_POINT('',(-0.8,0.490014245043152,-0.9));
#1898=CARTESIAN_POINT('',(-0.8,0.,-0.9));
#1899=CARTESIAN_POINT('',(-0.8,-0.490014245043152,-0.9));
#1900=CARTESIAN_POINT('',(3.46944695195361E-15,-4.,-0.9));
#1901=CARTESIAN_POINT('',(3.04931861011548E-15,4.,3.6));
#1902=CARTESIAN_POINT('',(-8.,3.2,3.6));
#1903=CARTESIAN_POINT('',(-3.50998575495685,3.2,3.6));
#1904=CARTESIAN_POINT('',(3.04931861011548E-15,4.,3.6));
#1905=CARTESIAN_POINT('',(-3.6,4.,3.6));
#1906=CARTESIAN_POINT('',(-8.,4.,3.6));
#1907=CARTESIAN_POINT('',(-0.8,0.,4.));
#1908=CARTESIAN_POINT('',(-0.8,0.,-4.));
#1909=CARTESIAN_POINT('',(-0.800000000000001,0.490014245043152,-4.));
#1910=CARTESIAN_POINT('',(-0.800000000000001,-0.490014245043152,-4.));
#1911=CARTESIAN_POINT('',(-0.800000000000001,-0.490014245043152,4.));
#1912=CARTESIAN_POINT('',(-0.800000000000001,0.490014245043152,4.));
#1913=CARTESIAN_POINT('',(3.04931861011548E-15,4.,4.));
#1914=CARTESIAN_POINT('',(3.04931861011548E-15,4.,-3.6));
#1915=CARTESIAN_POINT('',(-3.6,4.,-3.6));
#1916=CARTESIAN_POINT('',(-3.50998575495685,3.20000000000001,-3.6));
#1917=CARTESIAN_POINT('',(-3.6,4.,3.6));
#1918=CARTESIAN_POINT('',(-3.50998575495685,3.2,0.9));
#1919=CARTESIAN_POINT('',(-0.800000000000001,0.490014245043152,4.));
#1920=CARTESIAN_POINT('',(-0.800000000000001,0.490014245043152,4.));
#1921=CARTESIAN_POINT('',(3.04931861011548E-15,4.,4.));
#1922=CARTESIAN_POINT('',(0.8,0.49001424504315,4.));
#1923=CARTESIAN_POINT('',(0.8,0.49001424504315,4.));
#1924=CARTESIAN_POINT('',(0.8,0.49001424504315,-4.));
#1925=CARTESIAN_POINT('',(3.04931861011548E-15,4.,-4.));
#1926=CARTESIAN_POINT('',(-3.50998575495685,3.20000000000001,-0.9));
#1927=CARTESIAN_POINT('',(0.8,0.,4.));
#1928=CARTESIAN_POINT('',(0.8,0.,-4.));
#1929=CARTESIAN_POINT('',(0.8,-0.49001424504315,-4.));
#1930=CARTESIAN_POINT('',(0.8,0.,4.));
#1931=CARTESIAN_POINT('',(0.8,-0.49001424504315,4.));
#1932=CARTESIAN_POINT('',(0.8,-0.49001424504315,4.));
#1933=CARTESIAN_POINT('',(-0.8,0.,4.));
#1934=CARTESIAN_POINT('',(-0.800000000000001,-0.490014245043152,4.));
#1935=CARTESIAN_POINT('',(-0.800000000000001,-0.490014245043152,4.));
#1936=CARTESIAN_POINT('',(-0.8,0.,4.));
#1937=CARTESIAN_POINT('',(3.04931861011548E-15,4.,4.));
#1938=CARTESIAN_POINT('',(2.47677071174835E-16,4.04500712252157,4.));
#1939=CARTESIAN_POINT('',(3.1,4.04500712252157,4.));
#1940=CARTESIAN_POINT('',(3.04931861011548E-15,-4.,4.));
#1941=CARTESIAN_POINT('',(2.47677071174835E-16,-4.04500712252157,4.));
#1942=CARTESIAN_POINT('',(3.1,-4.04500712252157,4.));
#1943=CARTESIAN_POINT('',(3.04931861011548E-15,4.,-4.));
#1944=CARTESIAN_POINT('',(2.47677071174835E-16,4.04500712252157,-4.));
#1945=CARTESIAN_POINT('',(3.1,4.04500712252157,-4.));
#1946=CARTESIAN_POINT('',(3.04931861011548E-15,-4.,-4.));
#1947=CARTESIAN_POINT('',(2.47677071174835E-16,-4.04500712252157,-4.));
#1948=CARTESIAN_POINT('',(3.1,-4.04500712252157,-4.));
#1949=CARTESIAN_POINT('',(-8.,4.,3.6));
#1950=CARTESIAN_POINT('',(-8.9,4.,3.6));
#1951=CARTESIAN_POINT('',(-8.9,4.,1.40000000000001));
#1952=CARTESIAN_POINT('',(-8.9,4.,2.15638586528478));
#1953=CARTESIAN_POINT('',(-9.4,4.,1.40000000000001));
#1954=CARTESIAN_POINT('',(-9.4,4.,0.900000000000009));
#1955=CARTESIAN_POINT('',(-8.,4.,0.900000000000009));
#1956=CARTESIAN_POINT('',(-10.1563858652848,4.,0.900000000000009));
#1957=CARTESIAN_POINT('',(-10.1563858652848,4.,0.800000000000008));
#1958=CARTESIAN_POINT('',(-10.2501417724711,4.,0.834782608695661));
#1959=CARTESIAN_POINT('',(-8.,4.,1.0842021724855E-16));
#1960=CARTESIAN_POINT('',(-10.2501417724711,4.,-0.834782608695652));
#1961=CARTESIAN_POINT('',(-10.1563858652848,4.,-0.8));
#1962=CARTESIAN_POINT('',(-10.1563858652848,4.,-0.9));
#1963=CARTESIAN_POINT('',(-8.,4.,-0.9));
#1964=CARTESIAN_POINT('',(-9.4,4.,-0.9));
#1965=CARTESIAN_POINT('',(-9.4,4.,-1.4));
#1966=CARTESIAN_POINT('',(-8.9,4.,-1.4));
#1967=CARTESIAN_POINT('',(-8.9,4.,3.6));
#1968=CARTESIAN_POINT('',(-8.9,4.,-2.15638586528478));
#1969=CARTESIAN_POINT('',(-8.8,4.,-2.15638586528478));
#1970=CARTESIAN_POINT('',(-8.83478260869565,4.,-2.25014177247108));
#1971=CARTESIAN_POINT('',(-8.,4.,1.0842021724855E-16));
#1972=CARTESIAN_POINT('',(-7.16521739130434,4.,-2.25014177247108));
#1973=CARTESIAN_POINT('',(-7.2,4.,-2.15638586528478));
#1974=CARTESIAN_POINT('',(-7.1,4.,-2.15638586528478));
#1975=CARTESIAN_POINT('',(-7.1,4.,3.6));
#1976=CARTESIAN_POINT('',(-7.1,4.,-1.4));
#1977=CARTESIAN_POINT('',(-6.6,4.,-1.4));
#1978=CARTESIAN_POINT('',(-6.6,4.,-0.9));
#1979=CARTESIAN_POINT('',(-8.,4.,-0.9));
#1980=CARTESIAN_POINT('',(-5.84361413471521,4.,-0.9));
#1981=CARTESIAN_POINT('',(-5.84361413471521,4.,-0.8));
#1982=CARTESIAN_POINT('',(-5.74985822752892,4.,-0.834782608695652));
#1983=CARTESIAN_POINT('',(-8.,4.,1.0842021724855E-16));
#1984=CARTESIAN_POINT('',(-5.74985822752892,4.,0.834782608695662));
#1985=CARTESIAN_POINT('',(-5.84361413471522,4.,0.800000000000009));
#1986=CARTESIAN_POINT('',(-5.84361413471522,4.,0.900000000000009));
#1987=CARTESIAN_POINT('',(-8.,4.,0.900000000000009));
#1988=CARTESIAN_POINT('',(-6.6,4.,0.900000000000009));
#1989=CARTESIAN_POINT('',(-6.6,4.,1.40000000000001));
#1990=CARTESIAN_POINT('',(-7.1,4.,1.40000000000001));
#1991=CARTESIAN_POINT('',(-7.1,4.,3.6));
#1992=CARTESIAN_POINT('',(-7.1,4.,2.15638586528478));
#1993=CARTESIAN_POINT('',(-7.2,4.,2.15638586528478));
#1994=CARTESIAN_POINT('',(-7.16521739130434,4.,2.25014177247108));
#1995=CARTESIAN_POINT('',(-8.,4.,1.0842021724855E-16));
#1996=CARTESIAN_POINT('',(-8.83478260869565,4.,2.25014177247108));
#1997=CARTESIAN_POINT('',(-8.8,4.,2.15638586528478));
#1998=CARTESIAN_POINT('',(-8.,4.,-3.6));
#1999=CARTESIAN_POINT('',(3.04931861011548E-15,4.,-3.6));
#2000=CARTESIAN_POINT('',(-3.50998575495685,3.2,-3.6));
#2001=CARTESIAN_POINT('',(2.47677071174835E-16,4.04500712252157,-4.));
#2002=CARTESIAN_POINT('',(2.47677071174835E-16,4.04500712252157,3.2));
#2003=CARTESIAN_POINT('',(3.1,4.04500712252157,3.2));
#2004=CARTESIAN_POINT('',(4.37491056017303E-16,7.14500712252157,3.2));
#2005=CARTESIAN_POINT('',(2.47677071174835E-16,4.04500712252157,3.2));
#2006=CARTESIAN_POINT('',(2.4,4.04500712252157,3.2));
#2007=CARTESIAN_POINT('',(2.47677071174835E-16,4.04500712252157,-4.));
#2008=CARTESIAN_POINT('',(2.47677071174835E-16,4.04500712252157,-3.2));
#2009=CARTESIAN_POINT('',(2.4,4.04500712252157,-3.2));
#2010=CARTESIAN_POINT('',(3.9462983363352E-16,6.44500712252158,-3.2));
#2011=CARTESIAN_POINT('',(2.47677071174835E-16,4.04500712252157,-3.2));
#2012=CARTESIAN_POINT('',(3.1,4.04500712252157,-3.2));
#2013=CARTESIAN_POINT('',(2.47677071174835E-16,4.04500712252157,-4.));
#2014=CARTESIAN_POINT('',(-8.,3.2,0.9));
#2015=CARTESIAN_POINT('',(-3.50998575495685,3.2,-0.9));
#2016=CARTESIAN_POINT('',(-8.,-4.,3.6));
#2017=CARTESIAN_POINT('',(-10.2248595461287,-4.,0.900000000000009));
#2018=CARTESIAN_POINT('',(-9.4,-4.,0.900000000000009));
#2019=CARTESIAN_POINT('',(-10.1563858652848,-4.,0.900000000000009));
#2020=CARTESIAN_POINT('',(-9.4,-4.,1.40000000000001));
#2021=CARTESIAN_POINT('',(-8.9,-4.,1.40000000000001));
#2022=CARTESIAN_POINT('',(-8.9,-4.,2.2248595461287));
#2023=CARTESIAN_POINT('',(-8.9,-4.,2.15638586528478));
#2024=CARTESIAN_POINT('',(-8.8,-4.,2.15638586528478));
#2025=CARTESIAN_POINT('',(-8.83478260869565,-4.,2.25014177247108));
#2026=CARTESIAN_POINT('',(-8.,-4.,1.0842021724855E-16));
#2027=CARTESIAN_POINT('',(-7.16521739130434,-4.,2.25014177247108));
#2028=CARTESIAN_POINT('',(-7.2,-4.,2.15638586528478));
#2029=CARTESIAN_POINT('',(-7.1,-4.,2.15638586528478));
#2030=CARTESIAN_POINT('',(-7.1,-4.,0.900000000000009));
#2031=CARTESIAN_POINT('',(-7.1,-4.,1.40000000000001));
#2032=CARTESIAN_POINT('',(-6.6,-4.,1.40000000000001));
#2033=CARTESIAN_POINT('',(-6.6,-4.,0.900000000000009));
#2034=CARTESIAN_POINT('',(-7.1,-4.,0.900000000000009));
#2035=CARTESIAN_POINT('',(-5.84361413471522,-4.,0.900000000000009));
#2036=CARTESIAN_POINT('',(-5.84361413471522,-4.,0.800000000000009));
#2037=CARTESIAN_POINT('',(-5.74985822752892,-4.,0.834782608695662));
#2038=CARTESIAN_POINT('',(-8.,-4.,1.0842021724855E-16));
#2039=CARTESIAN_POINT('',(-5.74985822752892,-4.,-0.834782608695652));
#2040=CARTESIAN_POINT('',(-5.84361413471521,-4.,-0.8));
#2041=CARTESIAN_POINT('',(-5.84361413471521,-4.,-0.9));
#2042=CARTESIAN_POINT('',(-5.7751404538713,-4.,-0.9));
#2043=CARTESIAN_POINT('',(-6.6,-4.,-0.9));
#2044=CARTESIAN_POINT('',(-6.6,-4.,-1.4));
#2045=CARTESIAN_POINT('',(-7.1,-4.,-1.4));
#2046=CARTESIAN_POINT('',(-7.1,-4.,-2.2248595461287));
#2047=CARTESIAN_POINT('',(-7.1,-4.,-2.15638586528478));
#2048=CARTESIAN_POINT('',(-7.2,-4.,-2.15638586528478));
#2049=CARTESIAN_POINT('',(-7.16521739130434,-4.,-2.25014177247108));
#2050=CARTESIAN_POINT('',(-8.,-4.,1.0842021724855E-16));
#2051=CARTESIAN_POINT('',(-8.83478260869565,-4.,-2.25014177247108));
#2052=CARTESIAN_POINT('',(-8.8,-4.,-2.15638586528478));
#2053=CARTESIAN_POINT('',(-8.9,-4.,-2.15638586528478));
#2054=CARTESIAN_POINT('',(-8.9,-4.,-0.9));
#2055=CARTESIAN_POINT('',(-8.9,-4.,-1.4));
#2056=CARTESIAN_POINT('',(-9.4,-4.,-1.4));
#2057=CARTESIAN_POINT('',(-9.4,-4.,-0.9));
#2058=CARTESIAN_POINT('',(-8.9,-4.,-0.9));
#2059=CARTESIAN_POINT('',(-10.1563858652848,-4.,-0.9));
#2060=CARTESIAN_POINT('',(-10.1563858652848,-4.,-0.8));
#2061=CARTESIAN_POINT('',(-10.2501417724711,-4.,-0.834782608695652));
#2062=CARTESIAN_POINT('',(-8.,-4.,1.0842021724855E-16));
#2063=CARTESIAN_POINT('',(-10.2501417724711,-4.,0.834782608695661));
#2064=CARTESIAN_POINT('',(-10.1563858652848,-4.,0.800000000000008));
#2065=CARTESIAN_POINT('',(-8.,-4.,-3.6));
#2066=CARTESIAN_POINT('',(-3.6,-4.,-3.6));
#2067=CARTESIAN_POINT('',(-3.6,-4.,3.6));
#2068=CARTESIAN_POINT('',(-3.6,-4.,3.6));
#2069=CARTESIAN_POINT('',(-8.,-4.,3.6));
#2070=CARTESIAN_POINT('',(3.04931861011548E-15,-4.,4.));
#2071=CARTESIAN_POINT('',(3.04931861011548E-15,-4.,-3.6));
#2072=CARTESIAN_POINT('',(-3.50998575495685,-3.20000000000001,-3.6));
#2073=CARTESIAN_POINT('',(-3.50998575495685,-3.20000000000001,-0.9));
#2074=CARTESIAN_POINT('',(-3.50998575495685,-3.2,0.9));
#2075=CARTESIAN_POINT('',(-3.50998575495685,-3.2,3.6));
#2076=CARTESIAN_POINT('',(3.04931861011548E-15,-4.,3.6));
#2077=CARTESIAN_POINT('',(-3.50998575495685,-3.2,-0.9));
#2078=CARTESIAN_POINT('',(-3.50998575495685,-3.2,-3.6));
#2079=CARTESIAN_POINT('',(-8.,-3.2,0.9));
#2080=CARTESIAN_POINT('',(-8.,-3.2,3.6));
#2081=CARTESIAN_POINT('',(2.47677071174835E-16,-4.04500712252157,-4.));
#2082=CARTESIAN_POINT('',(2.47677071174835E-16,-4.04500712252157,-3.2));
#2083=CARTESIAN_POINT('',(3.1,-4.04500712252157,-3.2));
#2084=CARTESIAN_POINT('',(3.9462983363352E-16,-6.44500712252158,-3.2));
#2085=CARTESIAN_POINT('',(2.47677071174835E-16,-4.04500712252157,-3.2));
#2086=CARTESIAN_POINT('',(2.4,-4.04500712252157,-3.2));
#2087=CARTESIAN_POINT('',(2.47677071174835E-16,-4.04500712252157,-4.));
#2088=CARTESIAN_POINT('',(2.47677071174835E-16,-4.04500712252157,3.2));
#2089=CARTESIAN_POINT('',(2.4,-4.04500712252157,3.2));
#2090=CARTESIAN_POINT('',(4.37491056017303E-16,-7.14500712252157,3.2));
#2091=CARTESIAN_POINT('',(2.47677071174835E-16,-4.04500712252157,3.2));
#2092=CARTESIAN_POINT('',(3.1,-4.04500712252157,3.2));
#2093=CARTESIAN_POINT('',(2.47677071174835E-16,-4.04500712252157,-4.));
#2094=CARTESIAN_POINT('',(3.04931861011548E-15,-4.,3.6));
#2095=CARTESIAN_POINT('',(3.04931861011548E-15,-4.,-3.6));
#2096=CARTESIAN_POINT('',(-8.,26.,1.0842021724855E-16));
#2097=CARTESIAN_POINT('',(-8.40000000000002,26.,-2.36643191323984));
#2098=CARTESIAN_POINT('',(-8.40000000000003,-2.65012206639781,-2.36643191323982));
#2099=CARTESIAN_POINT('',(-8.40000000000002,2.65012206639781,-2.36643191323984));
#2100=CARTESIAN_POINT('',(-8.4,2.65012206639781,-2.36643191323983));
#2101=CARTESIAN_POINT('',(-8.4,2.86189938056468,-2.36643191323983));
#2102=CARTESIAN_POINT('',(-8.00061562298466,3.23834444546877,-2.43356804728186));
#2103=CARTESIAN_POINT('',(-7.6,2.86189952034937,-2.36643191323985));
#2104=CARTESIAN_POINT('',(-7.6,2.65012206639781,-2.36643191323985));
#2105=CARTESIAN_POINT('',(-7.6,2.65012206639781,-2.36643191323982));
#2106=CARTESIAN_POINT('',(-7.60000000000001,26.,-2.36643191323985));
#2107=CARTESIAN_POINT('',(-7.6,-2.65012206639781,-2.36643191323983));
#2108=CARTESIAN_POINT('',(-7.60000000000003,-2.65012206639781,-2.36643191323984));
#2109=CARTESIAN_POINT('',(-7.60000000000003,-2.86189938056468,-2.36643191323984));
#2110=CARTESIAN_POINT('',(-7.99938437701537,-3.23834444546877,-2.43356804728186));
#2111=CARTESIAN_POINT('',(-8.40000000000003,-2.86189952034937,-2.36643191323984));
#2112=CARTESIAN_POINT('',(-8.40000000000003,-2.65012206639781,-2.36643191323984));
#2113=CARTESIAN_POINT('',(-8.83478260869565,26.,-2.25014177247108));
#2114=CARTESIAN_POINT('',(-7.16521739130434,26.,-2.25014177247108));
#2115=CARTESIAN_POINT('',(-7.1,26.,-2.2248595461287));
#2116=CARTESIAN_POINT('',(-7.1,-4.,-2.15638586528478));
#2117=CARTESIAN_POINT('',(-7.1,26.,-1.4));
#2118=CARTESIAN_POINT('',(-5.7751404538713,26.,-0.9));
#2119=CARTESIAN_POINT('',(-5.84361413471521,4.,-0.9));
#2120=CARTESIAN_POINT('',(-6.6,26.,-0.9));
#2121=CARTESIAN_POINT('',(-8.,26.,1.0842021724855E-16));
#2122=CARTESIAN_POINT('',(-5.74985822752892,26.,-0.834782608695652));
#2123=CARTESIAN_POINT('',(-5.74985822752892,26.,0.834782608695662));
#2124=CARTESIAN_POINT('',(-7.1,26.,0.900000000000009));
#2125=CARTESIAN_POINT('',(-5.84361413471522,-4.,0.900000000000009));
#2126=CARTESIAN_POINT('',(-6.6,26.,0.900000000000009));
#2127=CARTESIAN_POINT('',(-7.1,26.,0.900000000000009));
#2128=CARTESIAN_POINT('',(-7.1,4.,2.15638586528478));
#2129=CARTESIAN_POINT('',(-7.1,26.,1.40000000000001));
#2130=CARTESIAN_POINT('',(-8.,26.,1.0842021724855E-16));
#2131=CARTESIAN_POINT('',(-7.60000000000001,26.,2.36643191323985));
#2132=CARTESIAN_POINT('',(-7.6,-2.65012206639781,2.36643191323986));
#2133=CARTESIAN_POINT('',(-7.6,2.65012206639781,2.36643191323987));
#2134=CARTESIAN_POINT('',(-7.6,2.65012206639781,2.36643191323986));
#2135=CARTESIAN_POINT('',(-7.6,2.86189938056468,2.36643191323986));
#2136=CARTESIAN_POINT('',(-7.99938437701533,3.23834444546877,2.43356804728185));
#2137=CARTESIAN_POINT('',(-8.4,2.86189952034937,2.36643191323985));
#2138=CARTESIAN_POINT('',(-8.4,2.65012206639781,2.36643191323985));
#2139=CARTESIAN_POINT('',(-8.4,2.65012206639781,2.36643191323987));
#2140=CARTESIAN_POINT('',(-8.40000000000002,26.,2.36643191323984));
#2141=CARTESIAN_POINT('',(-8.40000000000002,-2.65012206639781,2.36643191323984));
#2142=CARTESIAN_POINT('',(-8.40000000000003,-2.65012206639781,2.36643191323986));
#2143=CARTESIAN_POINT('',(-8.40000000000003,-2.86189938056468,2.36643191323986));
#2144=CARTESIAN_POINT('',(-8.00061562298469,-3.23834444546877,2.43356804728185));
#2145=CARTESIAN_POINT('',(-7.60000000000003,-2.86189952034937,2.36643191323986));
#2146=CARTESIAN_POINT('',(-7.60000000000003,-2.65012206639781,2.36643191323986));
#2147=CARTESIAN_POINT('',(-8.83478260869565,26.,2.25014177247108));
#2148=CARTESIAN_POINT('',(-7.16521739130434,26.,2.25014177247108));
#2149=CARTESIAN_POINT('',(-8.9,26.,2.2248595461287));
#2150=CARTESIAN_POINT('',(-8.9,-4.,2.15638586528478));
#2151=CARTESIAN_POINT('',(-8.9,26.,1.40000000000001));
#2152=CARTESIAN_POINT('',(-10.2248595461287,26.,0.900000000000009));
#2153=CARTESIAN_POINT('',(-10.1563858652848,4.,0.900000000000009));
#2154=CARTESIAN_POINT('',(-9.4,26.,0.900000000000009));
#2155=CARTESIAN_POINT('',(-8.,26.,1.0842021724855E-16));
#2156=CARTESIAN_POINT('',(-10.2501417724711,26.,0.834782608695661));
#2157=CARTESIAN_POINT('',(-10.2501417724711,26.,-0.834782608695652));
#2158=CARTESIAN_POINT('',(-8.9,26.,-0.9));
#2159=CARTESIAN_POINT('',(-10.1563858652848,-4.,-0.9));
#2160=CARTESIAN_POINT('',(-9.4,26.,-0.9));
#2161=CARTESIAN_POINT('',(-8.9,26.,-0.9));
#2162=CARTESIAN_POINT('',(-8.9,4.,-2.15638586528478));
#2163=CARTESIAN_POINT('',(-8.9,26.,-1.4));
#2164=CARTESIAN_POINT('',(-6.6,26.,1.40000000000001));
#2165=CARTESIAN_POINT('',(-6.6,26.,-1.4));
#2166=CARTESIAN_POINT('',(-9.4,26.,-1.4));
#2167=CARTESIAN_POINT('',(-9.4,26.,1.40000000000001));
#2168=CARTESIAN_POINT('',(-7.2,26.,2.15638586528478));
#2169=CARTESIAN_POINT('',(-5.84361413471522,26.,0.800000000000009));
#2170=CARTESIAN_POINT('',(-5.84361413471521,26.,-0.8));
#2171=CARTESIAN_POINT('',(-7.2,26.,-2.15638586528478));
#2172=CARTESIAN_POINT('',(-8.8,26.,-2.15638586528478));
#2173=CARTESIAN_POINT('',(-10.1563858652848,26.,-0.8));
#2174=CARTESIAN_POINT('',(-10.1563858652848,26.,0.800000000000008));
#2175=CARTESIAN_POINT('',(-8.8,26.,2.15638586528478));
#2176=CARTESIAN_POINT('',(-8.4,2.65012206639781,90.));
#2177=CARTESIAN_POINT('',(-8.40000000000003,-2.65012206639781,90.));
#2178=CARTESIAN_POINT('',(-8.4,2.65012206639781,90.));
#2179=CARTESIAN_POINT('',(-8.00000000000003,-2.65012206639781,90.));
#2180=CARTESIAN_POINT('',(-7.6,-2.65012206639781,90.));
#2181=CARTESIAN_POINT('',(-7.6,2.65012206639781,90.));
#2182=CARTESIAN_POINT('',(-7.6,2.65012206639781,90.));
#2183=CARTESIAN_POINT('',(-8.,2.65012206639781,90.));
#2184=CARTESIAN_POINT('',(-8.,2.65012206639781,90.));
#2185=CARTESIAN_POINT('',(-7.6,2.65012206639781,90.));
#2186=CARTESIAN_POINT('',(-8.4,2.65012206639781,90.));
#2187=CARTESIAN_POINT('',(-7.6,2.65012206639781,90.));
#2188=CARTESIAN_POINT('',(-7.6,-2.65012206639781,90.));
#2189=CARTESIAN_POINT('',(-8.00000000000003,-2.65012206639781,90.));
#2190=CARTESIAN_POINT('',(-8.40000000000003,-2.65012206639781,90.));
#2191=CARTESIAN_POINT('',(-8.4,2.65012206639781,90.));
#2192=MECHANICAL_DESIGN_GEOMETRIC_PRESENTATION_REPRESENTATION('',(#1253),
#2193);
#2193=(
GEOMETRIC_REPRESENTATION_CONTEXT(3)
GLOBAL_UNCERTAINTY_ASSIGNED_CONTEXT((#2194))
GLOBAL_UNIT_ASSIGNED_CONTEXT((#2197,#2196,#2195))
REPRESENTATION_CONTEXT('Black_4140430_AVV','TOP_LEVEL_ASSEMBLY_PART')
);
#2194=UNCERTAINTY_MEASURE_WITH_UNIT(LENGTH_MEASURE(0.005),#2197,
'DISTANCE_ACCURACY_VALUE','Maximum Tolerance applied to model');
#2195=(
NAMED_UNIT(*)
SI_UNIT($,.STERADIAN.)
SOLID_ANGLE_UNIT()
);
#2196=(
NAMED_UNIT(*)
PLANE_ANGLE_UNIT()
SI_UNIT($,.RADIAN.)
);
#2197=(
LENGTH_UNIT()
NAMED_UNIT(*)
SI_UNIT(.MILLI.,.METRE.)
);
#2198=PRODUCT_DEFINITION_SHAPE('','',#2199);
#2199=PRODUCT_DEFINITION('','',#2201,#2200);
#2200=PRODUCT_DEFINITION_CONTEXT('',#2207,'design');
#2201=PRODUCT_DEFINITION_FORMATION_WITH_SPECIFIED_SOURCE('','',#2203,
 .NOT_KNOWN.);
#2202=PRODUCT_RELATED_PRODUCT_CATEGORY('','',(#2203));
#2203=PRODUCT('Black_4140430_AVV','Black_4140430_AVV',
'Black_4140430_AVV',(#2205));
#2204=PRODUCT_CATEGORY('','');
#2205=PRODUCT_CONTEXT('',#2207,'mechanical');
#2206=APPLICATION_PROTOCOL_DEFINITION('international standard',
'automotive_design',2010,#2207);
#2207=APPLICATION_CONTEXT(
'core data for automotive mechanical design processes');
ENDSEC;
END-ISO-10303-21;
