ISO-10303-21;
HEADER;
/* Generated by software containing ST-Developer
 * from STEP Tools, Inc. (www.steptools.com) 
 */
/* OPTION: strings as raw bytes, not using required /X/ escapes */

FILE_DESCRIPTION(
/* description */ ('Unknown'),
/* implementation_level */ '2;1');

FILE_NAME(
/* name */ 'Black_6006140_AVV',
/* time_stamp */ '2025-07-21T23:48:55+02:00',
/* author */ ('Unknown'),
/* organization */ ('Unknown'),
/* preprocessor_version */ 'ST-DEVELOPER v19.4',
/* originating_system */ 'Solid Edge',
/* authorisation */ 'Unknown');

FILE_SCHEMA (('AUTOMOTIVE_DESIGN {1 0 10303 214 3 1 1}'));
ENDSEC;

DATA;
#10=PROPERTY_DEFINITION_REPRESENTATION(#14,#12);
#11=PROPERTY_DEFINITION_REPRESENTATION(#15,#13);
#12=REPRESENTATION('',(#16),#1407);
#13=REPRESENTATION('',(#17),#1407);
#14=PROPERTY_DEFINITION('pmi validation property','',#1412);
#15=PROPERTY_DEFINITION('pmi validation property','',#1412);
#16=VALUE_REPRESENTATION_ITEM('number of annotations',COUNT_MEASURE(0.));
#17=VALUE_REPRESENTATION_ITEM('number of views',COUNT_MEASURE(0.));
#18=SHAPE_REPRESENTATION_RELATIONSHIP('','',#815,#19);
#19=ADVANCED_BREP_SHAPE_REPRESENTATION('',(#813),#1407);
#20=PLANE('',#820);
#21=PLANE('',#827);
#22=PLANE('',#828);
#23=PLANE('',#832);
#24=PLANE('',#833);
#25=PLANE('',#837);
#26=PLANE('',#838);
#27=PLANE('',#842);
#28=PLANE('',#843);
#29=PLANE('',#847);
#30=PLANE('',#851);
#31=PLANE('',#852);
#32=PLANE('',#853);
#33=PLANE('',#871);
#34=PLANE('',#907);
#35=PLANE('',#911);
#36=LINE('',#1175,#96);
#37=LINE('',#1179,#97);
#38=LINE('',#1181,#98);
#39=LINE('',#1183,#99);
#40=LINE('',#1185,#100);
#41=LINE('',#1191,#101);
#42=LINE('',#1196,#102);
#43=LINE('',#1200,#103);
#44=LINE('',#1202,#104);
#45=LINE('',#1205,#105);
#46=LINE('',#1207,#106);
#47=LINE('',#1209,#107);
#48=LINE('',#1211,#108);
#49=LINE('',#1214,#109);
#50=LINE('',#1216,#110);
#51=LINE('',#1218,#111);
#52=LINE('',#1223,#112);
#53=LINE('',#1227,#113);
#54=LINE('',#1229,#114);
#55=LINE('',#1232,#115);
#56=LINE('',#1234,#116);
#57=LINE('',#1236,#117);
#58=LINE('',#1238,#118);
#59=LINE('',#1241,#119);
#60=LINE('',#1243,#120);
#61=LINE('',#1245,#121);
#62=LINE('',#1250,#122);
#63=LINE('',#1254,#123);
#64=LINE('',#1256,#124);
#65=LINE('',#1259,#125);
#66=LINE('',#1261,#126);
#67=LINE('',#1263,#127);
#68=LINE('',#1265,#128);
#69=LINE('',#1268,#129);
#70=LINE('',#1270,#130);
#71=LINE('',#1272,#131);
#72=LINE('',#1277,#132);
#73=LINE('',#1281,#133);
#74=LINE('',#1283,#134);
#75=LINE('',#1286,#135);
#76=LINE('',#1288,#136);
#77=LINE('',#1290,#137);
#78=LINE('',#1292,#138);
#79=LINE('',#1295,#139);
#80=LINE('',#1297,#140);
#81=LINE('',#1299,#141);
#82=LINE('',#1304,#142);
#83=LINE('',#1308,#143);
#84=LINE('',#1310,#144);
#85=LINE('',#1313,#145);
#86=LINE('',#1315,#146);
#87=LINE('',#1317,#147);
#88=LINE('',#1322,#148);
#89=LINE('',#1326,#149);
#90=LINE('',#1328,#150);
#91=LINE('',#1331,#151);
#92=LINE('',#1333,#152);
#93=LINE('',#1335,#153);
#94=LINE('',#1337,#154);
#95=LINE('',#1338,#155);
#96=VECTOR('',#920,1000.);
#97=VECTOR('',#923,1000.);
#98=VECTOR('',#926,1000.);
#99=VECTOR('',#927,1000.);
#100=VECTOR('',#928,1000.);
#101=VECTOR('',#935,1000.);
#102=VECTOR('',#940,1000.);
#103=VECTOR('',#943,1000.);
#104=VECTOR('',#946,1000.);
#105=VECTOR('',#947,1000.);
#106=VECTOR('',#948,1000.);
#107=VECTOR('',#949,1000.);
#108=VECTOR('',#952,1000.);
#109=VECTOR('',#953,1000.);
#110=VECTOR('',#954,1000.);
#111=VECTOR('',#955,1000.);
#112=VECTOR('',#960,1000.);
#113=VECTOR('',#963,1000.);
#114=VECTOR('',#966,1000.);
#115=VECTOR('',#967,1000.);
#116=VECTOR('',#968,1000.);
#117=VECTOR('',#969,1000.);
#118=VECTOR('',#972,1000.);
#119=VECTOR('',#973,1000.);
#120=VECTOR('',#974,1000.);
#121=VECTOR('',#975,1000.);
#122=VECTOR('',#980,1000.);
#123=VECTOR('',#983,1000.);
#124=VECTOR('',#986,1000.);
#125=VECTOR('',#987,1000.);
#126=VECTOR('',#988,1000.);
#127=VECTOR('',#989,1000.);
#128=VECTOR('',#992,1000.);
#129=VECTOR('',#993,1000.);
#130=VECTOR('',#994,1000.);
#131=VECTOR('',#995,1000.);
#132=VECTOR('',#1000,1000.);
#133=VECTOR('',#1003,1000.);
#134=VECTOR('',#1006,1000.);
#135=VECTOR('',#1007,1000.);
#136=VECTOR('',#1008,1000.);
#137=VECTOR('',#1009,1000.);
#138=VECTOR('',#1012,1000.);
#139=VECTOR('',#1013,1000.);
#140=VECTOR('',#1014,1000.);
#141=VECTOR('',#1015,1000.);
#142=VECTOR('',#1020,1000.);
#143=VECTOR('',#1023,1000.);
#144=VECTOR('',#1026,1000.);
#145=VECTOR('',#1027,1000.);
#146=VECTOR('',#1028,1000.);
#147=VECTOR('',#1029,1000.);
#148=VECTOR('',#1034,1000.);
#149=VECTOR('',#1037,1000.);
#150=VECTOR('',#1040,1000.);
#151=VECTOR('',#1041,1000.);
#152=VECTOR('',#1042,1000.);
#153=VECTOR('',#1043,1000.);
#154=VECTOR('',#1046,1000.);
#155=VECTOR('',#1047,1000.);
#156=ORIENTED_EDGE('',*,*,#384,.F.);
#157=ORIENTED_EDGE('',*,*,#385,.F.);
#158=ORIENTED_EDGE('',*,*,#386,.T.);
#159=ORIENTED_EDGE('',*,*,#387,.T.);
#160=ORIENTED_EDGE('',*,*,#388,.F.);
#161=ORIENTED_EDGE('',*,*,#387,.F.);
#162=ORIENTED_EDGE('',*,*,#389,.T.);
#163=ORIENTED_EDGE('',*,*,#390,.T.);
#164=ORIENTED_EDGE('',*,*,#391,.F.);
#165=ORIENTED_EDGE('',*,*,#390,.F.);
#166=ORIENTED_EDGE('',*,*,#392,.T.);
#167=ORIENTED_EDGE('',*,*,#393,.T.);
#168=ORIENTED_EDGE('',*,*,#394,.F.);
#169=ORIENTED_EDGE('',*,*,#395,.T.);
#170=ORIENTED_EDGE('',*,*,#396,.T.);
#171=ORIENTED_EDGE('',*,*,#397,.T.);
#172=ORIENTED_EDGE('',*,*,#398,.T.);
#173=ORIENTED_EDGE('',*,*,#399,.T.);
#174=ORIENTED_EDGE('',*,*,#400,.F.);
#175=ORIENTED_EDGE('',*,*,#401,.T.);
#176=ORIENTED_EDGE('',*,*,#402,.F.);
#177=ORIENTED_EDGE('',*,*,#403,.T.);
#178=ORIENTED_EDGE('',*,*,#404,.T.);
#179=ORIENTED_EDGE('',*,*,#405,.T.);
#180=ORIENTED_EDGE('',*,*,#406,.T.);
#181=ORIENTED_EDGE('',*,*,#407,.T.);
#182=ORIENTED_EDGE('',*,*,#408,.F.);
#183=ORIENTED_EDGE('',*,*,#409,.T.);
#184=ORIENTED_EDGE('',*,*,#410,.T.);
#185=ORIENTED_EDGE('',*,*,#411,.T.);
#186=ORIENTED_EDGE('',*,*,#412,.F.);
#187=ORIENTED_EDGE('',*,*,#413,.T.);
#188=ORIENTED_EDGE('',*,*,#414,.F.);
#189=ORIENTED_EDGE('',*,*,#415,.T.);
#190=ORIENTED_EDGE('',*,*,#416,.T.);
#191=ORIENTED_EDGE('',*,*,#417,.T.);
#192=ORIENTED_EDGE('',*,*,#418,.F.);
#193=ORIENTED_EDGE('',*,*,#419,.T.);
#194=ORIENTED_EDGE('',*,*,#420,.T.);
#195=ORIENTED_EDGE('',*,*,#421,.T.);
#196=ORIENTED_EDGE('',*,*,#422,.T.);
#197=ORIENTED_EDGE('',*,*,#423,.T.);
#198=ORIENTED_EDGE('',*,*,#424,.F.);
#199=ORIENTED_EDGE('',*,*,#425,.T.);
#200=ORIENTED_EDGE('',*,*,#426,.F.);
#201=ORIENTED_EDGE('',*,*,#427,.T.);
#202=ORIENTED_EDGE('',*,*,#428,.T.);
#203=ORIENTED_EDGE('',*,*,#429,.T.);
#204=ORIENTED_EDGE('',*,*,#430,.T.);
#205=ORIENTED_EDGE('',*,*,#431,.T.);
#206=ORIENTED_EDGE('',*,*,#432,.F.);
#207=ORIENTED_EDGE('',*,*,#433,.T.);
#208=ORIENTED_EDGE('',*,*,#434,.T.);
#209=ORIENTED_EDGE('',*,*,#435,.T.);
#210=ORIENTED_EDGE('',*,*,#436,.F.);
#211=ORIENTED_EDGE('',*,*,#437,.T.);
#212=ORIENTED_EDGE('',*,*,#438,.F.);
#213=ORIENTED_EDGE('',*,*,#439,.T.);
#214=ORIENTED_EDGE('',*,*,#440,.T.);
#215=ORIENTED_EDGE('',*,*,#441,.T.);
#216=ORIENTED_EDGE('',*,*,#442,.T.);
#217=ORIENTED_EDGE('',*,*,#443,.T.);
#218=ORIENTED_EDGE('',*,*,#444,.F.);
#219=ORIENTED_EDGE('',*,*,#445,.T.);
#220=ORIENTED_EDGE('',*,*,#446,.T.);
#221=ORIENTED_EDGE('',*,*,#447,.T.);
#222=ORIENTED_EDGE('',*,*,#448,.F.);
#223=ORIENTED_EDGE('',*,*,#449,.T.);
#224=ORIENTED_EDGE('',*,*,#450,.F.);
#225=ORIENTED_EDGE('',*,*,#451,.T.);
#226=ORIENTED_EDGE('',*,*,#452,.T.);
#227=ORIENTED_EDGE('',*,*,#453,.T.);
#228=ORIENTED_EDGE('',*,*,#454,.T.);
#229=ORIENTED_EDGE('',*,*,#455,.T.);
#230=ORIENTED_EDGE('',*,*,#456,.F.);
#231=ORIENTED_EDGE('',*,*,#457,.T.);
#232=ORIENTED_EDGE('',*,*,#458,.F.);
#233=ORIENTED_EDGE('',*,*,#393,.F.);
#234=ORIENTED_EDGE('',*,*,#459,.T.);
#235=ORIENTED_EDGE('',*,*,#385,.T.);
#236=ORIENTED_EDGE('',*,*,#460,.F.);
#237=ORIENTED_EDGE('',*,*,#400,.T.);
#238=ORIENTED_EDGE('',*,*,#461,.T.);
#239=ORIENTED_EDGE('',*,*,#394,.T.);
#240=ORIENTED_EDGE('',*,*,#462,.T.);
#241=ORIENTED_EDGE('',*,*,#456,.T.);
#242=ORIENTED_EDGE('',*,*,#463,.T.);
#243=ORIENTED_EDGE('',*,*,#450,.T.);
#244=ORIENTED_EDGE('',*,*,#464,.T.);
#245=ORIENTED_EDGE('',*,*,#448,.T.);
#246=ORIENTED_EDGE('',*,*,#465,.T.);
#247=ORIENTED_EDGE('',*,*,#444,.T.);
#248=ORIENTED_EDGE('',*,*,#466,.T.);
#249=ORIENTED_EDGE('',*,*,#438,.T.);
#250=ORIENTED_EDGE('',*,*,#467,.T.);
#251=ORIENTED_EDGE('',*,*,#436,.T.);
#252=ORIENTED_EDGE('',*,*,#468,.T.);
#253=ORIENTED_EDGE('',*,*,#432,.T.);
#254=ORIENTED_EDGE('',*,*,#469,.T.);
#255=ORIENTED_EDGE('',*,*,#426,.T.);
#256=ORIENTED_EDGE('',*,*,#470,.T.);
#257=ORIENTED_EDGE('',*,*,#424,.T.);
#258=ORIENTED_EDGE('',*,*,#471,.T.);
#259=ORIENTED_EDGE('',*,*,#418,.T.);
#260=ORIENTED_EDGE('',*,*,#472,.T.);
#261=ORIENTED_EDGE('',*,*,#414,.T.);
#262=ORIENTED_EDGE('',*,*,#473,.T.);
#263=ORIENTED_EDGE('',*,*,#412,.T.);
#264=ORIENTED_EDGE('',*,*,#474,.T.);
#265=ORIENTED_EDGE('',*,*,#408,.T.);
#266=ORIENTED_EDGE('',*,*,#475,.T.);
#267=ORIENTED_EDGE('',*,*,#402,.T.);
#268=ORIENTED_EDGE('',*,*,#476,.T.);
#269=ORIENTED_EDGE('',*,*,#386,.F.);
#270=ORIENTED_EDGE('',*,*,#459,.F.);
#271=ORIENTED_EDGE('',*,*,#392,.F.);
#272=ORIENTED_EDGE('',*,*,#389,.F.);
#273=ORIENTED_EDGE('',*,*,#477,.T.);
#274=ORIENTED_EDGE('',*,*,#396,.F.);
#275=ORIENTED_EDGE('',*,*,#478,.T.);
#276=ORIENTED_EDGE('',*,*,#398,.F.);
#277=ORIENTED_EDGE('',*,*,#479,.T.);
#278=ORIENTED_EDGE('',*,*,#404,.F.);
#279=ORIENTED_EDGE('',*,*,#480,.T.);
#280=ORIENTED_EDGE('',*,*,#406,.F.);
#281=ORIENTED_EDGE('',*,*,#481,.T.);
#282=ORIENTED_EDGE('',*,*,#410,.F.);
#283=ORIENTED_EDGE('',*,*,#482,.T.);
#284=ORIENTED_EDGE('',*,*,#416,.F.);
#285=ORIENTED_EDGE('',*,*,#483,.T.);
#286=ORIENTED_EDGE('',*,*,#420,.F.);
#287=ORIENTED_EDGE('',*,*,#484,.T.);
#288=ORIENTED_EDGE('',*,*,#422,.F.);
#289=ORIENTED_EDGE('',*,*,#485,.T.);
#290=ORIENTED_EDGE('',*,*,#428,.F.);
#291=ORIENTED_EDGE('',*,*,#486,.T.);
#292=ORIENTED_EDGE('',*,*,#430,.F.);
#293=ORIENTED_EDGE('',*,*,#487,.T.);
#294=ORIENTED_EDGE('',*,*,#434,.F.);
#295=ORIENTED_EDGE('',*,*,#488,.T.);
#296=ORIENTED_EDGE('',*,*,#440,.F.);
#297=ORIENTED_EDGE('',*,*,#489,.T.);
#298=ORIENTED_EDGE('',*,*,#442,.F.);
#299=ORIENTED_EDGE('',*,*,#490,.T.);
#300=ORIENTED_EDGE('',*,*,#446,.F.);
#301=ORIENTED_EDGE('',*,*,#491,.T.);
#302=ORIENTED_EDGE('',*,*,#452,.F.);
#303=ORIENTED_EDGE('',*,*,#492,.T.);
#304=ORIENTED_EDGE('',*,*,#454,.F.);
#305=ORIENTED_EDGE('',*,*,#493,.T.);
#306=ORIENTED_EDGE('',*,*,#384,.T.);
#307=ORIENTED_EDGE('',*,*,#388,.T.);
#308=ORIENTED_EDGE('',*,*,#391,.T.);
#309=ORIENTED_EDGE('',*,*,#458,.T.);
#310=ORIENTED_EDGE('',*,*,#462,.F.);
#311=ORIENTED_EDGE('',*,*,#397,.F.);
#312=ORIENTED_EDGE('',*,*,#493,.F.);
#313=ORIENTED_EDGE('',*,*,#457,.F.);
#314=ORIENTED_EDGE('',*,*,#464,.F.);
#315=ORIENTED_EDGE('',*,*,#453,.F.);
#316=ORIENTED_EDGE('',*,*,#491,.F.);
#317=ORIENTED_EDGE('',*,*,#449,.F.);
#318=ORIENTED_EDGE('',*,*,#467,.F.);
#319=ORIENTED_EDGE('',*,*,#441,.F.);
#320=ORIENTED_EDGE('',*,*,#488,.F.);
#321=ORIENTED_EDGE('',*,*,#437,.F.);
#322=ORIENTED_EDGE('',*,*,#476,.F.);
#323=ORIENTED_EDGE('',*,*,#405,.F.);
#324=ORIENTED_EDGE('',*,*,#479,.F.);
#325=ORIENTED_EDGE('',*,*,#401,.F.);
#326=ORIENTED_EDGE('',*,*,#473,.F.);
#327=ORIENTED_EDGE('',*,*,#417,.F.);
#328=ORIENTED_EDGE('',*,*,#482,.F.);
#329=ORIENTED_EDGE('',*,*,#413,.F.);
#330=ORIENTED_EDGE('',*,*,#470,.F.);
#331=ORIENTED_EDGE('',*,*,#429,.F.);
#332=ORIENTED_EDGE('',*,*,#485,.F.);
#333=ORIENTED_EDGE('',*,*,#425,.F.);
#334=ORIENTED_EDGE('',*,*,#465,.F.);
#335=ORIENTED_EDGE('',*,*,#447,.F.);
#336=ORIENTED_EDGE('',*,*,#490,.F.);
#337=ORIENTED_EDGE('',*,*,#445,.F.);
#338=ORIENTED_EDGE('',*,*,#466,.F.);
#339=ORIENTED_EDGE('',*,*,#443,.F.);
#340=ORIENTED_EDGE('',*,*,#489,.F.);
#341=ORIENTED_EDGE('',*,*,#439,.F.);
#342=ORIENTED_EDGE('',*,*,#463,.F.);
#343=ORIENTED_EDGE('',*,*,#455,.F.);
#344=ORIENTED_EDGE('',*,*,#492,.F.);
#345=ORIENTED_EDGE('',*,*,#451,.F.);
#346=ORIENTED_EDGE('',*,*,#461,.F.);
#347=ORIENTED_EDGE('',*,*,#399,.F.);
#348=ORIENTED_EDGE('',*,*,#478,.F.);
#349=ORIENTED_EDGE('',*,*,#395,.F.);
#350=ORIENTED_EDGE('',*,*,#474,.F.);
#351=ORIENTED_EDGE('',*,*,#411,.F.);
#352=ORIENTED_EDGE('',*,*,#481,.F.);
#353=ORIENTED_EDGE('',*,*,#409,.F.);
#354=ORIENTED_EDGE('',*,*,#468,.F.);
#355=ORIENTED_EDGE('',*,*,#435,.F.);
#356=ORIENTED_EDGE('',*,*,#487,.F.);
#357=ORIENTED_EDGE('',*,*,#433,.F.);
#358=ORIENTED_EDGE('',*,*,#469,.F.);
#359=ORIENTED_EDGE('',*,*,#431,.F.);
#360=ORIENTED_EDGE('',*,*,#486,.F.);
#361=ORIENTED_EDGE('',*,*,#427,.F.);
#362=ORIENTED_EDGE('',*,*,#472,.F.);
#363=ORIENTED_EDGE('',*,*,#421,.F.);
#364=ORIENTED_EDGE('',*,*,#483,.F.);
#365=ORIENTED_EDGE('',*,*,#415,.F.);
#366=ORIENTED_EDGE('',*,*,#471,.F.);
#367=ORIENTED_EDGE('',*,*,#423,.F.);
#368=ORIENTED_EDGE('',*,*,#484,.F.);
#369=ORIENTED_EDGE('',*,*,#419,.F.);
#370=ORIENTED_EDGE('',*,*,#475,.F.);
#371=ORIENTED_EDGE('',*,*,#407,.F.);
#372=ORIENTED_EDGE('',*,*,#480,.F.);
#373=ORIENTED_EDGE('',*,*,#403,.F.);
#374=ORIENTED_EDGE('',*,*,#494,.T.);
#375=ORIENTED_EDGE('',*,*,#477,.F.);
#376=ORIENTED_EDGE('',*,*,#495,.T.);
#377=ORIENTED_EDGE('',*,*,#494,.F.);
#378=ORIENTED_EDGE('',*,*,#496,.T.);
#379=ORIENTED_EDGE('',*,*,#495,.F.);
#380=ORIENTED_EDGE('',*,*,#497,.T.);
#381=ORIENTED_EDGE('',*,*,#496,.F.);
#382=ORIENTED_EDGE('',*,*,#460,.T.);
#383=ORIENTED_EDGE('',*,*,#497,.F.);
#384=EDGE_CURVE('',#498,#499,#576,.T.);
#385=EDGE_CURVE('',#500,#498,#36,.T.);
#386=EDGE_CURVE('',#500,#501,#577,.T.);
#387=EDGE_CURVE('',#501,#499,#37,.T.);
#388=EDGE_CURVE('',#499,#502,#38,.T.);
#389=EDGE_CURVE('',#501,#503,#39,.T.);
#390=EDGE_CURVE('',#503,#502,#40,.T.);
#391=EDGE_CURVE('',#502,#504,#578,.T.);
#392=EDGE_CURVE('',#503,#505,#579,.T.);
#393=EDGE_CURVE('',#505,#504,#41,.T.);
#394=EDGE_CURVE('',#506,#507,#580,.T.);
#395=EDGE_CURVE('',#506,#508,#42,.T.);
#396=EDGE_CURVE('',#508,#509,#581,.T.);
#397=EDGE_CURVE('',#509,#507,#43,.F.);
#398=EDGE_CURVE('',#510,#511,#44,.T.);
#399=EDGE_CURVE('',#511,#512,#45,.F.);
#400=EDGE_CURVE('',#513,#512,#46,.T.);
#401=EDGE_CURVE('',#513,#510,#47,.T.);
#402=EDGE_CURVE('',#514,#515,#48,.T.);
#403=EDGE_CURVE('',#514,#516,#49,.F.);
#404=EDGE_CURVE('',#516,#517,#50,.T.);
#405=EDGE_CURVE('',#517,#515,#51,.F.);
#406=EDGE_CURVE('',#518,#519,#582,.T.);
#407=EDGE_CURVE('',#519,#520,#52,.F.);
#408=EDGE_CURVE('',#521,#520,#583,.T.);
#409=EDGE_CURVE('',#521,#518,#53,.T.);
#410=EDGE_CURVE('',#522,#523,#54,.T.);
#411=EDGE_CURVE('',#523,#524,#55,.T.);
#412=EDGE_CURVE('',#525,#524,#56,.T.);
#413=EDGE_CURVE('',#525,#522,#57,.T.);
#414=EDGE_CURVE('',#526,#527,#58,.T.);
#415=EDGE_CURVE('',#526,#528,#59,.F.);
#416=EDGE_CURVE('',#528,#529,#60,.T.);
#417=EDGE_CURVE('',#529,#527,#61,.F.);
#418=EDGE_CURVE('',#530,#531,#584,.T.);
#419=EDGE_CURVE('',#530,#532,#62,.T.);
#420=EDGE_CURVE('',#532,#533,#585,.T.);
#421=EDGE_CURVE('',#533,#531,#63,.F.);
#422=EDGE_CURVE('',#534,#535,#64,.T.);
#423=EDGE_CURVE('',#535,#536,#65,.T.);
#424=EDGE_CURVE('',#537,#536,#66,.T.);
#425=EDGE_CURVE('',#537,#534,#67,.T.);
#426=EDGE_CURVE('',#538,#539,#68,.T.);
#427=EDGE_CURVE('',#538,#540,#69,.F.);
#428=EDGE_CURVE('',#540,#541,#70,.T.);
#429=EDGE_CURVE('',#541,#539,#71,.F.);
#430=EDGE_CURVE('',#542,#543,#586,.T.);
#431=EDGE_CURVE('',#543,#544,#72,.F.);
#432=EDGE_CURVE('',#545,#544,#587,.T.);
#433=EDGE_CURVE('',#545,#542,#73,.T.);
#434=EDGE_CURVE('',#546,#547,#74,.T.);
#435=EDGE_CURVE('',#547,#548,#75,.T.);
#436=EDGE_CURVE('',#549,#548,#76,.T.);
#437=EDGE_CURVE('',#549,#546,#77,.T.);
#438=EDGE_CURVE('',#550,#551,#78,.T.);
#439=EDGE_CURVE('',#550,#552,#79,.T.);
#440=EDGE_CURVE('',#552,#553,#80,.T.);
#441=EDGE_CURVE('',#553,#551,#81,.F.);
#442=EDGE_CURVE('',#554,#555,#588,.T.);
#443=EDGE_CURVE('',#555,#556,#82,.F.);
#444=EDGE_CURVE('',#557,#556,#589,.T.);
#445=EDGE_CURVE('',#557,#554,#83,.T.);
#446=EDGE_CURVE('',#558,#559,#84,.T.);
#447=EDGE_CURVE('',#559,#560,#85,.T.);
#448=EDGE_CURVE('',#561,#560,#86,.T.);
#449=EDGE_CURVE('',#561,#558,#87,.F.);
#450=EDGE_CURVE('',#562,#563,#590,.T.);
#451=EDGE_CURVE('',#562,#564,#88,.T.);
#452=EDGE_CURVE('',#564,#565,#591,.T.);
#453=EDGE_CURVE('',#565,#563,#89,.F.);
#454=EDGE_CURVE('',#566,#567,#90,.T.);
#455=EDGE_CURVE('',#567,#568,#91,.T.);
#456=EDGE_CURVE('',#569,#568,#92,.T.);
#457=EDGE_CURVE('',#569,#566,#93,.F.);
#458=EDGE_CURVE('',#504,#498,#94,.T.);
#459=EDGE_CURVE('',#505,#500,#95,.T.);
#460=EDGE_CURVE('',#570,#570,#592,.T.);
#461=EDGE_CURVE('',#512,#506,#593,.F.);
#462=EDGE_CURVE('',#507,#569,#594,.T.);
#463=EDGE_CURVE('',#568,#562,#595,.T.);
#464=EDGE_CURVE('',#563,#561,#596,.T.);
#465=EDGE_CURVE('',#560,#557,#597,.T.);
#466=EDGE_CURVE('',#556,#550,#598,.F.);
#467=EDGE_CURVE('',#551,#549,#599,.F.);
#468=EDGE_CURVE('',#548,#545,#600,.T.);
#469=EDGE_CURVE('',#544,#538,#601,.T.);
#470=EDGE_CURVE('',#539,#537,#602,.F.);
#471=EDGE_CURVE('',#536,#530,#603,.T.);
#472=EDGE_CURVE('',#531,#526,#604,.T.);
#473=EDGE_CURVE('',#527,#525,#605,.F.);
#474=EDGE_CURVE('',#524,#521,#606,.T.);
#475=EDGE_CURVE('',#520,#514,#607,.T.);
#476=EDGE_CURVE('',#515,#513,#608,.F.);
#477=EDGE_CURVE('',#571,#571,#609,.T.);
#478=EDGE_CURVE('',#508,#511,#610,.T.);
#479=EDGE_CURVE('',#510,#517,#611,.T.);
#480=EDGE_CURVE('',#516,#519,#612,.F.);
#481=EDGE_CURVE('',#518,#523,#613,.F.);
#482=EDGE_CURVE('',#522,#529,#614,.T.);
#483=EDGE_CURVE('',#528,#533,#615,.F.);
#484=EDGE_CURVE('',#532,#535,#616,.F.);
#485=EDGE_CURVE('',#534,#541,#617,.T.);
#486=EDGE_CURVE('',#540,#543,#618,.F.);
#487=EDGE_CURVE('',#542,#547,#619,.F.);
#488=EDGE_CURVE('',#546,#553,#620,.T.);
#489=EDGE_CURVE('',#552,#555,#621,.T.);
#490=EDGE_CURVE('',#554,#559,#622,.F.);
#491=EDGE_CURVE('',#558,#565,#623,.F.);
#492=EDGE_CURVE('',#564,#567,#624,.F.);
#493=EDGE_CURVE('',#566,#509,#625,.F.);
#494=EDGE_CURVE('',#572,#572,#626,.T.);
#495=EDGE_CURVE('',#573,#573,#627,.T.);
#496=EDGE_CURVE('',#574,#574,#628,.T.);
#497=EDGE_CURVE('',#575,#575,#629,.T.);
#498=VERTEX_POINT('',#1173);
#499=VERTEX_POINT('',#1174);
#500=VERTEX_POINT('',#1176);
#501=VERTEX_POINT('',#1178);
#502=VERTEX_POINT('',#1182);
#503=VERTEX_POINT('',#1184);
#504=VERTEX_POINT('',#1188);
#505=VERTEX_POINT('',#1190);
#506=VERTEX_POINT('',#1194);
#507=VERTEX_POINT('',#1195);
#508=VERTEX_POINT('',#1197);
#509=VERTEX_POINT('',#1199);
#510=VERTEX_POINT('',#1203);
#511=VERTEX_POINT('',#1204);
#512=VERTEX_POINT('',#1206);
#513=VERTEX_POINT('',#1208);
#514=VERTEX_POINT('',#1212);
#515=VERTEX_POINT('',#1213);
#516=VERTEX_POINT('',#1215);
#517=VERTEX_POINT('',#1217);
#518=VERTEX_POINT('',#1221);
#519=VERTEX_POINT('',#1222);
#520=VERTEX_POINT('',#1224);
#521=VERTEX_POINT('',#1226);
#522=VERTEX_POINT('',#1230);
#523=VERTEX_POINT('',#1231);
#524=VERTEX_POINT('',#1233);
#525=VERTEX_POINT('',#1235);
#526=VERTEX_POINT('',#1239);
#527=VERTEX_POINT('',#1240);
#528=VERTEX_POINT('',#1242);
#529=VERTEX_POINT('',#1244);
#530=VERTEX_POINT('',#1248);
#531=VERTEX_POINT('',#1249);
#532=VERTEX_POINT('',#1251);
#533=VERTEX_POINT('',#1253);
#534=VERTEX_POINT('',#1257);
#535=VERTEX_POINT('',#1258);
#536=VERTEX_POINT('',#1260);
#537=VERTEX_POINT('',#1262);
#538=VERTEX_POINT('',#1266);
#539=VERTEX_POINT('',#1267);
#540=VERTEX_POINT('',#1269);
#541=VERTEX_POINT('',#1271);
#542=VERTEX_POINT('',#1275);
#543=VERTEX_POINT('',#1276);
#544=VERTEX_POINT('',#1278);
#545=VERTEX_POINT('',#1280);
#546=VERTEX_POINT('',#1284);
#547=VERTEX_POINT('',#1285);
#548=VERTEX_POINT('',#1287);
#549=VERTEX_POINT('',#1289);
#550=VERTEX_POINT('',#1293);
#551=VERTEX_POINT('',#1294);
#552=VERTEX_POINT('',#1296);
#553=VERTEX_POINT('',#1298);
#554=VERTEX_POINT('',#1302);
#555=VERTEX_POINT('',#1303);
#556=VERTEX_POINT('',#1305);
#557=VERTEX_POINT('',#1307);
#558=VERTEX_POINT('',#1311);
#559=VERTEX_POINT('',#1312);
#560=VERTEX_POINT('',#1314);
#561=VERTEX_POINT('',#1316);
#562=VERTEX_POINT('',#1320);
#563=VERTEX_POINT('',#1321);
#564=VERTEX_POINT('',#1323);
#565=VERTEX_POINT('',#1325);
#566=VERTEX_POINT('',#1329);
#567=VERTEX_POINT('',#1330);
#568=VERTEX_POINT('',#1332);
#569=VERTEX_POINT('',#1334);
#570=VERTEX_POINT('',#1341);
#571=VERTEX_POINT('',#1360);
#572=VERTEX_POINT('',#1395);
#573=VERTEX_POINT('',#1398);
#574=VERTEX_POINT('',#1401);
#575=VERTEX_POINT('',#1404);
#576=CIRCLE('',#818,3.6);
#577=CIRCLE('',#819,3.6);
#578=CIRCLE('',#822,3.6);
#579=CIRCLE('',#823,3.6);
#580=CIRCLE('',#825,3.6);
#581=CIRCLE('',#826,3.6);
#582=CIRCLE('',#830,2.4);
#583=CIRCLE('',#831,2.4);
#584=CIRCLE('',#835,2.4);
#585=CIRCLE('',#836,2.4);
#586=CIRCLE('',#840,2.4);
#587=CIRCLE('',#841,2.4);
#588=CIRCLE('',#845,3.6);
#589=CIRCLE('',#846,3.6);
#590=CIRCLE('',#849,3.6);
#591=CIRCLE('',#850,3.6);
#592=CIRCLE('',#854,3.1);
#593=CIRCLE('',#855,0.5);
#594=CIRCLE('',#856,0.5);
#595=CIRCLE('',#857,0.5);
#596=CIRCLE('',#858,0.5);
#597=CIRCLE('',#859,0.5);
#598=CIRCLE('',#860,0.5);
#599=CIRCLE('',#861,0.5);
#600=CIRCLE('',#862,0.1);
#601=CIRCLE('',#863,0.1);
#602=CIRCLE('',#864,0.5);
#603=CIRCLE('',#865,0.1);
#604=CIRCLE('',#866,0.1);
#605=CIRCLE('',#867,0.5);
#606=CIRCLE('',#868,0.1);
#607=CIRCLE('',#869,0.1);
#608=CIRCLE('',#870,0.5);
#609=CIRCLE('',#872,3.09999999999999);
#610=CIRCLE('',#873,0.5);
#611=CIRCLE('',#874,0.5);
#612=CIRCLE('',#875,0.1);
#613=CIRCLE('',#876,0.1);
#614=CIRCLE('',#877,0.5);
#615=CIRCLE('',#878,0.1);
#616=CIRCLE('',#879,0.1);
#617=CIRCLE('',#880,0.5);
#618=CIRCLE('',#881,0.1);
#619=CIRCLE('',#882,0.1);
#620=CIRCLE('',#883,0.5);
#621=CIRCLE('',#884,0.5);
#622=CIRCLE('',#885,0.5);
#623=CIRCLE('',#886,0.5);
#624=CIRCLE('',#887,0.5);
#625=CIRCLE('',#888,0.5);
#626=CIRCLE('',#906,3.1);
#627=CIRCLE('',#908,2.4);
#628=CIRCLE('',#910,2.4);
#629=CIRCLE('',#912,3.1);
#630=EDGE_LOOP('',(#156,#157,#158,#159));
#631=EDGE_LOOP('',(#160,#161,#162,#163));
#632=EDGE_LOOP('',(#164,#165,#166,#167));
#633=EDGE_LOOP('',(#168,#169,#170,#171));
#634=EDGE_LOOP('',(#172,#173,#174,#175));
#635=EDGE_LOOP('',(#176,#177,#178,#179));
#636=EDGE_LOOP('',(#180,#181,#182,#183));
#637=EDGE_LOOP('',(#184,#185,#186,#187));
#638=EDGE_LOOP('',(#188,#189,#190,#191));
#639=EDGE_LOOP('',(#192,#193,#194,#195));
#640=EDGE_LOOP('',(#196,#197,#198,#199));
#641=EDGE_LOOP('',(#200,#201,#202,#203));
#642=EDGE_LOOP('',(#204,#205,#206,#207));
#643=EDGE_LOOP('',(#208,#209,#210,#211));
#644=EDGE_LOOP('',(#212,#213,#214,#215));
#645=EDGE_LOOP('',(#216,#217,#218,#219));
#646=EDGE_LOOP('',(#220,#221,#222,#223));
#647=EDGE_LOOP('',(#224,#225,#226,#227));
#648=EDGE_LOOP('',(#228,#229,#230,#231));
#649=EDGE_LOOP('',(#232,#233,#234,#235));
#650=EDGE_LOOP('',(#236));
#651=EDGE_LOOP('',(#237,#238,#239,#240,#241,#242,#243,#244,#245,#246,#247,
#248,#249,#250,#251,#252,#253,#254,#255,#256,#257,#258,#259,#260,#261,#262,
#263,#264,#265,#266,#267,#268));
#652=EDGE_LOOP('',(#269,#270,#271,#272));
#653=EDGE_LOOP('',(#273));
#654=EDGE_LOOP('',(#274,#275,#276,#277,#278,#279,#280,#281,#282,#283,#284,
#285,#286,#287,#288,#289,#290,#291,#292,#293,#294,#295,#296,#297,#298,#299,
#300,#301,#302,#303,#304,#305));
#655=EDGE_LOOP('',(#306,#307,#308,#309));
#656=EDGE_LOOP('',(#310,#311,#312,#313));
#657=EDGE_LOOP('',(#314,#315,#316,#317));
#658=EDGE_LOOP('',(#318,#319,#320,#321));
#659=EDGE_LOOP('',(#322,#323,#324,#325));
#660=EDGE_LOOP('',(#326,#327,#328,#329));
#661=EDGE_LOOP('',(#330,#331,#332,#333));
#662=EDGE_LOOP('',(#334,#335,#336,#337));
#663=EDGE_LOOP('',(#338,#339,#340,#341));
#664=EDGE_LOOP('',(#342,#343,#344,#345));
#665=EDGE_LOOP('',(#346,#347,#348,#349));
#666=EDGE_LOOP('',(#350,#351,#352,#353));
#667=EDGE_LOOP('',(#354,#355,#356,#357));
#668=EDGE_LOOP('',(#358,#359,#360,#361));
#669=EDGE_LOOP('',(#362,#363,#364,#365));
#670=EDGE_LOOP('',(#366,#367,#368,#369));
#671=EDGE_LOOP('',(#370,#371,#372,#373));
#672=EDGE_LOOP('',(#374));
#673=EDGE_LOOP('',(#375));
#674=EDGE_LOOP('',(#376));
#675=EDGE_LOOP('',(#377));
#676=EDGE_LOOP('',(#378));
#677=EDGE_LOOP('',(#379));
#678=EDGE_LOOP('',(#380));
#679=EDGE_LOOP('',(#381));
#680=EDGE_LOOP('',(#382));
#681=EDGE_LOOP('',(#383));
#682=FACE_BOUND('',#630,.T.);
#683=FACE_BOUND('',#631,.T.);
#684=FACE_BOUND('',#632,.T.);
#685=FACE_BOUND('',#633,.T.);
#686=FACE_BOUND('',#634,.T.);
#687=FACE_BOUND('',#635,.T.);
#688=FACE_BOUND('',#636,.T.);
#689=FACE_BOUND('',#637,.T.);
#690=FACE_BOUND('',#638,.T.);
#691=FACE_BOUND('',#639,.T.);
#692=FACE_BOUND('',#640,.T.);
#693=FACE_BOUND('',#641,.T.);
#694=FACE_BOUND('',#642,.T.);
#695=FACE_BOUND('',#643,.T.);
#696=FACE_BOUND('',#644,.T.);
#697=FACE_BOUND('',#645,.T.);
#698=FACE_BOUND('',#646,.T.);
#699=FACE_BOUND('',#647,.T.);
#700=FACE_BOUND('',#648,.T.);
#701=FACE_BOUND('',#649,.T.);
#702=FACE_BOUND('',#650,.T.);
#703=FACE_BOUND('',#651,.T.);
#704=FACE_BOUND('',#652,.T.);
#705=FACE_BOUND('',#653,.T.);
#706=FACE_BOUND('',#654,.T.);
#707=FACE_BOUND('',#655,.T.);
#708=FACE_BOUND('',#656,.T.);
#709=FACE_BOUND('',#657,.T.);
#710=FACE_BOUND('',#658,.T.);
#711=FACE_BOUND('',#659,.T.);
#712=FACE_BOUND('',#660,.T.);
#713=FACE_BOUND('',#661,.T.);
#714=FACE_BOUND('',#662,.T.);
#715=FACE_BOUND('',#663,.T.);
#716=FACE_BOUND('',#664,.T.);
#717=FACE_BOUND('',#665,.T.);
#718=FACE_BOUND('',#666,.T.);
#719=FACE_BOUND('',#667,.T.);
#720=FACE_BOUND('',#668,.T.);
#721=FACE_BOUND('',#669,.T.);
#722=FACE_BOUND('',#670,.T.);
#723=FACE_BOUND('',#671,.T.);
#724=FACE_BOUND('',#672,.T.);
#725=FACE_BOUND('',#673,.T.);
#726=FACE_BOUND('',#674,.T.);
#727=FACE_BOUND('',#675,.T.);
#728=FACE_BOUND('',#676,.T.);
#729=FACE_BOUND('',#677,.T.);
#730=FACE_BOUND('',#678,.T.);
#731=FACE_BOUND('',#679,.T.);
#732=FACE_BOUND('',#680,.T.);
#733=FACE_BOUND('',#681,.T.);
#734=CYLINDRICAL_SURFACE('',#817,3.6);
#735=CYLINDRICAL_SURFACE('',#821,3.6);
#736=CYLINDRICAL_SURFACE('',#824,3.6);
#737=CYLINDRICAL_SURFACE('',#829,2.4);
#738=CYLINDRICAL_SURFACE('',#834,2.4);
#739=CYLINDRICAL_SURFACE('',#839,2.4);
#740=CYLINDRICAL_SURFACE('',#844,3.6);
#741=CYLINDRICAL_SURFACE('',#848,3.6);
#742=CYLINDRICAL_SURFACE('',#889,0.5);
#743=CYLINDRICAL_SURFACE('',#890,0.5);
#744=CYLINDRICAL_SURFACE('',#891,0.5);
#745=CYLINDRICAL_SURFACE('',#892,0.5);
#746=CYLINDRICAL_SURFACE('',#893,0.5);
#747=CYLINDRICAL_SURFACE('',#894,0.5);
#748=CYLINDRICAL_SURFACE('',#895,0.5);
#749=CYLINDRICAL_SURFACE('',#896,0.5);
#750=CYLINDRICAL_SURFACE('',#897,0.5);
#751=CYLINDRICAL_SURFACE('',#898,0.5);
#752=CYLINDRICAL_SURFACE('',#899,0.1);
#753=CYLINDRICAL_SURFACE('',#900,0.1);
#754=CYLINDRICAL_SURFACE('',#901,0.1);
#755=CYLINDRICAL_SURFACE('',#902,0.1);
#756=CYLINDRICAL_SURFACE('',#903,0.1);
#757=CYLINDRICAL_SURFACE('',#904,0.1);
#758=CYLINDRICAL_SURFACE('',#905,3.1);
#759=CYLINDRICAL_SURFACE('',#909,2.4);
#760=CYLINDRICAL_SURFACE('',#913,3.1);
#761=ADVANCED_FACE('',(#682),#734,.T.);
#762=ADVANCED_FACE('',(#683),#20,.T.);
#763=ADVANCED_FACE('',(#684),#735,.T.);
#764=ADVANCED_FACE('',(#685),#736,.T.);
#765=ADVANCED_FACE('',(#686),#21,.F.);
#766=ADVANCED_FACE('',(#687),#22,.F.);
#767=ADVANCED_FACE('',(#688),#737,.F.);
#768=ADVANCED_FACE('',(#689),#23,.F.);
#769=ADVANCED_FACE('',(#690),#24,.F.);
#770=ADVANCED_FACE('',(#691),#738,.F.);
#771=ADVANCED_FACE('',(#692),#25,.F.);
#772=ADVANCED_FACE('',(#693),#26,.F.);
#773=ADVANCED_FACE('',(#694),#739,.F.);
#774=ADVANCED_FACE('',(#695),#27,.F.);
#775=ADVANCED_FACE('',(#696),#28,.F.);
#776=ADVANCED_FACE('',(#697),#740,.T.);
#777=ADVANCED_FACE('',(#698),#29,.F.);
#778=ADVANCED_FACE('',(#699),#741,.T.);
#779=ADVANCED_FACE('',(#700),#30,.F.);
#780=ADVANCED_FACE('',(#701),#31,.T.);
#781=ADVANCED_FACE('',(#702,#703,#704),#32,.F.);
#782=ADVANCED_FACE('',(#705,#706,#707),#33,.T.);
#783=ADVANCED_FACE('',(#708),#742,.F.);
#784=ADVANCED_FACE('',(#709),#743,.F.);
#785=ADVANCED_FACE('',(#710),#744,.T.);
#786=ADVANCED_FACE('',(#711),#745,.T.);
#787=ADVANCED_FACE('',(#712),#746,.T.);
#788=ADVANCED_FACE('',(#713),#747,.T.);
#789=ADVANCED_FACE('',(#714),#748,.F.);
#790=ADVANCED_FACE('',(#715),#749,.T.);
#791=ADVANCED_FACE('',(#716),#750,.F.);
#792=ADVANCED_FACE('',(#717),#751,.T.);
#793=ADVANCED_FACE('',(#718),#752,.F.);
#794=ADVANCED_FACE('',(#719),#753,.F.);
#795=ADVANCED_FACE('',(#720),#754,.F.);
#796=ADVANCED_FACE('',(#721),#755,.F.);
#797=ADVANCED_FACE('',(#722),#756,.F.);
#798=ADVANCED_FACE('',(#723),#757,.F.);
#799=ADVANCED_FACE('',(#724,#725),#758,.F.);
#800=ADVANCED_FACE('',(#726,#727),#34,.T.);
#801=ADVANCED_FACE('',(#728,#729),#759,.F.);
#802=ADVANCED_FACE('',(#730,#731),#35,.T.);
#803=ADVANCED_FACE('',(#732,#733),#760,.F.);
#804=CLOSED_SHELL('',(#761,#762,#763,#764,#765,#766,#767,#768,#769,#770,
#771,#772,#773,#774,#775,#776,#777,#778,#779,#780,#781,#782,#783,#784,#785,
#786,#787,#788,#789,#790,#791,#792,#793,#794,#795,#796,#797,#798,#799,#800,
#801,#802,#803));
#805=STYLED_ITEM('',(#806),#813);
#806=PRESENTATION_STYLE_ASSIGNMENT((#807));
#807=SURFACE_STYLE_USAGE(.BOTH.,#808);
#808=SURFACE_SIDE_STYLE('',(#809));
#809=SURFACE_STYLE_FILL_AREA(#810);
#810=FILL_AREA_STYLE('',(#811));
#811=FILL_AREA_STYLE_COLOUR('',#812);
#812=COLOUR_RGB('',0.200000002980232,0.200000002980232,0.200000002980232);
#813=MANIFOLD_SOLID_BREP('',#804);
#814=SHAPE_DEFINITION_REPRESENTATION(#1412,#815);
#815=SHAPE_REPRESENTATION('Black_6006140_AVV',(#816),#1407);
#816=AXIS2_PLACEMENT_3D('',#1170,#914,#915);
#817=AXIS2_PLACEMENT_3D('',#1171,#916,#917);
#818=AXIS2_PLACEMENT_3D('',#1172,#918,#919);
#819=AXIS2_PLACEMENT_3D('',#1177,#921,#922);
#820=AXIS2_PLACEMENT_3D('',#1180,#924,#925);
#821=AXIS2_PLACEMENT_3D('',#1186,#929,#930);
#822=AXIS2_PLACEMENT_3D('',#1187,#931,#932);
#823=AXIS2_PLACEMENT_3D('',#1189,#933,#934);
#824=AXIS2_PLACEMENT_3D('',#1192,#936,#937);
#825=AXIS2_PLACEMENT_3D('',#1193,#938,#939);
#826=AXIS2_PLACEMENT_3D('',#1198,#941,#942);
#827=AXIS2_PLACEMENT_3D('',#1201,#944,#945);
#828=AXIS2_PLACEMENT_3D('',#1210,#950,#951);
#829=AXIS2_PLACEMENT_3D('',#1219,#956,#957);
#830=AXIS2_PLACEMENT_3D('',#1220,#958,#959);
#831=AXIS2_PLACEMENT_3D('',#1225,#961,#962);
#832=AXIS2_PLACEMENT_3D('',#1228,#964,#965);
#833=AXIS2_PLACEMENT_3D('',#1237,#970,#971);
#834=AXIS2_PLACEMENT_3D('',#1246,#976,#977);
#835=AXIS2_PLACEMENT_3D('',#1247,#978,#979);
#836=AXIS2_PLACEMENT_3D('',#1252,#981,#982);
#837=AXIS2_PLACEMENT_3D('',#1255,#984,#985);
#838=AXIS2_PLACEMENT_3D('',#1264,#990,#991);
#839=AXIS2_PLACEMENT_3D('',#1273,#996,#997);
#840=AXIS2_PLACEMENT_3D('',#1274,#998,#999);
#841=AXIS2_PLACEMENT_3D('',#1279,#1001,#1002);
#842=AXIS2_PLACEMENT_3D('',#1282,#1004,#1005);
#843=AXIS2_PLACEMENT_3D('',#1291,#1010,#1011);
#844=AXIS2_PLACEMENT_3D('',#1300,#1016,#1017);
#845=AXIS2_PLACEMENT_3D('',#1301,#1018,#1019);
#846=AXIS2_PLACEMENT_3D('',#1306,#1021,#1022);
#847=AXIS2_PLACEMENT_3D('',#1309,#1024,#1025);
#848=AXIS2_PLACEMENT_3D('',#1318,#1030,#1031);
#849=AXIS2_PLACEMENT_3D('',#1319,#1032,#1033);
#850=AXIS2_PLACEMENT_3D('',#1324,#1035,#1036);
#851=AXIS2_PLACEMENT_3D('',#1327,#1038,#1039);
#852=AXIS2_PLACEMENT_3D('',#1336,#1044,#1045);
#853=AXIS2_PLACEMENT_3D('',#1339,#1048,#1049);
#854=AXIS2_PLACEMENT_3D('',#1340,#1050,#1051);
#855=AXIS2_PLACEMENT_3D('',#1342,#1052,#1053);
#856=AXIS2_PLACEMENT_3D('',#1343,#1054,#1055);
#857=AXIS2_PLACEMENT_3D('',#1344,#1056,#1057);
#858=AXIS2_PLACEMENT_3D('',#1345,#1058,#1059);
#859=AXIS2_PLACEMENT_3D('',#1346,#1060,#1061);
#860=AXIS2_PLACEMENT_3D('',#1347,#1062,#1063);
#861=AXIS2_PLACEMENT_3D('',#1348,#1064,#1065);
#862=AXIS2_PLACEMENT_3D('',#1349,#1066,#1067);
#863=AXIS2_PLACEMENT_3D('',#1350,#1068,#1069);
#864=AXIS2_PLACEMENT_3D('',#1351,#1070,#1071);
#865=AXIS2_PLACEMENT_3D('',#1352,#1072,#1073);
#866=AXIS2_PLACEMENT_3D('',#1353,#1074,#1075);
#867=AXIS2_PLACEMENT_3D('',#1354,#1076,#1077);
#868=AXIS2_PLACEMENT_3D('',#1355,#1078,#1079);
#869=AXIS2_PLACEMENT_3D('',#1356,#1080,#1081);
#870=AXIS2_PLACEMENT_3D('',#1357,#1082,#1083);
#871=AXIS2_PLACEMENT_3D('',#1358,#1084,#1085);
#872=AXIS2_PLACEMENT_3D('',#1359,#1086,#1087);
#873=AXIS2_PLACEMENT_3D('',#1361,#1088,#1089);
#874=AXIS2_PLACEMENT_3D('',#1362,#1090,#1091);
#875=AXIS2_PLACEMENT_3D('',#1363,#1092,#1093);
#876=AXIS2_PLACEMENT_3D('',#1364,#1094,#1095);
#877=AXIS2_PLACEMENT_3D('',#1365,#1096,#1097);
#878=AXIS2_PLACEMENT_3D('',#1366,#1098,#1099);
#879=AXIS2_PLACEMENT_3D('',#1367,#1100,#1101);
#880=AXIS2_PLACEMENT_3D('',#1368,#1102,#1103);
#881=AXIS2_PLACEMENT_3D('',#1369,#1104,#1105);
#882=AXIS2_PLACEMENT_3D('',#1370,#1106,#1107);
#883=AXIS2_PLACEMENT_3D('',#1371,#1108,#1109);
#884=AXIS2_PLACEMENT_3D('',#1372,#1110,#1111);
#885=AXIS2_PLACEMENT_3D('',#1373,#1112,#1113);
#886=AXIS2_PLACEMENT_3D('',#1374,#1114,#1115);
#887=AXIS2_PLACEMENT_3D('',#1375,#1116,#1117);
#888=AXIS2_PLACEMENT_3D('',#1376,#1118,#1119);
#889=AXIS2_PLACEMENT_3D('',#1377,#1120,#1121);
#890=AXIS2_PLACEMENT_3D('',#1378,#1122,#1123);
#891=AXIS2_PLACEMENT_3D('',#1379,#1124,#1125);
#892=AXIS2_PLACEMENT_3D('',#1380,#1126,#1127);
#893=AXIS2_PLACEMENT_3D('',#1381,#1128,#1129);
#894=AXIS2_PLACEMENT_3D('',#1382,#1130,#1131);
#895=AXIS2_PLACEMENT_3D('',#1383,#1132,#1133);
#896=AXIS2_PLACEMENT_3D('',#1384,#1134,#1135);
#897=AXIS2_PLACEMENT_3D('',#1385,#1136,#1137);
#898=AXIS2_PLACEMENT_3D('',#1386,#1138,#1139);
#899=AXIS2_PLACEMENT_3D('',#1387,#1140,#1141);
#900=AXIS2_PLACEMENT_3D('',#1388,#1142,#1143);
#901=AXIS2_PLACEMENT_3D('',#1389,#1144,#1145);
#902=AXIS2_PLACEMENT_3D('',#1390,#1146,#1147);
#903=AXIS2_PLACEMENT_3D('',#1391,#1148,#1149);
#904=AXIS2_PLACEMENT_3D('',#1392,#1150,#1151);
#905=AXIS2_PLACEMENT_3D('',#1393,#1152,#1153);
#906=AXIS2_PLACEMENT_3D('',#1394,#1154,#1155);
#907=AXIS2_PLACEMENT_3D('',#1396,#1156,#1157);
#908=AXIS2_PLACEMENT_3D('',#1397,#1158,#1159);
#909=AXIS2_PLACEMENT_3D('',#1399,#1160,#1161);
#910=AXIS2_PLACEMENT_3D('',#1400,#1162,#1163);
#911=AXIS2_PLACEMENT_3D('',#1402,#1164,#1165);
#912=AXIS2_PLACEMENT_3D('',#1403,#1166,#1167);
#913=AXIS2_PLACEMENT_3D('',#1405,#1168,#1169);
#914=DIRECTION('',(0.,0.,1.));
#915=DIRECTION('',(1.,0.,0.));
#916=DIRECTION('',(0.,0.,-1.));
#917=DIRECTION('',(-1.,0.,0.));
#918=DIRECTION('',(0.,0.,-1.));
#919=DIRECTION('',(1.,0.,0.));
#920=DIRECTION('',(0.,0.,-1.));
#921=DIRECTION('',(0.,0.,-1.));
#922=DIRECTION('',(1.,0.,0.));
#923=DIRECTION('',(0.,0.,-1.));
#924=DIRECTION('',(-2.71050543121376E-16,1.,0.));
#925=DIRECTION('',(-1.,-2.71050543121376E-16,0.));
#926=DIRECTION('',(1.,2.71050543121376E-16,0.));
#927=DIRECTION('',(1.,2.71050543121376E-16,0.));
#928=DIRECTION('',(0.,0.,-1.));
#929=DIRECTION('',(0.,0.,-1.));
#930=DIRECTION('',(-1.,0.,0.));
#931=DIRECTION('',(0.,0.,-1.));
#932=DIRECTION('',(-1.,0.,0.));
#933=DIRECTION('',(0.,0.,-1.));
#934=DIRECTION('',(-1.,0.,0.));
#935=DIRECTION('',(0.,0.,-1.));
#936=DIRECTION('',(0.,0.,-1.));
#937=DIRECTION('',(-1.,0.,0.));
#938=DIRECTION('',(0.,0.,1.));
#939=DIRECTION('',(1.,0.,0.));
#940=DIRECTION('',(0.,0.,-1.));
#941=DIRECTION('',(0.,0.,1.));
#942=DIRECTION('',(1.,0.,0.));
#943=DIRECTION('',(0.,0.,-1.));
#944=DIRECTION('',(0.,1.,0.));
#945=DIRECTION('',(0.,0.,1.));
#946=DIRECTION('',(1.,0.,0.));
#947=DIRECTION('',(0.,0.,-1.));
#948=DIRECTION('',(1.,0.,0.));
#949=DIRECTION('',(0.,0.,-1.));
#950=DIRECTION('',(1.,0.,0.));
#951=DIRECTION('',(0.,0.,-1.));
#952=DIRECTION('',(0.,-1.,0.));
#953=DIRECTION('',(0.,0.,1.));
#954=DIRECTION('',(0.,-1.,0.));
#955=DIRECTION('',(0.,0.,-1.));
#956=DIRECTION('',(0.,0.,-1.));
#957=DIRECTION('',(-1.,0.,0.));
#958=DIRECTION('',(0.,0.,-1.));
#959=DIRECTION('',(1.,0.,0.));
#960=DIRECTION('',(0.,0.,-1.));
#961=DIRECTION('',(0.,0.,-1.));
#962=DIRECTION('',(1.,0.,0.));
#963=DIRECTION('',(0.,0.,-1.));
#964=DIRECTION('',(-1.,0.,0.));
#965=DIRECTION('',(0.,0.,1.));
#966=DIRECTION('',(0.,1.,0.));
#967=DIRECTION('',(0.,0.,1.));
#968=DIRECTION('',(0.,1.,0.));
#969=DIRECTION('',(0.,0.,-1.));
#970=DIRECTION('',(0.,1.,0.));
#971=DIRECTION('',(0.,0.,1.));
#972=DIRECTION('',(1.,0.,0.));
#973=DIRECTION('',(0.,0.,1.));
#974=DIRECTION('',(1.,0.,0.));
#975=DIRECTION('',(0.,0.,-1.));
#976=DIRECTION('',(0.,0.,-1.));
#977=DIRECTION('',(-1.,0.,0.));
#978=DIRECTION('',(0.,0.,-1.));
#979=DIRECTION('',(1.,0.,0.));
#980=DIRECTION('',(0.,0.,-1.));
#981=DIRECTION('',(0.,0.,-1.));
#982=DIRECTION('',(1.,0.,0.));
#983=DIRECTION('',(0.,0.,-1.));
#984=DIRECTION('',(1.63670507663034E-16,-1.,0.));
#985=DIRECTION('',(1.,1.63670507663034E-16,0.));
#986=DIRECTION('',(-1.,-1.63670507663034E-16,0.));
#987=DIRECTION('',(0.,0.,1.));
#988=DIRECTION('',(-1.,-1.63670507663034E-16,0.));
#989=DIRECTION('',(0.,0.,-1.));
#990=DIRECTION('',(-1.,0.,0.));
#991=DIRECTION('',(0.,0.,1.));
#992=DIRECTION('',(0.,1.,0.));
#993=DIRECTION('',(0.,0.,1.));
#994=DIRECTION('',(0.,1.,0.));
#995=DIRECTION('',(0.,0.,-1.));
#996=DIRECTION('',(0.,0.,-1.));
#997=DIRECTION('',(-1.,0.,0.));
#998=DIRECTION('',(0.,0.,-1.));
#999=DIRECTION('',(1.,0.,0.));
#1000=DIRECTION('',(0.,0.,-1.));
#1001=DIRECTION('',(0.,0.,-1.));
#1002=DIRECTION('',(1.,0.,0.));
#1003=DIRECTION('',(0.,0.,-1.));
#1004=DIRECTION('',(1.,0.,0.));
#1005=DIRECTION('',(0.,0.,-1.));
#1006=DIRECTION('',(0.,-1.,0.));
#1007=DIRECTION('',(0.,0.,1.));
#1008=DIRECTION('',(0.,-1.,0.));
#1009=DIRECTION('',(0.,0.,-1.));
#1010=DIRECTION('',(1.25792836439137E-16,-1.,0.));
#1011=DIRECTION('',(1.,1.25792836439137E-16,0.));
#1012=DIRECTION('',(-1.,-1.25792836439137E-16,0.));
#1013=DIRECTION('',(0.,0.,-1.));
#1014=DIRECTION('',(-1.,-1.25792836439137E-16,0.));
#1015=DIRECTION('',(0.,0.,-1.));
#1016=DIRECTION('',(0.,0.,-1.));
#1017=DIRECTION('',(-1.,0.,0.));
#1018=DIRECTION('',(0.,0.,1.));
#1019=DIRECTION('',(1.,0.,0.));
#1020=DIRECTION('',(0.,0.,-1.));
#1021=DIRECTION('',(0.,0.,1.));
#1022=DIRECTION('',(1.,0.,0.));
#1023=DIRECTION('',(0.,0.,-1.));
#1024=DIRECTION('',(0.,-1.,0.));
#1025=DIRECTION('',(0.,0.,-1.));
#1026=DIRECTION('',(-1.,0.,0.));
#1027=DIRECTION('',(0.,0.,1.));
#1028=DIRECTION('',(-1.,0.,0.));
#1029=DIRECTION('',(0.,0.,1.));
#1030=DIRECTION('',(0.,0.,-1.));
#1031=DIRECTION('',(-1.,0.,0.));
#1032=DIRECTION('',(0.,0.,1.));
#1033=DIRECTION('',(1.,0.,0.));
#1034=DIRECTION('',(0.,0.,-1.));
#1035=DIRECTION('',(0.,0.,1.));
#1036=DIRECTION('',(1.,0.,0.));
#1037=DIRECTION('',(0.,0.,-1.));
#1038=DIRECTION('',(0.,1.,0.));
#1039=DIRECTION('',(0.,0.,1.));
#1040=DIRECTION('',(1.,0.,0.));
#1041=DIRECTION('',(0.,0.,1.));
#1042=DIRECTION('',(1.,0.,0.));
#1043=DIRECTION('',(0.,0.,1.));
#1044=DIRECTION('',(1.0842021724855E-16,-1.,0.));
#1045=DIRECTION('',(1.,1.0842021724855E-16,0.));
#1046=DIRECTION('',(-1.,-1.0842021724855E-16,0.));
#1047=DIRECTION('',(-1.,-1.0842021724855E-16,0.));
#1048=DIRECTION('',(0.,0.,-1.));
#1049=DIRECTION('',(-1.,0.,0.));
#1050=DIRECTION('',(3.25260651745651E-16,0.,1.));
#1051=DIRECTION('',(1.,0.,-3.25260651745651E-16));
#1052=DIRECTION('',(0.,0.,-1.));
#1053=DIRECTION('',(-1.,0.,0.));
#1054=DIRECTION('',(0.,0.,-1.));
#1055=DIRECTION('',(-1.,0.,0.));
#1056=DIRECTION('',(0.,0.,-1.));
#1057=DIRECTION('',(-1.,0.,0.));
#1058=DIRECTION('',(0.,0.,-1.));
#1059=DIRECTION('',(-1.,0.,0.));
#1060=DIRECTION('',(0.,0.,-1.));
#1061=DIRECTION('',(-1.,0.,0.));
#1062=DIRECTION('',(0.,0.,-1.));
#1063=DIRECTION('',(-1.,0.,0.));
#1064=DIRECTION('',(0.,0.,-1.));
#1065=DIRECTION('',(-1.,0.,0.));
#1066=DIRECTION('',(0.,0.,-1.));
#1067=DIRECTION('',(-1.,0.,0.));
#1068=DIRECTION('',(0.,0.,-1.));
#1069=DIRECTION('',(-1.,0.,0.));
#1070=DIRECTION('',(0.,0.,-1.));
#1071=DIRECTION('',(-1.,0.,0.));
#1072=DIRECTION('',(0.,0.,-1.));
#1073=DIRECTION('',(-1.,0.,0.));
#1074=DIRECTION('',(0.,0.,-1.));
#1075=DIRECTION('',(-1.,0.,0.));
#1076=DIRECTION('',(0.,0.,-1.));
#1077=DIRECTION('',(-1.,0.,0.));
#1078=DIRECTION('',(0.,0.,-1.));
#1079=DIRECTION('',(-1.,0.,0.));
#1080=DIRECTION('',(0.,0.,-1.));
#1081=DIRECTION('',(-1.,0.,0.));
#1082=DIRECTION('',(0.,0.,-1.));
#1083=DIRECTION('',(-1.,0.,0.));
#1084=DIRECTION('',(0.,0.,-1.));
#1085=DIRECTION('',(-1.,0.,0.));
#1086=DIRECTION('',(3.25260651745651E-16,0.,1.));
#1087=DIRECTION('',(1.,0.,-3.25260651745651E-16));
#1088=DIRECTION('',(0.,0.,-1.));
#1089=DIRECTION('',(-1.,0.,0.));
#1090=DIRECTION('',(0.,0.,-1.));
#1091=DIRECTION('',(-1.,0.,0.));
#1092=DIRECTION('',(0.,0.,-1.));
#1093=DIRECTION('',(-1.,0.,0.));
#1094=DIRECTION('',(0.,0.,-1.));
#1095=DIRECTION('',(-1.,0.,0.));
#1096=DIRECTION('',(0.,0.,-1.));
#1097=DIRECTION('',(-1.,0.,0.));
#1098=DIRECTION('',(0.,0.,-1.));
#1099=DIRECTION('',(-1.,0.,0.));
#1100=DIRECTION('',(0.,0.,-1.));
#1101=DIRECTION('',(-1.,0.,0.));
#1102=DIRECTION('',(0.,0.,-1.));
#1103=DIRECTION('',(-1.,0.,0.));
#1104=DIRECTION('',(0.,0.,-1.));
#1105=DIRECTION('',(-1.,0.,0.));
#1106=DIRECTION('',(0.,0.,-1.));
#1107=DIRECTION('',(-1.,0.,0.));
#1108=DIRECTION('',(0.,0.,-1.));
#1109=DIRECTION('',(-1.,0.,0.));
#1110=DIRECTION('',(0.,0.,-1.));
#1111=DIRECTION('',(-1.,0.,0.));
#1112=DIRECTION('',(0.,0.,-1.));
#1113=DIRECTION('',(-1.,0.,0.));
#1114=DIRECTION('',(0.,0.,-1.));
#1115=DIRECTION('',(-1.,0.,0.));
#1116=DIRECTION('',(0.,0.,-1.));
#1117=DIRECTION('',(-1.,0.,0.));
#1118=DIRECTION('',(0.,0.,-1.));
#1119=DIRECTION('',(-1.,0.,0.));
#1120=DIRECTION('',(0.,0.,-1.));
#1121=DIRECTION('',(-1.,0.,0.));
#1122=DIRECTION('',(0.,0.,-1.));
#1123=DIRECTION('',(-1.,0.,0.));
#1124=DIRECTION('',(0.,0.,-1.));
#1125=DIRECTION('',(-1.,0.,0.));
#1126=DIRECTION('',(0.,0.,-1.));
#1127=DIRECTION('',(-1.,0.,0.));
#1128=DIRECTION('',(0.,0.,-1.));
#1129=DIRECTION('',(-1.,0.,0.));
#1130=DIRECTION('',(0.,0.,-1.));
#1131=DIRECTION('',(-1.,0.,0.));
#1132=DIRECTION('',(0.,0.,-1.));
#1133=DIRECTION('',(-1.,0.,0.));
#1134=DIRECTION('',(0.,0.,-1.));
#1135=DIRECTION('',(-1.,0.,0.));
#1136=DIRECTION('',(0.,0.,-1.));
#1137=DIRECTION('',(-1.,0.,0.));
#1138=DIRECTION('',(0.,0.,-1.));
#1139=DIRECTION('',(-1.,0.,0.));
#1140=DIRECTION('',(0.,0.,-1.));
#1141=DIRECTION('',(-1.,0.,0.));
#1142=DIRECTION('',(0.,0.,-1.));
#1143=DIRECTION('',(-1.,0.,0.));
#1144=DIRECTION('',(0.,0.,-1.));
#1145=DIRECTION('',(-1.,0.,0.));
#1146=DIRECTION('',(0.,0.,-1.));
#1147=DIRECTION('',(-1.,0.,0.));
#1148=DIRECTION('',(0.,0.,-1.));
#1149=DIRECTION('',(-1.,0.,0.));
#1150=DIRECTION('',(0.,0.,-1.));
#1151=DIRECTION('',(-1.,0.,0.));
#1152=DIRECTION('',(3.25260651745651E-16,0.,1.));
#1153=DIRECTION('',(1.,0.,-3.25260651745651E-16));
#1154=DIRECTION('',(3.25260651745651E-16,0.,1.));
#1155=DIRECTION('',(1.,0.,-3.25260651745651E-16));
#1156=DIRECTION('',(-3.25260651745651E-16,0.,-1.));
#1157=DIRECTION('',(-1.,0.,3.25260651745651E-16));
#1158=DIRECTION('',(3.25260651745651E-16,0.,1.));
#1159=DIRECTION('',(1.,0.,-3.25260651745651E-16));
#1160=DIRECTION('',(3.25260651745651E-16,0.,1.));
#1161=DIRECTION('',(1.,0.,-3.25260651745651E-16));
#1162=DIRECTION('',(3.25260651745651E-16,0.,1.));
#1163=DIRECTION('',(1.,0.,-3.25260651745651E-16));
#1164=DIRECTION('',(3.25260651745651E-16,0.,1.));
#1165=DIRECTION('',(1.,0.,-3.25260651745651E-16));
#1166=DIRECTION('',(3.25260651745651E-16,0.,1.));
#1167=DIRECTION('',(1.,0.,-3.25260651745651E-16));
#1168=DIRECTION('',(3.25260651745651E-16,0.,1.));
#1169=DIRECTION('',(1.,0.,-3.25260651745651E-16));
#1170=CARTESIAN_POINT('',(0.,0.,0.));
#1171=CARTESIAN_POINT('',(-4.,0.,8.));
#1172=CARTESIAN_POINT('',(-4.,0.,0.));
#1173=CARTESIAN_POINT('',(-4.,-3.6,0.));
#1174=CARTESIAN_POINT('',(-4.,3.6,0.));
#1175=CARTESIAN_POINT('',(-4.,-3.6,8.));
#1176=CARTESIAN_POINT('',(-4.,-3.6,8.));
#1177=CARTESIAN_POINT('',(-4.,0.,8.));
#1178=CARTESIAN_POINT('',(-4.,3.6,8.));
#1179=CARTESIAN_POINT('',(-4.,3.6,8.));
#1180=CARTESIAN_POINT('',(-4.,3.6,8.));
#1181=CARTESIAN_POINT('',(-4.,3.6,0.));
#1182=CARTESIAN_POINT('',(4.,3.6,0.));
#1183=CARTESIAN_POINT('',(-4.,3.6,8.));
#1184=CARTESIAN_POINT('',(4.,3.6,8.));
#1185=CARTESIAN_POINT('',(4.,3.6,8.));
#1186=CARTESIAN_POINT('',(4.,0.,8.));
#1187=CARTESIAN_POINT('',(4.,0.,0.));
#1188=CARTESIAN_POINT('',(4.,-3.6,0.));
#1189=CARTESIAN_POINT('',(4.,0.,8.));
#1190=CARTESIAN_POINT('',(4.,-3.6,8.));
#1191=CARTESIAN_POINT('',(4.,-3.6,8.));
#1192=CARTESIAN_POINT('',(-4.,0.,8.));
#1193=CARTESIAN_POINT('',(-4.,0.,8.));
#1194=CARTESIAN_POINT('',(-0.788029672943123,1.6258064516129,8.));
#1195=CARTESIAN_POINT('',(-1.01980361490158,2.01951219512195,8.));
#1196=CARTESIAN_POINT('',(-0.788029672943122,1.6258064516129,8.));
#1197=CARTESIAN_POINT('',(-0.788029672943123,1.6258064516129,0.));
#1198=CARTESIAN_POINT('',(-4.,0.,0.));
#1199=CARTESIAN_POINT('',(-1.01980361490158,2.01951219512195,0.));
#1200=CARTESIAN_POINT('',(-1.01980361490158,2.01951219512195,8.));
#1201=CARTESIAN_POINT('',(-3.1,0.9,8.));
#1202=CARTESIAN_POINT('',(-3.1,0.9,0.));
#1203=CARTESIAN_POINT('',(-2.6,0.9,0.));
#1204=CARTESIAN_POINT('',(-1.23413666281213,0.9,0.));
#1205=CARTESIAN_POINT('',(-1.23413666281213,0.9,8.));
#1206=CARTESIAN_POINT('',(-1.23413666281213,0.9,8.));
#1207=CARTESIAN_POINT('',(-3.1,0.9,8.));
#1208=CARTESIAN_POINT('',(-2.6,0.9,8.));
#1209=CARTESIAN_POINT('',(-2.6,0.9,8.));
#1210=CARTESIAN_POINT('',(-3.1,0.9,8.));
#1211=CARTESIAN_POINT('',(-3.1,0.9,8.));
#1212=CARTESIAN_POINT('',(-3.1,2.15638586528478,8.));
#1213=CARTESIAN_POINT('',(-3.1,1.4,8.));
#1214=CARTESIAN_POINT('',(-3.1,2.15638586528478,0.));
#1215=CARTESIAN_POINT('',(-3.1,2.15638586528478,0.));
#1216=CARTESIAN_POINT('',(-3.1,0.9,0.));
#1217=CARTESIAN_POINT('',(-3.1,1.4,0.));
#1218=CARTESIAN_POINT('',(-3.1,1.4,8.));
#1219=CARTESIAN_POINT('',(-4.,0.,8.));
#1220=CARTESIAN_POINT('',(-4.,0.,0.));
#1221=CARTESIAN_POINT('',(-4.83478260869565,2.25014177247108,0.));
#1222=CARTESIAN_POINT('',(-3.16521739130435,2.25014177247108,0.));
#1223=CARTESIAN_POINT('',(-3.16521739130435,2.25014177247108,8.));
#1224=CARTESIAN_POINT('',(-3.16521739130435,2.25014177247108,8.));
#1225=CARTESIAN_POINT('',(-4.,0.,8.));
#1226=CARTESIAN_POINT('',(-4.83478260869565,2.25014177247108,8.));
#1227=CARTESIAN_POINT('',(-4.83478260869565,2.25014177247108,8.));
#1228=CARTESIAN_POINT('',(-4.9,2.2248595461287,8.));
#1229=CARTESIAN_POINT('',(-4.9,2.2248595461287,0.));
#1230=CARTESIAN_POINT('',(-4.9,1.4,0.));
#1231=CARTESIAN_POINT('',(-4.9,2.15638586528478,0.));
#1232=CARTESIAN_POINT('',(-4.9,2.15638586528478,8.));
#1233=CARTESIAN_POINT('',(-4.9,2.15638586528478,8.));
#1234=CARTESIAN_POINT('',(-4.9,2.2248595461287,8.));
#1235=CARTESIAN_POINT('',(-4.9,1.4,8.));
#1236=CARTESIAN_POINT('',(-4.9,1.4,8.));
#1237=CARTESIAN_POINT('',(-6.2248595461287,0.9,8.));
#1238=CARTESIAN_POINT('',(-6.2248595461287,0.9,8.));
#1239=CARTESIAN_POINT('',(-6.15638586528478,0.9,8.));
#1240=CARTESIAN_POINT('',(-5.4,0.9,8.));
#1241=CARTESIAN_POINT('',(-6.15638586528478,0.9,0.));
#1242=CARTESIAN_POINT('',(-6.15638586528478,0.9,0.));
#1243=CARTESIAN_POINT('',(-6.2248595461287,0.9,0.));
#1244=CARTESIAN_POINT('',(-5.4,0.9,0.));
#1245=CARTESIAN_POINT('',(-5.4,0.9,8.));
#1246=CARTESIAN_POINT('',(-4.,0.,8.));
#1247=CARTESIAN_POINT('',(-4.,0.,8.));
#1248=CARTESIAN_POINT('',(-6.25014177247108,-0.834782608695651,8.));
#1249=CARTESIAN_POINT('',(-6.25014177247108,0.834782608695652,8.));
#1250=CARTESIAN_POINT('',(-6.25014177247108,-0.834782608695652,8.));
#1251=CARTESIAN_POINT('',(-6.25014177247108,-0.834782608695651,0.));
#1252=CARTESIAN_POINT('',(-4.,0.,0.));
#1253=CARTESIAN_POINT('',(-6.25014177247108,0.834782608695652,0.));
#1254=CARTESIAN_POINT('',(-6.25014177247108,0.834782608695652,8.));
#1255=CARTESIAN_POINT('',(-4.9,-0.899999999999999,8.));
#1256=CARTESIAN_POINT('',(-4.9,-0.899999999999999,0.));
#1257=CARTESIAN_POINT('',(-5.4,-0.9,0.));
#1258=CARTESIAN_POINT('',(-6.15638586528478,-0.9,0.));
#1259=CARTESIAN_POINT('',(-6.15638586528478,-0.9,8.));
#1260=CARTESIAN_POINT('',(-6.15638586528478,-0.9,8.));
#1261=CARTESIAN_POINT('',(-4.9,-0.899999999999999,8.));
#1262=CARTESIAN_POINT('',(-5.4,-0.9,8.));
#1263=CARTESIAN_POINT('',(-5.4,-0.9,8.));
#1264=CARTESIAN_POINT('',(-4.9,-0.899999999999999,8.));
#1265=CARTESIAN_POINT('',(-4.9,-0.899999999999999,8.));
#1266=CARTESIAN_POINT('',(-4.9,-2.15638586528478,8.));
#1267=CARTESIAN_POINT('',(-4.9,-1.4,8.));
#1268=CARTESIAN_POINT('',(-4.9,-2.15638586528478,0.));
#1269=CARTESIAN_POINT('',(-4.9,-2.15638586528478,0.));
#1270=CARTESIAN_POINT('',(-4.9,-0.899999999999999,0.));
#1271=CARTESIAN_POINT('',(-4.9,-1.4,0.));
#1272=CARTESIAN_POINT('',(-4.9,-1.4,8.));
#1273=CARTESIAN_POINT('',(-4.,0.,8.));
#1274=CARTESIAN_POINT('',(-4.,0.,0.));
#1275=CARTESIAN_POINT('',(-3.16521739130435,-2.25014177247108,0.));
#1276=CARTESIAN_POINT('',(-4.83478260869565,-2.25014177247108,0.));
#1277=CARTESIAN_POINT('',(-4.83478260869565,-2.25014177247108,8.));
#1278=CARTESIAN_POINT('',(-4.83478260869565,-2.25014177247108,8.));
#1279=CARTESIAN_POINT('',(-4.,0.,8.));
#1280=CARTESIAN_POINT('',(-3.16521739130435,-2.25014177247108,8.));
#1281=CARTESIAN_POINT('',(-3.16521739130435,-2.25014177247108,8.));
#1282=CARTESIAN_POINT('',(-3.1,-2.2248595461287,8.));
#1283=CARTESIAN_POINT('',(-3.1,-2.2248595461287,0.));
#1284=CARTESIAN_POINT('',(-3.1,-1.4,0.));
#1285=CARTESIAN_POINT('',(-3.1,-2.15638586528478,0.));
#1286=CARTESIAN_POINT('',(-3.1,-2.15638586528478,8.));
#1287=CARTESIAN_POINT('',(-3.1,-2.15638586528478,8.));
#1288=CARTESIAN_POINT('',(-3.1,-2.2248595461287,8.));
#1289=CARTESIAN_POINT('',(-3.1,-1.4,8.));
#1290=CARTESIAN_POINT('',(-3.1,-1.4,8.));
#1291=CARTESIAN_POINT('',(-0.514314988413324,-0.899999999999999,8.));
#1292=CARTESIAN_POINT('',(-0.514314988413324,-0.899999999999999,8.));
#1293=CARTESIAN_POINT('',(-1.23413666281213,-0.899999999999999,8.));
#1294=CARTESIAN_POINT('',(-2.6,-0.899999999999999,8.));
#1295=CARTESIAN_POINT('',(-1.23413666281213,-0.899999999999999,8.));
#1296=CARTESIAN_POINT('',(-1.23413666281213,-0.899999999999999,0.));
#1297=CARTESIAN_POINT('',(-0.514314988413324,-0.899999999999999,0.));
#1298=CARTESIAN_POINT('',(-2.6,-0.899999999999999,0.));
#1299=CARTESIAN_POINT('',(-2.6,-0.899999999999999,8.));
#1300=CARTESIAN_POINT('',(-4.,0.,8.));
#1301=CARTESIAN_POINT('',(-4.,0.,0.));
#1302=CARTESIAN_POINT('',(-1.01980361490158,-2.01951219512195,0.));
#1303=CARTESIAN_POINT('',(-0.788029672943122,-1.6258064516129,0.));
#1304=CARTESIAN_POINT('',(-0.788029672943122,-1.6258064516129,8.));
#1305=CARTESIAN_POINT('',(-0.788029672943122,-1.6258064516129,8.));
#1306=CARTESIAN_POINT('',(-4.,0.,8.));
#1307=CARTESIAN_POINT('',(-1.01980361490158,-2.01951219512195,8.));
#1308=CARTESIAN_POINT('',(-1.01980361490158,-2.01951219512195,8.));
#1309=CARTESIAN_POINT('',(-1.73725830020305,-2.8,8.));
#1310=CARTESIAN_POINT('',(-1.73725830020305,-2.8,0.));
#1311=CARTESIAN_POINT('',(0.605887450304573,-2.8,0.));
#1312=CARTESIAN_POINT('',(-0.605887450304574,-2.8,0.));
#1313=CARTESIAN_POINT('',(-0.605887450304574,-2.8,8.));
#1314=CARTESIAN_POINT('',(-0.605887450304574,-2.8,8.));
#1315=CARTESIAN_POINT('',(-1.73725830020305,-2.8,8.));
#1316=CARTESIAN_POINT('',(0.605887450304573,-2.8,8.));
#1317=CARTESIAN_POINT('',(0.605887450304573,-2.8,0.));
#1318=CARTESIAN_POINT('',(4.,0.,8.));
#1319=CARTESIAN_POINT('',(4.,0.,8.));
#1320=CARTESIAN_POINT('',(1.01980361490157,2.01951219512195,8.));
#1321=CARTESIAN_POINT('',(1.01980361490158,-2.01951219512195,8.));
#1322=CARTESIAN_POINT('',(1.01980361490157,2.01951219512195,8.));
#1323=CARTESIAN_POINT('',(1.01980361490157,2.01951219512195,0.));
#1324=CARTESIAN_POINT('',(4.,0.,0.));
#1325=CARTESIAN_POINT('',(1.01980361490158,-2.01951219512195,0.));
#1326=CARTESIAN_POINT('',(1.01980361490158,-2.01951219512195,8.));
#1327=CARTESIAN_POINT('',(-1.73725830020305,2.8,8.));
#1328=CARTESIAN_POINT('',(-1.73725830020305,2.8,0.));
#1329=CARTESIAN_POINT('',(-0.605887450304572,2.8,0.));
#1330=CARTESIAN_POINT('',(0.605887450304571,2.8,0.));
#1331=CARTESIAN_POINT('',(0.605887450304571,2.8,8.));
#1332=CARTESIAN_POINT('',(0.605887450304571,2.8,8.));
#1333=CARTESIAN_POINT('',(-1.73725830020305,2.8,8.));
#1334=CARTESIAN_POINT('',(-0.605887450304572,2.8,8.));
#1335=CARTESIAN_POINT('',(-0.605887450304572,2.8,0.));
#1336=CARTESIAN_POINT('',(-4.,-3.6,8.));
#1337=CARTESIAN_POINT('',(-4.,-3.6,0.));
#1338=CARTESIAN_POINT('',(-4.,-3.6,8.));
#1339=CARTESIAN_POINT('',(-4.,0.,8.));
#1340=CARTESIAN_POINT('',(4.,0.,8.));
#1341=CARTESIAN_POINT('',(7.1,0.,8.));
#1342=CARTESIAN_POINT('',(-1.23413666281213,1.4,8.));
#1343=CARTESIAN_POINT('',(-0.605887450304572,2.3,8.));
#1344=CARTESIAN_POINT('',(0.605887450304571,2.3,8.));
#1345=CARTESIAN_POINT('',(0.605887450304573,-2.3,8.));
#1346=CARTESIAN_POINT('',(-0.605887450304574,-2.3,8.));
#1347=CARTESIAN_POINT('',(-1.23413666281213,-1.4,8.));
#1348=CARTESIAN_POINT('',(-2.6,-1.4,8.));
#1349=CARTESIAN_POINT('',(-3.2,-2.15638586528478,8.));
#1350=CARTESIAN_POINT('',(-4.8,-2.15638586528478,8.));
#1351=CARTESIAN_POINT('',(-5.4,-1.4,8.));
#1352=CARTESIAN_POINT('',(-6.15638586528478,-0.8,8.));
#1353=CARTESIAN_POINT('',(-6.15638586528478,0.8,8.));
#1354=CARTESIAN_POINT('',(-5.4,1.4,8.));
#1355=CARTESIAN_POINT('',(-4.8,2.15638586528478,8.));
#1356=CARTESIAN_POINT('',(-3.2,2.15638586528478,8.));
#1357=CARTESIAN_POINT('',(-2.6,1.4,8.));
#1358=CARTESIAN_POINT('',(-4.,0.,0.));
#1359=CARTESIAN_POINT('',(4.,0.,1.00830802041152E-15));
#1360=CARTESIAN_POINT('',(7.09999999999999,0.,0.));
#1361=CARTESIAN_POINT('',(-1.23413666281213,1.4,0.));
#1362=CARTESIAN_POINT('',(-2.6,1.4,0.));
#1363=CARTESIAN_POINT('',(-3.2,2.15638586528478,0.));
#1364=CARTESIAN_POINT('',(-4.8,2.15638586528478,0.));
#1365=CARTESIAN_POINT('',(-5.4,1.4,0.));
#1366=CARTESIAN_POINT('',(-6.15638586528478,0.8,0.));
#1367=CARTESIAN_POINT('',(-6.15638586528478,-0.8,0.));
#1368=CARTESIAN_POINT('',(-5.4,-1.4,0.));
#1369=CARTESIAN_POINT('',(-4.8,-2.15638586528478,0.));
#1370=CARTESIAN_POINT('',(-3.2,-2.15638586528478,0.));
#1371=CARTESIAN_POINT('',(-2.6,-1.4,0.));
#1372=CARTESIAN_POINT('',(-1.23413666281213,-1.4,0.));
#1373=CARTESIAN_POINT('',(-0.605887450304574,-2.3,0.));
#1374=CARTESIAN_POINT('',(0.605887450304573,-2.3,0.));
#1375=CARTESIAN_POINT('',(0.605887450304571,2.3,0.));
#1376=CARTESIAN_POINT('',(-0.605887450304572,2.3,0.));
#1377=CARTESIAN_POINT('',(-0.605887450304572,2.3,8.));
#1378=CARTESIAN_POINT('',(0.605887450304573,-2.3,8.));
#1379=CARTESIAN_POINT('',(-2.6,-1.4,8.));
#1380=CARTESIAN_POINT('',(-2.6,1.4,8.));
#1381=CARTESIAN_POINT('',(-5.4,1.4,8.));
#1382=CARTESIAN_POINT('',(-5.4,-1.4,8.));
#1383=CARTESIAN_POINT('',(-0.605887450304574,-2.3,8.));
#1384=CARTESIAN_POINT('',(-1.23413666281213,-1.4,8.));
#1385=CARTESIAN_POINT('',(0.605887450304571,2.3,8.));
#1386=CARTESIAN_POINT('',(-1.23413666281213,1.4,8.));
#1387=CARTESIAN_POINT('',(-4.8,2.15638586528478,8.));
#1388=CARTESIAN_POINT('',(-3.2,-2.15638586528478,8.));
#1389=CARTESIAN_POINT('',(-4.8,-2.15638586528478,8.));
#1390=CARTESIAN_POINT('',(-6.15638586528478,0.8,8.));
#1391=CARTESIAN_POINT('',(-6.15638586528478,-0.8,8.));
#1392=CARTESIAN_POINT('',(-3.2,2.15638586528478,8.));
#1393=CARTESIAN_POINT('',(4.,0.,0.));
#1394=CARTESIAN_POINT('',(4.,0.,0.799999999999997));
#1395=CARTESIAN_POINT('',(7.1,0.,0.799999999999996));
#1396=CARTESIAN_POINT('',(6.4,0.,0.799999999999996));
#1397=CARTESIAN_POINT('',(4.,0.,0.799999999999997));
#1398=CARTESIAN_POINT('',(6.4,0.,0.799999999999996));
#1399=CARTESIAN_POINT('',(4.,0.,0.));
#1400=CARTESIAN_POINT('',(4.,0.,7.2));
#1401=CARTESIAN_POINT('',(6.4,0.,7.2));
#1402=CARTESIAN_POINT('',(7.1,0.,7.2));
#1403=CARTESIAN_POINT('',(4.,0.,7.2));
#1404=CARTESIAN_POINT('',(7.1,0.,7.2));
#1405=CARTESIAN_POINT('',(4.,0.,0.));
#1406=MECHANICAL_DESIGN_GEOMETRIC_PRESENTATION_REPRESENTATION('',(#805),
#1407);
#1407=(
GEOMETRIC_REPRESENTATION_CONTEXT(3)
GLOBAL_UNCERTAINTY_ASSIGNED_CONTEXT((#1408))
GLOBAL_UNIT_ASSIGNED_CONTEXT((#1411,#1410,#1409))
REPRESENTATION_CONTEXT('Black_6006140_AVV','TOP_LEVEL_ASSEMBLY_PART')
);
#1408=UNCERTAINTY_MEASURE_WITH_UNIT(LENGTH_MEASURE(0.005),#1411,
'DISTANCE_ACCURACY_VALUE','Maximum Tolerance applied to model');
#1409=(
NAMED_UNIT(*)
SI_UNIT($,.STERADIAN.)
SOLID_ANGLE_UNIT()
);
#1410=(
NAMED_UNIT(*)
PLANE_ANGLE_UNIT()
SI_UNIT($,.RADIAN.)
);
#1411=(
LENGTH_UNIT()
NAMED_UNIT(*)
SI_UNIT(.MILLI.,.METRE.)
);
#1412=PRODUCT_DEFINITION_SHAPE('','',#1413);
#1413=PRODUCT_DEFINITION('','',#1415,#1414);
#1414=PRODUCT_DEFINITION_CONTEXT('',#1421,'design');
#1415=PRODUCT_DEFINITION_FORMATION_WITH_SPECIFIED_SOURCE('','',#1417,
 .NOT_KNOWN.);
#1416=PRODUCT_RELATED_PRODUCT_CATEGORY('','',(#1417));
#1417=PRODUCT('Black_6006140_AVV','Black_6006140_AVV',
'Black_6006140_AVV',(#1419));
#1418=PRODUCT_CATEGORY('','');
#1419=PRODUCT_CONTEXT('',#1421,'mechanical');
#1420=APPLICATION_PROTOCOL_DEFINITION('international standard',
'automotive_design',2010,#1421);
#1421=APPLICATION_CONTEXT(
'core data for automotive mechanical design processes');
ENDSEC;
END-ISO-10303-21;
