ISO-10303-21;
HEADER;
/* Generated by software containing ST-Developer
 * from STEP Tools, Inc. (www.steptools.com) 
 */
/* OPTION: strings as raw bytes, not using required /X/ escapes */

FILE_DESCRIPTION(
/* description */ ('Unknown'),
/* implementation_level */ '2;1');

FILE_NAME(
/* name */ 'ClGray_4211622_JCA',
/* time_stamp */ '2025-07-21T23:51:52+02:00',
/* author */ ('Unknown'),
/* organization */ ('Unknown'),
/* preprocessor_version */ 'ST-DEVELOPER v19.4',
/* originating_system */ 'Solid Edge',
/* authorisation */ 'Unknown');

FILE_SCHEMA (('AUTOMOTIVE_DESIGN {1 0 10303 214 3 1 1}'));
ENDSEC;

DATA;
#10=PROPERTY_DEFINITION_REPRESENTATION(#14,#12);
#11=PROPERTY_DEFINITION_REPRESENTATION(#15,#13);
#12=REPRESENTATION('',(#16),#1847);
#13=REPRESENTATION('',(#17),#1847);
#14=PROPERTY_DEFINITION('pmi validation property','',#1852);
#15=PROPERTY_DEFINITION('pmi validation property','',#1852);
#16=VALUE_REPRESENTATION_ITEM('number of annotations',COUNT_MEASURE(0.));
#17=VALUE_REPRESENTATION_ITEM('number of views',COUNT_MEASURE(0.));
#18=SHAPE_REPRESENTATION_RELATIONSHIP('','',#1067,#19);
#19=ADVANCED_BREP_SHAPE_REPRESENTATION('',(#1065),#1847);
#20=CONICAL_SURFACE('',#1104,3.1,1.39626340159546);
#21=CONICAL_SURFACE('',#1108,3.1,1.39626340159546);
#22=PLANE('',#1084);
#23=PLANE('',#1109);
#24=PLANE('',#1126);
#25=PLANE('',#1127);
#26=PLANE('',#1129);
#27=PLANE('',#1130);
#28=PLANE('',#1132);
#29=PLANE('',#1133);
#30=PLANE('',#1135);
#31=PLANE('',#1136);
#32=PLANE('',#1150);
#33=PLANE('',#1152);
#34=PLANE('',#1155);
#35=PLANE('',#1157);
#36=PLANE('',#1158);
#37=PLANE('',#1159);
#38=PLANE('',#1160);
#39=PLANE('',#1161);
#40=PLANE('',#1162);
#41=PLANE('',#1163);
#42=PLANE('',#1164);
#43=PLANE('',#1165);
#44=PLANE('',#1166);
#45=PLANE('',#1167);
#46=PLANE('',#1168);
#47=PLANE('',#1169);
#48=B_SPLINE_CURVE_WITH_KNOTS('',3,(#1499,#1500,#1501,#1502),
 .UNSPECIFIED.,.F.,.F.,(4,4),(0.000626269799468933,0.00125194294788157),
 .UNSPECIFIED.);
#49=B_SPLINE_CURVE_WITH_KNOTS('',3,(#1506,#1507,#1508,#1509),
 .UNSPECIFIED.,.F.,.F.,(4,4),(0.,0.000626269799468933),.UNSPECIFIED.);
#50=B_SPLINE_CURVE_WITH_KNOTS('',3,(#1513,#1514,#1515,#1516),
 .UNSPECIFIED.,.F.,.F.,(4,4),(0.000626269799469575,0.00125194294788157),
 .UNSPECIFIED.);
#51=B_SPLINE_CURVE_WITH_KNOTS('',3,(#1520,#1521,#1522,#1523),
 .UNSPECIFIED.,.F.,.F.,(4,4),(0.,0.000626269799469575),.UNSPECIFIED.);
#52=B_SPLINE_CURVE_WITH_KNOTS('',3,(#1581,#1582,#1583,#1584),
 .UNSPECIFIED.,.F.,.F.,(4,4),(0.000626269799469575,0.00125194294788158),
 .UNSPECIFIED.);
#53=B_SPLINE_CURVE_WITH_KNOTS('',3,(#1586,#1587,#1588,#1589),
 .UNSPECIFIED.,.F.,.F.,(4,4),(0.,0.000626269799469575),.UNSPECIFIED.);
#54=B_SPLINE_CURVE_WITH_KNOTS('',3,(#1593,#1594,#1595,#1596),
 .UNSPECIFIED.,.F.,.F.,(4,4),(0.000626269799468933,0.00125194294788158),
 .UNSPECIFIED.);
#55=B_SPLINE_CURVE_WITH_KNOTS('',3,(#1598,#1599,#1600,#1601),
 .UNSPECIFIED.,.F.,.F.,(4,4),(0.,0.000626269799468933),.UNSPECIFIED.);
#56=B_SPLINE_CURVE_WITH_KNOTS('',3,(#1605,#1606,#1607,#1608),
 .UNSPECIFIED.,.F.,.F.,(4,4),(2.16485759154729E-7,0.000908566195341647),
 .UNSPECIFIED.);
#57=B_SPLINE_CURVE_WITH_KNOTS('',3,(#1610,#1611,#1612,#1613),
 .UNSPECIFIED.,.F.,.F.,(4,4),(2.15788336884253E-7,0.000908565497919376),
 .UNSPECIFIED.);
#58=B_SPLINE_CURVE_WITH_KNOTS('',3,(#1615,#1616,#1617,#1618),
 .UNSPECIFIED.,.F.,.F.,(4,4),(2.82842712474779E-7,0.000720409188159135),
 .UNSPECIFIED.);
#59=B_SPLINE_CURVE_WITH_KNOTS('',3,(#1620,#1621,#1622,#1623),
 .UNSPECIFIED.,.F.,.F.,(4,4),(2.16485759154729E-7,0.000908566195341646),
 .UNSPECIFIED.);
#60=B_SPLINE_CURVE_WITH_KNOTS('',3,(#1624,#1625,#1626,#1627),
 .UNSPECIFIED.,.F.,.F.,(4,4),(2.15788336884253E-7,0.00090856549791937),
 .UNSPECIFIED.);
#61=B_SPLINE_CURVE_WITH_KNOTS('',3,(#1629,#1630,#1631,#1632),
 .UNSPECIFIED.,.F.,.F.,(4,4),(2.82842712474166E-7,0.000720409188159134),
 .UNSPECIFIED.);
#62=B_SPLINE_CURVE_WITH_KNOTS('',3,(#1634,#1635,#1636,#1637),
 .UNSPECIFIED.,.F.,.F.,(4,4),(2.16485759154729E-7,0.000908566195341646),
 .UNSPECIFIED.);
#63=B_SPLINE_CURVE_WITH_KNOTS('',3,(#1638,#1639,#1640,#1641),
 .UNSPECIFIED.,.F.,.F.,(4,4),(2.15788336884253E-7,0.000908565497919368),
 .UNSPECIFIED.);
#64=B_SPLINE_CURVE_WITH_KNOTS('',3,(#1643,#1644,#1645,#1646),
 .UNSPECIFIED.,.F.,.F.,(4,4),(2.82842712474779E-7,0.000720409188159134),
 .UNSPECIFIED.);
#65=B_SPLINE_CURVE_WITH_KNOTS('',3,(#1648,#1649,#1650,#1651),
 .UNSPECIFIED.,.F.,.F.,(4,4),(2.16485759154729E-7,0.000908566195341646),
 .UNSPECIFIED.);
#66=B_SPLINE_CURVE_WITH_KNOTS('',3,(#1652,#1653,#1654,#1655),
 .UNSPECIFIED.,.F.,.F.,(4,4),(2.15788336884253E-7,0.000908565497919375),
 .UNSPECIFIED.);
#67=B_SPLINE_CURVE_WITH_KNOTS('',3,(#1657,#1658,#1659,#1660),
 .UNSPECIFIED.,.F.,.F.,(4,4),(2.82842712474166E-7,0.000720409188159134),
 .UNSPECIFIED.);
#68=B_SPLINE_CURVE_WITH_KNOTS('',3,(#1737,#1738,#1739,#1740,#1741),
 .UNSPECIFIED.,.F.,.F.,(4,1,4),(0.,0.000626227329652796,0.00125245465930559),
 .UNSPECIFIED.);
#69=B_SPLINE_CURVE_WITH_KNOTS('',3,(#1746,#1747,#1748,#1749,#1750),
 .UNSPECIFIED.,.F.,.F.,(4,1,4),(0.,0.000626227329652795,0.00125245465930559),
 .UNSPECIFIED.);
#70=B_SPLINE_CURVE_WITH_KNOTS('',3,(#1771,#1772,#1773,#1774,#1775),
 .UNSPECIFIED.,.F.,.F.,(4,1,4),(0.,0.000626227329652796,0.00125245465930559),
 .UNSPECIFIED.);
#71=B_SPLINE_CURVE_WITH_KNOTS('',3,(#1780,#1781,#1782,#1783,#1784),
 .UNSPECIFIED.,.F.,.F.,(4,1,4),(0.,0.000626227329652796,0.00125245465930559),
 .UNSPECIFIED.);
#72=LINE('',#1463,#156);
#73=LINE('',#1467,#157);
#74=LINE('',#1472,#158);
#75=LINE('',#1476,#159);
#76=LINE('',#1481,#160);
#77=LINE('',#1485,#161);
#78=LINE('',#1490,#162);
#79=LINE('',#1494,#163);
#80=LINE('',#1496,#164);
#81=LINE('',#1511,#165);
#82=LINE('',#1525,#166);
#83=LINE('',#1534,#167);
#84=LINE('',#1538,#168);
#85=LINE('',#1546,#169);
#86=LINE('',#1550,#170);
#87=LINE('',#1558,#171);
#88=LINE('',#1562,#172);
#89=LINE('',#1570,#173);
#90=LINE('',#1591,#174);
#91=LINE('',#1603,#175);
#92=LINE('',#1662,#176);
#93=LINE('',#1664,#177);
#94=LINE('',#1666,#178);
#95=LINE('',#1668,#179);
#96=LINE('',#1669,#180);
#97=LINE('',#1671,#181);
#98=LINE('',#1673,#182);
#99=LINE('',#1674,#183);
#100=LINE('',#1676,#184);
#101=LINE('',#1678,#185);
#102=LINE('',#1679,#186);
#103=LINE('',#1681,#187);
#104=LINE('',#1682,#188);
#105=LINE('',#1687,#189);
#106=LINE('',#1695,#190);
#107=LINE('',#1699,#191);
#108=LINE('',#1707,#192);
#109=LINE('',#1711,#193);
#110=LINE('',#1719,#194);
#111=LINE('',#1723,#195);
#112=LINE('',#1731,#196);
#113=LINE('',#1732,#197);
#114=LINE('',#1734,#198);
#115=LINE('',#1735,#199);
#116=LINE('',#1744,#200);
#117=LINE('',#1752,#201);
#118=LINE('',#1753,#202);
#119=LINE('',#1754,#203);
#120=LINE('',#1756,#204);
#121=LINE('',#1757,#205);
#122=LINE('',#1759,#206);
#123=LINE('',#1760,#207);
#124=LINE('',#1762,#208);
#125=LINE('',#1763,#209);
#126=LINE('',#1765,#210);
#127=LINE('',#1766,#211);
#128=LINE('',#1768,#212);
#129=LINE('',#1769,#213);
#130=LINE('',#1778,#214);
#131=LINE('',#1786,#215);
#132=LINE('',#1787,#216);
#133=LINE('',#1788,#217);
#134=LINE('',#1790,#218);
#135=LINE('',#1791,#219);
#136=LINE('',#1793,#220);
#137=LINE('',#1794,#221);
#138=LINE('',#1796,#222);
#139=LINE('',#1797,#223);
#140=LINE('',#1811,#224);
#141=LINE('',#1812,#225);
#142=LINE('',#1814,#226);
#143=LINE('',#1816,#227);
#144=LINE('',#1819,#228);
#145=LINE('',#1820,#229);
#146=LINE('',#1822,#230);
#147=LINE('',#1824,#231);
#148=LINE('',#1827,#232);
#149=LINE('',#1828,#233);
#150=LINE('',#1832,#234);
#151=LINE('',#1833,#235);
#152=LINE('',#1837,#236);
#153=LINE('',#1838,#237);
#154=LINE('',#1842,#238);
#155=LINE('',#1844,#239);
#156=VECTOR('',#1176,1000.);
#157=VECTOR('',#1179,1000.);
#158=VECTOR('',#1184,1000.);
#159=VECTOR('',#1187,1000.);
#160=VECTOR('',#1192,1000.);
#161=VECTOR('',#1195,1000.);
#162=VECTOR('',#1200,1000.);
#163=VECTOR('',#1203,1000.);
#164=VECTOR('',#1206,1000.);
#165=VECTOR('',#1209,1000.);
#166=VECTOR('',#1214,1000.);
#167=VECTOR('',#1221,1000.);
#168=VECTOR('',#1224,1000.);
#169=VECTOR('',#1231,1000.);
#170=VECTOR('',#1234,1000.);
#171=VECTOR('',#1241,1000.);
#172=VECTOR('',#1244,1000.);
#173=VECTOR('',#1251,1000.);
#174=VECTOR('',#1266,1000.);
#175=VECTOR('',#1269,1000.);
#176=VECTOR('',#1274,1000.);
#177=VECTOR('',#1275,1000.);
#178=VECTOR('',#1276,1000.);
#179=VECTOR('',#1277,1000.);
#180=VECTOR('',#1278,1000.);
#181=VECTOR('',#1279,1000.);
#182=VECTOR('',#1280,1000.);
#183=VECTOR('',#1281,1000.);
#184=VECTOR('',#1282,1000.);
#185=VECTOR('',#1283,1000.);
#186=VECTOR('',#1284,1000.);
#187=VECTOR('',#1285,1000.);
#188=VECTOR('',#1286,1000.);
#189=VECTOR('',#1289,1000.);
#190=VECTOR('',#1296,1000.);
#191=VECTOR('',#1299,1000.);
#192=VECTOR('',#1306,1000.);
#193=VECTOR('',#1309,1000.);
#194=VECTOR('',#1316,1000.);
#195=VECTOR('',#1319,1000.);
#196=VECTOR('',#1328,1000.);
#197=VECTOR('',#1329,1000.);
#198=VECTOR('',#1332,1000.);
#199=VECTOR('',#1333,1000.);
#200=VECTOR('',#1336,1000.);
#201=VECTOR('',#1337,1000.);
#202=VECTOR('',#1338,1000.);
#203=VECTOR('',#1339,1000.);
#204=VECTOR('',#1342,1000.);
#205=VECTOR('',#1343,1000.);
#206=VECTOR('',#1346,1000.);
#207=VECTOR('',#1347,1000.);
#208=VECTOR('',#1350,1000.);
#209=VECTOR('',#1351,1000.);
#210=VECTOR('',#1354,1000.);
#211=VECTOR('',#1355,1000.);
#212=VECTOR('',#1358,1000.);
#213=VECTOR('',#1359,1000.);
#214=VECTOR('',#1362,1000.);
#215=VECTOR('',#1363,1000.);
#216=VECTOR('',#1364,1000.);
#217=VECTOR('',#1365,1000.);
#218=VECTOR('',#1368,1000.);
#219=VECTOR('',#1369,1000.);
#220=VECTOR('',#1372,1000.);
#221=VECTOR('',#1373,1000.);
#222=VECTOR('',#1376,1000.);
#223=VECTOR('',#1377,1000.);
#224=VECTOR('',#1404,1000.);
#225=VECTOR('',#1405,1000.);
#226=VECTOR('',#1408,1000.);
#227=VECTOR('',#1411,1000.);
#228=VECTOR('',#1416,1000.);
#229=VECTOR('',#1417,1000.);
#230=VECTOR('',#1420,1000.);
#231=VECTOR('',#1423,1000.);
#232=VECTOR('',#1428,1000.);
#233=VECTOR('',#1429,1000.);
#234=VECTOR('',#1436,1000.);
#235=VECTOR('',#1437,1000.);
#236=VECTOR('',#1444,1000.);
#237=VECTOR('',#1445,1000.);
#238=VECTOR('',#1452,1000.);
#239=VECTOR('',#1455,1000.);
#240=ORIENTED_EDGE('',*,*,#548,.F.);
#241=ORIENTED_EDGE('',*,*,#549,.T.);
#242=ORIENTED_EDGE('',*,*,#550,.T.);
#243=ORIENTED_EDGE('',*,*,#551,.F.);
#244=ORIENTED_EDGE('',*,*,#552,.F.);
#245=ORIENTED_EDGE('',*,*,#553,.T.);
#246=ORIENTED_EDGE('',*,*,#554,.T.);
#247=ORIENTED_EDGE('',*,*,#555,.F.);
#248=ORIENTED_EDGE('',*,*,#556,.F.);
#249=ORIENTED_EDGE('',*,*,#557,.T.);
#250=ORIENTED_EDGE('',*,*,#558,.T.);
#251=ORIENTED_EDGE('',*,*,#559,.F.);
#252=ORIENTED_EDGE('',*,*,#560,.F.);
#253=ORIENTED_EDGE('',*,*,#561,.T.);
#254=ORIENTED_EDGE('',*,*,#562,.T.);
#255=ORIENTED_EDGE('',*,*,#563,.F.);
#256=ORIENTED_EDGE('',*,*,#564,.F.);
#257=ORIENTED_EDGE('',*,*,#565,.F.);
#258=ORIENTED_EDGE('',*,*,#566,.T.);
#259=ORIENTED_EDGE('',*,*,#567,.F.);
#260=ORIENTED_EDGE('',*,*,#568,.F.);
#261=ORIENTED_EDGE('',*,*,#569,.F.);
#262=ORIENTED_EDGE('',*,*,#570,.F.);
#263=ORIENTED_EDGE('',*,*,#571,.F.);
#264=ORIENTED_EDGE('',*,*,#572,.T.);
#265=ORIENTED_EDGE('',*,*,#573,.T.);
#266=ORIENTED_EDGE('',*,*,#574,.T.);
#267=ORIENTED_EDGE('',*,*,#575,.T.);
#268=ORIENTED_EDGE('',*,*,#576,.T.);
#269=ORIENTED_EDGE('',*,*,#577,.T.);
#270=ORIENTED_EDGE('',*,*,#578,.T.);
#271=ORIENTED_EDGE('',*,*,#579,.T.);
#272=ORIENTED_EDGE('',*,*,#580,.T.);
#273=ORIENTED_EDGE('',*,*,#581,.T.);
#274=ORIENTED_EDGE('',*,*,#582,.T.);
#275=ORIENTED_EDGE('',*,*,#583,.T.);
#276=ORIENTED_EDGE('',*,*,#584,.T.);
#277=ORIENTED_EDGE('',*,*,#585,.T.);
#278=ORIENTED_EDGE('',*,*,#586,.T.);
#279=ORIENTED_EDGE('',*,*,#587,.T.);
#280=ORIENTED_EDGE('',*,*,#588,.T.);
#281=ORIENTED_EDGE('',*,*,#589,.T.);
#282=ORIENTED_EDGE('',*,*,#590,.T.);
#283=ORIENTED_EDGE('',*,*,#591,.T.);
#284=ORIENTED_EDGE('',*,*,#592,.T.);
#285=ORIENTED_EDGE('',*,*,#593,.T.);
#286=ORIENTED_EDGE('',*,*,#594,.T.);
#287=ORIENTED_EDGE('',*,*,#595,.T.);
#288=ORIENTED_EDGE('',*,*,#596,.T.);
#289=ORIENTED_EDGE('',*,*,#597,.T.);
#290=ORIENTED_EDGE('',*,*,#596,.F.);
#291=ORIENTED_EDGE('',*,*,#598,.T.);
#292=ORIENTED_EDGE('',*,*,#570,.T.);
#293=ORIENTED_EDGE('',*,*,#597,.F.);
#294=ORIENTED_EDGE('',*,*,#599,.F.);
#295=ORIENTED_EDGE('',*,*,#598,.F.);
#296=ORIENTED_EDGE('',*,*,#600,.F.);
#297=ORIENTED_EDGE('',*,*,#601,.F.);
#298=ORIENTED_EDGE('',*,*,#602,.F.);
#299=ORIENTED_EDGE('',*,*,#603,.T.);
#300=ORIENTED_EDGE('',*,*,#604,.F.);
#301=ORIENTED_EDGE('',*,*,#605,.F.);
#302=ORIENTED_EDGE('',*,*,#606,.F.);
#303=ORIENTED_EDGE('',*,*,#548,.T.);
#304=ORIENTED_EDGE('',*,*,#607,.F.);
#305=ORIENTED_EDGE('',*,*,#608,.F.);
#306=ORIENTED_EDGE('',*,*,#609,.F.);
#307=ORIENTED_EDGE('',*,*,#560,.T.);
#308=ORIENTED_EDGE('',*,*,#610,.F.);
#309=ORIENTED_EDGE('',*,*,#611,.F.);
#310=ORIENTED_EDGE('',*,*,#612,.F.);
#311=ORIENTED_EDGE('',*,*,#556,.T.);
#312=ORIENTED_EDGE('',*,*,#613,.F.);
#313=ORIENTED_EDGE('',*,*,#614,.F.);
#314=ORIENTED_EDGE('',*,*,#615,.F.);
#315=ORIENTED_EDGE('',*,*,#552,.T.);
#316=ORIENTED_EDGE('',*,*,#616,.F.);
#317=ORIENTED_EDGE('',*,*,#617,.F.);
#318=ORIENTED_EDGE('',*,*,#603,.F.);
#319=ORIENTED_EDGE('',*,*,#566,.F.);
#320=ORIENTED_EDGE('',*,*,#618,.F.);
#321=ORIENTED_EDGE('',*,*,#550,.F.);
#322=ORIENTED_EDGE('',*,*,#619,.F.);
#323=ORIENTED_EDGE('',*,*,#620,.F.);
#324=ORIENTED_EDGE('',*,*,#621,.F.);
#325=ORIENTED_EDGE('',*,*,#554,.F.);
#326=ORIENTED_EDGE('',*,*,#622,.F.);
#327=ORIENTED_EDGE('',*,*,#623,.F.);
#328=ORIENTED_EDGE('',*,*,#624,.F.);
#329=ORIENTED_EDGE('',*,*,#558,.F.);
#330=ORIENTED_EDGE('',*,*,#625,.F.);
#331=ORIENTED_EDGE('',*,*,#626,.F.);
#332=ORIENTED_EDGE('',*,*,#627,.F.);
#333=ORIENTED_EDGE('',*,*,#562,.F.);
#334=ORIENTED_EDGE('',*,*,#628,.F.);
#335=ORIENTED_EDGE('',*,*,#629,.F.);
#336=ORIENTED_EDGE('',*,*,#630,.F.);
#337=ORIENTED_EDGE('',*,*,#631,.T.);
#338=ORIENTED_EDGE('',*,*,#632,.F.);
#339=ORIENTED_EDGE('',*,*,#633,.T.);
#340=ORIENTED_EDGE('',*,*,#634,.F.);
#341=ORIENTED_EDGE('',*,*,#635,.T.);
#342=ORIENTED_EDGE('',*,*,#636,.F.);
#343=ORIENTED_EDGE('',*,*,#637,.T.);
#344=ORIENTED_EDGE('',*,*,#638,.F.);
#345=ORIENTED_EDGE('',*,*,#639,.T.);
#346=ORIENTED_EDGE('',*,*,#640,.F.);
#347=ORIENTED_EDGE('',*,*,#641,.T.);
#348=ORIENTED_EDGE('',*,*,#642,.F.);
#349=ORIENTED_EDGE('',*,*,#643,.T.);
#350=ORIENTED_EDGE('',*,*,#644,.F.);
#351=ORIENTED_EDGE('',*,*,#645,.T.);
#352=ORIENTED_EDGE('',*,*,#646,.F.);
#353=ORIENTED_EDGE('',*,*,#647,.T.);
#354=ORIENTED_EDGE('',*,*,#648,.F.);
#355=ORIENTED_EDGE('',*,*,#649,.T.);
#356=ORIENTED_EDGE('',*,*,#650,.F.);
#357=ORIENTED_EDGE('',*,*,#651,.T.);
#358=ORIENTED_EDGE('',*,*,#652,.F.);
#359=ORIENTED_EDGE('',*,*,#653,.T.);
#360=ORIENTED_EDGE('',*,*,#576,.F.);
#361=ORIENTED_EDGE('',*,*,#654,.T.);
#362=ORIENTED_EDGE('',*,*,#650,.T.);
#363=ORIENTED_EDGE('',*,*,#655,.T.);
#364=ORIENTED_EDGE('',*,*,#648,.T.);
#365=ORIENTED_EDGE('',*,*,#656,.T.);
#366=ORIENTED_EDGE('',*,*,#578,.F.);
#367=ORIENTED_EDGE('',*,*,#657,.T.);
#368=ORIENTED_EDGE('',*,*,#658,.F.);
#369=ORIENTED_EDGE('',*,*,#659,.F.);
#370=ORIENTED_EDGE('',*,*,#660,.F.);
#371=ORIENTED_EDGE('',*,*,#661,.F.);
#372=ORIENTED_EDGE('',*,*,#580,.F.);
#373=ORIENTED_EDGE('',*,*,#662,.T.);
#374=ORIENTED_EDGE('',*,*,#646,.T.);
#375=ORIENTED_EDGE('',*,*,#663,.T.);
#376=ORIENTED_EDGE('',*,*,#582,.F.);
#377=ORIENTED_EDGE('',*,*,#664,.T.);
#378=ORIENTED_EDGE('',*,*,#644,.T.);
#379=ORIENTED_EDGE('',*,*,#665,.T.);
#380=ORIENTED_EDGE('',*,*,#642,.T.);
#381=ORIENTED_EDGE('',*,*,#666,.T.);
#382=ORIENTED_EDGE('',*,*,#584,.F.);
#383=ORIENTED_EDGE('',*,*,#667,.T.);
#384=ORIENTED_EDGE('',*,*,#640,.T.);
#385=ORIENTED_EDGE('',*,*,#668,.T.);
#386=ORIENTED_EDGE('',*,*,#586,.F.);
#387=ORIENTED_EDGE('',*,*,#669,.T.);
#388=ORIENTED_EDGE('',*,*,#588,.F.);
#389=ORIENTED_EDGE('',*,*,#670,.T.);
#390=ORIENTED_EDGE('',*,*,#638,.T.);
#391=ORIENTED_EDGE('',*,*,#671,.T.);
#392=ORIENTED_EDGE('',*,*,#636,.T.);
#393=ORIENTED_EDGE('',*,*,#672,.T.);
#394=ORIENTED_EDGE('',*,*,#590,.F.);
#395=ORIENTED_EDGE('',*,*,#673,.T.);
#396=ORIENTED_EDGE('',*,*,#674,.F.);
#397=ORIENTED_EDGE('',*,*,#675,.F.);
#398=ORIENTED_EDGE('',*,*,#676,.F.);
#399=ORIENTED_EDGE('',*,*,#677,.F.);
#400=ORIENTED_EDGE('',*,*,#592,.F.);
#401=ORIENTED_EDGE('',*,*,#678,.T.);
#402=ORIENTED_EDGE('',*,*,#634,.T.);
#403=ORIENTED_EDGE('',*,*,#679,.T.);
#404=ORIENTED_EDGE('',*,*,#594,.F.);
#405=ORIENTED_EDGE('',*,*,#680,.T.);
#406=ORIENTED_EDGE('',*,*,#632,.T.);
#407=ORIENTED_EDGE('',*,*,#681,.T.);
#408=ORIENTED_EDGE('',*,*,#630,.T.);
#409=ORIENTED_EDGE('',*,*,#682,.T.);
#410=ORIENTED_EDGE('',*,*,#572,.F.);
#411=ORIENTED_EDGE('',*,*,#683,.T.);
#412=ORIENTED_EDGE('',*,*,#574,.F.);
#413=ORIENTED_EDGE('',*,*,#684,.T.);
#414=ORIENTED_EDGE('',*,*,#652,.T.);
#415=ORIENTED_EDGE('',*,*,#685,.T.);
#416=ORIENTED_EDGE('',*,*,#643,.F.);
#417=ORIENTED_EDGE('',*,*,#667,.F.);
#418=ORIENTED_EDGE('',*,*,#583,.F.);
#419=ORIENTED_EDGE('',*,*,#665,.F.);
#420=ORIENTED_EDGE('',*,*,#631,.F.);
#421=ORIENTED_EDGE('',*,*,#683,.F.);
#422=ORIENTED_EDGE('',*,*,#595,.F.);
#423=ORIENTED_EDGE('',*,*,#681,.F.);
#424=ORIENTED_EDGE('',*,*,#637,.F.);
#425=ORIENTED_EDGE('',*,*,#673,.F.);
#426=ORIENTED_EDGE('',*,*,#589,.F.);
#427=ORIENTED_EDGE('',*,*,#671,.F.);
#428=ORIENTED_EDGE('',*,*,#649,.F.);
#429=ORIENTED_EDGE('',*,*,#657,.F.);
#430=ORIENTED_EDGE('',*,*,#577,.F.);
#431=ORIENTED_EDGE('',*,*,#655,.F.);
#432=ORIENTED_EDGE('',*,*,#641,.F.);
#433=ORIENTED_EDGE('',*,*,#669,.F.);
#434=ORIENTED_EDGE('',*,*,#585,.F.);
#435=ORIENTED_EDGE('',*,*,#666,.F.);
#436=ORIENTED_EDGE('',*,*,#645,.F.);
#437=ORIENTED_EDGE('',*,*,#664,.F.);
#438=ORIENTED_EDGE('',*,*,#581,.F.);
#439=ORIENTED_EDGE('',*,*,#663,.F.);
#440=ORIENTED_EDGE('',*,*,#647,.F.);
#441=ORIENTED_EDGE('',*,*,#662,.F.);
#442=ORIENTED_EDGE('',*,*,#579,.F.);
#443=ORIENTED_EDGE('',*,*,#656,.F.);
#444=ORIENTED_EDGE('',*,*,#651,.F.);
#445=ORIENTED_EDGE('',*,*,#654,.F.);
#446=ORIENTED_EDGE('',*,*,#575,.F.);
#447=ORIENTED_EDGE('',*,*,#685,.F.);
#448=ORIENTED_EDGE('',*,*,#653,.F.);
#449=ORIENTED_EDGE('',*,*,#684,.F.);
#450=ORIENTED_EDGE('',*,*,#573,.F.);
#451=ORIENTED_EDGE('',*,*,#682,.F.);
#452=ORIENTED_EDGE('',*,*,#633,.F.);
#453=ORIENTED_EDGE('',*,*,#680,.F.);
#454=ORIENTED_EDGE('',*,*,#593,.F.);
#455=ORIENTED_EDGE('',*,*,#679,.F.);
#456=ORIENTED_EDGE('',*,*,#635,.F.);
#457=ORIENTED_EDGE('',*,*,#678,.F.);
#458=ORIENTED_EDGE('',*,*,#591,.F.);
#459=ORIENTED_EDGE('',*,*,#672,.F.);
#460=ORIENTED_EDGE('',*,*,#639,.F.);
#461=ORIENTED_EDGE('',*,*,#670,.F.);
#462=ORIENTED_EDGE('',*,*,#587,.F.);
#463=ORIENTED_EDGE('',*,*,#668,.F.);
#464=ORIENTED_EDGE('',*,*,#601,.T.);
#465=ORIENTED_EDGE('',*,*,#686,.F.);
#466=ORIENTED_EDGE('',*,*,#677,.T.);
#467=ORIENTED_EDGE('',*,*,#687,.T.);
#468=ORIENTED_EDGE('',*,*,#567,.T.);
#469=ORIENTED_EDGE('',*,*,#602,.T.);
#470=ORIENTED_EDGE('',*,*,#687,.F.);
#471=ORIENTED_EDGE('',*,*,#676,.T.);
#472=ORIENTED_EDGE('',*,*,#688,.T.);
#473=ORIENTED_EDGE('',*,*,#568,.T.);
#474=ORIENTED_EDGE('',*,*,#688,.F.);
#475=ORIENTED_EDGE('',*,*,#675,.T.);
#476=ORIENTED_EDGE('',*,*,#689,.T.);
#477=ORIENTED_EDGE('',*,*,#600,.T.);
#478=ORIENTED_EDGE('',*,*,#569,.T.);
#479=ORIENTED_EDGE('',*,*,#689,.F.);
#480=ORIENTED_EDGE('',*,*,#674,.T.);
#481=ORIENTED_EDGE('',*,*,#686,.T.);
#482=ORIENTED_EDGE('',*,*,#571,.T.);
#483=ORIENTED_EDGE('',*,*,#599,.T.);
#484=ORIENTED_EDGE('',*,*,#690,.T.);
#485=ORIENTED_EDGE('',*,*,#658,.T.);
#486=ORIENTED_EDGE('',*,*,#691,.F.);
#487=ORIENTED_EDGE('',*,*,#564,.T.);
#488=ORIENTED_EDGE('',*,*,#691,.T.);
#489=ORIENTED_EDGE('',*,*,#661,.T.);
#490=ORIENTED_EDGE('',*,*,#692,.F.);
#491=ORIENTED_EDGE('',*,*,#604,.T.);
#492=ORIENTED_EDGE('',*,*,#565,.T.);
#493=ORIENTED_EDGE('',*,*,#692,.T.);
#494=ORIENTED_EDGE('',*,*,#660,.T.);
#495=ORIENTED_EDGE('',*,*,#693,.F.);
#496=ORIENTED_EDGE('',*,*,#605,.T.);
#497=ORIENTED_EDGE('',*,*,#693,.T.);
#498=ORIENTED_EDGE('',*,*,#659,.T.);
#499=ORIENTED_EDGE('',*,*,#690,.F.);
#500=ORIENTED_EDGE('',*,*,#608,.T.);
#501=ORIENTED_EDGE('',*,*,#694,.T.);
#502=ORIENTED_EDGE('',*,*,#629,.T.);
#503=ORIENTED_EDGE('',*,*,#695,.F.);
#504=ORIENTED_EDGE('',*,*,#607,.T.);
#505=ORIENTED_EDGE('',*,*,#551,.T.);
#506=ORIENTED_EDGE('',*,*,#618,.T.);
#507=ORIENTED_EDGE('',*,*,#694,.F.);
#508=ORIENTED_EDGE('',*,*,#609,.T.);
#509=ORIENTED_EDGE('',*,*,#695,.T.);
#510=ORIENTED_EDGE('',*,*,#628,.T.);
#511=ORIENTED_EDGE('',*,*,#561,.F.);
#512=ORIENTED_EDGE('',*,*,#611,.T.);
#513=ORIENTED_EDGE('',*,*,#696,.T.);
#514=ORIENTED_EDGE('',*,*,#626,.T.);
#515=ORIENTED_EDGE('',*,*,#697,.F.);
#516=ORIENTED_EDGE('',*,*,#610,.T.);
#517=ORIENTED_EDGE('',*,*,#563,.T.);
#518=ORIENTED_EDGE('',*,*,#627,.T.);
#519=ORIENTED_EDGE('',*,*,#696,.F.);
#520=ORIENTED_EDGE('',*,*,#612,.T.);
#521=ORIENTED_EDGE('',*,*,#697,.T.);
#522=ORIENTED_EDGE('',*,*,#625,.T.);
#523=ORIENTED_EDGE('',*,*,#557,.F.);
#524=ORIENTED_EDGE('',*,*,#614,.T.);
#525=ORIENTED_EDGE('',*,*,#698,.T.);
#526=ORIENTED_EDGE('',*,*,#623,.T.);
#527=ORIENTED_EDGE('',*,*,#699,.F.);
#528=ORIENTED_EDGE('',*,*,#613,.T.);
#529=ORIENTED_EDGE('',*,*,#559,.T.);
#530=ORIENTED_EDGE('',*,*,#624,.T.);
#531=ORIENTED_EDGE('',*,*,#698,.F.);
#532=ORIENTED_EDGE('',*,*,#615,.T.);
#533=ORIENTED_EDGE('',*,*,#699,.T.);
#534=ORIENTED_EDGE('',*,*,#622,.T.);
#535=ORIENTED_EDGE('',*,*,#553,.F.);
#536=ORIENTED_EDGE('',*,*,#606,.T.);
#537=ORIENTED_EDGE('',*,*,#700,.T.);
#538=ORIENTED_EDGE('',*,*,#619,.T.);
#539=ORIENTED_EDGE('',*,*,#549,.F.);
#540=ORIENTED_EDGE('',*,*,#617,.T.);
#541=ORIENTED_EDGE('',*,*,#701,.T.);
#542=ORIENTED_EDGE('',*,*,#620,.T.);
#543=ORIENTED_EDGE('',*,*,#700,.F.);
#544=ORIENTED_EDGE('',*,*,#616,.T.);
#545=ORIENTED_EDGE('',*,*,#555,.T.);
#546=ORIENTED_EDGE('',*,*,#621,.T.);
#547=ORIENTED_EDGE('',*,*,#701,.F.);
#548=EDGE_CURVE('',#702,#703,#804,.T.);
#549=EDGE_CURVE('',#702,#704,#72,.T.);
#550=EDGE_CURVE('',#704,#705,#805,.T.);
#551=EDGE_CURVE('',#703,#705,#73,.T.);
#552=EDGE_CURVE('',#706,#707,#806,.T.);
#553=EDGE_CURVE('',#706,#708,#74,.T.);
#554=EDGE_CURVE('',#708,#709,#807,.T.);
#555=EDGE_CURVE('',#707,#709,#75,.T.);
#556=EDGE_CURVE('',#710,#711,#808,.T.);
#557=EDGE_CURVE('',#710,#712,#76,.T.);
#558=EDGE_CURVE('',#712,#713,#809,.T.);
#559=EDGE_CURVE('',#711,#713,#77,.T.);
#560=EDGE_CURVE('',#714,#715,#810,.T.);
#561=EDGE_CURVE('',#714,#716,#78,.T.);
#562=EDGE_CURVE('',#716,#717,#811,.T.);
#563=EDGE_CURVE('',#715,#717,#79,.T.);
#564=EDGE_CURVE('',#718,#719,#80,.T.);
#565=EDGE_CURVE('',#720,#718,#48,.T.);
#566=EDGE_CURVE('',#720,#721,#812,.T.);
#567=EDGE_CURVE('',#722,#721,#49,.T.);
#568=EDGE_CURVE('',#723,#722,#81,.F.);
#569=EDGE_CURVE('',#724,#723,#50,.T.);
#570=EDGE_CURVE('',#725,#724,#813,.T.);
#571=EDGE_CURVE('',#719,#725,#51,.T.);
#572=EDGE_CURVE('',#726,#727,#82,.T.);
#573=EDGE_CURVE('',#727,#728,#814,.F.);
#574=EDGE_CURVE('',#728,#729,#815,.T.);
#575=EDGE_CURVE('',#729,#730,#816,.F.);
#576=EDGE_CURVE('',#730,#731,#83,.T.);
#577=EDGE_CURVE('',#731,#732,#817,.T.);
#578=EDGE_CURVE('',#732,#733,#84,.T.);
#579=EDGE_CURVE('',#733,#734,#818,.F.);
#580=EDGE_CURVE('',#734,#735,#819,.T.);
#581=EDGE_CURVE('',#735,#736,#820,.F.);
#582=EDGE_CURVE('',#736,#737,#85,.T.);
#583=EDGE_CURVE('',#737,#738,#821,.T.);
#584=EDGE_CURVE('',#738,#739,#86,.T.);
#585=EDGE_CURVE('',#739,#740,#822,.F.);
#586=EDGE_CURVE('',#740,#741,#823,.T.);
#587=EDGE_CURVE('',#741,#742,#824,.F.);
#588=EDGE_CURVE('',#742,#743,#87,.T.);
#589=EDGE_CURVE('',#743,#744,#825,.T.);
#590=EDGE_CURVE('',#744,#745,#88,.T.);
#591=EDGE_CURVE('',#745,#746,#826,.F.);
#592=EDGE_CURVE('',#746,#747,#827,.T.);
#593=EDGE_CURVE('',#747,#748,#828,.F.);
#594=EDGE_CURVE('',#748,#749,#89,.T.);
#595=EDGE_CURVE('',#749,#726,#829,.T.);
#596=EDGE_CURVE('',#750,#750,#830,.T.);
#597=EDGE_CURVE('',#751,#751,#831,.T.);
#598=EDGE_CURVE('',#724,#725,#832,.T.);
#599=EDGE_CURVE('',#725,#752,#52,.T.);
#600=EDGE_CURVE('',#753,#724,#53,.T.);
#601=EDGE_CURVE('',#754,#753,#90,.T.);
#602=EDGE_CURVE('',#721,#754,#54,.T.);
#603=EDGE_CURVE('',#721,#720,#833,.T.);
#604=EDGE_CURVE('',#755,#720,#55,.T.);
#605=EDGE_CURVE('',#752,#755,#91,.F.);
#606=EDGE_CURVE('',#702,#756,#56,.T.);
#607=EDGE_CURVE('',#757,#703,#57,.T.);
#608=EDGE_CURVE('',#758,#757,#58,.T.);
#609=EDGE_CURVE('',#714,#758,#59,.T.);
#610=EDGE_CURVE('',#759,#715,#60,.T.);
#611=EDGE_CURVE('',#760,#759,#61,.T.);
#612=EDGE_CURVE('',#710,#760,#62,.T.);
#613=EDGE_CURVE('',#761,#711,#63,.T.);
#614=EDGE_CURVE('',#762,#761,#64,.T.);
#615=EDGE_CURVE('',#706,#762,#65,.T.);
#616=EDGE_CURVE('',#763,#707,#66,.T.);
#617=EDGE_CURVE('',#756,#763,#67,.T.);
#618=EDGE_CURVE('',#705,#764,#92,.T.);
#619=EDGE_CURVE('',#765,#704,#93,.T.);
#620=EDGE_CURVE('',#766,#765,#94,.T.);
#621=EDGE_CURVE('',#709,#766,#95,.T.);
#622=EDGE_CURVE('',#767,#708,#96,.T.);
#623=EDGE_CURVE('',#768,#767,#97,.T.);
#624=EDGE_CURVE('',#713,#768,#98,.T.);
#625=EDGE_CURVE('',#769,#712,#99,.T.);
#626=EDGE_CURVE('',#770,#769,#100,.T.);
#627=EDGE_CURVE('',#717,#770,#101,.T.);
#628=EDGE_CURVE('',#771,#716,#102,.T.);
#629=EDGE_CURVE('',#764,#771,#103,.T.);
#630=EDGE_CURVE('',#772,#773,#104,.T.);
#631=EDGE_CURVE('',#772,#774,#834,.T.);
#632=EDGE_CURVE('',#775,#774,#105,.T.);
#633=EDGE_CURVE('',#775,#776,#835,.F.);
#634=EDGE_CURVE('',#777,#776,#836,.T.);
#635=EDGE_CURVE('',#777,#778,#837,.F.);
#636=EDGE_CURVE('',#779,#778,#106,.T.);
#637=EDGE_CURVE('',#779,#780,#838,.T.);
#638=EDGE_CURVE('',#781,#780,#107,.T.);
#639=EDGE_CURVE('',#781,#782,#839,.F.);
#640=EDGE_CURVE('',#783,#782,#840,.T.);
#641=EDGE_CURVE('',#783,#784,#841,.F.);
#642=EDGE_CURVE('',#785,#784,#108,.T.);
#643=EDGE_CURVE('',#785,#786,#842,.T.);
#644=EDGE_CURVE('',#787,#786,#109,.T.);
#645=EDGE_CURVE('',#787,#788,#843,.F.);
#646=EDGE_CURVE('',#789,#788,#844,.T.);
#647=EDGE_CURVE('',#789,#790,#845,.F.);
#648=EDGE_CURVE('',#791,#790,#110,.T.);
#649=EDGE_CURVE('',#791,#792,#846,.T.);
#650=EDGE_CURVE('',#793,#792,#111,.T.);
#651=EDGE_CURVE('',#793,#794,#847,.F.);
#652=EDGE_CURVE('',#795,#794,#848,.T.);
#653=EDGE_CURVE('',#795,#773,#849,.F.);
#654=EDGE_CURVE('',#730,#793,#112,.T.);
#655=EDGE_CURVE('',#792,#731,#113,.T.);
#656=EDGE_CURVE('',#790,#733,#114,.F.);
#657=EDGE_CURVE('',#732,#791,#115,.F.);
#658=EDGE_CURVE('',#796,#797,#68,.T.);
#659=EDGE_CURVE('',#798,#796,#116,.T.);
#660=EDGE_CURVE('',#799,#798,#69,.T.);
#661=EDGE_CURVE('',#797,#799,#117,.F.);
#662=EDGE_CURVE('',#734,#789,#118,.F.);
#663=EDGE_CURVE('',#788,#735,#119,.T.);
#664=EDGE_CURVE('',#736,#787,#120,.T.);
#665=EDGE_CURVE('',#786,#737,#121,.T.);
#666=EDGE_CURVE('',#784,#739,#122,.F.);
#667=EDGE_CURVE('',#738,#785,#123,.F.);
#668=EDGE_CURVE('',#782,#741,#124,.T.);
#669=EDGE_CURVE('',#740,#783,#125,.F.);
#670=EDGE_CURVE('',#742,#781,#126,.T.);
#671=EDGE_CURVE('',#780,#743,#127,.T.);
#672=EDGE_CURVE('',#778,#745,#128,.F.);
#673=EDGE_CURVE('',#744,#779,#129,.F.);
#674=EDGE_CURVE('',#800,#801,#70,.T.);
#675=EDGE_CURVE('',#802,#800,#130,.T.);
#676=EDGE_CURVE('',#803,#802,#71,.T.);
#677=EDGE_CURVE('',#801,#803,#131,.F.);
#678=EDGE_CURVE('',#746,#777,#132,.F.);
#679=EDGE_CURVE('',#776,#747,#133,.T.);
#680=EDGE_CURVE('',#748,#775,#134,.T.);
#681=EDGE_CURVE('',#774,#749,#135,.T.);
#682=EDGE_CURVE('',#773,#727,#136,.F.);
#683=EDGE_CURVE('',#726,#772,#137,.F.);
#684=EDGE_CURVE('',#728,#795,#138,.F.);
#685=EDGE_CURVE('',#794,#729,#139,.T.);
#686=EDGE_CURVE('',#801,#753,#140,.T.);
#687=EDGE_CURVE('',#803,#754,#141,.T.);
#688=EDGE_CURVE('',#802,#722,#142,.T.);
#689=EDGE_CURVE('',#800,#723,#143,.T.);
#690=EDGE_CURVE('',#752,#796,#144,.T.);
#691=EDGE_CURVE('',#719,#797,#145,.T.);
#692=EDGE_CURVE('',#718,#799,#146,.T.);
#693=EDGE_CURVE('',#755,#798,#147,.T.);
#694=EDGE_CURVE('',#757,#764,#148,.T.);
#695=EDGE_CURVE('',#758,#771,#149,.T.);
#696=EDGE_CURVE('',#759,#770,#150,.T.);
#697=EDGE_CURVE('',#760,#769,#151,.T.);
#698=EDGE_CURVE('',#761,#768,#152,.T.);
#699=EDGE_CURVE('',#762,#767,#153,.T.);
#700=EDGE_CURVE('',#756,#765,#154,.T.);
#701=EDGE_CURVE('',#763,#766,#155,.T.);
#702=VERTEX_POINT('',#1461);
#703=VERTEX_POINT('',#1462);
#704=VERTEX_POINT('',#1464);
#705=VERTEX_POINT('',#1466);
#706=VERTEX_POINT('',#1470);
#707=VERTEX_POINT('',#1471);
#708=VERTEX_POINT('',#1473);
#709=VERTEX_POINT('',#1475);
#710=VERTEX_POINT('',#1479);
#711=VERTEX_POINT('',#1480);
#712=VERTEX_POINT('',#1482);
#713=VERTEX_POINT('',#1484);
#714=VERTEX_POINT('',#1488);
#715=VERTEX_POINT('',#1489);
#716=VERTEX_POINT('',#1491);
#717=VERTEX_POINT('',#1493);
#718=VERTEX_POINT('',#1497);
#719=VERTEX_POINT('',#1498);
#720=VERTEX_POINT('',#1503);
#721=VERTEX_POINT('',#1505);
#722=VERTEX_POINT('',#1510);
#723=VERTEX_POINT('',#1512);
#724=VERTEX_POINT('',#1517);
#725=VERTEX_POINT('',#1519);
#726=VERTEX_POINT('',#1526);
#727=VERTEX_POINT('',#1527);
#728=VERTEX_POINT('',#1529);
#729=VERTEX_POINT('',#1531);
#730=VERTEX_POINT('',#1533);
#731=VERTEX_POINT('',#1535);
#732=VERTEX_POINT('',#1537);
#733=VERTEX_POINT('',#1539);
#734=VERTEX_POINT('',#1541);
#735=VERTEX_POINT('',#1543);
#736=VERTEX_POINT('',#1545);
#737=VERTEX_POINT('',#1547);
#738=VERTEX_POINT('',#1549);
#739=VERTEX_POINT('',#1551);
#740=VERTEX_POINT('',#1553);
#741=VERTEX_POINT('',#1555);
#742=VERTEX_POINT('',#1557);
#743=VERTEX_POINT('',#1559);
#744=VERTEX_POINT('',#1561);
#745=VERTEX_POINT('',#1563);
#746=VERTEX_POINT('',#1565);
#747=VERTEX_POINT('',#1567);
#748=VERTEX_POINT('',#1569);
#749=VERTEX_POINT('',#1571);
#750=VERTEX_POINT('',#1574);
#751=VERTEX_POINT('',#1577);
#752=VERTEX_POINT('',#1585);
#753=VERTEX_POINT('',#1590);
#754=VERTEX_POINT('',#1592);
#755=VERTEX_POINT('',#1602);
#756=VERTEX_POINT('',#1609);
#757=VERTEX_POINT('',#1614);
#758=VERTEX_POINT('',#1619);
#759=VERTEX_POINT('',#1628);
#760=VERTEX_POINT('',#1633);
#761=VERTEX_POINT('',#1642);
#762=VERTEX_POINT('',#1647);
#763=VERTEX_POINT('',#1656);
#764=VERTEX_POINT('',#1663);
#765=VERTEX_POINT('',#1665);
#766=VERTEX_POINT('',#1667);
#767=VERTEX_POINT('',#1670);
#768=VERTEX_POINT('',#1672);
#769=VERTEX_POINT('',#1675);
#770=VERTEX_POINT('',#1677);
#771=VERTEX_POINT('',#1680);
#772=VERTEX_POINT('',#1683);
#773=VERTEX_POINT('',#1684);
#774=VERTEX_POINT('',#1686);
#775=VERTEX_POINT('',#1688);
#776=VERTEX_POINT('',#1690);
#777=VERTEX_POINT('',#1692);
#778=VERTEX_POINT('',#1694);
#779=VERTEX_POINT('',#1696);
#780=VERTEX_POINT('',#1698);
#781=VERTEX_POINT('',#1700);
#782=VERTEX_POINT('',#1702);
#783=VERTEX_POINT('',#1704);
#784=VERTEX_POINT('',#1706);
#785=VERTEX_POINT('',#1708);
#786=VERTEX_POINT('',#1710);
#787=VERTEX_POINT('',#1712);
#788=VERTEX_POINT('',#1714);
#789=VERTEX_POINT('',#1716);
#790=VERTEX_POINT('',#1718);
#791=VERTEX_POINT('',#1720);
#792=VERTEX_POINT('',#1722);
#793=VERTEX_POINT('',#1724);
#794=VERTEX_POINT('',#1726);
#795=VERTEX_POINT('',#1728);
#796=VERTEX_POINT('',#1742);
#797=VERTEX_POINT('',#1743);
#798=VERTEX_POINT('',#1745);
#799=VERTEX_POINT('',#1751);
#800=VERTEX_POINT('',#1776);
#801=VERTEX_POINT('',#1777);
#802=VERTEX_POINT('',#1779);
#803=VERTEX_POINT('',#1785);
#804=CIRCLE('',#1070,3.6);
#805=CIRCLE('',#1071,3.6);
#806=CIRCLE('',#1073,3.6);
#807=CIRCLE('',#1074,3.6);
#808=CIRCLE('',#1076,3.6);
#809=CIRCLE('',#1077,3.6);
#810=CIRCLE('',#1079,3.6);
#811=CIRCLE('',#1080,3.6);
#812=CIRCLE('',#1082,2.75);
#813=CIRCLE('',#1083,2.75);
#814=CIRCLE('',#1085,0.1);
#815=CIRCLE('',#1086,2.4);
#816=CIRCLE('',#1087,0.1);
#817=CIRCLE('',#1088,0.5);
#818=CIRCLE('',#1089,0.1);
#819=CIRCLE('',#1090,2.4);
#820=CIRCLE('',#1091,0.1);
#821=CIRCLE('',#1092,0.5);
#822=CIRCLE('',#1093,0.1);
#823=CIRCLE('',#1094,2.4);
#824=CIRCLE('',#1095,0.1);
#825=CIRCLE('',#1096,0.5);
#826=CIRCLE('',#1097,0.1);
#827=CIRCLE('',#1098,2.4);
#828=CIRCLE('',#1099,0.1);
#829=CIRCLE('',#1100,0.5);
#830=CIRCLE('',#1101,3.6);
#831=CIRCLE('',#1103,3.6);
#832=CIRCLE('',#1105,2.75);
#833=CIRCLE('',#1107,2.75);
#834=CIRCLE('',#1110,0.5);
#835=CIRCLE('',#1111,0.1);
#836=CIRCLE('',#1112,2.4);
#837=CIRCLE('',#1113,0.1);
#838=CIRCLE('',#1114,0.5);
#839=CIRCLE('',#1115,0.1);
#840=CIRCLE('',#1116,2.4);
#841=CIRCLE('',#1117,0.1);
#842=CIRCLE('',#1118,0.5);
#843=CIRCLE('',#1119,0.1);
#844=CIRCLE('',#1120,2.4);
#845=CIRCLE('',#1121,0.1);
#846=CIRCLE('',#1122,0.5);
#847=CIRCLE('',#1123,0.1);
#848=CIRCLE('',#1124,2.4);
#849=CIRCLE('',#1125,0.1);
#850=EDGE_LOOP('',(#240,#241,#242,#243));
#851=EDGE_LOOP('',(#244,#245,#246,#247));
#852=EDGE_LOOP('',(#248,#249,#250,#251));
#853=EDGE_LOOP('',(#252,#253,#254,#255));
#854=EDGE_LOOP('',(#256,#257,#258,#259,#260,#261,#262,#263));
#855=EDGE_LOOP('',(#264,#265,#266,#267,#268,#269,#270,#271,#272,#273,#274,
#275,#276,#277,#278,#279,#280,#281,#282,#283,#284,#285,#286,#287));
#856=EDGE_LOOP('',(#288));
#857=EDGE_LOOP('',(#289));
#858=EDGE_LOOP('',(#290));
#859=EDGE_LOOP('',(#291,#292));
#860=EDGE_LOOP('',(#293));
#861=EDGE_LOOP('',(#294,#295,#296,#297,#298,#299,#300,#301));
#862=EDGE_LOOP('',(#302,#303,#304,#305,#306,#307,#308,#309,#310,#311,#312,
#313,#314,#315,#316,#317));
#863=EDGE_LOOP('',(#318,#319));
#864=EDGE_LOOP('',(#320,#321,#322,#323,#324,#325,#326,#327,#328,#329,#330,
#331,#332,#333,#334,#335));
#865=EDGE_LOOP('',(#336,#337,#338,#339,#340,#341,#342,#343,#344,#345,#346,
#347,#348,#349,#350,#351,#352,#353,#354,#355,#356,#357,#358,#359));
#866=EDGE_LOOP('',(#360,#361,#362,#363));
#867=EDGE_LOOP('',(#364,#365,#366,#367));
#868=EDGE_LOOP('',(#368,#369,#370,#371));
#869=EDGE_LOOP('',(#372,#373,#374,#375));
#870=EDGE_LOOP('',(#376,#377,#378,#379));
#871=EDGE_LOOP('',(#380,#381,#382,#383));
#872=EDGE_LOOP('',(#384,#385,#386,#387));
#873=EDGE_LOOP('',(#388,#389,#390,#391));
#874=EDGE_LOOP('',(#392,#393,#394,#395));
#875=EDGE_LOOP('',(#396,#397,#398,#399));
#876=EDGE_LOOP('',(#400,#401,#402,#403));
#877=EDGE_LOOP('',(#404,#405,#406,#407));
#878=EDGE_LOOP('',(#408,#409,#410,#411));
#879=EDGE_LOOP('',(#412,#413,#414,#415));
#880=EDGE_LOOP('',(#416,#417,#418,#419));
#881=EDGE_LOOP('',(#420,#421,#422,#423));
#882=EDGE_LOOP('',(#424,#425,#426,#427));
#883=EDGE_LOOP('',(#428,#429,#430,#431));
#884=EDGE_LOOP('',(#432,#433,#434,#435));
#885=EDGE_LOOP('',(#436,#437,#438,#439));
#886=EDGE_LOOP('',(#440,#441,#442,#443));
#887=EDGE_LOOP('',(#444,#445,#446,#447));
#888=EDGE_LOOP('',(#448,#449,#450,#451));
#889=EDGE_LOOP('',(#452,#453,#454,#455));
#890=EDGE_LOOP('',(#456,#457,#458,#459));
#891=EDGE_LOOP('',(#460,#461,#462,#463));
#892=EDGE_LOOP('',(#464,#465,#466,#467));
#893=EDGE_LOOP('',(#468,#469,#470,#471,#472));
#894=EDGE_LOOP('',(#473,#474,#475,#476));
#895=EDGE_LOOP('',(#477,#478,#479,#480,#481));
#896=EDGE_LOOP('',(#482,#483,#484,#485,#486));
#897=EDGE_LOOP('',(#487,#488,#489,#490));
#898=EDGE_LOOP('',(#491,#492,#493,#494,#495));
#899=EDGE_LOOP('',(#496,#497,#498,#499));
#900=EDGE_LOOP('',(#500,#501,#502,#503));
#901=EDGE_LOOP('',(#504,#505,#506,#507));
#902=EDGE_LOOP('',(#508,#509,#510,#511));
#903=EDGE_LOOP('',(#512,#513,#514,#515));
#904=EDGE_LOOP('',(#516,#517,#518,#519));
#905=EDGE_LOOP('',(#520,#521,#522,#523));
#906=EDGE_LOOP('',(#524,#525,#526,#527));
#907=EDGE_LOOP('',(#528,#529,#530,#531));
#908=EDGE_LOOP('',(#532,#533,#534,#535));
#909=EDGE_LOOP('',(#536,#537,#538,#539));
#910=EDGE_LOOP('',(#540,#541,#542,#543));
#911=EDGE_LOOP('',(#544,#545,#546,#547));
#912=FACE_BOUND('',#850,.T.);
#913=FACE_BOUND('',#851,.T.);
#914=FACE_BOUND('',#852,.T.);
#915=FACE_BOUND('',#853,.T.);
#916=FACE_BOUND('',#854,.T.);
#917=FACE_BOUND('',#855,.T.);
#918=FACE_BOUND('',#856,.T.);
#919=FACE_BOUND('',#857,.T.);
#920=FACE_BOUND('',#858,.T.);
#921=FACE_BOUND('',#859,.T.);
#922=FACE_BOUND('',#860,.T.);
#923=FACE_BOUND('',#861,.T.);
#924=FACE_BOUND('',#862,.T.);
#925=FACE_BOUND('',#863,.T.);
#926=FACE_BOUND('',#864,.T.);
#927=FACE_BOUND('',#865,.T.);
#928=FACE_BOUND('',#866,.T.);
#929=FACE_BOUND('',#867,.T.);
#930=FACE_BOUND('',#868,.T.);
#931=FACE_BOUND('',#869,.T.);
#932=FACE_BOUND('',#870,.T.);
#933=FACE_BOUND('',#871,.T.);
#934=FACE_BOUND('',#872,.T.);
#935=FACE_BOUND('',#873,.T.);
#936=FACE_BOUND('',#874,.T.);
#937=FACE_BOUND('',#875,.T.);
#938=FACE_BOUND('',#876,.T.);
#939=FACE_BOUND('',#877,.T.);
#940=FACE_BOUND('',#878,.T.);
#941=FACE_BOUND('',#879,.T.);
#942=FACE_BOUND('',#880,.T.);
#943=FACE_BOUND('',#881,.T.);
#944=FACE_BOUND('',#882,.T.);
#945=FACE_BOUND('',#883,.T.);
#946=FACE_BOUND('',#884,.T.);
#947=FACE_BOUND('',#885,.T.);
#948=FACE_BOUND('',#886,.T.);
#949=FACE_BOUND('',#887,.T.);
#950=FACE_BOUND('',#888,.T.);
#951=FACE_BOUND('',#889,.T.);
#952=FACE_BOUND('',#890,.T.);
#953=FACE_BOUND('',#891,.T.);
#954=FACE_BOUND('',#892,.T.);
#955=FACE_BOUND('',#893,.T.);
#956=FACE_BOUND('',#894,.T.);
#957=FACE_BOUND('',#895,.T.);
#958=FACE_BOUND('',#896,.T.);
#959=FACE_BOUND('',#897,.T.);
#960=FACE_BOUND('',#898,.T.);
#961=FACE_BOUND('',#899,.T.);
#962=FACE_BOUND('',#900,.T.);
#963=FACE_BOUND('',#901,.T.);
#964=FACE_BOUND('',#902,.T.);
#965=FACE_BOUND('',#903,.T.);
#966=FACE_BOUND('',#904,.T.);
#967=FACE_BOUND('',#905,.T.);
#968=FACE_BOUND('',#906,.T.);
#969=FACE_BOUND('',#907,.T.);
#970=FACE_BOUND('',#908,.T.);
#971=FACE_BOUND('',#909,.T.);
#972=FACE_BOUND('',#910,.T.);
#973=FACE_BOUND('',#911,.T.);
#974=CYLINDRICAL_SURFACE('',#1069,3.6);
#975=CYLINDRICAL_SURFACE('',#1072,3.6);
#976=CYLINDRICAL_SURFACE('',#1075,3.6);
#977=CYLINDRICAL_SURFACE('',#1078,3.6);
#978=CYLINDRICAL_SURFACE('',#1081,2.75);
#979=CYLINDRICAL_SURFACE('',#1102,3.6);
#980=CYLINDRICAL_SURFACE('',#1106,2.75);
#981=CYLINDRICAL_SURFACE('',#1128,2.4);
#982=CYLINDRICAL_SURFACE('',#1131,2.4);
#983=CYLINDRICAL_SURFACE('',#1134,2.4);
#984=CYLINDRICAL_SURFACE('',#1137,2.4);
#985=CYLINDRICAL_SURFACE('',#1138,0.5);
#986=CYLINDRICAL_SURFACE('',#1139,0.5);
#987=CYLINDRICAL_SURFACE('',#1140,0.5);
#988=CYLINDRICAL_SURFACE('',#1141,0.5);
#989=CYLINDRICAL_SURFACE('',#1142,0.1);
#990=CYLINDRICAL_SURFACE('',#1143,0.1);
#991=CYLINDRICAL_SURFACE('',#1144,0.1);
#992=CYLINDRICAL_SURFACE('',#1145,0.1);
#993=CYLINDRICAL_SURFACE('',#1146,0.1);
#994=CYLINDRICAL_SURFACE('',#1147,0.1);
#995=CYLINDRICAL_SURFACE('',#1148,0.1);
#996=CYLINDRICAL_SURFACE('',#1149,0.1);
#997=CYLINDRICAL_SURFACE('',#1151,0.4);
#998=CYLINDRICAL_SURFACE('',#1153,0.4);
#999=CYLINDRICAL_SURFACE('',#1154,0.4);
#1000=CYLINDRICAL_SURFACE('',#1156,0.4);
#1001=ADVANCED_FACE('',(#912),#974,.T.);
#1002=ADVANCED_FACE('',(#913),#975,.T.);
#1003=ADVANCED_FACE('',(#914),#976,.T.);
#1004=ADVANCED_FACE('',(#915),#977,.T.);
#1005=ADVANCED_FACE('',(#916),#978,.T.);
#1006=ADVANCED_FACE('',(#917,#918),#22,.T.);
#1007=ADVANCED_FACE('',(#919,#920),#979,.T.);
#1008=ADVANCED_FACE('',(#921,#922),#20,.T.);
#1009=ADVANCED_FACE('',(#923),#980,.T.);
#1010=ADVANCED_FACE('',(#924,#925),#21,.T.);
#1011=ADVANCED_FACE('',(#926,#927),#23,.T.);
#1012=ADVANCED_FACE('',(#928),#24,.T.);
#1013=ADVANCED_FACE('',(#929),#25,.T.);
#1014=ADVANCED_FACE('',(#930,#931),#981,.F.);
#1015=ADVANCED_FACE('',(#932),#26,.T.);
#1016=ADVANCED_FACE('',(#933),#27,.T.);
#1017=ADVANCED_FACE('',(#934),#982,.F.);
#1018=ADVANCED_FACE('',(#935),#28,.T.);
#1019=ADVANCED_FACE('',(#936),#29,.T.);
#1020=ADVANCED_FACE('',(#937,#938),#983,.F.);
#1021=ADVANCED_FACE('',(#939),#30,.T.);
#1022=ADVANCED_FACE('',(#940),#31,.T.);
#1023=ADVANCED_FACE('',(#941),#984,.F.);
#1024=ADVANCED_FACE('',(#942),#985,.T.);
#1025=ADVANCED_FACE('',(#943),#986,.T.);
#1026=ADVANCED_FACE('',(#944),#987,.T.);
#1027=ADVANCED_FACE('',(#945),#988,.T.);
#1028=ADVANCED_FACE('',(#946),#989,.F.);
#1029=ADVANCED_FACE('',(#947),#990,.F.);
#1030=ADVANCED_FACE('',(#948),#991,.F.);
#1031=ADVANCED_FACE('',(#949),#992,.F.);
#1032=ADVANCED_FACE('',(#950),#993,.F.);
#1033=ADVANCED_FACE('',(#951),#994,.F.);
#1034=ADVANCED_FACE('',(#952),#995,.F.);
#1035=ADVANCED_FACE('',(#953),#996,.F.);
#1036=ADVANCED_FACE('',(#954),#32,.F.);
#1037=ADVANCED_FACE('',(#955),#997,.F.);
#1038=ADVANCED_FACE('',(#956),#33,.F.);
#1039=ADVANCED_FACE('',(#957),#998,.F.);
#1040=ADVANCED_FACE('',(#958),#999,.F.);
#1041=ADVANCED_FACE('',(#959),#34,.F.);
#1042=ADVANCED_FACE('',(#960),#1000,.F.);
#1043=ADVANCED_FACE('',(#961),#35,.F.);
#1044=ADVANCED_FACE('',(#962),#36,.F.);
#1045=ADVANCED_FACE('',(#963),#37,.F.);
#1046=ADVANCED_FACE('',(#964),#38,.F.);
#1047=ADVANCED_FACE('',(#965),#39,.F.);
#1048=ADVANCED_FACE('',(#966),#40,.F.);
#1049=ADVANCED_FACE('',(#967),#41,.F.);
#1050=ADVANCED_FACE('',(#968),#42,.F.);
#1051=ADVANCED_FACE('',(#969),#43,.F.);
#1052=ADVANCED_FACE('',(#970),#44,.F.);
#1053=ADVANCED_FACE('',(#971),#45,.F.);
#1054=ADVANCED_FACE('',(#972),#46,.F.);
#1055=ADVANCED_FACE('',(#973),#47,.F.);
#1056=CLOSED_SHELL('',(#1001,#1002,#1003,#1004,#1005,#1006,#1007,#1008,
#1009,#1010,#1011,#1012,#1013,#1014,#1015,#1016,#1017,#1018,#1019,#1020,
#1021,#1022,#1023,#1024,#1025,#1026,#1027,#1028,#1029,#1030,#1031,#1032,
#1033,#1034,#1035,#1036,#1037,#1038,#1039,#1040,#1041,#1042,#1043,#1044,
#1045,#1046,#1047,#1048,#1049,#1050,#1051,#1052,#1053,#1054,#1055));
#1057=STYLED_ITEM('',(#1058),#1065);
#1058=PRESENTATION_STYLE_ASSIGNMENT((#1059));
#1059=SURFACE_STYLE_USAGE(.BOTH.,#1060);
#1060=SURFACE_SIDE_STYLE('',(#1061));
#1061=SURFACE_STYLE_FILL_AREA(#1062);
#1062=FILL_AREA_STYLE('',(#1063));
#1063=FILL_AREA_STYLE_COLOUR('',#1064);
#1064=COLOUR_RGB('',0.506983280181885,0.531564235687256,0.550000011920929);
#1065=MANIFOLD_SOLID_BREP('',#1056);
#1066=SHAPE_DEFINITION_REPRESENTATION(#1852,#1067);
#1067=SHAPE_REPRESENTATION('ClGray_4211622_JCA',(#1068),#1847);
#1068=AXIS2_PLACEMENT_3D('',#1458,#1170,#1171);
#1069=AXIS2_PLACEMENT_3D('',#1459,#1172,#1173);
#1070=AXIS2_PLACEMENT_3D('',#1460,#1174,#1175);
#1071=AXIS2_PLACEMENT_3D('',#1465,#1177,#1178);
#1072=AXIS2_PLACEMENT_3D('',#1468,#1180,#1181);
#1073=AXIS2_PLACEMENT_3D('',#1469,#1182,#1183);
#1074=AXIS2_PLACEMENT_3D('',#1474,#1185,#1186);
#1075=AXIS2_PLACEMENT_3D('',#1477,#1188,#1189);
#1076=AXIS2_PLACEMENT_3D('',#1478,#1190,#1191);
#1077=AXIS2_PLACEMENT_3D('',#1483,#1193,#1194);
#1078=AXIS2_PLACEMENT_3D('',#1486,#1196,#1197);
#1079=AXIS2_PLACEMENT_3D('',#1487,#1198,#1199);
#1080=AXIS2_PLACEMENT_3D('',#1492,#1201,#1202);
#1081=AXIS2_PLACEMENT_3D('',#1495,#1204,#1205);
#1082=AXIS2_PLACEMENT_3D('',#1504,#1207,#1208);
#1083=AXIS2_PLACEMENT_3D('',#1518,#1210,#1211);
#1084=AXIS2_PLACEMENT_3D('',#1524,#1212,#1213);
#1085=AXIS2_PLACEMENT_3D('',#1528,#1215,#1216);
#1086=AXIS2_PLACEMENT_3D('',#1530,#1217,#1218);
#1087=AXIS2_PLACEMENT_3D('',#1532,#1219,#1220);
#1088=AXIS2_PLACEMENT_3D('',#1536,#1222,#1223);
#1089=AXIS2_PLACEMENT_3D('',#1540,#1225,#1226);
#1090=AXIS2_PLACEMENT_3D('',#1542,#1227,#1228);
#1091=AXIS2_PLACEMENT_3D('',#1544,#1229,#1230);
#1092=AXIS2_PLACEMENT_3D('',#1548,#1232,#1233);
#1093=AXIS2_PLACEMENT_3D('',#1552,#1235,#1236);
#1094=AXIS2_PLACEMENT_3D('',#1554,#1237,#1238);
#1095=AXIS2_PLACEMENT_3D('',#1556,#1239,#1240);
#1096=AXIS2_PLACEMENT_3D('',#1560,#1242,#1243);
#1097=AXIS2_PLACEMENT_3D('',#1564,#1245,#1246);
#1098=AXIS2_PLACEMENT_3D('',#1566,#1247,#1248);
#1099=AXIS2_PLACEMENT_3D('',#1568,#1249,#1250);
#1100=AXIS2_PLACEMENT_3D('',#1572,#1252,#1253);
#1101=AXIS2_PLACEMENT_3D('',#1573,#1254,#1255);
#1102=AXIS2_PLACEMENT_3D('',#1575,#1256,#1257);
#1103=AXIS2_PLACEMENT_3D('',#1576,#1258,#1259);
#1104=AXIS2_PLACEMENT_3D('',#1578,#1260,#1261);
#1105=AXIS2_PLACEMENT_3D('',#1579,#1262,#1263);
#1106=AXIS2_PLACEMENT_3D('',#1580,#1264,#1265);
#1107=AXIS2_PLACEMENT_3D('',#1597,#1267,#1268);
#1108=AXIS2_PLACEMENT_3D('',#1604,#1270,#1271);
#1109=AXIS2_PLACEMENT_3D('',#1661,#1272,#1273);
#1110=AXIS2_PLACEMENT_3D('',#1685,#1287,#1288);
#1111=AXIS2_PLACEMENT_3D('',#1689,#1290,#1291);
#1112=AXIS2_PLACEMENT_3D('',#1691,#1292,#1293);
#1113=AXIS2_PLACEMENT_3D('',#1693,#1294,#1295);
#1114=AXIS2_PLACEMENT_3D('',#1697,#1297,#1298);
#1115=AXIS2_PLACEMENT_3D('',#1701,#1300,#1301);
#1116=AXIS2_PLACEMENT_3D('',#1703,#1302,#1303);
#1117=AXIS2_PLACEMENT_3D('',#1705,#1304,#1305);
#1118=AXIS2_PLACEMENT_3D('',#1709,#1307,#1308);
#1119=AXIS2_PLACEMENT_3D('',#1713,#1310,#1311);
#1120=AXIS2_PLACEMENT_3D('',#1715,#1312,#1313);
#1121=AXIS2_PLACEMENT_3D('',#1717,#1314,#1315);
#1122=AXIS2_PLACEMENT_3D('',#1721,#1317,#1318);
#1123=AXIS2_PLACEMENT_3D('',#1725,#1320,#1321);
#1124=AXIS2_PLACEMENT_3D('',#1727,#1322,#1323);
#1125=AXIS2_PLACEMENT_3D('',#1729,#1324,#1325);
#1126=AXIS2_PLACEMENT_3D('',#1730,#1326,#1327);
#1127=AXIS2_PLACEMENT_3D('',#1733,#1330,#1331);
#1128=AXIS2_PLACEMENT_3D('',#1736,#1334,#1335);
#1129=AXIS2_PLACEMENT_3D('',#1755,#1340,#1341);
#1130=AXIS2_PLACEMENT_3D('',#1758,#1344,#1345);
#1131=AXIS2_PLACEMENT_3D('',#1761,#1348,#1349);
#1132=AXIS2_PLACEMENT_3D('',#1764,#1352,#1353);
#1133=AXIS2_PLACEMENT_3D('',#1767,#1356,#1357);
#1134=AXIS2_PLACEMENT_3D('',#1770,#1360,#1361);
#1135=AXIS2_PLACEMENT_3D('',#1789,#1366,#1367);
#1136=AXIS2_PLACEMENT_3D('',#1792,#1370,#1371);
#1137=AXIS2_PLACEMENT_3D('',#1795,#1374,#1375);
#1138=AXIS2_PLACEMENT_3D('',#1798,#1378,#1379);
#1139=AXIS2_PLACEMENT_3D('',#1799,#1380,#1381);
#1140=AXIS2_PLACEMENT_3D('',#1800,#1382,#1383);
#1141=AXIS2_PLACEMENT_3D('',#1801,#1384,#1385);
#1142=AXIS2_PLACEMENT_3D('',#1802,#1386,#1387);
#1143=AXIS2_PLACEMENT_3D('',#1803,#1388,#1389);
#1144=AXIS2_PLACEMENT_3D('',#1804,#1390,#1391);
#1145=AXIS2_PLACEMENT_3D('',#1805,#1392,#1393);
#1146=AXIS2_PLACEMENT_3D('',#1806,#1394,#1395);
#1147=AXIS2_PLACEMENT_3D('',#1807,#1396,#1397);
#1148=AXIS2_PLACEMENT_3D('',#1808,#1398,#1399);
#1149=AXIS2_PLACEMENT_3D('',#1809,#1400,#1401);
#1150=AXIS2_PLACEMENT_3D('',#1810,#1402,#1403);
#1151=AXIS2_PLACEMENT_3D('',#1813,#1406,#1407);
#1152=AXIS2_PLACEMENT_3D('',#1815,#1409,#1410);
#1153=AXIS2_PLACEMENT_3D('',#1817,#1412,#1413);
#1154=AXIS2_PLACEMENT_3D('',#1818,#1414,#1415);
#1155=AXIS2_PLACEMENT_3D('',#1821,#1418,#1419);
#1156=AXIS2_PLACEMENT_3D('',#1823,#1421,#1422);
#1157=AXIS2_PLACEMENT_3D('',#1825,#1424,#1425);
#1158=AXIS2_PLACEMENT_3D('',#1826,#1426,#1427);
#1159=AXIS2_PLACEMENT_3D('',#1829,#1430,#1431);
#1160=AXIS2_PLACEMENT_3D('',#1830,#1432,#1433);
#1161=AXIS2_PLACEMENT_3D('',#1831,#1434,#1435);
#1162=AXIS2_PLACEMENT_3D('',#1834,#1438,#1439);
#1163=AXIS2_PLACEMENT_3D('',#1835,#1440,#1441);
#1164=AXIS2_PLACEMENT_3D('',#1836,#1442,#1443);
#1165=AXIS2_PLACEMENT_3D('',#1839,#1446,#1447);
#1166=AXIS2_PLACEMENT_3D('',#1840,#1448,#1449);
#1167=AXIS2_PLACEMENT_3D('',#1841,#1450,#1451);
#1168=AXIS2_PLACEMENT_3D('',#1843,#1453,#1454);
#1169=AXIS2_PLACEMENT_3D('',#1845,#1456,#1457);
#1170=DIRECTION('',(0.,0.,1.));
#1171=DIRECTION('',(1.,0.,0.));
#1172=DIRECTION('',(-1.,0.,0.));
#1173=DIRECTION('',(0.,0.,1.));
#1174=DIRECTION('',(-1.,0.,0.));
#1175=DIRECTION('',(0.,0.,1.));
#1176=DIRECTION('',(1.,0.,0.));
#1177=DIRECTION('',(-1.,0.,0.));
#1178=DIRECTION('',(0.,0.,1.));
#1179=DIRECTION('',(1.,0.,0.));
#1180=DIRECTION('',(-1.,0.,0.));
#1181=DIRECTION('',(0.,0.,1.));
#1182=DIRECTION('',(-1.,0.,0.));
#1183=DIRECTION('',(0.,0.,1.));
#1184=DIRECTION('',(1.,0.,0.));
#1185=DIRECTION('',(-1.,0.,0.));
#1186=DIRECTION('',(0.,0.,1.));
#1187=DIRECTION('',(1.,0.,0.));
#1188=DIRECTION('',(-1.,0.,0.));
#1189=DIRECTION('',(0.,0.,1.));
#1190=DIRECTION('',(-1.,0.,0.));
#1191=DIRECTION('',(0.,0.,1.));
#1192=DIRECTION('',(1.,0.,0.));
#1193=DIRECTION('',(-1.,0.,0.));
#1194=DIRECTION('',(0.,0.,1.));
#1195=DIRECTION('',(1.,0.,0.));
#1196=DIRECTION('',(-1.,0.,0.));
#1197=DIRECTION('',(0.,0.,1.));
#1198=DIRECTION('',(-1.,0.,0.));
#1199=DIRECTION('',(0.,0.,1.));
#1200=DIRECTION('',(1.,0.,0.));
#1201=DIRECTION('',(-1.,0.,0.));
#1202=DIRECTION('',(0.,0.,1.));
#1203=DIRECTION('',(1.,0.,0.));
#1204=DIRECTION('',(-1.,0.,0.));
#1205=DIRECTION('',(0.,0.,1.));
#1206=DIRECTION('',(-1.,0.,0.));
#1207=DIRECTION('',(-1.,0.,0.));
#1208=DIRECTION('',(0.,0.,1.));
#1209=DIRECTION('',(-1.,0.,0.));
#1210=DIRECTION('',(-1.,0.,0.));
#1211=DIRECTION('',(0.,0.,1.));
#1212=DIRECTION('',(-1.,0.,0.));
#1213=DIRECTION('',(0.,0.,1.));
#1214=DIRECTION('',(0.,0.,1.));
#1215=DIRECTION('',(-1.,0.,0.));
#1216=DIRECTION('',(0.,0.,1.));
#1217=DIRECTION('',(1.,0.,0.));
#1218=DIRECTION('',(0.,0.,-1.));
#1219=DIRECTION('',(-1.,0.,0.));
#1220=DIRECTION('',(0.,0.,1.));
#1221=DIRECTION('',(0.,-1.63670507663034E-16,-1.));
#1222=DIRECTION('',(-1.,0.,0.));
#1223=DIRECTION('',(0.,0.,1.));
#1224=DIRECTION('',(0.,-1.,8.1835253831517E-17));
#1225=DIRECTION('',(-1.,0.,0.));
#1226=DIRECTION('',(0.,0.,1.));
#1227=DIRECTION('',(1.,0.,0.));
#1228=DIRECTION('',(0.,0.,1.));
#1229=DIRECTION('',(-1.,0.,0.));
#1230=DIRECTION('',(0.,0.,1.));
#1231=DIRECTION('',(0.,1.,0.));
#1232=DIRECTION('',(-1.,0.,0.));
#1233=DIRECTION('',(0.,0.,1.));
#1234=DIRECTION('',(0.,-1.63670507663034E-16,-1.));
#1235=DIRECTION('',(-1.,0.,0.));
#1236=DIRECTION('',(0.,0.,1.));
#1237=DIRECTION('',(1.,0.,0.));
#1238=DIRECTION('',(0.,0.,1.));
#1239=DIRECTION('',(-1.,0.,0.));
#1240=DIRECTION('',(0.,0.,1.));
#1241=DIRECTION('',(0.,0.,1.));
#1242=DIRECTION('',(-1.,0.,0.));
#1243=DIRECTION('',(0.,0.,1.));
#1244=DIRECTION('',(0.,1.,0.));
#1245=DIRECTION('',(-1.,0.,0.));
#1246=DIRECTION('',(0.,0.,1.));
#1247=DIRECTION('',(1.,0.,0.));
#1248=DIRECTION('',(0.,0.,1.));
#1249=DIRECTION('',(-1.,0.,0.));
#1250=DIRECTION('',(0.,0.,1.));
#1251=DIRECTION('',(0.,-1.,8.1835253831517E-17));
#1252=DIRECTION('',(-1.,0.,0.));
#1253=DIRECTION('',(0.,0.,1.));
#1254=DIRECTION('',(-1.,0.,0.));
#1255=DIRECTION('',(0.,0.,1.));
#1256=DIRECTION('',(-1.,0.,0.));
#1257=DIRECTION('',(0.,0.,1.));
#1258=DIRECTION('',(-1.,0.,0.));
#1259=DIRECTION('',(0.,0.,1.));
#1260=DIRECTION('',(-1.,0.,0.));
#1261=DIRECTION('',(0.,0.,1.));
#1262=DIRECTION('',(-1.,0.,0.));
#1263=DIRECTION('',(0.,0.,1.));
#1264=DIRECTION('',(-1.,0.,0.));
#1265=DIRECTION('',(0.,0.,1.));
#1266=DIRECTION('',(-1.,0.,0.));
#1267=DIRECTION('',(-1.,0.,0.));
#1268=DIRECTION('',(0.,0.,1.));
#1269=DIRECTION('',(-1.,0.,0.));
#1270=DIRECTION('',(1.,0.,0.));
#1271=DIRECTION('',(0.,0.,-1.));
#1272=DIRECTION('',(1.,0.,0.));
#1273=DIRECTION('',(0.,0.,-1.));
#1274=DIRECTION('',(0.,0.366658584189344,-0.930355567855788));
#1275=DIRECTION('',(0.,0.366658584189344,0.930355567855788));
#1276=DIRECTION('',(0.,0.707106781186547,0.707106781186548));
#1277=DIRECTION('',(0.,0.930355567855788,0.366658584189344));
#1278=DIRECTION('',(0.,-0.930355567855788,0.366658584189344));
#1279=DIRECTION('',(0.,-0.707106781186548,0.707106781186547));
#1280=DIRECTION('',(0.,-0.366658584189344,0.930355567855788));
#1281=DIRECTION('',(0.,-0.366658584189344,-0.930355567855788));
#1282=DIRECTION('',(0.,-0.707106781186547,-0.707106781186548));
#1283=DIRECTION('',(0.,-0.930355567855788,-0.366658584189344));
#1284=DIRECTION('',(0.,0.930355567855788,-0.366658584189343));
#1285=DIRECTION('',(0.,0.707106781186547,-0.707106781186548));
#1286=DIRECTION('',(0.,0.,1.));
#1287=DIRECTION('',(1.,0.,0.));
#1288=DIRECTION('',(0.,0.,-1.));
#1289=DIRECTION('',(0.,-1.,8.1835253831517E-17));
#1290=DIRECTION('',(1.,0.,0.));
#1291=DIRECTION('',(0.,0.,-1.));
#1292=DIRECTION('',(1.,0.,0.));
#1293=DIRECTION('',(0.,0.,1.));
#1294=DIRECTION('',(1.,0.,0.));
#1295=DIRECTION('',(0.,0.,-1.));
#1296=DIRECTION('',(0.,1.,0.));
#1297=DIRECTION('',(1.,0.,0.));
#1298=DIRECTION('',(0.,0.,-1.));
#1299=DIRECTION('',(0.,0.,1.));
#1300=DIRECTION('',(1.,0.,0.));
#1301=DIRECTION('',(0.,0.,-1.));
#1302=DIRECTION('',(1.,0.,0.));
#1303=DIRECTION('',(0.,0.,1.));
#1304=DIRECTION('',(1.,0.,0.));
#1305=DIRECTION('',(0.,0.,-1.));
#1306=DIRECTION('',(0.,-1.63670507663034E-16,-1.));
#1307=DIRECTION('',(1.,0.,0.));
#1308=DIRECTION('',(0.,0.,-1.));
#1309=DIRECTION('',(0.,1.,0.));
#1310=DIRECTION('',(1.,0.,0.));
#1311=DIRECTION('',(0.,0.,-1.));
#1312=DIRECTION('',(1.,0.,0.));
#1313=DIRECTION('',(0.,0.,1.));
#1314=DIRECTION('',(1.,0.,0.));
#1315=DIRECTION('',(0.,0.,-1.));
#1316=DIRECTION('',(0.,-1.,8.1835253831517E-17));
#1317=DIRECTION('',(1.,0.,0.));
#1318=DIRECTION('',(0.,0.,-1.));
#1319=DIRECTION('',(0.,-1.63670507663034E-16,-1.));
#1320=DIRECTION('',(1.,0.,0.));
#1321=DIRECTION('',(0.,0.,-1.));
#1322=DIRECTION('',(1.,0.,0.));
#1323=DIRECTION('',(0.,0.,-1.));
#1324=DIRECTION('',(1.,0.,0.));
#1325=DIRECTION('',(0.,0.,-1.));
#1326=DIRECTION('',(0.,1.,-1.63670507663034E-16));
#1327=DIRECTION('',(0.,1.63670507663034E-16,1.));
#1328=DIRECTION('',(1.,0.,0.));
#1329=DIRECTION('',(-1.,0.,0.));
#1330=DIRECTION('',(0.,-8.1835253831517E-17,-1.));
#1331=DIRECTION('',(0.,1.,-8.1835253831517E-17));
#1332=DIRECTION('',(1.,0.,0.));
#1333=DIRECTION('',(-1.,0.,0.));
#1334=DIRECTION('',(-1.,0.,0.));
#1335=DIRECTION('',(0.,0.,1.));
#1336=DIRECTION('',(-1.,0.,0.));
#1337=DIRECTION('',(-1.,0.,0.));
#1338=DIRECTION('',(-1.,0.,0.));
#1339=DIRECTION('',(-1.,0.,0.));
#1340=DIRECTION('',(0.,0.,1.));
#1341=DIRECTION('',(1.,0.,0.));
#1342=DIRECTION('',(1.,0.,0.));
#1343=DIRECTION('',(-1.,0.,0.));
#1344=DIRECTION('',(0.,1.,-1.63670507663034E-16));
#1345=DIRECTION('',(0.,1.63670507663034E-16,1.));
#1346=DIRECTION('',(1.,0.,0.));
#1347=DIRECTION('',(-1.,0.,0.));
#1348=DIRECTION('',(-1.,0.,0.));
#1349=DIRECTION('',(0.,0.,1.));
#1350=DIRECTION('',(-1.,0.,0.));
#1351=DIRECTION('',(-1.,0.,0.));
#1352=DIRECTION('',(0.,-1.,0.));
#1353=DIRECTION('',(0.,0.,-1.));
#1354=DIRECTION('',(1.,0.,0.));
#1355=DIRECTION('',(-1.,0.,0.));
#1356=DIRECTION('',(0.,0.,1.));
#1357=DIRECTION('',(1.,0.,0.));
#1358=DIRECTION('',(1.,0.,0.));
#1359=DIRECTION('',(-1.,0.,0.));
#1360=DIRECTION('',(-1.,0.,0.));
#1361=DIRECTION('',(0.,0.,1.));
#1362=DIRECTION('',(-1.,0.,0.));
#1363=DIRECTION('',(-1.,0.,0.));
#1364=DIRECTION('',(-1.,0.,0.));
#1365=DIRECTION('',(-1.,0.,0.));
#1366=DIRECTION('',(0.,-8.1835253831517E-17,-1.));
#1367=DIRECTION('',(0.,1.,-8.1835253831517E-17));
#1368=DIRECTION('',(1.,0.,0.));
#1369=DIRECTION('',(-1.,0.,0.));
#1370=DIRECTION('',(0.,-1.,0.));
#1371=DIRECTION('',(0.,0.,-1.));
#1372=DIRECTION('',(1.,0.,0.));
#1373=DIRECTION('',(-1.,0.,0.));
#1374=DIRECTION('',(-1.,0.,0.));
#1375=DIRECTION('',(0.,0.,1.));
#1376=DIRECTION('',(-1.,0.,0.));
#1377=DIRECTION('',(-1.,0.,0.));
#1378=DIRECTION('',(-1.,0.,0.));
#1379=DIRECTION('',(0.,0.,1.));
#1380=DIRECTION('',(-1.,0.,0.));
#1381=DIRECTION('',(0.,0.,1.));
#1382=DIRECTION('',(-1.,0.,0.));
#1383=DIRECTION('',(0.,0.,1.));
#1384=DIRECTION('',(-1.,0.,0.));
#1385=DIRECTION('',(0.,0.,1.));
#1386=DIRECTION('',(-1.,0.,0.));
#1387=DIRECTION('',(0.,0.,1.));
#1388=DIRECTION('',(-1.,0.,0.));
#1389=DIRECTION('',(0.,0.,1.));
#1390=DIRECTION('',(-1.,0.,0.));
#1391=DIRECTION('',(0.,0.,1.));
#1392=DIRECTION('',(-1.,0.,0.));
#1393=DIRECTION('',(0.,0.,1.));
#1394=DIRECTION('',(-1.,0.,0.));
#1395=DIRECTION('',(0.,0.,1.));
#1396=DIRECTION('',(-1.,0.,0.));
#1397=DIRECTION('',(0.,0.,1.));
#1398=DIRECTION('',(-1.,0.,0.));
#1399=DIRECTION('',(0.,0.,1.));
#1400=DIRECTION('',(-1.,0.,0.));
#1401=DIRECTION('',(0.,0.,1.));
#1402=DIRECTION('',(1.32752835544987E-16,0.,-1.));
#1403=DIRECTION('',(-1.,0.,-1.32752835544987E-16));
#1404=DIRECTION('',(0.,1.,0.));
#1405=DIRECTION('',(0.,1.,0.));
#1406=DIRECTION('',(0.,1.,0.));
#1407=DIRECTION('',(0.,0.,1.));
#1408=DIRECTION('',(0.,1.,0.));
#1409=DIRECTION('',(-3.31882088862467E-17,0.,1.));
#1410=DIRECTION('',(1.,0.,3.31882088862467E-17));
#1411=DIRECTION('',(0.,1.,0.));
#1412=DIRECTION('',(0.,1.,0.));
#1413=DIRECTION('',(0.,0.,1.));
#1414=DIRECTION('',(0.,1.,0.));
#1415=DIRECTION('',(0.,0.,1.));
#1416=DIRECTION('',(0.,1.,0.));
#1417=DIRECTION('',(0.,1.,0.));
#1418=DIRECTION('',(-3.31882088862467E-17,0.,1.));
#1419=DIRECTION('',(1.,0.,3.31882088862467E-17));
#1420=DIRECTION('',(0.,1.,0.));
#1421=DIRECTION('',(0.,1.,0.));
#1422=DIRECTION('',(0.,0.,1.));
#1423=DIRECTION('',(0.,1.,0.));
#1424=DIRECTION('',(1.32752835544987E-16,0.,-1.));
#1425=DIRECTION('',(-1.,0.,-1.32752835544987E-16));
#1426=DIRECTION('',(0.,-0.707106781186548,-0.707106781186547));
#1427=DIRECTION('',(0.,0.707106781186547,-0.707106781186548));
#1428=DIRECTION('',(1.,0.,0.));
#1429=DIRECTION('',(1.,0.,0.));
#1430=DIRECTION('',(0.,-0.930355567855788,-0.366658584189344));
#1431=DIRECTION('',(0.,0.366658584189344,-0.930355567855788));
#1432=DIRECTION('',(0.,-0.366658584189343,-0.930355567855788));
#1433=DIRECTION('',(0.,0.930355567855788,-0.366658584189343));
#1434=DIRECTION('',(0.,-0.707106781186548,0.707106781186547));
#1435=DIRECTION('',(0.,-0.707106781186547,-0.707106781186548));
#1436=DIRECTION('',(1.,0.,0.));
#1437=DIRECTION('',(1.,0.,0.));
#1438=DIRECTION('',(0.,-0.366658584189344,0.930355567855788));
#1439=DIRECTION('',(0.,-0.930355567855788,-0.366658584189344));
#1440=DIRECTION('',(0.,-0.930355567855788,0.366658584189344));
#1441=DIRECTION('',(0.,-0.366658584189344,-0.930355567855788));
#1442=DIRECTION('',(0.,0.707106781186547,0.707106781186548));
#1443=DIRECTION('',(0.,-0.707106781186548,0.707106781186547));
#1444=DIRECTION('',(1.,0.,0.));
#1445=DIRECTION('',(1.,0.,0.));
#1446=DIRECTION('',(0.,0.930355567855788,0.366658584189344));
#1447=DIRECTION('',(0.,-0.366658584189344,0.930355567855788));
#1448=DIRECTION('',(0.,0.366658584189344,0.930355567855788));
#1449=DIRECTION('',(0.,-0.930355567855788,0.366658584189344));
#1450=DIRECTION('',(0.,0.930355567855788,-0.366658584189344));
#1451=DIRECTION('',(0.,0.366658584189344,0.930355567855788));
#1452=DIRECTION('',(1.,0.,0.));
#1453=DIRECTION('',(0.,0.707106781186548,-0.707106781186547));
#1454=DIRECTION('',(0.,0.707106781186547,0.707106781186548));
#1455=DIRECTION('',(1.,0.,0.));
#1456=DIRECTION('',(0.,0.366658584189344,-0.930355567855788));
#1457=DIRECTION('',(0.,0.930355567855788,0.366658584189344));
#1458=CARTESIAN_POINT('',(0.,0.,0.));
#1459=CARTESIAN_POINT('',(-60.,0.,0.));
#1460=CARTESIAN_POINT('',(-1.,0.,0.));
#1461=CARTESIAN_POINT('',(-1.,-1.56242977306435,3.24327199048154));
#1462=CARTESIAN_POINT('',(-1.,1.56242977306435,3.24327199048154));
#1463=CARTESIAN_POINT('',(-6.,-1.56242977306435,3.24327199048154));
#1464=CARTESIAN_POINT('',(0.,-1.56242977306435,3.24327199048154));
#1465=CARTESIAN_POINT('',(0.,0.,0.));
#1466=CARTESIAN_POINT('',(0.,1.56242977306435,3.24327199048154));
#1467=CARTESIAN_POINT('',(-6.,1.56242977306435,3.24327199048154));
#1468=CARTESIAN_POINT('',(-60.,0.,0.));
#1469=CARTESIAN_POINT('',(-1.,0.,0.));
#1470=CARTESIAN_POINT('',(-1.,-3.24327199048154,-1.56242977306435));
#1471=CARTESIAN_POINT('',(-1.,-3.24327199048154,1.56242977306435));
#1472=CARTESIAN_POINT('',(-6.,-3.24327199048154,-1.56242977306435));
#1473=CARTESIAN_POINT('',(0.,-3.24327199048154,-1.56242977306435));
#1474=CARTESIAN_POINT('',(0.,0.,0.));
#1475=CARTESIAN_POINT('',(0.,-3.24327199048154,1.56242977306435));
#1476=CARTESIAN_POINT('',(-6.,-3.24327199048154,1.56242977306435));
#1477=CARTESIAN_POINT('',(-60.,0.,0.));
#1478=CARTESIAN_POINT('',(-1.,0.,0.));
#1479=CARTESIAN_POINT('',(-1.,1.56242977306435,-3.24327199048154));
#1480=CARTESIAN_POINT('',(-1.,-1.56242977306435,-3.24327199048153));
#1481=CARTESIAN_POINT('',(-6.,1.56242977306435,-3.24327199048154));
#1482=CARTESIAN_POINT('',(0.,1.56242977306435,-3.24327199048154));
#1483=CARTESIAN_POINT('',(0.,0.,0.));
#1484=CARTESIAN_POINT('',(0.,-1.56242977306435,-3.24327199048153));
#1485=CARTESIAN_POINT('',(-6.,-1.56242977306435,-3.24327199048153));
#1486=CARTESIAN_POINT('',(-60.,0.,0.));
#1487=CARTESIAN_POINT('',(-1.,0.,0.));
#1488=CARTESIAN_POINT('',(-1.,3.24327199048154,1.56242977306435));
#1489=CARTESIAN_POINT('',(-1.,3.24327199048153,-1.56242977306435));
#1490=CARTESIAN_POINT('',(-6.,3.24327199048154,1.56242977306435));
#1491=CARTESIAN_POINT('',(0.,3.24327199048154,1.56242977306435));
#1492=CARTESIAN_POINT('',(0.,0.,0.));
#1493=CARTESIAN_POINT('',(0.,3.24327199048153,-1.56242977306435));
#1494=CARTESIAN_POINT('',(-6.,3.24327199048153,-1.56242977306435));
#1495=CARTESIAN_POINT('',(-60.,0.,0.));
#1496=CARTESIAN_POINT('',(-60.,-2.72075357208256,0.399999999999999));
#1497=CARTESIAN_POINT('',(-1.5498779336022,-2.72075357208256,0.400000000000001));
#1498=CARTESIAN_POINT('',(-6.4501220663978,-2.72075357208256,0.4));
#1499=CARTESIAN_POINT('',(-1.1498779336022,-2.75,-4.85106128683475E-17));
#1500=CARTESIAN_POINT('',(-1.1498779336022,-2.75,0.208880791958039));
#1501=CARTESIAN_POINT('',(-1.33829543546928,-2.72075357208256,0.4));
#1502=CARTESIAN_POINT('',(-1.5498779336022,-2.72075357208256,0.4));
#1503=CARTESIAN_POINT('',(-1.1498779336022,-2.75,-3.04577334551403E-17));
#1504=CARTESIAN_POINT('',(-1.1498779336022,0.,0.));
#1505=CARTESIAN_POINT('',(-1.1498779336022,2.75,-3.04577334551403E-17));
#1506=CARTESIAN_POINT('',(-1.5498779336022,2.72075357208256,0.4));
#1507=CARTESIAN_POINT('',(-1.33809343466974,2.72075357208256,0.4));
#1508=CARTESIAN_POINT('',(-1.1498779336022,2.75,0.209079983733293));
#1509=CARTESIAN_POINT('',(-1.1498779336022,2.75,4.85106128683475E-17));
#1510=CARTESIAN_POINT('',(-1.5498779336022,2.72075357208256,0.400000000000001));
#1511=CARTESIAN_POINT('',(-60.,2.72075357208256,0.399999999999999));
#1512=CARTESIAN_POINT('',(-6.4501220663978,2.72075357208256,0.4));
#1513=CARTESIAN_POINT('',(-6.8501220663978,2.75,6.42749580944422E-13));
#1514=CARTESIAN_POINT('',(-6.85012206639747,2.74999999999995,0.208880791958488));
#1515=CARTESIAN_POINT('',(-6.6617045645305,2.72075357208256,0.400000000000001));
#1516=CARTESIAN_POINT('',(-6.4501220663978,2.72075357208256,0.4));
#1517=CARTESIAN_POINT('',(-6.85012206640152,2.75000000000054,4.25080136979632E-13));
#1518=CARTESIAN_POINT('',(-6.8501220663978,0.,0.));
#1519=CARTESIAN_POINT('',(-6.85012206640152,-2.75000000000054,-4.25080136979632E-13));
#1520=CARTESIAN_POINT('',(-6.4501220663978,-2.72075357208256,0.4));
#1521=CARTESIAN_POINT('',(-6.66190656533048,-2.72075357208256,0.4));
#1522=CARTESIAN_POINT('',(-6.85012206639814,-2.75000000000005,0.209079983732885));
#1523=CARTESIAN_POINT('',(-6.8501220663978,-2.75,-6.42749580944422E-13));
#1524=CARTESIAN_POINT('',(-8.,0.,3.6));
#1525=CARTESIAN_POINT('',(-8.,0.9,0.9));
#1526=CARTESIAN_POINT('',(-8.,0.9,1.4));
#1527=CARTESIAN_POINT('',(-8.,0.9,2.15638586528478));
#1528=CARTESIAN_POINT('',(-8.,0.8,2.15638586528478));
#1529=CARTESIAN_POINT('',(-8.,0.834782608695652,2.25014177247108));
#1530=CARTESIAN_POINT('',(-8.,0.,0.));
#1531=CARTESIAN_POINT('',(-8.,-0.834782608695651,2.25014177247108));
#1532=CARTESIAN_POINT('',(-8.,-0.799999999999999,2.15638586528478));
#1533=CARTESIAN_POINT('',(-8.,-0.899999999999999,2.15638586528478));
#1534=CARTESIAN_POINT('',(-8.,-0.899999999999999,2.2248595461287));
#1535=CARTESIAN_POINT('',(-8.,-0.899999999999999,1.4));
#1536=CARTESIAN_POINT('',(-8.,-1.4,1.4));
#1537=CARTESIAN_POINT('',(-8.,-1.4,0.9));
#1538=CARTESIAN_POINT('',(-8.,-0.9,0.9));
#1539=CARTESIAN_POINT('',(-8.,-2.15638586528478,0.900000000000001));
#1540=CARTESIAN_POINT('',(-8.,-2.15638586528478,0.800000000000001));
#1541=CARTESIAN_POINT('',(-8.,-2.25014177247108,0.834782608695653));
#1542=CARTESIAN_POINT('',(-8.,0.,0.));
#1543=CARTESIAN_POINT('',(-8.,-2.25014177247108,-0.834782608695653));
#1544=CARTESIAN_POINT('',(-8.,-2.15638586528478,-0.800000000000001));
#1545=CARTESIAN_POINT('',(-8.,-2.15638586528478,-0.900000000000001));
#1546=CARTESIAN_POINT('',(-8.,-2.2248595461287,-0.900000000000001));
#1547=CARTESIAN_POINT('',(-8.,-1.4,-0.900000000000001));
#1548=CARTESIAN_POINT('',(-8.,-1.4,-1.4));
#1549=CARTESIAN_POINT('',(-8.,-0.9,-1.4));
#1550=CARTESIAN_POINT('',(-8.,-0.9,-0.900000000000001));
#1551=CARTESIAN_POINT('',(-8.,-0.9,-2.15638586528478));
#1552=CARTESIAN_POINT('',(-8.,-0.8,-2.15638586528478));
#1553=CARTESIAN_POINT('',(-8.,-0.834782608695652,-2.25014177247108));
#1554=CARTESIAN_POINT('',(-8.,0.,0.));
#1555=CARTESIAN_POINT('',(-8.,0.834782608695652,-2.25014177247108));
#1556=CARTESIAN_POINT('',(-8.,0.8,-2.15638586528478));
#1557=CARTESIAN_POINT('',(-8.,0.9,-2.15638586528478));
#1558=CARTESIAN_POINT('',(-8.,0.9,-2.2248595461287));
#1559=CARTESIAN_POINT('',(-8.,0.9,-1.4));
#1560=CARTESIAN_POINT('',(-8.,1.4,-1.4));
#1561=CARTESIAN_POINT('',(-8.,1.4,-0.900000000000001));
#1562=CARTESIAN_POINT('',(-8.,0.9,-0.900000000000001));
#1563=CARTESIAN_POINT('',(-8.,2.15638586528478,-0.900000000000001));
#1564=CARTESIAN_POINT('',(-8.,2.15638586528478,-0.800000000000001));
#1565=CARTESIAN_POINT('',(-8.,2.25014177247108,-0.834782608695653));
#1566=CARTESIAN_POINT('',(-8.,0.,0.));
#1567=CARTESIAN_POINT('',(-8.,2.25014177247108,0.834782608695652));
#1568=CARTESIAN_POINT('',(-8.,2.15638586528478,0.8));
#1569=CARTESIAN_POINT('',(-8.,2.15638586528478,0.9));
#1570=CARTESIAN_POINT('',(-8.,2.2248595461287,0.9));
#1571=CARTESIAN_POINT('',(-8.,1.4,0.9));
#1572=CARTESIAN_POINT('',(-8.,1.4,1.4));
#1573=CARTESIAN_POINT('',(-8.,0.,0.));
#1574=CARTESIAN_POINT('',(-8.,0.,3.6));
#1575=CARTESIAN_POINT('',(-60.,0.,0.));
#1576=CARTESIAN_POINT('',(-7.,0.,0.));
#1577=CARTESIAN_POINT('',(-7.,0.,3.6));
#1578=CARTESIAN_POINT('',(-6.91183650964577,0.,0.));
#1579=CARTESIAN_POINT('',(-6.8501220663978,0.,0.));
#1580=CARTESIAN_POINT('',(-60.,0.,0.));
#1581=CARTESIAN_POINT('',(-6.8501220663978,-2.75,-6.42749580944422E-13));
#1582=CARTESIAN_POINT('',(-6.85012206639747,-2.74999999999995,-0.208880791958489));
#1583=CARTESIAN_POINT('',(-6.6617045645305,-2.72075357208256,-0.400000000000001));
#1584=CARTESIAN_POINT('',(-6.4501220663978,-2.72075357208256,-0.4));
#1585=CARTESIAN_POINT('',(-6.4501220663978,-2.72075357208256,-0.400000000000007));
#1586=CARTESIAN_POINT('',(-6.4501220663978,2.72075357208256,-0.4));
#1587=CARTESIAN_POINT('',(-6.66190656533048,2.72075357208256,-0.4));
#1588=CARTESIAN_POINT('',(-6.85012206639814,2.75000000000005,-0.209079983732885));
#1589=CARTESIAN_POINT('',(-6.8501220663978,2.75,6.42749580944422E-13));
#1590=CARTESIAN_POINT('',(-6.4501220663978,2.72075357208256,-0.4));
#1591=CARTESIAN_POINT('',(-60.,2.72075357208256,-0.400000000000007));
#1592=CARTESIAN_POINT('',(-1.5498779336022,2.72075357208256,-0.400000000000007));
#1593=CARTESIAN_POINT('',(-1.1498779336022,2.75,4.85106128683475E-17));
#1594=CARTESIAN_POINT('',(-1.1498779336022,2.75,-0.208880791958041));
#1595=CARTESIAN_POINT('',(-1.33829543546928,2.72075357208256,-0.4));
#1596=CARTESIAN_POINT('',(-1.5498779336022,2.72075357208256,-0.4));
#1597=CARTESIAN_POINT('',(-1.1498779336022,0.,0.));
#1598=CARTESIAN_POINT('',(-1.5498779336022,-2.72075357208256,-0.4));
#1599=CARTESIAN_POINT('',(-1.33809343466974,-2.72075357208256,-0.4));
#1600=CARTESIAN_POINT('',(-1.1498779336022,-2.75,-0.209079983733293));
#1601=CARTESIAN_POINT('',(-1.1498779336022,-2.75,-4.85106128683475E-17));
#1602=CARTESIAN_POINT('',(-1.5498779336022,-2.72075357208256,-0.4));
#1603=CARTESIAN_POINT('',(-60.,-2.72075357208256,-0.400000000000007));
#1604=CARTESIAN_POINT('',(-1.08816349035423,0.,0.));
#1605=CARTESIAN_POINT('',(-1.,-1.56242977306435,3.24327199048154));
#1606=CARTESIAN_POINT('',(-1.035999224314,-1.67267137468645,2.96354613023685));
#1607=CARTESIAN_POINT('',(-1.06853880687328,-1.7830468461545,2.68348059007761));
#1608=CARTESIAN_POINT('',(-1.09533233384,-1.89364465959652,2.40285088177294));
#1609=CARTESIAN_POINT('',(-1.09533233384,-1.89364465959652,2.40285088177294));
#1610=CARTESIAN_POINT('',(-1.09533233384,1.89364465959652,2.40285088177294));
#1611=CARTESIAN_POINT('',(-1.06853880687328,1.7830468461545,2.68348059007761));
#1612=CARTESIAN_POINT('',(-1.035999224314,1.67267137468645,2.96354613023685));
#1613=CARTESIAN_POINT('',(-1.,1.56242977306435,3.24327199048154));
#1614=CARTESIAN_POINT('',(-1.09533233384,1.89364465959652,2.40285088177294));
#1615=CARTESIAN_POINT('',(-1.09533233384,2.40285088177294,1.89364465959652));
#1616=CARTESIAN_POINT('',(-1.10031379424386,2.2331154743808,2.06338006698866));
#1617=CARTESIAN_POINT('',(-1.10031379424386,2.06338006698866,2.2331154743808));
#1618=CARTESIAN_POINT('',(-1.09533233384,1.89364465959652,2.40285088177294));
#1619=CARTESIAN_POINT('',(-1.09533233384,2.40285088177294,1.89364465959652));
#1620=CARTESIAN_POINT('',(-1.,3.24327199048154,1.56242977306435));
#1621=CARTESIAN_POINT('',(-1.035999224314,2.96354613023685,1.67267137468645));
#1622=CARTESIAN_POINT('',(-1.06853880687328,2.68348059007761,1.7830468461545));
#1623=CARTESIAN_POINT('',(-1.09533233384,2.40285088177294,1.89364465959652));
#1624=CARTESIAN_POINT('',(-1.09533233384,2.40285088177294,-1.89364465959652));
#1625=CARTESIAN_POINT('',(-1.06853880687328,2.68348059007761,-1.78304684615451));
#1626=CARTESIAN_POINT('',(-1.035999224314,2.96354613023684,-1.67267137468646));
#1627=CARTESIAN_POINT('',(-1.,3.24327199048153,-1.56242977306435));
#1628=CARTESIAN_POINT('',(-1.09533233384,2.40285088177294,-1.89364465959652));
#1629=CARTESIAN_POINT('',(-1.09533233384,1.89364465959652,-2.40285088177294));
#1630=CARTESIAN_POINT('',(-1.10031379424386,2.06338006698866,-2.2331154743808));
#1631=CARTESIAN_POINT('',(-1.10031379424386,2.2331154743808,-2.06338006698866));
#1632=CARTESIAN_POINT('',(-1.09533233384,2.40285088177294,-1.89364465959652));
#1633=CARTESIAN_POINT('',(-1.09533233384,1.89364465959652,-2.40285088177294));
#1634=CARTESIAN_POINT('',(-1.,1.56242977306435,-3.24327199048154));
#1635=CARTESIAN_POINT('',(-1.035999224314,1.67267137468645,-2.96354613023685));
#1636=CARTESIAN_POINT('',(-1.06853880687328,1.7830468461545,-2.68348059007761));
#1637=CARTESIAN_POINT('',(-1.09533233384,1.89364465959652,-2.40285088177294));
#1638=CARTESIAN_POINT('',(-1.09533233384,-1.89364465959652,-2.40285088177294));
#1639=CARTESIAN_POINT('',(-1.06853880687328,-1.78304684615451,-2.68348059007761));
#1640=CARTESIAN_POINT('',(-1.035999224314,-1.67267137468646,-2.96354613023684));
#1641=CARTESIAN_POINT('',(-1.,-1.56242977306435,-3.24327199048153));
#1642=CARTESIAN_POINT('',(-1.09533233384,-1.89364465959652,-2.40285088177294));
#1643=CARTESIAN_POINT('',(-1.09533233384,-2.40285088177294,-1.89364465959652));
#1644=CARTESIAN_POINT('',(-1.10031379424386,-2.2331154743808,-2.06338006698866));
#1645=CARTESIAN_POINT('',(-1.10031379424386,-2.06338006698866,-2.2331154743808));
#1646=CARTESIAN_POINT('',(-1.09533233384,-1.89364465959652,-2.40285088177294));
#1647=CARTESIAN_POINT('',(-1.09533233384,-2.40285088177294,-1.89364465959652));
#1648=CARTESIAN_POINT('',(-1.,-3.24327199048154,-1.56242977306435));
#1649=CARTESIAN_POINT('',(-1.035999224314,-2.96354613023685,-1.67267137468645));
#1650=CARTESIAN_POINT('',(-1.06853880687328,-2.68348059007761,-1.7830468461545));
#1651=CARTESIAN_POINT('',(-1.09533233384,-2.40285088177294,-1.89364465959652));
#1652=CARTESIAN_POINT('',(-1.09533233384,-2.40285088177294,1.89364465959652));
#1653=CARTESIAN_POINT('',(-1.06853880687328,-2.68348059007761,1.7830468461545));
#1654=CARTESIAN_POINT('',(-1.035999224314,-2.96354613023684,1.67267137468645));
#1655=CARTESIAN_POINT('',(-1.,-3.24327199048154,1.56242977306435));
#1656=CARTESIAN_POINT('',(-1.09533233384,-2.40285088177294,1.89364465959652));
#1657=CARTESIAN_POINT('',(-1.09533233384,-1.89364465959652,2.40285088177294));
#1658=CARTESIAN_POINT('',(-1.10031379424386,-2.06338006698866,2.2331154743808));
#1659=CARTESIAN_POINT('',(-1.10031379424386,-2.2331154743808,2.06338006698866));
#1660=CARTESIAN_POINT('',(-1.09533233384,-2.40285088177294,1.89364465959652));
#1661=CARTESIAN_POINT('',(0.,0.,2.));
#1662=CARTESIAN_POINT('',(0.,1.56242977306435,3.24327199048154));
#1663=CARTESIAN_POINT('',(0.,1.89364465959652,2.40285088177294));
#1664=CARTESIAN_POINT('',(0.,-1.89364465959652,2.40285088177294));
#1665=CARTESIAN_POINT('',(0.,-1.89364465959652,2.40285088177294));
#1666=CARTESIAN_POINT('',(0.,-2.40285088177294,1.89364465959652));
#1667=CARTESIAN_POINT('',(0.,-2.40285088177294,1.89364465959652));
#1668=CARTESIAN_POINT('',(0.,-2.40285088177294,1.89364465959652));
#1669=CARTESIAN_POINT('',(0.,-3.24327199048154,-1.56242977306435));
#1670=CARTESIAN_POINT('',(0.,-2.40285088177294,-1.89364465959652));
#1671=CARTESIAN_POINT('',(0.,-2.40285088177294,-1.89364465959652));
#1672=CARTESIAN_POINT('',(0.,-1.89364465959652,-2.40285088177294));
#1673=CARTESIAN_POINT('',(0.,-1.56242977306435,-3.24327199048154));
#1674=CARTESIAN_POINT('',(0.,1.56242977306435,-3.24327199048154));
#1675=CARTESIAN_POINT('',(0.,1.89364465959652,-2.40285088177294));
#1676=CARTESIAN_POINT('',(0.,2.40285088177294,-1.89364465959652));
#1677=CARTESIAN_POINT('',(0.,2.40285088177294,-1.89364465959652));
#1678=CARTESIAN_POINT('',(0.,3.24327199048154,-1.56242977306435));
#1679=CARTESIAN_POINT('',(0.,3.24327199048154,1.56242977306435));
#1680=CARTESIAN_POINT('',(0.,2.40285088177294,1.89364465959652));
#1681=CARTESIAN_POINT('',(0.,1.89364465959652,2.40285088177294));
#1682=CARTESIAN_POINT('',(0.,0.9,0.9));
#1683=CARTESIAN_POINT('',(0.,0.9,1.4));
#1684=CARTESIAN_POINT('',(0.,0.9,2.15638586528478));
#1685=CARTESIAN_POINT('',(0.,1.4,1.4));
#1686=CARTESIAN_POINT('',(0.,1.4,0.9));
#1687=CARTESIAN_POINT('',(0.,2.2248595461287,0.9));
#1688=CARTESIAN_POINT('',(0.,2.15638586528478,0.9));
#1689=CARTESIAN_POINT('',(0.,2.15638586528478,0.8));
#1690=CARTESIAN_POINT('',(-3.46944695195361E-15,2.25014177247108,0.834782608695652));
#1691=CARTESIAN_POINT('',(0.,0.,0.));
#1692=CARTESIAN_POINT('',(-3.46944695195361E-15,2.25014177247108,-0.834782608695653));
#1693=CARTESIAN_POINT('',(0.,2.15638586528478,-0.800000000000001));
#1694=CARTESIAN_POINT('',(-3.46944695195361E-15,2.15638586528478,-0.900000000000001));
#1695=CARTESIAN_POINT('',(0.,0.9,-0.900000000000001));
#1696=CARTESIAN_POINT('',(0.,1.4,-0.900000000000001));
#1697=CARTESIAN_POINT('',(0.,1.4,-1.4));
#1698=CARTESIAN_POINT('',(0.,0.9,-1.4));
#1699=CARTESIAN_POINT('',(0.,0.9,-2.2248595461287));
#1700=CARTESIAN_POINT('',(0.,0.9,-2.15638586528478));
#1701=CARTESIAN_POINT('',(0.,0.8,-2.15638586528478));
#1702=CARTESIAN_POINT('',(-3.46944695195361E-15,0.834782608695652,-2.25014177247108));
#1703=CARTESIAN_POINT('',(0.,0.,0.));
#1704=CARTESIAN_POINT('',(-3.46944695195361E-15,-0.834782608695652,-2.25014177247108));
#1705=CARTESIAN_POINT('',(0.,-0.8,-2.15638586528478));
#1706=CARTESIAN_POINT('',(0.,-0.9,-2.15638586528478));
#1707=CARTESIAN_POINT('',(0.,-0.9,-0.900000000000001));
#1708=CARTESIAN_POINT('',(0.,-0.9,-1.4));
#1709=CARTESIAN_POINT('',(0.,-1.4,-1.4));
#1710=CARTESIAN_POINT('',(0.,-1.4,-0.900000000000001));
#1711=CARTESIAN_POINT('',(0.,-2.2248595461287,-0.900000000000001));
#1712=CARTESIAN_POINT('',(0.,-2.15638586528478,-0.900000000000001));
#1713=CARTESIAN_POINT('',(0.,-2.15638586528478,-0.800000000000001));
#1714=CARTESIAN_POINT('',(-3.46944695195361E-15,-2.25014177247108,-0.834782608695653));
#1715=CARTESIAN_POINT('',(0.,0.,0.));
#1716=CARTESIAN_POINT('',(-3.46944695195361E-15,-2.25014177247108,0.834782608695653));
#1717=CARTESIAN_POINT('',(0.,-2.15638586528478,0.800000000000001));
#1718=CARTESIAN_POINT('',(-3.46944695195361E-15,-2.15638586528478,0.900000000000001));
#1719=CARTESIAN_POINT('',(0.,-0.9,0.9));
#1720=CARTESIAN_POINT('',(0.,-1.4,0.9));
#1721=CARTESIAN_POINT('',(0.,-1.4,1.4));
#1722=CARTESIAN_POINT('',(0.,-0.899999999999999,1.4));
#1723=CARTESIAN_POINT('',(0.,-0.899999999999999,2.2248595461287));
#1724=CARTESIAN_POINT('',(-3.46944695195361E-15,-0.899999999999999,2.15638586528478));
#1725=CARTESIAN_POINT('',(0.,-0.799999999999999,2.15638586528478));
#1726=CARTESIAN_POINT('',(0.,-0.834782608695651,2.25014177247108));
#1727=CARTESIAN_POINT('',(0.,0.,0.));
#1728=CARTESIAN_POINT('',(0.,0.834782608695652,2.25014177247108));
#1729=CARTESIAN_POINT('',(0.,0.8,2.15638586528478));
#1730=CARTESIAN_POINT('',(0.,-0.899999999999999,2.2248595461287));
#1731=CARTESIAN_POINT('',(0.,-0.899999999999999,2.15638586528478));
#1732=CARTESIAN_POINT('',(0.,-0.899999999999999,1.4));
#1733=CARTESIAN_POINT('',(0.,-0.9,0.9));
#1734=CARTESIAN_POINT('',(-8.,-2.15638586528478,0.900000000000001));
#1735=CARTESIAN_POINT('',(0.,-1.4,0.9));
#1736=CARTESIAN_POINT('',(0.,0.,0.));
#1737=CARTESIAN_POINT('',(-6.4501220663978,-2.36643191323985,-0.4));
#1738=CARTESIAN_POINT('',(-6.66189938056468,-2.36643191323985,-0.4));
#1739=CARTESIAN_POINT('',(-7.03834444546876,-2.43356804728185,-0.000615622984668606));
#1740=CARTESIAN_POINT('',(-6.66189952034937,-2.36643191323985,0.400000000000001));
#1741=CARTESIAN_POINT('',(-6.4501220663978,-2.36643191323985,0.400000000000001));
#1742=CARTESIAN_POINT('',(-6.4501220663978,-2.36643191323985,-0.4));
#1743=CARTESIAN_POINT('',(-6.4501220663978,-2.36643191323985,0.4));
#1744=CARTESIAN_POINT('',(5.31011342179947E-17,-2.36643191323985,-0.399999999999999));
#1745=CARTESIAN_POINT('',(-1.5498779336022,-2.36643191323985,-0.399999999999999));
#1746=CARTESIAN_POINT('',(-1.5498779336022,-2.36643191323985,0.4));
#1747=CARTESIAN_POINT('',(-1.33810061943532,-2.36643191323985,0.4));
#1748=CARTESIAN_POINT('',(-0.961655554531236,-2.43356804728185,0.000615622984668769));
#1749=CARTESIAN_POINT('',(-1.33810047965063,-2.36643191323985,-0.4));
#1750=CARTESIAN_POINT('',(-1.5498779336022,-2.36643191323985,-0.4));
#1751=CARTESIAN_POINT('',(-1.5498779336022,-2.36643191323985,0.400000000000001));
#1752=CARTESIAN_POINT('',(-1.32752835544987E-17,-2.36643191323985,0.400000000000001));
#1753=CARTESIAN_POINT('',(0.,-2.25014177247108,0.834782608695653));
#1754=CARTESIAN_POINT('',(0.,-2.25014177247108,-0.834782608695653));
#1755=CARTESIAN_POINT('',(0.,-2.2248595461287,-0.900000000000001));
#1756=CARTESIAN_POINT('',(0.,-2.15638586528478,-0.900000000000001));
#1757=CARTESIAN_POINT('',(0.,-1.4,-0.900000000000001));
#1758=CARTESIAN_POINT('',(0.,-0.9,-0.900000000000001));
#1759=CARTESIAN_POINT('',(-8.,-0.9,-2.15638586528478));
#1760=CARTESIAN_POINT('',(0.,-0.9,-1.4));
#1761=CARTESIAN_POINT('',(0.,0.,0.));
#1762=CARTESIAN_POINT('',(0.,0.834782608695652,-2.25014177247108));
#1763=CARTESIAN_POINT('',(0.,-0.834782608695652,-2.25014177247108));
#1764=CARTESIAN_POINT('',(0.,0.9,-2.2248595461287));
#1765=CARTESIAN_POINT('',(0.,0.9,-2.15638586528478));
#1766=CARTESIAN_POINT('',(0.,0.9,-1.4));
#1767=CARTESIAN_POINT('',(0.,0.9,-0.900000000000001));
#1768=CARTESIAN_POINT('',(-8.,2.15638586528478,-0.900000000000001));
#1769=CARTESIAN_POINT('',(0.,1.4,-0.900000000000001));
#1770=CARTESIAN_POINT('',(0.,0.,0.));
#1771=CARTESIAN_POINT('',(-6.4501220663978,2.36643191323985,0.4));
#1772=CARTESIAN_POINT('',(-6.66189938056468,2.36643191323985,0.4));
#1773=CARTESIAN_POINT('',(-7.03834444546876,2.43356804728185,0.000615622984668606));
#1774=CARTESIAN_POINT('',(-6.66189952034937,2.36643191323985,-0.400000000000001));
#1775=CARTESIAN_POINT('',(-6.4501220663978,2.36643191323985,-0.400000000000001));
#1776=CARTESIAN_POINT('',(-6.4501220663978,2.36643191323985,0.4));
#1777=CARTESIAN_POINT('',(-6.4501220663978,2.36643191323985,-0.399999999999999));
#1778=CARTESIAN_POINT('',(-1.32752835544987E-17,2.36643191323985,0.400000000000001));
#1779=CARTESIAN_POINT('',(-1.5498779336022,2.36643191323985,0.400000000000001));
#1780=CARTESIAN_POINT('',(-1.5498779336022,2.36643191323985,-0.4));
#1781=CARTESIAN_POINT('',(-1.33810061943532,2.36643191323985,-0.4));
#1782=CARTESIAN_POINT('',(-0.961655554531236,2.43356804728185,-0.000615622984668146));
#1783=CARTESIAN_POINT('',(-1.33810047965063,2.36643191323985,0.4));
#1784=CARTESIAN_POINT('',(-1.5498779336022,2.36643191323985,0.4));
#1785=CARTESIAN_POINT('',(-1.5498779336022,2.36643191323985,-0.4));
#1786=CARTESIAN_POINT('',(5.31011342179947E-17,2.36643191323985,-0.399999999999999));
#1787=CARTESIAN_POINT('',(0.,2.25014177247108,-0.834782608695653));
#1788=CARTESIAN_POINT('',(0.,2.25014177247108,0.834782608695652));
#1789=CARTESIAN_POINT('',(0.,2.2248595461287,0.9));
#1790=CARTESIAN_POINT('',(0.,2.15638586528478,0.9));
#1791=CARTESIAN_POINT('',(0.,1.4,0.9));
#1792=CARTESIAN_POINT('',(0.,0.9,0.9));
#1793=CARTESIAN_POINT('',(-8.,0.9,2.15638586528478));
#1794=CARTESIAN_POINT('',(0.,0.9,1.4));
#1795=CARTESIAN_POINT('',(0.,0.,0.));
#1796=CARTESIAN_POINT('',(0.,0.834782608695652,2.25014177247108));
#1797=CARTESIAN_POINT('',(0.,-0.834782608695651,2.25014177247108));
#1798=CARTESIAN_POINT('',(0.,-1.4,-1.4));
#1799=CARTESIAN_POINT('',(0.,1.4,1.4));
#1800=CARTESIAN_POINT('',(0.,1.4,-1.4));
#1801=CARTESIAN_POINT('',(0.,-1.4,1.4));
#1802=CARTESIAN_POINT('',(0.,-0.8,-2.15638586528478));
#1803=CARTESIAN_POINT('',(0.,-2.15638586528478,-0.800000000000001));
#1804=CARTESIAN_POINT('',(0.,-2.15638586528478,0.800000000000001));
#1805=CARTESIAN_POINT('',(0.,-0.799999999999999,2.15638586528478));
#1806=CARTESIAN_POINT('',(0.,0.8,2.15638586528478));
#1807=CARTESIAN_POINT('',(0.,2.15638586528478,0.8));
#1808=CARTESIAN_POINT('',(0.,2.15638586528478,-0.800000000000001));
#1809=CARTESIAN_POINT('',(0.,0.8,-2.15638586528478));
#1810=CARTESIAN_POINT('',(-1.5498779336022,-30.,-0.399999999999999));
#1811=CARTESIAN_POINT('',(-6.4501220663978,-30.,-0.4));
#1812=CARTESIAN_POINT('',(-1.5498779336022,-30.,-0.4));
#1813=CARTESIAN_POINT('',(-1.5498779336022,-30.,-4.74338450462408E-17));
#1814=CARTESIAN_POINT('',(-1.5498779336022,-30.,0.400000000000001));
#1815=CARTESIAN_POINT('',(-6.4501220663978,-30.,0.4));
#1816=CARTESIAN_POINT('',(-6.4501220663978,-30.,0.4));
#1817=CARTESIAN_POINT('',(-6.4501220663978,-30.,0.));
#1818=CARTESIAN_POINT('',(-6.4501220663978,-30.,0.));
#1819=CARTESIAN_POINT('',(-6.4501220663978,-30.,-0.4));
#1820=CARTESIAN_POINT('',(-6.4501220663978,-30.,0.4));
#1821=CARTESIAN_POINT('',(-6.4501220663978,-30.,0.4));
#1822=CARTESIAN_POINT('',(-1.5498779336022,-30.,0.400000000000001));
#1823=CARTESIAN_POINT('',(-1.5498779336022,-30.,-4.74338450462408E-17));
#1824=CARTESIAN_POINT('',(-1.5498779336022,-30.,-0.4));
#1825=CARTESIAN_POINT('',(-1.5498779336022,-30.,-0.399999999999999));
#1826=CARTESIAN_POINT('',(-6.,1.89364465959652,2.40285088177294));
#1827=CARTESIAN_POINT('',(-6.,1.89364465959652,2.40285088177294));
#1828=CARTESIAN_POINT('',(-6.,2.40285088177294,1.89364465959652));
#1829=CARTESIAN_POINT('',(-6.,1.56242977306435,3.24327199048154));
#1830=CARTESIAN_POINT('',(-6.,3.24327199048154,1.56242977306435));
#1831=CARTESIAN_POINT('',(-6.,2.40285088177294,-1.89364465959652));
#1832=CARTESIAN_POINT('',(-6.,2.40285088177294,-1.89364465959652));
#1833=CARTESIAN_POINT('',(-6.,1.89364465959652,-2.40285088177294));
#1834=CARTESIAN_POINT('',(-6.,3.24327199048154,-1.56242977306435));
#1835=CARTESIAN_POINT('',(-6.,1.56242977306435,-3.24327199048154));
#1836=CARTESIAN_POINT('',(-6.,-2.40285088177294,-1.89364465959652));
#1837=CARTESIAN_POINT('',(-6.,-1.89364465959652,-2.40285088177294));
#1838=CARTESIAN_POINT('',(-6.,-2.40285088177294,-1.89364465959652));
#1839=CARTESIAN_POINT('',(-6.,-1.56242977306435,-3.24327199048154));
#1840=CARTESIAN_POINT('',(-6.,-3.24327199048154,-1.56242977306435));
#1841=CARTESIAN_POINT('',(-6.,-1.89364465959652,2.40285088177294));
#1842=CARTESIAN_POINT('',(-6.,-1.89364465959652,2.40285088177294));
#1843=CARTESIAN_POINT('',(-6.,-2.40285088177294,1.89364465959652));
#1844=CARTESIAN_POINT('',(-6.,-2.40285088177294,1.89364465959652));
#1845=CARTESIAN_POINT('',(-6.,-2.40285088177294,1.89364465959652));
#1846=MECHANICAL_DESIGN_GEOMETRIC_PRESENTATION_REPRESENTATION('',(#1057),
#1847);
#1847=(
GEOMETRIC_REPRESENTATION_CONTEXT(3)
GLOBAL_UNCERTAINTY_ASSIGNED_CONTEXT((#1848))
GLOBAL_UNIT_ASSIGNED_CONTEXT((#1851,#1850,#1849))
REPRESENTATION_CONTEXT('ClGray_4211622_JCA','TOP_LEVEL_ASSEMBLY_PART')
);
#1848=UNCERTAINTY_MEASURE_WITH_UNIT(LENGTH_MEASURE(0.005),#1851,
'DISTANCE_ACCURACY_VALUE','Maximum Tolerance applied to model');
#1849=(
NAMED_UNIT(*)
SI_UNIT($,.STERADIAN.)
SOLID_ANGLE_UNIT()
);
#1850=(
NAMED_UNIT(*)
PLANE_ANGLE_UNIT()
SI_UNIT($,.RADIAN.)
);
#1851=(
LENGTH_UNIT()
NAMED_UNIT(*)
SI_UNIT(.MILLI.,.METRE.)
);
#1852=PRODUCT_DEFINITION_SHAPE('','',#1853);
#1853=PRODUCT_DEFINITION('','',#1855,#1854);
#1854=PRODUCT_DEFINITION_CONTEXT('',#1861,'design');
#1855=PRODUCT_DEFINITION_FORMATION_WITH_SPECIFIED_SOURCE('','',#1857,
 .NOT_KNOWN.);
#1856=PRODUCT_RELATED_PRODUCT_CATEGORY('','',(#1857));
#1857=PRODUCT('ClGray_4211622_JCA','ClGray_4211622_JCA',
'ClGray_4211622_JCA',(#1859));
#1858=PRODUCT_CATEGORY('','');
#1859=PRODUCT_CONTEXT('',#1861,'mechanical');
#1860=APPLICATION_PROTOCOL_DEFINITION('international standard',
'automotive_design',2010,#1861);
#1861=APPLICATION_CONTEXT(
'core data for automotive mechanical design processes');
ENDSEC;
END-ISO-10303-21;
