ISO-10303-21;
HEADER;
/* Generated by software containing ST-Developer
 * from STEP Tools, Inc. (www.steptools.com) 
 */
/* OPTION: strings as raw bytes, not using required /X/ escapes */

FILE_DESCRIPTION(
/* description */ ('Unknown'),
/* implementation_level */ '2;1');

FILE_NAME(
/* name */ 'ClGray_4560175_AVV',
/* time_stamp */ '2025-07-21T23:57:11+02:00',
/* author */ ('Unknown'),
/* organization */ ('Unknown'),
/* preprocessor_version */ 'ST-DEVELOPER v19.4',
/* originating_system */ 'Solid Edge',
/* authorisation */ 'Unknown');

FILE_SCHEMA (('AUTOMOTIVE_DESIGN {1 0 10303 214 3 1 1}'));
ENDSEC;

DATA;
#10=PROPERTY_DEFINITION_REPRESENTATION(#14,#12);
#11=PROPERTY_DEFINITION_REPRESENTATION(#15,#13);
#12=REPRESENTATION('',(#16),#1567);
#13=REPRESENTATION('',(#17),#1567);
#14=PROPERTY_DEFINITION('pmi validation property','',#1572);
#15=PROPERTY_DEFINITION('pmi validation property','',#1572);
#16=VALUE_REPRESENTATION_ITEM('number of annotations',COUNT_MEASURE(0.));
#17=VALUE_REPRESENTATION_ITEM('number of views',COUNT_MEASURE(0.));
#18=SHAPE_REPRESENTATION_RELATIONSHIP('','',#865,#19);
#19=ADVANCED_BREP_SHAPE_REPRESENTATION('',(#863),#1567);
#20=TOROIDAL_SURFACE('',#949,2.5,0.1);
#21=TOROIDAL_SURFACE('',#950,3.,0.1);
#22=TOROIDAL_SURFACE('',#951,2.5,0.1);
#23=TOROIDAL_SURFACE('',#952,2.5,0.1);
#24=TOROIDAL_SURFACE('',#953,2.5,0.1);
#25=TOROIDAL_SURFACE('',#954,2.5,0.1);
#26=TOROIDAL_SURFACE('',#955,3.,0.1);
#27=TOROIDAL_SURFACE('',#956,2.5,0.1);
#28=TOROIDAL_SURFACE('',#957,2.5,0.1);
#29=TOROIDAL_SURFACE('',#958,2.5,0.1);
#30=PLANE('',#871);
#31=PLANE('',#873);
#32=PLANE('',#881);
#33=PLANE('',#887);
#34=PLANE('',#893);
#35=PLANE('',#898);
#36=PLANE('',#900);
#37=PLANE('',#902);
#38=PLANE('',#906);
#39=PLANE('',#908);
#40=PLANE('',#910);
#41=PLANE('',#914);
#42=PLANE('',#919);
#43=PLANE('',#924);
#44=PLANE('',#930);
#45=PLANE('',#934);
#46=PLANE('',#937);
#47=PLANE('',#939);
#48=PLANE('',#941);
#49=PLANE('',#942);
#50=PLANE('',#943);
#51=PLANE('',#945);
#52=PLANE('',#946);
#53=PLANE('',#947);
#54=B_SPLINE_CURVE_WITH_KNOTS('',3,(#1202,#1203,#1204,#1205,#1206),
 .UNSPECIFIED.,.F.,.F.,(4,1,4),(0.,0.000626227329652795,0.00125245465930559),
 .UNSPECIFIED.);
#55=B_SPLINE_CURVE_WITH_KNOTS('',3,(#1214,#1215,#1216,#1217,#1218),
 .UNSPECIFIED.,.F.,.F.,(4,1,4),(0.,0.000626227329652796,0.00125245465930559),
 .UNSPECIFIED.);
#56=B_SPLINE_CURVE_WITH_KNOTS('',3,(#1263,#1264,#1265,#1266,#1267),
 .UNSPECIFIED.,.F.,.F.,(4,1,4),(1.77574311094842E-18,0.000626703356852404,
0.00125340671370481),.UNSPECIFIED.);
#57=B_SPLINE_CURVE_WITH_KNOTS('',3,(#1273,#1274,#1275,#1276,#1277),
 .UNSPECIFIED.,.F.,.F.,(4,1,4),(0.,0.000626703356852403,0.00125340671370481),
 .UNSPECIFIED.);
#58=B_SPLINE_CURVE_WITH_KNOTS('',3,(#1314,#1315,#1316,#1317,#1318,#1319,
#1320,#1321,#1322,#1323,#1324,#1325,#1326,#1327,#1328,#1329,#1330,#1331,
#1332,#1333,#1334,#1335,#1336),.UNSPECIFIED.,.T.,.F.,(1,1,1,1,1,1,1,1,1,
1,1,1,1,1,1,1,1,1,1,1,1,1,1,1,1,1,1),(-0.00390983036796713,-0.00260655357864475,
-0.00130327678932238,3.63429054664733E-20,0.00130327678932238,0.00260655357864475,
0.00390983036796713,0.00456146876262832,0.00521310715728951,0.0058647455519507,
0.00651638394661189,0.00781966073593426,0.00912293752525664,0.010426214314579,
0.0117294911039014,0.0130327678932238,0.0143360446825462,0.0149876830772073,
0.0156393214718685,0.0162909598665297,0.0169425982611909,0.0182458750505133,
0.0195491518398357,0.020852428629158,0.0221557054184804,0.0234589822078028,
0.0247622589971252),.UNSPECIFIED.);
#59=B_SPLINE_CURVE_WITH_KNOTS('',3,(#1349,#1350,#1351,#1352,#1353,#1354,
#1355,#1356,#1357,#1358,#1359,#1360,#1361,#1362,#1363,#1364,#1365,#1366,
#1367,#1368,#1369,#1370,#1371),.UNSPECIFIED.,.T.,.F.,(1,1,1,1,1,1,1,1,1,
1,1,1,1,1,1,1,1,1,1,1,1,1,1,1,1,1,1),(-0.00390983036796713,-0.00260655357864475,
-0.00130327678932238,3.63429054664733E-20,0.00130327678932238,0.00260655357864475,
0.00390983036796713,0.00456146876262832,0.00521310715728951,0.0058647455519507,
0.00651638394661189,0.00781966073593426,0.00912293752525664,0.010426214314579,
0.0117294911039014,0.0130327678932238,0.0143360446825462,0.0149876830772073,
0.0156393214718685,0.0162909598665297,0.0169425982611909,0.0182458750505133,
0.0195491518398357,0.020852428629158,0.0221557054184804,0.0234589822078028,
0.0247622589971252),.UNSPECIFIED.);
#60=B_SPLINE_CURVE_WITH_KNOTS('',3,(#1390,#1391,#1392,#1393,#1394),
 .UNSPECIFIED.,.F.,.F.,(4,1,4),(0.,0.000626703356852402,0.0012534067137048),
 .UNSPECIFIED.);
#61=B_SPLINE_CURVE_WITH_KNOTS('',3,(#1399,#1400,#1401,#1402,#1403),
 .UNSPECIFIED.,.F.,.F.,(4,1,4),(0.,0.000626703356852402,0.0012534067137048),
 .UNSPECIFIED.);
#62=B_SPLINE_CURVE_WITH_KNOTS('',3,(#1437,#1438,#1439,#1440,#1441),
 .UNSPECIFIED.,.F.,.F.,(4,1,4),(0.,0.000626227329652794,0.00125245465930559),
 .UNSPECIFIED.);
#63=B_SPLINE_CURVE_WITH_KNOTS('',3,(#1446,#1447,#1448,#1449,#1450),
 .UNSPECIFIED.,.F.,.F.,(4,1,4),(0.,0.000626227329652797,0.00125245465930559),
 .UNSPECIFIED.);
#64=B_SPLINE_CURVE_WITH_KNOTS('',3,(#1473,#1474,#1475,#1476),
 .UNSPECIFIED.,.F.,.F.,(4,4),(2.16840434497101E-18,0.000157204075759024),
 .UNSPECIFIED.);
#65=B_SPLINE_CURVE_WITH_KNOTS('',3,(#1477,#1478,#1479,#1480),
 .UNSPECIFIED.,.F.,.F.,(4,4),(0.,0.000157202770432763),.UNSPECIFIED.);
#66=B_SPLINE_CURVE_WITH_KNOTS('',3,(#1485,#1486,#1487,#1488),
 .UNSPECIFIED.,.F.,.F.,(4,4),(0.,0.000157204075759021),.UNSPECIFIED.);
#67=B_SPLINE_CURVE_WITH_KNOTS('',3,(#1489,#1490,#1491,#1492),
 .UNSPECIFIED.,.F.,.F.,(4,4),(0.,0.000157202770432765),.UNSPECIFIED.);
#68=B_SPLINE_CURVE_WITH_KNOTS('',3,(#1497,#1498,#1499,#1500),
 .UNSPECIFIED.,.F.,.F.,(4,4),(0.,0.000157202770432766),.UNSPECIFIED.);
#69=B_SPLINE_CURVE_WITH_KNOTS('',3,(#1501,#1502,#1503,#1504),
 .UNSPECIFIED.,.F.,.F.,(4,4),(4.33680868994202E-19,0.000157204075759022),
 .UNSPECIFIED.);
#70=B_SPLINE_CURVE_WITH_KNOTS('',3,(#1506,#1507,#1508,#1509),
 .UNSPECIFIED.,.F.,.F.,(4,4),(0.,0.000157202770432761),.UNSPECIFIED.);
#71=B_SPLINE_CURVE_WITH_KNOTS('',3,(#1510,#1511,#1512,#1513),
 .UNSPECIFIED.,.F.,.F.,(4,4),(2.60208521396521E-18,0.000157204075759024),
 .UNSPECIFIED.);
#72=B_SPLINE_CURVE_WITH_KNOTS('',3,(#1515,#1516,#1517,#1518),
 .UNSPECIFIED.,.F.,.F.,(4,4),(0.,0.000157202770432765),.UNSPECIFIED.);
#73=B_SPLINE_CURVE_WITH_KNOTS('',3,(#1520,#1521,#1522,#1523),
 .UNSPECIFIED.,.F.,.F.,(4,4),(0.,0.000157204075759022),.UNSPECIFIED.);
#74=B_SPLINE_CURVE_WITH_KNOTS('',3,(#1527,#1528,#1529,#1530),
 .UNSPECIFIED.,.F.,.F.,(4,4),(2.60208521396521E-18,0.000157204075759024),
 .UNSPECIFIED.);
#75=B_SPLINE_CURVE_WITH_KNOTS('',3,(#1531,#1532,#1533,#1534),
 .UNSPECIFIED.,.F.,.F.,(4,4),(0.,0.000157202770432763),.UNSPECIFIED.);
#76=B_SPLINE_CURVE_WITH_KNOTS('',3,(#1536,#1537,#1538,#1539),
 .UNSPECIFIED.,.F.,.F.,(4,4),(2.16840434497101E-18,0.000157204075759024),
 .UNSPECIFIED.);
#77=B_SPLINE_CURVE_WITH_KNOTS('',3,(#1540,#1541,#1542,#1543),
 .UNSPECIFIED.,.F.,.F.,(4,4),(0.,0.000157202770432762),.UNSPECIFIED.);
#78=B_SPLINE_CURVE_WITH_KNOTS('',3,(#1546,#1547,#1548,#1549),
 .UNSPECIFIED.,.F.,.F.,(4,4),(0.,0.000157202770432766),.UNSPECIFIED.);
#79=B_SPLINE_CURVE_WITH_KNOTS('',3,(#1551,#1552,#1553,#1554),
 .UNSPECIFIED.,.F.,.F.,(4,4),(0.,0.000157204075759021),.UNSPECIFIED.);
#80=LINE('',#1200,#128);
#81=LINE('',#1208,#129);
#82=LINE('',#1212,#130);
#83=LINE('',#1220,#131);
#84=LINE('',#1222,#132);
#85=LINE('',#1226,#133);
#86=LINE('',#1228,#134);
#87=LINE('',#1232,#135);
#88=LINE('',#1234,#136);
#89=LINE('',#1239,#137);
#90=LINE('',#1243,#138);
#91=LINE('',#1248,#139);
#92=LINE('',#1252,#140);
#93=LINE('',#1257,#141);
#94=LINE('',#1270,#142);
#95=LINE('',#1271,#143);
#96=LINE('',#1279,#144);
#97=LINE('',#1283,#145);
#98=LINE('',#1285,#146);
#99=LINE('',#1290,#147);
#100=LINE('',#1294,#148);
#101=LINE('',#1299,#149);
#102=LINE('',#1303,#150);
#103=LINE('',#1308,#151);
#104=LINE('',#1342,#152);
#105=LINE('',#1346,#153);
#106=LINE('',#1387,#154);
#107=LINE('',#1396,#155);
#108=LINE('',#1397,#156);
#109=LINE('',#1405,#157);
#110=LINE('',#1409,#158);
#111=LINE('',#1413,#159);
#112=LINE('',#1415,#160);
#113=LINE('',#1420,#161);
#114=LINE('',#1424,#162);
#115=LINE('',#1429,#163);
#116=LINE('',#1433,#164);
#117=LINE('',#1435,#165);
#118=LINE('',#1443,#166);
#119=LINE('',#1444,#167);
#120=LINE('',#1481,#168);
#121=LINE('',#1483,#169);
#122=LINE('',#1494,#170);
#123=LINE('',#1495,#171);
#124=LINE('',#1519,#172);
#125=LINE('',#1525,#173);
#126=LINE('',#1544,#174);
#127=LINE('',#1550,#175);
#128=VECTOR('',#967,1000.);
#129=VECTOR('',#968,1000.);
#130=VECTOR('',#971,1000.);
#131=VECTOR('',#972,1000.);
#132=VECTOR('',#975,1000.);
#133=VECTOR('',#978,1000.);
#134=VECTOR('',#981,1000.);
#135=VECTOR('',#984,1000.);
#136=VECTOR('',#987,1000.);
#137=VECTOR('',#990,1000.);
#138=VECTOR('',#995,1000.);
#139=VECTOR('',#998,1000.);
#140=VECTOR('',#1003,1000.);
#141=VECTOR('',#1006,1000.);
#142=VECTOR('',#1013,1000.);
#143=VECTOR('',#1014,1000.);
#144=VECTOR('',#1015,1000.);
#145=VECTOR('',#1018,1000.);
#146=VECTOR('',#1021,1000.);
#147=VECTOR('',#1024,1000.);
#148=VECTOR('',#1029,1000.);
#149=VECTOR('',#1032,1000.);
#150=VECTOR('',#1037,1000.);
#151=VECTOR('',#1040,1000.);
#152=VECTOR('',#1053,1000.);
#153=VECTOR('',#1056,1000.);
#154=VECTOR('',#1079,1000.);
#155=VECTOR('',#1080,1000.);
#156=VECTOR('',#1081,1000.);
#157=VECTOR('',#1082,1000.);
#158=VECTOR('',#1087,1000.);
#159=VECTOR('',#1090,1000.);
#160=VECTOR('',#1093,1000.);
#161=VECTOR('',#1096,1000.);
#162=VECTOR('',#1101,1000.);
#163=VECTOR('',#1104,1000.);
#164=VECTOR('',#1109,1000.);
#165=VECTOR('',#1110,1000.);
#166=VECTOR('',#1111,1000.);
#167=VECTOR('',#1112,1000.);
#168=VECTOR('',#1143,1000.);
#169=VECTOR('',#1146,1000.);
#170=VECTOR('',#1151,1000.);
#171=VECTOR('',#1152,1000.);
#172=VECTOR('',#1159,1000.);
#173=VECTOR('',#1162,1000.);
#174=VECTOR('',#1167,1000.);
#175=VECTOR('',#1170,1000.);
#176=ORIENTED_EDGE('',*,*,#404,.F.);
#177=ORIENTED_EDGE('',*,*,#405,.T.);
#178=ORIENTED_EDGE('',*,*,#406,.T.);
#179=ORIENTED_EDGE('',*,*,#407,.T.);
#180=ORIENTED_EDGE('',*,*,#408,.T.);
#181=ORIENTED_EDGE('',*,*,#409,.T.);
#182=ORIENTED_EDGE('',*,*,#410,.T.);
#183=ORIENTED_EDGE('',*,*,#411,.T.);
#184=ORIENTED_EDGE('',*,*,#412,.T.);
#185=ORIENTED_EDGE('',*,*,#413,.T.);
#186=ORIENTED_EDGE('',*,*,#414,.T.);
#187=ORIENTED_EDGE('',*,*,#415,.T.);
#188=ORIENTED_EDGE('',*,*,#405,.F.);
#189=ORIENTED_EDGE('',*,*,#416,.T.);
#190=ORIENTED_EDGE('',*,*,#417,.T.);
#191=ORIENTED_EDGE('',*,*,#418,.T.);
#192=ORIENTED_EDGE('',*,*,#409,.F.);
#193=ORIENTED_EDGE('',*,*,#419,.T.);
#194=ORIENTED_EDGE('',*,*,#420,.T.);
#195=ORIENTED_EDGE('',*,*,#421,.T.);
#196=ORIENTED_EDGE('',*,*,#422,.T.);
#197=ORIENTED_EDGE('',*,*,#423,.T.);
#198=ORIENTED_EDGE('',*,*,#424,.T.);
#199=ORIENTED_EDGE('',*,*,#425,.T.);
#200=ORIENTED_EDGE('',*,*,#426,.T.);
#201=ORIENTED_EDGE('',*,*,#427,.T.);
#202=ORIENTED_EDGE('',*,*,#428,.T.);
#203=ORIENTED_EDGE('',*,*,#429,.T.);
#204=ORIENTED_EDGE('',*,*,#430,.T.);
#205=ORIENTED_EDGE('',*,*,#431,.T.);
#206=ORIENTED_EDGE('',*,*,#432,.T.);
#207=ORIENTED_EDGE('',*,*,#433,.T.);
#208=ORIENTED_EDGE('',*,*,#430,.F.);
#209=ORIENTED_EDGE('',*,*,#434,.T.);
#210=ORIENTED_EDGE('',*,*,#435,.T.);
#211=ORIENTED_EDGE('',*,*,#436,.T.);
#212=ORIENTED_EDGE('',*,*,#437,.F.);
#213=ORIENTED_EDGE('',*,*,#438,.T.);
#214=ORIENTED_EDGE('',*,*,#439,.T.);
#215=ORIENTED_EDGE('',*,*,#440,.T.);
#216=ORIENTED_EDGE('',*,*,#441,.T.);
#217=ORIENTED_EDGE('',*,*,#442,.F.);
#218=ORIENTED_EDGE('',*,*,#443,.F.);
#219=ORIENTED_EDGE('',*,*,#444,.T.);
#220=ORIENTED_EDGE('',*,*,#445,.F.);
#221=ORIENTED_EDGE('',*,*,#446,.T.);
#222=ORIENTED_EDGE('',*,*,#447,.F.);
#223=ORIENTED_EDGE('',*,*,#448,.T.);
#224=ORIENTED_EDGE('',*,*,#449,.F.);
#225=ORIENTED_EDGE('',*,*,#450,.T.);
#226=ORIENTED_EDGE('',*,*,#451,.T.);
#227=ORIENTED_EDGE('',*,*,#452,.F.);
#228=ORIENTED_EDGE('',*,*,#453,.T.);
#229=ORIENTED_EDGE('',*,*,#404,.T.);
#230=ORIENTED_EDGE('',*,*,#454,.F.);
#231=ORIENTED_EDGE('',*,*,#455,.T.);
#232=ORIENTED_EDGE('',*,*,#456,.F.);
#233=ORIENTED_EDGE('',*,*,#437,.T.);
#234=ORIENTED_EDGE('',*,*,#431,.F.);
#235=ORIENTED_EDGE('',*,*,#452,.T.);
#236=ORIENTED_EDGE('',*,*,#457,.T.);
#237=ORIENTED_EDGE('',*,*,#458,.T.);
#238=ORIENTED_EDGE('',*,*,#459,.F.);
#239=ORIENTED_EDGE('',*,*,#460,.F.);
#240=ORIENTED_EDGE('',*,*,#458,.F.);
#241=ORIENTED_EDGE('',*,*,#461,.T.);
#242=ORIENTED_EDGE('',*,*,#459,.T.);
#243=ORIENTED_EDGE('',*,*,#462,.T.);
#244=ORIENTED_EDGE('',*,*,#463,.F.);
#245=ORIENTED_EDGE('',*,*,#464,.F.);
#246=ORIENTED_EDGE('',*,*,#465,.F.);
#247=ORIENTED_EDGE('',*,*,#442,.T.);
#248=ORIENTED_EDGE('',*,*,#466,.F.);
#249=ORIENTED_EDGE('',*,*,#467,.F.);
#250=ORIENTED_EDGE('',*,*,#468,.F.);
#251=ORIENTED_EDGE('',*,*,#469,.T.);
#252=ORIENTED_EDGE('',*,*,#462,.F.);
#253=ORIENTED_EDGE('',*,*,#470,.F.);
#254=ORIENTED_EDGE('',*,*,#471,.T.);
#255=ORIENTED_EDGE('',*,*,#472,.F.);
#256=ORIENTED_EDGE('',*,*,#469,.F.);
#257=ORIENTED_EDGE('',*,*,#473,.F.);
#258=ORIENTED_EDGE('',*,*,#474,.T.);
#259=ORIENTED_EDGE('',*,*,#475,.F.);
#260=ORIENTED_EDGE('',*,*,#476,.T.);
#261=ORIENTED_EDGE('',*,*,#477,.F.);
#262=ORIENTED_EDGE('',*,*,#478,.T.);
#263=ORIENTED_EDGE('',*,*,#479,.F.);
#264=ORIENTED_EDGE('',*,*,#480,.T.);
#265=ORIENTED_EDGE('',*,*,#481,.F.);
#266=ORIENTED_EDGE('',*,*,#450,.F.);
#267=ORIENTED_EDGE('',*,*,#482,.F.);
#268=ORIENTED_EDGE('',*,*,#483,.F.);
#269=ORIENTED_EDGE('',*,*,#484,.F.);
#270=ORIENTED_EDGE('',*,*,#480,.F.);
#271=ORIENTED_EDGE('',*,*,#485,.F.);
#272=ORIENTED_EDGE('',*,*,#486,.F.);
#273=ORIENTED_EDGE('',*,*,#487,.T.);
#274=ORIENTED_EDGE('',*,*,#488,.T.);
#275=ORIENTED_EDGE('',*,*,#487,.F.);
#276=ORIENTED_EDGE('',*,*,#489,.T.);
#277=ORIENTED_EDGE('',*,*,#457,.F.);
#278=ORIENTED_EDGE('',*,*,#490,.F.);
#279=ORIENTED_EDGE('',*,*,#460,.T.);
#280=ORIENTED_EDGE('',*,*,#491,.F.);
#281=ORIENTED_EDGE('',*,*,#490,.T.);
#282=ORIENTED_EDGE('',*,*,#492,.F.);
#283=ORIENTED_EDGE('',*,*,#491,.T.);
#284=ORIENTED_EDGE('',*,*,#493,.F.);
#285=ORIENTED_EDGE('',*,*,#492,.T.);
#286=ORIENTED_EDGE('',*,*,#461,.F.);
#287=ORIENTED_EDGE('',*,*,#493,.T.);
#288=ORIENTED_EDGE('',*,*,#441,.F.);
#289=ORIENTED_EDGE('',*,*,#494,.T.);
#290=ORIENTED_EDGE('',*,*,#473,.T.);
#291=ORIENTED_EDGE('',*,*,#495,.T.);
#292=ORIENTED_EDGE('',*,*,#477,.T.);
#293=ORIENTED_EDGE('',*,*,#484,.T.);
#294=ORIENTED_EDGE('',*,*,#496,.T.);
#295=ORIENTED_EDGE('',*,*,#466,.T.);
#296=ORIENTED_EDGE('',*,*,#467,.T.);
#297=ORIENTED_EDGE('',*,*,#496,.F.);
#298=ORIENTED_EDGE('',*,*,#483,.T.);
#299=ORIENTED_EDGE('',*,*,#497,.T.);
#300=ORIENTED_EDGE('',*,*,#449,.T.);
#301=ORIENTED_EDGE('',*,*,#498,.T.);
#302=ORIENTED_EDGE('',*,*,#443,.T.);
#303=ORIENTED_EDGE('',*,*,#499,.T.);
#304=ORIENTED_EDGE('',*,*,#470,.T.);
#305=ORIENTED_EDGE('',*,*,#468,.T.);
#306=ORIENTED_EDGE('',*,*,#497,.F.);
#307=ORIENTED_EDGE('',*,*,#482,.T.);
#308=ORIENTED_EDGE('',*,*,#464,.T.);
#309=ORIENTED_EDGE('',*,*,#500,.T.);
#310=ORIENTED_EDGE('',*,*,#486,.T.);
#311=ORIENTED_EDGE('',*,*,#501,.F.);
#312=ORIENTED_EDGE('',*,*,#475,.T.);
#313=ORIENTED_EDGE('',*,*,#502,.T.);
#314=ORIENTED_EDGE('',*,*,#439,.F.);
#315=ORIENTED_EDGE('',*,*,#465,.T.);
#316=ORIENTED_EDGE('',*,*,#501,.T.);
#317=ORIENTED_EDGE('',*,*,#485,.T.);
#318=ORIENTED_EDGE('',*,*,#479,.T.);
#319=ORIENTED_EDGE('',*,*,#503,.T.);
#320=ORIENTED_EDGE('',*,*,#445,.T.);
#321=ORIENTED_EDGE('',*,*,#504,.T.);
#322=ORIENTED_EDGE('',*,*,#447,.T.);
#323=ORIENTED_EDGE('',*,*,#481,.T.);
#324=ORIENTED_EDGE('',*,*,#500,.F.);
#325=ORIENTED_EDGE('',*,*,#463,.T.);
#326=ORIENTED_EDGE('',*,*,#472,.T.);
#327=ORIENTED_EDGE('',*,*,#505,.T.);
#328=ORIENTED_EDGE('',*,*,#425,.F.);
#329=ORIENTED_EDGE('',*,*,#506,.T.);
#330=ORIENTED_EDGE('',*,*,#454,.T.);
#331=ORIENTED_EDGE('',*,*,#436,.F.);
#332=ORIENTED_EDGE('',*,*,#507,.F.);
#333=ORIENTED_EDGE('',*,*,#410,.F.);
#334=ORIENTED_EDGE('',*,*,#418,.F.);
#335=ORIENTED_EDGE('',*,*,#508,.T.);
#336=ORIENTED_EDGE('',*,*,#507,.T.);
#337=ORIENTED_EDGE('',*,*,#435,.F.);
#338=ORIENTED_EDGE('',*,*,#509,.F.);
#339=ORIENTED_EDGE('',*,*,#411,.F.);
#340=ORIENTED_EDGE('',*,*,#429,.F.);
#341=ORIENTED_EDGE('',*,*,#510,.T.);
#342=ORIENTED_EDGE('',*,*,#419,.F.);
#343=ORIENTED_EDGE('',*,*,#511,.T.);
#344=ORIENTED_EDGE('',*,*,#413,.F.);
#345=ORIENTED_EDGE('',*,*,#412,.F.);
#346=ORIENTED_EDGE('',*,*,#509,.T.);
#347=ORIENTED_EDGE('',*,*,#434,.F.);
#348=ORIENTED_EDGE('',*,*,#456,.T.);
#349=ORIENTED_EDGE('',*,*,#512,.T.);
#350=ORIENTED_EDGE('',*,*,#423,.F.);
#351=ORIENTED_EDGE('',*,*,#513,.T.);
#352=ORIENTED_EDGE('',*,*,#416,.F.);
#353=ORIENTED_EDGE('',*,*,#408,.F.);
#354=ORIENTED_EDGE('',*,*,#514,.F.);
#355=ORIENTED_EDGE('',*,*,#438,.F.);
#356=ORIENTED_EDGE('',*,*,#421,.F.);
#357=ORIENTED_EDGE('',*,*,#515,.T.);
#358=ORIENTED_EDGE('',*,*,#427,.F.);
#359=ORIENTED_EDGE('',*,*,#433,.F.);
#360=ORIENTED_EDGE('',*,*,#516,.T.);
#361=ORIENTED_EDGE('',*,*,#406,.F.);
#362=ORIENTED_EDGE('',*,*,#415,.F.);
#363=ORIENTED_EDGE('',*,*,#517,.T.);
#364=ORIENTED_EDGE('',*,*,#516,.F.);
#365=ORIENTED_EDGE('',*,*,#432,.F.);
#366=ORIENTED_EDGE('',*,*,#514,.T.);
#367=ORIENTED_EDGE('',*,*,#407,.F.);
#368=ORIENTED_EDGE('',*,*,#503,.F.);
#369=ORIENTED_EDGE('',*,*,#478,.F.);
#370=ORIENTED_EDGE('',*,*,#495,.F.);
#371=ORIENTED_EDGE('',*,*,#476,.F.);
#372=ORIENTED_EDGE('',*,*,#453,.F.);
#373=ORIENTED_EDGE('',*,*,#451,.F.);
#374=ORIENTED_EDGE('',*,*,#511,.F.);
#375=ORIENTED_EDGE('',*,*,#422,.F.);
#376=ORIENTED_EDGE('',*,*,#517,.F.);
#377=ORIENTED_EDGE('',*,*,#414,.F.);
#378=ORIENTED_EDGE('',*,*,#513,.F.);
#379=ORIENTED_EDGE('',*,*,#426,.F.);
#380=ORIENTED_EDGE('',*,*,#508,.F.);
#381=ORIENTED_EDGE('',*,*,#417,.F.);
#382=ORIENTED_EDGE('',*,*,#510,.F.);
#383=ORIENTED_EDGE('',*,*,#428,.F.);
#384=ORIENTED_EDGE('',*,*,#515,.F.);
#385=ORIENTED_EDGE('',*,*,#420,.F.);
#386=ORIENTED_EDGE('',*,*,#512,.F.);
#387=ORIENTED_EDGE('',*,*,#455,.F.);
#388=ORIENTED_EDGE('',*,*,#506,.F.);
#389=ORIENTED_EDGE('',*,*,#424,.F.);
#390=ORIENTED_EDGE('',*,*,#489,.F.);
#391=ORIENTED_EDGE('',*,*,#488,.F.);
#392=ORIENTED_EDGE('',*,*,#502,.F.);
#393=ORIENTED_EDGE('',*,*,#474,.F.);
#394=ORIENTED_EDGE('',*,*,#494,.F.);
#395=ORIENTED_EDGE('',*,*,#440,.F.);
#396=ORIENTED_EDGE('',*,*,#499,.F.);
#397=ORIENTED_EDGE('',*,*,#446,.F.);
#398=ORIENTED_EDGE('',*,*,#505,.F.);
#399=ORIENTED_EDGE('',*,*,#471,.F.);
#400=ORIENTED_EDGE('',*,*,#498,.F.);
#401=ORIENTED_EDGE('',*,*,#448,.F.);
#402=ORIENTED_EDGE('',*,*,#504,.F.);
#403=ORIENTED_EDGE('',*,*,#444,.F.);
#404=EDGE_CURVE('',#518,#518,#600,.T.);
#405=EDGE_CURVE('',#519,#520,#601,.T.);
#406=EDGE_CURVE('',#520,#521,#80,.T.);
#407=EDGE_CURVE('',#521,#522,#54,.T.);
#408=EDGE_CURVE('',#522,#523,#81,.F.);
#409=EDGE_CURVE('',#523,#524,#602,.T.);
#410=EDGE_CURVE('',#524,#525,#82,.T.);
#411=EDGE_CURVE('',#525,#526,#55,.T.);
#412=EDGE_CURVE('',#526,#519,#83,.F.);
#413=EDGE_CURVE('',#519,#527,#84,.T.);
#414=EDGE_CURVE('',#527,#528,#603,.T.);
#415=EDGE_CURVE('',#528,#520,#85,.T.);
#416=EDGE_CURVE('',#523,#529,#86,.T.);
#417=EDGE_CURVE('',#529,#530,#604,.T.);
#418=EDGE_CURVE('',#530,#524,#87,.T.);
#419=EDGE_CURVE('',#531,#532,#88,.F.);
#420=EDGE_CURVE('',#532,#533,#605,.F.);
#421=EDGE_CURVE('',#533,#534,#89,.T.);
#422=EDGE_CURVE('',#534,#531,#606,.F.);
#423=EDGE_CURVE('',#535,#536,#90,.F.);
#424=EDGE_CURVE('',#536,#537,#607,.F.);
#425=EDGE_CURVE('',#537,#538,#91,.T.);
#426=EDGE_CURVE('',#538,#535,#608,.F.);
#427=EDGE_CURVE('',#539,#540,#92,.T.);
#428=EDGE_CURVE('',#540,#541,#609,.T.);
#429=EDGE_CURVE('',#541,#542,#93,.T.);
#430=EDGE_CURVE('',#542,#539,#610,.T.);
#431=EDGE_CURVE('',#543,#543,#611,.T.);
#432=EDGE_CURVE('',#544,#545,#56,.T.);
#433=EDGE_CURVE('',#545,#539,#94,.F.);
#434=EDGE_CURVE('',#542,#546,#95,.T.);
#435=EDGE_CURVE('',#546,#547,#57,.T.);
#436=EDGE_CURVE('',#547,#548,#96,.F.);
#437=EDGE_CURVE('',#549,#548,#612,.T.);
#438=EDGE_CURVE('',#549,#544,#97,.T.);
#439=EDGE_CURVE('',#550,#551,#98,.T.);
#440=EDGE_CURVE('',#551,#552,#613,.T.);
#441=EDGE_CURVE('',#552,#553,#99,.T.);
#442=EDGE_CURVE('',#550,#553,#614,.T.);
#443=EDGE_CURVE('',#554,#555,#100,.F.);
#444=EDGE_CURVE('',#554,#556,#615,.F.);
#445=EDGE_CURVE('',#557,#556,#101,.T.);
#446=EDGE_CURVE('',#557,#555,#616,.F.);
#447=EDGE_CURVE('',#558,#559,#102,.T.);
#448=EDGE_CURVE('',#558,#560,#617,.T.);
#449=EDGE_CURVE('',#561,#560,#103,.T.);
#450=EDGE_CURVE('',#561,#559,#618,.T.);
#451=EDGE_CURVE('',#562,#562,#619,.F.);
#452=EDGE_CURVE('',#563,#563,#58,.T.);
#453=EDGE_CURVE('',#564,#564,#620,.T.);
#454=EDGE_CURVE('',#565,#548,#104,.T.);
#455=EDGE_CURVE('',#565,#566,#621,.T.);
#456=EDGE_CURVE('',#549,#566,#105,.T.);
#457=EDGE_CURVE('',#567,#567,#59,.T.);
#458=EDGE_CURVE('',#568,#568,#622,.T.);
#459=EDGE_CURVE('',#569,#569,#623,.T.);
#460=EDGE_CURVE('',#570,#570,#624,.T.);
#461=EDGE_CURVE('',#571,#571,#625,.T.);
#462=EDGE_CURVE('',#572,#572,#626,.T.);
#463=EDGE_CURVE('',#573,#574,#106,.F.);
#464=EDGE_CURVE('',#575,#573,#60,.T.);
#465=EDGE_CURVE('',#550,#575,#107,.T.);
#466=EDGE_CURVE('',#576,#553,#108,.F.);
#467=EDGE_CURVE('',#577,#576,#61,.T.);
#468=EDGE_CURVE('',#578,#577,#109,.T.);
#469=EDGE_CURVE('',#578,#574,#627,.T.);
#470=EDGE_CURVE('',#579,#578,#110,.T.);
#471=EDGE_CURVE('',#579,#580,#628,.T.);
#472=EDGE_CURVE('',#574,#580,#111,.T.);
#473=EDGE_CURVE('',#581,#582,#112,.T.);
#474=EDGE_CURVE('',#581,#583,#629,.F.);
#475=EDGE_CURVE('',#584,#583,#113,.F.);
#476=EDGE_CURVE('',#584,#582,#630,.F.);
#477=EDGE_CURVE('',#585,#586,#114,.T.);
#478=EDGE_CURVE('',#585,#587,#631,.T.);
#479=EDGE_CURVE('',#588,#587,#115,.T.);
#480=EDGE_CURVE('',#588,#586,#632,.T.);
#481=EDGE_CURVE('',#559,#589,#116,.T.);
#482=EDGE_CURVE('',#590,#561,#117,.F.);
#483=EDGE_CURVE('',#591,#590,#62,.T.);
#484=EDGE_CURVE('',#586,#591,#118,.T.);
#485=EDGE_CURVE('',#592,#588,#119,.F.);
#486=EDGE_CURVE('',#589,#592,#63,.T.);
#487=EDGE_CURVE('',#593,#593,#633,.T.);
#488=EDGE_CURVE('',#594,#594,#634,.T.);
#489=EDGE_CURVE('',#595,#595,#635,.F.);
#490=EDGE_CURVE('',#596,#596,#636,.T.);
#491=EDGE_CURVE('',#597,#597,#637,.T.);
#492=EDGE_CURVE('',#598,#598,#638,.T.);
#493=EDGE_CURVE('',#599,#599,#639,.T.);
#494=EDGE_CURVE('',#552,#581,#64,.T.);
#495=EDGE_CURVE('',#582,#585,#65,.T.);
#496=EDGE_CURVE('',#591,#576,#120,.T.);
#497=EDGE_CURVE('',#590,#577,#121,.T.);
#498=EDGE_CURVE('',#560,#554,#66,.T.);
#499=EDGE_CURVE('',#555,#579,#67,.T.);
#500=EDGE_CURVE('',#573,#589,#122,.T.);
#501=EDGE_CURVE('',#575,#592,#123,.T.);
#502=EDGE_CURVE('',#583,#551,#68,.T.);
#503=EDGE_CURVE('',#587,#584,#69,.T.);
#504=EDGE_CURVE('',#556,#558,#70,.T.);
#505=EDGE_CURVE('',#580,#557,#71,.T.);
#506=EDGE_CURVE('',#537,#565,#72,.T.);
#507=EDGE_CURVE('',#525,#547,#124,.T.);
#508=EDGE_CURVE('',#530,#538,#73,.T.);
#509=EDGE_CURVE('',#526,#546,#125,.T.);
#510=EDGE_CURVE('',#541,#532,#74,.T.);
#511=EDGE_CURVE('',#531,#527,#75,.T.);
#512=EDGE_CURVE('',#566,#536,#76,.T.);
#513=EDGE_CURVE('',#535,#529,#77,.T.);
#514=EDGE_CURVE('',#544,#522,#126,.T.);
#515=EDGE_CURVE('',#533,#540,#78,.T.);
#516=EDGE_CURVE('',#545,#521,#127,.T.);
#517=EDGE_CURVE('',#528,#534,#79,.T.);
#518=VERTEX_POINT('',#1196);
#519=VERTEX_POINT('',#1198);
#520=VERTEX_POINT('',#1199);
#521=VERTEX_POINT('',#1201);
#522=VERTEX_POINT('',#1207);
#523=VERTEX_POINT('',#1209);
#524=VERTEX_POINT('',#1211);
#525=VERTEX_POINT('',#1213);
#526=VERTEX_POINT('',#1219);
#527=VERTEX_POINT('',#1223);
#528=VERTEX_POINT('',#1225);
#529=VERTEX_POINT('',#1229);
#530=VERTEX_POINT('',#1231);
#531=VERTEX_POINT('',#1235);
#532=VERTEX_POINT('',#1236);
#533=VERTEX_POINT('',#1238);
#534=VERTEX_POINT('',#1240);
#535=VERTEX_POINT('',#1244);
#536=VERTEX_POINT('',#1245);
#537=VERTEX_POINT('',#1247);
#538=VERTEX_POINT('',#1249);
#539=VERTEX_POINT('',#1253);
#540=VERTEX_POINT('',#1254);
#541=VERTEX_POINT('',#1256);
#542=VERTEX_POINT('',#1258);
#543=VERTEX_POINT('',#1262);
#544=VERTEX_POINT('',#1268);
#545=VERTEX_POINT('',#1269);
#546=VERTEX_POINT('',#1272);
#547=VERTEX_POINT('',#1278);
#548=VERTEX_POINT('',#1280);
#549=VERTEX_POINT('',#1282);
#550=VERTEX_POINT('',#1286);
#551=VERTEX_POINT('',#1287);
#552=VERTEX_POINT('',#1289);
#553=VERTEX_POINT('',#1291);
#554=VERTEX_POINT('',#1295);
#555=VERTEX_POINT('',#1296);
#556=VERTEX_POINT('',#1298);
#557=VERTEX_POINT('',#1300);
#558=VERTEX_POINT('',#1304);
#559=VERTEX_POINT('',#1305);
#560=VERTEX_POINT('',#1307);
#561=VERTEX_POINT('',#1309);
#562=VERTEX_POINT('',#1313);
#563=VERTEX_POINT('',#1337);
#564=VERTEX_POINT('',#1340);
#565=VERTEX_POINT('',#1343);
#566=VERTEX_POINT('',#1345);
#567=VERTEX_POINT('',#1372);
#568=VERTEX_POINT('',#1374);
#569=VERTEX_POINT('',#1376);
#570=VERTEX_POINT('',#1379);
#571=VERTEX_POINT('',#1382);
#572=VERTEX_POINT('',#1385);
#573=VERTEX_POINT('',#1388);
#574=VERTEX_POINT('',#1389);
#575=VERTEX_POINT('',#1395);
#576=VERTEX_POINT('',#1398);
#577=VERTEX_POINT('',#1404);
#578=VERTEX_POINT('',#1406);
#579=VERTEX_POINT('',#1410);
#580=VERTEX_POINT('',#1412);
#581=VERTEX_POINT('',#1416);
#582=VERTEX_POINT('',#1417);
#583=VERTEX_POINT('',#1419);
#584=VERTEX_POINT('',#1421);
#585=VERTEX_POINT('',#1425);
#586=VERTEX_POINT('',#1426);
#587=VERTEX_POINT('',#1428);
#588=VERTEX_POINT('',#1430);
#589=VERTEX_POINT('',#1434);
#590=VERTEX_POINT('',#1436);
#591=VERTEX_POINT('',#1442);
#592=VERTEX_POINT('',#1445);
#593=VERTEX_POINT('',#1452);
#594=VERTEX_POINT('',#1455);
#595=VERTEX_POINT('',#1458);
#596=VERTEX_POINT('',#1461);
#597=VERTEX_POINT('',#1464);
#598=VERTEX_POINT('',#1467);
#599=VERTEX_POINT('',#1470);
#600=CIRCLE('',#868,2.4);
#601=CIRCLE('',#869,2.4);
#602=CIRCLE('',#870,2.4);
#603=CIRCLE('',#872,2.5);
#604=CIRCLE('',#874,2.5);
#605=CIRCLE('',#876,2.6);
#606=CIRCLE('',#877,2.6);
#607=CIRCLE('',#879,2.6);
#608=CIRCLE('',#880,2.6);
#609=CIRCLE('',#882,2.5);
#610=CIRCLE('',#883,2.);
#611=CIRCLE('',#885,2.);
#612=CIRCLE('',#886,2.);
#613=CIRCLE('',#888,2.5);
#614=CIRCLE('',#889,2.);
#615=CIRCLE('',#891,2.6);
#616=CIRCLE('',#892,2.6);
#617=CIRCLE('',#894,2.5);
#618=CIRCLE('',#895,2.4);
#619=CIRCLE('',#897,3.1);
#620=CIRCLE('',#899,3.);
#621=CIRCLE('',#901,2.5);
#622=CIRCLE('',#904,3.6);
#623=CIRCLE('',#905,3.6);
#624=CIRCLE('',#907,3.1);
#625=CIRCLE('',#909,3.1);
#626=CIRCLE('',#911,2.);
#627=CIRCLE('',#913,2.);
#628=CIRCLE('',#915,2.5);
#629=CIRCLE('',#917,2.6);
#630=CIRCLE('',#918,2.6);
#631=CIRCLE('',#920,2.5);
#632=CIRCLE('',#921,2.4);
#633=CIRCLE('',#923,2.4);
#634=CIRCLE('',#925,3.);
#635=CIRCLE('',#927,3.1);
#636=CIRCLE('',#929,3.1);
#637=CIRCLE('',#931,2.4);
#638=CIRCLE('',#933,2.4);
#639=CIRCLE('',#935,3.1);
#640=EDGE_LOOP('',(#176));
#641=EDGE_LOOP('',(#177,#178,#179,#180,#181,#182,#183,#184));
#642=EDGE_LOOP('',(#185,#186,#187,#188));
#643=EDGE_LOOP('',(#189,#190,#191,#192));
#644=EDGE_LOOP('',(#193,#194,#195,#196));
#645=EDGE_LOOP('',(#197,#198,#199,#200));
#646=EDGE_LOOP('',(#201,#202,#203,#204));
#647=EDGE_LOOP('',(#205));
#648=EDGE_LOOP('',(#206,#207,#208,#209,#210,#211,#212,#213));
#649=EDGE_LOOP('',(#214,#215,#216,#217));
#650=EDGE_LOOP('',(#218,#219,#220,#221));
#651=EDGE_LOOP('',(#222,#223,#224,#225));
#652=EDGE_LOOP('',(#226));
#653=EDGE_LOOP('',(#227));
#654=EDGE_LOOP('',(#228));
#655=EDGE_LOOP('',(#229));
#656=EDGE_LOOP('',(#230,#231,#232,#233));
#657=EDGE_LOOP('',(#234));
#658=EDGE_LOOP('',(#235));
#659=EDGE_LOOP('',(#236));
#660=EDGE_LOOP('',(#237));
#661=EDGE_LOOP('',(#238));
#662=EDGE_LOOP('',(#239));
#663=EDGE_LOOP('',(#240));
#664=EDGE_LOOP('',(#241));
#665=EDGE_LOOP('',(#242));
#666=EDGE_LOOP('',(#243));
#667=EDGE_LOOP('',(#244,#245,#246,#247,#248,#249,#250,#251));
#668=EDGE_LOOP('',(#252));
#669=EDGE_LOOP('',(#253,#254,#255,#256));
#670=EDGE_LOOP('',(#257,#258,#259,#260));
#671=EDGE_LOOP('',(#261,#262,#263,#264));
#672=EDGE_LOOP('',(#265,#266,#267,#268,#269,#270,#271,#272));
#673=EDGE_LOOP('',(#273));
#674=EDGE_LOOP('',(#274));
#675=EDGE_LOOP('',(#275));
#676=EDGE_LOOP('',(#276));
#677=EDGE_LOOP('',(#277));
#678=EDGE_LOOP('',(#278));
#679=EDGE_LOOP('',(#279));
#680=EDGE_LOOP('',(#280));
#681=EDGE_LOOP('',(#281));
#682=EDGE_LOOP('',(#282));
#683=EDGE_LOOP('',(#283));
#684=EDGE_LOOP('',(#284));
#685=EDGE_LOOP('',(#285));
#686=EDGE_LOOP('',(#286));
#687=EDGE_LOOP('',(#287));
#688=EDGE_LOOP('',(#288,#289,#290,#291,#292,#293,#294,#295));
#689=EDGE_LOOP('',(#296,#297,#298,#299));
#690=EDGE_LOOP('',(#300,#301,#302,#303,#304,#305,#306,#307));
#691=EDGE_LOOP('',(#308,#309,#310,#311));
#692=EDGE_LOOP('',(#312,#313,#314,#315,#316,#317,#318,#319));
#693=EDGE_LOOP('',(#320,#321,#322,#323,#324,#325,#326,#327));
#694=EDGE_LOOP('',(#328,#329,#330,#331,#332,#333,#334,#335));
#695=EDGE_LOOP('',(#336,#337,#338,#339));
#696=EDGE_LOOP('',(#340,#341,#342,#343,#344,#345,#346,#347));
#697=EDGE_LOOP('',(#348,#349,#350,#351,#352,#353,#354,#355));
#698=EDGE_LOOP('',(#356,#357,#358,#359,#360,#361,#362,#363));
#699=EDGE_LOOP('',(#364,#365,#366,#367));
#700=EDGE_LOOP('',(#368,#369,#370,#371));
#701=EDGE_LOOP('',(#372));
#702=EDGE_LOOP('',(#373));
#703=EDGE_LOOP('',(#374,#375,#376,#377));
#704=EDGE_LOOP('',(#378,#379,#380,#381));
#705=EDGE_LOOP('',(#382,#383,#384,#385));
#706=EDGE_LOOP('',(#386,#387,#388,#389));
#707=EDGE_LOOP('',(#390));
#708=EDGE_LOOP('',(#391));
#709=EDGE_LOOP('',(#392,#393,#394,#395));
#710=EDGE_LOOP('',(#396,#397,#398,#399));
#711=EDGE_LOOP('',(#400,#401,#402,#403));
#712=FACE_BOUND('',#640,.T.);
#713=FACE_BOUND('',#641,.T.);
#714=FACE_BOUND('',#642,.T.);
#715=FACE_BOUND('',#643,.T.);
#716=FACE_BOUND('',#644,.T.);
#717=FACE_BOUND('',#645,.T.);
#718=FACE_BOUND('',#646,.T.);
#719=FACE_BOUND('',#647,.T.);
#720=FACE_BOUND('',#648,.T.);
#721=FACE_BOUND('',#649,.T.);
#722=FACE_BOUND('',#650,.T.);
#723=FACE_BOUND('',#651,.T.);
#724=FACE_BOUND('',#652,.T.);
#725=FACE_BOUND('',#653,.T.);
#726=FACE_BOUND('',#654,.T.);
#727=FACE_BOUND('',#655,.T.);
#728=FACE_BOUND('',#656,.T.);
#729=FACE_BOUND('',#657,.T.);
#730=FACE_BOUND('',#658,.T.);
#731=FACE_BOUND('',#659,.T.);
#732=FACE_BOUND('',#660,.T.);
#733=FACE_BOUND('',#661,.T.);
#734=FACE_BOUND('',#662,.T.);
#735=FACE_BOUND('',#663,.T.);
#736=FACE_BOUND('',#664,.T.);
#737=FACE_BOUND('',#665,.T.);
#738=FACE_BOUND('',#666,.T.);
#739=FACE_BOUND('',#667,.T.);
#740=FACE_BOUND('',#668,.T.);
#741=FACE_BOUND('',#669,.T.);
#742=FACE_BOUND('',#670,.T.);
#743=FACE_BOUND('',#671,.T.);
#744=FACE_BOUND('',#672,.T.);
#745=FACE_BOUND('',#673,.T.);
#746=FACE_BOUND('',#674,.T.);
#747=FACE_BOUND('',#675,.T.);
#748=FACE_BOUND('',#676,.T.);
#749=FACE_BOUND('',#677,.T.);
#750=FACE_BOUND('',#678,.T.);
#751=FACE_BOUND('',#679,.T.);
#752=FACE_BOUND('',#680,.T.);
#753=FACE_BOUND('',#681,.T.);
#754=FACE_BOUND('',#682,.T.);
#755=FACE_BOUND('',#683,.T.);
#756=FACE_BOUND('',#684,.T.);
#757=FACE_BOUND('',#685,.T.);
#758=FACE_BOUND('',#686,.T.);
#759=FACE_BOUND('',#687,.T.);
#760=FACE_BOUND('',#688,.T.);
#761=FACE_BOUND('',#689,.T.);
#762=FACE_BOUND('',#690,.T.);
#763=FACE_BOUND('',#691,.T.);
#764=FACE_BOUND('',#692,.T.);
#765=FACE_BOUND('',#693,.T.);
#766=FACE_BOUND('',#694,.T.);
#767=FACE_BOUND('',#695,.T.);
#768=FACE_BOUND('',#696,.T.);
#769=FACE_BOUND('',#697,.T.);
#770=FACE_BOUND('',#698,.T.);
#771=FACE_BOUND('',#699,.T.);
#772=FACE_BOUND('',#700,.T.);
#773=FACE_BOUND('',#701,.T.);
#774=FACE_BOUND('',#702,.T.);
#775=FACE_BOUND('',#703,.T.);
#776=FACE_BOUND('',#704,.T.);
#777=FACE_BOUND('',#705,.T.);
#778=FACE_BOUND('',#706,.T.);
#779=FACE_BOUND('',#707,.T.);
#780=FACE_BOUND('',#708,.T.);
#781=FACE_BOUND('',#709,.T.);
#782=FACE_BOUND('',#710,.T.);
#783=FACE_BOUND('',#711,.T.);
#784=CYLINDRICAL_SURFACE('',#867,2.4);
#785=CYLINDRICAL_SURFACE('',#875,2.6);
#786=CYLINDRICAL_SURFACE('',#878,2.6);
#787=CYLINDRICAL_SURFACE('',#884,2.);
#788=CYLINDRICAL_SURFACE('',#890,2.6);
#789=CYLINDRICAL_SURFACE('',#896,3.1);
#790=CYLINDRICAL_SURFACE('',#903,3.6);
#791=CYLINDRICAL_SURFACE('',#912,2.);
#792=CYLINDRICAL_SURFACE('',#916,2.6);
#793=CYLINDRICAL_SURFACE('',#922,2.4);
#794=CYLINDRICAL_SURFACE('',#926,3.1);
#795=CYLINDRICAL_SURFACE('',#928,3.1);
#796=CYLINDRICAL_SURFACE('',#932,2.4);
#797=CYLINDRICAL_SURFACE('',#936,3.1);
#798=CYLINDRICAL_SURFACE('',#938,0.399999999999999);
#799=CYLINDRICAL_SURFACE('',#940,0.399999999999999);
#800=CYLINDRICAL_SURFACE('',#944,0.399999999999999);
#801=CYLINDRICAL_SURFACE('',#948,0.399999999999999);
#802=ADVANCED_FACE('',(#712,#713),#784,.T.);
#803=ADVANCED_FACE('',(#714),#30,.T.);
#804=ADVANCED_FACE('',(#715),#31,.T.);
#805=ADVANCED_FACE('',(#716),#785,.T.);
#806=ADVANCED_FACE('',(#717),#786,.T.);
#807=ADVANCED_FACE('',(#718),#32,.T.);
#808=ADVANCED_FACE('',(#719,#720),#787,.F.);
#809=ADVANCED_FACE('',(#721),#33,.T.);
#810=ADVANCED_FACE('',(#722),#788,.T.);
#811=ADVANCED_FACE('',(#723),#34,.T.);
#812=ADVANCED_FACE('',(#724,#725),#789,.T.);
#813=ADVANCED_FACE('',(#726,#727),#35,.T.);
#814=ADVANCED_FACE('',(#728),#36,.T.);
#815=ADVANCED_FACE('',(#729),#37,.T.);
#816=ADVANCED_FACE('',(#730,#731,#732,#733),#790,.T.);
#817=ADVANCED_FACE('',(#734,#735),#38,.F.);
#818=ADVANCED_FACE('',(#736,#737),#39,.T.);
#819=ADVANCED_FACE('',(#738),#40,.T.);
#820=ADVANCED_FACE('',(#739,#740),#791,.F.);
#821=ADVANCED_FACE('',(#741),#41,.T.);
#822=ADVANCED_FACE('',(#742),#792,.T.);
#823=ADVANCED_FACE('',(#743),#42,.T.);
#824=ADVANCED_FACE('',(#744,#745),#793,.T.);
#825=ADVANCED_FACE('',(#746,#747),#43,.T.);
#826=ADVANCED_FACE('',(#748,#749),#794,.T.);
#827=ADVANCED_FACE('',(#750,#751),#795,.F.);
#828=ADVANCED_FACE('',(#752,#753),#44,.F.);
#829=ADVANCED_FACE('',(#754,#755),#796,.F.);
#830=ADVANCED_FACE('',(#756,#757),#45,.F.);
#831=ADVANCED_FACE('',(#758,#759),#797,.F.);
#832=ADVANCED_FACE('',(#760),#46,.F.);
#833=ADVANCED_FACE('',(#761),#798,.F.);
#834=ADVANCED_FACE('',(#762),#47,.F.);
#835=ADVANCED_FACE('',(#763),#799,.F.);
#836=ADVANCED_FACE('',(#764),#48,.F.);
#837=ADVANCED_FACE('',(#765),#49,.F.);
#838=ADVANCED_FACE('',(#766),#50,.T.);
#839=ADVANCED_FACE('',(#767),#800,.F.);
#840=ADVANCED_FACE('',(#768),#51,.T.);
#841=ADVANCED_FACE('',(#769),#52,.T.);
#842=ADVANCED_FACE('',(#770),#53,.T.);
#843=ADVANCED_FACE('',(#771),#801,.F.);
#844=ADVANCED_FACE('',(#772),#20,.T.);
#845=ADVANCED_FACE('',(#773,#774),#21,.T.);
#846=ADVANCED_FACE('',(#775),#22,.T.);
#847=ADVANCED_FACE('',(#776),#23,.T.);
#848=ADVANCED_FACE('',(#777),#24,.T.);
#849=ADVANCED_FACE('',(#778),#25,.T.);
#850=ADVANCED_FACE('',(#779,#780),#26,.T.);
#851=ADVANCED_FACE('',(#781),#27,.T.);
#852=ADVANCED_FACE('',(#782),#28,.T.);
#853=ADVANCED_FACE('',(#783),#29,.T.);
#854=CLOSED_SHELL('',(#802,#803,#804,#805,#806,#807,#808,#809,#810,#811,
#812,#813,#814,#815,#816,#817,#818,#819,#820,#821,#822,#823,#824,#825,#826,
#827,#828,#829,#830,#831,#832,#833,#834,#835,#836,#837,#838,#839,#840,#841,
#842,#843,#844,#845,#846,#847,#848,#849,#850,#851,#852,#853));
#855=STYLED_ITEM('',(#856),#863);
#856=PRESENTATION_STYLE_ASSIGNMENT((#857));
#857=SURFACE_STYLE_USAGE(.BOTH.,#858);
#858=SURFACE_SIDE_STYLE('',(#859));
#859=SURFACE_STYLE_FILL_AREA(#860);
#860=FILL_AREA_STYLE('',(#861));
#861=FILL_AREA_STYLE_COLOUR('',#862);
#862=COLOUR_RGB('',0.506983280181885,0.531564235687256,0.550000011920929);
#863=MANIFOLD_SOLID_BREP('',#854);
#864=SHAPE_DEFINITION_REPRESENTATION(#1572,#865);
#865=SHAPE_REPRESENTATION('ClGray_4560175_AVV',(#866),#1567);
#866=AXIS2_PLACEMENT_3D('',#1193,#959,#960);
#867=AXIS2_PLACEMENT_3D('',#1194,#961,#962);
#868=AXIS2_PLACEMENT_3D('',#1195,#963,#964);
#869=AXIS2_PLACEMENT_3D('',#1197,#965,#966);
#870=AXIS2_PLACEMENT_3D('',#1210,#969,#970);
#871=AXIS2_PLACEMENT_3D('',#1221,#973,#974);
#872=AXIS2_PLACEMENT_3D('',#1224,#976,#977);
#873=AXIS2_PLACEMENT_3D('',#1227,#979,#980);
#874=AXIS2_PLACEMENT_3D('',#1230,#982,#983);
#875=AXIS2_PLACEMENT_3D('',#1233,#985,#986);
#876=AXIS2_PLACEMENT_3D('',#1237,#988,#989);
#877=AXIS2_PLACEMENT_3D('',#1241,#991,#992);
#878=AXIS2_PLACEMENT_3D('',#1242,#993,#994);
#879=AXIS2_PLACEMENT_3D('',#1246,#996,#997);
#880=AXIS2_PLACEMENT_3D('',#1250,#999,#1000);
#881=AXIS2_PLACEMENT_3D('',#1251,#1001,#1002);
#882=AXIS2_PLACEMENT_3D('',#1255,#1004,#1005);
#883=AXIS2_PLACEMENT_3D('',#1259,#1007,#1008);
#884=AXIS2_PLACEMENT_3D('',#1260,#1009,#1010);
#885=AXIS2_PLACEMENT_3D('',#1261,#1011,#1012);
#886=AXIS2_PLACEMENT_3D('',#1281,#1016,#1017);
#887=AXIS2_PLACEMENT_3D('',#1284,#1019,#1020);
#888=AXIS2_PLACEMENT_3D('',#1288,#1022,#1023);
#889=AXIS2_PLACEMENT_3D('',#1292,#1025,#1026);
#890=AXIS2_PLACEMENT_3D('',#1293,#1027,#1028);
#891=AXIS2_PLACEMENT_3D('',#1297,#1030,#1031);
#892=AXIS2_PLACEMENT_3D('',#1301,#1033,#1034);
#893=AXIS2_PLACEMENT_3D('',#1302,#1035,#1036);
#894=AXIS2_PLACEMENT_3D('',#1306,#1038,#1039);
#895=AXIS2_PLACEMENT_3D('',#1310,#1041,#1042);
#896=AXIS2_PLACEMENT_3D('',#1311,#1043,#1044);
#897=AXIS2_PLACEMENT_3D('',#1312,#1045,#1046);
#898=AXIS2_PLACEMENT_3D('',#1338,#1047,#1048);
#899=AXIS2_PLACEMENT_3D('',#1339,#1049,#1050);
#900=AXIS2_PLACEMENT_3D('',#1341,#1051,#1052);
#901=AXIS2_PLACEMENT_3D('',#1344,#1054,#1055);
#902=AXIS2_PLACEMENT_3D('',#1347,#1057,#1058);
#903=AXIS2_PLACEMENT_3D('',#1348,#1059,#1060);
#904=AXIS2_PLACEMENT_3D('',#1373,#1061,#1062);
#905=AXIS2_PLACEMENT_3D('',#1375,#1063,#1064);
#906=AXIS2_PLACEMENT_3D('',#1377,#1065,#1066);
#907=AXIS2_PLACEMENT_3D('',#1378,#1067,#1068);
#908=AXIS2_PLACEMENT_3D('',#1380,#1069,#1070);
#909=AXIS2_PLACEMENT_3D('',#1381,#1071,#1072);
#910=AXIS2_PLACEMENT_3D('',#1383,#1073,#1074);
#911=AXIS2_PLACEMENT_3D('',#1384,#1075,#1076);
#912=AXIS2_PLACEMENT_3D('',#1386,#1077,#1078);
#913=AXIS2_PLACEMENT_3D('',#1407,#1083,#1084);
#914=AXIS2_PLACEMENT_3D('',#1408,#1085,#1086);
#915=AXIS2_PLACEMENT_3D('',#1411,#1088,#1089);
#916=AXIS2_PLACEMENT_3D('',#1414,#1091,#1092);
#917=AXIS2_PLACEMENT_3D('',#1418,#1094,#1095);
#918=AXIS2_PLACEMENT_3D('',#1422,#1097,#1098);
#919=AXIS2_PLACEMENT_3D('',#1423,#1099,#1100);
#920=AXIS2_PLACEMENT_3D('',#1427,#1102,#1103);
#921=AXIS2_PLACEMENT_3D('',#1431,#1105,#1106);
#922=AXIS2_PLACEMENT_3D('',#1432,#1107,#1108);
#923=AXIS2_PLACEMENT_3D('',#1451,#1113,#1114);
#924=AXIS2_PLACEMENT_3D('',#1453,#1115,#1116);
#925=AXIS2_PLACEMENT_3D('',#1454,#1117,#1118);
#926=AXIS2_PLACEMENT_3D('',#1456,#1119,#1120);
#927=AXIS2_PLACEMENT_3D('',#1457,#1121,#1122);
#928=AXIS2_PLACEMENT_3D('',#1459,#1123,#1124);
#929=AXIS2_PLACEMENT_3D('',#1460,#1125,#1126);
#930=AXIS2_PLACEMENT_3D('',#1462,#1127,#1128);
#931=AXIS2_PLACEMENT_3D('',#1463,#1129,#1130);
#932=AXIS2_PLACEMENT_3D('',#1465,#1131,#1132);
#933=AXIS2_PLACEMENT_3D('',#1466,#1133,#1134);
#934=AXIS2_PLACEMENT_3D('',#1468,#1135,#1136);
#935=AXIS2_PLACEMENT_3D('',#1469,#1137,#1138);
#936=AXIS2_PLACEMENT_3D('',#1471,#1139,#1140);
#937=AXIS2_PLACEMENT_3D('',#1472,#1141,#1142);
#938=AXIS2_PLACEMENT_3D('',#1482,#1144,#1145);
#939=AXIS2_PLACEMENT_3D('',#1484,#1147,#1148);
#940=AXIS2_PLACEMENT_3D('',#1493,#1149,#1150);
#941=AXIS2_PLACEMENT_3D('',#1496,#1153,#1154);
#942=AXIS2_PLACEMENT_3D('',#1505,#1155,#1156);
#943=AXIS2_PLACEMENT_3D('',#1514,#1157,#1158);
#944=AXIS2_PLACEMENT_3D('',#1524,#1160,#1161);
#945=AXIS2_PLACEMENT_3D('',#1526,#1163,#1164);
#946=AXIS2_PLACEMENT_3D('',#1535,#1165,#1166);
#947=AXIS2_PLACEMENT_3D('',#1545,#1168,#1169);
#948=AXIS2_PLACEMENT_3D('',#1555,#1171,#1172);
#949=AXIS2_PLACEMENT_3D('',#1556,#1173,#1174);
#950=AXIS2_PLACEMENT_3D('',#1557,#1175,#1176);
#951=AXIS2_PLACEMENT_3D('',#1558,#1177,#1178);
#952=AXIS2_PLACEMENT_3D('',#1559,#1179,#1180);
#953=AXIS2_PLACEMENT_3D('',#1560,#1181,#1182);
#954=AXIS2_PLACEMENT_3D('',#1561,#1183,#1184);
#955=AXIS2_PLACEMENT_3D('',#1562,#1185,#1186);
#956=AXIS2_PLACEMENT_3D('',#1563,#1187,#1188);
#957=AXIS2_PLACEMENT_3D('',#1564,#1189,#1190);
#958=AXIS2_PLACEMENT_3D('',#1565,#1191,#1192);
#959=DIRECTION('',(0.,0.,1.));
#960=DIRECTION('',(1.,0.,0.));
#961=DIRECTION('',(-1.,0.,0.));
#962=DIRECTION('',(0.,0.,1.));
#963=DIRECTION('',(-1.,0.,0.));
#964=DIRECTION('',(0.,0.,1.));
#965=DIRECTION('',(-1.,0.,0.));
#966=DIRECTION('',(0.,0.,1.));
#967=DIRECTION('',(-1.,0.,0.));
#968=DIRECTION('',(-1.,0.,0.));
#969=DIRECTION('',(-1.,0.,0.));
#970=DIRECTION('',(0.,0.,1.));
#971=DIRECTION('',(-1.,0.,0.));
#972=DIRECTION('',(-1.,0.,0.));
#973=DIRECTION('',(-1.,0.,0.));
#974=DIRECTION('',(0.,0.,1.));
#975=DIRECTION('',(0.,0.,1.));
#976=DIRECTION('',(-1.,0.,0.));
#977=DIRECTION('',(0.,0.,1.));
#978=DIRECTION('',(0.,0.,1.));
#979=DIRECTION('',(-1.,0.,0.));
#980=DIRECTION('',(0.,0.,1.));
#981=DIRECTION('',(0.,0.,-1.));
#982=DIRECTION('',(-1.,0.,0.));
#983=DIRECTION('',(0.,0.,1.));
#984=DIRECTION('',(0.,0.,-1.));
#985=DIRECTION('',(-1.,0.,0.));
#986=DIRECTION('',(0.,0.,1.));
#987=DIRECTION('',(-1.,0.,0.));
#988=DIRECTION('',(1.,0.,0.));
#989=DIRECTION('',(0.,0.,-1.));
#990=DIRECTION('',(-1.,0.,0.));
#991=DIRECTION('',(-1.,0.,0.));
#992=DIRECTION('',(0.,0.,1.));
#993=DIRECTION('',(-1.,0.,0.));
#994=DIRECTION('',(0.,0.,1.));
#995=DIRECTION('',(-1.,0.,0.));
#996=DIRECTION('',(1.,0.,0.));
#997=DIRECTION('',(0.,0.,-1.));
#998=DIRECTION('',(-1.,0.,0.));
#999=DIRECTION('',(-1.,0.,0.));
#1000=DIRECTION('',(0.,0.,1.));
#1001=DIRECTION('',(1.,0.,0.));
#1002=DIRECTION('',(0.,0.,-1.));
#1003=DIRECTION('',(0.,0.,-1.));
#1004=DIRECTION('',(1.,0.,0.));
#1005=DIRECTION('',(0.,0.,-1.));
#1006=DIRECTION('',(0.,0.,-1.));
#1007=DIRECTION('',(-1.,0.,0.));
#1008=DIRECTION('',(0.,0.,1.));
#1009=DIRECTION('',(-1.,0.,0.));
#1010=DIRECTION('',(0.,0.,1.));
#1011=DIRECTION('',(-1.,0.,0.));
#1012=DIRECTION('',(0.,0.,1.));
#1013=DIRECTION('',(-1.,0.,0.));
#1014=DIRECTION('',(-1.,0.,0.));
#1015=DIRECTION('',(-1.,0.,0.));
#1016=DIRECTION('',(-1.,0.,0.));
#1017=DIRECTION('',(0.,0.,1.));
#1018=DIRECTION('',(-1.,0.,0.));
#1019=DIRECTION('',(-1.,0.,0.));
#1020=DIRECTION('',(0.,0.,-1.));
#1021=DIRECTION('',(0.,0.,-1.));
#1022=DIRECTION('',(-1.,0.,0.));
#1023=DIRECTION('',(0.,0.,1.));
#1024=DIRECTION('',(0.,0.,-1.));
#1025=DIRECTION('',(-1.,0.,0.));
#1026=DIRECTION('',(0.,0.,1.));
#1027=DIRECTION('',(1.,0.,0.));
#1028=DIRECTION('',(0.,0.,1.));
#1029=DIRECTION('',(1.,0.,0.));
#1030=DIRECTION('',(1.,0.,0.));
#1031=DIRECTION('',(0.,0.,-1.));
#1032=DIRECTION('',(1.,0.,0.));
#1033=DIRECTION('',(-1.,0.,0.));
#1034=DIRECTION('',(0.,0.,1.));
#1035=DIRECTION('',(1.,0.,0.));
#1036=DIRECTION('',(0.,0.,1.));
#1037=DIRECTION('',(0.,0.,1.));
#1038=DIRECTION('',(1.,0.,0.));
#1039=DIRECTION('',(0.,0.,-1.));
#1040=DIRECTION('',(0.,0.,1.));
#1041=DIRECTION('',(-1.,0.,0.));
#1042=DIRECTION('',(0.,0.,1.));
#1043=DIRECTION('',(-1.,0.,0.));
#1044=DIRECTION('',(0.,0.,1.));
#1045=DIRECTION('',(1.,0.,0.));
#1046=DIRECTION('',(0.,0.,-1.));
#1047=DIRECTION('',(1.,0.,0.));
#1048=DIRECTION('',(0.,0.,-1.));
#1049=DIRECTION('',(1.,0.,0.));
#1050=DIRECTION('',(0.,0.,-1.));
#1051=DIRECTION('',(1.,0.,0.));
#1052=DIRECTION('',(0.,0.,-1.));
#1053=DIRECTION('',(0.,0.,-1.));
#1054=DIRECTION('',(1.,0.,0.));
#1055=DIRECTION('',(0.,0.,-1.));
#1056=DIRECTION('',(0.,0.,-1.));
#1057=DIRECTION('',(1.,0.,0.));
#1058=DIRECTION('',(0.,0.,-1.));
#1059=DIRECTION('',(0.,0.,-1.));
#1060=DIRECTION('',(-1.,0.,0.));
#1061=DIRECTION('',(0.,0.,-1.));
#1062=DIRECTION('',(1.,0.,0.));
#1063=DIRECTION('',(0.,0.,-1.));
#1064=DIRECTION('',(1.,0.,0.));
#1065=DIRECTION('',(0.,0.,-1.));
#1066=DIRECTION('',(-1.,0.,0.));
#1067=DIRECTION('',(0.,0.,1.));
#1068=DIRECTION('',(1.,0.,0.));
#1069=DIRECTION('',(0.,0.,-1.));
#1070=DIRECTION('',(-1.,0.,0.));
#1071=DIRECTION('',(0.,0.,1.));
#1072=DIRECTION('',(1.,0.,0.));
#1073=DIRECTION('',(-1.,0.,0.));
#1074=DIRECTION('',(0.,0.,-1.));
#1075=DIRECTION('',(-1.,0.,0.));
#1076=DIRECTION('',(0.,0.,1.));
#1077=DIRECTION('',(1.,0.,0.));
#1078=DIRECTION('',(0.,0.,1.));
#1079=DIRECTION('',(1.,0.,0.));
#1080=DIRECTION('',(1.,0.,0.));
#1081=DIRECTION('',(1.,0.,0.));
#1082=DIRECTION('',(1.,0.,0.));
#1083=DIRECTION('',(-1.,0.,0.));
#1084=DIRECTION('',(0.,0.,1.));
#1085=DIRECTION('',(-1.,0.,0.));
#1086=DIRECTION('',(0.,0.,-1.));
#1087=DIRECTION('',(0.,0.,-1.));
#1088=DIRECTION('',(-1.,0.,0.));
#1089=DIRECTION('',(0.,0.,1.));
#1090=DIRECTION('',(0.,0.,-1.));
#1091=DIRECTION('',(1.,0.,0.));
#1092=DIRECTION('',(0.,0.,1.));
#1093=DIRECTION('',(1.,0.,0.));
#1094=DIRECTION('',(-1.,0.,0.));
#1095=DIRECTION('',(0.,0.,1.));
#1096=DIRECTION('',(1.,0.,0.));
#1097=DIRECTION('',(1.,0.,0.));
#1098=DIRECTION('',(0.,0.,-1.));
#1099=DIRECTION('',(1.,0.,0.));
#1100=DIRECTION('',(0.,0.,1.));
#1101=DIRECTION('',(0.,0.,-1.));
#1102=DIRECTION('',(1.,0.,0.));
#1103=DIRECTION('',(0.,0.,-1.));
#1104=DIRECTION('',(0.,0.,-1.));
#1105=DIRECTION('',(-1.,0.,0.));
#1106=DIRECTION('',(0.,0.,1.));
#1107=DIRECTION('',(1.,0.,0.));
#1108=DIRECTION('',(0.,0.,1.));
#1109=DIRECTION('',(1.,0.,0.));
#1110=DIRECTION('',(1.,0.,0.));
#1111=DIRECTION('',(1.,0.,0.));
#1112=DIRECTION('',(1.,0.,0.));
#1113=DIRECTION('',(-1.,0.,0.));
#1114=DIRECTION('',(0.,0.,1.));
#1115=DIRECTION('',(-1.,0.,0.));
#1116=DIRECTION('',(0.,0.,-1.));
#1117=DIRECTION('',(-1.,0.,0.));
#1118=DIRECTION('',(0.,0.,1.));
#1119=DIRECTION('',(-1.,0.,0.));
#1120=DIRECTION('',(0.,0.,1.));
#1121=DIRECTION('',(-1.,0.,0.));
#1122=DIRECTION('',(0.,0.,1.));
#1123=DIRECTION('',(0.,0.,1.));
#1124=DIRECTION('',(1.,0.,0.));
#1125=DIRECTION('',(0.,0.,1.));
#1126=DIRECTION('',(1.,0.,0.));
#1127=DIRECTION('',(0.,0.,-1.));
#1128=DIRECTION('',(-1.,0.,0.));
#1129=DIRECTION('',(0.,0.,1.));
#1130=DIRECTION('',(1.,0.,0.));
#1131=DIRECTION('',(0.,0.,1.));
#1132=DIRECTION('',(1.,0.,0.));
#1133=DIRECTION('',(0.,0.,1.));
#1134=DIRECTION('',(1.,0.,0.));
#1135=DIRECTION('',(0.,0.,1.));
#1136=DIRECTION('',(1.,0.,0.));
#1137=DIRECTION('',(0.,0.,1.));
#1138=DIRECTION('',(1.,0.,0.));
#1139=DIRECTION('',(0.,0.,1.));
#1140=DIRECTION('',(1.,0.,0.));
#1141=DIRECTION('',(1.80700362080918E-16,-1.,0.));
#1142=DIRECTION('',(1.,1.80700362080918E-16,0.));
#1143=DIRECTION('',(0.,0.,-1.));
#1144=DIRECTION('',(0.,0.,-1.));
#1145=DIRECTION('',(-1.,0.,0.));
#1146=DIRECTION('',(0.,0.,-1.));
#1147=DIRECTION('',(0.,1.,0.));
#1148=DIRECTION('',(0.,0.,1.));
#1149=DIRECTION('',(0.,0.,-1.));
#1150=DIRECTION('',(-1.,0.,0.));
#1151=DIRECTION('',(0.,0.,-1.));
#1152=DIRECTION('',(0.,0.,-1.));
#1153=DIRECTION('',(1.80700362080918E-16,-1.,0.));
#1154=DIRECTION('',(1.,1.80700362080918E-16,0.));
#1155=DIRECTION('',(0.,1.,0.));
#1156=DIRECTION('',(0.,0.,1.));
#1157=DIRECTION('',(5.42101086242752E-17,1.,0.));
#1158=DIRECTION('',(-1.,5.42101086242752E-17,0.));
#1159=DIRECTION('',(0.,0.,-1.));
#1160=DIRECTION('',(0.,0.,-1.));
#1161=DIRECTION('',(-1.,0.,0.));
#1162=DIRECTION('',(0.,0.,-1.));
#1163=DIRECTION('',(1.44560289664734E-16,-1.,0.));
#1164=DIRECTION('',(1.,1.44560289664734E-16,0.));
#1165=DIRECTION('',(5.42101086242752E-17,1.,0.));
#1166=DIRECTION('',(-1.,5.42101086242752E-17,0.));
#1167=DIRECTION('',(0.,0.,-1.));
#1168=DIRECTION('',(1.44560289664734E-16,-1.,0.));
#1169=DIRECTION('',(1.,1.44560289664734E-16,0.));
#1170=DIRECTION('',(0.,0.,-1.));
#1171=DIRECTION('',(0.,0.,-1.));
#1172=DIRECTION('',(-1.,0.,0.));
#1173=DIRECTION('',(1.,0.,0.));
#1174=DIRECTION('',(0.,0.,-1.));
#1175=DIRECTION('',(1.,0.,0.));
#1176=DIRECTION('',(0.,0.,-1.));
#1177=DIRECTION('',(-1.,0.,0.));
#1178=DIRECTION('',(0.,0.,1.));
#1179=DIRECTION('',(-1.,0.,0.));
#1180=DIRECTION('',(0.,0.,1.));
#1181=DIRECTION('',(1.,0.,0.));
#1182=DIRECTION('',(0.,0.,-1.));
#1183=DIRECTION('',(1.,0.,0.));
#1184=DIRECTION('',(0.,0.,-1.));
#1185=DIRECTION('',(-1.,0.,0.));
#1186=DIRECTION('',(0.,0.,1.));
#1187=DIRECTION('',(-1.,0.,0.));
#1188=DIRECTION('',(0.,0.,1.));
#1189=DIRECTION('',(-1.,0.,0.));
#1190=DIRECTION('',(0.,0.,1.));
#1191=DIRECTION('',(1.,0.,0.));
#1192=DIRECTION('',(0.,0.,-1.));
#1193=CARTESIAN_POINT('',(0.,0.,0.));
#1194=CARTESIAN_POINT('',(-60.,0.,0.));
#1195=CARTESIAN_POINT('',(4.8,0.,0.));
#1196=CARTESIAN_POINT('',(4.8,0.,2.4));
#1197=CARTESIAN_POINT('',(11.2,0.,0.));
#1198=CARTESIAN_POINT('',(11.2,0.399999999999999,2.36643191323985));
#1199=CARTESIAN_POINT('',(11.2,0.399999999999999,-2.36643191323985));
#1200=CARTESIAN_POINT('',(-60.,0.399999999999989,-2.36643191323985));
#1201=CARTESIAN_POINT('',(8.99999999999999,0.399999999999999,-2.36643191323985));
#1202=CARTESIAN_POINT('',(8.99999999999999,0.399999999999998,-2.36643191323985));
#1203=CARTESIAN_POINT('',(8.78822268583312,0.399999999999998,-2.36643191323985));
#1204=CARTESIAN_POINT('',(8.41177762092903,0.000615622984666275,-2.43356804728185));
#1205=CARTESIAN_POINT('',(8.78822254604843,-0.400000000000002,-2.36643191323985));
#1206=CARTESIAN_POINT('',(9.,-0.400000000000001,-2.36643191323985));
#1207=CARTESIAN_POINT('',(9.,-0.400000000000001,-2.36643191323985));
#1208=CARTESIAN_POINT('',(-60.,-0.399999999999998,-2.36643191323985));
#1209=CARTESIAN_POINT('',(11.2,-0.400000000000001,-2.36643191323985));
#1210=CARTESIAN_POINT('',(11.2,0.,0.));
#1211=CARTESIAN_POINT('',(11.2,-0.400000000000001,2.36643191323985));
#1212=CARTESIAN_POINT('',(-60.,-0.399999999999998,2.36643191323985));
#1213=CARTESIAN_POINT('',(9.,-0.400000000000001,2.36643191323985));
#1214=CARTESIAN_POINT('',(9.,-0.400000000000001,2.36643191323985));
#1215=CARTESIAN_POINT('',(8.78822268583312,-0.400000000000002,2.36643191323985));
#1216=CARTESIAN_POINT('',(8.41177762092904,-0.000615622984670666,2.43356804728185));
#1217=CARTESIAN_POINT('',(8.78822254604843,0.399999999999998,2.36643191323985));
#1218=CARTESIAN_POINT('',(8.99999999999999,0.399999999999998,2.36643191323985));
#1219=CARTESIAN_POINT('',(8.99999999999999,0.399999999999999,2.36643191323985));
#1220=CARTESIAN_POINT('',(-60.,0.399999999999989,2.36643191323985));
#1221=CARTESIAN_POINT('',(11.2,0.,2.4));
#1222=CARTESIAN_POINT('',(11.2,0.399999999999999,2.4));
#1223=CARTESIAN_POINT('',(11.2,0.399999999999999,2.46779253585061));
#1224=CARTESIAN_POINT('',(11.2,0.,0.));
#1225=CARTESIAN_POINT('',(11.2,0.399999999999999,-2.46779253585061));
#1226=CARTESIAN_POINT('',(11.2,0.399999999999999,2.4));
#1227=CARTESIAN_POINT('',(11.2,0.,2.4));
#1228=CARTESIAN_POINT('',(11.2,-0.400000000000001,2.4));
#1229=CARTESIAN_POINT('',(11.2,-0.400000000000001,-2.46779253585061));
#1230=CARTESIAN_POINT('',(11.2,0.,0.));
#1231=CARTESIAN_POINT('',(11.2,-0.400000000000001,2.46779253585061));
#1232=CARTESIAN_POINT('',(11.2,-0.400000000000001,2.4));
#1233=CARTESIAN_POINT('',(-60.,0.,0.));
#1234=CARTESIAN_POINT('',(-60.,0.399999999999989,2.56904651573303));
#1235=CARTESIAN_POINT('',(11.3,0.399999999999989,2.56904651573303));
#1236=CARTESIAN_POINT('',(11.9,0.399999999999989,2.56904651573303));
#1237=CARTESIAN_POINT('',(11.9,0.,0.));
#1238=CARTESIAN_POINT('',(11.9,0.399999999999989,-2.56904651573303));
#1239=CARTESIAN_POINT('',(-60.,0.399999999999989,-2.56904651573303));
#1240=CARTESIAN_POINT('',(11.3,0.399999999999989,-2.56904651573303));
#1241=CARTESIAN_POINT('',(11.3,0.,0.));
#1242=CARTESIAN_POINT('',(-60.,0.,0.));
#1243=CARTESIAN_POINT('',(-60.,-0.399999999999998,-2.56904651573303));
#1244=CARTESIAN_POINT('',(11.3,-0.399999999999998,-2.56904651573303));
#1245=CARTESIAN_POINT('',(11.9,-0.399999999999998,-2.56904651573303));
#1246=CARTESIAN_POINT('',(11.9,0.,0.));
#1247=CARTESIAN_POINT('',(11.9,-0.399999999999998,2.56904651573303));
#1248=CARTESIAN_POINT('',(-60.,-0.399999999999998,2.56904651573303));
#1249=CARTESIAN_POINT('',(11.3,-0.399999999999998,2.56904651573303));
#1250=CARTESIAN_POINT('',(11.3,0.,0.));
#1251=CARTESIAN_POINT('',(12.,0.,2.));
#1252=CARTESIAN_POINT('',(12.,0.399999999999999,60.));
#1253=CARTESIAN_POINT('',(12.,0.399999999999999,-1.95959179422654));
#1254=CARTESIAN_POINT('',(12.,0.399999999999999,-2.46779253585061));
#1255=CARTESIAN_POINT('',(12.,0.,0.));
#1256=CARTESIAN_POINT('',(12.,0.399999999999999,2.46779253585061));
#1257=CARTESIAN_POINT('',(12.,0.399999999999999,60.));
#1258=CARTESIAN_POINT('',(12.,0.399999999999999,1.95959179422654));
#1259=CARTESIAN_POINT('',(12.,0.,0.));
#1260=CARTESIAN_POINT('',(-60.,0.,0.));
#1261=CARTESIAN_POINT('',(4.,0.,0.));
#1262=CARTESIAN_POINT('',(4.,0.,2.));
#1263=CARTESIAN_POINT('',(9.,-0.400000000000001,-1.95959179422654));
#1264=CARTESIAN_POINT('',(8.78804816164061,-0.400000000000002,-1.95959179422654));
#1265=CARTESIAN_POINT('',(8.41195279205319,-0.000649222677645149,-2.04040815308718));
#1266=CARTESIAN_POINT('',(8.78804678111569,0.399999999999999,-1.95959179422657));
#1267=CARTESIAN_POINT('',(8.99999999999999,0.4,-1.95959179422656));
#1268=CARTESIAN_POINT('',(8.99999999999999,-0.399999999999998,-1.95959179422654));
#1269=CARTESIAN_POINT('',(8.99999999999999,0.399999999999999,-1.95959179422654));
#1270=CARTESIAN_POINT('',(-60.,0.399999999999989,-1.95959179422654));
#1271=CARTESIAN_POINT('',(-60.,0.399999999999989,1.95959179422654));
#1272=CARTESIAN_POINT('',(8.99999999999999,0.399999999999999,1.95959179422654));
#1273=CARTESIAN_POINT('',(8.99999999999999,0.399999999999998,1.95959179422654));
#1274=CARTESIAN_POINT('',(8.78804816164061,0.399999999999998,1.95959179422654));
#1275=CARTESIAN_POINT('',(8.41195279205319,0.000649222677641327,2.04040815308718));
#1276=CARTESIAN_POINT('',(8.78804678111569,-0.400000000000002,1.95959179422656));
#1277=CARTESIAN_POINT('',(8.99999999999999,-0.400000000000002,1.95959179422656));
#1278=CARTESIAN_POINT('',(9.,-0.400000000000001,1.95959179422654));
#1279=CARTESIAN_POINT('',(-60.,-0.399999999999998,1.95959179422654));
#1280=CARTESIAN_POINT('',(12.,-0.399999999999998,1.95959179422654));
#1281=CARTESIAN_POINT('',(12.,0.,0.));
#1282=CARTESIAN_POINT('',(12.,-0.400000000000001,-1.95959179422654));
#1283=CARTESIAN_POINT('',(-60.,-0.399999999999998,-1.95959179422654));
#1284=CARTESIAN_POINT('',(-12.,0.,2.));
#1285=CARTESIAN_POINT('',(-12.,-0.400000000000001,60.));
#1286=CARTESIAN_POINT('',(-12.,-0.400000000000001,-1.95959179422654));
#1287=CARTESIAN_POINT('',(-12.,-0.400000000000001,-2.46779253585061));
#1288=CARTESIAN_POINT('',(-12.,0.,0.));
#1289=CARTESIAN_POINT('',(-12.,-0.400000000000001,2.46779253585061));
#1290=CARTESIAN_POINT('',(-12.,-0.400000000000001,60.));
#1291=CARTESIAN_POINT('',(-12.,-0.400000000000001,1.95959179422654));
#1292=CARTESIAN_POINT('',(-12.,0.,0.));
#1293=CARTESIAN_POINT('',(60.,0.,0.));
#1294=CARTESIAN_POINT('',(60.,0.399999999999999,2.56904651573303));
#1295=CARTESIAN_POINT('',(-11.3,0.399999999999999,2.56904651573303));
#1296=CARTESIAN_POINT('',(-11.9,0.399999999999999,2.56904651573303));
#1297=CARTESIAN_POINT('',(-11.3,0.,0.));
#1298=CARTESIAN_POINT('',(-11.3,0.399999999999999,-2.56904651573303));
#1299=CARTESIAN_POINT('',(60.,0.399999999999999,-2.56904651573303));
#1300=CARTESIAN_POINT('',(-11.9,0.399999999999999,-2.56904651573303));
#1301=CARTESIAN_POINT('',(-11.9,0.,0.));
#1302=CARTESIAN_POINT('',(-11.2,0.,2.4));
#1303=CARTESIAN_POINT('',(-11.2,0.399999999999999,2.4));
#1304=CARTESIAN_POINT('',(-11.2,0.399999999999999,-2.46779253585061));
#1305=CARTESIAN_POINT('',(-11.2,0.399999999999999,-2.36643191323985));
#1306=CARTESIAN_POINT('',(-11.2,0.,0.));
#1307=CARTESIAN_POINT('',(-11.2,0.399999999999999,2.46779253585061));
#1308=CARTESIAN_POINT('',(-11.2,0.399999999999999,2.4));
#1309=CARTESIAN_POINT('',(-11.2,0.399999999999999,2.36643191323985));
#1310=CARTESIAN_POINT('',(-11.2,0.,0.));
#1311=CARTESIAN_POINT('',(-60.,0.,0.));
#1312=CARTESIAN_POINT('',(4.7,0.,0.));
#1313=CARTESIAN_POINT('',(4.7,0.,-3.1));
#1314=CARTESIAN_POINT('',(3.42993954459158,-1.30702800091682,2.90488984972478));
#1315=CARTESIAN_POINT('',(3.68488549249702,0.000611441300547481,3.19737535402097));
#1316=CARTESIAN_POINT('',(3.43051848542034,1.30458223571463,2.90560873419133));
#1317=CARTESIAN_POINT('',(2.85049986457345,2.2774149142118,2.20266477133635));
#1318=CARTESIAN_POINT('',(2.28286310023194,2.80336667537238,1.41966330837951));
#1319=CARTESIAN_POINT('',(1.91473150595136,3.05178156202785,0.655187846728164));
#1320=CARTESIAN_POINT('',(1.78839512024322,3.12392591424093,0.00382845382373315));
#1321=CARTESIAN_POINT('',(1.91350545963405,3.05250632859973,-0.652769501067359));
#1322=CARTESIAN_POINT('',(2.28044854352064,2.80524497571583,-1.41522893001598));
#1323=CARTESIAN_POINT('',(2.84796132634116,2.28030515964472,-2.199705884286));
#1324=CARTESIAN_POINT('',(3.42932750928699,1.30885449923526,-2.90417697608051));
#1325=CARTESIAN_POINT('',(3.68502498526261,-3.97021198484068E-5,-3.19753643502512));
#1326=CARTESIAN_POINT('',(3.43057229095535,-1.30535261546438,-2.90567698338481));
#1327=CARTESIAN_POINT('',(2.84800890899145,-2.28067538902406,-2.19968842175544));
#1328=CARTESIAN_POINT('',(2.28103641514652,-2.80472898086667,-1.41636170610686));
#1329=CARTESIAN_POINT('',(1.91355665823656,-3.05249964650472,-0.652758565289811));
#1330=CARTESIAN_POINT('',(1.78822691696122,-3.1240279833905,0.00314359042008173));
#1331=CARTESIAN_POINT('',(1.9153516581004,-3.05138083094165,0.65698629964909));
#1332=CARTESIAN_POINT('',(2.28192194000878,-2.80399900730896,1.41747518510932));
#1333=CARTESIAN_POINT('',(2.849070075588,-2.27896861273871,2.20108277331399));
#1334=CARTESIAN_POINT('',(3.42993954459158,-1.30702800091682,2.90488984972478));
#1335=CARTESIAN_POINT('',(3.68488549249702,0.000611441300547481,3.19737535402097));
#1336=CARTESIAN_POINT('',(3.43051848542034,1.30458223571463,2.90560873419133));
#1337=CARTESIAN_POINT('',(3.6,3.7591658025816E-17,3.1));
#1338=CARTESIAN_POINT('',(4.8,0.,3.1));
#1339=CARTESIAN_POINT('',(4.8,0.,0.));
#1340=CARTESIAN_POINT('',(4.8,0.,-3.));
#1341=CARTESIAN_POINT('',(12.,0.,2.));
#1342=CARTESIAN_POINT('',(12.,-0.400000000000001,60.));
#1343=CARTESIAN_POINT('',(12.,-0.400000000000001,2.46779253585061));
#1344=CARTESIAN_POINT('',(12.,0.,0.));
#1345=CARTESIAN_POINT('',(12.,-0.400000000000001,-2.46779253585061));
#1346=CARTESIAN_POINT('',(12.,-0.400000000000001,60.));
#1347=CARTESIAN_POINT('',(4.,0.,2.));
#1348=CARTESIAN_POINT('',(0.,0.,4.));
#1349=CARTESIAN_POINT('',(-3.42993954459158,1.30702800091682,2.90488984972478));
#1350=CARTESIAN_POINT('',(-3.68488549249702,-0.000611441300547481,3.19737535402097));
#1351=CARTESIAN_POINT('',(-3.43051848542034,-1.30458223571463,2.90560873419133));
#1352=CARTESIAN_POINT('',(-2.85049986457345,-2.2774149142118,2.20266477133635));
#1353=CARTESIAN_POINT('',(-2.28286310023194,-2.80336667537238,1.41966330837951));
#1354=CARTESIAN_POINT('',(-1.91473150595136,-3.05178156202785,0.655187846728164));
#1355=CARTESIAN_POINT('',(-1.78839512024322,-3.12392591424093,0.00382845382373315));
#1356=CARTESIAN_POINT('',(-1.91350545963405,-3.05250632859973,-0.652769501067359));
#1357=CARTESIAN_POINT('',(-2.28044854352064,-2.80524497571583,-1.41522893001598));
#1358=CARTESIAN_POINT('',(-2.84796132634116,-2.28030515964472,-2.199705884286));
#1359=CARTESIAN_POINT('',(-3.42932750928699,-1.30885449923526,-2.90417697608051));
#1360=CARTESIAN_POINT('',(-3.68502498526261,3.97021198484068E-5,-3.19753643502512));
#1361=CARTESIAN_POINT('',(-3.43057229095535,1.30535261546438,-2.90567698338481));
#1362=CARTESIAN_POINT('',(-2.84800890899145,2.28067538902406,-2.19968842175544));
#1363=CARTESIAN_POINT('',(-2.28103641514652,2.80472898086667,-1.41636170610686));
#1364=CARTESIAN_POINT('',(-1.91355665823656,3.05249964650472,-0.652758565289811));
#1365=CARTESIAN_POINT('',(-1.78822691696122,3.1240279833905,0.00314359042008173));
#1366=CARTESIAN_POINT('',(-1.9153516581004,3.05138083094165,0.65698629964909));
#1367=CARTESIAN_POINT('',(-2.28192194000878,2.80399900730896,1.41747518510932));
#1368=CARTESIAN_POINT('',(-2.849070075588,2.27896861273871,2.20108277331399));
#1369=CARTESIAN_POINT('',(-3.42993954459158,1.30702800091682,2.90488984972478));
#1370=CARTESIAN_POINT('',(-3.68488549249702,-0.000611441300547481,3.19737535402097));
#1371=CARTESIAN_POINT('',(-3.43051848542034,-1.30458223571463,2.90560873419133));
#1372=CARTESIAN_POINT('',(-3.6,-3.7591658025816E-17,3.1));
#1373=CARTESIAN_POINT('',(0.,0.,4.));
#1374=CARTESIAN_POINT('',(3.6,0.,4.));
#1375=CARTESIAN_POINT('',(0.,0.,-4.));
#1376=CARTESIAN_POINT('',(3.6,0.,-4.));
#1377=CARTESIAN_POINT('',(0.,0.,4.));
#1378=CARTESIAN_POINT('',(0.,0.,4.));
#1379=CARTESIAN_POINT('',(3.1,0.,4.));
#1380=CARTESIAN_POINT('',(0.,0.,-4.));
#1381=CARTESIAN_POINT('',(0.,0.,-4.));
#1382=CARTESIAN_POINT('',(3.1,0.,-4.));
#1383=CARTESIAN_POINT('',(-4.,0.,2.));
#1384=CARTESIAN_POINT('',(-4.,0.,0.));
#1385=CARTESIAN_POINT('',(-4.,0.,2.));
#1386=CARTESIAN_POINT('',(60.,0.,0.));
#1387=CARTESIAN_POINT('',(60.,0.399999999999999,-1.95959179422654));
#1388=CARTESIAN_POINT('',(-9.,0.399999999999999,-1.95959179422654));
#1389=CARTESIAN_POINT('',(-12.,0.399999999999999,-1.95959179422654));
#1390=CARTESIAN_POINT('',(-9.,-0.4,-1.95959179422654));
#1391=CARTESIAN_POINT('',(-8.78804816164062,-0.400000000000001,-1.95959179422654));
#1392=CARTESIAN_POINT('',(-8.41195279205319,-0.000649222677647263,-2.04040815308718));
#1393=CARTESIAN_POINT('',(-8.78804678111569,0.399999999999998,-1.95959179422657));
#1394=CARTESIAN_POINT('',(-9.,0.4,-1.95959179422656));
#1395=CARTESIAN_POINT('',(-9.,-0.4,-1.95959179422654));
#1396=CARTESIAN_POINT('',(60.,-0.399999999999988,-1.95959179422654));
#1397=CARTESIAN_POINT('',(60.,-0.399999999999988,1.95959179422654));
#1398=CARTESIAN_POINT('',(-9.,-0.4,1.95959179422654));
#1399=CARTESIAN_POINT('',(-9.,0.399999999999998,1.95959179422654));
#1400=CARTESIAN_POINT('',(-8.78804816164062,0.399999999999997,1.95959179422654));
#1401=CARTESIAN_POINT('',(-8.41195279205319,0.000649222677640812,2.04040815308718));
#1402=CARTESIAN_POINT('',(-8.78804678111569,-0.400000000000002,1.95959179422656));
#1403=CARTESIAN_POINT('',(-9.,-0.400000000000002,1.95959179422656));
#1404=CARTESIAN_POINT('',(-9.,0.399999999999999,1.95959179422654));
#1405=CARTESIAN_POINT('',(60.,0.399999999999999,1.95959179422654));
#1406=CARTESIAN_POINT('',(-12.,0.399999999999999,1.95959179422654));
#1407=CARTESIAN_POINT('',(-12.,0.,0.));
#1408=CARTESIAN_POINT('',(-12.,0.,2.));
#1409=CARTESIAN_POINT('',(-12.,0.399999999999999,60.));
#1410=CARTESIAN_POINT('',(-12.,0.399999999999999,2.46779253585061));
#1411=CARTESIAN_POINT('',(-12.,0.,0.));
#1412=CARTESIAN_POINT('',(-12.,0.399999999999999,-2.46779253585061));
#1413=CARTESIAN_POINT('',(-12.,0.399999999999999,60.));
#1414=CARTESIAN_POINT('',(60.,0.,0.));
#1415=CARTESIAN_POINT('',(60.,-0.399999999999988,2.56904651573303));
#1416=CARTESIAN_POINT('',(-11.9,-0.399999999999988,2.56904651573303));
#1417=CARTESIAN_POINT('',(-11.3,-0.399999999999988,2.56904651573303));
#1418=CARTESIAN_POINT('',(-11.9,0.,0.));
#1419=CARTESIAN_POINT('',(-11.9,-0.399999999999988,-2.56904651573303));
#1420=CARTESIAN_POINT('',(60.,-0.399999999999988,-2.56904651573303));
#1421=CARTESIAN_POINT('',(-11.3,-0.399999999999988,-2.56904651573303));
#1422=CARTESIAN_POINT('',(-11.3,0.,0.));
#1423=CARTESIAN_POINT('',(-11.2,0.,2.4));
#1424=CARTESIAN_POINT('',(-11.2,-0.400000000000001,2.4));
#1425=CARTESIAN_POINT('',(-11.2,-0.400000000000001,2.46779253585061));
#1426=CARTESIAN_POINT('',(-11.2,-0.399999999999989,2.36643191323985));
#1427=CARTESIAN_POINT('',(-11.2,0.,0.));
#1428=CARTESIAN_POINT('',(-11.2,-0.400000000000001,-2.46779253585061));
#1429=CARTESIAN_POINT('',(-11.2,-0.400000000000001,2.4));
#1430=CARTESIAN_POINT('',(-11.2,-0.399999999999988,-2.36643191323985));
#1431=CARTESIAN_POINT('',(-11.2,0.,0.));
#1432=CARTESIAN_POINT('',(60.,0.,0.));
#1433=CARTESIAN_POINT('',(60.,0.399999999999999,-2.36643191323985));
#1434=CARTESIAN_POINT('',(-9.,0.399999999999999,-2.36643191323985));
#1435=CARTESIAN_POINT('',(60.,0.399999999999999,2.36643191323985));
#1436=CARTESIAN_POINT('',(-9.,0.399999999999999,2.36643191323985));
#1437=CARTESIAN_POINT('',(-9.,-0.4,2.36643191323985));
#1438=CARTESIAN_POINT('',(-8.78822268583313,-0.400000000000001,2.36643191323985));
#1439=CARTESIAN_POINT('',(-8.41177762092904,-0.000615622984671751,2.43356804728185));
#1440=CARTESIAN_POINT('',(-8.78822254604843,0.399999999999998,2.36643191323985));
#1441=CARTESIAN_POINT('',(-9.,0.399999999999999,2.36643191323985));
#1442=CARTESIAN_POINT('',(-9.,-0.4,2.36643191323985));
#1443=CARTESIAN_POINT('',(60.,-0.399999999999988,2.36643191323985));
#1444=CARTESIAN_POINT('',(60.,-0.399999999999988,-2.36643191323985));
#1445=CARTESIAN_POINT('',(-9.00000000000001,-0.399999999999988,-2.36643191323985));
#1446=CARTESIAN_POINT('',(-9.,0.399999999999998,-2.36643191323985));
#1447=CARTESIAN_POINT('',(-8.78822268583312,0.399999999999997,-2.36643191323985));
#1448=CARTESIAN_POINT('',(-8.41177762092904,0.000615622984658198,-2.43356804728185));
#1449=CARTESIAN_POINT('',(-8.78822254604844,-0.400000000000001,-2.36643191323985));
#1450=CARTESIAN_POINT('',(-9.,-0.400000000000001,-2.36643191323985));
#1451=CARTESIAN_POINT('',(-4.8,0.,0.));
#1452=CARTESIAN_POINT('',(-4.8,0.,2.4));
#1453=CARTESIAN_POINT('',(-4.8,0.,3.1));
#1454=CARTESIAN_POINT('',(-4.8,0.,0.));
#1455=CARTESIAN_POINT('',(-4.8,0.,3.));
#1456=CARTESIAN_POINT('',(-60.,0.,0.));
#1457=CARTESIAN_POINT('',(-4.7,0.,0.));
#1458=CARTESIAN_POINT('',(-4.7,0.,3.1));
#1459=CARTESIAN_POINT('',(0.,0.,54.));
#1460=CARTESIAN_POINT('',(0.,0.,3.2));
#1461=CARTESIAN_POINT('',(3.1,0.,3.2));
#1462=CARTESIAN_POINT('',(3.1,0.,3.2));
#1463=CARTESIAN_POINT('',(0.,0.,3.2));
#1464=CARTESIAN_POINT('',(2.4,0.,3.2));
#1465=CARTESIAN_POINT('',(0.,0.,54.));
#1466=CARTESIAN_POINT('',(0.,0.,-3.2));
#1467=CARTESIAN_POINT('',(2.4,0.,-3.2));
#1468=CARTESIAN_POINT('',(2.4,0.,-3.2));
#1469=CARTESIAN_POINT('',(0.,0.,-3.2));
#1470=CARTESIAN_POINT('',(3.1,0.,-3.2));
#1471=CARTESIAN_POINT('',(0.,0.,54.));
#1472=CARTESIAN_POINT('',(-9.,-0.400000000000001,60.));
#1473=CARTESIAN_POINT('',(-12.,-0.400000000000001,2.46779253585061));
#1474=CARTESIAN_POINT('',(-12.,-0.400000000000001,2.52094409811741));
#1475=CARTESIAN_POINT('',(-11.9531708896933,-0.400000000000001,2.56904651573327));
#1476=CARTESIAN_POINT('',(-11.9000000000001,-0.400000000000001,2.5690465157333));
#1477=CARTESIAN_POINT('',(-11.3,-0.399999999999989,2.56904651573303));
#1478=CARTESIAN_POINT('',(-11.2468409828381,-0.399999999999989,2.56904651573303));
#1479=CARTESIAN_POINT('',(-11.1999999999993,-0.400000000000001,2.52093314467838));
#1480=CARTESIAN_POINT('',(-11.1999999999992,-0.400000000000001,2.46779253585081));
#1481=CARTESIAN_POINT('',(-9.,-0.4,60.));
#1482=CARTESIAN_POINT('',(-9.,-9.21571846612679E-16,60.));
#1483=CARTESIAN_POINT('',(-9.,0.399999999999999,60.));
#1484=CARTESIAN_POINT('',(-12.,0.399999999999999,60.));
#1485=CARTESIAN_POINT('',(-11.2,0.399999999999999,2.46779253585061));
#1486=CARTESIAN_POINT('',(-11.2,0.399999999999999,2.52094409811741));
#1487=CARTESIAN_POINT('',(-11.2468291103067,0.399999999999999,2.56904651573327));
#1488=CARTESIAN_POINT('',(-11.2999999999999,0.399999999999999,2.5690465157333));
#1489=CARTESIAN_POINT('',(-11.9,0.399999999999999,2.56904651573303));
#1490=CARTESIAN_POINT('',(-11.9531590171619,0.399999999999999,2.56904651573303));
#1491=CARTESIAN_POINT('',(-12.0000000000007,0.399999999999999,2.52093314467838));
#1492=CARTESIAN_POINT('',(-12.0000000000008,0.399999999999999,2.46779253585081));
#1493=CARTESIAN_POINT('',(-9.,-9.21571846612679E-16,60.));
#1494=CARTESIAN_POINT('',(-9.,0.399999999999999,60.));
#1495=CARTESIAN_POINT('',(-9.,-0.4,60.));
#1496=CARTESIAN_POINT('',(-9.,-0.400000000000001,60.));
#1497=CARTESIAN_POINT('',(-11.9,-0.399999999999989,-2.56904651573303));
#1498=CARTESIAN_POINT('',(-11.9531590171619,-0.399999999999989,-2.56904651573303));
#1499=CARTESIAN_POINT('',(-12.0000000000007,-0.400000000000002,-2.52093314467838));
#1500=CARTESIAN_POINT('',(-12.0000000000008,-0.400000000000002,-2.46779253585081));
#1501=CARTESIAN_POINT('',(-11.2,-0.400000000000001,-2.46779253585061));
#1502=CARTESIAN_POINT('',(-11.2,-0.400000000000001,-2.5209440981174));
#1503=CARTESIAN_POINT('',(-11.2468291103067,-0.400000000000001,-2.56904651573327));
#1504=CARTESIAN_POINT('',(-11.2999999999999,-0.400000000000001,-2.5690465157333));
#1505=CARTESIAN_POINT('',(-12.,0.399999999999999,60.));
#1506=CARTESIAN_POINT('',(-11.3,0.399999999999999,-2.56904651573303));
#1507=CARTESIAN_POINT('',(-11.2468409828381,0.399999999999999,-2.56904651573303));
#1508=CARTESIAN_POINT('',(-11.1999999999993,0.399999999999999,-2.52093314467838));
#1509=CARTESIAN_POINT('',(-11.1999999999992,0.399999999999999,-2.46779253585081));
#1510=CARTESIAN_POINT('',(-12.,0.399999999999999,-2.46779253585061));
#1511=CARTESIAN_POINT('',(-12.,0.399999999999999,-2.52094409811741));
#1512=CARTESIAN_POINT('',(-11.9531708896933,0.399999999999999,-2.56904651573327));
#1513=CARTESIAN_POINT('',(-11.9000000000001,0.399999999999999,-2.5690465157333));
#1514=CARTESIAN_POINT('',(9.,-0.400000000000001,60.));
#1515=CARTESIAN_POINT('',(11.9,-0.399999999999998,2.56904651573303));
#1516=CARTESIAN_POINT('',(11.9531590171619,-0.399999999999998,2.56904651573303));
#1517=CARTESIAN_POINT('',(12.0000000000007,-0.400000000000001,2.52093314467838));
#1518=CARTESIAN_POINT('',(12.0000000000008,-0.400000000000001,2.46779253585081));
#1519=CARTESIAN_POINT('',(9.,-0.400000000000001,60.));
#1520=CARTESIAN_POINT('',(11.2,-0.400000000000001,2.46779253585061));
#1521=CARTESIAN_POINT('',(11.2,-0.400000000000001,2.52094409811741));
#1522=CARTESIAN_POINT('',(11.2468291103067,-0.400000000000001,2.56904651573327));
#1523=CARTESIAN_POINT('',(11.2999999999999,-0.400000000000001,2.5690465157333));
#1524=CARTESIAN_POINT('',(8.99999999999999,-1.30104260698261E-15,60.));
#1525=CARTESIAN_POINT('',(8.99999999999999,0.399999999999999,60.));
#1526=CARTESIAN_POINT('',(12.,0.399999999999999,60.));
#1527=CARTESIAN_POINT('',(12.,0.399999999999999,2.46779253585061));
#1528=CARTESIAN_POINT('',(12.,0.399999999999999,2.52094409811741));
#1529=CARTESIAN_POINT('',(11.9531708896933,0.399999999999999,2.56904651573327));
#1530=CARTESIAN_POINT('',(11.9000000000001,0.399999999999999,2.5690465157333));
#1531=CARTESIAN_POINT('',(11.3,0.399999999999989,2.56904651573303));
#1532=CARTESIAN_POINT('',(11.2468409828381,0.399999999999989,2.56904651573303));
#1533=CARTESIAN_POINT('',(11.1999999999993,0.399999999999999,2.52093314467838));
#1534=CARTESIAN_POINT('',(11.1999999999992,0.399999999999999,2.46779253585081));
#1535=CARTESIAN_POINT('',(9.,-0.400000000000001,60.));
#1536=CARTESIAN_POINT('',(12.,-0.400000000000001,-2.46779253585061));
#1537=CARTESIAN_POINT('',(12.,-0.400000000000001,-2.52094409811741));
#1538=CARTESIAN_POINT('',(11.9531708896933,-0.400000000000001,-2.56904651573327));
#1539=CARTESIAN_POINT('',(11.9000000000001,-0.400000000000001,-2.5690465157333));
#1540=CARTESIAN_POINT('',(11.3,-0.399999999999998,-2.56904651573303));
#1541=CARTESIAN_POINT('',(11.2468409828381,-0.399999999999998,-2.56904651573303));
#1542=CARTESIAN_POINT('',(11.1999999999993,-0.400000000000001,-2.52093314467838));
#1543=CARTESIAN_POINT('',(11.1999999999992,-0.400000000000001,-2.46779253585081));
#1544=CARTESIAN_POINT('',(9.,-0.400000000000001,60.));
#1545=CARTESIAN_POINT('',(12.,0.399999999999999,60.));
#1546=CARTESIAN_POINT('',(11.9,0.399999999999989,-2.56904651573303));
#1547=CARTESIAN_POINT('',(11.9531590171619,0.399999999999989,-2.56904651573303));
#1548=CARTESIAN_POINT('',(12.0000000000007,0.399999999999999,-2.52093314467838));
#1549=CARTESIAN_POINT('',(12.0000000000008,0.399999999999999,-2.46779253585081));
#1550=CARTESIAN_POINT('',(8.99999999999999,0.399999999999999,60.));
#1551=CARTESIAN_POINT('',(11.2,0.399999999999999,-2.46779253585061));
#1552=CARTESIAN_POINT('',(11.2,0.399999999999999,-2.52094409811741));
#1553=CARTESIAN_POINT('',(11.2468291103067,0.399999999999999,-2.56904651573327));
#1554=CARTESIAN_POINT('',(11.2999999999999,0.399999999999999,-2.5690465157333));
#1555=CARTESIAN_POINT('',(8.99999999999999,-1.30104260698261E-15,60.));
#1556=CARTESIAN_POINT('',(-11.3,0.,0.));
#1557=CARTESIAN_POINT('',(4.7,0.,0.));
#1558=CARTESIAN_POINT('',(11.3,0.,0.));
#1559=CARTESIAN_POINT('',(11.3,0.,0.));
#1560=CARTESIAN_POINT('',(11.9,0.,0.));
#1561=CARTESIAN_POINT('',(11.9,0.,0.));
#1562=CARTESIAN_POINT('',(-4.7,0.,0.));
#1563=CARTESIAN_POINT('',(-11.9,0.,0.));
#1564=CARTESIAN_POINT('',(-11.9,0.,0.));
#1565=CARTESIAN_POINT('',(-11.3,0.,0.));
#1566=MECHANICAL_DESIGN_GEOMETRIC_PRESENTATION_REPRESENTATION('',(#855),
#1567);
#1567=(
GEOMETRIC_REPRESENTATION_CONTEXT(3)
GLOBAL_UNCERTAINTY_ASSIGNED_CONTEXT((#1568))
GLOBAL_UNIT_ASSIGNED_CONTEXT((#1571,#1570,#1569))
REPRESENTATION_CONTEXT('ClGray_4560175_AVV','TOP_LEVEL_ASSEMBLY_PART')
);
#1568=UNCERTAINTY_MEASURE_WITH_UNIT(LENGTH_MEASURE(0.005),#1571,
'DISTANCE_ACCURACY_VALUE','Maximum Tolerance applied to model');
#1569=(
NAMED_UNIT(*)
SI_UNIT($,.STERADIAN.)
SOLID_ANGLE_UNIT()
);
#1570=(
NAMED_UNIT(*)
PLANE_ANGLE_UNIT()
SI_UNIT($,.RADIAN.)
);
#1571=(
LENGTH_UNIT()
NAMED_UNIT(*)
SI_UNIT(.MILLI.,.METRE.)
);
#1572=PRODUCT_DEFINITION_SHAPE('','',#1573);
#1573=PRODUCT_DEFINITION('','',#1575,#1574);
#1574=PRODUCT_DEFINITION_CONTEXT('',#1581,'design');
#1575=PRODUCT_DEFINITION_FORMATION_WITH_SPECIFIED_SOURCE('','',#1577,
 .NOT_KNOWN.);
#1576=PRODUCT_RELATED_PRODUCT_CATEGORY('','',(#1577));
#1577=PRODUCT('ClGray_4560175_AVV','ClGray_4560175_AVV',
'ClGray_4560175_AVV',(#1579));
#1578=PRODUCT_CATEGORY('','');
#1579=PRODUCT_CONTEXT('',#1581,'mechanical');
#1580=APPLICATION_PROTOCOL_DEFINITION('international standard',
'automotive_design',2010,#1581);
#1581=APPLICATION_CONTEXT(
'core data for automotive mechanical design processes');
ENDSEC;
END-ISO-10303-21;
