ISO-10303-21;
HEADER;
/* Generated by software containing ST-Developer
 * from STEP Tools, Inc. (www.steptools.com) 
 */
/* OPTION: strings as raw bytes, not using required /X/ escapes */

FILE_DESCRIPTION(
/* description */ ('Unknown'),
/* implementation_level */ '2;1');

FILE_NAME(
/* name */ 'ClGray_4268659_MCM',
/* time_stamp */ '2025-07-21T23:54:49+02:00',
/* author */ ('Unknown'),
/* organization */ ('Unknown'),
/* preprocessor_version */ 'ST-DEVELOPER v19.4',
/* originating_system */ 'Solid Edge',
/* authorisation */ 'Unknown');

FILE_SCHEMA (('AUTOMOTIVE_DESIGN {1 0 10303 214 3 1 1}'));
ENDSEC;

DATA;
#10=PROPERTY_DEFINITION_REPRESENTATION(#14,#12);
#11=PROPERTY_DEFINITION_REPRESENTATION(#15,#13);
#12=REPRESENTATION('',(#16),#1487);
#13=REPRESENTATION('',(#17),#1487);
#14=PROPERTY_DEFINITION('pmi validation property','',#1492);
#15=PROPERTY_DEFINITION('pmi validation property','',#1492);
#16=VALUE_REPRESENTATION_ITEM('number of annotations',COUNT_MEASURE(0.));
#17=VALUE_REPRESENTATION_ITEM('number of views',COUNT_MEASURE(0.));
#18=SHAPE_REPRESENTATION_RELATIONSHIP('','',#847,#19);
#19=ADVANCED_BREP_SHAPE_REPRESENTATION('',(#845),#1487);
#20=CONICAL_SURFACE('',#930,3.6,0.44751997515717);
#21=CONICAL_SURFACE('',#931,3.6,0.44751997515717);
#22=CONICAL_SURFACE('',#932,3.6,0.44751997515717);
#23=CONICAL_SURFACE('',#933,3.6,0.44751997515717);
#24=B_SPLINE_CURVE_WITH_KNOTS('',3,(#1423,#1424,#1425,#1426),
 .UNSPECIFIED.,.F.,.F.,(4,4),(0.00206229657169617,0.00764638030924183),
 .UNSPECIFIED.);
#25=B_SPLINE_CURVE_WITH_KNOTS('',3,(#1428,#1429,#1430,#1431),
 .UNSPECIFIED.,.F.,.F.,(4,4),(7.77366288708613E-7,0.00556718120445271),
 .UNSPECIFIED.);
#26=B_SPLINE_CURVE_WITH_KNOTS('',3,(#1433,#1434,#1435,#1436),
 .UNSPECIFIED.,.F.,.F.,(4,4),(7.77366288708613E-7,0.00556718120445271),
 .UNSPECIFIED.);
#27=B_SPLINE_CURVE_WITH_KNOTS('',3,(#1438,#1439,#1440,#1441),
 .UNSPECIFIED.,.F.,.F.,(4,4),(0.00206229657169617,0.00764638030924183),
 .UNSPECIFIED.);
#28=B_SPLINE_CURVE_WITH_KNOTS('',3,(#1443,#1444,#1445,#1446),
 .UNSPECIFIED.,.F.,.F.,(4,4),(0.00206229657169617,0.00764638030924183),
 .UNSPECIFIED.);
#29=B_SPLINE_CURVE_WITH_KNOTS('',3,(#1448,#1449,#1450,#1451),
 .UNSPECIFIED.,.F.,.F.,(4,4),(7.77366288708613E-7,0.00556718120445271),
 .UNSPECIFIED.);
#30=B_SPLINE_CURVE_WITH_KNOTS('',3,(#1453,#1454,#1455,#1456),
 .UNSPECIFIED.,.F.,.F.,(4,4),(7.77366288708613E-7,0.00556718120445271),
 .UNSPECIFIED.);
#31=B_SPLINE_CURVE_WITH_KNOTS('',3,(#1458,#1459,#1460,#1461),
 .UNSPECIFIED.,.F.,.F.,(4,4),(0.00206229657169617,0.00764638030924183),
 .UNSPECIFIED.);
#32=SPHERICAL_SURFACE('',#919,2.4);
#33=LINE('',#1237,#89);
#34=LINE('',#1241,#90);
#35=LINE('',#1243,#91);
#36=LINE('',#1247,#92);
#37=LINE('',#1249,#93);
#38=LINE('',#1253,#94);
#39=LINE('',#1255,#95);
#40=LINE('',#1259,#96);
#41=LINE('',#1261,#97);
#42=LINE('',#1266,#98);
#43=LINE('',#1274,#99);
#44=LINE('',#1278,#100);
#45=LINE('',#1286,#101);
#46=LINE('',#1290,#102);
#47=LINE('',#1298,#103);
#48=LINE('',#1302,#104);
#49=LINE('',#1310,#105);
#50=LINE('',#1313,#106);
#51=LINE('',#1314,#107);
#52=LINE('',#1316,#108);
#53=LINE('',#1318,#109);
#54=LINE('',#1320,#110);
#55=LINE('',#1325,#111);
#56=LINE('',#1326,#112);
#57=LINE('',#1328,#113);
#58=LINE('',#1331,#114);
#59=LINE('',#1332,#115);
#60=LINE('',#1334,#116);
#61=LINE('',#1336,#117);
#62=LINE('',#1338,#118);
#63=LINE('',#1340,#119);
#64=LINE('',#1344,#120);
#65=LINE('',#1346,#121);
#66=LINE('',#1349,#122);
#67=LINE('',#1350,#123);
#68=LINE('',#1352,#124);
#69=LINE('',#1354,#125);
#70=LINE('',#1356,#126);
#71=LINE('',#1358,#127);
#72=LINE('',#1362,#128);
#73=LINE('',#1364,#129);
#74=LINE('',#1367,#130);
#75=LINE('',#1368,#131);
#76=LINE('',#1370,#132);
#77=LINE('',#1372,#133);
#78=LINE('',#1374,#134);
#79=LINE('',#1379,#135);
#80=LINE('',#1380,#136);
#81=LINE('',#1398,#137);
#82=LINE('',#1399,#138);
#83=LINE('',#1403,#139);
#84=LINE('',#1404,#140);
#85=LINE('',#1408,#141);
#86=LINE('',#1409,#142);
#87=LINE('',#1413,#143);
#88=LINE('',#1414,#144);
#89=VECTOR('',#976,1000.);
#90=VECTOR('',#979,1000.);
#91=VECTOR('',#982,1000.);
#92=VECTOR('',#985,1000.);
#93=VECTOR('',#988,1000.);
#94=VECTOR('',#991,1000.);
#95=VECTOR('',#994,1000.);
#96=VECTOR('',#997,1000.);
#97=VECTOR('',#1000,1000.);
#98=VECTOR('',#1003,1000.);
#99=VECTOR('',#1010,1000.);
#100=VECTOR('',#1013,1000.);
#101=VECTOR('',#1020,1000.);
#102=VECTOR('',#1023,1000.);
#103=VECTOR('',#1030,1000.);
#104=VECTOR('',#1033,1000.);
#105=VECTOR('',#1042,1000.);
#106=VECTOR('',#1043,1000.);
#107=VECTOR('',#1044,1000.);
#108=VECTOR('',#1047,1000.);
#109=VECTOR('',#1048,1000.);
#110=VECTOR('',#1049,1000.);
#111=VECTOR('',#1054,1000.);
#112=VECTOR('',#1055,1000.);
#113=VECTOR('',#1058,1000.);
#114=VECTOR('',#1059,1000.);
#115=VECTOR('',#1060,1000.);
#116=VECTOR('',#1063,1000.);
#117=VECTOR('',#1064,1000.);
#118=VECTOR('',#1065,1000.);
#119=VECTOR('',#1068,1000.);
#120=VECTOR('',#1071,1000.);
#121=VECTOR('',#1074,1000.);
#122=VECTOR('',#1075,1000.);
#123=VECTOR('',#1076,1000.);
#124=VECTOR('',#1079,1000.);
#125=VECTOR('',#1080,1000.);
#126=VECTOR('',#1081,1000.);
#127=VECTOR('',#1084,1000.);
#128=VECTOR('',#1087,1000.);
#129=VECTOR('',#1090,1000.);
#130=VECTOR('',#1091,1000.);
#131=VECTOR('',#1092,1000.);
#132=VECTOR('',#1095,1000.);
#133=VECTOR('',#1096,1000.);
#134=VECTOR('',#1097,1000.);
#135=VECTOR('',#1102,1000.);
#136=VECTOR('',#1103,1000.);
#137=VECTOR('',#1134,1000.);
#138=VECTOR('',#1135,1000.);
#139=VECTOR('',#1138,1000.);
#140=VECTOR('',#1139,1000.);
#141=VECTOR('',#1142,1000.);
#142=VECTOR('',#1143,1000.);
#143=VECTOR('',#1146,1000.);
#144=VECTOR('',#1147,1000.);
#145=PLANE('',#859);
#146=PLANE('',#861);
#147=PLANE('',#863);
#148=PLANE('',#865);
#149=PLANE('',#867);
#150=PLANE('',#884);
#151=PLANE('',#885);
#152=PLANE('',#888);
#153=PLANE('',#889);
#154=PLANE('',#892);
#155=PLANE('',#893);
#156=PLANE('',#896);
#157=PLANE('',#897);
#158=PLANE('',#900);
#159=PLANE('',#922);
#160=PLANE('',#923);
#161=PLANE('',#924);
#162=PLANE('',#925);
#163=PLANE('',#926);
#164=PLANE('',#927);
#165=PLANE('',#928);
#166=PLANE('',#929);
#167=PLANE('',#934);
#168=PLANE('',#939);
#169=ORIENTED_EDGE('',*,*,#405,.T.);
#170=ORIENTED_EDGE('',*,*,#406,.F.);
#171=ORIENTED_EDGE('',*,*,#407,.F.);
#172=ORIENTED_EDGE('',*,*,#408,.F.);
#173=ORIENTED_EDGE('',*,*,#409,.F.);
#174=ORIENTED_EDGE('',*,*,#410,.F.);
#175=ORIENTED_EDGE('',*,*,#411,.F.);
#176=ORIENTED_EDGE('',*,*,#412,.F.);
#177=ORIENTED_EDGE('',*,*,#413,.F.);
#178=ORIENTED_EDGE('',*,*,#407,.T.);
#179=ORIENTED_EDGE('',*,*,#414,.T.);
#180=ORIENTED_EDGE('',*,*,#415,.F.);
#181=ORIENTED_EDGE('',*,*,#416,.T.);
#182=ORIENTED_EDGE('',*,*,#409,.T.);
#183=ORIENTED_EDGE('',*,*,#417,.T.);
#184=ORIENTED_EDGE('',*,*,#418,.F.);
#185=ORIENTED_EDGE('',*,*,#419,.T.);
#186=ORIENTED_EDGE('',*,*,#411,.T.);
#187=ORIENTED_EDGE('',*,*,#420,.T.);
#188=ORIENTED_EDGE('',*,*,#421,.F.);
#189=ORIENTED_EDGE('',*,*,#422,.T.);
#190=ORIENTED_EDGE('',*,*,#413,.T.);
#191=ORIENTED_EDGE('',*,*,#423,.T.);
#192=ORIENTED_EDGE('',*,*,#424,.F.);
#193=ORIENTED_EDGE('',*,*,#425,.T.);
#194=ORIENTED_EDGE('',*,*,#426,.T.);
#195=ORIENTED_EDGE('',*,*,#427,.T.);
#196=ORIENTED_EDGE('',*,*,#428,.T.);
#197=ORIENTED_EDGE('',*,*,#429,.T.);
#198=ORIENTED_EDGE('',*,*,#430,.T.);
#199=ORIENTED_EDGE('',*,*,#431,.T.);
#200=ORIENTED_EDGE('',*,*,#432,.T.);
#201=ORIENTED_EDGE('',*,*,#433,.T.);
#202=ORIENTED_EDGE('',*,*,#434,.T.);
#203=ORIENTED_EDGE('',*,*,#435,.T.);
#204=ORIENTED_EDGE('',*,*,#436,.T.);
#205=ORIENTED_EDGE('',*,*,#437,.T.);
#206=ORIENTED_EDGE('',*,*,#438,.T.);
#207=ORIENTED_EDGE('',*,*,#439,.T.);
#208=ORIENTED_EDGE('',*,*,#440,.T.);
#209=ORIENTED_EDGE('',*,*,#441,.T.);
#210=ORIENTED_EDGE('',*,*,#442,.T.);
#211=ORIENTED_EDGE('',*,*,#443,.T.);
#212=ORIENTED_EDGE('',*,*,#444,.T.);
#213=ORIENTED_EDGE('',*,*,#445,.T.);
#214=ORIENTED_EDGE('',*,*,#446,.T.);
#215=ORIENTED_EDGE('',*,*,#447,.T.);
#216=ORIENTED_EDGE('',*,*,#448,.T.);
#217=ORIENTED_EDGE('',*,*,#449,.T.);
#218=ORIENTED_EDGE('',*,*,#405,.F.);
#219=ORIENTED_EDGE('',*,*,#450,.T.);
#220=ORIENTED_EDGE('',*,*,#451,.T.);
#221=ORIENTED_EDGE('',*,*,#426,.F.);
#222=ORIENTED_EDGE('',*,*,#452,.T.);
#223=ORIENTED_EDGE('',*,*,#428,.F.);
#224=ORIENTED_EDGE('',*,*,#453,.T.);
#225=ORIENTED_EDGE('',*,*,#454,.T.);
#226=ORIENTED_EDGE('',*,*,#455,.T.);
#227=ORIENTED_EDGE('',*,*,#456,.T.);
#228=ORIENTED_EDGE('',*,*,#457,.T.);
#229=ORIENTED_EDGE('',*,*,#430,.F.);
#230=ORIENTED_EDGE('',*,*,#458,.T.);
#231=ORIENTED_EDGE('',*,*,#459,.T.);
#232=ORIENTED_EDGE('',*,*,#460,.T.);
#233=ORIENTED_EDGE('',*,*,#432,.F.);
#234=ORIENTED_EDGE('',*,*,#461,.T.);
#235=ORIENTED_EDGE('',*,*,#434,.F.);
#236=ORIENTED_EDGE('',*,*,#462,.T.);
#237=ORIENTED_EDGE('',*,*,#463,.T.);
#238=ORIENTED_EDGE('',*,*,#464,.T.);
#239=ORIENTED_EDGE('',*,*,#436,.F.);
#240=ORIENTED_EDGE('',*,*,#465,.T.);
#241=ORIENTED_EDGE('',*,*,#466,.T.);
#242=ORIENTED_EDGE('',*,*,#467,.T.);
#243=ORIENTED_EDGE('',*,*,#468,.T.);
#244=ORIENTED_EDGE('',*,*,#469,.T.);
#245=ORIENTED_EDGE('',*,*,#438,.F.);
#246=ORIENTED_EDGE('',*,*,#470,.T.);
#247=ORIENTED_EDGE('',*,*,#440,.F.);
#248=ORIENTED_EDGE('',*,*,#471,.T.);
#249=ORIENTED_EDGE('',*,*,#472,.T.);
#250=ORIENTED_EDGE('',*,*,#473,.T.);
#251=ORIENTED_EDGE('',*,*,#442,.F.);
#252=ORIENTED_EDGE('',*,*,#474,.T.);
#253=ORIENTED_EDGE('',*,*,#475,.T.);
#254=ORIENTED_EDGE('',*,*,#476,.T.);
#255=ORIENTED_EDGE('',*,*,#477,.T.);
#256=ORIENTED_EDGE('',*,*,#478,.T.);
#257=ORIENTED_EDGE('',*,*,#444,.F.);
#258=ORIENTED_EDGE('',*,*,#479,.T.);
#259=ORIENTED_EDGE('',*,*,#446,.F.);
#260=ORIENTED_EDGE('',*,*,#480,.T.);
#261=ORIENTED_EDGE('',*,*,#481,.T.);
#262=ORIENTED_EDGE('',*,*,#482,.T.);
#263=ORIENTED_EDGE('',*,*,#483,.T.);
#264=ORIENTED_EDGE('',*,*,#484,.T.);
#265=ORIENTED_EDGE('',*,*,#448,.F.);
#266=ORIENTED_EDGE('',*,*,#485,.T.);
#267=ORIENTED_EDGE('',*,*,#450,.F.);
#268=ORIENTED_EDGE('',*,*,#486,.T.);
#269=ORIENTED_EDGE('',*,*,#483,.F.);
#270=ORIENTED_EDGE('',*,*,#487,.T.);
#271=ORIENTED_EDGE('',*,*,#481,.F.);
#272=ORIENTED_EDGE('',*,*,#488,.T.);
#273=ORIENTED_EDGE('',*,*,#477,.F.);
#274=ORIENTED_EDGE('',*,*,#489,.T.);
#275=ORIENTED_EDGE('',*,*,#475,.F.);
#276=ORIENTED_EDGE('',*,*,#490,.T.);
#277=ORIENTED_EDGE('',*,*,#472,.F.);
#278=ORIENTED_EDGE('',*,*,#491,.T.);
#279=ORIENTED_EDGE('',*,*,#468,.F.);
#280=ORIENTED_EDGE('',*,*,#492,.T.);
#281=ORIENTED_EDGE('',*,*,#466,.F.);
#282=ORIENTED_EDGE('',*,*,#493,.T.);
#283=ORIENTED_EDGE('',*,*,#463,.F.);
#284=ORIENTED_EDGE('',*,*,#494,.T.);
#285=ORIENTED_EDGE('',*,*,#459,.F.);
#286=ORIENTED_EDGE('',*,*,#495,.T.);
#287=ORIENTED_EDGE('',*,*,#456,.F.);
#288=ORIENTED_EDGE('',*,*,#496,.T.);
#289=ORIENTED_EDGE('',*,*,#454,.F.);
#290=ORIENTED_EDGE('',*,*,#497,.T.);
#291=ORIENTED_EDGE('',*,*,#498,.F.);
#292=ORIENTED_EDGE('',*,*,#499,.T.);
#293=ORIENTED_EDGE('',*,*,#421,.T.);
#294=ORIENTED_EDGE('',*,*,#500,.T.);
#295=ORIENTED_EDGE('',*,*,#501,.F.);
#296=ORIENTED_EDGE('',*,*,#502,.T.);
#297=ORIENTED_EDGE('',*,*,#418,.T.);
#298=ORIENTED_EDGE('',*,*,#503,.T.);
#299=ORIENTED_EDGE('',*,*,#504,.F.);
#300=ORIENTED_EDGE('',*,*,#505,.T.);
#301=ORIENTED_EDGE('',*,*,#415,.T.);
#302=ORIENTED_EDGE('',*,*,#506,.T.);
#303=ORIENTED_EDGE('',*,*,#507,.F.);
#304=ORIENTED_EDGE('',*,*,#508,.T.);
#305=ORIENTED_EDGE('',*,*,#424,.T.);
#306=ORIENTED_EDGE('',*,*,#509,.T.);
#307=ORIENTED_EDGE('',*,*,#510,.T.);
#308=ORIENTED_EDGE('',*,*,#511,.F.);
#309=ORIENTED_EDGE('',*,*,#512,.F.);
#310=ORIENTED_EDGE('',*,*,#510,.F.);
#311=ORIENTED_EDGE('',*,*,#513,.F.);
#312=ORIENTED_EDGE('',*,*,#503,.F.);
#313=ORIENTED_EDGE('',*,*,#417,.F.);
#314=ORIENTED_EDGE('',*,*,#514,.F.);
#315=ORIENTED_EDGE('',*,*,#416,.F.);
#316=ORIENTED_EDGE('',*,*,#505,.F.);
#317=ORIENTED_EDGE('',*,*,#515,.F.);
#318=ORIENTED_EDGE('',*,*,#425,.F.);
#319=ORIENTED_EDGE('',*,*,#508,.F.);
#320=ORIENTED_EDGE('',*,*,#516,.F.);
#321=ORIENTED_EDGE('',*,*,#506,.F.);
#322=ORIENTED_EDGE('',*,*,#414,.F.);
#323=ORIENTED_EDGE('',*,*,#517,.F.);
#324=ORIENTED_EDGE('',*,*,#509,.F.);
#325=ORIENTED_EDGE('',*,*,#423,.F.);
#326=ORIENTED_EDGE('',*,*,#518,.F.);
#327=ORIENTED_EDGE('',*,*,#422,.F.);
#328=ORIENTED_EDGE('',*,*,#499,.F.);
#329=ORIENTED_EDGE('',*,*,#519,.F.);
#330=ORIENTED_EDGE('',*,*,#419,.F.);
#331=ORIENTED_EDGE('',*,*,#502,.F.);
#332=ORIENTED_EDGE('',*,*,#520,.F.);
#333=ORIENTED_EDGE('',*,*,#500,.F.);
#334=ORIENTED_EDGE('',*,*,#420,.F.);
#335=ORIENTED_EDGE('',*,*,#519,.T.);
#336=ORIENTED_EDGE('',*,*,#501,.T.);
#337=ORIENTED_EDGE('',*,*,#520,.T.);
#338=ORIENTED_EDGE('',*,*,#410,.T.);
#339=ORIENTED_EDGE('',*,*,#517,.T.);
#340=ORIENTED_EDGE('',*,*,#412,.T.);
#341=ORIENTED_EDGE('',*,*,#518,.T.);
#342=ORIENTED_EDGE('',*,*,#498,.T.);
#343=ORIENTED_EDGE('',*,*,#515,.T.);
#344=ORIENTED_EDGE('',*,*,#507,.T.);
#345=ORIENTED_EDGE('',*,*,#516,.T.);
#346=ORIENTED_EDGE('',*,*,#406,.T.);
#347=ORIENTED_EDGE('',*,*,#514,.T.);
#348=ORIENTED_EDGE('',*,*,#504,.T.);
#349=ORIENTED_EDGE('',*,*,#513,.T.);
#350=ORIENTED_EDGE('',*,*,#408,.T.);
#351=ORIENTED_EDGE('',*,*,#521,.F.);
#352=ORIENTED_EDGE('',*,*,#512,.T.);
#353=ORIENTED_EDGE('',*,*,#521,.T.);
#354=ORIENTED_EDGE('',*,*,#511,.T.);
#355=ORIENTED_EDGE('',*,*,#522,.F.);
#356=ORIENTED_EDGE('',*,*,#522,.T.);
#357=ORIENTED_EDGE('',*,*,#496,.F.);
#358=ORIENTED_EDGE('',*,*,#458,.F.);
#359=ORIENTED_EDGE('',*,*,#429,.F.);
#360=ORIENTED_EDGE('',*,*,#455,.F.);
#361=ORIENTED_EDGE('',*,*,#487,.F.);
#362=ORIENTED_EDGE('',*,*,#485,.F.);
#363=ORIENTED_EDGE('',*,*,#447,.F.);
#364=ORIENTED_EDGE('',*,*,#482,.F.);
#365=ORIENTED_EDGE('',*,*,#489,.F.);
#366=ORIENTED_EDGE('',*,*,#479,.F.);
#367=ORIENTED_EDGE('',*,*,#443,.F.);
#368=ORIENTED_EDGE('',*,*,#476,.F.);
#369=ORIENTED_EDGE('',*,*,#490,.F.);
#370=ORIENTED_EDGE('',*,*,#474,.F.);
#371=ORIENTED_EDGE('',*,*,#441,.F.);
#372=ORIENTED_EDGE('',*,*,#473,.F.);
#373=ORIENTED_EDGE('',*,*,#492,.F.);
#374=ORIENTED_EDGE('',*,*,#470,.F.);
#375=ORIENTED_EDGE('',*,*,#437,.F.);
#376=ORIENTED_EDGE('',*,*,#467,.F.);
#377=ORIENTED_EDGE('',*,*,#493,.F.);
#378=ORIENTED_EDGE('',*,*,#465,.F.);
#379=ORIENTED_EDGE('',*,*,#435,.F.);
#380=ORIENTED_EDGE('',*,*,#464,.F.);
#381=ORIENTED_EDGE('',*,*,#495,.F.);
#382=ORIENTED_EDGE('',*,*,#461,.F.);
#383=ORIENTED_EDGE('',*,*,#431,.F.);
#384=ORIENTED_EDGE('',*,*,#457,.F.);
#385=ORIENTED_EDGE('',*,*,#486,.F.);
#386=ORIENTED_EDGE('',*,*,#452,.F.);
#387=ORIENTED_EDGE('',*,*,#449,.F.);
#388=ORIENTED_EDGE('',*,*,#484,.F.);
#389=ORIENTED_EDGE('',*,*,#494,.F.);
#390=ORIENTED_EDGE('',*,*,#462,.F.);
#391=ORIENTED_EDGE('',*,*,#433,.F.);
#392=ORIENTED_EDGE('',*,*,#460,.F.);
#393=ORIENTED_EDGE('',*,*,#491,.F.);
#394=ORIENTED_EDGE('',*,*,#471,.F.);
#395=ORIENTED_EDGE('',*,*,#439,.F.);
#396=ORIENTED_EDGE('',*,*,#469,.F.);
#397=ORIENTED_EDGE('',*,*,#488,.F.);
#398=ORIENTED_EDGE('',*,*,#480,.F.);
#399=ORIENTED_EDGE('',*,*,#445,.F.);
#400=ORIENTED_EDGE('',*,*,#478,.F.);
#401=ORIENTED_EDGE('',*,*,#497,.F.);
#402=ORIENTED_EDGE('',*,*,#453,.F.);
#403=ORIENTED_EDGE('',*,*,#427,.F.);
#404=ORIENTED_EDGE('',*,*,#451,.F.);
#405=EDGE_CURVE('',#523,#523,#601,.T.);
#406=EDGE_CURVE('',#524,#525,#602,.T.);
#407=EDGE_CURVE('',#526,#524,#603,.T.);
#408=EDGE_CURVE('',#527,#526,#604,.T.);
#409=EDGE_CURVE('',#528,#527,#605,.T.);
#410=EDGE_CURVE('',#529,#528,#606,.T.);
#411=EDGE_CURVE('',#530,#529,#607,.T.);
#412=EDGE_CURVE('',#531,#530,#608,.T.);
#413=EDGE_CURVE('',#525,#531,#609,.T.);
#414=EDGE_CURVE('',#524,#532,#33,.T.);
#415=EDGE_CURVE('',#533,#532,#610,.T.);
#416=EDGE_CURVE('',#533,#526,#34,.T.);
#417=EDGE_CURVE('',#527,#534,#35,.T.);
#418=EDGE_CURVE('',#535,#534,#611,.T.);
#419=EDGE_CURVE('',#535,#528,#36,.T.);
#420=EDGE_CURVE('',#529,#536,#37,.T.);
#421=EDGE_CURVE('',#537,#536,#612,.T.);
#422=EDGE_CURVE('',#537,#530,#38,.T.);
#423=EDGE_CURVE('',#531,#538,#39,.T.);
#424=EDGE_CURVE('',#539,#538,#613,.T.);
#425=EDGE_CURVE('',#539,#525,#40,.T.);
#426=EDGE_CURVE('',#540,#541,#41,.T.);
#427=EDGE_CURVE('',#541,#542,#614,.F.);
#428=EDGE_CURVE('',#542,#543,#42,.T.);
#429=EDGE_CURVE('',#543,#544,#615,.T.);
#430=EDGE_CURVE('',#544,#545,#616,.T.);
#431=EDGE_CURVE('',#545,#546,#617,.T.);
#432=EDGE_CURVE('',#546,#547,#43,.T.);
#433=EDGE_CURVE('',#547,#548,#618,.F.);
#434=EDGE_CURVE('',#548,#549,#44,.T.);
#435=EDGE_CURVE('',#549,#550,#619,.T.);
#436=EDGE_CURVE('',#550,#551,#620,.T.);
#437=EDGE_CURVE('',#551,#552,#621,.T.);
#438=EDGE_CURVE('',#552,#553,#45,.T.);
#439=EDGE_CURVE('',#553,#554,#622,.F.);
#440=EDGE_CURVE('',#554,#555,#46,.T.);
#441=EDGE_CURVE('',#555,#556,#623,.T.);
#442=EDGE_CURVE('',#556,#557,#624,.T.);
#443=EDGE_CURVE('',#557,#558,#625,.T.);
#444=EDGE_CURVE('',#558,#559,#47,.T.);
#445=EDGE_CURVE('',#559,#560,#626,.F.);
#446=EDGE_CURVE('',#560,#561,#48,.T.);
#447=EDGE_CURVE('',#561,#562,#627,.T.);
#448=EDGE_CURVE('',#562,#563,#628,.T.);
#449=EDGE_CURVE('',#563,#540,#629,.T.);
#450=EDGE_CURVE('',#564,#565,#49,.T.);
#451=EDGE_CURVE('',#565,#541,#50,.T.);
#452=EDGE_CURVE('',#540,#564,#51,.T.);
#453=EDGE_CURVE('',#542,#566,#52,.F.);
#454=EDGE_CURVE('',#566,#567,#53,.T.);
#455=EDGE_CURVE('',#567,#543,#54,.F.);
#456=EDGE_CURVE('',#568,#569,#630,.T.);
#457=EDGE_CURVE('',#569,#545,#55,.T.);
#458=EDGE_CURVE('',#544,#568,#56,.F.);
#459=EDGE_CURVE('',#570,#571,#57,.T.);
#460=EDGE_CURVE('',#571,#547,#58,.T.);
#461=EDGE_CURVE('',#546,#570,#59,.T.);
#462=EDGE_CURVE('',#548,#572,#60,.F.);
#463=EDGE_CURVE('',#572,#573,#61,.T.);
#464=EDGE_CURVE('',#573,#549,#62,.F.);
#465=EDGE_CURVE('',#550,#574,#63,.F.);
#466=EDGE_CURVE('',#574,#575,#631,.T.);
#467=EDGE_CURVE('',#575,#551,#64,.T.);
#468=EDGE_CURVE('',#576,#577,#65,.T.);
#469=EDGE_CURVE('',#577,#553,#66,.T.);
#470=EDGE_CURVE('',#552,#576,#67,.T.);
#471=EDGE_CURVE('',#554,#578,#68,.F.);
#472=EDGE_CURVE('',#578,#579,#69,.T.);
#473=EDGE_CURVE('',#579,#555,#70,.F.);
#474=EDGE_CURVE('',#556,#580,#71,.F.);
#475=EDGE_CURVE('',#580,#581,#632,.T.);
#476=EDGE_CURVE('',#581,#557,#72,.T.);
#477=EDGE_CURVE('',#582,#583,#73,.T.);
#478=EDGE_CURVE('',#583,#559,#74,.T.);
#479=EDGE_CURVE('',#558,#582,#75,.T.);
#480=EDGE_CURVE('',#560,#584,#76,.F.);
#481=EDGE_CURVE('',#584,#585,#77,.T.);
#482=EDGE_CURVE('',#585,#561,#78,.F.);
#483=EDGE_CURVE('',#586,#587,#633,.T.);
#484=EDGE_CURVE('',#587,#563,#79,.T.);
#485=EDGE_CURVE('',#562,#586,#80,.F.);
#486=EDGE_CURVE('',#564,#587,#634,.F.);
#487=EDGE_CURVE('',#586,#585,#635,.F.);
#488=EDGE_CURVE('',#584,#583,#636,.T.);
#489=EDGE_CURVE('',#582,#581,#637,.F.);
#490=EDGE_CURVE('',#580,#579,#638,.F.);
#491=EDGE_CURVE('',#578,#577,#639,.T.);
#492=EDGE_CURVE('',#576,#575,#640,.F.);
#493=EDGE_CURVE('',#574,#573,#641,.F.);
#494=EDGE_CURVE('',#572,#571,#642,.T.);
#495=EDGE_CURVE('',#570,#569,#643,.F.);
#496=EDGE_CURVE('',#568,#567,#644,.F.);
#497=EDGE_CURVE('',#566,#565,#645,.T.);
#498=EDGE_CURVE('',#588,#589,#646,.T.);
#499=EDGE_CURVE('',#588,#537,#81,.T.);
#500=EDGE_CURVE('',#536,#590,#82,.F.);
#501=EDGE_CURVE('',#591,#590,#647,.T.);
#502=EDGE_CURVE('',#591,#535,#83,.T.);
#503=EDGE_CURVE('',#534,#592,#84,.F.);
#504=EDGE_CURVE('',#593,#592,#648,.T.);
#505=EDGE_CURVE('',#593,#533,#85,.T.);
#506=EDGE_CURVE('',#532,#594,#86,.F.);
#507=EDGE_CURVE('',#595,#594,#649,.T.);
#508=EDGE_CURVE('',#595,#539,#87,.T.);
#509=EDGE_CURVE('',#538,#589,#88,.F.);
#510=EDGE_CURVE('',#596,#596,#650,.F.);
#511=EDGE_CURVE('',#597,#597,#651,.F.);
#512=EDGE_CURVE('',#598,#598,#652,.F.);
#513=EDGE_CURVE('',#592,#527,#24,.T.);
#514=EDGE_CURVE('',#526,#593,#25,.T.);
#515=EDGE_CURVE('',#525,#595,#26,.T.);
#516=EDGE_CURVE('',#594,#524,#27,.T.);
#517=EDGE_CURVE('',#589,#531,#28,.T.);
#518=EDGE_CURVE('',#530,#588,#29,.T.);
#519=EDGE_CURVE('',#528,#591,#30,.T.);
#520=EDGE_CURVE('',#590,#529,#31,.T.);
#521=EDGE_CURVE('',#599,#599,#653,.T.);
#522=EDGE_CURVE('',#600,#600,#654,.T.);
#523=VERTEX_POINT('',#1219);
#524=VERTEX_POINT('',#1221);
#525=VERTEX_POINT('',#1222);
#526=VERTEX_POINT('',#1224);
#527=VERTEX_POINT('',#1226);
#528=VERTEX_POINT('',#1228);
#529=VERTEX_POINT('',#1230);
#530=VERTEX_POINT('',#1232);
#531=VERTEX_POINT('',#1234);
#532=VERTEX_POINT('',#1238);
#533=VERTEX_POINT('',#1240);
#534=VERTEX_POINT('',#1244);
#535=VERTEX_POINT('',#1246);
#536=VERTEX_POINT('',#1250);
#537=VERTEX_POINT('',#1252);
#538=VERTEX_POINT('',#1256);
#539=VERTEX_POINT('',#1258);
#540=VERTEX_POINT('',#1262);
#541=VERTEX_POINT('',#1263);
#542=VERTEX_POINT('',#1265);
#543=VERTEX_POINT('',#1267);
#544=VERTEX_POINT('',#1269);
#545=VERTEX_POINT('',#1271);
#546=VERTEX_POINT('',#1273);
#547=VERTEX_POINT('',#1275);
#548=VERTEX_POINT('',#1277);
#549=VERTEX_POINT('',#1279);
#550=VERTEX_POINT('',#1281);
#551=VERTEX_POINT('',#1283);
#552=VERTEX_POINT('',#1285);
#553=VERTEX_POINT('',#1287);
#554=VERTEX_POINT('',#1289);
#555=VERTEX_POINT('',#1291);
#556=VERTEX_POINT('',#1293);
#557=VERTEX_POINT('',#1295);
#558=VERTEX_POINT('',#1297);
#559=VERTEX_POINT('',#1299);
#560=VERTEX_POINT('',#1301);
#561=VERTEX_POINT('',#1303);
#562=VERTEX_POINT('',#1305);
#563=VERTEX_POINT('',#1307);
#564=VERTEX_POINT('',#1311);
#565=VERTEX_POINT('',#1312);
#566=VERTEX_POINT('',#1317);
#567=VERTEX_POINT('',#1319);
#568=VERTEX_POINT('',#1323);
#569=VERTEX_POINT('',#1324);
#570=VERTEX_POINT('',#1329);
#571=VERTEX_POINT('',#1330);
#572=VERTEX_POINT('',#1335);
#573=VERTEX_POINT('',#1337);
#574=VERTEX_POINT('',#1341);
#575=VERTEX_POINT('',#1343);
#576=VERTEX_POINT('',#1347);
#577=VERTEX_POINT('',#1348);
#578=VERTEX_POINT('',#1353);
#579=VERTEX_POINT('',#1355);
#580=VERTEX_POINT('',#1359);
#581=VERTEX_POINT('',#1361);
#582=VERTEX_POINT('',#1365);
#583=VERTEX_POINT('',#1366);
#584=VERTEX_POINT('',#1371);
#585=VERTEX_POINT('',#1373);
#586=VERTEX_POINT('',#1377);
#587=VERTEX_POINT('',#1378);
#588=VERTEX_POINT('',#1396);
#589=VERTEX_POINT('',#1397);
#590=VERTEX_POINT('',#1400);
#591=VERTEX_POINT('',#1402);
#592=VERTEX_POINT('',#1405);
#593=VERTEX_POINT('',#1407);
#594=VERTEX_POINT('',#1410);
#595=VERTEX_POINT('',#1412);
#596=VERTEX_POINT('',#1416);
#597=VERTEX_POINT('',#1419);
#598=VERTEX_POINT('',#1421);
#599=VERTEX_POINT('',#1468);
#600=VERTEX_POINT('',#1472);
#601=CIRCLE('',#850,3.6);
#602=CIRCLE('',#851,3.6);
#603=CIRCLE('',#852,3.6);
#604=CIRCLE('',#853,3.6);
#605=CIRCLE('',#854,3.6);
#606=CIRCLE('',#855,3.6);
#607=CIRCLE('',#856,3.6);
#608=CIRCLE('',#857,3.6);
#609=CIRCLE('',#858,3.6);
#610=CIRCLE('',#860,1.2);
#611=CIRCLE('',#862,1.2);
#612=CIRCLE('',#864,1.2);
#613=CIRCLE('',#866,1.2);
#614=CIRCLE('',#868,0.5);
#615=CIRCLE('',#869,0.1);
#616=CIRCLE('',#870,2.4);
#617=CIRCLE('',#871,0.1);
#618=CIRCLE('',#872,0.5);
#619=CIRCLE('',#873,0.1);
#620=CIRCLE('',#874,2.4);
#621=CIRCLE('',#875,0.1);
#622=CIRCLE('',#876,0.5);
#623=CIRCLE('',#877,0.1);
#624=CIRCLE('',#878,2.4);
#625=CIRCLE('',#879,0.1);
#626=CIRCLE('',#880,0.5);
#627=CIRCLE('',#881,0.1);
#628=CIRCLE('',#882,2.4);
#629=CIRCLE('',#883,0.1);
#630=CIRCLE('',#887,2.4);
#631=CIRCLE('',#891,2.4);
#632=CIRCLE('',#895,2.4);
#633=CIRCLE('',#899,2.4);
#634=CIRCLE('',#901,0.1);
#635=CIRCLE('',#902,0.1);
#636=CIRCLE('',#903,0.5);
#637=CIRCLE('',#904,0.1);
#638=CIRCLE('',#905,0.1);
#639=CIRCLE('',#906,0.5);
#640=CIRCLE('',#907,0.1);
#641=CIRCLE('',#908,0.1);
#642=CIRCLE('',#909,0.5);
#643=CIRCLE('',#910,0.1);
#644=CIRCLE('',#911,0.1);
#645=CIRCLE('',#912,0.5);
#646=CIRCLE('',#914,1.2);
#647=CIRCLE('',#915,1.2);
#648=CIRCLE('',#916,1.2);
#649=CIRCLE('',#917,1.2);
#650=CIRCLE('',#918,1.2);
#651=CIRCLE('',#920,0.8);
#652=CIRCLE('',#921,0.8);
#653=CIRCLE('',#935,0.8);
#654=CIRCLE('',#938,0.8);
#655=EDGE_LOOP('',(#169));
#656=EDGE_LOOP('',(#170,#171,#172,#173,#174,#175,#176,#177));
#657=EDGE_LOOP('',(#178,#179,#180,#181));
#658=EDGE_LOOP('',(#182,#183,#184,#185));
#659=EDGE_LOOP('',(#186,#187,#188,#189));
#660=EDGE_LOOP('',(#190,#191,#192,#193));
#661=EDGE_LOOP('',(#194,#195,#196,#197,#198,#199,#200,#201,#202,#203,#204,
#205,#206,#207,#208,#209,#210,#211,#212,#213,#214,#215,#216,#217));
#662=EDGE_LOOP('',(#218));
#663=EDGE_LOOP('',(#219,#220,#221,#222));
#664=EDGE_LOOP('',(#223,#224,#225,#226));
#665=EDGE_LOOP('',(#227,#228,#229,#230));
#666=EDGE_LOOP('',(#231,#232,#233,#234));
#667=EDGE_LOOP('',(#235,#236,#237,#238));
#668=EDGE_LOOP('',(#239,#240,#241,#242));
#669=EDGE_LOOP('',(#243,#244,#245,#246));
#670=EDGE_LOOP('',(#247,#248,#249,#250));
#671=EDGE_LOOP('',(#251,#252,#253,#254));
#672=EDGE_LOOP('',(#255,#256,#257,#258));
#673=EDGE_LOOP('',(#259,#260,#261,#262));
#674=EDGE_LOOP('',(#263,#264,#265,#266));
#675=EDGE_LOOP('',(#267,#268,#269,#270,#271,#272,#273,#274,#275,#276,#277,
#278,#279,#280,#281,#282,#283,#284,#285,#286,#287,#288,#289,#290));
#676=EDGE_LOOP('',(#291,#292,#293,#294,#295,#296,#297,#298,#299,#300,#301,
#302,#303,#304,#305,#306));
#677=EDGE_LOOP('',(#307));
#678=EDGE_LOOP('',(#308));
#679=EDGE_LOOP('',(#309));
#680=EDGE_LOOP('',(#310));
#681=EDGE_LOOP('',(#311,#312,#313));
#682=EDGE_LOOP('',(#314,#315,#316));
#683=EDGE_LOOP('',(#317,#318,#319));
#684=EDGE_LOOP('',(#320,#321,#322));
#685=EDGE_LOOP('',(#323,#324,#325));
#686=EDGE_LOOP('',(#326,#327,#328));
#687=EDGE_LOOP('',(#329,#330,#331));
#688=EDGE_LOOP('',(#332,#333,#334));
#689=EDGE_LOOP('',(#335,#336,#337,#338));
#690=EDGE_LOOP('',(#339,#340,#341,#342));
#691=EDGE_LOOP('',(#343,#344,#345,#346));
#692=EDGE_LOOP('',(#347,#348,#349,#350));
#693=EDGE_LOOP('',(#351));
#694=EDGE_LOOP('',(#352));
#695=EDGE_LOOP('',(#353));
#696=EDGE_LOOP('',(#354));
#697=EDGE_LOOP('',(#355));
#698=EDGE_LOOP('',(#356));
#699=EDGE_LOOP('',(#357,#358,#359,#360));
#700=EDGE_LOOP('',(#361,#362,#363,#364));
#701=EDGE_LOOP('',(#365,#366,#367,#368));
#702=EDGE_LOOP('',(#369,#370,#371,#372));
#703=EDGE_LOOP('',(#373,#374,#375,#376));
#704=EDGE_LOOP('',(#377,#378,#379,#380));
#705=EDGE_LOOP('',(#381,#382,#383,#384));
#706=EDGE_LOOP('',(#385,#386,#387,#388));
#707=EDGE_LOOP('',(#389,#390,#391,#392));
#708=EDGE_LOOP('',(#393,#394,#395,#396));
#709=EDGE_LOOP('',(#397,#398,#399,#400));
#710=EDGE_LOOP('',(#401,#402,#403,#404));
#711=FACE_BOUND('',#655,.T.);
#712=FACE_BOUND('',#656,.T.);
#713=FACE_BOUND('',#657,.T.);
#714=FACE_BOUND('',#658,.T.);
#715=FACE_BOUND('',#659,.T.);
#716=FACE_BOUND('',#660,.T.);
#717=FACE_BOUND('',#661,.T.);
#718=FACE_BOUND('',#662,.T.);
#719=FACE_BOUND('',#663,.T.);
#720=FACE_BOUND('',#664,.T.);
#721=FACE_BOUND('',#665,.T.);
#722=FACE_BOUND('',#666,.T.);
#723=FACE_BOUND('',#667,.T.);
#724=FACE_BOUND('',#668,.T.);
#725=FACE_BOUND('',#669,.T.);
#726=FACE_BOUND('',#670,.T.);
#727=FACE_BOUND('',#671,.T.);
#728=FACE_BOUND('',#672,.T.);
#729=FACE_BOUND('',#673,.T.);
#730=FACE_BOUND('',#674,.T.);
#731=FACE_BOUND('',#675,.T.);
#732=FACE_BOUND('',#676,.T.);
#733=FACE_BOUND('',#677,.T.);
#734=FACE_BOUND('',#678,.T.);
#735=FACE_BOUND('',#679,.T.);
#736=FACE_BOUND('',#680,.T.);
#737=FACE_BOUND('',#681,.T.);
#738=FACE_BOUND('',#682,.T.);
#739=FACE_BOUND('',#683,.T.);
#740=FACE_BOUND('',#684,.T.);
#741=FACE_BOUND('',#685,.T.);
#742=FACE_BOUND('',#686,.T.);
#743=FACE_BOUND('',#687,.T.);
#744=FACE_BOUND('',#688,.T.);
#745=FACE_BOUND('',#689,.T.);
#746=FACE_BOUND('',#690,.T.);
#747=FACE_BOUND('',#691,.T.);
#748=FACE_BOUND('',#692,.T.);
#749=FACE_BOUND('',#693,.T.);
#750=FACE_BOUND('',#694,.T.);
#751=FACE_BOUND('',#695,.T.);
#752=FACE_BOUND('',#696,.T.);
#753=FACE_BOUND('',#697,.T.);
#754=FACE_BOUND('',#698,.T.);
#755=FACE_BOUND('',#699,.T.);
#756=FACE_BOUND('',#700,.T.);
#757=FACE_BOUND('',#701,.T.);
#758=FACE_BOUND('',#702,.T.);
#759=FACE_BOUND('',#703,.T.);
#760=FACE_BOUND('',#704,.T.);
#761=FACE_BOUND('',#705,.T.);
#762=FACE_BOUND('',#706,.T.);
#763=FACE_BOUND('',#707,.T.);
#764=FACE_BOUND('',#708,.T.);
#765=FACE_BOUND('',#709,.T.);
#766=FACE_BOUND('',#710,.T.);
#767=CYLINDRICAL_SURFACE('',#849,3.6);
#768=CYLINDRICAL_SURFACE('',#886,2.4);
#769=CYLINDRICAL_SURFACE('',#890,2.4);
#770=CYLINDRICAL_SURFACE('',#894,2.4);
#771=CYLINDRICAL_SURFACE('',#898,2.4);
#772=CYLINDRICAL_SURFACE('',#913,1.2);
#773=CYLINDRICAL_SURFACE('',#936,0.8);
#774=CYLINDRICAL_SURFACE('',#937,0.8);
#775=CYLINDRICAL_SURFACE('',#940,0.1);
#776=CYLINDRICAL_SURFACE('',#941,0.1);
#777=CYLINDRICAL_SURFACE('',#942,0.1);
#778=CYLINDRICAL_SURFACE('',#943,0.1);
#779=CYLINDRICAL_SURFACE('',#944,0.1);
#780=CYLINDRICAL_SURFACE('',#945,0.1);
#781=CYLINDRICAL_SURFACE('',#946,0.1);
#782=CYLINDRICAL_SURFACE('',#947,0.1);
#783=CYLINDRICAL_SURFACE('',#948,0.5);
#784=CYLINDRICAL_SURFACE('',#949,0.5);
#785=CYLINDRICAL_SURFACE('',#950,0.5);
#786=CYLINDRICAL_SURFACE('',#951,0.5);
#787=ADVANCED_FACE('',(#711,#712),#767,.T.);
#788=ADVANCED_FACE('',(#713),#145,.T.);
#789=ADVANCED_FACE('',(#714),#146,.T.);
#790=ADVANCED_FACE('',(#715),#147,.T.);
#791=ADVANCED_FACE('',(#716),#148,.T.);
#792=ADVANCED_FACE('',(#717,#718),#149,.F.);
#793=ADVANCED_FACE('',(#719),#150,.T.);
#794=ADVANCED_FACE('',(#720),#151,.T.);
#795=ADVANCED_FACE('',(#721),#768,.F.);
#796=ADVANCED_FACE('',(#722),#152,.T.);
#797=ADVANCED_FACE('',(#723),#153,.T.);
#798=ADVANCED_FACE('',(#724),#769,.F.);
#799=ADVANCED_FACE('',(#725),#154,.T.);
#800=ADVANCED_FACE('',(#726),#155,.T.);
#801=ADVANCED_FACE('',(#727),#770,.F.);
#802=ADVANCED_FACE('',(#728),#156,.T.);
#803=ADVANCED_FACE('',(#729),#157,.T.);
#804=ADVANCED_FACE('',(#730),#771,.F.);
#805=ADVANCED_FACE('',(#731),#158,.F.);
#806=ADVANCED_FACE('',(#732,#733),#772,.T.);
#807=ADVANCED_FACE('',(#734,#735,#736),#32,.T.);
#808=ADVANCED_FACE('',(#737),#159,.T.);
#809=ADVANCED_FACE('',(#738),#160,.T.);
#810=ADVANCED_FACE('',(#739),#161,.T.);
#811=ADVANCED_FACE('',(#740),#162,.T.);
#812=ADVANCED_FACE('',(#741),#163,.T.);
#813=ADVANCED_FACE('',(#742),#164,.T.);
#814=ADVANCED_FACE('',(#743),#165,.T.);
#815=ADVANCED_FACE('',(#744),#166,.T.);
#816=ADVANCED_FACE('',(#745),#20,.T.);
#817=ADVANCED_FACE('',(#746),#21,.T.);
#818=ADVANCED_FACE('',(#747),#22,.T.);
#819=ADVANCED_FACE('',(#748),#23,.T.);
#820=ADVANCED_FACE('',(#749),#167,.F.);
#821=ADVANCED_FACE('',(#750,#751),#773,.T.);
#822=ADVANCED_FACE('',(#752,#753),#774,.T.);
#823=ADVANCED_FACE('',(#754),#168,.T.);
#824=ADVANCED_FACE('',(#755),#775,.F.);
#825=ADVANCED_FACE('',(#756),#776,.F.);
#826=ADVANCED_FACE('',(#757),#777,.F.);
#827=ADVANCED_FACE('',(#758),#778,.F.);
#828=ADVANCED_FACE('',(#759),#779,.F.);
#829=ADVANCED_FACE('',(#760),#780,.F.);
#830=ADVANCED_FACE('',(#761),#781,.F.);
#831=ADVANCED_FACE('',(#762),#782,.F.);
#832=ADVANCED_FACE('',(#763),#783,.T.);
#833=ADVANCED_FACE('',(#764),#784,.T.);
#834=ADVANCED_FACE('',(#765),#785,.T.);
#835=ADVANCED_FACE('',(#766),#786,.T.);
#836=CLOSED_SHELL('',(#787,#788,#789,#790,#791,#792,#793,#794,#795,#796,
#797,#798,#799,#800,#801,#802,#803,#804,#805,#806,#807,#808,#809,#810,#811,
#812,#813,#814,#815,#816,#817,#818,#819,#820,#821,#822,#823,#824,#825,#826,
#827,#828,#829,#830,#831,#832,#833,#834,#835));
#837=STYLED_ITEM('',(#838),#845);
#838=PRESENTATION_STYLE_ASSIGNMENT((#839));
#839=SURFACE_STYLE_USAGE(.BOTH.,#840);
#840=SURFACE_SIDE_STYLE('',(#841));
#841=SURFACE_STYLE_FILL_AREA(#842);
#842=FILL_AREA_STYLE('',(#843));
#843=FILL_AREA_STYLE_COLOUR('',#844);
#844=COLOUR_RGB('',0.506983280181885,0.531564235687256,0.550000011920929);
#845=MANIFOLD_SOLID_BREP('',#836);
#846=SHAPE_DEFINITION_REPRESENTATION(#1492,#847);
#847=SHAPE_REPRESENTATION('ClGray_4268659_MCM',(#848),#1487);
#848=AXIS2_PLACEMENT_3D('',#1216,#952,#953);
#849=AXIS2_PLACEMENT_3D('',#1217,#954,#955);
#850=AXIS2_PLACEMENT_3D('',#1218,#956,#957);
#851=AXIS2_PLACEMENT_3D('',#1220,#958,#959);
#852=AXIS2_PLACEMENT_3D('',#1223,#960,#961);
#853=AXIS2_PLACEMENT_3D('',#1225,#962,#963);
#854=AXIS2_PLACEMENT_3D('',#1227,#964,#965);
#855=AXIS2_PLACEMENT_3D('',#1229,#966,#967);
#856=AXIS2_PLACEMENT_3D('',#1231,#968,#969);
#857=AXIS2_PLACEMENT_3D('',#1233,#970,#971);
#858=AXIS2_PLACEMENT_3D('',#1235,#972,#973);
#859=AXIS2_PLACEMENT_3D('',#1236,#974,#975);
#860=AXIS2_PLACEMENT_3D('',#1239,#977,#978);
#861=AXIS2_PLACEMENT_3D('',#1242,#980,#981);
#862=AXIS2_PLACEMENT_3D('',#1245,#983,#984);
#863=AXIS2_PLACEMENT_3D('',#1248,#986,#987);
#864=AXIS2_PLACEMENT_3D('',#1251,#989,#990);
#865=AXIS2_PLACEMENT_3D('',#1254,#992,#993);
#866=AXIS2_PLACEMENT_3D('',#1257,#995,#996);
#867=AXIS2_PLACEMENT_3D('',#1260,#998,#999);
#868=AXIS2_PLACEMENT_3D('',#1264,#1001,#1002);
#869=AXIS2_PLACEMENT_3D('',#1268,#1004,#1005);
#870=AXIS2_PLACEMENT_3D('',#1270,#1006,#1007);
#871=AXIS2_PLACEMENT_3D('',#1272,#1008,#1009);
#872=AXIS2_PLACEMENT_3D('',#1276,#1011,#1012);
#873=AXIS2_PLACEMENT_3D('',#1280,#1014,#1015);
#874=AXIS2_PLACEMENT_3D('',#1282,#1016,#1017);
#875=AXIS2_PLACEMENT_3D('',#1284,#1018,#1019);
#876=AXIS2_PLACEMENT_3D('',#1288,#1021,#1022);
#877=AXIS2_PLACEMENT_3D('',#1292,#1024,#1025);
#878=AXIS2_PLACEMENT_3D('',#1294,#1026,#1027);
#879=AXIS2_PLACEMENT_3D('',#1296,#1028,#1029);
#880=AXIS2_PLACEMENT_3D('',#1300,#1031,#1032);
#881=AXIS2_PLACEMENT_3D('',#1304,#1034,#1035);
#882=AXIS2_PLACEMENT_3D('',#1306,#1036,#1037);
#883=AXIS2_PLACEMENT_3D('',#1308,#1038,#1039);
#884=AXIS2_PLACEMENT_3D('',#1309,#1040,#1041);
#885=AXIS2_PLACEMENT_3D('',#1315,#1045,#1046);
#886=AXIS2_PLACEMENT_3D('',#1321,#1050,#1051);
#887=AXIS2_PLACEMENT_3D('',#1322,#1052,#1053);
#888=AXIS2_PLACEMENT_3D('',#1327,#1056,#1057);
#889=AXIS2_PLACEMENT_3D('',#1333,#1061,#1062);
#890=AXIS2_PLACEMENT_3D('',#1339,#1066,#1067);
#891=AXIS2_PLACEMENT_3D('',#1342,#1069,#1070);
#892=AXIS2_PLACEMENT_3D('',#1345,#1072,#1073);
#893=AXIS2_PLACEMENT_3D('',#1351,#1077,#1078);
#894=AXIS2_PLACEMENT_3D('',#1357,#1082,#1083);
#895=AXIS2_PLACEMENT_3D('',#1360,#1085,#1086);
#896=AXIS2_PLACEMENT_3D('',#1363,#1088,#1089);
#897=AXIS2_PLACEMENT_3D('',#1369,#1093,#1094);
#898=AXIS2_PLACEMENT_3D('',#1375,#1098,#1099);
#899=AXIS2_PLACEMENT_3D('',#1376,#1100,#1101);
#900=AXIS2_PLACEMENT_3D('',#1381,#1104,#1105);
#901=AXIS2_PLACEMENT_3D('',#1382,#1106,#1107);
#902=AXIS2_PLACEMENT_3D('',#1383,#1108,#1109);
#903=AXIS2_PLACEMENT_3D('',#1384,#1110,#1111);
#904=AXIS2_PLACEMENT_3D('',#1385,#1112,#1113);
#905=AXIS2_PLACEMENT_3D('',#1386,#1114,#1115);
#906=AXIS2_PLACEMENT_3D('',#1387,#1116,#1117);
#907=AXIS2_PLACEMENT_3D('',#1388,#1118,#1119);
#908=AXIS2_PLACEMENT_3D('',#1389,#1120,#1121);
#909=AXIS2_PLACEMENT_3D('',#1390,#1122,#1123);
#910=AXIS2_PLACEMENT_3D('',#1391,#1124,#1125);
#911=AXIS2_PLACEMENT_3D('',#1392,#1126,#1127);
#912=AXIS2_PLACEMENT_3D('',#1393,#1128,#1129);
#913=AXIS2_PLACEMENT_3D('',#1394,#1130,#1131);
#914=AXIS2_PLACEMENT_3D('',#1395,#1132,#1133);
#915=AXIS2_PLACEMENT_3D('',#1401,#1136,#1137);
#916=AXIS2_PLACEMENT_3D('',#1406,#1140,#1141);
#917=AXIS2_PLACEMENT_3D('',#1411,#1144,#1145);
#918=AXIS2_PLACEMENT_3D('',#1415,#1148,#1149);
#919=AXIS2_PLACEMENT_3D('',#1417,#1150,#1151);
#920=AXIS2_PLACEMENT_3D('',#1418,#1152,#1153);
#921=AXIS2_PLACEMENT_3D('',#1420,#1154,#1155);
#922=AXIS2_PLACEMENT_3D('',#1422,#1156,#1157);
#923=AXIS2_PLACEMENT_3D('',#1427,#1158,#1159);
#924=AXIS2_PLACEMENT_3D('',#1432,#1160,#1161);
#925=AXIS2_PLACEMENT_3D('',#1437,#1162,#1163);
#926=AXIS2_PLACEMENT_3D('',#1442,#1164,#1165);
#927=AXIS2_PLACEMENT_3D('',#1447,#1166,#1167);
#928=AXIS2_PLACEMENT_3D('',#1452,#1168,#1169);
#929=AXIS2_PLACEMENT_3D('',#1457,#1170,#1171);
#930=AXIS2_PLACEMENT_3D('',#1462,#1172,#1173);
#931=AXIS2_PLACEMENT_3D('',#1463,#1174,#1175);
#932=AXIS2_PLACEMENT_3D('',#1464,#1176,#1177);
#933=AXIS2_PLACEMENT_3D('',#1465,#1178,#1179);
#934=AXIS2_PLACEMENT_3D('',#1466,#1180,#1181);
#935=AXIS2_PLACEMENT_3D('',#1467,#1182,#1183);
#936=AXIS2_PLACEMENT_3D('',#1469,#1184,#1185);
#937=AXIS2_PLACEMENT_3D('',#1470,#1186,#1187);
#938=AXIS2_PLACEMENT_3D('',#1471,#1188,#1189);
#939=AXIS2_PLACEMENT_3D('',#1473,#1190,#1191);
#940=AXIS2_PLACEMENT_3D('',#1474,#1192,#1193);
#941=AXIS2_PLACEMENT_3D('',#1475,#1194,#1195);
#942=AXIS2_PLACEMENT_3D('',#1476,#1196,#1197);
#943=AXIS2_PLACEMENT_3D('',#1477,#1198,#1199);
#944=AXIS2_PLACEMENT_3D('',#1478,#1200,#1201);
#945=AXIS2_PLACEMENT_3D('',#1479,#1202,#1203);
#946=AXIS2_PLACEMENT_3D('',#1480,#1204,#1205);
#947=AXIS2_PLACEMENT_3D('',#1481,#1206,#1207);
#948=AXIS2_PLACEMENT_3D('',#1482,#1208,#1209);
#949=AXIS2_PLACEMENT_3D('',#1483,#1210,#1211);
#950=AXIS2_PLACEMENT_3D('',#1484,#1212,#1213);
#951=AXIS2_PLACEMENT_3D('',#1485,#1214,#1215);
#952=DIRECTION('',(0.,0.,1.));
#953=DIRECTION('',(1.,0.,0.));
#954=DIRECTION('',(0.,-1.,0.));
#955=DIRECTION('',(0.,0.,-1.));
#956=DIRECTION('',(0.,1.,0.));
#957=DIRECTION('',(1.,0.,0.));
#958=DIRECTION('',(0.,1.,0.));
#959=DIRECTION('',(0.,0.,1.));
#960=DIRECTION('',(0.,1.,0.));
#961=DIRECTION('',(1.,0.,0.));
#962=DIRECTION('',(0.,1.,0.));
#963=DIRECTION('',(0.,0.,1.));
#964=DIRECTION('',(0.,1.,0.));
#965=DIRECTION('',(1.,0.,0.));
#966=DIRECTION('',(0.,1.,0.));
#967=DIRECTION('',(0.,0.,1.));
#968=DIRECTION('',(0.,1.,0.));
#969=DIRECTION('',(1.,0.,0.));
#970=DIRECTION('',(0.,1.,0.));
#971=DIRECTION('',(0.,0.,1.));
#972=DIRECTION('',(0.,1.,0.));
#973=DIRECTION('',(1.,0.,0.));
#974=DIRECTION('',(0.,1.,0.));
#975=DIRECTION('',(0.,0.,1.));
#976=DIRECTION('',(1.,0.,8.15333554720978E-16));
#977=DIRECTION('',(0.,1.,0.));
#978=DIRECTION('',(-1.,0.,0.));
#979=DIRECTION('',(3.30523990437354E-17,0.,-1.));
#980=DIRECTION('',(0.,1.,0.));
#981=DIRECTION('',(0.,0.,1.));
#982=DIRECTION('',(0.,0.,1.));
#983=DIRECTION('',(0.,1.,0.));
#984=DIRECTION('',(-1.,0.,0.));
#985=DIRECTION('',(1.,0.,7.97749116843057E-16));
#986=DIRECTION('',(0.,1.,0.));
#987=DIRECTION('',(0.,0.,1.));
#988=DIRECTION('',(-1.,0.,8.15333554720978E-16));
#989=DIRECTION('',(0.,1.,0.));
#990=DIRECTION('',(-1.,0.,0.));
#991=DIRECTION('',(0.,0.,1.));
#992=DIRECTION('',(0.,1.,0.));
#993=DIRECTION('',(0.,0.,1.));
#994=DIRECTION('',(0.,0.,-1.));
#995=DIRECTION('',(0.,1.,0.));
#996=DIRECTION('',(-1.,0.,0.));
#997=DIRECTION('',(-1.,0.,7.97975694322629E-16));
#998=DIRECTION('',(0.,1.,0.));
#999=DIRECTION('',(0.,0.,1.));
#1000=DIRECTION('',(1.,0.,0.));
#1001=DIRECTION('',(0.,1.,0.));
#1002=DIRECTION('',(0.,0.,1.));
#1003=DIRECTION('',(0.,0.,1.));
#1004=DIRECTION('',(0.,1.,0.));
#1005=DIRECTION('',(0.,0.,1.));
#1006=DIRECTION('',(0.,1.,0.));
#1007=DIRECTION('',(1.,0.,0.));
#1008=DIRECTION('',(0.,1.,0.));
#1009=DIRECTION('',(0.,0.,1.));
#1010=DIRECTION('',(-8.1835253831517E-17,0.,-1.));
#1011=DIRECTION('',(0.,1.,0.));
#1012=DIRECTION('',(0.,0.,1.));
#1013=DIRECTION('',(1.,0.,0.));
#1014=DIRECTION('',(0.,1.,0.));
#1015=DIRECTION('',(0.,0.,1.));
#1016=DIRECTION('',(0.,1.,0.));
#1017=DIRECTION('',(-1.,0.,0.));
#1018=DIRECTION('',(0.,1.,0.));
#1019=DIRECTION('',(0.,0.,1.));
#1020=DIRECTION('',(-1.,0.,8.1835253831517E-17));
#1021=DIRECTION('',(0.,1.,0.));
#1022=DIRECTION('',(0.,0.,1.));
#1023=DIRECTION('',(0.,0.,-1.));
#1024=DIRECTION('',(0.,1.,0.));
#1025=DIRECTION('',(0.,0.,1.));
#1026=DIRECTION('',(0.,1.,0.));
#1027=DIRECTION('',(1.,0.,0.));
#1028=DIRECTION('',(0.,1.,0.));
#1029=DIRECTION('',(0.,0.,1.));
#1030=DIRECTION('',(0.,0.,1.));
#1031=DIRECTION('',(0.,1.,0.));
#1032=DIRECTION('',(0.,0.,1.));
#1033=DIRECTION('',(-1.,0.,0.));
#1034=DIRECTION('',(0.,1.,0.));
#1035=DIRECTION('',(0.,0.,1.));
#1036=DIRECTION('',(0.,1.,0.));
#1037=DIRECTION('',(1.,0.,0.));
#1038=DIRECTION('',(0.,1.,0.));
#1039=DIRECTION('',(0.,0.,1.));
#1040=DIRECTION('',(0.,0.,-1.));
#1041=DIRECTION('',(-1.,0.,0.));
#1042=DIRECTION('',(1.,0.,0.));
#1043=DIRECTION('',(0.,-1.,0.));
#1044=DIRECTION('',(0.,1.,0.));
#1045=DIRECTION('',(1.,0.,0.));
#1046=DIRECTION('',(0.,0.,-1.));
#1047=DIRECTION('',(0.,-1.,0.));
#1048=DIRECTION('',(0.,0.,1.));
#1049=DIRECTION('',(0.,1.,0.));
#1050=DIRECTION('',(0.,-1.,0.));
#1051=DIRECTION('',(0.,0.,-1.));
#1052=DIRECTION('',(0.,1.,0.));
#1053=DIRECTION('',(1.,0.,0.));
#1054=DIRECTION('',(0.,-1.,0.));
#1055=DIRECTION('',(0.,-1.,0.));
#1056=DIRECTION('',(-1.,0.,8.1835253831517E-17));
#1057=DIRECTION('',(8.1835253831517E-17,0.,1.));
#1058=DIRECTION('',(-8.1835253831517E-17,0.,-1.));
#1059=DIRECTION('',(0.,-1.,0.));
#1060=DIRECTION('',(0.,1.,0.));
#1061=DIRECTION('',(0.,0.,-1.));
#1062=DIRECTION('',(-1.,0.,0.));
#1063=DIRECTION('',(0.,-1.,0.));
#1064=DIRECTION('',(1.,0.,0.));
#1065=DIRECTION('',(0.,1.,0.));
#1066=DIRECTION('',(0.,-1.,0.));
#1067=DIRECTION('',(0.,0.,-1.));
#1068=DIRECTION('',(0.,-1.,0.));
#1069=DIRECTION('',(0.,1.,0.));
#1070=DIRECTION('',(-1.,0.,0.));
#1071=DIRECTION('',(0.,-1.,0.));
#1072=DIRECTION('',(8.1835253831517E-17,0.,1.));
#1073=DIRECTION('',(1.,0.,-8.1835253831517E-17));
#1074=DIRECTION('',(-1.,0.,8.1835253831517E-17));
#1075=DIRECTION('',(0.,-1.,0.));
#1076=DIRECTION('',(0.,1.,0.));
#1077=DIRECTION('',(-1.,0.,0.));
#1078=DIRECTION('',(0.,0.,1.));
#1079=DIRECTION('',(0.,-1.,0.));
#1080=DIRECTION('',(0.,0.,-1.));
#1081=DIRECTION('',(0.,1.,0.));
#1082=DIRECTION('',(0.,-1.,0.));
#1083=DIRECTION('',(0.,0.,-1.));
#1084=DIRECTION('',(0.,-1.,0.));
#1085=DIRECTION('',(0.,1.,0.));
#1086=DIRECTION('',(1.,0.,0.));
#1087=DIRECTION('',(0.,-1.,0.));
#1088=DIRECTION('',(1.,0.,0.));
#1089=DIRECTION('',(0.,0.,-1.));
#1090=DIRECTION('',(0.,0.,1.));
#1091=DIRECTION('',(0.,-1.,0.));
#1092=DIRECTION('',(0.,1.,0.));
#1093=DIRECTION('',(0.,0.,1.));
#1094=DIRECTION('',(1.,0.,0.));
#1095=DIRECTION('',(0.,-1.,0.));
#1096=DIRECTION('',(-1.,0.,0.));
#1097=DIRECTION('',(0.,1.,0.));
#1098=DIRECTION('',(0.,-1.,0.));
#1099=DIRECTION('',(0.,0.,-1.));
#1100=DIRECTION('',(0.,1.,0.));
#1101=DIRECTION('',(1.,0.,0.));
#1102=DIRECTION('',(0.,-1.,0.));
#1103=DIRECTION('',(0.,-1.,0.));
#1104=DIRECTION('',(0.,1.,0.));
#1105=DIRECTION('',(0.,0.,1.));
#1106=DIRECTION('',(0.,1.,0.));
#1107=DIRECTION('',(0.,0.,1.));
#1108=DIRECTION('',(0.,1.,0.));
#1109=DIRECTION('',(0.,0.,1.));
#1110=DIRECTION('',(0.,1.,0.));
#1111=DIRECTION('',(0.,0.,1.));
#1112=DIRECTION('',(0.,1.,0.));
#1113=DIRECTION('',(0.,0.,1.));
#1114=DIRECTION('',(0.,1.,0.));
#1115=DIRECTION('',(0.,0.,1.));
#1116=DIRECTION('',(0.,1.,0.));
#1117=DIRECTION('',(0.,0.,1.));
#1118=DIRECTION('',(0.,1.,0.));
#1119=DIRECTION('',(0.,0.,1.));
#1120=DIRECTION('',(0.,1.,0.));
#1121=DIRECTION('',(0.,0.,1.));
#1122=DIRECTION('',(0.,1.,0.));
#1123=DIRECTION('',(0.,0.,1.));
#1124=DIRECTION('',(0.,1.,0.));
#1125=DIRECTION('',(0.,0.,1.));
#1126=DIRECTION('',(0.,1.,0.));
#1127=DIRECTION('',(0.,0.,1.));
#1128=DIRECTION('',(0.,1.,0.));
#1129=DIRECTION('',(0.,0.,1.));
#1130=DIRECTION('',(0.,-1.,0.));
#1131=DIRECTION('',(0.,0.,-1.));
#1132=DIRECTION('',(0.,-1.,0.));
#1133=DIRECTION('',(0.,0.,-1.));
#1134=DIRECTION('',(0.,-1.,0.));
#1135=DIRECTION('',(0.,-1.,0.));
#1136=DIRECTION('',(0.,-1.,0.));
#1137=DIRECTION('',(0.,0.,-1.));
#1138=DIRECTION('',(0.,-1.,0.));
#1139=DIRECTION('',(0.,-1.,0.));
#1140=DIRECTION('',(0.,-1.,0.));
#1141=DIRECTION('',(0.,0.,-1.));
#1142=DIRECTION('',(0.,-1.,0.));
#1143=DIRECTION('',(0.,-1.,0.));
#1144=DIRECTION('',(0.,-1.,0.));
#1145=DIRECTION('',(0.,0.,-1.));
#1146=DIRECTION('',(0.,-1.,0.));
#1147=DIRECTION('',(0.,-1.,0.));
#1148=DIRECTION('',(0.,1.,0.));
#1149=DIRECTION('',(0.,0.,1.));
#1150=DIRECTION('',(0.,1.,0.));
#1151=DIRECTION('',(-1.,0.,0.));
#1152=DIRECTION('',(0.,0.,-1.));
#1153=DIRECTION('',(-1.,0.,0.));
#1154=DIRECTION('',(0.,0.,1.));
#1155=DIRECTION('',(1.,0.,0.));
#1156=DIRECTION('',(1.,0.,0.));
#1157=DIRECTION('',(0.,0.,-1.));
#1158=DIRECTION('',(-1.,0.,-3.30523990437354E-17));
#1159=DIRECTION('',(-3.30523990437354E-17,0.,1.));
#1160=DIRECTION('',(7.97975694322629E-16,0.,1.));
#1161=DIRECTION('',(1.,0.,-7.97975694322629E-16));
#1162=DIRECTION('',(8.15333554720978E-16,0.,-1.));
#1163=DIRECTION('',(-1.,0.,-8.15333554720978E-16));
#1164=DIRECTION('',(-1.,0.,0.));
#1165=DIRECTION('',(0.,0.,1.));
#1166=DIRECTION('',(1.,0.,0.));
#1167=DIRECTION('',(0.,0.,-1.));
#1168=DIRECTION('',(7.97749116843057E-16,0.,-1.));
#1169=DIRECTION('',(-1.,0.,-7.97749116843057E-16));
#1170=DIRECTION('',(8.15333554720978E-16,0.,1.));
#1171=DIRECTION('',(1.,0.,-8.15333554720978E-16));
#1172=DIRECTION('',(0.,-1.,0.));
#1173=DIRECTION('',(0.,0.,-1.));
#1174=DIRECTION('',(0.,-1.,0.));
#1175=DIRECTION('',(0.,0.,-1.));
#1176=DIRECTION('',(0.,-1.,0.));
#1177=DIRECTION('',(0.,0.,-1.));
#1178=DIRECTION('',(0.,-1.,0.));
#1179=DIRECTION('',(0.,0.,-1.));
#1180=DIRECTION('',(0.,0.,1.));
#1181=DIRECTION('',(1.,0.,0.));
#1182=DIRECTION('',(0.,0.,1.));
#1183=DIRECTION('',(-1.,0.,0.));
#1184=DIRECTION('',(0.,0.,1.));
#1185=DIRECTION('',(1.,0.,0.));
#1186=DIRECTION('',(0.,0.,1.));
#1187=DIRECTION('',(1.,0.,0.));
#1188=DIRECTION('',(0.,0.,1.));
#1189=DIRECTION('',(-1.,0.,0.));
#1190=DIRECTION('',(0.,0.,1.));
#1191=DIRECTION('',(1.,0.,0.));
#1192=DIRECTION('',(0.,-1.,0.));
#1193=DIRECTION('',(0.,0.,-1.));
#1194=DIRECTION('',(0.,-1.,0.));
#1195=DIRECTION('',(0.,0.,-1.));
#1196=DIRECTION('',(0.,-1.,0.));
#1197=DIRECTION('',(0.,0.,-1.));
#1198=DIRECTION('',(0.,-1.,0.));
#1199=DIRECTION('',(0.,0.,-1.));
#1200=DIRECTION('',(0.,-1.,0.));
#1201=DIRECTION('',(0.,0.,-1.));
#1202=DIRECTION('',(0.,-1.,0.));
#1203=DIRECTION('',(0.,0.,-1.));
#1204=DIRECTION('',(0.,-1.,0.));
#1205=DIRECTION('',(0.,0.,-1.));
#1206=DIRECTION('',(0.,-1.,0.));
#1207=DIRECTION('',(0.,0.,-1.));
#1208=DIRECTION('',(0.,-1.,0.));
#1209=DIRECTION('',(0.,0.,-1.));
#1210=DIRECTION('',(0.,-1.,0.));
#1211=DIRECTION('',(0.,0.,-1.));
#1212=DIRECTION('',(0.,-1.,0.));
#1213=DIRECTION('',(0.,0.,-1.));
#1214=DIRECTION('',(0.,-1.,0.));
#1215=DIRECTION('',(0.,0.,-1.));
#1216=CARTESIAN_POINT('',(0.,0.,0.));
#1217=CARTESIAN_POINT('',(0.,12.8,0.));
#1218=CARTESIAN_POINT('',(0.,0.,0.));
#1219=CARTESIAN_POINT('',(3.6,0.,0.));
#1220=CARTESIAN_POINT('',(0.,12.8,0.));
#1221=CARTESIAN_POINT('',(-3.57770876399966,12.8,-0.400000000000002));
#1222=CARTESIAN_POINT('',(-3.57770876399966,12.8,0.400000000000002));
#1223=CARTESIAN_POINT('',(0.,12.8,0.));
#1224=CARTESIAN_POINT('',(-0.4,12.8,-3.57770876399966));
#1225=CARTESIAN_POINT('',(0.,12.8,0.));
#1226=CARTESIAN_POINT('',(0.4,12.8,-3.57770876399966));
#1227=CARTESIAN_POINT('',(0.,12.8,0.));
#1228=CARTESIAN_POINT('',(3.57770876399966,12.8,-0.399999999999996));
#1229=CARTESIAN_POINT('',(0.,12.8,0.));
#1230=CARTESIAN_POINT('',(3.57770876399966,12.8,0.399999999999996));
#1231=CARTESIAN_POINT('',(0.,12.8,0.));
#1232=CARTESIAN_POINT('',(0.4,12.8,3.57770876399966));
#1233=CARTESIAN_POINT('',(0.,12.8,0.));
#1234=CARTESIAN_POINT('',(-0.4,12.8,3.57770876399966));
#1235=CARTESIAN_POINT('',(0.,12.8,0.));
#1236=CARTESIAN_POINT('',(0.,12.8,0.));
#1237=CARTESIAN_POINT('',(-1.13137084989848,12.8,-0.4));
#1238=CARTESIAN_POINT('',(-1.13137084989848,12.8,-0.4));
#1239=CARTESIAN_POINT('',(0.,12.8,0.));
#1240=CARTESIAN_POINT('',(-0.4,12.8,-1.13137084989848));
#1241=CARTESIAN_POINT('',(-0.4,12.8,-1.93758247384615));
#1242=CARTESIAN_POINT('',(0.,12.8,0.));
#1243=CARTESIAN_POINT('',(0.4,12.8,-0.399999999999999));
#1244=CARTESIAN_POINT('',(0.4,12.8,-1.13137084989848));
#1245=CARTESIAN_POINT('',(0.,12.8,0.));
#1246=CARTESIAN_POINT('',(1.13137084989848,12.8,-0.399999999999998));
#1247=CARTESIAN_POINT('',(1.13137084989848,12.8,-0.399999999999998));
#1248=CARTESIAN_POINT('',(0.,12.8,0.));
#1249=CARTESIAN_POINT('',(0.4,12.8,0.399999999999999));
#1250=CARTESIAN_POINT('',(1.13137084989848,12.8,0.399999999999998));
#1251=CARTESIAN_POINT('',(0.,12.8,0.));
#1252=CARTESIAN_POINT('',(0.4,12.8,1.13137084989848));
#1253=CARTESIAN_POINT('',(0.4,12.8,1.13137084989848));
#1254=CARTESIAN_POINT('',(0.,12.8,0.));
#1255=CARTESIAN_POINT('',(-0.4,12.8,1.13137084989848));
#1256=CARTESIAN_POINT('',(-0.4,12.8,1.13137084989848));
#1257=CARTESIAN_POINT('',(0.,12.8,0.));
#1258=CARTESIAN_POINT('',(-1.13137084989848,12.8,0.4));
#1259=CARTESIAN_POINT('',(-1.2,12.8,0.4));
#1260=CARTESIAN_POINT('',(0.,0.,0.));
#1261=CARTESIAN_POINT('',(-0.9,0.,0.9));
#1262=CARTESIAN_POINT('',(-2.15638586528478,0.,0.9));
#1263=CARTESIAN_POINT('',(-1.4,0.,0.9));
#1264=CARTESIAN_POINT('',(-1.4,0.,1.4));
#1265=CARTESIAN_POINT('',(-0.9,0.,1.4));
#1266=CARTESIAN_POINT('',(-0.9,0.,0.9));
#1267=CARTESIAN_POINT('',(-0.9,0.,2.15638586528478));
#1268=CARTESIAN_POINT('',(-0.8,0.,2.15638586528478));
#1269=CARTESIAN_POINT('',(-0.834782608695652,0.,2.25014177247108));
#1270=CARTESIAN_POINT('',(0.,0.,0.));
#1271=CARTESIAN_POINT('',(0.834782608695652,0.,2.25014177247108));
#1272=CARTESIAN_POINT('',(0.8,0.,2.15638586528478));
#1273=CARTESIAN_POINT('',(0.9,0.,2.15638586528478));
#1274=CARTESIAN_POINT('',(0.9,0.,0.9));
#1275=CARTESIAN_POINT('',(0.9,0.,1.4));
#1276=CARTESIAN_POINT('',(1.4,0.,1.4));
#1277=CARTESIAN_POINT('',(1.4,0.,0.9));
#1278=CARTESIAN_POINT('',(0.9,0.,0.9));
#1279=CARTESIAN_POINT('',(2.15638586528478,0.,0.9));
#1280=CARTESIAN_POINT('',(2.15638586528478,0.,0.8));
#1281=CARTESIAN_POINT('',(2.25014177247108,0.,0.834782608695652));
#1282=CARTESIAN_POINT('',(0.,0.,0.));
#1283=CARTESIAN_POINT('',(2.25014177247108,0.,-0.834782608695652));
#1284=CARTESIAN_POINT('',(2.15638586528478,0.,-0.8));
#1285=CARTESIAN_POINT('',(2.15638586528478,0.,-0.9));
#1286=CARTESIAN_POINT('',(0.9,0.,-0.9));
#1287=CARTESIAN_POINT('',(1.4,0.,-0.9));
#1288=CARTESIAN_POINT('',(1.4,0.,-1.4));
#1289=CARTESIAN_POINT('',(0.9,0.,-1.4));
#1290=CARTESIAN_POINT('',(0.9,0.,-0.9));
#1291=CARTESIAN_POINT('',(0.9,0.,-2.15638586528478));
#1292=CARTESIAN_POINT('',(0.8,0.,-2.15638586528478));
#1293=CARTESIAN_POINT('',(0.834782608695652,0.,-2.25014177247108));
#1294=CARTESIAN_POINT('',(0.,0.,0.));
#1295=CARTESIAN_POINT('',(-0.834782608695652,0.,-2.25014177247108));
#1296=CARTESIAN_POINT('',(-0.8,0.,-2.15638586528478));
#1297=CARTESIAN_POINT('',(-0.9,0.,-2.15638586528478));
#1298=CARTESIAN_POINT('',(-0.9,0.,-0.9));
#1299=CARTESIAN_POINT('',(-0.9,0.,-1.4));
#1300=CARTESIAN_POINT('',(-1.4,0.,-1.4));
#1301=CARTESIAN_POINT('',(-1.4,0.,-0.9));
#1302=CARTESIAN_POINT('',(-0.9,0.,-0.9));
#1303=CARTESIAN_POINT('',(-2.15638586528478,0.,-0.9));
#1304=CARTESIAN_POINT('',(-2.15638586528478,0.,-0.8));
#1305=CARTESIAN_POINT('',(-2.25014177247108,0.,-0.834782608695652));
#1306=CARTESIAN_POINT('',(0.,0.,0.));
#1307=CARTESIAN_POINT('',(-2.25014177247108,0.,0.834782608695652));
#1308=CARTESIAN_POINT('',(-2.15638586528478,0.,0.8));
#1309=CARTESIAN_POINT('',(-0.9,12.,0.9));
#1310=CARTESIAN_POINT('',(-0.9,12.,0.9));
#1311=CARTESIAN_POINT('',(-2.15638586528478,12.,0.9));
#1312=CARTESIAN_POINT('',(-1.4,12.,0.9));
#1313=CARTESIAN_POINT('',(-1.4,12.,0.9));
#1314=CARTESIAN_POINT('',(-2.15638586528478,12.,0.9));
#1315=CARTESIAN_POINT('',(-0.9,12.,0.9));
#1316=CARTESIAN_POINT('',(-0.9,12.,1.4));
#1317=CARTESIAN_POINT('',(-0.9,12.,1.4));
#1318=CARTESIAN_POINT('',(-0.9,12.,0.9));
#1319=CARTESIAN_POINT('',(-0.9,12.,2.15638586528478));
#1320=CARTESIAN_POINT('',(-0.9,0.,2.15638586528478));
#1321=CARTESIAN_POINT('',(0.,12.,0.));
#1322=CARTESIAN_POINT('',(0.,12.,0.));
#1323=CARTESIAN_POINT('',(-0.834782608695652,12.,2.25014177247108));
#1324=CARTESIAN_POINT('',(0.834782608695652,12.,2.25014177247108));
#1325=CARTESIAN_POINT('',(0.834782608695652,12.,2.25014177247108));
#1326=CARTESIAN_POINT('',(-0.834782608695652,12.,2.25014177247108));
#1327=CARTESIAN_POINT('',(0.9,12.,0.9));
#1328=CARTESIAN_POINT('',(0.9,12.,0.9));
#1329=CARTESIAN_POINT('',(0.9,12.,2.15638586528478));
#1330=CARTESIAN_POINT('',(0.9,12.,1.4));
#1331=CARTESIAN_POINT('',(0.9,12.,1.4));
#1332=CARTESIAN_POINT('',(0.9,12.,2.15638586528478));
#1333=CARTESIAN_POINT('',(0.9,12.,0.9));
#1334=CARTESIAN_POINT('',(1.4,12.,0.9));
#1335=CARTESIAN_POINT('',(1.4,12.,0.9));
#1336=CARTESIAN_POINT('',(0.9,12.,0.9));
#1337=CARTESIAN_POINT('',(2.15638586528478,12.,0.9));
#1338=CARTESIAN_POINT('',(2.15638586528478,0.,0.9));
#1339=CARTESIAN_POINT('',(0.,12.,0.));
#1340=CARTESIAN_POINT('',(2.25014177247108,12.,0.834782608695652));
#1341=CARTESIAN_POINT('',(2.25014177247108,12.,0.834782608695652));
#1342=CARTESIAN_POINT('',(0.,12.,0.));
#1343=CARTESIAN_POINT('',(2.25014177247108,12.,-0.834782608695652));
#1344=CARTESIAN_POINT('',(2.25014177247108,12.,-0.834782608695652));
#1345=CARTESIAN_POINT('',(0.9,12.,-0.9));
#1346=CARTESIAN_POINT('',(0.9,12.,-0.9));
#1347=CARTESIAN_POINT('',(2.15638586528478,12.,-0.9));
#1348=CARTESIAN_POINT('',(1.4,12.,-0.9));
#1349=CARTESIAN_POINT('',(1.4,12.,-0.9));
#1350=CARTESIAN_POINT('',(2.15638586528478,12.,-0.9));
#1351=CARTESIAN_POINT('',(0.9,12.,-0.9));
#1352=CARTESIAN_POINT('',(0.9,12.,-1.4));
#1353=CARTESIAN_POINT('',(0.9,12.,-1.4));
#1354=CARTESIAN_POINT('',(0.9,12.,-0.9));
#1355=CARTESIAN_POINT('',(0.9,12.,-2.15638586528478));
#1356=CARTESIAN_POINT('',(0.9,0.,-2.15638586528478));
#1357=CARTESIAN_POINT('',(0.,12.,0.));
#1358=CARTESIAN_POINT('',(0.834782608695652,12.,-2.25014177247108));
#1359=CARTESIAN_POINT('',(0.834782608695652,12.,-2.25014177247108));
#1360=CARTESIAN_POINT('',(0.,12.,0.));
#1361=CARTESIAN_POINT('',(-0.834782608695652,12.,-2.25014177247108));
#1362=CARTESIAN_POINT('',(-0.834782608695652,12.,-2.25014177247108));
#1363=CARTESIAN_POINT('',(-0.9,12.,-0.9));
#1364=CARTESIAN_POINT('',(-0.9,12.,-0.9));
#1365=CARTESIAN_POINT('',(-0.9,12.,-2.15638586528478));
#1366=CARTESIAN_POINT('',(-0.9,12.,-1.4));
#1367=CARTESIAN_POINT('',(-0.9,12.,-1.4));
#1368=CARTESIAN_POINT('',(-0.9,12.,-2.15638586528478));
#1369=CARTESIAN_POINT('',(-0.9,12.,-0.9));
#1370=CARTESIAN_POINT('',(-1.4,12.,-0.9));
#1371=CARTESIAN_POINT('',(-1.4,12.,-0.9));
#1372=CARTESIAN_POINT('',(-0.9,12.,-0.9));
#1373=CARTESIAN_POINT('',(-2.15638586528478,12.,-0.9));
#1374=CARTESIAN_POINT('',(-2.15638586528478,0.,-0.9));
#1375=CARTESIAN_POINT('',(0.,12.,0.));
#1376=CARTESIAN_POINT('',(0.,12.,0.));
#1377=CARTESIAN_POINT('',(-2.25014177247108,12.,-0.834782608695652));
#1378=CARTESIAN_POINT('',(-2.25014177247108,12.,0.834782608695652));
#1379=CARTESIAN_POINT('',(-2.25014177247108,12.,0.834782608695652));
#1380=CARTESIAN_POINT('',(-2.25014177247108,12.,-0.834782608695652));
#1381=CARTESIAN_POINT('',(0.,12.,0.));
#1382=CARTESIAN_POINT('',(-2.15638586528478,12.,0.8));
#1383=CARTESIAN_POINT('',(-2.15638586528478,12.,-0.8));
#1384=CARTESIAN_POINT('',(-1.4,12.,-1.4));
#1385=CARTESIAN_POINT('',(-0.8,12.,-2.15638586528478));
#1386=CARTESIAN_POINT('',(0.8,12.,-2.15638586528478));
#1387=CARTESIAN_POINT('',(1.4,12.,-1.4));
#1388=CARTESIAN_POINT('',(2.15638586528478,12.,-0.8));
#1389=CARTESIAN_POINT('',(2.15638586528478,12.,0.8));
#1390=CARTESIAN_POINT('',(1.4,12.,1.4));
#1391=CARTESIAN_POINT('',(0.8,12.,2.15638586528478));
#1392=CARTESIAN_POINT('',(-0.8,12.,2.15638586528478));
#1393=CARTESIAN_POINT('',(-1.4,12.,1.4));
#1394=CARTESIAN_POINT('',(0.,21.8,0.));
#1395=CARTESIAN_POINT('',(0.,17.8,0.));
#1396=CARTESIAN_POINT('',(0.4,17.8,1.13137084989848));
#1397=CARTESIAN_POINT('',(-0.4,17.8,1.13137084989848));
#1398=CARTESIAN_POINT('',(0.4,21.8,1.13137084989848));
#1399=CARTESIAN_POINT('',(1.13137084989848,21.8,0.399999999999998));
#1400=CARTESIAN_POINT('',(1.13137084989848,17.8,0.399999999999998));
#1401=CARTESIAN_POINT('',(0.,17.8,0.));
#1402=CARTESIAN_POINT('',(1.13137084989848,17.8,-0.399999999999998));
#1403=CARTESIAN_POINT('',(1.13137084989848,21.8,-0.399999999999998));
#1404=CARTESIAN_POINT('',(0.4,21.8,-1.13137084989848));
#1405=CARTESIAN_POINT('',(0.4,17.8,-1.13137084989848));
#1406=CARTESIAN_POINT('',(0.,17.8,0.));
#1407=CARTESIAN_POINT('',(-0.4,17.8,-1.13137084989848));
#1408=CARTESIAN_POINT('',(-0.4,21.8,-1.13137084989848));
#1409=CARTESIAN_POINT('',(-1.13137084989848,21.8,-0.4));
#1410=CARTESIAN_POINT('',(-1.13137084989848,17.8,-0.4));
#1411=CARTESIAN_POINT('',(0.,17.8,0.));
#1412=CARTESIAN_POINT('',(-1.13137084989848,17.8,0.4));
#1413=CARTESIAN_POINT('',(-1.13137084989848,21.8,0.4));
#1414=CARTESIAN_POINT('',(-0.4,21.8,1.13137084989848));
#1415=CARTESIAN_POINT('',(0.,17.9215390309173,0.));
#1416=CARTESIAN_POINT('',(0.,17.9215390309173,1.2));
#1417=CARTESIAN_POINT('',(0.,20.,0.));
#1418=CARTESIAN_POINT('',(0.,20.,2.26274169979695));
#1419=CARTESIAN_POINT('',(-0.8,20.,2.26274169979695));
#1420=CARTESIAN_POINT('',(0.,20.,-2.26274169979695));
#1421=CARTESIAN_POINT('',(0.8,20.,-2.26274169979695));
#1422=CARTESIAN_POINT('',(0.4,17.8,-0.399999999999999));
#1423=CARTESIAN_POINT('',(0.4,17.8,-1.13137084989848));
#1424=CARTESIAN_POINT('',(0.4,16.1464942048058,-1.97319856546791));
#1425=CARTESIAN_POINT('',(0.4,14.4708061655563,-2.77072495270319));
#1426=CARTESIAN_POINT('',(0.4,12.8,-3.57770876399966));
#1427=CARTESIAN_POINT('',(-0.4,17.8,-1.93758247384615));
#1428=CARTESIAN_POINT('',(-0.4,12.8,-3.57770876399966));
#1429=CARTESIAN_POINT('',(-0.4,14.4708049174199,-2.77072555554141));
#1430=CARTESIAN_POINT('',(-0.4,16.1464511829001,-1.97322046864638));
#1431=CARTESIAN_POINT('',(-0.4,17.8,-1.13137084989848));
#1432=CARTESIAN_POINT('',(-1.2,17.8,0.4));
#1433=CARTESIAN_POINT('',(-3.57770876399966,12.8,0.400000000000002));
#1434=CARTESIAN_POINT('',(-2.77072555554141,14.4708049174199,0.400000000000001));
#1435=CARTESIAN_POINT('',(-1.97322046864638,16.1464511829001,0.400000000000001));
#1436=CARTESIAN_POINT('',(-1.13137084989848,17.8,0.4));
#1437=CARTESIAN_POINT('',(-1.13137084989848,17.8,-0.4));
#1438=CARTESIAN_POINT('',(-1.13137084989848,17.8,-0.4));
#1439=CARTESIAN_POINT('',(-1.97319856546791,16.1464942048058,-0.400000000000001));
#1440=CARTESIAN_POINT('',(-2.77072495270319,14.4708061655563,-0.400000000000001));
#1441=CARTESIAN_POINT('',(-3.57770876399966,12.8,-0.400000000000002));
#1442=CARTESIAN_POINT('',(-0.4,17.8,1.13137084989848));
#1443=CARTESIAN_POINT('',(-0.4,17.8,1.13137084989848));
#1444=CARTESIAN_POINT('',(-0.4,16.1464942048058,1.97319856546791));
#1445=CARTESIAN_POINT('',(-0.4,14.4708061655563,2.77072495270319));
#1446=CARTESIAN_POINT('',(-0.4,12.8,3.57770876399966));
#1447=CARTESIAN_POINT('',(0.4,17.8,1.13137084989848));
#1448=CARTESIAN_POINT('',(0.4,12.8,3.57770876399966));
#1449=CARTESIAN_POINT('',(0.4,14.4708049174199,2.77072555554141));
#1450=CARTESIAN_POINT('',(0.4,16.1464511829001,1.97322046864638));
#1451=CARTESIAN_POINT('',(0.4,17.8,1.13137084989848));
#1452=CARTESIAN_POINT('',(1.13137084989848,17.8,-0.399999999999998));
#1453=CARTESIAN_POINT('',(3.57770876399966,12.8,-0.399999999999996));
#1454=CARTESIAN_POINT('',(2.77072555554141,14.4708049174199,-0.399999999999997));
#1455=CARTESIAN_POINT('',(1.97322046864638,16.1464511829001,-0.399999999999997));
#1456=CARTESIAN_POINT('',(1.13137084989848,17.8,-0.399999999999998));
#1457=CARTESIAN_POINT('',(0.4,17.8,0.399999999999999));
#1458=CARTESIAN_POINT('',(1.13137084989848,17.8,0.399999999999998));
#1459=CARTESIAN_POINT('',(1.97319856546791,16.1464942048058,0.399999999999998));
#1460=CARTESIAN_POINT('',(2.77072495270319,14.4708061655563,0.399999999999997));
#1461=CARTESIAN_POINT('',(3.57770876399966,12.8,0.399999999999996));
#1462=CARTESIAN_POINT('',(0.,12.8,0.));
#1463=CARTESIAN_POINT('',(0.,12.8,0.));
#1464=CARTESIAN_POINT('',(0.,12.8,0.));
#1465=CARTESIAN_POINT('',(0.,12.8,0.));
#1466=CARTESIAN_POINT('',(0.,20.,-3.2));
#1467=CARTESIAN_POINT('',(0.,20.,-3.2));
#1468=CARTESIAN_POINT('',(-0.8,20.,-3.2));
#1469=CARTESIAN_POINT('',(0.,20.,-3.2));
#1470=CARTESIAN_POINT('',(0.,20.,-3.2));
#1471=CARTESIAN_POINT('',(0.,20.,3.2));
#1472=CARTESIAN_POINT('',(-0.8,20.,3.2));
#1473=CARTESIAN_POINT('',(0.,20.,3.2));
#1474=CARTESIAN_POINT('',(-0.8,12.,2.15638586528478));
#1475=CARTESIAN_POINT('',(-2.15638586528478,12.,-0.8));
#1476=CARTESIAN_POINT('',(-0.8,12.,-2.15638586528478));
#1477=CARTESIAN_POINT('',(0.8,12.,-2.15638586528478));
#1478=CARTESIAN_POINT('',(2.15638586528478,12.,-0.8));
#1479=CARTESIAN_POINT('',(2.15638586528478,12.,0.8));
#1480=CARTESIAN_POINT('',(0.8,12.,2.15638586528478));
#1481=CARTESIAN_POINT('',(-2.15638586528478,12.,0.8));
#1482=CARTESIAN_POINT('',(1.4,12.,1.4));
#1483=CARTESIAN_POINT('',(1.4,12.,-1.4));
#1484=CARTESIAN_POINT('',(-1.4,12.,-1.4));
#1485=CARTESIAN_POINT('',(-1.4,12.,1.4));
#1486=MECHANICAL_DESIGN_GEOMETRIC_PRESENTATION_REPRESENTATION('',(#837),
#1487);
#1487=(
GEOMETRIC_REPRESENTATION_CONTEXT(3)
GLOBAL_UNCERTAINTY_ASSIGNED_CONTEXT((#1488))
GLOBAL_UNIT_ASSIGNED_CONTEXT((#1491,#1490,#1489))
REPRESENTATION_CONTEXT('ClGray_4268659_MCM','TOP_LEVEL_ASSEMBLY_PART')
);
#1488=UNCERTAINTY_MEASURE_WITH_UNIT(LENGTH_MEASURE(0.005),#1491,
'DISTANCE_ACCURACY_VALUE','Maximum Tolerance applied to model');
#1489=(
NAMED_UNIT(*)
SI_UNIT($,.STERADIAN.)
SOLID_ANGLE_UNIT()
);
#1490=(
NAMED_UNIT(*)
PLANE_ANGLE_UNIT()
SI_UNIT($,.RADIAN.)
);
#1491=(
LENGTH_UNIT()
NAMED_UNIT(*)
SI_UNIT(.MILLI.,.METRE.)
);
#1492=PRODUCT_DEFINITION_SHAPE('','',#1493);
#1493=PRODUCT_DEFINITION('','',#1495,#1494);
#1494=PRODUCT_DEFINITION_CONTEXT('',#1501,'design');
#1495=PRODUCT_DEFINITION_FORMATION_WITH_SPECIFIED_SOURCE('','',#1497,
 .NOT_KNOWN.);
#1496=PRODUCT_RELATED_PRODUCT_CATEGORY('','',(#1497));
#1497=PRODUCT('ClGray_4268659_MCM','ClGray_4268659_MCM',
'ClGray_4268659_MCM',(#1499));
#1498=PRODUCT_CATEGORY('','');
#1499=PRODUCT_CONTEXT('',#1501,'mechanical');
#1500=APPLICATION_PROTOCOL_DEFINITION('international standard',
'automotive_design',2010,#1501);
#1501=APPLICATION_CONTEXT(
'core data for automotive mechanical design processes');
ENDSEC;
END-ISO-10303-21;
