ISO-10303-21;
HEADER;
/* Generated by software containing ST-Developer
 * from STEP Tools, Inc. (www.steptools.com) 
 */
/* OPTION: strings as raw bytes, not using required /X/ escapes */

FILE_DESCRIPTION(
/* description */ ('Unknown'),
/* implementation_level */ '2;1');

FILE_NAME(
/* name */ 'ClGray_4211573_JCA',
/* time_stamp */ '2025-07-21T23:51:06+02:00',
/* author */ ('Unknown'),
/* organization */ ('Unknown'),
/* preprocessor_version */ 'ST-DEVELOPER v19.4',
/* originating_system */ 'Solid Edge',
/* authorisation */ 'Unknown');

FILE_SCHEMA (('AUTOMOTIVE_DESIGN {1 0 10303 214 3 1 1}'));
ENDSEC;

DATA;
#10=PROPERTY_DEFINITION_REPRESENTATION(#14,#12);
#11=PROPERTY_DEFINITION_REPRESENTATION(#15,#13);
#12=REPRESENTATION('',(#16),#1071);
#13=REPRESENTATION('',(#17),#1071);
#14=PROPERTY_DEFINITION('pmi validation property','',#1076);
#15=PROPERTY_DEFINITION('pmi validation property','',#1076);
#16=VALUE_REPRESENTATION_ITEM('number of annotations',COUNT_MEASURE(0.));
#17=VALUE_REPRESENTATION_ITEM('number of views',COUNT_MEASURE(0.));
#18=SHAPE_REPRESENTATION_RELATIONSHIP('','',#619,#19);
#19=ADVANCED_BREP_SHAPE_REPRESENTATION('',(#617),#1071);
#20=TOROIDAL_SURFACE('',#694,3.5,0.1);
#21=TOROIDAL_SURFACE('',#695,3.5,0.1);
#22=TOROIDAL_SURFACE('',#696,3.5,0.1);
#23=TOROIDAL_SURFACE('',#697,3.5,0.1);
#24=CONICAL_SURFACE('',#687,3.6,1.39626340159546);
#25=CONICAL_SURFACE('',#692,2.75,1.39626340159546);
#26=LINE('',#908,#66);
#27=LINE('',#913,#67);
#28=LINE('',#921,#68);
#29=LINE('',#925,#69);
#30=LINE('',#933,#70);
#31=LINE('',#937,#71);
#32=LINE('',#945,#72);
#33=LINE('',#949,#73);
#34=LINE('',#959,#74);
#35=LINE('',#964,#75);
#36=LINE('',#972,#76);
#37=LINE('',#976,#77);
#38=LINE('',#984,#78);
#39=LINE('',#988,#79);
#40=LINE('',#996,#80);
#41=LINE('',#1000,#81);
#42=LINE('',#1008,#82);
#43=LINE('',#1009,#83);
#44=LINE('',#1011,#84);
#45=LINE('',#1012,#85);
#46=LINE('',#1014,#86);
#47=LINE('',#1015,#87);
#48=LINE('',#1017,#88);
#49=LINE('',#1018,#89);
#50=LINE('',#1020,#90);
#51=LINE('',#1021,#91);
#52=LINE('',#1023,#92);
#53=LINE('',#1024,#93);
#54=LINE('',#1026,#94);
#55=LINE('',#1027,#95);
#56=LINE('',#1029,#96);
#57=LINE('',#1030,#97);
#58=LINE('',#1032,#98);
#59=LINE('',#1033,#99);
#60=LINE('',#1035,#100);
#61=LINE('',#1036,#101);
#62=LINE('',#1038,#102);
#63=LINE('',#1039,#103);
#64=LINE('',#1041,#104);
#65=LINE('',#1042,#105);
#66=VECTOR('',#716,1000.);
#67=VECTOR('',#719,1000.);
#68=VECTOR('',#726,1000.);
#69=VECTOR('',#729,1000.);
#70=VECTOR('',#736,1000.);
#71=VECTOR('',#739,1000.);
#72=VECTOR('',#746,1000.);
#73=VECTOR('',#749,1000.);
#74=VECTOR('',#760,1000.);
#75=VECTOR('',#763,1000.);
#76=VECTOR('',#770,1000.);
#77=VECTOR('',#773,1000.);
#78=VECTOR('',#780,1000.);
#79=VECTOR('',#783,1000.);
#80=VECTOR('',#790,1000.);
#81=VECTOR('',#793,1000.);
#82=VECTOR('',#802,1000.);
#83=VECTOR('',#803,1000.);
#84=VECTOR('',#806,1000.);
#85=VECTOR('',#807,1000.);
#86=VECTOR('',#810,1000.);
#87=VECTOR('',#811,1000.);
#88=VECTOR('',#814,1000.);
#89=VECTOR('',#815,1000.);
#90=VECTOR('',#818,1000.);
#91=VECTOR('',#819,1000.);
#92=VECTOR('',#822,1000.);
#93=VECTOR('',#823,1000.);
#94=VECTOR('',#826,1000.);
#95=VECTOR('',#827,1000.);
#96=VECTOR('',#830,1000.);
#97=VECTOR('',#831,1000.);
#98=VECTOR('',#834,1000.);
#99=VECTOR('',#835,1000.);
#100=VECTOR('',#838,1000.);
#101=VECTOR('',#839,1000.);
#102=VECTOR('',#842,1000.);
#103=VECTOR('',#843,1000.);
#104=VECTOR('',#846,1000.);
#105=VECTOR('',#847,1000.);
#106=PLANE('',#627);
#107=PLANE('',#645);
#108=PLANE('',#663);
#109=PLANE('',#664);
#110=PLANE('',#666);
#111=PLANE('',#667);
#112=PLANE('',#669);
#113=PLANE('',#670);
#114=PLANE('',#672);
#115=PLANE('',#673);
#116=ORIENTED_EDGE('',*,*,#280,.T.);
#117=ORIENTED_EDGE('',*,*,#281,.T.);
#118=ORIENTED_EDGE('',*,*,#282,.T.);
#119=ORIENTED_EDGE('',*,*,#283,.T.);
#120=ORIENTED_EDGE('',*,*,#284,.T.);
#121=ORIENTED_EDGE('',*,*,#285,.F.);
#122=ORIENTED_EDGE('',*,*,#286,.T.);
#123=ORIENTED_EDGE('',*,*,#287,.F.);
#124=ORIENTED_EDGE('',*,*,#288,.T.);
#125=ORIENTED_EDGE('',*,*,#289,.F.);
#126=ORIENTED_EDGE('',*,*,#290,.T.);
#127=ORIENTED_EDGE('',*,*,#291,.F.);
#128=ORIENTED_EDGE('',*,*,#292,.T.);
#129=ORIENTED_EDGE('',*,*,#293,.F.);
#130=ORIENTED_EDGE('',*,*,#294,.T.);
#131=ORIENTED_EDGE('',*,*,#295,.F.);
#132=ORIENTED_EDGE('',*,*,#296,.T.);
#133=ORIENTED_EDGE('',*,*,#297,.F.);
#134=ORIENTED_EDGE('',*,*,#298,.T.);
#135=ORIENTED_EDGE('',*,*,#299,.F.);
#136=ORIENTED_EDGE('',*,*,#300,.T.);
#137=ORIENTED_EDGE('',*,*,#301,.F.);
#138=ORIENTED_EDGE('',*,*,#302,.T.);
#139=ORIENTED_EDGE('',*,*,#303,.F.);
#140=ORIENTED_EDGE('',*,*,#304,.T.);
#141=ORIENTED_EDGE('',*,*,#305,.F.);
#142=ORIENTED_EDGE('',*,*,#306,.T.);
#143=ORIENTED_EDGE('',*,*,#307,.F.);
#144=ORIENTED_EDGE('',*,*,#308,.T.);
#145=ORIENTED_EDGE('',*,*,#309,.T.);
#146=ORIENTED_EDGE('',*,*,#310,.F.);
#147=ORIENTED_EDGE('',*,*,#311,.T.);
#148=ORIENTED_EDGE('',*,*,#312,.F.);
#149=ORIENTED_EDGE('',*,*,#313,.T.);
#150=ORIENTED_EDGE('',*,*,#314,.F.);
#151=ORIENTED_EDGE('',*,*,#315,.T.);
#152=ORIENTED_EDGE('',*,*,#316,.F.);
#153=ORIENTED_EDGE('',*,*,#317,.T.);
#154=ORIENTED_EDGE('',*,*,#318,.F.);
#155=ORIENTED_EDGE('',*,*,#319,.T.);
#156=ORIENTED_EDGE('',*,*,#320,.F.);
#157=ORIENTED_EDGE('',*,*,#321,.T.);
#158=ORIENTED_EDGE('',*,*,#322,.F.);
#159=ORIENTED_EDGE('',*,*,#323,.T.);
#160=ORIENTED_EDGE('',*,*,#324,.F.);
#161=ORIENTED_EDGE('',*,*,#325,.T.);
#162=ORIENTED_EDGE('',*,*,#326,.F.);
#163=ORIENTED_EDGE('',*,*,#327,.T.);
#164=ORIENTED_EDGE('',*,*,#328,.F.);
#165=ORIENTED_EDGE('',*,*,#329,.T.);
#166=ORIENTED_EDGE('',*,*,#330,.F.);
#167=ORIENTED_EDGE('',*,*,#331,.T.);
#168=ORIENTED_EDGE('',*,*,#332,.F.);
#169=ORIENTED_EDGE('',*,*,#333,.T.);
#170=ORIENTED_EDGE('',*,*,#297,.T.);
#171=ORIENTED_EDGE('',*,*,#334,.T.);
#172=ORIENTED_EDGE('',*,*,#324,.T.);
#173=ORIENTED_EDGE('',*,*,#335,.T.);
#174=ORIENTED_EDGE('',*,*,#322,.T.);
#175=ORIENTED_EDGE('',*,*,#336,.T.);
#176=ORIENTED_EDGE('',*,*,#299,.T.);
#177=ORIENTED_EDGE('',*,*,#337,.T.);
#178=ORIENTED_EDGE('',*,*,#301,.T.);
#179=ORIENTED_EDGE('',*,*,#338,.T.);
#180=ORIENTED_EDGE('',*,*,#320,.T.);
#181=ORIENTED_EDGE('',*,*,#339,.T.);
#182=ORIENTED_EDGE('',*,*,#303,.T.);
#183=ORIENTED_EDGE('',*,*,#340,.T.);
#184=ORIENTED_EDGE('',*,*,#318,.T.);
#185=ORIENTED_EDGE('',*,*,#341,.T.);
#186=ORIENTED_EDGE('',*,*,#316,.T.);
#187=ORIENTED_EDGE('',*,*,#342,.T.);
#188=ORIENTED_EDGE('',*,*,#305,.T.);
#189=ORIENTED_EDGE('',*,*,#343,.T.);
#190=ORIENTED_EDGE('',*,*,#307,.T.);
#191=ORIENTED_EDGE('',*,*,#344,.T.);
#192=ORIENTED_EDGE('',*,*,#314,.T.);
#193=ORIENTED_EDGE('',*,*,#345,.T.);
#194=ORIENTED_EDGE('',*,*,#285,.T.);
#195=ORIENTED_EDGE('',*,*,#346,.T.);
#196=ORIENTED_EDGE('',*,*,#312,.T.);
#197=ORIENTED_EDGE('',*,*,#347,.T.);
#198=ORIENTED_EDGE('',*,*,#310,.T.);
#199=ORIENTED_EDGE('',*,*,#348,.T.);
#200=ORIENTED_EDGE('',*,*,#287,.T.);
#201=ORIENTED_EDGE('',*,*,#349,.T.);
#202=ORIENTED_EDGE('',*,*,#332,.T.);
#203=ORIENTED_EDGE('',*,*,#350,.T.);
#204=ORIENTED_EDGE('',*,*,#289,.T.);
#205=ORIENTED_EDGE('',*,*,#351,.T.);
#206=ORIENTED_EDGE('',*,*,#291,.T.);
#207=ORIENTED_EDGE('',*,*,#352,.T.);
#208=ORIENTED_EDGE('',*,*,#330,.T.);
#209=ORIENTED_EDGE('',*,*,#353,.T.);
#210=ORIENTED_EDGE('',*,*,#328,.T.);
#211=ORIENTED_EDGE('',*,*,#354,.T.);
#212=ORIENTED_EDGE('',*,*,#293,.T.);
#213=ORIENTED_EDGE('',*,*,#355,.T.);
#214=ORIENTED_EDGE('',*,*,#326,.T.);
#215=ORIENTED_EDGE('',*,*,#356,.T.);
#216=ORIENTED_EDGE('',*,*,#295,.T.);
#217=ORIENTED_EDGE('',*,*,#357,.T.);
#218=ORIENTED_EDGE('',*,*,#304,.F.);
#219=ORIENTED_EDGE('',*,*,#341,.F.);
#220=ORIENTED_EDGE('',*,*,#317,.F.);
#221=ORIENTED_EDGE('',*,*,#343,.F.);
#222=ORIENTED_EDGE('',*,*,#298,.F.);
#223=ORIENTED_EDGE('',*,*,#335,.F.);
#224=ORIENTED_EDGE('',*,*,#323,.F.);
#225=ORIENTED_EDGE('',*,*,#337,.F.);
#226=ORIENTED_EDGE('',*,*,#292,.F.);
#227=ORIENTED_EDGE('',*,*,#353,.F.);
#228=ORIENTED_EDGE('',*,*,#329,.F.);
#229=ORIENTED_EDGE('',*,*,#355,.F.);
#230=ORIENTED_EDGE('',*,*,#286,.F.);
#231=ORIENTED_EDGE('',*,*,#347,.F.);
#232=ORIENTED_EDGE('',*,*,#311,.F.);
#233=ORIENTED_EDGE('',*,*,#349,.F.);
#234=ORIENTED_EDGE('',*,*,#302,.F.);
#235=ORIENTED_EDGE('',*,*,#339,.F.);
#236=ORIENTED_EDGE('',*,*,#319,.F.);
#237=ORIENTED_EDGE('',*,*,#340,.F.);
#238=ORIENTED_EDGE('',*,*,#308,.F.);
#239=ORIENTED_EDGE('',*,*,#345,.F.);
#240=ORIENTED_EDGE('',*,*,#313,.F.);
#241=ORIENTED_EDGE('',*,*,#346,.F.);
#242=ORIENTED_EDGE('',*,*,#288,.F.);
#243=ORIENTED_EDGE('',*,*,#348,.F.);
#244=ORIENTED_EDGE('',*,*,#333,.F.);
#245=ORIENTED_EDGE('',*,*,#351,.F.);
#246=ORIENTED_EDGE('',*,*,#290,.F.);
#247=ORIENTED_EDGE('',*,*,#350,.F.);
#248=ORIENTED_EDGE('',*,*,#331,.F.);
#249=ORIENTED_EDGE('',*,*,#352,.F.);
#250=ORIENTED_EDGE('',*,*,#294,.F.);
#251=ORIENTED_EDGE('',*,*,#354,.F.);
#252=ORIENTED_EDGE('',*,*,#327,.F.);
#253=ORIENTED_EDGE('',*,*,#357,.F.);
#254=ORIENTED_EDGE('',*,*,#296,.F.);
#255=ORIENTED_EDGE('',*,*,#356,.F.);
#256=ORIENTED_EDGE('',*,*,#325,.F.);
#257=ORIENTED_EDGE('',*,*,#334,.F.);
#258=ORIENTED_EDGE('',*,*,#300,.F.);
#259=ORIENTED_EDGE('',*,*,#336,.F.);
#260=ORIENTED_EDGE('',*,*,#321,.F.);
#261=ORIENTED_EDGE('',*,*,#338,.F.);
#262=ORIENTED_EDGE('',*,*,#306,.F.);
#263=ORIENTED_EDGE('',*,*,#342,.F.);
#264=ORIENTED_EDGE('',*,*,#315,.F.);
#265=ORIENTED_EDGE('',*,*,#344,.F.);
#266=ORIENTED_EDGE('',*,*,#358,.T.);
#267=ORIENTED_EDGE('',*,*,#359,.T.);
#268=ORIENTED_EDGE('',*,*,#360,.T.);
#269=ORIENTED_EDGE('',*,*,#359,.F.);
#270=ORIENTED_EDGE('',*,*,#361,.T.);
#271=ORIENTED_EDGE('',*,*,#360,.F.);
#272=ORIENTED_EDGE('',*,*,#358,.F.);
#273=ORIENTED_EDGE('',*,*,#281,.F.);
#274=ORIENTED_EDGE('',*,*,#309,.F.);
#275=ORIENTED_EDGE('',*,*,#280,.F.);
#276=ORIENTED_EDGE('',*,*,#283,.F.);
#277=ORIENTED_EDGE('',*,*,#284,.F.);
#278=ORIENTED_EDGE('',*,*,#282,.F.);
#279=ORIENTED_EDGE('',*,*,#361,.F.);
#280=EDGE_CURVE('',#362,#362,#420,.T.);
#281=EDGE_CURVE('',#363,#363,#421,.F.);
#282=EDGE_CURVE('',#364,#364,#422,.T.);
#283=EDGE_CURVE('',#365,#365,#423,.F.);
#284=EDGE_CURVE('',#366,#366,#424,.T.);
#285=EDGE_CURVE('',#367,#368,#26,.T.);
#286=EDGE_CURVE('',#367,#369,#425,.T.);
#287=EDGE_CURVE('',#370,#369,#27,.T.);
#288=EDGE_CURVE('',#370,#371,#426,.F.);
#289=EDGE_CURVE('',#372,#371,#427,.T.);
#290=EDGE_CURVE('',#372,#373,#428,.F.);
#291=EDGE_CURVE('',#374,#373,#28,.T.);
#292=EDGE_CURVE('',#374,#375,#429,.T.);
#293=EDGE_CURVE('',#376,#375,#29,.T.);
#294=EDGE_CURVE('',#376,#377,#430,.F.);
#295=EDGE_CURVE('',#378,#377,#431,.T.);
#296=EDGE_CURVE('',#378,#379,#432,.F.);
#297=EDGE_CURVE('',#380,#379,#30,.T.);
#298=EDGE_CURVE('',#380,#381,#433,.T.);
#299=EDGE_CURVE('',#382,#381,#31,.T.);
#300=EDGE_CURVE('',#382,#383,#434,.F.);
#301=EDGE_CURVE('',#384,#383,#435,.T.);
#302=EDGE_CURVE('',#384,#385,#436,.F.);
#303=EDGE_CURVE('',#386,#385,#32,.T.);
#304=EDGE_CURVE('',#386,#387,#437,.T.);
#305=EDGE_CURVE('',#388,#387,#33,.T.);
#306=EDGE_CURVE('',#388,#389,#438,.F.);
#307=EDGE_CURVE('',#390,#389,#439,.T.);
#308=EDGE_CURVE('',#390,#368,#440,.F.);
#309=EDGE_CURVE('',#391,#391,#441,.F.);
#310=EDGE_CURVE('',#392,#393,#34,.T.);
#311=EDGE_CURVE('',#392,#394,#442,.F.);
#312=EDGE_CURVE('',#395,#394,#35,.T.);
#313=EDGE_CURVE('',#395,#396,#443,.T.);
#314=EDGE_CURVE('',#397,#396,#444,.T.);
#315=EDGE_CURVE('',#397,#398,#445,.T.);
#316=EDGE_CURVE('',#399,#398,#36,.T.);
#317=EDGE_CURVE('',#399,#400,#446,.F.);
#318=EDGE_CURVE('',#401,#400,#37,.T.);
#319=EDGE_CURVE('',#401,#402,#447,.T.);
#320=EDGE_CURVE('',#403,#402,#448,.T.);
#321=EDGE_CURVE('',#403,#404,#449,.T.);
#322=EDGE_CURVE('',#405,#404,#38,.T.);
#323=EDGE_CURVE('',#405,#406,#450,.F.);
#324=EDGE_CURVE('',#407,#406,#39,.T.);
#325=EDGE_CURVE('',#407,#408,#451,.T.);
#326=EDGE_CURVE('',#409,#408,#452,.T.);
#327=EDGE_CURVE('',#409,#410,#453,.T.);
#328=EDGE_CURVE('',#411,#410,#40,.T.);
#329=EDGE_CURVE('',#411,#412,#454,.F.);
#330=EDGE_CURVE('',#413,#412,#41,.T.);
#331=EDGE_CURVE('',#413,#414,#455,.T.);
#332=EDGE_CURVE('',#415,#414,#456,.T.);
#333=EDGE_CURVE('',#415,#393,#457,.T.);
#334=EDGE_CURVE('',#379,#407,#42,.F.);
#335=EDGE_CURVE('',#406,#380,#43,.F.);
#336=EDGE_CURVE('',#404,#382,#44,.T.);
#337=EDGE_CURVE('',#381,#405,#45,.T.);
#338=EDGE_CURVE('',#383,#403,#46,.T.);
#339=EDGE_CURVE('',#402,#384,#47,.F.);
#340=EDGE_CURVE('',#385,#401,#48,.F.);
#341=EDGE_CURVE('',#400,#386,#49,.F.);
#342=EDGE_CURVE('',#398,#388,#50,.T.);
#343=EDGE_CURVE('',#387,#399,#51,.T.);
#344=EDGE_CURVE('',#389,#397,#52,.T.);
#345=EDGE_CURVE('',#396,#390,#53,.F.);
#346=EDGE_CURVE('',#368,#395,#54,.F.);
#347=EDGE_CURVE('',#394,#367,#55,.F.);
#348=EDGE_CURVE('',#393,#370,#56,.T.);
#349=EDGE_CURVE('',#369,#392,#57,.T.);
#350=EDGE_CURVE('',#414,#372,#58,.F.);
#351=EDGE_CURVE('',#371,#415,#59,.T.);
#352=EDGE_CURVE('',#373,#413,#60,.F.);
#353=EDGE_CURVE('',#412,#374,#61,.F.);
#354=EDGE_CURVE('',#410,#376,#62,.T.);
#355=EDGE_CURVE('',#375,#411,#63,.T.);
#356=EDGE_CURVE('',#408,#378,#64,.F.);
#357=EDGE_CURVE('',#377,#409,#65,.T.);
#358=EDGE_CURVE('',#416,#416,#458,.F.);
#359=EDGE_CURVE('',#417,#417,#459,.T.);
#360=EDGE_CURVE('',#418,#418,#460,.T.);
#361=EDGE_CURVE('',#419,#419,#461,.F.);
#362=VERTEX_POINT('',#897);
#363=VERTEX_POINT('',#899);
#364=VERTEX_POINT('',#902);
#365=VERTEX_POINT('',#904);
#366=VERTEX_POINT('',#907);
#367=VERTEX_POINT('',#909);
#368=VERTEX_POINT('',#910);
#369=VERTEX_POINT('',#912);
#370=VERTEX_POINT('',#914);
#371=VERTEX_POINT('',#916);
#372=VERTEX_POINT('',#918);
#373=VERTEX_POINT('',#920);
#374=VERTEX_POINT('',#922);
#375=VERTEX_POINT('',#924);
#376=VERTEX_POINT('',#926);
#377=VERTEX_POINT('',#928);
#378=VERTEX_POINT('',#930);
#379=VERTEX_POINT('',#932);
#380=VERTEX_POINT('',#934);
#381=VERTEX_POINT('',#936);
#382=VERTEX_POINT('',#938);
#383=VERTEX_POINT('',#940);
#384=VERTEX_POINT('',#942);
#385=VERTEX_POINT('',#944);
#386=VERTEX_POINT('',#946);
#387=VERTEX_POINT('',#948);
#388=VERTEX_POINT('',#950);
#389=VERTEX_POINT('',#952);
#390=VERTEX_POINT('',#954);
#391=VERTEX_POINT('',#958);
#392=VERTEX_POINT('',#960);
#393=VERTEX_POINT('',#961);
#394=VERTEX_POINT('',#963);
#395=VERTEX_POINT('',#965);
#396=VERTEX_POINT('',#967);
#397=VERTEX_POINT('',#969);
#398=VERTEX_POINT('',#971);
#399=VERTEX_POINT('',#973);
#400=VERTEX_POINT('',#975);
#401=VERTEX_POINT('',#977);
#402=VERTEX_POINT('',#979);
#403=VERTEX_POINT('',#981);
#404=VERTEX_POINT('',#983);
#405=VERTEX_POINT('',#985);
#406=VERTEX_POINT('',#987);
#407=VERTEX_POINT('',#989);
#408=VERTEX_POINT('',#991);
#409=VERTEX_POINT('',#993);
#410=VERTEX_POINT('',#995);
#411=VERTEX_POINT('',#997);
#412=VERTEX_POINT('',#999);
#413=VERTEX_POINT('',#1001);
#414=VERTEX_POINT('',#1003);
#415=VERTEX_POINT('',#1005);
#416=VERTEX_POINT('',#1057);
#417=VERTEX_POINT('',#1059);
#418=VERTEX_POINT('',#1062);
#419=VERTEX_POINT('',#1065);
#420=CIRCLE('',#622,3.6);
#421=CIRCLE('',#623,3.6);
#422=CIRCLE('',#625,3.6);
#423=CIRCLE('',#626,3.6);
#424=CIRCLE('',#628,3.5);
#425=CIRCLE('',#629,0.5);
#426=CIRCLE('',#630,0.1);
#427=CIRCLE('',#631,2.4);
#428=CIRCLE('',#632,0.1);
#429=CIRCLE('',#633,0.5);
#430=CIRCLE('',#634,0.1);
#431=CIRCLE('',#635,2.4);
#432=CIRCLE('',#636,0.1);
#433=CIRCLE('',#637,0.5);
#434=CIRCLE('',#638,0.1);
#435=CIRCLE('',#639,2.4);
#436=CIRCLE('',#640,0.1);
#437=CIRCLE('',#641,0.5);
#438=CIRCLE('',#642,0.1);
#439=CIRCLE('',#643,2.4);
#440=CIRCLE('',#644,0.1);
#441=CIRCLE('',#646,3.5);
#442=CIRCLE('',#647,0.5);
#443=CIRCLE('',#648,0.1);
#444=CIRCLE('',#649,2.4);
#445=CIRCLE('',#650,0.1);
#446=CIRCLE('',#651,0.5);
#447=CIRCLE('',#652,0.1);
#448=CIRCLE('',#653,2.4);
#449=CIRCLE('',#654,0.1);
#450=CIRCLE('',#655,0.5);
#451=CIRCLE('',#656,0.1);
#452=CIRCLE('',#657,2.4);
#453=CIRCLE('',#658,0.1);
#454=CIRCLE('',#659,0.5);
#455=CIRCLE('',#660,0.1);
#456=CIRCLE('',#661,2.4);
#457=CIRCLE('',#662,0.1);
#458=CIRCLE('',#688,3.51736481776669);
#459=CIRCLE('',#689,2.75);
#460=CIRCLE('',#691,2.75);
#461=CIRCLE('',#693,3.51736481776669);
#462=EDGE_LOOP('',(#116));
#463=EDGE_LOOP('',(#117));
#464=EDGE_LOOP('',(#118));
#465=EDGE_LOOP('',(#119));
#466=EDGE_LOOP('',(#120));
#467=EDGE_LOOP('',(#121,#122,#123,#124,#125,#126,#127,#128,#129,#130,#131,
#132,#133,#134,#135,#136,#137,#138,#139,#140,#141,#142,#143,#144));
#468=EDGE_LOOP('',(#145));
#469=EDGE_LOOP('',(#146,#147,#148,#149,#150,#151,#152,#153,#154,#155,#156,
#157,#158,#159,#160,#161,#162,#163,#164,#165,#166,#167,#168,#169));
#470=EDGE_LOOP('',(#170,#171,#172,#173));
#471=EDGE_LOOP('',(#174,#175,#176,#177));
#472=EDGE_LOOP('',(#178,#179,#180,#181));
#473=EDGE_LOOP('',(#182,#183,#184,#185));
#474=EDGE_LOOP('',(#186,#187,#188,#189));
#475=EDGE_LOOP('',(#190,#191,#192,#193));
#476=EDGE_LOOP('',(#194,#195,#196,#197));
#477=EDGE_LOOP('',(#198,#199,#200,#201));
#478=EDGE_LOOP('',(#202,#203,#204,#205));
#479=EDGE_LOOP('',(#206,#207,#208,#209));
#480=EDGE_LOOP('',(#210,#211,#212,#213));
#481=EDGE_LOOP('',(#214,#215,#216,#217));
#482=EDGE_LOOP('',(#218,#219,#220,#221));
#483=EDGE_LOOP('',(#222,#223,#224,#225));
#484=EDGE_LOOP('',(#226,#227,#228,#229));
#485=EDGE_LOOP('',(#230,#231,#232,#233));
#486=EDGE_LOOP('',(#234,#235,#236,#237));
#487=EDGE_LOOP('',(#238,#239,#240,#241));
#488=EDGE_LOOP('',(#242,#243,#244,#245));
#489=EDGE_LOOP('',(#246,#247,#248,#249));
#490=EDGE_LOOP('',(#250,#251,#252,#253));
#491=EDGE_LOOP('',(#254,#255,#256,#257));
#492=EDGE_LOOP('',(#258,#259,#260,#261));
#493=EDGE_LOOP('',(#262,#263,#264,#265));
#494=EDGE_LOOP('',(#266));
#495=EDGE_LOOP('',(#267));
#496=EDGE_LOOP('',(#268));
#497=EDGE_LOOP('',(#269));
#498=EDGE_LOOP('',(#270));
#499=EDGE_LOOP('',(#271));
#500=EDGE_LOOP('',(#272));
#501=EDGE_LOOP('',(#273));
#502=EDGE_LOOP('',(#274));
#503=EDGE_LOOP('',(#275));
#504=EDGE_LOOP('',(#276));
#505=EDGE_LOOP('',(#277));
#506=EDGE_LOOP('',(#278));
#507=EDGE_LOOP('',(#279));
#508=FACE_BOUND('',#462,.T.);
#509=FACE_BOUND('',#463,.T.);
#510=FACE_BOUND('',#464,.T.);
#511=FACE_BOUND('',#465,.T.);
#512=FACE_BOUND('',#466,.T.);
#513=FACE_BOUND('',#467,.T.);
#514=FACE_BOUND('',#468,.T.);
#515=FACE_BOUND('',#469,.T.);
#516=FACE_BOUND('',#470,.T.);
#517=FACE_BOUND('',#471,.T.);
#518=FACE_BOUND('',#472,.T.);
#519=FACE_BOUND('',#473,.T.);
#520=FACE_BOUND('',#474,.T.);
#521=FACE_BOUND('',#475,.T.);
#522=FACE_BOUND('',#476,.T.);
#523=FACE_BOUND('',#477,.T.);
#524=FACE_BOUND('',#478,.T.);
#525=FACE_BOUND('',#479,.T.);
#526=FACE_BOUND('',#480,.T.);
#527=FACE_BOUND('',#481,.T.);
#528=FACE_BOUND('',#482,.T.);
#529=FACE_BOUND('',#483,.T.);
#530=FACE_BOUND('',#484,.T.);
#531=FACE_BOUND('',#485,.T.);
#532=FACE_BOUND('',#486,.T.);
#533=FACE_BOUND('',#487,.T.);
#534=FACE_BOUND('',#488,.T.);
#535=FACE_BOUND('',#489,.T.);
#536=FACE_BOUND('',#490,.T.);
#537=FACE_BOUND('',#491,.T.);
#538=FACE_BOUND('',#492,.T.);
#539=FACE_BOUND('',#493,.T.);
#540=FACE_BOUND('',#494,.T.);
#541=FACE_BOUND('',#495,.T.);
#542=FACE_BOUND('',#496,.T.);
#543=FACE_BOUND('',#497,.T.);
#544=FACE_BOUND('',#498,.T.);
#545=FACE_BOUND('',#499,.T.);
#546=FACE_BOUND('',#500,.T.);
#547=FACE_BOUND('',#501,.T.);
#548=FACE_BOUND('',#502,.T.);
#549=FACE_BOUND('',#503,.T.);
#550=FACE_BOUND('',#504,.T.);
#551=FACE_BOUND('',#505,.T.);
#552=FACE_BOUND('',#506,.T.);
#553=FACE_BOUND('',#507,.T.);
#554=CYLINDRICAL_SURFACE('',#621,3.6);
#555=CYLINDRICAL_SURFACE('',#624,3.6);
#556=CYLINDRICAL_SURFACE('',#665,2.4);
#557=CYLINDRICAL_SURFACE('',#668,2.4);
#558=CYLINDRICAL_SURFACE('',#671,2.4);
#559=CYLINDRICAL_SURFACE('',#674,2.4);
#560=CYLINDRICAL_SURFACE('',#675,0.5);
#561=CYLINDRICAL_SURFACE('',#676,0.5);
#562=CYLINDRICAL_SURFACE('',#677,0.5);
#563=CYLINDRICAL_SURFACE('',#678,0.5);
#564=CYLINDRICAL_SURFACE('',#679,0.1);
#565=CYLINDRICAL_SURFACE('',#680,0.1);
#566=CYLINDRICAL_SURFACE('',#681,0.1);
#567=CYLINDRICAL_SURFACE('',#682,0.1);
#568=CYLINDRICAL_SURFACE('',#683,0.1);
#569=CYLINDRICAL_SURFACE('',#684,0.1);
#570=CYLINDRICAL_SURFACE('',#685,0.1);
#571=CYLINDRICAL_SURFACE('',#686,0.1);
#572=CYLINDRICAL_SURFACE('',#690,2.75);
#573=ADVANCED_FACE('',(#508,#509),#554,.T.);
#574=ADVANCED_FACE('',(#510,#511),#555,.T.);
#575=ADVANCED_FACE('',(#512,#513),#106,.T.);
#576=ADVANCED_FACE('',(#514,#515),#107,.F.);
#577=ADVANCED_FACE('',(#516),#108,.F.);
#578=ADVANCED_FACE('',(#517),#109,.F.);
#579=ADVANCED_FACE('',(#518),#556,.F.);
#580=ADVANCED_FACE('',(#519),#110,.F.);
#581=ADVANCED_FACE('',(#520),#111,.F.);
#582=ADVANCED_FACE('',(#521),#557,.F.);
#583=ADVANCED_FACE('',(#522),#112,.F.);
#584=ADVANCED_FACE('',(#523),#113,.F.);
#585=ADVANCED_FACE('',(#524),#558,.F.);
#586=ADVANCED_FACE('',(#525),#114,.F.);
#587=ADVANCED_FACE('',(#526),#115,.F.);
#588=ADVANCED_FACE('',(#527),#559,.F.);
#589=ADVANCED_FACE('',(#528),#560,.T.);
#590=ADVANCED_FACE('',(#529),#561,.T.);
#591=ADVANCED_FACE('',(#530),#562,.T.);
#592=ADVANCED_FACE('',(#531),#563,.T.);
#593=ADVANCED_FACE('',(#532),#564,.F.);
#594=ADVANCED_FACE('',(#533),#565,.F.);
#595=ADVANCED_FACE('',(#534),#566,.F.);
#596=ADVANCED_FACE('',(#535),#567,.F.);
#597=ADVANCED_FACE('',(#536),#568,.F.);
#598=ADVANCED_FACE('',(#537),#569,.F.);
#599=ADVANCED_FACE('',(#538),#570,.F.);
#600=ADVANCED_FACE('',(#539),#571,.F.);
#601=ADVANCED_FACE('',(#540,#541),#24,.T.);
#602=ADVANCED_FACE('',(#542,#543),#572,.T.);
#603=ADVANCED_FACE('',(#544,#545),#25,.T.);
#604=ADVANCED_FACE('',(#546,#547),#20,.T.);
#605=ADVANCED_FACE('',(#548,#549),#21,.T.);
#606=ADVANCED_FACE('',(#550,#551),#22,.T.);
#607=ADVANCED_FACE('',(#552,#553),#23,.T.);
#608=CLOSED_SHELL('',(#573,#574,#575,#576,#577,#578,#579,#580,#581,#582,
#583,#584,#585,#586,#587,#588,#589,#590,#591,#592,#593,#594,#595,#596,#597,
#598,#599,#600,#601,#602,#603,#604,#605,#606,#607));
#609=STYLED_ITEM('',(#610),#617);
#610=PRESENTATION_STYLE_ASSIGNMENT((#611));
#611=SURFACE_STYLE_USAGE(.BOTH.,#612);
#612=SURFACE_SIDE_STYLE('',(#613));
#613=SURFACE_STYLE_FILL_AREA(#614);
#614=FILL_AREA_STYLE('',(#615));
#615=FILL_AREA_STYLE_COLOUR('',#616);
#616=COLOUR_RGB('',0.506983280181885,0.531564235687256,0.550000011920929);
#617=MANIFOLD_SOLID_BREP('',#608);
#618=SHAPE_DEFINITION_REPRESENTATION(#1076,#619);
#619=SHAPE_REPRESENTATION('ClGray_4211573_JCA',(#620),#1071);
#620=AXIS2_PLACEMENT_3D('',#894,#698,#699);
#621=AXIS2_PLACEMENT_3D('',#895,#700,#701);
#622=AXIS2_PLACEMENT_3D('',#896,#702,#703);
#623=AXIS2_PLACEMENT_3D('',#898,#704,#705);
#624=AXIS2_PLACEMENT_3D('',#900,#706,#707);
#625=AXIS2_PLACEMENT_3D('',#901,#708,#709);
#626=AXIS2_PLACEMENT_3D('',#903,#710,#711);
#627=AXIS2_PLACEMENT_3D('',#905,#712,#713);
#628=AXIS2_PLACEMENT_3D('',#906,#714,#715);
#629=AXIS2_PLACEMENT_3D('',#911,#717,#718);
#630=AXIS2_PLACEMENT_3D('',#915,#720,#721);
#631=AXIS2_PLACEMENT_3D('',#917,#722,#723);
#632=AXIS2_PLACEMENT_3D('',#919,#724,#725);
#633=AXIS2_PLACEMENT_3D('',#923,#727,#728);
#634=AXIS2_PLACEMENT_3D('',#927,#730,#731);
#635=AXIS2_PLACEMENT_3D('',#929,#732,#733);
#636=AXIS2_PLACEMENT_3D('',#931,#734,#735);
#637=AXIS2_PLACEMENT_3D('',#935,#737,#738);
#638=AXIS2_PLACEMENT_3D('',#939,#740,#741);
#639=AXIS2_PLACEMENT_3D('',#941,#742,#743);
#640=AXIS2_PLACEMENT_3D('',#943,#744,#745);
#641=AXIS2_PLACEMENT_3D('',#947,#747,#748);
#642=AXIS2_PLACEMENT_3D('',#951,#750,#751);
#643=AXIS2_PLACEMENT_3D('',#953,#752,#753);
#644=AXIS2_PLACEMENT_3D('',#955,#754,#755);
#645=AXIS2_PLACEMENT_3D('',#956,#756,#757);
#646=AXIS2_PLACEMENT_3D('',#957,#758,#759);
#647=AXIS2_PLACEMENT_3D('',#962,#761,#762);
#648=AXIS2_PLACEMENT_3D('',#966,#764,#765);
#649=AXIS2_PLACEMENT_3D('',#968,#766,#767);
#650=AXIS2_PLACEMENT_3D('',#970,#768,#769);
#651=AXIS2_PLACEMENT_3D('',#974,#771,#772);
#652=AXIS2_PLACEMENT_3D('',#978,#774,#775);
#653=AXIS2_PLACEMENT_3D('',#980,#776,#777);
#654=AXIS2_PLACEMENT_3D('',#982,#778,#779);
#655=AXIS2_PLACEMENT_3D('',#986,#781,#782);
#656=AXIS2_PLACEMENT_3D('',#990,#784,#785);
#657=AXIS2_PLACEMENT_3D('',#992,#786,#787);
#658=AXIS2_PLACEMENT_3D('',#994,#788,#789);
#659=AXIS2_PLACEMENT_3D('',#998,#791,#792);
#660=AXIS2_PLACEMENT_3D('',#1002,#794,#795);
#661=AXIS2_PLACEMENT_3D('',#1004,#796,#797);
#662=AXIS2_PLACEMENT_3D('',#1006,#798,#799);
#663=AXIS2_PLACEMENT_3D('',#1007,#800,#801);
#664=AXIS2_PLACEMENT_3D('',#1010,#804,#805);
#665=AXIS2_PLACEMENT_3D('',#1013,#808,#809);
#666=AXIS2_PLACEMENT_3D('',#1016,#812,#813);
#667=AXIS2_PLACEMENT_3D('',#1019,#816,#817);
#668=AXIS2_PLACEMENT_3D('',#1022,#820,#821);
#669=AXIS2_PLACEMENT_3D('',#1025,#824,#825);
#670=AXIS2_PLACEMENT_3D('',#1028,#828,#829);
#671=AXIS2_PLACEMENT_3D('',#1031,#832,#833);
#672=AXIS2_PLACEMENT_3D('',#1034,#836,#837);
#673=AXIS2_PLACEMENT_3D('',#1037,#840,#841);
#674=AXIS2_PLACEMENT_3D('',#1040,#844,#845);
#675=AXIS2_PLACEMENT_3D('',#1043,#848,#849);
#676=AXIS2_PLACEMENT_3D('',#1044,#850,#851);
#677=AXIS2_PLACEMENT_3D('',#1045,#852,#853);
#678=AXIS2_PLACEMENT_3D('',#1046,#854,#855);
#679=AXIS2_PLACEMENT_3D('',#1047,#856,#857);
#680=AXIS2_PLACEMENT_3D('',#1048,#858,#859);
#681=AXIS2_PLACEMENT_3D('',#1049,#860,#861);
#682=AXIS2_PLACEMENT_3D('',#1050,#862,#863);
#683=AXIS2_PLACEMENT_3D('',#1051,#864,#865);
#684=AXIS2_PLACEMENT_3D('',#1052,#866,#867);
#685=AXIS2_PLACEMENT_3D('',#1053,#868,#869);
#686=AXIS2_PLACEMENT_3D('',#1054,#870,#871);
#687=AXIS2_PLACEMENT_3D('',#1055,#872,#873);
#688=AXIS2_PLACEMENT_3D('',#1056,#874,#875);
#689=AXIS2_PLACEMENT_3D('',#1058,#876,#877);
#690=AXIS2_PLACEMENT_3D('',#1060,#878,#879);
#691=AXIS2_PLACEMENT_3D('',#1061,#880,#881);
#692=AXIS2_PLACEMENT_3D('',#1063,#882,#883);
#693=AXIS2_PLACEMENT_3D('',#1064,#884,#885);
#694=AXIS2_PLACEMENT_3D('',#1066,#886,#887);
#695=AXIS2_PLACEMENT_3D('',#1067,#888,#889);
#696=AXIS2_PLACEMENT_3D('',#1068,#890,#891);
#697=AXIS2_PLACEMENT_3D('',#1069,#892,#893);
#698=DIRECTION('',(0.,0.,1.));
#699=DIRECTION('',(1.,0.,0.));
#700=DIRECTION('',(0.,-1.,0.));
#701=DIRECTION('',(0.,0.,-1.));
#702=DIRECTION('',(0.,1.,0.));
#703=DIRECTION('',(0.,0.,1.));
#704=DIRECTION('',(3.06151588455594E-17,1.,3.06151588455594E-17));
#705=DIRECTION('',(0.,-3.06151588455594E-17,1.));
#706=DIRECTION('',(0.,-1.,0.));
#707=DIRECTION('',(0.,0.,-1.));
#708=DIRECTION('',(3.06151588455594E-17,1.,3.06151588455594E-17));
#709=DIRECTION('',(0.,-3.06151588455594E-17,1.));
#710=DIRECTION('',(0.,1.,0.));
#711=DIRECTION('',(0.,0.,1.));
#712=DIRECTION('',(0.,1.,0.));
#713=DIRECTION('',(0.,0.,1.));
#714=DIRECTION('',(0.,1.,0.));
#715=DIRECTION('',(0.,0.,1.));
#716=DIRECTION('',(-1.,0.,-8.1835253831517E-17));
#717=DIRECTION('',(0.,1.,0.));
#718=DIRECTION('',(0.,0.,1.));
#719=DIRECTION('',(0.,0.,1.));
#720=DIRECTION('',(0.,1.,0.));
#721=DIRECTION('',(0.,0.,1.));
#722=DIRECTION('',(0.,1.,0.));
#723=DIRECTION('',(0.,0.,1.));
#724=DIRECTION('',(0.,1.,0.));
#725=DIRECTION('',(0.,0.,1.));
#726=DIRECTION('',(8.1835253831517E-17,0.,-1.));
#727=DIRECTION('',(0.,1.,0.));
#728=DIRECTION('',(0.,0.,1.));
#729=DIRECTION('',(-1.,0.,0.));
#730=DIRECTION('',(0.,1.,0.));
#731=DIRECTION('',(0.,0.,1.));
#732=DIRECTION('',(0.,1.,0.));
#733=DIRECTION('',(0.,0.,1.));
#734=DIRECTION('',(0.,1.,0.));
#735=DIRECTION('',(0.,0.,1.));
#736=DIRECTION('',(1.,0.,8.1835253831517E-17));
#737=DIRECTION('',(0.,1.,0.));
#738=DIRECTION('',(0.,0.,1.));
#739=DIRECTION('',(0.,0.,-1.));
#740=DIRECTION('',(0.,1.,0.));
#741=DIRECTION('',(0.,0.,1.));
#742=DIRECTION('',(0.,1.,0.));
#743=DIRECTION('',(0.,0.,1.));
#744=DIRECTION('',(0.,1.,0.));
#745=DIRECTION('',(0.,0.,1.));
#746=DIRECTION('',(-1.63670507663034E-16,0.,1.));
#747=DIRECTION('',(0.,1.,0.));
#748=DIRECTION('',(0.,0.,1.));
#749=DIRECTION('',(1.,0.,0.));
#750=DIRECTION('',(0.,1.,0.));
#751=DIRECTION('',(0.,0.,1.));
#752=DIRECTION('',(0.,1.,0.));
#753=DIRECTION('',(0.,0.,1.));
#754=DIRECTION('',(0.,1.,0.));
#755=DIRECTION('',(0.,0.,1.));
#756=DIRECTION('',(0.,1.,0.));
#757=DIRECTION('',(0.,0.,1.));
#758=DIRECTION('',(0.,1.,0.));
#759=DIRECTION('',(0.,0.,1.));
#760=DIRECTION('',(0.,0.,-1.));
#761=DIRECTION('',(0.,1.,0.));
#762=DIRECTION('',(0.,0.,1.));
#763=DIRECTION('',(1.,0.,8.1835253831517E-17));
#764=DIRECTION('',(0.,1.,0.));
#765=DIRECTION('',(0.,0.,1.));
#766=DIRECTION('',(0.,-1.,0.));
#767=DIRECTION('',(1.,0.,0.));
#768=DIRECTION('',(0.,1.,0.));
#769=DIRECTION('',(0.,0.,1.));
#770=DIRECTION('',(-1.,0.,0.));
#771=DIRECTION('',(0.,1.,0.));
#772=DIRECTION('',(0.,0.,1.));
#773=DIRECTION('',(1.63670507663034E-16,0.,-1.));
#774=DIRECTION('',(0.,1.,0.));
#775=DIRECTION('',(0.,0.,1.));
#776=DIRECTION('',(0.,-1.,0.));
#777=DIRECTION('',(1.,0.,0.));
#778=DIRECTION('',(0.,1.,0.));
#779=DIRECTION('',(0.,0.,1.));
#780=DIRECTION('',(0.,0.,1.));
#781=DIRECTION('',(0.,1.,0.));
#782=DIRECTION('',(0.,0.,1.));
#783=DIRECTION('',(-1.,0.,-8.1835253831517E-17));
#784=DIRECTION('',(0.,1.,0.));
#785=DIRECTION('',(0.,0.,1.));
#786=DIRECTION('',(0.,-1.,0.));
#787=DIRECTION('',(-1.,0.,0.));
#788=DIRECTION('',(0.,1.,0.));
#789=DIRECTION('',(0.,0.,1.));
#790=DIRECTION('',(1.,0.,0.));
#791=DIRECTION('',(0.,1.,0.));
#792=DIRECTION('',(0.,0.,1.));
#793=DIRECTION('',(-8.1835253831517E-17,0.,1.));
#794=DIRECTION('',(0.,1.,0.));
#795=DIRECTION('',(0.,0.,1.));
#796=DIRECTION('',(0.,-1.,0.));
#797=DIRECTION('',(1.,0.,0.));
#798=DIRECTION('',(0.,1.,0.));
#799=DIRECTION('',(0.,0.,1.));
#800=DIRECTION('',(-8.1835253831517E-17,0.,1.));
#801=DIRECTION('',(1.,0.,8.1835253831517E-17));
#802=DIRECTION('',(0.,1.,0.));
#803=DIRECTION('',(0.,-1.,0.));
#804=DIRECTION('',(1.,0.,0.));
#805=DIRECTION('',(0.,0.,-1.));
#806=DIRECTION('',(0.,1.,0.));
#807=DIRECTION('',(0.,-1.,0.));
#808=DIRECTION('',(0.,-1.,0.));
#809=DIRECTION('',(0.,0.,-1.));
#810=DIRECTION('',(0.,-1.,0.));
#811=DIRECTION('',(0.,-1.,0.));
#812=DIRECTION('',(-1.,0.,-1.63670507663034E-16));
#813=DIRECTION('',(-1.63670507663034E-16,0.,1.));
#814=DIRECTION('',(0.,1.,0.));
#815=DIRECTION('',(0.,-1.,0.));
#816=DIRECTION('',(0.,0.,1.));
#817=DIRECTION('',(1.,0.,0.));
#818=DIRECTION('',(0.,1.,0.));
#819=DIRECTION('',(0.,-1.,0.));
#820=DIRECTION('',(0.,-1.,0.));
#821=DIRECTION('',(0.,0.,-1.));
#822=DIRECTION('',(0.,-1.,0.));
#823=DIRECTION('',(0.,-1.,0.));
#824=DIRECTION('',(8.1835253831517E-17,0.,-1.));
#825=DIRECTION('',(-1.,0.,-8.1835253831517E-17));
#826=DIRECTION('',(0.,1.,0.));
#827=DIRECTION('',(0.,-1.,0.));
#828=DIRECTION('',(-1.,0.,0.));
#829=DIRECTION('',(0.,0.,1.));
#830=DIRECTION('',(0.,1.,0.));
#831=DIRECTION('',(0.,-1.,0.));
#832=DIRECTION('',(0.,-1.,0.));
#833=DIRECTION('',(0.,0.,-1.));
#834=DIRECTION('',(0.,-1.,0.));
#835=DIRECTION('',(0.,-1.,0.));
#836=DIRECTION('',(1.,0.,8.1835253831517E-17));
#837=DIRECTION('',(8.1835253831517E-17,0.,-1.));
#838=DIRECTION('',(0.,1.,0.));
#839=DIRECTION('',(0.,-1.,0.));
#840=DIRECTION('',(0.,0.,-1.));
#841=DIRECTION('',(-1.,0.,0.));
#842=DIRECTION('',(0.,1.,0.));
#843=DIRECTION('',(0.,-1.,0.));
#844=DIRECTION('',(0.,-1.,0.));
#845=DIRECTION('',(0.,0.,-1.));
#846=DIRECTION('',(0.,-1.,0.));
#847=DIRECTION('',(0.,-1.,0.));
#848=DIRECTION('',(0.,-1.,0.));
#849=DIRECTION('',(0.,0.,-1.));
#850=DIRECTION('',(0.,-1.,0.));
#851=DIRECTION('',(0.,0.,-1.));
#852=DIRECTION('',(0.,-1.,0.));
#853=DIRECTION('',(0.,0.,-1.));
#854=DIRECTION('',(0.,-1.,0.));
#855=DIRECTION('',(0.,0.,-1.));
#856=DIRECTION('',(0.,-1.,0.));
#857=DIRECTION('',(0.,0.,-1.));
#858=DIRECTION('',(0.,-1.,0.));
#859=DIRECTION('',(0.,0.,-1.));
#860=DIRECTION('',(0.,-1.,0.));
#861=DIRECTION('',(0.,0.,-1.));
#862=DIRECTION('',(0.,-1.,0.));
#863=DIRECTION('',(0.,0.,-1.));
#864=DIRECTION('',(0.,-1.,0.));
#865=DIRECTION('',(0.,0.,-1.));
#866=DIRECTION('',(0.,-1.,0.));
#867=DIRECTION('',(0.,0.,-1.));
#868=DIRECTION('',(0.,-1.,0.));
#869=DIRECTION('',(0.,0.,-1.));
#870=DIRECTION('',(0.,-1.,0.));
#871=DIRECTION('',(0.,0.,-1.));
#872=DIRECTION('',(-6.12303176911189E-17,-1.,-6.12303176911189E-17));
#873=DIRECTION('',(0.,6.12303176911189E-17,-1.));
#874=DIRECTION('',(-6.12303176911189E-17,-1.,-6.12303176911189E-17));
#875=DIRECTION('',(0.,6.12303176911189E-17,-1.));
#876=DIRECTION('',(-6.12303176911189E-17,-1.,-6.12303176911189E-17));
#877=DIRECTION('',(0.,6.12303176911189E-17,-1.));
#878=DIRECTION('',(-6.12303176911189E-17,-1.,-6.12303176911189E-17));
#879=DIRECTION('',(0.,6.12303176911189E-17,-1.));
#880=DIRECTION('',(-6.12303176911189E-17,-1.,-6.12303176911189E-17));
#881=DIRECTION('',(0.,6.12303176911189E-17,-1.));
#882=DIRECTION('',(6.12303176911189E-17,1.,6.12303176911189E-17));
#883=DIRECTION('',(0.,-6.12303176911189E-17,1.));
#884=DIRECTION('',(6.12303176911189E-17,1.,6.12303176911189E-17));
#885=DIRECTION('',(0.,-6.12303176911189E-17,1.));
#886=DIRECTION('',(3.06151588455594E-17,1.,3.06151588455594E-17));
#887=DIRECTION('',(0.,-3.06151588455594E-17,1.));
#888=DIRECTION('',(0.,1.,0.));
#889=DIRECTION('',(0.,0.,1.));
#890=DIRECTION('',(0.,1.,0.));
#891=DIRECTION('',(0.,0.,1.));
#892=DIRECTION('',(3.06151588455594E-17,1.,3.06151588455594E-17));
#893=DIRECTION('',(0.,-3.06151588455594E-17,1.));
#894=CARTESIAN_POINT('',(0.,0.,0.));
#895=CARTESIAN_POINT('',(0.,4.,0.));
#896=CARTESIAN_POINT('',(0.,0.0999999999999998,0.));
#897=CARTESIAN_POINT('',(0.,0.0999999999999998,3.6));
#898=CARTESIAN_POINT('',(0.,0.916090036882273,0.));
#899=CARTESIAN_POINT('',(0.,0.916090036882273,3.6));
#900=CARTESIAN_POINT('',(0.,4.,0.));
#901=CARTESIAN_POINT('',(0.,3.08390996311773,0.));
#902=CARTESIAN_POINT('',(0.,3.08390996311773,3.6));
#903=CARTESIAN_POINT('',(0.,3.9,0.));
#904=CARTESIAN_POINT('',(0.,3.9,3.6));
#905=CARTESIAN_POINT('',(0.,4.,0.));
#906=CARTESIAN_POINT('',(0.,4.,0.));
#907=CARTESIAN_POINT('',(0.,4.,3.5));
#908=CARTESIAN_POINT('',(7.36517284483653E-17,4.,-0.9));
#909=CARTESIAN_POINT('',(-1.4,4.,-0.9));
#910=CARTESIAN_POINT('',(-2.15638586528478,4.,-0.9));
#911=CARTESIAN_POINT('',(-1.4,4.,-1.4));
#912=CARTESIAN_POINT('',(-0.9,4.,-1.4));
#913=CARTESIAN_POINT('',(-0.9,4.,0.));
#914=CARTESIAN_POINT('',(-0.9,4.,-2.15638586528478));
#915=CARTESIAN_POINT('',(-0.8,4.,-2.15638586528478));
#916=CARTESIAN_POINT('',(-0.834782608695652,4.,-2.25014177247108));
#917=CARTESIAN_POINT('',(0.,4.,0.));
#918=CARTESIAN_POINT('',(0.834782608695652,4.,-2.25014177247108));
#919=CARTESIAN_POINT('',(0.8,4.,-2.15638586528478));
#920=CARTESIAN_POINT('',(0.9,4.,-2.15638586528478));
#921=CARTESIAN_POINT('',(0.9,4.,7.36517284483653E-17));
#922=CARTESIAN_POINT('',(0.9,4.,-1.4));
#923=CARTESIAN_POINT('',(1.4,4.,-1.4));
#924=CARTESIAN_POINT('',(1.4,4.,-0.9));
#925=CARTESIAN_POINT('',(0.,4.,-0.9));
#926=CARTESIAN_POINT('',(2.15638586528478,4.,-0.9));
#927=CARTESIAN_POINT('',(2.15638586528478,4.,-0.8));
#928=CARTESIAN_POINT('',(2.25014177247108,4.,-0.834782608695652));
#929=CARTESIAN_POINT('',(0.,4.,0.));
#930=CARTESIAN_POINT('',(2.25014177247108,4.,0.834782608695652));
#931=CARTESIAN_POINT('',(2.15638586528478,4.,0.8));
#932=CARTESIAN_POINT('',(2.15638586528478,4.,0.9));
#933=CARTESIAN_POINT('',(-7.36517284483653E-17,4.,0.9));
#934=CARTESIAN_POINT('',(1.4,4.,0.9));
#935=CARTESIAN_POINT('',(1.4,4.,1.4));
#936=CARTESIAN_POINT('',(0.9,4.,1.4));
#937=CARTESIAN_POINT('',(0.9,4.,0.));
#938=CARTESIAN_POINT('',(0.9,4.,2.15638586528478));
#939=CARTESIAN_POINT('',(0.8,4.,2.15638586528478));
#940=CARTESIAN_POINT('',(0.834782608695652,4.,2.25014177247108));
#941=CARTESIAN_POINT('',(0.,4.,0.));
#942=CARTESIAN_POINT('',(-0.834782608695652,4.,2.25014177247108));
#943=CARTESIAN_POINT('',(-0.8,4.,2.15638586528478));
#944=CARTESIAN_POINT('',(-0.9,4.,2.15638586528478));
#945=CARTESIAN_POINT('',(-0.9,4.,-1.47303456896731E-16));
#946=CARTESIAN_POINT('',(-0.9,4.,1.4));
#947=CARTESIAN_POINT('',(-1.4,4.,1.4));
#948=CARTESIAN_POINT('',(-1.4,4.,0.9));
#949=CARTESIAN_POINT('',(0.,4.,0.9));
#950=CARTESIAN_POINT('',(-2.15638586528478,4.,0.9));
#951=CARTESIAN_POINT('',(-2.15638586528478,4.,0.8));
#952=CARTESIAN_POINT('',(-2.25014177247108,4.,0.834782608695652));
#953=CARTESIAN_POINT('',(0.,4.,0.));
#954=CARTESIAN_POINT('',(-2.25014177247108,4.,-0.834782608695652));
#955=CARTESIAN_POINT('',(-2.15638586528478,4.,-0.8));
#956=CARTESIAN_POINT('',(0.,0.,0.));
#957=CARTESIAN_POINT('',(0.,0.,0.));
#958=CARTESIAN_POINT('',(0.,0.,3.5));
#959=CARTESIAN_POINT('',(-0.9,0.,-0.9));
#960=CARTESIAN_POINT('',(-0.9,0.,-1.4));
#961=CARTESIAN_POINT('',(-0.9,0.,-2.15638586528478));
#962=CARTESIAN_POINT('',(-1.4,0.,-1.4));
#963=CARTESIAN_POINT('',(-1.4,0.,-0.9));
#964=CARTESIAN_POINT('',(-2.2248595461287,0.,-0.9));
#965=CARTESIAN_POINT('',(-2.15638586528478,0.,-0.9));
#966=CARTESIAN_POINT('',(-2.15638586528478,0.,-0.8));
#967=CARTESIAN_POINT('',(-2.25014177247108,0.,-0.834782608695652));
#968=CARTESIAN_POINT('',(0.,0.,0.));
#969=CARTESIAN_POINT('',(-2.25014177247108,0.,0.834782608695652));
#970=CARTESIAN_POINT('',(-2.15638586528478,0.,0.8));
#971=CARTESIAN_POINT('',(-2.15638586528478,0.,0.9));
#972=CARTESIAN_POINT('',(-0.9,0.,0.9));
#973=CARTESIAN_POINT('',(-1.4,0.,0.9));
#974=CARTESIAN_POINT('',(-1.4,0.,1.4));
#975=CARTESIAN_POINT('',(-0.9,0.,1.4));
#976=CARTESIAN_POINT('',(-0.9,0.,2.2248595461287));
#977=CARTESIAN_POINT('',(-0.9,0.,2.15638586528478));
#978=CARTESIAN_POINT('',(-0.8,0.,2.15638586528478));
#979=CARTESIAN_POINT('',(-0.834782608695652,0.,2.25014177247108));
#980=CARTESIAN_POINT('',(0.,0.,0.));
#981=CARTESIAN_POINT('',(0.834782608695652,0.,2.25014177247108));
#982=CARTESIAN_POINT('',(0.8,0.,2.15638586528478));
#983=CARTESIAN_POINT('',(0.9,0.,2.15638586528478));
#984=CARTESIAN_POINT('',(0.9,0.,0.9));
#985=CARTESIAN_POINT('',(0.9,0.,1.4));
#986=CARTESIAN_POINT('',(1.4,0.,1.4));
#987=CARTESIAN_POINT('',(1.4,0.,0.9));
#988=CARTESIAN_POINT('',(2.2248595461287,0.,0.9));
#989=CARTESIAN_POINT('',(2.15638586528478,0.,0.9));
#990=CARTESIAN_POINT('',(2.15638586528478,0.,0.8));
#991=CARTESIAN_POINT('',(2.25014177247108,0.,0.834782608695652));
#992=CARTESIAN_POINT('',(0.,0.,0.));
#993=CARTESIAN_POINT('',(2.25014177247108,0.,-0.834782608695652));
#994=CARTESIAN_POINT('',(2.15638586528478,0.,-0.8));
#995=CARTESIAN_POINT('',(2.15638586528478,0.,-0.9));
#996=CARTESIAN_POINT('',(0.9,0.,-0.9));
#997=CARTESIAN_POINT('',(1.4,0.,-0.9));
#998=CARTESIAN_POINT('',(1.4,0.,-1.4));
#999=CARTESIAN_POINT('',(0.9,0.,-1.4));
#1000=CARTESIAN_POINT('',(0.9,0.,-2.2248595461287));
#1001=CARTESIAN_POINT('',(0.9,0.,-2.15638586528478));
#1002=CARTESIAN_POINT('',(0.8,0.,-2.15638586528478));
#1003=CARTESIAN_POINT('',(0.834782608695652,0.,-2.25014177247108));
#1004=CARTESIAN_POINT('',(0.,0.,0.));
#1005=CARTESIAN_POINT('',(-0.834782608695652,0.,-2.25014177247108));
#1006=CARTESIAN_POINT('',(-0.8,0.,-2.15638586528478));
#1007=CARTESIAN_POINT('',(2.2248595461287,15.,0.9));
#1008=CARTESIAN_POINT('',(2.15638586528478,0.,0.9));
#1009=CARTESIAN_POINT('',(1.4,15.,0.9));
#1010=CARTESIAN_POINT('',(0.9,15.,0.9));
#1011=CARTESIAN_POINT('',(0.9,4.,2.15638586528478));
#1012=CARTESIAN_POINT('',(0.9,15.,1.4));
#1013=CARTESIAN_POINT('',(0.,15.,0.));
#1014=CARTESIAN_POINT('',(0.834782608695652,15.,2.25014177247108));
#1015=CARTESIAN_POINT('',(-0.834782608695653,15.,2.25014177247108));
#1016=CARTESIAN_POINT('',(-0.9,15.,2.2248595461287));
#1017=CARTESIAN_POINT('',(-0.9,0.,2.15638586528478));
#1018=CARTESIAN_POINT('',(-0.9,15.,1.4));
#1019=CARTESIAN_POINT('',(-0.9,15.,0.9));
#1020=CARTESIAN_POINT('',(-2.15638586528478,4.,0.9));
#1021=CARTESIAN_POINT('',(-1.4,15.,0.9));
#1022=CARTESIAN_POINT('',(0.,15.,0.));
#1023=CARTESIAN_POINT('',(-2.25014177247108,15.,0.834782608695652));
#1024=CARTESIAN_POINT('',(-2.25014177247108,15.,-0.834782608695652));
#1025=CARTESIAN_POINT('',(-2.2248595461287,15.,-0.9));
#1026=CARTESIAN_POINT('',(-2.15638586528478,0.,-0.9));
#1027=CARTESIAN_POINT('',(-1.4,15.,-0.9));
#1028=CARTESIAN_POINT('',(-0.9,15.,-0.9));
#1029=CARTESIAN_POINT('',(-0.9,4.,-2.15638586528478));
#1030=CARTESIAN_POINT('',(-0.9,15.,-1.4));
#1031=CARTESIAN_POINT('',(0.,15.,0.));
#1032=CARTESIAN_POINT('',(0.834782608695652,15.,-2.25014177247108));
#1033=CARTESIAN_POINT('',(-0.834782608695652,15.,-2.25014177247108));
#1034=CARTESIAN_POINT('',(0.9,15.,-2.2248595461287));
#1035=CARTESIAN_POINT('',(0.9,0.,-2.15638586528478));
#1036=CARTESIAN_POINT('',(0.9,15.,-1.4));
#1037=CARTESIAN_POINT('',(0.9,15.,-0.9));
#1038=CARTESIAN_POINT('',(2.15638586528478,4.,-0.9));
#1039=CARTESIAN_POINT('',(1.4,15.,-0.9));
#1040=CARTESIAN_POINT('',(0.,15.,0.));
#1041=CARTESIAN_POINT('',(2.25014177247108,15.,0.834782608695652));
#1042=CARTESIAN_POINT('',(2.25014177247108,15.,-0.834782608695652));
#1043=CARTESIAN_POINT('',(-1.4,15.,1.4));
#1044=CARTESIAN_POINT('',(1.4,15.,1.4));
#1045=CARTESIAN_POINT('',(1.4,15.,-1.4));
#1046=CARTESIAN_POINT('',(-1.4,15.,-1.4));
#1047=CARTESIAN_POINT('',(-0.8,15.,2.15638586528478));
#1048=CARTESIAN_POINT('',(-2.15638586528478,15.,-0.8));
#1049=CARTESIAN_POINT('',(-0.8,15.,-2.15638586528478));
#1050=CARTESIAN_POINT('',(0.8,15.,-2.15638586528478));
#1051=CARTESIAN_POINT('',(2.15638586528478,15.,-0.8));
#1052=CARTESIAN_POINT('',(2.15638586528478,15.,0.8));
#1053=CARTESIAN_POINT('',(0.8,15.,2.15638586528478));
#1054=CARTESIAN_POINT('',(-2.15638586528478,15.,0.8));
#1055=CARTESIAN_POINT('',(6.12303176911193E-17,1.,3.73504937915825E-15));
#1056=CARTESIAN_POINT('',(-1.48614916932729E-17,1.0145708121835,1.82204803904029E-15));
#1057=CARTESIAN_POINT('',(-1.48614916932729E-17,1.0145708121835,-3.51736481776669));
#1058=CARTESIAN_POINT('',(7.04073911804702E-17,1.1498779336022,3.7442264526476E-15));
#1059=CARTESIAN_POINT('',(7.04073911804702E-17,1.1498779336022,-2.74999999999999));
#1060=CARTESIAN_POINT('',(-3.67381906146713E-15,-60.,0.));
#1061=CARTESIAN_POINT('',(1.74513879584005E-16,2.8501220663978,3.84833294105114E-15));
#1062=CARTESIAN_POINT('',(1.74513879584005E-16,2.8501220663978,-2.74999999999999));
#1063=CARTESIAN_POINT('',(1.74513879584005E-16,2.8501220663978,3.84833294105114E-15));
#1064=CARTESIAN_POINT('',(7.37975410120543E-17,2.98542918781651,1.91070707174562E-15));
#1065=CARTESIAN_POINT('',(7.37975410120543E-17,2.98542918781651,3.5173648177667));
#1066=CARTESIAN_POINT('',(-1.78764962723538E-17,0.916090036882273,1.81903303446121E-15));
#1067=CARTESIAN_POINT('',(0.,0.0999999999999998,0.));
#1068=CARTESIAN_POINT('',(0.,3.9,0.));
#1069=CARTESIAN_POINT('',(7.6812545591135E-17,3.08390996311773,1.9137220763247E-15));
#1070=MECHANICAL_DESIGN_GEOMETRIC_PRESENTATION_REPRESENTATION('',(#609),
#1071);
#1071=(
GEOMETRIC_REPRESENTATION_CONTEXT(3)
GLOBAL_UNCERTAINTY_ASSIGNED_CONTEXT((#1072))
GLOBAL_UNIT_ASSIGNED_CONTEXT((#1075,#1074,#1073))
REPRESENTATION_CONTEXT('ClGray_4211573_JCA','TOP_LEVEL_ASSEMBLY_PART')
);
#1072=UNCERTAINTY_MEASURE_WITH_UNIT(LENGTH_MEASURE(0.005),#1075,
'DISTANCE_ACCURACY_VALUE','Maximum Tolerance applied to model');
#1073=(
NAMED_UNIT(*)
SI_UNIT($,.STERADIAN.)
SOLID_ANGLE_UNIT()
);
#1074=(
NAMED_UNIT(*)
PLANE_ANGLE_UNIT()
SI_UNIT($,.RADIAN.)
);
#1075=(
LENGTH_UNIT()
NAMED_UNIT(*)
SI_UNIT(.MILLI.,.METRE.)
);
#1076=PRODUCT_DEFINITION_SHAPE('','',#1077);
#1077=PRODUCT_DEFINITION('','',#1079,#1078);
#1078=PRODUCT_DEFINITION_CONTEXT('',#1085,'design');
#1079=PRODUCT_DEFINITION_FORMATION_WITH_SPECIFIED_SOURCE('','',#1081,
 .NOT_KNOWN.);
#1080=PRODUCT_RELATED_PRODUCT_CATEGORY('','',(#1081));
#1081=PRODUCT('ClGray_4211573_JCA','ClGray_4211573_JCA',
'ClGray_4211573_JCA',(#1083));
#1082=PRODUCT_CATEGORY('','');
#1083=PRODUCT_CONTEXT('',#1085,'mechanical');
#1084=APPLICATION_PROTOCOL_DEFINITION('international standard',
'automotive_design',2010,#1085);
#1085=APPLICATION_CONTEXT(
'core data for automotive mechanical design processes');
ENDSEC;
END-ISO-10303-21;
