ISO-10303-21;
HEADER;
/* Generated by software containing ST-Developer
 * from STEP Tools, Inc. (www.steptools.com) 
 */
/* OPTION: strings as raw bytes, not using required /X/ escapes */

FILE_DESCRIPTION(
/* description */ ('Unknown'),
/* implementation_level */ '2;1');

FILE_NAME(
/* name */ 'ClGray_4211483_MCM',
/* time_stamp */ '2025-07-21T23:50:21+02:00',
/* author */ ('Unknown'),
/* organization */ ('Unknown'),
/* preprocessor_version */ 'ST-DEVELOPER v19.4',
/* originating_system */ 'Solid Edge',
/* authorisation */ 'Unknown');

FILE_SCHEMA (('AUTOMOTIVE_DESIGN {1 0 10303 214 3 1 1}'));
ENDSEC;

DATA;
#10=PROPERTY_DEFINITION_REPRESENTATION(#14,#12);
#11=PROPERTY_DEFINITION_REPRESENTATION(#15,#13);
#12=REPRESENTATION('',(#16),#1043);
#13=REPRESENTATION('',(#17),#1043);
#14=PROPERTY_DEFINITION('pmi validation property','',#1048);
#15=PROPERTY_DEFINITION('pmi validation property','',#1048);
#16=VALUE_REPRESENTATION_ITEM('number of annotations',COUNT_MEASURE(0.));
#17=VALUE_REPRESENTATION_ITEM('number of views',COUNT_MEASURE(0.));
#18=SHAPE_REPRESENTATION_RELATIONSHIP('','',#601,#19);
#19=ADVANCED_BREP_SHAPE_REPRESENTATION('',(#599),#1043);
#20=TOROIDAL_SURFACE('',#641,3.,0.1);
#21=TOROIDAL_SURFACE('',#642,3.,0.1);
#22=TOROIDAL_SURFACE('',#643,2.5,0.1);
#23=TOROIDAL_SURFACE('',#644,2.5,0.1);
#24=TOROIDAL_SURFACE('',#645,2.5,0.1);
#25=TOROIDAL_SURFACE('',#646,2.5,0.1);
#26=PLANE('',#608);
#27=PLANE('',#613);
#28=PLANE('',#616);
#29=PLANE('',#621);
#30=PLANE('',#627);
#31=PLANE('',#632);
#32=PLANE('',#636);
#33=PLANE('',#637);
#34=PLANE('',#638);
#35=PLANE('',#639);
#36=PLANE('',#647);
#37=PLANE('',#649);
#38=PLANE('',#651);
#39=PLANE('',#652);
#40=PLANE('',#658);
#41=PLANE('',#659);
#42=B_SPLINE_CURVE_WITH_KNOTS('',3,(#823,#824,#825,#826,#827),
 .UNSPECIFIED.,.F.,.F.,(4,1,4),(5.42101086242752E-20,0.000626703356852406,
0.00125340671370481),.UNSPECIFIED.);
#43=B_SPLINE_CURVE_WITH_KNOTS('',3,(#835,#836,#837,#838,#839),
 .UNSPECIFIED.,.F.,.F.,(4,1,4),(0.,0.000626703356852406,0.00125340671370481),
 .UNSPECIFIED.);
#44=B_SPLINE_CURVE_WITH_KNOTS('',3,(#847,#848,#849,#850,#851),
 .UNSPECIFIED.,.F.,.F.,(4,1,4),(0.,0.000626703356852404,0.00125340671370481),
 .UNSPECIFIED.);
#45=B_SPLINE_CURVE_WITH_KNOTS('',3,(#859,#860,#861,#862,#863),
 .UNSPECIFIED.,.F.,.F.,(4,1,4),(2.64742989836896E-18,0.000626703356852405,
0.00125340671370481),.UNSPECIFIED.);
#46=B_SPLINE_CURVE_WITH_KNOTS('',3,(#917,#918,#919,#920,#921),
 .UNSPECIFIED.,.F.,.F.,(4,1,4),(5.42101086242752E-20,0.000626227329652798,
0.0012524546593056),.UNSPECIFIED.);
#47=B_SPLINE_CURVE_WITH_KNOTS('',3,(#926,#927,#928,#929,#930),
 .UNSPECIFIED.,.F.,.F.,(4,1,4),(0.,0.000626227329652798,0.0012524546593056),
 .UNSPECIFIED.);
#48=B_SPLINE_CURVE_WITH_KNOTS('',3,(#938,#939,#940,#941,#942),
 .UNSPECIFIED.,.F.,.F.,(4,1,4),(0.,0.000626227329652795,0.00125245465930559),
 .UNSPECIFIED.);
#49=B_SPLINE_CURVE_WITH_KNOTS('',3,(#950,#951,#952,#953,#954),
 .UNSPECIFIED.,.F.,.F.,(4,1,4),(2.64742989836896E-18,0.000626227329652797,
0.00125245465930559),.UNSPECIFIED.);
#50=B_SPLINE_CURVE_WITH_KNOTS('',3,(#978,#979,#980,#981),.UNSPECIFIED.,
 .F.,.F.,(4,4),(0.,0.000157202770432763),.UNSPECIFIED.);
#51=B_SPLINE_CURVE_WITH_KNOTS('',3,(#982,#983,#984,#985),.UNSPECIFIED.,
 .F.,.F.,(4,4),(0.,0.000157204075759021),.UNSPECIFIED.);
#52=B_SPLINE_CURVE_WITH_KNOTS('',3,(#987,#988,#989,#990),.UNSPECIFIED.,
 .F.,.F.,(4,4),(0.,0.000157202770432761),.UNSPECIFIED.);
#53=B_SPLINE_CURVE_WITH_KNOTS('',3,(#991,#992,#993,#994),.UNSPECIFIED.,
 .F.,.F.,(4,4),(4.77048955893622E-18,0.000157204075759016),
 .UNSPECIFIED.);
#54=B_SPLINE_CURVE_WITH_KNOTS('',3,(#996,#997,#998,#999),.UNSPECIFIED.,
 .F.,.F.,(4,4),(0.,0.000157204075759022),.UNSPECIFIED.);
#55=B_SPLINE_CURVE_WITH_KNOTS('',3,(#1000,#1001,#1002,#1003),
 .UNSPECIFIED.,.F.,.F.,(4,4),(0.,0.000157202770432764),.UNSPECIFIED.);
#56=B_SPLINE_CURVE_WITH_KNOTS('',3,(#1006,#1007,#1008,#1009),
 .UNSPECIFIED.,.F.,.F.,(4,4),(4.77048955893622E-18,0.000157204075759016),
 .UNSPECIFIED.);
#57=B_SPLINE_CURVE_WITH_KNOTS('',3,(#1010,#1011,#1012,#1013),
 .UNSPECIFIED.,.F.,.F.,(4,4),(0.,0.00015720277043276),.UNSPECIFIED.);
#58=LINE('',#821,#98);
#59=LINE('',#829,#99);
#60=LINE('',#833,#100);
#61=LINE('',#841,#101);
#62=LINE('',#845,#102);
#63=LINE('',#853,#103);
#64=LINE('',#857,#104);
#65=LINE('',#865,#105);
#66=LINE('',#867,#106);
#67=LINE('',#871,#107);
#68=LINE('',#873,#108);
#69=LINE('',#878,#109);
#70=LINE('',#882,#110);
#71=LINE('',#887,#111);
#72=LINE('',#891,#112);
#73=LINE('',#895,#113);
#74=LINE('',#897,#114);
#75=LINE('',#902,#115);
#76=LINE('',#906,#116);
#77=LINE('',#911,#117);
#78=LINE('',#915,#118);
#79=LINE('',#923,#119);
#80=LINE('',#924,#120);
#81=LINE('',#932,#121);
#82=LINE('',#936,#122);
#83=LINE('',#944,#123);
#84=LINE('',#948,#124);
#85=LINE('',#956,#125);
#86=LINE('',#958,#126);
#87=LINE('',#959,#127);
#88=LINE('',#960,#128);
#89=LINE('',#961,#129);
#90=LINE('',#975,#130);
#91=LINE('',#976,#131);
#92=LINE('',#1004,#132);
#93=LINE('',#1014,#133);
#94=LINE('',#1023,#134);
#95=LINE('',#1025,#135);
#96=LINE('',#1028,#136);
#97=LINE('',#1029,#137);
#98=VECTOR('',#666,1000.);
#99=VECTOR('',#667,1000.);
#100=VECTOR('',#670,1000.);
#101=VECTOR('',#671,1000.);
#102=VECTOR('',#674,1000.);
#103=VECTOR('',#675,1000.);
#104=VECTOR('',#678,1000.);
#105=VECTOR('',#679,1000.);
#106=VECTOR('',#682,1000.);
#107=VECTOR('',#685,1000.);
#108=VECTOR('',#688,1000.);
#109=VECTOR('',#691,1000.);
#110=VECTOR('',#696,1000.);
#111=VECTOR('',#699,1000.);
#112=VECTOR('',#704,1000.);
#113=VECTOR('',#707,1000.);
#114=VECTOR('',#710,1000.);
#115=VECTOR('',#713,1000.);
#116=VECTOR('',#718,1000.);
#117=VECTOR('',#721,1000.);
#118=VECTOR('',#726,1000.);
#119=VECTOR('',#727,1000.);
#120=VECTOR('',#728,1000.);
#121=VECTOR('',#729,1000.);
#122=VECTOR('',#732,1000.);
#123=VECTOR('',#733,1000.);
#124=VECTOR('',#736,1000.);
#125=VECTOR('',#737,1000.);
#126=VECTOR('',#740,1000.);
#127=VECTOR('',#741,1000.);
#128=VECTOR('',#742,1000.);
#129=VECTOR('',#743,1000.);
#130=VECTOR('',#760,1000.);
#131=VECTOR('',#761,1000.);
#132=VECTOR('',#768,1000.);
#133=VECTOR('',#771,1000.);
#134=VECTOR('',#788,1000.);
#135=VECTOR('',#791,1000.);
#136=VECTOR('',#796,1000.);
#137=VECTOR('',#797,1000.);
#138=ORIENTED_EDGE('',*,*,#298,.F.);
#139=ORIENTED_EDGE('',*,*,#299,.T.);
#140=ORIENTED_EDGE('',*,*,#300,.T.);
#141=ORIENTED_EDGE('',*,*,#301,.T.);
#142=ORIENTED_EDGE('',*,*,#302,.F.);
#143=ORIENTED_EDGE('',*,*,#303,.T.);
#144=ORIENTED_EDGE('',*,*,#304,.T.);
#145=ORIENTED_EDGE('',*,*,#305,.T.);
#146=ORIENTED_EDGE('',*,*,#306,.F.);
#147=ORIENTED_EDGE('',*,*,#307,.T.);
#148=ORIENTED_EDGE('',*,*,#308,.T.);
#149=ORIENTED_EDGE('',*,*,#309,.T.);
#150=ORIENTED_EDGE('',*,*,#310,.F.);
#151=ORIENTED_EDGE('',*,*,#311,.T.);
#152=ORIENTED_EDGE('',*,*,#312,.T.);
#153=ORIENTED_EDGE('',*,*,#313,.T.);
#154=ORIENTED_EDGE('',*,*,#314,.F.);
#155=ORIENTED_EDGE('',*,*,#315,.T.);
#156=ORIENTED_EDGE('',*,*,#316,.F.);
#157=ORIENTED_EDGE('',*,*,#302,.T.);
#158=ORIENTED_EDGE('',*,*,#317,.T.);
#159=ORIENTED_EDGE('',*,*,#318,.T.);
#160=ORIENTED_EDGE('',*,*,#319,.T.);
#161=ORIENTED_EDGE('',*,*,#320,.T.);
#162=ORIENTED_EDGE('',*,*,#321,.T.);
#163=ORIENTED_EDGE('',*,*,#322,.T.);
#164=ORIENTED_EDGE('',*,*,#323,.T.);
#165=ORIENTED_EDGE('',*,*,#324,.F.);
#166=ORIENTED_EDGE('',*,*,#325,.T.);
#167=ORIENTED_EDGE('',*,*,#326,.T.);
#168=ORIENTED_EDGE('',*,*,#327,.T.);
#169=ORIENTED_EDGE('',*,*,#298,.T.);
#170=ORIENTED_EDGE('',*,*,#328,.T.);
#171=ORIENTED_EDGE('',*,*,#329,.T.);
#172=ORIENTED_EDGE('',*,*,#330,.T.);
#173=ORIENTED_EDGE('',*,*,#331,.T.);
#174=ORIENTED_EDGE('',*,*,#332,.T.);
#175=ORIENTED_EDGE('',*,*,#333,.T.);
#176=ORIENTED_EDGE('',*,*,#334,.T.);
#177=ORIENTED_EDGE('',*,*,#335,.F.);
#178=ORIENTED_EDGE('',*,*,#324,.T.);
#179=ORIENTED_EDGE('',*,*,#336,.T.);
#180=ORIENTED_EDGE('',*,*,#337,.T.);
#181=ORIENTED_EDGE('',*,*,#338,.T.);
#182=ORIENTED_EDGE('',*,*,#335,.T.);
#183=ORIENTED_EDGE('',*,*,#339,.T.);
#184=ORIENTED_EDGE('',*,*,#340,.T.);
#185=ORIENTED_EDGE('',*,*,#341,.T.);
#186=ORIENTED_EDGE('',*,*,#342,.F.);
#187=ORIENTED_EDGE('',*,*,#343,.T.);
#188=ORIENTED_EDGE('',*,*,#344,.T.);
#189=ORIENTED_EDGE('',*,*,#345,.T.);
#190=ORIENTED_EDGE('',*,*,#346,.F.);
#191=ORIENTED_EDGE('',*,*,#347,.T.);
#192=ORIENTED_EDGE('',*,*,#348,.T.);
#193=ORIENTED_EDGE('',*,*,#349,.T.);
#194=ORIENTED_EDGE('',*,*,#342,.T.);
#195=ORIENTED_EDGE('',*,*,#350,.F.);
#196=ORIENTED_EDGE('',*,*,#306,.T.);
#197=ORIENTED_EDGE('',*,*,#351,.F.);
#198=ORIENTED_EDGE('',*,*,#352,.T.);
#199=ORIENTED_EDGE('',*,*,#346,.T.);
#200=ORIENTED_EDGE('',*,*,#353,.T.);
#201=ORIENTED_EDGE('',*,*,#310,.T.);
#202=ORIENTED_EDGE('',*,*,#354,.T.);
#203=ORIENTED_EDGE('',*,*,#355,.T.);
#204=ORIENTED_EDGE('',*,*,#356,.T.);
#205=ORIENTED_EDGE('',*,*,#357,.F.);
#206=ORIENTED_EDGE('',*,*,#358,.T.);
#207=ORIENTED_EDGE('',*,*,#359,.F.);
#208=ORIENTED_EDGE('',*,*,#340,.F.);
#209=ORIENTED_EDGE('',*,*,#360,.T.);
#210=ORIENTED_EDGE('',*,*,#300,.F.);
#211=ORIENTED_EDGE('',*,*,#330,.F.);
#212=ORIENTED_EDGE('',*,*,#361,.T.);
#213=ORIENTED_EDGE('',*,*,#314,.T.);
#214=ORIENTED_EDGE('',*,*,#301,.F.);
#215=ORIENTED_EDGE('',*,*,#360,.F.);
#216=ORIENTED_EDGE('',*,*,#339,.F.);
#217=ORIENTED_EDGE('',*,*,#334,.F.);
#218=ORIENTED_EDGE('',*,*,#362,.T.);
#219=ORIENTED_EDGE('',*,*,#319,.F.);
#220=ORIENTED_EDGE('',*,*,#363,.T.);
#221=ORIENTED_EDGE('',*,*,#321,.F.);
#222=ORIENTED_EDGE('',*,*,#341,.F.);
#223=ORIENTED_EDGE('',*,*,#359,.T.);
#224=ORIENTED_EDGE('',*,*,#299,.F.);
#225=ORIENTED_EDGE('',*,*,#327,.F.);
#226=ORIENTED_EDGE('',*,*,#364,.T.);
#227=ORIENTED_EDGE('',*,*,#323,.F.);
#228=ORIENTED_EDGE('',*,*,#365,.T.);
#229=ORIENTED_EDGE('',*,*,#317,.F.);
#230=ORIENTED_EDGE('',*,*,#366,.T.);
#231=ORIENTED_EDGE('',*,*,#325,.F.);
#232=ORIENTED_EDGE('',*,*,#305,.F.);
#233=ORIENTED_EDGE('',*,*,#367,.T.);
#234=ORIENTED_EDGE('',*,*,#336,.F.);
#235=ORIENTED_EDGE('',*,*,#316,.T.);
#236=ORIENTED_EDGE('',*,*,#368,.T.);
#237=ORIENTED_EDGE('',*,*,#328,.F.);
#238=ORIENTED_EDGE('',*,*,#369,.T.);
#239=ORIENTED_EDGE('',*,*,#332,.F.);
#240=ORIENTED_EDGE('',*,*,#338,.F.);
#241=ORIENTED_EDGE('',*,*,#370,.F.);
#242=ORIENTED_EDGE('',*,*,#303,.F.);
#243=ORIENTED_EDGE('',*,*,#370,.T.);
#244=ORIENTED_EDGE('',*,*,#337,.F.);
#245=ORIENTED_EDGE('',*,*,#367,.F.);
#246=ORIENTED_EDGE('',*,*,#304,.F.);
#247=ORIENTED_EDGE('',*,*,#354,.F.);
#248=ORIENTED_EDGE('',*,*,#356,.F.);
#249=ORIENTED_EDGE('',*,*,#355,.F.);
#250=ORIENTED_EDGE('',*,*,#358,.F.);
#251=ORIENTED_EDGE('',*,*,#369,.F.);
#252=ORIENTED_EDGE('',*,*,#331,.F.);
#253=ORIENTED_EDGE('',*,*,#362,.F.);
#254=ORIENTED_EDGE('',*,*,#333,.F.);
#255=ORIENTED_EDGE('',*,*,#368,.F.);
#256=ORIENTED_EDGE('',*,*,#315,.F.);
#257=ORIENTED_EDGE('',*,*,#361,.F.);
#258=ORIENTED_EDGE('',*,*,#329,.F.);
#259=ORIENTED_EDGE('',*,*,#364,.F.);
#260=ORIENTED_EDGE('',*,*,#326,.F.);
#261=ORIENTED_EDGE('',*,*,#366,.F.);
#262=ORIENTED_EDGE('',*,*,#320,.F.);
#263=ORIENTED_EDGE('',*,*,#363,.F.);
#264=ORIENTED_EDGE('',*,*,#318,.F.);
#265=ORIENTED_EDGE('',*,*,#365,.F.);
#266=ORIENTED_EDGE('',*,*,#322,.F.);
#267=ORIENTED_EDGE('',*,*,#371,.T.);
#268=ORIENTED_EDGE('',*,*,#347,.F.);
#269=ORIENTED_EDGE('',*,*,#352,.F.);
#270=ORIENTED_EDGE('',*,*,#309,.F.);
#271=ORIENTED_EDGE('',*,*,#372,.T.);
#272=ORIENTED_EDGE('',*,*,#348,.F.);
#273=ORIENTED_EDGE('',*,*,#371,.F.);
#274=ORIENTED_EDGE('',*,*,#308,.F.);
#275=ORIENTED_EDGE('',*,*,#350,.T.);
#276=ORIENTED_EDGE('',*,*,#349,.F.);
#277=ORIENTED_EDGE('',*,*,#372,.F.);
#278=ORIENTED_EDGE('',*,*,#307,.F.);
#279=ORIENTED_EDGE('',*,*,#373,.F.);
#280=ORIENTED_EDGE('',*,*,#344,.F.);
#281=ORIENTED_EDGE('',*,*,#374,.T.);
#282=ORIENTED_EDGE('',*,*,#312,.F.);
#283=ORIENTED_EDGE('',*,*,#374,.F.);
#284=ORIENTED_EDGE('',*,*,#343,.F.);
#285=ORIENTED_EDGE('',*,*,#351,.T.);
#286=ORIENTED_EDGE('',*,*,#313,.F.);
#287=ORIENTED_EDGE('',*,*,#353,.F.);
#288=ORIENTED_EDGE('',*,*,#345,.F.);
#289=ORIENTED_EDGE('',*,*,#373,.T.);
#290=ORIENTED_EDGE('',*,*,#311,.F.);
#291=ORIENTED_EDGE('',*,*,#357,.T.);
#292=ORIENTED_EDGE('',*,*,#375,.T.);
#293=ORIENTED_EDGE('',*,*,#376,.F.);
#294=ORIENTED_EDGE('',*,*,#377,.T.);
#295=ORIENTED_EDGE('',*,*,#376,.T.);
#296=ORIENTED_EDGE('',*,*,#375,.F.);
#297=ORIENTED_EDGE('',*,*,#377,.F.);
#298=EDGE_CURVE('',#378,#379,#434,.T.);
#299=EDGE_CURVE('',#378,#380,#58,.T.);
#300=EDGE_CURVE('',#380,#381,#42,.T.);
#301=EDGE_CURVE('',#381,#382,#59,.F.);
#302=EDGE_CURVE('',#383,#382,#435,.T.);
#303=EDGE_CURVE('',#383,#384,#60,.T.);
#304=EDGE_CURVE('',#384,#385,#43,.T.);
#305=EDGE_CURVE('',#385,#379,#61,.F.);
#306=EDGE_CURVE('',#386,#387,#436,.F.);
#307=EDGE_CURVE('',#386,#388,#62,.F.);
#308=EDGE_CURVE('',#388,#389,#44,.T.);
#309=EDGE_CURVE('',#389,#390,#63,.T.);
#310=EDGE_CURVE('',#391,#390,#437,.F.);
#311=EDGE_CURVE('',#391,#392,#64,.F.);
#312=EDGE_CURVE('',#392,#393,#45,.T.);
#313=EDGE_CURVE('',#393,#387,#65,.T.);
#314=EDGE_CURVE('',#394,#382,#66,.T.);
#315=EDGE_CURVE('',#394,#395,#438,.F.);
#316=EDGE_CURVE('',#383,#395,#67,.T.);
#317=EDGE_CURVE('',#396,#397,#68,.T.);
#318=EDGE_CURVE('',#397,#398,#439,.T.);
#319=EDGE_CURVE('',#398,#399,#69,.F.);
#320=EDGE_CURVE('',#399,#396,#440,.T.);
#321=EDGE_CURVE('',#400,#401,#70,.T.);
#322=EDGE_CURVE('',#401,#402,#441,.F.);
#323=EDGE_CURVE('',#402,#403,#71,.T.);
#324=EDGE_CURVE('',#400,#403,#442,.T.);
#325=EDGE_CURVE('',#379,#404,#72,.T.);
#326=EDGE_CURVE('',#404,#405,#443,.F.);
#327=EDGE_CURVE('',#405,#378,#73,.T.);
#328=EDGE_CURVE('',#406,#407,#74,.F.);
#329=EDGE_CURVE('',#407,#408,#444,.T.);
#330=EDGE_CURVE('',#408,#409,#75,.T.);
#331=EDGE_CURVE('',#409,#406,#445,.T.);
#332=EDGE_CURVE('',#410,#411,#76,.T.);
#333=EDGE_CURVE('',#411,#412,#446,.F.);
#334=EDGE_CURVE('',#412,#413,#77,.T.);
#335=EDGE_CURVE('',#410,#413,#447,.T.);
#336=EDGE_CURVE('',#403,#414,#78,.T.);
#337=EDGE_CURVE('',#414,#415,#46,.T.);
#338=EDGE_CURVE('',#415,#410,#79,.F.);
#339=EDGE_CURVE('',#413,#416,#80,.T.);
#340=EDGE_CURVE('',#416,#417,#47,.T.);
#341=EDGE_CURVE('',#417,#400,#81,.F.);
#342=EDGE_CURVE('',#418,#419,#448,.T.);
#343=EDGE_CURVE('',#418,#420,#82,.F.);
#344=EDGE_CURVE('',#420,#421,#48,.T.);
#345=EDGE_CURVE('',#421,#422,#83,.T.);
#346=EDGE_CURVE('',#423,#422,#449,.T.);
#347=EDGE_CURVE('',#423,#424,#84,.F.);
#348=EDGE_CURVE('',#424,#425,#49,.T.);
#349=EDGE_CURVE('',#425,#419,#85,.T.);
#350=EDGE_CURVE('',#386,#419,#86,.T.);
#351=EDGE_CURVE('',#418,#387,#87,.T.);
#352=EDGE_CURVE('',#390,#423,#88,.T.);
#353=EDGE_CURVE('',#422,#391,#89,.T.);
#354=EDGE_CURVE('',#426,#426,#450,.F.);
#355=EDGE_CURVE('',#427,#427,#451,.T.);
#356=EDGE_CURVE('',#428,#428,#452,.T.);
#357=EDGE_CURVE('',#429,#429,#453,.F.);
#358=EDGE_CURVE('',#430,#430,#454,.F.);
#359=EDGE_CURVE('',#417,#380,#90,.T.);
#360=EDGE_CURVE('',#416,#381,#91,.T.);
#361=EDGE_CURVE('',#408,#394,#50,.T.);
#362=EDGE_CURVE('',#412,#409,#51,.T.);
#363=EDGE_CURVE('',#398,#401,#52,.T.);
#364=EDGE_CURVE('',#405,#399,#53,.T.);
#365=EDGE_CURVE('',#402,#397,#54,.T.);
#366=EDGE_CURVE('',#396,#404,#55,.T.);
#367=EDGE_CURVE('',#385,#414,#92,.T.);
#368=EDGE_CURVE('',#395,#407,#56,.T.);
#369=EDGE_CURVE('',#406,#411,#57,.T.);
#370=EDGE_CURVE('',#384,#415,#93,.T.);
#371=EDGE_CURVE('',#389,#424,#94,.T.);
#372=EDGE_CURVE('',#388,#425,#95,.T.);
#373=EDGE_CURVE('',#421,#392,#96,.T.);
#374=EDGE_CURVE('',#420,#393,#97,.T.);
#375=EDGE_CURVE('',#431,#431,#455,.T.);
#376=EDGE_CURVE('',#432,#432,#456,.T.);
#377=EDGE_CURVE('',#433,#433,#457,.T.);
#378=VERTEX_POINT('',#819);
#379=VERTEX_POINT('',#820);
#380=VERTEX_POINT('',#822);
#381=VERTEX_POINT('',#828);
#382=VERTEX_POINT('',#830);
#383=VERTEX_POINT('',#832);
#384=VERTEX_POINT('',#834);
#385=VERTEX_POINT('',#840);
#386=VERTEX_POINT('',#843);
#387=VERTEX_POINT('',#844);
#388=VERTEX_POINT('',#846);
#389=VERTEX_POINT('',#852);
#390=VERTEX_POINT('',#854);
#391=VERTEX_POINT('',#856);
#392=VERTEX_POINT('',#858);
#393=VERTEX_POINT('',#864);
#394=VERTEX_POINT('',#868);
#395=VERTEX_POINT('',#870);
#396=VERTEX_POINT('',#874);
#397=VERTEX_POINT('',#875);
#398=VERTEX_POINT('',#877);
#399=VERTEX_POINT('',#879);
#400=VERTEX_POINT('',#883);
#401=VERTEX_POINT('',#884);
#402=VERTEX_POINT('',#886);
#403=VERTEX_POINT('',#888);
#404=VERTEX_POINT('',#892);
#405=VERTEX_POINT('',#894);
#406=VERTEX_POINT('',#898);
#407=VERTEX_POINT('',#899);
#408=VERTEX_POINT('',#901);
#409=VERTEX_POINT('',#903);
#410=VERTEX_POINT('',#907);
#411=VERTEX_POINT('',#908);
#412=VERTEX_POINT('',#910);
#413=VERTEX_POINT('',#912);
#414=VERTEX_POINT('',#916);
#415=VERTEX_POINT('',#922);
#416=VERTEX_POINT('',#925);
#417=VERTEX_POINT('',#931);
#418=VERTEX_POINT('',#934);
#419=VERTEX_POINT('',#935);
#420=VERTEX_POINT('',#937);
#421=VERTEX_POINT('',#943);
#422=VERTEX_POINT('',#945);
#423=VERTEX_POINT('',#947);
#424=VERTEX_POINT('',#949);
#425=VERTEX_POINT('',#955);
#426=VERTEX_POINT('',#963);
#427=VERTEX_POINT('',#966);
#428=VERTEX_POINT('',#968);
#429=VERTEX_POINT('',#971);
#430=VERTEX_POINT('',#973);
#431=VERTEX_POINT('',#1034);
#432=VERTEX_POINT('',#1037);
#433=VERTEX_POINT('',#1039);
#434=CIRCLE('',#604,2.);
#435=CIRCLE('',#605,2.);
#436=CIRCLE('',#606,2.);
#437=CIRCLE('',#607,2.);
#438=CIRCLE('',#609,2.5);
#439=CIRCLE('',#611,2.6);
#440=CIRCLE('',#612,2.6);
#441=CIRCLE('',#614,2.5);
#442=CIRCLE('',#615,2.4);
#443=CIRCLE('',#617,2.5);
#444=CIRCLE('',#619,2.6);
#445=CIRCLE('',#620,2.6);
#446=CIRCLE('',#622,2.5);
#447=CIRCLE('',#623,2.4);
#448=CIRCLE('',#625,2.4);
#449=CIRCLE('',#626,2.4);
#450=CIRCLE('',#628,3.);
#451=CIRCLE('',#630,3.1);
#452=CIRCLE('',#631,3.1);
#453=CIRCLE('',#633,2.4);
#454=CIRCLE('',#634,3.);
#455=CIRCLE('',#654,2.4);
#456=CIRCLE('',#656,2.);
#457=CIRCLE('',#657,2.);
#458=EDGE_LOOP('',(#138,#139,#140,#141,#142,#143,#144,#145));
#459=EDGE_LOOP('',(#146,#147,#148,#149,#150,#151,#152,#153));
#460=EDGE_LOOP('',(#154,#155,#156,#157));
#461=EDGE_LOOP('',(#158,#159,#160,#161));
#462=EDGE_LOOP('',(#162,#163,#164,#165));
#463=EDGE_LOOP('',(#166,#167,#168,#169));
#464=EDGE_LOOP('',(#170,#171,#172,#173));
#465=EDGE_LOOP('',(#174,#175,#176,#177));
#466=EDGE_LOOP('',(#178,#179,#180,#181,#182,#183,#184,#185));
#467=EDGE_LOOP('',(#186,#187,#188,#189,#190,#191,#192,#193));
#468=EDGE_LOOP('',(#194,#195,#196,#197));
#469=EDGE_LOOP('',(#198,#199,#200,#201));
#470=EDGE_LOOP('',(#202));
#471=EDGE_LOOP('',(#203));
#472=EDGE_LOOP('',(#204));
#473=EDGE_LOOP('',(#205));
#474=EDGE_LOOP('',(#206));
#475=EDGE_LOOP('',(#207,#208,#209,#210));
#476=EDGE_LOOP('',(#211,#212,#213,#214,#215,#216,#217,#218));
#477=EDGE_LOOP('',(#219,#220,#221,#222,#223,#224,#225,#226));
#478=EDGE_LOOP('',(#227,#228,#229,#230,#231,#232,#233,#234));
#479=EDGE_LOOP('',(#235,#236,#237,#238,#239,#240,#241,#242));
#480=EDGE_LOOP('',(#243,#244,#245,#246));
#481=EDGE_LOOP('',(#247));
#482=EDGE_LOOP('',(#248));
#483=EDGE_LOOP('',(#249));
#484=EDGE_LOOP('',(#250));
#485=EDGE_LOOP('',(#251,#252,#253,#254));
#486=EDGE_LOOP('',(#255,#256,#257,#258));
#487=EDGE_LOOP('',(#259,#260,#261,#262));
#488=EDGE_LOOP('',(#263,#264,#265,#266));
#489=EDGE_LOOP('',(#267,#268,#269,#270));
#490=EDGE_LOOP('',(#271,#272,#273,#274));
#491=EDGE_LOOP('',(#275,#276,#277,#278));
#492=EDGE_LOOP('',(#279,#280,#281,#282));
#493=EDGE_LOOP('',(#283,#284,#285,#286));
#494=EDGE_LOOP('',(#287,#288,#289,#290));
#495=EDGE_LOOP('',(#291));
#496=EDGE_LOOP('',(#292));
#497=EDGE_LOOP('',(#293));
#498=EDGE_LOOP('',(#294));
#499=EDGE_LOOP('',(#295));
#500=EDGE_LOOP('',(#296));
#501=EDGE_LOOP('',(#297));
#502=FACE_BOUND('',#458,.T.);
#503=FACE_BOUND('',#459,.T.);
#504=FACE_BOUND('',#460,.T.);
#505=FACE_BOUND('',#461,.T.);
#506=FACE_BOUND('',#462,.T.);
#507=FACE_BOUND('',#463,.T.);
#508=FACE_BOUND('',#464,.T.);
#509=FACE_BOUND('',#465,.T.);
#510=FACE_BOUND('',#466,.T.);
#511=FACE_BOUND('',#467,.T.);
#512=FACE_BOUND('',#468,.T.);
#513=FACE_BOUND('',#469,.T.);
#514=FACE_BOUND('',#470,.T.);
#515=FACE_BOUND('',#471,.T.);
#516=FACE_BOUND('',#472,.T.);
#517=FACE_BOUND('',#473,.T.);
#518=FACE_BOUND('',#474,.T.);
#519=FACE_BOUND('',#475,.T.);
#520=FACE_BOUND('',#476,.T.);
#521=FACE_BOUND('',#477,.T.);
#522=FACE_BOUND('',#478,.T.);
#523=FACE_BOUND('',#479,.T.);
#524=FACE_BOUND('',#480,.T.);
#525=FACE_BOUND('',#481,.T.);
#526=FACE_BOUND('',#482,.T.);
#527=FACE_BOUND('',#483,.T.);
#528=FACE_BOUND('',#484,.T.);
#529=FACE_BOUND('',#485,.T.);
#530=FACE_BOUND('',#486,.T.);
#531=FACE_BOUND('',#487,.T.);
#532=FACE_BOUND('',#488,.T.);
#533=FACE_BOUND('',#489,.T.);
#534=FACE_BOUND('',#490,.T.);
#535=FACE_BOUND('',#491,.T.);
#536=FACE_BOUND('',#492,.T.);
#537=FACE_BOUND('',#493,.T.);
#538=FACE_BOUND('',#494,.T.);
#539=FACE_BOUND('',#495,.T.);
#540=FACE_BOUND('',#496,.T.);
#541=FACE_BOUND('',#497,.T.);
#542=FACE_BOUND('',#498,.T.);
#543=FACE_BOUND('',#499,.T.);
#544=FACE_BOUND('',#500,.T.);
#545=FACE_BOUND('',#501,.T.);
#546=CYLINDRICAL_SURFACE('',#603,2.);
#547=CYLINDRICAL_SURFACE('',#610,2.6);
#548=CYLINDRICAL_SURFACE('',#618,2.6);
#549=CYLINDRICAL_SURFACE('',#624,2.4);
#550=CYLINDRICAL_SURFACE('',#629,3.1);
#551=CYLINDRICAL_SURFACE('',#635,0.400000000000001);
#552=CYLINDRICAL_SURFACE('',#640,0.400000000000001);
#553=CYLINDRICAL_SURFACE('',#648,0.4);
#554=CYLINDRICAL_SURFACE('',#650,0.4);
#555=CYLINDRICAL_SURFACE('',#653,2.4);
#556=CYLINDRICAL_SURFACE('',#655,2.);
#557=ADVANCED_FACE('',(#502,#503),#546,.F.);
#558=ADVANCED_FACE('',(#504),#26,.F.);
#559=ADVANCED_FACE('',(#505),#547,.T.);
#560=ADVANCED_FACE('',(#506),#27,.F.);
#561=ADVANCED_FACE('',(#507),#28,.F.);
#562=ADVANCED_FACE('',(#508),#548,.T.);
#563=ADVANCED_FACE('',(#509),#29,.F.);
#564=ADVANCED_FACE('',(#510,#511),#549,.T.);
#565=ADVANCED_FACE('',(#512,#513,#514),#30,.F.);
#566=ADVANCED_FACE('',(#515,#516),#550,.T.);
#567=ADVANCED_FACE('',(#517,#518),#31,.F.);
#568=ADVANCED_FACE('',(#519),#551,.F.);
#569=ADVANCED_FACE('',(#520),#32,.F.);
#570=ADVANCED_FACE('',(#521),#33,.F.);
#571=ADVANCED_FACE('',(#522),#34,.F.);
#572=ADVANCED_FACE('',(#523),#35,.F.);
#573=ADVANCED_FACE('',(#524),#552,.F.);
#574=ADVANCED_FACE('',(#525,#526),#20,.T.);
#575=ADVANCED_FACE('',(#527,#528),#21,.T.);
#576=ADVANCED_FACE('',(#529),#22,.T.);
#577=ADVANCED_FACE('',(#530),#23,.T.);
#578=ADVANCED_FACE('',(#531),#24,.T.);
#579=ADVANCED_FACE('',(#532),#25,.T.);
#580=ADVANCED_FACE('',(#533),#36,.F.);
#581=ADVANCED_FACE('',(#534),#553,.F.);
#582=ADVANCED_FACE('',(#535),#37,.F.);
#583=ADVANCED_FACE('',(#536),#554,.F.);
#584=ADVANCED_FACE('',(#537),#38,.F.);
#585=ADVANCED_FACE('',(#538),#39,.F.);
#586=ADVANCED_FACE('',(#539,#540),#555,.T.);
#587=ADVANCED_FACE('',(#541,#542),#556,.F.);
#588=ADVANCED_FACE('',(#543,#544),#40,.F.);
#589=ADVANCED_FACE('',(#545),#41,.F.);
#590=CLOSED_SHELL('',(#557,#558,#559,#560,#561,#562,#563,#564,#565,#566,
#567,#568,#569,#570,#571,#572,#573,#574,#575,#576,#577,#578,#579,#580,#581,
#582,#583,#584,#585,#586,#587,#588,#589));
#591=STYLED_ITEM('',(#592),#599);
#592=PRESENTATION_STYLE_ASSIGNMENT((#593));
#593=SURFACE_STYLE_USAGE(.BOTH.,#594);
#594=SURFACE_SIDE_STYLE('',(#595));
#595=SURFACE_STYLE_FILL_AREA(#596);
#596=FILL_AREA_STYLE('',(#597));
#597=FILL_AREA_STYLE_COLOUR('',#598);
#598=COLOUR_RGB('',0.506983280181885,0.531564235687256,0.550000011920929);
#599=MANIFOLD_SOLID_BREP('',#590);
#600=SHAPE_DEFINITION_REPRESENTATION(#1048,#601);
#601=SHAPE_REPRESENTATION('ClGray_4211483_MCM',(#602),#1043);
#602=AXIS2_PLACEMENT_3D('',#816,#660,#661);
#603=AXIS2_PLACEMENT_3D('',#817,#662,#663);
#604=AXIS2_PLACEMENT_3D('',#818,#664,#665);
#605=AXIS2_PLACEMENT_3D('',#831,#668,#669);
#606=AXIS2_PLACEMENT_3D('',#842,#672,#673);
#607=AXIS2_PLACEMENT_3D('',#855,#676,#677);
#608=AXIS2_PLACEMENT_3D('',#866,#680,#681);
#609=AXIS2_PLACEMENT_3D('',#869,#683,#684);
#610=AXIS2_PLACEMENT_3D('',#872,#686,#687);
#611=AXIS2_PLACEMENT_3D('',#876,#689,#690);
#612=AXIS2_PLACEMENT_3D('',#880,#692,#693);
#613=AXIS2_PLACEMENT_3D('',#881,#694,#695);
#614=AXIS2_PLACEMENT_3D('',#885,#697,#698);
#615=AXIS2_PLACEMENT_3D('',#889,#700,#701);
#616=AXIS2_PLACEMENT_3D('',#890,#702,#703);
#617=AXIS2_PLACEMENT_3D('',#893,#705,#706);
#618=AXIS2_PLACEMENT_3D('',#896,#708,#709);
#619=AXIS2_PLACEMENT_3D('',#900,#711,#712);
#620=AXIS2_PLACEMENT_3D('',#904,#714,#715);
#621=AXIS2_PLACEMENT_3D('',#905,#716,#717);
#622=AXIS2_PLACEMENT_3D('',#909,#719,#720);
#623=AXIS2_PLACEMENT_3D('',#913,#722,#723);
#624=AXIS2_PLACEMENT_3D('',#914,#724,#725);
#625=AXIS2_PLACEMENT_3D('',#933,#730,#731);
#626=AXIS2_PLACEMENT_3D('',#946,#734,#735);
#627=AXIS2_PLACEMENT_3D('',#957,#738,#739);
#628=AXIS2_PLACEMENT_3D('',#962,#744,#745);
#629=AXIS2_PLACEMENT_3D('',#964,#746,#747);
#630=AXIS2_PLACEMENT_3D('',#965,#748,#749);
#631=AXIS2_PLACEMENT_3D('',#967,#750,#751);
#632=AXIS2_PLACEMENT_3D('',#969,#752,#753);
#633=AXIS2_PLACEMENT_3D('',#970,#754,#755);
#634=AXIS2_PLACEMENT_3D('',#972,#756,#757);
#635=AXIS2_PLACEMENT_3D('',#974,#758,#759);
#636=AXIS2_PLACEMENT_3D('',#977,#762,#763);
#637=AXIS2_PLACEMENT_3D('',#986,#764,#765);
#638=AXIS2_PLACEMENT_3D('',#995,#766,#767);
#639=AXIS2_PLACEMENT_3D('',#1005,#769,#770);
#640=AXIS2_PLACEMENT_3D('',#1015,#772,#773);
#641=AXIS2_PLACEMENT_3D('',#1016,#774,#775);
#642=AXIS2_PLACEMENT_3D('',#1017,#776,#777);
#643=AXIS2_PLACEMENT_3D('',#1018,#778,#779);
#644=AXIS2_PLACEMENT_3D('',#1019,#780,#781);
#645=AXIS2_PLACEMENT_3D('',#1020,#782,#783);
#646=AXIS2_PLACEMENT_3D('',#1021,#784,#785);
#647=AXIS2_PLACEMENT_3D('',#1022,#786,#787);
#648=AXIS2_PLACEMENT_3D('',#1024,#789,#790);
#649=AXIS2_PLACEMENT_3D('',#1026,#792,#793);
#650=AXIS2_PLACEMENT_3D('',#1027,#794,#795);
#651=AXIS2_PLACEMENT_3D('',#1030,#798,#799);
#652=AXIS2_PLACEMENT_3D('',#1031,#800,#801);
#653=AXIS2_PLACEMENT_3D('',#1032,#802,#803);
#654=AXIS2_PLACEMENT_3D('',#1033,#804,#805);
#655=AXIS2_PLACEMENT_3D('',#1035,#806,#807);
#656=AXIS2_PLACEMENT_3D('',#1036,#808,#809);
#657=AXIS2_PLACEMENT_3D('',#1038,#810,#811);
#658=AXIS2_PLACEMENT_3D('',#1040,#812,#813);
#659=AXIS2_PLACEMENT_3D('',#1041,#814,#815);
#660=DIRECTION('',(0.,0.,1.));
#661=DIRECTION('',(1.,0.,0.));
#662=DIRECTION('',(-1.,0.,0.));
#663=DIRECTION('',(0.,0.,1.));
#664=DIRECTION('',(-1.,0.,0.));
#665=DIRECTION('',(0.,0.,1.));
#666=DIRECTION('',(-1.,0.,0.));
#667=DIRECTION('',(-1.,0.,0.));
#668=DIRECTION('',(-1.,0.,0.));
#669=DIRECTION('',(0.,0.,1.));
#670=DIRECTION('',(-1.,0.,0.));
#671=DIRECTION('',(-1.,0.,0.));
#672=DIRECTION('',(-1.,0.,0.));
#673=DIRECTION('',(0.,0.,1.));
#674=DIRECTION('',(-1.,0.,0.));
#675=DIRECTION('',(-1.,0.,0.));
#676=DIRECTION('',(-1.,0.,0.));
#677=DIRECTION('',(0.,0.,1.));
#678=DIRECTION('',(-1.,0.,0.));
#679=DIRECTION('',(-1.,0.,0.));
#680=DIRECTION('',(-1.,0.,0.));
#681=DIRECTION('',(0.,0.,1.));
#682=DIRECTION('',(0.,1.,0.));
#683=DIRECTION('',(-1.,0.,0.));
#684=DIRECTION('',(0.,0.,1.));
#685=DIRECTION('',(0.,1.,0.));
#686=DIRECTION('',(-1.,0.,0.));
#687=DIRECTION('',(0.,0.,1.));
#688=DIRECTION('',(-1.,0.,0.));
#689=DIRECTION('',(1.,0.,0.));
#690=DIRECTION('',(0.,0.,-1.));
#691=DIRECTION('',(-1.,0.,0.));
#692=DIRECTION('',(-1.,0.,0.));
#693=DIRECTION('',(0.,0.,1.));
#694=DIRECTION('',(1.,0.,0.));
#695=DIRECTION('',(0.,0.,-1.));
#696=DIRECTION('',(0.,-1.,0.));
#697=DIRECTION('',(1.,0.,0.));
#698=DIRECTION('',(0.,0.,-1.));
#699=DIRECTION('',(0.,-1.,0.));
#700=DIRECTION('',(-1.,0.,0.));
#701=DIRECTION('',(0.,0.,1.));
#702=DIRECTION('',(-1.,0.,0.));
#703=DIRECTION('',(0.,0.,1.));
#704=DIRECTION('',(0.,1.,0.));
#705=DIRECTION('',(-1.,0.,0.));
#706=DIRECTION('',(0.,0.,1.));
#707=DIRECTION('',(0.,1.,0.));
#708=DIRECTION('',(-1.,0.,0.));
#709=DIRECTION('',(0.,0.,1.));
#710=DIRECTION('',(-1.,0.,0.));
#711=DIRECTION('',(-1.,0.,0.));
#712=DIRECTION('',(0.,0.,1.));
#713=DIRECTION('',(-1.,0.,0.));
#714=DIRECTION('',(1.,0.,0.));
#715=DIRECTION('',(0.,0.,-1.));
#716=DIRECTION('',(1.,0.,0.));
#717=DIRECTION('',(0.,0.,-1.));
#718=DIRECTION('',(0.,1.,0.));
#719=DIRECTION('',(1.,0.,0.));
#720=DIRECTION('',(0.,0.,-1.));
#721=DIRECTION('',(0.,1.,0.));
#722=DIRECTION('',(-1.,0.,0.));
#723=DIRECTION('',(0.,0.,1.));
#724=DIRECTION('',(-1.,0.,0.));
#725=DIRECTION('',(0.,0.,1.));
#726=DIRECTION('',(-1.,0.,0.));
#727=DIRECTION('',(-1.,0.,0.));
#728=DIRECTION('',(-1.,0.,0.));
#729=DIRECTION('',(-1.,0.,0.));
#730=DIRECTION('',(-1.,0.,0.));
#731=DIRECTION('',(0.,0.,1.));
#732=DIRECTION('',(-1.,0.,0.));
#733=DIRECTION('',(-1.,0.,0.));
#734=DIRECTION('',(-1.,0.,0.));
#735=DIRECTION('',(0.,0.,1.));
#736=DIRECTION('',(-1.,0.,0.));
#737=DIRECTION('',(-1.,0.,0.));
#738=DIRECTION('',(-1.,0.,0.));
#739=DIRECTION('',(0.,0.,1.));
#740=DIRECTION('',(0.,0.,-1.));
#741=DIRECTION('',(0.,0.,-1.));
#742=DIRECTION('',(0.,0.,-1.));
#743=DIRECTION('',(0.,0.,-1.));
#744=DIRECTION('',(-1.,0.,0.));
#745=DIRECTION('',(0.,0.,1.));
#746=DIRECTION('',(-1.,0.,0.));
#747=DIRECTION('',(0.,0.,1.));
#748=DIRECTION('',(1.,0.,0.));
#749=DIRECTION('',(0.,0.,-1.));
#750=DIRECTION('',(-1.,0.,0.));
#751=DIRECTION('',(0.,0.,1.));
#752=DIRECTION('',(1.,0.,0.));
#753=DIRECTION('',(0.,0.,-1.));
#754=DIRECTION('',(1.,0.,0.));
#755=DIRECTION('',(0.,0.,-1.));
#756=DIRECTION('',(1.,0.,0.));
#757=DIRECTION('',(0.,0.,-1.));
#758=DIRECTION('',(0.,1.,0.));
#759=DIRECTION('',(0.,0.,1.));
#760=DIRECTION('',(0.,1.,0.));
#761=DIRECTION('',(0.,1.,0.));
#762=DIRECTION('',(1.26490253456642E-16,0.,-1.));
#763=DIRECTION('',(-1.,0.,-1.26490253456642E-16));
#764=DIRECTION('',(1.80700362080917E-17,0.,1.));
#765=DIRECTION('',(1.,0.,-1.80700362080917E-17));
#766=DIRECTION('',(1.80700362080917E-17,0.,1.));
#767=DIRECTION('',(1.,0.,-1.80700362080917E-17));
#768=DIRECTION('',(0.,1.,0.));
#769=DIRECTION('',(1.26490253456642E-16,0.,-1.));
#770=DIRECTION('',(-1.,0.,-1.26490253456642E-16));
#771=DIRECTION('',(0.,1.,0.));
#772=DIRECTION('',(0.,1.,0.));
#773=DIRECTION('',(0.,0.,1.));
#774=DIRECTION('',(-1.,0.,0.));
#775=DIRECTION('',(0.,0.,1.));
#776=DIRECTION('',(1.,0.,0.));
#777=DIRECTION('',(0.,0.,-1.));
#778=DIRECTION('',(1.,0.,0.));
#779=DIRECTION('',(0.,0.,-1.));
#780=DIRECTION('',(-1.,0.,0.));
#781=DIRECTION('',(0.,0.,1.));
#782=DIRECTION('',(-1.,0.,0.));
#783=DIRECTION('',(0.,0.,1.));
#784=DIRECTION('',(1.,0.,0.));
#785=DIRECTION('',(0.,0.,-1.));
#786=DIRECTION('',(1.44560289664734E-16,-1.,0.));
#787=DIRECTION('',(1.,1.44560289664734E-16,0.));
#788=DIRECTION('',(0.,0.,-1.));
#789=DIRECTION('',(0.,0.,-1.));
#790=DIRECTION('',(-1.,0.,0.));
#791=DIRECTION('',(0.,0.,-1.));
#792=DIRECTION('',(3.61400724161835E-17,1.,0.));
#793=DIRECTION('',(-1.,3.61400724161835E-17,0.));
#794=DIRECTION('',(0.,0.,-1.));
#795=DIRECTION('',(-1.,0.,0.));
#796=DIRECTION('',(0.,0.,-1.));
#797=DIRECTION('',(0.,0.,-1.));
#798=DIRECTION('',(3.61400724161835E-17,1.,0.));
#799=DIRECTION('',(-1.,3.61400724161835E-17,0.));
#800=DIRECTION('',(1.44560289664734E-16,-1.,0.));
#801=DIRECTION('',(1.,1.44560289664734E-16,0.));
#802=DIRECTION('',(1.,0.,0.));
#803=DIRECTION('',(0.,0.,-1.));
#804=DIRECTION('',(1.,0.,0.));
#805=DIRECTION('',(0.,1.,0.));
#806=DIRECTION('',(1.,0.,0.));
#807=DIRECTION('',(0.,0.,-1.));
#808=DIRECTION('',(1.,0.,0.));
#809=DIRECTION('',(0.,1.,0.));
#810=DIRECTION('',(1.,0.,0.));
#811=DIRECTION('',(0.,0.,-1.));
#812=DIRECTION('',(1.,0.,0.));
#813=DIRECTION('',(0.,0.,-1.));
#814=DIRECTION('',(1.,0.,0.));
#815=DIRECTION('',(0.,0.,-1.));
#816=CARTESIAN_POINT('',(0.,0.,0.));
#817=CARTESIAN_POINT('',(-60.,0.,0.));
#818=CARTESIAN_POINT('',(8.00000000000001,0.,0.));
#819=CARTESIAN_POINT('',(8.00000000000001,-1.95959179422653,0.4));
#820=CARTESIAN_POINT('',(8.00000000000001,1.95959179422653,0.4));
#821=CARTESIAN_POINT('',(-60.,-1.95959179422654,0.400000000000001));
#822=CARTESIAN_POINT('',(5.,-1.95959179422654,0.4));
#823=CARTESIAN_POINT('',(5.,-1.95959179422654,0.400000000000001));
#824=CARTESIAN_POINT('',(4.78804816164062,-1.95959179422654,0.400000000000001));
#825=CARTESIAN_POINT('',(4.41195279205319,-2.04040815308719,0.000649222677642981));
#826=CARTESIAN_POINT('',(4.7880467811157,-1.95959179422656,-0.400000000000005));
#827=CARTESIAN_POINT('',(5.00000000000001,-1.95959179422656,-0.400000000000003));
#828=CARTESIAN_POINT('',(5.00000000000001,-1.95959179422654,-0.400000000000001));
#829=CARTESIAN_POINT('',(-60.,-1.95959179422654,-0.400000000000009));
#830=CARTESIAN_POINT('',(8.00000000000001,-1.95959179422653,-0.4));
#831=CARTESIAN_POINT('',(8.00000000000001,0.,0.));
#832=CARTESIAN_POINT('',(8.00000000000001,1.95959179422653,-0.4));
#833=CARTESIAN_POINT('',(-60.,1.95959179422654,-0.400000000000009));
#834=CARTESIAN_POINT('',(5.00000000000001,1.95959179422654,-0.400000000000001));
#835=CARTESIAN_POINT('',(5.00000000000001,1.95959179422654,-0.400000000000001));
#836=CARTESIAN_POINT('',(4.78804816164062,1.95959179422654,-0.400000000000002));
#837=CARTESIAN_POINT('',(4.41195279205319,2.04040815308718,-0.000649222677646775));
#838=CARTESIAN_POINT('',(4.7880467811157,1.95959179422656,0.400000000000003));
#839=CARTESIAN_POINT('',(5.00000000000001,1.95959179422656,0.400000000000003));
#840=CARTESIAN_POINT('',(5.,1.95959179422654,0.4));
#841=CARTESIAN_POINT('',(-60.,1.95959179422654,0.400000000000001));
#842=CARTESIAN_POINT('',(0.799999999999995,0.,0.));
#843=CARTESIAN_POINT('',(0.799999999999998,0.4,-1.95959179422654));
#844=CARTESIAN_POINT('',(0.799999999999998,0.4,1.95959179422654));
#845=CARTESIAN_POINT('',(-60.,0.400000000000002,-1.95959179422654));
#846=CARTESIAN_POINT('',(2.3,0.4,-1.95959179422654));
#847=CARTESIAN_POINT('',(2.3,0.4,-1.95959179422654));
#848=CARTESIAN_POINT('',(2.51195183835938,0.4,-1.95959179422654));
#849=CARTESIAN_POINT('',(2.88804720794681,0.000649222677643767,-2.04040815308719));
#850=CARTESIAN_POINT('',(2.5119532188843,-0.400000000000003,-1.95959179422656));
#851=CARTESIAN_POINT('',(2.3,-0.400000000000002,-1.95959179422656));
#852=CARTESIAN_POINT('',(2.3,-0.400000000000001,-1.95959179422654));
#853=CARTESIAN_POINT('',(-60.,-0.400000000000009,-1.95959179422654));
#854=CARTESIAN_POINT('',(0.800000000000002,-0.400000000000009,-1.95959179422654));
#855=CARTESIAN_POINT('',(0.799999999999995,0.,0.));
#856=CARTESIAN_POINT('',(0.799999999999998,-0.400000000000001,1.95959179422654));
#857=CARTESIAN_POINT('',(-60.,-0.400000000000009,1.95959179422654));
#858=CARTESIAN_POINT('',(2.3,-0.400000000000009,1.95959179422654));
#859=CARTESIAN_POINT('',(2.3,-0.400000000000001,1.95959179422654));
#860=CARTESIAN_POINT('',(2.51195183835938,-0.400000000000001,1.95959179422654));
#861=CARTESIAN_POINT('',(2.88804720794681,-0.000649222677641924,2.04040815308718));
#862=CARTESIAN_POINT('',(2.5119532188843,0.400000000000002,1.95959179422656));
#863=CARTESIAN_POINT('',(2.3,0.400000000000002,1.95959179422656));
#864=CARTESIAN_POINT('',(2.3,0.4,1.95959179422654));
#865=CARTESIAN_POINT('',(-60.,0.400000000000002,1.95959179422654));
#866=CARTESIAN_POINT('',(8.,0.,2.));
#867=CARTESIAN_POINT('',(8.00000000000001,-150.,-0.4));
#868=CARTESIAN_POINT('',(8.00000000000001,-2.46779253585061,-0.4));
#869=CARTESIAN_POINT('',(8.,0.,0.));
#870=CARTESIAN_POINT('',(8.00000000000001,2.46779253585061,-0.4));
#871=CARTESIAN_POINT('',(8.00000000000001,-150.,-0.4));
#872=CARTESIAN_POINT('',(-60.,0.,0.));
#873=CARTESIAN_POINT('',(-60.,2.56904651573303,0.400000000000001));
#874=CARTESIAN_POINT('',(7.9,2.56904651573303,0.400000000000001));
#875=CARTESIAN_POINT('',(7.3,2.56904651573303,0.400000000000001));
#876=CARTESIAN_POINT('',(7.3,0.,0.));
#877=CARTESIAN_POINT('',(7.3,-2.56904651573303,0.400000000000001));
#878=CARTESIAN_POINT('',(-60.,-2.56904651573303,0.400000000000001));
#879=CARTESIAN_POINT('',(7.9,-2.56904651573303,0.400000000000001));
#880=CARTESIAN_POINT('',(7.9,0.,0.));
#881=CARTESIAN_POINT('',(7.2,0.,2.6));
#882=CARTESIAN_POINT('',(7.2,0.,0.4));
#883=CARTESIAN_POINT('',(7.2,-2.36643191323985,0.400000000000001));
#884=CARTESIAN_POINT('',(7.2,-2.46779253585061,0.4));
#885=CARTESIAN_POINT('',(7.2,0.,0.));
#886=CARTESIAN_POINT('',(7.2,2.46779253585061,0.4));
#887=CARTESIAN_POINT('',(7.2,0.,0.4));
#888=CARTESIAN_POINT('',(7.2,2.36643191323985,0.400000000000001));
#889=CARTESIAN_POINT('',(7.2,0.,0.));
#890=CARTESIAN_POINT('',(8.,0.,2.));
#891=CARTESIAN_POINT('',(8.00000000000001,-150.,0.4));
#892=CARTESIAN_POINT('',(8.00000000000001,2.46779253585061,0.4));
#893=CARTESIAN_POINT('',(8.,0.,0.));
#894=CARTESIAN_POINT('',(8.00000000000001,-2.46779253585061,0.4));
#895=CARTESIAN_POINT('',(8.00000000000001,-150.,0.4));
#896=CARTESIAN_POINT('',(-60.,0.,0.));
#897=CARTESIAN_POINT('',(-60.,2.56904651573302,-0.400000000000009));
#898=CARTESIAN_POINT('',(7.3,2.56904651573302,-0.400000000000009));
#899=CARTESIAN_POINT('',(7.9,2.56904651573302,-0.400000000000009));
#900=CARTESIAN_POINT('',(7.9,0.,0.));
#901=CARTESIAN_POINT('',(7.9,-2.56904651573302,-0.400000000000009));
#902=CARTESIAN_POINT('',(-60.,-2.56904651573302,-0.400000000000009));
#903=CARTESIAN_POINT('',(7.3,-2.56904651573302,-0.400000000000009));
#904=CARTESIAN_POINT('',(7.3,0.,0.));
#905=CARTESIAN_POINT('',(7.2,0.,2.6));
#906=CARTESIAN_POINT('',(7.2,0.,-0.4));
#907=CARTESIAN_POINT('',(7.2,2.36643191323985,-0.400000000000009));
#908=CARTESIAN_POINT('',(7.2,2.46779253585061,-0.4));
#909=CARTESIAN_POINT('',(7.2,0.,0.));
#910=CARTESIAN_POINT('',(7.2,-2.46779253585061,-0.4));
#911=CARTESIAN_POINT('',(7.2,0.,-0.4));
#912=CARTESIAN_POINT('',(7.2,-2.36643191323985,-0.400000000000009));
#913=CARTESIAN_POINT('',(7.2,0.,0.));
#914=CARTESIAN_POINT('',(-60.,0.,0.));
#915=CARTESIAN_POINT('',(-60.,2.36643191323985,0.400000000000001));
#916=CARTESIAN_POINT('',(5.,2.36643191323985,0.4));
#917=CARTESIAN_POINT('',(5.,2.36643191323985,0.400000000000001));
#918=CARTESIAN_POINT('',(4.78822268583313,2.36643191323985,0.400000000000001));
#919=CARTESIAN_POINT('',(4.41177762092904,2.43356804728186,0.000615622984666682));
#920=CARTESIAN_POINT('',(4.78822254604844,2.36643191323985,-0.400000000000003));
#921=CARTESIAN_POINT('',(5.00000000000001,2.36643191323985,-0.400000000000001));
#922=CARTESIAN_POINT('',(5.00000000000001,2.36643191323985,-0.400000000000001));
#923=CARTESIAN_POINT('',(-60.,2.36643191323985,-0.400000000000009));
#924=CARTESIAN_POINT('',(-60.,-2.36643191323985,-0.400000000000009));
#925=CARTESIAN_POINT('',(5.00000000000001,-2.36643191323985,-0.400000000000001));
#926=CARTESIAN_POINT('',(5.00000000000001,-2.36643191323985,-0.400000000000001));
#927=CARTESIAN_POINT('',(4.78822268583314,-2.36643191323985,-0.400000000000002));
#928=CARTESIAN_POINT('',(4.41177762092904,-2.43356804728186,-0.00061562298467091));
#929=CARTESIAN_POINT('',(4.78822254604844,-2.36643191323985,0.400000000000002));
#930=CARTESIAN_POINT('',(5.00000000000001,-2.36643191323985,0.400000000000001));
#931=CARTESIAN_POINT('',(5.,-2.36643191323985,0.400000000000001));
#932=CARTESIAN_POINT('',(-60.,-2.36643191323985,0.400000000000001));
#933=CARTESIAN_POINT('',(0.799999999999995,0.,0.));
#934=CARTESIAN_POINT('',(0.799999999999998,0.4,2.36643191323985));
#935=CARTESIAN_POINT('',(0.799999999999998,0.4,-2.36643191323985));
#936=CARTESIAN_POINT('',(-60.,0.400000000000002,2.36643191323985));
#937=CARTESIAN_POINT('',(2.3,0.4,2.36643191323985));
#938=CARTESIAN_POINT('',(2.3,0.4,2.36643191323985));
#939=CARTESIAN_POINT('',(2.51177731416687,0.4,2.36643191323985));
#940=CARTESIAN_POINT('',(2.88822237907096,0.000615622984668254,2.43356804728185));
#941=CARTESIAN_POINT('',(2.51177745395156,-0.400000000000001,2.36643191323985));
#942=CARTESIAN_POINT('',(2.3,-0.400000000000001,2.36643191323985));
#943=CARTESIAN_POINT('',(2.3,-0.400000000000001,2.36643191323984));
#944=CARTESIAN_POINT('',(-60.,-0.400000000000009,2.36643191323985));
#945=CARTESIAN_POINT('',(0.799999999999995,-0.400000000000001,2.36643191323985));
#946=CARTESIAN_POINT('',(0.799999999999995,0.,0.));
#947=CARTESIAN_POINT('',(0.799999999999998,-0.400000000000001,-2.36643191323985));
#948=CARTESIAN_POINT('',(-60.,-0.400000000000009,-2.36643191323985));
#949=CARTESIAN_POINT('',(2.3,-0.400000000000009,-2.36643191323985));
#950=CARTESIAN_POINT('',(2.3,-0.400000000000001,-2.36643191323985));
#951=CARTESIAN_POINT('',(2.51177731416687,-0.400000000000001,-2.36643191323985));
#952=CARTESIAN_POINT('',(2.88822237907096,-0.000615622984666058,-2.43356804728185));
#953=CARTESIAN_POINT('',(2.51177745395156,0.4,-2.36643191323985));
#954=CARTESIAN_POINT('',(2.3,0.4,-2.36643191323985));
#955=CARTESIAN_POINT('',(2.3,0.4,-2.36643191323985));
#956=CARTESIAN_POINT('',(-60.,0.400000000000002,-2.36643191323985));
#957=CARTESIAN_POINT('',(0.799999999999998,0.,2.4));
#958=CARTESIAN_POINT('',(0.799999999999998,0.4,20.));
#959=CARTESIAN_POINT('',(0.799999999999998,0.4,20.));
#960=CARTESIAN_POINT('',(0.799999999999998,-0.400000000000001,20.));
#961=CARTESIAN_POINT('',(0.799999999999998,-0.400000000000001,20.));
#962=CARTESIAN_POINT('',(0.799999999999998,0.,0.));
#963=CARTESIAN_POINT('',(0.799999999999998,0.,3.));
#964=CARTESIAN_POINT('',(-60.,0.,0.));
#965=CARTESIAN_POINT('',(0.100000000000003,0.,0.));
#966=CARTESIAN_POINT('',(0.100000000000003,0.,-3.1));
#967=CARTESIAN_POINT('',(0.699999999999999,0.,0.));
#968=CARTESIAN_POINT('',(0.699999999999999,0.,3.1));
#969=CARTESIAN_POINT('',(0.,0.,3.1));
#970=CARTESIAN_POINT('',(0.,0.,0.));
#971=CARTESIAN_POINT('',(0.,0.,-2.4));
#972=CARTESIAN_POINT('',(0.,0.,0.));
#973=CARTESIAN_POINT('',(0.,0.,-3.));
#974=CARTESIAN_POINT('',(5.,-150.,0.));
#975=CARTESIAN_POINT('',(5.,-150.,0.4));
#976=CARTESIAN_POINT('',(5.00000000000001,-150.,-0.400000000000001));
#977=CARTESIAN_POINT('',(8.00000000000001,-150.,-0.4));
#978=CARTESIAN_POINT('',(7.9,-2.56904651573302,-0.400000000000009));
#979=CARTESIAN_POINT('',(7.95315901716192,-2.56904651573302,-0.400000000000009));
#980=CARTESIAN_POINT('',(8.00000000000074,-2.52093314467838,-0.4));
#981=CARTESIAN_POINT('',(8.00000000000085,-2.46779253585081,-0.4));
#982=CARTESIAN_POINT('',(7.2,-2.46779253585061,-0.4));
#983=CARTESIAN_POINT('',(7.2,-2.52094409811741,-0.4));
#984=CARTESIAN_POINT('',(7.24682911030666,-2.56904651573326,-0.4));
#985=CARTESIAN_POINT('',(7.29999999999994,-2.5690465157333,-0.4));
#986=CARTESIAN_POINT('',(5.,-150.,0.4));
#987=CARTESIAN_POINT('',(7.3,-2.56904651573303,0.400000000000001));
#988=CARTESIAN_POINT('',(7.24684098283808,-2.56904651573303,0.400000000000001));
#989=CARTESIAN_POINT('',(7.19999999999926,-2.52093314467838,0.4));
#990=CARTESIAN_POINT('',(7.19999999999916,-2.46779253585081,0.4));
#991=CARTESIAN_POINT('',(8.,-2.46779253585061,0.4));
#992=CARTESIAN_POINT('',(8.,-2.5209440981174,0.4));
#993=CARTESIAN_POINT('',(7.95317088969334,-2.56904651573327,0.4));
#994=CARTESIAN_POINT('',(7.90000000000006,-2.5690465157333,0.4));
#995=CARTESIAN_POINT('',(5.,-150.,0.4));
#996=CARTESIAN_POINT('',(7.2,2.46779253585061,0.4));
#997=CARTESIAN_POINT('',(7.2,2.52094409811741,0.4));
#998=CARTESIAN_POINT('',(7.24682911030666,2.56904651573327,0.4));
#999=CARTESIAN_POINT('',(7.29999999999994,2.5690465157333,0.4));
#1000=CARTESIAN_POINT('',(7.9,2.56904651573303,0.400000000000001));
#1001=CARTESIAN_POINT('',(7.95315901716192,2.56904651573303,0.400000000000001));
#1002=CARTESIAN_POINT('',(8.00000000000074,2.52093314467838,0.4));
#1003=CARTESIAN_POINT('',(8.00000000000085,2.46779253585081,0.4));
#1004=CARTESIAN_POINT('',(5.,-150.,0.4));
#1005=CARTESIAN_POINT('',(8.00000000000001,-150.,-0.4));
#1006=CARTESIAN_POINT('',(8.,2.46779253585061,-0.4));
#1007=CARTESIAN_POINT('',(8.,2.5209440981174,-0.4));
#1008=CARTESIAN_POINT('',(7.95317088969334,2.56904651573327,-0.4));
#1009=CARTESIAN_POINT('',(7.90000000000006,2.5690465157333,-0.4));
#1010=CARTESIAN_POINT('',(7.3,2.56904651573302,-0.400000000000009));
#1011=CARTESIAN_POINT('',(7.24684098283808,2.56904651573302,-0.400000000000009));
#1012=CARTESIAN_POINT('',(7.19999999999926,2.52093314467838,-0.4));
#1013=CARTESIAN_POINT('',(7.19999999999916,2.46779253585081,-0.4));
#1014=CARTESIAN_POINT('',(5.00000000000001,-150.,-0.400000000000001));
#1015=CARTESIAN_POINT('',(5.,-150.,0.));
#1016=CARTESIAN_POINT('',(0.699999999999999,0.,0.));
#1017=CARTESIAN_POINT('',(0.100000000000003,0.,0.));
#1018=CARTESIAN_POINT('',(7.3,0.,0.));
#1019=CARTESIAN_POINT('',(7.9,0.,0.));
#1020=CARTESIAN_POINT('',(7.9,0.,0.));
#1021=CARTESIAN_POINT('',(7.3,0.,0.));
#1022=CARTESIAN_POINT('',(2.3,-0.4,20.));
#1023=CARTESIAN_POINT('',(2.3,-0.400000000000001,20.));
#1024=CARTESIAN_POINT('',(2.3,-2.71050543121376E-16,20.));
#1025=CARTESIAN_POINT('',(2.3,0.4,20.));
#1026=CARTESIAN_POINT('',(0.799999999999998,0.4,20.));
#1027=CARTESIAN_POINT('',(2.3,-2.71050543121376E-16,20.));
#1028=CARTESIAN_POINT('',(2.3,-0.400000000000001,20.));
#1029=CARTESIAN_POINT('',(2.3,0.4,20.));
#1030=CARTESIAN_POINT('',(0.799999999999998,0.4,20.));
#1031=CARTESIAN_POINT('',(2.3,-0.4,20.));
#1032=CARTESIAN_POINT('',(57.,0.,0.));
#1033=CARTESIAN_POINT('',(-1.6,0.,0.));
#1034=CARTESIAN_POINT('',(-1.6,2.4,0.));
#1035=CARTESIAN_POINT('',(-1.6,0.,0.));
#1036=CARTESIAN_POINT('',(-1.6,0.,0.));
#1037=CARTESIAN_POINT('',(-1.6,2.,0.));
#1038=CARTESIAN_POINT('',(-0.799999999999996,0.,0.));
#1039=CARTESIAN_POINT('',(-0.799999999999996,0.,-2.));
#1040=CARTESIAN_POINT('',(-1.6,0.,0.));
#1041=CARTESIAN_POINT('',(-0.799999999999996,0.,0.));
#1042=MECHANICAL_DESIGN_GEOMETRIC_PRESENTATION_REPRESENTATION('',(#591),
#1043);
#1043=(
GEOMETRIC_REPRESENTATION_CONTEXT(3)
GLOBAL_UNCERTAINTY_ASSIGNED_CONTEXT((#1044))
GLOBAL_UNIT_ASSIGNED_CONTEXT((#1047,#1046,#1045))
REPRESENTATION_CONTEXT('ClGray_4211483_MCM','TOP_LEVEL_ASSEMBLY_PART')
);
#1044=UNCERTAINTY_MEASURE_WITH_UNIT(LENGTH_MEASURE(0.005),#1047,
'DISTANCE_ACCURACY_VALUE','Maximum Tolerance applied to model');
#1045=(
NAMED_UNIT(*)
SI_UNIT($,.STERADIAN.)
SOLID_ANGLE_UNIT()
);
#1046=(
NAMED_UNIT(*)
PLANE_ANGLE_UNIT()
SI_UNIT($,.RADIAN.)
);
#1047=(
LENGTH_UNIT()
NAMED_UNIT(*)
SI_UNIT(.MILLI.,.METRE.)
);
#1048=PRODUCT_DEFINITION_SHAPE('','',#1049);
#1049=PRODUCT_DEFINITION('','',#1051,#1050);
#1050=PRODUCT_DEFINITION_CONTEXT('',#1057,'design');
#1051=PRODUCT_DEFINITION_FORMATION_WITH_SPECIFIED_SOURCE('','',#1053,
 .NOT_KNOWN.);
#1052=PRODUCT_RELATED_PRODUCT_CATEGORY('','',(#1053));
#1053=PRODUCT('ClGray_4211483_MCM','ClGray_4211483_MCM',
'ClGray_4211483_MCM',(#1055));
#1054=PRODUCT_CATEGORY('','');
#1055=PRODUCT_CONTEXT('',#1057,'mechanical');
#1056=APPLICATION_PROTOCOL_DEFINITION('international standard',
'automotive_design',2010,#1057);
#1057=APPLICATION_CONTEXT(
'core data for automotive mechanical design processes');
ENDSEC;
END-ISO-10303-21;
