ISO-10303-21;
HEADER;
/* Generated by software containing ST-Developer
 * from STEP Tools, Inc. (www.steptools.com) 
 */
/* OPTION: strings as raw bytes, not using required /X/ escapes */

FILE_DESCRIPTION(
/* description */ ('Unknown'),
/* implementation_level */ '2;1');

FILE_NAME(
/* name */ 'ClGray_4211550_JCA',
/* time_stamp */ '2025-07-21T23:50:52+02:00',
/* author */ ('Unknown'),
/* organization */ ('Unknown'),
/* preprocessor_version */ 'ST-DEVELOPER v19.4',
/* originating_system */ 'Solid Edge',
/* authorisation */ 'Unknown');

FILE_SCHEMA (('AUTOMOTIVE_DESIGN {1 0 10303 214 3 1 1}'));
ENDSEC;

DATA;
#10=PROPERTY_DEFINITION_REPRESENTATION(#14,#12);
#11=PROPERTY_DEFINITION_REPRESENTATION(#15,#13);
#12=REPRESENTATION('',(#16),#1609);
#13=REPRESENTATION('',(#17),#1609);
#14=PROPERTY_DEFINITION('pmi validation property','',#1614);
#15=PROPERTY_DEFINITION('pmi validation property','',#1614);
#16=VALUE_REPRESENTATION_ITEM('number of annotations',COUNT_MEASURE(0.));
#17=VALUE_REPRESENTATION_ITEM('number of views',COUNT_MEASURE(0.));
#18=SHAPE_REPRESENTATION_RELATIONSHIP('','',#929,#19);
#19=ADVANCED_BREP_SHAPE_REPRESENTATION('',(#927),#1609);
#20=PLANE('',#934);
#21=PLANE('',#936);
#22=PLANE('',#938);
#23=PLANE('',#944);
#24=PLANE('',#946);
#25=PLANE('',#948);
#26=PLANE('',#953);
#27=PLANE('',#955);
#28=PLANE('',#957);
#29=PLANE('',#963);
#30=PLANE('',#965);
#31=PLANE('',#970);
#32=PLANE('',#971);
#33=PLANE('',#975);
#34=PLANE('',#976);
#35=PLANE('',#980);
#36=PLANE('',#981);
#37=PLANE('',#985);
#38=PLANE('',#986);
#39=PLANE('',#987);
#40=PLANE('',#989);
#41=PLANE('',#1026);
#42=PLANE('',#1030);
#43=PLANE('',#1032);
#44=PLANE('',#1036);
#45=PLANE('',#1040);
#46=ELLIPSE('',#933,5.09116882454314,3.6);
#47=ELLIPSE('',#935,9.81839824631233,3.6);
#48=ELLIPSE('',#937,5.09116882454314,3.6);
#49=ELLIPSE('',#939,3.86948831649066,3.6);
#50=ELLIPSE('',#942,5.09116882454314,3.6);
#51=ELLIPSE('',#943,5.09116882454314,3.6);
#52=ELLIPSE('',#945,3.86948831649066,3.6);
#53=ELLIPSE('',#947,5.09116882454314,3.6);
#54=ELLIPSE('',#949,9.81839824631231,3.6);
#55=ELLIPSE('',#952,5.09116882454314,3.6);
#56=ELLIPSE('',#954,9.81839824631231,3.6);
#57=ELLIPSE('',#956,5.09116882454315,3.6);
#58=ELLIPSE('',#958,3.86948831649065,3.6);
#59=ELLIPSE('',#961,5.09116882454314,3.6);
#60=ELLIPSE('',#962,5.09116882454314,3.6);
#61=ELLIPSE('',#964,3.86948831649066,3.6);
#62=ELLIPSE('',#966,5.09116882454314,3.6);
#63=ELLIPSE('',#988,9.81839824631237,3.6);
#64=LINE('',#1342,#132);
#65=LINE('',#1346,#133);
#66=LINE('',#1348,#134);
#67=LINE('',#1350,#135);
#68=LINE('',#1354,#136);
#69=LINE('',#1356,#137);
#70=LINE('',#1360,#138);
#71=LINE('',#1362,#139);
#72=LINE('',#1368,#140);
#73=LINE('',#1374,#141);
#74=LINE('',#1376,#142);
#75=LINE('',#1380,#143);
#76=LINE('',#1382,#144);
#77=LINE('',#1386,#145);
#78=LINE('',#1388,#146);
#79=LINE('',#1394,#147);
#80=LINE('',#1398,#148);
#81=LINE('',#1400,#149);
#82=LINE('',#1404,#150);
#83=LINE('',#1406,#151);
#84=LINE('',#1410,#152);
#85=LINE('',#1412,#153);
#86=LINE('',#1418,#154);
#87=LINE('',#1424,#155);
#88=LINE('',#1426,#156);
#89=LINE('',#1430,#157);
#90=LINE('',#1432,#158);
#91=LINE('',#1439,#159);
#92=LINE('',#1443,#160);
#93=LINE('',#1445,#161);
#94=LINE('',#1448,#162);
#95=LINE('',#1450,#163);
#96=LINE('',#1452,#164);
#97=LINE('',#1454,#165);
#98=LINE('',#1457,#166);
#99=LINE('',#1459,#167);
#100=LINE('',#1461,#168);
#101=LINE('',#1466,#169);
#102=LINE('',#1470,#170);
#103=LINE('',#1472,#171);
#104=LINE('',#1475,#172);
#105=LINE('',#1477,#173);
#106=LINE('',#1479,#174);
#107=LINE('',#1481,#175);
#108=LINE('',#1484,#176);
#109=LINE('',#1486,#177);
#110=LINE('',#1488,#178);
#111=LINE('',#1493,#179);
#112=LINE('',#1497,#180);
#113=LINE('',#1499,#181);
#114=LINE('',#1502,#182);
#115=LINE('',#1504,#183);
#116=LINE('',#1506,#184);
#117=LINE('',#1508,#185);
#118=LINE('',#1511,#186);
#119=LINE('',#1513,#187);
#120=LINE('',#1515,#188);
#121=LINE('',#1520,#189);
#122=LINE('',#1524,#190);
#123=LINE('',#1526,#191);
#124=LINE('',#1529,#192);
#125=LINE('',#1531,#193);
#126=LINE('',#1533,#194);
#127=LINE('',#1535,#195);
#128=LINE('',#1538,#196);
#129=LINE('',#1540,#197);
#130=LINE('',#1542,#198);
#131=LINE('',#1544,#199);
#132=VECTOR('',#1049,1000.);
#133=VECTOR('',#1052,1000.);
#134=VECTOR('',#1055,1000.);
#135=VECTOR('',#1056,1000.);
#136=VECTOR('',#1061,1000.);
#137=VECTOR('',#1062,1000.);
#138=VECTOR('',#1067,1000.);
#139=VECTOR('',#1068,1000.);
#140=VECTOR('',#1075,1000.);
#141=VECTOR('',#1082,1000.);
#142=VECTOR('',#1083,1000.);
#143=VECTOR('',#1088,1000.);
#144=VECTOR('',#1089,1000.);
#145=VECTOR('',#1094,1000.);
#146=VECTOR('',#1095,1000.);
#147=VECTOR('',#1102,1000.);
#148=VECTOR('',#1107,1000.);
#149=VECTOR('',#1108,1000.);
#150=VECTOR('',#1113,1000.);
#151=VECTOR('',#1114,1000.);
#152=VECTOR('',#1119,1000.);
#153=VECTOR('',#1120,1000.);
#154=VECTOR('',#1127,1000.);
#155=VECTOR('',#1134,1000.);
#156=VECTOR('',#1135,1000.);
#157=VECTOR('',#1140,1000.);
#158=VECTOR('',#1141,1000.);
#159=VECTOR('',#1148,1000.);
#160=VECTOR('',#1151,1000.);
#161=VECTOR('',#1154,1000.);
#162=VECTOR('',#1155,1000.);
#163=VECTOR('',#1156,1000.);
#164=VECTOR('',#1157,1000.);
#165=VECTOR('',#1160,1000.);
#166=VECTOR('',#1161,1000.);
#167=VECTOR('',#1162,1000.);
#168=VECTOR('',#1163,1000.);
#169=VECTOR('',#1168,1000.);
#170=VECTOR('',#1171,1000.);
#171=VECTOR('',#1174,1000.);
#172=VECTOR('',#1175,1000.);
#173=VECTOR('',#1176,1000.);
#174=VECTOR('',#1177,1000.);
#175=VECTOR('',#1180,1000.);
#176=VECTOR('',#1181,1000.);
#177=VECTOR('',#1182,1000.);
#178=VECTOR('',#1183,1000.);
#179=VECTOR('',#1188,1000.);
#180=VECTOR('',#1191,1000.);
#181=VECTOR('',#1194,1000.);
#182=VECTOR('',#1195,1000.);
#183=VECTOR('',#1196,1000.);
#184=VECTOR('',#1197,1000.);
#185=VECTOR('',#1200,1000.);
#186=VECTOR('',#1201,1000.);
#187=VECTOR('',#1202,1000.);
#188=VECTOR('',#1203,1000.);
#189=VECTOR('',#1208,1000.);
#190=VECTOR('',#1211,1000.);
#191=VECTOR('',#1214,1000.);
#192=VECTOR('',#1215,1000.);
#193=VECTOR('',#1216,1000.);
#194=VECTOR('',#1217,1000.);
#195=VECTOR('',#1220,1000.);
#196=VECTOR('',#1221,1000.);
#197=VECTOR('',#1222,1000.);
#198=VECTOR('',#1223,1000.);
#199=VECTOR('',#1226,1000.);
#200=ORIENTED_EDGE('',*,*,#460,.T.);
#201=ORIENTED_EDGE('',*,*,#461,.F.);
#202=ORIENTED_EDGE('',*,*,#462,.F.);
#203=ORIENTED_EDGE('',*,*,#463,.T.);
#204=ORIENTED_EDGE('',*,*,#464,.T.);
#205=ORIENTED_EDGE('',*,*,#465,.F.);
#206=ORIENTED_EDGE('',*,*,#466,.F.);
#207=ORIENTED_EDGE('',*,*,#461,.T.);
#208=ORIENTED_EDGE('',*,*,#467,.T.);
#209=ORIENTED_EDGE('',*,*,#468,.F.);
#210=ORIENTED_EDGE('',*,*,#469,.F.);
#211=ORIENTED_EDGE('',*,*,#465,.T.);
#212=ORIENTED_EDGE('',*,*,#470,.T.);
#213=ORIENTED_EDGE('',*,*,#471,.F.);
#214=ORIENTED_EDGE('',*,*,#472,.F.);
#215=ORIENTED_EDGE('',*,*,#468,.T.);
#216=ORIENTED_EDGE('',*,*,#473,.T.);
#217=ORIENTED_EDGE('',*,*,#474,.F.);
#218=ORIENTED_EDGE('',*,*,#475,.F.);
#219=ORIENTED_EDGE('',*,*,#476,.F.);
#220=ORIENTED_EDGE('',*,*,#471,.T.);
#221=ORIENTED_EDGE('',*,*,#477,.T.);
#222=ORIENTED_EDGE('',*,*,#478,.F.);
#223=ORIENTED_EDGE('',*,*,#479,.F.);
#224=ORIENTED_EDGE('',*,*,#474,.T.);
#225=ORIENTED_EDGE('',*,*,#480,.T.);
#226=ORIENTED_EDGE('',*,*,#481,.F.);
#227=ORIENTED_EDGE('',*,*,#482,.F.);
#228=ORIENTED_EDGE('',*,*,#478,.T.);
#229=ORIENTED_EDGE('',*,*,#483,.T.);
#230=ORIENTED_EDGE('',*,*,#484,.F.);
#231=ORIENTED_EDGE('',*,*,#485,.F.);
#232=ORIENTED_EDGE('',*,*,#481,.T.);
#233=ORIENTED_EDGE('',*,*,#486,.T.);
#234=ORIENTED_EDGE('',*,*,#487,.F.);
#235=ORIENTED_EDGE('',*,*,#488,.F.);
#236=ORIENTED_EDGE('',*,*,#484,.T.);
#237=ORIENTED_EDGE('',*,*,#489,.T.);
#238=ORIENTED_EDGE('',*,*,#490,.F.);
#239=ORIENTED_EDGE('',*,*,#491,.F.);
#240=ORIENTED_EDGE('',*,*,#487,.T.);
#241=ORIENTED_EDGE('',*,*,#492,.T.);
#242=ORIENTED_EDGE('',*,*,#493,.F.);
#243=ORIENTED_EDGE('',*,*,#494,.F.);
#244=ORIENTED_EDGE('',*,*,#490,.T.);
#245=ORIENTED_EDGE('',*,*,#495,.T.);
#246=ORIENTED_EDGE('',*,*,#496,.F.);
#247=ORIENTED_EDGE('',*,*,#497,.F.);
#248=ORIENTED_EDGE('',*,*,#493,.T.);
#249=ORIENTED_EDGE('',*,*,#498,.T.);
#250=ORIENTED_EDGE('',*,*,#499,.F.);
#251=ORIENTED_EDGE('',*,*,#500,.F.);
#252=ORIENTED_EDGE('',*,*,#501,.F.);
#253=ORIENTED_EDGE('',*,*,#496,.T.);
#254=ORIENTED_EDGE('',*,*,#502,.T.);
#255=ORIENTED_EDGE('',*,*,#503,.F.);
#256=ORIENTED_EDGE('',*,*,#504,.F.);
#257=ORIENTED_EDGE('',*,*,#499,.T.);
#258=ORIENTED_EDGE('',*,*,#505,.T.);
#259=ORIENTED_EDGE('',*,*,#506,.F.);
#260=ORIENTED_EDGE('',*,*,#507,.F.);
#261=ORIENTED_EDGE('',*,*,#503,.T.);
#262=ORIENTED_EDGE('',*,*,#508,.T.);
#263=ORIENTED_EDGE('',*,*,#509,.T.);
#264=ORIENTED_EDGE('',*,*,#510,.F.);
#265=ORIENTED_EDGE('',*,*,#511,.T.);
#266=ORIENTED_EDGE('',*,*,#512,.F.);
#267=ORIENTED_EDGE('',*,*,#513,.T.);
#268=ORIENTED_EDGE('',*,*,#514,.T.);
#269=ORIENTED_EDGE('',*,*,#515,.T.);
#270=ORIENTED_EDGE('',*,*,#516,.T.);
#271=ORIENTED_EDGE('',*,*,#517,.T.);
#272=ORIENTED_EDGE('',*,*,#518,.F.);
#273=ORIENTED_EDGE('',*,*,#519,.T.);
#274=ORIENTED_EDGE('',*,*,#520,.F.);
#275=ORIENTED_EDGE('',*,*,#521,.T.);
#276=ORIENTED_EDGE('',*,*,#522,.T.);
#277=ORIENTED_EDGE('',*,*,#523,.T.);
#278=ORIENTED_EDGE('',*,*,#524,.F.);
#279=ORIENTED_EDGE('',*,*,#525,.T.);
#280=ORIENTED_EDGE('',*,*,#526,.T.);
#281=ORIENTED_EDGE('',*,*,#527,.T.);
#282=ORIENTED_EDGE('',*,*,#528,.T.);
#283=ORIENTED_EDGE('',*,*,#529,.T.);
#284=ORIENTED_EDGE('',*,*,#530,.F.);
#285=ORIENTED_EDGE('',*,*,#531,.T.);
#286=ORIENTED_EDGE('',*,*,#532,.T.);
#287=ORIENTED_EDGE('',*,*,#533,.T.);
#288=ORIENTED_EDGE('',*,*,#534,.F.);
#289=ORIENTED_EDGE('',*,*,#535,.T.);
#290=ORIENTED_EDGE('',*,*,#536,.F.);
#291=ORIENTED_EDGE('',*,*,#537,.T.);
#292=ORIENTED_EDGE('',*,*,#538,.T.);
#293=ORIENTED_EDGE('',*,*,#539,.T.);
#294=ORIENTED_EDGE('',*,*,#540,.T.);
#295=ORIENTED_EDGE('',*,*,#541,.T.);
#296=ORIENTED_EDGE('',*,*,#542,.F.);
#297=ORIENTED_EDGE('',*,*,#543,.T.);
#298=ORIENTED_EDGE('',*,*,#544,.T.);
#299=ORIENTED_EDGE('',*,*,#545,.T.);
#300=ORIENTED_EDGE('',*,*,#546,.F.);
#301=ORIENTED_EDGE('',*,*,#547,.T.);
#302=ORIENTED_EDGE('',*,*,#548,.F.);
#303=ORIENTED_EDGE('',*,*,#549,.T.);
#304=ORIENTED_EDGE('',*,*,#550,.T.);
#305=ORIENTED_EDGE('',*,*,#551,.T.);
#306=ORIENTED_EDGE('',*,*,#552,.T.);
#307=ORIENTED_EDGE('',*,*,#553,.T.);
#308=ORIENTED_EDGE('',*,*,#554,.F.);
#309=ORIENTED_EDGE('',*,*,#555,.T.);
#310=ORIENTED_EDGE('',*,*,#556,.T.);
#311=ORIENTED_EDGE('',*,*,#463,.F.);
#312=ORIENTED_EDGE('',*,*,#557,.F.);
#313=ORIENTED_EDGE('',*,*,#506,.T.);
#314=ORIENTED_EDGE('',*,*,#516,.F.);
#315=ORIENTED_EDGE('',*,*,#558,.T.);
#316=ORIENTED_EDGE('',*,*,#514,.F.);
#317=ORIENTED_EDGE('',*,*,#559,.T.);
#318=ORIENTED_EDGE('',*,*,#508,.F.);
#319=ORIENTED_EDGE('',*,*,#560,.T.);
#320=ORIENTED_EDGE('',*,*,#552,.F.);
#321=ORIENTED_EDGE('',*,*,#561,.T.);
#322=ORIENTED_EDGE('',*,*,#550,.F.);
#323=ORIENTED_EDGE('',*,*,#562,.T.);
#324=ORIENTED_EDGE('',*,*,#544,.F.);
#325=ORIENTED_EDGE('',*,*,#563,.T.);
#326=ORIENTED_EDGE('',*,*,#540,.F.);
#327=ORIENTED_EDGE('',*,*,#564,.T.);
#328=ORIENTED_EDGE('',*,*,#538,.F.);
#329=ORIENTED_EDGE('',*,*,#565,.T.);
#330=ORIENTED_EDGE('',*,*,#532,.F.);
#331=ORIENTED_EDGE('',*,*,#566,.T.);
#332=ORIENTED_EDGE('',*,*,#528,.F.);
#333=ORIENTED_EDGE('',*,*,#567,.T.);
#334=ORIENTED_EDGE('',*,*,#526,.F.);
#335=ORIENTED_EDGE('',*,*,#568,.T.);
#336=ORIENTED_EDGE('',*,*,#522,.F.);
#337=ORIENTED_EDGE('',*,*,#569,.T.);
#338=ORIENTED_EDGE('',*,*,#460,.F.);
#339=ORIENTED_EDGE('',*,*,#556,.F.);
#340=ORIENTED_EDGE('',*,*,#505,.F.);
#341=ORIENTED_EDGE('',*,*,#502,.F.);
#342=ORIENTED_EDGE('',*,*,#498,.F.);
#343=ORIENTED_EDGE('',*,*,#495,.F.);
#344=ORIENTED_EDGE('',*,*,#492,.F.);
#345=ORIENTED_EDGE('',*,*,#489,.F.);
#346=ORIENTED_EDGE('',*,*,#486,.F.);
#347=ORIENTED_EDGE('',*,*,#483,.F.);
#348=ORIENTED_EDGE('',*,*,#480,.F.);
#349=ORIENTED_EDGE('',*,*,#477,.F.);
#350=ORIENTED_EDGE('',*,*,#473,.F.);
#351=ORIENTED_EDGE('',*,*,#470,.F.);
#352=ORIENTED_EDGE('',*,*,#467,.F.);
#353=ORIENTED_EDGE('',*,*,#464,.F.);
#354=ORIENTED_EDGE('',*,*,#570,.F.);
#355=ORIENTED_EDGE('',*,*,#527,.F.);
#356=ORIENTED_EDGE('',*,*,#567,.F.);
#357=ORIENTED_EDGE('',*,*,#531,.F.);
#358=ORIENTED_EDGE('',*,*,#571,.F.);
#359=ORIENTED_EDGE('',*,*,#551,.F.);
#360=ORIENTED_EDGE('',*,*,#561,.F.);
#361=ORIENTED_EDGE('',*,*,#555,.F.);
#362=ORIENTED_EDGE('',*,*,#572,.F.);
#363=ORIENTED_EDGE('',*,*,#539,.F.);
#364=ORIENTED_EDGE('',*,*,#564,.F.);
#365=ORIENTED_EDGE('',*,*,#543,.F.);
#366=ORIENTED_EDGE('',*,*,#573,.F.);
#367=ORIENTED_EDGE('',*,*,#515,.F.);
#368=ORIENTED_EDGE('',*,*,#558,.F.);
#369=ORIENTED_EDGE('',*,*,#519,.F.);
#370=ORIENTED_EDGE('',*,*,#574,.F.);
#371=ORIENTED_EDGE('',*,*,#523,.F.);
#372=ORIENTED_EDGE('',*,*,#568,.F.);
#373=ORIENTED_EDGE('',*,*,#525,.F.);
#374=ORIENTED_EDGE('',*,*,#575,.F.);
#375=ORIENTED_EDGE('',*,*,#529,.F.);
#376=ORIENTED_EDGE('',*,*,#566,.F.);
#377=ORIENTED_EDGE('',*,*,#535,.F.);
#378=ORIENTED_EDGE('',*,*,#576,.F.);
#379=ORIENTED_EDGE('',*,*,#533,.F.);
#380=ORIENTED_EDGE('',*,*,#565,.F.);
#381=ORIENTED_EDGE('',*,*,#537,.F.);
#382=ORIENTED_EDGE('',*,*,#577,.F.);
#383=ORIENTED_EDGE('',*,*,#541,.F.);
#384=ORIENTED_EDGE('',*,*,#563,.F.);
#385=ORIENTED_EDGE('',*,*,#547,.F.);
#386=ORIENTED_EDGE('',*,*,#578,.F.);
#387=ORIENTED_EDGE('',*,*,#545,.F.);
#388=ORIENTED_EDGE('',*,*,#562,.F.);
#389=ORIENTED_EDGE('',*,*,#549,.F.);
#390=ORIENTED_EDGE('',*,*,#579,.F.);
#391=ORIENTED_EDGE('',*,*,#553,.F.);
#392=ORIENTED_EDGE('',*,*,#560,.F.);
#393=ORIENTED_EDGE('',*,*,#511,.F.);
#394=ORIENTED_EDGE('',*,*,#580,.F.);
#395=ORIENTED_EDGE('',*,*,#509,.F.);
#396=ORIENTED_EDGE('',*,*,#559,.F.);
#397=ORIENTED_EDGE('',*,*,#513,.F.);
#398=ORIENTED_EDGE('',*,*,#581,.F.);
#399=ORIENTED_EDGE('',*,*,#517,.F.);
#400=ORIENTED_EDGE('',*,*,#569,.F.);
#401=ORIENTED_EDGE('',*,*,#521,.F.);
#402=ORIENTED_EDGE('',*,*,#542,.T.);
#403=ORIENTED_EDGE('',*,*,#577,.T.);
#404=ORIENTED_EDGE('',*,*,#546,.T.);
#405=ORIENTED_EDGE('',*,*,#578,.T.);
#406=ORIENTED_EDGE('',*,*,#548,.T.);
#407=ORIENTED_EDGE('',*,*,#571,.T.);
#408=ORIENTED_EDGE('',*,*,#554,.T.);
#409=ORIENTED_EDGE('',*,*,#579,.T.);
#410=ORIENTED_EDGE('',*,*,#510,.T.);
#411=ORIENTED_EDGE('',*,*,#580,.T.);
#412=ORIENTED_EDGE('',*,*,#512,.T.);
#413=ORIENTED_EDGE('',*,*,#573,.T.);
#414=ORIENTED_EDGE('',*,*,#518,.T.);
#415=ORIENTED_EDGE('',*,*,#581,.T.);
#416=ORIENTED_EDGE('',*,*,#520,.T.);
#417=ORIENTED_EDGE('',*,*,#574,.T.);
#418=ORIENTED_EDGE('',*,*,#524,.T.);
#419=ORIENTED_EDGE('',*,*,#570,.T.);
#420=ORIENTED_EDGE('',*,*,#530,.T.);
#421=ORIENTED_EDGE('',*,*,#575,.T.);
#422=ORIENTED_EDGE('',*,*,#534,.T.);
#423=ORIENTED_EDGE('',*,*,#576,.T.);
#424=ORIENTED_EDGE('',*,*,#536,.T.);
#425=ORIENTED_EDGE('',*,*,#572,.T.);
#426=ORIENTED_EDGE('',*,*,#501,.T.);
#427=ORIENTED_EDGE('',*,*,#500,.T.);
#428=ORIENTED_EDGE('',*,*,#504,.T.);
#429=ORIENTED_EDGE('',*,*,#507,.T.);
#430=ORIENTED_EDGE('',*,*,#557,.T.);
#431=ORIENTED_EDGE('',*,*,#462,.T.);
#432=ORIENTED_EDGE('',*,*,#466,.T.);
#433=ORIENTED_EDGE('',*,*,#469,.T.);
#434=ORIENTED_EDGE('',*,*,#472,.T.);
#435=ORIENTED_EDGE('',*,*,#476,.T.);
#436=ORIENTED_EDGE('',*,*,#475,.T.);
#437=ORIENTED_EDGE('',*,*,#479,.T.);
#438=ORIENTED_EDGE('',*,*,#482,.T.);
#439=ORIENTED_EDGE('',*,*,#485,.T.);
#440=ORIENTED_EDGE('',*,*,#488,.T.);
#441=ORIENTED_EDGE('',*,*,#491,.T.);
#442=ORIENTED_EDGE('',*,*,#494,.T.);
#443=ORIENTED_EDGE('',*,*,#497,.T.);
#444=ORIENTED_EDGE('',*,*,#582,.T.);
#445=ORIENTED_EDGE('',*,*,#583,.F.);
#446=ORIENTED_EDGE('',*,*,#584,.T.);
#447=ORIENTED_EDGE('',*,*,#582,.F.);
#448=ORIENTED_EDGE('',*,*,#585,.T.);
#449=ORIENTED_EDGE('',*,*,#583,.T.);
#450=ORIENTED_EDGE('',*,*,#586,.T.);
#451=ORIENTED_EDGE('',*,*,#584,.F.);
#452=ORIENTED_EDGE('',*,*,#587,.T.);
#453=ORIENTED_EDGE('',*,*,#586,.F.);
#454=ORIENTED_EDGE('',*,*,#588,.T.);
#455=ORIENTED_EDGE('',*,*,#585,.F.);
#456=ORIENTED_EDGE('',*,*,#589,.F.);
#457=ORIENTED_EDGE('',*,*,#588,.F.);
#458=ORIENTED_EDGE('',*,*,#587,.F.);
#459=ORIENTED_EDGE('',*,*,#589,.T.);
#460=EDGE_CURVE('',#590,#591,#680,.T.);
#461=EDGE_CURVE('',#592,#591,#64,.T.);
#462=EDGE_CURVE('',#593,#592,#46,.F.);
#463=EDGE_CURVE('',#593,#590,#65,.T.);
#464=EDGE_CURVE('',#591,#594,#66,.T.);
#465=EDGE_CURVE('',#595,#594,#67,.T.);
#466=EDGE_CURVE('',#592,#595,#47,.F.);
#467=EDGE_CURVE('',#594,#596,#68,.T.);
#468=EDGE_CURVE('',#597,#596,#69,.T.);
#469=EDGE_CURVE('',#595,#597,#48,.F.);
#470=EDGE_CURVE('',#596,#598,#70,.T.);
#471=EDGE_CURVE('',#599,#598,#71,.T.);
#472=EDGE_CURVE('',#597,#599,#49,.F.);
#473=EDGE_CURVE('',#598,#600,#681,.T.);
#474=EDGE_CURVE('',#601,#600,#72,.T.);
#475=EDGE_CURVE('',#602,#601,#50,.T.);
#476=EDGE_CURVE('',#599,#602,#51,.F.);
#477=EDGE_CURVE('',#600,#603,#73,.T.);
#478=EDGE_CURVE('',#604,#603,#74,.T.);
#479=EDGE_CURVE('',#601,#604,#52,.F.);
#480=EDGE_CURVE('',#603,#605,#75,.T.);
#481=EDGE_CURVE('',#606,#605,#76,.T.);
#482=EDGE_CURVE('',#604,#606,#53,.F.);
#483=EDGE_CURVE('',#605,#607,#77,.T.);
#484=EDGE_CURVE('',#608,#607,#78,.T.);
#485=EDGE_CURVE('',#606,#608,#54,.F.);
#486=EDGE_CURVE('',#607,#609,#682,.T.);
#487=EDGE_CURVE('',#610,#609,#79,.T.);
#488=EDGE_CURVE('',#608,#610,#55,.T.);
#489=EDGE_CURVE('',#609,#611,#80,.T.);
#490=EDGE_CURVE('',#612,#611,#81,.T.);
#491=EDGE_CURVE('',#610,#612,#56,.F.);
#492=EDGE_CURVE('',#611,#613,#82,.T.);
#493=EDGE_CURVE('',#614,#613,#83,.T.);
#494=EDGE_CURVE('',#612,#614,#57,.F.);
#495=EDGE_CURVE('',#613,#615,#84,.T.);
#496=EDGE_CURVE('',#616,#615,#85,.T.);
#497=EDGE_CURVE('',#614,#616,#58,.F.);
#498=EDGE_CURVE('',#615,#617,#683,.T.);
#499=EDGE_CURVE('',#618,#617,#86,.T.);
#500=EDGE_CURVE('',#619,#618,#59,.F.);
#501=EDGE_CURVE('',#616,#619,#60,.T.);
#502=EDGE_CURVE('',#617,#620,#87,.T.);
#503=EDGE_CURVE('',#621,#620,#88,.T.);
#504=EDGE_CURVE('',#618,#621,#61,.F.);
#505=EDGE_CURVE('',#620,#622,#89,.T.);
#506=EDGE_CURVE('',#623,#622,#90,.T.);
#507=EDGE_CURVE('',#621,#623,#62,.F.);
#508=EDGE_CURVE('',#624,#625,#684,.T.);
#509=EDGE_CURVE('',#625,#626,#91,.F.);
#510=EDGE_CURVE('',#627,#626,#685,.T.);
#511=EDGE_CURVE('',#627,#624,#92,.T.);
#512=EDGE_CURVE('',#628,#629,#93,.T.);
#513=EDGE_CURVE('',#628,#630,#94,.F.);
#514=EDGE_CURVE('',#630,#631,#95,.T.);
#515=EDGE_CURVE('',#631,#629,#96,.F.);
#516=EDGE_CURVE('',#632,#633,#97,.T.);
#517=EDGE_CURVE('',#633,#634,#98,.T.);
#518=EDGE_CURVE('',#635,#634,#99,.T.);
#519=EDGE_CURVE('',#635,#632,#100,.T.);
#520=EDGE_CURVE('',#636,#637,#686,.T.);
#521=EDGE_CURVE('',#636,#638,#101,.T.);
#522=EDGE_CURVE('',#638,#639,#687,.T.);
#523=EDGE_CURVE('',#639,#637,#102,.F.);
#524=EDGE_CURVE('',#640,#641,#103,.T.);
#525=EDGE_CURVE('',#640,#642,#104,.F.);
#526=EDGE_CURVE('',#642,#643,#105,.T.);
#527=EDGE_CURVE('',#643,#641,#106,.F.);
#528=EDGE_CURVE('',#644,#645,#107,.T.);
#529=EDGE_CURVE('',#645,#646,#108,.T.);
#530=EDGE_CURVE('',#647,#646,#109,.T.);
#531=EDGE_CURVE('',#647,#644,#110,.T.);
#532=EDGE_CURVE('',#648,#649,#688,.T.);
#533=EDGE_CURVE('',#649,#650,#111,.F.);
#534=EDGE_CURVE('',#651,#650,#689,.T.);
#535=EDGE_CURVE('',#651,#648,#112,.T.);
#536=EDGE_CURVE('',#652,#653,#113,.T.);
#537=EDGE_CURVE('',#652,#654,#114,.F.);
#538=EDGE_CURVE('',#654,#655,#115,.T.);
#539=EDGE_CURVE('',#655,#653,#116,.F.);
#540=EDGE_CURVE('',#656,#657,#117,.T.);
#541=EDGE_CURVE('',#657,#658,#118,.T.);
#542=EDGE_CURVE('',#659,#658,#119,.T.);
#543=EDGE_CURVE('',#659,#656,#120,.T.);
#544=EDGE_CURVE('',#660,#661,#690,.T.);
#545=EDGE_CURVE('',#661,#662,#121,.F.);
#546=EDGE_CURVE('',#663,#662,#691,.T.);
#547=EDGE_CURVE('',#663,#660,#122,.T.);
#548=EDGE_CURVE('',#664,#665,#123,.T.);
#549=EDGE_CURVE('',#664,#666,#124,.F.);
#550=EDGE_CURVE('',#666,#667,#125,.T.);
#551=EDGE_CURVE('',#667,#665,#126,.F.);
#552=EDGE_CURVE('',#668,#669,#127,.T.);
#553=EDGE_CURVE('',#669,#670,#128,.T.);
#554=EDGE_CURVE('',#671,#670,#129,.T.);
#555=EDGE_CURVE('',#671,#668,#130,.T.);
#556=EDGE_CURVE('',#622,#590,#131,.T.);
#557=EDGE_CURVE('',#623,#593,#63,.F.);
#558=EDGE_CURVE('',#632,#631,#692,.F.);
#559=EDGE_CURVE('',#630,#625,#693,.T.);
#560=EDGE_CURVE('',#624,#669,#694,.T.);
#561=EDGE_CURVE('',#668,#667,#695,.F.);
#562=EDGE_CURVE('',#666,#661,#696,.T.);
#563=EDGE_CURVE('',#660,#657,#697,.T.);
#564=EDGE_CURVE('',#656,#655,#698,.F.);
#565=EDGE_CURVE('',#654,#649,#699,.T.);
#566=EDGE_CURVE('',#648,#645,#700,.T.);
#567=EDGE_CURVE('',#644,#643,#701,.F.);
#568=EDGE_CURVE('',#642,#639,#702,.T.);
#569=EDGE_CURVE('',#638,#633,#703,.T.);
#570=EDGE_CURVE('',#641,#647,#704,.T.);
#571=EDGE_CURVE('',#665,#671,#705,.T.);
#572=EDGE_CURVE('',#653,#659,#706,.T.);
#573=EDGE_CURVE('',#629,#635,#707,.T.);
#574=EDGE_CURVE('',#637,#640,#708,.F.);
#575=EDGE_CURVE('',#646,#651,#709,.F.);
#576=EDGE_CURVE('',#650,#652,#710,.F.);
#577=EDGE_CURVE('',#658,#663,#711,.F.);
#578=EDGE_CURVE('',#662,#664,#712,.F.);
#579=EDGE_CURVE('',#670,#627,#713,.F.);
#580=EDGE_CURVE('',#626,#628,#714,.F.);
#581=EDGE_CURVE('',#634,#636,#715,.F.);
#582=EDGE_CURVE('',#672,#672,#716,.T.);
#583=EDGE_CURVE('',#673,#673,#717,.T.);
#584=EDGE_CURVE('',#674,#674,#718,.T.);
#585=EDGE_CURVE('',#675,#675,#719,.T.);
#586=EDGE_CURVE('',#676,#676,#720,.T.);
#587=EDGE_CURVE('',#677,#677,#721,.T.);
#588=EDGE_CURVE('',#678,#678,#722,.T.);
#589=EDGE_CURVE('',#679,#679,#723,.F.);
#590=VERTEX_POINT('',#1340);
#591=VERTEX_POINT('',#1341);
#592=VERTEX_POINT('',#1343);
#593=VERTEX_POINT('',#1345);
#594=VERTEX_POINT('',#1349);
#595=VERTEX_POINT('',#1351);
#596=VERTEX_POINT('',#1355);
#597=VERTEX_POINT('',#1357);
#598=VERTEX_POINT('',#1361);
#599=VERTEX_POINT('',#1363);
#600=VERTEX_POINT('',#1367);
#601=VERTEX_POINT('',#1369);
#602=VERTEX_POINT('',#1371);
#603=VERTEX_POINT('',#1375);
#604=VERTEX_POINT('',#1377);
#605=VERTEX_POINT('',#1381);
#606=VERTEX_POINT('',#1383);
#607=VERTEX_POINT('',#1387);
#608=VERTEX_POINT('',#1389);
#609=VERTEX_POINT('',#1393);
#610=VERTEX_POINT('',#1395);
#611=VERTEX_POINT('',#1399);
#612=VERTEX_POINT('',#1401);
#613=VERTEX_POINT('',#1405);
#614=VERTEX_POINT('',#1407);
#615=VERTEX_POINT('',#1411);
#616=VERTEX_POINT('',#1413);
#617=VERTEX_POINT('',#1417);
#618=VERTEX_POINT('',#1419);
#619=VERTEX_POINT('',#1421);
#620=VERTEX_POINT('',#1425);
#621=VERTEX_POINT('',#1427);
#622=VERTEX_POINT('',#1431);
#623=VERTEX_POINT('',#1433);
#624=VERTEX_POINT('',#1437);
#625=VERTEX_POINT('',#1438);
#626=VERTEX_POINT('',#1440);
#627=VERTEX_POINT('',#1442);
#628=VERTEX_POINT('',#1446);
#629=VERTEX_POINT('',#1447);
#630=VERTEX_POINT('',#1449);
#631=VERTEX_POINT('',#1451);
#632=VERTEX_POINT('',#1455);
#633=VERTEX_POINT('',#1456);
#634=VERTEX_POINT('',#1458);
#635=VERTEX_POINT('',#1460);
#636=VERTEX_POINT('',#1464);
#637=VERTEX_POINT('',#1465);
#638=VERTEX_POINT('',#1467);
#639=VERTEX_POINT('',#1469);
#640=VERTEX_POINT('',#1473);
#641=VERTEX_POINT('',#1474);
#642=VERTEX_POINT('',#1476);
#643=VERTEX_POINT('',#1478);
#644=VERTEX_POINT('',#1482);
#645=VERTEX_POINT('',#1483);
#646=VERTEX_POINT('',#1485);
#647=VERTEX_POINT('',#1487);
#648=VERTEX_POINT('',#1491);
#649=VERTEX_POINT('',#1492);
#650=VERTEX_POINT('',#1494);
#651=VERTEX_POINT('',#1496);
#652=VERTEX_POINT('',#1500);
#653=VERTEX_POINT('',#1501);
#654=VERTEX_POINT('',#1503);
#655=VERTEX_POINT('',#1505);
#656=VERTEX_POINT('',#1509);
#657=VERTEX_POINT('',#1510);
#658=VERTEX_POINT('',#1512);
#659=VERTEX_POINT('',#1514);
#660=VERTEX_POINT('',#1518);
#661=VERTEX_POINT('',#1519);
#662=VERTEX_POINT('',#1521);
#663=VERTEX_POINT('',#1523);
#664=VERTEX_POINT('',#1527);
#665=VERTEX_POINT('',#1528);
#666=VERTEX_POINT('',#1530);
#667=VERTEX_POINT('',#1532);
#668=VERTEX_POINT('',#1536);
#669=VERTEX_POINT('',#1537);
#670=VERTEX_POINT('',#1539);
#671=VERTEX_POINT('',#1541);
#672=VERTEX_POINT('',#1586);
#673=VERTEX_POINT('',#1588);
#674=VERTEX_POINT('',#1591);
#675=VERTEX_POINT('',#1594);
#676=VERTEX_POINT('',#1597);
#677=VERTEX_POINT('',#1600);
#678=VERTEX_POINT('',#1603);
#679=VERTEX_POINT('',#1606);
#680=CIRCLE('',#932,3.6);
#681=CIRCLE('',#941,3.6);
#682=CIRCLE('',#951,3.6);
#683=CIRCLE('',#960,3.6);
#684=CIRCLE('',#968,2.4);
#685=CIRCLE('',#969,2.4);
#686=CIRCLE('',#973,2.4);
#687=CIRCLE('',#974,2.4);
#688=CIRCLE('',#978,2.4);
#689=CIRCLE('',#979,2.4);
#690=CIRCLE('',#983,2.4);
#691=CIRCLE('',#984,2.4);
#692=CIRCLE('',#990,0.5);
#693=CIRCLE('',#991,0.1);
#694=CIRCLE('',#992,0.1);
#695=CIRCLE('',#993,0.5);
#696=CIRCLE('',#994,0.1);
#697=CIRCLE('',#995,0.1);
#698=CIRCLE('',#996,0.5);
#699=CIRCLE('',#997,0.1);
#700=CIRCLE('',#998,0.1);
#701=CIRCLE('',#999,0.5);
#702=CIRCLE('',#1000,0.1);
#703=CIRCLE('',#1001,0.1);
#704=CIRCLE('',#1003,0.5);
#705=CIRCLE('',#1005,0.5);
#706=CIRCLE('',#1007,0.5);
#707=CIRCLE('',#1009,0.5);
#708=CIRCLE('',#1011,0.1);
#709=CIRCLE('',#1013,0.1);
#710=CIRCLE('',#1015,0.1);
#711=CIRCLE('',#1017,0.1);
#712=CIRCLE('',#1019,0.1);
#713=CIRCLE('',#1021,0.1);
#714=CIRCLE('',#1023,0.1);
#715=CIRCLE('',#1025,0.1);
#716=CIRCLE('',#1028,3.6);
#717=CIRCLE('',#1029,3.6);
#718=CIRCLE('',#1031,3.1);
#719=CIRCLE('',#1033,3.1);
#720=CIRCLE('',#1035,3.1);
#721=CIRCLE('',#1037,2.4);
#722=CIRCLE('',#1039,3.1);
#723=CIRCLE('',#1041,2.4);
#724=EDGE_LOOP('',(#200,#201,#202,#203));
#725=EDGE_LOOP('',(#204,#205,#206,#207));
#726=EDGE_LOOP('',(#208,#209,#210,#211));
#727=EDGE_LOOP('',(#212,#213,#214,#215));
#728=EDGE_LOOP('',(#216,#217,#218,#219,#220));
#729=EDGE_LOOP('',(#221,#222,#223,#224));
#730=EDGE_LOOP('',(#225,#226,#227,#228));
#731=EDGE_LOOP('',(#229,#230,#231,#232));
#732=EDGE_LOOP('',(#233,#234,#235,#236));
#733=EDGE_LOOP('',(#237,#238,#239,#240));
#734=EDGE_LOOP('',(#241,#242,#243,#244));
#735=EDGE_LOOP('',(#245,#246,#247,#248));
#736=EDGE_LOOP('',(#249,#250,#251,#252,#253));
#737=EDGE_LOOP('',(#254,#255,#256,#257));
#738=EDGE_LOOP('',(#258,#259,#260,#261));
#739=EDGE_LOOP('',(#262,#263,#264,#265));
#740=EDGE_LOOP('',(#266,#267,#268,#269));
#741=EDGE_LOOP('',(#270,#271,#272,#273));
#742=EDGE_LOOP('',(#274,#275,#276,#277));
#743=EDGE_LOOP('',(#278,#279,#280,#281));
#744=EDGE_LOOP('',(#282,#283,#284,#285));
#745=EDGE_LOOP('',(#286,#287,#288,#289));
#746=EDGE_LOOP('',(#290,#291,#292,#293));
#747=EDGE_LOOP('',(#294,#295,#296,#297));
#748=EDGE_LOOP('',(#298,#299,#300,#301));
#749=EDGE_LOOP('',(#302,#303,#304,#305));
#750=EDGE_LOOP('',(#306,#307,#308,#309));
#751=EDGE_LOOP('',(#310,#311,#312,#313));
#752=EDGE_LOOP('',(#314,#315,#316,#317,#318,#319,#320,#321,#322,#323,#324,
#325,#326,#327,#328,#329,#330,#331,#332,#333,#334,#335,#336,#337));
#753=EDGE_LOOP('',(#338,#339,#340,#341,#342,#343,#344,#345,#346,#347,#348,
#349,#350,#351,#352,#353));
#754=EDGE_LOOP('',(#354,#355,#356,#357));
#755=EDGE_LOOP('',(#358,#359,#360,#361));
#756=EDGE_LOOP('',(#362,#363,#364,#365));
#757=EDGE_LOOP('',(#366,#367,#368,#369));
#758=EDGE_LOOP('',(#370,#371,#372,#373));
#759=EDGE_LOOP('',(#374,#375,#376,#377));
#760=EDGE_LOOP('',(#378,#379,#380,#381));
#761=EDGE_LOOP('',(#382,#383,#384,#385));
#762=EDGE_LOOP('',(#386,#387,#388,#389));
#763=EDGE_LOOP('',(#390,#391,#392,#393));
#764=EDGE_LOOP('',(#394,#395,#396,#397));
#765=EDGE_LOOP('',(#398,#399,#400,#401));
#766=EDGE_LOOP('',(#402,#403,#404,#405,#406,#407,#408,#409,#410,#411,#412,
#413,#414,#415,#416,#417,#418,#419,#420,#421,#422,#423,#424,#425));
#767=EDGE_LOOP('',(#426,#427,#428,#429,#430,#431,#432,#433,#434,#435,#436,
#437,#438,#439,#440,#441,#442,#443));
#768=EDGE_LOOP('',(#444));
#769=EDGE_LOOP('',(#445));
#770=EDGE_LOOP('',(#446));
#771=EDGE_LOOP('',(#447));
#772=EDGE_LOOP('',(#448));
#773=EDGE_LOOP('',(#449));
#774=EDGE_LOOP('',(#450));
#775=EDGE_LOOP('',(#451));
#776=EDGE_LOOP('',(#452));
#777=EDGE_LOOP('',(#453));
#778=EDGE_LOOP('',(#454));
#779=EDGE_LOOP('',(#455));
#780=EDGE_LOOP('',(#456));
#781=EDGE_LOOP('',(#457));
#782=EDGE_LOOP('',(#458));
#783=EDGE_LOOP('',(#459));
#784=FACE_BOUND('',#724,.T.);
#785=FACE_BOUND('',#725,.T.);
#786=FACE_BOUND('',#726,.T.);
#787=FACE_BOUND('',#727,.T.);
#788=FACE_BOUND('',#728,.T.);
#789=FACE_BOUND('',#729,.T.);
#790=FACE_BOUND('',#730,.T.);
#791=FACE_BOUND('',#731,.T.);
#792=FACE_BOUND('',#732,.T.);
#793=FACE_BOUND('',#733,.T.);
#794=FACE_BOUND('',#734,.T.);
#795=FACE_BOUND('',#735,.T.);
#796=FACE_BOUND('',#736,.T.);
#797=FACE_BOUND('',#737,.T.);
#798=FACE_BOUND('',#738,.T.);
#799=FACE_BOUND('',#739,.T.);
#800=FACE_BOUND('',#740,.T.);
#801=FACE_BOUND('',#741,.T.);
#802=FACE_BOUND('',#742,.T.);
#803=FACE_BOUND('',#743,.T.);
#804=FACE_BOUND('',#744,.T.);
#805=FACE_BOUND('',#745,.T.);
#806=FACE_BOUND('',#746,.T.);
#807=FACE_BOUND('',#747,.T.);
#808=FACE_BOUND('',#748,.T.);
#809=FACE_BOUND('',#749,.T.);
#810=FACE_BOUND('',#750,.T.);
#811=FACE_BOUND('',#751,.T.);
#812=FACE_BOUND('',#752,.T.);
#813=FACE_BOUND('',#753,.T.);
#814=FACE_BOUND('',#754,.T.);
#815=FACE_BOUND('',#755,.T.);
#816=FACE_BOUND('',#756,.T.);
#817=FACE_BOUND('',#757,.T.);
#818=FACE_BOUND('',#758,.T.);
#819=FACE_BOUND('',#759,.T.);
#820=FACE_BOUND('',#760,.T.);
#821=FACE_BOUND('',#761,.T.);
#822=FACE_BOUND('',#762,.T.);
#823=FACE_BOUND('',#763,.T.);
#824=FACE_BOUND('',#764,.T.);
#825=FACE_BOUND('',#765,.T.);
#826=FACE_BOUND('',#766,.T.);
#827=FACE_BOUND('',#767,.T.);
#828=FACE_BOUND('',#768,.T.);
#829=FACE_BOUND('',#769,.T.);
#830=FACE_BOUND('',#770,.T.);
#831=FACE_BOUND('',#771,.T.);
#832=FACE_BOUND('',#772,.T.);
#833=FACE_BOUND('',#773,.T.);
#834=FACE_BOUND('',#774,.T.);
#835=FACE_BOUND('',#775,.T.);
#836=FACE_BOUND('',#776,.T.);
#837=FACE_BOUND('',#777,.T.);
#838=FACE_BOUND('',#778,.T.);
#839=FACE_BOUND('',#779,.T.);
#840=FACE_BOUND('',#780,.T.);
#841=FACE_BOUND('',#781,.T.);
#842=FACE_BOUND('',#782,.T.);
#843=FACE_BOUND('',#783,.T.);
#844=CYLINDRICAL_SURFACE('',#931,3.6);
#845=CYLINDRICAL_SURFACE('',#940,3.6);
#846=CYLINDRICAL_SURFACE('',#950,3.6);
#847=CYLINDRICAL_SURFACE('',#959,3.6);
#848=CYLINDRICAL_SURFACE('',#967,2.4);
#849=CYLINDRICAL_SURFACE('',#972,2.4);
#850=CYLINDRICAL_SURFACE('',#977,2.4);
#851=CYLINDRICAL_SURFACE('',#982,2.4);
#852=CYLINDRICAL_SURFACE('',#1002,0.5);
#853=CYLINDRICAL_SURFACE('',#1004,0.5);
#854=CYLINDRICAL_SURFACE('',#1006,0.5);
#855=CYLINDRICAL_SURFACE('',#1008,0.5);
#856=CYLINDRICAL_SURFACE('',#1010,0.1);
#857=CYLINDRICAL_SURFACE('',#1012,0.1);
#858=CYLINDRICAL_SURFACE('',#1014,0.1);
#859=CYLINDRICAL_SURFACE('',#1016,0.1);
#860=CYLINDRICAL_SURFACE('',#1018,0.1);
#861=CYLINDRICAL_SURFACE('',#1020,0.1);
#862=CYLINDRICAL_SURFACE('',#1022,0.1);
#863=CYLINDRICAL_SURFACE('',#1024,0.1);
#864=CYLINDRICAL_SURFACE('',#1027,3.6);
#865=CYLINDRICAL_SURFACE('',#1034,3.1);
#866=CYLINDRICAL_SURFACE('',#1038,3.1);
#867=CYLINDRICAL_SURFACE('',#1042,2.4);
#868=ADVANCED_FACE('',(#784),#844,.T.);
#869=ADVANCED_FACE('',(#785),#20,.F.);
#870=ADVANCED_FACE('',(#786),#21,.F.);
#871=ADVANCED_FACE('',(#787),#22,.F.);
#872=ADVANCED_FACE('',(#788),#845,.T.);
#873=ADVANCED_FACE('',(#789),#23,.F.);
#874=ADVANCED_FACE('',(#790),#24,.F.);
#875=ADVANCED_FACE('',(#791),#25,.F.);
#876=ADVANCED_FACE('',(#792),#846,.T.);
#877=ADVANCED_FACE('',(#793),#26,.F.);
#878=ADVANCED_FACE('',(#794),#27,.F.);
#879=ADVANCED_FACE('',(#795),#28,.F.);
#880=ADVANCED_FACE('',(#796),#847,.T.);
#881=ADVANCED_FACE('',(#797),#29,.F.);
#882=ADVANCED_FACE('',(#798),#30,.F.);
#883=ADVANCED_FACE('',(#799),#848,.F.);
#884=ADVANCED_FACE('',(#800),#31,.F.);
#885=ADVANCED_FACE('',(#801),#32,.F.);
#886=ADVANCED_FACE('',(#802),#849,.F.);
#887=ADVANCED_FACE('',(#803),#33,.F.);
#888=ADVANCED_FACE('',(#804),#34,.F.);
#889=ADVANCED_FACE('',(#805),#850,.F.);
#890=ADVANCED_FACE('',(#806),#35,.F.);
#891=ADVANCED_FACE('',(#807),#36,.F.);
#892=ADVANCED_FACE('',(#808),#851,.F.);
#893=ADVANCED_FACE('',(#809),#37,.F.);
#894=ADVANCED_FACE('',(#810),#38,.F.);
#895=ADVANCED_FACE('',(#811),#39,.F.);
#896=ADVANCED_FACE('',(#812,#813),#40,.F.);
#897=ADVANCED_FACE('',(#814),#852,.T.);
#898=ADVANCED_FACE('',(#815),#853,.T.);
#899=ADVANCED_FACE('',(#816),#854,.T.);
#900=ADVANCED_FACE('',(#817),#855,.T.);
#901=ADVANCED_FACE('',(#818),#856,.F.);
#902=ADVANCED_FACE('',(#819),#857,.F.);
#903=ADVANCED_FACE('',(#820),#858,.F.);
#904=ADVANCED_FACE('',(#821),#859,.F.);
#905=ADVANCED_FACE('',(#822),#860,.F.);
#906=ADVANCED_FACE('',(#823),#861,.F.);
#907=ADVANCED_FACE('',(#824),#862,.F.);
#908=ADVANCED_FACE('',(#825),#863,.F.);
#909=ADVANCED_FACE('',(#826),#41,.F.);
#910=ADVANCED_FACE('',(#827,#828,#829),#864,.T.);
#911=ADVANCED_FACE('',(#830,#831),#42,.F.);
#912=ADVANCED_FACE('',(#832,#833),#43,.T.);
#913=ADVANCED_FACE('',(#834,#835),#865,.F.);
#914=ADVANCED_FACE('',(#836,#837),#44,.F.);
#915=ADVANCED_FACE('',(#838,#839),#866,.F.);
#916=ADVANCED_FACE('',(#840,#841),#45,.F.);
#917=ADVANCED_FACE('',(#842,#843),#867,.F.);
#918=CLOSED_SHELL('',(#868,#869,#870,#871,#872,#873,#874,#875,#876,#877,
#878,#879,#880,#881,#882,#883,#884,#885,#886,#887,#888,#889,#890,#891,#892,
#893,#894,#895,#896,#897,#898,#899,#900,#901,#902,#903,#904,#905,#906,#907,
#908,#909,#910,#911,#912,#913,#914,#915,#916,#917));
#919=STYLED_ITEM('',(#920),#927);
#920=PRESENTATION_STYLE_ASSIGNMENT((#921));
#921=SURFACE_STYLE_USAGE(.BOTH.,#922);
#922=SURFACE_SIDE_STYLE('',(#923));
#923=SURFACE_STYLE_FILL_AREA(#924);
#924=FILL_AREA_STYLE('',(#925));
#925=FILL_AREA_STYLE_COLOUR('',#926);
#926=COLOUR_RGB('',0.506983280181885,0.531564235687256,0.550000011920929);
#927=MANIFOLD_SOLID_BREP('',#918);
#928=SHAPE_DEFINITION_REPRESENTATION(#1614,#929);
#929=SHAPE_REPRESENTATION('ClGray_4211550_JCA',(#930),#1609);
#930=AXIS2_PLACEMENT_3D('',#1337,#1043,#1044);
#931=AXIS2_PLACEMENT_3D('',#1338,#1045,#1046);
#932=AXIS2_PLACEMENT_3D('',#1339,#1047,#1048);
#933=AXIS2_PLACEMENT_3D('',#1344,#1050,#1051);
#934=AXIS2_PLACEMENT_3D('',#1347,#1053,#1054);
#935=AXIS2_PLACEMENT_3D('',#1352,#1057,#1058);
#936=AXIS2_PLACEMENT_3D('',#1353,#1059,#1060);
#937=AXIS2_PLACEMENT_3D('',#1358,#1063,#1064);
#938=AXIS2_PLACEMENT_3D('',#1359,#1065,#1066);
#939=AXIS2_PLACEMENT_3D('',#1364,#1069,#1070);
#940=AXIS2_PLACEMENT_3D('',#1365,#1071,#1072);
#941=AXIS2_PLACEMENT_3D('',#1366,#1073,#1074);
#942=AXIS2_PLACEMENT_3D('',#1370,#1076,#1077);
#943=AXIS2_PLACEMENT_3D('',#1372,#1078,#1079);
#944=AXIS2_PLACEMENT_3D('',#1373,#1080,#1081);
#945=AXIS2_PLACEMENT_3D('',#1378,#1084,#1085);
#946=AXIS2_PLACEMENT_3D('',#1379,#1086,#1087);
#947=AXIS2_PLACEMENT_3D('',#1384,#1090,#1091);
#948=AXIS2_PLACEMENT_3D('',#1385,#1092,#1093);
#949=AXIS2_PLACEMENT_3D('',#1390,#1096,#1097);
#950=AXIS2_PLACEMENT_3D('',#1391,#1098,#1099);
#951=AXIS2_PLACEMENT_3D('',#1392,#1100,#1101);
#952=AXIS2_PLACEMENT_3D('',#1396,#1103,#1104);
#953=AXIS2_PLACEMENT_3D('',#1397,#1105,#1106);
#954=AXIS2_PLACEMENT_3D('',#1402,#1109,#1110);
#955=AXIS2_PLACEMENT_3D('',#1403,#1111,#1112);
#956=AXIS2_PLACEMENT_3D('',#1408,#1115,#1116);
#957=AXIS2_PLACEMENT_3D('',#1409,#1117,#1118);
#958=AXIS2_PLACEMENT_3D('',#1414,#1121,#1122);
#959=AXIS2_PLACEMENT_3D('',#1415,#1123,#1124);
#960=AXIS2_PLACEMENT_3D('',#1416,#1125,#1126);
#961=AXIS2_PLACEMENT_3D('',#1420,#1128,#1129);
#962=AXIS2_PLACEMENT_3D('',#1422,#1130,#1131);
#963=AXIS2_PLACEMENT_3D('',#1423,#1132,#1133);
#964=AXIS2_PLACEMENT_3D('',#1428,#1136,#1137);
#965=AXIS2_PLACEMENT_3D('',#1429,#1138,#1139);
#966=AXIS2_PLACEMENT_3D('',#1434,#1142,#1143);
#967=AXIS2_PLACEMENT_3D('',#1435,#1144,#1145);
#968=AXIS2_PLACEMENT_3D('',#1436,#1146,#1147);
#969=AXIS2_PLACEMENT_3D('',#1441,#1149,#1150);
#970=AXIS2_PLACEMENT_3D('',#1444,#1152,#1153);
#971=AXIS2_PLACEMENT_3D('',#1453,#1158,#1159);
#972=AXIS2_PLACEMENT_3D('',#1462,#1164,#1165);
#973=AXIS2_PLACEMENT_3D('',#1463,#1166,#1167);
#974=AXIS2_PLACEMENT_3D('',#1468,#1169,#1170);
#975=AXIS2_PLACEMENT_3D('',#1471,#1172,#1173);
#976=AXIS2_PLACEMENT_3D('',#1480,#1178,#1179);
#977=AXIS2_PLACEMENT_3D('',#1489,#1184,#1185);
#978=AXIS2_PLACEMENT_3D('',#1490,#1186,#1187);
#979=AXIS2_PLACEMENT_3D('',#1495,#1189,#1190);
#980=AXIS2_PLACEMENT_3D('',#1498,#1192,#1193);
#981=AXIS2_PLACEMENT_3D('',#1507,#1198,#1199);
#982=AXIS2_PLACEMENT_3D('',#1516,#1204,#1205);
#983=AXIS2_PLACEMENT_3D('',#1517,#1206,#1207);
#984=AXIS2_PLACEMENT_3D('',#1522,#1209,#1210);
#985=AXIS2_PLACEMENT_3D('',#1525,#1212,#1213);
#986=AXIS2_PLACEMENT_3D('',#1534,#1218,#1219);
#987=AXIS2_PLACEMENT_3D('',#1543,#1224,#1225);
#988=AXIS2_PLACEMENT_3D('',#1545,#1227,#1228);
#989=AXIS2_PLACEMENT_3D('',#1546,#1229,#1230);
#990=AXIS2_PLACEMENT_3D('',#1547,#1231,#1232);
#991=AXIS2_PLACEMENT_3D('',#1548,#1233,#1234);
#992=AXIS2_PLACEMENT_3D('',#1549,#1235,#1236);
#993=AXIS2_PLACEMENT_3D('',#1550,#1237,#1238);
#994=AXIS2_PLACEMENT_3D('',#1551,#1239,#1240);
#995=AXIS2_PLACEMENT_3D('',#1552,#1241,#1242);
#996=AXIS2_PLACEMENT_3D('',#1553,#1243,#1244);
#997=AXIS2_PLACEMENT_3D('',#1554,#1245,#1246);
#998=AXIS2_PLACEMENT_3D('',#1555,#1247,#1248);
#999=AXIS2_PLACEMENT_3D('',#1556,#1249,#1250);
#1000=AXIS2_PLACEMENT_3D('',#1557,#1251,#1252);
#1001=AXIS2_PLACEMENT_3D('',#1558,#1253,#1254);
#1002=AXIS2_PLACEMENT_3D('',#1559,#1255,#1256);
#1003=AXIS2_PLACEMENT_3D('',#1560,#1257,#1258);
#1004=AXIS2_PLACEMENT_3D('',#1561,#1259,#1260);
#1005=AXIS2_PLACEMENT_3D('',#1562,#1261,#1262);
#1006=AXIS2_PLACEMENT_3D('',#1563,#1263,#1264);
#1007=AXIS2_PLACEMENT_3D('',#1564,#1265,#1266);
#1008=AXIS2_PLACEMENT_3D('',#1565,#1267,#1268);
#1009=AXIS2_PLACEMENT_3D('',#1566,#1269,#1270);
#1010=AXIS2_PLACEMENT_3D('',#1567,#1271,#1272);
#1011=AXIS2_PLACEMENT_3D('',#1568,#1273,#1274);
#1012=AXIS2_PLACEMENT_3D('',#1569,#1275,#1276);
#1013=AXIS2_PLACEMENT_3D('',#1570,#1277,#1278);
#1014=AXIS2_PLACEMENT_3D('',#1571,#1279,#1280);
#1015=AXIS2_PLACEMENT_3D('',#1572,#1281,#1282);
#1016=AXIS2_PLACEMENT_3D('',#1573,#1283,#1284);
#1017=AXIS2_PLACEMENT_3D('',#1574,#1285,#1286);
#1018=AXIS2_PLACEMENT_3D('',#1575,#1287,#1288);
#1019=AXIS2_PLACEMENT_3D('',#1576,#1289,#1290);
#1020=AXIS2_PLACEMENT_3D('',#1577,#1291,#1292);
#1021=AXIS2_PLACEMENT_3D('',#1578,#1293,#1294);
#1022=AXIS2_PLACEMENT_3D('',#1579,#1295,#1296);
#1023=AXIS2_PLACEMENT_3D('',#1580,#1297,#1298);
#1024=AXIS2_PLACEMENT_3D('',#1581,#1299,#1300);
#1025=AXIS2_PLACEMENT_3D('',#1582,#1301,#1302);
#1026=AXIS2_PLACEMENT_3D('',#1583,#1303,#1304);
#1027=AXIS2_PLACEMENT_3D('',#1584,#1305,#1306);
#1028=AXIS2_PLACEMENT_3D('',#1585,#1307,#1308);
#1029=AXIS2_PLACEMENT_3D('',#1587,#1309,#1310);
#1030=AXIS2_PLACEMENT_3D('',#1589,#1311,#1312);
#1031=AXIS2_PLACEMENT_3D('',#1590,#1313,#1314);
#1032=AXIS2_PLACEMENT_3D('',#1592,#1315,#1316);
#1033=AXIS2_PLACEMENT_3D('',#1593,#1317,#1318);
#1034=AXIS2_PLACEMENT_3D('',#1595,#1319,#1320);
#1035=AXIS2_PLACEMENT_3D('',#1596,#1321,#1322);
#1036=AXIS2_PLACEMENT_3D('',#1598,#1323,#1324);
#1037=AXIS2_PLACEMENT_3D('',#1599,#1325,#1326);
#1038=AXIS2_PLACEMENT_3D('',#1601,#1327,#1328);
#1039=AXIS2_PLACEMENT_3D('',#1602,#1329,#1330);
#1040=AXIS2_PLACEMENT_3D('',#1604,#1331,#1332);
#1041=AXIS2_PLACEMENT_3D('',#1605,#1333,#1334);
#1042=AXIS2_PLACEMENT_3D('',#1607,#1335,#1336);
#1043=DIRECTION('',(0.,0.,1.));
#1044=DIRECTION('',(1.,0.,0.));
#1045=DIRECTION('',(0.,-1.,0.));
#1046=DIRECTION('',(0.,0.,-1.));
#1047=DIRECTION('',(0.,1.,0.));
#1048=DIRECTION('',(1.,0.,0.));
#1049=DIRECTION('',(0.,-1.,0.));
#1050=DIRECTION('',(0.,-0.707106781186547,-0.707106781186547));
#1051=DIRECTION('',(0.,0.707106781186547,-0.707106781186547));
#1052=DIRECTION('',(0.,-1.,0.));
#1053=DIRECTION('',(-0.930355567855788,0.,-0.366658584189344));
#1054=DIRECTION('',(-0.366658584189344,0.,0.930355567855788));
#1055=DIRECTION('',(0.366658584189344,0.,-0.930355567855788));
#1056=DIRECTION('',(0.,-1.,0.));
#1057=DIRECTION('',(-0.930355567855788,0.,-0.366658584189342));
#1058=DIRECTION('',(0.366658584189343,0.,-0.930355567855789));
#1059=DIRECTION('',(-0.707106781186547,0.,-0.707106781186548));
#1060=DIRECTION('',(-0.707106781186548,0.,0.707106781186547));
#1061=DIRECTION('',(0.707106781186548,0.,-0.707106781186547));
#1062=DIRECTION('',(0.,-1.,0.));
#1063=DIRECTION('',(-0.707106781186547,0.,-0.707106781186548));
#1064=DIRECTION('',(0.707106781186548,0.,-0.707106781186547));
#1065=DIRECTION('',(-0.366658584189344,0.,-0.930355567855788));
#1066=DIRECTION('',(-0.930355567855788,0.,0.366658584189344));
#1067=DIRECTION('',(0.930355567855788,0.,-0.366658584189344));
#1068=DIRECTION('',(0.,-1.,0.));
#1069=DIRECTION('',(-0.366658584189345,0.,-0.930355567855788));
#1070=DIRECTION('',(0.930355567855788,0.,-0.366658584189345));
#1071=DIRECTION('',(0.,-1.,0.));
#1072=DIRECTION('',(0.,0.,-1.));
#1073=DIRECTION('',(0.,1.,0.));
#1074=DIRECTION('',(-1.,0.,0.));
#1075=DIRECTION('',(0.,-1.,0.));
#1076=DIRECTION('',(0.,0.707106781186547,-0.707106781186547));
#1077=DIRECTION('',(0.,-0.707106781186547,-0.707106781186547));
#1078=DIRECTION('',(0.,-0.707106781186547,-0.707106781186547));
#1079=DIRECTION('',(0.,0.707106781186547,-0.707106781186547));
#1080=DIRECTION('',(-0.366658584189344,0.,0.930355567855788));
#1081=DIRECTION('',(0.930355567855788,0.,0.366658584189344));
#1082=DIRECTION('',(-0.930355567855788,0.,-0.366658584189344));
#1083=DIRECTION('',(0.,-1.,0.));
#1084=DIRECTION('',(-0.366658584189345,0.,0.930355567855788));
#1085=DIRECTION('',(-0.930355567855788,0.,-0.366658584189345));
#1086=DIRECTION('',(-0.707106781186547,0.,0.707106781186548));
#1087=DIRECTION('',(0.707106781186548,0.,0.707106781186547));
#1088=DIRECTION('',(-0.707106781186548,0.,-0.707106781186547));
#1089=DIRECTION('',(0.,-1.,0.));
#1090=DIRECTION('',(-0.707106781186548,0.,0.707106781186547));
#1091=DIRECTION('',(-0.707106781186547,0.,-0.707106781186548));
#1092=DIRECTION('',(-0.930355567855788,0.,0.366658584189344));
#1093=DIRECTION('',(0.366658584189344,0.,0.930355567855788));
#1094=DIRECTION('',(-0.366658584189344,0.,-0.930355567855788));
#1095=DIRECTION('',(0.,-1.,0.));
#1096=DIRECTION('',(-0.930355567855788,0.,0.366658584189343));
#1097=DIRECTION('',(-0.366658584189343,0.,-0.930355567855788));
#1098=DIRECTION('',(0.,-1.,0.));
#1099=DIRECTION('',(0.,0.,-1.));
#1100=DIRECTION('',(0.,1.,0.));
#1101=DIRECTION('',(1.,0.,0.));
#1102=DIRECTION('',(0.,-1.,0.));
#1103=DIRECTION('',(0.,0.707106781186547,-0.707106781186547));
#1104=DIRECTION('',(0.,-0.707106781186547,-0.707106781186547));
#1105=DIRECTION('',(0.930355567855788,0.,0.366658584189344));
#1106=DIRECTION('',(0.366658584189344,0.,-0.930355567855788));
#1107=DIRECTION('',(-0.366658584189344,0.,0.930355567855788));
#1108=DIRECTION('',(0.,-1.,0.));
#1109=DIRECTION('',(0.930355567855788,0.,0.366658584189343));
#1110=DIRECTION('',(0.366658584189343,0.,-0.930355567855789));
#1111=DIRECTION('',(0.707106781186548,0.,0.707106781186547));
#1112=DIRECTION('',(0.707106781186547,0.,-0.707106781186548));
#1113=DIRECTION('',(-0.707106781186547,0.,0.707106781186548));
#1114=DIRECTION('',(0.,-1.,0.));
#1115=DIRECTION('',(0.707106781186548,0.,0.707106781186547));
#1116=DIRECTION('',(0.707106781186547,0.,-0.707106781186548));
#1117=DIRECTION('',(0.366658584189344,0.,0.930355567855788));
#1118=DIRECTION('',(0.930355567855788,0.,-0.366658584189344));
#1119=DIRECTION('',(-0.930355567855788,0.,0.366658584189344));
#1120=DIRECTION('',(0.,-1.,0.));
#1121=DIRECTION('',(0.366658584189343,0.,0.930355567855788));
#1122=DIRECTION('',(0.930355567855788,0.,-0.366658584189343));
#1123=DIRECTION('',(0.,-1.,0.));
#1124=DIRECTION('',(0.,0.,-1.));
#1125=DIRECTION('',(0.,1.,0.));
#1126=DIRECTION('',(1.,0.,0.));
#1127=DIRECTION('',(0.,-1.,0.));
#1128=DIRECTION('',(0.,-0.707106781186547,-0.707106781186547));
#1129=DIRECTION('',(0.,0.707106781186547,-0.707106781186547));
#1130=DIRECTION('',(0.,0.707106781186547,-0.707106781186547));
#1131=DIRECTION('',(0.,-0.707106781186547,-0.707106781186547));
#1132=DIRECTION('',(0.366658584189343,0.,-0.930355567855788));
#1133=DIRECTION('',(-0.930355567855788,0.,-0.366658584189343));
#1134=DIRECTION('',(0.930355567855788,0.,0.366658584189343));
#1135=DIRECTION('',(0.,-1.,0.));
#1136=DIRECTION('',(0.366658584189347,0.,-0.930355567855787));
#1137=DIRECTION('',(-0.930355567855787,0.,-0.366658584189347));
#1138=DIRECTION('',(0.707106781186547,0.,-0.707106781186548));
#1139=DIRECTION('',(-0.707106781186548,0.,-0.707106781186547));
#1140=DIRECTION('',(0.707106781186548,0.,0.707106781186547));
#1141=DIRECTION('',(0.,-1.,0.));
#1142=DIRECTION('',(0.707106781186547,0.,-0.707106781186548));
#1143=DIRECTION('',(-0.707106781186548,0.,-0.707106781186547));
#1144=DIRECTION('',(0.,-1.,0.));
#1145=DIRECTION('',(0.,0.,-1.));
#1146=DIRECTION('',(0.,-1.,0.));
#1147=DIRECTION('',(-1.,0.,0.));
#1148=DIRECTION('',(0.,-1.,0.));
#1149=DIRECTION('',(0.,-1.,0.));
#1150=DIRECTION('',(-1.,0.,0.));
#1151=DIRECTION('',(0.,-1.,0.));
#1152=DIRECTION('',(0.,0.,1.));
#1153=DIRECTION('',(1.,0.,0.));
#1154=DIRECTION('',(-1.,0.,0.));
#1155=DIRECTION('',(0.,1.,0.));
#1156=DIRECTION('',(-1.,0.,0.));
#1157=DIRECTION('',(0.,-1.,0.));
#1158=DIRECTION('',(1.,0.,0.));
#1159=DIRECTION('',(0.,0.,-1.));
#1160=DIRECTION('',(0.,0.,1.));
#1161=DIRECTION('',(0.,1.,0.));
#1162=DIRECTION('',(0.,0.,1.));
#1163=DIRECTION('',(0.,-1.,0.));
#1164=DIRECTION('',(0.,-1.,0.));
#1165=DIRECTION('',(0.,0.,-1.));
#1166=DIRECTION('',(0.,-1.,0.));
#1167=DIRECTION('',(1.,0.,0.));
#1168=DIRECTION('',(0.,-1.,0.));
#1169=DIRECTION('',(0.,-1.,0.));
#1170=DIRECTION('',(1.,0.,0.));
#1171=DIRECTION('',(0.,-1.,0.));
#1172=DIRECTION('',(-1.,0.,0.));
#1173=DIRECTION('',(0.,0.,1.));
#1174=DIRECTION('',(0.,0.,-1.));
#1175=DIRECTION('',(0.,1.,0.));
#1176=DIRECTION('',(0.,0.,-1.));
#1177=DIRECTION('',(0.,-1.,0.));
#1178=DIRECTION('',(-1.63670507663034E-16,0.,1.));
#1179=DIRECTION('',(1.,0.,1.63670507663034E-16));
#1180=DIRECTION('',(-1.,0.,-1.63670507663034E-16));
#1181=DIRECTION('',(0.,1.,0.));
#1182=DIRECTION('',(-1.,0.,-1.63670507663034E-16));
#1183=DIRECTION('',(0.,-1.,0.));
#1184=DIRECTION('',(0.,-1.,0.));
#1185=DIRECTION('',(0.,0.,-1.));
#1186=DIRECTION('',(0.,-1.,0.));
#1187=DIRECTION('',(1.,0.,0.));
#1188=DIRECTION('',(0.,-1.,0.));
#1189=DIRECTION('',(0.,-1.,0.));
#1190=DIRECTION('',(1.,0.,0.));
#1191=DIRECTION('',(0.,-1.,0.));
#1192=DIRECTION('',(0.,0.,-1.));
#1193=DIRECTION('',(-1.,0.,0.));
#1194=DIRECTION('',(1.,0.,0.));
#1195=DIRECTION('',(0.,1.,0.));
#1196=DIRECTION('',(1.,0.,0.));
#1197=DIRECTION('',(0.,-1.,0.));
#1198=DIRECTION('',(-1.,0.,-1.63670507663034E-16));
#1199=DIRECTION('',(-1.63670507663034E-16,0.,1.));
#1200=DIRECTION('',(1.63670507663034E-16,0.,-1.));
#1201=DIRECTION('',(0.,1.,0.));
#1202=DIRECTION('',(1.63670507663034E-16,0.,-1.));
#1203=DIRECTION('',(0.,-1.,0.));
#1204=DIRECTION('',(0.,-1.,0.));
#1205=DIRECTION('',(0.,0.,-1.));
#1206=DIRECTION('',(0.,-1.,0.));
#1207=DIRECTION('',(1.,0.,0.));
#1208=DIRECTION('',(0.,-1.,0.));
#1209=DIRECTION('',(0.,-1.,0.));
#1210=DIRECTION('',(1.,0.,0.));
#1211=DIRECTION('',(0.,-1.,0.));
#1212=DIRECTION('',(1.,0.,0.));
#1213=DIRECTION('',(0.,0.,-1.));
#1214=DIRECTION('',(0.,0.,1.));
#1215=DIRECTION('',(0.,1.,0.));
#1216=DIRECTION('',(0.,0.,1.));
#1217=DIRECTION('',(0.,-1.,0.));
#1218=DIRECTION('',(-8.1835253831517E-17,0.,-1.));
#1219=DIRECTION('',(-1.,0.,8.1835253831517E-17));
#1220=DIRECTION('',(1.,0.,-8.1835253831517E-17));
#1221=DIRECTION('',(0.,1.,0.));
#1222=DIRECTION('',(1.,0.,-8.1835253831517E-17));
#1223=DIRECTION('',(0.,-1.,0.));
#1224=DIRECTION('',(0.930355567855788,0.,-0.366658584189344));
#1225=DIRECTION('',(-0.366658584189344,0.,-0.930355567855788));
#1226=DIRECTION('',(0.366658584189344,0.,0.930355567855788));
#1227=DIRECTION('',(0.930355567855789,0.,-0.366658584189341));
#1228=DIRECTION('',(-0.366658584189341,0.,-0.930355567855789));
#1229=DIRECTION('',(0.,1.,0.));
#1230=DIRECTION('',(0.,0.,1.));
#1231=DIRECTION('',(0.,1.,0.));
#1232=DIRECTION('',(0.,0.,1.));
#1233=DIRECTION('',(0.,1.,0.));
#1234=DIRECTION('',(0.,0.,1.));
#1235=DIRECTION('',(0.,1.,0.));
#1236=DIRECTION('',(0.,0.,1.));
#1237=DIRECTION('',(0.,1.,0.));
#1238=DIRECTION('',(0.,0.,1.));
#1239=DIRECTION('',(0.,1.,0.));
#1240=DIRECTION('',(0.,0.,1.));
#1241=DIRECTION('',(0.,1.,0.));
#1242=DIRECTION('',(0.,0.,1.));
#1243=DIRECTION('',(0.,1.,0.));
#1244=DIRECTION('',(0.,0.,1.));
#1245=DIRECTION('',(0.,1.,0.));
#1246=DIRECTION('',(0.,0.,1.));
#1247=DIRECTION('',(0.,1.,0.));
#1248=DIRECTION('',(0.,0.,1.));
#1249=DIRECTION('',(0.,1.,0.));
#1250=DIRECTION('',(0.,0.,1.));
#1251=DIRECTION('',(0.,1.,0.));
#1252=DIRECTION('',(0.,0.,1.));
#1253=DIRECTION('',(0.,1.,0.));
#1254=DIRECTION('',(0.,0.,1.));
#1255=DIRECTION('',(0.,-1.,0.));
#1256=DIRECTION('',(0.,0.,-1.));
#1257=DIRECTION('',(0.,1.,0.));
#1258=DIRECTION('',(0.,0.,1.));
#1259=DIRECTION('',(0.,-1.,0.));
#1260=DIRECTION('',(0.,0.,-1.));
#1261=DIRECTION('',(0.,1.,0.));
#1262=DIRECTION('',(0.,0.,1.));
#1263=DIRECTION('',(0.,-1.,0.));
#1264=DIRECTION('',(0.,0.,-1.));
#1265=DIRECTION('',(0.,1.,0.));
#1266=DIRECTION('',(0.,0.,1.));
#1267=DIRECTION('',(0.,-1.,0.));
#1268=DIRECTION('',(0.,0.,-1.));
#1269=DIRECTION('',(0.,1.,0.));
#1270=DIRECTION('',(0.,0.,1.));
#1271=DIRECTION('',(0.,-1.,0.));
#1272=DIRECTION('',(0.,0.,-1.));
#1273=DIRECTION('',(0.,1.,0.));
#1274=DIRECTION('',(0.,0.,1.));
#1275=DIRECTION('',(0.,-1.,0.));
#1276=DIRECTION('',(0.,0.,-1.));
#1277=DIRECTION('',(0.,1.,0.));
#1278=DIRECTION('',(0.,0.,1.));
#1279=DIRECTION('',(0.,-1.,0.));
#1280=DIRECTION('',(0.,0.,-1.));
#1281=DIRECTION('',(0.,1.,0.));
#1282=DIRECTION('',(0.,0.,1.));
#1283=DIRECTION('',(0.,-1.,0.));
#1284=DIRECTION('',(0.,0.,-1.));
#1285=DIRECTION('',(0.,1.,0.));
#1286=DIRECTION('',(0.,0.,1.));
#1287=DIRECTION('',(0.,-1.,0.));
#1288=DIRECTION('',(0.,0.,-1.));
#1289=DIRECTION('',(0.,1.,0.));
#1290=DIRECTION('',(0.,0.,1.));
#1291=DIRECTION('',(0.,-1.,0.));
#1292=DIRECTION('',(0.,0.,-1.));
#1293=DIRECTION('',(0.,1.,0.));
#1294=DIRECTION('',(0.,0.,1.));
#1295=DIRECTION('',(0.,-1.,0.));
#1296=DIRECTION('',(0.,0.,-1.));
#1297=DIRECTION('',(0.,1.,0.));
#1298=DIRECTION('',(0.,0.,1.));
#1299=DIRECTION('',(0.,-1.,0.));
#1300=DIRECTION('',(0.,0.,-1.));
#1301=DIRECTION('',(0.,1.,0.));
#1302=DIRECTION('',(0.,0.,1.));
#1303=DIRECTION('',(0.,1.,0.));
#1304=DIRECTION('',(0.,0.,1.));
#1305=DIRECTION('',(0.,0.,-1.));
#1306=DIRECTION('',(-1.,0.,0.));
#1307=DIRECTION('',(0.,0.,-1.));
#1308=DIRECTION('',(1.,0.,0.));
#1309=DIRECTION('',(0.,0.,-1.));
#1310=DIRECTION('',(1.,0.,0.));
#1311=DIRECTION('',(0.,0.,-1.));
#1312=DIRECTION('',(-1.,0.,0.));
#1313=DIRECTION('',(0.,0.,-1.));
#1314=DIRECTION('',(1.,0.,0.));
#1315=DIRECTION('',(0.,0.,-1.));
#1316=DIRECTION('',(-1.,0.,0.));
#1317=DIRECTION('',(0.,0.,1.));
#1318=DIRECTION('',(0.,1.,0.));
#1319=DIRECTION('',(0.,0.,1.));
#1320=DIRECTION('',(1.,0.,0.));
#1321=DIRECTION('',(0.,0.,-1.));
#1322=DIRECTION('',(1.,0.,0.));
#1323=DIRECTION('',(0.,0.,-1.));
#1324=DIRECTION('',(-1.,0.,0.));
#1325=DIRECTION('',(0.,0.,-1.));
#1326=DIRECTION('',(1.,0.,0.));
#1327=DIRECTION('',(0.,0.,-1.));
#1328=DIRECTION('',(-1.,0.,0.));
#1329=DIRECTION('',(0.,0.,1.));
#1330=DIRECTION('',(0.,1.,0.));
#1331=DIRECTION('',(0.,0.,1.));
#1332=DIRECTION('',(1.,0.,0.));
#1333=DIRECTION('',(0.,0.,1.));
#1334=DIRECTION('',(1.,0.,0.));
#1335=DIRECTION('',(0.,0.,1.));
#1336=DIRECTION('',(1.,0.,0.));
#1337=CARTESIAN_POINT('',(0.,0.,0.));
#1338=CARTESIAN_POINT('',(0.,8.,0.));
#1339=CARTESIAN_POINT('',(0.,0.,0.));
#1340=CARTESIAN_POINT('',(-1.56242977306435,0.,3.24327199048154));
#1341=CARTESIAN_POINT('',(1.56242977306435,0.,3.24327199048154));
#1342=CARTESIAN_POINT('',(1.56242977306435,8.,3.24327199048154));
#1343=CARTESIAN_POINT('',(1.56242977306435,8.75672800951846,3.24327199048154));
#1344=CARTESIAN_POINT('',(0.,12.,0.));
#1345=CARTESIAN_POINT('',(-1.56242977306435,8.75672800951846,3.24327199048154));
#1346=CARTESIAN_POINT('',(-1.56242977306435,8.,3.24327199048154));
#1347=CARTESIAN_POINT('',(1.56242977306435,8.,3.24327199048154));
#1348=CARTESIAN_POINT('',(1.56242977306435,0.,3.24327199048154));
#1349=CARTESIAN_POINT('',(1.89364465959652,0.,2.40285088177294));
#1350=CARTESIAN_POINT('',(1.89364465959652,8.,2.40285088177294));
#1351=CARTESIAN_POINT('',(1.89364465959652,8.93828317717305,2.40285088177294));
#1352=CARTESIAN_POINT('',(0.,12.,7.20776457686928));
#1353=CARTESIAN_POINT('',(1.89364465959652,8.,2.40285088177294));
#1354=CARTESIAN_POINT('',(1.89364465959652,0.,2.40285088177294));
#1355=CARTESIAN_POINT('',(2.40285088177294,0.,1.89364465959652));
#1356=CARTESIAN_POINT('',(2.40285088177294,8.,1.89364465959652));
#1357=CARTESIAN_POINT('',(2.40285088177295,9.3192710618261,1.89364465959652));
#1358=CARTESIAN_POINT('',(0.,12.,4.29649554136947));
#1359=CARTESIAN_POINT('',(3.24327199048154,8.,1.56242977306435));
#1360=CARTESIAN_POINT('',(3.24327199048154,0.,1.56242977306435));
#1361=CARTESIAN_POINT('',(3.24327199048154,0.,1.56242977306435));
#1362=CARTESIAN_POINT('',(3.24327199048154,8.,1.56242977306435));
#1363=CARTESIAN_POINT('',(3.24327199048154,10.4375702269357,1.56242977306435));
#1364=CARTESIAN_POINT('',(0.,12.,2.84062228059309));
#1365=CARTESIAN_POINT('',(0.,8.,0.));
#1366=CARTESIAN_POINT('',(0.,0.,0.));
#1367=CARTESIAN_POINT('',(3.24327199048154,0.,-1.56242977306435));
#1368=CARTESIAN_POINT('',(3.24327199048154,8.,-1.56242977306435));
#1369=CARTESIAN_POINT('',(3.24327199048154,10.4375702269357,-1.56242977306435));
#1370=CARTESIAN_POINT('',(0.,12.,0.));
#1371=CARTESIAN_POINT('',(3.6,12.,0.));
#1372=CARTESIAN_POINT('',(0.,12.,0.));
#1373=CARTESIAN_POINT('',(2.40285088177294,8.,-1.89364465959652));
#1374=CARTESIAN_POINT('',(2.40285088177294,0.,-1.89364465959652));
#1375=CARTESIAN_POINT('',(2.40285088177294,0.,-1.89364465959652));
#1376=CARTESIAN_POINT('',(2.40285088177294,8.,-1.89364465959652));
#1377=CARTESIAN_POINT('',(2.40285088177294,9.3192710618261,-1.89364465959652));
#1378=CARTESIAN_POINT('',(0.,12.,-2.84062228059309));
#1379=CARTESIAN_POINT('',(2.40285088177294,8.,-1.89364465959652));
#1380=CARTESIAN_POINT('',(2.40285088177294,0.,-1.89364465959652));
#1381=CARTESIAN_POINT('',(1.89364465959652,0.,-2.40285088177294));
#1382=CARTESIAN_POINT('',(1.89364465959652,8.,-2.40285088177294));
#1383=CARTESIAN_POINT('',(1.89364465959652,8.93828317717305,-2.40285088177294));
#1384=CARTESIAN_POINT('',(0.,12.,-4.29649554136947));
#1385=CARTESIAN_POINT('',(1.56242977306435,8.,-3.24327199048154));
#1386=CARTESIAN_POINT('',(1.56242977306435,0.,-3.24327199048154));
#1387=CARTESIAN_POINT('',(1.56242977306435,0.,-3.24327199048154));
#1388=CARTESIAN_POINT('',(1.56242977306435,8.,-3.24327199048154));
#1389=CARTESIAN_POINT('',(1.56242977306435,8.75672800951846,-3.24327199048154));
#1390=CARTESIAN_POINT('',(0.,12.,-7.20776457686927));
#1391=CARTESIAN_POINT('',(0.,8.,0.));
#1392=CARTESIAN_POINT('',(0.,0.,0.));
#1393=CARTESIAN_POINT('',(-1.56242977306435,0.,-3.24327199048154));
#1394=CARTESIAN_POINT('',(-1.56242977306435,8.,-3.24327199048154));
#1395=CARTESIAN_POINT('',(-1.56242977306435,8.75672800951846,-3.24327199048154));
#1396=CARTESIAN_POINT('',(0.,12.,0.));
#1397=CARTESIAN_POINT('',(-1.56242977306435,8.,-3.24327199048154));
#1398=CARTESIAN_POINT('',(-1.56242977306435,0.,-3.24327199048154));
#1399=CARTESIAN_POINT('',(-1.89364465959652,0.,-2.40285088177294));
#1400=CARTESIAN_POINT('',(-1.89364465959652,8.,-2.40285088177294));
#1401=CARTESIAN_POINT('',(-1.89364465959652,8.93828317717305,-2.40285088177294));
#1402=CARTESIAN_POINT('',(0.,12.,-7.20776457686928));
#1403=CARTESIAN_POINT('',(-2.40285088177294,8.,-1.89364465959652));
#1404=CARTESIAN_POINT('',(-2.40285088177294,0.,-1.89364465959652));
#1405=CARTESIAN_POINT('',(-2.40285088177294,0.,-1.89364465959652));
#1406=CARTESIAN_POINT('',(-2.40285088177294,8.,-1.89364465959652));
#1407=CARTESIAN_POINT('',(-2.40285088177294,9.3192710618261,-1.89364465959652));
#1408=CARTESIAN_POINT('',(0.,12.,-4.29649554136947));
#1409=CARTESIAN_POINT('',(-3.24327199048154,8.,-1.56242977306435));
#1410=CARTESIAN_POINT('',(-3.24327199048154,0.,-1.56242977306435));
#1411=CARTESIAN_POINT('',(-3.24327199048154,0.,-1.56242977306435));
#1412=CARTESIAN_POINT('',(-3.24327199048154,8.,-1.56242977306435));
#1413=CARTESIAN_POINT('',(-3.24327199048154,10.4375702269357,-1.56242977306435));
#1414=CARTESIAN_POINT('',(0.,12.,-2.84062228059309));
#1415=CARTESIAN_POINT('',(0.,8.,0.));
#1416=CARTESIAN_POINT('',(0.,0.,0.));
#1417=CARTESIAN_POINT('',(-3.24327199048154,0.,1.56242977306435));
#1418=CARTESIAN_POINT('',(-3.24327199048154,8.,1.56242977306435));
#1419=CARTESIAN_POINT('',(-3.24327199048154,10.4375702269357,1.56242977306435));
#1420=CARTESIAN_POINT('',(0.,12.,0.));
#1421=CARTESIAN_POINT('',(-3.6,12.,0.));
#1422=CARTESIAN_POINT('',(0.,12.,0.));
#1423=CARTESIAN_POINT('',(-3.24327199048154,8.,1.56242977306435));
#1424=CARTESIAN_POINT('',(-3.24327199048154,0.,1.56242977306435));
#1425=CARTESIAN_POINT('',(-2.40285088177294,0.,1.89364465959652));
#1426=CARTESIAN_POINT('',(-2.40285088177294,8.,1.89364465959652));
#1427=CARTESIAN_POINT('',(-2.40285088177295,9.3192710618261,1.89364465959652));
#1428=CARTESIAN_POINT('',(0.,12.,2.8406222805931));
#1429=CARTESIAN_POINT('',(-2.40285088177294,8.,1.89364465959652));
#1430=CARTESIAN_POINT('',(-2.40285088177294,0.,1.89364465959652));
#1431=CARTESIAN_POINT('',(-1.89364465959652,0.,2.40285088177294));
#1432=CARTESIAN_POINT('',(-1.89364465959652,8.,2.40285088177294));
#1433=CARTESIAN_POINT('',(-1.89364465959652,8.93828317717305,2.40285088177294));
#1434=CARTESIAN_POINT('',(0.,12.,4.29649554136947));
#1435=CARTESIAN_POINT('',(0.,8.,0.));
#1436=CARTESIAN_POINT('',(0.,0.,0.));
#1437=CARTESIAN_POINT('',(2.25014177247108,0.,-0.834782608695652));
#1438=CARTESIAN_POINT('',(2.25014177247108,0.,0.834782608695652));
#1439=CARTESIAN_POINT('',(2.25014177247108,8.,0.834782608695652));
#1440=CARTESIAN_POINT('',(2.25014177247108,8.,0.834782608695652));
#1441=CARTESIAN_POINT('',(0.,8.,0.));
#1442=CARTESIAN_POINT('',(2.25014177247108,8.,-0.834782608695652));
#1443=CARTESIAN_POINT('',(2.25014177247108,8.,-0.834782608695652));
#1444=CARTESIAN_POINT('',(0.9,8.,0.9));
#1445=CARTESIAN_POINT('',(0.9,8.,0.9));
#1446=CARTESIAN_POINT('',(2.15638586528478,8.,0.9));
#1447=CARTESIAN_POINT('',(1.4,8.,0.9));
#1448=CARTESIAN_POINT('',(2.15638586528478,0.,0.9));
#1449=CARTESIAN_POINT('',(2.15638586528478,0.,0.9));
#1450=CARTESIAN_POINT('',(0.9,0.,0.9));
#1451=CARTESIAN_POINT('',(1.4,0.,0.9));
#1452=CARTESIAN_POINT('',(1.4,8.,0.9));
#1453=CARTESIAN_POINT('',(0.9,8.,0.9));
#1454=CARTESIAN_POINT('',(0.9,0.,0.9));
#1455=CARTESIAN_POINT('',(0.9,0.,1.4));
#1456=CARTESIAN_POINT('',(0.9,0.,2.15638586528478));
#1457=CARTESIAN_POINT('',(0.9,8.,2.15638586528478));
#1458=CARTESIAN_POINT('',(0.9,8.,2.15638586528478));
#1459=CARTESIAN_POINT('',(0.9,8.,0.9));
#1460=CARTESIAN_POINT('',(0.9,8.,1.4));
#1461=CARTESIAN_POINT('',(0.9,8.,1.4));
#1462=CARTESIAN_POINT('',(0.,8.,0.));
#1463=CARTESIAN_POINT('',(0.,8.,0.));
#1464=CARTESIAN_POINT('',(0.834782608695652,8.,2.25014177247108));
#1465=CARTESIAN_POINT('',(-0.834782608695652,8.,2.25014177247108));
#1466=CARTESIAN_POINT('',(0.834782608695652,8.,2.25014177247108));
#1467=CARTESIAN_POINT('',(0.834782608695652,0.,2.25014177247108));
#1468=CARTESIAN_POINT('',(0.,0.,0.));
#1469=CARTESIAN_POINT('',(-0.834782608695652,0.,2.25014177247108));
#1470=CARTESIAN_POINT('',(-0.834782608695652,8.,2.25014177247108));
#1471=CARTESIAN_POINT('',(-0.9,8.,0.9));
#1472=CARTESIAN_POINT('',(-0.9,8.,0.9));
#1473=CARTESIAN_POINT('',(-0.9,8.,2.15638586528478));
#1474=CARTESIAN_POINT('',(-0.9,8.,1.4));
#1475=CARTESIAN_POINT('',(-0.9,0.,2.15638586528478));
#1476=CARTESIAN_POINT('',(-0.9,0.,2.15638586528478));
#1477=CARTESIAN_POINT('',(-0.9,0.,0.9));
#1478=CARTESIAN_POINT('',(-0.9,0.,1.4));
#1479=CARTESIAN_POINT('',(-0.9,8.,1.4));
#1480=CARTESIAN_POINT('',(-0.9,8.,0.9));
#1481=CARTESIAN_POINT('',(-0.9,0.,0.9));
#1482=CARTESIAN_POINT('',(-1.4,0.,0.9));
#1483=CARTESIAN_POINT('',(-2.15638586528478,0.,0.9));
#1484=CARTESIAN_POINT('',(-2.15638586528478,8.,0.9));
#1485=CARTESIAN_POINT('',(-2.15638586528478,8.,0.9));
#1486=CARTESIAN_POINT('',(-0.9,8.,0.9));
#1487=CARTESIAN_POINT('',(-1.4,8.,0.9));
#1488=CARTESIAN_POINT('',(-1.4,8.,0.9));
#1489=CARTESIAN_POINT('',(0.,8.,0.));
#1490=CARTESIAN_POINT('',(0.,0.,0.));
#1491=CARTESIAN_POINT('',(-2.25014177247108,0.,0.834782608695652));
#1492=CARTESIAN_POINT('',(-2.25014177247108,0.,-0.834782608695652));
#1493=CARTESIAN_POINT('',(-2.25014177247108,8.,-0.834782608695652));
#1494=CARTESIAN_POINT('',(-2.25014177247108,8.,-0.834782608695652));
#1495=CARTESIAN_POINT('',(0.,8.,0.));
#1496=CARTESIAN_POINT('',(-2.25014177247108,8.,0.834782608695652));
#1497=CARTESIAN_POINT('',(-2.25014177247108,8.,0.834782608695652));
#1498=CARTESIAN_POINT('',(-0.9,8.,-0.9));
#1499=CARTESIAN_POINT('',(-0.9,8.,-0.9));
#1500=CARTESIAN_POINT('',(-2.15638586528478,8.,-0.9));
#1501=CARTESIAN_POINT('',(-1.4,8.,-0.9));
#1502=CARTESIAN_POINT('',(-2.15638586528478,0.,-0.9));
#1503=CARTESIAN_POINT('',(-2.15638586528478,0.,-0.9));
#1504=CARTESIAN_POINT('',(-0.9,0.,-0.9));
#1505=CARTESIAN_POINT('',(-1.4,0.,-0.9));
#1506=CARTESIAN_POINT('',(-1.4,8.,-0.9));
#1507=CARTESIAN_POINT('',(-0.9,8.,-0.9));
#1508=CARTESIAN_POINT('',(-0.9,0.,-0.9));
#1509=CARTESIAN_POINT('',(-0.9,0.,-1.4));
#1510=CARTESIAN_POINT('',(-0.9,0.,-2.15638586528478));
#1511=CARTESIAN_POINT('',(-0.9,8.,-2.15638586528478));
#1512=CARTESIAN_POINT('',(-0.9,8.,-2.15638586528478));
#1513=CARTESIAN_POINT('',(-0.9,8.,-0.9));
#1514=CARTESIAN_POINT('',(-0.9,8.,-1.4));
#1515=CARTESIAN_POINT('',(-0.9,8.,-1.4));
#1516=CARTESIAN_POINT('',(0.,8.,0.));
#1517=CARTESIAN_POINT('',(0.,0.,0.));
#1518=CARTESIAN_POINT('',(-0.834782608695652,0.,-2.25014177247108));
#1519=CARTESIAN_POINT('',(0.834782608695652,0.,-2.25014177247108));
#1520=CARTESIAN_POINT('',(0.834782608695652,8.,-2.25014177247108));
#1521=CARTESIAN_POINT('',(0.834782608695652,8.,-2.25014177247108));
#1522=CARTESIAN_POINT('',(0.,8.,0.));
#1523=CARTESIAN_POINT('',(-0.834782608695652,8.,-2.25014177247108));
#1524=CARTESIAN_POINT('',(-0.834782608695652,8.,-2.25014177247108));
#1525=CARTESIAN_POINT('',(0.9,8.,-0.9));
#1526=CARTESIAN_POINT('',(0.9,8.,-0.9));
#1527=CARTESIAN_POINT('',(0.9,8.,-2.15638586528478));
#1528=CARTESIAN_POINT('',(0.9,8.,-1.4));
#1529=CARTESIAN_POINT('',(0.9,0.,-2.15638586528478));
#1530=CARTESIAN_POINT('',(0.9,0.,-2.15638586528478));
#1531=CARTESIAN_POINT('',(0.9,0.,-0.9));
#1532=CARTESIAN_POINT('',(0.9,0.,-1.4));
#1533=CARTESIAN_POINT('',(0.9,8.,-1.4));
#1534=CARTESIAN_POINT('',(0.9,8.,-0.9));
#1535=CARTESIAN_POINT('',(0.9,0.,-0.9));
#1536=CARTESIAN_POINT('',(1.4,0.,-0.9));
#1537=CARTESIAN_POINT('',(2.15638586528478,0.,-0.9));
#1538=CARTESIAN_POINT('',(2.15638586528478,8.,-0.9));
#1539=CARTESIAN_POINT('',(2.15638586528478,8.,-0.9));
#1540=CARTESIAN_POINT('',(0.9,8.,-0.9));
#1541=CARTESIAN_POINT('',(1.4,8.,-0.9));
#1542=CARTESIAN_POINT('',(1.4,8.,-0.9));
#1543=CARTESIAN_POINT('',(-1.89364465959652,8.,2.40285088177294));
#1544=CARTESIAN_POINT('',(-1.89364465959652,0.,2.40285088177294));
#1545=CARTESIAN_POINT('',(0.,12.,7.20776457686931));
#1546=CARTESIAN_POINT('',(0.,0.,0.));
#1547=CARTESIAN_POINT('',(1.4,0.,1.4));
#1548=CARTESIAN_POINT('',(2.15638586528478,0.,0.8));
#1549=CARTESIAN_POINT('',(2.15638586528478,0.,-0.8));
#1550=CARTESIAN_POINT('',(1.4,0.,-1.4));
#1551=CARTESIAN_POINT('',(0.8,0.,-2.15638586528478));
#1552=CARTESIAN_POINT('',(-0.8,0.,-2.15638586528478));
#1553=CARTESIAN_POINT('',(-1.4,0.,-1.4));
#1554=CARTESIAN_POINT('',(-2.15638586528478,0.,-0.8));
#1555=CARTESIAN_POINT('',(-2.15638586528478,0.,0.8));
#1556=CARTESIAN_POINT('',(-1.4,0.,1.4));
#1557=CARTESIAN_POINT('',(-0.8,0.,2.15638586528478));
#1558=CARTESIAN_POINT('',(0.8,0.,2.15638586528478));
#1559=CARTESIAN_POINT('',(-1.4,8.,1.4));
#1560=CARTESIAN_POINT('',(-1.4,8.,1.4));
#1561=CARTESIAN_POINT('',(1.4,8.,-1.4));
#1562=CARTESIAN_POINT('',(1.4,8.,-1.4));
#1563=CARTESIAN_POINT('',(-1.4,8.,-1.4));
#1564=CARTESIAN_POINT('',(-1.4,8.,-1.4));
#1565=CARTESIAN_POINT('',(1.4,8.,1.4));
#1566=CARTESIAN_POINT('',(1.4,8.,1.4));
#1567=CARTESIAN_POINT('',(-0.8,8.,2.15638586528478));
#1568=CARTESIAN_POINT('',(-0.8,8.,2.15638586528478));
#1569=CARTESIAN_POINT('',(-2.15638586528478,8.,0.8));
#1570=CARTESIAN_POINT('',(-2.15638586528478,8.,0.8));
#1571=CARTESIAN_POINT('',(-2.15638586528478,8.,-0.8));
#1572=CARTESIAN_POINT('',(-2.15638586528478,8.,-0.8));
#1573=CARTESIAN_POINT('',(-0.8,8.,-2.15638586528478));
#1574=CARTESIAN_POINT('',(-0.8,8.,-2.15638586528478));
#1575=CARTESIAN_POINT('',(0.8,8.,-2.15638586528478));
#1576=CARTESIAN_POINT('',(0.8,8.,-2.15638586528478));
#1577=CARTESIAN_POINT('',(2.15638586528478,8.,-0.8));
#1578=CARTESIAN_POINT('',(2.15638586528478,8.,-0.8));
#1579=CARTESIAN_POINT('',(2.15638586528478,8.,0.8));
#1580=CARTESIAN_POINT('',(2.15638586528478,8.,0.8));
#1581=CARTESIAN_POINT('',(0.8,8.,2.15638586528478));
#1582=CARTESIAN_POINT('',(0.8,8.,2.15638586528478));
#1583=CARTESIAN_POINT('',(0.,8.,0.));
#1584=CARTESIAN_POINT('',(0.,12.,4.));
#1585=CARTESIAN_POINT('',(0.,12.,4.));
#1586=CARTESIAN_POINT('',(3.6,12.,4.));
#1587=CARTESIAN_POINT('',(0.,12.,-4.));
#1588=CARTESIAN_POINT('',(3.6,12.,-4.));
#1589=CARTESIAN_POINT('',(0.,12.,4.));
#1590=CARTESIAN_POINT('',(0.,12.,4.));
#1591=CARTESIAN_POINT('',(3.1,12.,4.));
#1592=CARTESIAN_POINT('',(0.,12.,-4.));
#1593=CARTESIAN_POINT('',(0.,12.,-4.));
#1594=CARTESIAN_POINT('',(0.,15.1,-4.));
#1595=CARTESIAN_POINT('',(0.,12.,3.2));
#1596=CARTESIAN_POINT('',(0.,12.,3.2));
#1597=CARTESIAN_POINT('',(3.1,12.,3.2));
#1598=CARTESIAN_POINT('',(0.,12.,3.2));
#1599=CARTESIAN_POINT('',(0.,12.,3.2));
#1600=CARTESIAN_POINT('',(2.4,12.,3.2));
#1601=CARTESIAN_POINT('',(0.,12.,-3.2));
#1602=CARTESIAN_POINT('',(0.,12.,-3.2));
#1603=CARTESIAN_POINT('',(0.,15.1,-3.2));
#1604=CARTESIAN_POINT('',(0.,12.,-3.2));
#1605=CARTESIAN_POINT('',(0.,12.,-3.2));
#1606=CARTESIAN_POINT('',(2.4,12.,-3.2));
#1607=CARTESIAN_POINT('',(0.,12.,-16.8));
#1608=MECHANICAL_DESIGN_GEOMETRIC_PRESENTATION_REPRESENTATION('',(#919),
#1609);
#1609=(
GEOMETRIC_REPRESENTATION_CONTEXT(3)
GLOBAL_UNCERTAINTY_ASSIGNED_CONTEXT((#1610))
GLOBAL_UNIT_ASSIGNED_CONTEXT((#1613,#1612,#1611))
REPRESENTATION_CONTEXT('ClGray_4211550_JCA','TOP_LEVEL_ASSEMBLY_PART')
);
#1610=UNCERTAINTY_MEASURE_WITH_UNIT(LENGTH_MEASURE(0.005),#1613,
'DISTANCE_ACCURACY_VALUE','Maximum Tolerance applied to model');
#1611=(
NAMED_UNIT(*)
SI_UNIT($,.STERADIAN.)
SOLID_ANGLE_UNIT()
);
#1612=(
NAMED_UNIT(*)
PLANE_ANGLE_UNIT()
SI_UNIT($,.RADIAN.)
);
#1613=(
LENGTH_UNIT()
NAMED_UNIT(*)
SI_UNIT(.MILLI.,.METRE.)
);
#1614=PRODUCT_DEFINITION_SHAPE('','',#1615);
#1615=PRODUCT_DEFINITION('','',#1617,#1616);
#1616=PRODUCT_DEFINITION_CONTEXT('',#1623,'design');
#1617=PRODUCT_DEFINITION_FORMATION_WITH_SPECIFIED_SOURCE('','',#1619,
 .NOT_KNOWN.);
#1618=PRODUCT_RELATED_PRODUCT_CATEGORY('','',(#1619));
#1619=PRODUCT('ClGray_4211550_JCA','ClGray_4211550_JCA',
'ClGray_4211550_JCA',(#1621));
#1620=PRODUCT_CATEGORY('','');
#1621=PRODUCT_CONTEXT('',#1623,'mechanical');
#1622=APPLICATION_PROTOCOL_DEFINITION('international standard',
'automotive_design',2010,#1623);
#1623=APPLICATION_CONTEXT(
'core data for automotive mechanical design processes');
ENDSEC;
END-ISO-10303-21;
