ISO-10303-21;
HEADER;
/* Generated by software containing ST-Developer
 * from STEP Tools, Inc. (www.steptools.com) 
 */
/* OPTION: strings as raw bytes, not using required /X/ escapes */

FILE_DESCRIPTION(
/* description */ ('Unknown'),
/* implementation_level */ '2;1');

FILE_NAME(
/* name */ 'ClGrey_4638507_b)_AVV',
/* time_stamp */ '2025-07-21T23:58:29+02:00',
/* author */ ('Unknown'),
/* organization */ ('Unknown'),
/* preprocessor_version */ 'ST-DEVELOPER v19.4',
/* originating_system */ 'Solid Edge',
/* authorisation */ 'Unknown');

FILE_SCHEMA (('AUTOMOTIVE_DESIGN {1 0 10303 214 3 1 1}'));
ENDSEC;

DATA;
#10=PROPERTY_DEFINITION_REPRESENTATION(#14,#12);
#11=PROPERTY_DEFINITION_REPRESENTATION(#15,#13);
#12=REPRESENTATION('',(#16),#1235);
#13=REPRESENTATION('',(#17),#1235);
#14=PROPERTY_DEFINITION('pmi validation property','',#1240);
#15=PROPERTY_DEFINITION('pmi validation property','',#1240);
#16=VALUE_REPRESENTATION_ITEM('number of annotations',COUNT_MEASURE(0.));
#17=VALUE_REPRESENTATION_ITEM('number of views',COUNT_MEASURE(0.));
#18=SHAPE_REPRESENTATION_RELATIONSHIP('','',#732,#19);
#19=ADVANCED_BREP_SHAPE_REPRESENTATION('',(#730),#1235);
#20=PLANE('',#741);
#21=PLANE('',#749);
#22=PLANE('',#750);
#23=PLANE('',#755);
#24=PLANE('',#756);
#25=PLANE('',#766);
#26=PLANE('',#770);
#27=PLANE('',#777);
#28=PLANE('',#778);
#29=PLANE('',#779);
#30=PLANE('',#780);
#31=PLANE('',#781);
#32=PLANE('',#785);
#33=PLANE('',#786);
#34=PLANE('',#787);
#35=PLANE('',#788);
#36=PLANE('',#792);
#37=PLANE('',#794);
#38=PLANE('',#795);
#39=PLANE('',#798);
#40=PLANE('',#799);
#41=PLANE('',#800);
#42=PLANE('',#802);
#43=PLANE('',#803);
#44=PLANE('',#804);
#45=PLANE('',#805);
#46=PLANE('',#808);
#47=ELLIPSE('',#738,18.5201125239896,7.6);
#48=ELLIPSE('',#763,18.5201125239895,7.6);
#49=ELLIPSE('',#773,15.8395699218332,6.5);
#50=ELLIPSE('',#775,15.8395699218332,6.5);
#51=LINE('',#1030,#115);
#52=LINE('',#1034,#116);
#53=LINE('',#1042,#117);
#54=LINE('',#1046,#118);
#55=LINE('',#1050,#119);
#56=LINE('',#1052,#120);
#57=LINE('',#1056,#121);
#58=LINE('',#1060,#122);
#59=LINE('',#1064,#123);
#60=LINE('',#1068,#124);
#61=LINE('',#1072,#125);
#62=LINE('',#1073,#126);
#63=LINE('',#1077,#127);
#64=LINE('',#1080,#128);
#65=LINE('',#1082,#129);
#66=LINE('',#1084,#130);
#67=LINE('',#1086,#131);
#68=LINE('',#1090,#132);
#69=LINE('',#1094,#133);
#70=LINE('',#1098,#134);
#71=LINE('',#1099,#135);
#72=LINE('',#1103,#136);
#73=LINE('',#1105,#137);
#74=LINE('',#1108,#138);
#75=LINE('',#1110,#139);
#76=LINE('',#1112,#140);
#77=LINE('',#1114,#141);
#78=LINE('',#1119,#142);
#79=LINE('',#1120,#143);
#80=LINE('',#1124,#144);
#81=LINE('',#1125,#145);
#82=LINE('',#1129,#146);
#83=LINE('',#1133,#147);
#84=LINE('',#1134,#148);
#85=LINE('',#1138,#149);
#86=LINE('',#1139,#150);
#87=LINE('',#1155,#151);
#88=LINE('',#1159,#152);
#89=LINE('',#1161,#153);
#90=LINE('',#1165,#154);
#91=LINE('',#1169,#155);
#92=LINE('',#1171,#156);
#93=LINE('',#1173,#157);
#94=LINE('',#1175,#158);
#95=LINE('',#1177,#159);
#96=LINE('',#1179,#160);
#97=LINE('',#1186,#161);
#98=LINE('',#1188,#162);
#99=LINE('',#1190,#163);
#100=LINE('',#1192,#164);
#101=LINE('',#1194,#165);
#102=LINE('',#1196,#166);
#103=LINE('',#1203,#167);
#104=LINE('',#1204,#168);
#105=LINE('',#1208,#169);
#106=LINE('',#1212,#170);
#107=LINE('',#1214,#171);
#108=LINE('',#1216,#172);
#109=LINE('',#1219,#173);
#110=LINE('',#1220,#174);
#111=LINE('',#1224,#175);
#112=LINE('',#1226,#176);
#113=LINE('',#1228,#177);
#114=LINE('',#1230,#178);
#115=VECTOR('',#815,1000.);
#116=VECTOR('',#818,1000.);
#117=VECTOR('',#825,1000.);
#118=VECTOR('',#828,1000.);
#119=VECTOR('',#833,1000.);
#120=VECTOR('',#834,1000.);
#121=VECTOR('',#837,1000.);
#122=VECTOR('',#840,1000.);
#123=VECTOR('',#843,1000.);
#124=VECTOR('',#846,1000.);
#125=VECTOR('',#849,1000.);
#126=VECTOR('',#850,1000.);
#127=VECTOR('',#855,1000.);
#128=VECTOR('',#856,1000.);
#129=VECTOR('',#857,1000.);
#130=VECTOR('',#858,1000.);
#131=VECTOR('',#861,1000.);
#132=VECTOR('',#864,1000.);
#133=VECTOR('',#867,1000.);
#134=VECTOR('',#870,1000.);
#135=VECTOR('',#871,1000.);
#136=VECTOR('',#874,1000.);
#137=VECTOR('',#877,1000.);
#138=VECTOR('',#878,1000.);
#139=VECTOR('',#879,1000.);
#140=VECTOR('',#880,1000.);
#141=VECTOR('',#883,1000.);
#142=VECTOR('',#886,1000.);
#143=VECTOR('',#887,1000.);
#144=VECTOR('',#890,1000.);
#145=VECTOR('',#891,1000.);
#146=VECTOR('',#894,1000.);
#147=VECTOR('',#899,1000.);
#148=VECTOR('',#900,1000.);
#149=VECTOR('',#903,1000.);
#150=VECTOR('',#904,1000.);
#151=VECTOR('',#927,1000.);
#152=VECTOR('',#930,1000.);
#153=VECTOR('',#933,1000.);
#154=VECTOR('',#936,1000.);
#155=VECTOR('',#943,1000.);
#156=VECTOR('',#944,1000.);
#157=VECTOR('',#945,1000.);
#158=VECTOR('',#948,1000.);
#159=VECTOR('',#949,1000.);
#160=VECTOR('',#950,1000.);
#161=VECTOR('',#963,1000.);
#162=VECTOR('',#964,1000.);
#163=VECTOR('',#965,1000.);
#164=VECTOR('',#968,1000.);
#165=VECTOR('',#969,1000.);
#166=VECTOR('',#970,1000.);
#167=VECTOR('',#983,1000.);
#168=VECTOR('',#984,1000.);
#169=VECTOR('',#991,1000.);
#170=VECTOR('',#994,1000.);
#171=VECTOR('',#997,1000.);
#172=VECTOR('',#1000,1000.);
#173=VECTOR('',#1005,1000.);
#174=VECTOR('',#1006,1000.);
#175=VECTOR('',#1013,1000.);
#176=VECTOR('',#1014,1000.);
#177=VECTOR('',#1017,1000.);
#178=VECTOR('',#1018,1000.);
#179=ORIENTED_EDGE('',*,*,#381,.T.);
#180=ORIENTED_EDGE('',*,*,#382,.T.);
#181=ORIENTED_EDGE('',*,*,#383,.F.);
#182=ORIENTED_EDGE('',*,*,#384,.F.);
#183=ORIENTED_EDGE('',*,*,#385,.T.);
#184=ORIENTED_EDGE('',*,*,#386,.T.);
#185=ORIENTED_EDGE('',*,*,#387,.T.);
#186=ORIENTED_EDGE('',*,*,#388,.T.);
#187=ORIENTED_EDGE('',*,*,#389,.F.);
#188=ORIENTED_EDGE('',*,*,#390,.F.);
#189=ORIENTED_EDGE('',*,*,#391,.F.);
#190=ORIENTED_EDGE('',*,*,#392,.F.);
#191=ORIENTED_EDGE('',*,*,#389,.T.);
#192=ORIENTED_EDGE('',*,*,#393,.F.);
#193=ORIENTED_EDGE('',*,*,#394,.F.);
#194=ORIENTED_EDGE('',*,*,#395,.F.);
#195=ORIENTED_EDGE('',*,*,#396,.T.);
#196=ORIENTED_EDGE('',*,*,#397,.F.);
#197=ORIENTED_EDGE('',*,*,#398,.F.);
#198=ORIENTED_EDGE('',*,*,#399,.F.);
#199=ORIENTED_EDGE('',*,*,#400,.T.);
#200=ORIENTED_EDGE('',*,*,#401,.F.);
#201=ORIENTED_EDGE('',*,*,#402,.F.);
#202=ORIENTED_EDGE('',*,*,#403,.F.);
#203=ORIENTED_EDGE('',*,*,#383,.T.);
#204=ORIENTED_EDGE('',*,*,#404,.F.);
#205=ORIENTED_EDGE('',*,*,#405,.F.);
#206=ORIENTED_EDGE('',*,*,#406,.F.);
#207=ORIENTED_EDGE('',*,*,#407,.T.);
#208=ORIENTED_EDGE('',*,*,#408,.T.);
#209=ORIENTED_EDGE('',*,*,#409,.F.);
#210=ORIENTED_EDGE('',*,*,#410,.F.);
#211=ORIENTED_EDGE('',*,*,#411,.F.);
#212=ORIENTED_EDGE('',*,*,#412,.F.);
#213=ORIENTED_EDGE('',*,*,#413,.F.);
#214=ORIENTED_EDGE('',*,*,#414,.F.);
#215=ORIENTED_EDGE('',*,*,#415,.F.);
#216=ORIENTED_EDGE('',*,*,#416,.T.);
#217=ORIENTED_EDGE('',*,*,#409,.T.);
#218=ORIENTED_EDGE('',*,*,#417,.T.);
#219=ORIENTED_EDGE('',*,*,#418,.F.);
#220=ORIENTED_EDGE('',*,*,#419,.T.);
#221=ORIENTED_EDGE('',*,*,#385,.F.);
#222=ORIENTED_EDGE('',*,*,#420,.F.);
#223=ORIENTED_EDGE('',*,*,#421,.T.);
#224=ORIENTED_EDGE('',*,*,#422,.T.);
#225=ORIENTED_EDGE('',*,*,#423,.F.);
#226=ORIENTED_EDGE('',*,*,#424,.F.);
#227=ORIENTED_EDGE('',*,*,#425,.F.);
#228=ORIENTED_EDGE('',*,*,#426,.F.);
#229=ORIENTED_EDGE('',*,*,#387,.F.);
#230=ORIENTED_EDGE('',*,*,#427,.T.);
#231=ORIENTED_EDGE('',*,*,#428,.F.);
#232=ORIENTED_EDGE('',*,*,#429,.T.);
#233=ORIENTED_EDGE('',*,*,#423,.T.);
#234=ORIENTED_EDGE('',*,*,#430,.T.);
#235=ORIENTED_EDGE('',*,*,#431,.F.);
#236=ORIENTED_EDGE('',*,*,#432,.F.);
#237=ORIENTED_EDGE('',*,*,#433,.F.);
#238=ORIENTED_EDGE('',*,*,#413,.T.);
#239=ORIENTED_EDGE('',*,*,#434,.T.);
#240=ORIENTED_EDGE('',*,*,#400,.F.);
#241=ORIENTED_EDGE('',*,*,#435,.F.);
#242=ORIENTED_EDGE('',*,*,#436,.T.);
#243=ORIENTED_EDGE('',*,*,#437,.T.);
#244=ORIENTED_EDGE('',*,*,#396,.F.);
#245=ORIENTED_EDGE('',*,*,#438,.F.);
#246=ORIENTED_EDGE('',*,*,#433,.T.);
#247=ORIENTED_EDGE('',*,*,#439,.T.);
#248=ORIENTED_EDGE('',*,*,#440,.F.);
#249=ORIENTED_EDGE('',*,*,#391,.T.);
#250=ORIENTED_EDGE('',*,*,#441,.F.);
#251=ORIENTED_EDGE('',*,*,#440,.T.);
#252=ORIENTED_EDGE('',*,*,#442,.F.);
#253=ORIENTED_EDGE('',*,*,#441,.T.);
#254=ORIENTED_EDGE('',*,*,#443,.F.);
#255=ORIENTED_EDGE('',*,*,#442,.T.);
#256=ORIENTED_EDGE('',*,*,#444,.T.);
#257=ORIENTED_EDGE('',*,*,#418,.T.);
#258=ORIENTED_EDGE('',*,*,#445,.F.);
#259=ORIENTED_EDGE('',*,*,#446,.T.);
#260=ORIENTED_EDGE('',*,*,#447,.T.);
#261=ORIENTED_EDGE('',*,*,#415,.T.);
#262=ORIENTED_EDGE('',*,*,#448,.T.);
#263=ORIENTED_EDGE('',*,*,#431,.T.);
#264=ORIENTED_EDGE('',*,*,#449,.F.);
#265=ORIENTED_EDGE('',*,*,#450,.T.);
#266=ORIENTED_EDGE('',*,*,#451,.T.);
#267=ORIENTED_EDGE('',*,*,#428,.T.);
#268=ORIENTED_EDGE('',*,*,#443,.T.);
#269=ORIENTED_EDGE('',*,*,#432,.T.);
#270=ORIENTED_EDGE('',*,*,#448,.F.);
#271=ORIENTED_EDGE('',*,*,#414,.T.);
#272=ORIENTED_EDGE('',*,*,#439,.F.);
#273=ORIENTED_EDGE('',*,*,#419,.F.);
#274=ORIENTED_EDGE('',*,*,#444,.F.);
#275=ORIENTED_EDGE('',*,*,#427,.F.);
#276=ORIENTED_EDGE('',*,*,#386,.F.);
#277=ORIENTED_EDGE('',*,*,#430,.F.);
#278=ORIENTED_EDGE('',*,*,#422,.F.);
#279=ORIENTED_EDGE('',*,*,#452,.T.);
#280=ORIENTED_EDGE('',*,*,#453,.T.);
#281=ORIENTED_EDGE('',*,*,#454,.T.);
#282=ORIENTED_EDGE('',*,*,#449,.T.);
#283=ORIENTED_EDGE('',*,*,#429,.F.);
#284=ORIENTED_EDGE('',*,*,#451,.F.);
#285=ORIENTED_EDGE('',*,*,#455,.T.);
#286=ORIENTED_EDGE('',*,*,#456,.F.);
#287=ORIENTED_EDGE('',*,*,#457,.T.);
#288=ORIENTED_EDGE('',*,*,#420,.T.);
#289=ORIENTED_EDGE('',*,*,#454,.F.);
#290=ORIENTED_EDGE('',*,*,#458,.T.);
#291=ORIENTED_EDGE('',*,*,#455,.F.);
#292=ORIENTED_EDGE('',*,*,#450,.F.);
#293=ORIENTED_EDGE('',*,*,#458,.F.);
#294=ORIENTED_EDGE('',*,*,#453,.F.);
#295=ORIENTED_EDGE('',*,*,#459,.T.);
#296=ORIENTED_EDGE('',*,*,#456,.T.);
#297=ORIENTED_EDGE('',*,*,#421,.F.);
#298=ORIENTED_EDGE('',*,*,#457,.F.);
#299=ORIENTED_EDGE('',*,*,#459,.F.);
#300=ORIENTED_EDGE('',*,*,#452,.F.);
#301=ORIENTED_EDGE('',*,*,#417,.F.);
#302=ORIENTED_EDGE('',*,*,#408,.F.);
#303=ORIENTED_EDGE('',*,*,#460,.T.);
#304=ORIENTED_EDGE('',*,*,#461,.T.);
#305=ORIENTED_EDGE('',*,*,#462,.T.);
#306=ORIENTED_EDGE('',*,*,#445,.T.);
#307=ORIENTED_EDGE('',*,*,#416,.F.);
#308=ORIENTED_EDGE('',*,*,#447,.F.);
#309=ORIENTED_EDGE('',*,*,#463,.T.);
#310=ORIENTED_EDGE('',*,*,#464,.F.);
#311=ORIENTED_EDGE('',*,*,#465,.T.);
#312=ORIENTED_EDGE('',*,*,#406,.T.);
#313=ORIENTED_EDGE('',*,*,#462,.F.);
#314=ORIENTED_EDGE('',*,*,#466,.T.);
#315=ORIENTED_EDGE('',*,*,#463,.F.);
#316=ORIENTED_EDGE('',*,*,#446,.F.);
#317=ORIENTED_EDGE('',*,*,#466,.F.);
#318=ORIENTED_EDGE('',*,*,#461,.F.);
#319=ORIENTED_EDGE('',*,*,#467,.T.);
#320=ORIENTED_EDGE('',*,*,#464,.T.);
#321=ORIENTED_EDGE('',*,*,#465,.F.);
#322=ORIENTED_EDGE('',*,*,#467,.F.);
#323=ORIENTED_EDGE('',*,*,#460,.F.);
#324=ORIENTED_EDGE('',*,*,#407,.F.);
#325=ORIENTED_EDGE('',*,*,#394,.T.);
#326=ORIENTED_EDGE('',*,*,#468,.F.);
#327=ORIENTED_EDGE('',*,*,#425,.T.);
#328=ORIENTED_EDGE('',*,*,#469,.T.);
#329=ORIENTED_EDGE('',*,*,#395,.T.);
#330=ORIENTED_EDGE('',*,*,#469,.F.);
#331=ORIENTED_EDGE('',*,*,#424,.T.);
#332=ORIENTED_EDGE('',*,*,#438,.T.);
#333=ORIENTED_EDGE('',*,*,#393,.T.);
#334=ORIENTED_EDGE('',*,*,#388,.F.);
#335=ORIENTED_EDGE('',*,*,#426,.T.);
#336=ORIENTED_EDGE('',*,*,#468,.T.);
#337=ORIENTED_EDGE('',*,*,#398,.T.);
#338=ORIENTED_EDGE('',*,*,#470,.F.);
#339=ORIENTED_EDGE('',*,*,#471,.T.);
#340=ORIENTED_EDGE('',*,*,#472,.T.);
#341=ORIENTED_EDGE('',*,*,#399,.T.);
#342=ORIENTED_EDGE('',*,*,#472,.F.);
#343=ORIENTED_EDGE('',*,*,#473,.T.);
#344=ORIENTED_EDGE('',*,*,#435,.T.);
#345=ORIENTED_EDGE('',*,*,#397,.T.);
#346=ORIENTED_EDGE('',*,*,#437,.F.);
#347=ORIENTED_EDGE('',*,*,#474,.T.);
#348=ORIENTED_EDGE('',*,*,#470,.T.);
#349=ORIENTED_EDGE('',*,*,#471,.F.);
#350=ORIENTED_EDGE('',*,*,#474,.F.);
#351=ORIENTED_EDGE('',*,*,#436,.F.);
#352=ORIENTED_EDGE('',*,*,#473,.F.);
#353=ORIENTED_EDGE('',*,*,#402,.T.);
#354=ORIENTED_EDGE('',*,*,#475,.F.);
#355=ORIENTED_EDGE('',*,*,#411,.T.);
#356=ORIENTED_EDGE('',*,*,#476,.T.);
#357=ORIENTED_EDGE('',*,*,#403,.T.);
#358=ORIENTED_EDGE('',*,*,#476,.F.);
#359=ORIENTED_EDGE('',*,*,#410,.T.);
#360=ORIENTED_EDGE('',*,*,#384,.T.);
#361=ORIENTED_EDGE('',*,*,#401,.T.);
#362=ORIENTED_EDGE('',*,*,#434,.F.);
#363=ORIENTED_EDGE('',*,*,#412,.T.);
#364=ORIENTED_EDGE('',*,*,#475,.T.);
#365=ORIENTED_EDGE('',*,*,#392,.T.);
#366=ORIENTED_EDGE('',*,*,#477,.F.);
#367=ORIENTED_EDGE('',*,*,#478,.T.);
#368=ORIENTED_EDGE('',*,*,#390,.T.);
#369=ORIENTED_EDGE('',*,*,#404,.T.);
#370=ORIENTED_EDGE('',*,*,#382,.F.);
#371=ORIENTED_EDGE('',*,*,#479,.T.);
#372=ORIENTED_EDGE('',*,*,#480,.T.);
#373=ORIENTED_EDGE('',*,*,#405,.T.);
#374=ORIENTED_EDGE('',*,*,#480,.F.);
#375=ORIENTED_EDGE('',*,*,#481,.T.);
#376=ORIENTED_EDGE('',*,*,#477,.T.);
#377=ORIENTED_EDGE('',*,*,#481,.F.);
#378=ORIENTED_EDGE('',*,*,#479,.F.);
#379=ORIENTED_EDGE('',*,*,#381,.F.);
#380=ORIENTED_EDGE('',*,*,#478,.F.);
#381=EDGE_CURVE('',#482,#483,#551,.T.);
#382=EDGE_CURVE('',#483,#484,#51,.T.);
#383=EDGE_CURVE('',#485,#484,#552,.T.);
#384=EDGE_CURVE('',#486,#485,#52,.T.);
#385=EDGE_CURVE('',#486,#487,#553,.T.);
#386=EDGE_CURVE('',#487,#488,#47,.T.);
#387=EDGE_CURVE('',#488,#489,#554,.T.);
#388=EDGE_CURVE('',#489,#490,#53,.T.);
#389=EDGE_CURVE('',#491,#490,#555,.T.);
#390=EDGE_CURVE('',#482,#491,#54,.T.);
#391=EDGE_CURVE('',#492,#492,#556,.T.);
#392=EDGE_CURVE('',#491,#493,#55,.T.);
#393=EDGE_CURVE('',#494,#490,#56,.T.);
#394=EDGE_CURVE('',#495,#494,#557,.T.);
#395=EDGE_CURVE('',#496,#495,#57,.T.);
#396=EDGE_CURVE('',#496,#497,#558,.T.);
#397=EDGE_CURVE('',#498,#497,#58,.T.);
#398=EDGE_CURVE('',#499,#498,#559,.T.);
#399=EDGE_CURVE('',#500,#499,#59,.T.);
#400=EDGE_CURVE('',#500,#501,#560,.T.);
#401=EDGE_CURVE('',#502,#501,#60,.T.);
#402=EDGE_CURVE('',#503,#502,#561,.T.);
#403=EDGE_CURVE('',#485,#503,#61,.T.);
#404=EDGE_CURVE('',#504,#484,#62,.T.);
#405=EDGE_CURVE('',#493,#504,#562,.T.);
#406=EDGE_CURVE('',#505,#506,#63,.T.);
#407=EDGE_CURVE('',#505,#507,#64,.T.);
#408=EDGE_CURVE('',#507,#508,#65,.T.);
#409=EDGE_CURVE('',#506,#508,#66,.T.);
#410=EDGE_CURVE('',#509,#486,#67,.T.);
#411=EDGE_CURVE('',#510,#509,#563,.T.);
#412=EDGE_CURVE('',#511,#510,#68,.T.);
#413=EDGE_CURVE('',#512,#511,#564,.T.);
#414=EDGE_CURVE('',#513,#512,#69,.T.);
#415=EDGE_CURVE('',#514,#513,#565,.F.);
#416=EDGE_CURVE('',#514,#506,#70,.T.);
#417=EDGE_CURVE('',#508,#515,#71,.T.);
#418=EDGE_CURVE('',#516,#515,#566,.F.);
#419=EDGE_CURVE('',#516,#487,#72,.T.);
#420=EDGE_CURVE('',#517,#518,#73,.T.);
#421=EDGE_CURVE('',#517,#519,#74,.T.);
#422=EDGE_CURVE('',#519,#520,#75,.T.);
#423=EDGE_CURVE('',#518,#520,#76,.T.);
#424=EDGE_CURVE('',#521,#522,#77,.T.);
#425=EDGE_CURVE('',#523,#521,#567,.T.);
#426=EDGE_CURVE('',#489,#523,#78,.T.);
#427=EDGE_CURVE('',#488,#524,#79,.T.);
#428=EDGE_CURVE('',#525,#524,#568,.F.);
#429=EDGE_CURVE('',#525,#518,#80,.T.);
#430=EDGE_CURVE('',#520,#526,#81,.T.);
#431=EDGE_CURVE('',#527,#526,#569,.F.);
#432=EDGE_CURVE('',#528,#527,#82,.T.);
#433=EDGE_CURVE('',#522,#528,#570,.T.);
#434=EDGE_CURVE('',#511,#501,#83,.T.);
#435=EDGE_CURVE('',#529,#500,#84,.T.);
#436=EDGE_CURVE('',#529,#530,#571,.T.);
#437=EDGE_CURVE('',#530,#497,#85,.T.);
#438=EDGE_CURVE('',#522,#496,#86,.T.);
#439=EDGE_CURVE('',#528,#512,#48,.T.);
#440=EDGE_CURVE('',#531,#531,#572,.T.);
#441=EDGE_CURVE('',#532,#532,#573,.T.);
#442=EDGE_CURVE('',#533,#533,#574,.T.);
#443=EDGE_CURVE('',#534,#534,#575,.T.);
#444=EDGE_CURVE('',#524,#516,#49,.F.);
#445=EDGE_CURVE('',#535,#515,#87,.T.);
#446=EDGE_CURVE('',#535,#536,#576,.T.);
#447=EDGE_CURVE('',#536,#514,#88,.T.);
#448=EDGE_CURVE('',#513,#527,#50,.F.);
#449=EDGE_CURVE('',#537,#526,#89,.T.);
#450=EDGE_CURVE('',#537,#538,#577,.T.);
#451=EDGE_CURVE('',#538,#525,#90,.T.);
#452=EDGE_CURVE('',#519,#539,#91,.T.);
#453=EDGE_CURVE('',#539,#540,#92,.T.);
#454=EDGE_CURVE('',#540,#537,#93,.T.);
#455=EDGE_CURVE('',#538,#541,#94,.T.);
#456=EDGE_CURVE('',#542,#541,#95,.T.);
#457=EDGE_CURVE('',#542,#517,#96,.T.);
#458=EDGE_CURVE('',#540,#541,#578,.T.);
#459=EDGE_CURVE('',#539,#542,#579,.T.);
#460=EDGE_CURVE('',#507,#543,#97,.T.);
#461=EDGE_CURVE('',#543,#544,#98,.T.);
#462=EDGE_CURVE('',#544,#535,#99,.T.);
#463=EDGE_CURVE('',#536,#545,#100,.T.);
#464=EDGE_CURVE('',#546,#545,#101,.T.);
#465=EDGE_CURVE('',#546,#505,#102,.T.);
#466=EDGE_CURVE('',#544,#545,#580,.T.);
#467=EDGE_CURVE('',#543,#546,#581,.T.);
#468=EDGE_CURVE('',#523,#494,#103,.T.);
#469=EDGE_CURVE('',#521,#495,#104,.T.);
#470=EDGE_CURVE('',#547,#498,#105,.T.);
#471=EDGE_CURVE('',#547,#548,#582,.T.);
#472=EDGE_CURVE('',#548,#499,#106,.T.);
#473=EDGE_CURVE('',#548,#529,#107,.T.);
#474=EDGE_CURVE('',#530,#547,#108,.T.);
#475=EDGE_CURVE('',#510,#502,#109,.T.);
#476=EDGE_CURVE('',#509,#503,#110,.T.);
#477=EDGE_CURVE('',#549,#493,#111,.T.);
#478=EDGE_CURVE('',#549,#482,#112,.T.);
#479=EDGE_CURVE('',#483,#550,#113,.T.);
#480=EDGE_CURVE('',#550,#504,#114,.T.);
#481=EDGE_CURVE('',#550,#549,#583,.T.);
#482=VERTEX_POINT('',#1028);
#483=VERTEX_POINT('',#1029);
#484=VERTEX_POINT('',#1031);
#485=VERTEX_POINT('',#1033);
#486=VERTEX_POINT('',#1035);
#487=VERTEX_POINT('',#1037);
#488=VERTEX_POINT('',#1039);
#489=VERTEX_POINT('',#1041);
#490=VERTEX_POINT('',#1043);
#491=VERTEX_POINT('',#1045);
#492=VERTEX_POINT('',#1049);
#493=VERTEX_POINT('',#1051);
#494=VERTEX_POINT('',#1053);
#495=VERTEX_POINT('',#1055);
#496=VERTEX_POINT('',#1057);
#497=VERTEX_POINT('',#1059);
#498=VERTEX_POINT('',#1061);
#499=VERTEX_POINT('',#1063);
#500=VERTEX_POINT('',#1065);
#501=VERTEX_POINT('',#1067);
#502=VERTEX_POINT('',#1069);
#503=VERTEX_POINT('',#1071);
#504=VERTEX_POINT('',#1074);
#505=VERTEX_POINT('',#1078);
#506=VERTEX_POINT('',#1079);
#507=VERTEX_POINT('',#1081);
#508=VERTEX_POINT('',#1083);
#509=VERTEX_POINT('',#1087);
#510=VERTEX_POINT('',#1089);
#511=VERTEX_POINT('',#1091);
#512=VERTEX_POINT('',#1093);
#513=VERTEX_POINT('',#1095);
#514=VERTEX_POINT('',#1097);
#515=VERTEX_POINT('',#1100);
#516=VERTEX_POINT('',#1102);
#517=VERTEX_POINT('',#1106);
#518=VERTEX_POINT('',#1107);
#519=VERTEX_POINT('',#1109);
#520=VERTEX_POINT('',#1111);
#521=VERTEX_POINT('',#1115);
#522=VERTEX_POINT('',#1116);
#523=VERTEX_POINT('',#1118);
#524=VERTEX_POINT('',#1121);
#525=VERTEX_POINT('',#1123);
#526=VERTEX_POINT('',#1126);
#527=VERTEX_POINT('',#1128);
#528=VERTEX_POINT('',#1130);
#529=VERTEX_POINT('',#1135);
#530=VERTEX_POINT('',#1137);
#531=VERTEX_POINT('',#1143);
#532=VERTEX_POINT('',#1146);
#533=VERTEX_POINT('',#1149);
#534=VERTEX_POINT('',#1152);
#535=VERTEX_POINT('',#1156);
#536=VERTEX_POINT('',#1158);
#537=VERTEX_POINT('',#1162);
#538=VERTEX_POINT('',#1164);
#539=VERTEX_POINT('',#1170);
#540=VERTEX_POINT('',#1172);
#541=VERTEX_POINT('',#1176);
#542=VERTEX_POINT('',#1178);
#543=VERTEX_POINT('',#1187);
#544=VERTEX_POINT('',#1189);
#545=VERTEX_POINT('',#1193);
#546=VERTEX_POINT('',#1195);
#547=VERTEX_POINT('',#1209);
#548=VERTEX_POINT('',#1211);
#549=VERTEX_POINT('',#1225);
#550=VERTEX_POINT('',#1229);
#551=CIRCLE('',#735,7.6);
#552=CIRCLE('',#736,7.59999999999999);
#553=CIRCLE('',#737,7.6);
#554=CIRCLE('',#739,7.6);
#555=CIRCLE('',#740,7.59999999999999);
#556=CIRCLE('',#742,6.49999999999999);
#557=CIRCLE('',#743,7.2);
#558=CIRCLE('',#744,7.59999999999999);
#559=CIRCLE('',#745,7.2);
#560=CIRCLE('',#746,7.59999999999999);
#561=CIRCLE('',#747,7.2);
#562=CIRCLE('',#748,7.2);
#563=CIRCLE('',#751,7.2);
#564=CIRCLE('',#752,7.6);
#565=CIRCLE('',#753,6.5);
#566=CIRCLE('',#754,6.5);
#567=CIRCLE('',#757,7.2);
#568=CIRCLE('',#758,6.5);
#569=CIRCLE('',#759,6.5);
#570=CIRCLE('',#760,7.6);
#571=CIRCLE('',#762,7.6);
#572=CIRCLE('',#765,6.49999999999999);
#573=CIRCLE('',#767,2.4);
#574=CIRCLE('',#769,2.4);
#575=CIRCLE('',#771,6.49999999999999);
#576=CIRCLE('',#774,6.5);
#577=CIRCLE('',#776,6.5);
#578=CIRCLE('',#782,7.59999999999999);
#579=CIRCLE('',#784,7.59999999999999);
#580=CIRCLE('',#789,7.59999999999999);
#581=CIRCLE('',#791,7.59999999999999);
#582=CIRCLE('',#797,7.2);
#583=CIRCLE('',#807,7.2);
#584=EDGE_LOOP('',(#179,#180,#181,#182,#183,#184,#185,#186,#187,#188));
#585=EDGE_LOOP('',(#189));
#586=EDGE_LOOP('',(#190,#191,#192,#193,#194,#195,#196,#197,#198,#199,#200,
#201,#202,#203,#204,#205));
#587=EDGE_LOOP('',(#206,#207,#208,#209));
#588=EDGE_LOOP('',(#210,#211,#212,#213,#214,#215,#216,#217,#218,#219,#220,
#221));
#589=EDGE_LOOP('',(#222,#223,#224,#225));
#590=EDGE_LOOP('',(#226,#227,#228,#229,#230,#231,#232,#233,#234,#235,#236,
#237));
#591=EDGE_LOOP('',(#238,#239,#240,#241,#242,#243,#244,#245,#246,#247));
#592=EDGE_LOOP('',(#248));
#593=EDGE_LOOP('',(#249));
#594=EDGE_LOOP('',(#250));
#595=EDGE_LOOP('',(#251));
#596=EDGE_LOOP('',(#252));
#597=EDGE_LOOP('',(#253));
#598=EDGE_LOOP('',(#254));
#599=EDGE_LOOP('',(#255));
#600=EDGE_LOOP('',(#256,#257,#258,#259,#260,#261,#262,#263,#264,#265,#266,
#267));
#601=EDGE_LOOP('',(#268));
#602=EDGE_LOOP('',(#269,#270,#271,#272));
#603=EDGE_LOOP('',(#273,#274,#275,#276));
#604=EDGE_LOOP('',(#277,#278,#279,#280,#281,#282));
#605=EDGE_LOOP('',(#283,#284,#285,#286,#287,#288));
#606=EDGE_LOOP('',(#289,#290,#291,#292));
#607=EDGE_LOOP('',(#293,#294,#295,#296));
#608=EDGE_LOOP('',(#297,#298,#299,#300));
#609=EDGE_LOOP('',(#301,#302,#303,#304,#305,#306));
#610=EDGE_LOOP('',(#307,#308,#309,#310,#311,#312));
#611=EDGE_LOOP('',(#313,#314,#315,#316));
#612=EDGE_LOOP('',(#317,#318,#319,#320));
#613=EDGE_LOOP('',(#321,#322,#323,#324));
#614=EDGE_LOOP('',(#325,#326,#327,#328));
#615=EDGE_LOOP('',(#329,#330,#331,#332));
#616=EDGE_LOOP('',(#333,#334,#335,#336));
#617=EDGE_LOOP('',(#337,#338,#339,#340));
#618=EDGE_LOOP('',(#341,#342,#343,#344));
#619=EDGE_LOOP('',(#345,#346,#347,#348));
#620=EDGE_LOOP('',(#349,#350,#351,#352));
#621=EDGE_LOOP('',(#353,#354,#355,#356));
#622=EDGE_LOOP('',(#357,#358,#359,#360));
#623=EDGE_LOOP('',(#361,#362,#363,#364));
#624=EDGE_LOOP('',(#365,#366,#367,#368));
#625=EDGE_LOOP('',(#369,#370,#371,#372));
#626=EDGE_LOOP('',(#373,#374,#375,#376));
#627=EDGE_LOOP('',(#377,#378,#379,#380));
#628=FACE_BOUND('',#584,.T.);
#629=FACE_BOUND('',#585,.T.);
#630=FACE_BOUND('',#586,.T.);
#631=FACE_BOUND('',#587,.T.);
#632=FACE_BOUND('',#588,.T.);
#633=FACE_BOUND('',#589,.T.);
#634=FACE_BOUND('',#590,.T.);
#635=FACE_BOUND('',#591,.T.);
#636=FACE_BOUND('',#592,.T.);
#637=FACE_BOUND('',#593,.T.);
#638=FACE_BOUND('',#594,.T.);
#639=FACE_BOUND('',#595,.T.);
#640=FACE_BOUND('',#596,.T.);
#641=FACE_BOUND('',#597,.T.);
#642=FACE_BOUND('',#598,.T.);
#643=FACE_BOUND('',#599,.T.);
#644=FACE_BOUND('',#600,.T.);
#645=FACE_BOUND('',#601,.T.);
#646=FACE_BOUND('',#602,.T.);
#647=FACE_BOUND('',#603,.T.);
#648=FACE_BOUND('',#604,.T.);
#649=FACE_BOUND('',#605,.T.);
#650=FACE_BOUND('',#606,.T.);
#651=FACE_BOUND('',#607,.T.);
#652=FACE_BOUND('',#608,.T.);
#653=FACE_BOUND('',#609,.T.);
#654=FACE_BOUND('',#610,.T.);
#655=FACE_BOUND('',#611,.T.);
#656=FACE_BOUND('',#612,.T.);
#657=FACE_BOUND('',#613,.T.);
#658=FACE_BOUND('',#614,.T.);
#659=FACE_BOUND('',#615,.T.);
#660=FACE_BOUND('',#616,.T.);
#661=FACE_BOUND('',#617,.T.);
#662=FACE_BOUND('',#618,.T.);
#663=FACE_BOUND('',#619,.T.);
#664=FACE_BOUND('',#620,.T.);
#665=FACE_BOUND('',#621,.T.);
#666=FACE_BOUND('',#622,.T.);
#667=FACE_BOUND('',#623,.T.);
#668=FACE_BOUND('',#624,.T.);
#669=FACE_BOUND('',#625,.T.);
#670=FACE_BOUND('',#626,.T.);
#671=FACE_BOUND('',#627,.T.);
#672=CYLINDRICAL_SURFACE('',#734,7.6);
#673=CYLINDRICAL_SURFACE('',#761,7.6);
#674=CYLINDRICAL_SURFACE('',#764,6.49999999999999);
#675=CYLINDRICAL_SURFACE('',#768,2.4);
#676=CYLINDRICAL_SURFACE('',#772,6.5);
#677=CYLINDRICAL_SURFACE('',#783,7.59999999999999);
#678=CYLINDRICAL_SURFACE('',#790,7.59999999999999);
#679=CYLINDRICAL_SURFACE('',#793,7.2);
#680=CYLINDRICAL_SURFACE('',#796,7.2);
#681=CYLINDRICAL_SURFACE('',#801,7.2);
#682=CYLINDRICAL_SURFACE('',#806,7.2);
#683=ADVANCED_FACE('',(#628),#672,.T.);
#684=ADVANCED_FACE('',(#629,#630),#20,.F.);
#685=ADVANCED_FACE('',(#631),#21,.T.);
#686=ADVANCED_FACE('',(#632),#22,.F.);
#687=ADVANCED_FACE('',(#633),#23,.T.);
#688=ADVANCED_FACE('',(#634),#24,.F.);
#689=ADVANCED_FACE('',(#635),#673,.T.);
#690=ADVANCED_FACE('',(#636,#637),#674,.T.);
#691=ADVANCED_FACE('',(#638,#639),#25,.F.);
#692=ADVANCED_FACE('',(#640,#641),#675,.F.);
#693=ADVANCED_FACE('',(#642,#643),#26,.F.);
#694=ADVANCED_FACE('',(#644,#645),#676,.F.);
#695=ADVANCED_FACE('',(#646),#27,.F.);
#696=ADVANCED_FACE('',(#647),#28,.F.);
#697=ADVANCED_FACE('',(#648),#29,.T.);
#698=ADVANCED_FACE('',(#649),#30,.T.);
#699=ADVANCED_FACE('',(#650),#31,.T.);
#700=ADVANCED_FACE('',(#651),#677,.T.);
#701=ADVANCED_FACE('',(#652),#32,.F.);
#702=ADVANCED_FACE('',(#653),#33,.T.);
#703=ADVANCED_FACE('',(#654),#34,.T.);
#704=ADVANCED_FACE('',(#655),#35,.T.);
#705=ADVANCED_FACE('',(#656),#678,.T.);
#706=ADVANCED_FACE('',(#657),#36,.F.);
#707=ADVANCED_FACE('',(#658),#679,.T.);
#708=ADVANCED_FACE('',(#659),#37,.T.);
#709=ADVANCED_FACE('',(#660),#38,.T.);
#710=ADVANCED_FACE('',(#661),#680,.T.);
#711=ADVANCED_FACE('',(#662),#39,.T.);
#712=ADVANCED_FACE('',(#663),#40,.T.);
#713=ADVANCED_FACE('',(#664),#41,.T.);
#714=ADVANCED_FACE('',(#665),#681,.T.);
#715=ADVANCED_FACE('',(#666),#42,.T.);
#716=ADVANCED_FACE('',(#667),#43,.T.);
#717=ADVANCED_FACE('',(#668),#44,.T.);
#718=ADVANCED_FACE('',(#669),#45,.T.);
#719=ADVANCED_FACE('',(#670),#682,.T.);
#720=ADVANCED_FACE('',(#671),#46,.T.);
#721=CLOSED_SHELL('',(#683,#684,#685,#686,#687,#688,#689,#690,#691,#692,
#693,#694,#695,#696,#697,#698,#699,#700,#701,#702,#703,#704,#705,#706,#707,
#708,#709,#710,#711,#712,#713,#714,#715,#716,#717,#718,#719,#720));
#722=STYLED_ITEM('',(#723),#730);
#723=PRESENTATION_STYLE_ASSIGNMENT((#724));
#724=SURFACE_STYLE_USAGE(.BOTH.,#725);
#725=SURFACE_SIDE_STYLE('',(#726));
#726=SURFACE_STYLE_FILL_AREA(#727);
#727=FILL_AREA_STYLE('',(#728));
#728=FILL_AREA_STYLE_COLOUR('',#729);
#729=COLOUR_RGB('',0.506983280181885,0.531564235687256,0.550000011920929);
#730=MANIFOLD_SOLID_BREP('',#721);
#731=SHAPE_DEFINITION_REPRESENTATION(#1240,#732);
#732=SHAPE_REPRESENTATION('ClGrey_4638507_b)_AVV',(#733),#1235);
#733=AXIS2_PLACEMENT_3D('',#1025,#809,#810);
#734=AXIS2_PLACEMENT_3D('',#1026,#811,#812);
#735=AXIS2_PLACEMENT_3D('',#1027,#813,#814);
#736=AXIS2_PLACEMENT_3D('',#1032,#816,#817);
#737=AXIS2_PLACEMENT_3D('',#1036,#819,#820);
#738=AXIS2_PLACEMENT_3D('',#1038,#821,#822);
#739=AXIS2_PLACEMENT_3D('',#1040,#823,#824);
#740=AXIS2_PLACEMENT_3D('',#1044,#826,#827);
#741=AXIS2_PLACEMENT_3D('',#1047,#829,#830);
#742=AXIS2_PLACEMENT_3D('',#1048,#831,#832);
#743=AXIS2_PLACEMENT_3D('',#1054,#835,#836);
#744=AXIS2_PLACEMENT_3D('',#1058,#838,#839);
#745=AXIS2_PLACEMENT_3D('',#1062,#841,#842);
#746=AXIS2_PLACEMENT_3D('',#1066,#844,#845);
#747=AXIS2_PLACEMENT_3D('',#1070,#847,#848);
#748=AXIS2_PLACEMENT_3D('',#1075,#851,#852);
#749=AXIS2_PLACEMENT_3D('',#1076,#853,#854);
#750=AXIS2_PLACEMENT_3D('',#1085,#859,#860);
#751=AXIS2_PLACEMENT_3D('',#1088,#862,#863);
#752=AXIS2_PLACEMENT_3D('',#1092,#865,#866);
#753=AXIS2_PLACEMENT_3D('',#1096,#868,#869);
#754=AXIS2_PLACEMENT_3D('',#1101,#872,#873);
#755=AXIS2_PLACEMENT_3D('',#1104,#875,#876);
#756=AXIS2_PLACEMENT_3D('',#1113,#881,#882);
#757=AXIS2_PLACEMENT_3D('',#1117,#884,#885);
#758=AXIS2_PLACEMENT_3D('',#1122,#888,#889);
#759=AXIS2_PLACEMENT_3D('',#1127,#892,#893);
#760=AXIS2_PLACEMENT_3D('',#1131,#895,#896);
#761=AXIS2_PLACEMENT_3D('',#1132,#897,#898);
#762=AXIS2_PLACEMENT_3D('',#1136,#901,#902);
#763=AXIS2_PLACEMENT_3D('',#1140,#905,#906);
#764=AXIS2_PLACEMENT_3D('',#1141,#907,#908);
#765=AXIS2_PLACEMENT_3D('',#1142,#909,#910);
#766=AXIS2_PLACEMENT_3D('',#1144,#911,#912);
#767=AXIS2_PLACEMENT_3D('',#1145,#913,#914);
#768=AXIS2_PLACEMENT_3D('',#1147,#915,#916);
#769=AXIS2_PLACEMENT_3D('',#1148,#917,#918);
#770=AXIS2_PLACEMENT_3D('',#1150,#919,#920);
#771=AXIS2_PLACEMENT_3D('',#1151,#921,#922);
#772=AXIS2_PLACEMENT_3D('',#1153,#923,#924);
#773=AXIS2_PLACEMENT_3D('',#1154,#925,#926);
#774=AXIS2_PLACEMENT_3D('',#1157,#928,#929);
#775=AXIS2_PLACEMENT_3D('',#1160,#931,#932);
#776=AXIS2_PLACEMENT_3D('',#1163,#934,#935);
#777=AXIS2_PLACEMENT_3D('',#1166,#937,#938);
#778=AXIS2_PLACEMENT_3D('',#1167,#939,#940);
#779=AXIS2_PLACEMENT_3D('',#1168,#941,#942);
#780=AXIS2_PLACEMENT_3D('',#1174,#946,#947);
#781=AXIS2_PLACEMENT_3D('',#1180,#951,#952);
#782=AXIS2_PLACEMENT_3D('',#1181,#953,#954);
#783=AXIS2_PLACEMENT_3D('',#1182,#955,#956);
#784=AXIS2_PLACEMENT_3D('',#1183,#957,#958);
#785=AXIS2_PLACEMENT_3D('',#1184,#959,#960);
#786=AXIS2_PLACEMENT_3D('',#1185,#961,#962);
#787=AXIS2_PLACEMENT_3D('',#1191,#966,#967);
#788=AXIS2_PLACEMENT_3D('',#1197,#971,#972);
#789=AXIS2_PLACEMENT_3D('',#1198,#973,#974);
#790=AXIS2_PLACEMENT_3D('',#1199,#975,#976);
#791=AXIS2_PLACEMENT_3D('',#1200,#977,#978);
#792=AXIS2_PLACEMENT_3D('',#1201,#979,#980);
#793=AXIS2_PLACEMENT_3D('',#1202,#981,#982);
#794=AXIS2_PLACEMENT_3D('',#1205,#985,#986);
#795=AXIS2_PLACEMENT_3D('',#1206,#987,#988);
#796=AXIS2_PLACEMENT_3D('',#1207,#989,#990);
#797=AXIS2_PLACEMENT_3D('',#1210,#992,#993);
#798=AXIS2_PLACEMENT_3D('',#1213,#995,#996);
#799=AXIS2_PLACEMENT_3D('',#1215,#998,#999);
#800=AXIS2_PLACEMENT_3D('',#1217,#1001,#1002);
#801=AXIS2_PLACEMENT_3D('',#1218,#1003,#1004);
#802=AXIS2_PLACEMENT_3D('',#1221,#1007,#1008);
#803=AXIS2_PLACEMENT_3D('',#1222,#1009,#1010);
#804=AXIS2_PLACEMENT_3D('',#1223,#1011,#1012);
#805=AXIS2_PLACEMENT_3D('',#1227,#1015,#1016);
#806=AXIS2_PLACEMENT_3D('',#1231,#1019,#1020);
#807=AXIS2_PLACEMENT_3D('',#1232,#1021,#1022);
#808=AXIS2_PLACEMENT_3D('',#1233,#1023,#1024);
#809=DIRECTION('',(0.,0.,1.));
#810=DIRECTION('',(1.,0.,0.));
#811=DIRECTION('',(-1.,0.,0.));
#812=DIRECTION('',(0.,0.,1.));
#813=DIRECTION('',(1.,0.,0.));
#814=DIRECTION('',(0.,1.,0.));
#815=DIRECTION('',(-1.,0.,0.));
#816=DIRECTION('',(-1.,0.,0.));
#817=DIRECTION('',(0.,0.,1.));
#818=DIRECTION('',(-1.,0.,0.));
#819=DIRECTION('',(-1.,0.,0.));
#820=DIRECTION('',(0.,0.,1.));
#821=DIRECTION('',(-0.410364677328798,-0.911921505175107,0.));
#822=DIRECTION('',(-0.911921505175107,0.410364677328798,0.));
#823=DIRECTION('',(-1.,0.,0.));
#824=DIRECTION('',(0.,0.,1.));
#825=DIRECTION('',(-1.,0.,0.));
#826=DIRECTION('',(-1.,0.,0.));
#827=DIRECTION('',(0.,0.,1.));
#828=DIRECTION('',(-1.,0.,0.));
#829=DIRECTION('',(1.,0.,0.));
#830=DIRECTION('',(0.,0.,-1.));
#831=DIRECTION('',(-1.,0.,0.));
#832=DIRECTION('',(0.,0.,1.));
#833=DIRECTION('',(0.,0.939692620785909,-0.342020143325668));
#834=DIRECTION('',(0.,-0.342020143325669,0.939692620785908));
#835=DIRECTION('',(1.,0.,0.));
#836=DIRECTION('',(0.,0.,-1.));
#837=DIRECTION('',(0.,-0.342020143325669,-0.939692620785908));
#838=DIRECTION('',(-1.,0.,0.));
#839=DIRECTION('',(0.,0.,1.));
#840=DIRECTION('',(0.,0.939692620785909,0.342020143325669));
#841=DIRECTION('',(1.,0.,0.));
#842=DIRECTION('',(0.,0.,-1.));
#843=DIRECTION('',(0.,-0.939692620785908,0.342020143325669));
#844=DIRECTION('',(-1.,0.,0.));
#845=DIRECTION('',(0.,0.,1.));
#846=DIRECTION('',(0.,0.342020143325669,-0.939692620785908));
#847=DIRECTION('',(1.,0.,0.));
#848=DIRECTION('',(0.,0.,-1.));
#849=DIRECTION('',(0.,0.342020143325669,0.939692620785909));
#850=DIRECTION('',(0.,-0.939692620785908,-0.342020143325669));
#851=DIRECTION('',(1.,0.,0.));
#852=DIRECTION('',(0.,0.,-1.));
#853=DIRECTION('',(0.,-2.71050543121376E-16,-1.));
#854=DIRECTION('',(0.,1.,-2.71050543121376E-16));
#855=DIRECTION('',(-1.,0.,0.));
#856=DIRECTION('',(0.,-1.,0.));
#857=DIRECTION('',(-1.,0.,0.));
#858=DIRECTION('',(0.,-1.,2.71050543121376E-16));
#859=DIRECTION('',(-1.,0.,0.));
#860=DIRECTION('',(0.,0.,1.));
#861=DIRECTION('',(0.,-0.342020143325669,-0.939692620785909));
#862=DIRECTION('',(-1.,0.,0.));
#863=DIRECTION('',(0.,-1.,0.));
#864=DIRECTION('',(0.,-0.342020143325669,0.939692620785908));
#865=DIRECTION('',(-1.,0.,0.));
#866=DIRECTION('',(0.,0.,1.));
#867=DIRECTION('',(0.,0.,-1.));
#868=DIRECTION('',(-1.,0.,0.));
#869=DIRECTION('',(0.,0.,1.));
#870=DIRECTION('',(0.,8.85324090245662E-17,-1.));
#871=DIRECTION('',(0.,8.85324090245677E-17,1.));
#872=DIRECTION('',(-1.,0.,0.));
#873=DIRECTION('',(0.,0.,1.));
#874=DIRECTION('',(0.,0.,-1.));
#875=DIRECTION('',(0.,2.71050543121376E-16,1.));
#876=DIRECTION('',(0.,-1.,2.71050543121376E-16));
#877=DIRECTION('',(-1.,0.,0.));
#878=DIRECTION('',(0.,1.,0.));
#879=DIRECTION('',(-1.,0.,0.));
#880=DIRECTION('',(0.,1.,-2.71050543121376E-16));
#881=DIRECTION('',(-1.,0.,0.));
#882=DIRECTION('',(0.,0.,1.));
#883=DIRECTION('',(0.,0.342020143325669,0.939692620785908));
#884=DIRECTION('',(-1.,0.,0.));
#885=DIRECTION('',(0.,-1.,0.));
#886=DIRECTION('',(0.,0.342020143325669,-0.939692620785908));
#887=DIRECTION('',(0.,0.,-1.));
#888=DIRECTION('',(-1.,0.,0.));
#889=DIRECTION('',(0.,0.,1.));
#890=DIRECTION('',(0.,-8.85324090245677E-17,1.));
#891=DIRECTION('',(0.,-8.85324090245662E-17,-1.));
#892=DIRECTION('',(-1.,0.,0.));
#893=DIRECTION('',(0.,0.,1.));
#894=DIRECTION('',(0.,0.,-1.));
#895=DIRECTION('',(-1.,0.,0.));
#896=DIRECTION('',(0.,0.,1.));
#897=DIRECTION('',(-1.,0.,0.));
#898=DIRECTION('',(0.,0.,1.));
#899=DIRECTION('',(-1.,0.,0.));
#900=DIRECTION('',(-1.,0.,0.));
#901=DIRECTION('',(1.,0.,0.));
#902=DIRECTION('',(0.,-1.,0.));
#903=DIRECTION('',(-1.,0.,0.));
#904=DIRECTION('',(-1.,0.,0.));
#905=DIRECTION('',(-0.410364677328798,0.911921505175106,0.));
#906=DIRECTION('',(-0.911921505175107,-0.410364677328798,0.));
#907=DIRECTION('',(-1.,0.,0.));
#908=DIRECTION('',(0.,0.,1.));
#909=DIRECTION('',(-1.,0.,0.));
#910=DIRECTION('',(0.,0.,1.));
#911=DIRECTION('',(1.,0.,0.));
#912=DIRECTION('',(0.,0.,-1.));
#913=DIRECTION('',(-1.,0.,0.));
#914=DIRECTION('',(0.,0.,1.));
#915=DIRECTION('',(-1.,0.,0.));
#916=DIRECTION('',(0.,0.,1.));
#917=DIRECTION('',(-1.,0.,0.));
#918=DIRECTION('',(0.,0.,1.));
#919=DIRECTION('',(-1.,0.,0.));
#920=DIRECTION('',(0.,0.,1.));
#921=DIRECTION('',(-1.,0.,0.));
#922=DIRECTION('',(0.,0.,1.));
#923=DIRECTION('',(-1.,0.,0.));
#924=DIRECTION('',(0.,0.,1.));
#925=DIRECTION('',(-0.410364677328798,-0.911921505175107,0.));
#926=DIRECTION('',(-0.911921505175107,0.410364677328798,0.));
#927=DIRECTION('',(-1.,0.,0.));
#928=DIRECTION('',(1.,0.,0.));
#929=DIRECTION('',(0.,0.,1.));
#930=DIRECTION('',(-1.,0.,0.));
#931=DIRECTION('',(-0.410364677328798,0.911921505175106,0.));
#932=DIRECTION('',(-0.911921505175107,-0.410364677328798,0.));
#933=DIRECTION('',(-1.,0.,0.));
#934=DIRECTION('',(1.,0.,0.));
#935=DIRECTION('',(0.,0.,-1.));
#936=DIRECTION('',(-1.,0.,0.));
#937=DIRECTION('',(-0.410364677328798,0.911921505175106,0.));
#938=DIRECTION('',(-0.911921505175107,-0.410364677328798,0.));
#939=DIRECTION('',(-0.410364677328798,-0.911921505175107,0.));
#940=DIRECTION('',(0.911921505175107,-0.410364677328798,0.));
#941=DIRECTION('',(0.,1.,-8.85324090245662E-17));
#942=DIRECTION('',(0.,8.85324090245662E-17,1.));
#943=DIRECTION('',(0.,-2.21506973110216E-16,1.));
#944=DIRECTION('',(1.,0.,0.));
#945=DIRECTION('',(0.,-8.85324090245662E-17,-1.));
#946=DIRECTION('',(0.,-1.,-8.85324090245677E-17));
#947=DIRECTION('',(0.,8.85324090245677E-17,-1.));
#948=DIRECTION('',(0.,-8.85324090245677E-17,1.));
#949=DIRECTION('',(1.,0.,0.));
#950=DIRECTION('',(0.,2.21506973110216E-16,-1.));
#951=DIRECTION('',(1.,0.,0.));
#952=DIRECTION('',(0.,0.,-1.));
#953=DIRECTION('',(1.,0.,0.));
#954=DIRECTION('',(0.,0.,-1.));
#955=DIRECTION('',(1.,0.,0.));
#956=DIRECTION('',(0.,0.,-1.));
#957=DIRECTION('',(1.,0.,0.));
#958=DIRECTION('',(0.,0.,-1.));
#959=DIRECTION('',(1.,0.,0.));
#960=DIRECTION('',(0.,0.,-1.));
#961=DIRECTION('',(0.,-1.,8.85324090245677E-17));
#962=DIRECTION('',(0.,-8.85324090245677E-17,-1.));
#963=DIRECTION('',(0.,-2.21506973110216E-16,-1.));
#964=DIRECTION('',(1.,0.,0.));
#965=DIRECTION('',(0.,8.85324090245677E-17,1.));
#966=DIRECTION('',(0.,1.,8.85324090245662E-17));
#967=DIRECTION('',(0.,-8.85324090245662E-17,1.));
#968=DIRECTION('',(0.,8.85324090245662E-17,-1.));
#969=DIRECTION('',(1.,0.,0.));
#970=DIRECTION('',(0.,2.21506973110216E-16,1.));
#971=DIRECTION('',(1.,0.,0.));
#972=DIRECTION('',(0.,0.,-1.));
#973=DIRECTION('',(1.,0.,0.));
#974=DIRECTION('',(0.,0.,1.));
#975=DIRECTION('',(1.,0.,0.));
#976=DIRECTION('',(0.,0.,-1.));
#977=DIRECTION('',(1.,0.,0.));
#978=DIRECTION('',(0.,0.,1.));
#979=DIRECTION('',(1.,0.,0.));
#980=DIRECTION('',(0.,0.,-1.));
#981=DIRECTION('',(-1.,0.,0.));
#982=DIRECTION('',(0.,0.,1.));
#983=DIRECTION('',(-1.,0.,0.));
#984=DIRECTION('',(-1.,0.,0.));
#985=DIRECTION('',(0.,-0.939692620785908,0.342020143325669));
#986=DIRECTION('',(0.,-0.342020143325669,-0.939692620785908));
#987=DIRECTION('',(0.,0.939692620785908,0.342020143325669));
#988=DIRECTION('',(0.,-0.342020143325669,0.939692620785908));
#989=DIRECTION('',(-1.,0.,0.));
#990=DIRECTION('',(0.,0.,1.));
#991=DIRECTION('',(-1.,0.,0.));
#992=DIRECTION('',(-1.,0.,0.));
#993=DIRECTION('',(0.,-1.,0.));
#994=DIRECTION('',(-1.,0.,0.));
#995=DIRECTION('',(0.,0.342020143325669,0.939692620785908));
#996=DIRECTION('',(0.,-0.939692620785908,0.342020143325669));
#997=DIRECTION('',(0.,0.939692620785908,-0.342020143325669));
#998=DIRECTION('',(0.,0.342020143325669,-0.939692620785909));
#999=DIRECTION('',(0.,0.939692620785909,0.342020143325669));
#1000=DIRECTION('',(0.,-0.939692620785909,-0.342020143325669));
#1001=DIRECTION('',(-1.,0.,0.));
#1002=DIRECTION('',(0.,0.,1.));
#1003=DIRECTION('',(-1.,0.,0.));
#1004=DIRECTION('',(0.,0.,1.));
#1005=DIRECTION('',(-1.,0.,0.));
#1006=DIRECTION('',(-1.,0.,0.));
#1007=DIRECTION('',(0.,0.939692620785909,-0.342020143325669));
#1008=DIRECTION('',(0.,0.342020143325669,0.939692620785909));
#1009=DIRECTION('',(0.,-0.939692620785908,-0.342020143325669));
#1010=DIRECTION('',(0.,0.342020143325669,-0.939692620785908));
#1011=DIRECTION('',(0.,-0.342020143325668,-0.939692620785909));
#1012=DIRECTION('',(0.,0.939692620785909,-0.342020143325668));
#1013=DIRECTION('',(-1.,0.,0.));
#1014=DIRECTION('',(0.,-0.939692620785909,0.342020143325668));
#1015=DIRECTION('',(0.,-0.342020143325669,0.939692620785908));
#1016=DIRECTION('',(0.,-0.939692620785908,-0.342020143325669));
#1017=DIRECTION('',(0.,0.939692620785908,0.342020143325669));
#1018=DIRECTION('',(-1.,0.,0.));
#1019=DIRECTION('',(-1.,0.,0.));
#1020=DIRECTION('',(0.,0.,1.));
#1021=DIRECTION('',(-1.,0.,0.));
#1022=DIRECTION('',(0.,1.,0.));
#1023=DIRECTION('',(-1.,0.,0.));
#1024=DIRECTION('',(0.,0.,1.));
#1025=CARTESIAN_POINT('',(0.,0.,0.));
#1026=CARTESIAN_POINT('',(-64.,0.,0.));
#1027=CARTESIAN_POINT('',(-24.,0.,0.));
#1028=CARTESIAN_POINT('',(-24.,-7.1416639179729,2.59935308927508));
#1029=CARTESIAN_POINT('',(-24.,-7.1416639179729,-2.59935308927508));
#1030=CARTESIAN_POINT('',(-24.,-7.1416639179729,-2.59935308927508));
#1031=CARTESIAN_POINT('',(-63.8,-7.1416639179729,-2.59935308927508));
#1032=CARTESIAN_POINT('',(-63.8,0.,0.));
#1033=CARTESIAN_POINT('',(-63.8,-2.59935308927508,-7.1416639179729));
#1034=CARTESIAN_POINT('',(-24.,-2.59935308927508,-7.1416639179729));
#1035=CARTESIAN_POINT('',(-24.,-2.59935308927508,-7.1416639179729));
#1036=CARTESIAN_POINT('',(-24.,0.,0.));
#1037=CARTESIAN_POINT('',(-24.,-4.,-6.4621977685614));
#1038=CARTESIAN_POINT('',(-32.8888888888889,0.,0.));
#1039=CARTESIAN_POINT('',(-24.,-4.,6.4621977685614));
#1040=CARTESIAN_POINT('',(-24.,0.,0.));
#1041=CARTESIAN_POINT('',(-24.,-2.59935308927508,7.1416639179729));
#1042=CARTESIAN_POINT('',(-24.,-2.59935308927508,7.1416639179729));
#1043=CARTESIAN_POINT('',(-63.8,-2.59935308927508,7.1416639179729));
#1044=CARTESIAN_POINT('',(-63.8,0.,0.));
#1045=CARTESIAN_POINT('',(-63.8,-7.1416639179729,2.59935308927508));
#1046=CARTESIAN_POINT('',(-24.,-7.1416639179729,2.59935308927508));
#1047=CARTESIAN_POINT('',(-63.8,0.,7.59999999999999));
#1048=CARTESIAN_POINT('',(-63.8,0.,0.));
#1049=CARTESIAN_POINT('',(-63.8,0.,6.49999999999999));
#1050=CARTESIAN_POINT('',(-63.8,-2.44259291680884,0.889031116147881));
#1051=CARTESIAN_POINT('',(-63.8,-6.76578686965854,2.46254503194481));
#1052=CARTESIAN_POINT('',(-63.8,-2.44259291680885,6.71096888385211));
#1053=CARTESIAN_POINT('',(-63.8,-2.46254503194481,6.76578686965854));
#1054=CARTESIAN_POINT('',(-63.8,0.,0.));
#1055=CARTESIAN_POINT('',(-63.8,2.46254503194481,6.76578686965854));
#1056=CARTESIAN_POINT('',(-63.8,2.44259291680885,6.71096888385211));
#1057=CARTESIAN_POINT('',(-63.8,2.59935308927508,7.1416639179729));
#1058=CARTESIAN_POINT('',(-63.8,0.,0.));
#1059=CARTESIAN_POINT('',(-63.8,7.1416639179729,2.59935308927508));
#1060=CARTESIAN_POINT('',(-63.8,2.44259291680884,0.889031116147884));
#1061=CARTESIAN_POINT('',(-63.8,6.76578686965854,2.46254503194482));
#1062=CARTESIAN_POINT('',(-63.8,0.,0.));
#1063=CARTESIAN_POINT('',(-63.8,6.76578686965854,-2.46254503194481));
#1064=CARTESIAN_POINT('',(-63.8,-2.44259291680885,0.889031116147881));
#1065=CARTESIAN_POINT('',(-63.8,7.1416639179729,-2.59935308927508));
#1066=CARTESIAN_POINT('',(-63.8,0.,0.));
#1067=CARTESIAN_POINT('',(-63.8,2.59935308927508,-7.1416639179729));
#1068=CARTESIAN_POINT('',(-63.8,-2.44259291680884,6.71096888385211));
#1069=CARTESIAN_POINT('',(-63.8,2.46254503194482,-6.76578686965854));
#1070=CARTESIAN_POINT('',(-63.8,0.,0.));
#1071=CARTESIAN_POINT('',(-63.8,-2.46254503194481,-6.76578686965854));
#1072=CARTESIAN_POINT('',(-63.8,2.44259291680884,6.71096888385211));
#1073=CARTESIAN_POINT('',(-63.8,2.44259291680885,0.889031116147883));
#1074=CARTESIAN_POINT('',(-63.8,-6.76578686965854,-2.46254503194482));
#1075=CARTESIAN_POINT('',(-63.8,0.,0.));
#1076=CARTESIAN_POINT('',(-20.,1.6940658945086E-18,-7.10000000000002));
#1077=CARTESIAN_POINT('',(-20.,0.4,-7.10000000000002));
#1078=CARTESIAN_POINT('',(-20.8,0.4,-7.10000000000002));
#1079=CARTESIAN_POINT('',(-24.,0.4,-7.10000000000002));
#1080=CARTESIAN_POINT('',(-20.8,0.4,-7.10000000000002));
#1081=CARTESIAN_POINT('',(-20.8,-0.4,-7.10000000000002));
#1082=CARTESIAN_POINT('',(-20.,-0.4,-7.10000000000002));
#1083=CARTESIAN_POINT('',(-24.,-0.4,-7.10000000000002));
#1084=CARTESIAN_POINT('',(-24.,1.6940658945086E-18,-7.10000000000002));
#1085=CARTESIAN_POINT('',(-24.,0.,30.));
#1086=CARTESIAN_POINT('',(-24.,-2.46254503194481,-6.76578686965854));
#1087=CARTESIAN_POINT('',(-24.,-2.46254503194481,-6.76578686965854));
#1088=CARTESIAN_POINT('',(-24.,0.,0.));
#1089=CARTESIAN_POINT('',(-24.,2.46254503194481,-6.76578686965854));
#1090=CARTESIAN_POINT('',(-24.,2.46254503194481,-6.76578686965854));
#1091=CARTESIAN_POINT('',(-24.,2.59935308927508,-7.1416639179729));
#1092=CARTESIAN_POINT('',(-24.,0.,0.));
#1093=CARTESIAN_POINT('',(-24.,4.,-6.4621977685614));
#1094=CARTESIAN_POINT('',(-24.,4.,30.));
#1095=CARTESIAN_POINT('',(-24.,4.,-5.1234753829798));
#1096=CARTESIAN_POINT('',(-24.,0.,0.));
#1097=CARTESIAN_POINT('',(-24.,0.399999999999992,-6.48768063332344));
#1098=CARTESIAN_POINT('',(-24.,0.4,-6.48768063332343));
#1099=CARTESIAN_POINT('',(-24.,-0.4,-7.10000000000002));
#1100=CARTESIAN_POINT('',(-24.,-0.4,-6.48768063332344));
#1101=CARTESIAN_POINT('',(-24.,0.,0.));
#1102=CARTESIAN_POINT('',(-24.,-4.,-5.1234753829798));
#1103=CARTESIAN_POINT('',(-24.,-4.,30.));
#1104=CARTESIAN_POINT('',(-20.,1.6940658945086E-18,7.10000000000002));
#1105=CARTESIAN_POINT('',(-20.,-0.4,7.10000000000002));
#1106=CARTESIAN_POINT('',(-20.8,-0.4,7.10000000000002));
#1107=CARTESIAN_POINT('',(-24.,-0.4,7.10000000000002));
#1108=CARTESIAN_POINT('',(-20.8,0.4,7.10000000000002));
#1109=CARTESIAN_POINT('',(-20.8,0.4,7.10000000000002));
#1110=CARTESIAN_POINT('',(-20.,0.4,7.10000000000002));
#1111=CARTESIAN_POINT('',(-24.,0.4,7.10000000000002));
#1112=CARTESIAN_POINT('',(-24.,1.6940658945086E-18,7.10000000000002));
#1113=CARTESIAN_POINT('',(-24.,0.,30.));
#1114=CARTESIAN_POINT('',(-24.,2.46254503194481,6.76578686965854));
#1115=CARTESIAN_POINT('',(-24.,2.46254503194481,6.76578686965854));
#1116=CARTESIAN_POINT('',(-24.,2.59935308927508,7.1416639179729));
#1117=CARTESIAN_POINT('',(-24.,0.,0.));
#1118=CARTESIAN_POINT('',(-24.,-2.46254503194481,6.76578686965854));
#1119=CARTESIAN_POINT('',(-24.,-2.46254503194481,6.76578686965854));
#1120=CARTESIAN_POINT('',(-24.,-4.,30.));
#1121=CARTESIAN_POINT('',(-24.,-4.,5.1234753829798));
#1122=CARTESIAN_POINT('',(-24.,0.,0.));
#1123=CARTESIAN_POINT('',(-24.,-0.399999999999995,6.48768063332344));
#1124=CARTESIAN_POINT('',(-24.,-0.4,7.10000000000002));
#1125=CARTESIAN_POINT('',(-24.,0.4,7.10000000000002));
#1126=CARTESIAN_POINT('',(-24.,0.4,6.48768063332343));
#1127=CARTESIAN_POINT('',(-24.,0.,0.));
#1128=CARTESIAN_POINT('',(-24.,4.,5.1234753829798));
#1129=CARTESIAN_POINT('',(-24.,4.,30.));
#1130=CARTESIAN_POINT('',(-24.,4.,6.4621977685614));
#1131=CARTESIAN_POINT('',(-24.,0.,0.));
#1132=CARTESIAN_POINT('',(-64.,0.,0.));
#1133=CARTESIAN_POINT('',(-24.,2.59935308927508,-7.1416639179729));
#1134=CARTESIAN_POINT('',(-24.,7.1416639179729,-2.59935308927508));
#1135=CARTESIAN_POINT('',(-24.,7.1416639179729,-2.59935308927508));
#1136=CARTESIAN_POINT('',(-24.,0.,0.));
#1137=CARTESIAN_POINT('',(-24.,7.1416639179729,2.59935308927508));
#1138=CARTESIAN_POINT('',(-24.,7.1416639179729,2.59935308927508));
#1139=CARTESIAN_POINT('',(-24.,2.59935308927508,7.1416639179729));
#1140=CARTESIAN_POINT('',(-32.8888888888889,0.,0.));
#1141=CARTESIAN_POINT('',(-64.,0.,0.));
#1142=CARTESIAN_POINT('',(-64.,0.,0.));
#1143=CARTESIAN_POINT('',(-64.,0.,6.49999999999999));
#1144=CARTESIAN_POINT('',(-64.,0.,2.4));
#1145=CARTESIAN_POINT('',(-64.,0.,0.));
#1146=CARTESIAN_POINT('',(-64.,0.,2.4));
#1147=CARTESIAN_POINT('',(-64.,0.,0.));
#1148=CARTESIAN_POINT('',(-62.,0.,0.));
#1149=CARTESIAN_POINT('',(-62.,0.,2.4));
#1150=CARTESIAN_POINT('',(-62.,0.,6.49999999999999));
#1151=CARTESIAN_POINT('',(-62.,0.,0.));
#1152=CARTESIAN_POINT('',(-62.,0.,6.49999999999999));
#1153=CARTESIAN_POINT('',(-64.,0.,0.));
#1154=CARTESIAN_POINT('',(-32.8888888888889,0.,0.));
#1155=CARTESIAN_POINT('',(-20.,-0.4,-6.48768063332344));
#1156=CARTESIAN_POINT('',(-20.,-0.4,-6.48768063332344));
#1157=CARTESIAN_POINT('',(-20.,0.,0.));
#1158=CARTESIAN_POINT('',(-20.,0.399999999999992,-6.48768063332344));
#1159=CARTESIAN_POINT('',(-20.,0.399999999999992,-6.48768063332344));
#1160=CARTESIAN_POINT('',(-32.8888888888889,0.,0.));
#1161=CARTESIAN_POINT('',(-20.,0.4,6.48768063332343));
#1162=CARTESIAN_POINT('',(-20.,0.4,6.48768063332343));
#1163=CARTESIAN_POINT('',(-20.,0.,0.));
#1164=CARTESIAN_POINT('',(-20.,-0.399999999999995,6.48768063332344));
#1165=CARTESIAN_POINT('',(-20.,-0.399999999999995,6.48768063332344));
#1166=CARTESIAN_POINT('',(-24.,4.,30.));
#1167=CARTESIAN_POINT('',(-24.,-4.,30.));
#1168=CARTESIAN_POINT('',(-20.,0.4,7.10000000000002));
#1169=CARTESIAN_POINT('',(-20.8,0.4,7.10000000000002));
#1170=CARTESIAN_POINT('',(-20.8,0.4,7.58946638440411));
#1171=CARTESIAN_POINT('',(-20.8,0.4,7.58946638440411));
#1172=CARTESIAN_POINT('',(-20.,0.4,7.58946638440411));
#1173=CARTESIAN_POINT('',(-20.,0.4,7.10000000000002));
#1174=CARTESIAN_POINT('',(-20.,-0.4,7.10000000000002));
#1175=CARTESIAN_POINT('',(-20.,-0.4,7.10000000000002));
#1176=CARTESIAN_POINT('',(-20.,-0.399999999999994,7.58946638440411));
#1177=CARTESIAN_POINT('',(-20.8,-0.399999999999994,7.58946638440411));
#1178=CARTESIAN_POINT('',(-20.8,-0.399999999999994,7.58946638440411));
#1179=CARTESIAN_POINT('',(-20.8,-0.4,7.10000000000002));
#1180=CARTESIAN_POINT('',(-20.,0.,0.));
#1181=CARTESIAN_POINT('',(-20.,0.,3.46944695195361E-15));
#1182=CARTESIAN_POINT('',(-20.8,0.,3.46944695195361E-15));
#1183=CARTESIAN_POINT('',(-20.8,0.,3.46944695195361E-15));
#1184=CARTESIAN_POINT('',(-20.8,0.,3.46944695195361E-15));
#1185=CARTESIAN_POINT('',(-20.,-0.4,-7.10000000000002));
#1186=CARTESIAN_POINT('',(-20.8,-0.4,-7.10000000000002));
#1187=CARTESIAN_POINT('',(-20.8,-0.4,-7.58946638440411));
#1188=CARTESIAN_POINT('',(-20.8,-0.4,-7.58946638440411));
#1189=CARTESIAN_POINT('',(-20.,-0.4,-7.58946638440411));
#1190=CARTESIAN_POINT('',(-20.,-0.4,-7.10000000000002));
#1191=CARTESIAN_POINT('',(-20.,0.4,-6.48768063332343));
#1192=CARTESIAN_POINT('',(-20.,0.4,-6.48768063332343));
#1193=CARTESIAN_POINT('',(-20.,0.399999999999984,-7.58946638440411));
#1194=CARTESIAN_POINT('',(-20.8,0.399999999999984,-7.58946638440411));
#1195=CARTESIAN_POINT('',(-20.8,0.399999999999984,-7.58946638440411));
#1196=CARTESIAN_POINT('',(-20.8,0.4,-7.58946638440411));
#1197=CARTESIAN_POINT('',(-20.,0.,0.));
#1198=CARTESIAN_POINT('',(-20.,0.,-3.46944695195361E-15));
#1199=CARTESIAN_POINT('',(-20.8,0.,-3.46944695195361E-15));
#1200=CARTESIAN_POINT('',(-20.8,0.,-3.46944695195361E-15));
#1201=CARTESIAN_POINT('',(-20.8,0.,-3.46944695195361E-15));
#1202=CARTESIAN_POINT('',(-24.,0.,0.));
#1203=CARTESIAN_POINT('',(-24.,-2.46254503194481,6.76578686965854));
#1204=CARTESIAN_POINT('',(-24.,2.46254503194481,6.76578686965854));
#1205=CARTESIAN_POINT('',(-24.,2.46254503194481,6.76578686965854));
#1206=CARTESIAN_POINT('',(-24.,-2.46254503194481,6.76578686965854));
#1207=CARTESIAN_POINT('',(-24.,0.,0.));
#1208=CARTESIAN_POINT('',(-24.,6.76578686965854,2.46254503194482));
#1209=CARTESIAN_POINT('',(-24.,6.76578686965854,2.46254503194482));
#1210=CARTESIAN_POINT('',(-24.,0.,0.));
#1211=CARTESIAN_POINT('',(-24.,6.76578686965854,-2.46254503194481));
#1212=CARTESIAN_POINT('',(-24.,6.76578686965854,-2.46254503194481));
#1213=CARTESIAN_POINT('',(-24.,6.76578686965854,-2.46254503194481));
#1214=CARTESIAN_POINT('',(-24.,6.76578686965854,-2.46254503194481));
#1215=CARTESIAN_POINT('',(-24.,6.76578686965854,2.46254503194482));
#1216=CARTESIAN_POINT('',(-24.,6.76578686965854,2.46254503194482));
#1217=CARTESIAN_POINT('',(-24.,0.,0.));
#1218=CARTESIAN_POINT('',(-24.,0.,0.));
#1219=CARTESIAN_POINT('',(-24.,2.46254503194481,-6.76578686965854));
#1220=CARTESIAN_POINT('',(-24.,-2.46254503194481,-6.76578686965854));
#1221=CARTESIAN_POINT('',(-24.,-2.46254503194481,-6.76578686965854));
#1222=CARTESIAN_POINT('',(-24.,2.46254503194481,-6.76578686965854));
#1223=CARTESIAN_POINT('',(-24.,-6.76578686965854,2.46254503194481));
#1224=CARTESIAN_POINT('',(-24.,-6.76578686965854,2.46254503194481));
#1225=CARTESIAN_POINT('',(-24.,-6.76578686965854,2.46254503194481));
#1226=CARTESIAN_POINT('',(-24.,-6.76578686965854,2.46254503194481));
#1227=CARTESIAN_POINT('',(-24.,-6.76578686965854,-2.46254503194482));
#1228=CARTESIAN_POINT('',(-24.,-6.76578686965854,-2.46254503194482));
#1229=CARTESIAN_POINT('',(-24.,-6.76578686965854,-2.46254503194482));
#1230=CARTESIAN_POINT('',(-24.,-6.76578686965854,-2.46254503194482));
#1231=CARTESIAN_POINT('',(-24.,0.,0.));
#1232=CARTESIAN_POINT('',(-24.,0.,0.));
#1233=CARTESIAN_POINT('',(-24.,0.,0.));
#1234=MECHANICAL_DESIGN_GEOMETRIC_PRESENTATION_REPRESENTATION('',(#722),
#1235);
#1235=(
GEOMETRIC_REPRESENTATION_CONTEXT(3)
GLOBAL_UNCERTAINTY_ASSIGNED_CONTEXT((#1236))
GLOBAL_UNIT_ASSIGNED_CONTEXT((#1239,#1238,#1237))
REPRESENTATION_CONTEXT('ClGrey_4638507_b)_AVV',
'TOP_LEVEL_ASSEMBLY_PART')
);
#1236=UNCERTAINTY_MEASURE_WITH_UNIT(LENGTH_MEASURE(0.005),#1239,
'DISTANCE_ACCURACY_VALUE','Maximum Tolerance applied to model');
#1237=(
NAMED_UNIT(*)
SI_UNIT($,.STERADIAN.)
SOLID_ANGLE_UNIT()
);
#1238=(
NAMED_UNIT(*)
PLANE_ANGLE_UNIT()
SI_UNIT($,.RADIAN.)
);
#1239=(
LENGTH_UNIT()
NAMED_UNIT(*)
SI_UNIT(.MILLI.,.METRE.)
);
#1240=PRODUCT_DEFINITION_SHAPE('','',#1241);
#1241=PRODUCT_DEFINITION('','',#1243,#1242);
#1242=PRODUCT_DEFINITION_CONTEXT('',#1249,'design');
#1243=PRODUCT_DEFINITION_FORMATION_WITH_SPECIFIED_SOURCE('','',#1245,
 .NOT_KNOWN.);
#1244=PRODUCT_RELATED_PRODUCT_CATEGORY('','',(#1245));
#1245=PRODUCT('ClGrey_4638507_b)_AVV','ClGrey_4638507_b)_AVV',
'ClGrey_4638507_b)_AVV',(#1247));
#1246=PRODUCT_CATEGORY('','');
#1247=PRODUCT_CONTEXT('',#1249,'mechanical');
#1248=APPLICATION_PROTOCOL_DEFINITION('international standard',
'automotive_design',2010,#1249);
#1249=APPLICATION_CONTEXT(
'core data for automotive mechanical design processes');
ENDSEC;
END-ISO-10303-21;
