ISO-10303-21;
HEADER;
/* Generated by software containing ST-Developer
 * from STEP Tools, Inc. (www.steptools.com) 
 */
/* OPTION: strings as raw bytes, not using required /X/ escapes */

FILE_DESCRIPTION(
/* description */ ('Unknown'),
/* implementation_level */ '2;1');

FILE_NAME(
/* name */ 'ClGray_4211758_AVV',
/* time_stamp */ '2025-07-21T23:52:48+02:00',
/* author */ ('Unknown'),
/* organization */ ('Unknown'),
/* preprocessor_version */ 'ST-DEVELOPER v19.4',
/* originating_system */ 'Solid Edge',
/* authorisation */ 'Unknown');

FILE_SCHEMA (('AUTOMOTIVE_DESIGN {1 0 10303 214 3 1 1}'));
ENDSEC;

DATA;
#10=PROPERTY_DEFINITION_REPRESENTATION(#14,#12);
#11=PROPERTY_DEFINITION_REPRESENTATION(#15,#13);
#12=REPRESENTATION('',(#16),#1441);
#13=REPRESENTATION('',(#17),#1441);
#14=PROPERTY_DEFINITION('pmi validation property','',#1446);
#15=PROPERTY_DEFINITION('pmi validation property','',#1446);
#16=VALUE_REPRESENTATION_ITEM('number of annotations',COUNT_MEASURE(0.));
#17=VALUE_REPRESENTATION_ITEM('number of views',COUNT_MEASURE(0.));
#18=SHAPE_REPRESENTATION_RELATIONSHIP('','',#821,#19);
#19=ADVANCED_BREP_SHAPE_REPRESENTATION('',(#819),#1441);
#20=PLANE('',#878);
#21=PLANE('',#879);
#22=PLANE('',#891);
#23=PLANE('',#892);
#24=PLANE('',#896);
#25=PLANE('',#900);
#26=PLANE('',#901);
#27=PLANE('',#902);
#28=PLANE('',#903);
#29=PLANE('',#904);
#30=PLANE('',#905);
#31=PLANE('',#906);
#32=PLANE('',#907);
#33=PLANE('',#908);
#34=PLANE('',#909);
#35=PLANE('',#910);
#36=PLANE('',#911);
#37=PLANE('',#912);
#38=PLANE('',#913);
#39=PLANE('',#914);
#40=PLANE('',#915);
#41=PLANE('',#916);
#42=B_SPLINE_CURVE_WITH_KNOTS('',3,(#1193,#1194,#1195,#1196),
 .UNSPECIFIED.,.F.,.F.,(4,4),(0.00159094170470826,0.0029439569173859),
 .UNSPECIFIED.);
#43=B_SPLINE_CURVE_WITH_KNOTS('',3,(#1198,#1199,#1200,#1201),
 .UNSPECIFIED.,.F.,.F.,(4,4),(0.0015438344065564,0.00289684379529717),
 .UNSPECIFIED.);
#44=B_SPLINE_CURVE_WITH_KNOTS('',3,(#1205,#1206,#1207,#1208),
 .UNSPECIFIED.,.F.,.F.,(4,4),(0.00159094170470826,0.0029439569173859),
 .UNSPECIFIED.);
#45=B_SPLINE_CURVE_WITH_KNOTS('',3,(#1210,#1211,#1212,#1213),
 .UNSPECIFIED.,.F.,.F.,(4,4),(0.00159094170470821,0.00294395691738585),
 .UNSPECIFIED.);
#46=B_SPLINE_CURVE_WITH_KNOTS('',3,(#1217,#1218,#1219,#1220),
 .UNSPECIFIED.,.F.,.F.,(4,4),(0.0015438344065564,0.00289684379529717),
 .UNSPECIFIED.);
#47=B_SPLINE_CURVE_WITH_KNOTS('',3,(#1224,#1225,#1226,#1227),
 .UNSPECIFIED.,.F.,.F.,(4,4),(0.00154383440655638,0.00289684379529715),
 .UNSPECIFIED.);
#48=B_SPLINE_CURVE_WITH_KNOTS('',3,(#1229,#1230,#1231,#1232),
 .UNSPECIFIED.,.F.,.F.,(4,4),(0.00159094170470822,0.00294395691738585),
 .UNSPECIFIED.);
#49=B_SPLINE_CURVE_WITH_KNOTS('',3,(#1236,#1237,#1238,#1239),
 .UNSPECIFIED.,.F.,.F.,(4,4),(0.00154383440655638,0.00289684379529715),
 .UNSPECIFIED.);
#50=B_SPLINE_CURVE_WITH_KNOTS('',3,(#1299,#1300,#1301,#1302),
 .UNSPECIFIED.,.F.,.F.,(4,4),(0.00159094170470826,0.0029439569173859),
 .UNSPECIFIED.);
#51=B_SPLINE_CURVE_WITH_KNOTS('',3,(#1306,#1307,#1308,#1309),
 .UNSPECIFIED.,.F.,.F.,(4,4),(0.00159094170470821,0.00294395691738585),
 .UNSPECIFIED.);
#52=B_SPLINE_CURVE_WITH_KNOTS('',3,(#1311,#1312,#1313,#1314),
 .UNSPECIFIED.,.F.,.F.,(4,4),(0.00154383440655639,0.00289684379529717),
 .UNSPECIFIED.);
#53=B_SPLINE_CURVE_WITH_KNOTS('',3,(#1316,#1317,#1318,#1319),
 .UNSPECIFIED.,.F.,.F.,(4,4),(0.00159094170470826,0.0029439569173859),
 .UNSPECIFIED.);
#54=B_SPLINE_CURVE_WITH_KNOTS('',3,(#1323,#1324,#1325,#1326),
 .UNSPECIFIED.,.F.,.F.,(4,4),(0.00154383440655639,0.00289684379529717),
 .UNSPECIFIED.);
#55=B_SPLINE_CURVE_WITH_KNOTS('',3,(#1328,#1329,#1330,#1331),
 .UNSPECIFIED.,.F.,.F.,(4,4),(0.00154383440655637,0.00289684379529715),
 .UNSPECIFIED.);
#56=B_SPLINE_CURVE_WITH_KNOTS('',3,(#1335,#1336,#1337,#1338),
 .UNSPECIFIED.,.F.,.F.,(4,4),(0.00154383440655637,0.00289684379529715),
 .UNSPECIFIED.);
#57=B_SPLINE_CURVE_WITH_KNOTS('',3,(#1342,#1343,#1344,#1345),
 .UNSPECIFIED.,.F.,.F.,(4,4),(0.00159094170470821,0.00294395691738585),
 .UNSPECIFIED.);
#58=CONICAL_SURFACE('',#835,4.8,1.10714871779409);
#59=CONICAL_SURFACE('',#837,4.8,1.10714871779409);
#60=CONICAL_SURFACE('',#839,4.8,1.10714871779409);
#61=CONICAL_SURFACE('',#841,4.8,1.10714871779409);
#62=CONICAL_SURFACE('',#859,3.6,1.10714871779409);
#63=CONICAL_SURFACE('',#861,3.6,1.10714871779409);
#64=CONICAL_SURFACE('',#863,3.6,1.10714871779409);
#65=CONICAL_SURFACE('',#865,3.6,1.10714871779409);
#66=CONICAL_SURFACE('',#883,5.6,1.10714871779409);
#67=CONICAL_SURFACE('',#887,4.,1.10714871779409);
#68=CIRCLE('',#824,4.8);
#69=CIRCLE('',#825,4.8);
#70=CIRCLE('',#827,4.8);
#71=CIRCLE('',#828,4.8);
#72=CIRCLE('',#830,4.8);
#73=CIRCLE('',#831,4.8);
#74=CIRCLE('',#833,4.8);
#75=CIRCLE('',#834,4.8);
#76=CIRCLE('',#836,3.60000000000001);
#77=CIRCLE('',#838,3.60000000000001);
#78=CIRCLE('',#840,3.60000000000001);
#79=CIRCLE('',#842,3.60000000000001);
#80=CIRCLE('',#844,3.60000000000001);
#81=CIRCLE('',#845,3.60000000000001);
#82=CIRCLE('',#846,3.60000000000001);
#83=CIRCLE('',#847,3.60000000000001);
#84=CIRCLE('',#848,3.60000000000001);
#85=CIRCLE('',#850,3.6);
#86=CIRCLE('',#851,3.6);
#87=CIRCLE('',#852,3.6);
#88=CIRCLE('',#853,3.6);
#89=CIRCLE('',#854,3.6);
#90=CIRCLE('',#855,3.6);
#91=CIRCLE('',#856,3.6);
#92=CIRCLE('',#857,3.6);
#93=CIRCLE('',#858,3.6);
#94=CIRCLE('',#860,4.8);
#95=CIRCLE('',#862,4.8);
#96=CIRCLE('',#864,4.8);
#97=CIRCLE('',#866,4.8);
#98=CIRCLE('',#868,4.8);
#99=CIRCLE('',#870,4.8);
#100=CIRCLE('',#872,4.8);
#101=CIRCLE('',#874,4.8);
#102=CIRCLE('',#876,3.1);
#103=CIRCLE('',#877,3.1);
#104=CIRCLE('',#880,5.6);
#105=CIRCLE('',#882,5.6);
#106=CIRCLE('',#884,4.);
#107=CIRCLE('',#886,4.);
#108=CIRCLE('',#888,5.6);
#109=CIRCLE('',#890,5.6);
#110=CIRCLE('',#893,3.1);
#111=CIRCLE('',#895,3.1);
#112=CIRCLE('',#897,2.4);
#113=CIRCLE('',#899,2.4);
#114=ORIENTED_EDGE('',*,*,#334,.F.);
#115=ORIENTED_EDGE('',*,*,#335,.F.);
#116=ORIENTED_EDGE('',*,*,#336,.F.);
#117=ORIENTED_EDGE('',*,*,#337,.T.);
#118=ORIENTED_EDGE('',*,*,#338,.F.);
#119=ORIENTED_EDGE('',*,*,#339,.F.);
#120=ORIENTED_EDGE('',*,*,#340,.T.);
#121=ORIENTED_EDGE('',*,*,#341,.T.);
#122=ORIENTED_EDGE('',*,*,#342,.F.);
#123=ORIENTED_EDGE('',*,*,#343,.T.);
#124=ORIENTED_EDGE('',*,*,#344,.T.);
#125=ORIENTED_EDGE('',*,*,#345,.F.);
#126=ORIENTED_EDGE('',*,*,#346,.F.);
#127=ORIENTED_EDGE('',*,*,#347,.T.);
#128=ORIENTED_EDGE('',*,*,#348,.T.);
#129=ORIENTED_EDGE('',*,*,#349,.T.);
#130=ORIENTED_EDGE('',*,*,#350,.F.);
#131=ORIENTED_EDGE('',*,*,#337,.F.);
#132=ORIENTED_EDGE('',*,*,#351,.F.);
#133=ORIENTED_EDGE('',*,*,#352,.T.);
#134=ORIENTED_EDGE('',*,*,#353,.F.);
#135=ORIENTED_EDGE('',*,*,#341,.F.);
#136=ORIENTED_EDGE('',*,*,#354,.T.);
#137=ORIENTED_EDGE('',*,*,#355,.T.);
#138=ORIENTED_EDGE('',*,*,#356,.F.);
#139=ORIENTED_EDGE('',*,*,#357,.T.);
#140=ORIENTED_EDGE('',*,*,#358,.T.);
#141=ORIENTED_EDGE('',*,*,#343,.F.);
#142=ORIENTED_EDGE('',*,*,#348,.F.);
#143=ORIENTED_EDGE('',*,*,#359,.T.);
#144=ORIENTED_EDGE('',*,*,#360,.T.);
#145=ORIENTED_EDGE('',*,*,#361,.T.);
#146=ORIENTED_EDGE('',*,*,#362,.F.);
#147=ORIENTED_EDGE('',*,*,#352,.F.);
#148=ORIENTED_EDGE('',*,*,#363,.T.);
#149=ORIENTED_EDGE('',*,*,#364,.F.);
#150=ORIENTED_EDGE('',*,*,#365,.F.);
#151=ORIENTED_EDGE('',*,*,#355,.F.);
#152=ORIENTED_EDGE('',*,*,#366,.T.);
#153=ORIENTED_EDGE('',*,*,#367,.T.);
#154=ORIENTED_EDGE('',*,*,#368,.F.);
#155=ORIENTED_EDGE('',*,*,#360,.F.);
#156=ORIENTED_EDGE('',*,*,#369,.T.);
#157=ORIENTED_EDGE('',*,*,#370,.T.);
#158=ORIENTED_EDGE('',*,*,#371,.F.);
#159=ORIENTED_EDGE('',*,*,#357,.F.);
#160=ORIENTED_EDGE('',*,*,#372,.T.);
#161=ORIENTED_EDGE('',*,*,#373,.F.);
#162=ORIENTED_EDGE('',*,*,#374,.T.);
#163=ORIENTED_EDGE('',*,*,#375,.F.);
#164=ORIENTED_EDGE('',*,*,#376,.T.);
#165=ORIENTED_EDGE('',*,*,#377,.T.);
#166=ORIENTED_EDGE('',*,*,#378,.T.);
#167=ORIENTED_EDGE('',*,*,#379,.F.);
#168=ORIENTED_EDGE('',*,*,#380,.T.);
#169=ORIENTED_EDGE('',*,*,#381,.T.);
#170=ORIENTED_EDGE('',*,*,#382,.T.);
#171=ORIENTED_EDGE('',*,*,#383,.F.);
#172=ORIENTED_EDGE('',*,*,#384,.T.);
#173=ORIENTED_EDGE('',*,*,#385,.T.);
#174=ORIENTED_EDGE('',*,*,#386,.F.);
#175=ORIENTED_EDGE('',*,*,#387,.F.);
#176=ORIENTED_EDGE('',*,*,#388,.T.);
#177=ORIENTED_EDGE('',*,*,#389,.T.);
#178=ORIENTED_EDGE('',*,*,#390,.F.);
#179=ORIENTED_EDGE('',*,*,#391,.F.);
#180=ORIENTED_EDGE('',*,*,#392,.F.);
#181=ORIENTED_EDGE('',*,*,#393,.T.);
#182=ORIENTED_EDGE('',*,*,#394,.T.);
#183=ORIENTED_EDGE('',*,*,#376,.F.);
#184=ORIENTED_EDGE('',*,*,#395,.F.);
#185=ORIENTED_EDGE('',*,*,#388,.F.);
#186=ORIENTED_EDGE('',*,*,#396,.F.);
#187=ORIENTED_EDGE('',*,*,#397,.T.);
#188=ORIENTED_EDGE('',*,*,#398,.F.);
#189=ORIENTED_EDGE('',*,*,#384,.F.);
#190=ORIENTED_EDGE('',*,*,#399,.T.);
#191=ORIENTED_EDGE('',*,*,#400,.T.);
#192=ORIENTED_EDGE('',*,*,#380,.F.);
#193=ORIENTED_EDGE('',*,*,#401,.T.);
#194=ORIENTED_EDGE('',*,*,#402,.T.);
#195=ORIENTED_EDGE('',*,*,#403,.T.);
#196=ORIENTED_EDGE('',*,*,#404,.F.);
#197=ORIENTED_EDGE('',*,*,#405,.T.);
#198=ORIENTED_EDGE('',*,*,#406,.T.);
#199=ORIENTED_EDGE('',*,*,#393,.F.);
#200=ORIENTED_EDGE('',*,*,#407,.F.);
#201=ORIENTED_EDGE('',*,*,#397,.F.);
#202=ORIENTED_EDGE('',*,*,#408,.F.);
#203=ORIENTED_EDGE('',*,*,#409,.T.);
#204=ORIENTED_EDGE('',*,*,#410,.F.);
#205=ORIENTED_EDGE('',*,*,#400,.F.);
#206=ORIENTED_EDGE('',*,*,#411,.T.);
#207=ORIENTED_EDGE('',*,*,#412,.T.);
#208=ORIENTED_EDGE('',*,*,#402,.F.);
#209=ORIENTED_EDGE('',*,*,#413,.T.);
#210=ORIENTED_EDGE('',*,*,#414,.T.);
#211=ORIENTED_EDGE('',*,*,#415,.T.);
#212=ORIENTED_EDGE('',*,*,#416,.T.);
#213=ORIENTED_EDGE('',*,*,#417,.F.);
#214=ORIENTED_EDGE('',*,*,#391,.T.);
#215=ORIENTED_EDGE('',*,*,#416,.F.);
#216=ORIENTED_EDGE('',*,*,#409,.F.);
#217=ORIENTED_EDGE('',*,*,#418,.T.);
#218=ORIENTED_EDGE('',*,*,#386,.T.);
#219=ORIENTED_EDGE('',*,*,#419,.T.);
#220=ORIENTED_EDGE('',*,*,#412,.F.);
#221=ORIENTED_EDGE('',*,*,#420,.F.);
#222=ORIENTED_EDGE('',*,*,#382,.F.);
#223=ORIENTED_EDGE('',*,*,#421,.F.);
#224=ORIENTED_EDGE('',*,*,#414,.F.);
#225=ORIENTED_EDGE('',*,*,#422,.F.);
#226=ORIENTED_EDGE('',*,*,#378,.F.);
#227=ORIENTED_EDGE('',*,*,#423,.F.);
#228=ORIENTED_EDGE('',*,*,#405,.F.);
#229=ORIENTED_EDGE('',*,*,#424,.T.);
#230=ORIENTED_EDGE('',*,*,#390,.T.);
#231=ORIENTED_EDGE('',*,*,#425,.T.);
#232=ORIENTED_EDGE('',*,*,#426,.T.);
#233=ORIENTED_EDGE('',*,*,#427,.T.);
#234=ORIENTED_EDGE('',*,*,#426,.F.);
#235=ORIENTED_EDGE('',*,*,#428,.T.);
#236=ORIENTED_EDGE('',*,*,#427,.F.);
#237=ORIENTED_EDGE('',*,*,#429,.T.);
#238=ORIENTED_EDGE('',*,*,#428,.F.);
#239=ORIENTED_EDGE('',*,*,#430,.T.);
#240=ORIENTED_EDGE('',*,*,#429,.F.);
#241=ORIENTED_EDGE('',*,*,#431,.T.);
#242=ORIENTED_EDGE('',*,*,#430,.F.);
#243=ORIENTED_EDGE('',*,*,#432,.T.);
#244=ORIENTED_EDGE('',*,*,#335,.T.);
#245=ORIENTED_EDGE('',*,*,#433,.T.);
#246=ORIENTED_EDGE('',*,*,#373,.T.);
#247=ORIENTED_EDGE('',*,*,#434,.T.);
#248=ORIENTED_EDGE('',*,*,#345,.T.);
#249=ORIENTED_EDGE('',*,*,#435,.F.);
#250=ORIENTED_EDGE('',*,*,#370,.F.);
#251=ORIENTED_EDGE('',*,*,#436,.F.);
#252=ORIENTED_EDGE('',*,*,#346,.T.);
#253=ORIENTED_EDGE('',*,*,#437,.F.);
#254=ORIENTED_EDGE('',*,*,#367,.F.);
#255=ORIENTED_EDGE('',*,*,#438,.F.);
#256=ORIENTED_EDGE('',*,*,#339,.T.);
#257=ORIENTED_EDGE('',*,*,#439,.T.);
#258=ORIENTED_EDGE('',*,*,#364,.T.);
#259=ORIENTED_EDGE('',*,*,#431,.F.);
#260=ORIENTED_EDGE('',*,*,#440,.T.);
#261=ORIENTED_EDGE('',*,*,#374,.F.);
#262=ORIENTED_EDGE('',*,*,#441,.T.);
#263=ORIENTED_EDGE('',*,*,#440,.F.);
#264=ORIENTED_EDGE('',*,*,#442,.T.);
#265=ORIENTED_EDGE('',*,*,#441,.F.);
#266=ORIENTED_EDGE('',*,*,#443,.T.);
#267=ORIENTED_EDGE('',*,*,#442,.F.);
#268=ORIENTED_EDGE('',*,*,#417,.T.);
#269=ORIENTED_EDGE('',*,*,#443,.F.);
#270=ORIENTED_EDGE('',*,*,#403,.F.);
#271=ORIENTED_EDGE('',*,*,#415,.F.);
#272=ORIENTED_EDGE('',*,*,#421,.T.);
#273=ORIENTED_EDGE('',*,*,#381,.F.);
#274=ORIENTED_EDGE('',*,*,#399,.F.);
#275=ORIENTED_EDGE('',*,*,#383,.T.);
#276=ORIENTED_EDGE('',*,*,#420,.T.);
#277=ORIENTED_EDGE('',*,*,#411,.F.);
#278=ORIENTED_EDGE('',*,*,#394,.F.);
#279=ORIENTED_EDGE('',*,*,#406,.F.);
#280=ORIENTED_EDGE('',*,*,#423,.T.);
#281=ORIENTED_EDGE('',*,*,#377,.F.);
#282=ORIENTED_EDGE('',*,*,#401,.F.);
#283=ORIENTED_EDGE('',*,*,#379,.T.);
#284=ORIENTED_EDGE('',*,*,#422,.T.);
#285=ORIENTED_EDGE('',*,*,#413,.F.);
#286=ORIENTED_EDGE('',*,*,#408,.T.);
#287=ORIENTED_EDGE('',*,*,#396,.T.);
#288=ORIENTED_EDGE('',*,*,#387,.T.);
#289=ORIENTED_EDGE('',*,*,#418,.F.);
#290=ORIENTED_EDGE('',*,*,#385,.F.);
#291=ORIENTED_EDGE('',*,*,#398,.T.);
#292=ORIENTED_EDGE('',*,*,#410,.T.);
#293=ORIENTED_EDGE('',*,*,#419,.F.);
#294=ORIENTED_EDGE('',*,*,#404,.T.);
#295=ORIENTED_EDGE('',*,*,#392,.T.);
#296=ORIENTED_EDGE('',*,*,#375,.T.);
#297=ORIENTED_EDGE('',*,*,#424,.F.);
#298=ORIENTED_EDGE('',*,*,#389,.F.);
#299=ORIENTED_EDGE('',*,*,#395,.T.);
#300=ORIENTED_EDGE('',*,*,#407,.T.);
#301=ORIENTED_EDGE('',*,*,#425,.F.);
#302=ORIENTED_EDGE('',*,*,#340,.F.);
#303=ORIENTED_EDGE('',*,*,#438,.T.);
#304=ORIENTED_EDGE('',*,*,#366,.F.);
#305=ORIENTED_EDGE('',*,*,#354,.F.);
#306=ORIENTED_EDGE('',*,*,#349,.F.);
#307=ORIENTED_EDGE('',*,*,#361,.F.);
#308=ORIENTED_EDGE('',*,*,#368,.T.);
#309=ORIENTED_EDGE('',*,*,#437,.T.);
#310=ORIENTED_EDGE('',*,*,#344,.F.);
#311=ORIENTED_EDGE('',*,*,#358,.F.);
#312=ORIENTED_EDGE('',*,*,#371,.T.);
#313=ORIENTED_EDGE('',*,*,#435,.T.);
#314=ORIENTED_EDGE('',*,*,#347,.F.);
#315=ORIENTED_EDGE('',*,*,#436,.T.);
#316=ORIENTED_EDGE('',*,*,#369,.F.);
#317=ORIENTED_EDGE('',*,*,#359,.F.);
#318=ORIENTED_EDGE('',*,*,#439,.F.);
#319=ORIENTED_EDGE('',*,*,#338,.T.);
#320=ORIENTED_EDGE('',*,*,#353,.T.);
#321=ORIENTED_EDGE('',*,*,#365,.T.);
#322=ORIENTED_EDGE('',*,*,#351,.T.);
#323=ORIENTED_EDGE('',*,*,#336,.T.);
#324=ORIENTED_EDGE('',*,*,#432,.F.);
#325=ORIENTED_EDGE('',*,*,#363,.F.);
#326=ORIENTED_EDGE('',*,*,#433,.F.);
#327=ORIENTED_EDGE('',*,*,#334,.T.);
#328=ORIENTED_EDGE('',*,*,#350,.T.);
#329=ORIENTED_EDGE('',*,*,#362,.T.);
#330=ORIENTED_EDGE('',*,*,#356,.T.);
#331=ORIENTED_EDGE('',*,*,#342,.T.);
#332=ORIENTED_EDGE('',*,*,#434,.F.);
#333=ORIENTED_EDGE('',*,*,#372,.F.);
#334=EDGE_CURVE('',#444,#445,#522,.T.);
#335=EDGE_CURVE('',#446,#444,#68,.T.);
#336=EDGE_CURVE('',#447,#446,#523,.F.);
#337=EDGE_CURVE('',#447,#445,#69,.T.);
#338=EDGE_CURVE('',#448,#449,#524,.T.);
#339=EDGE_CURVE('',#450,#448,#70,.T.);
#340=EDGE_CURVE('',#450,#451,#525,.T.);
#341=EDGE_CURVE('',#451,#449,#71,.T.);
#342=EDGE_CURVE('',#452,#453,#526,.F.);
#343=EDGE_CURVE('',#452,#454,#72,.T.);
#344=EDGE_CURVE('',#454,#455,#527,.F.);
#345=EDGE_CURVE('',#453,#455,#73,.T.);
#346=EDGE_CURVE('',#456,#457,#74,.T.);
#347=EDGE_CURVE('',#456,#458,#528,.T.);
#348=EDGE_CURVE('',#458,#459,#75,.T.);
#349=EDGE_CURVE('',#459,#457,#529,.F.);
#350=EDGE_CURVE('',#445,#460,#42,.T.);
#351=EDGE_CURVE('',#461,#447,#43,.T.);
#352=EDGE_CURVE('',#461,#460,#76,.T.);
#353=EDGE_CURVE('',#449,#462,#44,.T.);
#354=EDGE_CURVE('',#451,#463,#45,.T.);
#355=EDGE_CURVE('',#463,#462,#77,.T.);
#356=EDGE_CURVE('',#464,#452,#46,.T.);
#357=EDGE_CURVE('',#464,#465,#78,.T.);
#358=EDGE_CURVE('',#465,#454,#47,.T.);
#359=EDGE_CURVE('',#458,#466,#48,.T.);
#360=EDGE_CURVE('',#466,#467,#79,.T.);
#361=EDGE_CURVE('',#467,#459,#49,.T.);
#362=EDGE_CURVE('',#460,#468,#530,.T.);
#363=EDGE_CURVE('',#461,#469,#531,.T.);
#364=EDGE_CURVE('',#470,#469,#80,.F.);
#365=EDGE_CURVE('',#462,#470,#532,.T.);
#366=EDGE_CURVE('',#463,#471,#533,.T.);
#367=EDGE_CURVE('',#471,#472,#81,.F.);
#368=EDGE_CURVE('',#467,#472,#534,.T.);
#369=EDGE_CURVE('',#466,#473,#535,.T.);
#370=EDGE_CURVE('',#473,#474,#82,.F.);
#371=EDGE_CURVE('',#465,#474,#536,.T.);
#372=EDGE_CURVE('',#464,#475,#537,.T.);
#373=EDGE_CURVE('',#468,#475,#83,.F.);
#374=EDGE_CURVE('',#476,#476,#84,.T.);
#375=EDGE_CURVE('',#477,#478,#538,.T.);
#376=EDGE_CURVE('',#477,#479,#85,.T.);
#377=EDGE_CURVE('',#479,#480,#539,.T.);
#378=EDGE_CURVE('',#480,#481,#86,.F.);
#379=EDGE_CURVE('',#482,#481,#540,.T.);
#380=EDGE_CURVE('',#482,#483,#87,.T.);
#381=EDGE_CURVE('',#483,#484,#541,.T.);
#382=EDGE_CURVE('',#484,#485,#88,.F.);
#383=EDGE_CURVE('',#486,#485,#542,.T.);
#384=EDGE_CURVE('',#486,#487,#89,.T.);
#385=EDGE_CURVE('',#487,#488,#543,.T.);
#386=EDGE_CURVE('',#489,#488,#90,.F.);
#387=EDGE_CURVE('',#490,#489,#544,.T.);
#388=EDGE_CURVE('',#490,#491,#91,.T.);
#389=EDGE_CURVE('',#491,#492,#545,.T.);
#390=EDGE_CURVE('',#478,#492,#92,.F.);
#391=EDGE_CURVE('',#493,#493,#93,.T.);
#392=EDGE_CURVE('',#494,#477,#50,.T.);
#393=EDGE_CURVE('',#494,#495,#94,.T.);
#394=EDGE_CURVE('',#495,#479,#51,.T.);
#395=EDGE_CURVE('',#491,#496,#52,.T.);
#396=EDGE_CURVE('',#497,#490,#53,.T.);
#397=EDGE_CURVE('',#497,#496,#95,.T.);
#398=EDGE_CURVE('',#487,#498,#54,.T.);
#399=EDGE_CURVE('',#486,#499,#55,.T.);
#400=EDGE_CURVE('',#499,#498,#96,.T.);
#401=EDGE_CURVE('',#482,#500,#56,.T.);
#402=EDGE_CURVE('',#500,#501,#97,.T.);
#403=EDGE_CURVE('',#501,#483,#57,.T.);
#404=EDGE_CURVE('',#502,#494,#546,.F.);
#405=EDGE_CURVE('',#502,#503,#98,.T.);
#406=EDGE_CURVE('',#503,#495,#547,.F.);
#407=EDGE_CURVE('',#496,#504,#548,.T.);
#408=EDGE_CURVE('',#505,#497,#549,.F.);
#409=EDGE_CURVE('',#505,#504,#99,.T.);
#410=EDGE_CURVE('',#498,#506,#550,.T.);
#411=EDGE_CURVE('',#499,#507,#551,.T.);
#412=EDGE_CURVE('',#507,#506,#100,.T.);
#413=EDGE_CURVE('',#500,#508,#552,.T.);
#414=EDGE_CURVE('',#508,#509,#101,.T.);
#415=EDGE_CURVE('',#509,#501,#553,.F.);
#416=EDGE_CURVE('',#510,#510,#102,.T.);
#417=EDGE_CURVE('',#511,#511,#103,.T.);
#418=EDGE_CURVE('',#505,#489,#554,.T.);
#419=EDGE_CURVE('',#488,#506,#555,.T.);
#420=EDGE_CURVE('',#485,#507,#556,.T.);
#421=EDGE_CURVE('',#509,#484,#557,.T.);
#422=EDGE_CURVE('',#481,#508,#558,.T.);
#423=EDGE_CURVE('',#503,#480,#559,.T.);
#424=EDGE_CURVE('',#502,#478,#560,.T.);
#425=EDGE_CURVE('',#492,#504,#561,.T.);
#426=EDGE_CURVE('',#512,#512,#104,.T.);
#427=EDGE_CURVE('',#513,#513,#105,.T.);
#428=EDGE_CURVE('',#514,#514,#106,.T.);
#429=EDGE_CURVE('',#515,#515,#107,.T.);
#430=EDGE_CURVE('',#516,#516,#108,.T.);
#431=EDGE_CURVE('',#517,#517,#109,.T.);
#432=EDGE_CURVE('',#469,#446,#562,.T.);
#433=EDGE_CURVE('',#444,#468,#563,.T.);
#434=EDGE_CURVE('',#475,#453,#564,.T.);
#435=EDGE_CURVE('',#474,#455,#565,.T.);
#436=EDGE_CURVE('',#456,#473,#566,.T.);
#437=EDGE_CURVE('',#472,#457,#567,.T.);
#438=EDGE_CURVE('',#450,#471,#568,.T.);
#439=EDGE_CURVE('',#448,#470,#569,.T.);
#440=EDGE_CURVE('',#518,#518,#110,.T.);
#441=EDGE_CURVE('',#519,#519,#111,.T.);
#442=EDGE_CURVE('',#520,#520,#112,.T.);
#443=EDGE_CURVE('',#521,#521,#113,.T.);
#444=VERTEX_POINT('',#1158);
#445=VERTEX_POINT('',#1159);
#446=VERTEX_POINT('',#1161);
#447=VERTEX_POINT('',#1163);
#448=VERTEX_POINT('',#1167);
#449=VERTEX_POINT('',#1168);
#450=VERTEX_POINT('',#1170);
#451=VERTEX_POINT('',#1172);
#452=VERTEX_POINT('',#1176);
#453=VERTEX_POINT('',#1177);
#454=VERTEX_POINT('',#1179);
#455=VERTEX_POINT('',#1181);
#456=VERTEX_POINT('',#1185);
#457=VERTEX_POINT('',#1186);
#458=VERTEX_POINT('',#1188);
#459=VERTEX_POINT('',#1190);
#460=VERTEX_POINT('',#1197);
#461=VERTEX_POINT('',#1202);
#462=VERTEX_POINT('',#1209);
#463=VERTEX_POINT('',#1214);
#464=VERTEX_POINT('',#1221);
#465=VERTEX_POINT('',#1223);
#466=VERTEX_POINT('',#1233);
#467=VERTEX_POINT('',#1235);
#468=VERTEX_POINT('',#1242);
#469=VERTEX_POINT('',#1244);
#470=VERTEX_POINT('',#1246);
#471=VERTEX_POINT('',#1249);
#472=VERTEX_POINT('',#1251);
#473=VERTEX_POINT('',#1254);
#474=VERTEX_POINT('',#1256);
#475=VERTEX_POINT('',#1259);
#476=VERTEX_POINT('',#1262);
#477=VERTEX_POINT('',#1265);
#478=VERTEX_POINT('',#1266);
#479=VERTEX_POINT('',#1268);
#480=VERTEX_POINT('',#1270);
#481=VERTEX_POINT('',#1272);
#482=VERTEX_POINT('',#1274);
#483=VERTEX_POINT('',#1276);
#484=VERTEX_POINT('',#1278);
#485=VERTEX_POINT('',#1280);
#486=VERTEX_POINT('',#1282);
#487=VERTEX_POINT('',#1284);
#488=VERTEX_POINT('',#1286);
#489=VERTEX_POINT('',#1288);
#490=VERTEX_POINT('',#1290);
#491=VERTEX_POINT('',#1292);
#492=VERTEX_POINT('',#1294);
#493=VERTEX_POINT('',#1297);
#494=VERTEX_POINT('',#1303);
#495=VERTEX_POINT('',#1305);
#496=VERTEX_POINT('',#1315);
#497=VERTEX_POINT('',#1320);
#498=VERTEX_POINT('',#1327);
#499=VERTEX_POINT('',#1332);
#500=VERTEX_POINT('',#1339);
#501=VERTEX_POINT('',#1341);
#502=VERTEX_POINT('',#1348);
#503=VERTEX_POINT('',#1350);
#504=VERTEX_POINT('',#1354);
#505=VERTEX_POINT('',#1356);
#506=VERTEX_POINT('',#1360);
#507=VERTEX_POINT('',#1362);
#508=VERTEX_POINT('',#1366);
#509=VERTEX_POINT('',#1368);
#510=VERTEX_POINT('',#1372);
#511=VERTEX_POINT('',#1374);
#512=VERTEX_POINT('',#1386);
#513=VERTEX_POINT('',#1389);
#514=VERTEX_POINT('',#1392);
#515=VERTEX_POINT('',#1395);
#516=VERTEX_POINT('',#1398);
#517=VERTEX_POINT('',#1401);
#518=VERTEX_POINT('',#1413);
#519=VERTEX_POINT('',#1416);
#520=VERTEX_POINT('',#1419);
#521=VERTEX_POINT('',#1422);
#522=LINE('',#1157,#570);
#523=LINE('',#1162,#571);
#524=LINE('',#1166,#572);
#525=LINE('',#1171,#573);
#526=LINE('',#1175,#574);
#527=LINE('',#1180,#575);
#528=LINE('',#1187,#576);
#529=LINE('',#1191,#577);
#530=LINE('',#1241,#578);
#531=LINE('',#1243,#579);
#532=LINE('',#1247,#580);
#533=LINE('',#1248,#581);
#534=LINE('',#1252,#582);
#535=LINE('',#1253,#583);
#536=LINE('',#1257,#584);
#537=LINE('',#1258,#585);
#538=LINE('',#1264,#586);
#539=LINE('',#1269,#587);
#540=LINE('',#1273,#588);
#541=LINE('',#1277,#589);
#542=LINE('',#1281,#590);
#543=LINE('',#1285,#591);
#544=LINE('',#1289,#592);
#545=LINE('',#1293,#593);
#546=LINE('',#1347,#594);
#547=LINE('',#1351,#595);
#548=LINE('',#1353,#596);
#549=LINE('',#1355,#597);
#550=LINE('',#1359,#598);
#551=LINE('',#1361,#599);
#552=LINE('',#1365,#600);
#553=LINE('',#1369,#601);
#554=LINE('',#1377,#602);
#555=LINE('',#1378,#603);
#556=LINE('',#1379,#604);
#557=LINE('',#1380,#605);
#558=LINE('',#1381,#606);
#559=LINE('',#1382,#607);
#560=LINE('',#1383,#608);
#561=LINE('',#1384,#609);
#562=LINE('',#1403,#610);
#563=LINE('',#1404,#611);
#564=LINE('',#1405,#612);
#565=LINE('',#1406,#613);
#566=LINE('',#1407,#614);
#567=LINE('',#1408,#615);
#568=LINE('',#1409,#616);
#569=LINE('',#1410,#617);
#570=VECTOR('',#921,1000.);
#571=VECTOR('',#924,1000.);
#572=VECTOR('',#929,1000.);
#573=VECTOR('',#932,1000.);
#574=VECTOR('',#937,1000.);
#575=VECTOR('',#940,1000.);
#576=VECTOR('',#947,1000.);
#577=VECTOR('',#950,1000.);
#578=VECTOR('',#969,1000.);
#579=VECTOR('',#970,1000.);
#580=VECTOR('',#973,1000.);
#581=VECTOR('',#974,1000.);
#582=VECTOR('',#977,1000.);
#583=VECTOR('',#978,1000.);
#584=VECTOR('',#981,1000.);
#585=VECTOR('',#982,1000.);
#586=VECTOR('',#989,1000.);
#587=VECTOR('',#992,1000.);
#588=VECTOR('',#995,1000.);
#589=VECTOR('',#998,1000.);
#590=VECTOR('',#1001,1000.);
#591=VECTOR('',#1004,1000.);
#592=VECTOR('',#1007,1000.);
#593=VECTOR('',#1010,1000.);
#594=VECTOR('',#1033,1000.);
#595=VECTOR('',#1036,1000.);
#596=VECTOR('',#1039,1000.);
#597=VECTOR('',#1040,1000.);
#598=VECTOR('',#1045,1000.);
#599=VECTOR('',#1046,1000.);
#600=VECTOR('',#1051,1000.);
#601=VECTOR('',#1054,1000.);
#602=VECTOR('',#1065,1000.);
#603=VECTOR('',#1066,1000.);
#604=VECTOR('',#1067,1000.);
#605=VECTOR('',#1068,1000.);
#606=VECTOR('',#1069,1000.);
#607=VECTOR('',#1070,1000.);
#608=VECTOR('',#1071,1000.);
#609=VECTOR('',#1072,1000.);
#610=VECTOR('',#1097,1000.);
#611=VECTOR('',#1098,1000.);
#612=VECTOR('',#1099,1000.);
#613=VECTOR('',#1100,1000.);
#614=VECTOR('',#1101,1000.);
#615=VECTOR('',#1102,1000.);
#616=VECTOR('',#1103,1000.);
#617=VECTOR('',#1104,1000.);
#618=EDGE_LOOP('',(#114,#115,#116,#117));
#619=EDGE_LOOP('',(#118,#119,#120,#121));
#620=EDGE_LOOP('',(#122,#123,#124,#125));
#621=EDGE_LOOP('',(#126,#127,#128,#129));
#622=EDGE_LOOP('',(#130,#131,#132,#133));
#623=EDGE_LOOP('',(#134,#135,#136,#137));
#624=EDGE_LOOP('',(#138,#139,#140,#141));
#625=EDGE_LOOP('',(#142,#143,#144,#145));
#626=EDGE_LOOP('',(#146,#147,#148,#149,#150,#151,#152,#153,#154,#155,#156,
#157,#158,#159,#160,#161));
#627=EDGE_LOOP('',(#162));
#628=EDGE_LOOP('',(#163,#164,#165,#166,#167,#168,#169,#170,#171,#172,#173,
#174,#175,#176,#177,#178));
#629=EDGE_LOOP('',(#179));
#630=EDGE_LOOP('',(#180,#181,#182,#183));
#631=EDGE_LOOP('',(#184,#185,#186,#187));
#632=EDGE_LOOP('',(#188,#189,#190,#191));
#633=EDGE_LOOP('',(#192,#193,#194,#195));
#634=EDGE_LOOP('',(#196,#197,#198,#199));
#635=EDGE_LOOP('',(#200,#201,#202,#203));
#636=EDGE_LOOP('',(#204,#205,#206,#207));
#637=EDGE_LOOP('',(#208,#209,#210,#211));
#638=EDGE_LOOP('',(#212));
#639=EDGE_LOOP('',(#213));
#640=EDGE_LOOP('',(#214));
#641=EDGE_LOOP('',(#215));
#642=EDGE_LOOP('',(#216,#217,#218,#219,#220,#221,#222,#223,#224,#225,#226,
#227,#228,#229,#230,#231));
#643=EDGE_LOOP('',(#232));
#644=EDGE_LOOP('',(#233));
#645=EDGE_LOOP('',(#234));
#646=EDGE_LOOP('',(#235));
#647=EDGE_LOOP('',(#236));
#648=EDGE_LOOP('',(#237));
#649=EDGE_LOOP('',(#238));
#650=EDGE_LOOP('',(#239));
#651=EDGE_LOOP('',(#240));
#652=EDGE_LOOP('',(#241));
#653=EDGE_LOOP('',(#242));
#654=EDGE_LOOP('',(#243,#244,#245,#246,#247,#248,#249,#250,#251,#252,#253,
#254,#255,#256,#257,#258));
#655=EDGE_LOOP('',(#259));
#656=EDGE_LOOP('',(#260));
#657=EDGE_LOOP('',(#261));
#658=EDGE_LOOP('',(#262));
#659=EDGE_LOOP('',(#263));
#660=EDGE_LOOP('',(#264));
#661=EDGE_LOOP('',(#265));
#662=EDGE_LOOP('',(#266));
#663=EDGE_LOOP('',(#267));
#664=EDGE_LOOP('',(#268));
#665=EDGE_LOOP('',(#269));
#666=EDGE_LOOP('',(#270,#271,#272,#273));
#667=EDGE_LOOP('',(#274,#275,#276,#277));
#668=EDGE_LOOP('',(#278,#279,#280,#281));
#669=EDGE_LOOP('',(#282,#283,#284,#285));
#670=EDGE_LOOP('',(#286,#287,#288,#289));
#671=EDGE_LOOP('',(#290,#291,#292,#293));
#672=EDGE_LOOP('',(#294,#295,#296,#297));
#673=EDGE_LOOP('',(#298,#299,#300,#301));
#674=EDGE_LOOP('',(#302,#303,#304,#305));
#675=EDGE_LOOP('',(#306,#307,#308,#309));
#676=EDGE_LOOP('',(#310,#311,#312,#313));
#677=EDGE_LOOP('',(#314,#315,#316,#317));
#678=EDGE_LOOP('',(#318,#319,#320,#321));
#679=EDGE_LOOP('',(#322,#323,#324,#325));
#680=EDGE_LOOP('',(#326,#327,#328,#329));
#681=EDGE_LOOP('',(#330,#331,#332,#333));
#682=FACE_BOUND('',#618,.T.);
#683=FACE_BOUND('',#619,.T.);
#684=FACE_BOUND('',#620,.T.);
#685=FACE_BOUND('',#621,.T.);
#686=FACE_BOUND('',#622,.T.);
#687=FACE_BOUND('',#623,.T.);
#688=FACE_BOUND('',#624,.T.);
#689=FACE_BOUND('',#625,.T.);
#690=FACE_BOUND('',#626,.T.);
#691=FACE_BOUND('',#627,.T.);
#692=FACE_BOUND('',#628,.T.);
#693=FACE_BOUND('',#629,.T.);
#694=FACE_BOUND('',#630,.T.);
#695=FACE_BOUND('',#631,.T.);
#696=FACE_BOUND('',#632,.T.);
#697=FACE_BOUND('',#633,.T.);
#698=FACE_BOUND('',#634,.T.);
#699=FACE_BOUND('',#635,.T.);
#700=FACE_BOUND('',#636,.T.);
#701=FACE_BOUND('',#637,.T.);
#702=FACE_BOUND('',#638,.T.);
#703=FACE_BOUND('',#639,.T.);
#704=FACE_BOUND('',#640,.T.);
#705=FACE_BOUND('',#641,.T.);
#706=FACE_BOUND('',#642,.T.);
#707=FACE_BOUND('',#643,.T.);
#708=FACE_BOUND('',#644,.T.);
#709=FACE_BOUND('',#645,.T.);
#710=FACE_BOUND('',#646,.T.);
#711=FACE_BOUND('',#647,.T.);
#712=FACE_BOUND('',#648,.T.);
#713=FACE_BOUND('',#649,.T.);
#714=FACE_BOUND('',#650,.T.);
#715=FACE_BOUND('',#651,.T.);
#716=FACE_BOUND('',#652,.T.);
#717=FACE_BOUND('',#653,.T.);
#718=FACE_BOUND('',#654,.T.);
#719=FACE_BOUND('',#655,.T.);
#720=FACE_BOUND('',#656,.T.);
#721=FACE_BOUND('',#657,.T.);
#722=FACE_BOUND('',#658,.T.);
#723=FACE_BOUND('',#659,.T.);
#724=FACE_BOUND('',#660,.T.);
#725=FACE_BOUND('',#661,.T.);
#726=FACE_BOUND('',#662,.T.);
#727=FACE_BOUND('',#663,.T.);
#728=FACE_BOUND('',#664,.T.);
#729=FACE_BOUND('',#665,.T.);
#730=FACE_BOUND('',#666,.T.);
#731=FACE_BOUND('',#667,.T.);
#732=FACE_BOUND('',#668,.T.);
#733=FACE_BOUND('',#669,.T.);
#734=FACE_BOUND('',#670,.T.);
#735=FACE_BOUND('',#671,.T.);
#736=FACE_BOUND('',#672,.T.);
#737=FACE_BOUND('',#673,.T.);
#738=FACE_BOUND('',#674,.T.);
#739=FACE_BOUND('',#675,.T.);
#740=FACE_BOUND('',#676,.T.);
#741=FACE_BOUND('',#677,.T.);
#742=FACE_BOUND('',#678,.T.);
#743=FACE_BOUND('',#679,.T.);
#744=FACE_BOUND('',#680,.T.);
#745=FACE_BOUND('',#681,.T.);
#746=CYLINDRICAL_SURFACE('',#823,4.8);
#747=CYLINDRICAL_SURFACE('',#826,4.8);
#748=CYLINDRICAL_SURFACE('',#829,4.8);
#749=CYLINDRICAL_SURFACE('',#832,4.8);
#750=CYLINDRICAL_SURFACE('',#843,3.60000000000001);
#751=CYLINDRICAL_SURFACE('',#849,3.6);
#752=CYLINDRICAL_SURFACE('',#867,4.8);
#753=CYLINDRICAL_SURFACE('',#869,4.8);
#754=CYLINDRICAL_SURFACE('',#871,4.8);
#755=CYLINDRICAL_SURFACE('',#873,4.8);
#756=CYLINDRICAL_SURFACE('',#875,3.1);
#757=CYLINDRICAL_SURFACE('',#881,5.6);
#758=CYLINDRICAL_SURFACE('',#885,4.);
#759=CYLINDRICAL_SURFACE('',#889,5.6);
#760=CYLINDRICAL_SURFACE('',#894,3.1);
#761=CYLINDRICAL_SURFACE('',#898,2.4);
#762=ADVANCED_FACE('',(#682),#746,.F.);
#763=ADVANCED_FACE('',(#683),#747,.F.);
#764=ADVANCED_FACE('',(#684),#748,.F.);
#765=ADVANCED_FACE('',(#685),#749,.F.);
#766=ADVANCED_FACE('',(#686),#58,.F.);
#767=ADVANCED_FACE('',(#687),#59,.F.);
#768=ADVANCED_FACE('',(#688),#60,.F.);
#769=ADVANCED_FACE('',(#689),#61,.F.);
#770=ADVANCED_FACE('',(#690,#691),#750,.T.);
#771=ADVANCED_FACE('',(#692,#693),#751,.T.);
#772=ADVANCED_FACE('',(#694),#62,.F.);
#773=ADVANCED_FACE('',(#695),#63,.F.);
#774=ADVANCED_FACE('',(#696),#64,.F.);
#775=ADVANCED_FACE('',(#697),#65,.F.);
#776=ADVANCED_FACE('',(#698),#752,.F.);
#777=ADVANCED_FACE('',(#699),#753,.F.);
#778=ADVANCED_FACE('',(#700),#754,.F.);
#779=ADVANCED_FACE('',(#701),#755,.F.);
#780=ADVANCED_FACE('',(#702,#703),#756,.F.);
#781=ADVANCED_FACE('',(#704,#705),#20,.T.);
#782=ADVANCED_FACE('',(#706,#707),#21,.T.);
#783=ADVANCED_FACE('',(#708,#709),#757,.T.);
#784=ADVANCED_FACE('',(#710,#711),#66,.T.);
#785=ADVANCED_FACE('',(#712,#713),#758,.T.);
#786=ADVANCED_FACE('',(#714,#715),#67,.T.);
#787=ADVANCED_FACE('',(#716,#717),#759,.T.);
#788=ADVANCED_FACE('',(#718,#719),#22,.T.);
#789=ADVANCED_FACE('',(#720,#721),#23,.T.);
#790=ADVANCED_FACE('',(#722,#723),#760,.F.);
#791=ADVANCED_FACE('',(#724,#725),#24,.T.);
#792=ADVANCED_FACE('',(#726,#727),#761,.F.);
#793=ADVANCED_FACE('',(#728,#729),#25,.T.);
#794=ADVANCED_FACE('',(#730),#26,.F.);
#795=ADVANCED_FACE('',(#731),#27,.F.);
#796=ADVANCED_FACE('',(#732),#28,.F.);
#797=ADVANCED_FACE('',(#733),#29,.F.);
#798=ADVANCED_FACE('',(#734),#30,.T.);
#799=ADVANCED_FACE('',(#735),#31,.T.);
#800=ADVANCED_FACE('',(#736),#32,.T.);
#801=ADVANCED_FACE('',(#737),#33,.T.);
#802=ADVANCED_FACE('',(#738),#34,.F.);
#803=ADVANCED_FACE('',(#739),#35,.F.);
#804=ADVANCED_FACE('',(#740),#36,.F.);
#805=ADVANCED_FACE('',(#741),#37,.F.);
#806=ADVANCED_FACE('',(#742),#38,.T.);
#807=ADVANCED_FACE('',(#743),#39,.T.);
#808=ADVANCED_FACE('',(#744),#40,.T.);
#809=ADVANCED_FACE('',(#745),#41,.T.);
#810=CLOSED_SHELL('',(#762,#763,#764,#765,#766,#767,#768,#769,#770,#771,
#772,#773,#774,#775,#776,#777,#778,#779,#780,#781,#782,#783,#784,#785,#786,
#787,#788,#789,#790,#791,#792,#793,#794,#795,#796,#797,#798,#799,#800,#801,
#802,#803,#804,#805,#806,#807,#808,#809));
#811=STYLED_ITEM('',(#812),#819);
#812=PRESENTATION_STYLE_ASSIGNMENT((#813));
#813=SURFACE_STYLE_USAGE(.BOTH.,#814);
#814=SURFACE_SIDE_STYLE('',(#815));
#815=SURFACE_STYLE_FILL_AREA(#816);
#816=FILL_AREA_STYLE('',(#817));
#817=FILL_AREA_STYLE_COLOUR('',#818);
#818=COLOUR_RGB('',0.506983280181885,0.531564235687256,0.550000011920929);
#819=MANIFOLD_SOLID_BREP('',#810);
#820=SHAPE_DEFINITION_REPRESENTATION(#1446,#821);
#821=SHAPE_REPRESENTATION('ClGray_4211758_AVV',(#822),#1441);
#822=AXIS2_PLACEMENT_3D('',#1155,#917,#918);
#823=AXIS2_PLACEMENT_3D('',#1156,#919,#920);
#824=AXIS2_PLACEMENT_3D('',#1160,#922,#923);
#825=AXIS2_PLACEMENT_3D('',#1164,#925,#926);
#826=AXIS2_PLACEMENT_3D('',#1165,#927,#928);
#827=AXIS2_PLACEMENT_3D('',#1169,#930,#931);
#828=AXIS2_PLACEMENT_3D('',#1173,#933,#934);
#829=AXIS2_PLACEMENT_3D('',#1174,#935,#936);
#830=AXIS2_PLACEMENT_3D('',#1178,#938,#939);
#831=AXIS2_PLACEMENT_3D('',#1182,#941,#942);
#832=AXIS2_PLACEMENT_3D('',#1183,#943,#944);
#833=AXIS2_PLACEMENT_3D('',#1184,#945,#946);
#834=AXIS2_PLACEMENT_3D('',#1189,#948,#949);
#835=AXIS2_PLACEMENT_3D('',#1192,#951,#952);
#836=AXIS2_PLACEMENT_3D('',#1203,#953,#954);
#837=AXIS2_PLACEMENT_3D('',#1204,#955,#956);
#838=AXIS2_PLACEMENT_3D('',#1215,#957,#958);
#839=AXIS2_PLACEMENT_3D('',#1216,#959,#960);
#840=AXIS2_PLACEMENT_3D('',#1222,#961,#962);
#841=AXIS2_PLACEMENT_3D('',#1228,#963,#964);
#842=AXIS2_PLACEMENT_3D('',#1234,#965,#966);
#843=AXIS2_PLACEMENT_3D('',#1240,#967,#968);
#844=AXIS2_PLACEMENT_3D('',#1245,#971,#972);
#845=AXIS2_PLACEMENT_3D('',#1250,#975,#976);
#846=AXIS2_PLACEMENT_3D('',#1255,#979,#980);
#847=AXIS2_PLACEMENT_3D('',#1260,#983,#984);
#848=AXIS2_PLACEMENT_3D('',#1261,#985,#986);
#849=AXIS2_PLACEMENT_3D('',#1263,#987,#988);
#850=AXIS2_PLACEMENT_3D('',#1267,#990,#991);
#851=AXIS2_PLACEMENT_3D('',#1271,#993,#994);
#852=AXIS2_PLACEMENT_3D('',#1275,#996,#997);
#853=AXIS2_PLACEMENT_3D('',#1279,#999,#1000);
#854=AXIS2_PLACEMENT_3D('',#1283,#1002,#1003);
#855=AXIS2_PLACEMENT_3D('',#1287,#1005,#1006);
#856=AXIS2_PLACEMENT_3D('',#1291,#1008,#1009);
#857=AXIS2_PLACEMENT_3D('',#1295,#1011,#1012);
#858=AXIS2_PLACEMENT_3D('',#1296,#1013,#1014);
#859=AXIS2_PLACEMENT_3D('',#1298,#1015,#1016);
#860=AXIS2_PLACEMENT_3D('',#1304,#1017,#1018);
#861=AXIS2_PLACEMENT_3D('',#1310,#1019,#1020);
#862=AXIS2_PLACEMENT_3D('',#1321,#1021,#1022);
#863=AXIS2_PLACEMENT_3D('',#1322,#1023,#1024);
#864=AXIS2_PLACEMENT_3D('',#1333,#1025,#1026);
#865=AXIS2_PLACEMENT_3D('',#1334,#1027,#1028);
#866=AXIS2_PLACEMENT_3D('',#1340,#1029,#1030);
#867=AXIS2_PLACEMENT_3D('',#1346,#1031,#1032);
#868=AXIS2_PLACEMENT_3D('',#1349,#1034,#1035);
#869=AXIS2_PLACEMENT_3D('',#1352,#1037,#1038);
#870=AXIS2_PLACEMENT_3D('',#1357,#1041,#1042);
#871=AXIS2_PLACEMENT_3D('',#1358,#1043,#1044);
#872=AXIS2_PLACEMENT_3D('',#1363,#1047,#1048);
#873=AXIS2_PLACEMENT_3D('',#1364,#1049,#1050);
#874=AXIS2_PLACEMENT_3D('',#1367,#1052,#1053);
#875=AXIS2_PLACEMENT_3D('',#1370,#1055,#1056);
#876=AXIS2_PLACEMENT_3D('',#1371,#1057,#1058);
#877=AXIS2_PLACEMENT_3D('',#1373,#1059,#1060);
#878=AXIS2_PLACEMENT_3D('',#1375,#1061,#1062);
#879=AXIS2_PLACEMENT_3D('',#1376,#1063,#1064);
#880=AXIS2_PLACEMENT_3D('',#1385,#1073,#1074);
#881=AXIS2_PLACEMENT_3D('',#1387,#1075,#1076);
#882=AXIS2_PLACEMENT_3D('',#1388,#1077,#1078);
#883=AXIS2_PLACEMENT_3D('',#1390,#1079,#1080);
#884=AXIS2_PLACEMENT_3D('',#1391,#1081,#1082);
#885=AXIS2_PLACEMENT_3D('',#1393,#1083,#1084);
#886=AXIS2_PLACEMENT_3D('',#1394,#1085,#1086);
#887=AXIS2_PLACEMENT_3D('',#1396,#1087,#1088);
#888=AXIS2_PLACEMENT_3D('',#1397,#1089,#1090);
#889=AXIS2_PLACEMENT_3D('',#1399,#1091,#1092);
#890=AXIS2_PLACEMENT_3D('',#1400,#1093,#1094);
#891=AXIS2_PLACEMENT_3D('',#1402,#1095,#1096);
#892=AXIS2_PLACEMENT_3D('',#1411,#1105,#1106);
#893=AXIS2_PLACEMENT_3D('',#1412,#1107,#1108);
#894=AXIS2_PLACEMENT_3D('',#1414,#1109,#1110);
#895=AXIS2_PLACEMENT_3D('',#1415,#1111,#1112);
#896=AXIS2_PLACEMENT_3D('',#1417,#1113,#1114);
#897=AXIS2_PLACEMENT_3D('',#1418,#1115,#1116);
#898=AXIS2_PLACEMENT_3D('',#1420,#1117,#1118);
#899=AXIS2_PLACEMENT_3D('',#1421,#1119,#1120);
#900=AXIS2_PLACEMENT_3D('',#1423,#1121,#1122);
#901=AXIS2_PLACEMENT_3D('',#1424,#1123,#1124);
#902=AXIS2_PLACEMENT_3D('',#1425,#1125,#1126);
#903=AXIS2_PLACEMENT_3D('',#1426,#1127,#1128);
#904=AXIS2_PLACEMENT_3D('',#1427,#1129,#1130);
#905=AXIS2_PLACEMENT_3D('',#1428,#1131,#1132);
#906=AXIS2_PLACEMENT_3D('',#1429,#1133,#1134);
#907=AXIS2_PLACEMENT_3D('',#1430,#1135,#1136);
#908=AXIS2_PLACEMENT_3D('',#1431,#1137,#1138);
#909=AXIS2_PLACEMENT_3D('',#1432,#1139,#1140);
#910=AXIS2_PLACEMENT_3D('',#1433,#1141,#1142);
#911=AXIS2_PLACEMENT_3D('',#1434,#1143,#1144);
#912=AXIS2_PLACEMENT_3D('',#1435,#1145,#1146);
#913=AXIS2_PLACEMENT_3D('',#1436,#1147,#1148);
#914=AXIS2_PLACEMENT_3D('',#1437,#1149,#1150);
#915=AXIS2_PLACEMENT_3D('',#1438,#1151,#1152);
#916=AXIS2_PLACEMENT_3D('',#1439,#1153,#1154);
#917=DIRECTION('',(0.,0.,1.));
#918=DIRECTION('',(1.,0.,0.));
#919=DIRECTION('',(0.,0.,1.));
#920=DIRECTION('',(1.,0.,0.));
#921=DIRECTION('',(0.,0.,1.));
#922=DIRECTION('',(0.,0.,1.));
#923=DIRECTION('',(1.,0.,0.));
#924=DIRECTION('',(0.,0.,1.));
#925=DIRECTION('',(0.,0.,1.));
#926=DIRECTION('',(1.,0.,0.));
#927=DIRECTION('',(0.,0.,1.));
#928=DIRECTION('',(1.,0.,0.));
#929=DIRECTION('',(0.,0.,1.));
#930=DIRECTION('',(0.,0.,1.));
#931=DIRECTION('',(1.,0.,0.));
#932=DIRECTION('',(0.,0.,1.));
#933=DIRECTION('',(0.,0.,1.));
#934=DIRECTION('',(1.,0.,0.));
#935=DIRECTION('',(0.,0.,1.));
#936=DIRECTION('',(1.,0.,0.));
#937=DIRECTION('',(0.,0.,1.));
#938=DIRECTION('',(0.,0.,1.));
#939=DIRECTION('',(1.,0.,0.));
#940=DIRECTION('',(0.,0.,1.));
#941=DIRECTION('',(0.,0.,1.));
#942=DIRECTION('',(1.,0.,0.));
#943=DIRECTION('',(0.,0.,1.));
#944=DIRECTION('',(1.,0.,0.));
#945=DIRECTION('',(0.,0.,1.));
#946=DIRECTION('',(1.,0.,0.));
#947=DIRECTION('',(0.,0.,1.));
#948=DIRECTION('',(0.,0.,1.));
#949=DIRECTION('',(1.,0.,0.));
#950=DIRECTION('',(0.,0.,1.));
#951=DIRECTION('',(0.,0.,-1.));
#952=DIRECTION('',(-1.,0.,0.));
#953=DIRECTION('',(0.,0.,1.));
#954=DIRECTION('',(1.,0.,0.));
#955=DIRECTION('',(0.,0.,-1.));
#956=DIRECTION('',(-1.,0.,0.));
#957=DIRECTION('',(0.,0.,1.));
#958=DIRECTION('',(1.,0.,0.));
#959=DIRECTION('',(0.,0.,-1.));
#960=DIRECTION('',(-1.,0.,0.));
#961=DIRECTION('',(0.,0.,1.));
#962=DIRECTION('',(1.,0.,0.));
#963=DIRECTION('',(0.,0.,-1.));
#964=DIRECTION('',(-1.,0.,0.));
#965=DIRECTION('',(0.,0.,1.));
#966=DIRECTION('',(1.,0.,0.));
#967=DIRECTION('',(0.,0.,1.));
#968=DIRECTION('',(1.,0.,0.));
#969=DIRECTION('',(0.,0.,-1.));
#970=DIRECTION('',(0.,0.,-1.));
#971=DIRECTION('',(0.,0.,-1.));
#972=DIRECTION('',(-1.,0.,0.));
#973=DIRECTION('',(0.,0.,-1.));
#974=DIRECTION('',(0.,0.,-1.));
#975=DIRECTION('',(0.,0.,1.));
#976=DIRECTION('',(1.,0.,0.));
#977=DIRECTION('',(0.,0.,-1.));
#978=DIRECTION('',(0.,0.,-1.));
#979=DIRECTION('',(0.,0.,1.));
#980=DIRECTION('',(1.,0.,0.));
#981=DIRECTION('',(0.,0.,-1.));
#982=DIRECTION('',(0.,0.,-1.));
#983=DIRECTION('',(0.,0.,-1.));
#984=DIRECTION('',(-1.,0.,0.));
#985=DIRECTION('',(0.,0.,1.));
#986=DIRECTION('',(1.,0.,0.));
#987=DIRECTION('',(0.,0.,1.));
#988=DIRECTION('',(1.,0.,0.));
#989=DIRECTION('',(0.,0.,1.));
#990=DIRECTION('',(0.,0.,1.));
#991=DIRECTION('',(1.,0.,0.));
#992=DIRECTION('',(0.,0.,1.));
#993=DIRECTION('',(0.,0.,-1.));
#994=DIRECTION('',(-1.,0.,0.));
#995=DIRECTION('',(0.,0.,1.));
#996=DIRECTION('',(0.,0.,1.));
#997=DIRECTION('',(1.,0.,0.));
#998=DIRECTION('',(0.,0.,1.));
#999=DIRECTION('',(0.,0.,-1.));
#1000=DIRECTION('',(-1.,0.,0.));
#1001=DIRECTION('',(0.,0.,1.));
#1002=DIRECTION('',(0.,0.,1.));
#1003=DIRECTION('',(1.,0.,0.));
#1004=DIRECTION('',(0.,0.,1.));
#1005=DIRECTION('',(0.,0.,1.));
#1006=DIRECTION('',(1.,0.,0.));
#1007=DIRECTION('',(0.,0.,1.));
#1008=DIRECTION('',(0.,0.,1.));
#1009=DIRECTION('',(1.,0.,0.));
#1010=DIRECTION('',(0.,0.,1.));
#1011=DIRECTION('',(0.,0.,1.));
#1012=DIRECTION('',(1.,0.,0.));
#1013=DIRECTION('',(0.,0.,1.));
#1014=DIRECTION('',(1.,0.,0.));
#1015=DIRECTION('',(0.,0.,1.));
#1016=DIRECTION('',(1.,0.,0.));
#1017=DIRECTION('',(0.,0.,1.));
#1018=DIRECTION('',(1.,0.,0.));
#1019=DIRECTION('',(0.,0.,1.));
#1020=DIRECTION('',(1.,0.,0.));
#1021=DIRECTION('',(0.,0.,1.));
#1022=DIRECTION('',(1.,0.,0.));
#1023=DIRECTION('',(0.,0.,1.));
#1024=DIRECTION('',(1.,0.,0.));
#1025=DIRECTION('',(0.,0.,1.));
#1026=DIRECTION('',(1.,0.,0.));
#1027=DIRECTION('',(0.,0.,1.));
#1028=DIRECTION('',(1.,0.,0.));
#1029=DIRECTION('',(0.,0.,1.));
#1030=DIRECTION('',(1.,0.,0.));
#1031=DIRECTION('',(0.,0.,1.));
#1032=DIRECTION('',(1.,0.,0.));
#1033=DIRECTION('',(0.,0.,1.));
#1034=DIRECTION('',(0.,0.,1.));
#1035=DIRECTION('',(1.,0.,0.));
#1036=DIRECTION('',(0.,0.,1.));
#1037=DIRECTION('',(0.,0.,1.));
#1038=DIRECTION('',(1.,0.,0.));
#1039=DIRECTION('',(0.,0.,1.));
#1040=DIRECTION('',(0.,0.,1.));
#1041=DIRECTION('',(0.,0.,1.));
#1042=DIRECTION('',(1.,0.,0.));
#1043=DIRECTION('',(0.,0.,1.));
#1044=DIRECTION('',(1.,0.,0.));
#1045=DIRECTION('',(0.,0.,1.));
#1046=DIRECTION('',(0.,0.,1.));
#1047=DIRECTION('',(0.,0.,1.));
#1048=DIRECTION('',(1.,0.,0.));
#1049=DIRECTION('',(0.,0.,1.));
#1050=DIRECTION('',(1.,0.,0.));
#1051=DIRECTION('',(0.,0.,1.));
#1052=DIRECTION('',(0.,0.,1.));
#1053=DIRECTION('',(1.,0.,0.));
#1054=DIRECTION('',(0.,0.,1.));
#1055=DIRECTION('',(0.,0.,1.));
#1056=DIRECTION('',(1.,0.,0.));
#1057=DIRECTION('',(0.,0.,1.));
#1058=DIRECTION('',(1.,0.,0.));
#1059=DIRECTION('',(0.,0.,1.));
#1060=DIRECTION('',(1.,0.,0.));
#1061=DIRECTION('',(0.,0.,1.));
#1062=DIRECTION('',(1.,0.,0.));
#1063=DIRECTION('',(0.,0.,1.));
#1064=DIRECTION('',(1.,0.,0.));
#1065=DIRECTION('',(-1.,0.,0.));
#1066=DIRECTION('',(1.,0.,0.));
#1067=DIRECTION('',(8.67117467432097E-17,-1.,0.));
#1068=DIRECTION('',(8.67117467432097E-17,1.,0.));
#1069=DIRECTION('',(-1.,0.,0.));
#1070=DIRECTION('',(1.,1.73423493486419E-16,0.));
#1071=DIRECTION('',(1.73423493486416E-16,-1.,0.));
#1072=DIRECTION('',(8.67117467432081E-17,1.,0.));
#1073=DIRECTION('',(0.,0.,1.));
#1074=DIRECTION('',(1.,0.,0.));
#1075=DIRECTION('',(0.,0.,1.));
#1076=DIRECTION('',(1.,0.,0.));
#1077=DIRECTION('',(0.,0.,1.));
#1078=DIRECTION('',(1.,0.,0.));
#1079=DIRECTION('',(0.,0.,1.));
#1080=DIRECTION('',(1.,0.,0.));
#1081=DIRECTION('',(0.,0.,1.));
#1082=DIRECTION('',(1.,0.,0.));
#1083=DIRECTION('',(0.,0.,1.));
#1084=DIRECTION('',(1.,0.,0.));
#1085=DIRECTION('',(0.,0.,1.));
#1086=DIRECTION('',(1.,0.,0.));
#1087=DIRECTION('',(0.,0.,-1.));
#1088=DIRECTION('',(-1.,0.,0.));
#1089=DIRECTION('',(0.,0.,1.));
#1090=DIRECTION('',(1.,0.,0.));
#1091=DIRECTION('',(0.,0.,1.));
#1092=DIRECTION('',(1.,0.,0.));
#1093=DIRECTION('',(0.,0.,1.));
#1094=DIRECTION('',(1.,0.,0.));
#1095=DIRECTION('',(0.,0.,-1.));
#1096=DIRECTION('',(-1.,0.,0.));
#1097=DIRECTION('',(1.,0.,0.));
#1098=DIRECTION('',(-8.67117467432081E-17,-1.,0.));
#1099=DIRECTION('',(-1.73423493486416E-16,1.,0.));
#1100=DIRECTION('',(-1.,-1.73423493486419E-16,0.));
#1101=DIRECTION('',(1.,0.,0.));
#1102=DIRECTION('',(-8.67117467432097E-17,-1.,0.));
#1103=DIRECTION('',(-8.67117467432097E-17,1.,0.));
#1104=DIRECTION('',(-1.,0.,0.));
#1105=DIRECTION('',(0.,0.,-1.));
#1106=DIRECTION('',(-1.,0.,0.));
#1107=DIRECTION('',(0.,0.,1.));
#1108=DIRECTION('',(1.,0.,0.));
#1109=DIRECTION('',(0.,0.,1.));
#1110=DIRECTION('',(1.,0.,0.));
#1111=DIRECTION('',(0.,0.,1.));
#1112=DIRECTION('',(1.,0.,0.));
#1113=DIRECTION('',(0.,0.,-1.));
#1114=DIRECTION('',(-1.,0.,0.));
#1115=DIRECTION('',(0.,0.,1.));
#1116=DIRECTION('',(1.,0.,0.));
#1117=DIRECTION('',(0.,0.,1.));
#1118=DIRECTION('',(1.,0.,0.));
#1119=DIRECTION('',(0.,0.,1.));
#1120=DIRECTION('',(1.,0.,0.));
#1121=DIRECTION('',(0.,0.,1.));
#1122=DIRECTION('',(1.,0.,0.));
#1123=DIRECTION('',(1.,-8.67117467432097E-17,0.));
#1124=DIRECTION('',(8.67117467432097E-17,1.,0.));
#1125=DIRECTION('',(-1.,-8.67117467432097E-17,0.));
#1126=DIRECTION('',(8.67117467432097E-17,-1.,0.));
#1127=DIRECTION('',(1.73423493486419E-16,-1.,0.));
#1128=DIRECTION('',(1.,1.73423493486419E-16,0.));
#1129=DIRECTION('',(0.,1.,0.));
#1130=DIRECTION('',(0.,0.,1.));
#1131=DIRECTION('',(0.,1.,0.));
#1132=DIRECTION('',(0.,0.,1.));
#1133=DIRECTION('',(0.,-1.,0.));
#1134=DIRECTION('',(0.,0.,-1.));
#1135=DIRECTION('',(-1.,-1.73423493486416E-16,0.));
#1136=DIRECTION('',(1.73423493486416E-16,-1.,0.));
#1137=DIRECTION('',(1.,-8.67117467432081E-17,0.));
#1138=DIRECTION('',(8.67117467432081E-17,1.,0.));
#1139=DIRECTION('',(-1.,-8.67117467432097E-17,0.));
#1140=DIRECTION('',(8.67117467432097E-17,-1.,0.));
#1141=DIRECTION('',(1.,-8.67117467432097E-17,0.));
#1142=DIRECTION('',(8.67117467432097E-17,1.,0.));
#1143=DIRECTION('',(1.73423493486419E-16,-1.,0.));
#1144=DIRECTION('',(1.,1.73423493486419E-16,0.));
#1145=DIRECTION('',(0.,1.,0.));
#1146=DIRECTION('',(0.,0.,1.));
#1147=DIRECTION('',(0.,-1.,0.));
#1148=DIRECTION('',(0.,0.,-1.));
#1149=DIRECTION('',(0.,1.,0.));
#1150=DIRECTION('',(0.,0.,1.));
#1151=DIRECTION('',(1.,-8.67117467432081E-17,0.));
#1152=DIRECTION('',(8.67117467432081E-17,1.,0.));
#1153=DIRECTION('',(-1.,-1.73423493486416E-16,0.));
#1154=DIRECTION('',(1.73423493486416E-16,-1.,0.));
#1155=CARTESIAN_POINT('',(0.,0.,0.));
#1156=CARTESIAN_POINT('',(0.,0.,54.));
#1157=CARTESIAN_POINT('',(0.599999999999997,4.76235235991626,54.));
#1158=CARTESIAN_POINT('',(0.599999999999997,4.76235235991626,0.800000000000002));
#1159=CARTESIAN_POINT('',(0.599999999999997,4.76235235991626,1.2));
#1160=CARTESIAN_POINT('',(0.,0.,0.800000000000002));
#1161=CARTESIAN_POINT('',(4.76235235991626,0.6,0.800000000000002));
#1162=CARTESIAN_POINT('',(4.76235235991626,0.6,54.));
#1163=CARTESIAN_POINT('',(4.76235235991626,0.6,1.2));
#1164=CARTESIAN_POINT('',(0.,0.,1.2));
#1165=CARTESIAN_POINT('',(0.,0.,54.));
#1166=CARTESIAN_POINT('',(4.76235235991626,-0.600000000000001,54.));
#1167=CARTESIAN_POINT('',(4.76235235991626,-0.600000000000001,0.800000000000002));
#1168=CARTESIAN_POINT('',(4.76235235991626,-0.600000000000001,1.2));
#1169=CARTESIAN_POINT('',(0.,0.,0.800000000000002));
#1170=CARTESIAN_POINT('',(0.599999999999999,-4.76235235991626,0.800000000000001));
#1171=CARTESIAN_POINT('',(0.599999999999999,-4.76235235991626,54.));
#1172=CARTESIAN_POINT('',(0.599999999999999,-4.76235235991626,1.2));
#1173=CARTESIAN_POINT('',(0.,0.,1.2));
#1174=CARTESIAN_POINT('',(0.,0.,54.));
#1175=CARTESIAN_POINT('',(-0.6,4.76235235991626,54.));
#1176=CARTESIAN_POINT('',(-0.6,4.76235235991626,1.2));
#1177=CARTESIAN_POINT('',(-0.6,4.76235235991626,0.800000000000002));
#1178=CARTESIAN_POINT('',(0.,0.,1.2));
#1179=CARTESIAN_POINT('',(-4.76235235991626,0.6,1.2));
#1180=CARTESIAN_POINT('',(-4.76235235991626,0.6,54.));
#1181=CARTESIAN_POINT('',(-4.76235235991626,0.6,0.800000000000001));
#1182=CARTESIAN_POINT('',(0.,0.,0.800000000000002));
#1183=CARTESIAN_POINT('',(0.,0.,54.));
#1184=CARTESIAN_POINT('',(0.,0.,0.800000000000002));
#1185=CARTESIAN_POINT('',(-4.76235235991626,-0.600000000000002,0.800000000000001));
#1186=CARTESIAN_POINT('',(-0.599999999999997,-4.76235235991626,0.800000000000001));
#1187=CARTESIAN_POINT('',(-4.76235235991626,-0.600000000000002,54.));
#1188=CARTESIAN_POINT('',(-4.76235235991626,-0.600000000000002,1.2));
#1189=CARTESIAN_POINT('',(0.,0.,1.2));
#1190=CARTESIAN_POINT('',(-0.599999999999997,-4.76235235991626,1.2));
#1191=CARTESIAN_POINT('',(-0.599999999999997,-4.76235235991626,54.));
#1192=CARTESIAN_POINT('',(0.,0.,1.2));
#1193=CARTESIAN_POINT('',(0.599999999999997,4.76235235991626,1.2));
#1194=CARTESIAN_POINT('',(0.599999999999997,4.35832848537482,1.40042750545677));
#1195=CARTESIAN_POINT('',(0.599999999999996,3.95416431676824,1.60057070220946));
#1196=CARTESIAN_POINT('',(0.599999999999996,3.54964786985977,1.80000000000001));
#1197=CARTESIAN_POINT('',(0.600000000000035,3.54964786985977,1.8));
#1198=CARTESIAN_POINT('',(3.54964786985978,0.6,1.8));
#1199=CARTESIAN_POINT('',(3.95416330012523,0.6,1.60057120342123));
#1200=CARTESIAN_POINT('',(4.35832863138981,0.6,1.40042743302189));
#1201=CARTESIAN_POINT('',(4.76235235991626,0.6,1.2));
#1202=CARTESIAN_POINT('',(3.54964786985978,0.6,1.8));
#1203=CARTESIAN_POINT('',(0.,0.,1.8));
#1204=CARTESIAN_POINT('',(0.,0.,1.2));
#1205=CARTESIAN_POINT('',(4.76235235991626,-0.600000000000001,1.2));
#1206=CARTESIAN_POINT('',(4.35832848537482,-0.600000000000001,1.40042750545677));
#1207=CARTESIAN_POINT('',(3.95416431676824,-0.600000000000001,1.60057070220946));
#1208=CARTESIAN_POINT('',(3.54964786985977,-0.600000000000001,1.8));
#1209=CARTESIAN_POINT('',(3.54964786985977,-0.600000000000039,1.8));
#1210=CARTESIAN_POINT('',(0.599999999999999,-4.76235235991626,1.2));
#1211=CARTESIAN_POINT('',(0.599999999999999,-4.35832848537482,1.40042750545677));
#1212=CARTESIAN_POINT('',(0.599999999999999,-3.95416431676824,1.60057070220946));
#1213=CARTESIAN_POINT('',(0.599999999999999,-3.54964786985977,1.80000000000001));
#1214=CARTESIAN_POINT('',(0.599999999999999,-3.54964786985977,1.8));
#1215=CARTESIAN_POINT('',(0.,0.,1.8));
#1216=CARTESIAN_POINT('',(0.,0.,1.2));
#1217=CARTESIAN_POINT('',(-0.6,3.54964786985977,1.80000000000001));
#1218=CARTESIAN_POINT('',(-0.6,3.95416330012523,1.60057120342123));
#1219=CARTESIAN_POINT('',(-0.6,4.35832863138981,1.40042743302189));
#1220=CARTESIAN_POINT('',(-0.6,4.76235235991626,1.2));
#1221=CARTESIAN_POINT('',(-0.6,3.54964786985977,1.8));
#1222=CARTESIAN_POINT('',(0.,0.,1.8));
#1223=CARTESIAN_POINT('',(-3.54964786985977,0.6,1.8));
#1224=CARTESIAN_POINT('',(-3.54964786985977,0.6,1.8));
#1225=CARTESIAN_POINT('',(-3.95416330012523,0.6,1.60057120342123));
#1226=CARTESIAN_POINT('',(-4.35832863138981,0.6,1.40042743302189));
#1227=CARTESIAN_POINT('',(-4.76235235991626,0.6,1.2));
#1228=CARTESIAN_POINT('',(0.,0.,1.2));
#1229=CARTESIAN_POINT('',(-4.76235235991626,-0.600000000000002,1.2));
#1230=CARTESIAN_POINT('',(-4.35832848537481,-0.600000000000002,1.40042750545677));
#1231=CARTESIAN_POINT('',(-3.95416431676824,-0.600000000000002,1.60057070220946));
#1232=CARTESIAN_POINT('',(-3.54964786985977,-0.600000000000002,1.80000000000001));
#1233=CARTESIAN_POINT('',(-3.54964786985977,-0.600000000000002,1.8));
#1234=CARTESIAN_POINT('',(0.,0.,1.8));
#1235=CARTESIAN_POINT('',(-0.599999999999997,-3.54964786985978,1.8));
#1236=CARTESIAN_POINT('',(-0.599999999999997,-3.54964786985978,1.8));
#1237=CARTESIAN_POINT('',(-0.599999999999997,-3.95416330012523,1.60057120342123));
#1238=CARTESIAN_POINT('',(-0.599999999999997,-4.35832863138981,1.40042743302189));
#1239=CARTESIAN_POINT('',(-0.599999999999997,-4.76235235991626,1.2));
#1240=CARTESIAN_POINT('',(0.,0.,54.));
#1241=CARTESIAN_POINT('',(0.599999999999996,3.54964786985977,1.8));
#1242=CARTESIAN_POINT('',(0.600000000000035,3.54964786985977,0.800000000000002));
#1243=CARTESIAN_POINT('',(3.54964786985977,0.6,1.8));
#1244=CARTESIAN_POINT('',(3.54964786985977,0.6,0.800000000000001));
#1245=CARTESIAN_POINT('',(0.,0.,0.800000000000002));
#1246=CARTESIAN_POINT('',(3.54964786985977,-0.600000000000039,0.800000000000002));
#1247=CARTESIAN_POINT('',(3.54964786985977,-0.600000000000001,1.8));
#1248=CARTESIAN_POINT('',(0.599999999999999,-3.54964786985977,1.8));
#1249=CARTESIAN_POINT('',(0.599999999999999,-3.54964786985977,0.800000000000001));
#1250=CARTESIAN_POINT('',(0.,0.,0.800000000000002));
#1251=CARTESIAN_POINT('',(-0.599999999999997,-3.54964786985977,0.800000000000001));
#1252=CARTESIAN_POINT('',(-0.599999999999997,-3.54964786985977,1.8));
#1253=CARTESIAN_POINT('',(-3.54964786985977,-0.600000000000002,1.8));
#1254=CARTESIAN_POINT('',(-3.54964786985978,-0.600000000000002,0.800000000000002));
#1255=CARTESIAN_POINT('',(0.,0.,0.800000000000002));
#1256=CARTESIAN_POINT('',(-3.54964786985977,0.6,0.800000000000001));
#1257=CARTESIAN_POINT('',(-3.54964786985977,0.6,1.8));
#1258=CARTESIAN_POINT('',(-0.6,3.54964786985977,1.8));
#1259=CARTESIAN_POINT('',(-0.6,3.54964786985978,0.800000000000002));
#1260=CARTESIAN_POINT('',(0.,0.,0.800000000000002));
#1261=CARTESIAN_POINT('',(0.,0.,0.));
#1262=CARTESIAN_POINT('',(3.60000000000001,0.,0.));
#1263=CARTESIAN_POINT('',(0.,0.,54.));
#1264=CARTESIAN_POINT('',(-0.6,3.54964786985977,6.2));
#1265=CARTESIAN_POINT('',(-0.600000000000004,3.54964786985977,6.2));
#1266=CARTESIAN_POINT('',(-0.600000000000001,3.54964786985977,7.2));
#1267=CARTESIAN_POINT('',(0.,0.,6.2));
#1268=CARTESIAN_POINT('',(-3.54964786985977,0.6,6.2));
#1269=CARTESIAN_POINT('',(-3.54964786985977,0.6,6.2));
#1270=CARTESIAN_POINT('',(-3.54964786985977,0.6,7.2));
#1271=CARTESIAN_POINT('',(0.,0.,7.2));
#1272=CARTESIAN_POINT('',(-3.54964786985977,-0.600000000000002,7.2));
#1273=CARTESIAN_POINT('',(-3.54964786985977,-0.600000000000002,6.2));
#1274=CARTESIAN_POINT('',(-3.54964786985977,-0.600000000000002,6.2));
#1275=CARTESIAN_POINT('',(0.,0.,6.2));
#1276=CARTESIAN_POINT('',(-0.599999999999997,-3.54964786985977,6.2));
#1277=CARTESIAN_POINT('',(-0.599999999999997,-3.54964786985977,6.2));
#1278=CARTESIAN_POINT('',(-0.599999999999997,-3.54964786985977,7.2));
#1279=CARTESIAN_POINT('',(0.,0.,7.2));
#1280=CARTESIAN_POINT('',(0.599999999999999,-3.54964786985977,7.2));
#1281=CARTESIAN_POINT('',(0.599999999999999,-3.54964786985977,6.2));
#1282=CARTESIAN_POINT('',(0.599999999999999,-3.54964786985977,6.2));
#1283=CARTESIAN_POINT('',(0.,0.,6.2));
#1284=CARTESIAN_POINT('',(3.54964786985977,-0.600000000000001,6.2));
#1285=CARTESIAN_POINT('',(3.54964786985977,-0.600000000000001,6.2));
#1286=CARTESIAN_POINT('',(3.54964786985977,-0.600000000000003,7.2));
#1287=CARTESIAN_POINT('',(0.,0.,7.2));
#1288=CARTESIAN_POINT('',(3.54964786985977,0.6,7.2));
#1289=CARTESIAN_POINT('',(3.54964786985977,0.6,6.2));
#1290=CARTESIAN_POINT('',(3.54964786985977,0.600000000000003,6.2));
#1291=CARTESIAN_POINT('',(0.,0.,6.2));
#1292=CARTESIAN_POINT('',(0.599999999999996,3.54964786985977,6.2));
#1293=CARTESIAN_POINT('',(0.599999999999996,3.54964786985977,6.2));
#1294=CARTESIAN_POINT('',(0.599999999999996,3.54964786985977,7.2));
#1295=CARTESIAN_POINT('',(0.,0.,7.2));
#1296=CARTESIAN_POINT('',(0.,0.,8.));
#1297=CARTESIAN_POINT('',(3.6,0.,8.));
#1298=CARTESIAN_POINT('',(0.,0.,6.2));
#1299=CARTESIAN_POINT('',(-0.6,4.76235235991626,6.8));
#1300=CARTESIAN_POINT('',(-0.6,4.35832848537481,6.59957249454323));
#1301=CARTESIAN_POINT('',(-0.6,3.95416431676824,6.39942929779054));
#1302=CARTESIAN_POINT('',(-0.6,3.54964786985977,6.2));
#1303=CARTESIAN_POINT('',(-0.6,4.76235235991626,6.8));
#1304=CARTESIAN_POINT('',(0.,0.,6.8));
#1305=CARTESIAN_POINT('',(-4.76235235991626,0.6,6.8));
#1306=CARTESIAN_POINT('',(-4.76235235991626,0.6,6.8));
#1307=CARTESIAN_POINT('',(-4.35832848537482,0.6,6.59957249454323));
#1308=CARTESIAN_POINT('',(-3.95416431676824,0.6,6.39942929779054));
#1309=CARTESIAN_POINT('',(-3.54964786985977,0.6,6.2));
#1310=CARTESIAN_POINT('',(0.,0.,6.2));
#1311=CARTESIAN_POINT('',(0.599999999999996,3.54964786985977,6.2));
#1312=CARTESIAN_POINT('',(0.599999999999996,3.95416330012523,6.39942879657877));
#1313=CARTESIAN_POINT('',(0.599999999999997,4.35832863138981,6.59957256697811));
#1314=CARTESIAN_POINT('',(0.599999999999997,4.76235235991626,6.8));
#1315=CARTESIAN_POINT('',(0.599999999999997,4.76235235991626,6.8));
#1316=CARTESIAN_POINT('',(4.76235235991626,0.6,6.8));
#1317=CARTESIAN_POINT('',(4.35832848537482,0.6,6.59957249454323));
#1318=CARTESIAN_POINT('',(3.95416431676824,0.6,6.39942929779054));
#1319=CARTESIAN_POINT('',(3.54964786985977,0.6,6.2));
#1320=CARTESIAN_POINT('',(4.76235235991626,0.6,6.8));
#1321=CARTESIAN_POINT('',(0.,0.,6.8));
#1322=CARTESIAN_POINT('',(0.,0.,6.2));
#1323=CARTESIAN_POINT('',(3.54964786985977,-0.600000000000001,6.2));
#1324=CARTESIAN_POINT('',(3.95416330012523,-0.600000000000001,6.39942879657877));
#1325=CARTESIAN_POINT('',(4.35832863138981,-0.600000000000001,6.59957256697811));
#1326=CARTESIAN_POINT('',(4.76235235991626,-0.600000000000001,6.8));
#1327=CARTESIAN_POINT('',(4.76235235991626,-0.600000000000001,6.8));
#1328=CARTESIAN_POINT('',(0.599999999999999,-3.54964786985977,6.2));
#1329=CARTESIAN_POINT('',(0.599999999999999,-3.95416330012523,6.39942879657877));
#1330=CARTESIAN_POINT('',(0.599999999999999,-4.35832863138981,6.59957256697811));
#1331=CARTESIAN_POINT('',(0.599999999999999,-4.76235235991626,6.8));
#1332=CARTESIAN_POINT('',(0.599999999999999,-4.76235235991626,6.8));
#1333=CARTESIAN_POINT('',(0.,0.,6.8));
#1334=CARTESIAN_POINT('',(0.,0.,6.2));
#1335=CARTESIAN_POINT('',(-3.54964786985977,-0.600000000000002,6.2));
#1336=CARTESIAN_POINT('',(-3.95416330012523,-0.600000000000002,6.39942879657877));
#1337=CARTESIAN_POINT('',(-4.35832863138981,-0.600000000000002,6.59957256697811));
#1338=CARTESIAN_POINT('',(-4.76235235991626,-0.600000000000002,6.8));
#1339=CARTESIAN_POINT('',(-4.76235235991626,-0.600000000000002,6.8));
#1340=CARTESIAN_POINT('',(0.,0.,6.8));
#1341=CARTESIAN_POINT('',(-0.599999999999997,-4.76235235991626,6.8));
#1342=CARTESIAN_POINT('',(-0.599999999999997,-4.76235235991626,6.8));
#1343=CARTESIAN_POINT('',(-0.599999999999997,-4.35832848537482,6.59957249454323));
#1344=CARTESIAN_POINT('',(-0.599999999999997,-3.95416431676824,6.39942929779054));
#1345=CARTESIAN_POINT('',(-0.599999999999997,-3.54964786985977,6.2));
#1346=CARTESIAN_POINT('',(0.,0.,54.));
#1347=CARTESIAN_POINT('',(-0.6,4.76235235991626,54.));
#1348=CARTESIAN_POINT('',(-0.6,4.76235235991626,7.2));
#1349=CARTESIAN_POINT('',(0.,0.,7.2));
#1350=CARTESIAN_POINT('',(-4.76235235991626,0.6,7.2));
#1351=CARTESIAN_POINT('',(-4.76235235991626,0.6,54.));
#1352=CARTESIAN_POINT('',(0.,0.,54.));
#1353=CARTESIAN_POINT('',(0.599999999999997,4.76235235991626,54.));
#1354=CARTESIAN_POINT('',(0.599999999999997,4.76235235991626,7.2));
#1355=CARTESIAN_POINT('',(4.76235235991626,0.6,54.));
#1356=CARTESIAN_POINT('',(4.76235235991626,0.6,7.2));
#1357=CARTESIAN_POINT('',(0.,0.,7.2));
#1358=CARTESIAN_POINT('',(0.,0.,54.));
#1359=CARTESIAN_POINT('',(4.76235235991626,-0.600000000000001,54.));
#1360=CARTESIAN_POINT('',(4.76235235991626,-0.600000000000001,7.2));
#1361=CARTESIAN_POINT('',(0.599999999999999,-4.76235235991626,54.));
#1362=CARTESIAN_POINT('',(0.599999999999999,-4.76235235991626,7.2));
#1363=CARTESIAN_POINT('',(0.,0.,7.2));
#1364=CARTESIAN_POINT('',(0.,0.,54.));
#1365=CARTESIAN_POINT('',(-4.76235235991626,-0.600000000000002,54.));
#1366=CARTESIAN_POINT('',(-4.76235235991626,-0.600000000000002,7.2));
#1367=CARTESIAN_POINT('',(0.,0.,7.2));
#1368=CARTESIAN_POINT('',(-0.599999999999997,-4.76235235991626,7.2));
#1369=CARTESIAN_POINT('',(-0.599999999999997,-4.76235235991626,54.));
#1370=CARTESIAN_POINT('',(0.,0.,54.));
#1371=CARTESIAN_POINT('',(0.,0.,8.));
#1372=CARTESIAN_POINT('',(3.1,0.,8.));
#1373=CARTESIAN_POINT('',(0.,0.,7.2));
#1374=CARTESIAN_POINT('',(3.1,0.,7.2));
#1375=CARTESIAN_POINT('',(3.1,0.,8.));
#1376=CARTESIAN_POINT('',(4.8,0.,7.2));
#1377=CARTESIAN_POINT('',(4.80000000000002,0.6,7.2));
#1378=CARTESIAN_POINT('',(3.54964786985977,-0.600000000000001,7.2));
#1379=CARTESIAN_POINT('',(0.599999999999999,-3.54964786985977,7.2));
#1380=CARTESIAN_POINT('',(-0.599999999999997,-4.79999999999998,7.2));
#1381=CARTESIAN_POINT('',(-4.79999999999998,-0.600000000000002,7.2));
#1382=CARTESIAN_POINT('',(-3.54964786985977,0.6,7.2));
#1383=CARTESIAN_POINT('',(-0.6,4.8,7.2));
#1384=CARTESIAN_POINT('',(0.599999999999996,3.54964786985977,7.2));
#1385=CARTESIAN_POINT('',(0.,0.,7.2));
#1386=CARTESIAN_POINT('',(5.6,0.,7.2));
#1387=CARTESIAN_POINT('',(0.,0.,54.));
#1388=CARTESIAN_POINT('',(0.,0.,5.2));
#1389=CARTESIAN_POINT('',(5.6,0.,5.2));
#1390=CARTESIAN_POINT('',(0.,0.,5.2));
#1391=CARTESIAN_POINT('',(0.,0.,4.4));
#1392=CARTESIAN_POINT('',(4.,0.,4.4));
#1393=CARTESIAN_POINT('',(0.,0.,54.));
#1394=CARTESIAN_POINT('',(0.,0.,3.6));
#1395=CARTESIAN_POINT('',(4.,0.,3.6));
#1396=CARTESIAN_POINT('',(0.,0.,3.6));
#1397=CARTESIAN_POINT('',(0.,0.,2.8));
#1398=CARTESIAN_POINT('',(5.6,0.,2.8));
#1399=CARTESIAN_POINT('',(0.,0.,54.));
#1400=CARTESIAN_POINT('',(0.,0.,0.800000000000002));
#1401=CARTESIAN_POINT('',(5.6,0.,0.800000000000002));
#1402=CARTESIAN_POINT('',(5.6,0.,0.799999999999999));
#1403=CARTESIAN_POINT('',(3.54964786985977,0.6,0.800000000000001));
#1404=CARTESIAN_POINT('',(0.599999999999997,4.8,0.800000000000001));
#1405=CARTESIAN_POINT('',(-0.6,3.54964786985977,0.800000000000001));
#1406=CARTESIAN_POINT('',(-3.54964786985977,0.6,0.800000000000001));
#1407=CARTESIAN_POINT('',(-4.79999999999998,-0.600000000000002,0.800000000000001));
#1408=CARTESIAN_POINT('',(-0.599999999999997,-3.54964786985977,0.800000000000001));
#1409=CARTESIAN_POINT('',(0.599999999999999,-4.79999999999998,0.800000000000001));
#1410=CARTESIAN_POINT('',(4.80000000000002,-0.600000000000001,0.800000000000001));
#1411=CARTESIAN_POINT('',(3.60000000000001,0.,0.));
#1412=CARTESIAN_POINT('',(0.,0.,0.));
#1413=CARTESIAN_POINT('',(3.1,0.,0.));
#1414=CARTESIAN_POINT('',(0.,0.,54.));
#1415=CARTESIAN_POINT('',(0.,0.,0.800000000000002));
#1416=CARTESIAN_POINT('',(3.1,0.,0.800000000000002));
#1417=CARTESIAN_POINT('',(2.4,0.,0.799999999999999));
#1418=CARTESIAN_POINT('',(0.,0.,0.800000000000002));
#1419=CARTESIAN_POINT('',(2.4,0.,0.800000000000002));
#1420=CARTESIAN_POINT('',(0.,0.,54.));
#1421=CARTESIAN_POINT('',(0.,0.,7.2));
#1422=CARTESIAN_POINT('',(2.4,0.,7.2));
#1423=CARTESIAN_POINT('',(2.4,0.,7.2));
#1424=CARTESIAN_POINT('',(-0.599999999999997,-4.79999999999998,6.2));
#1425=CARTESIAN_POINT('',(0.599999999999999,-3.54964786985977,6.2));
#1426=CARTESIAN_POINT('',(-3.54964786985977,0.6,6.2));
#1427=CARTESIAN_POINT('',(-4.79999999999998,-0.600000000000002,6.2));
#1428=CARTESIAN_POINT('',(4.80000000000002,0.6,6.2));
#1429=CARTESIAN_POINT('',(3.54964786985977,-0.600000000000001,6.2));
#1430=CARTESIAN_POINT('',(-0.6,4.8,6.2));
#1431=CARTESIAN_POINT('',(0.599999999999996,3.54964786985977,6.2));
#1432=CARTESIAN_POINT('',(0.599999999999999,-4.79999999999998,1.8));
#1433=CARTESIAN_POINT('',(-0.599999999999997,-3.54964786985977,1.8));
#1434=CARTESIAN_POINT('',(-3.54964786985977,0.6,1.8));
#1435=CARTESIAN_POINT('',(-4.79999999999998,-0.600000000000002,1.8));
#1436=CARTESIAN_POINT('',(4.80000000000002,-0.600000000000001,1.8));
#1437=CARTESIAN_POINT('',(3.54964786985977,0.6,1.8));
#1438=CARTESIAN_POINT('',(0.599999999999997,4.8,1.8));
#1439=CARTESIAN_POINT('',(-0.6,3.54964786985977,1.8));
#1440=MECHANICAL_DESIGN_GEOMETRIC_PRESENTATION_REPRESENTATION('',(#811),
#1441);
#1441=(
GEOMETRIC_REPRESENTATION_CONTEXT(3)
GLOBAL_UNCERTAINTY_ASSIGNED_CONTEXT((#1442))
GLOBAL_UNIT_ASSIGNED_CONTEXT((#1445,#1444,#1443))
REPRESENTATION_CONTEXT('ClGray_4211758_AVV','TOP_LEVEL_ASSEMBLY_PART')
);
#1442=UNCERTAINTY_MEASURE_WITH_UNIT(LENGTH_MEASURE(0.005),#1445,
'DISTANCE_ACCURACY_VALUE','Maximum Tolerance applied to model');
#1443=(
NAMED_UNIT(*)
SI_UNIT($,.STERADIAN.)
SOLID_ANGLE_UNIT()
);
#1444=(
NAMED_UNIT(*)
PLANE_ANGLE_UNIT()
SI_UNIT($,.RADIAN.)
);
#1445=(
LENGTH_UNIT()
NAMED_UNIT(*)
SI_UNIT(.MILLI.,.METRE.)
);
#1446=PRODUCT_DEFINITION_SHAPE('','',#1447);
#1447=PRODUCT_DEFINITION('','',#1449,#1448);
#1448=PRODUCT_DEFINITION_CONTEXT('',#1455,'design');
#1449=PRODUCT_DEFINITION_FORMATION_WITH_SPECIFIED_SOURCE('','',#1451,
 .NOT_KNOWN.);
#1450=PRODUCT_RELATED_PRODUCT_CATEGORY('','',(#1451));
#1451=PRODUCT('ClGray_4211758_AVV','ClGray_4211758_AVV',
'ClGray_4211758_AVV',(#1453));
#1452=PRODUCT_CATEGORY('','');
#1453=PRODUCT_CONTEXT('',#1455,'mechanical');
#1454=APPLICATION_PROTOCOL_DEFINITION('international standard',
'automotive_design',2010,#1455);
#1455=APPLICATION_CONTEXT(
'core data for automotive mechanical design processes');
ENDSEC;
END-ISO-10303-21;
