ISO-10303-21;
HEADER;
/* Generated by software containing ST-Developer
 * from STEP Tools, Inc. (www.steptools.com) 
 */
/* OPTION: strings as raw bytes, not using required /X/ escapes */

FILE_DESCRIPTION(
/* description */ ('Unknown'),
/* implementation_level */ '2;1');

FILE_NAME(
/* name */ 'ClGray_4211775_MCM',
/* time_stamp */ '2025-07-21T23:53:03+02:00',
/* author */ ('Unknown'),
/* organization */ ('Unknown'),
/* preprocessor_version */ 'ST-DEVELOPER v19.4',
/* originating_system */ 'Solid Edge',
/* authorisation */ 'Unknown');

FILE_SCHEMA (('AUTOMOTIVE_DESIGN {1 0 10303 214 3 1 1}'));
ENDSEC;

DATA;
#10=PROPERTY_DEFINITION_REPRESENTATION(#14,#12);
#11=PROPERTY_DEFINITION_REPRESENTATION(#15,#13);
#12=REPRESENTATION('',(#16),#2053);
#13=REPRESENTATION('',(#17),#2053);
#14=PROPERTY_DEFINITION('pmi validation property','',#2058);
#15=PROPERTY_DEFINITION('pmi validation property','',#2058);
#16=VALUE_REPRESENTATION_ITEM('number of annotations',COUNT_MEASURE(0.));
#17=VALUE_REPRESENTATION_ITEM('number of views',COUNT_MEASURE(0.));
#18=SHAPE_REPRESENTATION_RELATIONSHIP('','',#1179,#19);
#19=ADVANCED_BREP_SHAPE_REPRESENTATION('',(#1177),#2053);
#20=CONICAL_SURFACE('',#1291,3.6,1.3962634015954);
#21=CONICAL_SURFACE('',#1293,2.75,1.39626340159546);
#22=B_SPLINE_CURVE_WITH_KNOTS('',3,(#1674,#1675,#1676,#1677),
 .UNSPECIFIED.,.F.,.F.,(4,4),(0.00142543476954385,0.00232510328532879),
 .UNSPECIFIED.);
#23=B_SPLINE_CURVE_WITH_KNOTS('',3,(#1681,#1682,#1683,#1684),
 .UNSPECIFIED.,.F.,.F.,(4,4),(0.00134412417697553,0.00224381902097969),
 .UNSPECIFIED.);
#24=B_SPLINE_CURVE_WITH_KNOTS('',3,(#1693,#1694,#1695,#1696),
 .UNSPECIFIED.,.F.,.F.,(4,4),(0.00134412417697558,0.0022438190209797),
 .UNSPECIFIED.);
#25=B_SPLINE_CURVE_WITH_KNOTS('',3,(#1700,#1701,#1702,#1703),
 .UNSPECIFIED.,.F.,.F.,(4,4),(0.00142543476954385,0.00232510328532879),
 .UNSPECIFIED.);
#26=B_SPLINE_CURVE_WITH_KNOTS('',3,(#1723,#1724,#1725,#1726,#1727),
 .UNSPECIFIED.,.F.,.F.,(4,1,4),(0.,0.5,1.),.UNSPECIFIED.);
#27=B_SPLINE_CURVE_WITH_KNOTS('',3,(#1795,#1796,#1797,#1798),
 .UNSPECIFIED.,.F.,.F.,(4,4),(0.,1.),.UNSPECIFIED.);
#28=B_SPLINE_CURVE_WITH_KNOTS('',3,(#1803,#1804,#1805,#1806),
 .UNSPECIFIED.,.F.,.F.,(4,4),(0.,1.),.UNSPECIFIED.);
#29=B_SPLINE_CURVE_WITH_KNOTS('',3,(#1808,#1809,#1810,#1811,#1812,#1813,
#1814),.UNSPECIFIED.,.F.,.F.,(4,1,1,1,4),(0.,0.25,0.5,0.75,1.),
 .UNSPECIFIED.);
#30=B_SPLINE_CURVE_WITH_KNOTS('',3,(#1931,#1932,#1933,#1934,#1935),
 .UNSPECIFIED.,.F.,.F.,(4,1,4),(4.33680868994202E-19,0.000626227329652797,
0.00125245465930559),.UNSPECIFIED.);
#31=B_SPLINE_CURVE_WITH_KNOTS('',3,(#1940,#1941,#1942,#1943,#1944),
 .UNSPECIFIED.,.F.,.F.,(4,1,4),(0.,0.000626227329652795,0.00125245465930559),
 .UNSPECIFIED.);
#32=B_SPLINE_CURVE_WITH_KNOTS('',3,(#1965,#1966,#1967,#1968,#1969),
 .UNSPECIFIED.,.F.,.F.,(4,1,4),(0.,0.000626227329652795,0.00125245465930559),
 .UNSPECIFIED.);
#33=B_SPLINE_CURVE_WITH_KNOTS('',3,(#1974,#1975,#1976,#1977,#1978),
 .UNSPECIFIED.,.F.,.F.,(4,1,4),(0.,0.000626227329652795,0.00125245465930559),
 .UNSPECIFIED.);
#34=B_SPLINE_CURVE_WITH_KNOTS('',3,(#2003,#2004,#2005,#2006,#2007),
 .UNSPECIFIED.,.F.,.F.,(4,1,4),(0.,0.000625971473940787,0.00125194294788157),
 .UNSPECIFIED.);
#35=B_SPLINE_CURVE_WITH_KNOTS('',3,(#2011,#2012,#2013,#2014,#2015),
 .UNSPECIFIED.,.F.,.F.,(4,1,4),(0.,0.000625971473940786,0.00125194294788157),
 .UNSPECIFIED.);
#36=B_SPLINE_CURVE_WITH_KNOTS('',3,(#2019,#2020,#2021,#2022,#2023),
 .UNSPECIFIED.,.F.,.F.,(4,1,4),(0.,0.000625971473940788,0.00125194294788158),
 .UNSPECIFIED.);
#37=B_SPLINE_CURVE_WITH_KNOTS('',3,(#2027,#2028,#2029,#2030,#2031),
 .UNSPECIFIED.,.F.,.F.,(4,1,4),(0.,0.000625971473940787,0.00125194294788157),
 .UNSPECIFIED.);
#38=PLANE('',#1185);
#39=PLANE('',#1189);
#40=PLANE('',#1193);
#41=PLANE('',#1195);
#42=PLANE('',#1197);
#43=PLANE('',#1198);
#44=PLANE('',#1201);
#45=PLANE('',#1204);
#46=PLANE('',#1207);
#47=PLANE('',#1213);
#48=PLANE('',#1215);
#49=PLANE('',#1216);
#50=PLANE('',#1218);
#51=PLANE('',#1223);
#52=PLANE('',#1226);
#53=PLANE('',#1229);
#54=PLANE('',#1230);
#55=PLANE('',#1233);
#56=PLANE('',#1250);
#57=PLANE('',#1267);
#58=PLANE('',#1268);
#59=PLANE('',#1270);
#60=PLANE('',#1271);
#61=PLANE('',#1273);
#62=PLANE('',#1274);
#63=PLANE('',#1276);
#64=PLANE('',#1277);
#65=PLANE('',#1300);
#66=PLANE('',#1302);
#67=PLANE('',#1305);
#68=PLANE('',#1307);
#69=LINE('',#1654,#155);
#70=LINE('',#1659,#156);
#71=LINE('',#1663,#157);
#72=LINE('',#1672,#158);
#73=LINE('',#1679,#159);
#74=LINE('',#1691,#160);
#75=LINE('',#1698,#161);
#76=LINE('',#1705,#162);
#77=LINE('',#1709,#163);
#78=LINE('',#1711,#164);
#79=LINE('',#1714,#165);
#80=LINE('',#1716,#166);
#81=LINE('',#1719,#167);
#82=LINE('',#1722,#168);
#83=LINE('',#1729,#169);
#84=LINE('',#1732,#170);
#85=LINE('',#1734,#171);
#86=LINE('',#1736,#172);
#87=LINE('',#1742,#173);
#88=LINE('',#1744,#174);
#89=LINE('',#1754,#175);
#90=LINE('',#1756,#176);
#91=LINE('',#1762,#177);
#92=LINE('',#1763,#178);
#93=LINE('',#1764,#179);
#94=LINE('',#1765,#180);
#95=LINE('',#1766,#181);
#96=LINE('',#1767,#182);
#97=LINE('',#1800,#183);
#98=LINE('',#1802,#184);
#99=LINE('',#1818,#185);
#100=LINE('',#1823,#186);
#101=LINE('',#1831,#187);
#102=LINE('',#1835,#188);
#103=LINE('',#1843,#189);
#104=LINE('',#1847,#190);
#105=LINE('',#1855,#191);
#106=LINE('',#1859,#192);
#107=LINE('',#1867,#193);
#108=LINE('',#1872,#194);
#109=LINE('',#1880,#195);
#110=LINE('',#1884,#196);
#111=LINE('',#1892,#197);
#112=LINE('',#1896,#198);
#113=LINE('',#1904,#199);
#114=LINE('',#1908,#200);
#115=LINE('',#1916,#201);
#116=LINE('',#1917,#202);
#117=LINE('',#1919,#203);
#118=LINE('',#1920,#204);
#119=LINE('',#1922,#205);
#120=LINE('',#1923,#206);
#121=LINE('',#1925,#207);
#122=LINE('',#1926,#208);
#123=LINE('',#1928,#209);
#124=LINE('',#1929,#210);
#125=LINE('',#1938,#211);
#126=LINE('',#1946,#212);
#127=LINE('',#1947,#213);
#128=LINE('',#1948,#214);
#129=LINE('',#1950,#215);
#130=LINE('',#1951,#216);
#131=LINE('',#1953,#217);
#132=LINE('',#1954,#218);
#133=LINE('',#1956,#219);
#134=LINE('',#1957,#220);
#135=LINE('',#1959,#221);
#136=LINE('',#1960,#222);
#137=LINE('',#1962,#223);
#138=LINE('',#1963,#224);
#139=LINE('',#1972,#225);
#140=LINE('',#1980,#226);
#141=LINE('',#1981,#227);
#142=LINE('',#1982,#228);
#143=LINE('',#2000,#229);
#144=LINE('',#2009,#230);
#145=LINE('',#2016,#231);
#146=LINE('',#2025,#232);
#147=LINE('',#2037,#233);
#148=LINE('',#2038,#234);
#149=LINE('',#2040,#235);
#150=LINE('',#2042,#236);
#151=LINE('',#2045,#237);
#152=LINE('',#2046,#238);
#153=LINE('',#2048,#239);
#154=LINE('',#2050,#240);
#155=VECTOR('',#1314,1000.);
#156=VECTOR('',#1317,1000.);
#157=VECTOR('',#1322,1000.);
#158=VECTOR('',#1329,1000.);
#159=VECTOR('',#1330,1000.);
#160=VECTOR('',#1337,1000.);
#161=VECTOR('',#1338,1000.);
#162=VECTOR('',#1339,1000.);
#163=VECTOR('',#1344,1000.);
#164=VECTOR('',#1345,1000.);
#165=VECTOR('',#1350,1000.);
#166=VECTOR('',#1351,1000.);
#167=VECTOR('',#1356,1000.);
#168=VECTOR('',#1357,1000.);
#169=VECTOR('',#1360,1000.);
#170=VECTOR('',#1361,1000.);
#171=VECTOR('',#1362,1000.);
#172=VECTOR('',#1363,1000.);
#173=VECTOR('',#1370,1000.);
#174=VECTOR('',#1371,1000.);
#175=VECTOR('',#1382,1000.);
#176=VECTOR('',#1385,1000.);
#177=VECTOR('',#1392,1000.);
#178=VECTOR('',#1393,1000.);
#179=VECTOR('',#1394,1000.);
#180=VECTOR('',#1395,1000.);
#181=VECTOR('',#1396,1000.);
#182=VECTOR('',#1397,1000.);
#183=VECTOR('',#1436,1000.);
#184=VECTOR('',#1439,1000.);
#185=VECTOR('',#1446,1000.);
#186=VECTOR('',#1449,1000.);
#187=VECTOR('',#1456,1000.);
#188=VECTOR('',#1459,1000.);
#189=VECTOR('',#1466,1000.);
#190=VECTOR('',#1469,1000.);
#191=VECTOR('',#1476,1000.);
#192=VECTOR('',#1479,1000.);
#193=VECTOR('',#1488,1000.);
#194=VECTOR('',#1491,1000.);
#195=VECTOR('',#1498,1000.);
#196=VECTOR('',#1501,1000.);
#197=VECTOR('',#1508,1000.);
#198=VECTOR('',#1511,1000.);
#199=VECTOR('',#1518,1000.);
#200=VECTOR('',#1521,1000.);
#201=VECTOR('',#1530,1000.);
#202=VECTOR('',#1531,1000.);
#203=VECTOR('',#1534,1000.);
#204=VECTOR('',#1535,1000.);
#205=VECTOR('',#1538,1000.);
#206=VECTOR('',#1539,1000.);
#207=VECTOR('',#1542,1000.);
#208=VECTOR('',#1543,1000.);
#209=VECTOR('',#1546,1000.);
#210=VECTOR('',#1547,1000.);
#211=VECTOR('',#1550,1000.);
#212=VECTOR('',#1551,1000.);
#213=VECTOR('',#1552,1000.);
#214=VECTOR('',#1553,1000.);
#215=VECTOR('',#1556,1000.);
#216=VECTOR('',#1557,1000.);
#217=VECTOR('',#1560,1000.);
#218=VECTOR('',#1561,1000.);
#219=VECTOR('',#1564,1000.);
#220=VECTOR('',#1565,1000.);
#221=VECTOR('',#1568,1000.);
#222=VECTOR('',#1569,1000.);
#223=VECTOR('',#1572,1000.);
#224=VECTOR('',#1573,1000.);
#225=VECTOR('',#1576,1000.);
#226=VECTOR('',#1577,1000.);
#227=VECTOR('',#1578,1000.);
#228=VECTOR('',#1579,1000.);
#229=VECTOR('',#1614,1000.);
#230=VECTOR('',#1615,1000.);
#231=VECTOR('',#1616,1000.);
#232=VECTOR('',#1617,1000.);
#233=VECTOR('',#1628,1000.);
#234=VECTOR('',#1629,1000.);
#235=VECTOR('',#1632,1000.);
#236=VECTOR('',#1635,1000.);
#237=VECTOR('',#1640,1000.);
#238=VECTOR('',#1641,1000.);
#239=VECTOR('',#1644,1000.);
#240=VECTOR('',#1647,1000.);
#241=ORIENTED_EDGE('',*,*,#571,.T.);
#242=ORIENTED_EDGE('',*,*,#572,.F.);
#243=ORIENTED_EDGE('',*,*,#573,.T.);
#244=ORIENTED_EDGE('',*,*,#574,.T.);
#245=ORIENTED_EDGE('',*,*,#575,.F.);
#246=ORIENTED_EDGE('',*,*,#576,.F.);
#247=ORIENTED_EDGE('',*,*,#577,.T.);
#248=ORIENTED_EDGE('',*,*,#578,.F.);
#249=ORIENTED_EDGE('',*,*,#579,.T.);
#250=ORIENTED_EDGE('',*,*,#580,.F.);
#251=ORIENTED_EDGE('',*,*,#581,.F.);
#252=ORIENTED_EDGE('',*,*,#582,.F.);
#253=ORIENTED_EDGE('',*,*,#583,.F.);
#254=ORIENTED_EDGE('',*,*,#584,.T.);
#255=ORIENTED_EDGE('',*,*,#585,.T.);
#256=ORIENTED_EDGE('',*,*,#586,.T.);
#257=ORIENTED_EDGE('',*,*,#587,.T.);
#258=ORIENTED_EDGE('',*,*,#588,.T.);
#259=ORIENTED_EDGE('',*,*,#589,.T.);
#260=ORIENTED_EDGE('',*,*,#590,.T.);
#261=ORIENTED_EDGE('',*,*,#591,.T.);
#262=ORIENTED_EDGE('',*,*,#580,.T.);
#263=ORIENTED_EDGE('',*,*,#592,.T.);
#264=ORIENTED_EDGE('',*,*,#593,.F.);
#265=ORIENTED_EDGE('',*,*,#594,.T.);
#266=ORIENTED_EDGE('',*,*,#595,.T.);
#267=ORIENTED_EDGE('',*,*,#596,.T.);
#268=ORIENTED_EDGE('',*,*,#590,.F.);
#269=ORIENTED_EDGE('',*,*,#597,.T.);
#270=ORIENTED_EDGE('',*,*,#598,.F.);
#271=ORIENTED_EDGE('',*,*,#599,.T.);
#272=ORIENTED_EDGE('',*,*,#576,.T.);
#273=ORIENTED_EDGE('',*,*,#600,.T.);
#274=ORIENTED_EDGE('',*,*,#601,.F.);
#275=ORIENTED_EDGE('',*,*,#602,.T.);
#276=ORIENTED_EDGE('',*,*,#603,.T.);
#277=ORIENTED_EDGE('',*,*,#604,.F.);
#278=ORIENTED_EDGE('',*,*,#605,.T.);
#279=ORIENTED_EDGE('',*,*,#606,.T.);
#280=ORIENTED_EDGE('',*,*,#607,.F.);
#281=ORIENTED_EDGE('',*,*,#608,.T.);
#282=ORIENTED_EDGE('',*,*,#609,.F.);
#283=ORIENTED_EDGE('',*,*,#610,.T.);
#284=ORIENTED_EDGE('',*,*,#598,.T.);
#285=ORIENTED_EDGE('',*,*,#574,.F.);
#286=ORIENTED_EDGE('',*,*,#593,.T.);
#287=ORIENTED_EDGE('',*,*,#611,.T.);
#288=ORIENTED_EDGE('',*,*,#612,.F.);
#289=ORIENTED_EDGE('',*,*,#613,.T.);
#290=ORIENTED_EDGE('',*,*,#595,.F.);
#291=ORIENTED_EDGE('',*,*,#572,.T.);
#292=ORIENTED_EDGE('',*,*,#614,.F.);
#293=ORIENTED_EDGE('',*,*,#615,.T.);
#294=ORIENTED_EDGE('',*,*,#616,.T.);
#295=ORIENTED_EDGE('',*,*,#617,.T.);
#296=ORIENTED_EDGE('',*,*,#612,.T.);
#297=ORIENTED_EDGE('',*,*,#618,.T.);
#298=ORIENTED_EDGE('',*,*,#578,.T.);
#299=ORIENTED_EDGE('',*,*,#619,.T.);
#300=ORIENTED_EDGE('',*,*,#609,.T.);
#301=ORIENTED_EDGE('',*,*,#620,.F.);
#302=ORIENTED_EDGE('',*,*,#606,.F.);
#303=ORIENTED_EDGE('',*,*,#621,.T.);
#304=ORIENTED_EDGE('',*,*,#584,.F.);
#305=ORIENTED_EDGE('',*,*,#622,.T.);
#306=ORIENTED_EDGE('',*,*,#615,.F.);
#307=ORIENTED_EDGE('',*,*,#623,.T.);
#308=ORIENTED_EDGE('',*,*,#624,.F.);
#309=ORIENTED_EDGE('',*,*,#625,.T.);
#310=ORIENTED_EDGE('',*,*,#623,.F.);
#311=ORIENTED_EDGE('',*,*,#613,.F.);
#312=ORIENTED_EDGE('',*,*,#617,.F.);
#313=ORIENTED_EDGE('',*,*,#614,.T.);
#314=ORIENTED_EDGE('',*,*,#575,.T.);
#315=ORIENTED_EDGE('',*,*,#601,.T.);
#316=ORIENTED_EDGE('',*,*,#620,.T.);
#317=ORIENTED_EDGE('',*,*,#608,.F.);
#318=ORIENTED_EDGE('',*,*,#626,.T.);
#319=ORIENTED_EDGE('',*,*,#627,.T.);
#320=ORIENTED_EDGE('',*,*,#624,.T.);
#321=ORIENTED_EDGE('',*,*,#628,.F.);
#322=ORIENTED_EDGE('',*,*,#629,.F.);
#323=ORIENTED_EDGE('',*,*,#629,.T.);
#324=ORIENTED_EDGE('',*,*,#630,.F.);
#325=ORIENTED_EDGE('',*,*,#630,.T.);
#326=ORIENTED_EDGE('',*,*,#625,.F.);
#327=ORIENTED_EDGE('',*,*,#628,.T.);
#328=ORIENTED_EDGE('',*,*,#631,.F.);
#329=ORIENTED_EDGE('',*,*,#631,.T.);
#330=ORIENTED_EDGE('',*,*,#627,.F.);
#331=ORIENTED_EDGE('',*,*,#603,.F.);
#332=ORIENTED_EDGE('',*,*,#632,.T.);
#333=ORIENTED_EDGE('',*,*,#633,.T.);
#334=ORIENTED_EDGE('',*,*,#586,.F.);
#335=ORIENTED_EDGE('',*,*,#634,.T.);
#336=ORIENTED_EDGE('',*,*,#604,.T.);
#337=ORIENTED_EDGE('',*,*,#633,.F.);
#338=ORIENTED_EDGE('',*,*,#635,.F.);
#339=ORIENTED_EDGE('',*,*,#636,.F.);
#340=ORIENTED_EDGE('',*,*,#602,.F.);
#341=ORIENTED_EDGE('',*,*,#626,.F.);
#342=ORIENTED_EDGE('',*,*,#607,.T.);
#343=ORIENTED_EDGE('',*,*,#637,.T.);
#344=ORIENTED_EDGE('',*,*,#638,.F.);
#345=ORIENTED_EDGE('',*,*,#639,.T.);
#346=ORIENTED_EDGE('',*,*,#640,.F.);
#347=ORIENTED_EDGE('',*,*,#641,.T.);
#348=ORIENTED_EDGE('',*,*,#642,.F.);
#349=ORIENTED_EDGE('',*,*,#643,.T.);
#350=ORIENTED_EDGE('',*,*,#644,.F.);
#351=ORIENTED_EDGE('',*,*,#645,.T.);
#352=ORIENTED_EDGE('',*,*,#646,.F.);
#353=ORIENTED_EDGE('',*,*,#647,.T.);
#354=ORIENTED_EDGE('',*,*,#648,.F.);
#355=ORIENTED_EDGE('',*,*,#649,.T.);
#356=ORIENTED_EDGE('',*,*,#650,.F.);
#357=ORIENTED_EDGE('',*,*,#651,.T.);
#358=ORIENTED_EDGE('',*,*,#652,.F.);
#359=ORIENTED_EDGE('',*,*,#653,.T.);
#360=ORIENTED_EDGE('',*,*,#654,.F.);
#361=ORIENTED_EDGE('',*,*,#655,.T.);
#362=ORIENTED_EDGE('',*,*,#656,.F.);
#363=ORIENTED_EDGE('',*,*,#657,.T.);
#364=ORIENTED_EDGE('',*,*,#658,.F.);
#365=ORIENTED_EDGE('',*,*,#659,.T.);
#366=ORIENTED_EDGE('',*,*,#660,.F.);
#367=ORIENTED_EDGE('',*,*,#661,.T.);
#368=ORIENTED_EDGE('',*,*,#637,.F.);
#369=ORIENTED_EDGE('',*,*,#662,.T.);
#370=ORIENTED_EDGE('',*,*,#663,.T.);
#371=ORIENTED_EDGE('',*,*,#664,.T.);
#372=ORIENTED_EDGE('',*,*,#665,.T.);
#373=ORIENTED_EDGE('',*,*,#666,.T.);
#374=ORIENTED_EDGE('',*,*,#667,.T.);
#375=ORIENTED_EDGE('',*,*,#668,.T.);
#376=ORIENTED_EDGE('',*,*,#669,.T.);
#377=ORIENTED_EDGE('',*,*,#670,.T.);
#378=ORIENTED_EDGE('',*,*,#671,.T.);
#379=ORIENTED_EDGE('',*,*,#672,.T.);
#380=ORIENTED_EDGE('',*,*,#673,.T.);
#381=ORIENTED_EDGE('',*,*,#674,.T.);
#382=ORIENTED_EDGE('',*,*,#675,.T.);
#383=ORIENTED_EDGE('',*,*,#676,.T.);
#384=ORIENTED_EDGE('',*,*,#677,.T.);
#385=ORIENTED_EDGE('',*,*,#678,.T.);
#386=ORIENTED_EDGE('',*,*,#679,.T.);
#387=ORIENTED_EDGE('',*,*,#680,.T.);
#388=ORIENTED_EDGE('',*,*,#681,.T.);
#389=ORIENTED_EDGE('',*,*,#682,.T.);
#390=ORIENTED_EDGE('',*,*,#683,.T.);
#391=ORIENTED_EDGE('',*,*,#684,.T.);
#392=ORIENTED_EDGE('',*,*,#685,.T.);
#393=ORIENTED_EDGE('',*,*,#571,.F.);
#394=ORIENTED_EDGE('',*,*,#646,.T.);
#395=ORIENTED_EDGE('',*,*,#686,.T.);
#396=ORIENTED_EDGE('',*,*,#680,.F.);
#397=ORIENTED_EDGE('',*,*,#687,.T.);
#398=ORIENTED_EDGE('',*,*,#682,.F.);
#399=ORIENTED_EDGE('',*,*,#688,.T.);
#400=ORIENTED_EDGE('',*,*,#644,.T.);
#401=ORIENTED_EDGE('',*,*,#689,.T.);
#402=ORIENTED_EDGE('',*,*,#684,.F.);
#403=ORIENTED_EDGE('',*,*,#690,.T.);
#404=ORIENTED_EDGE('',*,*,#642,.T.);
#405=ORIENTED_EDGE('',*,*,#691,.T.);
#406=ORIENTED_EDGE('',*,*,#640,.T.);
#407=ORIENTED_EDGE('',*,*,#692,.T.);
#408=ORIENTED_EDGE('',*,*,#662,.F.);
#409=ORIENTED_EDGE('',*,*,#693,.T.);
#410=ORIENTED_EDGE('',*,*,#664,.F.);
#411=ORIENTED_EDGE('',*,*,#694,.T.);
#412=ORIENTED_EDGE('',*,*,#638,.T.);
#413=ORIENTED_EDGE('',*,*,#695,.T.);
#414=ORIENTED_EDGE('',*,*,#696,.F.);
#415=ORIENTED_EDGE('',*,*,#697,.F.);
#416=ORIENTED_EDGE('',*,*,#698,.F.);
#417=ORIENTED_EDGE('',*,*,#699,.F.);
#418=ORIENTED_EDGE('',*,*,#666,.F.);
#419=ORIENTED_EDGE('',*,*,#700,.T.);
#420=ORIENTED_EDGE('',*,*,#660,.T.);
#421=ORIENTED_EDGE('',*,*,#701,.T.);
#422=ORIENTED_EDGE('',*,*,#658,.T.);
#423=ORIENTED_EDGE('',*,*,#702,.T.);
#424=ORIENTED_EDGE('',*,*,#668,.F.);
#425=ORIENTED_EDGE('',*,*,#703,.T.);
#426=ORIENTED_EDGE('',*,*,#670,.F.);
#427=ORIENTED_EDGE('',*,*,#704,.T.);
#428=ORIENTED_EDGE('',*,*,#656,.T.);
#429=ORIENTED_EDGE('',*,*,#705,.T.);
#430=ORIENTED_EDGE('',*,*,#672,.F.);
#431=ORIENTED_EDGE('',*,*,#706,.T.);
#432=ORIENTED_EDGE('',*,*,#654,.T.);
#433=ORIENTED_EDGE('',*,*,#707,.T.);
#434=ORIENTED_EDGE('',*,*,#652,.T.);
#435=ORIENTED_EDGE('',*,*,#708,.T.);
#436=ORIENTED_EDGE('',*,*,#674,.F.);
#437=ORIENTED_EDGE('',*,*,#709,.T.);
#438=ORIENTED_EDGE('',*,*,#676,.F.);
#439=ORIENTED_EDGE('',*,*,#710,.T.);
#440=ORIENTED_EDGE('',*,*,#650,.T.);
#441=ORIENTED_EDGE('',*,*,#711,.T.);
#442=ORIENTED_EDGE('',*,*,#712,.F.);
#443=ORIENTED_EDGE('',*,*,#713,.F.);
#444=ORIENTED_EDGE('',*,*,#714,.F.);
#445=ORIENTED_EDGE('',*,*,#715,.F.);
#446=ORIENTED_EDGE('',*,*,#678,.F.);
#447=ORIENTED_EDGE('',*,*,#716,.T.);
#448=ORIENTED_EDGE('',*,*,#648,.T.);
#449=ORIENTED_EDGE('',*,*,#717,.T.);
#450=ORIENTED_EDGE('',*,*,#641,.F.);
#451=ORIENTED_EDGE('',*,*,#693,.F.);
#452=ORIENTED_EDGE('',*,*,#685,.F.);
#453=ORIENTED_EDGE('',*,*,#691,.F.);
#454=ORIENTED_EDGE('',*,*,#647,.F.);
#455=ORIENTED_EDGE('',*,*,#687,.F.);
#456=ORIENTED_EDGE('',*,*,#679,.F.);
#457=ORIENTED_EDGE('',*,*,#717,.F.);
#458=ORIENTED_EDGE('',*,*,#649,.F.);
#459=ORIENTED_EDGE('',*,*,#716,.F.);
#460=ORIENTED_EDGE('',*,*,#677,.F.);
#461=ORIENTED_EDGE('',*,*,#711,.F.);
#462=ORIENTED_EDGE('',*,*,#653,.F.);
#463=ORIENTED_EDGE('',*,*,#709,.F.);
#464=ORIENTED_EDGE('',*,*,#673,.F.);
#465=ORIENTED_EDGE('',*,*,#707,.F.);
#466=ORIENTED_EDGE('',*,*,#655,.F.);
#467=ORIENTED_EDGE('',*,*,#706,.F.);
#468=ORIENTED_EDGE('',*,*,#671,.F.);
#469=ORIENTED_EDGE('',*,*,#705,.F.);
#470=ORIENTED_EDGE('',*,*,#659,.F.);
#471=ORIENTED_EDGE('',*,*,#703,.F.);
#472=ORIENTED_EDGE('',*,*,#667,.F.);
#473=ORIENTED_EDGE('',*,*,#701,.F.);
#474=ORIENTED_EDGE('',*,*,#661,.F.);
#475=ORIENTED_EDGE('',*,*,#700,.F.);
#476=ORIENTED_EDGE('',*,*,#665,.F.);
#477=ORIENTED_EDGE('',*,*,#695,.F.);
#478=ORIENTED_EDGE('',*,*,#643,.F.);
#479=ORIENTED_EDGE('',*,*,#690,.F.);
#480=ORIENTED_EDGE('',*,*,#683,.F.);
#481=ORIENTED_EDGE('',*,*,#689,.F.);
#482=ORIENTED_EDGE('',*,*,#645,.F.);
#483=ORIENTED_EDGE('',*,*,#688,.F.);
#484=ORIENTED_EDGE('',*,*,#681,.F.);
#485=ORIENTED_EDGE('',*,*,#686,.F.);
#486=ORIENTED_EDGE('',*,*,#651,.F.);
#487=ORIENTED_EDGE('',*,*,#710,.F.);
#488=ORIENTED_EDGE('',*,*,#675,.F.);
#489=ORIENTED_EDGE('',*,*,#708,.F.);
#490=ORIENTED_EDGE('',*,*,#657,.F.);
#491=ORIENTED_EDGE('',*,*,#704,.F.);
#492=ORIENTED_EDGE('',*,*,#669,.F.);
#493=ORIENTED_EDGE('',*,*,#702,.F.);
#494=ORIENTED_EDGE('',*,*,#639,.F.);
#495=ORIENTED_EDGE('',*,*,#694,.F.);
#496=ORIENTED_EDGE('',*,*,#663,.F.);
#497=ORIENTED_EDGE('',*,*,#692,.F.);
#498=ORIENTED_EDGE('',*,*,#600,.F.);
#499=ORIENTED_EDGE('',*,*,#583,.T.);
#500=ORIENTED_EDGE('',*,*,#718,.F.);
#501=ORIENTED_EDGE('',*,*,#587,.F.);
#502=ORIENTED_EDGE('',*,*,#635,.T.);
#503=ORIENTED_EDGE('',*,*,#632,.F.);
#504=ORIENTED_EDGE('',*,*,#636,.T.);
#505=ORIENTED_EDGE('',*,*,#719,.T.);
#506=ORIENTED_EDGE('',*,*,#581,.T.);
#507=ORIENTED_EDGE('',*,*,#594,.F.);
#508=ORIENTED_EDGE('',*,*,#573,.F.);
#509=ORIENTED_EDGE('',*,*,#597,.F.);
#510=ORIENTED_EDGE('',*,*,#589,.F.);
#511=ORIENTED_EDGE('',*,*,#720,.T.);
#512=ORIENTED_EDGE('',*,*,#721,.T.);
#513=ORIENTED_EDGE('',*,*,#722,.T.);
#514=ORIENTED_EDGE('',*,*,#723,.T.);
#515=ORIENTED_EDGE('',*,*,#724,.T.);
#516=ORIENTED_EDGE('',*,*,#725,.T.);
#517=ORIENTED_EDGE('',*,*,#726,.T.);
#518=ORIENTED_EDGE('',*,*,#727,.T.);
#519=ORIENTED_EDGE('',*,*,#718,.T.);
#520=ORIENTED_EDGE('',*,*,#582,.T.);
#521=ORIENTED_EDGE('',*,*,#719,.F.);
#522=ORIENTED_EDGE('',*,*,#588,.F.);
#523=ORIENTED_EDGE('',*,*,#579,.F.);
#524=ORIENTED_EDGE('',*,*,#618,.F.);
#525=ORIENTED_EDGE('',*,*,#611,.F.);
#526=ORIENTED_EDGE('',*,*,#592,.F.);
#527=ORIENTED_EDGE('',*,*,#591,.F.);
#528=ORIENTED_EDGE('',*,*,#596,.F.);
#529=ORIENTED_EDGE('',*,*,#616,.F.);
#530=ORIENTED_EDGE('',*,*,#622,.F.);
#531=ORIENTED_EDGE('',*,*,#585,.F.);
#532=ORIENTED_EDGE('',*,*,#621,.F.);
#533=ORIENTED_EDGE('',*,*,#605,.F.);
#534=ORIENTED_EDGE('',*,*,#634,.F.);
#535=ORIENTED_EDGE('',*,*,#577,.F.);
#536=ORIENTED_EDGE('',*,*,#599,.F.);
#537=ORIENTED_EDGE('',*,*,#610,.F.);
#538=ORIENTED_EDGE('',*,*,#619,.F.);
#539=ORIENTED_EDGE('',*,*,#697,.T.);
#540=ORIENTED_EDGE('',*,*,#728,.F.);
#541=ORIENTED_EDGE('',*,*,#724,.F.);
#542=ORIENTED_EDGE('',*,*,#729,.T.);
#543=ORIENTED_EDGE('',*,*,#698,.T.);
#544=ORIENTED_EDGE('',*,*,#729,.F.);
#545=ORIENTED_EDGE('',*,*,#727,.F.);
#546=ORIENTED_EDGE('',*,*,#730,.T.);
#547=ORIENTED_EDGE('',*,*,#699,.T.);
#548=ORIENTED_EDGE('',*,*,#730,.F.);
#549=ORIENTED_EDGE('',*,*,#726,.F.);
#550=ORIENTED_EDGE('',*,*,#731,.T.);
#551=ORIENTED_EDGE('',*,*,#696,.T.);
#552=ORIENTED_EDGE('',*,*,#731,.F.);
#553=ORIENTED_EDGE('',*,*,#725,.F.);
#554=ORIENTED_EDGE('',*,*,#728,.T.);
#555=ORIENTED_EDGE('',*,*,#712,.T.);
#556=ORIENTED_EDGE('',*,*,#732,.T.);
#557=ORIENTED_EDGE('',*,*,#721,.F.);
#558=ORIENTED_EDGE('',*,*,#733,.F.);
#559=ORIENTED_EDGE('',*,*,#713,.T.);
#560=ORIENTED_EDGE('',*,*,#733,.T.);
#561=ORIENTED_EDGE('',*,*,#720,.F.);
#562=ORIENTED_EDGE('',*,*,#734,.F.);
#563=ORIENTED_EDGE('',*,*,#714,.T.);
#564=ORIENTED_EDGE('',*,*,#734,.T.);
#565=ORIENTED_EDGE('',*,*,#723,.F.);
#566=ORIENTED_EDGE('',*,*,#735,.F.);
#567=ORIENTED_EDGE('',*,*,#715,.T.);
#568=ORIENTED_EDGE('',*,*,#735,.T.);
#569=ORIENTED_EDGE('',*,*,#722,.F.);
#570=ORIENTED_EDGE('',*,*,#732,.F.);
#571=EDGE_CURVE('',#736,#736,#848,.T.);
#572=EDGE_CURVE('',#737,#738,#69,.T.);
#573=EDGE_CURVE('',#737,#739,#849,.T.);
#574=EDGE_CURVE('',#739,#740,#70,.T.);
#575=EDGE_CURVE('',#738,#740,#850,.T.);
#576=EDGE_CURVE('',#741,#742,#71,.T.);
#577=EDGE_CURVE('',#741,#743,#851,.T.);
#578=EDGE_CURVE('',#744,#743,#852,.T.);
#579=EDGE_CURVE('',#744,#745,#853,.T.);
#580=EDGE_CURVE('',#746,#745,#72,.T.);
#581=EDGE_CURVE('',#747,#746,#22,.T.);
#582=EDGE_CURVE('',#748,#747,#73,.F.);
#583=EDGE_CURVE('',#742,#748,#23,.T.);
#584=EDGE_CURVE('',#749,#750,#854,.T.);
#585=EDGE_CURVE('',#750,#751,#855,.F.);
#586=EDGE_CURVE('',#751,#752,#74,.T.);
#587=EDGE_CURVE('',#752,#753,#24,.T.);
#588=EDGE_CURVE('',#753,#754,#75,.F.);
#589=EDGE_CURVE('',#754,#755,#25,.T.);
#590=EDGE_CURVE('',#755,#756,#76,.T.);
#591=EDGE_CURVE('',#756,#749,#856,.F.);
#592=EDGE_CURVE('',#745,#757,#77,.T.);
#593=EDGE_CURVE('',#739,#757,#78,.T.);
#594=EDGE_CURVE('',#739,#746,#857,.F.);
#595=EDGE_CURVE('',#737,#758,#79,.T.);
#596=EDGE_CURVE('',#758,#756,#80,.T.);
#597=EDGE_CURVE('',#755,#737,#858,.F.);
#598=EDGE_CURVE('',#759,#760,#81,.T.);
#599=EDGE_CURVE('',#759,#741,#82,.F.);
#600=EDGE_CURVE('',#742,#760,#26,.T.);
#601=EDGE_CURVE('',#761,#762,#83,.T.);
#602=EDGE_CURVE('',#761,#763,#84,.T.);
#603=EDGE_CURVE('',#763,#764,#85,.T.);
#604=EDGE_CURVE('',#765,#764,#86,.T.);
#605=EDGE_CURVE('',#765,#766,#859,.T.);
#606=EDGE_CURVE('',#766,#762,#860,.T.);
#607=EDGE_CURVE('',#767,#760,#87,.T.);
#608=EDGE_CURVE('',#767,#768,#88,.T.);
#609=EDGE_CURVE('',#769,#768,#861,.T.);
#610=EDGE_CURVE('',#769,#759,#862,.F.);
#611=EDGE_CURVE('',#757,#770,#863,.F.);
#612=EDGE_CURVE('',#771,#770,#864,.T.);
#613=EDGE_CURVE('',#771,#740,#89,.T.);
#614=EDGE_CURVE('',#772,#738,#90,.T.);
#615=EDGE_CURVE('',#772,#773,#865,.T.);
#616=EDGE_CURVE('',#773,#758,#866,.T.);
#617=EDGE_CURVE('',#772,#771,#91,.T.);
#618=EDGE_CURVE('',#770,#744,#92,.F.);
#619=EDGE_CURVE('',#743,#769,#93,.T.);
#620=EDGE_CURVE('',#762,#768,#94,.T.);
#621=EDGE_CURVE('',#766,#750,#95,.T.);
#622=EDGE_CURVE('',#749,#773,#96,.F.);
#623=EDGE_CURVE('',#774,#774,#867,.T.);
#624=EDGE_CURVE('',#775,#775,#868,.T.);
#625=EDGE_CURVE('',#776,#776,#869,.T.);
#626=EDGE_CURVE('',#767,#761,#870,.T.);
#627=EDGE_CURVE('',#777,#777,#871,.T.);
#628=EDGE_CURVE('',#778,#778,#872,.T.);
#629=EDGE_CURVE('',#779,#779,#873,.T.);
#630=EDGE_CURVE('',#780,#780,#874,.T.);
#631=EDGE_CURVE('',#781,#781,#875,.T.);
#632=EDGE_CURVE('',#763,#782,#27,.T.);
#633=EDGE_CURVE('',#782,#764,#97,.T.);
#634=EDGE_CURVE('',#751,#765,#98,.T.);
#635=EDGE_CURVE('',#752,#782,#28,.F.);
#636=EDGE_CURVE('',#763,#760,#29,.T.);
#637=EDGE_CURVE('',#783,#783,#876,.T.);
#638=EDGE_CURVE('',#784,#785,#99,.T.);
#639=EDGE_CURVE('',#784,#786,#877,.F.);
#640=EDGE_CURVE('',#787,#786,#100,.T.);
#641=EDGE_CURVE('',#787,#788,#878,.T.);
#642=EDGE_CURVE('',#789,#788,#879,.F.);
#643=EDGE_CURVE('',#789,#790,#880,.T.);
#644=EDGE_CURVE('',#791,#790,#101,.T.);
#645=EDGE_CURVE('',#791,#792,#881,.F.);
#646=EDGE_CURVE('',#793,#792,#102,.T.);
#647=EDGE_CURVE('',#793,#794,#882,.T.);
#648=EDGE_CURVE('',#795,#794,#883,.F.);
#649=EDGE_CURVE('',#795,#796,#884,.T.);
#650=EDGE_CURVE('',#797,#796,#103,.T.);
#651=EDGE_CURVE('',#797,#798,#885,.F.);
#652=EDGE_CURVE('',#799,#798,#104,.T.);
#653=EDGE_CURVE('',#799,#800,#886,.T.);
#654=EDGE_CURVE('',#801,#800,#887,.F.);
#655=EDGE_CURVE('',#801,#802,#888,.T.);
#656=EDGE_CURVE('',#803,#802,#105,.T.);
#657=EDGE_CURVE('',#803,#804,#889,.F.);
#658=EDGE_CURVE('',#805,#804,#106,.T.);
#659=EDGE_CURVE('',#805,#806,#890,.T.);
#660=EDGE_CURVE('',#807,#806,#891,.F.);
#661=EDGE_CURVE('',#807,#785,#892,.T.);
#662=EDGE_CURVE('',#808,#809,#107,.T.);
#663=EDGE_CURVE('',#809,#810,#893,.F.);
#664=EDGE_CURVE('',#810,#811,#108,.T.);
#665=EDGE_CURVE('',#811,#812,#894,.T.);
#666=EDGE_CURVE('',#812,#813,#895,.T.);
#667=EDGE_CURVE('',#813,#814,#896,.T.);
#668=EDGE_CURVE('',#814,#815,#109,.T.);
#669=EDGE_CURVE('',#815,#816,#897,.F.);
#670=EDGE_CURVE('',#816,#817,#110,.T.);
#671=EDGE_CURVE('',#817,#818,#898,.T.);
#672=EDGE_CURVE('',#818,#819,#899,.T.);
#673=EDGE_CURVE('',#819,#820,#900,.T.);
#674=EDGE_CURVE('',#820,#821,#111,.T.);
#675=EDGE_CURVE('',#821,#822,#901,.F.);
#676=EDGE_CURVE('',#822,#823,#112,.T.);
#677=EDGE_CURVE('',#823,#824,#902,.T.);
#678=EDGE_CURVE('',#824,#825,#903,.T.);
#679=EDGE_CURVE('',#825,#826,#904,.T.);
#680=EDGE_CURVE('',#826,#827,#113,.T.);
#681=EDGE_CURVE('',#827,#828,#905,.F.);
#682=EDGE_CURVE('',#828,#829,#114,.T.);
#683=EDGE_CURVE('',#829,#830,#906,.T.);
#684=EDGE_CURVE('',#830,#831,#907,.T.);
#685=EDGE_CURVE('',#831,#808,#908,.T.);
#686=EDGE_CURVE('',#792,#827,#115,.T.);
#687=EDGE_CURVE('',#826,#793,#116,.T.);
#688=EDGE_CURVE('',#828,#791,#117,.F.);
#689=EDGE_CURVE('',#790,#829,#118,.F.);
#690=EDGE_CURVE('',#830,#789,#119,.F.);
#691=EDGE_CURVE('',#788,#831,#120,.T.);
#692=EDGE_CURVE('',#786,#809,#121,.T.);
#693=EDGE_CURVE('',#808,#787,#122,.T.);
#694=EDGE_CURVE('',#810,#784,#123,.F.);
#695=EDGE_CURVE('',#785,#811,#124,.F.);
#696=EDGE_CURVE('',#832,#833,#30,.T.);
#697=EDGE_CURVE('',#834,#832,#125,.T.);
#698=EDGE_CURVE('',#835,#834,#31,.T.);
#699=EDGE_CURVE('',#833,#835,#126,.F.);
#700=EDGE_CURVE('',#812,#807,#127,.F.);
#701=EDGE_CURVE('',#806,#813,#128,.T.);
#702=EDGE_CURVE('',#804,#815,#129,.T.);
#703=EDGE_CURVE('',#814,#805,#130,.T.);
#704=EDGE_CURVE('',#816,#803,#131,.F.);
#705=EDGE_CURVE('',#802,#817,#132,.F.);
#706=EDGE_CURVE('',#818,#801,#133,.F.);
#707=EDGE_CURVE('',#800,#819,#134,.T.);
#708=EDGE_CURVE('',#798,#821,#135,.T.);
#709=EDGE_CURVE('',#820,#799,#136,.T.);
#710=EDGE_CURVE('',#822,#797,#137,.F.);
#711=EDGE_CURVE('',#796,#823,#138,.F.);
#712=EDGE_CURVE('',#836,#837,#32,.T.);
#713=EDGE_CURVE('',#838,#836,#139,.T.);
#714=EDGE_CURVE('',#839,#838,#33,.T.);
#715=EDGE_CURVE('',#837,#839,#140,.F.);
#716=EDGE_CURVE('',#824,#795,#141,.F.);
#717=EDGE_CURVE('',#794,#825,#142,.T.);
#718=EDGE_CURVE('',#753,#748,#909,.T.);
#719=EDGE_CURVE('',#754,#747,#910,.T.);
#720=EDGE_CURVE('',#840,#841,#143,.F.);
#721=EDGE_CURVE('',#841,#842,#34,.T.);
#722=EDGE_CURVE('',#842,#843,#144,.T.);
#723=EDGE_CURVE('',#843,#840,#35,.T.);
#724=EDGE_CURVE('',#844,#845,#145,.F.);
#725=EDGE_CURVE('',#845,#846,#36,.T.);
#726=EDGE_CURVE('',#846,#847,#146,.T.);
#727=EDGE_CURVE('',#847,#844,#37,.T.);
#728=EDGE_CURVE('',#845,#832,#147,.T.);
#729=EDGE_CURVE('',#844,#834,#148,.T.);
#730=EDGE_CURVE('',#847,#835,#149,.T.);
#731=EDGE_CURVE('',#846,#833,#150,.T.);
#732=EDGE_CURVE('',#837,#842,#151,.T.);
#733=EDGE_CURVE('',#836,#841,#152,.T.);
#734=EDGE_CURVE('',#838,#840,#153,.T.);
#735=EDGE_CURVE('',#839,#843,#154,.T.);
#736=VERTEX_POINT('',#1653);
#737=VERTEX_POINT('',#1655);
#738=VERTEX_POINT('',#1656);
#739=VERTEX_POINT('',#1658);
#740=VERTEX_POINT('',#1660);
#741=VERTEX_POINT('',#1664);
#742=VERTEX_POINT('',#1665);
#743=VERTEX_POINT('',#1667);
#744=VERTEX_POINT('',#1669);
#745=VERTEX_POINT('',#1671);
#746=VERTEX_POINT('',#1673);
#747=VERTEX_POINT('',#1678);
#748=VERTEX_POINT('',#1680);
#749=VERTEX_POINT('',#1687);
#750=VERTEX_POINT('',#1688);
#751=VERTEX_POINT('',#1690);
#752=VERTEX_POINT('',#1692);
#753=VERTEX_POINT('',#1697);
#754=VERTEX_POINT('',#1699);
#755=VERTEX_POINT('',#1704);
#756=VERTEX_POINT('',#1706);
#757=VERTEX_POINT('',#1710);
#758=VERTEX_POINT('',#1715);
#759=VERTEX_POINT('',#1720);
#760=VERTEX_POINT('',#1721);
#761=VERTEX_POINT('',#1730);
#762=VERTEX_POINT('',#1731);
#763=VERTEX_POINT('',#1733);
#764=VERTEX_POINT('',#1735);
#765=VERTEX_POINT('',#1737);
#766=VERTEX_POINT('',#1739);
#767=VERTEX_POINT('',#1743);
#768=VERTEX_POINT('',#1745);
#769=VERTEX_POINT('',#1747);
#770=VERTEX_POINT('',#1751);
#771=VERTEX_POINT('',#1753);
#772=VERTEX_POINT('',#1757);
#773=VERTEX_POINT('',#1759);
#774=VERTEX_POINT('',#1769);
#775=VERTEX_POINT('',#1771);
#776=VERTEX_POINT('',#1774);
#777=VERTEX_POINT('',#1780);
#778=VERTEX_POINT('',#1783);
#779=VERTEX_POINT('',#1785);
#780=VERTEX_POINT('',#1788);
#781=VERTEX_POINT('',#1792);
#782=VERTEX_POINT('',#1799);
#783=VERTEX_POINT('',#1816);
#784=VERTEX_POINT('',#1819);
#785=VERTEX_POINT('',#1820);
#786=VERTEX_POINT('',#1822);
#787=VERTEX_POINT('',#1824);
#788=VERTEX_POINT('',#1826);
#789=VERTEX_POINT('',#1828);
#790=VERTEX_POINT('',#1830);
#791=VERTEX_POINT('',#1832);
#792=VERTEX_POINT('',#1834);
#793=VERTEX_POINT('',#1836);
#794=VERTEX_POINT('',#1838);
#795=VERTEX_POINT('',#1840);
#796=VERTEX_POINT('',#1842);
#797=VERTEX_POINT('',#1844);
#798=VERTEX_POINT('',#1846);
#799=VERTEX_POINT('',#1848);
#800=VERTEX_POINT('',#1850);
#801=VERTEX_POINT('',#1852);
#802=VERTEX_POINT('',#1854);
#803=VERTEX_POINT('',#1856);
#804=VERTEX_POINT('',#1858);
#805=VERTEX_POINT('',#1860);
#806=VERTEX_POINT('',#1862);
#807=VERTEX_POINT('',#1864);
#808=VERTEX_POINT('',#1868);
#809=VERTEX_POINT('',#1869);
#810=VERTEX_POINT('',#1871);
#811=VERTEX_POINT('',#1873);
#812=VERTEX_POINT('',#1875);
#813=VERTEX_POINT('',#1877);
#814=VERTEX_POINT('',#1879);
#815=VERTEX_POINT('',#1881);
#816=VERTEX_POINT('',#1883);
#817=VERTEX_POINT('',#1885);
#818=VERTEX_POINT('',#1887);
#819=VERTEX_POINT('',#1889);
#820=VERTEX_POINT('',#1891);
#821=VERTEX_POINT('',#1893);
#822=VERTEX_POINT('',#1895);
#823=VERTEX_POINT('',#1897);
#824=VERTEX_POINT('',#1899);
#825=VERTEX_POINT('',#1901);
#826=VERTEX_POINT('',#1903);
#827=VERTEX_POINT('',#1905);
#828=VERTEX_POINT('',#1907);
#829=VERTEX_POINT('',#1909);
#830=VERTEX_POINT('',#1911);
#831=VERTEX_POINT('',#1913);
#832=VERTEX_POINT('',#1936);
#833=VERTEX_POINT('',#1937);
#834=VERTEX_POINT('',#1939);
#835=VERTEX_POINT('',#1945);
#836=VERTEX_POINT('',#1970);
#837=VERTEX_POINT('',#1971);
#838=VERTEX_POINT('',#1973);
#839=VERTEX_POINT('',#1979);
#840=VERTEX_POINT('',#2001);
#841=VERTEX_POINT('',#2002);
#842=VERTEX_POINT('',#2008);
#843=VERTEX_POINT('',#2010);
#844=VERTEX_POINT('',#2017);
#845=VERTEX_POINT('',#2018);
#846=VERTEX_POINT('',#2024);
#847=VERTEX_POINT('',#2026);
#848=CIRCLE('',#1182,3.6);
#849=CIRCLE('',#1183,3.6);
#850=CIRCLE('',#1184,3.6);
#851=CIRCLE('',#1186,0.5);
#852=CIRCLE('',#1187,3.6);
#853=CIRCLE('',#1188,0.5);
#854=CIRCLE('',#1190,3.6);
#855=CIRCLE('',#1191,0.5);
#856=CIRCLE('',#1192,0.5);
#857=CIRCLE('',#1194,3.6);
#858=CIRCLE('',#1196,3.6);
#859=CIRCLE('',#1199,0.5);
#860=CIRCLE('',#1200,3.6);
#861=CIRCLE('',#1202,3.6);
#862=CIRCLE('',#1203,0.5);
#863=CIRCLE('',#1205,0.5);
#864=CIRCLE('',#1206,3.6);
#865=CIRCLE('',#1208,3.6);
#866=CIRCLE('',#1209,0.5);
#867=CIRCLE('',#1211,3.6);
#868=CIRCLE('',#1212,3.6);
#869=CIRCLE('',#1214,3.1);
#870=CIRCLE('',#1217,3.6);
#871=CIRCLE('',#1219,3.1);
#872=CIRCLE('',#1221,2.4);
#873=CIRCLE('',#1222,2.4);
#874=CIRCLE('',#1224,3.1);
#875=CIRCLE('',#1227,3.1);
#876=CIRCLE('',#1232,3.6);
#877=CIRCLE('',#1234,0.5);
#878=CIRCLE('',#1235,0.1);
#879=CIRCLE('',#1236,2.4);
#880=CIRCLE('',#1237,0.1);
#881=CIRCLE('',#1238,0.5);
#882=CIRCLE('',#1239,0.1);
#883=CIRCLE('',#1240,2.4);
#884=CIRCLE('',#1241,0.1);
#885=CIRCLE('',#1242,0.5);
#886=CIRCLE('',#1243,0.1);
#887=CIRCLE('',#1244,2.4);
#888=CIRCLE('',#1245,0.1);
#889=CIRCLE('',#1246,0.5);
#890=CIRCLE('',#1247,0.1);
#891=CIRCLE('',#1248,2.4);
#892=CIRCLE('',#1249,0.1);
#893=CIRCLE('',#1251,0.5);
#894=CIRCLE('',#1252,0.1);
#895=CIRCLE('',#1253,2.4);
#896=CIRCLE('',#1254,0.1);
#897=CIRCLE('',#1255,0.5);
#898=CIRCLE('',#1256,0.1);
#899=CIRCLE('',#1257,2.4);
#900=CIRCLE('',#1258,0.1);
#901=CIRCLE('',#1259,0.5);
#902=CIRCLE('',#1260,0.1);
#903=CIRCLE('',#1261,2.4);
#904=CIRCLE('',#1262,0.1);
#905=CIRCLE('',#1263,0.5);
#906=CIRCLE('',#1264,0.1);
#907=CIRCLE('',#1265,2.4);
#908=CIRCLE('',#1266,0.1);
#909=CIRCLE('',#1292,2.75);
#910=CIRCLE('',#1294,2.75);
#911=EDGE_LOOP('',(#241));
#912=EDGE_LOOP('',(#242,#243,#244,#245));
#913=EDGE_LOOP('',(#246,#247,#248,#249,#250,#251,#252,#253));
#914=EDGE_LOOP('',(#254,#255,#256,#257,#258,#259,#260,#261));
#915=EDGE_LOOP('',(#262,#263,#264,#265));
#916=EDGE_LOOP('',(#266,#267,#268,#269));
#917=EDGE_LOOP('',(#270,#271,#272,#273));
#918=EDGE_LOOP('',(#274,#275,#276,#277,#278,#279));
#919=EDGE_LOOP('',(#280,#281,#282,#283,#284));
#920=EDGE_LOOP('',(#285,#286,#287,#288,#289));
#921=EDGE_LOOP('',(#290,#291,#292,#293,#294));
#922=EDGE_LOOP('',(#295,#296,#297,#298,#299,#300,#301,#302,#303,#304,#305,
#306));
#923=EDGE_LOOP('',(#307));
#924=EDGE_LOOP('',(#308));
#925=EDGE_LOOP('',(#309));
#926=EDGE_LOOP('',(#310));
#927=EDGE_LOOP('',(#311,#312,#313,#314));
#928=EDGE_LOOP('',(#315,#316,#317,#318));
#929=EDGE_LOOP('',(#319));
#930=EDGE_LOOP('',(#320));
#931=EDGE_LOOP('',(#321));
#932=EDGE_LOOP('',(#322));
#933=EDGE_LOOP('',(#323));
#934=EDGE_LOOP('',(#324));
#935=EDGE_LOOP('',(#325));
#936=EDGE_LOOP('',(#326));
#937=EDGE_LOOP('',(#327));
#938=EDGE_LOOP('',(#328));
#939=EDGE_LOOP('',(#329));
#940=EDGE_LOOP('',(#330));
#941=EDGE_LOOP('',(#331,#332,#333));
#942=EDGE_LOOP('',(#334,#335,#336,#337,#338));
#943=EDGE_LOOP('',(#339,#340,#341,#342));
#944=EDGE_LOOP('',(#343));
#945=EDGE_LOOP('',(#344,#345,#346,#347,#348,#349,#350,#351,#352,#353,#354,
#355,#356,#357,#358,#359,#360,#361,#362,#363,#364,#365,#366,#367));
#946=EDGE_LOOP('',(#368));
#947=EDGE_LOOP('',(#369,#370,#371,#372,#373,#374,#375,#376,#377,#378,#379,
#380,#381,#382,#383,#384,#385,#386,#387,#388,#389,#390,#391,#392));
#948=EDGE_LOOP('',(#393));
#949=EDGE_LOOP('',(#394,#395,#396,#397));
#950=EDGE_LOOP('',(#398,#399,#400,#401));
#951=EDGE_LOOP('',(#402,#403,#404,#405));
#952=EDGE_LOOP('',(#406,#407,#408,#409));
#953=EDGE_LOOP('',(#410,#411,#412,#413));
#954=EDGE_LOOP('',(#414,#415,#416,#417));
#955=EDGE_LOOP('',(#418,#419,#420,#421));
#956=EDGE_LOOP('',(#422,#423,#424,#425));
#957=EDGE_LOOP('',(#426,#427,#428,#429));
#958=EDGE_LOOP('',(#430,#431,#432,#433));
#959=EDGE_LOOP('',(#434,#435,#436,#437));
#960=EDGE_LOOP('',(#438,#439,#440,#441));
#961=EDGE_LOOP('',(#442,#443,#444,#445));
#962=EDGE_LOOP('',(#446,#447,#448,#449));
#963=EDGE_LOOP('',(#450,#451,#452,#453));
#964=EDGE_LOOP('',(#454,#455,#456,#457));
#965=EDGE_LOOP('',(#458,#459,#460,#461));
#966=EDGE_LOOP('',(#462,#463,#464,#465));
#967=EDGE_LOOP('',(#466,#467,#468,#469));
#968=EDGE_LOOP('',(#470,#471,#472,#473));
#969=EDGE_LOOP('',(#474,#475,#476,#477));
#970=EDGE_LOOP('',(#478,#479,#480,#481));
#971=EDGE_LOOP('',(#482,#483,#484,#485));
#972=EDGE_LOOP('',(#486,#487,#488,#489));
#973=EDGE_LOOP('',(#490,#491,#492,#493));
#974=EDGE_LOOP('',(#494,#495,#496,#497));
#975=EDGE_LOOP('',(#498,#499,#500,#501,#502,#503,#504));
#976=EDGE_LOOP('',(#505,#506,#507,#508,#509,#510));
#977=EDGE_LOOP('',(#511,#512,#513,#514));
#978=EDGE_LOOP('',(#515,#516,#517,#518));
#979=EDGE_LOOP('',(#519,#520,#521,#522));
#980=EDGE_LOOP('',(#523,#524,#525,#526));
#981=EDGE_LOOP('',(#527,#528,#529,#530));
#982=EDGE_LOOP('',(#531,#532,#533,#534));
#983=EDGE_LOOP('',(#535,#536,#537,#538));
#984=EDGE_LOOP('',(#539,#540,#541,#542));
#985=EDGE_LOOP('',(#543,#544,#545,#546));
#986=EDGE_LOOP('',(#547,#548,#549,#550));
#987=EDGE_LOOP('',(#551,#552,#553,#554));
#988=EDGE_LOOP('',(#555,#556,#557,#558));
#989=EDGE_LOOP('',(#559,#560,#561,#562));
#990=EDGE_LOOP('',(#563,#564,#565,#566));
#991=EDGE_LOOP('',(#567,#568,#569,#570));
#992=FACE_BOUND('',#911,.T.);
#993=FACE_BOUND('',#912,.T.);
#994=FACE_BOUND('',#913,.T.);
#995=FACE_BOUND('',#914,.T.);
#996=FACE_BOUND('',#915,.T.);
#997=FACE_BOUND('',#916,.T.);
#998=FACE_BOUND('',#917,.T.);
#999=FACE_BOUND('',#918,.T.);
#1000=FACE_BOUND('',#919,.T.);
#1001=FACE_BOUND('',#920,.T.);
#1002=FACE_BOUND('',#921,.T.);
#1003=FACE_BOUND('',#922,.T.);
#1004=FACE_BOUND('',#923,.T.);
#1005=FACE_BOUND('',#924,.T.);
#1006=FACE_BOUND('',#925,.T.);
#1007=FACE_BOUND('',#926,.T.);
#1008=FACE_BOUND('',#927,.T.);
#1009=FACE_BOUND('',#928,.T.);
#1010=FACE_BOUND('',#929,.T.);
#1011=FACE_BOUND('',#930,.T.);
#1012=FACE_BOUND('',#931,.T.);
#1013=FACE_BOUND('',#932,.T.);
#1014=FACE_BOUND('',#933,.T.);
#1015=FACE_BOUND('',#934,.T.);
#1016=FACE_BOUND('',#935,.T.);
#1017=FACE_BOUND('',#936,.T.);
#1018=FACE_BOUND('',#937,.T.);
#1019=FACE_BOUND('',#938,.T.);
#1020=FACE_BOUND('',#939,.T.);
#1021=FACE_BOUND('',#940,.T.);
#1022=FACE_BOUND('',#941,.T.);
#1023=FACE_BOUND('',#942,.T.);
#1024=FACE_BOUND('',#943,.T.);
#1025=FACE_BOUND('',#944,.T.);
#1026=FACE_BOUND('',#945,.T.);
#1027=FACE_BOUND('',#946,.T.);
#1028=FACE_BOUND('',#947,.T.);
#1029=FACE_BOUND('',#948,.T.);
#1030=FACE_BOUND('',#949,.T.);
#1031=FACE_BOUND('',#950,.T.);
#1032=FACE_BOUND('',#951,.T.);
#1033=FACE_BOUND('',#952,.T.);
#1034=FACE_BOUND('',#953,.T.);
#1035=FACE_BOUND('',#954,.T.);
#1036=FACE_BOUND('',#955,.T.);
#1037=FACE_BOUND('',#956,.T.);
#1038=FACE_BOUND('',#957,.T.);
#1039=FACE_BOUND('',#958,.T.);
#1040=FACE_BOUND('',#959,.T.);
#1041=FACE_BOUND('',#960,.T.);
#1042=FACE_BOUND('',#961,.T.);
#1043=FACE_BOUND('',#962,.T.);
#1044=FACE_BOUND('',#963,.T.);
#1045=FACE_BOUND('',#964,.T.);
#1046=FACE_BOUND('',#965,.T.);
#1047=FACE_BOUND('',#966,.T.);
#1048=FACE_BOUND('',#967,.T.);
#1049=FACE_BOUND('',#968,.T.);
#1050=FACE_BOUND('',#969,.T.);
#1051=FACE_BOUND('',#970,.T.);
#1052=FACE_BOUND('',#971,.T.);
#1053=FACE_BOUND('',#972,.T.);
#1054=FACE_BOUND('',#973,.T.);
#1055=FACE_BOUND('',#974,.T.);
#1056=FACE_BOUND('',#975,.T.);
#1057=FACE_BOUND('',#976,.T.);
#1058=FACE_BOUND('',#977,.T.);
#1059=FACE_BOUND('',#978,.T.);
#1060=FACE_BOUND('',#979,.T.);
#1061=FACE_BOUND('',#980,.T.);
#1062=FACE_BOUND('',#981,.T.);
#1063=FACE_BOUND('',#982,.T.);
#1064=FACE_BOUND('',#983,.T.);
#1065=FACE_BOUND('',#984,.T.);
#1066=FACE_BOUND('',#985,.T.);
#1067=FACE_BOUND('',#986,.T.);
#1068=FACE_BOUND('',#987,.T.);
#1069=FACE_BOUND('',#988,.T.);
#1070=FACE_BOUND('',#989,.T.);
#1071=FACE_BOUND('',#990,.T.);
#1072=FACE_BOUND('',#991,.T.);
#1073=CYLINDRICAL_SURFACE('',#1181,3.6);
#1074=CYLINDRICAL_SURFACE('',#1210,3.6);
#1075=CYLINDRICAL_SURFACE('',#1220,2.4);
#1076=CYLINDRICAL_SURFACE('',#1225,3.1);
#1077=CYLINDRICAL_SURFACE('',#1228,3.1);
#1078=CYLINDRICAL_SURFACE('',#1231,3.6);
#1079=CYLINDRICAL_SURFACE('',#1269,2.4);
#1080=CYLINDRICAL_SURFACE('',#1272,2.4);
#1081=CYLINDRICAL_SURFACE('',#1275,2.4);
#1082=CYLINDRICAL_SURFACE('',#1278,2.4);
#1083=CYLINDRICAL_SURFACE('',#1279,0.1);
#1084=CYLINDRICAL_SURFACE('',#1280,0.1);
#1085=CYLINDRICAL_SURFACE('',#1281,0.1);
#1086=CYLINDRICAL_SURFACE('',#1282,0.1);
#1087=CYLINDRICAL_SURFACE('',#1283,0.1);
#1088=CYLINDRICAL_SURFACE('',#1284,0.1);
#1089=CYLINDRICAL_SURFACE('',#1285,0.1);
#1090=CYLINDRICAL_SURFACE('',#1286,0.1);
#1091=CYLINDRICAL_SURFACE('',#1287,0.5);
#1092=CYLINDRICAL_SURFACE('',#1288,0.5);
#1093=CYLINDRICAL_SURFACE('',#1289,0.5);
#1094=CYLINDRICAL_SURFACE('',#1290,0.5);
#1095=CYLINDRICAL_SURFACE('',#1295,2.75);
#1096=CYLINDRICAL_SURFACE('',#1296,0.5);
#1097=CYLINDRICAL_SURFACE('',#1297,0.5);
#1098=CYLINDRICAL_SURFACE('',#1298,0.5);
#1099=CYLINDRICAL_SURFACE('',#1299,0.5);
#1100=CYLINDRICAL_SURFACE('',#1301,0.4);
#1101=CYLINDRICAL_SURFACE('',#1303,0.4);
#1102=CYLINDRICAL_SURFACE('',#1304,0.4);
#1103=CYLINDRICAL_SURFACE('',#1306,0.4);
#1104=ADVANCED_FACE('',(#992,#993),#1073,.T.);
#1105=ADVANCED_FACE('',(#994),#38,.T.);
#1106=ADVANCED_FACE('',(#995),#39,.F.);
#1107=ADVANCED_FACE('',(#996),#40,.T.);
#1108=ADVANCED_FACE('',(#997),#41,.T.);
#1109=ADVANCED_FACE('',(#998),#42,.T.);
#1110=ADVANCED_FACE('',(#999),#43,.F.);
#1111=ADVANCED_FACE('',(#1000),#44,.T.);
#1112=ADVANCED_FACE('',(#1001),#45,.T.);
#1113=ADVANCED_FACE('',(#1002),#46,.F.);
#1114=ADVANCED_FACE('',(#1003,#1004,#1005),#1074,.T.);
#1115=ADVANCED_FACE('',(#1006,#1007),#47,.F.);
#1116=ADVANCED_FACE('',(#1008),#48,.F.);
#1117=ADVANCED_FACE('',(#1009),#49,.F.);
#1118=ADVANCED_FACE('',(#1010,#1011),#50,.T.);
#1119=ADVANCED_FACE('',(#1012,#1013),#1075,.F.);
#1120=ADVANCED_FACE('',(#1014,#1015),#51,.F.);
#1121=ADVANCED_FACE('',(#1016,#1017),#1076,.F.);
#1122=ADVANCED_FACE('',(#1018,#1019),#52,.F.);
#1123=ADVANCED_FACE('',(#1020,#1021),#1077,.F.);
#1124=ADVANCED_FACE('',(#1022),#53,.T.);
#1125=ADVANCED_FACE('',(#1023),#54,.F.);
#1126=ADVANCED_FACE('',(#1024,#1025),#1078,.T.);
#1127=ADVANCED_FACE('',(#1026,#1027),#55,.F.);
#1128=ADVANCED_FACE('',(#1028,#1029),#56,.F.);
#1129=ADVANCED_FACE('',(#1030),#57,.T.);
#1130=ADVANCED_FACE('',(#1031),#58,.T.);
#1131=ADVANCED_FACE('',(#1032),#1079,.F.);
#1132=ADVANCED_FACE('',(#1033),#59,.T.);
#1133=ADVANCED_FACE('',(#1034),#60,.T.);
#1134=ADVANCED_FACE('',(#1035,#1036),#1080,.F.);
#1135=ADVANCED_FACE('',(#1037),#61,.T.);
#1136=ADVANCED_FACE('',(#1038),#62,.T.);
#1137=ADVANCED_FACE('',(#1039),#1081,.F.);
#1138=ADVANCED_FACE('',(#1040),#63,.T.);
#1139=ADVANCED_FACE('',(#1041),#64,.T.);
#1140=ADVANCED_FACE('',(#1042,#1043),#1082,.F.);
#1141=ADVANCED_FACE('',(#1044),#1083,.F.);
#1142=ADVANCED_FACE('',(#1045),#1084,.F.);
#1143=ADVANCED_FACE('',(#1046),#1085,.F.);
#1144=ADVANCED_FACE('',(#1047),#1086,.F.);
#1145=ADVANCED_FACE('',(#1048),#1087,.F.);
#1146=ADVANCED_FACE('',(#1049),#1088,.F.);
#1147=ADVANCED_FACE('',(#1050),#1089,.F.);
#1148=ADVANCED_FACE('',(#1051),#1090,.F.);
#1149=ADVANCED_FACE('',(#1052),#1091,.T.);
#1150=ADVANCED_FACE('',(#1053),#1092,.T.);
#1151=ADVANCED_FACE('',(#1054),#1093,.T.);
#1152=ADVANCED_FACE('',(#1055),#1094,.T.);
#1153=ADVANCED_FACE('',(#1056),#20,.T.);
#1154=ADVANCED_FACE('',(#1057),#21,.T.);
#1155=ADVANCED_FACE('',(#1058,#1059,#1060),#1095,.T.);
#1156=ADVANCED_FACE('',(#1061),#1096,.F.);
#1157=ADVANCED_FACE('',(#1062),#1097,.F.);
#1158=ADVANCED_FACE('',(#1063),#1098,.F.);
#1159=ADVANCED_FACE('',(#1064),#1099,.F.);
#1160=ADVANCED_FACE('',(#1065),#65,.F.);
#1161=ADVANCED_FACE('',(#1066),#1100,.F.);
#1162=ADVANCED_FACE('',(#1067),#66,.F.);
#1163=ADVANCED_FACE('',(#1068),#1101,.F.);
#1164=ADVANCED_FACE('',(#1069),#1102,.F.);
#1165=ADVANCED_FACE('',(#1070),#67,.F.);
#1166=ADVANCED_FACE('',(#1071),#1103,.F.);
#1167=ADVANCED_FACE('',(#1072),#68,.F.);
#1168=CLOSED_SHELL('',(#1104,#1105,#1106,#1107,#1108,#1109,#1110,#1111,
#1112,#1113,#1114,#1115,#1116,#1117,#1118,#1119,#1120,#1121,#1122,#1123,
#1124,#1125,#1126,#1127,#1128,#1129,#1130,#1131,#1132,#1133,#1134,#1135,
#1136,#1137,#1138,#1139,#1140,#1141,#1142,#1143,#1144,#1145,#1146,#1147,
#1148,#1149,#1150,#1151,#1152,#1153,#1154,#1155,#1156,#1157,#1158,#1159,
#1160,#1161,#1162,#1163,#1164,#1165,#1166,#1167));
#1169=STYLED_ITEM('',(#1170),#1177);
#1170=PRESENTATION_STYLE_ASSIGNMENT((#1171));
#1171=SURFACE_STYLE_USAGE(.BOTH.,#1172);
#1172=SURFACE_SIDE_STYLE('',(#1173));
#1173=SURFACE_STYLE_FILL_AREA(#1174);
#1174=FILL_AREA_STYLE('',(#1175));
#1175=FILL_AREA_STYLE_COLOUR('',#1176);
#1176=COLOUR_RGB('',0.506983280181885,0.531564235687256,0.550000011920929);
#1177=MANIFOLD_SOLID_BREP('',#1168);
#1178=SHAPE_DEFINITION_REPRESENTATION(#2058,#1179);
#1179=SHAPE_REPRESENTATION('ClGray_4211775_MCM',(#1180),#2053);
#1180=AXIS2_PLACEMENT_3D('',#1650,#1308,#1309);
#1181=AXIS2_PLACEMENT_3D('',#1651,#1310,#1311);
#1182=AXIS2_PLACEMENT_3D('',#1652,#1312,#1313);
#1183=AXIS2_PLACEMENT_3D('',#1657,#1315,#1316);
#1184=AXIS2_PLACEMENT_3D('',#1661,#1318,#1319);
#1185=AXIS2_PLACEMENT_3D('',#1662,#1320,#1321);
#1186=AXIS2_PLACEMENT_3D('',#1666,#1323,#1324);
#1187=AXIS2_PLACEMENT_3D('',#1668,#1325,#1326);
#1188=AXIS2_PLACEMENT_3D('',#1670,#1327,#1328);
#1189=AXIS2_PLACEMENT_3D('',#1685,#1331,#1332);
#1190=AXIS2_PLACEMENT_3D('',#1686,#1333,#1334);
#1191=AXIS2_PLACEMENT_3D('',#1689,#1335,#1336);
#1192=AXIS2_PLACEMENT_3D('',#1707,#1340,#1341);
#1193=AXIS2_PLACEMENT_3D('',#1708,#1342,#1343);
#1194=AXIS2_PLACEMENT_3D('',#1712,#1346,#1347);
#1195=AXIS2_PLACEMENT_3D('',#1713,#1348,#1349);
#1196=AXIS2_PLACEMENT_3D('',#1717,#1352,#1353);
#1197=AXIS2_PLACEMENT_3D('',#1718,#1354,#1355);
#1198=AXIS2_PLACEMENT_3D('',#1728,#1358,#1359);
#1199=AXIS2_PLACEMENT_3D('',#1738,#1364,#1365);
#1200=AXIS2_PLACEMENT_3D('',#1740,#1366,#1367);
#1201=AXIS2_PLACEMENT_3D('',#1741,#1368,#1369);
#1202=AXIS2_PLACEMENT_3D('',#1746,#1372,#1373);
#1203=AXIS2_PLACEMENT_3D('',#1748,#1374,#1375);
#1204=AXIS2_PLACEMENT_3D('',#1749,#1376,#1377);
#1205=AXIS2_PLACEMENT_3D('',#1750,#1378,#1379);
#1206=AXIS2_PLACEMENT_3D('',#1752,#1380,#1381);
#1207=AXIS2_PLACEMENT_3D('',#1755,#1383,#1384);
#1208=AXIS2_PLACEMENT_3D('',#1758,#1386,#1387);
#1209=AXIS2_PLACEMENT_3D('',#1760,#1388,#1389);
#1210=AXIS2_PLACEMENT_3D('',#1761,#1390,#1391);
#1211=AXIS2_PLACEMENT_3D('',#1768,#1398,#1399);
#1212=AXIS2_PLACEMENT_3D('',#1770,#1400,#1401);
#1213=AXIS2_PLACEMENT_3D('',#1772,#1402,#1403);
#1214=AXIS2_PLACEMENT_3D('',#1773,#1404,#1405);
#1215=AXIS2_PLACEMENT_3D('',#1775,#1406,#1407);
#1216=AXIS2_PLACEMENT_3D('',#1776,#1408,#1409);
#1217=AXIS2_PLACEMENT_3D('',#1777,#1410,#1411);
#1218=AXIS2_PLACEMENT_3D('',#1778,#1412,#1413);
#1219=AXIS2_PLACEMENT_3D('',#1779,#1414,#1415);
#1220=AXIS2_PLACEMENT_3D('',#1781,#1416,#1417);
#1221=AXIS2_PLACEMENT_3D('',#1782,#1418,#1419);
#1222=AXIS2_PLACEMENT_3D('',#1784,#1420,#1421);
#1223=AXIS2_PLACEMENT_3D('',#1786,#1422,#1423);
#1224=AXIS2_PLACEMENT_3D('',#1787,#1424,#1425);
#1225=AXIS2_PLACEMENT_3D('',#1789,#1426,#1427);
#1226=AXIS2_PLACEMENT_3D('',#1790,#1428,#1429);
#1227=AXIS2_PLACEMENT_3D('',#1791,#1430,#1431);
#1228=AXIS2_PLACEMENT_3D('',#1793,#1432,#1433);
#1229=AXIS2_PLACEMENT_3D('',#1794,#1434,#1435);
#1230=AXIS2_PLACEMENT_3D('',#1801,#1437,#1438);
#1231=AXIS2_PLACEMENT_3D('',#1807,#1440,#1441);
#1232=AXIS2_PLACEMENT_3D('',#1815,#1442,#1443);
#1233=AXIS2_PLACEMENT_3D('',#1817,#1444,#1445);
#1234=AXIS2_PLACEMENT_3D('',#1821,#1447,#1448);
#1235=AXIS2_PLACEMENT_3D('',#1825,#1450,#1451);
#1236=AXIS2_PLACEMENT_3D('',#1827,#1452,#1453);
#1237=AXIS2_PLACEMENT_3D('',#1829,#1454,#1455);
#1238=AXIS2_PLACEMENT_3D('',#1833,#1457,#1458);
#1239=AXIS2_PLACEMENT_3D('',#1837,#1460,#1461);
#1240=AXIS2_PLACEMENT_3D('',#1839,#1462,#1463);
#1241=AXIS2_PLACEMENT_3D('',#1841,#1464,#1465);
#1242=AXIS2_PLACEMENT_3D('',#1845,#1467,#1468);
#1243=AXIS2_PLACEMENT_3D('',#1849,#1470,#1471);
#1244=AXIS2_PLACEMENT_3D('',#1851,#1472,#1473);
#1245=AXIS2_PLACEMENT_3D('',#1853,#1474,#1475);
#1246=AXIS2_PLACEMENT_3D('',#1857,#1477,#1478);
#1247=AXIS2_PLACEMENT_3D('',#1861,#1480,#1481);
#1248=AXIS2_PLACEMENT_3D('',#1863,#1482,#1483);
#1249=AXIS2_PLACEMENT_3D('',#1865,#1484,#1485);
#1250=AXIS2_PLACEMENT_3D('',#1866,#1486,#1487);
#1251=AXIS2_PLACEMENT_3D('',#1870,#1489,#1490);
#1252=AXIS2_PLACEMENT_3D('',#1874,#1492,#1493);
#1253=AXIS2_PLACEMENT_3D('',#1876,#1494,#1495);
#1254=AXIS2_PLACEMENT_3D('',#1878,#1496,#1497);
#1255=AXIS2_PLACEMENT_3D('',#1882,#1499,#1500);
#1256=AXIS2_PLACEMENT_3D('',#1886,#1502,#1503);
#1257=AXIS2_PLACEMENT_3D('',#1888,#1504,#1505);
#1258=AXIS2_PLACEMENT_3D('',#1890,#1506,#1507);
#1259=AXIS2_PLACEMENT_3D('',#1894,#1509,#1510);
#1260=AXIS2_PLACEMENT_3D('',#1898,#1512,#1513);
#1261=AXIS2_PLACEMENT_3D('',#1900,#1514,#1515);
#1262=AXIS2_PLACEMENT_3D('',#1902,#1516,#1517);
#1263=AXIS2_PLACEMENT_3D('',#1906,#1519,#1520);
#1264=AXIS2_PLACEMENT_3D('',#1910,#1522,#1523);
#1265=AXIS2_PLACEMENT_3D('',#1912,#1524,#1525);
#1266=AXIS2_PLACEMENT_3D('',#1914,#1526,#1527);
#1267=AXIS2_PLACEMENT_3D('',#1915,#1528,#1529);
#1268=AXIS2_PLACEMENT_3D('',#1918,#1532,#1533);
#1269=AXIS2_PLACEMENT_3D('',#1921,#1536,#1537);
#1270=AXIS2_PLACEMENT_3D('',#1924,#1540,#1541);
#1271=AXIS2_PLACEMENT_3D('',#1927,#1544,#1545);
#1272=AXIS2_PLACEMENT_3D('',#1930,#1548,#1549);
#1273=AXIS2_PLACEMENT_3D('',#1949,#1554,#1555);
#1274=AXIS2_PLACEMENT_3D('',#1952,#1558,#1559);
#1275=AXIS2_PLACEMENT_3D('',#1955,#1562,#1563);
#1276=AXIS2_PLACEMENT_3D('',#1958,#1566,#1567);
#1277=AXIS2_PLACEMENT_3D('',#1961,#1570,#1571);
#1278=AXIS2_PLACEMENT_3D('',#1964,#1574,#1575);
#1279=AXIS2_PLACEMENT_3D('',#1983,#1580,#1581);
#1280=AXIS2_PLACEMENT_3D('',#1984,#1582,#1583);
#1281=AXIS2_PLACEMENT_3D('',#1985,#1584,#1585);
#1282=AXIS2_PLACEMENT_3D('',#1986,#1586,#1587);
#1283=AXIS2_PLACEMENT_3D('',#1987,#1588,#1589);
#1284=AXIS2_PLACEMENT_3D('',#1988,#1590,#1591);
#1285=AXIS2_PLACEMENT_3D('',#1989,#1592,#1593);
#1286=AXIS2_PLACEMENT_3D('',#1990,#1594,#1595);
#1287=AXIS2_PLACEMENT_3D('',#1991,#1596,#1597);
#1288=AXIS2_PLACEMENT_3D('',#1992,#1598,#1599);
#1289=AXIS2_PLACEMENT_3D('',#1993,#1600,#1601);
#1290=AXIS2_PLACEMENT_3D('',#1994,#1602,#1603);
#1291=AXIS2_PLACEMENT_3D('',#1995,#1604,#1605);
#1292=AXIS2_PLACEMENT_3D('',#1996,#1606,#1607);
#1293=AXIS2_PLACEMENT_3D('',#1997,#1608,#1609);
#1294=AXIS2_PLACEMENT_3D('',#1998,#1610,#1611);
#1295=AXIS2_PLACEMENT_3D('',#1999,#1612,#1613);
#1296=AXIS2_PLACEMENT_3D('',#2032,#1618,#1619);
#1297=AXIS2_PLACEMENT_3D('',#2033,#1620,#1621);
#1298=AXIS2_PLACEMENT_3D('',#2034,#1622,#1623);
#1299=AXIS2_PLACEMENT_3D('',#2035,#1624,#1625);
#1300=AXIS2_PLACEMENT_3D('',#2036,#1626,#1627);
#1301=AXIS2_PLACEMENT_3D('',#2039,#1630,#1631);
#1302=AXIS2_PLACEMENT_3D('',#2041,#1633,#1634);
#1303=AXIS2_PLACEMENT_3D('',#2043,#1636,#1637);
#1304=AXIS2_PLACEMENT_3D('',#2044,#1638,#1639);
#1305=AXIS2_PLACEMENT_3D('',#2047,#1642,#1643);
#1306=AXIS2_PLACEMENT_3D('',#2049,#1645,#1646);
#1307=AXIS2_PLACEMENT_3D('',#2051,#1648,#1649);
#1308=DIRECTION('',(0.,0.,1.));
#1309=DIRECTION('',(1.,0.,0.));
#1310=DIRECTION('',(1.,0.,8.13151629364128E-17));
#1311=DIRECTION('',(8.13151629364128E-17,0.,-1.));
#1312=DIRECTION('',(1.,0.,8.13151629364128E-17));
#1313=DIRECTION('',(0.,-1.,0.));
#1314=DIRECTION('',(-1.,0.,0.));
#1315=DIRECTION('',(-1.,0.,0.));
#1316=DIRECTION('',(0.,0.,1.));
#1317=DIRECTION('',(-1.,0.,0.));
#1318=DIRECTION('',(1.,0.,8.13151629364128E-17));
#1319=DIRECTION('',(0.,-1.,0.));
#1320=DIRECTION('',(0.,-1.,0.));
#1321=DIRECTION('',(0.,0.,-1.));
#1322=DIRECTION('',(0.,0.,-1.));
#1323=DIRECTION('',(0.,-1.,0.));
#1324=DIRECTION('',(0.,0.,-1.));
#1325=DIRECTION('',(0.,-1.,0.));
#1326=DIRECTION('',(1.,0.,0.));
#1327=DIRECTION('',(0.,-1.,0.));
#1328=DIRECTION('',(0.,0.,-1.));
#1329=DIRECTION('',(0.,0.,1.));
#1330=DIRECTION('',(1.,0.,0.));
#1331=DIRECTION('',(0.,-1.,0.));
#1332=DIRECTION('',(0.,0.,-1.));
#1333=DIRECTION('',(0.,-1.,0.));
#1334=DIRECTION('',(-1.,0.,0.));
#1335=DIRECTION('',(0.,-1.,0.));
#1336=DIRECTION('',(0.,0.,-1.));
#1337=DIRECTION('',(0.000376139270561275,0.,-0.999999929259622));
#1338=DIRECTION('',(1.,0.,0.));
#1339=DIRECTION('',(0.,0.,1.));
#1340=DIRECTION('',(0.,-1.,0.));
#1341=DIRECTION('',(0.,0.,-1.));
#1342=DIRECTION('',(1.,0.,0.));
#1343=DIRECTION('',(0.,0.,-1.));
#1344=DIRECTION('',(0.,-1.,0.));
#1345=DIRECTION('',(0.,0.,1.));
#1346=DIRECTION('',(1.,0.,0.));
#1347=DIRECTION('',(0.,0.,-1.));
#1348=DIRECTION('',(1.,0.,0.));
#1349=DIRECTION('',(0.,0.,-1.));
#1350=DIRECTION('',(0.,0.,1.));
#1351=DIRECTION('',(0.,-1.,0.));
#1352=DIRECTION('',(1.,0.,0.));
#1353=DIRECTION('',(0.,0.,-1.));
#1354=DIRECTION('',(-1.,0.,0.));
#1355=DIRECTION('',(0.,0.,1.));
#1356=DIRECTION('',(0.,0.,-1.));
#1357=DIRECTION('',(0.,-1.,0.));
#1358=DIRECTION('',(0.,-1.,0.));
#1359=DIRECTION('',(0.,0.,-1.));
#1360=DIRECTION('',(0.,0.,1.));
#1361=DIRECTION('',(-1.,0.,0.));
#1362=DIRECTION('',(0.,0.,1.));
#1363=DIRECTION('',(0.000376139270561275,0.,-0.999999929259622));
#1364=DIRECTION('',(0.,-1.,0.));
#1365=DIRECTION('',(0.,0.,-1.));
#1366=DIRECTION('',(0.,-1.,0.));
#1367=DIRECTION('',(0.,0.,-1.));
#1368=DIRECTION('',(0.,-1.,0.));
#1369=DIRECTION('',(0.,0.,-1.));
#1370=DIRECTION('',(-1.,0.,0.));
#1371=DIRECTION('',(0.,0.,1.));
#1372=DIRECTION('',(0.,-1.,0.));
#1373=DIRECTION('',(0.,0.,-1.));
#1374=DIRECTION('',(0.,-1.,0.));
#1375=DIRECTION('',(0.,0.,-1.));
#1376=DIRECTION('',(0.,-1.,0.));
#1377=DIRECTION('',(0.,0.,-1.));
#1378=DIRECTION('',(0.,-1.,0.));
#1379=DIRECTION('',(0.,0.,-1.));
#1380=DIRECTION('',(0.,-1.,0.));
#1381=DIRECTION('',(0.,0.,-1.));
#1382=DIRECTION('',(8.13151629364128E-17,0.,-1.));
#1383=DIRECTION('',(0.,-1.,0.));
#1384=DIRECTION('',(0.,0.,-1.));
#1385=DIRECTION('',(8.13151629364128E-17,0.,-1.));
#1386=DIRECTION('',(0.,-1.,0.));
#1387=DIRECTION('',(0.,0.,-1.));
#1388=DIRECTION('',(0.,-1.,0.));
#1389=DIRECTION('',(0.,0.,-1.));
#1390=DIRECTION('',(0.,-1.,0.));
#1391=DIRECTION('',(0.,0.,-1.));
#1392=DIRECTION('',(0.,-1.,0.));
#1393=DIRECTION('',(0.,-1.,0.));
#1394=DIRECTION('',(0.,-1.,0.));
#1395=DIRECTION('',(0.,-1.,0.));
#1396=DIRECTION('',(0.,-1.,0.));
#1397=DIRECTION('',(0.,-1.,0.));
#1398=DIRECTION('',(0.,1.,0.));
#1399=DIRECTION('',(1.,0.,0.));
#1400=DIRECTION('',(0.,1.,0.));
#1401=DIRECTION('',(1.,0.,0.));
#1402=DIRECTION('',(0.,1.,0.));
#1403=DIRECTION('',(0.,0.,1.));
#1404=DIRECTION('',(0.,1.,0.));
#1405=DIRECTION('',(1.,0.,0.));
#1406=DIRECTION('',(1.,0.,8.13151629364128E-17));
#1407=DIRECTION('',(8.13151629364128E-17,0.,-1.));
#1408=DIRECTION('',(-1.,0.,0.));
#1409=DIRECTION('',(0.,0.,1.));
#1410=DIRECTION('',(-1.,0.,0.));
#1411=DIRECTION('',(0.,1.,0.));
#1412=DIRECTION('',(0.,1.,0.));
#1413=DIRECTION('',(0.,0.,1.));
#1414=DIRECTION('',(0.,-1.,0.));
#1415=DIRECTION('',(-1.,0.,0.));
#1416=DIRECTION('',(0.,-1.,0.));
#1417=DIRECTION('',(0.,0.,-1.));
#1418=DIRECTION('',(0.,-1.,0.));
#1419=DIRECTION('',(0.,0.,-1.));
#1420=DIRECTION('',(0.,1.,0.));
#1421=DIRECTION('',(0.,0.,1.));
#1422=DIRECTION('',(0.,1.,0.));
#1423=DIRECTION('',(0.,0.,1.));
#1424=DIRECTION('',(0.,1.,0.));
#1425=DIRECTION('',(1.,0.,0.));
#1426=DIRECTION('',(0.,-1.,0.));
#1427=DIRECTION('',(0.,0.,-1.));
#1428=DIRECTION('',(0.,-1.,0.));
#1429=DIRECTION('',(0.,0.,-1.));
#1430=DIRECTION('',(0.,-1.,0.));
#1431=DIRECTION('',(-1.,0.,0.));
#1432=DIRECTION('',(0.,1.,0.));
#1433=DIRECTION('',(0.,0.,1.));
#1434=DIRECTION('',(-1.,0.,0.));
#1435=DIRECTION('',(0.,0.,1.));
#1436=DIRECTION('',(0.,1.,0.));
#1437=DIRECTION('',(0.999999929259622,0.,0.000376139270561275));
#1438=DIRECTION('',(0.000376139270561275,0.,-0.999999929259622));
#1439=DIRECTION('',(0.,1.,0.));
#1440=DIRECTION('',(-1.,0.,0.));
#1441=DIRECTION('',(0.,0.,1.));
#1442=DIRECTION('',(-1.,0.,0.));
#1443=DIRECTION('',(0.,1.,0.));
#1444=DIRECTION('',(-1.,0.,0.));
#1445=DIRECTION('',(0.,0.,1.));
#1446=DIRECTION('',(0.,-1.,0.));
#1447=DIRECTION('',(-1.,0.,0.));
#1448=DIRECTION('',(0.,0.,1.));
#1449=DIRECTION('',(0.,8.1835253831517E-17,-1.));
#1450=DIRECTION('',(-1.,0.,0.));
#1451=DIRECTION('',(0.,0.,1.));
#1452=DIRECTION('',(-1.,0.,0.));
#1453=DIRECTION('',(0.,0.,1.));
#1454=DIRECTION('',(-1.,0.,0.));
#1455=DIRECTION('',(0.,0.,1.));
#1456=DIRECTION('',(0.,0.,1.));
#1457=DIRECTION('',(-1.,0.,0.));
#1458=DIRECTION('',(0.,0.,1.));
#1459=DIRECTION('',(0.,-1.,0.));
#1460=DIRECTION('',(-1.,0.,0.));
#1461=DIRECTION('',(0.,0.,1.));
#1462=DIRECTION('',(-1.,0.,0.));
#1463=DIRECTION('',(0.,0.,1.));
#1464=DIRECTION('',(-1.,0.,0.));
#1465=DIRECTION('',(0.,0.,1.));
#1466=DIRECTION('',(0.,1.,0.));
#1467=DIRECTION('',(-1.,0.,0.));
#1468=DIRECTION('',(0.,0.,1.));
#1469=DIRECTION('',(0.,0.,1.));
#1470=DIRECTION('',(-1.,0.,0.));
#1471=DIRECTION('',(0.,0.,1.));
#1472=DIRECTION('',(-1.,0.,0.));
#1473=DIRECTION('',(0.,0.,1.));
#1474=DIRECTION('',(-1.,0.,0.));
#1475=DIRECTION('',(0.,0.,1.));
#1476=DIRECTION('',(0.,1.63670507663034E-16,-1.));
#1477=DIRECTION('',(-1.,0.,0.));
#1478=DIRECTION('',(0.,0.,1.));
#1479=DIRECTION('',(0.,1.,0.));
#1480=DIRECTION('',(-1.,0.,0.));
#1481=DIRECTION('',(0.,0.,1.));
#1482=DIRECTION('',(-1.,0.,0.));
#1483=DIRECTION('',(0.,0.,1.));
#1484=DIRECTION('',(-1.,0.,0.));
#1485=DIRECTION('',(0.,0.,1.));
#1486=DIRECTION('',(1.,0.,8.13151629364128E-17));
#1487=DIRECTION('',(8.13151629364128E-17,0.,-1.));
#1488=DIRECTION('',(8.13151629364128E-17,8.1835253831517E-17,-1.));
#1489=DIRECTION('',(1.,0.,8.13151629364128E-17));
#1490=DIRECTION('',(8.13151629364128E-17,0.,-1.));
#1491=DIRECTION('',(0.,-1.,0.));
#1492=DIRECTION('',(1.,0.,8.13151629364128E-17));
#1493=DIRECTION('',(8.13151629364128E-17,0.,-1.));
#1494=DIRECTION('',(1.,0.,8.13151629364128E-17));
#1495=DIRECTION('',(0.,1.,0.));
#1496=DIRECTION('',(1.,0.,8.13151629364128E-17));
#1497=DIRECTION('',(8.13151629364128E-17,0.,-1.));
#1498=DIRECTION('',(0.,1.,0.));
#1499=DIRECTION('',(1.,0.,8.13151629364128E-17));
#1500=DIRECTION('',(8.13151629364128E-17,0.,-1.));
#1501=DIRECTION('',(8.13151629364128E-17,1.63670507663034E-16,-1.));
#1502=DIRECTION('',(1.,0.,8.13151629364128E-17));
#1503=DIRECTION('',(8.13151629364128E-17,0.,-1.));
#1504=DIRECTION('',(1.,0.,8.13151629364128E-17));
#1505=DIRECTION('',(0.,-1.,0.));
#1506=DIRECTION('',(1.,0.,8.13151629364128E-17));
#1507=DIRECTION('',(8.13151629364128E-17,0.,-1.));
#1508=DIRECTION('',(-8.13151629364128E-17,0.,1.));
#1509=DIRECTION('',(1.,0.,8.13151629364128E-17));
#1510=DIRECTION('',(8.13151629364128E-17,0.,-1.));
#1511=DIRECTION('',(0.,1.,0.));
#1512=DIRECTION('',(1.,0.,8.13151629364128E-17));
#1513=DIRECTION('',(8.13151629364128E-17,0.,-1.));
#1514=DIRECTION('',(1.,0.,8.13151629364128E-17));
#1515=DIRECTION('',(0.,-1.,0.));
#1516=DIRECTION('',(1.,0.,8.13151629364128E-17));
#1517=DIRECTION('',(8.13151629364128E-17,0.,-1.));
#1518=DIRECTION('',(0.,-1.,0.));
#1519=DIRECTION('',(1.,0.,8.13151629364128E-17));
#1520=DIRECTION('',(8.13151629364128E-17,0.,-1.));
#1521=DIRECTION('',(-8.13151629364128E-17,0.,1.));
#1522=DIRECTION('',(1.,0.,8.13151629364128E-17));
#1523=DIRECTION('',(8.13151629364128E-17,0.,-1.));
#1524=DIRECTION('',(1.,0.,8.13151629364128E-17));
#1525=DIRECTION('',(0.,-1.,0.));
#1526=DIRECTION('',(1.,0.,8.13151629364128E-17));
#1527=DIRECTION('',(8.13151629364128E-17,0.,-1.));
#1528=DIRECTION('',(8.13151629364128E-17,0.,-1.));
#1529=DIRECTION('',(-1.,0.,-8.13151629364128E-17));
#1530=DIRECTION('',(-1.,0.,-8.13151629364128E-17));
#1531=DIRECTION('',(1.,0.,8.13151629364128E-17));
#1532=DIRECTION('',(0.,-1.,0.));
#1533=DIRECTION('',(0.,0.,-1.));
#1534=DIRECTION('',(-1.,0.,-8.13151629364128E-17));
#1535=DIRECTION('',(1.,0.,8.13151629364128E-17));
#1536=DIRECTION('',(-1.,0.,-8.13151629364128E-17));
#1537=DIRECTION('',(-8.13151629364128E-17,0.,1.));
#1538=DIRECTION('',(-1.,0.,-8.13151629364128E-17));
#1539=DIRECTION('',(-1.,0.,-8.13151629364128E-17));
#1540=DIRECTION('',(-6.65444699925251E-33,1.,8.1835253831517E-17));
#1541=DIRECTION('',(0.,-8.1835253831517E-17,1.));
#1542=DIRECTION('',(-1.,-1.3684555315672E-48,-8.13151629364128E-17));
#1543=DIRECTION('',(1.,1.3684555315672E-48,8.13151629364128E-17));
#1544=DIRECTION('',(8.13151629364128E-17,0.,-1.));
#1545=DIRECTION('',(-1.,0.,-8.13151629364128E-17));
#1546=DIRECTION('',(-1.,-1.3684555315672E-48,-8.13151629364128E-17));
#1547=DIRECTION('',(1.,0.,8.13151629364128E-17));
#1548=DIRECTION('',(-1.,0.,-8.13151629364128E-17));
#1549=DIRECTION('',(-8.13151629364128E-17,0.,1.));
#1550=DIRECTION('',(-1.,0.,-8.13151629364128E-17));
#1551=DIRECTION('',(-1.,0.,-8.13151629364128E-17));
#1552=DIRECTION('',(-1.,0.,-8.13151629364128E-17));
#1553=DIRECTION('',(-1.,0.,-8.13151629364128E-17));
#1554=DIRECTION('',(-8.13151629364128E-17,0.,1.));
#1555=DIRECTION('',(1.,0.,8.13151629364128E-17));
#1556=DIRECTION('',(-1.,-2.73691106313441E-48,-8.13151629364128E-17));
#1557=DIRECTION('',(1.,0.,8.13151629364128E-17));
#1558=DIRECTION('',(-1.3308893998505E-32,1.,1.63670507663034E-16));
#1559=DIRECTION('',(0.,-1.63670507663034E-16,1.));
#1560=DIRECTION('',(-1.,-2.73691106313441E-48,-8.13151629364128E-17));
#1561=DIRECTION('',(1.,2.73691106313441E-48,8.13151629364128E-17));
#1562=DIRECTION('',(-1.,0.,-8.13151629364128E-17));
#1563=DIRECTION('',(-8.13151629364128E-17,0.,1.));
#1564=DIRECTION('',(-1.,0.,-8.13151629364128E-17));
#1565=DIRECTION('',(-1.,0.,-8.13151629364128E-17));
#1566=DIRECTION('',(0.,-1.,0.));
#1567=DIRECTION('',(0.,0.,-1.));
#1568=DIRECTION('',(-1.,0.,-8.13151629364128E-17));
#1569=DIRECTION('',(1.,0.,8.13151629364128E-17));
#1570=DIRECTION('',(-8.13151629364128E-17,0.,1.));
#1571=DIRECTION('',(1.,0.,8.13151629364128E-17));
#1572=DIRECTION('',(-1.,0.,-8.13151629364128E-17));
#1573=DIRECTION('',(1.,0.,8.13151629364128E-17));
#1574=DIRECTION('',(-1.,0.,-8.13151629364128E-17));
#1575=DIRECTION('',(-8.13151629364128E-17,0.,1.));
#1576=DIRECTION('',(-1.,0.,-8.13151629364128E-17));
#1577=DIRECTION('',(-1.,0.,-8.13151629364128E-17));
#1578=DIRECTION('',(-1.,0.,-8.13151629364128E-17));
#1579=DIRECTION('',(-1.,0.,-8.13151629364128E-17));
#1580=DIRECTION('',(-1.,0.,-8.13151629364128E-17));
#1581=DIRECTION('',(-8.13151629364128E-17,0.,1.));
#1582=DIRECTION('',(-1.,0.,-8.13151629364128E-17));
#1583=DIRECTION('',(-8.13151629364128E-17,0.,1.));
#1584=DIRECTION('',(-1.,0.,-8.13151629364128E-17));
#1585=DIRECTION('',(-8.13151629364128E-17,0.,1.));
#1586=DIRECTION('',(-1.,0.,-8.13151629364128E-17));
#1587=DIRECTION('',(-8.13151629364128E-17,0.,1.));
#1588=DIRECTION('',(-1.,0.,-8.13151629364128E-17));
#1589=DIRECTION('',(-8.13151629364128E-17,0.,1.));
#1590=DIRECTION('',(-1.,0.,-8.13151629364128E-17));
#1591=DIRECTION('',(-8.13151629364128E-17,0.,1.));
#1592=DIRECTION('',(-1.,0.,-8.13151629364128E-17));
#1593=DIRECTION('',(-8.13151629364128E-17,0.,1.));
#1594=DIRECTION('',(-1.,0.,-8.13151629364128E-17));
#1595=DIRECTION('',(-8.13151629364128E-17,0.,1.));
#1596=DIRECTION('',(-1.,0.,-8.13151629364128E-17));
#1597=DIRECTION('',(-8.13151629364128E-17,0.,1.));
#1598=DIRECTION('',(-1.,0.,-8.13151629364128E-17));
#1599=DIRECTION('',(-8.13151629364128E-17,0.,1.));
#1600=DIRECTION('',(-1.,-2.73691106313441E-48,-8.13151629364128E-17));
#1601=DIRECTION('',(-8.13151629364128E-17,0.,1.));
#1602=DIRECTION('',(-1.,-1.3684555315672E-48,-8.13151629364128E-17));
#1603=DIRECTION('',(-8.13151629364128E-17,0.,1.));
#1604=DIRECTION('',(1.,0.,0.));
#1605=DIRECTION('',(0.,0.,-1.));
#1606=DIRECTION('',(-1.,0.,0.));
#1607=DIRECTION('',(0.,0.,1.));
#1608=DIRECTION('',(-1.,0.,0.));
#1609=DIRECTION('',(0.,0.,1.));
#1610=DIRECTION('',(-1.,0.,0.));
#1611=DIRECTION('',(0.,0.,1.));
#1612=DIRECTION('',(1.,0.,0.));
#1613=DIRECTION('',(0.,0.,-1.));
#1614=DIRECTION('',(1.,0.,0.));
#1615=DIRECTION('',(1.,0.,0.));
#1616=DIRECTION('',(1.,0.,0.));
#1617=DIRECTION('',(1.,0.,0.));
#1618=DIRECTION('',(0.,-1.,0.));
#1619=DIRECTION('',(0.,0.,-1.));
#1620=DIRECTION('',(0.,-1.,0.));
#1621=DIRECTION('',(0.,0.,-1.));
#1622=DIRECTION('',(0.,-1.,0.));
#1623=DIRECTION('',(0.,0.,-1.));
#1624=DIRECTION('',(0.,-1.,0.));
#1625=DIRECTION('',(0.,0.,-1.));
#1626=DIRECTION('',(3.85521942228697E-16,0.,-1.));
#1627=DIRECTION('',(-1.,0.,-3.85521942228697E-16));
#1628=DIRECTION('',(0.,1.,0.));
#1629=DIRECTION('',(0.,1.,0.));
#1630=DIRECTION('',(0.,1.,0.));
#1631=DIRECTION('',(0.,0.,1.));
#1632=DIRECTION('',(0.,1.,0.));
#1633=DIRECTION('',(0.,0.,1.));
#1634=DIRECTION('',(1.,0.,0.));
#1635=DIRECTION('',(0.,1.,0.));
#1636=DIRECTION('',(0.,1.,0.));
#1637=DIRECTION('',(0.,0.,1.));
#1638=DIRECTION('',(0.,1.,0.));
#1639=DIRECTION('',(0.,0.,1.));
#1640=DIRECTION('',(0.,1.,0.));
#1641=DIRECTION('',(0.,1.,0.));
#1642=DIRECTION('',(0.,0.,1.));
#1643=DIRECTION('',(1.,0.,0.));
#1644=DIRECTION('',(0.,1.,0.));
#1645=DIRECTION('',(0.,1.,0.));
#1646=DIRECTION('',(0.,0.,1.));
#1647=DIRECTION('',(0.,1.,0.));
#1648=DIRECTION('',(3.85521942228697E-16,0.,-1.));
#1649=DIRECTION('',(-1.,0.,-3.85521942228697E-16));
#1650=CARTESIAN_POINT('',(0.,0.,0.));
#1651=CARTESIAN_POINT('',(-4.,4.,-8.));
#1652=CARTESIAN_POINT('',(-4.,4.,-8.));
#1653=CARTESIAN_POINT('',(-4.,0.4,-8.));
#1654=CARTESIAN_POINT('',(33.6,7.6,-8.));
#1655=CARTESIAN_POINT('',(-2.8,7.6,-8.));
#1656=CARTESIAN_POINT('',(-3.6,7.6,-8.));
#1657=CARTESIAN_POINT('',(-2.8,4.,-8.));
#1658=CARTESIAN_POINT('',(-2.8,0.4,-8.));
#1659=CARTESIAN_POINT('',(33.6,0.4,-8.));
#1660=CARTESIAN_POINT('',(-3.6,0.4,-8.));
#1661=CARTESIAN_POINT('',(-3.6,4.,-8.));
#1662=CARTESIAN_POINT('',(0.,3.1,0.));
#1663=CARTESIAN_POINT('',(2.80295748613679,3.1,-2.25907709715931));
#1664=CARTESIAN_POINT('',(2.80295748613679,3.1,-3.39210654565073));
#1665=CARTESIAN_POINT('',(2.80295748613679,3.1,-4.51431498841332));
#1666=CARTESIAN_POINT('',(2.30295748613679,3.1,-3.39210654565073));
#1667=CARTESIAN_POINT('',(2.02210901221767,3.1,-2.97843501569333));
#1668=CARTESIAN_POINT('',(0.,3.1,0.));
#1669=CARTESIAN_POINT('',(-2.01951219512195,3.1,-2.98019638509843));
#1670=CARTESIAN_POINT('',(-2.3,3.1,-3.39411254969543));
#1671=CARTESIAN_POINT('',(-2.8,3.1,-3.39411254969543));
#1672=CARTESIAN_POINT('',(-2.8,3.1,-4.90717967697245));
#1673=CARTESIAN_POINT('',(-2.8,3.1,-4.51431498841333));
#1674=CARTESIAN_POINT('',(-2.6501220663978,3.1,-5.40144270796274));
#1675=CARTESIAN_POINT('',(-2.69941094642638,3.1,-5.10562063480783));
#1676=CARTESIAN_POINT('',(-2.74952911834738,3.1,-4.80993680544685));
#1677=CARTESIAN_POINT('',(-2.8,3.1,-4.51431498841333));
#1678=CARTESIAN_POINT('',(-2.6501220663978,3.1,-5.40144270796274));
#1679=CARTESIAN_POINT('',(-3.6,3.1,-5.40144270796274));
#1680=CARTESIAN_POINT('',(2.65307955253453,3.1,-5.40144270796274));
#1681=CARTESIAN_POINT('',(2.80295748613679,3.1,-4.51431498841332));
#1682=CARTESIAN_POINT('',(2.7524861619421,3.1,-4.80993939753716));
#1683=CARTESIAN_POINT('',(2.7023681478882,3.1,-5.1056223433702));
#1684=CARTESIAN_POINT('',(2.65307955253453,3.1,-5.40144270796274));
#1685=CARTESIAN_POINT('',(0.,4.9,0.));
#1686=CARTESIAN_POINT('',(0.,4.9,0.));
#1687=CARTESIAN_POINT('',(-2.01951219512195,4.9,-2.98019638509843));
#1688=CARTESIAN_POINT('',(2.02137996929245,4.9,-2.9789298447166));
#1689=CARTESIAN_POINT('',(2.30212718724974,4.9,-3.39267010092724));
#1690=CARTESIAN_POINT('',(2.80212715187955,4.9,-3.39248203129195));
#1691=CARTESIAN_POINT('',(2.80170141961224,4.9,-2.26063467976203));
#1692=CARTESIAN_POINT('',(2.80275330173819,4.9000000000001,-4.51431498841335));
#1693=CARTESIAN_POINT('',(2.80295748613678,4.9,-4.51431498841337));
#1694=CARTESIAN_POINT('',(2.75248616194209,4.9,-4.80993939753719));
#1695=CARTESIAN_POINT('',(2.7023681478882,4.9,-5.10562234337022));
#1696=CARTESIAN_POINT('',(2.65307955253453,4.9,-5.40144270796274));
#1697=CARTESIAN_POINT('',(2.65307955253453,4.9,-5.40144270796274));
#1698=CARTESIAN_POINT('',(-3.6,4.9,-5.40144270796274));
#1699=CARTESIAN_POINT('',(-2.6501220663978,4.9,-5.40144270796274));
#1700=CARTESIAN_POINT('',(-2.6501220663978,4.9,-5.40144270796274));
#1701=CARTESIAN_POINT('',(-2.69941094642638,4.9,-5.10562063480783));
#1702=CARTESIAN_POINT('',(-2.74952911834738,4.9,-4.80993680544685));
#1703=CARTESIAN_POINT('',(-2.8,4.9,-4.51431498841332));
#1704=CARTESIAN_POINT('',(-2.8,4.9,-4.51431498841332));
#1705=CARTESIAN_POINT('',(-2.8,4.9,-5.6));
#1706=CARTESIAN_POINT('',(-2.8,4.9,-3.39411254969543));
#1707=CARTESIAN_POINT('',(-2.3,4.9,-3.39411254969543));
#1708=CARTESIAN_POINT('',(-2.8,3.1,-4.90717967697245));
#1709=CARTESIAN_POINT('',(-2.8,3.1,-3.39411254969543));
#1710=CARTESIAN_POINT('',(-2.8,0.4,-3.39411254969543));
#1711=CARTESIAN_POINT('',(-2.8,0.4,-4.90717967697245));
#1712=CARTESIAN_POINT('',(-2.8,4.,-8.));
#1713=CARTESIAN_POINT('',(-2.8,3.1,-4.90717967697245));
#1714=CARTESIAN_POINT('',(-2.8,7.6,-5.6));
#1715=CARTESIAN_POINT('',(-2.8,7.6,-3.39411254969543));
#1716=CARTESIAN_POINT('',(-2.8,3.1,-3.39411254969543));
#1717=CARTESIAN_POINT('',(-2.8,4.,-8.));
#1718=CARTESIAN_POINT('',(2.80295748613679,3.1,-5.6));
#1719=CARTESIAN_POINT('',(2.80295748613679,0.4,-5.6));
#1720=CARTESIAN_POINT('',(2.80295748613679,0.4,-3.39210654565073));
#1721=CARTESIAN_POINT('',(2.80295748613679,0.400000001469807,-7.99989712801843));
#1722=CARTESIAN_POINT('',(2.80295748613679,3.1,-3.39210654565073));
#1723=CARTESIAN_POINT('',(2.80295748613679,3.1,-4.51431498841333));
#1724=CARTESIAN_POINT('',(2.80295748613679,2.32760326456942,-4.71374696794583));
#1725=CARTESIAN_POINT('',(2.80295748613679,0.944098579412207,-5.63328574181437));
#1726=CARTESIAN_POINT('',(2.80295748613679,0.400000000000001,-7.201518474406));
#1727=CARTESIAN_POINT('',(2.80295748613679,0.400000000000001,-8.));
#1728=CARTESIAN_POINT('',(0.,7.6,0.));
#1729=CARTESIAN_POINT('',(3.6,7.6,-8.));
#1730=CARTESIAN_POINT('',(3.6,7.6,-8.));
#1731=CARTESIAN_POINT('',(3.59999999999997,7.6,6.93889390390723E-15));
#1732=CARTESIAN_POINT('',(33.6,7.6,-8.));
#1733=CARTESIAN_POINT('',(2.80295748613679,7.6,-8.));
#1734=CARTESIAN_POINT('',(2.80295748613679,7.6,-12.8858723404255));
#1735=CARTESIAN_POINT('',(2.80295748613679,7.6,-5.6));
#1736=CARTESIAN_POINT('',(2.80170141961224,7.6,-2.26063467976203));
#1737=CARTESIAN_POINT('',(2.80212715187955,7.6,-3.39248203129195));
#1738=CARTESIAN_POINT('',(2.30212718724974,7.6,-3.39267010092724));
#1739=CARTESIAN_POINT('',(2.02137996929245,7.6,-2.9789298447166));
#1740=CARTESIAN_POINT('',(0.,7.6,0.));
#1741=CARTESIAN_POINT('',(0.,0.4,0.));
#1742=CARTESIAN_POINT('',(33.6,0.4,-8.));
#1743=CARTESIAN_POINT('',(3.6,0.4,-8.));
#1744=CARTESIAN_POINT('',(3.6,0.4,-8.));
#1745=CARTESIAN_POINT('',(3.59999999999997,0.399999999999998,6.93889390390723E-15));
#1746=CARTESIAN_POINT('',(0.,0.4,0.));
#1747=CARTESIAN_POINT('',(2.02210901221767,0.4,-2.97843501569333));
#1748=CARTESIAN_POINT('',(2.30295748613679,0.4,-3.39210654565073));
#1749=CARTESIAN_POINT('',(0.,0.4,0.));
#1750=CARTESIAN_POINT('',(-2.3,0.4,-3.39411254969543));
#1751=CARTESIAN_POINT('',(-2.01951219512195,0.4,-2.98019638509842));
#1752=CARTESIAN_POINT('',(0.,0.4,0.));
#1753=CARTESIAN_POINT('',(-3.59999999999997,0.399999999999998,6.50521303491303E-15));
#1754=CARTESIAN_POINT('',(-3.6,0.4,8.));
#1755=CARTESIAN_POINT('',(0.,7.6,0.));
#1756=CARTESIAN_POINT('',(-3.6,7.6,8.));
#1757=CARTESIAN_POINT('',(-3.59999999999997,7.6,6.50521303491303E-15));
#1758=CARTESIAN_POINT('',(0.,7.6,0.));
#1759=CARTESIAN_POINT('',(-2.01951219512195,7.6,-2.98019638509842));
#1760=CARTESIAN_POINT('',(-2.3,7.6,-3.39411254969543));
#1761=CARTESIAN_POINT('',(0.,8.,0.));
#1762=CARTESIAN_POINT('',(-3.59999999999997,37.6,6.50521303491303E-15));
#1763=CARTESIAN_POINT('',(-2.01951219512195,8.,-2.98019638509843));
#1764=CARTESIAN_POINT('',(2.02210901221767,8.,-2.97843501569333));
#1765=CARTESIAN_POINT('',(3.59999999999997,37.6,6.93889390390723E-15));
#1766=CARTESIAN_POINT('',(2.02137996929245,8.,-2.9789298447166));
#1767=CARTESIAN_POINT('',(-2.01951219512195,8.,-2.98019638509843));
#1768=CARTESIAN_POINT('',(0.,0.,0.));
#1769=CARTESIAN_POINT('',(3.6,0.,0.));
#1770=CARTESIAN_POINT('',(0.,8.,0.));
#1771=CARTESIAN_POINT('',(3.6,8.,0.));
#1772=CARTESIAN_POINT('',(0.,0.,0.));
#1773=CARTESIAN_POINT('',(0.,0.,0.));
#1774=CARTESIAN_POINT('',(3.1,0.,0.));
#1775=CARTESIAN_POINT('',(-3.6,0.4,8.));
#1776=CARTESIAN_POINT('',(3.6,0.4,-8.));
#1777=CARTESIAN_POINT('',(3.6,4.,-8.));
#1778=CARTESIAN_POINT('',(0.,8.,0.));
#1779=CARTESIAN_POINT('',(0.,8.,0.));
#1780=CARTESIAN_POINT('',(-3.1,8.,0.));
#1781=CARTESIAN_POINT('',(0.,20.,0.));
#1782=CARTESIAN_POINT('',(0.,7.2,0.));
#1783=CARTESIAN_POINT('',(0.,7.2,-2.4));
#1784=CARTESIAN_POINT('',(0.,0.799999999999999,0.));
#1785=CARTESIAN_POINT('',(0.,0.799999999999999,2.4));
#1786=CARTESIAN_POINT('',(0.,0.8,0.));
#1787=CARTESIAN_POINT('',(0.,0.8,0.));
#1788=CARTESIAN_POINT('',(3.1,0.8,0.));
#1789=CARTESIAN_POINT('',(0.,0.8,0.));
#1790=CARTESIAN_POINT('',(0.,7.2,0.));
#1791=CARTESIAN_POINT('',(0.,7.2,0.));
#1792=CARTESIAN_POINT('',(-3.1,7.2,0.));
#1793=CARTESIAN_POINT('',(0.,7.2,0.));
#1794=CARTESIAN_POINT('',(2.80295748613679,3.1,-5.6));
#1795=CARTESIAN_POINT('',(2.80295748613679,7.6,-8.));
#1796=CARTESIAN_POINT('',(2.80295748613679,7.6,-7.12263014815948));
#1797=CARTESIAN_POINT('',(2.80295748613679,7.26918076681801,-6.25505521266999));
#1798=CARTESIAN_POINT('',(2.80295748613679,6.68328157299975,-5.6));
#1799=CARTESIAN_POINT('',(2.80295748613679,6.68328157299975,-5.6));
#1800=CARTESIAN_POINT('',(2.80295748613679,4.9,-5.6));
#1801=CARTESIAN_POINT('',(2.80170141961224,4.9,-2.26063467976203));
#1802=CARTESIAN_POINT('',(2.80212715187955,7.6,-3.39248203129195));
#1803=CARTESIAN_POINT('',(2.80295748613679,6.68328157299975,-5.6));
#1804=CARTESIAN_POINT('',(2.80275819999969,6.20939612377333,-5.07017996099086));
#1805=CARTESIAN_POINT('',(2.80261603041479,5.58898205496184,-4.69220939006019));
#1806=CARTESIAN_POINT('',(2.80254911733958,4.9,-4.51431498841333));
#1807=CARTESIAN_POINT('',(4.,4.,-8.));
#1808=CARTESIAN_POINT('',(2.80295748613679,7.6,-8.));
#1809=CARTESIAN_POINT('',(2.80295748613679,7.6,-8.94247779607694));
#1810=CARTESIAN_POINT('',(2.80295748613679,6.82100184960841,-10.8199299265047));
#1811=CARTESIAN_POINT('',(2.80295748613679,4.,-11.9900350367477));
#1812=CARTESIAN_POINT('',(2.80295748613679,1.17899815039159,-10.8199299265047));
#1813=CARTESIAN_POINT('',(2.80295748613679,0.4,-8.94247779607694));
#1814=CARTESIAN_POINT('',(2.80295748613679,0.4,-8.));
#1815=CARTESIAN_POINT('',(4.,4.,-8.));
#1816=CARTESIAN_POINT('',(4.,7.6,-8.));
#1817=CARTESIAN_POINT('',(4.,4.,-8.));
#1818=CARTESIAN_POINT('',(4.,4.,-7.1));
#1819=CARTESIAN_POINT('',(4.,2.6,-7.1));
#1820=CARTESIAN_POINT('',(4.,1.84361413471522,-7.1));
#1821=CARTESIAN_POINT('',(4.,2.6,-6.6));
#1822=CARTESIAN_POINT('',(4.,3.1,-6.6));
#1823=CARTESIAN_POINT('',(4.,3.1,-8.));
#1824=CARTESIAN_POINT('',(4.,3.1,-5.84361413471522));
#1825=CARTESIAN_POINT('',(4.,3.2,-5.84361413471522));
#1826=CARTESIAN_POINT('',(4.,3.16521739130435,-5.74985822752892));
#1827=CARTESIAN_POINT('',(4.,4.,-8.));
#1828=CARTESIAN_POINT('',(4.,4.83478260869565,-5.74985822752892));
#1829=CARTESIAN_POINT('',(4.,4.8,-5.84361413471522));
#1830=CARTESIAN_POINT('',(4.,4.9,-5.84361413471522));
#1831=CARTESIAN_POINT('',(4.,4.9,-8.));
#1832=CARTESIAN_POINT('',(4.,4.9,-6.6));
#1833=CARTESIAN_POINT('',(4.,5.4,-6.6));
#1834=CARTESIAN_POINT('',(4.,5.4,-7.1));
#1835=CARTESIAN_POINT('',(4.,4.,-7.1));
#1836=CARTESIAN_POINT('',(4.,6.15638586528478,-7.1));
#1837=CARTESIAN_POINT('',(4.,6.15638586528478,-7.2));
#1838=CARTESIAN_POINT('',(4.,6.25014177247108,-7.16521739130435));
#1839=CARTESIAN_POINT('',(4.,4.,-8.));
#1840=CARTESIAN_POINT('',(4.,6.25014177247108,-8.83478260869565));
#1841=CARTESIAN_POINT('',(4.,6.15638586528478,-8.8));
#1842=CARTESIAN_POINT('',(4.,6.15638586528478,-8.9));
#1843=CARTESIAN_POINT('',(4.,4.,-8.9));
#1844=CARTESIAN_POINT('',(4.,5.4,-8.9));
#1845=CARTESIAN_POINT('',(4.,5.4,-9.4));
#1846=CARTESIAN_POINT('',(4.,4.9,-9.4));
#1847=CARTESIAN_POINT('',(4.,4.9,-8.));
#1848=CARTESIAN_POINT('',(4.,4.9,-10.1563858652848));
#1849=CARTESIAN_POINT('',(4.,4.8,-10.1563858652848));
#1850=CARTESIAN_POINT('',(4.,4.83478260869565,-10.2501417724711));
#1851=CARTESIAN_POINT('',(4.,4.,-8.));
#1852=CARTESIAN_POINT('',(4.,3.16521739130435,-10.2501417724711));
#1853=CARTESIAN_POINT('',(4.,3.2,-10.1563858652848));
#1854=CARTESIAN_POINT('',(4.,3.1,-10.1563858652848));
#1855=CARTESIAN_POINT('',(4.,3.1,-8.));
#1856=CARTESIAN_POINT('',(4.,3.1,-9.4));
#1857=CARTESIAN_POINT('',(4.,2.6,-9.4));
#1858=CARTESIAN_POINT('',(4.,2.6,-8.9));
#1859=CARTESIAN_POINT('',(4.,4.,-8.9));
#1860=CARTESIAN_POINT('',(4.,1.84361413471522,-8.9));
#1861=CARTESIAN_POINT('',(4.,1.84361413471522,-8.8));
#1862=CARTESIAN_POINT('',(4.,1.74985822752892,-8.83478260869565));
#1863=CARTESIAN_POINT('',(4.,4.,-8.));
#1864=CARTESIAN_POINT('',(4.,1.74985822752892,-7.16521739130435));
#1865=CARTESIAN_POINT('',(4.,1.84361413471522,-7.2));
#1866=CARTESIAN_POINT('',(-4.,4.,-8.));
#1867=CARTESIAN_POINT('',(-4.,3.1,-7.1));
#1868=CARTESIAN_POINT('',(-4.,3.1,-5.84361413471522));
#1869=CARTESIAN_POINT('',(-4.,3.1,-6.6));
#1870=CARTESIAN_POINT('',(-4.,2.6,-6.6));
#1871=CARTESIAN_POINT('',(-4.,2.6,-7.1));
#1872=CARTESIAN_POINT('',(-4.,3.1,-7.1));
#1873=CARTESIAN_POINT('',(-4.,1.84361413471522,-7.1));
#1874=CARTESIAN_POINT('',(-4.,1.84361413471522,-7.2));
#1875=CARTESIAN_POINT('',(-4.,1.74985822752892,-7.16521739130435));
#1876=CARTESIAN_POINT('',(-4.,4.,-8.));
#1877=CARTESIAN_POINT('',(-4.,1.74985822752892,-8.83478260869565));
#1878=CARTESIAN_POINT('',(-4.,1.84361413471522,-8.8));
#1879=CARTESIAN_POINT('',(-4.,1.84361413471522,-8.9));
#1880=CARTESIAN_POINT('',(-4.,3.1,-8.9));
#1881=CARTESIAN_POINT('',(-4.,2.6,-8.9));
#1882=CARTESIAN_POINT('',(-4.,2.6,-9.4));
#1883=CARTESIAN_POINT('',(-4.,3.1,-9.4));
#1884=CARTESIAN_POINT('',(-4.,3.1,-8.9));
#1885=CARTESIAN_POINT('',(-4.,3.1,-10.1563858652848));
#1886=CARTESIAN_POINT('',(-4.,3.2,-10.1563858652848));
#1887=CARTESIAN_POINT('',(-4.,3.16521739130435,-10.2501417724711));
#1888=CARTESIAN_POINT('',(-4.,4.,-8.));
#1889=CARTESIAN_POINT('',(-4.,4.83478260869565,-10.2501417724711));
#1890=CARTESIAN_POINT('',(-4.,4.8,-10.1563858652848));
#1891=CARTESIAN_POINT('',(-4.,4.9,-10.1563858652848));
#1892=CARTESIAN_POINT('',(-4.,4.9,-8.9));
#1893=CARTESIAN_POINT('',(-4.,4.9,-9.4));
#1894=CARTESIAN_POINT('',(-4.,5.4,-9.4));
#1895=CARTESIAN_POINT('',(-4.,5.4,-8.9));
#1896=CARTESIAN_POINT('',(-4.,4.9,-8.9));
#1897=CARTESIAN_POINT('',(-4.,6.15638586528478,-8.9));
#1898=CARTESIAN_POINT('',(-4.,6.15638586528478,-8.8));
#1899=CARTESIAN_POINT('',(-4.,6.25014177247108,-8.83478260869565));
#1900=CARTESIAN_POINT('',(-4.,4.,-8.));
#1901=CARTESIAN_POINT('',(-4.,6.25014177247108,-7.16521739130435));
#1902=CARTESIAN_POINT('',(-4.,6.15638586528478,-7.2));
#1903=CARTESIAN_POINT('',(-4.,6.15638586528478,-7.1));
#1904=CARTESIAN_POINT('',(-4.,4.9,-7.1));
#1905=CARTESIAN_POINT('',(-4.,5.4,-7.1));
#1906=CARTESIAN_POINT('',(-4.,5.4,-6.6));
#1907=CARTESIAN_POINT('',(-4.,4.9,-6.6));
#1908=CARTESIAN_POINT('',(-4.,4.9,-7.1));
#1909=CARTESIAN_POINT('',(-4.,4.9,-5.84361413471522));
#1910=CARTESIAN_POINT('',(-4.,4.8,-5.84361413471522));
#1911=CARTESIAN_POINT('',(-4.,4.83478260869565,-5.74985822752892));
#1912=CARTESIAN_POINT('',(-4.,4.,-8.));
#1913=CARTESIAN_POINT('',(-4.,3.16521739130435,-5.74985822752892));
#1914=CARTESIAN_POINT('',(-4.,3.2,-5.84361413471522));
#1915=CARTESIAN_POINT('',(16.,4.9,-7.1));
#1916=CARTESIAN_POINT('',(16.,5.4,-7.1));
#1917=CARTESIAN_POINT('',(4.,6.15638586528478,-7.1));
#1918=CARTESIAN_POINT('',(16.,4.9,-7.1));
#1919=CARTESIAN_POINT('',(16.,4.9,-6.6));
#1920=CARTESIAN_POINT('',(-4.,4.9,-5.84361413471522));
#1921=CARTESIAN_POINT('',(16.,4.,-8.));
#1922=CARTESIAN_POINT('',(16.,4.83478260869565,-5.74985822752892));
#1923=CARTESIAN_POINT('',(16.,3.16521739130435,-5.74985822752892));
#1924=CARTESIAN_POINT('',(16.,3.1,-7.1));
#1925=CARTESIAN_POINT('',(16.,3.1,-6.6));
#1926=CARTESIAN_POINT('',(4.,3.1,-5.84361413471522));
#1927=CARTESIAN_POINT('',(16.,3.1,-7.1));
#1928=CARTESIAN_POINT('',(16.,2.6,-7.1));
#1929=CARTESIAN_POINT('',(-4.,1.84361413471522,-7.1));
#1930=CARTESIAN_POINT('',(16.,4.,-8.));
#1931=CARTESIAN_POINT('',(-2.24835879659072,1.63356808676016,-8.4));
#1932=CARTESIAN_POINT('',(-2.46013611075759,1.63356808676016,-8.4));
#1933=CARTESIAN_POINT('',(-2.83658117566168,1.56643195271814,-8.00061562298467));
#1934=CARTESIAN_POINT('',(-2.46013625054229,1.63356808676015,-7.6));
#1935=CARTESIAN_POINT('',(-2.24835879659072,1.63356808676015,-7.6));
#1936=CARTESIAN_POINT('',(-2.24835879659072,1.63356808676016,-8.4));
#1937=CARTESIAN_POINT('',(-2.24835879659072,1.63356808676016,-7.6));
#1938=CARTESIAN_POINT('',(16.,1.63356808676015,-8.4));
#1939=CARTESIAN_POINT('',(2.25131628272745,1.63356808676015,-8.4));
#1940=CARTESIAN_POINT('',(2.25131628272745,1.63356808676016,-7.6));
#1941=CARTESIAN_POINT('',(2.46309359689432,1.63356808676016,-7.6));
#1942=CARTESIAN_POINT('',(2.83953866179841,1.56643195271815,-7.99938437701533));
#1943=CARTESIAN_POINT('',(2.46309373667901,1.63356808676015,-8.4));
#1944=CARTESIAN_POINT('',(2.25131628272745,1.63356808676015,-8.4));
#1945=CARTESIAN_POINT('',(2.25131628272745,1.63356808676016,-7.6));
#1946=CARTESIAN_POINT('',(16.,1.63356808676015,-7.6));
#1947=CARTESIAN_POINT('',(16.,1.74985822752892,-7.16521739130435));
#1948=CARTESIAN_POINT('',(16.,1.74985822752892,-8.83478260869565));
#1949=CARTESIAN_POINT('',(16.,3.1,-8.9));
#1950=CARTESIAN_POINT('',(16.,2.6,-8.9));
#1951=CARTESIAN_POINT('',(4.,1.84361413471522,-8.9));
#1952=CARTESIAN_POINT('',(16.,3.1,-8.9));
#1953=CARTESIAN_POINT('',(16.,3.1,-9.4));
#1954=CARTESIAN_POINT('',(-4.,3.1,-10.1563858652848));
#1955=CARTESIAN_POINT('',(16.,4.,-8.));
#1956=CARTESIAN_POINT('',(16.,3.16521739130435,-10.2501417724711));
#1957=CARTESIAN_POINT('',(16.,4.83478260869565,-10.2501417724711));
#1958=CARTESIAN_POINT('',(16.,4.9,-8.9));
#1959=CARTESIAN_POINT('',(16.,4.9,-9.4));
#1960=CARTESIAN_POINT('',(4.,4.9,-10.1563858652848));
#1961=CARTESIAN_POINT('',(16.,4.9,-8.9));
#1962=CARTESIAN_POINT('',(16.,5.4,-8.9));
#1963=CARTESIAN_POINT('',(-4.,6.15638586528478,-8.9));
#1964=CARTESIAN_POINT('',(16.,4.,-8.));
#1965=CARTESIAN_POINT('',(-2.24835879659072,6.36643191323985,-7.6));
#1966=CARTESIAN_POINT('',(-2.46013611075759,6.36643191323985,-7.6));
#1967=CARTESIAN_POINT('',(-2.83658117566168,6.43356804728185,-7.99938437701533));
#1968=CARTESIAN_POINT('',(-2.46013625054228,6.36643191323985,-8.4));
#1969=CARTESIAN_POINT('',(-2.24835879659072,6.36643191323985,-8.4));
#1970=CARTESIAN_POINT('',(-2.24835879659072,6.36643191323985,-7.6));
#1971=CARTESIAN_POINT('',(-2.24835879659072,6.36643191323985,-8.4));
#1972=CARTESIAN_POINT('',(16.,6.36643191323985,-7.6));
#1973=CARTESIAN_POINT('',(2.25131628272745,6.36643191323985,-7.6));
#1974=CARTESIAN_POINT('',(2.25131628272745,6.36643191323985,-8.4));
#1975=CARTESIAN_POINT('',(2.46309359689432,6.36643191323985,-8.4));
#1976=CARTESIAN_POINT('',(2.83953866179841,6.43356804728185,-8.00061562298467));
#1977=CARTESIAN_POINT('',(2.46309373667901,6.36643191323985,-7.6));
#1978=CARTESIAN_POINT('',(2.25131628272745,6.36643191323985,-7.6));
#1979=CARTESIAN_POINT('',(2.25131628272745,6.36643191323985,-8.4));
#1980=CARTESIAN_POINT('',(16.,6.36643191323985,-8.4));
#1981=CARTESIAN_POINT('',(16.,6.25014177247108,-8.83478260869565));
#1982=CARTESIAN_POINT('',(16.,6.25014177247108,-7.16521739130435));
#1983=CARTESIAN_POINT('',(16.,3.2,-5.84361413471522));
#1984=CARTESIAN_POINT('',(16.,6.15638586528478,-7.2));
#1985=CARTESIAN_POINT('',(16.,6.15638586528478,-8.8));
#1986=CARTESIAN_POINT('',(16.,4.8,-10.1563858652848));
#1987=CARTESIAN_POINT('',(16.,3.2,-10.1563858652848));
#1988=CARTESIAN_POINT('',(16.,1.84361413471522,-8.8));
#1989=CARTESIAN_POINT('',(16.,1.84361413471522,-7.2));
#1990=CARTESIAN_POINT('',(16.,4.8,-5.84361413471522));
#1991=CARTESIAN_POINT('',(16.,5.4,-6.6));
#1992=CARTESIAN_POINT('',(16.,5.4,-9.4));
#1993=CARTESIAN_POINT('',(16.,2.6,-9.4));
#1994=CARTESIAN_POINT('',(16.,2.6,-6.6));
#1995=CARTESIAN_POINT('',(2.80295748613679,4.,-8.));
#1996=CARTESIAN_POINT('',(2.65307955253453,4.,-8.));
#1997=CARTESIAN_POINT('',(-2.6501220663978,4.,-8.));
#1998=CARTESIAN_POINT('',(-2.6501220663978,4.,-8.));
#1999=CARTESIAN_POINT('',(-3.6,4.,-8.));
#2000=CARTESIAN_POINT('',(-3.6,6.72075357208256,-7.6));
#2001=CARTESIAN_POINT('',(2.25131628272745,6.72075357208256,-7.6));
#2002=CARTESIAN_POINT('',(-2.24835879659072,6.72075357208256,-7.6));
#2003=CARTESIAN_POINT('',(-2.24835879659072,6.72075357208256,-7.6));
#2004=CARTESIAN_POINT('',(-2.46004241133149,6.72075357208256,-7.6));
#2005=CARTESIAN_POINT('',(-2.83667507493801,6.77924639545556,-7.9994024377532));
#2006=CARTESIAN_POINT('',(-2.46004217880451,6.72075357208256,-8.4));
#2007=CARTESIAN_POINT('',(-2.24835879659072,6.72075357208256,-8.4));
#2008=CARTESIAN_POINT('',(-2.24835879659072,6.72075357208256,-8.4));
#2009=CARTESIAN_POINT('',(-3.6,6.72075357208256,-8.4));
#2010=CARTESIAN_POINT('',(2.25131628272745,6.72075357208256,-8.4));
#2011=CARTESIAN_POINT('',(2.25131628272745,6.72075357208256,-8.4));
#2012=CARTESIAN_POINT('',(2.46299989746822,6.72075357208256,-8.4));
#2013=CARTESIAN_POINT('',(2.83963256107474,6.77924639545556,-8.0005975622468));
#2014=CARTESIAN_POINT('',(2.46299966494123,6.72075357208256,-7.6));
#2015=CARTESIAN_POINT('',(2.25131628272745,6.72075357208256,-7.6));
#2016=CARTESIAN_POINT('',(-3.6,1.27924642791744,-8.4));
#2017=CARTESIAN_POINT('',(2.25131628272745,1.27924642791744,-8.4));
#2018=CARTESIAN_POINT('',(-2.24835879659072,1.27924642791744,-8.4));
#2019=CARTESIAN_POINT('',(-2.24835879659072,1.27924642791745,-8.4));
#2020=CARTESIAN_POINT('',(-2.46004241133149,1.27924642791745,-8.4));
#2021=CARTESIAN_POINT('',(-2.83667507493801,1.22075360454443,-8.0005975622468));
#2022=CARTESIAN_POINT('',(-2.4600421788045,1.27924642791744,-7.6));
#2023=CARTESIAN_POINT('',(-2.24835879659072,1.27924642791744,-7.6));
#2024=CARTESIAN_POINT('',(-2.24835879659072,1.27924642791744,-7.6));
#2025=CARTESIAN_POINT('',(-3.6,1.27924642791744,-7.6));
#2026=CARTESIAN_POINT('',(2.25131628272745,1.27924642791745,-7.6));
#2027=CARTESIAN_POINT('',(2.25131628272745,1.27924642791745,-7.6));
#2028=CARTESIAN_POINT('',(2.46299989746822,1.27924642791745,-7.6));
#2029=CARTESIAN_POINT('',(2.83963256107474,1.22075360454443,-7.9994024377532));
#2030=CARTESIAN_POINT('',(2.46299966494123,1.27924642791744,-8.4));
#2031=CARTESIAN_POINT('',(2.25131628272745,1.27924642791744,-8.4));
#2032=CARTESIAN_POINT('',(-2.3,8.,-3.39411254969543));
#2033=CARTESIAN_POINT('',(-2.3,8.,-3.39411254969543));
#2034=CARTESIAN_POINT('',(2.30212718724974,8.,-3.39267010092724));
#2035=CARTESIAN_POINT('',(2.30295748613679,8.,-3.39210654565073));
#2036=CARTESIAN_POINT('',(2.25131628272745,-30.,-8.4));
#2037=CARTESIAN_POINT('',(-2.24835879659072,-30.,-8.4));
#2038=CARTESIAN_POINT('',(2.25131628272745,-30.,-8.4));
#2039=CARTESIAN_POINT('',(2.25131628272745,-30.,-8.));
#2040=CARTESIAN_POINT('',(2.25131628272745,-30.,-7.6));
#2041=CARTESIAN_POINT('',(-2.24835879659072,-30.,-7.6));
#2042=CARTESIAN_POINT('',(-2.24835879659072,-30.,-7.6));
#2043=CARTESIAN_POINT('',(-2.24835879659072,-30.,-8.));
#2044=CARTESIAN_POINT('',(-2.24835879659072,-30.,-8.));
#2045=CARTESIAN_POINT('',(-2.24835879659072,-30.,-8.4));
#2046=CARTESIAN_POINT('',(-2.24835879659072,-30.,-7.6));
#2047=CARTESIAN_POINT('',(-2.24835879659072,-30.,-7.6));
#2048=CARTESIAN_POINT('',(2.25131628272745,-30.,-7.6));
#2049=CARTESIAN_POINT('',(2.25131628272745,-30.,-8.));
#2050=CARTESIAN_POINT('',(2.25131628272745,-30.,-8.4));
#2051=CARTESIAN_POINT('',(2.25131628272745,-30.,-8.4));
#2052=MECHANICAL_DESIGN_GEOMETRIC_PRESENTATION_REPRESENTATION('',(#1169),
#2053);
#2053=(
GEOMETRIC_REPRESENTATION_CONTEXT(3)
GLOBAL_UNCERTAINTY_ASSIGNED_CONTEXT((#2054))
GLOBAL_UNIT_ASSIGNED_CONTEXT((#2057,#2056,#2055))
REPRESENTATION_CONTEXT('ClGray_4211775_MCM','TOP_LEVEL_ASSEMBLY_PART')
);
#2054=UNCERTAINTY_MEASURE_WITH_UNIT(LENGTH_MEASURE(0.005),#2057,
'DISTANCE_ACCURACY_VALUE','Maximum Tolerance applied to model');
#2055=(
NAMED_UNIT(*)
SI_UNIT($,.STERADIAN.)
SOLID_ANGLE_UNIT()
);
#2056=(
NAMED_UNIT(*)
PLANE_ANGLE_UNIT()
SI_UNIT($,.RADIAN.)
);
#2057=(
LENGTH_UNIT()
NAMED_UNIT(*)
SI_UNIT(.MILLI.,.METRE.)
);
#2058=PRODUCT_DEFINITION_SHAPE('','',#2059);
#2059=PRODUCT_DEFINITION('','',#2061,#2060);
#2060=PRODUCT_DEFINITION_CONTEXT('',#2067,'design');
#2061=PRODUCT_DEFINITION_FORMATION_WITH_SPECIFIED_SOURCE('','',#2063,
 .NOT_KNOWN.);
#2062=PRODUCT_RELATED_PRODUCT_CATEGORY('','',(#2063));
#2063=PRODUCT('ClGray_4211775_MCM','ClGray_4211775_MCM',
'ClGray_4211775_MCM',(#2065));
#2064=PRODUCT_CATEGORY('','');
#2065=PRODUCT_CONTEXT('',#2067,'mechanical');
#2066=APPLICATION_PROTOCOL_DEFINITION('international standard',
'automotive_design',2010,#2067);
#2067=APPLICATION_CONTEXT(
'core data for automotive mechanical design processes');
ENDSEC;
END-ISO-10303-21;
