ISO-10303-21;
HEADER;
/* Generated by software containing ST-Developer
 * from STEP Tools, Inc. (www.steptools.com) 
 */
/* OPTION: strings as raw bytes, not using required /X/ escapes */

FILE_DESCRIPTION(
/* description */ ('Unknown'),
/* implementation_level */ '2;1');

FILE_NAME(
/* name */ 'ClGray_4211807_MCM',
/* time_stamp */ '2025-07-21T23:53:33+02:00',
/* author */ ('Unknown'),
/* organization */ ('Unknown'),
/* preprocessor_version */ 'ST-DEVELOPER v19.4',
/* originating_system */ 'Solid Edge',
/* authorisation */ 'Unknown');

FILE_SCHEMA (('AUTOMOTIVE_DESIGN {1 0 10303 214 3 1 1}'));
ENDSEC;

DATA;
#10=PROPERTY_DEFINITION_REPRESENTATION(#14,#12);
#11=PROPERTY_DEFINITION_REPRESENTATION(#15,#13);
#12=REPRESENTATION('',(#16),#1289);
#13=REPRESENTATION('',(#17),#1289);
#14=PROPERTY_DEFINITION('pmi validation property','',#1294);
#15=PROPERTY_DEFINITION('pmi validation property','',#1294);
#16=VALUE_REPRESENTATION_ITEM('number of annotations',COUNT_MEASURE(0.));
#17=VALUE_REPRESENTATION_ITEM('number of views',COUNT_MEASURE(0.));
#18=SHAPE_REPRESENTATION_RELATIONSHIP('','',#733,#19);
#19=ADVANCED_BREP_SHAPE_REPRESENTATION('',(#731),#1289);
#20=TOROIDAL_SURFACE('',#795,3.,0.1);
#21=TOROIDAL_SURFACE('',#796,2.5,0.1);
#22=TOROIDAL_SURFACE('',#797,2.5,0.1);
#23=TOROIDAL_SURFACE('',#798,2.5,0.1);
#24=TOROIDAL_SURFACE('',#799,2.5,0.1);
#25=TOROIDAL_SURFACE('',#800,2.5,0.1);
#26=TOROIDAL_SURFACE('',#801,2.5,0.1);
#27=TOROIDAL_SURFACE('',#802,2.5,0.1);
#28=TOROIDAL_SURFACE('',#803,2.5,0.1);
#29=TOROIDAL_SURFACE('',#804,3.,0.1);
#30=B_SPLINE_CURVE_WITH_KNOTS('',3,(#1056,#1057,#1058,#1059,#1060),
 .UNSPECIFIED.,.F.,.F.,(4,1,4),(5.42101086242752E-20,0.000626703356852406,
0.00125340671370481),.UNSPECIFIED.);
#31=B_SPLINE_CURVE_WITH_KNOTS('',3,(#1065,#1066,#1067,#1068,#1069),
 .UNSPECIFIED.,.F.,.F.,(4,1,4),(0.,0.000626703356852406,0.00125340671370481),
 .UNSPECIFIED.);
#32=B_SPLINE_CURVE_WITH_KNOTS('',3,(#1072,#1073,#1074,#1075,#1076),
 .UNSPECIFIED.,.F.,.F.,(4,1,4),(5.42101086242752E-20,0.000626703356852405,
0.00125340671370481),.UNSPECIFIED.);
#33=B_SPLINE_CURVE_WITH_KNOTS('',3,(#1085,#1086,#1087,#1088,#1089),
 .UNSPECIFIED.,.F.,.F.,(4,1,4),(8.74111736584338E-19,0.000626703356852406,
0.00125340671370481),.UNSPECIFIED.);
#34=B_SPLINE_CURVE_WITH_KNOTS('',3,(#1120,#1121,#1122,#1123,#1124),
 .UNSPECIFIED.,.F.,.F.,(4,1,4),(5.42101086242752E-20,0.000626227329652798,
0.0012524546593056),.UNSPECIFIED.);
#35=B_SPLINE_CURVE_WITH_KNOTS('',3,(#1129,#1130,#1131,#1132,#1133),
 .UNSPECIFIED.,.F.,.F.,(4,1,4),(0.,0.000626227329652798,0.0012524546593056),
 .UNSPECIFIED.);
#36=B_SPLINE_CURVE_WITH_KNOTS('',3,(#1173,#1174,#1175,#1176,#1177),
 .UNSPECIFIED.,.F.,.F.,(4,1,4),(2.64742989836896E-18,0.000626227329652798,
0.00125245465930559),.UNSPECIFIED.);
#37=B_SPLINE_CURVE_WITH_KNOTS('',3,(#1183,#1184,#1185,#1186,#1187),
 .UNSPECIFIED.,.F.,.F.,(4,1,4),(5.42101086242752E-20,0.000626227329652797,
0.00125245465930559),.UNSPECIFIED.);
#38=B_SPLINE_CURVE_WITH_KNOTS('',3,(#1195,#1196,#1197,#1198),
 .UNSPECIFIED.,.F.,.F.,(4,4),(0.,0.000157204075759021),.UNSPECIFIED.);
#39=B_SPLINE_CURVE_WITH_KNOTS('',3,(#1199,#1200,#1201,#1202),
 .UNSPECIFIED.,.F.,.F.,(4,4),(0.,0.000157202770432766),.UNSPECIFIED.);
#40=B_SPLINE_CURVE_WITH_KNOTS('',3,(#1205,#1206,#1207,#1208),
 .UNSPECIFIED.,.F.,.F.,(4,4),(0.,0.000157202770432761),.UNSPECIFIED.);
#41=B_SPLINE_CURVE_WITH_KNOTS('',3,(#1210,#1211,#1212,#1213),
 .UNSPECIFIED.,.F.,.F.,(4,4),(4.77048955893622E-18,0.000157204075759016),
 .UNSPECIFIED.);
#42=B_SPLINE_CURVE_WITH_KNOTS('',3,(#1219,#1220,#1221,#1222),
 .UNSPECIFIED.,.F.,.F.,(4,4),(0.,0.000157202770432762),.UNSPECIFIED.);
#43=B_SPLINE_CURVE_WITH_KNOTS('',3,(#1223,#1224,#1225,#1226),
 .UNSPECIFIED.,.F.,.F.,(4,4),(4.33680868994202E-18,0.000157204075759016),
 .UNSPECIFIED.);
#44=B_SPLINE_CURVE_WITH_KNOTS('',3,(#1228,#1229,#1230,#1231),
 .UNSPECIFIED.,.F.,.F.,(4,4),(0.,0.000157204075759022),.UNSPECIFIED.);
#45=B_SPLINE_CURVE_WITH_KNOTS('',3,(#1232,#1233,#1234,#1235),
 .UNSPECIFIED.,.F.,.F.,(4,4),(0.,0.000157202770432765),.UNSPECIFIED.);
#46=B_SPLINE_CURVE_WITH_KNOTS('',3,(#1240,#1241,#1242,#1243),
 .UNSPECIFIED.,.F.,.F.,(4,4),(0.,0.000157202770432763),.UNSPECIFIED.);
#47=B_SPLINE_CURVE_WITH_KNOTS('',3,(#1244,#1245,#1246,#1247),
 .UNSPECIFIED.,.F.,.F.,(4,4),(0.,0.000157204075759021),.UNSPECIFIED.);
#48=B_SPLINE_CURVE_WITH_KNOTS('',3,(#1249,#1250,#1251,#1252),
 .UNSPECIFIED.,.F.,.F.,(4,4),(0.,0.000157202770432761),.UNSPECIFIED.);
#49=B_SPLINE_CURVE_WITH_KNOTS('',3,(#1253,#1254,#1255,#1256),
 .UNSPECIFIED.,.F.,.F.,(4,4),(4.77048955893622E-18,0.000157204075759016),
 .UNSPECIFIED.);
#50=B_SPLINE_CURVE_WITH_KNOTS('',3,(#1258,#1259,#1260,#1261),
 .UNSPECIFIED.,.F.,.F.,(4,4),(0.,0.000157204075759022),.UNSPECIFIED.);
#51=B_SPLINE_CURVE_WITH_KNOTS('',3,(#1262,#1263,#1264,#1265),
 .UNSPECIFIED.,.F.,.F.,(4,4),(0.,0.000157202770432764),.UNSPECIFIED.);
#52=B_SPLINE_CURVE_WITH_KNOTS('',3,(#1268,#1269,#1270,#1271),
 .UNSPECIFIED.,.F.,.F.,(4,4),(4.77048955893622E-18,0.000157204075759016),
 .UNSPECIFIED.);
#53=B_SPLINE_CURVE_WITH_KNOTS('',3,(#1272,#1273,#1274,#1275),
 .UNSPECIFIED.,.F.,.F.,(4,4),(0.,0.00015720277043276),.UNSPECIFIED.);
#54=CYLINDRICAL_SURFACE('',#738,2.6);
#55=CYLINDRICAL_SURFACE('',#747,2.6);
#56=CYLINDRICAL_SURFACE('',#753,2.);
#57=CYLINDRICAL_SURFACE('',#758,2.6);
#58=CYLINDRICAL_SURFACE('',#764,2.4);
#59=CYLINDRICAL_SURFACE('',#768,3.1);
#60=CYLINDRICAL_SURFACE('',#773,2.6);
#61=CYLINDRICAL_SURFACE('',#779,2.4);
#62=CYLINDRICAL_SURFACE('',#785,0.4);
#63=CYLINDRICAL_SURFACE('',#786,0.4);
#64=CYLINDRICAL_SURFACE('',#789,0.400000000000001);
#65=CYLINDRICAL_SURFACE('',#794,0.400000000000001);
#66=CIRCLE('',#736,2.5);
#67=CIRCLE('',#737,2.);
#68=CIRCLE('',#739,2.6);
#69=CIRCLE('',#740,2.6);
#70=CIRCLE('',#742,2.5);
#71=CIRCLE('',#743,2.4);
#72=CIRCLE('',#745,2.5);
#73=CIRCLE('',#746,2.);
#74=CIRCLE('',#748,2.6);
#75=CIRCLE('',#749,2.6);
#76=CIRCLE('',#751,2.5);
#77=CIRCLE('',#752,2.4);
#78=CIRCLE('',#754,2.);
#79=CIRCLE('',#755,2.);
#80=CIRCLE('',#757,2.5);
#81=CIRCLE('',#759,2.6);
#82=CIRCLE('',#760,2.6);
#83=CIRCLE('',#762,2.5);
#84=CIRCLE('',#763,2.4);
#85=CIRCLE('',#765,2.4);
#86=CIRCLE('',#767,3.);
#87=CIRCLE('',#769,3.1);
#88=CIRCLE('',#770,3.1);
#89=CIRCLE('',#772,2.5);
#90=CIRCLE('',#774,2.6);
#91=CIRCLE('',#775,2.6);
#92=CIRCLE('',#777,2.5);
#93=CIRCLE('',#778,2.4);
#94=CIRCLE('',#780,2.4);
#95=CIRCLE('',#782,3.);
#96=ORIENTED_EDGE('',*,*,#300,.F.);
#97=ORIENTED_EDGE('',*,*,#301,.T.);
#98=ORIENTED_EDGE('',*,*,#302,.F.);
#99=ORIENTED_EDGE('',*,*,#303,.T.);
#100=ORIENTED_EDGE('',*,*,#304,.T.);
#101=ORIENTED_EDGE('',*,*,#305,.T.);
#102=ORIENTED_EDGE('',*,*,#306,.T.);
#103=ORIENTED_EDGE('',*,*,#307,.T.);
#104=ORIENTED_EDGE('',*,*,#308,.T.);
#105=ORIENTED_EDGE('',*,*,#309,.T.);
#106=ORIENTED_EDGE('',*,*,#310,.T.);
#107=ORIENTED_EDGE('',*,*,#311,.F.);
#108=ORIENTED_EDGE('',*,*,#312,.F.);
#109=ORIENTED_EDGE('',*,*,#313,.T.);
#110=ORIENTED_EDGE('',*,*,#314,.F.);
#111=ORIENTED_EDGE('',*,*,#315,.F.);
#112=ORIENTED_EDGE('',*,*,#316,.T.);
#113=ORIENTED_EDGE('',*,*,#317,.T.);
#114=ORIENTED_EDGE('',*,*,#318,.T.);
#115=ORIENTED_EDGE('',*,*,#319,.T.);
#116=ORIENTED_EDGE('',*,*,#320,.T.);
#117=ORIENTED_EDGE('',*,*,#321,.T.);
#118=ORIENTED_EDGE('',*,*,#322,.T.);
#119=ORIENTED_EDGE('',*,*,#323,.T.);
#120=ORIENTED_EDGE('',*,*,#324,.F.);
#121=ORIENTED_EDGE('',*,*,#325,.T.);
#122=ORIENTED_EDGE('',*,*,#326,.T.);
#123=ORIENTED_EDGE('',*,*,#327,.T.);
#124=ORIENTED_EDGE('',*,*,#303,.F.);
#125=ORIENTED_EDGE('',*,*,#328,.T.);
#126=ORIENTED_EDGE('',*,*,#329,.T.);
#127=ORIENTED_EDGE('',*,*,#330,.T.);
#128=ORIENTED_EDGE('',*,*,#331,.T.);
#129=ORIENTED_EDGE('',*,*,#332,.T.);
#130=ORIENTED_EDGE('',*,*,#333,.T.);
#131=ORIENTED_EDGE('',*,*,#334,.T.);
#132=ORIENTED_EDGE('',*,*,#335,.T.);
#133=ORIENTED_EDGE('',*,*,#336,.T.);
#134=ORIENTED_EDGE('',*,*,#315,.T.);
#135=ORIENTED_EDGE('',*,*,#337,.T.);
#136=ORIENTED_EDGE('',*,*,#338,.T.);
#137=ORIENTED_EDGE('',*,*,#339,.T.);
#138=ORIENTED_EDGE('',*,*,#340,.T.);
#139=ORIENTED_EDGE('',*,*,#324,.T.);
#140=ORIENTED_EDGE('',*,*,#341,.T.);
#141=ORIENTED_EDGE('',*,*,#342,.T.);
#142=ORIENTED_EDGE('',*,*,#343,.T.);
#143=ORIENTED_EDGE('',*,*,#344,.T.);
#144=ORIENTED_EDGE('',*,*,#345,.T.);
#145=ORIENTED_EDGE('',*,*,#346,.T.);
#146=ORIENTED_EDGE('',*,*,#347,.T.);
#147=ORIENTED_EDGE('',*,*,#348,.F.);
#148=ORIENTED_EDGE('',*,*,#311,.T.);
#149=ORIENTED_EDGE('',*,*,#349,.T.);
#150=ORIENTED_EDGE('',*,*,#350,.T.);
#151=ORIENTED_EDGE('',*,*,#351,.T.);
#152=ORIENTED_EDGE('',*,*,#348,.T.);
#153=ORIENTED_EDGE('',*,*,#352,.T.);
#154=ORIENTED_EDGE('',*,*,#353,.T.);
#155=ORIENTED_EDGE('',*,*,#354,.T.);
#156=ORIENTED_EDGE('',*,*,#355,.F.);
#157=ORIENTED_EDGE('',*,*,#356,.T.);
#158=ORIENTED_EDGE('',*,*,#355,.T.);
#159=ORIENTED_EDGE('',*,*,#357,.T.);
#160=ORIENTED_EDGE('',*,*,#358,.T.);
#161=ORIENTED_EDGE('',*,*,#359,.T.);
#162=ORIENTED_EDGE('',*,*,#360,.T.);
#163=ORIENTED_EDGE('',*,*,#361,.T.);
#164=ORIENTED_EDGE('',*,*,#333,.F.);
#165=ORIENTED_EDGE('',*,*,#362,.T.);
#166=ORIENTED_EDGE('',*,*,#363,.T.);
#167=ORIENTED_EDGE('',*,*,#364,.T.);
#168=ORIENTED_EDGE('',*,*,#365,.T.);
#169=ORIENTED_EDGE('',*,*,#366,.T.);
#170=ORIENTED_EDGE('',*,*,#367,.T.);
#171=ORIENTED_EDGE('',*,*,#368,.T.);
#172=ORIENTED_EDGE('',*,*,#369,.T.);
#173=ORIENTED_EDGE('',*,*,#370,.T.);
#174=ORIENTED_EDGE('',*,*,#371,.T.);
#175=ORIENTED_EDGE('',*,*,#372,.T.);
#176=ORIENTED_EDGE('',*,*,#323,.F.);
#177=ORIENTED_EDGE('',*,*,#373,.T.);
#178=ORIENTED_EDGE('',*,*,#374,.T.);
#179=ORIENTED_EDGE('',*,*,#375,.T.);
#180=ORIENTED_EDGE('',*,*,#369,.F.);
#181=ORIENTED_EDGE('',*,*,#376,.T.);
#182=ORIENTED_EDGE('',*,*,#377,.T.);
#183=ORIENTED_EDGE('',*,*,#370,.F.);
#184=ORIENTED_EDGE('',*,*,#322,.F.);
#185=ORIENTED_EDGE('',*,*,#378,.T.);
#186=ORIENTED_EDGE('',*,*,#316,.F.);
#187=ORIENTED_EDGE('',*,*,#379,.T.);
#188=ORIENTED_EDGE('',*,*,#359,.F.);
#189=ORIENTED_EDGE('',*,*,#332,.F.);
#190=ORIENTED_EDGE('',*,*,#380,.T.);
#191=ORIENTED_EDGE('',*,*,#373,.F.);
#192=ORIENTED_EDGE('',*,*,#364,.F.);
#193=ORIENTED_EDGE('',*,*,#381,.T.);
#194=ORIENTED_EDGE('',*,*,#366,.F.);
#195=ORIENTED_EDGE('',*,*,#375,.F.);
#196=ORIENTED_EDGE('',*,*,#382,.F.);
#197=ORIENTED_EDGE('',*,*,#337,.F.);
#198=ORIENTED_EDGE('',*,*,#314,.T.);
#199=ORIENTED_EDGE('',*,*,#383,.T.);
#200=ORIENTED_EDGE('',*,*,#382,.T.);
#201=ORIENTED_EDGE('',*,*,#374,.F.);
#202=ORIENTED_EDGE('',*,*,#380,.F.);
#203=ORIENTED_EDGE('',*,*,#331,.F.);
#204=ORIENTED_EDGE('',*,*,#384,.F.);
#205=ORIENTED_EDGE('',*,*,#371,.F.);
#206=ORIENTED_EDGE('',*,*,#385,.T.);
#207=ORIENTED_EDGE('',*,*,#335,.F.);
#208=ORIENTED_EDGE('',*,*,#318,.F.);
#209=ORIENTED_EDGE('',*,*,#386,.T.);
#210=ORIENTED_EDGE('',*,*,#320,.F.);
#211=ORIENTED_EDGE('',*,*,#372,.F.);
#212=ORIENTED_EDGE('',*,*,#384,.T.);
#213=ORIENTED_EDGE('',*,*,#334,.F.);
#214=ORIENTED_EDGE('',*,*,#361,.F.);
#215=ORIENTED_EDGE('',*,*,#387,.T.);
#216=ORIENTED_EDGE('',*,*,#368,.F.);
#217=ORIENTED_EDGE('',*,*,#388,.T.);
#218=ORIENTED_EDGE('',*,*,#362,.F.);
#219=ORIENTED_EDGE('',*,*,#389,.T.);
#220=ORIENTED_EDGE('',*,*,#312,.T.);
#221=ORIENTED_EDGE('',*,*,#336,.F.);
#222=ORIENTED_EDGE('',*,*,#385,.F.);
#223=ORIENTED_EDGE('',*,*,#376,.F.);
#224=ORIENTED_EDGE('',*,*,#390,.F.);
#225=ORIENTED_EDGE('',*,*,#353,.F.);
#226=ORIENTED_EDGE('',*,*,#391,.T.);
#227=ORIENTED_EDGE('',*,*,#326,.F.);
#228=ORIENTED_EDGE('',*,*,#343,.F.);
#229=ORIENTED_EDGE('',*,*,#392,.T.);
#230=ORIENTED_EDGE('',*,*,#300,.T.);
#231=ORIENTED_EDGE('',*,*,#327,.F.);
#232=ORIENTED_EDGE('',*,*,#391,.F.);
#233=ORIENTED_EDGE('',*,*,#352,.F.);
#234=ORIENTED_EDGE('',*,*,#347,.F.);
#235=ORIENTED_EDGE('',*,*,#393,.T.);
#236=ORIENTED_EDGE('',*,*,#306,.F.);
#237=ORIENTED_EDGE('',*,*,#394,.T.);
#238=ORIENTED_EDGE('',*,*,#308,.F.);
#239=ORIENTED_EDGE('',*,*,#354,.F.);
#240=ORIENTED_EDGE('',*,*,#390,.T.);
#241=ORIENTED_EDGE('',*,*,#325,.F.);
#242=ORIENTED_EDGE('',*,*,#340,.F.);
#243=ORIENTED_EDGE('',*,*,#395,.T.);
#244=ORIENTED_EDGE('',*,*,#310,.F.);
#245=ORIENTED_EDGE('',*,*,#396,.T.);
#246=ORIENTED_EDGE('',*,*,#304,.F.);
#247=ORIENTED_EDGE('',*,*,#397,.T.);
#248=ORIENTED_EDGE('',*,*,#338,.F.);
#249=ORIENTED_EDGE('',*,*,#330,.F.);
#250=ORIENTED_EDGE('',*,*,#398,.T.);
#251=ORIENTED_EDGE('',*,*,#349,.F.);
#252=ORIENTED_EDGE('',*,*,#302,.T.);
#253=ORIENTED_EDGE('',*,*,#399,.T.);
#254=ORIENTED_EDGE('',*,*,#341,.F.);
#255=ORIENTED_EDGE('',*,*,#400,.T.);
#256=ORIENTED_EDGE('',*,*,#345,.F.);
#257=ORIENTED_EDGE('',*,*,#351,.F.);
#258=ORIENTED_EDGE('',*,*,#401,.F.);
#259=ORIENTED_EDGE('',*,*,#328,.F.);
#260=ORIENTED_EDGE('',*,*,#401,.T.);
#261=ORIENTED_EDGE('',*,*,#350,.F.);
#262=ORIENTED_EDGE('',*,*,#398,.F.);
#263=ORIENTED_EDGE('',*,*,#329,.F.);
#264=ORIENTED_EDGE('',*,*,#358,.F.);
#265=ORIENTED_EDGE('',*,*,#377,.F.);
#266=ORIENTED_EDGE('',*,*,#400,.F.);
#267=ORIENTED_EDGE('',*,*,#344,.F.);
#268=ORIENTED_EDGE('',*,*,#393,.F.);
#269=ORIENTED_EDGE('',*,*,#346,.F.);
#270=ORIENTED_EDGE('',*,*,#399,.F.);
#271=ORIENTED_EDGE('',*,*,#301,.F.);
#272=ORIENTED_EDGE('',*,*,#392,.F.);
#273=ORIENTED_EDGE('',*,*,#342,.F.);
#274=ORIENTED_EDGE('',*,*,#395,.F.);
#275=ORIENTED_EDGE('',*,*,#339,.F.);
#276=ORIENTED_EDGE('',*,*,#397,.F.);
#277=ORIENTED_EDGE('',*,*,#307,.F.);
#278=ORIENTED_EDGE('',*,*,#394,.F.);
#279=ORIENTED_EDGE('',*,*,#305,.F.);
#280=ORIENTED_EDGE('',*,*,#396,.F.);
#281=ORIENTED_EDGE('',*,*,#309,.F.);
#282=ORIENTED_EDGE('',*,*,#379,.F.);
#283=ORIENTED_EDGE('',*,*,#319,.F.);
#284=ORIENTED_EDGE('',*,*,#387,.F.);
#285=ORIENTED_EDGE('',*,*,#360,.F.);
#286=ORIENTED_EDGE('',*,*,#389,.F.);
#287=ORIENTED_EDGE('',*,*,#365,.F.);
#288=ORIENTED_EDGE('',*,*,#383,.F.);
#289=ORIENTED_EDGE('',*,*,#313,.F.);
#290=ORIENTED_EDGE('',*,*,#388,.F.);
#291=ORIENTED_EDGE('',*,*,#367,.F.);
#292=ORIENTED_EDGE('',*,*,#381,.F.);
#293=ORIENTED_EDGE('',*,*,#363,.F.);
#294=ORIENTED_EDGE('',*,*,#378,.F.);
#295=ORIENTED_EDGE('',*,*,#321,.F.);
#296=ORIENTED_EDGE('',*,*,#386,.F.);
#297=ORIENTED_EDGE('',*,*,#317,.F.);
#298=ORIENTED_EDGE('',*,*,#356,.F.);
#299=ORIENTED_EDGE('',*,*,#357,.F.);
#300=EDGE_CURVE('',#402,#403,#472,.T.);
#301=EDGE_CURVE('',#402,#404,#66,.F.);
#302=EDGE_CURVE('',#405,#404,#473,.T.);
#303=EDGE_CURVE('',#405,#403,#67,.T.);
#304=EDGE_CURVE('',#406,#407,#474,.T.);
#305=EDGE_CURVE('',#407,#408,#68,.T.);
#306=EDGE_CURVE('',#408,#409,#475,.F.);
#307=EDGE_CURVE('',#409,#406,#69,.T.);
#308=EDGE_CURVE('',#410,#411,#476,.T.);
#309=EDGE_CURVE('',#411,#412,#70,.F.);
#310=EDGE_CURVE('',#412,#413,#477,.T.);
#311=EDGE_CURVE('',#410,#413,#71,.T.);
#312=EDGE_CURVE('',#414,#415,#478,.T.);
#313=EDGE_CURVE('',#414,#416,#72,.F.);
#314=EDGE_CURVE('',#417,#416,#479,.T.);
#315=EDGE_CURVE('',#415,#417,#73,.T.);
#316=EDGE_CURVE('',#418,#419,#480,.T.);
#317=EDGE_CURVE('',#419,#420,#74,.T.);
#318=EDGE_CURVE('',#420,#421,#481,.F.);
#319=EDGE_CURVE('',#421,#418,#75,.T.);
#320=EDGE_CURVE('',#422,#423,#482,.T.);
#321=EDGE_CURVE('',#423,#424,#76,.F.);
#322=EDGE_CURVE('',#424,#425,#483,.T.);
#323=EDGE_CURVE('',#425,#422,#77,.T.);
#324=EDGE_CURVE('',#426,#427,#78,.T.);
#325=EDGE_CURVE('',#426,#428,#484,.T.);
#326=EDGE_CURVE('',#428,#429,#30,.T.);
#327=EDGE_CURVE('',#429,#403,#485,.F.);
#328=EDGE_CURVE('',#405,#430,#486,.T.);
#329=EDGE_CURVE('',#430,#431,#31,.T.);
#330=EDGE_CURVE('',#431,#427,#487,.F.);
#331=EDGE_CURVE('',#432,#433,#32,.T.);
#332=EDGE_CURVE('',#433,#434,#488,.T.);
#333=EDGE_CURVE('',#434,#435,#79,.T.);
#334=EDGE_CURVE('',#435,#436,#489,.F.);
#335=EDGE_CURVE('',#436,#437,#33,.T.);
#336=EDGE_CURVE('',#437,#415,#490,.T.);
#337=EDGE_CURVE('',#417,#432,#491,.F.);
#338=EDGE_CURVE('',#427,#438,#492,.T.);
#339=EDGE_CURVE('',#438,#439,#80,.F.);
#340=EDGE_CURVE('',#439,#426,#493,.T.);
#341=EDGE_CURVE('',#440,#441,#494,.F.);
#342=EDGE_CURVE('',#441,#442,#81,.T.);
#343=EDGE_CURVE('',#442,#443,#495,.T.);
#344=EDGE_CURVE('',#443,#440,#82,.T.);
#345=EDGE_CURVE('',#444,#445,#496,.T.);
#346=EDGE_CURVE('',#445,#446,#83,.F.);
#347=EDGE_CURVE('',#446,#447,#497,.T.);
#348=EDGE_CURVE('',#444,#447,#84,.T.);
#349=EDGE_CURVE('',#413,#448,#498,.T.);
#350=EDGE_CURVE('',#448,#449,#34,.T.);
#351=EDGE_CURVE('',#449,#444,#499,.F.);
#352=EDGE_CURVE('',#447,#450,#500,.T.);
#353=EDGE_CURVE('',#450,#451,#35,.T.);
#354=EDGE_CURVE('',#451,#410,#501,.F.);
#355=EDGE_CURVE('',#452,#452,#85,.T.);
#356=EDGE_CURVE('',#453,#453,#86,.F.);
#357=EDGE_CURVE('',#454,#454,#87,.T.);
#358=EDGE_CURVE('',#455,#455,#88,.T.);
#359=EDGE_CURVE('',#434,#456,#502,.T.);
#360=EDGE_CURVE('',#456,#457,#89,.F.);
#361=EDGE_CURVE('',#457,#435,#503,.T.);
#362=EDGE_CURVE('',#458,#459,#504,.T.);
#363=EDGE_CURVE('',#459,#460,#90,.T.);
#364=EDGE_CURVE('',#460,#461,#505,.F.);
#365=EDGE_CURVE('',#461,#458,#91,.T.);
#366=EDGE_CURVE('',#462,#463,#506,.T.);
#367=EDGE_CURVE('',#463,#464,#92,.F.);
#368=EDGE_CURVE('',#464,#465,#507,.T.);
#369=EDGE_CURVE('',#465,#462,#93,.T.);
#370=EDGE_CURVE('',#466,#466,#94,.T.);
#371=EDGE_CURVE('',#467,#468,#36,.T.);
#372=EDGE_CURVE('',#468,#422,#508,.F.);
#373=EDGE_CURVE('',#425,#469,#509,.T.);
#374=EDGE_CURVE('',#469,#470,#37,.T.);
#375=EDGE_CURVE('',#470,#462,#510,.F.);
#376=EDGE_CURVE('',#465,#467,#511,.T.);
#377=EDGE_CURVE('',#471,#471,#95,.F.);
#378=EDGE_CURVE('',#424,#419,#38,.T.);
#379=EDGE_CURVE('',#418,#456,#39,.T.);
#380=EDGE_CURVE('',#433,#469,#512,.T.);
#381=EDGE_CURVE('',#460,#463,#40,.T.);
#382=EDGE_CURVE('',#432,#470,#513,.T.);
#383=EDGE_CURVE('',#416,#461,#41,.T.);
#384=EDGE_CURVE('',#468,#436,#514,.T.);
#385=EDGE_CURVE('',#467,#437,#515,.T.);
#386=EDGE_CURVE('',#420,#423,#42,.T.);
#387=EDGE_CURVE('',#457,#421,#43,.T.);
#388=EDGE_CURVE('',#464,#459,#44,.T.);
#389=EDGE_CURVE('',#458,#414,#45,.T.);
#390=EDGE_CURVE('',#451,#428,#516,.T.);
#391=EDGE_CURVE('',#450,#429,#517,.T.);
#392=EDGE_CURVE('',#442,#402,#46,.T.);
#393=EDGE_CURVE('',#446,#443,#47,.T.);
#394=EDGE_CURVE('',#408,#411,#48,.T.);
#395=EDGE_CURVE('',#439,#409,#49,.T.);
#396=EDGE_CURVE('',#412,#407,#50,.T.);
#397=EDGE_CURVE('',#406,#438,#51,.T.);
#398=EDGE_CURVE('',#431,#448,#518,.T.);
#399=EDGE_CURVE('',#404,#441,#52,.T.);
#400=EDGE_CURVE('',#440,#445,#53,.T.);
#401=EDGE_CURVE('',#430,#449,#519,.T.);
#402=VERTEX_POINT('',#998);
#403=VERTEX_POINT('',#999);
#404=VERTEX_POINT('',#1001);
#405=VERTEX_POINT('',#1003);
#406=VERTEX_POINT('',#1007);
#407=VERTEX_POINT('',#1008);
#408=VERTEX_POINT('',#1010);
#409=VERTEX_POINT('',#1012);
#410=VERTEX_POINT('',#1016);
#411=VERTEX_POINT('',#1017);
#412=VERTEX_POINT('',#1019);
#413=VERTEX_POINT('',#1021);
#414=VERTEX_POINT('',#1025);
#415=VERTEX_POINT('',#1026);
#416=VERTEX_POINT('',#1028);
#417=VERTEX_POINT('',#1030);
#418=VERTEX_POINT('',#1034);
#419=VERTEX_POINT('',#1035);
#420=VERTEX_POINT('',#1037);
#421=VERTEX_POINT('',#1039);
#422=VERTEX_POINT('',#1043);
#423=VERTEX_POINT('',#1044);
#424=VERTEX_POINT('',#1046);
#425=VERTEX_POINT('',#1048);
#426=VERTEX_POINT('',#1052);
#427=VERTEX_POINT('',#1053);
#428=VERTEX_POINT('',#1055);
#429=VERTEX_POINT('',#1061);
#430=VERTEX_POINT('',#1064);
#431=VERTEX_POINT('',#1070);
#432=VERTEX_POINT('',#1077);
#433=VERTEX_POINT('',#1078);
#434=VERTEX_POINT('',#1080);
#435=VERTEX_POINT('',#1082);
#436=VERTEX_POINT('',#1084);
#437=VERTEX_POINT('',#1090);
#438=VERTEX_POINT('',#1095);
#439=VERTEX_POINT('',#1097);
#440=VERTEX_POINT('',#1101);
#441=VERTEX_POINT('',#1102);
#442=VERTEX_POINT('',#1104);
#443=VERTEX_POINT('',#1106);
#444=VERTEX_POINT('',#1110);
#445=VERTEX_POINT('',#1111);
#446=VERTEX_POINT('',#1113);
#447=VERTEX_POINT('',#1115);
#448=VERTEX_POINT('',#1119);
#449=VERTEX_POINT('',#1125);
#450=VERTEX_POINT('',#1128);
#451=VERTEX_POINT('',#1134);
#452=VERTEX_POINT('',#1137);
#453=VERTEX_POINT('',#1140);
#454=VERTEX_POINT('',#1143);
#455=VERTEX_POINT('',#1145);
#456=VERTEX_POINT('',#1148);
#457=VERTEX_POINT('',#1150);
#458=VERTEX_POINT('',#1154);
#459=VERTEX_POINT('',#1155);
#460=VERTEX_POINT('',#1157);
#461=VERTEX_POINT('',#1159);
#462=VERTEX_POINT('',#1163);
#463=VERTEX_POINT('',#1164);
#464=VERTEX_POINT('',#1166);
#465=VERTEX_POINT('',#1168);
#466=VERTEX_POINT('',#1172);
#467=VERTEX_POINT('',#1178);
#468=VERTEX_POINT('',#1179);
#469=VERTEX_POINT('',#1182);
#470=VERTEX_POINT('',#1188);
#471=VERTEX_POINT('',#1193);
#472=LINE('',#997,#520);
#473=LINE('',#1002,#521);
#474=LINE('',#1006,#522);
#475=LINE('',#1011,#523);
#476=LINE('',#1015,#524);
#477=LINE('',#1020,#525);
#478=LINE('',#1024,#526);
#479=LINE('',#1029,#527);
#480=LINE('',#1033,#528);
#481=LINE('',#1038,#529);
#482=LINE('',#1042,#530);
#483=LINE('',#1047,#531);
#484=LINE('',#1054,#532);
#485=LINE('',#1062,#533);
#486=LINE('',#1063,#534);
#487=LINE('',#1071,#535);
#488=LINE('',#1079,#536);
#489=LINE('',#1083,#537);
#490=LINE('',#1091,#538);
#491=LINE('',#1092,#539);
#492=LINE('',#1094,#540);
#493=LINE('',#1098,#541);
#494=LINE('',#1100,#542);
#495=LINE('',#1105,#543);
#496=LINE('',#1109,#544);
#497=LINE('',#1114,#545);
#498=LINE('',#1118,#546);
#499=LINE('',#1126,#547);
#500=LINE('',#1127,#548);
#501=LINE('',#1135,#549);
#502=LINE('',#1147,#550);
#503=LINE('',#1151,#551);
#504=LINE('',#1153,#552);
#505=LINE('',#1158,#553);
#506=LINE('',#1162,#554);
#507=LINE('',#1167,#555);
#508=LINE('',#1180,#556);
#509=LINE('',#1181,#557);
#510=LINE('',#1189,#558);
#511=LINE('',#1190,#559);
#512=LINE('',#1203,#560);
#513=LINE('',#1209,#561);
#514=LINE('',#1216,#562);
#515=LINE('',#1217,#563);
#516=LINE('',#1237,#564);
#517=LINE('',#1238,#565);
#518=LINE('',#1266,#566);
#519=LINE('',#1276,#567);
#520=VECTOR('',#809,1000.);
#521=VECTOR('',#812,1000.);
#522=VECTOR('',#817,1000.);
#523=VECTOR('',#820,1000.);
#524=VECTOR('',#825,1000.);
#525=VECTOR('',#828,1000.);
#526=VECTOR('',#833,1000.);
#527=VECTOR('',#836,1000.);
#528=VECTOR('',#841,1000.);
#529=VECTOR('',#844,1000.);
#530=VECTOR('',#849,1000.);
#531=VECTOR('',#852,1000.);
#532=VECTOR('',#859,1000.);
#533=VECTOR('',#860,1000.);
#534=VECTOR('',#861,1000.);
#535=VECTOR('',#862,1000.);
#536=VECTOR('',#863,1000.);
#537=VECTOR('',#866,1000.);
#538=VECTOR('',#867,1000.);
#539=VECTOR('',#868,1000.);
#540=VECTOR('',#871,1000.);
#541=VECTOR('',#874,1000.);
#542=VECTOR('',#877,1000.);
#543=VECTOR('',#880,1000.);
#544=VECTOR('',#885,1000.);
#545=VECTOR('',#888,1000.);
#546=VECTOR('',#893,1000.);
#547=VECTOR('',#894,1000.);
#548=VECTOR('',#895,1000.);
#549=VECTOR('',#896,1000.);
#550=VECTOR('',#911,1000.);
#551=VECTOR('',#914,1000.);
#552=VECTOR('',#917,1000.);
#553=VECTOR('',#920,1000.);
#554=VECTOR('',#925,1000.);
#555=VECTOR('',#928,1000.);
#556=VECTOR('',#935,1000.);
#557=VECTOR('',#936,1000.);
#558=VECTOR('',#937,1000.);
#559=VECTOR('',#938,1000.);
#560=VECTOR('',#945,1000.);
#561=VECTOR('',#948,1000.);
#562=VECTOR('',#953,1000.);
#563=VECTOR('',#954,1000.);
#564=VECTOR('',#961,1000.);
#565=VECTOR('',#962,1000.);
#566=VECTOR('',#969,1000.);
#567=VECTOR('',#972,1000.);
#568=EDGE_LOOP('',(#96,#97,#98,#99));
#569=EDGE_LOOP('',(#100,#101,#102,#103));
#570=EDGE_LOOP('',(#104,#105,#106,#107));
#571=EDGE_LOOP('',(#108,#109,#110,#111));
#572=EDGE_LOOP('',(#112,#113,#114,#115));
#573=EDGE_LOOP('',(#116,#117,#118,#119));
#574=EDGE_LOOP('',(#120,#121,#122,#123,#124,#125,#126,#127));
#575=EDGE_LOOP('',(#128,#129,#130,#131,#132,#133,#134,#135));
#576=EDGE_LOOP('',(#136,#137,#138,#139));
#577=EDGE_LOOP('',(#140,#141,#142,#143));
#578=EDGE_LOOP('',(#144,#145,#146,#147));
#579=EDGE_LOOP('',(#148,#149,#150,#151,#152,#153,#154,#155));
#580=EDGE_LOOP('',(#156));
#581=EDGE_LOOP('',(#157));
#582=EDGE_LOOP('',(#158));
#583=EDGE_LOOP('',(#159));
#584=EDGE_LOOP('',(#160));
#585=EDGE_LOOP('',(#161,#162,#163,#164));
#586=EDGE_LOOP('',(#165,#166,#167,#168));
#587=EDGE_LOOP('',(#169,#170,#171,#172));
#588=EDGE_LOOP('',(#173));
#589=EDGE_LOOP('',(#174,#175,#176,#177,#178,#179,#180,#181));
#590=EDGE_LOOP('',(#182));
#591=EDGE_LOOP('',(#183));
#592=EDGE_LOOP('',(#184,#185,#186,#187,#188,#189,#190,#191));
#593=EDGE_LOOP('',(#192,#193,#194,#195,#196,#197,#198,#199));
#594=EDGE_LOOP('',(#200,#201,#202,#203));
#595=EDGE_LOOP('',(#204,#205,#206,#207));
#596=EDGE_LOOP('',(#208,#209,#210,#211,#212,#213,#214,#215));
#597=EDGE_LOOP('',(#216,#217,#218,#219,#220,#221,#222,#223));
#598=EDGE_LOOP('',(#224,#225,#226,#227));
#599=EDGE_LOOP('',(#228,#229,#230,#231,#232,#233,#234,#235));
#600=EDGE_LOOP('',(#236,#237,#238,#239,#240,#241,#242,#243));
#601=EDGE_LOOP('',(#244,#245,#246,#247,#248,#249,#250,#251));
#602=EDGE_LOOP('',(#252,#253,#254,#255,#256,#257,#258,#259));
#603=EDGE_LOOP('',(#260,#261,#262,#263));
#604=EDGE_LOOP('',(#264));
#605=EDGE_LOOP('',(#265));
#606=EDGE_LOOP('',(#266,#267,#268,#269));
#607=EDGE_LOOP('',(#270,#271,#272,#273));
#608=EDGE_LOOP('',(#274,#275,#276,#277));
#609=EDGE_LOOP('',(#278,#279,#280,#281));
#610=EDGE_LOOP('',(#282,#283,#284,#285));
#611=EDGE_LOOP('',(#286,#287,#288,#289));
#612=EDGE_LOOP('',(#290,#291,#292,#293));
#613=EDGE_LOOP('',(#294,#295,#296,#297));
#614=EDGE_LOOP('',(#298));
#615=EDGE_LOOP('',(#299));
#616=FACE_BOUND('',#568,.T.);
#617=FACE_BOUND('',#569,.T.);
#618=FACE_BOUND('',#570,.T.);
#619=FACE_BOUND('',#571,.T.);
#620=FACE_BOUND('',#572,.T.);
#621=FACE_BOUND('',#573,.T.);
#622=FACE_BOUND('',#574,.T.);
#623=FACE_BOUND('',#575,.T.);
#624=FACE_BOUND('',#576,.T.);
#625=FACE_BOUND('',#577,.T.);
#626=FACE_BOUND('',#578,.T.);
#627=FACE_BOUND('',#579,.T.);
#628=FACE_BOUND('',#580,.T.);
#629=FACE_BOUND('',#581,.T.);
#630=FACE_BOUND('',#582,.T.);
#631=FACE_BOUND('',#583,.T.);
#632=FACE_BOUND('',#584,.T.);
#633=FACE_BOUND('',#585,.T.);
#634=FACE_BOUND('',#586,.T.);
#635=FACE_BOUND('',#587,.T.);
#636=FACE_BOUND('',#588,.T.);
#637=FACE_BOUND('',#589,.T.);
#638=FACE_BOUND('',#590,.T.);
#639=FACE_BOUND('',#591,.T.);
#640=FACE_BOUND('',#592,.T.);
#641=FACE_BOUND('',#593,.T.);
#642=FACE_BOUND('',#594,.T.);
#643=FACE_BOUND('',#595,.T.);
#644=FACE_BOUND('',#596,.T.);
#645=FACE_BOUND('',#597,.T.);
#646=FACE_BOUND('',#598,.T.);
#647=FACE_BOUND('',#599,.T.);
#648=FACE_BOUND('',#600,.T.);
#649=FACE_BOUND('',#601,.T.);
#650=FACE_BOUND('',#602,.T.);
#651=FACE_BOUND('',#603,.T.);
#652=FACE_BOUND('',#604,.T.);
#653=FACE_BOUND('',#605,.T.);
#654=FACE_BOUND('',#606,.T.);
#655=FACE_BOUND('',#607,.T.);
#656=FACE_BOUND('',#608,.T.);
#657=FACE_BOUND('',#609,.T.);
#658=FACE_BOUND('',#610,.T.);
#659=FACE_BOUND('',#611,.T.);
#660=FACE_BOUND('',#612,.T.);
#661=FACE_BOUND('',#613,.T.);
#662=FACE_BOUND('',#614,.T.);
#663=FACE_BOUND('',#615,.T.);
#664=PLANE('',#735);
#665=PLANE('',#741);
#666=PLANE('',#744);
#667=PLANE('',#750);
#668=PLANE('',#756);
#669=PLANE('',#761);
#670=PLANE('',#766);
#671=PLANE('',#771);
#672=PLANE('',#776);
#673=PLANE('',#781);
#674=PLANE('',#783);
#675=PLANE('',#784);
#676=PLANE('',#787);
#677=PLANE('',#788);
#678=PLANE('',#790);
#679=PLANE('',#791);
#680=PLANE('',#792);
#681=PLANE('',#793);
#682=ADVANCED_FACE('',(#616),#664,.F.);
#683=ADVANCED_FACE('',(#617),#54,.T.);
#684=ADVANCED_FACE('',(#618),#665,.F.);
#685=ADVANCED_FACE('',(#619),#666,.F.);
#686=ADVANCED_FACE('',(#620),#55,.T.);
#687=ADVANCED_FACE('',(#621),#667,.F.);
#688=ADVANCED_FACE('',(#622,#623),#56,.F.);
#689=ADVANCED_FACE('',(#624),#668,.F.);
#690=ADVANCED_FACE('',(#625),#57,.T.);
#691=ADVANCED_FACE('',(#626),#669,.F.);
#692=ADVANCED_FACE('',(#627,#628),#58,.T.);
#693=ADVANCED_FACE('',(#629,#630),#670,.F.);
#694=ADVANCED_FACE('',(#631,#632),#59,.T.);
#695=ADVANCED_FACE('',(#633),#671,.F.);
#696=ADVANCED_FACE('',(#634),#60,.T.);
#697=ADVANCED_FACE('',(#635),#672,.F.);
#698=ADVANCED_FACE('',(#636,#637),#61,.T.);
#699=ADVANCED_FACE('',(#638,#639),#673,.F.);
#700=ADVANCED_FACE('',(#640),#674,.F.);
#701=ADVANCED_FACE('',(#641),#675,.F.);
#702=ADVANCED_FACE('',(#642),#62,.F.);
#703=ADVANCED_FACE('',(#643),#63,.F.);
#704=ADVANCED_FACE('',(#644),#676,.F.);
#705=ADVANCED_FACE('',(#645),#677,.F.);
#706=ADVANCED_FACE('',(#646),#64,.F.);
#707=ADVANCED_FACE('',(#647),#678,.F.);
#708=ADVANCED_FACE('',(#648),#679,.F.);
#709=ADVANCED_FACE('',(#649),#680,.F.);
#710=ADVANCED_FACE('',(#650),#681,.F.);
#711=ADVANCED_FACE('',(#651),#65,.F.);
#712=ADVANCED_FACE('',(#652,#653),#20,.T.);
#713=ADVANCED_FACE('',(#654),#21,.T.);
#714=ADVANCED_FACE('',(#655),#22,.T.);
#715=ADVANCED_FACE('',(#656),#23,.T.);
#716=ADVANCED_FACE('',(#657),#24,.T.);
#717=ADVANCED_FACE('',(#658),#25,.T.);
#718=ADVANCED_FACE('',(#659),#26,.T.);
#719=ADVANCED_FACE('',(#660),#27,.T.);
#720=ADVANCED_FACE('',(#661),#28,.T.);
#721=ADVANCED_FACE('',(#662,#663),#29,.T.);
#722=CLOSED_SHELL('',(#682,#683,#684,#685,#686,#687,#688,#689,#690,#691,
#692,#693,#694,#695,#696,#697,#698,#699,#700,#701,#702,#703,#704,#705,#706,
#707,#708,#709,#710,#711,#712,#713,#714,#715,#716,#717,#718,#719,#720,#721));
#723=STYLED_ITEM('',(#724),#731);
#724=PRESENTATION_STYLE_ASSIGNMENT((#725));
#725=SURFACE_STYLE_USAGE(.BOTH.,#726);
#726=SURFACE_SIDE_STYLE('',(#727));
#727=SURFACE_STYLE_FILL_AREA(#728);
#728=FILL_AREA_STYLE('',(#729));
#729=FILL_AREA_STYLE_COLOUR('',#730);
#730=COLOUR_RGB('',0.506983280181885,0.531564235687256,0.550000011920929);
#731=MANIFOLD_SOLID_BREP('',#722);
#732=SHAPE_DEFINITION_REPRESENTATION(#1294,#733);
#733=SHAPE_REPRESENTATION('ClGray_4211807_MCM',(#734),#1289);
#734=AXIS2_PLACEMENT_3D('',#995,#805,#806);
#735=AXIS2_PLACEMENT_3D('',#996,#807,#808);
#736=AXIS2_PLACEMENT_3D('',#1000,#810,#811);
#737=AXIS2_PLACEMENT_3D('',#1004,#813,#814);
#738=AXIS2_PLACEMENT_3D('',#1005,#815,#816);
#739=AXIS2_PLACEMENT_3D('',#1009,#818,#819);
#740=AXIS2_PLACEMENT_3D('',#1013,#821,#822);
#741=AXIS2_PLACEMENT_3D('',#1014,#823,#824);
#742=AXIS2_PLACEMENT_3D('',#1018,#826,#827);
#743=AXIS2_PLACEMENT_3D('',#1022,#829,#830);
#744=AXIS2_PLACEMENT_3D('',#1023,#831,#832);
#745=AXIS2_PLACEMENT_3D('',#1027,#834,#835);
#746=AXIS2_PLACEMENT_3D('',#1031,#837,#838);
#747=AXIS2_PLACEMENT_3D('',#1032,#839,#840);
#748=AXIS2_PLACEMENT_3D('',#1036,#842,#843);
#749=AXIS2_PLACEMENT_3D('',#1040,#845,#846);
#750=AXIS2_PLACEMENT_3D('',#1041,#847,#848);
#751=AXIS2_PLACEMENT_3D('',#1045,#850,#851);
#752=AXIS2_PLACEMENT_3D('',#1049,#853,#854);
#753=AXIS2_PLACEMENT_3D('',#1050,#855,#856);
#754=AXIS2_PLACEMENT_3D('',#1051,#857,#858);
#755=AXIS2_PLACEMENT_3D('',#1081,#864,#865);
#756=AXIS2_PLACEMENT_3D('',#1093,#869,#870);
#757=AXIS2_PLACEMENT_3D('',#1096,#872,#873);
#758=AXIS2_PLACEMENT_3D('',#1099,#875,#876);
#759=AXIS2_PLACEMENT_3D('',#1103,#878,#879);
#760=AXIS2_PLACEMENT_3D('',#1107,#881,#882);
#761=AXIS2_PLACEMENT_3D('',#1108,#883,#884);
#762=AXIS2_PLACEMENT_3D('',#1112,#886,#887);
#763=AXIS2_PLACEMENT_3D('',#1116,#889,#890);
#764=AXIS2_PLACEMENT_3D('',#1117,#891,#892);
#765=AXIS2_PLACEMENT_3D('',#1136,#897,#898);
#766=AXIS2_PLACEMENT_3D('',#1138,#899,#900);
#767=AXIS2_PLACEMENT_3D('',#1139,#901,#902);
#768=AXIS2_PLACEMENT_3D('',#1141,#903,#904);
#769=AXIS2_PLACEMENT_3D('',#1142,#905,#906);
#770=AXIS2_PLACEMENT_3D('',#1144,#907,#908);
#771=AXIS2_PLACEMENT_3D('',#1146,#909,#910);
#772=AXIS2_PLACEMENT_3D('',#1149,#912,#913);
#773=AXIS2_PLACEMENT_3D('',#1152,#915,#916);
#774=AXIS2_PLACEMENT_3D('',#1156,#918,#919);
#775=AXIS2_PLACEMENT_3D('',#1160,#921,#922);
#776=AXIS2_PLACEMENT_3D('',#1161,#923,#924);
#777=AXIS2_PLACEMENT_3D('',#1165,#926,#927);
#778=AXIS2_PLACEMENT_3D('',#1169,#929,#930);
#779=AXIS2_PLACEMENT_3D('',#1170,#931,#932);
#780=AXIS2_PLACEMENT_3D('',#1171,#933,#934);
#781=AXIS2_PLACEMENT_3D('',#1191,#939,#940);
#782=AXIS2_PLACEMENT_3D('',#1192,#941,#942);
#783=AXIS2_PLACEMENT_3D('',#1194,#943,#944);
#784=AXIS2_PLACEMENT_3D('',#1204,#946,#947);
#785=AXIS2_PLACEMENT_3D('',#1214,#949,#950);
#786=AXIS2_PLACEMENT_3D('',#1215,#951,#952);
#787=AXIS2_PLACEMENT_3D('',#1218,#955,#956);
#788=AXIS2_PLACEMENT_3D('',#1227,#957,#958);
#789=AXIS2_PLACEMENT_3D('',#1236,#959,#960);
#790=AXIS2_PLACEMENT_3D('',#1239,#963,#964);
#791=AXIS2_PLACEMENT_3D('',#1248,#965,#966);
#792=AXIS2_PLACEMENT_3D('',#1257,#967,#968);
#793=AXIS2_PLACEMENT_3D('',#1267,#970,#971);
#794=AXIS2_PLACEMENT_3D('',#1277,#973,#974);
#795=AXIS2_PLACEMENT_3D('',#1278,#975,#976);
#796=AXIS2_PLACEMENT_3D('',#1279,#977,#978);
#797=AXIS2_PLACEMENT_3D('',#1280,#979,#980);
#798=AXIS2_PLACEMENT_3D('',#1281,#981,#982);
#799=AXIS2_PLACEMENT_3D('',#1282,#983,#984);
#800=AXIS2_PLACEMENT_3D('',#1283,#985,#986);
#801=AXIS2_PLACEMENT_3D('',#1284,#987,#988);
#802=AXIS2_PLACEMENT_3D('',#1285,#989,#990);
#803=AXIS2_PLACEMENT_3D('',#1286,#991,#992);
#804=AXIS2_PLACEMENT_3D('',#1287,#993,#994);
#805=DIRECTION('',(0.,0.,1.));
#806=DIRECTION('',(1.,0.,0.));
#807=DIRECTION('',(-1.,0.,0.));
#808=DIRECTION('',(0.,0.,1.));
#809=DIRECTION('',(0.,1.,0.));
#810=DIRECTION('',(-1.,0.,0.));
#811=DIRECTION('',(0.,0.,1.));
#812=DIRECTION('',(0.,1.,0.));
#813=DIRECTION('',(-1.,0.,0.));
#814=DIRECTION('',(0.,0.,1.));
#815=DIRECTION('',(-1.,0.,0.));
#816=DIRECTION('',(0.,0.,1.));
#817=DIRECTION('',(-1.,0.,0.));
#818=DIRECTION('',(1.,0.,0.));
#819=DIRECTION('',(0.,0.,-1.));
#820=DIRECTION('',(-1.,0.,0.));
#821=DIRECTION('',(-1.,0.,0.));
#822=DIRECTION('',(0.,0.,1.));
#823=DIRECTION('',(1.,0.,0.));
#824=DIRECTION('',(0.,0.,-1.));
#825=DIRECTION('',(0.,-1.,0.));
#826=DIRECTION('',(1.,0.,0.));
#827=DIRECTION('',(0.,0.,-1.));
#828=DIRECTION('',(0.,-1.,0.));
#829=DIRECTION('',(-1.,0.,0.));
#830=DIRECTION('',(0.,0.,1.));
#831=DIRECTION('',(1.,0.,0.));
#832=DIRECTION('',(0.,0.,1.));
#833=DIRECTION('',(0.,1.,0.));
#834=DIRECTION('',(1.,0.,0.));
#835=DIRECTION('',(0.,0.,-1.));
#836=DIRECTION('',(0.,1.,0.));
#837=DIRECTION('',(-1.,0.,0.));
#838=DIRECTION('',(0.,0.,1.));
#839=DIRECTION('',(1.,0.,0.));
#840=DIRECTION('',(0.,0.,1.));
#841=DIRECTION('',(1.,0.,0.));
#842=DIRECTION('',(-1.,0.,0.));
#843=DIRECTION('',(0.,0.,1.));
#844=DIRECTION('',(1.,0.,0.));
#845=DIRECTION('',(1.,0.,0.));
#846=DIRECTION('',(0.,0.,-1.));
#847=DIRECTION('',(-1.,0.,0.));
#848=DIRECTION('',(0.,0.,-1.));
#849=DIRECTION('',(0.,-1.,0.));
#850=DIRECTION('',(-1.,0.,0.));
#851=DIRECTION('',(0.,0.,1.));
#852=DIRECTION('',(0.,-1.,0.));
#853=DIRECTION('',(-1.,0.,0.));
#854=DIRECTION('',(0.,0.,1.));
#855=DIRECTION('',(-1.,0.,0.));
#856=DIRECTION('',(0.,0.,1.));
#857=DIRECTION('',(-1.,0.,0.));
#858=DIRECTION('',(0.,0.,1.));
#859=DIRECTION('',(-1.,0.,0.));
#860=DIRECTION('',(-1.,0.,0.));
#861=DIRECTION('',(-1.,0.,0.));
#862=DIRECTION('',(-1.,0.,0.));
#863=DIRECTION('',(-1.,0.,0.));
#864=DIRECTION('',(-1.,0.,0.));
#865=DIRECTION('',(0.,0.,1.));
#866=DIRECTION('',(-1.,0.,0.));
#867=DIRECTION('',(-1.,0.,0.));
#868=DIRECTION('',(-1.,0.,0.));
#869=DIRECTION('',(-1.,0.,0.));
#870=DIRECTION('',(0.,0.,1.));
#871=DIRECTION('',(0.,1.,0.));
#872=DIRECTION('',(-1.,0.,0.));
#873=DIRECTION('',(0.,0.,1.));
#874=DIRECTION('',(0.,1.,0.));
#875=DIRECTION('',(-1.,0.,0.));
#876=DIRECTION('',(0.,0.,1.));
#877=DIRECTION('',(-1.,0.,0.));
#878=DIRECTION('',(-1.,0.,0.));
#879=DIRECTION('',(0.,0.,1.));
#880=DIRECTION('',(-1.,0.,0.));
#881=DIRECTION('',(1.,0.,0.));
#882=DIRECTION('',(0.,0.,-1.));
#883=DIRECTION('',(1.,0.,0.));
#884=DIRECTION('',(0.,0.,-1.));
#885=DIRECTION('',(0.,1.,0.));
#886=DIRECTION('',(1.,0.,0.));
#887=DIRECTION('',(0.,0.,-1.));
#888=DIRECTION('',(0.,1.,0.));
#889=DIRECTION('',(-1.,0.,0.));
#890=DIRECTION('',(0.,0.,1.));
#891=DIRECTION('',(-1.,0.,0.));
#892=DIRECTION('',(0.,0.,1.));
#893=DIRECTION('',(-1.,0.,0.));
#894=DIRECTION('',(-1.,0.,0.));
#895=DIRECTION('',(-1.,0.,0.));
#896=DIRECTION('',(-1.,0.,0.));
#897=DIRECTION('',(-1.,0.,0.));
#898=DIRECTION('',(0.,0.,1.));
#899=DIRECTION('',(-1.,0.,0.));
#900=DIRECTION('',(0.,0.,1.));
#901=DIRECTION('',(-1.,0.,0.));
#902=DIRECTION('',(0.,0.,1.));
#903=DIRECTION('',(-1.,0.,0.));
#904=DIRECTION('',(0.,0.,1.));
#905=DIRECTION('',(-1.,0.,0.));
#906=DIRECTION('',(0.,0.,1.));
#907=DIRECTION('',(1.,0.,0.));
#908=DIRECTION('',(0.,0.,-1.));
#909=DIRECTION('',(1.,0.,0.));
#910=DIRECTION('',(0.,0.,1.));
#911=DIRECTION('',(0.,1.,0.));
#912=DIRECTION('',(1.,0.,0.));
#913=DIRECTION('',(0.,0.,-1.));
#914=DIRECTION('',(0.,1.,0.));
#915=DIRECTION('',(1.,0.,0.));
#916=DIRECTION('',(0.,0.,1.));
#917=DIRECTION('',(1.,0.,0.));
#918=DIRECTION('',(-1.,0.,0.));
#919=DIRECTION('',(0.,0.,1.));
#920=DIRECTION('',(1.,0.,0.));
#921=DIRECTION('',(1.,0.,0.));
#922=DIRECTION('',(0.,0.,-1.));
#923=DIRECTION('',(-1.,0.,0.));
#924=DIRECTION('',(0.,0.,-1.));
#925=DIRECTION('',(0.,1.,0.));
#926=DIRECTION('',(-1.,0.,0.));
#927=DIRECTION('',(0.,0.,1.));
#928=DIRECTION('',(0.,1.,0.));
#929=DIRECTION('',(-1.,0.,0.));
#930=DIRECTION('',(0.,0.,1.));
#931=DIRECTION('',(1.,0.,0.));
#932=DIRECTION('',(0.,0.,1.));
#933=DIRECTION('',(-1.,0.,0.));
#934=DIRECTION('',(0.,0.,1.));
#935=DIRECTION('',(1.,0.,0.));
#936=DIRECTION('',(1.,0.,0.));
#937=DIRECTION('',(1.,0.,0.));
#938=DIRECTION('',(1.,0.,0.));
#939=DIRECTION('',(1.,0.,0.));
#940=DIRECTION('',(0.,0.,1.));
#941=DIRECTION('',(1.,0.,0.));
#942=DIRECTION('',(0.,0.,-1.));
#943=DIRECTION('',(1.26490253456642E-16,0.,-1.));
#944=DIRECTION('',(-1.,0.,-1.26490253456642E-16));
#945=DIRECTION('',(0.,1.,0.));
#946=DIRECTION('',(1.80700362080917E-17,0.,1.));
#947=DIRECTION('',(1.,0.,-1.80700362080917E-17));
#948=DIRECTION('',(0.,1.,0.));
#949=DIRECTION('',(0.,1.,0.));
#950=DIRECTION('',(0.,0.,1.));
#951=DIRECTION('',(0.,1.,0.));
#952=DIRECTION('',(0.,0.,1.));
#953=DIRECTION('',(0.,1.,0.));
#954=DIRECTION('',(0.,1.,0.));
#955=DIRECTION('',(1.26490253456642E-16,0.,-1.));
#956=DIRECTION('',(-1.,0.,-1.26490253456642E-16));
#957=DIRECTION('',(1.80700362080917E-17,0.,1.));
#958=DIRECTION('',(1.,0.,-1.80700362080917E-17));
#959=DIRECTION('',(0.,1.,0.));
#960=DIRECTION('',(0.,0.,1.));
#961=DIRECTION('',(0.,1.,0.));
#962=DIRECTION('',(0.,1.,0.));
#963=DIRECTION('',(1.26490253456642E-16,0.,-1.));
#964=DIRECTION('',(-1.,0.,-1.26490253456642E-16));
#965=DIRECTION('',(1.80700362080917E-17,0.,1.));
#966=DIRECTION('',(1.,0.,-1.80700362080917E-17));
#967=DIRECTION('',(1.80700362080917E-17,0.,1.));
#968=DIRECTION('',(1.,0.,-1.80700362080917E-17));
#969=DIRECTION('',(0.,1.,0.));
#970=DIRECTION('',(1.26490253456642E-16,0.,-1.));
#971=DIRECTION('',(-1.,0.,-1.26490253456642E-16));
#972=DIRECTION('',(0.,1.,0.));
#973=DIRECTION('',(0.,1.,0.));
#974=DIRECTION('',(0.,0.,1.));
#975=DIRECTION('',(1.,0.,0.));
#976=DIRECTION('',(0.,0.,-1.));
#977=DIRECTION('',(1.,0.,0.));
#978=DIRECTION('',(0.,0.,-1.));
#979=DIRECTION('',(-1.,0.,0.));
#980=DIRECTION('',(0.,0.,1.));
#981=DIRECTION('',(-1.,0.,0.));
#982=DIRECTION('',(0.,0.,1.));
#983=DIRECTION('',(1.,0.,0.));
#984=DIRECTION('',(0.,0.,-1.));
#985=DIRECTION('',(1.,0.,0.));
#986=DIRECTION('',(0.,0.,-1.));
#987=DIRECTION('',(1.,0.,0.));
#988=DIRECTION('',(0.,0.,-1.));
#989=DIRECTION('',(-1.,0.,0.));
#990=DIRECTION('',(0.,0.,1.));
#991=DIRECTION('',(-1.,0.,0.));
#992=DIRECTION('',(0.,0.,1.));
#993=DIRECTION('',(-1.,0.,0.));
#994=DIRECTION('',(0.,0.,1.));
#995=CARTESIAN_POINT('',(0.,0.,0.));
#996=CARTESIAN_POINT('',(8.,0.,2.));
#997=CARTESIAN_POINT('',(8.00000000000001,-150.,-0.4));
#998=CARTESIAN_POINT('',(8.00000000000001,-2.46779253585061,-0.4));
#999=CARTESIAN_POINT('',(8.00000000000001,-1.95959179422653,-0.4));
#1000=CARTESIAN_POINT('',(8.,0.,0.));
#1001=CARTESIAN_POINT('',(8.00000000000001,2.46779253585061,-0.4));
#1002=CARTESIAN_POINT('',(8.00000000000001,-150.,-0.4));
#1003=CARTESIAN_POINT('',(8.00000000000001,1.95959179422653,-0.4));
#1004=CARTESIAN_POINT('',(8.00000000000001,0.,0.));
#1005=CARTESIAN_POINT('',(-60.,0.,0.));
#1006=CARTESIAN_POINT('',(-60.,2.56904651573303,0.400000000000001));
#1007=CARTESIAN_POINT('',(7.9,2.56904651573303,0.400000000000001));
#1008=CARTESIAN_POINT('',(7.3,2.56904651573303,0.400000000000001));
#1009=CARTESIAN_POINT('',(7.3,0.,0.));
#1010=CARTESIAN_POINT('',(7.3,-2.56904651573303,0.400000000000001));
#1011=CARTESIAN_POINT('',(-60.,-2.56904651573303,0.400000000000001));
#1012=CARTESIAN_POINT('',(7.9,-2.56904651573303,0.400000000000001));
#1013=CARTESIAN_POINT('',(7.9,0.,0.));
#1014=CARTESIAN_POINT('',(7.2,0.,2.6));
#1015=CARTESIAN_POINT('',(7.2,0.,0.4));
#1016=CARTESIAN_POINT('',(7.2,-2.36643191323985,0.400000000000001));
#1017=CARTESIAN_POINT('',(7.2,-2.46779253585061,0.4));
#1018=CARTESIAN_POINT('',(7.2,0.,0.));
#1019=CARTESIAN_POINT('',(7.2,2.46779253585061,0.4));
#1020=CARTESIAN_POINT('',(7.2,0.,0.4));
#1021=CARTESIAN_POINT('',(7.2,2.36643191323985,0.400000000000001));
#1022=CARTESIAN_POINT('',(7.2,0.,0.));
#1023=CARTESIAN_POINT('',(-8.,0.,2.));
#1024=CARTESIAN_POINT('',(-8.00000000000001,-150.,0.4));
#1025=CARTESIAN_POINT('',(-8.00000000000001,-2.46779253585061,0.4));
#1026=CARTESIAN_POINT('',(-8.00000000000001,-1.95959179422653,0.4));
#1027=CARTESIAN_POINT('',(-8.,0.,0.));
#1028=CARTESIAN_POINT('',(-8.00000000000001,2.46779253585061,0.4));
#1029=CARTESIAN_POINT('',(-8.00000000000001,-150.,0.4));
#1030=CARTESIAN_POINT('',(-8.00000000000001,1.95959179422653,0.4));
#1031=CARTESIAN_POINT('',(-8.00000000000001,0.,0.));
#1032=CARTESIAN_POINT('',(60.,0.,0.));
#1033=CARTESIAN_POINT('',(60.,2.56904651573303,-0.399999999999994));
#1034=CARTESIAN_POINT('',(-7.9,2.56904651573303,-0.399999999999994));
#1035=CARTESIAN_POINT('',(-7.3,2.56904651573303,-0.399999999999994));
#1036=CARTESIAN_POINT('',(-7.3,0.,0.));
#1037=CARTESIAN_POINT('',(-7.3,-2.56904651573303,-0.399999999999994));
#1038=CARTESIAN_POINT('',(60.,-2.56904651573303,-0.399999999999994));
#1039=CARTESIAN_POINT('',(-7.9,-2.56904651573303,-0.399999999999994));
#1040=CARTESIAN_POINT('',(-7.9,0.,0.));
#1041=CARTESIAN_POINT('',(-7.2,0.,2.6));
#1042=CARTESIAN_POINT('',(-7.2,0.,-0.400000000000002));
#1043=CARTESIAN_POINT('',(-7.2,-2.36643191323985,-0.399999999999994));
#1044=CARTESIAN_POINT('',(-7.2,-2.46779253585061,-0.400000000000002));
#1045=CARTESIAN_POINT('',(-7.2,0.,0.));
#1046=CARTESIAN_POINT('',(-7.2,2.46779253585061,-0.400000000000002));
#1047=CARTESIAN_POINT('',(-7.2,0.,-0.400000000000002));
#1048=CARTESIAN_POINT('',(-7.2,2.36643191323985,-0.399999999999994));
#1049=CARTESIAN_POINT('',(-7.2,0.,0.));
#1050=CARTESIAN_POINT('',(-60.,0.,0.));
#1051=CARTESIAN_POINT('',(8.00000000000001,0.,0.));
#1052=CARTESIAN_POINT('',(8.00000000000001,-1.95959179422653,0.4));
#1053=CARTESIAN_POINT('',(8.00000000000001,1.95959179422653,0.4));
#1054=CARTESIAN_POINT('',(-60.,-1.95959179422654,0.400000000000001));
#1055=CARTESIAN_POINT('',(5.,-1.95959179422654,0.4));
#1056=CARTESIAN_POINT('',(5.,-1.95959179422654,0.400000000000001));
#1057=CARTESIAN_POINT('',(4.78804816164062,-1.95959179422654,0.400000000000001));
#1058=CARTESIAN_POINT('',(4.41195279205319,-2.04040815308719,0.000649222677642981));
#1059=CARTESIAN_POINT('',(4.7880467811157,-1.95959179422656,-0.400000000000005));
#1060=CARTESIAN_POINT('',(5.00000000000001,-1.95959179422656,-0.400000000000003));
#1061=CARTESIAN_POINT('',(5.00000000000001,-1.95959179422654,-0.400000000000001));
#1062=CARTESIAN_POINT('',(-60.,-1.95959179422654,-0.400000000000009));
#1063=CARTESIAN_POINT('',(-60.,1.95959179422654,-0.400000000000009));
#1064=CARTESIAN_POINT('',(5.00000000000001,1.95959179422654,-0.400000000000001));
#1065=CARTESIAN_POINT('',(5.00000000000001,1.95959179422654,-0.400000000000001));
#1066=CARTESIAN_POINT('',(4.78804816164062,1.95959179422654,-0.400000000000002));
#1067=CARTESIAN_POINT('',(4.41195279205319,2.04040815308718,-0.000649222677646775));
#1068=CARTESIAN_POINT('',(4.7880467811157,1.95959179422656,0.400000000000003));
#1069=CARTESIAN_POINT('',(5.00000000000001,1.95959179422656,0.400000000000003));
#1070=CARTESIAN_POINT('',(5.,1.95959179422654,0.4));
#1071=CARTESIAN_POINT('',(-60.,1.95959179422654,0.400000000000001));
#1072=CARTESIAN_POINT('',(-5.00000000000001,1.95959179422654,0.4));
#1073=CARTESIAN_POINT('',(-4.78804816164062,1.95959179422654,0.400000000000002));
#1074=CARTESIAN_POINT('',(-4.41195279205319,2.04040815308719,0.000649222677645637));
#1075=CARTESIAN_POINT('',(-4.7880467811157,1.95959179422656,-0.400000000000002));
#1076=CARTESIAN_POINT('',(-5.00000000000001,1.95959179422656,-0.400000000000002));
#1077=CARTESIAN_POINT('',(-5.00000000000001,1.95959179422653,0.4));
#1078=CARTESIAN_POINT('',(-5.,1.95959179422653,-0.400000000000002));
#1079=CARTESIAN_POINT('',(-60.,1.95959179422654,-0.400000000000009));
#1080=CARTESIAN_POINT('',(-8.00000000000001,1.95959179422653,-0.400000000000002));
#1081=CARTESIAN_POINT('',(-8.00000000000001,0.,0.));
#1082=CARTESIAN_POINT('',(-8.00000000000001,-1.95959179422653,-0.400000000000002));
#1083=CARTESIAN_POINT('',(-60.,-1.95959179422654,-0.400000000000009));
#1084=CARTESIAN_POINT('',(-5.,-1.95959179422653,-0.400000000000002));
#1085=CARTESIAN_POINT('',(-5.,-1.95959179422654,-0.4));
#1086=CARTESIAN_POINT('',(-4.78804816164062,-1.95959179422654,-0.4));
#1087=CARTESIAN_POINT('',(-4.41195279205319,-2.04040815308718,-0.000649222677641842));
#1088=CARTESIAN_POINT('',(-4.7880467811157,-1.95959179422656,0.400000000000004));
#1089=CARTESIAN_POINT('',(-5.00000000000001,-1.95959179422656,0.400000000000002));
#1090=CARTESIAN_POINT('',(-5.00000000000001,-1.95959179422653,0.4));
#1091=CARTESIAN_POINT('',(-60.,-1.95959179422654,0.400000000000001));
#1092=CARTESIAN_POINT('',(-60.,1.95959179422654,0.400000000000001));
#1093=CARTESIAN_POINT('',(8.,0.,2.));
#1094=CARTESIAN_POINT('',(8.00000000000001,-150.,0.4));
#1095=CARTESIAN_POINT('',(8.00000000000001,2.46779253585061,0.4));
#1096=CARTESIAN_POINT('',(8.,0.,0.));
#1097=CARTESIAN_POINT('',(8.00000000000001,-2.46779253585061,0.4));
#1098=CARTESIAN_POINT('',(8.00000000000001,-150.,0.4));
#1099=CARTESIAN_POINT('',(-60.,0.,0.));
#1100=CARTESIAN_POINT('',(-60.,2.56904651573302,-0.400000000000009));
#1101=CARTESIAN_POINT('',(7.3,2.56904651573302,-0.400000000000009));
#1102=CARTESIAN_POINT('',(7.9,2.56904651573302,-0.400000000000009));
#1103=CARTESIAN_POINT('',(7.9,0.,0.));
#1104=CARTESIAN_POINT('',(7.9,-2.56904651573302,-0.400000000000009));
#1105=CARTESIAN_POINT('',(-60.,-2.56904651573302,-0.400000000000009));
#1106=CARTESIAN_POINT('',(7.3,-2.56904651573302,-0.400000000000009));
#1107=CARTESIAN_POINT('',(7.3,0.,0.));
#1108=CARTESIAN_POINT('',(7.2,0.,2.6));
#1109=CARTESIAN_POINT('',(7.2,0.,-0.4));
#1110=CARTESIAN_POINT('',(7.2,2.36643191323985,-0.400000000000009));
#1111=CARTESIAN_POINT('',(7.2,2.46779253585061,-0.4));
#1112=CARTESIAN_POINT('',(7.2,0.,0.));
#1113=CARTESIAN_POINT('',(7.2,-2.46779253585061,-0.4));
#1114=CARTESIAN_POINT('',(7.2,0.,-0.4));
#1115=CARTESIAN_POINT('',(7.2,-2.36643191323985,-0.400000000000009));
#1116=CARTESIAN_POINT('',(7.2,0.,0.));
#1117=CARTESIAN_POINT('',(-60.,0.,0.));
#1118=CARTESIAN_POINT('',(-60.,2.36643191323985,0.400000000000001));
#1119=CARTESIAN_POINT('',(5.,2.36643191323985,0.4));
#1120=CARTESIAN_POINT('',(5.,2.36643191323985,0.400000000000001));
#1121=CARTESIAN_POINT('',(4.78822268583313,2.36643191323985,0.400000000000001));
#1122=CARTESIAN_POINT('',(4.41177762092904,2.43356804728186,0.000615622984666682));
#1123=CARTESIAN_POINT('',(4.78822254604844,2.36643191323985,-0.400000000000003));
#1124=CARTESIAN_POINT('',(5.00000000000001,2.36643191323985,-0.400000000000001));
#1125=CARTESIAN_POINT('',(5.00000000000001,2.36643191323985,-0.400000000000001));
#1126=CARTESIAN_POINT('',(-60.,2.36643191323985,-0.400000000000009));
#1127=CARTESIAN_POINT('',(-60.,-2.36643191323985,-0.400000000000009));
#1128=CARTESIAN_POINT('',(5.00000000000001,-2.36643191323985,-0.400000000000001));
#1129=CARTESIAN_POINT('',(5.00000000000001,-2.36643191323985,-0.400000000000001));
#1130=CARTESIAN_POINT('',(4.78822268583314,-2.36643191323985,-0.400000000000002));
#1131=CARTESIAN_POINT('',(4.41177762092904,-2.43356804728186,-0.00061562298467091));
#1132=CARTESIAN_POINT('',(4.78822254604844,-2.36643191323985,0.400000000000002));
#1133=CARTESIAN_POINT('',(5.00000000000001,-2.36643191323985,0.400000000000001));
#1134=CARTESIAN_POINT('',(5.,-2.36643191323985,0.400000000000001));
#1135=CARTESIAN_POINT('',(-60.,-2.36643191323985,0.400000000000001));
#1136=CARTESIAN_POINT('',(0.799999999999995,0.,0.));
#1137=CARTESIAN_POINT('',(0.799999999999995,0.,2.4));
#1138=CARTESIAN_POINT('',(0.799999999999998,0.,2.4));
#1139=CARTESIAN_POINT('',(0.799999999999998,0.,0.));
#1140=CARTESIAN_POINT('',(0.799999999999998,0.,3.));
#1141=CARTESIAN_POINT('',(-60.,0.,0.));
#1142=CARTESIAN_POINT('',(0.699999999999999,0.,0.));
#1143=CARTESIAN_POINT('',(0.699999999999999,0.,3.1));
#1144=CARTESIAN_POINT('',(-0.699999999999999,0.,0.));
#1145=CARTESIAN_POINT('',(-0.699999999999999,0.,-3.1));
#1146=CARTESIAN_POINT('',(-8.,0.,2.));
#1147=CARTESIAN_POINT('',(-8.00000000000001,-150.,-0.400000000000002));
#1148=CARTESIAN_POINT('',(-8.00000000000001,2.46779253585061,-0.400000000000002));
#1149=CARTESIAN_POINT('',(-8.,0.,0.));
#1150=CARTESIAN_POINT('',(-8.00000000000001,-2.46779253585061,-0.400000000000002));
#1151=CARTESIAN_POINT('',(-8.00000000000001,-150.,-0.400000000000002));
#1152=CARTESIAN_POINT('',(60.,0.,0.));
#1153=CARTESIAN_POINT('',(60.,-2.56904651573303,0.399999999999999));
#1154=CARTESIAN_POINT('',(-7.9,-2.56904651573303,0.399999999999999));
#1155=CARTESIAN_POINT('',(-7.3,-2.56904651573303,0.399999999999999));
#1156=CARTESIAN_POINT('',(-7.3,0.,0.));
#1157=CARTESIAN_POINT('',(-7.3,2.56904651573303,0.399999999999999));
#1158=CARTESIAN_POINT('',(60.,2.56904651573303,0.399999999999999));
#1159=CARTESIAN_POINT('',(-7.9,2.56904651573303,0.399999999999999));
#1160=CARTESIAN_POINT('',(-7.9,0.,0.));
#1161=CARTESIAN_POINT('',(-7.2,0.,2.6));
#1162=CARTESIAN_POINT('',(-7.2,0.,0.4));
#1163=CARTESIAN_POINT('',(-7.2,2.36643191323985,0.399999999999999));
#1164=CARTESIAN_POINT('',(-7.2,2.46779253585061,0.4));
#1165=CARTESIAN_POINT('',(-7.2,0.,0.));
#1166=CARTESIAN_POINT('',(-7.2,-2.46779253585061,0.4));
#1167=CARTESIAN_POINT('',(-7.2,0.,0.4));
#1168=CARTESIAN_POINT('',(-7.2,-2.36643191323985,0.399999999999999));
#1169=CARTESIAN_POINT('',(-7.2,0.,0.));
#1170=CARTESIAN_POINT('',(60.,0.,0.));
#1171=CARTESIAN_POINT('',(-0.799999999999995,0.,0.));
#1172=CARTESIAN_POINT('',(-0.799999999999995,0.,2.4));
#1173=CARTESIAN_POINT('',(-5.00000000000001,-2.36643191323985,0.4));
#1174=CARTESIAN_POINT('',(-4.78822268583314,-2.36643191323985,0.400000000000002));
#1175=CARTESIAN_POINT('',(-4.41177762092904,-2.43356804728185,0.000615622984668417));
#1176=CARTESIAN_POINT('',(-4.78822254604844,-2.36643191323985,-0.400000000000001));
#1177=CARTESIAN_POINT('',(-5.00000000000001,-2.36643191323985,-0.400000000000001));
#1178=CARTESIAN_POINT('',(-5.,-2.36643191323985,0.399999999999999));
#1179=CARTESIAN_POINT('',(-5.,-2.36643191323985,-0.400000000000002));
#1180=CARTESIAN_POINT('',(60.,-2.36643191323985,-0.399999999999994));
#1181=CARTESIAN_POINT('',(60.,2.36643191323985,-0.399999999999994));
#1182=CARTESIAN_POINT('',(-5.,2.36643191323985,-0.400000000000002));
#1183=CARTESIAN_POINT('',(-5.,2.36643191323985,-0.4));
#1184=CARTESIAN_POINT('',(-4.78822268583313,2.36643191323985,-0.4));
#1185=CARTESIAN_POINT('',(-4.41177762092905,2.43356804728186,-0.000615622984666763));
#1186=CARTESIAN_POINT('',(-4.78822254604844,2.36643191323985,0.400000000000002));
#1187=CARTESIAN_POINT('',(-5.00000000000001,2.36643191323985,0.400000000000001));
#1188=CARTESIAN_POINT('',(-5.00000000000001,2.36643191323985,0.4));
#1189=CARTESIAN_POINT('',(60.,2.36643191323985,0.399999999999999));
#1190=CARTESIAN_POINT('',(60.,-2.36643191323985,0.399999999999999));
#1191=CARTESIAN_POINT('',(-0.799999999999998,0.,2.4));
#1192=CARTESIAN_POINT('',(-0.799999999999998,0.,0.));
#1193=CARTESIAN_POINT('',(-0.799999999999998,0.,-3.));
#1194=CARTESIAN_POINT('',(-5.,-150.,-0.400000000000002));
#1195=CARTESIAN_POINT('',(-7.2,2.46779253585061,-0.400000000000002));
#1196=CARTESIAN_POINT('',(-7.2,2.52094409811741,-0.400000000000002));
#1197=CARTESIAN_POINT('',(-7.24682911030666,2.56904651573327,-0.400000000000002));
#1198=CARTESIAN_POINT('',(-7.29999999999994,2.5690465157333,-0.400000000000002));
#1199=CARTESIAN_POINT('',(-7.9,2.56904651573303,-0.399999999999994));
#1200=CARTESIAN_POINT('',(-7.95315901716193,2.56904651573303,-0.399999999999994));
#1201=CARTESIAN_POINT('',(-8.00000000000074,2.52093314467838,-0.400000000000002));
#1202=CARTESIAN_POINT('',(-8.00000000000085,2.46779253585081,-0.400000000000002));
#1203=CARTESIAN_POINT('',(-5.,-150.,-0.400000000000002));
#1204=CARTESIAN_POINT('',(-8.00000000000001,-150.,0.4));
#1205=CARTESIAN_POINT('',(-7.3,2.56904651573303,0.399999999999999));
#1206=CARTESIAN_POINT('',(-7.24684098283808,2.56904651573303,0.399999999999999));
#1207=CARTESIAN_POINT('',(-7.19999999999926,2.52093314467838,0.4));
#1208=CARTESIAN_POINT('',(-7.19999999999916,2.46779253585081,0.4));
#1209=CARTESIAN_POINT('',(-5.00000000000001,-150.,0.4));
#1210=CARTESIAN_POINT('',(-8.,2.46779253585061,0.4));
#1211=CARTESIAN_POINT('',(-8.,2.5209440981174,0.4));
#1212=CARTESIAN_POINT('',(-7.95317088969334,2.56904651573327,0.4));
#1213=CARTESIAN_POINT('',(-7.90000000000006,2.5690465157333,0.4));
#1214=CARTESIAN_POINT('',(-5.,-150.,0.));
#1215=CARTESIAN_POINT('',(-5.,-150.,0.));
#1216=CARTESIAN_POINT('',(-5.,-150.,-0.400000000000002));
#1217=CARTESIAN_POINT('',(-5.00000000000001,-150.,0.4));
#1218=CARTESIAN_POINT('',(-5.,-150.,-0.400000000000002));
#1219=CARTESIAN_POINT('',(-7.3,-2.56904651573303,-0.399999999999994));
#1220=CARTESIAN_POINT('',(-7.24684098283808,-2.56904651573303,-0.399999999999994));
#1221=CARTESIAN_POINT('',(-7.19999999999926,-2.52093314467838,-0.400000000000002));
#1222=CARTESIAN_POINT('',(-7.19999999999916,-2.46779253585081,-0.400000000000002));
#1223=CARTESIAN_POINT('',(-8.,-2.46779253585061,-0.400000000000002));
#1224=CARTESIAN_POINT('',(-8.,-2.5209440981174,-0.400000000000002));
#1225=CARTESIAN_POINT('',(-7.95317088969335,-2.56904651573327,-0.400000000000002));
#1226=CARTESIAN_POINT('',(-7.90000000000006,-2.5690465157333,-0.400000000000002));
#1227=CARTESIAN_POINT('',(-8.00000000000001,-150.,0.4));
#1228=CARTESIAN_POINT('',(-7.2,-2.46779253585061,0.4));
#1229=CARTESIAN_POINT('',(-7.2,-2.52094409811741,0.4));
#1230=CARTESIAN_POINT('',(-7.24682911030666,-2.56904651573327,0.4));
#1231=CARTESIAN_POINT('',(-7.29999999999994,-2.5690465157333,0.4));
#1232=CARTESIAN_POINT('',(-7.9,-2.56904651573303,0.399999999999999));
#1233=CARTESIAN_POINT('',(-7.95315901716192,-2.56904651573303,0.399999999999999));
#1234=CARTESIAN_POINT('',(-8.00000000000074,-2.52093314467838,0.4));
#1235=CARTESIAN_POINT('',(-8.00000000000085,-2.46779253585081,0.4));
#1236=CARTESIAN_POINT('',(5.,-150.,0.));
#1237=CARTESIAN_POINT('',(5.,-150.,0.4));
#1238=CARTESIAN_POINT('',(5.00000000000001,-150.,-0.400000000000001));
#1239=CARTESIAN_POINT('',(8.00000000000001,-150.,-0.4));
#1240=CARTESIAN_POINT('',(7.9,-2.56904651573302,-0.400000000000009));
#1241=CARTESIAN_POINT('',(7.95315901716192,-2.56904651573302,-0.400000000000009));
#1242=CARTESIAN_POINT('',(8.00000000000074,-2.52093314467838,-0.4));
#1243=CARTESIAN_POINT('',(8.00000000000085,-2.46779253585081,-0.4));
#1244=CARTESIAN_POINT('',(7.2,-2.46779253585061,-0.4));
#1245=CARTESIAN_POINT('',(7.2,-2.52094409811741,-0.4));
#1246=CARTESIAN_POINT('',(7.24682911030666,-2.56904651573326,-0.4));
#1247=CARTESIAN_POINT('',(7.29999999999994,-2.5690465157333,-0.4));
#1248=CARTESIAN_POINT('',(5.,-150.,0.4));
#1249=CARTESIAN_POINT('',(7.3,-2.56904651573303,0.400000000000001));
#1250=CARTESIAN_POINT('',(7.24684098283808,-2.56904651573303,0.400000000000001));
#1251=CARTESIAN_POINT('',(7.19999999999926,-2.52093314467838,0.4));
#1252=CARTESIAN_POINT('',(7.19999999999916,-2.46779253585081,0.4));
#1253=CARTESIAN_POINT('',(8.,-2.46779253585061,0.4));
#1254=CARTESIAN_POINT('',(8.,-2.5209440981174,0.4));
#1255=CARTESIAN_POINT('',(7.95317088969334,-2.56904651573327,0.4));
#1256=CARTESIAN_POINT('',(7.90000000000006,-2.5690465157333,0.4));
#1257=CARTESIAN_POINT('',(5.,-150.,0.4));
#1258=CARTESIAN_POINT('',(7.2,2.46779253585061,0.4));
#1259=CARTESIAN_POINT('',(7.2,2.52094409811741,0.4));
#1260=CARTESIAN_POINT('',(7.24682911030666,2.56904651573327,0.4));
#1261=CARTESIAN_POINT('',(7.29999999999994,2.5690465157333,0.4));
#1262=CARTESIAN_POINT('',(7.9,2.56904651573303,0.400000000000001));
#1263=CARTESIAN_POINT('',(7.95315901716192,2.56904651573303,0.400000000000001));
#1264=CARTESIAN_POINT('',(8.00000000000074,2.52093314467838,0.4));
#1265=CARTESIAN_POINT('',(8.00000000000085,2.46779253585081,0.4));
#1266=CARTESIAN_POINT('',(5.,-150.,0.4));
#1267=CARTESIAN_POINT('',(8.00000000000001,-150.,-0.4));
#1268=CARTESIAN_POINT('',(8.,2.46779253585061,-0.4));
#1269=CARTESIAN_POINT('',(8.,2.5209440981174,-0.4));
#1270=CARTESIAN_POINT('',(7.95317088969334,2.56904651573327,-0.4));
#1271=CARTESIAN_POINT('',(7.90000000000006,2.5690465157333,-0.4));
#1272=CARTESIAN_POINT('',(7.3,2.56904651573302,-0.400000000000009));
#1273=CARTESIAN_POINT('',(7.24684098283808,2.56904651573302,-0.400000000000009));
#1274=CARTESIAN_POINT('',(7.19999999999926,2.52093314467838,-0.4));
#1275=CARTESIAN_POINT('',(7.19999999999916,2.46779253585081,-0.4));
#1276=CARTESIAN_POINT('',(5.00000000000001,-150.,-0.400000000000001));
#1277=CARTESIAN_POINT('',(5.,-150.,0.));
#1278=CARTESIAN_POINT('',(-0.699999999999999,0.,0.));
#1279=CARTESIAN_POINT('',(7.3,0.,0.));
#1280=CARTESIAN_POINT('',(7.9,0.,0.));
#1281=CARTESIAN_POINT('',(7.9,0.,0.));
#1282=CARTESIAN_POINT('',(7.3,0.,0.));
#1283=CARTESIAN_POINT('',(-7.9,0.,0.));
#1284=CARTESIAN_POINT('',(-7.9,0.,0.));
#1285=CARTESIAN_POINT('',(-7.3,0.,0.));
#1286=CARTESIAN_POINT('',(-7.3,0.,0.));
#1287=CARTESIAN_POINT('',(0.699999999999999,0.,0.));
#1288=MECHANICAL_DESIGN_GEOMETRIC_PRESENTATION_REPRESENTATION('',(#723),
#1289);
#1289=(
GEOMETRIC_REPRESENTATION_CONTEXT(3)
GLOBAL_UNCERTAINTY_ASSIGNED_CONTEXT((#1290))
GLOBAL_UNIT_ASSIGNED_CONTEXT((#1293,#1292,#1291))
REPRESENTATION_CONTEXT('ClGray_4211807_MCM','TOP_LEVEL_ASSEMBLY_PART')
);
#1290=UNCERTAINTY_MEASURE_WITH_UNIT(LENGTH_MEASURE(0.005),#1293,
'DISTANCE_ACCURACY_VALUE','Maximum Tolerance applied to model');
#1291=(
NAMED_UNIT(*)
SI_UNIT($,.STERADIAN.)
SOLID_ANGLE_UNIT()
);
#1292=(
NAMED_UNIT(*)
PLANE_ANGLE_UNIT()
SI_UNIT($,.RADIAN.)
);
#1293=(
LENGTH_UNIT()
NAMED_UNIT(*)
SI_UNIT(.MILLI.,.METRE.)
);
#1294=PRODUCT_DEFINITION_SHAPE('','',#1295);
#1295=PRODUCT_DEFINITION('','',#1297,#1296);
#1296=PRODUCT_DEFINITION_CONTEXT('',#1303,'design');
#1297=PRODUCT_DEFINITION_FORMATION_WITH_SPECIFIED_SOURCE('','',#1299,
 .NOT_KNOWN.);
#1298=PRODUCT_RELATED_PRODUCT_CATEGORY('','',(#1299));
#1299=PRODUCT('ClGray_4211807_MCM','ClGray_4211807_MCM',
'ClGray_4211807_MCM',(#1301));
#1300=PRODUCT_CATEGORY('','');
#1301=PRODUCT_CONTEXT('',#1303,'mechanical');
#1302=APPLICATION_PROTOCOL_DEFINITION('international standard',
'automotive_design',2010,#1303);
#1303=APPLICATION_CONTEXT(
'core data for automotive mechanical design processes');
ENDSEC;
END-ISO-10303-21;
