ISO-10303-21;
HEADER;
/* Generated by software containing ST-Developer
 * from STEP Tools, Inc. (www.steptools.com) 
 */
/* OPTION: strings as raw bytes, not using required /X/ escapes */

FILE_DESCRIPTION(
/* description */ ('Unknown'),
/* implementation_level */ '2;1');

FILE_NAME(
/* name */ 'ClGray_4525904_b)_AVV',
/* time_stamp */ '2025-07-21T23:55:49+02:00',
/* author */ ('Unknown'),
/* organization */ ('Unknown'),
/* preprocessor_version */ 'ST-DEVELOPER v19.4',
/* originating_system */ 'Solid Edge',
/* authorisation */ 'Unknown');

FILE_SCHEMA (('AUTOMOTIVE_DESIGN {1 0 10303 214 3 1 1}'));
ENDSEC;

DATA;
#10=PROPERTY_DEFINITION_REPRESENTATION(#14,#12);
#11=PROPERTY_DEFINITION_REPRESENTATION(#15,#13);
#12=REPRESENTATION('',(#16),#271);
#13=REPRESENTATION('',(#17),#271);
#14=PROPERTY_DEFINITION('pmi validation property','',#276);
#15=PROPERTY_DEFINITION('pmi validation property','',#276);
#16=VALUE_REPRESENTATION_ITEM('number of annotations',COUNT_MEASURE(0.));
#17=VALUE_REPRESENTATION_ITEM('number of views',COUNT_MEASURE(0.));
#18=SHAPE_REPRESENTATION_RELATIONSHIP('','',#143,#19);
#19=ADVANCED_BREP_SHAPE_REPRESENTATION('',(#141),#271);
#20=PLANE('',#148);
#21=PLANE('',#149);
#22=PLANE('',#150);
#23=PLANE('',#155);
#24=PLANE('',#156);
#25=PLANE('',#161);
#26=CIRCLE('',#146,2.5);
#27=CIRCLE('',#147,2.5);
#28=CIRCLE('',#151,1.);
#29=CIRCLE('',#154,1.);
#30=CIRCLE('',#157,1.);
#31=CIRCLE('',#160,1.);
#32=ORIENTED_EDGE('',*,*,#52,.F.);
#33=ORIENTED_EDGE('',*,*,#53,.F.);
#34=ORIENTED_EDGE('',*,*,#54,.F.);
#35=ORIENTED_EDGE('',*,*,#55,.F.);
#36=ORIENTED_EDGE('',*,*,#56,.T.);
#37=ORIENTED_EDGE('',*,*,#57,.F.);
#38=ORIENTED_EDGE('',*,*,#56,.F.);
#39=ORIENTED_EDGE('',*,*,#57,.T.);
#40=ORIENTED_EDGE('',*,*,#58,.F.);
#41=ORIENTED_EDGE('',*,*,#55,.T.);
#42=ORIENTED_EDGE('',*,*,#58,.T.);
#43=ORIENTED_EDGE('',*,*,#54,.T.);
#44=ORIENTED_EDGE('',*,*,#59,.F.);
#45=ORIENTED_EDGE('',*,*,#59,.T.);
#46=ORIENTED_EDGE('',*,*,#60,.T.);
#47=ORIENTED_EDGE('',*,*,#53,.T.);
#48=ORIENTED_EDGE('',*,*,#60,.F.);
#49=ORIENTED_EDGE('',*,*,#52,.T.);
#50=ORIENTED_EDGE('',*,*,#61,.T.);
#51=ORIENTED_EDGE('',*,*,#61,.F.);
#52=EDGE_CURVE('',#62,#62,#72,.T.);
#53=EDGE_CURVE('',#63,#63,#73,.T.);
#54=EDGE_CURVE('',#64,#64,#74,.T.);
#55=EDGE_CURVE('',#65,#65,#75,.T.);
#56=EDGE_CURVE('',#66,#66,#26,.T.);
#57=EDGE_CURVE('',#67,#67,#27,.T.);
#58=EDGE_CURVE('',#68,#68,#28,.T.);
#59=EDGE_CURVE('',#69,#69,#29,.T.);
#60=EDGE_CURVE('',#70,#70,#30,.T.);
#61=EDGE_CURVE('',#71,#71,#31,.T.);
#62=VERTEX_POINT('',#211);
#63=VERTEX_POINT('',#223);
#64=VERTEX_POINT('',#235);
#65=VERTEX_POINT('',#247);
#66=VERTEX_POINT('',#249);
#67=VERTEX_POINT('',#251);
#68=VERTEX_POINT('',#256);
#69=VERTEX_POINT('',#260);
#70=VERTEX_POINT('',#264);
#71=VERTEX_POINT('',#268);
#72=B_SPLINE_CURVE_WITH_KNOTS('',3,(#200,#201,#202,#203,#204,#205,#206,
#207,#208,#209,#210),.UNSPECIFIED.,.T.,.F.,(1,1,1,1,1,1,1,1,1,1,1,1,1,1,
1),(-0.00236914023430825,-0.00157942682287217,-0.000789713411436085,1.08847858952297E-20,
0.000789713411436085,0.00157942682287217,0.00236914023430825,0.00315885364574434,
0.00394856705718042,0.00473828046861651,0.00552799388005259,0.00631770729148868,
0.00710742070292476,0.00789713411436085,0.00868684752579693),
 .UNSPECIFIED.);
#73=B_SPLINE_CURVE_WITH_KNOTS('',3,(#212,#213,#214,#215,#216,#217,#218,
#219,#220,#221,#222),.UNSPECIFIED.,.T.,.F.,(1,1,1,1,1,1,1,1,1,1,1,1,1,1,
1),(-0.00236914023430825,-0.00157942682287217,-0.000789713411436085,1.15847446434124E-20,
0.000789713411436084,0.00157942682287217,0.00236914023430825,0.00315885364574434,
0.00394856705718042,0.00473828046861651,0.00552799388005259,0.00631770729148867,
0.00710742070292476,0.00789713411436084,0.00868684752579693),
 .UNSPECIFIED.);
#74=B_SPLINE_CURVE_WITH_KNOTS('',3,(#224,#225,#226,#227,#228,#229,#230,
#231,#232,#233,#234),.UNSPECIFIED.,.T.,.F.,(1,1,1,1,1,1,1,1,1,1,1,1,1,1,
1),(-0.00236914023430825,-0.00157942682287217,-0.000789713411436085,1.24567725422007E-21,
0.000789713411436085,0.00157942682287217,0.00236914023430825,0.00315885364574434,
0.00394856705718042,0.00473828046861651,0.00552799388005259,0.00631770729148868,
0.00710742070292476,0.00789713411436085,0.00868684752579693),
 .UNSPECIFIED.);
#75=B_SPLINE_CURVE_WITH_KNOTS('',3,(#236,#237,#238,#239,#240,#241,#242,
#243,#244,#245,#246),.UNSPECIFIED.,.T.,.F.,(1,1,1,1,1,1,1,1,1,1,1,1,1,1,
1),(-0.00236914023430825,-0.00157942682287217,-0.000789713411436085,1.24567725422007E-21,
0.000789713411436085,0.00157942682287217,0.00236914023430825,0.00315885364574434,
0.00394856705718042,0.00473828046861651,0.00552799388005259,0.00631770729148868,
0.00710742070292476,0.00789713411436085,0.00868684752579693),
 .UNSPECIFIED.);
#76=EDGE_LOOP('',(#32));
#77=EDGE_LOOP('',(#33));
#78=EDGE_LOOP('',(#34));
#79=EDGE_LOOP('',(#35));
#80=EDGE_LOOP('',(#36));
#81=EDGE_LOOP('',(#37));
#82=EDGE_LOOP('',(#38));
#83=EDGE_LOOP('',(#39));
#84=EDGE_LOOP('',(#40));
#85=EDGE_LOOP('',(#41));
#86=EDGE_LOOP('',(#42));
#87=EDGE_LOOP('',(#43));
#88=EDGE_LOOP('',(#44));
#89=EDGE_LOOP('',(#45));
#90=EDGE_LOOP('',(#46));
#91=EDGE_LOOP('',(#47));
#92=EDGE_LOOP('',(#48));
#93=EDGE_LOOP('',(#49));
#94=EDGE_LOOP('',(#50));
#95=EDGE_LOOP('',(#51));
#96=FACE_BOUND('',#76,.T.);
#97=FACE_BOUND('',#77,.T.);
#98=FACE_BOUND('',#78,.T.);
#99=FACE_BOUND('',#79,.T.);
#100=FACE_BOUND('',#80,.T.);
#101=FACE_BOUND('',#81,.T.);
#102=FACE_BOUND('',#82,.T.);
#103=FACE_BOUND('',#83,.T.);
#104=FACE_BOUND('',#84,.T.);
#105=FACE_BOUND('',#85,.T.);
#106=FACE_BOUND('',#86,.T.);
#107=FACE_BOUND('',#87,.T.);
#108=FACE_BOUND('',#88,.T.);
#109=FACE_BOUND('',#89,.T.);
#110=FACE_BOUND('',#90,.T.);
#111=FACE_BOUND('',#91,.T.);
#112=FACE_BOUND('',#92,.T.);
#113=FACE_BOUND('',#93,.T.);
#114=FACE_BOUND('',#94,.T.);
#115=FACE_BOUND('',#95,.T.);
#116=CYLINDRICAL_SURFACE('',#145,2.5);
#117=CYLINDRICAL_SURFACE('',#152,1.);
#118=CYLINDRICAL_SURFACE('',#153,1.);
#119=CYLINDRICAL_SURFACE('',#158,1.);
#120=CYLINDRICAL_SURFACE('',#159,1.);
#121=ADVANCED_FACE('',(#96,#97,#98,#99,#100,#101),#116,.T.);
#122=ADVANCED_FACE('',(#102),#20,.F.);
#123=ADVANCED_FACE('',(#103),#21,.T.);
#124=ADVANCED_FACE('',(#104),#22,.F.);
#125=ADVANCED_FACE('',(#105,#106),#117,.T.);
#126=ADVANCED_FACE('',(#107,#108),#118,.T.);
#127=ADVANCED_FACE('',(#109),#23,.T.);
#128=ADVANCED_FACE('',(#110),#24,.T.);
#129=ADVANCED_FACE('',(#111,#112),#119,.T.);
#130=ADVANCED_FACE('',(#113,#114),#120,.T.);
#131=ADVANCED_FACE('',(#115),#25,.F.);
#132=CLOSED_SHELL('',(#121,#122,#123,#124,#125,#126,#127,#128,#129,#130,
#131));
#133=STYLED_ITEM('',(#134),#141);
#134=PRESENTATION_STYLE_ASSIGNMENT((#135));
#135=SURFACE_STYLE_USAGE(.BOTH.,#136);
#136=SURFACE_SIDE_STYLE('',(#137));
#137=SURFACE_STYLE_FILL_AREA(#138);
#138=FILL_AREA_STYLE('',(#139));
#139=FILL_AREA_STYLE_COLOUR('',#140);
#140=COLOUR_RGB('',0.506983280181885,0.531564235687256,0.550000011920929);
#141=MANIFOLD_SOLID_BREP('',#132);
#142=SHAPE_DEFINITION_REPRESENTATION(#276,#143);
#143=SHAPE_REPRESENTATION('ClGray_4525904_b)_AVV',(#144),#271);
#144=AXIS2_PLACEMENT_3D('',#198,#162,#163);
#145=AXIS2_PLACEMENT_3D('',#199,#164,#165);
#146=AXIS2_PLACEMENT_3D('',#248,#166,#167);
#147=AXIS2_PLACEMENT_3D('',#250,#168,#169);
#148=AXIS2_PLACEMENT_3D('',#252,#170,#171);
#149=AXIS2_PLACEMENT_3D('',#253,#172,#173);
#150=AXIS2_PLACEMENT_3D('',#254,#174,#175);
#151=AXIS2_PLACEMENT_3D('',#255,#176,#177);
#152=AXIS2_PLACEMENT_3D('',#257,#178,#179);
#153=AXIS2_PLACEMENT_3D('',#258,#180,#181);
#154=AXIS2_PLACEMENT_3D('',#259,#182,#183);
#155=AXIS2_PLACEMENT_3D('',#261,#184,#185);
#156=AXIS2_PLACEMENT_3D('',#262,#186,#187);
#157=AXIS2_PLACEMENT_3D('',#263,#188,#189);
#158=AXIS2_PLACEMENT_3D('',#265,#190,#191);
#159=AXIS2_PLACEMENT_3D('',#266,#192,#193);
#160=AXIS2_PLACEMENT_3D('',#267,#194,#195);
#161=AXIS2_PLACEMENT_3D('',#269,#196,#197);
#162=DIRECTION('',(0.,0.,1.));
#163=DIRECTION('',(1.,0.,0.));
#164=DIRECTION('',(0.,0.,-1.));
#165=DIRECTION('',(-1.,0.,0.));
#166=DIRECTION('',(0.,0.,-1.));
#167=DIRECTION('',(1.,0.,0.));
#168=DIRECTION('',(0.,0.,-1.));
#169=DIRECTION('',(1.,0.,0.));
#170=DIRECTION('',(0.,0.,-1.));
#171=DIRECTION('',(-1.,0.,0.));
#172=DIRECTION('',(0.,0.,-1.));
#173=DIRECTION('',(-1.,0.,0.));
#174=DIRECTION('',(-1.,6.12303176911189E-17,0.));
#175=DIRECTION('',(-6.12303176911189E-17,-1.,0.));
#176=DIRECTION('',(-1.,6.12303176911189E-17,0.));
#177=DIRECTION('',(6.12303176911189E-17,1.,0.));
#178=DIRECTION('',(-1.,0.,0.));
#179=DIRECTION('',(0.,0.,1.));
#180=DIRECTION('',(-1.,0.,0.));
#181=DIRECTION('',(0.,0.,1.));
#182=DIRECTION('',(-1.,6.12303176911189E-17,0.));
#183=DIRECTION('',(6.12303176911189E-17,1.,0.));
#184=DIRECTION('',(-1.,6.12303176911189E-17,0.));
#185=DIRECTION('',(-6.12303176911189E-17,-1.,0.));
#186=DIRECTION('',(0.,1.,0.));
#187=DIRECTION('',(0.,0.,1.));
#188=DIRECTION('',(0.,1.,0.));
#189=DIRECTION('',(1.,0.,0.));
#190=DIRECTION('',(0.,1.,0.));
#191=DIRECTION('',(0.,0.,1.));
#192=DIRECTION('',(0.,1.,0.));
#193=DIRECTION('',(0.,0.,1.));
#194=DIRECTION('',(0.,1.,0.));
#195=DIRECTION('',(1.,0.,0.));
#196=DIRECTION('',(0.,1.,0.));
#197=DIRECTION('',(0.,0.,1.));
#198=CARTESIAN_POINT('',(0.,0.,0.));
#199=CARTESIAN_POINT('',(0.,0.,3.));
#200=CARTESIAN_POINT('',(0.784471657333316,-2.39992183748962,2.28297192341291));
#201=CARTESIAN_POINT('',(-0.00011352374143022,-2.55001444554361,2.60860375103464));
#202=CARTESIAN_POINT('',(-0.784017562367596,-2.40002038033592,2.28261307244854));
#203=CARTESIAN_POINT('',(-1.10808252433556,-2.23691913686177,1.50195841275465));
#204=CARTESIAN_POINT('',(-0.78364851391356,-2.40003182705156,0.716329448360881));
#205=CARTESIAN_POINT('',(-0.00165834777016331,-2.54994841212845,0.391778024165431));
#206=CARTESIAN_POINT('',(0.784061603383388,-2.4001732346962,0.716561679324275));
#207=CARTESIAN_POINT('',(1.10786637230599,-2.23690813956306,1.4991483305441));
#208=CARTESIAN_POINT('',(0.784471657333316,-2.39992183748962,2.28297192341291));
#209=CARTESIAN_POINT('',(-0.00011352374143022,-2.55001444554361,2.60860375103464));
#210=CARTESIAN_POINT('',(-0.784017562367596,-2.40002038033592,2.28261307244854));
#211=CARTESIAN_POINT('',(-2.00952071274322E-16,-2.5,2.5));
#212=CARTESIAN_POINT('',(-0.784471657333318,2.39992183748962,2.28297192341291));
#213=CARTESIAN_POINT('',(0.000113523741430234,2.55001444554362,2.60860375103464));
#214=CARTESIAN_POINT('',(0.784017562367595,2.40002038033592,2.28261307244853));
#215=CARTESIAN_POINT('',(1.10808252433556,2.23691913686177,1.50195841275465));
#216=CARTESIAN_POINT('',(0.783648513913559,2.40003182705156,0.716329448360881));
#217=CARTESIAN_POINT('',(0.00165834777016567,2.54994841212844,0.391778024165431));
#218=CARTESIAN_POINT('',(-0.784061603383387,2.4001732346962,0.716561679324273));
#219=CARTESIAN_POINT('',(-1.10786637230599,2.23690813956306,1.4991483305441));
#220=CARTESIAN_POINT('',(-0.784471657333318,2.39992183748962,2.28297192341291));
#221=CARTESIAN_POINT('',(0.000113523741430234,2.55001444554362,2.60860375103464));
#222=CARTESIAN_POINT('',(0.784017562367595,2.40002038033592,2.28261307244853));
#223=CARTESIAN_POINT('',(-1.77797386799976E-16,2.5,2.5));
#224=CARTESIAN_POINT('',(-2.39992183748962,-0.784471657333318,2.28297192341291));
#225=CARTESIAN_POINT('',(-2.55001444554362,0.000113523741430559,2.60860375103464));
#226=CARTESIAN_POINT('',(-2.40002038033592,0.784017562367596,2.28261307244853));
#227=CARTESIAN_POINT('',(-2.23691913686177,1.10808252433556,1.50195841275465));
#228=CARTESIAN_POINT('',(-2.40003182705156,0.783648513913559,0.716329448360881));
#229=CARTESIAN_POINT('',(-2.54994841212845,0.00165834777016454,0.391778024165431));
#230=CARTESIAN_POINT('',(-2.4001732346962,-0.784061603383387,0.716561679324274));
#231=CARTESIAN_POINT('',(-2.23690813956306,-1.10786637230599,1.4991483305441));
#232=CARTESIAN_POINT('',(-2.39992183748962,-0.784471657333318,2.28297192341291));
#233=CARTESIAN_POINT('',(-2.55001444554362,0.000113523741430559,2.60860375103464));
#234=CARTESIAN_POINT('',(-2.40002038033592,0.784017562367596,2.28261307244853));
#235=CARTESIAN_POINT('',(-2.5,-1.28366116633955E-18,2.5));
#236=CARTESIAN_POINT('',(2.39992183748962,0.784471657333318,2.28297192341291));
#237=CARTESIAN_POINT('',(2.55001444554362,-0.000113523741430559,2.60860375103464));
#238=CARTESIAN_POINT('',(2.40002038033592,-0.784017562367596,2.28261307244853));
#239=CARTESIAN_POINT('',(2.23691913686177,-1.10808252433556,1.50195841275465));
#240=CARTESIAN_POINT('',(2.40003182705156,-0.783648513913559,0.716329448360881));
#241=CARTESIAN_POINT('',(2.54994841212845,-0.00165834777016454,0.391778024165431));
#242=CARTESIAN_POINT('',(2.4001732346962,0.784061603383387,0.716561679324274));
#243=CARTESIAN_POINT('',(2.23690813956306,1.10786637230599,1.4991483305441));
#244=CARTESIAN_POINT('',(2.39992183748962,0.784471657333318,2.28297192341291));
#245=CARTESIAN_POINT('',(2.55001444554362,-0.000113523741430559,2.60860375103464));
#246=CARTESIAN_POINT('',(2.40002038033592,-0.784017562367596,2.28261307244853));
#247=CARTESIAN_POINT('',(2.5,1.28366116633955E-18,2.5));
#248=CARTESIAN_POINT('',(0.,0.,3.));
#249=CARTESIAN_POINT('',(2.5,0.,3.));
#250=CARTESIAN_POINT('',(0.,0.,0.));
#251=CARTESIAN_POINT('',(2.5,0.,0.));
#252=CARTESIAN_POINT('',(0.,0.,3.));
#253=CARTESIAN_POINT('',(0.,0.,0.));
#254=CARTESIAN_POINT('',(3.6,0.,1.5));
#255=CARTESIAN_POINT('',(3.6,0.,1.5));
#256=CARTESIAN_POINT('',(3.6,1.,1.5));
#257=CARTESIAN_POINT('',(3.6,0.,1.5));
#258=CARTESIAN_POINT('',(3.6,0.,1.5));
#259=CARTESIAN_POINT('',(-3.6,0.,1.5));
#260=CARTESIAN_POINT('',(-3.6,1.,1.5));
#261=CARTESIAN_POINT('',(-3.6,0.,1.5));
#262=CARTESIAN_POINT('',(-1.89735380184963E-16,3.6,1.5));
#263=CARTESIAN_POINT('',(-1.89735380184963E-16,3.6,1.5));
#264=CARTESIAN_POINT('',(1.,3.6,1.5));
#265=CARTESIAN_POINT('',(-1.89735380184963E-16,-3.6,1.5));
#266=CARTESIAN_POINT('',(-1.89735380184963E-16,-3.6,1.5));
#267=CARTESIAN_POINT('',(-1.89735380184963E-16,-3.6,1.5));
#268=CARTESIAN_POINT('',(1.,-3.6,1.5));
#269=CARTESIAN_POINT('',(-1.89735380184963E-16,-3.6,1.5));
#270=MECHANICAL_DESIGN_GEOMETRIC_PRESENTATION_REPRESENTATION('',(#133),
#271);
#271=(
GEOMETRIC_REPRESENTATION_CONTEXT(3)
GLOBAL_UNCERTAINTY_ASSIGNED_CONTEXT((#272))
GLOBAL_UNIT_ASSIGNED_CONTEXT((#275,#274,#273))
REPRESENTATION_CONTEXT('ClGray_4525904_b)_AVV',
'TOP_LEVEL_ASSEMBLY_PART')
);
#272=UNCERTAINTY_MEASURE_WITH_UNIT(LENGTH_MEASURE(0.005),#275,
'DISTANCE_ACCURACY_VALUE','Maximum Tolerance applied to model');
#273=(
NAMED_UNIT(*)
SI_UNIT($,.STERADIAN.)
SOLID_ANGLE_UNIT()
);
#274=(
NAMED_UNIT(*)
PLANE_ANGLE_UNIT()
SI_UNIT($,.RADIAN.)
);
#275=(
LENGTH_UNIT()
NAMED_UNIT(*)
SI_UNIT(.MILLI.,.METRE.)
);
#276=PRODUCT_DEFINITION_SHAPE('','',#277);
#277=PRODUCT_DEFINITION('','',#279,#278);
#278=PRODUCT_DEFINITION_CONTEXT('',#285,'design');
#279=PRODUCT_DEFINITION_FORMATION_WITH_SPECIFIED_SOURCE('','',#281,
 .NOT_KNOWN.);
#280=PRODUCT_RELATED_PRODUCT_CATEGORY('','',(#281));
#281=PRODUCT('ClGray_4525904_b)_AVV','ClGray_4525904_b)_AVV',
'ClGray_4525904_b)_AVV',(#283));
#282=PRODUCT_CATEGORY('','');
#283=PRODUCT_CONTEXT('',#285,'mechanical');
#284=APPLICATION_PROTOCOL_DEFINITION('international standard',
'automotive_design',2010,#285);
#285=APPLICATION_CONTEXT(
'core data for automotive mechanical design processes');
ENDSEC;
END-ISO-10303-21;
