ISO-10303-21;
HEADER;
/* Generated by software containing ST-Developer
 * from STEP Tools, Inc. (www.steptools.com) 
 */
/* OPTION: strings as raw bytes, not using required /X/ escapes */

FILE_DESCRIPTION(
/* description */ ('Unknown'),
/* implementation_level */ '2;1');

FILE_NAME(
/* name */ 'Gray_4638507_a)_AVV',
/* time_stamp */ '2025-07-22T00:01:06+02:00',
/* author */ ('Unknown'),
/* organization */ ('Unknown'),
/* preprocessor_version */ 'ST-DEVELOPER v19.4',
/* originating_system */ 'Solid Edge',
/* authorisation */ 'Unknown');

FILE_SCHEMA (('AUTOMOTIVE_DESIGN {1 0 10303 214 3 1 1}'));
ENDSEC;

DATA;
#10=PROPERTY_DEFINITION_REPRESENTATION(#14,#12);
#11=PROPERTY_DEFINITION_REPRESENTATION(#15,#13);
#12=REPRESENTATION('',(#16),#2067);
#13=REPRESENTATION('',(#17),#2067);
#14=PROPERTY_DEFINITION('pmi validation property','',#2072);
#15=PROPERTY_DEFINITION('pmi validation property','',#2072);
#16=VALUE_REPRESENTATION_ITEM('number of annotations',COUNT_MEASURE(0.));
#17=VALUE_REPRESENTATION_ITEM('number of views',COUNT_MEASURE(0.));
#18=SHAPE_REPRESENTATION_RELATIONSHIP('','',#1213,#19);
#19=ADVANCED_BREP_SHAPE_REPRESENTATION('',(#1211),#2067);
#20=ELLIPSE('',#1337,15.8395699218332,6.5);
#21=ELLIPSE('',#1338,18.5201125239896,7.6);
#22=ELLIPSE('',#1341,18.5201125239895,7.6);
#23=ELLIPSE('',#1343,15.8395699218332,6.5);
#24=CYLINDRICAL_SURFACE('',#1223,2.4);
#25=CYLINDRICAL_SURFACE('',#1230,3.1);
#26=CYLINDRICAL_SURFACE('',#1232,0.1);
#27=CYLINDRICAL_SURFACE('',#1235,2.4);
#28=CYLINDRICAL_SURFACE('',#1238,0.1);
#29=CYLINDRICAL_SURFACE('',#1242,0.5);
#30=CYLINDRICAL_SURFACE('',#1246,0.1);
#31=CYLINDRICAL_SURFACE('',#1249,2.4);
#32=CYLINDRICAL_SURFACE('',#1252,0.1);
#33=CYLINDRICAL_SURFACE('',#1256,0.5);
#34=CYLINDRICAL_SURFACE('',#1260,3.6);
#35=CYLINDRICAL_SURFACE('',#1264,0.5);
#36=CYLINDRICAL_SURFACE('',#1267,3.6);
#37=CYLINDRICAL_SURFACE('',#1270,0.5);
#38=CYLINDRICAL_SURFACE('',#1274,3.6);
#39=CYLINDRICAL_SURFACE('',#1278,0.5);
#40=CYLINDRICAL_SURFACE('',#1282,0.1);
#41=CYLINDRICAL_SURFACE('',#1285,2.4);
#42=CYLINDRICAL_SURFACE('',#1288,0.1);
#43=CYLINDRICAL_SURFACE('',#1292,0.5);
#44=CYLINDRICAL_SURFACE('',#1297,3.6);
#45=CYLINDRICAL_SURFACE('',#1300,3.1);
#46=CYLINDRICAL_SURFACE('',#1305,3.6);
#47=CYLINDRICAL_SURFACE('',#1313,6.);
#48=CYLINDRICAL_SURFACE('',#1316,6.);
#49=CYLINDRICAL_SURFACE('',#1319,3.1);
#50=CYLINDRICAL_SURFACE('',#1339,7.6);
#51=CYLINDRICAL_SURFACE('',#1344,6.5);
#52=CIRCLE('',#1216,7.6);
#53=CIRCLE('',#1221,6.5);
#54=CIRCLE('',#1222,7.6);
#55=CIRCLE('',#1224,2.4);
#56=CIRCLE('',#1225,2.4);
#57=CIRCLE('',#1227,3.1);
#58=CIRCLE('',#1229,3.1);
#59=CIRCLE('',#1231,3.1);
#60=CIRCLE('',#1233,0.1);
#61=CIRCLE('',#1234,0.1);
#62=CIRCLE('',#1236,2.4);
#63=CIRCLE('',#1237,2.4);
#64=CIRCLE('',#1239,0.1);
#65=CIRCLE('',#1240,0.1);
#66=CIRCLE('',#1243,0.5);
#67=CIRCLE('',#1244,0.5);
#68=CIRCLE('',#1247,0.1);
#69=CIRCLE('',#1248,0.1);
#70=CIRCLE('',#1250,2.4);
#71=CIRCLE('',#1251,2.4);
#72=CIRCLE('',#1253,0.1);
#73=CIRCLE('',#1254,0.1);
#74=CIRCLE('',#1257,0.5);
#75=CIRCLE('',#1258,0.5);
#76=CIRCLE('',#1261,3.6);
#77=CIRCLE('',#1262,3.6);
#78=CIRCLE('',#1265,0.5);
#79=CIRCLE('',#1266,0.5);
#80=CIRCLE('',#1268,3.6);
#81=CIRCLE('',#1269,3.6);
#82=CIRCLE('',#1271,0.5);
#83=CIRCLE('',#1272,0.5);
#84=CIRCLE('',#1275,3.6);
#85=CIRCLE('',#1276,3.6);
#86=CIRCLE('',#1279,0.5);
#87=CIRCLE('',#1280,0.5);
#88=CIRCLE('',#1283,0.1);
#89=CIRCLE('',#1284,0.1);
#90=CIRCLE('',#1286,2.4);
#91=CIRCLE('',#1287,2.4);
#92=CIRCLE('',#1289,0.1);
#93=CIRCLE('',#1290,0.1);
#94=CIRCLE('',#1293,0.5);
#95=CIRCLE('',#1294,0.5);
#96=CIRCLE('',#1298,3.6);
#97=CIRCLE('',#1299,3.6);
#98=CIRCLE('',#1301,3.1);
#99=CIRCLE('',#1304,3.6);
#100=CIRCLE('',#1306,3.6);
#101=CIRCLE('',#1309,3.1);
#102=CIRCLE('',#1310,6.);
#103=CIRCLE('',#1311,6.);
#104=CIRCLE('',#1314,6.);
#105=CIRCLE('',#1317,6.);
#106=CIRCLE('',#1320,3.1);
#107=CIRCLE('',#1322,7.6);
#108=CIRCLE('',#1324,7.6);
#109=CIRCLE('',#1327,7.6);
#110=CIRCLE('',#1328,6.5);
#111=CIRCLE('',#1331,6.5);
#112=CIRCLE('',#1332,7.6);
#113=CIRCLE('',#1333,6.5);
#114=CIRCLE('',#1335,6.5);
#115=CIRCLE('',#1340,7.6);
#116=CIRCLE('',#1345,6.5);
#117=CIRCLE('',#1346,6.5);
#118=ORIENTED_EDGE('',*,*,#458,.F.);
#119=ORIENTED_EDGE('',*,*,#459,.F.);
#120=ORIENTED_EDGE('',*,*,#460,.T.);
#121=ORIENTED_EDGE('',*,*,#461,.T.);
#122=ORIENTED_EDGE('',*,*,#462,.T.);
#123=ORIENTED_EDGE('',*,*,#463,.F.);
#124=ORIENTED_EDGE('',*,*,#464,.F.);
#125=ORIENTED_EDGE('',*,*,#461,.F.);
#126=ORIENTED_EDGE('',*,*,#465,.T.);
#127=ORIENTED_EDGE('',*,*,#466,.T.);
#128=ORIENTED_EDGE('',*,*,#467,.F.);
#129=ORIENTED_EDGE('',*,*,#462,.F.);
#130=ORIENTED_EDGE('',*,*,#460,.F.);
#131=ORIENTED_EDGE('',*,*,#468,.F.);
#132=ORIENTED_EDGE('',*,*,#464,.T.);
#133=ORIENTED_EDGE('',*,*,#469,.F.);
#134=ORIENTED_EDGE('',*,*,#470,.F.);
#135=ORIENTED_EDGE('',*,*,#471,.T.);
#136=ORIENTED_EDGE('',*,*,#472,.F.);
#137=ORIENTED_EDGE('',*,*,#458,.T.);
#138=ORIENTED_EDGE('',*,*,#471,.F.);
#139=ORIENTED_EDGE('',*,*,#473,.F.);
#140=ORIENTED_EDGE('',*,*,#465,.F.);
#141=ORIENTED_EDGE('',*,*,#474,.F.);
#142=ORIENTED_EDGE('',*,*,#475,.F.);
#143=ORIENTED_EDGE('',*,*,#476,.T.);
#144=ORIENTED_EDGE('',*,*,#477,.F.);
#145=ORIENTED_EDGE('',*,*,#475,.T.);
#146=ORIENTED_EDGE('',*,*,#476,.F.);
#147=ORIENTED_EDGE('',*,*,#478,.T.);
#148=ORIENTED_EDGE('',*,*,#479,.F.);
#149=ORIENTED_EDGE('',*,*,#477,.T.);
#150=ORIENTED_EDGE('',*,*,#480,.F.);
#151=ORIENTED_EDGE('',*,*,#481,.F.);
#152=ORIENTED_EDGE('',*,*,#482,.F.);
#153=ORIENTED_EDGE('',*,*,#483,.F.);
#154=ORIENTED_EDGE('',*,*,#484,.T.);
#155=ORIENTED_EDGE('',*,*,#485,.T.);
#156=ORIENTED_EDGE('',*,*,#486,.F.);
#157=ORIENTED_EDGE('',*,*,#483,.T.);
#158=ORIENTED_EDGE('',*,*,#487,.F.);
#159=ORIENTED_EDGE('',*,*,#485,.F.);
#160=ORIENTED_EDGE('',*,*,#488,.F.);
#161=ORIENTED_EDGE('',*,*,#489,.F.);
#162=ORIENTED_EDGE('',*,*,#490,.F.);
#163=ORIENTED_EDGE('',*,*,#489,.T.);
#164=ORIENTED_EDGE('',*,*,#491,.T.);
#165=ORIENTED_EDGE('',*,*,#492,.T.);
#166=ORIENTED_EDGE('',*,*,#493,.F.);
#167=ORIENTED_EDGE('',*,*,#492,.F.);
#168=ORIENTED_EDGE('',*,*,#494,.F.);
#169=ORIENTED_EDGE('',*,*,#495,.F.);
#170=ORIENTED_EDGE('',*,*,#496,.T.);
#171=ORIENTED_EDGE('',*,*,#497,.T.);
#172=ORIENTED_EDGE('',*,*,#498,.F.);
#173=ORIENTED_EDGE('',*,*,#495,.T.);
#174=ORIENTED_EDGE('',*,*,#499,.F.);
#175=ORIENTED_EDGE('',*,*,#497,.F.);
#176=ORIENTED_EDGE('',*,*,#500,.F.);
#177=ORIENTED_EDGE('',*,*,#501,.F.);
#178=ORIENTED_EDGE('',*,*,#502,.T.);
#179=ORIENTED_EDGE('',*,*,#503,.T.);
#180=ORIENTED_EDGE('',*,*,#504,.F.);
#181=ORIENTED_EDGE('',*,*,#501,.T.);
#182=ORIENTED_EDGE('',*,*,#505,.F.);
#183=ORIENTED_EDGE('',*,*,#503,.F.);
#184=ORIENTED_EDGE('',*,*,#506,.F.);
#185=ORIENTED_EDGE('',*,*,#507,.F.);
#186=ORIENTED_EDGE('',*,*,#508,.F.);
#187=ORIENTED_EDGE('',*,*,#507,.T.);
#188=ORIENTED_EDGE('',*,*,#509,.T.);
#189=ORIENTED_EDGE('',*,*,#510,.T.);
#190=ORIENTED_EDGE('',*,*,#511,.F.);
#191=ORIENTED_EDGE('',*,*,#510,.F.);
#192=ORIENTED_EDGE('',*,*,#512,.F.);
#193=ORIENTED_EDGE('',*,*,#513,.F.);
#194=ORIENTED_EDGE('',*,*,#514,.F.);
#195=ORIENTED_EDGE('',*,*,#513,.T.);
#196=ORIENTED_EDGE('',*,*,#515,.T.);
#197=ORIENTED_EDGE('',*,*,#516,.F.);
#198=ORIENTED_EDGE('',*,*,#517,.T.);
#199=ORIENTED_EDGE('',*,*,#518,.F.);
#200=ORIENTED_EDGE('',*,*,#519,.F.);
#201=ORIENTED_EDGE('',*,*,#516,.T.);
#202=ORIENTED_EDGE('',*,*,#520,.T.);
#203=ORIENTED_EDGE('',*,*,#521,.T.);
#204=ORIENTED_EDGE('',*,*,#522,.F.);
#205=ORIENTED_EDGE('',*,*,#518,.T.);
#206=ORIENTED_EDGE('',*,*,#523,.F.);
#207=ORIENTED_EDGE('',*,*,#521,.F.);
#208=ORIENTED_EDGE('',*,*,#524,.F.);
#209=ORIENTED_EDGE('',*,*,#525,.F.);
#210=ORIENTED_EDGE('',*,*,#526,.T.);
#211=ORIENTED_EDGE('',*,*,#527,.T.);
#212=ORIENTED_EDGE('',*,*,#528,.F.);
#213=ORIENTED_EDGE('',*,*,#525,.T.);
#214=ORIENTED_EDGE('',*,*,#529,.F.);
#215=ORIENTED_EDGE('',*,*,#527,.F.);
#216=ORIENTED_EDGE('',*,*,#530,.F.);
#217=ORIENTED_EDGE('',*,*,#531,.F.);
#218=ORIENTED_EDGE('',*,*,#532,.F.);
#219=ORIENTED_EDGE('',*,*,#531,.T.);
#220=ORIENTED_EDGE('',*,*,#533,.T.);
#221=ORIENTED_EDGE('',*,*,#534,.F.);
#222=ORIENTED_EDGE('',*,*,#535,.T.);
#223=ORIENTED_EDGE('',*,*,#536,.F.);
#224=ORIENTED_EDGE('',*,*,#537,.F.);
#225=ORIENTED_EDGE('',*,*,#534,.T.);
#226=ORIENTED_EDGE('',*,*,#538,.T.);
#227=ORIENTED_EDGE('',*,*,#539,.T.);
#228=ORIENTED_EDGE('',*,*,#540,.F.);
#229=ORIENTED_EDGE('',*,*,#536,.T.);
#230=ORIENTED_EDGE('',*,*,#541,.F.);
#231=ORIENTED_EDGE('',*,*,#539,.F.);
#232=ORIENTED_EDGE('',*,*,#542,.F.);
#233=ORIENTED_EDGE('',*,*,#543,.F.);
#234=ORIENTED_EDGE('',*,*,#544,.T.);
#235=ORIENTED_EDGE('',*,*,#545,.T.);
#236=ORIENTED_EDGE('',*,*,#546,.F.);
#237=ORIENTED_EDGE('',*,*,#543,.T.);
#238=ORIENTED_EDGE('',*,*,#547,.F.);
#239=ORIENTED_EDGE('',*,*,#545,.F.);
#240=ORIENTED_EDGE('',*,*,#548,.F.);
#241=ORIENTED_EDGE('',*,*,#549,.F.);
#242=ORIENTED_EDGE('',*,*,#550,.T.);
#243=ORIENTED_EDGE('',*,*,#551,.T.);
#244=ORIENTED_EDGE('',*,*,#552,.F.);
#245=ORIENTED_EDGE('',*,*,#549,.T.);
#246=ORIENTED_EDGE('',*,*,#553,.F.);
#247=ORIENTED_EDGE('',*,*,#551,.F.);
#248=ORIENTED_EDGE('',*,*,#554,.F.);
#249=ORIENTED_EDGE('',*,*,#555,.F.);
#250=ORIENTED_EDGE('',*,*,#556,.F.);
#251=ORIENTED_EDGE('',*,*,#555,.T.);
#252=ORIENTED_EDGE('',*,*,#557,.T.);
#253=ORIENTED_EDGE('',*,*,#558,.T.);
#254=ORIENTED_EDGE('',*,*,#559,.F.);
#255=ORIENTED_EDGE('',*,*,#558,.F.);
#256=ORIENTED_EDGE('',*,*,#560,.F.);
#257=ORIENTED_EDGE('',*,*,#561,.F.);
#258=ORIENTED_EDGE('',*,*,#562,.T.);
#259=ORIENTED_EDGE('',*,*,#481,.T.);
#260=ORIENTED_EDGE('',*,*,#563,.F.);
#261=ORIENTED_EDGE('',*,*,#561,.T.);
#262=ORIENTED_EDGE('',*,*,#564,.T.);
#263=ORIENTED_EDGE('',*,*,#565,.F.);
#264=ORIENTED_EDGE('',*,*,#566,.F.);
#265=ORIENTED_EDGE('',*,*,#567,.T.);
#266=ORIENTED_EDGE('',*,*,#568,.T.);
#267=ORIENTED_EDGE('',*,*,#569,.F.);
#268=ORIENTED_EDGE('',*,*,#570,.F.);
#269=ORIENTED_EDGE('',*,*,#565,.T.);
#270=ORIENTED_EDGE('',*,*,#478,.F.);
#271=ORIENTED_EDGE('',*,*,#571,.T.);
#272=ORIENTED_EDGE('',*,*,#572,.F.);
#273=ORIENTED_EDGE('',*,*,#573,.F.);
#274=ORIENTED_EDGE('',*,*,#569,.T.);
#275=ORIENTED_EDGE('',*,*,#574,.T.);
#276=ORIENTED_EDGE('',*,*,#479,.T.);
#277=ORIENTED_EDGE('',*,*,#570,.T.);
#278=ORIENTED_EDGE('',*,*,#573,.T.);
#279=ORIENTED_EDGE('',*,*,#575,.T.);
#280=ORIENTED_EDGE('',*,*,#576,.T.);
#281=ORIENTED_EDGE('',*,*,#566,.T.);
#282=ORIENTED_EDGE('',*,*,#552,.T.);
#283=ORIENTED_EDGE('',*,*,#553,.T.);
#284=ORIENTED_EDGE('',*,*,#556,.T.);
#285=ORIENTED_EDGE('',*,*,#559,.T.);
#286=ORIENTED_EDGE('',*,*,#563,.T.);
#287=ORIENTED_EDGE('',*,*,#480,.T.);
#288=ORIENTED_EDGE('',*,*,#486,.T.);
#289=ORIENTED_EDGE('',*,*,#487,.T.);
#290=ORIENTED_EDGE('',*,*,#490,.T.);
#291=ORIENTED_EDGE('',*,*,#493,.T.);
#292=ORIENTED_EDGE('',*,*,#498,.T.);
#293=ORIENTED_EDGE('',*,*,#499,.T.);
#294=ORIENTED_EDGE('',*,*,#504,.T.);
#295=ORIENTED_EDGE('',*,*,#505,.T.);
#296=ORIENTED_EDGE('',*,*,#508,.T.);
#297=ORIENTED_EDGE('',*,*,#511,.T.);
#298=ORIENTED_EDGE('',*,*,#514,.T.);
#299=ORIENTED_EDGE('',*,*,#519,.T.);
#300=ORIENTED_EDGE('',*,*,#522,.T.);
#301=ORIENTED_EDGE('',*,*,#523,.T.);
#302=ORIENTED_EDGE('',*,*,#528,.T.);
#303=ORIENTED_EDGE('',*,*,#529,.T.);
#304=ORIENTED_EDGE('',*,*,#532,.T.);
#305=ORIENTED_EDGE('',*,*,#537,.T.);
#306=ORIENTED_EDGE('',*,*,#540,.T.);
#307=ORIENTED_EDGE('',*,*,#541,.T.);
#308=ORIENTED_EDGE('',*,*,#546,.T.);
#309=ORIENTED_EDGE('',*,*,#547,.T.);
#310=ORIENTED_EDGE('',*,*,#577,.T.);
#311=ORIENTED_EDGE('',*,*,#567,.F.);
#312=ORIENTED_EDGE('',*,*,#576,.F.);
#313=ORIENTED_EDGE('',*,*,#578,.T.);
#314=ORIENTED_EDGE('',*,*,#571,.F.);
#315=ORIENTED_EDGE('',*,*,#574,.F.);
#316=ORIENTED_EDGE('',*,*,#568,.F.);
#317=ORIENTED_EDGE('',*,*,#564,.F.);
#318=ORIENTED_EDGE('',*,*,#577,.F.);
#319=ORIENTED_EDGE('',*,*,#579,.F.);
#320=ORIENTED_EDGE('',*,*,#562,.F.);
#321=ORIENTED_EDGE('',*,*,#560,.T.);
#322=ORIENTED_EDGE('',*,*,#557,.F.);
#323=ORIENTED_EDGE('',*,*,#554,.T.);
#324=ORIENTED_EDGE('',*,*,#550,.F.);
#325=ORIENTED_EDGE('',*,*,#548,.T.);
#326=ORIENTED_EDGE('',*,*,#544,.F.);
#327=ORIENTED_EDGE('',*,*,#542,.T.);
#328=ORIENTED_EDGE('',*,*,#538,.F.);
#329=ORIENTED_EDGE('',*,*,#535,.F.);
#330=ORIENTED_EDGE('',*,*,#533,.F.);
#331=ORIENTED_EDGE('',*,*,#530,.T.);
#332=ORIENTED_EDGE('',*,*,#526,.F.);
#333=ORIENTED_EDGE('',*,*,#524,.T.);
#334=ORIENTED_EDGE('',*,*,#520,.F.);
#335=ORIENTED_EDGE('',*,*,#517,.F.);
#336=ORIENTED_EDGE('',*,*,#515,.F.);
#337=ORIENTED_EDGE('',*,*,#512,.T.);
#338=ORIENTED_EDGE('',*,*,#509,.F.);
#339=ORIENTED_EDGE('',*,*,#506,.T.);
#340=ORIENTED_EDGE('',*,*,#502,.F.);
#341=ORIENTED_EDGE('',*,*,#500,.T.);
#342=ORIENTED_EDGE('',*,*,#496,.F.);
#343=ORIENTED_EDGE('',*,*,#494,.T.);
#344=ORIENTED_EDGE('',*,*,#491,.F.);
#345=ORIENTED_EDGE('',*,*,#488,.T.);
#346=ORIENTED_EDGE('',*,*,#484,.F.);
#347=ORIENTED_EDGE('',*,*,#482,.T.);
#348=ORIENTED_EDGE('',*,*,#580,.T.);
#349=ORIENTED_EDGE('',*,*,#581,.F.);
#350=ORIENTED_EDGE('',*,*,#582,.F.);
#351=ORIENTED_EDGE('',*,*,#583,.T.);
#352=ORIENTED_EDGE('',*,*,#572,.T.);
#353=ORIENTED_EDGE('',*,*,#584,.T.);
#354=ORIENTED_EDGE('',*,*,#585,.F.);
#355=ORIENTED_EDGE('',*,*,#584,.F.);
#356=ORIENTED_EDGE('',*,*,#579,.T.);
#357=ORIENTED_EDGE('',*,*,#578,.F.);
#358=ORIENTED_EDGE('',*,*,#575,.F.);
#359=ORIENTED_EDGE('',*,*,#583,.F.);
#360=ORIENTED_EDGE('',*,*,#586,.F.);
#361=ORIENTED_EDGE('',*,*,#587,.T.);
#362=ORIENTED_EDGE('',*,*,#588,.T.);
#363=ORIENTED_EDGE('',*,*,#589,.F.);
#364=ORIENTED_EDGE('',*,*,#590,.T.);
#365=ORIENTED_EDGE('',*,*,#585,.T.);
#366=ORIENTED_EDGE('',*,*,#588,.F.);
#367=ORIENTED_EDGE('',*,*,#581,.T.);
#368=ORIENTED_EDGE('',*,*,#590,.F.);
#369=ORIENTED_EDGE('',*,*,#591,.F.);
#370=ORIENTED_EDGE('',*,*,#592,.T.);
#371=ORIENTED_EDGE('',*,*,#582,.T.);
#372=ORIENTED_EDGE('',*,*,#592,.F.);
#373=ORIENTED_EDGE('',*,*,#593,.F.);
#374=ORIENTED_EDGE('',*,*,#586,.T.);
#375=ORIENTED_EDGE('',*,*,#594,.F.);
#376=ORIENTED_EDGE('',*,*,#595,.T.);
#377=ORIENTED_EDGE('',*,*,#596,.T.);
#378=ORIENTED_EDGE('',*,*,#597,.T.);
#379=ORIENTED_EDGE('',*,*,#580,.F.);
#380=ORIENTED_EDGE('',*,*,#598,.T.);
#381=ORIENTED_EDGE('',*,*,#593,.T.);
#382=ORIENTED_EDGE('',*,*,#591,.T.);
#383=ORIENTED_EDGE('',*,*,#589,.T.);
#384=ORIENTED_EDGE('',*,*,#587,.F.);
#385=ORIENTED_EDGE('',*,*,#599,.F.);
#386=ORIENTED_EDGE('',*,*,#600,.T.);
#387=ORIENTED_EDGE('',*,*,#595,.F.);
#388=ORIENTED_EDGE('',*,*,#601,.F.);
#389=ORIENTED_EDGE('',*,*,#602,.F.);
#390=ORIENTED_EDGE('',*,*,#603,.F.);
#391=ORIENTED_EDGE('',*,*,#604,.F.);
#392=ORIENTED_EDGE('',*,*,#601,.T.);
#393=ORIENTED_EDGE('',*,*,#594,.T.);
#394=ORIENTED_EDGE('',*,*,#605,.T.);
#395=ORIENTED_EDGE('',*,*,#606,.F.);
#396=ORIENTED_EDGE('',*,*,#607,.T.);
#397=ORIENTED_EDGE('',*,*,#608,.F.);
#398=ORIENTED_EDGE('',*,*,#603,.T.);
#399=ORIENTED_EDGE('',*,*,#609,.T.);
#400=ORIENTED_EDGE('',*,*,#596,.F.);
#401=ORIENTED_EDGE('',*,*,#600,.F.);
#402=ORIENTED_EDGE('',*,*,#610,.F.);
#403=ORIENTED_EDGE('',*,*,#607,.F.);
#404=ORIENTED_EDGE('',*,*,#611,.T.);
#405=ORIENTED_EDGE('',*,*,#612,.T.);
#406=ORIENTED_EDGE('',*,*,#612,.F.);
#407=ORIENTED_EDGE('',*,*,#613,.F.);
#408=ORIENTED_EDGE('',*,*,#614,.F.);
#409=ORIENTED_EDGE('',*,*,#615,.F.);
#410=ORIENTED_EDGE('',*,*,#616,.T.);
#411=ORIENTED_EDGE('',*,*,#617,.F.);
#412=ORIENTED_EDGE('',*,*,#605,.F.);
#413=ORIENTED_EDGE('',*,*,#597,.F.);
#414=ORIENTED_EDGE('',*,*,#598,.F.);
#415=ORIENTED_EDGE('',*,*,#618,.T.);
#416=ORIENTED_EDGE('',*,*,#614,.T.);
#417=ORIENTED_EDGE('',*,*,#619,.F.);
#418=ORIENTED_EDGE('',*,*,#620,.T.);
#419=ORIENTED_EDGE('',*,*,#621,.F.);
#420=ORIENTED_EDGE('',*,*,#468,.T.);
#421=ORIENTED_EDGE('',*,*,#459,.T.);
#422=ORIENTED_EDGE('',*,*,#472,.T.);
#423=ORIENTED_EDGE('',*,*,#474,.T.);
#424=ORIENTED_EDGE('',*,*,#602,.T.);
#425=ORIENTED_EDGE('',*,*,#604,.T.);
#426=ORIENTED_EDGE('',*,*,#608,.T.);
#427=ORIENTED_EDGE('',*,*,#610,.T.);
#428=ORIENTED_EDGE('',*,*,#622,.T.);
#429=ORIENTED_EDGE('',*,*,#623,.T.);
#430=ORIENTED_EDGE('',*,*,#615,.T.);
#431=ORIENTED_EDGE('',*,*,#621,.T.);
#432=ORIENTED_EDGE('',*,*,#599,.T.);
#433=ORIENTED_EDGE('',*,*,#624,.F.);
#434=ORIENTED_EDGE('',*,*,#625,.F.);
#435=ORIENTED_EDGE('',*,*,#616,.F.);
#436=ORIENTED_EDGE('',*,*,#623,.F.);
#437=ORIENTED_EDGE('',*,*,#618,.F.);
#438=ORIENTED_EDGE('',*,*,#466,.F.);
#439=ORIENTED_EDGE('',*,*,#473,.T.);
#440=ORIENTED_EDGE('',*,*,#470,.T.);
#441=ORIENTED_EDGE('',*,*,#626,.T.);
#442=ORIENTED_EDGE('',*,*,#619,.T.);
#443=ORIENTED_EDGE('',*,*,#613,.T.);
#444=ORIENTED_EDGE('',*,*,#611,.F.);
#445=ORIENTED_EDGE('',*,*,#609,.F.);
#446=ORIENTED_EDGE('',*,*,#606,.T.);
#447=ORIENTED_EDGE('',*,*,#617,.T.);
#448=ORIENTED_EDGE('',*,*,#625,.T.);
#449=ORIENTED_EDGE('',*,*,#627,.T.);
#450=ORIENTED_EDGE('',*,*,#463,.T.);
#451=ORIENTED_EDGE('',*,*,#467,.T.);
#452=ORIENTED_EDGE('',*,*,#627,.F.);
#453=ORIENTED_EDGE('',*,*,#624,.T.);
#454=ORIENTED_EDGE('',*,*,#622,.F.);
#455=ORIENTED_EDGE('',*,*,#620,.F.);
#456=ORIENTED_EDGE('',*,*,#626,.F.);
#457=ORIENTED_EDGE('',*,*,#469,.T.);
#458=EDGE_CURVE('',#628,#629,#744,.T.);
#459=EDGE_CURVE('',#630,#628,#52,.T.);
#460=EDGE_CURVE('',#630,#631,#745,.T.);
#461=EDGE_CURVE('',#631,#629,#746,.T.);
#462=EDGE_CURVE('',#631,#632,#747,.T.);
#463=EDGE_CURVE('',#633,#632,#748,.T.);
#464=EDGE_CURVE('',#629,#633,#749,.T.);
#465=EDGE_CURVE('',#634,#635,#750,.T.);
#466=EDGE_CURVE('',#635,#636,#751,.T.);
#467=EDGE_CURVE('',#632,#636,#752,.T.);
#468=EDGE_CURVE('',#634,#630,#753,.T.);
#469=EDGE_CURVE('',#637,#633,#754,.T.);
#470=EDGE_CURVE('',#638,#637,#755,.T.);
#471=EDGE_CURVE('',#638,#639,#756,.T.);
#472=EDGE_CURVE('',#628,#639,#757,.F.);
#473=EDGE_CURVE('',#635,#638,#53,.F.);
#474=EDGE_CURVE('',#639,#634,#54,.T.);
#475=EDGE_CURVE('',#640,#640,#55,.T.);
#476=EDGE_CURVE('',#641,#641,#56,.T.);
#477=EDGE_CURVE('',#642,#642,#57,.T.);
#478=EDGE_CURVE('',#643,#643,#58,.T.);
#479=EDGE_CURVE('',#644,#644,#59,.T.);
#480=EDGE_CURVE('',#645,#646,#60,.F.);
#481=EDGE_CURVE('',#647,#645,#758,.T.);
#482=EDGE_CURVE('',#648,#647,#61,.T.);
#483=EDGE_CURVE('',#646,#648,#759,.T.);
#484=EDGE_CURVE('',#648,#649,#62,.T.);
#485=EDGE_CURVE('',#649,#650,#760,.F.);
#486=EDGE_CURVE('',#646,#650,#63,.T.);
#487=EDGE_CURVE('',#650,#651,#64,.F.);
#488=EDGE_CURVE('',#652,#649,#65,.T.);
#489=EDGE_CURVE('',#651,#652,#761,.F.);
#490=EDGE_CURVE('',#651,#653,#762,.T.);
#491=EDGE_CURVE('',#652,#654,#763,.T.);
#492=EDGE_CURVE('',#654,#653,#764,.F.);
#493=EDGE_CURVE('',#653,#655,#66,.T.);
#494=EDGE_CURVE('',#656,#654,#67,.F.);
#495=EDGE_CURVE('',#655,#656,#765,.T.);
#496=EDGE_CURVE('',#656,#657,#766,.T.);
#497=EDGE_CURVE('',#657,#658,#767,.T.);
#498=EDGE_CURVE('',#655,#658,#768,.T.);
#499=EDGE_CURVE('',#658,#659,#68,.F.);
#500=EDGE_CURVE('',#660,#657,#69,.T.);
#501=EDGE_CURVE('',#659,#660,#769,.T.);
#502=EDGE_CURVE('',#660,#661,#70,.T.);
#503=EDGE_CURVE('',#661,#662,#770,.F.);
#504=EDGE_CURVE('',#659,#662,#71,.T.);
#505=EDGE_CURVE('',#662,#663,#72,.F.);
#506=EDGE_CURVE('',#664,#661,#73,.T.);
#507=EDGE_CURVE('',#663,#664,#771,.F.);
#508=EDGE_CURVE('',#663,#665,#772,.T.);
#509=EDGE_CURVE('',#664,#666,#773,.T.);
#510=EDGE_CURVE('',#666,#665,#774,.F.);
#511=EDGE_CURVE('',#665,#667,#74,.T.);
#512=EDGE_CURVE('',#668,#666,#75,.F.);
#513=EDGE_CURVE('',#667,#668,#775,.T.);
#514=EDGE_CURVE('',#667,#669,#776,.T.);
#515=EDGE_CURVE('',#668,#670,#777,.T.);
#516=EDGE_CURVE('',#669,#670,#778,.T.);
#517=EDGE_CURVE('',#670,#671,#76,.T.);
#518=EDGE_CURVE('',#672,#671,#779,.T.);
#519=EDGE_CURVE('',#669,#672,#77,.T.);
#520=EDGE_CURVE('',#671,#673,#780,.T.);
#521=EDGE_CURVE('',#673,#674,#781,.T.);
#522=EDGE_CURVE('',#672,#674,#782,.T.);
#523=EDGE_CURVE('',#674,#675,#78,.F.);
#524=EDGE_CURVE('',#676,#673,#79,.T.);
#525=EDGE_CURVE('',#675,#676,#783,.T.);
#526=EDGE_CURVE('',#676,#677,#80,.T.);
#527=EDGE_CURVE('',#677,#678,#784,.F.);
#528=EDGE_CURVE('',#675,#678,#81,.T.);
#529=EDGE_CURVE('',#678,#679,#82,.F.);
#530=EDGE_CURVE('',#680,#677,#83,.T.);
#531=EDGE_CURVE('',#679,#680,#785,.F.);
#532=EDGE_CURVE('',#679,#681,#786,.T.);
#533=EDGE_CURVE('',#680,#682,#787,.T.);
#534=EDGE_CURVE('',#681,#682,#788,.T.);
#535=EDGE_CURVE('',#682,#683,#84,.T.);
#536=EDGE_CURVE('',#684,#683,#789,.T.);
#537=EDGE_CURVE('',#681,#684,#85,.T.);
#538=EDGE_CURVE('',#683,#685,#790,.T.);
#539=EDGE_CURVE('',#685,#686,#791,.F.);
#540=EDGE_CURVE('',#684,#686,#792,.T.);
#541=EDGE_CURVE('',#686,#687,#86,.T.);
#542=EDGE_CURVE('',#688,#685,#87,.F.);
#543=EDGE_CURVE('',#687,#688,#793,.T.);
#544=EDGE_CURVE('',#688,#689,#794,.T.);
#545=EDGE_CURVE('',#689,#690,#795,.T.);
#546=EDGE_CURVE('',#687,#690,#796,.T.);
#547=EDGE_CURVE('',#690,#691,#88,.F.);
#548=EDGE_CURVE('',#692,#689,#89,.T.);
#549=EDGE_CURVE('',#691,#692,#797,.T.);
#550=EDGE_CURVE('',#692,#693,#90,.T.);
#551=EDGE_CURVE('',#693,#694,#798,.F.);
#552=EDGE_CURVE('',#691,#694,#91,.T.);
#553=EDGE_CURVE('',#694,#695,#92,.F.);
#554=EDGE_CURVE('',#696,#693,#93,.T.);
#555=EDGE_CURVE('',#695,#696,#799,.F.);
#556=EDGE_CURVE('',#695,#697,#800,.T.);
#557=EDGE_CURVE('',#696,#698,#801,.T.);
#558=EDGE_CURVE('',#698,#697,#802,.F.);
#559=EDGE_CURVE('',#697,#699,#94,.T.);
#560=EDGE_CURVE('',#700,#698,#95,.F.);
#561=EDGE_CURVE('',#699,#700,#803,.T.);
#562=EDGE_CURVE('',#700,#647,#804,.T.);
#563=EDGE_CURVE('',#699,#645,#805,.T.);
#564=EDGE_CURVE('',#701,#702,#806,.T.);
#565=EDGE_CURVE('',#703,#702,#807,.T.);
#566=EDGE_CURVE('',#704,#703,#808,.T.);
#567=EDGE_CURVE('',#704,#701,#809,.T.);
#568=EDGE_CURVE('',#702,#705,#96,.T.);
#569=EDGE_CURVE('',#706,#705,#810,.T.);
#570=EDGE_CURVE('',#703,#706,#97,.T.);
#571=EDGE_CURVE('',#707,#707,#98,.T.);
#572=EDGE_CURVE('',#708,#709,#811,.T.);
#573=EDGE_CURVE('',#706,#708,#812,.T.);
#574=EDGE_CURVE('',#705,#709,#813,.T.);
#575=EDGE_CURVE('',#708,#710,#814,.T.);
#576=EDGE_CURVE('',#710,#704,#99,.T.);
#577=EDGE_CURVE('',#711,#701,#100,.T.);
#578=EDGE_CURVE('',#710,#711,#815,.T.);
#579=EDGE_CURVE('',#709,#711,#816,.T.);
#580=EDGE_CURVE('',#712,#712,#101,.T.);
#581=EDGE_CURVE('',#713,#714,#817,.T.);
#582=EDGE_CURVE('',#715,#713,#102,.T.);
#583=EDGE_CURVE('',#715,#708,#818,.T.);
#584=EDGE_CURVE('',#709,#716,#819,.T.);
#585=EDGE_CURVE('',#714,#716,#103,.T.);
#586=EDGE_CURVE('',#717,#715,#820,.T.);
#587=EDGE_CURVE('',#717,#718,#821,.T.);
#588=EDGE_CURVE('',#718,#716,#822,.T.);
#589=EDGE_CURVE('',#719,#718,#104,.T.);
#590=EDGE_CURVE('',#719,#714,#823,.T.);
#591=EDGE_CURVE('',#720,#719,#824,.T.);
#592=EDGE_CURVE('',#720,#713,#825,.T.);
#593=EDGE_CURVE('',#717,#720,#105,.T.);
#594=EDGE_CURVE('',#721,#722,#826,.T.);
#595=EDGE_CURVE('',#721,#723,#827,.T.);
#596=EDGE_CURVE('',#723,#724,#828,.T.);
#597=EDGE_CURVE('',#724,#722,#829,.T.);
#598=EDGE_CURVE('',#725,#725,#106,.T.);
#599=EDGE_CURVE('',#726,#726,#107,.T.);
#600=EDGE_CURVE('',#727,#723,#830,.T.);
#601=EDGE_CURVE('',#728,#721,#831,.T.);
#602=EDGE_CURVE('',#727,#728,#108,.T.);
#603=EDGE_CURVE('',#729,#730,#832,.T.);
#604=EDGE_CURVE('',#728,#729,#833,.F.);
#605=EDGE_CURVE('',#722,#731,#834,.T.);
#606=EDGE_CURVE('',#730,#731,#835,.T.);
#607=EDGE_CURVE('',#732,#733,#836,.T.);
#608=EDGE_CURVE('',#729,#733,#109,.T.);
#609=EDGE_CURVE('',#730,#732,#110,.T.);
#610=EDGE_CURVE('',#733,#727,#837,.T.);
#611=EDGE_CURVE('',#732,#734,#838,.T.);
#612=EDGE_CURVE('',#734,#724,#839,.T.);
#613=EDGE_CURVE('',#735,#734,#111,.F.);
#614=EDGE_CURVE('',#736,#735,#840,.T.);
#615=EDGE_CURVE('',#737,#736,#112,.T.);
#616=EDGE_CURVE('',#737,#738,#841,.T.);
#617=EDGE_CURVE('',#731,#738,#113,.F.);
#618=EDGE_CURVE('',#739,#739,#114,.T.);
#619=EDGE_CURVE('',#740,#735,#20,.F.);
#620=EDGE_CURVE('',#740,#741,#842,.T.);
#621=EDGE_CURVE('',#736,#741,#21,.T.);
#622=EDGE_CURVE('',#741,#742,#115,.T.);
#623=EDGE_CURVE('',#742,#737,#22,.T.);
#624=EDGE_CURVE('',#743,#742,#843,.T.);
#625=EDGE_CURVE('',#738,#743,#23,.F.);
#626=EDGE_CURVE('',#637,#740,#116,.F.);
#627=EDGE_CURVE('',#743,#636,#117,.F.);
#628=VERTEX_POINT('',#1719);
#629=VERTEX_POINT('',#1720);
#630=VERTEX_POINT('',#1722);
#631=VERTEX_POINT('',#1724);
#632=VERTEX_POINT('',#1728);
#633=VERTEX_POINT('',#1730);
#634=VERTEX_POINT('',#1734);
#635=VERTEX_POINT('',#1735);
#636=VERTEX_POINT('',#1737);
#637=VERTEX_POINT('',#1742);
#638=VERTEX_POINT('',#1744);
#639=VERTEX_POINT('',#1746);
#640=VERTEX_POINT('',#1753);
#641=VERTEX_POINT('',#1755);
#642=VERTEX_POINT('',#1758);
#643=VERTEX_POINT('',#1761);
#644=VERTEX_POINT('',#1764);
#645=VERTEX_POINT('',#1767);
#646=VERTEX_POINT('',#1768);
#647=VERTEX_POINT('',#1770);
#648=VERTEX_POINT('',#1772);
#649=VERTEX_POINT('',#1776);
#650=VERTEX_POINT('',#1778);
#651=VERTEX_POINT('',#1782);
#652=VERTEX_POINT('',#1784);
#653=VERTEX_POINT('',#1788);
#654=VERTEX_POINT('',#1790);
#655=VERTEX_POINT('',#1794);
#656=VERTEX_POINT('',#1796);
#657=VERTEX_POINT('',#1800);
#658=VERTEX_POINT('',#1802);
#659=VERTEX_POINT('',#1806);
#660=VERTEX_POINT('',#1808);
#661=VERTEX_POINT('',#1812);
#662=VERTEX_POINT('',#1814);
#663=VERTEX_POINT('',#1818);
#664=VERTEX_POINT('',#1820);
#665=VERTEX_POINT('',#1824);
#666=VERTEX_POINT('',#1826);
#667=VERTEX_POINT('',#1830);
#668=VERTEX_POINT('',#1832);
#669=VERTEX_POINT('',#1836);
#670=VERTEX_POINT('',#1838);
#671=VERTEX_POINT('',#1842);
#672=VERTEX_POINT('',#1844);
#673=VERTEX_POINT('',#1848);
#674=VERTEX_POINT('',#1850);
#675=VERTEX_POINT('',#1854);
#676=VERTEX_POINT('',#1856);
#677=VERTEX_POINT('',#1860);
#678=VERTEX_POINT('',#1862);
#679=VERTEX_POINT('',#1866);
#680=VERTEX_POINT('',#1868);
#681=VERTEX_POINT('',#1872);
#682=VERTEX_POINT('',#1874);
#683=VERTEX_POINT('',#1878);
#684=VERTEX_POINT('',#1880);
#685=VERTEX_POINT('',#1884);
#686=VERTEX_POINT('',#1886);
#687=VERTEX_POINT('',#1890);
#688=VERTEX_POINT('',#1892);
#689=VERTEX_POINT('',#1896);
#690=VERTEX_POINT('',#1898);
#691=VERTEX_POINT('',#1902);
#692=VERTEX_POINT('',#1904);
#693=VERTEX_POINT('',#1908);
#694=VERTEX_POINT('',#1910);
#695=VERTEX_POINT('',#1914);
#696=VERTEX_POINT('',#1916);
#697=VERTEX_POINT('',#1920);
#698=VERTEX_POINT('',#1922);
#699=VERTEX_POINT('',#1926);
#700=VERTEX_POINT('',#1928);
#701=VERTEX_POINT('',#1935);
#702=VERTEX_POINT('',#1936);
#703=VERTEX_POINT('',#1938);
#704=VERTEX_POINT('',#1940);
#705=VERTEX_POINT('',#1944);
#706=VERTEX_POINT('',#1946);
#707=VERTEX_POINT('',#1950);
#708=VERTEX_POINT('',#1953);
#709=VERTEX_POINT('',#1954);
#710=VERTEX_POINT('',#1959);
#711=VERTEX_POINT('',#1963);
#712=VERTEX_POINT('',#1969);
#713=VERTEX_POINT('',#1971);
#714=VERTEX_POINT('',#1972);
#715=VERTEX_POINT('',#1974);
#716=VERTEX_POINT('',#1977);
#717=VERTEX_POINT('',#1981);
#718=VERTEX_POINT('',#1983);
#719=VERTEX_POINT('',#1987);
#720=VERTEX_POINT('',#1991);
#721=VERTEX_POINT('',#1997);
#722=VERTEX_POINT('',#1998);
#723=VERTEX_POINT('',#2000);
#724=VERTEX_POINT('',#2002);
#725=VERTEX_POINT('',#2006);
#726=VERTEX_POINT('',#2009);
#727=VERTEX_POINT('',#2012);
#728=VERTEX_POINT('',#2014);
#729=VERTEX_POINT('',#2018);
#730=VERTEX_POINT('',#2019);
#731=VERTEX_POINT('',#2022);
#732=VERTEX_POINT('',#2026);
#733=VERTEX_POINT('',#2027);
#734=VERTEX_POINT('',#2033);
#735=VERTEX_POINT('',#2037);
#736=VERTEX_POINT('',#2039);
#737=VERTEX_POINT('',#2041);
#738=VERTEX_POINT('',#2043);
#739=VERTEX_POINT('',#2047);
#740=VERTEX_POINT('',#2050);
#741=VERTEX_POINT('',#2052);
#742=VERTEX_POINT('',#2056);
#743=VERTEX_POINT('',#2060);
#744=LINE('',#1718,#844);
#745=LINE('',#1723,#845);
#746=LINE('',#1725,#846);
#747=LINE('',#1727,#847);
#748=LINE('',#1729,#848);
#749=LINE('',#1731,#849);
#750=LINE('',#1733,#850);
#751=LINE('',#1736,#851);
#752=LINE('',#1738,#852);
#753=LINE('',#1739,#853);
#754=LINE('',#1741,#854);
#755=LINE('',#1743,#855);
#756=LINE('',#1745,#856);
#757=LINE('',#1747,#857);
#758=LINE('',#1769,#858);
#759=LINE('',#1773,#859);
#760=LINE('',#1777,#860);
#761=LINE('',#1785,#861);
#762=LINE('',#1787,#862);
#763=LINE('',#1789,#863);
#764=LINE('',#1791,#864);
#765=LINE('',#1797,#865);
#766=LINE('',#1799,#866);
#767=LINE('',#1801,#867);
#768=LINE('',#1803,#868);
#769=LINE('',#1809,#869);
#770=LINE('',#1813,#870);
#771=LINE('',#1821,#871);
#772=LINE('',#1823,#872);
#773=LINE('',#1825,#873);
#774=LINE('',#1827,#874);
#775=LINE('',#1833,#875);
#776=LINE('',#1835,#876);
#777=LINE('',#1837,#877);
#778=LINE('',#1839,#878);
#779=LINE('',#1843,#879);
#780=LINE('',#1847,#880);
#781=LINE('',#1849,#881);
#782=LINE('',#1851,#882);
#783=LINE('',#1857,#883);
#784=LINE('',#1861,#884);
#785=LINE('',#1869,#885);
#786=LINE('',#1871,#886);
#787=LINE('',#1873,#887);
#788=LINE('',#1875,#888);
#789=LINE('',#1879,#889);
#790=LINE('',#1883,#890);
#791=LINE('',#1885,#891);
#792=LINE('',#1887,#892);
#793=LINE('',#1893,#893);
#794=LINE('',#1895,#894);
#795=LINE('',#1897,#895);
#796=LINE('',#1899,#896);
#797=LINE('',#1905,#897);
#798=LINE('',#1909,#898);
#799=LINE('',#1917,#899);
#800=LINE('',#1919,#900);
#801=LINE('',#1921,#901);
#802=LINE('',#1923,#902);
#803=LINE('',#1929,#903);
#804=LINE('',#1931,#904);
#805=LINE('',#1932,#905);
#806=LINE('',#1934,#906);
#807=LINE('',#1937,#907);
#808=LINE('',#1939,#908);
#809=LINE('',#1941,#909);
#810=LINE('',#1945,#910);
#811=LINE('',#1952,#911);
#812=LINE('',#1955,#912);
#813=LINE('',#1956,#913);
#814=LINE('',#1958,#914);
#815=LINE('',#1964,#915);
#816=LINE('',#1966,#916);
#817=LINE('',#1970,#917);
#818=LINE('',#1975,#918);
#819=LINE('',#1976,#919);
#820=LINE('',#1980,#920);
#821=LINE('',#1982,#921);
#822=LINE('',#1984,#922);
#823=LINE('',#1988,#923);
#824=LINE('',#1990,#924);
#825=LINE('',#1992,#925);
#826=LINE('',#1996,#926);
#827=LINE('',#1999,#927);
#828=LINE('',#2001,#928);
#829=LINE('',#2003,#929);
#830=LINE('',#2011,#930);
#831=LINE('',#2013,#931);
#832=LINE('',#2017,#932);
#833=LINE('',#2020,#933);
#834=LINE('',#2021,#934);
#835=LINE('',#2023,#935);
#836=LINE('',#2025,#936);
#837=LINE('',#2031,#937);
#838=LINE('',#2032,#938);
#839=LINE('',#2034,#939);
#840=LINE('',#2038,#940);
#841=LINE('',#2042,#941);
#842=LINE('',#2051,#942);
#843=LINE('',#2059,#943);
#844=VECTOR('',#1352,1000.);
#845=VECTOR('',#1355,1000.);
#846=VECTOR('',#1356,1000.);
#847=VECTOR('',#1359,1000.);
#848=VECTOR('',#1360,1000.);
#849=VECTOR('',#1361,1000.);
#850=VECTOR('',#1364,1000.);
#851=VECTOR('',#1365,1000.);
#852=VECTOR('',#1366,1000.);
#853=VECTOR('',#1367,1000.);
#854=VECTOR('',#1370,1000.);
#855=VECTOR('',#1371,1000.);
#856=VECTOR('',#1372,1000.);
#857=VECTOR('',#1373,1000.);
#858=VECTOR('',#1402,1000.);
#859=VECTOR('',#1405,1000.);
#860=VECTOR('',#1410,1000.);
#861=VECTOR('',#1419,1000.);
#862=VECTOR('',#1422,1000.);
#863=VECTOR('',#1423,1000.);
#864=VECTOR('',#1424,1000.);
#865=VECTOR('',#1431,1000.);
#866=VECTOR('',#1434,1000.);
#867=VECTOR('',#1435,1000.);
#868=VECTOR('',#1436,1000.);
#869=VECTOR('',#1443,1000.);
#870=VECTOR('',#1448,1000.);
#871=VECTOR('',#1457,1000.);
#872=VECTOR('',#1460,1000.);
#873=VECTOR('',#1461,1000.);
#874=VECTOR('',#1462,1000.);
#875=VECTOR('',#1469,1000.);
#876=VECTOR('',#1472,1000.);
#877=VECTOR('',#1473,1000.);
#878=VECTOR('',#1474,1000.);
#879=VECTOR('',#1479,1000.);
#880=VECTOR('',#1484,1000.);
#881=VECTOR('',#1485,1000.);
#882=VECTOR('',#1486,1000.);
#883=VECTOR('',#1493,1000.);
#884=VECTOR('',#1498,1000.);
#885=VECTOR('',#1507,1000.);
#886=VECTOR('',#1510,1000.);
#887=VECTOR('',#1511,1000.);
#888=VECTOR('',#1512,1000.);
#889=VECTOR('',#1517,1000.);
#890=VECTOR('',#1522,1000.);
#891=VECTOR('',#1523,1000.);
#892=VECTOR('',#1524,1000.);
#893=VECTOR('',#1531,1000.);
#894=VECTOR('',#1534,1000.);
#895=VECTOR('',#1535,1000.);
#896=VECTOR('',#1536,1000.);
#897=VECTOR('',#1543,1000.);
#898=VECTOR('',#1548,1000.);
#899=VECTOR('',#1557,1000.);
#900=VECTOR('',#1560,1000.);
#901=VECTOR('',#1561,1000.);
#902=VECTOR('',#1562,1000.);
#903=VECTOR('',#1569,1000.);
#904=VECTOR('',#1572,1000.);
#905=VECTOR('',#1573,1000.);
#906=VECTOR('',#1576,1000.);
#907=VECTOR('',#1577,1000.);
#908=VECTOR('',#1578,1000.);
#909=VECTOR('',#1579,1000.);
#910=VECTOR('',#1584,1000.);
#911=VECTOR('',#1593,1000.);
#912=VECTOR('',#1594,1000.);
#913=VECTOR('',#1595,1000.);
#914=VECTOR('',#1598,1000.);
#915=VECTOR('',#1605,1000.);
#916=VECTOR('',#1608,1000.);
#917=VECTOR('',#1613,1000.);
#918=VECTOR('',#1616,1000.);
#919=VECTOR('',#1617,1000.);
#920=VECTOR('',#1622,1000.);
#921=VECTOR('',#1623,1000.);
#922=VECTOR('',#1624,1000.);
#923=VECTOR('',#1629,1000.);
#924=VECTOR('',#1632,1000.);
#925=VECTOR('',#1633,1000.);
#926=VECTOR('',#1640,1000.);
#927=VECTOR('',#1641,1000.);
#928=VECTOR('',#1642,1000.);
#929=VECTOR('',#1643,1000.);
#930=VECTOR('',#1654,1000.);
#931=VECTOR('',#1655,1000.);
#932=VECTOR('',#1660,1000.);
#933=VECTOR('',#1661,1000.);
#934=VECTOR('',#1662,1000.);
#935=VECTOR('',#1663,1000.);
#936=VECTOR('',#1666,1000.);
#937=VECTOR('',#1673,1000.);
#938=VECTOR('',#1674,1000.);
#939=VECTOR('',#1675,1000.);
#940=VECTOR('',#1680,1000.);
#941=VECTOR('',#1683,1000.);
#942=VECTOR('',#1694,1000.);
#943=VECTOR('',#1705,1000.);
#944=EDGE_LOOP('',(#118,#119,#120,#121));
#945=EDGE_LOOP('',(#122,#123,#124,#125));
#946=EDGE_LOOP('',(#126,#127,#128,#129,#130,#131));
#947=EDGE_LOOP('',(#132,#133,#134,#135,#136,#137));
#948=EDGE_LOOP('',(#138,#139,#140,#141));
#949=EDGE_LOOP('',(#142));
#950=EDGE_LOOP('',(#143));
#951=EDGE_LOOP('',(#144));
#952=EDGE_LOOP('',(#145));
#953=EDGE_LOOP('',(#146));
#954=EDGE_LOOP('',(#147));
#955=EDGE_LOOP('',(#148));
#956=EDGE_LOOP('',(#149));
#957=EDGE_LOOP('',(#150,#151,#152,#153));
#958=EDGE_LOOP('',(#154,#155,#156,#157));
#959=EDGE_LOOP('',(#158,#159,#160,#161));
#960=EDGE_LOOP('',(#162,#163,#164,#165));
#961=EDGE_LOOP('',(#166,#167,#168,#169));
#962=EDGE_LOOP('',(#170,#171,#172,#173));
#963=EDGE_LOOP('',(#174,#175,#176,#177));
#964=EDGE_LOOP('',(#178,#179,#180,#181));
#965=EDGE_LOOP('',(#182,#183,#184,#185));
#966=EDGE_LOOP('',(#186,#187,#188,#189));
#967=EDGE_LOOP('',(#190,#191,#192,#193));
#968=EDGE_LOOP('',(#194,#195,#196,#197));
#969=EDGE_LOOP('',(#198,#199,#200,#201));
#970=EDGE_LOOP('',(#202,#203,#204,#205));
#971=EDGE_LOOP('',(#206,#207,#208,#209));
#972=EDGE_LOOP('',(#210,#211,#212,#213));
#973=EDGE_LOOP('',(#214,#215,#216,#217));
#974=EDGE_LOOP('',(#218,#219,#220,#221));
#975=EDGE_LOOP('',(#222,#223,#224,#225));
#976=EDGE_LOOP('',(#226,#227,#228,#229));
#977=EDGE_LOOP('',(#230,#231,#232,#233));
#978=EDGE_LOOP('',(#234,#235,#236,#237));
#979=EDGE_LOOP('',(#238,#239,#240,#241));
#980=EDGE_LOOP('',(#242,#243,#244,#245));
#981=EDGE_LOOP('',(#246,#247,#248,#249));
#982=EDGE_LOOP('',(#250,#251,#252,#253));
#983=EDGE_LOOP('',(#254,#255,#256,#257));
#984=EDGE_LOOP('',(#258,#259,#260,#261));
#985=EDGE_LOOP('',(#262,#263,#264,#265));
#986=EDGE_LOOP('',(#266,#267,#268,#269));
#987=EDGE_LOOP('',(#270));
#988=EDGE_LOOP('',(#271));
#989=EDGE_LOOP('',(#272,#273,#274,#275));
#990=EDGE_LOOP('',(#276));
#991=EDGE_LOOP('',(#277,#278,#279,#280,#281));
#992=EDGE_LOOP('',(#282,#283,#284,#285,#286,#287,#288,#289,#290,#291,#292,
#293,#294,#295,#296,#297,#298,#299,#300,#301,#302,#303,#304,#305,#306,#307,
#308,#309));
#993=EDGE_LOOP('',(#310,#311,#312,#313));
#994=EDGE_LOOP('',(#314));
#995=EDGE_LOOP('',(#315,#316,#317,#318,#319));
#996=EDGE_LOOP('',(#320,#321,#322,#323,#324,#325,#326,#327,#328,#329,#330,
#331,#332,#333,#334,#335,#336,#337,#338,#339,#340,#341,#342,#343,#344,#345,
#346,#347));
#997=EDGE_LOOP('',(#348));
#998=EDGE_LOOP('',(#349,#350,#351,#352,#353,#354));
#999=EDGE_LOOP('',(#355,#356,#357,#358,#359,#360,#361,#362));
#1000=EDGE_LOOP('',(#363,#364,#365,#366));
#1001=EDGE_LOOP('',(#367,#368,#369,#370));
#1002=EDGE_LOOP('',(#371,#372,#373,#374));
#1003=EDGE_LOOP('',(#375,#376,#377,#378));
#1004=EDGE_LOOP('',(#379));
#1005=EDGE_LOOP('',(#380));
#1006=EDGE_LOOP('',(#381,#382,#383,#384));
#1007=EDGE_LOOP('',(#385));
#1008=EDGE_LOOP('',(#386,#387,#388,#389));
#1009=EDGE_LOOP('',(#390,#391,#392,#393,#394,#395));
#1010=EDGE_LOOP('',(#396,#397,#398,#399));
#1011=EDGE_LOOP('',(#400,#401,#402,#403,#404,#405));
#1012=EDGE_LOOP('',(#406,#407,#408,#409,#410,#411,#412,#413));
#1013=EDGE_LOOP('',(#414));
#1014=EDGE_LOOP('',(#415));
#1015=EDGE_LOOP('',(#416,#417,#418,#419));
#1016=EDGE_LOOP('',(#420,#421,#422,#423));
#1017=EDGE_LOOP('',(#424,#425,#426,#427));
#1018=EDGE_LOOP('',(#428,#429,#430,#431));
#1019=EDGE_LOOP('',(#432));
#1020=EDGE_LOOP('',(#433,#434,#435,#436));
#1021=EDGE_LOOP('',(#437));
#1022=EDGE_LOOP('',(#438,#439,#440,#441,#442,#443,#444,#445,#446,#447,#448,
#449));
#1023=EDGE_LOOP('',(#450,#451,#452,#453,#454,#455,#456,#457));
#1024=FACE_BOUND('',#944,.T.);
#1025=FACE_BOUND('',#945,.T.);
#1026=FACE_BOUND('',#946,.T.);
#1027=FACE_BOUND('',#947,.T.);
#1028=FACE_BOUND('',#948,.T.);
#1029=FACE_BOUND('',#949,.T.);
#1030=FACE_BOUND('',#950,.T.);
#1031=FACE_BOUND('',#951,.T.);
#1032=FACE_BOUND('',#952,.T.);
#1033=FACE_BOUND('',#953,.T.);
#1034=FACE_BOUND('',#954,.T.);
#1035=FACE_BOUND('',#955,.T.);
#1036=FACE_BOUND('',#956,.T.);
#1037=FACE_BOUND('',#957,.T.);
#1038=FACE_BOUND('',#958,.T.);
#1039=FACE_BOUND('',#959,.T.);
#1040=FACE_BOUND('',#960,.T.);
#1041=FACE_BOUND('',#961,.T.);
#1042=FACE_BOUND('',#962,.T.);
#1043=FACE_BOUND('',#963,.T.);
#1044=FACE_BOUND('',#964,.T.);
#1045=FACE_BOUND('',#965,.T.);
#1046=FACE_BOUND('',#966,.T.);
#1047=FACE_BOUND('',#967,.T.);
#1048=FACE_BOUND('',#968,.T.);
#1049=FACE_BOUND('',#969,.T.);
#1050=FACE_BOUND('',#970,.T.);
#1051=FACE_BOUND('',#971,.T.);
#1052=FACE_BOUND('',#972,.T.);
#1053=FACE_BOUND('',#973,.T.);
#1054=FACE_BOUND('',#974,.T.);
#1055=FACE_BOUND('',#975,.T.);
#1056=FACE_BOUND('',#976,.T.);
#1057=FACE_BOUND('',#977,.T.);
#1058=FACE_BOUND('',#978,.T.);
#1059=FACE_BOUND('',#979,.T.);
#1060=FACE_BOUND('',#980,.T.);
#1061=FACE_BOUND('',#981,.T.);
#1062=FACE_BOUND('',#982,.T.);
#1063=FACE_BOUND('',#983,.T.);
#1064=FACE_BOUND('',#984,.T.);
#1065=FACE_BOUND('',#985,.T.);
#1066=FACE_BOUND('',#986,.T.);
#1067=FACE_BOUND('',#987,.T.);
#1068=FACE_BOUND('',#988,.T.);
#1069=FACE_BOUND('',#989,.T.);
#1070=FACE_BOUND('',#990,.T.);
#1071=FACE_BOUND('',#991,.T.);
#1072=FACE_BOUND('',#992,.T.);
#1073=FACE_BOUND('',#993,.T.);
#1074=FACE_BOUND('',#994,.T.);
#1075=FACE_BOUND('',#995,.T.);
#1076=FACE_BOUND('',#996,.T.);
#1077=FACE_BOUND('',#997,.T.);
#1078=FACE_BOUND('',#998,.T.);
#1079=FACE_BOUND('',#999,.T.);
#1080=FACE_BOUND('',#1000,.T.);
#1081=FACE_BOUND('',#1001,.T.);
#1082=FACE_BOUND('',#1002,.T.);
#1083=FACE_BOUND('',#1003,.T.);
#1084=FACE_BOUND('',#1004,.T.);
#1085=FACE_BOUND('',#1005,.T.);
#1086=FACE_BOUND('',#1006,.T.);
#1087=FACE_BOUND('',#1007,.T.);
#1088=FACE_BOUND('',#1008,.T.);
#1089=FACE_BOUND('',#1009,.T.);
#1090=FACE_BOUND('',#1010,.T.);
#1091=FACE_BOUND('',#1011,.T.);
#1092=FACE_BOUND('',#1012,.T.);
#1093=FACE_BOUND('',#1013,.T.);
#1094=FACE_BOUND('',#1014,.T.);
#1095=FACE_BOUND('',#1015,.T.);
#1096=FACE_BOUND('',#1016,.T.);
#1097=FACE_BOUND('',#1017,.T.);
#1098=FACE_BOUND('',#1018,.T.);
#1099=FACE_BOUND('',#1019,.T.);
#1100=FACE_BOUND('',#1020,.T.);
#1101=FACE_BOUND('',#1021,.T.);
#1102=FACE_BOUND('',#1022,.T.);
#1103=FACE_BOUND('',#1023,.T.);
#1104=PLANE('',#1215);
#1105=PLANE('',#1217);
#1106=PLANE('',#1218);
#1107=PLANE('',#1219);
#1108=PLANE('',#1220);
#1109=PLANE('',#1226);
#1110=PLANE('',#1228);
#1111=PLANE('',#1241);
#1112=PLANE('',#1245);
#1113=PLANE('',#1255);
#1114=PLANE('',#1259);
#1115=PLANE('',#1263);
#1116=PLANE('',#1273);
#1117=PLANE('',#1277);
#1118=PLANE('',#1281);
#1119=PLANE('',#1291);
#1120=PLANE('',#1295);
#1121=PLANE('',#1296);
#1122=PLANE('',#1302);
#1123=PLANE('',#1303);
#1124=PLANE('',#1307);
#1125=PLANE('',#1308);
#1126=PLANE('',#1312);
#1127=PLANE('',#1315);
#1128=PLANE('',#1318);
#1129=PLANE('',#1321);
#1130=PLANE('',#1323);
#1131=PLANE('',#1325);
#1132=PLANE('',#1326);
#1133=PLANE('',#1329);
#1134=PLANE('',#1330);
#1135=PLANE('',#1334);
#1136=PLANE('',#1336);
#1137=PLANE('',#1342);
#1138=PLANE('',#1347);
#1139=ADVANCED_FACE('',(#1024),#1104,.F.);
#1140=ADVANCED_FACE('',(#1025),#1105,.F.);
#1141=ADVANCED_FACE('',(#1026),#1106,.F.);
#1142=ADVANCED_FACE('',(#1027),#1107,.F.);
#1143=ADVANCED_FACE('',(#1028),#1108,.F.);
#1144=ADVANCED_FACE('',(#1029,#1030),#24,.F.);
#1145=ADVANCED_FACE('',(#1031,#1032),#1109,.F.);
#1146=ADVANCED_FACE('',(#1033,#1034),#1110,.F.);
#1147=ADVANCED_FACE('',(#1035,#1036),#25,.F.);
#1148=ADVANCED_FACE('',(#1037),#26,.F.);
#1149=ADVANCED_FACE('',(#1038),#27,.F.);
#1150=ADVANCED_FACE('',(#1039),#28,.F.);
#1151=ADVANCED_FACE('',(#1040),#1111,.F.);
#1152=ADVANCED_FACE('',(#1041),#29,.T.);
#1153=ADVANCED_FACE('',(#1042),#1112,.F.);
#1154=ADVANCED_FACE('',(#1043),#30,.F.);
#1155=ADVANCED_FACE('',(#1044),#31,.F.);
#1156=ADVANCED_FACE('',(#1045),#32,.F.);
#1157=ADVANCED_FACE('',(#1046),#1113,.F.);
#1158=ADVANCED_FACE('',(#1047),#33,.T.);
#1159=ADVANCED_FACE('',(#1048),#1114,.F.);
#1160=ADVANCED_FACE('',(#1049),#34,.T.);
#1161=ADVANCED_FACE('',(#1050),#1115,.F.);
#1162=ADVANCED_FACE('',(#1051),#35,.F.);
#1163=ADVANCED_FACE('',(#1052),#36,.T.);
#1164=ADVANCED_FACE('',(#1053),#37,.F.);
#1165=ADVANCED_FACE('',(#1054),#1116,.F.);
#1166=ADVANCED_FACE('',(#1055),#38,.T.);
#1167=ADVANCED_FACE('',(#1056),#1117,.F.);
#1168=ADVANCED_FACE('',(#1057),#39,.T.);
#1169=ADVANCED_FACE('',(#1058),#1118,.F.);
#1170=ADVANCED_FACE('',(#1059),#40,.F.);
#1171=ADVANCED_FACE('',(#1060),#41,.F.);
#1172=ADVANCED_FACE('',(#1061),#42,.F.);
#1173=ADVANCED_FACE('',(#1062),#1119,.F.);
#1174=ADVANCED_FACE('',(#1063),#43,.T.);
#1175=ADVANCED_FACE('',(#1064),#1120,.F.);
#1176=ADVANCED_FACE('',(#1065),#1121,.F.);
#1177=ADVANCED_FACE('',(#1066),#44,.T.);
#1178=ADVANCED_FACE('',(#1067,#1068),#45,.F.);
#1179=ADVANCED_FACE('',(#1069),#1122,.F.);
#1180=ADVANCED_FACE('',(#1070,#1071,#1072),#1123,.T.);
#1181=ADVANCED_FACE('',(#1073),#46,.T.);
#1182=ADVANCED_FACE('',(#1074,#1075,#1076),#1124,.F.);
#1183=ADVANCED_FACE('',(#1077,#1078),#1125,.F.);
#1184=ADVANCED_FACE('',(#1079),#1126,.T.);
#1185=ADVANCED_FACE('',(#1080),#47,.T.);
#1186=ADVANCED_FACE('',(#1081),#1127,.F.);
#1187=ADVANCED_FACE('',(#1082),#48,.T.);
#1188=ADVANCED_FACE('',(#1083),#1128,.F.);
#1189=ADVANCED_FACE('',(#1084,#1085),#49,.F.);
#1190=ADVANCED_FACE('',(#1086,#1087),#1129,.F.);
#1191=ADVANCED_FACE('',(#1088),#1130,.F.);
#1192=ADVANCED_FACE('',(#1089),#1131,.F.);
#1193=ADVANCED_FACE('',(#1090),#1132,.F.);
#1194=ADVANCED_FACE('',(#1091),#1133,.F.);
#1195=ADVANCED_FACE('',(#1092),#1134,.F.);
#1196=ADVANCED_FACE('',(#1093,#1094),#1135,.F.);
#1197=ADVANCED_FACE('',(#1095),#1136,.F.);
#1198=ADVANCED_FACE('',(#1096,#1097,#1098,#1099),#50,.T.);
#1199=ADVANCED_FACE('',(#1100),#1137,.F.);
#1200=ADVANCED_FACE('',(#1101,#1102),#51,.F.);
#1201=ADVANCED_FACE('',(#1103),#1138,.F.);
#1202=CLOSED_SHELL('',(#1139,#1140,#1141,#1142,#1143,#1144,#1145,#1146,
#1147,#1148,#1149,#1150,#1151,#1152,#1153,#1154,#1155,#1156,#1157,#1158,
#1159,#1160,#1161,#1162,#1163,#1164,#1165,#1166,#1167,#1168,#1169,#1170,
#1171,#1172,#1173,#1174,#1175,#1176,#1177,#1178,#1179,#1180,#1181,#1182,
#1183,#1184,#1185,#1186,#1187,#1188,#1189,#1190,#1191,#1192,#1193,#1194,
#1195,#1196,#1197,#1198,#1199,#1200,#1201));
#1203=STYLED_ITEM('',(#1204),#1211);
#1204=PRESENTATION_STYLE_ASSIGNMENT((#1205));
#1205=SURFACE_STYLE_USAGE(.BOTH.,#1206);
#1206=SURFACE_SIDE_STYLE('',(#1207));
#1207=SURFACE_STYLE_FILL_AREA(#1208);
#1208=FILL_AREA_STYLE('',(#1209));
#1209=FILL_AREA_STYLE_COLOUR('',#1210);
#1210=COLOUR_RGB('',0.5,0.5,0.5);
#1211=MANIFOLD_SOLID_BREP('',#1202);
#1212=SHAPE_DEFINITION_REPRESENTATION(#2072,#1213);
#1213=SHAPE_REPRESENTATION('Gray_4638507_a)_AVV',(#1214),#2067);
#1214=AXIS2_PLACEMENT_3D('',#1716,#1348,#1349);
#1215=AXIS2_PLACEMENT_3D('',#1717,#1350,#1351);
#1216=AXIS2_PLACEMENT_3D('',#1721,#1353,#1354);
#1217=AXIS2_PLACEMENT_3D('',#1726,#1357,#1358);
#1218=AXIS2_PLACEMENT_3D('',#1732,#1362,#1363);
#1219=AXIS2_PLACEMENT_3D('',#1740,#1368,#1369);
#1220=AXIS2_PLACEMENT_3D('',#1748,#1374,#1375);
#1221=AXIS2_PLACEMENT_3D('',#1749,#1376,#1377);
#1222=AXIS2_PLACEMENT_3D('',#1750,#1378,#1379);
#1223=AXIS2_PLACEMENT_3D('',#1751,#1380,#1381);
#1224=AXIS2_PLACEMENT_3D('',#1752,#1382,#1383);
#1225=AXIS2_PLACEMENT_3D('',#1754,#1384,#1385);
#1226=AXIS2_PLACEMENT_3D('',#1756,#1386,#1387);
#1227=AXIS2_PLACEMENT_3D('',#1757,#1388,#1389);
#1228=AXIS2_PLACEMENT_3D('',#1759,#1390,#1391);
#1229=AXIS2_PLACEMENT_3D('',#1760,#1392,#1393);
#1230=AXIS2_PLACEMENT_3D('',#1762,#1394,#1395);
#1231=AXIS2_PLACEMENT_3D('',#1763,#1396,#1397);
#1232=AXIS2_PLACEMENT_3D('',#1765,#1398,#1399);
#1233=AXIS2_PLACEMENT_3D('',#1766,#1400,#1401);
#1234=AXIS2_PLACEMENT_3D('',#1771,#1403,#1404);
#1235=AXIS2_PLACEMENT_3D('',#1774,#1406,#1407);
#1236=AXIS2_PLACEMENT_3D('',#1775,#1408,#1409);
#1237=AXIS2_PLACEMENT_3D('',#1779,#1411,#1412);
#1238=AXIS2_PLACEMENT_3D('',#1780,#1413,#1414);
#1239=AXIS2_PLACEMENT_3D('',#1781,#1415,#1416);
#1240=AXIS2_PLACEMENT_3D('',#1783,#1417,#1418);
#1241=AXIS2_PLACEMENT_3D('',#1786,#1420,#1421);
#1242=AXIS2_PLACEMENT_3D('',#1792,#1425,#1426);
#1243=AXIS2_PLACEMENT_3D('',#1793,#1427,#1428);
#1244=AXIS2_PLACEMENT_3D('',#1795,#1429,#1430);
#1245=AXIS2_PLACEMENT_3D('',#1798,#1432,#1433);
#1246=AXIS2_PLACEMENT_3D('',#1804,#1437,#1438);
#1247=AXIS2_PLACEMENT_3D('',#1805,#1439,#1440);
#1248=AXIS2_PLACEMENT_3D('',#1807,#1441,#1442);
#1249=AXIS2_PLACEMENT_3D('',#1810,#1444,#1445);
#1250=AXIS2_PLACEMENT_3D('',#1811,#1446,#1447);
#1251=AXIS2_PLACEMENT_3D('',#1815,#1449,#1450);
#1252=AXIS2_PLACEMENT_3D('',#1816,#1451,#1452);
#1253=AXIS2_PLACEMENT_3D('',#1817,#1453,#1454);
#1254=AXIS2_PLACEMENT_3D('',#1819,#1455,#1456);
#1255=AXIS2_PLACEMENT_3D('',#1822,#1458,#1459);
#1256=AXIS2_PLACEMENT_3D('',#1828,#1463,#1464);
#1257=AXIS2_PLACEMENT_3D('',#1829,#1465,#1466);
#1258=AXIS2_PLACEMENT_3D('',#1831,#1467,#1468);
#1259=AXIS2_PLACEMENT_3D('',#1834,#1470,#1471);
#1260=AXIS2_PLACEMENT_3D('',#1840,#1475,#1476);
#1261=AXIS2_PLACEMENT_3D('',#1841,#1477,#1478);
#1262=AXIS2_PLACEMENT_3D('',#1845,#1480,#1481);
#1263=AXIS2_PLACEMENT_3D('',#1846,#1482,#1483);
#1264=AXIS2_PLACEMENT_3D('',#1852,#1487,#1488);
#1265=AXIS2_PLACEMENT_3D('',#1853,#1489,#1490);
#1266=AXIS2_PLACEMENT_3D('',#1855,#1491,#1492);
#1267=AXIS2_PLACEMENT_3D('',#1858,#1494,#1495);
#1268=AXIS2_PLACEMENT_3D('',#1859,#1496,#1497);
#1269=AXIS2_PLACEMENT_3D('',#1863,#1499,#1500);
#1270=AXIS2_PLACEMENT_3D('',#1864,#1501,#1502);
#1271=AXIS2_PLACEMENT_3D('',#1865,#1503,#1504);
#1272=AXIS2_PLACEMENT_3D('',#1867,#1505,#1506);
#1273=AXIS2_PLACEMENT_3D('',#1870,#1508,#1509);
#1274=AXIS2_PLACEMENT_3D('',#1876,#1513,#1514);
#1275=AXIS2_PLACEMENT_3D('',#1877,#1515,#1516);
#1276=AXIS2_PLACEMENT_3D('',#1881,#1518,#1519);
#1277=AXIS2_PLACEMENT_3D('',#1882,#1520,#1521);
#1278=AXIS2_PLACEMENT_3D('',#1888,#1525,#1526);
#1279=AXIS2_PLACEMENT_3D('',#1889,#1527,#1528);
#1280=AXIS2_PLACEMENT_3D('',#1891,#1529,#1530);
#1281=AXIS2_PLACEMENT_3D('',#1894,#1532,#1533);
#1282=AXIS2_PLACEMENT_3D('',#1900,#1537,#1538);
#1283=AXIS2_PLACEMENT_3D('',#1901,#1539,#1540);
#1284=AXIS2_PLACEMENT_3D('',#1903,#1541,#1542);
#1285=AXIS2_PLACEMENT_3D('',#1906,#1544,#1545);
#1286=AXIS2_PLACEMENT_3D('',#1907,#1546,#1547);
#1287=AXIS2_PLACEMENT_3D('',#1911,#1549,#1550);
#1288=AXIS2_PLACEMENT_3D('',#1912,#1551,#1552);
#1289=AXIS2_PLACEMENT_3D('',#1913,#1553,#1554);
#1290=AXIS2_PLACEMENT_3D('',#1915,#1555,#1556);
#1291=AXIS2_PLACEMENT_3D('',#1918,#1558,#1559);
#1292=AXIS2_PLACEMENT_3D('',#1924,#1563,#1564);
#1293=AXIS2_PLACEMENT_3D('',#1925,#1565,#1566);
#1294=AXIS2_PLACEMENT_3D('',#1927,#1567,#1568);
#1295=AXIS2_PLACEMENT_3D('',#1930,#1570,#1571);
#1296=AXIS2_PLACEMENT_3D('',#1933,#1574,#1575);
#1297=AXIS2_PLACEMENT_3D('',#1942,#1580,#1581);
#1298=AXIS2_PLACEMENT_3D('',#1943,#1582,#1583);
#1299=AXIS2_PLACEMENT_3D('',#1947,#1585,#1586);
#1300=AXIS2_PLACEMENT_3D('',#1948,#1587,#1588);
#1301=AXIS2_PLACEMENT_3D('',#1949,#1589,#1590);
#1302=AXIS2_PLACEMENT_3D('',#1951,#1591,#1592);
#1303=AXIS2_PLACEMENT_3D('',#1957,#1596,#1597);
#1304=AXIS2_PLACEMENT_3D('',#1960,#1599,#1600);
#1305=AXIS2_PLACEMENT_3D('',#1961,#1601,#1602);
#1306=AXIS2_PLACEMENT_3D('',#1962,#1603,#1604);
#1307=AXIS2_PLACEMENT_3D('',#1965,#1606,#1607);
#1308=AXIS2_PLACEMENT_3D('',#1967,#1609,#1610);
#1309=AXIS2_PLACEMENT_3D('',#1968,#1611,#1612);
#1310=AXIS2_PLACEMENT_3D('',#1973,#1614,#1615);
#1311=AXIS2_PLACEMENT_3D('',#1978,#1618,#1619);
#1312=AXIS2_PLACEMENT_3D('',#1979,#1620,#1621);
#1313=AXIS2_PLACEMENT_3D('',#1985,#1625,#1626);
#1314=AXIS2_PLACEMENT_3D('',#1986,#1627,#1628);
#1315=AXIS2_PLACEMENT_3D('',#1989,#1630,#1631);
#1316=AXIS2_PLACEMENT_3D('',#1993,#1634,#1635);
#1317=AXIS2_PLACEMENT_3D('',#1994,#1636,#1637);
#1318=AXIS2_PLACEMENT_3D('',#1995,#1638,#1639);
#1319=AXIS2_PLACEMENT_3D('',#2004,#1644,#1645);
#1320=AXIS2_PLACEMENT_3D('',#2005,#1646,#1647);
#1321=AXIS2_PLACEMENT_3D('',#2007,#1648,#1649);
#1322=AXIS2_PLACEMENT_3D('',#2008,#1650,#1651);
#1323=AXIS2_PLACEMENT_3D('',#2010,#1652,#1653);
#1324=AXIS2_PLACEMENT_3D('',#2015,#1656,#1657);
#1325=AXIS2_PLACEMENT_3D('',#2016,#1658,#1659);
#1326=AXIS2_PLACEMENT_3D('',#2024,#1664,#1665);
#1327=AXIS2_PLACEMENT_3D('',#2028,#1667,#1668);
#1328=AXIS2_PLACEMENT_3D('',#2029,#1669,#1670);
#1329=AXIS2_PLACEMENT_3D('',#2030,#1671,#1672);
#1330=AXIS2_PLACEMENT_3D('',#2035,#1676,#1677);
#1331=AXIS2_PLACEMENT_3D('',#2036,#1678,#1679);
#1332=AXIS2_PLACEMENT_3D('',#2040,#1681,#1682);
#1333=AXIS2_PLACEMENT_3D('',#2044,#1684,#1685);
#1334=AXIS2_PLACEMENT_3D('',#2045,#1686,#1687);
#1335=AXIS2_PLACEMENT_3D('',#2046,#1688,#1689);
#1336=AXIS2_PLACEMENT_3D('',#2048,#1690,#1691);
#1337=AXIS2_PLACEMENT_3D('',#2049,#1692,#1693);
#1338=AXIS2_PLACEMENT_3D('',#2053,#1695,#1696);
#1339=AXIS2_PLACEMENT_3D('',#2054,#1697,#1698);
#1340=AXIS2_PLACEMENT_3D('',#2055,#1699,#1700);
#1341=AXIS2_PLACEMENT_3D('',#2057,#1701,#1702);
#1342=AXIS2_PLACEMENT_3D('',#2058,#1703,#1704);
#1343=AXIS2_PLACEMENT_3D('',#2061,#1706,#1707);
#1344=AXIS2_PLACEMENT_3D('',#2062,#1708,#1709);
#1345=AXIS2_PLACEMENT_3D('',#2063,#1710,#1711);
#1346=AXIS2_PLACEMENT_3D('',#2064,#1712,#1713);
#1347=AXIS2_PLACEMENT_3D('',#2065,#1714,#1715);
#1348=DIRECTION('',(0.,0.,1.));
#1349=DIRECTION('',(1.,0.,0.));
#1350=DIRECTION('',(-1.,0.,0.));
#1351=DIRECTION('',(0.,0.,-1.));
#1352=DIRECTION('',(0.,0.,1.));
#1353=DIRECTION('',(-1.,0.,0.));
#1354=DIRECTION('',(0.,0.,1.));
#1355=DIRECTION('',(0.,0.,1.));
#1356=DIRECTION('',(0.,-1.,0.));
#1357=DIRECTION('',(0.,0.,-1.));
#1358=DIRECTION('',(1.,0.,0.));
#1359=DIRECTION('',(-1.,0.,0.));
#1360=DIRECTION('',(0.,1.,0.));
#1361=DIRECTION('',(-1.,0.,0.));
#1362=DIRECTION('',(0.,1.,0.));
#1363=DIRECTION('',(0.,0.,-1.));
#1364=DIRECTION('',(0.,0.,1.));
#1365=DIRECTION('',(-1.,0.,0.));
#1366=DIRECTION('',(0.,0.,1.));
#1367=DIRECTION('',(-1.,0.,0.));
#1368=DIRECTION('',(0.,-1.,1.77064818049136E-16));
#1369=DIRECTION('',(0.,1.77064818049136E-16,1.));
#1370=DIRECTION('',(-1.08417350610688E-32,-1.77064818049136E-16,-1.));
#1371=DIRECTION('',(-1.,0.,0.));
#1372=DIRECTION('',(-1.08417350610688E-32,-1.77064818049136E-16,-1.));
#1373=DIRECTION('',(-1.,0.,0.));
#1374=DIRECTION('',(1.,-6.12303176911189E-17,0.));
#1375=DIRECTION('',(6.12303176911189E-17,1.,0.));
#1376=DIRECTION('',(1.,-6.12303176911189E-17,0.));
#1377=DIRECTION('',(6.12303176911189E-17,1.,0.));
#1378=DIRECTION('',(1.,-6.12303176911189E-17,0.));
#1379=DIRECTION('',(6.12303176911189E-17,1.,0.));
#1380=DIRECTION('',(0.,1.,0.));
#1381=DIRECTION('',(0.,0.,1.));
#1382=DIRECTION('',(0.,1.,0.));
#1383=DIRECTION('',(0.,0.,1.));
#1384=DIRECTION('',(0.,1.,0.));
#1385=DIRECTION('',(0.,0.,1.));
#1386=DIRECTION('',(0.,1.,0.));
#1387=DIRECTION('',(0.,0.,1.));
#1388=DIRECTION('',(0.,1.,0.));
#1389=DIRECTION('',(0.,0.,1.));
#1390=DIRECTION('',(0.,-1.,0.));
#1391=DIRECTION('',(0.,0.,-1.));
#1392=DIRECTION('',(0.,1.,0.));
#1393=DIRECTION('',(0.,0.,1.));
#1394=DIRECTION('',(0.,1.,0.));
#1395=DIRECTION('',(0.,0.,1.));
#1396=DIRECTION('',(0.,1.,0.));
#1397=DIRECTION('',(0.,0.,1.));
#1398=DIRECTION('',(0.,1.,0.));
#1399=DIRECTION('',(0.,0.,1.));
#1400=DIRECTION('',(0.,-1.,0.));
#1401=DIRECTION('',(0.,0.,-1.));
#1402=DIRECTION('',(0.,-1.,0.));
#1403=DIRECTION('',(0.,-1.,0.));
#1404=DIRECTION('',(0.,0.,-1.));
#1405=DIRECTION('',(0.,1.,0.));
#1406=DIRECTION('',(0.,1.,0.));
#1407=DIRECTION('',(0.,0.,1.));
#1408=DIRECTION('',(0.,1.,0.));
#1409=DIRECTION('',(1.,0.,0.));
#1410=DIRECTION('',(0.,1.,0.));
#1411=DIRECTION('',(0.,1.,0.));
#1412=DIRECTION('',(1.,0.,0.));
#1413=DIRECTION('',(0.,1.,0.));
#1414=DIRECTION('',(0.,0.,1.));
#1415=DIRECTION('',(0.,-1.,0.));
#1416=DIRECTION('',(0.,0.,-1.));
#1417=DIRECTION('',(0.,-1.,0.));
#1418=DIRECTION('',(0.,0.,-1.));
#1419=DIRECTION('',(0.,-1.,0.));
#1420=DIRECTION('',(0.,0.,1.));
#1421=DIRECTION('',(1.,0.,0.));
#1422=DIRECTION('',(1.,0.,0.));
#1423=DIRECTION('',(1.,0.,0.));
#1424=DIRECTION('',(0.,1.,0.));
#1425=DIRECTION('',(0.,1.,0.));
#1426=DIRECTION('',(0.,0.,1.));
#1427=DIRECTION('',(0.,-1.,0.));
#1428=DIRECTION('',(0.,0.,-1.));
#1429=DIRECTION('',(0.,-1.,0.));
#1430=DIRECTION('',(0.,0.,-1.));
#1431=DIRECTION('',(0.,1.,0.));
#1432=DIRECTION('',(-1.,0.,0.));
#1433=DIRECTION('',(0.,0.,1.));
#1434=DIRECTION('',(0.,0.,1.));
#1435=DIRECTION('',(0.,-1.,0.));
#1436=DIRECTION('',(0.,0.,1.));
#1437=DIRECTION('',(0.,1.,0.));
#1438=DIRECTION('',(0.,0.,1.));
#1439=DIRECTION('',(0.,-1.,0.));
#1440=DIRECTION('',(0.,0.,-1.));
#1441=DIRECTION('',(0.,-1.,0.));
#1442=DIRECTION('',(0.,0.,-1.));
#1443=DIRECTION('',(0.,1.,0.));
#1444=DIRECTION('',(0.,1.,0.));
#1445=DIRECTION('',(0.,0.,1.));
#1446=DIRECTION('',(0.,1.,0.));
#1447=DIRECTION('',(1.,0.,0.));
#1448=DIRECTION('',(0.,1.,0.));
#1449=DIRECTION('',(0.,1.,0.));
#1450=DIRECTION('',(1.,0.,0.));
#1451=DIRECTION('',(0.,1.,0.));
#1452=DIRECTION('',(0.,0.,1.));
#1453=DIRECTION('',(0.,-1.,0.));
#1454=DIRECTION('',(0.,0.,-1.));
#1455=DIRECTION('',(0.,-1.,0.));
#1456=DIRECTION('',(0.,0.,-1.));
#1457=DIRECTION('',(0.,-1.,0.));
#1458=DIRECTION('',(1.,0.,3.27341015326068E-16));
#1459=DIRECTION('',(3.27341015326068E-16,0.,-1.));
#1460=DIRECTION('',(3.27341015326068E-16,0.,-1.));
#1461=DIRECTION('',(3.27341015326068E-16,0.,-1.));
#1462=DIRECTION('',(0.,1.,0.));
#1463=DIRECTION('',(0.,1.,0.));
#1464=DIRECTION('',(0.,0.,1.));
#1465=DIRECTION('',(0.,-1.,0.));
#1466=DIRECTION('',(0.,0.,-1.));
#1467=DIRECTION('',(0.,-1.,0.));
#1468=DIRECTION('',(0.,0.,-1.));
#1469=DIRECTION('',(0.,1.,0.));
#1470=DIRECTION('',(0.,0.,1.));
#1471=DIRECTION('',(1.,0.,0.));
#1472=DIRECTION('',(1.,0.,0.));
#1473=DIRECTION('',(1.,0.,0.));
#1474=DIRECTION('',(0.,1.,0.));
#1475=DIRECTION('',(0.,1.,0.));
#1476=DIRECTION('',(0.,0.,1.));
#1477=DIRECTION('',(0.,-1.,0.));
#1478=DIRECTION('',(1.,0.,0.));
#1479=DIRECTION('',(0.,1.,0.));
#1480=DIRECTION('',(0.,-1.,0.));
#1481=DIRECTION('',(1.,0.,0.));
#1482=DIRECTION('',(0.,0.,1.));
#1483=DIRECTION('',(1.,0.,0.));
#1484=DIRECTION('',(1.,0.,0.));
#1485=DIRECTION('',(0.,-1.,0.));
#1486=DIRECTION('',(1.,0.,0.));
#1487=DIRECTION('',(0.,1.,0.));
#1488=DIRECTION('',(0.,0.,1.));
#1489=DIRECTION('',(0.,-1.,0.));
#1490=DIRECTION('',(0.,0.,-1.));
#1491=DIRECTION('',(0.,-1.,0.));
#1492=DIRECTION('',(0.,0.,-1.));
#1493=DIRECTION('',(0.,1.,0.));
#1494=DIRECTION('',(0.,1.,0.));
#1495=DIRECTION('',(0.,0.,1.));
#1496=DIRECTION('',(0.,-1.,0.));
#1497=DIRECTION('',(1.,0.,0.));
#1498=DIRECTION('',(0.,1.,0.));
#1499=DIRECTION('',(0.,-1.,0.));
#1500=DIRECTION('',(1.,0.,0.));
#1501=DIRECTION('',(0.,1.,0.));
#1502=DIRECTION('',(0.,0.,1.));
#1503=DIRECTION('',(0.,-1.,0.));
#1504=DIRECTION('',(0.,0.,-1.));
#1505=DIRECTION('',(0.,-1.,0.));
#1506=DIRECTION('',(0.,0.,-1.));
#1507=DIRECTION('',(0.,-1.,0.));
#1508=DIRECTION('',(0.,0.,-1.));
#1509=DIRECTION('',(-1.,0.,0.));
#1510=DIRECTION('',(-1.,0.,0.));
#1511=DIRECTION('',(-1.,0.,0.));
#1512=DIRECTION('',(0.,1.,0.));
#1513=DIRECTION('',(0.,1.,0.));
#1514=DIRECTION('',(0.,0.,1.));
#1515=DIRECTION('',(0.,-1.,0.));
#1516=DIRECTION('',(1.,0.,0.));
#1517=DIRECTION('',(0.,1.,0.));
#1518=DIRECTION('',(0.,-1.,0.));
#1519=DIRECTION('',(1.,0.,0.));
#1520=DIRECTION('',(0.,0.,-1.));
#1521=DIRECTION('',(-1.,0.,0.));
#1522=DIRECTION('',(-1.,0.,0.));
#1523=DIRECTION('',(0.,1.,0.));
#1524=DIRECTION('',(-1.,0.,0.));
#1525=DIRECTION('',(0.,1.,0.));
#1526=DIRECTION('',(0.,0.,1.));
#1527=DIRECTION('',(0.,-1.,0.));
#1528=DIRECTION('',(0.,0.,-1.));
#1529=DIRECTION('',(0.,-1.,0.));
#1530=DIRECTION('',(0.,0.,-1.));
#1531=DIRECTION('',(0.,1.,0.));
#1532=DIRECTION('',(1.,0.,3.27341015326068E-16));
#1533=DIRECTION('',(3.27341015326068E-16,0.,-1.));
#1534=DIRECTION('',(3.27341015326068E-16,0.,-1.));
#1535=DIRECTION('',(0.,-1.,0.));
#1536=DIRECTION('',(3.27341015326068E-16,0.,-1.));
#1537=DIRECTION('',(0.,1.,0.));
#1538=DIRECTION('',(0.,0.,1.));
#1539=DIRECTION('',(0.,-1.,0.));
#1540=DIRECTION('',(0.,0.,-1.));
#1541=DIRECTION('',(0.,-1.,0.));
#1542=DIRECTION('',(0.,0.,-1.));
#1543=DIRECTION('',(0.,1.,0.));
#1544=DIRECTION('',(0.,1.,0.));
#1545=DIRECTION('',(0.,0.,1.));
#1546=DIRECTION('',(0.,1.,0.));
#1547=DIRECTION('',(1.,0.,0.));
#1548=DIRECTION('',(0.,1.,0.));
#1549=DIRECTION('',(0.,1.,0.));
#1550=DIRECTION('',(1.,0.,0.));
#1551=DIRECTION('',(0.,1.,0.));
#1552=DIRECTION('',(0.,0.,1.));
#1553=DIRECTION('',(0.,-1.,0.));
#1554=DIRECTION('',(0.,0.,-1.));
#1555=DIRECTION('',(0.,-1.,0.));
#1556=DIRECTION('',(0.,0.,-1.));
#1557=DIRECTION('',(0.,-1.,0.));
#1558=DIRECTION('',(-1.,0.,0.));
#1559=DIRECTION('',(0.,0.,1.));
#1560=DIRECTION('',(0.,0.,1.));
#1561=DIRECTION('',(0.,0.,1.));
#1562=DIRECTION('',(0.,1.,0.));
#1563=DIRECTION('',(0.,1.,0.));
#1564=DIRECTION('',(0.,0.,1.));
#1565=DIRECTION('',(0.,-1.,0.));
#1566=DIRECTION('',(0.,0.,-1.));
#1567=DIRECTION('',(0.,-1.,0.));
#1568=DIRECTION('',(0.,0.,-1.));
#1569=DIRECTION('',(0.,1.,0.));
#1570=DIRECTION('',(0.,0.,-1.));
#1571=DIRECTION('',(-1.,0.,0.));
#1572=DIRECTION('',(-1.,0.,0.));
#1573=DIRECTION('',(-1.,0.,0.));
#1574=DIRECTION('',(0.,0.,1.));
#1575=DIRECTION('',(1.,0.,0.));
#1576=DIRECTION('',(1.,0.,0.));
#1577=DIRECTION('',(0.,1.,0.));
#1578=DIRECTION('',(1.,0.,0.));
#1579=DIRECTION('',(0.,1.,0.));
#1580=DIRECTION('',(0.,1.,0.));
#1581=DIRECTION('',(0.,0.,1.));
#1582=DIRECTION('',(0.,-1.,0.));
#1583=DIRECTION('',(-1.,0.,0.));
#1584=DIRECTION('',(0.,1.,0.));
#1585=DIRECTION('',(0.,-1.,0.));
#1586=DIRECTION('',(-1.,0.,0.));
#1587=DIRECTION('',(0.,1.,0.));
#1588=DIRECTION('',(0.,0.,1.));
#1589=DIRECTION('',(0.,1.,0.));
#1590=DIRECTION('',(0.,0.,1.));
#1591=DIRECTION('',(-4.33680868994202E-16,0.,-1.));
#1592=DIRECTION('',(-1.,0.,4.33680868994202E-16));
#1593=DIRECTION('',(0.,1.,-2.1262953977628E-16));
#1594=DIRECTION('',(-1.,0.,4.33680868994202E-16));
#1595=DIRECTION('',(-1.,0.,4.33680868994202E-16));
#1596=DIRECTION('',(0.,-1.,0.));
#1597=DIRECTION('',(0.,0.,-1.));
#1598=DIRECTION('',(-1.,0.,4.33680868994202E-16));
#1599=DIRECTION('',(0.,-1.,0.));
#1600=DIRECTION('',(1.,0.,0.));
#1601=DIRECTION('',(0.,1.,0.));
#1602=DIRECTION('',(0.,0.,1.));
#1603=DIRECTION('',(0.,-1.,0.));
#1604=DIRECTION('',(1.,0.,0.));
#1605=DIRECTION('',(0.,1.,0.));
#1606=DIRECTION('',(0.,-1.,0.));
#1607=DIRECTION('',(0.,0.,-1.));
#1608=DIRECTION('',(-1.,0.,4.33680868994202E-16));
#1609=DIRECTION('',(-1.,0.,0.));
#1610=DIRECTION('',(0.,0.,1.));
#1611=DIRECTION('',(-1.,0.,0.));
#1612=DIRECTION('',(0.,0.,1.));
#1613=DIRECTION('',(0.,1.,-2.1262953977628E-16));
#1614=DIRECTION('',(-1.,0.,0.));
#1615=DIRECTION('',(0.,0.,1.));
#1616=DIRECTION('',(0.,1.,-2.1262953977628E-16));
#1617=DIRECTION('',(0.,1.,-2.1262953977628E-16));
#1618=DIRECTION('',(-1.,0.,0.));
#1619=DIRECTION('',(0.,0.,1.));
#1620=DIRECTION('',(0.,-2.1262953977628E-16,-1.));
#1621=DIRECTION('',(0.,1.,-2.1262953977628E-16));
#1622=DIRECTION('',(1.,0.,0.));
#1623=DIRECTION('',(0.,1.,-2.1262953977628E-16));
#1624=DIRECTION('',(1.,0.,0.));
#1625=DIRECTION('',(-1.,0.,0.));
#1626=DIRECTION('',(0.,0.,1.));
#1627=DIRECTION('',(-1.,0.,0.));
#1628=DIRECTION('',(0.,0.,1.));
#1629=DIRECTION('',(1.,0.,0.));
#1630=DIRECTION('',(0.,-2.1262953977628E-16,-1.));
#1631=DIRECTION('',(0.,1.,-2.1262953977628E-16));
#1632=DIRECTION('',(0.,1.,-2.1262953977628E-16));
#1633=DIRECTION('',(1.,0.,0.));
#1634=DIRECTION('',(-1.,0.,0.));
#1635=DIRECTION('',(0.,0.,1.));
#1636=DIRECTION('',(-1.,0.,0.));
#1637=DIRECTION('',(0.,0.,1.));
#1638=DIRECTION('',(0.,0.,1.));
#1639=DIRECTION('',(1.,0.,0.));
#1640=DIRECTION('',(-1.,0.,0.));
#1641=DIRECTION('',(0.,-1.,0.));
#1642=DIRECTION('',(-1.,0.,0.));
#1643=DIRECTION('',(6.12303176911189E-17,1.,0.));
#1644=DIRECTION('',(-1.,0.,0.));
#1645=DIRECTION('',(0.,0.,1.));
#1646=DIRECTION('',(-1.,0.,0.));
#1647=DIRECTION('',(0.,0.,1.));
#1648=DIRECTION('',(-1.,0.,0.));
#1649=DIRECTION('',(0.,0.,1.));
#1650=DIRECTION('',(-1.,0.,0.));
#1651=DIRECTION('',(0.,0.,1.));
#1652=DIRECTION('',(-1.,0.,0.));
#1653=DIRECTION('',(0.,0.,1.));
#1654=DIRECTION('',(0.,0.,-1.));
#1655=DIRECTION('',(0.,0.,-1.));
#1656=DIRECTION('',(-1.,0.,0.));
#1657=DIRECTION('',(0.,0.,1.));
#1658=DIRECTION('',(0.,1.,0.));
#1659=DIRECTION('',(0.,0.,1.));
#1660=DIRECTION('',(0.,0.,-1.));
#1661=DIRECTION('',(-1.,0.,0.));
#1662=DIRECTION('',(0.,0.,-1.));
#1663=DIRECTION('',(-1.,0.,0.));
#1664=DIRECTION('',(1.,-6.12303176911189E-17,0.));
#1665=DIRECTION('',(6.12303176911189E-17,1.,0.));
#1666=DIRECTION('',(-1.08417350610688E-32,-1.77064818049136E-16,1.));
#1667=DIRECTION('',(1.,0.,0.));
#1668=DIRECTION('',(0.,0.,-1.));
#1669=DIRECTION('',(1.,-6.12303176911189E-17,0.));
#1670=DIRECTION('',(6.12303176911189E-17,1.,0.));
#1671=DIRECTION('',(0.,-1.,-1.77064818049136E-16));
#1672=DIRECTION('',(0.,1.77064818049136E-16,-1.));
#1673=DIRECTION('',(-1.,0.,0.));
#1674=DIRECTION('',(-1.,0.,0.));
#1675=DIRECTION('',(-1.08417350610688E-32,-1.77064818049136E-16,1.));
#1676=DIRECTION('',(1.,0.,0.));
#1677=DIRECTION('',(0.,0.,-1.));
#1678=DIRECTION('',(1.,0.,0.));
#1679=DIRECTION('',(0.,0.,-1.));
#1680=DIRECTION('',(0.,0.,-1.));
#1681=DIRECTION('',(1.,0.,0.));
#1682=DIRECTION('',(0.,0.,-1.));
#1683=DIRECTION('',(0.,0.,-1.));
#1684=DIRECTION('',(1.,0.,0.));
#1685=DIRECTION('',(0.,0.,-1.));
#1686=DIRECTION('',(1.,0.,0.));
#1687=DIRECTION('',(0.,0.,-1.));
#1688=DIRECTION('',(-1.,0.,0.));
#1689=DIRECTION('',(0.,0.,1.));
#1690=DIRECTION('',(0.410364677328798,0.911921505175107,0.));
#1691=DIRECTION('',(-0.911921505175107,0.410364677328798,0.));
#1692=DIRECTION('',(0.410364677328798,0.911921505175107,0.));
#1693=DIRECTION('',(-0.911921505175107,0.410364677328798,0.));
#1694=DIRECTION('',(0.,0.,-1.));
#1695=DIRECTION('',(0.410364677328798,0.911921505175107,0.));
#1696=DIRECTION('',(-0.911921505175107,0.410364677328798,0.));
#1697=DIRECTION('',(-1.,0.,0.));
#1698=DIRECTION('',(0.,0.,1.));
#1699=DIRECTION('',(1.,0.,0.));
#1700=DIRECTION('',(0.,0.,-1.));
#1701=DIRECTION('',(0.410364677328798,-0.911921505175106,0.));
#1702=DIRECTION('',(-0.911921505175107,-0.410364677328798,0.));
#1703=DIRECTION('',(0.410364677328798,-0.911921505175106,0.));
#1704=DIRECTION('',(0.911921505175107,0.410364677328798,0.));
#1705=DIRECTION('',(0.,0.,-1.));
#1706=DIRECTION('',(0.410364677328798,-0.911921505175106,0.));
#1707=DIRECTION('',(-0.911921505175107,-0.410364677328798,0.));
#1708=DIRECTION('',(-1.,0.,0.));
#1709=DIRECTION('',(0.,0.,1.));
#1710=DIRECTION('',(1.,0.,0.));
#1711=DIRECTION('',(0.,0.,-1.));
#1712=DIRECTION('',(1.,0.,0.));
#1713=DIRECTION('',(0.,0.,-1.));
#1714=DIRECTION('',(1.,0.,0.));
#1715=DIRECTION('',(0.,0.,-1.));
#1716=CARTESIAN_POINT('',(0.,0.,0.));
#1717=CARTESIAN_POINT('',(-20.8,-0.4,-8.));
#1718=CARTESIAN_POINT('',(-20.8,-0.4,-8.));
#1719=CARTESIAN_POINT('',(-20.8,-0.4,-7.58946638440411));
#1720=CARTESIAN_POINT('',(-20.8,-0.4,-7.10000000000002));
#1721=CARTESIAN_POINT('',(-20.8,0.,0.));
#1722=CARTESIAN_POINT('',(-20.8,0.4,-7.58946638440411));
#1723=CARTESIAN_POINT('',(-20.8,0.4,-8.));
#1724=CARTESIAN_POINT('',(-20.8,0.4,-7.10000000000002));
#1725=CARTESIAN_POINT('',(-20.8,0.,-7.10000000000002));
#1726=CARTESIAN_POINT('',(-20.,0.,-7.10000000000002));
#1727=CARTESIAN_POINT('',(-20.,0.4,-7.10000000000002));
#1728=CARTESIAN_POINT('',(-24.,0.4,-7.10000000000002));
#1729=CARTESIAN_POINT('',(-24.,-8.67361737988404E-16,-7.10000000000002));
#1730=CARTESIAN_POINT('',(-24.,-0.4,-7.10000000000002));
#1731=CARTESIAN_POINT('',(-20.,-0.4,-7.10000000000002));
#1732=CARTESIAN_POINT('',(-20.,0.4,-7.10000000000002));
#1733=CARTESIAN_POINT('',(-20.,0.4,-7.10000000000002));
#1734=CARTESIAN_POINT('',(-20.,0.4,-7.58946638440411));
#1735=CARTESIAN_POINT('',(-20.,0.4,-6.48768063332344));
#1736=CARTESIAN_POINT('',(-20.,0.4,-6.48768063332344));
#1737=CARTESIAN_POINT('',(-24.,0.4,-6.48768063332344));
#1738=CARTESIAN_POINT('',(-24.,0.4,-7.10000000000002));
#1739=CARTESIAN_POINT('',(-64.,0.4,-7.58946638440411));
#1740=CARTESIAN_POINT('',(-20.,-0.4,-7.10000000000002));
#1741=CARTESIAN_POINT('',(-24.,-0.4,-7.10000000000002));
#1742=CARTESIAN_POINT('',(-24.,-0.4,-6.48768063332344));
#1743=CARTESIAN_POINT('',(-20.,-0.4,-6.48768063332344));
#1744=CARTESIAN_POINT('',(-20.,-0.4,-6.48768063332344));
#1745=CARTESIAN_POINT('',(-20.,-0.4,-7.10000000000002));
#1746=CARTESIAN_POINT('',(-20.,-0.4,-7.58946638440411));
#1747=CARTESIAN_POINT('',(-64.,-0.4,-7.58946638440411));
#1748=CARTESIAN_POINT('',(-20.,0.,0.));
#1749=CARTESIAN_POINT('',(-20.,0.,0.));
#1750=CARTESIAN_POINT('',(-20.,0.,0.));
#1751=CARTESIAN_POINT('',(4.,-4.,-8.));
#1752=CARTESIAN_POINT('',(4.,-3.2,-8.));
#1753=CARTESIAN_POINT('',(4.,-3.2,-5.6));
#1754=CARTESIAN_POINT('',(4.,3.2,-8.));
#1755=CARTESIAN_POINT('',(4.,3.2,-5.6));
#1756=CARTESIAN_POINT('',(6.4,-3.2,-8.));
#1757=CARTESIAN_POINT('',(4.,-3.2,-8.));
#1758=CARTESIAN_POINT('',(4.,-3.2,-4.9));
#1759=CARTESIAN_POINT('',(7.1,3.2,-8.));
#1760=CARTESIAN_POINT('',(4.,3.2,-8.));
#1761=CARTESIAN_POINT('',(4.,3.2,-4.9));
#1762=CARTESIAN_POINT('',(4.,-4.,-8.));
#1763=CARTESIAN_POINT('',(4.,-4.,-8.));
#1764=CARTESIAN_POINT('',(4.,-4.,-4.9));
#1765=CARTESIAN_POINT('',(-6.15638586528478,-4.,-8.8));
#1766=CARTESIAN_POINT('',(-6.15638586528478,-4.,-8.8));
#1767=CARTESIAN_POINT('',(-6.15638586528478,-4.,-8.9));
#1768=CARTESIAN_POINT('',(-6.25014177247108,-4.,-8.83478260869565));
#1769=CARTESIAN_POINT('',(-6.15638586528478,-4.,-8.9));
#1770=CARTESIAN_POINT('',(-6.15638586528478,4.,-8.9));
#1771=CARTESIAN_POINT('',(-6.15638586528478,4.,-8.8));
#1772=CARTESIAN_POINT('',(-6.25014177247108,4.,-8.83478260869565));
#1773=CARTESIAN_POINT('',(-6.25014177247108,-4.,-8.83478260869565));
#1774=CARTESIAN_POINT('',(-4.,-4.,-8.));
#1775=CARTESIAN_POINT('',(-4.,4.,-8.));
#1776=CARTESIAN_POINT('',(-6.25014177247108,4.,-7.16521739130435));
#1777=CARTESIAN_POINT('',(-6.25014177247108,-4.,-7.16521739130435));
#1778=CARTESIAN_POINT('',(-6.25014177247108,-4.,-7.16521739130435));
#1779=CARTESIAN_POINT('',(-4.,-4.,-8.));
#1780=CARTESIAN_POINT('',(-6.15638586528478,-4.,-7.2));
#1781=CARTESIAN_POINT('',(-6.15638586528478,-4.,-7.2));
#1782=CARTESIAN_POINT('',(-6.15638586528478,-4.,-7.1));
#1783=CARTESIAN_POINT('',(-6.15638586528478,4.,-7.2));
#1784=CARTESIAN_POINT('',(-6.15638586528478,4.,-7.1));
#1785=CARTESIAN_POINT('',(-6.15638586528478,4.,-7.1));
#1786=CARTESIAN_POINT('',(-4.9,-4.,-7.1));
#1787=CARTESIAN_POINT('',(-4.9,-4.,-7.1));
#1788=CARTESIAN_POINT('',(-5.4,-4.,-7.1));
#1789=CARTESIAN_POINT('',(-4.9,4.,-7.1));
#1790=CARTESIAN_POINT('',(-5.4,4.,-7.1));
#1791=CARTESIAN_POINT('',(-5.4,-4.,-7.1));
#1792=CARTESIAN_POINT('',(-5.4,-4.,-6.6));
#1793=CARTESIAN_POINT('',(-5.4,-4.,-6.6));
#1794=CARTESIAN_POINT('',(-4.9,-4.,-6.6));
#1795=CARTESIAN_POINT('',(-5.4,4.,-6.6));
#1796=CARTESIAN_POINT('',(-4.9,4.,-6.6));
#1797=CARTESIAN_POINT('',(-4.9,-4.,-6.6));
#1798=CARTESIAN_POINT('',(-4.9,-4.,-7.1));
#1799=CARTESIAN_POINT('',(-4.9,4.,-7.1));
#1800=CARTESIAN_POINT('',(-4.9,4.,-5.84361413471522));
#1801=CARTESIAN_POINT('',(-4.9,-4.,-5.84361413471522));
#1802=CARTESIAN_POINT('',(-4.9,-4.,-5.84361413471522));
#1803=CARTESIAN_POINT('',(-4.9,-4.,-7.1));
#1804=CARTESIAN_POINT('',(-4.8,-4.,-5.84361413471522));
#1805=CARTESIAN_POINT('',(-4.8,-4.,-5.84361413471522));
#1806=CARTESIAN_POINT('',(-4.83478260869565,-4.,-5.74985822752892));
#1807=CARTESIAN_POINT('',(-4.8,4.,-5.84361413471522));
#1808=CARTESIAN_POINT('',(-4.83478260869565,4.,-5.74985822752892));
#1809=CARTESIAN_POINT('',(-4.83478260869565,-4.,-5.74985822752892));
#1810=CARTESIAN_POINT('',(-4.,-4.,-8.));
#1811=CARTESIAN_POINT('',(-4.,4.,-8.));
#1812=CARTESIAN_POINT('',(-3.16521739130435,4.,-5.74985822752892));
#1813=CARTESIAN_POINT('',(-3.16521739130435,-4.,-5.74985822752892));
#1814=CARTESIAN_POINT('',(-3.16521739130435,-4.,-5.74985822752892));
#1815=CARTESIAN_POINT('',(-4.,-4.,-8.));
#1816=CARTESIAN_POINT('',(-3.2,-4.,-5.84361413471522));
#1817=CARTESIAN_POINT('',(-3.2,-4.,-5.84361413471522));
#1818=CARTESIAN_POINT('',(-3.1,-4.,-5.84361413471522));
#1819=CARTESIAN_POINT('',(-3.2,4.,-5.84361413471522));
#1820=CARTESIAN_POINT('',(-3.1,4.,-5.84361413471522));
#1821=CARTESIAN_POINT('',(-3.1,4.,-5.84361413471522));
#1822=CARTESIAN_POINT('',(-3.1,-4.,-5.7751404538713));
#1823=CARTESIAN_POINT('',(-3.1,-4.,-5.7751404538713));
#1824=CARTESIAN_POINT('',(-3.1,-4.,-6.6));
#1825=CARTESIAN_POINT('',(-3.1,4.,-5.7751404538713));
#1826=CARTESIAN_POINT('',(-3.1,4.,-6.6));
#1827=CARTESIAN_POINT('',(-3.1,-4.,-6.6));
#1828=CARTESIAN_POINT('',(-2.6,-4.,-6.6));
#1829=CARTESIAN_POINT('',(-2.6,-4.,-6.6));
#1830=CARTESIAN_POINT('',(-2.6,-4.,-7.1));
#1831=CARTESIAN_POINT('',(-2.6,4.,-6.6));
#1832=CARTESIAN_POINT('',(-2.6,4.,-7.1));
#1833=CARTESIAN_POINT('',(-2.6,-4.,-7.1));
#1834=CARTESIAN_POINT('',(-1.7751404538713,-4.,-7.1));
#1835=CARTESIAN_POINT('',(-1.7751404538713,-4.,-7.1));
#1836=CARTESIAN_POINT('',(-0.514314988413324,-4.,-7.1));
#1837=CARTESIAN_POINT('',(-1.7751404538713,4.,-7.1));
#1838=CARTESIAN_POINT('',(-0.514314988413324,4.,-7.1));
#1839=CARTESIAN_POINT('',(-0.514314988413324,-4.,-7.1));
#1840=CARTESIAN_POINT('',(-4.,-4.,-8.));
#1841=CARTESIAN_POINT('',(-4.,4.,-8.));
#1842=CARTESIAN_POINT('',(-1.73725830020305,4.,-5.2));
#1843=CARTESIAN_POINT('',(-1.73725830020305,-4.,-5.2));
#1844=CARTESIAN_POINT('',(-1.73725830020305,-4.,-5.2));
#1845=CARTESIAN_POINT('',(-4.,-4.,-8.));
#1846=CARTESIAN_POINT('',(-1.73725830020305,-4.,-5.2));
#1847=CARTESIAN_POINT('',(-1.73725830020305,4.,-5.2));
#1848=CARTESIAN_POINT('',(0.605887450304573,4.,-5.2));
#1849=CARTESIAN_POINT('',(0.605887450304573,-4.,-5.2));
#1850=CARTESIAN_POINT('',(0.605887450304573,-4.,-5.2));
#1851=CARTESIAN_POINT('',(-1.73725830020305,-4.,-5.2));
#1852=CARTESIAN_POINT('',(0.605887450304573,-4.,-5.7));
#1853=CARTESIAN_POINT('',(0.605887450304573,-4.,-5.7));
#1854=CARTESIAN_POINT('',(1.01980361490158,-4.,-5.98048780487805));
#1855=CARTESIAN_POINT('',(0.605887450304573,4.,-5.7));
#1856=CARTESIAN_POINT('',(1.01980361490158,4.,-5.98048780487805));
#1857=CARTESIAN_POINT('',(1.01980361490158,-4.,-5.98048780487805));
#1858=CARTESIAN_POINT('',(4.,-4.,-8.));
#1859=CARTESIAN_POINT('',(4.,4.,-8.));
#1860=CARTESIAN_POINT('',(1.01980361490158,4.,-10.0195121951219));
#1861=CARTESIAN_POINT('',(1.01980361490158,-4.,-10.0195121951219));
#1862=CARTESIAN_POINT('',(1.01980361490158,-4.,-10.0195121951219));
#1863=CARTESIAN_POINT('',(4.,-4.,-8.));
#1864=CARTESIAN_POINT('',(0.605887450304572,-4.,-10.3));
#1865=CARTESIAN_POINT('',(0.605887450304572,-4.,-10.3));
#1866=CARTESIAN_POINT('',(0.605887450304572,-4.,-10.8));
#1867=CARTESIAN_POINT('',(0.605887450304572,4.,-10.3));
#1868=CARTESIAN_POINT('',(0.605887450304572,4.,-10.8));
#1869=CARTESIAN_POINT('',(0.605887450304572,4.,-10.8));
#1870=CARTESIAN_POINT('',(-1.73725830020304,-4.,-10.8));
#1871=CARTESIAN_POINT('',(-1.73725830020304,-4.,-10.8));
#1872=CARTESIAN_POINT('',(-1.73725830020304,-4.,-10.8));
#1873=CARTESIAN_POINT('',(-1.73725830020304,4.,-10.8));
#1874=CARTESIAN_POINT('',(-1.73725830020304,4.,-10.8));
#1875=CARTESIAN_POINT('',(-1.73725830020304,-4.,-10.8));
#1876=CARTESIAN_POINT('',(-4.,-4.,-8.));
#1877=CARTESIAN_POINT('',(-4.,4.,-8.));
#1878=CARTESIAN_POINT('',(-0.514314988413324,4.,-8.9));
#1879=CARTESIAN_POINT('',(-0.514314988413324,-4.,-8.9));
#1880=CARTESIAN_POINT('',(-0.514314988413324,-4.,-8.9));
#1881=CARTESIAN_POINT('',(-4.,-4.,-8.));
#1882=CARTESIAN_POINT('',(-1.7751404538713,-4.,-8.9));
#1883=CARTESIAN_POINT('',(-1.7751404538713,4.,-8.9));
#1884=CARTESIAN_POINT('',(-2.6,4.,-8.9));
#1885=CARTESIAN_POINT('',(-2.6,-4.,-8.9));
#1886=CARTESIAN_POINT('',(-2.6,-4.,-8.9));
#1887=CARTESIAN_POINT('',(-3.1,-4.,-8.9));
#1888=CARTESIAN_POINT('',(-2.6,-4.,-9.4));
#1889=CARTESIAN_POINT('',(-2.6,-4.,-9.4));
#1890=CARTESIAN_POINT('',(-3.1,-4.,-9.4));
#1891=CARTESIAN_POINT('',(-2.6,4.,-9.4));
#1892=CARTESIAN_POINT('',(-3.1,4.,-9.4));
#1893=CARTESIAN_POINT('',(-3.1,-4.,-9.4));
#1894=CARTESIAN_POINT('',(-3.1,-4.,-8.9));
#1895=CARTESIAN_POINT('',(-3.1,4.,-8.9));
#1896=CARTESIAN_POINT('',(-3.1,4.,-10.1563858652848));
#1897=CARTESIAN_POINT('',(-3.1,-4.,-10.1563858652848));
#1898=CARTESIAN_POINT('',(-3.1,-4.,-10.1563858652848));
#1899=CARTESIAN_POINT('',(-3.1,-4.,-8.9));
#1900=CARTESIAN_POINT('',(-3.2,-4.,-10.1563858652848));
#1901=CARTESIAN_POINT('',(-3.2,-4.,-10.1563858652848));
#1902=CARTESIAN_POINT('',(-3.16521739130435,-4.,-10.2501417724711));
#1903=CARTESIAN_POINT('',(-3.2,4.,-10.1563858652848));
#1904=CARTESIAN_POINT('',(-3.16521739130435,4.,-10.2501417724711));
#1905=CARTESIAN_POINT('',(-3.16521739130435,-4.,-10.2501417724711));
#1906=CARTESIAN_POINT('',(-4.,-4.,-8.));
#1907=CARTESIAN_POINT('',(-4.,4.,-8.));
#1908=CARTESIAN_POINT('',(-4.83478260869565,4.,-10.2501417724711));
#1909=CARTESIAN_POINT('',(-4.83478260869565,-4.,-10.2501417724711));
#1910=CARTESIAN_POINT('',(-4.83478260869565,-4.,-10.2501417724711));
#1911=CARTESIAN_POINT('',(-4.,-4.,-8.));
#1912=CARTESIAN_POINT('',(-4.8,-4.,-10.1563858652848));
#1913=CARTESIAN_POINT('',(-4.8,-4.,-10.1563858652848));
#1914=CARTESIAN_POINT('',(-4.9,-4.,-10.1563858652848));
#1915=CARTESIAN_POINT('',(-4.8,4.,-10.1563858652848));
#1916=CARTESIAN_POINT('',(-4.9,4.,-10.1563858652848));
#1917=CARTESIAN_POINT('',(-4.9,4.,-10.1563858652848));
#1918=CARTESIAN_POINT('',(-4.9,-4.,-10.2248595461287));
#1919=CARTESIAN_POINT('',(-4.9,-4.,-10.2248595461287));
#1920=CARTESIAN_POINT('',(-4.9,-4.,-9.4));
#1921=CARTESIAN_POINT('',(-4.9,4.,-10.2248595461287));
#1922=CARTESIAN_POINT('',(-4.9,4.,-9.4));
#1923=CARTESIAN_POINT('',(-4.9,-4.,-9.4));
#1924=CARTESIAN_POINT('',(-5.4,-4.,-9.4));
#1925=CARTESIAN_POINT('',(-5.4,-4.,-9.4));
#1926=CARTESIAN_POINT('',(-5.4,-4.,-8.9));
#1927=CARTESIAN_POINT('',(-5.4,4.,-9.4));
#1928=CARTESIAN_POINT('',(-5.4,4.,-8.9));
#1929=CARTESIAN_POINT('',(-5.4,-4.,-8.9));
#1930=CARTESIAN_POINT('',(-6.2248595461287,-4.,-8.9));
#1931=CARTESIAN_POINT('',(-6.2248595461287,4.,-8.9));
#1932=CARTESIAN_POINT('',(-6.2248595461287,-4.,-8.9));
#1933=CARTESIAN_POINT('',(-4.,-4.,-11.6));
#1934=CARTESIAN_POINT('',(-4.,4.,-11.6));
#1935=CARTESIAN_POINT('',(-4.,4.,-11.6));
#1936=CARTESIAN_POINT('',(4.,4.,-11.6));
#1937=CARTESIAN_POINT('',(4.,-4.,-11.6));
#1938=CARTESIAN_POINT('',(4.,-4.,-11.6));
#1939=CARTESIAN_POINT('',(-4.,-4.,-11.6));
#1940=CARTESIAN_POINT('',(-4.,-4.,-11.6));
#1941=CARTESIAN_POINT('',(-4.,-4.,-11.6));
#1942=CARTESIAN_POINT('',(4.,-4.,-8.));
#1943=CARTESIAN_POINT('',(4.,4.,-8.));
#1944=CARTESIAN_POINT('',(4.,4.,-4.4));
#1945=CARTESIAN_POINT('',(4.,-4.,-4.4));
#1946=CARTESIAN_POINT('',(4.,-4.,-4.4));
#1947=CARTESIAN_POINT('',(4.,-4.,-8.));
#1948=CARTESIAN_POINT('',(4.,-4.,-8.));
#1949=CARTESIAN_POINT('',(4.,4.,-8.));
#1950=CARTESIAN_POINT('',(4.,4.,-4.9));
#1951=CARTESIAN_POINT('',(0.,-4.,-4.4));
#1952=CARTESIAN_POINT('',(-5.74923612948856E-16,5.42101086242752E-16,-4.4));
#1953=CARTESIAN_POINT('',(-5.74923612948856E-16,-4.,-4.4));
#1954=CARTESIAN_POINT('',(-5.74923612948856E-16,4.,-4.4));
#1955=CARTESIAN_POINT('',(0.,-4.,-4.4));
#1956=CARTESIAN_POINT('',(0.,4.,-4.4));
#1957=CARTESIAN_POINT('',(-4.,-4.,-8.));
#1958=CARTESIAN_POINT('',(0.,-4.,-4.4));
#1959=CARTESIAN_POINT('',(-4.,-4.,-4.4));
#1960=CARTESIAN_POINT('',(-4.,-4.,-8.));
#1961=CARTESIAN_POINT('',(-4.,-4.,-8.));
#1962=CARTESIAN_POINT('',(-4.,4.,-8.));
#1963=CARTESIAN_POINT('',(-4.,4.,-4.4));
#1964=CARTESIAN_POINT('',(-4.,-4.,-4.4));
#1965=CARTESIAN_POINT('',(-4.,4.,-8.));
#1966=CARTESIAN_POINT('',(0.,4.,-4.4));
#1967=CARTESIAN_POINT('',(-5.74923612948856E-16,0.,3.1));
#1968=CARTESIAN_POINT('',(0.,0.,0.));
#1969=CARTESIAN_POINT('',(0.,0.,3.1));
#1970=CARTESIAN_POINT('',(-5.74923612948856E-16,0.,4.4));
#1971=CARTESIAN_POINT('',(-5.74923612948856E-16,-4.07921561087423,4.4));
#1972=CARTESIAN_POINT('',(-5.74923612948856E-16,4.07921561087423,4.4));
#1973=CARTESIAN_POINT('',(0.,0.,0.));
#1974=CARTESIAN_POINT('',(0.,-4.07921561087423,-4.4));
#1975=CARTESIAN_POINT('',(-5.74923612948856E-16,5.42101086242752E-16,-4.4));
#1976=CARTESIAN_POINT('',(-5.74923612948856E-16,5.42101086242752E-16,-4.4));
#1977=CARTESIAN_POINT('',(-5.74923612948856E-16,4.07921561087423,-4.4));
#1978=CARTESIAN_POINT('',(0.,0.,0.));
#1979=CARTESIAN_POINT('',(-8.,5.42101086242752E-16,-4.4));
#1980=CARTESIAN_POINT('',(-8.,-4.07921561087423,-4.4));
#1981=CARTESIAN_POINT('',(-8.,-4.07921561087423,-4.4));
#1982=CARTESIAN_POINT('',(-8.,5.42101086242752E-16,-4.4));
#1983=CARTESIAN_POINT('',(-8.,4.07921561087423,-4.4));
#1984=CARTESIAN_POINT('',(-8.,4.07921561087423,-4.4));
#1985=CARTESIAN_POINT('',(-64.,0.,0.));
#1986=CARTESIAN_POINT('',(-8.,0.,0.));
#1987=CARTESIAN_POINT('',(-8.,4.07921561087423,4.4));
#1988=CARTESIAN_POINT('',(-8.,4.07921561087423,4.4));
#1989=CARTESIAN_POINT('',(-8.,0.,4.4));
#1990=CARTESIAN_POINT('',(-8.,0.,4.4));
#1991=CARTESIAN_POINT('',(-8.,-4.07921561087423,4.4));
#1992=CARTESIAN_POINT('',(-8.,-4.07921561087423,4.4));
#1993=CARTESIAN_POINT('',(-64.,0.,0.));
#1994=CARTESIAN_POINT('',(-8.,0.,0.));
#1995=CARTESIAN_POINT('',(-20.,0.,7.10000000000002));
#1996=CARTESIAN_POINT('',(-20.,0.4,7.10000000000002));
#1997=CARTESIAN_POINT('',(-20.8,0.4,7.10000000000002));
#1998=CARTESIAN_POINT('',(-24.,0.4,7.10000000000002));
#1999=CARTESIAN_POINT('',(-20.8,0.,7.10000000000002));
#2000=CARTESIAN_POINT('',(-20.8,-0.4,7.10000000000002));
#2001=CARTESIAN_POINT('',(-20.,-0.4,7.10000000000002));
#2002=CARTESIAN_POINT('',(-24.,-0.4,7.10000000000002));
#2003=CARTESIAN_POINT('',(-24.,0.,7.10000000000002));
#2004=CARTESIAN_POINT('',(-64.,0.,0.));
#2005=CARTESIAN_POINT('',(-14.,0.,0.));
#2006=CARTESIAN_POINT('',(-14.,0.,3.1));
#2007=CARTESIAN_POINT('',(-8.,0.,6.));
#2008=CARTESIAN_POINT('',(-8.,0.,0.));
#2009=CARTESIAN_POINT('',(-8.,0.,7.6));
#2010=CARTESIAN_POINT('',(-20.8,-0.4,8.));
#2011=CARTESIAN_POINT('',(-20.8,-0.4,8.));
#2012=CARTESIAN_POINT('',(-20.8,-0.4,7.58946638440411));
#2013=CARTESIAN_POINT('',(-20.8,0.4,8.));
#2014=CARTESIAN_POINT('',(-20.8,0.4,7.58946638440411));
#2015=CARTESIAN_POINT('',(-20.8,0.,0.));
#2016=CARTESIAN_POINT('',(-20.,0.4,7.10000000000002));
#2017=CARTESIAN_POINT('',(-20.,0.4,7.10000000000002));
#2018=CARTESIAN_POINT('',(-20.,0.4,7.58946638440411));
#2019=CARTESIAN_POINT('',(-20.,0.4,6.48768063332344));
#2020=CARTESIAN_POINT('',(-64.,0.399999999999997,7.58946638440411));
#2021=CARTESIAN_POINT('',(-24.,0.4,7.10000000000002));
#2022=CARTESIAN_POINT('',(-24.,0.4,6.48768063332344));
#2023=CARTESIAN_POINT('',(-20.,0.4,6.48768063332344));
#2024=CARTESIAN_POINT('',(-20.,0.,0.));
#2025=CARTESIAN_POINT('',(-20.,-0.4,7.10000000000002));
#2026=CARTESIAN_POINT('',(-20.,-0.4,6.48768063332344));
#2027=CARTESIAN_POINT('',(-20.,-0.4,7.58946638440411));
#2028=CARTESIAN_POINT('',(-20.,0.,0.));
#2029=CARTESIAN_POINT('',(-20.,0.,0.));
#2030=CARTESIAN_POINT('',(-20.,-0.4,7.10000000000002));
#2031=CARTESIAN_POINT('',(-64.,-0.399999999999997,7.58946638440411));
#2032=CARTESIAN_POINT('',(-20.,-0.4,6.48768063332344));
#2033=CARTESIAN_POINT('',(-24.,-0.4,6.48768063332344));
#2034=CARTESIAN_POINT('',(-24.,-0.4,7.10000000000002));
#2035=CARTESIAN_POINT('',(-24.,-8.67361737988404E-16,60.));
#2036=CARTESIAN_POINT('',(-24.,0.,0.));
#2037=CARTESIAN_POINT('',(-24.,-4.,5.12347538297983));
#2038=CARTESIAN_POINT('',(-24.,-4.,60.));
#2039=CARTESIAN_POINT('',(-24.,-4.,6.46219776856143));
#2040=CARTESIAN_POINT('',(-24.,0.,0.));
#2041=CARTESIAN_POINT('',(-24.,4.,6.4621977685614));
#2042=CARTESIAN_POINT('',(-24.,4.,60.));
#2043=CARTESIAN_POINT('',(-24.,4.,5.1234753829798));
#2044=CARTESIAN_POINT('',(-24.,0.,0.));
#2045=CARTESIAN_POINT('',(-14.,0.,6.5));
#2046=CARTESIAN_POINT('',(-14.,0.,0.));
#2047=CARTESIAN_POINT('',(-14.,0.,6.5));
#2048=CARTESIAN_POINT('',(-24.,-4.,60.));
#2049=CARTESIAN_POINT('',(-32.8888888888889,0.,0.));
#2050=CARTESIAN_POINT('',(-24.,-4.,-5.12347538297978));
#2051=CARTESIAN_POINT('',(-24.,-4.,60.));
#2052=CARTESIAN_POINT('',(-24.,-4.,-6.46219776856137));
#2053=CARTESIAN_POINT('',(-32.8888888888889,0.,0.));
#2054=CARTESIAN_POINT('',(-64.,0.,0.));
#2055=CARTESIAN_POINT('',(-24.,0.,0.));
#2056=CARTESIAN_POINT('',(-24.,4.,-6.4621977685614));
#2057=CARTESIAN_POINT('',(-32.8888888888889,0.,0.));
#2058=CARTESIAN_POINT('',(-24.,4.,60.));
#2059=CARTESIAN_POINT('',(-24.,4.,60.));
#2060=CARTESIAN_POINT('',(-24.,4.,-5.1234753829798));
#2061=CARTESIAN_POINT('',(-32.8888888888889,0.,0.));
#2062=CARTESIAN_POINT('',(-64.,0.,0.));
#2063=CARTESIAN_POINT('',(-24.,0.,0.));
#2064=CARTESIAN_POINT('',(-24.,0.,0.));
#2065=CARTESIAN_POINT('',(-24.,-8.67361737988404E-16,60.));
#2066=MECHANICAL_DESIGN_GEOMETRIC_PRESENTATION_REPRESENTATION('',(#1203),
#2067);
#2067=(
GEOMETRIC_REPRESENTATION_CONTEXT(3)
GLOBAL_UNCERTAINTY_ASSIGNED_CONTEXT((#2068))
GLOBAL_UNIT_ASSIGNED_CONTEXT((#2071,#2070,#2069))
REPRESENTATION_CONTEXT('Gray_4638507_a)_AVV','TOP_LEVEL_ASSEMBLY_PART')
);
#2068=UNCERTAINTY_MEASURE_WITH_UNIT(LENGTH_MEASURE(0.005),#2071,
'DISTANCE_ACCURACY_VALUE','Maximum Tolerance applied to model');
#2069=(
NAMED_UNIT(*)
SI_UNIT($,.STERADIAN.)
SOLID_ANGLE_UNIT()
);
#2070=(
NAMED_UNIT(*)
PLANE_ANGLE_UNIT()
SI_UNIT($,.RADIAN.)
);
#2071=(
LENGTH_UNIT()
NAMED_UNIT(*)
SI_UNIT(.MILLI.,.METRE.)
);
#2072=PRODUCT_DEFINITION_SHAPE('','',#2073);
#2073=PRODUCT_DEFINITION('','',#2075,#2074);
#2074=PRODUCT_DEFINITION_CONTEXT('',#2081,'design');
#2075=PRODUCT_DEFINITION_FORMATION_WITH_SPECIFIED_SOURCE('','',#2077,
 .NOT_KNOWN.);
#2076=PRODUCT_RELATED_PRODUCT_CATEGORY('','',(#2077));
#2077=PRODUCT('Gray_4638507_a)_AVV','Gray_4638507_a)_AVV',
'Gray_4638507_a)_AVV',(#2079));
#2078=PRODUCT_CATEGORY('','');
#2079=PRODUCT_CONTEXT('',#2081,'mechanical');
#2080=APPLICATION_PROTOCOL_DEFINITION('international standard',
'automotive_design',2010,#2081);
#2081=APPLICATION_CONTEXT(
'core data for automotive mechanical design processes');
ENDSEC;
END-ISO-10303-21;
