ISO-10303-21;
HEADER;
/* Generated by software containing ST-Developer
 * from STEP Tools, Inc. (www.steptools.com) 
 */
/* OPTION: strings as raw bytes, not using required /X/ escapes */

FILE_DESCRIPTION(
/* description */ ('Unknown'),
/* implementation_level */ '2;1');

FILE_NAME(
/* name */ 'Gray_4516546_JCA',
/* time_stamp */ '2025-07-21T23:59:28+02:00',
/* author */ ('Unknown'),
/* organization */ ('Unknown'),
/* preprocessor_version */ 'ST-DEVELOPER v19.4',
/* originating_system */ 'Solid Edge',
/* authorisation */ 'Unknown');

FILE_SCHEMA (('AUTOMOTIVE_DESIGN {1 0 10303 214 3 1 1}'));
ENDSEC;

DATA;
#10=PROPERTY_DEFINITION_REPRESENTATION(#14,#12);
#11=PROPERTY_DEFINITION_REPRESENTATION(#15,#13);
#12=REPRESENTATION('',(#16),#1417);
#13=REPRESENTATION('',(#17),#1417);
#14=PROPERTY_DEFINITION('pmi validation property','',#1422);
#15=PROPERTY_DEFINITION('pmi validation property','',#1422);
#16=VALUE_REPRESENTATION_ITEM('number of annotations',COUNT_MEASURE(0.));
#17=VALUE_REPRESENTATION_ITEM('number of views',COUNT_MEASURE(0.));
#18=SHAPE_REPRESENTATION_RELATIONSHIP('','',#843,#19);
#19=ADVANCED_BREP_SHAPE_REPRESENTATION('',(#841),#1417);
#20=PLANE('',#848);
#21=PLANE('',#849);
#22=PLANE('',#850);
#23=PLANE('',#854);
#24=PLANE('',#855);
#25=PLANE('',#856);
#26=PLANE('',#860);
#27=PLANE('',#861);
#28=PLANE('',#862);
#29=PLANE('',#866);
#30=PLANE('',#867);
#31=PLANE('',#871);
#32=PLANE('',#872);
#33=PLANE('',#876);
#34=PLANE('',#877);
#35=PLANE('',#881);
#36=PLANE('',#882);
#37=PLANE('',#886);
#38=PLANE('',#887);
#39=PLANE('',#888);
#40=PLANE('',#889);
#41=PLANE('',#902);
#42=LINE('',#1178,#122);
#43=LINE('',#1182,#123);
#44=LINE('',#1184,#124);
#45=LINE('',#1186,#125);
#46=LINE('',#1188,#126);
#47=LINE('',#1190,#127);
#48=LINE('',#1192,#128);
#49=LINE('',#1194,#129);
#50=LINE('',#1196,#130);
#51=LINE('',#1198,#131);
#52=LINE('',#1200,#132);
#53=LINE('',#1204,#133);
#54=LINE('',#1208,#134);
#55=LINE('',#1210,#135);
#56=LINE('',#1212,#136);
#57=LINE('',#1214,#137);
#58=LINE('',#1216,#138);
#59=LINE('',#1218,#139);
#60=LINE('',#1220,#140);
#61=LINE('',#1222,#141);
#62=LINE('',#1224,#142);
#63=LINE('',#1228,#143);
#64=LINE('',#1232,#144);
#65=LINE('',#1234,#145);
#66=LINE('',#1236,#146);
#67=LINE('',#1238,#147);
#68=LINE('',#1240,#148);
#69=LINE('',#1242,#149);
#70=LINE('',#1244,#150);
#71=LINE('',#1246,#151);
#72=LINE('',#1248,#152);
#73=LINE('',#1252,#153);
#74=LINE('',#1256,#154);
#75=LINE('',#1258,#155);
#76=LINE('',#1260,#156);
#77=LINE('',#1262,#157);
#78=LINE('',#1264,#158);
#79=LINE('',#1266,#159);
#80=LINE('',#1271,#160);
#81=LINE('',#1275,#161);
#82=LINE('',#1277,#162);
#83=LINE('',#1280,#163);
#84=LINE('',#1282,#164);
#85=LINE('',#1284,#165);
#86=LINE('',#1286,#166);
#87=LINE('',#1289,#167);
#88=LINE('',#1291,#168);
#89=LINE('',#1293,#169);
#90=LINE('',#1298,#170);
#91=LINE('',#1302,#171);
#92=LINE('',#1304,#172);
#93=LINE('',#1307,#173);
#94=LINE('',#1309,#174);
#95=LINE('',#1311,#175);
#96=LINE('',#1313,#176);
#97=LINE('',#1316,#177);
#98=LINE('',#1318,#178);
#99=LINE('',#1320,#179);
#100=LINE('',#1325,#180);
#101=LINE('',#1329,#181);
#102=LINE('',#1331,#182);
#103=LINE('',#1334,#183);
#104=LINE('',#1336,#184);
#105=LINE('',#1338,#185);
#106=LINE('',#1340,#186);
#107=LINE('',#1343,#187);
#108=LINE('',#1345,#188);
#109=LINE('',#1347,#189);
#110=LINE('',#1352,#190);
#111=LINE('',#1356,#191);
#112=LINE('',#1358,#192);
#113=LINE('',#1361,#193);
#114=LINE('',#1363,#194);
#115=LINE('',#1365,#195);
#116=LINE('',#1367,#196);
#117=LINE('',#1370,#197);
#118=LINE('',#1372,#198);
#119=LINE('',#1374,#199);
#120=LINE('',#1376,#200);
#121=LINE('',#1377,#201);
#122=VECTOR('',#933,1000.);
#123=VECTOR('',#936,1000.);
#124=VECTOR('',#939,1000.);
#125=VECTOR('',#940,1000.);
#126=VECTOR('',#941,1000.);
#127=VECTOR('',#944,1000.);
#128=VECTOR('',#945,1000.);
#129=VECTOR('',#946,1000.);
#130=VECTOR('',#949,1000.);
#131=VECTOR('',#950,1000.);
#132=VECTOR('',#951,1000.);
#133=VECTOR('',#956,1000.);
#134=VECTOR('',#961,1000.);
#135=VECTOR('',#962,1000.);
#136=VECTOR('',#963,1000.);
#137=VECTOR('',#966,1000.);
#138=VECTOR('',#967,1000.);
#139=VECTOR('',#968,1000.);
#140=VECTOR('',#971,1000.);
#141=VECTOR('',#972,1000.);
#142=VECTOR('',#973,1000.);
#143=VECTOR('',#978,1000.);
#144=VECTOR('',#983,1000.);
#145=VECTOR('',#984,1000.);
#146=VECTOR('',#985,1000.);
#147=VECTOR('',#988,1000.);
#148=VECTOR('',#989,1000.);
#149=VECTOR('',#990,1000.);
#150=VECTOR('',#993,1000.);
#151=VECTOR('',#994,1000.);
#152=VECTOR('',#995,1000.);
#153=VECTOR('',#1000,1000.);
#154=VECTOR('',#1005,1000.);
#155=VECTOR('',#1006,1000.);
#156=VECTOR('',#1007,1000.);
#157=VECTOR('',#1010,1000.);
#158=VECTOR('',#1011,1000.);
#159=VECTOR('',#1012,1000.);
#160=VECTOR('',#1017,1000.);
#161=VECTOR('',#1020,1000.);
#162=VECTOR('',#1023,1000.);
#163=VECTOR('',#1024,1000.);
#164=VECTOR('',#1025,1000.);
#165=VECTOR('',#1026,1000.);
#166=VECTOR('',#1029,1000.);
#167=VECTOR('',#1030,1000.);
#168=VECTOR('',#1031,1000.);
#169=VECTOR('',#1032,1000.);
#170=VECTOR('',#1037,1000.);
#171=VECTOR('',#1040,1000.);
#172=VECTOR('',#1043,1000.);
#173=VECTOR('',#1044,1000.);
#174=VECTOR('',#1045,1000.);
#175=VECTOR('',#1046,1000.);
#176=VECTOR('',#1049,1000.);
#177=VECTOR('',#1050,1000.);
#178=VECTOR('',#1051,1000.);
#179=VECTOR('',#1052,1000.);
#180=VECTOR('',#1057,1000.);
#181=VECTOR('',#1060,1000.);
#182=VECTOR('',#1063,1000.);
#183=VECTOR('',#1064,1000.);
#184=VECTOR('',#1065,1000.);
#185=VECTOR('',#1066,1000.);
#186=VECTOR('',#1069,1000.);
#187=VECTOR('',#1070,1000.);
#188=VECTOR('',#1071,1000.);
#189=VECTOR('',#1072,1000.);
#190=VECTOR('',#1077,1000.);
#191=VECTOR('',#1080,1000.);
#192=VECTOR('',#1083,1000.);
#193=VECTOR('',#1084,1000.);
#194=VECTOR('',#1085,1000.);
#195=VECTOR('',#1086,1000.);
#196=VECTOR('',#1089,1000.);
#197=VECTOR('',#1090,1000.);
#198=VECTOR('',#1091,1000.);
#199=VECTOR('',#1092,1000.);
#200=VECTOR('',#1095,1000.);
#201=VECTOR('',#1096,1000.);
#202=ORIENTED_EDGE('',*,*,#442,.T.);
#203=ORIENTED_EDGE('',*,*,#443,.F.);
#204=ORIENTED_EDGE('',*,*,#444,.F.);
#205=ORIENTED_EDGE('',*,*,#445,.T.);
#206=ORIENTED_EDGE('',*,*,#446,.T.);
#207=ORIENTED_EDGE('',*,*,#447,.F.);
#208=ORIENTED_EDGE('',*,*,#448,.F.);
#209=ORIENTED_EDGE('',*,*,#443,.T.);
#210=ORIENTED_EDGE('',*,*,#449,.T.);
#211=ORIENTED_EDGE('',*,*,#450,.F.);
#212=ORIENTED_EDGE('',*,*,#451,.F.);
#213=ORIENTED_EDGE('',*,*,#447,.T.);
#214=ORIENTED_EDGE('',*,*,#452,.T.);
#215=ORIENTED_EDGE('',*,*,#453,.F.);
#216=ORIENTED_EDGE('',*,*,#454,.F.);
#217=ORIENTED_EDGE('',*,*,#450,.T.);
#218=ORIENTED_EDGE('',*,*,#455,.T.);
#219=ORIENTED_EDGE('',*,*,#456,.F.);
#220=ORIENTED_EDGE('',*,*,#457,.F.);
#221=ORIENTED_EDGE('',*,*,#453,.T.);
#222=ORIENTED_EDGE('',*,*,#458,.T.);
#223=ORIENTED_EDGE('',*,*,#459,.F.);
#224=ORIENTED_EDGE('',*,*,#460,.F.);
#225=ORIENTED_EDGE('',*,*,#456,.T.);
#226=ORIENTED_EDGE('',*,*,#461,.T.);
#227=ORIENTED_EDGE('',*,*,#462,.F.);
#228=ORIENTED_EDGE('',*,*,#463,.F.);
#229=ORIENTED_EDGE('',*,*,#459,.T.);
#230=ORIENTED_EDGE('',*,*,#464,.T.);
#231=ORIENTED_EDGE('',*,*,#465,.F.);
#232=ORIENTED_EDGE('',*,*,#466,.F.);
#233=ORIENTED_EDGE('',*,*,#462,.T.);
#234=ORIENTED_EDGE('',*,*,#467,.T.);
#235=ORIENTED_EDGE('',*,*,#468,.F.);
#236=ORIENTED_EDGE('',*,*,#469,.F.);
#237=ORIENTED_EDGE('',*,*,#465,.T.);
#238=ORIENTED_EDGE('',*,*,#470,.T.);
#239=ORIENTED_EDGE('',*,*,#471,.F.);
#240=ORIENTED_EDGE('',*,*,#472,.F.);
#241=ORIENTED_EDGE('',*,*,#468,.T.);
#242=ORIENTED_EDGE('',*,*,#473,.T.);
#243=ORIENTED_EDGE('',*,*,#474,.F.);
#244=ORIENTED_EDGE('',*,*,#475,.F.);
#245=ORIENTED_EDGE('',*,*,#471,.T.);
#246=ORIENTED_EDGE('',*,*,#476,.T.);
#247=ORIENTED_EDGE('',*,*,#477,.F.);
#248=ORIENTED_EDGE('',*,*,#478,.F.);
#249=ORIENTED_EDGE('',*,*,#474,.T.);
#250=ORIENTED_EDGE('',*,*,#479,.T.);
#251=ORIENTED_EDGE('',*,*,#480,.F.);
#252=ORIENTED_EDGE('',*,*,#481,.F.);
#253=ORIENTED_EDGE('',*,*,#477,.T.);
#254=ORIENTED_EDGE('',*,*,#482,.T.);
#255=ORIENTED_EDGE('',*,*,#483,.F.);
#256=ORIENTED_EDGE('',*,*,#484,.F.);
#257=ORIENTED_EDGE('',*,*,#480,.T.);
#258=ORIENTED_EDGE('',*,*,#485,.T.);
#259=ORIENTED_EDGE('',*,*,#486,.F.);
#260=ORIENTED_EDGE('',*,*,#487,.F.);
#261=ORIENTED_EDGE('',*,*,#483,.T.);
#262=ORIENTED_EDGE('',*,*,#488,.T.);
#263=ORIENTED_EDGE('',*,*,#489,.T.);
#264=ORIENTED_EDGE('',*,*,#490,.F.);
#265=ORIENTED_EDGE('',*,*,#491,.T.);
#266=ORIENTED_EDGE('',*,*,#492,.F.);
#267=ORIENTED_EDGE('',*,*,#493,.T.);
#268=ORIENTED_EDGE('',*,*,#494,.T.);
#269=ORIENTED_EDGE('',*,*,#495,.T.);
#270=ORIENTED_EDGE('',*,*,#496,.T.);
#271=ORIENTED_EDGE('',*,*,#497,.T.);
#272=ORIENTED_EDGE('',*,*,#498,.F.);
#273=ORIENTED_EDGE('',*,*,#499,.T.);
#274=ORIENTED_EDGE('',*,*,#500,.F.);
#275=ORIENTED_EDGE('',*,*,#501,.T.);
#276=ORIENTED_EDGE('',*,*,#502,.T.);
#277=ORIENTED_EDGE('',*,*,#503,.T.);
#278=ORIENTED_EDGE('',*,*,#504,.F.);
#279=ORIENTED_EDGE('',*,*,#505,.T.);
#280=ORIENTED_EDGE('',*,*,#506,.T.);
#281=ORIENTED_EDGE('',*,*,#507,.T.);
#282=ORIENTED_EDGE('',*,*,#508,.T.);
#283=ORIENTED_EDGE('',*,*,#509,.T.);
#284=ORIENTED_EDGE('',*,*,#510,.F.);
#285=ORIENTED_EDGE('',*,*,#511,.T.);
#286=ORIENTED_EDGE('',*,*,#512,.T.);
#287=ORIENTED_EDGE('',*,*,#513,.T.);
#288=ORIENTED_EDGE('',*,*,#514,.F.);
#289=ORIENTED_EDGE('',*,*,#515,.T.);
#290=ORIENTED_EDGE('',*,*,#516,.F.);
#291=ORIENTED_EDGE('',*,*,#517,.T.);
#292=ORIENTED_EDGE('',*,*,#518,.T.);
#293=ORIENTED_EDGE('',*,*,#519,.T.);
#294=ORIENTED_EDGE('',*,*,#520,.T.);
#295=ORIENTED_EDGE('',*,*,#521,.T.);
#296=ORIENTED_EDGE('',*,*,#522,.F.);
#297=ORIENTED_EDGE('',*,*,#523,.T.);
#298=ORIENTED_EDGE('',*,*,#524,.T.);
#299=ORIENTED_EDGE('',*,*,#525,.T.);
#300=ORIENTED_EDGE('',*,*,#526,.F.);
#301=ORIENTED_EDGE('',*,*,#527,.T.);
#302=ORIENTED_EDGE('',*,*,#528,.F.);
#303=ORIENTED_EDGE('',*,*,#529,.T.);
#304=ORIENTED_EDGE('',*,*,#530,.T.);
#305=ORIENTED_EDGE('',*,*,#531,.T.);
#306=ORIENTED_EDGE('',*,*,#532,.T.);
#307=ORIENTED_EDGE('',*,*,#533,.T.);
#308=ORIENTED_EDGE('',*,*,#534,.F.);
#309=ORIENTED_EDGE('',*,*,#535,.T.);
#310=ORIENTED_EDGE('',*,*,#536,.T.);
#311=ORIENTED_EDGE('',*,*,#445,.F.);
#312=ORIENTED_EDGE('',*,*,#537,.F.);
#313=ORIENTED_EDGE('',*,*,#486,.T.);
#314=ORIENTED_EDGE('',*,*,#490,.T.);
#315=ORIENTED_EDGE('',*,*,#538,.T.);
#316=ORIENTED_EDGE('',*,*,#492,.T.);
#317=ORIENTED_EDGE('',*,*,#539,.T.);
#318=ORIENTED_EDGE('',*,*,#498,.T.);
#319=ORIENTED_EDGE('',*,*,#540,.T.);
#320=ORIENTED_EDGE('',*,*,#500,.T.);
#321=ORIENTED_EDGE('',*,*,#541,.T.);
#322=ORIENTED_EDGE('',*,*,#504,.T.);
#323=ORIENTED_EDGE('',*,*,#542,.T.);
#324=ORIENTED_EDGE('',*,*,#510,.T.);
#325=ORIENTED_EDGE('',*,*,#543,.T.);
#326=ORIENTED_EDGE('',*,*,#514,.T.);
#327=ORIENTED_EDGE('',*,*,#544,.T.);
#328=ORIENTED_EDGE('',*,*,#516,.T.);
#329=ORIENTED_EDGE('',*,*,#545,.T.);
#330=ORIENTED_EDGE('',*,*,#522,.T.);
#331=ORIENTED_EDGE('',*,*,#546,.T.);
#332=ORIENTED_EDGE('',*,*,#526,.T.);
#333=ORIENTED_EDGE('',*,*,#547,.T.);
#334=ORIENTED_EDGE('',*,*,#528,.T.);
#335=ORIENTED_EDGE('',*,*,#548,.T.);
#336=ORIENTED_EDGE('',*,*,#534,.T.);
#337=ORIENTED_EDGE('',*,*,#549,.T.);
#338=ORIENTED_EDGE('',*,*,#444,.T.);
#339=ORIENTED_EDGE('',*,*,#448,.T.);
#340=ORIENTED_EDGE('',*,*,#451,.T.);
#341=ORIENTED_EDGE('',*,*,#454,.T.);
#342=ORIENTED_EDGE('',*,*,#457,.T.);
#343=ORIENTED_EDGE('',*,*,#460,.T.);
#344=ORIENTED_EDGE('',*,*,#463,.T.);
#345=ORIENTED_EDGE('',*,*,#466,.T.);
#346=ORIENTED_EDGE('',*,*,#469,.T.);
#347=ORIENTED_EDGE('',*,*,#472,.T.);
#348=ORIENTED_EDGE('',*,*,#475,.T.);
#349=ORIENTED_EDGE('',*,*,#478,.T.);
#350=ORIENTED_EDGE('',*,*,#481,.T.);
#351=ORIENTED_EDGE('',*,*,#484,.T.);
#352=ORIENTED_EDGE('',*,*,#487,.T.);
#353=ORIENTED_EDGE('',*,*,#537,.T.);
#354=ORIENTED_EDGE('',*,*,#496,.F.);
#355=ORIENTED_EDGE('',*,*,#550,.T.);
#356=ORIENTED_EDGE('',*,*,#494,.F.);
#357=ORIENTED_EDGE('',*,*,#551,.T.);
#358=ORIENTED_EDGE('',*,*,#488,.F.);
#359=ORIENTED_EDGE('',*,*,#552,.T.);
#360=ORIENTED_EDGE('',*,*,#532,.F.);
#361=ORIENTED_EDGE('',*,*,#553,.T.);
#362=ORIENTED_EDGE('',*,*,#530,.F.);
#363=ORIENTED_EDGE('',*,*,#554,.T.);
#364=ORIENTED_EDGE('',*,*,#524,.F.);
#365=ORIENTED_EDGE('',*,*,#555,.T.);
#366=ORIENTED_EDGE('',*,*,#520,.F.);
#367=ORIENTED_EDGE('',*,*,#556,.T.);
#368=ORIENTED_EDGE('',*,*,#518,.F.);
#369=ORIENTED_EDGE('',*,*,#557,.T.);
#370=ORIENTED_EDGE('',*,*,#512,.F.);
#371=ORIENTED_EDGE('',*,*,#558,.T.);
#372=ORIENTED_EDGE('',*,*,#508,.F.);
#373=ORIENTED_EDGE('',*,*,#559,.T.);
#374=ORIENTED_EDGE('',*,*,#506,.F.);
#375=ORIENTED_EDGE('',*,*,#560,.T.);
#376=ORIENTED_EDGE('',*,*,#502,.F.);
#377=ORIENTED_EDGE('',*,*,#561,.T.);
#378=ORIENTED_EDGE('',*,*,#442,.F.);
#379=ORIENTED_EDGE('',*,*,#536,.F.);
#380=ORIENTED_EDGE('',*,*,#485,.F.);
#381=ORIENTED_EDGE('',*,*,#482,.F.);
#382=ORIENTED_EDGE('',*,*,#479,.F.);
#383=ORIENTED_EDGE('',*,*,#476,.F.);
#384=ORIENTED_EDGE('',*,*,#473,.F.);
#385=ORIENTED_EDGE('',*,*,#470,.F.);
#386=ORIENTED_EDGE('',*,*,#467,.F.);
#387=ORIENTED_EDGE('',*,*,#464,.F.);
#388=ORIENTED_EDGE('',*,*,#461,.F.);
#389=ORIENTED_EDGE('',*,*,#458,.F.);
#390=ORIENTED_EDGE('',*,*,#455,.F.);
#391=ORIENTED_EDGE('',*,*,#452,.F.);
#392=ORIENTED_EDGE('',*,*,#449,.F.);
#393=ORIENTED_EDGE('',*,*,#446,.F.);
#394=ORIENTED_EDGE('',*,*,#542,.F.);
#395=ORIENTED_EDGE('',*,*,#507,.F.);
#396=ORIENTED_EDGE('',*,*,#559,.F.);
#397=ORIENTED_EDGE('',*,*,#511,.F.);
#398=ORIENTED_EDGE('',*,*,#548,.F.);
#399=ORIENTED_EDGE('',*,*,#531,.F.);
#400=ORIENTED_EDGE('',*,*,#553,.F.);
#401=ORIENTED_EDGE('',*,*,#535,.F.);
#402=ORIENTED_EDGE('',*,*,#545,.F.);
#403=ORIENTED_EDGE('',*,*,#519,.F.);
#404=ORIENTED_EDGE('',*,*,#556,.F.);
#405=ORIENTED_EDGE('',*,*,#523,.F.);
#406=ORIENTED_EDGE('',*,*,#539,.F.);
#407=ORIENTED_EDGE('',*,*,#495,.F.);
#408=ORIENTED_EDGE('',*,*,#550,.F.);
#409=ORIENTED_EDGE('',*,*,#499,.F.);
#410=ORIENTED_EDGE('',*,*,#541,.F.);
#411=ORIENTED_EDGE('',*,*,#503,.F.);
#412=ORIENTED_EDGE('',*,*,#560,.F.);
#413=ORIENTED_EDGE('',*,*,#505,.F.);
#414=ORIENTED_EDGE('',*,*,#543,.F.);
#415=ORIENTED_EDGE('',*,*,#509,.F.);
#416=ORIENTED_EDGE('',*,*,#558,.F.);
#417=ORIENTED_EDGE('',*,*,#515,.F.);
#418=ORIENTED_EDGE('',*,*,#544,.F.);
#419=ORIENTED_EDGE('',*,*,#513,.F.);
#420=ORIENTED_EDGE('',*,*,#557,.F.);
#421=ORIENTED_EDGE('',*,*,#517,.F.);
#422=ORIENTED_EDGE('',*,*,#546,.F.);
#423=ORIENTED_EDGE('',*,*,#521,.F.);
#424=ORIENTED_EDGE('',*,*,#555,.F.);
#425=ORIENTED_EDGE('',*,*,#527,.F.);
#426=ORIENTED_EDGE('',*,*,#547,.F.);
#427=ORIENTED_EDGE('',*,*,#525,.F.);
#428=ORIENTED_EDGE('',*,*,#554,.F.);
#429=ORIENTED_EDGE('',*,*,#529,.F.);
#430=ORIENTED_EDGE('',*,*,#549,.F.);
#431=ORIENTED_EDGE('',*,*,#533,.F.);
#432=ORIENTED_EDGE('',*,*,#552,.F.);
#433=ORIENTED_EDGE('',*,*,#491,.F.);
#434=ORIENTED_EDGE('',*,*,#538,.F.);
#435=ORIENTED_EDGE('',*,*,#489,.F.);
#436=ORIENTED_EDGE('',*,*,#551,.F.);
#437=ORIENTED_EDGE('',*,*,#493,.F.);
#438=ORIENTED_EDGE('',*,*,#540,.F.);
#439=ORIENTED_EDGE('',*,*,#497,.F.);
#440=ORIENTED_EDGE('',*,*,#561,.F.);
#441=ORIENTED_EDGE('',*,*,#501,.F.);
#442=EDGE_CURVE('',#562,#563,#642,.T.);
#443=EDGE_CURVE('',#564,#563,#42,.T.);
#444=EDGE_CURVE('',#565,#564,#643,.T.);
#445=EDGE_CURVE('',#565,#562,#43,.T.);
#446=EDGE_CURVE('',#563,#566,#44,.T.);
#447=EDGE_CURVE('',#567,#566,#45,.T.);
#448=EDGE_CURVE('',#564,#567,#46,.T.);
#449=EDGE_CURVE('',#566,#568,#47,.T.);
#450=EDGE_CURVE('',#569,#568,#48,.T.);
#451=EDGE_CURVE('',#567,#569,#49,.T.);
#452=EDGE_CURVE('',#568,#570,#50,.T.);
#453=EDGE_CURVE('',#571,#570,#51,.T.);
#454=EDGE_CURVE('',#569,#571,#52,.T.);
#455=EDGE_CURVE('',#570,#572,#644,.T.);
#456=EDGE_CURVE('',#573,#572,#53,.T.);
#457=EDGE_CURVE('',#571,#573,#645,.T.);
#458=EDGE_CURVE('',#572,#574,#54,.T.);
#459=EDGE_CURVE('',#575,#574,#55,.T.);
#460=EDGE_CURVE('',#573,#575,#56,.T.);
#461=EDGE_CURVE('',#574,#576,#57,.T.);
#462=EDGE_CURVE('',#577,#576,#58,.T.);
#463=EDGE_CURVE('',#575,#577,#59,.T.);
#464=EDGE_CURVE('',#576,#578,#60,.T.);
#465=EDGE_CURVE('',#579,#578,#61,.T.);
#466=EDGE_CURVE('',#577,#579,#62,.T.);
#467=EDGE_CURVE('',#578,#580,#646,.T.);
#468=EDGE_CURVE('',#581,#580,#63,.T.);
#469=EDGE_CURVE('',#579,#581,#647,.T.);
#470=EDGE_CURVE('',#580,#582,#64,.T.);
#471=EDGE_CURVE('',#583,#582,#65,.T.);
#472=EDGE_CURVE('',#581,#583,#66,.T.);
#473=EDGE_CURVE('',#582,#584,#67,.T.);
#474=EDGE_CURVE('',#585,#584,#68,.T.);
#475=EDGE_CURVE('',#583,#585,#69,.T.);
#476=EDGE_CURVE('',#584,#586,#70,.T.);
#477=EDGE_CURVE('',#587,#586,#71,.T.);
#478=EDGE_CURVE('',#585,#587,#72,.T.);
#479=EDGE_CURVE('',#586,#588,#648,.T.);
#480=EDGE_CURVE('',#589,#588,#73,.T.);
#481=EDGE_CURVE('',#587,#589,#649,.T.);
#482=EDGE_CURVE('',#588,#590,#74,.T.);
#483=EDGE_CURVE('',#591,#590,#75,.T.);
#484=EDGE_CURVE('',#589,#591,#76,.T.);
#485=EDGE_CURVE('',#590,#592,#77,.T.);
#486=EDGE_CURVE('',#593,#592,#78,.T.);
#487=EDGE_CURVE('',#591,#593,#79,.T.);
#488=EDGE_CURVE('',#594,#595,#650,.T.);
#489=EDGE_CURVE('',#595,#596,#80,.F.);
#490=EDGE_CURVE('',#597,#596,#651,.T.);
#491=EDGE_CURVE('',#597,#594,#81,.T.);
#492=EDGE_CURVE('',#598,#599,#82,.T.);
#493=EDGE_CURVE('',#598,#600,#83,.F.);
#494=EDGE_CURVE('',#600,#601,#84,.T.);
#495=EDGE_CURVE('',#601,#599,#85,.F.);
#496=EDGE_CURVE('',#602,#603,#86,.T.);
#497=EDGE_CURVE('',#603,#604,#87,.T.);
#498=EDGE_CURVE('',#605,#604,#88,.T.);
#499=EDGE_CURVE('',#605,#602,#89,.T.);
#500=EDGE_CURVE('',#606,#607,#652,.T.);
#501=EDGE_CURVE('',#606,#608,#90,.T.);
#502=EDGE_CURVE('',#608,#609,#653,.T.);
#503=EDGE_CURVE('',#609,#607,#91,.F.);
#504=EDGE_CURVE('',#610,#611,#92,.T.);
#505=EDGE_CURVE('',#610,#612,#93,.F.);
#506=EDGE_CURVE('',#612,#613,#94,.T.);
#507=EDGE_CURVE('',#613,#611,#95,.F.);
#508=EDGE_CURVE('',#614,#615,#96,.T.);
#509=EDGE_CURVE('',#615,#616,#97,.T.);
#510=EDGE_CURVE('',#617,#616,#98,.T.);
#511=EDGE_CURVE('',#617,#614,#99,.T.);
#512=EDGE_CURVE('',#618,#619,#654,.T.);
#513=EDGE_CURVE('',#619,#620,#100,.F.);
#514=EDGE_CURVE('',#621,#620,#655,.T.);
#515=EDGE_CURVE('',#621,#618,#101,.T.);
#516=EDGE_CURVE('',#622,#623,#102,.T.);
#517=EDGE_CURVE('',#622,#624,#103,.F.);
#518=EDGE_CURVE('',#624,#625,#104,.T.);
#519=EDGE_CURVE('',#625,#623,#105,.F.);
#520=EDGE_CURVE('',#626,#627,#106,.T.);
#521=EDGE_CURVE('',#627,#628,#107,.T.);
#522=EDGE_CURVE('',#629,#628,#108,.T.);
#523=EDGE_CURVE('',#629,#626,#109,.T.);
#524=EDGE_CURVE('',#630,#631,#656,.T.);
#525=EDGE_CURVE('',#631,#632,#110,.F.);
#526=EDGE_CURVE('',#633,#632,#657,.T.);
#527=EDGE_CURVE('',#633,#630,#111,.T.);
#528=EDGE_CURVE('',#634,#635,#112,.T.);
#529=EDGE_CURVE('',#634,#636,#113,.F.);
#530=EDGE_CURVE('',#636,#637,#114,.T.);
#531=EDGE_CURVE('',#637,#635,#115,.F.);
#532=EDGE_CURVE('',#638,#639,#116,.T.);
#533=EDGE_CURVE('',#639,#640,#117,.T.);
#534=EDGE_CURVE('',#641,#640,#118,.T.);
#535=EDGE_CURVE('',#641,#638,#119,.T.);
#536=EDGE_CURVE('',#592,#562,#120,.T.);
#537=EDGE_CURVE('',#593,#565,#121,.T.);
#538=EDGE_CURVE('',#596,#598,#658,.F.);
#539=EDGE_CURVE('',#599,#605,#659,.T.);
#540=EDGE_CURVE('',#604,#606,#660,.F.);
#541=EDGE_CURVE('',#607,#610,#661,.F.);
#542=EDGE_CURVE('',#611,#617,#662,.T.);
#543=EDGE_CURVE('',#616,#621,#663,.F.);
#544=EDGE_CURVE('',#620,#622,#664,.F.);
#545=EDGE_CURVE('',#623,#629,#665,.T.);
#546=EDGE_CURVE('',#628,#633,#666,.F.);
#547=EDGE_CURVE('',#632,#634,#667,.F.);
#548=EDGE_CURVE('',#635,#641,#668,.T.);
#549=EDGE_CURVE('',#640,#597,#669,.F.);
#550=EDGE_CURVE('',#602,#601,#670,.F.);
#551=EDGE_CURVE('',#600,#595,#671,.T.);
#552=EDGE_CURVE('',#594,#639,#672,.T.);
#553=EDGE_CURVE('',#638,#637,#673,.F.);
#554=EDGE_CURVE('',#636,#631,#674,.T.);
#555=EDGE_CURVE('',#630,#627,#675,.T.);
#556=EDGE_CURVE('',#626,#625,#676,.F.);
#557=EDGE_CURVE('',#624,#619,#677,.T.);
#558=EDGE_CURVE('',#618,#615,#678,.T.);
#559=EDGE_CURVE('',#614,#613,#679,.F.);
#560=EDGE_CURVE('',#612,#609,#680,.T.);
#561=EDGE_CURVE('',#608,#603,#681,.T.);
#562=VERTEX_POINT('',#1176);
#563=VERTEX_POINT('',#1177);
#564=VERTEX_POINT('',#1179);
#565=VERTEX_POINT('',#1181);
#566=VERTEX_POINT('',#1185);
#567=VERTEX_POINT('',#1187);
#568=VERTEX_POINT('',#1191);
#569=VERTEX_POINT('',#1193);
#570=VERTEX_POINT('',#1197);
#571=VERTEX_POINT('',#1199);
#572=VERTEX_POINT('',#1203);
#573=VERTEX_POINT('',#1205);
#574=VERTEX_POINT('',#1209);
#575=VERTEX_POINT('',#1211);
#576=VERTEX_POINT('',#1215);
#577=VERTEX_POINT('',#1217);
#578=VERTEX_POINT('',#1221);
#579=VERTEX_POINT('',#1223);
#580=VERTEX_POINT('',#1227);
#581=VERTEX_POINT('',#1229);
#582=VERTEX_POINT('',#1233);
#583=VERTEX_POINT('',#1235);
#584=VERTEX_POINT('',#1239);
#585=VERTEX_POINT('',#1241);
#586=VERTEX_POINT('',#1245);
#587=VERTEX_POINT('',#1247);
#588=VERTEX_POINT('',#1251);
#589=VERTEX_POINT('',#1253);
#590=VERTEX_POINT('',#1257);
#591=VERTEX_POINT('',#1259);
#592=VERTEX_POINT('',#1263);
#593=VERTEX_POINT('',#1265);
#594=VERTEX_POINT('',#1269);
#595=VERTEX_POINT('',#1270);
#596=VERTEX_POINT('',#1272);
#597=VERTEX_POINT('',#1274);
#598=VERTEX_POINT('',#1278);
#599=VERTEX_POINT('',#1279);
#600=VERTEX_POINT('',#1281);
#601=VERTEX_POINT('',#1283);
#602=VERTEX_POINT('',#1287);
#603=VERTEX_POINT('',#1288);
#604=VERTEX_POINT('',#1290);
#605=VERTEX_POINT('',#1292);
#606=VERTEX_POINT('',#1296);
#607=VERTEX_POINT('',#1297);
#608=VERTEX_POINT('',#1299);
#609=VERTEX_POINT('',#1301);
#610=VERTEX_POINT('',#1305);
#611=VERTEX_POINT('',#1306);
#612=VERTEX_POINT('',#1308);
#613=VERTEX_POINT('',#1310);
#614=VERTEX_POINT('',#1314);
#615=VERTEX_POINT('',#1315);
#616=VERTEX_POINT('',#1317);
#617=VERTEX_POINT('',#1319);
#618=VERTEX_POINT('',#1323);
#619=VERTEX_POINT('',#1324);
#620=VERTEX_POINT('',#1326);
#621=VERTEX_POINT('',#1328);
#622=VERTEX_POINT('',#1332);
#623=VERTEX_POINT('',#1333);
#624=VERTEX_POINT('',#1335);
#625=VERTEX_POINT('',#1337);
#626=VERTEX_POINT('',#1341);
#627=VERTEX_POINT('',#1342);
#628=VERTEX_POINT('',#1344);
#629=VERTEX_POINT('',#1346);
#630=VERTEX_POINT('',#1350);
#631=VERTEX_POINT('',#1351);
#632=VERTEX_POINT('',#1353);
#633=VERTEX_POINT('',#1355);
#634=VERTEX_POINT('',#1359);
#635=VERTEX_POINT('',#1360);
#636=VERTEX_POINT('',#1362);
#637=VERTEX_POINT('',#1364);
#638=VERTEX_POINT('',#1368);
#639=VERTEX_POINT('',#1369);
#640=VERTEX_POINT('',#1371);
#641=VERTEX_POINT('',#1373);
#642=CIRCLE('',#846,3.6);
#643=CIRCLE('',#847,3.6);
#644=CIRCLE('',#852,3.6);
#645=CIRCLE('',#853,3.6);
#646=CIRCLE('',#858,3.6);
#647=CIRCLE('',#859,3.6);
#648=CIRCLE('',#864,3.6);
#649=CIRCLE('',#865,3.6);
#650=CIRCLE('',#869,2.4);
#651=CIRCLE('',#870,2.4);
#652=CIRCLE('',#874,2.4);
#653=CIRCLE('',#875,2.4);
#654=CIRCLE('',#879,2.4);
#655=CIRCLE('',#880,2.4);
#656=CIRCLE('',#884,2.4);
#657=CIRCLE('',#885,2.4);
#658=CIRCLE('',#890,0.1);
#659=CIRCLE('',#891,0.5);
#660=CIRCLE('',#892,0.1);
#661=CIRCLE('',#893,0.1);
#662=CIRCLE('',#894,0.5);
#663=CIRCLE('',#895,0.1);
#664=CIRCLE('',#896,0.1);
#665=CIRCLE('',#897,0.5);
#666=CIRCLE('',#898,0.1);
#667=CIRCLE('',#899,0.1);
#668=CIRCLE('',#900,0.5);
#669=CIRCLE('',#901,0.1);
#670=CIRCLE('',#903,0.5);
#671=CIRCLE('',#904,0.1);
#672=CIRCLE('',#905,0.1);
#673=CIRCLE('',#906,0.5);
#674=CIRCLE('',#907,0.1);
#675=CIRCLE('',#908,0.1);
#676=CIRCLE('',#909,0.5);
#677=CIRCLE('',#910,0.1);
#678=CIRCLE('',#911,0.1);
#679=CIRCLE('',#912,0.5);
#680=CIRCLE('',#913,0.1);
#681=CIRCLE('',#914,0.1);
#682=EDGE_LOOP('',(#202,#203,#204,#205));
#683=EDGE_LOOP('',(#206,#207,#208,#209));
#684=EDGE_LOOP('',(#210,#211,#212,#213));
#685=EDGE_LOOP('',(#214,#215,#216,#217));
#686=EDGE_LOOP('',(#218,#219,#220,#221));
#687=EDGE_LOOP('',(#222,#223,#224,#225));
#688=EDGE_LOOP('',(#226,#227,#228,#229));
#689=EDGE_LOOP('',(#230,#231,#232,#233));
#690=EDGE_LOOP('',(#234,#235,#236,#237));
#691=EDGE_LOOP('',(#238,#239,#240,#241));
#692=EDGE_LOOP('',(#242,#243,#244,#245));
#693=EDGE_LOOP('',(#246,#247,#248,#249));
#694=EDGE_LOOP('',(#250,#251,#252,#253));
#695=EDGE_LOOP('',(#254,#255,#256,#257));
#696=EDGE_LOOP('',(#258,#259,#260,#261));
#697=EDGE_LOOP('',(#262,#263,#264,#265));
#698=EDGE_LOOP('',(#266,#267,#268,#269));
#699=EDGE_LOOP('',(#270,#271,#272,#273));
#700=EDGE_LOOP('',(#274,#275,#276,#277));
#701=EDGE_LOOP('',(#278,#279,#280,#281));
#702=EDGE_LOOP('',(#282,#283,#284,#285));
#703=EDGE_LOOP('',(#286,#287,#288,#289));
#704=EDGE_LOOP('',(#290,#291,#292,#293));
#705=EDGE_LOOP('',(#294,#295,#296,#297));
#706=EDGE_LOOP('',(#298,#299,#300,#301));
#707=EDGE_LOOP('',(#302,#303,#304,#305));
#708=EDGE_LOOP('',(#306,#307,#308,#309));
#709=EDGE_LOOP('',(#310,#311,#312,#313));
#710=EDGE_LOOP('',(#314,#315,#316,#317,#318,#319,#320,#321,#322,#323,#324,
#325,#326,#327,#328,#329,#330,#331,#332,#333,#334,#335,#336,#337));
#711=EDGE_LOOP('',(#338,#339,#340,#341,#342,#343,#344,#345,#346,#347,#348,
#349,#350,#351,#352,#353));
#712=EDGE_LOOP('',(#354,#355,#356,#357,#358,#359,#360,#361,#362,#363,#364,
#365,#366,#367,#368,#369,#370,#371,#372,#373,#374,#375,#376,#377));
#713=EDGE_LOOP('',(#378,#379,#380,#381,#382,#383,#384,#385,#386,#387,#388,
#389,#390,#391,#392,#393));
#714=EDGE_LOOP('',(#394,#395,#396,#397));
#715=EDGE_LOOP('',(#398,#399,#400,#401));
#716=EDGE_LOOP('',(#402,#403,#404,#405));
#717=EDGE_LOOP('',(#406,#407,#408,#409));
#718=EDGE_LOOP('',(#410,#411,#412,#413));
#719=EDGE_LOOP('',(#414,#415,#416,#417));
#720=EDGE_LOOP('',(#418,#419,#420,#421));
#721=EDGE_LOOP('',(#422,#423,#424,#425));
#722=EDGE_LOOP('',(#426,#427,#428,#429));
#723=EDGE_LOOP('',(#430,#431,#432,#433));
#724=EDGE_LOOP('',(#434,#435,#436,#437));
#725=EDGE_LOOP('',(#438,#439,#440,#441));
#726=FACE_BOUND('',#682,.T.);
#727=FACE_BOUND('',#683,.T.);
#728=FACE_BOUND('',#684,.T.);
#729=FACE_BOUND('',#685,.T.);
#730=FACE_BOUND('',#686,.T.);
#731=FACE_BOUND('',#687,.T.);
#732=FACE_BOUND('',#688,.T.);
#733=FACE_BOUND('',#689,.T.);
#734=FACE_BOUND('',#690,.T.);
#735=FACE_BOUND('',#691,.T.);
#736=FACE_BOUND('',#692,.T.);
#737=FACE_BOUND('',#693,.T.);
#738=FACE_BOUND('',#694,.T.);
#739=FACE_BOUND('',#695,.T.);
#740=FACE_BOUND('',#696,.T.);
#741=FACE_BOUND('',#697,.T.);
#742=FACE_BOUND('',#698,.T.);
#743=FACE_BOUND('',#699,.T.);
#744=FACE_BOUND('',#700,.T.);
#745=FACE_BOUND('',#701,.T.);
#746=FACE_BOUND('',#702,.T.);
#747=FACE_BOUND('',#703,.T.);
#748=FACE_BOUND('',#704,.T.);
#749=FACE_BOUND('',#705,.T.);
#750=FACE_BOUND('',#706,.T.);
#751=FACE_BOUND('',#707,.T.);
#752=FACE_BOUND('',#708,.T.);
#753=FACE_BOUND('',#709,.T.);
#754=FACE_BOUND('',#710,.T.);
#755=FACE_BOUND('',#711,.T.);
#756=FACE_BOUND('',#712,.T.);
#757=FACE_BOUND('',#713,.T.);
#758=FACE_BOUND('',#714,.T.);
#759=FACE_BOUND('',#715,.T.);
#760=FACE_BOUND('',#716,.T.);
#761=FACE_BOUND('',#717,.T.);
#762=FACE_BOUND('',#718,.T.);
#763=FACE_BOUND('',#719,.T.);
#764=FACE_BOUND('',#720,.T.);
#765=FACE_BOUND('',#721,.T.);
#766=FACE_BOUND('',#722,.T.);
#767=FACE_BOUND('',#723,.T.);
#768=FACE_BOUND('',#724,.T.);
#769=FACE_BOUND('',#725,.T.);
#770=CYLINDRICAL_SURFACE('',#845,3.6);
#771=CYLINDRICAL_SURFACE('',#851,3.6);
#772=CYLINDRICAL_SURFACE('',#857,3.6);
#773=CYLINDRICAL_SURFACE('',#863,3.6);
#774=CYLINDRICAL_SURFACE('',#868,2.4);
#775=CYLINDRICAL_SURFACE('',#873,2.4);
#776=CYLINDRICAL_SURFACE('',#878,2.4);
#777=CYLINDRICAL_SURFACE('',#883,2.4);
#778=CYLINDRICAL_SURFACE('',#915,0.5);
#779=CYLINDRICAL_SURFACE('',#916,0.5);
#780=CYLINDRICAL_SURFACE('',#917,0.5);
#781=CYLINDRICAL_SURFACE('',#918,0.5);
#782=CYLINDRICAL_SURFACE('',#919,0.1);
#783=CYLINDRICAL_SURFACE('',#920,0.1);
#784=CYLINDRICAL_SURFACE('',#921,0.1);
#785=CYLINDRICAL_SURFACE('',#922,0.1);
#786=CYLINDRICAL_SURFACE('',#923,0.1);
#787=CYLINDRICAL_SURFACE('',#924,0.1);
#788=CYLINDRICAL_SURFACE('',#925,0.1);
#789=CYLINDRICAL_SURFACE('',#926,0.1);
#790=ADVANCED_FACE('',(#726),#770,.T.);
#791=ADVANCED_FACE('',(#727),#20,.F.);
#792=ADVANCED_FACE('',(#728),#21,.F.);
#793=ADVANCED_FACE('',(#729),#22,.F.);
#794=ADVANCED_FACE('',(#730),#771,.T.);
#795=ADVANCED_FACE('',(#731),#23,.F.);
#796=ADVANCED_FACE('',(#732),#24,.F.);
#797=ADVANCED_FACE('',(#733),#25,.F.);
#798=ADVANCED_FACE('',(#734),#772,.T.);
#799=ADVANCED_FACE('',(#735),#26,.F.);
#800=ADVANCED_FACE('',(#736),#27,.F.);
#801=ADVANCED_FACE('',(#737),#28,.F.);
#802=ADVANCED_FACE('',(#738),#773,.T.);
#803=ADVANCED_FACE('',(#739),#29,.F.);
#804=ADVANCED_FACE('',(#740),#30,.F.);
#805=ADVANCED_FACE('',(#741),#774,.F.);
#806=ADVANCED_FACE('',(#742),#31,.F.);
#807=ADVANCED_FACE('',(#743),#32,.F.);
#808=ADVANCED_FACE('',(#744),#775,.F.);
#809=ADVANCED_FACE('',(#745),#33,.F.);
#810=ADVANCED_FACE('',(#746),#34,.F.);
#811=ADVANCED_FACE('',(#747),#776,.F.);
#812=ADVANCED_FACE('',(#748),#35,.F.);
#813=ADVANCED_FACE('',(#749),#36,.F.);
#814=ADVANCED_FACE('',(#750),#777,.F.);
#815=ADVANCED_FACE('',(#751),#37,.F.);
#816=ADVANCED_FACE('',(#752),#38,.F.);
#817=ADVANCED_FACE('',(#753),#39,.F.);
#818=ADVANCED_FACE('',(#754,#755),#40,.T.);
#819=ADVANCED_FACE('',(#756,#757),#41,.F.);
#820=ADVANCED_FACE('',(#758),#778,.T.);
#821=ADVANCED_FACE('',(#759),#779,.T.);
#822=ADVANCED_FACE('',(#760),#780,.T.);
#823=ADVANCED_FACE('',(#761),#781,.T.);
#824=ADVANCED_FACE('',(#762),#782,.F.);
#825=ADVANCED_FACE('',(#763),#783,.F.);
#826=ADVANCED_FACE('',(#764),#784,.F.);
#827=ADVANCED_FACE('',(#765),#785,.F.);
#828=ADVANCED_FACE('',(#766),#786,.F.);
#829=ADVANCED_FACE('',(#767),#787,.F.);
#830=ADVANCED_FACE('',(#768),#788,.F.);
#831=ADVANCED_FACE('',(#769),#789,.F.);
#832=CLOSED_SHELL('',(#790,#791,#792,#793,#794,#795,#796,#797,#798,#799,
#800,#801,#802,#803,#804,#805,#806,#807,#808,#809,#810,#811,#812,#813,#814,
#815,#816,#817,#818,#819,#820,#821,#822,#823,#824,#825,#826,#827,#828,#829,
#830,#831));
#833=STYLED_ITEM('',(#834),#841);
#834=PRESENTATION_STYLE_ASSIGNMENT((#835));
#835=SURFACE_STYLE_USAGE(.BOTH.,#836);
#836=SURFACE_SIDE_STYLE('',(#837));
#837=SURFACE_STYLE_FILL_AREA(#838);
#838=FILL_AREA_STYLE('',(#839));
#839=FILL_AREA_STYLE_COLOUR('',#840);
#840=COLOUR_RGB('',0.5,0.5,0.5);
#841=MANIFOLD_SOLID_BREP('',#832);
#842=SHAPE_DEFINITION_REPRESENTATION(#1422,#843);
#843=SHAPE_REPRESENTATION('Gray_4516546_JCA',(#844),#1417);
#844=AXIS2_PLACEMENT_3D('',#1173,#927,#928);
#845=AXIS2_PLACEMENT_3D('',#1174,#929,#930);
#846=AXIS2_PLACEMENT_3D('',#1175,#931,#932);
#847=AXIS2_PLACEMENT_3D('',#1180,#934,#935);
#848=AXIS2_PLACEMENT_3D('',#1183,#937,#938);
#849=AXIS2_PLACEMENT_3D('',#1189,#942,#943);
#850=AXIS2_PLACEMENT_3D('',#1195,#947,#948);
#851=AXIS2_PLACEMENT_3D('',#1201,#952,#953);
#852=AXIS2_PLACEMENT_3D('',#1202,#954,#955);
#853=AXIS2_PLACEMENT_3D('',#1206,#957,#958);
#854=AXIS2_PLACEMENT_3D('',#1207,#959,#960);
#855=AXIS2_PLACEMENT_3D('',#1213,#964,#965);
#856=AXIS2_PLACEMENT_3D('',#1219,#969,#970);
#857=AXIS2_PLACEMENT_3D('',#1225,#974,#975);
#858=AXIS2_PLACEMENT_3D('',#1226,#976,#977);
#859=AXIS2_PLACEMENT_3D('',#1230,#979,#980);
#860=AXIS2_PLACEMENT_3D('',#1231,#981,#982);
#861=AXIS2_PLACEMENT_3D('',#1237,#986,#987);
#862=AXIS2_PLACEMENT_3D('',#1243,#991,#992);
#863=AXIS2_PLACEMENT_3D('',#1249,#996,#997);
#864=AXIS2_PLACEMENT_3D('',#1250,#998,#999);
#865=AXIS2_PLACEMENT_3D('',#1254,#1001,#1002);
#866=AXIS2_PLACEMENT_3D('',#1255,#1003,#1004);
#867=AXIS2_PLACEMENT_3D('',#1261,#1008,#1009);
#868=AXIS2_PLACEMENT_3D('',#1267,#1013,#1014);
#869=AXIS2_PLACEMENT_3D('',#1268,#1015,#1016);
#870=AXIS2_PLACEMENT_3D('',#1273,#1018,#1019);
#871=AXIS2_PLACEMENT_3D('',#1276,#1021,#1022);
#872=AXIS2_PLACEMENT_3D('',#1285,#1027,#1028);
#873=AXIS2_PLACEMENT_3D('',#1294,#1033,#1034);
#874=AXIS2_PLACEMENT_3D('',#1295,#1035,#1036);
#875=AXIS2_PLACEMENT_3D('',#1300,#1038,#1039);
#876=AXIS2_PLACEMENT_3D('',#1303,#1041,#1042);
#877=AXIS2_PLACEMENT_3D('',#1312,#1047,#1048);
#878=AXIS2_PLACEMENT_3D('',#1321,#1053,#1054);
#879=AXIS2_PLACEMENT_3D('',#1322,#1055,#1056);
#880=AXIS2_PLACEMENT_3D('',#1327,#1058,#1059);
#881=AXIS2_PLACEMENT_3D('',#1330,#1061,#1062);
#882=AXIS2_PLACEMENT_3D('',#1339,#1067,#1068);
#883=AXIS2_PLACEMENT_3D('',#1348,#1073,#1074);
#884=AXIS2_PLACEMENT_3D('',#1349,#1075,#1076);
#885=AXIS2_PLACEMENT_3D('',#1354,#1078,#1079);
#886=AXIS2_PLACEMENT_3D('',#1357,#1081,#1082);
#887=AXIS2_PLACEMENT_3D('',#1366,#1087,#1088);
#888=AXIS2_PLACEMENT_3D('',#1375,#1093,#1094);
#889=AXIS2_PLACEMENT_3D('',#1378,#1097,#1098);
#890=AXIS2_PLACEMENT_3D('',#1379,#1099,#1100);
#891=AXIS2_PLACEMENT_3D('',#1380,#1101,#1102);
#892=AXIS2_PLACEMENT_3D('',#1381,#1103,#1104);
#893=AXIS2_PLACEMENT_3D('',#1382,#1105,#1106);
#894=AXIS2_PLACEMENT_3D('',#1383,#1107,#1108);
#895=AXIS2_PLACEMENT_3D('',#1384,#1109,#1110);
#896=AXIS2_PLACEMENT_3D('',#1385,#1111,#1112);
#897=AXIS2_PLACEMENT_3D('',#1386,#1113,#1114);
#898=AXIS2_PLACEMENT_3D('',#1387,#1115,#1116);
#899=AXIS2_PLACEMENT_3D('',#1388,#1117,#1118);
#900=AXIS2_PLACEMENT_3D('',#1389,#1119,#1120);
#901=AXIS2_PLACEMENT_3D('',#1390,#1121,#1122);
#902=AXIS2_PLACEMENT_3D('',#1391,#1123,#1124);
#903=AXIS2_PLACEMENT_3D('',#1392,#1125,#1126);
#904=AXIS2_PLACEMENT_3D('',#1393,#1127,#1128);
#905=AXIS2_PLACEMENT_3D('',#1394,#1129,#1130);
#906=AXIS2_PLACEMENT_3D('',#1395,#1131,#1132);
#907=AXIS2_PLACEMENT_3D('',#1396,#1133,#1134);
#908=AXIS2_PLACEMENT_3D('',#1397,#1135,#1136);
#909=AXIS2_PLACEMENT_3D('',#1398,#1137,#1138);
#910=AXIS2_PLACEMENT_3D('',#1399,#1139,#1140);
#911=AXIS2_PLACEMENT_3D('',#1400,#1141,#1142);
#912=AXIS2_PLACEMENT_3D('',#1401,#1143,#1144);
#913=AXIS2_PLACEMENT_3D('',#1402,#1145,#1146);
#914=AXIS2_PLACEMENT_3D('',#1403,#1147,#1148);
#915=AXIS2_PLACEMENT_3D('',#1404,#1149,#1150);
#916=AXIS2_PLACEMENT_3D('',#1405,#1151,#1152);
#917=AXIS2_PLACEMENT_3D('',#1406,#1153,#1154);
#918=AXIS2_PLACEMENT_3D('',#1407,#1155,#1156);
#919=AXIS2_PLACEMENT_3D('',#1408,#1157,#1158);
#920=AXIS2_PLACEMENT_3D('',#1409,#1159,#1160);
#921=AXIS2_PLACEMENT_3D('',#1410,#1161,#1162);
#922=AXIS2_PLACEMENT_3D('',#1411,#1163,#1164);
#923=AXIS2_PLACEMENT_3D('',#1412,#1165,#1166);
#924=AXIS2_PLACEMENT_3D('',#1413,#1167,#1168);
#925=AXIS2_PLACEMENT_3D('',#1414,#1169,#1170);
#926=AXIS2_PLACEMENT_3D('',#1415,#1171,#1172);
#927=DIRECTION('',(0.,0.,1.));
#928=DIRECTION('',(1.,0.,0.));
#929=DIRECTION('',(0.,-1.,0.));
#930=DIRECTION('',(0.,0.,-1.));
#931=DIRECTION('',(0.,1.,0.));
#932=DIRECTION('',(1.,0.,0.));
#933=DIRECTION('',(0.,-1.,0.));
#934=DIRECTION('',(0.,1.,0.));
#935=DIRECTION('',(1.,0.,0.));
#936=DIRECTION('',(0.,-1.,0.));
#937=DIRECTION('',(-0.930355567855788,0.,-0.366658584189344));
#938=DIRECTION('',(-0.366658584189344,0.,0.930355567855788));
#939=DIRECTION('',(0.366658584189344,0.,-0.930355567855788));
#940=DIRECTION('',(0.,-1.,0.));
#941=DIRECTION('',(0.366658584189344,0.,-0.930355567855788));
#942=DIRECTION('',(-0.707106781186547,0.,-0.707106781186548));
#943=DIRECTION('',(-0.707106781186548,0.,0.707106781186547));
#944=DIRECTION('',(0.707106781186548,0.,-0.707106781186547));
#945=DIRECTION('',(0.,-1.,0.));
#946=DIRECTION('',(0.707106781186548,0.,-0.707106781186547));
#947=DIRECTION('',(-0.366658584189344,0.,-0.930355567855788));
#948=DIRECTION('',(-0.930355567855788,0.,0.366658584189344));
#949=DIRECTION('',(0.930355567855788,0.,-0.366658584189344));
#950=DIRECTION('',(0.,-1.,0.));
#951=DIRECTION('',(0.930355567855788,0.,-0.366658584189344));
#952=DIRECTION('',(0.,-1.,0.));
#953=DIRECTION('',(0.,0.,-1.));
#954=DIRECTION('',(0.,1.,0.));
#955=DIRECTION('',(-1.,0.,0.));
#956=DIRECTION('',(0.,-1.,0.));
#957=DIRECTION('',(0.,1.,0.));
#958=DIRECTION('',(-1.,0.,0.));
#959=DIRECTION('',(-0.366658584189344,0.,0.930355567855788));
#960=DIRECTION('',(0.930355567855788,0.,0.366658584189344));
#961=DIRECTION('',(-0.930355567855788,0.,-0.366658584189344));
#962=DIRECTION('',(0.,-1.,0.));
#963=DIRECTION('',(-0.930355567855788,0.,-0.366658584189344));
#964=DIRECTION('',(-0.707106781186547,0.,0.707106781186548));
#965=DIRECTION('',(0.707106781186548,0.,0.707106781186547));
#966=DIRECTION('',(-0.707106781186548,0.,-0.707106781186547));
#967=DIRECTION('',(0.,-1.,0.));
#968=DIRECTION('',(-0.707106781186548,0.,-0.707106781186547));
#969=DIRECTION('',(-0.930355567855788,0.,0.366658584189344));
#970=DIRECTION('',(0.366658584189344,0.,0.930355567855788));
#971=DIRECTION('',(-0.366658584189344,0.,-0.930355567855788));
#972=DIRECTION('',(0.,-1.,0.));
#973=DIRECTION('',(-0.366658584189344,0.,-0.930355567855788));
#974=DIRECTION('',(0.,-1.,0.));
#975=DIRECTION('',(0.,0.,-1.));
#976=DIRECTION('',(0.,1.,0.));
#977=DIRECTION('',(1.,0.,0.));
#978=DIRECTION('',(0.,-1.,0.));
#979=DIRECTION('',(0.,1.,0.));
#980=DIRECTION('',(1.,0.,0.));
#981=DIRECTION('',(0.930355567855788,0.,0.366658584189344));
#982=DIRECTION('',(0.366658584189344,0.,-0.930355567855788));
#983=DIRECTION('',(-0.366658584189344,0.,0.930355567855788));
#984=DIRECTION('',(0.,-1.,0.));
#985=DIRECTION('',(-0.366658584189344,0.,0.930355567855788));
#986=DIRECTION('',(0.707106781186548,0.,0.707106781186547));
#987=DIRECTION('',(0.707106781186547,0.,-0.707106781186548));
#988=DIRECTION('',(-0.707106781186547,0.,0.707106781186548));
#989=DIRECTION('',(0.,-1.,0.));
#990=DIRECTION('',(-0.707106781186547,0.,0.707106781186548));
#991=DIRECTION('',(0.366658584189344,0.,0.930355567855788));
#992=DIRECTION('',(0.930355567855788,0.,-0.366658584189344));
#993=DIRECTION('',(-0.930355567855788,0.,0.366658584189344));
#994=DIRECTION('',(0.,-1.,0.));
#995=DIRECTION('',(-0.930355567855788,0.,0.366658584189344));
#996=DIRECTION('',(0.,-1.,0.));
#997=DIRECTION('',(0.,0.,-1.));
#998=DIRECTION('',(0.,1.,0.));
#999=DIRECTION('',(1.,0.,0.));
#1000=DIRECTION('',(0.,-1.,0.));
#1001=DIRECTION('',(0.,1.,0.));
#1002=DIRECTION('',(1.,0.,0.));
#1003=DIRECTION('',(0.366658584189343,0.,-0.930355567855788));
#1004=DIRECTION('',(-0.930355567855788,0.,-0.366658584189343));
#1005=DIRECTION('',(0.930355567855788,0.,0.366658584189343));
#1006=DIRECTION('',(0.,-1.,0.));
#1007=DIRECTION('',(0.930355567855788,0.,0.366658584189343));
#1008=DIRECTION('',(0.707106781186547,0.,-0.707106781186548));
#1009=DIRECTION('',(-0.707106781186548,0.,-0.707106781186547));
#1010=DIRECTION('',(0.707106781186548,0.,0.707106781186547));
#1011=DIRECTION('',(0.,-1.,0.));
#1012=DIRECTION('',(0.707106781186548,0.,0.707106781186547));
#1013=DIRECTION('',(0.,-1.,0.));
#1014=DIRECTION('',(0.,0.,-1.));
#1015=DIRECTION('',(0.,-1.,0.));
#1016=DIRECTION('',(-1.,0.,0.));
#1017=DIRECTION('',(0.,-1.,0.));
#1018=DIRECTION('',(0.,-1.,0.));
#1019=DIRECTION('',(-1.,0.,0.));
#1020=DIRECTION('',(0.,-1.,0.));
#1021=DIRECTION('',(0.,0.,1.));
#1022=DIRECTION('',(1.,0.,0.));
#1023=DIRECTION('',(-1.,0.,0.));
#1024=DIRECTION('',(0.,1.,0.));
#1025=DIRECTION('',(-1.,0.,0.));
#1026=DIRECTION('',(0.,-1.,0.));
#1027=DIRECTION('',(1.,0.,0.));
#1028=DIRECTION('',(0.,0.,-1.));
#1029=DIRECTION('',(0.,0.,1.));
#1030=DIRECTION('',(0.,1.,0.));
#1031=DIRECTION('',(0.,0.,1.));
#1032=DIRECTION('',(0.,-1.,0.));
#1033=DIRECTION('',(0.,-1.,0.));
#1034=DIRECTION('',(0.,0.,-1.));
#1035=DIRECTION('',(0.,-1.,0.));
#1036=DIRECTION('',(1.,0.,0.));
#1037=DIRECTION('',(0.,-1.,0.));
#1038=DIRECTION('',(0.,-1.,0.));
#1039=DIRECTION('',(1.,0.,0.));
#1040=DIRECTION('',(0.,-1.,0.));
#1041=DIRECTION('',(-1.,0.,0.));
#1042=DIRECTION('',(0.,0.,1.));
#1043=DIRECTION('',(0.,0.,-1.));
#1044=DIRECTION('',(0.,1.,0.));
#1045=DIRECTION('',(0.,0.,-1.));
#1046=DIRECTION('',(0.,-1.,0.));
#1047=DIRECTION('',(-1.63670507663034E-16,0.,1.));
#1048=DIRECTION('',(1.,0.,1.63670507663034E-16));
#1049=DIRECTION('',(-1.,0.,-1.63670507663034E-16));
#1050=DIRECTION('',(0.,1.,0.));
#1051=DIRECTION('',(-1.,0.,-1.63670507663034E-16));
#1052=DIRECTION('',(0.,-1.,0.));
#1053=DIRECTION('',(0.,-1.,0.));
#1054=DIRECTION('',(0.,0.,-1.));
#1055=DIRECTION('',(0.,-1.,0.));
#1056=DIRECTION('',(1.,0.,0.));
#1057=DIRECTION('',(0.,-1.,0.));
#1058=DIRECTION('',(0.,-1.,0.));
#1059=DIRECTION('',(1.,0.,0.));
#1060=DIRECTION('',(0.,-1.,0.));
#1061=DIRECTION('',(0.,0.,-1.));
#1062=DIRECTION('',(-1.,0.,0.));
#1063=DIRECTION('',(1.,0.,0.));
#1064=DIRECTION('',(0.,1.,0.));
#1065=DIRECTION('',(1.,0.,0.));
#1066=DIRECTION('',(0.,-1.,0.));
#1067=DIRECTION('',(-1.,0.,-1.63670507663034E-16));
#1068=DIRECTION('',(-1.63670507663034E-16,0.,1.));
#1069=DIRECTION('',(1.63670507663034E-16,0.,-1.));
#1070=DIRECTION('',(0.,1.,0.));
#1071=DIRECTION('',(1.63670507663034E-16,0.,-1.));
#1072=DIRECTION('',(0.,-1.,0.));
#1073=DIRECTION('',(0.,-1.,0.));
#1074=DIRECTION('',(0.,0.,-1.));
#1075=DIRECTION('',(0.,-1.,0.));
#1076=DIRECTION('',(1.,0.,0.));
#1077=DIRECTION('',(0.,-1.,0.));
#1078=DIRECTION('',(0.,-1.,0.));
#1079=DIRECTION('',(1.,0.,0.));
#1080=DIRECTION('',(0.,-1.,0.));
#1081=DIRECTION('',(1.,0.,0.));
#1082=DIRECTION('',(0.,0.,-1.));
#1083=DIRECTION('',(0.,0.,1.));
#1084=DIRECTION('',(0.,1.,0.));
#1085=DIRECTION('',(0.,0.,1.));
#1086=DIRECTION('',(0.,-1.,0.));
#1087=DIRECTION('',(-8.1835253831517E-17,0.,-1.));
#1088=DIRECTION('',(-1.,0.,8.1835253831517E-17));
#1089=DIRECTION('',(1.,0.,-8.1835253831517E-17));
#1090=DIRECTION('',(0.,1.,0.));
#1091=DIRECTION('',(1.,0.,-8.1835253831517E-17));
#1092=DIRECTION('',(0.,-1.,0.));
#1093=DIRECTION('',(0.930355567855788,0.,-0.366658584189344));
#1094=DIRECTION('',(-0.366658584189344,0.,-0.930355567855788));
#1095=DIRECTION('',(0.366658584189344,0.,0.930355567855788));
#1096=DIRECTION('',(0.366658584189344,0.,0.930355567855788));
#1097=DIRECTION('',(0.,1.,0.));
#1098=DIRECTION('',(0.,0.,1.));
#1099=DIRECTION('',(0.,1.,0.));
#1100=DIRECTION('',(0.,0.,1.));
#1101=DIRECTION('',(0.,1.,0.));
#1102=DIRECTION('',(0.,0.,1.));
#1103=DIRECTION('',(0.,1.,0.));
#1104=DIRECTION('',(0.,0.,1.));
#1105=DIRECTION('',(0.,1.,0.));
#1106=DIRECTION('',(0.,0.,1.));
#1107=DIRECTION('',(0.,1.,0.));
#1108=DIRECTION('',(0.,0.,1.));
#1109=DIRECTION('',(0.,1.,0.));
#1110=DIRECTION('',(0.,0.,1.));
#1111=DIRECTION('',(0.,1.,0.));
#1112=DIRECTION('',(0.,0.,1.));
#1113=DIRECTION('',(0.,1.,0.));
#1114=DIRECTION('',(0.,0.,1.));
#1115=DIRECTION('',(0.,1.,0.));
#1116=DIRECTION('',(0.,0.,1.));
#1117=DIRECTION('',(0.,1.,0.));
#1118=DIRECTION('',(0.,0.,1.));
#1119=DIRECTION('',(0.,1.,0.));
#1120=DIRECTION('',(0.,0.,1.));
#1121=DIRECTION('',(0.,1.,0.));
#1122=DIRECTION('',(0.,0.,1.));
#1123=DIRECTION('',(0.,1.,0.));
#1124=DIRECTION('',(0.,0.,1.));
#1125=DIRECTION('',(0.,1.,0.));
#1126=DIRECTION('',(0.,0.,1.));
#1127=DIRECTION('',(0.,1.,0.));
#1128=DIRECTION('',(0.,0.,1.));
#1129=DIRECTION('',(0.,1.,0.));
#1130=DIRECTION('',(0.,0.,1.));
#1131=DIRECTION('',(0.,1.,0.));
#1132=DIRECTION('',(0.,0.,1.));
#1133=DIRECTION('',(0.,1.,0.));
#1134=DIRECTION('',(0.,0.,1.));
#1135=DIRECTION('',(0.,1.,0.));
#1136=DIRECTION('',(0.,0.,1.));
#1137=DIRECTION('',(0.,1.,0.));
#1138=DIRECTION('',(0.,0.,1.));
#1139=DIRECTION('',(0.,1.,0.));
#1140=DIRECTION('',(0.,0.,1.));
#1141=DIRECTION('',(0.,1.,0.));
#1142=DIRECTION('',(0.,0.,1.));
#1143=DIRECTION('',(0.,1.,0.));
#1144=DIRECTION('',(0.,0.,1.));
#1145=DIRECTION('',(0.,1.,0.));
#1146=DIRECTION('',(0.,0.,1.));
#1147=DIRECTION('',(0.,1.,0.));
#1148=DIRECTION('',(0.,0.,1.));
#1149=DIRECTION('',(0.,-1.,0.));
#1150=DIRECTION('',(0.,0.,-1.));
#1151=DIRECTION('',(0.,-1.,0.));
#1152=DIRECTION('',(0.,0.,-1.));
#1153=DIRECTION('',(0.,-1.,0.));
#1154=DIRECTION('',(0.,0.,-1.));
#1155=DIRECTION('',(0.,-1.,0.));
#1156=DIRECTION('',(0.,0.,-1.));
#1157=DIRECTION('',(0.,-1.,0.));
#1158=DIRECTION('',(0.,0.,-1.));
#1159=DIRECTION('',(0.,-1.,0.));
#1160=DIRECTION('',(0.,0.,-1.));
#1161=DIRECTION('',(0.,-1.,0.));
#1162=DIRECTION('',(0.,0.,-1.));
#1163=DIRECTION('',(0.,-1.,0.));
#1164=DIRECTION('',(0.,0.,-1.));
#1165=DIRECTION('',(0.,-1.,0.));
#1166=DIRECTION('',(0.,0.,-1.));
#1167=DIRECTION('',(0.,-1.,0.));
#1168=DIRECTION('',(0.,0.,-1.));
#1169=DIRECTION('',(0.,-1.,0.));
#1170=DIRECTION('',(0.,0.,-1.));
#1171=DIRECTION('',(0.,-1.,0.));
#1172=DIRECTION('',(0.,0.,-1.));
#1173=CARTESIAN_POINT('',(0.,0.,0.));
#1174=CARTESIAN_POINT('',(0.,16.,0.));
#1175=CARTESIAN_POINT('',(0.,0.,0.));
#1176=CARTESIAN_POINT('',(-1.56242977306435,0.,3.24327199048154));
#1177=CARTESIAN_POINT('',(1.56242977306435,0.,3.24327199048154));
#1178=CARTESIAN_POINT('',(1.56242977306435,16.,3.24327199048154));
#1179=CARTESIAN_POINT('',(1.56242977306435,16.,3.24327199048154));
#1180=CARTESIAN_POINT('',(0.,16.,0.));
#1181=CARTESIAN_POINT('',(-1.56242977306435,16.,3.24327199048154));
#1182=CARTESIAN_POINT('',(-1.56242977306435,16.,3.24327199048154));
#1183=CARTESIAN_POINT('',(1.56242977306435,16.,3.24327199048154));
#1184=CARTESIAN_POINT('',(1.56242977306435,0.,3.24327199048154));
#1185=CARTESIAN_POINT('',(1.89364465959652,0.,2.40285088177294));
#1186=CARTESIAN_POINT('',(1.89364465959652,16.,2.40285088177294));
#1187=CARTESIAN_POINT('',(1.89364465959652,16.,2.40285088177294));
#1188=CARTESIAN_POINT('',(1.56242977306435,16.,3.24327199048154));
#1189=CARTESIAN_POINT('',(1.89364465959652,16.,2.40285088177294));
#1190=CARTESIAN_POINT('',(1.89364465959652,0.,2.40285088177294));
#1191=CARTESIAN_POINT('',(2.40285088177294,0.,1.89364465959652));
#1192=CARTESIAN_POINT('',(2.40285088177294,16.,1.89364465959652));
#1193=CARTESIAN_POINT('',(2.40285088177294,16.,1.89364465959652));
#1194=CARTESIAN_POINT('',(1.89364465959652,16.,2.40285088177294));
#1195=CARTESIAN_POINT('',(3.24327199048154,16.,1.56242977306435));
#1196=CARTESIAN_POINT('',(3.24327199048154,0.,1.56242977306435));
#1197=CARTESIAN_POINT('',(3.24327199048154,0.,1.56242977306435));
#1198=CARTESIAN_POINT('',(3.24327199048154,16.,1.56242977306435));
#1199=CARTESIAN_POINT('',(3.24327199048154,16.,1.56242977306435));
#1200=CARTESIAN_POINT('',(3.24327199048154,16.,1.56242977306435));
#1201=CARTESIAN_POINT('',(0.,16.,0.));
#1202=CARTESIAN_POINT('',(0.,0.,0.));
#1203=CARTESIAN_POINT('',(3.24327199048154,0.,-1.56242977306435));
#1204=CARTESIAN_POINT('',(3.24327199048154,16.,-1.56242977306435));
#1205=CARTESIAN_POINT('',(3.24327199048154,16.,-1.56242977306435));
#1206=CARTESIAN_POINT('',(0.,16.,0.));
#1207=CARTESIAN_POINT('',(2.40285088177294,16.,-1.89364465959652));
#1208=CARTESIAN_POINT('',(2.40285088177294,0.,-1.89364465959652));
#1209=CARTESIAN_POINT('',(2.40285088177294,0.,-1.89364465959652));
#1210=CARTESIAN_POINT('',(2.40285088177294,16.,-1.89364465959652));
#1211=CARTESIAN_POINT('',(2.40285088177294,16.,-1.89364465959652));
#1212=CARTESIAN_POINT('',(2.40285088177294,16.,-1.89364465959652));
#1213=CARTESIAN_POINT('',(2.40285088177294,16.,-1.89364465959652));
#1214=CARTESIAN_POINT('',(2.40285088177294,0.,-1.89364465959652));
#1215=CARTESIAN_POINT('',(1.89364465959652,0.,-2.40285088177294));
#1216=CARTESIAN_POINT('',(1.89364465959652,16.,-2.40285088177294));
#1217=CARTESIAN_POINT('',(1.89364465959652,16.,-2.40285088177294));
#1218=CARTESIAN_POINT('',(2.40285088177294,16.,-1.89364465959652));
#1219=CARTESIAN_POINT('',(1.56242977306435,16.,-3.24327199048154));
#1220=CARTESIAN_POINT('',(1.56242977306435,0.,-3.24327199048154));
#1221=CARTESIAN_POINT('',(1.56242977306435,0.,-3.24327199048154));
#1222=CARTESIAN_POINT('',(1.56242977306435,16.,-3.24327199048154));
#1223=CARTESIAN_POINT('',(1.56242977306435,16.,-3.24327199048154));
#1224=CARTESIAN_POINT('',(1.56242977306435,16.,-3.24327199048154));
#1225=CARTESIAN_POINT('',(0.,16.,0.));
#1226=CARTESIAN_POINT('',(0.,0.,0.));
#1227=CARTESIAN_POINT('',(-1.56242977306435,0.,-3.24327199048154));
#1228=CARTESIAN_POINT('',(-1.56242977306435,16.,-3.24327199048154));
#1229=CARTESIAN_POINT('',(-1.56242977306435,16.,-3.24327199048154));
#1230=CARTESIAN_POINT('',(0.,16.,0.));
#1231=CARTESIAN_POINT('',(-1.56242977306435,16.,-3.24327199048154));
#1232=CARTESIAN_POINT('',(-1.56242977306435,0.,-3.24327199048154));
#1233=CARTESIAN_POINT('',(-1.89364465959652,0.,-2.40285088177294));
#1234=CARTESIAN_POINT('',(-1.89364465959652,16.,-2.40285088177294));
#1235=CARTESIAN_POINT('',(-1.89364465959652,16.,-2.40285088177294));
#1236=CARTESIAN_POINT('',(-1.56242977306435,16.,-3.24327199048154));
#1237=CARTESIAN_POINT('',(-2.40285088177294,16.,-1.89364465959652));
#1238=CARTESIAN_POINT('',(-2.40285088177294,0.,-1.89364465959652));
#1239=CARTESIAN_POINT('',(-2.40285088177294,0.,-1.89364465959652));
#1240=CARTESIAN_POINT('',(-2.40285088177294,16.,-1.89364465959652));
#1241=CARTESIAN_POINT('',(-2.40285088177294,16.,-1.89364465959652));
#1242=CARTESIAN_POINT('',(-2.40285088177294,16.,-1.89364465959652));
#1243=CARTESIAN_POINT('',(-3.24327199048154,16.,-1.56242977306435));
#1244=CARTESIAN_POINT('',(-3.24327199048154,0.,-1.56242977306435));
#1245=CARTESIAN_POINT('',(-3.24327199048154,0.,-1.56242977306435));
#1246=CARTESIAN_POINT('',(-3.24327199048154,16.,-1.56242977306435));
#1247=CARTESIAN_POINT('',(-3.24327199048154,16.,-1.56242977306435));
#1248=CARTESIAN_POINT('',(-3.24327199048154,16.,-1.56242977306435));
#1249=CARTESIAN_POINT('',(0.,16.,0.));
#1250=CARTESIAN_POINT('',(0.,0.,0.));
#1251=CARTESIAN_POINT('',(-3.24327199048154,0.,1.56242977306435));
#1252=CARTESIAN_POINT('',(-3.24327199048154,16.,1.56242977306435));
#1253=CARTESIAN_POINT('',(-3.24327199048154,16.,1.56242977306435));
#1254=CARTESIAN_POINT('',(0.,16.,0.));
#1255=CARTESIAN_POINT('',(-3.24327199048154,16.,1.56242977306435));
#1256=CARTESIAN_POINT('',(-3.24327199048154,0.,1.56242977306435));
#1257=CARTESIAN_POINT('',(-2.40285088177294,0.,1.89364465959652));
#1258=CARTESIAN_POINT('',(-2.40285088177294,16.,1.89364465959652));
#1259=CARTESIAN_POINT('',(-2.40285088177294,16.,1.89364465959652));
#1260=CARTESIAN_POINT('',(-3.24327199048154,16.,1.56242977306435));
#1261=CARTESIAN_POINT('',(-2.40285088177294,16.,1.89364465959652));
#1262=CARTESIAN_POINT('',(-2.40285088177294,0.,1.89364465959652));
#1263=CARTESIAN_POINT('',(-1.89364465959652,0.,2.40285088177294));
#1264=CARTESIAN_POINT('',(-1.89364465959652,16.,2.40285088177294));
#1265=CARTESIAN_POINT('',(-1.89364465959652,16.,2.40285088177294));
#1266=CARTESIAN_POINT('',(-2.40285088177294,16.,1.89364465959652));
#1267=CARTESIAN_POINT('',(0.,16.,0.));
#1268=CARTESIAN_POINT('',(0.,0.,0.));
#1269=CARTESIAN_POINT('',(2.25014177247108,0.,-0.834782608695652));
#1270=CARTESIAN_POINT('',(2.25014177247108,0.,0.834782608695652));
#1271=CARTESIAN_POINT('',(2.25014177247108,16.,0.834782608695652));
#1272=CARTESIAN_POINT('',(2.25014177247108,16.,0.834782608695652));
#1273=CARTESIAN_POINT('',(0.,16.,0.));
#1274=CARTESIAN_POINT('',(2.25014177247108,16.,-0.834782608695652));
#1275=CARTESIAN_POINT('',(2.25014177247108,16.,-0.834782608695652));
#1276=CARTESIAN_POINT('',(0.9,16.,0.9));
#1277=CARTESIAN_POINT('',(0.9,16.,0.9));
#1278=CARTESIAN_POINT('',(2.15638586528478,16.,0.9));
#1279=CARTESIAN_POINT('',(1.4,16.,0.9));
#1280=CARTESIAN_POINT('',(2.15638586528478,0.,0.9));
#1281=CARTESIAN_POINT('',(2.15638586528478,0.,0.9));
#1282=CARTESIAN_POINT('',(0.9,0.,0.9));
#1283=CARTESIAN_POINT('',(1.4,0.,0.9));
#1284=CARTESIAN_POINT('',(1.4,16.,0.9));
#1285=CARTESIAN_POINT('',(0.9,16.,0.9));
#1286=CARTESIAN_POINT('',(0.9,0.,0.9));
#1287=CARTESIAN_POINT('',(0.9,0.,1.4));
#1288=CARTESIAN_POINT('',(0.9,0.,2.15638586528478));
#1289=CARTESIAN_POINT('',(0.9,16.,2.15638586528478));
#1290=CARTESIAN_POINT('',(0.9,16.,2.15638586528478));
#1291=CARTESIAN_POINT('',(0.9,16.,0.9));
#1292=CARTESIAN_POINT('',(0.9,16.,1.4));
#1293=CARTESIAN_POINT('',(0.9,16.,1.4));
#1294=CARTESIAN_POINT('',(0.,16.,0.));
#1295=CARTESIAN_POINT('',(0.,16.,0.));
#1296=CARTESIAN_POINT('',(0.834782608695652,16.,2.25014177247108));
#1297=CARTESIAN_POINT('',(-0.834782608695652,16.,2.25014177247108));
#1298=CARTESIAN_POINT('',(0.834782608695652,16.,2.25014177247108));
#1299=CARTESIAN_POINT('',(0.834782608695652,0.,2.25014177247108));
#1300=CARTESIAN_POINT('',(0.,0.,0.));
#1301=CARTESIAN_POINT('',(-0.834782608695652,0.,2.25014177247108));
#1302=CARTESIAN_POINT('',(-0.834782608695652,16.,2.25014177247108));
#1303=CARTESIAN_POINT('',(-0.9,16.,0.9));
#1304=CARTESIAN_POINT('',(-0.9,16.,0.9));
#1305=CARTESIAN_POINT('',(-0.9,16.,2.15638586528478));
#1306=CARTESIAN_POINT('',(-0.9,16.,1.4));
#1307=CARTESIAN_POINT('',(-0.9,0.,2.15638586528478));
#1308=CARTESIAN_POINT('',(-0.9,0.,2.15638586528478));
#1309=CARTESIAN_POINT('',(-0.9,0.,0.9));
#1310=CARTESIAN_POINT('',(-0.9,0.,1.4));
#1311=CARTESIAN_POINT('',(-0.9,16.,1.4));
#1312=CARTESIAN_POINT('',(-0.9,16.,0.9));
#1313=CARTESIAN_POINT('',(-0.9,0.,0.9));
#1314=CARTESIAN_POINT('',(-1.4,0.,0.9));
#1315=CARTESIAN_POINT('',(-2.15638586528478,0.,0.9));
#1316=CARTESIAN_POINT('',(-2.15638586528478,16.,0.9));
#1317=CARTESIAN_POINT('',(-2.15638586528478,16.,0.9));
#1318=CARTESIAN_POINT('',(-0.9,16.,0.9));
#1319=CARTESIAN_POINT('',(-1.4,16.,0.9));
#1320=CARTESIAN_POINT('',(-1.4,16.,0.9));
#1321=CARTESIAN_POINT('',(0.,16.,0.));
#1322=CARTESIAN_POINT('',(0.,0.,0.));
#1323=CARTESIAN_POINT('',(-2.25014177247108,0.,0.834782608695652));
#1324=CARTESIAN_POINT('',(-2.25014177247108,0.,-0.834782608695652));
#1325=CARTESIAN_POINT('',(-2.25014177247108,16.,-0.834782608695652));
#1326=CARTESIAN_POINT('',(-2.25014177247108,16.,-0.834782608695652));
#1327=CARTESIAN_POINT('',(0.,16.,0.));
#1328=CARTESIAN_POINT('',(-2.25014177247108,16.,0.834782608695652));
#1329=CARTESIAN_POINT('',(-2.25014177247108,16.,0.834782608695652));
#1330=CARTESIAN_POINT('',(-0.9,16.,-0.9));
#1331=CARTESIAN_POINT('',(-0.9,16.,-0.9));
#1332=CARTESIAN_POINT('',(-2.15638586528478,16.,-0.9));
#1333=CARTESIAN_POINT('',(-1.4,16.,-0.9));
#1334=CARTESIAN_POINT('',(-2.15638586528478,0.,-0.9));
#1335=CARTESIAN_POINT('',(-2.15638586528478,0.,-0.9));
#1336=CARTESIAN_POINT('',(-0.9,0.,-0.9));
#1337=CARTESIAN_POINT('',(-1.4,0.,-0.9));
#1338=CARTESIAN_POINT('',(-1.4,16.,-0.9));
#1339=CARTESIAN_POINT('',(-0.9,16.,-0.9));
#1340=CARTESIAN_POINT('',(-0.9,0.,-0.9));
#1341=CARTESIAN_POINT('',(-0.9,0.,-1.4));
#1342=CARTESIAN_POINT('',(-0.9,0.,-2.15638586528478));
#1343=CARTESIAN_POINT('',(-0.9,16.,-2.15638586528478));
#1344=CARTESIAN_POINT('',(-0.9,16.,-2.15638586528478));
#1345=CARTESIAN_POINT('',(-0.9,16.,-0.9));
#1346=CARTESIAN_POINT('',(-0.9,16.,-1.4));
#1347=CARTESIAN_POINT('',(-0.9,16.,-1.4));
#1348=CARTESIAN_POINT('',(0.,16.,0.));
#1349=CARTESIAN_POINT('',(0.,0.,0.));
#1350=CARTESIAN_POINT('',(-0.834782608695652,0.,-2.25014177247108));
#1351=CARTESIAN_POINT('',(0.834782608695652,0.,-2.25014177247108));
#1352=CARTESIAN_POINT('',(0.834782608695652,16.,-2.25014177247108));
#1353=CARTESIAN_POINT('',(0.834782608695652,16.,-2.25014177247108));
#1354=CARTESIAN_POINT('',(0.,16.,0.));
#1355=CARTESIAN_POINT('',(-0.834782608695652,16.,-2.25014177247108));
#1356=CARTESIAN_POINT('',(-0.834782608695652,16.,-2.25014177247108));
#1357=CARTESIAN_POINT('',(0.9,16.,-0.9));
#1358=CARTESIAN_POINT('',(0.9,16.,-0.9));
#1359=CARTESIAN_POINT('',(0.9,16.,-2.15638586528478));
#1360=CARTESIAN_POINT('',(0.9,16.,-1.4));
#1361=CARTESIAN_POINT('',(0.9,0.,-2.15638586528478));
#1362=CARTESIAN_POINT('',(0.9,0.,-2.15638586528478));
#1363=CARTESIAN_POINT('',(0.9,0.,-0.9));
#1364=CARTESIAN_POINT('',(0.9,0.,-1.4));
#1365=CARTESIAN_POINT('',(0.9,16.,-1.4));
#1366=CARTESIAN_POINT('',(0.9,16.,-0.9));
#1367=CARTESIAN_POINT('',(0.9,0.,-0.9));
#1368=CARTESIAN_POINT('',(1.4,0.,-0.9));
#1369=CARTESIAN_POINT('',(2.15638586528478,0.,-0.9));
#1370=CARTESIAN_POINT('',(2.15638586528478,16.,-0.9));
#1371=CARTESIAN_POINT('',(2.15638586528478,16.,-0.9));
#1372=CARTESIAN_POINT('',(0.9,16.,-0.9));
#1373=CARTESIAN_POINT('',(1.4,16.,-0.9));
#1374=CARTESIAN_POINT('',(1.4,16.,-0.9));
#1375=CARTESIAN_POINT('',(-1.89364465959652,16.,2.40285088177294));
#1376=CARTESIAN_POINT('',(-1.89364465959652,0.,2.40285088177294));
#1377=CARTESIAN_POINT('',(-1.89364465959652,16.,2.40285088177294));
#1378=CARTESIAN_POINT('',(0.,16.,0.));
#1379=CARTESIAN_POINT('',(2.15638586528478,16.,0.8));
#1380=CARTESIAN_POINT('',(1.4,16.,1.4));
#1381=CARTESIAN_POINT('',(0.8,16.,2.15638586528478));
#1382=CARTESIAN_POINT('',(-0.8,16.,2.15638586528478));
#1383=CARTESIAN_POINT('',(-1.4,16.,1.4));
#1384=CARTESIAN_POINT('',(-2.15638586528478,16.,0.8));
#1385=CARTESIAN_POINT('',(-2.15638586528478,16.,-0.8));
#1386=CARTESIAN_POINT('',(-1.4,16.,-1.4));
#1387=CARTESIAN_POINT('',(-0.8,16.,-2.15638586528478));
#1388=CARTESIAN_POINT('',(0.8,16.,-2.15638586528478));
#1389=CARTESIAN_POINT('',(1.4,16.,-1.4));
#1390=CARTESIAN_POINT('',(2.15638586528478,16.,-0.8));
#1391=CARTESIAN_POINT('',(0.,0.,0.));
#1392=CARTESIAN_POINT('',(1.4,0.,1.4));
#1393=CARTESIAN_POINT('',(2.15638586528478,0.,0.8));
#1394=CARTESIAN_POINT('',(2.15638586528478,0.,-0.8));
#1395=CARTESIAN_POINT('',(1.4,0.,-1.4));
#1396=CARTESIAN_POINT('',(0.8,0.,-2.15638586528478));
#1397=CARTESIAN_POINT('',(-0.8,0.,-2.15638586528478));
#1398=CARTESIAN_POINT('',(-1.4,0.,-1.4));
#1399=CARTESIAN_POINT('',(-2.15638586528478,0.,-0.8));
#1400=CARTESIAN_POINT('',(-2.15638586528478,0.,0.8));
#1401=CARTESIAN_POINT('',(-1.4,0.,1.4));
#1402=CARTESIAN_POINT('',(-0.8,0.,2.15638586528478));
#1403=CARTESIAN_POINT('',(0.8,0.,2.15638586528478));
#1404=CARTESIAN_POINT('',(-1.4,16.,1.4));
#1405=CARTESIAN_POINT('',(1.4,16.,-1.4));
#1406=CARTESIAN_POINT('',(-1.4,16.,-1.4));
#1407=CARTESIAN_POINT('',(1.4,16.,1.4));
#1408=CARTESIAN_POINT('',(-0.8,16.,2.15638586528478));
#1409=CARTESIAN_POINT('',(-2.15638586528478,16.,0.8));
#1410=CARTESIAN_POINT('',(-2.15638586528478,16.,-0.8));
#1411=CARTESIAN_POINT('',(-0.8,16.,-2.15638586528478));
#1412=CARTESIAN_POINT('',(0.8,16.,-2.15638586528478));
#1413=CARTESIAN_POINT('',(2.15638586528478,16.,-0.8));
#1414=CARTESIAN_POINT('',(2.15638586528478,16.,0.8));
#1415=CARTESIAN_POINT('',(0.8,16.,2.15638586528478));
#1416=MECHANICAL_DESIGN_GEOMETRIC_PRESENTATION_REPRESENTATION('',(#833),
#1417);
#1417=(
GEOMETRIC_REPRESENTATION_CONTEXT(3)
GLOBAL_UNCERTAINTY_ASSIGNED_CONTEXT((#1418))
GLOBAL_UNIT_ASSIGNED_CONTEXT((#1421,#1420,#1419))
REPRESENTATION_CONTEXT('Gray_4516546_JCA','TOP_LEVEL_ASSEMBLY_PART')
);
#1418=UNCERTAINTY_MEASURE_WITH_UNIT(LENGTH_MEASURE(0.005),#1421,
'DISTANCE_ACCURACY_VALUE','Maximum Tolerance applied to model');
#1419=(
NAMED_UNIT(*)
SI_UNIT($,.STERADIAN.)
SOLID_ANGLE_UNIT()
);
#1420=(
NAMED_UNIT(*)
PLANE_ANGLE_UNIT()
SI_UNIT($,.RADIAN.)
);
#1421=(
LENGTH_UNIT()
NAMED_UNIT(*)
SI_UNIT(.MILLI.,.METRE.)
);
#1422=PRODUCT_DEFINITION_SHAPE('','',#1423);
#1423=PRODUCT_DEFINITION('','',#1425,#1424);
#1424=PRODUCT_DEFINITION_CONTEXT('',#1431,'design');
#1425=PRODUCT_DEFINITION_FORMATION_WITH_SPECIFIED_SOURCE('','',#1427,
 .NOT_KNOWN.);
#1426=PRODUCT_RELATED_PRODUCT_CATEGORY('','',(#1427));
#1427=PRODUCT('Gray_4516546_JCA','Gray_4516546_JCA','Gray_4516546_JCA',
(#1429));
#1428=PRODUCT_CATEGORY('','');
#1429=PRODUCT_CONTEXT('',#1431,'mechanical');
#1430=APPLICATION_PROTOCOL_DEFINITION('international standard',
'automotive_design',2010,#1431);
#1431=APPLICATION_CONTEXT(
'core data for automotive mechanical design processes');
ENDSEC;
END-ISO-10303-21;
