ISO-10303-21;
HEADER;
/* Generated by software containing ST-Developer
 * from STEP Tools, Inc. (www.steptools.com) 
 */
/* OPTION: strings as raw bytes, not using required /X/ escapes */

FILE_DESCRIPTION(
/* description */ ('Unknown'),
/* implementation_level */ '2;1');

FILE_NAME(
/* name */ 'Gray_4499858_JCA',
/* time_stamp */ '2025-07-21T23:58:58+02:00',
/* author */ ('Unknown'),
/* organization */ ('Unknown'),
/* preprocessor_version */ 'ST-DEVELOPER v19.4',
/* originating_system */ 'Solid Edge',
/* authorisation */ 'Unknown');

FILE_SCHEMA (('AUTOMOTIVE_DESIGN {1 0 10303 214 3 1 1}'));
ENDSEC;

DATA;
#10=PROPERTY_DEFINITION_REPRESENTATION(#14,#12);
#11=PROPERTY_DEFINITION_REPRESENTATION(#15,#13);
#12=REPRESENTATION('',(#16),#1597);
#13=REPRESENTATION('',(#17),#1597);
#14=PROPERTY_DEFINITION('pmi validation property','',#1602);
#15=PROPERTY_DEFINITION('pmi validation property','',#1602);
#16=VALUE_REPRESENTATION_ITEM('number of annotations',COUNT_MEASURE(0.));
#17=VALUE_REPRESENTATION_ITEM('number of views',COUNT_MEASURE(0.));
#18=SHAPE_REPRESENTATION_RELATIONSHIP('','',#835,#19);
#19=ADVANCED_BREP_SHAPE_REPRESENTATION('',(#833),#1597);
#20=(
BOUNDED_SURFACE()
B_SPLINE_SURFACE(3,2,((#1383,#1384,#1385),(#1386,#1387,#1388),(#1389,#1390,
#1391),(#1392,#1393,#1394),(#1395,#1396,#1397)),.UNSPECIFIED.,.F.,.F.,.F.)
B_SPLINE_SURFACE_WITH_KNOTS((4,1,4),(3,3),(0.,0.000629395742536669,0.00125879148507334),
(0.,1.),.UNSPECIFIED.)
GEOMETRIC_REPRESENTATION_ITEM()
RATIONAL_B_SPLINE_SURFACE(((1.,0.820922069065183,1.),(1.,0.820922114373207,
1.),(1.,0.92712365071387,1.),(1.,0.999999972735409,1.),(1.,1.,1.)))
REPRESENTATION_ITEM('')
SURFACE()
);
#21=(
BOUNDED_SURFACE()
B_SPLINE_SURFACE(3,2,((#1403,#1404,#1405),(#1406,#1407,#1408),(#1409,#1410,
#1411),(#1412,#1413,#1414),(#1415,#1416,#1417)),.UNSPECIFIED.,.F.,.F.,.F.)
B_SPLINE_SURFACE_WITH_KNOTS((4,1,4),(3,3),(0.,0.000629395742536669,0.00125879148507334),
(0.,1.),.UNSPECIFIED.)
GEOMETRIC_REPRESENTATION_ITEM()
RATIONAL_B_SPLINE_SURFACE(((1.,0.820922069065183,1.),(1.,0.820922114373207,
1.),(1.,0.92712365071373,1.),(1.,0.999999972735689,1.),(1.,1.,1.)))
REPRESENTATION_ITEM('')
SURFACE()
);
#22=(
BOUNDED_SURFACE()
B_SPLINE_SURFACE(3,2,((#1443,#1444,#1445),(#1446,#1447,#1448),(#1449,#1450,
#1451),(#1452,#1453,#1454),(#1455,#1456,#1457)),.UNSPECIFIED.,.F.,.F.,.F.)
B_SPLINE_SURFACE_WITH_KNOTS((4,1,4),(3,3),(0.,0.000629395742536669,0.00125879148507334),
(0.,1.),.UNSPECIFIED.)
GEOMETRIC_REPRESENTATION_ITEM()
RATIONAL_B_SPLINE_SURFACE(((1.,0.820922069065183,1.),(1.,0.820922114373337,
1.),(1.,0.927123650713665,1.),(1.,0.999999972735689,1.),(1.,1.,1.)))
REPRESENTATION_ITEM('')
SURFACE()
);
#23=(
BOUNDED_SURFACE()
B_SPLINE_SURFACE(3,2,((#1463,#1464,#1465),(#1466,#1467,#1468),(#1469,#1470,
#1471),(#1472,#1473,#1474),(#1475,#1476,#1477)),.UNSPECIFIED.,.F.,.F.,.F.)
B_SPLINE_SURFACE_WITH_KNOTS((4,1,4),(3,3),(0.,0.000629395742536669,0.00125879148507334),
(0.,1.),.UNSPECIFIED.)
GEOMETRIC_REPRESENTATION_ITEM()
RATIONAL_B_SPLINE_SURFACE(((1.,0.820922069065183,1.),(1.,0.820922114373337,
1.),(1.,0.927123650713805,1.),(1.,0.999999972735409,1.),(1.,1.,1.)))
REPRESENTATION_ITEM('')
SURFACE()
);
#24=(
BOUNDED_SURFACE()
B_SPLINE_SURFACE(3,2,((#1495,#1496,#1497),(#1498,#1499,#1500),(#1501,#1502,
#1503),(#1504,#1505,#1506),(#1507,#1508,#1509)),.UNSPECIFIED.,.F.,.F.,.F.)
B_SPLINE_SURFACE_WITH_KNOTS((4,1,4),(3,3),(0.,0.000629395742536669,0.00125879148507334),
(0.,1.),.UNSPECIFIED.)
GEOMETRIC_REPRESENTATION_ITEM()
RATIONAL_B_SPLINE_SURFACE(((1.,0.820922069065183,1.),(1.,0.820922114373207,
1.),(1.,0.92712365071387,1.),(1.,0.999999972735409,1.),(1.,1.,1.)))
REPRESENTATION_ITEM('')
SURFACE()
);
#25=(
BOUNDED_SURFACE()
B_SPLINE_SURFACE(3,2,((#1515,#1516,#1517),(#1518,#1519,#1520),(#1521,#1522,
#1523),(#1524,#1525,#1526),(#1527,#1528,#1529)),.UNSPECIFIED.,.F.,.F.,.F.)
B_SPLINE_SURFACE_WITH_KNOTS((4,1,4),(3,3),(0.,0.000629395742536669,0.00125879148507334),
(0.,1.),.UNSPECIFIED.)
GEOMETRIC_REPRESENTATION_ITEM()
RATIONAL_B_SPLINE_SURFACE(((1.,0.820922069065183,1.),(1.,0.820922114373218,
1.),(1.,0.927123650713724,1.),(1.,0.999999972735689,1.),(1.,1.,1.)))
REPRESENTATION_ITEM('')
SURFACE()
);
#26=(
BOUNDED_SURFACE()
B_SPLINE_SURFACE(3,2,((#1555,#1556,#1557),(#1558,#1559,#1560),(#1561,#1562,
#1563),(#1564,#1565,#1566),(#1567,#1568,#1569)),.UNSPECIFIED.,.F.,.F.,.F.)
B_SPLINE_SURFACE_WITH_KNOTS((4,1,4),(3,3),(0.,0.000629395742536669,0.00125879148507334),
(0.,1.),.UNSPECIFIED.)
GEOMETRIC_REPRESENTATION_ITEM()
RATIONAL_B_SPLINE_SURFACE(((1.,0.820922069065183,1.),(1.,0.820922114373218,
1.),(1.,0.927123650713724,1.),(1.,0.999999972735689,1.),(1.,1.,1.)))
REPRESENTATION_ITEM('')
SURFACE()
);
#27=(
BOUNDED_SURFACE()
B_SPLINE_SURFACE(3,2,((#1575,#1576,#1577),(#1578,#1579,#1580),(#1581,#1582,
#1583),(#1584,#1585,#1586),(#1587,#1588,#1589)),.UNSPECIFIED.,.F.,.F.,.F.)
B_SPLINE_SURFACE_WITH_KNOTS((4,1,4),(3,3),(0.,0.000629395742536669,0.00125879148507334),
(0.,1.),.UNSPECIFIED.)
GEOMETRIC_REPRESENTATION_ITEM()
RATIONAL_B_SPLINE_SURFACE(((1.,0.820922069065183,1.),(1.,0.820922114373337,
1.),(1.,0.927123650713805,1.),(1.,0.999999972735409,1.),(1.,1.,1.)))
REPRESENTATION_ITEM('')
SURFACE()
);
#28=B_SPLINE_CURVE_WITH_KNOTS('',3,(#1373,#1374,#1375,#1376,#1377),
 .UNSPECIFIED.,.F.,.F.,(4,1,4),(0.,0.000702119012608835,0.00140423802521767),
 .UNSPECIFIED.);
#29=B_SPLINE_CURVE_WITH_KNOTS('',3,(#1378,#1379,#1380,#1381,#1382),
 .UNSPECIFIED.,.F.,.F.,(4,1,4),(0.,0.000702119012608835,0.00140423802521767),
 .UNSPECIFIED.);
#30=B_SPLINE_CURVE_WITH_KNOTS('',3,(#1398,#1399,#1400,#1401,#1402),
 .UNSPECIFIED.,.F.,.F.,(4,1,4),(0.,0.000699507630806151,0.0013990152616123),
 .UNSPECIFIED.);
#31=B_SPLINE_CURVE_WITH_KNOTS('',3,(#1418,#1419,#1420,#1421,#1422),
 .UNSPECIFIED.,.F.,.F.,(4,1,4),(0.,0.000699507630806151,0.0013990152616123),
 .UNSPECIFIED.);
#32=B_SPLINE_CURVE_WITH_KNOTS('',3,(#1432,#1433,#1434,#1435,#1436),
 .UNSPECIFIED.,.F.,.F.,(4,1,4),(0.,0.000699507630806151,0.0013990152616123),
 .UNSPECIFIED.);
#33=B_SPLINE_CURVE_WITH_KNOTS('',3,(#1438,#1439,#1440,#1441,#1442),
 .UNSPECIFIED.,.F.,.F.,(4,1,4),(0.,0.000699507630806151,0.0013990152616123),
 .UNSPECIFIED.);
#34=B_SPLINE_CURVE_WITH_KNOTS('',3,(#1458,#1459,#1460,#1461,#1462),
 .UNSPECIFIED.,.F.,.F.,(4,1,4),(0.,0.000702119012608835,0.00140423802521767),
 .UNSPECIFIED.);
#35=B_SPLINE_CURVE_WITH_KNOTS('',3,(#1478,#1479,#1480,#1481,#1482),
 .UNSPECIFIED.,.F.,.F.,(4,1,4),(0.,0.000702119012608835,0.00140423802521767),
 .UNSPECIFIED.);
#36=B_SPLINE_CURVE_WITH_KNOTS('',3,(#1484,#1485,#1486,#1487,#1488),
 .UNSPECIFIED.,.F.,.F.,(4,1,4),(0.,0.000702119012608835,0.00140423802521767),
 .UNSPECIFIED.);
#37=B_SPLINE_CURVE_WITH_KNOTS('',3,(#1490,#1491,#1492,#1493,#1494),
 .UNSPECIFIED.,.F.,.F.,(4,1,4),(0.,0.000702119012608835,0.00140423802521767),
 .UNSPECIFIED.);
#38=B_SPLINE_CURVE_WITH_KNOTS('',3,(#1510,#1511,#1512,#1513,#1514),
 .UNSPECIFIED.,.F.,.F.,(4,1,4),(0.,0.000699507630806151,0.0013990152616123),
 .UNSPECIFIED.);
#39=B_SPLINE_CURVE_WITH_KNOTS('',3,(#1530,#1531,#1532,#1533,#1534),
 .UNSPECIFIED.,.F.,.F.,(4,1,4),(0.,0.000699507630806151,0.0013990152616123),
 .UNSPECIFIED.);
#40=B_SPLINE_CURVE_WITH_KNOTS('',3,(#1544,#1545,#1546,#1547,#1548),
 .UNSPECIFIED.,.F.,.F.,(4,1,4),(0.,0.000699507630806151,0.0013990152616123),
 .UNSPECIFIED.);
#41=B_SPLINE_CURVE_WITH_KNOTS('',3,(#1550,#1551,#1552,#1553,#1554),
 .UNSPECIFIED.,.F.,.F.,(4,1,4),(0.,0.000699507630806151,0.0013990152616123),
 .UNSPECIFIED.);
#42=B_SPLINE_CURVE_WITH_KNOTS('',3,(#1570,#1571,#1572,#1573,#1574),
 .UNSPECIFIED.,.F.,.F.,(4,1,4),(0.,0.000702119012608835,0.00140423802521767),
 .UNSPECIFIED.);
#43=B_SPLINE_CURVE_WITH_KNOTS('',3,(#1590,#1591,#1592,#1593,#1594),
 .UNSPECIFIED.,.F.,.F.,(4,1,4),(0.,0.000702119012608835,0.00140423802521767),
 .UNSPECIFIED.);
#44=TOROIDAL_SURFACE('',#911,1.6,0.8);
#45=TOROIDAL_SURFACE('',#916,1.3,0.8);
#46=TOROIDAL_SURFACE('',#918,1.3,0.8);
#47=TOROIDAL_SURFACE('',#922,1.6,0.8);
#48=TOROIDAL_SURFACE('',#923,1.6,0.8);
#49=TOROIDAL_SURFACE('',#928,1.3,0.8);
#50=TOROIDAL_SURFACE('',#930,1.3,0.8);
#51=TOROIDAL_SURFACE('',#934,1.6,0.8);
#52=CIRCLE('',#840,2.4);
#53=CIRCLE('',#841,2.4);
#54=CIRCLE('',#845,2.4);
#55=CIRCLE('',#846,2.4);
#56=CIRCLE('',#850,2.4);
#57=CIRCLE('',#851,2.4);
#58=CIRCLE('',#855,2.4);
#59=CIRCLE('',#856,2.4);
#60=CIRCLE('',#858,1.6);
#61=CIRCLE('',#859,1.3);
#62=CIRCLE('',#860,1.6);
#63=CIRCLE('',#861,1.3);
#64=CIRCLE('',#862,1.6);
#65=CIRCLE('',#863,1.3);
#66=CIRCLE('',#864,1.6);
#67=CIRCLE('',#865,1.3);
#68=CIRCLE('',#867,0.5);
#69=CIRCLE('',#868,0.5);
#70=CIRCLE('',#870,0.5);
#71=CIRCLE('',#871,0.5);
#72=CIRCLE('',#873,0.5);
#73=CIRCLE('',#874,0.5);
#74=CIRCLE('',#876,0.5);
#75=CIRCLE('',#877,0.5);
#76=CIRCLE('',#879,0.1);
#77=CIRCLE('',#880,0.1);
#78=CIRCLE('',#882,0.1);
#79=CIRCLE('',#883,0.1);
#80=CIRCLE('',#885,0.1);
#81=CIRCLE('',#886,0.1);
#82=CIRCLE('',#888,0.1);
#83=CIRCLE('',#889,0.1);
#84=CIRCLE('',#891,0.1);
#85=CIRCLE('',#892,0.1);
#86=CIRCLE('',#894,0.1);
#87=CIRCLE('',#895,0.1);
#88=CIRCLE('',#897,0.1);
#89=CIRCLE('',#898,0.1);
#90=CIRCLE('',#900,0.1);
#91=CIRCLE('',#901,0.1);
#92=CIRCLE('',#903,3.1);
#93=CIRCLE('',#904,3.1);
#94=CIRCLE('',#907,2.4);
#95=CIRCLE('',#909,2.4);
#96=CIRCLE('',#913,0.8);
#97=CIRCLE('',#915,0.8);
#98=CIRCLE('',#917,0.8);
#99=CIRCLE('',#919,0.8);
#100=CIRCLE('',#925,0.8);
#101=CIRCLE('',#927,0.8);
#102=CIRCLE('',#929,0.8);
#103=CIRCLE('',#931,0.8);
#104=CYLINDRICAL_SURFACE('',#839,2.4);
#105=CYLINDRICAL_SURFACE('',#844,2.4);
#106=CYLINDRICAL_SURFACE('',#849,2.4);
#107=CYLINDRICAL_SURFACE('',#854,2.4);
#108=CYLINDRICAL_SURFACE('',#866,0.5);
#109=CYLINDRICAL_SURFACE('',#869,0.5);
#110=CYLINDRICAL_SURFACE('',#872,0.5);
#111=CYLINDRICAL_SURFACE('',#875,0.5);
#112=CYLINDRICAL_SURFACE('',#878,0.1);
#113=CYLINDRICAL_SURFACE('',#881,0.1);
#114=CYLINDRICAL_SURFACE('',#884,0.1);
#115=CYLINDRICAL_SURFACE('',#887,0.1);
#116=CYLINDRICAL_SURFACE('',#890,0.1);
#117=CYLINDRICAL_SURFACE('',#893,0.1);
#118=CYLINDRICAL_SURFACE('',#896,0.1);
#119=CYLINDRICAL_SURFACE('',#899,0.1);
#120=CYLINDRICAL_SURFACE('',#902,3.1);
#121=CYLINDRICAL_SURFACE('',#908,2.4);
#122=CYLINDRICAL_SURFACE('',#912,0.8);
#123=CYLINDRICAL_SURFACE('',#914,0.8);
#124=CYLINDRICAL_SURFACE('',#920,0.8);
#125=CYLINDRICAL_SURFACE('',#921,0.8);
#126=CYLINDRICAL_SURFACE('',#924,0.8);
#127=CYLINDRICAL_SURFACE('',#926,0.8);
#128=CYLINDRICAL_SURFACE('',#932,0.8);
#129=CYLINDRICAL_SURFACE('',#933,0.8);
#130=ORIENTED_EDGE('',*,*,#362,.T.);
#131=ORIENTED_EDGE('',*,*,#363,.T.);
#132=ORIENTED_EDGE('',*,*,#364,.T.);
#133=ORIENTED_EDGE('',*,*,#365,.T.);
#134=ORIENTED_EDGE('',*,*,#366,.T.);
#135=ORIENTED_EDGE('',*,*,#367,.T.);
#136=ORIENTED_EDGE('',*,*,#368,.T.);
#137=ORIENTED_EDGE('',*,*,#369,.T.);
#138=ORIENTED_EDGE('',*,*,#370,.T.);
#139=ORIENTED_EDGE('',*,*,#371,.T.);
#140=ORIENTED_EDGE('',*,*,#372,.T.);
#141=ORIENTED_EDGE('',*,*,#373,.T.);
#142=ORIENTED_EDGE('',*,*,#374,.T.);
#143=ORIENTED_EDGE('',*,*,#375,.T.);
#144=ORIENTED_EDGE('',*,*,#376,.T.);
#145=ORIENTED_EDGE('',*,*,#377,.T.);
#146=ORIENTED_EDGE('',*,*,#378,.T.);
#147=ORIENTED_EDGE('',*,*,#379,.T.);
#148=ORIENTED_EDGE('',*,*,#380,.T.);
#149=ORIENTED_EDGE('',*,*,#381,.T.);
#150=ORIENTED_EDGE('',*,*,#382,.T.);
#151=ORIENTED_EDGE('',*,*,#383,.T.);
#152=ORIENTED_EDGE('',*,*,#384,.T.);
#153=ORIENTED_EDGE('',*,*,#385,.T.);
#154=ORIENTED_EDGE('',*,*,#386,.T.);
#155=ORIENTED_EDGE('',*,*,#387,.T.);
#156=ORIENTED_EDGE('',*,*,#388,.T.);
#157=ORIENTED_EDGE('',*,*,#389,.T.);
#158=ORIENTED_EDGE('',*,*,#390,.T.);
#159=ORIENTED_EDGE('',*,*,#391,.T.);
#160=ORIENTED_EDGE('',*,*,#392,.T.);
#161=ORIENTED_EDGE('',*,*,#393,.T.);
#162=ORIENTED_EDGE('',*,*,#394,.T.);
#163=ORIENTED_EDGE('',*,*,#395,.T.);
#164=ORIENTED_EDGE('',*,*,#396,.T.);
#165=ORIENTED_EDGE('',*,*,#397,.T.);
#166=ORIENTED_EDGE('',*,*,#398,.T.);
#167=ORIENTED_EDGE('',*,*,#399,.T.);
#168=ORIENTED_EDGE('',*,*,#400,.T.);
#169=ORIENTED_EDGE('',*,*,#401,.T.);
#170=ORIENTED_EDGE('',*,*,#402,.T.);
#171=ORIENTED_EDGE('',*,*,#403,.T.);
#172=ORIENTED_EDGE('',*,*,#404,.T.);
#173=ORIENTED_EDGE('',*,*,#405,.T.);
#174=ORIENTED_EDGE('',*,*,#406,.T.);
#175=ORIENTED_EDGE('',*,*,#407,.T.);
#176=ORIENTED_EDGE('',*,*,#408,.T.);
#177=ORIENTED_EDGE('',*,*,#409,.T.);
#178=ORIENTED_EDGE('',*,*,#410,.T.);
#179=ORIENTED_EDGE('',*,*,#411,.T.);
#180=ORIENTED_EDGE('',*,*,#412,.T.);
#181=ORIENTED_EDGE('',*,*,#413,.T.);
#182=ORIENTED_EDGE('',*,*,#414,.T.);
#183=ORIENTED_EDGE('',*,*,#415,.T.);
#184=ORIENTED_EDGE('',*,*,#416,.T.);
#185=ORIENTED_EDGE('',*,*,#417,.T.);
#186=ORIENTED_EDGE('',*,*,#418,.T.);
#187=ORIENTED_EDGE('',*,*,#419,.T.);
#188=ORIENTED_EDGE('',*,*,#420,.T.);
#189=ORIENTED_EDGE('',*,*,#421,.T.);
#190=ORIENTED_EDGE('',*,*,#422,.T.);
#191=ORIENTED_EDGE('',*,*,#423,.T.);
#192=ORIENTED_EDGE('',*,*,#424,.T.);
#193=ORIENTED_EDGE('',*,*,#425,.T.);
#194=ORIENTED_EDGE('',*,*,#380,.F.);
#195=ORIENTED_EDGE('',*,*,#426,.T.);
#196=ORIENTED_EDGE('',*,*,#374,.F.);
#197=ORIENTED_EDGE('',*,*,#427,.T.);
#198=ORIENTED_EDGE('',*,*,#368,.F.);
#199=ORIENTED_EDGE('',*,*,#428,.T.);
#200=ORIENTED_EDGE('',*,*,#362,.F.);
#201=ORIENTED_EDGE('',*,*,#429,.T.);
#202=ORIENTED_EDGE('',*,*,#404,.F.);
#203=ORIENTED_EDGE('',*,*,#430,.T.);
#204=ORIENTED_EDGE('',*,*,#398,.F.);
#205=ORIENTED_EDGE('',*,*,#431,.T.);
#206=ORIENTED_EDGE('',*,*,#392,.F.);
#207=ORIENTED_EDGE('',*,*,#432,.T.);
#208=ORIENTED_EDGE('',*,*,#386,.F.);
#209=ORIENTED_EDGE('',*,*,#433,.T.);
#210=ORIENTED_EDGE('',*,*,#376,.F.);
#211=ORIENTED_EDGE('',*,*,#434,.T.);
#212=ORIENTED_EDGE('',*,*,#370,.F.);
#213=ORIENTED_EDGE('',*,*,#435,.F.);
#214=ORIENTED_EDGE('',*,*,#364,.F.);
#215=ORIENTED_EDGE('',*,*,#436,.T.);
#216=ORIENTED_EDGE('',*,*,#406,.F.);
#217=ORIENTED_EDGE('',*,*,#437,.F.);
#218=ORIENTED_EDGE('',*,*,#408,.F.);
#219=ORIENTED_EDGE('',*,*,#438,.T.);
#220=ORIENTED_EDGE('',*,*,#402,.F.);
#221=ORIENTED_EDGE('',*,*,#439,.F.);
#222=ORIENTED_EDGE('',*,*,#400,.F.);
#223=ORIENTED_EDGE('',*,*,#440,.T.);
#224=ORIENTED_EDGE('',*,*,#394,.F.);
#225=ORIENTED_EDGE('',*,*,#441,.F.);
#226=ORIENTED_EDGE('',*,*,#396,.F.);
#227=ORIENTED_EDGE('',*,*,#442,.T.);
#228=ORIENTED_EDGE('',*,*,#390,.F.);
#229=ORIENTED_EDGE('',*,*,#443,.F.);
#230=ORIENTED_EDGE('',*,*,#388,.F.);
#231=ORIENTED_EDGE('',*,*,#444,.T.);
#232=ORIENTED_EDGE('',*,*,#382,.F.);
#233=ORIENTED_EDGE('',*,*,#445,.F.);
#234=ORIENTED_EDGE('',*,*,#384,.F.);
#235=ORIENTED_EDGE('',*,*,#446,.T.);
#236=ORIENTED_EDGE('',*,*,#378,.F.);
#237=ORIENTED_EDGE('',*,*,#447,.F.);
#238=ORIENTED_EDGE('',*,*,#372,.F.);
#239=ORIENTED_EDGE('',*,*,#448,.T.);
#240=ORIENTED_EDGE('',*,*,#366,.F.);
#241=ORIENTED_EDGE('',*,*,#449,.F.);
#242=ORIENTED_EDGE('',*,*,#450,.F.);
#243=ORIENTED_EDGE('',*,*,#451,.T.);
#244=ORIENTED_EDGE('',*,*,#397,.F.);
#245=ORIENTED_EDGE('',*,*,#443,.T.);
#246=ORIENTED_EDGE('',*,*,#393,.F.);
#247=ORIENTED_EDGE('',*,*,#433,.F.);
#248=ORIENTED_EDGE('',*,*,#389,.F.);
#249=ORIENTED_EDGE('',*,*,#445,.T.);
#250=ORIENTED_EDGE('',*,*,#385,.F.);
#251=ORIENTED_EDGE('',*,*,#447,.T.);
#252=ORIENTED_EDGE('',*,*,#381,.F.);
#253=ORIENTED_EDGE('',*,*,#427,.F.);
#254=ORIENTED_EDGE('',*,*,#377,.F.);
#255=ORIENTED_EDGE('',*,*,#435,.T.);
#256=ORIENTED_EDGE('',*,*,#373,.F.);
#257=ORIENTED_EDGE('',*,*,#449,.T.);
#258=ORIENTED_EDGE('',*,*,#369,.F.);
#259=ORIENTED_EDGE('',*,*,#429,.F.);
#260=ORIENTED_EDGE('',*,*,#365,.F.);
#261=ORIENTED_EDGE('',*,*,#437,.T.);
#262=ORIENTED_EDGE('',*,*,#409,.F.);
#263=ORIENTED_EDGE('',*,*,#439,.T.);
#264=ORIENTED_EDGE('',*,*,#405,.F.);
#265=ORIENTED_EDGE('',*,*,#431,.F.);
#266=ORIENTED_EDGE('',*,*,#401,.F.);
#267=ORIENTED_EDGE('',*,*,#441,.T.);
#268=ORIENTED_EDGE('',*,*,#450,.T.);
#269=ORIENTED_EDGE('',*,*,#452,.T.);
#270=ORIENTED_EDGE('',*,*,#451,.F.);
#271=ORIENTED_EDGE('',*,*,#453,.T.);
#272=ORIENTED_EDGE('',*,*,#452,.F.);
#273=ORIENTED_EDGE('',*,*,#453,.F.);
#274=ORIENTED_EDGE('',*,*,#454,.F.);
#275=ORIENTED_EDGE('',*,*,#371,.F.);
#276=ORIENTED_EDGE('',*,*,#455,.F.);
#277=ORIENTED_EDGE('',*,*,#419,.F.);
#278=ORIENTED_EDGE('',*,*,#455,.T.);
#279=ORIENTED_EDGE('',*,*,#434,.F.);
#280=ORIENTED_EDGE('',*,*,#456,.F.);
#281=ORIENTED_EDGE('',*,*,#448,.F.);
#282=ORIENTED_EDGE('',*,*,#454,.T.);
#283=ORIENTED_EDGE('',*,*,#457,.F.);
#284=ORIENTED_EDGE('',*,*,#456,.T.);
#285=ORIENTED_EDGE('',*,*,#375,.F.);
#286=ORIENTED_EDGE('',*,*,#458,.F.);
#287=ORIENTED_EDGE('',*,*,#420,.F.);
#288=ORIENTED_EDGE('',*,*,#457,.T.);
#289=ORIENTED_EDGE('',*,*,#418,.F.);
#290=ORIENTED_EDGE('',*,*,#459,.F.);
#291=ORIENTED_EDGE('',*,*,#367,.F.);
#292=ORIENTED_EDGE('',*,*,#458,.T.);
#293=ORIENTED_EDGE('',*,*,#426,.F.);
#294=ORIENTED_EDGE('',*,*,#460,.F.);
#295=ORIENTED_EDGE('',*,*,#421,.F.);
#296=ORIENTED_EDGE('',*,*,#459,.T.);
#297=ORIENTED_EDGE('',*,*,#417,.F.);
#298=ORIENTED_EDGE('',*,*,#461,.F.);
#299=ORIENTED_EDGE('',*,*,#428,.F.);
#300=ORIENTED_EDGE('',*,*,#460,.T.);
#301=ORIENTED_EDGE('',*,*,#379,.F.);
#302=ORIENTED_EDGE('',*,*,#462,.F.);
#303=ORIENTED_EDGE('',*,*,#422,.F.);
#304=ORIENTED_EDGE('',*,*,#461,.T.);
#305=ORIENTED_EDGE('',*,*,#416,.F.);
#306=ORIENTED_EDGE('',*,*,#463,.F.);
#307=ORIENTED_EDGE('',*,*,#363,.F.);
#308=ORIENTED_EDGE('',*,*,#462,.T.);
#309=ORIENTED_EDGE('',*,*,#446,.F.);
#310=ORIENTED_EDGE('',*,*,#464,.F.);
#311=ORIENTED_EDGE('',*,*,#436,.F.);
#312=ORIENTED_EDGE('',*,*,#463,.T.);
#313=ORIENTED_EDGE('',*,*,#465,.F.);
#314=ORIENTED_EDGE('',*,*,#464,.T.);
#315=ORIENTED_EDGE('',*,*,#383,.F.);
#316=ORIENTED_EDGE('',*,*,#466,.F.);
#317=ORIENTED_EDGE('',*,*,#423,.F.);
#318=ORIENTED_EDGE('',*,*,#465,.T.);
#319=ORIENTED_EDGE('',*,*,#415,.F.);
#320=ORIENTED_EDGE('',*,*,#467,.F.);
#321=ORIENTED_EDGE('',*,*,#407,.F.);
#322=ORIENTED_EDGE('',*,*,#466,.T.);
#323=ORIENTED_EDGE('',*,*,#444,.F.);
#324=ORIENTED_EDGE('',*,*,#468,.F.);
#325=ORIENTED_EDGE('',*,*,#438,.F.);
#326=ORIENTED_EDGE('',*,*,#467,.T.);
#327=ORIENTED_EDGE('',*,*,#469,.F.);
#328=ORIENTED_EDGE('',*,*,#468,.T.);
#329=ORIENTED_EDGE('',*,*,#387,.F.);
#330=ORIENTED_EDGE('',*,*,#470,.F.);
#331=ORIENTED_EDGE('',*,*,#424,.F.);
#332=ORIENTED_EDGE('',*,*,#469,.T.);
#333=ORIENTED_EDGE('',*,*,#414,.F.);
#334=ORIENTED_EDGE('',*,*,#471,.F.);
#335=ORIENTED_EDGE('',*,*,#403,.F.);
#336=ORIENTED_EDGE('',*,*,#470,.T.);
#337=ORIENTED_EDGE('',*,*,#432,.F.);
#338=ORIENTED_EDGE('',*,*,#472,.F.);
#339=ORIENTED_EDGE('',*,*,#425,.F.);
#340=ORIENTED_EDGE('',*,*,#471,.T.);
#341=ORIENTED_EDGE('',*,*,#413,.F.);
#342=ORIENTED_EDGE('',*,*,#473,.F.);
#343=ORIENTED_EDGE('',*,*,#430,.F.);
#344=ORIENTED_EDGE('',*,*,#472,.T.);
#345=ORIENTED_EDGE('',*,*,#391,.F.);
#346=ORIENTED_EDGE('',*,*,#474,.F.);
#347=ORIENTED_EDGE('',*,*,#410,.F.);
#348=ORIENTED_EDGE('',*,*,#473,.T.);
#349=ORIENTED_EDGE('',*,*,#412,.F.);
#350=ORIENTED_EDGE('',*,*,#475,.F.);
#351=ORIENTED_EDGE('',*,*,#399,.F.);
#352=ORIENTED_EDGE('',*,*,#474,.T.);
#353=ORIENTED_EDGE('',*,*,#442,.F.);
#354=ORIENTED_EDGE('',*,*,#476,.F.);
#355=ORIENTED_EDGE('',*,*,#440,.F.);
#356=ORIENTED_EDGE('',*,*,#475,.T.);
#357=ORIENTED_EDGE('',*,*,#477,.F.);
#358=ORIENTED_EDGE('',*,*,#476,.T.);
#359=ORIENTED_EDGE('',*,*,#395,.F.);
#360=ORIENTED_EDGE('',*,*,#477,.T.);
#361=ORIENTED_EDGE('',*,*,#411,.F.);
#362=EDGE_CURVE('',#478,#479,#546,.F.);
#363=EDGE_CURVE('',#479,#480,#547,.F.);
#364=EDGE_CURVE('',#480,#481,#548,.T.);
#365=EDGE_CURVE('',#481,#478,#549,.T.);
#366=EDGE_CURVE('',#482,#483,#550,.F.);
#367=EDGE_CURVE('',#483,#484,#551,.F.);
#368=EDGE_CURVE('',#484,#485,#552,.T.);
#369=EDGE_CURVE('',#485,#482,#553,.T.);
#370=EDGE_CURVE('',#486,#487,#554,.F.);
#371=EDGE_CURVE('',#487,#488,#52,.F.);
#372=EDGE_CURVE('',#488,#489,#555,.T.);
#373=EDGE_CURVE('',#489,#486,#53,.T.);
#374=EDGE_CURVE('',#490,#491,#556,.F.);
#375=EDGE_CURVE('',#491,#492,#557,.F.);
#376=EDGE_CURVE('',#492,#493,#558,.T.);
#377=EDGE_CURVE('',#493,#490,#559,.T.);
#378=EDGE_CURVE('',#494,#495,#560,.F.);
#379=EDGE_CURVE('',#495,#496,#561,.F.);
#380=EDGE_CURVE('',#496,#497,#562,.T.);
#381=EDGE_CURVE('',#497,#494,#563,.T.);
#382=EDGE_CURVE('',#498,#499,#564,.F.);
#383=EDGE_CURVE('',#499,#500,#54,.F.);
#384=EDGE_CURVE('',#500,#501,#565,.T.);
#385=EDGE_CURVE('',#501,#498,#55,.T.);
#386=EDGE_CURVE('',#502,#503,#566,.F.);
#387=EDGE_CURVE('',#503,#504,#567,.F.);
#388=EDGE_CURVE('',#504,#505,#568,.T.);
#389=EDGE_CURVE('',#505,#502,#569,.T.);
#390=EDGE_CURVE('',#506,#507,#570,.F.);
#391=EDGE_CURVE('',#507,#508,#571,.F.);
#392=EDGE_CURVE('',#508,#509,#572,.T.);
#393=EDGE_CURVE('',#509,#506,#573,.T.);
#394=EDGE_CURVE('',#510,#511,#574,.F.);
#395=EDGE_CURVE('',#511,#512,#56,.F.);
#396=EDGE_CURVE('',#512,#513,#575,.T.);
#397=EDGE_CURVE('',#513,#510,#57,.T.);
#398=EDGE_CURVE('',#514,#515,#576,.F.);
#399=EDGE_CURVE('',#515,#516,#577,.F.);
#400=EDGE_CURVE('',#516,#517,#578,.T.);
#401=EDGE_CURVE('',#517,#514,#579,.T.);
#402=EDGE_CURVE('',#518,#519,#580,.F.);
#403=EDGE_CURVE('',#519,#520,#581,.F.);
#404=EDGE_CURVE('',#520,#521,#582,.T.);
#405=EDGE_CURVE('',#521,#518,#583,.T.);
#406=EDGE_CURVE('',#522,#523,#584,.F.);
#407=EDGE_CURVE('',#523,#524,#58,.F.);
#408=EDGE_CURVE('',#524,#525,#585,.T.);
#409=EDGE_CURVE('',#525,#522,#59,.T.);
#410=EDGE_CURVE('',#526,#527,#586,.T.);
#411=EDGE_CURVE('',#527,#528,#60,.T.);
#412=EDGE_CURVE('',#528,#529,#587,.T.);
#413=EDGE_CURVE('',#529,#530,#61,.F.);
#414=EDGE_CURVE('',#530,#531,#588,.T.);
#415=EDGE_CURVE('',#531,#532,#62,.T.);
#416=EDGE_CURVE('',#532,#533,#589,.T.);
#417=EDGE_CURVE('',#533,#534,#63,.F.);
#418=EDGE_CURVE('',#534,#535,#590,.T.);
#419=EDGE_CURVE('',#535,#536,#64,.T.);
#420=EDGE_CURVE('',#536,#537,#591,.T.);
#421=EDGE_CURVE('',#537,#538,#65,.F.);
#422=EDGE_CURVE('',#538,#539,#592,.T.);
#423=EDGE_CURVE('',#539,#540,#66,.T.);
#424=EDGE_CURVE('',#540,#541,#593,.T.);
#425=EDGE_CURVE('',#541,#526,#67,.F.);
#426=EDGE_CURVE('',#496,#491,#68,.T.);
#427=EDGE_CURVE('',#490,#497,#69,.F.);
#428=EDGE_CURVE('',#484,#479,#70,.T.);
#429=EDGE_CURVE('',#478,#485,#71,.F.);
#430=EDGE_CURVE('',#520,#515,#72,.T.);
#431=EDGE_CURVE('',#514,#521,#73,.F.);
#432=EDGE_CURVE('',#508,#503,#74,.T.);
#433=EDGE_CURVE('',#502,#509,#75,.F.);
#434=EDGE_CURVE('',#492,#487,#76,.T.);
#435=EDGE_CURVE('',#493,#486,#77,.F.);
#436=EDGE_CURVE('',#480,#523,#78,.T.);
#437=EDGE_CURVE('',#481,#522,#79,.F.);
#438=EDGE_CURVE('',#524,#519,#80,.T.);
#439=EDGE_CURVE('',#525,#518,#81,.F.);
#440=EDGE_CURVE('',#516,#511,#82,.T.);
#441=EDGE_CURVE('',#517,#510,#83,.F.);
#442=EDGE_CURVE('',#512,#507,#84,.T.);
#443=EDGE_CURVE('',#513,#506,#85,.F.);
#444=EDGE_CURVE('',#504,#499,#86,.T.);
#445=EDGE_CURVE('',#505,#498,#87,.F.);
#446=EDGE_CURVE('',#500,#495,#88,.T.);
#447=EDGE_CURVE('',#501,#494,#89,.F.);
#448=EDGE_CURVE('',#488,#483,#90,.T.);
#449=EDGE_CURVE('',#489,#482,#91,.F.);
#450=EDGE_CURVE('',#542,#542,#92,.T.);
#451=EDGE_CURVE('',#543,#543,#93,.T.);
#452=EDGE_CURVE('',#544,#544,#94,.T.);
#453=EDGE_CURVE('',#545,#545,#95,.T.);
#454=EDGE_CURVE('',#488,#535,#28,.T.);
#455=EDGE_CURVE('',#536,#487,#29,.F.);
#456=EDGE_CURVE('',#536,#492,#30,.F.);
#457=EDGE_CURVE('',#483,#535,#31,.T.);
#458=EDGE_CURVE('',#537,#491,#96,.T.);
#459=EDGE_CURVE('',#484,#534,#97,.T.);
#460=EDGE_CURVE('',#538,#496,#98,.T.);
#461=EDGE_CURVE('',#479,#533,#99,.T.);
#462=EDGE_CURVE('',#539,#495,#32,.F.);
#463=EDGE_CURVE('',#480,#532,#33,.T.);
#464=EDGE_CURVE('',#539,#500,#34,.F.);
#465=EDGE_CURVE('',#523,#532,#35,.T.);
#466=EDGE_CURVE('',#540,#499,#36,.F.);
#467=EDGE_CURVE('',#524,#531,#37,.T.);
#468=EDGE_CURVE('',#540,#504,#38,.F.);
#469=EDGE_CURVE('',#519,#531,#39,.T.);
#470=EDGE_CURVE('',#541,#503,#100,.T.);
#471=EDGE_CURVE('',#520,#530,#101,.T.);
#472=EDGE_CURVE('',#526,#508,#102,.T.);
#473=EDGE_CURVE('',#515,#529,#103,.T.);
#474=EDGE_CURVE('',#527,#507,#40,.F.);
#475=EDGE_CURVE('',#516,#528,#41,.T.);
#476=EDGE_CURVE('',#527,#512,#42,.F.);
#477=EDGE_CURVE('',#511,#528,#43,.T.);
#478=VERTEX_POINT('',#1184);
#479=VERTEX_POINT('',#1185);
#480=VERTEX_POINT('',#1187);
#481=VERTEX_POINT('',#1189);
#482=VERTEX_POINT('',#1193);
#483=VERTEX_POINT('',#1194);
#484=VERTEX_POINT('',#1196);
#485=VERTEX_POINT('',#1198);
#486=VERTEX_POINT('',#1202);
#487=VERTEX_POINT('',#1203);
#488=VERTEX_POINT('',#1205);
#489=VERTEX_POINT('',#1207);
#490=VERTEX_POINT('',#1211);
#491=VERTEX_POINT('',#1212);
#492=VERTEX_POINT('',#1214);
#493=VERTEX_POINT('',#1216);
#494=VERTEX_POINT('',#1220);
#495=VERTEX_POINT('',#1221);
#496=VERTEX_POINT('',#1223);
#497=VERTEX_POINT('',#1225);
#498=VERTEX_POINT('',#1229);
#499=VERTEX_POINT('',#1230);
#500=VERTEX_POINT('',#1232);
#501=VERTEX_POINT('',#1234);
#502=VERTEX_POINT('',#1238);
#503=VERTEX_POINT('',#1239);
#504=VERTEX_POINT('',#1241);
#505=VERTEX_POINT('',#1243);
#506=VERTEX_POINT('',#1247);
#507=VERTEX_POINT('',#1248);
#508=VERTEX_POINT('',#1250);
#509=VERTEX_POINT('',#1252);
#510=VERTEX_POINT('',#1256);
#511=VERTEX_POINT('',#1257);
#512=VERTEX_POINT('',#1259);
#513=VERTEX_POINT('',#1261);
#514=VERTEX_POINT('',#1265);
#515=VERTEX_POINT('',#1266);
#516=VERTEX_POINT('',#1268);
#517=VERTEX_POINT('',#1270);
#518=VERTEX_POINT('',#1274);
#519=VERTEX_POINT('',#1275);
#520=VERTEX_POINT('',#1277);
#521=VERTEX_POINT('',#1279);
#522=VERTEX_POINT('',#1283);
#523=VERTEX_POINT('',#1284);
#524=VERTEX_POINT('',#1286);
#525=VERTEX_POINT('',#1288);
#526=VERTEX_POINT('',#1292);
#527=VERTEX_POINT('',#1293);
#528=VERTEX_POINT('',#1295);
#529=VERTEX_POINT('',#1297);
#530=VERTEX_POINT('',#1299);
#531=VERTEX_POINT('',#1301);
#532=VERTEX_POINT('',#1303);
#533=VERTEX_POINT('',#1305);
#534=VERTEX_POINT('',#1307);
#535=VERTEX_POINT('',#1309);
#536=VERTEX_POINT('',#1311);
#537=VERTEX_POINT('',#1313);
#538=VERTEX_POINT('',#1315);
#539=VERTEX_POINT('',#1317);
#540=VERTEX_POINT('',#1319);
#541=VERTEX_POINT('',#1321);
#542=VERTEX_POINT('',#1361);
#543=VERTEX_POINT('',#1363);
#544=VERTEX_POINT('',#1367);
#545=VERTEX_POINT('',#1370);
#546=LINE('',#1183,#594);
#547=LINE('',#1186,#595);
#548=LINE('',#1188,#596);
#549=LINE('',#1190,#597);
#550=LINE('',#1192,#598);
#551=LINE('',#1195,#599);
#552=LINE('',#1197,#600);
#553=LINE('',#1199,#601);
#554=LINE('',#1201,#602);
#555=LINE('',#1206,#603);
#556=LINE('',#1210,#604);
#557=LINE('',#1213,#605);
#558=LINE('',#1215,#606);
#559=LINE('',#1217,#607);
#560=LINE('',#1219,#608);
#561=LINE('',#1222,#609);
#562=LINE('',#1224,#610);
#563=LINE('',#1226,#611);
#564=LINE('',#1228,#612);
#565=LINE('',#1233,#613);
#566=LINE('',#1237,#614);
#567=LINE('',#1240,#615);
#568=LINE('',#1242,#616);
#569=LINE('',#1244,#617);
#570=LINE('',#1246,#618);
#571=LINE('',#1249,#619);
#572=LINE('',#1251,#620);
#573=LINE('',#1253,#621);
#574=LINE('',#1255,#622);
#575=LINE('',#1260,#623);
#576=LINE('',#1264,#624);
#577=LINE('',#1267,#625);
#578=LINE('',#1269,#626);
#579=LINE('',#1271,#627);
#580=LINE('',#1273,#628);
#581=LINE('',#1276,#629);
#582=LINE('',#1278,#630);
#583=LINE('',#1280,#631);
#584=LINE('',#1282,#632);
#585=LINE('',#1287,#633);
#586=LINE('',#1291,#634);
#587=LINE('',#1296,#635);
#588=LINE('',#1300,#636);
#589=LINE('',#1304,#637);
#590=LINE('',#1308,#638);
#591=LINE('',#1312,#639);
#592=LINE('',#1316,#640);
#593=LINE('',#1320,#641);
#594=VECTOR('',#939,1000.);
#595=VECTOR('',#940,1000.);
#596=VECTOR('',#941,1000.);
#597=VECTOR('',#942,1000.);
#598=VECTOR('',#945,1000.);
#599=VECTOR('',#946,1000.);
#600=VECTOR('',#947,1000.);
#601=VECTOR('',#948,1000.);
#602=VECTOR('',#951,1000.);
#603=VECTOR('',#954,1000.);
#604=VECTOR('',#959,1000.);
#605=VECTOR('',#960,1000.);
#606=VECTOR('',#961,1000.);
#607=VECTOR('',#962,1000.);
#608=VECTOR('',#965,1000.);
#609=VECTOR('',#966,1000.);
#610=VECTOR('',#967,1000.);
#611=VECTOR('',#968,1000.);
#612=VECTOR('',#971,1000.);
#613=VECTOR('',#974,1000.);
#614=VECTOR('',#979,1000.);
#615=VECTOR('',#980,1000.);
#616=VECTOR('',#981,1000.);
#617=VECTOR('',#982,1000.);
#618=VECTOR('',#985,1000.);
#619=VECTOR('',#986,1000.);
#620=VECTOR('',#987,1000.);
#621=VECTOR('',#988,1000.);
#622=VECTOR('',#991,1000.);
#623=VECTOR('',#994,1000.);
#624=VECTOR('',#999,1000.);
#625=VECTOR('',#1000,1000.);
#626=VECTOR('',#1001,1000.);
#627=VECTOR('',#1002,1000.);
#628=VECTOR('',#1005,1000.);
#629=VECTOR('',#1006,1000.);
#630=VECTOR('',#1007,1000.);
#631=VECTOR('',#1008,1000.);
#632=VECTOR('',#1011,1000.);
#633=VECTOR('',#1014,1000.);
#634=VECTOR('',#1019,1000.);
#635=VECTOR('',#1022,1000.);
#636=VECTOR('',#1025,1000.);
#637=VECTOR('',#1028,1000.);
#638=VECTOR('',#1031,1000.);
#639=VECTOR('',#1034,1000.);
#640=VECTOR('',#1037,1000.);
#641=VECTOR('',#1040,1000.);
#642=EDGE_LOOP('',(#130,#131,#132,#133));
#643=EDGE_LOOP('',(#134,#135,#136,#137));
#644=EDGE_LOOP('',(#138,#139,#140,#141));
#645=EDGE_LOOP('',(#142,#143,#144,#145));
#646=EDGE_LOOP('',(#146,#147,#148,#149));
#647=EDGE_LOOP('',(#150,#151,#152,#153));
#648=EDGE_LOOP('',(#154,#155,#156,#157));
#649=EDGE_LOOP('',(#158,#159,#160,#161));
#650=EDGE_LOOP('',(#162,#163,#164,#165));
#651=EDGE_LOOP('',(#166,#167,#168,#169));
#652=EDGE_LOOP('',(#170,#171,#172,#173));
#653=EDGE_LOOP('',(#174,#175,#176,#177));
#654=EDGE_LOOP('',(#178,#179,#180,#181,#182,#183,#184,#185,#186,#187,#188,
#189,#190,#191,#192,#193));
#655=EDGE_LOOP('',(#194,#195,#196,#197));
#656=EDGE_LOOP('',(#198,#199,#200,#201));
#657=EDGE_LOOP('',(#202,#203,#204,#205));
#658=EDGE_LOOP('',(#206,#207,#208,#209));
#659=EDGE_LOOP('',(#210,#211,#212,#213));
#660=EDGE_LOOP('',(#214,#215,#216,#217));
#661=EDGE_LOOP('',(#218,#219,#220,#221));
#662=EDGE_LOOP('',(#222,#223,#224,#225));
#663=EDGE_LOOP('',(#226,#227,#228,#229));
#664=EDGE_LOOP('',(#230,#231,#232,#233));
#665=EDGE_LOOP('',(#234,#235,#236,#237));
#666=EDGE_LOOP('',(#238,#239,#240,#241));
#667=EDGE_LOOP('',(#242));
#668=EDGE_LOOP('',(#243));
#669=EDGE_LOOP('',(#244,#245,#246,#247,#248,#249,#250,#251,#252,#253,#254,
#255,#256,#257,#258,#259,#260,#261,#262,#263,#264,#265,#266,#267));
#670=EDGE_LOOP('',(#268));
#671=EDGE_LOOP('',(#269));
#672=EDGE_LOOP('',(#270));
#673=EDGE_LOOP('',(#271));
#674=EDGE_LOOP('',(#272));
#675=EDGE_LOOP('',(#273));
#676=EDGE_LOOP('',(#274,#275,#276,#277));
#677=EDGE_LOOP('',(#278,#279,#280));
#678=EDGE_LOOP('',(#281,#282,#283));
#679=EDGE_LOOP('',(#284,#285,#286,#287));
#680=EDGE_LOOP('',(#288,#289,#290,#291));
#681=EDGE_LOOP('',(#292,#293,#294,#295));
#682=EDGE_LOOP('',(#296,#297,#298,#299));
#683=EDGE_LOOP('',(#300,#301,#302,#303));
#684=EDGE_LOOP('',(#304,#305,#306,#307));
#685=EDGE_LOOP('',(#308,#309,#310));
#686=EDGE_LOOP('',(#311,#312,#313));
#687=EDGE_LOOP('',(#314,#315,#316,#317));
#688=EDGE_LOOP('',(#318,#319,#320,#321));
#689=EDGE_LOOP('',(#322,#323,#324));
#690=EDGE_LOOP('',(#325,#326,#327));
#691=EDGE_LOOP('',(#328,#329,#330,#331));
#692=EDGE_LOOP('',(#332,#333,#334,#335));
#693=EDGE_LOOP('',(#336,#337,#338,#339));
#694=EDGE_LOOP('',(#340,#341,#342,#343));
#695=EDGE_LOOP('',(#344,#345,#346,#347));
#696=EDGE_LOOP('',(#348,#349,#350,#351));
#697=EDGE_LOOP('',(#352,#353,#354));
#698=EDGE_LOOP('',(#355,#356,#357));
#699=EDGE_LOOP('',(#358,#359,#360,#361));
#700=FACE_BOUND('',#642,.T.);
#701=FACE_BOUND('',#643,.T.);
#702=FACE_BOUND('',#644,.T.);
#703=FACE_BOUND('',#645,.T.);
#704=FACE_BOUND('',#646,.T.);
#705=FACE_BOUND('',#647,.T.);
#706=FACE_BOUND('',#648,.T.);
#707=FACE_BOUND('',#649,.T.);
#708=FACE_BOUND('',#650,.T.);
#709=FACE_BOUND('',#651,.T.);
#710=FACE_BOUND('',#652,.T.);
#711=FACE_BOUND('',#653,.T.);
#712=FACE_BOUND('',#654,.T.);
#713=FACE_BOUND('',#655,.T.);
#714=FACE_BOUND('',#656,.T.);
#715=FACE_BOUND('',#657,.T.);
#716=FACE_BOUND('',#658,.T.);
#717=FACE_BOUND('',#659,.T.);
#718=FACE_BOUND('',#660,.T.);
#719=FACE_BOUND('',#661,.T.);
#720=FACE_BOUND('',#662,.T.);
#721=FACE_BOUND('',#663,.T.);
#722=FACE_BOUND('',#664,.T.);
#723=FACE_BOUND('',#665,.T.);
#724=FACE_BOUND('',#666,.T.);
#725=FACE_BOUND('',#667,.T.);
#726=FACE_BOUND('',#668,.T.);
#727=FACE_BOUND('',#669,.T.);
#728=FACE_BOUND('',#670,.T.);
#729=FACE_BOUND('',#671,.T.);
#730=FACE_BOUND('',#672,.T.);
#731=FACE_BOUND('',#673,.T.);
#732=FACE_BOUND('',#674,.T.);
#733=FACE_BOUND('',#675,.T.);
#734=FACE_BOUND('',#676,.T.);
#735=FACE_BOUND('',#677,.T.);
#736=FACE_BOUND('',#678,.T.);
#737=FACE_BOUND('',#679,.T.);
#738=FACE_BOUND('',#680,.T.);
#739=FACE_BOUND('',#681,.T.);
#740=FACE_BOUND('',#682,.T.);
#741=FACE_BOUND('',#683,.T.);
#742=FACE_BOUND('',#684,.T.);
#743=FACE_BOUND('',#685,.T.);
#744=FACE_BOUND('',#686,.T.);
#745=FACE_BOUND('',#687,.T.);
#746=FACE_BOUND('',#688,.T.);
#747=FACE_BOUND('',#689,.T.);
#748=FACE_BOUND('',#690,.T.);
#749=FACE_BOUND('',#691,.T.);
#750=FACE_BOUND('',#692,.T.);
#751=FACE_BOUND('',#693,.T.);
#752=FACE_BOUND('',#694,.T.);
#753=FACE_BOUND('',#695,.T.);
#754=FACE_BOUND('',#696,.T.);
#755=FACE_BOUND('',#697,.T.);
#756=FACE_BOUND('',#698,.T.);
#757=FACE_BOUND('',#699,.T.);
#758=PLANE('',#837);
#759=PLANE('',#838);
#760=PLANE('',#842);
#761=PLANE('',#843);
#762=PLANE('',#847);
#763=PLANE('',#848);
#764=PLANE('',#852);
#765=PLANE('',#853);
#766=PLANE('',#857);
#767=PLANE('',#905);
#768=PLANE('',#906);
#769=PLANE('',#910);
#770=ADVANCED_FACE('',(#700),#758,.F.);
#771=ADVANCED_FACE('',(#701),#759,.F.);
#772=ADVANCED_FACE('',(#702),#104,.T.);
#773=ADVANCED_FACE('',(#703),#760,.F.);
#774=ADVANCED_FACE('',(#704),#761,.F.);
#775=ADVANCED_FACE('',(#705),#105,.T.);
#776=ADVANCED_FACE('',(#706),#762,.F.);
#777=ADVANCED_FACE('',(#707),#763,.F.);
#778=ADVANCED_FACE('',(#708),#106,.T.);
#779=ADVANCED_FACE('',(#709),#764,.F.);
#780=ADVANCED_FACE('',(#710),#765,.F.);
#781=ADVANCED_FACE('',(#711),#107,.T.);
#782=ADVANCED_FACE('',(#712),#766,.T.);
#783=ADVANCED_FACE('',(#713),#108,.F.);
#784=ADVANCED_FACE('',(#714),#109,.F.);
#785=ADVANCED_FACE('',(#715),#110,.F.);
#786=ADVANCED_FACE('',(#716),#111,.F.);
#787=ADVANCED_FACE('',(#717),#112,.T.);
#788=ADVANCED_FACE('',(#718),#113,.T.);
#789=ADVANCED_FACE('',(#719),#114,.T.);
#790=ADVANCED_FACE('',(#720),#115,.T.);
#791=ADVANCED_FACE('',(#721),#116,.T.);
#792=ADVANCED_FACE('',(#722),#117,.T.);
#793=ADVANCED_FACE('',(#723),#118,.T.);
#794=ADVANCED_FACE('',(#724),#119,.T.);
#795=ADVANCED_FACE('',(#725,#726),#120,.T.);
#796=ADVANCED_FACE('',(#727,#728),#767,.T.);
#797=ADVANCED_FACE('',(#729,#730),#768,.F.);
#798=ADVANCED_FACE('',(#731,#732),#121,.F.);
#799=ADVANCED_FACE('',(#733),#769,.F.);
#800=ADVANCED_FACE('',(#734),#44,.T.);
#801=ADVANCED_FACE('',(#735),#20,.T.);
#802=ADVANCED_FACE('',(#736),#21,.T.);
#803=ADVANCED_FACE('',(#737),#122,.T.);
#804=ADVANCED_FACE('',(#738),#123,.T.);
#805=ADVANCED_FACE('',(#739),#45,.T.);
#806=ADVANCED_FACE('',(#740),#46,.T.);
#807=ADVANCED_FACE('',(#741),#124,.T.);
#808=ADVANCED_FACE('',(#742),#125,.T.);
#809=ADVANCED_FACE('',(#743),#22,.T.);
#810=ADVANCED_FACE('',(#744),#23,.T.);
#811=ADVANCED_FACE('',(#745),#47,.T.);
#812=ADVANCED_FACE('',(#746),#48,.T.);
#813=ADVANCED_FACE('',(#747),#24,.T.);
#814=ADVANCED_FACE('',(#748),#25,.T.);
#815=ADVANCED_FACE('',(#749),#126,.T.);
#816=ADVANCED_FACE('',(#750),#127,.T.);
#817=ADVANCED_FACE('',(#751),#49,.T.);
#818=ADVANCED_FACE('',(#752),#50,.T.);
#819=ADVANCED_FACE('',(#753),#128,.T.);
#820=ADVANCED_FACE('',(#754),#129,.T.);
#821=ADVANCED_FACE('',(#755),#26,.T.);
#822=ADVANCED_FACE('',(#756),#27,.T.);
#823=ADVANCED_FACE('',(#757),#51,.T.);
#824=CLOSED_SHELL('',(#770,#771,#772,#773,#774,#775,#776,#777,#778,#779,
#780,#781,#782,#783,#784,#785,#786,#787,#788,#789,#790,#791,#792,#793,#794,
#795,#796,#797,#798,#799,#800,#801,#802,#803,#804,#805,#806,#807,#808,#809,
#810,#811,#812,#813,#814,#815,#816,#817,#818,#819,#820,#821,#822,#823));
#825=STYLED_ITEM('',(#826),#833);
#826=PRESENTATION_STYLE_ASSIGNMENT((#827));
#827=SURFACE_STYLE_USAGE(.BOTH.,#828);
#828=SURFACE_SIDE_STYLE('',(#829));
#829=SURFACE_STYLE_FILL_AREA(#830);
#830=FILL_AREA_STYLE('',(#831));
#831=FILL_AREA_STYLE_COLOUR('',#832);
#832=COLOUR_RGB('',0.5,0.5,0.5);
#833=MANIFOLD_SOLID_BREP('',#824);
#834=SHAPE_DEFINITION_REPRESENTATION(#1602,#835);
#835=SHAPE_REPRESENTATION('Gray_4499858_JCA',(#836),#1597);
#836=AXIS2_PLACEMENT_3D('',#1181,#935,#936);
#837=AXIS2_PLACEMENT_3D('',#1182,#937,#938);
#838=AXIS2_PLACEMENT_3D('',#1191,#943,#944);
#839=AXIS2_PLACEMENT_3D('',#1200,#949,#950);
#840=AXIS2_PLACEMENT_3D('',#1204,#952,#953);
#841=AXIS2_PLACEMENT_3D('',#1208,#955,#956);
#842=AXIS2_PLACEMENT_3D('',#1209,#957,#958);
#843=AXIS2_PLACEMENT_3D('',#1218,#963,#964);
#844=AXIS2_PLACEMENT_3D('',#1227,#969,#970);
#845=AXIS2_PLACEMENT_3D('',#1231,#972,#973);
#846=AXIS2_PLACEMENT_3D('',#1235,#975,#976);
#847=AXIS2_PLACEMENT_3D('',#1236,#977,#978);
#848=AXIS2_PLACEMENT_3D('',#1245,#983,#984);
#849=AXIS2_PLACEMENT_3D('',#1254,#989,#990);
#850=AXIS2_PLACEMENT_3D('',#1258,#992,#993);
#851=AXIS2_PLACEMENT_3D('',#1262,#995,#996);
#852=AXIS2_PLACEMENT_3D('',#1263,#997,#998);
#853=AXIS2_PLACEMENT_3D('',#1272,#1003,#1004);
#854=AXIS2_PLACEMENT_3D('',#1281,#1009,#1010);
#855=AXIS2_PLACEMENT_3D('',#1285,#1012,#1013);
#856=AXIS2_PLACEMENT_3D('',#1289,#1015,#1016);
#857=AXIS2_PLACEMENT_3D('',#1290,#1017,#1018);
#858=AXIS2_PLACEMENT_3D('',#1294,#1020,#1021);
#859=AXIS2_PLACEMENT_3D('',#1298,#1023,#1024);
#860=AXIS2_PLACEMENT_3D('',#1302,#1026,#1027);
#861=AXIS2_PLACEMENT_3D('',#1306,#1029,#1030);
#862=AXIS2_PLACEMENT_3D('',#1310,#1032,#1033);
#863=AXIS2_PLACEMENT_3D('',#1314,#1035,#1036);
#864=AXIS2_PLACEMENT_3D('',#1318,#1038,#1039);
#865=AXIS2_PLACEMENT_3D('',#1322,#1041,#1042);
#866=AXIS2_PLACEMENT_3D('',#1323,#1043,#1044);
#867=AXIS2_PLACEMENT_3D('',#1324,#1045,#1046);
#868=AXIS2_PLACEMENT_3D('',#1325,#1047,#1048);
#869=AXIS2_PLACEMENT_3D('',#1326,#1049,#1050);
#870=AXIS2_PLACEMENT_3D('',#1327,#1051,#1052);
#871=AXIS2_PLACEMENT_3D('',#1328,#1053,#1054);
#872=AXIS2_PLACEMENT_3D('',#1329,#1055,#1056);
#873=AXIS2_PLACEMENT_3D('',#1330,#1057,#1058);
#874=AXIS2_PLACEMENT_3D('',#1331,#1059,#1060);
#875=AXIS2_PLACEMENT_3D('',#1332,#1061,#1062);
#876=AXIS2_PLACEMENT_3D('',#1333,#1063,#1064);
#877=AXIS2_PLACEMENT_3D('',#1334,#1065,#1066);
#878=AXIS2_PLACEMENT_3D('',#1335,#1067,#1068);
#879=AXIS2_PLACEMENT_3D('',#1336,#1069,#1070);
#880=AXIS2_PLACEMENT_3D('',#1337,#1071,#1072);
#881=AXIS2_PLACEMENT_3D('',#1338,#1073,#1074);
#882=AXIS2_PLACEMENT_3D('',#1339,#1075,#1076);
#883=AXIS2_PLACEMENT_3D('',#1340,#1077,#1078);
#884=AXIS2_PLACEMENT_3D('',#1341,#1079,#1080);
#885=AXIS2_PLACEMENT_3D('',#1342,#1081,#1082);
#886=AXIS2_PLACEMENT_3D('',#1343,#1083,#1084);
#887=AXIS2_PLACEMENT_3D('',#1344,#1085,#1086);
#888=AXIS2_PLACEMENT_3D('',#1345,#1087,#1088);
#889=AXIS2_PLACEMENT_3D('',#1346,#1089,#1090);
#890=AXIS2_PLACEMENT_3D('',#1347,#1091,#1092);
#891=AXIS2_PLACEMENT_3D('',#1348,#1093,#1094);
#892=AXIS2_PLACEMENT_3D('',#1349,#1095,#1096);
#893=AXIS2_PLACEMENT_3D('',#1350,#1097,#1098);
#894=AXIS2_PLACEMENT_3D('',#1351,#1099,#1100);
#895=AXIS2_PLACEMENT_3D('',#1352,#1101,#1102);
#896=AXIS2_PLACEMENT_3D('',#1353,#1103,#1104);
#897=AXIS2_PLACEMENT_3D('',#1354,#1105,#1106);
#898=AXIS2_PLACEMENT_3D('',#1355,#1107,#1108);
#899=AXIS2_PLACEMENT_3D('',#1356,#1109,#1110);
#900=AXIS2_PLACEMENT_3D('',#1357,#1111,#1112);
#901=AXIS2_PLACEMENT_3D('',#1358,#1113,#1114);
#902=AXIS2_PLACEMENT_3D('',#1359,#1115,#1116);
#903=AXIS2_PLACEMENT_3D('',#1360,#1117,#1118);
#904=AXIS2_PLACEMENT_3D('',#1362,#1119,#1120);
#905=AXIS2_PLACEMENT_3D('',#1364,#1121,#1122);
#906=AXIS2_PLACEMENT_3D('',#1365,#1123,#1124);
#907=AXIS2_PLACEMENT_3D('',#1366,#1125,#1126);
#908=AXIS2_PLACEMENT_3D('',#1368,#1127,#1128);
#909=AXIS2_PLACEMENT_3D('',#1369,#1129,#1130);
#910=AXIS2_PLACEMENT_3D('',#1371,#1131,#1132);
#911=AXIS2_PLACEMENT_3D('',#1372,#1133,#1134);
#912=AXIS2_PLACEMENT_3D('',#1423,#1135,#1136);
#913=AXIS2_PLACEMENT_3D('',#1424,#1137,#1138);
#914=AXIS2_PLACEMENT_3D('',#1425,#1139,#1140);
#915=AXIS2_PLACEMENT_3D('',#1426,#1141,#1142);
#916=AXIS2_PLACEMENT_3D('',#1427,#1143,#1144);
#917=AXIS2_PLACEMENT_3D('',#1428,#1145,#1146);
#918=AXIS2_PLACEMENT_3D('',#1429,#1147,#1148);
#919=AXIS2_PLACEMENT_3D('',#1430,#1149,#1150);
#920=AXIS2_PLACEMENT_3D('',#1431,#1151,#1152);
#921=AXIS2_PLACEMENT_3D('',#1437,#1153,#1154);
#922=AXIS2_PLACEMENT_3D('',#1483,#1155,#1156);
#923=AXIS2_PLACEMENT_3D('',#1489,#1157,#1158);
#924=AXIS2_PLACEMENT_3D('',#1535,#1159,#1160);
#925=AXIS2_PLACEMENT_3D('',#1536,#1161,#1162);
#926=AXIS2_PLACEMENT_3D('',#1537,#1163,#1164);
#927=AXIS2_PLACEMENT_3D('',#1538,#1165,#1166);
#928=AXIS2_PLACEMENT_3D('',#1539,#1167,#1168);
#929=AXIS2_PLACEMENT_3D('',#1540,#1169,#1170);
#930=AXIS2_PLACEMENT_3D('',#1541,#1171,#1172);
#931=AXIS2_PLACEMENT_3D('',#1542,#1173,#1174);
#932=AXIS2_PLACEMENT_3D('',#1543,#1175,#1176);
#933=AXIS2_PLACEMENT_3D('',#1549,#1177,#1178);
#934=AXIS2_PLACEMENT_3D('',#1595,#1179,#1180);
#935=DIRECTION('',(0.,0.,1.));
#936=DIRECTION('',(1.,0.,0.));
#937=DIRECTION('',(8.1835253831517E-17,0.,-1.));
#938=DIRECTION('',(-1.,0.,-8.1835253831517E-17));
#939=DIRECTION('',(0.,-1.,0.));
#940=DIRECTION('',(1.,0.,8.1835253831517E-17));
#941=DIRECTION('',(0.,-1.,0.));
#942=DIRECTION('',(1.,0.,8.1835253831517E-17));
#943=DIRECTION('',(1.,0.,8.1835253831517E-17));
#944=DIRECTION('',(8.1835253831517E-17,0.,-1.));
#945=DIRECTION('',(0.,-1.,0.));
#946=DIRECTION('',(-8.1835253831517E-17,0.,1.));
#947=DIRECTION('',(0.,-1.,0.));
#948=DIRECTION('',(-8.1835253831517E-17,0.,1.));
#949=DIRECTION('',(0.,-1.,0.));
#950=DIRECTION('',(0.,0.,-1.));
#951=DIRECTION('',(0.,-1.,0.));
#952=DIRECTION('',(0.,1.,0.));
#953=DIRECTION('',(0.,0.,1.));
#954=DIRECTION('',(0.,-1.,0.));
#955=DIRECTION('',(0.,1.,0.));
#956=DIRECTION('',(0.,0.,1.));
#957=DIRECTION('',(-1.,0.,8.1835253831517E-17));
#958=DIRECTION('',(8.1835253831517E-17,0.,1.));
#959=DIRECTION('',(0.,-1.,0.));
#960=DIRECTION('',(-8.1835253831517E-17,0.,-1.));
#961=DIRECTION('',(0.,-1.,0.));
#962=DIRECTION('',(-8.1835253831517E-17,0.,-1.));
#963=DIRECTION('',(-8.1835253831517E-17,0.,-1.));
#964=DIRECTION('',(-1.,0.,8.1835253831517E-17));
#965=DIRECTION('',(0.,-1.,0.));
#966=DIRECTION('',(1.,0.,-8.1835253831517E-17));
#967=DIRECTION('',(0.,-1.,0.));
#968=DIRECTION('',(1.,0.,-8.1835253831517E-17));
#969=DIRECTION('',(0.,-1.,0.));
#970=DIRECTION('',(0.,0.,-1.));
#971=DIRECTION('',(0.,-1.,0.));
#972=DIRECTION('',(0.,1.,0.));
#973=DIRECTION('',(0.,0.,1.));
#974=DIRECTION('',(0.,-1.,0.));
#975=DIRECTION('',(0.,1.,0.));
#976=DIRECTION('',(0.,0.,1.));
#977=DIRECTION('',(8.1835253831517E-17,0.,1.));
#978=DIRECTION('',(1.,0.,-8.1835253831517E-17));
#979=DIRECTION('',(0.,-1.,0.));
#980=DIRECTION('',(-1.,0.,8.1835253831517E-17));
#981=DIRECTION('',(0.,-1.,0.));
#982=DIRECTION('',(-1.,0.,8.1835253831517E-17));
#983=DIRECTION('',(-1.,0.,-2.45505761494551E-16));
#984=DIRECTION('',(-2.45505761494551E-16,0.,1.));
#985=DIRECTION('',(0.,-1.,0.));
#986=DIRECTION('',(2.45505761494551E-16,0.,-1.));
#987=DIRECTION('',(0.,-1.,0.));
#988=DIRECTION('',(2.45505761494551E-16,0.,-1.));
#989=DIRECTION('',(0.,-1.,0.));
#990=DIRECTION('',(0.,0.,-1.));
#991=DIRECTION('',(0.,-1.,0.));
#992=DIRECTION('',(0.,1.,0.));
#993=DIRECTION('',(0.,0.,1.));
#994=DIRECTION('',(0.,-1.,0.));
#995=DIRECTION('',(0.,1.,0.));
#996=DIRECTION('',(0.,0.,1.));
#997=DIRECTION('',(1.,0.,8.1835253831517E-17));
#998=DIRECTION('',(8.1835253831517E-17,0.,-1.));
#999=DIRECTION('',(0.,-1.,0.));
#1000=DIRECTION('',(-8.1835253831517E-17,0.,1.));
#1001=DIRECTION('',(0.,-1.,0.));
#1002=DIRECTION('',(-8.1835253831517E-17,0.,1.));
#1003=DIRECTION('',(-2.45505761494551E-16,0.,1.));
#1004=DIRECTION('',(1.,0.,2.45505761494551E-16));
#1005=DIRECTION('',(0.,-1.,0.));
#1006=DIRECTION('',(-1.,0.,-2.45505761494551E-16));
#1007=DIRECTION('',(0.,-1.,0.));
#1008=DIRECTION('',(-1.,0.,-2.45505761494551E-16));
#1009=DIRECTION('',(0.,-1.,0.));
#1010=DIRECTION('',(0.,0.,-1.));
#1011=DIRECTION('',(0.,-1.,0.));
#1012=DIRECTION('',(0.,1.,0.));
#1013=DIRECTION('',(0.,0.,1.));
#1014=DIRECTION('',(0.,-1.,0.));
#1015=DIRECTION('',(0.,1.,0.));
#1016=DIRECTION('',(0.,0.,1.));
#1017=DIRECTION('',(0.,1.,0.));
#1018=DIRECTION('',(0.,0.,1.));
#1019=DIRECTION('',(2.45505761494551E-16,0.,-1.));
#1020=DIRECTION('',(0.,1.,0.));
#1021=DIRECTION('',(0.,0.,1.));
#1022=DIRECTION('',(-8.1835253831517E-17,0.,1.));
#1023=DIRECTION('',(0.,1.,0.));
#1024=DIRECTION('',(0.,0.,1.));
#1025=DIRECTION('',(-1.,0.,-2.45505761494551E-16));
#1026=DIRECTION('',(0.,1.,0.));
#1027=DIRECTION('',(0.,0.,1.));
#1028=DIRECTION('',(1.,0.,8.1835253831517E-17));
#1029=DIRECTION('',(0.,1.,0.));
#1030=DIRECTION('',(0.,0.,1.));
#1031=DIRECTION('',(-8.1835253831517E-17,0.,1.));
#1032=DIRECTION('',(0.,1.,0.));
#1033=DIRECTION('',(0.,0.,1.));
#1034=DIRECTION('',(-8.1835253831517E-17,0.,-1.));
#1035=DIRECTION('',(0.,1.,0.));
#1036=DIRECTION('',(0.,0.,1.));
#1037=DIRECTION('',(1.,0.,-8.1835253831517E-17));
#1038=DIRECTION('',(0.,1.,0.));
#1039=DIRECTION('',(0.,0.,1.));
#1040=DIRECTION('',(-1.,0.,8.1835253831517E-17));
#1041=DIRECTION('',(0.,1.,0.));
#1042=DIRECTION('',(0.,0.,1.));
#1043=DIRECTION('',(0.,1.,0.));
#1044=DIRECTION('',(0.,0.,1.));
#1045=DIRECTION('',(0.,1.,0.));
#1046=DIRECTION('',(0.,0.,1.));
#1047=DIRECTION('',(0.,1.,0.));
#1048=DIRECTION('',(0.,0.,1.));
#1049=DIRECTION('',(0.,1.,0.));
#1050=DIRECTION('',(0.,0.,1.));
#1051=DIRECTION('',(0.,1.,0.));
#1052=DIRECTION('',(0.,0.,1.));
#1053=DIRECTION('',(0.,1.,0.));
#1054=DIRECTION('',(0.,0.,1.));
#1055=DIRECTION('',(0.,1.,0.));
#1056=DIRECTION('',(0.,0.,1.));
#1057=DIRECTION('',(0.,1.,0.));
#1058=DIRECTION('',(0.,0.,1.));
#1059=DIRECTION('',(0.,1.,0.));
#1060=DIRECTION('',(0.,0.,1.));
#1061=DIRECTION('',(0.,1.,0.));
#1062=DIRECTION('',(0.,0.,1.));
#1063=DIRECTION('',(0.,1.,0.));
#1064=DIRECTION('',(0.,0.,1.));
#1065=DIRECTION('',(0.,1.,0.));
#1066=DIRECTION('',(0.,0.,1.));
#1067=DIRECTION('',(0.,-1.,0.));
#1068=DIRECTION('',(0.,0.,-1.));
#1069=DIRECTION('',(0.,-1.,0.));
#1070=DIRECTION('',(0.,0.,-1.));
#1071=DIRECTION('',(0.,1.,0.));
#1072=DIRECTION('',(0.,0.,1.));
#1073=DIRECTION('',(0.,-1.,0.));
#1074=DIRECTION('',(0.,0.,-1.));
#1075=DIRECTION('',(0.,-1.,0.));
#1076=DIRECTION('',(0.,0.,-1.));
#1077=DIRECTION('',(0.,1.,0.));
#1078=DIRECTION('',(0.,0.,1.));
#1079=DIRECTION('',(0.,-1.,0.));
#1080=DIRECTION('',(0.,0.,-1.));
#1081=DIRECTION('',(0.,-1.,0.));
#1082=DIRECTION('',(0.,0.,-1.));
#1083=DIRECTION('',(0.,1.,0.));
#1084=DIRECTION('',(0.,0.,1.));
#1085=DIRECTION('',(0.,-1.,0.));
#1086=DIRECTION('',(0.,0.,-1.));
#1087=DIRECTION('',(0.,-1.,0.));
#1088=DIRECTION('',(0.,0.,-1.));
#1089=DIRECTION('',(0.,1.,0.));
#1090=DIRECTION('',(0.,0.,1.));
#1091=DIRECTION('',(0.,-1.,0.));
#1092=DIRECTION('',(0.,0.,-1.));
#1093=DIRECTION('',(0.,-1.,0.));
#1094=DIRECTION('',(0.,0.,-1.));
#1095=DIRECTION('',(0.,1.,0.));
#1096=DIRECTION('',(0.,0.,1.));
#1097=DIRECTION('',(0.,-1.,0.));
#1098=DIRECTION('',(0.,0.,-1.));
#1099=DIRECTION('',(0.,-1.,0.));
#1100=DIRECTION('',(0.,0.,-1.));
#1101=DIRECTION('',(0.,1.,0.));
#1102=DIRECTION('',(0.,0.,1.));
#1103=DIRECTION('',(0.,-1.,0.));
#1104=DIRECTION('',(0.,0.,-1.));
#1105=DIRECTION('',(0.,-1.,0.));
#1106=DIRECTION('',(0.,0.,-1.));
#1107=DIRECTION('',(0.,1.,0.));
#1108=DIRECTION('',(0.,0.,1.));
#1109=DIRECTION('',(0.,-1.,0.));
#1110=DIRECTION('',(0.,0.,-1.));
#1111=DIRECTION('',(0.,-1.,0.));
#1112=DIRECTION('',(0.,0.,-1.));
#1113=DIRECTION('',(0.,1.,0.));
#1114=DIRECTION('',(0.,0.,1.));
#1115=DIRECTION('',(0.,-1.,0.));
#1116=DIRECTION('',(0.,0.,-1.));
#1117=DIRECTION('',(0.,1.,0.));
#1118=DIRECTION('',(0.,0.,1.));
#1119=DIRECTION('',(0.,1.,0.));
#1120=DIRECTION('',(0.,0.,1.));
#1121=DIRECTION('',(0.,1.,0.));
#1122=DIRECTION('',(0.,0.,1.));
#1123=DIRECTION('',(0.,1.,0.));
#1124=DIRECTION('',(0.,0.,1.));
#1125=DIRECTION('',(0.,1.,0.));
#1126=DIRECTION('',(1.,0.,0.));
#1127=DIRECTION('',(0.,-1.,0.));
#1128=DIRECTION('',(0.,0.,-1.));
#1129=DIRECTION('',(0.,1.,0.));
#1130=DIRECTION('',(1.,0.,0.));
#1131=DIRECTION('',(0.,1.,0.));
#1132=DIRECTION('',(0.,0.,1.));
#1133=DIRECTION('',(0.,1.,0.));
#1134=DIRECTION('',(0.,0.,1.));
#1135=DIRECTION('',(8.1835253831517E-17,0.,1.));
#1136=DIRECTION('',(1.,0.,-8.1835253831517E-17));
#1137=DIRECTION('',(0.,0.,-1.));
#1138=DIRECTION('',(-1.,0.,0.));
#1139=DIRECTION('',(8.1835253831517E-17,0.,-1.));
#1140=DIRECTION('',(-1.,0.,-8.1835253831517E-17));
#1141=DIRECTION('',(0.,0.,-1.));
#1142=DIRECTION('',(-1.,0.,0.));
#1143=DIRECTION('',(0.,1.,0.));
#1144=DIRECTION('',(0.,0.,1.));
#1145=DIRECTION('',(1.,0.,0.));
#1146=DIRECTION('',(0.,0.,-1.));
#1147=DIRECTION('',(0.,1.,0.));
#1148=DIRECTION('',(0.,0.,1.));
#1149=DIRECTION('',(-1.,0.,0.));
#1150=DIRECTION('',(0.,0.,1.));
#1151=DIRECTION('',(-1.,0.,8.1835253831517E-17));
#1152=DIRECTION('',(8.1835253831517E-17,0.,1.));
#1153=DIRECTION('',(-1.,0.,-8.1835253831517E-17));
#1154=DIRECTION('',(-8.1835253831517E-17,0.,1.));
#1155=DIRECTION('',(0.,1.,0.));
#1156=DIRECTION('',(0.,0.,1.));
#1157=DIRECTION('',(0.,1.,0.));
#1158=DIRECTION('',(0.,0.,1.));
#1159=DIRECTION('',(1.,0.,-8.1835253831517E-17));
#1160=DIRECTION('',(-8.1835253831517E-17,0.,-1.));
#1161=DIRECTION('',(-1.,0.,0.));
#1162=DIRECTION('',(0.,0.,1.));
#1163=DIRECTION('',(1.,0.,2.45505761494551E-16));
#1164=DIRECTION('',(2.45505761494551E-16,0.,-1.));
#1165=DIRECTION('',(1.,2.71050543121378E-16,2.71050543121376E-16));
#1166=DIRECTION('',(-2.71050543121378E-16,1.,0.));
#1167=DIRECTION('',(0.,1.,0.));
#1168=DIRECTION('',(0.,0.,1.));
#1169=DIRECTION('',(2.71050543121376E-16,0.,-1.));
#1170=DIRECTION('',(-1.,0.,-2.71050543121376E-16));
#1171=DIRECTION('',(0.,1.,0.));
#1172=DIRECTION('',(0.,0.,1.));
#1173=DIRECTION('',(0.,0.,-1.));
#1174=DIRECTION('',(-1.,0.,0.));
#1175=DIRECTION('',(-2.45505761494551E-16,0.,1.));
#1176=DIRECTION('',(1.,0.,2.45505761494551E-16));
#1177=DIRECTION('',(8.1835253831517E-17,0.,-1.));
#1178=DIRECTION('',(-1.,0.,-8.1835253831517E-17));
#1179=DIRECTION('',(0.,1.,0.));
#1180=DIRECTION('',(0.,0.,1.));
#1181=CARTESIAN_POINT('',(0.,0.,0.));
#1182=CARTESIAN_POINT('',(-0.9,64.,0.9));
#1183=CARTESIAN_POINT('',(-1.4,64.,0.9));
#1184=CARTESIAN_POINT('',(-1.4,0.799999999999995,0.9));
#1185=CARTESIAN_POINT('',(-1.4,63.2,0.9));
#1186=CARTESIAN_POINT('',(-2.15638586528478,63.2,0.9));
#1187=CARTESIAN_POINT('',(-2.15638586528478,63.2,0.9));
#1188=CARTESIAN_POINT('',(-2.15638586528478,64.,0.9));
#1189=CARTESIAN_POINT('',(-2.15638586528478,0.799999999999995,0.9));
#1190=CARTESIAN_POINT('',(-0.9,0.799999999999995,0.9));
#1191=CARTESIAN_POINT('',(-0.9,64.,0.9));
#1192=CARTESIAN_POINT('',(-0.9,64.,2.15638586528478));
#1193=CARTESIAN_POINT('',(-0.9,0.799999999999995,2.15638586528478));
#1194=CARTESIAN_POINT('',(-0.9,63.2,2.15638586528478));
#1195=CARTESIAN_POINT('',(-0.9,63.2,1.4));
#1196=CARTESIAN_POINT('',(-0.9,63.2,1.4));
#1197=CARTESIAN_POINT('',(-0.9,0.,1.4));
#1198=CARTESIAN_POINT('',(-0.9,0.799999999999995,1.4));
#1199=CARTESIAN_POINT('',(-0.9,0.799999999999995,0.9));
#1200=CARTESIAN_POINT('',(0.,64.,0.));
#1201=CARTESIAN_POINT('',(0.834782608695652,64.,2.25014177247108));
#1202=CARTESIAN_POINT('',(0.834782608695652,0.799999999999995,2.25014177247108));
#1203=CARTESIAN_POINT('',(0.834782608695652,63.2,2.25014177247108));
#1204=CARTESIAN_POINT('',(0.,63.2,0.));
#1205=CARTESIAN_POINT('',(-0.834782608695652,63.2,2.25014177247108));
#1206=CARTESIAN_POINT('',(-0.834782608695652,64.,2.25014177247108));
#1207=CARTESIAN_POINT('',(-0.834782608695652,0.799999999999995,2.25014177247108));
#1208=CARTESIAN_POINT('',(0.,0.799999999999995,0.));
#1209=CARTESIAN_POINT('',(0.9,64.,0.9));
#1210=CARTESIAN_POINT('',(0.9,64.,1.4));
#1211=CARTESIAN_POINT('',(0.9,0.799999999999995,1.4));
#1212=CARTESIAN_POINT('',(0.9,63.2,1.4));
#1213=CARTESIAN_POINT('',(0.9,63.2,2.15638586528478));
#1214=CARTESIAN_POINT('',(0.9,63.2,2.15638586528478));
#1215=CARTESIAN_POINT('',(0.9,64.,2.15638586528478));
#1216=CARTESIAN_POINT('',(0.9,0.799999999999995,2.15638586528478));
#1217=CARTESIAN_POINT('',(0.9,0.799999999999995,0.9));
#1218=CARTESIAN_POINT('',(0.9,64.,0.9));
#1219=CARTESIAN_POINT('',(2.15638586528478,64.,0.9));
#1220=CARTESIAN_POINT('',(2.15638586528478,0.799999999999995,0.9));
#1221=CARTESIAN_POINT('',(2.15638586528478,63.2,0.9));
#1222=CARTESIAN_POINT('',(1.4,63.2,0.9));
#1223=CARTESIAN_POINT('',(1.4,63.2,0.9));
#1224=CARTESIAN_POINT('',(1.4,0.,0.9));
#1225=CARTESIAN_POINT('',(1.4,0.799999999999995,0.9));
#1226=CARTESIAN_POINT('',(0.9,0.799999999999995,0.9));
#1227=CARTESIAN_POINT('',(0.,64.,0.));
#1228=CARTESIAN_POINT('',(2.25014177247108,64.,-0.834782608695652));
#1229=CARTESIAN_POINT('',(2.25014177247108,0.799999999999995,-0.834782608695652));
#1230=CARTESIAN_POINT('',(2.25014177247108,63.2,-0.834782608695652));
#1231=CARTESIAN_POINT('',(0.,63.2,0.));
#1232=CARTESIAN_POINT('',(2.25014177247108,63.2,0.834782608695652));
#1233=CARTESIAN_POINT('',(2.25014177247108,64.,0.834782608695652));
#1234=CARTESIAN_POINT('',(2.25014177247108,0.799999999999995,0.834782608695652));
#1235=CARTESIAN_POINT('',(0.,0.799999999999995,0.));
#1236=CARTESIAN_POINT('',(0.9,64.,-0.9));
#1237=CARTESIAN_POINT('',(1.4,64.,-0.9));
#1238=CARTESIAN_POINT('',(1.4,0.799999999999995,-0.9));
#1239=CARTESIAN_POINT('',(1.4,63.2,-0.9));
#1240=CARTESIAN_POINT('',(2.15638586528478,63.2,-0.9));
#1241=CARTESIAN_POINT('',(2.15638586528478,63.2,-0.9));
#1242=CARTESIAN_POINT('',(2.15638586528478,64.,-0.9));
#1243=CARTESIAN_POINT('',(2.15638586528478,0.799999999999995,-0.9));
#1244=CARTESIAN_POINT('',(0.9,0.799999999999995,-0.9));
#1245=CARTESIAN_POINT('',(0.9,64.,-0.9));
#1246=CARTESIAN_POINT('',(0.9,64.,-2.15638586528478));
#1247=CARTESIAN_POINT('',(0.9,0.799999999999995,-2.15638586528478));
#1248=CARTESIAN_POINT('',(0.9,63.2,-2.15638586528478));
#1249=CARTESIAN_POINT('',(0.9,63.2,-1.4));
#1250=CARTESIAN_POINT('',(0.9,63.2,-1.4));
#1251=CARTESIAN_POINT('',(0.9,0.,-1.4));
#1252=CARTESIAN_POINT('',(0.9,0.799999999999995,-1.4));
#1253=CARTESIAN_POINT('',(0.9,0.799999999999995,-0.9));
#1254=CARTESIAN_POINT('',(0.,64.,0.));
#1255=CARTESIAN_POINT('',(-0.834782608695652,64.,-2.25014177247108));
#1256=CARTESIAN_POINT('',(-0.834782608695652,0.799999999999995,-2.25014177247108));
#1257=CARTESIAN_POINT('',(-0.834782608695652,63.2,-2.25014177247108));
#1258=CARTESIAN_POINT('',(0.,63.2,0.));
#1259=CARTESIAN_POINT('',(0.834782608695653,63.2,-2.25014177247108));
#1260=CARTESIAN_POINT('',(0.834782608695653,64.,-2.25014177247108));
#1261=CARTESIAN_POINT('',(0.834782608695653,0.799999999999995,-2.25014177247108));
#1262=CARTESIAN_POINT('',(0.,0.799999999999995,0.));
#1263=CARTESIAN_POINT('',(-0.9,64.,-0.9));
#1264=CARTESIAN_POINT('',(-0.9,64.,-1.4));
#1265=CARTESIAN_POINT('',(-0.9,0.799999999999995,-1.4));
#1266=CARTESIAN_POINT('',(-0.9,63.2,-1.4));
#1267=CARTESIAN_POINT('',(-0.9,63.2,-2.15638586528478));
#1268=CARTESIAN_POINT('',(-0.9,63.2,-2.15638586528478));
#1269=CARTESIAN_POINT('',(-0.9,64.,-2.15638586528478));
#1270=CARTESIAN_POINT('',(-0.9,0.799999999999995,-2.15638586528478));
#1271=CARTESIAN_POINT('',(-0.9,0.799999999999995,-0.9));
#1272=CARTESIAN_POINT('',(-0.9,64.,-0.9));
#1273=CARTESIAN_POINT('',(-2.15638586528478,64.,-0.9));
#1274=CARTESIAN_POINT('',(-2.15638586528478,0.799999999999995,-0.9));
#1275=CARTESIAN_POINT('',(-2.15638586528478,63.2,-0.9));
#1276=CARTESIAN_POINT('',(-1.4,63.2,-0.9));
#1277=CARTESIAN_POINT('',(-1.4,63.2,-0.9));
#1278=CARTESIAN_POINT('',(-1.4,0.,-0.9));
#1279=CARTESIAN_POINT('',(-1.4,0.799999999999995,-0.9));
#1280=CARTESIAN_POINT('',(-0.9,0.799999999999995,-0.9));
#1281=CARTESIAN_POINT('',(0.,64.,0.));
#1282=CARTESIAN_POINT('',(-2.25014177247108,64.,0.834782608695652));
#1283=CARTESIAN_POINT('',(-2.25014177247108,0.799999999999995,0.834782608695652));
#1284=CARTESIAN_POINT('',(-2.25014177247108,63.2,0.834782608695652));
#1285=CARTESIAN_POINT('',(0.,63.2,0.));
#1286=CARTESIAN_POINT('',(-2.25014177247108,63.2,-0.834782608695653));
#1287=CARTESIAN_POINT('',(-2.25014177247108,64.,-0.834782608695653));
#1288=CARTESIAN_POINT('',(-2.25014177247108,0.799999999999995,-0.834782608695653));
#1289=CARTESIAN_POINT('',(0.,0.799999999999995,0.));
#1290=CARTESIAN_POINT('',(0.,64.,0.));
#1291=CARTESIAN_POINT('',(0.1,64.,-2.15638586528478));
#1292=CARTESIAN_POINT('',(0.1,64.,-1.4));
#1293=CARTESIAN_POINT('',(0.1,64.,-1.59687194226713));
#1294=CARTESIAN_POINT('',(0.,64.,0.));
#1295=CARTESIAN_POINT('',(-0.1,64.,-1.59687194226713));
#1296=CARTESIAN_POINT('',(-0.1,64.,-1.4));
#1297=CARTESIAN_POINT('',(-0.1,64.,-1.4));
#1298=CARTESIAN_POINT('',(-1.4,64.,-1.4));
#1299=CARTESIAN_POINT('',(-1.4,64.,-0.1));
#1300=CARTESIAN_POINT('',(-2.15638586528478,64.,-0.1));
#1301=CARTESIAN_POINT('',(-1.59687194226713,64.,-0.1));
#1302=CARTESIAN_POINT('',(0.,64.,0.));
#1303=CARTESIAN_POINT('',(-1.59687194226713,64.,0.1));
#1304=CARTESIAN_POINT('',(-1.4,64.,0.1));
#1305=CARTESIAN_POINT('',(-1.4,64.,0.1));
#1306=CARTESIAN_POINT('',(-1.4,64.,1.4));
#1307=CARTESIAN_POINT('',(-0.1,64.,1.4));
#1308=CARTESIAN_POINT('',(-0.1,64.,2.15638586528478));
#1309=CARTESIAN_POINT('',(-0.1,64.,1.59687194226713));
#1310=CARTESIAN_POINT('',(0.,64.,0.));
#1311=CARTESIAN_POINT('',(0.1,64.,1.59687194226713));
#1312=CARTESIAN_POINT('',(0.1,64.,1.4));
#1313=CARTESIAN_POINT('',(0.1,64.,1.4));
#1314=CARTESIAN_POINT('',(1.4,64.,1.4));
#1315=CARTESIAN_POINT('',(1.4,64.,0.1));
#1316=CARTESIAN_POINT('',(2.15638586528478,64.,0.0999999999999999));
#1317=CARTESIAN_POINT('',(1.59687194226713,64.,0.1));
#1318=CARTESIAN_POINT('',(0.,64.,0.));
#1319=CARTESIAN_POINT('',(1.59687194226713,64.,-0.1));
#1320=CARTESIAN_POINT('',(1.4,64.,-0.1));
#1321=CARTESIAN_POINT('',(1.4,64.,-0.1));
#1322=CARTESIAN_POINT('',(1.4,64.,-1.4));
#1323=CARTESIAN_POINT('',(1.4,64.,1.4));
#1324=CARTESIAN_POINT('',(1.4,63.2,1.4));
#1325=CARTESIAN_POINT('',(1.4,0.799999999999995,1.4));
#1326=CARTESIAN_POINT('',(-1.4,64.,1.4));
#1327=CARTESIAN_POINT('',(-1.4,63.2,1.4));
#1328=CARTESIAN_POINT('',(-1.4,0.799999999999995,1.4));
#1329=CARTESIAN_POINT('',(-1.4,64.,-1.4));
#1330=CARTESIAN_POINT('',(-1.4,63.2,-1.4));
#1331=CARTESIAN_POINT('',(-1.4,0.799999999999995,-1.4));
#1332=CARTESIAN_POINT('',(1.4,64.,-1.4));
#1333=CARTESIAN_POINT('',(1.4,63.2,-1.4));
#1334=CARTESIAN_POINT('',(1.4,0.799999999999995,-1.4));
#1335=CARTESIAN_POINT('',(0.8,64.,2.15638586528478));
#1336=CARTESIAN_POINT('',(0.8,63.2,2.15638586528478));
#1337=CARTESIAN_POINT('',(0.8,0.799999999999995,2.15638586528478));
#1338=CARTESIAN_POINT('',(-2.15638586528478,64.,0.8));
#1339=CARTESIAN_POINT('',(-2.15638586528478,63.2,0.8));
#1340=CARTESIAN_POINT('',(-2.15638586528478,0.799999999999995,0.8));
#1341=CARTESIAN_POINT('',(-2.15638586528478,64.,-0.8));
#1342=CARTESIAN_POINT('',(-2.15638586528478,63.2,-0.8));
#1343=CARTESIAN_POINT('',(-2.15638586528478,0.799999999999995,-0.8));
#1344=CARTESIAN_POINT('',(-0.8,64.,-2.15638586528478));
#1345=CARTESIAN_POINT('',(-0.8,63.2,-2.15638586528478));
#1346=CARTESIAN_POINT('',(-0.8,0.799999999999995,-2.15638586528478));
#1347=CARTESIAN_POINT('',(0.8,64.,-2.15638586528478));
#1348=CARTESIAN_POINT('',(0.8,63.2,-2.15638586528478));
#1349=CARTESIAN_POINT('',(0.8,0.799999999999995,-2.15638586528478));
#1350=CARTESIAN_POINT('',(2.15638586528478,64.,-0.8));
#1351=CARTESIAN_POINT('',(2.15638586528478,63.2,-0.8));
#1352=CARTESIAN_POINT('',(2.15638586528478,0.799999999999995,-0.8));
#1353=CARTESIAN_POINT('',(2.15638586528478,64.,0.8));
#1354=CARTESIAN_POINT('',(2.15638586528478,63.2,0.8));
#1355=CARTESIAN_POINT('',(2.15638586528478,0.799999999999995,0.8));
#1356=CARTESIAN_POINT('',(-0.8,64.,2.15638586528478));
#1357=CARTESIAN_POINT('',(-0.8,63.2,2.15638586528478));
#1358=CARTESIAN_POINT('',(-0.8,0.799999999999995,2.15638586528478));
#1359=CARTESIAN_POINT('',(0.,0.8,0.));
#1360=CARTESIAN_POINT('',(0.,0.8,0.));
#1361=CARTESIAN_POINT('',(0.,0.8,3.1));
#1362=CARTESIAN_POINT('',(0.,0.,0.));
#1363=CARTESIAN_POINT('',(0.,0.,3.1));
#1364=CARTESIAN_POINT('',(0.,0.8,0.));
#1365=CARTESIAN_POINT('',(0.,0.,0.));
#1366=CARTESIAN_POINT('',(0.,0.,0.));
#1367=CARTESIAN_POINT('',(2.4,0.,0.));
#1368=CARTESIAN_POINT('',(0.,0.2,0.));
#1369=CARTESIAN_POINT('',(0.,0.2,0.));
#1370=CARTESIAN_POINT('',(2.4,0.2,0.));
#1371=CARTESIAN_POINT('',(0.,0.2,0.));
#1372=CARTESIAN_POINT('',(0.,63.2,0.));
#1373=CARTESIAN_POINT('',(-0.834782608695652,63.2,2.25014177247108));
#1374=CARTESIAN_POINT('',(-0.834782608695652,63.437517555679,2.25014177247108));
#1375=CARTESIAN_POINT('',(-0.617561616957369,63.8786708637515,2.08987702352205));
#1376=CARTESIAN_POINT('',(-0.259729338398511,64.,1.76793143757132));
#1377=CARTESIAN_POINT('',(-0.1,64.,1.59687194226713));
#1378=CARTESIAN_POINT('',(0.834782608695652,63.2,2.25014177247108));
#1379=CARTESIAN_POINT('',(0.834782608695652,63.437517555679,2.25014177247108));
#1380=CARTESIAN_POINT('',(0.617561616957369,63.8786708637515,2.08987702352205));
#1381=CARTESIAN_POINT('',(0.259729338398511,64.,1.76793143757132));
#1382=CARTESIAN_POINT('',(0.1,64.,1.59687194226713));
#1383=CARTESIAN_POINT('',(0.9,63.2,2.15638586528478));
#1384=CARTESIAN_POINT('',(0.9,63.2,2.22594669964881));
#1385=CARTESIAN_POINT('',(0.834782608695652,63.2,2.25014177247108));
#1386=CARTESIAN_POINT('',(0.9,63.4435382976599,2.15638580016625));
#1387=CARTESIAN_POINT('',(0.899999880166315,63.4582682819819,2.2259466184928));
#1388=CARTESIAN_POINT('',(0.834782544874298,63.4435382976599,2.25014179614823));
#1389=CARTESIAN_POINT('',(0.658717302505121,63.8888431307616,2.01294005971113));
#1390=CARTESIAN_POINT('',(0.661756748365425,63.8816308720775,2.06965787533945));
#1391=CARTESIAN_POINT('',(0.606245678369707,63.8888431307616,2.0810402732609));
#1392=CARTESIAN_POINT('',(0.274854006536713,64.,1.74042493776816));
#1393=CARTESIAN_POINT('',(0.264608019486979,64.0000000682676,1.75132044393097));
#1394=CARTESIAN_POINT('',(0.254361856264321,64.,1.76221578480193));
#1395=CARTESIAN_POINT('',(0.1,64.,1.59687194226713));
#1396=CARTESIAN_POINT('',(0.1,64.,1.59687194226713));
#1397=CARTESIAN_POINT('',(0.1,64.,1.59687194226713));
#1398=CARTESIAN_POINT('',(0.9,63.2,2.15638586528478));
#1399=CARTESIAN_POINT('',(0.9,63.4365541187131,2.15638586528478));
#1400=CARTESIAN_POINT('',(0.672092554656674,63.8782727316831,2.02136386640322));
#1401=CARTESIAN_POINT('',(0.280214662446209,64.,1.74482733846388));
#1402=CARTESIAN_POINT('',(0.1,64.,1.59687194226713));
#1403=CARTESIAN_POINT('',(-0.834782608695652,63.2,2.25014177247108));
#1404=CARTESIAN_POINT('',(-0.9,63.2,2.22594669964881));
#1405=CARTESIAN_POINT('',(-0.9,63.2,2.15638586528478));
#1406=CARTESIAN_POINT('',(-0.834782544874298,63.4435382976599,2.25014179614823));
#1407=CARTESIAN_POINT('',(-0.899999880166315,63.4582682819819,2.2259466184928));
#1408=CARTESIAN_POINT('',(-0.9,63.4435382976599,2.15638580016625));
#1409=CARTESIAN_POINT('',(-0.606245678417746,63.8888431307616,2.08104027332249));
#1410=CARTESIAN_POINT('',(-0.661756748426228,63.8816309065766,2.06965787539654));
#1411=CARTESIAN_POINT('',(-0.658717302569671,63.8888431307616,2.01294005975516));
#1412=CARTESIAN_POINT('',(-0.254361856168241,64.,1.76221578467876));
#1413=CARTESIAN_POINT('',(-0.264608019374346,64.0000000042976,1.75132044382519));
#1414=CARTESIAN_POINT('',(-0.274854006407613,64.,1.7404249376801));
#1415=CARTESIAN_POINT('',(-0.1,64.,1.59687194226713));
#1416=CARTESIAN_POINT('',(-0.1,64.,1.59687194226713));
#1417=CARTESIAN_POINT('',(-0.1,64.,1.59687194226713));
#1418=CARTESIAN_POINT('',(-0.9,63.2,2.15638586528478));
#1419=CARTESIAN_POINT('',(-0.9,63.4365541187131,2.15638586528478));
#1420=CARTESIAN_POINT('',(-0.672092554656674,63.8782727316831,2.02136386640322));
#1421=CARTESIAN_POINT('',(-0.280214662446209,64.,1.74482733846388));
#1422=CARTESIAN_POINT('',(-0.1,64.,1.59687194226713));
#1423=CARTESIAN_POINT('',(0.1,63.2,-8.1835253831517E-18));
#1424=CARTESIAN_POINT('',(0.1,63.2,1.4));
#1425=CARTESIAN_POINT('',(-0.1,63.2,-8.1835253831517E-18));
#1426=CARTESIAN_POINT('',(-0.1,63.2,1.4));
#1427=CARTESIAN_POINT('',(1.4,63.2,1.4));
#1428=CARTESIAN_POINT('',(1.4,63.2,0.1));
#1429=CARTESIAN_POINT('',(-1.4,63.2,1.4));
#1430=CARTESIAN_POINT('',(-1.4,63.2,0.1));
#1431=CARTESIAN_POINT('',(8.18352538315171E-18,63.2,0.1));
#1432=CARTESIAN_POINT('',(2.15638586528478,63.2,0.9));
#1433=CARTESIAN_POINT('',(2.15638586528478,63.4365541187131,0.9));
#1434=CARTESIAN_POINT('',(2.02136386640315,63.8782727316831,0.672092554656729));
#1435=CARTESIAN_POINT('',(1.74482733846401,64.,0.280214662446099));
#1436=CARTESIAN_POINT('',(1.59687194226713,64.,0.1));
#1437=CARTESIAN_POINT('',(-8.18352538315171E-18,63.2,0.1));
#1438=CARTESIAN_POINT('',(-2.15638586528478,63.2,0.9));
#1439=CARTESIAN_POINT('',(-2.15638586528478,63.4365541187131,0.9));
#1440=CARTESIAN_POINT('',(-2.02136386640315,63.8782727316831,0.672092554656729));
#1441=CARTESIAN_POINT('',(-1.74482733846401,64.,0.280214662446099));
#1442=CARTESIAN_POINT('',(-1.59687194226713,64.,0.1));
#1443=CARTESIAN_POINT('',(2.25014177247108,63.2,0.834782608695652));
#1444=CARTESIAN_POINT('',(2.22594669964881,63.2,0.9));
#1445=CARTESIAN_POINT('',(2.15638586528478,63.2,0.9));
#1446=CARTESIAN_POINT('',(2.25014179614827,63.4435382976599,0.834782544874197));
#1447=CARTESIAN_POINT('',(2.22594661849299,63.4582682819817,0.899999880166341));
#1448=CARTESIAN_POINT('',(2.15638580016644,63.4435382976599,0.9));
#1449=CARTESIAN_POINT('',(2.08104027332247,63.8888431307616,0.606245678417801));
#1450=CARTESIAN_POINT('',(2.06965787539645,63.8816309065767,0.661756748426203));
#1451=CARTESIAN_POINT('',(2.01294005975507,63.8888431307616,0.658717302569677));
#1452=CARTESIAN_POINT('',(1.76221578467876,64.,0.254361856168233));
#1453=CARTESIAN_POINT('',(1.75132044382519,64.0000000042976,0.264608019374339));
#1454=CARTESIAN_POINT('',(1.7404249376801,64.,0.274854006407601));
#1455=CARTESIAN_POINT('',(1.59687194226713,64.,0.1));
#1456=CARTESIAN_POINT('',(1.59687194226713,64.,0.1));
#1457=CARTESIAN_POINT('',(1.59687194226713,64.,0.1));
#1458=CARTESIAN_POINT('',(2.25014177247108,63.2,0.834782608695652));
#1459=CARTESIAN_POINT('',(2.25014177247108,63.437517555679,0.834782608695652));
#1460=CARTESIAN_POINT('',(2.08987702352204,63.8786708637515,0.617561616957383));
#1461=CARTESIAN_POINT('',(1.76793143757134,64.,0.259729338398482));
#1462=CARTESIAN_POINT('',(1.59687194226713,64.,0.1));
#1463=CARTESIAN_POINT('',(-2.15638586528478,63.2,0.9));
#1464=CARTESIAN_POINT('',(-2.22594669964881,63.2,0.9));
#1465=CARTESIAN_POINT('',(-2.25014177247108,63.2,0.834782608695652));
#1466=CARTESIAN_POINT('',(-2.15638580016644,63.4435382976599,0.9));
#1467=CARTESIAN_POINT('',(-2.22594661849299,63.4582682819817,0.899999880166327));
#1468=CARTESIAN_POINT('',(-2.25014179614827,63.4435382976599,0.834782544874197));
#1469=CARTESIAN_POINT('',(-2.01294005971105,63.8888431307616,0.658717302505127));
#1470=CARTESIAN_POINT('',(-2.06965787533938,63.8816308720776,0.66175674836541));
#1471=CARTESIAN_POINT('',(-2.08104027326089,63.8888431307616,0.606245678369762));
#1472=CARTESIAN_POINT('',(-1.74042493776813,64.,0.2748540065367));
#1473=CARTESIAN_POINT('',(-1.75132044393093,64.0000000682676,0.264608019486965));
#1474=CARTESIAN_POINT('',(-1.76221578480191,64.,0.254361856264311));
#1475=CARTESIAN_POINT('',(-1.59687194226713,64.,0.1));
#1476=CARTESIAN_POINT('',(-1.59687194226713,64.,0.1));
#1477=CARTESIAN_POINT('',(-1.59687194226713,64.,0.1));
#1478=CARTESIAN_POINT('',(-2.25014177247108,63.2,0.834782608695652));
#1479=CARTESIAN_POINT('',(-2.25014177247108,63.437517555679,0.834782608695652));
#1480=CARTESIAN_POINT('',(-2.08987702352204,63.8786708637515,0.617561616957383));
#1481=CARTESIAN_POINT('',(-1.76793143757134,64.,0.259729338398482));
#1482=CARTESIAN_POINT('',(-1.59687194226713,64.,0.1));
#1483=CARTESIAN_POINT('',(0.,63.2,0.));
#1484=CARTESIAN_POINT('',(2.25014177247108,63.2,-0.834782608695652));
#1485=CARTESIAN_POINT('',(2.25014177247108,63.437517555679,-0.834782608695652));
#1486=CARTESIAN_POINT('',(2.08987702352205,63.8786708637515,-0.617561616957369));
#1487=CARTESIAN_POINT('',(1.76793143757132,64.,-0.259729338398511));
#1488=CARTESIAN_POINT('',(1.59687194226713,64.,-0.1));
#1489=CARTESIAN_POINT('',(0.,63.2,0.));
#1490=CARTESIAN_POINT('',(-2.25014177247108,63.2,-0.834782608695652));
#1491=CARTESIAN_POINT('',(-2.25014177247108,63.437517555679,-0.834782608695652));
#1492=CARTESIAN_POINT('',(-2.08987702352205,63.8786708637515,-0.617561616957369));
#1493=CARTESIAN_POINT('',(-1.76793143757131,64.,-0.259729338398512));
#1494=CARTESIAN_POINT('',(-1.59687194226713,64.,-0.1));
#1495=CARTESIAN_POINT('',(2.15638586528478,63.2,-0.9));
#1496=CARTESIAN_POINT('',(2.22594669964881,63.2,-0.9));
#1497=CARTESIAN_POINT('',(2.25014177247108,63.2,-0.834782608695652));
#1498=CARTESIAN_POINT('',(2.15638580016625,63.4435382976599,-0.9));
#1499=CARTESIAN_POINT('',(2.2259466184928,63.4582682819819,-0.899999880166315));
#1500=CARTESIAN_POINT('',(2.25014179614823,63.4435382976599,-0.834782544874298));
#1501=CARTESIAN_POINT('',(2.01294005971113,63.8888431307616,-0.658717302505121));
#1502=CARTESIAN_POINT('',(2.06965787533945,63.8816308720775,-0.661756748365425));
#1503=CARTESIAN_POINT('',(2.0810402732609,63.8888431307616,-0.606245678369707));
#1504=CARTESIAN_POINT('',(1.74042493776816,64.,-0.274854006536713));
#1505=CARTESIAN_POINT('',(1.75132044393097,64.0000000682676,-0.264608019486979));
#1506=CARTESIAN_POINT('',(1.76221578480193,64.,-0.254361856264321));
#1507=CARTESIAN_POINT('',(1.59687194226713,64.,-0.1));
#1508=CARTESIAN_POINT('',(1.59687194226713,64.,-0.1));
#1509=CARTESIAN_POINT('',(1.59687194226713,64.,-0.1));
#1510=CARTESIAN_POINT('',(2.15638586528478,63.2,-0.9));
#1511=CARTESIAN_POINT('',(2.15638586528478,63.4365541187131,-0.9));
#1512=CARTESIAN_POINT('',(2.02136386640322,63.8782727316831,-0.672092554656674));
#1513=CARTESIAN_POINT('',(1.74482733846388,64.,-0.280214662446209));
#1514=CARTESIAN_POINT('',(1.59687194226713,64.,-0.1));
#1515=CARTESIAN_POINT('',(-2.25014177247108,63.2,-0.834782608695653));
#1516=CARTESIAN_POINT('',(-2.22594669964881,63.2,-0.9));
#1517=CARTESIAN_POINT('',(-2.15638586528478,63.2,-0.9));
#1518=CARTESIAN_POINT('',(-2.25014179614824,63.4435382976599,-0.834782544874273));
#1519=CARTESIAN_POINT('',(-2.22594661849283,63.4582682819819,-0.899999880166331));
#1520=CARTESIAN_POINT('',(-2.1563858001663,63.4435382976599,-0.9));
#1521=CARTESIAN_POINT('',(-2.08104027332248,63.8888431307616,-0.60624567841776));
#1522=CARTESIAN_POINT('',(-2.06965787539653,63.8816309065766,-0.661756748426221));
#1523=CARTESIAN_POINT('',(-2.01294005975514,63.8888431307616,-0.658717302569672));
#1524=CARTESIAN_POINT('',(-1.76221578467876,64.,-0.254361856168241));
#1525=CARTESIAN_POINT('',(-1.75132044382519,64.0000000042976,-0.264608019374346));
#1526=CARTESIAN_POINT('',(-1.7404249376801,64.,-0.274854006407613));
#1527=CARTESIAN_POINT('',(-1.59687194226713,64.,-0.1));
#1528=CARTESIAN_POINT('',(-1.59687194226713,64.,-0.1));
#1529=CARTESIAN_POINT('',(-1.59687194226713,64.,-0.1));
#1530=CARTESIAN_POINT('',(-2.15638586528478,63.2,-0.9));
#1531=CARTESIAN_POINT('',(-2.15638586528478,63.4365541187131,-0.9));
#1532=CARTESIAN_POINT('',(-2.02136386640319,63.8782727316831,-0.672092554656694));
#1533=CARTESIAN_POINT('',(-1.74482733846393,64.,-0.280214662446168));
#1534=CARTESIAN_POINT('',(-1.59687194226713,64.,-0.1));
#1535=CARTESIAN_POINT('',(-8.1835253831517E-18,63.2,-0.1));
#1536=CARTESIAN_POINT('',(1.4,63.2,-0.1));
#1537=CARTESIAN_POINT('',(2.45505761494551E-17,63.2,-0.0999999999999998));
#1538=CARTESIAN_POINT('',(-1.4,63.2,-0.1));
#1539=CARTESIAN_POINT('',(1.4,63.2,-1.4));
#1540=CARTESIAN_POINT('',(0.1,63.2,-1.4));
#1541=CARTESIAN_POINT('',(-1.4,63.2,-1.4));
#1542=CARTESIAN_POINT('',(-0.1,63.2,-1.4));
#1543=CARTESIAN_POINT('',(0.0999999999999998,63.2,2.45505761494551E-17));
#1544=CARTESIAN_POINT('',(0.9,63.2,-2.15638586528478));
#1545=CARTESIAN_POINT('',(0.9,63.4365541187131,-2.15638586528478));
#1546=CARTESIAN_POINT('',(0.672092554656695,63.8782727316831,-2.02136386640319));
#1547=CARTESIAN_POINT('',(0.280214662446168,64.,-1.74482733846393));
#1548=CARTESIAN_POINT('',(0.1,64.,-1.59687194226713));
#1549=CARTESIAN_POINT('',(-0.1,63.2,-8.18352538315171E-18));
#1550=CARTESIAN_POINT('',(-0.9,63.2,-2.15638586528478));
#1551=CARTESIAN_POINT('',(-0.9,63.4365541187131,-2.15638586528478));
#1552=CARTESIAN_POINT('',(-0.672092554656729,63.8782727316831,-2.02136386640315));
#1553=CARTESIAN_POINT('',(-0.280214662446099,64.,-1.74482733846401));
#1554=CARTESIAN_POINT('',(-0.1,64.,-1.59687194226713));
#1555=CARTESIAN_POINT('',(0.834782608695653,63.2,-2.25014177247108));
#1556=CARTESIAN_POINT('',(0.9,63.2,-2.22594669964881));
#1557=CARTESIAN_POINT('',(0.9,63.2,-2.15638586528478));
#1558=CARTESIAN_POINT('',(0.834782544874273,63.4435382976599,-2.25014179614824));
#1559=CARTESIAN_POINT('',(0.899999880166331,63.4582682819819,-2.22594661849283));
#1560=CARTESIAN_POINT('',(0.9,63.4435382976599,-2.1563858001663));
#1561=CARTESIAN_POINT('',(0.60624567841776,63.8888431307616,-2.08104027332248));
#1562=CARTESIAN_POINT('',(0.661756748426221,63.8816309065766,-2.06965787539653));
#1563=CARTESIAN_POINT('',(0.658717302569672,63.8888431307616,-2.01294005975514));
#1564=CARTESIAN_POINT('',(0.254361856168241,64.,-1.76221578467876));
#1565=CARTESIAN_POINT('',(0.264608019374346,64.0000000042976,-1.75132044382519));
#1566=CARTESIAN_POINT('',(0.274854006407613,64.,-1.7404249376801));
#1567=CARTESIAN_POINT('',(0.1,64.,-1.59687194226713));
#1568=CARTESIAN_POINT('',(0.1,64.,-1.59687194226713));
#1569=CARTESIAN_POINT('',(0.1,64.,-1.59687194226713));
#1570=CARTESIAN_POINT('',(0.834782608695652,63.2,-2.25014177247108));
#1571=CARTESIAN_POINT('',(0.834782608695652,63.437517555679,-2.25014177247108));
#1572=CARTESIAN_POINT('',(0.617561616957598,63.8786708637515,-2.08987702352184));
#1573=CARTESIAN_POINT('',(0.259729338398053,64.,-1.76793143757174));
#1574=CARTESIAN_POINT('',(0.1,64.,-1.59687194226713));
#1575=CARTESIAN_POINT('',(-0.9,63.2,-2.15638586528478));
#1576=CARTESIAN_POINT('',(-0.9,63.2,-2.22594669964881));
#1577=CARTESIAN_POINT('',(-0.834782608695652,63.2,-2.25014177247108));
#1578=CARTESIAN_POINT('',(-0.9,63.4435382976599,-2.15638580016644));
#1579=CARTESIAN_POINT('',(-0.899999880166327,63.4582682819817,-2.22594661849299));
#1580=CARTESIAN_POINT('',(-0.834782544874197,63.4435382976599,-2.25014179614827));
#1581=CARTESIAN_POINT('',(-0.658717302505127,63.8888431307616,-2.01294005971105));
#1582=CARTESIAN_POINT('',(-0.66175674836541,63.8816308720776,-2.06965787533938));
#1583=CARTESIAN_POINT('',(-0.606245678369762,63.8888431307616,-2.08104027326089));
#1584=CARTESIAN_POINT('',(-0.2748540065367,64.,-1.74042493776813));
#1585=CARTESIAN_POINT('',(-0.264608019486965,64.0000000682676,-1.75132044393092));
#1586=CARTESIAN_POINT('',(-0.254361856264311,64.,-1.76221578480191));
#1587=CARTESIAN_POINT('',(-0.1,64.,-1.59687194226713));
#1588=CARTESIAN_POINT('',(-0.1,64.,-1.59687194226713));
#1589=CARTESIAN_POINT('',(-0.1,64.,-1.59687194226713));
#1590=CARTESIAN_POINT('',(-0.834782608695652,63.2,-2.25014177247108));
#1591=CARTESIAN_POINT('',(-0.834782608695652,63.437517555679,-2.25014177247108));
#1592=CARTESIAN_POINT('',(-0.617561616957383,63.8786708637515,-2.08987702352204));
#1593=CARTESIAN_POINT('',(-0.259729338398482,64.,-1.76793143757134));
#1594=CARTESIAN_POINT('',(-0.1,64.,-1.59687194226713));
#1595=CARTESIAN_POINT('',(0.,63.2,0.));
#1596=MECHANICAL_DESIGN_GEOMETRIC_PRESENTATION_REPRESENTATION('',(#825),
#1597);
#1597=(
GEOMETRIC_REPRESENTATION_CONTEXT(3)
GLOBAL_UNCERTAINTY_ASSIGNED_CONTEXT((#1598))
GLOBAL_UNIT_ASSIGNED_CONTEXT((#1601,#1600,#1599))
REPRESENTATION_CONTEXT('Gray_4499858_JCA','TOP_LEVEL_ASSEMBLY_PART')
);
#1598=UNCERTAINTY_MEASURE_WITH_UNIT(LENGTH_MEASURE(0.005),#1601,
'DISTANCE_ACCURACY_VALUE','Maximum Tolerance applied to model');
#1599=(
NAMED_UNIT(*)
SI_UNIT($,.STERADIAN.)
SOLID_ANGLE_UNIT()
);
#1600=(
NAMED_UNIT(*)
PLANE_ANGLE_UNIT()
SI_UNIT($,.RADIAN.)
);
#1601=(
LENGTH_UNIT()
NAMED_UNIT(*)
SI_UNIT(.MILLI.,.METRE.)
);
#1602=PRODUCT_DEFINITION_SHAPE('','',#1603);
#1603=PRODUCT_DEFINITION('','',#1605,#1604);
#1604=PRODUCT_DEFINITION_CONTEXT('',#1611,'design');
#1605=PRODUCT_DEFINITION_FORMATION_WITH_SPECIFIED_SOURCE('','',#1607,
 .NOT_KNOWN.);
#1606=PRODUCT_RELATED_PRODUCT_CATEGORY('','',(#1607));
#1607=PRODUCT('Gray_4499858_JCA','Gray_4499858_JCA','Gray_4499858_JCA',
(#1609));
#1608=PRODUCT_CATEGORY('','');
#1609=PRODUCT_CONTEXT('',#1611,'mechanical');
#1610=APPLICATION_PROTOCOL_DEFINITION('international standard',
'automotive_design',2010,#1611);
#1611=APPLICATION_CONTEXT(
'core data for automotive mechanical design processes');
ENDSEC;
END-ISO-10303-21;
