ISO-10303-21;
HEADER;
/* Generated by software containing ST-Developer
 * from STEP Tools, Inc. (www.steptools.com) 
 */
/* OPTION: strings as raw bytes, not using required /X/ escapes */

FILE_DESCRIPTION(
/* description */ ('Unknown'),
/* implementation_level */ '2;1');

FILE_NAME(
/* name */ 'Sand_6013938_MCM',
/* time_stamp */ '2025-07-22T00:05:12+02:00',
/* author */ ('Unknown'),
/* organization */ ('Unknown'),
/* preprocessor_version */ 'ST-DEVELOPER v19.4',
/* originating_system */ 'Solid Edge',
/* authorisation */ 'Unknown');

FILE_SCHEMA (('AUTOMOTIVE_DESIGN {1 0 10303 214 3 1 1}'));
ENDSEC;

DATA;
#10=PROPERTY_DEFINITION_REPRESENTATION(#14,#12);
#11=PROPERTY_DEFINITION_REPRESENTATION(#15,#13);
#12=REPRESENTATION('',(#16),#1289);
#13=REPRESENTATION('',(#17),#1289);
#14=PROPERTY_DEFINITION('pmi validation property','',#1294);
#15=PROPERTY_DEFINITION('pmi validation property','',#1294);
#16=VALUE_REPRESENTATION_ITEM('number of annotations',COUNT_MEASURE(0.));
#17=VALUE_REPRESENTATION_ITEM('number of views',COUNT_MEASURE(0.));
#18=SHAPE_REPRESENTATION_RELATIONSHIP('','',#733,#19);
#19=ADVANCED_BREP_SHAPE_REPRESENTATION('',(#731),#1289);
#20=TOROIDAL_SURFACE('',#756,2.50000000000001,0.1);
#21=TOROIDAL_SURFACE('',#758,2.50000000000001,0.1);
#22=TOROIDAL_SURFACE('',#759,2.50000000000001,0.1);
#23=TOROIDAL_SURFACE('',#760,2.50000000000001,0.1);
#24=TOROIDAL_SURFACE('',#769,2.50000000000001,0.1);
#25=TOROIDAL_SURFACE('',#770,2.50000000000001,0.1);
#26=TOROIDAL_SURFACE('',#789,3.,0.1);
#27=TOROIDAL_SURFACE('',#790,2.50000000000001,0.1);
#28=TOROIDAL_SURFACE('',#791,2.50000000000001,0.1);
#29=TOROIDAL_SURFACE('',#792,3.,0.1);
#30=B_SPLINE_CURVE_WITH_KNOTS('',3,(#1037,#1038,#1039,#1040,#1041),
 .UNSPECIFIED.,.F.,.F.,(4,1,4),(0.,0.000626227329652796,0.00125245465930559),
 .UNSPECIFIED.);
#31=B_SPLINE_CURVE_WITH_KNOTS('',3,(#1046,#1047,#1048,#1049,#1050),
 .UNSPECIFIED.,.F.,.F.,(4,1,4),(0.,0.000626227329652796,0.00125245465930559),
 .UNSPECIFIED.);
#32=B_SPLINE_CURVE_WITH_KNOTS('',3,(#1054,#1055,#1056,#1057,#1058),
 .UNSPECIFIED.,.F.,.F.,(4,1,4),(0.,0.000626703356852403,0.00125340671370481),
 .UNSPECIFIED.);
#33=B_SPLINE_CURVE_WITH_KNOTS('',3,(#1067,#1068,#1069,#1070,#1071),
 .UNSPECIFIED.,.F.,.F.,(4,1,4),(0.,0.000626703356852403,0.00125340671370481),
 .UNSPECIFIED.);
#34=B_SPLINE_CURVE_WITH_KNOTS('',3,(#1085,#1086,#1087,#1088,#1089),
 .UNSPECIFIED.,.F.,.F.,(4,1,4),(0.,0.000626703356852404,0.00125340671370481),
 .UNSPECIFIED.);
#35=B_SPLINE_CURVE_WITH_KNOTS('',3,(#1097,#1098,#1099,#1100,#1101),
 .UNSPECIFIED.,.F.,.F.,(4,1,4),(0.,0.000626703356852404,0.00125340671370481),
 .UNSPECIFIED.);
#36=B_SPLINE_CURVE_WITH_KNOTS('',3,(#1112,#1113,#1114,#1115),
 .UNSPECIFIED.,.F.,.F.,(4,4),(0.000522448715333069,0.000679685421782288),
 .UNSPECIFIED.);
#37=B_SPLINE_CURVE_WITH_KNOTS('',3,(#1116,#1117,#1118,#1119),
 .UNSPECIFIED.,.F.,.F.,(4,4),(0.000346292968775075,0.000503661054595666),
 .UNSPECIFIED.);
#38=B_SPLINE_CURVE_WITH_KNOTS('',3,(#1121,#1122,#1123,#1124),
 .UNSPECIFIED.,.F.,.F.,(4,4),(0.000579121936257581,0.000736295262848695),
 .UNSPECIFIED.);
#39=B_SPLINE_CURVE_WITH_KNOTS('',3,(#1125,#1126,#1127,#1128),
 .UNSPECIFIED.,.F.,.F.,(4,4),(0.00012586589080419,0.000283159885245652),
 .UNSPECIFIED.);
#40=B_SPLINE_CURVE_WITH_KNOTS('',3,(#1130,#1131,#1132,#1133),
 .UNSPECIFIED.,.F.,.F.,(4,4),(0.000560581406076575,0.000717765804878254),
 .UNSPECIFIED.);
#41=B_SPLINE_CURVE_WITH_KNOTS('',3,(#1134,#1135,#1136,#1137),
 .UNSPECIFIED.,.F.,.F.,(4,4),(7.55548538905654E-5,0.000232938035990383),
 .UNSPECIFIED.);
#42=B_SPLINE_CURVE_WITH_KNOTS('',3,(#1139,#1140,#1141,#1142),
 .UNSPECIFIED.,.F.,.F.,(4,4),(0.000540965436545175,0.000698199468614941),
 .UNSPECIFIED.);
#43=B_SPLINE_CURVE_WITH_KNOTS('',3,(#1143,#1144,#1145,#1146),
 .UNSPECIFIED.,.F.,.F.,(4,4),(0.000396599670767443,0.000553880832411775),
 .UNSPECIFIED.);
#44=B_SPLINE_CURVE_WITH_KNOTS('',3,(#1172,#1173,#1174,#1175),
 .UNSPECIFIED.,.F.,.F.,(4,4),(0.000522448715327664,0.00067968542178229),
 .UNSPECIFIED.);
#45=B_SPLINE_CURVE_WITH_KNOTS('',3,(#1176,#1177,#1178,#1179),
 .UNSPECIFIED.,.F.,.F.,(4,4),(0.000346292968775072,0.000503661054595269),
 .UNSPECIFIED.);
#46=B_SPLINE_CURVE_WITH_KNOTS('',3,(#1181,#1182,#1183,#1184),
 .UNSPECIFIED.,.F.,.F.,(4,4),(0.000579121936257579,0.000736295262848693),
 .UNSPECIFIED.);
#47=B_SPLINE_CURVE_WITH_KNOTS('',3,(#1185,#1186,#1187,#1188),
 .UNSPECIFIED.,.F.,.F.,(4,4),(0.000125865890804191,0.000283159885245388),
 .UNSPECIFIED.);
#48=B_SPLINE_CURVE_WITH_KNOTS('',3,(#1205,#1206,#1207,#1208,#1209),
 .UNSPECIFIED.,.F.,.F.,(4,1,4),(0.,0.000626227329652795,0.00125245465930559),
 .UNSPECIFIED.);
#49=B_SPLINE_CURVE_WITH_KNOTS('',3,(#1217,#1218,#1219,#1220,#1221),
 .UNSPECIFIED.,.F.,.F.,(4,1,4),(0.,0.000626227329652795,0.00125245465930559),
 .UNSPECIFIED.);
#50=B_SPLINE_CURVE_WITH_KNOTS('',3,(#1250,#1251,#1252,#1253),
 .UNSPECIFIED.,.F.,.F.,(4,4),(0.000579121936257578,0.000736295262848645),
 .UNSPECIFIED.);
#51=B_SPLINE_CURVE_WITH_KNOTS('',3,(#1254,#1255,#1256,#1257),
 .UNSPECIFIED.,.F.,.F.,(4,4),(0.000125865890804307,0.000283159885245653),
 .UNSPECIFIED.);
#52=B_SPLINE_CURVE_WITH_KNOTS('',3,(#1259,#1260,#1261,#1262),
 .UNSPECIFIED.,.F.,.F.,(4,4),(0.000522448715320761,0.00067968542179012),
 .UNSPECIFIED.);
#53=B_SPLINE_CURVE_WITH_KNOTS('',3,(#1263,#1264,#1265,#1266),
 .UNSPECIFIED.,.F.,.F.,(4,4),(0.000346292968775072,0.000503661054595664),
 .UNSPECIFIED.);
#54=PLANE('',#741);
#55=PLANE('',#744);
#56=PLANE('',#754);
#57=PLANE('',#761);
#58=PLANE('',#767);
#59=PLANE('',#771);
#60=PLANE('',#776);
#61=PLANE('',#781);
#62=PLANE('',#786);
#63=PLANE('',#788);
#64=PLANE('',#793);
#65=PLANE('',#794);
#66=PLANE('',#797);
#67=PLANE('',#798);
#68=PLANE('',#799);
#69=PLANE('',#800);
#70=PLANE('',#803);
#71=PLANE('',#804);
#72=CIRCLE('',#736,2.60000000000001);
#73=CIRCLE('',#737,2.60000000000001);
#74=CIRCLE('',#739,2.60000000000001);
#75=CIRCLE('',#740,2.60000000000001);
#76=CIRCLE('',#742,2.50000000000001);
#77=CIRCLE('',#743,2.4);
#78=CIRCLE('',#745,2.50000000000001);
#79=CIRCLE('',#746,2.4);
#80=CIRCLE('',#748,2.4);
#81=CIRCLE('',#750,2.00000000000001);
#82=CIRCLE('',#751,2.00000000000001);
#83=CIRCLE('',#752,2.00000000000001);
#84=CIRCLE('',#753,2.00000000000001);
#85=CIRCLE('',#755,2.50000000000001);
#86=CIRCLE('',#757,2.50000000000001);
#87=CIRCLE('',#762,2.50000000000001);
#88=CIRCLE('',#763,2.40000000000001);
#89=CIRCLE('',#765,2.60000000000001);
#90=CIRCLE('',#766,2.60000000000001);
#91=CIRCLE('',#768,2.50000000000001);
#92=CIRCLE('',#772,3.);
#93=CIRCLE('',#774,3.1);
#94=CIRCLE('',#775,3.1);
#95=CIRCLE('',#777,3.);
#96=CIRCLE('',#778,2.40000000000001);
#97=CIRCLE('',#780,2.40000000000001);
#98=CIRCLE('',#782,2.50000000000001);
#99=CIRCLE('',#784,2.60000000000001);
#100=CIRCLE('',#785,2.60000000000001);
#101=CIRCLE('',#787,2.50000000000001);
#102=ORIENTED_EDGE('',*,*,#306,.F.);
#103=ORIENTED_EDGE('',*,*,#307,.T.);
#104=ORIENTED_EDGE('',*,*,#308,.F.);
#105=ORIENTED_EDGE('',*,*,#309,.T.);
#106=ORIENTED_EDGE('',*,*,#310,.F.);
#107=ORIENTED_EDGE('',*,*,#311,.T.);
#108=ORIENTED_EDGE('',*,*,#312,.F.);
#109=ORIENTED_EDGE('',*,*,#313,.T.);
#110=ORIENTED_EDGE('',*,*,#314,.F.);
#111=ORIENTED_EDGE('',*,*,#315,.T.);
#112=ORIENTED_EDGE('',*,*,#316,.F.);
#113=ORIENTED_EDGE('',*,*,#317,.F.);
#114=ORIENTED_EDGE('',*,*,#318,.F.);
#115=ORIENTED_EDGE('',*,*,#319,.T.);
#116=ORIENTED_EDGE('',*,*,#320,.F.);
#117=ORIENTED_EDGE('',*,*,#321,.F.);
#118=ORIENTED_EDGE('',*,*,#322,.F.);
#119=ORIENTED_EDGE('',*,*,#323,.F.);
#120=ORIENTED_EDGE('',*,*,#324,.F.);
#121=ORIENTED_EDGE('',*,*,#325,.F.);
#122=ORIENTED_EDGE('',*,*,#321,.T.);
#123=ORIENTED_EDGE('',*,*,#326,.F.);
#124=ORIENTED_EDGE('',*,*,#327,.F.);
#125=ORIENTED_EDGE('',*,*,#328,.F.);
#126=ORIENTED_EDGE('',*,*,#317,.T.);
#127=ORIENTED_EDGE('',*,*,#329,.T.);
#128=ORIENTED_EDGE('',*,*,#330,.T.);
#129=ORIENTED_EDGE('',*,*,#331,.T.);
#130=ORIENTED_EDGE('',*,*,#332,.T.);
#131=ORIENTED_EDGE('',*,*,#333,.T.);
#132=ORIENTED_EDGE('',*,*,#334,.T.);
#133=ORIENTED_EDGE('',*,*,#335,.T.);
#134=ORIENTED_EDGE('',*,*,#336,.T.);
#135=ORIENTED_EDGE('',*,*,#337,.F.);
#136=ORIENTED_EDGE('',*,*,#338,.F.);
#137=ORIENTED_EDGE('',*,*,#339,.F.);
#138=ORIENTED_EDGE('',*,*,#340,.F.);
#139=ORIENTED_EDGE('',*,*,#341,.F.);
#140=ORIENTED_EDGE('',*,*,#342,.F.);
#141=ORIENTED_EDGE('',*,*,#343,.F.);
#142=ORIENTED_EDGE('',*,*,#344,.F.);
#143=ORIENTED_EDGE('',*,*,#345,.F.);
#144=ORIENTED_EDGE('',*,*,#346,.T.);
#145=ORIENTED_EDGE('',*,*,#347,.F.);
#146=ORIENTED_EDGE('',*,*,#342,.T.);
#147=ORIENTED_EDGE('',*,*,#348,.F.);
#148=ORIENTED_EDGE('',*,*,#349,.T.);
#149=ORIENTED_EDGE('',*,*,#307,.F.);
#150=ORIENTED_EDGE('',*,*,#350,.T.);
#151=ORIENTED_EDGE('',*,*,#311,.F.);
#152=ORIENTED_EDGE('',*,*,#351,.T.);
#153=ORIENTED_EDGE('',*,*,#346,.F.);
#154=ORIENTED_EDGE('',*,*,#352,.T.);
#155=ORIENTED_EDGE('',*,*,#309,.F.);
#156=ORIENTED_EDGE('',*,*,#353,.T.);
#157=ORIENTED_EDGE('',*,*,#315,.F.);
#158=ORIENTED_EDGE('',*,*,#354,.T.);
#159=ORIENTED_EDGE('',*,*,#319,.F.);
#160=ORIENTED_EDGE('',*,*,#355,.T.);
#161=ORIENTED_EDGE('',*,*,#313,.F.);
#162=ORIENTED_EDGE('',*,*,#356,.T.);
#163=ORIENTED_EDGE('',*,*,#357,.T.);
#164=ORIENTED_EDGE('',*,*,#358,.T.);
#165=ORIENTED_EDGE('',*,*,#359,.T.);
#166=ORIENTED_EDGE('',*,*,#360,.T.);
#167=ORIENTED_EDGE('',*,*,#361,.T.);
#168=ORIENTED_EDGE('',*,*,#362,.T.);
#169=ORIENTED_EDGE('',*,*,#363,.T.);
#170=ORIENTED_EDGE('',*,*,#364,.T.);
#171=ORIENTED_EDGE('',*,*,#365,.F.);
#172=ORIENTED_EDGE('',*,*,#366,.T.);
#173=ORIENTED_EDGE('',*,*,#367,.F.);
#174=ORIENTED_EDGE('',*,*,#331,.F.);
#175=ORIENTED_EDGE('',*,*,#368,.F.);
#176=ORIENTED_EDGE('',*,*,#357,.F.);
#177=ORIENTED_EDGE('',*,*,#369,.F.);
#178=ORIENTED_EDGE('',*,*,#361,.F.);
#179=ORIENTED_EDGE('',*,*,#370,.F.);
#180=ORIENTED_EDGE('',*,*,#363,.F.);
#181=ORIENTED_EDGE('',*,*,#371,.F.);
#182=ORIENTED_EDGE('',*,*,#366,.F.);
#183=ORIENTED_EDGE('',*,*,#372,.T.);
#184=ORIENTED_EDGE('',*,*,#322,.T.);
#185=ORIENTED_EDGE('',*,*,#373,.T.);
#186=ORIENTED_EDGE('',*,*,#374,.T.);
#187=ORIENTED_EDGE('',*,*,#375,.T.);
#188=ORIENTED_EDGE('',*,*,#376,.F.);
#189=ORIENTED_EDGE('',*,*,#359,.F.);
#190=ORIENTED_EDGE('',*,*,#377,.T.);
#191=ORIENTED_EDGE('',*,*,#378,.T.);
#192=ORIENTED_EDGE('',*,*,#379,.T.);
#193=ORIENTED_EDGE('',*,*,#380,.F.);
#194=ORIENTED_EDGE('',*,*,#381,.T.);
#195=ORIENTED_EDGE('',*,*,#382,.T.);
#196=ORIENTED_EDGE('',*,*,#383,.T.);
#197=ORIENTED_EDGE('',*,*,#376,.T.);
#198=ORIENTED_EDGE('',*,*,#384,.T.);
#199=ORIENTED_EDGE('',*,*,#385,.T.);
#200=ORIENTED_EDGE('',*,*,#380,.T.);
#201=ORIENTED_EDGE('',*,*,#386,.T.);
#202=ORIENTED_EDGE('',*,*,#387,.T.);
#203=ORIENTED_EDGE('',*,*,#388,.T.);
#204=ORIENTED_EDGE('',*,*,#389,.T.);
#205=ORIENTED_EDGE('',*,*,#390,.T.);
#206=ORIENTED_EDGE('',*,*,#391,.T.);
#207=ORIENTED_EDGE('',*,*,#392,.T.);
#208=ORIENTED_EDGE('',*,*,#335,.F.);
#209=ORIENTED_EDGE('',*,*,#393,.T.);
#210=ORIENTED_EDGE('',*,*,#348,.T.);
#211=ORIENTED_EDGE('',*,*,#394,.T.);
#212=ORIENTED_EDGE('',*,*,#338,.T.);
#213=ORIENTED_EDGE('',*,*,#395,.T.);
#214=ORIENTED_EDGE('',*,*,#372,.F.);
#215=ORIENTED_EDGE('',*,*,#374,.F.);
#216=ORIENTED_EDGE('',*,*,#396,.F.);
#217=ORIENTED_EDGE('',*,*,#387,.F.);
#218=ORIENTED_EDGE('',*,*,#397,.F.);
#219=ORIENTED_EDGE('',*,*,#384,.F.);
#220=ORIENTED_EDGE('',*,*,#398,.F.);
#221=ORIENTED_EDGE('',*,*,#391,.F.);
#222=ORIENTED_EDGE('',*,*,#399,.F.);
#223=ORIENTED_EDGE('',*,*,#389,.F.);
#224=ORIENTED_EDGE('',*,*,#373,.F.);
#225=ORIENTED_EDGE('',*,*,#375,.F.);
#226=ORIENTED_EDGE('',*,*,#367,.T.);
#227=ORIENTED_EDGE('',*,*,#371,.T.);
#228=ORIENTED_EDGE('',*,*,#362,.F.);
#229=ORIENTED_EDGE('',*,*,#369,.T.);
#230=ORIENTED_EDGE('',*,*,#360,.F.);
#231=ORIENTED_EDGE('',*,*,#383,.F.);
#232=ORIENTED_EDGE('',*,*,#400,.F.);
#233=ORIENTED_EDGE('',*,*,#332,.F.);
#234=ORIENTED_EDGE('',*,*,#401,.T.);
#235=ORIENTED_EDGE('',*,*,#381,.F.);
#236=ORIENTED_EDGE('',*,*,#385,.F.);
#237=ORIENTED_EDGE('',*,*,#397,.T.);
#238=ORIENTED_EDGE('',*,*,#390,.F.);
#239=ORIENTED_EDGE('',*,*,#399,.T.);
#240=ORIENTED_EDGE('',*,*,#393,.F.);
#241=ORIENTED_EDGE('',*,*,#334,.F.);
#242=ORIENTED_EDGE('',*,*,#401,.F.);
#243=ORIENTED_EDGE('',*,*,#333,.F.);
#244=ORIENTED_EDGE('',*,*,#400,.T.);
#245=ORIENTED_EDGE('',*,*,#382,.F.);
#246=ORIENTED_EDGE('',*,*,#402,.T.);
#247=ORIENTED_EDGE('',*,*,#329,.F.);
#248=ORIENTED_EDGE('',*,*,#403,.F.);
#249=ORIENTED_EDGE('',*,*,#378,.F.);
#250=ORIENTED_EDGE('',*,*,#402,.F.);
#251=ORIENTED_EDGE('',*,*,#377,.F.);
#252=ORIENTED_EDGE('',*,*,#358,.F.);
#253=ORIENTED_EDGE('',*,*,#368,.T.);
#254=ORIENTED_EDGE('',*,*,#364,.F.);
#255=ORIENTED_EDGE('',*,*,#370,.T.);
#256=ORIENTED_EDGE('',*,*,#365,.T.);
#257=ORIENTED_EDGE('',*,*,#330,.F.);
#258=ORIENTED_EDGE('',*,*,#392,.F.);
#259=ORIENTED_EDGE('',*,*,#398,.T.);
#260=ORIENTED_EDGE('',*,*,#388,.F.);
#261=ORIENTED_EDGE('',*,*,#396,.T.);
#262=ORIENTED_EDGE('',*,*,#386,.F.);
#263=ORIENTED_EDGE('',*,*,#379,.F.);
#264=ORIENTED_EDGE('',*,*,#403,.T.);
#265=ORIENTED_EDGE('',*,*,#336,.F.);
#266=ORIENTED_EDGE('',*,*,#341,.T.);
#267=ORIENTED_EDGE('',*,*,#404,.F.);
#268=ORIENTED_EDGE('',*,*,#326,.T.);
#269=ORIENTED_EDGE('',*,*,#320,.T.);
#270=ORIENTED_EDGE('',*,*,#356,.F.);
#271=ORIENTED_EDGE('',*,*,#312,.T.);
#272=ORIENTED_EDGE('',*,*,#352,.F.);
#273=ORIENTED_EDGE('',*,*,#345,.T.);
#274=ORIENTED_EDGE('',*,*,#339,.T.);
#275=ORIENTED_EDGE('',*,*,#394,.F.);
#276=ORIENTED_EDGE('',*,*,#350,.F.);
#277=ORIENTED_EDGE('',*,*,#306,.T.);
#278=ORIENTED_EDGE('',*,*,#354,.F.);
#279=ORIENTED_EDGE('',*,*,#314,.T.);
#280=ORIENTED_EDGE('',*,*,#328,.T.);
#281=ORIENTED_EDGE('',*,*,#405,.T.);
#282=ORIENTED_EDGE('',*,*,#327,.T.);
#283=ORIENTED_EDGE('',*,*,#404,.T.);
#284=ORIENTED_EDGE('',*,*,#340,.T.);
#285=ORIENTED_EDGE('',*,*,#405,.F.);
#286=ORIENTED_EDGE('',*,*,#324,.T.);
#287=ORIENTED_EDGE('',*,*,#406,.F.);
#288=ORIENTED_EDGE('',*,*,#344,.T.);
#289=ORIENTED_EDGE('',*,*,#407,.T.);
#290=ORIENTED_EDGE('',*,*,#337,.T.);
#291=ORIENTED_EDGE('',*,*,#406,.T.);
#292=ORIENTED_EDGE('',*,*,#323,.T.);
#293=ORIENTED_EDGE('',*,*,#316,.T.);
#294=ORIENTED_EDGE('',*,*,#353,.F.);
#295=ORIENTED_EDGE('',*,*,#308,.T.);
#296=ORIENTED_EDGE('',*,*,#349,.F.);
#297=ORIENTED_EDGE('',*,*,#395,.F.);
#298=ORIENTED_EDGE('',*,*,#343,.T.);
#299=ORIENTED_EDGE('',*,*,#347,.T.);
#300=ORIENTED_EDGE('',*,*,#351,.F.);
#301=ORIENTED_EDGE('',*,*,#310,.T.);
#302=ORIENTED_EDGE('',*,*,#355,.F.);
#303=ORIENTED_EDGE('',*,*,#318,.T.);
#304=ORIENTED_EDGE('',*,*,#325,.T.);
#305=ORIENTED_EDGE('',*,*,#407,.F.);
#306=EDGE_CURVE('',#408,#409,#478,.T.);
#307=EDGE_CURVE('',#408,#410,#72,.T.);
#308=EDGE_CURVE('',#411,#410,#479,.F.);
#309=EDGE_CURVE('',#411,#409,#73,.T.);
#310=EDGE_CURVE('',#412,#413,#480,.T.);
#311=EDGE_CURVE('',#412,#414,#74,.T.);
#312=EDGE_CURVE('',#415,#414,#481,.F.);
#313=EDGE_CURVE('',#415,#413,#75,.T.);
#314=EDGE_CURVE('',#416,#417,#482,.T.);
#315=EDGE_CURVE('',#416,#418,#76,.F.);
#316=EDGE_CURVE('',#419,#418,#483,.T.);
#317=EDGE_CURVE('',#417,#419,#77,.T.);
#318=EDGE_CURVE('',#420,#421,#484,.T.);
#319=EDGE_CURVE('',#420,#422,#78,.F.);
#320=EDGE_CURVE('',#423,#422,#485,.T.);
#321=EDGE_CURVE('',#421,#423,#79,.T.);
#322=EDGE_CURVE('',#424,#424,#80,.T.);
#323=EDGE_CURVE('',#425,#419,#486,.F.);
#324=EDGE_CURVE('',#426,#425,#30,.T.);
#325=EDGE_CURVE('',#421,#426,#487,.T.);
#326=EDGE_CURVE('',#427,#423,#488,.F.);
#327=EDGE_CURVE('',#428,#427,#31,.T.);
#328=EDGE_CURVE('',#417,#428,#489,.T.);
#329=EDGE_CURVE('',#429,#430,#32,.T.);
#330=EDGE_CURVE('',#430,#431,#490,.T.);
#331=EDGE_CURVE('',#431,#432,#81,.T.);
#332=EDGE_CURVE('',#432,#433,#491,.F.);
#333=EDGE_CURVE('',#433,#434,#33,.T.);
#334=EDGE_CURVE('',#434,#435,#492,.T.);
#335=EDGE_CURVE('',#435,#436,#82,.T.);
#336=EDGE_CURVE('',#436,#429,#493,.F.);
#337=EDGE_CURVE('',#437,#438,#494,.T.);
#338=EDGE_CURVE('',#439,#437,#83,.T.);
#339=EDGE_CURVE('',#440,#439,#495,.F.);
#340=EDGE_CURVE('',#441,#440,#34,.T.);
#341=EDGE_CURVE('',#442,#441,#496,.T.);
#342=EDGE_CURVE('',#443,#442,#84,.T.);
#343=EDGE_CURVE('',#444,#443,#497,.F.);
#344=EDGE_CURVE('',#438,#444,#35,.T.);
#345=EDGE_CURVE('',#445,#442,#498,.T.);
#346=EDGE_CURVE('',#445,#446,#85,.F.);
#347=EDGE_CURVE('',#443,#446,#499,.T.);
#348=EDGE_CURVE('',#447,#448,#86,.F.);
#349=EDGE_CURVE('',#447,#410,#36,.T.);
#350=EDGE_CURVE('',#408,#448,#37,.T.);
#351=EDGE_CURVE('',#412,#446,#38,.T.);
#352=EDGE_CURVE('',#445,#414,#39,.T.);
#353=EDGE_CURVE('',#411,#418,#40,.T.);
#354=EDGE_CURVE('',#416,#409,#41,.T.);
#355=EDGE_CURVE('',#420,#413,#42,.T.);
#356=EDGE_CURVE('',#415,#422,#43,.T.);
#357=EDGE_CURVE('',#449,#450,#87,.F.);
#358=EDGE_CURVE('',#450,#451,#500,.T.);
#359=EDGE_CURVE('',#451,#452,#88,.T.);
#360=EDGE_CURVE('',#452,#449,#501,.T.);
#361=EDGE_CURVE('',#453,#454,#89,.T.);
#362=EDGE_CURVE('',#454,#455,#502,.T.);
#363=EDGE_CURVE('',#455,#456,#90,.T.);
#364=EDGE_CURVE('',#456,#453,#503,.F.);
#365=EDGE_CURVE('',#457,#431,#504,.T.);
#366=EDGE_CURVE('',#457,#458,#91,.F.);
#367=EDGE_CURVE('',#432,#458,#505,.T.);
#368=EDGE_CURVE('',#450,#453,#44,.T.);
#369=EDGE_CURVE('',#454,#449,#45,.T.);
#370=EDGE_CURVE('',#456,#457,#46,.T.);
#371=EDGE_CURVE('',#458,#455,#47,.T.);
#372=EDGE_CURVE('',#459,#459,#92,.F.);
#373=EDGE_CURVE('',#460,#460,#93,.T.);
#374=EDGE_CURVE('',#461,#461,#94,.T.);
#375=EDGE_CURVE('',#462,#462,#95,.F.);
#376=EDGE_CURVE('',#463,#463,#96,.T.);
#377=EDGE_CURVE('',#451,#464,#506,.F.);
#378=EDGE_CURVE('',#464,#465,#48,.T.);
#379=EDGE_CURVE('',#465,#466,#507,.T.);
#380=EDGE_CURVE('',#467,#466,#97,.T.);
#381=EDGE_CURVE('',#467,#468,#508,.F.);
#382=EDGE_CURVE('',#468,#469,#49,.T.);
#383=EDGE_CURVE('',#469,#452,#509,.T.);
#384=EDGE_CURVE('',#470,#471,#98,.F.);
#385=EDGE_CURVE('',#471,#467,#510,.T.);
#386=EDGE_CURVE('',#466,#470,#511,.T.);
#387=EDGE_CURVE('',#472,#473,#99,.T.);
#388=EDGE_CURVE('',#473,#474,#512,.T.);
#389=EDGE_CURVE('',#474,#475,#100,.T.);
#390=EDGE_CURVE('',#475,#472,#513,.F.);
#391=EDGE_CURVE('',#476,#477,#101,.F.);
#392=EDGE_CURVE('',#477,#436,#514,.T.);
#393=EDGE_CURVE('',#435,#476,#515,.T.);
#394=EDGE_CURVE('',#448,#439,#516,.T.);
#395=EDGE_CURVE('',#437,#447,#517,.T.);
#396=EDGE_CURVE('',#473,#470,#50,.T.);
#397=EDGE_CURVE('',#471,#472,#51,.T.);
#398=EDGE_CURVE('',#477,#474,#52,.T.);
#399=EDGE_CURVE('',#475,#476,#53,.T.);
#400=EDGE_CURVE('',#433,#469,#518,.T.);
#401=EDGE_CURVE('',#434,#468,#519,.T.);
#402=EDGE_CURVE('',#464,#430,#520,.T.);
#403=EDGE_CURVE('',#465,#429,#521,.T.);
#404=EDGE_CURVE('',#427,#441,#522,.T.);
#405=EDGE_CURVE('',#428,#440,#523,.T.);
#406=EDGE_CURVE('',#438,#425,#524,.T.);
#407=EDGE_CURVE('',#444,#426,#525,.T.);
#408=VERTEX_POINT('',#998);
#409=VERTEX_POINT('',#999);
#410=VERTEX_POINT('',#1001);
#411=VERTEX_POINT('',#1003);
#412=VERTEX_POINT('',#1007);
#413=VERTEX_POINT('',#1008);
#414=VERTEX_POINT('',#1010);
#415=VERTEX_POINT('',#1012);
#416=VERTEX_POINT('',#1016);
#417=VERTEX_POINT('',#1017);
#418=VERTEX_POINT('',#1019);
#419=VERTEX_POINT('',#1021);
#420=VERTEX_POINT('',#1025);
#421=VERTEX_POINT('',#1026);
#422=VERTEX_POINT('',#1028);
#423=VERTEX_POINT('',#1030);
#424=VERTEX_POINT('',#1034);
#425=VERTEX_POINT('',#1036);
#426=VERTEX_POINT('',#1042);
#427=VERTEX_POINT('',#1045);
#428=VERTEX_POINT('',#1051);
#429=VERTEX_POINT('',#1059);
#430=VERTEX_POINT('',#1060);
#431=VERTEX_POINT('',#1062);
#432=VERTEX_POINT('',#1064);
#433=VERTEX_POINT('',#1066);
#434=VERTEX_POINT('',#1072);
#435=VERTEX_POINT('',#1074);
#436=VERTEX_POINT('',#1076);
#437=VERTEX_POINT('',#1079);
#438=VERTEX_POINT('',#1080);
#439=VERTEX_POINT('',#1082);
#440=VERTEX_POINT('',#1084);
#441=VERTEX_POINT('',#1090);
#442=VERTEX_POINT('',#1092);
#443=VERTEX_POINT('',#1094);
#444=VERTEX_POINT('',#1096);
#445=VERTEX_POINT('',#1104);
#446=VERTEX_POINT('',#1106);
#447=VERTEX_POINT('',#1110);
#448=VERTEX_POINT('',#1111);
#449=VERTEX_POINT('',#1149);
#450=VERTEX_POINT('',#1150);
#451=VERTEX_POINT('',#1152);
#452=VERTEX_POINT('',#1154);
#453=VERTEX_POINT('',#1158);
#454=VERTEX_POINT('',#1159);
#455=VERTEX_POINT('',#1161);
#456=VERTEX_POINT('',#1163);
#457=VERTEX_POINT('',#1167);
#458=VERTEX_POINT('',#1169);
#459=VERTEX_POINT('',#1191);
#460=VERTEX_POINT('',#1194);
#461=VERTEX_POINT('',#1196);
#462=VERTEX_POINT('',#1199);
#463=VERTEX_POINT('',#1201);
#464=VERTEX_POINT('',#1204);
#465=VERTEX_POINT('',#1210);
#466=VERTEX_POINT('',#1212);
#467=VERTEX_POINT('',#1214);
#468=VERTEX_POINT('',#1216);
#469=VERTEX_POINT('',#1222);
#470=VERTEX_POINT('',#1226);
#471=VERTEX_POINT('',#1227);
#472=VERTEX_POINT('',#1232);
#473=VERTEX_POINT('',#1233);
#474=VERTEX_POINT('',#1235);
#475=VERTEX_POINT('',#1237);
#476=VERTEX_POINT('',#1241);
#477=VERTEX_POINT('',#1242);
#478=LINE('',#997,#526);
#479=LINE('',#1002,#527);
#480=LINE('',#1006,#528);
#481=LINE('',#1011,#529);
#482=LINE('',#1015,#530);
#483=LINE('',#1020,#531);
#484=LINE('',#1024,#532);
#485=LINE('',#1029,#533);
#486=LINE('',#1035,#534);
#487=LINE('',#1043,#535);
#488=LINE('',#1044,#536);
#489=LINE('',#1052,#537);
#490=LINE('',#1061,#538);
#491=LINE('',#1065,#539);
#492=LINE('',#1073,#540);
#493=LINE('',#1077,#541);
#494=LINE('',#1078,#542);
#495=LINE('',#1083,#543);
#496=LINE('',#1091,#544);
#497=LINE('',#1095,#545);
#498=LINE('',#1103,#546);
#499=LINE('',#1107,#547);
#500=LINE('',#1151,#548);
#501=LINE('',#1155,#549);
#502=LINE('',#1160,#550);
#503=LINE('',#1164,#551);
#504=LINE('',#1166,#552);
#505=LINE('',#1170,#553);
#506=LINE('',#1203,#554);
#507=LINE('',#1211,#555);
#508=LINE('',#1215,#556);
#509=LINE('',#1223,#557);
#510=LINE('',#1228,#558);
#511=LINE('',#1229,#559);
#512=LINE('',#1234,#560);
#513=LINE('',#1238,#561);
#514=LINE('',#1243,#562);
#515=LINE('',#1244,#563);
#516=LINE('',#1246,#564);
#517=LINE('',#1247,#565);
#518=LINE('',#1269,#566);
#519=LINE('',#1271,#567);
#520=LINE('',#1274,#568);
#521=LINE('',#1275,#569);
#522=LINE('',#1279,#570);
#523=LINE('',#1281,#571);
#524=LINE('',#1284,#572);
#525=LINE('',#1285,#573);
#526=VECTOR('',#809,1000.);
#527=VECTOR('',#812,1000.);
#528=VECTOR('',#817,1000.);
#529=VECTOR('',#820,1000.);
#530=VECTOR('',#825,1000.);
#531=VECTOR('',#828,1000.);
#532=VECTOR('',#833,1000.);
#533=VECTOR('',#836,1000.);
#534=VECTOR('',#843,1000.);
#535=VECTOR('',#844,1000.);
#536=VECTOR('',#845,1000.);
#537=VECTOR('',#846,1000.);
#538=VECTOR('',#849,1000.);
#539=VECTOR('',#852,1000.);
#540=VECTOR('',#853,1000.);
#541=VECTOR('',#856,1000.);
#542=VECTOR('',#857,1000.);
#543=VECTOR('',#860,1000.);
#544=VECTOR('',#861,1000.);
#545=VECTOR('',#864,1000.);
#546=VECTOR('',#867,1000.);
#547=VECTOR('',#870,1000.);
#548=VECTOR('',#885,1000.);
#549=VECTOR('',#888,1000.);
#550=VECTOR('',#893,1000.);
#551=VECTOR('',#896,1000.);
#552=VECTOR('',#899,1000.);
#553=VECTOR('',#902,1000.);
#554=VECTOR('',#925,1000.);
#555=VECTOR('',#926,1000.);
#556=VECTOR('',#929,1000.);
#557=VECTOR('',#930,1000.);
#558=VECTOR('',#935,1000.);
#559=VECTOR('',#936,1000.);
#560=VECTOR('',#941,1000.);
#561=VECTOR('',#944,1000.);
#562=VECTOR('',#949,1000.);
#563=VECTOR('',#950,1000.);
#564=VECTOR('',#953,1000.);
#565=VECTOR('',#954,1000.);
#566=VECTOR('',#965,1000.);
#567=VECTOR('',#968,1000.);
#568=VECTOR('',#973,1000.);
#569=VECTOR('',#974,1000.);
#570=VECTOR('',#981,1000.);
#571=VECTOR('',#984,1000.);
#572=VECTOR('',#989,1000.);
#573=VECTOR('',#990,1000.);
#574=EDGE_LOOP('',(#102,#103,#104,#105));
#575=EDGE_LOOP('',(#106,#107,#108,#109));
#576=EDGE_LOOP('',(#110,#111,#112,#113));
#577=EDGE_LOOP('',(#114,#115,#116,#117));
#578=EDGE_LOOP('',(#118));
#579=EDGE_LOOP('',(#119,#120,#121,#122,#123,#124,#125,#126));
#580=EDGE_LOOP('',(#127,#128,#129,#130,#131,#132,#133,#134));
#581=EDGE_LOOP('',(#135,#136,#137,#138,#139,#140,#141,#142));
#582=EDGE_LOOP('',(#143,#144,#145,#146));
#583=EDGE_LOOP('',(#147,#148,#149,#150));
#584=EDGE_LOOP('',(#151,#152,#153,#154));
#585=EDGE_LOOP('',(#155,#156,#157,#158));
#586=EDGE_LOOP('',(#159,#160,#161,#162));
#587=EDGE_LOOP('',(#163,#164,#165,#166));
#588=EDGE_LOOP('',(#167,#168,#169,#170));
#589=EDGE_LOOP('',(#171,#172,#173,#174));
#590=EDGE_LOOP('',(#175,#176,#177,#178));
#591=EDGE_LOOP('',(#179,#180,#181,#182));
#592=EDGE_LOOP('',(#183));
#593=EDGE_LOOP('',(#184));
#594=EDGE_LOOP('',(#185));
#595=EDGE_LOOP('',(#186));
#596=EDGE_LOOP('',(#187));
#597=EDGE_LOOP('',(#188));
#598=EDGE_LOOP('',(#189,#190,#191,#192,#193,#194,#195,#196));
#599=EDGE_LOOP('',(#197));
#600=EDGE_LOOP('',(#198,#199,#200,#201));
#601=EDGE_LOOP('',(#202,#203,#204,#205));
#602=EDGE_LOOP('',(#206,#207,#208,#209));
#603=EDGE_LOOP('',(#210,#211,#212,#213));
#604=EDGE_LOOP('',(#214));
#605=EDGE_LOOP('',(#215));
#606=EDGE_LOOP('',(#216,#217,#218,#219));
#607=EDGE_LOOP('',(#220,#221,#222,#223));
#608=EDGE_LOOP('',(#224));
#609=EDGE_LOOP('',(#225));
#610=EDGE_LOOP('',(#226,#227,#228,#229,#230,#231,#232,#233));
#611=EDGE_LOOP('',(#234,#235,#236,#237,#238,#239,#240,#241));
#612=EDGE_LOOP('',(#242,#243,#244,#245));
#613=EDGE_LOOP('',(#246,#247,#248,#249));
#614=EDGE_LOOP('',(#250,#251,#252,#253,#254,#255,#256,#257));
#615=EDGE_LOOP('',(#258,#259,#260,#261,#262,#263,#264,#265));
#616=EDGE_LOOP('',(#266,#267,#268,#269,#270,#271,#272,#273));
#617=EDGE_LOOP('',(#274,#275,#276,#277,#278,#279,#280,#281));
#618=EDGE_LOOP('',(#282,#283,#284,#285));
#619=EDGE_LOOP('',(#286,#287,#288,#289));
#620=EDGE_LOOP('',(#290,#291,#292,#293,#294,#295,#296,#297));
#621=EDGE_LOOP('',(#298,#299,#300,#301,#302,#303,#304,#305));
#622=FACE_BOUND('',#574,.T.);
#623=FACE_BOUND('',#575,.T.);
#624=FACE_BOUND('',#576,.T.);
#625=FACE_BOUND('',#577,.T.);
#626=FACE_BOUND('',#578,.T.);
#627=FACE_BOUND('',#579,.T.);
#628=FACE_BOUND('',#580,.T.);
#629=FACE_BOUND('',#581,.T.);
#630=FACE_BOUND('',#582,.T.);
#631=FACE_BOUND('',#583,.T.);
#632=FACE_BOUND('',#584,.T.);
#633=FACE_BOUND('',#585,.T.);
#634=FACE_BOUND('',#586,.T.);
#635=FACE_BOUND('',#587,.T.);
#636=FACE_BOUND('',#588,.T.);
#637=FACE_BOUND('',#589,.T.);
#638=FACE_BOUND('',#590,.T.);
#639=FACE_BOUND('',#591,.T.);
#640=FACE_BOUND('',#592,.T.);
#641=FACE_BOUND('',#593,.T.);
#642=FACE_BOUND('',#594,.T.);
#643=FACE_BOUND('',#595,.T.);
#644=FACE_BOUND('',#596,.T.);
#645=FACE_BOUND('',#597,.T.);
#646=FACE_BOUND('',#598,.T.);
#647=FACE_BOUND('',#599,.T.);
#648=FACE_BOUND('',#600,.T.);
#649=FACE_BOUND('',#601,.T.);
#650=FACE_BOUND('',#602,.T.);
#651=FACE_BOUND('',#603,.T.);
#652=FACE_BOUND('',#604,.T.);
#653=FACE_BOUND('',#605,.T.);
#654=FACE_BOUND('',#606,.T.);
#655=FACE_BOUND('',#607,.T.);
#656=FACE_BOUND('',#608,.T.);
#657=FACE_BOUND('',#609,.T.);
#658=FACE_BOUND('',#610,.T.);
#659=FACE_BOUND('',#611,.T.);
#660=FACE_BOUND('',#612,.T.);
#661=FACE_BOUND('',#613,.T.);
#662=FACE_BOUND('',#614,.T.);
#663=FACE_BOUND('',#615,.T.);
#664=FACE_BOUND('',#616,.T.);
#665=FACE_BOUND('',#617,.T.);
#666=FACE_BOUND('',#618,.T.);
#667=FACE_BOUND('',#619,.T.);
#668=FACE_BOUND('',#620,.T.);
#669=FACE_BOUND('',#621,.T.);
#670=CYLINDRICAL_SURFACE('',#735,2.60000000000001);
#671=CYLINDRICAL_SURFACE('',#738,2.60000000000001);
#672=CYLINDRICAL_SURFACE('',#747,2.4);
#673=CYLINDRICAL_SURFACE('',#749,2.00000000000001);
#674=CYLINDRICAL_SURFACE('',#764,2.60000000000001);
#675=CYLINDRICAL_SURFACE('',#773,3.1);
#676=CYLINDRICAL_SURFACE('',#779,2.40000000000001);
#677=CYLINDRICAL_SURFACE('',#783,2.60000000000001);
#678=CYLINDRICAL_SURFACE('',#795,0.4);
#679=CYLINDRICAL_SURFACE('',#796,0.4);
#680=CYLINDRICAL_SURFACE('',#801,0.4);
#681=CYLINDRICAL_SURFACE('',#802,0.4);
#682=ADVANCED_FACE('',(#622),#670,.T.);
#683=ADVANCED_FACE('',(#623),#671,.T.);
#684=ADVANCED_FACE('',(#624),#54,.F.);
#685=ADVANCED_FACE('',(#625),#55,.F.);
#686=ADVANCED_FACE('',(#626,#627),#672,.T.);
#687=ADVANCED_FACE('',(#628,#629),#673,.F.);
#688=ADVANCED_FACE('',(#630),#56,.F.);
#689=ADVANCED_FACE('',(#631),#20,.T.);
#690=ADVANCED_FACE('',(#632),#21,.T.);
#691=ADVANCED_FACE('',(#633),#22,.T.);
#692=ADVANCED_FACE('',(#634),#23,.T.);
#693=ADVANCED_FACE('',(#635),#57,.F.);
#694=ADVANCED_FACE('',(#636),#674,.T.);
#695=ADVANCED_FACE('',(#637),#58,.F.);
#696=ADVANCED_FACE('',(#638),#24,.T.);
#697=ADVANCED_FACE('',(#639),#25,.T.);
#698=ADVANCED_FACE('',(#640,#641),#59,.F.);
#699=ADVANCED_FACE('',(#642,#643),#675,.T.);
#700=ADVANCED_FACE('',(#644,#645),#60,.F.);
#701=ADVANCED_FACE('',(#646,#647),#676,.T.);
#702=ADVANCED_FACE('',(#648),#61,.F.);
#703=ADVANCED_FACE('',(#649),#677,.T.);
#704=ADVANCED_FACE('',(#650),#62,.F.);
#705=ADVANCED_FACE('',(#651),#63,.F.);
#706=ADVANCED_FACE('',(#652,#653),#26,.T.);
#707=ADVANCED_FACE('',(#654),#27,.T.);
#708=ADVANCED_FACE('',(#655),#28,.T.);
#709=ADVANCED_FACE('',(#656,#657),#29,.T.);
#710=ADVANCED_FACE('',(#658),#64,.F.);
#711=ADVANCED_FACE('',(#659),#65,.F.);
#712=ADVANCED_FACE('',(#660),#678,.F.);
#713=ADVANCED_FACE('',(#661),#679,.F.);
#714=ADVANCED_FACE('',(#662),#66,.F.);
#715=ADVANCED_FACE('',(#663),#67,.F.);
#716=ADVANCED_FACE('',(#664),#68,.T.);
#717=ADVANCED_FACE('',(#665),#69,.T.);
#718=ADVANCED_FACE('',(#666),#680,.F.);
#719=ADVANCED_FACE('',(#667),#681,.F.);
#720=ADVANCED_FACE('',(#668),#70,.T.);
#721=ADVANCED_FACE('',(#669),#71,.T.);
#722=CLOSED_SHELL('',(#682,#683,#684,#685,#686,#687,#688,#689,#690,#691,
#692,#693,#694,#695,#696,#697,#698,#699,#700,#701,#702,#703,#704,#705,#706,
#707,#708,#709,#710,#711,#712,#713,#714,#715,#716,#717,#718,#719,#720,#721));
#723=STYLED_ITEM('',(#724),#731);
#724=PRESENTATION_STYLE_ASSIGNMENT((#725));
#725=SURFACE_STYLE_USAGE(.BOTH.,#726);
#726=SURFACE_SIDE_STYLE('',(#727));
#727=SURFACE_STYLE_FILL_AREA(#728);
#728=FILL_AREA_STYLE('',(#729));
#729=FILL_AREA_STYLE_COLOUR('',#730);
#730=COLOUR_RGB('',0.749019622802734,0.665650486946106,0.449411779642105);
#731=MANIFOLD_SOLID_BREP('',#722);
#732=SHAPE_DEFINITION_REPRESENTATION(#1294,#733);
#733=SHAPE_REPRESENTATION('Sand_6013938_MCM',(#734),#1289);
#734=AXIS2_PLACEMENT_3D('',#995,#805,#806);
#735=AXIS2_PLACEMENT_3D('',#996,#807,#808);
#736=AXIS2_PLACEMENT_3D('',#1000,#810,#811);
#737=AXIS2_PLACEMENT_3D('',#1004,#813,#814);
#738=AXIS2_PLACEMENT_3D('',#1005,#815,#816);
#739=AXIS2_PLACEMENT_3D('',#1009,#818,#819);
#740=AXIS2_PLACEMENT_3D('',#1013,#821,#822);
#741=AXIS2_PLACEMENT_3D('',#1014,#823,#824);
#742=AXIS2_PLACEMENT_3D('',#1018,#826,#827);
#743=AXIS2_PLACEMENT_3D('',#1022,#829,#830);
#744=AXIS2_PLACEMENT_3D('',#1023,#831,#832);
#745=AXIS2_PLACEMENT_3D('',#1027,#834,#835);
#746=AXIS2_PLACEMENT_3D('',#1031,#837,#838);
#747=AXIS2_PLACEMENT_3D('',#1032,#839,#840);
#748=AXIS2_PLACEMENT_3D('',#1033,#841,#842);
#749=AXIS2_PLACEMENT_3D('',#1053,#847,#848);
#750=AXIS2_PLACEMENT_3D('',#1063,#850,#851);
#751=AXIS2_PLACEMENT_3D('',#1075,#854,#855);
#752=AXIS2_PLACEMENT_3D('',#1081,#858,#859);
#753=AXIS2_PLACEMENT_3D('',#1093,#862,#863);
#754=AXIS2_PLACEMENT_3D('',#1102,#865,#866);
#755=AXIS2_PLACEMENT_3D('',#1105,#868,#869);
#756=AXIS2_PLACEMENT_3D('',#1108,#871,#872);
#757=AXIS2_PLACEMENT_3D('',#1109,#873,#874);
#758=AXIS2_PLACEMENT_3D('',#1120,#875,#876);
#759=AXIS2_PLACEMENT_3D('',#1129,#877,#878);
#760=AXIS2_PLACEMENT_3D('',#1138,#879,#880);
#761=AXIS2_PLACEMENT_3D('',#1147,#881,#882);
#762=AXIS2_PLACEMENT_3D('',#1148,#883,#884);
#763=AXIS2_PLACEMENT_3D('',#1153,#886,#887);
#764=AXIS2_PLACEMENT_3D('',#1156,#889,#890);
#765=AXIS2_PLACEMENT_3D('',#1157,#891,#892);
#766=AXIS2_PLACEMENT_3D('',#1162,#894,#895);
#767=AXIS2_PLACEMENT_3D('',#1165,#897,#898);
#768=AXIS2_PLACEMENT_3D('',#1168,#900,#901);
#769=AXIS2_PLACEMENT_3D('',#1171,#903,#904);
#770=AXIS2_PLACEMENT_3D('',#1180,#905,#906);
#771=AXIS2_PLACEMENT_3D('',#1189,#907,#908);
#772=AXIS2_PLACEMENT_3D('',#1190,#909,#910);
#773=AXIS2_PLACEMENT_3D('',#1192,#911,#912);
#774=AXIS2_PLACEMENT_3D('',#1193,#913,#914);
#775=AXIS2_PLACEMENT_3D('',#1195,#915,#916);
#776=AXIS2_PLACEMENT_3D('',#1197,#917,#918);
#777=AXIS2_PLACEMENT_3D('',#1198,#919,#920);
#778=AXIS2_PLACEMENT_3D('',#1200,#921,#922);
#779=AXIS2_PLACEMENT_3D('',#1202,#923,#924);
#780=AXIS2_PLACEMENT_3D('',#1213,#927,#928);
#781=AXIS2_PLACEMENT_3D('',#1224,#931,#932);
#782=AXIS2_PLACEMENT_3D('',#1225,#933,#934);
#783=AXIS2_PLACEMENT_3D('',#1230,#937,#938);
#784=AXIS2_PLACEMENT_3D('',#1231,#939,#940);
#785=AXIS2_PLACEMENT_3D('',#1236,#942,#943);
#786=AXIS2_PLACEMENT_3D('',#1239,#945,#946);
#787=AXIS2_PLACEMENT_3D('',#1240,#947,#948);
#788=AXIS2_PLACEMENT_3D('',#1245,#951,#952);
#789=AXIS2_PLACEMENT_3D('',#1248,#955,#956);
#790=AXIS2_PLACEMENT_3D('',#1249,#957,#958);
#791=AXIS2_PLACEMENT_3D('',#1258,#959,#960);
#792=AXIS2_PLACEMENT_3D('',#1267,#961,#962);
#793=AXIS2_PLACEMENT_3D('',#1268,#963,#964);
#794=AXIS2_PLACEMENT_3D('',#1270,#966,#967);
#795=AXIS2_PLACEMENT_3D('',#1272,#969,#970);
#796=AXIS2_PLACEMENT_3D('',#1273,#971,#972);
#797=AXIS2_PLACEMENT_3D('',#1276,#975,#976);
#798=AXIS2_PLACEMENT_3D('',#1277,#977,#978);
#799=AXIS2_PLACEMENT_3D('',#1278,#979,#980);
#800=AXIS2_PLACEMENT_3D('',#1280,#982,#983);
#801=AXIS2_PLACEMENT_3D('',#1282,#985,#986);
#802=AXIS2_PLACEMENT_3D('',#1283,#987,#988);
#803=AXIS2_PLACEMENT_3D('',#1286,#991,#992);
#804=AXIS2_PLACEMENT_3D('',#1287,#993,#994);
#805=DIRECTION('',(0.,0.,1.));
#806=DIRECTION('',(1.,0.,0.));
#807=DIRECTION('',(-1.,0.,0.));
#808=DIRECTION('',(0.,0.,1.));
#809=DIRECTION('',(-1.,0.,0.));
#810=DIRECTION('',(-1.,0.,0.));
#811=DIRECTION('',(0.,0.,1.));
#812=DIRECTION('',(-1.,0.,0.));
#813=DIRECTION('',(1.,0.,0.));
#814=DIRECTION('',(0.,0.,-1.));
#815=DIRECTION('',(-1.,0.,0.));
#816=DIRECTION('',(0.,0.,1.));
#817=DIRECTION('',(-1.,0.,0.));
#818=DIRECTION('',(-1.,0.,0.));
#819=DIRECTION('',(0.,0.,1.));
#820=DIRECTION('',(-1.,0.,0.));
#821=DIRECTION('',(1.,0.,0.));
#822=DIRECTION('',(0.,0.,-1.));
#823=DIRECTION('',(1.,0.,0.));
#824=DIRECTION('',(0.,0.,-1.));
#825=DIRECTION('',(0.,0.,-1.));
#826=DIRECTION('',(1.,0.,0.));
#827=DIRECTION('',(0.,0.,-1.));
#828=DIRECTION('',(0.,0.,-1.));
#829=DIRECTION('',(-1.,0.,0.));
#830=DIRECTION('',(0.,0.,1.));
#831=DIRECTION('',(1.,0.,0.));
#832=DIRECTION('',(0.,0.,-1.));
#833=DIRECTION('',(0.,0.,1.));
#834=DIRECTION('',(1.,0.,0.));
#835=DIRECTION('',(0.,0.,-1.));
#836=DIRECTION('',(0.,0.,1.));
#837=DIRECTION('',(-1.,0.,0.));
#838=DIRECTION('',(0.,0.,1.));
#839=DIRECTION('',(-1.,0.,0.));
#840=DIRECTION('',(0.,0.,1.));
#841=DIRECTION('',(-1.,0.,0.));
#842=DIRECTION('',(0.,0.,1.));
#843=DIRECTION('',(-1.,0.,0.));
#844=DIRECTION('',(-1.,0.,0.));
#845=DIRECTION('',(-1.,0.,0.));
#846=DIRECTION('',(-1.,0.,0.));
#847=DIRECTION('',(-1.,0.,0.));
#848=DIRECTION('',(0.,0.,1.));
#849=DIRECTION('',(-1.,0.,0.));
#850=DIRECTION('',(-1.,0.,0.));
#851=DIRECTION('',(0.,0.,1.));
#852=DIRECTION('',(-1.,0.,0.));
#853=DIRECTION('',(-1.,0.,0.));
#854=DIRECTION('',(-1.,0.,0.));
#855=DIRECTION('',(0.,0.,1.));
#856=DIRECTION('',(-1.,0.,0.));
#857=DIRECTION('',(-1.,0.,0.));
#858=DIRECTION('',(-1.,0.,0.));
#859=DIRECTION('',(0.,0.,1.));
#860=DIRECTION('',(-1.,0.,0.));
#861=DIRECTION('',(-1.,0.,0.));
#862=DIRECTION('',(-1.,0.,0.));
#863=DIRECTION('',(0.,0.,1.));
#864=DIRECTION('',(-1.,0.,0.));
#865=DIRECTION('',(-1.,0.,0.));
#866=DIRECTION('',(0.,0.,1.));
#867=DIRECTION('',(0.,0.,-1.));
#868=DIRECTION('',(-1.,0.,0.));
#869=DIRECTION('',(0.,0.,1.));
#870=DIRECTION('',(0.,0.,-1.));
#871=DIRECTION('',(-1.,0.,0.));
#872=DIRECTION('',(0.,0.,1.));
#873=DIRECTION('',(-1.,0.,0.));
#874=DIRECTION('',(0.,0.,1.));
#875=DIRECTION('',(-1.,0.,0.));
#876=DIRECTION('',(0.,0.,1.));
#877=DIRECTION('',(1.,0.,0.));
#878=DIRECTION('',(0.,0.,-1.));
#879=DIRECTION('',(1.,0.,0.));
#880=DIRECTION('',(0.,0.,-1.));
#881=DIRECTION('',(-1.,0.,0.));
#882=DIRECTION('',(0.,0.,1.));
#883=DIRECTION('',(-1.,0.,0.));
#884=DIRECTION('',(0.,0.,1.));
#885=DIRECTION('',(0.,1.,0.));
#886=DIRECTION('',(-1.,0.,0.));
#887=DIRECTION('',(0.,0.,1.));
#888=DIRECTION('',(0.,1.,0.));
#889=DIRECTION('',(-1.,0.,0.));
#890=DIRECTION('',(0.,0.,1.));
#891=DIRECTION('',(-1.,0.,0.));
#892=DIRECTION('',(0.,0.,1.));
#893=DIRECTION('',(-1.,0.,0.));
#894=DIRECTION('',(1.,0.,0.));
#895=DIRECTION('',(0.,0.,-1.));
#896=DIRECTION('',(-1.,0.,0.));
#897=DIRECTION('',(1.,0.,0.));
#898=DIRECTION('',(0.,0.,-1.));
#899=DIRECTION('',(0.,1.,0.));
#900=DIRECTION('',(1.,0.,0.));
#901=DIRECTION('',(0.,0.,-1.));
#902=DIRECTION('',(0.,1.,0.));
#903=DIRECTION('',(-1.,0.,0.));
#904=DIRECTION('',(0.,0.,1.));
#905=DIRECTION('',(1.,0.,0.));
#906=DIRECTION('',(0.,0.,-1.));
#907=DIRECTION('',(-1.,0.,0.));
#908=DIRECTION('',(0.,0.,1.));
#909=DIRECTION('',(-1.,0.,0.));
#910=DIRECTION('',(0.,0.,1.));
#911=DIRECTION('',(-1.,0.,0.));
#912=DIRECTION('',(0.,0.,1.));
#913=DIRECTION('',(1.,0.,0.));
#914=DIRECTION('',(0.,0.,-1.));
#915=DIRECTION('',(-1.,0.,0.));
#916=DIRECTION('',(0.,0.,1.));
#917=DIRECTION('',(1.,0.,0.));
#918=DIRECTION('',(0.,0.,-1.));
#919=DIRECTION('',(1.,0.,0.));
#920=DIRECTION('',(0.,0.,-1.));
#921=DIRECTION('',(-1.,0.,0.));
#922=DIRECTION('',(0.,0.,1.));
#923=DIRECTION('',(-1.,0.,0.));
#924=DIRECTION('',(0.,0.,1.));
#925=DIRECTION('',(-1.,0.,0.));
#926=DIRECTION('',(-1.,0.,0.));
#927=DIRECTION('',(-1.,0.,0.));
#928=DIRECTION('',(0.,0.,1.));
#929=DIRECTION('',(-1.,0.,0.));
#930=DIRECTION('',(-1.,0.,0.));
#931=DIRECTION('',(-1.,0.,0.));
#932=DIRECTION('',(0.,0.,1.));
#933=DIRECTION('',(-1.,0.,0.));
#934=DIRECTION('',(0.,0.,1.));
#935=DIRECTION('',(0.,-1.,0.));
#936=DIRECTION('',(0.,-1.,0.));
#937=DIRECTION('',(-1.,0.,0.));
#938=DIRECTION('',(0.,0.,1.));
#939=DIRECTION('',(-1.,0.,0.));
#940=DIRECTION('',(0.,0.,1.));
#941=DIRECTION('',(-1.,0.,0.));
#942=DIRECTION('',(1.,0.,0.));
#943=DIRECTION('',(0.,0.,-1.));
#944=DIRECTION('',(-1.,0.,0.));
#945=DIRECTION('',(1.,0.,0.));
#946=DIRECTION('',(0.,0.,-1.));
#947=DIRECTION('',(1.,0.,0.));
#948=DIRECTION('',(0.,0.,-1.));
#949=DIRECTION('',(0.,1.,0.));
#950=DIRECTION('',(0.,1.,0.));
#951=DIRECTION('',(-1.,0.,0.));
#952=DIRECTION('',(0.,0.,1.));
#953=DIRECTION('',(0.,0.,-1.));
#954=DIRECTION('',(0.,0.,-1.));
#955=DIRECTION('',(-1.,0.,0.));
#956=DIRECTION('',(0.,0.,1.));
#957=DIRECTION('',(-1.,0.,0.));
#958=DIRECTION('',(0.,0.,1.));
#959=DIRECTION('',(1.,0.,0.));
#960=DIRECTION('',(0.,0.,-1.));
#961=DIRECTION('',(1.,0.,0.));
#962=DIRECTION('',(0.,0.,-1.));
#963=DIRECTION('',(2.71050543121376E-17,0.,1.));
#964=DIRECTION('',(1.,0.,-2.71050543121376E-17));
#965=DIRECTION('',(0.,1.,0.));
#966=DIRECTION('',(2.71050543121376E-16,0.,-1.));
#967=DIRECTION('',(-1.,0.,-2.71050543121376E-16));
#968=DIRECTION('',(0.,1.,0.));
#969=DIRECTION('',(0.,1.,0.));
#970=DIRECTION('',(0.,0.,1.));
#971=DIRECTION('',(0.,1.,0.));
#972=DIRECTION('',(0.,0.,1.));
#973=DIRECTION('',(0.,1.,0.));
#974=DIRECTION('',(0.,1.,0.));
#975=DIRECTION('',(2.71050543121376E-17,0.,1.));
#976=DIRECTION('',(1.,0.,-2.71050543121376E-17));
#977=DIRECTION('',(2.71050543121376E-16,0.,-1.));
#978=DIRECTION('',(-1.,0.,-2.71050543121376E-16));
#979=DIRECTION('',(-1.98770398289009E-16,1.,0.));
#980=DIRECTION('',(-1.,-1.98770398289009E-16,0.));
#981=DIRECTION('',(0.,0.,-1.));
#982=DIRECTION('',(1.44560289664734E-16,-1.,0.));
#983=DIRECTION('',(1.,1.44560289664734E-16,0.));
#984=DIRECTION('',(0.,0.,-1.));
#985=DIRECTION('',(0.,0.,-1.));
#986=DIRECTION('',(-1.,0.,0.));
#987=DIRECTION('',(0.,0.,-1.));
#988=DIRECTION('',(-1.,0.,0.));
#989=DIRECTION('',(0.,0.,-1.));
#990=DIRECTION('',(0.,0.,-1.));
#991=DIRECTION('',(1.44560289664734E-16,-1.,0.));
#992=DIRECTION('',(1.,1.44560289664734E-16,0.));
#993=DIRECTION('',(-1.98770398289009E-16,1.,0.));
#994=DIRECTION('',(-1.,-1.98770398289009E-16,0.));
#995=CARTESIAN_POINT('',(0.,0.,0.));
#996=CARTESIAN_POINT('',(-60.,0.,0.));
#997=CARTESIAN_POINT('',(-60.,0.39999999999999,2.56904651573304));
#998=CARTESIAN_POINT('',(7.9,0.39999999999999,2.56904651573304));
#999=CARTESIAN_POINT('',(7.3,0.4,2.56904651573304));
#1000=CARTESIAN_POINT('',(7.9,0.,0.));
#1001=CARTESIAN_POINT('',(7.9,0.39999999999999,-2.56904651573304));
#1002=CARTESIAN_POINT('',(-60.,0.39999999999999,-2.56904651573304));
#1003=CARTESIAN_POINT('',(7.2999999999954,0.4,-2.56904651576061));
#1004=CARTESIAN_POINT('',(7.3,0.,0.));
#1005=CARTESIAN_POINT('',(-60.,0.,0.));
#1006=CARTESIAN_POINT('',(-60.,-0.400000000000014,-2.56904651573303));
#1007=CARTESIAN_POINT('',(7.9,-0.400000000000014,-2.56904651573303));
#1008=CARTESIAN_POINT('',(7.3,-0.4,-2.56904651573303));
#1009=CARTESIAN_POINT('',(7.9,0.,0.));
#1010=CARTESIAN_POINT('',(7.9,-0.400000000000014,2.56904651573303));
#1011=CARTESIAN_POINT('',(-60.,-0.400000000000014,2.56904651573303));
#1012=CARTESIAN_POINT('',(7.3,-0.4,2.56904651573308));
#1013=CARTESIAN_POINT('',(7.3,0.,0.));
#1014=CARTESIAN_POINT('',(7.2,0.,2.60000000000001));
#1015=CARTESIAN_POINT('',(7.2,0.4,2.60000000000001));
#1016=CARTESIAN_POINT('',(7.19999999999999,0.4,2.46779253585062));
#1017=CARTESIAN_POINT('',(7.2,0.4,2.36643191323985));
#1018=CARTESIAN_POINT('',(7.2,0.,0.));
#1019=CARTESIAN_POINT('',(7.19999999999441,0.4,-2.46779253584986));
#1020=CARTESIAN_POINT('',(7.2,0.4,2.60000000000001));
#1021=CARTESIAN_POINT('',(7.2,0.4,-2.36643191323985));
#1022=CARTESIAN_POINT('',(7.2,0.,0.));
#1023=CARTESIAN_POINT('',(7.2,0.,2.60000000000001));
#1024=CARTESIAN_POINT('',(7.2,-0.4,2.60000000000001));
#1025=CARTESIAN_POINT('',(7.2,-0.4,-2.46779253585062));
#1026=CARTESIAN_POINT('',(7.2,-0.4,-2.36643191323985));
#1027=CARTESIAN_POINT('',(7.2,0.,0.));
#1028=CARTESIAN_POINT('',(7.2,-0.4,2.46779253585062));
#1029=CARTESIAN_POINT('',(7.2,-0.4,2.60000000000001));
#1030=CARTESIAN_POINT('',(7.2,-0.4,2.36643191323985));
#1031=CARTESIAN_POINT('',(7.2,0.,0.));
#1032=CARTESIAN_POINT('',(-60.,0.,0.));
#1033=CARTESIAN_POINT('',(0.800000000000002,0.,0.));
#1034=CARTESIAN_POINT('',(0.800000000000002,0.,2.4));
#1035=CARTESIAN_POINT('',(-60.,0.39999999999999,-2.36643191323985));
#1036=CARTESIAN_POINT('',(5.,0.4,-2.36643191323985));
#1037=CARTESIAN_POINT('',(5.,-0.400000000000001,-2.36643191323985));
#1038=CARTESIAN_POINT('',(4.78822268583313,-0.400000000000001,-2.36643191323985));
#1039=CARTESIAN_POINT('',(4.41177762092904,-0.000615622984669176,-2.43356804728185));
#1040=CARTESIAN_POINT('',(4.78822254604844,0.4,-2.36643191323985));
#1041=CARTESIAN_POINT('',(5.,0.4,-2.36643191323985));
#1042=CARTESIAN_POINT('',(5.,-0.400000000000001,-2.36643191323985));
#1043=CARTESIAN_POINT('',(-60.,-0.400000000000014,-2.36643191323984));
#1044=CARTESIAN_POINT('',(-60.,-0.400000000000014,2.36643191323984));
#1045=CARTESIAN_POINT('',(5.,-0.400000000000001,2.36643191323984));
#1046=CARTESIAN_POINT('',(5.,0.4,2.36643191323985));
#1047=CARTESIAN_POINT('',(4.78822268583313,0.4,2.36643191323985));
#1048=CARTESIAN_POINT('',(4.41177762092904,0.000615622984668335,2.43356804728185));
#1049=CARTESIAN_POINT('',(4.78822254604844,-0.400000000000002,2.36643191323985));
#1050=CARTESIAN_POINT('',(5.,-0.400000000000001,2.36643191323985));
#1051=CARTESIAN_POINT('',(5.,0.4,2.36643191323985));
#1052=CARTESIAN_POINT('',(-60.,0.39999999999999,2.36643191323985));
#1053=CARTESIAN_POINT('',(-60.,0.,0.));
#1054=CARTESIAN_POINT('',(-1.99805028018158,-1.95959179422655,-0.4));
#1055=CARTESIAN_POINT('',(-1.7860984418222,-1.95959179422655,-0.4));
#1056=CARTESIAN_POINT('',(-1.41000307223477,-2.04040815308719,-0.000649222677644851));
#1057=CARTESIAN_POINT('',(-1.78609706129728,-1.95959179422657,0.400000000000002));
#1058=CARTESIAN_POINT('',(-1.99805028018158,-1.95959179422657,0.400000000000001));
#1059=CARTESIAN_POINT('',(-1.99805028018158,-1.95959179422655,-0.4));
#1060=CARTESIAN_POINT('',(-1.99805028018158,-1.95959179422655,0.4));
#1061=CARTESIAN_POINT('',(-60.,-1.95959179422655,0.400000000000001));
#1062=CARTESIAN_POINT('',(-3.99805028018158,-1.95959179422655,0.4));
#1063=CARTESIAN_POINT('',(-3.99805028018158,0.,0.));
#1064=CARTESIAN_POINT('',(-3.99805028018158,1.95959179422655,0.4));
#1065=CARTESIAN_POINT('',(-60.,1.95959179422655,0.400000000000001));
#1066=CARTESIAN_POINT('',(-1.99805028018158,1.95959179422655,0.4));
#1067=CARTESIAN_POINT('',(-1.99805028018158,1.95959179422655,0.399999999999999));
#1068=CARTESIAN_POINT('',(-1.7860984418222,1.95959179422655,0.399999999999999));
#1069=CARTESIAN_POINT('',(-1.41000307223477,2.04040815308719,0.00064922267764374));
#1070=CARTESIAN_POINT('',(-1.78609706129728,1.95959179422657,-0.400000000000002));
#1071=CARTESIAN_POINT('',(-1.99805028018158,1.95959179422657,-0.400000000000002));
#1072=CARTESIAN_POINT('',(-1.99805028018158,1.95959179422655,-0.4));
#1073=CARTESIAN_POINT('',(-60.,1.95959179422655,-0.400000000000016));
#1074=CARTESIAN_POINT('',(-3.99805028018158,1.95959179422655,-0.400000000000001));
#1075=CARTESIAN_POINT('',(-3.99805028018158,0.,0.));
#1076=CARTESIAN_POINT('',(-3.99805028018158,-1.95959179422655,-0.400000000000001));
#1077=CARTESIAN_POINT('',(-60.,-1.95959179422655,-0.400000000000016));
#1078=CARTESIAN_POINT('',(-60.,0.39999999999999,-1.95959179422655));
#1079=CARTESIAN_POINT('',(8.,0.4,-1.95959179422655));
#1080=CARTESIAN_POINT('',(5.,0.4,-1.95959179422655));
#1081=CARTESIAN_POINT('',(8.00000000000001,0.,0.));
#1082=CARTESIAN_POINT('',(8.,0.4,1.95959179422655));
#1083=CARTESIAN_POINT('',(-60.,0.39999999999999,1.95959179422655));
#1084=CARTESIAN_POINT('',(5.,0.4,1.95959179422655));
#1085=CARTESIAN_POINT('',(5.,-0.400000000000001,1.95959179422655));
#1086=CARTESIAN_POINT('',(4.78804816164062,-0.400000000000001,1.95959179422655));
#1087=CARTESIAN_POINT('',(4.41195279205319,-0.000649222677645149,2.04040815308719));
#1088=CARTESIAN_POINT('',(4.78804678111569,0.400000000000002,1.95959179422657));
#1089=CARTESIAN_POINT('',(5.,0.400000000000001,1.95959179422657));
#1090=CARTESIAN_POINT('',(5.,-0.400000000000001,1.95959179422655));
#1091=CARTESIAN_POINT('',(-60.,-0.400000000000014,1.95959179422655));
#1092=CARTESIAN_POINT('',(8.,-0.4,1.95959179422655));
#1093=CARTESIAN_POINT('',(8.00000000000001,0.,0.));
#1094=CARTESIAN_POINT('',(8.,-0.4,-1.95959179422655));
#1095=CARTESIAN_POINT('',(-60.,-0.400000000000014,-1.95959179422655));
#1096=CARTESIAN_POINT('',(5.,-0.400000000000001,-1.95959179422655));
#1097=CARTESIAN_POINT('',(5.,0.4,-1.95959179422655));
#1098=CARTESIAN_POINT('',(4.78804816164062,0.4,-1.95959179422655));
#1099=CARTESIAN_POINT('',(4.41195279205319,0.000649222677644227,-2.04040815308719));
#1100=CARTESIAN_POINT('',(4.78804678111569,-0.400000000000003,-1.95959179422657));
#1101=CARTESIAN_POINT('',(5.,-0.400000000000003,-1.95959179422657));
#1102=CARTESIAN_POINT('',(8.,0.,2.60000000000001));
#1103=CARTESIAN_POINT('',(8.,-0.4,30.));
#1104=CARTESIAN_POINT('',(8.,-0.4,2.46779253585053));
#1105=CARTESIAN_POINT('',(8.,0.,0.));
#1106=CARTESIAN_POINT('',(8.,-0.4,-2.46779253585058));
#1107=CARTESIAN_POINT('',(8.,-0.4,30.));
#1108=CARTESIAN_POINT('',(7.9,0.,0.));
#1109=CARTESIAN_POINT('',(8.,0.,0.));
#1110=CARTESIAN_POINT('',(8.,0.4,-2.46779253586293));
#1111=CARTESIAN_POINT('',(8.,0.4,2.46779253585022));
#1112=CARTESIAN_POINT('',(8.,0.4,-2.46779253586293));
#1113=CARTESIAN_POINT('',(7.99999999999372,0.4,-2.52019355669786));
#1114=CARTESIAN_POINT('',(7.95240846365983,0.4,-2.56904651573304));
#1115=CARTESIAN_POINT('',(7.9,0.4,-2.56904651573304));
#1116=CARTESIAN_POINT('',(7.9,0.4,2.56904651573304));
#1117=CARTESIAN_POINT('',(7.95261664486176,0.4,2.56904651573304));
#1118=CARTESIAN_POINT('',(8.00000000000021,0.4,2.52086305322424));
#1119=CARTESIAN_POINT('',(8.,0.4,2.46779253585022));
#1120=CARTESIAN_POINT('',(7.9,0.,0.));
#1121=CARTESIAN_POINT('',(7.9,-0.4,-2.56904651573303));
#1122=CARTESIAN_POINT('',(7.9529019748141,-0.4,-2.56904651573303));
#1123=CARTESIAN_POINT('',(8.00000000000003,-0.4,-2.52052400323682));
#1124=CARTESIAN_POINT('',(8.00000000000001,-0.4,-2.46779253585057));
#1125=CARTESIAN_POINT('',(8.00000000000001,-0.4,2.46779253585053));
#1126=CARTESIAN_POINT('',(8.00000000000005,-0.4,2.52037523011863));
#1127=CARTESIAN_POINT('',(7.95250668972401,-0.4,2.56904651573304));
#1128=CARTESIAN_POINT('',(7.9,-0.4,2.56904651573304));
#1129=CARTESIAN_POINT('',(7.3,0.,0.));
#1130=CARTESIAN_POINT('',(7.29999999999508,0.4,-2.56904651573304));
#1131=CARTESIAN_POINT('',(7.24759219152565,0.4,-2.56904651573043));
#1132=CARTESIAN_POINT('',(7.19999999999952,0.4,-2.5202229465518));
#1133=CARTESIAN_POINT('',(7.2,0.4,-2.46779253584967));
#1134=CARTESIAN_POINT('',(7.2,0.4,2.46779253585062));
#1135=CARTESIAN_POINT('',(7.2,0.4,2.52050462829081));
#1136=CARTESIAN_POINT('',(7.24719913316779,0.4,2.56904651573303));
#1137=CARTESIAN_POINT('',(7.3,0.4,2.56904651573303));
#1138=CARTESIAN_POINT('',(7.3,0.,0.));
#1139=CARTESIAN_POINT('',(7.2,-0.4,-2.46779253585062));
#1140=CARTESIAN_POINT('',(7.2,-0.4,-2.52075757347657));
#1141=CARTESIAN_POINT('',(7.24700650369259,-0.4,-2.56904651573303));
#1142=CARTESIAN_POINT('',(7.3,-0.4,-2.56904651573303));
#1143=CARTESIAN_POINT('',(7.29999999999999,-0.4,2.56904651573304));
#1144=CARTESIAN_POINT('',(7.24738137953469,-0.4,2.56904651573303));
#1145=CARTESIAN_POINT('',(7.2,-0.4,2.52022003692084));
#1146=CARTESIAN_POINT('',(7.2,-0.4,2.46779253585062));
#1147=CARTESIAN_POINT('',(-3.19805028018158,0.,2.40000000000001));
#1148=CARTESIAN_POINT('',(-3.19805028018158,0.,0.));
#1149=CARTESIAN_POINT('',(-3.19805028018158,2.46779253585062,0.4));
#1150=CARTESIAN_POINT('',(-3.1980502801414,-2.46779253585733,0.4));
#1151=CARTESIAN_POINT('',(-3.19805028018158,0.,0.4));
#1152=CARTESIAN_POINT('',(-3.19805028018159,-2.36643191323985,0.4));
#1153=CARTESIAN_POINT('',(-3.19805028018159,0.,0.));
#1154=CARTESIAN_POINT('',(-3.19805028018159,2.36643191323985,0.4));
#1155=CARTESIAN_POINT('',(-3.19805028018158,0.,0.4));
#1156=CARTESIAN_POINT('',(-60.,0.,0.));
#1157=CARTESIAN_POINT('',(-3.29805028018158,0.,0.));
#1158=CARTESIAN_POINT('',(-3.29805028018158,-2.56904651573303,0.400000000000001));
#1159=CARTESIAN_POINT('',(-3.29805028018158,2.56904651573303,0.400000000000001));
#1160=CARTESIAN_POINT('',(-60.,2.56904651573303,0.400000000000001));
#1161=CARTESIAN_POINT('',(-3.89805028018178,2.56904651573453,0.4));
#1162=CARTESIAN_POINT('',(-3.89805028018159,0.,0.));
#1163=CARTESIAN_POINT('',(-3.89805028018159,-2.56904651573303,0.4));
#1164=CARTESIAN_POINT('',(-60.,-2.56904651573303,0.400000000000001));
#1165=CARTESIAN_POINT('',(-3.99805028018158,0.,2.00000000000001));
#1166=CARTESIAN_POINT('',(-3.99805028018158,-30.,0.4));
#1167=CARTESIAN_POINT('',(-3.99805028018158,-2.46779253585058,0.4));
#1168=CARTESIAN_POINT('',(-3.99805028018158,0.,0.));
#1169=CARTESIAN_POINT('',(-3.99805028018158,2.46779253585053,0.4));
#1170=CARTESIAN_POINT('',(-3.99805028018158,-30.,0.4));
#1171=CARTESIAN_POINT('',(-3.29805028018158,0.,0.));
#1172=CARTESIAN_POINT('',(-3.19805028018158,-2.46779253585752,0.4));
#1173=CARTESIAN_POINT('',(-3.19805028018511,-2.52019355669424,0.4));
#1174=CARTESIAN_POINT('',(-3.24564181651996,-2.56904651573304,0.4));
#1175=CARTESIAN_POINT('',(-3.29805028018158,-2.56904651573304,0.4));
#1176=CARTESIAN_POINT('',(-3.29805028018158,2.56904651573304,0.4));
#1177=CARTESIAN_POINT('',(-3.24543363531996,2.56904651573304,0.4));
#1178=CARTESIAN_POINT('',(-3.19805028018158,2.52086305322447,0.4));
#1179=CARTESIAN_POINT('',(-3.19805028018158,2.46779253585062,0.4));
#1180=CARTESIAN_POINT('',(-3.89805028018159,0.,0.));
#1181=CARTESIAN_POINT('',(-3.89805028018159,-2.56904651573303,0.4));
#1182=CARTESIAN_POINT('',(-3.95095225499569,-2.56904651573303,0.4));
#1183=CARTESIAN_POINT('',(-3.99805028018161,-2.52052400323683,0.4));
#1184=CARTESIAN_POINT('',(-3.99805028018159,-2.46779253585058,0.4));
#1185=CARTESIAN_POINT('',(-3.99805028018159,2.46779253585053,0.4));
#1186=CARTESIAN_POINT('',(-3.99805028018164,2.52037523011854,0.4));
#1187=CARTESIAN_POINT('',(-3.95055696990577,2.5690465157329,0.4));
#1188=CARTESIAN_POINT('',(-3.89805028018185,2.56904651573304,0.4));
#1189=CARTESIAN_POINT('',(0.799999999999999,0.,2.4));
#1190=CARTESIAN_POINT('',(0.799999999999999,0.,0.));
#1191=CARTESIAN_POINT('',(0.799999999999999,0.,3.));
#1192=CARTESIAN_POINT('',(-60.,0.,0.));
#1193=CARTESIAN_POINT('',(-0.698050280181585,0.,0.));
#1194=CARTESIAN_POINT('',(-0.698050280181585,0.,-3.1));
#1195=CARTESIAN_POINT('',(0.699999999999999,0.,0.));
#1196=CARTESIAN_POINT('',(0.699999999999999,0.,3.1));
#1197=CARTESIAN_POINT('',(-0.798050280181584,0.,3.1));
#1198=CARTESIAN_POINT('',(-0.798050280181584,0.,0.));
#1199=CARTESIAN_POINT('',(-0.798050280181584,0.,-3.));
#1200=CARTESIAN_POINT('',(-0.798050280181581,0.,0.));
#1201=CARTESIAN_POINT('',(-0.798050280181581,0.,2.40000000000001));
#1202=CARTESIAN_POINT('',(-60.,0.,0.));
#1203=CARTESIAN_POINT('',(-60.,-2.36643191323985,0.400000000000001));
#1204=CARTESIAN_POINT('',(-1.99805028018158,-2.36643191323985,0.4));
#1205=CARTESIAN_POINT('',(-1.99805028018158,-2.36643191323985,0.399999999999999));
#1206=CARTESIAN_POINT('',(-1.78627296601471,-2.36643191323985,0.399999999999999));
#1207=CARTESIAN_POINT('',(-1.40982790111062,-2.43356804728186,0.000615622984668064));
#1208=CARTESIAN_POINT('',(-1.78627282623002,-2.36643191323986,-0.400000000000001));
#1209=CARTESIAN_POINT('',(-1.99805028018158,-2.36643191323986,-0.400000000000001));
#1210=CARTESIAN_POINT('',(-1.99805028018158,-2.36643191323985,-0.4));
#1211=CARTESIAN_POINT('',(-60.,-2.36643191323985,-0.400000000000016));
#1212=CARTESIAN_POINT('',(-3.19805028018159,-2.36643191323985,-0.400000000000001));
#1213=CARTESIAN_POINT('',(-3.19805028018159,0.,0.));
#1214=CARTESIAN_POINT('',(-3.19805028018159,2.36643191323985,-0.400000000000001));
#1215=CARTESIAN_POINT('',(-60.,2.36643191323985,-0.400000000000016));
#1216=CARTESIAN_POINT('',(-1.99805028018158,2.36643191323985,-0.4));
#1217=CARTESIAN_POINT('',(-1.99805028018158,2.36643191323985,-0.4));
#1218=CARTESIAN_POINT('',(-1.78627296601471,2.36643191323985,-0.4));
#1219=CARTESIAN_POINT('',(-1.40982790111062,2.43356804728186,-0.000615622984668877));
#1220=CARTESIAN_POINT('',(-1.78627282623002,2.36643191323986,0.4));
#1221=CARTESIAN_POINT('',(-1.99805028018158,2.36643191323986,0.4));
#1222=CARTESIAN_POINT('',(-1.99805028018158,2.36643191323985,0.4));
#1223=CARTESIAN_POINT('',(-60.,2.36643191323985,0.400000000000001));
#1224=CARTESIAN_POINT('',(-3.19805028018158,0.,2.40000000000001));
#1225=CARTESIAN_POINT('',(-3.19805028018158,0.,0.));
#1226=CARTESIAN_POINT('',(-3.19805028018158,-2.46779253585062,-0.400000000000001));
#1227=CARTESIAN_POINT('',(-3.19805028018145,2.46779253585063,-0.400000000000001));
#1228=CARTESIAN_POINT('',(-3.19805028018158,0.,-0.400000000000001));
#1229=CARTESIAN_POINT('',(-3.19805028018158,0.,-0.400000000000001));
#1230=CARTESIAN_POINT('',(-60.,0.,0.));
#1231=CARTESIAN_POINT('',(-3.29805028018158,0.,0.));
#1232=CARTESIAN_POINT('',(-3.29805028018158,2.56904651573303,-0.400000000000016));
#1233=CARTESIAN_POINT('',(-3.29805028018158,-2.56904651573303,-0.400000000000016));
#1234=CARTESIAN_POINT('',(-60.,-2.56904651573303,-0.400000000000016));
#1235=CARTESIAN_POINT('',(-3.89805028017392,-2.56904651577693,-0.400000000000001));
#1236=CARTESIAN_POINT('',(-3.89805028018159,0.,0.));
#1237=CARTESIAN_POINT('',(-3.89805028018159,2.56904651573303,-0.400000000000001));
#1238=CARTESIAN_POINT('',(-60.,2.56904651573303,-0.400000000000016));
#1239=CARTESIAN_POINT('',(-3.99805028018158,0.,2.00000000000001));
#1240=CARTESIAN_POINT('',(-3.99805028018158,0.,0.));
#1241=CARTESIAN_POINT('',(-3.99805028018158,2.46779253585022,-0.400000000000001));
#1242=CARTESIAN_POINT('',(-3.99805028018158,-2.46779253585062,-0.400000000000001));
#1243=CARTESIAN_POINT('',(-3.99805028018158,-30.,-0.400000000000001));
#1244=CARTESIAN_POINT('',(-3.99805028018158,-30.,-0.400000000000001));
#1245=CARTESIAN_POINT('',(8.,0.,2.60000000000001));
#1246=CARTESIAN_POINT('',(8.,0.4,30.));
#1247=CARTESIAN_POINT('',(8.,0.4,30.));
#1248=CARTESIAN_POINT('',(0.699999999999999,0.,0.));
#1249=CARTESIAN_POINT('',(-3.29805028018158,0.,0.));
#1250=CARTESIAN_POINT('',(-3.29805028018158,-2.56904651573303,-0.400000000000001));
#1251=CARTESIAN_POINT('',(-3.2451483053675,-2.56904651573303,-0.400000000000001));
#1252=CARTESIAN_POINT('',(-3.19805028018158,-2.52052400323686,-0.400000000000001));
#1253=CARTESIAN_POINT('',(-3.19805028018158,-2.46779253585062,-0.400000000000001));
#1254=CARTESIAN_POINT('',(-3.19805028018158,2.46779253585064,-0.400000000000001));
#1255=CARTESIAN_POINT('',(-3.19805028018159,2.52037523011872,-0.400000000000001));
#1256=CARTESIAN_POINT('',(-3.24554359045762,2.56904651573304,-0.400000000000001));
#1257=CARTESIAN_POINT('',(-3.29805028018158,2.56904651573304,-0.400000000000001));
#1258=CARTESIAN_POINT('',(-3.89805028018159,0.,0.));
#1259=CARTESIAN_POINT('',(-3.99805028018159,-2.46779253585062,-0.400000000000001));
#1260=CARTESIAN_POINT('',(-3.99805028018159,-2.52019355669223,-0.400000000000001));
#1261=CARTESIAN_POINT('',(-3.95045874384031,-2.56904651573719,-0.400000000000001));
#1262=CARTESIAN_POINT('',(-3.89805028017376,-2.56904651573304,-0.400000000000001));
#1263=CARTESIAN_POINT('',(-3.89805028018159,2.56904651573304,-0.400000000000001));
#1264=CARTESIAN_POINT('',(-3.95066692504334,2.56904651573304,-0.400000000000001));
#1265=CARTESIAN_POINT('',(-3.99805028018179,2.52086305322423,-0.400000000000001));
#1266=CARTESIAN_POINT('',(-3.99805028018159,2.46779253585022,-0.400000000000001));
#1267=CARTESIAN_POINT('',(-0.698050280181585,0.,0.));
#1268=CARTESIAN_POINT('',(-3.99805028018158,-30.,0.4));
#1269=CARTESIAN_POINT('',(-1.99805028018158,-30.,0.4));
#1270=CARTESIAN_POINT('',(-1.99805028018158,-30.,-0.400000000000001));
#1271=CARTESIAN_POINT('',(-1.99805028018158,-30.,-0.4));
#1272=CARTESIAN_POINT('',(-1.99805028018158,-30.,-4.87890977618477E-16));
#1273=CARTESIAN_POINT('',(-1.99805028018158,-30.,-4.87890977618477E-16));
#1274=CARTESIAN_POINT('',(-1.99805028018158,-30.,0.4));
#1275=CARTESIAN_POINT('',(-1.99805028018158,-30.,-0.4));
#1276=CARTESIAN_POINT('',(-3.99805028018158,-30.,0.4));
#1277=CARTESIAN_POINT('',(-1.99805028018158,-30.,-0.400000000000001));
#1278=CARTESIAN_POINT('',(5.,-0.400000000000001,30.));
#1279=CARTESIAN_POINT('',(5.,-0.400000000000001,30.));
#1280=CARTESIAN_POINT('',(8.,0.4,30.));
#1281=CARTESIAN_POINT('',(5.,0.4,30.));
#1282=CARTESIAN_POINT('',(5.,-5.96311194867027E-16,30.));
#1283=CARTESIAN_POINT('',(5.,-5.96311194867027E-16,30.));
#1284=CARTESIAN_POINT('',(5.,0.4,30.));
#1285=CARTESIAN_POINT('',(5.,-0.400000000000001,30.));
#1286=CARTESIAN_POINT('',(8.,0.4,30.));
#1287=CARTESIAN_POINT('',(5.,-0.400000000000001,30.));
#1288=MECHANICAL_DESIGN_GEOMETRIC_PRESENTATION_REPRESENTATION('',(#723),
#1289);
#1289=(
GEOMETRIC_REPRESENTATION_CONTEXT(3)
GLOBAL_UNCERTAINTY_ASSIGNED_CONTEXT((#1290))
GLOBAL_UNIT_ASSIGNED_CONTEXT((#1293,#1292,#1291))
REPRESENTATION_CONTEXT('Sand_6013938_MCM','TOP_LEVEL_ASSEMBLY_PART')
);
#1290=UNCERTAINTY_MEASURE_WITH_UNIT(LENGTH_MEASURE(0.005),#1293,
'DISTANCE_ACCURACY_VALUE','Maximum Tolerance applied to model');
#1291=(
NAMED_UNIT(*)
SI_UNIT($,.STERADIAN.)
SOLID_ANGLE_UNIT()
);
#1292=(
NAMED_UNIT(*)
PLANE_ANGLE_UNIT()
SI_UNIT($,.RADIAN.)
);
#1293=(
LENGTH_UNIT()
NAMED_UNIT(*)
SI_UNIT(.MILLI.,.METRE.)
);
#1294=PRODUCT_DEFINITION_SHAPE('','',#1295);
#1295=PRODUCT_DEFINITION('','',#1297,#1296);
#1296=PRODUCT_DEFINITION_CONTEXT('',#1303,'design');
#1297=PRODUCT_DEFINITION_FORMATION_WITH_SPECIFIED_SOURCE('','',#1299,
 .NOT_KNOWN.);
#1298=PRODUCT_RELATED_PRODUCT_CATEGORY('','',(#1299));
#1299=PRODUCT('Sand_6013938_MCM','Sand_6013938_MCM','Sand_6013938_MCM',
(#1301));
#1300=PRODUCT_CATEGORY('','');
#1301=PRODUCT_CONTEXT('',#1303,'mechanical');
#1302=APPLICATION_PROTOCOL_DEFINITION('international standard',
'automotive_design',2010,#1303);
#1303=APPLICATION_CONTEXT(
'core data for automotive mechanical design processes');
ENDSEC;
END-ISO-10303-21;
