ISO-10303-21;
HEADER;
/* Generated by software containing ST-Developer
 * from STEP Tools, Inc. (www.steptools.com) 
 */
/* OPTION: strings as raw bytes, not using required /X/ escapes */

FILE_DESCRIPTION(
/* description */ ('Unknown'),
/* implementation_level */ '2;1');

FILE_NAME(
/* name */ 'Sand_6031821_JCA',
/* time_stamp */ '2025-07-22T00:05:27+02:00',
/* author */ ('Unknown'),
/* organization */ ('Unknown'),
/* preprocessor_version */ 'ST-DEVELOPER v19.4',
/* originating_system */ 'Solid Edge',
/* authorisation */ 'Unknown');

FILE_SCHEMA (('AUTOMOTIVE_DESIGN {1 0 10303 214 3 1 1}'));
ENDSEC;

DATA;
#10=PROPERTY_DEFINITION_REPRESENTATION(#14,#12);
#11=PROPERTY_DEFINITION_REPRESENTATION(#15,#13);
#12=REPRESENTATION('',(#16),#1677);
#13=REPRESENTATION('',(#17),#1677);
#14=PROPERTY_DEFINITION('pmi validation property','',#1682);
#15=PROPERTY_DEFINITION('pmi validation property','',#1682);
#16=VALUE_REPRESENTATION_ITEM('number of annotations',COUNT_MEASURE(0.));
#17=VALUE_REPRESENTATION_ITEM('number of views',COUNT_MEASURE(0.));
#18=SHAPE_REPRESENTATION_RELATIONSHIP('','',#879,#19);
#19=ADVANCED_BREP_SHAPE_REPRESENTATION('',(#877),#1677);
#20=(
BOUNDED_SURFACE()
B_SPLINE_SURFACE(3,2,((#1453,#1454,#1455),(#1456,#1457,#1458),(#1459,#1460,
#1461),(#1462,#1463,#1464),(#1465,#1466,#1467)),.UNSPECIFIED.,.F.,.F.,.F.)
B_SPLINE_SURFACE_WITH_KNOTS((4,1,4),(3,3),(0.,0.000629395742536669,0.00125879148507334),
(0.,1.),.UNSPECIFIED.)
GEOMETRIC_REPRESENTATION_ITEM()
RATIONAL_B_SPLINE_SURFACE(((1.,0.820922069065183,1.),(1.,0.820922114373313,
1.),(1.,0.927123650713694,1.),(1.,0.999999972735689,1.),(1.,1.,1.)))
REPRESENTATION_ITEM('')
SURFACE()
);
#21=(
BOUNDED_SURFACE()
B_SPLINE_SURFACE(3,2,((#1473,#1474,#1475),(#1476,#1477,#1478),(#1479,#1480,
#1481),(#1482,#1483,#1484),(#1485,#1486,#1487)),.UNSPECIFIED.,.F.,.F.,.F.)
B_SPLINE_SURFACE_WITH_KNOTS((4,1,4),(3,3),(2.71050543121376E-20,0.000629395742536669,
0.00125879148507334),(0.,1.),.UNSPECIFIED.)
GEOMETRIC_REPRESENTATION_ITEM()
RATIONAL_B_SPLINE_SURFACE(((1.,0.820922069065183,1.),(1.,0.820922114373112,
1.),(1.,0.927123650713934,1.),(1.,0.999999972735409,1.),(1.,1.,1.)))
REPRESENTATION_ITEM('')
SURFACE()
);
#22=(
BOUNDED_SURFACE()
B_SPLINE_SURFACE(3,2,((#1513,#1514,#1515),(#1516,#1517,#1518),(#1519,#1520,
#1521),(#1522,#1523,#1524),(#1525,#1526,#1527)),.UNSPECIFIED.,.F.,.F.,.F.)
B_SPLINE_SURFACE_WITH_KNOTS((4,1,4),(3,3),(0.,0.000629395742536669,0.00125879148507334),
(0.,1.),.UNSPECIFIED.)
GEOMETRIC_REPRESENTATION_ITEM()
RATIONAL_B_SPLINE_SURFACE(((1.,0.820922069065183,1.),(1.,0.820922114373207,
1.),(1.,0.927123650713887,1.),(1.,0.999999972735409,1.),(1.,1.,1.)))
REPRESENTATION_ITEM('')
SURFACE()
);
#23=(
BOUNDED_SURFACE()
B_SPLINE_SURFACE(3,2,((#1533,#1534,#1535),(#1536,#1537,#1538),(#1539,#1540,
#1541),(#1542,#1543,#1544),(#1545,#1546,#1547)),.UNSPECIFIED.,.F.,.F.,.F.)
B_SPLINE_SURFACE_WITH_KNOTS((4,1,4),(3,3),(0.,0.000629395742536669,0.00125879148507334),
(0.,1.),.UNSPECIFIED.)
GEOMETRIC_REPRESENTATION_ITEM()
RATIONAL_B_SPLINE_SURFACE(((1.,0.820922069065183,1.),(1.,0.820922114373337,
1.),(1.,0.927123650713682,1.),(1.,0.999999972735689,1.),(1.,1.,1.)))
REPRESENTATION_ITEM('')
SURFACE()
);
#24=(
BOUNDED_SURFACE()
B_SPLINE_SURFACE(3,2,((#1565,#1566,#1567),(#1568,#1569,#1570),(#1571,#1572,
#1573),(#1574,#1575,#1576),(#1577,#1578,#1579)),.UNSPECIFIED.,.F.,.F.,.F.)
B_SPLINE_SURFACE_WITH_KNOTS((4,1,4),(3,3),(0.,0.000629395742536669,0.00125879148507334),
(0.,1.),.UNSPECIFIED.)
GEOMETRIC_REPRESENTATION_ITEM()
RATIONAL_B_SPLINE_SURFACE(((1.,0.820922069065183,1.),(1.,0.820922114373337,
1.),(1.,0.927123650713682,1.),(1.,0.999999972735689,1.),(1.,1.,1.)))
REPRESENTATION_ITEM('')
SURFACE()
);
#25=(
BOUNDED_SURFACE()
B_SPLINE_SURFACE(3,2,((#1585,#1586,#1587),(#1588,#1589,#1590),(#1591,#1592,
#1593),(#1594,#1595,#1596),(#1597,#1598,#1599)),.UNSPECIFIED.,.F.,.F.,.F.)
B_SPLINE_SURFACE_WITH_KNOTS((4,1,4),(3,3),(0.,0.000629395742536669,0.00125879148507334),
(0.,1.),.UNSPECIFIED.)
GEOMETRIC_REPRESENTATION_ITEM()
RATIONAL_B_SPLINE_SURFACE(((1.,0.820922069065183,1.),(1.,0.820922114373337,
1.),(1.,0.927123650713822,1.),(1.,0.999999972735409,1.),(1.,1.,1.)))
REPRESENTATION_ITEM('')
SURFACE()
);
#26=(
BOUNDED_SURFACE()
B_SPLINE_SURFACE(3,2,((#1625,#1626,#1627),(#1628,#1629,#1630),(#1631,#1632,
#1633),(#1634,#1635,#1636),(#1637,#1638,#1639)),.UNSPECIFIED.,.F.,.F.,.F.)
B_SPLINE_SURFACE_WITH_KNOTS((4,1,4),(3,3),(0.,0.000629395742536669,0.00125879148507334),
(0.,1.),.UNSPECIFIED.)
GEOMETRIC_REPRESENTATION_ITEM()
RATIONAL_B_SPLINE_SURFACE(((1.,0.820922069065183,1.),(1.,0.820922114373337,
1.),(1.,0.927123650713822,1.),(1.,0.999999972735409,1.),(1.,1.,1.)))
REPRESENTATION_ITEM('')
SURFACE()
);
#27=(
BOUNDED_SURFACE()
B_SPLINE_SURFACE(3,2,((#1645,#1646,#1647),(#1648,#1649,#1650),(#1651,#1652,
#1653),(#1654,#1655,#1656),(#1657,#1658,#1659)),.UNSPECIFIED.,.F.,.F.,.F.)
B_SPLINE_SURFACE_WITH_KNOTS((4,1,4),(3,3),(0.,0.000629395742536669,0.00125879148507334),
(0.,1.),.UNSPECIFIED.)
GEOMETRIC_REPRESENTATION_ITEM()
RATIONAL_B_SPLINE_SURFACE(((1.,0.820922069065183,1.),(1.,0.820922114373218,
1.),(1.,0.927123650713741,1.),(1.,0.999999972735689,1.),(1.,1.,1.)))
REPRESENTATION_ITEM('')
SURFACE()
);
#28=B_SPLINE_CURVE_WITH_KNOTS('',3,(#1443,#1444,#1445,#1446,#1447),
 .UNSPECIFIED.,.F.,.F.,(4,1,4),(0.,0.000702119012608835,0.00140423802521767),
 .UNSPECIFIED.);
#29=B_SPLINE_CURVE_WITH_KNOTS('',3,(#1448,#1449,#1450,#1451,#1452),
 .UNSPECIFIED.,.F.,.F.,(4,1,4),(0.,0.000702119012608835,0.00140423802521767),
 .UNSPECIFIED.);
#30=B_SPLINE_CURVE_WITH_KNOTS('',3,(#1468,#1469,#1470,#1471,#1472),
 .UNSPECIFIED.,.F.,.F.,(4,1,4),(0.,0.000699507630806151,0.0013990152616123),
 .UNSPECIFIED.);
#31=B_SPLINE_CURVE_WITH_KNOTS('',3,(#1488,#1489,#1490,#1491,#1492),
 .UNSPECIFIED.,.F.,.F.,(4,1,4),(0.,0.000699507630806151,0.0013990152616123),
 .UNSPECIFIED.);
#32=B_SPLINE_CURVE_WITH_KNOTS('',3,(#1502,#1503,#1504,#1505,#1506),
 .UNSPECIFIED.,.F.,.F.,(4,1,4),(0.,0.000699507630806151,0.0013990152616123),
 .UNSPECIFIED.);
#33=B_SPLINE_CURVE_WITH_KNOTS('',3,(#1508,#1509,#1510,#1511,#1512),
 .UNSPECIFIED.,.F.,.F.,(4,1,4),(0.,0.000699507630806151,0.0013990152616123),
 .UNSPECIFIED.);
#34=B_SPLINE_CURVE_WITH_KNOTS('',3,(#1528,#1529,#1530,#1531,#1532),
 .UNSPECIFIED.,.F.,.F.,(4,1,4),(0.,0.000702119012608835,0.00140423802521767),
 .UNSPECIFIED.);
#35=B_SPLINE_CURVE_WITH_KNOTS('',3,(#1548,#1549,#1550,#1551,#1552),
 .UNSPECIFIED.,.F.,.F.,(4,1,4),(0.,0.000702119012608836,0.00140423802521767),
 .UNSPECIFIED.);
#36=B_SPLINE_CURVE_WITH_KNOTS('',3,(#1554,#1555,#1556,#1557,#1558),
 .UNSPECIFIED.,.F.,.F.,(4,1,4),(0.,0.000702119012608836,0.00140423802521767),
 .UNSPECIFIED.);
#37=B_SPLINE_CURVE_WITH_KNOTS('',3,(#1560,#1561,#1562,#1563,#1564),
 .UNSPECIFIED.,.F.,.F.,(4,1,4),(0.,0.000702119012608836,0.00140423802521767),
 .UNSPECIFIED.);
#38=B_SPLINE_CURVE_WITH_KNOTS('',3,(#1580,#1581,#1582,#1583,#1584),
 .UNSPECIFIED.,.F.,.F.,(4,1,4),(0.,0.000699507630806151,0.0013990152616123),
 .UNSPECIFIED.);
#39=B_SPLINE_CURVE_WITH_KNOTS('',3,(#1600,#1601,#1602,#1603,#1604),
 .UNSPECIFIED.,.F.,.F.,(4,1,4),(0.,0.000699507630806151,0.0013990152616123),
 .UNSPECIFIED.);
#40=B_SPLINE_CURVE_WITH_KNOTS('',3,(#1614,#1615,#1616,#1617,#1618),
 .UNSPECIFIED.,.F.,.F.,(4,1,4),(0.,0.000699507630806151,0.0013990152616123),
 .UNSPECIFIED.);
#41=B_SPLINE_CURVE_WITH_KNOTS('',3,(#1620,#1621,#1622,#1623,#1624),
 .UNSPECIFIED.,.F.,.F.,(4,1,4),(0.,0.000699507630806151,0.0013990152616123),
 .UNSPECIFIED.);
#42=B_SPLINE_CURVE_WITH_KNOTS('',3,(#1640,#1641,#1642,#1643,#1644),
 .UNSPECIFIED.,.F.,.F.,(4,1,4),(0.,0.000702119012608835,0.00140423802521767),
 .UNSPECIFIED.);
#43=B_SPLINE_CURVE_WITH_KNOTS('',3,(#1660,#1661,#1662,#1663,#1664),
 .UNSPECIFIED.,.F.,.F.,(4,1,4),(0.,0.000702119012608836,0.00140423802521767),
 .UNSPECIFIED.);
#44=TOROIDAL_SURFACE('',#940,3.,0.1);
#45=TOROIDAL_SURFACE('',#941,3.,0.1);
#46=TOROIDAL_SURFACE('',#956,1.6,0.8);
#47=TOROIDAL_SURFACE('',#961,1.3,0.8);
#48=TOROIDAL_SURFACE('',#963,1.3,0.8);
#49=TOROIDAL_SURFACE('',#967,1.6,0.8);
#50=TOROIDAL_SURFACE('',#968,1.6,0.8);
#51=TOROIDAL_SURFACE('',#973,1.3,0.8);
#52=TOROIDAL_SURFACE('',#975,1.3,0.8);
#53=TOROIDAL_SURFACE('',#979,1.6,0.8);
#54=CYLINDRICAL_SURFACE('',#899,3.1);
#55=CYLINDRICAL_SURFACE('',#907,2.4);
#56=CYLINDRICAL_SURFACE('',#911,2.4);
#57=CYLINDRICAL_SURFACE('',#915,2.4);
#58=CYLINDRICAL_SURFACE('',#919,2.4);
#59=CYLINDRICAL_SURFACE('',#930,0.5);
#60=CYLINDRICAL_SURFACE('',#932,0.5);
#61=CYLINDRICAL_SURFACE('',#934,0.5);
#62=CYLINDRICAL_SURFACE('',#936,0.5);
#63=CYLINDRICAL_SURFACE('',#938,0.1);
#64=CYLINDRICAL_SURFACE('',#942,0.1);
#65=CYLINDRICAL_SURFACE('',#944,0.1);
#66=CYLINDRICAL_SURFACE('',#946,0.1);
#67=CYLINDRICAL_SURFACE('',#948,0.1);
#68=CYLINDRICAL_SURFACE('',#950,0.1);
#69=CYLINDRICAL_SURFACE('',#952,0.1);
#70=CYLINDRICAL_SURFACE('',#954,0.1);
#71=CYLINDRICAL_SURFACE('',#957,0.8);
#72=CYLINDRICAL_SURFACE('',#959,0.8);
#73=CYLINDRICAL_SURFACE('',#965,0.8);
#74=CYLINDRICAL_SURFACE('',#966,0.8);
#75=CYLINDRICAL_SURFACE('',#969,0.8);
#76=CYLINDRICAL_SURFACE('',#971,0.8);
#77=CYLINDRICAL_SURFACE('',#977,0.8);
#78=CYLINDRICAL_SURFACE('',#978,0.8);
#79=CYLINDRICAL_SURFACE('',#980,2.);
#80=CYLINDRICAL_SURFACE('',#983,2.4);
#81=LINE('',#1258,#129);
#82=LINE('',#1262,#130);
#83=LINE('',#1270,#131);
#84=LINE('',#1274,#132);
#85=LINE('',#1282,#133);
#86=LINE('',#1286,#134);
#87=LINE('',#1294,#135);
#88=LINE('',#1298,#136);
#89=LINE('',#1312,#137);
#90=LINE('',#1314,#138);
#91=LINE('',#1316,#139);
#92=LINE('',#1318,#140);
#93=LINE('',#1320,#141);
#94=LINE('',#1322,#142);
#95=LINE('',#1324,#143);
#96=LINE('',#1328,#144);
#97=LINE('',#1330,#145);
#98=LINE('',#1332,#146);
#99=LINE('',#1334,#147);
#100=LINE('',#1336,#148);
#101=LINE('',#1338,#149);
#102=LINE('',#1340,#150);
#103=LINE('',#1342,#151);
#104=LINE('',#1346,#152);
#105=LINE('',#1348,#153);
#106=LINE('',#1350,#154);
#107=LINE('',#1352,#155);
#108=LINE('',#1354,#156);
#109=LINE('',#1356,#157);
#110=LINE('',#1358,#158);
#111=LINE('',#1360,#159);
#112=LINE('',#1364,#160);
#113=LINE('',#1366,#161);
#114=LINE('',#1368,#162);
#115=LINE('',#1370,#163);
#116=LINE('',#1372,#164);
#117=LINE('',#1374,#165);
#118=LINE('',#1376,#166);
#119=LINE('',#1378,#167);
#120=LINE('',#1382,#168);
#121=LINE('',#1384,#169);
#122=LINE('',#1389,#170);
#123=LINE('',#1393,#171);
#124=LINE('',#1397,#172);
#125=LINE('',#1401,#173);
#126=LINE('',#1405,#174);
#127=LINE('',#1409,#175);
#128=LINE('',#1413,#176);
#129=VECTOR('',#997,1000.);
#130=VECTOR('',#1000,1000.);
#131=VECTOR('',#1007,1000.);
#132=VECTOR('',#1010,1000.);
#133=VECTOR('',#1017,1000.);
#134=VECTOR('',#1020,1000.);
#135=VECTOR('',#1027,1000.);
#136=VECTOR('',#1030,1000.);
#137=VECTOR('',#1047,1000.);
#138=VECTOR('',#1048,1000.);
#139=VECTOR('',#1049,1000.);
#140=VECTOR('',#1052,1000.);
#141=VECTOR('',#1053,1000.);
#142=VECTOR('',#1054,1000.);
#143=VECTOR('',#1057,1000.);
#144=VECTOR('',#1060,1000.);
#145=VECTOR('',#1063,1000.);
#146=VECTOR('',#1064,1000.);
#147=VECTOR('',#1065,1000.);
#148=VECTOR('',#1068,1000.);
#149=VECTOR('',#1069,1000.);
#150=VECTOR('',#1070,1000.);
#151=VECTOR('',#1073,1000.);
#152=VECTOR('',#1076,1000.);
#153=VECTOR('',#1079,1000.);
#154=VECTOR('',#1080,1000.);
#155=VECTOR('',#1081,1000.);
#156=VECTOR('',#1084,1000.);
#157=VECTOR('',#1085,1000.);
#158=VECTOR('',#1086,1000.);
#159=VECTOR('',#1089,1000.);
#160=VECTOR('',#1092,1000.);
#161=VECTOR('',#1095,1000.);
#162=VECTOR('',#1096,1000.);
#163=VECTOR('',#1097,1000.);
#164=VECTOR('',#1100,1000.);
#165=VECTOR('',#1101,1000.);
#166=VECTOR('',#1102,1000.);
#167=VECTOR('',#1105,1000.);
#168=VECTOR('',#1108,1000.);
#169=VECTOR('',#1111,1000.);
#170=VECTOR('',#1114,1000.);
#171=VECTOR('',#1117,1000.);
#172=VECTOR('',#1120,1000.);
#173=VECTOR('',#1123,1000.);
#174=VECTOR('',#1126,1000.);
#175=VECTOR('',#1129,1000.);
#176=VECTOR('',#1132,1000.);
#177=ORIENTED_EDGE('',*,*,#417,.T.);
#178=ORIENTED_EDGE('',*,*,#418,.T.);
#179=ORIENTED_EDGE('',*,*,#419,.T.);
#180=ORIENTED_EDGE('',*,*,#420,.T.);
#181=ORIENTED_EDGE('',*,*,#421,.T.);
#182=ORIENTED_EDGE('',*,*,#422,.T.);
#183=ORIENTED_EDGE('',*,*,#423,.T.);
#184=ORIENTED_EDGE('',*,*,#424,.T.);
#185=ORIENTED_EDGE('',*,*,#425,.T.);
#186=ORIENTED_EDGE('',*,*,#426,.T.);
#187=ORIENTED_EDGE('',*,*,#427,.T.);
#188=ORIENTED_EDGE('',*,*,#428,.T.);
#189=ORIENTED_EDGE('',*,*,#429,.T.);
#190=ORIENTED_EDGE('',*,*,#430,.T.);
#191=ORIENTED_EDGE('',*,*,#431,.T.);
#192=ORIENTED_EDGE('',*,*,#432,.T.);
#193=ORIENTED_EDGE('',*,*,#433,.T.);
#194=ORIENTED_EDGE('',*,*,#434,.T.);
#195=ORIENTED_EDGE('',*,*,#435,.T.);
#196=ORIENTED_EDGE('',*,*,#436,.T.);
#197=ORIENTED_EDGE('',*,*,#437,.T.);
#198=ORIENTED_EDGE('',*,*,#438,.T.);
#199=ORIENTED_EDGE('',*,*,#439,.T.);
#200=ORIENTED_EDGE('',*,*,#440,.T.);
#201=ORIENTED_EDGE('',*,*,#441,.T.);
#202=ORIENTED_EDGE('',*,*,#442,.T.);
#203=ORIENTED_EDGE('',*,*,#443,.T.);
#204=ORIENTED_EDGE('',*,*,#444,.T.);
#205=ORIENTED_EDGE('',*,*,#445,.T.);
#206=ORIENTED_EDGE('',*,*,#446,.T.);
#207=ORIENTED_EDGE('',*,*,#447,.T.);
#208=ORIENTED_EDGE('',*,*,#448,.T.);
#209=ORIENTED_EDGE('',*,*,#438,.F.);
#210=ORIENTED_EDGE('',*,*,#449,.T.);
#211=ORIENTED_EDGE('',*,*,#450,.T.);
#212=ORIENTED_EDGE('',*,*,#451,.T.);
#213=ORIENTED_EDGE('',*,*,#440,.F.);
#214=ORIENTED_EDGE('',*,*,#452,.T.);
#215=ORIENTED_EDGE('',*,*,#453,.T.);
#216=ORIENTED_EDGE('',*,*,#454,.T.);
#217=ORIENTED_EDGE('',*,*,#418,.F.);
#218=ORIENTED_EDGE('',*,*,#455,.T.);
#219=ORIENTED_EDGE('',*,*,#456,.T.);
#220=ORIENTED_EDGE('',*,*,#457,.T.);
#221=ORIENTED_EDGE('',*,*,#420,.F.);
#222=ORIENTED_EDGE('',*,*,#458,.T.);
#223=ORIENTED_EDGE('',*,*,#459,.T.);
#224=ORIENTED_EDGE('',*,*,#460,.T.);
#225=ORIENTED_EDGE('',*,*,#422,.F.);
#226=ORIENTED_EDGE('',*,*,#461,.T.);
#227=ORIENTED_EDGE('',*,*,#462,.T.);
#228=ORIENTED_EDGE('',*,*,#463,.T.);
#229=ORIENTED_EDGE('',*,*,#424,.F.);
#230=ORIENTED_EDGE('',*,*,#464,.T.);
#231=ORIENTED_EDGE('',*,*,#465,.T.);
#232=ORIENTED_EDGE('',*,*,#466,.T.);
#233=ORIENTED_EDGE('',*,*,#426,.F.);
#234=ORIENTED_EDGE('',*,*,#467,.T.);
#235=ORIENTED_EDGE('',*,*,#468,.T.);
#236=ORIENTED_EDGE('',*,*,#469,.T.);
#237=ORIENTED_EDGE('',*,*,#428,.F.);
#238=ORIENTED_EDGE('',*,*,#470,.T.);
#239=ORIENTED_EDGE('',*,*,#471,.T.);
#240=ORIENTED_EDGE('',*,*,#472,.T.);
#241=ORIENTED_EDGE('',*,*,#430,.F.);
#242=ORIENTED_EDGE('',*,*,#473,.T.);
#243=ORIENTED_EDGE('',*,*,#474,.T.);
#244=ORIENTED_EDGE('',*,*,#475,.T.);
#245=ORIENTED_EDGE('',*,*,#432,.F.);
#246=ORIENTED_EDGE('',*,*,#476,.T.);
#247=ORIENTED_EDGE('',*,*,#477,.T.);
#248=ORIENTED_EDGE('',*,*,#478,.T.);
#249=ORIENTED_EDGE('',*,*,#434,.F.);
#250=ORIENTED_EDGE('',*,*,#479,.T.);
#251=ORIENTED_EDGE('',*,*,#480,.T.);
#252=ORIENTED_EDGE('',*,*,#481,.T.);
#253=ORIENTED_EDGE('',*,*,#436,.F.);
#254=ORIENTED_EDGE('',*,*,#482,.T.);
#255=ORIENTED_EDGE('',*,*,#483,.T.);
#256=ORIENTED_EDGE('',*,*,#484,.T.);
#257=ORIENTED_EDGE('',*,*,#485,.T.);
#258=ORIENTED_EDGE('',*,*,#486,.T.);
#259=ORIENTED_EDGE('',*,*,#487,.T.);
#260=ORIENTED_EDGE('',*,*,#488,.T.);
#261=ORIENTED_EDGE('',*,*,#489,.T.);
#262=ORIENTED_EDGE('',*,*,#490,.T.);
#263=ORIENTED_EDGE('',*,*,#491,.T.);
#264=ORIENTED_EDGE('',*,*,#492,.T.);
#265=ORIENTED_EDGE('',*,*,#493,.T.);
#266=ORIENTED_EDGE('',*,*,#494,.T.);
#267=ORIENTED_EDGE('',*,*,#495,.T.);
#268=ORIENTED_EDGE('',*,*,#496,.T.);
#269=ORIENTED_EDGE('',*,*,#497,.T.);
#270=ORIENTED_EDGE('',*,*,#466,.F.);
#271=ORIENTED_EDGE('',*,*,#498,.T.);
#272=ORIENTED_EDGE('',*,*,#467,.F.);
#273=ORIENTED_EDGE('',*,*,#427,.F.);
#274=ORIENTED_EDGE('',*,*,#475,.F.);
#275=ORIENTED_EDGE('',*,*,#499,.T.);
#276=ORIENTED_EDGE('',*,*,#476,.F.);
#277=ORIENTED_EDGE('',*,*,#433,.F.);
#278=ORIENTED_EDGE('',*,*,#448,.F.);
#279=ORIENTED_EDGE('',*,*,#500,.T.);
#280=ORIENTED_EDGE('',*,*,#449,.F.);
#281=ORIENTED_EDGE('',*,*,#439,.F.);
#282=ORIENTED_EDGE('',*,*,#457,.F.);
#283=ORIENTED_EDGE('',*,*,#501,.T.);
#284=ORIENTED_EDGE('',*,*,#458,.F.);
#285=ORIENTED_EDGE('',*,*,#421,.F.);
#286=ORIENTED_EDGE('',*,*,#463,.F.);
#287=ORIENTED_EDGE('',*,*,#502,.T.);
#288=ORIENTED_EDGE('',*,*,#464,.F.);
#289=ORIENTED_EDGE('',*,*,#425,.F.);
#290=ORIENTED_EDGE('',*,*,#443,.F.);
#291=ORIENTED_EDGE('',*,*,#445,.F.);
#292=ORIENTED_EDGE('',*,*,#417,.F.);
#293=ORIENTED_EDGE('',*,*,#442,.F.);
#294=ORIENTED_EDGE('',*,*,#469,.F.);
#295=ORIENTED_EDGE('',*,*,#503,.T.);
#296=ORIENTED_EDGE('',*,*,#470,.F.);
#297=ORIENTED_EDGE('',*,*,#429,.F.);
#298=ORIENTED_EDGE('',*,*,#472,.F.);
#299=ORIENTED_EDGE('',*,*,#504,.T.);
#300=ORIENTED_EDGE('',*,*,#473,.F.);
#301=ORIENTED_EDGE('',*,*,#431,.F.);
#302=ORIENTED_EDGE('',*,*,#478,.F.);
#303=ORIENTED_EDGE('',*,*,#505,.T.);
#304=ORIENTED_EDGE('',*,*,#479,.F.);
#305=ORIENTED_EDGE('',*,*,#435,.F.);
#306=ORIENTED_EDGE('',*,*,#481,.F.);
#307=ORIENTED_EDGE('',*,*,#506,.T.);
#308=ORIENTED_EDGE('',*,*,#446,.F.);
#309=ORIENTED_EDGE('',*,*,#437,.F.);
#310=ORIENTED_EDGE('',*,*,#451,.F.);
#311=ORIENTED_EDGE('',*,*,#507,.T.);
#312=ORIENTED_EDGE('',*,*,#452,.F.);
#313=ORIENTED_EDGE('',*,*,#441,.F.);
#314=ORIENTED_EDGE('',*,*,#454,.F.);
#315=ORIENTED_EDGE('',*,*,#508,.T.);
#316=ORIENTED_EDGE('',*,*,#455,.F.);
#317=ORIENTED_EDGE('',*,*,#419,.F.);
#318=ORIENTED_EDGE('',*,*,#460,.F.);
#319=ORIENTED_EDGE('',*,*,#509,.T.);
#320=ORIENTED_EDGE('',*,*,#461,.F.);
#321=ORIENTED_EDGE('',*,*,#423,.F.);
#322=ORIENTED_EDGE('',*,*,#510,.F.);
#323=ORIENTED_EDGE('',*,*,#480,.F.);
#324=ORIENTED_EDGE('',*,*,#511,.F.);
#325=ORIENTED_EDGE('',*,*,#491,.F.);
#326=ORIENTED_EDGE('',*,*,#506,.F.);
#327=ORIENTED_EDGE('',*,*,#510,.T.);
#328=ORIENTED_EDGE('',*,*,#512,.F.);
#329=ORIENTED_EDGE('',*,*,#511,.T.);
#330=ORIENTED_EDGE('',*,*,#505,.F.);
#331=ORIENTED_EDGE('',*,*,#513,.F.);
#332=ORIENTED_EDGE('',*,*,#512,.T.);
#333=ORIENTED_EDGE('',*,*,#490,.F.);
#334=ORIENTED_EDGE('',*,*,#514,.F.);
#335=ORIENTED_EDGE('',*,*,#447,.F.);
#336=ORIENTED_EDGE('',*,*,#513,.T.);
#337=ORIENTED_EDGE('',*,*,#477,.F.);
#338=ORIENTED_EDGE('',*,*,#515,.F.);
#339=ORIENTED_EDGE('',*,*,#492,.F.);
#340=ORIENTED_EDGE('',*,*,#514,.T.);
#341=ORIENTED_EDGE('',*,*,#489,.F.);
#342=ORIENTED_EDGE('',*,*,#516,.F.);
#343=ORIENTED_EDGE('',*,*,#500,.F.);
#344=ORIENTED_EDGE('',*,*,#515,.T.);
#345=ORIENTED_EDGE('',*,*,#499,.F.);
#346=ORIENTED_EDGE('',*,*,#517,.F.);
#347=ORIENTED_EDGE('',*,*,#493,.F.);
#348=ORIENTED_EDGE('',*,*,#516,.T.);
#349=ORIENTED_EDGE('',*,*,#488,.F.);
#350=ORIENTED_EDGE('',*,*,#518,.F.);
#351=ORIENTED_EDGE('',*,*,#450,.F.);
#352=ORIENTED_EDGE('',*,*,#517,.T.);
#353=ORIENTED_EDGE('',*,*,#474,.F.);
#354=ORIENTED_EDGE('',*,*,#519,.F.);
#355=ORIENTED_EDGE('',*,*,#494,.F.);
#356=ORIENTED_EDGE('',*,*,#507,.F.);
#357=ORIENTED_EDGE('',*,*,#518,.T.);
#358=ORIENTED_EDGE('',*,*,#520,.F.);
#359=ORIENTED_EDGE('',*,*,#519,.T.);
#360=ORIENTED_EDGE('',*,*,#504,.F.);
#361=ORIENTED_EDGE('',*,*,#521,.F.);
#362=ORIENTED_EDGE('',*,*,#520,.T.);
#363=ORIENTED_EDGE('',*,*,#487,.F.);
#364=ORIENTED_EDGE('',*,*,#522,.F.);
#365=ORIENTED_EDGE('',*,*,#453,.F.);
#366=ORIENTED_EDGE('',*,*,#521,.T.);
#367=ORIENTED_EDGE('',*,*,#471,.F.);
#368=ORIENTED_EDGE('',*,*,#523,.F.);
#369=ORIENTED_EDGE('',*,*,#495,.F.);
#370=ORIENTED_EDGE('',*,*,#508,.F.);
#371=ORIENTED_EDGE('',*,*,#522,.T.);
#372=ORIENTED_EDGE('',*,*,#524,.F.);
#373=ORIENTED_EDGE('',*,*,#523,.T.);
#374=ORIENTED_EDGE('',*,*,#503,.F.);
#375=ORIENTED_EDGE('',*,*,#525,.F.);
#376=ORIENTED_EDGE('',*,*,#524,.T.);
#377=ORIENTED_EDGE('',*,*,#486,.F.);
#378=ORIENTED_EDGE('',*,*,#526,.F.);
#379=ORIENTED_EDGE('',*,*,#456,.F.);
#380=ORIENTED_EDGE('',*,*,#525,.T.);
#381=ORIENTED_EDGE('',*,*,#468,.F.);
#382=ORIENTED_EDGE('',*,*,#527,.F.);
#383=ORIENTED_EDGE('',*,*,#496,.F.);
#384=ORIENTED_EDGE('',*,*,#526,.T.);
#385=ORIENTED_EDGE('',*,*,#485,.F.);
#386=ORIENTED_EDGE('',*,*,#528,.F.);
#387=ORIENTED_EDGE('',*,*,#501,.F.);
#388=ORIENTED_EDGE('',*,*,#527,.T.);
#389=ORIENTED_EDGE('',*,*,#498,.F.);
#390=ORIENTED_EDGE('',*,*,#529,.F.);
#391=ORIENTED_EDGE('',*,*,#497,.F.);
#392=ORIENTED_EDGE('',*,*,#528,.T.);
#393=ORIENTED_EDGE('',*,*,#484,.F.);
#394=ORIENTED_EDGE('',*,*,#530,.F.);
#395=ORIENTED_EDGE('',*,*,#459,.F.);
#396=ORIENTED_EDGE('',*,*,#529,.T.);
#397=ORIENTED_EDGE('',*,*,#465,.F.);
#398=ORIENTED_EDGE('',*,*,#531,.F.);
#399=ORIENTED_EDGE('',*,*,#482,.F.);
#400=ORIENTED_EDGE('',*,*,#509,.F.);
#401=ORIENTED_EDGE('',*,*,#530,.T.);
#402=ORIENTED_EDGE('',*,*,#532,.F.);
#403=ORIENTED_EDGE('',*,*,#531,.T.);
#404=ORIENTED_EDGE('',*,*,#502,.F.);
#405=ORIENTED_EDGE('',*,*,#533,.F.);
#406=ORIENTED_EDGE('',*,*,#532,.T.);
#407=ORIENTED_EDGE('',*,*,#483,.F.);
#408=ORIENTED_EDGE('',*,*,#533,.T.);
#409=ORIENTED_EDGE('',*,*,#462,.F.);
#410=ORIENTED_EDGE('',*,*,#534,.F.);
#411=ORIENTED_EDGE('',*,*,#535,.T.);
#412=ORIENTED_EDGE('',*,*,#536,.T.);
#413=ORIENTED_EDGE('',*,*,#444,.F.);
#414=ORIENTED_EDGE('',*,*,#534,.T.);
#415=ORIENTED_EDGE('',*,*,#536,.F.);
#416=ORIENTED_EDGE('',*,*,#535,.F.);
#417=EDGE_CURVE('',#537,#537,#609,.F.);
#418=EDGE_CURVE('',#538,#539,#610,.T.);
#419=EDGE_CURVE('',#539,#540,#611,.T.);
#420=EDGE_CURVE('',#540,#541,#81,.T.);
#421=EDGE_CURVE('',#541,#542,#612,.F.);
#422=EDGE_CURVE('',#542,#543,#82,.T.);
#423=EDGE_CURVE('',#543,#544,#613,.T.);
#424=EDGE_CURVE('',#544,#545,#614,.T.);
#425=EDGE_CURVE('',#545,#546,#615,.T.);
#426=EDGE_CURVE('',#546,#547,#83,.T.);
#427=EDGE_CURVE('',#547,#548,#616,.F.);
#428=EDGE_CURVE('',#548,#549,#84,.T.);
#429=EDGE_CURVE('',#549,#550,#617,.T.);
#430=EDGE_CURVE('',#550,#551,#618,.T.);
#431=EDGE_CURVE('',#551,#552,#619,.T.);
#432=EDGE_CURVE('',#552,#553,#85,.T.);
#433=EDGE_CURVE('',#553,#554,#620,.F.);
#434=EDGE_CURVE('',#554,#555,#86,.T.);
#435=EDGE_CURVE('',#555,#556,#621,.T.);
#436=EDGE_CURVE('',#556,#557,#622,.T.);
#437=EDGE_CURVE('',#557,#558,#623,.T.);
#438=EDGE_CURVE('',#558,#559,#87,.T.);
#439=EDGE_CURVE('',#559,#560,#624,.F.);
#440=EDGE_CURVE('',#560,#561,#88,.T.);
#441=EDGE_CURVE('',#561,#538,#625,.T.);
#442=EDGE_CURVE('',#562,#562,#626,.T.);
#443=EDGE_CURVE('',#563,#563,#627,.T.);
#444=EDGE_CURVE('',#564,#564,#628,.T.);
#445=EDGE_CURVE('',#565,#565,#629,.F.);
#446=EDGE_CURVE('',#558,#566,#89,.F.);
#447=EDGE_CURVE('',#566,#567,#90,.T.);
#448=EDGE_CURVE('',#567,#559,#91,.T.);
#449=EDGE_CURVE('',#560,#568,#92,.F.);
#450=EDGE_CURVE('',#568,#569,#93,.T.);
#451=EDGE_CURVE('',#569,#561,#94,.T.);
#452=EDGE_CURVE('',#538,#570,#95,.F.);
#453=EDGE_CURVE('',#570,#571,#630,.T.);
#454=EDGE_CURVE('',#571,#539,#96,.T.);
#455=EDGE_CURVE('',#540,#572,#97,.F.);
#456=EDGE_CURVE('',#572,#573,#98,.T.);
#457=EDGE_CURVE('',#573,#541,#99,.T.);
#458=EDGE_CURVE('',#542,#574,#100,.F.);
#459=EDGE_CURVE('',#574,#575,#101,.T.);
#460=EDGE_CURVE('',#575,#543,#102,.T.);
#461=EDGE_CURVE('',#544,#576,#103,.F.);
#462=EDGE_CURVE('',#576,#577,#631,.T.);
#463=EDGE_CURVE('',#577,#545,#104,.T.);
#464=EDGE_CURVE('',#546,#578,#105,.F.);
#465=EDGE_CURVE('',#578,#579,#106,.T.);
#466=EDGE_CURVE('',#579,#547,#107,.T.);
#467=EDGE_CURVE('',#548,#580,#108,.F.);
#468=EDGE_CURVE('',#580,#581,#109,.T.);
#469=EDGE_CURVE('',#581,#549,#110,.T.);
#470=EDGE_CURVE('',#550,#582,#111,.F.);
#471=EDGE_CURVE('',#582,#583,#632,.T.);
#472=EDGE_CURVE('',#583,#551,#112,.T.);
#473=EDGE_CURVE('',#552,#584,#113,.F.);
#474=EDGE_CURVE('',#584,#585,#114,.T.);
#475=EDGE_CURVE('',#585,#553,#115,.T.);
#476=EDGE_CURVE('',#554,#586,#116,.F.);
#477=EDGE_CURVE('',#586,#587,#117,.T.);
#478=EDGE_CURVE('',#587,#555,#118,.T.);
#479=EDGE_CURVE('',#556,#588,#119,.F.);
#480=EDGE_CURVE('',#588,#589,#633,.T.);
#481=EDGE_CURVE('',#589,#557,#120,.T.);
#482=EDGE_CURVE('',#590,#591,#121,.F.);
#483=EDGE_CURVE('',#591,#592,#634,.F.);
#484=EDGE_CURVE('',#592,#593,#122,.F.);
#485=EDGE_CURVE('',#593,#594,#635,.T.);
#486=EDGE_CURVE('',#594,#595,#123,.F.);
#487=EDGE_CURVE('',#595,#596,#636,.F.);
#488=EDGE_CURVE('',#596,#597,#124,.F.);
#489=EDGE_CURVE('',#597,#598,#637,.T.);
#490=EDGE_CURVE('',#598,#599,#125,.F.);
#491=EDGE_CURVE('',#599,#600,#638,.F.);
#492=EDGE_CURVE('',#600,#601,#126,.F.);
#493=EDGE_CURVE('',#601,#602,#639,.T.);
#494=EDGE_CURVE('',#602,#603,#127,.F.);
#495=EDGE_CURVE('',#603,#604,#640,.F.);
#496=EDGE_CURVE('',#604,#605,#128,.F.);
#497=EDGE_CURVE('',#605,#590,#641,.T.);
#498=EDGE_CURVE('',#579,#580,#642,.F.);
#499=EDGE_CURVE('',#585,#586,#643,.F.);
#500=EDGE_CURVE('',#567,#568,#644,.F.);
#501=EDGE_CURVE('',#573,#574,#645,.F.);
#502=EDGE_CURVE('',#577,#578,#646,.T.);
#503=EDGE_CURVE('',#581,#582,#647,.T.);
#504=EDGE_CURVE('',#583,#584,#648,.T.);
#505=EDGE_CURVE('',#587,#588,#649,.T.);
#506=EDGE_CURVE('',#589,#566,#650,.T.);
#507=EDGE_CURVE('',#569,#570,#651,.T.);
#508=EDGE_CURVE('',#571,#572,#652,.T.);
#509=EDGE_CURVE('',#575,#576,#653,.T.);
#510=EDGE_CURVE('',#589,#599,#28,.T.);
#511=EDGE_CURVE('',#600,#588,#29,.F.);
#512=EDGE_CURVE('',#566,#599,#30,.T.);
#513=EDGE_CURVE('',#600,#587,#31,.F.);
#514=EDGE_CURVE('',#567,#598,#654,.T.);
#515=EDGE_CURVE('',#601,#586,#655,.T.);
#516=EDGE_CURVE('',#568,#597,#656,.T.);
#517=EDGE_CURVE('',#602,#585,#657,.T.);
#518=EDGE_CURVE('',#569,#596,#32,.T.);
#519=EDGE_CURVE('',#603,#584,#33,.F.);
#520=EDGE_CURVE('',#570,#596,#34,.T.);
#521=EDGE_CURVE('',#603,#583,#35,.F.);
#522=EDGE_CURVE('',#571,#595,#36,.T.);
#523=EDGE_CURVE('',#604,#582,#37,.F.);
#524=EDGE_CURVE('',#572,#595,#38,.T.);
#525=EDGE_CURVE('',#604,#581,#39,.F.);
#526=EDGE_CURVE('',#573,#594,#658,.T.);
#527=EDGE_CURVE('',#605,#580,#659,.T.);
#528=EDGE_CURVE('',#574,#593,#660,.T.);
#529=EDGE_CURVE('',#590,#579,#661,.T.);
#530=EDGE_CURVE('',#575,#592,#40,.T.);
#531=EDGE_CURVE('',#591,#578,#41,.F.);
#532=EDGE_CURVE('',#576,#592,#42,.T.);
#533=EDGE_CURVE('',#591,#577,#43,.F.);
#534=EDGE_CURVE('',#606,#606,#662,.T.);
#535=EDGE_CURVE('',#607,#607,#663,.T.);
#536=EDGE_CURVE('',#608,#608,#664,.T.);
#537=VERTEX_POINT('',#1252);
#538=VERTEX_POINT('',#1254);
#539=VERTEX_POINT('',#1255);
#540=VERTEX_POINT('',#1257);
#541=VERTEX_POINT('',#1259);
#542=VERTEX_POINT('',#1261);
#543=VERTEX_POINT('',#1263);
#544=VERTEX_POINT('',#1265);
#545=VERTEX_POINT('',#1267);
#546=VERTEX_POINT('',#1269);
#547=VERTEX_POINT('',#1271);
#548=VERTEX_POINT('',#1273);
#549=VERTEX_POINT('',#1275);
#550=VERTEX_POINT('',#1277);
#551=VERTEX_POINT('',#1279);
#552=VERTEX_POINT('',#1281);
#553=VERTEX_POINT('',#1283);
#554=VERTEX_POINT('',#1285);
#555=VERTEX_POINT('',#1287);
#556=VERTEX_POINT('',#1289);
#557=VERTEX_POINT('',#1291);
#558=VERTEX_POINT('',#1293);
#559=VERTEX_POINT('',#1295);
#560=VERTEX_POINT('',#1297);
#561=VERTEX_POINT('',#1299);
#562=VERTEX_POINT('',#1303);
#563=VERTEX_POINT('',#1305);
#564=VERTEX_POINT('',#1308);
#565=VERTEX_POINT('',#1310);
#566=VERTEX_POINT('',#1313);
#567=VERTEX_POINT('',#1315);
#568=VERTEX_POINT('',#1319);
#569=VERTEX_POINT('',#1321);
#570=VERTEX_POINT('',#1325);
#571=VERTEX_POINT('',#1327);
#572=VERTEX_POINT('',#1331);
#573=VERTEX_POINT('',#1333);
#574=VERTEX_POINT('',#1337);
#575=VERTEX_POINT('',#1339);
#576=VERTEX_POINT('',#1343);
#577=VERTEX_POINT('',#1345);
#578=VERTEX_POINT('',#1349);
#579=VERTEX_POINT('',#1351);
#580=VERTEX_POINT('',#1355);
#581=VERTEX_POINT('',#1357);
#582=VERTEX_POINT('',#1361);
#583=VERTEX_POINT('',#1363);
#584=VERTEX_POINT('',#1367);
#585=VERTEX_POINT('',#1369);
#586=VERTEX_POINT('',#1373);
#587=VERTEX_POINT('',#1375);
#588=VERTEX_POINT('',#1379);
#589=VERTEX_POINT('',#1381);
#590=VERTEX_POINT('',#1385);
#591=VERTEX_POINT('',#1386);
#592=VERTEX_POINT('',#1388);
#593=VERTEX_POINT('',#1390);
#594=VERTEX_POINT('',#1392);
#595=VERTEX_POINT('',#1394);
#596=VERTEX_POINT('',#1396);
#597=VERTEX_POINT('',#1398);
#598=VERTEX_POINT('',#1400);
#599=VERTEX_POINT('',#1402);
#600=VERTEX_POINT('',#1404);
#601=VERTEX_POINT('',#1406);
#602=VERTEX_POINT('',#1408);
#603=VERTEX_POINT('',#1410);
#604=VERTEX_POINT('',#1412);
#605=VERTEX_POINT('',#1414);
#606=VERTEX_POINT('',#1668);
#607=VERTEX_POINT('',#1670);
#608=VERTEX_POINT('',#1673);
#609=CIRCLE('',#882,3.);
#610=CIRCLE('',#883,2.4);
#611=CIRCLE('',#884,0.1);
#612=CIRCLE('',#885,0.5);
#613=CIRCLE('',#886,0.1);
#614=CIRCLE('',#887,2.4);
#615=CIRCLE('',#888,0.1);
#616=CIRCLE('',#889,0.5);
#617=CIRCLE('',#890,0.1);
#618=CIRCLE('',#891,2.4);
#619=CIRCLE('',#892,0.1);
#620=CIRCLE('',#893,0.5);
#621=CIRCLE('',#894,0.1);
#622=CIRCLE('',#895,2.4);
#623=CIRCLE('',#896,0.1);
#624=CIRCLE('',#897,0.5);
#625=CIRCLE('',#898,0.1);
#626=CIRCLE('',#900,3.1);
#627=CIRCLE('',#901,3.1);
#628=CIRCLE('',#903,2.4);
#629=CIRCLE('',#904,3.);
#630=CIRCLE('',#908,2.4);
#631=CIRCLE('',#912,2.4);
#632=CIRCLE('',#916,2.4);
#633=CIRCLE('',#920,2.4);
#634=CIRCLE('',#922,1.6);
#635=CIRCLE('',#923,1.3);
#636=CIRCLE('',#924,1.6);
#637=CIRCLE('',#925,1.3);
#638=CIRCLE('',#926,1.6);
#639=CIRCLE('',#927,1.3);
#640=CIRCLE('',#928,1.6);
#641=CIRCLE('',#929,1.3);
#642=CIRCLE('',#931,0.5);
#643=CIRCLE('',#933,0.5);
#644=CIRCLE('',#935,0.5);
#645=CIRCLE('',#937,0.5);
#646=CIRCLE('',#939,0.1);
#647=CIRCLE('',#943,0.1);
#648=CIRCLE('',#945,0.1);
#649=CIRCLE('',#947,0.1);
#650=CIRCLE('',#949,0.1);
#651=CIRCLE('',#951,0.1);
#652=CIRCLE('',#953,0.1);
#653=CIRCLE('',#955,0.1);
#654=CIRCLE('',#958,0.8);
#655=CIRCLE('',#960,0.8);
#656=CIRCLE('',#962,0.8);
#657=CIRCLE('',#964,0.8);
#658=CIRCLE('',#970,0.8);
#659=CIRCLE('',#972,0.8);
#660=CIRCLE('',#974,0.8);
#661=CIRCLE('',#976,0.8);
#662=CIRCLE('',#981,2.);
#663=CIRCLE('',#982,2.);
#664=CIRCLE('',#984,2.4);
#665=EDGE_LOOP('',(#177));
#666=EDGE_LOOP('',(#178,#179,#180,#181,#182,#183,#184,#185,#186,#187,#188,
#189,#190,#191,#192,#193,#194,#195,#196,#197,#198,#199,#200,#201));
#667=EDGE_LOOP('',(#202));
#668=EDGE_LOOP('',(#203));
#669=EDGE_LOOP('',(#204));
#670=EDGE_LOOP('',(#205));
#671=EDGE_LOOP('',(#206,#207,#208,#209));
#672=EDGE_LOOP('',(#210,#211,#212,#213));
#673=EDGE_LOOP('',(#214,#215,#216,#217));
#674=EDGE_LOOP('',(#218,#219,#220,#221));
#675=EDGE_LOOP('',(#222,#223,#224,#225));
#676=EDGE_LOOP('',(#226,#227,#228,#229));
#677=EDGE_LOOP('',(#230,#231,#232,#233));
#678=EDGE_LOOP('',(#234,#235,#236,#237));
#679=EDGE_LOOP('',(#238,#239,#240,#241));
#680=EDGE_LOOP('',(#242,#243,#244,#245));
#681=EDGE_LOOP('',(#246,#247,#248,#249));
#682=EDGE_LOOP('',(#250,#251,#252,#253));
#683=EDGE_LOOP('',(#254,#255,#256,#257,#258,#259,#260,#261,#262,#263,#264,
#265,#266,#267,#268,#269));
#684=EDGE_LOOP('',(#270,#271,#272,#273));
#685=EDGE_LOOP('',(#274,#275,#276,#277));
#686=EDGE_LOOP('',(#278,#279,#280,#281));
#687=EDGE_LOOP('',(#282,#283,#284,#285));
#688=EDGE_LOOP('',(#286,#287,#288,#289));
#689=EDGE_LOOP('',(#290));
#690=EDGE_LOOP('',(#291));
#691=EDGE_LOOP('',(#292));
#692=EDGE_LOOP('',(#293));
#693=EDGE_LOOP('',(#294,#295,#296,#297));
#694=EDGE_LOOP('',(#298,#299,#300,#301));
#695=EDGE_LOOP('',(#302,#303,#304,#305));
#696=EDGE_LOOP('',(#306,#307,#308,#309));
#697=EDGE_LOOP('',(#310,#311,#312,#313));
#698=EDGE_LOOP('',(#314,#315,#316,#317));
#699=EDGE_LOOP('',(#318,#319,#320,#321));
#700=EDGE_LOOP('',(#322,#323,#324,#325));
#701=EDGE_LOOP('',(#326,#327,#328));
#702=EDGE_LOOP('',(#329,#330,#331));
#703=EDGE_LOOP('',(#332,#333,#334,#335));
#704=EDGE_LOOP('',(#336,#337,#338,#339));
#705=EDGE_LOOP('',(#340,#341,#342,#343));
#706=EDGE_LOOP('',(#344,#345,#346,#347));
#707=EDGE_LOOP('',(#348,#349,#350,#351));
#708=EDGE_LOOP('',(#352,#353,#354,#355));
#709=EDGE_LOOP('',(#356,#357,#358));
#710=EDGE_LOOP('',(#359,#360,#361));
#711=EDGE_LOOP('',(#362,#363,#364,#365));
#712=EDGE_LOOP('',(#366,#367,#368,#369));
#713=EDGE_LOOP('',(#370,#371,#372));
#714=EDGE_LOOP('',(#373,#374,#375));
#715=EDGE_LOOP('',(#376,#377,#378,#379));
#716=EDGE_LOOP('',(#380,#381,#382,#383));
#717=EDGE_LOOP('',(#384,#385,#386,#387));
#718=EDGE_LOOP('',(#388,#389,#390,#391));
#719=EDGE_LOOP('',(#392,#393,#394,#395));
#720=EDGE_LOOP('',(#396,#397,#398,#399));
#721=EDGE_LOOP('',(#400,#401,#402));
#722=EDGE_LOOP('',(#403,#404,#405));
#723=EDGE_LOOP('',(#406,#407,#408,#409));
#724=EDGE_LOOP('',(#410));
#725=EDGE_LOOP('',(#411));
#726=EDGE_LOOP('',(#412));
#727=EDGE_LOOP('',(#413));
#728=EDGE_LOOP('',(#414));
#729=EDGE_LOOP('',(#415));
#730=EDGE_LOOP('',(#416));
#731=FACE_BOUND('',#665,.T.);
#732=FACE_BOUND('',#666,.T.);
#733=FACE_BOUND('',#667,.T.);
#734=FACE_BOUND('',#668,.T.);
#735=FACE_BOUND('',#669,.T.);
#736=FACE_BOUND('',#670,.T.);
#737=FACE_BOUND('',#671,.T.);
#738=FACE_BOUND('',#672,.T.);
#739=FACE_BOUND('',#673,.T.);
#740=FACE_BOUND('',#674,.T.);
#741=FACE_BOUND('',#675,.T.);
#742=FACE_BOUND('',#676,.T.);
#743=FACE_BOUND('',#677,.T.);
#744=FACE_BOUND('',#678,.T.);
#745=FACE_BOUND('',#679,.T.);
#746=FACE_BOUND('',#680,.T.);
#747=FACE_BOUND('',#681,.T.);
#748=FACE_BOUND('',#682,.T.);
#749=FACE_BOUND('',#683,.T.);
#750=FACE_BOUND('',#684,.T.);
#751=FACE_BOUND('',#685,.T.);
#752=FACE_BOUND('',#686,.T.);
#753=FACE_BOUND('',#687,.T.);
#754=FACE_BOUND('',#688,.T.);
#755=FACE_BOUND('',#689,.T.);
#756=FACE_BOUND('',#690,.T.);
#757=FACE_BOUND('',#691,.T.);
#758=FACE_BOUND('',#692,.T.);
#759=FACE_BOUND('',#693,.T.);
#760=FACE_BOUND('',#694,.T.);
#761=FACE_BOUND('',#695,.T.);
#762=FACE_BOUND('',#696,.T.);
#763=FACE_BOUND('',#697,.T.);
#764=FACE_BOUND('',#698,.T.);
#765=FACE_BOUND('',#699,.T.);
#766=FACE_BOUND('',#700,.T.);
#767=FACE_BOUND('',#701,.T.);
#768=FACE_BOUND('',#702,.T.);
#769=FACE_BOUND('',#703,.T.);
#770=FACE_BOUND('',#704,.T.);
#771=FACE_BOUND('',#705,.T.);
#772=FACE_BOUND('',#706,.T.);
#773=FACE_BOUND('',#707,.T.);
#774=FACE_BOUND('',#708,.T.);
#775=FACE_BOUND('',#709,.T.);
#776=FACE_BOUND('',#710,.T.);
#777=FACE_BOUND('',#711,.T.);
#778=FACE_BOUND('',#712,.T.);
#779=FACE_BOUND('',#713,.T.);
#780=FACE_BOUND('',#714,.T.);
#781=FACE_BOUND('',#715,.T.);
#782=FACE_BOUND('',#716,.T.);
#783=FACE_BOUND('',#717,.T.);
#784=FACE_BOUND('',#718,.T.);
#785=FACE_BOUND('',#719,.T.);
#786=FACE_BOUND('',#720,.T.);
#787=FACE_BOUND('',#721,.T.);
#788=FACE_BOUND('',#722,.T.);
#789=FACE_BOUND('',#723,.T.);
#790=FACE_BOUND('',#724,.T.);
#791=FACE_BOUND('',#725,.T.);
#792=FACE_BOUND('',#726,.T.);
#793=FACE_BOUND('',#727,.T.);
#794=FACE_BOUND('',#728,.T.);
#795=FACE_BOUND('',#729,.T.);
#796=FACE_BOUND('',#730,.T.);
#797=PLANE('',#881);
#798=PLANE('',#902);
#799=PLANE('',#905);
#800=PLANE('',#906);
#801=PLANE('',#909);
#802=PLANE('',#910);
#803=PLANE('',#913);
#804=PLANE('',#914);
#805=PLANE('',#917);
#806=PLANE('',#918);
#807=PLANE('',#921);
#808=PLANE('',#985);
#809=PLANE('',#986);
#810=ADVANCED_FACE('',(#731,#732),#797,.F.);
#811=ADVANCED_FACE('',(#733,#734),#54,.T.);
#812=ADVANCED_FACE('',(#735,#736),#798,.F.);
#813=ADVANCED_FACE('',(#737),#799,.T.);
#814=ADVANCED_FACE('',(#738),#800,.T.);
#815=ADVANCED_FACE('',(#739),#55,.T.);
#816=ADVANCED_FACE('',(#740),#801,.T.);
#817=ADVANCED_FACE('',(#741),#802,.T.);
#818=ADVANCED_FACE('',(#742),#56,.T.);
#819=ADVANCED_FACE('',(#743),#803,.T.);
#820=ADVANCED_FACE('',(#744),#804,.T.);
#821=ADVANCED_FACE('',(#745),#57,.T.);
#822=ADVANCED_FACE('',(#746),#805,.T.);
#823=ADVANCED_FACE('',(#747),#806,.T.);
#824=ADVANCED_FACE('',(#748),#58,.T.);
#825=ADVANCED_FACE('',(#749),#807,.F.);
#826=ADVANCED_FACE('',(#750),#59,.F.);
#827=ADVANCED_FACE('',(#751),#60,.F.);
#828=ADVANCED_FACE('',(#752),#61,.F.);
#829=ADVANCED_FACE('',(#753),#62,.F.);
#830=ADVANCED_FACE('',(#754),#63,.T.);
#831=ADVANCED_FACE('',(#755,#756),#44,.T.);
#832=ADVANCED_FACE('',(#757,#758),#45,.T.);
#833=ADVANCED_FACE('',(#759),#64,.T.);
#834=ADVANCED_FACE('',(#760),#65,.T.);
#835=ADVANCED_FACE('',(#761),#66,.T.);
#836=ADVANCED_FACE('',(#762),#67,.T.);
#837=ADVANCED_FACE('',(#763),#68,.T.);
#838=ADVANCED_FACE('',(#764),#69,.T.);
#839=ADVANCED_FACE('',(#765),#70,.T.);
#840=ADVANCED_FACE('',(#766),#46,.T.);
#841=ADVANCED_FACE('',(#767),#20,.T.);
#842=ADVANCED_FACE('',(#768),#21,.T.);
#843=ADVANCED_FACE('',(#769),#71,.T.);
#844=ADVANCED_FACE('',(#770),#72,.T.);
#845=ADVANCED_FACE('',(#771),#47,.T.);
#846=ADVANCED_FACE('',(#772),#48,.T.);
#847=ADVANCED_FACE('',(#773),#73,.T.);
#848=ADVANCED_FACE('',(#774),#74,.T.);
#849=ADVANCED_FACE('',(#775),#22,.T.);
#850=ADVANCED_FACE('',(#776),#23,.T.);
#851=ADVANCED_FACE('',(#777),#49,.T.);
#852=ADVANCED_FACE('',(#778),#50,.T.);
#853=ADVANCED_FACE('',(#779),#24,.T.);
#854=ADVANCED_FACE('',(#780),#25,.T.);
#855=ADVANCED_FACE('',(#781),#75,.T.);
#856=ADVANCED_FACE('',(#782),#76,.T.);
#857=ADVANCED_FACE('',(#783),#51,.T.);
#858=ADVANCED_FACE('',(#784),#52,.T.);
#859=ADVANCED_FACE('',(#785),#77,.T.);
#860=ADVANCED_FACE('',(#786),#78,.T.);
#861=ADVANCED_FACE('',(#787),#26,.T.);
#862=ADVANCED_FACE('',(#788),#27,.T.);
#863=ADVANCED_FACE('',(#789),#53,.T.);
#864=ADVANCED_FACE('',(#790,#791),#79,.F.);
#865=ADVANCED_FACE('',(#792,#793),#80,.T.);
#866=ADVANCED_FACE('',(#794,#795),#808,.F.);
#867=ADVANCED_FACE('',(#796),#809,.F.);
#868=CLOSED_SHELL('',(#810,#811,#812,#813,#814,#815,#816,#817,#818,#819,
#820,#821,#822,#823,#824,#825,#826,#827,#828,#829,#830,#831,#832,#833,#834,
#835,#836,#837,#838,#839,#840,#841,#842,#843,#844,#845,#846,#847,#848,#849,
#850,#851,#852,#853,#854,#855,#856,#857,#858,#859,#860,#861,#862,#863,#864,
#865,#866,#867));
#869=STYLED_ITEM('',(#870),#877);
#870=PRESENTATION_STYLE_ASSIGNMENT((#871));
#871=SURFACE_STYLE_USAGE(.BOTH.,#872);
#872=SURFACE_SIDE_STYLE('',(#873));
#873=SURFACE_STYLE_FILL_AREA(#874);
#874=FILL_AREA_STYLE('',(#875));
#875=FILL_AREA_STYLE_COLOUR('',#876);
#876=COLOUR_RGB('',0.749019622802734,0.665650486946106,0.449411779642105);
#877=MANIFOLD_SOLID_BREP('',#868);
#878=SHAPE_DEFINITION_REPRESENTATION(#1682,#879);
#879=SHAPE_REPRESENTATION('Sand_6031821_JCA',(#880),#1677);
#880=AXIS2_PLACEMENT_3D('',#1249,#987,#988);
#881=AXIS2_PLACEMENT_3D('',#1250,#989,#990);
#882=AXIS2_PLACEMENT_3D('',#1251,#991,#992);
#883=AXIS2_PLACEMENT_3D('',#1253,#993,#994);
#884=AXIS2_PLACEMENT_3D('',#1256,#995,#996);
#885=AXIS2_PLACEMENT_3D('',#1260,#998,#999);
#886=AXIS2_PLACEMENT_3D('',#1264,#1001,#1002);
#887=AXIS2_PLACEMENT_3D('',#1266,#1003,#1004);
#888=AXIS2_PLACEMENT_3D('',#1268,#1005,#1006);
#889=AXIS2_PLACEMENT_3D('',#1272,#1008,#1009);
#890=AXIS2_PLACEMENT_3D('',#1276,#1011,#1012);
#891=AXIS2_PLACEMENT_3D('',#1278,#1013,#1014);
#892=AXIS2_PLACEMENT_3D('',#1280,#1015,#1016);
#893=AXIS2_PLACEMENT_3D('',#1284,#1018,#1019);
#894=AXIS2_PLACEMENT_3D('',#1288,#1021,#1022);
#895=AXIS2_PLACEMENT_3D('',#1290,#1023,#1024);
#896=AXIS2_PLACEMENT_3D('',#1292,#1025,#1026);
#897=AXIS2_PLACEMENT_3D('',#1296,#1028,#1029);
#898=AXIS2_PLACEMENT_3D('',#1300,#1031,#1032);
#899=AXIS2_PLACEMENT_3D('',#1301,#1033,#1034);
#900=AXIS2_PLACEMENT_3D('',#1302,#1035,#1036);
#901=AXIS2_PLACEMENT_3D('',#1304,#1037,#1038);
#902=AXIS2_PLACEMENT_3D('',#1306,#1039,#1040);
#903=AXIS2_PLACEMENT_3D('',#1307,#1041,#1042);
#904=AXIS2_PLACEMENT_3D('',#1309,#1043,#1044);
#905=AXIS2_PLACEMENT_3D('',#1311,#1045,#1046);
#906=AXIS2_PLACEMENT_3D('',#1317,#1050,#1051);
#907=AXIS2_PLACEMENT_3D('',#1323,#1055,#1056);
#908=AXIS2_PLACEMENT_3D('',#1326,#1058,#1059);
#909=AXIS2_PLACEMENT_3D('',#1329,#1061,#1062);
#910=AXIS2_PLACEMENT_3D('',#1335,#1066,#1067);
#911=AXIS2_PLACEMENT_3D('',#1341,#1071,#1072);
#912=AXIS2_PLACEMENT_3D('',#1344,#1074,#1075);
#913=AXIS2_PLACEMENT_3D('',#1347,#1077,#1078);
#914=AXIS2_PLACEMENT_3D('',#1353,#1082,#1083);
#915=AXIS2_PLACEMENT_3D('',#1359,#1087,#1088);
#916=AXIS2_PLACEMENT_3D('',#1362,#1090,#1091);
#917=AXIS2_PLACEMENT_3D('',#1365,#1093,#1094);
#918=AXIS2_PLACEMENT_3D('',#1371,#1098,#1099);
#919=AXIS2_PLACEMENT_3D('',#1377,#1103,#1104);
#920=AXIS2_PLACEMENT_3D('',#1380,#1106,#1107);
#921=AXIS2_PLACEMENT_3D('',#1383,#1109,#1110);
#922=AXIS2_PLACEMENT_3D('',#1387,#1112,#1113);
#923=AXIS2_PLACEMENT_3D('',#1391,#1115,#1116);
#924=AXIS2_PLACEMENT_3D('',#1395,#1118,#1119);
#925=AXIS2_PLACEMENT_3D('',#1399,#1121,#1122);
#926=AXIS2_PLACEMENT_3D('',#1403,#1124,#1125);
#927=AXIS2_PLACEMENT_3D('',#1407,#1127,#1128);
#928=AXIS2_PLACEMENT_3D('',#1411,#1130,#1131);
#929=AXIS2_PLACEMENT_3D('',#1415,#1133,#1134);
#930=AXIS2_PLACEMENT_3D('',#1416,#1135,#1136);
#931=AXIS2_PLACEMENT_3D('',#1417,#1137,#1138);
#932=AXIS2_PLACEMENT_3D('',#1418,#1139,#1140);
#933=AXIS2_PLACEMENT_3D('',#1419,#1141,#1142);
#934=AXIS2_PLACEMENT_3D('',#1420,#1143,#1144);
#935=AXIS2_PLACEMENT_3D('',#1421,#1145,#1146);
#936=AXIS2_PLACEMENT_3D('',#1422,#1147,#1148);
#937=AXIS2_PLACEMENT_3D('',#1423,#1149,#1150);
#938=AXIS2_PLACEMENT_3D('',#1424,#1151,#1152);
#939=AXIS2_PLACEMENT_3D('',#1425,#1153,#1154);
#940=AXIS2_PLACEMENT_3D('',#1426,#1155,#1156);
#941=AXIS2_PLACEMENT_3D('',#1427,#1157,#1158);
#942=AXIS2_PLACEMENT_3D('',#1428,#1159,#1160);
#943=AXIS2_PLACEMENT_3D('',#1429,#1161,#1162);
#944=AXIS2_PLACEMENT_3D('',#1430,#1163,#1164);
#945=AXIS2_PLACEMENT_3D('',#1431,#1165,#1166);
#946=AXIS2_PLACEMENT_3D('',#1432,#1167,#1168);
#947=AXIS2_PLACEMENT_3D('',#1433,#1169,#1170);
#948=AXIS2_PLACEMENT_3D('',#1434,#1171,#1172);
#949=AXIS2_PLACEMENT_3D('',#1435,#1173,#1174);
#950=AXIS2_PLACEMENT_3D('',#1436,#1175,#1176);
#951=AXIS2_PLACEMENT_3D('',#1437,#1177,#1178);
#952=AXIS2_PLACEMENT_3D('',#1438,#1179,#1180);
#953=AXIS2_PLACEMENT_3D('',#1439,#1181,#1182);
#954=AXIS2_PLACEMENT_3D('',#1440,#1183,#1184);
#955=AXIS2_PLACEMENT_3D('',#1441,#1185,#1186);
#956=AXIS2_PLACEMENT_3D('',#1442,#1187,#1188);
#957=AXIS2_PLACEMENT_3D('',#1493,#1189,#1190);
#958=AXIS2_PLACEMENT_3D('',#1494,#1191,#1192);
#959=AXIS2_PLACEMENT_3D('',#1495,#1193,#1194);
#960=AXIS2_PLACEMENT_3D('',#1496,#1195,#1196);
#961=AXIS2_PLACEMENT_3D('',#1497,#1197,#1198);
#962=AXIS2_PLACEMENT_3D('',#1498,#1199,#1200);
#963=AXIS2_PLACEMENT_3D('',#1499,#1201,#1202);
#964=AXIS2_PLACEMENT_3D('',#1500,#1203,#1204);
#965=AXIS2_PLACEMENT_3D('',#1501,#1205,#1206);
#966=AXIS2_PLACEMENT_3D('',#1507,#1207,#1208);
#967=AXIS2_PLACEMENT_3D('',#1553,#1209,#1210);
#968=AXIS2_PLACEMENT_3D('',#1559,#1211,#1212);
#969=AXIS2_PLACEMENT_3D('',#1605,#1213,#1214);
#970=AXIS2_PLACEMENT_3D('',#1606,#1215,#1216);
#971=AXIS2_PLACEMENT_3D('',#1607,#1217,#1218);
#972=AXIS2_PLACEMENT_3D('',#1608,#1219,#1220);
#973=AXIS2_PLACEMENT_3D('',#1609,#1221,#1222);
#974=AXIS2_PLACEMENT_3D('',#1610,#1223,#1224);
#975=AXIS2_PLACEMENT_3D('',#1611,#1225,#1226);
#976=AXIS2_PLACEMENT_3D('',#1612,#1227,#1228);
#977=AXIS2_PLACEMENT_3D('',#1613,#1229,#1230);
#978=AXIS2_PLACEMENT_3D('',#1619,#1231,#1232);
#979=AXIS2_PLACEMENT_3D('',#1665,#1233,#1234);
#980=AXIS2_PLACEMENT_3D('',#1666,#1235,#1236);
#981=AXIS2_PLACEMENT_3D('',#1667,#1237,#1238);
#982=AXIS2_PLACEMENT_3D('',#1669,#1239,#1240);
#983=AXIS2_PLACEMENT_3D('',#1671,#1241,#1242);
#984=AXIS2_PLACEMENT_3D('',#1672,#1243,#1244);
#985=AXIS2_PLACEMENT_3D('',#1674,#1245,#1246);
#986=AXIS2_PLACEMENT_3D('',#1675,#1247,#1248);
#987=DIRECTION('',(0.,0.,1.));
#988=DIRECTION('',(1.,0.,0.));
#989=DIRECTION('',(-1.,0.,0.));
#990=DIRECTION('',(0.,0.,1.));
#991=DIRECTION('',(-1.,0.,0.));
#992=DIRECTION('',(0.,0.,1.));
#993=DIRECTION('',(-1.,0.,0.));
#994=DIRECTION('',(0.,0.,1.));
#995=DIRECTION('',(-1.,0.,0.));
#996=DIRECTION('',(0.,0.,1.));
#997=DIRECTION('',(0.,-1.,0.));
#998=DIRECTION('',(-1.,0.,0.));
#999=DIRECTION('',(0.,0.,1.));
#1000=DIRECTION('',(0.,-1.63670507663034E-16,-1.));
#1001=DIRECTION('',(-1.,0.,0.));
#1002=DIRECTION('',(0.,0.,1.));
#1003=DIRECTION('',(-1.,0.,0.));
#1004=DIRECTION('',(0.,0.,1.));
#1005=DIRECTION('',(-1.,0.,0.));
#1006=DIRECTION('',(0.,0.,1.));
#1007=DIRECTION('',(0.,2.45505761494551E-16,1.));
#1008=DIRECTION('',(-1.,0.,0.));
#1009=DIRECTION('',(0.,0.,1.));
#1010=DIRECTION('',(0.,-1.,0.));
#1011=DIRECTION('',(-1.,0.,0.));
#1012=DIRECTION('',(0.,0.,1.));
#1013=DIRECTION('',(-1.,0.,0.));
#1014=DIRECTION('',(0.,0.,1.));
#1015=DIRECTION('',(-1.,0.,0.));
#1016=DIRECTION('',(0.,0.,1.));
#1017=DIRECTION('',(0.,1.,0.));
#1018=DIRECTION('',(-1.,0.,0.));
#1019=DIRECTION('',(0.,0.,1.));
#1020=DIRECTION('',(0.,5.72846776820619E-16,1.));
#1021=DIRECTION('',(-1.,0.,0.));
#1022=DIRECTION('',(0.,0.,1.));
#1023=DIRECTION('',(-1.,0.,0.));
#1024=DIRECTION('',(0.,0.,-1.));
#1025=DIRECTION('',(-1.,0.,0.));
#1026=DIRECTION('',(0.,0.,1.));
#1027=DIRECTION('',(0.,-4.91011522989102E-16,-1.));
#1028=DIRECTION('',(-1.,0.,0.));
#1029=DIRECTION('',(0.,0.,1.));
#1030=DIRECTION('',(0.,1.,8.1835253831517E-17));
#1031=DIRECTION('',(-1.,0.,0.));
#1032=DIRECTION('',(0.,0.,1.));
#1033=DIRECTION('',(-1.,0.,0.));
#1034=DIRECTION('',(0.,0.,1.));
#1035=DIRECTION('',(-1.,0.,0.));
#1036=DIRECTION('',(0.,0.,1.));
#1037=DIRECTION('',(1.,0.,0.));
#1038=DIRECTION('',(0.,0.,-1.));
#1039=DIRECTION('',(1.,0.,0.));
#1040=DIRECTION('',(0.,0.,-1.));
#1041=DIRECTION('',(1.,0.,0.));
#1042=DIRECTION('',(0.,-1.,0.));
#1043=DIRECTION('',(1.,0.,0.));
#1044=DIRECTION('',(0.,0.,-1.));
#1045=DIRECTION('',(0.,1.,-4.91011522989102E-16));
#1046=DIRECTION('',(0.,4.91011522989102E-16,1.));
#1047=DIRECTION('',(-1.,0.,0.));
#1048=DIRECTION('',(0.,-4.91011522989102E-16,-1.));
#1049=DIRECTION('',(-1.,0.,0.));
#1050=DIRECTION('',(0.,-8.1835253831517E-17,1.));
#1051=DIRECTION('',(0.,-1.,-8.1835253831517E-17));
#1052=DIRECTION('',(-1.,0.,0.));
#1053=DIRECTION('',(0.,1.,8.1835253831517E-17));
#1054=DIRECTION('',(-1.,0.,0.));
#1055=DIRECTION('',(-1.,0.,0.));
#1056=DIRECTION('',(0.,0.,1.));
#1057=DIRECTION('',(-1.,0.,0.));
#1058=DIRECTION('',(-1.,0.,0.));
#1059=DIRECTION('',(0.,0.,1.));
#1060=DIRECTION('',(-1.,0.,0.));
#1061=DIRECTION('',(0.,0.,-1.));
#1062=DIRECTION('',(-1.,0.,0.));
#1063=DIRECTION('',(-1.,0.,0.));
#1064=DIRECTION('',(0.,-1.,0.));
#1065=DIRECTION('',(-1.,0.,0.));
#1066=DIRECTION('',(0.,1.,-1.63670507663034E-16));
#1067=DIRECTION('',(0.,1.63670507663034E-16,1.));
#1068=DIRECTION('',(-1.,0.,0.));
#1069=DIRECTION('',(0.,-1.63670507663034E-16,-1.));
#1070=DIRECTION('',(-1.,0.,0.));
#1071=DIRECTION('',(-1.,0.,0.));
#1072=DIRECTION('',(0.,0.,1.));
#1073=DIRECTION('',(-1.,0.,0.));
#1074=DIRECTION('',(-1.,0.,0.));
#1075=DIRECTION('',(0.,0.,1.));
#1076=DIRECTION('',(-1.,0.,0.));
#1077=DIRECTION('',(0.,-1.,2.45505761494551E-16));
#1078=DIRECTION('',(0.,-2.45505761494551E-16,-1.));
#1079=DIRECTION('',(-1.,0.,0.));
#1080=DIRECTION('',(0.,2.45505761494551E-16,1.));
#1081=DIRECTION('',(-1.,0.,0.));
#1082=DIRECTION('',(0.,0.,-1.));
#1083=DIRECTION('',(-1.,0.,0.));
#1084=DIRECTION('',(-1.,0.,0.));
#1085=DIRECTION('',(0.,-1.,0.));
#1086=DIRECTION('',(-1.,0.,0.));
#1087=DIRECTION('',(-1.,0.,0.));
#1088=DIRECTION('',(0.,0.,1.));
#1089=DIRECTION('',(-1.,0.,0.));
#1090=DIRECTION('',(-1.,0.,0.));
#1091=DIRECTION('',(0.,0.,1.));
#1092=DIRECTION('',(-1.,0.,0.));
#1093=DIRECTION('',(0.,0.,1.));
#1094=DIRECTION('',(1.,0.,0.));
#1095=DIRECTION('',(-1.,0.,0.));
#1096=DIRECTION('',(0.,1.,0.));
#1097=DIRECTION('',(-1.,0.,0.));
#1098=DIRECTION('',(0.,-1.,5.72846776820619E-16));
#1099=DIRECTION('',(0.,-5.72846776820619E-16,-1.));
#1100=DIRECTION('',(-1.,0.,0.));
#1101=DIRECTION('',(0.,5.72846776820619E-16,1.));
#1102=DIRECTION('',(-1.,0.,0.));
#1103=DIRECTION('',(-1.,0.,0.));
#1104=DIRECTION('',(0.,0.,1.));
#1105=DIRECTION('',(-1.,0.,0.));
#1106=DIRECTION('',(-1.,0.,0.));
#1107=DIRECTION('',(0.,0.,1.));
#1108=DIRECTION('',(-1.,0.,0.));
#1109=DIRECTION('',(-1.,0.,0.));
#1110=DIRECTION('',(0.,0.,1.));
#1111=DIRECTION('',(0.,2.45505761494551E-16,1.));
#1112=DIRECTION('',(-1.,0.,0.));
#1113=DIRECTION('',(0.,0.,1.));
#1114=DIRECTION('',(0.,-1.63670507663034E-16,-1.));
#1115=DIRECTION('',(-1.,0.,0.));
#1116=DIRECTION('',(0.,0.,1.));
#1117=DIRECTION('',(0.,-1.,0.));
#1118=DIRECTION('',(-1.,0.,0.));
#1119=DIRECTION('',(0.,0.,1.));
#1120=DIRECTION('',(0.,1.,8.1835253831517E-17));
#1121=DIRECTION('',(-1.,0.,0.));
#1122=DIRECTION('',(0.,0.,1.));
#1123=DIRECTION('',(0.,-4.91011522989102E-16,-1.));
#1124=DIRECTION('',(-1.,0.,0.));
#1125=DIRECTION('',(0.,0.,1.));
#1126=DIRECTION('',(0.,5.72846776820619E-16,1.));
#1127=DIRECTION('',(-1.,0.,0.));
#1128=DIRECTION('',(0.,0.,1.));
#1129=DIRECTION('',(0.,1.,0.));
#1130=DIRECTION('',(-1.,0.,0.));
#1131=DIRECTION('',(0.,0.,1.));
#1132=DIRECTION('',(0.,-1.,0.));
#1133=DIRECTION('',(-1.,0.,0.));
#1134=DIRECTION('',(0.,0.,1.));
#1135=DIRECTION('',(1.,0.,0.));
#1136=DIRECTION('',(0.,0.,-1.));
#1137=DIRECTION('',(-1.,0.,0.));
#1138=DIRECTION('',(0.,0.,1.));
#1139=DIRECTION('',(1.,0.,0.));
#1140=DIRECTION('',(0.,0.,-1.));
#1141=DIRECTION('',(-1.,0.,0.));
#1142=DIRECTION('',(0.,0.,1.));
#1143=DIRECTION('',(1.,0.,0.));
#1144=DIRECTION('',(0.,0.,-1.));
#1145=DIRECTION('',(-1.,0.,0.));
#1146=DIRECTION('',(0.,0.,1.));
#1147=DIRECTION('',(1.,0.,0.));
#1148=DIRECTION('',(0.,0.,-1.));
#1149=DIRECTION('',(-1.,0.,0.));
#1150=DIRECTION('',(0.,0.,1.));
#1151=DIRECTION('',(-1.,0.,0.));
#1152=DIRECTION('',(0.,0.,1.));
#1153=DIRECTION('',(-1.,0.,0.));
#1154=DIRECTION('',(0.,0.,1.));
#1155=DIRECTION('',(1.,0.,0.));
#1156=DIRECTION('',(0.,0.,-1.));
#1157=DIRECTION('',(-1.,0.,0.));
#1158=DIRECTION('',(0.,0.,1.));
#1159=DIRECTION('',(-1.,0.,0.));
#1160=DIRECTION('',(0.,0.,1.));
#1161=DIRECTION('',(-1.,0.,0.));
#1162=DIRECTION('',(0.,0.,1.));
#1163=DIRECTION('',(-1.,0.,0.));
#1164=DIRECTION('',(0.,0.,1.));
#1165=DIRECTION('',(-1.,0.,0.));
#1166=DIRECTION('',(0.,0.,1.));
#1167=DIRECTION('',(-1.,0.,0.));
#1168=DIRECTION('',(0.,0.,1.));
#1169=DIRECTION('',(-1.,0.,0.));
#1170=DIRECTION('',(0.,0.,1.));
#1171=DIRECTION('',(-1.,0.,0.));
#1172=DIRECTION('',(0.,0.,1.));
#1173=DIRECTION('',(-1.,0.,0.));
#1174=DIRECTION('',(0.,0.,1.));
#1175=DIRECTION('',(-1.,0.,0.));
#1176=DIRECTION('',(0.,0.,1.));
#1177=DIRECTION('',(-1.,0.,0.));
#1178=DIRECTION('',(0.,0.,1.));
#1179=DIRECTION('',(-1.,0.,0.));
#1180=DIRECTION('',(0.,0.,1.));
#1181=DIRECTION('',(-1.,0.,0.));
#1182=DIRECTION('',(0.,0.,1.));
#1183=DIRECTION('',(-1.,0.,0.));
#1184=DIRECTION('',(0.,0.,1.));
#1185=DIRECTION('',(-1.,0.,0.));
#1186=DIRECTION('',(0.,0.,1.));
#1187=DIRECTION('',(-1.,0.,0.));
#1188=DIRECTION('',(0.,0.,1.));
#1189=DIRECTION('',(0.,4.91011522989102E-16,1.));
#1190=DIRECTION('',(0.,-1.,4.91011522989102E-16));
#1191=DIRECTION('',(2.75506488473974E-32,-5.42101086242752E-16,-1.));
#1192=DIRECTION('',(0.,1.,-5.42101086242752E-16));
#1193=DIRECTION('',(0.,-5.72846776820619E-16,-1.));
#1194=DIRECTION('',(0.,1.,-5.72846776820619E-16));
#1195=DIRECTION('',(0.,-5.42101086242752E-16,-1.));
#1196=DIRECTION('',(0.,1.,-5.42101086242752E-16));
#1197=DIRECTION('',(-1.,0.,0.));
#1198=DIRECTION('',(0.,0.,1.));
#1199=DIRECTION('',(0.,1.,0.));
#1200=DIRECTION('',(0.,0.,1.));
#1201=DIRECTION('',(-1.,0.,0.));
#1202=DIRECTION('',(0.,0.,1.));
#1203=DIRECTION('',(0.,-1.,0.));
#1204=DIRECTION('',(0.,0.,-1.));
#1205=DIRECTION('',(0.,-1.,-8.1835253831517E-17));
#1206=DIRECTION('',(0.,8.1835253831517E-17,-1.));
#1207=DIRECTION('',(0.,-1.,0.));
#1208=DIRECTION('',(0.,0.,-1.));
#1209=DIRECTION('',(-1.,0.,0.));
#1210=DIRECTION('',(0.,0.,1.));
#1211=DIRECTION('',(-1.,0.,0.));
#1212=DIRECTION('',(0.,0.,1.));
#1213=DIRECTION('',(0.,1.,0.));
#1214=DIRECTION('',(0.,0.,1.));
#1215=DIRECTION('',(0.,-1.,0.));
#1216=DIRECTION('',(0.,0.,-1.));
#1217=DIRECTION('',(0.,1.,0.));
#1218=DIRECTION('',(0.,0.,1.));
#1219=DIRECTION('',(0.,1.,0.));
#1220=DIRECTION('',(0.,0.,1.));
#1221=DIRECTION('',(-1.,0.,0.));
#1222=DIRECTION('',(0.,0.,1.));
#1223=DIRECTION('',(2.71050543121377E-16,0.,-1.));
#1224=DIRECTION('',(-1.,0.,-2.71050543121377E-16));
#1225=DIRECTION('',(-1.,0.,0.));
#1226=DIRECTION('',(0.,0.,1.));
#1227=DIRECTION('',(0.,-2.71050543121376E-16,-1.));
#1228=DIRECTION('',(0.,1.,-2.71050543121376E-16));
#1229=DIRECTION('',(0.,1.63670507663034E-16,1.));
#1230=DIRECTION('',(0.,-1.,1.63670507663034E-16));
#1231=DIRECTION('',(0.,-2.45505761494551E-16,-1.));
#1232=DIRECTION('',(0.,1.,-2.45505761494551E-16));
#1233=DIRECTION('',(-1.,0.,0.));
#1234=DIRECTION('',(0.,0.,1.));
#1235=DIRECTION('',(1.,0.,0.));
#1236=DIRECTION('',(0.,0.,-1.));
#1237=DIRECTION('',(1.,0.,0.));
#1238=DIRECTION('',(0.,-1.,0.));
#1239=DIRECTION('',(1.,0.,0.));
#1240=DIRECTION('',(0.,-1.,0.));
#1241=DIRECTION('',(1.,0.,0.));
#1242=DIRECTION('',(0.,0.,-1.));
#1243=DIRECTION('',(1.,0.,0.));
#1244=DIRECTION('',(0.,-1.,0.));
#1245=DIRECTION('',(1.,0.,0.));
#1246=DIRECTION('',(0.,0.,-1.));
#1247=DIRECTION('',(1.,0.,0.));
#1248=DIRECTION('',(0.,0.,-1.));
#1249=CARTESIAN_POINT('',(0.,0.,0.));
#1250=CARTESIAN_POINT('',(0.799999999999998,0.,2.4));
#1251=CARTESIAN_POINT('',(0.799999999999998,0.,0.));
#1252=CARTESIAN_POINT('',(0.799999999999998,0.,3.));
#1253=CARTESIAN_POINT('',(0.8,0.,0.));
#1254=CARTESIAN_POINT('',(0.8,2.25014177247108,0.834782608695652));
#1255=CARTESIAN_POINT('',(0.8,2.25014177247108,-0.834782608695652));
#1256=CARTESIAN_POINT('',(0.799999999999999,2.15638586528478,-0.8));
#1257=CARTESIAN_POINT('',(0.8,2.15638586528478,-0.9));
#1258=CARTESIAN_POINT('',(0.8,0.9,-0.9));
#1259=CARTESIAN_POINT('',(0.8,1.4,-0.9));
#1260=CARTESIAN_POINT('',(0.799999999999999,1.4,-1.4));
#1261=CARTESIAN_POINT('',(0.8,0.9,-1.4));
#1262=CARTESIAN_POINT('',(0.8,0.9,-0.9));
#1263=CARTESIAN_POINT('',(0.8,0.9,-2.15638586528478));
#1264=CARTESIAN_POINT('',(0.799999999999999,0.8,-2.15638586528478));
#1265=CARTESIAN_POINT('',(0.8,0.834782608695652,-2.25014177247108));
#1266=CARTESIAN_POINT('',(0.8,0.,0.));
#1267=CARTESIAN_POINT('',(0.8,-0.834782608695652,-2.25014177247108));
#1268=CARTESIAN_POINT('',(0.799999999999999,-0.8,-2.15638586528478));
#1269=CARTESIAN_POINT('',(0.8,-0.9,-2.15638586528478));
#1270=CARTESIAN_POINT('',(0.8,-0.9,-0.9));
#1271=CARTESIAN_POINT('',(0.8,-0.9,-1.4));
#1272=CARTESIAN_POINT('',(0.799999999999999,-1.4,-1.4));
#1273=CARTESIAN_POINT('',(0.8,-1.4,-0.9));
#1274=CARTESIAN_POINT('',(0.8,-0.9,-0.9));
#1275=CARTESIAN_POINT('',(0.8,-2.15638586528478,-0.9));
#1276=CARTESIAN_POINT('',(0.799999999999999,-2.15638586528478,-0.8));
#1277=CARTESIAN_POINT('',(0.8,-2.25014177247108,-0.834782608695652));
#1278=CARTESIAN_POINT('',(0.8,0.,0.));
#1279=CARTESIAN_POINT('',(0.8,-2.25014177247108,0.834782608695652));
#1280=CARTESIAN_POINT('',(0.799999999999999,-2.15638586528478,0.8));
#1281=CARTESIAN_POINT('',(0.8,-2.15638586528478,0.9));
#1282=CARTESIAN_POINT('',(0.8,-0.9,0.9));
#1283=CARTESIAN_POINT('',(0.8,-1.4,0.9));
#1284=CARTESIAN_POINT('',(0.799999999999999,-1.4,1.4));
#1285=CARTESIAN_POINT('',(0.8,-0.9,1.4));
#1286=CARTESIAN_POINT('',(0.8,-0.9,0.9));
#1287=CARTESIAN_POINT('',(0.8,-0.899999999999999,2.15638586528478));
#1288=CARTESIAN_POINT('',(0.799999999999999,-0.799999999999999,2.15638586528478));
#1289=CARTESIAN_POINT('',(0.8,-0.834782608695651,2.25014177247108));
#1290=CARTESIAN_POINT('',(0.8,0.,0.));
#1291=CARTESIAN_POINT('',(0.8,0.834782608695653,2.25014177247108));
#1292=CARTESIAN_POINT('',(0.799999999999999,0.800000000000001,2.15638586528478));
#1293=CARTESIAN_POINT('',(0.8,0.900000000000001,2.15638586528478));
#1294=CARTESIAN_POINT('',(0.8,0.9,0.9));
#1295=CARTESIAN_POINT('',(0.8,0.9,1.4));
#1296=CARTESIAN_POINT('',(0.799999999999999,1.4,1.4));
#1297=CARTESIAN_POINT('',(0.8,1.4,0.9));
#1298=CARTESIAN_POINT('',(0.8,0.9,0.9));
#1299=CARTESIAN_POINT('',(0.8,2.15638586528478,0.9));
#1300=CARTESIAN_POINT('',(0.799999999999999,2.15638586528478,0.8));
#1301=CARTESIAN_POINT('',(-60.,0.,0.));
#1302=CARTESIAN_POINT('',(0.699999999999999,0.,0.));
#1303=CARTESIAN_POINT('',(0.699999999999999,0.,3.1));
#1304=CARTESIAN_POINT('',(0.100000000000003,0.,0.));
#1305=CARTESIAN_POINT('',(0.100000000000003,0.,-3.1));
#1306=CARTESIAN_POINT('',(0.,0.,3.1));
#1307=CARTESIAN_POINT('',(0.,0.,0.));
#1308=CARTESIAN_POINT('',(0.,-2.4,0.));
#1309=CARTESIAN_POINT('',(0.,0.,0.));
#1310=CARTESIAN_POINT('',(0.,0.,-3.));
#1311=CARTESIAN_POINT('',(24.8,0.9,0.9));
#1312=CARTESIAN_POINT('',(24.8,0.900000000000001,2.15638586528478));
#1313=CARTESIAN_POINT('',(24.,0.900000000000001,2.15638586528478));
#1314=CARTESIAN_POINT('',(24.,0.9,1.4));
#1315=CARTESIAN_POINT('',(24.,0.9,1.4));
#1316=CARTESIAN_POINT('',(0.800000000000002,0.9,1.4));
#1317=CARTESIAN_POINT('',(24.8,0.9,0.9));
#1318=CARTESIAN_POINT('',(24.8,1.4,0.9));
#1319=CARTESIAN_POINT('',(24.,1.4,0.9));
#1320=CARTESIAN_POINT('',(24.,2.15638586528478,0.9));
#1321=CARTESIAN_POINT('',(24.,2.15638586528478,0.9));
#1322=CARTESIAN_POINT('',(24.8,2.15638586528478,0.9));
#1323=CARTESIAN_POINT('',(24.8,0.,0.));
#1324=CARTESIAN_POINT('',(24.8,2.25014177247108,0.834782608695652));
#1325=CARTESIAN_POINT('',(24.,2.25014177247108,0.834782608695652));
#1326=CARTESIAN_POINT('',(24.,0.,0.));
#1327=CARTESIAN_POINT('',(24.,2.25014177247108,-0.834782608695652));
#1328=CARTESIAN_POINT('',(24.8,2.25014177247108,-0.834782608695652));
#1329=CARTESIAN_POINT('',(24.8,0.9,-0.9));
#1330=CARTESIAN_POINT('',(24.8,2.15638586528478,-0.9));
#1331=CARTESIAN_POINT('',(24.,2.15638586528478,-0.9));
#1332=CARTESIAN_POINT('',(24.,1.4,-0.9));
#1333=CARTESIAN_POINT('',(24.,1.4,-0.9));
#1334=CARTESIAN_POINT('',(0.800000000000002,1.4,-0.9));
#1335=CARTESIAN_POINT('',(24.8,0.9,-0.9));
#1336=CARTESIAN_POINT('',(24.8,0.9,-1.4));
#1337=CARTESIAN_POINT('',(24.,0.9,-1.4));
#1338=CARTESIAN_POINT('',(24.,0.9,-2.15638586528478));
#1339=CARTESIAN_POINT('',(24.,0.9,-2.15638586528478));
#1340=CARTESIAN_POINT('',(24.8,0.9,-2.15638586528478));
#1341=CARTESIAN_POINT('',(24.8,0.,0.));
#1342=CARTESIAN_POINT('',(24.8,0.834782608695652,-2.25014177247108));
#1343=CARTESIAN_POINT('',(24.,0.834782608695652,-2.25014177247108));
#1344=CARTESIAN_POINT('',(24.,0.,0.));
#1345=CARTESIAN_POINT('',(24.,-0.834782608695653,-2.25014177247108));
#1346=CARTESIAN_POINT('',(24.8,-0.834782608695653,-2.25014177247108));
#1347=CARTESIAN_POINT('',(24.8,-0.9,-0.9));
#1348=CARTESIAN_POINT('',(24.8,-0.9,-2.15638586528478));
#1349=CARTESIAN_POINT('',(24.,-0.9,-2.15638586528478));
#1350=CARTESIAN_POINT('',(24.,-0.9,-1.4));
#1351=CARTESIAN_POINT('',(24.,-0.9,-1.4));
#1352=CARTESIAN_POINT('',(0.800000000000002,-0.9,-1.4));
#1353=CARTESIAN_POINT('',(24.8,-0.9,-0.9));
#1354=CARTESIAN_POINT('',(24.8,-1.4,-0.9));
#1355=CARTESIAN_POINT('',(24.,-1.4,-0.9));
#1356=CARTESIAN_POINT('',(24.,-2.15638586528478,-0.9));
#1357=CARTESIAN_POINT('',(24.,-2.15638586528478,-0.9));
#1358=CARTESIAN_POINT('',(24.8,-2.15638586528478,-0.9));
#1359=CARTESIAN_POINT('',(24.8,0.,0.));
#1360=CARTESIAN_POINT('',(24.8,-2.25014177247108,-0.834782608695652));
#1361=CARTESIAN_POINT('',(24.,-2.25014177247108,-0.834782608695652));
#1362=CARTESIAN_POINT('',(24.,0.,0.));
#1363=CARTESIAN_POINT('',(24.,-2.25014177247108,0.834782608695652));
#1364=CARTESIAN_POINT('',(24.8,-2.25014177247108,0.834782608695652));
#1365=CARTESIAN_POINT('',(24.8,-0.9,0.9));
#1366=CARTESIAN_POINT('',(24.8,-2.15638586528478,0.9));
#1367=CARTESIAN_POINT('',(24.,-2.15638586528478,0.9));
#1368=CARTESIAN_POINT('',(24.,-1.4,0.9));
#1369=CARTESIAN_POINT('',(24.,-1.4,0.9));
#1370=CARTESIAN_POINT('',(0.800000000000002,-1.4,0.9));
#1371=CARTESIAN_POINT('',(24.8,-0.9,0.9));
#1372=CARTESIAN_POINT('',(24.8,-0.9,1.4));
#1373=CARTESIAN_POINT('',(24.,-0.9,1.4));
#1374=CARTESIAN_POINT('',(24.,-0.899999999999999,2.15638586528478));
#1375=CARTESIAN_POINT('',(24.,-0.899999999999999,2.15638586528478));
#1376=CARTESIAN_POINT('',(24.8,-0.899999999999999,2.15638586528478));
#1377=CARTESIAN_POINT('',(24.8,0.,0.));
#1378=CARTESIAN_POINT('',(24.8,-0.834782608695652,2.25014177247108));
#1379=CARTESIAN_POINT('',(24.,-0.834782608695652,2.25014177247108));
#1380=CARTESIAN_POINT('',(24.,0.,0.));
#1381=CARTESIAN_POINT('',(24.,0.834782608695653,2.25014177247108));
#1382=CARTESIAN_POINT('',(24.8,0.834782608695653,2.25014177247108));
#1383=CARTESIAN_POINT('',(24.8,0.,0.));
#1384=CARTESIAN_POINT('',(24.8,-0.1,-2.15638586528478));
#1385=CARTESIAN_POINT('',(24.8,-0.1,-1.4));
#1386=CARTESIAN_POINT('',(24.8,-0.1,-1.59687194226713));
#1387=CARTESIAN_POINT('',(24.8,0.,0.));
#1388=CARTESIAN_POINT('',(24.8,0.1,-1.59687194226713));
#1389=CARTESIAN_POINT('',(24.8,0.1,-1.4));
#1390=CARTESIAN_POINT('',(24.8,0.1,-1.4));
#1391=CARTESIAN_POINT('',(24.8,1.4,-1.4));
#1392=CARTESIAN_POINT('',(24.8,1.4,-0.1));
#1393=CARTESIAN_POINT('',(24.8,2.15638586528478,-0.1));
#1394=CARTESIAN_POINT('',(24.8,1.59687194226713,-0.1));
#1395=CARTESIAN_POINT('',(24.8,0.,0.));
#1396=CARTESIAN_POINT('',(24.8,1.59687194226713,0.1));
#1397=CARTESIAN_POINT('',(24.8,1.4,0.1));
#1398=CARTESIAN_POINT('',(24.8,1.4,0.1));
#1399=CARTESIAN_POINT('',(24.8,1.4,1.4));
#1400=CARTESIAN_POINT('',(24.8,0.1,1.4));
#1401=CARTESIAN_POINT('',(24.8,0.100000000000001,2.15638586528478));
#1402=CARTESIAN_POINT('',(24.8,0.1,1.59687194226713));
#1403=CARTESIAN_POINT('',(24.8,0.,0.));
#1404=CARTESIAN_POINT('',(24.8,-0.0999999999999996,1.59687194226713));
#1405=CARTESIAN_POINT('',(24.8,-0.0999999999999998,1.4));
#1406=CARTESIAN_POINT('',(24.8,-0.0999999999999998,1.4));
#1407=CARTESIAN_POINT('',(24.8,-1.4,1.4));
#1408=CARTESIAN_POINT('',(24.8,-1.4,0.1));
#1409=CARTESIAN_POINT('',(24.8,-2.15638586528478,0.1));
#1410=CARTESIAN_POINT('',(24.8,-1.59687194226713,0.1));
#1411=CARTESIAN_POINT('',(24.8,0.,0.));
#1412=CARTESIAN_POINT('',(24.8,-1.59687194226713,-0.1));
#1413=CARTESIAN_POINT('',(24.8,-1.4,-0.1));
#1414=CARTESIAN_POINT('',(24.8,-1.4,-0.1));
#1415=CARTESIAN_POINT('',(24.8,-1.4,-1.4));
#1416=CARTESIAN_POINT('',(24.8,-1.4,-1.4));
#1417=CARTESIAN_POINT('',(24.,-1.4,-1.4));
#1418=CARTESIAN_POINT('',(24.8,-1.4,1.4));
#1419=CARTESIAN_POINT('',(24.,-1.4,1.4));
#1420=CARTESIAN_POINT('',(24.8,1.4,1.4));
#1421=CARTESIAN_POINT('',(24.,1.4,1.4));
#1422=CARTESIAN_POINT('',(24.8,1.4,-1.4));
#1423=CARTESIAN_POINT('',(24.,1.4,-1.4));
#1424=CARTESIAN_POINT('',(24.8,-0.8,-2.15638586528478));
#1425=CARTESIAN_POINT('',(24.,-0.8,-2.15638586528478));
#1426=CARTESIAN_POINT('',(0.100000000000003,0.,0.));
#1427=CARTESIAN_POINT('',(0.699999999999999,0.,0.));
#1428=CARTESIAN_POINT('',(24.8,-2.15638586528478,-0.8));
#1429=CARTESIAN_POINT('',(24.,-2.15638586528478,-0.8));
#1430=CARTESIAN_POINT('',(24.8,-2.15638586528478,0.8));
#1431=CARTESIAN_POINT('',(24.,-2.15638586528478,0.8));
#1432=CARTESIAN_POINT('',(24.8,-0.799999999999999,2.15638586528478));
#1433=CARTESIAN_POINT('',(24.,-0.799999999999999,2.15638586528478));
#1434=CARTESIAN_POINT('',(24.8,0.800000000000001,2.15638586528478));
#1435=CARTESIAN_POINT('',(24.,0.800000000000001,2.15638586528478));
#1436=CARTESIAN_POINT('',(24.8,2.15638586528478,0.8));
#1437=CARTESIAN_POINT('',(24.,2.15638586528478,0.8));
#1438=CARTESIAN_POINT('',(24.8,2.15638586528478,-0.8));
#1439=CARTESIAN_POINT('',(24.,2.15638586528478,-0.8));
#1440=CARTESIAN_POINT('',(24.8,0.8,-2.15638586528478));
#1441=CARTESIAN_POINT('',(24.,0.8,-2.15638586528478));
#1442=CARTESIAN_POINT('',(24.,0.,0.));
#1443=CARTESIAN_POINT('',(24.,0.834782608695653,2.25014177247108));
#1444=CARTESIAN_POINT('',(24.237517555679,0.834782608695653,2.25014177247108));
#1445=CARTESIAN_POINT('',(24.6786708637515,0.617561616958219,2.08987702352126));
#1446=CARTESIAN_POINT('',(24.8,0.259729338396829,1.76793143757289));
#1447=CARTESIAN_POINT('',(24.8,0.1,1.59687194226713));
#1448=CARTESIAN_POINT('',(24.,-0.834782608695651,2.25014177247108));
#1449=CARTESIAN_POINT('',(24.237517555679,-0.834782608695651,2.25014177247108));
#1450=CARTESIAN_POINT('',(24.6786708637515,-0.617561616958217,2.08987702352126));
#1451=CARTESIAN_POINT('',(24.8,-0.25972933839683,1.76793143757289));
#1452=CARTESIAN_POINT('',(24.8,-0.0999999999999997,1.59687194226713));
#1453=CARTESIAN_POINT('',(24.,0.834782608695653,2.25014177247108));
#1454=CARTESIAN_POINT('',(24.,0.900000000000001,2.22594669964881));
#1455=CARTESIAN_POINT('',(24.,0.900000000000001,2.15638586528478));
#1456=CARTESIAN_POINT('',(24.2435382976584,0.834782544874274,2.25014179614824));
#1457=CARTESIAN_POINT('',(24.2582682819803,0.899999880166284,2.2259466184928));
#1458=CARTESIAN_POINT('',(24.2435382976584,0.900000000000001,2.1563858001663));
#1459=CARTESIAN_POINT('',(24.6888431307623,0.606245678417579,2.08104027332268));
#1460=CARTESIAN_POINT('',(24.6816309065753,0.661756748426018,2.06965787539671));
#1461=CARTESIAN_POINT('',(24.6888431307623,0.658717302569465,2.01294005975531));
#1462=CARTESIAN_POINT('',(24.8,0.254361856168607,1.76221578467837));
#1463=CARTESIAN_POINT('',(24.8000000043015,0.264608019374737,1.75132044382487));
#1464=CARTESIAN_POINT('',(24.8,0.27485400640803,1.74042493767976));
#1465=CARTESIAN_POINT('',(24.8,0.1,1.59687194226713));
#1466=CARTESIAN_POINT('',(24.8,0.1,1.59687194226713));
#1467=CARTESIAN_POINT('',(24.8,0.1,1.59687194226713));
#1468=CARTESIAN_POINT('',(24.,0.900000000000001,2.15638586528478));
#1469=CARTESIAN_POINT('',(24.2365541187131,0.900000000000001,2.15638586528478));
#1470=CARTESIAN_POINT('',(24.6782727316831,0.672092554649947,2.0213638664114));
#1471=CARTESIAN_POINT('',(24.8,0.280214662459675,1.74482733844748));
#1472=CARTESIAN_POINT('',(24.8,0.1,1.59687194226713));
#1473=CARTESIAN_POINT('',(24.,-0.899999999999999,2.15638586528478));
#1474=CARTESIAN_POINT('',(24.,-0.899999999999999,2.22594669964881));
#1475=CARTESIAN_POINT('',(24.,-0.834782608695652,2.25014177247108));
#1476=CARTESIAN_POINT('',(24.2435382976584,-0.9,2.15638580016662));
#1477=CARTESIAN_POINT('',(24.2582682819804,-0.89999988016632,2.22594661849317));
#1478=CARTESIAN_POINT('',(24.2435382976584,-0.834782544874136,2.25014179614829));
#1479=CARTESIAN_POINT('',(24.6888431307623,-0.658717302504827,2.0129400597112));
#1480=CARTESIAN_POINT('',(24.6816308720733,-0.661756748365134,2.0696578753396));
#1481=CARTESIAN_POINT('',(24.6888431307623,-0.60624567836953,2.08104027326113));
#1482=CARTESIAN_POINT('',(24.8,-0.274854006537304,1.74042493776765));
#1483=CARTESIAN_POINT('',(24.8000000682765,-0.264608019487533,1.7513204439304));
#1484=CARTESIAN_POINT('',(24.8,-0.254361856264838,1.76221578480141));
#1485=CARTESIAN_POINT('',(24.8,-0.0999999999999997,1.59687194226713));
#1486=CARTESIAN_POINT('',(24.8,-0.0999999999999996,1.59687194226713));
#1487=CARTESIAN_POINT('',(24.8,-0.0999999999999997,1.59687194226713));
#1488=CARTESIAN_POINT('',(24.,-0.899999999999999,2.15638586528478));
#1489=CARTESIAN_POINT('',(24.2365541187131,-0.899999999999999,2.15638586528478));
#1490=CARTESIAN_POINT('',(24.6782727316831,-0.672092554649944,2.0213638664114));
#1491=CARTESIAN_POINT('',(24.8,-0.280214662459677,1.74482733844748));
#1492=CARTESIAN_POINT('',(24.8,-0.0999999999999997,1.59687194226713));
#1493=CARTESIAN_POINT('',(24.,0.1,0.9));
#1494=CARTESIAN_POINT('',(24.,0.1,1.4));
#1495=CARTESIAN_POINT('',(24.,-0.1,0.9));
#1496=CARTESIAN_POINT('',(24.,-0.0999999999999998,1.4));
#1497=CARTESIAN_POINT('',(24.,1.4,1.4));
#1498=CARTESIAN_POINT('',(24.,1.4,0.1));
#1499=CARTESIAN_POINT('',(24.,-1.4,1.4));
#1500=CARTESIAN_POINT('',(24.,-1.4,0.1));
#1501=CARTESIAN_POINT('',(24.,0.9,0.1));
#1502=CARTESIAN_POINT('',(24.,2.15638586528478,0.9));
#1503=CARTESIAN_POINT('',(24.2365541187131,2.15638586528478,0.9));
#1504=CARTESIAN_POINT('',(24.6782727316831,2.02136386641139,0.672092554649956));
#1505=CARTESIAN_POINT('',(24.8,1.7448273384475,0.280214662459656));
#1506=CARTESIAN_POINT('',(24.8,1.59687194226713,0.1));
#1507=CARTESIAN_POINT('',(24.,-0.9,0.1));
#1508=CARTESIAN_POINT('',(24.,-2.15638586528478,0.9));
#1509=CARTESIAN_POINT('',(24.2365541187131,-2.15638586528478,0.9));
#1510=CARTESIAN_POINT('',(24.6782727316831,-2.0213638664114,0.67209255464995));
#1511=CARTESIAN_POINT('',(24.8,-1.74482733844749,0.280214662459666));
#1512=CARTESIAN_POINT('',(24.8,-1.59687194226713,0.1));
#1513=CARTESIAN_POINT('',(24.,2.15638586528478,0.9));
#1514=CARTESIAN_POINT('',(24.,2.22594669964881,0.9));
#1515=CARTESIAN_POINT('',(24.,2.25014177247108,0.834782608695652));
#1516=CARTESIAN_POINT('',(24.2435382976584,2.15638580016625,0.9));
#1517=CARTESIAN_POINT('',(24.2582682819794,2.2259466184928,0.899999880166315));
#1518=CARTESIAN_POINT('',(24.2435382976584,2.25014179614823,0.834782544874298));
#1519=CARTESIAN_POINT('',(24.6888431307623,2.01294005971139,0.658717302504837));
#1520=CARTESIAN_POINT('',(24.6816308720738,2.06965787533976,0.661756748365135));
#1521=CARTESIAN_POINT('',(24.6888431307623,2.08104027326116,0.606245678369458));
#1522=CARTESIAN_POINT('',(24.8,1.74042493776765,0.274854006537286));
#1523=CARTESIAN_POINT('',(24.8000000682765,1.7513204439304,0.264608019487515));
#1524=CARTESIAN_POINT('',(24.8,1.76221578480141,0.254361856264824));
#1525=CARTESIAN_POINT('',(24.8,1.59687194226713,0.1));
#1526=CARTESIAN_POINT('',(24.8,1.59687194226713,0.1));
#1527=CARTESIAN_POINT('',(24.8,1.59687194226713,0.1));
#1528=CARTESIAN_POINT('',(24.,2.25014177247108,0.834782608695652));
#1529=CARTESIAN_POINT('',(24.237517555679,2.25014177247108,0.834782608695652));
#1530=CARTESIAN_POINT('',(24.6786708637515,2.08987702352153,0.61756161695793));
#1531=CARTESIAN_POINT('',(24.8,1.76793143757235,0.259729338397405));
#1532=CARTESIAN_POINT('',(24.8,1.59687194226713,0.1));
#1533=CARTESIAN_POINT('',(24.,-2.25014177247108,0.834782608695652));
#1534=CARTESIAN_POINT('',(24.,-2.22594669964881,0.9));
#1535=CARTESIAN_POINT('',(24.,-2.15638586528478,0.9));
#1536=CARTESIAN_POINT('',(24.2435382976584,-2.25014179614826,0.834782544874238));
#1537=CARTESIAN_POINT('',(24.2582682819805,-2.22594661849299,0.899999880166299));
#1538=CARTESIAN_POINT('',(24.2435382976584,-2.15638580016644,0.9));
#1539=CARTESIAN_POINT('',(24.6888431307623,-2.08104027332273,0.606245678417528));
#1540=CARTESIAN_POINT('',(24.6816309065752,-2.06965787539674,0.661756748425926));
#1541=CARTESIAN_POINT('',(24.6888431307623,-2.01294005975531,0.658717302569387));
#1542=CARTESIAN_POINT('',(24.8,-1.76221578467826,0.254361856168743));
#1543=CARTESIAN_POINT('',(24.8000000043015,-1.75132044382466,0.264608019374886));
#1544=CARTESIAN_POINT('',(24.8,-1.74042493767963,0.274854006408186));
#1545=CARTESIAN_POINT('',(24.8,-1.59687194226713,0.1));
#1546=CARTESIAN_POINT('',(24.8,-1.59687194226713,0.1));
#1547=CARTESIAN_POINT('',(24.8,-1.59687194226713,0.1));
#1548=CARTESIAN_POINT('',(24.,-2.25014177247108,0.834782608695652));
#1549=CARTESIAN_POINT('',(24.237517555679,-2.25014177247108,0.834782608695652));
#1550=CARTESIAN_POINT('',(24.6786708637515,-2.08987702352125,0.61756161695823));
#1551=CARTESIAN_POINT('',(24.8,-1.76793143757291,0.259729338396806));
#1552=CARTESIAN_POINT('',(24.8,-1.59687194226713,0.1));
#1553=CARTESIAN_POINT('',(24.,0.,0.));
#1554=CARTESIAN_POINT('',(24.,2.25014177247108,-0.834782608695652));
#1555=CARTESIAN_POINT('',(24.237517555679,2.25014177247108,-0.834782608695652));
#1556=CARTESIAN_POINT('',(24.6786708637515,2.08987702352125,-0.61756161695823));
#1557=CARTESIAN_POINT('',(24.8,1.76793143757291,-0.259729338396806));
#1558=CARTESIAN_POINT('',(24.8,1.59687194226713,-0.1));
#1559=CARTESIAN_POINT('',(24.,0.,0.));
#1560=CARTESIAN_POINT('',(24.,-2.25014177247108,-0.834782608695652));
#1561=CARTESIAN_POINT('',(24.237517555679,-2.25014177247108,-0.834782608695652));
#1562=CARTESIAN_POINT('',(24.6786708637515,-2.08987702352125,-0.61756161695823));
#1563=CARTESIAN_POINT('',(24.8,-1.76793143757291,-0.259729338396806));
#1564=CARTESIAN_POINT('',(24.8,-1.59687194226713,-0.1));
#1565=CARTESIAN_POINT('',(24.,2.25014177247108,-0.834782608695652));
#1566=CARTESIAN_POINT('',(24.,2.22594669964881,-0.9));
#1567=CARTESIAN_POINT('',(24.,2.15638586528478,-0.9));
#1568=CARTESIAN_POINT('',(24.2435382976584,2.25014179614826,-0.834782544874238));
#1569=CARTESIAN_POINT('',(24.2582682819805,2.22594661849299,-0.899999880166299));
#1570=CARTESIAN_POINT('',(24.2435382976584,2.15638580016644,-0.9));
#1571=CARTESIAN_POINT('',(24.6888431307623,2.08104027332273,-0.606245678417528));
#1572=CARTESIAN_POINT('',(24.6816309065752,2.06965787539674,-0.661756748425926));
#1573=CARTESIAN_POINT('',(24.6888431307623,2.01294005975531,-0.658717302569387));
#1574=CARTESIAN_POINT('',(24.8,1.76221578467826,-0.254361856168743));
#1575=CARTESIAN_POINT('',(24.8000000043015,1.75132044382466,-0.264608019374886));
#1576=CARTESIAN_POINT('',(24.8,1.74042493767963,-0.274854006408186));
#1577=CARTESIAN_POINT('',(24.8,1.59687194226713,-0.1));
#1578=CARTESIAN_POINT('',(24.8,1.59687194226713,-0.1));
#1579=CARTESIAN_POINT('',(24.8,1.59687194226713,-0.1));
#1580=CARTESIAN_POINT('',(24.,2.15638586528478,-0.9));
#1581=CARTESIAN_POINT('',(24.2365541187131,2.15638586528478,-0.9));
#1582=CARTESIAN_POINT('',(24.6782727316831,2.0213638664114,-0.67209255464995));
#1583=CARTESIAN_POINT('',(24.8,1.74482733844749,-0.280214662459666));
#1584=CARTESIAN_POINT('',(24.8,1.59687194226713,-0.1));
#1585=CARTESIAN_POINT('',(24.,-2.15638586528478,-0.9));
#1586=CARTESIAN_POINT('',(24.,-2.22594669964881,-0.9));
#1587=CARTESIAN_POINT('',(24.,-2.25014177247108,-0.834782608695652));
#1588=CARTESIAN_POINT('',(24.2435382976584,-2.15638580016644,-0.9));
#1589=CARTESIAN_POINT('',(24.2582682819805,-2.22594661849299,-0.899999880166299));
#1590=CARTESIAN_POINT('',(24.2435382976584,-2.25014179614826,-0.834782544874238));
#1591=CARTESIAN_POINT('',(24.6888431307623,-2.01294005971129,-0.658717302504837));
#1592=CARTESIAN_POINT('',(24.6816308720733,-2.06965787533966,-0.661756748365126));
#1593=CARTESIAN_POINT('',(24.6888431307623,-2.08104027326115,-0.606245678369488));
#1594=CARTESIAN_POINT('',(24.8,-1.74042493776765,-0.274854006537284));
#1595=CARTESIAN_POINT('',(24.8000000682765,-1.7513204439304,-0.264608019487514));
#1596=CARTESIAN_POINT('',(24.8,-1.76221578480141,-0.254361856264823));
#1597=CARTESIAN_POINT('',(24.8,-1.59687194226713,-0.1));
#1598=CARTESIAN_POINT('',(24.8,-1.59687194226713,-0.1));
#1599=CARTESIAN_POINT('',(24.8,-1.59687194226713,-0.1));
#1600=CARTESIAN_POINT('',(24.,-2.15638586528478,-0.9));
#1601=CARTESIAN_POINT('',(24.2365541187131,-2.15638586528478,-0.9));
#1602=CARTESIAN_POINT('',(24.6782727316831,-2.0213638664114,-0.67209255464995));
#1603=CARTESIAN_POINT('',(24.8,-1.74482733844749,-0.280214662459666));
#1604=CARTESIAN_POINT('',(24.8,-1.59687194226713,-0.1));
#1605=CARTESIAN_POINT('',(24.,0.9,-0.1));
#1606=CARTESIAN_POINT('',(24.,1.4,-0.1));
#1607=CARTESIAN_POINT('',(24.,-0.9,-0.1));
#1608=CARTESIAN_POINT('',(24.,-1.4,-0.1));
#1609=CARTESIAN_POINT('',(24.,1.4,-1.4));
#1610=CARTESIAN_POINT('',(24.,0.1,-1.4));
#1611=CARTESIAN_POINT('',(24.,-1.4,-1.4));
#1612=CARTESIAN_POINT('',(24.,-0.1,-1.4));
#1613=CARTESIAN_POINT('',(24.,0.1,-0.9));
#1614=CARTESIAN_POINT('',(24.,0.9,-2.15638586528478));
#1615=CARTESIAN_POINT('',(24.2365541187131,0.9,-2.15638586528478));
#1616=CARTESIAN_POINT('',(24.6782727316831,0.67209255464992,-2.02136386641143));
#1617=CARTESIAN_POINT('',(24.8,0.280214662459724,-1.74482733844742));
#1618=CARTESIAN_POINT('',(24.8,0.1,-1.59687194226713));
#1619=CARTESIAN_POINT('',(24.,-0.1,-0.9));
#1620=CARTESIAN_POINT('',(24.,-0.9,-2.15638586528478));
#1621=CARTESIAN_POINT('',(24.2365541187131,-0.9,-2.15638586528478));
#1622=CARTESIAN_POINT('',(24.6782727316831,-0.672092554649921,-2.02136386641143));
#1623=CARTESIAN_POINT('',(24.8,-0.280214662459726,-1.74482733844742));
#1624=CARTESIAN_POINT('',(24.8,-0.1,-1.59687194226713));
#1625=CARTESIAN_POINT('',(24.,0.9,-2.15638586528478));
#1626=CARTESIAN_POINT('',(24.,0.9,-2.22594669964881));
#1627=CARTESIAN_POINT('',(24.,0.834782608695652,-2.25014177247108));
#1628=CARTESIAN_POINT('',(24.2435382976584,0.9,-2.15638580016644));
#1629=CARTESIAN_POINT('',(24.2582682819805,0.899999880166327,-2.22594661849299));
#1630=CARTESIAN_POINT('',(24.2435382976584,0.834782544874197,-2.25014179614827));
#1631=CARTESIAN_POINT('',(24.6888431307623,0.658717302504902,-2.01294005971125));
#1632=CARTESIAN_POINT('',(24.6816308720733,0.661756748365177,-2.06965787533961));
#1633=CARTESIAN_POINT('',(24.6888431307623,0.606245678369566,-2.0810402732611));
#1634=CARTESIAN_POINT('',(24.8,0.274854006537156,-1.74042493776775));
#1635=CARTESIAN_POINT('',(24.8000000682765,0.264608019487396,-1.75132044393049));
#1636=CARTESIAN_POINT('',(24.8,0.254361856264709,-1.7622157848015));
#1637=CARTESIAN_POINT('',(24.8,0.1,-1.59687194226713));
#1638=CARTESIAN_POINT('',(24.8,0.1,-1.59687194226713));
#1639=CARTESIAN_POINT('',(24.8,0.1,-1.59687194226713));
#1640=CARTESIAN_POINT('',(24.,0.834782608695652,-2.25014177247108));
#1641=CARTESIAN_POINT('',(24.237517555679,0.834782608695652,-2.25014177247108));
#1642=CARTESIAN_POINT('',(24.6786708637515,0.617561616957937,-2.08987702352153));
#1643=CARTESIAN_POINT('',(24.8,0.25972933839739,-1.76793143757236));
#1644=CARTESIAN_POINT('',(24.8,0.1,-1.59687194226713));
#1645=CARTESIAN_POINT('',(24.,-0.834782608695653,-2.25014177247108));
#1646=CARTESIAN_POINT('',(24.,-0.9,-2.22594669964881));
#1647=CARTESIAN_POINT('',(24.,-0.9,-2.15638586528478));
#1648=CARTESIAN_POINT('',(24.2435382976584,-0.834782544874273,-2.25014179614824));
#1649=CARTESIAN_POINT('',(24.2582682819813,-0.899999880166331,-2.22594661849283));
#1650=CARTESIAN_POINT('',(24.2435382976584,-0.900000000000001,-2.1563858001663));
#1651=CARTESIAN_POINT('',(24.6888431307623,-0.606245678417569,-2.08104027332271));
#1652=CARTESIAN_POINT('',(24.6816309065748,-0.661756748425997,-2.06965787539678));
#1653=CARTESIAN_POINT('',(24.6888431307623,-0.658717302569453,-2.01294005975534));
#1654=CARTESIAN_POINT('',(24.8,-0.254361856168627,-1.7622157846783));
#1655=CARTESIAN_POINT('',(24.8000000043015,-0.26460801937476,-1.75132044382473));
#1656=CARTESIAN_POINT('',(24.8,-0.274854006408054,-1.74042493767969));
#1657=CARTESIAN_POINT('',(24.8,-0.1,-1.59687194226713));
#1658=CARTESIAN_POINT('',(24.8,-0.1,-1.59687194226713));
#1659=CARTESIAN_POINT('',(24.8,-0.1,-1.59687194226713));
#1660=CARTESIAN_POINT('',(24.,-0.834782608695652,-2.25014177247108));
#1661=CARTESIAN_POINT('',(24.237517555679,-0.834782608695652,-2.25014177247108));
#1662=CARTESIAN_POINT('',(24.6786708637515,-0.617561616957924,-2.08987702352154));
#1663=CARTESIAN_POINT('',(24.8,-0.259729338397417,-1.76793143757234));
#1664=CARTESIAN_POINT('',(24.8,-0.1,-1.59687194226713));
#1665=CARTESIAN_POINT('',(24.,0.,0.));
#1666=CARTESIAN_POINT('',(-1.6,0.,0.));
#1667=CARTESIAN_POINT('',(-1.6,0.,0.));
#1668=CARTESIAN_POINT('',(-1.6,-2.,0.));
#1669=CARTESIAN_POINT('',(-0.8,0.,0.));
#1670=CARTESIAN_POINT('',(-0.8,-2.,0.));
#1671=CARTESIAN_POINT('',(-1.6,0.,0.));
#1672=CARTESIAN_POINT('',(-1.6,0.,0.));
#1673=CARTESIAN_POINT('',(-1.6,-2.4,0.));
#1674=CARTESIAN_POINT('',(-1.6,0.,0.));
#1675=CARTESIAN_POINT('',(-0.8,0.,0.));
#1676=MECHANICAL_DESIGN_GEOMETRIC_PRESENTATION_REPRESENTATION('',(#869),
#1677);
#1677=(
GEOMETRIC_REPRESENTATION_CONTEXT(3)
GLOBAL_UNCERTAINTY_ASSIGNED_CONTEXT((#1678))
GLOBAL_UNIT_ASSIGNED_CONTEXT((#1681,#1680,#1679))
REPRESENTATION_CONTEXT('Sand_6031821_JCA','TOP_LEVEL_ASSEMBLY_PART')
);
#1678=UNCERTAINTY_MEASURE_WITH_UNIT(LENGTH_MEASURE(0.005),#1681,
'DISTANCE_ACCURACY_VALUE','Maximum Tolerance applied to model');
#1679=(
NAMED_UNIT(*)
SI_UNIT($,.STERADIAN.)
SOLID_ANGLE_UNIT()
);
#1680=(
NAMED_UNIT(*)
PLANE_ANGLE_UNIT()
SI_UNIT($,.RADIAN.)
);
#1681=(
LENGTH_UNIT()
NAMED_UNIT(*)
SI_UNIT(.MILLI.,.METRE.)
);
#1682=PRODUCT_DEFINITION_SHAPE('','',#1683);
#1683=PRODUCT_DEFINITION('','',#1685,#1684);
#1684=PRODUCT_DEFINITION_CONTEXT('',#1691,'design');
#1685=PRODUCT_DEFINITION_FORMATION_WITH_SPECIFIED_SOURCE('','',#1687,
 .NOT_KNOWN.);
#1686=PRODUCT_RELATED_PRODUCT_CATEGORY('','',(#1687));
#1687=PRODUCT('Sand_6031821_JCA','Sand_6031821_JCA','Sand_6031821_JCA',
(#1689));
#1688=PRODUCT_CATEGORY('','');
#1689=PRODUCT_CONTEXT('',#1691,'mechanical');
#1690=APPLICATION_PROTOCOL_DEFINITION('international standard',
'automotive_design',2010,#1691);
#1691=APPLICATION_CONTEXT(
'core data for automotive mechanical design processes');
ENDSEC;
END-ISO-10303-21;
