ISO-10303-21;
HEADER;
/* Generated by software containing ST-Developer
 * from STEP Tools, Inc. (www.steptools.com) 
 */
/* OPTION: strings as raw bytes, not using required /X/ escapes */

FILE_DESCRIPTION(
/* description */ ('Unknown'),
/* implementation_level */ '2;1');

FILE_NAME(
/* name */ 'Sand_4514554_MCM',
/* time_stamp */ '2025-07-22T00:04:07+02:00',
/* author */ ('Unknown'),
/* organization */ ('Unknown'),
/* preprocessor_version */ 'ST-DEVELOPER v19.4',
/* originating_system */ 'Solid Edge',
/* authorisation */ 'Unknown');

FILE_SCHEMA (('AUTOMOTIVE_DESIGN {1 0 10303 214 3 1 1}'));
ENDSEC;

DATA;
#10=PROPERTY_DEFINITION_REPRESENTATION(#14,#12);
#11=PROPERTY_DEFINITION_REPRESENTATION(#15,#13);
#12=REPRESENTATION('',(#16),#1847);
#13=REPRESENTATION('',(#17),#1847);
#14=PROPERTY_DEFINITION('pmi validation property','',#1852);
#15=PROPERTY_DEFINITION('pmi validation property','',#1852);
#16=VALUE_REPRESENTATION_ITEM('number of annotations',COUNT_MEASURE(0.));
#17=VALUE_REPRESENTATION_ITEM('number of views',COUNT_MEASURE(0.));
#18=SHAPE_REPRESENTATION_RELATIONSHIP('','',#1047,#19);
#19=ADVANCED_BREP_SHAPE_REPRESENTATION('',(#1045),#1847);
#20=PLANE('',#1061);
#21=PLANE('',#1066);
#22=PLANE('',#1073);
#23=PLANE('',#1075);
#24=PLANE('',#1083);
#25=PLANE('',#1085);
#26=PLANE('',#1090);
#27=PLANE('',#1095);
#28=PLANE('',#1100);
#29=PLANE('',#1110);
#30=PLANE('',#1112);
#31=PLANE('',#1113);
#32=PLANE('',#1115);
#33=PLANE('',#1116);
#34=PLANE('',#1118);
#35=PLANE('',#1120);
#36=PLANE('',#1121);
#37=PLANE('',#1122);
#38=PLANE('',#1124);
#39=PLANE('',#1125);
#40=PLANE('',#1130);
#41=PLANE('',#1131);
#42=LINE('',#1419,#114);
#43=LINE('',#1421,#115);
#44=LINE('',#1444,#116);
#45=LINE('',#1452,#117);
#46=LINE('',#1460,#118);
#47=LINE('',#1468,#119);
#48=LINE('',#1469,#120);
#49=LINE('',#1474,#121);
#50=LINE('',#1482,#122);
#51=LINE('',#1486,#123);
#52=LINE('',#1500,#124);
#53=LINE('',#1504,#125);
#54=LINE('',#1512,#126);
#55=LINE('',#1516,#127);
#56=LINE('',#1518,#128);
#57=LINE('',#1522,#129);
#58=LINE('',#1524,#130);
#59=LINE('',#1529,#131);
#60=LINE('',#1533,#132);
#61=LINE('',#1538,#133);
#62=LINE('',#1542,#134);
#63=LINE('',#1550,#135);
#64=LINE('',#1554,#136);
#65=LINE('',#1562,#137);
#66=LINE('',#1566,#138);
#67=LINE('',#1574,#139);
#68=LINE('',#1578,#140);
#69=LINE('',#1586,#141);
#70=LINE('',#1588,#142);
#71=LINE('',#1592,#143);
#72=LINE('',#1594,#144);
#73=LINE('',#1598,#145);
#74=LINE('',#1600,#146);
#75=LINE('',#1605,#147);
#76=LINE('',#1609,#148);
#77=LINE('',#1614,#149);
#78=LINE('',#1618,#150);
#79=LINE('',#1622,#151);
#80=LINE('',#1624,#152);
#81=LINE('',#1628,#153);
#82=LINE('',#1630,#154);
#83=LINE('',#1635,#155);
#84=LINE('',#1639,#156);
#85=LINE('',#1644,#157);
#86=LINE('',#1648,#158);
#87=LINE('',#1656,#159);
#88=LINE('',#1657,#160);
#89=LINE('',#1665,#161);
#90=LINE('',#1682,#162);
#91=LINE('',#1684,#163);
#92=LINE('',#1692,#164);
#93=LINE('',#1696,#165);
#94=LINE('',#1716,#166);
#95=LINE('',#1718,#167);
#96=LINE('',#1731,#168);
#97=LINE('',#1735,#169);
#98=LINE('',#1745,#170);
#99=LINE('',#1751,#171);
#100=LINE('',#1762,#172);
#101=LINE('',#1776,#173);
#102=LINE('',#1787,#174);
#103=LINE('',#1789,#175);
#104=LINE('',#1804,#176);
#105=LINE('',#1814,#177);
#106=LINE('',#1821,#178);
#107=LINE('',#1822,#179);
#108=LINE('',#1824,#180);
#109=LINE('',#1825,#181);
#110=LINE('',#1829,#182);
#111=LINE('',#1830,#183);
#112=LINE('',#1832,#184);
#113=LINE('',#1833,#185);
#114=VECTOR('',#1152,1000.);
#115=VECTOR('',#1153,1000.);
#116=VECTOR('',#1162,1000.);
#117=VECTOR('',#1163,1000.);
#118=VECTOR('',#1164,1000.);
#119=VECTOR('',#1165,1000.);
#120=VECTOR('',#1166,1000.);
#121=VECTOR('',#1169,1000.);
#122=VECTOR('',#1170,1000.);
#123=VECTOR('',#1173,1000.);
#124=VECTOR('',#1174,1000.);
#125=VECTOR('',#1177,1000.);
#126=VECTOR('',#1178,1000.);
#127=VECTOR('',#1181,1000.);
#128=VECTOR('',#1184,1000.);
#129=VECTOR('',#1187,1000.);
#130=VECTOR('',#1190,1000.);
#131=VECTOR('',#1193,1000.);
#132=VECTOR('',#1198,1000.);
#133=VECTOR('',#1201,1000.);
#134=VECTOR('',#1206,1000.);
#135=VECTOR('',#1207,1000.);
#136=VECTOR('',#1210,1000.);
#137=VECTOR('',#1211,1000.);
#138=VECTOR('',#1214,1000.);
#139=VECTOR('',#1215,1000.);
#140=VECTOR('',#1218,1000.);
#141=VECTOR('',#1219,1000.);
#142=VECTOR('',#1222,1000.);
#143=VECTOR('',#1225,1000.);
#144=VECTOR('',#1228,1000.);
#145=VECTOR('',#1231,1000.);
#146=VECTOR('',#1234,1000.);
#147=VECTOR('',#1237,1000.);
#148=VECTOR('',#1242,1000.);
#149=VECTOR('',#1245,1000.);
#150=VECTOR('',#1250,1000.);
#151=VECTOR('',#1253,1000.);
#152=VECTOR('',#1256,1000.);
#153=VECTOR('',#1259,1000.);
#154=VECTOR('',#1262,1000.);
#155=VECTOR('',#1265,1000.);
#156=VECTOR('',#1270,1000.);
#157=VECTOR('',#1273,1000.);
#158=VECTOR('',#1278,1000.);
#159=VECTOR('',#1279,1000.);
#160=VECTOR('',#1280,1000.);
#161=VECTOR('',#1281,1000.);
#162=VECTOR('',#1302,1000.);
#163=VECTOR('',#1303,1000.);
#164=VECTOR('',#1304,1000.);
#165=VECTOR('',#1307,1000.);
#166=VECTOR('',#1314,1000.);
#167=VECTOR('',#1315,1000.);
#168=VECTOR('',#1322,1000.);
#169=VECTOR('',#1325,1000.);
#170=VECTOR('',#1328,1000.);
#171=VECTOR('',#1331,1000.);
#172=VECTOR('',#1336,1000.);
#173=VECTOR('',#1339,1000.);
#174=VECTOR('',#1344,1000.);
#175=VECTOR('',#1347,1000.);
#176=VECTOR('',#1352,1000.);
#177=VECTOR('',#1355,1000.);
#178=VECTOR('',#1360,1000.);
#179=VECTOR('',#1361,1000.);
#180=VECTOR('',#1364,1000.);
#181=VECTOR('',#1365,1000.);
#182=VECTOR('',#1372,1000.);
#183=VECTOR('',#1373,1000.);
#184=VECTOR('',#1376,1000.);
#185=VECTOR('',#1377,1000.);
#186=CYLINDRICAL_SURFACE('',#1052,2.5);
#187=CYLINDRICAL_SURFACE('',#1056,2.);
#188=CYLINDRICAL_SURFACE('',#1063,2.6);
#189=CYLINDRICAL_SURFACE('',#1069,2.4);
#190=CYLINDRICAL_SURFACE('',#1077,2.6);
#191=CYLINDRICAL_SURFACE('',#1080,2.6);
#192=CYLINDRICAL_SURFACE('',#1087,2.6);
#193=CYLINDRICAL_SURFACE('',#1093,2.4);
#194=CYLINDRICAL_SURFACE('',#1097,3.1);
#195=CYLINDRICAL_SURFACE('',#1103,2.4);
#196=CYLINDRICAL_SURFACE('',#1107,2.5);
#197=CYLINDRICAL_SURFACE('',#1114,0.399999999999999);
#198=CYLINDRICAL_SURFACE('',#1117,0.399999999999999);
#199=CYLINDRICAL_SURFACE('',#1119,0.400000000017378);
#200=CYLINDRICAL_SURFACE('',#1123,0.400000000017378);
#201=CYLINDRICAL_SURFACE('',#1126,0.4);
#202=CYLINDRICAL_SURFACE('',#1127,0.399999999999999);
#203=CYLINDRICAL_SURFACE('',#1128,0.399999999999999);
#204=CYLINDRICAL_SURFACE('',#1129,0.4);
#205=CIRCLE('',#1050,2.4);
#206=CIRCLE('',#1051,2.5);
#207=CIRCLE('',#1053,2.5);
#208=CIRCLE('',#1055,2.4);
#209=CIRCLE('',#1057,2.);
#210=CIRCLE('',#1058,2.);
#211=CIRCLE('',#1059,2.);
#212=CIRCLE('',#1060,2.);
#213=CIRCLE('',#1062,2.5);
#214=CIRCLE('',#1064,2.6);
#215=CIRCLE('',#1065,2.6);
#216=CIRCLE('',#1067,2.5);
#217=CIRCLE('',#1068,2.4);
#218=CIRCLE('',#1070,2.4);
#219=CIRCLE('',#1071,2.4);
#220=CIRCLE('',#1072,2.4);
#221=CIRCLE('',#1074,2.5);
#222=CIRCLE('',#1076,2.5);
#223=CIRCLE('',#1078,2.6);
#224=CIRCLE('',#1079,2.6);
#225=CIRCLE('',#1081,2.6);
#226=CIRCLE('',#1082,2.6);
#227=CIRCLE('',#1084,2.5);
#228=CIRCLE('',#1086,2.5);
#229=CIRCLE('',#1088,2.6);
#230=CIRCLE('',#1089,2.6);
#231=CIRCLE('',#1091,2.5);
#232=CIRCLE('',#1092,2.4);
#233=CIRCLE('',#1094,2.4);
#234=CIRCLE('',#1096,3.);
#235=CIRCLE('',#1098,3.1);
#236=CIRCLE('',#1099,3.1);
#237=CIRCLE('',#1101,3.);
#238=CIRCLE('',#1102,2.4);
#239=CIRCLE('',#1104,2.4);
#240=CIRCLE('',#1106,2.5);
#241=CIRCLE('',#1108,2.5);
#242=CIRCLE('',#1111,2.5);
#243=ORIENTED_EDGE('',*,*,#543,.F.);
#244=ORIENTED_EDGE('',*,*,#544,.F.);
#245=ORIENTED_EDGE('',*,*,#545,.F.);
#246=ORIENTED_EDGE('',*,*,#546,.T.);
#247=ORIENTED_EDGE('',*,*,#547,.F.);
#248=ORIENTED_EDGE('',*,*,#546,.F.);
#249=ORIENTED_EDGE('',*,*,#548,.F.);
#250=ORIENTED_EDGE('',*,*,#549,.T.);
#251=ORIENTED_EDGE('',*,*,#550,.F.);
#252=ORIENTED_EDGE('',*,*,#549,.F.);
#253=ORIENTED_EDGE('',*,*,#551,.F.);
#254=ORIENTED_EDGE('',*,*,#552,.T.);
#255=ORIENTED_EDGE('',*,*,#553,.F.);
#256=ORIENTED_EDGE('',*,*,#554,.F.);
#257=ORIENTED_EDGE('',*,*,#555,.F.);
#258=ORIENTED_EDGE('',*,*,#556,.F.);
#259=ORIENTED_EDGE('',*,*,#557,.F.);
#260=ORIENTED_EDGE('',*,*,#558,.F.);
#261=ORIENTED_EDGE('',*,*,#559,.F.);
#262=ORIENTED_EDGE('',*,*,#560,.F.);
#263=ORIENTED_EDGE('',*,*,#561,.F.);
#264=ORIENTED_EDGE('',*,*,#562,.T.);
#265=ORIENTED_EDGE('',*,*,#563,.F.);
#266=ORIENTED_EDGE('',*,*,#564,.F.);
#267=ORIENTED_EDGE('',*,*,#565,.F.);
#268=ORIENTED_EDGE('',*,*,#566,.T.);
#269=ORIENTED_EDGE('',*,*,#567,.F.);
#270=ORIENTED_EDGE('',*,*,#568,.F.);
#271=ORIENTED_EDGE('',*,*,#569,.T.);
#272=ORIENTED_EDGE('',*,*,#570,.T.);
#273=ORIENTED_EDGE('',*,*,#571,.F.);
#274=ORIENTED_EDGE('',*,*,#572,.T.);
#275=ORIENTED_EDGE('',*,*,#573,.T.);
#276=ORIENTED_EDGE('',*,*,#574,.T.);
#277=ORIENTED_EDGE('',*,*,#575,.F.);
#278=ORIENTED_EDGE('',*,*,#576,.T.);
#279=ORIENTED_EDGE('',*,*,#577,.T.);
#280=ORIENTED_EDGE('',*,*,#578,.T.);
#281=ORIENTED_EDGE('',*,*,#579,.T.);
#282=ORIENTED_EDGE('',*,*,#566,.F.);
#283=ORIENTED_EDGE('',*,*,#580,.F.);
#284=ORIENTED_EDGE('',*,*,#581,.T.);
#285=ORIENTED_EDGE('',*,*,#582,.F.);
#286=ORIENTED_EDGE('',*,*,#583,.T.);
#287=ORIENTED_EDGE('',*,*,#584,.F.);
#288=ORIENTED_EDGE('',*,*,#585,.T.);
#289=ORIENTED_EDGE('',*,*,#586,.F.);
#290=ORIENTED_EDGE('',*,*,#587,.T.);
#291=ORIENTED_EDGE('',*,*,#588,.F.);
#292=ORIENTED_EDGE('',*,*,#589,.F.);
#293=ORIENTED_EDGE('',*,*,#590,.F.);
#294=ORIENTED_EDGE('',*,*,#591,.F.);
#295=ORIENTED_EDGE('',*,*,#592,.F.);
#296=ORIENTED_EDGE('',*,*,#593,.F.);
#297=ORIENTED_EDGE('',*,*,#594,.F.);
#298=ORIENTED_EDGE('',*,*,#552,.F.);
#299=ORIENTED_EDGE('',*,*,#595,.T.);
#300=ORIENTED_EDGE('',*,*,#596,.T.);
#301=ORIENTED_EDGE('',*,*,#597,.T.);
#302=ORIENTED_EDGE('',*,*,#598,.T.);
#303=ORIENTED_EDGE('',*,*,#599,.T.);
#304=ORIENTED_EDGE('',*,*,#600,.T.);
#305=ORIENTED_EDGE('',*,*,#601,.T.);
#306=ORIENTED_EDGE('',*,*,#602,.T.);
#307=ORIENTED_EDGE('',*,*,#603,.T.);
#308=ORIENTED_EDGE('',*,*,#604,.T.);
#309=ORIENTED_EDGE('',*,*,#605,.T.);
#310=ORIENTED_EDGE('',*,*,#595,.F.);
#311=ORIENTED_EDGE('',*,*,#606,.T.);
#312=ORIENTED_EDGE('',*,*,#607,.T.);
#313=ORIENTED_EDGE('',*,*,#608,.T.);
#314=ORIENTED_EDGE('',*,*,#599,.F.);
#315=ORIENTED_EDGE('',*,*,#609,.T.);
#316=ORIENTED_EDGE('',*,*,#610,.T.);
#317=ORIENTED_EDGE('',*,*,#611,.T.);
#318=ORIENTED_EDGE('',*,*,#612,.T.);
#319=ORIENTED_EDGE('',*,*,#613,.T.);
#320=ORIENTED_EDGE('',*,*,#614,.T.);
#321=ORIENTED_EDGE('',*,*,#615,.T.);
#322=ORIENTED_EDGE('',*,*,#616,.T.);
#323=ORIENTED_EDGE('',*,*,#617,.T.);
#324=ORIENTED_EDGE('',*,*,#618,.T.);
#325=ORIENTED_EDGE('',*,*,#619,.T.);
#326=ORIENTED_EDGE('',*,*,#571,.T.);
#327=ORIENTED_EDGE('',*,*,#620,.F.);
#328=ORIENTED_EDGE('',*,*,#621,.T.);
#329=ORIENTED_EDGE('',*,*,#622,.F.);
#330=ORIENTED_EDGE('',*,*,#562,.F.);
#331=ORIENTED_EDGE('',*,*,#623,.F.);
#332=ORIENTED_EDGE('',*,*,#624,.T.);
#333=ORIENTED_EDGE('',*,*,#625,.F.);
#334=ORIENTED_EDGE('',*,*,#626,.T.);
#335=ORIENTED_EDGE('',*,*,#627,.F.);
#336=ORIENTED_EDGE('',*,*,#628,.T.);
#337=ORIENTED_EDGE('',*,*,#629,.F.);
#338=ORIENTED_EDGE('',*,*,#630,.T.);
#339=ORIENTED_EDGE('',*,*,#631,.F.);
#340=ORIENTED_EDGE('',*,*,#632,.F.);
#341=ORIENTED_EDGE('',*,*,#633,.F.);
#342=ORIENTED_EDGE('',*,*,#630,.F.);
#343=ORIENTED_EDGE('',*,*,#634,.F.);
#344=ORIENTED_EDGE('',*,*,#635,.F.);
#345=ORIENTED_EDGE('',*,*,#636,.F.);
#346=ORIENTED_EDGE('',*,*,#587,.F.);
#347=ORIENTED_EDGE('',*,*,#637,.T.);
#348=ORIENTED_EDGE('',*,*,#638,.T.);
#349=ORIENTED_EDGE('',*,*,#637,.F.);
#350=ORIENTED_EDGE('',*,*,#639,.T.);
#351=ORIENTED_EDGE('',*,*,#640,.T.);
#352=ORIENTED_EDGE('',*,*,#641,.T.);
#353=ORIENTED_EDGE('',*,*,#642,.T.);
#354=ORIENTED_EDGE('',*,*,#643,.F.);
#355=ORIENTED_EDGE('',*,*,#544,.T.);
#356=ORIENTED_EDGE('',*,*,#644,.F.);
#357=ORIENTED_EDGE('',*,*,#645,.F.);
#358=ORIENTED_EDGE('',*,*,#646,.F.);
#359=ORIENTED_EDGE('',*,*,#647,.T.);
#360=ORIENTED_EDGE('',*,*,#648,.F.);
#361=ORIENTED_EDGE('',*,*,#649,.F.);
#362=ORIENTED_EDGE('',*,*,#642,.F.);
#363=ORIENTED_EDGE('',*,*,#650,.F.);
#364=ORIENTED_EDGE('',*,*,#651,.T.);
#365=ORIENTED_EDGE('',*,*,#652,.F.);
#366=ORIENTED_EDGE('',*,*,#647,.F.);
#367=ORIENTED_EDGE('',*,*,#653,.F.);
#368=ORIENTED_EDGE('',*,*,#651,.F.);
#369=ORIENTED_EDGE('',*,*,#654,.F.);
#370=ORIENTED_EDGE('',*,*,#655,.T.);
#371=ORIENTED_EDGE('',*,*,#656,.F.);
#372=ORIENTED_EDGE('',*,*,#591,.T.);
#373=ORIENTED_EDGE('',*,*,#657,.F.);
#374=ORIENTED_EDGE('',*,*,#655,.F.);
#375=ORIENTED_EDGE('',*,*,#658,.F.);
#376=ORIENTED_EDGE('',*,*,#659,.T.);
#377=ORIENTED_EDGE('',*,*,#660,.F.);
#378=ORIENTED_EDGE('',*,*,#575,.T.);
#379=ORIENTED_EDGE('',*,*,#608,.F.);
#380=ORIENTED_EDGE('',*,*,#661,.T.);
#381=ORIENTED_EDGE('',*,*,#613,.F.);
#382=ORIENTED_EDGE('',*,*,#662,.T.);
#383=ORIENTED_EDGE('',*,*,#658,.T.);
#384=ORIENTED_EDGE('',*,*,#574,.F.);
#385=ORIENTED_EDGE('',*,*,#663,.F.);
#386=ORIENTED_EDGE('',*,*,#600,.F.);
#387=ORIENTED_EDGE('',*,*,#611,.F.);
#388=ORIENTED_EDGE('',*,*,#664,.T.);
#389=ORIENTED_EDGE('',*,*,#603,.F.);
#390=ORIENTED_EDGE('',*,*,#602,.F.);
#391=ORIENTED_EDGE('',*,*,#665,.T.);
#392=ORIENTED_EDGE('',*,*,#572,.F.);
#393=ORIENTED_EDGE('',*,*,#619,.F.);
#394=ORIENTED_EDGE('',*,*,#666,.T.);
#395=ORIENTED_EDGE('',*,*,#665,.F.);
#396=ORIENTED_EDGE('',*,*,#601,.F.);
#397=ORIENTED_EDGE('',*,*,#663,.T.);
#398=ORIENTED_EDGE('',*,*,#573,.F.);
#399=ORIENTED_EDGE('',*,*,#615,.F.);
#400=ORIENTED_EDGE('',*,*,#667,.T.);
#401=ORIENTED_EDGE('',*,*,#606,.F.);
#402=ORIENTED_EDGE('',*,*,#598,.F.);
#403=ORIENTED_EDGE('',*,*,#668,.F.);
#404=ORIENTED_EDGE('',*,*,#576,.F.);
#405=ORIENTED_EDGE('',*,*,#660,.T.);
#406=ORIENTED_EDGE('',*,*,#669,.T.);
#407=ORIENTED_EDGE('',*,*,#605,.F.);
#408=ORIENTED_EDGE('',*,*,#670,.T.);
#409=ORIENTED_EDGE('',*,*,#609,.F.);
#410=ORIENTED_EDGE('',*,*,#671,.T.);
#411=ORIENTED_EDGE('',*,*,#617,.F.);
#412=ORIENTED_EDGE('',*,*,#570,.F.);
#413=ORIENTED_EDGE('',*,*,#672,.T.);
#414=ORIENTED_EDGE('',*,*,#596,.F.);
#415=ORIENTED_EDGE('',*,*,#668,.T.);
#416=ORIENTED_EDGE('',*,*,#597,.F.);
#417=ORIENTED_EDGE('',*,*,#672,.F.);
#418=ORIENTED_EDGE('',*,*,#569,.F.);
#419=ORIENTED_EDGE('',*,*,#629,.T.);
#420=ORIENTED_EDGE('',*,*,#673,.T.);
#421=ORIENTED_EDGE('',*,*,#623,.T.);
#422=ORIENTED_EDGE('',*,*,#674,.T.);
#423=ORIENTED_EDGE('',*,*,#577,.F.);
#424=ORIENTED_EDGE('',*,*,#565,.T.);
#425=ORIENTED_EDGE('',*,*,#675,.T.);
#426=ORIENTED_EDGE('',*,*,#634,.T.);
#427=ORIENTED_EDGE('',*,*,#564,.T.);
#428=ORIENTED_EDGE('',*,*,#676,.T.);
#429=ORIENTED_EDGE('',*,*,#635,.T.);
#430=ORIENTED_EDGE('',*,*,#675,.F.);
#431=ORIENTED_EDGE('',*,*,#622,.T.);
#432=ORIENTED_EDGE('',*,*,#677,.T.);
#433=ORIENTED_EDGE('',*,*,#580,.T.);
#434=ORIENTED_EDGE('',*,*,#678,.T.);
#435=ORIENTED_EDGE('',*,*,#584,.T.);
#436=ORIENTED_EDGE('',*,*,#636,.T.);
#437=ORIENTED_EDGE('',*,*,#676,.F.);
#438=ORIENTED_EDGE('',*,*,#563,.T.);
#439=ORIENTED_EDGE('',*,*,#625,.T.);
#440=ORIENTED_EDGE('',*,*,#679,.T.);
#441=ORIENTED_EDGE('',*,*,#627,.T.);
#442=ORIENTED_EDGE('',*,*,#633,.T.);
#443=ORIENTED_EDGE('',*,*,#680,.T.);
#444=ORIENTED_EDGE('',*,*,#567,.T.);
#445=ORIENTED_EDGE('',*,*,#579,.F.);
#446=ORIENTED_EDGE('',*,*,#681,.T.);
#447=ORIENTED_EDGE('',*,*,#582,.T.);
#448=ORIENTED_EDGE('',*,*,#682,.T.);
#449=ORIENTED_EDGE('',*,*,#620,.T.);
#450=ORIENTED_EDGE('',*,*,#561,.T.);
#451=ORIENTED_EDGE('',*,*,#683,.F.);
#452=ORIENTED_EDGE('',*,*,#631,.T.);
#453=ORIENTED_EDGE('',*,*,#586,.T.);
#454=ORIENTED_EDGE('',*,*,#684,.T.);
#455=ORIENTED_EDGE('',*,*,#568,.T.);
#456=ORIENTED_EDGE('',*,*,#680,.F.);
#457=ORIENTED_EDGE('',*,*,#632,.T.);
#458=ORIENTED_EDGE('',*,*,#683,.T.);
#459=ORIENTED_EDGE('',*,*,#556,.T.);
#460=ORIENTED_EDGE('',*,*,#685,.F.);
#461=ORIENTED_EDGE('',*,*,#588,.T.);
#462=ORIENTED_EDGE('',*,*,#551,.T.);
#463=ORIENTED_EDGE('',*,*,#548,.T.);
#464=ORIENTED_EDGE('',*,*,#545,.T.);
#465=ORIENTED_EDGE('',*,*,#643,.T.);
#466=ORIENTED_EDGE('',*,*,#686,.T.);
#467=ORIENTED_EDGE('',*,*,#554,.T.);
#468=ORIENTED_EDGE('',*,*,#687,.F.);
#469=ORIENTED_EDGE('',*,*,#648,.T.);
#470=ORIENTED_EDGE('',*,*,#652,.T.);
#471=ORIENTED_EDGE('',*,*,#653,.T.);
#472=ORIENTED_EDGE('',*,*,#657,.T.);
#473=ORIENTED_EDGE('',*,*,#590,.T.);
#474=ORIENTED_EDGE('',*,*,#688,.T.);
#475=ORIENTED_EDGE('',*,*,#553,.T.);
#476=ORIENTED_EDGE('',*,*,#686,.F.);
#477=ORIENTED_EDGE('',*,*,#649,.T.);
#478=ORIENTED_EDGE('',*,*,#687,.T.);
#479=ORIENTED_EDGE('',*,*,#555,.T.);
#480=ORIENTED_EDGE('',*,*,#688,.F.);
#481=ORIENTED_EDGE('',*,*,#589,.T.);
#482=ORIENTED_EDGE('',*,*,#685,.T.);
#483=ORIENTED_EDGE('',*,*,#559,.T.);
#484=ORIENTED_EDGE('',*,*,#689,.T.);
#485=ORIENTED_EDGE('',*,*,#593,.T.);
#486=ORIENTED_EDGE('',*,*,#690,.F.);
#487=ORIENTED_EDGE('',*,*,#557,.T.);
#488=ORIENTED_EDGE('',*,*,#691,.T.);
#489=ORIENTED_EDGE('',*,*,#645,.T.);
#490=ORIENTED_EDGE('',*,*,#692,.F.);
#491=ORIENTED_EDGE('',*,*,#558,.T.);
#492=ORIENTED_EDGE('',*,*,#692,.T.);
#493=ORIENTED_EDGE('',*,*,#644,.T.);
#494=ORIENTED_EDGE('',*,*,#543,.T.);
#495=ORIENTED_EDGE('',*,*,#547,.T.);
#496=ORIENTED_EDGE('',*,*,#550,.T.);
#497=ORIENTED_EDGE('',*,*,#594,.T.);
#498=ORIENTED_EDGE('',*,*,#689,.F.);
#499=ORIENTED_EDGE('',*,*,#560,.T.);
#500=ORIENTED_EDGE('',*,*,#690,.T.);
#501=ORIENTED_EDGE('',*,*,#592,.T.);
#502=ORIENTED_EDGE('',*,*,#656,.T.);
#503=ORIENTED_EDGE('',*,*,#654,.T.);
#504=ORIENTED_EDGE('',*,*,#650,.T.);
#505=ORIENTED_EDGE('',*,*,#646,.T.);
#506=ORIENTED_EDGE('',*,*,#691,.F.);
#507=ORIENTED_EDGE('',*,*,#674,.F.);
#508=ORIENTED_EDGE('',*,*,#626,.F.);
#509=ORIENTED_EDGE('',*,*,#681,.F.);
#510=ORIENTED_EDGE('',*,*,#578,.F.);
#511=ORIENTED_EDGE('',*,*,#666,.F.);
#512=ORIENTED_EDGE('',*,*,#618,.F.);
#513=ORIENTED_EDGE('',*,*,#671,.F.);
#514=ORIENTED_EDGE('',*,*,#612,.F.);
#515=ORIENTED_EDGE('',*,*,#669,.F.);
#516=ORIENTED_EDGE('',*,*,#659,.F.);
#517=ORIENTED_EDGE('',*,*,#662,.F.);
#518=ORIENTED_EDGE('',*,*,#616,.F.);
#519=ORIENTED_EDGE('',*,*,#667,.F.);
#520=ORIENTED_EDGE('',*,*,#614,.F.);
#521=ORIENTED_EDGE('',*,*,#661,.F.);
#522=ORIENTED_EDGE('',*,*,#607,.F.);
#523=ORIENTED_EDGE('',*,*,#664,.F.);
#524=ORIENTED_EDGE('',*,*,#610,.F.);
#525=ORIENTED_EDGE('',*,*,#670,.F.);
#526=ORIENTED_EDGE('',*,*,#604,.F.);
#527=ORIENTED_EDGE('',*,*,#641,.F.);
#528=ORIENTED_EDGE('',*,*,#640,.F.);
#529=ORIENTED_EDGE('',*,*,#639,.F.);
#530=ORIENTED_EDGE('',*,*,#638,.F.);
#531=ORIENTED_EDGE('',*,*,#684,.F.);
#532=ORIENTED_EDGE('',*,*,#585,.F.);
#533=ORIENTED_EDGE('',*,*,#678,.F.);
#534=ORIENTED_EDGE('',*,*,#583,.F.);
#535=ORIENTED_EDGE('',*,*,#682,.F.);
#536=ORIENTED_EDGE('',*,*,#581,.F.);
#537=ORIENTED_EDGE('',*,*,#677,.F.);
#538=ORIENTED_EDGE('',*,*,#621,.F.);
#539=ORIENTED_EDGE('',*,*,#673,.F.);
#540=ORIENTED_EDGE('',*,*,#628,.F.);
#541=ORIENTED_EDGE('',*,*,#679,.F.);
#542=ORIENTED_EDGE('',*,*,#624,.F.);
#543=EDGE_CURVE('',#693,#694,#795,.T.);
#544=EDGE_CURVE('',#695,#693,#205,.T.);
#545=EDGE_CURVE('',#696,#695,#796,.T.);
#546=EDGE_CURVE('',#696,#694,#206,.T.);
#547=EDGE_CURVE('',#694,#697,#42,.F.);
#548=EDGE_CURVE('',#698,#696,#43,.T.);
#549=EDGE_CURVE('',#698,#697,#207,.T.);
#550=EDGE_CURVE('',#697,#699,#797,.T.);
#551=EDGE_CURVE('',#700,#698,#798,.T.);
#552=EDGE_CURVE('',#700,#699,#208,.T.);
#553=EDGE_CURVE('',#701,#702,#799,.T.);
#554=EDGE_CURVE('',#703,#701,#44,.T.);
#555=EDGE_CURVE('',#704,#703,#800,.T.);
#556=EDGE_CURVE('',#702,#704,#45,.F.);
#557=EDGE_CURVE('',#705,#706,#801,.T.);
#558=EDGE_CURVE('',#707,#705,#46,.T.);
#559=EDGE_CURVE('',#708,#707,#802,.T.);
#560=EDGE_CURVE('',#706,#708,#47,.F.);
#561=EDGE_CURVE('',#709,#710,#48,.F.);
#562=EDGE_CURVE('',#709,#711,#209,.T.);
#563=EDGE_CURVE('',#712,#711,#49,.T.);
#564=EDGE_CURVE('',#713,#712,#803,.T.);
#565=EDGE_CURVE('',#714,#713,#50,.F.);
#566=EDGE_CURVE('',#714,#715,#210,.T.);
#567=EDGE_CURVE('',#716,#715,#51,.T.);
#568=EDGE_CURVE('',#710,#716,#804,.T.);
#569=EDGE_CURVE('',#717,#718,#805,.T.);
#570=EDGE_CURVE('',#718,#719,#52,.F.);
#571=EDGE_CURVE('',#720,#719,#211,.T.);
#572=EDGE_CURVE('',#720,#721,#53,.T.);
#573=EDGE_CURVE('',#721,#722,#806,.T.);
#574=EDGE_CURVE('',#722,#723,#54,.F.);
#575=EDGE_CURVE('',#724,#723,#212,.T.);
#576=EDGE_CURVE('',#724,#717,#55,.T.);
#577=EDGE_CURVE('',#714,#725,#56,.T.);
#578=EDGE_CURVE('',#725,#726,#213,.T.);
#579=EDGE_CURVE('',#726,#715,#57,.T.);
#580=EDGE_CURVE('',#727,#728,#58,.F.);
#581=EDGE_CURVE('',#727,#729,#214,.F.);
#582=EDGE_CURVE('',#730,#729,#59,.T.);
#583=EDGE_CURVE('',#730,#728,#215,.F.);
#584=EDGE_CURVE('',#731,#732,#60,.T.);
#585=EDGE_CURVE('',#731,#733,#216,.T.);
#586=EDGE_CURVE('',#734,#733,#61,.T.);
#587=EDGE_CURVE('',#734,#732,#217,.T.);
#588=EDGE_CURVE('',#735,#700,#62,.T.);
#589=EDGE_CURVE('',#736,#735,#807,.T.);
#590=EDGE_CURVE('',#737,#736,#63,.F.);
#591=EDGE_CURVE('',#738,#737,#218,.T.);
#592=EDGE_CURVE('',#739,#738,#64,.T.);
#593=EDGE_CURVE('',#740,#739,#808,.T.);
#594=EDGE_CURVE('',#699,#740,#65,.F.);
#595=EDGE_CURVE('',#741,#742,#219,.T.);
#596=EDGE_CURVE('',#742,#743,#66,.T.);
#597=EDGE_CURVE('',#743,#744,#809,.T.);
#598=EDGE_CURVE('',#744,#745,#67,.F.);
#599=EDGE_CURVE('',#745,#746,#220,.T.);
#600=EDGE_CURVE('',#746,#747,#68,.T.);
#601=EDGE_CURVE('',#747,#748,#810,.T.);
#602=EDGE_CURVE('',#748,#741,#69,.F.);
#603=EDGE_CURVE('',#741,#749,#70,.T.);
#604=EDGE_CURVE('',#749,#750,#221,.T.);
#605=EDGE_CURVE('',#750,#742,#71,.T.);
#606=EDGE_CURVE('',#745,#751,#72,.T.);
#607=EDGE_CURVE('',#751,#752,#222,.T.);
#608=EDGE_CURVE('',#752,#746,#73,.T.);
#609=EDGE_CURVE('',#753,#754,#74,.T.);
#610=EDGE_CURVE('',#754,#755,#223,.F.);
#611=EDGE_CURVE('',#755,#756,#75,.F.);
#612=EDGE_CURVE('',#756,#753,#224,.F.);
#613=EDGE_CURVE('',#757,#758,#76,.T.);
#614=EDGE_CURVE('',#758,#759,#225,.F.);
#615=EDGE_CURVE('',#759,#760,#77,.F.);
#616=EDGE_CURVE('',#760,#757,#226,.F.);
#617=EDGE_CURVE('',#719,#761,#78,.T.);
#618=EDGE_CURVE('',#761,#762,#227,.T.);
#619=EDGE_CURVE('',#762,#720,#79,.T.);
#620=EDGE_CURVE('',#763,#709,#80,.T.);
#621=EDGE_CURVE('',#763,#764,#228,.T.);
#622=EDGE_CURVE('',#711,#764,#81,.T.);
#623=EDGE_CURVE('',#765,#766,#82,.T.);
#624=EDGE_CURVE('',#765,#767,#229,.F.);
#625=EDGE_CURVE('',#768,#767,#83,.F.);
#626=EDGE_CURVE('',#768,#766,#230,.F.);
#627=EDGE_CURVE('',#769,#770,#84,.T.);
#628=EDGE_CURVE('',#769,#771,#231,.T.);
#629=EDGE_CURVE('',#772,#771,#85,.T.);
#630=EDGE_CURVE('',#772,#770,#232,.T.);
#631=EDGE_CURVE('',#773,#734,#86,.T.);
#632=EDGE_CURVE('',#774,#773,#811,.T.);
#633=EDGE_CURVE('',#770,#774,#87,.F.);
#634=EDGE_CURVE('',#775,#772,#88,.T.);
#635=EDGE_CURVE('',#776,#775,#812,.T.);
#636=EDGE_CURVE('',#732,#776,#89,.F.);
#637=EDGE_CURVE('',#777,#777,#233,.T.);
#638=EDGE_CURVE('',#778,#778,#234,.T.);
#639=EDGE_CURVE('',#779,#779,#235,.F.);
#640=EDGE_CURVE('',#780,#780,#236,.F.);
#641=EDGE_CURVE('',#781,#781,#237,.T.);
#642=EDGE_CURVE('',#782,#782,#238,.T.);
#643=EDGE_CURVE('',#695,#783,#90,.T.);
#644=EDGE_CURVE('',#784,#693,#91,.F.);
#645=EDGE_CURVE('',#785,#784,#813,.T.);
#646=EDGE_CURVE('',#786,#785,#92,.T.);
#647=EDGE_CURVE('',#786,#787,#239,.T.);
#648=EDGE_CURVE('',#788,#787,#93,.F.);
#649=EDGE_CURVE('',#783,#788,#814,.T.);
#650=EDGE_CURVE('',#789,#786,#815,.T.);
#651=EDGE_CURVE('',#789,#790,#240,.T.);
#652=EDGE_CURVE('',#787,#790,#816,.T.);
#653=EDGE_CURVE('',#790,#791,#94,.F.);
#654=EDGE_CURVE('',#792,#789,#95,.T.);
#655=EDGE_CURVE('',#792,#791,#241,.T.);
#656=EDGE_CURVE('',#738,#792,#817,.T.);
#657=EDGE_CURVE('',#791,#737,#818,.T.);
#658=EDGE_CURVE('',#793,#723,#96,.T.);
#659=EDGE_CURVE('',#793,#794,#242,.T.);
#660=EDGE_CURVE('',#724,#794,#97,.T.);
#661=EDGE_CURVE('',#752,#758,#819,.T.);
#662=EDGE_CURVE('',#757,#793,#820,.T.);
#663=EDGE_CURVE('',#747,#722,#98,.T.);
#664=EDGE_CURVE('',#755,#749,#821,.T.);
#665=EDGE_CURVE('',#748,#721,#99,.T.);
#666=EDGE_CURVE('',#762,#756,#822,.T.);
#667=EDGE_CURVE('',#759,#751,#823,.T.);
#668=EDGE_CURVE('',#717,#744,#100,.T.);
#669=EDGE_CURVE('',#794,#760,#824,.T.);
#670=EDGE_CURVE('',#750,#754,#825,.T.);
#671=EDGE_CURVE('',#753,#761,#826,.T.);
#672=EDGE_CURVE('',#718,#743,#101,.T.);
#673=EDGE_CURVE('',#771,#765,#827,.T.);
#674=EDGE_CURVE('',#766,#725,#828,.T.);
#675=EDGE_CURVE('',#713,#775,#102,.T.);
#676=EDGE_CURVE('',#712,#776,#103,.T.);
#677=EDGE_CURVE('',#764,#727,#829,.T.);
#678=EDGE_CURVE('',#728,#731,#830,.T.);
#679=EDGE_CURVE('',#767,#769,#831,.T.);
#680=EDGE_CURVE('',#774,#716,#104,.T.);
#681=EDGE_CURVE('',#726,#768,#832,.T.);
#682=EDGE_CURVE('',#729,#763,#833,.T.);
#683=EDGE_CURVE('',#773,#710,#105,.T.);
#684=EDGE_CURVE('',#733,#730,#834,.T.);
#685=EDGE_CURVE('',#735,#704,#106,.T.);
#686=EDGE_CURVE('',#783,#702,#107,.T.);
#687=EDGE_CURVE('',#788,#701,#108,.T.);
#688=EDGE_CURVE('',#736,#703,#109,.T.);
#689=EDGE_CURVE('',#707,#740,#110,.T.);
#690=EDGE_CURVE('',#708,#739,#111,.T.);
#691=EDGE_CURVE('',#706,#785,#112,.T.);
#692=EDGE_CURVE('',#705,#784,#113,.T.);
#693=VERTEX_POINT('',#1408);
#694=VERTEX_POINT('',#1409);
#695=VERTEX_POINT('',#1411);
#696=VERTEX_POINT('',#1416);
#697=VERTEX_POINT('',#1420);
#698=VERTEX_POINT('',#1422);
#699=VERTEX_POINT('',#1429);
#700=VERTEX_POINT('',#1434);
#701=VERTEX_POINT('',#1442);
#702=VERTEX_POINT('',#1443);
#703=VERTEX_POINT('',#1445);
#704=VERTEX_POINT('',#1451);
#705=VERTEX_POINT('',#1458);
#706=VERTEX_POINT('',#1459);
#707=VERTEX_POINT('',#1461);
#708=VERTEX_POINT('',#1467);
#709=VERTEX_POINT('',#1470);
#710=VERTEX_POINT('',#1471);
#711=VERTEX_POINT('',#1473);
#712=VERTEX_POINT('',#1475);
#713=VERTEX_POINT('',#1481);
#714=VERTEX_POINT('',#1483);
#715=VERTEX_POINT('',#1485);
#716=VERTEX_POINT('',#1487);
#717=VERTEX_POINT('',#1498);
#718=VERTEX_POINT('',#1499);
#719=VERTEX_POINT('',#1501);
#720=VERTEX_POINT('',#1503);
#721=VERTEX_POINT('',#1505);
#722=VERTEX_POINT('',#1511);
#723=VERTEX_POINT('',#1513);
#724=VERTEX_POINT('',#1515);
#725=VERTEX_POINT('',#1519);
#726=VERTEX_POINT('',#1521);
#727=VERTEX_POINT('',#1525);
#728=VERTEX_POINT('',#1526);
#729=VERTEX_POINT('',#1528);
#730=VERTEX_POINT('',#1530);
#731=VERTEX_POINT('',#1534);
#732=VERTEX_POINT('',#1535);
#733=VERTEX_POINT('',#1537);
#734=VERTEX_POINT('',#1539);
#735=VERTEX_POINT('',#1543);
#736=VERTEX_POINT('',#1549);
#737=VERTEX_POINT('',#1551);
#738=VERTEX_POINT('',#1553);
#739=VERTEX_POINT('',#1555);
#740=VERTEX_POINT('',#1561);
#741=VERTEX_POINT('',#1564);
#742=VERTEX_POINT('',#1565);
#743=VERTEX_POINT('',#1567);
#744=VERTEX_POINT('',#1573);
#745=VERTEX_POINT('',#1575);
#746=VERTEX_POINT('',#1577);
#747=VERTEX_POINT('',#1579);
#748=VERTEX_POINT('',#1585);
#749=VERTEX_POINT('',#1589);
#750=VERTEX_POINT('',#1591);
#751=VERTEX_POINT('',#1595);
#752=VERTEX_POINT('',#1597);
#753=VERTEX_POINT('',#1601);
#754=VERTEX_POINT('',#1602);
#755=VERTEX_POINT('',#1604);
#756=VERTEX_POINT('',#1606);
#757=VERTEX_POINT('',#1610);
#758=VERTEX_POINT('',#1611);
#759=VERTEX_POINT('',#1613);
#760=VERTEX_POINT('',#1615);
#761=VERTEX_POINT('',#1619);
#762=VERTEX_POINT('',#1621);
#763=VERTEX_POINT('',#1625);
#764=VERTEX_POINT('',#1627);
#765=VERTEX_POINT('',#1631);
#766=VERTEX_POINT('',#1632);
#767=VERTEX_POINT('',#1634);
#768=VERTEX_POINT('',#1636);
#769=VERTEX_POINT('',#1640);
#770=VERTEX_POINT('',#1641);
#771=VERTEX_POINT('',#1643);
#772=VERTEX_POINT('',#1645);
#773=VERTEX_POINT('',#1649);
#774=VERTEX_POINT('',#1655);
#775=VERTEX_POINT('',#1658);
#776=VERTEX_POINT('',#1664);
#777=VERTEX_POINT('',#1667);
#778=VERTEX_POINT('',#1670);
#779=VERTEX_POINT('',#1673);
#780=VERTEX_POINT('',#1675);
#781=VERTEX_POINT('',#1678);
#782=VERTEX_POINT('',#1680);
#783=VERTEX_POINT('',#1683);
#784=VERTEX_POINT('',#1685);
#785=VERTEX_POINT('',#1691);
#786=VERTEX_POINT('',#1693);
#787=VERTEX_POINT('',#1695);
#788=VERTEX_POINT('',#1697);
#789=VERTEX_POINT('',#1708);
#790=VERTEX_POINT('',#1710);
#791=VERTEX_POINT('',#1717);
#792=VERTEX_POINT('',#1719);
#793=VERTEX_POINT('',#1732);
#794=VERTEX_POINT('',#1734);
#795=B_SPLINE_CURVE_WITH_KNOTS('',3,(#1404,#1405,#1406,#1407),
 .UNSPECIFIED.,.F.,.F.,(4,4),(0.000539731322927417,0.000697053955654463),
 .UNSPECIFIED.);
#796=B_SPLINE_CURVE_WITH_KNOTS('',3,(#1412,#1413,#1414,#1415),
 .UNSPECIFIED.,.F.,.F.,(4,4),(0.000332629154576932,0.000490014803030232),
 .UNSPECIFIED.);
#797=B_SPLINE_CURVE_WITH_KNOTS('',3,(#1425,#1426,#1427,#1428),
 .UNSPECIFIED.,.F.,.F.,(4,4),(0.000603743087234211,0.000761010144736176),
 .UNSPECIFIED.);
#798=B_SPLINE_CURVE_WITH_KNOTS('',3,(#1430,#1431,#1432,#1433),
 .UNSPECIFIED.,.F.,.F.,(4,4),(0.000139799129008801,0.000297299725298664),
 .UNSPECIFIED.);
#799=B_SPLINE_CURVE_WITH_KNOTS('',3,(#1437,#1438,#1439,#1440,#1441),
 .UNSPECIFIED.,.F.,.F.,(4,1,4),(0.,0.000626703356852403,0.00125340671370481),
 .UNSPECIFIED.);
#800=B_SPLINE_CURVE_WITH_KNOTS('',3,(#1446,#1447,#1448,#1449,#1450),
 .UNSPECIFIED.,.F.,.F.,(4,1,4),(0.,0.000626703356852404,0.00125340671370481),
 .UNSPECIFIED.);
#801=B_SPLINE_CURVE_WITH_KNOTS('',3,(#1453,#1454,#1455,#1456,#1457),
 .UNSPECIFIED.,.F.,.F.,(4,1,4),(0.,0.000626703356852406,0.00125340671370481),
 .UNSPECIFIED.);
#802=B_SPLINE_CURVE_WITH_KNOTS('',3,(#1462,#1463,#1464,#1465,#1466),
 .UNSPECIFIED.,.F.,.F.,(4,1,4),(0.,0.000626703356852402,0.0012534067137048),
 .UNSPECIFIED.);
#803=B_SPLINE_CURVE_WITH_KNOTS('',3,(#1476,#1477,#1478,#1479,#1480),
 .UNSPECIFIED.,.F.,.F.,(4,1,4),(0.,0.000626703356879766,0.00125340671375953),
 .UNSPECIFIED.);
#804=B_SPLINE_CURVE_WITH_KNOTS('',3,(#1488,#1489,#1490,#1491,#1492),
 .UNSPECIFIED.,.F.,.F.,(4,1,4),(0.,0.000626703356879766,0.00125340671375953),
 .UNSPECIFIED.);
#805=B_SPLINE_CURVE_WITH_KNOTS('',3,(#1493,#1494,#1495,#1496,#1497),
 .UNSPECIFIED.,.F.,.F.,(4,1,4),(0.,0.000626703356852404,0.00125340671370481),
 .UNSPECIFIED.);
#806=B_SPLINE_CURVE_WITH_KNOTS('',3,(#1506,#1507,#1508,#1509,#1510),
 .UNSPECIFIED.,.F.,.F.,(4,1,4),(5.42101086242752E-20,0.000626703356852404,
0.00125340671370481),.UNSPECIFIED.);
#807=B_SPLINE_CURVE_WITH_KNOTS('',3,(#1544,#1545,#1546,#1547,#1548),
 .UNSPECIFIED.,.F.,.F.,(4,1,4),(0.,0.000626227329652794,0.00125245465930559),
 .UNSPECIFIED.);
#808=B_SPLINE_CURVE_WITH_KNOTS('',3,(#1556,#1557,#1558,#1559,#1560),
 .UNSPECIFIED.,.F.,.F.,(4,1,4),(0.,0.000626227329652794,0.00125245465930559),
 .UNSPECIFIED.);
#809=B_SPLINE_CURVE_WITH_KNOTS('',3,(#1568,#1569,#1570,#1571,#1572),
 .UNSPECIFIED.,.F.,.F.,(4,1,4),(0.,0.000626227329652796,0.00125245465930559),
 .UNSPECIFIED.);
#810=B_SPLINE_CURVE_WITH_KNOTS('',3,(#1580,#1581,#1582,#1583,#1584),
 .UNSPECIFIED.,.F.,.F.,(4,1,4),(0.,0.000626227329652796,0.00125245465930559),
 .UNSPECIFIED.);
#811=B_SPLINE_CURVE_WITH_KNOTS('',3,(#1650,#1651,#1652,#1653,#1654),
 .UNSPECIFIED.,.F.,.F.,(4,1,4),(0.,0.000626227329680095,0.00125245465936019),
 .UNSPECIFIED.);
#812=B_SPLINE_CURVE_WITH_KNOTS('',3,(#1659,#1660,#1661,#1662,#1663),
 .UNSPECIFIED.,.F.,.F.,(4,1,4),(0.,0.000626227329680096,0.00125245465936019),
 .UNSPECIFIED.);
#813=B_SPLINE_CURVE_WITH_KNOTS('',3,(#1686,#1687,#1688,#1689,#1690),
 .UNSPECIFIED.,.F.,.F.,(4,1,4),(0.,0.000626227329652795,0.00125245465930559),
 .UNSPECIFIED.);
#814=B_SPLINE_CURVE_WITH_KNOTS('',3,(#1698,#1699,#1700,#1701,#1702),
 .UNSPECIFIED.,.F.,.F.,(4,1,4),(0.,0.000626227329652795,0.00125245465930559),
 .UNSPECIFIED.);
#815=B_SPLINE_CURVE_WITH_KNOTS('',3,(#1704,#1705,#1706,#1707),
 .UNSPECIFIED.,.F.,.F.,(4,4),(0.000562464184410695,0.000719730631060575),
 .UNSPECIFIED.);
#816=B_SPLINE_CURVE_WITH_KNOTS('',3,(#1711,#1712,#1713,#1714),
 .UNSPECIFIED.,.F.,.F.,(4,4),(0.000139799129008805,0.000297299725298668),
 .UNSPECIFIED.);
#817=B_SPLINE_CURVE_WITH_KNOTS('',3,(#1722,#1723,#1724,#1725),
 .UNSPECIFIED.,.F.,.F.,(4,4),(0.000498573724838419,0.000655901984718422),
 .UNSPECIFIED.);
#818=B_SPLINE_CURVE_WITH_KNOTS('',3,(#1726,#1727,#1728,#1729),
 .UNSPECIFIED.,.F.,.F.,(4,4),(0.000332629154576941,0.000490014803030237),
 .UNSPECIFIED.);
#819=B_SPLINE_CURVE_WITH_KNOTS('',3,(#1737,#1738,#1739,#1740),
 .UNSPECIFIED.,.F.,.F.,(4,4),(0.,0.000157204075759016),.UNSPECIFIED.);
#820=B_SPLINE_CURVE_WITH_KNOTS('',3,(#1741,#1742,#1743,#1744),
 .UNSPECIFIED.,.F.,.F.,(4,4),(0.,0.000157202770432765),.UNSPECIFIED.);
#821=B_SPLINE_CURVE_WITH_KNOTS('',3,(#1747,#1748,#1749,#1750),
 .UNSPECIFIED.,.F.,.F.,(4,4),(0.,0.000157202770432761),.UNSPECIFIED.);
#822=B_SPLINE_CURVE_WITH_KNOTS('',3,(#1752,#1753,#1754,#1755),
 .UNSPECIFIED.,.F.,.F.,(4,4),(5.63785129692462E-18,0.000157204075759023),
 .UNSPECIFIED.);
#823=B_SPLINE_CURVE_WITH_KNOTS('',3,(#1758,#1759,#1760,#1761),
 .UNSPECIFIED.,.F.,.F.,(4,4),(0.,0.000157202770432759),.UNSPECIFIED.);
#824=B_SPLINE_CURVE_WITH_KNOTS('',3,(#1763,#1764,#1765,#1766),
 .UNSPECIFIED.,.F.,.F.,(4,4),(4.77048955893622E-18,0.000157204075759023),
 .UNSPECIFIED.);
#825=B_SPLINE_CURVE_WITH_KNOTS('',3,(#1768,#1769,#1770,#1771),
 .UNSPECIFIED.,.F.,.F.,(4,4),(0.,0.000157204075759016),.UNSPECIFIED.);
#826=B_SPLINE_CURVE_WITH_KNOTS('',3,(#1772,#1773,#1774,#1775),
 .UNSPECIFIED.,.F.,.F.,(4,4),(0.,0.000157202770432768),.UNSPECIFIED.);
#827=B_SPLINE_CURVE_WITH_KNOTS('',3,(#1779,#1780,#1781,#1782),
 .UNSPECIFIED.,.F.,.F.,(4,4),(0.,0.000157204075759109),.UNSPECIFIED.);
#828=B_SPLINE_CURVE_WITH_KNOTS('',3,(#1783,#1784,#1785,#1786),
 .UNSPECIFIED.,.F.,.F.,(4,4),(0.,0.00015720277043285),.UNSPECIFIED.);
#829=B_SPLINE_CURVE_WITH_KNOTS('',3,(#1791,#1792,#1793,#1794),
 .UNSPECIFIED.,.F.,.F.,(4,4),(2.60208521396521E-18,0.000157204075759105),
 .UNSPECIFIED.);
#830=B_SPLINE_CURVE_WITH_KNOTS('',3,(#1795,#1796,#1797,#1798),
 .UNSPECIFIED.,.F.,.F.,(4,4),(0.,0.000157202770432848),.UNSPECIFIED.);
#831=B_SPLINE_CURVE_WITH_KNOTS('',3,(#1800,#1801,#1802,#1803),
 .UNSPECIFIED.,.F.,.F.,(4,4),(0.,0.000157202770432848),.UNSPECIFIED.);
#832=B_SPLINE_CURVE_WITH_KNOTS('',3,(#1805,#1806,#1807,#1808),
 .UNSPECIFIED.,.F.,.F.,(4,4),(2.60208521396521E-18,0.000157204075759105),
 .UNSPECIFIED.);
#833=B_SPLINE_CURVE_WITH_KNOTS('',3,(#1810,#1811,#1812,#1813),
 .UNSPECIFIED.,.F.,.F.,(4,4),(0.,0.00015720277043285),.UNSPECIFIED.);
#834=B_SPLINE_CURVE_WITH_KNOTS('',3,(#1815,#1816,#1817,#1818),
 .UNSPECIFIED.,.F.,.F.,(4,4),(0.,0.000157204075759109),.UNSPECIFIED.);
#835=EDGE_LOOP('',(#243,#244,#245,#246));
#836=EDGE_LOOP('',(#247,#248,#249,#250));
#837=EDGE_LOOP('',(#251,#252,#253,#254));
#838=EDGE_LOOP('',(#255,#256,#257,#258));
#839=EDGE_LOOP('',(#259,#260,#261,#262));
#840=EDGE_LOOP('',(#263,#264,#265,#266,#267,#268,#269,#270));
#841=EDGE_LOOP('',(#271,#272,#273,#274,#275,#276,#277,#278));
#842=EDGE_LOOP('',(#279,#280,#281,#282));
#843=EDGE_LOOP('',(#283,#284,#285,#286));
#844=EDGE_LOOP('',(#287,#288,#289,#290));
#845=EDGE_LOOP('',(#291,#292,#293,#294,#295,#296,#297,#298));
#846=EDGE_LOOP('',(#299,#300,#301,#302,#303,#304,#305,#306));
#847=EDGE_LOOP('',(#307,#308,#309,#310));
#848=EDGE_LOOP('',(#311,#312,#313,#314));
#849=EDGE_LOOP('',(#315,#316,#317,#318));
#850=EDGE_LOOP('',(#319,#320,#321,#322));
#851=EDGE_LOOP('',(#323,#324,#325,#326));
#852=EDGE_LOOP('',(#327,#328,#329,#330));
#853=EDGE_LOOP('',(#331,#332,#333,#334));
#854=EDGE_LOOP('',(#335,#336,#337,#338));
#855=EDGE_LOOP('',(#339,#340,#341,#342,#343,#344,#345,#346));
#856=EDGE_LOOP('',(#347));
#857=EDGE_LOOP('',(#348));
#858=EDGE_LOOP('',(#349));
#859=EDGE_LOOP('',(#350));
#860=EDGE_LOOP('',(#351));
#861=EDGE_LOOP('',(#352));
#862=EDGE_LOOP('',(#353));
#863=EDGE_LOOP('',(#354,#355,#356,#357,#358,#359,#360,#361));
#864=EDGE_LOOP('',(#362));
#865=EDGE_LOOP('',(#363,#364,#365,#366));
#866=EDGE_LOOP('',(#367,#368,#369,#370));
#867=EDGE_LOOP('',(#371,#372,#373,#374));
#868=EDGE_LOOP('',(#375,#376,#377,#378));
#869=EDGE_LOOP('',(#379,#380,#381,#382,#383,#384,#385,#386));
#870=EDGE_LOOP('',(#387,#388,#389,#390,#391,#392,#393,#394));
#871=EDGE_LOOP('',(#395,#396,#397,#398));
#872=EDGE_LOOP('',(#399,#400,#401,#402,#403,#404,#405,#406));
#873=EDGE_LOOP('',(#407,#408,#409,#410,#411,#412,#413,#414));
#874=EDGE_LOOP('',(#415,#416,#417,#418));
#875=EDGE_LOOP('',(#419,#420,#421,#422,#423,#424,#425,#426));
#876=EDGE_LOOP('',(#427,#428,#429,#430));
#877=EDGE_LOOP('',(#431,#432,#433,#434,#435,#436,#437,#438));
#878=EDGE_LOOP('',(#439,#440,#441,#442,#443,#444,#445,#446));
#879=EDGE_LOOP('',(#447,#448,#449,#450,#451,#452,#453,#454));
#880=EDGE_LOOP('',(#455,#456,#457,#458));
#881=EDGE_LOOP('',(#459,#460,#461,#462,#463,#464,#465,#466));
#882=EDGE_LOOP('',(#467,#468,#469,#470,#471,#472,#473,#474));
#883=EDGE_LOOP('',(#475,#476,#477,#478));
#884=EDGE_LOOP('',(#479,#480,#481,#482));
#885=EDGE_LOOP('',(#483,#484,#485,#486));
#886=EDGE_LOOP('',(#487,#488,#489,#490));
#887=EDGE_LOOP('',(#491,#492,#493,#494,#495,#496,#497,#498));
#888=EDGE_LOOP('',(#499,#500,#501,#502,#503,#504,#505,#506));
#889=EDGE_LOOP('',(#507,#508,#509,#510));
#890=EDGE_LOOP('',(#511,#512,#513,#514));
#891=EDGE_LOOP('',(#515,#516,#517,#518));
#892=EDGE_LOOP('',(#519,#520,#521,#522));
#893=EDGE_LOOP('',(#523,#524,#525,#526));
#894=EDGE_LOOP('',(#527));
#895=EDGE_LOOP('',(#528));
#896=EDGE_LOOP('',(#529));
#897=EDGE_LOOP('',(#530));
#898=EDGE_LOOP('',(#531,#532,#533,#534));
#899=EDGE_LOOP('',(#535,#536,#537,#538));
#900=EDGE_LOOP('',(#539,#540,#541,#542));
#901=FACE_BOUND('',#835,.T.);
#902=FACE_BOUND('',#836,.T.);
#903=FACE_BOUND('',#837,.T.);
#904=FACE_BOUND('',#838,.T.);
#905=FACE_BOUND('',#839,.T.);
#906=FACE_BOUND('',#840,.T.);
#907=FACE_BOUND('',#841,.T.);
#908=FACE_BOUND('',#842,.T.);
#909=FACE_BOUND('',#843,.T.);
#910=FACE_BOUND('',#844,.T.);
#911=FACE_BOUND('',#845,.T.);
#912=FACE_BOUND('',#846,.T.);
#913=FACE_BOUND('',#847,.T.);
#914=FACE_BOUND('',#848,.T.);
#915=FACE_BOUND('',#849,.T.);
#916=FACE_BOUND('',#850,.T.);
#917=FACE_BOUND('',#851,.T.);
#918=FACE_BOUND('',#852,.T.);
#919=FACE_BOUND('',#853,.T.);
#920=FACE_BOUND('',#854,.T.);
#921=FACE_BOUND('',#855,.T.);
#922=FACE_BOUND('',#856,.T.);
#923=FACE_BOUND('',#857,.T.);
#924=FACE_BOUND('',#858,.T.);
#925=FACE_BOUND('',#859,.T.);
#926=FACE_BOUND('',#860,.T.);
#927=FACE_BOUND('',#861,.T.);
#928=FACE_BOUND('',#862,.T.);
#929=FACE_BOUND('',#863,.T.);
#930=FACE_BOUND('',#864,.T.);
#931=FACE_BOUND('',#865,.T.);
#932=FACE_BOUND('',#866,.T.);
#933=FACE_BOUND('',#867,.T.);
#934=FACE_BOUND('',#868,.T.);
#935=FACE_BOUND('',#869,.T.);
#936=FACE_BOUND('',#870,.T.);
#937=FACE_BOUND('',#871,.T.);
#938=FACE_BOUND('',#872,.T.);
#939=FACE_BOUND('',#873,.T.);
#940=FACE_BOUND('',#874,.T.);
#941=FACE_BOUND('',#875,.T.);
#942=FACE_BOUND('',#876,.T.);
#943=FACE_BOUND('',#877,.T.);
#944=FACE_BOUND('',#878,.T.);
#945=FACE_BOUND('',#879,.T.);
#946=FACE_BOUND('',#880,.T.);
#947=FACE_BOUND('',#881,.T.);
#948=FACE_BOUND('',#882,.T.);
#949=FACE_BOUND('',#883,.T.);
#950=FACE_BOUND('',#884,.T.);
#951=FACE_BOUND('',#885,.T.);
#952=FACE_BOUND('',#886,.T.);
#953=FACE_BOUND('',#887,.T.);
#954=FACE_BOUND('',#888,.T.);
#955=FACE_BOUND('',#889,.T.);
#956=FACE_BOUND('',#890,.T.);
#957=FACE_BOUND('',#891,.T.);
#958=FACE_BOUND('',#892,.T.);
#959=FACE_BOUND('',#893,.T.);
#960=FACE_BOUND('',#894,.T.);
#961=FACE_BOUND('',#895,.T.);
#962=FACE_BOUND('',#896,.T.);
#963=FACE_BOUND('',#897,.T.);
#964=FACE_BOUND('',#898,.T.);
#965=FACE_BOUND('',#899,.T.);
#966=FACE_BOUND('',#900,.T.);
#967=TOROIDAL_SURFACE('',#1049,2.4,0.1);
#968=TOROIDAL_SURFACE('',#1054,2.4,0.1);
#969=TOROIDAL_SURFACE('',#1105,2.4,0.1);
#970=TOROIDAL_SURFACE('',#1109,2.4,0.1);
#971=TOROIDAL_SURFACE('',#1132,2.5,0.1);
#972=TOROIDAL_SURFACE('',#1133,2.5,0.1);
#973=TOROIDAL_SURFACE('',#1134,2.5,0.1);
#974=TOROIDAL_SURFACE('',#1135,2.5,0.1);
#975=TOROIDAL_SURFACE('',#1136,2.5,0.1);
#976=TOROIDAL_SURFACE('',#1137,3.,0.1);
#977=TOROIDAL_SURFACE('',#1138,3.,0.1);
#978=TOROIDAL_SURFACE('',#1139,2.5,0.1);
#979=TOROIDAL_SURFACE('',#1140,2.5,0.1);
#980=TOROIDAL_SURFACE('',#1141,2.5,0.1);
#981=ADVANCED_FACE('',(#901),#967,.T.);
#982=ADVANCED_FACE('',(#902),#186,.T.);
#983=ADVANCED_FACE('',(#903),#968,.T.);
#984=ADVANCED_FACE('',(#904,#905,#906,#907),#187,.F.);
#985=ADVANCED_FACE('',(#908),#20,.T.);
#986=ADVANCED_FACE('',(#909),#188,.T.);
#987=ADVANCED_FACE('',(#910),#21,.T.);
#988=ADVANCED_FACE('',(#911,#912),#189,.T.);
#989=ADVANCED_FACE('',(#913),#22,.T.);
#990=ADVANCED_FACE('',(#914),#23,.T.);
#991=ADVANCED_FACE('',(#915),#190,.T.);
#992=ADVANCED_FACE('',(#916),#191,.T.);
#993=ADVANCED_FACE('',(#917),#24,.T.);
#994=ADVANCED_FACE('',(#918),#25,.T.);
#995=ADVANCED_FACE('',(#919),#192,.T.);
#996=ADVANCED_FACE('',(#920),#26,.T.);
#997=ADVANCED_FACE('',(#921,#922),#193,.T.);
#998=ADVANCED_FACE('',(#923,#924),#27,.T.);
#999=ADVANCED_FACE('',(#925,#926),#194,.T.);
#1000=ADVANCED_FACE('',(#927,#928),#28,.T.);
#1001=ADVANCED_FACE('',(#929,#930),#195,.T.);
#1002=ADVANCED_FACE('',(#931),#969,.T.);
#1003=ADVANCED_FACE('',(#932),#196,.T.);
#1004=ADVANCED_FACE('',(#933),#970,.T.);
#1005=ADVANCED_FACE('',(#934),#29,.T.);
#1006=ADVANCED_FACE('',(#935),#30,.T.);
#1007=ADVANCED_FACE('',(#936),#31,.T.);
#1008=ADVANCED_FACE('',(#937),#197,.F.);
#1009=ADVANCED_FACE('',(#938),#32,.T.);
#1010=ADVANCED_FACE('',(#939),#33,.T.);
#1011=ADVANCED_FACE('',(#940),#198,.F.);
#1012=ADVANCED_FACE('',(#941),#34,.F.);
#1013=ADVANCED_FACE('',(#942),#199,.F.);
#1014=ADVANCED_FACE('',(#943),#35,.F.);
#1015=ADVANCED_FACE('',(#944),#36,.F.);
#1016=ADVANCED_FACE('',(#945),#37,.F.);
#1017=ADVANCED_FACE('',(#946),#200,.F.);
#1018=ADVANCED_FACE('',(#947),#38,.F.);
#1019=ADVANCED_FACE('',(#948),#39,.F.);
#1020=ADVANCED_FACE('',(#949),#201,.F.);
#1021=ADVANCED_FACE('',(#950),#202,.F.);
#1022=ADVANCED_FACE('',(#951),#203,.F.);
#1023=ADVANCED_FACE('',(#952),#204,.F.);
#1024=ADVANCED_FACE('',(#953),#40,.F.);
#1025=ADVANCED_FACE('',(#954),#41,.F.);
#1026=ADVANCED_FACE('',(#955),#971,.T.);
#1027=ADVANCED_FACE('',(#956),#972,.T.);
#1028=ADVANCED_FACE('',(#957),#973,.T.);
#1029=ADVANCED_FACE('',(#958),#974,.T.);
#1030=ADVANCED_FACE('',(#959),#975,.T.);
#1031=ADVANCED_FACE('',(#960,#961),#976,.T.);
#1032=ADVANCED_FACE('',(#962,#963),#977,.T.);
#1033=ADVANCED_FACE('',(#964),#978,.T.);
#1034=ADVANCED_FACE('',(#965),#979,.T.);
#1035=ADVANCED_FACE('',(#966),#980,.T.);
#1036=CLOSED_SHELL('',(#981,#982,#983,#984,#985,#986,#987,#988,#989,#990,
#991,#992,#993,#994,#995,#996,#997,#998,#999,#1000,#1001,#1002,#1003,#1004,
#1005,#1006,#1007,#1008,#1009,#1010,#1011,#1012,#1013,#1014,#1015,#1016,
#1017,#1018,#1019,#1020,#1021,#1022,#1023,#1024,#1025,#1026,#1027,#1028,
#1029,#1030,#1031,#1032,#1033,#1034,#1035));
#1037=STYLED_ITEM('',(#1038),#1045);
#1038=PRESENTATION_STYLE_ASSIGNMENT((#1039));
#1039=SURFACE_STYLE_USAGE(.BOTH.,#1040);
#1040=SURFACE_SIDE_STYLE('',(#1041));
#1041=SURFACE_STYLE_FILL_AREA(#1042);
#1042=FILL_AREA_STYLE('',(#1043));
#1043=FILL_AREA_STYLE_COLOUR('',#1044);
#1044=COLOUR_RGB('',0.749019622802734,0.665650486946106,0.449411779642105);
#1045=MANIFOLD_SOLID_BREP('',#1036);
#1046=SHAPE_DEFINITION_REPRESENTATION(#1852,#1047);
#1047=SHAPE_REPRESENTATION('Sand_4514554_MCM',(#1048),#1847);
#1048=AXIS2_PLACEMENT_3D('',#1402,#1142,#1143);
#1049=AXIS2_PLACEMENT_3D('',#1403,#1144,#1145);
#1050=AXIS2_PLACEMENT_3D('',#1410,#1146,#1147);
#1051=AXIS2_PLACEMENT_3D('',#1417,#1148,#1149);
#1052=AXIS2_PLACEMENT_3D('',#1418,#1150,#1151);
#1053=AXIS2_PLACEMENT_3D('',#1423,#1154,#1155);
#1054=AXIS2_PLACEMENT_3D('',#1424,#1156,#1157);
#1055=AXIS2_PLACEMENT_3D('',#1435,#1158,#1159);
#1056=AXIS2_PLACEMENT_3D('',#1436,#1160,#1161);
#1057=AXIS2_PLACEMENT_3D('',#1472,#1167,#1168);
#1058=AXIS2_PLACEMENT_3D('',#1484,#1171,#1172);
#1059=AXIS2_PLACEMENT_3D('',#1502,#1175,#1176);
#1060=AXIS2_PLACEMENT_3D('',#1514,#1179,#1180);
#1061=AXIS2_PLACEMENT_3D('',#1517,#1182,#1183);
#1062=AXIS2_PLACEMENT_3D('',#1520,#1185,#1186);
#1063=AXIS2_PLACEMENT_3D('',#1523,#1188,#1189);
#1064=AXIS2_PLACEMENT_3D('',#1527,#1191,#1192);
#1065=AXIS2_PLACEMENT_3D('',#1531,#1194,#1195);
#1066=AXIS2_PLACEMENT_3D('',#1532,#1196,#1197);
#1067=AXIS2_PLACEMENT_3D('',#1536,#1199,#1200);
#1068=AXIS2_PLACEMENT_3D('',#1540,#1202,#1203);
#1069=AXIS2_PLACEMENT_3D('',#1541,#1204,#1205);
#1070=AXIS2_PLACEMENT_3D('',#1552,#1208,#1209);
#1071=AXIS2_PLACEMENT_3D('',#1563,#1212,#1213);
#1072=AXIS2_PLACEMENT_3D('',#1576,#1216,#1217);
#1073=AXIS2_PLACEMENT_3D('',#1587,#1220,#1221);
#1074=AXIS2_PLACEMENT_3D('',#1590,#1223,#1224);
#1075=AXIS2_PLACEMENT_3D('',#1593,#1226,#1227);
#1076=AXIS2_PLACEMENT_3D('',#1596,#1229,#1230);
#1077=AXIS2_PLACEMENT_3D('',#1599,#1232,#1233);
#1078=AXIS2_PLACEMENT_3D('',#1603,#1235,#1236);
#1079=AXIS2_PLACEMENT_3D('',#1607,#1238,#1239);
#1080=AXIS2_PLACEMENT_3D('',#1608,#1240,#1241);
#1081=AXIS2_PLACEMENT_3D('',#1612,#1243,#1244);
#1082=AXIS2_PLACEMENT_3D('',#1616,#1246,#1247);
#1083=AXIS2_PLACEMENT_3D('',#1617,#1248,#1249);
#1084=AXIS2_PLACEMENT_3D('',#1620,#1251,#1252);
#1085=AXIS2_PLACEMENT_3D('',#1623,#1254,#1255);
#1086=AXIS2_PLACEMENT_3D('',#1626,#1257,#1258);
#1087=AXIS2_PLACEMENT_3D('',#1629,#1260,#1261);
#1088=AXIS2_PLACEMENT_3D('',#1633,#1263,#1264);
#1089=AXIS2_PLACEMENT_3D('',#1637,#1266,#1267);
#1090=AXIS2_PLACEMENT_3D('',#1638,#1268,#1269);
#1091=AXIS2_PLACEMENT_3D('',#1642,#1271,#1272);
#1092=AXIS2_PLACEMENT_3D('',#1646,#1274,#1275);
#1093=AXIS2_PLACEMENT_3D('',#1647,#1276,#1277);
#1094=AXIS2_PLACEMENT_3D('',#1666,#1282,#1283);
#1095=AXIS2_PLACEMENT_3D('',#1668,#1284,#1285);
#1096=AXIS2_PLACEMENT_3D('',#1669,#1286,#1287);
#1097=AXIS2_PLACEMENT_3D('',#1671,#1288,#1289);
#1098=AXIS2_PLACEMENT_3D('',#1672,#1290,#1291);
#1099=AXIS2_PLACEMENT_3D('',#1674,#1292,#1293);
#1100=AXIS2_PLACEMENT_3D('',#1676,#1294,#1295);
#1101=AXIS2_PLACEMENT_3D('',#1677,#1296,#1297);
#1102=AXIS2_PLACEMENT_3D('',#1679,#1298,#1299);
#1103=AXIS2_PLACEMENT_3D('',#1681,#1300,#1301);
#1104=AXIS2_PLACEMENT_3D('',#1694,#1305,#1306);
#1105=AXIS2_PLACEMENT_3D('',#1703,#1308,#1309);
#1106=AXIS2_PLACEMENT_3D('',#1709,#1310,#1311);
#1107=AXIS2_PLACEMENT_3D('',#1715,#1312,#1313);
#1108=AXIS2_PLACEMENT_3D('',#1720,#1316,#1317);
#1109=AXIS2_PLACEMENT_3D('',#1721,#1318,#1319);
#1110=AXIS2_PLACEMENT_3D('',#1730,#1320,#1321);
#1111=AXIS2_PLACEMENT_3D('',#1733,#1323,#1324);
#1112=AXIS2_PLACEMENT_3D('',#1736,#1326,#1327);
#1113=AXIS2_PLACEMENT_3D('',#1746,#1329,#1330);
#1114=AXIS2_PLACEMENT_3D('',#1756,#1332,#1333);
#1115=AXIS2_PLACEMENT_3D('',#1757,#1334,#1335);
#1116=AXIS2_PLACEMENT_3D('',#1767,#1337,#1338);
#1117=AXIS2_PLACEMENT_3D('',#1777,#1340,#1341);
#1118=AXIS2_PLACEMENT_3D('',#1778,#1342,#1343);
#1119=AXIS2_PLACEMENT_3D('',#1788,#1345,#1346);
#1120=AXIS2_PLACEMENT_3D('',#1790,#1348,#1349);
#1121=AXIS2_PLACEMENT_3D('',#1799,#1350,#1351);
#1122=AXIS2_PLACEMENT_3D('',#1809,#1353,#1354);
#1123=AXIS2_PLACEMENT_3D('',#1819,#1356,#1357);
#1124=AXIS2_PLACEMENT_3D('',#1820,#1358,#1359);
#1125=AXIS2_PLACEMENT_3D('',#1823,#1362,#1363);
#1126=AXIS2_PLACEMENT_3D('',#1826,#1366,#1367);
#1127=AXIS2_PLACEMENT_3D('',#1827,#1368,#1369);
#1128=AXIS2_PLACEMENT_3D('',#1828,#1370,#1371);
#1129=AXIS2_PLACEMENT_3D('',#1831,#1374,#1375);
#1130=AXIS2_PLACEMENT_3D('',#1834,#1378,#1379);
#1131=AXIS2_PLACEMENT_3D('',#1835,#1380,#1381);
#1132=AXIS2_PLACEMENT_3D('',#1836,#1382,#1383);
#1133=AXIS2_PLACEMENT_3D('',#1837,#1384,#1385);
#1134=AXIS2_PLACEMENT_3D('',#1838,#1386,#1387);
#1135=AXIS2_PLACEMENT_3D('',#1839,#1388,#1389);
#1136=AXIS2_PLACEMENT_3D('',#1840,#1390,#1391);
#1137=AXIS2_PLACEMENT_3D('',#1841,#1392,#1393);
#1138=AXIS2_PLACEMENT_3D('',#1842,#1394,#1395);
#1139=AXIS2_PLACEMENT_3D('',#1843,#1396,#1397);
#1140=AXIS2_PLACEMENT_3D('',#1844,#1398,#1399);
#1141=AXIS2_PLACEMENT_3D('',#1845,#1400,#1401);
#1142=DIRECTION('',(0.,0.,1.));
#1143=DIRECTION('',(1.,0.,0.));
#1144=DIRECTION('',(-1.,0.,0.));
#1145=DIRECTION('',(0.,0.,1.));
#1146=DIRECTION('',(-1.,0.,0.));
#1147=DIRECTION('',(0.,0.,1.));
#1148=DIRECTION('',(-1.,0.,0.));
#1149=DIRECTION('',(0.,0.,1.));
#1150=DIRECTION('',(-1.,0.,0.));
#1151=DIRECTION('',(0.,0.,1.));
#1152=DIRECTION('',(-1.,0.,0.));
#1153=DIRECTION('',(-1.,0.,0.));
#1154=DIRECTION('',(-1.,0.,0.));
#1155=DIRECTION('',(0.,0.,1.));
#1156=DIRECTION('',(-1.,0.,0.));
#1157=DIRECTION('',(0.,0.,1.));
#1158=DIRECTION('',(-1.,0.,0.));
#1159=DIRECTION('',(0.,0.,1.));
#1160=DIRECTION('',(-1.,0.,0.));
#1161=DIRECTION('',(0.,0.,1.));
#1162=DIRECTION('',(-1.,0.,0.));
#1163=DIRECTION('',(-1.,0.,0.));
#1164=DIRECTION('',(-1.,0.,0.));
#1165=DIRECTION('',(-1.,0.,0.));
#1166=DIRECTION('',(-1.,0.,0.));
#1167=DIRECTION('',(-1.,0.,0.));
#1168=DIRECTION('',(0.,0.,1.));
#1169=DIRECTION('',(-1.,0.,0.));
#1170=DIRECTION('',(-1.,0.,0.));
#1171=DIRECTION('',(-1.,0.,0.));
#1172=DIRECTION('',(0.,0.,1.));
#1173=DIRECTION('',(-1.,0.,0.));
#1174=DIRECTION('',(-1.,0.,0.));
#1175=DIRECTION('',(-1.,0.,0.));
#1176=DIRECTION('',(0.,0.,1.));
#1177=DIRECTION('',(-1.,0.,0.));
#1178=DIRECTION('',(-1.,0.,0.));
#1179=DIRECTION('',(-1.,0.,0.));
#1180=DIRECTION('',(0.,0.,1.));
#1181=DIRECTION('',(-1.,0.,0.));
#1182=DIRECTION('',(-1.,0.,0.));
#1183=DIRECTION('',(0.,0.,1.));
#1184=DIRECTION('',(0.,1.,0.));
#1185=DIRECTION('',(-1.,0.,0.));
#1186=DIRECTION('',(0.,0.,1.));
#1187=DIRECTION('',(0.,1.,0.));
#1188=DIRECTION('',(-1.,0.,0.));
#1189=DIRECTION('',(0.,0.,1.));
#1190=DIRECTION('',(-1.,0.,0.));
#1191=DIRECTION('',(-1.,0.,0.));
#1192=DIRECTION('',(0.,0.,1.));
#1193=DIRECTION('',(-1.,0.,0.));
#1194=DIRECTION('',(1.,0.,0.));
#1195=DIRECTION('',(0.,0.,-1.));
#1196=DIRECTION('',(1.,0.,0.));
#1197=DIRECTION('',(0.,0.,-1.));
#1198=DIRECTION('',(0.,-1.,0.));
#1199=DIRECTION('',(1.,0.,0.));
#1200=DIRECTION('',(0.,0.,-1.));
#1201=DIRECTION('',(0.,-1.,0.));
#1202=DIRECTION('',(-1.,0.,0.));
#1203=DIRECTION('',(0.,0.,1.));
#1204=DIRECTION('',(-1.,0.,0.));
#1205=DIRECTION('',(0.,0.,1.));
#1206=DIRECTION('',(-1.,0.,0.));
#1207=DIRECTION('',(-1.,0.,0.));
#1208=DIRECTION('',(-1.,0.,0.));
#1209=DIRECTION('',(0.,0.,1.));
#1210=DIRECTION('',(-1.,0.,0.));
#1211=DIRECTION('',(-1.,0.,0.));
#1212=DIRECTION('',(-1.,0.,0.));
#1213=DIRECTION('',(0.,0.,1.));
#1214=DIRECTION('',(-1.,0.,0.));
#1215=DIRECTION('',(-1.,0.,0.));
#1216=DIRECTION('',(-1.,0.,0.));
#1217=DIRECTION('',(0.,0.,1.));
#1218=DIRECTION('',(-1.,0.,0.));
#1219=DIRECTION('',(-1.,0.,0.));
#1220=DIRECTION('',(-1.,0.,0.));
#1221=DIRECTION('',(0.,0.,1.));
#1222=DIRECTION('',(0.,-1.,0.));
#1223=DIRECTION('',(-1.,0.,0.));
#1224=DIRECTION('',(0.,0.,1.));
#1225=DIRECTION('',(0.,-1.,0.));
#1226=DIRECTION('',(-1.,0.,0.));
#1227=DIRECTION('',(0.,0.,1.));
#1228=DIRECTION('',(0.,1.,0.));
#1229=DIRECTION('',(-1.,0.,0.));
#1230=DIRECTION('',(0.,0.,1.));
#1231=DIRECTION('',(0.,1.,0.));
#1232=DIRECTION('',(-1.,0.,0.));
#1233=DIRECTION('',(0.,0.,1.));
#1234=DIRECTION('',(-1.,0.,0.));
#1235=DIRECTION('',(-1.,0.,0.));
#1236=DIRECTION('',(0.,0.,1.));
#1237=DIRECTION('',(-1.,0.,0.));
#1238=DIRECTION('',(1.,0.,0.));
#1239=DIRECTION('',(0.,0.,-1.));
#1240=DIRECTION('',(-1.,0.,0.));
#1241=DIRECTION('',(0.,0.,1.));
#1242=DIRECTION('',(-1.,0.,0.));
#1243=DIRECTION('',(-1.,0.,0.));
#1244=DIRECTION('',(0.,0.,1.));
#1245=DIRECTION('',(-1.,0.,0.));
#1246=DIRECTION('',(1.,0.,0.));
#1247=DIRECTION('',(0.,0.,-1.));
#1248=DIRECTION('',(1.,0.,0.));
#1249=DIRECTION('',(0.,0.,-1.));
#1250=DIRECTION('',(0.,1.,0.));
#1251=DIRECTION('',(1.,0.,0.));
#1252=DIRECTION('',(0.,0.,-1.));
#1253=DIRECTION('',(0.,1.,0.));
#1254=DIRECTION('',(-1.,0.,0.));
#1255=DIRECTION('',(0.,0.,1.));
#1256=DIRECTION('',(0.,1.,0.));
#1257=DIRECTION('',(-1.,0.,0.));
#1258=DIRECTION('',(0.,0.,1.));
#1259=DIRECTION('',(0.,1.,0.));
#1260=DIRECTION('',(-1.,0.,0.));
#1261=DIRECTION('',(0.,0.,1.));
#1262=DIRECTION('',(-1.,0.,0.));
#1263=DIRECTION('',(1.,0.,0.));
#1264=DIRECTION('',(0.,0.,-1.));
#1265=DIRECTION('',(-1.,0.,0.));
#1266=DIRECTION('',(-1.,0.,0.));
#1267=DIRECTION('',(0.,0.,1.));
#1268=DIRECTION('',(1.,0.,0.));
#1269=DIRECTION('',(0.,0.,-1.));
#1270=DIRECTION('',(0.,1.,0.));
#1271=DIRECTION('',(1.,0.,0.));
#1272=DIRECTION('',(0.,0.,-1.));
#1273=DIRECTION('',(0.,1.,0.));
#1274=DIRECTION('',(-1.,0.,0.));
#1275=DIRECTION('',(0.,0.,1.));
#1276=DIRECTION('',(-1.,0.,0.));
#1277=DIRECTION('',(0.,0.,1.));
#1278=DIRECTION('',(-1.,0.,0.));
#1279=DIRECTION('',(-1.,0.,0.));
#1280=DIRECTION('',(-1.,0.,0.));
#1281=DIRECTION('',(-1.,0.,0.));
#1282=DIRECTION('',(-1.,0.,0.));
#1283=DIRECTION('',(0.,0.,1.));
#1284=DIRECTION('',(-1.,0.,0.));
#1285=DIRECTION('',(0.,0.,1.));
#1286=DIRECTION('',(-1.,0.,0.));
#1287=DIRECTION('',(0.,0.,1.));
#1288=DIRECTION('',(-1.,0.,0.));
#1289=DIRECTION('',(0.,0.,1.));
#1290=DIRECTION('',(-1.,0.,0.));
#1291=DIRECTION('',(0.,0.,1.));
#1292=DIRECTION('',(1.,0.,0.));
#1293=DIRECTION('',(0.,0.,-1.));
#1294=DIRECTION('',(1.,0.,0.));
#1295=DIRECTION('',(0.,0.,-1.));
#1296=DIRECTION('',(1.,0.,0.));
#1297=DIRECTION('',(0.,0.,-1.));
#1298=DIRECTION('',(-1.,0.,0.));
#1299=DIRECTION('',(0.,0.,1.));
#1300=DIRECTION('',(-1.,0.,0.));
#1301=DIRECTION('',(0.,0.,1.));
#1302=DIRECTION('',(-1.,0.,0.));
#1303=DIRECTION('',(-1.,0.,0.));
#1304=DIRECTION('',(-1.,0.,0.));
#1305=DIRECTION('',(-1.,0.,0.));
#1306=DIRECTION('',(0.,0.,1.));
#1307=DIRECTION('',(-1.,0.,0.));
#1308=DIRECTION('',(-1.,0.,0.));
#1309=DIRECTION('',(0.,0.,1.));
#1310=DIRECTION('',(-1.,0.,0.));
#1311=DIRECTION('',(0.,0.,1.));
#1312=DIRECTION('',(-1.,0.,0.));
#1313=DIRECTION('',(0.,0.,1.));
#1314=DIRECTION('',(-1.,0.,0.));
#1315=DIRECTION('',(-1.,0.,0.));
#1316=DIRECTION('',(-1.,0.,0.));
#1317=DIRECTION('',(0.,0.,1.));
#1318=DIRECTION('',(-1.,0.,0.));
#1319=DIRECTION('',(0.,0.,1.));
#1320=DIRECTION('',(1.,0.,0.));
#1321=DIRECTION('',(0.,0.,-1.));
#1322=DIRECTION('',(0.,1.,0.));
#1323=DIRECTION('',(1.,0.,0.));
#1324=DIRECTION('',(0.,0.,-1.));
#1325=DIRECTION('',(0.,1.,0.));
#1326=DIRECTION('',(-1.26490253456642E-16,0.,1.));
#1327=DIRECTION('',(1.,0.,1.26490253456642E-16));
#1328=DIRECTION('',(0.,1.,0.));
#1329=DIRECTION('',(1.26490253456642E-16,0.,-1.));
#1330=DIRECTION('',(-1.,0.,-1.26490253456642E-16));
#1331=DIRECTION('',(0.,1.,0.));
#1332=DIRECTION('',(0.,1.,0.));
#1333=DIRECTION('',(0.,0.,1.));
#1334=DIRECTION('',(-1.26490253456642E-16,0.,1.));
#1335=DIRECTION('',(1.,0.,1.26490253456642E-16));
#1336=DIRECTION('',(0.,1.,0.));
#1337=DIRECTION('',(1.26490253456642E-16,0.,-1.));
#1338=DIRECTION('',(-1.,0.,-1.26490253456642E-16));
#1339=DIRECTION('',(0.,1.,0.));
#1340=DIRECTION('',(0.,1.,0.));
#1341=DIRECTION('',(0.,0.,1.));
#1342=DIRECTION('',(0.,0.,-1.));
#1343=DIRECTION('',(-1.,0.,0.));
#1344=DIRECTION('',(0.,1.,0.));
#1345=DIRECTION('',(0.,1.,0.));
#1346=DIRECTION('',(0.,0.,1.));
#1347=DIRECTION('',(0.,1.,0.));
#1348=DIRECTION('',(0.,0.,1.));
#1349=DIRECTION('',(1.,0.,0.));
#1350=DIRECTION('',(0.,0.,-1.));
#1351=DIRECTION('',(-1.,0.,0.));
#1352=DIRECTION('',(0.,1.,0.));
#1353=DIRECTION('',(0.,0.,1.));
#1354=DIRECTION('',(1.,0.,0.));
#1355=DIRECTION('',(0.,1.,0.));
#1356=DIRECTION('',(0.,1.,0.));
#1357=DIRECTION('',(0.,0.,1.));
#1358=DIRECTION('',(-1.80700362080917E-17,1.,0.));
#1359=DIRECTION('',(-1.,-1.80700362080917E-17,0.));
#1360=DIRECTION('',(0.,0.,-1.));
#1361=DIRECTION('',(0.,0.,-1.));
#1362=DIRECTION('',(1.0842021724855E-16,-1.,0.));
#1363=DIRECTION('',(1.,1.0842021724855E-16,0.));
#1364=DIRECTION('',(0.,0.,-1.));
#1365=DIRECTION('',(0.,0.,-1.));
#1366=DIRECTION('',(0.,0.,-1.));
#1367=DIRECTION('',(-1.,0.,0.));
#1368=DIRECTION('',(0.,0.,-1.));
#1369=DIRECTION('',(-1.,0.,0.));
#1370=DIRECTION('',(0.,0.,-1.));
#1371=DIRECTION('',(-1.,0.,0.));
#1372=DIRECTION('',(0.,0.,-1.));
#1373=DIRECTION('',(0.,0.,-1.));
#1374=DIRECTION('',(0.,0.,-1.));
#1375=DIRECTION('',(-1.,0.,0.));
#1376=DIRECTION('',(0.,0.,-1.));
#1377=DIRECTION('',(0.,0.,-1.));
#1378=DIRECTION('',(-1.80700362080917E-17,1.,0.));
#1379=DIRECTION('',(-1.,-1.80700362080917E-17,0.));
#1380=DIRECTION('',(1.0842021724855E-16,-1.,0.));
#1381=DIRECTION('',(1.,1.0842021724855E-16,0.));
#1382=DIRECTION('',(-1.,0.,0.));
#1383=DIRECTION('',(0.,0.,1.));
#1384=DIRECTION('',(1.,0.,0.));
#1385=DIRECTION('',(0.,0.,-1.));
#1386=DIRECTION('',(1.,0.,0.));
#1387=DIRECTION('',(0.,0.,-1.));
#1388=DIRECTION('',(-1.,0.,0.));
#1389=DIRECTION('',(0.,0.,1.));
#1390=DIRECTION('',(-1.,0.,0.));
#1391=DIRECTION('',(0.,0.,1.));
#1392=DIRECTION('',(1.,0.,0.));
#1393=DIRECTION('',(0.,0.,-1.));
#1394=DIRECTION('',(-1.,0.,0.));
#1395=DIRECTION('',(0.,0.,1.));
#1396=DIRECTION('',(1.,0.,0.));
#1397=DIRECTION('',(0.,0.,-1.));
#1398=DIRECTION('',(-1.,0.,0.));
#1399=DIRECTION('',(0.,0.,1.));
#1400=DIRECTION('',(1.,0.,0.));
#1401=DIRECTION('',(0.,0.,-1.));
#1402=CARTESIAN_POINT('',(0.,0.,0.));
#1403=CARTESIAN_POINT('',(7.3,0.,0.));
#1404=CARTESIAN_POINT('',(7.2,0.4,-2.36643191324072));
#1405=CARTESIAN_POINT('',(7.20000000000045,0.4,-2.41953819499005));
#1406=CARTESIAN_POINT('',(7.24685252620781,0.4,-2.46779253585062));
#1407=CARTESIAN_POINT('',(7.3,0.4,-2.46779253585061));
#1408=CARTESIAN_POINT('',(7.19999999999999,0.4,-2.36643191324072));
#1409=CARTESIAN_POINT('',(7.3,0.399999999999999,-2.46779253585061));
#1410=CARTESIAN_POINT('',(7.2,0.,0.));
#1411=CARTESIAN_POINT('',(7.19999999997725,0.4,2.36643191323627));
#1412=CARTESIAN_POINT('',(7.3,0.4,2.46779253585062));
#1413=CARTESIAN_POINT('',(7.24718023062748,0.4,2.46779253585062));
#1414=CARTESIAN_POINT('',(7.19999999999802,0.4,2.41888964031642));
#1415=CARTESIAN_POINT('',(7.2,0.4,2.36643191323597));
#1416=CARTESIAN_POINT('',(7.3,0.399999999999999,2.46779253585061));
#1417=CARTESIAN_POINT('',(7.3,0.,0.));
#1418=CARTESIAN_POINT('',(-60.,0.,0.));
#1419=CARTESIAN_POINT('',(-60.,0.399999999999999,-2.46779253585061));
#1420=CARTESIAN_POINT('',(8.7,0.4,-2.46779253585062));
#1421=CARTESIAN_POINT('',(-60.,0.399999999999999,2.46779253585061));
#1422=CARTESIAN_POINT('',(8.7,0.4,2.46779253585064));
#1423=CARTESIAN_POINT('',(8.7,0.,0.));
#1424=CARTESIAN_POINT('',(8.7,0.,0.));
#1425=CARTESIAN_POINT('',(8.7,0.4,-2.46779253585061));
#1426=CARTESIAN_POINT('',(8.7527426927927,0.4,-2.46779253585061));
#1427=CARTESIAN_POINT('',(8.8,0.4,-2.41931811184203));
#1428=CARTESIAN_POINT('',(8.8,0.4,-2.36643191323985));
#1429=CARTESIAN_POINT('',(8.8,0.4,-2.36643191323985));
#1430=CARTESIAN_POINT('',(8.8,0.4,2.36643191323985));
#1431=CARTESIAN_POINT('',(8.8,0.4,2.41928130382626));
#1432=CARTESIAN_POINT('',(8.75271917297316,0.4,2.46779253585062));
#1433=CARTESIAN_POINT('',(8.7,0.4,2.46779253585062));
#1434=CARTESIAN_POINT('',(8.8,0.4,2.36643191323985));
#1435=CARTESIAN_POINT('',(8.8,0.,0.));
#1436=CARTESIAN_POINT('',(-60.,0.,0.));
#1437=CARTESIAN_POINT('',(5.,-0.4,1.95959179422654));
#1438=CARTESIAN_POINT('',(4.78804816164062,-0.4,1.95959179422654));
#1439=CARTESIAN_POINT('',(4.41195279205319,-0.00064922267764458,2.04040815308718));
#1440=CARTESIAN_POINT('',(4.78804678111569,0.400000000000002,1.95959179422656));
#1441=CARTESIAN_POINT('',(5.,0.400000000000002,1.95959179422656));
#1442=CARTESIAN_POINT('',(5.,-0.400000000000001,1.95959179422654));
#1443=CARTESIAN_POINT('',(5.,0.4,1.95959179422654));
#1444=CARTESIAN_POINT('',(-60.,-0.400000000000008,1.95959179422654));
#1445=CARTESIAN_POINT('',(11.,-0.400000000000008,1.95959179422654));
#1446=CARTESIAN_POINT('',(11.,0.399999999999999,1.95959179422654));
#1447=CARTESIAN_POINT('',(11.2119518383594,0.399999999999999,1.95959179422654));
#1448=CARTESIAN_POINT('',(11.5880472079468,0.000649222677640297,2.04040815308718));
#1449=CARTESIAN_POINT('',(11.2119532188843,-0.4,1.95959179422656));
#1450=CARTESIAN_POINT('',(11.,-0.400000000000001,1.95959179422656));
#1451=CARTESIAN_POINT('',(11.,0.4,1.95959179422654));
#1452=CARTESIAN_POINT('',(-60.,0.399999999999999,1.95959179422654));
#1453=CARTESIAN_POINT('',(5.,0.4,-1.95959179422654));
#1454=CARTESIAN_POINT('',(4.78804816164062,0.4,-1.95959179422654));
#1455=CARTESIAN_POINT('',(4.41195279205319,0.000649222677638373,-2.04040815308718));
#1456=CARTESIAN_POINT('',(4.78804678111569,-0.400000000000002,-1.95959179422656));
#1457=CARTESIAN_POINT('',(5.,-0.400000000000002,-1.95959179422656));
#1458=CARTESIAN_POINT('',(5.,0.4,-1.95959179422654));
#1459=CARTESIAN_POINT('',(5.,-0.400000000000008,-1.95959179422654));
#1460=CARTESIAN_POINT('',(-60.,0.399999999999999,-1.95959179422654));
#1461=CARTESIAN_POINT('',(11.,0.4,-1.95959179422654));
#1462=CARTESIAN_POINT('',(11.,-0.399999999999999,-1.95959179422654));
#1463=CARTESIAN_POINT('',(11.2119518383594,-0.399999999999999,-1.95959179422654));
#1464=CARTESIAN_POINT('',(11.5880472079468,-0.000649222677643848,-2.04040815308718));
#1465=CARTESIAN_POINT('',(11.2119532188843,0.4,-1.95959179422656));
#1466=CARTESIAN_POINT('',(11.,0.400000000000001,-1.95959179422656));
#1467=CARTESIAN_POINT('',(11.,-0.399999999999999,-1.95959179422654));
#1468=CARTESIAN_POINT('',(-60.,-0.400000000000008,-1.95959179422654));
#1469=CARTESIAN_POINT('',(-60.,-1.95959179422299,0.400000000017378));
#1470=CARTESIAN_POINT('',(-8.,-1.95959179422299,0.400000000017378));
#1471=CARTESIAN_POINT('',(-5.00000372853314,-1.95959179422299,0.400000000017378));
#1472=CARTESIAN_POINT('',(-8.,0.,0.));
#1473=CARTESIAN_POINT('',(-8.,1.95959179422299,0.400000000017378));
#1474=CARTESIAN_POINT('',(-60.,1.95959179422299,0.400000000017378));
#1475=CARTESIAN_POINT('',(-5.00000372853314,1.95959179422299,0.400000000017378));
#1476=CARTESIAN_POINT('',(-5.00000372853314,1.95959179422299,-0.400000000017378));
#1477=CARTESIAN_POINT('',(-4.7880518901645,1.95959179422299,-0.400000000017378));
#1478=CARTESIAN_POINT('',(-4.41195652056084,2.04040815309073,-0.0006492226776825));
#1479=CARTESIAN_POINT('',(-4.78805050963958,1.95959179422302,0.40000000001738));
#1480=CARTESIAN_POINT('',(-5.00000372853315,1.95959179422302,0.40000000001738));
#1481=CARTESIAN_POINT('',(-5.00000372853314,1.95959179422299,-0.400000000017378));
#1482=CARTESIAN_POINT('',(-60.,1.95959179422299,-0.400000000017378));
#1483=CARTESIAN_POINT('',(-8.,1.95959179422299,-0.400000000017378));
#1484=CARTESIAN_POINT('',(-8.,0.,0.));
#1485=CARTESIAN_POINT('',(-8.,-1.95959179422299,-0.400000000017378));
#1486=CARTESIAN_POINT('',(-60.,-1.95959179422299,-0.400000000017378));
#1487=CARTESIAN_POINT('',(-5.00000372853314,-1.95959179422299,-0.400000000017378));
#1488=CARTESIAN_POINT('',(-5.00000372853314,-1.95959179422299,0.400000000017378));
#1489=CARTESIAN_POINT('',(-4.7880518901645,-1.95959179422299,0.400000000017378));
#1490=CARTESIAN_POINT('',(-4.41195652056084,-2.04040815309073,0.0006492226776825));
#1491=CARTESIAN_POINT('',(-4.78805050963958,-1.95959179422302,-0.40000000001738));
#1492=CARTESIAN_POINT('',(-5.00000372853315,-1.95959179422302,-0.40000000001738));
#1493=CARTESIAN_POINT('',(13.,1.95959179422654,-0.399999999999999));
#1494=CARTESIAN_POINT('',(12.7880481616406,1.95959179422654,-0.399999999999999));
#1495=CARTESIAN_POINT('',(12.4119527920532,2.04040815308718,-0.000649222677641625));
#1496=CARTESIAN_POINT('',(12.7880467811157,1.95959179422656,0.400000000000002));
#1497=CARTESIAN_POINT('',(13.,1.95959179422656,0.400000000000001));
#1498=CARTESIAN_POINT('',(13.,1.95959179422654,-0.399999999999999));
#1499=CARTESIAN_POINT('',(13.,1.95959179422654,0.4));
#1500=CARTESIAN_POINT('',(-60.,1.95959179422654,0.399999999999991));
#1501=CARTESIAN_POINT('',(16.,1.95959179422654,0.400000000000001));
#1502=CARTESIAN_POINT('',(16.,0.,0.));
#1503=CARTESIAN_POINT('',(16.,-1.95959179422654,0.400000000000001));
#1504=CARTESIAN_POINT('',(-60.,-1.95959179422654,0.399999999999991));
#1505=CARTESIAN_POINT('',(13.,-1.95959179422654,0.4));
#1506=CARTESIAN_POINT('',(13.,-1.95959179422654,0.399999999999999));
#1507=CARTESIAN_POINT('',(12.7880481616406,-1.95959179422654,0.400000000000001));
#1508=CARTESIAN_POINT('',(12.4119527920532,-2.04040815308718,0.000649222677646586));
#1509=CARTESIAN_POINT('',(12.7880467811157,-1.95959179422656,-0.4));
#1510=CARTESIAN_POINT('',(13.,-1.95959179422656,-0.400000000000001));
#1511=CARTESIAN_POINT('',(13.,-1.95959179422654,-0.399999999999999));
#1512=CARTESIAN_POINT('',(-60.,-1.95959179422654,-0.400000000000009));
#1513=CARTESIAN_POINT('',(16.,-1.95959179422654,-0.399999999999999));
#1514=CARTESIAN_POINT('',(16.,0.,0.));
#1515=CARTESIAN_POINT('',(16.,1.95959179422654,-0.399999999999999));
#1516=CARTESIAN_POINT('',(-60.,1.95959179422654,-0.400000000000009));
#1517=CARTESIAN_POINT('',(-8.,0.,2.));
#1518=CARTESIAN_POINT('',(-8.,-120.,-0.400000000017378));
#1519=CARTESIAN_POINT('',(-8.,2.46779253584779,-0.400000000017378));
#1520=CARTESIAN_POINT('',(-8.,0.,0.));
#1521=CARTESIAN_POINT('',(-8.,-2.46779253584779,-0.400000000017378));
#1522=CARTESIAN_POINT('',(-8.,-120.,-0.400000000017378));
#1523=CARTESIAN_POINT('',(-60.,0.,0.));
#1524=CARTESIAN_POINT('',(-60.,2.56904651573032,0.400000000017378));
#1525=CARTESIAN_POINT('',(-7.9,2.56904651573032,0.400000000017378));
#1526=CARTESIAN_POINT('',(-7.3,2.56904651573032,0.400000000017378));
#1527=CARTESIAN_POINT('',(-7.9,0.,0.));
#1528=CARTESIAN_POINT('',(-7.9,-2.56904651573032,0.400000000017378));
#1529=CARTESIAN_POINT('',(-60.,-2.56904651573032,0.400000000017378));
#1530=CARTESIAN_POINT('',(-7.3,-2.56904651573032,0.400000000017378));
#1531=CARTESIAN_POINT('',(-7.3,0.,0.));
#1532=CARTESIAN_POINT('',(-7.2,0.,2.6));
#1533=CARTESIAN_POINT('',(-7.2,0.,0.400000000017378));
#1534=CARTESIAN_POINT('',(-7.2,2.4677925358478,0.400000000017378));
#1535=CARTESIAN_POINT('',(-7.2,2.36643191323691,0.400000000017378));
#1536=CARTESIAN_POINT('',(-7.2,0.,0.));
#1537=CARTESIAN_POINT('',(-7.2,-2.4677925358478,0.400000000017378));
#1538=CARTESIAN_POINT('',(-7.2,0.,0.400000000017378));
#1539=CARTESIAN_POINT('',(-7.2,-2.36643191323691,0.400000000017378));
#1540=CARTESIAN_POINT('',(-7.2,0.,0.));
#1541=CARTESIAN_POINT('',(-60.,0.,0.));
#1542=CARTESIAN_POINT('',(-60.,0.399999999999999,2.36643191323985));
#1543=CARTESIAN_POINT('',(11.,0.4,2.36643191323985));
#1544=CARTESIAN_POINT('',(11.,-0.399999999999999,2.36643191323985));
#1545=CARTESIAN_POINT('',(11.2117773141669,-0.399999999999999,2.36643191323985));
#1546=CARTESIAN_POINT('',(11.588222379071,-0.000615622984668769,2.43356804728186));
#1547=CARTESIAN_POINT('',(11.2117774539516,0.4,2.36643191323985));
#1548=CARTESIAN_POINT('',(11.,0.4,2.36643191323985));
#1549=CARTESIAN_POINT('',(11.,-0.399999999999999,2.36643191323985));
#1550=CARTESIAN_POINT('',(-60.,-0.400000000000008,2.36643191323985));
#1551=CARTESIAN_POINT('',(8.80000000002274,-0.4,2.36643191323627));
#1552=CARTESIAN_POINT('',(8.8,0.,0.));
#1553=CARTESIAN_POINT('',(8.8,-0.4,-2.36643191323985));
#1554=CARTESIAN_POINT('',(-60.,-0.400000000000008,-2.36643191323985));
#1555=CARTESIAN_POINT('',(11.,-0.399999999999999,-2.36643191323985));
#1556=CARTESIAN_POINT('',(11.,0.399999999999999,-2.36643191323985));
#1557=CARTESIAN_POINT('',(11.2117773141669,0.399999999999999,-2.36643191323985));
#1558=CARTESIAN_POINT('',(11.588222379071,0.00061562298466904,-2.43356804728186));
#1559=CARTESIAN_POINT('',(11.2117774539516,-0.399999999999999,-2.36643191323985));
#1560=CARTESIAN_POINT('',(11.,-0.399999999999999,-2.36643191323985));
#1561=CARTESIAN_POINT('',(11.,0.4,-2.36643191323985));
#1562=CARTESIAN_POINT('',(-60.,0.399999999999999,-2.36643191323985));
#1563=CARTESIAN_POINT('',(15.2,0.,0.));
#1564=CARTESIAN_POINT('',(15.2,-2.36643191323985,0.400000000000001));
#1565=CARTESIAN_POINT('',(15.2,2.36643191323985,0.400000000000001));
#1566=CARTESIAN_POINT('',(-60.,2.36643191323985,0.399999999999991));
#1567=CARTESIAN_POINT('',(13.,2.36643191323985,0.4));
#1568=CARTESIAN_POINT('',(13.,2.36643191323985,0.399999999999999));
#1569=CARTESIAN_POINT('',(12.7882226858331,2.36643191323985,0.400000000000001));
#1570=CARTESIAN_POINT('',(12.411777620929,2.43356804728186,0.000615622984671236));
#1571=CARTESIAN_POINT('',(12.7882225460484,2.36643191323985,-0.4));
#1572=CARTESIAN_POINT('',(13.,2.36643191323985,-0.4));
#1573=CARTESIAN_POINT('',(13.,2.36643191323985,-0.399999999999999));
#1574=CARTESIAN_POINT('',(-60.,2.36643191323985,-0.400000000000009));
#1575=CARTESIAN_POINT('',(15.2,2.36643191323985,-0.399999999999999));
#1576=CARTESIAN_POINT('',(15.2,0.,0.));
#1577=CARTESIAN_POINT('',(15.2,-2.36643191323985,-0.399999999999999));
#1578=CARTESIAN_POINT('',(-60.,-2.36643191323985,-0.400000000000009));
#1579=CARTESIAN_POINT('',(13.,-2.36643191323985,-0.399999999999999));
#1580=CARTESIAN_POINT('',(13.,-2.36643191323985,-0.399999999999999));
#1581=CARTESIAN_POINT('',(12.7882226858331,-2.36643191323985,-0.399999999999999));
#1582=CARTESIAN_POINT('',(12.411777620929,-2.43356804728186,-0.000615622984665733));
#1583=CARTESIAN_POINT('',(12.7882225460484,-2.36643191323985,0.400000000000001));
#1584=CARTESIAN_POINT('',(13.,-2.36643191323985,0.4));
#1585=CARTESIAN_POINT('',(13.,-2.36643191323985,0.4));
#1586=CARTESIAN_POINT('',(-60.,-2.36643191323985,0.399999999999991));
#1587=CARTESIAN_POINT('',(15.2,0.,2.6));
#1588=CARTESIAN_POINT('',(15.2,0.,0.400000000000001));
#1589=CARTESIAN_POINT('',(15.2,-2.46779253585062,0.400000000000001));
#1590=CARTESIAN_POINT('',(15.2,0.,0.));
#1591=CARTESIAN_POINT('',(15.2,2.46779253585062,0.400000000000001));
#1592=CARTESIAN_POINT('',(15.2,0.,0.400000000000001));
#1593=CARTESIAN_POINT('',(15.2,0.,2.6));
#1594=CARTESIAN_POINT('',(15.2,0.,-0.399999999999999));
#1595=CARTESIAN_POINT('',(15.2,2.46779253585062,-0.399999999999999));
#1596=CARTESIAN_POINT('',(15.2,0.,0.));
#1597=CARTESIAN_POINT('',(15.2,-2.46779253585062,-0.399999999999999));
#1598=CARTESIAN_POINT('',(15.2,0.,-0.399999999999999));
#1599=CARTESIAN_POINT('',(-60.,0.,0.));
#1600=CARTESIAN_POINT('',(-60.,2.56904651573303,0.399999999999991));
#1601=CARTESIAN_POINT('',(15.9,2.56904651573303,0.399999999999991));
#1602=CARTESIAN_POINT('',(15.3,2.56904651573303,0.399999999999991));
#1603=CARTESIAN_POINT('',(15.3,0.,0.));
#1604=CARTESIAN_POINT('',(15.3,-2.56904651573303,0.399999999999991));
#1605=CARTESIAN_POINT('',(-60.,-2.56904651573303,0.399999999999991));
#1606=CARTESIAN_POINT('',(15.9,-2.56904651573303,0.399999999999991));
#1607=CARTESIAN_POINT('',(15.9,0.,0.));
#1608=CARTESIAN_POINT('',(-60.,0.,0.));
#1609=CARTESIAN_POINT('',(-60.,-2.56904651573303,-0.400000000000009));
#1610=CARTESIAN_POINT('',(15.9,-2.56904651573303,-0.400000000000009));
#1611=CARTESIAN_POINT('',(15.3,-2.56904651573303,-0.400000000000009));
#1612=CARTESIAN_POINT('',(15.3,0.,0.));
#1613=CARTESIAN_POINT('',(15.3,2.56904651573303,-0.400000000000009));
#1614=CARTESIAN_POINT('',(-60.,2.56904651573303,-0.400000000000009));
#1615=CARTESIAN_POINT('',(15.9,2.56904651573303,-0.400000000000009));
#1616=CARTESIAN_POINT('',(15.9,0.,0.));
#1617=CARTESIAN_POINT('',(16.,0.,2.));
#1618=CARTESIAN_POINT('',(16.,-120.,0.400000000000001));
#1619=CARTESIAN_POINT('',(16.,2.46779253585061,0.400000000000001));
#1620=CARTESIAN_POINT('',(16.,0.,0.));
#1621=CARTESIAN_POINT('',(16.,-2.46779253585061,0.400000000000001));
#1622=CARTESIAN_POINT('',(16.,-120.,0.400000000000001));
#1623=CARTESIAN_POINT('',(-8.,0.,2.));
#1624=CARTESIAN_POINT('',(-8.,-120.,0.400000000017378));
#1625=CARTESIAN_POINT('',(-8.,-2.46779253584779,0.400000000017378));
#1626=CARTESIAN_POINT('',(-8.,0.,0.));
#1627=CARTESIAN_POINT('',(-8.,2.46779253584779,0.400000000017378));
#1628=CARTESIAN_POINT('',(-8.,-120.,0.400000000017378));
#1629=CARTESIAN_POINT('',(-60.,0.,0.));
#1630=CARTESIAN_POINT('',(-60.,2.56904651573032,-0.400000000017378));
#1631=CARTESIAN_POINT('',(-7.3,2.56904651573032,-0.400000000017378));
#1632=CARTESIAN_POINT('',(-7.9,2.56904651573032,-0.400000000017378));
#1633=CARTESIAN_POINT('',(-7.3,0.,0.));
#1634=CARTESIAN_POINT('',(-7.3,-2.56904651573032,-0.400000000017378));
#1635=CARTESIAN_POINT('',(-60.,-2.56904651573032,-0.400000000017378));
#1636=CARTESIAN_POINT('',(-7.9,-2.56904651573032,-0.400000000017378));
#1637=CARTESIAN_POINT('',(-7.9,0.,0.));
#1638=CARTESIAN_POINT('',(-7.2,0.,2.6));
#1639=CARTESIAN_POINT('',(-7.2,0.,-0.400000000017378));
#1640=CARTESIAN_POINT('',(-7.2,-2.4677925358478,-0.400000000017378));
#1641=CARTESIAN_POINT('',(-7.2,-2.36643191323691,-0.400000000017378));
#1642=CARTESIAN_POINT('',(-7.2,0.,0.));
#1643=CARTESIAN_POINT('',(-7.2,2.4677925358478,-0.400000000017378));
#1644=CARTESIAN_POINT('',(-7.2,0.,-0.400000000017378));
#1645=CARTESIAN_POINT('',(-7.2,2.36643191323691,-0.400000000017378));
#1646=CARTESIAN_POINT('',(-7.2,0.,0.));
#1647=CARTESIAN_POINT('',(-60.,0.,0.));
#1648=CARTESIAN_POINT('',(-60.,-2.36643191323691,0.400000000017378));
#1649=CARTESIAN_POINT('',(-5.00000372853314,-2.36643191323691,0.400000000017378));
#1650=CARTESIAN_POINT('',(-5.00000372853314,-2.36643191323691,-0.400000000017378));
#1651=CARTESIAN_POINT('',(-4.78822641435704,-2.36643191323691,-0.400000000017378));
#1652=CARTESIAN_POINT('',(-4.41178134943666,-2.43356804728479,-0.000615622984701837));
#1653=CARTESIAN_POINT('',(-4.78822627457235,-2.36643191323691,0.400000000017379));
#1654=CARTESIAN_POINT('',(-5.00000372853315,-2.36643191323691,0.400000000017378));
#1655=CARTESIAN_POINT('',(-5.00000372853314,-2.36643191323691,-0.400000000017378));
#1656=CARTESIAN_POINT('',(-60.,-2.36643191323691,-0.400000000017378));
#1657=CARTESIAN_POINT('',(-60.,2.36643191323691,-0.400000000017378));
#1658=CARTESIAN_POINT('',(-5.00000372853315,2.36643191323691,-0.400000000017378));
#1659=CARTESIAN_POINT('',(-5.00000372853314,2.36643191323691,0.400000000017378));
#1660=CARTESIAN_POINT('',(-4.78822641435704,2.36643191323691,0.400000000017378));
#1661=CARTESIAN_POINT('',(-4.41178134943666,2.43356804728479,0.000615622984700048));
#1662=CARTESIAN_POINT('',(-4.78822627457235,2.36643191323691,-0.400000000017379));
#1663=CARTESIAN_POINT('',(-5.00000372853315,2.36643191323691,-0.400000000017378));
#1664=CARTESIAN_POINT('',(-5.00000372853314,2.36643191323691,0.400000000017378));
#1665=CARTESIAN_POINT('',(-60.,2.36643191323691,0.400000000017378));
#1666=CARTESIAN_POINT('',(-0.800000000000002,0.,0.));
#1667=CARTESIAN_POINT('',(-0.800000000000002,0.,2.4));
#1668=CARTESIAN_POINT('',(-0.799999999999999,0.,2.4));
#1669=CARTESIAN_POINT('',(-0.799999999999999,0.,0.));
#1670=CARTESIAN_POINT('',(-0.799999999999999,0.,3.));
#1671=CARTESIAN_POINT('',(-60.,0.,0.));
#1672=CARTESIAN_POINT('',(-0.699999999999999,0.,0.));
#1673=CARTESIAN_POINT('',(-0.699999999999999,0.,3.1));
#1674=CARTESIAN_POINT('',(0.699999999999999,0.,0.));
#1675=CARTESIAN_POINT('',(0.699999999999999,0.,-3.1));
#1676=CARTESIAN_POINT('',(0.800000000000001,0.,3.1));
#1677=CARTESIAN_POINT('',(0.800000000000001,0.,0.));
#1678=CARTESIAN_POINT('',(0.800000000000001,0.,-3.));
#1679=CARTESIAN_POINT('',(0.800000000000002,0.,0.));
#1680=CARTESIAN_POINT('',(0.800000000000002,0.,2.4));
#1681=CARTESIAN_POINT('',(-60.,0.,0.));
#1682=CARTESIAN_POINT('',(-60.,0.399999999999999,2.36643191323985));
#1683=CARTESIAN_POINT('',(5.,0.4,2.36643191323985));
#1684=CARTESIAN_POINT('',(-60.,0.399999999999999,-2.36643191323985));
#1685=CARTESIAN_POINT('',(5.,0.4,-2.36643191323985));
#1686=CARTESIAN_POINT('',(5.,-0.4,-2.36643191323985));
#1687=CARTESIAN_POINT('',(4.78822268583313,-0.4,-2.36643191323985));
#1688=CARTESIAN_POINT('',(4.41177762092904,-0.000615622984668498,-2.43356804728185));
#1689=CARTESIAN_POINT('',(4.78822254604844,0.400000000000001,-2.36643191323985));
#1690=CARTESIAN_POINT('',(5.,0.400000000000001,-2.36643191323985));
#1691=CARTESIAN_POINT('',(5.,-0.400000000000001,-2.36643191323985));
#1692=CARTESIAN_POINT('',(-60.,-0.400000000000008,-2.36643191323985));
#1693=CARTESIAN_POINT('',(7.19999999999832,-0.4,-2.36643191323965));
#1694=CARTESIAN_POINT('',(7.2,0.,0.));
#1695=CARTESIAN_POINT('',(7.2,-0.4,2.36643191323985));
#1696=CARTESIAN_POINT('',(-60.,-0.400000000000008,2.36643191323985));
#1697=CARTESIAN_POINT('',(5.,-0.400000000000001,2.36643191323985));
#1698=CARTESIAN_POINT('',(5.,0.4,2.36643191323985));
#1699=CARTESIAN_POINT('',(4.78822268583313,0.4,2.36643191323985));
#1700=CARTESIAN_POINT('',(4.41177762092904,0.000615622984668498,2.43356804728185));
#1701=CARTESIAN_POINT('',(4.78822254604844,-0.400000000000001,2.36643191323985));
#1702=CARTESIAN_POINT('',(5.,-0.400000000000001,2.36643191323985));
#1703=CARTESIAN_POINT('',(7.3,0.,0.));
#1704=CARTESIAN_POINT('',(7.3,-0.4,-2.46779253585062));
#1705=CARTESIAN_POINT('',(7.24755048625487,-0.4,-2.46779253585062));
#1706=CARTESIAN_POINT('',(7.19999999999985,-0.4,-2.4189235797761));
#1707=CARTESIAN_POINT('',(7.2,-0.4,-2.36643191323957));
#1708=CARTESIAN_POINT('',(7.3,-0.400000000000008,-2.46779253585061));
#1709=CARTESIAN_POINT('',(7.3,0.,0.));
#1710=CARTESIAN_POINT('',(7.3,-0.400000000000008,2.46779253585061));
#1711=CARTESIAN_POINT('',(7.2,-0.4,2.36643191323985));
#1712=CARTESIAN_POINT('',(7.2,-0.4,2.41928130382626));
#1713=CARTESIAN_POINT('',(7.24728082702684,-0.4,2.46779253585062));
#1714=CARTESIAN_POINT('',(7.3,-0.4,2.46779253585062));
#1715=CARTESIAN_POINT('',(-60.,0.,0.));
#1716=CARTESIAN_POINT('',(-60.,-0.400000000000008,2.46779253585061));
#1717=CARTESIAN_POINT('',(8.7,-0.4,2.46779253585061));
#1718=CARTESIAN_POINT('',(-60.,-0.400000000000008,-2.46779253585061));
#1719=CARTESIAN_POINT('',(8.7,-0.4,-2.46779253585062));
#1720=CARTESIAN_POINT('',(8.7,0.,0.));
#1721=CARTESIAN_POINT('',(8.7,0.,0.));
#1722=CARTESIAN_POINT('',(8.8,-0.4,-2.36643191323985));
#1723=CARTESIAN_POINT('',(8.8,-0.4,-2.41912202569177));
#1724=CARTESIAN_POINT('',(8.75268961953553,-0.4,-2.46779253585062));
#1725=CARTESIAN_POINT('',(8.7,-0.4,-2.46779253585062));
#1726=CARTESIAN_POINT('',(8.7,-0.4,2.46779253585061));
#1727=CARTESIAN_POINT('',(8.75281976937252,-0.4,2.46779253585061));
#1728=CARTESIAN_POINT('',(8.80000000000198,-0.4,2.41888964031642));
#1729=CARTESIAN_POINT('',(8.8,-0.4,2.36643191323597));
#1730=CARTESIAN_POINT('',(16.,0.,2.));
#1731=CARTESIAN_POINT('',(16.,-120.,-0.399999999999999));
#1732=CARTESIAN_POINT('',(16.,-2.46779253585061,-0.399999999999999));
#1733=CARTESIAN_POINT('',(16.,0.,0.));
#1734=CARTESIAN_POINT('',(16.,2.46779253585061,-0.399999999999999));
#1735=CARTESIAN_POINT('',(16.,-120.,-0.399999999999999));
#1736=CARTESIAN_POINT('',(16.,-120.,-0.399999999999999));
#1737=CARTESIAN_POINT('',(15.2,-2.46779253585062,-0.399999999999999));
#1738=CARTESIAN_POINT('',(15.2,-2.5209440981174,-0.399999999999999));
#1739=CARTESIAN_POINT('',(15.2468291103067,-2.56904651573327,-0.4));
#1740=CARTESIAN_POINT('',(15.2999999999999,-2.5690465157333,-0.4));
#1741=CARTESIAN_POINT('',(15.9,-2.56904651573303,-0.400000000000009));
#1742=CARTESIAN_POINT('',(15.9531590171619,-2.56904651573303,-0.400000000000009));
#1743=CARTESIAN_POINT('',(16.0000000000007,-2.52093314467838,-0.399999999999999));
#1744=CARTESIAN_POINT('',(16.0000000000008,-2.46779253585081,-0.399999999999999));
#1745=CARTESIAN_POINT('',(13.,-120.,-0.399999999999999));
#1746=CARTESIAN_POINT('',(16.,-120.,0.400000000000001));
#1747=CARTESIAN_POINT('',(15.3,-2.56904651573303,0.399999999999991));
#1748=CARTESIAN_POINT('',(15.2468409828381,-2.56904651573303,0.399999999999991));
#1749=CARTESIAN_POINT('',(15.1999999999993,-2.52093314467838,0.400000000000001));
#1750=CARTESIAN_POINT('',(15.1999999999992,-2.46779253585081,0.400000000000001));
#1751=CARTESIAN_POINT('',(13.,-120.,0.4));
#1752=CARTESIAN_POINT('',(16.,-2.46779253585062,0.400000000000001));
#1753=CARTESIAN_POINT('',(16.,-2.52094409811741,0.400000000000001));
#1754=CARTESIAN_POINT('',(15.9531708896933,-2.56904651573327,0.400000000000001));
#1755=CARTESIAN_POINT('',(15.9000000000001,-2.5690465157333,0.400000000000001));
#1756=CARTESIAN_POINT('',(13.,-120.,0.));
#1757=CARTESIAN_POINT('',(16.,-120.,-0.399999999999999));
#1758=CARTESIAN_POINT('',(15.3,2.56904651573303,-0.400000000000009));
#1759=CARTESIAN_POINT('',(15.2468409828381,2.56904651573303,-0.400000000000009));
#1760=CARTESIAN_POINT('',(15.1999999999993,2.52093314467838,-0.4));
#1761=CARTESIAN_POINT('',(15.1999999999992,2.46779253585081,-0.4));
#1762=CARTESIAN_POINT('',(13.,-120.,-0.399999999999999));
#1763=CARTESIAN_POINT('',(16.,2.46779253585062,-0.399999999999999));
#1764=CARTESIAN_POINT('',(16.,2.52094409811741,-0.399999999999999));
#1765=CARTESIAN_POINT('',(15.9531708896933,2.56904651573327,-0.399999999999999));
#1766=CARTESIAN_POINT('',(15.9000000000001,2.5690465157333,-0.399999999999999));
#1767=CARTESIAN_POINT('',(16.,-120.,0.400000000000001));
#1768=CARTESIAN_POINT('',(15.2,2.46779253585062,0.400000000000001));
#1769=CARTESIAN_POINT('',(15.2,2.5209440981174,0.400000000000001));
#1770=CARTESIAN_POINT('',(15.2468291103067,2.56904651573327,0.400000000000001));
#1771=CARTESIAN_POINT('',(15.2999999999999,2.5690465157333,0.400000000000001));
#1772=CARTESIAN_POINT('',(15.9,2.56904651573303,0.399999999999991));
#1773=CARTESIAN_POINT('',(15.9531590171619,2.56904651573303,0.399999999999991));
#1774=CARTESIAN_POINT('',(16.0000000000007,2.52093314467838,0.400000000000001));
#1775=CARTESIAN_POINT('',(16.0000000000008,2.46779253585081,0.400000000000001));
#1776=CARTESIAN_POINT('',(13.,-120.,0.4));
#1777=CARTESIAN_POINT('',(13.,-120.,0.));
#1778=CARTESIAN_POINT('',(-8.,-120.,-0.400000000017378));
#1779=CARTESIAN_POINT('',(-7.2,2.4677925358478,-0.400000000017378));
#1780=CARTESIAN_POINT('',(-7.2,2.52094409811462,-0.400000000017378));
#1781=CARTESIAN_POINT('',(-7.24682911030663,2.56904651573056,-0.400000000017378));
#1782=CARTESIAN_POINT('',(-7.29999999999994,2.56904651573059,-0.400000000017378));
#1783=CARTESIAN_POINT('',(-7.9,2.56904651573032,-0.400000000017378));
#1784=CARTESIAN_POINT('',(-7.95315901716195,2.56904651573032,-0.400000000017378));
#1785=CARTESIAN_POINT('',(-8.00000000000074,2.52093314467559,-0.400000000017378));
#1786=CARTESIAN_POINT('',(-8.00000000000085,2.46779253584799,-0.400000000017378));
#1787=CARTESIAN_POINT('',(-5.00000372853314,-120.,-0.400000000017378));
#1788=CARTESIAN_POINT('',(-5.00000372853314,-120.,0.));
#1789=CARTESIAN_POINT('',(-5.00000372853314,-120.,0.400000000017378));
#1790=CARTESIAN_POINT('',(-8.,-120.,0.400000000017378));
#1791=CARTESIAN_POINT('',(-8.,2.4677925358478,0.400000000017378));
#1792=CARTESIAN_POINT('',(-8.,2.52094409811461,0.400000000017378));
#1793=CARTESIAN_POINT('',(-7.95317088969338,2.56904651573056,0.400000000017378));
#1794=CARTESIAN_POINT('',(-7.90000000000006,2.56904651573059,0.400000000017378));
#1795=CARTESIAN_POINT('',(-7.3,2.56904651573032,0.400000000017378));
#1796=CARTESIAN_POINT('',(-7.24684098283805,2.56904651573032,0.400000000017378));
#1797=CARTESIAN_POINT('',(-7.19999999999926,2.52093314467559,0.400000000017378));
#1798=CARTESIAN_POINT('',(-7.19999999999916,2.46779253584799,0.400000000017378));
#1799=CARTESIAN_POINT('',(-8.,-120.,-0.400000000017378));
#1800=CARTESIAN_POINT('',(-7.3,-2.56904651573032,-0.400000000017378));
#1801=CARTESIAN_POINT('',(-7.24684098283805,-2.56904651573032,-0.400000000017378));
#1802=CARTESIAN_POINT('',(-7.19999999999926,-2.52093314467559,-0.400000000017378));
#1803=CARTESIAN_POINT('',(-7.19999999999916,-2.46779253584799,-0.400000000017378));
#1804=CARTESIAN_POINT('',(-5.00000372853314,-120.,-0.400000000017378));
#1805=CARTESIAN_POINT('',(-8.,-2.4677925358478,-0.400000000017378));
#1806=CARTESIAN_POINT('',(-8.,-2.52094409811461,-0.400000000017378));
#1807=CARTESIAN_POINT('',(-7.95317088969338,-2.56904651573056,-0.400000000017378));
#1808=CARTESIAN_POINT('',(-7.90000000000006,-2.56904651573059,-0.400000000017378));
#1809=CARTESIAN_POINT('',(-8.,-120.,0.400000000017378));
#1810=CARTESIAN_POINT('',(-7.9,-2.56904651573032,0.400000000017378));
#1811=CARTESIAN_POINT('',(-7.95315901716195,-2.56904651573032,0.400000000017378));
#1812=CARTESIAN_POINT('',(-8.00000000000074,-2.52093314467559,0.400000000017378));
#1813=CARTESIAN_POINT('',(-8.00000000000085,-2.46779253584799,0.400000000017378));
#1814=CARTESIAN_POINT('',(-5.00000372853314,-120.,0.400000000017378));
#1815=CARTESIAN_POINT('',(-7.2,-2.4677925358478,0.400000000017378));
#1816=CARTESIAN_POINT('',(-7.2,-2.52094409811462,0.400000000017378));
#1817=CARTESIAN_POINT('',(-7.24682911030663,-2.56904651573056,0.400000000017378));
#1818=CARTESIAN_POINT('',(-7.29999999999994,-2.56904651573059,0.400000000017378));
#1819=CARTESIAN_POINT('',(-5.00000372853314,-120.,0.));
#1820=CARTESIAN_POINT('',(5.,0.4,60.));
#1821=CARTESIAN_POINT('',(11.,0.4,60.));
#1822=CARTESIAN_POINT('',(5.,0.4,60.));
#1823=CARTESIAN_POINT('',(11.,-0.4,60.));
#1824=CARTESIAN_POINT('',(5.,-0.400000000000001,60.));
#1825=CARTESIAN_POINT('',(11.,-0.399999999999999,60.));
#1826=CARTESIAN_POINT('',(5.,0.,60.));
#1827=CARTESIAN_POINT('',(11.,1.62630325872826E-16,60.));
#1828=CARTESIAN_POINT('',(11.,1.62630325872826E-16,60.));
#1829=CARTESIAN_POINT('',(11.,0.4,60.));
#1830=CARTESIAN_POINT('',(11.,-0.399999999999999,60.));
#1831=CARTESIAN_POINT('',(5.,0.,60.));
#1832=CARTESIAN_POINT('',(5.,-0.400000000000001,60.));
#1833=CARTESIAN_POINT('',(5.,0.4,60.));
#1834=CARTESIAN_POINT('',(5.,0.4,60.));
#1835=CARTESIAN_POINT('',(11.,-0.4,60.));
#1836=CARTESIAN_POINT('',(-7.9,0.,0.));
#1837=CARTESIAN_POINT('',(15.9,0.,0.));
#1838=CARTESIAN_POINT('',(15.9,0.,0.));
#1839=CARTESIAN_POINT('',(15.3,0.,0.));
#1840=CARTESIAN_POINT('',(15.3,0.,0.));
#1841=CARTESIAN_POINT('',(0.699999999999999,0.,0.));
#1842=CARTESIAN_POINT('',(-0.699999999999999,0.,0.));
#1843=CARTESIAN_POINT('',(-7.3,0.,0.));
#1844=CARTESIAN_POINT('',(-7.9,0.,0.));
#1845=CARTESIAN_POINT('',(-7.3,0.,0.));
#1846=MECHANICAL_DESIGN_GEOMETRIC_PRESENTATION_REPRESENTATION('',(#1037),
#1847);
#1847=(
GEOMETRIC_REPRESENTATION_CONTEXT(3)
GLOBAL_UNCERTAINTY_ASSIGNED_CONTEXT((#1848))
GLOBAL_UNIT_ASSIGNED_CONTEXT((#1851,#1850,#1849))
REPRESENTATION_CONTEXT('Sand_4514554_MCM','TOP_LEVEL_ASSEMBLY_PART')
);
#1848=UNCERTAINTY_MEASURE_WITH_UNIT(LENGTH_MEASURE(0.005),#1851,
'DISTANCE_ACCURACY_VALUE','Maximum Tolerance applied to model');
#1849=(
NAMED_UNIT(*)
SI_UNIT($,.STERADIAN.)
SOLID_ANGLE_UNIT()
);
#1850=(
NAMED_UNIT(*)
PLANE_ANGLE_UNIT()
SI_UNIT($,.RADIAN.)
);
#1851=(
LENGTH_UNIT()
NAMED_UNIT(*)
SI_UNIT(.MILLI.,.METRE.)
);
#1852=PRODUCT_DEFINITION_SHAPE('','',#1853);
#1853=PRODUCT_DEFINITION('','',#1855,#1854);
#1854=PRODUCT_DEFINITION_CONTEXT('',#1861,'design');
#1855=PRODUCT_DEFINITION_FORMATION_WITH_SPECIFIED_SOURCE('','',#1857,
 .NOT_KNOWN.);
#1856=PRODUCT_RELATED_PRODUCT_CATEGORY('','',(#1857));
#1857=PRODUCT('Sand_4514554_MCM','Sand_4514554_MCM','Sand_4514554_MCM',
(#1859));
#1858=PRODUCT_CATEGORY('','');
#1859=PRODUCT_CONTEXT('',#1861,'mechanical');
#1860=APPLICATION_PROTOCOL_DEFINITION('international standard',
'automotive_design',2010,#1861);
#1861=APPLICATION_CONTEXT(
'core data for automotive mechanical design processes');
ENDSEC;
END-ISO-10303-21;
