ISO-10303-21;
HEADER;
/* Generated by software containing ST-Developer
 * from STEP Tools, Inc. (www.steptools.com) 
 */
/* OPTION: strings as raw bytes, not using required /X/ escapes */

FILE_DESCRIPTION(
/* description */ ('Unknown'),
/* implementation_level */ '2;1');

FILE_NAME(
/* name */ 'Trans_3005740_JC',
/* time_stamp */ '2025-07-22T00:05:42+02:00',
/* author */ ('Unknown'),
/* organization */ ('Unknown'),
/* preprocessor_version */ 'ST-DEVELOPER v19.4',
/* originating_system */ 'Solid Edge',
/* authorisation */ 'Unknown');

FILE_SCHEMA (('AUTOMOTIVE_DESIGN {1 0 10303 214 3 1 1}'));
ENDSEC;

DATA;
#10=PROPERTY_DEFINITION_REPRESENTATION(#14,#12);
#11=PROPERTY_DEFINITION_REPRESENTATION(#15,#13);
#12=REPRESENTATION('',(#16),#245);
#13=REPRESENTATION('',(#17),#245);
#14=PROPERTY_DEFINITION('pmi validation property','',#250);
#15=PROPERTY_DEFINITION('pmi validation property','',#250);
#16=VALUE_REPRESENTATION_ITEM('number of annotations',COUNT_MEASURE(0.));
#17=VALUE_REPRESENTATION_ITEM('number of views',COUNT_MEASURE(0.));
#18=SHAPE_REPRESENTATION_RELATIONSHIP('','',#145,#19);
#19=ADVANCED_BREP_SHAPE_REPRESENTATION('',(#143),#245);
#20=CYLINDRICAL_SURFACE('',#150,2.4);
#21=CYLINDRICAL_SURFACE('',#154,1.2);
#22=CYLINDRICAL_SURFACE('',#159,2.4);
#23=CYLINDRICAL_SURFACE('',#163,4.);
#24=CYLINDRICAL_SURFACE('',#167,3.2);
#25=ORIENTED_EDGE('',*,*,#45,.T.);
#26=ORIENTED_EDGE('',*,*,#46,.F.);
#27=ORIENTED_EDGE('',*,*,#47,.T.);
#28=ORIENTED_EDGE('',*,*,#45,.F.);
#29=ORIENTED_EDGE('',*,*,#48,.T.);
#30=ORIENTED_EDGE('',*,*,#47,.F.);
#31=ORIENTED_EDGE('',*,*,#49,.T.);
#32=ORIENTED_EDGE('',*,*,#48,.F.);
#33=ORIENTED_EDGE('',*,*,#49,.F.);
#34=ORIENTED_EDGE('',*,*,#50,.T.);
#35=ORIENTED_EDGE('',*,*,#51,.T.);
#36=ORIENTED_EDGE('',*,*,#50,.F.);
#37=ORIENTED_EDGE('',*,*,#52,.T.);
#38=ORIENTED_EDGE('',*,*,#51,.F.);
#39=ORIENTED_EDGE('',*,*,#53,.T.);
#40=ORIENTED_EDGE('',*,*,#52,.F.);
#41=ORIENTED_EDGE('',*,*,#54,.T.);
#42=ORIENTED_EDGE('',*,*,#53,.F.);
#43=ORIENTED_EDGE('',*,*,#46,.T.);
#44=ORIENTED_EDGE('',*,*,#54,.F.);
#45=EDGE_CURVE('',#55,#55,#65,.T.);
#46=EDGE_CURVE('',#56,#56,#66,.T.);
#47=EDGE_CURVE('',#57,#57,#67,.T.);
#48=EDGE_CURVE('',#58,#58,#68,.T.);
#49=EDGE_CURVE('',#59,#59,#69,.T.);
#50=EDGE_CURVE('',#60,#60,#70,.T.);
#51=EDGE_CURVE('',#61,#61,#71,.T.);
#52=EDGE_CURVE('',#62,#62,#72,.T.);
#53=EDGE_CURVE('',#63,#63,#73,.T.);
#54=EDGE_CURVE('',#64,#64,#74,.T.);
#55=VERTEX_POINT('',#215);
#56=VERTEX_POINT('',#217);
#57=VERTEX_POINT('',#220);
#58=VERTEX_POINT('',#223);
#59=VERTEX_POINT('',#226);
#60=VERTEX_POINT('',#230);
#61=VERTEX_POINT('',#233);
#62=VERTEX_POINT('',#236);
#63=VERTEX_POINT('',#239);
#64=VERTEX_POINT('',#242);
#65=CIRCLE('',#148,2.4);
#66=CIRCLE('',#149,3.2);
#67=CIRCLE('',#151,2.4);
#68=CIRCLE('',#153,1.2);
#69=CIRCLE('',#155,1.2);
#70=CIRCLE('',#158,2.4);
#71=CIRCLE('',#160,2.4);
#72=CIRCLE('',#162,4.);
#73=CIRCLE('',#164,4.);
#74=CIRCLE('',#166,3.2);
#75=EDGE_LOOP('',(#25));
#76=EDGE_LOOP('',(#26));
#77=EDGE_LOOP('',(#27));
#78=EDGE_LOOP('',(#28));
#79=EDGE_LOOP('',(#29));
#80=EDGE_LOOP('',(#30));
#81=EDGE_LOOP('',(#31));
#82=EDGE_LOOP('',(#32));
#83=EDGE_LOOP('',(#33));
#84=EDGE_LOOP('',(#34));
#85=EDGE_LOOP('',(#35));
#86=EDGE_LOOP('',(#36));
#87=EDGE_LOOP('',(#37));
#88=EDGE_LOOP('',(#38));
#89=EDGE_LOOP('',(#39));
#90=EDGE_LOOP('',(#40));
#91=EDGE_LOOP('',(#41));
#92=EDGE_LOOP('',(#42));
#93=EDGE_LOOP('',(#43));
#94=EDGE_LOOP('',(#44));
#95=FACE_BOUND('',#75,.T.);
#96=FACE_BOUND('',#76,.T.);
#97=FACE_BOUND('',#77,.T.);
#98=FACE_BOUND('',#78,.T.);
#99=FACE_BOUND('',#79,.T.);
#100=FACE_BOUND('',#80,.T.);
#101=FACE_BOUND('',#81,.T.);
#102=FACE_BOUND('',#82,.T.);
#103=FACE_BOUND('',#83,.T.);
#104=FACE_BOUND('',#84,.T.);
#105=FACE_BOUND('',#85,.T.);
#106=FACE_BOUND('',#86,.T.);
#107=FACE_BOUND('',#87,.T.);
#108=FACE_BOUND('',#88,.T.);
#109=FACE_BOUND('',#89,.T.);
#110=FACE_BOUND('',#90,.T.);
#111=FACE_BOUND('',#91,.T.);
#112=FACE_BOUND('',#92,.T.);
#113=FACE_BOUND('',#93,.T.);
#114=FACE_BOUND('',#94,.T.);
#115=PLANE('',#147);
#116=PLANE('',#152);
#117=PLANE('',#156);
#118=PLANE('',#157);
#119=PLANE('',#161);
#120=PLANE('',#165);
#121=ADVANCED_FACE('',(#95,#96),#115,.T.);
#122=ADVANCED_FACE('',(#97,#98),#20,.F.);
#123=ADVANCED_FACE('',(#99,#100),#116,.T.);
#124=ADVANCED_FACE('',(#101,#102),#21,.F.);
#125=ADVANCED_FACE('',(#103),#117,.T.);
#126=ADVANCED_FACE('',(#104),#118,.T.);
#127=ADVANCED_FACE('',(#105,#106),#22,.T.);
#128=ADVANCED_FACE('',(#107,#108),#119,.T.);
#129=ADVANCED_FACE('',(#109,#110),#23,.T.);
#130=ADVANCED_FACE('',(#111,#112),#120,.T.);
#131=ADVANCED_FACE('',(#113,#114),#24,.T.);
#132=CLOSED_SHELL('',(#121,#122,#123,#124,#125,#126,#127,#128,#129,#130,
#131));
#133=STYLED_ITEM('',(#134),#143);
#134=PRESENTATION_STYLE_ASSIGNMENT((#135));
#135=SURFACE_STYLE_USAGE(.BOTH.,#136);
#136=SURFACE_SIDE_STYLE('',(#139,#137));
#137=SURFACE_STYLE_RENDERING_WITH_PROPERTIES(.CONSTANT_SHADING.,#142,(#138));
#138=SURFACE_STYLE_TRANSPARENT(0.625);
#139=SURFACE_STYLE_FILL_AREA(#140);
#140=FILL_AREA_STYLE('',(#141));
#141=FILL_AREA_STYLE_COLOUR('',#142);
#142=DRAUGHTING_PRE_DEFINED_COLOUR('white');
#143=MANIFOLD_SOLID_BREP('',#132);
#144=SHAPE_DEFINITION_REPRESENTATION(#250,#145);
#145=SHAPE_REPRESENTATION('Trans_3005740_JC',(#146),#245);
#146=AXIS2_PLACEMENT_3D('',#212,#168,#169);
#147=AXIS2_PLACEMENT_3D('',#213,#170,#171);
#148=AXIS2_PLACEMENT_3D('',#214,#172,#173);
#149=AXIS2_PLACEMENT_3D('',#216,#174,#175);
#150=AXIS2_PLACEMENT_3D('',#218,#176,#177);
#151=AXIS2_PLACEMENT_3D('',#219,#178,#179);
#152=AXIS2_PLACEMENT_3D('',#221,#180,#181);
#153=AXIS2_PLACEMENT_3D('',#222,#182,#183);
#154=AXIS2_PLACEMENT_3D('',#224,#184,#185);
#155=AXIS2_PLACEMENT_3D('',#225,#186,#187);
#156=AXIS2_PLACEMENT_3D('',#227,#188,#189);
#157=AXIS2_PLACEMENT_3D('',#228,#190,#191);
#158=AXIS2_PLACEMENT_3D('',#229,#192,#193);
#159=AXIS2_PLACEMENT_3D('',#231,#194,#195);
#160=AXIS2_PLACEMENT_3D('',#232,#196,#197);
#161=AXIS2_PLACEMENT_3D('',#234,#198,#199);
#162=AXIS2_PLACEMENT_3D('',#235,#200,#201);
#163=AXIS2_PLACEMENT_3D('',#237,#202,#203);
#164=AXIS2_PLACEMENT_3D('',#238,#204,#205);
#165=AXIS2_PLACEMENT_3D('',#240,#206,#207);
#166=AXIS2_PLACEMENT_3D('',#241,#208,#209);
#167=AXIS2_PLACEMENT_3D('',#243,#210,#211);
#168=DIRECTION('',(0.,0.,1.));
#169=DIRECTION('',(1.,0.,0.));
#170=DIRECTION('',(-6.12303176911189E-17,-1.,0.));
#171=DIRECTION('',(1.,-6.12303176911189E-17,0.));
#172=DIRECTION('',(6.12303176911189E-17,1.,0.));
#173=DIRECTION('',(-1.,6.12303176911189E-17,0.));
#174=DIRECTION('',(6.12303176911189E-17,1.,0.));
#175=DIRECTION('',(-1.,6.12303176911189E-17,0.));
#176=DIRECTION('',(6.12303176911189E-17,1.,0.));
#177=DIRECTION('',(-1.,6.12303176911189E-17,0.));
#178=DIRECTION('',(6.12303176911189E-17,1.,0.));
#179=DIRECTION('',(-1.,6.12303176911189E-17,0.));
#180=DIRECTION('',(-6.12303176911189E-17,-1.,0.));
#181=DIRECTION('',(1.,-6.12303176911189E-17,0.));
#182=DIRECTION('',(6.12303176911189E-17,1.,0.));
#183=DIRECTION('',(-1.,6.12303176911189E-17,0.));
#184=DIRECTION('',(6.12303176911189E-17,1.,0.));
#185=DIRECTION('',(-1.,6.12303176911189E-17,0.));
#186=DIRECTION('',(6.12303176911189E-17,1.,0.));
#187=DIRECTION('',(-1.,6.12303176911189E-17,0.));
#188=DIRECTION('',(-6.12303176911189E-17,-1.,0.));
#189=DIRECTION('',(1.,-6.12303176911189E-17,0.));
#190=DIRECTION('',(6.12303176911189E-17,1.,0.));
#191=DIRECTION('',(-1.,6.12303176911189E-17,0.));
#192=DIRECTION('',(6.12303176911189E-17,1.,0.));
#193=DIRECTION('',(-1.,6.12303176911189E-17,0.));
#194=DIRECTION('',(6.12303176911189E-17,1.,0.));
#195=DIRECTION('',(-1.,6.12303176911189E-17,0.));
#196=DIRECTION('',(6.12303176911189E-17,1.,0.));
#197=DIRECTION('',(-1.,6.12303176911189E-17,0.));
#198=DIRECTION('',(6.12303176911189E-17,1.,0.));
#199=DIRECTION('',(-1.,6.12303176911189E-17,0.));
#200=DIRECTION('',(6.12303176911189E-17,1.,0.));
#201=DIRECTION('',(-1.,6.12303176911189E-17,0.));
#202=DIRECTION('',(6.12303176911189E-17,1.,0.));
#203=DIRECTION('',(-1.,6.12303176911189E-17,0.));
#204=DIRECTION('',(6.12303176911189E-17,1.,0.));
#205=DIRECTION('',(-1.,6.12303176911189E-17,0.));
#206=DIRECTION('',(-6.12303176911189E-17,-1.,0.));
#207=DIRECTION('',(1.,-6.12303176911189E-17,0.));
#208=DIRECTION('',(6.12303176911189E-17,1.,0.));
#209=DIRECTION('',(-1.,6.12303176911189E-17,0.));
#210=DIRECTION('',(6.12303176911189E-17,1.,0.));
#211=DIRECTION('',(-1.,6.12303176911189E-17,0.));
#212=CARTESIAN_POINT('',(0.,0.,0.));
#213=CARTESIAN_POINT('',(2.4,1.73569925793204E-16,0.));
#214=CARTESIAN_POINT('',(3.30643715532042E-15,0.,0.));
#215=CARTESIAN_POINT('',(-2.39999999999999,1.46952762458685E-16,0.));
#216=CARTESIAN_POINT('',(3.30643715532042E-15,0.,0.));
#217=CARTESIAN_POINT('',(-3.19999999999999,1.9593701661158E-16,0.));
#218=CARTESIAN_POINT('',(6.61287431064084E-15,54.,0.));
#219=CARTESIAN_POINT('',(3.40440566362621E-15,1.6,0.));
#220=CARTESIAN_POINT('',(-2.39999999999999,1.6,0.));
#221=CARTESIAN_POINT('',(1.2,1.6,0.));
#222=CARTESIAN_POINT('',(3.40440566362621E-15,1.6,0.));
#223=CARTESIAN_POINT('',(-1.19999999999999,1.6,0.));
#224=CARTESIAN_POINT('',(6.61287431064084E-15,54.,0.));
#225=CARTESIAN_POINT('',(3.4533899177791E-15,2.40000000000001,0.));
#226=CARTESIAN_POINT('',(-1.19999999999999,2.40000000000001,0.));
#227=CARTESIAN_POINT('',(1.2,2.4,0.));
#228=CARTESIAN_POINT('',(2.4,4.8,0.));
#229=CARTESIAN_POINT('',(3.60034268023779E-15,4.8,0.));
#230=CARTESIAN_POINT('',(-2.4,4.8,0.));
#231=CARTESIAN_POINT('',(6.61287431064084E-15,54.,0.));
#232=CARTESIAN_POINT('',(3.502374171932E-15,3.2,0.));
#233=CARTESIAN_POINT('',(-2.4,3.2,0.));
#234=CARTESIAN_POINT('',(2.4,3.2,0.));
#235=CARTESIAN_POINT('',(3.502374171932E-15,3.2,0.));
#236=CARTESIAN_POINT('',(-4.,3.2,0.));
#237=CARTESIAN_POINT('',(6.61287431064084E-15,54.,0.));
#238=CARTESIAN_POINT('',(3.40440566362621E-15,1.6,0.));
#239=CARTESIAN_POINT('',(-4.,1.6,0.));
#240=CARTESIAN_POINT('',(3.2,1.6,0.));
#241=CARTESIAN_POINT('',(3.40440566362621E-15,1.6,0.));
#242=CARTESIAN_POINT('',(-3.19999999999999,1.6,0.));
#243=CARTESIAN_POINT('',(6.61287431064084E-15,54.,0.));
#244=MECHANICAL_DESIGN_GEOMETRIC_PRESENTATION_REPRESENTATION('',(#133),
#245);
#245=(
GEOMETRIC_REPRESENTATION_CONTEXT(3)
GLOBAL_UNCERTAINTY_ASSIGNED_CONTEXT((#246))
GLOBAL_UNIT_ASSIGNED_CONTEXT((#249,#248,#247))
REPRESENTATION_CONTEXT('Trans_3005740_JC','TOP_LEVEL_ASSEMBLY_PART')
);
#246=UNCERTAINTY_MEASURE_WITH_UNIT(LENGTH_MEASURE(0.005),#249,
'DISTANCE_ACCURACY_VALUE','Maximum Tolerance applied to model');
#247=(
NAMED_UNIT(*)
SI_UNIT($,.STERADIAN.)
SOLID_ANGLE_UNIT()
);
#248=(
NAMED_UNIT(*)
PLANE_ANGLE_UNIT()
SI_UNIT($,.RADIAN.)
);
#249=(
LENGTH_UNIT()
NAMED_UNIT(*)
SI_UNIT(.MILLI.,.METRE.)
);
#250=PRODUCT_DEFINITION_SHAPE('','',#251);
#251=PRODUCT_DEFINITION('','',#253,#252);
#252=PRODUCT_DEFINITION_CONTEXT('',#259,'design');
#253=PRODUCT_DEFINITION_FORMATION_WITH_SPECIFIED_SOURCE('','',#255,
 .NOT_KNOWN.);
#254=PRODUCT_RELATED_PRODUCT_CATEGORY('','',(#255));
#255=PRODUCT('Trans_3005740_JC','Trans_3005740_JC','Trans_3005740_JC',(#257));
#256=PRODUCT_CATEGORY('','');
#257=PRODUCT_CONTEXT('',#259,'mechanical');
#258=APPLICATION_PROTOCOL_DEFINITION('international standard',
'automotive_design',2010,#259);
#259=APPLICATION_CONTEXT(
'core data for automotive mechanical design processes');
ENDSEC;
END-ISO-10303-21;
