ISO-10303-21;
HEADER;
/* Generated by software containing ST-Developer
 * from STEP Tools, Inc. (www.steptools.com) 
 */
/* OPTION: strings as raw bytes, not using required /X/ escapes */

FILE_DESCRIPTION(
/* description */ ('Unknown'),
/* implementation_level */ '2;1');

FILE_NAME(
/* name */ 'Ye_389424_MCM',
/* time_stamp */ '2025-07-22T00:05:56+02:00',
/* author */ ('Unknown'),
/* organization */ ('Unknown'),
/* preprocessor_version */ 'ST-DEVELOPER v19.4',
/* originating_system */ 'Solid Edge',
/* authorisation */ 'Unknown');

FILE_SCHEMA (('AUTOMOTIVE_DESIGN {1 0 10303 214 3 1 1}'));
ENDSEC;

DATA;
#10=PROPERTY_DEFINITION_REPRESENTATION(#14,#12);
#11=PROPERTY_DEFINITION_REPRESENTATION(#15,#13);
#12=REPRESENTATION('',(#16),#2282);
#13=REPRESENTATION('',(#17),#2282);
#14=PROPERTY_DEFINITION('pmi validation property','',#2287);
#15=PROPERTY_DEFINITION('pmi validation property','',#2287);
#16=VALUE_REPRESENTATION_ITEM('number of annotations',COUNT_MEASURE(0.));
#17=VALUE_REPRESENTATION_ITEM('number of views',COUNT_MEASURE(0.));
#18=SHAPE_REPRESENTATION_RELATIONSHIP('','',#1317,#19);
#19=ADVANCED_BREP_SHAPE_REPRESENTATION('',(#1315),#2282);
#20=B_SPLINE_CURVE_WITH_KNOTS('',3,(#2112,#2113,#2114,#2115,#2116,#2117,
#2118,#2119,#2120,#2121,#2122),.UNSPECIFIED.,.T.,.F.,(1,1,1,1,1,1,1,1,1,
1,1,1,1,1,1),(-0.00380262864993839,-0.00253508576662559,-0.00126754288331279,
0.,0.0012675428833128,0.00253508576662559,0.00380262864993839,0.00507017153325118,
0.00633771441656398,0.00760525729987677,0.00887280018318957,0.0101403430665024,
0.0114078859498152,0.012675428833128,0.0139429717164407),.UNSPECIFIED.);
#21=B_SPLINE_CURVE_WITH_KNOTS('',3,(#2129,#2130,#2131,#2132,#2133,#2134,
#2135,#2136,#2137,#2138,#2139),.UNSPECIFIED.,.T.,.F.,(1,1,1,1,1,1,1,1,1,
1,1,1,1,1,1),(-0.00380262864993838,-0.00253508576662559,-0.0012675428833128,
0.,0.0012675428833128,0.00253508576662559,0.00380262864993838,0.00507017153325118,
0.00633771441656398,0.00760525729987677,0.00887280018318956,0.0101403430665024,
0.0114078859498152,0.012675428833128,0.0139429717164407),.UNSPECIFIED.);
#22=B_SPLINE_CURVE_WITH_KNOTS('',3,(#2146,#2147,#2148,#2149,#2150,#2151,
#2152,#2153,#2154,#2155,#2156),.UNSPECIFIED.,.T.,.F.,(1,1,1,1,1,1,1,1,1,
1,1,1,1,1,1),(-0.00380262864993838,-0.00253508576662559,-0.0012675428833128,
0.,0.0012675428833128,0.00253508576662559,0.00380262864993838,0.00507017153325118,
0.00633771441656398,0.00760525729987677,0.00887280018318956,0.0101403430665024,
0.0114078859498152,0.012675428833128,0.0139429717164407),.UNSPECIFIED.);
#23=B_SPLINE_CURVE_WITH_KNOTS('',3,(#2163,#2164,#2165,#2166,#2167,#2168,
#2169,#2170,#2171,#2172,#2173),.UNSPECIFIED.,.T.,.F.,(1,1,1,1,1,1,1,1,1,
1,1,1,1,1,1),(-0.00380262864993839,-0.00253508576662559,-0.0012675428833128,
0.,0.0012675428833128,0.00253508576662559,0.00380262864993839,0.00507017153325118,
0.00633771441656398,0.00760525729987677,0.00887280018318957,0.0101403430665024,
0.0114078859498152,0.012675428833128,0.0139429717164408),.UNSPECIFIED.);
#24=B_SPLINE_CURVE_WITH_KNOTS('',3,(#2180,#2181,#2182,#2183,#2184,#2185,
#2186,#2187,#2188,#2189,#2190),.UNSPECIFIED.,.T.,.F.,(1,1,1,1,1,1,1,1,1,
1,1,1,1,1,1),(-0.00380497939551705,-0.0025366529303447,-0.00126832646517235,
0.,0.00126832646517235,0.0025366529303447,0.00380497939551705,0.0050733058606894,
0.00634163232586175,0.0076099587910341,0.00887828525620645,0.0101466117213788,
0.0114149381865512,0.0126832646517235,0.0139515911168959),.UNSPECIFIED.);
#25=CYLINDRICAL_SURFACE('',#1362,2.4);
#26=CYLINDRICAL_SURFACE('',#1366,2.4);
#27=CYLINDRICAL_SURFACE('',#1370,2.4);
#28=CYLINDRICAL_SURFACE('',#1374,2.4);
#29=CYLINDRICAL_SURFACE('',#1378,2.4);
#30=CYLINDRICAL_SURFACE('',#1382,2.4);
#31=CYLINDRICAL_SURFACE('',#1387,1.6);
#32=CYLINDRICAL_SURFACE('',#1390,1.6);
#33=CYLINDRICAL_SURFACE('',#1393,1.6);
#34=CYLINDRICAL_SURFACE('',#1396,1.6);
#35=CYLINDRICAL_SURFACE('',#1399,1.6);
#36=CYLINDRICAL_SURFACE('',#1402,1.6);
#37=CYLINDRICAL_SURFACE('',#1403,3.59999999999997);
#38=CYLINDRICAL_SURFACE('',#1406,3.6);
#39=CYLINDRICAL_SURFACE('',#1409,3.59999999999997);
#40=CYLINDRICAL_SURFACE('',#1412,3.59999999999997);
#41=CYLINDRICAL_SURFACE('',#1415,3.59999999999999);
#42=CYLINDRICAL_SURFACE('',#1420,1.6);
#43=CYLINDRICAL_SURFACE('',#1421,1.6);
#44=CYLINDRICAL_SURFACE('',#1424,1.6);
#45=CYLINDRICAL_SURFACE('',#1427,1.6);
#46=CYLINDRICAL_SURFACE('',#1430,1.6);
#47=CYLINDRICAL_SURFACE('',#1433,2.4);
#48=CYLINDRICAL_SURFACE('',#1436,2.4);
#49=CYLINDRICAL_SURFACE('',#1439,2.4);
#50=CYLINDRICAL_SURFACE('',#1442,2.4);
#51=CYLINDRICAL_SURFACE('',#1445,2.4);
#52=CYLINDRICAL_SURFACE('',#1450,3.1);
#53=CYLINDRICAL_SURFACE('',#1453,3.1);
#54=CYLINDRICAL_SURFACE('',#1456,3.1);
#55=CYLINDRICAL_SURFACE('',#1459,3.1);
#56=CYLINDRICAL_SURFACE('',#1462,3.1);
#57=CYLINDRICAL_SURFACE('',#1465,3.1);
#58=CYLINDRICAL_SURFACE('',#1468,3.1);
#59=CYLINDRICAL_SURFACE('',#1471,3.1);
#60=CYLINDRICAL_SURFACE('',#1474,3.1);
#61=CYLINDRICAL_SURFACE('',#1477,3.1);
#62=CIRCLE('',#1320,3.59999999999999);
#63=CIRCLE('',#1321,3.6);
#64=CIRCLE('',#1322,3.59999999999997);
#65=CIRCLE('',#1323,3.59999999999997);
#66=CIRCLE('',#1324,3.59999999999997);
#67=CIRCLE('',#1326,3.59999999999999);
#68=CIRCLE('',#1327,3.59999999999997);
#69=CIRCLE('',#1328,3.59999999999997);
#70=CIRCLE('',#1329,3.59999999999997);
#71=CIRCLE('',#1330,3.6);
#72=CIRCLE('',#1338,3.1);
#73=CIRCLE('',#1339,3.1);
#74=CIRCLE('',#1340,3.1);
#75=CIRCLE('',#1341,3.1);
#76=CIRCLE('',#1342,3.1);
#77=CIRCLE('',#1345,3.1);
#78=CIRCLE('',#1346,3.1);
#79=CIRCLE('',#1347,3.1);
#80=CIRCLE('',#1348,3.1);
#81=CIRCLE('',#1349,3.1);
#82=CIRCLE('',#1351,2.4);
#83=CIRCLE('',#1352,2.4);
#84=CIRCLE('',#1353,2.4);
#85=CIRCLE('',#1354,2.4);
#86=CIRCLE('',#1355,2.4);
#87=CIRCLE('',#1356,2.4);
#88=CIRCLE('',#1360,1.6);
#89=CIRCLE('',#1361,2.4);
#90=CIRCLE('',#1364,1.6);
#91=CIRCLE('',#1365,2.4);
#92=CIRCLE('',#1368,1.6);
#93=CIRCLE('',#1369,2.4);
#94=CIRCLE('',#1372,1.6);
#95=CIRCLE('',#1373,2.4);
#96=CIRCLE('',#1376,1.6);
#97=CIRCLE('',#1377,2.4);
#98=CIRCLE('',#1380,1.6);
#99=CIRCLE('',#1381,2.4);
#100=CIRCLE('',#1386,1.6);
#101=CIRCLE('',#1389,1.6);
#102=CIRCLE('',#1392,1.6);
#103=CIRCLE('',#1395,1.6);
#104=CIRCLE('',#1398,1.6);
#105=CIRCLE('',#1401,1.6);
#106=CIRCLE('',#1419,1.6);
#107=CIRCLE('',#1422,1.6);
#108=CIRCLE('',#1425,1.6);
#109=CIRCLE('',#1428,1.6);
#110=CIRCLE('',#1431,1.6);
#111=CIRCLE('',#1434,2.4);
#112=CIRCLE('',#1435,2.4);
#113=CIRCLE('',#1437,2.4);
#114=CIRCLE('',#1438,2.4);
#115=CIRCLE('',#1440,2.4);
#116=CIRCLE('',#1441,2.4);
#117=CIRCLE('',#1443,2.4);
#118=CIRCLE('',#1444,2.4);
#119=CIRCLE('',#1446,2.4);
#120=CIRCLE('',#1447,2.4);
#121=CIRCLE('',#1449,3.1);
#122=CIRCLE('',#1452,3.1);
#123=CIRCLE('',#1455,3.1);
#124=CIRCLE('',#1458,3.1);
#125=CIRCLE('',#1461,3.1);
#126=CIRCLE('',#1464,3.1);
#127=CIRCLE('',#1467,3.1);
#128=CIRCLE('',#1470,3.1);
#129=CIRCLE('',#1473,3.1);
#130=CIRCLE('',#1476,3.1);
#131=ORIENTED_EDGE('',*,*,#427,.F.);
#132=ORIENTED_EDGE('',*,*,#428,.T.);
#133=ORIENTED_EDGE('',*,*,#429,.T.);
#134=ORIENTED_EDGE('',*,*,#430,.T.);
#135=ORIENTED_EDGE('',*,*,#431,.F.);
#136=ORIENTED_EDGE('',*,*,#432,.T.);
#137=ORIENTED_EDGE('',*,*,#433,.T.);
#138=ORIENTED_EDGE('',*,*,#434,.F.);
#139=ORIENTED_EDGE('',*,*,#435,.F.);
#140=ORIENTED_EDGE('',*,*,#436,.F.);
#141=ORIENTED_EDGE('',*,*,#437,.F.);
#142=ORIENTED_EDGE('',*,*,#438,.F.);
#143=ORIENTED_EDGE('',*,*,#439,.F.);
#144=ORIENTED_EDGE('',*,*,#440,.F.);
#145=ORIENTED_EDGE('',*,*,#441,.F.);
#146=ORIENTED_EDGE('',*,*,#442,.F.);
#147=ORIENTED_EDGE('',*,*,#443,.F.);
#148=ORIENTED_EDGE('',*,*,#444,.F.);
#149=ORIENTED_EDGE('',*,*,#445,.F.);
#150=ORIENTED_EDGE('',*,*,#446,.F.);
#151=ORIENTED_EDGE('',*,*,#447,.F.);
#152=ORIENTED_EDGE('',*,*,#448,.F.);
#153=ORIENTED_EDGE('',*,*,#449,.F.);
#154=ORIENTED_EDGE('',*,*,#450,.F.);
#155=ORIENTED_EDGE('',*,*,#451,.T.);
#156=ORIENTED_EDGE('',*,*,#452,.T.);
#157=ORIENTED_EDGE('',*,*,#453,.F.);
#158=ORIENTED_EDGE('',*,*,#454,.F.);
#159=ORIENTED_EDGE('',*,*,#455,.F.);
#160=ORIENTED_EDGE('',*,*,#456,.F.);
#161=ORIENTED_EDGE('',*,*,#457,.F.);
#162=ORIENTED_EDGE('',*,*,#458,.F.);
#163=ORIENTED_EDGE('',*,*,#459,.F.);
#164=ORIENTED_EDGE('',*,*,#460,.F.);
#165=ORIENTED_EDGE('',*,*,#461,.F.);
#166=ORIENTED_EDGE('',*,*,#462,.F.);
#167=ORIENTED_EDGE('',*,*,#463,.F.);
#168=ORIENTED_EDGE('',*,*,#464,.F.);
#169=ORIENTED_EDGE('',*,*,#465,.F.);
#170=ORIENTED_EDGE('',*,*,#466,.F.);
#171=ORIENTED_EDGE('',*,*,#467,.F.);
#172=ORIENTED_EDGE('',*,*,#468,.F.);
#173=ORIENTED_EDGE('',*,*,#469,.F.);
#174=ORIENTED_EDGE('',*,*,#470,.T.);
#175=ORIENTED_EDGE('',*,*,#471,.T.);
#176=ORIENTED_EDGE('',*,*,#472,.F.);
#177=ORIENTED_EDGE('',*,*,#473,.F.);
#178=ORIENTED_EDGE('',*,*,#474,.T.);
#179=ORIENTED_EDGE('',*,*,#475,.F.);
#180=ORIENTED_EDGE('',*,*,#427,.T.);
#181=ORIENTED_EDGE('',*,*,#476,.T.);
#182=ORIENTED_EDGE('',*,*,#453,.T.);
#183=ORIENTED_EDGE('',*,*,#477,.F.);
#184=ORIENTED_EDGE('',*,*,#473,.T.);
#185=ORIENTED_EDGE('',*,*,#478,.T.);
#186=ORIENTED_EDGE('',*,*,#431,.T.);
#187=ORIENTED_EDGE('',*,*,#457,.T.);
#188=ORIENTED_EDGE('',*,*,#479,.T.);
#189=ORIENTED_EDGE('',*,*,#447,.T.);
#190=ORIENTED_EDGE('',*,*,#480,.T.);
#191=ORIENTED_EDGE('',*,*,#443,.T.);
#192=ORIENTED_EDGE('',*,*,#481,.T.);
#193=ORIENTED_EDGE('',*,*,#461,.T.);
#194=ORIENTED_EDGE('',*,*,#482,.T.);
#195=ORIENTED_EDGE('',*,*,#465,.T.);
#196=ORIENTED_EDGE('',*,*,#483,.T.);
#197=ORIENTED_EDGE('',*,*,#439,.T.);
#198=ORIENTED_EDGE('',*,*,#484,.T.);
#199=ORIENTED_EDGE('',*,*,#469,.T.);
#200=ORIENTED_EDGE('',*,*,#485,.T.);
#201=ORIENTED_EDGE('',*,*,#435,.T.);
#202=ORIENTED_EDGE('',*,*,#486,.T.);
#203=ORIENTED_EDGE('',*,*,#487,.T.);
#204=ORIENTED_EDGE('',*,*,#488,.T.);
#205=ORIENTED_EDGE('',*,*,#489,.T.);
#206=ORIENTED_EDGE('',*,*,#490,.T.);
#207=ORIENTED_EDGE('',*,*,#491,.T.);
#208=ORIENTED_EDGE('',*,*,#492,.F.);
#209=ORIENTED_EDGE('',*,*,#493,.F.);
#210=ORIENTED_EDGE('',*,*,#494,.T.);
#211=ORIENTED_EDGE('',*,*,#495,.T.);
#212=ORIENTED_EDGE('',*,*,#496,.F.);
#213=ORIENTED_EDGE('',*,*,#471,.F.);
#214=ORIENTED_EDGE('',*,*,#497,.F.);
#215=ORIENTED_EDGE('',*,*,#433,.F.);
#216=ORIENTED_EDGE('',*,*,#498,.F.);
#217=ORIENTED_EDGE('',*,*,#495,.F.);
#218=ORIENTED_EDGE('',*,*,#499,.T.);
#219=ORIENTED_EDGE('',*,*,#500,.T.);
#220=ORIENTED_EDGE('',*,*,#501,.T.);
#221=ORIENTED_EDGE('',*,*,#502,.T.);
#222=ORIENTED_EDGE('',*,*,#503,.T.);
#223=ORIENTED_EDGE('',*,*,#504,.T.);
#224=ORIENTED_EDGE('',*,*,#505,.T.);
#225=ORIENTED_EDGE('',*,*,#506,.T.);
#226=ORIENTED_EDGE('',*,*,#507,.F.);
#227=ORIENTED_EDGE('',*,*,#500,.F.);
#228=ORIENTED_EDGE('',*,*,#508,.T.);
#229=ORIENTED_EDGE('',*,*,#509,.T.);
#230=ORIENTED_EDGE('',*,*,#510,.F.);
#231=ORIENTED_EDGE('',*,*,#506,.F.);
#232=ORIENTED_EDGE('',*,*,#511,.T.);
#233=ORIENTED_EDGE('',*,*,#493,.T.);
#234=ORIENTED_EDGE('',*,*,#512,.T.);
#235=ORIENTED_EDGE('',*,*,#513,.T.);
#236=ORIENTED_EDGE('',*,*,#514,.T.);
#237=ORIENTED_EDGE('',*,*,#515,.T.);
#238=ORIENTED_EDGE('',*,*,#516,.T.);
#239=ORIENTED_EDGE('',*,*,#494,.F.);
#240=ORIENTED_EDGE('',*,*,#511,.F.);
#241=ORIENTED_EDGE('',*,*,#508,.F.);
#242=ORIENTED_EDGE('',*,*,#499,.F.);
#243=ORIENTED_EDGE('',*,*,#492,.T.);
#244=ORIENTED_EDGE('',*,*,#498,.T.);
#245=ORIENTED_EDGE('',*,*,#507,.T.);
#246=ORIENTED_EDGE('',*,*,#510,.T.);
#247=ORIENTED_EDGE('',*,*,#517,.T.);
#248=ORIENTED_EDGE('',*,*,#518,.F.);
#249=ORIENTED_EDGE('',*,*,#518,.T.);
#250=ORIENTED_EDGE('',*,*,#509,.F.);
#251=ORIENTED_EDGE('',*,*,#519,.T.);
#252=ORIENTED_EDGE('',*,*,#520,.F.);
#253=ORIENTED_EDGE('',*,*,#520,.T.);
#254=ORIENTED_EDGE('',*,*,#515,.F.);
#255=ORIENTED_EDGE('',*,*,#521,.T.);
#256=ORIENTED_EDGE('',*,*,#522,.F.);
#257=ORIENTED_EDGE('',*,*,#522,.T.);
#258=ORIENTED_EDGE('',*,*,#512,.F.);
#259=ORIENTED_EDGE('',*,*,#523,.T.);
#260=ORIENTED_EDGE('',*,*,#524,.F.);
#261=ORIENTED_EDGE('',*,*,#524,.T.);
#262=ORIENTED_EDGE('',*,*,#516,.F.);
#263=ORIENTED_EDGE('',*,*,#525,.T.);
#264=ORIENTED_EDGE('',*,*,#526,.F.);
#265=ORIENTED_EDGE('',*,*,#526,.T.);
#266=ORIENTED_EDGE('',*,*,#514,.F.);
#267=ORIENTED_EDGE('',*,*,#527,.T.);
#268=ORIENTED_EDGE('',*,*,#528,.F.);
#269=ORIENTED_EDGE('',*,*,#528,.T.);
#270=ORIENTED_EDGE('',*,*,#513,.F.);
#271=ORIENTED_EDGE('',*,*,#496,.T.);
#272=ORIENTED_EDGE('',*,*,#432,.F.);
#273=ORIENTED_EDGE('',*,*,#478,.F.);
#274=ORIENTED_EDGE('',*,*,#472,.T.);
#275=ORIENTED_EDGE('',*,*,#497,.T.);
#276=ORIENTED_EDGE('',*,*,#470,.F.);
#277=ORIENTED_EDGE('',*,*,#486,.F.);
#278=ORIENTED_EDGE('',*,*,#434,.T.);
#279=ORIENTED_EDGE('',*,*,#529,.F.);
#280=ORIENTED_EDGE('',*,*,#529,.T.);
#281=ORIENTED_EDGE('',*,*,#527,.F.);
#282=ORIENTED_EDGE('',*,*,#530,.F.);
#283=ORIENTED_EDGE('',*,*,#530,.T.);
#284=ORIENTED_EDGE('',*,*,#525,.F.);
#285=ORIENTED_EDGE('',*,*,#531,.F.);
#286=ORIENTED_EDGE('',*,*,#531,.T.);
#287=ORIENTED_EDGE('',*,*,#523,.F.);
#288=ORIENTED_EDGE('',*,*,#532,.F.);
#289=ORIENTED_EDGE('',*,*,#532,.T.);
#290=ORIENTED_EDGE('',*,*,#521,.F.);
#291=ORIENTED_EDGE('',*,*,#533,.F.);
#292=ORIENTED_EDGE('',*,*,#533,.T.);
#293=ORIENTED_EDGE('',*,*,#519,.F.);
#294=ORIENTED_EDGE('',*,*,#534,.F.);
#295=ORIENTED_EDGE('',*,*,#534,.T.);
#296=ORIENTED_EDGE('',*,*,#517,.F.);
#297=ORIENTED_EDGE('',*,*,#535,.T.);
#298=ORIENTED_EDGE('',*,*,#536,.F.);
#299=ORIENTED_EDGE('',*,*,#445,.T.);
#300=ORIENTED_EDGE('',*,*,#537,.T.);
#301=ORIENTED_EDGE('',*,*,#459,.T.);
#302=ORIENTED_EDGE('',*,*,#480,.F.);
#303=ORIENTED_EDGE('',*,*,#446,.T.);
#304=ORIENTED_EDGE('',*,*,#536,.T.);
#305=ORIENTED_EDGE('',*,*,#458,.T.);
#306=ORIENTED_EDGE('',*,*,#537,.F.);
#307=ORIENTED_EDGE('',*,*,#444,.T.);
#308=ORIENTED_EDGE('',*,*,#482,.F.);
#309=ORIENTED_EDGE('',*,*,#460,.T.);
#310=ORIENTED_EDGE('',*,*,#538,.T.);
#311=ORIENTED_EDGE('',*,*,#539,.F.);
#312=ORIENTED_EDGE('',*,*,#437,.T.);
#313=ORIENTED_EDGE('',*,*,#540,.T.);
#314=ORIENTED_EDGE('',*,*,#467,.T.);
#315=ORIENTED_EDGE('',*,*,#484,.F.);
#316=ORIENTED_EDGE('',*,*,#438,.T.);
#317=ORIENTED_EDGE('',*,*,#539,.T.);
#318=ORIENTED_EDGE('',*,*,#466,.T.);
#319=ORIENTED_EDGE('',*,*,#540,.F.);
#320=ORIENTED_EDGE('',*,*,#436,.T.);
#321=ORIENTED_EDGE('',*,*,#485,.F.);
#322=ORIENTED_EDGE('',*,*,#468,.T.);
#323=ORIENTED_EDGE('',*,*,#541,.T.);
#324=ORIENTED_EDGE('',*,*,#542,.F.);
#325=ORIENTED_EDGE('',*,*,#441,.T.);
#326=ORIENTED_EDGE('',*,*,#543,.T.);
#327=ORIENTED_EDGE('',*,*,#463,.T.);
#328=ORIENTED_EDGE('',*,*,#481,.F.);
#329=ORIENTED_EDGE('',*,*,#442,.T.);
#330=ORIENTED_EDGE('',*,*,#542,.T.);
#331=ORIENTED_EDGE('',*,*,#462,.T.);
#332=ORIENTED_EDGE('',*,*,#543,.F.);
#333=ORIENTED_EDGE('',*,*,#440,.T.);
#334=ORIENTED_EDGE('',*,*,#483,.F.);
#335=ORIENTED_EDGE('',*,*,#464,.T.);
#336=ORIENTED_EDGE('',*,*,#544,.T.);
#337=ORIENTED_EDGE('',*,*,#545,.F.);
#338=ORIENTED_EDGE('',*,*,#449,.T.);
#339=ORIENTED_EDGE('',*,*,#546,.T.);
#340=ORIENTED_EDGE('',*,*,#455,.T.);
#341=ORIENTED_EDGE('',*,*,#476,.F.);
#342=ORIENTED_EDGE('',*,*,#450,.T.);
#343=ORIENTED_EDGE('',*,*,#545,.T.);
#344=ORIENTED_EDGE('',*,*,#454,.T.);
#345=ORIENTED_EDGE('',*,*,#546,.F.);
#346=ORIENTED_EDGE('',*,*,#448,.T.);
#347=ORIENTED_EDGE('',*,*,#479,.F.);
#348=ORIENTED_EDGE('',*,*,#456,.T.);
#349=ORIENTED_EDGE('',*,*,#547,.F.);
#350=ORIENTED_EDGE('',*,*,#429,.F.);
#351=ORIENTED_EDGE('',*,*,#548,.T.);
#352=ORIENTED_EDGE('',*,*,#451,.F.);
#353=ORIENTED_EDGE('',*,*,#549,.F.);
#354=ORIENTED_EDGE('',*,*,#428,.F.);
#355=ORIENTED_EDGE('',*,*,#475,.T.);
#356=ORIENTED_EDGE('',*,*,#452,.F.);
#357=ORIENTED_EDGE('',*,*,#548,.F.);
#358=ORIENTED_EDGE('',*,*,#430,.F.);
#359=ORIENTED_EDGE('',*,*,#549,.T.);
#360=ORIENTED_EDGE('',*,*,#474,.F.);
#361=ORIENTED_EDGE('',*,*,#477,.T.);
#362=ORIENTED_EDGE('',*,*,#550,.F.);
#363=ORIENTED_EDGE('',*,*,#547,.T.);
#364=ORIENTED_EDGE('',*,*,#550,.T.);
#365=ORIENTED_EDGE('',*,*,#551,.T.);
#366=ORIENTED_EDGE('',*,*,#544,.F.);
#367=ORIENTED_EDGE('',*,*,#551,.F.);
#368=ORIENTED_EDGE('',*,*,#552,.T.);
#369=ORIENTED_EDGE('',*,*,#541,.F.);
#370=ORIENTED_EDGE('',*,*,#552,.F.);
#371=ORIENTED_EDGE('',*,*,#553,.T.);
#372=ORIENTED_EDGE('',*,*,#538,.F.);
#373=ORIENTED_EDGE('',*,*,#553,.F.);
#374=ORIENTED_EDGE('',*,*,#554,.T.);
#375=ORIENTED_EDGE('',*,*,#535,.F.);
#376=ORIENTED_EDGE('',*,*,#554,.F.);
#377=ORIENTED_EDGE('',*,*,#555,.F.);
#378=ORIENTED_EDGE('',*,*,#556,.F.);
#379=ORIENTED_EDGE('',*,*,#557,.F.);
#380=ORIENTED_EDGE('',*,*,#558,.F.);
#381=ORIENTED_EDGE('',*,*,#559,.F.);
#382=ORIENTED_EDGE('',*,*,#560,.F.);
#383=ORIENTED_EDGE('',*,*,#561,.F.);
#384=ORIENTED_EDGE('',*,*,#562,.F.);
#385=ORIENTED_EDGE('',*,*,#563,.F.);
#386=ORIENTED_EDGE('',*,*,#564,.F.);
#387=ORIENTED_EDGE('',*,*,#564,.T.);
#388=ORIENTED_EDGE('',*,*,#565,.F.);
#389=ORIENTED_EDGE('',*,*,#565,.T.);
#390=ORIENTED_EDGE('',*,*,#501,.F.);
#391=ORIENTED_EDGE('',*,*,#562,.T.);
#392=ORIENTED_EDGE('',*,*,#566,.F.);
#393=ORIENTED_EDGE('',*,*,#566,.T.);
#394=ORIENTED_EDGE('',*,*,#502,.F.);
#395=ORIENTED_EDGE('',*,*,#560,.T.);
#396=ORIENTED_EDGE('',*,*,#567,.F.);
#397=ORIENTED_EDGE('',*,*,#567,.T.);
#398=ORIENTED_EDGE('',*,*,#503,.F.);
#399=ORIENTED_EDGE('',*,*,#558,.T.);
#400=ORIENTED_EDGE('',*,*,#568,.F.);
#401=ORIENTED_EDGE('',*,*,#568,.T.);
#402=ORIENTED_EDGE('',*,*,#504,.F.);
#403=ORIENTED_EDGE('',*,*,#556,.T.);
#404=ORIENTED_EDGE('',*,*,#569,.F.);
#405=ORIENTED_EDGE('',*,*,#569,.T.);
#406=ORIENTED_EDGE('',*,*,#505,.F.);
#407=ORIENTED_EDGE('',*,*,#563,.T.);
#408=ORIENTED_EDGE('',*,*,#570,.F.);
#409=ORIENTED_EDGE('',*,*,#570,.T.);
#410=ORIENTED_EDGE('',*,*,#491,.F.);
#411=ORIENTED_EDGE('',*,*,#561,.T.);
#412=ORIENTED_EDGE('',*,*,#571,.F.);
#413=ORIENTED_EDGE('',*,*,#571,.T.);
#414=ORIENTED_EDGE('',*,*,#490,.F.);
#415=ORIENTED_EDGE('',*,*,#559,.T.);
#416=ORIENTED_EDGE('',*,*,#572,.F.);
#417=ORIENTED_EDGE('',*,*,#572,.T.);
#418=ORIENTED_EDGE('',*,*,#489,.F.);
#419=ORIENTED_EDGE('',*,*,#557,.T.);
#420=ORIENTED_EDGE('',*,*,#573,.F.);
#421=ORIENTED_EDGE('',*,*,#573,.T.);
#422=ORIENTED_EDGE('',*,*,#488,.F.);
#423=ORIENTED_EDGE('',*,*,#555,.T.);
#424=ORIENTED_EDGE('',*,*,#574,.F.);
#425=ORIENTED_EDGE('',*,*,#574,.T.);
#426=ORIENTED_EDGE('',*,*,#487,.F.);
#427=EDGE_CURVE('',#575,#576,#695,.T.);
#428=EDGE_CURVE('',#575,#577,#696,.T.);
#429=EDGE_CURVE('',#577,#578,#62,.T.);
#430=EDGE_CURVE('',#578,#579,#697,.T.);
#431=EDGE_CURVE('',#580,#579,#698,.T.);
#432=EDGE_CURVE('',#580,#581,#699,.T.);
#433=EDGE_CURVE('',#581,#582,#700,.T.);
#434=EDGE_CURVE('',#583,#582,#701,.T.);
#435=EDGE_CURVE('',#584,#583,#702,.T.);
#436=EDGE_CURVE('',#585,#584,#703,.T.);
#437=EDGE_CURVE('',#586,#585,#63,.F.);
#438=EDGE_CURVE('',#587,#586,#704,.T.);
#439=EDGE_CURVE('',#588,#587,#705,.T.);
#440=EDGE_CURVE('',#589,#588,#706,.T.);
#441=EDGE_CURVE('',#590,#589,#64,.F.);
#442=EDGE_CURVE('',#591,#590,#707,.T.);
#443=EDGE_CURVE('',#592,#591,#708,.T.);
#444=EDGE_CURVE('',#593,#592,#709,.T.);
#445=EDGE_CURVE('',#594,#593,#65,.F.);
#446=EDGE_CURVE('',#595,#594,#710,.T.);
#447=EDGE_CURVE('',#596,#595,#711,.T.);
#448=EDGE_CURVE('',#597,#596,#712,.T.);
#449=EDGE_CURVE('',#598,#597,#66,.F.);
#450=EDGE_CURVE('',#576,#598,#713,.T.);
#451=EDGE_CURVE('',#599,#600,#67,.T.);
#452=EDGE_CURVE('',#600,#601,#714,.T.);
#453=EDGE_CURVE('',#602,#601,#715,.T.);
#454=EDGE_CURVE('',#603,#602,#716,.T.);
#455=EDGE_CURVE('',#604,#603,#68,.F.);
#456=EDGE_CURVE('',#605,#604,#717,.T.);
#457=EDGE_CURVE('',#606,#605,#718,.T.);
#458=EDGE_CURVE('',#607,#606,#719,.T.);
#459=EDGE_CURVE('',#608,#607,#69,.F.);
#460=EDGE_CURVE('',#609,#608,#720,.T.);
#461=EDGE_CURVE('',#610,#609,#721,.T.);
#462=EDGE_CURVE('',#611,#610,#722,.T.);
#463=EDGE_CURVE('',#612,#611,#70,.F.);
#464=EDGE_CURVE('',#613,#612,#723,.T.);
#465=EDGE_CURVE('',#614,#613,#724,.T.);
#466=EDGE_CURVE('',#615,#614,#725,.T.);
#467=EDGE_CURVE('',#616,#615,#71,.F.);
#468=EDGE_CURVE('',#617,#616,#726,.T.);
#469=EDGE_CURVE('',#618,#617,#727,.T.);
#470=EDGE_CURVE('',#618,#619,#728,.T.);
#471=EDGE_CURVE('',#619,#620,#729,.T.);
#472=EDGE_CURVE('',#621,#620,#730,.T.);
#473=EDGE_CURVE('',#622,#621,#731,.T.);
#474=EDGE_CURVE('',#622,#599,#732,.T.);
#475=EDGE_CURVE('',#575,#601,#733,.T.);
#476=EDGE_CURVE('',#576,#602,#734,.T.);
#477=EDGE_CURVE('',#622,#579,#735,.T.);
#478=EDGE_CURVE('',#621,#580,#736,.T.);
#479=EDGE_CURVE('',#605,#596,#737,.T.);
#480=EDGE_CURVE('',#595,#606,#738,.T.);
#481=EDGE_CURVE('',#591,#610,#739,.T.);
#482=EDGE_CURVE('',#609,#592,#740,.T.);
#483=EDGE_CURVE('',#613,#588,#741,.T.);
#484=EDGE_CURVE('',#587,#614,#742,.T.);
#485=EDGE_CURVE('',#617,#584,#743,.T.);
#486=EDGE_CURVE('',#583,#618,#744,.T.);
#487=EDGE_CURVE('',#623,#623,#72,.T.);
#488=EDGE_CURVE('',#624,#624,#73,.T.);
#489=EDGE_CURVE('',#625,#625,#74,.T.);
#490=EDGE_CURVE('',#626,#626,#75,.T.);
#491=EDGE_CURVE('',#627,#627,#76,.T.);
#492=EDGE_CURVE('',#628,#629,#745,.T.);
#493=EDGE_CURVE('',#630,#628,#746,.T.);
#494=EDGE_CURVE('',#630,#631,#747,.T.);
#495=EDGE_CURVE('',#631,#629,#748,.T.);
#496=EDGE_CURVE('',#620,#581,#749,.T.);
#497=EDGE_CURVE('',#582,#619,#750,.T.);
#498=EDGE_CURVE('',#629,#632,#751,.T.);
#499=EDGE_CURVE('',#631,#633,#752,.T.);
#500=EDGE_CURVE('',#633,#632,#753,.T.);
#501=EDGE_CURVE('',#634,#634,#77,.T.);
#502=EDGE_CURVE('',#635,#635,#78,.T.);
#503=EDGE_CURVE('',#636,#636,#79,.T.);
#504=EDGE_CURVE('',#637,#637,#80,.T.);
#505=EDGE_CURVE('',#638,#638,#81,.T.);
#506=EDGE_CURVE('',#639,#640,#754,.T.);
#507=EDGE_CURVE('',#632,#640,#755,.T.);
#508=EDGE_CURVE('',#633,#639,#756,.T.);
#509=EDGE_CURVE('',#641,#641,#82,.T.);
#510=EDGE_CURVE('',#640,#628,#757,.T.);
#511=EDGE_CURVE('',#639,#630,#758,.T.);
#512=EDGE_CURVE('',#642,#642,#83,.T.);
#513=EDGE_CURVE('',#643,#643,#84,.T.);
#514=EDGE_CURVE('',#644,#644,#85,.T.);
#515=EDGE_CURVE('',#645,#645,#86,.T.);
#516=EDGE_CURVE('',#646,#646,#87,.T.);
#517=EDGE_CURVE('',#647,#647,#88,.T.);
#518=EDGE_CURVE('',#648,#648,#89,.T.);
#519=EDGE_CURVE('',#649,#649,#90,.T.);
#520=EDGE_CURVE('',#650,#650,#91,.T.);
#521=EDGE_CURVE('',#651,#651,#92,.T.);
#522=EDGE_CURVE('',#652,#652,#93,.T.);
#523=EDGE_CURVE('',#653,#653,#94,.T.);
#524=EDGE_CURVE('',#654,#654,#95,.T.);
#525=EDGE_CURVE('',#655,#655,#96,.T.);
#526=EDGE_CURVE('',#656,#656,#97,.T.);
#527=EDGE_CURVE('',#657,#657,#98,.T.);
#528=EDGE_CURVE('',#658,#658,#99,.T.);
#529=EDGE_CURVE('',#659,#659,#100,.T.);
#530=EDGE_CURVE('',#660,#660,#101,.T.);
#531=EDGE_CURVE('',#661,#661,#102,.T.);
#532=EDGE_CURVE('',#662,#662,#103,.T.);
#533=EDGE_CURVE('',#663,#663,#104,.T.);
#534=EDGE_CURVE('',#664,#664,#105,.T.);
#535=EDGE_CURVE('',#665,#665,#20,.T.);
#536=EDGE_CURVE('',#594,#607,#759,.T.);
#537=EDGE_CURVE('',#593,#608,#760,.T.);
#538=EDGE_CURVE('',#666,#666,#21,.T.);
#539=EDGE_CURVE('',#586,#615,#761,.T.);
#540=EDGE_CURVE('',#585,#616,#762,.T.);
#541=EDGE_CURVE('',#667,#667,#22,.T.);
#542=EDGE_CURVE('',#590,#611,#763,.T.);
#543=EDGE_CURVE('',#589,#612,#764,.T.);
#544=EDGE_CURVE('',#668,#668,#23,.T.);
#545=EDGE_CURVE('',#598,#603,#765,.T.);
#546=EDGE_CURVE('',#597,#604,#766,.T.);
#547=EDGE_CURVE('',#669,#669,#24,.T.);
#548=EDGE_CURVE('',#577,#600,#767,.T.);
#549=EDGE_CURVE('',#578,#599,#768,.T.);
#550=EDGE_CURVE('',#670,#670,#106,.T.);
#551=EDGE_CURVE('',#671,#671,#107,.T.);
#552=EDGE_CURVE('',#672,#672,#108,.T.);
#553=EDGE_CURVE('',#673,#673,#109,.T.);
#554=EDGE_CURVE('',#674,#674,#110,.T.);
#555=EDGE_CURVE('',#675,#675,#111,.T.);
#556=EDGE_CURVE('',#676,#676,#112,.T.);
#557=EDGE_CURVE('',#677,#677,#113,.T.);
#558=EDGE_CURVE('',#678,#678,#114,.T.);
#559=EDGE_CURVE('',#679,#679,#115,.T.);
#560=EDGE_CURVE('',#680,#680,#116,.T.);
#561=EDGE_CURVE('',#681,#681,#117,.T.);
#562=EDGE_CURVE('',#682,#682,#118,.T.);
#563=EDGE_CURVE('',#683,#683,#119,.T.);
#564=EDGE_CURVE('',#684,#684,#120,.T.);
#565=EDGE_CURVE('',#685,#685,#121,.T.);
#566=EDGE_CURVE('',#686,#686,#122,.T.);
#567=EDGE_CURVE('',#687,#687,#123,.T.);
#568=EDGE_CURVE('',#688,#688,#124,.T.);
#569=EDGE_CURVE('',#689,#689,#125,.T.);
#570=EDGE_CURVE('',#690,#690,#126,.T.);
#571=EDGE_CURVE('',#691,#691,#127,.T.);
#572=EDGE_CURVE('',#692,#692,#128,.T.);
#573=EDGE_CURVE('',#693,#693,#129,.T.);
#574=EDGE_CURVE('',#694,#694,#130,.T.);
#575=VERTEX_POINT('',#1875);
#576=VERTEX_POINT('',#1876);
#577=VERTEX_POINT('',#1878);
#578=VERTEX_POINT('',#1880);
#579=VERTEX_POINT('',#1882);
#580=VERTEX_POINT('',#1884);
#581=VERTEX_POINT('',#1886);
#582=VERTEX_POINT('',#1888);
#583=VERTEX_POINT('',#1890);
#584=VERTEX_POINT('',#1892);
#585=VERTEX_POINT('',#1894);
#586=VERTEX_POINT('',#1896);
#587=VERTEX_POINT('',#1898);
#588=VERTEX_POINT('',#1900);
#589=VERTEX_POINT('',#1902);
#590=VERTEX_POINT('',#1904);
#591=VERTEX_POINT('',#1906);
#592=VERTEX_POINT('',#1908);
#593=VERTEX_POINT('',#1910);
#594=VERTEX_POINT('',#1912);
#595=VERTEX_POINT('',#1914);
#596=VERTEX_POINT('',#1916);
#597=VERTEX_POINT('',#1918);
#598=VERTEX_POINT('',#1920);
#599=VERTEX_POINT('',#1924);
#600=VERTEX_POINT('',#1925);
#601=VERTEX_POINT('',#1927);
#602=VERTEX_POINT('',#1929);
#603=VERTEX_POINT('',#1931);
#604=VERTEX_POINT('',#1933);
#605=VERTEX_POINT('',#1935);
#606=VERTEX_POINT('',#1937);
#607=VERTEX_POINT('',#1939);
#608=VERTEX_POINT('',#1941);
#609=VERTEX_POINT('',#1943);
#610=VERTEX_POINT('',#1945);
#611=VERTEX_POINT('',#1947);
#612=VERTEX_POINT('',#1949);
#613=VERTEX_POINT('',#1951);
#614=VERTEX_POINT('',#1953);
#615=VERTEX_POINT('',#1955);
#616=VERTEX_POINT('',#1957);
#617=VERTEX_POINT('',#1959);
#618=VERTEX_POINT('',#1961);
#619=VERTEX_POINT('',#1963);
#620=VERTEX_POINT('',#1965);
#621=VERTEX_POINT('',#1967);
#622=VERTEX_POINT('',#1969);
#623=VERTEX_POINT('',#1991);
#624=VERTEX_POINT('',#1993);
#625=VERTEX_POINT('',#1995);
#626=VERTEX_POINT('',#1997);
#627=VERTEX_POINT('',#1999);
#628=VERTEX_POINT('',#2001);
#629=VERTEX_POINT('',#2002);
#630=VERTEX_POINT('',#2004);
#631=VERTEX_POINT('',#2006);
#632=VERTEX_POINT('',#2012);
#633=VERTEX_POINT('',#2014);
#634=VERTEX_POINT('',#2018);
#635=VERTEX_POINT('',#2020);
#636=VERTEX_POINT('',#2022);
#637=VERTEX_POINT('',#2024);
#638=VERTEX_POINT('',#2026);
#639=VERTEX_POINT('',#2028);
#640=VERTEX_POINT('',#2029);
#641=VERTEX_POINT('',#2034);
#642=VERTEX_POINT('',#2038);
#643=VERTEX_POINT('',#2040);
#644=VERTEX_POINT('',#2042);
#645=VERTEX_POINT('',#2044);
#646=VERTEX_POINT('',#2046);
#647=VERTEX_POINT('',#2051);
#648=VERTEX_POINT('',#2053);
#649=VERTEX_POINT('',#2057);
#650=VERTEX_POINT('',#2059);
#651=VERTEX_POINT('',#2063);
#652=VERTEX_POINT('',#2065);
#653=VERTEX_POINT('',#2069);
#654=VERTEX_POINT('',#2071);
#655=VERTEX_POINT('',#2075);
#656=VERTEX_POINT('',#2077);
#657=VERTEX_POINT('',#2081);
#658=VERTEX_POINT('',#2083);
#659=VERTEX_POINT('',#2089);
#660=VERTEX_POINT('',#2093);
#661=VERTEX_POINT('',#2097);
#662=VERTEX_POINT('',#2101);
#663=VERTEX_POINT('',#2105);
#664=VERTEX_POINT('',#2109);
#665=VERTEX_POINT('',#2123);
#666=VERTEX_POINT('',#2140);
#667=VERTEX_POINT('',#2157);
#668=VERTEX_POINT('',#2174);
#669=VERTEX_POINT('',#2191);
#670=VERTEX_POINT('',#2198);
#671=VERTEX_POINT('',#2202);
#672=VERTEX_POINT('',#2206);
#673=VERTEX_POINT('',#2210);
#674=VERTEX_POINT('',#2214);
#675=VERTEX_POINT('',#2218);
#676=VERTEX_POINT('',#2220);
#677=VERTEX_POINT('',#2223);
#678=VERTEX_POINT('',#2225);
#679=VERTEX_POINT('',#2228);
#680=VERTEX_POINT('',#2230);
#681=VERTEX_POINT('',#2233);
#682=VERTEX_POINT('',#2235);
#683=VERTEX_POINT('',#2238);
#684=VERTEX_POINT('',#2240);
#685=VERTEX_POINT('',#2243);
#686=VERTEX_POINT('',#2247);
#687=VERTEX_POINT('',#2251);
#688=VERTEX_POINT('',#2255);
#689=VERTEX_POINT('',#2259);
#690=VERTEX_POINT('',#2263);
#691=VERTEX_POINT('',#2267);
#692=VERTEX_POINT('',#2271);
#693=VERTEX_POINT('',#2275);
#694=VERTEX_POINT('',#2279);
#695=LINE('',#1874,#769);
#696=LINE('',#1877,#770);
#697=LINE('',#1881,#771);
#698=LINE('',#1883,#772);
#699=LINE('',#1885,#773);
#700=LINE('',#1887,#774);
#701=LINE('',#1889,#775);
#702=LINE('',#1891,#776);
#703=LINE('',#1893,#777);
#704=LINE('',#1897,#778);
#705=LINE('',#1899,#779);
#706=LINE('',#1901,#780);
#707=LINE('',#1905,#781);
#708=LINE('',#1907,#782);
#709=LINE('',#1909,#783);
#710=LINE('',#1913,#784);
#711=LINE('',#1915,#785);
#712=LINE('',#1917,#786);
#713=LINE('',#1921,#787);
#714=LINE('',#1926,#788);
#715=LINE('',#1928,#789);
#716=LINE('',#1930,#790);
#717=LINE('',#1934,#791);
#718=LINE('',#1936,#792);
#719=LINE('',#1938,#793);
#720=LINE('',#1942,#794);
#721=LINE('',#1944,#795);
#722=LINE('',#1946,#796);
#723=LINE('',#1950,#797);
#724=LINE('',#1952,#798);
#725=LINE('',#1954,#799);
#726=LINE('',#1958,#800);
#727=LINE('',#1960,#801);
#728=LINE('',#1962,#802);
#729=LINE('',#1964,#803);
#730=LINE('',#1966,#804);
#731=LINE('',#1968,#805);
#732=LINE('',#1970,#806);
#733=LINE('',#1972,#807);
#734=LINE('',#1973,#808);
#735=LINE('',#1975,#809);
#736=LINE('',#1976,#810);
#737=LINE('',#1978,#811);
#738=LINE('',#1979,#812);
#739=LINE('',#1981,#813);
#740=LINE('',#1982,#814);
#741=LINE('',#1984,#815);
#742=LINE('',#1985,#816);
#743=LINE('',#1987,#817);
#744=LINE('',#1988,#818);
#745=LINE('',#2000,#819);
#746=LINE('',#2003,#820);
#747=LINE('',#2005,#821);
#748=LINE('',#2007,#822);
#749=LINE('',#2009,#823);
#750=LINE('',#2010,#824);
#751=LINE('',#2011,#825);
#752=LINE('',#2013,#826);
#753=LINE('',#2015,#827);
#754=LINE('',#2027,#828);
#755=LINE('',#2030,#829);
#756=LINE('',#2031,#830);
#757=LINE('',#2035,#831);
#758=LINE('',#2036,#832);
#759=LINE('',#2124,#833);
#760=LINE('',#2125,#834);
#761=LINE('',#2141,#835);
#762=LINE('',#2142,#836);
#763=LINE('',#2158,#837);
#764=LINE('',#2159,#838);
#765=LINE('',#2175,#839);
#766=LINE('',#2176,#840);
#767=LINE('',#2192,#841);
#768=LINE('',#2193,#842);
#769=VECTOR('',#1482,1000.);
#770=VECTOR('',#1483,1000.);
#771=VECTOR('',#1486,1000.);
#772=VECTOR('',#1487,1000.);
#773=VECTOR('',#1488,1000.);
#774=VECTOR('',#1489,1000.);
#775=VECTOR('',#1490,1000.);
#776=VECTOR('',#1491,1000.);
#777=VECTOR('',#1492,1000.);
#778=VECTOR('',#1495,1000.);
#779=VECTOR('',#1496,1000.);
#780=VECTOR('',#1497,1000.);
#781=VECTOR('',#1500,1000.);
#782=VECTOR('',#1501,1000.);
#783=VECTOR('',#1502,1000.);
#784=VECTOR('',#1505,1000.);
#785=VECTOR('',#1506,1000.);
#786=VECTOR('',#1507,1000.);
#787=VECTOR('',#1510,1000.);
#788=VECTOR('',#1515,1000.);
#789=VECTOR('',#1516,1000.);
#790=VECTOR('',#1517,1000.);
#791=VECTOR('',#1520,1000.);
#792=VECTOR('',#1521,1000.);
#793=VECTOR('',#1522,1000.);
#794=VECTOR('',#1525,1000.);
#795=VECTOR('',#1526,1000.);
#796=VECTOR('',#1527,1000.);
#797=VECTOR('',#1530,1000.);
#798=VECTOR('',#1531,1000.);
#799=VECTOR('',#1532,1000.);
#800=VECTOR('',#1535,1000.);
#801=VECTOR('',#1536,1000.);
#802=VECTOR('',#1537,1000.);
#803=VECTOR('',#1538,1000.);
#804=VECTOR('',#1539,1000.);
#805=VECTOR('',#1540,1000.);
#806=VECTOR('',#1541,1000.);
#807=VECTOR('',#1544,1000.);
#808=VECTOR('',#1545,1000.);
#809=VECTOR('',#1548,1000.);
#810=VECTOR('',#1549,1000.);
#811=VECTOR('',#1552,1000.);
#812=VECTOR('',#1553,1000.);
#813=VECTOR('',#1556,1000.);
#814=VECTOR('',#1557,1000.);
#815=VECTOR('',#1560,1000.);
#816=VECTOR('',#1561,1000.);
#817=VECTOR('',#1564,1000.);
#818=VECTOR('',#1565,1000.);
#819=VECTOR('',#1578,1000.);
#820=VECTOR('',#1579,1000.);
#821=VECTOR('',#1580,1000.);
#822=VECTOR('',#1581,1000.);
#823=VECTOR('',#1584,1000.);
#824=VECTOR('',#1585,1000.);
#825=VECTOR('',#1586,1000.);
#826=VECTOR('',#1587,1000.);
#827=VECTOR('',#1588,1000.);
#828=VECTOR('',#1601,1000.);
#829=VECTOR('',#1602,1000.);
#830=VECTOR('',#1603,1000.);
#831=VECTOR('',#1608,1000.);
#832=VECTOR('',#1609,1000.);
#833=VECTOR('',#1714,1000.);
#834=VECTOR('',#1715,1000.);
#835=VECTOR('',#1722,1000.);
#836=VECTOR('',#1723,1000.);
#837=VECTOR('',#1730,1000.);
#838=VECTOR('',#1731,1000.);
#839=VECTOR('',#1738,1000.);
#840=VECTOR('',#1739,1000.);
#841=VECTOR('',#1746,1000.);
#842=VECTOR('',#1747,1000.);
#843=EDGE_LOOP('',(#131,#132,#133,#134,#135,#136,#137,#138,#139,#140,#141,
#142,#143,#144,#145,#146,#147,#148,#149,#150,#151,#152,#153,#154));
#844=EDGE_LOOP('',(#155,#156,#157,#158,#159,#160,#161,#162,#163,#164,#165,
#166,#167,#168,#169,#170,#171,#172,#173,#174,#175,#176,#177,#178));
#845=EDGE_LOOP('',(#179,#180,#181,#182));
#846=EDGE_LOOP('',(#183,#184,#185,#186));
#847=EDGE_LOOP('',(#187,#188,#189,#190));
#848=EDGE_LOOP('',(#191,#192,#193,#194));
#849=EDGE_LOOP('',(#195,#196,#197,#198));
#850=EDGE_LOOP('',(#199,#200,#201,#202));
#851=EDGE_LOOP('',(#203));
#852=EDGE_LOOP('',(#204));
#853=EDGE_LOOP('',(#205));
#854=EDGE_LOOP('',(#206));
#855=EDGE_LOOP('',(#207));
#856=EDGE_LOOP('',(#208,#209,#210,#211));
#857=EDGE_LOOP('',(#212,#213,#214,#215));
#858=EDGE_LOOP('',(#216,#217,#218,#219));
#859=EDGE_LOOP('',(#220));
#860=EDGE_LOOP('',(#221));
#861=EDGE_LOOP('',(#222));
#862=EDGE_LOOP('',(#223));
#863=EDGE_LOOP('',(#224));
#864=EDGE_LOOP('',(#225,#226,#227,#228));
#865=EDGE_LOOP('',(#229));
#866=EDGE_LOOP('',(#230,#231,#232,#233));
#867=EDGE_LOOP('',(#234));
#868=EDGE_LOOP('',(#235));
#869=EDGE_LOOP('',(#236));
#870=EDGE_LOOP('',(#237));
#871=EDGE_LOOP('',(#238));
#872=EDGE_LOOP('',(#239,#240,#241,#242));
#873=EDGE_LOOP('',(#243,#244,#245,#246));
#874=EDGE_LOOP('',(#247));
#875=EDGE_LOOP('',(#248));
#876=EDGE_LOOP('',(#249));
#877=EDGE_LOOP('',(#250));
#878=EDGE_LOOP('',(#251));
#879=EDGE_LOOP('',(#252));
#880=EDGE_LOOP('',(#253));
#881=EDGE_LOOP('',(#254));
#882=EDGE_LOOP('',(#255));
#883=EDGE_LOOP('',(#256));
#884=EDGE_LOOP('',(#257));
#885=EDGE_LOOP('',(#258));
#886=EDGE_LOOP('',(#259));
#887=EDGE_LOOP('',(#260));
#888=EDGE_LOOP('',(#261));
#889=EDGE_LOOP('',(#262));
#890=EDGE_LOOP('',(#263));
#891=EDGE_LOOP('',(#264));
#892=EDGE_LOOP('',(#265));
#893=EDGE_LOOP('',(#266));
#894=EDGE_LOOP('',(#267));
#895=EDGE_LOOP('',(#268));
#896=EDGE_LOOP('',(#269));
#897=EDGE_LOOP('',(#270));
#898=EDGE_LOOP('',(#271,#272,#273,#274));
#899=EDGE_LOOP('',(#275,#276,#277,#278));
#900=EDGE_LOOP('',(#279));
#901=EDGE_LOOP('',(#280));
#902=EDGE_LOOP('',(#281));
#903=EDGE_LOOP('',(#282));
#904=EDGE_LOOP('',(#283));
#905=EDGE_LOOP('',(#284));
#906=EDGE_LOOP('',(#285));
#907=EDGE_LOOP('',(#286));
#908=EDGE_LOOP('',(#287));
#909=EDGE_LOOP('',(#288));
#910=EDGE_LOOP('',(#289));
#911=EDGE_LOOP('',(#290));
#912=EDGE_LOOP('',(#291));
#913=EDGE_LOOP('',(#292));
#914=EDGE_LOOP('',(#293));
#915=EDGE_LOOP('',(#294));
#916=EDGE_LOOP('',(#295));
#917=EDGE_LOOP('',(#296));
#918=EDGE_LOOP('',(#297));
#919=EDGE_LOOP('',(#298,#299,#300,#301));
#920=EDGE_LOOP('',(#302,#303,#304,#305));
#921=EDGE_LOOP('',(#306,#307,#308,#309));
#922=EDGE_LOOP('',(#310));
#923=EDGE_LOOP('',(#311,#312,#313,#314));
#924=EDGE_LOOP('',(#315,#316,#317,#318));
#925=EDGE_LOOP('',(#319,#320,#321,#322));
#926=EDGE_LOOP('',(#323));
#927=EDGE_LOOP('',(#324,#325,#326,#327));
#928=EDGE_LOOP('',(#328,#329,#330,#331));
#929=EDGE_LOOP('',(#332,#333,#334,#335));
#930=EDGE_LOOP('',(#336));
#931=EDGE_LOOP('',(#337,#338,#339,#340));
#932=EDGE_LOOP('',(#341,#342,#343,#344));
#933=EDGE_LOOP('',(#345,#346,#347,#348));
#934=EDGE_LOOP('',(#349));
#935=EDGE_LOOP('',(#350,#351,#352,#353));
#936=EDGE_LOOP('',(#354,#355,#356,#357));
#937=EDGE_LOOP('',(#358,#359,#360,#361));
#938=EDGE_LOOP('',(#362));
#939=EDGE_LOOP('',(#363));
#940=EDGE_LOOP('',(#364));
#941=EDGE_LOOP('',(#365));
#942=EDGE_LOOP('',(#366));
#943=EDGE_LOOP('',(#367));
#944=EDGE_LOOP('',(#368));
#945=EDGE_LOOP('',(#369));
#946=EDGE_LOOP('',(#370));
#947=EDGE_LOOP('',(#371));
#948=EDGE_LOOP('',(#372));
#949=EDGE_LOOP('',(#373));
#950=EDGE_LOOP('',(#374));
#951=EDGE_LOOP('',(#375));
#952=EDGE_LOOP('',(#376));
#953=EDGE_LOOP('',(#377));
#954=EDGE_LOOP('',(#378));
#955=EDGE_LOOP('',(#379));
#956=EDGE_LOOP('',(#380));
#957=EDGE_LOOP('',(#381));
#958=EDGE_LOOP('',(#382));
#959=EDGE_LOOP('',(#383));
#960=EDGE_LOOP('',(#384));
#961=EDGE_LOOP('',(#385));
#962=EDGE_LOOP('',(#386));
#963=EDGE_LOOP('',(#387));
#964=EDGE_LOOP('',(#388));
#965=EDGE_LOOP('',(#389));
#966=EDGE_LOOP('',(#390));
#967=EDGE_LOOP('',(#391));
#968=EDGE_LOOP('',(#392));
#969=EDGE_LOOP('',(#393));
#970=EDGE_LOOP('',(#394));
#971=EDGE_LOOP('',(#395));
#972=EDGE_LOOP('',(#396));
#973=EDGE_LOOP('',(#397));
#974=EDGE_LOOP('',(#398));
#975=EDGE_LOOP('',(#399));
#976=EDGE_LOOP('',(#400));
#977=EDGE_LOOP('',(#401));
#978=EDGE_LOOP('',(#402));
#979=EDGE_LOOP('',(#403));
#980=EDGE_LOOP('',(#404));
#981=EDGE_LOOP('',(#405));
#982=EDGE_LOOP('',(#406));
#983=EDGE_LOOP('',(#407));
#984=EDGE_LOOP('',(#408));
#985=EDGE_LOOP('',(#409));
#986=EDGE_LOOP('',(#410));
#987=EDGE_LOOP('',(#411));
#988=EDGE_LOOP('',(#412));
#989=EDGE_LOOP('',(#413));
#990=EDGE_LOOP('',(#414));
#991=EDGE_LOOP('',(#415));
#992=EDGE_LOOP('',(#416));
#993=EDGE_LOOP('',(#417));
#994=EDGE_LOOP('',(#418));
#995=EDGE_LOOP('',(#419));
#996=EDGE_LOOP('',(#420));
#997=EDGE_LOOP('',(#421));
#998=EDGE_LOOP('',(#422));
#999=EDGE_LOOP('',(#423));
#1000=EDGE_LOOP('',(#424));
#1001=EDGE_LOOP('',(#425));
#1002=EDGE_LOOP('',(#426));
#1003=FACE_BOUND('',#843,.T.);
#1004=FACE_BOUND('',#844,.T.);
#1005=FACE_BOUND('',#845,.T.);
#1006=FACE_BOUND('',#846,.T.);
#1007=FACE_BOUND('',#847,.T.);
#1008=FACE_BOUND('',#848,.T.);
#1009=FACE_BOUND('',#849,.T.);
#1010=FACE_BOUND('',#850,.T.);
#1011=FACE_BOUND('',#851,.T.);
#1012=FACE_BOUND('',#852,.T.);
#1013=FACE_BOUND('',#853,.T.);
#1014=FACE_BOUND('',#854,.T.);
#1015=FACE_BOUND('',#855,.T.);
#1016=FACE_BOUND('',#856,.T.);
#1017=FACE_BOUND('',#857,.T.);
#1018=FACE_BOUND('',#858,.T.);
#1019=FACE_BOUND('',#859,.T.);
#1020=FACE_BOUND('',#860,.T.);
#1021=FACE_BOUND('',#861,.T.);
#1022=FACE_BOUND('',#862,.T.);
#1023=FACE_BOUND('',#863,.T.);
#1024=FACE_BOUND('',#864,.T.);
#1025=FACE_BOUND('',#865,.T.);
#1026=FACE_BOUND('',#866,.T.);
#1027=FACE_BOUND('',#867,.T.);
#1028=FACE_BOUND('',#868,.T.);
#1029=FACE_BOUND('',#869,.T.);
#1030=FACE_BOUND('',#870,.T.);
#1031=FACE_BOUND('',#871,.T.);
#1032=FACE_BOUND('',#872,.T.);
#1033=FACE_BOUND('',#873,.T.);
#1034=FACE_BOUND('',#874,.T.);
#1035=FACE_BOUND('',#875,.T.);
#1036=FACE_BOUND('',#876,.T.);
#1037=FACE_BOUND('',#877,.T.);
#1038=FACE_BOUND('',#878,.T.);
#1039=FACE_BOUND('',#879,.T.);
#1040=FACE_BOUND('',#880,.T.);
#1041=FACE_BOUND('',#881,.T.);
#1042=FACE_BOUND('',#882,.T.);
#1043=FACE_BOUND('',#883,.T.);
#1044=FACE_BOUND('',#884,.T.);
#1045=FACE_BOUND('',#885,.T.);
#1046=FACE_BOUND('',#886,.T.);
#1047=FACE_BOUND('',#887,.T.);
#1048=FACE_BOUND('',#888,.T.);
#1049=FACE_BOUND('',#889,.T.);
#1050=FACE_BOUND('',#890,.T.);
#1051=FACE_BOUND('',#891,.T.);
#1052=FACE_BOUND('',#892,.T.);
#1053=FACE_BOUND('',#893,.T.);
#1054=FACE_BOUND('',#894,.T.);
#1055=FACE_BOUND('',#895,.T.);
#1056=FACE_BOUND('',#896,.T.);
#1057=FACE_BOUND('',#897,.T.);
#1058=FACE_BOUND('',#898,.T.);
#1059=FACE_BOUND('',#899,.T.);
#1060=FACE_BOUND('',#900,.T.);
#1061=FACE_BOUND('',#901,.T.);
#1062=FACE_BOUND('',#902,.T.);
#1063=FACE_BOUND('',#903,.T.);
#1064=FACE_BOUND('',#904,.T.);
#1065=FACE_BOUND('',#905,.T.);
#1066=FACE_BOUND('',#906,.T.);
#1067=FACE_BOUND('',#907,.T.);
#1068=FACE_BOUND('',#908,.T.);
#1069=FACE_BOUND('',#909,.T.);
#1070=FACE_BOUND('',#910,.T.);
#1071=FACE_BOUND('',#911,.T.);
#1072=FACE_BOUND('',#912,.T.);
#1073=FACE_BOUND('',#913,.T.);
#1074=FACE_BOUND('',#914,.T.);
#1075=FACE_BOUND('',#915,.T.);
#1076=FACE_BOUND('',#916,.T.);
#1077=FACE_BOUND('',#917,.T.);
#1078=FACE_BOUND('',#918,.T.);
#1079=FACE_BOUND('',#919,.T.);
#1080=FACE_BOUND('',#920,.T.);
#1081=FACE_BOUND('',#921,.T.);
#1082=FACE_BOUND('',#922,.T.);
#1083=FACE_BOUND('',#923,.T.);
#1084=FACE_BOUND('',#924,.T.);
#1085=FACE_BOUND('',#925,.T.);
#1086=FACE_BOUND('',#926,.T.);
#1087=FACE_BOUND('',#927,.T.);
#1088=FACE_BOUND('',#928,.T.);
#1089=FACE_BOUND('',#929,.T.);
#1090=FACE_BOUND('',#930,.T.);
#1091=FACE_BOUND('',#931,.T.);
#1092=FACE_BOUND('',#932,.T.);
#1093=FACE_BOUND('',#933,.T.);
#1094=FACE_BOUND('',#934,.T.);
#1095=FACE_BOUND('',#935,.T.);
#1096=FACE_BOUND('',#936,.T.);
#1097=FACE_BOUND('',#937,.T.);
#1098=FACE_BOUND('',#938,.T.);
#1099=FACE_BOUND('',#939,.T.);
#1100=FACE_BOUND('',#940,.T.);
#1101=FACE_BOUND('',#941,.T.);
#1102=FACE_BOUND('',#942,.T.);
#1103=FACE_BOUND('',#943,.T.);
#1104=FACE_BOUND('',#944,.T.);
#1105=FACE_BOUND('',#945,.T.);
#1106=FACE_BOUND('',#946,.T.);
#1107=FACE_BOUND('',#947,.T.);
#1108=FACE_BOUND('',#948,.T.);
#1109=FACE_BOUND('',#949,.T.);
#1110=FACE_BOUND('',#950,.T.);
#1111=FACE_BOUND('',#951,.T.);
#1112=FACE_BOUND('',#952,.T.);
#1113=FACE_BOUND('',#953,.T.);
#1114=FACE_BOUND('',#954,.T.);
#1115=FACE_BOUND('',#955,.T.);
#1116=FACE_BOUND('',#956,.T.);
#1117=FACE_BOUND('',#957,.T.);
#1118=FACE_BOUND('',#958,.T.);
#1119=FACE_BOUND('',#959,.T.);
#1120=FACE_BOUND('',#960,.T.);
#1121=FACE_BOUND('',#961,.T.);
#1122=FACE_BOUND('',#962,.T.);
#1123=FACE_BOUND('',#963,.T.);
#1124=FACE_BOUND('',#964,.T.);
#1125=FACE_BOUND('',#965,.T.);
#1126=FACE_BOUND('',#966,.T.);
#1127=FACE_BOUND('',#967,.T.);
#1128=FACE_BOUND('',#968,.T.);
#1129=FACE_BOUND('',#969,.T.);
#1130=FACE_BOUND('',#970,.T.);
#1131=FACE_BOUND('',#971,.T.);
#1132=FACE_BOUND('',#972,.T.);
#1133=FACE_BOUND('',#973,.T.);
#1134=FACE_BOUND('',#974,.T.);
#1135=FACE_BOUND('',#975,.T.);
#1136=FACE_BOUND('',#976,.T.);
#1137=FACE_BOUND('',#977,.T.);
#1138=FACE_BOUND('',#978,.T.);
#1139=FACE_BOUND('',#979,.T.);
#1140=FACE_BOUND('',#980,.T.);
#1141=FACE_BOUND('',#981,.T.);
#1142=FACE_BOUND('',#982,.T.);
#1143=FACE_BOUND('',#983,.T.);
#1144=FACE_BOUND('',#984,.T.);
#1145=FACE_BOUND('',#985,.T.);
#1146=FACE_BOUND('',#986,.T.);
#1147=FACE_BOUND('',#987,.T.);
#1148=FACE_BOUND('',#988,.T.);
#1149=FACE_BOUND('',#989,.T.);
#1150=FACE_BOUND('',#990,.T.);
#1151=FACE_BOUND('',#991,.T.);
#1152=FACE_BOUND('',#992,.T.);
#1153=FACE_BOUND('',#993,.T.);
#1154=FACE_BOUND('',#994,.T.);
#1155=FACE_BOUND('',#995,.T.);
#1156=FACE_BOUND('',#996,.T.);
#1157=FACE_BOUND('',#997,.T.);
#1158=FACE_BOUND('',#998,.T.);
#1159=FACE_BOUND('',#999,.T.);
#1160=FACE_BOUND('',#1000,.T.);
#1161=FACE_BOUND('',#1001,.T.);
#1162=FACE_BOUND('',#1002,.T.);
#1163=PLANE('',#1319);
#1164=PLANE('',#1325);
#1165=PLANE('',#1331);
#1166=PLANE('',#1332);
#1167=PLANE('',#1333);
#1168=PLANE('',#1334);
#1169=PLANE('',#1335);
#1170=PLANE('',#1336);
#1171=PLANE('',#1337);
#1172=PLANE('',#1343);
#1173=PLANE('',#1344);
#1174=PLANE('',#1350);
#1175=PLANE('',#1357);
#1176=PLANE('',#1358);
#1177=PLANE('',#1359);
#1178=PLANE('',#1363);
#1179=PLANE('',#1367);
#1180=PLANE('',#1371);
#1181=PLANE('',#1375);
#1182=PLANE('',#1379);
#1183=PLANE('',#1383);
#1184=PLANE('',#1384);
#1185=PLANE('',#1385);
#1186=PLANE('',#1388);
#1187=PLANE('',#1391);
#1188=PLANE('',#1394);
#1189=PLANE('',#1397);
#1190=PLANE('',#1400);
#1191=PLANE('',#1404);
#1192=PLANE('',#1405);
#1193=PLANE('',#1407);
#1194=PLANE('',#1408);
#1195=PLANE('',#1410);
#1196=PLANE('',#1411);
#1197=PLANE('',#1413);
#1198=PLANE('',#1414);
#1199=PLANE('',#1416);
#1200=PLANE('',#1417);
#1201=PLANE('',#1418);
#1202=PLANE('',#1423);
#1203=PLANE('',#1426);
#1204=PLANE('',#1429);
#1205=PLANE('',#1432);
#1206=PLANE('',#1448);
#1207=PLANE('',#1451);
#1208=PLANE('',#1454);
#1209=PLANE('',#1457);
#1210=PLANE('',#1460);
#1211=PLANE('',#1463);
#1212=PLANE('',#1466);
#1213=PLANE('',#1469);
#1214=PLANE('',#1472);
#1215=PLANE('',#1475);
#1216=ADVANCED_FACE('',(#1003),#1163,.F.);
#1217=ADVANCED_FACE('',(#1004),#1164,.F.);
#1218=ADVANCED_FACE('',(#1005),#1165,.T.);
#1219=ADVANCED_FACE('',(#1006),#1166,.T.);
#1220=ADVANCED_FACE('',(#1007),#1167,.T.);
#1221=ADVANCED_FACE('',(#1008),#1168,.T.);
#1222=ADVANCED_FACE('',(#1009),#1169,.T.);
#1223=ADVANCED_FACE('',(#1010),#1170,.T.);
#1224=ADVANCED_FACE('',(#1011,#1012,#1013,#1014,#1015,#1016),#1171,.T.);
#1225=ADVANCED_FACE('',(#1017,#1018),#1172,.T.);
#1226=ADVANCED_FACE('',(#1019,#1020,#1021,#1022,#1023,#1024),#1173,.T.);
#1227=ADVANCED_FACE('',(#1025,#1026,#1027,#1028,#1029,#1030,#1031),#1174,
 .T.);
#1228=ADVANCED_FACE('',(#1032),#1175,.F.);
#1229=ADVANCED_FACE('',(#1033),#1176,.T.);
#1230=ADVANCED_FACE('',(#1034,#1035),#1177,.F.);
#1231=ADVANCED_FACE('',(#1036,#1037),#25,.T.);
#1232=ADVANCED_FACE('',(#1038,#1039),#1178,.F.);
#1233=ADVANCED_FACE('',(#1040,#1041),#26,.T.);
#1234=ADVANCED_FACE('',(#1042,#1043),#1179,.F.);
#1235=ADVANCED_FACE('',(#1044,#1045),#27,.T.);
#1236=ADVANCED_FACE('',(#1046,#1047),#1180,.F.);
#1237=ADVANCED_FACE('',(#1048,#1049),#28,.T.);
#1238=ADVANCED_FACE('',(#1050,#1051),#1181,.F.);
#1239=ADVANCED_FACE('',(#1052,#1053),#29,.T.);
#1240=ADVANCED_FACE('',(#1054,#1055),#1182,.F.);
#1241=ADVANCED_FACE('',(#1056,#1057),#30,.T.);
#1242=ADVANCED_FACE('',(#1058),#1183,.F.);
#1243=ADVANCED_FACE('',(#1059),#1184,.F.);
#1244=ADVANCED_FACE('',(#1060),#1185,.F.);
#1245=ADVANCED_FACE('',(#1061,#1062),#31,.F.);
#1246=ADVANCED_FACE('',(#1063),#1186,.F.);
#1247=ADVANCED_FACE('',(#1064,#1065),#32,.F.);
#1248=ADVANCED_FACE('',(#1066),#1187,.F.);
#1249=ADVANCED_FACE('',(#1067,#1068),#33,.F.);
#1250=ADVANCED_FACE('',(#1069),#1188,.F.);
#1251=ADVANCED_FACE('',(#1070,#1071),#34,.F.);
#1252=ADVANCED_FACE('',(#1072),#1189,.F.);
#1253=ADVANCED_FACE('',(#1073,#1074),#35,.F.);
#1254=ADVANCED_FACE('',(#1075),#1190,.F.);
#1255=ADVANCED_FACE('',(#1076,#1077),#36,.F.);
#1256=ADVANCED_FACE('',(#1078,#1079),#37,.T.);
#1257=ADVANCED_FACE('',(#1080),#1191,.F.);
#1258=ADVANCED_FACE('',(#1081),#1192,.F.);
#1259=ADVANCED_FACE('',(#1082,#1083),#38,.T.);
#1260=ADVANCED_FACE('',(#1084),#1193,.F.);
#1261=ADVANCED_FACE('',(#1085),#1194,.F.);
#1262=ADVANCED_FACE('',(#1086,#1087),#39,.T.);
#1263=ADVANCED_FACE('',(#1088),#1195,.F.);
#1264=ADVANCED_FACE('',(#1089),#1196,.F.);
#1265=ADVANCED_FACE('',(#1090,#1091),#40,.T.);
#1266=ADVANCED_FACE('',(#1092),#1197,.F.);
#1267=ADVANCED_FACE('',(#1093),#1198,.F.);
#1268=ADVANCED_FACE('',(#1094,#1095),#41,.T.);
#1269=ADVANCED_FACE('',(#1096),#1199,.T.);
#1270=ADVANCED_FACE('',(#1097),#1200,.T.);
#1271=ADVANCED_FACE('',(#1098),#1201,.F.);
#1272=ADVANCED_FACE('',(#1099,#1100),#42,.T.);
#1273=ADVANCED_FACE('',(#1101,#1102),#43,.T.);
#1274=ADVANCED_FACE('',(#1103),#1202,.F.);
#1275=ADVANCED_FACE('',(#1104,#1105),#44,.T.);
#1276=ADVANCED_FACE('',(#1106),#1203,.F.);
#1277=ADVANCED_FACE('',(#1107,#1108),#45,.T.);
#1278=ADVANCED_FACE('',(#1109),#1204,.F.);
#1279=ADVANCED_FACE('',(#1110,#1111),#46,.T.);
#1280=ADVANCED_FACE('',(#1112),#1205,.F.);
#1281=ADVANCED_FACE('',(#1113,#1114),#47,.F.);
#1282=ADVANCED_FACE('',(#1115,#1116),#48,.F.);
#1283=ADVANCED_FACE('',(#1117,#1118),#49,.F.);
#1284=ADVANCED_FACE('',(#1119,#1120),#50,.F.);
#1285=ADVANCED_FACE('',(#1121,#1122),#51,.F.);
#1286=ADVANCED_FACE('',(#1123,#1124),#1206,.F.);
#1287=ADVANCED_FACE('',(#1125,#1126),#52,.F.);
#1288=ADVANCED_FACE('',(#1127,#1128),#1207,.F.);
#1289=ADVANCED_FACE('',(#1129,#1130),#53,.F.);
#1290=ADVANCED_FACE('',(#1131,#1132),#1208,.F.);
#1291=ADVANCED_FACE('',(#1133,#1134),#54,.F.);
#1292=ADVANCED_FACE('',(#1135,#1136),#1209,.F.);
#1293=ADVANCED_FACE('',(#1137,#1138),#55,.F.);
#1294=ADVANCED_FACE('',(#1139,#1140),#1210,.F.);
#1295=ADVANCED_FACE('',(#1141,#1142),#56,.F.);
#1296=ADVANCED_FACE('',(#1143,#1144),#1211,.F.);
#1297=ADVANCED_FACE('',(#1145,#1146),#57,.F.);
#1298=ADVANCED_FACE('',(#1147,#1148),#1212,.F.);
#1299=ADVANCED_FACE('',(#1149,#1150),#58,.F.);
#1300=ADVANCED_FACE('',(#1151,#1152),#1213,.F.);
#1301=ADVANCED_FACE('',(#1153,#1154),#59,.F.);
#1302=ADVANCED_FACE('',(#1155,#1156),#1214,.F.);
#1303=ADVANCED_FACE('',(#1157,#1158),#60,.F.);
#1304=ADVANCED_FACE('',(#1159,#1160),#1215,.F.);
#1305=ADVANCED_FACE('',(#1161,#1162),#61,.F.);
#1306=CLOSED_SHELL('',(#1216,#1217,#1218,#1219,#1220,#1221,#1222,#1223,
#1224,#1225,#1226,#1227,#1228,#1229,#1230,#1231,#1232,#1233,#1234,#1235,
#1236,#1237,#1238,#1239,#1240,#1241,#1242,#1243,#1244,#1245,#1246,#1247,
#1248,#1249,#1250,#1251,#1252,#1253,#1254,#1255,#1256,#1257,#1258,#1259,
#1260,#1261,#1262,#1263,#1264,#1265,#1266,#1267,#1268,#1269,#1270,#1271,
#1272,#1273,#1274,#1275,#1276,#1277,#1278,#1279,#1280,#1281,#1282,#1283,
#1284,#1285,#1286,#1287,#1288,#1289,#1290,#1291,#1292,#1293,#1294,#1295,
#1296,#1297,#1298,#1299,#1300,#1301,#1302,#1303,#1304,#1305));
#1307=STYLED_ITEM('',(#1308),#1315);
#1308=PRESENTATION_STYLE_ASSIGNMENT((#1309));
#1309=SURFACE_STYLE_USAGE(.BOTH.,#1310);
#1310=SURFACE_SIDE_STYLE('',(#1311));
#1311=SURFACE_STYLE_FILL_AREA(#1312);
#1312=FILL_AREA_STYLE('',(#1313));
#1313=FILL_AREA_STYLE_COLOUR('',#1314);
#1314=COLOUR_RGB('',0.800000011920929,0.760330617427826,0.);
#1315=MANIFOLD_SOLID_BREP('',#1306);
#1316=SHAPE_DEFINITION_REPRESENTATION(#2287,#1317);
#1317=SHAPE_REPRESENTATION('Ye_389424_MCM',(#1318),#2282);
#1318=AXIS2_PLACEMENT_3D('',#1872,#1478,#1479);
#1319=AXIS2_PLACEMENT_3D('',#1873,#1480,#1481);
#1320=AXIS2_PLACEMENT_3D('',#1879,#1484,#1485);
#1321=AXIS2_PLACEMENT_3D('',#1895,#1493,#1494);
#1322=AXIS2_PLACEMENT_3D('',#1903,#1498,#1499);
#1323=AXIS2_PLACEMENT_3D('',#1911,#1503,#1504);
#1324=AXIS2_PLACEMENT_3D('',#1919,#1508,#1509);
#1325=AXIS2_PLACEMENT_3D('',#1922,#1511,#1512);
#1326=AXIS2_PLACEMENT_3D('',#1923,#1513,#1514);
#1327=AXIS2_PLACEMENT_3D('',#1932,#1518,#1519);
#1328=AXIS2_PLACEMENT_3D('',#1940,#1523,#1524);
#1329=AXIS2_PLACEMENT_3D('',#1948,#1528,#1529);
#1330=AXIS2_PLACEMENT_3D('',#1956,#1533,#1534);
#1331=AXIS2_PLACEMENT_3D('',#1971,#1542,#1543);
#1332=AXIS2_PLACEMENT_3D('',#1974,#1546,#1547);
#1333=AXIS2_PLACEMENT_3D('',#1977,#1550,#1551);
#1334=AXIS2_PLACEMENT_3D('',#1980,#1554,#1555);
#1335=AXIS2_PLACEMENT_3D('',#1983,#1558,#1559);
#1336=AXIS2_PLACEMENT_3D('',#1986,#1562,#1563);
#1337=AXIS2_PLACEMENT_3D('',#1989,#1566,#1567);
#1338=AXIS2_PLACEMENT_3D('',#1990,#1568,#1569);
#1339=AXIS2_PLACEMENT_3D('',#1992,#1570,#1571);
#1340=AXIS2_PLACEMENT_3D('',#1994,#1572,#1573);
#1341=AXIS2_PLACEMENT_3D('',#1996,#1574,#1575);
#1342=AXIS2_PLACEMENT_3D('',#1998,#1576,#1577);
#1343=AXIS2_PLACEMENT_3D('',#2008,#1582,#1583);
#1344=AXIS2_PLACEMENT_3D('',#2016,#1589,#1590);
#1345=AXIS2_PLACEMENT_3D('',#2017,#1591,#1592);
#1346=AXIS2_PLACEMENT_3D('',#2019,#1593,#1594);
#1347=AXIS2_PLACEMENT_3D('',#2021,#1595,#1596);
#1348=AXIS2_PLACEMENT_3D('',#2023,#1597,#1598);
#1349=AXIS2_PLACEMENT_3D('',#2025,#1599,#1600);
#1350=AXIS2_PLACEMENT_3D('',#2032,#1604,#1605);
#1351=AXIS2_PLACEMENT_3D('',#2033,#1606,#1607);
#1352=AXIS2_PLACEMENT_3D('',#2037,#1610,#1611);
#1353=AXIS2_PLACEMENT_3D('',#2039,#1612,#1613);
#1354=AXIS2_PLACEMENT_3D('',#2041,#1614,#1615);
#1355=AXIS2_PLACEMENT_3D('',#2043,#1616,#1617);
#1356=AXIS2_PLACEMENT_3D('',#2045,#1618,#1619);
#1357=AXIS2_PLACEMENT_3D('',#2047,#1620,#1621);
#1358=AXIS2_PLACEMENT_3D('',#2048,#1622,#1623);
#1359=AXIS2_PLACEMENT_3D('',#2049,#1624,#1625);
#1360=AXIS2_PLACEMENT_3D('',#2050,#1626,#1627);
#1361=AXIS2_PLACEMENT_3D('',#2052,#1628,#1629);
#1362=AXIS2_PLACEMENT_3D('',#2054,#1630,#1631);
#1363=AXIS2_PLACEMENT_3D('',#2055,#1632,#1633);
#1364=AXIS2_PLACEMENT_3D('',#2056,#1634,#1635);
#1365=AXIS2_PLACEMENT_3D('',#2058,#1636,#1637);
#1366=AXIS2_PLACEMENT_3D('',#2060,#1638,#1639);
#1367=AXIS2_PLACEMENT_3D('',#2061,#1640,#1641);
#1368=AXIS2_PLACEMENT_3D('',#2062,#1642,#1643);
#1369=AXIS2_PLACEMENT_3D('',#2064,#1644,#1645);
#1370=AXIS2_PLACEMENT_3D('',#2066,#1646,#1647);
#1371=AXIS2_PLACEMENT_3D('',#2067,#1648,#1649);
#1372=AXIS2_PLACEMENT_3D('',#2068,#1650,#1651);
#1373=AXIS2_PLACEMENT_3D('',#2070,#1652,#1653);
#1374=AXIS2_PLACEMENT_3D('',#2072,#1654,#1655);
#1375=AXIS2_PLACEMENT_3D('',#2073,#1656,#1657);
#1376=AXIS2_PLACEMENT_3D('',#2074,#1658,#1659);
#1377=AXIS2_PLACEMENT_3D('',#2076,#1660,#1661);
#1378=AXIS2_PLACEMENT_3D('',#2078,#1662,#1663);
#1379=AXIS2_PLACEMENT_3D('',#2079,#1664,#1665);
#1380=AXIS2_PLACEMENT_3D('',#2080,#1666,#1667);
#1381=AXIS2_PLACEMENT_3D('',#2082,#1668,#1669);
#1382=AXIS2_PLACEMENT_3D('',#2084,#1670,#1671);
#1383=AXIS2_PLACEMENT_3D('',#2085,#1672,#1673);
#1384=AXIS2_PLACEMENT_3D('',#2086,#1674,#1675);
#1385=AXIS2_PLACEMENT_3D('',#2087,#1676,#1677);
#1386=AXIS2_PLACEMENT_3D('',#2088,#1678,#1679);
#1387=AXIS2_PLACEMENT_3D('',#2090,#1680,#1681);
#1388=AXIS2_PLACEMENT_3D('',#2091,#1682,#1683);
#1389=AXIS2_PLACEMENT_3D('',#2092,#1684,#1685);
#1390=AXIS2_PLACEMENT_3D('',#2094,#1686,#1687);
#1391=AXIS2_PLACEMENT_3D('',#2095,#1688,#1689);
#1392=AXIS2_PLACEMENT_3D('',#2096,#1690,#1691);
#1393=AXIS2_PLACEMENT_3D('',#2098,#1692,#1693);
#1394=AXIS2_PLACEMENT_3D('',#2099,#1694,#1695);
#1395=AXIS2_PLACEMENT_3D('',#2100,#1696,#1697);
#1396=AXIS2_PLACEMENT_3D('',#2102,#1698,#1699);
#1397=AXIS2_PLACEMENT_3D('',#2103,#1700,#1701);
#1398=AXIS2_PLACEMENT_3D('',#2104,#1702,#1703);
#1399=AXIS2_PLACEMENT_3D('',#2106,#1704,#1705);
#1400=AXIS2_PLACEMENT_3D('',#2107,#1706,#1707);
#1401=AXIS2_PLACEMENT_3D('',#2108,#1708,#1709);
#1402=AXIS2_PLACEMENT_3D('',#2110,#1710,#1711);
#1403=AXIS2_PLACEMENT_3D('',#2111,#1712,#1713);
#1404=AXIS2_PLACEMENT_3D('',#2126,#1716,#1717);
#1405=AXIS2_PLACEMENT_3D('',#2127,#1718,#1719);
#1406=AXIS2_PLACEMENT_3D('',#2128,#1720,#1721);
#1407=AXIS2_PLACEMENT_3D('',#2143,#1724,#1725);
#1408=AXIS2_PLACEMENT_3D('',#2144,#1726,#1727);
#1409=AXIS2_PLACEMENT_3D('',#2145,#1728,#1729);
#1410=AXIS2_PLACEMENT_3D('',#2160,#1732,#1733);
#1411=AXIS2_PLACEMENT_3D('',#2161,#1734,#1735);
#1412=AXIS2_PLACEMENT_3D('',#2162,#1736,#1737);
#1413=AXIS2_PLACEMENT_3D('',#2177,#1740,#1741);
#1414=AXIS2_PLACEMENT_3D('',#2178,#1742,#1743);
#1415=AXIS2_PLACEMENT_3D('',#2179,#1744,#1745);
#1416=AXIS2_PLACEMENT_3D('',#2194,#1748,#1749);
#1417=AXIS2_PLACEMENT_3D('',#2195,#1750,#1751);
#1418=AXIS2_PLACEMENT_3D('',#2196,#1752,#1753);
#1419=AXIS2_PLACEMENT_3D('',#2197,#1754,#1755);
#1420=AXIS2_PLACEMENT_3D('',#2199,#1756,#1757);
#1421=AXIS2_PLACEMENT_3D('',#2200,#1758,#1759);
#1422=AXIS2_PLACEMENT_3D('',#2201,#1760,#1761);
#1423=AXIS2_PLACEMENT_3D('',#2203,#1762,#1763);
#1424=AXIS2_PLACEMENT_3D('',#2204,#1764,#1765);
#1425=AXIS2_PLACEMENT_3D('',#2205,#1766,#1767);
#1426=AXIS2_PLACEMENT_3D('',#2207,#1768,#1769);
#1427=AXIS2_PLACEMENT_3D('',#2208,#1770,#1771);
#1428=AXIS2_PLACEMENT_3D('',#2209,#1772,#1773);
#1429=AXIS2_PLACEMENT_3D('',#2211,#1774,#1775);
#1430=AXIS2_PLACEMENT_3D('',#2212,#1776,#1777);
#1431=AXIS2_PLACEMENT_3D('',#2213,#1778,#1779);
#1432=AXIS2_PLACEMENT_3D('',#2215,#1780,#1781);
#1433=AXIS2_PLACEMENT_3D('',#2216,#1782,#1783);
#1434=AXIS2_PLACEMENT_3D('',#2217,#1784,#1785);
#1435=AXIS2_PLACEMENT_3D('',#2219,#1786,#1787);
#1436=AXIS2_PLACEMENT_3D('',#2221,#1788,#1789);
#1437=AXIS2_PLACEMENT_3D('',#2222,#1790,#1791);
#1438=AXIS2_PLACEMENT_3D('',#2224,#1792,#1793);
#1439=AXIS2_PLACEMENT_3D('',#2226,#1794,#1795);
#1440=AXIS2_PLACEMENT_3D('',#2227,#1796,#1797);
#1441=AXIS2_PLACEMENT_3D('',#2229,#1798,#1799);
#1442=AXIS2_PLACEMENT_3D('',#2231,#1800,#1801);
#1443=AXIS2_PLACEMENT_3D('',#2232,#1802,#1803);
#1444=AXIS2_PLACEMENT_3D('',#2234,#1804,#1805);
#1445=AXIS2_PLACEMENT_3D('',#2236,#1806,#1807);
#1446=AXIS2_PLACEMENT_3D('',#2237,#1808,#1809);
#1447=AXIS2_PLACEMENT_3D('',#2239,#1810,#1811);
#1448=AXIS2_PLACEMENT_3D('',#2241,#1812,#1813);
#1449=AXIS2_PLACEMENT_3D('',#2242,#1814,#1815);
#1450=AXIS2_PLACEMENT_3D('',#2244,#1816,#1817);
#1451=AXIS2_PLACEMENT_3D('',#2245,#1818,#1819);
#1452=AXIS2_PLACEMENT_3D('',#2246,#1820,#1821);
#1453=AXIS2_PLACEMENT_3D('',#2248,#1822,#1823);
#1454=AXIS2_PLACEMENT_3D('',#2249,#1824,#1825);
#1455=AXIS2_PLACEMENT_3D('',#2250,#1826,#1827);
#1456=AXIS2_PLACEMENT_3D('',#2252,#1828,#1829);
#1457=AXIS2_PLACEMENT_3D('',#2253,#1830,#1831);
#1458=AXIS2_PLACEMENT_3D('',#2254,#1832,#1833);
#1459=AXIS2_PLACEMENT_3D('',#2256,#1834,#1835);
#1460=AXIS2_PLACEMENT_3D('',#2257,#1836,#1837);
#1461=AXIS2_PLACEMENT_3D('',#2258,#1838,#1839);
#1462=AXIS2_PLACEMENT_3D('',#2260,#1840,#1841);
#1463=AXIS2_PLACEMENT_3D('',#2261,#1842,#1843);
#1464=AXIS2_PLACEMENT_3D('',#2262,#1844,#1845);
#1465=AXIS2_PLACEMENT_3D('',#2264,#1846,#1847);
#1466=AXIS2_PLACEMENT_3D('',#2265,#1848,#1849);
#1467=AXIS2_PLACEMENT_3D('',#2266,#1850,#1851);
#1468=AXIS2_PLACEMENT_3D('',#2268,#1852,#1853);
#1469=AXIS2_PLACEMENT_3D('',#2269,#1854,#1855);
#1470=AXIS2_PLACEMENT_3D('',#2270,#1856,#1857);
#1471=AXIS2_PLACEMENT_3D('',#2272,#1858,#1859);
#1472=AXIS2_PLACEMENT_3D('',#2273,#1860,#1861);
#1473=AXIS2_PLACEMENT_3D('',#2274,#1862,#1863);
#1474=AXIS2_PLACEMENT_3D('',#2276,#1864,#1865);
#1475=AXIS2_PLACEMENT_3D('',#2277,#1866,#1867);
#1476=AXIS2_PLACEMENT_3D('',#2278,#1868,#1869);
#1477=AXIS2_PLACEMENT_3D('',#2280,#1870,#1871);
#1478=DIRECTION('',(0.,0.,1.));
#1479=DIRECTION('',(1.,0.,0.));
#1480=DIRECTION('',(-1.,0.,0.));
#1481=DIRECTION('',(0.,0.,1.));
#1482=DIRECTION('',(0.,1.,0.));
#1483=DIRECTION('',(0.,3.65204942310907E-15,-1.));
#1484=DIRECTION('',(-1.,0.,0.));
#1485=DIRECTION('',(0.,0.,1.));
#1486=DIRECTION('',(0.,0.,1.));
#1487=DIRECTION('',(0.,1.,0.));
#1488=DIRECTION('',(0.,0.,-1.));
#1489=DIRECTION('',(0.,1.,0.));
#1490=DIRECTION('',(0.,0.,-1.));
#1491=DIRECTION('',(0.,1.,0.));
#1492=DIRECTION('',(0.,-3.65204942310907E-15,1.));
#1493=DIRECTION('',(-1.,0.,0.));
#1494=DIRECTION('',(0.,0.,1.));
#1495=DIRECTION('',(0.,-2.7390370673318E-15,-1.));
#1496=DIRECTION('',(0.,1.,0.));
#1497=DIRECTION('',(0.,-2.7390370673318E-15,1.));
#1498=DIRECTION('',(-1.,0.,0.));
#1499=DIRECTION('',(0.,0.,1.));
#1500=DIRECTION('',(0.,-2.7390370673318E-15,-1.));
#1501=DIRECTION('',(0.,1.,0.));
#1502=DIRECTION('',(0.,-2.7390370673318E-15,1.));
#1503=DIRECTION('',(-1.,0.,0.));
#1504=DIRECTION('',(0.,0.,1.));
#1505=DIRECTION('',(0.,-2.7390370673318E-15,-1.));
#1506=DIRECTION('',(0.,1.,0.));
#1507=DIRECTION('',(0.,-2.7390370673318E-15,1.));
#1508=DIRECTION('',(-1.,0.,0.));
#1509=DIRECTION('',(0.,0.,1.));
#1510=DIRECTION('',(0.,-3.65204942310907E-15,-1.));
#1511=DIRECTION('',(1.,-1.25844895020639E-16,0.));
#1512=DIRECTION('',(1.25844895020639E-16,1.,0.));
#1513=DIRECTION('',(1.,-1.25844895020639E-16,0.));
#1514=DIRECTION('',(1.25844895020639E-16,1.,0.));
#1515=DIRECTION('',(-4.59591776261346E-31,-3.65204942310907E-15,1.));
#1516=DIRECTION('',(-1.25844895020639E-16,-1.,0.));
#1517=DIRECTION('',(4.59591776261346E-31,3.65204942310907E-15,1.));
#1518=DIRECTION('',(1.,-1.25844895020639E-16,0.));
#1519=DIRECTION('',(1.25844895020639E-16,1.,0.));
#1520=DIRECTION('',(3.44693832196009E-31,2.7390370673318E-15,-1.));
#1521=DIRECTION('',(-1.25844895020639E-16,-1.,0.));
#1522=DIRECTION('',(3.44693832196009E-31,2.7390370673318E-15,1.));
#1523=DIRECTION('',(1.,-1.25844895020639E-16,0.));
#1524=DIRECTION('',(1.25844895020639E-16,1.,0.));
#1525=DIRECTION('',(3.44693832196009E-31,2.7390370673318E-15,-1.));
#1526=DIRECTION('',(-1.25844895020639E-16,-1.,0.));
#1527=DIRECTION('',(3.44693832196009E-31,2.7390370673318E-15,1.));
#1528=DIRECTION('',(1.,-1.25844895020639E-16,0.));
#1529=DIRECTION('',(1.25844895020639E-16,1.,0.));
#1530=DIRECTION('',(3.44693832196009E-31,2.7390370673318E-15,-1.));
#1531=DIRECTION('',(-1.25844895020639E-16,-1.,0.));
#1532=DIRECTION('',(3.44693832196009E-31,2.7390370673318E-15,1.));
#1533=DIRECTION('',(1.,-1.25844895020639E-16,0.));
#1534=DIRECTION('',(1.25844895020639E-16,1.,0.));
#1535=DIRECTION('',(4.59591776261346E-31,3.65204942310907E-15,-1.));
#1536=DIRECTION('',(-1.25844895020639E-16,-1.,0.));
#1537=DIRECTION('',(0.,0.,-1.));
#1538=DIRECTION('',(-1.25844895020639E-16,-1.,0.));
#1539=DIRECTION('',(0.,0.,-1.));
#1540=DIRECTION('',(-1.25844895020639E-16,-1.,0.));
#1541=DIRECTION('',(0.,0.,-1.));
#1542=DIRECTION('',(0.,0.,-1.));
#1543=DIRECTION('',(-1.,0.,0.));
#1544=DIRECTION('',(1.,0.,0.));
#1545=DIRECTION('',(1.,0.,0.));
#1546=DIRECTION('',(0.,0.,-1.));
#1547=DIRECTION('',(-1.,0.,0.));
#1548=DIRECTION('',(-1.,0.,0.));
#1549=DIRECTION('',(-1.,0.,0.));
#1550=DIRECTION('',(0.,0.,-1.));
#1551=DIRECTION('',(-1.,0.,0.));
#1552=DIRECTION('',(-1.,0.,0.));
#1553=DIRECTION('',(1.,0.,0.));
#1554=DIRECTION('',(0.,0.,-1.));
#1555=DIRECTION('',(-1.,0.,0.));
#1556=DIRECTION('',(1.,0.,0.));
#1557=DIRECTION('',(-1.,0.,0.));
#1558=DIRECTION('',(0.,0.,-1.));
#1559=DIRECTION('',(-1.,0.,0.));
#1560=DIRECTION('',(-1.,0.,0.));
#1561=DIRECTION('',(1.,0.,0.));
#1562=DIRECTION('',(0.,0.,-1.));
#1563=DIRECTION('',(-1.,0.,0.));
#1564=DIRECTION('',(-1.,0.,0.));
#1565=DIRECTION('',(1.,0.,0.));
#1566=DIRECTION('',(-1.,0.,-1.22464679914735E-16));
#1567=DIRECTION('',(-1.22464679914735E-16,0.,1.));
#1568=DIRECTION('',(1.,0.,1.22464679914735E-16));
#1569=DIRECTION('',(0.,-1.,0.));
#1570=DIRECTION('',(1.,0.,1.22464679914735E-16));
#1571=DIRECTION('',(0.,-1.,0.));
#1572=DIRECTION('',(1.,0.,1.22464679914735E-16));
#1573=DIRECTION('',(0.,-1.,0.));
#1574=DIRECTION('',(1.,0.,1.22464679914735E-16));
#1575=DIRECTION('',(0.,-1.,0.));
#1576=DIRECTION('',(1.,0.,1.22464679914735E-16));
#1577=DIRECTION('',(0.,-1.,0.));
#1578=DIRECTION('',(1.22464679914735E-16,0.,-1.));
#1579=DIRECTION('',(0.,-1.,0.));
#1580=DIRECTION('',(1.22464679914735E-16,0.,-1.));
#1581=DIRECTION('',(0.,-1.,0.));
#1582=DIRECTION('',(0.,0.,-1.));
#1583=DIRECTION('',(-1.,0.,0.));
#1584=DIRECTION('',(-1.,0.,0.));
#1585=DIRECTION('',(1.,0.,0.));
#1586=DIRECTION('',(1.,0.,0.));
#1587=DIRECTION('',(1.,0.,0.));
#1588=DIRECTION('',(0.,-1.,0.));
#1589=DIRECTION('',(1.,0.,0.));
#1590=DIRECTION('',(0.,0.,-1.));
#1591=DIRECTION('',(-1.,0.,0.));
#1592=DIRECTION('',(0.,1.,0.));
#1593=DIRECTION('',(-1.,0.,0.));
#1594=DIRECTION('',(0.,1.,0.));
#1595=DIRECTION('',(-1.,0.,0.));
#1596=DIRECTION('',(0.,1.,0.));
#1597=DIRECTION('',(-1.,0.,0.));
#1598=DIRECTION('',(0.,1.,0.));
#1599=DIRECTION('',(-1.,0.,0.));
#1600=DIRECTION('',(0.,1.,0.));
#1601=DIRECTION('',(0.,-1.,0.));
#1602=DIRECTION('',(0.,0.,1.));
#1603=DIRECTION('',(0.,0.,1.));
#1604=DIRECTION('',(-2.16840434497101E-16,0.,1.));
#1605=DIRECTION('',(1.,0.,2.16840434497101E-16));
#1606=DIRECTION('',(2.22400445638052E-16,0.,-1.));
#1607=DIRECTION('',(0.,1.,0.));
#1608=DIRECTION('',(-1.,0.,-2.16840434497101E-16));
#1609=DIRECTION('',(-1.,0.,-2.16840434497101E-16));
#1610=DIRECTION('',(2.22400445638052E-16,0.,-1.));
#1611=DIRECTION('',(0.,1.,0.));
#1612=DIRECTION('',(2.22400445638052E-16,0.,-1.));
#1613=DIRECTION('',(0.,1.,0.));
#1614=DIRECTION('',(2.22400445638052E-16,0.,-1.));
#1615=DIRECTION('',(0.,1.,0.));
#1616=DIRECTION('',(2.22400445638052E-16,0.,-1.));
#1617=DIRECTION('',(0.,1.,0.));
#1618=DIRECTION('',(2.22400445638052E-16,0.,-1.));
#1619=DIRECTION('',(0.,1.,0.));
#1620=DIRECTION('',(0.,-1.,0.));
#1621=DIRECTION('',(0.,0.,-1.));
#1622=DIRECTION('',(0.,-1.,0.));
#1623=DIRECTION('',(0.,0.,-1.));
#1624=DIRECTION('',(2.22400445638052E-16,0.,-1.));
#1625=DIRECTION('',(-1.,0.,-2.22400445638052E-16));
#1626=DIRECTION('',(2.22400445638052E-16,0.,-1.));
#1627=DIRECTION('',(0.,1.,0.));
#1628=DIRECTION('',(2.22400445638052E-16,0.,-1.));
#1629=DIRECTION('',(0.,1.,0.));
#1630=DIRECTION('',(2.22400445638052E-16,0.,-1.));
#1631=DIRECTION('',(-1.,0.,-2.22400445638052E-16));
#1632=DIRECTION('',(2.22400445638052E-16,0.,-1.));
#1633=DIRECTION('',(-1.,0.,-2.22400445638052E-16));
#1634=DIRECTION('',(2.22400445638052E-16,0.,-1.));
#1635=DIRECTION('',(0.,1.,0.));
#1636=DIRECTION('',(2.22400445638052E-16,0.,-1.));
#1637=DIRECTION('',(0.,1.,0.));
#1638=DIRECTION('',(2.22400445638052E-16,0.,-1.));
#1639=DIRECTION('',(-1.,0.,-2.22400445638052E-16));
#1640=DIRECTION('',(2.22400445638052E-16,0.,-1.));
#1641=DIRECTION('',(-1.,0.,-2.22400445638052E-16));
#1642=DIRECTION('',(2.22400445638052E-16,0.,-1.));
#1643=DIRECTION('',(0.,1.,0.));
#1644=DIRECTION('',(2.22400445638052E-16,0.,-1.));
#1645=DIRECTION('',(0.,1.,0.));
#1646=DIRECTION('',(2.22400445638052E-16,0.,-1.));
#1647=DIRECTION('',(-1.,0.,-2.22400445638052E-16));
#1648=DIRECTION('',(2.22400445638052E-16,0.,-1.));
#1649=DIRECTION('',(-1.,0.,-2.22400445638052E-16));
#1650=DIRECTION('',(2.22400445638052E-16,0.,-1.));
#1651=DIRECTION('',(0.,1.,0.));
#1652=DIRECTION('',(2.22400445638052E-16,0.,-1.));
#1653=DIRECTION('',(0.,1.,0.));
#1654=DIRECTION('',(2.22400445638052E-16,0.,-1.));
#1655=DIRECTION('',(-1.,0.,-2.22400445638052E-16));
#1656=DIRECTION('',(2.22400445638052E-16,0.,-1.));
#1657=DIRECTION('',(-1.,0.,-2.22400445638052E-16));
#1658=DIRECTION('',(2.22400445638052E-16,0.,-1.));
#1659=DIRECTION('',(0.,1.,0.));
#1660=DIRECTION('',(2.22400445638052E-16,0.,-1.));
#1661=DIRECTION('',(0.,1.,0.));
#1662=DIRECTION('',(2.22400445638052E-16,0.,-1.));
#1663=DIRECTION('',(-1.,0.,-2.22400445638052E-16));
#1664=DIRECTION('',(2.22400445638052E-16,0.,-1.));
#1665=DIRECTION('',(-1.,0.,-2.22400445638052E-16));
#1666=DIRECTION('',(2.22400445638052E-16,0.,-1.));
#1667=DIRECTION('',(0.,1.,0.));
#1668=DIRECTION('',(2.22400445638052E-16,0.,-1.));
#1669=DIRECTION('',(0.,1.,0.));
#1670=DIRECTION('',(2.22400445638052E-16,0.,-1.));
#1671=DIRECTION('',(-1.,0.,-2.22400445638052E-16));
#1672=DIRECTION('',(0.,-1.,0.));
#1673=DIRECTION('',(0.,0.,-1.));
#1674=DIRECTION('',(0.,1.,0.));
#1675=DIRECTION('',(0.,0.,1.));
#1676=DIRECTION('',(2.22400445638052E-16,0.,-1.));
#1677=DIRECTION('',(-1.,0.,-2.22400445638052E-16));
#1678=DIRECTION('',(2.22400445638052E-16,0.,-1.));
#1679=DIRECTION('',(0.,1.,0.));
#1680=DIRECTION('',(-2.22400445638052E-16,0.,1.));
#1681=DIRECTION('',(1.,0.,2.22400445638052E-16));
#1682=DIRECTION('',(2.22400445638052E-16,0.,-1.));
#1683=DIRECTION('',(-1.,0.,-2.22400445638052E-16));
#1684=DIRECTION('',(2.22400445638052E-16,0.,-1.));
#1685=DIRECTION('',(0.,1.,0.));
#1686=DIRECTION('',(-2.22400445638052E-16,0.,1.));
#1687=DIRECTION('',(1.,0.,2.22400445638052E-16));
#1688=DIRECTION('',(2.22400445638052E-16,0.,-1.));
#1689=DIRECTION('',(-1.,0.,-2.22400445638052E-16));
#1690=DIRECTION('',(2.22400445638052E-16,0.,-1.));
#1691=DIRECTION('',(0.,1.,0.));
#1692=DIRECTION('',(-2.22400445638052E-16,0.,1.));
#1693=DIRECTION('',(1.,0.,2.22400445638052E-16));
#1694=DIRECTION('',(2.22400445638052E-16,0.,-1.));
#1695=DIRECTION('',(-1.,0.,-2.22400445638052E-16));
#1696=DIRECTION('',(2.22400445638052E-16,0.,-1.));
#1697=DIRECTION('',(0.,1.,0.));
#1698=DIRECTION('',(-2.22400445638052E-16,0.,1.));
#1699=DIRECTION('',(1.,0.,2.22400445638052E-16));
#1700=DIRECTION('',(2.22400445638052E-16,0.,-1.));
#1701=DIRECTION('',(-1.,0.,-2.22400445638052E-16));
#1702=DIRECTION('',(2.22400445638052E-16,0.,-1.));
#1703=DIRECTION('',(0.,1.,0.));
#1704=DIRECTION('',(-2.22400445638052E-16,0.,1.));
#1705=DIRECTION('',(1.,0.,2.22400445638052E-16));
#1706=DIRECTION('',(2.22400445638052E-16,0.,-1.));
#1707=DIRECTION('',(-1.,0.,-2.22400445638052E-16));
#1708=DIRECTION('',(2.22400445638052E-16,0.,-1.));
#1709=DIRECTION('',(0.,1.,0.));
#1710=DIRECTION('',(-2.22400445638052E-16,0.,1.));
#1711=DIRECTION('',(1.,0.,2.22400445638052E-16));
#1712=DIRECTION('',(1.,0.,0.));
#1713=DIRECTION('',(0.,0.,-1.));
#1714=DIRECTION('',(1.,0.,0.));
#1715=DIRECTION('',(1.,0.,0.));
#1716=DIRECTION('',(0.,1.,-2.7390370673318E-15));
#1717=DIRECTION('',(0.,2.7390370673318E-15,1.));
#1718=DIRECTION('',(0.,-1.,-2.7390370673318E-15));
#1719=DIRECTION('',(0.,2.7390370673318E-15,-1.));
#1720=DIRECTION('',(1.,0.,0.));
#1721=DIRECTION('',(0.,0.,-1.));
#1722=DIRECTION('',(1.,0.,0.));
#1723=DIRECTION('',(1.,0.,0.));
#1724=DIRECTION('',(0.,1.,-2.7390370673318E-15));
#1725=DIRECTION('',(0.,2.7390370673318E-15,1.));
#1726=DIRECTION('',(0.,-1.,-3.65204942310907E-15));
#1727=DIRECTION('',(0.,3.65204942310907E-15,-1.));
#1728=DIRECTION('',(1.,0.,0.));
#1729=DIRECTION('',(0.,0.,-1.));
#1730=DIRECTION('',(1.,0.,0.));
#1731=DIRECTION('',(1.,0.,0.));
#1732=DIRECTION('',(0.,1.,-2.7390370673318E-15));
#1733=DIRECTION('',(0.,2.7390370673318E-15,1.));
#1734=DIRECTION('',(0.,-1.,-2.7390370673318E-15));
#1735=DIRECTION('',(0.,2.7390370673318E-15,-1.));
#1736=DIRECTION('',(1.,0.,0.));
#1737=DIRECTION('',(0.,0.,-1.));
#1738=DIRECTION('',(1.,0.,0.));
#1739=DIRECTION('',(1.,0.,0.));
#1740=DIRECTION('',(0.,1.,-3.65204942310907E-15));
#1741=DIRECTION('',(0.,3.65204942310907E-15,1.));
#1742=DIRECTION('',(0.,-1.,-2.7390370673318E-15));
#1743=DIRECTION('',(0.,2.7390370673318E-15,-1.));
#1744=DIRECTION('',(1.,0.,0.));
#1745=DIRECTION('',(0.,0.,-1.));
#1746=DIRECTION('',(1.,0.,0.));
#1747=DIRECTION('',(1.,0.,0.));
#1748=DIRECTION('',(0.,1.,3.65204942310907E-15));
#1749=DIRECTION('',(0.,-3.65204942310907E-15,1.));
#1750=DIRECTION('',(0.,-1.,0.));
#1751=DIRECTION('',(0.,0.,-1.));
#1752=DIRECTION('',(0.,0.,1.));
#1753=DIRECTION('',(1.,0.,0.));
#1754=DIRECTION('',(0.,0.,1.));
#1755=DIRECTION('',(-1.,0.,0.));
#1756=DIRECTION('',(0.,0.,1.));
#1757=DIRECTION('',(1.,0.,0.));
#1758=DIRECTION('',(0.,0.,1.));
#1759=DIRECTION('',(1.,0.,0.));
#1760=DIRECTION('',(0.,0.,1.));
#1761=DIRECTION('',(-1.,0.,0.));
#1762=DIRECTION('',(0.,0.,1.));
#1763=DIRECTION('',(1.,0.,0.));
#1764=DIRECTION('',(0.,0.,1.));
#1765=DIRECTION('',(1.,0.,0.));
#1766=DIRECTION('',(0.,0.,1.));
#1767=DIRECTION('',(-1.,0.,0.));
#1768=DIRECTION('',(0.,0.,1.));
#1769=DIRECTION('',(1.,0.,0.));
#1770=DIRECTION('',(0.,0.,1.));
#1771=DIRECTION('',(1.,0.,0.));
#1772=DIRECTION('',(0.,0.,1.));
#1773=DIRECTION('',(-1.,0.,0.));
#1774=DIRECTION('',(0.,0.,1.));
#1775=DIRECTION('',(1.,0.,0.));
#1776=DIRECTION('',(0.,0.,1.));
#1777=DIRECTION('',(1.,0.,0.));
#1778=DIRECTION('',(0.,0.,1.));
#1779=DIRECTION('',(-1.,0.,0.));
#1780=DIRECTION('',(0.,0.,1.));
#1781=DIRECTION('',(1.,0.,0.));
#1782=DIRECTION('',(1.,0.,0.));
#1783=DIRECTION('',(0.,0.,-1.));
#1784=DIRECTION('',(1.,0.,1.22464679914735E-16));
#1785=DIRECTION('',(1.22464679914735E-16,0.,-1.));
#1786=DIRECTION('',(-1.,0.,0.));
#1787=DIRECTION('',(0.,0.,1.));
#1788=DIRECTION('',(1.,0.,0.));
#1789=DIRECTION('',(0.,0.,-1.));
#1790=DIRECTION('',(1.,0.,1.22464679914735E-16));
#1791=DIRECTION('',(1.22464679914735E-16,0.,-1.));
#1792=DIRECTION('',(-1.,0.,0.));
#1793=DIRECTION('',(0.,0.,1.));
#1794=DIRECTION('',(1.,0.,0.));
#1795=DIRECTION('',(0.,0.,-1.));
#1796=DIRECTION('',(1.,0.,1.22464679914735E-16));
#1797=DIRECTION('',(1.22464679914735E-16,0.,-1.));
#1798=DIRECTION('',(-1.,0.,0.));
#1799=DIRECTION('',(0.,0.,1.));
#1800=DIRECTION('',(1.,0.,0.));
#1801=DIRECTION('',(0.,0.,-1.));
#1802=DIRECTION('',(1.,0.,1.22464679914735E-16));
#1803=DIRECTION('',(1.22464679914735E-16,0.,-1.));
#1804=DIRECTION('',(-1.,0.,0.));
#1805=DIRECTION('',(0.,0.,1.));
#1806=DIRECTION('',(1.,0.,0.));
#1807=DIRECTION('',(0.,0.,-1.));
#1808=DIRECTION('',(1.,0.,1.22464679914735E-16));
#1809=DIRECTION('',(1.22464679914735E-16,0.,-1.));
#1810=DIRECTION('',(-1.,0.,0.));
#1811=DIRECTION('',(0.,0.,1.));
#1812=DIRECTION('',(-1.,0.,0.));
#1813=DIRECTION('',(0.,0.,1.));
#1814=DIRECTION('',(-1.,0.,0.));
#1815=DIRECTION('',(0.,1.,0.));
#1816=DIRECTION('',(1.,0.,0.));
#1817=DIRECTION('',(0.,0.,-1.));
#1818=DIRECTION('',(-1.,0.,0.));
#1819=DIRECTION('',(0.,0.,1.));
#1820=DIRECTION('',(-1.,0.,0.));
#1821=DIRECTION('',(0.,1.,0.));
#1822=DIRECTION('',(1.,0.,0.));
#1823=DIRECTION('',(0.,0.,-1.));
#1824=DIRECTION('',(-1.,0.,0.));
#1825=DIRECTION('',(0.,0.,1.));
#1826=DIRECTION('',(-1.,0.,0.));
#1827=DIRECTION('',(0.,1.,0.));
#1828=DIRECTION('',(1.,0.,0.));
#1829=DIRECTION('',(0.,0.,-1.));
#1830=DIRECTION('',(-1.,0.,0.));
#1831=DIRECTION('',(0.,0.,1.));
#1832=DIRECTION('',(-1.,0.,0.));
#1833=DIRECTION('',(0.,1.,0.));
#1834=DIRECTION('',(1.,0.,0.));
#1835=DIRECTION('',(0.,0.,-1.));
#1836=DIRECTION('',(-1.,0.,0.));
#1837=DIRECTION('',(0.,0.,1.));
#1838=DIRECTION('',(-1.,0.,0.));
#1839=DIRECTION('',(0.,1.,0.));
#1840=DIRECTION('',(1.,0.,0.));
#1841=DIRECTION('',(0.,0.,-1.));
#1842=DIRECTION('',(1.,0.,1.22464679914735E-16));
#1843=DIRECTION('',(1.22464679914735E-16,0.,-1.));
#1844=DIRECTION('',(1.,0.,1.22464679914735E-16));
#1845=DIRECTION('',(0.,-1.,0.));
#1846=DIRECTION('',(-1.,0.,-1.22464679914735E-16));
#1847=DIRECTION('',(-1.22464679914735E-16,0.,1.));
#1848=DIRECTION('',(1.,0.,1.22464679914735E-16));
#1849=DIRECTION('',(1.22464679914735E-16,0.,-1.));
#1850=DIRECTION('',(1.,0.,1.22464679914735E-16));
#1851=DIRECTION('',(0.,-1.,0.));
#1852=DIRECTION('',(-1.,0.,-1.22464679914735E-16));
#1853=DIRECTION('',(-1.22464679914735E-16,0.,1.));
#1854=DIRECTION('',(1.,0.,1.22464679914735E-16));
#1855=DIRECTION('',(1.22464679914735E-16,0.,-1.));
#1856=DIRECTION('',(1.,0.,1.22464679914735E-16));
#1857=DIRECTION('',(0.,-1.,0.));
#1858=DIRECTION('',(-1.,0.,-1.22464679914735E-16));
#1859=DIRECTION('',(-1.22464679914735E-16,0.,1.));
#1860=DIRECTION('',(1.,0.,1.22464679914735E-16));
#1861=DIRECTION('',(1.22464679914735E-16,0.,-1.));
#1862=DIRECTION('',(1.,0.,1.22464679914735E-16));
#1863=DIRECTION('',(0.,-1.,0.));
#1864=DIRECTION('',(-1.,0.,-1.22464679914735E-16));
#1865=DIRECTION('',(-1.22464679914735E-16,0.,1.));
#1866=DIRECTION('',(1.,0.,1.22464679914735E-16));
#1867=DIRECTION('',(1.22464679914735E-16,0.,-1.));
#1868=DIRECTION('',(1.,0.,1.22464679914735E-16));
#1869=DIRECTION('',(0.,-1.,0.));
#1870=DIRECTION('',(-1.,0.,-1.22464679914735E-16));
#1871=DIRECTION('',(-1.22464679914735E-16,0.,1.));
#1872=CARTESIAN_POINT('',(0.,0.,0.));
#1873=CARTESIAN_POINT('',(1.6,1.6,8.6));
#1874=CARTESIAN_POINT('',(1.6,1.6,8.6));
#1875=CARTESIAN_POINT('',(1.6,11.5,8.6));
#1876=CARTESIAN_POINT('',(1.6,12.3,8.6));
#1877=CARTESIAN_POINT('',(1.6,11.5,8.60000000000004));
#1878=CARTESIAN_POINT('',(1.6,11.5,5.8));
#1879=CARTESIAN_POINT('',(1.6,7.90000000000001,5.8));
#1880=CARTESIAN_POINT('',(1.6,4.30000000000001,5.8));
#1881=CARTESIAN_POINT('',(1.6,4.30000000000001,8.6));
#1882=CARTESIAN_POINT('',(1.6,4.30000000000001,8.6));
#1883=CARTESIAN_POINT('',(1.6,1.6,8.6));
#1884=CARTESIAN_POINT('',(1.6,1.6,8.6));
#1885=CARTESIAN_POINT('',(1.6,1.6,8.6));
#1886=CARTESIAN_POINT('',(1.6,1.6,0.));
#1887=CARTESIAN_POINT('',(1.6,1.6,0.));
#1888=CARTESIAN_POINT('',(1.6,46.4,0.));
#1889=CARTESIAN_POINT('',(1.6,46.4,8.6));
#1890=CARTESIAN_POINT('',(1.6,46.4,8.6));
#1891=CARTESIAN_POINT('',(1.6,1.6,8.6));
#1892=CARTESIAN_POINT('',(1.6,43.5,8.6));
#1893=CARTESIAN_POINT('',(1.6,43.5,8.60000000000015));
#1894=CARTESIAN_POINT('',(1.6,43.5,5.8));
#1895=CARTESIAN_POINT('',(1.6,39.9,5.79999999999999));
#1896=CARTESIAN_POINT('',(1.6,36.3,5.8));
#1897=CARTESIAN_POINT('',(1.6,36.3,8.5999999999999));
#1898=CARTESIAN_POINT('',(1.6,36.3,8.6));
#1899=CARTESIAN_POINT('',(1.6,1.6,8.6));
#1900=CARTESIAN_POINT('',(1.6,35.5,8.6));
#1901=CARTESIAN_POINT('',(1.6,35.5,8.60000000000009));
#1902=CARTESIAN_POINT('',(1.6,35.5,5.8));
#1903=CARTESIAN_POINT('',(1.6,31.9,5.8));
#1904=CARTESIAN_POINT('',(1.6,28.3,5.8));
#1905=CARTESIAN_POINT('',(1.6,28.3,8.59999999999993));
#1906=CARTESIAN_POINT('',(1.6,28.3,8.6));
#1907=CARTESIAN_POINT('',(1.6,1.6,8.6));
#1908=CARTESIAN_POINT('',(1.6,27.5,8.6));
#1909=CARTESIAN_POINT('',(1.6,27.5,8.60000000000007));
#1910=CARTESIAN_POINT('',(1.6,27.5,5.8));
#1911=CARTESIAN_POINT('',(1.6,23.9,5.8));
#1912=CARTESIAN_POINT('',(1.6,20.3,5.8));
#1913=CARTESIAN_POINT('',(1.6,20.3,8.59999999999995));
#1914=CARTESIAN_POINT('',(1.6,20.3,8.6));
#1915=CARTESIAN_POINT('',(1.6,1.6,8.6));
#1916=CARTESIAN_POINT('',(1.6,19.5,8.6));
#1917=CARTESIAN_POINT('',(1.6,19.5,8.60000000000005));
#1918=CARTESIAN_POINT('',(1.6,19.5,5.8));
#1919=CARTESIAN_POINT('',(1.6,15.9,5.8));
#1920=CARTESIAN_POINT('',(1.6,12.3,5.8));
#1921=CARTESIAN_POINT('',(1.6,12.3,8.59999999999996));
#1922=CARTESIAN_POINT('',(6.4,46.4,8.6));
#1923=CARTESIAN_POINT('',(6.39999999999999,7.90000000000001,5.8));
#1924=CARTESIAN_POINT('',(6.39999999999999,4.30000000000001,5.8));
#1925=CARTESIAN_POINT('',(6.39999999999999,11.5,5.8));
#1926=CARTESIAN_POINT('',(6.39999999999999,11.5,8.59999999999987));
#1927=CARTESIAN_POINT('',(6.39999999999999,11.5,8.6));
#1928=CARTESIAN_POINT('',(6.4,46.4,8.6));
#1929=CARTESIAN_POINT('',(6.4,12.3,8.6));
#1930=CARTESIAN_POINT('',(6.39999999999999,12.3,8.60000000000013));
#1931=CARTESIAN_POINT('',(6.4,12.3,5.8));
#1932=CARTESIAN_POINT('',(6.39999999999999,15.9,5.8));
#1933=CARTESIAN_POINT('',(6.4,19.5,5.8));
#1934=CARTESIAN_POINT('',(6.39999999999999,19.5,8.59999999999993));
#1935=CARTESIAN_POINT('',(6.4,19.5,8.6));
#1936=CARTESIAN_POINT('',(6.4,46.4,8.6));
#1937=CARTESIAN_POINT('',(6.4,20.3,8.6));
#1938=CARTESIAN_POINT('',(6.39999999999999,20.3,8.60000000000007));
#1939=CARTESIAN_POINT('',(6.39999999999999,20.3,5.8));
#1940=CARTESIAN_POINT('',(6.4,23.9,5.8));
#1941=CARTESIAN_POINT('',(6.4,27.5,5.8));
#1942=CARTESIAN_POINT('',(6.4,27.5,8.59999999999995));
#1943=CARTESIAN_POINT('',(6.4,27.5,8.6));
#1944=CARTESIAN_POINT('',(6.4,46.4,8.6));
#1945=CARTESIAN_POINT('',(6.4,28.3,8.6));
#1946=CARTESIAN_POINT('',(6.4,28.3,8.60000000000005));
#1947=CARTESIAN_POINT('',(6.4,28.3,5.8));
#1948=CARTESIAN_POINT('',(6.4,31.9,5.8));
#1949=CARTESIAN_POINT('',(6.4,35.5,5.8));
#1950=CARTESIAN_POINT('',(6.4,35.5,8.59999999999997));
#1951=CARTESIAN_POINT('',(6.4,35.5,8.6));
#1952=CARTESIAN_POINT('',(6.4,46.4,8.6));
#1953=CARTESIAN_POINT('',(6.4,36.3,8.6));
#1954=CARTESIAN_POINT('',(6.4,36.3,8.60000000000003));
#1955=CARTESIAN_POINT('',(6.4,36.3,5.8));
#1956=CARTESIAN_POINT('',(6.4,39.9,5.79999999999999));
#1957=CARTESIAN_POINT('',(6.4,43.5,5.8));
#1958=CARTESIAN_POINT('',(6.4,43.5,8.59999999999999));
#1959=CARTESIAN_POINT('',(6.4,43.5,8.6));
#1960=CARTESIAN_POINT('',(6.4,46.4,8.6));
#1961=CARTESIAN_POINT('',(6.4,46.4,8.6));
#1962=CARTESIAN_POINT('',(6.4,46.4,8.6));
#1963=CARTESIAN_POINT('',(6.4,46.4,0.));
#1964=CARTESIAN_POINT('',(6.4,46.4,0.));
#1965=CARTESIAN_POINT('',(6.39999999999999,1.6,0.));
#1966=CARTESIAN_POINT('',(6.39999999999999,1.6,8.6));
#1967=CARTESIAN_POINT('',(6.39999999999999,1.6,8.6));
#1968=CARTESIAN_POINT('',(6.4,46.4,8.6));
#1969=CARTESIAN_POINT('',(6.39999999999999,4.30000000000001,8.6));
#1970=CARTESIAN_POINT('',(6.39999999999999,4.30000000000001,8.6));
#1971=CARTESIAN_POINT('',(0.,0.,8.6));
#1972=CARTESIAN_POINT('',(0.,11.5,8.6));
#1973=CARTESIAN_POINT('',(0.,12.3,8.6));
#1974=CARTESIAN_POINT('',(0.,0.,8.6));
#1975=CARTESIAN_POINT('',(0.,4.30000000000001,8.6));
#1976=CARTESIAN_POINT('',(6.39999999999999,1.6,8.6));
#1977=CARTESIAN_POINT('',(0.,0.,8.6));
#1978=CARTESIAN_POINT('',(0.,19.5,8.6));
#1979=CARTESIAN_POINT('',(0.,20.3,8.6));
#1980=CARTESIAN_POINT('',(0.,0.,8.6));
#1981=CARTESIAN_POINT('',(0.,28.3,8.6));
#1982=CARTESIAN_POINT('',(0.,27.5,8.6));
#1983=CARTESIAN_POINT('',(0.,0.,8.6));
#1984=CARTESIAN_POINT('',(0.,35.5,8.6));
#1985=CARTESIAN_POINT('',(0.,36.3,8.6));
#1986=CARTESIAN_POINT('',(0.,0.,8.6));
#1987=CARTESIAN_POINT('',(0.,43.5,8.6));
#1988=CARTESIAN_POINT('',(1.6,46.4,8.6));
#1989=CARTESIAN_POINT('',(-1.17566092718146E-15,48.,9.6));
#1990=CARTESIAN_POINT('',(-7.10295143505464E-16,39.9,5.79999999999999));
#1991=CARTESIAN_POINT('',(-7.10295143505464E-16,36.8,5.79999999999999));
#1992=CARTESIAN_POINT('',(-7.10295143505464E-16,31.9,5.79999999999999));
#1993=CARTESIAN_POINT('',(-7.10295143505464E-16,28.8,5.79999999999999));
#1994=CARTESIAN_POINT('',(-7.10295143505464E-16,23.9,5.79999999999999));
#1995=CARTESIAN_POINT('',(-7.10295143505464E-16,20.8,5.79999999999999));
#1996=CARTESIAN_POINT('',(-7.10295143505464E-16,15.9,5.79999999999999));
#1997=CARTESIAN_POINT('',(-7.10295143505464E-16,12.8,5.79999999999999));
#1998=CARTESIAN_POINT('',(-7.10295143505464E-16,7.9,5.79999999999999));
#1999=CARTESIAN_POINT('',(-7.10295143505464E-16,4.8,5.79999999999999));
#2000=CARTESIAN_POINT('',(-1.17566092718146E-15,0.,9.6));
#2001=CARTESIAN_POINT('',(-1.73472347597681E-15,0.,9.6));
#2002=CARTESIAN_POINT('',(0.,0.,0.));
#2003=CARTESIAN_POINT('',(-1.73472347597681E-15,48.,9.6));
#2004=CARTESIAN_POINT('',(-1.73472347597681E-15,48.,9.6));
#2005=CARTESIAN_POINT('',(-1.17566092718146E-15,48.,9.6));
#2006=CARTESIAN_POINT('',(0.,48.,0.));
#2007=CARTESIAN_POINT('',(0.,48.,0.));
#2008=CARTESIAN_POINT('',(0.,48.,0.));
#2009=CARTESIAN_POINT('',(6.39999999999999,1.6,0.));
#2010=CARTESIAN_POINT('',(1.6,46.4,0.));
#2011=CARTESIAN_POINT('',(0.,0.,0.));
#2012=CARTESIAN_POINT('',(8.,0.,0.));
#2013=CARTESIAN_POINT('',(0.,48.,0.));
#2014=CARTESIAN_POINT('',(8.,48.,0.));
#2015=CARTESIAN_POINT('',(8.,48.,0.));
#2016=CARTESIAN_POINT('',(8.,48.,0.));
#2017=CARTESIAN_POINT('',(8.,7.9,5.79999999999999));
#2018=CARTESIAN_POINT('',(8.,11.,5.79999999999999));
#2019=CARTESIAN_POINT('',(8.,15.9,5.79999999999999));
#2020=CARTESIAN_POINT('',(8.,19.,5.79999999999999));
#2021=CARTESIAN_POINT('',(8.,23.9,5.79999999999999));
#2022=CARTESIAN_POINT('',(8.,27.,5.79999999999999));
#2023=CARTESIAN_POINT('',(8.,31.9,5.79999999999999));
#2024=CARTESIAN_POINT('',(8.,35.,5.79999999999999));
#2025=CARTESIAN_POINT('',(8.,39.9,5.79999999999999));
#2026=CARTESIAN_POINT('',(8.,43.,5.79999999999999));
#2027=CARTESIAN_POINT('',(8.,48.,9.6));
#2028=CARTESIAN_POINT('',(8.,48.,9.6));
#2029=CARTESIAN_POINT('',(8.,0.,9.6));
#2030=CARTESIAN_POINT('',(8.,0.,0.));
#2031=CARTESIAN_POINT('',(8.,48.,0.));
#2032=CARTESIAN_POINT('',(8.,48.,9.6));
#2033=CARTESIAN_POINT('',(4.,12.,9.6));
#2034=CARTESIAN_POINT('',(4.,14.4,9.6));
#2035=CARTESIAN_POINT('',(8.,0.,9.6));
#2036=CARTESIAN_POINT('',(8.,48.,9.6));
#2037=CARTESIAN_POINT('',(4.,4.,9.6));
#2038=CARTESIAN_POINT('',(4.,6.4,9.6));
#2039=CARTESIAN_POINT('',(4.,20.,9.6));
#2040=CARTESIAN_POINT('',(4.,22.4,9.6));
#2041=CARTESIAN_POINT('',(4.,36.,9.6));
#2042=CARTESIAN_POINT('',(4.,38.4,9.6));
#2043=CARTESIAN_POINT('',(4.,28.,9.6));
#2044=CARTESIAN_POINT('',(4.,30.4,9.6));
#2045=CARTESIAN_POINT('',(4.,44.,9.6));
#2046=CARTESIAN_POINT('',(4.,46.4,9.6));
#2047=CARTESIAN_POINT('',(0.,48.,0.));
#2048=CARTESIAN_POINT('',(0.,0.,0.));
#2049=CARTESIAN_POINT('',(4.,12.,11.2));
#2050=CARTESIAN_POINT('',(4.,12.,11.2));
#2051=CARTESIAN_POINT('',(4.,13.6,11.2));
#2052=CARTESIAN_POINT('',(4.,12.,11.2));
#2053=CARTESIAN_POINT('',(4.,14.4,11.2));
#2054=CARTESIAN_POINT('',(4.,12.,11.2));
#2055=CARTESIAN_POINT('',(4.,28.,11.2));
#2056=CARTESIAN_POINT('',(4.,28.,11.2));
#2057=CARTESIAN_POINT('',(4.,29.6,11.2));
#2058=CARTESIAN_POINT('',(4.,28.,11.2));
#2059=CARTESIAN_POINT('',(4.,30.4,11.2));
#2060=CARTESIAN_POINT('',(4.,28.,11.2));
#2061=CARTESIAN_POINT('',(4.,4.,11.2));
#2062=CARTESIAN_POINT('',(4.,4.,11.2));
#2063=CARTESIAN_POINT('',(4.,5.6,11.2));
#2064=CARTESIAN_POINT('',(4.,4.,11.2));
#2065=CARTESIAN_POINT('',(4.,6.4,11.2));
#2066=CARTESIAN_POINT('',(4.,4.,11.2));
#2067=CARTESIAN_POINT('',(4.,44.,11.2));
#2068=CARTESIAN_POINT('',(4.,44.,11.2));
#2069=CARTESIAN_POINT('',(4.,45.6,11.2));
#2070=CARTESIAN_POINT('',(4.,44.,11.2));
#2071=CARTESIAN_POINT('',(4.,46.4,11.2));
#2072=CARTESIAN_POINT('',(4.,44.,11.2));
#2073=CARTESIAN_POINT('',(4.,36.,11.2));
#2074=CARTESIAN_POINT('',(4.,36.,11.2));
#2075=CARTESIAN_POINT('',(4.,37.6,11.2));
#2076=CARTESIAN_POINT('',(4.,36.,11.2));
#2077=CARTESIAN_POINT('',(4.,38.4,11.2));
#2078=CARTESIAN_POINT('',(4.,36.,11.2));
#2079=CARTESIAN_POINT('',(4.,20.,11.2));
#2080=CARTESIAN_POINT('',(4.,20.,11.2));
#2081=CARTESIAN_POINT('',(4.,21.6,11.2));
#2082=CARTESIAN_POINT('',(4.,20.,11.2));
#2083=CARTESIAN_POINT('',(4.,22.4,11.2));
#2084=CARTESIAN_POINT('',(4.,20.,11.2));
#2085=CARTESIAN_POINT('',(6.39999999999999,1.6,8.6));
#2086=CARTESIAN_POINT('',(1.6,46.4,8.6));
#2087=CARTESIAN_POINT('',(4.,20.,9.6));
#2088=CARTESIAN_POINT('',(4.,20.,9.6));
#2089=CARTESIAN_POINT('',(4.,21.6,9.6));
#2090=CARTESIAN_POINT('',(4.,20.,9.6));
#2091=CARTESIAN_POINT('',(4.,36.,9.6));
#2092=CARTESIAN_POINT('',(4.,36.,9.6));
#2093=CARTESIAN_POINT('',(4.,37.6,9.6));
#2094=CARTESIAN_POINT('',(4.,36.,9.6));
#2095=CARTESIAN_POINT('',(4.,44.,9.6));
#2096=CARTESIAN_POINT('',(4.,44.,9.6));
#2097=CARTESIAN_POINT('',(4.,45.6,9.6));
#2098=CARTESIAN_POINT('',(4.,44.,9.6));
#2099=CARTESIAN_POINT('',(4.,4.,9.6));
#2100=CARTESIAN_POINT('',(4.,4.,9.6));
#2101=CARTESIAN_POINT('',(4.,5.6,9.6));
#2102=CARTESIAN_POINT('',(4.,4.,9.6));
#2103=CARTESIAN_POINT('',(4.,28.,9.6));
#2104=CARTESIAN_POINT('',(4.,28.,9.6));
#2105=CARTESIAN_POINT('',(4.,29.6,9.6));
#2106=CARTESIAN_POINT('',(4.,28.,9.6));
#2107=CARTESIAN_POINT('',(4.,12.,9.6));
#2108=CARTESIAN_POINT('',(4.,12.,9.6));
#2109=CARTESIAN_POINT('',(4.,13.6,9.6));
#2110=CARTESIAN_POINT('',(4.,12.,9.6));
#2111=CARTESIAN_POINT('',(0.199999999999999,23.9,5.8));
#2112=CARTESIAN_POINT('',(5.2472598331941,22.8335499463832,2.31518870093907));
#2113=CARTESIAN_POINT('',(5.7738128031282,24.1059229528062,2.11674965401001));
#2114=CARTESIAN_POINT('',(5.2574889542931,25.342758242392,2.45117177628735));
#2115=CARTESIAN_POINT('',(4.02297369930136,25.8725321546398,2.79459850990654));
#2116=CARTESIAN_POINT('',(2.76427001335088,25.366440345772,2.46389704109499));
#2117=CARTESIAN_POINT('',(2.22775895306443,24.1446294764383,2.11917790026942));
#2118=CARTESIAN_POINT('',(2.72687092504491,22.8594650208895,2.30509723178616));
#2119=CARTESIAN_POINT('',(3.98031243203138,22.3268887785936,2.56993117356141));
#2120=CARTESIAN_POINT('',(5.2472598331941,22.8335499463832,2.31518870093907));
#2121=CARTESIAN_POINT('',(5.7738128031282,24.1059229528062,2.11674965401001));
#2122=CARTESIAN_POINT('',(5.2574889542931,25.342758242392,2.45117177628735));
#2123=CARTESIAN_POINT('',(5.6,24.1,2.20555984887774));
#2124=CARTESIAN_POINT('',(0.199999999999999,20.3,5.8));
#2125=CARTESIAN_POINT('',(0.199999999999999,27.5,5.8));
#2126=CARTESIAN_POINT('',(0.199999999999999,20.3,5.8));
#2127=CARTESIAN_POINT('',(0.199999999999999,27.5,5.8));
#2128=CARTESIAN_POINT('',(0.199999999999999,39.9,5.79999999999999));
#2129=CARTESIAN_POINT('',(5.2472598331941,38.8335499463832,2.31518870093903));
#2130=CARTESIAN_POINT('',(5.7738128031282,40.1059229528062,2.11674965400997));
#2131=CARTESIAN_POINT('',(5.2574889542931,41.342758242392,2.45117177628731));
#2132=CARTESIAN_POINT('',(4.02297369930136,41.8725321546398,2.79459850990649));
#2133=CARTESIAN_POINT('',(2.76427001335088,41.366440345772,2.46389704109494));
#2134=CARTESIAN_POINT('',(2.22775895306444,40.1446294764383,2.11917790026938));
#2135=CARTESIAN_POINT('',(2.72687092504491,38.8594650208895,2.30509723178612));
#2136=CARTESIAN_POINT('',(3.98031243203139,38.3268887785936,2.56993117356137));
#2137=CARTESIAN_POINT('',(5.2472598331941,38.8335499463832,2.31518870093903));
#2138=CARTESIAN_POINT('',(5.7738128031282,40.1059229528062,2.11674965400997));
#2139=CARTESIAN_POINT('',(5.2574889542931,41.342758242392,2.45117177628731));
#2140=CARTESIAN_POINT('',(5.6,40.1,2.2055598488777));
#2141=CARTESIAN_POINT('',(0.199999999999999,36.3,5.8));
#2142=CARTESIAN_POINT('',(0.199999999999999,43.5,5.8));
#2143=CARTESIAN_POINT('',(0.199999999999999,36.3,5.8));
#2144=CARTESIAN_POINT('',(0.199999999999999,43.5,5.8));
#2145=CARTESIAN_POINT('',(0.199999999999999,31.9,5.8));
#2146=CARTESIAN_POINT('',(5.2472598331941,30.8335499463832,2.31518870093907));
#2147=CARTESIAN_POINT('',(5.77381280312819,32.1059229528062,2.11674965401001));
#2148=CARTESIAN_POINT('',(5.25748895429311,33.342758242392,2.45117177628735));
#2149=CARTESIAN_POINT('',(4.02297369930136,33.8725321546398,2.79459850990654));
#2150=CARTESIAN_POINT('',(2.76427001335088,33.366440345772,2.46389704109499));
#2151=CARTESIAN_POINT('',(2.22775895306444,32.1446294764383,2.11917790026943));
#2152=CARTESIAN_POINT('',(2.72687092504491,30.8594650208895,2.30509723178616));
#2153=CARTESIAN_POINT('',(3.98031243203138,30.3268887785936,2.56993117356141));
#2154=CARTESIAN_POINT('',(5.2472598331941,30.8335499463832,2.31518870093907));
#2155=CARTESIAN_POINT('',(5.77381280312819,32.1059229528062,2.11674965401001));
#2156=CARTESIAN_POINT('',(5.25748895429311,33.342758242392,2.45117177628735));
#2157=CARTESIAN_POINT('',(5.6,32.1,2.20555984887775));
#2158=CARTESIAN_POINT('',(0.199999999999999,28.3,5.8));
#2159=CARTESIAN_POINT('',(0.199999999999999,35.5,5.8));
#2160=CARTESIAN_POINT('',(0.199999999999999,28.3,5.8));
#2161=CARTESIAN_POINT('',(0.199999999999999,35.5,5.8));
#2162=CARTESIAN_POINT('',(0.199999999999999,15.9,5.8));
#2163=CARTESIAN_POINT('',(5.24725983319411,14.8335499463832,2.31518870093907));
#2164=CARTESIAN_POINT('',(5.77381280312819,16.1059229528062,2.11674965401001));
#2165=CARTESIAN_POINT('',(5.2574889542931,17.342758242392,2.45117177628734));
#2166=CARTESIAN_POINT('',(4.02297369930136,17.8725321546398,2.79459850990653));
#2167=CARTESIAN_POINT('',(2.76427001335088,17.366440345772,2.46389704109498));
#2168=CARTESIAN_POINT('',(2.22775895306443,16.1446294764383,2.11917790026942));
#2169=CARTESIAN_POINT('',(2.72687092504491,14.8594650208895,2.30509723178616));
#2170=CARTESIAN_POINT('',(3.98031243203138,14.3268887785936,2.56993117356141));
#2171=CARTESIAN_POINT('',(5.24725983319411,14.8335499463832,2.31518870093907));
#2172=CARTESIAN_POINT('',(5.77381280312819,16.1059229528062,2.11674965401001));
#2173=CARTESIAN_POINT('',(5.2574889542931,17.342758242392,2.45117177628734));
#2174=CARTESIAN_POINT('',(5.6,16.1,2.20555984887774));
#2175=CARTESIAN_POINT('',(0.199999999999999,12.3,5.8));
#2176=CARTESIAN_POINT('',(0.199999999999999,19.5,5.8));
#2177=CARTESIAN_POINT('',(0.199999999999999,12.3,5.8));
#2178=CARTESIAN_POINT('',(0.199999999999999,19.5,5.8));
#2179=CARTESIAN_POINT('',(0.199999999999999,7.90000000000001,5.8));
#2180=CARTESIAN_POINT('',(5.25883813848795,9.34718354629223,2.4528710744625));
#2181=CARTESIAN_POINT('',(5.77347615469824,8.10829997664663,2.11688466749466));
#2182=CARTESIAN_POINT('',(5.24725724271906,6.83809186559267,2.313985281474));
#2183=CARTESIAN_POINT('',(3.98549881087835,6.32959853339443,2.56834192530184));
#2184=CARTESIAN_POINT('',(2.72791019752484,6.86234672287912,2.3049591792243));
#2185=CARTESIAN_POINT('',(2.22726361277917,8.13977580764582,2.11885551821098));
#2186=CARTESIAN_POINT('',(2.76458374587943,9.36943991566385,2.46444708607856));
#2187=CARTESIAN_POINT('',(4.01350551969851,9.87538486953235,2.79675781491617));
#2188=CARTESIAN_POINT('',(5.25883813848795,9.34718354629223,2.4528710744625));
#2189=CARTESIAN_POINT('',(5.77347615469824,8.10829997664663,2.11688466749466));
#2190=CARTESIAN_POINT('',(5.24725724271906,6.83809186559267,2.313985281474));
#2191=CARTESIAN_POINT('',(5.6,8.10307921974523,2.20573250431919));
#2192=CARTESIAN_POINT('',(0.199999999999999,11.5,5.8));
#2193=CARTESIAN_POINT('',(0.199999999999999,4.30000000000001,5.8));
#2194=CARTESIAN_POINT('',(0.199999999999999,11.5,5.8));
#2195=CARTESIAN_POINT('',(0.199999999999999,4.30000000000001,9.6));
#2196=CARTESIAN_POINT('',(4.,8.10307921974523,-1.73472347597681E-15));
#2197=CARTESIAN_POINT('',(4.,8.10307921974523,-1.73472347597681E-15));
#2198=CARTESIAN_POINT('',(2.4,8.10307921974523,-1.73472347597681E-15));
#2199=CARTESIAN_POINT('',(4.,8.10307921974523,-1.73472347597681E-15));
#2200=CARTESIAN_POINT('',(4.,16.1,-1.73472347597681E-15));
#2201=CARTESIAN_POINT('',(4.,16.1,-1.73472347597681E-15));
#2202=CARTESIAN_POINT('',(2.4,16.1,-1.73472347597681E-15));
#2203=CARTESIAN_POINT('',(4.,16.1,-1.73472347597681E-15));
#2204=CARTESIAN_POINT('',(4.,32.1,-1.73472347597681E-15));
#2205=CARTESIAN_POINT('',(4.,32.1,-1.73472347597681E-15));
#2206=CARTESIAN_POINT('',(2.4,32.1,-1.73472347597681E-15));
#2207=CARTESIAN_POINT('',(4.,32.1,-1.73472347597681E-15));
#2208=CARTESIAN_POINT('',(4.,40.1,-1.73472347597681E-15));
#2209=CARTESIAN_POINT('',(4.,40.1,-1.73472347597681E-15));
#2210=CARTESIAN_POINT('',(2.4,40.1,-1.73472347597681E-15));
#2211=CARTESIAN_POINT('',(4.,40.1,-1.73472347597681E-15));
#2212=CARTESIAN_POINT('',(4.,24.1,-1.73472347597681E-15));
#2213=CARTESIAN_POINT('',(4.,24.1,-1.73472347597681E-15));
#2214=CARTESIAN_POINT('',(2.4,24.1,-1.73472347597681E-15));
#2215=CARTESIAN_POINT('',(4.,24.1,-1.73472347597681E-15));
#2216=CARTESIAN_POINT('',(-12.,39.9,5.79999999999999));
#2217=CARTESIAN_POINT('',(0.799999999999999,39.9,5.79999999999999));
#2218=CARTESIAN_POINT('',(0.799999999999999,39.9,3.39999999999999));
#2219=CARTESIAN_POINT('',(7.2,39.9,5.79999999999999));
#2220=CARTESIAN_POINT('',(7.2,39.9,8.19999999999999));
#2221=CARTESIAN_POINT('',(-12.,31.9,5.79999999999999));
#2222=CARTESIAN_POINT('',(0.799999999999999,31.9,5.79999999999999));
#2223=CARTESIAN_POINT('',(0.799999999999999,31.9,3.39999999999999));
#2224=CARTESIAN_POINT('',(7.2,31.9,5.79999999999999));
#2225=CARTESIAN_POINT('',(7.2,31.9,8.19999999999999));
#2226=CARTESIAN_POINT('',(-12.,23.9,5.79999999999999));
#2227=CARTESIAN_POINT('',(0.799999999999999,23.9,5.79999999999999));
#2228=CARTESIAN_POINT('',(0.799999999999999,23.9,3.39999999999999));
#2229=CARTESIAN_POINT('',(7.2,23.9,5.79999999999999));
#2230=CARTESIAN_POINT('',(7.2,23.9,8.19999999999999));
#2231=CARTESIAN_POINT('',(-12.,15.9,5.79999999999999));
#2232=CARTESIAN_POINT('',(0.799999999999999,15.9,5.79999999999999));
#2233=CARTESIAN_POINT('',(0.799999999999999,15.9,3.39999999999999));
#2234=CARTESIAN_POINT('',(7.2,15.9,5.79999999999999));
#2235=CARTESIAN_POINT('',(7.2,15.9,8.19999999999999));
#2236=CARTESIAN_POINT('',(-12.,7.9,5.79999999999999));
#2237=CARTESIAN_POINT('',(0.799999999999999,7.9,5.79999999999999));
#2238=CARTESIAN_POINT('',(0.799999999999999,7.9,3.39999999999999));
#2239=CARTESIAN_POINT('',(7.2,7.9,5.79999999999999));
#2240=CARTESIAN_POINT('',(7.2,7.9,8.19999999999999));
#2241=CARTESIAN_POINT('',(7.2,7.9,5.79999999999999));
#2242=CARTESIAN_POINT('',(7.2,7.9,5.79999999999999));
#2243=CARTESIAN_POINT('',(7.2,11.,5.79999999999999));
#2244=CARTESIAN_POINT('',(7.2,7.9,5.79999999999999));
#2245=CARTESIAN_POINT('',(7.2,15.9,5.79999999999999));
#2246=CARTESIAN_POINT('',(7.2,15.9,5.79999999999999));
#2247=CARTESIAN_POINT('',(7.2,19.,5.79999999999999));
#2248=CARTESIAN_POINT('',(7.2,15.9,5.79999999999999));
#2249=CARTESIAN_POINT('',(7.2,23.9,5.79999999999999));
#2250=CARTESIAN_POINT('',(7.2,23.9,5.79999999999999));
#2251=CARTESIAN_POINT('',(7.2,27.,5.79999999999999));
#2252=CARTESIAN_POINT('',(7.2,23.9,5.79999999999999));
#2253=CARTESIAN_POINT('',(7.2,31.9,5.79999999999999));
#2254=CARTESIAN_POINT('',(7.2,31.9,5.79999999999999));
#2255=CARTESIAN_POINT('',(7.2,35.,5.79999999999999));
#2256=CARTESIAN_POINT('',(7.2,31.9,5.79999999999999));
#2257=CARTESIAN_POINT('',(7.2,39.9,5.79999999999999));
#2258=CARTESIAN_POINT('',(7.2,39.9,5.79999999999999));
#2259=CARTESIAN_POINT('',(7.2,43.,5.79999999999999));
#2260=CARTESIAN_POINT('',(7.2,39.9,5.79999999999999));
#2261=CARTESIAN_POINT('',(0.799999999999999,7.9,5.79999999999999));
#2262=CARTESIAN_POINT('',(0.799999999999999,7.9,5.79999999999999));
#2263=CARTESIAN_POINT('',(0.799999999999999,4.8,5.79999999999999));
#2264=CARTESIAN_POINT('',(0.799999999999999,7.9,5.79999999999999));
#2265=CARTESIAN_POINT('',(0.799999999999999,15.9,5.79999999999999));
#2266=CARTESIAN_POINT('',(0.799999999999999,15.9,5.79999999999999));
#2267=CARTESIAN_POINT('',(0.799999999999999,12.8,5.79999999999999));
#2268=CARTESIAN_POINT('',(0.799999999999999,15.9,5.79999999999999));
#2269=CARTESIAN_POINT('',(0.799999999999999,23.9,5.79999999999999));
#2270=CARTESIAN_POINT('',(0.799999999999999,23.9,5.79999999999999));
#2271=CARTESIAN_POINT('',(0.799999999999999,20.8,5.79999999999999));
#2272=CARTESIAN_POINT('',(0.799999999999999,23.9,5.79999999999999));
#2273=CARTESIAN_POINT('',(0.799999999999999,31.9,5.79999999999999));
#2274=CARTESIAN_POINT('',(0.799999999999999,31.9,5.79999999999999));
#2275=CARTESIAN_POINT('',(0.799999999999999,28.8,5.79999999999999));
#2276=CARTESIAN_POINT('',(0.799999999999999,31.9,5.79999999999999));
#2277=CARTESIAN_POINT('',(0.799999999999999,39.9,5.79999999999999));
#2278=CARTESIAN_POINT('',(0.799999999999999,39.9,5.79999999999999));
#2279=CARTESIAN_POINT('',(0.799999999999999,36.8,5.79999999999999));
#2280=CARTESIAN_POINT('',(0.799999999999999,39.9,5.79999999999999));
#2281=MECHANICAL_DESIGN_GEOMETRIC_PRESENTATION_REPRESENTATION('',(#1307),
#2282);
#2282=(
GEOMETRIC_REPRESENTATION_CONTEXT(3)
GLOBAL_UNCERTAINTY_ASSIGNED_CONTEXT((#2283))
GLOBAL_UNIT_ASSIGNED_CONTEXT((#2286,#2285,#2284))
REPRESENTATION_CONTEXT('Ye_389424_MCM','TOP_LEVEL_ASSEMBLY_PART')
);
#2283=UNCERTAINTY_MEASURE_WITH_UNIT(LENGTH_MEASURE(0.005),#2286,
'DISTANCE_ACCURACY_VALUE','Maximum Tolerance applied to model');
#2284=(
NAMED_UNIT(*)
SI_UNIT($,.STERADIAN.)
SOLID_ANGLE_UNIT()
);
#2285=(
NAMED_UNIT(*)
PLANE_ANGLE_UNIT()
SI_UNIT($,.RADIAN.)
);
#2286=(
LENGTH_UNIT()
NAMED_UNIT(*)
SI_UNIT(.MILLI.,.METRE.)
);
#2287=PRODUCT_DEFINITION_SHAPE('','',#2288);
#2288=PRODUCT_DEFINITION('','',#2290,#2289);
#2289=PRODUCT_DEFINITION_CONTEXT('',#2296,'design');
#2290=PRODUCT_DEFINITION_FORMATION_WITH_SPECIFIED_SOURCE('','',#2292,
 .NOT_KNOWN.);
#2291=PRODUCT_RELATED_PRODUCT_CATEGORY('','',(#2292));
#2292=PRODUCT('Ye_389424_MCM','Ye_389424_MCM','Ye_389424_MCM',(#2294));
#2293=PRODUCT_CATEGORY('','');
#2294=PRODUCT_CONTEXT('',#2296,'mechanical');
#2295=APPLICATION_PROTOCOL_DEFINITION('international standard',
'automotive_design',2010,#2296);
#2296=APPLICATION_CONTEXT(
'core data for automotive mechanical design processes');
ENDSEC;
END-ISO-10303-21;
