ISO-10303-21;
HEADER;
/* Generated by software containing ST-Developer
 * from STEP Tools, Inc. (www.steptools.com) 
 */
/* OPTION: strings as raw bytes, not using required /X/ escapes */

FILE_DESCRIPTION(
/* description */ ('Unknown'),
/* implementation_level */ '2;1');

FILE_NAME(
/* name */ 'Ye_4153707_AVV',
/* time_stamp */ '2025-07-22T00:08:16+02:00',
/* author */ ('Unknown'),
/* organization */ ('Unknown'),
/* preprocessor_version */ 'ST-DEVELOPER v19.4',
/* originating_system */ 'Solid Edge',
/* authorisation */ 'Unknown');

FILE_SCHEMA (('AUTOMOTIVE_DESIGN {1 0 10303 214 3 1 1}'));
ENDSEC;

DATA;
#10=PROPERTY_DEFINITION_REPRESENTATION(#14,#12);
#11=PROPERTY_DEFINITION_REPRESENTATION(#15,#13);
#12=REPRESENTATION('',(#16),#1675);
#13=REPRESENTATION('',(#17),#1675);
#14=PROPERTY_DEFINITION('pmi validation property','',#1680);
#15=PROPERTY_DEFINITION('pmi validation property','',#1680);
#16=VALUE_REPRESENTATION_ITEM('number of annotations',COUNT_MEASURE(0.));
#17=VALUE_REPRESENTATION_ITEM('number of views',COUNT_MEASURE(0.));
#18=SHAPE_REPRESENTATION_RELATIONSHIP('','',#959,#19);
#19=ADVANCED_BREP_SHAPE_REPRESENTATION('',(#957),#1675);
#20=PLANE('',#973);
#21=PLANE('',#976);
#22=PLANE('',#979);
#23=PLANE('',#997);
#24=PLANE('',#1001);
#25=PLANE('',#1002);
#26=PLANE('',#1006);
#27=PLANE('',#1010);
#28=PLANE('',#1011);
#29=PLANE('',#1024);
#30=PLANE('',#1039);
#31=PLANE('',#1043);
#32=PLANE('',#1049);
#33=PLANE('',#1053);
#34=PLANE('',#1058);
#35=PLANE('',#1059);
#36=PLANE('',#1060);
#37=PLANE('',#1065);
#38=PLANE('',#1069);
#39=PLANE('',#1075);
#40=PLANE('',#1078);
#41=PLANE('',#1079);
#42=LINE('',#1405,#98);
#43=LINE('',#1409,#99);
#44=LINE('',#1414,#100);
#45=LINE('',#1418,#101);
#46=LINE('',#1423,#102);
#47=LINE('',#1427,#103);
#48=LINE('',#1432,#104);
#49=LINE('',#1436,#105);
#50=LINE('',#1439,#106);
#51=LINE('',#1441,#107);
#52=LINE('',#1443,#108);
#53=LINE('',#1447,#109);
#54=LINE('',#1454,#110);
#55=LINE('',#1458,#111);
#56=LINE('',#1463,#112);
#57=LINE('',#1467,#113);
#58=LINE('',#1472,#114);
#59=LINE('',#1476,#115);
#60=LINE('',#1481,#116);
#61=LINE('',#1485,#117);
#62=LINE('',#1490,#118);
#63=LINE('',#1491,#119);
#64=LINE('',#1496,#120);
#65=LINE('',#1497,#121);
#66=LINE('',#1503,#122);
#67=LINE('',#1507,#123);
#68=LINE('',#1509,#124);
#69=LINE('',#1512,#125);
#70=LINE('',#1514,#126);
#71=LINE('',#1516,#127);
#72=LINE('',#1521,#128);
#73=LINE('',#1525,#129);
#74=LINE('',#1527,#130);
#75=LINE('',#1530,#131);
#76=LINE('',#1532,#132);
#77=LINE('',#1534,#133);
#78=LINE('',#1552,#134);
#79=LINE('',#1556,#135);
#80=LINE('',#1563,#136);
#81=LINE('',#1572,#137);
#82=LINE('',#1613,#138);
#83=LINE('',#1614,#139);
#84=LINE('',#1616,#140);
#85=LINE('',#1618,#141);
#86=LINE('',#1620,#142);
#87=LINE('',#1622,#143);
#88=LINE('',#1642,#144);
#89=LINE('',#1646,#145);
#90=LINE('',#1648,#146);
#91=LINE('',#1651,#147);
#92=LINE('',#1652,#148);
#93=LINE('',#1657,#149);
#94=LINE('',#1658,#150);
#95=LINE('',#1660,#151);
#96=LINE('',#1663,#152);
#97=LINE('',#1664,#153);
#98=VECTOR('',#1094,1000.);
#99=VECTOR('',#1097,1000.);
#100=VECTOR('',#1102,1000.);
#101=VECTOR('',#1105,1000.);
#102=VECTOR('',#1110,1000.);
#103=VECTOR('',#1113,1000.);
#104=VECTOR('',#1118,1000.);
#105=VECTOR('',#1121,1000.);
#106=VECTOR('',#1126,1000.);
#107=VECTOR('',#1129,1000.);
#108=VECTOR('',#1132,1000.);
#109=VECTOR('',#1139,1000.);
#110=VECTOR('',#1148,1000.);
#111=VECTOR('',#1151,1000.);
#112=VECTOR('',#1156,1000.);
#113=VECTOR('',#1159,1000.);
#114=VECTOR('',#1164,1000.);
#115=VECTOR('',#1167,1000.);
#116=VECTOR('',#1172,1000.);
#117=VECTOR('',#1175,1000.);
#118=VECTOR('',#1184,1000.);
#119=VECTOR('',#1185,1000.);
#120=VECTOR('',#1194,1000.);
#121=VECTOR('',#1195,1000.);
#122=VECTOR('',#1202,1000.);
#123=VECTOR('',#1205,1000.);
#124=VECTOR('',#1208,1000.);
#125=VECTOR('',#1209,1000.);
#126=VECTOR('',#1210,1000.);
#127=VECTOR('',#1211,1000.);
#128=VECTOR('',#1216,1000.);
#129=VECTOR('',#1219,1000.);
#130=VECTOR('',#1222,1000.);
#131=VECTOR('',#1223,1000.);
#132=VECTOR('',#1224,1000.);
#133=VECTOR('',#1225,1000.);
#134=VECTOR('',#1256,1000.);
#135=VECTOR('',#1259,1000.);
#136=VECTOR('',#1266,1000.);
#137=VECTOR('',#1273,1000.);
#138=VECTOR('',#1324,1000.);
#139=VECTOR('',#1325,1000.);
#140=VECTOR('',#1328,1000.);
#141=VECTOR('',#1329,1000.);
#142=VECTOR('',#1332,1000.);
#143=VECTOR('',#1333,1000.);
#144=VECTOR('',#1362,1000.);
#145=VECTOR('',#1365,1000.);
#146=VECTOR('',#1368,1000.);
#147=VECTOR('',#1369,1000.);
#148=VECTOR('',#1370,1000.);
#149=VECTOR('',#1375,1000.);
#150=VECTOR('',#1376,1000.);
#151=VECTOR('',#1379,1000.);
#152=VECTOR('',#1380,1000.);
#153=VECTOR('',#1381,1000.);
#154=ORIENTED_EDGE('',*,*,#406,.T.);
#155=ORIENTED_EDGE('',*,*,#407,.T.);
#156=ORIENTED_EDGE('',*,*,#408,.T.);
#157=ORIENTED_EDGE('',*,*,#409,.T.);
#158=ORIENTED_EDGE('',*,*,#410,.T.);
#159=ORIENTED_EDGE('',*,*,#411,.T.);
#160=ORIENTED_EDGE('',*,*,#412,.T.);
#161=ORIENTED_EDGE('',*,*,#413,.T.);
#162=ORIENTED_EDGE('',*,*,#414,.T.);
#163=ORIENTED_EDGE('',*,*,#415,.T.);
#164=ORIENTED_EDGE('',*,*,#416,.T.);
#165=ORIENTED_EDGE('',*,*,#417,.T.);
#166=ORIENTED_EDGE('',*,*,#418,.T.);
#167=ORIENTED_EDGE('',*,*,#419,.T.);
#168=ORIENTED_EDGE('',*,*,#420,.T.);
#169=ORIENTED_EDGE('',*,*,#421,.T.);
#170=ORIENTED_EDGE('',*,*,#422,.T.);
#171=ORIENTED_EDGE('',*,*,#418,.F.);
#172=ORIENTED_EDGE('',*,*,#423,.T.);
#173=ORIENTED_EDGE('',*,*,#414,.F.);
#174=ORIENTED_EDGE('',*,*,#424,.T.);
#175=ORIENTED_EDGE('',*,*,#410,.F.);
#176=ORIENTED_EDGE('',*,*,#425,.T.);
#177=ORIENTED_EDGE('',*,*,#406,.F.);
#178=ORIENTED_EDGE('',*,*,#425,.F.);
#179=ORIENTED_EDGE('',*,*,#413,.F.);
#180=ORIENTED_EDGE('',*,*,#426,.T.);
#181=ORIENTED_EDGE('',*,*,#407,.F.);
#182=ORIENTED_EDGE('',*,*,#424,.F.);
#183=ORIENTED_EDGE('',*,*,#417,.F.);
#184=ORIENTED_EDGE('',*,*,#427,.T.);
#185=ORIENTED_EDGE('',*,*,#411,.F.);
#186=ORIENTED_EDGE('',*,*,#423,.F.);
#187=ORIENTED_EDGE('',*,*,#421,.F.);
#188=ORIENTED_EDGE('',*,*,#428,.T.);
#189=ORIENTED_EDGE('',*,*,#415,.F.);
#190=ORIENTED_EDGE('',*,*,#429,.T.);
#191=ORIENTED_EDGE('',*,*,#419,.F.);
#192=ORIENTED_EDGE('',*,*,#422,.F.);
#193=ORIENTED_EDGE('',*,*,#409,.F.);
#194=ORIENTED_EDGE('',*,*,#430,.F.);
#195=ORIENTED_EDGE('',*,*,#431,.F.);
#196=ORIENTED_EDGE('',*,*,#432,.F.);
#197=ORIENTED_EDGE('',*,*,#433,.F.);
#198=ORIENTED_EDGE('',*,*,#434,.F.);
#199=ORIENTED_EDGE('',*,*,#435,.F.);
#200=ORIENTED_EDGE('',*,*,#436,.F.);
#201=ORIENTED_EDGE('',*,*,#437,.F.);
#202=ORIENTED_EDGE('',*,*,#438,.F.);
#203=ORIENTED_EDGE('',*,*,#439,.F.);
#204=ORIENTED_EDGE('',*,*,#440,.F.);
#205=ORIENTED_EDGE('',*,*,#441,.F.);
#206=ORIENTED_EDGE('',*,*,#442,.F.);
#207=ORIENTED_EDGE('',*,*,#443,.F.);
#208=ORIENTED_EDGE('',*,*,#444,.F.);
#209=ORIENTED_EDGE('',*,*,#445,.F.);
#210=ORIENTED_EDGE('',*,*,#446,.F.);
#211=ORIENTED_EDGE('',*,*,#443,.T.);
#212=ORIENTED_EDGE('',*,*,#447,.T.);
#213=ORIENTED_EDGE('',*,*,#433,.T.);
#214=ORIENTED_EDGE('',*,*,#448,.T.);
#215=ORIENTED_EDGE('',*,*,#437,.T.);
#216=ORIENTED_EDGE('',*,*,#449,.F.);
#217=ORIENTED_EDGE('',*,*,#431,.T.);
#218=ORIENTED_EDGE('',*,*,#450,.T.);
#219=ORIENTED_EDGE('',*,*,#441,.T.);
#220=ORIENTED_EDGE('',*,*,#451,.F.);
#221=ORIENTED_EDGE('',*,*,#435,.T.);
#222=ORIENTED_EDGE('',*,*,#452,.T.);
#223=ORIENTED_EDGE('',*,*,#445,.T.);
#224=ORIENTED_EDGE('',*,*,#453,.F.);
#225=ORIENTED_EDGE('',*,*,#439,.T.);
#226=ORIENTED_EDGE('',*,*,#447,.F.);
#227=ORIENTED_EDGE('',*,*,#442,.T.);
#228=ORIENTED_EDGE('',*,*,#452,.F.);
#229=ORIENTED_EDGE('',*,*,#438,.T.);
#230=ORIENTED_EDGE('',*,*,#450,.F.);
#231=ORIENTED_EDGE('',*,*,#434,.T.);
#232=ORIENTED_EDGE('',*,*,#448,.F.);
#233=ORIENTED_EDGE('',*,*,#430,.T.);
#234=ORIENTED_EDGE('',*,*,#454,.T.);
#235=ORIENTED_EDGE('',*,*,#455,.F.);
#236=ORIENTED_EDGE('',*,*,#456,.F.);
#237=ORIENTED_EDGE('',*,*,#457,.F.);
#238=ORIENTED_EDGE('',*,*,#458,.F.);
#239=ORIENTED_EDGE('',*,*,#459,.F.);
#240=ORIENTED_EDGE('',*,*,#460,.T.);
#241=ORIENTED_EDGE('',*,*,#461,.F.);
#242=ORIENTED_EDGE('',*,*,#462,.F.);
#243=ORIENTED_EDGE('',*,*,#463,.F.);
#244=ORIENTED_EDGE('',*,*,#464,.T.);
#245=ORIENTED_EDGE('',*,*,#465,.F.);
#246=ORIENTED_EDGE('',*,*,#466,.F.);
#247=ORIENTED_EDGE('',*,*,#467,.F.);
#248=ORIENTED_EDGE('',*,*,#468,.T.);
#249=ORIENTED_EDGE('',*,*,#469,.F.);
#250=ORIENTED_EDGE('',*,*,#456,.T.);
#251=ORIENTED_EDGE('',*,*,#470,.F.);
#252=ORIENTED_EDGE('',*,*,#458,.T.);
#253=ORIENTED_EDGE('',*,*,#471,.F.);
#254=ORIENTED_EDGE('',*,*,#462,.T.);
#255=ORIENTED_EDGE('',*,*,#472,.F.);
#256=ORIENTED_EDGE('',*,*,#466,.T.);
#257=ORIENTED_EDGE('',*,*,#473,.F.);
#258=ORIENTED_EDGE('',*,*,#470,.T.);
#259=ORIENTED_EDGE('',*,*,#455,.T.);
#260=ORIENTED_EDGE('',*,*,#474,.T.);
#261=ORIENTED_EDGE('',*,*,#459,.T.);
#262=ORIENTED_EDGE('',*,*,#471,.T.);
#263=ORIENTED_EDGE('',*,*,#461,.T.);
#264=ORIENTED_EDGE('',*,*,#475,.T.);
#265=ORIENTED_EDGE('',*,*,#463,.T.);
#266=ORIENTED_EDGE('',*,*,#472,.T.);
#267=ORIENTED_EDGE('',*,*,#465,.T.);
#268=ORIENTED_EDGE('',*,*,#476,.T.);
#269=ORIENTED_EDGE('',*,*,#467,.T.);
#270=ORIENTED_EDGE('',*,*,#473,.T.);
#271=ORIENTED_EDGE('',*,*,#469,.T.);
#272=ORIENTED_EDGE('',*,*,#477,.T.);
#273=ORIENTED_EDGE('',*,*,#457,.T.);
#274=ORIENTED_EDGE('',*,*,#453,.T.);
#275=ORIENTED_EDGE('',*,*,#444,.T.);
#276=ORIENTED_EDGE('',*,*,#446,.T.);
#277=ORIENTED_EDGE('',*,*,#432,.T.);
#278=ORIENTED_EDGE('',*,*,#449,.T.);
#279=ORIENTED_EDGE('',*,*,#436,.T.);
#280=ORIENTED_EDGE('',*,*,#451,.T.);
#281=ORIENTED_EDGE('',*,*,#440,.T.);
#282=ORIENTED_EDGE('',*,*,#478,.F.);
#283=ORIENTED_EDGE('',*,*,#479,.F.);
#284=ORIENTED_EDGE('',*,*,#480,.T.);
#285=ORIENTED_EDGE('',*,*,#481,.F.);
#286=ORIENTED_EDGE('',*,*,#482,.T.);
#287=ORIENTED_EDGE('',*,*,#483,.T.);
#288=ORIENTED_EDGE('',*,*,#484,.T.);
#289=ORIENTED_EDGE('',*,*,#485,.T.);
#290=ORIENTED_EDGE('',*,*,#486,.T.);
#291=ORIENTED_EDGE('',*,*,#487,.T.);
#292=ORIENTED_EDGE('',*,*,#488,.T.);
#293=ORIENTED_EDGE('',*,*,#489,.T.);
#294=ORIENTED_EDGE('',*,*,#490,.T.);
#295=ORIENTED_EDGE('',*,*,#491,.T.);
#296=ORIENTED_EDGE('',*,*,#492,.T.);
#297=ORIENTED_EDGE('',*,*,#493,.F.);
#298=ORIENTED_EDGE('',*,*,#494,.T.);
#299=ORIENTED_EDGE('',*,*,#495,.F.);
#300=ORIENTED_EDGE('',*,*,#493,.T.);
#301=ORIENTED_EDGE('',*,*,#496,.F.);
#302=ORIENTED_EDGE('',*,*,#495,.T.);
#303=ORIENTED_EDGE('',*,*,#497,.F.);
#304=ORIENTED_EDGE('',*,*,#496,.T.);
#305=ORIENTED_EDGE('',*,*,#484,.F.);
#306=ORIENTED_EDGE('',*,*,#497,.T.);
#307=ORIENTED_EDGE('',*,*,#498,.F.);
#308=ORIENTED_EDGE('',*,*,#499,.T.);
#309=ORIENTED_EDGE('',*,*,#500,.F.);
#310=ORIENTED_EDGE('',*,*,#498,.T.);
#311=ORIENTED_EDGE('',*,*,#501,.F.);
#312=ORIENTED_EDGE('',*,*,#500,.T.);
#313=ORIENTED_EDGE('',*,*,#502,.F.);
#314=ORIENTED_EDGE('',*,*,#501,.T.);
#315=ORIENTED_EDGE('',*,*,#483,.F.);
#316=ORIENTED_EDGE('',*,*,#502,.T.);
#317=ORIENTED_EDGE('',*,*,#503,.F.);
#318=ORIENTED_EDGE('',*,*,#504,.F.);
#319=ORIENTED_EDGE('',*,*,#478,.T.);
#320=ORIENTED_EDGE('',*,*,#505,.T.);
#321=ORIENTED_EDGE('',*,*,#506,.F.);
#322=ORIENTED_EDGE('',*,*,#505,.F.);
#323=ORIENTED_EDGE('',*,*,#481,.T.);
#324=ORIENTED_EDGE('',*,*,#507,.T.);
#325=ORIENTED_EDGE('',*,*,#508,.F.);
#326=ORIENTED_EDGE('',*,*,#509,.F.);
#327=ORIENTED_EDGE('',*,*,#479,.T.);
#328=ORIENTED_EDGE('',*,*,#504,.T.);
#329=ORIENTED_EDGE('',*,*,#426,.F.);
#330=ORIENTED_EDGE('',*,*,#412,.F.);
#331=ORIENTED_EDGE('',*,*,#427,.F.);
#332=ORIENTED_EDGE('',*,*,#416,.F.);
#333=ORIENTED_EDGE('',*,*,#428,.F.);
#334=ORIENTED_EDGE('',*,*,#420,.F.);
#335=ORIENTED_EDGE('',*,*,#429,.F.);
#336=ORIENTED_EDGE('',*,*,#408,.F.);
#337=ORIENTED_EDGE('',*,*,#468,.F.);
#338=ORIENTED_EDGE('',*,*,#476,.F.);
#339=ORIENTED_EDGE('',*,*,#464,.F.);
#340=ORIENTED_EDGE('',*,*,#475,.F.);
#341=ORIENTED_EDGE('',*,*,#460,.F.);
#342=ORIENTED_EDGE('',*,*,#474,.F.);
#343=ORIENTED_EDGE('',*,*,#454,.F.);
#344=ORIENTED_EDGE('',*,*,#477,.F.);
#345=ORIENTED_EDGE('',*,*,#494,.F.);
#346=ORIENTED_EDGE('',*,*,#499,.F.);
#347=ORIENTED_EDGE('',*,*,#510,.F.);
#348=ORIENTED_EDGE('',*,*,#503,.T.);
#349=ORIENTED_EDGE('',*,*,#506,.T.);
#350=ORIENTED_EDGE('',*,*,#511,.F.);
#351=ORIENTED_EDGE('',*,*,#508,.T.);
#352=ORIENTED_EDGE('',*,*,#512,.F.);
#353=ORIENTED_EDGE('',*,*,#510,.T.);
#354=ORIENTED_EDGE('',*,*,#513,.F.);
#355=ORIENTED_EDGE('',*,*,#512,.T.);
#356=ORIENTED_EDGE('',*,*,#514,.F.);
#357=ORIENTED_EDGE('',*,*,#513,.T.);
#358=ORIENTED_EDGE('',*,*,#515,.F.);
#359=ORIENTED_EDGE('',*,*,#514,.T.);
#360=ORIENTED_EDGE('',*,*,#482,.F.);
#361=ORIENTED_EDGE('',*,*,#515,.T.);
#362=ORIENTED_EDGE('',*,*,#511,.T.);
#363=ORIENTED_EDGE('',*,*,#507,.F.);
#364=ORIENTED_EDGE('',*,*,#480,.F.);
#365=ORIENTED_EDGE('',*,*,#509,.T.);
#366=ORIENTED_EDGE('',*,*,#487,.F.);
#367=ORIENTED_EDGE('',*,*,#516,.T.);
#368=ORIENTED_EDGE('',*,*,#517,.T.);
#369=ORIENTED_EDGE('',*,*,#518,.T.);
#370=ORIENTED_EDGE('',*,*,#519,.T.);
#371=ORIENTED_EDGE('',*,*,#520,.T.);
#372=ORIENTED_EDGE('',*,*,#489,.F.);
#373=ORIENTED_EDGE('',*,*,#521,.T.);
#374=ORIENTED_EDGE('',*,*,#522,.T.);
#375=ORIENTED_EDGE('',*,*,#523,.T.);
#376=ORIENTED_EDGE('',*,*,#491,.F.);
#377=ORIENTED_EDGE('',*,*,#524,.T.);
#378=ORIENTED_EDGE('',*,*,#525,.T.);
#379=ORIENTED_EDGE('',*,*,#526,.T.);
#380=ORIENTED_EDGE('',*,*,#485,.F.);
#381=ORIENTED_EDGE('',*,*,#527,.T.);
#382=ORIENTED_EDGE('',*,*,#517,.F.);
#383=ORIENTED_EDGE('',*,*,#528,.T.);
#384=ORIENTED_EDGE('',*,*,#525,.F.);
#385=ORIENTED_EDGE('',*,*,#529,.T.);
#386=ORIENTED_EDGE('',*,*,#522,.F.);
#387=ORIENTED_EDGE('',*,*,#530,.T.);
#388=ORIENTED_EDGE('',*,*,#519,.F.);
#389=ORIENTED_EDGE('',*,*,#531,.T.);
#390=ORIENTED_EDGE('',*,*,#531,.F.);
#391=ORIENTED_EDGE('',*,*,#521,.F.);
#392=ORIENTED_EDGE('',*,*,#488,.F.);
#393=ORIENTED_EDGE('',*,*,#518,.F.);
#394=ORIENTED_EDGE('',*,*,#530,.F.);
#395=ORIENTED_EDGE('',*,*,#524,.F.);
#396=ORIENTED_EDGE('',*,*,#490,.F.);
#397=ORIENTED_EDGE('',*,*,#520,.F.);
#398=ORIENTED_EDGE('',*,*,#529,.F.);
#399=ORIENTED_EDGE('',*,*,#527,.F.);
#400=ORIENTED_EDGE('',*,*,#492,.F.);
#401=ORIENTED_EDGE('',*,*,#523,.F.);
#402=ORIENTED_EDGE('',*,*,#528,.F.);
#403=ORIENTED_EDGE('',*,*,#516,.F.);
#404=ORIENTED_EDGE('',*,*,#486,.F.);
#405=ORIENTED_EDGE('',*,*,#526,.F.);
#406=EDGE_CURVE('',#532,#533,#622,.T.);
#407=EDGE_CURVE('',#533,#534,#42,.F.);
#408=EDGE_CURVE('',#534,#535,#623,.T.);
#409=EDGE_CURVE('',#535,#532,#43,.F.);
#410=EDGE_CURVE('',#536,#537,#624,.T.);
#411=EDGE_CURVE('',#537,#538,#44,.T.);
#412=EDGE_CURVE('',#538,#539,#625,.T.);
#413=EDGE_CURVE('',#539,#536,#45,.T.);
#414=EDGE_CURVE('',#540,#541,#626,.T.);
#415=EDGE_CURVE('',#541,#542,#46,.F.);
#416=EDGE_CURVE('',#542,#543,#627,.T.);
#417=EDGE_CURVE('',#543,#540,#47,.F.);
#418=EDGE_CURVE('',#544,#545,#628,.T.);
#419=EDGE_CURVE('',#545,#546,#48,.T.);
#420=EDGE_CURVE('',#546,#547,#629,.T.);
#421=EDGE_CURVE('',#547,#544,#49,.T.);
#422=EDGE_CURVE('',#532,#545,#630,.T.);
#423=EDGE_CURVE('',#544,#541,#50,.T.);
#424=EDGE_CURVE('',#540,#537,#631,.T.);
#425=EDGE_CURVE('',#536,#533,#51,.T.);
#426=EDGE_CURVE('',#539,#534,#52,.T.);
#427=EDGE_CURVE('',#543,#538,#632,.T.);
#428=EDGE_CURVE('',#547,#542,#53,.T.);
#429=EDGE_CURVE('',#535,#546,#633,.T.);
#430=EDGE_CURVE('',#548,#549,#634,.T.);
#431=EDGE_CURVE('',#550,#548,#54,.T.);
#432=EDGE_CURVE('',#551,#550,#635,.T.);
#433=EDGE_CURVE('',#549,#551,#55,.T.);
#434=EDGE_CURVE('',#552,#553,#636,.T.);
#435=EDGE_CURVE('',#554,#552,#56,.F.);
#436=EDGE_CURVE('',#555,#554,#637,.T.);
#437=EDGE_CURVE('',#553,#555,#57,.F.);
#438=EDGE_CURVE('',#556,#557,#638,.T.);
#439=EDGE_CURVE('',#558,#556,#58,.T.);
#440=EDGE_CURVE('',#559,#558,#639,.T.);
#441=EDGE_CURVE('',#557,#559,#59,.T.);
#442=EDGE_CURVE('',#560,#561,#640,.T.);
#443=EDGE_CURVE('',#562,#560,#60,.F.);
#444=EDGE_CURVE('',#563,#562,#641,.T.);
#445=EDGE_CURVE('',#561,#563,#61,.F.);
#446=EDGE_CURVE('',#562,#551,#642,.T.);
#447=EDGE_CURVE('',#560,#549,#643,.T.);
#448=EDGE_CURVE('',#548,#553,#62,.T.);
#449=EDGE_CURVE('',#550,#555,#63,.T.);
#450=EDGE_CURVE('',#552,#557,#644,.T.);
#451=EDGE_CURVE('',#554,#559,#645,.T.);
#452=EDGE_CURVE('',#556,#561,#64,.T.);
#453=EDGE_CURVE('',#558,#563,#65,.T.);
#454=EDGE_CURVE('',#564,#565,#646,.T.);
#455=EDGE_CURVE('',#566,#565,#66,.T.);
#456=EDGE_CURVE('',#567,#566,#647,.T.);
#457=EDGE_CURVE('',#564,#567,#67,.F.);
#458=EDGE_CURVE('',#568,#569,#68,.T.);
#459=EDGE_CURVE('',#570,#568,#69,.T.);
#460=EDGE_CURVE('',#570,#571,#70,.T.);
#461=EDGE_CURVE('',#569,#571,#71,.F.);
#462=EDGE_CURVE('',#572,#573,#648,.T.);
#463=EDGE_CURVE('',#574,#572,#72,.F.);
#464=EDGE_CURVE('',#574,#575,#649,.T.);
#465=EDGE_CURVE('',#573,#575,#73,.T.);
#466=EDGE_CURVE('',#576,#577,#74,.T.);
#467=EDGE_CURVE('',#578,#576,#75,.T.);
#468=EDGE_CURVE('',#578,#579,#76,.T.);
#469=EDGE_CURVE('',#577,#579,#77,.F.);
#470=EDGE_CURVE('',#568,#566,#650,.T.);
#471=EDGE_CURVE('',#572,#569,#651,.T.);
#472=EDGE_CURVE('',#576,#573,#652,.T.);
#473=EDGE_CURVE('',#567,#577,#653,.T.);
#474=EDGE_CURVE('',#565,#570,#654,.T.);
#475=EDGE_CURVE('',#571,#574,#655,.T.);
#476=EDGE_CURVE('',#575,#578,#656,.T.);
#477=EDGE_CURVE('',#579,#564,#657,.T.);
#478=EDGE_CURVE('',#580,#581,#658,.T.);
#479=EDGE_CURVE('',#582,#580,#78,.T.);
#480=EDGE_CURVE('',#582,#583,#659,.T.);
#481=EDGE_CURVE('',#581,#583,#79,.T.);
#482=EDGE_CURVE('',#584,#584,#660,.T.);
#483=EDGE_CURVE('',#585,#585,#661,.T.);
#484=EDGE_CURVE('',#586,#586,#662,.T.);
#485=EDGE_CURVE('',#587,#588,#80,.T.);
#486=EDGE_CURVE('',#588,#589,#663,.T.);
#487=EDGE_CURVE('',#589,#590,#664,.T.);
#488=EDGE_CURVE('',#590,#591,#665,.T.);
#489=EDGE_CURVE('',#591,#592,#81,.T.);
#490=EDGE_CURVE('',#592,#593,#666,.T.);
#491=EDGE_CURVE('',#593,#594,#667,.T.);
#492=EDGE_CURVE('',#594,#587,#668,.T.);
#493=EDGE_CURVE('',#595,#595,#669,.T.);
#494=EDGE_CURVE('',#596,#596,#670,.T.);
#495=EDGE_CURVE('',#597,#597,#671,.T.);
#496=EDGE_CURVE('',#598,#598,#672,.T.);
#497=EDGE_CURVE('',#599,#599,#673,.T.);
#498=EDGE_CURVE('',#600,#600,#674,.T.);
#499=EDGE_CURVE('',#601,#601,#675,.T.);
#500=EDGE_CURVE('',#602,#602,#676,.T.);
#501=EDGE_CURVE('',#603,#603,#677,.T.);
#502=EDGE_CURVE('',#604,#604,#678,.T.);
#503=EDGE_CURVE('',#605,#606,#679,.T.);
#504=EDGE_CURVE('',#580,#605,#82,.T.);
#505=EDGE_CURVE('',#581,#606,#83,.T.);
#506=EDGE_CURVE('',#606,#607,#84,.T.);
#507=EDGE_CURVE('',#583,#607,#85,.T.);
#508=EDGE_CURVE('',#608,#605,#86,.T.);
#509=EDGE_CURVE('',#582,#608,#87,.T.);
#510=EDGE_CURVE('',#609,#609,#680,.T.);
#511=EDGE_CURVE('',#608,#607,#681,.T.);
#512=EDGE_CURVE('',#610,#610,#682,.T.);
#513=EDGE_CURVE('',#611,#611,#683,.T.);
#514=EDGE_CURVE('',#612,#612,#684,.T.);
#515=EDGE_CURVE('',#613,#613,#685,.T.);
#516=EDGE_CURVE('',#589,#614,#88,.F.);
#517=EDGE_CURVE('',#614,#615,#686,.T.);
#518=EDGE_CURVE('',#615,#590,#89,.T.);
#519=EDGE_CURVE('',#616,#617,#90,.T.);
#520=EDGE_CURVE('',#617,#592,#91,.F.);
#521=EDGE_CURVE('',#591,#616,#92,.T.);
#522=EDGE_CURVE('',#618,#619,#687,.T.);
#523=EDGE_CURVE('',#619,#594,#93,.T.);
#524=EDGE_CURVE('',#593,#618,#94,.F.);
#525=EDGE_CURVE('',#620,#621,#95,.T.);
#526=EDGE_CURVE('',#621,#588,#96,.F.);
#527=EDGE_CURVE('',#587,#620,#97,.T.);
#528=EDGE_CURVE('',#614,#621,#688,.T.);
#529=EDGE_CURVE('',#620,#619,#689,.T.);
#530=EDGE_CURVE('',#618,#617,#690,.T.);
#531=EDGE_CURVE('',#616,#615,#691,.T.);
#532=VERTEX_POINT('',#1403);
#533=VERTEX_POINT('',#1404);
#534=VERTEX_POINT('',#1406);
#535=VERTEX_POINT('',#1408);
#536=VERTEX_POINT('',#1412);
#537=VERTEX_POINT('',#1413);
#538=VERTEX_POINT('',#1415);
#539=VERTEX_POINT('',#1417);
#540=VERTEX_POINT('',#1421);
#541=VERTEX_POINT('',#1422);
#542=VERTEX_POINT('',#1424);
#543=VERTEX_POINT('',#1426);
#544=VERTEX_POINT('',#1430);
#545=VERTEX_POINT('',#1431);
#546=VERTEX_POINT('',#1433);
#547=VERTEX_POINT('',#1435);
#548=VERTEX_POINT('',#1452);
#549=VERTEX_POINT('',#1453);
#550=VERTEX_POINT('',#1455);
#551=VERTEX_POINT('',#1457);
#552=VERTEX_POINT('',#1461);
#553=VERTEX_POINT('',#1462);
#554=VERTEX_POINT('',#1464);
#555=VERTEX_POINT('',#1466);
#556=VERTEX_POINT('',#1470);
#557=VERTEX_POINT('',#1471);
#558=VERTEX_POINT('',#1473);
#559=VERTEX_POINT('',#1475);
#560=VERTEX_POINT('',#1479);
#561=VERTEX_POINT('',#1480);
#562=VERTEX_POINT('',#1482);
#563=VERTEX_POINT('',#1484);
#564=VERTEX_POINT('',#1501);
#565=VERTEX_POINT('',#1502);
#566=VERTEX_POINT('',#1504);
#567=VERTEX_POINT('',#1506);
#568=VERTEX_POINT('',#1510);
#569=VERTEX_POINT('',#1511);
#570=VERTEX_POINT('',#1513);
#571=VERTEX_POINT('',#1515);
#572=VERTEX_POINT('',#1519);
#573=VERTEX_POINT('',#1520);
#574=VERTEX_POINT('',#1522);
#575=VERTEX_POINT('',#1524);
#576=VERTEX_POINT('',#1528);
#577=VERTEX_POINT('',#1529);
#578=VERTEX_POINT('',#1531);
#579=VERTEX_POINT('',#1533);
#580=VERTEX_POINT('',#1550);
#581=VERTEX_POINT('',#1551);
#582=VERTEX_POINT('',#1553);
#583=VERTEX_POINT('',#1555);
#584=VERTEX_POINT('',#1558);
#585=VERTEX_POINT('',#1560);
#586=VERTEX_POINT('',#1562);
#587=VERTEX_POINT('',#1564);
#588=VERTEX_POINT('',#1565);
#589=VERTEX_POINT('',#1567);
#590=VERTEX_POINT('',#1569);
#591=VERTEX_POINT('',#1571);
#592=VERTEX_POINT('',#1573);
#593=VERTEX_POINT('',#1575);
#594=VERTEX_POINT('',#1577);
#595=VERTEX_POINT('',#1581);
#596=VERTEX_POINT('',#1583);
#597=VERTEX_POINT('',#1586);
#598=VERTEX_POINT('',#1589);
#599=VERTEX_POINT('',#1592);
#600=VERTEX_POINT('',#1596);
#601=VERTEX_POINT('',#1598);
#602=VERTEX_POINT('',#1601);
#603=VERTEX_POINT('',#1604);
#604=VERTEX_POINT('',#1607);
#605=VERTEX_POINT('',#1611);
#606=VERTEX_POINT('',#1612);
#607=VERTEX_POINT('',#1617);
#608=VERTEX_POINT('',#1621);
#609=VERTEX_POINT('',#1625);
#610=VERTEX_POINT('',#1629);
#611=VERTEX_POINT('',#1632);
#612=VERTEX_POINT('',#1635);
#613=VERTEX_POINT('',#1638);
#614=VERTEX_POINT('',#1643);
#615=VERTEX_POINT('',#1645);
#616=VERTEX_POINT('',#1649);
#617=VERTEX_POINT('',#1650);
#618=VERTEX_POINT('',#1655);
#619=VERTEX_POINT('',#1656);
#620=VERTEX_POINT('',#1661);
#621=VERTEX_POINT('',#1662);
#622=CIRCLE('',#962,0.5);
#623=CIRCLE('',#963,0.5);
#624=CIRCLE('',#965,0.5);
#625=CIRCLE('',#966,0.5);
#626=CIRCLE('',#968,0.5);
#627=CIRCLE('',#969,0.5);
#628=CIRCLE('',#971,0.5);
#629=CIRCLE('',#972,0.5);
#630=CIRCLE('',#974,3.6);
#631=CIRCLE('',#975,3.6);
#632=CIRCLE('',#978,3.6);
#633=CIRCLE('',#981,3.6);
#634=CIRCLE('',#983,0.5);
#635=CIRCLE('',#984,0.5);
#636=CIRCLE('',#986,0.5);
#637=CIRCLE('',#987,0.5);
#638=CIRCLE('',#989,0.5);
#639=CIRCLE('',#990,0.5);
#640=CIRCLE('',#992,0.5);
#641=CIRCLE('',#993,0.5);
#642=CIRCLE('',#995,3.6);
#643=CIRCLE('',#996,3.6);
#644=CIRCLE('',#999,3.6);
#645=CIRCLE('',#1000,3.6);
#646=CIRCLE('',#1004,3.6);
#647=CIRCLE('',#1005,3.6);
#648=CIRCLE('',#1008,3.6);
#649=CIRCLE('',#1009,3.6);
#650=CIRCLE('',#1012,0.5);
#651=CIRCLE('',#1013,0.5);
#652=CIRCLE('',#1014,0.5);
#653=CIRCLE('',#1015,0.5);
#654=CIRCLE('',#1017,0.5);
#655=CIRCLE('',#1019,0.5);
#656=CIRCLE('',#1021,0.5);
#657=CIRCLE('',#1023,0.5);
#658=CIRCLE('',#1025,3.6);
#659=CIRCLE('',#1026,3.6);
#660=CIRCLE('',#1027,3.09999999999998);
#661=CIRCLE('',#1028,3.09999999999998);
#662=CIRCLE('',#1029,3.09999999999998);
#663=CIRCLE('',#1030,0.5);
#664=CIRCLE('',#1031,3.6);
#665=CIRCLE('',#1032,0.5);
#666=CIRCLE('',#1033,0.5);
#667=CIRCLE('',#1034,3.6);
#668=CIRCLE('',#1035,0.5);
#669=CIRCLE('',#1037,3.09999999999998);
#670=CIRCLE('',#1038,3.09999999999998);
#671=CIRCLE('',#1040,2.4);
#672=CIRCLE('',#1042,2.4);
#673=CIRCLE('',#1044,3.09999999999998);
#674=CIRCLE('',#1047,3.09999999999998);
#675=CIRCLE('',#1048,3.09999999999998);
#676=CIRCLE('',#1050,2.4);
#677=CIRCLE('',#1052,2.4);
#678=CIRCLE('',#1054,3.09999999999998);
#679=CIRCLE('',#1057,3.6);
#680=CIRCLE('',#1061,3.09999999999998);
#681=CIRCLE('',#1062,3.6);
#682=CIRCLE('',#1064,3.09999999999998);
#683=CIRCLE('',#1066,2.4);
#684=CIRCLE('',#1068,2.4);
#685=CIRCLE('',#1070,3.09999999999998);
#686=CIRCLE('',#1074,3.6);
#687=CIRCLE('',#1077,3.6);
#688=CIRCLE('',#1080,0.5);
#689=CIRCLE('',#1081,0.5);
#690=CIRCLE('',#1082,0.5);
#691=CIRCLE('',#1083,0.5);
#692=EDGE_LOOP('',(#154,#155,#156,#157));
#693=EDGE_LOOP('',(#158,#159,#160,#161));
#694=EDGE_LOOP('',(#162,#163,#164,#165));
#695=EDGE_LOOP('',(#166,#167,#168,#169));
#696=EDGE_LOOP('',(#170,#171,#172,#173,#174,#175,#176,#177));
#697=EDGE_LOOP('',(#178,#179,#180,#181));
#698=EDGE_LOOP('',(#182,#183,#184,#185));
#699=EDGE_LOOP('',(#186,#187,#188,#189));
#700=EDGE_LOOP('',(#190,#191,#192,#193));
#701=EDGE_LOOP('',(#194,#195,#196,#197));
#702=EDGE_LOOP('',(#198,#199,#200,#201));
#703=EDGE_LOOP('',(#202,#203,#204,#205));
#704=EDGE_LOOP('',(#206,#207,#208,#209));
#705=EDGE_LOOP('',(#210,#211,#212,#213));
#706=EDGE_LOOP('',(#214,#215,#216,#217));
#707=EDGE_LOOP('',(#218,#219,#220,#221));
#708=EDGE_LOOP('',(#222,#223,#224,#225));
#709=EDGE_LOOP('',(#226,#227,#228,#229,#230,#231,#232,#233));
#710=EDGE_LOOP('',(#234,#235,#236,#237));
#711=EDGE_LOOP('',(#238,#239,#240,#241));
#712=EDGE_LOOP('',(#242,#243,#244,#245));
#713=EDGE_LOOP('',(#246,#247,#248,#249));
#714=EDGE_LOOP('',(#250,#251,#252,#253,#254,#255,#256,#257));
#715=EDGE_LOOP('',(#258,#259,#260,#261));
#716=EDGE_LOOP('',(#262,#263,#264,#265));
#717=EDGE_LOOP('',(#266,#267,#268,#269));
#718=EDGE_LOOP('',(#270,#271,#272,#273));
#719=EDGE_LOOP('',(#274,#275,#276,#277,#278,#279,#280,#281));
#720=EDGE_LOOP('',(#282,#283,#284,#285));
#721=EDGE_LOOP('',(#286));
#722=EDGE_LOOP('',(#287));
#723=EDGE_LOOP('',(#288));
#724=EDGE_LOOP('',(#289,#290,#291,#292,#293,#294,#295,#296));
#725=EDGE_LOOP('',(#297));
#726=EDGE_LOOP('',(#298));
#727=EDGE_LOOP('',(#299));
#728=EDGE_LOOP('',(#300));
#729=EDGE_LOOP('',(#301));
#730=EDGE_LOOP('',(#302));
#731=EDGE_LOOP('',(#303));
#732=EDGE_LOOP('',(#304));
#733=EDGE_LOOP('',(#305));
#734=EDGE_LOOP('',(#306));
#735=EDGE_LOOP('',(#307));
#736=EDGE_LOOP('',(#308));
#737=EDGE_LOOP('',(#309));
#738=EDGE_LOOP('',(#310));
#739=EDGE_LOOP('',(#311));
#740=EDGE_LOOP('',(#312));
#741=EDGE_LOOP('',(#313));
#742=EDGE_LOOP('',(#314));
#743=EDGE_LOOP('',(#315));
#744=EDGE_LOOP('',(#316));
#745=EDGE_LOOP('',(#317,#318,#319,#320));
#746=EDGE_LOOP('',(#321,#322,#323,#324));
#747=EDGE_LOOP('',(#325,#326,#327,#328));
#748=EDGE_LOOP('',(#329,#330,#331,#332,#333,#334,#335,#336));
#749=EDGE_LOOP('',(#337,#338,#339,#340,#341,#342,#343,#344));
#750=EDGE_LOOP('',(#345));
#751=EDGE_LOOP('',(#346));
#752=EDGE_LOOP('',(#347));
#753=EDGE_LOOP('',(#348,#349,#350,#351));
#754=EDGE_LOOP('',(#352));
#755=EDGE_LOOP('',(#353));
#756=EDGE_LOOP('',(#354));
#757=EDGE_LOOP('',(#355));
#758=EDGE_LOOP('',(#356));
#759=EDGE_LOOP('',(#357));
#760=EDGE_LOOP('',(#358));
#761=EDGE_LOOP('',(#359));
#762=EDGE_LOOP('',(#360));
#763=EDGE_LOOP('',(#361));
#764=EDGE_LOOP('',(#362,#363,#364,#365));
#765=EDGE_LOOP('',(#366,#367,#368,#369));
#766=EDGE_LOOP('',(#370,#371,#372,#373));
#767=EDGE_LOOP('',(#374,#375,#376,#377));
#768=EDGE_LOOP('',(#378,#379,#380,#381));
#769=EDGE_LOOP('',(#382,#383,#384,#385,#386,#387,#388,#389));
#770=EDGE_LOOP('',(#390,#391,#392,#393));
#771=EDGE_LOOP('',(#394,#395,#396,#397));
#772=EDGE_LOOP('',(#398,#399,#400,#401));
#773=EDGE_LOOP('',(#402,#403,#404,#405));
#774=FACE_BOUND('',#692,.T.);
#775=FACE_BOUND('',#693,.T.);
#776=FACE_BOUND('',#694,.T.);
#777=FACE_BOUND('',#695,.T.);
#778=FACE_BOUND('',#696,.T.);
#779=FACE_BOUND('',#697,.T.);
#780=FACE_BOUND('',#698,.T.);
#781=FACE_BOUND('',#699,.T.);
#782=FACE_BOUND('',#700,.T.);
#783=FACE_BOUND('',#701,.T.);
#784=FACE_BOUND('',#702,.T.);
#785=FACE_BOUND('',#703,.T.);
#786=FACE_BOUND('',#704,.T.);
#787=FACE_BOUND('',#705,.T.);
#788=FACE_BOUND('',#706,.T.);
#789=FACE_BOUND('',#707,.T.);
#790=FACE_BOUND('',#708,.T.);
#791=FACE_BOUND('',#709,.T.);
#792=FACE_BOUND('',#710,.T.);
#793=FACE_BOUND('',#711,.T.);
#794=FACE_BOUND('',#712,.T.);
#795=FACE_BOUND('',#713,.T.);
#796=FACE_BOUND('',#714,.T.);
#797=FACE_BOUND('',#715,.T.);
#798=FACE_BOUND('',#716,.T.);
#799=FACE_BOUND('',#717,.T.);
#800=FACE_BOUND('',#718,.T.);
#801=FACE_BOUND('',#719,.T.);
#802=FACE_BOUND('',#720,.T.);
#803=FACE_BOUND('',#721,.T.);
#804=FACE_BOUND('',#722,.T.);
#805=FACE_BOUND('',#723,.T.);
#806=FACE_BOUND('',#724,.T.);
#807=FACE_BOUND('',#725,.T.);
#808=FACE_BOUND('',#726,.T.);
#809=FACE_BOUND('',#727,.T.);
#810=FACE_BOUND('',#728,.T.);
#811=FACE_BOUND('',#729,.T.);
#812=FACE_BOUND('',#730,.T.);
#813=FACE_BOUND('',#731,.T.);
#814=FACE_BOUND('',#732,.T.);
#815=FACE_BOUND('',#733,.T.);
#816=FACE_BOUND('',#734,.T.);
#817=FACE_BOUND('',#735,.T.);
#818=FACE_BOUND('',#736,.T.);
#819=FACE_BOUND('',#737,.T.);
#820=FACE_BOUND('',#738,.T.);
#821=FACE_BOUND('',#739,.T.);
#822=FACE_BOUND('',#740,.T.);
#823=FACE_BOUND('',#741,.T.);
#824=FACE_BOUND('',#742,.T.);
#825=FACE_BOUND('',#743,.T.);
#826=FACE_BOUND('',#744,.T.);
#827=FACE_BOUND('',#745,.T.);
#828=FACE_BOUND('',#746,.T.);
#829=FACE_BOUND('',#747,.T.);
#830=FACE_BOUND('',#748,.T.);
#831=FACE_BOUND('',#749,.T.);
#832=FACE_BOUND('',#750,.T.);
#833=FACE_BOUND('',#751,.T.);
#834=FACE_BOUND('',#752,.T.);
#835=FACE_BOUND('',#753,.T.);
#836=FACE_BOUND('',#754,.T.);
#837=FACE_BOUND('',#755,.T.);
#838=FACE_BOUND('',#756,.T.);
#839=FACE_BOUND('',#757,.T.);
#840=FACE_BOUND('',#758,.T.);
#841=FACE_BOUND('',#759,.T.);
#842=FACE_BOUND('',#760,.T.);
#843=FACE_BOUND('',#761,.T.);
#844=FACE_BOUND('',#762,.T.);
#845=FACE_BOUND('',#763,.T.);
#846=FACE_BOUND('',#764,.T.);
#847=FACE_BOUND('',#765,.T.);
#848=FACE_BOUND('',#766,.T.);
#849=FACE_BOUND('',#767,.T.);
#850=FACE_BOUND('',#768,.T.);
#851=FACE_BOUND('',#769,.T.);
#852=FACE_BOUND('',#770,.T.);
#853=FACE_BOUND('',#771,.T.);
#854=FACE_BOUND('',#772,.T.);
#855=FACE_BOUND('',#773,.T.);
#856=CYLINDRICAL_SURFACE('',#961,0.5);
#857=CYLINDRICAL_SURFACE('',#964,0.5);
#858=CYLINDRICAL_SURFACE('',#967,0.5);
#859=CYLINDRICAL_SURFACE('',#970,0.5);
#860=CYLINDRICAL_SURFACE('',#977,3.6);
#861=CYLINDRICAL_SURFACE('',#980,3.6);
#862=CYLINDRICAL_SURFACE('',#982,0.5);
#863=CYLINDRICAL_SURFACE('',#985,0.5);
#864=CYLINDRICAL_SURFACE('',#988,0.5);
#865=CYLINDRICAL_SURFACE('',#991,0.5);
#866=CYLINDRICAL_SURFACE('',#994,3.6);
#867=CYLINDRICAL_SURFACE('',#998,3.6);
#868=CYLINDRICAL_SURFACE('',#1003,3.6);
#869=CYLINDRICAL_SURFACE('',#1007,3.6);
#870=CYLINDRICAL_SURFACE('',#1016,0.5);
#871=CYLINDRICAL_SURFACE('',#1018,0.5);
#872=CYLINDRICAL_SURFACE('',#1020,0.5);
#873=CYLINDRICAL_SURFACE('',#1022,0.5);
#874=CYLINDRICAL_SURFACE('',#1036,3.09999999999998);
#875=CYLINDRICAL_SURFACE('',#1041,2.4);
#876=CYLINDRICAL_SURFACE('',#1045,3.09999999999998);
#877=CYLINDRICAL_SURFACE('',#1046,3.09999999999998);
#878=CYLINDRICAL_SURFACE('',#1051,2.4);
#879=CYLINDRICAL_SURFACE('',#1055,3.09999999999998);
#880=CYLINDRICAL_SURFACE('',#1056,3.6);
#881=CYLINDRICAL_SURFACE('',#1063,3.09999999999998);
#882=CYLINDRICAL_SURFACE('',#1067,2.4);
#883=CYLINDRICAL_SURFACE('',#1071,3.09999999999998);
#884=CYLINDRICAL_SURFACE('',#1072,3.6);
#885=CYLINDRICAL_SURFACE('',#1073,3.6);
#886=CYLINDRICAL_SURFACE('',#1076,3.6);
#887=CYLINDRICAL_SURFACE('',#1084,0.5);
#888=CYLINDRICAL_SURFACE('',#1085,0.5);
#889=CYLINDRICAL_SURFACE('',#1086,0.5);
#890=CYLINDRICAL_SURFACE('',#1087,0.5);
#891=ADVANCED_FACE('',(#774),#856,.F.);
#892=ADVANCED_FACE('',(#775),#857,.F.);
#893=ADVANCED_FACE('',(#776),#858,.F.);
#894=ADVANCED_FACE('',(#777),#859,.F.);
#895=ADVANCED_FACE('',(#778),#20,.T.);
#896=ADVANCED_FACE('',(#779),#21,.T.);
#897=ADVANCED_FACE('',(#780),#860,.T.);
#898=ADVANCED_FACE('',(#781),#22,.T.);
#899=ADVANCED_FACE('',(#782),#861,.T.);
#900=ADVANCED_FACE('',(#783),#862,.F.);
#901=ADVANCED_FACE('',(#784),#863,.F.);
#902=ADVANCED_FACE('',(#785),#864,.F.);
#903=ADVANCED_FACE('',(#786),#865,.F.);
#904=ADVANCED_FACE('',(#787),#866,.T.);
#905=ADVANCED_FACE('',(#788),#23,.T.);
#906=ADVANCED_FACE('',(#789),#867,.T.);
#907=ADVANCED_FACE('',(#790),#24,.T.);
#908=ADVANCED_FACE('',(#791),#25,.T.);
#909=ADVANCED_FACE('',(#792),#868,.T.);
#910=ADVANCED_FACE('',(#793),#26,.T.);
#911=ADVANCED_FACE('',(#794),#869,.T.);
#912=ADVANCED_FACE('',(#795),#27,.T.);
#913=ADVANCED_FACE('',(#796),#28,.T.);
#914=ADVANCED_FACE('',(#797),#870,.F.);
#915=ADVANCED_FACE('',(#798),#871,.F.);
#916=ADVANCED_FACE('',(#799),#872,.F.);
#917=ADVANCED_FACE('',(#800),#873,.F.);
#918=ADVANCED_FACE('',(#801,#802,#803,#804,#805,#806),#29,.F.);
#919=ADVANCED_FACE('',(#807,#808),#874,.F.);
#920=ADVANCED_FACE('',(#809,#810),#30,.F.);
#921=ADVANCED_FACE('',(#811,#812),#875,.F.);
#922=ADVANCED_FACE('',(#813,#814),#31,.F.);
#923=ADVANCED_FACE('',(#815,#816),#876,.F.);
#924=ADVANCED_FACE('',(#817,#818),#877,.F.);
#925=ADVANCED_FACE('',(#819,#820),#32,.F.);
#926=ADVANCED_FACE('',(#821,#822),#878,.F.);
#927=ADVANCED_FACE('',(#823,#824),#33,.F.);
#928=ADVANCED_FACE('',(#825,#826),#879,.F.);
#929=ADVANCED_FACE('',(#827),#880,.T.);
#930=ADVANCED_FACE('',(#828),#34,.T.);
#931=ADVANCED_FACE('',(#829),#35,.T.);
#932=ADVANCED_FACE('',(#830,#831,#832,#833,#834,#835),#36,.T.);
#933=ADVANCED_FACE('',(#836,#837),#881,.F.);
#934=ADVANCED_FACE('',(#838,#839),#37,.F.);
#935=ADVANCED_FACE('',(#840,#841),#882,.F.);
#936=ADVANCED_FACE('',(#842,#843),#38,.F.);
#937=ADVANCED_FACE('',(#844,#845),#883,.F.);
#938=ADVANCED_FACE('',(#846),#884,.T.);
#939=ADVANCED_FACE('',(#847),#885,.T.);
#940=ADVANCED_FACE('',(#848),#39,.T.);
#941=ADVANCED_FACE('',(#849),#886,.T.);
#942=ADVANCED_FACE('',(#850),#40,.T.);
#943=ADVANCED_FACE('',(#851),#41,.T.);
#944=ADVANCED_FACE('',(#852),#887,.F.);
#945=ADVANCED_FACE('',(#853),#888,.F.);
#946=ADVANCED_FACE('',(#854),#889,.F.);
#947=ADVANCED_FACE('',(#855),#890,.F.);
#948=CLOSED_SHELL('',(#891,#892,#893,#894,#895,#896,#897,#898,#899,#900,
#901,#902,#903,#904,#905,#906,#907,#908,#909,#910,#911,#912,#913,#914,#915,
#916,#917,#918,#919,#920,#921,#922,#923,#924,#925,#926,#927,#928,#929,#930,
#931,#932,#933,#934,#935,#936,#937,#938,#939,#940,#941,#942,#943,#944,#945,
#946,#947));
#949=STYLED_ITEM('',(#950),#957);
#950=PRESENTATION_STYLE_ASSIGNMENT((#951));
#951=SURFACE_STYLE_USAGE(.BOTH.,#952);
#952=SURFACE_SIDE_STYLE('',(#953));
#953=SURFACE_STYLE_FILL_AREA(#954);
#954=FILL_AREA_STYLE('',(#955));
#955=FILL_AREA_STYLE_COLOUR('',#956);
#956=COLOUR_RGB('',0.800000011920929,0.760330617427826,0.);
#957=MANIFOLD_SOLID_BREP('',#948);
#958=SHAPE_DEFINITION_REPRESENTATION(#1680,#959);
#959=SHAPE_REPRESENTATION('Ye_4153707_AVV',(#960),#1675);
#960=AXIS2_PLACEMENT_3D('',#1400,#1088,#1089);
#961=AXIS2_PLACEMENT_3D('',#1401,#1090,#1091);
#962=AXIS2_PLACEMENT_3D('',#1402,#1092,#1093);
#963=AXIS2_PLACEMENT_3D('',#1407,#1095,#1096);
#964=AXIS2_PLACEMENT_3D('',#1410,#1098,#1099);
#965=AXIS2_PLACEMENT_3D('',#1411,#1100,#1101);
#966=AXIS2_PLACEMENT_3D('',#1416,#1103,#1104);
#967=AXIS2_PLACEMENT_3D('',#1419,#1106,#1107);
#968=AXIS2_PLACEMENT_3D('',#1420,#1108,#1109);
#969=AXIS2_PLACEMENT_3D('',#1425,#1111,#1112);
#970=AXIS2_PLACEMENT_3D('',#1428,#1114,#1115);
#971=AXIS2_PLACEMENT_3D('',#1429,#1116,#1117);
#972=AXIS2_PLACEMENT_3D('',#1434,#1119,#1120);
#973=AXIS2_PLACEMENT_3D('',#1437,#1122,#1123);
#974=AXIS2_PLACEMENT_3D('',#1438,#1124,#1125);
#975=AXIS2_PLACEMENT_3D('',#1440,#1127,#1128);
#976=AXIS2_PLACEMENT_3D('',#1442,#1130,#1131);
#977=AXIS2_PLACEMENT_3D('',#1444,#1133,#1134);
#978=AXIS2_PLACEMENT_3D('',#1445,#1135,#1136);
#979=AXIS2_PLACEMENT_3D('',#1446,#1137,#1138);
#980=AXIS2_PLACEMENT_3D('',#1448,#1140,#1141);
#981=AXIS2_PLACEMENT_3D('',#1449,#1142,#1143);
#982=AXIS2_PLACEMENT_3D('',#1450,#1144,#1145);
#983=AXIS2_PLACEMENT_3D('',#1451,#1146,#1147);
#984=AXIS2_PLACEMENT_3D('',#1456,#1149,#1150);
#985=AXIS2_PLACEMENT_3D('',#1459,#1152,#1153);
#986=AXIS2_PLACEMENT_3D('',#1460,#1154,#1155);
#987=AXIS2_PLACEMENT_3D('',#1465,#1157,#1158);
#988=AXIS2_PLACEMENT_3D('',#1468,#1160,#1161);
#989=AXIS2_PLACEMENT_3D('',#1469,#1162,#1163);
#990=AXIS2_PLACEMENT_3D('',#1474,#1165,#1166);
#991=AXIS2_PLACEMENT_3D('',#1477,#1168,#1169);
#992=AXIS2_PLACEMENT_3D('',#1478,#1170,#1171);
#993=AXIS2_PLACEMENT_3D('',#1483,#1173,#1174);
#994=AXIS2_PLACEMENT_3D('',#1486,#1176,#1177);
#995=AXIS2_PLACEMENT_3D('',#1487,#1178,#1179);
#996=AXIS2_PLACEMENT_3D('',#1488,#1180,#1181);
#997=AXIS2_PLACEMENT_3D('',#1489,#1182,#1183);
#998=AXIS2_PLACEMENT_3D('',#1492,#1186,#1187);
#999=AXIS2_PLACEMENT_3D('',#1493,#1188,#1189);
#1000=AXIS2_PLACEMENT_3D('',#1494,#1190,#1191);
#1001=AXIS2_PLACEMENT_3D('',#1495,#1192,#1193);
#1002=AXIS2_PLACEMENT_3D('',#1498,#1196,#1197);
#1003=AXIS2_PLACEMENT_3D('',#1499,#1198,#1199);
#1004=AXIS2_PLACEMENT_3D('',#1500,#1200,#1201);
#1005=AXIS2_PLACEMENT_3D('',#1505,#1203,#1204);
#1006=AXIS2_PLACEMENT_3D('',#1508,#1206,#1207);
#1007=AXIS2_PLACEMENT_3D('',#1517,#1212,#1213);
#1008=AXIS2_PLACEMENT_3D('',#1518,#1214,#1215);
#1009=AXIS2_PLACEMENT_3D('',#1523,#1217,#1218);
#1010=AXIS2_PLACEMENT_3D('',#1526,#1220,#1221);
#1011=AXIS2_PLACEMENT_3D('',#1535,#1226,#1227);
#1012=AXIS2_PLACEMENT_3D('',#1536,#1228,#1229);
#1013=AXIS2_PLACEMENT_3D('',#1537,#1230,#1231);
#1014=AXIS2_PLACEMENT_3D('',#1538,#1232,#1233);
#1015=AXIS2_PLACEMENT_3D('',#1539,#1234,#1235);
#1016=AXIS2_PLACEMENT_3D('',#1540,#1236,#1237);
#1017=AXIS2_PLACEMENT_3D('',#1541,#1238,#1239);
#1018=AXIS2_PLACEMENT_3D('',#1542,#1240,#1241);
#1019=AXIS2_PLACEMENT_3D('',#1543,#1242,#1243);
#1020=AXIS2_PLACEMENT_3D('',#1544,#1244,#1245);
#1021=AXIS2_PLACEMENT_3D('',#1545,#1246,#1247);
#1022=AXIS2_PLACEMENT_3D('',#1546,#1248,#1249);
#1023=AXIS2_PLACEMENT_3D('',#1547,#1250,#1251);
#1024=AXIS2_PLACEMENT_3D('',#1548,#1252,#1253);
#1025=AXIS2_PLACEMENT_3D('',#1549,#1254,#1255);
#1026=AXIS2_PLACEMENT_3D('',#1554,#1257,#1258);
#1027=AXIS2_PLACEMENT_3D('',#1557,#1260,#1261);
#1028=AXIS2_PLACEMENT_3D('',#1559,#1262,#1263);
#1029=AXIS2_PLACEMENT_3D('',#1561,#1264,#1265);
#1030=AXIS2_PLACEMENT_3D('',#1566,#1267,#1268);
#1031=AXIS2_PLACEMENT_3D('',#1568,#1269,#1270);
#1032=AXIS2_PLACEMENT_3D('',#1570,#1271,#1272);
#1033=AXIS2_PLACEMENT_3D('',#1574,#1274,#1275);
#1034=AXIS2_PLACEMENT_3D('',#1576,#1276,#1277);
#1035=AXIS2_PLACEMENT_3D('',#1578,#1278,#1279);
#1036=AXIS2_PLACEMENT_3D('',#1579,#1280,#1281);
#1037=AXIS2_PLACEMENT_3D('',#1580,#1282,#1283);
#1038=AXIS2_PLACEMENT_3D('',#1582,#1284,#1285);
#1039=AXIS2_PLACEMENT_3D('',#1584,#1286,#1287);
#1040=AXIS2_PLACEMENT_3D('',#1585,#1288,#1289);
#1041=AXIS2_PLACEMENT_3D('',#1587,#1290,#1291);
#1042=AXIS2_PLACEMENT_3D('',#1588,#1292,#1293);
#1043=AXIS2_PLACEMENT_3D('',#1590,#1294,#1295);
#1044=AXIS2_PLACEMENT_3D('',#1591,#1296,#1297);
#1045=AXIS2_PLACEMENT_3D('',#1593,#1298,#1299);
#1046=AXIS2_PLACEMENT_3D('',#1594,#1300,#1301);
#1047=AXIS2_PLACEMENT_3D('',#1595,#1302,#1303);
#1048=AXIS2_PLACEMENT_3D('',#1597,#1304,#1305);
#1049=AXIS2_PLACEMENT_3D('',#1599,#1306,#1307);
#1050=AXIS2_PLACEMENT_3D('',#1600,#1308,#1309);
#1051=AXIS2_PLACEMENT_3D('',#1602,#1310,#1311);
#1052=AXIS2_PLACEMENT_3D('',#1603,#1312,#1313);
#1053=AXIS2_PLACEMENT_3D('',#1605,#1314,#1315);
#1054=AXIS2_PLACEMENT_3D('',#1606,#1316,#1317);
#1055=AXIS2_PLACEMENT_3D('',#1608,#1318,#1319);
#1056=AXIS2_PLACEMENT_3D('',#1609,#1320,#1321);
#1057=AXIS2_PLACEMENT_3D('',#1610,#1322,#1323);
#1058=AXIS2_PLACEMENT_3D('',#1615,#1326,#1327);
#1059=AXIS2_PLACEMENT_3D('',#1619,#1330,#1331);
#1060=AXIS2_PLACEMENT_3D('',#1623,#1334,#1335);
#1061=AXIS2_PLACEMENT_3D('',#1624,#1336,#1337);
#1062=AXIS2_PLACEMENT_3D('',#1626,#1338,#1339);
#1063=AXIS2_PLACEMENT_3D('',#1627,#1340,#1341);
#1064=AXIS2_PLACEMENT_3D('',#1628,#1342,#1343);
#1065=AXIS2_PLACEMENT_3D('',#1630,#1344,#1345);
#1066=AXIS2_PLACEMENT_3D('',#1631,#1346,#1347);
#1067=AXIS2_PLACEMENT_3D('',#1633,#1348,#1349);
#1068=AXIS2_PLACEMENT_3D('',#1634,#1350,#1351);
#1069=AXIS2_PLACEMENT_3D('',#1636,#1352,#1353);
#1070=AXIS2_PLACEMENT_3D('',#1637,#1354,#1355);
#1071=AXIS2_PLACEMENT_3D('',#1639,#1356,#1357);
#1072=AXIS2_PLACEMENT_3D('',#1640,#1358,#1359);
#1073=AXIS2_PLACEMENT_3D('',#1641,#1360,#1361);
#1074=AXIS2_PLACEMENT_3D('',#1644,#1363,#1364);
#1075=AXIS2_PLACEMENT_3D('',#1647,#1366,#1367);
#1076=AXIS2_PLACEMENT_3D('',#1653,#1371,#1372);
#1077=AXIS2_PLACEMENT_3D('',#1654,#1373,#1374);
#1078=AXIS2_PLACEMENT_3D('',#1659,#1377,#1378);
#1079=AXIS2_PLACEMENT_3D('',#1665,#1382,#1383);
#1080=AXIS2_PLACEMENT_3D('',#1666,#1384,#1385);
#1081=AXIS2_PLACEMENT_3D('',#1667,#1386,#1387);
#1082=AXIS2_PLACEMENT_3D('',#1668,#1388,#1389);
#1083=AXIS2_PLACEMENT_3D('',#1669,#1390,#1391);
#1084=AXIS2_PLACEMENT_3D('',#1670,#1392,#1393);
#1085=AXIS2_PLACEMENT_3D('',#1671,#1394,#1395);
#1086=AXIS2_PLACEMENT_3D('',#1672,#1396,#1397);
#1087=AXIS2_PLACEMENT_3D('',#1673,#1398,#1399);
#1088=DIRECTION('',(0.,0.,1.));
#1089=DIRECTION('',(1.,0.,0.));
#1090=DIRECTION('',(0.,0.,-1.));
#1091=DIRECTION('',(1.,0.,0.));
#1092=DIRECTION('',(0.,0.,1.));
#1093=DIRECTION('',(1.,0.,0.));
#1094=DIRECTION('',(0.,0.,1.));
#1095=DIRECTION('',(0.,0.,-1.));
#1096=DIRECTION('',(-1.,0.,0.));
#1097=DIRECTION('',(0.,0.,-1.));
#1098=DIRECTION('',(0.,0.,-1.));
#1099=DIRECTION('',(1.,0.,0.));
#1100=DIRECTION('',(0.,0.,1.));
#1101=DIRECTION('',(1.,0.,0.));
#1102=DIRECTION('',(0.,0.,-1.));
#1103=DIRECTION('',(0.,0.,-1.));
#1104=DIRECTION('',(-1.,0.,0.));
#1105=DIRECTION('',(0.,0.,1.));
#1106=DIRECTION('',(0.,0.,-1.));
#1107=DIRECTION('',(1.,0.,0.));
#1108=DIRECTION('',(0.,0.,1.));
#1109=DIRECTION('',(1.,0.,0.));
#1110=DIRECTION('',(0.,0.,1.));
#1111=DIRECTION('',(0.,0.,-1.));
#1112=DIRECTION('',(-1.,0.,0.));
#1113=DIRECTION('',(0.,0.,-1.));
#1114=DIRECTION('',(0.,0.,-1.));
#1115=DIRECTION('',(1.,0.,0.));
#1116=DIRECTION('',(0.,0.,1.));
#1117=DIRECTION('',(1.,0.,0.));
#1118=DIRECTION('',(0.,0.,-1.));
#1119=DIRECTION('',(0.,0.,-1.));
#1120=DIRECTION('',(-1.,0.,0.));
#1121=DIRECTION('',(0.,0.,1.));
#1122=DIRECTION('',(0.,0.,-1.));
#1123=DIRECTION('',(1.,0.,0.));
#1124=DIRECTION('',(0.,0.,1.));
#1125=DIRECTION('',(1.,0.,0.));
#1126=DIRECTION('',(-1.,0.,0.));
#1127=DIRECTION('',(0.,0.,1.));
#1128=DIRECTION('',(-1.,0.,0.));
#1129=DIRECTION('',(1.,0.,0.));
#1130=DIRECTION('',(0.,-1.,0.));
#1131=DIRECTION('',(0.,0.,1.));
#1132=DIRECTION('',(1.,0.,0.));
#1133=DIRECTION('',(0.,0.,-1.));
#1134=DIRECTION('',(1.,0.,0.));
#1135=DIRECTION('',(0.,0.,1.));
#1136=DIRECTION('',(-1.,0.,0.));
#1137=DIRECTION('',(0.,1.,0.));
#1138=DIRECTION('',(0.,0.,-1.));
#1139=DIRECTION('',(-1.,0.,0.));
#1140=DIRECTION('',(0.,0.,-1.));
#1141=DIRECTION('',(1.,0.,0.));
#1142=DIRECTION('',(0.,0.,1.));
#1143=DIRECTION('',(1.,0.,0.));
#1144=DIRECTION('',(0.,0.,1.));
#1145=DIRECTION('',(1.,0.,0.));
#1146=DIRECTION('',(0.,0.,1.));
#1147=DIRECTION('',(1.,0.,0.));
#1148=DIRECTION('',(0.,0.,-1.));
#1149=DIRECTION('',(0.,0.,-1.));
#1150=DIRECTION('',(-1.,0.,0.));
#1151=DIRECTION('',(0.,0.,1.));
#1152=DIRECTION('',(0.,0.,1.));
#1153=DIRECTION('',(1.,0.,0.));
#1154=DIRECTION('',(0.,0.,1.));
#1155=DIRECTION('',(1.,0.,0.));
#1156=DIRECTION('',(0.,0.,1.));
#1157=DIRECTION('',(0.,0.,-1.));
#1158=DIRECTION('',(-1.,0.,0.));
#1159=DIRECTION('',(0.,0.,-1.));
#1160=DIRECTION('',(0.,0.,1.));
#1161=DIRECTION('',(1.,0.,0.));
#1162=DIRECTION('',(0.,0.,1.));
#1163=DIRECTION('',(1.,0.,0.));
#1164=DIRECTION('',(0.,0.,-1.));
#1165=DIRECTION('',(0.,0.,-1.));
#1166=DIRECTION('',(-1.,0.,0.));
#1167=DIRECTION('',(0.,0.,1.));
#1168=DIRECTION('',(0.,0.,1.));
#1169=DIRECTION('',(1.,0.,0.));
#1170=DIRECTION('',(0.,0.,1.));
#1171=DIRECTION('',(1.,0.,0.));
#1172=DIRECTION('',(0.,0.,1.));
#1173=DIRECTION('',(0.,0.,-1.));
#1174=DIRECTION('',(-1.,0.,0.));
#1175=DIRECTION('',(0.,0.,-1.));
#1176=DIRECTION('',(0.,0.,1.));
#1177=DIRECTION('',(1.,0.,0.));
#1178=DIRECTION('',(0.,0.,1.));
#1179=DIRECTION('',(1.,0.,0.));
#1180=DIRECTION('',(0.,0.,1.));
#1181=DIRECTION('',(1.,0.,0.));
#1182=DIRECTION('',(0.,1.,0.));
#1183=DIRECTION('',(0.,0.,1.));
#1184=DIRECTION('',(-1.,0.,0.));
#1185=DIRECTION('',(-1.,0.,0.));
#1186=DIRECTION('',(0.,0.,1.));
#1187=DIRECTION('',(1.,0.,0.));
#1188=DIRECTION('',(0.,0.,1.));
#1189=DIRECTION('',(-1.,0.,0.));
#1190=DIRECTION('',(0.,0.,1.));
#1191=DIRECTION('',(-1.,0.,0.));
#1192=DIRECTION('',(0.,-1.,0.));
#1193=DIRECTION('',(0.,0.,-1.));
#1194=DIRECTION('',(1.,0.,0.));
#1195=DIRECTION('',(1.,0.,0.));
#1196=DIRECTION('',(0.,0.,1.));
#1197=DIRECTION('',(1.,0.,0.));
#1198=DIRECTION('',(0.,0.,-1.));
#1199=DIRECTION('',(1.,0.,0.));
#1200=DIRECTION('',(0.,0.,1.));
#1201=DIRECTION('',(1.,0.,0.));
#1202=DIRECTION('',(0.,0.,-1.));
#1203=DIRECTION('',(0.,0.,1.));
#1204=DIRECTION('',(1.,0.,0.));
#1205=DIRECTION('',(0.,0.,-1.));
#1206=DIRECTION('',(0.,1.,0.));
#1207=DIRECTION('',(0.,0.,-1.));
#1208=DIRECTION('',(-1.,0.,0.));
#1209=DIRECTION('',(0.,0.,1.));
#1210=DIRECTION('',(-1.,0.,0.));
#1211=DIRECTION('',(0.,0.,1.));
#1212=DIRECTION('',(0.,0.,-1.));
#1213=DIRECTION('',(1.,0.,0.));
#1214=DIRECTION('',(0.,0.,1.));
#1215=DIRECTION('',(-1.,0.,0.));
#1216=DIRECTION('',(0.,0.,-1.));
#1217=DIRECTION('',(0.,0.,1.));
#1218=DIRECTION('',(-1.,0.,0.));
#1219=DIRECTION('',(0.,0.,-1.));
#1220=DIRECTION('',(0.,-1.,0.));
#1221=DIRECTION('',(0.,0.,1.));
#1222=DIRECTION('',(1.,0.,0.));
#1223=DIRECTION('',(0.,0.,1.));
#1224=DIRECTION('',(1.,0.,0.));
#1225=DIRECTION('',(0.,0.,1.));
#1226=DIRECTION('',(0.,0.,-1.));
#1227=DIRECTION('',(1.,0.,0.));
#1228=DIRECTION('',(0.,0.,1.));
#1229=DIRECTION('',(1.,0.,0.));
#1230=DIRECTION('',(0.,0.,1.));
#1231=DIRECTION('',(1.,0.,0.));
#1232=DIRECTION('',(0.,0.,1.));
#1233=DIRECTION('',(1.,0.,0.));
#1234=DIRECTION('',(0.,0.,1.));
#1235=DIRECTION('',(1.,0.,0.));
#1236=DIRECTION('',(0.,0.,-1.));
#1237=DIRECTION('',(1.,0.,0.));
#1238=DIRECTION('',(0.,0.,-1.));
#1239=DIRECTION('',(-1.,0.,0.));
#1240=DIRECTION('',(0.,0.,-1.));
#1241=DIRECTION('',(1.,0.,0.));
#1242=DIRECTION('',(0.,0.,-1.));
#1243=DIRECTION('',(-1.,0.,0.));
#1244=DIRECTION('',(0.,0.,-1.));
#1245=DIRECTION('',(1.,0.,0.));
#1246=DIRECTION('',(0.,0.,-1.));
#1247=DIRECTION('',(-1.,0.,0.));
#1248=DIRECTION('',(0.,0.,-1.));
#1249=DIRECTION('',(1.,0.,0.));
#1250=DIRECTION('',(0.,0.,-1.));
#1251=DIRECTION('',(-1.,0.,0.));
#1252=DIRECTION('',(0.,0.,-1.));
#1253=DIRECTION('',(-1.,0.,0.));
#1254=DIRECTION('',(0.,0.,-1.));
#1255=DIRECTION('',(1.,0.,0.));
#1256=DIRECTION('',(-1.,-1.62630325872826E-16,0.));
#1257=DIRECTION('',(0.,0.,1.));
#1258=DIRECTION('',(-1.,0.,0.));
#1259=DIRECTION('',(1.,-1.62630325872826E-16,0.));
#1260=DIRECTION('',(0.,0.,-1.));
#1261=DIRECTION('',(-1.,0.,0.));
#1262=DIRECTION('',(0.,0.,-1.));
#1263=DIRECTION('',(-1.,0.,0.));
#1264=DIRECTION('',(0.,0.,-1.));
#1265=DIRECTION('',(-1.,0.,0.));
#1266=DIRECTION('',(1.,0.,0.));
#1267=DIRECTION('',(0.,0.,-1.));
#1268=DIRECTION('',(-1.,0.,0.));
#1269=DIRECTION('',(0.,0.,1.));
#1270=DIRECTION('',(1.,0.,0.));
#1271=DIRECTION('',(0.,0.,-1.));
#1272=DIRECTION('',(-1.,0.,0.));
#1273=DIRECTION('',(-1.,0.,0.));
#1274=DIRECTION('',(0.,0.,-1.));
#1275=DIRECTION('',(-1.,0.,0.));
#1276=DIRECTION('',(0.,0.,1.));
#1277=DIRECTION('',(-1.,0.,0.));
#1278=DIRECTION('',(0.,0.,-1.));
#1279=DIRECTION('',(-1.,0.,0.));
#1280=DIRECTION('',(0.,0.,-1.));
#1281=DIRECTION('',(-1.,0.,0.));
#1282=DIRECTION('',(0.,0.,-1.));
#1283=DIRECTION('',(-1.,0.,0.));
#1284=DIRECTION('',(0.,0.,-1.));
#1285=DIRECTION('',(-1.,0.,0.));
#1286=DIRECTION('',(0.,0.,1.));
#1287=DIRECTION('',(1.,0.,0.));
#1288=DIRECTION('',(0.,0.,-1.));
#1289=DIRECTION('',(-1.,0.,0.));
#1290=DIRECTION('',(0.,0.,-1.));
#1291=DIRECTION('',(-1.,0.,0.));
#1292=DIRECTION('',(0.,0.,-1.));
#1293=DIRECTION('',(-1.,0.,0.));
#1294=DIRECTION('',(0.,0.,-1.));
#1295=DIRECTION('',(-1.,0.,0.));
#1296=DIRECTION('',(0.,0.,-1.));
#1297=DIRECTION('',(-1.,0.,0.));
#1298=DIRECTION('',(0.,0.,-1.));
#1299=DIRECTION('',(-1.,0.,0.));
#1300=DIRECTION('',(0.,0.,-1.));
#1301=DIRECTION('',(-1.,0.,0.));
#1302=DIRECTION('',(0.,0.,-1.));
#1303=DIRECTION('',(-1.,0.,0.));
#1304=DIRECTION('',(0.,0.,-1.));
#1305=DIRECTION('',(-1.,0.,0.));
#1306=DIRECTION('',(0.,0.,1.));
#1307=DIRECTION('',(1.,0.,0.));
#1308=DIRECTION('',(0.,0.,-1.));
#1309=DIRECTION('',(-1.,0.,0.));
#1310=DIRECTION('',(0.,0.,-1.));
#1311=DIRECTION('',(-1.,0.,0.));
#1312=DIRECTION('',(0.,0.,-1.));
#1313=DIRECTION('',(-1.,0.,0.));
#1314=DIRECTION('',(0.,0.,-1.));
#1315=DIRECTION('',(-1.,0.,0.));
#1316=DIRECTION('',(0.,0.,-1.));
#1317=DIRECTION('',(-1.,0.,0.));
#1318=DIRECTION('',(0.,0.,-1.));
#1319=DIRECTION('',(-1.,0.,0.));
#1320=DIRECTION('',(0.,0.,-1.));
#1321=DIRECTION('',(-1.,0.,0.));
#1322=DIRECTION('',(0.,0.,-1.));
#1323=DIRECTION('',(1.,0.,0.));
#1324=DIRECTION('',(0.,0.,-1.));
#1325=DIRECTION('',(0.,0.,-1.));
#1326=DIRECTION('',(1.62630325872826E-16,1.,0.));
#1327=DIRECTION('',(-1.,1.62630325872826E-16,0.));
#1328=DIRECTION('',(1.,-1.62630325872826E-16,0.));
#1329=DIRECTION('',(0.,0.,-1.));
#1330=DIRECTION('',(1.62630325872826E-16,-1.,0.));
#1331=DIRECTION('',(1.,1.62630325872826E-16,0.));
#1332=DIRECTION('',(-1.,-1.62630325872826E-16,0.));
#1333=DIRECTION('',(0.,0.,-1.));
#1334=DIRECTION('',(0.,0.,-1.));
#1335=DIRECTION('',(-1.,0.,0.));
#1336=DIRECTION('',(0.,0.,-1.));
#1337=DIRECTION('',(-1.,0.,0.));
#1338=DIRECTION('',(0.,0.,1.));
#1339=DIRECTION('',(-1.,0.,0.));
#1340=DIRECTION('',(0.,0.,-1.));
#1341=DIRECTION('',(-1.,0.,0.));
#1342=DIRECTION('',(0.,0.,-1.));
#1343=DIRECTION('',(-1.,0.,0.));
#1344=DIRECTION('',(0.,0.,1.));
#1345=DIRECTION('',(1.,0.,0.));
#1346=DIRECTION('',(0.,0.,-1.));
#1347=DIRECTION('',(-1.,0.,0.));
#1348=DIRECTION('',(0.,0.,-1.));
#1349=DIRECTION('',(-1.,0.,0.));
#1350=DIRECTION('',(0.,0.,-1.));
#1351=DIRECTION('',(-1.,0.,0.));
#1352=DIRECTION('',(0.,0.,-1.));
#1353=DIRECTION('',(-1.,0.,0.));
#1354=DIRECTION('',(0.,0.,-1.));
#1355=DIRECTION('',(-1.,0.,0.));
#1356=DIRECTION('',(0.,0.,-1.));
#1357=DIRECTION('',(-1.,0.,0.));
#1358=DIRECTION('',(0.,0.,-1.));
#1359=DIRECTION('',(1.,0.,0.));
#1360=DIRECTION('',(0.,0.,1.));
#1361=DIRECTION('',(1.,0.,0.));
#1362=DIRECTION('',(0.,0.,1.));
#1363=DIRECTION('',(0.,0.,1.));
#1364=DIRECTION('',(1.,0.,0.));
#1365=DIRECTION('',(0.,0.,1.));
#1366=DIRECTION('',(0.,1.,0.));
#1367=DIRECTION('',(0.,0.,1.));
#1368=DIRECTION('',(-1.,0.,0.));
#1369=DIRECTION('',(0.,0.,-1.));
#1370=DIRECTION('',(0.,0.,-1.));
#1371=DIRECTION('',(0.,0.,1.));
#1372=DIRECTION('',(1.,0.,0.));
#1373=DIRECTION('',(0.,0.,1.));
#1374=DIRECTION('',(-1.,0.,0.));
#1375=DIRECTION('',(0.,0.,1.));
#1376=DIRECTION('',(0.,0.,1.));
#1377=DIRECTION('',(0.,-1.,0.));
#1378=DIRECTION('',(0.,0.,-1.));
#1379=DIRECTION('',(1.,0.,0.));
#1380=DIRECTION('',(0.,0.,-1.));
#1381=DIRECTION('',(0.,0.,-1.));
#1382=DIRECTION('',(0.,0.,1.));
#1383=DIRECTION('',(1.,0.,0.));
#1384=DIRECTION('',(0.,0.,1.));
#1385=DIRECTION('',(1.,0.,0.));
#1386=DIRECTION('',(0.,0.,1.));
#1387=DIRECTION('',(1.,0.,0.));
#1388=DIRECTION('',(0.,0.,1.));
#1389=DIRECTION('',(1.,0.,0.));
#1390=DIRECTION('',(0.,0.,1.));
#1391=DIRECTION('',(1.,0.,0.));
#1392=DIRECTION('',(0.,0.,1.));
#1393=DIRECTION('',(1.,0.,0.));
#1394=DIRECTION('',(0.,0.,1.));
#1395=DIRECTION('',(1.,0.,0.));
#1396=DIRECTION('',(0.,0.,1.));
#1397=DIRECTION('',(1.,0.,0.));
#1398=DIRECTION('',(0.,0.,1.));
#1399=DIRECTION('',(1.,0.,0.));
#1400=CARTESIAN_POINT('',(0.,0.,0.));
#1401=CARTESIAN_POINT('',(4.60588745030458,2.30000000000001,3.1));
#1402=CARTESIAN_POINT('',(4.60588745030458,2.30000000000001,3.1));
#1403=CARTESIAN_POINT('',(5.01980361490158,2.01951219512196,3.1));
#1404=CARTESIAN_POINT('',(4.60588745030458,2.80000000000001,3.1));
#1405=CARTESIAN_POINT('',(4.60588745030458,2.80000000000001,0.));
#1406=CARTESIAN_POINT('',(4.60588745030458,2.80000000000001,0.));
#1407=CARTESIAN_POINT('',(4.60588745030458,2.30000000000001,0.));
#1408=CARTESIAN_POINT('',(5.01980361490158,2.01951219512196,0.));
#1409=CARTESIAN_POINT('',(5.01980361490158,2.01951219512196,3.1));
#1410=CARTESIAN_POINT('',(3.39411254969542,2.30000000000001,3.1));
#1411=CARTESIAN_POINT('',(3.39411254969542,2.30000000000001,3.1));
#1412=CARTESIAN_POINT('',(3.39411254969542,2.80000000000001,3.1));
#1413=CARTESIAN_POINT('',(2.98019638509842,2.01951219512196,3.1));
#1414=CARTESIAN_POINT('',(2.98019638509842,2.01951219512196,3.1));
#1415=CARTESIAN_POINT('',(2.98019638509842,2.01951219512196,0.));
#1416=CARTESIAN_POINT('',(3.39411254969542,2.30000000000001,0.));
#1417=CARTESIAN_POINT('',(3.39411254969542,2.80000000000001,0.));
#1418=CARTESIAN_POINT('',(3.39411254969542,2.80000000000001,3.1));
#1419=CARTESIAN_POINT('',(3.39411254969543,-2.3,3.1));
#1420=CARTESIAN_POINT('',(3.39411254969543,-2.3,3.1));
#1421=CARTESIAN_POINT('',(2.98019638509842,-2.01951219512195,3.1));
#1422=CARTESIAN_POINT('',(3.39411254969543,-2.8,3.1));
#1423=CARTESIAN_POINT('',(3.39411254969543,-2.8,0.));
#1424=CARTESIAN_POINT('',(3.39411254969543,-2.8,0.));
#1425=CARTESIAN_POINT('',(3.39411254969543,-2.3,0.));
#1426=CARTESIAN_POINT('',(2.98019638509842,-2.01951219512195,0.));
#1427=CARTESIAN_POINT('',(2.98019638509842,-2.01951219512195,3.1));
#1428=CARTESIAN_POINT('',(4.60588745030457,-2.3,3.1));
#1429=CARTESIAN_POINT('',(4.60588745030457,-2.3,3.1));
#1430=CARTESIAN_POINT('',(4.60588745030457,-2.8,3.1));
#1431=CARTESIAN_POINT('',(5.01980361490158,-2.01951219512195,3.1));
#1432=CARTESIAN_POINT('',(5.01980361490157,-2.01951219512195,3.1));
#1433=CARTESIAN_POINT('',(5.01980361490158,-2.01951219512195,0.));
#1434=CARTESIAN_POINT('',(4.60588745030457,-2.3,0.));
#1435=CARTESIAN_POINT('',(4.60588745030457,-2.8,0.));
#1436=CARTESIAN_POINT('',(4.60588745030457,-2.8,3.1));
#1437=CARTESIAN_POINT('',(8.,-9.79717439317883E-16,3.1));
#1438=CARTESIAN_POINT('',(8.,-9.79717439317883E-16,3.1));
#1439=CARTESIAN_POINT('',(5.73725830020305,-2.8,3.1));
#1440=CARTESIAN_POINT('',(0.,-9.79717439317883E-16,3.1));
#1441=CARTESIAN_POINT('',(5.73725830020306,2.80000000000001,3.1));
#1442=CARTESIAN_POINT('',(5.73725830020306,2.80000000000001,3.1));
#1443=CARTESIAN_POINT('',(5.73725830020306,2.80000000000001,0.));
#1444=CARTESIAN_POINT('',(0.,-9.79717439317883E-16,3.1));
#1445=CARTESIAN_POINT('',(0.,-9.79717439317883E-16,0.));
#1446=CARTESIAN_POINT('',(5.73725830020305,-2.8,3.1));
#1447=CARTESIAN_POINT('',(5.73725830020305,-2.8,0.));
#1448=CARTESIAN_POINT('',(8.,-9.79717439317883E-16,3.1));
#1449=CARTESIAN_POINT('',(8.,-9.79717439317883E-16,0.));
#1450=CARTESIAN_POINT('',(4.60588745030457,-2.3,4.9));
#1451=CARTESIAN_POINT('',(4.60588745030457,-2.3,4.9));
#1452=CARTESIAN_POINT('',(4.60588745030457,-2.8,4.9));
#1453=CARTESIAN_POINT('',(5.01980361490158,-2.01951219512195,4.9));
#1454=CARTESIAN_POINT('',(4.60588745030457,-2.8,4.9));
#1455=CARTESIAN_POINT('',(4.60588745030457,-2.8,8.));
#1456=CARTESIAN_POINT('',(4.60588745030457,-2.3,8.));
#1457=CARTESIAN_POINT('',(5.01980361490158,-2.01951219512195,8.));
#1458=CARTESIAN_POINT('',(5.01980361490157,-2.01951219512195,4.9));
#1459=CARTESIAN_POINT('',(3.39411254969543,-2.3,4.9));
#1460=CARTESIAN_POINT('',(3.39411254969543,-2.3,4.9));
#1461=CARTESIAN_POINT('',(2.98019638509842,-2.01951219512195,4.9));
#1462=CARTESIAN_POINT('',(3.39411254969543,-2.8,4.9));
#1463=CARTESIAN_POINT('',(2.98019638509842,-2.01951219512195,4.9));
#1464=CARTESIAN_POINT('',(2.98019638509842,-2.01951219512195,8.));
#1465=CARTESIAN_POINT('',(3.39411254969543,-2.3,8.));
#1466=CARTESIAN_POINT('',(3.39411254969543,-2.8,8.));
#1467=CARTESIAN_POINT('',(3.39411254969543,-2.8,8.));
#1468=CARTESIAN_POINT('',(3.39411254969542,2.30000000000001,4.9));
#1469=CARTESIAN_POINT('',(3.39411254969542,2.30000000000001,4.9));
#1470=CARTESIAN_POINT('',(3.39411254969542,2.80000000000001,4.9));
#1471=CARTESIAN_POINT('',(2.98019638509842,2.01951219512196,4.9));
#1472=CARTESIAN_POINT('',(3.39411254969542,2.80000000000001,4.9));
#1473=CARTESIAN_POINT('',(3.39411254969542,2.80000000000001,8.));
#1474=CARTESIAN_POINT('',(3.39411254969542,2.30000000000001,8.));
#1475=CARTESIAN_POINT('',(2.98019638509842,2.01951219512196,8.));
#1476=CARTESIAN_POINT('',(2.98019638509842,2.01951219512196,4.9));
#1477=CARTESIAN_POINT('',(4.60588745030458,2.30000000000001,4.9));
#1478=CARTESIAN_POINT('',(4.60588745030458,2.30000000000001,4.9));
#1479=CARTESIAN_POINT('',(5.01980361490158,2.01951219512196,4.9));
#1480=CARTESIAN_POINT('',(4.60588745030458,2.80000000000001,4.9));
#1481=CARTESIAN_POINT('',(5.01980361490158,2.01951219512196,4.9));
#1482=CARTESIAN_POINT('',(5.01980361490158,2.01951219512196,8.));
#1483=CARTESIAN_POINT('',(4.60588745030458,2.30000000000001,8.));
#1484=CARTESIAN_POINT('',(4.60588745030458,2.80000000000001,8.));
#1485=CARTESIAN_POINT('',(4.60588745030458,2.80000000000001,8.));
#1486=CARTESIAN_POINT('',(8.,-9.79717439317883E-16,4.9));
#1487=CARTESIAN_POINT('',(8.,-9.79717439317883E-16,8.));
#1488=CARTESIAN_POINT('',(8.,-9.79717439317883E-16,4.9));
#1489=CARTESIAN_POINT('',(5.73725830020305,-2.8,4.9));
#1490=CARTESIAN_POINT('',(5.73725830020305,-2.8,4.9));
#1491=CARTESIAN_POINT('',(5.73725830020305,-2.8,8.));
#1492=CARTESIAN_POINT('',(0.,-9.79717439317883E-16,4.9));
#1493=CARTESIAN_POINT('',(0.,-9.79717439317883E-16,4.9));
#1494=CARTESIAN_POINT('',(0.,-9.79717439317883E-16,8.));
#1495=CARTESIAN_POINT('',(5.73725830020306,2.80000000000001,4.9));
#1496=CARTESIAN_POINT('',(5.73725830020306,2.80000000000001,4.9));
#1497=CARTESIAN_POINT('',(5.73725830020306,2.80000000000001,8.));
#1498=CARTESIAN_POINT('',(8.,-9.79717439317883E-16,4.9));
#1499=CARTESIAN_POINT('',(0.,0.,3.1));
#1500=CARTESIAN_POINT('',(0.,0.,0.));
#1501=CARTESIAN_POINT('',(-2.98019638509842,2.01951219512196,0.));
#1502=CARTESIAN_POINT('',(-2.98019638509842,-2.01951219512195,0.));
#1503=CARTESIAN_POINT('',(-2.98019638509843,-2.01951219512195,3.1));
#1504=CARTESIAN_POINT('',(-2.98019638509842,-2.01951219512195,3.1));
#1505=CARTESIAN_POINT('',(0.,0.,3.1));
#1506=CARTESIAN_POINT('',(-2.98019638509842,2.01951219512196,3.1));
#1507=CARTESIAN_POINT('',(-2.98019638509842,2.01951219512196,3.1));
#1508=CARTESIAN_POINT('',(-2.26274169979695,-2.8,3.1));
#1509=CARTESIAN_POINT('',(-2.26274169979695,-2.8,3.1));
#1510=CARTESIAN_POINT('',(-3.39411254969543,-2.8,3.1));
#1511=CARTESIAN_POINT('',(-4.60588745030457,-2.8,3.1));
#1512=CARTESIAN_POINT('',(-3.39411254969543,-2.8,3.1));
#1513=CARTESIAN_POINT('',(-3.39411254969543,-2.8,0.));
#1514=CARTESIAN_POINT('',(-2.26274169979695,-2.8,0.));
#1515=CARTESIAN_POINT('',(-4.60588745030457,-2.8,0.));
#1516=CARTESIAN_POINT('',(-4.60588745030457,-2.8,0.));
#1517=CARTESIAN_POINT('',(-8.,0.,3.1));
#1518=CARTESIAN_POINT('',(-8.,0.,3.1));
#1519=CARTESIAN_POINT('',(-5.01980361490158,-2.01951219512195,3.1));
#1520=CARTESIAN_POINT('',(-5.01980361490158,2.01951219512196,3.1));
#1521=CARTESIAN_POINT('',(-5.01980361490158,-2.01951219512195,3.1));
#1522=CARTESIAN_POINT('',(-5.01980361490158,-2.01951219512195,0.));
#1523=CARTESIAN_POINT('',(-8.,0.,0.));
#1524=CARTESIAN_POINT('',(-5.01980361490158,2.01951219512196,0.));
#1525=CARTESIAN_POINT('',(-5.01980361490158,2.01951219512196,3.1));
#1526=CARTESIAN_POINT('',(-2.26274169979694,2.80000000000001,3.1));
#1527=CARTESIAN_POINT('',(-2.26274169979694,2.80000000000001,3.1));
#1528=CARTESIAN_POINT('',(-4.60588745030458,2.80000000000001,3.1));
#1529=CARTESIAN_POINT('',(-3.39411254969542,2.80000000000001,3.1));
#1530=CARTESIAN_POINT('',(-4.60588745030458,2.80000000000001,3.1));
#1531=CARTESIAN_POINT('',(-4.60588745030458,2.80000000000001,0.));
#1532=CARTESIAN_POINT('',(-2.26274169979694,2.80000000000001,0.));
#1533=CARTESIAN_POINT('',(-3.39411254969542,2.80000000000001,0.));
#1534=CARTESIAN_POINT('',(-3.39411254969542,2.80000000000001,0.));
#1535=CARTESIAN_POINT('',(0.,0.,3.1));
#1536=CARTESIAN_POINT('',(-3.39411254969543,-2.3,3.1));
#1537=CARTESIAN_POINT('',(-4.60588745030457,-2.3,3.1));
#1538=CARTESIAN_POINT('',(-4.60588745030458,2.30000000000001,3.1));
#1539=CARTESIAN_POINT('',(-3.39411254969542,2.30000000000001,3.1));
#1540=CARTESIAN_POINT('',(-3.39411254969543,-2.3,3.1));
#1541=CARTESIAN_POINT('',(-3.39411254969543,-2.3,0.));
#1542=CARTESIAN_POINT('',(-4.60588745030457,-2.3,3.1));
#1543=CARTESIAN_POINT('',(-4.60588745030457,-2.3,0.));
#1544=CARTESIAN_POINT('',(-4.60588745030458,2.30000000000001,3.1));
#1545=CARTESIAN_POINT('',(-4.60588745030458,2.30000000000001,0.));
#1546=CARTESIAN_POINT('',(-3.39411254969542,2.30000000000001,3.1));
#1547=CARTESIAN_POINT('',(-3.39411254969542,2.30000000000001,0.));
#1548=CARTESIAN_POINT('',(-8.,0.,8.));
#1549=CARTESIAN_POINT('',(-8.,0.,8.));
#1550=CARTESIAN_POINT('',(-8.,-3.6,8.));
#1551=CARTESIAN_POINT('',(-8.,3.6,8.));
#1552=CARTESIAN_POINT('',(-8.,-3.6,8.));
#1553=CARTESIAN_POINT('',(8.,-3.6,8.));
#1554=CARTESIAN_POINT('',(8.,0.,8.));
#1555=CARTESIAN_POINT('',(8.,3.6,8.));
#1556=CARTESIAN_POINT('',(-8.,3.6,8.));
#1557=CARTESIAN_POINT('',(-8.,0.,8.));
#1558=CARTESIAN_POINT('',(-11.1,0.,8.));
#1559=CARTESIAN_POINT('',(0.,-9.79717439317883E-16,8.));
#1560=CARTESIAN_POINT('',(-3.09999999999998,-9.79717439317883E-16,8.));
#1561=CARTESIAN_POINT('',(8.,-1.95943487863577E-15,8.));
#1562=CARTESIAN_POINT('',(4.90000000000002,-1.95943487863577E-15,8.));
#1563=CARTESIAN_POINT('',(-2.26274169979694,2.80000000000001,8.));
#1564=CARTESIAN_POINT('',(-4.60588745030458,2.80000000000001,8.));
#1565=CARTESIAN_POINT('',(-3.39411254969542,2.80000000000001,8.));
#1566=CARTESIAN_POINT('',(-3.39411254969542,2.30000000000001,8.));
#1567=CARTESIAN_POINT('',(-2.98019638509842,2.01951219512196,8.));
#1568=CARTESIAN_POINT('',(0.,0.,8.));
#1569=CARTESIAN_POINT('',(-2.98019638509842,-2.01951219512195,8.));
#1570=CARTESIAN_POINT('',(-3.39411254969543,-2.3,8.));
#1571=CARTESIAN_POINT('',(-3.39411254969543,-2.8,8.));
#1572=CARTESIAN_POINT('',(-2.26274169979695,-2.8,8.));
#1573=CARTESIAN_POINT('',(-4.60588745030457,-2.8,8.));
#1574=CARTESIAN_POINT('',(-4.60588745030457,-2.3,8.));
#1575=CARTESIAN_POINT('',(-5.01980361490158,-2.01951219512195,8.));
#1576=CARTESIAN_POINT('',(-8.,0.,8.));
#1577=CARTESIAN_POINT('',(-5.01980361490158,2.01951219512196,8.));
#1578=CARTESIAN_POINT('',(-4.60588745030458,2.30000000000001,8.));
#1579=CARTESIAN_POINT('',(8.,-1.95943487863577E-15,0.));
#1580=CARTESIAN_POINT('',(8.,-1.95943487863577E-15,0.8));
#1581=CARTESIAN_POINT('',(4.90000000000002,-1.95943487863577E-15,0.8));
#1582=CARTESIAN_POINT('',(8.,-1.95943487863577E-15,0.));
#1583=CARTESIAN_POINT('',(4.90000000000002,-1.95943487863577E-15,0.));
#1584=CARTESIAN_POINT('',(4.90000000000002,-1.95943487863577E-15,0.8));
#1585=CARTESIAN_POINT('',(8.,-1.95943487863577E-15,0.8));
#1586=CARTESIAN_POINT('',(5.6,-1.95943487863577E-15,0.8));
#1587=CARTESIAN_POINT('',(8.,-1.95943487863577E-15,0.));
#1588=CARTESIAN_POINT('',(8.,-1.95943487863577E-15,7.2));
#1589=CARTESIAN_POINT('',(5.6,-1.95943487863577E-15,7.2));
#1590=CARTESIAN_POINT('',(4.90000000000002,-1.95943487863577E-15,7.2));
#1591=CARTESIAN_POINT('',(8.,-1.95943487863577E-15,7.2));
#1592=CARTESIAN_POINT('',(4.90000000000002,-1.95943487863577E-15,7.2));
#1593=CARTESIAN_POINT('',(8.,-1.95943487863577E-15,0.));
#1594=CARTESIAN_POINT('',(0.,-9.79717439317883E-16,0.));
#1595=CARTESIAN_POINT('',(0.,-9.79717439317883E-16,0.8));
#1596=CARTESIAN_POINT('',(-3.09999999999998,-9.79717439317883E-16,0.8));
#1597=CARTESIAN_POINT('',(0.,-9.79717439317883E-16,0.));
#1598=CARTESIAN_POINT('',(-3.09999999999998,-9.79717439317883E-16,0.));
#1599=CARTESIAN_POINT('',(-3.09999999999998,-9.79717439317883E-16,0.8));
#1600=CARTESIAN_POINT('',(0.,-9.79717439317883E-16,0.8));
#1601=CARTESIAN_POINT('',(-2.4,-9.79717439317883E-16,0.8));
#1602=CARTESIAN_POINT('',(0.,-9.79717439317883E-16,0.));
#1603=CARTESIAN_POINT('',(0.,-9.79717439317883E-16,7.2));
#1604=CARTESIAN_POINT('',(-2.4,-9.79717439317883E-16,7.2));
#1605=CARTESIAN_POINT('',(-3.09999999999998,-9.79717439317883E-16,7.2));
#1606=CARTESIAN_POINT('',(0.,-9.79717439317883E-16,7.2));
#1607=CARTESIAN_POINT('',(-3.09999999999998,-9.79717439317883E-16,7.2));
#1608=CARTESIAN_POINT('',(0.,-9.79717439317883E-16,0.));
#1609=CARTESIAN_POINT('',(-8.,0.,8.));
#1610=CARTESIAN_POINT('',(-8.,0.,0.));
#1611=CARTESIAN_POINT('',(-8.,-3.6,0.));
#1612=CARTESIAN_POINT('',(-8.,3.6,0.));
#1613=CARTESIAN_POINT('',(-8.,-3.6,8.));
#1614=CARTESIAN_POINT('',(-8.,3.6,8.));
#1615=CARTESIAN_POINT('',(-8.,3.6,8.));
#1616=CARTESIAN_POINT('',(-8.,3.6,0.));
#1617=CARTESIAN_POINT('',(8.,3.6,0.));
#1618=CARTESIAN_POINT('',(8.,3.6,8.));
#1619=CARTESIAN_POINT('',(-8.,-3.6,8.));
#1620=CARTESIAN_POINT('',(-8.,-3.6,0.));
#1621=CARTESIAN_POINT('',(8.,-3.6,0.));
#1622=CARTESIAN_POINT('',(8.,-3.6,8.));
#1623=CARTESIAN_POINT('',(-8.,0.,0.));
#1624=CARTESIAN_POINT('',(-8.,0.,0.));
#1625=CARTESIAN_POINT('',(-11.1,0.,0.));
#1626=CARTESIAN_POINT('',(8.,0.,0.));
#1627=CARTESIAN_POINT('',(-8.,0.,0.));
#1628=CARTESIAN_POINT('',(-8.,0.,0.8));
#1629=CARTESIAN_POINT('',(-11.1,0.,0.8));
#1630=CARTESIAN_POINT('',(-11.1,0.,0.8));
#1631=CARTESIAN_POINT('',(-8.,0.,0.8));
#1632=CARTESIAN_POINT('',(-10.4,0.,0.8));
#1633=CARTESIAN_POINT('',(-8.,0.,0.));
#1634=CARTESIAN_POINT('',(-8.,0.,7.2));
#1635=CARTESIAN_POINT('',(-10.4,0.,7.2));
#1636=CARTESIAN_POINT('',(-11.1,0.,7.2));
#1637=CARTESIAN_POINT('',(-8.,0.,7.2));
#1638=CARTESIAN_POINT('',(-11.1,0.,7.2));
#1639=CARTESIAN_POINT('',(-8.,0.,0.));
#1640=CARTESIAN_POINT('',(8.,0.,8.));
#1641=CARTESIAN_POINT('',(0.,0.,4.9));
#1642=CARTESIAN_POINT('',(-2.98019638509842,2.01951219512196,4.9));
#1643=CARTESIAN_POINT('',(-2.98019638509842,2.01951219512196,4.9));
#1644=CARTESIAN_POINT('',(0.,0.,4.9));
#1645=CARTESIAN_POINT('',(-2.98019638509842,-2.01951219512195,4.9));
#1646=CARTESIAN_POINT('',(-2.98019638509843,-2.01951219512195,4.9));
#1647=CARTESIAN_POINT('',(-2.26274169979695,-2.8,4.9));
#1648=CARTESIAN_POINT('',(-2.26274169979695,-2.8,4.9));
#1649=CARTESIAN_POINT('',(-3.39411254969543,-2.8,4.9));
#1650=CARTESIAN_POINT('',(-4.60588745030457,-2.8,4.9));
#1651=CARTESIAN_POINT('',(-4.60588745030457,-2.8,8.));
#1652=CARTESIAN_POINT('',(-3.39411254969543,-2.8,4.9));
#1653=CARTESIAN_POINT('',(-8.,0.,4.9));
#1654=CARTESIAN_POINT('',(-8.,0.,4.9));
#1655=CARTESIAN_POINT('',(-5.01980361490158,-2.01951219512195,4.9));
#1656=CARTESIAN_POINT('',(-5.01980361490158,2.01951219512196,4.9));
#1657=CARTESIAN_POINT('',(-5.01980361490158,2.01951219512196,4.9));
#1658=CARTESIAN_POINT('',(-5.01980361490158,-2.01951219512195,4.9));
#1659=CARTESIAN_POINT('',(-2.26274169979694,2.80000000000001,4.9));
#1660=CARTESIAN_POINT('',(-2.26274169979694,2.80000000000001,4.9));
#1661=CARTESIAN_POINT('',(-4.60588745030458,2.80000000000001,4.9));
#1662=CARTESIAN_POINT('',(-3.39411254969542,2.80000000000001,4.9));
#1663=CARTESIAN_POINT('',(-3.39411254969542,2.80000000000001,8.));
#1664=CARTESIAN_POINT('',(-4.60588745030458,2.80000000000001,4.9));
#1665=CARTESIAN_POINT('',(0.,0.,4.9));
#1666=CARTESIAN_POINT('',(-3.39411254969542,2.30000000000001,4.9));
#1667=CARTESIAN_POINT('',(-4.60588745030458,2.30000000000001,4.9));
#1668=CARTESIAN_POINT('',(-4.60588745030457,-2.3,4.9));
#1669=CARTESIAN_POINT('',(-3.39411254969543,-2.3,4.9));
#1670=CARTESIAN_POINT('',(-3.39411254969543,-2.3,4.9));
#1671=CARTESIAN_POINT('',(-4.60588745030457,-2.3,4.9));
#1672=CARTESIAN_POINT('',(-4.60588745030458,2.30000000000001,4.9));
#1673=CARTESIAN_POINT('',(-3.39411254969542,2.30000000000001,4.9));
#1674=MECHANICAL_DESIGN_GEOMETRIC_PRESENTATION_REPRESENTATION('',(#949),
#1675);
#1675=(
GEOMETRIC_REPRESENTATION_CONTEXT(3)
GLOBAL_UNCERTAINTY_ASSIGNED_CONTEXT((#1676))
GLOBAL_UNIT_ASSIGNED_CONTEXT((#1679,#1678,#1677))
REPRESENTATION_CONTEXT('Ye_4153707_AVV','TOP_LEVEL_ASSEMBLY_PART')
);
#1676=UNCERTAINTY_MEASURE_WITH_UNIT(LENGTH_MEASURE(0.005),#1679,
'DISTANCE_ACCURACY_VALUE','Maximum Tolerance applied to model');
#1677=(
NAMED_UNIT(*)
SI_UNIT($,.STERADIAN.)
SOLID_ANGLE_UNIT()
);
#1678=(
NAMED_UNIT(*)
PLANE_ANGLE_UNIT()
SI_UNIT($,.RADIAN.)
);
#1679=(
LENGTH_UNIT()
NAMED_UNIT(*)
SI_UNIT(.MILLI.,.METRE.)
);
#1680=PRODUCT_DEFINITION_SHAPE('','',#1681);
#1681=PRODUCT_DEFINITION('','',#1683,#1682);
#1682=PRODUCT_DEFINITION_CONTEXT('',#1689,'design');
#1683=PRODUCT_DEFINITION_FORMATION_WITH_SPECIFIED_SOURCE('','',#1685,
 .NOT_KNOWN.);
#1684=PRODUCT_RELATED_PRODUCT_CATEGORY('','',(#1685));
#1685=PRODUCT('Ye_4153707_AVV','Ye_4153707_AVV','Ye_4153707_AVV',(#1687));
#1686=PRODUCT_CATEGORY('','');
#1687=PRODUCT_CONTEXT('',#1689,'mechanical');
#1688=APPLICATION_PROTOCOL_DEFINITION('international standard',
'automotive_design',2010,#1689);
#1689=APPLICATION_CONTEXT(
'core data for automotive mechanical design processes');
ENDSEC;
END-ISO-10303-21;
