ISO-10303-21;
HEADER;
/* Generated by software containing ST-Developer
 * from STEP Tools, Inc. (www.steptools.com) 
 */
/* OPTION: strings as raw bytes, not using required /X/ escapes */

FILE_DESCRIPTION(
/* description */ ('Unknown'),
/* implementation_level */ '2;1');

FILE_NAME(
/* name */ 'Ye_4526983_MCM',
/* time_stamp */ '2025-07-22T00:09:49+02:00',
/* author */ ('Unknown'),
/* organization */ ('Unknown'),
/* preprocessor_version */ 'ST-DEVELOPER v19.4',
/* originating_system */ 'Solid Edge',
/* authorisation */ 'Unknown');

FILE_SCHEMA (('AUTOMOTIVE_DESIGN {1 0 10303 214 3 1 1}'));
ENDSEC;

DATA;
#10=PROPERTY_DEFINITION_REPRESENTATION(#14,#12);
#11=PROPERTY_DEFINITION_REPRESENTATION(#15,#13);
#12=REPRESENTATION('',(#16),#507);
#13=REPRESENTATION('',(#17),#507);
#14=PROPERTY_DEFINITION('pmi validation property','',#512);
#15=PROPERTY_DEFINITION('pmi validation property','',#512);
#16=VALUE_REPRESENTATION_ITEM('number of annotations',COUNT_MEASURE(0.));
#17=VALUE_REPRESENTATION_ITEM('number of views',COUNT_MEASURE(0.));
#18=SHAPE_REPRESENTATION_RELATIONSHIP('','',#303,#19);
#19=ADVANCED_BREP_SHAPE_REPRESENTATION('',(#301),#507);
#20=CIRCLE('',#308,2.4);
#21=CIRCLE('',#309,2.4);
#22=CIRCLE('',#311,3.6);
#23=CIRCLE('',#312,3.6);
#24=CIRCLE('',#313,3.6);
#25=CIRCLE('',#314,3.6);
#26=CIRCLE('',#315,3.6);
#27=CIRCLE('',#316,3.6);
#28=CIRCLE('',#318,3.1);
#29=CIRCLE('',#320,3.1);
#30=CIRCLE('',#322,3.1);
#31=CIRCLE('',#324,2.4);
#32=CIRCLE('',#326,3.1);
#33=CIRCLE('',#329,2.4);
#34=CIRCLE('',#331,3.1);
#35=CIRCLE('',#332,3.1);
#36=CIRCLE('',#335,3.1);
#37=CIRCLE('',#336,3.1);
#38=CYLINDRICAL_SURFACE('',#307,2.4);
#39=CYLINDRICAL_SURFACE('',#310,3.6);
#40=CYLINDRICAL_SURFACE('',#321,3.1);
#41=CYLINDRICAL_SURFACE('',#325,3.1);
#42=CYLINDRICAL_SURFACE('',#328,2.4);
#43=CYLINDRICAL_SURFACE('',#338,3.1);
#44=CYLINDRICAL_SURFACE('',#339,3.1);
#45=ORIENTED_EDGE('',*,*,#113,.T.);
#46=ORIENTED_EDGE('',*,*,#114,.T.);
#47=ORIENTED_EDGE('',*,*,#115,.F.);
#48=ORIENTED_EDGE('',*,*,#116,.F.);
#49=ORIENTED_EDGE('',*,*,#117,.F.);
#50=ORIENTED_EDGE('',*,*,#118,.T.);
#51=ORIENTED_EDGE('',*,*,#119,.T.);
#52=ORIENTED_EDGE('',*,*,#120,.F.);
#53=ORIENTED_EDGE('',*,*,#121,.F.);
#54=ORIENTED_EDGE('',*,*,#122,.T.);
#55=ORIENTED_EDGE('',*,*,#123,.T.);
#56=ORIENTED_EDGE('',*,*,#124,.T.);
#57=ORIENTED_EDGE('',*,*,#120,.T.);
#58=ORIENTED_EDGE('',*,*,#125,.T.);
#59=ORIENTED_EDGE('',*,*,#126,.T.);
#60=ORIENTED_EDGE('',*,*,#127,.T.);
#61=ORIENTED_EDGE('',*,*,#116,.T.);
#62=ORIENTED_EDGE('',*,*,#128,.T.);
#63=ORIENTED_EDGE('',*,*,#129,.F.);
#64=ORIENTED_EDGE('',*,*,#130,.T.);
#65=ORIENTED_EDGE('',*,*,#131,.T.);
#66=ORIENTED_EDGE('',*,*,#129,.T.);
#67=ORIENTED_EDGE('',*,*,#132,.T.);
#68=ORIENTED_EDGE('',*,*,#130,.F.);
#69=ORIENTED_EDGE('',*,*,#133,.T.);
#70=ORIENTED_EDGE('',*,*,#132,.F.);
#71=ORIENTED_EDGE('',*,*,#134,.T.);
#72=ORIENTED_EDGE('',*,*,#133,.F.);
#73=ORIENTED_EDGE('',*,*,#135,.T.);
#74=ORIENTED_EDGE('',*,*,#131,.F.);
#75=ORIENTED_EDGE('',*,*,#122,.F.);
#76=ORIENTED_EDGE('',*,*,#135,.F.);
#77=ORIENTED_EDGE('',*,*,#136,.F.);
#78=ORIENTED_EDGE('',*,*,#134,.F.);
#79=ORIENTED_EDGE('',*,*,#121,.T.);
#80=ORIENTED_EDGE('',*,*,#137,.T.);
#81=ORIENTED_EDGE('',*,*,#138,.T.);
#82=ORIENTED_EDGE('',*,*,#117,.T.);
#83=ORIENTED_EDGE('',*,*,#124,.F.);
#84=ORIENTED_EDGE('',*,*,#139,.F.);
#85=ORIENTED_EDGE('',*,*,#140,.T.);
#86=ORIENTED_EDGE('',*,*,#113,.F.);
#87=ORIENTED_EDGE('',*,*,#127,.F.);
#88=ORIENTED_EDGE('',*,*,#141,.F.);
#89=ORIENTED_EDGE('',*,*,#142,.T.);
#90=ORIENTED_EDGE('',*,*,#139,.T.);
#91=ORIENTED_EDGE('',*,*,#123,.F.);
#92=ORIENTED_EDGE('',*,*,#136,.T.);
#93=ORIENTED_EDGE('',*,*,#115,.T.);
#94=ORIENTED_EDGE('',*,*,#143,.F.);
#95=ORIENTED_EDGE('',*,*,#141,.T.);
#96=ORIENTED_EDGE('',*,*,#125,.F.);
#97=ORIENTED_EDGE('',*,*,#119,.F.);
#98=ORIENTED_EDGE('',*,*,#144,.F.);
#99=ORIENTED_EDGE('',*,*,#145,.F.);
#100=ORIENTED_EDGE('',*,*,#128,.F.);
#101=ORIENTED_EDGE('',*,*,#145,.T.);
#102=ORIENTED_EDGE('',*,*,#146,.T.);
#103=ORIENTED_EDGE('',*,*,#137,.F.);
#104=ORIENTED_EDGE('',*,*,#126,.F.);
#105=ORIENTED_EDGE('',*,*,#138,.F.);
#106=ORIENTED_EDGE('',*,*,#146,.F.);
#107=ORIENTED_EDGE('',*,*,#144,.T.);
#108=ORIENTED_EDGE('',*,*,#118,.F.);
#109=ORIENTED_EDGE('',*,*,#140,.F.);
#110=ORIENTED_EDGE('',*,*,#142,.F.);
#111=ORIENTED_EDGE('',*,*,#143,.T.);
#112=ORIENTED_EDGE('',*,*,#114,.F.);
#113=EDGE_CURVE('',#147,#148,#173,.T.);
#114=EDGE_CURVE('',#148,#149,#174,.T.);
#115=EDGE_CURVE('',#150,#149,#175,.T.);
#116=EDGE_CURVE('',#147,#150,#176,.T.);
#117=EDGE_CURVE('',#151,#152,#177,.T.);
#118=EDGE_CURVE('',#151,#153,#178,.T.);
#119=EDGE_CURVE('',#153,#154,#179,.T.);
#120=EDGE_CURVE('',#152,#154,#180,.T.);
#121=EDGE_CURVE('',#155,#155,#20,.T.);
#122=EDGE_CURVE('',#156,#156,#21,.F.);
#123=EDGE_CURVE('',#157,#158,#181,.F.);
#124=EDGE_CURVE('',#158,#152,#22,.T.);
#125=EDGE_CURVE('',#154,#157,#23,.T.);
#126=EDGE_CURVE('',#159,#160,#182,.F.);
#127=EDGE_CURVE('',#160,#147,#24,.T.);
#128=EDGE_CURVE('',#150,#159,#25,.T.);
#129=EDGE_CURVE('',#161,#161,#26,.T.);
#130=EDGE_CURVE('',#162,#162,#27,.T.);
#131=EDGE_CURVE('',#163,#163,#28,.T.);
#132=EDGE_CURVE('',#164,#164,#29,.T.);
#133=EDGE_CURVE('',#165,#165,#30,.T.);
#134=EDGE_CURVE('',#166,#166,#31,.T.);
#135=EDGE_CURVE('',#167,#167,#32,.T.);
#136=EDGE_CURVE('',#168,#168,#33,.T.);
#137=EDGE_CURVE('',#160,#169,#183,.T.);
#138=EDGE_CURVE('',#169,#151,#34,.T.);
#139=EDGE_CURVE('',#170,#158,#184,.T.);
#140=EDGE_CURVE('',#170,#148,#35,.T.);
#141=EDGE_CURVE('',#171,#157,#185,.T.);
#142=EDGE_CURVE('',#171,#170,#186,.F.);
#143=EDGE_CURVE('',#171,#149,#36,.T.);
#144=EDGE_CURVE('',#172,#153,#37,.T.);
#145=EDGE_CURVE('',#159,#172,#187,.T.);
#146=EDGE_CURVE('',#172,#169,#188,.F.);
#147=VERTEX_POINT('',#431);
#148=VERTEX_POINT('',#432);
#149=VERTEX_POINT('',#434);
#150=VERTEX_POINT('',#436);
#151=VERTEX_POINT('',#440);
#152=VERTEX_POINT('',#441);
#153=VERTEX_POINT('',#443);
#154=VERTEX_POINT('',#445);
#155=VERTEX_POINT('',#449);
#156=VERTEX_POINT('',#451);
#157=VERTEX_POINT('',#454);
#158=VERTEX_POINT('',#455);
#159=VERTEX_POINT('',#459);
#160=VERTEX_POINT('',#460);
#161=VERTEX_POINT('',#464);
#162=VERTEX_POINT('',#466);
#163=VERTEX_POINT('',#469);
#164=VERTEX_POINT('',#472);
#165=VERTEX_POINT('',#475);
#166=VERTEX_POINT('',#478);
#167=VERTEX_POINT('',#481);
#168=VERTEX_POINT('',#485);
#169=VERTEX_POINT('',#488);
#170=VERTEX_POINT('',#491);
#171=VERTEX_POINT('',#495);
#172=VERTEX_POINT('',#500);
#173=LINE('',#430,#189);
#174=LINE('',#433,#190);
#175=LINE('',#435,#191);
#176=LINE('',#437,#192);
#177=LINE('',#439,#193);
#178=LINE('',#442,#194);
#179=LINE('',#444,#195);
#180=LINE('',#446,#196);
#181=LINE('',#453,#197);
#182=LINE('',#458,#198);
#183=LINE('',#487,#199);
#184=LINE('',#490,#200);
#185=LINE('',#494,#201);
#186=LINE('',#496,#202);
#187=LINE('',#501,#203);
#188=LINE('',#503,#204);
#189=VECTOR('',#344,1000.);
#190=VECTOR('',#345,1000.);
#191=VECTOR('',#346,1000.);
#192=VECTOR('',#347,1000.);
#193=VECTOR('',#350,1000.);
#194=VECTOR('',#351,1000.);
#195=VECTOR('',#352,1000.);
#196=VECTOR('',#353,1000.);
#197=VECTOR('',#362,1000.);
#198=VECTOR('',#367,1000.);
#199=VECTOR('',#404,1000.);
#200=VECTOR('',#407,1000.);
#201=VECTOR('',#412,1000.);
#202=VECTOR('',#413,1000.);
#203=VECTOR('',#420,1000.);
#204=VECTOR('',#423,1000.);
#205=EDGE_LOOP('',(#45,#46,#47,#48));
#206=EDGE_LOOP('',(#49,#50,#51,#52));
#207=EDGE_LOOP('',(#53));
#208=EDGE_LOOP('',(#54));
#209=EDGE_LOOP('',(#55,#56,#57,#58));
#210=EDGE_LOOP('',(#59,#60,#61,#62));
#211=EDGE_LOOP('',(#63));
#212=EDGE_LOOP('',(#64));
#213=EDGE_LOOP('',(#65));
#214=EDGE_LOOP('',(#66));
#215=EDGE_LOOP('',(#67));
#216=EDGE_LOOP('',(#68));
#217=EDGE_LOOP('',(#69));
#218=EDGE_LOOP('',(#70));
#219=EDGE_LOOP('',(#71));
#220=EDGE_LOOP('',(#72));
#221=EDGE_LOOP('',(#73));
#222=EDGE_LOOP('',(#74));
#223=EDGE_LOOP('',(#75));
#224=EDGE_LOOP('',(#76));
#225=EDGE_LOOP('',(#77));
#226=EDGE_LOOP('',(#78));
#227=EDGE_LOOP('',(#79));
#228=EDGE_LOOP('',(#80,#81,#82,#83,#84,#85,#86,#87));
#229=EDGE_LOOP('',(#88,#89,#90,#91));
#230=EDGE_LOOP('',(#92));
#231=EDGE_LOOP('',(#93,#94,#95,#96,#97,#98,#99,#100));
#232=EDGE_LOOP('',(#101,#102,#103,#104));
#233=EDGE_LOOP('',(#105,#106,#107,#108));
#234=EDGE_LOOP('',(#109,#110,#111,#112));
#235=FACE_BOUND('',#205,.T.);
#236=FACE_BOUND('',#206,.T.);
#237=FACE_BOUND('',#207,.T.);
#238=FACE_BOUND('',#208,.T.);
#239=FACE_BOUND('',#209,.T.);
#240=FACE_BOUND('',#210,.T.);
#241=FACE_BOUND('',#211,.T.);
#242=FACE_BOUND('',#212,.T.);
#243=FACE_BOUND('',#213,.T.);
#244=FACE_BOUND('',#214,.T.);
#245=FACE_BOUND('',#215,.T.);
#246=FACE_BOUND('',#216,.T.);
#247=FACE_BOUND('',#217,.T.);
#248=FACE_BOUND('',#218,.T.);
#249=FACE_BOUND('',#219,.T.);
#250=FACE_BOUND('',#220,.T.);
#251=FACE_BOUND('',#221,.T.);
#252=FACE_BOUND('',#222,.T.);
#253=FACE_BOUND('',#223,.T.);
#254=FACE_BOUND('',#224,.T.);
#255=FACE_BOUND('',#225,.T.);
#256=FACE_BOUND('',#226,.T.);
#257=FACE_BOUND('',#227,.T.);
#258=FACE_BOUND('',#228,.T.);
#259=FACE_BOUND('',#229,.T.);
#260=FACE_BOUND('',#230,.T.);
#261=FACE_BOUND('',#231,.T.);
#262=FACE_BOUND('',#232,.T.);
#263=FACE_BOUND('',#233,.T.);
#264=FACE_BOUND('',#234,.T.);
#265=PLANE('',#305);
#266=PLANE('',#306);
#267=PLANE('',#317);
#268=PLANE('',#319);
#269=PLANE('',#323);
#270=PLANE('',#327);
#271=PLANE('',#330);
#272=PLANE('',#333);
#273=PLANE('',#334);
#274=PLANE('',#337);
#275=ADVANCED_FACE('',(#235),#265,.F.);
#276=ADVANCED_FACE('',(#236),#266,.F.);
#277=ADVANCED_FACE('',(#237,#238),#38,.F.);
#278=ADVANCED_FACE('',(#239,#240,#241,#242),#39,.T.);
#279=ADVANCED_FACE('',(#243,#244),#267,.T.);
#280=ADVANCED_FACE('',(#245,#246),#268,.F.);
#281=ADVANCED_FACE('',(#247,#248),#40,.F.);
#282=ADVANCED_FACE('',(#249,#250),#269,.F.);
#283=ADVANCED_FACE('',(#251,#252),#41,.F.);
#284=ADVANCED_FACE('',(#253,#254),#270,.F.);
#285=ADVANCED_FACE('',(#255,#256),#42,.F.);
#286=ADVANCED_FACE('',(#257,#258),#271,.F.);
#287=ADVANCED_FACE('',(#259),#272,.F.);
#288=ADVANCED_FACE('',(#260,#261),#273,.F.);
#289=ADVANCED_FACE('',(#262),#274,.F.);
#290=ADVANCED_FACE('',(#263),#43,.F.);
#291=ADVANCED_FACE('',(#264),#44,.F.);
#292=CLOSED_SHELL('',(#275,#276,#277,#278,#279,#280,#281,#282,#283,#284,
#285,#286,#287,#288,#289,#290,#291));
#293=STYLED_ITEM('',(#294),#301);
#294=PRESENTATION_STYLE_ASSIGNMENT((#295));
#295=SURFACE_STYLE_USAGE(.BOTH.,#296);
#296=SURFACE_SIDE_STYLE('',(#297));
#297=SURFACE_STYLE_FILL_AREA(#298);
#298=FILL_AREA_STYLE('',(#299));
#299=FILL_AREA_STYLE_COLOUR('',#300);
#300=COLOUR_RGB('',0.800000011920929,0.760330617427826,0.);
#301=MANIFOLD_SOLID_BREP('',#292);
#302=SHAPE_DEFINITION_REPRESENTATION(#512,#303);
#303=SHAPE_REPRESENTATION('Ye_4526983_MCM',(#304),#507);
#304=AXIS2_PLACEMENT_3D('',#428,#340,#341);
#305=AXIS2_PLACEMENT_3D('',#429,#342,#343);
#306=AXIS2_PLACEMENT_3D('',#438,#348,#349);
#307=AXIS2_PLACEMENT_3D('',#447,#354,#355);
#308=AXIS2_PLACEMENT_3D('',#448,#356,#357);
#309=AXIS2_PLACEMENT_3D('',#450,#358,#359);
#310=AXIS2_PLACEMENT_3D('',#452,#360,#361);
#311=AXIS2_PLACEMENT_3D('',#456,#363,#364);
#312=AXIS2_PLACEMENT_3D('',#457,#365,#366);
#313=AXIS2_PLACEMENT_3D('',#461,#368,#369);
#314=AXIS2_PLACEMENT_3D('',#462,#370,#371);
#315=AXIS2_PLACEMENT_3D('',#463,#372,#373);
#316=AXIS2_PLACEMENT_3D('',#465,#374,#375);
#317=AXIS2_PLACEMENT_3D('',#467,#376,#377);
#318=AXIS2_PLACEMENT_3D('',#468,#378,#379);
#319=AXIS2_PLACEMENT_3D('',#470,#380,#381);
#320=AXIS2_PLACEMENT_3D('',#471,#382,#383);
#321=AXIS2_PLACEMENT_3D('',#473,#384,#385);
#322=AXIS2_PLACEMENT_3D('',#474,#386,#387);
#323=AXIS2_PLACEMENT_3D('',#476,#388,#389);
#324=AXIS2_PLACEMENT_3D('',#477,#390,#391);
#325=AXIS2_PLACEMENT_3D('',#479,#392,#393);
#326=AXIS2_PLACEMENT_3D('',#480,#394,#395);
#327=AXIS2_PLACEMENT_3D('',#482,#396,#397);
#328=AXIS2_PLACEMENT_3D('',#483,#398,#399);
#329=AXIS2_PLACEMENT_3D('',#484,#400,#401);
#330=AXIS2_PLACEMENT_3D('',#486,#402,#403);
#331=AXIS2_PLACEMENT_3D('',#489,#405,#406);
#332=AXIS2_PLACEMENT_3D('',#492,#408,#409);
#333=AXIS2_PLACEMENT_3D('',#493,#410,#411);
#334=AXIS2_PLACEMENT_3D('',#497,#414,#415);
#335=AXIS2_PLACEMENT_3D('',#498,#416,#417);
#336=AXIS2_PLACEMENT_3D('',#499,#418,#419);
#337=AXIS2_PLACEMENT_3D('',#502,#421,#422);
#338=AXIS2_PLACEMENT_3D('',#504,#424,#425);
#339=AXIS2_PLACEMENT_3D('',#505,#426,#427);
#340=DIRECTION('',(0.,0.,1.));
#341=DIRECTION('',(1.,0.,0.));
#342=DIRECTION('',(1.,0.,0.));
#343=DIRECTION('',(0.,0.,-1.));
#344=DIRECTION('',(0.,0.,-1.));
#345=DIRECTION('',(-6.12303176911189E-17,-1.,-2.71050543121376E-16));
#346=DIRECTION('',(0.,0.,-1.));
#347=DIRECTION('',(0.,-1.,0.));
#348=DIRECTION('',(-1.,2.71050543121376E-16,0.));
#349=DIRECTION('',(-2.71050543121376E-16,-1.,0.));
#350=DIRECTION('',(0.,0.,-1.));
#351=DIRECTION('',(-6.12303176911189E-17,-1.,-2.71050543121376E-16));
#352=DIRECTION('',(0.,0.,-1.));
#353=DIRECTION('',(0.,-1.,0.));
#354=DIRECTION('',(0.,-1.,0.));
#355=DIRECTION('',(0.,0.,-1.));
#356=DIRECTION('',(-4.33680868994204E-15,1.,0.));
#357=DIRECTION('',(-1.,-4.33680868994204E-15,0.));
#358=DIRECTION('',(0.,-1.,0.));
#359=DIRECTION('',(0.,0.,-1.));
#360=DIRECTION('',(0.,-1.,0.));
#361=DIRECTION('',(0.,0.,-1.));
#362=DIRECTION('',(0.,-1.,0.));
#363=DIRECTION('',(-4.33680868994204E-15,1.,0.));
#364=DIRECTION('',(-1.,-4.33680868994204E-15,0.));
#365=DIRECTION('',(0.,-1.,0.));
#366=DIRECTION('',(0.,0.,-1.));
#367=DIRECTION('',(0.,-1.,0.));
#368=DIRECTION('',(-4.33680868994204E-15,1.,0.));
#369=DIRECTION('',(-1.,-4.33680868994204E-15,0.));
#370=DIRECTION('',(0.,-1.,0.));
#371=DIRECTION('',(0.,0.,-1.));
#372=DIRECTION('',(0.,1.,0.));
#373=DIRECTION('',(1.,0.,0.));
#374=DIRECTION('',(0.,1.,0.));
#375=DIRECTION('',(1.,0.,0.));
#376=DIRECTION('',(0.,1.,0.));
#377=DIRECTION('',(0.,0.,1.));
#378=DIRECTION('',(0.,-1.,0.));
#379=DIRECTION('',(-1.,0.,0.));
#380=DIRECTION('',(0.,1.,0.));
#381=DIRECTION('',(0.,0.,1.));
#382=DIRECTION('',(0.,1.,0.));
#383=DIRECTION('',(1.,0.,0.));
#384=DIRECTION('',(0.,-1.,0.));
#385=DIRECTION('',(0.,0.,-1.));
#386=DIRECTION('',(0.,1.,0.));
#387=DIRECTION('',(1.,0.,0.));
#388=DIRECTION('',(0.,1.,0.));
#389=DIRECTION('',(0.,0.,1.));
#390=DIRECTION('',(0.,1.,0.));
#391=DIRECTION('',(1.,0.,0.));
#392=DIRECTION('',(0.,1.,0.));
#393=DIRECTION('',(0.,0.,1.));
#394=DIRECTION('',(0.,-1.,0.));
#395=DIRECTION('',(-1.,0.,0.));
#396=DIRECTION('',(0.,-1.,0.));
#397=DIRECTION('',(0.,0.,-1.));
#398=DIRECTION('',(0.,-1.,0.));
#399=DIRECTION('',(0.,0.,-1.));
#400=DIRECTION('',(0.,-1.,0.));
#401=DIRECTION('',(0.,0.,-1.));
#402=DIRECTION('',(-4.33680868994204E-15,1.,0.));
#403=DIRECTION('',(-1.,-4.33680868994204E-15,0.));
#404=DIRECTION('',(0.,0.,-1.));
#405=DIRECTION('',(-6.12303176911189E-17,-1.,-2.71050543121376E-16));
#406=DIRECTION('',(0.,2.71050543121376E-16,-1.));
#407=DIRECTION('',(0.,0.,-1.));
#408=DIRECTION('',(-6.12303176911189E-17,-1.,-2.71050543121376E-16));
#409=DIRECTION('',(0.,2.71050543121376E-16,-1.));
#410=DIRECTION('',(1.,0.,0.));
#411=DIRECTION('',(0.,0.,-1.));
#412=DIRECTION('',(0.,0.,-1.));
#413=DIRECTION('',(-6.12303176911189E-17,-1.,-2.71050543121376E-16));
#414=DIRECTION('',(0.,-1.,0.));
#415=DIRECTION('',(0.,0.,-1.));
#416=DIRECTION('',(-6.12303176911189E-17,-1.,-2.71050543121376E-16));
#417=DIRECTION('',(0.,2.71050543121376E-16,-1.));
#418=DIRECTION('',(-6.12303176911189E-17,-1.,-2.71050543121376E-16));
#419=DIRECTION('',(0.,2.71050543121376E-16,-1.));
#420=DIRECTION('',(0.,0.,-1.));
#421=DIRECTION('',(-1.,2.71050543121376E-16,0.));
#422=DIRECTION('',(-2.71050543121376E-16,-1.,0.));
#423=DIRECTION('',(-6.12303176911189E-17,-1.,-2.71050543121376E-16));
#424=DIRECTION('',(-6.12303176911189E-17,-1.,-2.71050543121376E-16));
#425=DIRECTION('',(0.,2.71050543121376E-16,-1.));
#426=DIRECTION('',(-6.12303176911189E-17,-1.,-2.71050543121376E-16));
#427=DIRECTION('',(0.,2.71050543121376E-16,-1.));
#428=CARTESIAN_POINT('',(0.,0.,0.));
#429=CARTESIAN_POINT('',(2.4,8.8,30.));
#430=CARTESIAN_POINT('',(2.4,8.8,30.));
#431=CARTESIAN_POINT('',(2.4,8.8,2.68328157299975));
#432=CARTESIAN_POINT('',(2.4,8.8,1.96214168703486));
#433=CARTESIAN_POINT('',(2.4,7.2,1.96214168703486));
#434=CARTESIAN_POINT('',(2.4,7.2,1.96214168703486));
#435=CARTESIAN_POINT('',(2.4,7.2,30.));
#436=CARTESIAN_POINT('',(2.4,7.2,2.68328157299975));
#437=CARTESIAN_POINT('',(2.4,16.,2.68328157299975));
#438=CARTESIAN_POINT('',(-2.4,8.8,30.));
#439=CARTESIAN_POINT('',(-2.4,8.8,30.));
#440=CARTESIAN_POINT('',(-2.4,8.8,-1.96214168703485));
#441=CARTESIAN_POINT('',(-2.4,8.8,-2.68328157299975));
#442=CARTESIAN_POINT('',(-2.4,7.2,-1.96214168703485));
#443=CARTESIAN_POINT('',(-2.4,7.2,-1.96214168703485));
#444=CARTESIAN_POINT('',(-2.4,7.2,30.));
#445=CARTESIAN_POINT('',(-2.4,7.2,-2.68328157299975));
#446=CARTESIAN_POINT('',(-2.4,16.,-2.68328157299975));
#447=CARTESIAN_POINT('',(0.,20.8,0.));
#448=CARTESIAN_POINT('',(0.,8.79999999999999,0.));
#449=CARTESIAN_POINT('',(-2.4,8.79999999999998,0.));
#450=CARTESIAN_POINT('',(0.,15.2,0.));
#451=CARTESIAN_POINT('',(0.,15.2,-2.4));
#452=CARTESIAN_POINT('',(0.,16.,0.));
#453=CARTESIAN_POINT('',(2.4,16.,-2.68328157299975));
#454=CARTESIAN_POINT('',(2.4,7.2,-2.68328157299975));
#455=CARTESIAN_POINT('',(2.4,8.8,-2.68328157299975));
#456=CARTESIAN_POINT('',(0.,8.79999999999999,0.));
#457=CARTESIAN_POINT('',(0.,7.2,0.));
#458=CARTESIAN_POINT('',(-2.4,16.,2.68328157299975));
#459=CARTESIAN_POINT('',(-2.4,7.2,2.68328157299975));
#460=CARTESIAN_POINT('',(-2.4,8.8,2.68328157299975));
#461=CARTESIAN_POINT('',(0.,8.79999999999999,0.));
#462=CARTESIAN_POINT('',(0.,7.2,0.));
#463=CARTESIAN_POINT('',(0.,16.,0.));
#464=CARTESIAN_POINT('',(3.6,16.,0.));
#465=CARTESIAN_POINT('',(0.,0.,0.));
#466=CARTESIAN_POINT('',(3.6,0.,0.));
#467=CARTESIAN_POINT('',(0.,16.,0.));
#468=CARTESIAN_POINT('',(0.,16.,0.));
#469=CARTESIAN_POINT('',(-3.1,16.,0.));
#470=CARTESIAN_POINT('',(0.,0.,0.));
#471=CARTESIAN_POINT('',(0.,0.,0.));
#472=CARTESIAN_POINT('',(3.1,0.,0.));
#473=CARTESIAN_POINT('',(0.,0.8,0.));
#474=CARTESIAN_POINT('',(0.,0.8,0.));
#475=CARTESIAN_POINT('',(3.1,0.8,0.));
#476=CARTESIAN_POINT('',(0.,0.8,0.));
#477=CARTESIAN_POINT('',(0.,0.8,0.));
#478=CARTESIAN_POINT('',(2.4,0.8,0.));
#479=CARTESIAN_POINT('',(0.,15.2,0.));
#480=CARTESIAN_POINT('',(0.,15.2,0.));
#481=CARTESIAN_POINT('',(-3.1,15.2,0.));
#482=CARTESIAN_POINT('',(0.,15.2,0.));
#483=CARTESIAN_POINT('',(0.,20.8,0.));
#484=CARTESIAN_POINT('',(0.,7.2,0.));
#485=CARTESIAN_POINT('',(0.,7.2,-2.4));
#486=CARTESIAN_POINT('',(2.,8.8,30.));
#487=CARTESIAN_POINT('',(-2.4,8.8,30.));
#488=CARTESIAN_POINT('',(-2.4,8.8,1.96214168703486));
#489=CARTESIAN_POINT('',(5.38826795681846E-16,8.8,4.33680868994202E-15));
#490=CARTESIAN_POINT('',(2.4,8.8,30.));
#491=CARTESIAN_POINT('',(2.4,8.8,-1.96214168703485));
#492=CARTESIAN_POINT('',(5.38826795681846E-16,8.8,4.33680868994202E-15));
#493=CARTESIAN_POINT('',(2.4,8.8,30.));
#494=CARTESIAN_POINT('',(2.4,7.2,30.));
#495=CARTESIAN_POINT('',(2.4,7.2,-1.96214168703485));
#496=CARTESIAN_POINT('',(2.4,7.2,-1.96214168703485));
#497=CARTESIAN_POINT('',(-2.4,7.2,30.));
#498=CARTESIAN_POINT('',(4.40858287376056E-16,7.2,3.90312782094782E-15));
#499=CARTESIAN_POINT('',(4.40858287376056E-16,7.2,3.90312782094782E-15));
#500=CARTESIAN_POINT('',(-2.4,7.2,1.96214168703486));
#501=CARTESIAN_POINT('',(-2.4,7.2,30.));
#502=CARTESIAN_POINT('',(-2.4,8.8,30.));
#503=CARTESIAN_POINT('',(-2.4,7.2,1.96214168703486));
#504=CARTESIAN_POINT('',(4.40858287376056E-16,7.2,3.90312782094782E-15));
#505=CARTESIAN_POINT('',(4.40858287376056E-16,7.2,3.90312782094782E-15));
#506=MECHANICAL_DESIGN_GEOMETRIC_PRESENTATION_REPRESENTATION('',(#293),
#507);
#507=(
GEOMETRIC_REPRESENTATION_CONTEXT(3)
GLOBAL_UNCERTAINTY_ASSIGNED_CONTEXT((#508))
GLOBAL_UNIT_ASSIGNED_CONTEXT((#511,#510,#509))
REPRESENTATION_CONTEXT('Ye_4526983_MCM','TOP_LEVEL_ASSEMBLY_PART')
);
#508=UNCERTAINTY_MEASURE_WITH_UNIT(LENGTH_MEASURE(0.005),#511,
'DISTANCE_ACCURACY_VALUE','Maximum Tolerance applied to model');
#509=(
NAMED_UNIT(*)
SI_UNIT($,.STERADIAN.)
SOLID_ANGLE_UNIT()
);
#510=(
NAMED_UNIT(*)
PLANE_ANGLE_UNIT()
SI_UNIT($,.RADIAN.)
);
#511=(
LENGTH_UNIT()
NAMED_UNIT(*)
SI_UNIT(.MILLI.,.METRE.)
);
#512=PRODUCT_DEFINITION_SHAPE('','',#513);
#513=PRODUCT_DEFINITION('','',#515,#514);
#514=PRODUCT_DEFINITION_CONTEXT('',#521,'design');
#515=PRODUCT_DEFINITION_FORMATION_WITH_SPECIFIED_SOURCE('','',#517,
 .NOT_KNOWN.);
#516=PRODUCT_RELATED_PRODUCT_CATEGORY('','',(#517));
#517=PRODUCT('Ye_4526983_MCM','Ye_4526983_MCM','Ye_4526983_MCM',(#519));
#518=PRODUCT_CATEGORY('','');
#519=PRODUCT_CONTEXT('',#521,'mechanical');
#520=APPLICATION_PROTOCOL_DEFINITION('international standard',
'automotive_design',2010,#521);
#521=APPLICATION_CONTEXT(
'core data for automotive mechanical design processes');
ENDSEC;
END-ISO-10303-21;
