ISO-10303-21;
HEADER;
/* Generated by software containing ST-Developer
 * from STEP Tools, Inc. (www.steptools.com) 
 */
/* OPTION: strings as raw bytes, not using required /X/ escapes */

FILE_DESCRIPTION(
/* description */ ('Unknown'),
/* implementation_level */ '2;1');

FILE_NAME(
/* name */ 'Black_4640742_AVV',
/* time_stamp */ '2025-07-21T23:48:51+02:00',
/* author */ ('Unknown'),
/* organization */ ('Unknown'),
/* preprocessor_version */ 'ST-DEVELOPER v19.4',
/* originating_system */ 'Unknown',
/* authorisation */ 'OpenTools');

FILE_SCHEMA (('IFC2X3'));
ENDSEC;

DATA;
#10=IFCPROPERTYSINGLEVALUE('ProjectName',$,IFCTEXT(''),$);
#11=IFCPROPERTYSINGLEVALUE('PartNumber',$,IFCTEXT(''),$);
#12=IFCRELDEFINESBYPROPERTIES('3cRq1JQpSwDOm5lsE5cG83',#1509,$,$,(#14),
#13);
#13=IFCPROPERTYSET('1jOd4kXgWorA4TVRi95rqH',#1509,
'empty property set name',$,(#10,#11));
#14=IFCBUILDINGELEMENTPROXY('2GP_XOK7Wq1Pa1NGQTVWHM',#1509,
'Black_4640742_AVV',' ','Black_4640742_AVV',#19,#15,' ',.ELEMENT.);
#15=IFCPRODUCTDEFINITIONSHAPE(' ',' ',(#25));
#16=IFCRELCONTAINEDINSPATIALSTRUCTURE('3HZhfx2I0vj9Cvp1GHER_f',#1509,
' ',' ',(#14),#20);
#17=IFCRELAGGREGATES('1jF0XzMGqvEA6wZwPLSawz',#1509,$,$,#1209,(#20));
#18=IFCLOCALPLACEMENT($,#1212);
#19=IFCLOCALPLACEMENT(#18,#1213);
#20=IFCBUILDING('3G2N19bOG__grq1LV0cQPU',#1509,'Default Building',$,$,#18,
$,$,.ELEMENT.,0.,0.,$);
#21=IFCCARTESIANTRANSFORMATIONOPERATOR3D($,$,#1502,1.,$);
#22=IFCMAPPEDITEM(#23,#21);
#23=IFCREPRESENTATIONMAP(#1212,#24);
#24=IFCSHAPEREPRESENTATION(#1211,'Body','Brep',(#1208));
#25=IFCSHAPEREPRESENTATION(#1211,'Body','MappedRepresentation',(#22));
#26=IFCPOLYLOOP((#1219,#1220,#1221,#1222,#1223,#1224,#1225,#1226,#1227,
#1228,#1229,#1230,#1231,#1232,#1233,#1234));
#27=IFCPOLYLOOP((#1223,#1222,#1235));
#28=IFCPOLYLOOP((#1235,#1236,#1223));
#29=IFCPOLYLOOP((#1222,#1237,#1235));
#30=IFCPOLYLOOP((#1224,#1223,#1238));
#31=IFCPOLYLOOP((#1238,#1239,#1224));
#32=IFCPOLYLOOP((#1225,#1224,#1240));
#33=IFCPOLYLOOP((#1240,#1241,#1225));
#34=IFCPOLYLOOP((#1225,#1242,#1243));
#35=IFCPOLYLOOP((#1243,#1226,#1225));
#36=IFCPOLYLOOP((#1225,#1244,#1242));
#37=IFCPOLYLOOP((#1226,#1245,#1246));
#38=IFCPOLYLOOP((#1226,#1247,#1245));
#39=IFCPOLYLOOP((#1246,#1227,#1226));
#40=IFCPOLYLOOP((#1227,#1248,#1249));
#41=IFCPOLYLOOP((#1227,#1250,#1248));
#42=IFCPOLYLOOP((#1228,#1251,#1252));
#43=IFCPOLYLOOP((#1252,#1229,#1228));
#44=IFCPOLYLOOP((#1228,#1249,#1251));
#45=IFCPOLYLOOP((#1229,#1253,#1254));
#46=IFCPOLYLOOP((#1229,#1255,#1253));
#47=IFCPOLYLOOP((#1254,#1230,#1229));
#48=IFCPOLYLOOP((#1230,#1256,#1257));
#49=IFCPOLYLOOP((#1230,#1258,#1259));
#50=IFCPOLYLOOP((#1259,#1256,#1230));
#51=IFCPOLYLOOP((#1231,#1260,#1261));
#52=IFCPOLYLOOP((#1261,#1232,#1231));
#53=IFCPOLYLOOP((#1231,#1257,#1260));
#54=IFCPOLYLOOP((#1232,#1262,#1263));
#55=IFCPOLYLOOP((#1263,#1233,#1232));
#56=IFCPOLYLOOP((#1233,#1264,#1265));
#57=IFCPOLYLOOP((#1233,#1266,#1264));
#58=IFCPOLYLOOP((#1265,#1234,#1233));
#59=IFCPOLYLOOP((#1219,#1267,#1268));
#60=IFCPOLYLOOP((#1234,#1269,#1267));
#61=IFCPOLYLOOP((#1267,#1219,#1234));
#62=IFCPOLYLOOP((#1219,#1270,#1271));
#63=IFCPOLYLOOP((#1271,#1220,#1219));
#64=IFCPOLYLOOP((#1220,#1272,#1273));
#65=IFCPOLYLOOP((#1273,#1221,#1220));
#66=IFCPOLYLOOP((#1222,#1221,#1274));
#67=IFCPOLYLOOP((#1274,#1275,#1222));
#68=IFCPOLYLOOP((#1221,#1276,#1274));
#69=IFCPOLYLOOP((#1275,#1237,#1222));
#70=IFCPOLYLOOP((#1273,#1276,#1221));
#71=IFCPOLYLOOP((#1271,#1272,#1220));
#72=IFCPOLYLOOP((#1268,#1270,#1219));
#73=IFCPOLYLOOP((#1265,#1269,#1234));
#74=IFCPOLYLOOP((#1263,#1266,#1233));
#75=IFCPOLYLOOP((#1261,#1262,#1232));
#76=IFCPOLYLOOP((#1257,#1231,#1230));
#77=IFCPOLYLOOP((#1254,#1258,#1230));
#78=IFCPOLYLOOP((#1252,#1255,#1229));
#79=IFCPOLYLOOP((#1249,#1228,#1227));
#80=IFCPOLYLOOP((#1246,#1250,#1227));
#81=IFCPOLYLOOP((#1243,#1247,#1226));
#82=IFCPOLYLOOP((#1241,#1244,#1225));
#83=IFCPOLYLOOP((#1239,#1240,#1224));
#84=IFCPOLYLOOP((#1236,#1238,#1223));
#85=IFCPOLYLOOP((#1253,#1255,#1277));
#86=IFCPOLYLOOP((#1278,#1258,#1254));
#87=IFCPOLYLOOP((#1254,#1253,#1278));
#88=IFCPOLYLOOP((#1255,#1252,#1279));
#89=IFCPOLYLOOP((#1252,#1251,#1280));
#90=IFCPOLYLOOP((#1280,#1251,#1249));
#91=IFCPOLYLOOP((#1249,#1281,#1280));
#92=IFCPOLYLOOP((#1249,#1248,#1281));
#93=IFCPOLYLOOP((#1250,#1246,#1282));
#94=IFCPOLYLOOP((#1281,#1248,#1250));
#95=IFCPOLYLOOP((#1283,#1282,#1245));
#96=IFCPOLYLOOP((#1282,#1246,#1245));
#97=IFCPOLYLOOP((#1243,#1284,#1283));
#98=IFCPOLYLOOP((#1283,#1247,#1243));
#99=IFCPOLYLOOP((#1244,#1285,#1284));
#100=IFCPOLYLOOP((#1284,#1242,#1244));
#101=IFCPOLYLOOP((#1240,#1286,#1285));
#102=IFCPOLYLOOP((#1285,#1241,#1240));
#103=IFCPOLYLOOP((#1238,#1287,#1286));
#104=IFCPOLYLOOP((#1288,#1287,#1238));
#105=IFCPOLYLOOP((#1235,#1289,#1288));
#106=IFCPOLYLOOP((#1288,#1236,#1235));
#107=IFCPOLYLOOP((#1275,#1290,#1289));
#108=IFCPOLYLOOP((#1289,#1237,#1275));
#109=IFCPOLYLOOP((#1291,#1290,#1274));
#110=IFCPOLYLOOP((#1273,#1292,#1291));
#111=IFCPOLYLOOP((#1272,#1293,#1292));
#112=IFCPOLYLOOP((#1292,#1273,#1272));
#113=IFCPOLYLOOP((#1294,#1293,#1271));
#114=IFCPOLYLOOP((#1271,#1270,#1294));
#115=IFCPOLYLOOP((#1294,#1268,#1267));
#116=IFCPOLYLOOP((#1267,#1295,#1294));
#117=IFCPOLYLOOP((#1265,#1264,#1296));
#118=IFCPOLYLOOP((#1295,#1269,#1265));
#119=IFCPOLYLOOP((#1296,#1266,#1263));
#120=IFCPOLYLOOP((#1296,#1264,#1266));
#121=IFCPOLYLOOP((#1262,#1261,#1297));
#122=IFCPOLYLOOP((#1298,#1263,#1262));
#123=IFCPOLYLOOP((#1261,#1260,#1299));
#124=IFCPOLYLOOP((#1299,#1260,#1257));
#125=IFCPOLYLOOP((#1259,#1258,#1278));
#126=IFCPOLYLOOP((#1300,#1257,#1256));
#127=IFCPOLYLOOP((#1256,#1259,#1300));
#128=IFCPOLYLOOP((#1278,#1300,#1259));
#129=IFCPOLYLOOP((#1257,#1300,#1299));
#130=IFCPOLYLOOP((#1299,#1297,#1261));
#131=IFCPOLYLOOP((#1297,#1298,#1262));
#132=IFCPOLYLOOP((#1263,#1298,#1296));
#133=IFCPOLYLOOP((#1296,#1295,#1265));
#134=IFCPOLYLOOP((#1267,#1269,#1295));
#135=IFCPOLYLOOP((#1270,#1268,#1294));
#136=IFCPOLYLOOP((#1272,#1271,#1293));
#137=IFCPOLYLOOP((#1291,#1276,#1273));
#138=IFCPOLYLOOP((#1274,#1276,#1291));
#139=IFCPOLYLOOP((#1275,#1274,#1290));
#140=IFCPOLYLOOP((#1235,#1237,#1289));
#141=IFCPOLYLOOP((#1238,#1236,#1288));
#142=IFCPOLYLOOP((#1286,#1239,#1238));
#143=IFCPOLYLOOP((#1240,#1239,#1286));
#144=IFCPOLYLOOP((#1244,#1241,#1285));
#145=IFCPOLYLOOP((#1243,#1242,#1284));
#146=IFCPOLYLOOP((#1245,#1247,#1283));
#147=IFCPOLYLOOP((#1282,#1281,#1250));
#148=IFCPOLYLOOP((#1280,#1279,#1252));
#149=IFCPOLYLOOP((#1279,#1277,#1255));
#150=IFCPOLYLOOP((#1277,#1278,#1253));
#151=IFCPOLYLOOP((#1301,#1302,#1303,#1304));
#152=IFCPOLYLOOP((#1305,#1306,#1307,#1308));
#153=IFCPOLYLOOP((#1309,#1310,#1311,#1312));
#154=IFCPOLYLOOP((#1308,#1311,#1310,#1305));
#155=IFCPOLYLOOP((#1304,#1307,#1306,#1301));
#156=IFCPOLYLOOP((#1313,#1314,#1315,#1316));
#157=IFCPOLYLOOP((#1317,#1318,#1319,#1320));
#158=IFCPOLYLOOP((#1316,#1319,#1318,#1313));
#159=IFCPOLYLOOP((#1321,#1322,#1323,#1324));
#160=IFCPOLYLOOP((#1320,#1323,#1322,#1317));
#161=IFCPOLYLOOP((#1312,#1315,#1314,#1309));
#162=IFCPOLYLOOP((#1325,#1326,#1327,#1328));
#163=IFCPOLYLOOP((#1329,#1330,#1331,#1332));
#164=IFCPOLYLOOP((#1333,#1334,#1335,#1336));
#165=IFCPOLYLOOP((#1332,#1335,#1334,#1329));
#166=IFCPOLYLOOP((#1328,#1331,#1330,#1325));
#167=IFCPOLYLOOP((#1337,#1338,#1339,#1340));
#168=IFCPOLYLOOP((#1341,#1342,#1343,#1344));
#169=IFCPOLYLOOP((#1340,#1343,#1342,#1337));
#170=IFCPOLYLOOP((#1345,#1346,#1347,#1348));
#171=IFCPOLYLOOP((#1344,#1347,#1346,#1341));
#172=IFCPOLYLOOP((#1336,#1339,#1338,#1333));
#173=IFCPOLYLOOP((#1349,#1350,#1302,#1301));
#174=IFCPOLYLOOP((#1351,#1352,#1306,#1305));
#175=IFCPOLYLOOP((#1353,#1354,#1310,#1309));
#176=IFCPOLYLOOP((#1305,#1310,#1354,#1351));
#177=IFCPOLYLOOP((#1301,#1306,#1352,#1349));
#178=IFCPOLYLOOP((#1355,#1356,#1314,#1313));
#179=IFCPOLYLOOP((#1357,#1358,#1318,#1317));
#180=IFCPOLYLOOP((#1313,#1318,#1358,#1355));
#181=IFCPOLYLOOP((#1359,#1360,#1322,#1321));
#182=IFCPOLYLOOP((#1317,#1322,#1360,#1357));
#183=IFCPOLYLOOP((#1309,#1314,#1356,#1353));
#184=IFCPOLYLOOP((#1361,#1362,#1326,#1325));
#185=IFCPOLYLOOP((#1363,#1364,#1330,#1329));
#186=IFCPOLYLOOP((#1365,#1366,#1334,#1333));
#187=IFCPOLYLOOP((#1329,#1334,#1366,#1363));
#188=IFCPOLYLOOP((#1325,#1330,#1364,#1361));
#189=IFCPOLYLOOP((#1367,#1368,#1338,#1337));
#190=IFCPOLYLOOP((#1369,#1370,#1342,#1341));
#191=IFCPOLYLOOP((#1337,#1342,#1370,#1367));
#192=IFCPOLYLOOP((#1371,#1372,#1346,#1345));
#193=IFCPOLYLOOP((#1341,#1346,#1372,#1369));
#194=IFCPOLYLOOP((#1333,#1338,#1368,#1365));
#195=IFCPOLYLOOP((#1282,#1283,#1350,#1349));
#196=IFCPOLYLOOP((#1280,#1281,#1352,#1351));
#197=IFCPOLYLOOP((#1277,#1279,#1354,#1353));
#198=IFCPOLYLOOP((#1351,#1354,#1279,#1280));
#199=IFCPOLYLOOP((#1349,#1352,#1281,#1282));
#200=IFCPOLYLOOP((#1300,#1278,#1356,#1355));
#201=IFCPOLYLOOP((#1297,#1299,#1358,#1357));
#202=IFCPOLYLOOP((#1355,#1358,#1299,#1300));
#203=IFCPOLYLOOP((#1296,#1298,#1360,#1359));
#204=IFCPOLYLOOP((#1357,#1360,#1298,#1297));
#205=IFCPOLYLOOP((#1353,#1356,#1278,#1277));
#206=IFCPOLYLOOP((#1294,#1295,#1362,#1361));
#207=IFCPOLYLOOP((#1292,#1293,#1364,#1363));
#208=IFCPOLYLOOP((#1290,#1291,#1366,#1365));
#209=IFCPOLYLOOP((#1363,#1366,#1291,#1292));
#210=IFCPOLYLOOP((#1361,#1364,#1293,#1294));
#211=IFCPOLYLOOP((#1288,#1289,#1368,#1367));
#212=IFCPOLYLOOP((#1286,#1287,#1370,#1369));
#213=IFCPOLYLOOP((#1367,#1370,#1287,#1288));
#214=IFCPOLYLOOP((#1284,#1285,#1372,#1371));
#215=IFCPOLYLOOP((#1369,#1372,#1285,#1286));
#216=IFCPOLYLOOP((#1365,#1368,#1289,#1290));
#217=IFCPOLYLOOP((#1324,#1327,#1326,#1321));
#218=IFCPOLYLOOP((#1348,#1303,#1302,#1345));
#219=IFCPOLYLOOP((#1321,#1326,#1362,#1359));
#220=IFCPOLYLOOP((#1345,#1302,#1350,#1371));
#221=IFCPOLYLOOP((#1359,#1362,#1295,#1296));
#222=IFCPOLYLOOP((#1371,#1350,#1283,#1284));
#223=IFCPOLYLOOP((#1373,#1374,#1375));
#224=IFCPOLYLOOP((#1376,#1377,#1373));
#225=IFCPOLYLOOP((#1378,#1379,#1380));
#226=IFCPOLYLOOP((#1380,#1374,#1381));
#227=IFCPOLYLOOP((#1382,#1383,#1384));
#228=IFCPOLYLOOP((#1379,#1378,#1382));
#229=IFCPOLYLOOP((#1385,#1384,#1383));
#230=IFCPOLYLOOP((#1383,#1386,#1385));
#231=IFCPOLYLOOP((#1387,#1385,#1388));
#232=IFCPOLYLOOP((#1385,#1389,#1388));
#233=IFCPOLYLOOP((#1390,#1391,#1392));
#234=IFCPOLYLOOP((#1387,#1393,#1390));
#235=IFCPOLYLOOP((#1394,#1392,#1395));
#236=IFCPOLYLOOP((#1392,#1391,#1395));
#237=IFCPOLYLOOP((#1394,#1396,#1397));
#238=IFCPOLYLOOP((#1397,#1398,#1394));
#239=IFCPOLYLOOP((#1399,#1400,#1401));
#240=IFCPOLYLOOP((#1400,#1402,#1401));
#241=IFCPOLYLOOP((#1399,#1403,#1404));
#242=IFCPOLYLOOP((#1404,#1405,#1399));
#243=IFCPOLYLOOP((#1405,#1406,#1407));
#244=IFCPOLYLOOP((#1405,#1408,#1406));
#245=IFCPOLYLOOP((#1409,#1410,#1411));
#246=IFCPOLYLOOP((#1411,#1407,#1409));
#247=IFCPOLYLOOP((#1412,#1413,#1410));
#248=IFCPOLYLOOP((#1414,#1415,#1416));
#249=IFCPOLYLOOP((#1413,#1412,#1414));
#250=IFCPOLYLOOP((#1417,#1416,#1415));
#251=IFCPOLYLOOP((#1415,#1418,#1417));
#252=IFCPOLYLOOP((#1417,#1419,#1420));
#253=IFCPOLYLOOP((#1421,#1422,#1423));
#254=IFCPOLYLOOP((#1423,#1424,#1421));
#255=IFCPOLYLOOP((#1421,#1420,#1422));
#256=IFCPOLYLOOP((#1425,#1424,#1426));
#257=IFCPOLYLOOP((#1424,#1427,#1426));
#258=IFCPOLYLOOP((#1428,#1429,#1425));
#259=IFCPOLYLOOP((#1425,#1430,#1428));
#260=IFCPOLYLOOP((#1431,#1432,#1433));
#261=IFCPOLYLOOP((#1433,#1429,#1431));
#262=IFCPOLYLOOP((#1434,#1376,#1435));
#263=IFCPOLYLOOP((#1435,#1436,#1434));
#264=IFCPOLYLOOP((#1434,#1377,#1376));
#265=IFCPOLYLOOP((#1436,#1435,#1433));
#266=IFCPOLYLOOP((#1432,#1436,#1433));
#267=IFCPOLYLOOP((#1428,#1431,#1429));
#268=IFCPOLYLOOP((#1426,#1430,#1425));
#269=IFCPOLYLOOP((#1423,#1427,#1424));
#270=IFCPOLYLOOP((#1420,#1421,#1417));
#271=IFCPOLYLOOP((#1418,#1419,#1417));
#272=IFCPOLYLOOP((#1416,#1413,#1414));
#273=IFCPOLYLOOP((#1410,#1437,#1412));
#274=IFCPOLYLOOP((#1409,#1437,#1410));
#275=IFCPOLYLOOP((#1407,#1411,#1405));
#276=IFCPOLYLOOP((#1404,#1408,#1405));
#277=IFCPOLYLOOP((#1401,#1403,#1399));
#278=IFCPOLYLOOP((#1402,#1400,#1398));
#279=IFCPOLYLOOP((#1397,#1402,#1398));
#280=IFCPOLYLOOP((#1395,#1396,#1394));
#281=IFCPOLYLOOP((#1392,#1387,#1390));
#282=IFCPOLYLOOP((#1388,#1393,#1387));
#283=IFCPOLYLOOP((#1386,#1389,#1385));
#284=IFCPOLYLOOP((#1384,#1379,#1382));
#285=IFCPOLYLOOP((#1380,#1381,#1378));
#286=IFCPOLYLOOP((#1374,#1380,#1375));
#287=IFCPOLYLOOP((#1375,#1376,#1373));
#288=IFCPOLYLOOP((#1392,#1438,#1439,#1387));
#289=IFCPOLYLOOP((#1438,#1440,#1441,#1439));
#290=IFCPOLYLOOP((#1440,#1328,#1327,#1441));
#291=IFCPOLYLOOP((#1394,#1442,#1438,#1392));
#292=IFCPOLYLOOP((#1442,#1443,#1440,#1438));
#293=IFCPOLYLOOP((#1443,#1331,#1328,#1440));
#294=IFCPOLYLOOP((#1398,#1444,#1442,#1394));
#295=IFCPOLYLOOP((#1444,#1445,#1443,#1442));
#296=IFCPOLYLOOP((#1445,#1332,#1331,#1443));
#297=IFCPOLYLOOP((#1400,#1446,#1444,#1398));
#298=IFCPOLYLOOP((#1446,#1447,#1445,#1444));
#299=IFCPOLYLOOP((#1447,#1335,#1332,#1445));
#300=IFCPOLYLOOP((#1399,#1448,#1446,#1400));
#301=IFCPOLYLOOP((#1448,#1449,#1447,#1446));
#302=IFCPOLYLOOP((#1449,#1336,#1335,#1447));
#303=IFCPOLYLOOP((#1405,#1450,#1448,#1399));
#304=IFCPOLYLOOP((#1450,#1451,#1449,#1448));
#305=IFCPOLYLOOP((#1451,#1339,#1336,#1449));
#306=IFCPOLYLOOP((#1411,#1452,#1450,#1405));
#307=IFCPOLYLOOP((#1452,#1453,#1451,#1450));
#308=IFCPOLYLOOP((#1453,#1340,#1339,#1451));
#309=IFCPOLYLOOP((#1410,#1454,#1452,#1411));
#310=IFCPOLYLOOP((#1454,#1455,#1453,#1452));
#311=IFCPOLYLOOP((#1455,#1343,#1340,#1453));
#312=IFCPOLYLOOP((#1413,#1456,#1454,#1410));
#313=IFCPOLYLOOP((#1456,#1457,#1455,#1454));
#314=IFCPOLYLOOP((#1457,#1344,#1343,#1455));
#315=IFCPOLYLOOP((#1416,#1458,#1456,#1413));
#316=IFCPOLYLOOP((#1458,#1459,#1457,#1456));
#317=IFCPOLYLOOP((#1459,#1347,#1344,#1457));
#318=IFCPOLYLOOP((#1417,#1460,#1458,#1416));
#319=IFCPOLYLOOP((#1460,#1461,#1459,#1458));
#320=IFCPOLYLOOP((#1461,#1348,#1347,#1459));
#321=IFCPOLYLOOP((#1421,#1462,#1460,#1417));
#322=IFCPOLYLOOP((#1462,#1463,#1461,#1460));
#323=IFCPOLYLOOP((#1463,#1303,#1348,#1461));
#324=IFCPOLYLOOP((#1424,#1464,#1462,#1421));
#325=IFCPOLYLOOP((#1464,#1465,#1463,#1462));
#326=IFCPOLYLOOP((#1465,#1304,#1303,#1463));
#327=IFCPOLYLOOP((#1425,#1466,#1464,#1424));
#328=IFCPOLYLOOP((#1466,#1467,#1465,#1464));
#329=IFCPOLYLOOP((#1467,#1307,#1304,#1465));
#330=IFCPOLYLOOP((#1429,#1468,#1466,#1425));
#331=IFCPOLYLOOP((#1468,#1469,#1467,#1466));
#332=IFCPOLYLOOP((#1469,#1308,#1307,#1467));
#333=IFCPOLYLOOP((#1433,#1470,#1468,#1429));
#334=IFCPOLYLOOP((#1470,#1471,#1469,#1468));
#335=IFCPOLYLOOP((#1471,#1311,#1308,#1469));
#336=IFCPOLYLOOP((#1435,#1472,#1470,#1433));
#337=IFCPOLYLOOP((#1472,#1473,#1471,#1470));
#338=IFCPOLYLOOP((#1473,#1312,#1311,#1471));
#339=IFCPOLYLOOP((#1376,#1474,#1472,#1435));
#340=IFCPOLYLOOP((#1474,#1475,#1473,#1472));
#341=IFCPOLYLOOP((#1475,#1315,#1312,#1473));
#342=IFCPOLYLOOP((#1375,#1476,#1474,#1376));
#343=IFCPOLYLOOP((#1476,#1477,#1475,#1474));
#344=IFCPOLYLOOP((#1477,#1316,#1315,#1475));
#345=IFCPOLYLOOP((#1380,#1478,#1476,#1375));
#346=IFCPOLYLOOP((#1478,#1479,#1477,#1476));
#347=IFCPOLYLOOP((#1479,#1319,#1316,#1477));
#348=IFCPOLYLOOP((#1379,#1480,#1478,#1380));
#349=IFCPOLYLOOP((#1480,#1481,#1479,#1478));
#350=IFCPOLYLOOP((#1481,#1320,#1319,#1479));
#351=IFCPOLYLOOP((#1384,#1482,#1480,#1379));
#352=IFCPOLYLOOP((#1482,#1483,#1481,#1480));
#353=IFCPOLYLOOP((#1483,#1323,#1320,#1481));
#354=IFCPOLYLOOP((#1385,#1484,#1482,#1384));
#355=IFCPOLYLOOP((#1484,#1485,#1483,#1482));
#356=IFCPOLYLOOP((#1485,#1324,#1323,#1483));
#357=IFCPOLYLOOP((#1387,#1439,#1484,#1385));
#358=IFCPOLYLOOP((#1439,#1441,#1485,#1484));
#359=IFCPOLYLOOP((#1441,#1327,#1324,#1485));
#360=IFCPOLYLOOP((#1486,#1487,#1436));
#361=IFCPOLYLOOP((#1487,#1377,#1434));
#362=IFCPOLYLOOP((#1434,#1436,#1487));
#363=IFCPOLYLOOP((#1488,#1486,#1431));
#364=IFCPOLYLOOP((#1486,#1432,#1431));
#365=IFCPOLYLOOP((#1489,#1488,#1430));
#366=IFCPOLYLOOP((#1488,#1428,#1430));
#367=IFCPOLYLOOP((#1490,#1489,#1423));
#368=IFCPOLYLOOP((#1489,#1426,#1427));
#369=IFCPOLYLOOP((#1427,#1423,#1489));
#370=IFCPOLYLOOP((#1491,#1490,#1420));
#371=IFCPOLYLOOP((#1420,#1419,#1491));
#372=IFCPOLYLOOP((#1490,#1422,#1420));
#373=IFCPOLYLOOP((#1492,#1491,#1415));
#374=IFCPOLYLOOP((#1491,#1418,#1415));
#375=IFCPOLYLOOP((#1492,#1414,#1412));
#376=IFCPOLYLOOP((#1412,#1493,#1492));
#377=IFCPOLYLOOP((#1412,#1437,#1493));
#378=IFCPOLYLOOP((#1494,#1407,#1406));
#379=IFCPOLYLOOP((#1494,#1493,#1409));
#380=IFCPOLYLOOP((#1409,#1407,#1494));
#381=IFCPOLYLOOP((#1495,#1404,#1403));
#382=IFCPOLYLOOP((#1494,#1408,#1404));
#383=IFCPOLYLOOP((#1404,#1495,#1494));
#384=IFCPOLYLOOP((#1496,#1495,#1401));
#385=IFCPOLYLOOP((#1401,#1402,#1496));
#386=IFCPOLYLOOP((#1496,#1397,#1396));
#387=IFCPOLYLOOP((#1396,#1497,#1496));
#388=IFCPOLYLOOP((#1498,#1497,#1391));
#389=IFCPOLYLOOP((#1497,#1395,#1391));
#390=IFCPOLYLOOP((#1499,#1498,#1388));
#391=IFCPOLYLOOP((#1498,#1393,#1388));
#392=IFCPOLYLOOP((#1498,#1390,#1393));
#393=IFCPOLYLOOP((#1388,#1389,#1499));
#394=IFCPOLYLOOP((#1499,#1383,#1382));
#395=IFCPOLYLOOP((#1499,#1386,#1383));
#396=IFCPOLYLOOP((#1500,#1378,#1381));
#397=IFCPOLYLOOP((#1500,#1382,#1378));
#398=IFCPOLYLOOP((#1487,#1501,#1373));
#399=IFCPOLYLOOP((#1501,#1381,#1374));
#400=IFCPOLYLOOP((#1374,#1373,#1501));
#401=IFCPOLYLOOP((#1373,#1377,#1487));
#402=IFCPOLYLOOP((#1381,#1501,#1500));
#403=IFCPOLYLOOP((#1382,#1500,#1499));
#404=IFCPOLYLOOP((#1389,#1386,#1499));
#405=IFCPOLYLOOP((#1391,#1390,#1498));
#406=IFCPOLYLOOP((#1396,#1395,#1497));
#407=IFCPOLYLOOP((#1402,#1397,#1496));
#408=IFCPOLYLOOP((#1403,#1401,#1495));
#409=IFCPOLYLOOP((#1406,#1408,#1494));
#410=IFCPOLYLOOP((#1437,#1409,#1493));
#411=IFCPOLYLOOP((#1415,#1414,#1492));
#412=IFCPOLYLOOP((#1419,#1418,#1491));
#413=IFCPOLYLOOP((#1423,#1422,#1490));
#414=IFCPOLYLOOP((#1430,#1426,#1489));
#415=IFCPOLYLOOP((#1431,#1428,#1488));
#416=IFCPOLYLOOP((#1436,#1432,#1486));
#417=IFCPOLYLOOP((#1499,#1500,#1501,#1487,#1486,#1488,#1489,#1490,#1491,
#1492,#1493,#1494,#1495,#1496,#1497,#1498));
#418=IFCFACEOUTERBOUND(#26,.T.);
#419=IFCFACEOUTERBOUND(#27,.T.);
#420=IFCFACEOUTERBOUND(#28,.T.);
#421=IFCFACEOUTERBOUND(#29,.T.);
#422=IFCFACEOUTERBOUND(#30,.T.);
#423=IFCFACEOUTERBOUND(#31,.T.);
#424=IFCFACEOUTERBOUND(#32,.T.);
#425=IFCFACEOUTERBOUND(#33,.T.);
#426=IFCFACEOUTERBOUND(#34,.T.);
#427=IFCFACEOUTERBOUND(#35,.T.);
#428=IFCFACEOUTERBOUND(#36,.T.);
#429=IFCFACEOUTERBOUND(#37,.T.);
#430=IFCFACEOUTERBOUND(#38,.T.);
#431=IFCFACEOUTERBOUND(#39,.T.);
#432=IFCFACEOUTERBOUND(#40,.T.);
#433=IFCFACEOUTERBOUND(#41,.T.);
#434=IFCFACEOUTERBOUND(#42,.T.);
#435=IFCFACEOUTERBOUND(#43,.T.);
#436=IFCFACEOUTERBOUND(#44,.T.);
#437=IFCFACEOUTERBOUND(#45,.T.);
#438=IFCFACEOUTERBOUND(#46,.T.);
#439=IFCFACEOUTERBOUND(#47,.T.);
#440=IFCFACEOUTERBOUND(#48,.T.);
#441=IFCFACEOUTERBOUND(#49,.T.);
#442=IFCFACEOUTERBOUND(#50,.T.);
#443=IFCFACEOUTERBOUND(#51,.T.);
#444=IFCFACEOUTERBOUND(#52,.T.);
#445=IFCFACEOUTERBOUND(#53,.T.);
#446=IFCFACEOUTERBOUND(#54,.T.);
#447=IFCFACEOUTERBOUND(#55,.T.);
#448=IFCFACEOUTERBOUND(#56,.T.);
#449=IFCFACEOUTERBOUND(#57,.T.);
#450=IFCFACEOUTERBOUND(#58,.T.);
#451=IFCFACEOUTERBOUND(#59,.T.);
#452=IFCFACEOUTERBOUND(#60,.T.);
#453=IFCFACEOUTERBOUND(#61,.T.);
#454=IFCFACEOUTERBOUND(#62,.T.);
#455=IFCFACEOUTERBOUND(#63,.T.);
#456=IFCFACEOUTERBOUND(#64,.T.);
#457=IFCFACEOUTERBOUND(#65,.T.);
#458=IFCFACEOUTERBOUND(#66,.T.);
#459=IFCFACEOUTERBOUND(#67,.T.);
#460=IFCFACEOUTERBOUND(#68,.T.);
#461=IFCFACEOUTERBOUND(#69,.T.);
#462=IFCFACEOUTERBOUND(#70,.T.);
#463=IFCFACEOUTERBOUND(#71,.T.);
#464=IFCFACEOUTERBOUND(#72,.T.);
#465=IFCFACEOUTERBOUND(#73,.T.);
#466=IFCFACEOUTERBOUND(#74,.T.);
#467=IFCFACEOUTERBOUND(#75,.T.);
#468=IFCFACEOUTERBOUND(#76,.T.);
#469=IFCFACEOUTERBOUND(#77,.T.);
#470=IFCFACEOUTERBOUND(#78,.T.);
#471=IFCFACEOUTERBOUND(#79,.T.);
#472=IFCFACEOUTERBOUND(#80,.T.);
#473=IFCFACEOUTERBOUND(#81,.T.);
#474=IFCFACEOUTERBOUND(#82,.T.);
#475=IFCFACEOUTERBOUND(#83,.T.);
#476=IFCFACEOUTERBOUND(#84,.T.);
#477=IFCFACEOUTERBOUND(#85,.T.);
#478=IFCFACEOUTERBOUND(#86,.T.);
#479=IFCFACEOUTERBOUND(#87,.T.);
#480=IFCFACEOUTERBOUND(#88,.T.);
#481=IFCFACEOUTERBOUND(#89,.T.);
#482=IFCFACEOUTERBOUND(#90,.T.);
#483=IFCFACEOUTERBOUND(#91,.T.);
#484=IFCFACEOUTERBOUND(#92,.T.);
#485=IFCFACEOUTERBOUND(#93,.T.);
#486=IFCFACEOUTERBOUND(#94,.T.);
#487=IFCFACEOUTERBOUND(#95,.T.);
#488=IFCFACEOUTERBOUND(#96,.T.);
#489=IFCFACEOUTERBOUND(#97,.T.);
#490=IFCFACEOUTERBOUND(#98,.T.);
#491=IFCFACEOUTERBOUND(#99,.T.);
#492=IFCFACEOUTERBOUND(#100,.T.);
#493=IFCFACEOUTERBOUND(#101,.T.);
#494=IFCFACEOUTERBOUND(#102,.T.);
#495=IFCFACEOUTERBOUND(#103,.T.);
#496=IFCFACEOUTERBOUND(#104,.T.);
#497=IFCFACEOUTERBOUND(#105,.T.);
#498=IFCFACEOUTERBOUND(#106,.T.);
#499=IFCFACEOUTERBOUND(#107,.T.);
#500=IFCFACEOUTERBOUND(#108,.T.);
#501=IFCFACEOUTERBOUND(#109,.T.);
#502=IFCFACEOUTERBOUND(#110,.T.);
#503=IFCFACEOUTERBOUND(#111,.T.);
#504=IFCFACEOUTERBOUND(#112,.T.);
#505=IFCFACEOUTERBOUND(#113,.T.);
#506=IFCFACEOUTERBOUND(#114,.T.);
#507=IFCFACEOUTERBOUND(#115,.T.);
#508=IFCFACEOUTERBOUND(#116,.T.);
#509=IFCFACEOUTERBOUND(#117,.T.);
#510=IFCFACEOUTERBOUND(#118,.T.);
#511=IFCFACEOUTERBOUND(#119,.T.);
#512=IFCFACEOUTERBOUND(#120,.T.);
#513=IFCFACEOUTERBOUND(#121,.T.);
#514=IFCFACEOUTERBOUND(#122,.T.);
#515=IFCFACEOUTERBOUND(#123,.T.);
#516=IFCFACEOUTERBOUND(#124,.T.);
#517=IFCFACEOUTERBOUND(#125,.T.);
#518=IFCFACEOUTERBOUND(#126,.T.);
#519=IFCFACEOUTERBOUND(#127,.T.);
#520=IFCFACEOUTERBOUND(#128,.T.);
#521=IFCFACEOUTERBOUND(#129,.T.);
#522=IFCFACEOUTERBOUND(#130,.T.);
#523=IFCFACEOUTERBOUND(#131,.T.);
#524=IFCFACEOUTERBOUND(#132,.T.);
#525=IFCFACEOUTERBOUND(#133,.T.);
#526=IFCFACEOUTERBOUND(#134,.T.);
#527=IFCFACEOUTERBOUND(#135,.T.);
#528=IFCFACEOUTERBOUND(#136,.T.);
#529=IFCFACEOUTERBOUND(#137,.T.);
#530=IFCFACEOUTERBOUND(#138,.T.);
#531=IFCFACEOUTERBOUND(#139,.T.);
#532=IFCFACEOUTERBOUND(#140,.T.);
#533=IFCFACEOUTERBOUND(#141,.T.);
#534=IFCFACEOUTERBOUND(#142,.T.);
#535=IFCFACEOUTERBOUND(#143,.T.);
#536=IFCFACEOUTERBOUND(#144,.T.);
#537=IFCFACEOUTERBOUND(#145,.T.);
#538=IFCFACEOUTERBOUND(#146,.T.);
#539=IFCFACEOUTERBOUND(#147,.T.);
#540=IFCFACEOUTERBOUND(#148,.T.);
#541=IFCFACEOUTERBOUND(#149,.T.);
#542=IFCFACEOUTERBOUND(#150,.T.);
#543=IFCFACEOUTERBOUND(#151,.T.);
#544=IFCFACEOUTERBOUND(#152,.T.);
#545=IFCFACEOUTERBOUND(#153,.T.);
#546=IFCFACEOUTERBOUND(#154,.T.);
#547=IFCFACEOUTERBOUND(#155,.T.);
#548=IFCFACEOUTERBOUND(#156,.T.);
#549=IFCFACEOUTERBOUND(#157,.T.);
#550=IFCFACEOUTERBOUND(#158,.T.);
#551=IFCFACEOUTERBOUND(#159,.T.);
#552=IFCFACEOUTERBOUND(#160,.T.);
#553=IFCFACEOUTERBOUND(#161,.T.);
#554=IFCFACEOUTERBOUND(#162,.T.);
#555=IFCFACEOUTERBOUND(#163,.T.);
#556=IFCFACEOUTERBOUND(#164,.T.);
#557=IFCFACEOUTERBOUND(#165,.T.);
#558=IFCFACEOUTERBOUND(#166,.T.);
#559=IFCFACEOUTERBOUND(#167,.T.);
#560=IFCFACEOUTERBOUND(#168,.T.);
#561=IFCFACEOUTERBOUND(#169,.T.);
#562=IFCFACEOUTERBOUND(#170,.T.);
#563=IFCFACEOUTERBOUND(#171,.T.);
#564=IFCFACEOUTERBOUND(#172,.T.);
#565=IFCFACEOUTERBOUND(#173,.T.);
#566=IFCFACEOUTERBOUND(#174,.T.);
#567=IFCFACEOUTERBOUND(#175,.T.);
#568=IFCFACEOUTERBOUND(#176,.T.);
#569=IFCFACEOUTERBOUND(#177,.T.);
#570=IFCFACEOUTERBOUND(#178,.T.);
#571=IFCFACEOUTERBOUND(#179,.T.);
#572=IFCFACEOUTERBOUND(#180,.T.);
#573=IFCFACEOUTERBOUND(#181,.T.);
#574=IFCFACEOUTERBOUND(#182,.T.);
#575=IFCFACEOUTERBOUND(#183,.T.);
#576=IFCFACEOUTERBOUND(#184,.T.);
#577=IFCFACEOUTERBOUND(#185,.T.);
#578=IFCFACEOUTERBOUND(#186,.T.);
#579=IFCFACEOUTERBOUND(#187,.T.);
#580=IFCFACEOUTERBOUND(#188,.T.);
#581=IFCFACEOUTERBOUND(#189,.T.);
#582=IFCFACEOUTERBOUND(#190,.T.);
#583=IFCFACEOUTERBOUND(#191,.T.);
#584=IFCFACEOUTERBOUND(#192,.T.);
#585=IFCFACEOUTERBOUND(#193,.T.);
#586=IFCFACEOUTERBOUND(#194,.T.);
#587=IFCFACEOUTERBOUND(#195,.T.);
#588=IFCFACEOUTERBOUND(#196,.T.);
#589=IFCFACEOUTERBOUND(#197,.T.);
#590=IFCFACEOUTERBOUND(#198,.T.);
#591=IFCFACEOUTERBOUND(#199,.T.);
#592=IFCFACEOUTERBOUND(#200,.T.);
#593=IFCFACEOUTERBOUND(#201,.T.);
#594=IFCFACEOUTERBOUND(#202,.T.);
#595=IFCFACEOUTERBOUND(#203,.T.);
#596=IFCFACEOUTERBOUND(#204,.T.);
#597=IFCFACEOUTERBOUND(#205,.T.);
#598=IFCFACEOUTERBOUND(#206,.T.);
#599=IFCFACEOUTERBOUND(#207,.T.);
#600=IFCFACEOUTERBOUND(#208,.T.);
#601=IFCFACEOUTERBOUND(#209,.T.);
#602=IFCFACEOUTERBOUND(#210,.T.);
#603=IFCFACEOUTERBOUND(#211,.T.);
#604=IFCFACEOUTERBOUND(#212,.T.);
#605=IFCFACEOUTERBOUND(#213,.T.);
#606=IFCFACEOUTERBOUND(#214,.T.);
#607=IFCFACEOUTERBOUND(#215,.T.);
#608=IFCFACEOUTERBOUND(#216,.T.);
#609=IFCFACEOUTERBOUND(#217,.T.);
#610=IFCFACEOUTERBOUND(#218,.T.);
#611=IFCFACEOUTERBOUND(#219,.T.);
#612=IFCFACEOUTERBOUND(#220,.T.);
#613=IFCFACEOUTERBOUND(#221,.T.);
#614=IFCFACEOUTERBOUND(#222,.T.);
#615=IFCFACEOUTERBOUND(#223,.T.);
#616=IFCFACEOUTERBOUND(#224,.T.);
#617=IFCFACEOUTERBOUND(#225,.T.);
#618=IFCFACEOUTERBOUND(#226,.T.);
#619=IFCFACEOUTERBOUND(#227,.T.);
#620=IFCFACEOUTERBOUND(#228,.T.);
#621=IFCFACEOUTERBOUND(#229,.T.);
#622=IFCFACEOUTERBOUND(#230,.T.);
#623=IFCFACEOUTERBOUND(#231,.T.);
#624=IFCFACEOUTERBOUND(#232,.T.);
#625=IFCFACEOUTERBOUND(#233,.T.);
#626=IFCFACEOUTERBOUND(#234,.T.);
#627=IFCFACEOUTERBOUND(#235,.T.);
#628=IFCFACEOUTERBOUND(#236,.T.);
#629=IFCFACEOUTERBOUND(#237,.T.);
#630=IFCFACEOUTERBOUND(#238,.T.);
#631=IFCFACEOUTERBOUND(#239,.T.);
#632=IFCFACEOUTERBOUND(#240,.T.);
#633=IFCFACEOUTERBOUND(#241,.T.);
#634=IFCFACEOUTERBOUND(#242,.T.);
#635=IFCFACEOUTERBOUND(#243,.T.);
#636=IFCFACEOUTERBOUND(#244,.T.);
#637=IFCFACEOUTERBOUND(#245,.T.);
#638=IFCFACEOUTERBOUND(#246,.T.);
#639=IFCFACEOUTERBOUND(#247,.T.);
#640=IFCFACEOUTERBOUND(#248,.T.);
#641=IFCFACEOUTERBOUND(#249,.T.);
#642=IFCFACEOUTERBOUND(#250,.T.);
#643=IFCFACEOUTERBOUND(#251,.T.);
#644=IFCFACEOUTERBOUND(#252,.T.);
#645=IFCFACEOUTERBOUND(#253,.T.);
#646=IFCFACEOUTERBOUND(#254,.T.);
#647=IFCFACEOUTERBOUND(#255,.T.);
#648=IFCFACEOUTERBOUND(#256,.T.);
#649=IFCFACEOUTERBOUND(#257,.T.);
#650=IFCFACEOUTERBOUND(#258,.T.);
#651=IFCFACEOUTERBOUND(#259,.T.);
#652=IFCFACEOUTERBOUND(#260,.T.);
#653=IFCFACEOUTERBOUND(#261,.T.);
#654=IFCFACEOUTERBOUND(#262,.T.);
#655=IFCFACEOUTERBOUND(#263,.T.);
#656=IFCFACEOUTERBOUND(#264,.T.);
#657=IFCFACEOUTERBOUND(#265,.T.);
#658=IFCFACEOUTERBOUND(#266,.T.);
#659=IFCFACEOUTERBOUND(#267,.T.);
#660=IFCFACEOUTERBOUND(#268,.T.);
#661=IFCFACEOUTERBOUND(#269,.T.);
#662=IFCFACEOUTERBOUND(#270,.T.);
#663=IFCFACEOUTERBOUND(#271,.T.);
#664=IFCFACEOUTERBOUND(#272,.T.);
#665=IFCFACEOUTERBOUND(#273,.T.);
#666=IFCFACEOUTERBOUND(#274,.T.);
#667=IFCFACEOUTERBOUND(#275,.T.);
#668=IFCFACEOUTERBOUND(#276,.T.);
#669=IFCFACEOUTERBOUND(#277,.T.);
#670=IFCFACEOUTERBOUND(#278,.T.);
#671=IFCFACEOUTERBOUND(#279,.T.);
#672=IFCFACEOUTERBOUND(#280,.T.);
#673=IFCFACEOUTERBOUND(#281,.T.);
#674=IFCFACEOUTERBOUND(#282,.T.);
#675=IFCFACEOUTERBOUND(#283,.T.);
#676=IFCFACEOUTERBOUND(#284,.T.);
#677=IFCFACEOUTERBOUND(#285,.T.);
#678=IFCFACEOUTERBOUND(#286,.T.);
#679=IFCFACEOUTERBOUND(#287,.T.);
#680=IFCFACEOUTERBOUND(#288,.T.);
#681=IFCFACEOUTERBOUND(#289,.T.);
#682=IFCFACEOUTERBOUND(#290,.T.);
#683=IFCFACEOUTERBOUND(#291,.T.);
#684=IFCFACEOUTERBOUND(#292,.T.);
#685=IFCFACEOUTERBOUND(#293,.T.);
#686=IFCFACEOUTERBOUND(#294,.T.);
#687=IFCFACEOUTERBOUND(#295,.T.);
#688=IFCFACEOUTERBOUND(#296,.T.);
#689=IFCFACEOUTERBOUND(#297,.T.);
#690=IFCFACEOUTERBOUND(#298,.T.);
#691=IFCFACEOUTERBOUND(#299,.T.);
#692=IFCFACEOUTERBOUND(#300,.T.);
#693=IFCFACEOUTERBOUND(#301,.T.);
#694=IFCFACEOUTERBOUND(#302,.T.);
#695=IFCFACEOUTERBOUND(#303,.T.);
#696=IFCFACEOUTERBOUND(#304,.T.);
#697=IFCFACEOUTERBOUND(#305,.T.);
#698=IFCFACEOUTERBOUND(#306,.T.);
#699=IFCFACEOUTERBOUND(#307,.T.);
#700=IFCFACEOUTERBOUND(#308,.T.);
#701=IFCFACEOUTERBOUND(#309,.T.);
#702=IFCFACEOUTERBOUND(#310,.T.);
#703=IFCFACEOUTERBOUND(#311,.T.);
#704=IFCFACEOUTERBOUND(#312,.T.);
#705=IFCFACEOUTERBOUND(#313,.T.);
#706=IFCFACEOUTERBOUND(#314,.T.);
#707=IFCFACEOUTERBOUND(#315,.T.);
#708=IFCFACEOUTERBOUND(#316,.T.);
#709=IFCFACEOUTERBOUND(#317,.T.);
#710=IFCFACEOUTERBOUND(#318,.T.);
#711=IFCFACEOUTERBOUND(#319,.T.);
#712=IFCFACEOUTERBOUND(#320,.T.);
#713=IFCFACEOUTERBOUND(#321,.T.);
#714=IFCFACEOUTERBOUND(#322,.T.);
#715=IFCFACEOUTERBOUND(#323,.T.);
#716=IFCFACEOUTERBOUND(#324,.T.);
#717=IFCFACEOUTERBOUND(#325,.T.);
#718=IFCFACEOUTERBOUND(#326,.T.);
#719=IFCFACEOUTERBOUND(#327,.T.);
#720=IFCFACEOUTERBOUND(#328,.T.);
#721=IFCFACEOUTERBOUND(#329,.T.);
#722=IFCFACEOUTERBOUND(#330,.T.);
#723=IFCFACEOUTERBOUND(#331,.T.);
#724=IFCFACEOUTERBOUND(#332,.T.);
#725=IFCFACEOUTERBOUND(#333,.T.);
#726=IFCFACEOUTERBOUND(#334,.T.);
#727=IFCFACEOUTERBOUND(#335,.T.);
#728=IFCFACEOUTERBOUND(#336,.T.);
#729=IFCFACEOUTERBOUND(#337,.T.);
#730=IFCFACEOUTERBOUND(#338,.T.);
#731=IFCFACEOUTERBOUND(#339,.T.);
#732=IFCFACEOUTERBOUND(#340,.T.);
#733=IFCFACEOUTERBOUND(#341,.T.);
#734=IFCFACEOUTERBOUND(#342,.T.);
#735=IFCFACEOUTERBOUND(#343,.T.);
#736=IFCFACEOUTERBOUND(#344,.T.);
#737=IFCFACEOUTERBOUND(#345,.T.);
#738=IFCFACEOUTERBOUND(#346,.T.);
#739=IFCFACEOUTERBOUND(#347,.T.);
#740=IFCFACEOUTERBOUND(#348,.T.);
#741=IFCFACEOUTERBOUND(#349,.T.);
#742=IFCFACEOUTERBOUND(#350,.T.);
#743=IFCFACEOUTERBOUND(#351,.T.);
#744=IFCFACEOUTERBOUND(#352,.T.);
#745=IFCFACEOUTERBOUND(#353,.T.);
#746=IFCFACEOUTERBOUND(#354,.T.);
#747=IFCFACEOUTERBOUND(#355,.T.);
#748=IFCFACEOUTERBOUND(#356,.T.);
#749=IFCFACEOUTERBOUND(#357,.T.);
#750=IFCFACEOUTERBOUND(#358,.T.);
#751=IFCFACEOUTERBOUND(#359,.T.);
#752=IFCFACEOUTERBOUND(#360,.T.);
#753=IFCFACEOUTERBOUND(#361,.T.);
#754=IFCFACEOUTERBOUND(#362,.T.);
#755=IFCFACEOUTERBOUND(#363,.T.);
#756=IFCFACEOUTERBOUND(#364,.T.);
#757=IFCFACEOUTERBOUND(#365,.T.);
#758=IFCFACEOUTERBOUND(#366,.T.);
#759=IFCFACEOUTERBOUND(#367,.T.);
#760=IFCFACEOUTERBOUND(#368,.T.);
#761=IFCFACEOUTERBOUND(#369,.T.);
#762=IFCFACEOUTERBOUND(#370,.T.);
#763=IFCFACEOUTERBOUND(#371,.T.);
#764=IFCFACEOUTERBOUND(#372,.T.);
#765=IFCFACEOUTERBOUND(#373,.T.);
#766=IFCFACEOUTERBOUND(#374,.T.);
#767=IFCFACEOUTERBOUND(#375,.T.);
#768=IFCFACEOUTERBOUND(#376,.T.);
#769=IFCFACEOUTERBOUND(#377,.T.);
#770=IFCFACEOUTERBOUND(#378,.T.);
#771=IFCFACEOUTERBOUND(#379,.T.);
#772=IFCFACEOUTERBOUND(#380,.T.);
#773=IFCFACEOUTERBOUND(#381,.T.);
#774=IFCFACEOUTERBOUND(#382,.T.);
#775=IFCFACEOUTERBOUND(#383,.T.);
#776=IFCFACEOUTERBOUND(#384,.T.);
#777=IFCFACEOUTERBOUND(#385,.T.);
#778=IFCFACEOUTERBOUND(#386,.T.);
#779=IFCFACEOUTERBOUND(#387,.T.);
#780=IFCFACEOUTERBOUND(#388,.T.);
#781=IFCFACEOUTERBOUND(#389,.T.);
#782=IFCFACEOUTERBOUND(#390,.T.);
#783=IFCFACEOUTERBOUND(#391,.T.);
#784=IFCFACEOUTERBOUND(#392,.T.);
#785=IFCFACEOUTERBOUND(#393,.T.);
#786=IFCFACEOUTERBOUND(#394,.T.);
#787=IFCFACEOUTERBOUND(#395,.T.);
#788=IFCFACEOUTERBOUND(#396,.T.);
#789=IFCFACEOUTERBOUND(#397,.T.);
#790=IFCFACEOUTERBOUND(#398,.T.);
#791=IFCFACEOUTERBOUND(#399,.T.);
#792=IFCFACEOUTERBOUND(#400,.T.);
#793=IFCFACEOUTERBOUND(#401,.T.);
#794=IFCFACEOUTERBOUND(#402,.T.);
#795=IFCFACEOUTERBOUND(#403,.T.);
#796=IFCFACEOUTERBOUND(#404,.T.);
#797=IFCFACEOUTERBOUND(#405,.T.);
#798=IFCFACEOUTERBOUND(#406,.T.);
#799=IFCFACEOUTERBOUND(#407,.T.);
#800=IFCFACEOUTERBOUND(#408,.T.);
#801=IFCFACEOUTERBOUND(#409,.T.);
#802=IFCFACEOUTERBOUND(#410,.T.);
#803=IFCFACEOUTERBOUND(#411,.T.);
#804=IFCFACEOUTERBOUND(#412,.T.);
#805=IFCFACEOUTERBOUND(#413,.T.);
#806=IFCFACEOUTERBOUND(#414,.T.);
#807=IFCFACEOUTERBOUND(#415,.T.);
#808=IFCFACEOUTERBOUND(#416,.T.);
#809=IFCFACEOUTERBOUND(#417,.T.);
#810=IFCFACE((#418));
#811=IFCFACE((#419));
#812=IFCFACE((#420));
#813=IFCFACE((#421));
#814=IFCFACE((#422));
#815=IFCFACE((#423));
#816=IFCFACE((#424));
#817=IFCFACE((#425));
#818=IFCFACE((#426));
#819=IFCFACE((#427));
#820=IFCFACE((#428));
#821=IFCFACE((#429));
#822=IFCFACE((#430));
#823=IFCFACE((#431));
#824=IFCFACE((#432));
#825=IFCFACE((#433));
#826=IFCFACE((#434));
#827=IFCFACE((#435));
#828=IFCFACE((#436));
#829=IFCFACE((#437));
#830=IFCFACE((#438));
#831=IFCFACE((#439));
#832=IFCFACE((#440));
#833=IFCFACE((#441));
#834=IFCFACE((#442));
#835=IFCFACE((#443));
#836=IFCFACE((#444));
#837=IFCFACE((#445));
#838=IFCFACE((#446));
#839=IFCFACE((#447));
#840=IFCFACE((#448));
#841=IFCFACE((#449));
#842=IFCFACE((#450));
#843=IFCFACE((#451));
#844=IFCFACE((#452));
#845=IFCFACE((#453));
#846=IFCFACE((#454));
#847=IFCFACE((#455));
#848=IFCFACE((#456));
#849=IFCFACE((#457));
#850=IFCFACE((#458));
#851=IFCFACE((#459));
#852=IFCFACE((#460));
#853=IFCFACE((#461));
#854=IFCFACE((#462));
#855=IFCFACE((#463));
#856=IFCFACE((#464));
#857=IFCFACE((#465));
#858=IFCFACE((#466));
#859=IFCFACE((#467));
#860=IFCFACE((#468));
#861=IFCFACE((#469));
#862=IFCFACE((#470));
#863=IFCFACE((#471));
#864=IFCFACE((#472));
#865=IFCFACE((#473));
#866=IFCFACE((#474));
#867=IFCFACE((#475));
#868=IFCFACE((#476));
#869=IFCFACE((#477));
#870=IFCFACE((#478));
#871=IFCFACE((#479));
#872=IFCFACE((#480));
#873=IFCFACE((#481));
#874=IFCFACE((#482));
#875=IFCFACE((#483));
#876=IFCFACE((#484));
#877=IFCFACE((#485));
#878=IFCFACE((#486));
#879=IFCFACE((#487));
#880=IFCFACE((#488));
#881=IFCFACE((#489));
#882=IFCFACE((#490));
#883=IFCFACE((#491));
#884=IFCFACE((#492));
#885=IFCFACE((#493));
#886=IFCFACE((#494));
#887=IFCFACE((#495));
#888=IFCFACE((#496));
#889=IFCFACE((#497));
#890=IFCFACE((#498));
#891=IFCFACE((#499));
#892=IFCFACE((#500));
#893=IFCFACE((#501));
#894=IFCFACE((#502));
#895=IFCFACE((#503));
#896=IFCFACE((#504));
#897=IFCFACE((#505));
#898=IFCFACE((#506));
#899=IFCFACE((#507));
#900=IFCFACE((#508));
#901=IFCFACE((#509));
#902=IFCFACE((#510));
#903=IFCFACE((#511));
#904=IFCFACE((#512));
#905=IFCFACE((#513));
#906=IFCFACE((#514));
#907=IFCFACE((#515));
#908=IFCFACE((#516));
#909=IFCFACE((#517));
#910=IFCFACE((#518));
#911=IFCFACE((#519));
#912=IFCFACE((#520));
#913=IFCFACE((#521));
#914=IFCFACE((#522));
#915=IFCFACE((#523));
#916=IFCFACE((#524));
#917=IFCFACE((#525));
#918=IFCFACE((#526));
#919=IFCFACE((#527));
#920=IFCFACE((#528));
#921=IFCFACE((#529));
#922=IFCFACE((#530));
#923=IFCFACE((#531));
#924=IFCFACE((#532));
#925=IFCFACE((#533));
#926=IFCFACE((#534));
#927=IFCFACE((#535));
#928=IFCFACE((#536));
#929=IFCFACE((#537));
#930=IFCFACE((#538));
#931=IFCFACE((#539));
#932=IFCFACE((#540));
#933=IFCFACE((#541));
#934=IFCFACE((#542));
#935=IFCFACE((#543));
#936=IFCFACE((#544));
#937=IFCFACE((#545));
#938=IFCFACE((#546));
#939=IFCFACE((#547));
#940=IFCFACE((#548));
#941=IFCFACE((#549));
#942=IFCFACE((#550));
#943=IFCFACE((#551));
#944=IFCFACE((#552));
#945=IFCFACE((#553));
#946=IFCFACE((#554));
#947=IFCFACE((#555));
#948=IFCFACE((#556));
#949=IFCFACE((#557));
#950=IFCFACE((#558));
#951=IFCFACE((#559));
#952=IFCFACE((#560));
#953=IFCFACE((#561));
#954=IFCFACE((#562));
#955=IFCFACE((#563));
#956=IFCFACE((#564));
#957=IFCFACE((#565));
#958=IFCFACE((#566));
#959=IFCFACE((#567));
#960=IFCFACE((#568));
#961=IFCFACE((#569));
#962=IFCFACE((#570));
#963=IFCFACE((#571));
#964=IFCFACE((#572));
#965=IFCFACE((#573));
#966=IFCFACE((#574));
#967=IFCFACE((#575));
#968=IFCFACE((#576));
#969=IFCFACE((#577));
#970=IFCFACE((#578));
#971=IFCFACE((#579));
#972=IFCFACE((#580));
#973=IFCFACE((#581));
#974=IFCFACE((#582));
#975=IFCFACE((#583));
#976=IFCFACE((#584));
#977=IFCFACE((#585));
#978=IFCFACE((#586));
#979=IFCFACE((#587));
#980=IFCFACE((#588));
#981=IFCFACE((#589));
#982=IFCFACE((#590));
#983=IFCFACE((#591));
#984=IFCFACE((#592));
#985=IFCFACE((#593));
#986=IFCFACE((#594));
#987=IFCFACE((#595));
#988=IFCFACE((#596));
#989=IFCFACE((#597));
#990=IFCFACE((#598));
#991=IFCFACE((#599));
#992=IFCFACE((#600));
#993=IFCFACE((#601));
#994=IFCFACE((#602));
#995=IFCFACE((#603));
#996=IFCFACE((#604));
#997=IFCFACE((#605));
#998=IFCFACE((#606));
#999=IFCFACE((#607));
#1000=IFCFACE((#608));
#1001=IFCFACE((#609));
#1002=IFCFACE((#610));
#1003=IFCFACE((#611));
#1004=IFCFACE((#612));
#1005=IFCFACE((#613));
#1006=IFCFACE((#614));
#1007=IFCFACE((#615));
#1008=IFCFACE((#616));
#1009=IFCFACE((#617));
#1010=IFCFACE((#618));
#1011=IFCFACE((#619));
#1012=IFCFACE((#620));
#1013=IFCFACE((#621));
#1014=IFCFACE((#622));
#1015=IFCFACE((#623));
#1016=IFCFACE((#624));
#1017=IFCFACE((#625));
#1018=IFCFACE((#626));
#1019=IFCFACE((#627));
#1020=IFCFACE((#628));
#1021=IFCFACE((#629));
#1022=IFCFACE((#630));
#1023=IFCFACE((#631));
#1024=IFCFACE((#632));
#1025=IFCFACE((#633));
#1026=IFCFACE((#634));
#1027=IFCFACE((#635));
#1028=IFCFACE((#636));
#1029=IFCFACE((#637));
#1030=IFCFACE((#638));
#1031=IFCFACE((#639));
#1032=IFCFACE((#640));
#1033=IFCFACE((#641));
#1034=IFCFACE((#642));
#1035=IFCFACE((#643));
#1036=IFCFACE((#644));
#1037=IFCFACE((#645));
#1038=IFCFACE((#646));
#1039=IFCFACE((#647));
#1040=IFCFACE((#648));
#1041=IFCFACE((#649));
#1042=IFCFACE((#650));
#1043=IFCFACE((#651));
#1044=IFCFACE((#652));
#1045=IFCFACE((#653));
#1046=IFCFACE((#654));
#1047=IFCFACE((#655));
#1048=IFCFACE((#656));
#1049=IFCFACE((#657));
#1050=IFCFACE((#658));
#1051=IFCFACE((#659));
#1052=IFCFACE((#660));
#1053=IFCFACE((#661));
#1054=IFCFACE((#662));
#1055=IFCFACE((#663));
#1056=IFCFACE((#664));
#1057=IFCFACE((#665));
#1058=IFCFACE((#666));
#1059=IFCFACE((#667));
#1060=IFCFACE((#668));
#1061=IFCFACE((#669));
#1062=IFCFACE((#670));
#1063=IFCFACE((#671));
#1064=IFCFACE((#672));
#1065=IFCFACE((#673));
#1066=IFCFACE((#674));
#1067=IFCFACE((#675));
#1068=IFCFACE((#676));
#1069=IFCFACE((#677));
#1070=IFCFACE((#678));
#1071=IFCFACE((#679));
#1072=IFCFACE((#680));
#1073=IFCFACE((#681));
#1074=IFCFACE((#682));
#1075=IFCFACE((#683));
#1076=IFCFACE((#684));
#1077=IFCFACE((#685));
#1078=IFCFACE((#686));
#1079=IFCFACE((#687));
#1080=IFCFACE((#688));
#1081=IFCFACE((#689));
#1082=IFCFACE((#690));
#1083=IFCFACE((#691));
#1084=IFCFACE((#692));
#1085=IFCFACE((#693));
#1086=IFCFACE((#694));
#1087=IFCFACE((#695));
#1088=IFCFACE((#696));
#1089=IFCFACE((#697));
#1090=IFCFACE((#698));
#1091=IFCFACE((#699));
#1092=IFCFACE((#700));
#1093=IFCFACE((#701));
#1094=IFCFACE((#702));
#1095=IFCFACE((#703));
#1096=IFCFACE((#704));
#1097=IFCFACE((#705));
#1098=IFCFACE((#706));
#1099=IFCFACE((#707));
#1100=IFCFACE((#708));
#1101=IFCFACE((#709));
#1102=IFCFACE((#710));
#1103=IFCFACE((#711));
#1104=IFCFACE((#712));
#1105=IFCFACE((#713));
#1106=IFCFACE((#714));
#1107=IFCFACE((#715));
#1108=IFCFACE((#716));
#1109=IFCFACE((#717));
#1110=IFCFACE((#718));
#1111=IFCFACE((#719));
#1112=IFCFACE((#720));
#1113=IFCFACE((#721));
#1114=IFCFACE((#722));
#1115=IFCFACE((#723));
#1116=IFCFACE((#724));
#1117=IFCFACE((#725));
#1118=IFCFACE((#726));
#1119=IFCFACE((#727));
#1120=IFCFACE((#728));
#1121=IFCFACE((#729));
#1122=IFCFACE((#730));
#1123=IFCFACE((#731));
#1124=IFCFACE((#732));
#1125=IFCFACE((#733));
#1126=IFCFACE((#734));
#1127=IFCFACE((#735));
#1128=IFCFACE((#736));
#1129=IFCFACE((#737));
#1130=IFCFACE((#738));
#1131=IFCFACE((#739));
#1132=IFCFACE((#740));
#1133=IFCFACE((#741));
#1134=IFCFACE((#742));
#1135=IFCFACE((#743));
#1136=IFCFACE((#744));
#1137=IFCFACE((#745));
#1138=IFCFACE((#746));
#1139=IFCFACE((#747));
#1140=IFCFACE((#748));
#1141=IFCFACE((#749));
#1142=IFCFACE((#750));
#1143=IFCFACE((#751));
#1144=IFCFACE((#752));
#1145=IFCFACE((#753));
#1146=IFCFACE((#754));
#1147=IFCFACE((#755));
#1148=IFCFACE((#756));
#1149=IFCFACE((#757));
#1150=IFCFACE((#758));
#1151=IFCFACE((#759));
#1152=IFCFACE((#760));
#1153=IFCFACE((#761));
#1154=IFCFACE((#762));
#1155=IFCFACE((#763));
#1156=IFCFACE((#764));
#1157=IFCFACE((#765));
#1158=IFCFACE((#766));
#1159=IFCFACE((#767));
#1160=IFCFACE((#768));
#1161=IFCFACE((#769));
#1162=IFCFACE((#770));
#1163=IFCFACE((#771));
#1164=IFCFACE((#772));
#1165=IFCFACE((#773));
#1166=IFCFACE((#774));
#1167=IFCFACE((#775));
#1168=IFCFACE((#776));
#1169=IFCFACE((#777));
#1170=IFCFACE((#778));
#1171=IFCFACE((#779));
#1172=IFCFACE((#780));
#1173=IFCFACE((#781));
#1174=IFCFACE((#782));
#1175=IFCFACE((#783));
#1176=IFCFACE((#784));
#1177=IFCFACE((#785));
#1178=IFCFACE((#786));
#1179=IFCFACE((#787));
#1180=IFCFACE((#788));
#1181=IFCFACE((#789));
#1182=IFCFACE((#790));
#1183=IFCFACE((#791));
#1184=IFCFACE((#792));
#1185=IFCFACE((#793));
#1186=IFCFACE((#794));
#1187=IFCFACE((#795));
#1188=IFCFACE((#796));
#1189=IFCFACE((#797));
#1190=IFCFACE((#798));
#1191=IFCFACE((#799));
#1192=IFCFACE((#800));
#1193=IFCFACE((#801));
#1194=IFCFACE((#802));
#1195=IFCFACE((#803));
#1196=IFCFACE((#804));
#1197=IFCFACE((#805));
#1198=IFCFACE((#806));
#1199=IFCFACE((#807));
#1200=IFCFACE((#808));
#1201=IFCFACE((#809));
#1202=IFCCLOSEDSHELL((#810,#811,#812,#813,#814,#815,#816,#817,#818,#819,
#820,#821,#822,#823,#824,#825,#826,#827,#828,#829,#830,#831,#832,#833,#834,
#835,#836,#837,#838,#839,#840,#841,#842,#843,#844,#845,#846,#847,#848,#849,
#850,#851,#852,#853,#854,#855,#856,#857,#858,#859,#860,#861,#862,#863,#864,
#865,#866,#867,#868,#869,#870,#871,#872,#873,#874,#875,#876,#877,#878,#879,
#880,#881,#882,#883,#884,#885,#886,#887,#888,#889,#890,#891,#892,#893,#894,
#895,#896,#897,#898,#899,#900,#901,#902,#903,#904,#905,#906,#907,#908,#909,
#910,#911,#912,#913,#914,#915,#916,#917,#918,#919,#920,#921,#922,#923,#924,
#925,#926,#927,#928,#929,#930,#931,#932,#933,#934,#935,#936,#937,#938,#939,
#940,#941,#942,#943,#944,#945,#946,#947,#948,#949,#950,#951,#952,#953,#954,
#955,#956,#957,#958,#959,#960,#961,#962,#963,#964,#965,#966,#967,#968,#969,
#970,#971,#972,#973,#974,#975,#976,#977,#978,#979,#980,#981,#982,#983,#984,
#985,#986,#987,#988,#989,#990,#991,#992,#993,#994,#995,#996,#997,#998,#999,
#1000,#1001,#1002,#1003,#1004,#1005,#1006,#1007,#1008,#1009,#1010,#1011,
#1012,#1013,#1014,#1015,#1016,#1017,#1018,#1019,#1020,#1021,#1022,#1023,
#1024,#1025,#1026,#1027,#1028,#1029,#1030,#1031,#1032,#1033,#1034,#1035,
#1036,#1037,#1038,#1039,#1040,#1041,#1042,#1043,#1044,#1045,#1046,#1047,
#1048,#1049,#1050,#1051,#1052,#1053,#1054,#1055,#1056,#1057,#1058,#1059,
#1060,#1061,#1062,#1063,#1064,#1065,#1066,#1067,#1068,#1069,#1070,#1071,
#1072,#1073,#1074,#1075,#1076,#1077,#1078,#1079,#1080,#1081,#1082,#1083,
#1084,#1085,#1086,#1087,#1088,#1089,#1090,#1091,#1092,#1093,#1094,#1095,
#1096,#1097,#1098,#1099,#1100,#1101,#1102,#1103,#1104,#1105,#1106,#1107,
#1108,#1109,#1110,#1111,#1112,#1113,#1114,#1115,#1116,#1117,#1118,#1119,
#1120,#1121,#1122,#1123,#1124,#1125,#1126,#1127,#1128,#1129,#1130,#1131,
#1132,#1133,#1134,#1135,#1136,#1137,#1138,#1139,#1140,#1141,#1142,#1143,
#1144,#1145,#1146,#1147,#1148,#1149,#1150,#1151,#1152,#1153,#1154,#1155,
#1156,#1157,#1158,#1159,#1160,#1161,#1162,#1163,#1164,#1165,#1166,#1167,
#1168,#1169,#1170,#1171,#1172,#1173,#1174,#1175,#1176,#1177,#1178,#1179,
#1180,#1181,#1182,#1183,#1184,#1185,#1186,#1187,#1188,#1189,#1190,#1191,
#1192,#1193,#1194,#1195,#1196,#1197,#1198,#1199,#1200,#1201));
#1203=IFCSTYLEDITEM(#1208,(#1204),'');
#1204=IFCPRESENTATIONSTYLEASSIGNMENT((#1205));
#1205=IFCSURFACESTYLE('',.BOTH.,(#1206));
#1206=IFCSURFACESTYLERENDERING(#1207,0.,$,$,$,$,$,$,.NOTDEFINED.);
#1207=IFCCOLOURRGB('',0.200000002980232,0.200000002980232,0.200000002980232);
#1208=IFCFACETEDBREP(#1202);
#1209=IFCPROJECT('07hUkdHgGydfWsFJH56q5B',#1509,'Black_4640742_AVV',' ',
' ',' ',' ',(#1504),#1210);
#1210=IFCUNITASSIGNMENT((#1505,#1506,#1507,#1508));
#1211=IFCGEOMETRICREPRESENTATIONSUBCONTEXT('Body','Model',*,*,*,*,#1504,
1.,.MODEL_VIEW.,$);
#1212=IFCAXIS2PLACEMENT3D(#1218,#1214,#1215);
#1213=IFCAXIS2PLACEMENT3D(#1503,#1216,#1217);
#1214=IFCDIRECTION((0.,0.,1.));
#1215=IFCDIRECTION((1.,0.,0.));
#1216=IFCDIRECTION((0.,0.,1.));
#1217=IFCDIRECTION((1.,0.,0.));
#1218=IFCCARTESIANPOINT((0.,0.,0.));
#1219=IFCCARTESIANPOINT((-8.3819883101003,-0.566371479900333,-0.259637123527315));
#1220=IFCCARTESIANPOINT((-8.70212227192294,-1.04651803615609,-0.280662702663922));
#1221=IFCCARTESIANPOINT((-9.18123660401164,-1.3673417081167,-0.312129705563147));
#1222=IFCCARTESIANPOINT((-9.74639049248813,-1.48,-0.349247566282675));
#1223=IFCCARTESIANPOINT((-10.3115443809646,-1.3673417081167,-0.386365427002203));
#1224=IFCCARTESIANPOINT((-10.7906587130533,-1.04651803615609,-0.417832429901428));
#1225=IFCCARTESIANPOINT((-11.110792674876,-0.566371479900333,-0.438858009038035));
#1226=IFCCARTESIANPOINT((-11.2232087727667,1.81247726273808E-16,-0.446241210585825));
#1227=IFCCARTESIANPOINT((-11.110792674876,0.566371479900333,-0.438858009038035));
#1228=IFCCARTESIANPOINT((-10.7906587130533,1.04651803615609,-0.417832429901428));
#1229=IFCCARTESIANPOINT((-10.3115443809646,1.3673417081167,-0.386365427002203));
#1230=IFCCARTESIANPOINT((-9.74639049248813,1.48,-0.349247566282675));
#1231=IFCCARTESIANPOINT((-9.18123660401164,1.3673417081167,-0.312129705563147));
#1232=IFCCARTESIANPOINT((-8.70212227192294,1.04651803615609,-0.280662702663922));
#1233=IFCCARTESIANPOINT((-8.3819883101003,0.566371479900333,-0.259637123527315));
#1234=IFCCARTESIANPOINT((-8.26957221220962,-1.75028710175045E-16,-0.252253921979525));
#1235=IFCCARTESIANPOINT((-10.2581223478328,-1.47969509401207,6.98396580782731));
#1236=IFCCARTESIANPOINT((-10.7464066607198,-1.38626814006517,6.96794722409541));
#1237=IFCCARTESIANPOINT((-10.2280819016971,-1.48,6.98495132565349));
#1238=IFCCARTESIANPOINT((-10.7944501617791,-1.36734300406861,6.96637114023004));
#1239=IFCCARTESIANPOINT((-11.1762553339269,-1.13638325133445,6.95384602930262));
#1240=IFCCARTESIANPOINT((-11.274593744378,-1.04652409078552,6.95062007815224));
#1241=IFCCARTESIANPOINT((-11.4990708235929,-0.758278821745274,6.94325625397382));
#1242=IFCCARTESIANPOINT((-11.6488796706718,-0.414407101000596,6.93834191183011));
#1243=IFCCARTESIANPOINT((-11.6784271495378,-0.294784997972602,6.93737263733856));
#1244=IFCCARTESIANPOINT((-11.5954206051985,-0.566378353032809,6.94009558409668));
#1245=IFCCARTESIANPOINT((-11.6942661564432,0.201750482810869,6.93685305555799));
#1246=IFCCARTESIANPOINT((-11.6488795146538,0.414407635909025,6.93834191694806));
#1247=IFCCARTESIANPOINT((-11.7080817396305,-7.054349076319E-7,6.93639985030272));
#1248=IFCCARTESIANPOINT((-11.5449666432118,0.675436280117389,6.94175068038391));
#1249=IFCCARTESIANPOINT((-11.2745977030901,1.04652013210397,6.95061994828857));
#1250=IFCCARTESIANPOINT((-11.5954216514824,0.56637582710917,6.9400955497744));
#1251=IFCCARTESIANPOINT((-11.2473725856968,1.07305462243027,6.95151305558478));
#1252=IFCCARTESIANPOINT((-10.8346357939596,1.34999713304579,6.96505283966434));
#1253=IFCCARTESIANPOINT((-10.3535607919998,1.47467116406945,6.9808348316808));
#1254=IFCCARTESIANPOINT((-10.2581223478336,1.47969509401209,6.98396580785351));
#1255=IFCCARTESIANPOINT((-10.7944513643573,1.36734250594697,6.96637110077914));
#1256=IFCCARTESIANPOINT((-10.1025955649785,1.47467051304032,6.98907118379131));
#1257=IFCCARTESIANPOINT((-9.66171670532189,1.36734254202503,7.00359517963206));
#1258=IFCCARTESIANPOINT((-10.2280819016971,1.48,6.98495132565352));
#1259=IFCCARTESIANPOINT((-10.1980414614138,1.47969509389327,6.98593702187234));
#1260=IFCCARTESIANPOINT((-9.62153209630762,1.34999681523149,7.00492283139466));
#1261=IFCCARTESIANPOINT((-9.20880815688709,1.07305783875562,7.01859584476923));
#1262=IFCCARTESIANPOINT((-9.18158034891204,1.04652009356173,7.01950023940812));
#1263=IFCCARTESIANPOINT((-8.91121797551224,0.675432766793382,7.02849639978604));
#1264=IFCCARTESIANPOINT((-8.80731054673261,0.414407422029016,7.03196148855007));
#1265=IFCCARTESIANPOINT((-8.761923763515,0.201736614666903,7.03347636174183));
#1266=IFCCARTESIANPOINT((-8.8607664760401,0.566375690603071,7.03017832174351));
#1267=IFCCARTESIANPOINT((-8.77776765607335,-0.294802603238688,7.03294744951168));
#1268=IFCCARTESIANPOINT((-8.8073103971321,-0.414406909103628,7.03196149354196));
#1269=IFCCARTESIANPOINT((-8.74811061774136,-6.82691882577379E-7,7.03393756182077));
#1270=IFCCARTESIANPOINT((-8.86076749284807,-0.566378145454557,7.03017828783574));
#1271=IFCCARTESIANPOINT((-8.95712124317471,-0.758290879008366,7.02696696967314));
#1272=IFCCARTESIANPOINT((-9.18158424942145,-1.04652399414807,7.01950010982841));
#1273=IFCCARTESIANPOINT((-9.27992609139416,-1.13638816982254,7.01623498464933));
#1274=IFCCARTESIANPOINT((-9.70976518270571,-1.38626983785338,7.0020085575368));
#1275=IFCCARTESIANPOINT((-10.198041461413,-1.47969509389325,6.9859370218435));
#1276=IFCCARTESIANPOINT((-9.66171786136338,-1.36734302087766,7.00359514144704));
#1277=IFCCARTESIANPOINT((-11.3821967116177,1.43446153846154,15.0136338463477));
#1278=IFCCARTESIANPOINT((-11.0248724566384,1.48,15.0846230789876));
#1279=IFCCARTESIANPOINT((-11.7079923558635,1.30588235294118,14.948908369529));
#1280=IFCCARTESIANPOINT((-11.9793687541858,1.11506849315069,14.8949943068673));
#1281=IFCCARTESIANPOINT((-12.1861762853211,0.888000000000001,14.8539080729079));
#1282=IFCCARTESIANPOINT((-12.4184370510577,0.414400000000001,14.807765071692));
#1283=IFCCARTESIANPOINT((-12.4765022424918,3.56276436448854E-16,14.796229321388));
#1284=IFCCARTESIANPOINT((-12.4184370510577,-0.4144,14.807765071692));
#1285=IFCCARTESIANPOINT((-12.1861762853211,-0.888,14.8539080729079));
#1286=IFCCARTESIANPOINT((-11.9793687541858,-1.11506849315068,14.8949943068673));
#1287=IFCCARTESIANPOINT((-11.7079923558635,-1.30588235294118,14.948908369529));
#1288=IFCCARTESIANPOINT((-11.3821967116177,-1.43446153846154,15.0136338463477));
#1289=IFCCARTESIANPOINT((-11.0248724566384,-1.48,15.0846230789876));
#1290=IFCCARTESIANPOINT((-10.6675482016591,-1.43446153846154,15.1556123116275));
#1291=IFCCARTESIANPOINT((-10.3417525574132,-1.30588235294118,15.2203377884462));
#1292=IFCCARTESIANPOINT((-10.0703761590909,-1.11506849315069,15.2742518511078));
#1293=IFCCARTESIANPOINT((-9.86356862795562,-0.888,15.3153380850672));
#1294=IFCCARTESIANPOINT((-9.63130786221907,-0.4144,15.3614810862831));
#1295=IFCCARTESIANPOINT((-9.57324267078494,-1.75028710175045E-16,15.3730168365871));
#1296=IFCCARTESIANPOINT((-9.63130786221907,0.4144,15.3614810862831));
#1297=IFCCARTESIANPOINT((-10.0703761590909,1.11506849315069,15.2742518511078));
#1298=IFCCARTESIANPOINT((-9.86356862795562,0.888,15.3153380850672));
#1299=IFCCARTESIANPOINT((-10.3417525574132,1.30588235294118,15.2203377884462));
#1300=IFCCARTESIANPOINT((-10.6675482016591,1.43446153846154,15.1556123116275));
#1301=IFCCARTESIANPOINT((-14.2412434523158,0.414400000000001,21.1771906718554));
#1302=IFCCARTESIANPOINT((-14.2966206800351,3.56276436448854E-16,21.1562623799815));
#1303=IFCCARTESIANPOINT((-14.8072260025464,3.56276436448854E-16,22.4401407413402));
#1304=IFCCARTESIANPOINT((-14.75260284036,0.4144,22.4629650738115));
#1305=IFCCARTESIANPOINT((-13.8225005796988,1.11506849315069,21.3354429610935));
#1306=IFCCARTESIANPOINT((-14.0197345414387,0.888000000000001,21.2609038393509));
#1307=IFCCARTESIANPOINT((-14.5341101916144,0.888000000000001,22.5542624036965));
#1308=IFCCARTESIANPOINT((-14.3395619427313,1.11506849315069,22.6355545467449));
#1309=IFCCARTESIANPOINT((-13.2529729268642,1.43446153846154,21.5506801883739));
#1310=IFCCARTESIANPOINT((-13.5636867837506,1.30588235294118,21.4332544783123));
#1311=IFCCARTESIANPOINT((-14.0842723853735,1.30588235294118,22.7422274946363));
#1312=IFCCARTESIANPOINT((-13.7777894844181,1.43446153846154,22.8702916225294));
#1313=IFCCARTESIANPOINT((-12.5714070472423,1.43446153846154,21.8082591652833));
#1314=IFCCARTESIANPOINT((-12.9121899870532,1.48,21.6794696768286));
#1315=IFCCARTESIANPOINT((-13.4416469478865,1.48,23.0107490531218));
#1316=IFCCARTESIANPOINT((-13.1055044113548,1.43446153846154,23.1512064837142));
#1317=IFCCARTESIANPOINT((-12.0018793944076,1.11506849315068,22.0234963925637));
#1318=IFCCARTESIANPOINT((-12.2606931903559,1.30588235294118,21.9256848753449));
#1319=IFCCARTESIANPOINT((-12.7990215103995,1.30588235294118,23.2792706116072));
#1320=IFCCARTESIANPOINT((-12.5437319530416,1.11506849315069,23.3859435594987));
#1321=IFCCARTESIANPOINT((-11.5831365217906,0.4144,22.1817486818018));
#1322=IFCCARTESIANPOINT((-11.8046454326677,0.888,22.0980355143063));
#1323=IFCCARTESIANPOINT((-12.3491837041586,0.888,23.467235702547));
#1324=IFCCARTESIANPOINT((-12.130691055413,0.4144,23.5585330324321));
#1325=IFCCARTESIANPOINT((-11.5831365217906,-0.4144,22.1817486818018));
#1326=IFCCARTESIANPOINT((-11.5277592940713,-1.75028710175045E-16,22.2026769736757));
#1327=IFCCARTESIANPOINT((-12.0760678932266,-1.75028710175045E-16,23.5813573649033));
#1328=IFCCARTESIANPOINT((-12.130691055413,-0.4144,23.5585330324321));
#1329=IFCCARTESIANPOINT((-12.0018793944076,-1.11506849315069,22.0234963925637));
#1330=IFCCARTESIANPOINT((-11.8046454326677,-0.888,22.0980355143063));
#1331=IFCCARTESIANPOINT((-12.3491837041586,-0.888,23.467235702547));
#1332=IFCCARTESIANPOINT((-12.5437319530416,-1.11506849315069,23.3859435594987));
#1333=IFCCARTESIANPOINT((-12.5714070472423,-1.43446153846154,21.8082591652833));
#1334=IFCCARTESIANPOINT((-12.2606931903559,-1.30588235294118,21.9256848753449));
#1335=IFCCARTESIANPOINT((-12.7990215103995,-1.30588235294118,23.2792706116072));
#1336=IFCCARTESIANPOINT((-13.1055044113548,-1.43446153846154,23.1512064837142));
#1337=IFCCARTESIANPOINT((-13.2529729268642,-1.43446153846154,21.5506801883739));
#1338=IFCCARTESIANPOINT((-12.9121899870532,-1.48,21.6794696768286));
#1339=IFCCARTESIANPOINT((-13.4416469478865,-1.48,23.0107490531218));
#1340=IFCCARTESIANPOINT((-13.7777894844181,-1.43446153846154,22.8702916225294));
#1341=IFCCARTESIANPOINT((-13.8225005796988,-1.11506849315068,21.3354429610935));
#1342=IFCCARTESIANPOINT((-13.5636867837506,-1.30588235294118,21.4332544783123));
#1343=IFCCARTESIANPOINT((-14.0842723853735,-1.30588235294118,22.7422274946363));
#1344=IFCCARTESIANPOINT((-14.3395619427313,-1.11506849315068,22.6355545467449));
#1345=IFCCARTESIANPOINT((-14.2412434523158,-0.4144,21.1771906718554));
#1346=IFCCARTESIANPOINT((-14.0197345414387,-0.888,21.2609038393509));
#1347=IFCCARTESIANPOINT((-14.5341101916144,-0.888,22.5542624036965));
#1348=IFCCARTESIANPOINT((-14.75260284036,-0.4144,22.4629650738115));
#1349=IFCCARTESIANPOINT((-13.3228013708795,0.4144,18.4560689030734));
#1350=IFCCARTESIANPOINT((-13.379532960196,3.56276436448854E-16,18.4391532570697));
#1351=IFCCARTESIANPOINT((-12.8938172982396,1.11506849315069,18.5839789934026));
#1352=IFCCARTESIANPOINT((-13.0958750136134,0.888000000000001,18.5237314870882));
#1353=IFCCARTESIANPOINT((-12.3103607000003,1.43446153846154,18.7579481240622));
#1354=IFCCARTESIANPOINT((-12.6286736898304,1.30588235294118,18.6630368071185));
#1355=IFCCARTESIANPOINT((-11.6121257545663,1.43446153846154,18.9661406902614));
#1356=IFCCARTESIANPOINT((-11.9612432272833,1.48,18.8620444071618));
#1357=IFCCARTESIANPOINT((-11.028669156327,1.11506849315069,19.140109820921));
#1358=IFCCARTESIANPOINT((-11.2938127647362,1.30588235294118,19.0610520072052));
#1359=IFCCARTESIANPOINT((-10.5996850836871,0.4144,19.2680199112502));
#1360=IFCCARTESIANPOINT((-10.8266114409532,0.888,19.2003573272355));
#1361=IFCCARTESIANPOINT((-10.5996850836871,-0.4144,19.2680199112502));
#1362=IFCCARTESIANPOINT((-10.5429534943706,-1.75028710175045E-16,19.2849355572539));
#1363=IFCCARTESIANPOINT((-11.028669156327,-1.11506849315069,19.140109820921));
#1364=IFCCARTESIANPOINT((-10.8266114409532,-0.888,19.2003573272355));
#1365=IFCCARTESIANPOINT((-11.6121257545663,-1.43446153846154,18.9661406902614));
#1366=IFCCARTESIANPOINT((-11.2938127647362,-1.30588235294118,19.0610520072052));
#1367=IFCCARTESIANPOINT((-12.3103607000003,-1.43446153846154,18.7579481240622));
#1368=IFCCARTESIANPOINT((-11.9612432272833,-1.48,18.8620444071618));
#1369=IFCCARTESIANPOINT((-12.8938172982396,-1.11506849315068,18.5839789934026));
#1370=IFCCARTESIANPOINT((-12.6286736898304,-1.30588235294118,18.6630368071185));
#1371=IFCCARTESIANPOINT((-13.3228013708795,-0.4144,18.4560689030734));
#1372=IFCCARTESIANPOINT((-13.0958750136134,-0.888,18.5237314870882));
#1373=IFCCARTESIANPOINT((-16.6251715479403,1.47969509401211,39.0375322984159));
#1374=IFCCARTESIANPOINT((-16.1368872350534,1.38626814006524,39.0535508821484));
#1375=IFCCARTESIANPOINT((-16.2565218216284,1.43446153846154,37.3536679621579));
#1376=IFCCARTESIANPOINT((-16.6205255056664,1.48,37.3387880269209));
#1377=IFCCARTESIANPOINT((-16.6552119940758,1.48,39.0365467805906));
#1378=IFCCARTESIANPOINT((-15.7070385618462,1.13638325133458,39.0676520769412));
#1379=IFCCARTESIANPOINT((-15.6481868976197,1.11506849315069,37.3785357991293));
#1380=IFCCARTESIANPOINT((-15.9246361097114,1.30588235294118,37.3672349619328));
#1381=IFCCARTESIANPOINT((-16.0888437339938,1.36734300406861,39.0551269660138));
#1382=IFCCARTESIANPOINT((-15.608700151395,1.04652409078552,39.0708780280916));
#1383=IFCCARTESIANPOINT((-15.3842230721801,0.758278821745446,39.07824185227));
#1384=IFCCARTESIANPOINT((-15.437513532543,0.888,37.3871478164411));
#1385=IFCCARTESIANPOINT((-15.2009111379183,0.4144,37.3968197743452));
#1386=IFCCARTESIANPOINT((-15.2878732905744,0.566378353032808,39.081402522147));
#1387=IFCCARTESIANPOINT((-15.1417605392621,-1.75028710175045E-16,37.3992377638212));
#1388=IFCCARTESIANPOINT((-15.2048667462352,0.294784997972798,39.0841254689052));
#1389=IFCCARTESIANPOINT((-15.2344142251012,0.414407101000599,39.0831561944137));
#1390=IFCCARTESIANPOINT((-15.1752121561427,-1.11008932411492E-6,39.0850982559409));
#1391=IFCCARTESIANPOINT((-15.2425793524486,-0.441439201952954,39.0828883456539));
#1392=IFCCARTESIANPOINT((-15.2009111379183,-0.4144,37.3968197743452));
#1393=IFCCARTESIANPOINT((-15.1760829640813,0.0507625184730266,39.0850696900361));
#1394=IFCCARTESIANPOINT((-15.437513532543,-0.888,37.3871478164411));
#1395=IFCCARTESIANPOINT((-15.2878732195759,-0.566378181629433,39.0814025244761));
#1396=IFCCARTESIANPOINT((-15.4681455977895,-0.883896497807526,39.0754888371017));
#1397=IFCCARTESIANPOINT((-15.608701980484,-1.04652591985032,39.0708779680904));
#1398=IFCCARTESIANPOINT((-15.6481868976197,-1.11506849315069,37.3785357991293));
#1399=IFCCARTESIANPOINT((-16.2565218216284,-1.43446153846154,37.3536679621579));
#1400=IFCCARTESIANPOINT((-15.9246361097114,-1.30588235294118,37.3672349619328));
#1401=IFCCARTESIANPOINT((-16.0888479839208,-1.36734476442714,39.0551268265989));
#1402=IFCCARTESIANPOINT((-15.8274311560635,-1.22685723915823,39.0637026265651));
#1403=IFCCARTESIANPOINT((-16.2803589941852,-1.43174200884975,39.0488442158412));
#1404=IFCCARTESIANPOINT((-16.6251715479395,-1.47969509401209,39.0375322983889));
#1405=IFCCARTESIANPOINT((-16.6205255056664,-1.48,37.3387880269209));
#1406=IFCCARTESIANPOINT((-16.6852524343588,-1.47969509389328,39.0355610843715));
#1407=IFCCARTESIANPOINT((-16.7806983307948,-1.47467051304029,39.0324269224528));
#1408=IFCCARTESIANPOINT((-16.6552119940758,-1.48,39.0365467805907));
#1409=IFCCARTESIANPOINT((-17.2215771904511,-1.36734254202502,39.0179029266121));
#1410=IFCCARTESIANPOINT((-17.3164149016213,-1.30588235294118,37.310341091909));
#1411=IFCCARTESIANPOINT((-16.9845291897043,-1.43446153846154,37.3239080916839));
#1412=IFCCARTESIANPOINT((-17.6744857388863,-1.07305783875524,39.002902261475));
#1413=IFCCARTESIANPOINT((-17.592864113713,-1.11506849315068,37.2990402547125));
#1414=IFCCARTESIANPOINT((-17.701713546861,-1.04652009356173,39.001997866836));
#1415=IFCCARTESIANPOINT((-17.9720759202609,-0.675432766793189,38.9930017064582));
#1416=IFCCARTESIANPOINT((-17.8035374787898,-0.888,37.2904282374007));
#1417=IFCCARTESIANPOINT((-18.0401398734144,-0.4144,37.2807562794967));
#1418=IFCCARTESIANPOINT((-18.0225274197329,-0.566375690603072,38.9913197845007));
#1419=IFCCARTESIANPOINT((-18.0759833490404,-0.414407422029018,38.9895366176941));
#1420=IFCCARTESIANPOINT((-18.121370132258,-0.201736614666694,38.9880217445024));
#1421=IFCCARTESIANPOINT((-18.0992904720706,3.56276436448854E-16,37.2783382900207));
#1422=IFCCARTESIANPOINT((-18.1351832780316,6.70479921498102E-7,38.9875605444233));
#1423=IFCCARTESIANPOINT((-18.1055262396996,0.294802603238894,38.9885506567325));
#1424=IFCCARTESIANPOINT((-18.0401398734144,0.414400000000001,37.2807562794967));
#1425=IFCCARTESIANPOINT((-17.8035374787898,0.888000000000001,37.2904282374007));
#1426=IFCCARTESIANPOINT((-18.0225264029249,0.566378145454555,38.9913198184085));
#1427=IFCCARTESIANPOINT((-18.0759834986409,0.414406909103623,38.9895366127022));
#1428=IFCCARTESIANPOINT((-17.7017096463516,1.04652399414806,39.0019979964158));
#1429=IFCCARTESIANPOINT((-17.592864113713,1.11506849315069,37.2990402547125));
#1430=IFCCARTESIANPOINT((-17.9261726525982,0.758290879008548,38.9945311365711));
#1431=IFCCARTESIANPOINT((-17.6033678043793,1.13638816982213,39.0052631215947));
#1432=IFCCARTESIANPOINT((-17.2215760344096,1.36734302087766,39.017902964797));
#1433=IFCCARTESIANPOINT((-17.3164149016213,1.30588235294118,37.310341091909));
#1434=IFCCARTESIANPOINT((-16.6852524343598,1.4796950938933,39.0355610844012));
#1435=IFCCARTESIANPOINT((-16.9845291897043,1.43446153846154,37.3239080916839));
#1436=IFCCARTESIANPOINT((-17.1735287130671,1.38626983785346,39.0194895487074));
#1437=IFCCARTESIANPOINT((-17.2617617994656,-1.3499968152314,39.0165752748494));
#1438=IFCCARTESIANPOINT((-15.0438275925344,-0.4144,35.1293791599185));
#1439=IFCCARTESIANPOINT((-14.9849086338757,-1.75028710175045E-16,35.1351407837448));
#1440=IFCCARTESIANPOINT((-14.4648444064845,-0.4144,31.213670426541));
#1441=IFCCARTESIANPOINT((-14.4067792333921,-1.75028710175045E-16,31.2252062691686));
#1442=IFCCARTESIANPOINT((-15.2795034271691,-0.888,35.1063326646133));
#1443=IFCCARTESIANPOINT((-14.6971050988539,-0.888,31.1675270560307));
#1444=IFCCARTESIANPOINT((-15.4893517730768,-1.11506849315069,35.0858118126292));
#1445=IFCCARTESIANPOINT((-14.9039125646623,-1.11506849315069,31.1264404932475));
#1446=IFCCARTESIANPOINT((-15.7647183808289,-1.30588235294118,35.0588839978085));
#1447=IFCCARTESIANPOINT((-15.1752888772615,-1.30588235294118,31.0725259990976));
#1448=IFCCARTESIANPOINT((-16.0953043932125,-1.43446153846154,35.0265563347107));
#1449=IFCCARTESIANPOINT((-15.5010844185942,-1.43446153846154,31.0078000042641));
#1450=IFCCARTESIANPOINT((-16.4578826003429,-1.48,34.9911001880873));
#1451=IFCCARTESIANPOINT((-15.858408560701,-1.48,30.936810203479));
#1452=IFCCARTESIANPOINT((-16.8204608074733,-1.43446153846154,34.9556440414639));
#1453=IFCCARTESIANPOINT((-16.2157327028078,-1.43446153846154,30.8658204026938));
#1454=IFCCARTESIANPOINT((-17.1510468198568,-1.30588235294118,34.9233163783661));
#1455=IFCCARTESIANPOINT((-16.5415282441404,-1.30588235294118,30.8010944078603));
#1456=IFCCARTESIANPOINT((-17.426413427609,-1.11506849315069,34.8963885635454));
#1457=IFCCARTESIANPOINT((-16.8129045567397,-1.11506849315068,30.7471799137104));
#1458=IFCCARTESIANPOINT((-17.6362617735166,-0.888,34.8758677115613));
#1459=IFCCARTESIANPOINT((-17.0197120225481,-0.888,30.7060933509272));
#1460=IFCCARTESIANPOINT((-17.8719376081514,-0.4144,34.8528212162561));
#1461=IFCCARTESIANPOINT((-17.2519727149175,-0.4144,30.6599499804169));
#1462=IFCCARTESIANPOINT((-17.9308565668101,3.56276436448854E-16,34.8470595924298));
#1463=IFCCARTESIANPOINT((-17.3100378880098,3.56276436448854E-16,30.6484141377893));
#1464=IFCCARTESIANPOINT((-17.8719376081514,0.4144,34.8528212162561));
#1465=IFCCARTESIANPOINT((-17.2519727149175,0.4144,30.6599499804169));
#1466=IFCCARTESIANPOINT((-17.6362617735166,0.888,34.8758677115613));
#1467=IFCCARTESIANPOINT((-17.0197120225481,0.888000000000001,30.7060933509272));
#1468=IFCCARTESIANPOINT((-17.426413427609,1.11506849315069,34.8963885635454));
#1469=IFCCARTESIANPOINT((-16.8129045567397,1.11506849315069,30.7471799137104));
#1470=IFCCARTESIANPOINT((-17.1510468198568,1.30588235294118,34.9233163783661));
#1471=IFCCARTESIANPOINT((-16.5415282441404,1.30588235294118,30.8010944078603));
#1472=IFCCARTESIANPOINT((-16.8204608074733,1.43446153846154,34.9556440414639));
#1473=IFCCARTESIANPOINT((-16.2157327028078,1.43446153846154,30.8658204026938));
#1474=IFCCARTESIANPOINT((-16.4578826003429,1.48,34.9911001880873));
#1475=IFCCARTESIANPOINT((-15.858408560701,1.48,30.9368102034789));
#1476=IFCCARTESIANPOINT((-16.0953043932125,1.43446153846154,35.0265563347107));
#1477=IFCCARTESIANPOINT((-15.5010844185942,1.43446153846154,31.0078000042641));
#1478=IFCCARTESIANPOINT((-15.7647183808289,1.30588235294118,35.0588839978085));
#1479=IFCCARTESIANPOINT((-15.1752888772615,1.30588235294118,31.0725259990976));
#1480=IFCCARTESIANPOINT((-15.4893517730768,1.11506849315069,35.0858118126292));
#1481=IFCCARTESIANPOINT((-14.9039125646623,1.11506849315069,31.1264404932475));
#1482=IFCCARTESIANPOINT((-15.2795034271691,0.888,35.1063326646133));
#1483=IFCCARTESIANPOINT((-14.6971050988539,0.888,31.1675270560306));
#1484=IFCCARTESIANPOINT((-15.0438275925344,0.4144,35.1293791599185));
#1485=IFCCARTESIANPOINT((-14.4648444064845,0.4144,31.213670426541));
#1486=IFCCARTESIANPOINT((-17.7446558517594,1.3673417081167,46.9822304348903));
#1487=IFCCARTESIANPOINT((-17.1795019632829,1.48,47.0193482956099));
#1488=IFCCARTESIANPOINT((-18.2237701838481,1.04651803615609,46.9507634319911));
#1489=IFCCARTESIANPOINT((-18.5439041456707,0.566371479900332,46.9297378528544));
#1490=IFCCARTESIANPOINT((-18.6563202435614,1.81247726273808E-16,46.9223546513066));
#1491=IFCCARTESIANPOINT((-18.5439041456707,-0.566371479900333,46.9297378528544));
#1492=IFCCARTESIANPOINT((-18.2237701838481,-1.04651803615609,46.9507634319911));
#1493=IFCCARTESIANPOINT((-17.7446558517594,-1.3673417081167,46.9822304348903));
#1494=IFCCARTESIANPOINT((-17.1795019632829,-1.48,47.0193482956099));
#1495=IFCCARTESIANPOINT((-16.6143480748064,-1.3673417081167,47.0564661563295));
#1496=IFCCARTESIANPOINT((-16.1352337427177,-1.04651803615609,47.0879331592288));
#1497=IFCCARTESIANPOINT((-15.8150997808951,-0.566371479900334,47.1089587383654));
#1498=IFCCARTESIANPOINT((-15.7026836830044,-1.75028710175045E-16,47.1163419399132));
#1499=IFCCARTESIANPOINT((-15.8150997808951,0.566371479900333,47.1089587383654));
#1500=IFCCARTESIANPOINT((-16.1352337427177,1.04651803615609,47.0879331592288));
#1501=IFCCARTESIANPOINT((-16.6143480748064,1.3673417081167,47.0564661563295));
#1502=IFCCARTESIANPOINT((0.,0.,0.));
#1503=IFCCARTESIANPOINT((0.,0.,0.));
#1504=IFCGEOMETRICREPRESENTATIONCONTEXT($,'Model',3,0.005,#1212,$);
#1505=IFCSIUNIT(*,.LENGTHUNIT.,.MILLI.,.METRE.);
#1506=IFCSIUNIT(*,.AREAUNIT.,$,.SQUARE_METRE.);
#1507=IFCSIUNIT(*,.VOLUMEUNIT.,$,.CUBIC_METRE.);
#1508=IFCSIUNIT(*,.PLANEANGLEUNIT.,$,.RADIAN.);
#1509=IFCOWNERHISTORY(#1511,#1510,$,.NOCHANGE.,0,$,$,0);
#1510=IFCAPPLICATION(#1512,' ',' ',' ');
#1511=IFCPERSONANDORGANIZATION(#1513,#1512,$);
#1512=IFCORGANIZATION($,' ',$,$,$);
#1513=IFCPERSON(' ',' ',' ',$,$,$,$,$);
ENDSEC;
END-ISO-10303-21;
