ISO-10303-21;
HEADER;
/* Generated by software containing ST-Developer
 * from STEP Tools, Inc. (www.steptools.com) 
 */
/* OPTION: strings as raw bytes, not using required /X/ escapes */

FILE_DESCRIPTION(
/* description */ ('Unknown'),
/* implementation_level */ '2;1');

FILE_NAME(
/* name */ 'Black_6006140_AVV',
/* time_stamp */ '2025-07-21T23:49:05+02:00',
/* author */ ('Unknown'),
/* organization */ ('Unknown'),
/* preprocessor_version */ 'ST-DEVELOPER v19.4',
/* originating_system */ 'Unknown',
/* authorisation */ 'OpenTools');

FILE_SCHEMA (('IFC2X3'));
ENDSEC;

DATA;
#10=IFCPROPERTYSINGLEVALUE('ProjectName',$,IFCTEXT(''),$);
#11=IFCPROPERTYSINGLEVALUE('PartNumber',$,IFCTEXT(''),$);
#12=IFCRELDEFINESBYPROPERTIES('3cRq1JQpSwDOm5lsE5cG83',#1414,$,$,(#14),
#13);
#13=IFCPROPERTYSET('1jOd4kXgWorA4TVRi95rqH',#1414,
'empty property set name',$,(#10,#11));
#14=IFCBUILDINGELEMENTPROXY('2GP_XOK7Wq1Pa1NGQTVWHM',#1414,
'Black_6006140_AVV',' ','Black_6006140_AVV',#19,#15,' ',.ELEMENT.);
#15=IFCPRODUCTDEFINITIONSHAPE(' ',' ',(#25));
#16=IFCRELCONTAINEDINSPATIALSTRUCTURE('3HZhfx2I0vj9Cvp1GHER_f',#1414,
' ',' ',(#14),#20);
#17=IFCRELAGGREGATES('1jF0XzMGqvEA6wZwPLSawz',#1414,$,$,#1071,(#20));
#18=IFCLOCALPLACEMENT($,#1074);
#19=IFCLOCALPLACEMENT(#18,#1075);
#20=IFCBUILDING('3G2N19bOG__grq1LV0cQPU',#1414,'Default Building',$,$,#18,
$,$,.ELEMENT.,0.,0.,$);
#21=IFCCARTESIANTRANSFORMATIONOPERATOR3D($,$,#1407,1.,$);
#22=IFCMAPPEDITEM(#23,#21);
#23=IFCREPRESENTATIONMAP(#1074,#24);
#24=IFCSHAPEREPRESENTATION(#1073,'Body','Brep',(#1070));
#25=IFCSHAPEREPRESENTATION(#1073,'Body','MappedRepresentation',(#22));
#26=IFCPOLYLOOP((#1081,#1082,#1083,#1084));
#27=IFCPOLYLOOP((#1085,#1086,#1082,#1081));
#28=IFCPOLYLOOP((#1087,#1088,#1086,#1085));
#29=IFCPOLYLOOP((#1089,#1090,#1088,#1087));
#30=IFCPOLYLOOP((#1091,#1092,#1090,#1089));
#31=IFCPOLYLOOP((#1093,#1094,#1092,#1091));
#32=IFCPOLYLOOP((#1095,#1096,#1094,#1093));
#33=IFCPOLYLOOP((#1097,#1098,#1096,#1095));
#34=IFCPOLYLOOP((#1099,#1100,#1098,#1097));
#35=IFCPOLYLOOP((#1101,#1102,#1100,#1099));
#36=IFCPOLYLOOP((#1103,#1104,#1102,#1101));
#37=IFCPOLYLOOP((#1105,#1106,#1104,#1103));
#38=IFCPOLYLOOP((#1107,#1108,#1106,#1105));
#39=IFCPOLYLOOP((#1109,#1110,#1108,#1107));
#40=IFCPOLYLOOP((#1111,#1112,#1110,#1109));
#41=IFCPOLYLOOP((#1084,#1083,#1112,#1111));
#42=IFCPOLYLOOP((#1100,#1102,#1113,#1114));
#43=IFCPOLYLOOP((#1090,#1092,#1115,#1116));
#44=IFCPOLYLOOP((#1102,#1104,#1117,#1113));
#45=IFCPOLYLOOP((#1082,#1086,#1118,#1119));
#46=IFCPOLYLOOP((#1092,#1094,#1120,#1115));
#47=IFCPOLYLOOP((#1096,#1098,#1121,#1122));
#48=IFCPOLYLOOP((#1104,#1106,#1123,#1117));
#49=IFCPOLYLOOP((#1112,#1083,#1124,#1125));
#50=IFCPOLYLOOP((#1086,#1088,#1126,#1118));
#51=IFCPOLYLOOP((#1122,#1120,#1094,#1096));
#52=IFCPOLYLOOP((#1106,#1108,#1127,#1123));
#53=IFCPOLYLOOP((#1125,#1128,#1110,#1112));
#54=IFCPOLYLOOP((#1116,#1126,#1088,#1090));
#55=IFCPOLYLOOP((#1128,#1127,#1108,#1110));
#56=IFCPOLYLOOP((#1114,#1121,#1098,#1100));
#57=IFCPOLYLOOP((#1119,#1124,#1083,#1082));
#58=IFCPOLYLOOP((#1119,#1129,#1130,#1124));
#59=IFCPOLYLOOP((#1118,#1131,#1129,#1119));
#60=IFCPOLYLOOP((#1126,#1132,#1131,#1118));
#61=IFCPOLYLOOP((#1116,#1133,#1132,#1126));
#62=IFCPOLYLOOP((#1115,#1134,#1133,#1116));
#63=IFCPOLYLOOP((#1120,#1135,#1134,#1115));
#64=IFCPOLYLOOP((#1122,#1136,#1135,#1120));
#65=IFCPOLYLOOP((#1121,#1137,#1136,#1122));
#66=IFCPOLYLOOP((#1114,#1138,#1137,#1121));
#67=IFCPOLYLOOP((#1113,#1139,#1138,#1114));
#68=IFCPOLYLOOP((#1117,#1140,#1139,#1113));
#69=IFCPOLYLOOP((#1123,#1141,#1140,#1117));
#70=IFCPOLYLOOP((#1127,#1142,#1141,#1123));
#71=IFCPOLYLOOP((#1128,#1143,#1142,#1127));
#72=IFCPOLYLOOP((#1125,#1144,#1143,#1128));
#73=IFCPOLYLOOP((#1124,#1130,#1144,#1125));
#74=IFCPOLYLOOP((#1145,#1146,#1135,#1136));
#75=IFCPOLYLOOP((#1146,#1147,#1134,#1135));
#76=IFCPOLYLOOP((#1148,#1149,#1132,#1133));
#77=IFCPOLYLOOP((#1150,#1151,#1140,#1141));
#78=IFCPOLYLOOP((#1133,#1134,#1147,#1148));
#79=IFCPOLYLOOP((#1152,#1153,#1129,#1131));
#80=IFCPOLYLOOP((#1151,#1154,#1139,#1140));
#81=IFCPOLYLOOP((#1155,#1156,#1137,#1138));
#82=IFCPOLYLOOP((#1131,#1132,#1149,#1152));
#83=IFCPOLYLOOP((#1157,#1158,#1144,#1130));
#84=IFCPOLYLOOP((#1159,#1160,#1142,#1143));
#85=IFCPOLYLOOP((#1138,#1139,#1154,#1155));
#86=IFCPOLYLOOP((#1130,#1129,#1153,#1157));
#87=IFCPOLYLOOP((#1141,#1142,#1160,#1150));
#88=IFCPOLYLOOP((#1143,#1144,#1158,#1159));
#89=IFCPOLYLOOP((#1136,#1137,#1156,#1145));
#90=IFCPOLYLOOP((#1153,#1161,#1162,#1157));
#91=IFCPOLYLOOP((#1152,#1163,#1161,#1153));
#92=IFCPOLYLOOP((#1149,#1164,#1163,#1152));
#93=IFCPOLYLOOP((#1148,#1165,#1164,#1149));
#94=IFCPOLYLOOP((#1147,#1166,#1165,#1148));
#95=IFCPOLYLOOP((#1146,#1167,#1166,#1147));
#96=IFCPOLYLOOP((#1145,#1168,#1167,#1146));
#97=IFCPOLYLOOP((#1156,#1169,#1168,#1145));
#98=IFCPOLYLOOP((#1155,#1170,#1169,#1156));
#99=IFCPOLYLOOP((#1154,#1171,#1170,#1155));
#100=IFCPOLYLOOP((#1151,#1172,#1171,#1154));
#101=IFCPOLYLOOP((#1150,#1173,#1172,#1151));
#102=IFCPOLYLOOP((#1160,#1174,#1173,#1150));
#103=IFCPOLYLOOP((#1159,#1175,#1174,#1160));
#104=IFCPOLYLOOP((#1158,#1176,#1175,#1159));
#105=IFCPOLYLOOP((#1157,#1162,#1176,#1158));
#106=IFCPOLYLOOP((#1177,#1178,#1179));
#107=IFCPOLYLOOP((#1179,#1180,#1181,#1182,#1183,#1184,#1185,#1177));
#108=IFCPOLYLOOP((#1186,#1177,#1187,#1188));
#109=IFCPOLYLOOP((#1185,#1189,#1177));
#110=IFCPOLYLOOP((#1189,#1187,#1177));
#111=IFCPOLYLOOP((#1190,#1191,#1192,#1193,#1194,#1195,#1196,#1197));
#112=IFCPOLYLOOP((#1198,#1199,#1200));
#113=IFCPOLYLOOP((#1177,#1201,#1178));
#114=IFCPOLYLOOP((#1177,#1202,#1203));
#115=IFCPOLYLOOP((#1204,#1205,#1206));
#116=IFCPOLYLOOP((#1190,#1207,#1191));
#117=IFCPOLYLOOP((#1200,#1208,#1190,#1198));
#118=IFCPOLYLOOP((#1203,#1201,#1177));
#119=IFCPOLYLOOP((#1204,#1209,#1210,#1205));
#120=IFCPOLYLOOP((#1190,#1211,#1212));
#121=IFCPOLYLOOP((#1208,#1207,#1190));
#122=IFCPOLYLOOP((#1213,#1214,#1215,#1216,#1217,#1218,#1219,#1220,#1221,
#1222,#1223));
#123=IFCPOLYLOOP((#1177,#1224,#1202));
#124=IFCPOLYLOOP((#1204,#1225,#1224));
#125=IFCPOLYLOOP((#1206,#1226,#1204));
#126=IFCPOLYLOOP((#1227,#1190,#1228));
#127=IFCPOLYLOOP((#1197,#1211,#1190));
#128=IFCPOLYLOOP((#1229,#1230,#1231));
#129=IFCPOLYLOOP((#1229,#1232,#1233));
#130=IFCPOLYLOOP((#1188,#1234,#1186));
#131=IFCPOLYLOOP((#1226,#1225,#1204));
#132=IFCPOLYLOOP((#1190,#1235,#1228));
#133=IFCPOLYLOOP((#1212,#1236,#1190));
#134=IFCPOLYLOOP((#1233,#1230,#1229));
#135=IFCPOLYLOOP((#1237,#1238,#1239,#1210,#1209,#1240));
#136=IFCPOLYLOOP((#1224,#1177,#1204));
#137=IFCPOLYLOOP((#1241,#1242,#1243));
#138=IFCPOLYLOOP((#1166,#1244,#1245));
#139=IFCPOLYLOOP((#1246,#1247,#1248));
#140=IFCPOLYLOOP((#1236,#1235,#1190));
#141=IFCPOLYLOOP((#1229,#1249,#1232));
#142=IFCPOLYLOOP((#1234,#1250,#1251,#1186));
#143=IFCPOLYLOOP((#1243,#1252,#1241));
#144=IFCPOLYLOOP((#1245,#1253,#1241,#1166));
#145=IFCPOLYLOOP((#1248,#1254,#1172,#1246));
#146=IFCPOLYLOOP((#1198,#1251,#1250,#1199));
#147=IFCPOLYLOOP((#1229,#1228,#1249));
#148=IFCPOLYLOOP((#1252,#1204,#1177,#1255,#1241));
#149=IFCPOLYLOOP((#1166,#1167,#1244));
#150=IFCPOLYLOOP((#1256,#1257,#1174,#1175));
#151=IFCPOLYLOOP((#1254,#1258,#1172));
#152=IFCPOLYLOOP((#1246,#1259,#1190,#1227,#1260));
#153=IFCPOLYLOOP((#1223,#1229,#1231,#1261,#1262,#1213));
#154=IFCPOLYLOOP((#1167,#1263,#1264));
#155=IFCPOLYLOOP((#1265,#1266,#1167,#1168));
#156=IFCPOLYLOOP((#1253,#1242,#1241));
#157=IFCPOLYLOOP((#1175,#1176,#1267,#1256));
#158=IFCPOLYLOOP((#1246,#1268,#1247));
#159=IFCPOLYLOOP((#1228,#1229,#1227));
#160=IFCPOLYLOOP((#1264,#1269,#1167));
#161=IFCPOLYLOOP((#1168,#1270,#1271,#1265));
#162=IFCPOLYLOOP((#1241,#1272,#1165,#1166));
#163=IFCPOLYLOOP((#1176,#1162,#1273,#1267));
#164=IFCPOLYLOOP((#1260,#1268,#1246));
#165=IFCPOLYLOOP((#1171,#1274,#1275));
#166=IFCPOLYLOOP((#1171,#1258,#1276));
#167=IFCPOLYLOOP((#1270,#1168,#1169));
#168=IFCPOLYLOOP((#1266,#1263,#1167));
#169=IFCPOLYLOOP((#1272,#1277,#1164,#1165));
#170=IFCPOLYLOOP((#1278,#1279,#1161,#1163));
#171=IFCPOLYLOOP((#1257,#1280,#1173,#1174));
#172=IFCPOLYLOOP((#1258,#1171,#1172));
#173=IFCPOLYLOOP((#1276,#1274,#1171));
#174=IFCPOLYLOOP((#1170,#1275,#1281));
#175=IFCPOLYLOOP((#1269,#1244,#1167));
#176=IFCPOLYLOOP((#1163,#1164,#1277,#1278));
#177=IFCPOLYLOOP((#1172,#1173,#1280,#1246));
#178=IFCPOLYLOOP((#1281,#1169,#1170));
#179=IFCPOLYLOOP((#1240,#1282,#1283,#1284,#1285,#1286,#1287,#1288,#1289,
#1290,#1237));
#180=IFCPOLYLOOP((#1275,#1170,#1171));
#181=IFCPOLYLOOP((#1162,#1161,#1279,#1273));
#182=IFCPOLYLOOP((#1169,#1281,#1291,#1270));
#183=IFCPOLYLOOP((#1292,#1293,#1294,#1295,#1296,#1297,#1298,#1299));
#184=IFCPOLYLOOP((#1292,#1300,#1293));
#185=IFCPOLYLOOP((#1301,#1302,#1303));
#186=IFCPOLYLOOP((#1292,#1304,#1300));
#187=IFCPOLYLOOP((#1305,#1306,#1307));
#188=IFCPOLYLOOP((#1301,#1308,#1309));
#189=IFCPOLYLOOP((#1303,#1310,#1311,#1312,#1313,#1314,#1315,#1301));
#190=IFCPOLYLOOP((#1301,#1316,#1317));
#191=IFCPOLYLOOP((#1307,#1304,#1292,#1305));
#192=IFCPOLYLOOP((#1315,#1308,#1301));
#193=IFCPOLYLOOP((#1301,#1318,#1316));
#194=IFCPOLYLOOP((#1319,#1292,#1320));
#195=IFCPOLYLOOP((#1292,#1321,#1322));
#196=IFCPOLYLOOP((#1299,#1323,#1292));
#197=IFCPOLYLOOP((#1317,#1302,#1301));
#198=IFCPOLYLOOP((#1292,#1324,#1320));
#199=IFCPOLYLOOP((#1323,#1321,#1292));
#200=IFCPOLYLOOP((#1309,#1325,#1326,#1301));
#201=IFCPOLYLOOP((#1327,#1328,#1329));
#202=IFCPOLYLOOP((#1322,#1324,#1292));
#203=IFCPOLYLOOP((#1325,#1330,#1326));
#204=IFCPOLYLOOP((#1329,#1331,#1327));
#205=IFCPOLYLOOP((#1332,#1333,#1334,#1335,#1336,#1337,#1338,#1339,#1340,
#1341,#1342));
#206=IFCPOLYLOOP((#1305,#1343,#1344,#1306));
#207=IFCPOLYLOOP((#1301,#1345,#1318));
#208=IFCPOLYLOOP((#1327,#1346,#1345));
#209=IFCPOLYLOOP((#1327,#1347,#1348,#1328));
#210=IFCPOLYLOOP((#1349,#1350,#1351));
#211=IFCPOLYLOOP((#1349,#1352,#1353));
#212=IFCPOLYLOOP((#1330,#1344,#1343,#1326));
#213=IFCPOLYLOOP((#1331,#1346,#1327));
#214=IFCPOLYLOOP((#1353,#1350,#1349));
#215=IFCPOLYLOOP((#1354,#1355,#1356,#1348,#1347,#1357));
#216=IFCPOLYLOOP((#1345,#1301,#1327));
#217=IFCPOLYLOOP((#1349,#1358,#1352));
#218=IFCPOLYLOOP((#1091,#1359,#1360));
#219=IFCPOLYLOOP((#1091,#1361,#1362,#1363));
#220=IFCPOLYLOOP((#1361,#1364,#1365));
#221=IFCPOLYLOOP((#1320,#1349,#1319));
#222=IFCPOLYLOOP((#1349,#1320,#1358));
#223=IFCPOLYLOOP((#1091,#1366,#1359));
#224=IFCPOLYLOOP((#1361,#1367,#1362));
#225=IFCPOLYLOOP((#1361,#1368,#1292,#1319,#1364));
#226=IFCPOLYLOOP((#1342,#1349,#1351,#1369,#1370,#1332));
#227=IFCPOLYLOOP((#1371,#1103,#1372,#1373));
#228=IFCPOLYLOOP((#1363,#1366,#1091));
#229=IFCPOLYLOOP((#1357,#1374,#1375,#1376,#1377,#1378,#1379,#1380,#1381,
#1382,#1354));
#230=IFCPOLYLOOP((#1103,#1383,#1372));
#231=IFCPOLYLOOP((#1101,#1384,#1385));
#232=IFCPOLYLOOP((#1365,#1367,#1361));
#233=IFCPOLYLOOP((#1371,#1386,#1387));
#234=IFCPOLYLOOP((#1103,#1101,#1383));
#235=IFCPOLYLOOP((#1101,#1388,#1389));
#236=IFCPOLYLOOP((#1101,#1099,#1390,#1384));
#237=IFCPOLYLOOP((#1387,#1327,#1301,#1391,#1371));
#238=IFCPOLYLOOP((#1373,#1392,#1371));
#239=IFCPOLYLOOP((#1385,#1388,#1101));
#240=IFCPOLYLOOP((#1392,#1386,#1371));
#241=IFCPOLYLOOP((#1360,#1393,#1093,#1091));
#242=IFCPOLYLOOP((#1394,#1395,#1111,#1109));
#243=IFCPOLYLOOP((#1396,#1397,#1089,#1087));
#244=IFCPOLYLOOP((#1371,#1398,#1105,#1103));
#245=IFCPOLYLOOP((#1109,#1107,#1399,#1394));
#246=IFCPOLYLOOP((#1093,#1393,#1400));
#247=IFCPOLYLOOP((#1401,#1402,#1390,#1099,#1097));
#248=IFCPOLYLOOP((#1397,#1361,#1091,#1089));
#249=IFCPOLYLOOP((#1107,#1105,#1398,#1399));
#250=IFCPOLYLOOP((#1097,#1095,#1401));
#251=IFCPOLYLOOP((#1389,#1383,#1101));
#252=IFCPOLYLOOP((#1403,#1404,#1085,#1081));
#253=IFCPOLYLOOP((#1087,#1085,#1404,#1396));
#254=IFCPOLYLOOP((#1400,#1405,#1401,#1095,#1093));
#255=IFCPOLYLOOP((#1395,#1406,#1084,#1111));
#256=IFCPOLYLOOP((#1081,#1084,#1406,#1403));
#257=IFCPOLYLOOP((#1226,#1352,#1358,#1225));
#258=IFCPOLYLOOP((#1206,#1353,#1352,#1226));
#259=IFCPOLYLOOP((#1205,#1350,#1353,#1206));
#260=IFCPOLYLOOP((#1210,#1351,#1350,#1205));
#261=IFCPOLYLOOP((#1207,#1308,#1315,#1191));
#262=IFCPOLYLOOP((#1208,#1309,#1308,#1207));
#263=IFCPOLYLOOP((#1200,#1325,#1309,#1208));
#264=IFCPOLYLOOP((#1199,#1330,#1325,#1200));
#265=IFCPOLYLOOP((#1188,#1307,#1306,#1234));
#266=IFCPOLYLOOP((#1187,#1304,#1307,#1188));
#267=IFCPOLYLOOP((#1189,#1300,#1304,#1187));
#268=IFCPOLYLOOP((#1185,#1293,#1300,#1189));
#269=IFCPOLYLOOP((#1236,#1316,#1318,#1235));
#270=IFCPOLYLOOP((#1212,#1317,#1316,#1236));
#271=IFCPOLYLOOP((#1211,#1302,#1317,#1212));
#272=IFCPOLYLOOP((#1197,#1303,#1302,#1211));
#273=IFCPOLYLOOP((#1230,#1328,#1348,#1231));
#274=IFCPOLYLOOP((#1233,#1329,#1328,#1230));
#275=IFCPOLYLOOP((#1232,#1331,#1329,#1233));
#276=IFCPOLYLOOP((#1249,#1346,#1331,#1232));
#277=IFCPOLYLOOP((#1178,#1323,#1299,#1179));
#278=IFCPOLYLOOP((#1201,#1321,#1323,#1178));
#279=IFCPOLYLOOP((#1203,#1322,#1321,#1201));
#280=IFCPOLYLOOP((#1202,#1324,#1322,#1203));
#281=IFCPOLYLOOP((#1287,#1336,#1335,#1288));
#282=IFCPOLYLOOP((#1286,#1337,#1336,#1287));
#283=IFCPOLYLOOP((#1285,#1338,#1337,#1286));
#284=IFCPOLYLOOP((#1284,#1339,#1338,#1285));
#285=IFCPOLYLOOP((#1283,#1340,#1339,#1284));
#286=IFCPOLYLOOP((#1282,#1341,#1340,#1283));
#287=IFCPOLYLOOP((#1244,#1366,#1363,#1245));
#288=IFCPOLYLOOP((#1269,#1359,#1366,#1244));
#289=IFCPOLYLOOP((#1264,#1360,#1359,#1269));
#290=IFCPOLYLOOP((#1263,#1393,#1360,#1264));
#291=IFCPOLYLOOP((#1266,#1400,#1393,#1263));
#292=IFCPOLYLOOP((#1265,#1405,#1400,#1266));
#293=IFCPOLYLOOP((#1221,#1375,#1374,#1222));
#294=IFCPOLYLOOP((#1220,#1376,#1375,#1221));
#295=IFCPOLYLOOP((#1219,#1377,#1376,#1220));
#296=IFCPOLYLOOP((#1218,#1378,#1377,#1219));
#297=IFCPOLYLOOP((#1217,#1379,#1378,#1218));
#298=IFCPOLYLOOP((#1216,#1380,#1379,#1217));
#299=IFCPOLYLOOP((#1247,#1392,#1373,#1248));
#300=IFCPOLYLOOP((#1268,#1386,#1392,#1247));
#301=IFCPOLYLOOP((#1260,#1387,#1386,#1268));
#302=IFCPOLYLOOP((#1227,#1327,#1387,#1260));
#303=IFCPOLYLOOP((#1229,#1347,#1327,#1227));
#304=IFCPOLYLOOP((#1223,#1357,#1347,#1229));
#305=IFCPOLYLOOP((#1195,#1311,#1310,#1196));
#306=IFCPOLYLOOP((#1194,#1312,#1311,#1195));
#307=IFCPOLYLOOP((#1193,#1313,#1312,#1194));
#308=IFCPOLYLOOP((#1192,#1314,#1313,#1193));
#309=IFCPOLYLOOP((#1183,#1295,#1294,#1184));
#310=IFCPOLYLOOP((#1182,#1296,#1295,#1183));
#311=IFCPOLYLOOP((#1181,#1297,#1296,#1182));
#312=IFCPOLYLOOP((#1180,#1298,#1297,#1181));
#313=IFCPOLYLOOP((#1238,#1370,#1369,#1239));
#314=IFCPOLYLOOP((#1237,#1332,#1370,#1238));
#315=IFCPOLYLOOP((#1290,#1333,#1332,#1237));
#316=IFCPOLYLOOP((#1289,#1334,#1333,#1290));
#317=IFCPOLYLOOP((#1214,#1382,#1381,#1215));
#318=IFCPOLYLOOP((#1213,#1354,#1382,#1214));
#319=IFCPOLYLOOP((#1262,#1355,#1354,#1213));
#320=IFCPOLYLOOP((#1261,#1356,#1355,#1262));
#321=IFCPOLYLOOP((#1281,#1384,#1390,#1291));
#322=IFCPOLYLOOP((#1275,#1385,#1384,#1281));
#323=IFCPOLYLOOP((#1274,#1388,#1385,#1275));
#324=IFCPOLYLOOP((#1276,#1389,#1388,#1274));
#325=IFCPOLYLOOP((#1258,#1383,#1389,#1276));
#326=IFCPOLYLOOP((#1254,#1372,#1383,#1258));
#327=IFCPOLYLOOP((#1209,#1349,#1342,#1240));
#328=IFCPOLYLOOP((#1204,#1319,#1349,#1209));
#329=IFCPOLYLOOP((#1252,#1364,#1319,#1204));
#330=IFCPOLYLOOP((#1243,#1365,#1364,#1252));
#331=IFCPOLYLOOP((#1242,#1367,#1365,#1243));
#332=IFCPOLYLOOP((#1253,#1362,#1367,#1242));
#333=IFCPOLYLOOP((#1280,#1398,#1371,#1246));
#334=IFCPOLYLOOP((#1245,#1363,#1362,#1253));
#335=IFCPOLYLOOP((#1271,#1401,#1405,#1265));
#336=IFCPOLYLOOP((#1270,#1402,#1401,#1271));
#337=IFCPOLYLOOP((#1291,#1390,#1402,#1270));
#338=IFCPOLYLOOP((#1248,#1373,#1372,#1254));
#339=IFCPOLYLOOP((#1222,#1374,#1357,#1223));
#340=IFCPOLYLOOP((#1380,#1216,#1215,#1381));
#341=IFCPOLYLOOP((#1231,#1348,#1356,#1261));
#342=IFCPOLYLOOP((#1228,#1345,#1346,#1249));
#343=IFCPOLYLOOP((#1235,#1318,#1345,#1228));
#344=IFCPOLYLOOP((#1303,#1197,#1196,#1310));
#345=IFCPOLYLOOP((#1191,#1315,#1314,#1192));
#346=IFCPOLYLOOP((#1250,#1344,#1330,#1199));
#347=IFCPOLYLOOP((#1234,#1306,#1344,#1250));
#348=IFCPOLYLOOP((#1293,#1185,#1184,#1294));
#349=IFCPOLYLOOP((#1179,#1299,#1298,#1180));
#350=IFCPOLYLOOP((#1224,#1320,#1324,#1202));
#351=IFCPOLYLOOP((#1225,#1358,#1320,#1224));
#352=IFCPOLYLOOP((#1351,#1210,#1239,#1369));
#353=IFCPOLYLOOP((#1288,#1335,#1334,#1289));
#354=IFCPOLYLOOP((#1240,#1342,#1341,#1282));
#355=IFCPOLYLOOP((#1257,#1399,#1398,#1280));
#356=IFCPOLYLOOP((#1256,#1394,#1399,#1257));
#357=IFCPOLYLOOP((#1267,#1395,#1394,#1256));
#358=IFCPOLYLOOP((#1273,#1406,#1395,#1267));
#359=IFCPOLYLOOP((#1279,#1403,#1406,#1273));
#360=IFCPOLYLOOP((#1278,#1404,#1403,#1279));
#361=IFCPOLYLOOP((#1277,#1396,#1404,#1278));
#362=IFCPOLYLOOP((#1272,#1397,#1396,#1277));
#363=IFCPOLYLOOP((#1241,#1361,#1397,#1272));
#364=IFCPOLYLOOP((#1255,#1368,#1361,#1241));
#365=IFCPOLYLOOP((#1177,#1292,#1368,#1255));
#366=IFCPOLYLOOP((#1186,#1305,#1292,#1177));
#367=IFCPOLYLOOP((#1251,#1343,#1305,#1186));
#368=IFCPOLYLOOP((#1198,#1326,#1343,#1251));
#369=IFCPOLYLOOP((#1190,#1301,#1326,#1198));
#370=IFCPOLYLOOP((#1259,#1391,#1301,#1190));
#371=IFCPOLYLOOP((#1246,#1371,#1391,#1259));
#372=IFCFACEOUTERBOUND(#26,.T.);
#373=IFCFACEOUTERBOUND(#27,.T.);
#374=IFCFACEOUTERBOUND(#28,.T.);
#375=IFCFACEOUTERBOUND(#29,.T.);
#376=IFCFACEOUTERBOUND(#30,.T.);
#377=IFCFACEOUTERBOUND(#31,.T.);
#378=IFCFACEOUTERBOUND(#32,.T.);
#379=IFCFACEOUTERBOUND(#33,.T.);
#380=IFCFACEOUTERBOUND(#34,.T.);
#381=IFCFACEOUTERBOUND(#35,.T.);
#382=IFCFACEOUTERBOUND(#36,.T.);
#383=IFCFACEOUTERBOUND(#37,.T.);
#384=IFCFACEOUTERBOUND(#38,.T.);
#385=IFCFACEOUTERBOUND(#39,.T.);
#386=IFCFACEOUTERBOUND(#40,.T.);
#387=IFCFACEOUTERBOUND(#41,.T.);
#388=IFCFACEOUTERBOUND(#42,.T.);
#389=IFCFACEOUTERBOUND(#43,.T.);
#390=IFCFACEOUTERBOUND(#44,.T.);
#391=IFCFACEOUTERBOUND(#45,.T.);
#392=IFCFACEOUTERBOUND(#46,.T.);
#393=IFCFACEOUTERBOUND(#47,.T.);
#394=IFCFACEOUTERBOUND(#48,.T.);
#395=IFCFACEOUTERBOUND(#49,.T.);
#396=IFCFACEOUTERBOUND(#50,.T.);
#397=IFCFACEOUTERBOUND(#51,.T.);
#398=IFCFACEOUTERBOUND(#52,.T.);
#399=IFCFACEOUTERBOUND(#53,.T.);
#400=IFCFACEOUTERBOUND(#54,.T.);
#401=IFCFACEOUTERBOUND(#55,.T.);
#402=IFCFACEOUTERBOUND(#56,.T.);
#403=IFCFACEOUTERBOUND(#57,.T.);
#404=IFCFACEOUTERBOUND(#58,.T.);
#405=IFCFACEOUTERBOUND(#59,.T.);
#406=IFCFACEOUTERBOUND(#60,.T.);
#407=IFCFACEOUTERBOUND(#61,.T.);
#408=IFCFACEOUTERBOUND(#62,.T.);
#409=IFCFACEOUTERBOUND(#63,.T.);
#410=IFCFACEOUTERBOUND(#64,.T.);
#411=IFCFACEOUTERBOUND(#65,.T.);
#412=IFCFACEOUTERBOUND(#66,.T.);
#413=IFCFACEOUTERBOUND(#67,.T.);
#414=IFCFACEOUTERBOUND(#68,.T.);
#415=IFCFACEOUTERBOUND(#69,.T.);
#416=IFCFACEOUTERBOUND(#70,.T.);
#417=IFCFACEOUTERBOUND(#71,.T.);
#418=IFCFACEOUTERBOUND(#72,.T.);
#419=IFCFACEOUTERBOUND(#73,.T.);
#420=IFCFACEOUTERBOUND(#74,.T.);
#421=IFCFACEOUTERBOUND(#75,.T.);
#422=IFCFACEOUTERBOUND(#76,.T.);
#423=IFCFACEOUTERBOUND(#77,.T.);
#424=IFCFACEOUTERBOUND(#78,.T.);
#425=IFCFACEOUTERBOUND(#79,.T.);
#426=IFCFACEOUTERBOUND(#80,.T.);
#427=IFCFACEOUTERBOUND(#81,.T.);
#428=IFCFACEOUTERBOUND(#82,.T.);
#429=IFCFACEOUTERBOUND(#83,.T.);
#430=IFCFACEOUTERBOUND(#84,.T.);
#431=IFCFACEOUTERBOUND(#85,.T.);
#432=IFCFACEOUTERBOUND(#86,.T.);
#433=IFCFACEOUTERBOUND(#87,.T.);
#434=IFCFACEOUTERBOUND(#88,.T.);
#435=IFCFACEOUTERBOUND(#89,.T.);
#436=IFCFACEOUTERBOUND(#90,.T.);
#437=IFCFACEOUTERBOUND(#91,.T.);
#438=IFCFACEOUTERBOUND(#92,.T.);
#439=IFCFACEOUTERBOUND(#93,.T.);
#440=IFCFACEOUTERBOUND(#94,.T.);
#441=IFCFACEOUTERBOUND(#95,.T.);
#442=IFCFACEOUTERBOUND(#96,.T.);
#443=IFCFACEOUTERBOUND(#97,.T.);
#444=IFCFACEOUTERBOUND(#98,.T.);
#445=IFCFACEOUTERBOUND(#99,.T.);
#446=IFCFACEOUTERBOUND(#100,.T.);
#447=IFCFACEOUTERBOUND(#101,.T.);
#448=IFCFACEOUTERBOUND(#102,.T.);
#449=IFCFACEOUTERBOUND(#103,.T.);
#450=IFCFACEOUTERBOUND(#104,.T.);
#451=IFCFACEOUTERBOUND(#105,.T.);
#452=IFCFACEOUTERBOUND(#106,.T.);
#453=IFCFACEOUTERBOUND(#107,.T.);
#454=IFCFACEOUTERBOUND(#108,.T.);
#455=IFCFACEOUTERBOUND(#109,.T.);
#456=IFCFACEOUTERBOUND(#110,.T.);
#457=IFCFACEOUTERBOUND(#111,.T.);
#458=IFCFACEOUTERBOUND(#112,.T.);
#459=IFCFACEOUTERBOUND(#113,.T.);
#460=IFCFACEOUTERBOUND(#114,.T.);
#461=IFCFACEOUTERBOUND(#115,.T.);
#462=IFCFACEOUTERBOUND(#116,.T.);
#463=IFCFACEOUTERBOUND(#117,.T.);
#464=IFCFACEOUTERBOUND(#118,.T.);
#465=IFCFACEOUTERBOUND(#119,.T.);
#466=IFCFACEOUTERBOUND(#120,.T.);
#467=IFCFACEOUTERBOUND(#121,.T.);
#468=IFCFACEOUTERBOUND(#122,.T.);
#469=IFCFACEOUTERBOUND(#123,.T.);
#470=IFCFACEOUTERBOUND(#124,.T.);
#471=IFCFACEOUTERBOUND(#125,.T.);
#472=IFCFACEOUTERBOUND(#126,.T.);
#473=IFCFACEOUTERBOUND(#127,.T.);
#474=IFCFACEOUTERBOUND(#128,.T.);
#475=IFCFACEOUTERBOUND(#129,.T.);
#476=IFCFACEOUTERBOUND(#130,.T.);
#477=IFCFACEOUTERBOUND(#131,.T.);
#478=IFCFACEOUTERBOUND(#132,.T.);
#479=IFCFACEOUTERBOUND(#133,.T.);
#480=IFCFACEOUTERBOUND(#134,.T.);
#481=IFCFACEOUTERBOUND(#135,.T.);
#482=IFCFACEOUTERBOUND(#136,.T.);
#483=IFCFACEOUTERBOUND(#137,.T.);
#484=IFCFACEOUTERBOUND(#138,.T.);
#485=IFCFACEOUTERBOUND(#139,.T.);
#486=IFCFACEOUTERBOUND(#140,.T.);
#487=IFCFACEOUTERBOUND(#141,.T.);
#488=IFCFACEOUTERBOUND(#142,.T.);
#489=IFCFACEOUTERBOUND(#143,.T.);
#490=IFCFACEOUTERBOUND(#144,.T.);
#491=IFCFACEOUTERBOUND(#145,.T.);
#492=IFCFACEOUTERBOUND(#146,.T.);
#493=IFCFACEOUTERBOUND(#147,.T.);
#494=IFCFACEOUTERBOUND(#148,.T.);
#495=IFCFACEOUTERBOUND(#149,.T.);
#496=IFCFACEOUTERBOUND(#150,.T.);
#497=IFCFACEOUTERBOUND(#151,.T.);
#498=IFCFACEOUTERBOUND(#152,.T.);
#499=IFCFACEOUTERBOUND(#153,.T.);
#500=IFCFACEOUTERBOUND(#154,.T.);
#501=IFCFACEOUTERBOUND(#155,.T.);
#502=IFCFACEOUTERBOUND(#156,.T.);
#503=IFCFACEOUTERBOUND(#157,.T.);
#504=IFCFACEOUTERBOUND(#158,.T.);
#505=IFCFACEOUTERBOUND(#159,.T.);
#506=IFCFACEOUTERBOUND(#160,.T.);
#507=IFCFACEOUTERBOUND(#161,.T.);
#508=IFCFACEOUTERBOUND(#162,.T.);
#509=IFCFACEOUTERBOUND(#163,.T.);
#510=IFCFACEOUTERBOUND(#164,.T.);
#511=IFCFACEOUTERBOUND(#165,.T.);
#512=IFCFACEOUTERBOUND(#166,.T.);
#513=IFCFACEOUTERBOUND(#167,.T.);
#514=IFCFACEOUTERBOUND(#168,.T.);
#515=IFCFACEOUTERBOUND(#169,.T.);
#516=IFCFACEOUTERBOUND(#170,.T.);
#517=IFCFACEOUTERBOUND(#171,.T.);
#518=IFCFACEOUTERBOUND(#172,.T.);
#519=IFCFACEOUTERBOUND(#173,.T.);
#520=IFCFACEOUTERBOUND(#174,.T.);
#521=IFCFACEOUTERBOUND(#175,.T.);
#522=IFCFACEOUTERBOUND(#176,.T.);
#523=IFCFACEOUTERBOUND(#177,.T.);
#524=IFCFACEOUTERBOUND(#178,.T.);
#525=IFCFACEOUTERBOUND(#179,.T.);
#526=IFCFACEOUTERBOUND(#180,.T.);
#527=IFCFACEOUTERBOUND(#181,.T.);
#528=IFCFACEOUTERBOUND(#182,.T.);
#529=IFCFACEOUTERBOUND(#183,.T.);
#530=IFCFACEOUTERBOUND(#184,.T.);
#531=IFCFACEOUTERBOUND(#185,.T.);
#532=IFCFACEOUTERBOUND(#186,.T.);
#533=IFCFACEOUTERBOUND(#187,.T.);
#534=IFCFACEOUTERBOUND(#188,.T.);
#535=IFCFACEOUTERBOUND(#189,.T.);
#536=IFCFACEOUTERBOUND(#190,.T.);
#537=IFCFACEOUTERBOUND(#191,.T.);
#538=IFCFACEOUTERBOUND(#192,.T.);
#539=IFCFACEOUTERBOUND(#193,.T.);
#540=IFCFACEOUTERBOUND(#194,.T.);
#541=IFCFACEOUTERBOUND(#195,.T.);
#542=IFCFACEOUTERBOUND(#196,.T.);
#543=IFCFACEOUTERBOUND(#197,.T.);
#544=IFCFACEOUTERBOUND(#198,.T.);
#545=IFCFACEOUTERBOUND(#199,.T.);
#546=IFCFACEOUTERBOUND(#200,.T.);
#547=IFCFACEOUTERBOUND(#201,.T.);
#548=IFCFACEOUTERBOUND(#202,.T.);
#549=IFCFACEOUTERBOUND(#203,.T.);
#550=IFCFACEOUTERBOUND(#204,.T.);
#551=IFCFACEOUTERBOUND(#205,.T.);
#552=IFCFACEOUTERBOUND(#206,.T.);
#553=IFCFACEOUTERBOUND(#207,.T.);
#554=IFCFACEOUTERBOUND(#208,.T.);
#555=IFCFACEOUTERBOUND(#209,.T.);
#556=IFCFACEOUTERBOUND(#210,.T.);
#557=IFCFACEOUTERBOUND(#211,.T.);
#558=IFCFACEOUTERBOUND(#212,.T.);
#559=IFCFACEOUTERBOUND(#213,.T.);
#560=IFCFACEOUTERBOUND(#214,.T.);
#561=IFCFACEOUTERBOUND(#215,.T.);
#562=IFCFACEOUTERBOUND(#216,.T.);
#563=IFCFACEOUTERBOUND(#217,.T.);
#564=IFCFACEOUTERBOUND(#218,.T.);
#565=IFCFACEOUTERBOUND(#219,.T.);
#566=IFCFACEOUTERBOUND(#220,.T.);
#567=IFCFACEOUTERBOUND(#221,.T.);
#568=IFCFACEOUTERBOUND(#222,.T.);
#569=IFCFACEOUTERBOUND(#223,.T.);
#570=IFCFACEOUTERBOUND(#224,.T.);
#571=IFCFACEOUTERBOUND(#225,.T.);
#572=IFCFACEOUTERBOUND(#226,.T.);
#573=IFCFACEOUTERBOUND(#227,.T.);
#574=IFCFACEOUTERBOUND(#228,.T.);
#575=IFCFACEOUTERBOUND(#229,.T.);
#576=IFCFACEOUTERBOUND(#230,.T.);
#577=IFCFACEOUTERBOUND(#231,.T.);
#578=IFCFACEOUTERBOUND(#232,.T.);
#579=IFCFACEOUTERBOUND(#233,.T.);
#580=IFCFACEOUTERBOUND(#234,.T.);
#581=IFCFACEOUTERBOUND(#235,.T.);
#582=IFCFACEOUTERBOUND(#236,.T.);
#583=IFCFACEOUTERBOUND(#237,.T.);
#584=IFCFACEOUTERBOUND(#238,.T.);
#585=IFCFACEOUTERBOUND(#239,.T.);
#586=IFCFACEOUTERBOUND(#240,.T.);
#587=IFCFACEOUTERBOUND(#241,.T.);
#588=IFCFACEOUTERBOUND(#242,.T.);
#589=IFCFACEOUTERBOUND(#243,.T.);
#590=IFCFACEOUTERBOUND(#244,.T.);
#591=IFCFACEOUTERBOUND(#245,.T.);
#592=IFCFACEOUTERBOUND(#246,.T.);
#593=IFCFACEOUTERBOUND(#247,.T.);
#594=IFCFACEOUTERBOUND(#248,.T.);
#595=IFCFACEOUTERBOUND(#249,.T.);
#596=IFCFACEOUTERBOUND(#250,.T.);
#597=IFCFACEOUTERBOUND(#251,.T.);
#598=IFCFACEOUTERBOUND(#252,.T.);
#599=IFCFACEOUTERBOUND(#253,.T.);
#600=IFCFACEOUTERBOUND(#254,.T.);
#601=IFCFACEOUTERBOUND(#255,.T.);
#602=IFCFACEOUTERBOUND(#256,.T.);
#603=IFCFACEOUTERBOUND(#257,.T.);
#604=IFCFACEOUTERBOUND(#258,.T.);
#605=IFCFACEOUTERBOUND(#259,.T.);
#606=IFCFACEOUTERBOUND(#260,.T.);
#607=IFCFACEOUTERBOUND(#261,.T.);
#608=IFCFACEOUTERBOUND(#262,.T.);
#609=IFCFACEOUTERBOUND(#263,.T.);
#610=IFCFACEOUTERBOUND(#264,.T.);
#611=IFCFACEOUTERBOUND(#265,.T.);
#612=IFCFACEOUTERBOUND(#266,.T.);
#613=IFCFACEOUTERBOUND(#267,.T.);
#614=IFCFACEOUTERBOUND(#268,.T.);
#615=IFCFACEOUTERBOUND(#269,.T.);
#616=IFCFACEOUTERBOUND(#270,.T.);
#617=IFCFACEOUTERBOUND(#271,.T.);
#618=IFCFACEOUTERBOUND(#272,.T.);
#619=IFCFACEOUTERBOUND(#273,.T.);
#620=IFCFACEOUTERBOUND(#274,.T.);
#621=IFCFACEOUTERBOUND(#275,.T.);
#622=IFCFACEOUTERBOUND(#276,.T.);
#623=IFCFACEOUTERBOUND(#277,.T.);
#624=IFCFACEOUTERBOUND(#278,.T.);
#625=IFCFACEOUTERBOUND(#279,.T.);
#626=IFCFACEOUTERBOUND(#280,.T.);
#627=IFCFACEOUTERBOUND(#281,.T.);
#628=IFCFACEOUTERBOUND(#282,.T.);
#629=IFCFACEOUTERBOUND(#283,.T.);
#630=IFCFACEOUTERBOUND(#284,.T.);
#631=IFCFACEOUTERBOUND(#285,.T.);
#632=IFCFACEOUTERBOUND(#286,.T.);
#633=IFCFACEOUTERBOUND(#287,.T.);
#634=IFCFACEOUTERBOUND(#288,.T.);
#635=IFCFACEOUTERBOUND(#289,.T.);
#636=IFCFACEOUTERBOUND(#290,.T.);
#637=IFCFACEOUTERBOUND(#291,.T.);
#638=IFCFACEOUTERBOUND(#292,.T.);
#639=IFCFACEOUTERBOUND(#293,.T.);
#640=IFCFACEOUTERBOUND(#294,.T.);
#641=IFCFACEOUTERBOUND(#295,.T.);
#642=IFCFACEOUTERBOUND(#296,.T.);
#643=IFCFACEOUTERBOUND(#297,.T.);
#644=IFCFACEOUTERBOUND(#298,.T.);
#645=IFCFACEOUTERBOUND(#299,.T.);
#646=IFCFACEOUTERBOUND(#300,.T.);
#647=IFCFACEOUTERBOUND(#301,.T.);
#648=IFCFACEOUTERBOUND(#302,.T.);
#649=IFCFACEOUTERBOUND(#303,.T.);
#650=IFCFACEOUTERBOUND(#304,.T.);
#651=IFCFACEOUTERBOUND(#305,.T.);
#652=IFCFACEOUTERBOUND(#306,.T.);
#653=IFCFACEOUTERBOUND(#307,.T.);
#654=IFCFACEOUTERBOUND(#308,.T.);
#655=IFCFACEOUTERBOUND(#309,.T.);
#656=IFCFACEOUTERBOUND(#310,.T.);
#657=IFCFACEOUTERBOUND(#311,.T.);
#658=IFCFACEOUTERBOUND(#312,.T.);
#659=IFCFACEOUTERBOUND(#313,.T.);
#660=IFCFACEOUTERBOUND(#314,.T.);
#661=IFCFACEOUTERBOUND(#315,.T.);
#662=IFCFACEOUTERBOUND(#316,.T.);
#663=IFCFACEOUTERBOUND(#317,.T.);
#664=IFCFACEOUTERBOUND(#318,.T.);
#665=IFCFACEOUTERBOUND(#319,.T.);
#666=IFCFACEOUTERBOUND(#320,.T.);
#667=IFCFACEOUTERBOUND(#321,.T.);
#668=IFCFACEOUTERBOUND(#322,.T.);
#669=IFCFACEOUTERBOUND(#323,.T.);
#670=IFCFACEOUTERBOUND(#324,.T.);
#671=IFCFACEOUTERBOUND(#325,.T.);
#672=IFCFACEOUTERBOUND(#326,.T.);
#673=IFCFACEOUTERBOUND(#327,.T.);
#674=IFCFACEOUTERBOUND(#328,.T.);
#675=IFCFACEOUTERBOUND(#329,.T.);
#676=IFCFACEOUTERBOUND(#330,.T.);
#677=IFCFACEOUTERBOUND(#331,.T.);
#678=IFCFACEOUTERBOUND(#332,.T.);
#679=IFCFACEOUTERBOUND(#333,.T.);
#680=IFCFACEOUTERBOUND(#334,.T.);
#681=IFCFACEOUTERBOUND(#335,.T.);
#682=IFCFACEOUTERBOUND(#336,.T.);
#683=IFCFACEOUTERBOUND(#337,.T.);
#684=IFCFACEOUTERBOUND(#338,.T.);
#685=IFCFACEOUTERBOUND(#339,.T.);
#686=IFCFACEOUTERBOUND(#340,.T.);
#687=IFCFACEOUTERBOUND(#341,.T.);
#688=IFCFACEOUTERBOUND(#342,.T.);
#689=IFCFACEOUTERBOUND(#343,.T.);
#690=IFCFACEOUTERBOUND(#344,.T.);
#691=IFCFACEOUTERBOUND(#345,.T.);
#692=IFCFACEOUTERBOUND(#346,.T.);
#693=IFCFACEOUTERBOUND(#347,.T.);
#694=IFCFACEOUTERBOUND(#348,.T.);
#695=IFCFACEOUTERBOUND(#349,.T.);
#696=IFCFACEOUTERBOUND(#350,.T.);
#697=IFCFACEOUTERBOUND(#351,.T.);
#698=IFCFACEOUTERBOUND(#352,.T.);
#699=IFCFACEOUTERBOUND(#353,.T.);
#700=IFCFACEOUTERBOUND(#354,.T.);
#701=IFCFACEOUTERBOUND(#355,.T.);
#702=IFCFACEOUTERBOUND(#356,.T.);
#703=IFCFACEOUTERBOUND(#357,.T.);
#704=IFCFACEOUTERBOUND(#358,.T.);
#705=IFCFACEOUTERBOUND(#359,.T.);
#706=IFCFACEOUTERBOUND(#360,.T.);
#707=IFCFACEOUTERBOUND(#361,.T.);
#708=IFCFACEOUTERBOUND(#362,.T.);
#709=IFCFACEOUTERBOUND(#363,.T.);
#710=IFCFACEOUTERBOUND(#364,.T.);
#711=IFCFACEOUTERBOUND(#365,.T.);
#712=IFCFACEOUTERBOUND(#366,.T.);
#713=IFCFACEOUTERBOUND(#367,.T.);
#714=IFCFACEOUTERBOUND(#368,.T.);
#715=IFCFACEOUTERBOUND(#369,.T.);
#716=IFCFACEOUTERBOUND(#370,.T.);
#717=IFCFACEOUTERBOUND(#371,.T.);
#718=IFCFACE((#372));
#719=IFCFACE((#373));
#720=IFCFACE((#374));
#721=IFCFACE((#375));
#722=IFCFACE((#376));
#723=IFCFACE((#377));
#724=IFCFACE((#378));
#725=IFCFACE((#379));
#726=IFCFACE((#380));
#727=IFCFACE((#381));
#728=IFCFACE((#382));
#729=IFCFACE((#383));
#730=IFCFACE((#384));
#731=IFCFACE((#385));
#732=IFCFACE((#386));
#733=IFCFACE((#387));
#734=IFCFACE((#388));
#735=IFCFACE((#389));
#736=IFCFACE((#390));
#737=IFCFACE((#391));
#738=IFCFACE((#392));
#739=IFCFACE((#393));
#740=IFCFACE((#394));
#741=IFCFACE((#395));
#742=IFCFACE((#396));
#743=IFCFACE((#397));
#744=IFCFACE((#398));
#745=IFCFACE((#399));
#746=IFCFACE((#400));
#747=IFCFACE((#401));
#748=IFCFACE((#402));
#749=IFCFACE((#403));
#750=IFCFACE((#404));
#751=IFCFACE((#405));
#752=IFCFACE((#406));
#753=IFCFACE((#407));
#754=IFCFACE((#408));
#755=IFCFACE((#409));
#756=IFCFACE((#410));
#757=IFCFACE((#411));
#758=IFCFACE((#412));
#759=IFCFACE((#413));
#760=IFCFACE((#414));
#761=IFCFACE((#415));
#762=IFCFACE((#416));
#763=IFCFACE((#417));
#764=IFCFACE((#418));
#765=IFCFACE((#419));
#766=IFCFACE((#420));
#767=IFCFACE((#421));
#768=IFCFACE((#422));
#769=IFCFACE((#423));
#770=IFCFACE((#424));
#771=IFCFACE((#425));
#772=IFCFACE((#426));
#773=IFCFACE((#427));
#774=IFCFACE((#428));
#775=IFCFACE((#429));
#776=IFCFACE((#430));
#777=IFCFACE((#431));
#778=IFCFACE((#432));
#779=IFCFACE((#433));
#780=IFCFACE((#434));
#781=IFCFACE((#435));
#782=IFCFACE((#436));
#783=IFCFACE((#437));
#784=IFCFACE((#438));
#785=IFCFACE((#439));
#786=IFCFACE((#440));
#787=IFCFACE((#441));
#788=IFCFACE((#442));
#789=IFCFACE((#443));
#790=IFCFACE((#444));
#791=IFCFACE((#445));
#792=IFCFACE((#446));
#793=IFCFACE((#447));
#794=IFCFACE((#448));
#795=IFCFACE((#449));
#796=IFCFACE((#450));
#797=IFCFACE((#451));
#798=IFCFACE((#452));
#799=IFCFACE((#453));
#800=IFCFACE((#454));
#801=IFCFACE((#455));
#802=IFCFACE((#456));
#803=IFCFACE((#457));
#804=IFCFACE((#458));
#805=IFCFACE((#459));
#806=IFCFACE((#460));
#807=IFCFACE((#461));
#808=IFCFACE((#462));
#809=IFCFACE((#463));
#810=IFCFACE((#464));
#811=IFCFACE((#465));
#812=IFCFACE((#466));
#813=IFCFACE((#467));
#814=IFCFACE((#468));
#815=IFCFACE((#469));
#816=IFCFACE((#470));
#817=IFCFACE((#471));
#818=IFCFACE((#472));
#819=IFCFACE((#473));
#820=IFCFACE((#474));
#821=IFCFACE((#475));
#822=IFCFACE((#476));
#823=IFCFACE((#477));
#824=IFCFACE((#478));
#825=IFCFACE((#479));
#826=IFCFACE((#480));
#827=IFCFACE((#481));
#828=IFCFACE((#482));
#829=IFCFACE((#483));
#830=IFCFACE((#484));
#831=IFCFACE((#485));
#832=IFCFACE((#486));
#833=IFCFACE((#487));
#834=IFCFACE((#488));
#835=IFCFACE((#489));
#836=IFCFACE((#490));
#837=IFCFACE((#491));
#838=IFCFACE((#492));
#839=IFCFACE((#493));
#840=IFCFACE((#494));
#841=IFCFACE((#495));
#842=IFCFACE((#496));
#843=IFCFACE((#497));
#844=IFCFACE((#498));
#845=IFCFACE((#499));
#846=IFCFACE((#500));
#847=IFCFACE((#501));
#848=IFCFACE((#502));
#849=IFCFACE((#503));
#850=IFCFACE((#504));
#851=IFCFACE((#505));
#852=IFCFACE((#506));
#853=IFCFACE((#507));
#854=IFCFACE((#508));
#855=IFCFACE((#509));
#856=IFCFACE((#510));
#857=IFCFACE((#511));
#858=IFCFACE((#512));
#859=IFCFACE((#513));
#860=IFCFACE((#514));
#861=IFCFACE((#515));
#862=IFCFACE((#516));
#863=IFCFACE((#517));
#864=IFCFACE((#518));
#865=IFCFACE((#519));
#866=IFCFACE((#520));
#867=IFCFACE((#521));
#868=IFCFACE((#522));
#869=IFCFACE((#523));
#870=IFCFACE((#524));
#871=IFCFACE((#525));
#872=IFCFACE((#526));
#873=IFCFACE((#527));
#874=IFCFACE((#528));
#875=IFCFACE((#529));
#876=IFCFACE((#530));
#877=IFCFACE((#531));
#878=IFCFACE((#532));
#879=IFCFACE((#533));
#880=IFCFACE((#534));
#881=IFCFACE((#535));
#882=IFCFACE((#536));
#883=IFCFACE((#537));
#884=IFCFACE((#538));
#885=IFCFACE((#539));
#886=IFCFACE((#540));
#887=IFCFACE((#541));
#888=IFCFACE((#542));
#889=IFCFACE((#543));
#890=IFCFACE((#544));
#891=IFCFACE((#545));
#892=IFCFACE((#546));
#893=IFCFACE((#547));
#894=IFCFACE((#548));
#895=IFCFACE((#549));
#896=IFCFACE((#550));
#897=IFCFACE((#551));
#898=IFCFACE((#552));
#899=IFCFACE((#553));
#900=IFCFACE((#554));
#901=IFCFACE((#555));
#902=IFCFACE((#556));
#903=IFCFACE((#557));
#904=IFCFACE((#558));
#905=IFCFACE((#559));
#906=IFCFACE((#560));
#907=IFCFACE((#561));
#908=IFCFACE((#562));
#909=IFCFACE((#563));
#910=IFCFACE((#564));
#911=IFCFACE((#565));
#912=IFCFACE((#566));
#913=IFCFACE((#567));
#914=IFCFACE((#568));
#915=IFCFACE((#569));
#916=IFCFACE((#570));
#917=IFCFACE((#571));
#918=IFCFACE((#572));
#919=IFCFACE((#573));
#920=IFCFACE((#574));
#921=IFCFACE((#575));
#922=IFCFACE((#576));
#923=IFCFACE((#577));
#924=IFCFACE((#578));
#925=IFCFACE((#579));
#926=IFCFACE((#580));
#927=IFCFACE((#581));
#928=IFCFACE((#582));
#929=IFCFACE((#583));
#930=IFCFACE((#584));
#931=IFCFACE((#585));
#932=IFCFACE((#586));
#933=IFCFACE((#587));
#934=IFCFACE((#588));
#935=IFCFACE((#589));
#936=IFCFACE((#590));
#937=IFCFACE((#591));
#938=IFCFACE((#592));
#939=IFCFACE((#593));
#940=IFCFACE((#594));
#941=IFCFACE((#595));
#942=IFCFACE((#596));
#943=IFCFACE((#597));
#944=IFCFACE((#598));
#945=IFCFACE((#599));
#946=IFCFACE((#600));
#947=IFCFACE((#601));
#948=IFCFACE((#602));
#949=IFCFACE((#603));
#950=IFCFACE((#604));
#951=IFCFACE((#605));
#952=IFCFACE((#606));
#953=IFCFACE((#607));
#954=IFCFACE((#608));
#955=IFCFACE((#609));
#956=IFCFACE((#610));
#957=IFCFACE((#611));
#958=IFCFACE((#612));
#959=IFCFACE((#613));
#960=IFCFACE((#614));
#961=IFCFACE((#615));
#962=IFCFACE((#616));
#963=IFCFACE((#617));
#964=IFCFACE((#618));
#965=IFCFACE((#619));
#966=IFCFACE((#620));
#967=IFCFACE((#621));
#968=IFCFACE((#622));
#969=IFCFACE((#623));
#970=IFCFACE((#624));
#971=IFCFACE((#625));
#972=IFCFACE((#626));
#973=IFCFACE((#627));
#974=IFCFACE((#628));
#975=IFCFACE((#629));
#976=IFCFACE((#630));
#977=IFCFACE((#631));
#978=IFCFACE((#632));
#979=IFCFACE((#633));
#980=IFCFACE((#634));
#981=IFCFACE((#635));
#982=IFCFACE((#636));
#983=IFCFACE((#637));
#984=IFCFACE((#638));
#985=IFCFACE((#639));
#986=IFCFACE((#640));
#987=IFCFACE((#641));
#988=IFCFACE((#642));
#989=IFCFACE((#643));
#990=IFCFACE((#644));
#991=IFCFACE((#645));
#992=IFCFACE((#646));
#993=IFCFACE((#647));
#994=IFCFACE((#648));
#995=IFCFACE((#649));
#996=IFCFACE((#650));
#997=IFCFACE((#651));
#998=IFCFACE((#652));
#999=IFCFACE((#653));
#1000=IFCFACE((#654));
#1001=IFCFACE((#655));
#1002=IFCFACE((#656));
#1003=IFCFACE((#657));
#1004=IFCFACE((#658));
#1005=IFCFACE((#659));
#1006=IFCFACE((#660));
#1007=IFCFACE((#661));
#1008=IFCFACE((#662));
#1009=IFCFACE((#663));
#1010=IFCFACE((#664));
#1011=IFCFACE((#665));
#1012=IFCFACE((#666));
#1013=IFCFACE((#667));
#1014=IFCFACE((#668));
#1015=IFCFACE((#669));
#1016=IFCFACE((#670));
#1017=IFCFACE((#671));
#1018=IFCFACE((#672));
#1019=IFCFACE((#673));
#1020=IFCFACE((#674));
#1021=IFCFACE((#675));
#1022=IFCFACE((#676));
#1023=IFCFACE((#677));
#1024=IFCFACE((#678));
#1025=IFCFACE((#679));
#1026=IFCFACE((#680));
#1027=IFCFACE((#681));
#1028=IFCFACE((#682));
#1029=IFCFACE((#683));
#1030=IFCFACE((#684));
#1031=IFCFACE((#685));
#1032=IFCFACE((#686));
#1033=IFCFACE((#687));
#1034=IFCFACE((#688));
#1035=IFCFACE((#689));
#1036=IFCFACE((#690));
#1037=IFCFACE((#691));
#1038=IFCFACE((#692));
#1039=IFCFACE((#693));
#1040=IFCFACE((#694));
#1041=IFCFACE((#695));
#1042=IFCFACE((#696));
#1043=IFCFACE((#697));
#1044=IFCFACE((#698));
#1045=IFCFACE((#699));
#1046=IFCFACE((#700));
#1047=IFCFACE((#701));
#1048=IFCFACE((#702));
#1049=IFCFACE((#703));
#1050=IFCFACE((#704));
#1051=IFCFACE((#705));
#1052=IFCFACE((#706));
#1053=IFCFACE((#707));
#1054=IFCFACE((#708));
#1055=IFCFACE((#709));
#1056=IFCFACE((#710));
#1057=IFCFACE((#711));
#1058=IFCFACE((#712));
#1059=IFCFACE((#713));
#1060=IFCFACE((#714));
#1061=IFCFACE((#715));
#1062=IFCFACE((#716));
#1063=IFCFACE((#717));
#1064=IFCCLOSEDSHELL((#718,#719,#720,#721,#722,#723,#724,#725,#726,#727,
#728,#729,#730,#731,#732,#733,#734,#735,#736,#737,#738,#739,#740,#741,#742,
#743,#744,#745,#746,#747,#748,#749,#750,#751,#752,#753,#754,#755,#756,#757,
#758,#759,#760,#761,#762,#763,#764,#765,#766,#767,#768,#769,#770,#771,#772,
#773,#774,#775,#776,#777,#778,#779,#780,#781,#782,#783,#784,#785,#786,#787,
#788,#789,#790,#791,#792,#793,#794,#795,#796,#797,#798,#799,#800,#801,#802,
#803,#804,#805,#806,#807,#808,#809,#810,#811,#812,#813,#814,#815,#816,#817,
#818,#819,#820,#821,#822,#823,#824,#825,#826,#827,#828,#829,#830,#831,#832,
#833,#834,#835,#836,#837,#838,#839,#840,#841,#842,#843,#844,#845,#846,#847,
#848,#849,#850,#851,#852,#853,#854,#855,#856,#857,#858,#859,#860,#861,#862,
#863,#864,#865,#866,#867,#868,#869,#870,#871,#872,#873,#874,#875,#876,#877,
#878,#879,#880,#881,#882,#883,#884,#885,#886,#887,#888,#889,#890,#891,#892,
#893,#894,#895,#896,#897,#898,#899,#900,#901,#902,#903,#904,#905,#906,#907,
#908,#909,#910,#911,#912,#913,#914,#915,#916,#917,#918,#919,#920,#921,#922,
#923,#924,#925,#926,#927,#928,#929,#930,#931,#932,#933,#934,#935,#936,#937,
#938,#939,#940,#941,#942,#943,#944,#945,#946,#947,#948,#949,#950,#951,#952,
#953,#954,#955,#956,#957,#958,#959,#960,#961,#962,#963,#964,#965,#966,#967,
#968,#969,#970,#971,#972,#973,#974,#975,#976,#977,#978,#979,#980,#981,#982,
#983,#984,#985,#986,#987,#988,#989,#990,#991,#992,#993,#994,#995,#996,#997,
#998,#999,#1000,#1001,#1002,#1003,#1004,#1005,#1006,#1007,#1008,#1009,#1010,
#1011,#1012,#1013,#1014,#1015,#1016,#1017,#1018,#1019,#1020,#1021,#1022,
#1023,#1024,#1025,#1026,#1027,#1028,#1029,#1030,#1031,#1032,#1033,#1034,
#1035,#1036,#1037,#1038,#1039,#1040,#1041,#1042,#1043,#1044,#1045,#1046,
#1047,#1048,#1049,#1050,#1051,#1052,#1053,#1054,#1055,#1056,#1057,#1058,
#1059,#1060,#1061,#1062,#1063));
#1065=IFCSTYLEDITEM(#1070,(#1066),'');
#1066=IFCPRESENTATIONSTYLEASSIGNMENT((#1067));
#1067=IFCSURFACESTYLE('',.BOTH.,(#1068));
#1068=IFCSURFACESTYLERENDERING(#1069,0.,$,$,$,$,$,$,.NOTDEFINED.);
#1069=IFCCOLOURRGB('',0.200000002980232,0.200000002980232,0.200000002980232);
#1070=IFCFACETEDBREP(#1064);
#1071=IFCPROJECT('07hUkdHgGydfWsFJH56q5B',#1414,'Black_6006140_AVV',' ',
' ',' ',' ',(#1409),#1072);
#1072=IFCUNITASSIGNMENT((#1410,#1411,#1412,#1413));
#1073=IFCGEOMETRICREPRESENTATIONSUBCONTEXT('Body','Model',*,*,*,*,#1409,
1.,.MODEL_VIEW.,$);
#1074=IFCAXIS2PLACEMENT3D(#1080,#1076,#1077);
#1075=IFCAXIS2PLACEMENT3D(#1408,#1078,#1079);
#1076=IFCDIRECTION((0.,0.,1.));
#1077=IFCDIRECTION((1.,0.,0.));
#1078=IFCDIRECTION((0.,0.,1.));
#1079=IFCDIRECTION((1.,0.,0.));
#1080=IFCCARTESIANPOINT((0.,0.,0.));
#1081=IFCCARTESIANPOINT((6.86402655078499,1.18631864033178,8.));
#1082=IFCCARTESIANPOINT((6.86402655078499,1.18631864033178,7.2));
#1083=IFCCARTESIANPOINT((7.1,0.,7.2));
#1084=IFCCARTESIANPOINT((7.1,0.,8.));
#1085=IFCCARTESIANPOINT((6.1920310216783,2.1920310216783,8.));
#1086=IFCCARTESIANPOINT((6.1920310216783,2.1920310216783,7.2));
#1087=IFCCARTESIANPOINT((5.18631864033178,2.86402655078499,8.));
#1088=IFCCARTESIANPOINT((5.18631864033178,2.86402655078499,7.2));
#1089=IFCCARTESIANPOINT((4.,3.1,8.));
#1090=IFCCARTESIANPOINT((4.,3.1,7.2));
#1091=IFCCARTESIANPOINT((2.81368135966822,2.86402655078499,8.));
#1092=IFCCARTESIANPOINT((2.81368135966822,2.86402655078499,7.2));
#1093=IFCCARTESIANPOINT((1.80796897832171,2.1920310216783,8.));
#1094=IFCCARTESIANPOINT((1.80796897832171,2.1920310216783,7.2));
#1095=IFCCARTESIANPOINT((1.13597344921501,1.18631864033178,8.));
#1096=IFCCARTESIANPOINT((1.13597344921501,1.18631864033178,7.2));
#1097=IFCCARTESIANPOINT((0.900000000000003,3.79640507735679E-16,8.));
#1098=IFCCARTESIANPOINT((0.900000000000003,3.79640507735679E-16,7.2));
#1099=IFCCARTESIANPOINT((1.13597344921501,-1.18631864033178,8.));
#1100=IFCCARTESIANPOINT((1.13597344921501,-1.18631864033178,7.2));
#1101=IFCCARTESIANPOINT((1.80796897832171,-2.1920310216783,8.));
#1102=IFCCARTESIANPOINT((1.80796897832171,-2.1920310216783,7.2));
#1103=IFCCARTESIANPOINT((2.81368135966822,-2.86402655078499,8.));
#1104=IFCCARTESIANPOINT((2.81368135966822,-2.86402655078499,7.2));
#1105=IFCCARTESIANPOINT((4.,-3.1,8.));
#1106=IFCCARTESIANPOINT((4.,-3.1,7.2));
#1107=IFCCARTESIANPOINT((5.18631864033178,-2.86402655078499,8.));
#1108=IFCCARTESIANPOINT((5.18631864033178,-2.86402655078499,7.2));
#1109=IFCCARTESIANPOINT((6.1920310216783,-2.1920310216783,8.));
#1110=IFCCARTESIANPOINT((6.1920310216783,-2.1920310216783,7.2));
#1111=IFCCARTESIANPOINT((6.86402655078499,-1.18631864033178,8.));
#1112=IFCCARTESIANPOINT((6.86402655078499,-1.18631864033178,7.2));
#1113=IFCCARTESIANPOINT((2.30294372515229,-1.69705627484772,7.2));
#1114=IFCCARTESIANPOINT((1.78268912197291,-0.918440237676216,7.2));
#1115=IFCCARTESIANPOINT((3.08155976232379,2.21731087802709,7.2));
#1116=IFCCARTESIANPOINT((4.,2.4,7.2));
#1117=IFCCARTESIANPOINT((3.08155976232378,-2.21731087802709,7.2));
#1118=IFCCARTESIANPOINT((5.69705627484772,1.69705627484772,7.2));
#1119=IFCCARTESIANPOINT((6.21731087802709,0.918440237676216,7.2));
#1120=IFCCARTESIANPOINT((2.30294372515229,1.69705627484771,7.2));
#1121=IFCCARTESIANPOINT((1.6,2.93915231795365E-16,7.2));
#1122=IFCCARTESIANPOINT((1.78268912197291,0.918440237676215,7.2));
#1123=IFCCARTESIANPOINT((4.,-2.4,7.2));
#1124=IFCCARTESIANPOINT((6.4,0.,7.2));
#1125=IFCCARTESIANPOINT((6.21731087802709,-0.918440237676216,7.2));
#1126=IFCCARTESIANPOINT((4.91844023767622,2.21731087802709,7.2));
#1127=IFCCARTESIANPOINT((4.91844023767622,-2.21731087802709,7.2));
#1128=IFCCARTESIANPOINT((5.69705627484772,-1.69705627484772,7.2));
#1129=IFCCARTESIANPOINT((6.21731087802709,0.918440237676216,0.799999999999996));
#1130=IFCCARTESIANPOINT((6.4,0.,0.799999999999996));
#1131=IFCCARTESIANPOINT((5.69705627484772,1.69705627484772,0.799999999999996));
#1132=IFCCARTESIANPOINT((4.91844023767622,2.21731087802709,0.799999999999996));
#1133=IFCCARTESIANPOINT((4.,2.4,0.799999999999997));
#1134=IFCCARTESIANPOINT((3.08155976232378,2.21731087802709,0.799999999999997));
#1135=IFCCARTESIANPOINT((2.30294372515228,1.69705627484771,0.799999999999997));
#1136=IFCCARTESIANPOINT((1.78268912197291,0.918440237676215,0.799999999999997));
#1137=IFCCARTESIANPOINT((1.6,2.93915231795365E-16,0.799999999999997));
#1138=IFCCARTESIANPOINT((1.78268912197291,-0.918440237676216,0.799999999999997));
#1139=IFCCARTESIANPOINT((2.30294372515228,-1.69705627484772,0.799999999999997));
#1140=IFCCARTESIANPOINT((3.08155976232378,-2.21731087802709,0.799999999999997));
#1141=IFCCARTESIANPOINT((4.,-2.4,0.799999999999997));
#1142=IFCCARTESIANPOINT((4.91844023767622,-2.21731087802709,0.799999999999996));
#1143=IFCCARTESIANPOINT((5.69705627484772,-1.69705627484772,0.799999999999996));
#1144=IFCCARTESIANPOINT((6.21731087802709,-0.918440237676216,0.799999999999996));
#1145=IFCCARTESIANPOINT((1.13597344921501,1.18631864033178,0.799999999999998));
#1146=IFCCARTESIANPOINT((1.8079689783217,2.1920310216783,0.799999999999998));
#1147=IFCCARTESIANPOINT((2.81368135966822,2.86402655078499,0.799999999999997));
#1148=IFCCARTESIANPOINT((4.,3.1,0.799999999999997));
#1149=IFCCARTESIANPOINT((5.18631864033178,2.86402655078499,0.799999999999997));
#1150=IFCCARTESIANPOINT((4.,-3.1,0.799999999999997));
#1151=IFCCARTESIANPOINT((2.81368135966822,-2.86402655078499,0.799999999999997));
#1152=IFCCARTESIANPOINT((6.1920310216783,2.1920310216783,0.799999999999996));
#1153=IFCCARTESIANPOINT((6.86402655078499,1.18631864033178,0.799999999999996));
#1154=IFCCARTESIANPOINT((1.8079689783217,-2.1920310216783,0.799999999999998));
#1155=IFCCARTESIANPOINT((1.13597344921501,-1.18631864033178,0.799999999999998));
#1156=IFCCARTESIANPOINT((0.900000000000001,3.79640507735679E-16,0.799999999999998));
#1157=IFCCARTESIANPOINT((7.1,0.,0.799999999999996));
#1158=IFCCARTESIANPOINT((6.86402655078499,-1.18631864033178,0.799999999999996));
#1159=IFCCARTESIANPOINT((6.1920310216783,-2.1920310216783,0.799999999999996));
#1160=IFCCARTESIANPOINT((5.18631864033178,-2.86402655078499,0.799999999999997));
#1161=IFCCARTESIANPOINT((6.86402655078499,1.18631864033178,7.67528778863424E-17));
#1162=IFCCARTESIANPOINT((7.09999999999999,0.,0.));
#1163=IFCCARTESIANPOINT((6.1920310216783,2.1920310216783,2.95326581653749E-16));
#1164=IFCCARTESIANPOINT((5.18631864033178,2.86402655078499,6.22445246279188E-16));
#1165=IFCCARTESIANPOINT((4.,3.1,1.00830802041152E-15));
#1166=IFCCARTESIANPOINT((2.81368135966822,2.86402655078499,1.39417079454385E-15));
#1167=IFCCARTESIANPOINT((1.8079689783217,2.1920310216783,1.72128945916929E-15));
#1168=IFCCARTESIANPOINT((1.13597344921501,1.18631864033178,1.93986316293669E-15));
#1169=IFCCARTESIANPOINT((0.900000000000001,3.79640507735679E-16,2.01661604082304E-15));
#1170=IFCCARTESIANPOINT((1.13597344921501,-1.18631864033178,1.93986316293669E-15));
#1171=IFCCARTESIANPOINT((1.8079689783217,-2.1920310216783,1.72128945916929E-15));
#1172=IFCCARTESIANPOINT((2.81368135966822,-2.86402655078499,1.39417079454385E-15));
#1173=IFCCARTESIANPOINT((4.,-3.1,1.00830802041152E-15));
#1174=IFCCARTESIANPOINT((5.18631864033178,-2.86402655078499,6.22445246279188E-16));
#1175=IFCCARTESIANPOINT((6.1920310216783,-2.1920310216783,2.95326581653749E-16));
#1176=IFCCARTESIANPOINT((6.86402655078499,-1.18631864033178,7.67528778863422E-17));
#1177=IFCCARTESIANPOINT((-6.54558441227157,2.54558441227157,0.));
#1178=IFCCARTESIANPOINT((-4.8954180818573,2.18630892753907,0.));
#1179=IFCCARTESIANPOINT((-4.9,2.15638586528478,0.));
#1180=IFCCARTESIANPOINT((-4.9,1.4,0.));
#1181=IFCCARTESIANPOINT((-4.93806023374436,1.20865828381746,0.));
#1182=IFCCARTESIANPOINT((-5.04644660940673,1.04644660940673,0.));
#1183=IFCCARTESIANPOINT((-5.20865828381746,0.938060233744357,0.));
#1184=IFCCARTESIANPOINT((-5.4,0.9,0.));
#1185=IFCCARTESIANPOINT((-6.15638586528478,0.9,0.));
#1186=IFCCARTESIANPOINT((-7.32596631704063,1.37766035651432,0.));
#1187=IFCCARTESIANPOINT((-6.2134898893568,0.882092206906518,0.));
#1188=IFCCARTESIANPOINT((-6.23543793189619,0.86124353651175,0.));
#1189=IFCCARTESIANPOINT((-6.18630892753907,0.895418081857297,0.));
#1190=IFCCARTESIANPOINT((-6.54558441227157,-2.54558441227157,0.));
#1191=IFCCARTESIANPOINT((-6.15638586528478,-0.9,0.));
#1192=IFCCARTESIANPOINT((-5.4,-0.9,0.));
#1193=IFCCARTESIANPOINT((-5.20865828381746,-0.938060233744356,0.));
#1194=IFCCARTESIANPOINT((-5.04644660940673,-1.04644660940673,0.));
#1195=IFCCARTESIANPOINT((-4.93806023374436,-1.20865828381745,0.));
#1196=IFCCARTESIANPOINT((-4.9,-1.4,0.));
#1197=IFCCARTESIANPOINT((-4.9,-2.15638586528478,0.));
#1198=IFCCARTESIANPOINT((-7.32596631704063,-1.37766035651433,0.));
#1199=IFCCARTESIANPOINT((-6.25014177247108,-0.834782608695651,0.));
#1200=IFCCARTESIANPOINT((-6.23543793189619,-0.86124353651175,0.));
#1201=IFCCARTESIANPOINT((-4.88209220690652,2.2134898893568,0.));
#1202=IFCCARTESIANPOINT((-4.83478260869565,2.25014177247108,0.));
#1203=IFCCARTESIANPOINT((-4.86124353651175,2.23543793189619,0.));
#1204=IFCCARTESIANPOINT((-1.10188867290572,2.36310932718839,0.));
#1205=IFCCARTESIANPOINT((-3.1045819181427,2.18630892753907,0.));
#1206=IFCCARTESIANPOINT((-3.11790779309348,2.2134898893568,0.));
#1207=IFCCARTESIANPOINT((-6.18630892753907,-0.895418081857297,0.));
#1208=IFCCARTESIANPOINT((-6.2134898893568,-0.882092206906518,0.));
#1209=IFCCARTESIANPOINT((-1.09220232790184,2.18381979588779,0.));
#1210=IFCCARTESIANPOINT((-3.1,2.15638586528478,0.));
#1211=IFCCARTESIANPOINT((-4.8954180818573,-2.18630892753907,0.));
#1212=IFCCARTESIANPOINT((-4.88209220690652,-2.2134898893568,0.));
#1213=IFCCARTESIANPOINT((-2.95355339059327,-1.04644660940673,0.));
#1214=IFCCARTESIANPOINT((-2.79134171618254,-0.938060233744356,0.));
#1215=IFCCARTESIANPOINT((-2.6,-0.899999999999999,0.));
#1216=IFCCARTESIANPOINT((-1.23413666281213,-0.899999999999999,0.));
#1217=IFCCARTESIANPOINT((-1.06744272271922,-0.92860512270889,0.));
#1218=IFCCARTESIANPOINT((-0.919821985071047,-1.0111474786548,0.));
#1219=IFCCARTESIANPOINT((-0.808165287126834,-1.13818253095568,0.));
#1220=IFCCARTESIANPOINT((-0.745248443070435,-1.29517486657393,0.));
#1221=IFCCARTESIANPOINT((-0.738270429080606,-1.4641613454107,0.));
#1222=IFCCARTESIANPOINT((-0.788029672943122,-1.6258064516129,0.));
#1223=IFCCARTESIANPOINT((-1.01980361490158,-2.01951219512195,0.));
#1224=IFCCARTESIANPOINT((-4.,2.4,0.));
#1225=IFCCARTESIANPOINT((-3.16521739130435,2.25014177247108,0.));
#1226=IFCCARTESIANPOINT((-3.13875646348825,2.23543793189619,0.));
#1227=IFCCARTESIANPOINT((-1.10188867290572,-2.36310932718839,0.));
#1228=IFCCARTESIANPOINT((-4.,-2.4,0.));
#1229=IFCCARTESIANPOINT((-1.09220232790184,-2.18381979588779,0.));
#1230=IFCCARTESIANPOINT((-3.1045819181427,-2.18630892753907,0.));
#1231=IFCCARTESIANPOINT((-3.1,-2.15638586528478,0.));
#1232=IFCCARTESIANPOINT((-3.13875646348825,-2.23543793189619,0.));
#1233=IFCCARTESIANPOINT((-3.11790779309348,-2.2134898893568,0.));
#1234=IFCCARTESIANPOINT((-6.25014177247108,0.834782608695652,0.));
#1235=IFCCARTESIANPOINT((-4.83478260869565,-2.25014177247108,0.));
#1236=IFCCARTESIANPOINT((-4.86124353651175,-2.23543793189619,0.));
#1237=IFCCARTESIANPOINT((-2.95355339059327,1.04644660940673,0.));
#1238=IFCCARTESIANPOINT((-3.06193976625564,1.20865828381746,0.));
#1239=IFCCARTESIANPOINT((-3.1,1.4,0.));
#1240=IFCCARTESIANPOINT((-1.01980361490158,2.01951219512195,0.));
#1241=IFCCARTESIANPOINT((-4.,3.6,0.));
#1242=IFCCARTESIANPOINT((-0.782520506321716,2.76776143868648,0.));
#1243=IFCCARTESIANPOINT((-0.936375979913247,2.67520305408818,0.));
#1244=IFCCARTESIANPOINT((0.782520506321714,2.76776143868648,0.));
#1245=IFCCARTESIANPOINT((0.605887450304571,2.8,0.));
#1246=IFCCARTESIANPOINT((-4.,-3.6,0.));
#1247=IFCCARTESIANPOINT((-0.782520506321717,-2.76776143868648,0.));
#1248=IFCCARTESIANPOINT((-0.605887450304574,-2.8,0.));
#1249=IFCCARTESIANPOINT((-3.16521739130435,-2.25014177247108,0.));
#1250=IFCCARTESIANPOINT((-6.4,-5.87830463590729E-16,0.));
#1251=IFCCARTESIANPOINT((-7.6,-8.81745695386094E-16,0.));
#1252=IFCCARTESIANPOINT((-1.04761355460396,2.53426064283291,0.));
#1253=IFCCARTESIANPOINT((-0.605887450304572,2.8,0.));
#1254=IFCCARTESIANPOINT((0.605887450304573,-2.8,0.));
#1255=IFCCARTESIANPOINT((-5.37766035651433,3.32596631704063,0.));
#1256=IFCCARTESIANPOINT((6.54558441227158,-2.54558441227157,0.));
#1257=IFCCARTESIANPOINT((5.37766035651433,-3.32596631704063,0.));
#1258=IFCCARTESIANPOINT((0.782520506321717,-2.76776143868648,0.));
#1259=IFCCARTESIANPOINT((-5.37766035651432,-3.32596631704063,0.));
#1260=IFCCARTESIANPOINT((-1.04761355460396,-2.53426064283291,0.));
#1261=IFCCARTESIANPOINT((-3.1,-1.4,0.));
#1262=IFCCARTESIANPOINT((-3.06193976625564,-1.20865828381745,0.));
#1263=IFCCARTESIANPOINT((1.10188867290571,2.36310932718839,0.));
#1264=IFCCARTESIANPOINT((1.04761355460396,2.53426064283291,0.));
#1265=IFCCARTESIANPOINT((1.01980361490157,2.01951219512195,0.));
#1266=IFCCARTESIANPOINT((1.09220232790184,2.18381979588779,0.));
#1267=IFCCARTESIANPOINT((7.32596631704064,-1.37766035651432,0.));
#1268=IFCCARTESIANPOINT((-0.936375979913248,-2.67520305408818,0.));
#1269=IFCCARTESIANPOINT((0.936375979913245,2.67520305408818,0.));
#1270=IFCCARTESIANPOINT((0.470706583200114,-0.709991533846,0.));
#1271=IFCCARTESIANPOINT((0.470706583200113,0.709991533845995,0.));
#1272=IFCCARTESIANPOINT((4.,3.6,0.));
#1273=IFCCARTESIANPOINT((7.6,4.40872847693048E-16,0.));
#1274=IFCCARTESIANPOINT((1.04761355460396,-2.53426064283291,0.));
#1275=IFCCARTESIANPOINT((1.10188867290572,-2.36310932718839,0.));
#1276=IFCCARTESIANPOINT((0.936375979913247,-2.67520305408818,0.));
#1277=IFCCARTESIANPOINT((5.37766035651432,3.32596631704064,0.));
#1278=IFCCARTESIANPOINT((6.54558441227157,2.54558441227157,0.));
#1279=IFCCARTESIANPOINT((7.32596631704064,1.37766035651433,0.));
#1280=IFCCARTESIANPOINT((4.,-3.6,0.));
#1281=IFCCARTESIANPOINT((1.09220232790184,-2.18381979588779,0.));
#1282=IFCCARTESIANPOINT((-0.788029672943123,1.6258064516129,0.));
#1283=IFCCARTESIANPOINT((-0.738270429080607,1.4641613454107,0.));
#1284=IFCCARTESIANPOINT((-0.745248443070435,1.29517486657393,0.));
#1285=IFCCARTESIANPOINT((-0.808165287126835,1.13818253095568,0.));
#1286=IFCCARTESIANPOINT((-0.919821985071047,1.0111474786548,0.));
#1287=IFCCARTESIANPOINT((-1.06744272271922,0.928605122708892,0.));
#1288=IFCCARTESIANPOINT((-1.23413666281213,0.9,0.));
#1289=IFCCARTESIANPOINT((-2.6,0.9,0.));
#1290=IFCCARTESIANPOINT((-2.79134171618254,0.938060233744357,0.));
#1291=IFCCARTESIANPOINT((1.01980361490158,-2.01951219512195,0.));
#1292=IFCCARTESIANPOINT((-6.54558441227157,2.54558441227157,8.));
#1293=IFCCARTESIANPOINT((-6.15638586528478,0.9,8.));
#1294=IFCCARTESIANPOINT((-5.4,0.9,8.));
#1295=IFCCARTESIANPOINT((-5.20865828381746,0.938060233744357,8.));
#1296=IFCCARTESIANPOINT((-5.04644660940673,1.04644660940673,8.));
#1297=IFCCARTESIANPOINT((-4.93806023374436,1.20865828381746,8.));
#1298=IFCCARTESIANPOINT((-4.9,1.4,8.));
#1299=IFCCARTESIANPOINT((-4.9,2.15638586528478,8.));
#1300=IFCCARTESIANPOINT((-6.18630892753907,0.895418081857297,8.));
#1301=IFCCARTESIANPOINT((-6.54558441227157,-2.54558441227157,8.));
#1302=IFCCARTESIANPOINT((-4.8954180818573,-2.18630892753907,8.));
#1303=IFCCARTESIANPOINT((-4.9,-2.15638586528478,8.));
#1304=IFCCARTESIANPOINT((-6.2134898893568,0.882092206906518,8.));
#1305=IFCCARTESIANPOINT((-7.32596631704063,1.37766035651432,8.));
#1306=IFCCARTESIANPOINT((-6.25014177247108,0.834782608695652,8.));
#1307=IFCCARTESIANPOINT((-6.23543793189619,0.86124353651175,8.));
#1308=IFCCARTESIANPOINT((-6.18630892753907,-0.895418081857297,8.));
#1309=IFCCARTESIANPOINT((-6.2134898893568,-0.882092206906518,8.));
#1310=IFCCARTESIANPOINT((-4.9,-1.4,8.));
#1311=IFCCARTESIANPOINT((-4.93806023374436,-1.20865828381745,8.));
#1312=IFCCARTESIANPOINT((-5.04644660940673,-1.04644660940673,8.));
#1313=IFCCARTESIANPOINT((-5.20865828381746,-0.938060233744356,8.));
#1314=IFCCARTESIANPOINT((-5.4,-0.9,8.));
#1315=IFCCARTESIANPOINT((-6.15638586528478,-0.9,8.));
#1316=IFCCARTESIANPOINT((-4.86124353651175,-2.23543793189619,8.));
#1317=IFCCARTESIANPOINT((-4.88209220690652,-2.2134898893568,8.));
#1318=IFCCARTESIANPOINT((-4.83478260869565,-2.25014177247108,8.));
#1319=IFCCARTESIANPOINT((-1.10188867290572,2.36310932718839,8.));
#1320=IFCCARTESIANPOINT((-4.,2.4,8.));
#1321=IFCCARTESIANPOINT((-4.88209220690652,2.2134898893568,8.));
#1322=IFCCARTESIANPOINT((-4.86124353651175,2.23543793189619,8.));
#1323=IFCCARTESIANPOINT((-4.8954180818573,2.18630892753907,8.));
#1324=IFCCARTESIANPOINT((-4.83478260869565,2.25014177247108,8.));
#1325=IFCCARTESIANPOINT((-6.23543793189619,-0.86124353651175,8.));
#1326=IFCCARTESIANPOINT((-7.32596631704063,-1.37766035651433,8.));
#1327=IFCCARTESIANPOINT((-1.10188867290572,-2.36310932718839,8.));
#1328=IFCCARTESIANPOINT((-3.1045819181427,-2.18630892753907,8.));
#1329=IFCCARTESIANPOINT((-3.11790779309348,-2.2134898893568,8.));
#1330=IFCCARTESIANPOINT((-6.25014177247108,-0.834782608695651,8.));
#1331=IFCCARTESIANPOINT((-3.13875646348825,-2.23543793189619,8.));
#1332=IFCCARTESIANPOINT((-2.95355339059327,1.04644660940673,8.));
#1333=IFCCARTESIANPOINT((-2.79134171618254,0.938060233744357,8.));
#1334=IFCCARTESIANPOINT((-2.6,0.9,8.));
#1335=IFCCARTESIANPOINT((-1.23413666281213,0.9,8.));
#1336=IFCCARTESIANPOINT((-1.06744272271922,0.928605122708892,8.));
#1337=IFCCARTESIANPOINT((-0.919821985071047,1.0111474786548,8.));
#1338=IFCCARTESIANPOINT((-0.808165287126835,1.13818253095568,8.));
#1339=IFCCARTESIANPOINT((-0.745248443070435,1.29517486657393,8.));
#1340=IFCCARTESIANPOINT((-0.738270429080607,1.4641613454107,8.));
#1341=IFCCARTESIANPOINT((-0.788029672943123,1.6258064516129,8.));
#1342=IFCCARTESIANPOINT((-1.01980361490158,2.01951219512195,8.));
#1343=IFCCARTESIANPOINT((-7.6,-8.81745695386094E-16,8.));
#1344=IFCCARTESIANPOINT((-6.4,-5.87830463590729E-16,8.));
#1345=IFCCARTESIANPOINT((-4.,-2.4,8.));
#1346=IFCCARTESIANPOINT((-3.16521739130435,-2.25014177247108,8.));
#1347=IFCCARTESIANPOINT((-1.09220232790184,-2.18381979588779,8.));
#1348=IFCCARTESIANPOINT((-3.1,-2.15638586528478,8.));
#1349=IFCCARTESIANPOINT((-1.09220232790184,2.18381979588779,8.));
#1350=IFCCARTESIANPOINT((-3.1045819181427,2.18630892753907,8.));
#1351=IFCCARTESIANPOINT((-3.1,2.15638586528478,8.));
#1352=IFCCARTESIANPOINT((-3.13875646348825,2.23543793189619,8.));
#1353=IFCCARTESIANPOINT((-3.11790779309348,2.2134898893568,8.));
#1354=IFCCARTESIANPOINT((-2.95355339059327,-1.04644660940673,8.));
#1355=IFCCARTESIANPOINT((-3.06193976625564,-1.20865828381745,8.));
#1356=IFCCARTESIANPOINT((-3.1,-1.4,8.));
#1357=IFCCARTESIANPOINT((-1.01980361490158,-2.01951219512195,8.));
#1358=IFCCARTESIANPOINT((-3.16521739130435,2.25014177247108,8.));
#1359=IFCCARTESIANPOINT((0.936375979913245,2.67520305408818,8.));
#1360=IFCCARTESIANPOINT((1.04761355460396,2.53426064283291,8.));
#1361=IFCCARTESIANPOINT((-4.,3.6,8.));
#1362=IFCCARTESIANPOINT((-0.605887450304572,2.8,8.));
#1363=IFCCARTESIANPOINT((0.605887450304571,2.8,8.));
#1364=IFCCARTESIANPOINT((-1.04761355460396,2.53426064283291,8.));
#1365=IFCCARTESIANPOINT((-0.936375979913247,2.67520305408818,8.));
#1366=IFCCARTESIANPOINT((0.782520506321714,2.76776143868648,8.));
#1367=IFCCARTESIANPOINT((-0.782520506321716,2.76776143868648,8.));
#1368=IFCCARTESIANPOINT((-5.37766035651433,3.32596631704063,8.));
#1369=IFCCARTESIANPOINT((-3.1,1.4,8.));
#1370=IFCCARTESIANPOINT((-3.06193976625564,1.20865828381746,8.));
#1371=IFCCARTESIANPOINT((-4.,-3.6,8.));
#1372=IFCCARTESIANPOINT((0.605887450304573,-2.8,8.));
#1373=IFCCARTESIANPOINT((-0.605887450304574,-2.8,8.));
#1374=IFCCARTESIANPOINT((-0.788029672943122,-1.6258064516129,8.));
#1375=IFCCARTESIANPOINT((-0.738270429080606,-1.4641613454107,8.));
#1376=IFCCARTESIANPOINT((-0.745248443070435,-1.29517486657393,8.));
#1377=IFCCARTESIANPOINT((-0.808165287126834,-1.13818253095568,8.));
#1378=IFCCARTESIANPOINT((-0.919821985071047,-1.0111474786548,8.));
#1379=IFCCARTESIANPOINT((-1.06744272271922,-0.92860512270889,8.));
#1380=IFCCARTESIANPOINT((-1.23413666281213,-0.899999999999999,8.));
#1381=IFCCARTESIANPOINT((-2.6,-0.899999999999999,8.));
#1382=IFCCARTESIANPOINT((-2.79134171618254,-0.938060233744356,8.));
#1383=IFCCARTESIANPOINT((0.782520506321717,-2.76776143868648,8.));
#1384=IFCCARTESIANPOINT((1.09220232790184,-2.18381979588779,8.));
#1385=IFCCARTESIANPOINT((1.10188867290572,-2.36310932718839,8.));
#1386=IFCCARTESIANPOINT((-0.936375979913248,-2.67520305408818,8.));
#1387=IFCCARTESIANPOINT((-1.04761355460396,-2.53426064283291,8.));
#1388=IFCCARTESIANPOINT((1.04761355460396,-2.53426064283291,8.));
#1389=IFCCARTESIANPOINT((0.936375979913247,-2.67520305408818,8.));
#1390=IFCCARTESIANPOINT((1.01980361490158,-2.01951219512195,8.));
#1391=IFCCARTESIANPOINT((-5.37766035651432,-3.32596631704063,8.));
#1392=IFCCARTESIANPOINT((-0.782520506321717,-2.76776143868648,8.));
#1393=IFCCARTESIANPOINT((1.10188867290571,2.36310932718839,8.));
#1394=IFCCARTESIANPOINT((6.54558441227158,-2.54558441227157,8.));
#1395=IFCCARTESIANPOINT((7.32596631704064,-1.37766035651432,8.));
#1396=IFCCARTESIANPOINT((5.37766035651432,3.32596631704064,8.));
#1397=IFCCARTESIANPOINT((4.,3.6,8.));
#1398=IFCCARTESIANPOINT((4.,-3.6,8.));
#1399=IFCCARTESIANPOINT((5.37766035651433,-3.32596631704063,8.));
#1400=IFCCARTESIANPOINT((1.09220232790184,2.18381979588779,8.));
#1401=IFCCARTESIANPOINT((0.470706583200113,0.709991533845995,8.));
#1402=IFCCARTESIANPOINT((0.470706583200114,-0.709991533846,8.));
#1403=IFCCARTESIANPOINT((7.32596631704064,1.37766035651433,8.));
#1404=IFCCARTESIANPOINT((6.54558441227157,2.54558441227157,8.));
#1405=IFCCARTESIANPOINT((1.01980361490157,2.01951219512195,8.));
#1406=IFCCARTESIANPOINT((7.6,4.40872847693048E-16,8.));
#1407=IFCCARTESIANPOINT((0.,0.,0.));
#1408=IFCCARTESIANPOINT((0.,0.,0.));
#1409=IFCGEOMETRICREPRESENTATIONCONTEXT($,'Model',3,0.005,#1074,$);
#1410=IFCSIUNIT(*,.LENGTHUNIT.,.MILLI.,.METRE.);
#1411=IFCSIUNIT(*,.AREAUNIT.,$,.SQUARE_METRE.);
#1412=IFCSIUNIT(*,.VOLUMEUNIT.,$,.CUBIC_METRE.);
#1413=IFCSIUNIT(*,.PLANEANGLEUNIT.,$,.RADIAN.);
#1414=IFCOWNERHISTORY(#1416,#1415,$,.NOCHANGE.,0,$,$,0);
#1415=IFCAPPLICATION(#1417,' ',' ',' ');
#1416=IFCPERSONANDORGANIZATION(#1418,#1417,$);
#1417=IFCORGANIZATION($,' ',$,$,$);
#1418=IFCPERSON(' ',' ',' ',$,$,$,$,$);
ENDSEC;
END-ISO-10303-21;
