ISO-10303-21;
HEADER;
/* Generated by software containing ST-Developer
 * from STEP Tools, Inc. (www.steptools.com) 
 */
/* OPTION: strings as raw bytes, not using required /X/ escapes */

FILE_DESCRIPTION(
/* description */ ('Unknown'),
/* implementation_level */ '2;1');

FILE_NAME(
/* name */ 'Black_4614226_AVV',
/* time_stamp */ '2025-07-21T23:48:19+02:00',
/* author */ ('Unknown'),
/* organization */ ('Unknown'),
/* preprocessor_version */ 'ST-DEVELOPER v19.4',
/* originating_system */ 'Unknown',
/* authorisation */ 'OpenTools');

FILE_SCHEMA (('IFC2X3'));
ENDSEC;

DATA;
#10=IFCPROPERTYSINGLEVALUE('ProjectName',$,IFCTEXT(''),$);
#11=IFCPROPERTYSINGLEVALUE('PartNumber',$,IFCTEXT(''),$);
#12=IFCRELDEFINESBYPROPERTIES('3cRq1JQpSwDOm5lsE5cG83',#1233,$,$,(#14),
#13);
#13=IFCPROPERTYSET('1jOd4kXgWorA4TVRi95rqH',#1233,
'empty property set name',$,(#10,#11));
#14=IFCBUILDINGELEMENTPROXY('2GP_XOK7Wq1Pa1NGQTVWHM',#1233,
'Black_4614226_AVV',' ','Black_4614226_AVV',#19,#15,' ',.ELEMENT.);
#15=IFCPRODUCTDEFINITIONSHAPE(' ',' ',(#25));
#16=IFCRELCONTAINEDINSPATIALSTRUCTURE('3HZhfx2I0vj9Cvp1GHER_f',#1233,
' ',' ',(#14),#20);
#17=IFCRELAGGREGATES('1jF0XzMGqvEA6wZwPLSawz',#1233,$,$,#1008,(#20));
#18=IFCLOCALPLACEMENT($,#1011);
#19=IFCLOCALPLACEMENT(#18,#1012);
#20=IFCBUILDING('3G2N19bOG__grq1LV0cQPU',#1233,'Default Building',$,$,#18,
$,$,.ELEMENT.,0.,0.,$);
#21=IFCCARTESIANTRANSFORMATIONOPERATOR3D($,$,#1226,1.,$);
#22=IFCMAPPEDITEM(#23,#21);
#23=IFCREPRESENTATIONMAP(#1011,#24);
#24=IFCSHAPEREPRESENTATION(#1010,'Body','Brep',(#1007));
#25=IFCSHAPEREPRESENTATION(#1010,'Body','MappedRepresentation',(#22));
#26=IFCPOLYLOOP((#1018,#1019,#1020,#1021,#1022,#1023,#1024,#1025,#1026,
#1027,#1028,#1029,#1030,#1031,#1032,#1033));
#27=IFCPOLYLOOP((#1025,#1034,#1035));
#28=IFCPOLYLOOP((#1025,#1036,#1037));
#29=IFCPOLYLOOP((#1037,#1034,#1025));
#30=IFCPOLYLOOP((#1027,#1026,#1038));
#31=IFCPOLYLOOP((#1026,#1039,#1038));
#32=IFCPOLYLOOP((#1026,#1035,#1039));
#33=IFCPOLYLOOP((#1027,#1040,#1041));
#34=IFCPOLYLOOP((#1041,#1028,#1027));
#35=IFCPOLYLOOP((#1027,#1042,#1040));
#36=IFCPOLYLOOP((#1028,#1043,#1044));
#37=IFCPOLYLOOP((#1044,#1029,#1028));
#38=IFCPOLYLOOP((#1028,#1045,#1043));
#39=IFCPOLYLOOP((#1030,#1046,#1047));
#40=IFCPOLYLOOP((#1029,#1048,#1046));
#41=IFCPOLYLOOP((#1046,#1030,#1029));
#42=IFCPOLYLOOP((#1031,#1049,#1050));
#43=IFCPOLYLOOP((#1030,#1051,#1049));
#44=IFCPOLYLOOP((#1049,#1031,#1030));
#45=IFCPOLYLOOP((#1032,#1031,#1052));
#46=IFCPOLYLOOP((#1052,#1053,#1032));
#47=IFCPOLYLOOP((#1033,#1054,#1055));
#48=IFCPOLYLOOP((#1033,#1032,#1056));
#49=IFCPOLYLOOP((#1056,#1054,#1033));
#50=IFCPOLYLOOP((#1018,#1057,#1058));
#51=IFCPOLYLOOP((#1018,#1033,#1059));
#52=IFCPOLYLOOP((#1059,#1057,#1018));
#53=IFCPOLYLOOP((#1019,#1018,#1060));
#54=IFCPOLYLOOP((#1060,#1061,#1019));
#55=IFCPOLYLOOP((#1020,#1062,#1063));
#56=IFCPOLYLOOP((#1020,#1019,#1064));
#57=IFCPOLYLOOP((#1064,#1062,#1020));
#58=IFCPOLYLOOP((#1020,#1065,#1066));
#59=IFCPOLYLOOP((#1066,#1021,#1020));
#60=IFCPOLYLOOP((#1020,#1067,#1065));
#61=IFCPOLYLOOP((#1022,#1021,#1068));
#62=IFCPOLYLOOP((#1021,#1069,#1068));
#63=IFCPOLYLOOP((#1021,#1070,#1069));
#64=IFCPOLYLOOP((#1022,#1071,#1072));
#65=IFCPOLYLOOP((#1022,#1073,#1071));
#66=IFCPOLYLOOP((#1022,#1074,#1073));
#67=IFCPOLYLOOP((#1023,#1075,#1076));
#68=IFCPOLYLOOP((#1023,#1077,#1075));
#69=IFCPOLYLOOP((#1023,#1072,#1077));
#70=IFCPOLYLOOP((#1024,#1078,#1036));
#71=IFCPOLYLOOP((#1024,#1076,#1079));
#72=IFCPOLYLOOP((#1079,#1078,#1024));
#73=IFCPOLYLOOP((#1036,#1025,#1024));
#74=IFCPOLYLOOP((#1076,#1024,#1023));
#75=IFCPOLYLOOP((#1072,#1023,#1022));
#76=IFCPOLYLOOP((#1068,#1074,#1022));
#77=IFCPOLYLOOP((#1066,#1070,#1021));
#78=IFCPOLYLOOP((#1063,#1067,#1020));
#79=IFCPOLYLOOP((#1061,#1064,#1019));
#80=IFCPOLYLOOP((#1058,#1060,#1018));
#81=IFCPOLYLOOP((#1055,#1059,#1033));
#82=IFCPOLYLOOP((#1053,#1056,#1032));
#83=IFCPOLYLOOP((#1050,#1052,#1031));
#84=IFCPOLYLOOP((#1047,#1051,#1030));
#85=IFCPOLYLOOP((#1044,#1048,#1029));
#86=IFCPOLYLOOP((#1041,#1045,#1028));
#87=IFCPOLYLOOP((#1038,#1042,#1027));
#88=IFCPOLYLOOP((#1035,#1026,#1025));
#89=IFCPOLYLOOP((#1080,#1081,#1082));
#90=IFCPOLYLOOP((#1081,#1083,#1082));
#91=IFCPOLYLOOP((#1084,#1085,#1086));
#92=IFCPOLYLOOP((#1086,#1087,#1084));
#93=IFCPOLYLOOP((#1088,#1089,#1090));
#94=IFCPOLYLOOP((#1089,#1091,#1090));
#95=IFCPOLYLOOP((#1092,#1093,#1094));
#96=IFCPOLYLOOP((#1094,#1095,#1092));
#97=IFCPOLYLOOP((#1096,#1097,#1098));
#98=IFCPOLYLOOP((#1098,#1099,#1096));
#99=IFCPOLYLOOP((#1098,#1100,#1099));
#100=IFCPOLYLOOP((#1099,#1100,#1101));
#101=IFCPOLYLOOP((#1101,#1102,#1099));
#102=IFCPOLYLOOP((#1101,#1103,#1102));
#103=IFCPOLYLOOP((#1104,#1105,#1106));
#104=IFCPOLYLOOP((#1102,#1103,#1107));
#105=IFCPOLYLOOP((#1107,#1104,#1102));
#106=IFCPOLYLOOP((#1106,#1105,#1108));
#107=IFCPOLYLOOP((#1109,#1108,#1110));
#108=IFCPOLYLOOP((#1111,#1112,#1113));
#109=IFCPOLYLOOP((#1113,#1114,#1111));
#110=IFCPOLYLOOP((#1112,#1110,#1113));
#111=IFCPOLYLOOP((#1115,#1111,#1116));
#112=IFCPOLYLOOP((#1116,#1117,#1115));
#113=IFCPOLYLOOP((#1118,#1115,#1119));
#114=IFCPOLYLOOP((#1119,#1120,#1118));
#115=IFCPOLYLOOP((#1121,#1118,#1122));
#116=IFCPOLYLOOP((#1123,#1121,#1124));
#117=IFCPOLYLOOP((#1124,#1125,#1123));
#118=IFCPOLYLOOP((#1126,#1127,#1128));
#119=IFCPOLYLOOP((#1126,#1123,#1129));
#120=IFCPOLYLOOP((#1129,#1130,#1126));
#121=IFCPOLYLOOP((#1130,#1127,#1126));
#122=IFCPOLYLOOP((#1131,#1126,#1132));
#123=IFCPOLYLOOP((#1132,#1133,#1131));
#124=IFCPOLYLOOP((#1134,#1131,#1135));
#125=IFCPOLYLOOP((#1136,#1134,#1137));
#126=IFCPOLYLOOP((#1137,#1138,#1136));
#127=IFCPOLYLOOP((#1139,#1136,#1140));
#128=IFCPOLYLOOP((#1140,#1141,#1139));
#129=IFCPOLYLOOP((#1142,#1143,#1144));
#130=IFCPOLYLOOP((#1142,#1139,#1145));
#131=IFCPOLYLOOP((#1145,#1143,#1142));
#132=IFCPOLYLOOP((#1142,#1146,#1147));
#133=IFCPOLYLOOP((#1148,#1147,#1149));
#134=IFCPOLYLOOP((#1150,#1151,#1152));
#135=IFCPOLYLOOP((#1150,#1149,#1153));
#136=IFCPOLYLOOP((#1153,#1151,#1150));
#137=IFCPOLYLOOP((#1154,#1155,#1156));
#138=IFCPOLYLOOP((#1154,#1152,#1155));
#139=IFCPOLYLOOP((#1157,#1158,#1097));
#140=IFCPOLYLOOP((#1157,#1156,#1158));
#141=IFCPOLYLOOP((#1076,#1075,#1159));
#142=IFCPOLYLOOP((#1160,#1079,#1076));
#143=IFCPOLYLOOP((#1075,#1077,#1161));
#144=IFCPOLYLOOP((#1161,#1077,#1072));
#145=IFCPOLYLOOP((#1072,#1089,#1161));
#146=IFCPOLYLOOP((#1072,#1071,#1089));
#147=IFCPOLYLOOP((#1074,#1068,#1091));
#148=IFCPOLYLOOP((#1089,#1071,#1073));
#149=IFCPOLYLOOP((#1073,#1074,#1089));
#150=IFCPOLYLOOP((#1091,#1069,#1070));
#151=IFCPOLYLOOP((#1091,#1068,#1069));
#152=IFCPOLYLOOP((#1070,#1162,#1091));
#153=IFCPOLYLOOP((#1095,#1162,#1066));
#154=IFCPOLYLOOP((#1067,#1163,#1095));
#155=IFCPOLYLOOP((#1095,#1065,#1067));
#156=IFCPOLYLOOP((#1067,#1063,#1163));
#157=IFCPOLYLOOP((#1064,#1164,#1163));
#158=IFCPOLYLOOP((#1163,#1062,#1064));
#159=IFCPOLYLOOP((#1060,#1165,#1164));
#160=IFCPOLYLOOP((#1164,#1061,#1060));
#161=IFCPOLYLOOP((#1057,#1166,#1165));
#162=IFCPOLYLOOP((#1165,#1058,#1057));
#163=IFCPOLYLOOP((#1055,#1167,#1166));
#164=IFCPOLYLOOP((#1166,#1059,#1055));
#165=IFCPOLYLOOP((#1056,#1168,#1167));
#166=IFCPOLYLOOP((#1167,#1054,#1056));
#167=IFCPOLYLOOP((#1052,#1169,#1168));
#168=IFCPOLYLOOP((#1168,#1053,#1052));
#169=IFCPOLYLOOP((#1049,#1081,#1169));
#170=IFCPOLYLOOP((#1169,#1050,#1049));
#171=IFCPOLYLOOP((#1049,#1051,#1081));
#172=IFCPOLYLOOP((#1046,#1083,#1081));
#173=IFCPOLYLOOP((#1083,#1044,#1043));
#174=IFCPOLYLOOP((#1083,#1046,#1048));
#175=IFCPOLYLOOP((#1048,#1044,#1083));
#176=IFCPOLYLOOP((#1041,#1040,#1087));
#177=IFCPOLYLOOP((#1170,#1043,#1045));
#178=IFCPOLYLOOP((#1045,#1041,#1170));
#179=IFCPOLYLOOP((#1042,#1038,#1171));
#180=IFCPOLYLOOP((#1087,#1040,#1042));
#181=IFCPOLYLOOP((#1038,#1039,#1172));
#182=IFCPOLYLOOP((#1035,#1034,#1173));
#183=IFCPOLYLOOP((#1172,#1039,#1035));
#184=IFCPOLYLOOP((#1078,#1079,#1160));
#185=IFCPOLYLOOP((#1173,#1036,#1078));
#186=IFCPOLYLOOP((#1173,#1034,#1037));
#187=IFCPOLYLOOP((#1037,#1036,#1173));
#188=IFCPOLYLOOP((#1160,#1173,#1078));
#189=IFCPOLYLOOP((#1173,#1172,#1035));
#190=IFCPOLYLOOP((#1172,#1171,#1038));
#191=IFCPOLYLOOP((#1171,#1087,#1042));
#192=IFCPOLYLOOP((#1087,#1170,#1041));
#193=IFCPOLYLOOP((#1043,#1170,#1083));
#194=IFCPOLYLOOP((#1081,#1047,#1046));
#195=IFCPOLYLOOP((#1051,#1047,#1081));
#196=IFCPOLYLOOP((#1052,#1050,#1169));
#197=IFCPOLYLOOP((#1056,#1053,#1168));
#198=IFCPOLYLOOP((#1055,#1054,#1167));
#199=IFCPOLYLOOP((#1057,#1059,#1166));
#200=IFCPOLYLOOP((#1060,#1058,#1165));
#201=IFCPOLYLOOP((#1064,#1061,#1164));
#202=IFCPOLYLOOP((#1063,#1062,#1163));
#203=IFCPOLYLOOP((#1066,#1065,#1095));
#204=IFCPOLYLOOP((#1070,#1066,#1162));
#205=IFCPOLYLOOP((#1091,#1089,#1074));
#206=IFCPOLYLOOP((#1161,#1159,#1075));
#207=IFCPOLYLOOP((#1159,#1160,#1076));
#208=IFCPOLYLOOP((#1097,#1096,#1157));
#209=IFCPOLYLOOP((#1156,#1157,#1154));
#210=IFCPOLYLOOP((#1152,#1154,#1150));
#211=IFCPOLYLOOP((#1149,#1150,#1148));
#212=IFCPOLYLOOP((#1147,#1148,#1142));
#213=IFCPOLYLOOP((#1144,#1146,#1142));
#214=IFCPOLYLOOP((#1141,#1145,#1139));
#215=IFCPOLYLOOP((#1138,#1140,#1136));
#216=IFCPOLYLOOP((#1135,#1137,#1134));
#217=IFCPOLYLOOP((#1133,#1135,#1131));
#218=IFCPOLYLOOP((#1128,#1132,#1126));
#219=IFCPOLYLOOP((#1125,#1129,#1123));
#220=IFCPOLYLOOP((#1122,#1124,#1121));
#221=IFCPOLYLOOP((#1120,#1122,#1118));
#222=IFCPOLYLOOP((#1117,#1119,#1115));
#223=IFCPOLYLOOP((#1114,#1116,#1111));
#224=IFCPOLYLOOP((#1110,#1112,#1109));
#225=IFCPOLYLOOP((#1108,#1109,#1106));
#226=IFCPOLYLOOP((#1106,#1102,#1104));
#227=IFCPOLYLOOP((#1090,#1091,#1162,#1094));
#228=IFCPOLYLOOP((#1082,#1083,#1170,#1086));
#229=IFCPOLYLOOP((#1174,#1096,#1099,#1175));
#230=IFCPOLYLOOP((#1175,#1099,#1102,#1176));
#231=IFCPOLYLOOP((#1176,#1102,#1106,#1177));
#232=IFCPOLYLOOP((#1177,#1106,#1109,#1178));
#233=IFCPOLYLOOP((#1178,#1109,#1112,#1179));
#234=IFCPOLYLOOP((#1179,#1112,#1111,#1180));
#235=IFCPOLYLOOP((#1180,#1111,#1115,#1181));
#236=IFCPOLYLOOP((#1181,#1115,#1118,#1182));
#237=IFCPOLYLOOP((#1182,#1118,#1121,#1183));
#238=IFCPOLYLOOP((#1183,#1121,#1123,#1184));
#239=IFCPOLYLOOP((#1184,#1123,#1126,#1185));
#240=IFCPOLYLOOP((#1185,#1126,#1131,#1186));
#241=IFCPOLYLOOP((#1186,#1131,#1134,#1187));
#242=IFCPOLYLOOP((#1187,#1134,#1136,#1188));
#243=IFCPOLYLOOP((#1188,#1136,#1139,#1189));
#244=IFCPOLYLOOP((#1189,#1139,#1142,#1190));
#245=IFCPOLYLOOP((#1190,#1142,#1148,#1191));
#246=IFCPOLYLOOP((#1191,#1148,#1150,#1192));
#247=IFCPOLYLOOP((#1192,#1150,#1154,#1193));
#248=IFCPOLYLOOP((#1193,#1154,#1157,#1194));
#249=IFCPOLYLOOP((#1194,#1157,#1096,#1174));
#250=IFCPOLYLOOP((#1195,#1174,#1175,#1196));
#251=IFCPOLYLOOP((#1196,#1175,#1176,#1197));
#252=IFCPOLYLOOP((#1197,#1176,#1177,#1198));
#253=IFCPOLYLOOP((#1198,#1177,#1178,#1092));
#254=IFCPOLYLOOP((#1092,#1178,#1179,#1093));
#255=IFCPOLYLOOP((#1093,#1179,#1180,#1199));
#256=IFCPOLYLOOP((#1199,#1180,#1181,#1088));
#257=IFCPOLYLOOP((#1088,#1181,#1182,#1200));
#258=IFCPOLYLOOP((#1200,#1182,#1183,#1201));
#259=IFCPOLYLOOP((#1201,#1183,#1184,#1202));
#260=IFCPOLYLOOP((#1202,#1184,#1185,#1203));
#261=IFCPOLYLOOP((#1203,#1185,#1186,#1204));
#262=IFCPOLYLOOP((#1204,#1186,#1187,#1205));
#263=IFCPOLYLOOP((#1205,#1187,#1188,#1084));
#264=IFCPOLYLOOP((#1084,#1188,#1189,#1085));
#265=IFCPOLYLOOP((#1085,#1189,#1190,#1206));
#266=IFCPOLYLOOP((#1206,#1190,#1191,#1080));
#267=IFCPOLYLOOP((#1080,#1191,#1192,#1207));
#268=IFCPOLYLOOP((#1207,#1192,#1193,#1208));
#269=IFCPOLYLOOP((#1208,#1193,#1194,#1209));
#270=IFCPOLYLOOP((#1209,#1194,#1174,#1195));
#271=IFCPOLYLOOP((#1166,#1195,#1196,#1165));
#272=IFCPOLYLOOP((#1165,#1196,#1197,#1164));
#273=IFCPOLYLOOP((#1164,#1197,#1198,#1163));
#274=IFCPOLYLOOP((#1163,#1198,#1092,#1095));
#275=IFCPOLYLOOP((#1094,#1162,#1095));
#276=IFCPOLYLOOP((#1094,#1093,#1199,#1090));
#277=IFCPOLYLOOP((#1090,#1199,#1088));
#278=IFCPOLYLOOP((#1089,#1088,#1200,#1161));
#279=IFCPOLYLOOP((#1161,#1200,#1201,#1159));
#280=IFCPOLYLOOP((#1159,#1201,#1202,#1160));
#281=IFCPOLYLOOP((#1160,#1202,#1203,#1173));
#282=IFCPOLYLOOP((#1173,#1203,#1204,#1172));
#283=IFCPOLYLOOP((#1172,#1204,#1205,#1171));
#284=IFCPOLYLOOP((#1171,#1205,#1084,#1087));
#285=IFCPOLYLOOP((#1086,#1170,#1087));
#286=IFCPOLYLOOP((#1086,#1085,#1206,#1082));
#287=IFCPOLYLOOP((#1082,#1206,#1080));
#288=IFCPOLYLOOP((#1081,#1080,#1207,#1169));
#289=IFCPOLYLOOP((#1169,#1207,#1208,#1168));
#290=IFCPOLYLOOP((#1168,#1208,#1209,#1167));
#291=IFCPOLYLOOP((#1167,#1209,#1195,#1166));
#292=IFCPOLYLOOP((#1210,#1211,#1158));
#293=IFCPOLYLOOP((#1158,#1156,#1210));
#294=IFCPOLYLOOP((#1211,#1097,#1158));
#295=IFCPOLYLOOP((#1212,#1210,#1155));
#296=IFCPOLYLOOP((#1155,#1152,#1212));
#297=IFCPOLYLOOP((#1152,#1151,#1212));
#298=IFCPOLYLOOP((#1213,#1212,#1153));
#299=IFCPOLYLOOP((#1153,#1149,#1213));
#300=IFCPOLYLOOP((#1213,#1147,#1146));
#301=IFCPOLYLOOP((#1146,#1214,#1213));
#302=IFCPOLYLOOP((#1215,#1214,#1145));
#303=IFCPOLYLOOP((#1214,#1143,#1145));
#304=IFCPOLYLOOP((#1214,#1144,#1143));
#305=IFCPOLYLOOP((#1215,#1140,#1138));
#306=IFCPOLYLOOP((#1215,#1141,#1140));
#307=IFCPOLYLOOP((#1216,#1137,#1135));
#308=IFCPOLYLOOP((#1135,#1217,#1216));
#309=IFCPOLYLOOP((#1216,#1138,#1137));
#310=IFCPOLYLOOP((#1217,#1132,#1128));
#311=IFCPOLYLOOP((#1217,#1133,#1132));
#312=IFCPOLYLOOP((#1128,#1218,#1217));
#313=IFCPOLYLOOP((#1218,#1129,#1125));
#314=IFCPOLYLOOP((#1218,#1127,#1130));
#315=IFCPOLYLOOP((#1130,#1129,#1218));
#316=IFCPOLYLOOP((#1219,#1124,#1122));
#317=IFCPOLYLOOP((#1122,#1220,#1219));
#318=IFCPOLYLOOP((#1219,#1125,#1124));
#319=IFCPOLYLOOP((#1220,#1120,#1119));
#320=IFCPOLYLOOP((#1119,#1221,#1220));
#321=IFCPOLYLOOP((#1221,#1116,#1114));
#322=IFCPOLYLOOP((#1114,#1222,#1221));
#323=IFCPOLYLOOP((#1221,#1117,#1116));
#324=IFCPOLYLOOP((#1222,#1113,#1110));
#325=IFCPOLYLOOP((#1110,#1223,#1222));
#326=IFCPOLYLOOP((#1223,#1108,#1105));
#327=IFCPOLYLOOP((#1105,#1224,#1223));
#328=IFCPOLYLOOP((#1224,#1104,#1107));
#329=IFCPOLYLOOP((#1107,#1225,#1224));
#330=IFCPOLYLOOP((#1107,#1103,#1225));
#331=IFCPOLYLOOP((#1211,#1225,#1100));
#332=IFCPOLYLOOP((#1100,#1098,#1211));
#333=IFCPOLYLOOP((#1225,#1101,#1100));
#334=IFCPOLYLOOP((#1098,#1097,#1211));
#335=IFCPOLYLOOP((#1103,#1101,#1225));
#336=IFCPOLYLOOP((#1105,#1104,#1224));
#337=IFCPOLYLOOP((#1110,#1108,#1223));
#338=IFCPOLYLOOP((#1114,#1113,#1222));
#339=IFCPOLYLOOP((#1119,#1117,#1221));
#340=IFCPOLYLOOP((#1122,#1120,#1220));
#341=IFCPOLYLOOP((#1125,#1219,#1218));
#342=IFCPOLYLOOP((#1128,#1127,#1218));
#343=IFCPOLYLOOP((#1135,#1133,#1217));
#344=IFCPOLYLOOP((#1138,#1216,#1215));
#345=IFCPOLYLOOP((#1145,#1141,#1215));
#346=IFCPOLYLOOP((#1146,#1144,#1214));
#347=IFCPOLYLOOP((#1149,#1147,#1213));
#348=IFCPOLYLOOP((#1151,#1153,#1212));
#349=IFCPOLYLOOP((#1156,#1155,#1210));
#350=IFCPOLYLOOP((#1210,#1212,#1213,#1214,#1215,#1216,#1217,#1218,#1219,
#1220,#1221,#1222,#1223,#1224,#1225,#1211));
#351=IFCFACEOUTERBOUND(#26,.T.);
#352=IFCFACEOUTERBOUND(#27,.T.);
#353=IFCFACEOUTERBOUND(#28,.T.);
#354=IFCFACEOUTERBOUND(#29,.T.);
#355=IFCFACEOUTERBOUND(#30,.T.);
#356=IFCFACEOUTERBOUND(#31,.T.);
#357=IFCFACEOUTERBOUND(#32,.T.);
#358=IFCFACEOUTERBOUND(#33,.T.);
#359=IFCFACEOUTERBOUND(#34,.T.);
#360=IFCFACEOUTERBOUND(#35,.T.);
#361=IFCFACEOUTERBOUND(#36,.T.);
#362=IFCFACEOUTERBOUND(#37,.T.);
#363=IFCFACEOUTERBOUND(#38,.T.);
#364=IFCFACEOUTERBOUND(#39,.T.);
#365=IFCFACEOUTERBOUND(#40,.T.);
#366=IFCFACEOUTERBOUND(#41,.T.);
#367=IFCFACEOUTERBOUND(#42,.T.);
#368=IFCFACEOUTERBOUND(#43,.T.);
#369=IFCFACEOUTERBOUND(#44,.T.);
#370=IFCFACEOUTERBOUND(#45,.T.);
#371=IFCFACEOUTERBOUND(#46,.T.);
#372=IFCFACEOUTERBOUND(#47,.T.);
#373=IFCFACEOUTERBOUND(#48,.T.);
#374=IFCFACEOUTERBOUND(#49,.T.);
#375=IFCFACEOUTERBOUND(#50,.T.);
#376=IFCFACEOUTERBOUND(#51,.T.);
#377=IFCFACEOUTERBOUND(#52,.T.);
#378=IFCFACEOUTERBOUND(#53,.T.);
#379=IFCFACEOUTERBOUND(#54,.T.);
#380=IFCFACEOUTERBOUND(#55,.T.);
#381=IFCFACEOUTERBOUND(#56,.T.);
#382=IFCFACEOUTERBOUND(#57,.T.);
#383=IFCFACEOUTERBOUND(#58,.T.);
#384=IFCFACEOUTERBOUND(#59,.T.);
#385=IFCFACEOUTERBOUND(#60,.T.);
#386=IFCFACEOUTERBOUND(#61,.T.);
#387=IFCFACEOUTERBOUND(#62,.T.);
#388=IFCFACEOUTERBOUND(#63,.T.);
#389=IFCFACEOUTERBOUND(#64,.T.);
#390=IFCFACEOUTERBOUND(#65,.T.);
#391=IFCFACEOUTERBOUND(#66,.T.);
#392=IFCFACEOUTERBOUND(#67,.T.);
#393=IFCFACEOUTERBOUND(#68,.T.);
#394=IFCFACEOUTERBOUND(#69,.T.);
#395=IFCFACEOUTERBOUND(#70,.T.);
#396=IFCFACEOUTERBOUND(#71,.T.);
#397=IFCFACEOUTERBOUND(#72,.T.);
#398=IFCFACEOUTERBOUND(#73,.T.);
#399=IFCFACEOUTERBOUND(#74,.T.);
#400=IFCFACEOUTERBOUND(#75,.T.);
#401=IFCFACEOUTERBOUND(#76,.T.);
#402=IFCFACEOUTERBOUND(#77,.T.);
#403=IFCFACEOUTERBOUND(#78,.T.);
#404=IFCFACEOUTERBOUND(#79,.T.);
#405=IFCFACEOUTERBOUND(#80,.T.);
#406=IFCFACEOUTERBOUND(#81,.T.);
#407=IFCFACEOUTERBOUND(#82,.T.);
#408=IFCFACEOUTERBOUND(#83,.T.);
#409=IFCFACEOUTERBOUND(#84,.T.);
#410=IFCFACEOUTERBOUND(#85,.T.);
#411=IFCFACEOUTERBOUND(#86,.T.);
#412=IFCFACEOUTERBOUND(#87,.T.);
#413=IFCFACEOUTERBOUND(#88,.T.);
#414=IFCFACEOUTERBOUND(#89,.T.);
#415=IFCFACEOUTERBOUND(#90,.T.);
#416=IFCFACEOUTERBOUND(#91,.T.);
#417=IFCFACEOUTERBOUND(#92,.T.);
#418=IFCFACEOUTERBOUND(#93,.T.);
#419=IFCFACEOUTERBOUND(#94,.T.);
#420=IFCFACEOUTERBOUND(#95,.T.);
#421=IFCFACEOUTERBOUND(#96,.T.);
#422=IFCFACEOUTERBOUND(#97,.T.);
#423=IFCFACEOUTERBOUND(#98,.T.);
#424=IFCFACEOUTERBOUND(#99,.T.);
#425=IFCFACEOUTERBOUND(#100,.T.);
#426=IFCFACEOUTERBOUND(#101,.T.);
#427=IFCFACEOUTERBOUND(#102,.T.);
#428=IFCFACEOUTERBOUND(#103,.T.);
#429=IFCFACEOUTERBOUND(#104,.T.);
#430=IFCFACEOUTERBOUND(#105,.T.);
#431=IFCFACEOUTERBOUND(#106,.T.);
#432=IFCFACEOUTERBOUND(#107,.T.);
#433=IFCFACEOUTERBOUND(#108,.T.);
#434=IFCFACEOUTERBOUND(#109,.T.);
#435=IFCFACEOUTERBOUND(#110,.T.);
#436=IFCFACEOUTERBOUND(#111,.T.);
#437=IFCFACEOUTERBOUND(#112,.T.);
#438=IFCFACEOUTERBOUND(#113,.T.);
#439=IFCFACEOUTERBOUND(#114,.T.);
#440=IFCFACEOUTERBOUND(#115,.T.);
#441=IFCFACEOUTERBOUND(#116,.T.);
#442=IFCFACEOUTERBOUND(#117,.T.);
#443=IFCFACEOUTERBOUND(#118,.T.);
#444=IFCFACEOUTERBOUND(#119,.T.);
#445=IFCFACEOUTERBOUND(#120,.T.);
#446=IFCFACEOUTERBOUND(#121,.T.);
#447=IFCFACEOUTERBOUND(#122,.T.);
#448=IFCFACEOUTERBOUND(#123,.T.);
#449=IFCFACEOUTERBOUND(#124,.T.);
#450=IFCFACEOUTERBOUND(#125,.T.);
#451=IFCFACEOUTERBOUND(#126,.T.);
#452=IFCFACEOUTERBOUND(#127,.T.);
#453=IFCFACEOUTERBOUND(#128,.T.);
#454=IFCFACEOUTERBOUND(#129,.T.);
#455=IFCFACEOUTERBOUND(#130,.T.);
#456=IFCFACEOUTERBOUND(#131,.T.);
#457=IFCFACEOUTERBOUND(#132,.T.);
#458=IFCFACEOUTERBOUND(#133,.T.);
#459=IFCFACEOUTERBOUND(#134,.T.);
#460=IFCFACEOUTERBOUND(#135,.T.);
#461=IFCFACEOUTERBOUND(#136,.T.);
#462=IFCFACEOUTERBOUND(#137,.T.);
#463=IFCFACEOUTERBOUND(#138,.T.);
#464=IFCFACEOUTERBOUND(#139,.T.);
#465=IFCFACEOUTERBOUND(#140,.T.);
#466=IFCFACEOUTERBOUND(#141,.T.);
#467=IFCFACEOUTERBOUND(#142,.T.);
#468=IFCFACEOUTERBOUND(#143,.T.);
#469=IFCFACEOUTERBOUND(#144,.T.);
#470=IFCFACEOUTERBOUND(#145,.T.);
#471=IFCFACEOUTERBOUND(#146,.T.);
#472=IFCFACEOUTERBOUND(#147,.T.);
#473=IFCFACEOUTERBOUND(#148,.T.);
#474=IFCFACEOUTERBOUND(#149,.T.);
#475=IFCFACEOUTERBOUND(#150,.T.);
#476=IFCFACEOUTERBOUND(#151,.T.);
#477=IFCFACEOUTERBOUND(#152,.T.);
#478=IFCFACEOUTERBOUND(#153,.T.);
#479=IFCFACEOUTERBOUND(#154,.T.);
#480=IFCFACEOUTERBOUND(#155,.T.);
#481=IFCFACEOUTERBOUND(#156,.T.);
#482=IFCFACEOUTERBOUND(#157,.T.);
#483=IFCFACEOUTERBOUND(#158,.T.);
#484=IFCFACEOUTERBOUND(#159,.T.);
#485=IFCFACEOUTERBOUND(#160,.T.);
#486=IFCFACEOUTERBOUND(#161,.T.);
#487=IFCFACEOUTERBOUND(#162,.T.);
#488=IFCFACEOUTERBOUND(#163,.T.);
#489=IFCFACEOUTERBOUND(#164,.T.);
#490=IFCFACEOUTERBOUND(#165,.T.);
#491=IFCFACEOUTERBOUND(#166,.T.);
#492=IFCFACEOUTERBOUND(#167,.T.);
#493=IFCFACEOUTERBOUND(#168,.T.);
#494=IFCFACEOUTERBOUND(#169,.T.);
#495=IFCFACEOUTERBOUND(#170,.T.);
#496=IFCFACEOUTERBOUND(#171,.T.);
#497=IFCFACEOUTERBOUND(#172,.T.);
#498=IFCFACEOUTERBOUND(#173,.T.);
#499=IFCFACEOUTERBOUND(#174,.T.);
#500=IFCFACEOUTERBOUND(#175,.T.);
#501=IFCFACEOUTERBOUND(#176,.T.);
#502=IFCFACEOUTERBOUND(#177,.T.);
#503=IFCFACEOUTERBOUND(#178,.T.);
#504=IFCFACEOUTERBOUND(#179,.T.);
#505=IFCFACEOUTERBOUND(#180,.T.);
#506=IFCFACEOUTERBOUND(#181,.T.);
#507=IFCFACEOUTERBOUND(#182,.T.);
#508=IFCFACEOUTERBOUND(#183,.T.);
#509=IFCFACEOUTERBOUND(#184,.T.);
#510=IFCFACEOUTERBOUND(#185,.T.);
#511=IFCFACEOUTERBOUND(#186,.T.);
#512=IFCFACEOUTERBOUND(#187,.T.);
#513=IFCFACEOUTERBOUND(#188,.T.);
#514=IFCFACEOUTERBOUND(#189,.T.);
#515=IFCFACEOUTERBOUND(#190,.T.);
#516=IFCFACEOUTERBOUND(#191,.T.);
#517=IFCFACEOUTERBOUND(#192,.T.);
#518=IFCFACEOUTERBOUND(#193,.T.);
#519=IFCFACEOUTERBOUND(#194,.T.);
#520=IFCFACEOUTERBOUND(#195,.T.);
#521=IFCFACEOUTERBOUND(#196,.T.);
#522=IFCFACEOUTERBOUND(#197,.T.);
#523=IFCFACEOUTERBOUND(#198,.T.);
#524=IFCFACEOUTERBOUND(#199,.T.);
#525=IFCFACEOUTERBOUND(#200,.T.);
#526=IFCFACEOUTERBOUND(#201,.T.);
#527=IFCFACEOUTERBOUND(#202,.T.);
#528=IFCFACEOUTERBOUND(#203,.T.);
#529=IFCFACEOUTERBOUND(#204,.T.);
#530=IFCFACEOUTERBOUND(#205,.T.);
#531=IFCFACEOUTERBOUND(#206,.T.);
#532=IFCFACEOUTERBOUND(#207,.T.);
#533=IFCFACEOUTERBOUND(#208,.T.);
#534=IFCFACEOUTERBOUND(#209,.T.);
#535=IFCFACEOUTERBOUND(#210,.T.);
#536=IFCFACEOUTERBOUND(#211,.T.);
#537=IFCFACEOUTERBOUND(#212,.T.);
#538=IFCFACEOUTERBOUND(#213,.T.);
#539=IFCFACEOUTERBOUND(#214,.T.);
#540=IFCFACEOUTERBOUND(#215,.T.);
#541=IFCFACEOUTERBOUND(#216,.T.);
#542=IFCFACEOUTERBOUND(#217,.T.);
#543=IFCFACEOUTERBOUND(#218,.T.);
#544=IFCFACEOUTERBOUND(#219,.T.);
#545=IFCFACEOUTERBOUND(#220,.T.);
#546=IFCFACEOUTERBOUND(#221,.T.);
#547=IFCFACEOUTERBOUND(#222,.T.);
#548=IFCFACEOUTERBOUND(#223,.T.);
#549=IFCFACEOUTERBOUND(#224,.T.);
#550=IFCFACEOUTERBOUND(#225,.T.);
#551=IFCFACEOUTERBOUND(#226,.T.);
#552=IFCFACEOUTERBOUND(#227,.T.);
#553=IFCFACEOUTERBOUND(#228,.T.);
#554=IFCFACEOUTERBOUND(#229,.T.);
#555=IFCFACEOUTERBOUND(#230,.T.);
#556=IFCFACEOUTERBOUND(#231,.T.);
#557=IFCFACEOUTERBOUND(#232,.T.);
#558=IFCFACEOUTERBOUND(#233,.T.);
#559=IFCFACEOUTERBOUND(#234,.T.);
#560=IFCFACEOUTERBOUND(#235,.T.);
#561=IFCFACEOUTERBOUND(#236,.T.);
#562=IFCFACEOUTERBOUND(#237,.T.);
#563=IFCFACEOUTERBOUND(#238,.T.);
#564=IFCFACEOUTERBOUND(#239,.T.);
#565=IFCFACEOUTERBOUND(#240,.T.);
#566=IFCFACEOUTERBOUND(#241,.T.);
#567=IFCFACEOUTERBOUND(#242,.T.);
#568=IFCFACEOUTERBOUND(#243,.T.);
#569=IFCFACEOUTERBOUND(#244,.T.);
#570=IFCFACEOUTERBOUND(#245,.T.);
#571=IFCFACEOUTERBOUND(#246,.T.);
#572=IFCFACEOUTERBOUND(#247,.T.);
#573=IFCFACEOUTERBOUND(#248,.T.);
#574=IFCFACEOUTERBOUND(#249,.T.);
#575=IFCFACEOUTERBOUND(#250,.T.);
#576=IFCFACEOUTERBOUND(#251,.T.);
#577=IFCFACEOUTERBOUND(#252,.T.);
#578=IFCFACEOUTERBOUND(#253,.T.);
#579=IFCFACEOUTERBOUND(#254,.T.);
#580=IFCFACEOUTERBOUND(#255,.T.);
#581=IFCFACEOUTERBOUND(#256,.T.);
#582=IFCFACEOUTERBOUND(#257,.T.);
#583=IFCFACEOUTERBOUND(#258,.T.);
#584=IFCFACEOUTERBOUND(#259,.T.);
#585=IFCFACEOUTERBOUND(#260,.T.);
#586=IFCFACEOUTERBOUND(#261,.T.);
#587=IFCFACEOUTERBOUND(#262,.T.);
#588=IFCFACEOUTERBOUND(#263,.T.);
#589=IFCFACEOUTERBOUND(#264,.T.);
#590=IFCFACEOUTERBOUND(#265,.T.);
#591=IFCFACEOUTERBOUND(#266,.T.);
#592=IFCFACEOUTERBOUND(#267,.T.);
#593=IFCFACEOUTERBOUND(#268,.T.);
#594=IFCFACEOUTERBOUND(#269,.T.);
#595=IFCFACEOUTERBOUND(#270,.T.);
#596=IFCFACEOUTERBOUND(#271,.T.);
#597=IFCFACEOUTERBOUND(#272,.T.);
#598=IFCFACEOUTERBOUND(#273,.T.);
#599=IFCFACEOUTERBOUND(#274,.T.);
#600=IFCFACEOUTERBOUND(#275,.T.);
#601=IFCFACEOUTERBOUND(#276,.T.);
#602=IFCFACEOUTERBOUND(#277,.T.);
#603=IFCFACEOUTERBOUND(#278,.T.);
#604=IFCFACEOUTERBOUND(#279,.T.);
#605=IFCFACEOUTERBOUND(#280,.T.);
#606=IFCFACEOUTERBOUND(#281,.T.);
#607=IFCFACEOUTERBOUND(#282,.T.);
#608=IFCFACEOUTERBOUND(#283,.T.);
#609=IFCFACEOUTERBOUND(#284,.T.);
#610=IFCFACEOUTERBOUND(#285,.T.);
#611=IFCFACEOUTERBOUND(#286,.T.);
#612=IFCFACEOUTERBOUND(#287,.T.);
#613=IFCFACEOUTERBOUND(#288,.T.);
#614=IFCFACEOUTERBOUND(#289,.T.);
#615=IFCFACEOUTERBOUND(#290,.T.);
#616=IFCFACEOUTERBOUND(#291,.T.);
#617=IFCFACEOUTERBOUND(#292,.T.);
#618=IFCFACEOUTERBOUND(#293,.T.);
#619=IFCFACEOUTERBOUND(#294,.T.);
#620=IFCFACEOUTERBOUND(#295,.T.);
#621=IFCFACEOUTERBOUND(#296,.T.);
#622=IFCFACEOUTERBOUND(#297,.T.);
#623=IFCFACEOUTERBOUND(#298,.T.);
#624=IFCFACEOUTERBOUND(#299,.T.);
#625=IFCFACEOUTERBOUND(#300,.T.);
#626=IFCFACEOUTERBOUND(#301,.T.);
#627=IFCFACEOUTERBOUND(#302,.T.);
#628=IFCFACEOUTERBOUND(#303,.T.);
#629=IFCFACEOUTERBOUND(#304,.T.);
#630=IFCFACEOUTERBOUND(#305,.T.);
#631=IFCFACEOUTERBOUND(#306,.T.);
#632=IFCFACEOUTERBOUND(#307,.T.);
#633=IFCFACEOUTERBOUND(#308,.T.);
#634=IFCFACEOUTERBOUND(#309,.T.);
#635=IFCFACEOUTERBOUND(#310,.T.);
#636=IFCFACEOUTERBOUND(#311,.T.);
#637=IFCFACEOUTERBOUND(#312,.T.);
#638=IFCFACEOUTERBOUND(#313,.T.);
#639=IFCFACEOUTERBOUND(#314,.T.);
#640=IFCFACEOUTERBOUND(#315,.T.);
#641=IFCFACEOUTERBOUND(#316,.T.);
#642=IFCFACEOUTERBOUND(#317,.T.);
#643=IFCFACEOUTERBOUND(#318,.T.);
#644=IFCFACEOUTERBOUND(#319,.T.);
#645=IFCFACEOUTERBOUND(#320,.T.);
#646=IFCFACEOUTERBOUND(#321,.T.);
#647=IFCFACEOUTERBOUND(#322,.T.);
#648=IFCFACEOUTERBOUND(#323,.T.);
#649=IFCFACEOUTERBOUND(#324,.T.);
#650=IFCFACEOUTERBOUND(#325,.T.);
#651=IFCFACEOUTERBOUND(#326,.T.);
#652=IFCFACEOUTERBOUND(#327,.T.);
#653=IFCFACEOUTERBOUND(#328,.T.);
#654=IFCFACEOUTERBOUND(#329,.T.);
#655=IFCFACEOUTERBOUND(#330,.T.);
#656=IFCFACEOUTERBOUND(#331,.T.);
#657=IFCFACEOUTERBOUND(#332,.T.);
#658=IFCFACEOUTERBOUND(#333,.T.);
#659=IFCFACEOUTERBOUND(#334,.T.);
#660=IFCFACEOUTERBOUND(#335,.T.);
#661=IFCFACEOUTERBOUND(#336,.T.);
#662=IFCFACEOUTERBOUND(#337,.T.);
#663=IFCFACEOUTERBOUND(#338,.T.);
#664=IFCFACEOUTERBOUND(#339,.T.);
#665=IFCFACEOUTERBOUND(#340,.T.);
#666=IFCFACEOUTERBOUND(#341,.T.);
#667=IFCFACEOUTERBOUND(#342,.T.);
#668=IFCFACEOUTERBOUND(#343,.T.);
#669=IFCFACEOUTERBOUND(#344,.T.);
#670=IFCFACEOUTERBOUND(#345,.T.);
#671=IFCFACEOUTERBOUND(#346,.T.);
#672=IFCFACEOUTERBOUND(#347,.T.);
#673=IFCFACEOUTERBOUND(#348,.T.);
#674=IFCFACEOUTERBOUND(#349,.T.);
#675=IFCFACEOUTERBOUND(#350,.T.);
#676=IFCFACE((#351));
#677=IFCFACE((#352));
#678=IFCFACE((#353));
#679=IFCFACE((#354));
#680=IFCFACE((#355));
#681=IFCFACE((#356));
#682=IFCFACE((#357));
#683=IFCFACE((#358));
#684=IFCFACE((#359));
#685=IFCFACE((#360));
#686=IFCFACE((#361));
#687=IFCFACE((#362));
#688=IFCFACE((#363));
#689=IFCFACE((#364));
#690=IFCFACE((#365));
#691=IFCFACE((#366));
#692=IFCFACE((#367));
#693=IFCFACE((#368));
#694=IFCFACE((#369));
#695=IFCFACE((#370));
#696=IFCFACE((#371));
#697=IFCFACE((#372));
#698=IFCFACE((#373));
#699=IFCFACE((#374));
#700=IFCFACE((#375));
#701=IFCFACE((#376));
#702=IFCFACE((#377));
#703=IFCFACE((#378));
#704=IFCFACE((#379));
#705=IFCFACE((#380));
#706=IFCFACE((#381));
#707=IFCFACE((#382));
#708=IFCFACE((#383));
#709=IFCFACE((#384));
#710=IFCFACE((#385));
#711=IFCFACE((#386));
#712=IFCFACE((#387));
#713=IFCFACE((#388));
#714=IFCFACE((#389));
#715=IFCFACE((#390));
#716=IFCFACE((#391));
#717=IFCFACE((#392));
#718=IFCFACE((#393));
#719=IFCFACE((#394));
#720=IFCFACE((#395));
#721=IFCFACE((#396));
#722=IFCFACE((#397));
#723=IFCFACE((#398));
#724=IFCFACE((#399));
#725=IFCFACE((#400));
#726=IFCFACE((#401));
#727=IFCFACE((#402));
#728=IFCFACE((#403));
#729=IFCFACE((#404));
#730=IFCFACE((#405));
#731=IFCFACE((#406));
#732=IFCFACE((#407));
#733=IFCFACE((#408));
#734=IFCFACE((#409));
#735=IFCFACE((#410));
#736=IFCFACE((#411));
#737=IFCFACE((#412));
#738=IFCFACE((#413));
#739=IFCFACE((#414));
#740=IFCFACE((#415));
#741=IFCFACE((#416));
#742=IFCFACE((#417));
#743=IFCFACE((#418));
#744=IFCFACE((#419));
#745=IFCFACE((#420));
#746=IFCFACE((#421));
#747=IFCFACE((#422));
#748=IFCFACE((#423));
#749=IFCFACE((#424));
#750=IFCFACE((#425));
#751=IFCFACE((#426));
#752=IFCFACE((#427));
#753=IFCFACE((#428));
#754=IFCFACE((#429));
#755=IFCFACE((#430));
#756=IFCFACE((#431));
#757=IFCFACE((#432));
#758=IFCFACE((#433));
#759=IFCFACE((#434));
#760=IFCFACE((#435));
#761=IFCFACE((#436));
#762=IFCFACE((#437));
#763=IFCFACE((#438));
#764=IFCFACE((#439));
#765=IFCFACE((#440));
#766=IFCFACE((#441));
#767=IFCFACE((#442));
#768=IFCFACE((#443));
#769=IFCFACE((#444));
#770=IFCFACE((#445));
#771=IFCFACE((#446));
#772=IFCFACE((#447));
#773=IFCFACE((#448));
#774=IFCFACE((#449));
#775=IFCFACE((#450));
#776=IFCFACE((#451));
#777=IFCFACE((#452));
#778=IFCFACE((#453));
#779=IFCFACE((#454));
#780=IFCFACE((#455));
#781=IFCFACE((#456));
#782=IFCFACE((#457));
#783=IFCFACE((#458));
#784=IFCFACE((#459));
#785=IFCFACE((#460));
#786=IFCFACE((#461));
#787=IFCFACE((#462));
#788=IFCFACE((#463));
#789=IFCFACE((#464));
#790=IFCFACE((#465));
#791=IFCFACE((#466));
#792=IFCFACE((#467));
#793=IFCFACE((#468));
#794=IFCFACE((#469));
#795=IFCFACE((#470));
#796=IFCFACE((#471));
#797=IFCFACE((#472));
#798=IFCFACE((#473));
#799=IFCFACE((#474));
#800=IFCFACE((#475));
#801=IFCFACE((#476));
#802=IFCFACE((#477));
#803=IFCFACE((#478));
#804=IFCFACE((#479));
#805=IFCFACE((#480));
#806=IFCFACE((#481));
#807=IFCFACE((#482));
#808=IFCFACE((#483));
#809=IFCFACE((#484));
#810=IFCFACE((#485));
#811=IFCFACE((#486));
#812=IFCFACE((#487));
#813=IFCFACE((#488));
#814=IFCFACE((#489));
#815=IFCFACE((#490));
#816=IFCFACE((#491));
#817=IFCFACE((#492));
#818=IFCFACE((#493));
#819=IFCFACE((#494));
#820=IFCFACE((#495));
#821=IFCFACE((#496));
#822=IFCFACE((#497));
#823=IFCFACE((#498));
#824=IFCFACE((#499));
#825=IFCFACE((#500));
#826=IFCFACE((#501));
#827=IFCFACE((#502));
#828=IFCFACE((#503));
#829=IFCFACE((#504));
#830=IFCFACE((#505));
#831=IFCFACE((#506));
#832=IFCFACE((#507));
#833=IFCFACE((#508));
#834=IFCFACE((#509));
#835=IFCFACE((#510));
#836=IFCFACE((#511));
#837=IFCFACE((#512));
#838=IFCFACE((#513));
#839=IFCFACE((#514));
#840=IFCFACE((#515));
#841=IFCFACE((#516));
#842=IFCFACE((#517));
#843=IFCFACE((#518));
#844=IFCFACE((#519));
#845=IFCFACE((#520));
#846=IFCFACE((#521));
#847=IFCFACE((#522));
#848=IFCFACE((#523));
#849=IFCFACE((#524));
#850=IFCFACE((#525));
#851=IFCFACE((#526));
#852=IFCFACE((#527));
#853=IFCFACE((#528));
#854=IFCFACE((#529));
#855=IFCFACE((#530));
#856=IFCFACE((#531));
#857=IFCFACE((#532));
#858=IFCFACE((#533));
#859=IFCFACE((#534));
#860=IFCFACE((#535));
#861=IFCFACE((#536));
#862=IFCFACE((#537));
#863=IFCFACE((#538));
#864=IFCFACE((#539));
#865=IFCFACE((#540));
#866=IFCFACE((#541));
#867=IFCFACE((#542));
#868=IFCFACE((#543));
#869=IFCFACE((#544));
#870=IFCFACE((#545));
#871=IFCFACE((#546));
#872=IFCFACE((#547));
#873=IFCFACE((#548));
#874=IFCFACE((#549));
#875=IFCFACE((#550));
#876=IFCFACE((#551));
#877=IFCFACE((#552));
#878=IFCFACE((#553));
#879=IFCFACE((#554));
#880=IFCFACE((#555));
#881=IFCFACE((#556));
#882=IFCFACE((#557));
#883=IFCFACE((#558));
#884=IFCFACE((#559));
#885=IFCFACE((#560));
#886=IFCFACE((#561));
#887=IFCFACE((#562));
#888=IFCFACE((#563));
#889=IFCFACE((#564));
#890=IFCFACE((#565));
#891=IFCFACE((#566));
#892=IFCFACE((#567));
#893=IFCFACE((#568));
#894=IFCFACE((#569));
#895=IFCFACE((#570));
#896=IFCFACE((#571));
#897=IFCFACE((#572));
#898=IFCFACE((#573));
#899=IFCFACE((#574));
#900=IFCFACE((#575));
#901=IFCFACE((#576));
#902=IFCFACE((#577));
#903=IFCFACE((#578));
#904=IFCFACE((#579));
#905=IFCFACE((#580));
#906=IFCFACE((#581));
#907=IFCFACE((#582));
#908=IFCFACE((#583));
#909=IFCFACE((#584));
#910=IFCFACE((#585));
#911=IFCFACE((#586));
#912=IFCFACE((#587));
#913=IFCFACE((#588));
#914=IFCFACE((#589));
#915=IFCFACE((#590));
#916=IFCFACE((#591));
#917=IFCFACE((#592));
#918=IFCFACE((#593));
#919=IFCFACE((#594));
#920=IFCFACE((#595));
#921=IFCFACE((#596));
#922=IFCFACE((#597));
#923=IFCFACE((#598));
#924=IFCFACE((#599));
#925=IFCFACE((#600));
#926=IFCFACE((#601));
#927=IFCFACE((#602));
#928=IFCFACE((#603));
#929=IFCFACE((#604));
#930=IFCFACE((#605));
#931=IFCFACE((#606));
#932=IFCFACE((#607));
#933=IFCFACE((#608));
#934=IFCFACE((#609));
#935=IFCFACE((#610));
#936=IFCFACE((#611));
#937=IFCFACE((#612));
#938=IFCFACE((#613));
#939=IFCFACE((#614));
#940=IFCFACE((#615));
#941=IFCFACE((#616));
#942=IFCFACE((#617));
#943=IFCFACE((#618));
#944=IFCFACE((#619));
#945=IFCFACE((#620));
#946=IFCFACE((#621));
#947=IFCFACE((#622));
#948=IFCFACE((#623));
#949=IFCFACE((#624));
#950=IFCFACE((#625));
#951=IFCFACE((#626));
#952=IFCFACE((#627));
#953=IFCFACE((#628));
#954=IFCFACE((#629));
#955=IFCFACE((#630));
#956=IFCFACE((#631));
#957=IFCFACE((#632));
#958=IFCFACE((#633));
#959=IFCFACE((#634));
#960=IFCFACE((#635));
#961=IFCFACE((#636));
#962=IFCFACE((#637));
#963=IFCFACE((#638));
#964=IFCFACE((#639));
#965=IFCFACE((#640));
#966=IFCFACE((#641));
#967=IFCFACE((#642));
#968=IFCFACE((#643));
#969=IFCFACE((#644));
#970=IFCFACE((#645));
#971=IFCFACE((#646));
#972=IFCFACE((#647));
#973=IFCFACE((#648));
#974=IFCFACE((#649));
#975=IFCFACE((#650));
#976=IFCFACE((#651));
#977=IFCFACE((#652));
#978=IFCFACE((#653));
#979=IFCFACE((#654));
#980=IFCFACE((#655));
#981=IFCFACE((#656));
#982=IFCFACE((#657));
#983=IFCFACE((#658));
#984=IFCFACE((#659));
#985=IFCFACE((#660));
#986=IFCFACE((#661));
#987=IFCFACE((#662));
#988=IFCFACE((#663));
#989=IFCFACE((#664));
#990=IFCFACE((#665));
#991=IFCFACE((#666));
#992=IFCFACE((#667));
#993=IFCFACE((#668));
#994=IFCFACE((#669));
#995=IFCFACE((#670));
#996=IFCFACE((#671));
#997=IFCFACE((#672));
#998=IFCFACE((#673));
#999=IFCFACE((#674));
#1000=IFCFACE((#675));
#1001=IFCCLOSEDSHELL((#676,#677,#678,#679,#680,#681,#682,#683,#684,#685,
#686,#687,#688,#689,#690,#691,#692,#693,#694,#695,#696,#697,#698,#699,#700,
#701,#702,#703,#704,#705,#706,#707,#708,#709,#710,#711,#712,#713,#714,#715,
#716,#717,#718,#719,#720,#721,#722,#723,#724,#725,#726,#727,#728,#729,#730,
#731,#732,#733,#734,#735,#736,#737,#738,#739,#740,#741,#742,#743,#744,#745,
#746,#747,#748,#749,#750,#751,#752,#753,#754,#755,#756,#757,#758,#759,#760,
#761,#762,#763,#764,#765,#766,#767,#768,#769,#770,#771,#772,#773,#774,#775,
#776,#777,#778,#779,#780,#781,#782,#783,#784,#785,#786,#787,#788,#789,#790,
#791,#792,#793,#794,#795,#796,#797,#798,#799,#800,#801,#802,#803,#804,#805,
#806,#807,#808,#809,#810,#811,#812,#813,#814,#815,#816,#817,#818,#819,#820,
#821,#822,#823,#824,#825,#826,#827,#828,#829,#830,#831,#832,#833,#834,#835,
#836,#837,#838,#839,#840,#841,#842,#843,#844,#845,#846,#847,#848,#849,#850,
#851,#852,#853,#854,#855,#856,#857,#858,#859,#860,#861,#862,#863,#864,#865,
#866,#867,#868,#869,#870,#871,#872,#873,#874,#875,#876,#877,#878,#879,#880,
#881,#882,#883,#884,#885,#886,#887,#888,#889,#890,#891,#892,#893,#894,#895,
#896,#897,#898,#899,#900,#901,#902,#903,#904,#905,#906,#907,#908,#909,#910,
#911,#912,#913,#914,#915,#916,#917,#918,#919,#920,#921,#922,#923,#924,#925,
#926,#927,#928,#929,#930,#931,#932,#933,#934,#935,#936,#937,#938,#939,#940,
#941,#942,#943,#944,#945,#946,#947,#948,#949,#950,#951,#952,#953,#954,#955,
#956,#957,#958,#959,#960,#961,#962,#963,#964,#965,#966,#967,#968,#969,#970,
#971,#972,#973,#974,#975,#976,#977,#978,#979,#980,#981,#982,#983,#984,#985,
#986,#987,#988,#989,#990,#991,#992,#993,#994,#995,#996,#997,#998,#999,#1000));
#1002=IFCSTYLEDITEM(#1007,(#1003),'');
#1003=IFCPRESENTATIONSTYLEASSIGNMENT((#1004));
#1004=IFCSURFACESTYLE('',.BOTH.,(#1005));
#1005=IFCSURFACESTYLERENDERING(#1006,0.,$,$,$,$,$,$,.NOTDEFINED.);
#1006=IFCCOLOURRGB('',0.200000002980232,0.200000002980232,0.200000002980232);
#1007=IFCFACETEDBREP(#1001);
#1008=IFCPROJECT('07hUkdHgGydfWsFJH56q5B',#1233,'Black_4614226_AVV',' ',
' ',' ',' ',(#1228),#1009);
#1009=IFCUNITASSIGNMENT((#1229,#1230,#1231,#1232));
#1010=IFCGEOMETRICREPRESENTATIONSUBCONTEXT('Body','Model',*,*,*,*,#1228,
1.,.MODEL_VIEW.,$);
#1011=IFCAXIS2PLACEMENT3D(#1017,#1013,#1014);
#1012=IFCAXIS2PLACEMENT3D(#1227,#1015,#1016);
#1013=IFCDIRECTION((0.,0.,1.));
#1014=IFCDIRECTION((1.,0.,0.));
#1015=IFCDIRECTION((0.,0.,1.));
#1016=IFCDIRECTION((1.,0.,0.));
#1017=IFCCARTESIANPOINT((0.,0.,0.));
#1018=IFCCARTESIANPOINT((-0.860583672116562,-1.3673417081167,-0.832370241294187));
#1019=IFCCARTESIANPOINT((-1.28030727787223,-1.04651803615609,-1.06555002226956));
#1020=IFCCARTESIANPOINT((-1.56075762506864,-0.566371479900333,-1.221355770712));
#1021=IFCCARTESIANPOINT((-1.65923869063384,1.81247726273808E-16,-1.27606747380378));
#1022=IFCCARTESIANPOINT((-1.56075762506864,0.566371479900332,-1.221355770712));
#1023=IFCCARTESIANPOINT((-1.28030727787223,1.04651803615609,-1.06555002226956));
#1024=IFCCARTESIANPOINT((-0.860583672116563,1.3673417081167,-0.832370241294188));
#1025=IFCCARTESIANPOINT((-0.365485921973961,1.48,-0.557315935659414));
#1026=IFCCARTESIANPOINT((0.12961182816864,1.3673417081167,-0.28226163002464));
#1027=IFCCARTESIANPOINT((0.549335433924311,1.04651803615609,-0.0490818490492712));
#1028=IFCCARTESIANPOINT((0.829785781120713,0.566371479900333,0.106723899393171));
#1029=IFCCARTESIANPOINT((0.92826684668592,-3.62495452547617E-16,0.161435602484952));
#1030=IFCCARTESIANPOINT((0.829785781120713,-0.566371479900333,0.106723899393171));
#1031=IFCCARTESIANPOINT((0.549335433924311,-1.04651803615609,-0.0490818490492712));
#1032=IFCCARTESIANPOINT((0.12961182816864,-1.3673417081167,-0.28226163002464));
#1033=IFCCARTESIANPOINT((-0.365485921973961,-1.48,-0.557315935659414));
#1034=IFCCARTESIANPOINT((-3.64700540380501,1.47416924431068,5.61966747279951));
#1035=IFCCARTESIANPOINT((-3.25588635491182,1.36734396320609,5.81162388902451));
#1036=IFCCARTESIANPOINT((-3.76498644022454,1.48,5.56178499719175));
#1037=IFCCARTESIANPOINT((-3.74334427225151,1.47980417798694,5.57240209156842));
#1038=IFCCARTESIANPOINT((-2.84495678787609,1.0689606880322,6.0134189150344));
#1039=IFCCARTESIANPOINT((-3.21500957426019,1.34760754452668,5.83169193330429));
#1040=IFCCARTESIANPOINT((-2.6129833446528,0.74000978242514,6.12738586137028));
#1041=IFCCARTESIANPOINT((-2.57911620937754,0.670511723070665,6.14402764450412));
#1042=IFCCARTESIANPOINT((-2.82434922373527,1.04652229516523,6.02354176486583));
#1043=IFCCARTESIANPOINT((-2.46814430539603,0.329342325954408,6.19856299366137));
#1044=IFCCARTESIANPOINT((-2.44659072156967,0.196655946606103,6.20915612517604));
#1045=IFCCARTESIANPOINT((-2.53603730614201,0.566381301531333,6.16519707933592));
#1046=IFCCARTESIANPOINT((-2.46233549197251,-0.299616615846812,6.20141787183772));
#1047=IFCCARTESIANPOINT((-2.52673720525615,-0.540720529049174,6.16976741471097));
#1048=IFCCARTESIANPOINT((-2.43479791519441,-1.79311621746461E-6,6.21495217386741));
#1049=IFCCARTESIANPOINT((-2.62492518506082,-0.762563127715329,6.12151801407113));
#1050=IFCCARTESIANPOINT((-2.72496766691939,-0.922779301680292,6.0723641087699));
#1051=IFCCARTESIANPOINT((-2.53603977653249,-0.566387938232794,6.16519586532326));
#1052=IFCCARTESIANPOINT((-2.8243587609172,-1.04653290716823,6.02353707994226));
#1053=IFCCARTESIANPOINT((-2.91639668000169,-1.1397761633088,5.97832848578634));
#1054=IFCCARTESIANPOINT((-3.30385538423334,-1.38824840247465,5.78807547666732));
#1055=IFCCARTESIANPOINT((-3.74334427225125,-1.47980417798694,5.57240209156799));
#1056=IFCCARTESIANPOINT((-3.2558889883177,-1.36734517677363,5.81162259621832));
#1057=IFCCARTESIANPOINT((-3.78662867370951,-1.47980417811036,5.5511680363585));
#1058=IFCCARTESIANPOINT((-4.22615854418541,-1.38824505860184,5.3355497711677));
#1059=IFCCARTESIANPOINT((-3.76498644022453,-1.48,5.56178499719181));
#1060=IFCCARTESIANPOINT((-4.27412409156173,-1.36734513908829,5.3120195697963));
#1061=IFCCARTESIANPOINT((-4.61369807423832,-1.13976647426099,5.14543679542542));
#1062=IFCCARTESIANPOINT((-4.80517231440513,-0.92277923273833,5.05150655397701));
#1063=IFCCARTESIANPOINT((-4.9052611821666,-0.762539212287016,5.00240665162437));
#1064=IFCCARTESIANPOINT((-4.70575068962532,-1.0465331051603,5.10027914831169));
#1065=IFCCARTESIANPOINT((-5.00347194257076,-0.540720815521559,4.95422809247239));
#1066=IFCCARTESIANPOINT((-5.06790532300342,-0.299581527567776,4.92261946954357));
#1067=IFCCARTESIANPOINT((-4.9941658003132,-0.566388357857382,4.95879334049177));
#1068=IFCCARTESIANPOINT((-5.06208762974224,0.329342569437148,4.92547341359936));
#1069=IFCCARTESIANPOINT((-5.08364653400745,0.196683737053173,4.91489741669688));
#1070=IFCCARTESIANPOINT((-5.09544746446881,-1.84544111806182E-6,4.90910831910163));
#1071=IFCCARTESIANPOINT((-4.9171942721172,0.74000983368784,4.99655271933492));
#1072=IFCCARTESIANPOINT((-4.70576034849007,1.04652236087792,5.10027441002675));
#1073=IFCCARTESIANPOINT((-4.95107030020591,0.670518902016173,4.9799343946865));
#1074=IFCCARTESIANPOINT((-4.99416833030381,0.566381563603445,4.95879209937228));
#1075=IFCCARTESIANPOINT((-4.31500886431332,1.3476081810686,5.29196295261008));
#1076=IFCCARTESIANPOINT((-4.27412681796945,1.36734388285979,5.31201823231737));
#1077=IFCCARTESIANPOINT((-4.6851529571844,1.06895427313457,5.11038364107159));
#1078=IFCCARTESIANPOINT((-3.7866286737098,1.47980417811036,5.55116803635899));
#1079=IFCCARTESIANPOINT((-3.8829560133751,1.47417059257147,5.50391307295059));
#1080=IFCCARTESIANPOINT((-20.8408604483191,-0.540704715883724,28.3524919929521));
#1081=IFCCARTESIANPOINT((-9.89992327134492,-0.540704715883724,18.325605784373));
#1082=IFCCARTESIANPOINT((-14.940112687435,-0.110600538465981,23.8085354501654));
#1083=IFCCARTESIANPOINT((-9.82383955747205,-0.110600538465981,18.387640571235));
#1084=IFCCARTESIANPOINT((-20.8948064770491,0.739999999788514,28.273112343139));
#1085=IFCCARTESIANPOINT((-20.8042126791779,0.329330982136065,28.4064178731204));
#1086=IFCCARTESIANPOINT((-14.9623874086163,0.329330982136065,23.7842301853425));
#1087=IFCCARTESIANPOINT((-9.97430740078481,0.739999999788514,18.2649567521315));
#1088=IFCCARTESIANPOINT((-22.33566457279,0.739999999788512,26.1529412431931));
#1089=IFCCARTESIANPOINT((-11.9610518863596,0.739999999788512,16.6450664439639));
#1090=IFCCARTESIANPOINT((-16.9121413629536,0.329330982136064,21.6567384060256));
#1091=IFCCARTESIANPOINT((-12.0859682323065,0.329330982136064,16.5432160149831));
#1092=IFCCARTESIANPOINT((-22.38961060152,-0.540704715883724,26.07356159338));
#1093=IFCCARTESIANPOINT((-22.4447892296142,-0.110600538465999,25.992368217734));
#1094=IFCCARTESIANPOINT((-16.9344160841349,-0.110600538465999,21.6324331412027));
#1095=IFCCARTESIANPOINT((-12.0354360157995,-0.540704715883724,16.5844174117225));
#1096=IFCCARTESIANPOINT((-37.2059696267159,-1.48,34.2677479228774));
#1097=IFCCARTESIANPOINT((-49.9630689935522,-1.48,35.8583326375431));
#1098=IFCCARTESIANPOINT((-49.9619690185959,-1.47967064326127,35.8271160293612));
#1099=IFCCARTESIANPOINT((-37.3151451983896,-1.41424775251667,33.8453929089081));
#1100=IFCCARTESIANPOINT((-49.9448077656866,-1.38586306726928,35.3390060261491));
#1101=IFCCARTESIANPOINT((-49.9431606746594,-1.36734278588827,35.2920510779958));
#1102=IFCCARTESIANPOINT((-37.4146200413926,-1.22283338583981,33.4605659914754));
#1103=IFCCARTESIANPOINT((-49.9337967326757,-1.22283357401623,35.0247455671516));
#1104=IFCCARTESIANPOINT((-49.9263586335753,-1.04652326234547,34.8119762186458));
#1105=IFCCARTESIANPOINT((-49.918507750881,-0.757341828637307,34.5869722081194));
#1106=IFCCARTESIANPOINT((-37.4955553793814,-0.922764906535986,33.1474607309956));
#1107=IFCCARTESIANPOINT((-49.9297642233223,-1.13566598602636,34.9094428305075));
#1108=IFCCARTESIANPOINT((-49.9148100273248,-0.540710393976026,34.4808430878032));
#1109=IFCCARTESIANPOINT((-37.5507597524097,-0.540704715883724,32.9338979038533));
#1110=IFCCARTESIANPOINT((-49.9122734213514,-0.293719919491054,34.4079821291734));
#1111=IFCCARTESIANPOINT((-37.5670771537703,0.329330982136064,32.8707726444755));
#1112=IFCCARTESIANPOINT((-37.5753280096936,-0.110600538465999,32.8388535043663));
#1113=IFCCARTESIANPOINT((-49.9112491351798,-5.99543053441165E-7,34.3785474586402));
#1114=IFCCARTESIANPOINT((-49.9117350621131,0.202845998193143,34.39251238103));
#1115=IFCCARTESIANPOINT((-37.5267403093923,0.739999999788512,33.0268191685249));
#1116=IFCCARTESIANPOINT((-49.9125403042698,0.329335056666648,34.4156502241189));
#1117=IFCCARTESIANPOINT((-49.9151704681086,0.566375335751248,34.4911925237931));
#1118=IFCCARTESIANPOINT((-37.4579015821794,1.08491677011688,33.2931276581246));
#1119=IFCCARTESIANPOINT((-49.9169460478107,0.676450235380032,34.5421615022776));
#1120=IFCCARTESIANPOINT((-49.9263585165856,1.04651991228894,34.8119728690326));
#1121=IFCCARTESIANPOINT((-37.3666775951204,1.33343392439951,33.6460354353682));
#1122=IFCCARTESIANPOINT((-49.9273391681974,1.07386411218753,34.8400471600539));
#1123=IFCCARTESIANPOINT((-37.2611739997901,1.4634696228008,34.0541850955574));
#1124=IFCCARTESIANPOINT((-49.9417890722613,1.35047446787397,35.2529352820887));
#1125=IFCCARTESIANPOINT((-49.9431606377516,1.36734234991835,35.2920500256232));
#1126=IFCCARTESIANPOINT((-37.1507652536418,1.4634696228008,34.4813107501974));
#1127=IFCCARTESIANPOINT((-49.9630689935531,1.48,35.858332637543));
#1128=IFCCARTESIANPOINT((-49.9641691164346,1.47967064316647,35.8895492405118));
#1129=IFCCARTESIANPOINT((-49.9586909360618,1.47476966422809,35.7340364679732));
#1130=IFCCARTESIANPOINT((-49.9619690185956,1.47967064326127,35.8271160293612));
#1131=IFCCARTESIANPOINT((-37.0452616583114,1.33343392439951,34.8894604103866));
#1132=IFCCARTESIANPOINT((-49.9674495690798,1.47476924006974,35.9826336842974));
#1133=IFCCARTESIANPOINT((-49.9830257932777,1.36734237479705,36.424612007598));
#1134=IFCCARTESIANPOINT((-36.9540376712524,1.08491677011688,35.2423681876302));
#1135=IFCCARTESIANPOINT((-49.9844042810624,1.3504743992656,36.4637265100385));
#1136=IFCCARTESIANPOINT((-36.8851989440396,0.739999999788514,35.5086766772299));
#1137=IFCCARTESIANPOINT((-49.9989552172809,1.07386663791984,36.8766051742536));
#1138=IFCCARTESIANPOINT((-49.999944711345,1.04651988441359,36.9046815813947));
#1139=IFCCARTESIANPOINT((-36.8448620996615,0.329330982136065,35.6647232012793));
#1140=IFCCARTESIANPOINT((-50.0094535068032,0.676448035370467,37.1744877266933));
#1141=IFCCARTESIANPOINT((-50.0112497321939,0.566375237271116,37.2254542571327));
#1142=IFCCARTESIANPOINT((-36.8366112437382,-0.110600538465981,35.6966423413885));
#1143=IFCCARTESIANPOINT((-50.0147274946347,0.202836384247507,37.324132910209));
#1144=IFCCARTESIANPOINT((-50.0152196042307,-5.82523373071262E-7,37.3380960934812));
#1145=IFCCARTESIANPOINT((-50.0139120170682,0.329334957696589,37.3009944289377));
#1146=IFCCARTESIANPOINT((-50.0141821701439,-0.29373220200065,37.3086597940078));
#1147=IFCCARTESIANPOINT((-50.0116144703397,-0.540710278015565,37.2358034156125));
#1148=IFCCARTESIANPOINT((-36.8611795010221,-0.540704715883724,35.6015979419015));
#1149=IFCCARTESIANPOINT((-50.0078740602865,-0.757350179048045,37.1296720689164));
#1150=IFCCARTESIANPOINT((-36.9163838740504,-0.922764906535991,35.3880351147592));
#1151=IFCCARTESIANPOINT((-49.9965095153781,-1.13566936394119,36.8072094778342));
#1152=IFCCARTESIANPOINT((-49.9924461330621,-1.22283380779137,36.6919124761502));
#1153=IFCCARTESIANPOINT((-49.9999445946936,-1.04652319483726,36.904678271478));
#1154=IFCCARTESIANPOINT((-36.9973192120393,-1.22283338583981,35.0749298542795));
#1155=IFCCARTESIANPOINT((-49.983025757306,-1.36734279764822,36.4246109869036));
#1156=IFCCARTESIANPOINT((-49.9813708645299,-1.38586424223811,36.3776534378266));
#1157=IFCCARTESIANPOINT((-37.0967940550422,-1.41424775251662,34.6901029368468));
#1158=IFCCARTESIANPOINT((-49.9641691164347,-1.47967064316647,35.8895492405119));
#1159=IFCCARTESIANPOINT((-11.4653648861131,1.33343392439951,17.0492243884878));
#1160=IFCCARTESIANPOINT((-11.1386381969999,1.4634696228008,17.3156206971007));
#1161=IFCCARTESIANPOINT((-11.7478700572988,1.08491677011688,16.8188840542708));
#1162=IFCCARTESIANPOINT((-12.1115197296724,-0.110600538465999,16.5223826248604));
#1163=IFCCARTESIANPOINT((-11.8644774625141,-0.922764906535986,16.7238083125535));
#1164=IFCCARTESIANPOINT((-11.6138344874518,-1.2228333858398,16.9281698341592));
#1165=IFCCARTESIANPOINT((-11.3057778188362,-1.41424775251667,17.1793435585511));
#1166=IFCCARTESIANPOINT((-10.9676796435722,-1.48,17.4550115980477));
#1167=IFCCARTESIANPOINT((-10.6295814683082,-1.41424775251662,17.7306796375445));
#1168=IFCCARTESIANPOINT((-10.3215247996927,-1.22283338583981,17.9818533619362));
#1169=IFCCARTESIANPOINT((-10.0708818246304,-0.922764906535991,18.1862148835419));
#1170=IFCCARTESIANPOINT((-9.84939105483797,0.329330982136065,18.3668071811123));
#1171=IFCCARTESIANPOINT((-10.1874892298456,1.08491677011688,18.0911391418246));
#1172=IFCCARTESIANPOINT((-10.4699944010313,1.33343392439951,17.8607988076077));
#1173=IFCCARTESIANPOINT((-10.7967210901445,1.4634696228008,17.5944024989948));
#1174=IFCCARTESIANPOINT((-24.2827684105418,-1.48,28.905172847162));
#1175=IFCCARTESIANPOINT((-24.5046957229356,-1.41424775251667,28.5296049770605));
#1176=IFCCARTESIANPOINT((-24.706903819674,-1.2228333858398,28.1874079604329));
#1177=IFCCARTESIANPOINT((-24.871425623977,-0.922764906535986,27.9089875039292));
#1178=IFCCARTESIANPOINT((-24.9836426515659,-0.540704715883724,27.719082486894));
#1179=IFCCARTESIANPOINT((-25.0335839271246,-0.110600538465999,27.6345668034055));
#1180=IFCCARTESIANPOINT((-25.0168119491817,0.329330982136064,27.6629500427889));
#1181=IFCCARTESIANPOINT((-24.9348169815709,0.739999999788512,27.8017102296829));
#1182=IFCCARTESIANPOINT((-24.7948846369562,1.08491677011688,28.0385179126058));
#1183=IFCCARTESIANPOINT((-24.6094485182027,1.33343392439951,28.3523316897789));
#1184=IFCCARTESIANPOINT((-24.3949854382242,1.4634696228008,28.7152678299689));
#1185=IFCCARTESIANPOINT((-24.1705513828595,1.4634696228008,29.0950778643552));
#1186=IFCCARTESIANPOINT((-23.956088302881,1.33343392439951,29.4580140045452));
#1187=IFCCARTESIANPOINT((-23.7706521841275,1.08491677011688,29.7718277817183));
#1188=IFCCARTESIANPOINT((-23.6307198395127,0.739999999788514,30.0086354646412));
#1189=IFCCARTESIANPOINT((-23.5487248719019,0.329330982136065,30.1473956515352));
#1190=IFCCARTESIANPOINT((-23.5319528939591,-0.110600538465981,30.1757788909186));
#1191=IFCCARTESIANPOINT((-23.5818941695177,-0.540704715883724,30.0912632074301));
#1192=IFCCARTESIANPOINT((-23.6941111971067,-0.922764906535991,29.9013581903949));
#1193=IFCCARTESIANPOINT((-23.8586330014097,-1.22283338583981,29.6229377338912));
#1194=IFCCARTESIANPOINT((-24.060841098148,-1.41424775251662,29.2807407172638));
#1195=IFCCARTESIANPOINT((-21.6152355249195,-1.48,27.213026793166));
#1196=IFCCARTESIANPOINT((-21.8604364033019,-1.41424775251667,26.8522224797056));
#1197=IFCCARTESIANPOINT((-22.0838501075525,-1.2228333858398,26.5234772129204));
#1198=IFCCARTESIANPOINT((-22.2656253496036,-0.922764906535986,26.256001452454));
#1199=IFCCARTESIANPOINT((-22.4262583706612,0.329330982136064,26.0196357132116));
#1200=IFCCARTESIANPOINT((-22.1810574924647,1.08491677011688,26.3804400263985));
#1201=IFCCARTESIANPOINT((-21.9761746472135,1.33343392439951,26.6819177976379));
#1202=IFCCARTESIANPOINT((-21.7392207769391,1.4634696228008,27.0305869339402));
#1203=IFCCARTESIANPOINT((-21.4912502729,1.4634696228008,27.3954666523918));
#1204=IFCCARTESIANPOINT((-21.2542964026256,1.33343392439951,27.7441357886942));
#1205=IFCCARTESIANPOINT((-21.0494135573744,1.08491677011688,28.0456135599336));
#1206=IFCCARTESIANPOINT((-20.7856818202249,-0.110600538465981,28.433685368598));
#1207=IFCCARTESIANPOINT((-20.9648457002354,-0.922764906535991,28.1700521338781));
#1208=IFCCARTESIANPOINT((-21.1466209422866,-1.22283338583981,27.9025763734117));
#1209=IFCCARTESIANPOINT((-21.3700346465371,-1.41424775251662,27.5738311066266));
#1210=IFCCARTESIANPOINT((-57.9829883692907,-1.3673417081167,35.8991965568126));
#1211=IFCCARTESIANPOINT((-57.9458705085711,-1.48,35.3340426683361));
#1212=IFCCARTESIANPOINT((-58.0144553721899,-1.04651803615609,36.3783108889013));
#1213=IFCCARTESIANPOINT((-58.0354809513266,-0.566371479900333,36.6984448507239));
#1214=IFCCARTESIANPOINT((-58.0428641528744,-3.62495452547617E-16,36.8108609486146));
#1215=IFCCARTESIANPOINT((-58.0354809513266,0.566371479900333,36.6984448507239));
#1216=IFCCARTESIANPOINT((-58.0144553721899,1.04651803615609,36.3783108889013));
#1217=IFCCARTESIANPOINT((-57.9829883692907,1.3673417081167,35.8991965568126));
#1218=IFCCARTESIANPOINT((-57.9458705085711,1.48,35.3340426683361));
#1219=IFCCARTESIANPOINT((-57.9087526478515,1.36734170811671,34.7688887798596));
#1220=IFCCARTESIANPOINT((-57.8772856449522,1.04651803615609,34.2897744477709));
#1221=IFCCARTESIANPOINT((-57.8562600658156,0.566371479900334,33.9696404859482));
#1222=IFCCARTESIANPOINT((-57.8488768642678,1.81247726273808E-16,33.8572243880576));
#1223=IFCCARTESIANPOINT((-57.8562600658156,-0.566371479900335,33.9696404859482));
#1224=IFCCARTESIANPOINT((-57.8772856449522,-1.04651803615609,34.2897744477709));
#1225=IFCCARTESIANPOINT((-57.9087526478515,-1.36734170811671,34.7688887798596));
#1226=IFCCARTESIANPOINT((0.,0.,0.));
#1227=IFCCARTESIANPOINT((0.,0.,0.));
#1228=IFCGEOMETRICREPRESENTATIONCONTEXT($,'Model',3,0.005,#1011,$);
#1229=IFCSIUNIT(*,.LENGTHUNIT.,.MILLI.,.METRE.);
#1230=IFCSIUNIT(*,.AREAUNIT.,$,.SQUARE_METRE.);
#1231=IFCSIUNIT(*,.VOLUMEUNIT.,$,.CUBIC_METRE.);
#1232=IFCSIUNIT(*,.PLANEANGLEUNIT.,$,.RADIAN.);
#1233=IFCOWNERHISTORY(#1235,#1234,$,.NOCHANGE.,0,$,$,0);
#1234=IFCAPPLICATION(#1236,' ',' ',' ');
#1235=IFCPERSONANDORGANIZATION(#1237,#1236,$);
#1236=IFCORGANIZATION($,' ',$,$,$);
#1237=IFCPERSON(' ',' ',' ',$,$,$,$,$);
ENDSEC;
END-ISO-10303-21;
