ISO-10303-21;
HEADER;
/* Generated by software containing ST-Developer
 * from STEP Tools, Inc. (www.steptools.com) 
 */
/* OPTION: strings as raw bytes, not using required /X/ escapes */

FILE_DESCRIPTION(
/* description */ ('Unknown'),
/* implementation_level */ '2;1');

FILE_NAME(
/* name */ 'Black_4107767_JCA',
/* time_stamp */ '2025-07-21T23:43:57+02:00',
/* author */ ('Unknown'),
/* organization */ ('Unknown'),
/* preprocessor_version */ 'ST-DEVELOPER v19.4',
/* originating_system */ 'Unknown',
/* authorisation */ 'OpenTools');

FILE_SCHEMA (('IFC2X3'));
ENDSEC;

DATA;
#10=IFCPROPERTYSINGLEVALUE('ProjectName',$,IFCTEXT(''),$);
#11=IFCPROPERTYSINGLEVALUE('PartNumber',$,IFCTEXT(''),$);
#12=IFCRELDEFINESBYPROPERTIES('3cRq1JQpSwDOm5lsE5cG83',#2255,$,$,(#14),
#13);
#13=IFCPROPERTYSET('1jOd4kXgWorA4TVRi95rqH',#2255,
'empty property set name',$,(#10,#11));
#14=IFCBUILDINGELEMENTPROXY('2GP_XOK7Wq1Pa1NGQTVWHM',#2255,
'Black_4107767_JCA',' ','Black_4107767_JCA',#19,#15,' ',.ELEMENT.);
#15=IFCPRODUCTDEFINITIONSHAPE(' ',' ',(#25));
#16=IFCRELCONTAINEDINSPATIALSTRUCTURE('3HZhfx2I0vj9Cvp1GHER_f',#2255,
' ',' ',(#14),#20);
#17=IFCRELAGGREGATES('1jF0XzMGqvEA6wZwPLSawz',#2255,$,$,#1737,(#20));
#18=IFCLOCALPLACEMENT($,#1740);
#19=IFCLOCALPLACEMENT(#18,#1741);
#20=IFCBUILDING('3G2N19bOG__grq1LV0cQPU',#2255,'Default Building',$,$,#18,
$,$,.ELEMENT.,0.,0.,$);
#21=IFCCARTESIANTRANSFORMATIONOPERATOR3D($,$,#2248,1.,$);
#22=IFCMAPPEDITEM(#23,#21);
#23=IFCREPRESENTATIONMAP(#1740,#24);
#24=IFCSHAPEREPRESENTATION(#1739,'Body','Brep',(#1736));
#25=IFCSHAPEREPRESENTATION(#1739,'Body','MappedRepresentation',(#22));
#26=IFCPOLYLOOP((#1747,#1748,#1749,#1750));
#27=IFCPOLYLOOP((#1751,#1752,#1748,#1747));
#28=IFCPOLYLOOP((#1753,#1754,#1752,#1751));
#29=IFCPOLYLOOP((#1755,#1756,#1754,#1753));
#30=IFCPOLYLOOP((#1757,#1758,#1756,#1755));
#31=IFCPOLYLOOP((#1759,#1760,#1758,#1757));
#32=IFCPOLYLOOP((#1761,#1762,#1760,#1759));
#33=IFCPOLYLOOP((#1763,#1764,#1762,#1761));
#34=IFCPOLYLOOP((#1765,#1766,#1764,#1763));
#35=IFCPOLYLOOP((#1767,#1768,#1766,#1765));
#36=IFCPOLYLOOP((#1769,#1770,#1768,#1767));
#37=IFCPOLYLOOP((#1771,#1772,#1770,#1769));
#38=IFCPOLYLOOP((#1773,#1774,#1772,#1771));
#39=IFCPOLYLOOP((#1775,#1776,#1774,#1773));
#40=IFCPOLYLOOP((#1777,#1778,#1776,#1775));
#41=IFCPOLYLOOP((#1750,#1749,#1778,#1777));
#42=IFCPOLYLOOP((#1779,#1780,#1749,#1748));
#43=IFCPOLYLOOP((#1780,#1781,#1778,#1749));
#44=IFCPOLYLOOP((#1782,#1783,#1774,#1776));
#45=IFCPOLYLOOP((#1776,#1778,#1781,#1782));
#46=IFCPOLYLOOP((#1784,#1785,#1758,#1760));
#47=IFCPOLYLOOP((#1786,#1787,#1754,#1756));
#48=IFCPOLYLOOP((#1748,#1752,#1788,#1779));
#49=IFCPOLYLOOP((#1789,#1790,#1770,#1772));
#50=IFCPOLYLOOP((#1760,#1762,#1791,#1784));
#51=IFCPOLYLOOP((#1752,#1754,#1787,#1788));
#52=IFCPOLYLOOP((#1790,#1792,#1768,#1770));
#53=IFCPOLYLOOP((#1793,#1794,#1764,#1766));
#54=IFCPOLYLOOP((#1756,#1758,#1785,#1786));
#55=IFCPOLYLOOP((#1766,#1768,#1792,#1793));
#56=IFCPOLYLOOP((#1772,#1774,#1783,#1789));
#57=IFCPOLYLOOP((#1762,#1764,#1794,#1791));
#58=IFCPOLYLOOP((#1795,#1791,#1794,#1796));
#59=IFCPOLYLOOP((#1797,#1784,#1791,#1795));
#60=IFCPOLYLOOP((#1798,#1785,#1784,#1797));
#61=IFCPOLYLOOP((#1799,#1786,#1785,#1798));
#62=IFCPOLYLOOP((#1800,#1787,#1786,#1799));
#63=IFCPOLYLOOP((#1801,#1788,#1787,#1800));
#64=IFCPOLYLOOP((#1802,#1779,#1788,#1801));
#65=IFCPOLYLOOP((#1803,#1780,#1779,#1802));
#66=IFCPOLYLOOP((#1804,#1781,#1780,#1803));
#67=IFCPOLYLOOP((#1805,#1782,#1781,#1804));
#68=IFCPOLYLOOP((#1806,#1783,#1782,#1805));
#69=IFCPOLYLOOP((#1807,#1789,#1783,#1806));
#70=IFCPOLYLOOP((#1808,#1790,#1789,#1807));
#71=IFCPOLYLOOP((#1809,#1792,#1790,#1808));
#72=IFCPOLYLOOP((#1810,#1793,#1792,#1809));
#73=IFCPOLYLOOP((#1796,#1794,#1793,#1810));
#74=IFCPOLYLOOP((#1811,#1812,#1761,#1759));
#75=IFCPOLYLOOP((#1813,#1814,#1765,#1763));
#76=IFCPOLYLOOP((#1763,#1761,#1812,#1813));
#77=IFCPOLYLOOP((#1815,#1816,#1751,#1747));
#78=IFCPOLYLOOP((#1814,#1817,#1767,#1765));
#79=IFCPOLYLOOP((#1816,#1818,#1753,#1751));
#80=IFCPOLYLOOP((#1819,#1820,#1757,#1755));
#81=IFCPOLYLOOP((#1817,#1821,#1769,#1767));
#82=IFCPOLYLOOP((#1822,#1823,#1773,#1771));
#83=IFCPOLYLOOP((#1755,#1753,#1818,#1819));
#84=IFCPOLYLOOP((#1771,#1769,#1821,#1822));
#85=IFCPOLYLOOP((#1824,#1825,#1777,#1775));
#86=IFCPOLYLOOP((#1759,#1757,#1820,#1811));
#87=IFCPOLYLOOP((#1825,#1826,#1750,#1777));
#88=IFCPOLYLOOP((#1775,#1773,#1823,#1824));
#89=IFCPOLYLOOP((#1747,#1750,#1826,#1815));
#90=IFCPOLYLOOP((#1827,#1815,#1826,#1828));
#91=IFCPOLYLOOP((#1829,#1816,#1815,#1827));
#92=IFCPOLYLOOP((#1830,#1818,#1816,#1829));
#93=IFCPOLYLOOP((#1831,#1819,#1818,#1830));
#94=IFCPOLYLOOP((#1832,#1820,#1819,#1831));
#95=IFCPOLYLOOP((#1833,#1811,#1820,#1832));
#96=IFCPOLYLOOP((#1834,#1812,#1811,#1833));
#97=IFCPOLYLOOP((#1835,#1813,#1812,#1834));
#98=IFCPOLYLOOP((#1836,#1814,#1813,#1835));
#99=IFCPOLYLOOP((#1837,#1817,#1814,#1836));
#100=IFCPOLYLOOP((#1838,#1821,#1817,#1837));
#101=IFCPOLYLOOP((#1839,#1822,#1821,#1838));
#102=IFCPOLYLOOP((#1840,#1823,#1822,#1839));
#103=IFCPOLYLOOP((#1841,#1824,#1823,#1840));
#104=IFCPOLYLOOP((#1842,#1825,#1824,#1841));
#105=IFCPOLYLOOP((#1828,#1826,#1825,#1842));
#106=IFCPOLYLOOP((#1843,#1844,#1799,#1798));
#107=IFCPOLYLOOP((#1844,#1845,#1800,#1799));
#108=IFCPOLYLOOP((#1845,#1846,#1801,#1800));
#109=IFCPOLYLOOP((#1847,#1848,#1803,#1802));
#110=IFCPOLYLOOP((#1849,#1850,#1807,#1806));
#111=IFCPOLYLOOP((#1802,#1801,#1846,#1847));
#112=IFCPOLYLOOP((#1850,#1851,#1808,#1807));
#113=IFCPOLYLOOP((#1848,#1852,#1804,#1803));
#114=IFCPOLYLOOP((#1851,#1853,#1809,#1808));
#115=IFCPOLYLOOP((#1854,#1855,#1797,#1795));
#116=IFCPOLYLOOP((#1852,#1856,#1805,#1804));
#117=IFCPOLYLOOP((#1853,#1857,#1810,#1809));
#118=IFCPOLYLOOP((#1798,#1797,#1855,#1843));
#119=IFCPOLYLOOP((#1857,#1858,#1796,#1810));
#120=IFCPOLYLOOP((#1806,#1805,#1856,#1849));
#121=IFCPOLYLOOP((#1795,#1796,#1858,#1854));
#122=IFCPOLYLOOP((#1859,#1860,#1831,#1830));
#123=IFCPOLYLOOP((#1860,#1861,#1832,#1831));
#124=IFCPOLYLOOP((#1861,#1862,#1833,#1832));
#125=IFCPOLYLOOP((#1863,#1864,#1835,#1834));
#126=IFCPOLYLOOP((#1865,#1866,#1839,#1838));
#127=IFCPOLYLOOP((#1834,#1833,#1862,#1863));
#128=IFCPOLYLOOP((#1866,#1867,#1840,#1839));
#129=IFCPOLYLOOP((#1864,#1868,#1836,#1835));
#130=IFCPOLYLOOP((#1867,#1869,#1841,#1840));
#131=IFCPOLYLOOP((#1870,#1871,#1829,#1827));
#132=IFCPOLYLOOP((#1868,#1872,#1837,#1836));
#133=IFCPOLYLOOP((#1869,#1873,#1842,#1841));
#134=IFCPOLYLOOP((#1830,#1829,#1871,#1859));
#135=IFCPOLYLOOP((#1873,#1874,#1828,#1842));
#136=IFCPOLYLOOP((#1838,#1837,#1872,#1865));
#137=IFCPOLYLOOP((#1827,#1828,#1874,#1870));
#138=IFCPOLYLOOP((#1863,#1854,#1858,#1875));
#139=IFCPOLYLOOP((#1861,#1860,#1876));
#140=IFCPOLYLOOP((#1865,#1872,#1877));
#141=IFCPOLYLOOP((#1872,#1878,#1879));
#142=IFCPOLYLOOP((#1872,#1880,#1878));
#143=IFCPOLYLOOP((#1879,#1877,#1872));
#144=IFCPOLYLOOP((#1866,#1865,#1881));
#145=IFCPOLYLOOP((#1865,#1882,#1881));
#146=IFCPOLYLOOP((#1866,#1883,#1884));
#147=IFCPOLYLOOP((#1884,#1867,#1866));
#148=IFCPOLYLOOP((#1869,#1885,#1886));
#149=IFCPOLYLOOP((#1886,#1887,#1869));
#150=IFCPOLYLOOP((#1867,#1888,#1885));
#151=IFCPOLYLOOP((#1885,#1869,#1867));
#152=IFCPOLYLOOP((#1873,#1869,#1889));
#153=IFCPOLYLOOP((#1869,#1890,#1891));
#154=IFCPOLYLOOP((#1869,#1892,#1890));
#155=IFCPOLYLOOP((#1891,#1889,#1869));
#156=IFCPOLYLOOP((#1874,#1873,#1893));
#157=IFCPOLYLOOP((#1873,#1894,#1893));
#158=IFCPOLYLOOP((#1874,#1895,#1896));
#159=IFCPOLYLOOP((#1896,#1870,#1874));
#160=IFCPOLYLOOP((#1871,#1897,#1898));
#161=IFCPOLYLOOP((#1898,#1899,#1871));
#162=IFCPOLYLOOP((#1870,#1900,#1897));
#163=IFCPOLYLOOP((#1897,#1871,#1870));
#164=IFCPOLYLOOP((#1859,#1871,#1901));
#165=IFCPOLYLOOP((#1901,#1902,#1859));
#166=IFCPOLYLOOP((#1860,#1859,#1903));
#167=IFCPOLYLOOP((#1903,#1904,#1860));
#168=IFCPOLYLOOP((#1844,#1905,#1906));
#169=IFCPOLYLOOP((#1844,#1876,#1905));
#170=IFCPOLYLOOP((#1845,#1907,#1908));
#171=IFCPOLYLOOP((#1845,#1906,#1907));
#172=IFCPOLYLOOP((#1847,#1846,#1909));
#173=IFCPOLYLOOP((#1846,#1910,#1911));
#174=IFCPOLYLOOP((#1846,#1908,#1910));
#175=IFCPOLYLOOP((#1911,#1909,#1846));
#176=IFCPOLYLOOP((#1848,#1847,#1912));
#177=IFCPOLYLOOP((#1847,#1913,#1912));
#178=IFCPOLYLOOP((#1848,#1914,#1915));
#179=IFCPOLYLOOP((#1915,#1852,#1848));
#180=IFCPOLYLOOP((#1856,#1916,#1917));
#181=IFCPOLYLOOP((#1917,#1918,#1856));
#182=IFCPOLYLOOP((#1852,#1919,#1916));
#183=IFCPOLYLOOP((#1916,#1856,#1852));
#184=IFCPOLYLOOP((#1849,#1856,#1920));
#185=IFCPOLYLOOP((#1856,#1921,#1922));
#186=IFCPOLYLOOP((#1856,#1923,#1921));
#187=IFCPOLYLOOP((#1922,#1920,#1856));
#188=IFCPOLYLOOP((#1850,#1849,#1924));
#189=IFCPOLYLOOP((#1849,#1925,#1924));
#190=IFCPOLYLOOP((#1850,#1926,#1927));
#191=IFCPOLYLOOP((#1927,#1851,#1850));
#192=IFCPOLYLOOP((#1853,#1928,#1929));
#193=IFCPOLYLOOP((#1929,#1930,#1853));
#194=IFCPOLYLOOP((#1851,#1931,#1928));
#195=IFCPOLYLOOP((#1928,#1853,#1851));
#196=IFCPOLYLOOP((#1857,#1853,#1932));
#197=IFCPOLYLOOP((#1932,#1933,#1857));
#198=IFCPOLYLOOP((#1858,#1857,#1934));
#199=IFCPOLYLOOP((#1934,#1935,#1858));
#200=IFCPOLYLOOP((#1864,#1936,#1937));
#201=IFCPOLYLOOP((#1864,#1875,#1936));
#202=IFCPOLYLOOP((#1868,#1938,#1880));
#203=IFCPOLYLOOP((#1868,#1937,#1938));
#204=IFCPOLYLOOP((#1880,#1872,#1868));
#205=IFCPOLYLOOP((#1937,#1868,#1864));
#206=IFCPOLYLOOP((#1935,#1875,#1858));
#207=IFCPOLYLOOP((#1933,#1934,#1857));
#208=IFCPOLYLOOP((#1930,#1932,#1853));
#209=IFCPOLYLOOP((#1927,#1931,#1851));
#210=IFCPOLYLOOP((#1924,#1926,#1850));
#211=IFCPOLYLOOP((#1920,#1925,#1849));
#212=IFCPOLYLOOP((#1918,#1923,#1856));
#213=IFCPOLYLOOP((#1915,#1919,#1852));
#214=IFCPOLYLOOP((#1912,#1914,#1848));
#215=IFCPOLYLOOP((#1909,#1913,#1847));
#216=IFCPOLYLOOP((#1908,#1846,#1845));
#217=IFCPOLYLOOP((#1906,#1845,#1844));
#218=IFCPOLYLOOP((#1904,#1876,#1860));
#219=IFCPOLYLOOP((#1902,#1903,#1859));
#220=IFCPOLYLOOP((#1899,#1901,#1871));
#221=IFCPOLYLOOP((#1896,#1900,#1870));
#222=IFCPOLYLOOP((#1893,#1895,#1874));
#223=IFCPOLYLOOP((#1889,#1894,#1873));
#224=IFCPOLYLOOP((#1887,#1892,#1869));
#225=IFCPOLYLOOP((#1884,#1888,#1867));
#226=IFCPOLYLOOP((#1881,#1883,#1866));
#227=IFCPOLYLOOP((#1877,#1882,#1865));
#228=IFCPOLYLOOP((#1876,#1844,#1843,#1861));
#229=IFCPOLYLOOP((#1855,#1862,#1861,#1843));
#230=IFCPOLYLOOP((#1854,#1863,#1862,#1855));
#231=IFCPOLYLOOP((#1875,#1864,#1863));
#232=IFCPOLYLOOP((#1939,#1877,#1879,#1940));
#233=IFCPOLYLOOP((#1940,#1879,#1878,#1941));
#234=IFCPOLYLOOP((#1942,#1941,#1878,#1880));
#235=IFCPOLYLOOP((#1880,#1938,#1942));
#236=IFCPOLYLOOP((#1943,#1942,#1938));
#237=IFCPOLYLOOP((#1938,#1937,#1943));
#238=IFCPOLYLOOP((#1935,#1944,#1943,#1936));
#239=IFCPOLYLOOP((#1944,#1934,#1933));
#240=IFCPOLYLOOP((#1944,#1935,#1934));
#241=IFCPOLYLOOP((#1933,#1945,#1944));
#242=IFCPOLYLOOP((#1936,#1875,#1935));
#243=IFCPOLYLOOP((#1937,#1936,#1943));
#244=IFCPOLYLOOP((#1945,#1933,#1932));
#245=IFCPOLYLOOP((#1932,#1930,#1946,#1945));
#246=IFCPOLYLOOP((#1946,#1930,#1929,#1947));
#247=IFCPOLYLOOP((#1947,#1929,#1928,#1948));
#248=IFCPOLYLOOP((#1948,#1931,#1927));
#249=IFCPOLYLOOP((#1948,#1928,#1931));
#250=IFCPOLYLOOP((#1949,#1927,#1926));
#251=IFCPOLYLOOP((#1926,#1950,#1949));
#252=IFCPOLYLOOP((#1951,#1950,#1924));
#253=IFCPOLYLOOP((#1924,#1925,#1951));
#254=IFCPOLYLOOP((#1925,#1920,#1951));
#255=IFCPOLYLOOP((#1926,#1924,#1950));
#256=IFCPOLYLOOP((#1927,#1949,#1948));
#257=IFCPOLYLOOP((#1951,#1920,#1922,#1952));
#258=IFCPOLYLOOP((#1952,#1922,#1921,#1953));
#259=IFCPOLYLOOP((#1954,#1887,#1886,#1955));
#260=IFCPOLYLOOP((#1955,#1886,#1885,#1956));
#261=IFCPOLYLOOP((#1956,#1888,#1884));
#262=IFCPOLYLOOP((#1956,#1885,#1888));
#263=IFCPOLYLOOP((#1957,#1884,#1883));
#264=IFCPOLYLOOP((#1883,#1958,#1957));
#265=IFCPOLYLOOP((#1939,#1958,#1881));
#266=IFCPOLYLOOP((#1881,#1882,#1939));
#267=IFCPOLYLOOP((#1882,#1877,#1939));
#268=IFCPOLYLOOP((#1883,#1881,#1958));
#269=IFCPOLYLOOP((#1884,#1957,#1956));
#270=IFCPOLYLOOP((#1959,#1960,#1953,#1921,#1923));
#271=IFCPOLYLOOP((#1892,#1887,#1954,#1961,#1962));
#272=IFCPOLYLOOP((#1963,#1964,#1965));
#273=IFCPOLYLOOP((#1964,#1966,#1965));
#274=IFCPOLYLOOP((#1962,#1961,#1963,#1967));
#275=IFCPOLYLOOP((#1965,#1967,#1963));
#276=IFCPOLYLOOP((#1966,#1964,#1960,#1959));
#277=IFCPOLYLOOP((#1968,#1890,#1892,#1962,#1969));
#278=IFCPOLYLOOP((#1970,#1959,#1923,#1918,#1971));
#279=IFCPOLYLOOP((#1972,#1889,#1891,#1973));
#280=IFCPOLYLOOP((#1973,#1891,#1890,#1968));
#281=IFCPOLYLOOP((#1974,#1967,#1965));
#282=IFCPOLYLOOP((#1965,#1975,#1974));
#283=IFCPOLYLOOP((#1959,#1970,#1975,#1966));
#284=IFCPOLYLOOP((#1965,#1966,#1975));
#285=IFCPOLYLOOP((#1967,#1974,#1969,#1962));
#286=IFCPOLYLOOP((#1971,#1918,#1917,#1976));
#287=IFCPOLYLOOP((#1976,#1917,#1916,#1977));
#288=IFCPOLYLOOP((#1977,#1919,#1915));
#289=IFCPOLYLOOP((#1977,#1916,#1919));
#290=IFCPOLYLOOP((#1978,#1915,#1914));
#291=IFCPOLYLOOP((#1914,#1979,#1978));
#292=IFCPOLYLOOP((#1980,#1979,#1912));
#293=IFCPOLYLOOP((#1912,#1913,#1980));
#294=IFCPOLYLOOP((#1913,#1909,#1980));
#295=IFCPOLYLOOP((#1914,#1912,#1979));
#296=IFCPOLYLOOP((#1915,#1978,#1977));
#297=IFCPOLYLOOP((#1980,#1909,#1911,#1981));
#298=IFCPOLYLOOP((#1981,#1911,#1910,#1982));
#299=IFCPOLYLOOP((#1983,#1982,#1910,#1908));
#300=IFCPOLYLOOP((#1908,#1907,#1983));
#301=IFCPOLYLOOP((#1984,#1983,#1907));
#302=IFCPOLYLOOP((#1907,#1906,#1984));
#303=IFCPOLYLOOP((#1904,#1985,#1984,#1905));
#304=IFCPOLYLOOP((#1985,#1903,#1902));
#305=IFCPOLYLOOP((#1985,#1904,#1903));
#306=IFCPOLYLOOP((#1902,#1986,#1985));
#307=IFCPOLYLOOP((#1905,#1876,#1904));
#308=IFCPOLYLOOP((#1906,#1905,#1984));
#309=IFCPOLYLOOP((#1986,#1902,#1901));
#310=IFCPOLYLOOP((#1901,#1899,#1987,#1986));
#311=IFCPOLYLOOP((#1987,#1899,#1898,#1988));
#312=IFCPOLYLOOP((#1988,#1898,#1897,#1989));
#313=IFCPOLYLOOP((#1989,#1900,#1896));
#314=IFCPOLYLOOP((#1989,#1897,#1900));
#315=IFCPOLYLOOP((#1990,#1991,#1895));
#316=IFCPOLYLOOP((#1991,#1896,#1895));
#317=IFCPOLYLOOP((#1972,#1990,#1893));
#318=IFCPOLYLOOP((#1893,#1894,#1972));
#319=IFCPOLYLOOP((#1894,#1889,#1972));
#320=IFCPOLYLOOP((#1895,#1893,#1990));
#321=IFCPOLYLOOP((#1896,#1991,#1989));
#322=IFCPOLYLOOP((#1954,#1992,#1993));
#323=IFCPOLYLOOP((#1940,#1994,#1995));
#324=IFCPOLYLOOP((#1955,#1996,#1997));
#325=IFCPOLYLOOP((#1993,#1998,#1954));
#326=IFCPOLYLOOP((#1952,#1999,#2000,#2001,#2002,#2003,#2004,#2005));
#327=IFCPOLYLOOP((#1946,#2006,#2007));
#328=IFCPOLYLOOP((#1941,#2008,#2009));
#329=IFCPOLYLOOP((#1941,#2010,#2011));
#330=IFCPOLYLOOP((#1995,#2012,#1940));
#331=IFCPOLYLOOP((#1955,#2013,#1996));
#332=IFCPOLYLOOP((#1955,#2014,#2015));
#333=IFCPOLYLOOP((#1998,#2016,#1961,#1954));
#334=IFCPOLYLOOP((#1952,#2017,#1999));
#335=IFCPOLYLOOP((#2007,#2018,#1946));
#336=IFCPOLYLOOP((#2011,#2008,#1941));
#337=IFCPOLYLOOP((#2012,#2019,#1939,#1940));
#338=IFCPOLYLOOP((#2015,#2013,#1955));
#339=IFCPOLYLOOP((#1963,#1961,#2020,#2021));
#340=IFCPOLYLOOP((#2016,#2022,#1961));
#341=IFCPOLYLOOP((#2005,#2023,#1952));
#342=IFCPOLYLOOP((#2018,#2024,#1945,#1946));
#343=IFCPOLYLOOP((#1941,#2025,#2010));
#344=IFCPOLYLOOP((#1958,#1939,#2026,#2027));
#345=IFCPOLYLOOP((#2019,#2028,#1939));
#346=IFCPOLYLOOP((#1955,#2027,#2014));
#347=IFCPOLYLOOP((#2022,#2020,#1961));
#348=IFCPOLYLOOP((#1952,#2029,#2017));
#349=IFCPOLYLOOP((#1944,#1945,#2030,#2031));
#350=IFCPOLYLOOP((#2024,#2032,#1945));
#351=IFCPOLYLOOP((#1941,#2031,#2025));
#352=IFCPOLYLOOP((#2028,#2026,#1939));
#353=IFCPOLYLOOP((#2021,#1953,#1960,#1964,#1963));
#354=IFCPOLYLOOP((#1953,#2021,#2033));
#355=IFCPOLYLOOP((#2023,#2034,#1951,#1952));
#356=IFCPOLYLOOP((#1952,#2033,#2035));
#357=IFCPOLYLOOP((#1947,#2036,#2037));
#358=IFCPOLYLOOP((#1948,#2038,#2039));
#359=IFCPOLYLOOP((#2032,#2030,#1945));
#360=IFCPOLYLOOP((#2027,#1955,#1956,#1957,#1958));
#361=IFCPOLYLOOP((#2033,#1952,#1953));
#362=IFCPOLYLOOP((#2035,#2029,#1952));
#363=IFCPOLYLOOP((#2039,#2036,#1947,#1948));
#364=IFCPOLYLOOP((#2031,#1941,#1942,#1943,#1944));
#365=IFCPOLYLOOP((#1997,#2040,#2041,#2042,#2043,#1992,#1954,#1955));
#366=IFCPOLYLOOP((#2034,#2044,#1951));
#367=IFCPOLYLOOP((#1948,#2045,#2038));
#368=IFCPOLYLOOP((#2009,#2046,#2047,#2048,#2049,#1994,#1940,#1941));
#369=IFCPOLYLOOP((#2044,#2050,#1951));
#370=IFCPOLYLOOP((#1948,#1949,#1950,#2051,#2045));
#371=IFCPOLYLOOP((#2050,#2051,#1950,#1951));
#372=IFCPOLYLOOP((#1946,#1947,#2052,#2053,#2054,#2055,#2006));
#373=IFCPOLYLOOP((#2037,#2052,#1947));
#374=IFCPOLYLOOP((#1996,#2056,#2057,#1997));
#375=IFCPOLYLOOP((#2013,#2058,#2056,#1996));
#376=IFCPOLYLOOP((#2015,#2059,#2058,#2013));
#377=IFCPOLYLOOP((#2014,#2060,#2059,#2015));
#378=IFCPOLYLOOP((#2061,#2062,#2063,#2064,#2065,#2066,#2067,#2068,#2069,
#2070,#2071,#2072,#2073));
#379=IFCPOLYLOOP((#2074,#2075,#2076,#2077,#2078,#2079,#2080,#2081,#2082,
#2083,#2084,#2085,#2086));
#380=IFCPOLYLOOP((#2087,#2057,#2056,#2058,#2059,#2060,#2088,#2089,#2090,
#2091,#2092,#2093,#2094));
#381=IFCPOLYLOOP((#2095,#2096,#2097,#2098,#2099,#2100,#2101,#2102,#2103,
#2104,#2105,#2106,#2107));
#382=IFCPOLYLOOP((#2108,#2109,#2061));
#383=IFCPOLYLOOP((#2110,#2111,#2074));
#384=IFCPOLYLOOP((#2112,#2113,#2087));
#385=IFCPOLYLOOP((#2114,#2115,#2095));
#386=IFCPOLYLOOP((#2108,#2116,#2109));
#387=IFCPOLYLOOP((#2110,#2117,#2111));
#388=IFCPOLYLOOP((#2094,#2112,#2087));
#389=IFCPOLYLOOP((#2114,#2118,#2115));
#390=IFCPOLYLOOP((#2073,#2108,#2061));
#391=IFCPOLYLOOP((#2086,#2110,#2074));
#392=IFCPOLYLOOP((#2117,#2119,#2113));
#393=IFCPOLYLOOP((#2107,#2114,#2095));
#394=IFCPOLYLOOP((#2110,#2116,#2117));
#395=IFCPOLYLOOP((#2114,#2119,#2117,#2118));
#396=IFCPOLYLOOP((#2112,#2117,#2113));
#397=IFCPOLYLOOP((#2108,#2118,#2117,#2116));
#398=IFCPOLYLOOP((#2022,#2103,#2102,#2020));
#399=IFCPOLYLOOP((#2016,#2104,#2103,#2022));
#400=IFCPOLYLOOP((#1998,#2105,#2104,#2016));
#401=IFCPOLYLOOP((#1993,#2106,#2105,#1998));
#402=IFCPOLYLOOP((#2017,#2097,#2096,#1999));
#403=IFCPOLYLOOP((#2029,#2098,#2097,#2017));
#404=IFCPOLYLOOP((#2035,#2099,#2098,#2029));
#405=IFCPOLYLOOP((#2033,#2100,#2099,#2035));
#406=IFCPOLYLOOP((#2044,#2069,#2068,#2050));
#407=IFCPOLYLOOP((#2034,#2070,#2069,#2044));
#408=IFCPOLYLOOP((#2023,#2071,#2070,#2034));
#409=IFCPOLYLOOP((#2005,#2072,#2071,#2023));
#410=IFCPOLYLOOP((#2036,#2063,#2062,#2037));
#411=IFCPOLYLOOP((#2039,#2064,#2063,#2036));
#412=IFCPOLYLOOP((#2038,#2065,#2064,#2039));
#413=IFCPOLYLOOP((#2045,#2066,#2065,#2038));
#414=IFCPOLYLOOP((#2032,#2082,#2081,#2030));
#415=IFCPOLYLOOP((#2024,#2083,#2082,#2032));
#416=IFCPOLYLOOP((#2018,#2084,#2083,#2024));
#417=IFCPOLYLOOP((#2007,#2085,#2084,#2018));
#418=IFCPOLYLOOP((#2008,#2076,#2075,#2009));
#419=IFCPOLYLOOP((#2011,#2077,#2076,#2008));
#420=IFCPOLYLOOP((#2010,#2078,#2077,#2011));
#421=IFCPOLYLOOP((#2025,#2079,#2078,#2010));
#422=IFCPOLYLOOP((#2028,#2090,#2089,#2026));
#423=IFCPOLYLOOP((#2019,#2091,#2090,#2028));
#424=IFCPOLYLOOP((#2012,#2092,#2091,#2019));
#425=IFCPOLYLOOP((#1995,#2093,#2092,#2012));
#426=IFCPOLYLOOP((#2043,#2114,#2107,#1992));
#427=IFCPOLYLOOP((#2042,#2119,#2114,#2043));
#428=IFCPOLYLOOP((#2041,#2113,#2119,#2042));
#429=IFCPOLYLOOP((#2040,#2087,#2113,#2041));
#430=IFCPOLYLOOP((#2055,#2110,#2086,#2006));
#431=IFCPOLYLOOP((#2054,#2116,#2110,#2055));
#432=IFCPOLYLOOP((#2053,#2109,#2116,#2054));
#433=IFCPOLYLOOP((#2052,#2061,#2109,#2053));
#434=IFCPOLYLOOP((#2003,#2108,#2073,#2004));
#435=IFCPOLYLOOP((#2002,#2118,#2108,#2003));
#436=IFCPOLYLOOP((#2001,#2115,#2118,#2002));
#437=IFCPOLYLOOP((#2000,#2095,#2115,#2001));
#438=IFCPOLYLOOP((#2049,#2112,#2094,#1994));
#439=IFCPOLYLOOP((#2048,#2117,#2112,#2049));
#440=IFCPOLYLOOP((#2047,#2111,#2117,#2048));
#441=IFCPOLYLOOP((#2046,#2074,#2111,#2047));
#442=IFCPOLYLOOP((#1999,#2096,#2095,#2000));
#443=IFCPOLYLOOP((#2072,#2005,#2004,#2073));
#444=IFCPOLYLOOP((#2051,#2067,#2066,#2045));
#445=IFCPOLYLOOP((#2050,#2068,#2067,#2051));
#446=IFCPOLYLOOP((#2037,#2062,#2061,#2052));
#447=IFCPOLYLOOP((#2085,#2007,#2006,#2086));
#448=IFCPOLYLOOP((#2031,#2080,#2079,#2025));
#449=IFCPOLYLOOP((#2030,#2081,#2080,#2031));
#450=IFCPOLYLOOP((#2009,#2075,#2074,#2046));
#451=IFCPOLYLOOP((#2093,#1995,#1994,#2094));
#452=IFCPOLYLOOP((#2027,#2088,#2060,#2014));
#453=IFCPOLYLOOP((#2026,#2089,#2088,#2027));
#454=IFCPOLYLOOP((#1997,#2057,#2087,#2040));
#455=IFCPOLYLOOP((#2106,#1993,#1992,#2107));
#456=IFCPOLYLOOP((#2021,#2101,#2100,#2033));
#457=IFCPOLYLOOP((#2020,#2102,#2101,#2021));
#458=IFCPOLYLOOP((#1968,#2120,#2121));
#459=IFCPOLYLOOP((#1968,#2122,#2123));
#460=IFCPOLYLOOP((#1973,#2124,#2125));
#461=IFCPOLYLOOP((#1988,#2126,#2127));
#462=IFCPOLYLOOP((#1986,#1987,#2128,#2129));
#463=IFCPOLYLOOP((#2123,#2120,#1968));
#464=IFCPOLYLOOP((#1972,#2130,#2131));
#465=IFCPOLYLOOP((#2125,#2132,#1973));
#466=IFCPOLYLOOP((#1988,#2133,#2126));
#467=IFCPOLYLOOP((#1988,#2134,#2135));
#468=IFCPOLYLOOP((#2129,#2136,#1986));
#469=IFCPOLYLOOP((#1987,#2137,#2138));
#470=IFCPOLYLOOP((#1981,#2139,#2140,#2141,#2142,#2143,#2144));
#471=IFCPOLYLOOP((#1976,#2145,#2146));
#472=IFCPOLYLOOP((#1970,#1971,#2147,#2148));
#473=IFCPOLYLOOP((#1968,#2149,#2122));
#474=IFCPOLYLOOP((#1990,#1972,#2150,#2151));
#475=IFCPOLYLOOP((#2132,#2130,#1972,#1973));
#476=IFCPOLYLOOP((#2135,#2133,#1988));
#477=IFCPOLYLOOP((#2138,#2128,#1987));
#478=IFCPOLYLOOP((#1983,#2152,#2153));
#479=IFCPOLYLOOP((#1980,#2154,#2155));
#480=IFCPOLYLOOP((#2144,#2156,#1981));
#481=IFCPOLYLOOP((#1976,#2157,#2145));
#482=IFCPOLYLOOP((#1976,#2158,#2159));
#483=IFCPOLYLOOP((#2148,#2160,#1970));
#484=IFCPOLYLOOP((#1971,#2161,#2162,#2163,#2164,#2165));
#485=IFCPOLYLOOP((#1968,#2166,#2149));
#486=IFCPOLYLOOP((#2131,#2150,#1972));
#487=IFCPOLYLOOP((#1988,#2151,#2134));
#488=IFCPOLYLOOP((#2136,#2167,#1986));
#489=IFCPOLYLOOP((#1982,#2168,#2169));
#490=IFCPOLYLOOP((#1983,#2170,#2152));
#491=IFCPOLYLOOP((#1979,#1980,#2171,#2172));
#492=IFCPOLYLOOP((#2156,#2154,#1980,#1981));
#493=IFCPOLYLOOP((#2159,#2157,#1976));
#494=IFCPOLYLOOP((#1975,#1970,#2173,#2166));
#495=IFCPOLYLOOP((#2165,#2147,#1971));
#496=IFCPOLYLOOP((#2151,#1988,#1989,#1991,#1990));
#497=IFCPOLYLOOP((#2167,#2174,#1984,#1985,#1986));
#498=IFCPOLYLOOP((#2153,#2168,#1982,#1983));
#499=IFCPOLYLOOP((#2155,#2171,#1980));
#500=IFCPOLYLOOP((#1976,#2172,#2158));
#501=IFCPOLYLOOP((#2160,#2173,#1970));
#502=IFCPOLYLOOP((#2127,#2175,#2176,#2177,#2178,#2137,#1987,#1988));
#503=IFCPOLYLOOP((#1983,#1984,#2174,#2170));
#504=IFCPOLYLOOP((#2146,#2179,#2161,#1971,#1976));
#505=IFCPOLYLOOP((#2121,#2180,#2181,#2182,#2183,#2124,#1973,#1968));
#506=IFCPOLYLOOP((#2139,#1981,#1982));
#507=IFCPOLYLOOP((#2166,#1968,#1969,#1974,#1975));
#508=IFCPOLYLOOP((#2172,#1976,#1977,#1978,#1979));
#509=IFCPOLYLOOP((#2169,#2139,#1982));
#510=IFCPOLYLOOP((#2126,#2184,#2185,#2127));
#511=IFCPOLYLOOP((#2133,#2186,#2184,#2126));
#512=IFCPOLYLOOP((#2135,#2187,#2186,#2133));
#513=IFCPOLYLOOP((#2134,#2188,#2187,#2135));
#514=IFCPOLYLOOP((#2189,#2185,#2184,#2186,#2187,#2188,#2190,#2191,#2192,
#2193,#2194,#2195,#2196));
#515=IFCPOLYLOOP((#2197,#2198,#2189));
#516=IFCPOLYLOOP((#2199,#2200,#2201,#2202,#2203,#2204,#2205,#2206,#2207,
#2208,#2209,#2210,#2211));
#517=IFCPOLYLOOP((#2212,#2213,#2214,#2215,#2216,#2217,#2218,#2219,#2220,
#2221,#2222,#2223,#2224));
#518=IFCPOLYLOOP((#2197,#2225,#2198));
#519=IFCPOLYLOOP((#2226,#2227,#2228,#2229,#2230,#2231,#2232,#2233,#2234,
#2235,#2236,#2237,#2238));
#520=IFCPOLYLOOP((#2239,#2240,#2199));
#521=IFCPOLYLOOP((#2241,#2242,#2212));
#522=IFCPOLYLOOP((#2196,#2197,#2189));
#523=IFCPOLYLOOP((#2243,#2244,#2226));
#524=IFCPOLYLOOP((#2211,#2239,#2199));
#525=IFCPOLYLOOP((#2241,#2245,#2242));
#526=IFCPOLYLOOP((#2245,#2246,#2243,#2225));
#527=IFCPOLYLOOP((#2243,#2246,#2244));
#528=IFCPOLYLOOP((#2246,#2245,#2247,#2240));
#529=IFCPOLYLOOP((#2224,#2241,#2212));
#530=IFCPOLYLOOP((#2238,#2243,#2226));
#531=IFCPOLYLOOP((#2241,#2247,#2245));
#532=IFCPOLYLOOP((#2239,#2246,#2240));
#533=IFCPOLYLOOP((#2197,#2245,#2225));
#534=IFCPOLYLOOP((#2136,#2234,#2233,#2167));
#535=IFCPOLYLOOP((#2129,#2235,#2234,#2136));
#536=IFCPOLYLOOP((#2128,#2236,#2235,#2129));
#537=IFCPOLYLOOP((#2138,#2237,#2236,#2128));
#538=IFCPOLYLOOP((#2168,#2228,#2227,#2169));
#539=IFCPOLYLOOP((#2153,#2229,#2228,#2168));
#540=IFCPOLYLOOP((#2152,#2230,#2229,#2153));
#541=IFCPOLYLOOP((#2170,#2231,#2230,#2152));
#542=IFCPOLYLOOP((#2155,#2207,#2206,#2171));
#543=IFCPOLYLOOP((#2154,#2208,#2207,#2155));
#544=IFCPOLYLOOP((#2156,#2209,#2208,#2154));
#545=IFCPOLYLOOP((#2144,#2210,#2209,#2156));
#546=IFCPOLYLOOP((#2145,#2201,#2200,#2146));
#547=IFCPOLYLOOP((#2157,#2202,#2201,#2145));
#548=IFCPOLYLOOP((#2159,#2203,#2202,#2157));
#549=IFCPOLYLOOP((#2158,#2204,#2203,#2159));
#550=IFCPOLYLOOP((#2160,#2220,#2219,#2173));
#551=IFCPOLYLOOP((#2148,#2221,#2220,#2160));
#552=IFCPOLYLOOP((#2147,#2222,#2221,#2148));
#553=IFCPOLYLOOP((#2165,#2223,#2222,#2147));
#554=IFCPOLYLOOP((#2120,#2214,#2213,#2121));
#555=IFCPOLYLOOP((#2123,#2215,#2214,#2120));
#556=IFCPOLYLOOP((#2122,#2216,#2215,#2123));
#557=IFCPOLYLOOP((#2149,#2217,#2216,#2122));
#558=IFCPOLYLOOP((#2131,#2192,#2191,#2150));
#559=IFCPOLYLOOP((#2130,#2193,#2192,#2131));
#560=IFCPOLYLOOP((#2132,#2194,#2193,#2130));
#561=IFCPOLYLOOP((#2125,#2195,#2194,#2132));
#562=IFCPOLYLOOP((#2178,#2243,#2238,#2137));
#563=IFCPOLYLOOP((#2177,#2225,#2243,#2178));
#564=IFCPOLYLOOP((#2176,#2198,#2225,#2177));
#565=IFCPOLYLOOP((#2175,#2189,#2198,#2176));
#566=IFCPOLYLOOP((#2163,#2241,#2224,#2164));
#567=IFCPOLYLOOP((#2162,#2247,#2241,#2163));
#568=IFCPOLYLOOP((#2161,#2240,#2247,#2162));
#569=IFCPOLYLOOP((#2179,#2199,#2240,#2161));
#570=IFCPOLYLOOP((#2142,#2239,#2211,#2143));
#571=IFCPOLYLOOP((#2141,#2246,#2239,#2142));
#572=IFCPOLYLOOP((#2140,#2244,#2246,#2141));
#573=IFCPOLYLOOP((#2139,#2226,#2244,#2140));
#574=IFCPOLYLOOP((#2183,#2197,#2196,#2124));
#575=IFCPOLYLOOP((#2182,#2245,#2197,#2183));
#576=IFCPOLYLOOP((#2181,#2242,#2245,#2182));
#577=IFCPOLYLOOP((#2180,#2212,#2242,#2181));
#578=IFCPOLYLOOP((#2169,#2227,#2226,#2139));
#579=IFCPOLYLOOP((#2210,#2144,#2143,#2211));
#580=IFCPOLYLOOP((#2172,#2205,#2204,#2158));
#581=IFCPOLYLOOP((#2171,#2206,#2205,#2172));
#582=IFCPOLYLOOP((#2146,#2200,#2199,#2179));
#583=IFCPOLYLOOP((#2223,#2165,#2164,#2224));
#584=IFCPOLYLOOP((#2166,#2218,#2217,#2149));
#585=IFCPOLYLOOP((#2173,#2219,#2218,#2166));
#586=IFCPOLYLOOP((#2121,#2213,#2212,#2180));
#587=IFCPOLYLOOP((#2195,#2125,#2124,#2196));
#588=IFCPOLYLOOP((#2151,#2190,#2188,#2134));
#589=IFCPOLYLOOP((#2150,#2191,#2190,#2151));
#590=IFCPOLYLOOP((#2127,#2185,#2189,#2175));
#591=IFCPOLYLOOP((#2237,#2138,#2137,#2238));
#592=IFCPOLYLOOP((#2174,#2232,#2231,#2170));
#593=IFCPOLYLOOP((#2167,#2233,#2232,#2174));
#594=IFCFACEOUTERBOUND(#26,.T.);
#595=IFCFACEOUTERBOUND(#27,.T.);
#596=IFCFACEOUTERBOUND(#28,.T.);
#597=IFCFACEOUTERBOUND(#29,.T.);
#598=IFCFACEOUTERBOUND(#30,.T.);
#599=IFCFACEOUTERBOUND(#31,.T.);
#600=IFCFACEOUTERBOUND(#32,.T.);
#601=IFCFACEOUTERBOUND(#33,.T.);
#602=IFCFACEOUTERBOUND(#34,.T.);
#603=IFCFACEOUTERBOUND(#35,.T.);
#604=IFCFACEOUTERBOUND(#36,.T.);
#605=IFCFACEOUTERBOUND(#37,.T.);
#606=IFCFACEOUTERBOUND(#38,.T.);
#607=IFCFACEOUTERBOUND(#39,.T.);
#608=IFCFACEOUTERBOUND(#40,.T.);
#609=IFCFACEOUTERBOUND(#41,.T.);
#610=IFCFACEOUTERBOUND(#42,.T.);
#611=IFCFACEOUTERBOUND(#43,.T.);
#612=IFCFACEOUTERBOUND(#44,.T.);
#613=IFCFACEOUTERBOUND(#45,.T.);
#614=IFCFACEOUTERBOUND(#46,.T.);
#615=IFCFACEOUTERBOUND(#47,.T.);
#616=IFCFACEOUTERBOUND(#48,.T.);
#617=IFCFACEOUTERBOUND(#49,.T.);
#618=IFCFACEOUTERBOUND(#50,.T.);
#619=IFCFACEOUTERBOUND(#51,.T.);
#620=IFCFACEOUTERBOUND(#52,.T.);
#621=IFCFACEOUTERBOUND(#53,.T.);
#622=IFCFACEOUTERBOUND(#54,.T.);
#623=IFCFACEOUTERBOUND(#55,.T.);
#624=IFCFACEOUTERBOUND(#56,.T.);
#625=IFCFACEOUTERBOUND(#57,.T.);
#626=IFCFACEOUTERBOUND(#58,.T.);
#627=IFCFACEOUTERBOUND(#59,.T.);
#628=IFCFACEOUTERBOUND(#60,.T.);
#629=IFCFACEOUTERBOUND(#61,.T.);
#630=IFCFACEOUTERBOUND(#62,.T.);
#631=IFCFACEOUTERBOUND(#63,.T.);
#632=IFCFACEOUTERBOUND(#64,.T.);
#633=IFCFACEOUTERBOUND(#65,.T.);
#634=IFCFACEOUTERBOUND(#66,.T.);
#635=IFCFACEOUTERBOUND(#67,.T.);
#636=IFCFACEOUTERBOUND(#68,.T.);
#637=IFCFACEOUTERBOUND(#69,.T.);
#638=IFCFACEOUTERBOUND(#70,.T.);
#639=IFCFACEOUTERBOUND(#71,.T.);
#640=IFCFACEOUTERBOUND(#72,.T.);
#641=IFCFACEOUTERBOUND(#73,.T.);
#642=IFCFACEOUTERBOUND(#74,.T.);
#643=IFCFACEOUTERBOUND(#75,.T.);
#644=IFCFACEOUTERBOUND(#76,.T.);
#645=IFCFACEOUTERBOUND(#77,.T.);
#646=IFCFACEOUTERBOUND(#78,.T.);
#647=IFCFACEOUTERBOUND(#79,.T.);
#648=IFCFACEOUTERBOUND(#80,.T.);
#649=IFCFACEOUTERBOUND(#81,.T.);
#650=IFCFACEOUTERBOUND(#82,.T.);
#651=IFCFACEOUTERBOUND(#83,.T.);
#652=IFCFACEOUTERBOUND(#84,.T.);
#653=IFCFACEOUTERBOUND(#85,.T.);
#654=IFCFACEOUTERBOUND(#86,.T.);
#655=IFCFACEOUTERBOUND(#87,.T.);
#656=IFCFACEOUTERBOUND(#88,.T.);
#657=IFCFACEOUTERBOUND(#89,.T.);
#658=IFCFACEOUTERBOUND(#90,.T.);
#659=IFCFACEOUTERBOUND(#91,.T.);
#660=IFCFACEOUTERBOUND(#92,.T.);
#661=IFCFACEOUTERBOUND(#93,.T.);
#662=IFCFACEOUTERBOUND(#94,.T.);
#663=IFCFACEOUTERBOUND(#95,.T.);
#664=IFCFACEOUTERBOUND(#96,.T.);
#665=IFCFACEOUTERBOUND(#97,.T.);
#666=IFCFACEOUTERBOUND(#98,.T.);
#667=IFCFACEOUTERBOUND(#99,.T.);
#668=IFCFACEOUTERBOUND(#100,.T.);
#669=IFCFACEOUTERBOUND(#101,.T.);
#670=IFCFACEOUTERBOUND(#102,.T.);
#671=IFCFACEOUTERBOUND(#103,.T.);
#672=IFCFACEOUTERBOUND(#104,.T.);
#673=IFCFACEOUTERBOUND(#105,.T.);
#674=IFCFACEOUTERBOUND(#106,.T.);
#675=IFCFACEOUTERBOUND(#107,.T.);
#676=IFCFACEOUTERBOUND(#108,.T.);
#677=IFCFACEOUTERBOUND(#109,.T.);
#678=IFCFACEOUTERBOUND(#110,.T.);
#679=IFCFACEOUTERBOUND(#111,.T.);
#680=IFCFACEOUTERBOUND(#112,.T.);
#681=IFCFACEOUTERBOUND(#113,.T.);
#682=IFCFACEOUTERBOUND(#114,.T.);
#683=IFCFACEOUTERBOUND(#115,.T.);
#684=IFCFACEOUTERBOUND(#116,.T.);
#685=IFCFACEOUTERBOUND(#117,.T.);
#686=IFCFACEOUTERBOUND(#118,.T.);
#687=IFCFACEOUTERBOUND(#119,.T.);
#688=IFCFACEOUTERBOUND(#120,.T.);
#689=IFCFACEOUTERBOUND(#121,.T.);
#690=IFCFACEOUTERBOUND(#122,.T.);
#691=IFCFACEOUTERBOUND(#123,.T.);
#692=IFCFACEOUTERBOUND(#124,.T.);
#693=IFCFACEOUTERBOUND(#125,.T.);
#694=IFCFACEOUTERBOUND(#126,.T.);
#695=IFCFACEOUTERBOUND(#127,.T.);
#696=IFCFACEOUTERBOUND(#128,.T.);
#697=IFCFACEOUTERBOUND(#129,.T.);
#698=IFCFACEOUTERBOUND(#130,.T.);
#699=IFCFACEOUTERBOUND(#131,.T.);
#700=IFCFACEOUTERBOUND(#132,.T.);
#701=IFCFACEOUTERBOUND(#133,.T.);
#702=IFCFACEOUTERBOUND(#134,.T.);
#703=IFCFACEOUTERBOUND(#135,.T.);
#704=IFCFACEOUTERBOUND(#136,.T.);
#705=IFCFACEOUTERBOUND(#137,.T.);
#706=IFCFACEOUTERBOUND(#138,.T.);
#707=IFCFACEOUTERBOUND(#139,.T.);
#708=IFCFACEOUTERBOUND(#140,.T.);
#709=IFCFACEOUTERBOUND(#141,.T.);
#710=IFCFACEOUTERBOUND(#142,.T.);
#711=IFCFACEOUTERBOUND(#143,.T.);
#712=IFCFACEOUTERBOUND(#144,.T.);
#713=IFCFACEOUTERBOUND(#145,.T.);
#714=IFCFACEOUTERBOUND(#146,.T.);
#715=IFCFACEOUTERBOUND(#147,.T.);
#716=IFCFACEOUTERBOUND(#148,.T.);
#717=IFCFACEOUTERBOUND(#149,.T.);
#718=IFCFACEOUTERBOUND(#150,.T.);
#719=IFCFACEOUTERBOUND(#151,.T.);
#720=IFCFACEOUTERBOUND(#152,.T.);
#721=IFCFACEOUTERBOUND(#153,.T.);
#722=IFCFACEOUTERBOUND(#154,.T.);
#723=IFCFACEOUTERBOUND(#155,.T.);
#724=IFCFACEOUTERBOUND(#156,.T.);
#725=IFCFACEOUTERBOUND(#157,.T.);
#726=IFCFACEOUTERBOUND(#158,.T.);
#727=IFCFACEOUTERBOUND(#159,.T.);
#728=IFCFACEOUTERBOUND(#160,.T.);
#729=IFCFACEOUTERBOUND(#161,.T.);
#730=IFCFACEOUTERBOUND(#162,.T.);
#731=IFCFACEOUTERBOUND(#163,.T.);
#732=IFCFACEOUTERBOUND(#164,.T.);
#733=IFCFACEOUTERBOUND(#165,.T.);
#734=IFCFACEOUTERBOUND(#166,.T.);
#735=IFCFACEOUTERBOUND(#167,.T.);
#736=IFCFACEOUTERBOUND(#168,.T.);
#737=IFCFACEOUTERBOUND(#169,.T.);
#738=IFCFACEOUTERBOUND(#170,.T.);
#739=IFCFACEOUTERBOUND(#171,.T.);
#740=IFCFACEOUTERBOUND(#172,.T.);
#741=IFCFACEOUTERBOUND(#173,.T.);
#742=IFCFACEOUTERBOUND(#174,.T.);
#743=IFCFACEOUTERBOUND(#175,.T.);
#744=IFCFACEOUTERBOUND(#176,.T.);
#745=IFCFACEOUTERBOUND(#177,.T.);
#746=IFCFACEOUTERBOUND(#178,.T.);
#747=IFCFACEOUTERBOUND(#179,.T.);
#748=IFCFACEOUTERBOUND(#180,.T.);
#749=IFCFACEOUTERBOUND(#181,.T.);
#750=IFCFACEOUTERBOUND(#182,.T.);
#751=IFCFACEOUTERBOUND(#183,.T.);
#752=IFCFACEOUTERBOUND(#184,.T.);
#753=IFCFACEOUTERBOUND(#185,.T.);
#754=IFCFACEOUTERBOUND(#186,.T.);
#755=IFCFACEOUTERBOUND(#187,.T.);
#756=IFCFACEOUTERBOUND(#188,.T.);
#757=IFCFACEOUTERBOUND(#189,.T.);
#758=IFCFACEOUTERBOUND(#190,.T.);
#759=IFCFACEOUTERBOUND(#191,.T.);
#760=IFCFACEOUTERBOUND(#192,.T.);
#761=IFCFACEOUTERBOUND(#193,.T.);
#762=IFCFACEOUTERBOUND(#194,.T.);
#763=IFCFACEOUTERBOUND(#195,.T.);
#764=IFCFACEOUTERBOUND(#196,.T.);
#765=IFCFACEOUTERBOUND(#197,.T.);
#766=IFCFACEOUTERBOUND(#198,.T.);
#767=IFCFACEOUTERBOUND(#199,.T.);
#768=IFCFACEOUTERBOUND(#200,.T.);
#769=IFCFACEOUTERBOUND(#201,.T.);
#770=IFCFACEOUTERBOUND(#202,.T.);
#771=IFCFACEOUTERBOUND(#203,.T.);
#772=IFCFACEOUTERBOUND(#204,.T.);
#773=IFCFACEOUTERBOUND(#205,.T.);
#774=IFCFACEOUTERBOUND(#206,.T.);
#775=IFCFACEOUTERBOUND(#207,.T.);
#776=IFCFACEOUTERBOUND(#208,.T.);
#777=IFCFACEOUTERBOUND(#209,.T.);
#778=IFCFACEOUTERBOUND(#210,.T.);
#779=IFCFACEOUTERBOUND(#211,.T.);
#780=IFCFACEOUTERBOUND(#212,.T.);
#781=IFCFACEOUTERBOUND(#213,.T.);
#782=IFCFACEOUTERBOUND(#214,.T.);
#783=IFCFACEOUTERBOUND(#215,.T.);
#784=IFCFACEOUTERBOUND(#216,.T.);
#785=IFCFACEOUTERBOUND(#217,.T.);
#786=IFCFACEOUTERBOUND(#218,.T.);
#787=IFCFACEOUTERBOUND(#219,.T.);
#788=IFCFACEOUTERBOUND(#220,.T.);
#789=IFCFACEOUTERBOUND(#221,.T.);
#790=IFCFACEOUTERBOUND(#222,.T.);
#791=IFCFACEOUTERBOUND(#223,.T.);
#792=IFCFACEOUTERBOUND(#224,.T.);
#793=IFCFACEOUTERBOUND(#225,.T.);
#794=IFCFACEOUTERBOUND(#226,.T.);
#795=IFCFACEOUTERBOUND(#227,.T.);
#796=IFCFACEOUTERBOUND(#228,.T.);
#797=IFCFACEOUTERBOUND(#229,.T.);
#798=IFCFACEOUTERBOUND(#230,.T.);
#799=IFCFACEOUTERBOUND(#231,.T.);
#800=IFCFACEOUTERBOUND(#232,.T.);
#801=IFCFACEOUTERBOUND(#233,.T.);
#802=IFCFACEOUTERBOUND(#234,.T.);
#803=IFCFACEOUTERBOUND(#235,.T.);
#804=IFCFACEOUTERBOUND(#236,.T.);
#805=IFCFACEOUTERBOUND(#237,.T.);
#806=IFCFACEOUTERBOUND(#238,.T.);
#807=IFCFACEOUTERBOUND(#239,.T.);
#808=IFCFACEOUTERBOUND(#240,.T.);
#809=IFCFACEOUTERBOUND(#241,.T.);
#810=IFCFACEOUTERBOUND(#242,.T.);
#811=IFCFACEOUTERBOUND(#243,.T.);
#812=IFCFACEOUTERBOUND(#244,.T.);
#813=IFCFACEOUTERBOUND(#245,.T.);
#814=IFCFACEOUTERBOUND(#246,.T.);
#815=IFCFACEOUTERBOUND(#247,.T.);
#816=IFCFACEOUTERBOUND(#248,.T.);
#817=IFCFACEOUTERBOUND(#249,.T.);
#818=IFCFACEOUTERBOUND(#250,.T.);
#819=IFCFACEOUTERBOUND(#251,.T.);
#820=IFCFACEOUTERBOUND(#252,.T.);
#821=IFCFACEOUTERBOUND(#253,.T.);
#822=IFCFACEOUTERBOUND(#254,.T.);
#823=IFCFACEOUTERBOUND(#255,.T.);
#824=IFCFACEOUTERBOUND(#256,.T.);
#825=IFCFACEOUTERBOUND(#257,.T.);
#826=IFCFACEOUTERBOUND(#258,.T.);
#827=IFCFACEOUTERBOUND(#259,.T.);
#828=IFCFACEOUTERBOUND(#260,.T.);
#829=IFCFACEOUTERBOUND(#261,.T.);
#830=IFCFACEOUTERBOUND(#262,.T.);
#831=IFCFACEOUTERBOUND(#263,.T.);
#832=IFCFACEOUTERBOUND(#264,.T.);
#833=IFCFACEOUTERBOUND(#265,.T.);
#834=IFCFACEOUTERBOUND(#266,.T.);
#835=IFCFACEOUTERBOUND(#267,.T.);
#836=IFCFACEOUTERBOUND(#268,.T.);
#837=IFCFACEOUTERBOUND(#269,.T.);
#838=IFCFACEOUTERBOUND(#270,.T.);
#839=IFCFACEOUTERBOUND(#271,.T.);
#840=IFCFACEOUTERBOUND(#272,.T.);
#841=IFCFACEOUTERBOUND(#273,.T.);
#842=IFCFACEOUTERBOUND(#274,.T.);
#843=IFCFACEOUTERBOUND(#275,.T.);
#844=IFCFACEOUTERBOUND(#276,.T.);
#845=IFCFACEOUTERBOUND(#277,.T.);
#846=IFCFACEOUTERBOUND(#278,.T.);
#847=IFCFACEOUTERBOUND(#279,.T.);
#848=IFCFACEOUTERBOUND(#280,.T.);
#849=IFCFACEOUTERBOUND(#281,.T.);
#850=IFCFACEOUTERBOUND(#282,.T.);
#851=IFCFACEOUTERBOUND(#283,.T.);
#852=IFCFACEOUTERBOUND(#284,.T.);
#853=IFCFACEOUTERBOUND(#285,.T.);
#854=IFCFACEOUTERBOUND(#286,.T.);
#855=IFCFACEOUTERBOUND(#287,.T.);
#856=IFCFACEOUTERBOUND(#288,.T.);
#857=IFCFACEOUTERBOUND(#289,.T.);
#858=IFCFACEOUTERBOUND(#290,.T.);
#859=IFCFACEOUTERBOUND(#291,.T.);
#860=IFCFACEOUTERBOUND(#292,.T.);
#861=IFCFACEOUTERBOUND(#293,.T.);
#862=IFCFACEOUTERBOUND(#294,.T.);
#863=IFCFACEOUTERBOUND(#295,.T.);
#864=IFCFACEOUTERBOUND(#296,.T.);
#865=IFCFACEOUTERBOUND(#297,.T.);
#866=IFCFACEOUTERBOUND(#298,.T.);
#867=IFCFACEOUTERBOUND(#299,.T.);
#868=IFCFACEOUTERBOUND(#300,.T.);
#869=IFCFACEOUTERBOUND(#301,.T.);
#870=IFCFACEOUTERBOUND(#302,.T.);
#871=IFCFACEOUTERBOUND(#303,.T.);
#872=IFCFACEOUTERBOUND(#304,.T.);
#873=IFCFACEOUTERBOUND(#305,.T.);
#874=IFCFACEOUTERBOUND(#306,.T.);
#875=IFCFACEOUTERBOUND(#307,.T.);
#876=IFCFACEOUTERBOUND(#308,.T.);
#877=IFCFACEOUTERBOUND(#309,.T.);
#878=IFCFACEOUTERBOUND(#310,.T.);
#879=IFCFACEOUTERBOUND(#311,.T.);
#880=IFCFACEOUTERBOUND(#312,.T.);
#881=IFCFACEOUTERBOUND(#313,.T.);
#882=IFCFACEOUTERBOUND(#314,.T.);
#883=IFCFACEOUTERBOUND(#315,.T.);
#884=IFCFACEOUTERBOUND(#316,.T.);
#885=IFCFACEOUTERBOUND(#317,.T.);
#886=IFCFACEOUTERBOUND(#318,.T.);
#887=IFCFACEOUTERBOUND(#319,.T.);
#888=IFCFACEOUTERBOUND(#320,.T.);
#889=IFCFACEOUTERBOUND(#321,.T.);
#890=IFCFACEOUTERBOUND(#322,.T.);
#891=IFCFACEOUTERBOUND(#323,.T.);
#892=IFCFACEOUTERBOUND(#324,.T.);
#893=IFCFACEOUTERBOUND(#325,.T.);
#894=IFCFACEOUTERBOUND(#326,.T.);
#895=IFCFACEOUTERBOUND(#327,.T.);
#896=IFCFACEOUTERBOUND(#328,.T.);
#897=IFCFACEOUTERBOUND(#329,.T.);
#898=IFCFACEOUTERBOUND(#330,.T.);
#899=IFCFACEOUTERBOUND(#331,.T.);
#900=IFCFACEOUTERBOUND(#332,.T.);
#901=IFCFACEOUTERBOUND(#333,.T.);
#902=IFCFACEOUTERBOUND(#334,.T.);
#903=IFCFACEOUTERBOUND(#335,.T.);
#904=IFCFACEOUTERBOUND(#336,.T.);
#905=IFCFACEOUTERBOUND(#337,.T.);
#906=IFCFACEOUTERBOUND(#338,.T.);
#907=IFCFACEOUTERBOUND(#339,.T.);
#908=IFCFACEOUTERBOUND(#340,.T.);
#909=IFCFACEOUTERBOUND(#341,.T.);
#910=IFCFACEOUTERBOUND(#342,.T.);
#911=IFCFACEOUTERBOUND(#343,.T.);
#912=IFCFACEOUTERBOUND(#344,.T.);
#913=IFCFACEOUTERBOUND(#345,.T.);
#914=IFCFACEOUTERBOUND(#346,.T.);
#915=IFCFACEOUTERBOUND(#347,.T.);
#916=IFCFACEOUTERBOUND(#348,.T.);
#917=IFCFACEOUTERBOUND(#349,.T.);
#918=IFCFACEOUTERBOUND(#350,.T.);
#919=IFCFACEOUTERBOUND(#351,.T.);
#920=IFCFACEOUTERBOUND(#352,.T.);
#921=IFCFACEOUTERBOUND(#353,.T.);
#922=IFCFACEOUTERBOUND(#354,.T.);
#923=IFCFACEOUTERBOUND(#355,.T.);
#924=IFCFACEOUTERBOUND(#356,.T.);
#925=IFCFACEOUTERBOUND(#357,.T.);
#926=IFCFACEOUTERBOUND(#358,.T.);
#927=IFCFACEOUTERBOUND(#359,.T.);
#928=IFCFACEOUTERBOUND(#360,.T.);
#929=IFCFACEOUTERBOUND(#361,.T.);
#930=IFCFACEOUTERBOUND(#362,.T.);
#931=IFCFACEOUTERBOUND(#363,.T.);
#932=IFCFACEOUTERBOUND(#364,.T.);
#933=IFCFACEOUTERBOUND(#365,.T.);
#934=IFCFACEOUTERBOUND(#366,.T.);
#935=IFCFACEOUTERBOUND(#367,.T.);
#936=IFCFACEOUTERBOUND(#368,.T.);
#937=IFCFACEOUTERBOUND(#369,.T.);
#938=IFCFACEOUTERBOUND(#370,.T.);
#939=IFCFACEOUTERBOUND(#371,.T.);
#940=IFCFACEOUTERBOUND(#372,.T.);
#941=IFCFACEOUTERBOUND(#373,.T.);
#942=IFCFACEOUTERBOUND(#374,.T.);
#943=IFCFACEOUTERBOUND(#375,.T.);
#944=IFCFACEOUTERBOUND(#376,.T.);
#945=IFCFACEOUTERBOUND(#377,.T.);
#946=IFCFACEOUTERBOUND(#378,.T.);
#947=IFCFACEOUTERBOUND(#379,.T.);
#948=IFCFACEOUTERBOUND(#380,.T.);
#949=IFCFACEOUTERBOUND(#381,.T.);
#950=IFCFACEOUTERBOUND(#382,.T.);
#951=IFCFACEOUTERBOUND(#383,.T.);
#952=IFCFACEOUTERBOUND(#384,.T.);
#953=IFCFACEOUTERBOUND(#385,.T.);
#954=IFCFACEOUTERBOUND(#386,.T.);
#955=IFCFACEOUTERBOUND(#387,.T.);
#956=IFCFACEOUTERBOUND(#388,.T.);
#957=IFCFACEOUTERBOUND(#389,.T.);
#958=IFCFACEOUTERBOUND(#390,.T.);
#959=IFCFACEOUTERBOUND(#391,.T.);
#960=IFCFACEOUTERBOUND(#392,.T.);
#961=IFCFACEOUTERBOUND(#393,.T.);
#962=IFCFACEOUTERBOUND(#394,.T.);
#963=IFCFACEOUTERBOUND(#395,.T.);
#964=IFCFACEOUTERBOUND(#396,.T.);
#965=IFCFACEOUTERBOUND(#397,.T.);
#966=IFCFACEOUTERBOUND(#398,.T.);
#967=IFCFACEOUTERBOUND(#399,.T.);
#968=IFCFACEOUTERBOUND(#400,.T.);
#969=IFCFACEOUTERBOUND(#401,.T.);
#970=IFCFACEOUTERBOUND(#402,.T.);
#971=IFCFACEOUTERBOUND(#403,.T.);
#972=IFCFACEOUTERBOUND(#404,.T.);
#973=IFCFACEOUTERBOUND(#405,.T.);
#974=IFCFACEOUTERBOUND(#406,.T.);
#975=IFCFACEOUTERBOUND(#407,.T.);
#976=IFCFACEOUTERBOUND(#408,.T.);
#977=IFCFACEOUTERBOUND(#409,.T.);
#978=IFCFACEOUTERBOUND(#410,.T.);
#979=IFCFACEOUTERBOUND(#411,.T.);
#980=IFCFACEOUTERBOUND(#412,.T.);
#981=IFCFACEOUTERBOUND(#413,.T.);
#982=IFCFACEOUTERBOUND(#414,.T.);
#983=IFCFACEOUTERBOUND(#415,.T.);
#984=IFCFACEOUTERBOUND(#416,.T.);
#985=IFCFACEOUTERBOUND(#417,.T.);
#986=IFCFACEOUTERBOUND(#418,.T.);
#987=IFCFACEOUTERBOUND(#419,.T.);
#988=IFCFACEOUTERBOUND(#420,.T.);
#989=IFCFACEOUTERBOUND(#421,.T.);
#990=IFCFACEOUTERBOUND(#422,.T.);
#991=IFCFACEOUTERBOUND(#423,.T.);
#992=IFCFACEOUTERBOUND(#424,.T.);
#993=IFCFACEOUTERBOUND(#425,.T.);
#994=IFCFACEOUTERBOUND(#426,.T.);
#995=IFCFACEOUTERBOUND(#427,.T.);
#996=IFCFACEOUTERBOUND(#428,.T.);
#997=IFCFACEOUTERBOUND(#429,.T.);
#998=IFCFACEOUTERBOUND(#430,.T.);
#999=IFCFACEOUTERBOUND(#431,.T.);
#1000=IFCFACEOUTERBOUND(#432,.T.);
#1001=IFCFACEOUTERBOUND(#433,.T.);
#1002=IFCFACEOUTERBOUND(#434,.T.);
#1003=IFCFACEOUTERBOUND(#435,.T.);
#1004=IFCFACEOUTERBOUND(#436,.T.);
#1005=IFCFACEOUTERBOUND(#437,.T.);
#1006=IFCFACEOUTERBOUND(#438,.T.);
#1007=IFCFACEOUTERBOUND(#439,.T.);
#1008=IFCFACEOUTERBOUND(#440,.T.);
#1009=IFCFACEOUTERBOUND(#441,.T.);
#1010=IFCFACEOUTERBOUND(#442,.T.);
#1011=IFCFACEOUTERBOUND(#443,.T.);
#1012=IFCFACEOUTERBOUND(#444,.T.);
#1013=IFCFACEOUTERBOUND(#445,.T.);
#1014=IFCFACEOUTERBOUND(#446,.T.);
#1015=IFCFACEOUTERBOUND(#447,.T.);
#1016=IFCFACEOUTERBOUND(#448,.T.);
#1017=IFCFACEOUTERBOUND(#449,.T.);
#1018=IFCFACEOUTERBOUND(#450,.T.);
#1019=IFCFACEOUTERBOUND(#451,.T.);
#1020=IFCFACEOUTERBOUND(#452,.T.);
#1021=IFCFACEOUTERBOUND(#453,.T.);
#1022=IFCFACEOUTERBOUND(#454,.T.);
#1023=IFCFACEOUTERBOUND(#455,.T.);
#1024=IFCFACEOUTERBOUND(#456,.T.);
#1025=IFCFACEOUTERBOUND(#457,.T.);
#1026=IFCFACEOUTERBOUND(#458,.T.);
#1027=IFCFACEOUTERBOUND(#459,.T.);
#1028=IFCFACEOUTERBOUND(#460,.T.);
#1029=IFCFACEOUTERBOUND(#461,.T.);
#1030=IFCFACEOUTERBOUND(#462,.T.);
#1031=IFCFACEOUTERBOUND(#463,.T.);
#1032=IFCFACEOUTERBOUND(#464,.T.);
#1033=IFCFACEOUTERBOUND(#465,.T.);
#1034=IFCFACEOUTERBOUND(#466,.T.);
#1035=IFCFACEOUTERBOUND(#467,.T.);
#1036=IFCFACEOUTERBOUND(#468,.T.);
#1037=IFCFACEOUTERBOUND(#469,.T.);
#1038=IFCFACEOUTERBOUND(#470,.T.);
#1039=IFCFACEOUTERBOUND(#471,.T.);
#1040=IFCFACEOUTERBOUND(#472,.T.);
#1041=IFCFACEOUTERBOUND(#473,.T.);
#1042=IFCFACEOUTERBOUND(#474,.T.);
#1043=IFCFACEOUTERBOUND(#475,.T.);
#1044=IFCFACEOUTERBOUND(#476,.T.);
#1045=IFCFACEOUTERBOUND(#477,.T.);
#1046=IFCFACEOUTERBOUND(#478,.T.);
#1047=IFCFACEOUTERBOUND(#479,.T.);
#1048=IFCFACEOUTERBOUND(#480,.T.);
#1049=IFCFACEOUTERBOUND(#481,.T.);
#1050=IFCFACEOUTERBOUND(#482,.T.);
#1051=IFCFACEOUTERBOUND(#483,.T.);
#1052=IFCFACEOUTERBOUND(#484,.T.);
#1053=IFCFACEOUTERBOUND(#485,.T.);
#1054=IFCFACEOUTERBOUND(#486,.T.);
#1055=IFCFACEOUTERBOUND(#487,.T.);
#1056=IFCFACEOUTERBOUND(#488,.T.);
#1057=IFCFACEOUTERBOUND(#489,.T.);
#1058=IFCFACEOUTERBOUND(#490,.T.);
#1059=IFCFACEOUTERBOUND(#491,.T.);
#1060=IFCFACEOUTERBOUND(#492,.T.);
#1061=IFCFACEOUTERBOUND(#493,.T.);
#1062=IFCFACEOUTERBOUND(#494,.T.);
#1063=IFCFACEOUTERBOUND(#495,.T.);
#1064=IFCFACEOUTERBOUND(#496,.T.);
#1065=IFCFACEOUTERBOUND(#497,.T.);
#1066=IFCFACEOUTERBOUND(#498,.T.);
#1067=IFCFACEOUTERBOUND(#499,.T.);
#1068=IFCFACEOUTERBOUND(#500,.T.);
#1069=IFCFACEOUTERBOUND(#501,.T.);
#1070=IFCFACEOUTERBOUND(#502,.T.);
#1071=IFCFACEOUTERBOUND(#503,.T.);
#1072=IFCFACEOUTERBOUND(#504,.T.);
#1073=IFCFACEOUTERBOUND(#505,.T.);
#1074=IFCFACEOUTERBOUND(#506,.T.);
#1075=IFCFACEOUTERBOUND(#507,.T.);
#1076=IFCFACEOUTERBOUND(#508,.T.);
#1077=IFCFACEOUTERBOUND(#509,.T.);
#1078=IFCFACEOUTERBOUND(#510,.T.);
#1079=IFCFACEOUTERBOUND(#511,.T.);
#1080=IFCFACEOUTERBOUND(#512,.T.);
#1081=IFCFACEOUTERBOUND(#513,.T.);
#1082=IFCFACEOUTERBOUND(#514,.T.);
#1083=IFCFACEOUTERBOUND(#515,.T.);
#1084=IFCFACEOUTERBOUND(#516,.T.);
#1085=IFCFACEOUTERBOUND(#517,.T.);
#1086=IFCFACEOUTERBOUND(#518,.T.);
#1087=IFCFACEOUTERBOUND(#519,.T.);
#1088=IFCFACEOUTERBOUND(#520,.T.);
#1089=IFCFACEOUTERBOUND(#521,.T.);
#1090=IFCFACEOUTERBOUND(#522,.T.);
#1091=IFCFACEOUTERBOUND(#523,.T.);
#1092=IFCFACEOUTERBOUND(#524,.T.);
#1093=IFCFACEOUTERBOUND(#525,.T.);
#1094=IFCFACEOUTERBOUND(#526,.T.);
#1095=IFCFACEOUTERBOUND(#527,.T.);
#1096=IFCFACEOUTERBOUND(#528,.T.);
#1097=IFCFACEOUTERBOUND(#529,.T.);
#1098=IFCFACEOUTERBOUND(#530,.T.);
#1099=IFCFACEOUTERBOUND(#531,.T.);
#1100=IFCFACEOUTERBOUND(#532,.T.);
#1101=IFCFACEOUTERBOUND(#533,.T.);
#1102=IFCFACEOUTERBOUND(#534,.T.);
#1103=IFCFACEOUTERBOUND(#535,.T.);
#1104=IFCFACEOUTERBOUND(#536,.T.);
#1105=IFCFACEOUTERBOUND(#537,.T.);
#1106=IFCFACEOUTERBOUND(#538,.T.);
#1107=IFCFACEOUTERBOUND(#539,.T.);
#1108=IFCFACEOUTERBOUND(#540,.T.);
#1109=IFCFACEOUTERBOUND(#541,.T.);
#1110=IFCFACEOUTERBOUND(#542,.T.);
#1111=IFCFACEOUTERBOUND(#543,.T.);
#1112=IFCFACEOUTERBOUND(#544,.T.);
#1113=IFCFACEOUTERBOUND(#545,.T.);
#1114=IFCFACEOUTERBOUND(#546,.T.);
#1115=IFCFACEOUTERBOUND(#547,.T.);
#1116=IFCFACEOUTERBOUND(#548,.T.);
#1117=IFCFACEOUTERBOUND(#549,.T.);
#1118=IFCFACEOUTERBOUND(#550,.T.);
#1119=IFCFACEOUTERBOUND(#551,.T.);
#1120=IFCFACEOUTERBOUND(#552,.T.);
#1121=IFCFACEOUTERBOUND(#553,.T.);
#1122=IFCFACEOUTERBOUND(#554,.T.);
#1123=IFCFACEOUTERBOUND(#555,.T.);
#1124=IFCFACEOUTERBOUND(#556,.T.);
#1125=IFCFACEOUTERBOUND(#557,.T.);
#1126=IFCFACEOUTERBOUND(#558,.T.);
#1127=IFCFACEOUTERBOUND(#559,.T.);
#1128=IFCFACEOUTERBOUND(#560,.T.);
#1129=IFCFACEOUTERBOUND(#561,.T.);
#1130=IFCFACEOUTERBOUND(#562,.T.);
#1131=IFCFACEOUTERBOUND(#563,.T.);
#1132=IFCFACEOUTERBOUND(#564,.T.);
#1133=IFCFACEOUTERBOUND(#565,.T.);
#1134=IFCFACEOUTERBOUND(#566,.T.);
#1135=IFCFACEOUTERBOUND(#567,.T.);
#1136=IFCFACEOUTERBOUND(#568,.T.);
#1137=IFCFACEOUTERBOUND(#569,.T.);
#1138=IFCFACEOUTERBOUND(#570,.T.);
#1139=IFCFACEOUTERBOUND(#571,.T.);
#1140=IFCFACEOUTERBOUND(#572,.T.);
#1141=IFCFACEOUTERBOUND(#573,.T.);
#1142=IFCFACEOUTERBOUND(#574,.T.);
#1143=IFCFACEOUTERBOUND(#575,.T.);
#1144=IFCFACEOUTERBOUND(#576,.T.);
#1145=IFCFACEOUTERBOUND(#577,.T.);
#1146=IFCFACEOUTERBOUND(#578,.T.);
#1147=IFCFACEOUTERBOUND(#579,.T.);
#1148=IFCFACEOUTERBOUND(#580,.T.);
#1149=IFCFACEOUTERBOUND(#581,.T.);
#1150=IFCFACEOUTERBOUND(#582,.T.);
#1151=IFCFACEOUTERBOUND(#583,.T.);
#1152=IFCFACEOUTERBOUND(#584,.T.);
#1153=IFCFACEOUTERBOUND(#585,.T.);
#1154=IFCFACEOUTERBOUND(#586,.T.);
#1155=IFCFACEOUTERBOUND(#587,.T.);
#1156=IFCFACEOUTERBOUND(#588,.T.);
#1157=IFCFACEOUTERBOUND(#589,.T.);
#1158=IFCFACEOUTERBOUND(#590,.T.);
#1159=IFCFACEOUTERBOUND(#591,.T.);
#1160=IFCFACEOUTERBOUND(#592,.T.);
#1161=IFCFACEOUTERBOUND(#593,.T.);
#1162=IFCFACE((#594));
#1163=IFCFACE((#595));
#1164=IFCFACE((#596));
#1165=IFCFACE((#597));
#1166=IFCFACE((#598));
#1167=IFCFACE((#599));
#1168=IFCFACE((#600));
#1169=IFCFACE((#601));
#1170=IFCFACE((#602));
#1171=IFCFACE((#603));
#1172=IFCFACE((#604));
#1173=IFCFACE((#605));
#1174=IFCFACE((#606));
#1175=IFCFACE((#607));
#1176=IFCFACE((#608));
#1177=IFCFACE((#609));
#1178=IFCFACE((#610));
#1179=IFCFACE((#611));
#1180=IFCFACE((#612));
#1181=IFCFACE((#613));
#1182=IFCFACE((#614));
#1183=IFCFACE((#615));
#1184=IFCFACE((#616));
#1185=IFCFACE((#617));
#1186=IFCFACE((#618));
#1187=IFCFACE((#619));
#1188=IFCFACE((#620));
#1189=IFCFACE((#621));
#1190=IFCFACE((#622));
#1191=IFCFACE((#623));
#1192=IFCFACE((#624));
#1193=IFCFACE((#625));
#1194=IFCFACE((#626));
#1195=IFCFACE((#627));
#1196=IFCFACE((#628));
#1197=IFCFACE((#629));
#1198=IFCFACE((#630));
#1199=IFCFACE((#631));
#1200=IFCFACE((#632));
#1201=IFCFACE((#633));
#1202=IFCFACE((#634));
#1203=IFCFACE((#635));
#1204=IFCFACE((#636));
#1205=IFCFACE((#637));
#1206=IFCFACE((#638));
#1207=IFCFACE((#639));
#1208=IFCFACE((#640));
#1209=IFCFACE((#641));
#1210=IFCFACE((#642));
#1211=IFCFACE((#643));
#1212=IFCFACE((#644));
#1213=IFCFACE((#645));
#1214=IFCFACE((#646));
#1215=IFCFACE((#647));
#1216=IFCFACE((#648));
#1217=IFCFACE((#649));
#1218=IFCFACE((#650));
#1219=IFCFACE((#651));
#1220=IFCFACE((#652));
#1221=IFCFACE((#653));
#1222=IFCFACE((#654));
#1223=IFCFACE((#655));
#1224=IFCFACE((#656));
#1225=IFCFACE((#657));
#1226=IFCFACE((#658));
#1227=IFCFACE((#659));
#1228=IFCFACE((#660));
#1229=IFCFACE((#661));
#1230=IFCFACE((#662));
#1231=IFCFACE((#663));
#1232=IFCFACE((#664));
#1233=IFCFACE((#665));
#1234=IFCFACE((#666));
#1235=IFCFACE((#667));
#1236=IFCFACE((#668));
#1237=IFCFACE((#669));
#1238=IFCFACE((#670));
#1239=IFCFACE((#671));
#1240=IFCFACE((#672));
#1241=IFCFACE((#673));
#1242=IFCFACE((#674));
#1243=IFCFACE((#675));
#1244=IFCFACE((#676));
#1245=IFCFACE((#677));
#1246=IFCFACE((#678));
#1247=IFCFACE((#679));
#1248=IFCFACE((#680));
#1249=IFCFACE((#681));
#1250=IFCFACE((#682));
#1251=IFCFACE((#683));
#1252=IFCFACE((#684));
#1253=IFCFACE((#685));
#1254=IFCFACE((#686));
#1255=IFCFACE((#687));
#1256=IFCFACE((#688));
#1257=IFCFACE((#689));
#1258=IFCFACE((#690));
#1259=IFCFACE((#691));
#1260=IFCFACE((#692));
#1261=IFCFACE((#693));
#1262=IFCFACE((#694));
#1263=IFCFACE((#695));
#1264=IFCFACE((#696));
#1265=IFCFACE((#697));
#1266=IFCFACE((#698));
#1267=IFCFACE((#699));
#1268=IFCFACE((#700));
#1269=IFCFACE((#701));
#1270=IFCFACE((#702));
#1271=IFCFACE((#703));
#1272=IFCFACE((#704));
#1273=IFCFACE((#705));
#1274=IFCFACE((#706));
#1275=IFCFACE((#707));
#1276=IFCFACE((#708));
#1277=IFCFACE((#709));
#1278=IFCFACE((#710));
#1279=IFCFACE((#711));
#1280=IFCFACE((#712));
#1281=IFCFACE((#713));
#1282=IFCFACE((#714));
#1283=IFCFACE((#715));
#1284=IFCFACE((#716));
#1285=IFCFACE((#717));
#1286=IFCFACE((#718));
#1287=IFCFACE((#719));
#1288=IFCFACE((#720));
#1289=IFCFACE((#721));
#1290=IFCFACE((#722));
#1291=IFCFACE((#723));
#1292=IFCFACE((#724));
#1293=IFCFACE((#725));
#1294=IFCFACE((#726));
#1295=IFCFACE((#727));
#1296=IFCFACE((#728));
#1297=IFCFACE((#729));
#1298=IFCFACE((#730));
#1299=IFCFACE((#731));
#1300=IFCFACE((#732));
#1301=IFCFACE((#733));
#1302=IFCFACE((#734));
#1303=IFCFACE((#735));
#1304=IFCFACE((#736));
#1305=IFCFACE((#737));
#1306=IFCFACE((#738));
#1307=IFCFACE((#739));
#1308=IFCFACE((#740));
#1309=IFCFACE((#741));
#1310=IFCFACE((#742));
#1311=IFCFACE((#743));
#1312=IFCFACE((#744));
#1313=IFCFACE((#745));
#1314=IFCFACE((#746));
#1315=IFCFACE((#747));
#1316=IFCFACE((#748));
#1317=IFCFACE((#749));
#1318=IFCFACE((#750));
#1319=IFCFACE((#751));
#1320=IFCFACE((#752));
#1321=IFCFACE((#753));
#1322=IFCFACE((#754));
#1323=IFCFACE((#755));
#1324=IFCFACE((#756));
#1325=IFCFACE((#757));
#1326=IFCFACE((#758));
#1327=IFCFACE((#759));
#1328=IFCFACE((#760));
#1329=IFCFACE((#761));
#1330=IFCFACE((#762));
#1331=IFCFACE((#763));
#1332=IFCFACE((#764));
#1333=IFCFACE((#765));
#1334=IFCFACE((#766));
#1335=IFCFACE((#767));
#1336=IFCFACE((#768));
#1337=IFCFACE((#769));
#1338=IFCFACE((#770));
#1339=IFCFACE((#771));
#1340=IFCFACE((#772));
#1341=IFCFACE((#773));
#1342=IFCFACE((#774));
#1343=IFCFACE((#775));
#1344=IFCFACE((#776));
#1345=IFCFACE((#777));
#1346=IFCFACE((#778));
#1347=IFCFACE((#779));
#1348=IFCFACE((#780));
#1349=IFCFACE((#781));
#1350=IFCFACE((#782));
#1351=IFCFACE((#783));
#1352=IFCFACE((#784));
#1353=IFCFACE((#785));
#1354=IFCFACE((#786));
#1355=IFCFACE((#787));
#1356=IFCFACE((#788));
#1357=IFCFACE((#789));
#1358=IFCFACE((#790));
#1359=IFCFACE((#791));
#1360=IFCFACE((#792));
#1361=IFCFACE((#793));
#1362=IFCFACE((#794));
#1363=IFCFACE((#795));
#1364=IFCFACE((#796));
#1365=IFCFACE((#797));
#1366=IFCFACE((#798));
#1367=IFCFACE((#799));
#1368=IFCFACE((#800));
#1369=IFCFACE((#801));
#1370=IFCFACE((#802));
#1371=IFCFACE((#803));
#1372=IFCFACE((#804));
#1373=IFCFACE((#805));
#1374=IFCFACE((#806));
#1375=IFCFACE((#807));
#1376=IFCFACE((#808));
#1377=IFCFACE((#809));
#1378=IFCFACE((#810));
#1379=IFCFACE((#811));
#1380=IFCFACE((#812));
#1381=IFCFACE((#813));
#1382=IFCFACE((#814));
#1383=IFCFACE((#815));
#1384=IFCFACE((#816));
#1385=IFCFACE((#817));
#1386=IFCFACE((#818));
#1387=IFCFACE((#819));
#1388=IFCFACE((#820));
#1389=IFCFACE((#821));
#1390=IFCFACE((#822));
#1391=IFCFACE((#823));
#1392=IFCFACE((#824));
#1393=IFCFACE((#825));
#1394=IFCFACE((#826));
#1395=IFCFACE((#827));
#1396=IFCFACE((#828));
#1397=IFCFACE((#829));
#1398=IFCFACE((#830));
#1399=IFCFACE((#831));
#1400=IFCFACE((#832));
#1401=IFCFACE((#833));
#1402=IFCFACE((#834));
#1403=IFCFACE((#835));
#1404=IFCFACE((#836));
#1405=IFCFACE((#837));
#1406=IFCFACE((#838));
#1407=IFCFACE((#839));
#1408=IFCFACE((#840));
#1409=IFCFACE((#841));
#1410=IFCFACE((#842));
#1411=IFCFACE((#843));
#1412=IFCFACE((#844));
#1413=IFCFACE((#845));
#1414=IFCFACE((#846));
#1415=IFCFACE((#847));
#1416=IFCFACE((#848));
#1417=IFCFACE((#849));
#1418=IFCFACE((#850));
#1419=IFCFACE((#851));
#1420=IFCFACE((#852));
#1421=IFCFACE((#853));
#1422=IFCFACE((#854));
#1423=IFCFACE((#855));
#1424=IFCFACE((#856));
#1425=IFCFACE((#857));
#1426=IFCFACE((#858));
#1427=IFCFACE((#859));
#1428=IFCFACE((#860));
#1429=IFCFACE((#861));
#1430=IFCFACE((#862));
#1431=IFCFACE((#863));
#1432=IFCFACE((#864));
#1433=IFCFACE((#865));
#1434=IFCFACE((#866));
#1435=IFCFACE((#867));
#1436=IFCFACE((#868));
#1437=IFCFACE((#869));
#1438=IFCFACE((#870));
#1439=IFCFACE((#871));
#1440=IFCFACE((#872));
#1441=IFCFACE((#873));
#1442=IFCFACE((#874));
#1443=IFCFACE((#875));
#1444=IFCFACE((#876));
#1445=IFCFACE((#877));
#1446=IFCFACE((#878));
#1447=IFCFACE((#879));
#1448=IFCFACE((#880));
#1449=IFCFACE((#881));
#1450=IFCFACE((#882));
#1451=IFCFACE((#883));
#1452=IFCFACE((#884));
#1453=IFCFACE((#885));
#1454=IFCFACE((#886));
#1455=IFCFACE((#887));
#1456=IFCFACE((#888));
#1457=IFCFACE((#889));
#1458=IFCFACE((#890));
#1459=IFCFACE((#891));
#1460=IFCFACE((#892));
#1461=IFCFACE((#893));
#1462=IFCFACE((#894));
#1463=IFCFACE((#895));
#1464=IFCFACE((#896));
#1465=IFCFACE((#897));
#1466=IFCFACE((#898));
#1467=IFCFACE((#899));
#1468=IFCFACE((#900));
#1469=IFCFACE((#901));
#1470=IFCFACE((#902));
#1471=IFCFACE((#903));
#1472=IFCFACE((#904));
#1473=IFCFACE((#905));
#1474=IFCFACE((#906));
#1475=IFCFACE((#907));
#1476=IFCFACE((#908));
#1477=IFCFACE((#909));
#1478=IFCFACE((#910));
#1479=IFCFACE((#911));
#1480=IFCFACE((#912));
#1481=IFCFACE((#913));
#1482=IFCFACE((#914));
#1483=IFCFACE((#915));
#1484=IFCFACE((#916));
#1485=IFCFACE((#917));
#1486=IFCFACE((#918));
#1487=IFCFACE((#919));
#1488=IFCFACE((#920));
#1489=IFCFACE((#921));
#1490=IFCFACE((#922));
#1491=IFCFACE((#923));
#1492=IFCFACE((#924));
#1493=IFCFACE((#925));
#1494=IFCFACE((#926));
#1495=IFCFACE((#927));
#1496=IFCFACE((#928));
#1497=IFCFACE((#929));
#1498=IFCFACE((#930));
#1499=IFCFACE((#931));
#1500=IFCFACE((#932));
#1501=IFCFACE((#933));
#1502=IFCFACE((#934));
#1503=IFCFACE((#935));
#1504=IFCFACE((#936));
#1505=IFCFACE((#937));
#1506=IFCFACE((#938));
#1507=IFCFACE((#939));
#1508=IFCFACE((#940));
#1509=IFCFACE((#941));
#1510=IFCFACE((#942));
#1511=IFCFACE((#943));
#1512=IFCFACE((#944));
#1513=IFCFACE((#945));
#1514=IFCFACE((#946));
#1515=IFCFACE((#947));
#1516=IFCFACE((#948));
#1517=IFCFACE((#949));
#1518=IFCFACE((#950));
#1519=IFCFACE((#951));
#1520=IFCFACE((#952));
#1521=IFCFACE((#953));
#1522=IFCFACE((#954));
#1523=IFCFACE((#955));
#1524=IFCFACE((#956));
#1525=IFCFACE((#957));
#1526=IFCFACE((#958));
#1527=IFCFACE((#959));
#1528=IFCFACE((#960));
#1529=IFCFACE((#961));
#1530=IFCFACE((#962));
#1531=IFCFACE((#963));
#1532=IFCFACE((#964));
#1533=IFCFACE((#965));
#1534=IFCFACE((#966));
#1535=IFCFACE((#967));
#1536=IFCFACE((#968));
#1537=IFCFACE((#969));
#1538=IFCFACE((#970));
#1539=IFCFACE((#971));
#1540=IFCFACE((#972));
#1541=IFCFACE((#973));
#1542=IFCFACE((#974));
#1543=IFCFACE((#975));
#1544=IFCFACE((#976));
#1545=IFCFACE((#977));
#1546=IFCFACE((#978));
#1547=IFCFACE((#979));
#1548=IFCFACE((#980));
#1549=IFCFACE((#981));
#1550=IFCFACE((#982));
#1551=IFCFACE((#983));
#1552=IFCFACE((#984));
#1553=IFCFACE((#985));
#1554=IFCFACE((#986));
#1555=IFCFACE((#987));
#1556=IFCFACE((#988));
#1557=IFCFACE((#989));
#1558=IFCFACE((#990));
#1559=IFCFACE((#991));
#1560=IFCFACE((#992));
#1561=IFCFACE((#993));
#1562=IFCFACE((#994));
#1563=IFCFACE((#995));
#1564=IFCFACE((#996));
#1565=IFCFACE((#997));
#1566=IFCFACE((#998));
#1567=IFCFACE((#999));
#1568=IFCFACE((#1000));
#1569=IFCFACE((#1001));
#1570=IFCFACE((#1002));
#1571=IFCFACE((#1003));
#1572=IFCFACE((#1004));
#1573=IFCFACE((#1005));
#1574=IFCFACE((#1006));
#1575=IFCFACE((#1007));
#1576=IFCFACE((#1008));
#1577=IFCFACE((#1009));
#1578=IFCFACE((#1010));
#1579=IFCFACE((#1011));
#1580=IFCFACE((#1012));
#1581=IFCFACE((#1013));
#1582=IFCFACE((#1014));
#1583=IFCFACE((#1015));
#1584=IFCFACE((#1016));
#1585=IFCFACE((#1017));
#1586=IFCFACE((#1018));
#1587=IFCFACE((#1019));
#1588=IFCFACE((#1020));
#1589=IFCFACE((#1021));
#1590=IFCFACE((#1022));
#1591=IFCFACE((#1023));
#1592=IFCFACE((#1024));
#1593=IFCFACE((#1025));
#1594=IFCFACE((#1026));
#1595=IFCFACE((#1027));
#1596=IFCFACE((#1028));
#1597=IFCFACE((#1029));
#1598=IFCFACE((#1030));
#1599=IFCFACE((#1031));
#1600=IFCFACE((#1032));
#1601=IFCFACE((#1033));
#1602=IFCFACE((#1034));
#1603=IFCFACE((#1035));
#1604=IFCFACE((#1036));
#1605=IFCFACE((#1037));
#1606=IFCFACE((#1038));
#1607=IFCFACE((#1039));
#1608=IFCFACE((#1040));
#1609=IFCFACE((#1041));
#1610=IFCFACE((#1042));
#1611=IFCFACE((#1043));
#1612=IFCFACE((#1044));
#1613=IFCFACE((#1045));
#1614=IFCFACE((#1046));
#1615=IFCFACE((#1047));
#1616=IFCFACE((#1048));
#1617=IFCFACE((#1049));
#1618=IFCFACE((#1050));
#1619=IFCFACE((#1051));
#1620=IFCFACE((#1052));
#1621=IFCFACE((#1053));
#1622=IFCFACE((#1054));
#1623=IFCFACE((#1055));
#1624=IFCFACE((#1056));
#1625=IFCFACE((#1057));
#1626=IFCFACE((#1058));
#1627=IFCFACE((#1059));
#1628=IFCFACE((#1060));
#1629=IFCFACE((#1061));
#1630=IFCFACE((#1062));
#1631=IFCFACE((#1063));
#1632=IFCFACE((#1064));
#1633=IFCFACE((#1065));
#1634=IFCFACE((#1066));
#1635=IFCFACE((#1067));
#1636=IFCFACE((#1068));
#1637=IFCFACE((#1069));
#1638=IFCFACE((#1070));
#1639=IFCFACE((#1071));
#1640=IFCFACE((#1072));
#1641=IFCFACE((#1073));
#1642=IFCFACE((#1074));
#1643=IFCFACE((#1075));
#1644=IFCFACE((#1076));
#1645=IFCFACE((#1077));
#1646=IFCFACE((#1078));
#1647=IFCFACE((#1079));
#1648=IFCFACE((#1080));
#1649=IFCFACE((#1081));
#1650=IFCFACE((#1082));
#1651=IFCFACE((#1083));
#1652=IFCFACE((#1084));
#1653=IFCFACE((#1085));
#1654=IFCFACE((#1086));
#1655=IFCFACE((#1087));
#1656=IFCFACE((#1088));
#1657=IFCFACE((#1089));
#1658=IFCFACE((#1090));
#1659=IFCFACE((#1091));
#1660=IFCFACE((#1092));
#1661=IFCFACE((#1093));
#1662=IFCFACE((#1094));
#1663=IFCFACE((#1095));
#1664=IFCFACE((#1096));
#1665=IFCFACE((#1097));
#1666=IFCFACE((#1098));
#1667=IFCFACE((#1099));
#1668=IFCFACE((#1100));
#1669=IFCFACE((#1101));
#1670=IFCFACE((#1102));
#1671=IFCFACE((#1103));
#1672=IFCFACE((#1104));
#1673=IFCFACE((#1105));
#1674=IFCFACE((#1106));
#1675=IFCFACE((#1107));
#1676=IFCFACE((#1108));
#1677=IFCFACE((#1109));
#1678=IFCFACE((#1110));
#1679=IFCFACE((#1111));
#1680=IFCFACE((#1112));
#1681=IFCFACE((#1113));
#1682=IFCFACE((#1114));
#1683=IFCFACE((#1115));
#1684=IFCFACE((#1116));
#1685=IFCFACE((#1117));
#1686=IFCFACE((#1118));
#1687=IFCFACE((#1119));
#1688=IFCFACE((#1120));
#1689=IFCFACE((#1121));
#1690=IFCFACE((#1122));
#1691=IFCFACE((#1123));
#1692=IFCFACE((#1124));
#1693=IFCFACE((#1125));
#1694=IFCFACE((#1126));
#1695=IFCFACE((#1127));
#1696=IFCFACE((#1128));
#1697=IFCFACE((#1129));
#1698=IFCFACE((#1130));
#1699=IFCFACE((#1131));
#1700=IFCFACE((#1132));
#1701=IFCFACE((#1133));
#1702=IFCFACE((#1134));
#1703=IFCFACE((#1135));
#1704=IFCFACE((#1136));
#1705=IFCFACE((#1137));
#1706=IFCFACE((#1138));
#1707=IFCFACE((#1139));
#1708=IFCFACE((#1140));
#1709=IFCFACE((#1141));
#1710=IFCFACE((#1142));
#1711=IFCFACE((#1143));
#1712=IFCFACE((#1144));
#1713=IFCFACE((#1145));
#1714=IFCFACE((#1146));
#1715=IFCFACE((#1147));
#1716=IFCFACE((#1148));
#1717=IFCFACE((#1149));
#1718=IFCFACE((#1150));
#1719=IFCFACE((#1151));
#1720=IFCFACE((#1152));
#1721=IFCFACE((#1153));
#1722=IFCFACE((#1154));
#1723=IFCFACE((#1155));
#1724=IFCFACE((#1156));
#1725=IFCFACE((#1157));
#1726=IFCFACE((#1158));
#1727=IFCFACE((#1159));
#1728=IFCFACE((#1160));
#1729=IFCFACE((#1161));
#1730=IFCCLOSEDSHELL((#1162,#1163,#1164,#1165,#1166,#1167,#1168,#1169,#1170,
#1171,#1172,#1173,#1174,#1175,#1176,#1177,#1178,#1179,#1180,#1181,#1182,
#1183,#1184,#1185,#1186,#1187,#1188,#1189,#1190,#1191,#1192,#1193,#1194,
#1195,#1196,#1197,#1198,#1199,#1200,#1201,#1202,#1203,#1204,#1205,#1206,
#1207,#1208,#1209,#1210,#1211,#1212,#1213,#1214,#1215,#1216,#1217,#1218,
#1219,#1220,#1221,#1222,#1223,#1224,#1225,#1226,#1227,#1228,#1229,#1230,
#1231,#1232,#1233,#1234,#1235,#1236,#1237,#1238,#1239,#1240,#1241,#1242,
#1243,#1244,#1245,#1246,#1247,#1248,#1249,#1250,#1251,#1252,#1253,#1254,
#1255,#1256,#1257,#1258,#1259,#1260,#1261,#1262,#1263,#1264,#1265,#1266,
#1267,#1268,#1269,#1270,#1271,#1272,#1273,#1274,#1275,#1276,#1277,#1278,
#1279,#1280,#1281,#1282,#1283,#1284,#1285,#1286,#1287,#1288,#1289,#1290,
#1291,#1292,#1293,#1294,#1295,#1296,#1297,#1298,#1299,#1300,#1301,#1302,
#1303,#1304,#1305,#1306,#1307,#1308,#1309,#1310,#1311,#1312,#1313,#1314,
#1315,#1316,#1317,#1318,#1319,#1320,#1321,#1322,#1323,#1324,#1325,#1326,
#1327,#1328,#1329,#1330,#1331,#1332,#1333,#1334,#1335,#1336,#1337,#1338,
#1339,#1340,#1341,#1342,#1343,#1344,#1345,#1346,#1347,#1348,#1349,#1350,
#1351,#1352,#1353,#1354,#1355,#1356,#1357,#1358,#1359,#1360,#1361,#1362,
#1363,#1364,#1365,#1366,#1367,#1368,#1369,#1370,#1371,#1372,#1373,#1374,
#1375,#1376,#1377,#1378,#1379,#1380,#1381,#1382,#1383,#1384,#1385,#1386,
#1387,#1388,#1389,#1390,#1391,#1392,#1393,#1394,#1395,#1396,#1397,#1398,
#1399,#1400,#1401,#1402,#1403,#1404,#1405,#1406,#1407,#1408,#1409,#1410,
#1411,#1412,#1413,#1414,#1415,#1416,#1417,#1418,#1419,#1420,#1421,#1422,
#1423,#1424,#1425,#1426,#1427,#1428,#1429,#1430,#1431,#1432,#1433,#1434,
#1435,#1436,#1437,#1438,#1439,#1440,#1441,#1442,#1443,#1444,#1445,#1446,
#1447,#1448,#1449,#1450,#1451,#1452,#1453,#1454,#1455,#1456,#1457,#1458,
#1459,#1460,#1461,#1462,#1463,#1464,#1465,#1466,#1467,#1468,#1469,#1470,
#1471,#1472,#1473,#1474,#1475,#1476,#1477,#1478,#1479,#1480,#1481,#1482,
#1483,#1484,#1485,#1486,#1487,#1488,#1489,#1490,#1491,#1492,#1493,#1494,
#1495,#1496,#1497,#1498,#1499,#1500,#1501,#1502,#1503,#1504,#1505,#1506,
#1507,#1508,#1509,#1510,#1511,#1512,#1513,#1514,#1515,#1516,#1517,#1518,
#1519,#1520,#1521,#1522,#1523,#1524,#1525,#1526,#1527,#1528,#1529,#1530,
#1531,#1532,#1533,#1534,#1535,#1536,#1537,#1538,#1539,#1540,#1541,#1542,
#1543,#1544,#1545,#1546,#1547,#1548,#1549,#1550,#1551,#1552,#1553,#1554,
#1555,#1556,#1557,#1558,#1559,#1560,#1561,#1562,#1563,#1564,#1565,#1566,
#1567,#1568,#1569,#1570,#1571,#1572,#1573,#1574,#1575,#1576,#1577,#1578,
#1579,#1580,#1581,#1582,#1583,#1584,#1585,#1586,#1587,#1588,#1589,#1590,
#1591,#1592,#1593,#1594,#1595,#1596,#1597,#1598,#1599,#1600,#1601,#1602,
#1603,#1604,#1605,#1606,#1607,#1608,#1609,#1610,#1611,#1612,#1613,#1614,
#1615,#1616,#1617,#1618,#1619,#1620,#1621,#1622,#1623,#1624,#1625,#1626,
#1627,#1628,#1629,#1630,#1631,#1632,#1633,#1634,#1635,#1636,#1637,#1638,
#1639,#1640,#1641,#1642,#1643,#1644,#1645,#1646,#1647,#1648,#1649,#1650,
#1651,#1652,#1653,#1654,#1655,#1656,#1657,#1658,#1659,#1660,#1661,#1662,
#1663,#1664,#1665,#1666,#1667,#1668,#1669,#1670,#1671,#1672,#1673,#1674,
#1675,#1676,#1677,#1678,#1679,#1680,#1681,#1682,#1683,#1684,#1685,#1686,
#1687,#1688,#1689,#1690,#1691,#1692,#1693,#1694,#1695,#1696,#1697,#1698,
#1699,#1700,#1701,#1702,#1703,#1704,#1705,#1706,#1707,#1708,#1709,#1710,
#1711,#1712,#1713,#1714,#1715,#1716,#1717,#1718,#1719,#1720,#1721,#1722,
#1723,#1724,#1725,#1726,#1727,#1728,#1729));
#1731=IFCSTYLEDITEM(#1736,(#1732),'');
#1732=IFCPRESENTATIONSTYLEASSIGNMENT((#1733));
#1733=IFCSURFACESTYLE('',.BOTH.,(#1734));
#1734=IFCSURFACESTYLERENDERING(#1735,0.,$,$,$,$,$,$,.NOTDEFINED.);
#1735=IFCCOLOURRGB('',0.200000002980232,0.200000002980232,0.200000002980232);
#1736=IFCFACETEDBREP(#1730);
#1737=IFCPROJECT('07hUkdHgGydfWsFJH56q5B',#2255,'Black_4107767_JCA',' ',
' ',' ',' ',(#2250),#1738);
#1738=IFCUNITASSIGNMENT((#2251,#2252,#2253,#2254));
#1739=IFCGEOMETRICREPRESENTATIONSUBCONTEXT('Body','Model',*,*,*,*,#2250,
1.,.MODEL_VIEW.,$);
#1740=IFCAXIS2PLACEMENT3D(#1746,#1742,#1743);
#1741=IFCAXIS2PLACEMENT3D(#2249,#1744,#1745);
#1742=IFCDIRECTION((0.,0.,1.));
#1743=IFCDIRECTION((1.,0.,0.));
#1744=IFCDIRECTION((0.,0.,1.));
#1745=IFCDIRECTION((1.,0.,0.));
#1746=IFCCARTESIANPOINT((0.,0.,0.));
#1747=IFCCARTESIANPOINT((2.21731087802709,12.9184402376762,3.2));
#1748=IFCCARTESIANPOINT((2.21731087802709,12.9184402376762,-3.2));
#1749=IFCCARTESIANPOINT((2.4,12.,-3.2));
#1750=IFCCARTESIANPOINT((2.4,12.,3.2));
#1751=IFCCARTESIANPOINT((1.69705627484771,13.6970562748477,3.2));
#1752=IFCCARTESIANPOINT((1.69705627484771,13.6970562748477,-3.2));
#1753=IFCCARTESIANPOINT((0.918440237676215,14.2173108780271,3.2));
#1754=IFCCARTESIANPOINT((0.918440237676215,14.2173108780271,-3.2));
#1755=IFCCARTESIANPOINT((-3.85949435922393E-16,14.4,3.2));
#1756=IFCCARTESIANPOINT((-3.85949435922393E-16,14.4,-3.2));
#1757=IFCCARTESIANPOINT((-0.918440237676215,14.2173108780271,3.2));
#1758=IFCCARTESIANPOINT((-0.918440237676215,14.2173108780271,-3.2));
#1759=IFCCARTESIANPOINT((-1.69705627484771,13.6970562748477,3.2));
#1760=IFCCARTESIANPOINT((-1.69705627484771,13.6970562748477,-3.2));
#1761=IFCCARTESIANPOINT((-2.21731087802709,12.9184402376762,3.2));
#1762=IFCCARTESIANPOINT((-2.21731087802709,12.9184402376762,-3.2));
#1763=IFCCARTESIANPOINT((-2.4,12.,3.2));
#1764=IFCCARTESIANPOINT((-2.4,12.,-3.2));
#1765=IFCCARTESIANPOINT((-2.21731087802709,11.0815597623238,3.2));
#1766=IFCCARTESIANPOINT((-2.21731087802709,11.0815597623238,-3.2));
#1767=IFCCARTESIANPOINT((-1.69705627484771,10.3029437251523,3.2));
#1768=IFCCARTESIANPOINT((-1.69705627484771,10.3029437251523,-3.2));
#1769=IFCCARTESIANPOINT((-0.918440237676215,9.78268912197291,3.2));
#1770=IFCCARTESIANPOINT((-0.918440237676215,9.78268912197291,-3.2));
#1771=IFCCARTESIANPOINT((-4.40872847693047E-16,9.6,3.2));
#1772=IFCCARTESIANPOINT((-4.40872847693047E-16,9.6,-3.2));
#1773=IFCCARTESIANPOINT((0.918440237676216,9.78268912197291,3.2));
#1774=IFCCARTESIANPOINT((0.918440237676216,9.78268912197291,-3.2));
#1775=IFCCARTESIANPOINT((1.69705627484771,10.3029437251523,3.2));
#1776=IFCCARTESIANPOINT((1.69705627484771,10.3029437251523,-3.2));
#1777=IFCCARTESIANPOINT((2.21731087802709,11.0815597623238,3.2));
#1778=IFCCARTESIANPOINT((2.21731087802709,11.0815597623238,-3.2));
#1779=IFCCARTESIANPOINT((2.86402655078499,13.1863186403318,-3.2));
#1780=IFCCARTESIANPOINT((3.1,12.,-3.2));
#1781=IFCCARTESIANPOINT((2.86402655078499,10.8136813596682,-3.2));
#1782=IFCCARTESIANPOINT((2.1920310216783,9.8079689783217,-3.2));
#1783=IFCCARTESIANPOINT((1.18631864033178,9.13597344921501,-3.2));
#1784=IFCCARTESIANPOINT((-2.1920310216783,14.1920310216783,-3.2));
#1785=IFCCARTESIANPOINT((-1.18631864033178,14.864026550785,-3.2));
#1786=IFCCARTESIANPOINT((4.98518021399757E-16,15.1,-3.2));
#1787=IFCCARTESIANPOINT((1.18631864033178,14.864026550785,-3.2));
#1788=IFCCARTESIANPOINT((2.1920310216783,14.1920310216783,-3.2));
#1789=IFCCARTESIANPOINT((5.69460761603519E-16,8.9,-3.2));
#1790=IFCCARTESIANPOINT((-1.18631864033178,9.13597344921501,-3.2));
#1791=IFCCARTESIANPOINT((-2.86402655078499,13.1863186403318,-3.2));
#1792=IFCCARTESIANPOINT((-2.1920310216783,9.8079689783217,-3.2));
#1793=IFCCARTESIANPOINT((-2.86402655078499,10.8136813596682,-3.2));
#1794=IFCCARTESIANPOINT((-3.1,12.,-3.2));
#1795=IFCCARTESIANPOINT((-2.86402655078499,13.1863186403318,-4.));
#1796=IFCCARTESIANPOINT((-3.1,12.,-4.));
#1797=IFCCARTESIANPOINT((-2.1920310216783,14.1920310216783,-4.));
#1798=IFCCARTESIANPOINT((-1.18631864033178,14.864026550785,-4.));
#1799=IFCCARTESIANPOINT((4.98518021399757E-16,15.1,-4.));
#1800=IFCCARTESIANPOINT((1.18631864033178,14.864026550785,-4.));
#1801=IFCCARTESIANPOINT((2.1920310216783,14.1920310216783,-4.));
#1802=IFCCARTESIANPOINT((2.86402655078499,13.1863186403318,-4.));
#1803=IFCCARTESIANPOINT((3.1,12.,-4.));
#1804=IFCCARTESIANPOINT((2.86402655078499,10.8136813596682,-4.));
#1805=IFCCARTESIANPOINT((2.1920310216783,9.8079689783217,-4.));
#1806=IFCCARTESIANPOINT((1.18631864033178,9.13597344921501,-4.));
#1807=IFCCARTESIANPOINT((5.69460761603519E-16,8.9,-4.));
#1808=IFCCARTESIANPOINT((-1.18631864033178,9.13597344921501,-4.));
#1809=IFCCARTESIANPOINT((-2.1920310216783,9.8079689783217,-4.));
#1810=IFCCARTESIANPOINT((-2.86402655078499,10.8136813596682,-4.));
#1811=IFCCARTESIANPOINT((-2.1920310216783,14.1920310216783,3.2));
#1812=IFCCARTESIANPOINT((-2.86402655078499,13.1863186403318,3.2));
#1813=IFCCARTESIANPOINT((-3.1,12.,3.2));
#1814=IFCCARTESIANPOINT((-2.86402655078499,10.8136813596682,3.2));
#1815=IFCCARTESIANPOINT((2.86402655078499,13.1863186403318,3.2));
#1816=IFCCARTESIANPOINT((2.1920310216783,14.1920310216783,3.2));
#1817=IFCCARTESIANPOINT((-2.1920310216783,9.8079689783217,3.2));
#1818=IFCCARTESIANPOINT((1.18631864033178,14.864026550785,3.2));
#1819=IFCCARTESIANPOINT((0.,15.1,3.2));
#1820=IFCCARTESIANPOINT((-1.18631864033178,14.864026550785,3.2));
#1821=IFCCARTESIANPOINT((-1.18631864033178,9.13597344921501,3.2));
#1822=IFCCARTESIANPOINT((-5.69460761603519E-16,8.9,3.2));
#1823=IFCCARTESIANPOINT((1.18631864033178,9.13597344921501,3.2));
#1824=IFCCARTESIANPOINT((2.1920310216783,9.8079689783217,3.2));
#1825=IFCCARTESIANPOINT((2.86402655078499,10.8136813596682,3.2));
#1826=IFCCARTESIANPOINT((3.1,12.,3.2));
#1827=IFCCARTESIANPOINT((2.86402655078499,13.1863186403318,4.));
#1828=IFCCARTESIANPOINT((3.1,12.,4.));
#1829=IFCCARTESIANPOINT((2.1920310216783,14.1920310216783,4.));
#1830=IFCCARTESIANPOINT((1.18631864033178,14.864026550785,4.));
#1831=IFCCARTESIANPOINT((0.,15.1,4.));
#1832=IFCCARTESIANPOINT((-1.18631864033178,14.864026550785,4.));
#1833=IFCCARTESIANPOINT((-2.1920310216783,14.1920310216783,4.));
#1834=IFCCARTESIANPOINT((-2.86402655078499,13.1863186403318,4.));
#1835=IFCCARTESIANPOINT((-3.1,12.,4.));
#1836=IFCCARTESIANPOINT((-2.86402655078499,10.8136813596682,4.));
#1837=IFCCARTESIANPOINT((-2.1920310216783,9.8079689783217,4.));
#1838=IFCCARTESIANPOINT((-1.18631864033178,9.13597344921501,4.));
#1839=IFCCARTESIANPOINT((-5.69460761603519E-16,8.9,4.));
#1840=IFCCARTESIANPOINT((1.18631864033178,9.13597344921501,4.));
#1841=IFCCARTESIANPOINT((2.1920310216783,9.8079689783217,4.));
#1842=IFCCARTESIANPOINT((2.86402655078499,10.8136813596682,4.));
#1843=IFCCARTESIANPOINT((-1.37766035651432,15.3259663170406,-4.));
#1844=IFCCARTESIANPOINT((5.78924153883589E-16,15.6,-4.));
#1845=IFCCARTESIANPOINT((1.37766035651432,15.3259663170406,-4.));
#1846=IFCCARTESIANPOINT((2.54558441227157,14.5455844122716,-4.));
#1847=IFCCARTESIANPOINT((3.32596631704063,13.3776603565143,-4.));
#1848=IFCCARTESIANPOINT((3.6,12.,-4.));
#1849=IFCCARTESIANPOINT((1.37766035651432,8.67403368295937,-4.));
#1850=IFCCARTESIANPOINT((6.61309271539571E-16,8.4,-4.));
#1851=IFCCARTESIANPOINT((-1.37766035651432,8.67403368295937,-4.));
#1852=IFCCARTESIANPOINT((3.32596631704063,10.6223396434857,-4.));
#1853=IFCCARTESIANPOINT((-2.54558441227157,9.45441558772843,-4.));
#1854=IFCCARTESIANPOINT((-3.32596631704063,13.3776603565143,-4.));
#1855=IFCCARTESIANPOINT((-2.54558441227157,14.5455844122716,-4.));
#1856=IFCCARTESIANPOINT((2.54558441227157,9.45441558772843,-4.));
#1857=IFCCARTESIANPOINT((-3.32596631704063,10.6223396434857,-4.));
#1858=IFCCARTESIANPOINT((-3.6,12.,-4.));
#1859=IFCCARTESIANPOINT((1.37766035651432,15.3259663170406,4.));
#1860=IFCCARTESIANPOINT((5.78924153883589E-16,15.6,4.));
#1861=IFCCARTESIANPOINT((-1.37766035651432,15.3259663170406,4.));
#1862=IFCCARTESIANPOINT((-2.54558441227157,14.5455844122716,4.));
#1863=IFCCARTESIANPOINT((-3.32596631704063,13.3776603565143,4.));
#1864=IFCCARTESIANPOINT((-3.6,12.,4.));
#1865=IFCCARTESIANPOINT((-1.37766035651432,8.67403368295937,4.));
#1866=IFCCARTESIANPOINT((6.61309271539571E-16,8.4,4.));
#1867=IFCCARTESIANPOINT((1.37766035651432,8.67403368295937,4.));
#1868=IFCCARTESIANPOINT((-3.32596631704063,10.6223396434857,4.));
#1869=IFCCARTESIANPOINT((2.54558441227157,9.45441558772843,4.));
#1870=IFCCARTESIANPOINT((3.32596631704063,13.3776603565143,4.));
#1871=IFCCARTESIANPOINT((2.54558441227157,14.5455844122716,4.));
#1872=IFCCARTESIANPOINT((-2.54558441227157,9.45441558772843,4.));
#1873=IFCCARTESIANPOINT((3.32596631704063,10.6223396434857,4.));
#1874=IFCCARTESIANPOINT((3.6,12.,4.));
#1875=IFCCARTESIANPOINT((-3.6,12.,0.));
#1876=IFCCARTESIANPOINT((1.90794976427734E-16,15.6,9.21571846612679E-16));
#1877=IFCCARTESIANPOINT((-1.56242977306435,8.75672800951846,3.24327199048154));
#1878=IFCCARTESIANPOINT((-2.40285088177295,9.3192710618261,1.89364465959652));
#1879=IFCCARTESIANPOINT((-1.89364465959652,8.93828317717305,2.40285088177294));
#1880=IFCCARTESIANPOINT((-2.54399818504823,9.45283034831378,1.83801767979531));
#1881=IFCCARTESIANPOINT((-0.536716173587148,8.44023375079065,3.55976624920935));
#1882=IFCCARTESIANPOINT((-1.38336461983121,8.67640220113815,3.32359779886185));
#1883=IFCCARTESIANPOINT((6.61309271539571E-16,8.4,3.6));
#1884=IFCCARTESIANPOINT((0.536716173587152,8.44023375079066,3.55976624920934));
#1885=IFCCARTESIANPOINT((1.56242977306435,8.75672800951846,3.24327199048154));
#1886=IFCCARTESIANPOINT((1.89364465959652,8.93828317717305,2.40285088177294));
#1887=IFCCARTESIANPOINT((2.40285088177295,9.3192710618261,1.89364465959652));
#1888=IFCCARTESIANPOINT((1.38336461983121,8.67640220113815,3.32359779886186));
#1889=IFCCARTESIANPOINT((3.24327199048154,10.4375702269357,3.24327199048154));
#1890=IFCCARTESIANPOINT((2.6807289381739,9.59714911822706,1.89364465959653));
#1891=IFCCARTESIANPOINT((3.06171682282695,10.1063553404035,2.40285088177295));
#1892=IFCCARTESIANPOINT((2.54558441227157,9.45441558772843,1.83739253834616));
#1893=IFCCARTESIANPOINT((3.55976624920935,11.4632838264129,3.55976624920935));
#1894=IFCCARTESIANPOINT((3.32359779886185,10.6166353801688,3.32359779886186));
#1895=IFCCARTESIANPOINT((3.6,12.,3.6));
#1896=IFCCARTESIANPOINT((3.55976624920934,12.5367161735872,3.55976624920935));
#1897=IFCCARTESIANPOINT((3.24327199048154,13.5624297730643,3.24327199048154));
#1898=IFCCARTESIANPOINT((3.06171682282694,13.8936446595965,2.40285088177294));
#1899=IFCCARTESIANPOINT((2.6807289381739,14.4028508817729,1.89364465959653));
#1900=IFCCARTESIANPOINT((3.32359779886185,13.3833646198312,3.32359779886186));
#1901=IFCCARTESIANPOINT((2.54716965168622,14.5439981850482,1.83801767979531));
#1902=IFCCARTESIANPOINT((1.56242977306435,15.2432719904815,1.56242977306435));
#1903=IFCCARTESIANPOINT((1.37242953493795,15.3281281783654,1.37242953493795));
#1904=IFCCARTESIANPOINT((0.528896636020663,15.5609364426238,0.528896636020664));
#1905=IFCCARTESIANPOINT((0.528896636020662,15.5609364426238,-0.528896636020661));
#1906=IFCCARTESIANPOINT((1.37242953493796,15.3281281783654,-1.37242953493796));
#1907=IFCCARTESIANPOINT((1.56242977306434,15.2432719904815,-1.56242977306435));
#1908=IFCCARTESIANPOINT((2.54716965168622,14.5439981850482,-1.83801767979531));
#1909=IFCCARTESIANPOINT((3.24327199048154,13.5624297730644,-3.24327199048154));
#1910=IFCCARTESIANPOINT((2.6807289381739,14.4028508817729,-1.89364465959652));
#1911=IFCCARTESIANPOINT((3.06171682282694,13.8936446595965,-2.40285088177294));
#1912=IFCCARTESIANPOINT((3.55976624920934,12.5367161735872,-3.55976624920934));
#1913=IFCCARTESIANPOINT((3.32359779886185,13.3833646198312,-3.32359779886185));
#1914=IFCCARTESIANPOINT((3.6,12.,-3.6));
#1915=IFCCARTESIANPOINT((3.55976624920935,11.4632838264128,-3.55976624920934));
#1916=IFCCARTESIANPOINT((3.24327199048154,10.4375702269356,-3.24327199048154));
#1917=IFCCARTESIANPOINT((3.06171682282695,10.1063553404035,-2.40285088177294));
#1918=IFCCARTESIANPOINT((2.6807289381739,9.59714911822706,-1.89364465959652));
#1919=IFCCARTESIANPOINT((3.32359779886185,10.6166353801688,-3.32359779886185));
#1920=IFCCARTESIANPOINT((1.56242977306435,8.75672800951846,-3.24327199048154));
#1921=IFCCARTESIANPOINT((2.40285088177294,9.3192710618261,-1.89364465959652));
#1922=IFCCARTESIANPOINT((1.89364465959652,8.93828317717305,-2.40285088177294));
#1923=IFCCARTESIANPOINT((2.54558441227157,9.45441558772843,-1.83739253834616));
#1924=IFCCARTESIANPOINT((0.536716173587152,8.44023375079066,-3.55976624920934));
#1925=IFCCARTESIANPOINT((1.38336461983121,8.67640220113815,-3.32359779886185));
#1926=IFCCARTESIANPOINT((6.61309271539571E-16,8.4,-3.6));
#1927=IFCCARTESIANPOINT((-0.536716173587151,8.44023375079066,-3.55976624920934));
#1928=IFCCARTESIANPOINT((-1.56242977306435,8.75672800951846,-3.24327199048154));
#1929=IFCCARTESIANPOINT((-1.89364465959652,8.93828317717305,-2.40285088177294));
#1930=IFCCARTESIANPOINT((-2.40285088177294,9.3192710618261,-1.89364465959652));
#1931=IFCCARTESIANPOINT((-1.38336461983121,8.67640220113815,-3.32359779886185));
#1932=IFCCARTESIANPOINT((-2.54399818504823,9.45283034831378,-1.83801767979531));
#1933=IFCCARTESIANPOINT((-3.24327199048154,10.4375702269357,-1.56242977306435));
#1934=IFCCARTESIANPOINT((-3.32812817836543,10.627570465062,-1.37242953493795));
#1935=IFCCARTESIANPOINT((-3.56093644262377,11.4711033639793,-0.52889663602066));
#1936=IFCCARTESIANPOINT((-3.56093644262377,11.4711033639793,0.528896636020666));
#1937=IFCCARTESIANPOINT((-3.32812817836543,10.627570465062,1.37242953493795));
#1938=IFCCARTESIANPOINT((-3.24327199048154,10.4375702269357,1.56242977306435));
#1939=IFCCARTESIANPOINT((-1.56242977306435,0.,3.24327199048154));
#1940=IFCCARTESIANPOINT((-1.89364465959652,0.,2.40285088177294));
#1941=IFCCARTESIANPOINT((-2.40285088177294,0.,1.89364465959652));
#1942=IFCCARTESIANPOINT((-3.24327199048154,0.,1.56242977306435));
#1943=IFCCARTESIANPOINT((-3.55976624920934,0.,0.536716173587155));
#1944=IFCCARTESIANPOINT((-3.55976624920935,0.,-0.536716173587148));
#1945=IFCCARTESIANPOINT((-3.24327199048154,0.,-1.56242977306435));
#1946=IFCCARTESIANPOINT((-2.40285088177294,0.,-1.89364465959652));
#1947=IFCCARTESIANPOINT((-1.89364465959652,0.,-2.40285088177294));
#1948=IFCCARTESIANPOINT((-1.56242977306435,0.,-3.24327199048154));
#1949=IFCCARTESIANPOINT((-0.536716173587153,0.,-3.55976624920934));
#1950=IFCCARTESIANPOINT((0.536716173587151,0.,-3.55976624920935));
#1951=IFCCARTESIANPOINT((1.56242977306435,0.,-3.24327199048154));
#1952=IFCCARTESIANPOINT((1.89364465959652,0.,-2.40285088177294));
#1953=IFCCARTESIANPOINT((2.40285088177294,0.,-1.89364465959652));
#1954=IFCCARTESIANPOINT((2.40285088177294,0.,1.89364465959652));
#1955=IFCCARTESIANPOINT((1.89364465959652,0.,2.40285088177294));
#1956=IFCCARTESIANPOINT((1.56242977306435,0.,3.24327199048154));
#1957=IFCCARTESIANPOINT((0.536716173587152,0.,3.55976624920934));
#1958=IFCCARTESIANPOINT((-0.536716173587151,0.,3.55976624920935));
#1959=IFCCARTESIANPOINT((3.24327199048153,8.75672800951846,-1.56242977306435));
#1960=IFCCARTESIANPOINT((3.24327199048154,0.,-1.56242977306435));
#1961=IFCCARTESIANPOINT((3.24327199048154,0.,1.56242977306435));
#1962=IFCCARTESIANPOINT((3.24327199048154,8.75672800951846,1.56242977306435));
#1963=IFCCARTESIANPOINT((3.55976624920935,0.,0.53671617358715));
#1964=IFCCARTESIANPOINT((3.55976624920934,0.,-0.536716173587156));
#1965=IFCCARTESIANPOINT((3.6,8.4,1.54222353668404E-15));
#1966=IFCCARTESIANPOINT((3.55976624920934,8.44023375079066,-0.53671617358715));
#1967=IFCCARTESIANPOINT((3.55976624920935,8.44023375079066,0.53671617358715));
#1968=IFCCARTESIANPOINT((12.,9.59714911822706,1.89364465959652));
#1969=IFCCARTESIANPOINT((12.,8.75672800951846,1.56242977306435));
#1970=IFCCARTESIANPOINT((12.,8.75672800951846,-1.56242977306435));
#1971=IFCCARTESIANPOINT((12.,9.59714911822706,-1.89364465959652));
#1972=IFCCARTESIANPOINT((12.,10.4375702269357,3.24327199048154));
#1973=IFCCARTESIANPOINT((12.,10.1063553404035,2.40285088177295));
#1974=IFCCARTESIANPOINT((12.,8.44023375079066,0.536716173587156));
#1975=IFCCARTESIANPOINT((12.,8.44023375079066,-0.53671617358715));
#1976=IFCCARTESIANPOINT((12.,10.1063553404035,-2.40285088177294));
#1977=IFCCARTESIANPOINT((12.,10.4375702269356,-3.24327199048154));
#1978=IFCCARTESIANPOINT((12.,11.4632838264128,-3.55976624920934));
#1979=IFCCARTESIANPOINT((12.,12.5367161735872,-3.55976624920934));
#1980=IFCCARTESIANPOINT((12.,13.5624297730644,-3.24327199048154));
#1981=IFCCARTESIANPOINT((12.,13.8936446595965,-2.40285088177294));
#1982=IFCCARTESIANPOINT((12.,14.4028508817729,-1.89364465959652));
#1983=IFCCARTESIANPOINT((12.,15.2432719904815,-1.56242977306435));
#1984=IFCCARTESIANPOINT((12.,15.5597662492093,-0.536716173587151));
#1985=IFCCARTESIANPOINT((12.,15.5597662492093,0.536716173587152));
#1986=IFCCARTESIANPOINT((12.,15.2432719904815,1.56242977306435));
#1987=IFCCARTESIANPOINT((12.,14.4028508817729,1.89364465959652));
#1988=IFCCARTESIANPOINT((12.,13.8936446595965,2.40285088177295));
#1989=IFCCARTESIANPOINT((12.,13.5624297730644,3.24327199048154));
#1990=IFCCARTESIANPOINT((12.,11.4632838264129,3.55976624920935));
#1991=IFCCARTESIANPOINT((12.,12.5367161735872,3.55976624920935));
#1992=IFCCARTESIANPOINT((1.4,0.,0.9));
#1993=IFCCARTESIANPOINT((2.15638586528478,0.,0.9));
#1994=IFCCARTESIANPOINT((-0.9,0.,1.4));
#1995=IFCCARTESIANPOINT((-0.9,0.,2.15638586528478));
#1996=IFCCARTESIANPOINT((0.895418081857297,0.,2.18630892753907));
#1997=IFCCARTESIANPOINT((0.9,0.,2.15638586528478));
#1998=IFCCARTESIANPOINT((2.18630892753907,0.,0.895418081857297));
#1999=IFCCARTESIANPOINT((2.15638586528478,0.,-0.9));
#2000=IFCCARTESIANPOINT((1.4,0.,-0.9));
#2001=IFCCARTESIANPOINT((1.20865828381746,0.,-0.938060233744357));
#2002=IFCCARTESIANPOINT((1.04644660940673,0.,-1.04644660940673));
#2003=IFCCARTESIANPOINT((0.938060233744357,0.,-1.20865828381746));
#2004=IFCCARTESIANPOINT((0.9,0.,-1.4));
#2005=IFCCARTESIANPOINT((0.9,0.,-2.15638586528478));
#2006=IFCCARTESIANPOINT((-1.4,0.,-0.9));
#2007=IFCCARTESIANPOINT((-2.15638586528478,0.,-0.9));
#2008=IFCCARTESIANPOINT((-2.18630892753907,0.,0.895418081857297));
#2009=IFCCARTESIANPOINT((-2.15638586528478,0.,0.9));
#2010=IFCCARTESIANPOINT((-2.23543793189619,0.,0.86124353651175));
#2011=IFCCARTESIANPOINT((-2.2134898893568,0.,0.882092206906518));
#2012=IFCCARTESIANPOINT((-0.895418081857297,0.,2.18630892753907));
#2013=IFCCARTESIANPOINT((0.882092206906518,0.,2.2134898893568));
#2014=IFCCARTESIANPOINT((0.834782608695652,0.,2.25014177247108));
#2015=IFCCARTESIANPOINT((0.86124353651175,0.,2.23543793189619));
#2016=IFCCARTESIANPOINT((2.2134898893568,0.,0.882092206906518));
#2017=IFCCARTESIANPOINT((2.18630892753907,0.,-0.895418081857298));
#2018=IFCCARTESIANPOINT((-2.18630892753907,0.,-0.895418081857297));
#2019=IFCCARTESIANPOINT((-0.882092206906518,0.,2.2134898893568));
#2020=IFCCARTESIANPOINT((2.25014177247108,0.,0.834782608695652));
#2021=IFCCARTESIANPOINT((2.4,0.,-1.46957615897682E-16));
#2022=IFCCARTESIANPOINT((2.23543793189619,0.,0.86124353651175));
#2023=IFCCARTESIANPOINT((0.895418081857297,0.,-2.18630892753907));
#2024=IFCCARTESIANPOINT((-2.2134898893568,0.,-0.882092206906518));
#2025=IFCCARTESIANPOINT((-2.25014177247108,0.,0.834782608695652));
#2026=IFCCARTESIANPOINT((-0.834782608695652,0.,2.25014177247108));
#2027=IFCCARTESIANPOINT((2.93915231795365E-16,0.,2.4));
#2028=IFCCARTESIANPOINT((-0.86124353651175,0.,2.23543793189619));
#2029=IFCCARTESIANPOINT((2.2134898893568,0.,-0.882092206906518));
#2030=IFCCARTESIANPOINT((-2.25014177247108,0.,-0.834782608695652));
#2031=IFCCARTESIANPOINT((-2.4,0.,2.57250105497335E-15));
#2032=IFCCARTESIANPOINT((-2.23543793189619,0.,-0.86124353651175));
#2033=IFCCARTESIANPOINT((2.25014177247108,0.,-0.834782608695652));
#2034=IFCCARTESIANPOINT((0.882092206906518,0.,-2.2134898893568));
#2035=IFCCARTESIANPOINT((2.23543793189619,0.,-0.86124353651175));
#2036=IFCCARTESIANPOINT((-0.895418081857297,0.,-2.18630892753907));
#2037=IFCCARTESIANPOINT((-0.9,0.,-2.15638586528478));
#2038=IFCCARTESIANPOINT((-0.86124353651175,0.,-2.23543793189619));
#2039=IFCCARTESIANPOINT((-0.882092206906518,0.,-2.2134898893568));
#2040=IFCCARTESIANPOINT((0.9,0.,1.4));
#2041=IFCCARTESIANPOINT((0.938060233744357,0.,1.20865828381746));
#2042=IFCCARTESIANPOINT((1.04644660940673,0.,1.04644660940673));
#2043=IFCCARTESIANPOINT((1.20865828381746,0.,0.938060233744357));
#2044=IFCCARTESIANPOINT((0.86124353651175,0.,-2.23543793189619));
#2045=IFCCARTESIANPOINT((-0.834782608695652,0.,-2.25014177247108));
#2046=IFCCARTESIANPOINT((-1.4,0.,0.9));
#2047=IFCCARTESIANPOINT((-1.20865828381746,0.,0.938060233744357));
#2048=IFCCARTESIANPOINT((-1.04644660940673,0.,1.04644660940673));
#2049=IFCCARTESIANPOINT((-0.938060233744357,0.,1.20865828381746));
#2050=IFCCARTESIANPOINT((0.834782608695652,0.,-2.25014177247108));
#2051=IFCCARTESIANPOINT((-5.87830463590729E-16,0.,-2.4));
#2052=IFCCARTESIANPOINT((-0.9,0.,-1.4));
#2053=IFCCARTESIANPOINT((-0.938060233744357,0.,-1.20865828381746));
#2054=IFCCARTESIANPOINT((-1.04644660940673,0.,-1.04644660940673));
#2055=IFCCARTESIANPOINT((-1.20865828381746,0.,-0.938060233744357));
#2056=IFCCARTESIANPOINT((0.895418081857297,8.,2.18630892753907));
#2057=IFCCARTESIANPOINT((0.9,8.,2.15638586528478));
#2058=IFCCARTESIANPOINT((0.882092206906518,8.,2.2134898893568));
#2059=IFCCARTESIANPOINT((0.86124353651175,8.,2.23543793189619));
#2060=IFCCARTESIANPOINT((0.834782608695652,8.,2.25014177247108));
#2061=IFCCARTESIANPOINT((-0.9,8.,-1.4));
#2062=IFCCARTESIANPOINT((-0.9,8.,-2.15638586528478));
#2063=IFCCARTESIANPOINT((-0.895418081857297,8.,-2.18630892753907));
#2064=IFCCARTESIANPOINT((-0.882092206906518,8.,-2.2134898893568));
#2065=IFCCARTESIANPOINT((-0.86124353651175,8.,-2.23543793189619));
#2066=IFCCARTESIANPOINT((-0.834782608695652,8.,-2.25014177247108));
#2067=IFCCARTESIANPOINT((-5.87830463590729E-16,8.,-2.4));
#2068=IFCCARTESIANPOINT((0.834782608695652,8.,-2.25014177247108));
#2069=IFCCARTESIANPOINT((0.86124353651175,8.,-2.23543793189619));
#2070=IFCCARTESIANPOINT((0.882092206906518,8.,-2.2134898893568));
#2071=IFCCARTESIANPOINT((0.895418081857297,8.,-2.18630892753907));
#2072=IFCCARTESIANPOINT((0.9,8.,-2.15638586528478));
#2073=IFCCARTESIANPOINT((0.9,8.,-1.4));
#2074=IFCCARTESIANPOINT((-1.4,8.,0.9));
#2075=IFCCARTESIANPOINT((-2.15638586528478,8.,0.9));
#2076=IFCCARTESIANPOINT((-2.18630892753907,8.,0.895418081857297));
#2077=IFCCARTESIANPOINT((-2.2134898893568,8.,0.882092206906518));
#2078=IFCCARTESIANPOINT((-2.23543793189619,8.,0.86124353651175));
#2079=IFCCARTESIANPOINT((-2.25014177247108,8.,0.834782608695652));
#2080=IFCCARTESIANPOINT((-2.4,8.,2.57250105497335E-15));
#2081=IFCCARTESIANPOINT((-2.25014177247108,8.,-0.834782608695652));
#2082=IFCCARTESIANPOINT((-2.23543793189619,8.,-0.86124353651175));
#2083=IFCCARTESIANPOINT((-2.2134898893568,8.,-0.882092206906518));
#2084=IFCCARTESIANPOINT((-2.18630892753907,8.,-0.895418081857297));
#2085=IFCCARTESIANPOINT((-2.15638586528478,8.,-0.9));
#2086=IFCCARTESIANPOINT((-1.4,8.,-0.9));
#2087=IFCCARTESIANPOINT((0.9,8.,1.4));
#2088=IFCCARTESIANPOINT((2.93915231795365E-16,8.,2.4));
#2089=IFCCARTESIANPOINT((-0.834782608695652,8.,2.25014177247108));
#2090=IFCCARTESIANPOINT((-0.86124353651175,8.,2.23543793189619));
#2091=IFCCARTESIANPOINT((-0.882092206906518,8.,2.2134898893568));
#2092=IFCCARTESIANPOINT((-0.895418081857297,8.,2.18630892753907));
#2093=IFCCARTESIANPOINT((-0.9,8.,2.15638586528478));
#2094=IFCCARTESIANPOINT((-0.9,8.,1.4));
#2095=IFCCARTESIANPOINT((1.4,8.,-0.9));
#2096=IFCCARTESIANPOINT((2.15638586528478,8.,-0.9));
#2097=IFCCARTESIANPOINT((2.18630892753907,8.,-0.895418081857298));
#2098=IFCCARTESIANPOINT((2.2134898893568,8.,-0.882092206906518));
#2099=IFCCARTESIANPOINT((2.23543793189619,8.,-0.86124353651175));
#2100=IFCCARTESIANPOINT((2.25014177247108,8.,-0.834782608695652));
#2101=IFCCARTESIANPOINT((2.4,8.,-1.46957615897682E-16));
#2102=IFCCARTESIANPOINT((2.25014177247108,8.,0.834782608695652));
#2103=IFCCARTESIANPOINT((2.23543793189619,8.,0.86124353651175));
#2104=IFCCARTESIANPOINT((2.2134898893568,8.,0.882092206906518));
#2105=IFCCARTESIANPOINT((2.18630892753907,8.,0.895418081857297));
#2106=IFCCARTESIANPOINT((2.15638586528478,8.,0.9));
#2107=IFCCARTESIANPOINT((1.4,8.,0.9));
#2108=IFCCARTESIANPOINT((0.938060233744357,8.,-1.20865828381746));
#2109=IFCCARTESIANPOINT((-0.938060233744357,8.,-1.20865828381746));
#2110=IFCCARTESIANPOINT((-1.20865828381746,8.,-0.938060233744357));
#2111=IFCCARTESIANPOINT((-1.20865828381746,8.,0.938060233744357));
#2112=IFCCARTESIANPOINT((-0.938060233744357,8.,1.20865828381746));
#2113=IFCCARTESIANPOINT((0.938060233744357,8.,1.20865828381746));
#2114=IFCCARTESIANPOINT((1.20865828381746,8.,0.938060233744357));
#2115=IFCCARTESIANPOINT((1.20865828381746,8.,-0.938060233744357));
#2116=IFCCARTESIANPOINT((-1.04644660940673,8.,-1.04644660940673));
#2117=IFCCARTESIANPOINT((-1.04644660940673,8.,1.04644660940673));
#2118=IFCCARTESIANPOINT((1.04644660940673,8.,-1.04644660940673));
#2119=IFCCARTESIANPOINT((1.04644660940673,8.,1.04644660940673));
#2120=IFCCARTESIANPOINT((12.,9.81369107246093,0.895418081857298));
#2121=IFCCARTESIANPOINT((12.,9.84361413471522,0.900000000000001));
#2122=IFCCARTESIANPOINT((12.,9.76456206810381,0.86124353651175));
#2123=IFCCARTESIANPOINT((12.,9.7865101106432,0.882092206906519));
#2124=IFCCARTESIANPOINT((12.,11.1,1.4));
#2125=IFCCARTESIANPOINT((12.,11.1,2.15638586528478));
#2126=IFCCARTESIANPOINT((12.,12.8954180818573,2.18630892753907));
#2127=IFCCARTESIANPOINT((12.,12.9,2.15638586528478));
#2128=IFCCARTESIANPOINT((12.,14.1863089275391,0.895418081857298));
#2129=IFCCARTESIANPOINT((12.,14.2134898893568,0.882092206906519));
#2130=IFCCARTESIANPOINT((12.,11.1179077930935,2.2134898893568));
#2131=IFCCARTESIANPOINT((12.,11.1387564634883,2.23543793189619));
#2132=IFCCARTESIANPOINT((12.,11.1045819181427,2.18630892753907));
#2133=IFCCARTESIANPOINT((12.,12.8820922069065,2.2134898893568));
#2134=IFCCARTESIANPOINT((12.,12.8347826086957,2.25014177247108));
#2135=IFCCARTESIANPOINT((12.,12.8612435365117,2.23543793189619));
#2136=IFCCARTESIANPOINT((12.,14.2354379318962,0.861243536511751));
#2137=IFCCARTESIANPOINT((12.,13.4,0.900000000000001));
#2138=IFCCARTESIANPOINT((12.,14.1563858652848,0.900000000000001));
#2139=IFCCARTESIANPOINT((12.,13.4,-0.899999999999999));
#2140=IFCCARTESIANPOINT((12.,13.2086582838175,-0.938060233744356));
#2141=IFCCARTESIANPOINT((12.,13.0464466094067,-1.04644660940673));
#2142=IFCCARTESIANPOINT((12.,12.9380602337444,-1.20865828381745));
#2143=IFCCARTESIANPOINT((12.,12.9,-1.4));
#2144=IFCCARTESIANPOINT((12.,12.9,-2.15638586528478));
#2145=IFCCARTESIANPOINT((12.,11.1045819181427,-2.18630892753907));
#2146=IFCCARTESIANPOINT((12.,11.1,-2.15638586528478));
#2147=IFCCARTESIANPOINT((12.,9.81369107246093,-0.895418081857297));
#2148=IFCCARTESIANPOINT((12.,9.7865101106432,-0.882092206906518));
#2149=IFCCARTESIANPOINT((12.,9.74985822752892,0.834782608695653));
#2150=IFCCARTESIANPOINT((12.,11.1652173913043,2.25014177247108));
#2151=IFCCARTESIANPOINT((12.,12.,2.4));
#2152=IFCCARTESIANPOINT((12.,14.2354379318962,-0.861243536511749));
#2153=IFCCARTESIANPOINT((12.,14.2134898893568,-0.882092206906518));
#2154=IFCCARTESIANPOINT((12.,12.8820922069065,-2.2134898893568));
#2155=IFCCARTESIANPOINT((12.,12.8612435365117,-2.23543793189619));
#2156=IFCCARTESIANPOINT((12.,12.8954180818573,-2.18630892753907));
#2157=IFCCARTESIANPOINT((12.,11.1179077930935,-2.2134898893568));
#2158=IFCCARTESIANPOINT((12.,11.1652173913043,-2.25014177247108));
#2159=IFCCARTESIANPOINT((12.,11.1387564634883,-2.23543793189619));
#2160=IFCCARTESIANPOINT((12.,9.76456206810381,-0.861243536511749));
#2161=IFCCARTESIANPOINT((12.,11.0619397662556,-1.20865828381745));
#2162=IFCCARTESIANPOINT((12.,10.9535533905933,-1.04644660940673));
#2163=IFCCARTESIANPOINT((12.,10.7913417161825,-0.938060233744356));
#2164=IFCCARTESIANPOINT((12.,10.6,-0.899999999999999));
#2165=IFCCARTESIANPOINT((12.,9.84361413471522,-0.899999999999999));
#2166=IFCCARTESIANPOINT((12.,9.6,1.32178711283752E-15));
#2167=IFCCARTESIANPOINT((12.,14.2501417724711,0.834782608695653));
#2168=IFCCARTESIANPOINT((12.,14.1863089275391,-0.895418081857297));
#2169=IFCCARTESIANPOINT((12.,14.1563858652848,-0.899999999999999));
#2170=IFCCARTESIANPOINT((12.,14.2501417724711,-0.834782608695651));
#2171=IFCCARTESIANPOINT((12.,12.8347826086957,-2.25014177247108));
#2172=IFCCARTESIANPOINT((12.,12.,-2.4));
#2173=IFCCARTESIANPOINT((12.,9.74985822752892,-0.834782608695651));
#2174=IFCCARTESIANPOINT((12.,14.4,7.3395664924679E-16));
#2175=IFCCARTESIANPOINT((12.,12.9,1.4));
#2176=IFCCARTESIANPOINT((12.,12.9380602337444,1.20865828381746));
#2177=IFCCARTESIANPOINT((12.,13.0464466094067,1.04644660940673));
#2178=IFCCARTESIANPOINT((12.,13.2086582838175,0.938060233744358));
#2179=IFCCARTESIANPOINT((12.,11.1,-1.4));
#2180=IFCCARTESIANPOINT((12.,10.6,0.900000000000001));
#2181=IFCCARTESIANPOINT((12.,10.7913417161825,0.938060233744358));
#2182=IFCCARTESIANPOINT((12.,10.9535533905933,1.04644660940673));
#2183=IFCCARTESIANPOINT((12.,11.0619397662556,1.20865828381746));
#2184=IFCCARTESIANPOINT((4.,12.8954180818573,2.18630892753907));
#2185=IFCCARTESIANPOINT((4.,12.9,2.15638586528478));
#2186=IFCCARTESIANPOINT((4.,12.8820922069065,2.2134898893568));
#2187=IFCCARTESIANPOINT((4.,12.8612435365117,2.23543793189619));
#2188=IFCCARTESIANPOINT((4.,12.8347826086957,2.25014177247108));
#2189=IFCCARTESIANPOINT((4.,12.9,1.4));
#2190=IFCCARTESIANPOINT((4.,12.,2.4));
#2191=IFCCARTESIANPOINT((4.,11.1652173913043,2.25014177247108));
#2192=IFCCARTESIANPOINT((4.,11.1387564634883,2.23543793189619));
#2193=IFCCARTESIANPOINT((4.,11.1179077930935,2.2134898893568));
#2194=IFCCARTESIANPOINT((4.,11.1045819181427,2.18630892753907));
#2195=IFCCARTESIANPOINT((4.,11.1,2.15638586528478));
#2196=IFCCARTESIANPOINT((4.,11.1,1.4));
#2197=IFCCARTESIANPOINT((4.,11.0619397662556,1.20865828381746));
#2198=IFCCARTESIANPOINT((4.,12.9380602337444,1.20865828381746));
#2199=IFCCARTESIANPOINT((4.,11.1,-1.4));
#2200=IFCCARTESIANPOINT((4.,11.1,-2.15638586528478));
#2201=IFCCARTESIANPOINT((4.,11.1045819181427,-2.18630892753907));
#2202=IFCCARTESIANPOINT((4.,11.1179077930935,-2.2134898893568));
#2203=IFCCARTESIANPOINT((4.,11.1387564634883,-2.23543793189619));
#2204=IFCCARTESIANPOINT((4.,11.1652173913043,-2.25014177247108));
#2205=IFCCARTESIANPOINT((4.,12.,-2.4));
#2206=IFCCARTESIANPOINT((4.,12.8347826086957,-2.25014177247108));
#2207=IFCCARTESIANPOINT((4.,12.8612435365117,-2.23543793189619));
#2208=IFCCARTESIANPOINT((4.,12.8820922069065,-2.2134898893568));
#2209=IFCCARTESIANPOINT((4.,12.8954180818573,-2.18630892753907));
#2210=IFCCARTESIANPOINT((4.,12.9,-2.15638586528478));
#2211=IFCCARTESIANPOINT((4.,12.9,-1.4));
#2212=IFCCARTESIANPOINT((4.,10.6,0.900000000000001));
#2213=IFCCARTESIANPOINT((4.,9.84361413471522,0.900000000000001));
#2214=IFCCARTESIANPOINT((4.,9.81369107246093,0.895418081857298));
#2215=IFCCARTESIANPOINT((4.,9.7865101106432,0.882092206906519));
#2216=IFCCARTESIANPOINT((4.,9.76456206810381,0.86124353651175));
#2217=IFCCARTESIANPOINT((4.,9.74985822752892,0.834782608695653));
#2218=IFCCARTESIANPOINT((4.,9.6,1.32178711283752E-15));
#2219=IFCCARTESIANPOINT((4.,9.74985822752892,-0.834782608695651));
#2220=IFCCARTESIANPOINT((4.,9.76456206810381,-0.861243536511749));
#2221=IFCCARTESIANPOINT((4.,9.7865101106432,-0.882092206906518));
#2222=IFCCARTESIANPOINT((4.,9.81369107246093,-0.895418081857297));
#2223=IFCCARTESIANPOINT((4.,9.84361413471522,-0.899999999999999));
#2224=IFCCARTESIANPOINT((4.,10.6,-0.899999999999999));
#2225=IFCCARTESIANPOINT((4.,13.0464466094067,1.04644660940673));
#2226=IFCCARTESIANPOINT((4.,13.4,-0.899999999999999));
#2227=IFCCARTESIANPOINT((4.,14.1563858652848,-0.899999999999999));
#2228=IFCCARTESIANPOINT((4.,14.1863089275391,-0.895418081857297));
#2229=IFCCARTESIANPOINT((4.,14.2134898893568,-0.882092206906518));
#2230=IFCCARTESIANPOINT((4.,14.2354379318962,-0.861243536511749));
#2231=IFCCARTESIANPOINT((4.,14.2501417724711,-0.834782608695651));
#2232=IFCCARTESIANPOINT((4.,14.4,7.3395664924679E-16));
#2233=IFCCARTESIANPOINT((4.,14.2501417724711,0.834782608695653));
#2234=IFCCARTESIANPOINT((4.,14.2354379318962,0.861243536511751));
#2235=IFCCARTESIANPOINT((4.,14.2134898893568,0.882092206906519));
#2236=IFCCARTESIANPOINT((4.,14.1863089275391,0.895418081857298));
#2237=IFCCARTESIANPOINT((4.,14.1563858652848,0.900000000000001));
#2238=IFCCARTESIANPOINT((4.,13.4,0.900000000000001));
#2239=IFCCARTESIANPOINT((4.,12.9380602337444,-1.20865828381745));
#2240=IFCCARTESIANPOINT((4.,11.0619397662556,-1.20865828381745));
#2241=IFCCARTESIANPOINT((4.,10.7913417161825,-0.938060233744356));
#2242=IFCCARTESIANPOINT((4.,10.7913417161825,0.938060233744358));
#2243=IFCCARTESIANPOINT((4.,13.2086582838175,0.938060233744358));
#2244=IFCCARTESIANPOINT((4.,13.2086582838175,-0.938060233744356));
#2245=IFCCARTESIANPOINT((4.,10.9535533905933,1.04644660940673));
#2246=IFCCARTESIANPOINT((4.,13.0464466094067,-1.04644660940673));
#2247=IFCCARTESIANPOINT((4.,10.9535533905933,-1.04644660940673));
#2248=IFCCARTESIANPOINT((0.,0.,0.));
#2249=IFCCARTESIANPOINT((0.,0.,0.));
#2250=IFCGEOMETRICREPRESENTATIONCONTEXT($,'Model',3,0.005,#1740,$);
#2251=IFCSIUNIT(*,.LENGTHUNIT.,.MILLI.,.METRE.);
#2252=IFCSIUNIT(*,.AREAUNIT.,$,.SQUARE_METRE.);
#2253=IFCSIUNIT(*,.VOLUMEUNIT.,$,.CUBIC_METRE.);
#2254=IFCSIUNIT(*,.PLANEANGLEUNIT.,$,.RADIAN.);
#2255=IFCOWNERHISTORY(#2257,#2256,$,.NOCHANGE.,0,$,$,0);
#2256=IFCAPPLICATION(#2258,' ',' ',' ');
#2257=IFCPERSONANDORGANIZATION(#2259,#2258,$);
#2258=IFCORGANIZATION($,' ',$,$,$);
#2259=IFCPERSON(' ',' ',' ',$,$,$,$,$);
ENDSEC;
END-ISO-10303-21;
