ISO-10303-21;
HEADER;
/* Generated by software containing ST-Developer
 * from STEP Tools, Inc. (www.steptools.com) 
 */
/* OPTION: strings as raw bytes, not using required /X/ escapes */

FILE_DESCRIPTION(
/* description */ ('Unknown'),
/* implementation_level */ '2;1');

FILE_NAME(
/* name */ 'Black_6019986_AVV',
/* time_stamp */ '2025-07-21T23:49:20+02:00',
/* author */ ('Unknown'),
/* organization */ ('Unknown'),
/* preprocessor_version */ 'ST-DEVELOPER v19.4',
/* originating_system */ 'Unknown',
/* authorisation */ 'OpenTools');

FILE_SCHEMA (('IFC2X3'));
ENDSEC;

DATA;
#10=IFCPROPERTYSINGLEVALUE('ProjectName',$,IFCTEXT(''),$);
#11=IFCPROPERTYSINGLEVALUE('PartNumber',$,IFCTEXT(''),$);
#12=IFCRELDEFINESBYPROPERTIES('3cRq1JQpSwDOm5lsE5cG83',#2130,$,$,(#14),
#13);
#13=IFCPROPERTYSET('1jOd4kXgWorA4TVRi95rqH',#2130,
'empty property set name',$,(#10,#11));
#14=IFCBUILDINGELEMENTPROXY('2GP_XOK7Wq1Pa1NGQTVWHM',#2130,
'Black_6019986_AVV',' ','Black_6019986_AVV',#19,#15,' ',.ELEMENT.);
#15=IFCPRODUCTDEFINITIONSHAPE(' ',' ',(#25));
#16=IFCRELCONTAINEDINSPATIALSTRUCTURE('3HZhfx2I0vj9Cvp1GHER_f',#2130,
' ',' ',(#14),#20);
#17=IFCRELAGGREGATES('1jF0XzMGqvEA6wZwPLSawz',#2130,$,$,#1635,(#20));
#18=IFCLOCALPLACEMENT($,#1638);
#19=IFCLOCALPLACEMENT(#18,#1639);
#20=IFCBUILDING('3G2N19bOG__grq1LV0cQPU',#2130,'Default Building',$,$,#18,
$,$,.ELEMENT.,0.,0.,$);
#21=IFCCARTESIANTRANSFORMATIONOPERATOR3D($,$,#2123,1.,$);
#22=IFCMAPPEDITEM(#23,#21);
#23=IFCREPRESENTATIONMAP(#1638,#24);
#24=IFCSHAPEREPRESENTATION(#1637,'Body','Brep',(#1634));
#25=IFCSHAPEREPRESENTATION(#1637,'Body','MappedRepresentation',(#22));
#26=IFCPOLYLOOP((#1645,#1646,#1647,#1648));
#27=IFCPOLYLOOP((#1646,#1649,#1650,#1647));
#28=IFCPOLYLOOP((#1651,#1652,#1653,#1654));
#29=IFCPOLYLOOP((#1655,#1656,#1657,#1658));
#30=IFCPOLYLOOP((#1659,#1660,#1661,#1662));
#31=IFCPOLYLOOP((#1663,#1664,#1665,#1666));
#32=IFCPOLYLOOP((#1649,#1667,#1668,#1650));
#33=IFCPOLYLOOP((#1658,#1653,#1652,#1655));
#34=IFCPOLYLOOP((#1669,#1670,#1671,#1672));
#35=IFCPOLYLOOP((#1666,#1661,#1660,#1663));
#36=IFCPOLYLOOP((#1673,#1674,#1675,#1676));
#37=IFCPOLYLOOP((#1654,#1668,#1667,#1651));
#38=IFCPOLYLOOP((#1662,#1671,#1670,#1659));
#39=IFCPOLYLOOP((#1648,#1675,#1674,#1645));
#40=IFCPOLYLOOP((#1676,#1665,#1664,#1673));
#41=IFCPOLYLOOP((#1672,#1657,#1656,#1669));
#42=IFCPOLYLOOP((#1672,#1677,#1678,#1657));
#43=IFCPOLYLOOP((#1671,#1679,#1677,#1672));
#44=IFCPOLYLOOP((#1662,#1680,#1679,#1671));
#45=IFCPOLYLOOP((#1661,#1681,#1680,#1662));
#46=IFCPOLYLOOP((#1666,#1682,#1681,#1661));
#47=IFCPOLYLOOP((#1665,#1683,#1682,#1666));
#48=IFCPOLYLOOP((#1676,#1684,#1683,#1665));
#49=IFCPOLYLOOP((#1675,#1685,#1684,#1676));
#50=IFCPOLYLOOP((#1648,#1686,#1685,#1675));
#51=IFCPOLYLOOP((#1647,#1687,#1686,#1648));
#52=IFCPOLYLOOP((#1650,#1688,#1687,#1647));
#53=IFCPOLYLOOP((#1668,#1689,#1688,#1650));
#54=IFCPOLYLOOP((#1654,#1690,#1689,#1668));
#55=IFCPOLYLOOP((#1653,#1691,#1690,#1654));
#56=IFCPOLYLOOP((#1658,#1692,#1691,#1653));
#57=IFCPOLYLOOP((#1657,#1678,#1692,#1658));
#58=IFCPOLYLOOP((#1693,#1669,#1656,#1694));
#59=IFCPOLYLOOP((#1695,#1670,#1669,#1693));
#60=IFCPOLYLOOP((#1696,#1659,#1670,#1695));
#61=IFCPOLYLOOP((#1697,#1660,#1659,#1696));
#62=IFCPOLYLOOP((#1698,#1663,#1660,#1697));
#63=IFCPOLYLOOP((#1699,#1664,#1663,#1698));
#64=IFCPOLYLOOP((#1700,#1673,#1664,#1699));
#65=IFCPOLYLOOP((#1701,#1674,#1673,#1700));
#66=IFCPOLYLOOP((#1702,#1645,#1674,#1701));
#67=IFCPOLYLOOP((#1703,#1646,#1645,#1702));
#68=IFCPOLYLOOP((#1704,#1649,#1646,#1703));
#69=IFCPOLYLOOP((#1705,#1667,#1649,#1704));
#70=IFCPOLYLOOP((#1706,#1651,#1667,#1705));
#71=IFCPOLYLOOP((#1707,#1652,#1651,#1706));
#72=IFCPOLYLOOP((#1708,#1655,#1652,#1707));
#73=IFCPOLYLOOP((#1694,#1656,#1655,#1708));
#74=IFCPOLYLOOP((#1709,#1710,#1701,#1700));
#75=IFCPOLYLOOP((#1710,#1711,#1702,#1701));
#76=IFCPOLYLOOP((#1711,#1712,#1703,#1702));
#77=IFCPOLYLOOP((#1713,#1714,#1697,#1696));
#78=IFCPOLYLOOP((#1712,#1715,#1704,#1703));
#79=IFCPOLYLOOP((#1716,#1717,#1708,#1707));
#80=IFCPOLYLOOP((#1714,#1718,#1698,#1697));
#81=IFCPOLYLOOP((#1715,#1719,#1705,#1704));
#82=IFCPOLYLOOP((#1707,#1706,#1720,#1716));
#83=IFCPOLYLOOP((#1721,#1722,#1695,#1693));
#84=IFCPOLYLOOP((#1718,#1723,#1699,#1698));
#85=IFCPOLYLOOP((#1706,#1705,#1719,#1720));
#86=IFCPOLYLOOP((#1696,#1695,#1722,#1713));
#87=IFCPOLYLOOP((#1717,#1724,#1694,#1708));
#88=IFCPOLYLOOP((#1700,#1699,#1723,#1709));
#89=IFCPOLYLOOP((#1693,#1694,#1724,#1721));
#90=IFCPOLYLOOP((#1725,#1726,#1681,#1682));
#91=IFCPOLYLOOP((#1727,#1679,#1680));
#92=IFCPOLYLOOP((#1728,#1729,#1692,#1678));
#93=IFCPOLYLOOP((#1730,#1731,#1689,#1690));
#94=IFCPOLYLOOP((#1680,#1681,#1726,#1727));
#95=IFCPOLYLOOP((#1678,#1677,#1727,#1728));
#96=IFCPOLYLOOP((#1690,#1691,#1732,#1730));
#97=IFCPOLYLOOP((#1733,#1734,#1685,#1686));
#98=IFCPOLYLOOP((#1735,#1736,#1683,#1684));
#99=IFCPOLYLOOP((#1677,#1679,#1727));
#100=IFCPOLYLOOP((#1731,#1737,#1688,#1689));
#101=IFCPOLYLOOP((#1686,#1687,#1738,#1733));
#102=IFCPOLYLOOP((#1682,#1683,#1736,#1725));
#103=IFCPOLYLOOP((#1687,#1688,#1737,#1738));
#104=IFCPOLYLOOP((#1691,#1692,#1729,#1732));
#105=IFCPOLYLOOP((#1684,#1685,#1734,#1735));
#106=IFCPOLYLOOP((#1733,#1739,#1740,#1734));
#107=IFCPOLYLOOP((#1738,#1741,#1739,#1733));
#108=IFCPOLYLOOP((#1737,#1742,#1741,#1738));
#109=IFCPOLYLOOP((#1731,#1743,#1742,#1737));
#110=IFCPOLYLOOP((#1730,#1744,#1743,#1731));
#111=IFCPOLYLOOP((#1732,#1745,#1744,#1730));
#112=IFCPOLYLOOP((#1729,#1746,#1745,#1732));
#113=IFCPOLYLOOP((#1728,#1747,#1746,#1729));
#114=IFCPOLYLOOP((#1727,#1747,#1728));
#115=IFCPOLYLOOP((#1748,#1749,#1743,#1744));
#116=IFCPOLYLOOP((#1750,#1751,#1739,#1741));
#117=IFCPOLYLOOP((#1749,#1752,#1742,#1743));
#118=IFCPOLYLOOP((#1751,#1753,#1740,#1739));
#119=IFCPOLYLOOP((#1754,#1755,#1745,#1746));
#120=IFCPOLYLOOP((#1741,#1742,#1752,#1750));
#121=IFCPOLYLOOP((#1744,#1745,#1755,#1748));
#122=IFCPOLYLOOP((#1746,#1747,#1756,#1754));
#123=IFCPOLYLOOP((#1740,#1753,#1757,#1735));
#124=IFCPOLYLOOP((#1740,#1735,#1734));
#125=IFCPOLYLOOP((#1727,#1758,#1759));
#126=IFCPOLYLOOP((#1759,#1756,#1747,#1727));
#127=IFCPOLYLOOP((#1758,#1760,#1759));
#128=IFCPOLYLOOP((#1759,#1761,#1756));
#129=IFCPOLYLOOP((#1762,#1758,#1727));
#130=IFCPOLYLOOP((#1760,#1758,#1762,#1763));
#131=IFCPOLYLOOP((#1763,#1764,#1760));
#132=IFCPOLYLOOP((#1727,#1726,#1765,#1762));
#133=IFCPOLYLOOP((#1762,#1766,#1767));
#134=IFCPOLYLOOP((#1762,#1765,#1768));
#135=IFCPOLYLOOP((#1768,#1766,#1762));
#136=IFCPOLYLOOP((#1767,#1769,#1770,#1762));
#137=IFCPOLYLOOP((#1769,#1771,#1772));
#138=IFCPOLYLOOP((#1769,#1773,#1771));
#139=IFCPOLYLOOP((#1769,#1774,#1775,#1773));
#140=IFCPOLYLOOP((#1774,#1776,#1777));
#141=IFCPOLYLOOP((#1777,#1775,#1774));
#142=IFCPOLYLOOP((#1772,#1770,#1769));
#143=IFCPOLYLOOP((#1778,#1779,#1780));
#144=IFCPOLYLOOP((#1778,#1776,#1774,#1781));
#145=IFCPOLYLOOP((#1781,#1779,#1778));
#146=IFCPOLYLOOP((#1780,#1782,#1778));
#147=IFCPOLYLOOP((#1783,#1784,#1785));
#148=IFCPOLYLOOP((#1785,#1778,#1782,#1783));
#149=IFCPOLYLOOP((#1784,#1786,#1787));
#150=IFCPOLYLOOP((#1787,#1788,#1789,#1784));
#151=IFCPOLYLOOP((#1784,#1790,#1786));
#152=IFCPOLYLOOP((#1789,#1791,#1792));
#153=IFCPOLYLOOP((#1784,#1793,#1790));
#154=IFCPOLYLOOP((#1788,#1791,#1789));
#155=IFCPOLYLOOP((#1784,#1783,#1793));
#156=IFCPOLYLOOP((#1792,#1794,#1789));
#157=IFCPOLYLOOP((#1794,#1795,#1796,#1797));
#158=IFCPOLYLOOP((#1797,#1789,#1794));
#159=IFCPOLYLOOP((#1796,#1798,#1799));
#160=IFCPOLYLOOP((#1796,#1795,#1800));
#161=IFCPOLYLOOP((#1800,#1798,#1796));
#162=IFCPOLYLOOP((#1799,#1801,#1802,#1796));
#163=IFCPOLYLOOP((#1801,#1803,#1804));
#164=IFCPOLYLOOP((#1801,#1805,#1806,#1803));
#165=IFCPOLYLOOP((#1805,#1807,#1806));
#166=IFCPOLYLOOP((#1805,#1808,#1809));
#167=IFCPOLYLOOP((#1809,#1807,#1805));
#168=IFCPOLYLOOP((#1804,#1802,#1801));
#169=IFCPOLYLOOP((#1715,#1795,#1794));
#170=IFCPOLYLOOP((#1752,#1810,#1811));
#171=IFCPOLYLOOP((#1811,#1795,#1715,#1752));
#172=IFCPOLYLOOP((#1752,#1749,#1810));
#173=IFCPOLYLOOP((#1725,#1718,#1782,#1765));
#174=IFCPOLYLOOP((#1718,#1783,#1782));
#175=IFCPOLYLOOP((#1718,#1714,#1783));
#176=IFCPOLYLOOP((#1723,#1736,#1735));
#177=IFCPOLYLOOP((#1735,#1709,#1723));
#178=IFCPOLYLOOP((#1765,#1782,#1780,#1768));
#179=IFCPOLYLOOP((#1768,#1780,#1779,#1766));
#180=IFCPOLYLOOP((#1766,#1779,#1781,#1767));
#181=IFCPOLYLOOP((#1767,#1781,#1774,#1769));
#182=IFCPOLYLOOP((#1783,#1714,#1713,#1793));
#183=IFCPOLYLOOP((#1793,#1713,#1722,#1790));
#184=IFCPOLYLOOP((#1790,#1722,#1721,#1786));
#185=IFCPOLYLOOP((#1786,#1721,#1724,#1787));
#186=IFCPOLYLOOP((#1787,#1724,#1717,#1788));
#187=IFCPOLYLOOP((#1788,#1717,#1716,#1791));
#188=IFCPOLYLOOP((#1791,#1716,#1720,#1792));
#189=IFCPOLYLOOP((#1792,#1720,#1719,#1794));
#190=IFCPOLYLOOP((#1795,#1811,#1812,#1800));
#191=IFCPOLYLOOP((#1800,#1812,#1813,#1798));
#192=IFCPOLYLOOP((#1798,#1813,#1814,#1799));
#193=IFCPOLYLOOP((#1799,#1814,#1805,#1801));
#194=IFCPOLYLOOP((#1810,#1749,#1748,#1815));
#195=IFCPOLYLOOP((#1815,#1748,#1755,#1816));
#196=IFCPOLYLOOP((#1816,#1755,#1754,#1817));
#197=IFCPOLYLOOP((#1817,#1754,#1756,#1761));
#198=IFCPOLYLOOP((#1753,#1710,#1709,#1757));
#199=IFCPOLYLOOP((#1735,#1757,#1709));
#200=IFCPOLYLOOP((#1736,#1723,#1718,#1725));
#201=IFCPOLYLOOP((#1765,#1726,#1725));
#202=IFCPOLYLOOP((#1794,#1719,#1715));
#203=IFCPOLYLOOP((#1712,#1750,#1752,#1715));
#204=IFCPOLYLOOP((#1711,#1751,#1750,#1712));
#205=IFCPOLYLOOP((#1710,#1753,#1751,#1711));
#206=IFCPOLYLOOP((#1818,#1813,#1812));
#207=IFCPOLYLOOP((#1818,#1808,#1805,#1814));
#208=IFCPOLYLOOP((#1814,#1813,#1818));
#209=IFCPOLYLOOP((#1812,#1811,#1818));
#210=IFCPOLYLOOP((#1810,#1819,#1820));
#211=IFCPOLYLOOP((#1820,#1818,#1811,#1810));
#212=IFCPOLYLOOP((#1821,#1822,#1761,#1759));
#213=IFCPOLYLOOP((#1822,#1817,#1761));
#214=IFCPOLYLOOP((#1819,#1810,#1815));
#215=IFCPOLYLOOP((#1822,#1816,#1817));
#216=IFCPOLYLOOP((#1815,#1822,#1823,#1819));
#217=IFCPOLYLOOP((#1822,#1815,#1816));
#218=IFCPOLYLOOP((#1759,#1760,#1821));
#219=IFCPOLYLOOP((#1764,#1824,#1825,#1826));
#220=IFCPOLYLOOP((#1826,#1821,#1760,#1764));
#221=IFCPOLYLOOP((#1823,#1827,#1828,#1819));
#222=IFCPOLYLOOP((#1823,#1829,#1830,#1827));
#223=IFCPOLYLOOP((#1825,#1831,#1832,#1826));
#224=IFCPOLYLOOP((#1821,#1833,#1834,#1822));
#225=IFCPOLYLOOP((#1821,#1826,#1832,#1835));
#226=IFCPOLYLOOP((#1835,#1833,#1821));
#227=IFCPOLYLOOP((#1822,#1834,#1836));
#228=IFCPOLYLOOP((#1836,#1829,#1823,#1822));
#229=IFCPOLYLOOP((#1837,#1838,#1839));
#230=IFCPOLYLOOP((#1837,#1828,#1840,#1838));
#231=IFCPOLYLOOP((#1841,#1842,#1843));
#232=IFCPOLYLOOP((#1843,#1837,#1841));
#233=IFCPOLYLOOP((#1828,#1827,#1844,#1840));
#234=IFCPOLYLOOP((#1827,#1830,#1845));
#235=IFCPOLYLOOP((#1845,#1844,#1827));
#236=IFCPOLYLOOP((#1839,#1841,#1837));
#237=IFCPOLYLOOP((#1846,#1847,#1848));
#238=IFCPOLYLOOP((#1847,#1846,#1849));
#239=IFCPOLYLOOP((#1848,#1850,#1846));
#240=IFCPOLYLOOP((#1850,#1851,#1824,#1846));
#241=IFCPOLYLOOP((#1825,#1852,#1853));
#242=IFCPOLYLOOP((#1849,#1854,#1847));
#243=IFCPOLYLOOP((#1851,#1852,#1825,#1824));
#244=IFCPOLYLOOP((#1853,#1831,#1825));
#245=IFCPOLYLOOP((#1855,#1842,#1841,#1856));
#246=IFCPOLYLOOP((#1857,#1847,#1854,#1858));
#247=IFCPOLYLOOP((#1859,#1855,#1856,#1860));
#248=IFCPOLYLOOP((#1861,#1862,#1859));
#249=IFCPOLYLOOP((#1860,#1861,#1859));
#250=IFCPOLYLOOP((#1861,#1863,#1864,#1862));
#251=IFCPOLYLOOP((#1865,#1863,#1866));
#252=IFCPOLYLOOP((#1866,#1857,#1858,#1865));
#253=IFCPOLYLOOP((#1865,#1864,#1863));
#254=IFCPOLYLOOP((#1867,#1868,#1784,#1789));
#255=IFCPOLYLOOP((#1868,#1869,#1784));
#256=IFCPOLYLOOP((#1870,#1871,#1862));
#257=IFCPOLYLOOP((#1862,#1864,#1872,#1870));
#258=IFCPOLYLOOP((#1873,#1797,#1796));
#259=IFCPOLYLOOP((#1796,#1874,#1873));
#260=IFCPOLYLOOP((#1875,#1876,#1818));
#261=IFCPOLYLOOP((#1876,#1809,#1808,#1818));
#262=IFCPOLYLOOP((#1877,#1878,#1819));
#263=IFCPOLYLOOP((#1879,#1880,#1855));
#264=IFCPOLYLOOP((#1880,#1843,#1842,#1855));
#265=IFCPOLYLOOP((#1881,#1865,#1858));
#266=IFCPOLYLOOP((#1858,#1882,#1881));
#267=IFCPOLYLOOP((#1883,#1846,#1824,#1764));
#268=IFCPOLYLOOP((#1884,#1763,#1762));
#269=IFCPOLYLOOP((#1762,#1885,#1884));
#270=IFCPOLYLOOP((#1886,#1887,#1778));
#271=IFCPOLYLOOP((#1887,#1777,#1776,#1778));
#272=IFCPOLYLOOP((#1784,#1869,#1886,#1785));
#273=IFCPOLYLOOP((#1778,#1785,#1886));
#274=IFCPOLYLOOP((#1777,#1887,#1888,#1775));
#275=IFCPOLYLOOP((#1775,#1888,#1889,#1773));
#276=IFCPOLYLOOP((#1773,#1889,#1890,#1771));
#277=IFCPOLYLOOP((#1771,#1890,#1885,#1772));
#278=IFCPOLYLOOP((#1762,#1770,#1772,#1885));
#279=IFCPOLYLOOP((#1763,#1884,#1891,#1764));
#280=IFCPOLYLOOP((#1764,#1891,#1883));
#281=IFCPOLYLOOP((#1846,#1883,#1882,#1849));
#282=IFCPOLYLOOP((#1858,#1854,#1849,#1882));
#283=IFCPOLYLOOP((#1865,#1881,#1892,#1864));
#284=IFCPOLYLOOP((#1862,#1871,#1879,#1859));
#285=IFCPOLYLOOP((#1855,#1859,#1879));
#286=IFCPOLYLOOP((#1843,#1880,#1877,#1837));
#287=IFCPOLYLOOP((#1819,#1828,#1837,#1877));
#288=IFCPOLYLOOP((#1819,#1878,#1875,#1820));
#289=IFCPOLYLOOP((#1818,#1820,#1875));
#290=IFCPOLYLOOP((#1809,#1876,#1893,#1807));
#291=IFCPOLYLOOP((#1807,#1893,#1894,#1806));
#292=IFCPOLYLOOP((#1806,#1894,#1895,#1803));
#293=IFCPOLYLOOP((#1803,#1895,#1874,#1804));
#294=IFCPOLYLOOP((#1796,#1802,#1804,#1874));
#295=IFCPOLYLOOP((#1797,#1873,#1896,#1789));
#296=IFCPOLYLOOP((#1864,#1892,#1872));
#297=IFCPOLYLOOP((#1897,#1898,#1870,#1872));
#298=IFCPOLYLOOP((#1868,#1867,#1898,#1897));
#299=IFCPOLYLOOP((#1789,#1896,#1867));
#300=IFCPOLYLOOP((#1895,#1894,#1899,#1900));
#301=IFCPOLYLOOP((#1894,#1893,#1901,#1899));
#302=IFCPOLYLOOP((#1876,#1875,#1902,#1903));
#303=IFCPOLYLOOP((#1903,#1901,#1893,#1876));
#304=IFCPOLYLOOP((#1875,#1878,#1904,#1902));
#305=IFCPOLYLOOP((#1878,#1877,#1905,#1904));
#306=IFCPOLYLOOP((#1877,#1880,#1906,#1905));
#307=IFCPOLYLOOP((#1879,#1871,#1907,#1908));
#308=IFCPOLYLOOP((#1908,#1906,#1880,#1879));
#309=IFCPOLYLOOP((#1870,#1898,#1909,#1910));
#310=IFCPOLYLOOP((#1873,#1874,#1911,#1912));
#311=IFCPOLYLOOP((#1910,#1907,#1871,#1870));
#312=IFCPOLYLOOP((#1900,#1911,#1874,#1895));
#313=IFCPOLYLOOP((#1867,#1896,#1913,#1914));
#314=IFCPOLYLOOP((#1914,#1909,#1898,#1867));
#315=IFCPOLYLOOP((#1912,#1913,#1896,#1873));
#316=IFCPOLYLOOP((#1915,#1902,#1904,#1916));
#317=IFCPOLYLOOP((#1917,#1903,#1902,#1915));
#318=IFCPOLYLOOP((#1918,#1901,#1903,#1917));
#319=IFCPOLYLOOP((#1919,#1899,#1901,#1918));
#320=IFCPOLYLOOP((#1920,#1900,#1899,#1919));
#321=IFCPOLYLOOP((#1921,#1911,#1900,#1920));
#322=IFCPOLYLOOP((#1922,#1912,#1911,#1921));
#323=IFCPOLYLOOP((#1923,#1913,#1912,#1922));
#324=IFCPOLYLOOP((#1924,#1914,#1913,#1923));
#325=IFCPOLYLOOP((#1925,#1909,#1914,#1924));
#326=IFCPOLYLOOP((#1926,#1910,#1909,#1925));
#327=IFCPOLYLOOP((#1927,#1907,#1910,#1926));
#328=IFCPOLYLOOP((#1928,#1908,#1907,#1927));
#329=IFCPOLYLOOP((#1929,#1906,#1908,#1928));
#330=IFCPOLYLOOP((#1930,#1905,#1906,#1929));
#331=IFCPOLYLOOP((#1916,#1904,#1905,#1930));
#332=IFCPOLYLOOP((#1930,#1929,#1931,#1932));
#333=IFCPOLYLOOP((#1920,#1919,#1933,#1934));
#334=IFCPOLYLOOP((#1929,#1928,#1935,#1931));
#335=IFCPOLYLOOP((#1922,#1921,#1936,#1937));
#336=IFCPOLYLOOP((#1919,#1918,#1938,#1933));
#337=IFCPOLYLOOP((#1915,#1916,#1939,#1940));
#338=IFCPOLYLOOP((#1928,#1927,#1941,#1935));
#339=IFCPOLYLOOP((#1926,#1925,#1942,#1943));
#340=IFCPOLYLOOP((#1934,#1936,#1921,#1920));
#341=IFCPOLYLOOP((#1940,#1944,#1917,#1915));
#342=IFCPOLYLOOP((#1943,#1941,#1927,#1926));
#343=IFCPOLYLOOP((#1924,#1923,#1945,#1946));
#344=IFCPOLYLOOP((#1944,#1938,#1918,#1917));
#345=IFCPOLYLOOP((#1946,#1942,#1925,#1924));
#346=IFCPOLYLOOP((#1932,#1939,#1916,#1930));
#347=IFCPOLYLOOP((#1937,#1945,#1923,#1922));
#348=IFCPOLYLOOP((#1947,#1940,#1939,#1948));
#349=IFCPOLYLOOP((#1949,#1944,#1940,#1947));
#350=IFCPOLYLOOP((#1950,#1938,#1944,#1949));
#351=IFCPOLYLOOP((#1951,#1933,#1938,#1950));
#352=IFCPOLYLOOP((#1952,#1934,#1933,#1951));
#353=IFCPOLYLOOP((#1953,#1936,#1934,#1952));
#354=IFCPOLYLOOP((#1954,#1937,#1936,#1953));
#355=IFCPOLYLOOP((#1955,#1945,#1937,#1954));
#356=IFCPOLYLOOP((#1956,#1946,#1945,#1955));
#357=IFCPOLYLOOP((#1957,#1942,#1946,#1956));
#358=IFCPOLYLOOP((#1958,#1943,#1942,#1957));
#359=IFCPOLYLOOP((#1959,#1941,#1943,#1958));
#360=IFCPOLYLOOP((#1960,#1935,#1941,#1959));
#361=IFCPOLYLOOP((#1961,#1931,#1935,#1960));
#362=IFCPOLYLOOP((#1962,#1932,#1931,#1961));
#363=IFCPOLYLOOP((#1948,#1939,#1932,#1962));
#364=IFCPOLYLOOP((#1963,#1964,#1953,#1952));
#365=IFCPOLYLOOP((#1965,#1966,#1955,#1954));
#366=IFCPOLYLOOP((#1967,#1968,#1959,#1958));
#367=IFCPOLYLOOP((#1969,#1970,#1950,#1949));
#368=IFCPOLYLOOP((#1952,#1951,#1971,#1963));
#369=IFCPOLYLOOP((#1966,#1972,#1956,#1955));
#370=IFCPOLYLOOP((#1968,#1973,#1960,#1959));
#371=IFCPOLYLOOP((#1951,#1950,#1970,#1971));
#372=IFCPOLYLOOP((#1972,#1974,#1957,#1956));
#373=IFCPOLYLOOP((#1973,#1975,#1961,#1960));
#374=IFCPOLYLOOP((#1954,#1953,#1964,#1965));
#375=IFCPOLYLOOP((#1975,#1976,#1962,#1961));
#376=IFCPOLYLOOP((#1958,#1957,#1974,#1967));
#377=IFCPOLYLOOP((#1949,#1947,#1977,#1969));
#378=IFCPOLYLOOP((#1976,#1978,#1948,#1962));
#379=IFCPOLYLOOP((#1947,#1948,#1978,#1977));
#380=IFCPOLYLOOP((#1979,#1977,#1978,#1980));
#381=IFCPOLYLOOP((#1981,#1969,#1977,#1979));
#382=IFCPOLYLOOP((#1982,#1970,#1969,#1981));
#383=IFCPOLYLOOP((#1983,#1971,#1970,#1982));
#384=IFCPOLYLOOP((#1984,#1963,#1971,#1983));
#385=IFCPOLYLOOP((#1985,#1964,#1963,#1984));
#386=IFCPOLYLOOP((#1986,#1965,#1964,#1985));
#387=IFCPOLYLOOP((#1987,#1966,#1965,#1986));
#388=IFCPOLYLOOP((#1988,#1972,#1966,#1987));
#389=IFCPOLYLOOP((#1989,#1974,#1972,#1988));
#390=IFCPOLYLOOP((#1990,#1967,#1974,#1989));
#391=IFCPOLYLOOP((#1991,#1968,#1967,#1990));
#392=IFCPOLYLOOP((#1992,#1973,#1968,#1991));
#393=IFCPOLYLOOP((#1993,#1975,#1973,#1992));
#394=IFCPOLYLOOP((#1994,#1976,#1975,#1993));
#395=IFCPOLYLOOP((#1980,#1978,#1976,#1994));
#396=IFCPOLYLOOP((#1885,#1890,#1982,#1981));
#397=IFCPOLYLOOP((#1981,#1979,#1884,#1885));
#398=IFCPOLYLOOP((#1890,#1889,#1983,#1982));
#399=IFCPOLYLOOP((#1888,#1887,#1985,#1984));
#400=IFCPOLYLOOP((#1872,#1892,#1991,#1990));
#401=IFCPOLYLOOP((#1881,#1882,#1993,#1992));
#402=IFCPOLYLOOP((#1984,#1983,#1889,#1888));
#403=IFCPOLYLOOP((#1886,#1869,#1987,#1986));
#404=IFCPOLYLOOP((#1992,#1991,#1892,#1881));
#405=IFCPOLYLOOP((#1986,#1985,#1887,#1886));
#406=IFCPOLYLOOP((#1868,#1897,#1989,#1988));
#407=IFCPOLYLOOP((#1882,#1883,#1994,#1993));
#408=IFCPOLYLOOP((#1988,#1987,#1869,#1868));
#409=IFCPOLYLOOP((#1883,#1891,#1980,#1994));
#410=IFCPOLYLOOP((#1990,#1989,#1897,#1872));
#411=IFCPOLYLOOP((#1979,#1980,#1891,#1884));
#412=IFCPOLYLOOP((#1995,#1996,#1834,#1833));
#413=IFCPOLYLOOP((#1996,#1997,#1834));
#414=IFCPOLYLOOP((#1998,#1999,#1863,#1861));
#415=IFCPOLYLOOP((#1999,#2000,#1863));
#416=IFCPOLYLOOP((#2001,#1835,#1832));
#417=IFCPOLYLOOP((#1832,#2002,#2001));
#418=IFCPOLYLOOP((#2003,#2004,#1857));
#419=IFCPOLYLOOP((#2004,#1848,#1847,#1857));
#420=IFCPOLYLOOP((#2005,#1860,#1856));
#421=IFCPOLYLOOP((#1856,#2006,#2005));
#422=IFCPOLYLOOP((#2007,#2008,#1829));
#423=IFCPOLYLOOP((#2008,#1845,#1830,#1829));
#424=IFCPOLYLOOP((#1834,#1997,#2007,#1836));
#425=IFCPOLYLOOP((#1829,#1836,#2007));
#426=IFCPOLYLOOP((#1845,#2008,#2009,#1844));
#427=IFCPOLYLOOP((#1844,#2009,#2010,#1840));
#428=IFCPOLYLOOP((#1840,#2010,#2011,#1838));
#429=IFCPOLYLOOP((#1838,#2011,#2006,#1839));
#430=IFCPOLYLOOP((#1856,#1841,#1839,#2006));
#431=IFCPOLYLOOP((#1860,#2005,#2012,#1861));
#432=IFCPOLYLOOP((#1863,#2000,#2003,#1866));
#433=IFCPOLYLOOP((#1857,#1866,#2003));
#434=IFCPOLYLOOP((#1848,#2004,#2013,#1850));
#435=IFCPOLYLOOP((#1850,#2013,#2014,#1851));
#436=IFCPOLYLOOP((#1851,#2014,#2015,#1852));
#437=IFCPOLYLOOP((#1852,#2015,#2002,#1853));
#438=IFCPOLYLOOP((#1832,#1831,#1853,#2002));
#439=IFCPOLYLOOP((#1835,#2001,#2016,#1833));
#440=IFCPOLYLOOP((#2017,#2018,#2019,#2020));
#441=IFCPOLYLOOP((#2021,#2022,#2018,#2017));
#442=IFCPOLYLOOP((#1999,#1998,#2022,#2021));
#443=IFCPOLYLOOP((#1861,#2012,#1998));
#444=IFCPOLYLOOP((#1833,#2016,#1995));
#445=IFCPOLYLOOP((#2023,#2024,#1996,#1995));
#446=IFCPOLYLOOP((#2025,#2026,#2024,#2023));
#447=IFCPOLYLOOP((#2020,#2019,#2026,#2025));
#448=IFCPOLYLOOP((#1997,#1996,#2027,#2028));
#449=IFCPOLYLOOP((#2008,#2007,#2029,#2030));
#450=IFCPOLYLOOP((#1996,#2024,#2031,#2027));
#451=IFCPOLYLOOP((#2026,#2019,#2032,#2033));
#452=IFCPOLYLOOP((#2022,#1998,#2034,#2035));
#453=IFCPOLYLOOP((#2028,#2029,#2007,#1997));
#454=IFCPOLYLOOP((#2019,#2018,#2036,#2032));
#455=IFCPOLYLOOP((#1998,#2012,#2037,#2034));
#456=IFCPOLYLOOP((#2005,#2006,#2038,#2039));
#457=IFCPOLYLOOP((#2033,#2031,#2024,#2026));
#458=IFCPOLYLOOP((#2039,#2037,#2012,#2005));
#459=IFCPOLYLOOP((#2011,#2010,#2040,#2041));
#460=IFCPOLYLOOP((#2030,#2042,#2009,#2008));
#461=IFCPOLYLOOP((#2041,#2038,#2006,#2011));
#462=IFCPOLYLOOP((#2035,#2036,#2018,#2022));
#463=IFCPOLYLOOP((#2042,#2040,#2010,#2009));
#464=IFCPOLYLOOP((#2043,#2033,#2032,#2044));
#465=IFCPOLYLOOP((#2045,#2031,#2033,#2043));
#466=IFCPOLYLOOP((#2046,#2027,#2031,#2045));
#467=IFCPOLYLOOP((#2047,#2028,#2027,#2046));
#468=IFCPOLYLOOP((#2048,#2029,#2028,#2047));
#469=IFCPOLYLOOP((#2049,#2030,#2029,#2048));
#470=IFCPOLYLOOP((#2050,#2042,#2030,#2049));
#471=IFCPOLYLOOP((#2051,#2040,#2042,#2050));
#472=IFCPOLYLOOP((#2052,#2041,#2040,#2051));
#473=IFCPOLYLOOP((#2053,#2038,#2041,#2052));
#474=IFCPOLYLOOP((#2054,#2039,#2038,#2053));
#475=IFCPOLYLOOP((#2055,#2037,#2039,#2054));
#476=IFCPOLYLOOP((#2056,#2034,#2037,#2055));
#477=IFCPOLYLOOP((#2057,#2035,#2034,#2056));
#478=IFCPOLYLOOP((#2058,#2036,#2035,#2057));
#479=IFCPOLYLOOP((#2044,#2032,#2036,#2058));
#480=IFCPOLYLOOP((#2048,#2047,#2059,#2060));
#481=IFCPOLYLOOP((#2055,#2054,#2061,#2062));
#482=IFCPOLYLOOP((#2047,#2046,#2063,#2059));
#483=IFCPOLYLOOP((#2062,#2064,#2056,#2055));
#484=IFCPOLYLOOP((#2053,#2052,#2065,#2066));
#485=IFCPOLYLOOP((#2050,#2049,#2067,#2068));
#486=IFCPOLYLOOP((#2046,#2045,#2069,#2063));
#487=IFCPOLYLOOP((#2058,#2057,#2070,#2071));
#488=IFCPOLYLOOP((#2066,#2061,#2054,#2053));
#489=IFCPOLYLOOP((#2060,#2067,#2049,#2048));
#490=IFCPOLYLOOP((#2043,#2044,#2072,#2073));
#491=IFCPOLYLOOP((#2064,#2070,#2057,#2056));
#492=IFCPOLYLOOP((#2073,#2069,#2045,#2043));
#493=IFCPOLYLOOP((#2052,#2051,#2074,#2065));
#494=IFCPOLYLOOP((#2071,#2072,#2044,#2058));
#495=IFCPOLYLOOP((#2068,#2074,#2051,#2050));
#496=IFCPOLYLOOP((#2075,#2073,#2072,#2076));
#497=IFCPOLYLOOP((#2077,#2069,#2073,#2075));
#498=IFCPOLYLOOP((#2078,#2063,#2069,#2077));
#499=IFCPOLYLOOP((#2079,#2059,#2063,#2078));
#500=IFCPOLYLOOP((#2080,#2060,#2059,#2079));
#501=IFCPOLYLOOP((#2081,#2067,#2060,#2080));
#502=IFCPOLYLOOP((#2082,#2068,#2067,#2081));
#503=IFCPOLYLOOP((#2083,#2074,#2068,#2082));
#504=IFCPOLYLOOP((#2084,#2065,#2074,#2083));
#505=IFCPOLYLOOP((#2085,#2066,#2065,#2084));
#506=IFCPOLYLOOP((#2086,#2061,#2066,#2085));
#507=IFCPOLYLOOP((#2087,#2062,#2061,#2086));
#508=IFCPOLYLOOP((#2088,#2064,#2062,#2087));
#509=IFCPOLYLOOP((#2089,#2070,#2064,#2088));
#510=IFCPOLYLOOP((#2090,#2071,#2070,#2089));
#511=IFCPOLYLOOP((#2076,#2072,#2071,#2090));
#512=IFCPOLYLOOP((#2091,#2092,#2079,#2078));
#513=IFCPOLYLOOP((#2092,#2093,#2080,#2079));
#514=IFCPOLYLOOP((#2094,#2095,#2088,#2087));
#515=IFCPOLYLOOP((#2096,#2097,#2077,#2075));
#516=IFCPOLYLOOP((#2093,#2098,#2081,#2080));
#517=IFCPOLYLOOP((#2099,#2100,#2084,#2083));
#518=IFCPOLYLOOP((#2101,#2102,#2086,#2085));
#519=IFCPOLYLOOP((#2095,#2103,#2089,#2088));
#520=IFCPOLYLOOP((#2078,#2077,#2097,#2091));
#521=IFCPOLYLOOP((#2083,#2082,#2104,#2099));
#522=IFCPOLYLOOP((#2087,#2086,#2102,#2094));
#523=IFCPOLYLOOP((#2105,#2106,#2076,#2090));
#524=IFCPOLYLOOP((#2082,#2081,#2098,#2104));
#525=IFCPOLYLOOP((#2090,#2089,#2103,#2105));
#526=IFCPOLYLOOP((#2085,#2084,#2100,#2101));
#527=IFCPOLYLOOP((#2075,#2076,#2106,#2096));
#528=IFCPOLYLOOP((#2107,#2096,#2106,#2108));
#529=IFCPOLYLOOP((#2109,#2097,#2096,#2107));
#530=IFCPOLYLOOP((#2110,#2091,#2097,#2109));
#531=IFCPOLYLOOP((#2111,#2092,#2091,#2110));
#532=IFCPOLYLOOP((#2112,#2093,#2092,#2111));
#533=IFCPOLYLOOP((#2113,#2098,#2093,#2112));
#534=IFCPOLYLOOP((#2114,#2104,#2098,#2113));
#535=IFCPOLYLOOP((#2115,#2099,#2104,#2114));
#536=IFCPOLYLOOP((#2116,#2100,#2099,#2115));
#537=IFCPOLYLOOP((#2117,#2101,#2100,#2116));
#538=IFCPOLYLOOP((#2118,#2102,#2101,#2117));
#539=IFCPOLYLOOP((#2119,#2094,#2102,#2118));
#540=IFCPOLYLOOP((#2120,#2095,#2094,#2119));
#541=IFCPOLYLOOP((#2121,#2103,#2095,#2120));
#542=IFCPOLYLOOP((#2122,#2105,#2103,#2121));
#543=IFCPOLYLOOP((#2108,#2106,#2105,#2122));
#544=IFCPOLYLOOP((#1995,#2016,#2111,#2110));
#545=IFCPOLYLOOP((#2003,#2000,#2119,#2118));
#546=IFCPOLYLOOP((#2025,#2023,#2109,#2107));
#547=IFCPOLYLOOP((#2016,#2001,#2112,#2111));
#548=IFCPOLYLOOP((#2013,#2004,#2117,#2116));
#549=IFCPOLYLOOP((#2000,#1999,#2120,#2119));
#550=IFCPOLYLOOP((#2021,#2017,#2122,#2121));
#551=IFCPOLYLOOP((#2110,#2109,#2023,#1995));
#552=IFCPOLYLOOP((#2002,#2015,#2114,#2113));
#553=IFCPOLYLOOP((#2116,#2115,#2014,#2013));
#554=IFCPOLYLOOP((#2121,#2120,#1999,#2021));
#555=IFCPOLYLOOP((#2113,#2112,#2001,#2002));
#556=IFCPOLYLOOP((#2118,#2117,#2004,#2003));
#557=IFCPOLYLOOP((#2115,#2114,#2015,#2014));
#558=IFCPOLYLOOP((#2017,#2020,#2108,#2122));
#559=IFCPOLYLOOP((#2107,#2108,#2020,#2025));
#560=IFCFACEOUTERBOUND(#26,.T.);
#561=IFCFACEOUTERBOUND(#27,.T.);
#562=IFCFACEOUTERBOUND(#28,.T.);
#563=IFCFACEOUTERBOUND(#29,.T.);
#564=IFCFACEOUTERBOUND(#30,.T.);
#565=IFCFACEOUTERBOUND(#31,.T.);
#566=IFCFACEOUTERBOUND(#32,.T.);
#567=IFCFACEOUTERBOUND(#33,.T.);
#568=IFCFACEOUTERBOUND(#34,.T.);
#569=IFCFACEOUTERBOUND(#35,.T.);
#570=IFCFACEOUTERBOUND(#36,.T.);
#571=IFCFACEOUTERBOUND(#37,.T.);
#572=IFCFACEOUTERBOUND(#38,.T.);
#573=IFCFACEOUTERBOUND(#39,.T.);
#574=IFCFACEOUTERBOUND(#40,.T.);
#575=IFCFACEOUTERBOUND(#41,.T.);
#576=IFCFACEOUTERBOUND(#42,.T.);
#577=IFCFACEOUTERBOUND(#43,.T.);
#578=IFCFACEOUTERBOUND(#44,.T.);
#579=IFCFACEOUTERBOUND(#45,.T.);
#580=IFCFACEOUTERBOUND(#46,.T.);
#581=IFCFACEOUTERBOUND(#47,.T.);
#582=IFCFACEOUTERBOUND(#48,.T.);
#583=IFCFACEOUTERBOUND(#49,.T.);
#584=IFCFACEOUTERBOUND(#50,.T.);
#585=IFCFACEOUTERBOUND(#51,.T.);
#586=IFCFACEOUTERBOUND(#52,.T.);
#587=IFCFACEOUTERBOUND(#53,.T.);
#588=IFCFACEOUTERBOUND(#54,.T.);
#589=IFCFACEOUTERBOUND(#55,.T.);
#590=IFCFACEOUTERBOUND(#56,.T.);
#591=IFCFACEOUTERBOUND(#57,.T.);
#592=IFCFACEOUTERBOUND(#58,.T.);
#593=IFCFACEOUTERBOUND(#59,.T.);
#594=IFCFACEOUTERBOUND(#60,.T.);
#595=IFCFACEOUTERBOUND(#61,.T.);
#596=IFCFACEOUTERBOUND(#62,.T.);
#597=IFCFACEOUTERBOUND(#63,.T.);
#598=IFCFACEOUTERBOUND(#64,.T.);
#599=IFCFACEOUTERBOUND(#65,.T.);
#600=IFCFACEOUTERBOUND(#66,.T.);
#601=IFCFACEOUTERBOUND(#67,.T.);
#602=IFCFACEOUTERBOUND(#68,.T.);
#603=IFCFACEOUTERBOUND(#69,.T.);
#604=IFCFACEOUTERBOUND(#70,.T.);
#605=IFCFACEOUTERBOUND(#71,.T.);
#606=IFCFACEOUTERBOUND(#72,.T.);
#607=IFCFACEOUTERBOUND(#73,.T.);
#608=IFCFACEOUTERBOUND(#74,.T.);
#609=IFCFACEOUTERBOUND(#75,.T.);
#610=IFCFACEOUTERBOUND(#76,.T.);
#611=IFCFACEOUTERBOUND(#77,.T.);
#612=IFCFACEOUTERBOUND(#78,.T.);
#613=IFCFACEOUTERBOUND(#79,.T.);
#614=IFCFACEOUTERBOUND(#80,.T.);
#615=IFCFACEOUTERBOUND(#81,.T.);
#616=IFCFACEOUTERBOUND(#82,.T.);
#617=IFCFACEOUTERBOUND(#83,.T.);
#618=IFCFACEOUTERBOUND(#84,.T.);
#619=IFCFACEOUTERBOUND(#85,.T.);
#620=IFCFACEOUTERBOUND(#86,.T.);
#621=IFCFACEOUTERBOUND(#87,.T.);
#622=IFCFACEOUTERBOUND(#88,.T.);
#623=IFCFACEOUTERBOUND(#89,.T.);
#624=IFCFACEOUTERBOUND(#90,.T.);
#625=IFCFACEOUTERBOUND(#91,.T.);
#626=IFCFACEOUTERBOUND(#92,.T.);
#627=IFCFACEOUTERBOUND(#93,.T.);
#628=IFCFACEOUTERBOUND(#94,.T.);
#629=IFCFACEOUTERBOUND(#95,.T.);
#630=IFCFACEOUTERBOUND(#96,.T.);
#631=IFCFACEOUTERBOUND(#97,.T.);
#632=IFCFACEOUTERBOUND(#98,.T.);
#633=IFCFACEOUTERBOUND(#99,.T.);
#634=IFCFACEOUTERBOUND(#100,.T.);
#635=IFCFACEOUTERBOUND(#101,.T.);
#636=IFCFACEOUTERBOUND(#102,.T.);
#637=IFCFACEOUTERBOUND(#103,.T.);
#638=IFCFACEOUTERBOUND(#104,.T.);
#639=IFCFACEOUTERBOUND(#105,.T.);
#640=IFCFACEOUTERBOUND(#106,.T.);
#641=IFCFACEOUTERBOUND(#107,.T.);
#642=IFCFACEOUTERBOUND(#108,.T.);
#643=IFCFACEOUTERBOUND(#109,.T.);
#644=IFCFACEOUTERBOUND(#110,.T.);
#645=IFCFACEOUTERBOUND(#111,.T.);
#646=IFCFACEOUTERBOUND(#112,.T.);
#647=IFCFACEOUTERBOUND(#113,.T.);
#648=IFCFACEOUTERBOUND(#114,.T.);
#649=IFCFACEOUTERBOUND(#115,.T.);
#650=IFCFACEOUTERBOUND(#116,.T.);
#651=IFCFACEOUTERBOUND(#117,.T.);
#652=IFCFACEOUTERBOUND(#118,.T.);
#653=IFCFACEOUTERBOUND(#119,.T.);
#654=IFCFACEOUTERBOUND(#120,.T.);
#655=IFCFACEOUTERBOUND(#121,.T.);
#656=IFCFACEOUTERBOUND(#122,.T.);
#657=IFCFACEOUTERBOUND(#123,.T.);
#658=IFCFACEOUTERBOUND(#124,.T.);
#659=IFCFACEOUTERBOUND(#125,.T.);
#660=IFCFACEOUTERBOUND(#126,.T.);
#661=IFCFACEOUTERBOUND(#127,.T.);
#662=IFCFACEOUTERBOUND(#128,.T.);
#663=IFCFACEOUTERBOUND(#129,.T.);
#664=IFCFACEOUTERBOUND(#130,.T.);
#665=IFCFACEOUTERBOUND(#131,.T.);
#666=IFCFACEOUTERBOUND(#132,.T.);
#667=IFCFACEOUTERBOUND(#133,.T.);
#668=IFCFACEOUTERBOUND(#134,.T.);
#669=IFCFACEOUTERBOUND(#135,.T.);
#670=IFCFACEOUTERBOUND(#136,.T.);
#671=IFCFACEOUTERBOUND(#137,.T.);
#672=IFCFACEOUTERBOUND(#138,.T.);
#673=IFCFACEOUTERBOUND(#139,.T.);
#674=IFCFACEOUTERBOUND(#140,.T.);
#675=IFCFACEOUTERBOUND(#141,.T.);
#676=IFCFACEOUTERBOUND(#142,.T.);
#677=IFCFACEOUTERBOUND(#143,.T.);
#678=IFCFACEOUTERBOUND(#144,.T.);
#679=IFCFACEOUTERBOUND(#145,.T.);
#680=IFCFACEOUTERBOUND(#146,.T.);
#681=IFCFACEOUTERBOUND(#147,.T.);
#682=IFCFACEOUTERBOUND(#148,.T.);
#683=IFCFACEOUTERBOUND(#149,.T.);
#684=IFCFACEOUTERBOUND(#150,.T.);
#685=IFCFACEOUTERBOUND(#151,.T.);
#686=IFCFACEOUTERBOUND(#152,.T.);
#687=IFCFACEOUTERBOUND(#153,.T.);
#688=IFCFACEOUTERBOUND(#154,.T.);
#689=IFCFACEOUTERBOUND(#155,.T.);
#690=IFCFACEOUTERBOUND(#156,.T.);
#691=IFCFACEOUTERBOUND(#157,.T.);
#692=IFCFACEOUTERBOUND(#158,.T.);
#693=IFCFACEOUTERBOUND(#159,.T.);
#694=IFCFACEOUTERBOUND(#160,.T.);
#695=IFCFACEOUTERBOUND(#161,.T.);
#696=IFCFACEOUTERBOUND(#162,.T.);
#697=IFCFACEOUTERBOUND(#163,.T.);
#698=IFCFACEOUTERBOUND(#164,.T.);
#699=IFCFACEOUTERBOUND(#165,.T.);
#700=IFCFACEOUTERBOUND(#166,.T.);
#701=IFCFACEOUTERBOUND(#167,.T.);
#702=IFCFACEOUTERBOUND(#168,.T.);
#703=IFCFACEOUTERBOUND(#169,.T.);
#704=IFCFACEOUTERBOUND(#170,.T.);
#705=IFCFACEOUTERBOUND(#171,.T.);
#706=IFCFACEOUTERBOUND(#172,.T.);
#707=IFCFACEOUTERBOUND(#173,.T.);
#708=IFCFACEOUTERBOUND(#174,.T.);
#709=IFCFACEOUTERBOUND(#175,.T.);
#710=IFCFACEOUTERBOUND(#176,.T.);
#711=IFCFACEOUTERBOUND(#177,.T.);
#712=IFCFACEOUTERBOUND(#178,.T.);
#713=IFCFACEOUTERBOUND(#179,.T.);
#714=IFCFACEOUTERBOUND(#180,.T.);
#715=IFCFACEOUTERBOUND(#181,.T.);
#716=IFCFACEOUTERBOUND(#182,.T.);
#717=IFCFACEOUTERBOUND(#183,.T.);
#718=IFCFACEOUTERBOUND(#184,.T.);
#719=IFCFACEOUTERBOUND(#185,.T.);
#720=IFCFACEOUTERBOUND(#186,.T.);
#721=IFCFACEOUTERBOUND(#187,.T.);
#722=IFCFACEOUTERBOUND(#188,.T.);
#723=IFCFACEOUTERBOUND(#189,.T.);
#724=IFCFACEOUTERBOUND(#190,.T.);
#725=IFCFACEOUTERBOUND(#191,.T.);
#726=IFCFACEOUTERBOUND(#192,.T.);
#727=IFCFACEOUTERBOUND(#193,.T.);
#728=IFCFACEOUTERBOUND(#194,.T.);
#729=IFCFACEOUTERBOUND(#195,.T.);
#730=IFCFACEOUTERBOUND(#196,.T.);
#731=IFCFACEOUTERBOUND(#197,.T.);
#732=IFCFACEOUTERBOUND(#198,.T.);
#733=IFCFACEOUTERBOUND(#199,.T.);
#734=IFCFACEOUTERBOUND(#200,.T.);
#735=IFCFACEOUTERBOUND(#201,.T.);
#736=IFCFACEOUTERBOUND(#202,.T.);
#737=IFCFACEOUTERBOUND(#203,.T.);
#738=IFCFACEOUTERBOUND(#204,.T.);
#739=IFCFACEOUTERBOUND(#205,.T.);
#740=IFCFACEOUTERBOUND(#206,.T.);
#741=IFCFACEOUTERBOUND(#207,.T.);
#742=IFCFACEOUTERBOUND(#208,.T.);
#743=IFCFACEOUTERBOUND(#209,.T.);
#744=IFCFACEOUTERBOUND(#210,.T.);
#745=IFCFACEOUTERBOUND(#211,.T.);
#746=IFCFACEOUTERBOUND(#212,.T.);
#747=IFCFACEOUTERBOUND(#213,.T.);
#748=IFCFACEOUTERBOUND(#214,.T.);
#749=IFCFACEOUTERBOUND(#215,.T.);
#750=IFCFACEOUTERBOUND(#216,.T.);
#751=IFCFACEOUTERBOUND(#217,.T.);
#752=IFCFACEOUTERBOUND(#218,.T.);
#753=IFCFACEOUTERBOUND(#219,.T.);
#754=IFCFACEOUTERBOUND(#220,.T.);
#755=IFCFACEOUTERBOUND(#221,.T.);
#756=IFCFACEOUTERBOUND(#222,.T.);
#757=IFCFACEOUTERBOUND(#223,.T.);
#758=IFCFACEOUTERBOUND(#224,.T.);
#759=IFCFACEOUTERBOUND(#225,.T.);
#760=IFCFACEOUTERBOUND(#226,.T.);
#761=IFCFACEOUTERBOUND(#227,.T.);
#762=IFCFACEOUTERBOUND(#228,.T.);
#763=IFCFACEOUTERBOUND(#229,.T.);
#764=IFCFACEOUTERBOUND(#230,.T.);
#765=IFCFACEOUTERBOUND(#231,.T.);
#766=IFCFACEOUTERBOUND(#232,.T.);
#767=IFCFACEOUTERBOUND(#233,.T.);
#768=IFCFACEOUTERBOUND(#234,.T.);
#769=IFCFACEOUTERBOUND(#235,.T.);
#770=IFCFACEOUTERBOUND(#236,.T.);
#771=IFCFACEOUTERBOUND(#237,.T.);
#772=IFCFACEOUTERBOUND(#238,.T.);
#773=IFCFACEOUTERBOUND(#239,.T.);
#774=IFCFACEOUTERBOUND(#240,.T.);
#775=IFCFACEOUTERBOUND(#241,.T.);
#776=IFCFACEOUTERBOUND(#242,.T.);
#777=IFCFACEOUTERBOUND(#243,.T.);
#778=IFCFACEOUTERBOUND(#244,.T.);
#779=IFCFACEOUTERBOUND(#245,.T.);
#780=IFCFACEOUTERBOUND(#246,.T.);
#781=IFCFACEOUTERBOUND(#247,.T.);
#782=IFCFACEOUTERBOUND(#248,.T.);
#783=IFCFACEOUTERBOUND(#249,.T.);
#784=IFCFACEOUTERBOUND(#250,.T.);
#785=IFCFACEOUTERBOUND(#251,.T.);
#786=IFCFACEOUTERBOUND(#252,.T.);
#787=IFCFACEOUTERBOUND(#253,.T.);
#788=IFCFACEOUTERBOUND(#254,.T.);
#789=IFCFACEOUTERBOUND(#255,.T.);
#790=IFCFACEOUTERBOUND(#256,.T.);
#791=IFCFACEOUTERBOUND(#257,.T.);
#792=IFCFACEOUTERBOUND(#258,.T.);
#793=IFCFACEOUTERBOUND(#259,.T.);
#794=IFCFACEOUTERBOUND(#260,.T.);
#795=IFCFACEOUTERBOUND(#261,.T.);
#796=IFCFACEOUTERBOUND(#262,.T.);
#797=IFCFACEOUTERBOUND(#263,.T.);
#798=IFCFACEOUTERBOUND(#264,.T.);
#799=IFCFACEOUTERBOUND(#265,.T.);
#800=IFCFACEOUTERBOUND(#266,.T.);
#801=IFCFACEOUTERBOUND(#267,.T.);
#802=IFCFACEOUTERBOUND(#268,.T.);
#803=IFCFACEOUTERBOUND(#269,.T.);
#804=IFCFACEOUTERBOUND(#270,.T.);
#805=IFCFACEOUTERBOUND(#271,.T.);
#806=IFCFACEOUTERBOUND(#272,.T.);
#807=IFCFACEOUTERBOUND(#273,.T.);
#808=IFCFACEOUTERBOUND(#274,.T.);
#809=IFCFACEOUTERBOUND(#275,.T.);
#810=IFCFACEOUTERBOUND(#276,.T.);
#811=IFCFACEOUTERBOUND(#277,.T.);
#812=IFCFACEOUTERBOUND(#278,.T.);
#813=IFCFACEOUTERBOUND(#279,.T.);
#814=IFCFACEOUTERBOUND(#280,.T.);
#815=IFCFACEOUTERBOUND(#281,.T.);
#816=IFCFACEOUTERBOUND(#282,.T.);
#817=IFCFACEOUTERBOUND(#283,.T.);
#818=IFCFACEOUTERBOUND(#284,.T.);
#819=IFCFACEOUTERBOUND(#285,.T.);
#820=IFCFACEOUTERBOUND(#286,.T.);
#821=IFCFACEOUTERBOUND(#287,.T.);
#822=IFCFACEOUTERBOUND(#288,.T.);
#823=IFCFACEOUTERBOUND(#289,.T.);
#824=IFCFACEOUTERBOUND(#290,.T.);
#825=IFCFACEOUTERBOUND(#291,.T.);
#826=IFCFACEOUTERBOUND(#292,.T.);
#827=IFCFACEOUTERBOUND(#293,.T.);
#828=IFCFACEOUTERBOUND(#294,.T.);
#829=IFCFACEOUTERBOUND(#295,.T.);
#830=IFCFACEOUTERBOUND(#296,.T.);
#831=IFCFACEOUTERBOUND(#297,.T.);
#832=IFCFACEOUTERBOUND(#298,.T.);
#833=IFCFACEOUTERBOUND(#299,.T.);
#834=IFCFACEOUTERBOUND(#300,.T.);
#835=IFCFACEOUTERBOUND(#301,.T.);
#836=IFCFACEOUTERBOUND(#302,.T.);
#837=IFCFACEOUTERBOUND(#303,.T.);
#838=IFCFACEOUTERBOUND(#304,.T.);
#839=IFCFACEOUTERBOUND(#305,.T.);
#840=IFCFACEOUTERBOUND(#306,.T.);
#841=IFCFACEOUTERBOUND(#307,.T.);
#842=IFCFACEOUTERBOUND(#308,.T.);
#843=IFCFACEOUTERBOUND(#309,.T.);
#844=IFCFACEOUTERBOUND(#310,.T.);
#845=IFCFACEOUTERBOUND(#311,.T.);
#846=IFCFACEOUTERBOUND(#312,.T.);
#847=IFCFACEOUTERBOUND(#313,.T.);
#848=IFCFACEOUTERBOUND(#314,.T.);
#849=IFCFACEOUTERBOUND(#315,.T.);
#850=IFCFACEOUTERBOUND(#316,.T.);
#851=IFCFACEOUTERBOUND(#317,.T.);
#852=IFCFACEOUTERBOUND(#318,.T.);
#853=IFCFACEOUTERBOUND(#319,.T.);
#854=IFCFACEOUTERBOUND(#320,.T.);
#855=IFCFACEOUTERBOUND(#321,.T.);
#856=IFCFACEOUTERBOUND(#322,.T.);
#857=IFCFACEOUTERBOUND(#323,.T.);
#858=IFCFACEOUTERBOUND(#324,.T.);
#859=IFCFACEOUTERBOUND(#325,.T.);
#860=IFCFACEOUTERBOUND(#326,.T.);
#861=IFCFACEOUTERBOUND(#327,.T.);
#862=IFCFACEOUTERBOUND(#328,.T.);
#863=IFCFACEOUTERBOUND(#329,.T.);
#864=IFCFACEOUTERBOUND(#330,.T.);
#865=IFCFACEOUTERBOUND(#331,.T.);
#866=IFCFACEOUTERBOUND(#332,.T.);
#867=IFCFACEOUTERBOUND(#333,.T.);
#868=IFCFACEOUTERBOUND(#334,.T.);
#869=IFCFACEOUTERBOUND(#335,.T.);
#870=IFCFACEOUTERBOUND(#336,.T.);
#871=IFCFACEOUTERBOUND(#337,.T.);
#872=IFCFACEOUTERBOUND(#338,.T.);
#873=IFCFACEOUTERBOUND(#339,.T.);
#874=IFCFACEOUTERBOUND(#340,.T.);
#875=IFCFACEOUTERBOUND(#341,.T.);
#876=IFCFACEOUTERBOUND(#342,.T.);
#877=IFCFACEOUTERBOUND(#343,.T.);
#878=IFCFACEOUTERBOUND(#344,.T.);
#879=IFCFACEOUTERBOUND(#345,.T.);
#880=IFCFACEOUTERBOUND(#346,.T.);
#881=IFCFACEOUTERBOUND(#347,.T.);
#882=IFCFACEOUTERBOUND(#348,.T.);
#883=IFCFACEOUTERBOUND(#349,.T.);
#884=IFCFACEOUTERBOUND(#350,.T.);
#885=IFCFACEOUTERBOUND(#351,.T.);
#886=IFCFACEOUTERBOUND(#352,.T.);
#887=IFCFACEOUTERBOUND(#353,.T.);
#888=IFCFACEOUTERBOUND(#354,.T.);
#889=IFCFACEOUTERBOUND(#355,.T.);
#890=IFCFACEOUTERBOUND(#356,.T.);
#891=IFCFACEOUTERBOUND(#357,.T.);
#892=IFCFACEOUTERBOUND(#358,.T.);
#893=IFCFACEOUTERBOUND(#359,.T.);
#894=IFCFACEOUTERBOUND(#360,.T.);
#895=IFCFACEOUTERBOUND(#361,.T.);
#896=IFCFACEOUTERBOUND(#362,.T.);
#897=IFCFACEOUTERBOUND(#363,.T.);
#898=IFCFACEOUTERBOUND(#364,.T.);
#899=IFCFACEOUTERBOUND(#365,.T.);
#900=IFCFACEOUTERBOUND(#366,.T.);
#901=IFCFACEOUTERBOUND(#367,.T.);
#902=IFCFACEOUTERBOUND(#368,.T.);
#903=IFCFACEOUTERBOUND(#369,.T.);
#904=IFCFACEOUTERBOUND(#370,.T.);
#905=IFCFACEOUTERBOUND(#371,.T.);
#906=IFCFACEOUTERBOUND(#372,.T.);
#907=IFCFACEOUTERBOUND(#373,.T.);
#908=IFCFACEOUTERBOUND(#374,.T.);
#909=IFCFACEOUTERBOUND(#375,.T.);
#910=IFCFACEOUTERBOUND(#376,.T.);
#911=IFCFACEOUTERBOUND(#377,.T.);
#912=IFCFACEOUTERBOUND(#378,.T.);
#913=IFCFACEOUTERBOUND(#379,.T.);
#914=IFCFACEOUTERBOUND(#380,.T.);
#915=IFCFACEOUTERBOUND(#381,.T.);
#916=IFCFACEOUTERBOUND(#382,.T.);
#917=IFCFACEOUTERBOUND(#383,.T.);
#918=IFCFACEOUTERBOUND(#384,.T.);
#919=IFCFACEOUTERBOUND(#385,.T.);
#920=IFCFACEOUTERBOUND(#386,.T.);
#921=IFCFACEOUTERBOUND(#387,.T.);
#922=IFCFACEOUTERBOUND(#388,.T.);
#923=IFCFACEOUTERBOUND(#389,.T.);
#924=IFCFACEOUTERBOUND(#390,.T.);
#925=IFCFACEOUTERBOUND(#391,.T.);
#926=IFCFACEOUTERBOUND(#392,.T.);
#927=IFCFACEOUTERBOUND(#393,.T.);
#928=IFCFACEOUTERBOUND(#394,.T.);
#929=IFCFACEOUTERBOUND(#395,.T.);
#930=IFCFACEOUTERBOUND(#396,.T.);
#931=IFCFACEOUTERBOUND(#397,.T.);
#932=IFCFACEOUTERBOUND(#398,.T.);
#933=IFCFACEOUTERBOUND(#399,.T.);
#934=IFCFACEOUTERBOUND(#400,.T.);
#935=IFCFACEOUTERBOUND(#401,.T.);
#936=IFCFACEOUTERBOUND(#402,.T.);
#937=IFCFACEOUTERBOUND(#403,.T.);
#938=IFCFACEOUTERBOUND(#404,.T.);
#939=IFCFACEOUTERBOUND(#405,.T.);
#940=IFCFACEOUTERBOUND(#406,.T.);
#941=IFCFACEOUTERBOUND(#407,.T.);
#942=IFCFACEOUTERBOUND(#408,.T.);
#943=IFCFACEOUTERBOUND(#409,.T.);
#944=IFCFACEOUTERBOUND(#410,.T.);
#945=IFCFACEOUTERBOUND(#411,.T.);
#946=IFCFACEOUTERBOUND(#412,.T.);
#947=IFCFACEOUTERBOUND(#413,.T.);
#948=IFCFACEOUTERBOUND(#414,.T.);
#949=IFCFACEOUTERBOUND(#415,.T.);
#950=IFCFACEOUTERBOUND(#416,.T.);
#951=IFCFACEOUTERBOUND(#417,.T.);
#952=IFCFACEOUTERBOUND(#418,.T.);
#953=IFCFACEOUTERBOUND(#419,.T.);
#954=IFCFACEOUTERBOUND(#420,.T.);
#955=IFCFACEOUTERBOUND(#421,.T.);
#956=IFCFACEOUTERBOUND(#422,.T.);
#957=IFCFACEOUTERBOUND(#423,.T.);
#958=IFCFACEOUTERBOUND(#424,.T.);
#959=IFCFACEOUTERBOUND(#425,.T.);
#960=IFCFACEOUTERBOUND(#426,.T.);
#961=IFCFACEOUTERBOUND(#427,.T.);
#962=IFCFACEOUTERBOUND(#428,.T.);
#963=IFCFACEOUTERBOUND(#429,.T.);
#964=IFCFACEOUTERBOUND(#430,.T.);
#965=IFCFACEOUTERBOUND(#431,.T.);
#966=IFCFACEOUTERBOUND(#432,.T.);
#967=IFCFACEOUTERBOUND(#433,.T.);
#968=IFCFACEOUTERBOUND(#434,.T.);
#969=IFCFACEOUTERBOUND(#435,.T.);
#970=IFCFACEOUTERBOUND(#436,.T.);
#971=IFCFACEOUTERBOUND(#437,.T.);
#972=IFCFACEOUTERBOUND(#438,.T.);
#973=IFCFACEOUTERBOUND(#439,.T.);
#974=IFCFACEOUTERBOUND(#440,.T.);
#975=IFCFACEOUTERBOUND(#441,.T.);
#976=IFCFACEOUTERBOUND(#442,.T.);
#977=IFCFACEOUTERBOUND(#443,.T.);
#978=IFCFACEOUTERBOUND(#444,.T.);
#979=IFCFACEOUTERBOUND(#445,.T.);
#980=IFCFACEOUTERBOUND(#446,.T.);
#981=IFCFACEOUTERBOUND(#447,.T.);
#982=IFCFACEOUTERBOUND(#448,.T.);
#983=IFCFACEOUTERBOUND(#449,.T.);
#984=IFCFACEOUTERBOUND(#450,.T.);
#985=IFCFACEOUTERBOUND(#451,.T.);
#986=IFCFACEOUTERBOUND(#452,.T.);
#987=IFCFACEOUTERBOUND(#453,.T.);
#988=IFCFACEOUTERBOUND(#454,.T.);
#989=IFCFACEOUTERBOUND(#455,.T.);
#990=IFCFACEOUTERBOUND(#456,.T.);
#991=IFCFACEOUTERBOUND(#457,.T.);
#992=IFCFACEOUTERBOUND(#458,.T.);
#993=IFCFACEOUTERBOUND(#459,.T.);
#994=IFCFACEOUTERBOUND(#460,.T.);
#995=IFCFACEOUTERBOUND(#461,.T.);
#996=IFCFACEOUTERBOUND(#462,.T.);
#997=IFCFACEOUTERBOUND(#463,.T.);
#998=IFCFACEOUTERBOUND(#464,.T.);
#999=IFCFACEOUTERBOUND(#465,.T.);
#1000=IFCFACEOUTERBOUND(#466,.T.);
#1001=IFCFACEOUTERBOUND(#467,.T.);
#1002=IFCFACEOUTERBOUND(#468,.T.);
#1003=IFCFACEOUTERBOUND(#469,.T.);
#1004=IFCFACEOUTERBOUND(#470,.T.);
#1005=IFCFACEOUTERBOUND(#471,.T.);
#1006=IFCFACEOUTERBOUND(#472,.T.);
#1007=IFCFACEOUTERBOUND(#473,.T.);
#1008=IFCFACEOUTERBOUND(#474,.T.);
#1009=IFCFACEOUTERBOUND(#475,.T.);
#1010=IFCFACEOUTERBOUND(#476,.T.);
#1011=IFCFACEOUTERBOUND(#477,.T.);
#1012=IFCFACEOUTERBOUND(#478,.T.);
#1013=IFCFACEOUTERBOUND(#479,.T.);
#1014=IFCFACEOUTERBOUND(#480,.T.);
#1015=IFCFACEOUTERBOUND(#481,.T.);
#1016=IFCFACEOUTERBOUND(#482,.T.);
#1017=IFCFACEOUTERBOUND(#483,.T.);
#1018=IFCFACEOUTERBOUND(#484,.T.);
#1019=IFCFACEOUTERBOUND(#485,.T.);
#1020=IFCFACEOUTERBOUND(#486,.T.);
#1021=IFCFACEOUTERBOUND(#487,.T.);
#1022=IFCFACEOUTERBOUND(#488,.T.);
#1023=IFCFACEOUTERBOUND(#489,.T.);
#1024=IFCFACEOUTERBOUND(#490,.T.);
#1025=IFCFACEOUTERBOUND(#491,.T.);
#1026=IFCFACEOUTERBOUND(#492,.T.);
#1027=IFCFACEOUTERBOUND(#493,.T.);
#1028=IFCFACEOUTERBOUND(#494,.T.);
#1029=IFCFACEOUTERBOUND(#495,.T.);
#1030=IFCFACEOUTERBOUND(#496,.T.);
#1031=IFCFACEOUTERBOUND(#497,.T.);
#1032=IFCFACEOUTERBOUND(#498,.T.);
#1033=IFCFACEOUTERBOUND(#499,.T.);
#1034=IFCFACEOUTERBOUND(#500,.T.);
#1035=IFCFACEOUTERBOUND(#501,.T.);
#1036=IFCFACEOUTERBOUND(#502,.T.);
#1037=IFCFACEOUTERBOUND(#503,.T.);
#1038=IFCFACEOUTERBOUND(#504,.T.);
#1039=IFCFACEOUTERBOUND(#505,.T.);
#1040=IFCFACEOUTERBOUND(#506,.T.);
#1041=IFCFACEOUTERBOUND(#507,.T.);
#1042=IFCFACEOUTERBOUND(#508,.T.);
#1043=IFCFACEOUTERBOUND(#509,.T.);
#1044=IFCFACEOUTERBOUND(#510,.T.);
#1045=IFCFACEOUTERBOUND(#511,.T.);
#1046=IFCFACEOUTERBOUND(#512,.T.);
#1047=IFCFACEOUTERBOUND(#513,.T.);
#1048=IFCFACEOUTERBOUND(#514,.T.);
#1049=IFCFACEOUTERBOUND(#515,.T.);
#1050=IFCFACEOUTERBOUND(#516,.T.);
#1051=IFCFACEOUTERBOUND(#517,.T.);
#1052=IFCFACEOUTERBOUND(#518,.T.);
#1053=IFCFACEOUTERBOUND(#519,.T.);
#1054=IFCFACEOUTERBOUND(#520,.T.);
#1055=IFCFACEOUTERBOUND(#521,.T.);
#1056=IFCFACEOUTERBOUND(#522,.T.);
#1057=IFCFACEOUTERBOUND(#523,.T.);
#1058=IFCFACEOUTERBOUND(#524,.T.);
#1059=IFCFACEOUTERBOUND(#525,.T.);
#1060=IFCFACEOUTERBOUND(#526,.T.);
#1061=IFCFACEOUTERBOUND(#527,.T.);
#1062=IFCFACEOUTERBOUND(#528,.T.);
#1063=IFCFACEOUTERBOUND(#529,.T.);
#1064=IFCFACEOUTERBOUND(#530,.T.);
#1065=IFCFACEOUTERBOUND(#531,.T.);
#1066=IFCFACEOUTERBOUND(#532,.T.);
#1067=IFCFACEOUTERBOUND(#533,.T.);
#1068=IFCFACEOUTERBOUND(#534,.T.);
#1069=IFCFACEOUTERBOUND(#535,.T.);
#1070=IFCFACEOUTERBOUND(#536,.T.);
#1071=IFCFACEOUTERBOUND(#537,.T.);
#1072=IFCFACEOUTERBOUND(#538,.T.);
#1073=IFCFACEOUTERBOUND(#539,.T.);
#1074=IFCFACEOUTERBOUND(#540,.T.);
#1075=IFCFACEOUTERBOUND(#541,.T.);
#1076=IFCFACEOUTERBOUND(#542,.T.);
#1077=IFCFACEOUTERBOUND(#543,.T.);
#1078=IFCFACEOUTERBOUND(#544,.T.);
#1079=IFCFACEOUTERBOUND(#545,.T.);
#1080=IFCFACEOUTERBOUND(#546,.T.);
#1081=IFCFACEOUTERBOUND(#547,.T.);
#1082=IFCFACEOUTERBOUND(#548,.T.);
#1083=IFCFACEOUTERBOUND(#549,.T.);
#1084=IFCFACEOUTERBOUND(#550,.T.);
#1085=IFCFACEOUTERBOUND(#551,.T.);
#1086=IFCFACEOUTERBOUND(#552,.T.);
#1087=IFCFACEOUTERBOUND(#553,.T.);
#1088=IFCFACEOUTERBOUND(#554,.T.);
#1089=IFCFACEOUTERBOUND(#555,.T.);
#1090=IFCFACEOUTERBOUND(#556,.T.);
#1091=IFCFACEOUTERBOUND(#557,.T.);
#1092=IFCFACEOUTERBOUND(#558,.T.);
#1093=IFCFACEOUTERBOUND(#559,.T.);
#1094=IFCFACE((#560));
#1095=IFCFACE((#561));
#1096=IFCFACE((#562));
#1097=IFCFACE((#563));
#1098=IFCFACE((#564));
#1099=IFCFACE((#565));
#1100=IFCFACE((#566));
#1101=IFCFACE((#567));
#1102=IFCFACE((#568));
#1103=IFCFACE((#569));
#1104=IFCFACE((#570));
#1105=IFCFACE((#571));
#1106=IFCFACE((#572));
#1107=IFCFACE((#573));
#1108=IFCFACE((#574));
#1109=IFCFACE((#575));
#1110=IFCFACE((#576));
#1111=IFCFACE((#577));
#1112=IFCFACE((#578));
#1113=IFCFACE((#579));
#1114=IFCFACE((#580));
#1115=IFCFACE((#581));
#1116=IFCFACE((#582));
#1117=IFCFACE((#583));
#1118=IFCFACE((#584));
#1119=IFCFACE((#585));
#1120=IFCFACE((#586));
#1121=IFCFACE((#587));
#1122=IFCFACE((#588));
#1123=IFCFACE((#589));
#1124=IFCFACE((#590));
#1125=IFCFACE((#591));
#1126=IFCFACE((#592));
#1127=IFCFACE((#593));
#1128=IFCFACE((#594));
#1129=IFCFACE((#595));
#1130=IFCFACE((#596));
#1131=IFCFACE((#597));
#1132=IFCFACE((#598));
#1133=IFCFACE((#599));
#1134=IFCFACE((#600));
#1135=IFCFACE((#601));
#1136=IFCFACE((#602));
#1137=IFCFACE((#603));
#1138=IFCFACE((#604));
#1139=IFCFACE((#605));
#1140=IFCFACE((#606));
#1141=IFCFACE((#607));
#1142=IFCFACE((#608));
#1143=IFCFACE((#609));
#1144=IFCFACE((#610));
#1145=IFCFACE((#611));
#1146=IFCFACE((#612));
#1147=IFCFACE((#613));
#1148=IFCFACE((#614));
#1149=IFCFACE((#615));
#1150=IFCFACE((#616));
#1151=IFCFACE((#617));
#1152=IFCFACE((#618));
#1153=IFCFACE((#619));
#1154=IFCFACE((#620));
#1155=IFCFACE((#621));
#1156=IFCFACE((#622));
#1157=IFCFACE((#623));
#1158=IFCFACE((#624));
#1159=IFCFACE((#625));
#1160=IFCFACE((#626));
#1161=IFCFACE((#627));
#1162=IFCFACE((#628));
#1163=IFCFACE((#629));
#1164=IFCFACE((#630));
#1165=IFCFACE((#631));
#1166=IFCFACE((#632));
#1167=IFCFACE((#633));
#1168=IFCFACE((#634));
#1169=IFCFACE((#635));
#1170=IFCFACE((#636));
#1171=IFCFACE((#637));
#1172=IFCFACE((#638));
#1173=IFCFACE((#639));
#1174=IFCFACE((#640));
#1175=IFCFACE((#641));
#1176=IFCFACE((#642));
#1177=IFCFACE((#643));
#1178=IFCFACE((#644));
#1179=IFCFACE((#645));
#1180=IFCFACE((#646));
#1181=IFCFACE((#647));
#1182=IFCFACE((#648));
#1183=IFCFACE((#649));
#1184=IFCFACE((#650));
#1185=IFCFACE((#651));
#1186=IFCFACE((#652));
#1187=IFCFACE((#653));
#1188=IFCFACE((#654));
#1189=IFCFACE((#655));
#1190=IFCFACE((#656));
#1191=IFCFACE((#657));
#1192=IFCFACE((#658));
#1193=IFCFACE((#659));
#1194=IFCFACE((#660));
#1195=IFCFACE((#661));
#1196=IFCFACE((#662));
#1197=IFCFACE((#663));
#1198=IFCFACE((#664));
#1199=IFCFACE((#665));
#1200=IFCFACE((#666));
#1201=IFCFACE((#667));
#1202=IFCFACE((#668));
#1203=IFCFACE((#669));
#1204=IFCFACE((#670));
#1205=IFCFACE((#671));
#1206=IFCFACE((#672));
#1207=IFCFACE((#673));
#1208=IFCFACE((#674));
#1209=IFCFACE((#675));
#1210=IFCFACE((#676));
#1211=IFCFACE((#677));
#1212=IFCFACE((#678));
#1213=IFCFACE((#679));
#1214=IFCFACE((#680));
#1215=IFCFACE((#681));
#1216=IFCFACE((#682));
#1217=IFCFACE((#683));
#1218=IFCFACE((#684));
#1219=IFCFACE((#685));
#1220=IFCFACE((#686));
#1221=IFCFACE((#687));
#1222=IFCFACE((#688));
#1223=IFCFACE((#689));
#1224=IFCFACE((#690));
#1225=IFCFACE((#691));
#1226=IFCFACE((#692));
#1227=IFCFACE((#693));
#1228=IFCFACE((#694));
#1229=IFCFACE((#695));
#1230=IFCFACE((#696));
#1231=IFCFACE((#697));
#1232=IFCFACE((#698));
#1233=IFCFACE((#699));
#1234=IFCFACE((#700));
#1235=IFCFACE((#701));
#1236=IFCFACE((#702));
#1237=IFCFACE((#703));
#1238=IFCFACE((#704));
#1239=IFCFACE((#705));
#1240=IFCFACE((#706));
#1241=IFCFACE((#707));
#1242=IFCFACE((#708));
#1243=IFCFACE((#709));
#1244=IFCFACE((#710));
#1245=IFCFACE((#711));
#1246=IFCFACE((#712));
#1247=IFCFACE((#713));
#1248=IFCFACE((#714));
#1249=IFCFACE((#715));
#1250=IFCFACE((#716));
#1251=IFCFACE((#717));
#1252=IFCFACE((#718));
#1253=IFCFACE((#719));
#1254=IFCFACE((#720));
#1255=IFCFACE((#721));
#1256=IFCFACE((#722));
#1257=IFCFACE((#723));
#1258=IFCFACE((#724));
#1259=IFCFACE((#725));
#1260=IFCFACE((#726));
#1261=IFCFACE((#727));
#1262=IFCFACE((#728));
#1263=IFCFACE((#729));
#1264=IFCFACE((#730));
#1265=IFCFACE((#731));
#1266=IFCFACE((#732));
#1267=IFCFACE((#733));
#1268=IFCFACE((#734));
#1269=IFCFACE((#735));
#1270=IFCFACE((#736));
#1271=IFCFACE((#737));
#1272=IFCFACE((#738));
#1273=IFCFACE((#739));
#1274=IFCFACE((#740));
#1275=IFCFACE((#741));
#1276=IFCFACE((#742));
#1277=IFCFACE((#743));
#1278=IFCFACE((#744));
#1279=IFCFACE((#745));
#1280=IFCFACE((#746));
#1281=IFCFACE((#747));
#1282=IFCFACE((#748));
#1283=IFCFACE((#749));
#1284=IFCFACE((#750));
#1285=IFCFACE((#751));
#1286=IFCFACE((#752));
#1287=IFCFACE((#753));
#1288=IFCFACE((#754));
#1289=IFCFACE((#755));
#1290=IFCFACE((#756));
#1291=IFCFACE((#757));
#1292=IFCFACE((#758));
#1293=IFCFACE((#759));
#1294=IFCFACE((#760));
#1295=IFCFACE((#761));
#1296=IFCFACE((#762));
#1297=IFCFACE((#763));
#1298=IFCFACE((#764));
#1299=IFCFACE((#765));
#1300=IFCFACE((#766));
#1301=IFCFACE((#767));
#1302=IFCFACE((#768));
#1303=IFCFACE((#769));
#1304=IFCFACE((#770));
#1305=IFCFACE((#771));
#1306=IFCFACE((#772));
#1307=IFCFACE((#773));
#1308=IFCFACE((#774));
#1309=IFCFACE((#775));
#1310=IFCFACE((#776));
#1311=IFCFACE((#777));
#1312=IFCFACE((#778));
#1313=IFCFACE((#779));
#1314=IFCFACE((#780));
#1315=IFCFACE((#781));
#1316=IFCFACE((#782));
#1317=IFCFACE((#783));
#1318=IFCFACE((#784));
#1319=IFCFACE((#785));
#1320=IFCFACE((#786));
#1321=IFCFACE((#787));
#1322=IFCFACE((#788));
#1323=IFCFACE((#789));
#1324=IFCFACE((#790));
#1325=IFCFACE((#791));
#1326=IFCFACE((#792));
#1327=IFCFACE((#793));
#1328=IFCFACE((#794));
#1329=IFCFACE((#795));
#1330=IFCFACE((#796));
#1331=IFCFACE((#797));
#1332=IFCFACE((#798));
#1333=IFCFACE((#799));
#1334=IFCFACE((#800));
#1335=IFCFACE((#801));
#1336=IFCFACE((#802));
#1337=IFCFACE((#803));
#1338=IFCFACE((#804));
#1339=IFCFACE((#805));
#1340=IFCFACE((#806));
#1341=IFCFACE((#807));
#1342=IFCFACE((#808));
#1343=IFCFACE((#809));
#1344=IFCFACE((#810));
#1345=IFCFACE((#811));
#1346=IFCFACE((#812));
#1347=IFCFACE((#813));
#1348=IFCFACE((#814));
#1349=IFCFACE((#815));
#1350=IFCFACE((#816));
#1351=IFCFACE((#817));
#1352=IFCFACE((#818));
#1353=IFCFACE((#819));
#1354=IFCFACE((#820));
#1355=IFCFACE((#821));
#1356=IFCFACE((#822));
#1357=IFCFACE((#823));
#1358=IFCFACE((#824));
#1359=IFCFACE((#825));
#1360=IFCFACE((#826));
#1361=IFCFACE((#827));
#1362=IFCFACE((#828));
#1363=IFCFACE((#829));
#1364=IFCFACE((#830));
#1365=IFCFACE((#831));
#1366=IFCFACE((#832));
#1367=IFCFACE((#833));
#1368=IFCFACE((#834));
#1369=IFCFACE((#835));
#1370=IFCFACE((#836));
#1371=IFCFACE((#837));
#1372=IFCFACE((#838));
#1373=IFCFACE((#839));
#1374=IFCFACE((#840));
#1375=IFCFACE((#841));
#1376=IFCFACE((#842));
#1377=IFCFACE((#843));
#1378=IFCFACE((#844));
#1379=IFCFACE((#845));
#1380=IFCFACE((#846));
#1381=IFCFACE((#847));
#1382=IFCFACE((#848));
#1383=IFCFACE((#849));
#1384=IFCFACE((#850));
#1385=IFCFACE((#851));
#1386=IFCFACE((#852));
#1387=IFCFACE((#853));
#1388=IFCFACE((#854));
#1389=IFCFACE((#855));
#1390=IFCFACE((#856));
#1391=IFCFACE((#857));
#1392=IFCFACE((#858));
#1393=IFCFACE((#859));
#1394=IFCFACE((#860));
#1395=IFCFACE((#861));
#1396=IFCFACE((#862));
#1397=IFCFACE((#863));
#1398=IFCFACE((#864));
#1399=IFCFACE((#865));
#1400=IFCFACE((#866));
#1401=IFCFACE((#867));
#1402=IFCFACE((#868));
#1403=IFCFACE((#869));
#1404=IFCFACE((#870));
#1405=IFCFACE((#871));
#1406=IFCFACE((#872));
#1407=IFCFACE((#873));
#1408=IFCFACE((#874));
#1409=IFCFACE((#875));
#1410=IFCFACE((#876));
#1411=IFCFACE((#877));
#1412=IFCFACE((#878));
#1413=IFCFACE((#879));
#1414=IFCFACE((#880));
#1415=IFCFACE((#881));
#1416=IFCFACE((#882));
#1417=IFCFACE((#883));
#1418=IFCFACE((#884));
#1419=IFCFACE((#885));
#1420=IFCFACE((#886));
#1421=IFCFACE((#887));
#1422=IFCFACE((#888));
#1423=IFCFACE((#889));
#1424=IFCFACE((#890));
#1425=IFCFACE((#891));
#1426=IFCFACE((#892));
#1427=IFCFACE((#893));
#1428=IFCFACE((#894));
#1429=IFCFACE((#895));
#1430=IFCFACE((#896));
#1431=IFCFACE((#897));
#1432=IFCFACE((#898));
#1433=IFCFACE((#899));
#1434=IFCFACE((#900));
#1435=IFCFACE((#901));
#1436=IFCFACE((#902));
#1437=IFCFACE((#903));
#1438=IFCFACE((#904));
#1439=IFCFACE((#905));
#1440=IFCFACE((#906));
#1441=IFCFACE((#907));
#1442=IFCFACE((#908));
#1443=IFCFACE((#909));
#1444=IFCFACE((#910));
#1445=IFCFACE((#911));
#1446=IFCFACE((#912));
#1447=IFCFACE((#913));
#1448=IFCFACE((#914));
#1449=IFCFACE((#915));
#1450=IFCFACE((#916));
#1451=IFCFACE((#917));
#1452=IFCFACE((#918));
#1453=IFCFACE((#919));
#1454=IFCFACE((#920));
#1455=IFCFACE((#921));
#1456=IFCFACE((#922));
#1457=IFCFACE((#923));
#1458=IFCFACE((#924));
#1459=IFCFACE((#925));
#1460=IFCFACE((#926));
#1461=IFCFACE((#927));
#1462=IFCFACE((#928));
#1463=IFCFACE((#929));
#1464=IFCFACE((#930));
#1465=IFCFACE((#931));
#1466=IFCFACE((#932));
#1467=IFCFACE((#933));
#1468=IFCFACE((#934));
#1469=IFCFACE((#935));
#1470=IFCFACE((#936));
#1471=IFCFACE((#937));
#1472=IFCFACE((#938));
#1473=IFCFACE((#939));
#1474=IFCFACE((#940));
#1475=IFCFACE((#941));
#1476=IFCFACE((#942));
#1477=IFCFACE((#943));
#1478=IFCFACE((#944));
#1479=IFCFACE((#945));
#1480=IFCFACE((#946));
#1481=IFCFACE((#947));
#1482=IFCFACE((#948));
#1483=IFCFACE((#949));
#1484=IFCFACE((#950));
#1485=IFCFACE((#951));
#1486=IFCFACE((#952));
#1487=IFCFACE((#953));
#1488=IFCFACE((#954));
#1489=IFCFACE((#955));
#1490=IFCFACE((#956));
#1491=IFCFACE((#957));
#1492=IFCFACE((#958));
#1493=IFCFACE((#959));
#1494=IFCFACE((#960));
#1495=IFCFACE((#961));
#1496=IFCFACE((#962));
#1497=IFCFACE((#963));
#1498=IFCFACE((#964));
#1499=IFCFACE((#965));
#1500=IFCFACE((#966));
#1501=IFCFACE((#967));
#1502=IFCFACE((#968));
#1503=IFCFACE((#969));
#1504=IFCFACE((#970));
#1505=IFCFACE((#971));
#1506=IFCFACE((#972));
#1507=IFCFACE((#973));
#1508=IFCFACE((#974));
#1509=IFCFACE((#975));
#1510=IFCFACE((#976));
#1511=IFCFACE((#977));
#1512=IFCFACE((#978));
#1513=IFCFACE((#979));
#1514=IFCFACE((#980));
#1515=IFCFACE((#981));
#1516=IFCFACE((#982));
#1517=IFCFACE((#983));
#1518=IFCFACE((#984));
#1519=IFCFACE((#985));
#1520=IFCFACE((#986));
#1521=IFCFACE((#987));
#1522=IFCFACE((#988));
#1523=IFCFACE((#989));
#1524=IFCFACE((#990));
#1525=IFCFACE((#991));
#1526=IFCFACE((#992));
#1527=IFCFACE((#993));
#1528=IFCFACE((#994));
#1529=IFCFACE((#995));
#1530=IFCFACE((#996));
#1531=IFCFACE((#997));
#1532=IFCFACE((#998));
#1533=IFCFACE((#999));
#1534=IFCFACE((#1000));
#1535=IFCFACE((#1001));
#1536=IFCFACE((#1002));
#1537=IFCFACE((#1003));
#1538=IFCFACE((#1004));
#1539=IFCFACE((#1005));
#1540=IFCFACE((#1006));
#1541=IFCFACE((#1007));
#1542=IFCFACE((#1008));
#1543=IFCFACE((#1009));
#1544=IFCFACE((#1010));
#1545=IFCFACE((#1011));
#1546=IFCFACE((#1012));
#1547=IFCFACE((#1013));
#1548=IFCFACE((#1014));
#1549=IFCFACE((#1015));
#1550=IFCFACE((#1016));
#1551=IFCFACE((#1017));
#1552=IFCFACE((#1018));
#1553=IFCFACE((#1019));
#1554=IFCFACE((#1020));
#1555=IFCFACE((#1021));
#1556=IFCFACE((#1022));
#1557=IFCFACE((#1023));
#1558=IFCFACE((#1024));
#1559=IFCFACE((#1025));
#1560=IFCFACE((#1026));
#1561=IFCFACE((#1027));
#1562=IFCFACE((#1028));
#1563=IFCFACE((#1029));
#1564=IFCFACE((#1030));
#1565=IFCFACE((#1031));
#1566=IFCFACE((#1032));
#1567=IFCFACE((#1033));
#1568=IFCFACE((#1034));
#1569=IFCFACE((#1035));
#1570=IFCFACE((#1036));
#1571=IFCFACE((#1037));
#1572=IFCFACE((#1038));
#1573=IFCFACE((#1039));
#1574=IFCFACE((#1040));
#1575=IFCFACE((#1041));
#1576=IFCFACE((#1042));
#1577=IFCFACE((#1043));
#1578=IFCFACE((#1044));
#1579=IFCFACE((#1045));
#1580=IFCFACE((#1046));
#1581=IFCFACE((#1047));
#1582=IFCFACE((#1048));
#1583=IFCFACE((#1049));
#1584=IFCFACE((#1050));
#1585=IFCFACE((#1051));
#1586=IFCFACE((#1052));
#1587=IFCFACE((#1053));
#1588=IFCFACE((#1054));
#1589=IFCFACE((#1055));
#1590=IFCFACE((#1056));
#1591=IFCFACE((#1057));
#1592=IFCFACE((#1058));
#1593=IFCFACE((#1059));
#1594=IFCFACE((#1060));
#1595=IFCFACE((#1061));
#1596=IFCFACE((#1062));
#1597=IFCFACE((#1063));
#1598=IFCFACE((#1064));
#1599=IFCFACE((#1065));
#1600=IFCFACE((#1066));
#1601=IFCFACE((#1067));
#1602=IFCFACE((#1068));
#1603=IFCFACE((#1069));
#1604=IFCFACE((#1070));
#1605=IFCFACE((#1071));
#1606=IFCFACE((#1072));
#1607=IFCFACE((#1073));
#1608=IFCFACE((#1074));
#1609=IFCFACE((#1075));
#1610=IFCFACE((#1076));
#1611=IFCFACE((#1077));
#1612=IFCFACE((#1078));
#1613=IFCFACE((#1079));
#1614=IFCFACE((#1080));
#1615=IFCFACE((#1081));
#1616=IFCFACE((#1082));
#1617=IFCFACE((#1083));
#1618=IFCFACE((#1084));
#1619=IFCFACE((#1085));
#1620=IFCFACE((#1086));
#1621=IFCFACE((#1087));
#1622=IFCFACE((#1088));
#1623=IFCFACE((#1089));
#1624=IFCFACE((#1090));
#1625=IFCFACE((#1091));
#1626=IFCFACE((#1092));
#1627=IFCFACE((#1093));
#1628=IFCCLOSEDSHELL((#1094,#1095,#1096,#1097,#1098,#1099,#1100,#1101,#1102,
#1103,#1104,#1105,#1106,#1107,#1108,#1109,#1110,#1111,#1112,#1113,#1114,
#1115,#1116,#1117,#1118,#1119,#1120,#1121,#1122,#1123,#1124,#1125,#1126,
#1127,#1128,#1129,#1130,#1131,#1132,#1133,#1134,#1135,#1136,#1137,#1138,
#1139,#1140,#1141,#1142,#1143,#1144,#1145,#1146,#1147,#1148,#1149,#1150,
#1151,#1152,#1153,#1154,#1155,#1156,#1157,#1158,#1159,#1160,#1161,#1162,
#1163,#1164,#1165,#1166,#1167,#1168,#1169,#1170,#1171,#1172,#1173,#1174,
#1175,#1176,#1177,#1178,#1179,#1180,#1181,#1182,#1183,#1184,#1185,#1186,
#1187,#1188,#1189,#1190,#1191,#1192,#1193,#1194,#1195,#1196,#1197,#1198,
#1199,#1200,#1201,#1202,#1203,#1204,#1205,#1206,#1207,#1208,#1209,#1210,
#1211,#1212,#1213,#1214,#1215,#1216,#1217,#1218,#1219,#1220,#1221,#1222,
#1223,#1224,#1225,#1226,#1227,#1228,#1229,#1230,#1231,#1232,#1233,#1234,
#1235,#1236,#1237,#1238,#1239,#1240,#1241,#1242,#1243,#1244,#1245,#1246,
#1247,#1248,#1249,#1250,#1251,#1252,#1253,#1254,#1255,#1256,#1257,#1258,
#1259,#1260,#1261,#1262,#1263,#1264,#1265,#1266,#1267,#1268,#1269,#1270,
#1271,#1272,#1273,#1274,#1275,#1276,#1277,#1278,#1279,#1280,#1281,#1282,
#1283,#1284,#1285,#1286,#1287,#1288,#1289,#1290,#1291,#1292,#1293,#1294,
#1295,#1296,#1297,#1298,#1299,#1300,#1301,#1302,#1303,#1304,#1305,#1306,
#1307,#1308,#1309,#1310,#1311,#1312,#1313,#1314,#1315,#1316,#1317,#1318,
#1319,#1320,#1321,#1322,#1323,#1324,#1325,#1326,#1327,#1328,#1329,#1330,
#1331,#1332,#1333,#1334,#1335,#1336,#1337,#1338,#1339,#1340,#1341,#1342,
#1343,#1344,#1345,#1346,#1347,#1348,#1349,#1350,#1351,#1352,#1353,#1354,
#1355,#1356,#1357,#1358,#1359,#1360,#1361,#1362,#1363,#1364,#1365,#1366,
#1367,#1368,#1369,#1370,#1371,#1372,#1373,#1374,#1375,#1376,#1377,#1378,
#1379,#1380,#1381,#1382,#1383,#1384,#1385,#1386,#1387,#1388,#1389,#1390,
#1391,#1392,#1393,#1394,#1395,#1396,#1397,#1398,#1399,#1400,#1401,#1402,
#1403,#1404,#1405,#1406,#1407,#1408,#1409,#1410,#1411,#1412,#1413,#1414,
#1415,#1416,#1417,#1418,#1419,#1420,#1421,#1422,#1423,#1424,#1425,#1426,
#1427,#1428,#1429,#1430,#1431,#1432,#1433,#1434,#1435,#1436,#1437,#1438,
#1439,#1440,#1441,#1442,#1443,#1444,#1445,#1446,#1447,#1448,#1449,#1450,
#1451,#1452,#1453,#1454,#1455,#1456,#1457,#1458,#1459,#1460,#1461,#1462,
#1463,#1464,#1465,#1466,#1467,#1468,#1469,#1470,#1471,#1472,#1473,#1474,
#1475,#1476,#1477,#1478,#1479,#1480,#1481,#1482,#1483,#1484,#1485,#1486,
#1487,#1488,#1489,#1490,#1491,#1492,#1493,#1494,#1495,#1496,#1497,#1498,
#1499,#1500,#1501,#1502,#1503,#1504,#1505,#1506,#1507,#1508,#1509,#1510,
#1511,#1512,#1513,#1514,#1515,#1516,#1517,#1518,#1519,#1520,#1521,#1522,
#1523,#1524,#1525,#1526,#1527,#1528,#1529,#1530,#1531,#1532,#1533,#1534,
#1535,#1536,#1537,#1538,#1539,#1540,#1541,#1542,#1543,#1544,#1545,#1546,
#1547,#1548,#1549,#1550,#1551,#1552,#1553,#1554,#1555,#1556,#1557,#1558,
#1559,#1560,#1561,#1562,#1563,#1564,#1565,#1566,#1567,#1568,#1569,#1570,
#1571,#1572,#1573,#1574,#1575,#1576,#1577,#1578,#1579,#1580,#1581,#1582,
#1583,#1584,#1585,#1586,#1587,#1588,#1589,#1590,#1591,#1592,#1593,#1594,
#1595,#1596,#1597,#1598,#1599,#1600,#1601,#1602,#1603,#1604,#1605,#1606,
#1607,#1608,#1609,#1610,#1611,#1612,#1613,#1614,#1615,#1616,#1617,#1618,
#1619,#1620,#1621,#1622,#1623,#1624,#1625,#1626,#1627));
#1629=IFCSTYLEDITEM(#1634,(#1630),'');
#1630=IFCPRESENTATIONSTYLEASSIGNMENT((#1631));
#1631=IFCSURFACESTYLE('',.BOTH.,(#1632));
#1632=IFCSURFACESTYLERENDERING(#1633,0.,$,$,$,$,$,$,.NOTDEFINED.);
#1633=IFCCOLOURRGB('',0.200000002980232,0.200000002980232,0.200000002980232);
#1634=IFCFACETEDBREP(#1628);
#1635=IFCPROJECT('07hUkdHgGydfWsFJH56q5B',#2130,'Black_6019986_AVV',' ',
' ',' ',' ',(#2125),#1636);
#1636=IFCUNITASSIGNMENT((#2126,#2127,#2128,#2129));
#1637=IFCGEOMETRICREPRESENTATIONSUBCONTEXT('Body','Model',*,*,*,*,#2125,
1.,.MODEL_VIEW.,$);
#1638=IFCAXIS2PLACEMENT3D(#1644,#1640,#1641);
#1639=IFCAXIS2PLACEMENT3D(#2124,#1642,#1643);
#1640=IFCDIRECTION((0.,0.,1.));
#1641=IFCDIRECTION((1.,0.,0.));
#1642=IFCDIRECTION((0.,0.,1.));
#1643=IFCDIRECTION((1.,0.,0.));
#1644=IFCCARTESIANPOINT((0.,0.,0.));
#1645=IFCCARTESIANPOINT((-3.2,10.864026550785,2.81368135966822));
#1646=IFCCARTESIANPOINT((-3.2,10.1920310216783,1.8079689783217));
#1647=IFCCARTESIANPOINT((-3.19999999999999,9.69705627484771,2.30294372515228));
#1648=IFCCARTESIANPOINT((-3.19999999999999,10.2173108780271,3.08155976232378));
#1649=IFCCARTESIANPOINT((-3.19999999999999,9.18631864033178,1.13597344921501));
#1650=IFCCARTESIANPOINT((-3.19999999999999,8.91844023767622,1.78268912197291));
#1651=IFCCARTESIANPOINT((-3.19999999999999,6.81368135966822,1.13597344921501));
#1652=IFCCARTESIANPOINT((-3.19999999999999,5.8079689783217,1.8079689783217));
#1653=IFCCARTESIANPOINT((-3.19999999999999,6.30294372515228,2.30294372515228));
#1654=IFCCARTESIANPOINT((-3.19999999999999,7.08155976232378,1.78268912197291));
#1655=IFCCARTESIANPOINT((-3.19999999999999,5.13597344921501,2.81368135966822));
#1656=IFCCARTESIANPOINT((-3.19999999999999,4.9,4.));
#1657=IFCCARTESIANPOINT((-3.19999999999999,5.59999999999999,4.));
#1658=IFCCARTESIANPOINT((-3.19999999999999,5.78268912197291,3.08155976232378));
#1659=IFCCARTESIANPOINT((-3.19999999999999,6.81368135966822,6.86402655078499));
#1660=IFCCARTESIANPOINT((-3.19999999999999,8.,7.1));
#1661=IFCCARTESIANPOINT((-3.19999999999999,8.,6.4));
#1662=IFCCARTESIANPOINT((-3.19999999999999,7.08155976232378,6.21731087802709));
#1663=IFCCARTESIANPOINT((-3.19999999999999,9.18631864033178,6.86402655078499));
#1664=IFCCARTESIANPOINT((-3.2,10.1920310216783,6.1920310216783));
#1665=IFCCARTESIANPOINT((-3.19999999999999,9.69705627484771,5.69705627484772));
#1666=IFCCARTESIANPOINT((-3.19999999999999,8.91844023767622,6.21731087802709));
#1667=IFCCARTESIANPOINT((-3.19999999999999,8.,0.899999999999996));
#1668=IFCCARTESIANPOINT((-3.19999999999999,8.,1.6));
#1669=IFCCARTESIANPOINT((-3.19999999999999,5.13597344921501,5.18631864033178));
#1670=IFCCARTESIANPOINT((-3.19999999999999,5.8079689783217,6.1920310216783));
#1671=IFCCARTESIANPOINT((-3.19999999999999,6.30294372515228,5.69705627484772));
#1672=IFCCARTESIANPOINT((-3.19999999999999,5.78268912197291,4.91844023767622));
#1673=IFCCARTESIANPOINT((-3.2,10.864026550785,5.18631864033178));
#1674=IFCCARTESIANPOINT((-3.2,11.1,4.));
#1675=IFCCARTESIANPOINT((-3.19999999999999,10.4,4.));
#1676=IFCCARTESIANPOINT((-3.19999999999999,10.2173108780271,4.91844023767622));
#1677=IFCCARTESIANPOINT((3.20000000000001,5.78268912197291,4.91844023767622));
#1678=IFCCARTESIANPOINT((3.20000000000001,5.6,4.));
#1679=IFCCARTESIANPOINT((3.20000000000001,6.30294372515229,5.69705627484772));
#1680=IFCCARTESIANPOINT((3.20000000000001,7.08155976232379,6.21731087802709));
#1681=IFCCARTESIANPOINT((3.20000000000001,8.,6.4));
#1682=IFCCARTESIANPOINT((3.20000000000001,8.91844023767622,6.21731087802709));
#1683=IFCCARTESIANPOINT((3.2,9.69705627484772,5.69705627484772));
#1684=IFCCARTESIANPOINT((3.2,10.2173108780271,4.91844023767622));
#1685=IFCCARTESIANPOINT((3.2,10.4,4.));
#1686=IFCCARTESIANPOINT((3.2,10.2173108780271,3.08155976232378));
#1687=IFCCARTESIANPOINT((3.2,9.69705627484772,2.30294372515228));
#1688=IFCCARTESIANPOINT((3.20000000000001,8.91844023767622,1.78268912197291));
#1689=IFCCARTESIANPOINT((3.20000000000001,8.,1.6));
#1690=IFCCARTESIANPOINT((3.20000000000001,7.08155976232378,1.78268912197291));
#1691=IFCCARTESIANPOINT((3.20000000000001,6.30294372515229,2.30294372515228));
#1692=IFCCARTESIANPOINT((3.20000000000001,5.78268912197291,3.08155976232378));
#1693=IFCCARTESIANPOINT((-3.99999999999999,5.13597344921501,5.18631864033178));
#1694=IFCCARTESIANPOINT((-3.99999999999999,4.9,4.));
#1695=IFCCARTESIANPOINT((-3.99999999999999,5.8079689783217,6.1920310216783));
#1696=IFCCARTESIANPOINT((-3.99999999999999,6.81368135966822,6.86402655078499));
#1697=IFCCARTESIANPOINT((-3.99999999999999,8.,7.1));
#1698=IFCCARTESIANPOINT((-4.,9.18631864033178,6.86402655078499));
#1699=IFCCARTESIANPOINT((-4.,10.1920310216783,6.1920310216783));
#1700=IFCCARTESIANPOINT((-4.,10.864026550785,5.18631864033178));
#1701=IFCCARTESIANPOINT((-4.,11.1,4.));
#1702=IFCCARTESIANPOINT((-4.,10.864026550785,2.81368135966822));
#1703=IFCCARTESIANPOINT((-4.,10.1920310216783,1.8079689783217));
#1704=IFCCARTESIANPOINT((-4.,9.18631864033178,1.13597344921501));
#1705=IFCCARTESIANPOINT((-3.99999999999999,8.,0.899999999999996));
#1706=IFCCARTESIANPOINT((-3.99999999999999,6.81368135966822,1.13597344921501));
#1707=IFCCARTESIANPOINT((-3.99999999999999,5.8079689783217,1.8079689783217));
#1708=IFCCARTESIANPOINT((-3.99999999999999,5.13597344921501,2.81368135966822));
#1709=IFCCARTESIANPOINT((-4.,11.3259663170406,5.37766035651432));
#1710=IFCCARTESIANPOINT((-4.,11.6,4.));
#1711=IFCCARTESIANPOINT((-4.,11.3259663170406,2.62233964348568));
#1712=IFCCARTESIANPOINT((-4.,10.5455844122716,1.45441558772843));
#1713=IFCCARTESIANPOINT((-3.99999999999999,6.62233964348567,7.32596631704063));
#1714=IFCCARTESIANPOINT((-3.99999999999999,8.,7.6));
#1715=IFCCARTESIANPOINT((-4.,9.37766035651432,0.674033682959366));
#1716=IFCCARTESIANPOINT((-3.99999999999999,5.45441558772842,1.45441558772843));
#1717=IFCCARTESIANPOINT((-3.99999999999999,4.67403368295936,2.62233964348568));
#1718=IFCCARTESIANPOINT((-4.,9.37766035651432,7.32596631704063));
#1719=IFCCARTESIANPOINT((-3.99999999999999,8.,0.399999999999998));
#1720=IFCCARTESIANPOINT((-3.99999999999999,6.62233964348567,0.674033682959367));
#1721=IFCCARTESIANPOINT((-3.99999999999999,4.67403368295936,5.37766035651432));
#1722=IFCCARTESIANPOINT((-3.99999999999999,5.45441558772843,6.54558441227157));
#1723=IFCCARTESIANPOINT((-4.,10.5455844122716,6.54558441227157));
#1724=IFCCARTESIANPOINT((-3.99999999999999,4.39999999999999,4.));
#1725=IFCCARTESIANPOINT((3.20000000000001,9.37766035651433,7.32596631704063));
#1726=IFCCARTESIANPOINT((3.20000000000001,8.,7.6));
#1727=IFCCARTESIANPOINT((3.20000000000001,4.9,7.6));
#1728=IFCCARTESIANPOINT((3.20000000000001,4.9,4.));
#1729=IFCCARTESIANPOINT((3.20000000000001,5.13597344921501,2.81368135966822));
#1730=IFCCARTESIANPOINT((3.20000000000001,6.81368135966823,1.13597344921501));
#1731=IFCCARTESIANPOINT((3.20000000000001,8.00000000000001,0.899999999999996));
#1732=IFCCARTESIANPOINT((3.20000000000001,5.8079689783217,1.8079689783217));
#1733=IFCCARTESIANPOINT((3.20000000000001,10.864026550785,2.81368135966822));
#1734=IFCCARTESIANPOINT((3.2,11.1,4.));
#1735=IFCCARTESIANPOINT((3.20000000000001,11.1,5.8303005217723));
#1736=IFCCARTESIANPOINT((3.2,10.5455844122716,6.54558441227157));
#1737=IFCCARTESIANPOINT((3.20000000000001,9.18631864033178,1.13597344921501));
#1738=IFCCARTESIANPOINT((3.20000000000001,10.1920310216783,1.8079689783217));
#1739=IFCCARTESIANPOINT((4.,10.864026550785,2.81368135966822));
#1740=IFCCARTESIANPOINT((4.00000000000001,11.1,4.));
#1741=IFCCARTESIANPOINT((4.00000000000001,10.1920310216783,1.8079689783217));
#1742=IFCCARTESIANPOINT((4.00000000000001,9.18631864033178,1.13597344921501));
#1743=IFCCARTESIANPOINT((4.00000000000001,8.00000000000001,0.899999999999996));
#1744=IFCCARTESIANPOINT((4.00000000000001,6.81368135966823,1.13597344921501));
#1745=IFCCARTESIANPOINT((4.00000000000001,5.8079689783217,1.8079689783217));
#1746=IFCCARTESIANPOINT((4.00000000000001,5.13597344921501,2.81368135966822));
#1747=IFCCARTESIANPOINT((4.00000000000001,4.9,4.));
#1748=IFCCARTESIANPOINT((4.00000000000001,6.62233964348568,0.674033682959367));
#1749=IFCCARTESIANPOINT((4.00000000000001,8.,0.399999999999998));
#1750=IFCCARTESIANPOINT((4.,10.5455844122716,1.45441558772843));
#1751=IFCCARTESIANPOINT((4.,11.3259663170406,2.62233964348568));
#1752=IFCCARTESIANPOINT((4.00000000000001,9.37766035651432,0.674033682959366));
#1753=IFCCARTESIANPOINT((4.,11.6,4.));
#1754=IFCCARTESIANPOINT((4.00000000000001,4.67403368295937,2.62233964348568));
#1755=IFCCARTESIANPOINT((4.00000000000001,5.45441558772843,1.45441558772843));
#1756=IFCCARTESIANPOINT((4.00000000000001,4.4,4.));
#1757=IFCCARTESIANPOINT((3.39784299239327,11.3259663170406,5.37766035651432));
#1758=IFCCARTESIANPOINT((3.20000000000001,4.4,7.6));
#1759=IFCCARTESIANPOINT((3.6,4.4,5.80000000000005));
#1760=IFCCARTESIANPOINT((3.6,4.4,7.6));
#1761=IFCCARTESIANPOINT((3.60000000000001,4.4,4.));
#1762=IFCCARTESIANPOINT((2.60000000000003,2.48997991959771,7.6));
#1763=IFCCARTESIANPOINT((3.32596631704063,1.37766035651432,7.6));
#1764=IFCCARTESIANPOINT((3.6,0.,7.6));
#1765=IFCCARTESIANPOINT((2.60000000000003,7.99999999999999,7.6));
#1766=IFCCARTESIANPOINT((2.60000000000003,5.45441558772843,6.54558441227157));
#1767=IFCCARTESIANPOINT((2.60000000000003,4.67403368295937,5.37766035651432));
#1768=IFCCARTESIANPOINT((2.60000000000003,6.62233964348568,7.32596631704063));
#1769=IFCCARTESIANPOINT((2.60000000000003,4.51431498841332,4.9));
#1770=IFCCARTESIANPOINT((2.60000000000003,2.48997991959771,4.9));
#1771=IFCCARTESIANPOINT((1.37766035651432,3.32596631704063,4.9));
#1772=IFCCARTESIANPOINT((2.54558441227157,2.54558441227157,4.9));
#1773=IFCCARTESIANPOINT((-5.78924153883589E-16,3.6,4.9));
#1774=IFCCARTESIANPOINT((-2.79999999999997,4.51431498841332,4.9));
#1775=IFCCARTESIANPOINT((-1.37766035651432,3.32596631704063,4.9));
#1776=IFCCARTESIANPOINT((-2.79999999999997,2.26274169979699,4.9));
#1777=IFCCARTESIANPOINT((-2.54558441227157,2.54558441227157,4.9));
#1778=IFCCARTESIANPOINT((-2.79999999999997,2.26274169979699,7.6));
#1779=IFCCARTESIANPOINT((-2.79999999999997,5.45441558772843,6.54558441227157));
#1780=IFCCARTESIANPOINT((-2.79999999999997,6.62233964348567,7.32596631704063));
#1781=IFCCARTESIANPOINT((-2.79999999999997,4.67403368295936,5.37766035651432));
#1782=IFCCARTESIANPOINT((-2.79999999999997,7.99999999999999,7.6));
#1783=IFCCARTESIANPOINT((-3.59999999999999,8.,7.6));
#1784=IFCCARTESIANPOINT((-3.6,4.40872847693047E-16,7.6));
#1785=IFCCARTESIANPOINT((-3.32596631704063,1.37766035651432,7.6));
#1786=IFCCARTESIANPOINT((-3.59999999999999,4.67403368295936,5.37766035651432));
#1787=IFCCARTESIANPOINT((-3.59999999999999,4.4,4.));
#1788=IFCCARTESIANPOINT((-3.59999999999999,4.67403368295936,2.62233964348568));
#1789=IFCCARTESIANPOINT((-3.6,4.40872847693047E-16,0.4));
#1790=IFCCARTESIANPOINT((-3.59999999999999,5.45441558772843,6.54558441227157));
#1791=IFCCARTESIANPOINT((-3.59999999999999,5.45441558772842,1.45441558772843));
#1792=IFCCARTESIANPOINT((-3.59999999999999,6.62233964348567,0.674033682959367));
#1793=IFCCARTESIANPOINT((-3.59999999999999,6.62233964348567,7.32596631704063));
#1794=IFCCARTESIANPOINT((-3.59999999999999,7.99999999999999,0.399999999999998));
#1795=IFCCARTESIANPOINT((-2.79999999999997,8.,0.399999999999996));
#1796=IFCCARTESIANPOINT((-2.79999999999997,2.26274169979698,0.399999999999998));
#1797=IFCCARTESIANPOINT((-3.32596631704063,1.37766035651432,0.399999999999998));
#1798=IFCCARTESIANPOINT((-2.79999999999997,5.45441558772842,1.45441558772843));
#1799=IFCCARTESIANPOINT((-2.79999999999997,4.67403368295936,2.62233964348568));
#1800=IFCCARTESIANPOINT((-2.79999999999997,6.62233964348567,0.674033682959367));
#1801=IFCCARTESIANPOINT((-2.79999999999997,4.51431498841332,3.1));
#1802=IFCCARTESIANPOINT((-2.79999999999997,2.26274169979698,3.1));
#1803=IFCCARTESIANPOINT((-1.37766035651432,3.32596631704063,3.1));
#1804=IFCCARTESIANPOINT((-2.54558441227157,2.54558441227157,3.1));
#1805=IFCCARTESIANPOINT((2.60000000000003,4.51431498841332,3.1));
#1806=IFCCARTESIANPOINT((-5.78924153883589E-16,3.6,3.1));
#1807=IFCCARTESIANPOINT((1.37766035651432,3.32596631704063,3.1));
#1808=IFCCARTESIANPOINT((2.60000000000003,2.48997991959771,3.1));
#1809=IFCCARTESIANPOINT((2.54558441227157,2.54558441227157,3.1));
#1810=IFCCARTESIANPOINT((3.60000000000001,8.,0.400000000000001));
#1811=IFCCARTESIANPOINT((2.60000000000003,8.,0.399999999999996));
#1812=IFCCARTESIANPOINT((2.60000000000003,6.62233964348568,0.674033682959367));
#1813=IFCCARTESIANPOINT((2.60000000000003,5.45441558772843,1.45441558772843));
#1814=IFCCARTESIANPOINT((2.60000000000003,4.67403368295937,2.62233964348568));
#1815=IFCCARTESIANPOINT((3.60000000000001,6.62233964348568,0.674033682959367));
#1816=IFCCARTESIANPOINT((3.60000000000001,5.45441558772843,1.45441558772843));
#1817=IFCCARTESIANPOINT((3.60000000000001,4.67403368295937,2.62233964348568));
#1818=IFCCARTESIANPOINT((2.60000000000003,2.48997991959771,0.399999999999998));
#1819=IFCCARTESIANPOINT((3.6,0.,0.4));
#1820=IFCCARTESIANPOINT((3.32596631704063,1.37766035651432,0.4));
#1821=IFCCARTESIANPOINT((3.6,3.6,6.));
#1822=IFCCARTESIANPOINT((3.6,3.6,2.));
#1823=IFCCARTESIANPOINT((3.6,2.8,2.));
#1824=IFCCARTESIANPOINT((3.6,1.54074395550979E-30,4.4));
#1825=IFCCARTESIANPOINT((3.6,2.8,4.4));
#1826=IFCCARTESIANPOINT((3.6,2.8,6.));
#1827=IFCCARTESIANPOINT((3.6,2.8,3.6));
#1828=IFCCARTESIANPOINT((3.6,0.,3.6));
#1829=IFCCARTESIANPOINT((21.737258300203,2.8,2.));
#1830=IFCCARTESIANPOINT((21.737258300203,2.8,3.6));
#1831=IFCCARTESIANPOINT((21.7372583002031,2.8,4.4));
#1832=IFCCARTESIANPOINT((21.737258300203,2.8,6.));
#1833=IFCCARTESIANPOINT((24.,3.60000000000001,6.));
#1834=IFCCARTESIANPOINT((24.,3.60000000000001,2.));
#1835=IFCCARTESIANPOINT((22.6223396434857,3.32596631704063,6.));
#1836=IFCCARTESIANPOINT((22.6223396434857,3.32596631704063,2.));
#1837=IFCCARTESIANPOINT((3.32596631704063,-1.37766035651432,3.6));
#1838=IFCCARTESIANPOINT((20.6740336829594,-1.37766035651432,3.6));
#1839=IFCCARTESIANPOINT((21.4544155877284,-2.54558441227157,3.6));
#1840=IFCCARTESIANPOINT((20.4,4.40872847693047E-16,3.6));
#1841=IFCCARTESIANPOINT((21.737258300203,-2.79999999999999,3.6));
#1842=IFCCARTESIANPOINT((2.26274169979699,-2.79999999999997,3.6));
#1843=IFCCARTESIANPOINT((2.54558441227157,-2.54558441227157,3.6));
#1844=IFCCARTESIANPOINT((20.6740336829594,1.37766035651432,3.6));
#1845=IFCCARTESIANPOINT((21.4544155877284,2.54558441227157,3.6));
#1846=IFCCARTESIANPOINT((3.32596631704063,-1.37766035651432,4.4));
#1847=IFCCARTESIANPOINT((21.737258300203,-2.79999999999999,4.4));
#1848=IFCCARTESIANPOINT((21.4544155877284,-2.54558441227157,4.4));
#1849=IFCCARTESIANPOINT((2.54558441227157,-2.54558441227157,4.4));
#1850=IFCCARTESIANPOINT((20.6740336829594,-1.37766035651432,4.4));
#1851=IFCCARTESIANPOINT((20.4,4.40872847693047E-16,4.4));
#1852=IFCCARTESIANPOINT((20.6740336829594,1.37766035651432,4.4));
#1853=IFCCARTESIANPOINT((21.4544155877284,2.54558441227157,4.4));
#1854=IFCCARTESIANPOINT((2.26274169979699,-2.79999999999997,4.4));
#1855=IFCCARTESIANPOINT((2.26274169979699,-2.79999999999997,2.));
#1856=IFCCARTESIANPOINT((21.737258300203,-2.79999999999999,2.));
#1857=IFCCARTESIANPOINT((21.737258300203,-2.79999999999999,6.));
#1858=IFCCARTESIANPOINT((2.26274169979699,-2.79999999999997,6.));
#1859=IFCCARTESIANPOINT((1.37766035651432,-3.32596631704063,2.));
#1860=IFCCARTESIANPOINT((22.6223396434857,-3.32596631704063,2.));
#1861=IFCCARTESIANPOINT((24.,-3.6,2.));
#1862=IFCCARTESIANPOINT((3.08600801163242E-15,-3.6,2.));
#1863=IFCCARTESIANPOINT((24.,-3.6,6.));
#1864=IFCCARTESIANPOINT((3.08600801163239E-15,-3.59999999999997,6.));
#1865=IFCCARTESIANPOINT((1.37766035651432,-3.32596631704063,6.));
#1866=IFCCARTESIANPOINT((22.6223396434857,-3.32596631704063,6.));
#1867=IFCCARTESIANPOINT((-3.32596631704063,-1.37766035651432,0.));
#1868=IFCCARTESIANPOINT((-3.32596631704063,-1.37766035651432,8.));
#1869=IFCCARTESIANPOINT((-3.6,4.40872847693047E-16,8.));
#1870=IFCCARTESIANPOINT((-1.37766035651432,-3.32596631704063,0.));
#1871=IFCCARTESIANPOINT((-6.61309271539571E-16,-3.6,0.));
#1872=IFCCARTESIANPOINT((-1.37766035651432,-3.32596631704063,8.));
#1873=IFCCARTESIANPOINT((-3.32596631704063,1.37766035651432,0.));
#1874=IFCCARTESIANPOINT((-2.54558441227157,2.54558441227157,0.));
#1875=IFCCARTESIANPOINT((3.32596631704063,1.37766035651432,0.));
#1876=IFCCARTESIANPOINT((2.54558441227157,2.54558441227157,0.));
#1877=IFCCARTESIANPOINT((3.32596631704063,-1.37766035651432,0.));
#1878=IFCCARTESIANPOINT((3.6,0.,0.));
#1879=IFCCARTESIANPOINT((1.37766035651432,-3.32596631704063,0.));
#1880=IFCCARTESIANPOINT((2.54558441227157,-2.54558441227157,0.));
#1881=IFCCARTESIANPOINT((1.37766035651432,-3.32596631704063,8.));
#1882=IFCCARTESIANPOINT((2.54558441227157,-2.54558441227157,8.));
#1883=IFCCARTESIANPOINT((3.32596631704063,-1.37766035651432,8.));
#1884=IFCCARTESIANPOINT((3.32596631704063,1.37766035651432,8.));
#1885=IFCCARTESIANPOINT((2.54558441227157,2.54558441227157,8.));
#1886=IFCCARTESIANPOINT((-3.32596631704063,1.37766035651432,8.));
#1887=IFCCARTESIANPOINT((-2.54558441227157,2.54558441227157,8.));
#1888=IFCCARTESIANPOINT((-1.37766035651432,3.32596631704063,8.));
#1889=IFCCARTESIANPOINT((-5.78924153883589E-16,3.6,8.));
#1890=IFCCARTESIANPOINT((1.37766035651432,3.32596631704063,8.));
#1891=IFCCARTESIANPOINT((3.6,0.,8.));
#1892=IFCCARTESIANPOINT((-6.61309271539571E-16,-3.6,8.));
#1893=IFCCARTESIANPOINT((1.37766035651432,3.32596631704063,0.));
#1894=IFCCARTESIANPOINT((-5.78924153883589E-16,3.6,0.));
#1895=IFCCARTESIANPOINT((-1.37766035651432,3.32596631704063,0.));
#1896=IFCCARTESIANPOINT((-3.6,4.40872847693047E-16,0.));
#1897=IFCCARTESIANPOINT((-2.54558441227157,-2.54558441227157,8.));
#1898=IFCCARTESIANPOINT((-2.54558441227157,-2.54558441227157,0.));
#1899=IFCCARTESIANPOINT((-4.98518021399757E-16,3.1,0.));
#1900=IFCCARTESIANPOINT((-1.18631864033178,2.86402655078499,0.));
#1901=IFCCARTESIANPOINT((1.18631864033178,2.86402655078499,0.));
#1902=IFCCARTESIANPOINT((2.86402655078499,1.18631864033178,0.));
#1903=IFCCARTESIANPOINT((2.1920310216783,2.1920310216783,0.));
#1904=IFCCARTESIANPOINT((3.1,0.,0.));
#1905=IFCCARTESIANPOINT((2.86402655078499,-1.18631864033178,0.));
#1906=IFCCARTESIANPOINT((2.1920310216783,-2.1920310216783,0.));
#1907=IFCCARTESIANPOINT((-5.69460761603519E-16,-3.1,0.));
#1908=IFCCARTESIANPOINT((1.18631864033178,-2.86402655078499,0.));
#1909=IFCCARTESIANPOINT((-2.1920310216783,-2.1920310216783,0.));
#1910=IFCCARTESIANPOINT((-1.18631864033178,-2.86402655078499,0.));
#1911=IFCCARTESIANPOINT((-2.1920310216783,2.1920310216783,0.));
#1912=IFCCARTESIANPOINT((-2.86402655078499,1.18631864033178,0.));
#1913=IFCCARTESIANPOINT((-3.1,3.79640507735679E-16,0.));
#1914=IFCCARTESIANPOINT((-2.86402655078499,-1.18631864033178,0.));
#1915=IFCCARTESIANPOINT((2.86402655078499,1.18631864033178,0.799999999999998));
#1916=IFCCARTESIANPOINT((3.1,0.,0.799999999999998));
#1917=IFCCARTESIANPOINT((2.1920310216783,2.1920310216783,0.799999999999998));
#1918=IFCCARTESIANPOINT((1.18631864033178,2.86402655078499,0.799999999999998));
#1919=IFCCARTESIANPOINT((-4.98518021399757E-16,3.1,0.799999999999998));
#1920=IFCCARTESIANPOINT((-1.18631864033178,2.86402655078499,0.799999999999998));
#1921=IFCCARTESIANPOINT((-2.1920310216783,2.1920310216783,0.799999999999998));
#1922=IFCCARTESIANPOINT((-2.86402655078499,1.18631864033178,0.799999999999998));
#1923=IFCCARTESIANPOINT((-3.1,3.79640507735679E-16,0.799999999999998));
#1924=IFCCARTESIANPOINT((-2.86402655078499,-1.18631864033178,0.799999999999998));
#1925=IFCCARTESIANPOINT((-2.1920310216783,-2.1920310216783,0.799999999999998));
#1926=IFCCARTESIANPOINT((-1.18631864033178,-2.86402655078499,0.799999999999998));
#1927=IFCCARTESIANPOINT((-5.69460761603519E-16,-3.1,0.799999999999998));
#1928=IFCCARTESIANPOINT((1.18631864033178,-2.86402655078499,0.799999999999998));
#1929=IFCCARTESIANPOINT((2.1920310216783,-2.1920310216783,0.799999999999998));
#1930=IFCCARTESIANPOINT((2.86402655078499,-1.18631864033178,0.799999999999998));
#1931=IFCCARTESIANPOINT((1.69705627484771,-1.69705627484772,0.799999999999999));
#1932=IFCCARTESIANPOINT((2.21731087802709,-0.918440237676215,0.799999999999999));
#1933=IFCCARTESIANPOINT((-3.85949435922393E-16,2.4,0.799999999999999));
#1934=IFCCARTESIANPOINT((-0.918440237676216,2.21731087802709,0.799999999999999));
#1935=IFCCARTESIANPOINT((0.918440237676216,-2.21731087802709,0.799999999999999));
#1936=IFCCARTESIANPOINT((-1.69705627484772,1.69705627484771,0.799999999999999));
#1937=IFCCARTESIANPOINT((-2.21731087802709,0.918440237676215,0.799999999999999));
#1938=IFCCARTESIANPOINT((0.918440237676216,2.21731087802709,0.799999999999999));
#1939=IFCCARTESIANPOINT((2.4,0.,0.799999999999999));
#1940=IFCCARTESIANPOINT((2.21731087802709,0.918440237676216,0.799999999999999));
#1941=IFCCARTESIANPOINT((-4.40872847693047E-16,-2.4,0.799999999999999));
#1942=IFCCARTESIANPOINT((-1.69705627484772,-1.69705627484771,0.799999999999999));
#1943=IFCCARTESIANPOINT((-0.918440237676215,-2.21731087802709,0.799999999999999));
#1944=IFCCARTESIANPOINT((1.69705627484771,1.69705627484771,0.799999999999999));
#1945=IFCCARTESIANPOINT((-2.4,2.93915231795365E-16,0.799999999999999));
#1946=IFCCARTESIANPOINT((-2.21731087802709,-0.918440237676216,0.799999999999999));
#1947=IFCCARTESIANPOINT((2.21731087802709,0.918440237676216,7.2));
#1948=IFCCARTESIANPOINT((2.4,0.,7.2));
#1949=IFCCARTESIANPOINT((1.69705627484771,1.69705627484771,7.2));
#1950=IFCCARTESIANPOINT((0.918440237676216,2.21731087802709,7.2));
#1951=IFCCARTESIANPOINT((-3.85949435922393E-16,2.4,7.2));
#1952=IFCCARTESIANPOINT((-0.918440237676216,2.21731087802709,7.2));
#1953=IFCCARTESIANPOINT((-1.69705627484772,1.69705627484771,7.2));
#1954=IFCCARTESIANPOINT((-2.21731087802709,0.918440237676215,7.2));
#1955=IFCCARTESIANPOINT((-2.4,2.93915231795365E-16,7.2));
#1956=IFCCARTESIANPOINT((-2.21731087802709,-0.918440237676216,7.2));
#1957=IFCCARTESIANPOINT((-1.69705627484772,-1.69705627484771,7.2));
#1958=IFCCARTESIANPOINT((-0.918440237676215,-2.21731087802709,7.2));
#1959=IFCCARTESIANPOINT((-4.40872847693047E-16,-2.4,7.2));
#1960=IFCCARTESIANPOINT((0.918440237676216,-2.21731087802709,7.2));
#1961=IFCCARTESIANPOINT((1.69705627484771,-1.69705627484772,7.2));
#1962=IFCCARTESIANPOINT((2.21731087802709,-0.918440237676215,7.2));
#1963=IFCCARTESIANPOINT((-1.18631864033178,2.86402655078499,7.2));
#1964=IFCCARTESIANPOINT((-2.1920310216783,2.1920310216783,7.2));
#1965=IFCCARTESIANPOINT((-2.86402655078499,1.18631864033178,7.2));
#1966=IFCCARTESIANPOINT((-3.1,3.79640507735679E-16,7.2));
#1967=IFCCARTESIANPOINT((-1.18631864033178,-2.86402655078499,7.2));
#1968=IFCCARTESIANPOINT((-5.69460761603519E-16,-3.1,7.2));
#1969=IFCCARTESIANPOINT((2.1920310216783,2.1920310216783,7.2));
#1970=IFCCARTESIANPOINT((1.18631864033178,2.86402655078499,7.2));
#1971=IFCCARTESIANPOINT((-4.98518021399757E-16,3.1,7.2));
#1972=IFCCARTESIANPOINT((-2.86402655078499,-1.18631864033178,7.2));
#1973=IFCCARTESIANPOINT((1.18631864033178,-2.86402655078499,7.2));
#1974=IFCCARTESIANPOINT((-2.1920310216783,-2.1920310216783,7.2));
#1975=IFCCARTESIANPOINT((2.1920310216783,-2.1920310216783,7.2));
#1976=IFCCARTESIANPOINT((2.86402655078499,-1.18631864033178,7.2));
#1977=IFCCARTESIANPOINT((2.86402655078499,1.18631864033178,7.2));
#1978=IFCCARTESIANPOINT((3.1,0.,7.2));
#1979=IFCCARTESIANPOINT((2.86402655078499,1.18631864033178,8.));
#1980=IFCCARTESIANPOINT((3.1,0.,8.));
#1981=IFCCARTESIANPOINT((2.1920310216783,2.1920310216783,8.));
#1982=IFCCARTESIANPOINT((1.18631864033178,2.86402655078499,8.));
#1983=IFCCARTESIANPOINT((-4.98518021399757E-16,3.1,8.));
#1984=IFCCARTESIANPOINT((-1.18631864033178,2.86402655078499,8.));
#1985=IFCCARTESIANPOINT((-2.1920310216783,2.1920310216783,8.));
#1986=IFCCARTESIANPOINT((-2.86402655078499,1.18631864033178,8.));
#1987=IFCCARTESIANPOINT((-3.1,3.79640507735679E-16,8.));
#1988=IFCCARTESIANPOINT((-2.86402655078499,-1.18631864033178,8.));
#1989=IFCCARTESIANPOINT((-2.1920310216783,-2.1920310216783,8.));
#1990=IFCCARTESIANPOINT((-1.18631864033178,-2.86402655078499,8.));
#1991=IFCCARTESIANPOINT((-5.69460761603519E-16,-3.1,8.));
#1992=IFCCARTESIANPOINT((1.18631864033178,-2.86402655078499,8.));
#1993=IFCCARTESIANPOINT((2.1920310216783,-2.1920310216783,8.));
#1994=IFCCARTESIANPOINT((2.86402655078499,-1.18631864033178,8.));
#1995=IFCCARTESIANPOINT((25.3776603565143,3.32596631704063,8.));
#1996=IFCCARTESIANPOINT((25.3776603565143,3.32596631704063,0.));
#1997=IFCCARTESIANPOINT((24.,3.6,0.));
#1998=IFCCARTESIANPOINT((25.3776603565143,-3.32596631704063,0.));
#1999=IFCCARTESIANPOINT((25.3776603565143,-3.32596631704063,8.));
#2000=IFCCARTESIANPOINT((24.,-3.6,8.));
#2001=IFCCARTESIANPOINT((22.6223396434857,3.32596631704063,8.));
#2002=IFCCARTESIANPOINT((21.4544155877284,2.54558441227157,8.));
#2003=IFCCARTESIANPOINT((22.6223396434857,-3.32596631704063,8.));
#2004=IFCCARTESIANPOINT((21.4544155877284,-2.54558441227157,8.));
#2005=IFCCARTESIANPOINT((22.6223396434857,-3.32596631704063,0.));
#2006=IFCCARTESIANPOINT((21.4544155877284,-2.54558441227157,0.));
#2007=IFCCARTESIANPOINT((22.6223396434857,3.32596631704063,0.));
#2008=IFCCARTESIANPOINT((21.4544155877284,2.54558441227157,0.));
#2009=IFCCARTESIANPOINT((20.6740336829594,1.37766035651432,0.));
#2010=IFCCARTESIANPOINT((20.4,4.40872847693047E-16,0.));
#2011=IFCCARTESIANPOINT((20.6740336829594,-1.37766035651432,0.));
#2012=IFCCARTESIANPOINT((24.,-3.6,0.));
#2013=IFCCARTESIANPOINT((20.6740336829594,-1.37766035651432,8.));
#2014=IFCCARTESIANPOINT((20.4,4.40872847693047E-16,8.));
#2015=IFCCARTESIANPOINT((20.6740336829594,1.37766035651432,8.));
#2016=IFCCARTESIANPOINT((24.,3.6,8.));
#2017=IFCCARTESIANPOINT((27.3259663170406,-1.37766035651432,8.));
#2018=IFCCARTESIANPOINT((27.3259663170406,-1.37766035651432,0.));
#2019=IFCCARTESIANPOINT((27.6,0.,0.));
#2020=IFCCARTESIANPOINT((27.6,0.,8.));
#2021=IFCCARTESIANPOINT((26.5455844122716,-2.54558441227157,8.));
#2022=IFCCARTESIANPOINT((26.5455844122716,-2.54558441227157,0.));
#2023=IFCCARTESIANPOINT((26.5455844122716,2.54558441227157,8.));
#2024=IFCCARTESIANPOINT((26.5455844122716,2.54558441227157,0.));
#2025=IFCCARTESIANPOINT((27.3259663170406,1.37766035651432,8.));
#2026=IFCCARTESIANPOINT((27.3259663170406,1.37766035651432,0.));
#2027=IFCCARTESIANPOINT((25.1863186403318,2.86402655078499,0.));
#2028=IFCCARTESIANPOINT((24.,3.1,0.));
#2029=IFCCARTESIANPOINT((22.8136813596682,2.86402655078499,0.));
#2030=IFCCARTESIANPOINT((21.8079689783217,2.1920310216783,0.));
#2031=IFCCARTESIANPOINT((26.1920310216783,2.1920310216783,0.));
#2032=IFCCARTESIANPOINT((27.1,0.,0.));
#2033=IFCCARTESIANPOINT((26.864026550785,1.18631864033178,0.));
#2034=IFCCARTESIANPOINT((25.1863186403318,-2.86402655078499,0.));
#2035=IFCCARTESIANPOINT((26.1920310216783,-2.1920310216783,0.));
#2036=IFCCARTESIANPOINT((26.864026550785,-1.18631864033178,0.));
#2037=IFCCARTESIANPOINT((24.,-3.1,0.));
#2038=IFCCARTESIANPOINT((21.8079689783217,-2.1920310216783,0.));
#2039=IFCCARTESIANPOINT((22.8136813596682,-2.86402655078499,0.));
#2040=IFCCARTESIANPOINT((20.9,3.79640507735679E-16,0.));
#2041=IFCCARTESIANPOINT((21.135973449215,-1.18631864033178,0.));
#2042=IFCCARTESIANPOINT((21.135973449215,1.18631864033178,0.));
#2043=IFCCARTESIANPOINT((26.864026550785,1.18631864033178,0.799999999999998));
#2044=IFCCARTESIANPOINT((27.1,0.,0.799999999999998));
#2045=IFCCARTESIANPOINT((26.1920310216783,2.1920310216783,0.799999999999998));
#2046=IFCCARTESIANPOINT((25.1863186403318,2.86402655078499,0.799999999999998));
#2047=IFCCARTESIANPOINT((24.,3.1,0.799999999999998));
#2048=IFCCARTESIANPOINT((22.8136813596682,2.86402655078499,0.799999999999998));
#2049=IFCCARTESIANPOINT((21.8079689783217,2.1920310216783,0.799999999999998));
#2050=IFCCARTESIANPOINT((21.135973449215,1.18631864033178,0.799999999999998));
#2051=IFCCARTESIANPOINT((20.9,3.79640507735679E-16,0.799999999999998));
#2052=IFCCARTESIANPOINT((21.135973449215,-1.18631864033178,0.799999999999998));
#2053=IFCCARTESIANPOINT((21.8079689783217,-2.1920310216783,0.799999999999998));
#2054=IFCCARTESIANPOINT((22.8136813596682,-2.86402655078499,0.799999999999998));
#2055=IFCCARTESIANPOINT((24.,-3.1,0.799999999999998));
#2056=IFCCARTESIANPOINT((25.1863186403318,-2.86402655078499,0.799999999999998));
#2057=IFCCARTESIANPOINT((26.1920310216783,-2.1920310216783,0.799999999999998));
#2058=IFCCARTESIANPOINT((26.864026550785,-1.18631864033178,0.799999999999998));
#2059=IFCCARTESIANPOINT((24.,2.4,0.799999999999999));
#2060=IFCCARTESIANPOINT((23.0815597623238,2.21731087802709,0.799999999999999));
#2061=IFCCARTESIANPOINT((23.0815597623238,-2.21731087802709,0.799999999999999));
#2062=IFCCARTESIANPOINT((24.,-2.4,0.799999999999999));
#2063=IFCCARTESIANPOINT((24.9184402376762,2.21731087802709,0.799999999999999));
#2064=IFCCARTESIANPOINT((24.9184402376762,-2.21731087802709,0.799999999999999));
#2065=IFCCARTESIANPOINT((21.7826891219729,-0.918440237676216,0.799999999999999));
#2066=IFCCARTESIANPOINT((22.3029437251523,-1.69705627484772,0.799999999999999));
#2067=IFCCARTESIANPOINT((22.3029437251523,1.69705627484771,0.799999999999999));
#2068=IFCCARTESIANPOINT((21.7826891219729,0.918440237676216,0.799999999999999));
#2069=IFCCARTESIANPOINT((25.6970562748477,1.69705627484771,0.799999999999999));
#2070=IFCCARTESIANPOINT((25.6970562748477,-1.69705627484771,0.799999999999999));
#2071=IFCCARTESIANPOINT((26.2173108780271,-0.918440237676215,0.799999999999999));
#2072=IFCCARTESIANPOINT((26.4,0.,0.799999999999999));
#2073=IFCCARTESIANPOINT((26.2173108780271,0.918440237676216,0.799999999999999));
#2074=IFCCARTESIANPOINT((21.6,2.93915231795365E-16,0.799999999999999));
#2075=IFCCARTESIANPOINT((26.2173108780271,0.918440237676216,7.2));
#2076=IFCCARTESIANPOINT((26.4,0.,7.2));
#2077=IFCCARTESIANPOINT((25.6970562748477,1.69705627484771,7.2));
#2078=IFCCARTESIANPOINT((24.9184402376762,2.21731087802709,7.2));
#2079=IFCCARTESIANPOINT((24.,2.4,7.2));
#2080=IFCCARTESIANPOINT((23.0815597623238,2.21731087802709,7.2));
#2081=IFCCARTESIANPOINT((22.3029437251523,1.69705627484771,7.2));
#2082=IFCCARTESIANPOINT((21.7826891219729,0.918440237676216,7.2));
#2083=IFCCARTESIANPOINT((21.6,2.93915231795365E-16,7.2));
#2084=IFCCARTESIANPOINT((21.7826891219729,-0.918440237676216,7.2));
#2085=IFCCARTESIANPOINT((22.3029437251523,-1.69705627484772,7.2));
#2086=IFCCARTESIANPOINT((23.0815597623238,-2.21731087802709,7.2));
#2087=IFCCARTESIANPOINT((24.,-2.4,7.2));
#2088=IFCCARTESIANPOINT((24.9184402376762,-2.21731087802709,7.2));
#2089=IFCCARTESIANPOINT((25.6970562748477,-1.69705627484771,7.2));
#2090=IFCCARTESIANPOINT((26.2173108780271,-0.918440237676215,7.2));
#2091=IFCCARTESIANPOINT((25.1863186403318,2.86402655078499,7.2));
#2092=IFCCARTESIANPOINT((24.,3.1,7.2));
#2093=IFCCARTESIANPOINT((22.8136813596682,2.86402655078499,7.2));
#2094=IFCCARTESIANPOINT((24.,-3.1,7.2));
#2095=IFCCARTESIANPOINT((25.1863186403318,-2.86402655078499,7.2));
#2096=IFCCARTESIANPOINT((26.864026550785,1.18631864033178,7.2));
#2097=IFCCARTESIANPOINT((26.1920310216783,2.1920310216783,7.2));
#2098=IFCCARTESIANPOINT((21.8079689783217,2.1920310216783,7.2));
#2099=IFCCARTESIANPOINT((20.9,3.79640507735679E-16,7.2));
#2100=IFCCARTESIANPOINT((21.135973449215,-1.18631864033178,7.2));
#2101=IFCCARTESIANPOINT((21.8079689783217,-2.1920310216783,7.2));
#2102=IFCCARTESIANPOINT((22.8136813596682,-2.86402655078499,7.2));
#2103=IFCCARTESIANPOINT((26.1920310216783,-2.1920310216783,7.2));
#2104=IFCCARTESIANPOINT((21.135973449215,1.18631864033178,7.2));
#2105=IFCCARTESIANPOINT((26.864026550785,-1.18631864033178,7.2));
#2106=IFCCARTESIANPOINT((27.1,0.,7.2));
#2107=IFCCARTESIANPOINT((26.864026550785,1.18631864033178,8.));
#2108=IFCCARTESIANPOINT((27.1,0.,8.));
#2109=IFCCARTESIANPOINT((26.1920310216783,2.1920310216783,8.));
#2110=IFCCARTESIANPOINT((25.1863186403318,2.86402655078499,8.));
#2111=IFCCARTESIANPOINT((24.,3.1,8.));
#2112=IFCCARTESIANPOINT((22.8136813596682,2.86402655078499,8.));
#2113=IFCCARTESIANPOINT((21.8079689783217,2.1920310216783,8.));
#2114=IFCCARTESIANPOINT((21.135973449215,1.18631864033178,8.));
#2115=IFCCARTESIANPOINT((20.9,3.79640507735679E-16,8.));
#2116=IFCCARTESIANPOINT((21.135973449215,-1.18631864033178,8.));
#2117=IFCCARTESIANPOINT((21.8079689783217,-2.1920310216783,8.));
#2118=IFCCARTESIANPOINT((22.8136813596682,-2.86402655078499,8.));
#2119=IFCCARTESIANPOINT((24.,-3.1,8.));
#2120=IFCCARTESIANPOINT((25.1863186403318,-2.86402655078499,8.));
#2121=IFCCARTESIANPOINT((26.1920310216783,-2.1920310216783,8.));
#2122=IFCCARTESIANPOINT((26.864026550785,-1.18631864033178,8.));
#2123=IFCCARTESIANPOINT((0.,0.,0.));
#2124=IFCCARTESIANPOINT((0.,0.,0.));
#2125=IFCGEOMETRICREPRESENTATIONCONTEXT($,'Model',3,0.005,#1638,$);
#2126=IFCSIUNIT(*,.LENGTHUNIT.,.MILLI.,.METRE.);
#2127=IFCSIUNIT(*,.AREAUNIT.,$,.SQUARE_METRE.);
#2128=IFCSIUNIT(*,.VOLUMEUNIT.,$,.CUBIC_METRE.);
#2129=IFCSIUNIT(*,.PLANEANGLEUNIT.,$,.RADIAN.);
#2130=IFCOWNERHISTORY(#2132,#2131,$,.NOCHANGE.,0,$,$,0);
#2131=IFCAPPLICATION(#2133,' ',' ',' ');
#2132=IFCPERSONANDORGANIZATION(#2134,#2133,$);
#2133=IFCORGANIZATION($,' ',$,$,$);
#2134=IFCPERSON(' ',' ',' ',$,$,$,$,$);
ENDSEC;
END-ISO-10303-21;
