ISO-10303-21;
HEADER;
/* Generated by software containing ST-Developer
 * from STEP Tools, Inc. (www.steptools.com) 
 */
/* OPTION: strings as raw bytes, not using required /X/ escapes */

FILE_DESCRIPTION(
/* description */ ('Unknown'),
/* implementation_level */ '2;1');

FILE_NAME(
/* name */ 'ClGray_4640536_JC',
/* time_stamp */ '2025-07-21T23:58:09+02:00',
/* author */ ('Unknown'),
/* organization */ ('Unknown'),
/* preprocessor_version */ 'ST-DEVELOPER v19.4',
/* originating_system */ 'Unknown',
/* authorisation */ 'OpenTools');

FILE_SCHEMA (('IFC2X3'));
ENDSEC;

DATA;
#10=IFCPROPERTYSINGLEVALUE('ProjectName',$,IFCTEXT(''),$);
#11=IFCPROPERTYSINGLEVALUE('PartNumber',$,IFCTEXT(''),$);
#12=IFCRELDEFINESBYPROPERTIES('3cRq1JQpSwDOm5lsE5cG83',#1931,$,$,(#14),
#13);
#13=IFCPROPERTYSET('1jOd4kXgWorA4TVRi95rqH',#1931,
'empty property set name',$,(#10,#11));
#14=IFCBUILDINGELEMENTPROXY('2GP_XOK7Wq1Pa1NGQTVWHM',#1931,
'ClGray_4640536_JC',' ','ClGray_4640536_JC',#19,#15,' ',.ELEMENT.);
#15=IFCPRODUCTDEFINITIONSHAPE(' ',' ',(#25));
#16=IFCRELCONTAINEDINSPATIALSTRUCTURE('3HZhfx2I0vj9Cvp1GHER_f',#1931,
' ',' ',(#14),#20);
#17=IFCRELAGGREGATES('1jF0XzMGqvEA6wZwPLSawz',#1931,$,$,#1458,(#20));
#18=IFCLOCALPLACEMENT($,#1461);
#19=IFCLOCALPLACEMENT(#18,#1462);
#20=IFCBUILDING('3G2N19bOG__grq1LV0cQPU',#1931,'Default Building',$,$,#18,
$,$,.ELEMENT.,0.,0.,$);
#21=IFCCARTESIANTRANSFORMATIONOPERATOR3D($,$,#1924,1.,$);
#22=IFCMAPPEDITEM(#23,#21);
#23=IFCREPRESENTATIONMAP(#1461,#24);
#24=IFCSHAPEREPRESENTATION(#1460,'Body','Brep',(#1457));
#25=IFCSHAPEREPRESENTATION(#1460,'Body','MappedRepresentation',(#22));
#26=IFCPOLYLOOP((#1468,#1469,#1470,#1471));
#27=IFCPOLYLOOP((#1472,#1473,#1469,#1468));
#28=IFCPOLYLOOP((#1474,#1475,#1473,#1472));
#29=IFCPOLYLOOP((#1476,#1477,#1475,#1474));
#30=IFCPOLYLOOP((#1478,#1479,#1480,#1481));
#31=IFCPOLYLOOP((#1471,#1470,#1479,#1478));
#32=IFCPOLYLOOP((#1482,#1483,#1484,#1485));
#33=IFCPOLYLOOP((#1486,#1487,#1483,#1482));
#34=IFCPOLYLOOP((#1488,#1489,#1487,#1486));
#35=IFCPOLYLOOP((#1481,#1480,#1489,#1488));
#36=IFCPOLYLOOP((#1485,#1484,#1490,#1491));
#37=IFCPOLYLOOP((#1492,#1493,#1494,#1495));
#38=IFCPOLYLOOP((#1496,#1497,#1493,#1492));
#39=IFCPOLYLOOP((#1498,#1499,#1497,#1496));
#40=IFCPOLYLOOP((#1491,#1490,#1499,#1498));
#41=IFCPOLYLOOP((#1500,#1501,#1495,#1494));
#42=IFCPOLYLOOP((#1502,#1503,#1504,#1505));
#43=IFCPOLYLOOP((#1506,#1507,#1503,#1502));
#44=IFCPOLYLOOP((#1508,#1509,#1507,#1506));
#45=IFCPOLYLOOP((#1501,#1500,#1509,#1508));
#46=IFCPOLYLOOP((#1505,#1504,#1510,#1511));
#47=IFCPOLYLOOP((#1512,#1511,#1510,#1513));
#48=IFCPOLYLOOP((#1514,#1515,#1516,#1517));
#49=IFCPOLYLOOP((#1518,#1519,#1515,#1514));
#50=IFCPOLYLOOP((#1520,#1521,#1519,#1518));
#51=IFCPOLYLOOP((#1522,#1523,#1521,#1520));
#52=IFCPOLYLOOP((#1524,#1525,#1523,#1522));
#53=IFCPOLYLOOP((#1526,#1527,#1525,#1524));
#54=IFCPOLYLOOP((#1528,#1529,#1527,#1526));
#55=IFCPOLYLOOP((#1512,#1513,#1529,#1528));
#56=IFCPOLYLOOP((#1530,#1517,#1516,#1531));
#57=IFCPOLYLOOP((#1530,#1531,#1532,#1533));
#58=IFCPOLYLOOP((#1534,#1535,#1536,#1537));
#59=IFCPOLYLOOP((#1538,#1539,#1535,#1534));
#60=IFCPOLYLOOP((#1540,#1541,#1539,#1538));
#61=IFCPOLYLOOP((#1533,#1532,#1541,#1540));
#62=IFCPOLYLOOP((#1537,#1536,#1542,#1543));
#63=IFCPOLYLOOP((#1544,#1545,#1546,#1547));
#64=IFCPOLYLOOP((#1548,#1549,#1545,#1544));
#65=IFCPOLYLOOP((#1550,#1551,#1549,#1548));
#66=IFCPOLYLOOP((#1543,#1542,#1551,#1550));
#67=IFCPOLYLOOP((#1552,#1553,#1547,#1546));
#68=IFCPOLYLOOP((#1554,#1555,#1556,#1557));
#69=IFCPOLYLOOP((#1558,#1559,#1555,#1554));
#70=IFCPOLYLOOP((#1560,#1561,#1559,#1558));
#71=IFCPOLYLOOP((#1553,#1552,#1561,#1560));
#72=IFCPOLYLOOP((#1477,#1476,#1562,#1563));
#73=IFCPOLYLOOP((#1564,#1565,#1563,#1562));
#74=IFCPOLYLOOP((#1566,#1567,#1565,#1564));
#75=IFCPOLYLOOP((#1568,#1569,#1567,#1566));
#76=IFCPOLYLOOP((#1570,#1571,#1569,#1568));
#77=IFCPOLYLOOP((#1572,#1573,#1571,#1570));
#78=IFCPOLYLOOP((#1574,#1575,#1573,#1572));
#79=IFCPOLYLOOP((#1576,#1577,#1575,#1574));
#80=IFCPOLYLOOP((#1578,#1579,#1577,#1576));
#81=IFCPOLYLOOP((#1580,#1581,#1579,#1578));
#82=IFCPOLYLOOP((#1582,#1583,#1581,#1580));
#83=IFCPOLYLOOP((#1582,#1584,#1585,#1583));
#84=IFCPOLYLOOP((#1586,#1587,#1585,#1584));
#85=IFCPOLYLOOP((#1588,#1589,#1587,#1586));
#86=IFCPOLYLOOP((#1590,#1591,#1589,#1588));
#87=IFCPOLYLOOP((#1592,#1593,#1591,#1590));
#88=IFCPOLYLOOP((#1594,#1595,#1593,#1592));
#89=IFCPOLYLOOP((#1596,#1597,#1595,#1594));
#90=IFCPOLYLOOP((#1598,#1599,#1597,#1596));
#91=IFCPOLYLOOP((#1600,#1601,#1599,#1598));
#92=IFCPOLYLOOP((#1600,#1602,#1603,#1601));
#93=IFCPOLYLOOP((#1604,#1605,#1603,#1602));
#94=IFCPOLYLOOP((#1606,#1607,#1605,#1604));
#95=IFCPOLYLOOP((#1608,#1609,#1607,#1606));
#96=IFCPOLYLOOP((#1610,#1611,#1609,#1608));
#97=IFCPOLYLOOP((#1612,#1613,#1611,#1610));
#98=IFCPOLYLOOP((#1613,#1612,#1614,#1615));
#99=IFCPOLYLOOP((#1616,#1617,#1615,#1614));
#100=IFCPOLYLOOP((#1618,#1619,#1617,#1616));
#101=IFCPOLYLOOP((#1620,#1621,#1619,#1618));
#102=IFCPOLYLOOP((#1622,#1623,#1621,#1620));
#103=IFCPOLYLOOP((#1624,#1625,#1623,#1622));
#104=IFCPOLYLOOP((#1626,#1627,#1625,#1624));
#105=IFCPOLYLOOP((#1628,#1629,#1627,#1626));
#106=IFCPOLYLOOP((#1630,#1631,#1629,#1628));
#107=IFCPOLYLOOP((#1632,#1633,#1631,#1630));
#108=IFCPOLYLOOP((#1634,#1635,#1633,#1632));
#109=IFCPOLYLOOP((#1557,#1556,#1635,#1634));
#110=IFCPOLYLOOP((#1624,#1622,#1620,#1618,#1616,#1614,#1612));
#111=IFCPOLYLOOP((#1485,#1491,#1498,#1496,#1492,#1495,#1501));
#112=IFCPOLYLOOP((#1537,#1543,#1550,#1548,#1544,#1547,#1553));
#113=IFCPOLYLOOP((#1636,#1626,#1624));
#114=IFCPOLYLOOP((#1476,#1574,#1572));
#115=IFCPOLYLOOP((#1637,#1482,#1485));
#116=IFCPOLYLOOP((#1638,#1534,#1537));
#117=IFCPOLYLOOP((#1612,#1610,#1636,#1624));
#118=IFCPOLYLOOP((#1639,#1630,#1628));
#119=IFCPOLYLOOP((#1572,#1570,#1568,#1566,#1564,#1562,#1476));
#120=IFCPOLYLOOP((#1501,#1508,#1637,#1485));
#121=IFCPOLYLOOP((#1640,#1488,#1486));
#122=IFCPOLYLOOP((#1553,#1560,#1638,#1537));
#123=IFCPOLYLOOP((#1641,#1540,#1538));
#124=IFCPOLYLOOP((#1628,#1626,#1636,#1639));
#125=IFCPOLYLOOP((#1476,#1474,#1642,#1574));
#126=IFCPOLYLOOP((#1486,#1482,#1637,#1640));
#127=IFCPOLYLOOP((#1538,#1534,#1638,#1641));
#128=IFCPOLYLOOP((#1610,#1608,#1636));
#129=IFCPOLYLOOP((#1642,#1643,#1576,#1574));
#130=IFCPOLYLOOP((#1643,#1582,#1580));
#131=IFCPOLYLOOP((#1508,#1506,#1637));
#132=IFCPOLYLOOP((#1560,#1558,#1638));
#133=IFCPOLYLOOP((#1641,#1530,#1533));
#134=IFCPOLYLOOP((#1636,#1606,#1604));
#135=IFCPOLYLOOP((#1639,#1632,#1630));
#136=IFCPOLYLOOP((#1644,#1598,#1596));
#137=IFCPOLYLOOP((#1474,#1472,#1642));
#138=IFCPOLYLOOP((#1580,#1578,#1643));
#139=IFCPOLYLOOP((#1637,#1502,#1505));
#140=IFCPOLYLOOP((#1640,#1481,#1488));
#141=IFCPOLYLOOP((#1638,#1554,#1557));
#142=IFCPOLYLOOP((#1533,#1540,#1641));
#143=IFCPOLYLOOP((#1608,#1606,#1636));
#144=IFCPOLYLOOP((#1645,#1586,#1584));
#145=IFCPOLYLOOP((#1645,#1646,#1590,#1588));
#146=IFCPOLYLOOP((#1646,#1594,#1592));
#147=IFCPOLYLOOP((#1644,#1636,#1600,#1598));
#148=IFCPOLYLOOP((#1642,#1468,#1471));
#149=IFCPOLYLOOP((#1578,#1576,#1643));
#150=IFCPOLYLOOP((#1506,#1502,#1637));
#151=IFCPOLYLOOP((#1647,#1528,#1526));
#152=IFCPOLYLOOP((#1647,#1637,#1511,#1512));
#153=IFCPOLYLOOP((#1648,#1514,#1517));
#154=IFCPOLYLOOP((#1648,#1649,#1520,#1518));
#155=IFCPOLYLOOP((#1558,#1554,#1638));
#156=IFCPOLYLOOP((#1639,#1634,#1632));
#157=IFCPOLYLOOP((#1588,#1586,#1645));
#158=IFCPOLYLOOP((#1596,#1594,#1646,#1644));
#159=IFCPOLYLOOP((#1472,#1468,#1642));
#160=IFCPOLYLOOP((#1640,#1478,#1481));
#161=IFCPOLYLOOP((#1512,#1528,#1647));
#162=IFCPOLYLOOP((#1518,#1514,#1648));
#163=IFCPOLYLOOP((#1639,#1650,#1651,#1652,#1638));
#164=IFCPOLYLOOP((#1639,#1557,#1634));
#165=IFCPOLYLOOP((#1592,#1590,#1646));
#166=IFCPOLYLOOP((#1640,#1653,#1654,#1655,#1642));
#167=IFCPOLYLOOP((#1640,#1471,#1478));
#168=IFCPOLYLOOP((#1526,#1524,#1649,#1647));
#169=IFCPOLYLOOP((#1649,#1522,#1520));
#170=IFCPOLYLOOP((#1604,#1602,#1600,#1636));
#171=IFCPOLYLOOP((#1471,#1640,#1642));
#172=IFCPOLYLOOP((#1524,#1522,#1649));
#173=IFCPOLYLOOP((#1557,#1639,#1638));
#174=IFCPOLYLOOP((#1505,#1511,#1637));
#175=IFCPOLYLOOP((#1584,#1582,#1643,#1645));
#176=IFCPOLYLOOP((#1517,#1530,#1641,#1648));
#177=IFCPOLYLOOP((#1636,#1656,#1657,#1639));
#178=IFCPOLYLOOP((#1638,#1658,#1659,#1641));
#179=IFCPOLYLOOP((#1637,#1660,#1661,#1640));
#180=IFCPOLYLOOP((#1642,#1662,#1663,#1643));
#181=IFCPOLYLOOP((#1646,#1664,#1665,#1644));
#182=IFCPOLYLOOP((#1645,#1666,#1664,#1646));
#183=IFCPOLYLOOP((#1651,#1667,#1668,#1652));
#184=IFCPOLYLOOP((#1650,#1669,#1667,#1651));
#185=IFCPOLYLOOP((#1649,#1670,#1671,#1647));
#186=IFCPOLYLOOP((#1648,#1672,#1670,#1649));
#187=IFCPOLYLOOP((#1654,#1673,#1674,#1655));
#188=IFCPOLYLOOP((#1653,#1675,#1673,#1654));
#189=IFCPOLYLOOP((#1640,#1676,#1675));
#190=IFCPOLYLOOP((#1676,#1677,#1678,#1675));
#191=IFCPOLYLOOP((#1640,#1661,#1679,#1676));
#192=IFCPOLYLOOP((#1675,#1653,#1640));
#193=IFCPOLYLOOP((#1680,#1681,#1682,#1683));
#194=IFCPOLYLOOP((#1676,#1679,#1681,#1680));
#195=IFCPOLYLOOP((#1684,#1685,#1686,#1687));
#196=IFCPOLYLOOP((#1688,#1689,#1685,#1684));
#197=IFCPOLYLOOP((#1678,#1677,#1689,#1688));
#198=IFCPOLYLOOP((#1637,#1647,#1671));
#199=IFCPOLYLOOP((#1671,#1690,#1637));
#200=IFCPOLYLOOP((#1671,#1687,#1686,#1690));
#201=IFCPOLYLOOP((#1690,#1691,#1660,#1637));
#202=IFCPOLYLOOP((#1692,#1693,#1691,#1690));
#203=IFCPOLYLOOP((#1694,#1695,#1693,#1692));
#204=IFCPOLYLOOP((#1641,#1694,#1672));
#205=IFCPOLYLOOP((#1694,#1696,#1697,#1672));
#206=IFCPOLYLOOP((#1641,#1659,#1695,#1694));
#207=IFCPOLYLOOP((#1672,#1648,#1641));
#208=IFCPOLYLOOP((#1698,#1699,#1700,#1701));
#209=IFCPOLYLOOP((#1702,#1703,#1699,#1698));
#210=IFCPOLYLOOP((#1697,#1696,#1703,#1702));
#211=IFCPOLYLOOP((#1638,#1652,#1668));
#212=IFCPOLYLOOP((#1668,#1704,#1638));
#213=IFCPOLYLOOP((#1668,#1701,#1700,#1704));
#214=IFCPOLYLOOP((#1704,#1705,#1658,#1638));
#215=IFCPOLYLOOP((#1706,#1707,#1705,#1704));
#216=IFCPOLYLOOP((#1708,#1709,#1707,#1706));
#217=IFCPOLYLOOP((#1625,#1611,#1613));
#218=IFCPOLYLOOP((#1500,#1494,#1493,#1497,#1499,#1490,#1484));
#219=IFCPOLYLOOP((#1657,#1627,#1629));
#220=IFCPOLYLOOP((#1613,#1615,#1617,#1619,#1621,#1623,#1625));
#221=IFCPOLYLOOP((#1659,#1541,#1532));
#222=IFCPOLYLOOP((#1661,#1483,#1487));
#223=IFCPOLYLOOP((#1661,#1509,#1500));
#224=IFCPOLYLOOP((#1625,#1627,#1657,#1611));
#225=IFCPOLYLOOP((#1659,#1539,#1541));
#226=IFCPOLYLOOP((#1536,#1561,#1552));
#227=IFCPOLYLOOP((#1484,#1483,#1661,#1500));
#228=IFCPOLYLOOP((#1660,#1510,#1504));
#229=IFCPOLYLOOP((#1477,#1563,#1565,#1567,#1569,#1571,#1573));
#230=IFCPOLYLOOP((#1657,#1656,#1609,#1611));
#231=IFCPOLYLOOP((#1656,#1605,#1607));
#232=IFCPOLYLOOP((#1659,#1535,#1539));
#233=IFCPOLYLOOP((#1552,#1546,#1545,#1549,#1551,#1542,#1536));
#234=IFCPOLYLOOP((#1661,#1660,#1507,#1509));
#235=IFCPOLYLOOP((#1504,#1503,#1660));
#236=IFCPOLYLOOP((#1663,#1475,#1477));
#237=IFCPOLYLOOP((#1607,#1609,#1656));
#238=IFCPOLYLOOP((#1536,#1535,#1659,#1561));
#239=IFCPOLYLOOP((#1658,#1657,#1556));
#240=IFCPOLYLOOP((#1691,#1529,#1513));
#241=IFCPOLYLOOP((#1691,#1693,#1525,#1527));
#242=IFCPOLYLOOP((#1503,#1507,#1660));
#243=IFCPOLYLOOP((#1573,#1575,#1663,#1477));
#244=IFCPOLYLOOP((#1629,#1631,#1657));
#245=IFCPOLYLOOP((#1659,#1658,#1559,#1561));
#246=IFCPOLYLOOP((#1556,#1555,#1658));
#247=IFCPOLYLOOP((#1527,#1529,#1691));
#248=IFCPOLYLOOP((#1693,#1521,#1523));
#249=IFCPOLYLOOP((#1695,#1515,#1519));
#250=IFCPOLYLOOP((#1487,#1489,#1661));
#251=IFCPOLYLOOP((#1663,#1662,#1473,#1475));
#252=IFCPOLYLOOP((#1662,#1661,#1470));
#253=IFCPOLYLOOP((#1631,#1633,#1657));
#254=IFCPOLYLOOP((#1555,#1559,#1658));
#255=IFCPOLYLOOP((#1523,#1525,#1693));
#256=IFCPOLYLOOP((#1695,#1659,#1516,#1515));
#257=IFCPOLYLOOP((#1489,#1480,#1661));
#258=IFCPOLYLOOP((#1575,#1577,#1663));
#259=IFCPOLYLOOP((#1470,#1469,#1662));
#260=IFCPOLYLOOP((#1710,#1599,#1601));
#261=IFCPOLYLOOP((#1710,#1711,#1595,#1597));
#262=IFCPOLYLOOP((#1633,#1635,#1657));
#263=IFCPOLYLOOP((#1532,#1531,#1516,#1659));
#264=IFCPOLYLOOP((#1519,#1521,#1693,#1695));
#265=IFCPOLYLOOP((#1480,#1479,#1661));
#266=IFCPOLYLOOP((#1663,#1579,#1581));
#267=IFCPOLYLOOP((#1469,#1473,#1662));
#268=IFCPOLYLOOP((#1712,#1587,#1589));
#269=IFCPOLYLOOP((#1712,#1663,#1583,#1585));
#270=IFCPOLYLOOP((#1597,#1599,#1710));
#271=IFCPOLYLOOP((#1658,#1705,#1707,#1709,#1657));
#272=IFCPOLYLOOP((#1479,#1470,#1661));
#273=IFCPOLYLOOP((#1577,#1579,#1663));
#274=IFCPOLYLOOP((#1585,#1587,#1712));
#275=IFCPOLYLOOP((#1711,#1593,#1595));
#276=IFCPOLYLOOP((#1513,#1510,#1660,#1691));
#277=IFCPOLYLOOP((#1581,#1583,#1663));
#278=IFCPOLYLOOP((#1589,#1591,#1711,#1712));
#279=IFCPOLYLOOP((#1635,#1556,#1657));
#280=IFCPOLYLOOP((#1591,#1593,#1711));
#281=IFCPOLYLOOP((#1662,#1682,#1681,#1679,#1661));
#282=IFCPOLYLOOP((#1601,#1603,#1605,#1656,#1710));
#283=IFCPOLYLOOP((#1713,#1711,#1710,#1714));
#284=IFCPOLYLOOP((#1715,#1712,#1711,#1713));
#285=IFCPOLYLOOP((#1639,#1708,#1669));
#286=IFCPOLYLOOP((#1708,#1716,#1717,#1669));
#287=IFCPOLYLOOP((#1639,#1657,#1709,#1708));
#288=IFCPOLYLOOP((#1669,#1650,#1639));
#289=IFCPOLYLOOP((#1636,#1644,#1665));
#290=IFCPOLYLOOP((#1665,#1714,#1636));
#291=IFCPOLYLOOP((#1665,#1718,#1719,#1714));
#292=IFCPOLYLOOP((#1714,#1710,#1656,#1636));
#293=IFCPOLYLOOP((#1720,#1721,#1719,#1718));
#294=IFCPOLYLOOP((#1722,#1723,#1721,#1720));
#295=IFCPOLYLOOP((#1717,#1716,#1723,#1722));
#296=IFCPOLYLOOP((#1643,#1715,#1666));
#297=IFCPOLYLOOP((#1715,#1724,#1725,#1666));
#298=IFCPOLYLOOP((#1643,#1663,#1712,#1715));
#299=IFCPOLYLOOP((#1666,#1645,#1643));
#300=IFCPOLYLOOP((#1642,#1655,#1674));
#301=IFCPOLYLOOP((#1674,#1683,#1642));
#302=IFCPOLYLOOP((#1674,#1726,#1727,#1683));
#303=IFCPOLYLOOP((#1683,#1682,#1662,#1642));
#304=IFCPOLYLOOP((#1728,#1729,#1727,#1726));
#305=IFCPOLYLOOP((#1730,#1731,#1729,#1728));
#306=IFCPOLYLOOP((#1725,#1724,#1731,#1730));
#307=IFCPOLYLOOP((#1732,#1717,#1733));
#308=IFCPOLYLOOP((#1734,#1730,#1735,#1736,#1737));
#309=IFCPOLYLOOP((#1738,#1739,#1740,#1741,#1742,#1743));
#310=IFCPOLYLOOP((#1717,#1722,#1744,#1733));
#311=IFCPOLYLOOP((#1744,#1722,#1720,#1745,#1746));
#312=IFCPOLYLOOP((#1747,#1688,#1684,#1748,#1749));
#313=IFCPOLYLOOP((#1748,#1684,#1687,#1750,#1751));
#314=IFCPOLYLOOP((#1752,#1725,#1753));
#315=IFCPOLYLOOP((#1735,#1754,#1755,#1756,#1757,#1736));
#316=IFCPOLYLOOP((#1728,#1726,#1758,#1738));
#317=IFCPOLYLOOP((#1746,#1759,#1760,#1761,#1762,#1744));
#318=IFCPOLYLOOP((#1745,#1720,#1718,#1763,#1764));
#319=IFCPOLYLOOP((#1765,#1702,#1698,#1766,#1767));
#320=IFCPOLYLOOP((#1751,#1768,#1769,#1770,#1771,#1748));
#321=IFCPOLYLOOP((#1750,#1687,#1772,#1773));
#322=IFCPOLYLOOP((#1774,#1775,#1776,#1772));
#323=IFCPOLYLOOP((#1725,#1730,#1734,#1753));
#324=IFCPOLYLOOP((#1743,#1735,#1730,#1728,#1738));
#325=IFCPOLYLOOP((#1777,#1718,#1665,#1664));
#326=IFCPOLYLOOP((#1764,#1778,#1779,#1780,#1781,#1745));
#327=IFCPOLYLOOP((#1763,#1718,#1777,#1782));
#328=IFCPOLYLOOP((#1767,#1783,#1784,#1785,#1786,#1765));
#329=IFCPOLYLOOP((#1766,#1698,#1701,#1787,#1788));
#330=IFCPOLYLOOP((#1749,#1789,#1790,#1791,#1792,#1747));
#331=IFCPOLYLOOP((#1772,#1687,#1774));
#332=IFCPOLYLOOP((#1793,#1726,#1674,#1673));
#333=IFCPOLYLOOP((#1737,#1794,#1795,#1796,#1797,#1734));
#334=IFCPOLYLOOP((#1798,#1799,#1800,#1758));
#335=IFCPOLYLOOP((#1725,#1752,#1801,#1777));
#336=IFCPOLYLOOP((#1782,#1802,#1803,#1804,#1805,#1763));
#337=IFCPOLYLOOP((#1788,#1806,#1807,#1808,#1809,#1766));
#338=IFCPOLYLOOP((#1787,#1701,#1810,#1811));
#339=IFCPOLYLOOP((#1812,#1687,#1671,#1670));
#340=IFCPOLYLOOP((#1773,#1813,#1814,#1815,#1816,#1750));
#341=IFCPOLYLOOP((#1673,#1675,#1678,#1793));
#342=IFCPOLYLOOP((#1758,#1726,#1798));
#343=IFCPOLYLOOP((#1733,#1817,#1818,#1732));
#344=IFCPOLYLOOP((#1810,#1701,#1668,#1667));
#345=IFCPOLYLOOP((#1811,#1819,#1820,#1821,#1822,#1787));
#346=IFCPOLYLOOP((#1670,#1672,#1697,#1812));
#347=IFCPOLYLOOP((#1793,#1823,#1798,#1726));
#348=IFCPOLYLOOP((#1664,#1666,#1725,#1777));
#349=IFCPOLYLOOP((#1717,#1732,#1824,#1810));
#350=IFCPOLYLOOP((#1812,#1825,#1774,#1687));
#351=IFCPOLYLOOP((#1753,#1826,#1827,#1752));
#352=IFCPOLYLOOP((#1765,#1812,#1697,#1702));
#353=IFCPOLYLOOP((#1667,#1669,#1717,#1810));
#354=IFCPOLYLOOP((#1747,#1793,#1678,#1688));
#355=IFCPOLYLOOP((#1828,#1700,#1829));
#356=IFCPOLYLOOP((#1830,#1831,#1832,#1833,#1834,#1835));
#357=IFCPOLYLOOP((#1836,#1837,#1838,#1839,#1840,#1841));
#358=IFCPOLYLOOP((#1842,#1727,#1843));
#359=IFCPOLYLOOP((#1844,#1686,#1845));
#360=IFCPOLYLOOP((#1700,#1846,#1847,#1829));
#361=IFCPOLYLOOP((#1841,#1830,#1721,#1723,#1836));
#362=IFCPOLYLOOP((#1727,#1848,#1849,#1843));
#363=IFCPOLYLOOP((#1850,#1851,#1852,#1853,#1854,#1855));
#364=IFCPOLYLOOP((#1856,#1857,#1858,#1859));
#365=IFCPOLYLOOP((#1686,#1685,#1860,#1845));
#366=IFCPOLYLOOP((#1860,#1685,#1689,#1861,#1862));
#367=IFCPOLYLOOP((#1861,#1689,#1677,#1863,#1864));
#368=IFCPOLYLOOP((#1863,#1677,#1865,#1866));
#369=IFCPOLYLOOP((#1846,#1867,#1868,#1869,#1870,#1847));
#370=IFCPOLYLOOP((#1871,#1846,#1700,#1699));
#371=IFCPOLYLOOP((#1871,#1703,#1696,#1872,#1873));
#372=IFCPOLYLOOP((#1872,#1696,#1874,#1875));
#373=IFCPOLYLOOP((#1876,#1877,#1878,#1879,#1880,#1881));
#374=IFCPOLYLOOP((#1723,#1716,#1882,#1836));
#375=IFCPOLYLOOP((#1883,#1724,#1715,#1713));
#376=IFCPOLYLOOP((#1848,#1884,#1885,#1886,#1887,#1849));
#377=IFCPOLYLOOP((#1888,#1848,#1727,#1729));
#378=IFCPOLYLOOP((#1855,#1889,#1888,#1731,#1850));
#379=IFCPOLYLOOP((#1859,#1724,#1856));
#380=IFCPOLYLOOP((#1865,#1677,#1676,#1680));
#381=IFCPOLYLOOP((#1862,#1890,#1891,#1892,#1893,#1860));
#382=IFCPOLYLOOP((#1866,#1894,#1895,#1896,#1897,#1863));
#383=IFCPOLYLOOP((#1874,#1696,#1694,#1692));
#384=IFCPOLYLOOP((#1699,#1703,#1871));
#385=IFCPOLYLOOP((#1875,#1898,#1899,#1900,#1901,#1872));
#386=IFCPOLYLOOP((#1882,#1716,#1708,#1706));
#387=IFCPOLYLOOP((#1835,#1876,#1719,#1721,#1830));
#388=IFCPOLYLOOP((#1713,#1714,#1719,#1883));
#389=IFCPOLYLOOP((#1729,#1731,#1888));
#390=IFCPOLYLOOP((#1859,#1850,#1731,#1724));
#391=IFCPOLYLOOP((#1727,#1842,#1902,#1865));
#392=IFCPOLYLOOP((#1864,#1903,#1904,#1905,#1906,#1861));
#393=IFCPOLYLOOP((#1686,#1844,#1907,#1874));
#394=IFCPOLYLOOP((#1873,#1908,#1909,#1910,#1911,#1871));
#395=IFCPOLYLOOP((#1700,#1828,#1912,#1882));
#396=IFCPOLYLOOP((#1883,#1913,#1856,#1724));
#397=IFCPOLYLOOP((#1889,#1914,#1915,#1916,#1917,#1888));
#398=IFCPOLYLOOP((#1845,#1918,#1919,#1844));
#399=IFCPOLYLOOP((#1829,#1920,#1921,#1828));
#400=IFCPOLYLOOP((#1881,#1883,#1719,#1876));
#401=IFCPOLYLOOP((#1680,#1683,#1727,#1865));
#402=IFCPOLYLOOP((#1706,#1704,#1700,#1882));
#403=IFCPOLYLOOP((#1692,#1690,#1686,#1874));
#404=IFCPOLYLOOP((#1843,#1922,#1923,#1842));
#405=IFCPOLYLOOP((#1897,#1789,#1749,#1863));
#406=IFCPOLYLOOP((#1896,#1790,#1789,#1897));
#407=IFCPOLYLOOP((#1895,#1791,#1790,#1896));
#408=IFCPOLYLOOP((#1894,#1792,#1791,#1895));
#409=IFCPOLYLOOP((#1866,#1747,#1792,#1894));
#410=IFCPOLYLOOP((#1906,#1768,#1751,#1861));
#411=IFCPOLYLOOP((#1905,#1769,#1768,#1906));
#412=IFCPOLYLOOP((#1904,#1770,#1769,#1905));
#413=IFCPOLYLOOP((#1903,#1771,#1770,#1904));
#414=IFCPOLYLOOP((#1864,#1748,#1771,#1903));
#415=IFCPOLYLOOP((#1893,#1813,#1773,#1860));
#416=IFCPOLYLOOP((#1892,#1814,#1813,#1893));
#417=IFCPOLYLOOP((#1891,#1815,#1814,#1892));
#418=IFCPOLYLOOP((#1890,#1816,#1815,#1891));
#419=IFCPOLYLOOP((#1862,#1750,#1816,#1890));
#420=IFCPOLYLOOP((#1907,#1825,#1812,#1874));
#421=IFCPOLYLOOP((#1844,#1774,#1825,#1907));
#422=IFCPOLYLOOP((#1919,#1775,#1774,#1844));
#423=IFCPOLYLOOP((#1918,#1776,#1775,#1919));
#424=IFCPOLYLOOP((#1845,#1772,#1776,#1918));
#425=IFCPOLYLOOP((#1901,#1783,#1767,#1872));
#426=IFCPOLYLOOP((#1900,#1784,#1783,#1901));
#427=IFCPOLYLOOP((#1899,#1785,#1784,#1900));
#428=IFCPOLYLOOP((#1898,#1786,#1785,#1899));
#429=IFCPOLYLOOP((#1875,#1765,#1786,#1898));
#430=IFCPOLYLOOP((#1911,#1806,#1788,#1871));
#431=IFCPOLYLOOP((#1910,#1807,#1806,#1911));
#432=IFCPOLYLOOP((#1909,#1808,#1807,#1910));
#433=IFCPOLYLOOP((#1908,#1809,#1808,#1909));
#434=IFCPOLYLOOP((#1873,#1766,#1809,#1908));
#435=IFCPOLYLOOP((#1870,#1819,#1811,#1847));
#436=IFCPOLYLOOP((#1869,#1820,#1819,#1870));
#437=IFCPOLYLOOP((#1868,#1821,#1820,#1869));
#438=IFCPOLYLOOP((#1867,#1822,#1821,#1868));
#439=IFCPOLYLOOP((#1846,#1787,#1822,#1867));
#440=IFCPOLYLOOP((#1912,#1817,#1733,#1882));
#441=IFCPOLYLOOP((#1828,#1818,#1817,#1912));
#442=IFCPOLYLOOP((#1921,#1732,#1818,#1828));
#443=IFCPOLYLOOP((#1920,#1824,#1732,#1921));
#444=IFCPOLYLOOP((#1829,#1810,#1824,#1920));
#445=IFCPOLYLOOP((#1840,#1759,#1746,#1841));
#446=IFCPOLYLOOP((#1839,#1760,#1759,#1840));
#447=IFCPOLYLOOP((#1838,#1761,#1760,#1839));
#448=IFCPOLYLOOP((#1837,#1762,#1761,#1838));
#449=IFCPOLYLOOP((#1836,#1744,#1762,#1837));
#450=IFCPOLYLOOP((#1834,#1778,#1764,#1835));
#451=IFCPOLYLOOP((#1833,#1779,#1778,#1834));
#452=IFCPOLYLOOP((#1832,#1780,#1779,#1833));
#453=IFCPOLYLOOP((#1831,#1781,#1780,#1832));
#454=IFCPOLYLOOP((#1830,#1745,#1781,#1831));
#455=IFCPOLYLOOP((#1880,#1802,#1782,#1881));
#456=IFCPOLYLOOP((#1879,#1803,#1802,#1880));
#457=IFCPOLYLOOP((#1878,#1804,#1803,#1879));
#458=IFCPOLYLOOP((#1877,#1805,#1804,#1878));
#459=IFCPOLYLOOP((#1876,#1763,#1805,#1877));
#460=IFCPOLYLOOP((#1858,#1826,#1753,#1859));
#461=IFCPOLYLOOP((#1857,#1827,#1826,#1858));
#462=IFCPOLYLOOP((#1856,#1752,#1827,#1857));
#463=IFCPOLYLOOP((#1913,#1801,#1752,#1856));
#464=IFCPOLYLOOP((#1883,#1777,#1801,#1913));
#465=IFCPOLYLOOP((#1854,#1794,#1737,#1855));
#466=IFCPOLYLOOP((#1853,#1795,#1794,#1854));
#467=IFCPOLYLOOP((#1852,#1796,#1795,#1853));
#468=IFCPOLYLOOP((#1851,#1797,#1796,#1852));
#469=IFCPOLYLOOP((#1850,#1734,#1797,#1851));
#470=IFCPOLYLOOP((#1917,#1754,#1735,#1888));
#471=IFCPOLYLOOP((#1916,#1755,#1754,#1917));
#472=IFCPOLYLOOP((#1915,#1756,#1755,#1916));
#473=IFCPOLYLOOP((#1914,#1757,#1756,#1915));
#474=IFCPOLYLOOP((#1889,#1736,#1757,#1914));
#475=IFCPOLYLOOP((#1887,#1739,#1738,#1849));
#476=IFCPOLYLOOP((#1886,#1740,#1739,#1887));
#477=IFCPOLYLOOP((#1885,#1741,#1740,#1886));
#478=IFCPOLYLOOP((#1884,#1742,#1741,#1885));
#479=IFCPOLYLOOP((#1848,#1743,#1742,#1884));
#480=IFCPOLYLOOP((#1902,#1823,#1793,#1865));
#481=IFCPOLYLOOP((#1842,#1798,#1823,#1902));
#482=IFCPOLYLOOP((#1923,#1799,#1798,#1842));
#483=IFCPOLYLOOP((#1922,#1800,#1799,#1923));
#484=IFCPOLYLOOP((#1843,#1758,#1800,#1922));
#485=IFCPOLYLOOP((#1758,#1843,#1849,#1738));
#486=IFCPOLYLOOP((#1743,#1848,#1888,#1735));
#487=IFCPOLYLOOP((#1736,#1889,#1855,#1737));
#488=IFCPOLYLOOP((#1734,#1850,#1859,#1753));
#489=IFCPOLYLOOP((#1777,#1883,#1881,#1782));
#490=IFCPOLYLOOP((#1763,#1876,#1835,#1764));
#491=IFCPOLYLOOP((#1745,#1830,#1841,#1746));
#492=IFCPOLYLOOP((#1744,#1836,#1882,#1733));
#493=IFCPOLYLOOP((#1810,#1829,#1847,#1811));
#494=IFCPOLYLOOP((#1787,#1846,#1871,#1788));
#495=IFCPOLYLOOP((#1766,#1873,#1872,#1767));
#496=IFCPOLYLOOP((#1765,#1875,#1874,#1812));
#497=IFCPOLYLOOP((#1772,#1845,#1860,#1773));
#498=IFCPOLYLOOP((#1750,#1862,#1861,#1751));
#499=IFCPOLYLOOP((#1748,#1864,#1863,#1749));
#500=IFCPOLYLOOP((#1747,#1866,#1865,#1793));
#501=IFCFACEOUTERBOUND(#26,.T.);
#502=IFCFACEOUTERBOUND(#27,.T.);
#503=IFCFACEOUTERBOUND(#28,.T.);
#504=IFCFACEOUTERBOUND(#29,.T.);
#505=IFCFACEOUTERBOUND(#30,.T.);
#506=IFCFACEOUTERBOUND(#31,.T.);
#507=IFCFACEOUTERBOUND(#32,.T.);
#508=IFCFACEOUTERBOUND(#33,.T.);
#509=IFCFACEOUTERBOUND(#34,.T.);
#510=IFCFACEOUTERBOUND(#35,.T.);
#511=IFCFACEOUTERBOUND(#36,.T.);
#512=IFCFACEOUTERBOUND(#37,.T.);
#513=IFCFACEOUTERBOUND(#38,.T.);
#514=IFCFACEOUTERBOUND(#39,.T.);
#515=IFCFACEOUTERBOUND(#40,.T.);
#516=IFCFACEOUTERBOUND(#41,.T.);
#517=IFCFACEOUTERBOUND(#42,.T.);
#518=IFCFACEOUTERBOUND(#43,.T.);
#519=IFCFACEOUTERBOUND(#44,.T.);
#520=IFCFACEOUTERBOUND(#45,.T.);
#521=IFCFACEOUTERBOUND(#46,.T.);
#522=IFCFACEOUTERBOUND(#47,.T.);
#523=IFCFACEOUTERBOUND(#48,.T.);
#524=IFCFACEOUTERBOUND(#49,.T.);
#525=IFCFACEOUTERBOUND(#50,.T.);
#526=IFCFACEOUTERBOUND(#51,.T.);
#527=IFCFACEOUTERBOUND(#52,.T.);
#528=IFCFACEOUTERBOUND(#53,.T.);
#529=IFCFACEOUTERBOUND(#54,.T.);
#530=IFCFACEOUTERBOUND(#55,.T.);
#531=IFCFACEOUTERBOUND(#56,.T.);
#532=IFCFACEOUTERBOUND(#57,.T.);
#533=IFCFACEOUTERBOUND(#58,.T.);
#534=IFCFACEOUTERBOUND(#59,.T.);
#535=IFCFACEOUTERBOUND(#60,.T.);
#536=IFCFACEOUTERBOUND(#61,.T.);
#537=IFCFACEOUTERBOUND(#62,.T.);
#538=IFCFACEOUTERBOUND(#63,.T.);
#539=IFCFACEOUTERBOUND(#64,.T.);
#540=IFCFACEOUTERBOUND(#65,.T.);
#541=IFCFACEOUTERBOUND(#66,.T.);
#542=IFCFACEOUTERBOUND(#67,.T.);
#543=IFCFACEOUTERBOUND(#68,.T.);
#544=IFCFACEOUTERBOUND(#69,.T.);
#545=IFCFACEOUTERBOUND(#70,.T.);
#546=IFCFACEOUTERBOUND(#71,.T.);
#547=IFCFACEOUTERBOUND(#72,.T.);
#548=IFCFACEOUTERBOUND(#73,.T.);
#549=IFCFACEOUTERBOUND(#74,.T.);
#550=IFCFACEOUTERBOUND(#75,.T.);
#551=IFCFACEOUTERBOUND(#76,.T.);
#552=IFCFACEOUTERBOUND(#77,.T.);
#553=IFCFACEOUTERBOUND(#78,.T.);
#554=IFCFACEOUTERBOUND(#79,.T.);
#555=IFCFACEOUTERBOUND(#80,.T.);
#556=IFCFACEOUTERBOUND(#81,.T.);
#557=IFCFACEOUTERBOUND(#82,.T.);
#558=IFCFACEOUTERBOUND(#83,.T.);
#559=IFCFACEOUTERBOUND(#84,.T.);
#560=IFCFACEOUTERBOUND(#85,.T.);
#561=IFCFACEOUTERBOUND(#86,.T.);
#562=IFCFACEOUTERBOUND(#87,.T.);
#563=IFCFACEOUTERBOUND(#88,.T.);
#564=IFCFACEOUTERBOUND(#89,.T.);
#565=IFCFACEOUTERBOUND(#90,.T.);
#566=IFCFACEOUTERBOUND(#91,.T.);
#567=IFCFACEOUTERBOUND(#92,.T.);
#568=IFCFACEOUTERBOUND(#93,.T.);
#569=IFCFACEOUTERBOUND(#94,.T.);
#570=IFCFACEOUTERBOUND(#95,.T.);
#571=IFCFACEOUTERBOUND(#96,.T.);
#572=IFCFACEOUTERBOUND(#97,.T.);
#573=IFCFACEOUTERBOUND(#98,.T.);
#574=IFCFACEOUTERBOUND(#99,.T.);
#575=IFCFACEOUTERBOUND(#100,.T.);
#576=IFCFACEOUTERBOUND(#101,.T.);
#577=IFCFACEOUTERBOUND(#102,.T.);
#578=IFCFACEOUTERBOUND(#103,.T.);
#579=IFCFACEOUTERBOUND(#104,.T.);
#580=IFCFACEOUTERBOUND(#105,.T.);
#581=IFCFACEOUTERBOUND(#106,.T.);
#582=IFCFACEOUTERBOUND(#107,.T.);
#583=IFCFACEOUTERBOUND(#108,.T.);
#584=IFCFACEOUTERBOUND(#109,.T.);
#585=IFCFACEOUTERBOUND(#110,.T.);
#586=IFCFACEOUTERBOUND(#111,.T.);
#587=IFCFACEOUTERBOUND(#112,.T.);
#588=IFCFACEOUTERBOUND(#113,.T.);
#589=IFCFACEOUTERBOUND(#114,.T.);
#590=IFCFACEOUTERBOUND(#115,.T.);
#591=IFCFACEOUTERBOUND(#116,.T.);
#592=IFCFACEOUTERBOUND(#117,.T.);
#593=IFCFACEOUTERBOUND(#118,.T.);
#594=IFCFACEOUTERBOUND(#119,.T.);
#595=IFCFACEOUTERBOUND(#120,.T.);
#596=IFCFACEOUTERBOUND(#121,.T.);
#597=IFCFACEOUTERBOUND(#122,.T.);
#598=IFCFACEOUTERBOUND(#123,.T.);
#599=IFCFACEOUTERBOUND(#124,.T.);
#600=IFCFACEOUTERBOUND(#125,.T.);
#601=IFCFACEOUTERBOUND(#126,.T.);
#602=IFCFACEOUTERBOUND(#127,.T.);
#603=IFCFACEOUTERBOUND(#128,.T.);
#604=IFCFACEOUTERBOUND(#129,.T.);
#605=IFCFACEOUTERBOUND(#130,.T.);
#606=IFCFACEOUTERBOUND(#131,.T.);
#607=IFCFACEOUTERBOUND(#132,.T.);
#608=IFCFACEOUTERBOUND(#133,.T.);
#609=IFCFACEOUTERBOUND(#134,.T.);
#610=IFCFACEOUTERBOUND(#135,.T.);
#611=IFCFACEOUTERBOUND(#136,.T.);
#612=IFCFACEOUTERBOUND(#137,.T.);
#613=IFCFACEOUTERBOUND(#138,.T.);
#614=IFCFACEOUTERBOUND(#139,.T.);
#615=IFCFACEOUTERBOUND(#140,.T.);
#616=IFCFACEOUTERBOUND(#141,.T.);
#617=IFCFACEOUTERBOUND(#142,.T.);
#618=IFCFACEOUTERBOUND(#143,.T.);
#619=IFCFACEOUTERBOUND(#144,.T.);
#620=IFCFACEOUTERBOUND(#145,.T.);
#621=IFCFACEOUTERBOUND(#146,.T.);
#622=IFCFACEOUTERBOUND(#147,.T.);
#623=IFCFACEOUTERBOUND(#148,.T.);
#624=IFCFACEOUTERBOUND(#149,.T.);
#625=IFCFACEOUTERBOUND(#150,.T.);
#626=IFCFACEOUTERBOUND(#151,.T.);
#627=IFCFACEOUTERBOUND(#152,.T.);
#628=IFCFACEOUTERBOUND(#153,.T.);
#629=IFCFACEOUTERBOUND(#154,.T.);
#630=IFCFACEOUTERBOUND(#155,.T.);
#631=IFCFACEOUTERBOUND(#156,.T.);
#632=IFCFACEOUTERBOUND(#157,.T.);
#633=IFCFACEOUTERBOUND(#158,.T.);
#634=IFCFACEOUTERBOUND(#159,.T.);
#635=IFCFACEOUTERBOUND(#160,.T.);
#636=IFCFACEOUTERBOUND(#161,.T.);
#637=IFCFACEOUTERBOUND(#162,.T.);
#638=IFCFACEOUTERBOUND(#163,.T.);
#639=IFCFACEOUTERBOUND(#164,.T.);
#640=IFCFACEOUTERBOUND(#165,.T.);
#641=IFCFACEOUTERBOUND(#166,.T.);
#642=IFCFACEOUTERBOUND(#167,.T.);
#643=IFCFACEOUTERBOUND(#168,.T.);
#644=IFCFACEOUTERBOUND(#169,.T.);
#645=IFCFACEOUTERBOUND(#170,.T.);
#646=IFCFACEOUTERBOUND(#171,.T.);
#647=IFCFACEOUTERBOUND(#172,.T.);
#648=IFCFACEOUTERBOUND(#173,.T.);
#649=IFCFACEOUTERBOUND(#174,.T.);
#650=IFCFACEOUTERBOUND(#175,.T.);
#651=IFCFACEOUTERBOUND(#176,.T.);
#652=IFCFACEOUTERBOUND(#177,.T.);
#653=IFCFACEOUTERBOUND(#178,.T.);
#654=IFCFACEOUTERBOUND(#179,.T.);
#655=IFCFACEOUTERBOUND(#180,.T.);
#656=IFCFACEOUTERBOUND(#181,.T.);
#657=IFCFACEOUTERBOUND(#182,.T.);
#658=IFCFACEOUTERBOUND(#183,.T.);
#659=IFCFACEOUTERBOUND(#184,.T.);
#660=IFCFACEOUTERBOUND(#185,.T.);
#661=IFCFACEOUTERBOUND(#186,.T.);
#662=IFCFACEOUTERBOUND(#187,.T.);
#663=IFCFACEOUTERBOUND(#188,.T.);
#664=IFCFACEOUTERBOUND(#189,.T.);
#665=IFCFACEOUTERBOUND(#190,.T.);
#666=IFCFACEOUTERBOUND(#191,.T.);
#667=IFCFACEOUTERBOUND(#192,.T.);
#668=IFCFACEOUTERBOUND(#193,.T.);
#669=IFCFACEOUTERBOUND(#194,.T.);
#670=IFCFACEOUTERBOUND(#195,.T.);
#671=IFCFACEOUTERBOUND(#196,.T.);
#672=IFCFACEOUTERBOUND(#197,.T.);
#673=IFCFACEOUTERBOUND(#198,.T.);
#674=IFCFACEOUTERBOUND(#199,.T.);
#675=IFCFACEOUTERBOUND(#200,.T.);
#676=IFCFACEOUTERBOUND(#201,.T.);
#677=IFCFACEOUTERBOUND(#202,.T.);
#678=IFCFACEOUTERBOUND(#203,.T.);
#679=IFCFACEOUTERBOUND(#204,.T.);
#680=IFCFACEOUTERBOUND(#205,.T.);
#681=IFCFACEOUTERBOUND(#206,.T.);
#682=IFCFACEOUTERBOUND(#207,.T.);
#683=IFCFACEOUTERBOUND(#208,.T.);
#684=IFCFACEOUTERBOUND(#209,.T.);
#685=IFCFACEOUTERBOUND(#210,.T.);
#686=IFCFACEOUTERBOUND(#211,.T.);
#687=IFCFACEOUTERBOUND(#212,.T.);
#688=IFCFACEOUTERBOUND(#213,.T.);
#689=IFCFACEOUTERBOUND(#214,.T.);
#690=IFCFACEOUTERBOUND(#215,.T.);
#691=IFCFACEOUTERBOUND(#216,.T.);
#692=IFCFACEOUTERBOUND(#217,.T.);
#693=IFCFACEOUTERBOUND(#218,.T.);
#694=IFCFACEOUTERBOUND(#219,.T.);
#695=IFCFACEOUTERBOUND(#220,.T.);
#696=IFCFACEOUTERBOUND(#221,.T.);
#697=IFCFACEOUTERBOUND(#222,.T.);
#698=IFCFACEOUTERBOUND(#223,.T.);
#699=IFCFACEOUTERBOUND(#224,.T.);
#700=IFCFACEOUTERBOUND(#225,.T.);
#701=IFCFACEOUTERBOUND(#226,.T.);
#702=IFCFACEOUTERBOUND(#227,.T.);
#703=IFCFACEOUTERBOUND(#228,.T.);
#704=IFCFACEOUTERBOUND(#229,.T.);
#705=IFCFACEOUTERBOUND(#230,.T.);
#706=IFCFACEOUTERBOUND(#231,.T.);
#707=IFCFACEOUTERBOUND(#232,.T.);
#708=IFCFACEOUTERBOUND(#233,.T.);
#709=IFCFACEOUTERBOUND(#234,.T.);
#710=IFCFACEOUTERBOUND(#235,.T.);
#711=IFCFACEOUTERBOUND(#236,.T.);
#712=IFCFACEOUTERBOUND(#237,.T.);
#713=IFCFACEOUTERBOUND(#238,.T.);
#714=IFCFACEOUTERBOUND(#239,.T.);
#715=IFCFACEOUTERBOUND(#240,.T.);
#716=IFCFACEOUTERBOUND(#241,.T.);
#717=IFCFACEOUTERBOUND(#242,.T.);
#718=IFCFACEOUTERBOUND(#243,.T.);
#719=IFCFACEOUTERBOUND(#244,.T.);
#720=IFCFACEOUTERBOUND(#245,.T.);
#721=IFCFACEOUTERBOUND(#246,.T.);
#722=IFCFACEOUTERBOUND(#247,.T.);
#723=IFCFACEOUTERBOUND(#248,.T.);
#724=IFCFACEOUTERBOUND(#249,.T.);
#725=IFCFACEOUTERBOUND(#250,.T.);
#726=IFCFACEOUTERBOUND(#251,.T.);
#727=IFCFACEOUTERBOUND(#252,.T.);
#728=IFCFACEOUTERBOUND(#253,.T.);
#729=IFCFACEOUTERBOUND(#254,.T.);
#730=IFCFACEOUTERBOUND(#255,.T.);
#731=IFCFACEOUTERBOUND(#256,.T.);
#732=IFCFACEOUTERBOUND(#257,.T.);
#733=IFCFACEOUTERBOUND(#258,.T.);
#734=IFCFACEOUTERBOUND(#259,.T.);
#735=IFCFACEOUTERBOUND(#260,.T.);
#736=IFCFACEOUTERBOUND(#261,.T.);
#737=IFCFACEOUTERBOUND(#262,.T.);
#738=IFCFACEOUTERBOUND(#263,.T.);
#739=IFCFACEOUTERBOUND(#264,.T.);
#740=IFCFACEOUTERBOUND(#265,.T.);
#741=IFCFACEOUTERBOUND(#266,.T.);
#742=IFCFACEOUTERBOUND(#267,.T.);
#743=IFCFACEOUTERBOUND(#268,.T.);
#744=IFCFACEOUTERBOUND(#269,.T.);
#745=IFCFACEOUTERBOUND(#270,.T.);
#746=IFCFACEOUTERBOUND(#271,.T.);
#747=IFCFACEOUTERBOUND(#272,.T.);
#748=IFCFACEOUTERBOUND(#273,.T.);
#749=IFCFACEOUTERBOUND(#274,.T.);
#750=IFCFACEOUTERBOUND(#275,.T.);
#751=IFCFACEOUTERBOUND(#276,.T.);
#752=IFCFACEOUTERBOUND(#277,.T.);
#753=IFCFACEOUTERBOUND(#278,.T.);
#754=IFCFACEOUTERBOUND(#279,.T.);
#755=IFCFACEOUTERBOUND(#280,.T.);
#756=IFCFACEOUTERBOUND(#281,.T.);
#757=IFCFACEOUTERBOUND(#282,.T.);
#758=IFCFACEOUTERBOUND(#283,.T.);
#759=IFCFACEOUTERBOUND(#284,.T.);
#760=IFCFACEOUTERBOUND(#285,.T.);
#761=IFCFACEOUTERBOUND(#286,.T.);
#762=IFCFACEOUTERBOUND(#287,.T.);
#763=IFCFACEOUTERBOUND(#288,.T.);
#764=IFCFACEOUTERBOUND(#289,.T.);
#765=IFCFACEOUTERBOUND(#290,.T.);
#766=IFCFACEOUTERBOUND(#291,.T.);
#767=IFCFACEOUTERBOUND(#292,.T.);
#768=IFCFACEOUTERBOUND(#293,.T.);
#769=IFCFACEOUTERBOUND(#294,.T.);
#770=IFCFACEOUTERBOUND(#295,.T.);
#771=IFCFACEOUTERBOUND(#296,.T.);
#772=IFCFACEOUTERBOUND(#297,.T.);
#773=IFCFACEOUTERBOUND(#298,.T.);
#774=IFCFACEOUTERBOUND(#299,.T.);
#775=IFCFACEOUTERBOUND(#300,.T.);
#776=IFCFACEOUTERBOUND(#301,.T.);
#777=IFCFACEOUTERBOUND(#302,.T.);
#778=IFCFACEOUTERBOUND(#303,.T.);
#779=IFCFACEOUTERBOUND(#304,.T.);
#780=IFCFACEOUTERBOUND(#305,.T.);
#781=IFCFACEOUTERBOUND(#306,.T.);
#782=IFCFACEOUTERBOUND(#307,.T.);
#783=IFCFACEOUTERBOUND(#308,.T.);
#784=IFCFACEOUTERBOUND(#309,.T.);
#785=IFCFACEOUTERBOUND(#310,.T.);
#786=IFCFACEOUTERBOUND(#311,.T.);
#787=IFCFACEOUTERBOUND(#312,.T.);
#788=IFCFACEOUTERBOUND(#313,.T.);
#789=IFCFACEOUTERBOUND(#314,.T.);
#790=IFCFACEOUTERBOUND(#315,.T.);
#791=IFCFACEOUTERBOUND(#316,.T.);
#792=IFCFACEOUTERBOUND(#317,.T.);
#793=IFCFACEOUTERBOUND(#318,.T.);
#794=IFCFACEOUTERBOUND(#319,.T.);
#795=IFCFACEOUTERBOUND(#320,.T.);
#796=IFCFACEOUTERBOUND(#321,.T.);
#797=IFCFACEOUTERBOUND(#322,.T.);
#798=IFCFACEOUTERBOUND(#323,.T.);
#799=IFCFACEOUTERBOUND(#324,.T.);
#800=IFCFACEOUTERBOUND(#325,.T.);
#801=IFCFACEOUTERBOUND(#326,.T.);
#802=IFCFACEOUTERBOUND(#327,.T.);
#803=IFCFACEOUTERBOUND(#328,.T.);
#804=IFCFACEOUTERBOUND(#329,.T.);
#805=IFCFACEOUTERBOUND(#330,.T.);
#806=IFCFACEOUTERBOUND(#331,.T.);
#807=IFCFACEOUTERBOUND(#332,.T.);
#808=IFCFACEOUTERBOUND(#333,.T.);
#809=IFCFACEOUTERBOUND(#334,.T.);
#810=IFCFACEOUTERBOUND(#335,.T.);
#811=IFCFACEOUTERBOUND(#336,.T.);
#812=IFCFACEOUTERBOUND(#337,.T.);
#813=IFCFACEOUTERBOUND(#338,.T.);
#814=IFCFACEOUTERBOUND(#339,.T.);
#815=IFCFACEOUTERBOUND(#340,.T.);
#816=IFCFACEOUTERBOUND(#341,.T.);
#817=IFCFACEOUTERBOUND(#342,.T.);
#818=IFCFACEOUTERBOUND(#343,.T.);
#819=IFCFACEOUTERBOUND(#344,.T.);
#820=IFCFACEOUTERBOUND(#345,.T.);
#821=IFCFACEOUTERBOUND(#346,.T.);
#822=IFCFACEOUTERBOUND(#347,.T.);
#823=IFCFACEOUTERBOUND(#348,.T.);
#824=IFCFACEOUTERBOUND(#349,.T.);
#825=IFCFACEOUTERBOUND(#350,.T.);
#826=IFCFACEOUTERBOUND(#351,.T.);
#827=IFCFACEOUTERBOUND(#352,.T.);
#828=IFCFACEOUTERBOUND(#353,.T.);
#829=IFCFACEOUTERBOUND(#354,.T.);
#830=IFCFACEOUTERBOUND(#355,.T.);
#831=IFCFACEOUTERBOUND(#356,.T.);
#832=IFCFACEOUTERBOUND(#357,.T.);
#833=IFCFACEOUTERBOUND(#358,.T.);
#834=IFCFACEOUTERBOUND(#359,.T.);
#835=IFCFACEOUTERBOUND(#360,.T.);
#836=IFCFACEOUTERBOUND(#361,.T.);
#837=IFCFACEOUTERBOUND(#362,.T.);
#838=IFCFACEOUTERBOUND(#363,.T.);
#839=IFCFACEOUTERBOUND(#364,.T.);
#840=IFCFACEOUTERBOUND(#365,.T.);
#841=IFCFACEOUTERBOUND(#366,.T.);
#842=IFCFACEOUTERBOUND(#367,.T.);
#843=IFCFACEOUTERBOUND(#368,.T.);
#844=IFCFACEOUTERBOUND(#369,.T.);
#845=IFCFACEOUTERBOUND(#370,.T.);
#846=IFCFACEOUTERBOUND(#371,.T.);
#847=IFCFACEOUTERBOUND(#372,.T.);
#848=IFCFACEOUTERBOUND(#373,.T.);
#849=IFCFACEOUTERBOUND(#374,.T.);
#850=IFCFACEOUTERBOUND(#375,.T.);
#851=IFCFACEOUTERBOUND(#376,.T.);
#852=IFCFACEOUTERBOUND(#377,.T.);
#853=IFCFACEOUTERBOUND(#378,.T.);
#854=IFCFACEOUTERBOUND(#379,.T.);
#855=IFCFACEOUTERBOUND(#380,.T.);
#856=IFCFACEOUTERBOUND(#381,.T.);
#857=IFCFACEOUTERBOUND(#382,.T.);
#858=IFCFACEOUTERBOUND(#383,.T.);
#859=IFCFACEOUTERBOUND(#384,.T.);
#860=IFCFACEOUTERBOUND(#385,.T.);
#861=IFCFACEOUTERBOUND(#386,.T.);
#862=IFCFACEOUTERBOUND(#387,.T.);
#863=IFCFACEOUTERBOUND(#388,.T.);
#864=IFCFACEOUTERBOUND(#389,.T.);
#865=IFCFACEOUTERBOUND(#390,.T.);
#866=IFCFACEOUTERBOUND(#391,.T.);
#867=IFCFACEOUTERBOUND(#392,.T.);
#868=IFCFACEOUTERBOUND(#393,.T.);
#869=IFCFACEOUTERBOUND(#394,.T.);
#870=IFCFACEOUTERBOUND(#395,.T.);
#871=IFCFACEOUTERBOUND(#396,.T.);
#872=IFCFACEOUTERBOUND(#397,.T.);
#873=IFCFACEOUTERBOUND(#398,.T.);
#874=IFCFACEOUTERBOUND(#399,.T.);
#875=IFCFACEOUTERBOUND(#400,.T.);
#876=IFCFACEOUTERBOUND(#401,.T.);
#877=IFCFACEOUTERBOUND(#402,.T.);
#878=IFCFACEOUTERBOUND(#403,.T.);
#879=IFCFACEOUTERBOUND(#404,.T.);
#880=IFCFACEOUTERBOUND(#405,.T.);
#881=IFCFACEOUTERBOUND(#406,.T.);
#882=IFCFACEOUTERBOUND(#407,.T.);
#883=IFCFACEOUTERBOUND(#408,.T.);
#884=IFCFACEOUTERBOUND(#409,.T.);
#885=IFCFACEOUTERBOUND(#410,.T.);
#886=IFCFACEOUTERBOUND(#411,.T.);
#887=IFCFACEOUTERBOUND(#412,.T.);
#888=IFCFACEOUTERBOUND(#413,.T.);
#889=IFCFACEOUTERBOUND(#414,.T.);
#890=IFCFACEOUTERBOUND(#415,.T.);
#891=IFCFACEOUTERBOUND(#416,.T.);
#892=IFCFACEOUTERBOUND(#417,.T.);
#893=IFCFACEOUTERBOUND(#418,.T.);
#894=IFCFACEOUTERBOUND(#419,.T.);
#895=IFCFACEOUTERBOUND(#420,.T.);
#896=IFCFACEOUTERBOUND(#421,.T.);
#897=IFCFACEOUTERBOUND(#422,.T.);
#898=IFCFACEOUTERBOUND(#423,.T.);
#899=IFCFACEOUTERBOUND(#424,.T.);
#900=IFCFACEOUTERBOUND(#425,.T.);
#901=IFCFACEOUTERBOUND(#426,.T.);
#902=IFCFACEOUTERBOUND(#427,.T.);
#903=IFCFACEOUTERBOUND(#428,.T.);
#904=IFCFACEOUTERBOUND(#429,.T.);
#905=IFCFACEOUTERBOUND(#430,.T.);
#906=IFCFACEOUTERBOUND(#431,.T.);
#907=IFCFACEOUTERBOUND(#432,.T.);
#908=IFCFACEOUTERBOUND(#433,.T.);
#909=IFCFACEOUTERBOUND(#434,.T.);
#910=IFCFACEOUTERBOUND(#435,.T.);
#911=IFCFACEOUTERBOUND(#436,.T.);
#912=IFCFACEOUTERBOUND(#437,.T.);
#913=IFCFACEOUTERBOUND(#438,.T.);
#914=IFCFACEOUTERBOUND(#439,.T.);
#915=IFCFACEOUTERBOUND(#440,.T.);
#916=IFCFACEOUTERBOUND(#441,.T.);
#917=IFCFACEOUTERBOUND(#442,.T.);
#918=IFCFACEOUTERBOUND(#443,.T.);
#919=IFCFACEOUTERBOUND(#444,.T.);
#920=IFCFACEOUTERBOUND(#445,.T.);
#921=IFCFACEOUTERBOUND(#446,.T.);
#922=IFCFACEOUTERBOUND(#447,.T.);
#923=IFCFACEOUTERBOUND(#448,.T.);
#924=IFCFACEOUTERBOUND(#449,.T.);
#925=IFCFACEOUTERBOUND(#450,.T.);
#926=IFCFACEOUTERBOUND(#451,.T.);
#927=IFCFACEOUTERBOUND(#452,.T.);
#928=IFCFACEOUTERBOUND(#453,.T.);
#929=IFCFACEOUTERBOUND(#454,.T.);
#930=IFCFACEOUTERBOUND(#455,.T.);
#931=IFCFACEOUTERBOUND(#456,.T.);
#932=IFCFACEOUTERBOUND(#457,.T.);
#933=IFCFACEOUTERBOUND(#458,.T.);
#934=IFCFACEOUTERBOUND(#459,.T.);
#935=IFCFACEOUTERBOUND(#460,.T.);
#936=IFCFACEOUTERBOUND(#461,.T.);
#937=IFCFACEOUTERBOUND(#462,.T.);
#938=IFCFACEOUTERBOUND(#463,.T.);
#939=IFCFACEOUTERBOUND(#464,.T.);
#940=IFCFACEOUTERBOUND(#465,.T.);
#941=IFCFACEOUTERBOUND(#466,.T.);
#942=IFCFACEOUTERBOUND(#467,.T.);
#943=IFCFACEOUTERBOUND(#468,.T.);
#944=IFCFACEOUTERBOUND(#469,.T.);
#945=IFCFACEOUTERBOUND(#470,.T.);
#946=IFCFACEOUTERBOUND(#471,.T.);
#947=IFCFACEOUTERBOUND(#472,.T.);
#948=IFCFACEOUTERBOUND(#473,.T.);
#949=IFCFACEOUTERBOUND(#474,.T.);
#950=IFCFACEOUTERBOUND(#475,.T.);
#951=IFCFACEOUTERBOUND(#476,.T.);
#952=IFCFACEOUTERBOUND(#477,.T.);
#953=IFCFACEOUTERBOUND(#478,.T.);
#954=IFCFACEOUTERBOUND(#479,.T.);
#955=IFCFACEOUTERBOUND(#480,.T.);
#956=IFCFACEOUTERBOUND(#481,.T.);
#957=IFCFACEOUTERBOUND(#482,.T.);
#958=IFCFACEOUTERBOUND(#483,.T.);
#959=IFCFACEOUTERBOUND(#484,.T.);
#960=IFCFACEOUTERBOUND(#485,.T.);
#961=IFCFACEOUTERBOUND(#486,.T.);
#962=IFCFACEOUTERBOUND(#487,.T.);
#963=IFCFACEOUTERBOUND(#488,.T.);
#964=IFCFACEOUTERBOUND(#489,.T.);
#965=IFCFACEOUTERBOUND(#490,.T.);
#966=IFCFACEOUTERBOUND(#491,.T.);
#967=IFCFACEOUTERBOUND(#492,.T.);
#968=IFCFACEOUTERBOUND(#493,.T.);
#969=IFCFACEOUTERBOUND(#494,.T.);
#970=IFCFACEOUTERBOUND(#495,.T.);
#971=IFCFACEOUTERBOUND(#496,.T.);
#972=IFCFACEOUTERBOUND(#497,.T.);
#973=IFCFACEOUTERBOUND(#498,.T.);
#974=IFCFACEOUTERBOUND(#499,.T.);
#975=IFCFACEOUTERBOUND(#500,.T.);
#976=IFCFACE((#501));
#977=IFCFACE((#502));
#978=IFCFACE((#503));
#979=IFCFACE((#504));
#980=IFCFACE((#505));
#981=IFCFACE((#506));
#982=IFCFACE((#507));
#983=IFCFACE((#508));
#984=IFCFACE((#509));
#985=IFCFACE((#510));
#986=IFCFACE((#511));
#987=IFCFACE((#512));
#988=IFCFACE((#513));
#989=IFCFACE((#514));
#990=IFCFACE((#515));
#991=IFCFACE((#516));
#992=IFCFACE((#517));
#993=IFCFACE((#518));
#994=IFCFACE((#519));
#995=IFCFACE((#520));
#996=IFCFACE((#521));
#997=IFCFACE((#522));
#998=IFCFACE((#523));
#999=IFCFACE((#524));
#1000=IFCFACE((#525));
#1001=IFCFACE((#526));
#1002=IFCFACE((#527));
#1003=IFCFACE((#528));
#1004=IFCFACE((#529));
#1005=IFCFACE((#530));
#1006=IFCFACE((#531));
#1007=IFCFACE((#532));
#1008=IFCFACE((#533));
#1009=IFCFACE((#534));
#1010=IFCFACE((#535));
#1011=IFCFACE((#536));
#1012=IFCFACE((#537));
#1013=IFCFACE((#538));
#1014=IFCFACE((#539));
#1015=IFCFACE((#540));
#1016=IFCFACE((#541));
#1017=IFCFACE((#542));
#1018=IFCFACE((#543));
#1019=IFCFACE((#544));
#1020=IFCFACE((#545));
#1021=IFCFACE((#546));
#1022=IFCFACE((#547));
#1023=IFCFACE((#548));
#1024=IFCFACE((#549));
#1025=IFCFACE((#550));
#1026=IFCFACE((#551));
#1027=IFCFACE((#552));
#1028=IFCFACE((#553));
#1029=IFCFACE((#554));
#1030=IFCFACE((#555));
#1031=IFCFACE((#556));
#1032=IFCFACE((#557));
#1033=IFCFACE((#558));
#1034=IFCFACE((#559));
#1035=IFCFACE((#560));
#1036=IFCFACE((#561));
#1037=IFCFACE((#562));
#1038=IFCFACE((#563));
#1039=IFCFACE((#564));
#1040=IFCFACE((#565));
#1041=IFCFACE((#566));
#1042=IFCFACE((#567));
#1043=IFCFACE((#568));
#1044=IFCFACE((#569));
#1045=IFCFACE((#570));
#1046=IFCFACE((#571));
#1047=IFCFACE((#572));
#1048=IFCFACE((#573));
#1049=IFCFACE((#574));
#1050=IFCFACE((#575));
#1051=IFCFACE((#576));
#1052=IFCFACE((#577));
#1053=IFCFACE((#578));
#1054=IFCFACE((#579));
#1055=IFCFACE((#580));
#1056=IFCFACE((#581));
#1057=IFCFACE((#582));
#1058=IFCFACE((#583));
#1059=IFCFACE((#584));
#1060=IFCFACE((#585));
#1061=IFCFACE((#586));
#1062=IFCFACE((#587));
#1063=IFCFACE((#588));
#1064=IFCFACE((#589));
#1065=IFCFACE((#590));
#1066=IFCFACE((#591));
#1067=IFCFACE((#592));
#1068=IFCFACE((#593));
#1069=IFCFACE((#594));
#1070=IFCFACE((#595));
#1071=IFCFACE((#596));
#1072=IFCFACE((#597));
#1073=IFCFACE((#598));
#1074=IFCFACE((#599));
#1075=IFCFACE((#600));
#1076=IFCFACE((#601));
#1077=IFCFACE((#602));
#1078=IFCFACE((#603));
#1079=IFCFACE((#604));
#1080=IFCFACE((#605));
#1081=IFCFACE((#606));
#1082=IFCFACE((#607));
#1083=IFCFACE((#608));
#1084=IFCFACE((#609));
#1085=IFCFACE((#610));
#1086=IFCFACE((#611));
#1087=IFCFACE((#612));
#1088=IFCFACE((#613));
#1089=IFCFACE((#614));
#1090=IFCFACE((#615));
#1091=IFCFACE((#616));
#1092=IFCFACE((#617));
#1093=IFCFACE((#618));
#1094=IFCFACE((#619));
#1095=IFCFACE((#620));
#1096=IFCFACE((#621));
#1097=IFCFACE((#622));
#1098=IFCFACE((#623));
#1099=IFCFACE((#624));
#1100=IFCFACE((#625));
#1101=IFCFACE((#626));
#1102=IFCFACE((#627));
#1103=IFCFACE((#628));
#1104=IFCFACE((#629));
#1105=IFCFACE((#630));
#1106=IFCFACE((#631));
#1107=IFCFACE((#632));
#1108=IFCFACE((#633));
#1109=IFCFACE((#634));
#1110=IFCFACE((#635));
#1111=IFCFACE((#636));
#1112=IFCFACE((#637));
#1113=IFCFACE((#638));
#1114=IFCFACE((#639));
#1115=IFCFACE((#640));
#1116=IFCFACE((#641));
#1117=IFCFACE((#642));
#1118=IFCFACE((#643));
#1119=IFCFACE((#644));
#1120=IFCFACE((#645));
#1121=IFCFACE((#646));
#1122=IFCFACE((#647));
#1123=IFCFACE((#648));
#1124=IFCFACE((#649));
#1125=IFCFACE((#650));
#1126=IFCFACE((#651));
#1127=IFCFACE((#652));
#1128=IFCFACE((#653));
#1129=IFCFACE((#654));
#1130=IFCFACE((#655));
#1131=IFCFACE((#656));
#1132=IFCFACE((#657));
#1133=IFCFACE((#658));
#1134=IFCFACE((#659));
#1135=IFCFACE((#660));
#1136=IFCFACE((#661));
#1137=IFCFACE((#662));
#1138=IFCFACE((#663));
#1139=IFCFACE((#664));
#1140=IFCFACE((#665));
#1141=IFCFACE((#666));
#1142=IFCFACE((#667));
#1143=IFCFACE((#668));
#1144=IFCFACE((#669));
#1145=IFCFACE((#670));
#1146=IFCFACE((#671));
#1147=IFCFACE((#672));
#1148=IFCFACE((#673));
#1149=IFCFACE((#674));
#1150=IFCFACE((#675));
#1151=IFCFACE((#676));
#1152=IFCFACE((#677));
#1153=IFCFACE((#678));
#1154=IFCFACE((#679));
#1155=IFCFACE((#680));
#1156=IFCFACE((#681));
#1157=IFCFACE((#682));
#1158=IFCFACE((#683));
#1159=IFCFACE((#684));
#1160=IFCFACE((#685));
#1161=IFCFACE((#686));
#1162=IFCFACE((#687));
#1163=IFCFACE((#688));
#1164=IFCFACE((#689));
#1165=IFCFACE((#690));
#1166=IFCFACE((#691));
#1167=IFCFACE((#692));
#1168=IFCFACE((#693));
#1169=IFCFACE((#694));
#1170=IFCFACE((#695));
#1171=IFCFACE((#696));
#1172=IFCFACE((#697));
#1173=IFCFACE((#698));
#1174=IFCFACE((#699));
#1175=IFCFACE((#700));
#1176=IFCFACE((#701));
#1177=IFCFACE((#702));
#1178=IFCFACE((#703));
#1179=IFCFACE((#704));
#1180=IFCFACE((#705));
#1181=IFCFACE((#706));
#1182=IFCFACE((#707));
#1183=IFCFACE((#708));
#1184=IFCFACE((#709));
#1185=IFCFACE((#710));
#1186=IFCFACE((#711));
#1187=IFCFACE((#712));
#1188=IFCFACE((#713));
#1189=IFCFACE((#714));
#1190=IFCFACE((#715));
#1191=IFCFACE((#716));
#1192=IFCFACE((#717));
#1193=IFCFACE((#718));
#1194=IFCFACE((#719));
#1195=IFCFACE((#720));
#1196=IFCFACE((#721));
#1197=IFCFACE((#722));
#1198=IFCFACE((#723));
#1199=IFCFACE((#724));
#1200=IFCFACE((#725));
#1201=IFCFACE((#726));
#1202=IFCFACE((#727));
#1203=IFCFACE((#728));
#1204=IFCFACE((#729));
#1205=IFCFACE((#730));
#1206=IFCFACE((#731));
#1207=IFCFACE((#732));
#1208=IFCFACE((#733));
#1209=IFCFACE((#734));
#1210=IFCFACE((#735));
#1211=IFCFACE((#736));
#1212=IFCFACE((#737));
#1213=IFCFACE((#738));
#1214=IFCFACE((#739));
#1215=IFCFACE((#740));
#1216=IFCFACE((#741));
#1217=IFCFACE((#742));
#1218=IFCFACE((#743));
#1219=IFCFACE((#744));
#1220=IFCFACE((#745));
#1221=IFCFACE((#746));
#1222=IFCFACE((#747));
#1223=IFCFACE((#748));
#1224=IFCFACE((#749));
#1225=IFCFACE((#750));
#1226=IFCFACE((#751));
#1227=IFCFACE((#752));
#1228=IFCFACE((#753));
#1229=IFCFACE((#754));
#1230=IFCFACE((#755));
#1231=IFCFACE((#756));
#1232=IFCFACE((#757));
#1233=IFCFACE((#758));
#1234=IFCFACE((#759));
#1235=IFCFACE((#760));
#1236=IFCFACE((#761));
#1237=IFCFACE((#762));
#1238=IFCFACE((#763));
#1239=IFCFACE((#764));
#1240=IFCFACE((#765));
#1241=IFCFACE((#766));
#1242=IFCFACE((#767));
#1243=IFCFACE((#768));
#1244=IFCFACE((#769));
#1245=IFCFACE((#770));
#1246=IFCFACE((#771));
#1247=IFCFACE((#772));
#1248=IFCFACE((#773));
#1249=IFCFACE((#774));
#1250=IFCFACE((#775));
#1251=IFCFACE((#776));
#1252=IFCFACE((#777));
#1253=IFCFACE((#778));
#1254=IFCFACE((#779));
#1255=IFCFACE((#780));
#1256=IFCFACE((#781));
#1257=IFCFACE((#782));
#1258=IFCFACE((#783));
#1259=IFCFACE((#784));
#1260=IFCFACE((#785));
#1261=IFCFACE((#786));
#1262=IFCFACE((#787));
#1263=IFCFACE((#788));
#1264=IFCFACE((#789));
#1265=IFCFACE((#790));
#1266=IFCFACE((#791));
#1267=IFCFACE((#792));
#1268=IFCFACE((#793));
#1269=IFCFACE((#794));
#1270=IFCFACE((#795));
#1271=IFCFACE((#796));
#1272=IFCFACE((#797));
#1273=IFCFACE((#798));
#1274=IFCFACE((#799));
#1275=IFCFACE((#800));
#1276=IFCFACE((#801));
#1277=IFCFACE((#802));
#1278=IFCFACE((#803));
#1279=IFCFACE((#804));
#1280=IFCFACE((#805));
#1281=IFCFACE((#806));
#1282=IFCFACE((#807));
#1283=IFCFACE((#808));
#1284=IFCFACE((#809));
#1285=IFCFACE((#810));
#1286=IFCFACE((#811));
#1287=IFCFACE((#812));
#1288=IFCFACE((#813));
#1289=IFCFACE((#814));
#1290=IFCFACE((#815));
#1291=IFCFACE((#816));
#1292=IFCFACE((#817));
#1293=IFCFACE((#818));
#1294=IFCFACE((#819));
#1295=IFCFACE((#820));
#1296=IFCFACE((#821));
#1297=IFCFACE((#822));
#1298=IFCFACE((#823));
#1299=IFCFACE((#824));
#1300=IFCFACE((#825));
#1301=IFCFACE((#826));
#1302=IFCFACE((#827));
#1303=IFCFACE((#828));
#1304=IFCFACE((#829));
#1305=IFCFACE((#830));
#1306=IFCFACE((#831));
#1307=IFCFACE((#832));
#1308=IFCFACE((#833));
#1309=IFCFACE((#834));
#1310=IFCFACE((#835));
#1311=IFCFACE((#836));
#1312=IFCFACE((#837));
#1313=IFCFACE((#838));
#1314=IFCFACE((#839));
#1315=IFCFACE((#840));
#1316=IFCFACE((#841));
#1317=IFCFACE((#842));
#1318=IFCFACE((#843));
#1319=IFCFACE((#844));
#1320=IFCFACE((#845));
#1321=IFCFACE((#846));
#1322=IFCFACE((#847));
#1323=IFCFACE((#848));
#1324=IFCFACE((#849));
#1325=IFCFACE((#850));
#1326=IFCFACE((#851));
#1327=IFCFACE((#852));
#1328=IFCFACE((#853));
#1329=IFCFACE((#854));
#1330=IFCFACE((#855));
#1331=IFCFACE((#856));
#1332=IFCFACE((#857));
#1333=IFCFACE((#858));
#1334=IFCFACE((#859));
#1335=IFCFACE((#860));
#1336=IFCFACE((#861));
#1337=IFCFACE((#862));
#1338=IFCFACE((#863));
#1339=IFCFACE((#864));
#1340=IFCFACE((#865));
#1341=IFCFACE((#866));
#1342=IFCFACE((#867));
#1343=IFCFACE((#868));
#1344=IFCFACE((#869));
#1345=IFCFACE((#870));
#1346=IFCFACE((#871));
#1347=IFCFACE((#872));
#1348=IFCFACE((#873));
#1349=IFCFACE((#874));
#1350=IFCFACE((#875));
#1351=IFCFACE((#876));
#1352=IFCFACE((#877));
#1353=IFCFACE((#878));
#1354=IFCFACE((#879));
#1355=IFCFACE((#880));
#1356=IFCFACE((#881));
#1357=IFCFACE((#882));
#1358=IFCFACE((#883));
#1359=IFCFACE((#884));
#1360=IFCFACE((#885));
#1361=IFCFACE((#886));
#1362=IFCFACE((#887));
#1363=IFCFACE((#888));
#1364=IFCFACE((#889));
#1365=IFCFACE((#890));
#1366=IFCFACE((#891));
#1367=IFCFACE((#892));
#1368=IFCFACE((#893));
#1369=IFCFACE((#894));
#1370=IFCFACE((#895));
#1371=IFCFACE((#896));
#1372=IFCFACE((#897));
#1373=IFCFACE((#898));
#1374=IFCFACE((#899));
#1375=IFCFACE((#900));
#1376=IFCFACE((#901));
#1377=IFCFACE((#902));
#1378=IFCFACE((#903));
#1379=IFCFACE((#904));
#1380=IFCFACE((#905));
#1381=IFCFACE((#906));
#1382=IFCFACE((#907));
#1383=IFCFACE((#908));
#1384=IFCFACE((#909));
#1385=IFCFACE((#910));
#1386=IFCFACE((#911));
#1387=IFCFACE((#912));
#1388=IFCFACE((#913));
#1389=IFCFACE((#914));
#1390=IFCFACE((#915));
#1391=IFCFACE((#916));
#1392=IFCFACE((#917));
#1393=IFCFACE((#918));
#1394=IFCFACE((#919));
#1395=IFCFACE((#920));
#1396=IFCFACE((#921));
#1397=IFCFACE((#922));
#1398=IFCFACE((#923));
#1399=IFCFACE((#924));
#1400=IFCFACE((#925));
#1401=IFCFACE((#926));
#1402=IFCFACE((#927));
#1403=IFCFACE((#928));
#1404=IFCFACE((#929));
#1405=IFCFACE((#930));
#1406=IFCFACE((#931));
#1407=IFCFACE((#932));
#1408=IFCFACE((#933));
#1409=IFCFACE((#934));
#1410=IFCFACE((#935));
#1411=IFCFACE((#936));
#1412=IFCFACE((#937));
#1413=IFCFACE((#938));
#1414=IFCFACE((#939));
#1415=IFCFACE((#940));
#1416=IFCFACE((#941));
#1417=IFCFACE((#942));
#1418=IFCFACE((#943));
#1419=IFCFACE((#944));
#1420=IFCFACE((#945));
#1421=IFCFACE((#946));
#1422=IFCFACE((#947));
#1423=IFCFACE((#948));
#1424=IFCFACE((#949));
#1425=IFCFACE((#950));
#1426=IFCFACE((#951));
#1427=IFCFACE((#952));
#1428=IFCFACE((#953));
#1429=IFCFACE((#954));
#1430=IFCFACE((#955));
#1431=IFCFACE((#956));
#1432=IFCFACE((#957));
#1433=IFCFACE((#958));
#1434=IFCFACE((#959));
#1435=IFCFACE((#960));
#1436=IFCFACE((#961));
#1437=IFCFACE((#962));
#1438=IFCFACE((#963));
#1439=IFCFACE((#964));
#1440=IFCFACE((#965));
#1441=IFCFACE((#966));
#1442=IFCFACE((#967));
#1443=IFCFACE((#968));
#1444=IFCFACE((#969));
#1445=IFCFACE((#970));
#1446=IFCFACE((#971));
#1447=IFCFACE((#972));
#1448=IFCFACE((#973));
#1449=IFCFACE((#974));
#1450=IFCFACE((#975));
#1451=IFCCLOSEDSHELL((#976,#977,#978,#979,#980,#981,#982,#983,#984,#985,
#986,#987,#988,#989,#990,#991,#992,#993,#994,#995,#996,#997,#998,#999,#1000,
#1001,#1002,#1003,#1004,#1005,#1006,#1007,#1008,#1009,#1010,#1011,#1012,
#1013,#1014,#1015,#1016,#1017,#1018,#1019,#1020,#1021,#1022,#1023,#1024,
#1025,#1026,#1027,#1028,#1029,#1030,#1031,#1032,#1033,#1034,#1035,#1036,
#1037,#1038,#1039,#1040,#1041,#1042,#1043,#1044,#1045,#1046,#1047,#1048,
#1049,#1050,#1051,#1052,#1053,#1054,#1055,#1056,#1057,#1058,#1059,#1060,
#1061,#1062,#1063,#1064,#1065,#1066,#1067,#1068,#1069,#1070,#1071,#1072,
#1073,#1074,#1075,#1076,#1077,#1078,#1079,#1080,#1081,#1082,#1083,#1084,
#1085,#1086,#1087,#1088,#1089,#1090,#1091,#1092,#1093,#1094,#1095,#1096,
#1097,#1098,#1099,#1100,#1101,#1102,#1103,#1104,#1105,#1106,#1107,#1108,
#1109,#1110,#1111,#1112,#1113,#1114,#1115,#1116,#1117,#1118,#1119,#1120,
#1121,#1122,#1123,#1124,#1125,#1126,#1127,#1128,#1129,#1130,#1131,#1132,
#1133,#1134,#1135,#1136,#1137,#1138,#1139,#1140,#1141,#1142,#1143,#1144,
#1145,#1146,#1147,#1148,#1149,#1150,#1151,#1152,#1153,#1154,#1155,#1156,
#1157,#1158,#1159,#1160,#1161,#1162,#1163,#1164,#1165,#1166,#1167,#1168,
#1169,#1170,#1171,#1172,#1173,#1174,#1175,#1176,#1177,#1178,#1179,#1180,
#1181,#1182,#1183,#1184,#1185,#1186,#1187,#1188,#1189,#1190,#1191,#1192,
#1193,#1194,#1195,#1196,#1197,#1198,#1199,#1200,#1201,#1202,#1203,#1204,
#1205,#1206,#1207,#1208,#1209,#1210,#1211,#1212,#1213,#1214,#1215,#1216,
#1217,#1218,#1219,#1220,#1221,#1222,#1223,#1224,#1225,#1226,#1227,#1228,
#1229,#1230,#1231,#1232,#1233,#1234,#1235,#1236,#1237,#1238,#1239,#1240,
#1241,#1242,#1243,#1244,#1245,#1246,#1247,#1248,#1249,#1250,#1251,#1252,
#1253,#1254,#1255,#1256,#1257,#1258,#1259,#1260,#1261,#1262,#1263,#1264,
#1265,#1266,#1267,#1268,#1269,#1270,#1271,#1272,#1273,#1274,#1275,#1276,
#1277,#1278,#1279,#1280,#1281,#1282,#1283,#1284,#1285,#1286,#1287,#1288,
#1289,#1290,#1291,#1292,#1293,#1294,#1295,#1296,#1297,#1298,#1299,#1300,
#1301,#1302,#1303,#1304,#1305,#1306,#1307,#1308,#1309,#1310,#1311,#1312,
#1313,#1314,#1315,#1316,#1317,#1318,#1319,#1320,#1321,#1322,#1323,#1324,
#1325,#1326,#1327,#1328,#1329,#1330,#1331,#1332,#1333,#1334,#1335,#1336,
#1337,#1338,#1339,#1340,#1341,#1342,#1343,#1344,#1345,#1346,#1347,#1348,
#1349,#1350,#1351,#1352,#1353,#1354,#1355,#1356,#1357,#1358,#1359,#1360,
#1361,#1362,#1363,#1364,#1365,#1366,#1367,#1368,#1369,#1370,#1371,#1372,
#1373,#1374,#1375,#1376,#1377,#1378,#1379,#1380,#1381,#1382,#1383,#1384,
#1385,#1386,#1387,#1388,#1389,#1390,#1391,#1392,#1393,#1394,#1395,#1396,
#1397,#1398,#1399,#1400,#1401,#1402,#1403,#1404,#1405,#1406,#1407,#1408,
#1409,#1410,#1411,#1412,#1413,#1414,#1415,#1416,#1417,#1418,#1419,#1420,
#1421,#1422,#1423,#1424,#1425,#1426,#1427,#1428,#1429,#1430,#1431,#1432,
#1433,#1434,#1435,#1436,#1437,#1438,#1439,#1440,#1441,#1442,#1443,#1444,
#1445,#1446,#1447,#1448,#1449,#1450));
#1452=IFCSTYLEDITEM(#1457,(#1453),'');
#1453=IFCPRESENTATIONSTYLEASSIGNMENT((#1454));
#1454=IFCSURFACESTYLE('',.BOTH.,(#1455));
#1455=IFCSURFACESTYLERENDERING(#1456,0.,$,$,$,$,$,$,.NOTDEFINED.);
#1456=IFCCOLOURRGB('',0.506983280181885,0.531564235687256,0.550000011920929);
#1457=IFCFACETEDBREP(#1451);
#1458=IFCPROJECT('07hUkdHgGydfWsFJH56q5B',#1931,'ClGray_4640536_JC',' ',
' ',' ',' ',(#1926),#1459);
#1459=IFCUNITASSIGNMENT((#1927,#1928,#1929,#1930));
#1460=IFCGEOMETRICREPRESENTATIONSUBCONTEXT('Body','Model',*,*,*,*,#1926,
1.,.MODEL_VIEW.,$);
#1461=IFCAXIS2PLACEMENT3D(#1467,#1463,#1464);
#1462=IFCAXIS2PLACEMENT3D(#1925,#1465,#1466);
#1463=IFCDIRECTION((0.,0.,1.));
#1464=IFCDIRECTION((1.,0.,0.));
#1465=IFCDIRECTION((0.,0.,1.));
#1466=IFCDIRECTION((1.,0.,0.));
#1467=IFCCARTESIANPOINT((0.,0.,0.));
#1468=IFCCARTESIANPOINT((0.861243536511753,2.23543793189619,-4.));
#1469=IFCCARTESIANPOINT((0.861243536511753,2.23543793189619,4.));
#1470=IFCCARTESIANPOINT((0.834782608695655,2.25014177247108,4.));
#1471=IFCCARTESIANPOINT((0.834782608695655,2.25014177247108,-4.));
#1472=IFCCARTESIANPOINT((0.882092206906521,2.2134898893568,-4.));
#1473=IFCCARTESIANPOINT((0.882092206906521,2.2134898893568,4.));
#1474=IFCCARTESIANPOINT((0.895418081857301,2.18630892753907,-4.));
#1475=IFCCARTESIANPOINT((0.895418081857301,2.18630892753907,4.));
#1476=IFCCARTESIANPOINT((0.900000000000003,2.15638586528478,-4.));
#1477=IFCCARTESIANPOINT((0.900000000000003,2.15638586528478,4.));
#1478=IFCCARTESIANPOINT((-1.46957615897682E-16,2.4,-4.));
#1479=IFCCARTESIANPOINT((-1.46957615897682E-16,2.4,4.));
#1480=IFCCARTESIANPOINT((-0.834782608695656,2.25014177247108,4.));
#1481=IFCCARTESIANPOINT((-0.834782608695656,2.25014177247108,-4.));
#1482=IFCCARTESIANPOINT((-0.895418081857301,2.18630892753907,-4.));
#1483=IFCCARTESIANPOINT((-0.895418081857301,2.18630892753907,4.));
#1484=IFCCARTESIANPOINT((-0.900000000000004,2.15638586528478,4.));
#1485=IFCCARTESIANPOINT((-0.900000000000004,2.15638586528478,-4.));
#1486=IFCCARTESIANPOINT((-0.882092206906522,2.2134898893568,-4.));
#1487=IFCCARTESIANPOINT((-0.882092206906522,2.2134898893568,4.));
#1488=IFCCARTESIANPOINT((-0.861243536511754,2.23543793189619,-4.));
#1489=IFCCARTESIANPOINT((-0.861243536511754,2.23543793189619,4.));
#1490=IFCCARTESIANPOINT((-0.900000000000004,1.4,4.));
#1491=IFCCARTESIANPOINT((-0.900000000000004,1.4,-4.));
#1492=IFCCARTESIANPOINT((-1.20865828381746,0.938060233744357,-4.));
#1493=IFCCARTESIANPOINT((-1.20865828381746,0.938060233744357,4.));
#1494=IFCCARTESIANPOINT((-1.4,0.9,4.));
#1495=IFCCARTESIANPOINT((-1.4,0.9,-4.));
#1496=IFCCARTESIANPOINT((-1.04644660940673,1.04644660940673,-4.));
#1497=IFCCARTESIANPOINT((-1.04644660940673,1.04644660940673,4.));
#1498=IFCCARTESIANPOINT((-0.938060233744361,1.20865828381746,-4.));
#1499=IFCCARTESIANPOINT((-0.938060233744361,1.20865828381746,4.));
#1500=IFCCARTESIANPOINT((-2.15638586528478,0.9,4.));
#1501=IFCCARTESIANPOINT((-2.15638586528478,0.9,-4.));
#1502=IFCCARTESIANPOINT((-2.23543793189619,0.86124353651175,-4.));
#1503=IFCCARTESIANPOINT((-2.23543793189619,0.86124353651175,4.));
#1504=IFCCARTESIANPOINT((-2.25014177247108,0.834782608695652,4.));
#1505=IFCCARTESIANPOINT((-2.25014177247108,0.834782608695652,-4.));
#1506=IFCCARTESIANPOINT((-2.2134898893568,0.882092206906518,-4.));
#1507=IFCCARTESIANPOINT((-2.2134898893568,0.882092206906518,4.));
#1508=IFCCARTESIANPOINT((-2.18630892753907,0.895418081857298,-4.));
#1509=IFCCARTESIANPOINT((-2.18630892753907,0.895418081857298,4.));
#1510=IFCCARTESIANPOINT((-2.36643191323985,0.399999999999999,4.));
#1511=IFCCARTESIANPOINT((-2.36643191323985,0.399999999999999,-4.));
#1512=IFCCARTESIANPOINT((-3.90000000000001,0.4,-4.));
#1513=IFCCARTESIANPOINT((-3.90000000000001,0.4,4.));
#1514=IFCCARTESIANPOINT((-4.05307337294605,-0.369551813004515,-4.));
#1515=IFCCARTESIANPOINT((-4.05307337294605,-0.369551813004515,4.));
#1516=IFCCARTESIANPOINT((-3.90000000000001,-0.4,4.));
#1517=IFCCARTESIANPOINT((-3.90000000000001,-0.4,-4.));
#1518=IFCCARTESIANPOINT((-4.18284271247463,-0.282842712474619,-4.));
#1519=IFCCARTESIANPOINT((-4.18284271247463,-0.282842712474619,4.));
#1520=IFCCARTESIANPOINT((-4.26955181300453,-0.153073372946036,-4.));
#1521=IFCCARTESIANPOINT((-4.26955181300453,-0.153073372946036,4.));
#1522=IFCCARTESIANPOINT((-4.30000000000001,-9.79717439317883E-17,-4.));
#1523=IFCCARTESIANPOINT((-4.30000000000001,-9.79717439317883E-17,4.));
#1524=IFCCARTESIANPOINT((-4.26955181300453,0.153073372946036,-4.));
#1525=IFCCARTESIANPOINT((-4.26955181300453,0.153073372946036,4.));
#1526=IFCCARTESIANPOINT((-4.18284271247463,0.282842712474619,-4.));
#1527=IFCCARTESIANPOINT((-4.18284271247463,0.282842712474619,4.));
#1528=IFCCARTESIANPOINT((-4.05307337294605,0.369551813004515,-4.));
#1529=IFCCARTESIANPOINT((-4.05307337294605,0.369551813004515,4.));
#1530=IFCCARTESIANPOINT((-2.36643191323985,-0.4,-4.));
#1531=IFCCARTESIANPOINT((-2.36643191323985,-0.4,4.));
#1532=IFCCARTESIANPOINT((-2.25014177247108,-0.834782608695652,4.));
#1533=IFCCARTESIANPOINT((-2.25014177247108,-0.834782608695652,-4.));
#1534=IFCCARTESIANPOINT((-2.18630892753907,-0.895418081857297,-4.));
#1535=IFCCARTESIANPOINT((-2.18630892753907,-0.895418081857297,4.));
#1536=IFCCARTESIANPOINT((-2.15638586528478,-0.9,4.));
#1537=IFCCARTESIANPOINT((-2.15638586528478,-0.9,-4.));
#1538=IFCCARTESIANPOINT((-2.2134898893568,-0.882092206906518,-4.));
#1539=IFCCARTESIANPOINT((-2.2134898893568,-0.882092206906518,4.));
#1540=IFCCARTESIANPOINT((-2.23543793189619,-0.86124353651175,-4.));
#1541=IFCCARTESIANPOINT((-2.23543793189619,-0.86124353651175,4.));
#1542=IFCCARTESIANPOINT((-1.4,-0.9,4.));
#1543=IFCCARTESIANPOINT((-1.4,-0.9,-4.));
#1544=IFCCARTESIANPOINT((-0.93806023374436,-1.20865828381746,-4.));
#1545=IFCCARTESIANPOINT((-0.93806023374436,-1.20865828381746,4.));
#1546=IFCCARTESIANPOINT((-0.900000000000004,-1.4,4.));
#1547=IFCCARTESIANPOINT((-0.900000000000004,-1.4,-4.));
#1548=IFCCARTESIANPOINT((-1.04644660940673,-1.04644660940673,-4.));
#1549=IFCCARTESIANPOINT((-1.04644660940673,-1.04644660940673,4.));
#1550=IFCCARTESIANPOINT((-1.20865828381746,-0.938060233744357,-4.));
#1551=IFCCARTESIANPOINT((-1.20865828381746,-0.938060233744357,4.));
#1552=IFCCARTESIANPOINT((-0.900000000000004,-2.15638586528478,4.));
#1553=IFCCARTESIANPOINT((-0.900000000000004,-2.15638586528478,-4.));
#1554=IFCCARTESIANPOINT((-0.861243536511753,-2.23543793189619,-4.));
#1555=IFCCARTESIANPOINT((-0.861243536511753,-2.23543793189619,4.));
#1556=IFCCARTESIANPOINT((-0.834782608695656,-2.25014177247108,4.));
#1557=IFCCARTESIANPOINT((-0.834782608695656,-2.25014177247108,-4.));
#1558=IFCCARTESIANPOINT((-0.882092206906522,-2.2134898893568,-4.));
#1559=IFCCARTESIANPOINT((-0.882092206906522,-2.2134898893568,4.));
#1560=IFCCARTESIANPOINT((-0.895418081857301,-2.18630892753907,-4.));
#1561=IFCCARTESIANPOINT((-0.895418081857301,-2.18630892753907,4.));
#1562=IFCCARTESIANPOINT((0.900000000000003,1.4,-4.));
#1563=IFCCARTESIANPOINT((0.900000000000003,1.4,4.));
#1564=IFCCARTESIANPOINT((0.93806023374436,1.20865828381746,-4.));
#1565=IFCCARTESIANPOINT((0.93806023374436,1.20865828381746,4.));
#1566=IFCCARTESIANPOINT((1.04644660940673,1.04644660940673,-4.));
#1567=IFCCARTESIANPOINT((1.04644660940673,1.04644660940673,4.));
#1568=IFCCARTESIANPOINT((1.20865828381746,0.938060233744357,-4.));
#1569=IFCCARTESIANPOINT((1.20865828381746,0.938060233744357,4.));
#1570=IFCCARTESIANPOINT((1.4,0.9,-4.));
#1571=IFCCARTESIANPOINT((1.4,0.9,4.));
#1572=IFCCARTESIANPOINT((2.15638586528478,0.9,-4.));
#1573=IFCCARTESIANPOINT((2.15638586528478,0.9,4.));
#1574=IFCCARTESIANPOINT((2.18630892753907,0.895418081857297,-4.));
#1575=IFCCARTESIANPOINT((2.18630892753907,0.895418081857297,4.));
#1576=IFCCARTESIANPOINT((2.2134898893568,0.882092206906518,-4.));
#1577=IFCCARTESIANPOINT((2.2134898893568,0.882092206906518,4.));
#1578=IFCCARTESIANPOINT((2.23543793189619,0.86124353651175,-4.));
#1579=IFCCARTESIANPOINT((2.23543793189619,0.86124353651175,4.));
#1580=IFCCARTESIANPOINT((2.25014177247108,0.834782608695652,-4.));
#1581=IFCCARTESIANPOINT((2.25014177247108,0.834782608695652,4.));
#1582=IFCCARTESIANPOINT((2.36643191323985,0.4,-4.));
#1583=IFCCARTESIANPOINT((2.36643191323985,0.4,4.));
#1584=IFCCARTESIANPOINT((3.90000000000001,0.4,-4.));
#1585=IFCCARTESIANPOINT((3.90000000000001,0.4,4.));
#1586=IFCCARTESIANPOINT((4.05307337294605,0.369551813004515,-4.));
#1587=IFCCARTESIANPOINT((4.05307337294605,0.369551813004515,4.));
#1588=IFCCARTESIANPOINT((4.18284271247463,0.282842712474619,-4.));
#1589=IFCCARTESIANPOINT((4.18284271247463,0.282842712474619,4.));
#1590=IFCCARTESIANPOINT((4.26955181300453,0.153073372946036,-4.));
#1591=IFCCARTESIANPOINT((4.26955181300453,0.153073372946036,4.));
#1592=IFCCARTESIANPOINT((4.30000000000001,4.09580672512848E-16,-4.));
#1593=IFCCARTESIANPOINT((4.30000000000001,4.09580672512848E-16,4.));
#1594=IFCCARTESIANPOINT((4.26955181300453,-0.153073372946035,-4.));
#1595=IFCCARTESIANPOINT((4.26955181300453,-0.153073372946035,4.));
#1596=IFCCARTESIANPOINT((4.18284271247463,-0.282842712474619,-4.));
#1597=IFCCARTESIANPOINT((4.18284271247463,-0.282842712474619,4.));
#1598=IFCCARTESIANPOINT((4.05307337294605,-0.369551813004514,-4.));
#1599=IFCCARTESIANPOINT((4.05307337294605,-0.369551813004514,4.));
#1600=IFCCARTESIANPOINT((3.90000000000001,-0.399999999999999,-4.));
#1601=IFCCARTESIANPOINT((3.90000000000001,-0.399999999999999,4.));
#1602=IFCCARTESIANPOINT((2.36643191323985,-0.399999999999999,-4.));
#1603=IFCCARTESIANPOINT((2.36643191323985,-0.399999999999999,4.));
#1604=IFCCARTESIANPOINT((2.25014177247108,-0.834782608695652,-4.));
#1605=IFCCARTESIANPOINT((2.25014177247108,-0.834782608695652,4.));
#1606=IFCCARTESIANPOINT((2.23543793189619,-0.861243536511749,-4.));
#1607=IFCCARTESIANPOINT((2.23543793189619,-0.861243536511749,4.));
#1608=IFCCARTESIANPOINT((2.2134898893568,-0.882092206906518,-4.));
#1609=IFCCARTESIANPOINT((2.2134898893568,-0.882092206906518,4.));
#1610=IFCCARTESIANPOINT((2.18630892753907,-0.895418081857297,-4.));
#1611=IFCCARTESIANPOINT((2.18630892753907,-0.895418081857297,4.));
#1612=IFCCARTESIANPOINT((2.15638586528478,-0.899999999999999,-4.));
#1613=IFCCARTESIANPOINT((2.15638586528478,-0.899999999999999,4.));
#1614=IFCCARTESIANPOINT((1.4,-0.9,-4.));
#1615=IFCCARTESIANPOINT((1.4,-0.9,4.));
#1616=IFCCARTESIANPOINT((1.20865828381746,-0.938060233744356,-4.));
#1617=IFCCARTESIANPOINT((1.20865828381746,-0.938060233744356,4.));
#1618=IFCCARTESIANPOINT((1.04644660940673,-1.04644660940673,-4.));
#1619=IFCCARTESIANPOINT((1.04644660940673,-1.04644660940673,4.));
#1620=IFCCARTESIANPOINT((0.93806023374436,-1.20865828381745,-4.));
#1621=IFCCARTESIANPOINT((0.93806023374436,-1.20865828381745,4.));
#1622=IFCCARTESIANPOINT((0.900000000000003,-1.4,-4.));
#1623=IFCCARTESIANPOINT((0.900000000000003,-1.4,4.));
#1624=IFCCARTESIANPOINT((0.900000000000003,-2.15638586528478,-4.));
#1625=IFCCARTESIANPOINT((0.900000000000003,-2.15638586528478,4.));
#1626=IFCCARTESIANPOINT((0.895418081857301,-2.18630892753907,-4.));
#1627=IFCCARTESIANPOINT((0.895418081857301,-2.18630892753907,4.));
#1628=IFCCARTESIANPOINT((0.882092206906521,-2.2134898893568,-4.));
#1629=IFCCARTESIANPOINT((0.882092206906521,-2.2134898893568,4.));
#1630=IFCCARTESIANPOINT((0.861243536511753,-2.23543793189619,-4.));
#1631=IFCCARTESIANPOINT((0.861243536511753,-2.23543793189619,4.));
#1632=IFCCARTESIANPOINT((0.834782608695655,-2.25014177247108,-4.));
#1633=IFCCARTESIANPOINT((0.834782608695655,-2.25014177247108,4.));
#1634=IFCCARTESIANPOINT((4.40872847693047E-16,-2.4,-4.));
#1635=IFCCARTESIANPOINT((4.40872847693047E-16,-2.4,4.));
#1636=IFCCARTESIANPOINT((3.2,-1.39999999999999,-4.));
#1637=IFCCARTESIANPOINT((-3.2,1.40000000000001,-4.));
#1638=IFCCARTESIANPOINT((-1.4,-3.2,-4.));
#1639=IFCCARTESIANPOINT((1.4,-3.2,-4.));
#1640=IFCCARTESIANPOINT((-1.4,3.2,-4.));
#1641=IFCCARTESIANPOINT((-3.2,-1.39999999999999,-4.));
#1642=IFCCARTESIANPOINT((1.4,3.2,-4.));
#1643=IFCCARTESIANPOINT((3.2,1.39999999999999,-4.));
#1644=IFCCARTESIANPOINT((4.8,-1.39999999999999,-4.));
#1645=IFCCARTESIANPOINT((4.8,1.39999999999999,-4.));
#1646=IFCCARTESIANPOINT((5.,6.12323399573677E-16,-4.));
#1647=IFCCARTESIANPOINT((-4.8,1.39999999999999,-4.));
#1648=IFCCARTESIANPOINT((-4.8,-1.39999999999999,-4.));
#1649=IFCCARTESIANPOINT((-5.,-1.22464679914735E-15,-4.));
#1650=IFCCARTESIANPOINT((1.4,-4.8,-4.));
#1651=IFCCARTESIANPOINT((5.35937719786114E-15,-5.,-4.));
#1652=IFCCARTESIANPOINT((-1.4,-4.8,-4.));
#1653=IFCCARTESIANPOINT((-1.4,4.8,-4.));
#1654=IFCCARTESIANPOINT((1.91428434946347E-15,5.,-4.));
#1655=IFCCARTESIANPOINT((1.4,4.8,-4.));
#1656=IFCCARTESIANPOINT((3.2,-1.39999999999999,4.));
#1657=IFCCARTESIANPOINT((1.4,-3.2,4.));
#1658=IFCCARTESIANPOINT((-1.4,-3.2,4.));
#1659=IFCCARTESIANPOINT((-3.2,-1.39999999999999,4.));
#1660=IFCCARTESIANPOINT((-3.2,1.40000000000001,4.));
#1661=IFCCARTESIANPOINT((-1.4,3.2,4.));
#1662=IFCCARTESIANPOINT((1.4,3.2,4.));
#1663=IFCCARTESIANPOINT((3.2,1.39999999999999,4.));
#1664=IFCCARTESIANPOINT((5.,6.12323399573677E-16,-1.9));
#1665=IFCCARTESIANPOINT((4.8,-1.39999999999999,-1.9));
#1666=IFCCARTESIANPOINT((4.8,1.4,-1.9));
#1667=IFCCARTESIANPOINT((5.35937719786114E-15,-5.,-1.9));
#1668=IFCCARTESIANPOINT((-1.4,-4.8,-1.9));
#1669=IFCCARTESIANPOINT((1.4,-4.8,-1.9));
#1670=IFCCARTESIANPOINT((-5.,-1.22464679914735E-15,-1.9));
#1671=IFCCARTESIANPOINT((-4.8,1.39999999999999,-1.9));
#1672=IFCCARTESIANPOINT((-4.8,-1.39999999999999,-1.9));
#1673=IFCCARTESIANPOINT((1.91428434946347E-15,5.,-1.9));
#1674=IFCCARTESIANPOINT((1.4,4.8,-1.9));
#1675=IFCCARTESIANPOINT((-1.4,4.8,-1.9));
#1676=IFCCARTESIANPOINT((-1.4,4.8,1.9));
#1677=IFCCARTESIANPOINT((-1.4,5.21536192416212,1.9));
#1678=IFCCARTESIANPOINT((-1.4,5.21536192416212,-1.9));
#1679=IFCCARTESIANPOINT((-1.4,4.8,4.));
#1680=IFCCARTESIANPOINT((1.91428434946347E-15,5.,1.9));
#1681=IFCCARTESIANPOINT((1.91428434946347E-15,5.,4.));
#1682=IFCCARTESIANPOINT((1.4,4.8,4.));
#1683=IFCCARTESIANPOINT((1.4,4.8,1.9));
#1684=IFCCARTESIANPOINT((-4.42295043292436,3.0979847430054,-1.9));
#1685=IFCCARTESIANPOINT((-4.42295043292436,3.0979847430054,1.9));
#1686=IFCCARTESIANPOINT((-5.21536192416212,1.39999999999999,1.9));
#1687=IFCCARTESIANPOINT((-5.21536192416212,1.39999999999999,-1.9));
#1688=IFCCARTESIANPOINT((-3.09798474300541,4.42295043292435,-1.9));
#1689=IFCCARTESIANPOINT((-3.09798474300541,4.42295043292435,1.9));
#1690=IFCCARTESIANPOINT((-4.8,1.39999999999999,1.9));
#1691=IFCCARTESIANPOINT((-4.8,1.39999999999999,4.));
#1692=IFCCARTESIANPOINT((-5.,-1.22464679914735E-15,1.9));
#1693=IFCCARTESIANPOINT((-5.,-1.22464679914735E-15,4.));
#1694=IFCCARTESIANPOINT((-4.8,-1.39999999999999,1.9));
#1695=IFCCARTESIANPOINT((-4.8,-1.39999999999999,4.));
#1696=IFCCARTESIANPOINT((-5.21536192416212,-1.39999999999999,1.9));
#1697=IFCCARTESIANPOINT((-5.21536192416212,-1.39999999999999,-1.9));
#1698=IFCCARTESIANPOINT((-3.09798474300541,-4.42295043292435,-1.9));
#1699=IFCCARTESIANPOINT((-3.09798474300541,-4.42295043292435,1.9));
#1700=IFCCARTESIANPOINT((-1.4,-5.21536192416212,1.9));
#1701=IFCCARTESIANPOINT((-1.4,-5.21536192416212,-1.9));
#1702=IFCCARTESIANPOINT((-4.42295043292436,-3.0979847430054,-1.9));
#1703=IFCCARTESIANPOINT((-4.42295043292436,-3.0979847430054,1.9));
#1704=IFCCARTESIANPOINT((-1.4,-4.8,1.9));
#1705=IFCCARTESIANPOINT((-1.4,-4.8,4.));
#1706=IFCCARTESIANPOINT((5.35937719786114E-15,-5.,1.9));
#1707=IFCCARTESIANPOINT((5.35937719786114E-15,-5.,4.));
#1708=IFCCARTESIANPOINT((1.39999999999999,-4.8,1.9));
#1709=IFCCARTESIANPOINT((1.4,-4.8,4.));
#1710=IFCCARTESIANPOINT((4.8,-1.39999999999999,4.));
#1711=IFCCARTESIANPOINT((5.,6.12323399573677E-16,4.));
#1712=IFCCARTESIANPOINT((4.8,1.39999999999999,4.));
#1713=IFCCARTESIANPOINT((5.,6.12323399573677E-16,1.9));
#1714=IFCCARTESIANPOINT((4.8,-1.39999999999999,1.9));
#1715=IFCCARTESIANPOINT((4.8,1.4,1.9));
#1716=IFCCARTESIANPOINT((1.39999999999999,-5.21536192416212,1.9));
#1717=IFCCARTESIANPOINT((1.39999999999999,-5.21536192416212,-1.9));
#1718=IFCCARTESIANPOINT((5.21536192416212,-1.39999999999999,-1.9));
#1719=IFCCARTESIANPOINT((5.21536192416212,-1.39999999999999,1.9));
#1720=IFCCARTESIANPOINT((4.42295043292436,-3.0979847430054,-1.9));
#1721=IFCCARTESIANPOINT((4.42295043292436,-3.0979847430054,1.9));
#1722=IFCCARTESIANPOINT((3.09798474300541,-4.42295043292435,-1.9));
#1723=IFCCARTESIANPOINT((3.09798474300541,-4.42295043292435,1.9));
#1724=IFCCARTESIANPOINT((5.21536192416212,1.4,1.9));
#1725=IFCCARTESIANPOINT((5.21536192416212,1.4,-1.9));
#1726=IFCCARTESIANPOINT((1.4,5.21536192416212,-1.9));
#1727=IFCCARTESIANPOINT((1.4,5.21536192416212,1.9));
#1728=IFCCARTESIANPOINT((3.09798474300541,4.42295043292435,-1.9));
#1729=IFCCARTESIANPOINT((3.09798474300541,4.42295043292435,1.9));
#1730=IFCCARTESIANPOINT((4.42295043292436,3.0979847430054,-1.9));
#1731=IFCCARTESIANPOINT((4.42295043292436,3.0979847430054,1.9));
#1732=IFCCARTESIANPOINT((-0.400000000000007,-8.79090439033437,-1.9));
#1733=IFCCARTESIANPOINT((0.799999999999997,-6.75277720645365,-1.9));
#1734=IFCCARTESIANPOINT((6.54489939454334,1.8450723333534,-1.9));
#1735=IFCCARTESIANPOINT((4.20924912957609,5.34061997947457,-1.9));
#1736=IFCCARTESIANPOINT((5.34061997947457,4.20924912957609,-1.9));
#1737=IFCCARTESIANPOINT((5.9326059027592,3.32327958537146,-1.9));
#1738=IFCCARTESIANPOINT((1.8450723333534,6.54489939454334,-1.9));
#1739=IFCCARTESIANPOINT((2.22775576571849,7.46877892705463,-1.9));
#1740=IFCCARTESIANPOINT((2.99458165268197,8.27481001143957,-1.9));
#1741=IFCCARTESIANPOINT((3.73368527869101,7.96866326554749,-1.9));
#1742=IFCCARTESIANPOINT((3.70596301773655,6.85648543527049,-1.9));
#1743=IFCCARTESIANPOINT((3.32327958537146,5.9326059027592,-1.9));
#1744=IFCCARTESIANPOINT((1.8450723333534,-6.54489939454335,-1.9));
#1745=IFCCARTESIANPOINT((4.20924912957609,-5.34061997947457,-1.9));
#1746=IFCCARTESIANPOINT((3.32327958537145,-5.9326059027592,-1.9));
#1747=IFCCARTESIANPOINT((-1.8450723333534,6.54489939454334,-1.9));
#1748=IFCCARTESIANPOINT((-4.20924912957609,5.34061997947456,-1.9));
#1749=IFCCARTESIANPOINT((-3.32327958537146,5.9326059027592,-1.9));
#1750=IFCCARTESIANPOINT((-5.9326059027592,3.32327958537146,-1.9));
#1751=IFCCARTESIANPOINT((-5.34061997947457,4.20924912957609,-1.9));
#1752=IFCCARTESIANPOINT((8.79090439033436,-0.400000000000007,-1.9));
#1753=IFCCARTESIANPOINT((6.75277720645365,0.799999999999998,-1.9));
#1754=IFCCARTESIANPOINT((4.91635591076264,6.04772676066111,-1.9));
#1755=IFCCARTESIANPOINT((5.93326539469339,6.49895081964265,-1.9));
#1756=IFCCARTESIANPOINT((6.49895081964264,5.9332653946934,-1.9));
#1757=IFCCARTESIANPOINT((6.04772676066111,4.91635591076264,-1.9));
#1758=IFCCARTESIANPOINT((0.799999999999997,6.75277720645365,-1.9));
#1759=IFCCARTESIANPOINT((3.70596301773654,-6.85648543527049,-1.9));
#1760=IFCCARTESIANPOINT((3.73368527869102,-7.96866326554749,-1.9));
#1761=IFCCARTESIANPOINT((2.99458165268197,-8.27481001143957,-1.9));
#1762=IFCCARTESIANPOINT((2.22775576571849,-7.46877892705463,-1.9));
#1763=IFCCARTESIANPOINT((5.9326059027592,-3.32327958537146,-1.9));
#1764=IFCCARTESIANPOINT((5.34061997947457,-4.20924912957609,-1.9));
#1765=IFCCARTESIANPOINT((-6.54489939454334,-1.8450723333534,-1.9));
#1766=IFCCARTESIANPOINT((-5.34061997947457,-4.20924912957609,-1.9));
#1767=IFCCARTESIANPOINT((-5.9326059027592,-3.32327958537146,-1.9));
#1768=IFCCARTESIANPOINT((-6.04772676066112,4.91635591076264,-1.9));
#1769=IFCCARTESIANPOINT((-6.49895081964265,5.93326539469339,-1.9));
#1770=IFCCARTESIANPOINT((-5.9332653946934,6.49895081964264,-1.9));
#1771=IFCCARTESIANPOINT((-4.91635591076264,6.04772676066111,-1.9));
#1772=IFCCARTESIANPOINT((-6.75277720645365,0.799999999999997,-1.9));
#1773=IFCCARTESIANPOINT((-6.54489939454334,1.8450723333534,-1.9));
#1774=IFCCARTESIANPOINT((-8.79090439033437,-0.400000000000014,-1.9));
#1775=IFCCARTESIANPOINT((-8.79090439033437,0.400000000000003,-1.9));
#1776=IFCCARTESIANPOINT((-7.75277720645365,0.799999999999997,-1.9));
#1777=IFCCARTESIANPOINT((6.75277720645365,-0.8,-1.9));
#1778=IFCCARTESIANPOINT((6.04772676066111,-4.91635591076264,-1.9));
#1779=IFCCARTESIANPOINT((6.49895081964265,-5.93326539469339,-1.9));
#1780=IFCCARTESIANPOINT((5.9332653946934,-6.49895081964265,-1.9));
#1781=IFCCARTESIANPOINT((4.91635591076264,-6.04772676066111,-1.9));
#1782=IFCCARTESIANPOINT((6.54489939454334,-1.8450723333534,-1.9));
#1783=IFCCARTESIANPOINT((-6.85648543527049,-3.70596301773655,-1.9));
#1784=IFCCARTESIANPOINT((-7.96866326554749,-3.73368527869102,-1.9));
#1785=IFCCARTESIANPOINT((-8.27481001143957,-2.99458165268198,-1.9));
#1786=IFCCARTESIANPOINT((-7.46877892705463,-2.22775576571849,-1.9));
#1787=IFCCARTESIANPOINT((-3.32327958537145,-5.9326059027592,-1.9));
#1788=IFCCARTESIANPOINT((-4.20924912957609,-5.34061997947457,-1.9));
#1789=IFCCARTESIANPOINT((-3.70596301773655,6.85648543527049,-1.9));
#1790=IFCCARTESIANPOINT((-3.73368527869102,7.96866326554749,-1.9));
#1791=IFCCARTESIANPOINT((-2.99458165268198,8.27481001143957,-1.9));
#1792=IFCCARTESIANPOINT((-2.22775576571849,7.46877892705463,-1.9));
#1793=IFCCARTESIANPOINT((-0.800000000000001,6.75277720645365,-1.9));
#1794=IFCCARTESIANPOINT((6.85648543527049,3.70596301773655,-1.9));
#1795=IFCCARTESIANPOINT((7.96866326554749,3.73368527869102,-1.9));
#1796=IFCCARTESIANPOINT((8.27481001143957,2.99458165268197,-1.9));
#1797=IFCCARTESIANPOINT((7.46877892705463,2.22775576571849,-1.9));
#1798=IFCCARTESIANPOINT((-0.400000000000014,8.79090439033437,-1.9));
#1799=IFCCARTESIANPOINT((0.400000000000004,8.79090439033437,-1.9));
#1800=IFCCARTESIANPOINT((0.799999999999997,7.75277720645365,-1.9));
#1801=IFCCARTESIANPOINT((7.75277720645365,-0.8,-1.9));
#1802=IFCCARTESIANPOINT((7.46877892705463,-2.22775576571849,-1.9));
#1803=IFCCARTESIANPOINT((8.27481001143957,-2.99458165268197,-1.9));
#1804=IFCCARTESIANPOINT((7.96866326554749,-3.73368527869102,-1.9));
#1805=IFCCARTESIANPOINT((6.85648543527049,-3.70596301773655,-1.9));
#1806=IFCCARTESIANPOINT((-4.91635591076264,-6.04772676066112,-1.9));
#1807=IFCCARTESIANPOINT((-5.93326539469339,-6.49895081964265,-1.9));
#1808=IFCCARTESIANPOINT((-6.49895081964264,-5.9332653946934,-1.9));
#1809=IFCCARTESIANPOINT((-6.04772676066111,-4.91635591076264,-1.9));
#1810=IFCCARTESIANPOINT((-0.800000000000001,-6.75277720645365,-1.9));
#1811=IFCCARTESIANPOINT((-1.8450723333534,-6.54489939454335,-1.9));
#1812=IFCCARTESIANPOINT((-6.75277720645365,-0.8,-1.9));
#1813=IFCCARTESIANPOINT((-7.46877892705463,2.22775576571849,-1.9));
#1814=IFCCARTESIANPOINT((-8.27481001143957,2.99458165268197,-1.9));
#1815=IFCCARTESIANPOINT((-7.96866326554749,3.73368527869101,-1.9));
#1816=IFCCARTESIANPOINT((-6.85648543527049,3.70596301773655,-1.9));
#1817=IFCCARTESIANPOINT((0.799999999999997,-7.75277720645365,-1.9));
#1818=IFCCARTESIANPOINT((0.40000000000001,-8.79090439033437,-1.9));
#1819=IFCCARTESIANPOINT((-2.22775576571849,-7.46877892705463,-1.9));
#1820=IFCCARTESIANPOINT((-2.99458165268196,-8.27481001143957,-1.9));
#1821=IFCCARTESIANPOINT((-3.73368527869101,-7.96866326554749,-1.9));
#1822=IFCCARTESIANPOINT((-3.70596301773654,-6.85648543527049,-1.9));
#1823=IFCCARTESIANPOINT((-0.800000000000001,7.75277720645365,-1.9));
#1824=IFCCARTESIANPOINT((-0.800000000000001,-7.75277720645365,-1.9));
#1825=IFCCARTESIANPOINT((-7.75277720645366,-0.8,-1.9));
#1826=IFCCARTESIANPOINT((7.75277720645365,0.799999999999998,-1.9));
#1827=IFCCARTESIANPOINT((8.79090439033436,0.400000000000011,-1.9));
#1828=IFCCARTESIANPOINT((0.40000000000001,-8.79090439033437,1.9));
#1829=IFCCARTESIANPOINT((-0.800000000000001,-6.75277720645365,1.9));
#1830=IFCCARTESIANPOINT((4.20924912957609,-5.34061997947457,1.9));
#1831=IFCCARTESIANPOINT((4.91635591076264,-6.04772676066111,1.9));
#1832=IFCCARTESIANPOINT((5.9332653946934,-6.49895081964265,1.9));
#1833=IFCCARTESIANPOINT((6.49895081964265,-5.93326539469339,1.9));
#1834=IFCCARTESIANPOINT((6.04772676066111,-4.91635591076264,1.9));
#1835=IFCCARTESIANPOINT((5.34061997947456,-4.20924912957609,1.9));
#1836=IFCCARTESIANPOINT((1.8450723333534,-6.54489939454335,1.9));
#1837=IFCCARTESIANPOINT((2.22775576571849,-7.46877892705463,1.9));
#1838=IFCCARTESIANPOINT((2.99458165268197,-8.27481001143957,1.9));
#1839=IFCCARTESIANPOINT((3.73368527869102,-7.96866326554749,1.9));
#1840=IFCCARTESIANPOINT((3.70596301773654,-6.85648543527049,1.9));
#1841=IFCCARTESIANPOINT((3.32327958537145,-5.9326059027592,1.9));
#1842=IFCCARTESIANPOINT((-0.400000000000014,8.79090439033437,1.9));
#1843=IFCCARTESIANPOINT((0.799999999999997,6.75277720645365,1.9));
#1844=IFCCARTESIANPOINT((-8.79090439033437,-0.400000000000014,1.9));
#1845=IFCCARTESIANPOINT((-6.75277720645365,0.799999999999997,1.9));
#1846=IFCCARTESIANPOINT((-3.32327958537145,-5.9326059027592,1.9));
#1847=IFCCARTESIANPOINT((-1.8450723333534,-6.54489939454334,1.9));
#1848=IFCCARTESIANPOINT((3.32327958537146,5.9326059027592,1.9));
#1849=IFCCARTESIANPOINT((1.8450723333534,6.54489939454334,1.9));
#1850=IFCCARTESIANPOINT((6.54489939454334,1.8450723333534,1.9));
#1851=IFCCARTESIANPOINT((7.46877892705463,2.22775576571849,1.9));
#1852=IFCCARTESIANPOINT((8.27481001143957,2.99458165268197,1.9));
#1853=IFCCARTESIANPOINT((7.96866326554749,3.73368527869102,1.9));
#1854=IFCCARTESIANPOINT((6.85648543527049,3.70596301773655,1.9));
#1855=IFCCARTESIANPOINT((5.9326059027592,3.32327958537146,1.9));
#1856=IFCCARTESIANPOINT((8.79090439033436,-0.400000000000007,1.9));
#1857=IFCCARTESIANPOINT((8.79090439033436,0.400000000000011,1.9));
#1858=IFCCARTESIANPOINT((7.75277720645365,0.799999999999998,1.9));
#1859=IFCCARTESIANPOINT((6.75277720645365,0.799999999999998,1.9));
#1860=IFCCARTESIANPOINT((-6.54489939454335,1.8450723333534,1.9));
#1861=IFCCARTESIANPOINT((-5.34061997947457,4.20924912957609,1.9));
#1862=IFCCARTESIANPOINT((-5.9326059027592,3.32327958537146,1.9));
#1863=IFCCARTESIANPOINT((-3.32327958537146,5.9326059027592,1.9));
#1864=IFCCARTESIANPOINT((-4.20924912957609,5.34061997947456,1.9));
#1865=IFCCARTESIANPOINT((-0.800000000000001,6.75277720645365,1.9));
#1866=IFCCARTESIANPOINT((-1.8450723333534,6.54489939454334,1.9));
#1867=IFCCARTESIANPOINT((-3.70596301773654,-6.85648543527049,1.9));
#1868=IFCCARTESIANPOINT((-3.73368527869101,-7.96866326554749,1.9));
#1869=IFCCARTESIANPOINT((-2.99458165268196,-8.27481001143957,1.9));
#1870=IFCCARTESIANPOINT((-2.22775576571849,-7.46877892705463,1.9));
#1871=IFCCARTESIANPOINT((-4.20924912957609,-5.34061997947457,1.9));
#1872=IFCCARTESIANPOINT((-5.9326059027592,-3.32327958537146,1.9));
#1873=IFCCARTESIANPOINT((-5.34061997947457,-4.20924912957609,1.9));
#1874=IFCCARTESIANPOINT((-6.75277720645365,-0.8,1.9));
#1875=IFCCARTESIANPOINT((-6.54489939454334,-1.8450723333534,1.9));
#1876=IFCCARTESIANPOINT((5.9326059027592,-3.32327958537146,1.9));
#1877=IFCCARTESIANPOINT((6.85648543527049,-3.70596301773655,1.9));
#1878=IFCCARTESIANPOINT((7.96866326554749,-3.73368527869102,1.9));
#1879=IFCCARTESIANPOINT((8.27481001143957,-2.99458165268197,1.9));
#1880=IFCCARTESIANPOINT((7.46877892705463,-2.22775576571849,1.9));
#1881=IFCCARTESIANPOINT((6.54489939454334,-1.8450723333534,1.9));
#1882=IFCCARTESIANPOINT((0.799999999999997,-6.75277720645365,1.9));
#1883=IFCCARTESIANPOINT((6.75277720645365,-0.8,1.9));
#1884=IFCCARTESIANPOINT((3.70596301773655,6.85648543527049,1.9));
#1885=IFCCARTESIANPOINT((3.73368527869101,7.96866326554749,1.9));
#1886=IFCCARTESIANPOINT((2.99458165268197,8.27481001143957,1.9));
#1887=IFCCARTESIANPOINT((2.22775576571849,7.46877892705463,1.9));
#1888=IFCCARTESIANPOINT((4.20924912957609,5.34061997947457,1.9));
#1889=IFCCARTESIANPOINT((5.34061997947457,4.20924912957609,1.9));
#1890=IFCCARTESIANPOINT((-6.85648543527049,3.70596301773655,1.9));
#1891=IFCCARTESIANPOINT((-7.96866326554749,3.73368527869101,1.9));
#1892=IFCCARTESIANPOINT((-8.27481001143957,2.99458165268197,1.9));
#1893=IFCCARTESIANPOINT((-7.46877892705463,2.22775576571849,1.9));
#1894=IFCCARTESIANPOINT((-2.22775576571849,7.46877892705463,1.9));
#1895=IFCCARTESIANPOINT((-2.99458165268198,8.27481001143957,1.9));
#1896=IFCCARTESIANPOINT((-3.73368527869102,7.96866326554749,1.9));
#1897=IFCCARTESIANPOINT((-3.70596301773655,6.85648543527049,1.9));
#1898=IFCCARTESIANPOINT((-7.46877892705463,-2.22775576571849,1.9));
#1899=IFCCARTESIANPOINT((-8.27481001143957,-2.99458165268198,1.9));
#1900=IFCCARTESIANPOINT((-7.96866326554749,-3.73368527869102,1.9));
#1901=IFCCARTESIANPOINT((-6.85648543527049,-3.70596301773655,1.9));
#1902=IFCCARTESIANPOINT((-0.800000000000001,7.75277720645365,1.9));
#1903=IFCCARTESIANPOINT((-4.91635591076264,6.04772676066111,1.9));
#1904=IFCCARTESIANPOINT((-5.9332653946934,6.49895081964264,1.9));
#1905=IFCCARTESIANPOINT((-6.49895081964265,5.93326539469339,1.9));
#1906=IFCCARTESIANPOINT((-6.04772676066112,4.91635591076264,1.9));
#1907=IFCCARTESIANPOINT((-7.75277720645366,-0.8,1.9));
#1908=IFCCARTESIANPOINT((-6.04772676066111,-4.91635591076264,1.9));
#1909=IFCCARTESIANPOINT((-6.49895081964264,-5.9332653946934,1.9));
#1910=IFCCARTESIANPOINT((-5.93326539469339,-6.49895081964265,1.9));
#1911=IFCCARTESIANPOINT((-4.91635591076264,-6.04772676066112,1.9));
#1912=IFCCARTESIANPOINT((0.799999999999997,-7.75277720645365,1.9));
#1913=IFCCARTESIANPOINT((7.75277720645365,-0.8,1.9));
#1914=IFCCARTESIANPOINT((6.04772676066111,4.91635591076264,1.9));
#1915=IFCCARTESIANPOINT((6.49895081964264,5.9332653946934,1.9));
#1916=IFCCARTESIANPOINT((5.93326539469339,6.49895081964265,1.9));
#1917=IFCCARTESIANPOINT((4.91635591076264,6.04772676066111,1.9));
#1918=IFCCARTESIANPOINT((-7.75277720645365,0.799999999999997,1.9));
#1919=IFCCARTESIANPOINT((-8.79090439033437,0.400000000000003,1.9));
#1920=IFCCARTESIANPOINT((-0.800000000000001,-7.75277720645365,1.9));
#1921=IFCCARTESIANPOINT((-0.400000000000007,-8.79090439033437,1.9));
#1922=IFCCARTESIANPOINT((0.799999999999997,7.75277720645365,1.9));
#1923=IFCCARTESIANPOINT((0.400000000000004,8.79090439033437,1.9));
#1924=IFCCARTESIANPOINT((0.,0.,0.));
#1925=IFCCARTESIANPOINT((0.,0.,0.));
#1926=IFCGEOMETRICREPRESENTATIONCONTEXT($,'Model',3,0.005,#1461,$);
#1927=IFCSIUNIT(*,.LENGTHUNIT.,.MILLI.,.METRE.);
#1928=IFCSIUNIT(*,.AREAUNIT.,$,.SQUARE_METRE.);
#1929=IFCSIUNIT(*,.VOLUMEUNIT.,$,.CUBIC_METRE.);
#1930=IFCSIUNIT(*,.PLANEANGLEUNIT.,$,.RADIAN.);
#1931=IFCOWNERHISTORY(#1933,#1932,$,.NOCHANGE.,0,$,$,0);
#1932=IFCAPPLICATION(#1934,' ',' ',' ');
#1933=IFCPERSONANDORGANIZATION(#1935,#1934,$);
#1934=IFCORGANIZATION($,' ',$,$,$);
#1935=IFCPERSON(' ',' ',' ',$,$,$,$,$);
ENDSEC;
END-ISO-10303-21;
