ISO-10303-21;
HEADER;
/* Generated by software containing ST-Developer
 * from STEP Tools, Inc. (www.steptools.com) 
 */
/* OPTION: strings as raw bytes, not using required /X/ escapes */

FILE_DESCRIPTION(
/* description */ ('Unknown'),
/* implementation_level */ '2;1');

FILE_NAME(
/* name */ 'ClGray_4268659_MCM',
/* time_stamp */ '2025-07-21T23:55:00+02:00',
/* author */ ('Unknown'),
/* organization */ ('Unknown'),
/* preprocessor_version */ 'ST-DEVELOPER v19.4',
/* originating_system */ 'Unknown',
/* authorisation */ 'OpenTools');

FILE_SCHEMA (('IFC2X3'));
ENDSEC;

DATA;
#10=IFCPROPERTYSINGLEVALUE('ProjectName',$,IFCTEXT(''),$);
#11=IFCPROPERTYSINGLEVALUE('PartNumber',$,IFCTEXT(''),$);
#12=IFCRELDEFINESBYPROPERTIES('3cRq1JQpSwDOm5lsE5cG83',#1757,$,$,(#14),
#13);
#13=IFCPROPERTYSET('1jOd4kXgWorA4TVRi95rqH',#1757,
'empty property set name',$,(#10,#11));
#14=IFCBUILDINGELEMENTPROXY('2GP_XOK7Wq1Pa1NGQTVWHM',#1757,
'ClGray_4268659_MCM',' ','ClGray_4268659_MCM',#19,#15,' ',.ELEMENT.);
#15=IFCPRODUCTDEFINITIONSHAPE(' ',' ',(#25));
#16=IFCRELCONTAINEDINSPATIALSTRUCTURE('3HZhfx2I0vj9Cvp1GHER_f',#1757,
' ',' ',(#14),#20);
#17=IFCRELAGGREGATES('1jF0XzMGqvEA6wZwPLSawz',#1757,$,$,#1359,(#20));
#18=IFCLOCALPLACEMENT($,#1362);
#19=IFCLOCALPLACEMENT(#18,#1363);
#20=IFCBUILDING('3G2N19bOG__grq1LV0cQPU',#1757,'Default Building',$,$,#18,
$,$,.ELEMENT.,0.,0.,$);
#21=IFCCARTESIANTRANSFORMATIONOPERATOR3D($,$,#1750,1.,$);
#22=IFCMAPPEDITEM(#23,#21);
#23=IFCREPRESENTATIONMAP(#1362,#24);
#24=IFCSHAPEREPRESENTATION(#1361,'Body','Brep',(#1358));
#25=IFCSHAPEREPRESENTATION(#1361,'Body','MappedRepresentation',(#22));
#26=IFCPOLYLOOP((#1369,#1370,#1371,#1372,#1373,#1374,#1375,#1376,#1377,
#1378,#1379,#1380,#1381,#1382,#1383,#1384));
#27=IFCPOLYLOOP((#1376,#1385,#1386));
#28=IFCPOLYLOOP((#1386,#1377,#1376));
#29=IFCPOLYLOOP((#1384,#1383,#1387));
#30=IFCPOLYLOOP((#1383,#1388,#1387));
#31=IFCPOLYLOOP((#1370,#1389,#1390));
#32=IFCPOLYLOOP((#1390,#1371,#1370));
#33=IFCPOLYLOOP((#1374,#1373,#1391));
#34=IFCPOLYLOOP((#1373,#1392,#1391));
#35=IFCPOLYLOOP((#1375,#1393,#1385,#1376));
#36=IFCPOLYLOOP((#1374,#1394,#1393,#1375));
#37=IFCPOLYLOOP((#1391,#1394,#1374));
#38=IFCPOLYLOOP((#1372,#1395,#1392,#1373));
#39=IFCPOLYLOOP((#1371,#1396,#1395,#1372));
#40=IFCPOLYLOOP((#1390,#1396,#1371));
#41=IFCPOLYLOOP((#1369,#1397,#1389,#1370));
#42=IFCPOLYLOOP((#1384,#1398,#1397,#1369));
#43=IFCPOLYLOOP((#1387,#1398,#1384));
#44=IFCPOLYLOOP((#1382,#1399,#1388,#1383));
#45=IFCPOLYLOOP((#1381,#1400,#1399,#1382));
#46=IFCPOLYLOOP((#1380,#1401,#1400,#1381));
#47=IFCPOLYLOOP((#1379,#1402,#1401,#1380));
#48=IFCPOLYLOOP((#1378,#1403,#1402,#1379));
#49=IFCPOLYLOOP((#1377,#1404,#1403,#1378));
#50=IFCPOLYLOOP((#1386,#1404,#1377));
#51=IFCPOLYLOOP((#1405,#1406,#1400));
#52=IFCPOLYLOOP((#1407,#1387,#1388));
#53=IFCPOLYLOOP((#1388,#1406,#1407));
#54=IFCPOLYLOOP((#1388,#1399,#1406));
#55=IFCPOLYLOOP((#1399,#1400,#1406));
#56=IFCPOLYLOOP((#1408,#1409,#1404));
#57=IFCPOLYLOOP((#1409,#1403,#1404));
#58=IFCPOLYLOOP((#1409,#1402,#1403));
#59=IFCPOLYLOOP((#1405,#1401,#1402));
#60=IFCPOLYLOOP((#1402,#1409,#1405));
#61=IFCPOLYLOOP((#1410,#1393,#1394));
#62=IFCPOLYLOOP((#1410,#1408,#1385));
#63=IFCPOLYLOOP((#1408,#1386,#1385));
#64=IFCPOLYLOOP((#1385,#1393,#1410));
#65=IFCPOLYLOOP((#1411,#1412,#1392));
#66=IFCPOLYLOOP((#1412,#1410,#1391));
#67=IFCPOLYLOOP((#1391,#1392,#1412));
#68=IFCPOLYLOOP((#1413,#1396,#1390));
#69=IFCPOLYLOOP((#1411,#1395,#1396));
#70=IFCPOLYLOOP((#1396,#1413,#1411));
#71=IFCPOLYLOOP((#1414,#1397,#1398));
#72=IFCPOLYLOOP((#1398,#1407,#1414));
#73=IFCPOLYLOOP((#1414,#1390,#1389));
#74=IFCPOLYLOOP((#1389,#1397,#1414));
#75=IFCPOLYLOOP((#1415,#1416,#1417));
#76=IFCPOLYLOOP((#1418,#1419,#1420));
#77=IFCPOLYLOOP((#1420,#1416,#1418));
#78=IFCPOLYLOOP((#1420,#1421,#1416));
#79=IFCPOLYLOOP((#1421,#1417,#1416));
#80=IFCPOLYLOOP((#1422,#1423,#1424));
#81=IFCPOLYLOOP((#1423,#1425,#1424));
#82=IFCPOLYLOOP((#1423,#1426,#1425));
#83=IFCPOLYLOOP((#1415,#1427,#1426));
#84=IFCPOLYLOOP((#1426,#1423,#1415));
#85=IFCPOLYLOOP((#1428,#1429,#1430));
#86=IFCPOLYLOOP((#1428,#1422,#1431));
#87=IFCPOLYLOOP((#1422,#1432,#1431));
#88=IFCPOLYLOOP((#1431,#1429,#1428));
#89=IFCPOLYLOOP((#1433,#1434,#1435));
#90=IFCPOLYLOOP((#1434,#1428,#1436));
#91=IFCPOLYLOOP((#1436,#1435,#1434));
#92=IFCPOLYLOOP((#1437,#1438,#1439));
#93=IFCPOLYLOOP((#1433,#1440,#1438));
#94=IFCPOLYLOOP((#1438,#1437,#1433));
#95=IFCPOLYLOOP((#1441,#1442,#1443));
#96=IFCPOLYLOOP((#1443,#1418,#1441));
#97=IFCPOLYLOOP((#1441,#1439,#1444));
#98=IFCPOLYLOOP((#1444,#1442,#1441));
#99=IFCPOLYLOOP((#1443,#1419,#1418));
#100=IFCPOLYLOOP((#1439,#1441,#1437));
#101=IFCPOLYLOOP((#1435,#1440,#1433));
#102=IFCPOLYLOOP((#1430,#1436,#1428));
#103=IFCPOLYLOOP((#1424,#1432,#1422));
#104=IFCPOLYLOOP((#1417,#1427,#1415));
#105=IFCPOLYLOOP((#1398,#1387,#1407));
#106=IFCPOLYLOOP((#1390,#1414,#1413));
#107=IFCPOLYLOOP((#1392,#1395,#1411));
#108=IFCPOLYLOOP((#1394,#1391,#1410));
#109=IFCPOLYLOOP((#1404,#1386,#1408));
#110=IFCPOLYLOOP((#1400,#1401,#1405));
#111=IFCPOLYLOOP((#1445,#1446,#1447));
#112=IFCPOLYLOOP((#1445,#1448,#1446));
#113=IFCPOLYLOOP((#1445,#1449,#1448));
#114=IFCPOLYLOOP((#1445,#1450,#1449));
#115=IFCPOLYLOOP((#1445,#1451,#1450));
#116=IFCPOLYLOOP((#1445,#1452,#1451));
#117=IFCPOLYLOOP((#1445,#1453,#1452));
#118=IFCPOLYLOOP((#1445,#1454,#1453));
#119=IFCPOLYLOOP((#1445,#1455,#1454));
#120=IFCPOLYLOOP((#1445,#1456,#1455));
#121=IFCPOLYLOOP((#1445,#1457,#1456));
#122=IFCPOLYLOOP((#1445,#1458,#1457));
#123=IFCPOLYLOOP((#1445,#1459,#1458));
#124=IFCPOLYLOOP((#1445,#1460,#1459));
#125=IFCPOLYLOOP((#1445,#1461,#1460));
#126=IFCPOLYLOOP((#1445,#1447,#1461));
#127=IFCPOLYLOOP((#1447,#1446,#1462,#1463));
#128=IFCPOLYLOOP((#1446,#1448,#1464,#1462));
#129=IFCPOLYLOOP((#1448,#1449,#1465,#1464));
#130=IFCPOLYLOOP((#1449,#1450,#1466,#1465));
#131=IFCPOLYLOOP((#1450,#1451,#1467,#1466));
#132=IFCPOLYLOOP((#1451,#1452,#1468,#1467));
#133=IFCPOLYLOOP((#1452,#1453,#1469,#1468));
#134=IFCPOLYLOOP((#1453,#1454,#1470,#1469));
#135=IFCPOLYLOOP((#1454,#1455,#1471,#1470));
#136=IFCPOLYLOOP((#1455,#1456,#1472,#1471));
#137=IFCPOLYLOOP((#1456,#1457,#1473,#1472));
#138=IFCPOLYLOOP((#1457,#1458,#1474,#1473));
#139=IFCPOLYLOOP((#1458,#1459,#1475,#1474));
#140=IFCPOLYLOOP((#1459,#1460,#1476,#1475));
#141=IFCPOLYLOOP((#1460,#1461,#1477,#1476));
#142=IFCPOLYLOOP((#1461,#1447,#1463,#1477));
#143=IFCPOLYLOOP((#1463,#1462,#1478,#1479));
#144=IFCPOLYLOOP((#1462,#1464,#1480,#1478));
#145=IFCPOLYLOOP((#1464,#1465,#1423,#1480));
#146=IFCPOLYLOOP((#1465,#1466,#1415,#1423));
#147=IFCPOLYLOOP((#1466,#1467,#1416,#1415));
#148=IFCPOLYLOOP((#1467,#1468,#1481,#1416));
#149=IFCPOLYLOOP((#1468,#1469,#1482,#1481));
#150=IFCPOLYLOOP((#1469,#1470,#1483,#1482));
#151=IFCPOLYLOOP((#1470,#1471,#1484,#1483));
#152=IFCPOLYLOOP((#1471,#1472,#1485,#1484));
#153=IFCPOLYLOOP((#1472,#1473,#1409,#1485));
#154=IFCPOLYLOOP((#1473,#1474,#1405,#1409));
#155=IFCPOLYLOOP((#1474,#1475,#1406,#1405));
#156=IFCPOLYLOOP((#1475,#1476,#1486,#1406));
#157=IFCPOLYLOOP((#1476,#1477,#1487,#1486));
#158=IFCPOLYLOOP((#1477,#1463,#1479,#1487));
#159=IFCPOLYLOOP((#1479,#1478,#1488,#1489));
#160=IFCPOLYLOOP((#1478,#1480,#1490,#1488));
#161=IFCPOLYLOOP((#1480,#1423,#1422,#1490));
#162=IFCPOLYLOOP((#1416,#1481,#1491,#1418));
#163=IFCPOLYLOOP((#1481,#1482,#1492,#1491));
#164=IFCPOLYLOOP((#1482,#1483,#1493,#1492));
#165=IFCPOLYLOOP((#1483,#1484,#1494,#1493));
#166=IFCPOLYLOOP((#1484,#1485,#1495,#1494));
#167=IFCPOLYLOOP((#1485,#1409,#1408,#1495));
#168=IFCPOLYLOOP((#1406,#1486,#1496,#1407));
#169=IFCPOLYLOOP((#1486,#1487,#1497,#1496));
#170=IFCPOLYLOOP((#1487,#1479,#1489,#1497));
#171=IFCPOLYLOOP((#1489,#1488,#1498,#1499));
#172=IFCPOLYLOOP((#1488,#1490,#1500,#1498));
#173=IFCPOLYLOOP((#1490,#1422,#1428,#1500));
#174=IFCPOLYLOOP((#1418,#1491,#1501,#1441));
#175=IFCPOLYLOOP((#1491,#1492,#1502,#1501));
#176=IFCPOLYLOOP((#1492,#1493,#1503,#1502));
#177=IFCPOLYLOOP((#1493,#1494,#1504,#1503));
#178=IFCPOLYLOOP((#1494,#1495,#1505,#1504));
#179=IFCPOLYLOOP((#1495,#1408,#1410,#1505));
#180=IFCPOLYLOOP((#1407,#1496,#1506,#1414));
#181=IFCPOLYLOOP((#1496,#1497,#1507,#1506));
#182=IFCPOLYLOOP((#1497,#1489,#1499,#1507));
#183=IFCPOLYLOOP((#1499,#1498,#1508,#1509));
#184=IFCPOLYLOOP((#1498,#1500,#1510,#1508));
#185=IFCPOLYLOOP((#1500,#1428,#1434,#1510));
#186=IFCPOLYLOOP((#1441,#1501,#1511,#1437));
#187=IFCPOLYLOOP((#1501,#1502,#1512,#1511));
#188=IFCPOLYLOOP((#1502,#1503,#1513,#1512));
#189=IFCPOLYLOOP((#1503,#1504,#1514,#1513));
#190=IFCPOLYLOOP((#1504,#1505,#1515,#1514));
#191=IFCPOLYLOOP((#1505,#1410,#1412,#1515));
#192=IFCPOLYLOOP((#1414,#1506,#1516,#1413));
#193=IFCPOLYLOOP((#1506,#1507,#1517,#1516));
#194=IFCPOLYLOOP((#1507,#1499,#1509,#1517));
#195=IFCPOLYLOOP((#1509,#1508,#1518,#1519));
#196=IFCPOLYLOOP((#1508,#1510,#1520,#1518));
#197=IFCPOLYLOOP((#1510,#1434,#1521,#1520));
#198=IFCPOLYLOOP((#1434,#1433,#1522,#1521));
#199=IFCPOLYLOOP((#1433,#1437,#1523,#1522));
#200=IFCPOLYLOOP((#1437,#1511,#1524,#1523));
#201=IFCPOLYLOOP((#1511,#1512,#1525,#1524));
#202=IFCPOLYLOOP((#1512,#1513,#1526,#1525));
#203=IFCPOLYLOOP((#1513,#1514,#1527,#1526));
#204=IFCPOLYLOOP((#1514,#1515,#1528,#1527));
#205=IFCPOLYLOOP((#1515,#1412,#1529,#1528));
#206=IFCPOLYLOOP((#1412,#1411,#1530,#1529));
#207=IFCPOLYLOOP((#1411,#1413,#1531,#1530));
#208=IFCPOLYLOOP((#1413,#1516,#1532,#1531));
#209=IFCPOLYLOOP((#1516,#1517,#1533,#1532));
#210=IFCPOLYLOOP((#1517,#1509,#1519,#1533));
#211=IFCPOLYLOOP((#1534,#1535,#1419));
#212=IFCPOLYLOOP((#1535,#1420,#1419));
#213=IFCPOLYLOOP((#1536,#1431,#1432));
#214=IFCPOLYLOOP((#1432,#1537,#1536));
#215=IFCPOLYLOOP((#1538,#1539,#1436));
#216=IFCPOLYLOOP((#1539,#1435,#1436));
#217=IFCPOLYLOOP((#1540,#1444,#1439));
#218=IFCPOLYLOOP((#1439,#1541,#1540));
#219=IFCPOLYLOOP((#1442,#1542,#1534,#1443));
#220=IFCPOLYLOOP((#1444,#1540,#1542,#1442));
#221=IFCPOLYLOOP((#1439,#1438,#1541));
#222=IFCPOLYLOOP((#1440,#1543,#1541,#1438));
#223=IFCPOLYLOOP((#1435,#1539,#1543,#1440));
#224=IFCPOLYLOOP((#1436,#1430,#1538));
#225=IFCPOLYLOOP((#1429,#1544,#1538,#1430));
#226=IFCPOLYLOOP((#1431,#1536,#1544,#1429));
#227=IFCPOLYLOOP((#1432,#1424,#1537));
#228=IFCPOLYLOOP((#1425,#1545,#1537,#1424));
#229=IFCPOLYLOOP((#1426,#1546,#1545,#1425));
#230=IFCPOLYLOOP((#1427,#1547,#1546,#1426));
#231=IFCPOLYLOOP((#1417,#1548,#1547,#1427));
#232=IFCPOLYLOOP((#1421,#1549,#1548,#1417));
#233=IFCPOLYLOOP((#1420,#1535,#1549,#1421));
#234=IFCPOLYLOOP((#1419,#1443,#1534));
#235=IFCPOLYLOOP((#1537,#1545,#1546,#1547,#1548,#1549,#1535,#1534,#1542,
#1540,#1541,#1543,#1539,#1538,#1544,#1536));
#236=IFCPOLYLOOP((#1530,#1550,#1551));
#237=IFCPOLYLOOP((#1551,#1529,#1530));
#238=IFCPOLYLOOP((#1526,#1527,#1552));
#239=IFCPOLYLOOP((#1527,#1553,#1554,#1552));
#240=IFCPOLYLOOP((#1526,#1555,#1556));
#241=IFCPOLYLOOP((#1556,#1525,#1526));
#242=IFCPOLYLOOP((#1522,#1523,#1557));
#243=IFCPOLYLOOP((#1523,#1558,#1559,#1557));
#244=IFCPOLYLOOP((#1522,#1560,#1561));
#245=IFCPOLYLOOP((#1561,#1521,#1522));
#246=IFCPOLYLOOP((#1519,#1518,#1562));
#247=IFCPOLYLOOP((#1518,#1563,#1564,#1562));
#248=IFCPOLYLOOP((#1519,#1565,#1566));
#249=IFCPOLYLOOP((#1566,#1533,#1519));
#250=IFCPOLYLOOP((#1530,#1531,#1567));
#251=IFCPOLYLOOP((#1531,#1568,#1569,#1567));
#252=IFCPOLYLOOP((#1567,#1550,#1530));
#253=IFCPOLYLOOP((#1566,#1570,#1571,#1533));
#254=IFCPOLYLOOP((#1562,#1565,#1519));
#255=IFCPOLYLOOP((#1561,#1572,#1573,#1521));
#256=IFCPOLYLOOP((#1557,#1560,#1522));
#257=IFCPOLYLOOP((#1556,#1574,#1575,#1525));
#258=IFCPOLYLOOP((#1552,#1555,#1526));
#259=IFCPOLYLOOP((#1551,#1576,#1577,#1529));
#260=IFCPOLYLOOP((#1578,#1520,#1521,#1573));
#261=IFCPOLYLOOP((#1563,#1518,#1520,#1578));
#262=IFCPOLYLOOP((#1579,#1532,#1533,#1571));
#263=IFCPOLYLOOP((#1568,#1531,#1532,#1579));
#264=IFCPOLYLOOP((#1580,#1528,#1529,#1577));
#265=IFCPOLYLOOP((#1553,#1527,#1528,#1580));
#266=IFCPOLYLOOP((#1581,#1524,#1525,#1575));
#267=IFCPOLYLOOP((#1558,#1523,#1524,#1581));
#268=IFCPOLYLOOP((#1552,#1554,#1582));
#269=IFCPOLYLOOP((#1583,#1574,#1556));
#270=IFCPOLYLOOP((#1584,#1576,#1551));
#271=IFCPOLYLOOP((#1567,#1569,#1585));
#272=IFCPOLYLOOP((#1562,#1564,#1586));
#273=IFCPOLYLOOP((#1587,#1570,#1566));
#274=IFCPOLYLOOP((#1588,#1572,#1561));
#275=IFCPOLYLOOP((#1557,#1559,#1589));
#276=IFCPOLYLOOP((#1588,#1561,#1560));
#277=IFCPOLYLOOP((#1589,#1590,#1560));
#278=IFCPOLYLOOP((#1560,#1557,#1589));
#279=IFCPOLYLOOP((#1560,#1590,#1588));
#280=IFCPOLYLOOP((#1587,#1566,#1565));
#281=IFCPOLYLOOP((#1586,#1591,#1565));
#282=IFCPOLYLOOP((#1565,#1562,#1586));
#283=IFCPOLYLOOP((#1565,#1591,#1587));
#284=IFCPOLYLOOP((#1585,#1592,#1550));
#285=IFCPOLYLOOP((#1584,#1551,#1550));
#286=IFCPOLYLOOP((#1550,#1592,#1584));
#287=IFCPOLYLOOP((#1550,#1567,#1585));
#288=IFCPOLYLOOP((#1583,#1556,#1555));
#289=IFCPOLYLOOP((#1582,#1593,#1555));
#290=IFCPOLYLOOP((#1555,#1552,#1582));
#291=IFCPOLYLOOP((#1555,#1593,#1583));
#292=IFCPOLYLOOP((#1594,#1595,#1579,#1571));
#293=IFCPOLYLOOP((#1596,#1585,#1569,#1568));
#294=IFCPOLYLOOP((#1568,#1579,#1595,#1596));
#295=IFCPOLYLOOP((#1571,#1570,#1587,#1594));
#296=IFCPOLYLOOP((#1597,#1598,#1580,#1577));
#297=IFCPOLYLOOP((#1599,#1582,#1554,#1553));
#298=IFCPOLYLOOP((#1553,#1580,#1598,#1599));
#299=IFCPOLYLOOP((#1577,#1576,#1584,#1597));
#300=IFCPOLYLOOP((#1600,#1601,#1581,#1575));
#301=IFCPOLYLOOP((#1602,#1589,#1559,#1558));
#302=IFCPOLYLOOP((#1558,#1581,#1601,#1602));
#303=IFCPOLYLOOP((#1575,#1574,#1583,#1600));
#304=IFCPOLYLOOP((#1603,#1604,#1578,#1573));
#305=IFCPOLYLOOP((#1605,#1586,#1564,#1563));
#306=IFCPOLYLOOP((#1563,#1578,#1604,#1605));
#307=IFCPOLYLOOP((#1573,#1572,#1588,#1603));
#308=IFCPOLYLOOP((#1606,#1607,#1589));
#309=IFCPOLYLOOP((#1607,#1590,#1589));
#310=IFCPOLYLOOP((#1608,#1600,#1583));
#311=IFCPOLYLOOP((#1583,#1609,#1608));
#312=IFCPOLYLOOP((#1610,#1609,#1582));
#313=IFCPOLYLOOP((#1609,#1593,#1582));
#314=IFCPOLYLOOP((#1611,#1597,#1584));
#315=IFCPOLYLOOP((#1584,#1612,#1611));
#316=IFCPOLYLOOP((#1613,#1612,#1585));
#317=IFCPOLYLOOP((#1612,#1592,#1585));
#318=IFCPOLYLOOP((#1614,#1594,#1587));
#319=IFCPOLYLOOP((#1587,#1615,#1614));
#320=IFCPOLYLOOP((#1616,#1615,#1586));
#321=IFCPOLYLOOP((#1615,#1591,#1586));
#322=IFCPOLYLOOP((#1617,#1603,#1588));
#323=IFCPOLYLOOP((#1588,#1607,#1617));
#324=IFCPOLYLOOP((#1588,#1590,#1607));
#325=IFCPOLYLOOP((#1618,#1604,#1603,#1617));
#326=IFCPOLYLOOP((#1616,#1605,#1604,#1618));
#327=IFCPOLYLOOP((#1586,#1605,#1616));
#328=IFCPOLYLOOP((#1587,#1591,#1615));
#329=IFCPOLYLOOP((#1619,#1595,#1594,#1614));
#330=IFCPOLYLOOP((#1613,#1596,#1595,#1619));
#331=IFCPOLYLOOP((#1585,#1596,#1613));
#332=IFCPOLYLOOP((#1584,#1592,#1612));
#333=IFCPOLYLOOP((#1620,#1598,#1597,#1611));
#334=IFCPOLYLOOP((#1610,#1599,#1598,#1620));
#335=IFCPOLYLOOP((#1582,#1599,#1610));
#336=IFCPOLYLOOP((#1583,#1593,#1609));
#337=IFCPOLYLOOP((#1621,#1601,#1600,#1608));
#338=IFCPOLYLOOP((#1606,#1602,#1601,#1621));
#339=IFCPOLYLOOP((#1589,#1602,#1606));
#340=IFCPOLYLOOP((#1620,#1622,#1623,#1624,#1625,#1626,#1627,#1628));
#341=IFCPOLYLOOP((#1619,#1629,#1630));
#342=IFCPOLYLOOP((#1620,#1631,#1622));
#343=IFCPOLYLOOP((#1630,#1632,#1633,#1634,#1635,#1636,#1637,#1619));
#344=IFCPOLYLOOP((#1618,#1638,#1639));
#345=IFCPOLYLOOP((#1621,#1640,#1641,#1642,#1643,#1644,#1645,#1646));
#346=IFCPOLYLOOP((#1628,#1647,#1620));
#347=IFCPOLYLOOP((#1637,#1648,#1619));
#348=IFCPOLYLOOP((#1619,#1614,#1649,#1650));
#349=IFCPOLYLOOP((#1639,#1651,#1652,#1653,#1654,#1655,#1656,#1618));
#350=IFCPOLYLOOP((#1621,#1657,#1640));
#351=IFCPOLYLOOP((#1620,#1658,#1631));
#352=IFCPOLYLOOP((#1650,#1629,#1619));
#353=IFCPOLYLOOP((#1656,#1659,#1618));
#354=IFCPOLYLOOP((#1618,#1617,#1660,#1661));
#355=IFCPOLYLOOP((#1646,#1662,#1621));
#356=IFCPOLYLOOP((#1647,#1663,#1620));
#357=IFCPOLYLOOP((#1611,#1664,#1665));
#358=IFCPOLYLOOP((#1648,#1666,#1619));
#359=IFCPOLYLOOP((#1661,#1638,#1618));
#360=IFCPOLYLOOP((#1621,#1667,#1657));
#361=IFCPOLYLOOP((#1665,#1658,#1620,#1611));
#362=IFCPOLYLOOP((#1614,#1668,#1649));
#363=IFCPOLYLOOP((#1659,#1669,#1618));
#364=IFCPOLYLOOP((#1662,#1670,#1621));
#365=IFCPOLYLOOP((#1608,#1671,#1672));
#366=IFCPOLYLOOP((#1663,#1673,#1610,#1620));
#367=IFCPOLYLOOP((#1666,#1674,#1613,#1619));
#368=IFCPOLYLOOP((#1617,#1675,#1660));
#369=IFCPOLYLOOP((#1672,#1667,#1621,#1608));
#370=IFCPOLYLOOP((#1673,#1676,#1610));
#371=IFCPOLYLOOP((#1674,#1677,#1613));
#372=IFCPOLYLOOP((#1669,#1678,#1616,#1618));
#373=IFCPOLYLOOP((#1670,#1679,#1606,#1621));
#374=IFCPOLYLOOP((#1611,#1612,#1680,#1664));
#375=IFCPOLYLOOP((#1614,#1615,#1681,#1668));
#376=IFCPOLYLOOP((#1678,#1682,#1616));
#377=IFCPOLYLOOP((#1679,#1683,#1606));
#378=IFCPOLYLOOP((#1677,#1680,#1612,#1613));
#379=IFCPOLYLOOP((#1617,#1607,#1684,#1675));
#380=IFCPOLYLOOP((#1608,#1609,#1685,#1671));
#381=IFCPOLYLOOP((#1682,#1681,#1615,#1616));
#382=IFCPOLYLOOP((#1676,#1685,#1609,#1610));
#383=IFCPOLYLOOP((#1683,#1684,#1607,#1606));
#384=IFCPOLYLOOP((#1635,#1686,#1687,#1636));
#385=IFCPOLYLOOP((#1634,#1688,#1686,#1635));
#386=IFCPOLYLOOP((#1633,#1689,#1688,#1634));
#387=IFCPOLYLOOP((#1632,#1690,#1689,#1633));
#388=IFCPOLYLOOP((#1691,#1692,#1693,#1694,#1695,#1696,#1697,#1698,#1699,
#1700,#1701,#1702,#1703));
#389=IFCPOLYLOOP((#1704,#1705,#1691));
#390=IFCPOLYLOOP((#1690,#1706,#1707,#1708,#1709,#1710,#1711,#1712,#1713,
#1714,#1715,#1716,#1717));
#391=IFCPOLYLOOP((#1718,#1719,#1720,#1721,#1722,#1723,#1724,#1725,#1726,
#1727,#1728,#1729,#1687));
#392=IFCPOLYLOOP((#1704,#1730,#1705));
#393=IFCPOLYLOOP((#1731,#1732,#1733,#1734,#1735,#1736,#1737,#1738,#1739,
#1740,#1741,#1742,#1743));
#394=IFCPOLYLOOP((#1744,#1689,#1690));
#395=IFCPOLYLOOP((#1686,#1745,#1718));
#396=IFCPOLYLOOP((#1704,#1746,#1730));
#397=IFCPOLYLOOP((#1746,#1747,#1731));
#398=IFCPOLYLOOP((#1717,#1744,#1690));
#399=IFCPOLYLOOP((#1687,#1686,#1718));
#400=IFCPOLYLOOP((#1703,#1704,#1691));
#401=IFCPOLYLOOP((#1746,#1748,#1747));
#402=IFCPOLYLOOP((#1748,#1749,#1688,#1689));
#403=IFCPOLYLOOP((#1688,#1749,#1745));
#404=IFCPOLYLOOP((#1743,#1746,#1731));
#405=IFCPOLYLOOP((#1686,#1688,#1745));
#406=IFCPOLYLOOP((#1744,#1748,#1689));
#407=IFCPOLYLOOP((#1704,#1749,#1748,#1746));
#408=IFCPOLYLOOP((#1654,#1744,#1717,#1655));
#409=IFCPOLYLOOP((#1653,#1748,#1744,#1654));
#410=IFCPOLYLOOP((#1652,#1747,#1748,#1653));
#411=IFCPOLYLOOP((#1651,#1731,#1747,#1652));
#412=IFCPOLYLOOP((#1644,#1746,#1743,#1645));
#413=IFCPOLYLOOP((#1643,#1730,#1746,#1644));
#414=IFCPOLYLOOP((#1642,#1705,#1730,#1643));
#415=IFCPOLYLOOP((#1641,#1691,#1705,#1642));
#416=IFCPOLYLOOP((#1626,#1704,#1703,#1627));
#417=IFCPOLYLOOP((#1625,#1749,#1704,#1626));
#418=IFCPOLYLOOP((#1624,#1745,#1749,#1625));
#419=IFCPOLYLOOP((#1623,#1718,#1745,#1624));
#420=IFCPOLYLOOP((#1629,#1707,#1706,#1630));
#421=IFCPOLYLOOP((#1650,#1708,#1707,#1629));
#422=IFCPOLYLOOP((#1649,#1709,#1708,#1650));
#423=IFCPOLYLOOP((#1668,#1710,#1709,#1649));
#424=IFCPOLYLOOP((#1631,#1720,#1719,#1622));
#425=IFCPOLYLOOP((#1658,#1721,#1720,#1631));
#426=IFCPOLYLOOP((#1665,#1722,#1721,#1658));
#427=IFCPOLYLOOP((#1664,#1723,#1722,#1665));
#428=IFCPOLYLOOP((#1673,#1699,#1698,#1676));
#429=IFCPOLYLOOP((#1663,#1700,#1699,#1673));
#430=IFCPOLYLOOP((#1647,#1701,#1700,#1663));
#431=IFCPOLYLOOP((#1628,#1702,#1701,#1647));
#432=IFCPOLYLOOP((#1657,#1693,#1692,#1640));
#433=IFCPOLYLOOP((#1667,#1694,#1693,#1657));
#434=IFCPOLYLOOP((#1672,#1695,#1694,#1667));
#435=IFCPOLYLOOP((#1671,#1696,#1695,#1672));
#436=IFCPOLYLOOP((#1679,#1739,#1738,#1683));
#437=IFCPOLYLOOP((#1670,#1740,#1739,#1679));
#438=IFCPOLYLOOP((#1662,#1741,#1740,#1670));
#439=IFCPOLYLOOP((#1646,#1742,#1741,#1662));
#440=IFCPOLYLOOP((#1638,#1733,#1732,#1639));
#441=IFCPOLYLOOP((#1661,#1734,#1733,#1638));
#442=IFCPOLYLOOP((#1660,#1735,#1734,#1661));
#443=IFCPOLYLOOP((#1675,#1736,#1735,#1660));
#444=IFCPOLYLOOP((#1678,#1713,#1712,#1682));
#445=IFCPOLYLOOP((#1669,#1714,#1713,#1678));
#446=IFCPOLYLOOP((#1659,#1715,#1714,#1669));
#447=IFCPOLYLOOP((#1656,#1716,#1715,#1659));
#448=IFCPOLYLOOP((#1674,#1726,#1725,#1677));
#449=IFCPOLYLOOP((#1666,#1727,#1726,#1674));
#450=IFCPOLYLOOP((#1648,#1728,#1727,#1666));
#451=IFCPOLYLOOP((#1637,#1729,#1728,#1648));
#452=IFCPOLYLOOP((#1681,#1711,#1710,#1668));
#453=IFCPOLYLOOP((#1682,#1712,#1711,#1681));
#454=IFCPOLYLOOP((#1655,#1717,#1716,#1656));
#455=IFCPOLYLOOP((#1731,#1651,#1639,#1732));
#456=IFCPOLYLOOP((#1684,#1737,#1736,#1675));
#457=IFCPOLYLOOP((#1683,#1738,#1737,#1684));
#458=IFCPOLYLOOP((#1645,#1743,#1742,#1646));
#459=IFCPOLYLOOP((#1691,#1641,#1640,#1692));
#460=IFCPOLYLOOP((#1685,#1697,#1696,#1671));
#461=IFCPOLYLOOP((#1676,#1698,#1697,#1685));
#462=IFCPOLYLOOP((#1627,#1703,#1702,#1628));
#463=IFCPOLYLOOP((#1718,#1623,#1622,#1719));
#464=IFCPOLYLOOP((#1680,#1724,#1723,#1664));
#465=IFCPOLYLOOP((#1677,#1725,#1724,#1680));
#466=IFCPOLYLOOP((#1636,#1687,#1729,#1637));
#467=IFCPOLYLOOP((#1690,#1632,#1630,#1706));
#468=IFCFACEOUTERBOUND(#26,.T.);
#469=IFCFACEOUTERBOUND(#27,.T.);
#470=IFCFACEOUTERBOUND(#28,.T.);
#471=IFCFACEOUTERBOUND(#29,.T.);
#472=IFCFACEOUTERBOUND(#30,.T.);
#473=IFCFACEOUTERBOUND(#31,.T.);
#474=IFCFACEOUTERBOUND(#32,.T.);
#475=IFCFACEOUTERBOUND(#33,.T.);
#476=IFCFACEOUTERBOUND(#34,.T.);
#477=IFCFACEOUTERBOUND(#35,.T.);
#478=IFCFACEOUTERBOUND(#36,.T.);
#479=IFCFACEOUTERBOUND(#37,.T.);
#480=IFCFACEOUTERBOUND(#38,.T.);
#481=IFCFACEOUTERBOUND(#39,.T.);
#482=IFCFACEOUTERBOUND(#40,.T.);
#483=IFCFACEOUTERBOUND(#41,.T.);
#484=IFCFACEOUTERBOUND(#42,.T.);
#485=IFCFACEOUTERBOUND(#43,.T.);
#486=IFCFACEOUTERBOUND(#44,.T.);
#487=IFCFACEOUTERBOUND(#45,.T.);
#488=IFCFACEOUTERBOUND(#46,.T.);
#489=IFCFACEOUTERBOUND(#47,.T.);
#490=IFCFACEOUTERBOUND(#48,.T.);
#491=IFCFACEOUTERBOUND(#49,.T.);
#492=IFCFACEOUTERBOUND(#50,.T.);
#493=IFCFACEOUTERBOUND(#51,.T.);
#494=IFCFACEOUTERBOUND(#52,.T.);
#495=IFCFACEOUTERBOUND(#53,.T.);
#496=IFCFACEOUTERBOUND(#54,.T.);
#497=IFCFACEOUTERBOUND(#55,.T.);
#498=IFCFACEOUTERBOUND(#56,.T.);
#499=IFCFACEOUTERBOUND(#57,.T.);
#500=IFCFACEOUTERBOUND(#58,.T.);
#501=IFCFACEOUTERBOUND(#59,.T.);
#502=IFCFACEOUTERBOUND(#60,.T.);
#503=IFCFACEOUTERBOUND(#61,.T.);
#504=IFCFACEOUTERBOUND(#62,.T.);
#505=IFCFACEOUTERBOUND(#63,.T.);
#506=IFCFACEOUTERBOUND(#64,.T.);
#507=IFCFACEOUTERBOUND(#65,.T.);
#508=IFCFACEOUTERBOUND(#66,.T.);
#509=IFCFACEOUTERBOUND(#67,.T.);
#510=IFCFACEOUTERBOUND(#68,.T.);
#511=IFCFACEOUTERBOUND(#69,.T.);
#512=IFCFACEOUTERBOUND(#70,.T.);
#513=IFCFACEOUTERBOUND(#71,.T.);
#514=IFCFACEOUTERBOUND(#72,.T.);
#515=IFCFACEOUTERBOUND(#73,.T.);
#516=IFCFACEOUTERBOUND(#74,.T.);
#517=IFCFACEOUTERBOUND(#75,.T.);
#518=IFCFACEOUTERBOUND(#76,.T.);
#519=IFCFACEOUTERBOUND(#77,.T.);
#520=IFCFACEOUTERBOUND(#78,.T.);
#521=IFCFACEOUTERBOUND(#79,.T.);
#522=IFCFACEOUTERBOUND(#80,.T.);
#523=IFCFACEOUTERBOUND(#81,.T.);
#524=IFCFACEOUTERBOUND(#82,.T.);
#525=IFCFACEOUTERBOUND(#83,.T.);
#526=IFCFACEOUTERBOUND(#84,.T.);
#527=IFCFACEOUTERBOUND(#85,.T.);
#528=IFCFACEOUTERBOUND(#86,.T.);
#529=IFCFACEOUTERBOUND(#87,.T.);
#530=IFCFACEOUTERBOUND(#88,.T.);
#531=IFCFACEOUTERBOUND(#89,.T.);
#532=IFCFACEOUTERBOUND(#90,.T.);
#533=IFCFACEOUTERBOUND(#91,.T.);
#534=IFCFACEOUTERBOUND(#92,.T.);
#535=IFCFACEOUTERBOUND(#93,.T.);
#536=IFCFACEOUTERBOUND(#94,.T.);
#537=IFCFACEOUTERBOUND(#95,.T.);
#538=IFCFACEOUTERBOUND(#96,.T.);
#539=IFCFACEOUTERBOUND(#97,.T.);
#540=IFCFACEOUTERBOUND(#98,.T.);
#541=IFCFACEOUTERBOUND(#99,.T.);
#542=IFCFACEOUTERBOUND(#100,.T.);
#543=IFCFACEOUTERBOUND(#101,.T.);
#544=IFCFACEOUTERBOUND(#102,.T.);
#545=IFCFACEOUTERBOUND(#103,.T.);
#546=IFCFACEOUTERBOUND(#104,.T.);
#547=IFCFACEOUTERBOUND(#105,.T.);
#548=IFCFACEOUTERBOUND(#106,.T.);
#549=IFCFACEOUTERBOUND(#107,.T.);
#550=IFCFACEOUTERBOUND(#108,.T.);
#551=IFCFACEOUTERBOUND(#109,.T.);
#552=IFCFACEOUTERBOUND(#110,.T.);
#553=IFCFACEOUTERBOUND(#111,.T.);
#554=IFCFACEOUTERBOUND(#112,.T.);
#555=IFCFACEOUTERBOUND(#113,.T.);
#556=IFCFACEOUTERBOUND(#114,.T.);
#557=IFCFACEOUTERBOUND(#115,.T.);
#558=IFCFACEOUTERBOUND(#116,.T.);
#559=IFCFACEOUTERBOUND(#117,.T.);
#560=IFCFACEOUTERBOUND(#118,.T.);
#561=IFCFACEOUTERBOUND(#119,.T.);
#562=IFCFACEOUTERBOUND(#120,.T.);
#563=IFCFACEOUTERBOUND(#121,.T.);
#564=IFCFACEOUTERBOUND(#122,.T.);
#565=IFCFACEOUTERBOUND(#123,.T.);
#566=IFCFACEOUTERBOUND(#124,.T.);
#567=IFCFACEOUTERBOUND(#125,.T.);
#568=IFCFACEOUTERBOUND(#126,.T.);
#569=IFCFACEOUTERBOUND(#127,.T.);
#570=IFCFACEOUTERBOUND(#128,.T.);
#571=IFCFACEOUTERBOUND(#129,.T.);
#572=IFCFACEOUTERBOUND(#130,.T.);
#573=IFCFACEOUTERBOUND(#131,.T.);
#574=IFCFACEOUTERBOUND(#132,.T.);
#575=IFCFACEOUTERBOUND(#133,.T.);
#576=IFCFACEOUTERBOUND(#134,.T.);
#577=IFCFACEOUTERBOUND(#135,.T.);
#578=IFCFACEOUTERBOUND(#136,.T.);
#579=IFCFACEOUTERBOUND(#137,.T.);
#580=IFCFACEOUTERBOUND(#138,.T.);
#581=IFCFACEOUTERBOUND(#139,.T.);
#582=IFCFACEOUTERBOUND(#140,.T.);
#583=IFCFACEOUTERBOUND(#141,.T.);
#584=IFCFACEOUTERBOUND(#142,.T.);
#585=IFCFACEOUTERBOUND(#143,.T.);
#586=IFCFACEOUTERBOUND(#144,.T.);
#587=IFCFACEOUTERBOUND(#145,.T.);
#588=IFCFACEOUTERBOUND(#146,.T.);
#589=IFCFACEOUTERBOUND(#147,.T.);
#590=IFCFACEOUTERBOUND(#148,.T.);
#591=IFCFACEOUTERBOUND(#149,.T.);
#592=IFCFACEOUTERBOUND(#150,.T.);
#593=IFCFACEOUTERBOUND(#151,.T.);
#594=IFCFACEOUTERBOUND(#152,.T.);
#595=IFCFACEOUTERBOUND(#153,.T.);
#596=IFCFACEOUTERBOUND(#154,.T.);
#597=IFCFACEOUTERBOUND(#155,.T.);
#598=IFCFACEOUTERBOUND(#156,.T.);
#599=IFCFACEOUTERBOUND(#157,.T.);
#600=IFCFACEOUTERBOUND(#158,.T.);
#601=IFCFACEOUTERBOUND(#159,.T.);
#602=IFCFACEOUTERBOUND(#160,.T.);
#603=IFCFACEOUTERBOUND(#161,.T.);
#604=IFCFACEOUTERBOUND(#162,.T.);
#605=IFCFACEOUTERBOUND(#163,.T.);
#606=IFCFACEOUTERBOUND(#164,.T.);
#607=IFCFACEOUTERBOUND(#165,.T.);
#608=IFCFACEOUTERBOUND(#166,.T.);
#609=IFCFACEOUTERBOUND(#167,.T.);
#610=IFCFACEOUTERBOUND(#168,.T.);
#611=IFCFACEOUTERBOUND(#169,.T.);
#612=IFCFACEOUTERBOUND(#170,.T.);
#613=IFCFACEOUTERBOUND(#171,.T.);
#614=IFCFACEOUTERBOUND(#172,.T.);
#615=IFCFACEOUTERBOUND(#173,.T.);
#616=IFCFACEOUTERBOUND(#174,.T.);
#617=IFCFACEOUTERBOUND(#175,.T.);
#618=IFCFACEOUTERBOUND(#176,.T.);
#619=IFCFACEOUTERBOUND(#177,.T.);
#620=IFCFACEOUTERBOUND(#178,.T.);
#621=IFCFACEOUTERBOUND(#179,.T.);
#622=IFCFACEOUTERBOUND(#180,.T.);
#623=IFCFACEOUTERBOUND(#181,.T.);
#624=IFCFACEOUTERBOUND(#182,.T.);
#625=IFCFACEOUTERBOUND(#183,.T.);
#626=IFCFACEOUTERBOUND(#184,.T.);
#627=IFCFACEOUTERBOUND(#185,.T.);
#628=IFCFACEOUTERBOUND(#186,.T.);
#629=IFCFACEOUTERBOUND(#187,.T.);
#630=IFCFACEOUTERBOUND(#188,.T.);
#631=IFCFACEOUTERBOUND(#189,.T.);
#632=IFCFACEOUTERBOUND(#190,.T.);
#633=IFCFACEOUTERBOUND(#191,.T.);
#634=IFCFACEOUTERBOUND(#192,.T.);
#635=IFCFACEOUTERBOUND(#193,.T.);
#636=IFCFACEOUTERBOUND(#194,.T.);
#637=IFCFACEOUTERBOUND(#195,.T.);
#638=IFCFACEOUTERBOUND(#196,.T.);
#639=IFCFACEOUTERBOUND(#197,.T.);
#640=IFCFACEOUTERBOUND(#198,.T.);
#641=IFCFACEOUTERBOUND(#199,.T.);
#642=IFCFACEOUTERBOUND(#200,.T.);
#643=IFCFACEOUTERBOUND(#201,.T.);
#644=IFCFACEOUTERBOUND(#202,.T.);
#645=IFCFACEOUTERBOUND(#203,.T.);
#646=IFCFACEOUTERBOUND(#204,.T.);
#647=IFCFACEOUTERBOUND(#205,.T.);
#648=IFCFACEOUTERBOUND(#206,.T.);
#649=IFCFACEOUTERBOUND(#207,.T.);
#650=IFCFACEOUTERBOUND(#208,.T.);
#651=IFCFACEOUTERBOUND(#209,.T.);
#652=IFCFACEOUTERBOUND(#210,.T.);
#653=IFCFACEOUTERBOUND(#211,.T.);
#654=IFCFACEOUTERBOUND(#212,.T.);
#655=IFCFACEOUTERBOUND(#213,.T.);
#656=IFCFACEOUTERBOUND(#214,.T.);
#657=IFCFACEOUTERBOUND(#215,.T.);
#658=IFCFACEOUTERBOUND(#216,.T.);
#659=IFCFACEOUTERBOUND(#217,.T.);
#660=IFCFACEOUTERBOUND(#218,.T.);
#661=IFCFACEOUTERBOUND(#219,.T.);
#662=IFCFACEOUTERBOUND(#220,.T.);
#663=IFCFACEOUTERBOUND(#221,.T.);
#664=IFCFACEOUTERBOUND(#222,.T.);
#665=IFCFACEOUTERBOUND(#223,.T.);
#666=IFCFACEOUTERBOUND(#224,.T.);
#667=IFCFACEOUTERBOUND(#225,.T.);
#668=IFCFACEOUTERBOUND(#226,.T.);
#669=IFCFACEOUTERBOUND(#227,.T.);
#670=IFCFACEOUTERBOUND(#228,.T.);
#671=IFCFACEOUTERBOUND(#229,.T.);
#672=IFCFACEOUTERBOUND(#230,.T.);
#673=IFCFACEOUTERBOUND(#231,.T.);
#674=IFCFACEOUTERBOUND(#232,.T.);
#675=IFCFACEOUTERBOUND(#233,.T.);
#676=IFCFACEOUTERBOUND(#234,.T.);
#677=IFCFACEOUTERBOUND(#235,.T.);
#678=IFCFACEOUTERBOUND(#236,.T.);
#679=IFCFACEOUTERBOUND(#237,.T.);
#680=IFCFACEOUTERBOUND(#238,.T.);
#681=IFCFACEOUTERBOUND(#239,.T.);
#682=IFCFACEOUTERBOUND(#240,.T.);
#683=IFCFACEOUTERBOUND(#241,.T.);
#684=IFCFACEOUTERBOUND(#242,.T.);
#685=IFCFACEOUTERBOUND(#243,.T.);
#686=IFCFACEOUTERBOUND(#244,.T.);
#687=IFCFACEOUTERBOUND(#245,.T.);
#688=IFCFACEOUTERBOUND(#246,.T.);
#689=IFCFACEOUTERBOUND(#247,.T.);
#690=IFCFACEOUTERBOUND(#248,.T.);
#691=IFCFACEOUTERBOUND(#249,.T.);
#692=IFCFACEOUTERBOUND(#250,.T.);
#693=IFCFACEOUTERBOUND(#251,.T.);
#694=IFCFACEOUTERBOUND(#252,.T.);
#695=IFCFACEOUTERBOUND(#253,.T.);
#696=IFCFACEOUTERBOUND(#254,.T.);
#697=IFCFACEOUTERBOUND(#255,.T.);
#698=IFCFACEOUTERBOUND(#256,.T.);
#699=IFCFACEOUTERBOUND(#257,.T.);
#700=IFCFACEOUTERBOUND(#258,.T.);
#701=IFCFACEOUTERBOUND(#259,.T.);
#702=IFCFACEOUTERBOUND(#260,.T.);
#703=IFCFACEOUTERBOUND(#261,.T.);
#704=IFCFACEOUTERBOUND(#262,.T.);
#705=IFCFACEOUTERBOUND(#263,.T.);
#706=IFCFACEOUTERBOUND(#264,.T.);
#707=IFCFACEOUTERBOUND(#265,.T.);
#708=IFCFACEOUTERBOUND(#266,.T.);
#709=IFCFACEOUTERBOUND(#267,.T.);
#710=IFCFACEOUTERBOUND(#268,.T.);
#711=IFCFACEOUTERBOUND(#269,.T.);
#712=IFCFACEOUTERBOUND(#270,.T.);
#713=IFCFACEOUTERBOUND(#271,.T.);
#714=IFCFACEOUTERBOUND(#272,.T.);
#715=IFCFACEOUTERBOUND(#273,.T.);
#716=IFCFACEOUTERBOUND(#274,.T.);
#717=IFCFACEOUTERBOUND(#275,.T.);
#718=IFCFACEOUTERBOUND(#276,.T.);
#719=IFCFACEOUTERBOUND(#277,.T.);
#720=IFCFACEOUTERBOUND(#278,.T.);
#721=IFCFACEOUTERBOUND(#279,.T.);
#722=IFCFACEOUTERBOUND(#280,.T.);
#723=IFCFACEOUTERBOUND(#281,.T.);
#724=IFCFACEOUTERBOUND(#282,.T.);
#725=IFCFACEOUTERBOUND(#283,.T.);
#726=IFCFACEOUTERBOUND(#284,.T.);
#727=IFCFACEOUTERBOUND(#285,.T.);
#728=IFCFACEOUTERBOUND(#286,.T.);
#729=IFCFACEOUTERBOUND(#287,.T.);
#730=IFCFACEOUTERBOUND(#288,.T.);
#731=IFCFACEOUTERBOUND(#289,.T.);
#732=IFCFACEOUTERBOUND(#290,.T.);
#733=IFCFACEOUTERBOUND(#291,.T.);
#734=IFCFACEOUTERBOUND(#292,.T.);
#735=IFCFACEOUTERBOUND(#293,.T.);
#736=IFCFACEOUTERBOUND(#294,.T.);
#737=IFCFACEOUTERBOUND(#295,.T.);
#738=IFCFACEOUTERBOUND(#296,.T.);
#739=IFCFACEOUTERBOUND(#297,.T.);
#740=IFCFACEOUTERBOUND(#298,.T.);
#741=IFCFACEOUTERBOUND(#299,.T.);
#742=IFCFACEOUTERBOUND(#300,.T.);
#743=IFCFACEOUTERBOUND(#301,.T.);
#744=IFCFACEOUTERBOUND(#302,.T.);
#745=IFCFACEOUTERBOUND(#303,.T.);
#746=IFCFACEOUTERBOUND(#304,.T.);
#747=IFCFACEOUTERBOUND(#305,.T.);
#748=IFCFACEOUTERBOUND(#306,.T.);
#749=IFCFACEOUTERBOUND(#307,.T.);
#750=IFCFACEOUTERBOUND(#308,.T.);
#751=IFCFACEOUTERBOUND(#309,.T.);
#752=IFCFACEOUTERBOUND(#310,.T.);
#753=IFCFACEOUTERBOUND(#311,.T.);
#754=IFCFACEOUTERBOUND(#312,.T.);
#755=IFCFACEOUTERBOUND(#313,.T.);
#756=IFCFACEOUTERBOUND(#314,.T.);
#757=IFCFACEOUTERBOUND(#315,.T.);
#758=IFCFACEOUTERBOUND(#316,.T.);
#759=IFCFACEOUTERBOUND(#317,.T.);
#760=IFCFACEOUTERBOUND(#318,.T.);
#761=IFCFACEOUTERBOUND(#319,.T.);
#762=IFCFACEOUTERBOUND(#320,.T.);
#763=IFCFACEOUTERBOUND(#321,.T.);
#764=IFCFACEOUTERBOUND(#322,.T.);
#765=IFCFACEOUTERBOUND(#323,.T.);
#766=IFCFACEOUTERBOUND(#324,.T.);
#767=IFCFACEOUTERBOUND(#325,.T.);
#768=IFCFACEOUTERBOUND(#326,.T.);
#769=IFCFACEOUTERBOUND(#327,.T.);
#770=IFCFACEOUTERBOUND(#328,.T.);
#771=IFCFACEOUTERBOUND(#329,.T.);
#772=IFCFACEOUTERBOUND(#330,.T.);
#773=IFCFACEOUTERBOUND(#331,.T.);
#774=IFCFACEOUTERBOUND(#332,.T.);
#775=IFCFACEOUTERBOUND(#333,.T.);
#776=IFCFACEOUTERBOUND(#334,.T.);
#777=IFCFACEOUTERBOUND(#335,.T.);
#778=IFCFACEOUTERBOUND(#336,.T.);
#779=IFCFACEOUTERBOUND(#337,.T.);
#780=IFCFACEOUTERBOUND(#338,.T.);
#781=IFCFACEOUTERBOUND(#339,.T.);
#782=IFCFACEOUTERBOUND(#340,.T.);
#783=IFCFACEOUTERBOUND(#341,.T.);
#784=IFCFACEOUTERBOUND(#342,.T.);
#785=IFCFACEOUTERBOUND(#343,.T.);
#786=IFCFACEOUTERBOUND(#344,.T.);
#787=IFCFACEOUTERBOUND(#345,.T.);
#788=IFCFACEOUTERBOUND(#346,.T.);
#789=IFCFACEOUTERBOUND(#347,.T.);
#790=IFCFACEOUTERBOUND(#348,.T.);
#791=IFCFACEOUTERBOUND(#349,.T.);
#792=IFCFACEOUTERBOUND(#350,.T.);
#793=IFCFACEOUTERBOUND(#351,.T.);
#794=IFCFACEOUTERBOUND(#352,.T.);
#795=IFCFACEOUTERBOUND(#353,.T.);
#796=IFCFACEOUTERBOUND(#354,.T.);
#797=IFCFACEOUTERBOUND(#355,.T.);
#798=IFCFACEOUTERBOUND(#356,.T.);
#799=IFCFACEOUTERBOUND(#357,.T.);
#800=IFCFACEOUTERBOUND(#358,.T.);
#801=IFCFACEOUTERBOUND(#359,.T.);
#802=IFCFACEOUTERBOUND(#360,.T.);
#803=IFCFACEOUTERBOUND(#361,.T.);
#804=IFCFACEOUTERBOUND(#362,.T.);
#805=IFCFACEOUTERBOUND(#363,.T.);
#806=IFCFACEOUTERBOUND(#364,.T.);
#807=IFCFACEOUTERBOUND(#365,.T.);
#808=IFCFACEOUTERBOUND(#366,.T.);
#809=IFCFACEOUTERBOUND(#367,.T.);
#810=IFCFACEOUTERBOUND(#368,.T.);
#811=IFCFACEOUTERBOUND(#369,.T.);
#812=IFCFACEOUTERBOUND(#370,.T.);
#813=IFCFACEOUTERBOUND(#371,.T.);
#814=IFCFACEOUTERBOUND(#372,.T.);
#815=IFCFACEOUTERBOUND(#373,.T.);
#816=IFCFACEOUTERBOUND(#374,.T.);
#817=IFCFACEOUTERBOUND(#375,.T.);
#818=IFCFACEOUTERBOUND(#376,.T.);
#819=IFCFACEOUTERBOUND(#377,.T.);
#820=IFCFACEOUTERBOUND(#378,.T.);
#821=IFCFACEOUTERBOUND(#379,.T.);
#822=IFCFACEOUTERBOUND(#380,.T.);
#823=IFCFACEOUTERBOUND(#381,.T.);
#824=IFCFACEOUTERBOUND(#382,.T.);
#825=IFCFACEOUTERBOUND(#383,.T.);
#826=IFCFACEOUTERBOUND(#384,.T.);
#827=IFCFACEOUTERBOUND(#385,.T.);
#828=IFCFACEOUTERBOUND(#386,.T.);
#829=IFCFACEOUTERBOUND(#387,.T.);
#830=IFCFACEOUTERBOUND(#388,.T.);
#831=IFCFACEOUTERBOUND(#389,.T.);
#832=IFCFACEOUTERBOUND(#390,.T.);
#833=IFCFACEOUTERBOUND(#391,.T.);
#834=IFCFACEOUTERBOUND(#392,.T.);
#835=IFCFACEOUTERBOUND(#393,.T.);
#836=IFCFACEOUTERBOUND(#394,.T.);
#837=IFCFACEOUTERBOUND(#395,.T.);
#838=IFCFACEOUTERBOUND(#396,.T.);
#839=IFCFACEOUTERBOUND(#397,.T.);
#840=IFCFACEOUTERBOUND(#398,.T.);
#841=IFCFACEOUTERBOUND(#399,.T.);
#842=IFCFACEOUTERBOUND(#400,.T.);
#843=IFCFACEOUTERBOUND(#401,.T.);
#844=IFCFACEOUTERBOUND(#402,.T.);
#845=IFCFACEOUTERBOUND(#403,.T.);
#846=IFCFACEOUTERBOUND(#404,.T.);
#847=IFCFACEOUTERBOUND(#405,.T.);
#848=IFCFACEOUTERBOUND(#406,.T.);
#849=IFCFACEOUTERBOUND(#407,.T.);
#850=IFCFACEOUTERBOUND(#408,.T.);
#851=IFCFACEOUTERBOUND(#409,.T.);
#852=IFCFACEOUTERBOUND(#410,.T.);
#853=IFCFACEOUTERBOUND(#411,.T.);
#854=IFCFACEOUTERBOUND(#412,.T.);
#855=IFCFACEOUTERBOUND(#413,.T.);
#856=IFCFACEOUTERBOUND(#414,.T.);
#857=IFCFACEOUTERBOUND(#415,.T.);
#858=IFCFACEOUTERBOUND(#416,.T.);
#859=IFCFACEOUTERBOUND(#417,.T.);
#860=IFCFACEOUTERBOUND(#418,.T.);
#861=IFCFACEOUTERBOUND(#419,.T.);
#862=IFCFACEOUTERBOUND(#420,.T.);
#863=IFCFACEOUTERBOUND(#421,.T.);
#864=IFCFACEOUTERBOUND(#422,.T.);
#865=IFCFACEOUTERBOUND(#423,.T.);
#866=IFCFACEOUTERBOUND(#424,.T.);
#867=IFCFACEOUTERBOUND(#425,.T.);
#868=IFCFACEOUTERBOUND(#426,.T.);
#869=IFCFACEOUTERBOUND(#427,.T.);
#870=IFCFACEOUTERBOUND(#428,.T.);
#871=IFCFACEOUTERBOUND(#429,.T.);
#872=IFCFACEOUTERBOUND(#430,.T.);
#873=IFCFACEOUTERBOUND(#431,.T.);
#874=IFCFACEOUTERBOUND(#432,.T.);
#875=IFCFACEOUTERBOUND(#433,.T.);
#876=IFCFACEOUTERBOUND(#434,.T.);
#877=IFCFACEOUTERBOUND(#435,.T.);
#878=IFCFACEOUTERBOUND(#436,.T.);
#879=IFCFACEOUTERBOUND(#437,.T.);
#880=IFCFACEOUTERBOUND(#438,.T.);
#881=IFCFACEOUTERBOUND(#439,.T.);
#882=IFCFACEOUTERBOUND(#440,.T.);
#883=IFCFACEOUTERBOUND(#441,.T.);
#884=IFCFACEOUTERBOUND(#442,.T.);
#885=IFCFACEOUTERBOUND(#443,.T.);
#886=IFCFACEOUTERBOUND(#444,.T.);
#887=IFCFACEOUTERBOUND(#445,.T.);
#888=IFCFACEOUTERBOUND(#446,.T.);
#889=IFCFACEOUTERBOUND(#447,.T.);
#890=IFCFACEOUTERBOUND(#448,.T.);
#891=IFCFACEOUTERBOUND(#449,.T.);
#892=IFCFACEOUTERBOUND(#450,.T.);
#893=IFCFACEOUTERBOUND(#451,.T.);
#894=IFCFACEOUTERBOUND(#452,.T.);
#895=IFCFACEOUTERBOUND(#453,.T.);
#896=IFCFACEOUTERBOUND(#454,.T.);
#897=IFCFACEOUTERBOUND(#455,.T.);
#898=IFCFACEOUTERBOUND(#456,.T.);
#899=IFCFACEOUTERBOUND(#457,.T.);
#900=IFCFACEOUTERBOUND(#458,.T.);
#901=IFCFACEOUTERBOUND(#459,.T.);
#902=IFCFACEOUTERBOUND(#460,.T.);
#903=IFCFACEOUTERBOUND(#461,.T.);
#904=IFCFACEOUTERBOUND(#462,.T.);
#905=IFCFACEOUTERBOUND(#463,.T.);
#906=IFCFACEOUTERBOUND(#464,.T.);
#907=IFCFACEOUTERBOUND(#465,.T.);
#908=IFCFACEOUTERBOUND(#466,.T.);
#909=IFCFACEOUTERBOUND(#467,.T.);
#910=IFCFACE((#468));
#911=IFCFACE((#469));
#912=IFCFACE((#470));
#913=IFCFACE((#471));
#914=IFCFACE((#472));
#915=IFCFACE((#473));
#916=IFCFACE((#474));
#917=IFCFACE((#475));
#918=IFCFACE((#476));
#919=IFCFACE((#477));
#920=IFCFACE((#478));
#921=IFCFACE((#479));
#922=IFCFACE((#480));
#923=IFCFACE((#481));
#924=IFCFACE((#482));
#925=IFCFACE((#483));
#926=IFCFACE((#484));
#927=IFCFACE((#485));
#928=IFCFACE((#486));
#929=IFCFACE((#487));
#930=IFCFACE((#488));
#931=IFCFACE((#489));
#932=IFCFACE((#490));
#933=IFCFACE((#491));
#934=IFCFACE((#492));
#935=IFCFACE((#493));
#936=IFCFACE((#494));
#937=IFCFACE((#495));
#938=IFCFACE((#496));
#939=IFCFACE((#497));
#940=IFCFACE((#498));
#941=IFCFACE((#499));
#942=IFCFACE((#500));
#943=IFCFACE((#501));
#944=IFCFACE((#502));
#945=IFCFACE((#503));
#946=IFCFACE((#504));
#947=IFCFACE((#505));
#948=IFCFACE((#506));
#949=IFCFACE((#507));
#950=IFCFACE((#508));
#951=IFCFACE((#509));
#952=IFCFACE((#510));
#953=IFCFACE((#511));
#954=IFCFACE((#512));
#955=IFCFACE((#513));
#956=IFCFACE((#514));
#957=IFCFACE((#515));
#958=IFCFACE((#516));
#959=IFCFACE((#517));
#960=IFCFACE((#518));
#961=IFCFACE((#519));
#962=IFCFACE((#520));
#963=IFCFACE((#521));
#964=IFCFACE((#522));
#965=IFCFACE((#523));
#966=IFCFACE((#524));
#967=IFCFACE((#525));
#968=IFCFACE((#526));
#969=IFCFACE((#527));
#970=IFCFACE((#528));
#971=IFCFACE((#529));
#972=IFCFACE((#530));
#973=IFCFACE((#531));
#974=IFCFACE((#532));
#975=IFCFACE((#533));
#976=IFCFACE((#534));
#977=IFCFACE((#535));
#978=IFCFACE((#536));
#979=IFCFACE((#537));
#980=IFCFACE((#538));
#981=IFCFACE((#539));
#982=IFCFACE((#540));
#983=IFCFACE((#541));
#984=IFCFACE((#542));
#985=IFCFACE((#543));
#986=IFCFACE((#544));
#987=IFCFACE((#545));
#988=IFCFACE((#546));
#989=IFCFACE((#547));
#990=IFCFACE((#548));
#991=IFCFACE((#549));
#992=IFCFACE((#550));
#993=IFCFACE((#551));
#994=IFCFACE((#552));
#995=IFCFACE((#553));
#996=IFCFACE((#554));
#997=IFCFACE((#555));
#998=IFCFACE((#556));
#999=IFCFACE((#557));
#1000=IFCFACE((#558));
#1001=IFCFACE((#559));
#1002=IFCFACE((#560));
#1003=IFCFACE((#561));
#1004=IFCFACE((#562));
#1005=IFCFACE((#563));
#1006=IFCFACE((#564));
#1007=IFCFACE((#565));
#1008=IFCFACE((#566));
#1009=IFCFACE((#567));
#1010=IFCFACE((#568));
#1011=IFCFACE((#569));
#1012=IFCFACE((#570));
#1013=IFCFACE((#571));
#1014=IFCFACE((#572));
#1015=IFCFACE((#573));
#1016=IFCFACE((#574));
#1017=IFCFACE((#575));
#1018=IFCFACE((#576));
#1019=IFCFACE((#577));
#1020=IFCFACE((#578));
#1021=IFCFACE((#579));
#1022=IFCFACE((#580));
#1023=IFCFACE((#581));
#1024=IFCFACE((#582));
#1025=IFCFACE((#583));
#1026=IFCFACE((#584));
#1027=IFCFACE((#585));
#1028=IFCFACE((#586));
#1029=IFCFACE((#587));
#1030=IFCFACE((#588));
#1031=IFCFACE((#589));
#1032=IFCFACE((#590));
#1033=IFCFACE((#591));
#1034=IFCFACE((#592));
#1035=IFCFACE((#593));
#1036=IFCFACE((#594));
#1037=IFCFACE((#595));
#1038=IFCFACE((#596));
#1039=IFCFACE((#597));
#1040=IFCFACE((#598));
#1041=IFCFACE((#599));
#1042=IFCFACE((#600));
#1043=IFCFACE((#601));
#1044=IFCFACE((#602));
#1045=IFCFACE((#603));
#1046=IFCFACE((#604));
#1047=IFCFACE((#605));
#1048=IFCFACE((#606));
#1049=IFCFACE((#607));
#1050=IFCFACE((#608));
#1051=IFCFACE((#609));
#1052=IFCFACE((#610));
#1053=IFCFACE((#611));
#1054=IFCFACE((#612));
#1055=IFCFACE((#613));
#1056=IFCFACE((#614));
#1057=IFCFACE((#615));
#1058=IFCFACE((#616));
#1059=IFCFACE((#617));
#1060=IFCFACE((#618));
#1061=IFCFACE((#619));
#1062=IFCFACE((#620));
#1063=IFCFACE((#621));
#1064=IFCFACE((#622));
#1065=IFCFACE((#623));
#1066=IFCFACE((#624));
#1067=IFCFACE((#625));
#1068=IFCFACE((#626));
#1069=IFCFACE((#627));
#1070=IFCFACE((#628));
#1071=IFCFACE((#629));
#1072=IFCFACE((#630));
#1073=IFCFACE((#631));
#1074=IFCFACE((#632));
#1075=IFCFACE((#633));
#1076=IFCFACE((#634));
#1077=IFCFACE((#635));
#1078=IFCFACE((#636));
#1079=IFCFACE((#637));
#1080=IFCFACE((#638));
#1081=IFCFACE((#639));
#1082=IFCFACE((#640));
#1083=IFCFACE((#641));
#1084=IFCFACE((#642));
#1085=IFCFACE((#643));
#1086=IFCFACE((#644));
#1087=IFCFACE((#645));
#1088=IFCFACE((#646));
#1089=IFCFACE((#647));
#1090=IFCFACE((#648));
#1091=IFCFACE((#649));
#1092=IFCFACE((#650));
#1093=IFCFACE((#651));
#1094=IFCFACE((#652));
#1095=IFCFACE((#653));
#1096=IFCFACE((#654));
#1097=IFCFACE((#655));
#1098=IFCFACE((#656));
#1099=IFCFACE((#657));
#1100=IFCFACE((#658));
#1101=IFCFACE((#659));
#1102=IFCFACE((#660));
#1103=IFCFACE((#661));
#1104=IFCFACE((#662));
#1105=IFCFACE((#663));
#1106=IFCFACE((#664));
#1107=IFCFACE((#665));
#1108=IFCFACE((#666));
#1109=IFCFACE((#667));
#1110=IFCFACE((#668));
#1111=IFCFACE((#669));
#1112=IFCFACE((#670));
#1113=IFCFACE((#671));
#1114=IFCFACE((#672));
#1115=IFCFACE((#673));
#1116=IFCFACE((#674));
#1117=IFCFACE((#675));
#1118=IFCFACE((#676));
#1119=IFCFACE((#677));
#1120=IFCFACE((#678));
#1121=IFCFACE((#679));
#1122=IFCFACE((#680));
#1123=IFCFACE((#681));
#1124=IFCFACE((#682));
#1125=IFCFACE((#683));
#1126=IFCFACE((#684));
#1127=IFCFACE((#685));
#1128=IFCFACE((#686));
#1129=IFCFACE((#687));
#1130=IFCFACE((#688));
#1131=IFCFACE((#689));
#1132=IFCFACE((#690));
#1133=IFCFACE((#691));
#1134=IFCFACE((#692));
#1135=IFCFACE((#693));
#1136=IFCFACE((#694));
#1137=IFCFACE((#695));
#1138=IFCFACE((#696));
#1139=IFCFACE((#697));
#1140=IFCFACE((#698));
#1141=IFCFACE((#699));
#1142=IFCFACE((#700));
#1143=IFCFACE((#701));
#1144=IFCFACE((#702));
#1145=IFCFACE((#703));
#1146=IFCFACE((#704));
#1147=IFCFACE((#705));
#1148=IFCFACE((#706));
#1149=IFCFACE((#707));
#1150=IFCFACE((#708));
#1151=IFCFACE((#709));
#1152=IFCFACE((#710));
#1153=IFCFACE((#711));
#1154=IFCFACE((#712));
#1155=IFCFACE((#713));
#1156=IFCFACE((#714));
#1157=IFCFACE((#715));
#1158=IFCFACE((#716));
#1159=IFCFACE((#717));
#1160=IFCFACE((#718));
#1161=IFCFACE((#719));
#1162=IFCFACE((#720));
#1163=IFCFACE((#721));
#1164=IFCFACE((#722));
#1165=IFCFACE((#723));
#1166=IFCFACE((#724));
#1167=IFCFACE((#725));
#1168=IFCFACE((#726));
#1169=IFCFACE((#727));
#1170=IFCFACE((#728));
#1171=IFCFACE((#729));
#1172=IFCFACE((#730));
#1173=IFCFACE((#731));
#1174=IFCFACE((#732));
#1175=IFCFACE((#733));
#1176=IFCFACE((#734));
#1177=IFCFACE((#735));
#1178=IFCFACE((#736));
#1179=IFCFACE((#737));
#1180=IFCFACE((#738));
#1181=IFCFACE((#739));
#1182=IFCFACE((#740));
#1183=IFCFACE((#741));
#1184=IFCFACE((#742));
#1185=IFCFACE((#743));
#1186=IFCFACE((#744));
#1187=IFCFACE((#745));
#1188=IFCFACE((#746));
#1189=IFCFACE((#747));
#1190=IFCFACE((#748));
#1191=IFCFACE((#749));
#1192=IFCFACE((#750));
#1193=IFCFACE((#751));
#1194=IFCFACE((#752));
#1195=IFCFACE((#753));
#1196=IFCFACE((#754));
#1197=IFCFACE((#755));
#1198=IFCFACE((#756));
#1199=IFCFACE((#757));
#1200=IFCFACE((#758));
#1201=IFCFACE((#759));
#1202=IFCFACE((#760));
#1203=IFCFACE((#761));
#1204=IFCFACE((#762));
#1205=IFCFACE((#763));
#1206=IFCFACE((#764));
#1207=IFCFACE((#765));
#1208=IFCFACE((#766));
#1209=IFCFACE((#767));
#1210=IFCFACE((#768));
#1211=IFCFACE((#769));
#1212=IFCFACE((#770));
#1213=IFCFACE((#771));
#1214=IFCFACE((#772));
#1215=IFCFACE((#773));
#1216=IFCFACE((#774));
#1217=IFCFACE((#775));
#1218=IFCFACE((#776));
#1219=IFCFACE((#777));
#1220=IFCFACE((#778));
#1221=IFCFACE((#779));
#1222=IFCFACE((#780));
#1223=IFCFACE((#781));
#1224=IFCFACE((#782));
#1225=IFCFACE((#783));
#1226=IFCFACE((#784));
#1227=IFCFACE((#785));
#1228=IFCFACE((#786));
#1229=IFCFACE((#787));
#1230=IFCFACE((#788));
#1231=IFCFACE((#789));
#1232=IFCFACE((#790));
#1233=IFCFACE((#791));
#1234=IFCFACE((#792));
#1235=IFCFACE((#793));
#1236=IFCFACE((#794));
#1237=IFCFACE((#795));
#1238=IFCFACE((#796));
#1239=IFCFACE((#797));
#1240=IFCFACE((#798));
#1241=IFCFACE((#799));
#1242=IFCFACE((#800));
#1243=IFCFACE((#801));
#1244=IFCFACE((#802));
#1245=IFCFACE((#803));
#1246=IFCFACE((#804));
#1247=IFCFACE((#805));
#1248=IFCFACE((#806));
#1249=IFCFACE((#807));
#1250=IFCFACE((#808));
#1251=IFCFACE((#809));
#1252=IFCFACE((#810));
#1253=IFCFACE((#811));
#1254=IFCFACE((#812));
#1255=IFCFACE((#813));
#1256=IFCFACE((#814));
#1257=IFCFACE((#815));
#1258=IFCFACE((#816));
#1259=IFCFACE((#817));
#1260=IFCFACE((#818));
#1261=IFCFACE((#819));
#1262=IFCFACE((#820));
#1263=IFCFACE((#821));
#1264=IFCFACE((#822));
#1265=IFCFACE((#823));
#1266=IFCFACE((#824));
#1267=IFCFACE((#825));
#1268=IFCFACE((#826));
#1269=IFCFACE((#827));
#1270=IFCFACE((#828));
#1271=IFCFACE((#829));
#1272=IFCFACE((#830));
#1273=IFCFACE((#831));
#1274=IFCFACE((#832));
#1275=IFCFACE((#833));
#1276=IFCFACE((#834));
#1277=IFCFACE((#835));
#1278=IFCFACE((#836));
#1279=IFCFACE((#837));
#1280=IFCFACE((#838));
#1281=IFCFACE((#839));
#1282=IFCFACE((#840));
#1283=IFCFACE((#841));
#1284=IFCFACE((#842));
#1285=IFCFACE((#843));
#1286=IFCFACE((#844));
#1287=IFCFACE((#845));
#1288=IFCFACE((#846));
#1289=IFCFACE((#847));
#1290=IFCFACE((#848));
#1291=IFCFACE((#849));
#1292=IFCFACE((#850));
#1293=IFCFACE((#851));
#1294=IFCFACE((#852));
#1295=IFCFACE((#853));
#1296=IFCFACE((#854));
#1297=IFCFACE((#855));
#1298=IFCFACE((#856));
#1299=IFCFACE((#857));
#1300=IFCFACE((#858));
#1301=IFCFACE((#859));
#1302=IFCFACE((#860));
#1303=IFCFACE((#861));
#1304=IFCFACE((#862));
#1305=IFCFACE((#863));
#1306=IFCFACE((#864));
#1307=IFCFACE((#865));
#1308=IFCFACE((#866));
#1309=IFCFACE((#867));
#1310=IFCFACE((#868));
#1311=IFCFACE((#869));
#1312=IFCFACE((#870));
#1313=IFCFACE((#871));
#1314=IFCFACE((#872));
#1315=IFCFACE((#873));
#1316=IFCFACE((#874));
#1317=IFCFACE((#875));
#1318=IFCFACE((#876));
#1319=IFCFACE((#877));
#1320=IFCFACE((#878));
#1321=IFCFACE((#879));
#1322=IFCFACE((#880));
#1323=IFCFACE((#881));
#1324=IFCFACE((#882));
#1325=IFCFACE((#883));
#1326=IFCFACE((#884));
#1327=IFCFACE((#885));
#1328=IFCFACE((#886));
#1329=IFCFACE((#887));
#1330=IFCFACE((#888));
#1331=IFCFACE((#889));
#1332=IFCFACE((#890));
#1333=IFCFACE((#891));
#1334=IFCFACE((#892));
#1335=IFCFACE((#893));
#1336=IFCFACE((#894));
#1337=IFCFACE((#895));
#1338=IFCFACE((#896));
#1339=IFCFACE((#897));
#1340=IFCFACE((#898));
#1341=IFCFACE((#899));
#1342=IFCFACE((#900));
#1343=IFCFACE((#901));
#1344=IFCFACE((#902));
#1345=IFCFACE((#903));
#1346=IFCFACE((#904));
#1347=IFCFACE((#905));
#1348=IFCFACE((#906));
#1349=IFCFACE((#907));
#1350=IFCFACE((#908));
#1351=IFCFACE((#909));
#1352=IFCCLOSEDSHELL((#910,#911,#912,#913,#914,#915,#916,#917,#918,#919,
#920,#921,#922,#923,#924,#925,#926,#927,#928,#929,#930,#931,#932,#933,#934,
#935,#936,#937,#938,#939,#940,#941,#942,#943,#944,#945,#946,#947,#948,#949,
#950,#951,#952,#953,#954,#955,#956,#957,#958,#959,#960,#961,#962,#963,#964,
#965,#966,#967,#968,#969,#970,#971,#972,#973,#974,#975,#976,#977,#978,#979,
#980,#981,#982,#983,#984,#985,#986,#987,#988,#989,#990,#991,#992,#993,#994,
#995,#996,#997,#998,#999,#1000,#1001,#1002,#1003,#1004,#1005,#1006,#1007,
#1008,#1009,#1010,#1011,#1012,#1013,#1014,#1015,#1016,#1017,#1018,#1019,
#1020,#1021,#1022,#1023,#1024,#1025,#1026,#1027,#1028,#1029,#1030,#1031,
#1032,#1033,#1034,#1035,#1036,#1037,#1038,#1039,#1040,#1041,#1042,#1043,
#1044,#1045,#1046,#1047,#1048,#1049,#1050,#1051,#1052,#1053,#1054,#1055,
#1056,#1057,#1058,#1059,#1060,#1061,#1062,#1063,#1064,#1065,#1066,#1067,
#1068,#1069,#1070,#1071,#1072,#1073,#1074,#1075,#1076,#1077,#1078,#1079,
#1080,#1081,#1082,#1083,#1084,#1085,#1086,#1087,#1088,#1089,#1090,#1091,
#1092,#1093,#1094,#1095,#1096,#1097,#1098,#1099,#1100,#1101,#1102,#1103,
#1104,#1105,#1106,#1107,#1108,#1109,#1110,#1111,#1112,#1113,#1114,#1115,
#1116,#1117,#1118,#1119,#1120,#1121,#1122,#1123,#1124,#1125,#1126,#1127,
#1128,#1129,#1130,#1131,#1132,#1133,#1134,#1135,#1136,#1137,#1138,#1139,
#1140,#1141,#1142,#1143,#1144,#1145,#1146,#1147,#1148,#1149,#1150,#1151,
#1152,#1153,#1154,#1155,#1156,#1157,#1158,#1159,#1160,#1161,#1162,#1163,
#1164,#1165,#1166,#1167,#1168,#1169,#1170,#1171,#1172,#1173,#1174,#1175,
#1176,#1177,#1178,#1179,#1180,#1181,#1182,#1183,#1184,#1185,#1186,#1187,
#1188,#1189,#1190,#1191,#1192,#1193,#1194,#1195,#1196,#1197,#1198,#1199,
#1200,#1201,#1202,#1203,#1204,#1205,#1206,#1207,#1208,#1209,#1210,#1211,
#1212,#1213,#1214,#1215,#1216,#1217,#1218,#1219,#1220,#1221,#1222,#1223,
#1224,#1225,#1226,#1227,#1228,#1229,#1230,#1231,#1232,#1233,#1234,#1235,
#1236,#1237,#1238,#1239,#1240,#1241,#1242,#1243,#1244,#1245,#1246,#1247,
#1248,#1249,#1250,#1251,#1252,#1253,#1254,#1255,#1256,#1257,#1258,#1259,
#1260,#1261,#1262,#1263,#1264,#1265,#1266,#1267,#1268,#1269,#1270,#1271,
#1272,#1273,#1274,#1275,#1276,#1277,#1278,#1279,#1280,#1281,#1282,#1283,
#1284,#1285,#1286,#1287,#1288,#1289,#1290,#1291,#1292,#1293,#1294,#1295,
#1296,#1297,#1298,#1299,#1300,#1301,#1302,#1303,#1304,#1305,#1306,#1307,
#1308,#1309,#1310,#1311,#1312,#1313,#1314,#1315,#1316,#1317,#1318,#1319,
#1320,#1321,#1322,#1323,#1324,#1325,#1326,#1327,#1328,#1329,#1330,#1331,
#1332,#1333,#1334,#1335,#1336,#1337,#1338,#1339,#1340,#1341,#1342,#1343,
#1344,#1345,#1346,#1347,#1348,#1349,#1350,#1351));
#1353=IFCSTYLEDITEM(#1358,(#1354),'');
#1354=IFCPRESENTATIONSTYLEASSIGNMENT((#1355));
#1355=IFCSURFACESTYLE('',.BOTH.,(#1356));
#1356=IFCSURFACESTYLERENDERING(#1357,0.,$,$,$,$,$,$,.NOTDEFINED.);
#1357=IFCCOLOURRGB('',0.506983280181885,0.531564235687256,0.550000011920929);
#1358=IFCFACETEDBREP(#1352);
#1359=IFCPROJECT('07hUkdHgGydfWsFJH56q5B',#1757,'ClGray_4268659_MCM',
' ',' ',' ',' ',(#1752),#1360);
#1360=IFCUNITASSIGNMENT((#1753,#1754,#1755,#1756));
#1361=IFCGEOMETRICREPRESENTATIONSUBCONTEXT('Body','Model',*,*,*,*,#1752,
1.,.MODEL_VIEW.,$);
#1362=IFCAXIS2PLACEMENT3D(#1368,#1364,#1365);
#1363=IFCAXIS2PLACEMENT3D(#1751,#1366,#1367);
#1364=IFCDIRECTION((0.,0.,1.));
#1365=IFCDIRECTION((1.,0.,0.));
#1366=IFCDIRECTION((0.,0.,1.));
#1367=IFCDIRECTION((1.,0.,0.));
#1368=IFCCARTESIANPOINT((0.,0.,0.));
#1369=IFCCARTESIANPOINT((-0.73910362600903,19.6938532541079,3.2));
#1370=IFCCARTESIANPOINT((-0.565685424949238,19.4343145750508,3.2));
#1371=IFCCARTESIANPOINT((-0.306146745892071,19.260896373991,3.2));
#1372=IFCCARTESIANPOINT((-1.46957615897682E-16,19.2,3.2));
#1373=IFCCARTESIANPOINT((0.306146745892071,19.260896373991,3.2));
#1374=IFCCARTESIANPOINT((0.565685424949237,19.4343145750508,3.2));
#1375=IFCCARTESIANPOINT((0.73910362600903,19.6938532541079,3.2));
#1376=IFCCARTESIANPOINT((0.8,20.,3.2));
#1377=IFCCARTESIANPOINT((0.73910362600903,20.3061467458921,3.2));
#1378=IFCCARTESIANPOINT((0.565685424949238,20.5656854249492,3.2));
#1379=IFCCARTESIANPOINT((0.306146745892071,20.739103626009,3.2));
#1380=IFCCARTESIANPOINT((-1.28649811974131E-16,20.8,3.2));
#1381=IFCCARTESIANPOINT((-0.306146745892071,20.739103626009,3.2));
#1382=IFCCARTESIANPOINT((-0.565685424949238,20.5656854249492,3.2));
#1383=IFCCARTESIANPOINT((-0.73910362600903,20.3061467458921,3.2));
#1384=IFCCARTESIANPOINT((-0.8,20.,3.2));
#1385=IFCCARTESIANPOINT((0.8,20.,2.26274169979695));
#1386=IFCCARTESIANPOINT((0.779028876404608,20.1819725521274,2.26274169979695));
#1387=IFCCARTESIANPOINT((-0.779028876404608,20.1819725521274,2.26274169979695));
#1388=IFCCARTESIANPOINT((-0.73910362600903,20.3061467458921,2.26274169979695));
#1389=IFCCARTESIANPOINT((-0.565685424949238,19.4343145750508,2.26274169979695));
#1390=IFCCARTESIANPOINT((-0.358809922210945,19.2849787137973,2.26274169979695));
#1391=IFCCARTESIANPOINT((0.358809922210946,19.2849787137973,2.26274169979695));
#1392=IFCCARTESIANPOINT((0.306146745892071,19.260896373991,2.26274169979695));
#1393=IFCCARTESIANPOINT((0.73910362600903,19.6938532541079,2.26274169979695));
#1394=IFCCARTESIANPOINT((0.565685424949237,19.4343145750508,2.26274169979695));
#1395=IFCCARTESIANPOINT((-1.46957615897682E-16,19.2,2.26274169979695));
#1396=IFCCARTESIANPOINT((-0.306146745892071,19.260896373991,2.26274169979695));
#1397=IFCCARTESIANPOINT((-0.73910362600903,19.6938532541079,2.26274169979695));
#1398=IFCCARTESIANPOINT((-0.8,20.,2.26274169979695));
#1399=IFCCARTESIANPOINT((-0.565685424949238,20.5656854249492,2.26274169979695));
#1400=IFCCARTESIANPOINT((-0.306146745892071,20.739103626009,2.26274169979695));
#1401=IFCCARTESIANPOINT((-1.28649811974131E-16,20.8,2.26274169979695));
#1402=IFCCARTESIANPOINT((0.306146745892071,20.739103626009,2.26274169979695));
#1403=IFCCARTESIANPOINT((0.565685424949238,20.5656854249492,2.26274169979695));
#1404=IFCCARTESIANPOINT((0.73910362600903,20.3061467458921,2.26274169979695));
#1405=IFCCARTESIANPOINT((2.40066331587774E-16,21.0413209738821,2.16232528296581));
#1406=IFCCARTESIANPOINT((-0.827486061175168,21.0413209738821,1.99772807156378));
#1407=IFCCARTESIANPOINT((-0.915872092494707,20.1793522246074,2.21111082709975));
#1408=IFCCARTESIANPOINT((0.915872092494708,20.1793522246074,2.21111082709975));
#1409=IFCCARTESIANPOINT((0.827486061175169,21.0413209738821,1.99772807156378));
#1410=IFCCARTESIANPOINT((0.877636514863151,19.2925875814138,2.11880197701648));
#1411=IFCCARTESIANPOINT((2.08321755171078E-16,18.503624475539,1.87639555792327));
#1412=IFCCARTESIANPOINT((0.718065492580686,18.503624475539,1.73356345086041));
#1413=IFCCARTESIANPOINT((-0.718065492580685,18.503624475539,1.73356345086041));
#1414=IFCCARTESIANPOINT((-0.877636514863151,19.2925875814138,2.11880197701648));
#1415=IFCCARTESIANPOINT((-6.00165828969436E-16,21.0413209738821,-2.16232528296581));
#1416=IFCCARTESIANPOINT((0.827486061175168,21.0413209738821,-1.99772807156378));
#1417=IFCCARTESIANPOINT((0.306146745892071,20.739103626009,-2.26274169979695));
#1418=IFCCARTESIANPOINT((0.915872092494707,20.1793522246074,-2.21111082709975));
#1419=IFCCARTESIANPOINT((0.779028876404608,20.1819725521274,-2.26274169979695));
#1420=IFCCARTESIANPOINT((0.73910362600903,20.3061467458921,-2.26274169979695));
#1421=IFCCARTESIANPOINT((0.565685424949238,20.5656854249492,-2.26274169979695));
#1422=IFCCARTESIANPOINT((-0.915872092494708,20.1793522246074,-2.21111082709975));
#1423=IFCCARTESIANPOINT((-0.827486061175169,21.0413209738821,-1.99772807156378));
#1424=IFCCARTESIANPOINT((-0.73910362600903,20.3061467458921,-2.26274169979695));
#1425=IFCCARTESIANPOINT((-0.565685424949238,20.5656854249492,-2.26274169979695));
#1426=IFCCARTESIANPOINT((-0.306146745892071,20.739103626009,-2.26274169979695));
#1427=IFCCARTESIANPOINT((-1.28649811974131E-16,20.8,-2.26274169979695));
#1428=IFCCARTESIANPOINT((-0.877636514863152,19.2925875814138,-2.11880197701648));
#1429=IFCCARTESIANPOINT((-0.73910362600903,19.6938532541079,-2.26274169979695));
#1430=IFCCARTESIANPOINT((-0.565685424949238,19.4343145750508,-2.26274169979695));
#1431=IFCCARTESIANPOINT((-0.8,20.,-2.26274169979695));
#1432=IFCCARTESIANPOINT((-0.779028876404608,20.1819725521274,-2.26274169979695));
#1433=IFCCARTESIANPOINT((-5.20804387927696E-16,18.503624475539,-1.87639555792327));
#1434=IFCCARTESIANPOINT((-0.718065492580686,18.503624475539,-1.73356345086041));
#1435=IFCCARTESIANPOINT((-0.306146745892071,19.260896373991,-2.26274169979695));
#1436=IFCCARTESIANPOINT((-0.358809922210949,19.2849787137973,-2.26274169979695));
#1437=IFCCARTESIANPOINT((0.718065492580685,18.503624475539,-1.73356345086041));
#1438=IFCCARTESIANPOINT((0.306146745892071,19.260896373991,-2.26274169979695));
#1439=IFCCARTESIANPOINT((0.358809922210946,19.2849787137973,-2.26274169979695));
#1440=IFCCARTESIANPOINT((-1.46957615897682E-16,19.2,-2.26274169979695));
#1441=IFCCARTESIANPOINT((0.87763651486315,19.2925875814138,-2.11880197701648));
#1442=IFCCARTESIANPOINT((0.73910362600903,19.6938532541079,-2.26274169979695));
#1443=IFCCARTESIANPOINT((0.8,20.,-2.26274169979695));
#1444=IFCCARTESIANPOINT((0.565685424949237,19.4343145750508,-2.26274169979695));
#1445=IFCCARTESIANPOINT((-1.46957615897682E-16,22.4,0.));
#1446=IFCCARTESIANPOINT((-0.810074627517167,22.2340969967461,-0.335543897251944));
#1447=IFCCARTESIANPOINT((-0.876818458479348,22.2340969967461,0.));
#1448=IFCCARTESIANPOINT((-0.620004277860282,22.2340969967461,-0.620004277860282));
#1449=IFCCARTESIANPOINT((-0.335543897251944,22.2340969967461,-0.810074627517167));
#1450=IFCCARTESIANPOINT((-2.43366010255027E-16,22.2340969967461,-0.876818458479348));
#1451=IFCCARTESIANPOINT((0.335543897251944,22.2340969967461,-0.810074627517167));
#1452=IFCCARTESIANPOINT((0.620004277860282,22.2340969967461,-0.620004277860282));
#1453=IFCCARTESIANPOINT((0.810074627517167,22.2340969967461,-0.335543897251944));
#1454=IFCCARTESIANPOINT((0.876818458479348,22.2340969967461,-1.46019606153016E-16));
#1455=IFCCARTESIANPOINT((0.810074627517167,22.2340969967461,0.335543897251944));
#1456=IFCCARTESIANPOINT((0.620004277860282,22.2340969967461,0.620004277860282));
#1457=IFCCARTESIANPOINT((0.335543897251944,22.2340969967461,0.810074627517167));
#1458=IFCCARTESIANPOINT((9.73464041020109E-17,22.2340969967461,0.876818458479348));
#1459=IFCCARTESIANPOINT((-0.335543897251944,22.2340969967461,0.810074627517167));
#1460=IFCCARTESIANPOINT((-0.620004277860282,22.2340969967461,0.620004277860282));
#1461=IFCCARTESIANPOINT((-0.810074627517167,22.2340969967461,0.335543897251944));
#1462=IFCCARTESIANPOINT((-1.50815441039693,21.7593244923916,-0.624698010939205));
#1463=IFCCARTESIANPOINT((-1.63241457065021,21.7593244923916,0.));
#1464=IFCCARTESIANPOINT((-1.15429141261449,21.7593244923916,-1.15429141261449));
#1465=IFCCARTESIANPOINT((-0.624698010939206,21.7593244923916,-1.50815441039693));
#1466=IFCCARTESIANPOINT((-4.53086060517362E-16,21.7593244923916,-1.63241457065021));
#1467=IFCCARTESIANPOINT((0.624698010939205,21.7593244923916,-1.50815441039693));
#1468=IFCCARTESIANPOINT((1.15429141261449,21.7593244923916,-1.15429141261449));
#1469=IFCCARTESIANPOINT((1.50815441039693,21.7593244923916,-0.624698010939206));
#1470=IFCCARTESIANPOINT((1.63241457065021,21.7593244923916,-2.71851636310417E-16));
#1471=IFCCARTESIANPOINT((1.50815441039693,21.7593244923916,0.624698010939205));
#1472=IFCCARTESIANPOINT((1.15429141261449,21.7593244923916,1.15429141261449));
#1473=IFCCARTESIANPOINT((0.624698010939206,21.7593244923916,1.50815441039693));
#1474=IFCCARTESIANPOINT((1.81234424206945E-16,21.7593244923916,1.63241457065021));
#1475=IFCCARTESIANPOINT((-0.624698010939205,21.7593244923916,1.50815441039693));
#1476=IFCCARTESIANPOINT((-1.15429141261449,21.7593244923916,1.15429141261449));
#1477=IFCCARTESIANPOINT((-1.50815441039693,21.7593244923916,0.624698010939206));
#1478=IFCCARTESIANPOINT((-1.99772807156378,21.0413209738821,-0.827486061175168));
#1479=IFCCARTESIANPOINT((-2.16232528296581,21.0413209738821,0.));
#1480=IFCCARTESIANPOINT((-1.52899487071624,21.0413209738821,-1.52899487071624));
#1481=IFCCARTESIANPOINT((1.52899487071624,21.0413209738821,-1.52899487071624));
#1482=IFCCARTESIANPOINT((1.99772807156378,21.0413209738821,-0.827486061175169));
#1483=IFCCARTESIANPOINT((2.16232528296581,21.0413209738821,-3.60099497381662E-16));
#1484=IFCCARTESIANPOINT((1.99772807156378,21.0413209738821,0.827486061175168));
#1485=IFCCARTESIANPOINT((1.52899487071624,21.0413209738821,1.52899487071624));
#1486=IFCCARTESIANPOINT((-1.52899487071624,21.0413209738821,1.52899487071624));
#1487=IFCCARTESIANPOINT((-1.99772807156378,21.0413209738821,0.827486061175168));
#1488=IFCCARTESIANPOINT((-2.21111082709975,20.1793522246074,-0.915872092494707));
#1489=IFCCARTESIANPOINT((-2.39328911323483,20.1793522246074,0.));
#1490=IFCCARTESIANPOINT((-1.69231096130829,20.1793522246074,-1.69231096130829));
#1491=IFCCARTESIANPOINT((1.69231096130829,20.1793522246074,-1.69231096130829));
#1492=IFCCARTESIANPOINT((2.21111082709975,20.1793522246074,-0.915872092494708));
#1493=IFCCARTESIANPOINT((2.39328911323483,20.1793522246074,-3.98562701714705E-16));
#1494=IFCCARTESIANPOINT((2.21111082709975,20.1793522246074,0.915872092494707));
#1495=IFCCARTESIANPOINT((1.69231096130829,20.1793522246074,1.69231096130829));
#1496=IFCCARTESIANPOINT((-1.69231096130829,20.1793522246074,1.69231096130829));
#1497=IFCCARTESIANPOINT((-2.21111082709975,20.1793522246074,0.915872092494708));
#1498=IFCCARTESIANPOINT((-2.11880197701648,19.2925875814138,-0.87763651486315));
#1499=IFCCARTESIANPOINT((-2.29337473388674,19.2925875814138,0.));
#1500=IFCCARTESIANPOINT((-1.62166082613321,19.2925875814138,-1.62166082613321));
#1501=IFCCARTESIANPOINT((1.62166082613321,19.2925875814138,-1.62166082613321));
#1502=IFCCARTESIANPOINT((2.11880197701648,19.2925875814138,-0.877636514863151));
#1503=IFCCARTESIANPOINT((2.29337473388674,19.2925875814138,-3.81923615048197E-16));
#1504=IFCCARTESIANPOINT((2.11880197701648,19.2925875814138,0.877636514863151));
#1505=IFCCARTESIANPOINT((1.62166082613321,19.2925875814138,1.62166082613321));
#1506=IFCCARTESIANPOINT((-1.62166082613321,19.2925875814138,1.62166082613321));
#1507=IFCCARTESIANPOINT((-2.11880197701648,19.2925875814138,0.877636514863151));
#1508=IFCCARTESIANPOINT((-1.73356345086041,18.503624475539,-0.718065492580685));
#1509=IFCCARTESIANPOINT((-1.87639555792327,18.503624475539,0.));
#1510=IFCCARTESIANPOINT((-1.32681202319586,18.503624475539,-1.32681202319586));
#1511=IFCCARTESIANPOINT((1.32681202319586,18.503624475539,-1.32681202319586));
#1512=IFCCARTESIANPOINT((1.73356345086041,18.503624475539,-0.718065492580686));
#1513=IFCCARTESIANPOINT((1.87639555792327,18.503624475539,-3.12482632756618E-16));
#1514=IFCCARTESIANPOINT((1.73356345086041,18.503624475539,0.718065492580685));
#1515=IFCCARTESIANPOINT((1.32681202319586,18.503624475539,1.32681202319586));
#1516=IFCCARTESIANPOINT((-1.32681202319586,18.503624475539,1.32681202319586));
#1517=IFCCARTESIANPOINT((-1.73356345086041,18.503624475539,0.718065492580686));
#1518=IFCCARTESIANPOINT((-1.10865543901354,17.9215390309173,-0.459220118838107));
#1519=IFCCARTESIANPOINT((-1.2,17.9215390309173,0.));
#1520=IFCCARTESIANPOINT((-0.848528137423858,17.9215390309173,-0.848528137423856));
#1521=IFCCARTESIANPOINT((-0.459220118838108,17.9215390309173,-1.10865543901354));
#1522=IFCCARTESIANPOINT((2.20436423846524E-16,17.9215390309173,-1.2));
#1523=IFCCARTESIANPOINT((0.459220118838108,17.9215390309173,-1.10865543901354));
#1524=IFCCARTESIANPOINT((0.848528137423857,17.9215390309173,-0.848528137423857));
#1525=IFCCARTESIANPOINT((1.10865543901354,17.9215390309173,-0.459220118838108));
#1526=IFCCARTESIANPOINT((1.2,17.9215390309173,1.46957615897682E-16));
#1527=IFCCARTESIANPOINT((1.10865543901354,17.9215390309173,0.459220118838108));
#1528=IFCCARTESIANPOINT((0.848528137423857,17.9215390309173,0.848528137423857));
#1529=IFCCARTESIANPOINT((0.459220118838108,17.9215390309173,1.10865543901354));
#1530=IFCCARTESIANPOINT((0.,17.9215390309173,1.2));
#1531=IFCCARTESIANPOINT((-0.459220118838108,17.9215390309173,1.10865543901354));
#1532=IFCCARTESIANPOINT((-0.848528137423857,17.9215390309173,0.848528137423857));
#1533=IFCCARTESIANPOINT((-1.10865543901354,17.9215390309173,0.459220118838108));
#1534=IFCCARTESIANPOINT((0.8,20.,-3.2));
#1535=IFCCARTESIANPOINT((0.73910362600903,20.3061467458921,-3.2));
#1536=IFCCARTESIANPOINT((-0.8,20.,-3.2));
#1537=IFCCARTESIANPOINT((-0.73910362600903,20.3061467458921,-3.2));
#1538=IFCCARTESIANPOINT((-0.565685424949238,19.4343145750508,-3.2));
#1539=IFCCARTESIANPOINT((-0.306146745892071,19.260896373991,-3.2));
#1540=IFCCARTESIANPOINT((0.565685424949237,19.4343145750508,-3.2));
#1541=IFCCARTESIANPOINT((0.306146745892071,19.260896373991,-3.2));
#1542=IFCCARTESIANPOINT((0.73910362600903,19.6938532541079,-3.2));
#1543=IFCCARTESIANPOINT((-1.46957615897682E-16,19.2,-3.2));
#1544=IFCCARTESIANPOINT((-0.73910362600903,19.6938532541079,-3.2));
#1545=IFCCARTESIANPOINT((-0.565685424949238,20.5656854249492,-3.2));
#1546=IFCCARTESIANPOINT((-0.306146745892071,20.739103626009,-3.2));
#1547=IFCCARTESIANPOINT((-1.28649811974131E-16,20.8,-3.2));
#1548=IFCCARTESIANPOINT((0.306146745892071,20.739103626009,-3.2));
#1549=IFCCARTESIANPOINT((0.565685424949238,20.5656854249492,-3.2));
#1550=IFCCARTESIANPOINT((1.46957615897682E-16,17.8,1.2));
#1551=IFCCARTESIANPOINT((0.4,17.8,1.13137084989848));
#1552=IFCCARTESIANPOINT((1.13137084989848,17.8,0.399999999999998));
#1553=IFCCARTESIANPOINT((1.10865543901354,12.8,0.459220118838108));
#1554=IFCCARTESIANPOINT((1.13137084989848,12.8,0.399999999999998));
#1555=IFCCARTESIANPOINT((1.2,17.8,1.92974717961196E-16));
#1556=IFCCARTESIANPOINT((1.13137084989848,17.8,-0.399999999999998));
#1557=IFCCARTESIANPOINT((0.4,17.8,-1.13137084989848));
#1558=IFCCARTESIANPOINT((0.459220118838108,12.8,-1.10865543901354));
#1559=IFCCARTESIANPOINT((0.4,12.8,-1.13137084989848));
#1560=IFCCARTESIANPOINT((-2.93915231795365E-16,17.8,-1.2));
#1561=IFCCARTESIANPOINT((-0.4,17.8,-1.13137084989848));
#1562=IFCCARTESIANPOINT((-1.13137084989848,17.8,-0.4));
#1563=IFCCARTESIANPOINT((-1.10865543901354,12.8,-0.459220118838108));
#1564=IFCCARTESIANPOINT((-1.13137084989848,12.8,-0.4));
#1565=IFCCARTESIANPOINT((-1.2,17.8,2.20436423846524E-16));
#1566=IFCCARTESIANPOINT((-1.13137084989848,17.8,0.4));
#1567=IFCCARTESIANPOINT((-0.4,17.8,1.13137084989848));
#1568=IFCCARTESIANPOINT((-0.459220118838108,12.8,1.10865543901354));
#1569=IFCCARTESIANPOINT((-0.4,12.8,1.13137084989848));
#1570=IFCCARTESIANPOINT((-1.13137084989848,12.8,0.4));
#1571=IFCCARTESIANPOINT((-1.10865543901354,12.8,0.459220118838107));
#1572=IFCCARTESIANPOINT((-0.4,12.8,-1.13137084989848));
#1573=IFCCARTESIANPOINT((-0.459220118838107,12.8,-1.10865543901354));
#1574=IFCCARTESIANPOINT((1.13137084989848,12.8,-0.399999999999998));
#1575=IFCCARTESIANPOINT((1.10865543901354,12.8,-0.459220118838108));
#1576=IFCCARTESIANPOINT((0.4,12.8,1.13137084989848));
#1577=IFCCARTESIANPOINT((0.459220118838107,12.8,1.10865543901354));
#1578=IFCCARTESIANPOINT((-0.848528137423857,12.8,-0.848528137423857));
#1579=IFCCARTESIANPOINT((-0.848528137423857,12.8,0.848528137423857));
#1580=IFCCARTESIANPOINT((0.848528137423857,12.8,0.848528137423857));
#1581=IFCCARTESIANPOINT((0.848528137423857,12.8,-0.848528137423857));
#1582=IFCCARTESIANPOINT((3.57770876399966,12.8,0.399999999999996));
#1583=IFCCARTESIANPOINT((3.57770876399966,12.8,-0.399999999999996));
#1584=IFCCARTESIANPOINT((0.4,12.8,3.57770876399966));
#1585=IFCCARTESIANPOINT((-0.4,12.8,3.57770876399966));
#1586=IFCCARTESIANPOINT((-3.57770876399966,12.8,-0.400000000000002));
#1587=IFCCARTESIANPOINT((-3.57770876399966,12.8,0.400000000000002));
#1588=IFCCARTESIANPOINT((-0.4,12.8,-3.57770876399966));
#1589=IFCCARTESIANPOINT((0.4,12.8,-3.57770876399966));
#1590=IFCCARTESIANPOINT((-8.81745695386094E-16,12.8,-3.6));
#1591=IFCCARTESIANPOINT((-3.6,12.8,6.61309271539571E-16));
#1592=IFCCARTESIANPOINT((4.40872847693047E-16,12.8,3.6));
#1593=IFCCARTESIANPOINT((3.6,12.8,5.78924153883589E-16));
#1594=IFCCARTESIANPOINT((-3.32596631704063,12.8,1.37766035651432));
#1595=IFCCARTESIANPOINT((-2.54558441227157,12.8,2.54558441227157));
#1596=IFCCARTESIANPOINT((-1.37766035651432,12.8,3.32596631704063));
#1597=IFCCARTESIANPOINT((1.37766035651432,12.8,3.32596631704063));
#1598=IFCCARTESIANPOINT((2.54558441227157,12.8,2.54558441227157));
#1599=IFCCARTESIANPOINT((3.32596631704063,12.8,1.37766035651432));
#1600=IFCCARTESIANPOINT((3.32596631704063,12.8,-1.37766035651432));
#1601=IFCCARTESIANPOINT((2.54558441227157,12.8,-2.54558441227157));
#1602=IFCCARTESIANPOINT((1.37766035651432,12.8,-3.32596631704063));
#1603=IFCCARTESIANPOINT((-1.37766035651432,12.8,-3.32596631704063));
#1604=IFCCARTESIANPOINT((-2.54558441227157,12.8,-2.54558441227157));
#1605=IFCCARTESIANPOINT((-3.32596631704063,12.8,-1.37766035651432));
#1606=IFCCARTESIANPOINT((1.37766035651432,0.,-3.32596631704063));
#1607=IFCCARTESIANPOINT((0.,0.,-3.6));
#1608=IFCCARTESIANPOINT((3.32596631704063,0.,-1.37766035651432));
#1609=IFCCARTESIANPOINT((3.6,0.,0.));
#1610=IFCCARTESIANPOINT((3.32596631704063,0.,1.37766035651432));
#1611=IFCCARTESIANPOINT((1.37766035651432,0.,3.32596631704063));
#1612=IFCCARTESIANPOINT((4.40872847693047E-16,0.,3.6));
#1613=IFCCARTESIANPOINT((-1.37766035651432,0.,3.32596631704063));
#1614=IFCCARTESIANPOINT((-3.32596631704063,0.,1.37766035651432));
#1615=IFCCARTESIANPOINT((-3.6,0.,6.61309271539571E-16));
#1616=IFCCARTESIANPOINT((-3.32596631704063,0.,-1.37766035651432));
#1617=IFCCARTESIANPOINT((-1.37766035651432,0.,-3.32596631704063));
#1618=IFCCARTESIANPOINT((-2.54558441227157,0.,-2.54558441227157));
#1619=IFCCARTESIANPOINT((-2.54558441227157,0.,2.54558441227157));
#1620=IFCCARTESIANPOINT((2.54558441227157,0.,2.54558441227157));
#1621=IFCCARTESIANPOINT((2.54558441227157,0.,-2.54558441227157));
#1622=IFCCARTESIANPOINT((0.9,0.,2.15638586528478));
#1623=IFCCARTESIANPOINT((0.9,0.,1.4));
#1624=IFCCARTESIANPOINT((0.938060233744357,0.,1.20865828381746));
#1625=IFCCARTESIANPOINT((1.04644660940673,0.,1.04644660940673));
#1626=IFCCARTESIANPOINT((1.20865828381746,0.,0.938060233744357));
#1627=IFCCARTESIANPOINT((1.4,0.,0.9));
#1628=IFCCARTESIANPOINT((2.15638586528478,0.,0.9));
#1629=IFCCARTESIANPOINT((-2.18630892753907,0.,0.895418081857297));
#1630=IFCCARTESIANPOINT((-2.15638586528478,0.,0.9));
#1631=IFCCARTESIANPOINT((0.895418081857298,0.,2.18630892753907));
#1632=IFCCARTESIANPOINT((-1.4,0.,0.9));
#1633=IFCCARTESIANPOINT((-1.20865828381746,0.,0.938060233744357));
#1634=IFCCARTESIANPOINT((-1.04644660940673,0.,1.04644660940673));
#1635=IFCCARTESIANPOINT((-0.938060233744357,0.,1.20865828381746));
#1636=IFCCARTESIANPOINT((-0.9,0.,1.4));
#1637=IFCCARTESIANPOINT((-0.9,0.,2.15638586528478));
#1638=IFCCARTESIANPOINT((-0.895418081857297,0.,-2.18630892753907));
#1639=IFCCARTESIANPOINT((-0.9,0.,-2.15638586528478));
#1640=IFCCARTESIANPOINT((2.15638586528478,0.,-0.9));
#1641=IFCCARTESIANPOINT((1.4,0.,-0.9));
#1642=IFCCARTESIANPOINT((1.20865828381746,0.,-0.938060233744357));
#1643=IFCCARTESIANPOINT((1.04644660940673,0.,-1.04644660940673));
#1644=IFCCARTESIANPOINT((0.938060233744357,0.,-1.20865828381746));
#1645=IFCCARTESIANPOINT((0.9,0.,-1.4));
#1646=IFCCARTESIANPOINT((0.9,0.,-2.15638586528478));
#1647=IFCCARTESIANPOINT((2.18630892753907,0.,0.895418081857297));
#1648=IFCCARTESIANPOINT((-0.895418081857297,0.,2.18630892753907));
#1649=IFCCARTESIANPOINT((-2.23543793189619,0.,0.86124353651175));
#1650=IFCCARTESIANPOINT((-2.2134898893568,0.,0.882092206906518));
#1651=IFCCARTESIANPOINT((-0.9,0.,-1.4));
#1652=IFCCARTESIANPOINT((-0.938060233744357,0.,-1.20865828381746));
#1653=IFCCARTESIANPOINT((-1.04644660940673,0.,-1.04644660940673));
#1654=IFCCARTESIANPOINT((-1.20865828381746,0.,-0.938060233744357));
#1655=IFCCARTESIANPOINT((-1.4,0.,-0.9));
#1656=IFCCARTESIANPOINT((-2.15638586528478,0.,-0.9));
#1657=IFCCARTESIANPOINT((2.18630892753907,0.,-0.895418081857298));
#1658=IFCCARTESIANPOINT((0.882092206906518,0.,2.2134898893568));
#1659=IFCCARTESIANPOINT((-2.18630892753907,0.,-0.895418081857297));
#1660=IFCCARTESIANPOINT((-0.86124353651175,0.,-2.23543793189619));
#1661=IFCCARTESIANPOINT((-0.882092206906518,0.,-2.2134898893568));
#1662=IFCCARTESIANPOINT((0.895418081857297,0.,-2.18630892753907));
#1663=IFCCARTESIANPOINT((2.2134898893568,0.,0.882092206906518));
#1664=IFCCARTESIANPOINT((0.834782608695652,0.,2.25014177247108));
#1665=IFCCARTESIANPOINT((0.86124353651175,0.,2.23543793189619));
#1666=IFCCARTESIANPOINT((-0.882092206906518,0.,2.2134898893568));
#1667=IFCCARTESIANPOINT((2.2134898893568,0.,-0.882092206906518));
#1668=IFCCARTESIANPOINT((-2.25014177247108,0.,0.834782608695652));
#1669=IFCCARTESIANPOINT((-2.2134898893568,0.,-0.882092206906518));
#1670=IFCCARTESIANPOINT((0.882092206906518,0.,-2.2134898893568));
#1671=IFCCARTESIANPOINT((2.25014177247108,0.,-0.834782608695652));
#1672=IFCCARTESIANPOINT((2.23543793189619,0.,-0.86124353651175));
#1673=IFCCARTESIANPOINT((2.23543793189619,0.,0.86124353651175));
#1674=IFCCARTESIANPOINT((-0.86124353651175,0.,2.23543793189619));
#1675=IFCCARTESIANPOINT((-0.834782608695652,0.,-2.25014177247108));
#1676=IFCCARTESIANPOINT((2.25014177247108,0.,0.834782608695652));
#1677=IFCCARTESIANPOINT((-0.834782608695652,0.,2.25014177247108));
#1678=IFCCARTESIANPOINT((-2.23543793189619,0.,-0.86124353651175));
#1679=IFCCARTESIANPOINT((0.86124353651175,0.,-2.23543793189619));
#1680=IFCCARTESIANPOINT((2.93915231795365E-16,0.,2.4));
#1681=IFCCARTESIANPOINT((-2.4,0.,2.57250105497335E-15));
#1682=IFCCARTESIANPOINT((-2.25014177247108,0.,-0.834782608695652));
#1683=IFCCARTESIANPOINT((0.834782608695652,0.,-2.25014177247108));
#1684=IFCCARTESIANPOINT((-5.87830463590729E-16,0.,-2.4));
#1685=IFCCARTESIANPOINT((2.4,0.,-1.46957615897682E-16));
#1686=IFCCARTESIANPOINT((-0.938060233744357,12.,1.20865828381746));
#1687=IFCCARTESIANPOINT((-0.9,12.,1.4));
#1688=IFCCARTESIANPOINT((-1.04644660940673,12.,1.04644660940673));
#1689=IFCCARTESIANPOINT((-1.20865828381746,12.,0.938060233744357));
#1690=IFCCARTESIANPOINT((-1.4,12.,0.9));
#1691=IFCCARTESIANPOINT((1.4,12.,-0.9));
#1692=IFCCARTESIANPOINT((2.15638586528478,12.,-0.9));
#1693=IFCCARTESIANPOINT((2.18630892753907,12.,-0.895418081857298));
#1694=IFCCARTESIANPOINT((2.2134898893568,12.,-0.882092206906518));
#1695=IFCCARTESIANPOINT((2.23543793189619,12.,-0.86124353651175));
#1696=IFCCARTESIANPOINT((2.25014177247108,12.,-0.834782608695652));
#1697=IFCCARTESIANPOINT((2.4,12.,-1.46957615897682E-16));
#1698=IFCCARTESIANPOINT((2.25014177247108,12.,0.834782608695652));
#1699=IFCCARTESIANPOINT((2.23543793189619,12.,0.86124353651175));
#1700=IFCCARTESIANPOINT((2.2134898893568,12.,0.882092206906518));
#1701=IFCCARTESIANPOINT((2.18630892753907,12.,0.895418081857297));
#1702=IFCCARTESIANPOINT((2.15638586528478,12.,0.9));
#1703=IFCCARTESIANPOINT((1.4,12.,0.9));
#1704=IFCCARTESIANPOINT((1.20865828381746,12.,0.938060233744357));
#1705=IFCCARTESIANPOINT((1.20865828381746,12.,-0.938060233744357));
#1706=IFCCARTESIANPOINT((-2.15638586528478,12.,0.9));
#1707=IFCCARTESIANPOINT((-2.18630892753907,12.,0.895418081857297));
#1708=IFCCARTESIANPOINT((-2.2134898893568,12.,0.882092206906518));
#1709=IFCCARTESIANPOINT((-2.23543793189619,12.,0.86124353651175));
#1710=IFCCARTESIANPOINT((-2.25014177247108,12.,0.834782608695652));
#1711=IFCCARTESIANPOINT((-2.4,12.,2.57250105497335E-15));
#1712=IFCCARTESIANPOINT((-2.25014177247108,12.,-0.834782608695652));
#1713=IFCCARTESIANPOINT((-2.23543793189619,12.,-0.86124353651175));
#1714=IFCCARTESIANPOINT((-2.2134898893568,12.,-0.882092206906518));
#1715=IFCCARTESIANPOINT((-2.18630892753907,12.,-0.895418081857297));
#1716=IFCCARTESIANPOINT((-2.15638586528478,12.,-0.9));
#1717=IFCCARTESIANPOINT((-1.4,12.,-0.9));
#1718=IFCCARTESIANPOINT((0.9,12.,1.4));
#1719=IFCCARTESIANPOINT((0.9,12.,2.15638586528478));
#1720=IFCCARTESIANPOINT((0.895418081857298,12.,2.18630892753907));
#1721=IFCCARTESIANPOINT((0.882092206906518,12.,2.2134898893568));
#1722=IFCCARTESIANPOINT((0.86124353651175,12.,2.23543793189619));
#1723=IFCCARTESIANPOINT((0.834782608695652,12.,2.25014177247108));
#1724=IFCCARTESIANPOINT((2.93915231795365E-16,12.,2.4));
#1725=IFCCARTESIANPOINT((-0.834782608695652,12.,2.25014177247108));
#1726=IFCCARTESIANPOINT((-0.86124353651175,12.,2.23543793189619));
#1727=IFCCARTESIANPOINT((-0.882092206906518,12.,2.2134898893568));
#1728=IFCCARTESIANPOINT((-0.895418081857297,12.,2.18630892753907));
#1729=IFCCARTESIANPOINT((-0.9,12.,2.15638586528478));
#1730=IFCCARTESIANPOINT((1.04644660940673,12.,-1.04644660940673));
#1731=IFCCARTESIANPOINT((-0.9,12.,-1.4));
#1732=IFCCARTESIANPOINT((-0.9,12.,-2.15638586528478));
#1733=IFCCARTESIANPOINT((-0.895418081857297,12.,-2.18630892753907));
#1734=IFCCARTESIANPOINT((-0.882092206906518,12.,-2.2134898893568));
#1735=IFCCARTESIANPOINT((-0.86124353651175,12.,-2.23543793189619));
#1736=IFCCARTESIANPOINT((-0.834782608695652,12.,-2.25014177247108));
#1737=IFCCARTESIANPOINT((-5.87830463590729E-16,12.,-2.4));
#1738=IFCCARTESIANPOINT((0.834782608695652,12.,-2.25014177247108));
#1739=IFCCARTESIANPOINT((0.86124353651175,12.,-2.23543793189619));
#1740=IFCCARTESIANPOINT((0.882092206906518,12.,-2.2134898893568));
#1741=IFCCARTESIANPOINT((0.895418081857297,12.,-2.18630892753907));
#1742=IFCCARTESIANPOINT((0.9,12.,-2.15638586528478));
#1743=IFCCARTESIANPOINT((0.9,12.,-1.4));
#1744=IFCCARTESIANPOINT((-1.20865828381746,12.,-0.938060233744357));
#1745=IFCCARTESIANPOINT((0.938060233744357,12.,1.20865828381746));
#1746=IFCCARTESIANPOINT((0.938060233744357,12.,-1.20865828381746));
#1747=IFCCARTESIANPOINT((-0.938060233744357,12.,-1.20865828381746));
#1748=IFCCARTESIANPOINT((-1.04644660940673,12.,-1.04644660940673));
#1749=IFCCARTESIANPOINT((1.04644660940673,12.,1.04644660940673));
#1750=IFCCARTESIANPOINT((0.,0.,0.));
#1751=IFCCARTESIANPOINT((0.,0.,0.));
#1752=IFCGEOMETRICREPRESENTATIONCONTEXT($,'Model',3,0.005,#1362,$);
#1753=IFCSIUNIT(*,.LENGTHUNIT.,.MILLI.,.METRE.);
#1754=IFCSIUNIT(*,.AREAUNIT.,$,.SQUARE_METRE.);
#1755=IFCSIUNIT(*,.VOLUMEUNIT.,$,.CUBIC_METRE.);
#1756=IFCSIUNIT(*,.PLANEANGLEUNIT.,$,.RADIAN.);
#1757=IFCOWNERHISTORY(#1759,#1758,$,.NOCHANGE.,0,$,$,0);
#1758=IFCAPPLICATION(#1760,' ',' ',' ');
#1759=IFCPERSONANDORGANIZATION(#1761,#1760,$);
#1760=IFCORGANIZATION($,' ',$,$,$);
#1761=IFCPERSON(' ',' ',' ',$,$,$,$,$);
ENDSEC;
END-ISO-10303-21;
