ISO-10303-21;
HEADER;
/* Generated by software containing ST-Developer
 * from STEP Tools, Inc. (www.steptools.com) 
 */
/* OPTION: strings as raw bytes, not using required /X/ escapes */

FILE_DESCRIPTION(
/* description */ ('Unknown'),
/* implementation_level */ '2;1');

FILE_NAME(
/* name */ 'ClGray_4211550_JCA',
/* time_stamp */ '2025-07-21T23:51:02+02:00',
/* author */ ('Unknown'),
/* organization */ ('Unknown'),
/* preprocessor_version */ 'ST-DEVELOPER v19.4',
/* originating_system */ 'Unknown',
/* authorisation */ 'OpenTools');

FILE_SCHEMA (('IFC2X3'));
ENDSEC;

DATA;
#10=IFCPROPERTYSINGLEVALUE('ProjectName',$,IFCTEXT(''),$);
#11=IFCPROPERTYSINGLEVALUE('PartNumber',$,IFCTEXT(''),$);
#12=IFCRELDEFINESBYPROPERTIES('3cRq1JQpSwDOm5lsE5cG83',#1462,$,$,(#14),
#13);
#13=IFCPROPERTYSET('1jOd4kXgWorA4TVRi95rqH',#1462,
'empty property set name',$,(#10,#11));
#14=IFCBUILDINGELEMENTPROXY('2GP_XOK7Wq1Pa1NGQTVWHM',#1462,
'ClGray_4211550_JCA',' ','ClGray_4211550_JCA',#19,#15,' ',.ELEMENT.);
#15=IFCPRODUCTDEFINITIONSHAPE(' ',' ',(#25));
#16=IFCRELCONTAINEDINSPATIALSTRUCTURE('3HZhfx2I0vj9Cvp1GHER_f',#1462,
' ',' ',(#14),#20);
#17=IFCRELAGGREGATES('1jF0XzMGqvEA6wZwPLSawz',#1462,$,$,#1125,(#20));
#18=IFCLOCALPLACEMENT($,#1128);
#19=IFCLOCALPLACEMENT(#18,#1129);
#20=IFCBUILDING('3G2N19bOG__grq1LV0cQPU',#1462,'Default Building',$,$,#18,
$,$,.ELEMENT.,0.,0.,$);
#21=IFCCARTESIANTRANSFORMATIONOPERATOR3D($,$,#1455,1.,$);
#22=IFCMAPPEDITEM(#23,#21);
#23=IFCREPRESENTATIONMAP(#1128,#24);
#24=IFCSHAPEREPRESENTATION(#1127,'Body','Brep',(#1124));
#25=IFCSHAPEREPRESENTATION(#1127,'Body','MappedRepresentation',(#22));
#26=IFCPOLYLOOP((#1135,#1136,#1137,#1138));
#27=IFCPOLYLOOP((#1139,#1140,#1136,#1135));
#28=IFCPOLYLOOP((#1141,#1142,#1140,#1139));
#29=IFCPOLYLOOP((#1143,#1144,#1142,#1141));
#30=IFCPOLYLOOP((#1145,#1146,#1144,#1143));
#31=IFCPOLYLOOP((#1147,#1148,#1146,#1145));
#32=IFCPOLYLOOP((#1149,#1150,#1148,#1147));
#33=IFCPOLYLOOP((#1151,#1152,#1150,#1149));
#34=IFCPOLYLOOP((#1153,#1154,#1152,#1151));
#35=IFCPOLYLOOP((#1155,#1156,#1154,#1153));
#36=IFCPOLYLOOP((#1157,#1158,#1156,#1155));
#37=IFCPOLYLOOP((#1159,#1160,#1158,#1157));
#38=IFCPOLYLOOP((#1161,#1162,#1160,#1159));
#39=IFCPOLYLOOP((#1163,#1164,#1162,#1161));
#40=IFCPOLYLOOP((#1165,#1166,#1164,#1163));
#41=IFCPOLYLOOP((#1138,#1137,#1166,#1165));
#42=IFCPOLYLOOP((#1167,#1168,#1137,#1136));
#43=IFCPOLYLOOP((#1168,#1169,#1166,#1137));
#44=IFCPOLYLOOP((#1170,#1171,#1162,#1164));
#45=IFCPOLYLOOP((#1164,#1166,#1169,#1170));
#46=IFCPOLYLOOP((#1172,#1173,#1146,#1148));
#47=IFCPOLYLOOP((#1174,#1175,#1142,#1144));
#48=IFCPOLYLOOP((#1136,#1140,#1176,#1167));
#49=IFCPOLYLOOP((#1177,#1178,#1158,#1160));
#50=IFCPOLYLOOP((#1148,#1150,#1179,#1172));
#51=IFCPOLYLOOP((#1140,#1142,#1175,#1176));
#52=IFCPOLYLOOP((#1178,#1180,#1156,#1158));
#53=IFCPOLYLOOP((#1181,#1182,#1152,#1154));
#54=IFCPOLYLOOP((#1144,#1146,#1173,#1174));
#55=IFCPOLYLOOP((#1154,#1156,#1180,#1181));
#56=IFCPOLYLOOP((#1160,#1162,#1171,#1177));
#57=IFCPOLYLOOP((#1150,#1152,#1182,#1179));
#58=IFCPOLYLOOP((#1183,#1179,#1182,#1184));
#59=IFCPOLYLOOP((#1185,#1172,#1179,#1183));
#60=IFCPOLYLOOP((#1186,#1173,#1172,#1185));
#61=IFCPOLYLOOP((#1187,#1174,#1173,#1186));
#62=IFCPOLYLOOP((#1188,#1175,#1174,#1187));
#63=IFCPOLYLOOP((#1189,#1176,#1175,#1188));
#64=IFCPOLYLOOP((#1190,#1167,#1176,#1189));
#65=IFCPOLYLOOP((#1191,#1168,#1167,#1190));
#66=IFCPOLYLOOP((#1192,#1169,#1168,#1191));
#67=IFCPOLYLOOP((#1193,#1170,#1169,#1192));
#68=IFCPOLYLOOP((#1194,#1171,#1170,#1193));
#69=IFCPOLYLOOP((#1195,#1177,#1171,#1194));
#70=IFCPOLYLOOP((#1196,#1178,#1177,#1195));
#71=IFCPOLYLOOP((#1197,#1180,#1178,#1196));
#72=IFCPOLYLOOP((#1198,#1181,#1180,#1197));
#73=IFCPOLYLOOP((#1184,#1182,#1181,#1198));
#74=IFCPOLYLOOP((#1199,#1200,#1149,#1147));
#75=IFCPOLYLOOP((#1201,#1202,#1153,#1151));
#76=IFCPOLYLOOP((#1151,#1149,#1200,#1201));
#77=IFCPOLYLOOP((#1203,#1204,#1139,#1135));
#78=IFCPOLYLOOP((#1202,#1205,#1155,#1153));
#79=IFCPOLYLOOP((#1204,#1206,#1141,#1139));
#80=IFCPOLYLOOP((#1207,#1208,#1145,#1143));
#81=IFCPOLYLOOP((#1205,#1209,#1157,#1155));
#82=IFCPOLYLOOP((#1210,#1211,#1161,#1159));
#83=IFCPOLYLOOP((#1143,#1141,#1206,#1207));
#84=IFCPOLYLOOP((#1159,#1157,#1209,#1210));
#85=IFCPOLYLOOP((#1212,#1213,#1165,#1163));
#86=IFCPOLYLOOP((#1147,#1145,#1208,#1199));
#87=IFCPOLYLOOP((#1213,#1214,#1138,#1165));
#88=IFCPOLYLOOP((#1163,#1161,#1211,#1212));
#89=IFCPOLYLOOP((#1135,#1138,#1214,#1203));
#90=IFCPOLYLOOP((#1215,#1203,#1214,#1216));
#91=IFCPOLYLOOP((#1217,#1204,#1203,#1215));
#92=IFCPOLYLOOP((#1218,#1206,#1204,#1217));
#93=IFCPOLYLOOP((#1219,#1207,#1206,#1218));
#94=IFCPOLYLOOP((#1220,#1208,#1207,#1219));
#95=IFCPOLYLOOP((#1221,#1199,#1208,#1220));
#96=IFCPOLYLOOP((#1222,#1200,#1199,#1221));
#97=IFCPOLYLOOP((#1223,#1201,#1200,#1222));
#98=IFCPOLYLOOP((#1224,#1202,#1201,#1223));
#99=IFCPOLYLOOP((#1225,#1205,#1202,#1224));
#100=IFCPOLYLOOP((#1226,#1209,#1205,#1225));
#101=IFCPOLYLOOP((#1227,#1210,#1209,#1226));
#102=IFCPOLYLOOP((#1228,#1211,#1210,#1227));
#103=IFCPOLYLOOP((#1229,#1212,#1211,#1228));
#104=IFCPOLYLOOP((#1230,#1213,#1212,#1229));
#105=IFCPOLYLOOP((#1216,#1214,#1213,#1230));
#106=IFCPOLYLOOP((#1231,#1232,#1187,#1186));
#107=IFCPOLYLOOP((#1232,#1233,#1188,#1187));
#108=IFCPOLYLOOP((#1233,#1234,#1189,#1188));
#109=IFCPOLYLOOP((#1235,#1236,#1191,#1190));
#110=IFCPOLYLOOP((#1237,#1238,#1195,#1194));
#111=IFCPOLYLOOP((#1190,#1189,#1234,#1235));
#112=IFCPOLYLOOP((#1238,#1239,#1196,#1195));
#113=IFCPOLYLOOP((#1236,#1240,#1192,#1191));
#114=IFCPOLYLOOP((#1239,#1241,#1197,#1196));
#115=IFCPOLYLOOP((#1242,#1243,#1185,#1183));
#116=IFCPOLYLOOP((#1240,#1244,#1193,#1192));
#117=IFCPOLYLOOP((#1241,#1245,#1198,#1197));
#118=IFCPOLYLOOP((#1186,#1185,#1243,#1231));
#119=IFCPOLYLOOP((#1245,#1246,#1184,#1198));
#120=IFCPOLYLOOP((#1194,#1193,#1244,#1237));
#121=IFCPOLYLOOP((#1183,#1184,#1246,#1242));
#122=IFCPOLYLOOP((#1247,#1248,#1219,#1218));
#123=IFCPOLYLOOP((#1248,#1249,#1220,#1219));
#124=IFCPOLYLOOP((#1249,#1250,#1221,#1220));
#125=IFCPOLYLOOP((#1251,#1252,#1223,#1222));
#126=IFCPOLYLOOP((#1253,#1254,#1227,#1226));
#127=IFCPOLYLOOP((#1222,#1221,#1250,#1251));
#128=IFCPOLYLOOP((#1254,#1255,#1228,#1227));
#129=IFCPOLYLOOP((#1252,#1256,#1224,#1223));
#130=IFCPOLYLOOP((#1255,#1257,#1229,#1228));
#131=IFCPOLYLOOP((#1258,#1259,#1217,#1215));
#132=IFCPOLYLOOP((#1256,#1260,#1225,#1224));
#133=IFCPOLYLOOP((#1257,#1261,#1230,#1229));
#134=IFCPOLYLOOP((#1218,#1217,#1259,#1247));
#135=IFCPOLYLOOP((#1261,#1262,#1216,#1230));
#136=IFCPOLYLOOP((#1226,#1225,#1260,#1253));
#137=IFCPOLYLOOP((#1215,#1216,#1262,#1258));
#138=IFCPOLYLOOP((#1251,#1242,#1246,#1263));
#139=IFCPOLYLOOP((#1258,#1262,#1264));
#140=IFCPOLYLOOP((#1246,#1245,#1265));
#141=IFCPOLYLOOP((#1265,#1266,#1246));
#142=IFCPOLYLOOP((#1252,#1267,#1268));
#143=IFCPOLYLOOP((#1252,#1263,#1267));
#144=IFCPOLYLOOP((#1256,#1269,#1270));
#145=IFCPOLYLOOP((#1256,#1268,#1269));
#146=IFCPOLYLOOP((#1253,#1260,#1271));
#147=IFCPOLYLOOP((#1260,#1272,#1273));
#148=IFCPOLYLOOP((#1260,#1270,#1272));
#149=IFCPOLYLOOP((#1273,#1271,#1260));
#150=IFCPOLYLOOP((#1254,#1253,#1274));
#151=IFCPOLYLOOP((#1253,#1275,#1274));
#152=IFCPOLYLOOP((#1254,#1276,#1277));
#153=IFCPOLYLOOP((#1277,#1255,#1254));
#154=IFCPOLYLOOP((#1257,#1278,#1279));
#155=IFCPOLYLOOP((#1279,#1280,#1257));
#156=IFCPOLYLOOP((#1255,#1281,#1278));
#157=IFCPOLYLOOP((#1278,#1257,#1255));
#158=IFCPOLYLOOP((#1261,#1257,#1282));
#159=IFCPOLYLOOP((#1282,#1283,#1261));
#160=IFCPOLYLOOP((#1262,#1261,#1284));
#161=IFCPOLYLOOP((#1284,#1285,#1262));
#162=IFCPOLYLOOP((#1236,#1286,#1287));
#163=IFCPOLYLOOP((#1236,#1264,#1286));
#164=IFCPOLYLOOP((#1240,#1288,#1289));
#165=IFCPOLYLOOP((#1240,#1287,#1288));
#166=IFCPOLYLOOP((#1237,#1244,#1290));
#167=IFCPOLYLOOP((#1244,#1291,#1292));
#168=IFCPOLYLOOP((#1244,#1289,#1291));
#169=IFCPOLYLOOP((#1292,#1290,#1244));
#170=IFCPOLYLOOP((#1238,#1237,#1293));
#171=IFCPOLYLOOP((#1237,#1294,#1293));
#172=IFCPOLYLOOP((#1238,#1295,#1296));
#173=IFCPOLYLOOP((#1296,#1239,#1238));
#174=IFCPOLYLOOP((#1241,#1297,#1298));
#175=IFCPOLYLOOP((#1298,#1299,#1241));
#176=IFCPOLYLOOP((#1239,#1300,#1297));
#177=IFCPOLYLOOP((#1297,#1241,#1239));
#178=IFCPOLYLOOP((#1245,#1241,#1301));
#179=IFCPOLYLOOP((#1301,#1302,#1245));
#180=IFCPOLYLOOP((#1302,#1265,#1245));
#181=IFCPOLYLOOP((#1299,#1301,#1241));
#182=IFCPOLYLOOP((#1296,#1300,#1239));
#183=IFCPOLYLOOP((#1293,#1295,#1238));
#184=IFCPOLYLOOP((#1290,#1294,#1237));
#185=IFCPOLYLOOP((#1289,#1244,#1240));
#186=IFCPOLYLOOP((#1287,#1240,#1236));
#187=IFCPOLYLOOP((#1285,#1264,#1262));
#188=IFCPOLYLOOP((#1283,#1284,#1261));
#189=IFCPOLYLOOP((#1280,#1282,#1257));
#190=IFCPOLYLOOP((#1277,#1281,#1255));
#191=IFCPOLYLOOP((#1274,#1276,#1254));
#192=IFCPOLYLOOP((#1271,#1275,#1253));
#193=IFCPOLYLOOP((#1270,#1260,#1256));
#194=IFCPOLYLOOP((#1268,#1256,#1252));
#195=IFCPOLYLOOP((#1266,#1263,#1246));
#196=IFCPOLYLOOP((#1264,#1236,#1235,#1258));
#197=IFCPOLYLOOP((#1234,#1259,#1258,#1235));
#198=IFCPOLYLOOP((#1233,#1247,#1259,#1234));
#199=IFCPOLYLOOP((#1232,#1248,#1247,#1233));
#200=IFCPOLYLOOP((#1231,#1249,#1248,#1232));
#201=IFCPOLYLOOP((#1243,#1250,#1249,#1231));
#202=IFCPOLYLOOP((#1242,#1251,#1250,#1243));
#203=IFCPOLYLOOP((#1263,#1252,#1251));
#204=IFCPOLYLOOP((#1303,#1271,#1273,#1304));
#205=IFCPOLYLOOP((#1304,#1273,#1272,#1305));
#206=IFCPOLYLOOP((#1306,#1305,#1272,#1270));
#207=IFCPOLYLOOP((#1270,#1269,#1306));
#208=IFCPOLYLOOP((#1307,#1306,#1269));
#209=IFCPOLYLOOP((#1269,#1268,#1307));
#210=IFCPOLYLOOP((#1266,#1308,#1307,#1267));
#211=IFCPOLYLOOP((#1308,#1265,#1302));
#212=IFCPOLYLOOP((#1308,#1266,#1265));
#213=IFCPOLYLOOP((#1302,#1309,#1308));
#214=IFCPOLYLOOP((#1267,#1263,#1266));
#215=IFCPOLYLOOP((#1268,#1267,#1307));
#216=IFCPOLYLOOP((#1309,#1302,#1301));
#217=IFCPOLYLOOP((#1301,#1299,#1310,#1309));
#218=IFCPOLYLOOP((#1310,#1299,#1298,#1311));
#219=IFCPOLYLOOP((#1311,#1298,#1297,#1312));
#220=IFCPOLYLOOP((#1312,#1300,#1296));
#221=IFCPOLYLOOP((#1312,#1297,#1300));
#222=IFCPOLYLOOP((#1313,#1296,#1295));
#223=IFCPOLYLOOP((#1295,#1314,#1313));
#224=IFCPOLYLOOP((#1315,#1314,#1293));
#225=IFCPOLYLOOP((#1293,#1294,#1315));
#226=IFCPOLYLOOP((#1294,#1290,#1315));
#227=IFCPOLYLOOP((#1295,#1293,#1314));
#228=IFCPOLYLOOP((#1296,#1313,#1312));
#229=IFCPOLYLOOP((#1315,#1290,#1292,#1316));
#230=IFCPOLYLOOP((#1316,#1292,#1291,#1317));
#231=IFCPOLYLOOP((#1318,#1317,#1291,#1289));
#232=IFCPOLYLOOP((#1289,#1288,#1318));
#233=IFCPOLYLOOP((#1319,#1318,#1288));
#234=IFCPOLYLOOP((#1288,#1287,#1319));
#235=IFCPOLYLOOP((#1285,#1320,#1319,#1286));
#236=IFCPOLYLOOP((#1320,#1284,#1283));
#237=IFCPOLYLOOP((#1320,#1285,#1284));
#238=IFCPOLYLOOP((#1283,#1321,#1320));
#239=IFCPOLYLOOP((#1286,#1264,#1285));
#240=IFCPOLYLOOP((#1287,#1286,#1319));
#241=IFCPOLYLOOP((#1321,#1283,#1282));
#242=IFCPOLYLOOP((#1282,#1280,#1322,#1321));
#243=IFCPOLYLOOP((#1322,#1280,#1279,#1323));
#244=IFCPOLYLOOP((#1323,#1279,#1278,#1324));
#245=IFCPOLYLOOP((#1324,#1281,#1277));
#246=IFCPOLYLOOP((#1324,#1278,#1281));
#247=IFCPOLYLOOP((#1325,#1277,#1276));
#248=IFCPOLYLOOP((#1276,#1326,#1325));
#249=IFCPOLYLOOP((#1303,#1326,#1274));
#250=IFCPOLYLOOP((#1274,#1275,#1303));
#251=IFCPOLYLOOP((#1275,#1271,#1303));
#252=IFCPOLYLOOP((#1276,#1274,#1326));
#253=IFCPOLYLOOP((#1277,#1325,#1324));
#254=IFCPOLYLOOP((#1322,#1327,#1328));
#255=IFCPOLYLOOP((#1304,#1329,#1330));
#256=IFCPOLYLOOP((#1323,#1331,#1332));
#257=IFCPOLYLOOP((#1328,#1333,#1322));
#258=IFCPOLYLOOP((#1316,#1334,#1335,#1336,#1337,#1338,#1339,#1340));
#259=IFCPOLYLOOP((#1310,#1341,#1342));
#260=IFCPOLYLOOP((#1305,#1343,#1344));
#261=IFCPOLYLOOP((#1305,#1345,#1346));
#262=IFCPOLYLOOP((#1330,#1347,#1304));
#263=IFCPOLYLOOP((#1323,#1348,#1331));
#264=IFCPOLYLOOP((#1323,#1349,#1350));
#265=IFCPOLYLOOP((#1333,#1351,#1321,#1322));
#266=IFCPOLYLOOP((#1316,#1352,#1334));
#267=IFCPOLYLOOP((#1342,#1353,#1310));
#268=IFCPOLYLOOP((#1346,#1343,#1305));
#269=IFCPOLYLOOP((#1347,#1354,#1303,#1304));
#270=IFCPOLYLOOP((#1350,#1348,#1323));
#271=IFCPOLYLOOP((#1320,#1321,#1355,#1356));
#272=IFCPOLYLOOP((#1351,#1357,#1321));
#273=IFCPOLYLOOP((#1340,#1358,#1316));
#274=IFCPOLYLOOP((#1353,#1359,#1309,#1310));
#275=IFCPOLYLOOP((#1305,#1360,#1345));
#276=IFCPOLYLOOP((#1326,#1303,#1361,#1362));
#277=IFCPOLYLOOP((#1354,#1363,#1303));
#278=IFCPOLYLOOP((#1323,#1362,#1349));
#279=IFCPOLYLOOP((#1357,#1355,#1321));
#280=IFCPOLYLOOP((#1316,#1364,#1352));
#281=IFCPOLYLOOP((#1308,#1309,#1365,#1366));
#282=IFCPOLYLOOP((#1359,#1367,#1309));
#283=IFCPOLYLOOP((#1305,#1366,#1360));
#284=IFCPOLYLOOP((#1363,#1361,#1303));
#285=IFCPOLYLOOP((#1356,#1317,#1318,#1319,#1320));
#286=IFCPOLYLOOP((#1317,#1356,#1368));
#287=IFCPOLYLOOP((#1358,#1369,#1315,#1316));
#288=IFCPOLYLOOP((#1316,#1368,#1370));
#289=IFCPOLYLOOP((#1311,#1371,#1372));
#290=IFCPOLYLOOP((#1312,#1373,#1374));
#291=IFCPOLYLOOP((#1367,#1365,#1309));
#292=IFCPOLYLOOP((#1362,#1323,#1324,#1325,#1326));
#293=IFCPOLYLOOP((#1368,#1316,#1317));
#294=IFCPOLYLOOP((#1370,#1364,#1316));
#295=IFCPOLYLOOP((#1374,#1371,#1311,#1312));
#296=IFCPOLYLOOP((#1366,#1305,#1306,#1307,#1308));
#297=IFCPOLYLOOP((#1332,#1375,#1376,#1377,#1378,#1327,#1322,#1323));
#298=IFCPOLYLOOP((#1369,#1379,#1315));
#299=IFCPOLYLOOP((#1312,#1380,#1373));
#300=IFCPOLYLOOP((#1344,#1381,#1382,#1383,#1384,#1329,#1304,#1305));
#301=IFCPOLYLOOP((#1379,#1385,#1315));
#302=IFCPOLYLOOP((#1312,#1313,#1314,#1386,#1380));
#303=IFCPOLYLOOP((#1385,#1386,#1314,#1315));
#304=IFCPOLYLOOP((#1310,#1311,#1387,#1388,#1389,#1390,#1341));
#305=IFCPOLYLOOP((#1372,#1387,#1311));
#306=IFCPOLYLOOP((#1331,#1391,#1392,#1332));
#307=IFCPOLYLOOP((#1348,#1393,#1391,#1331));
#308=IFCPOLYLOOP((#1350,#1394,#1393,#1348));
#309=IFCPOLYLOOP((#1349,#1395,#1394,#1350));
#310=IFCPOLYLOOP((#1396,#1397,#1398,#1399,#1400,#1401,#1402,#1403,#1404,
#1405,#1406,#1407,#1408));
#311=IFCPOLYLOOP((#1409,#1410,#1411,#1412,#1413,#1414,#1415,#1416,#1417,
#1418,#1419,#1420,#1421));
#312=IFCPOLYLOOP((#1422,#1392,#1391,#1393,#1394,#1395,#1423,#1424,#1425,
#1426,#1427,#1428,#1429));
#313=IFCPOLYLOOP((#1430,#1431,#1432,#1433,#1434,#1435,#1436,#1437,#1438,
#1439,#1440,#1441,#1442));
#314=IFCPOLYLOOP((#1443,#1444,#1396));
#315=IFCPOLYLOOP((#1445,#1446,#1409));
#316=IFCPOLYLOOP((#1447,#1448,#1422));
#317=IFCPOLYLOOP((#1449,#1450,#1430));
#318=IFCPOLYLOOP((#1443,#1451,#1444));
#319=IFCPOLYLOOP((#1445,#1452,#1446));
#320=IFCPOLYLOOP((#1429,#1447,#1422));
#321=IFCPOLYLOOP((#1449,#1453,#1450));
#322=IFCPOLYLOOP((#1408,#1443,#1396));
#323=IFCPOLYLOOP((#1421,#1445,#1409));
#324=IFCPOLYLOOP((#1452,#1454,#1448));
#325=IFCPOLYLOOP((#1442,#1449,#1430));
#326=IFCPOLYLOOP((#1445,#1451,#1452));
#327=IFCPOLYLOOP((#1449,#1454,#1452,#1453));
#328=IFCPOLYLOOP((#1447,#1452,#1448));
#329=IFCPOLYLOOP((#1443,#1453,#1452,#1451));
#330=IFCPOLYLOOP((#1357,#1438,#1437,#1355));
#331=IFCPOLYLOOP((#1351,#1439,#1438,#1357));
#332=IFCPOLYLOOP((#1333,#1440,#1439,#1351));
#333=IFCPOLYLOOP((#1328,#1441,#1440,#1333));
#334=IFCPOLYLOOP((#1352,#1432,#1431,#1334));
#335=IFCPOLYLOOP((#1364,#1433,#1432,#1352));
#336=IFCPOLYLOOP((#1370,#1434,#1433,#1364));
#337=IFCPOLYLOOP((#1368,#1435,#1434,#1370));
#338=IFCPOLYLOOP((#1379,#1404,#1403,#1385));
#339=IFCPOLYLOOP((#1369,#1405,#1404,#1379));
#340=IFCPOLYLOOP((#1358,#1406,#1405,#1369));
#341=IFCPOLYLOOP((#1340,#1407,#1406,#1358));
#342=IFCPOLYLOOP((#1371,#1398,#1397,#1372));
#343=IFCPOLYLOOP((#1374,#1399,#1398,#1371));
#344=IFCPOLYLOOP((#1373,#1400,#1399,#1374));
#345=IFCPOLYLOOP((#1380,#1401,#1400,#1373));
#346=IFCPOLYLOOP((#1367,#1417,#1416,#1365));
#347=IFCPOLYLOOP((#1359,#1418,#1417,#1367));
#348=IFCPOLYLOOP((#1353,#1419,#1418,#1359));
#349=IFCPOLYLOOP((#1342,#1420,#1419,#1353));
#350=IFCPOLYLOOP((#1343,#1411,#1410,#1344));
#351=IFCPOLYLOOP((#1346,#1412,#1411,#1343));
#352=IFCPOLYLOOP((#1345,#1413,#1412,#1346));
#353=IFCPOLYLOOP((#1360,#1414,#1413,#1345));
#354=IFCPOLYLOOP((#1363,#1425,#1424,#1361));
#355=IFCPOLYLOOP((#1354,#1426,#1425,#1363));
#356=IFCPOLYLOOP((#1347,#1427,#1426,#1354));
#357=IFCPOLYLOOP((#1330,#1428,#1427,#1347));
#358=IFCPOLYLOOP((#1378,#1449,#1442,#1327));
#359=IFCPOLYLOOP((#1377,#1454,#1449,#1378));
#360=IFCPOLYLOOP((#1376,#1448,#1454,#1377));
#361=IFCPOLYLOOP((#1375,#1422,#1448,#1376));
#362=IFCPOLYLOOP((#1390,#1445,#1421,#1341));
#363=IFCPOLYLOOP((#1389,#1451,#1445,#1390));
#364=IFCPOLYLOOP((#1388,#1444,#1451,#1389));
#365=IFCPOLYLOOP((#1387,#1396,#1444,#1388));
#366=IFCPOLYLOOP((#1338,#1443,#1408,#1339));
#367=IFCPOLYLOOP((#1337,#1453,#1443,#1338));
#368=IFCPOLYLOOP((#1336,#1450,#1453,#1337));
#369=IFCPOLYLOOP((#1335,#1430,#1450,#1336));
#370=IFCPOLYLOOP((#1384,#1447,#1429,#1329));
#371=IFCPOLYLOOP((#1383,#1452,#1447,#1384));
#372=IFCPOLYLOOP((#1382,#1446,#1452,#1383));
#373=IFCPOLYLOOP((#1381,#1409,#1446,#1382));
#374=IFCPOLYLOOP((#1334,#1431,#1430,#1335));
#375=IFCPOLYLOOP((#1407,#1340,#1339,#1408));
#376=IFCPOLYLOOP((#1386,#1402,#1401,#1380));
#377=IFCPOLYLOOP((#1385,#1403,#1402,#1386));
#378=IFCPOLYLOOP((#1372,#1397,#1396,#1387));
#379=IFCPOLYLOOP((#1420,#1342,#1341,#1421));
#380=IFCPOLYLOOP((#1366,#1415,#1414,#1360));
#381=IFCPOLYLOOP((#1365,#1416,#1415,#1366));
#382=IFCPOLYLOOP((#1344,#1410,#1409,#1381));
#383=IFCPOLYLOOP((#1428,#1330,#1329,#1429));
#384=IFCPOLYLOOP((#1362,#1423,#1395,#1349));
#385=IFCPOLYLOOP((#1361,#1424,#1423,#1362));
#386=IFCPOLYLOOP((#1332,#1392,#1422,#1375));
#387=IFCPOLYLOOP((#1441,#1328,#1327,#1442));
#388=IFCPOLYLOOP((#1356,#1436,#1435,#1368));
#389=IFCPOLYLOOP((#1355,#1437,#1436,#1356));
#390=IFCFACEOUTERBOUND(#26,.T.);
#391=IFCFACEOUTERBOUND(#27,.T.);
#392=IFCFACEOUTERBOUND(#28,.T.);
#393=IFCFACEOUTERBOUND(#29,.T.);
#394=IFCFACEOUTERBOUND(#30,.T.);
#395=IFCFACEOUTERBOUND(#31,.T.);
#396=IFCFACEOUTERBOUND(#32,.T.);
#397=IFCFACEOUTERBOUND(#33,.T.);
#398=IFCFACEOUTERBOUND(#34,.T.);
#399=IFCFACEOUTERBOUND(#35,.T.);
#400=IFCFACEOUTERBOUND(#36,.T.);
#401=IFCFACEOUTERBOUND(#37,.T.);
#402=IFCFACEOUTERBOUND(#38,.T.);
#403=IFCFACEOUTERBOUND(#39,.T.);
#404=IFCFACEOUTERBOUND(#40,.T.);
#405=IFCFACEOUTERBOUND(#41,.T.);
#406=IFCFACEOUTERBOUND(#42,.T.);
#407=IFCFACEOUTERBOUND(#43,.T.);
#408=IFCFACEOUTERBOUND(#44,.T.);
#409=IFCFACEOUTERBOUND(#45,.T.);
#410=IFCFACEOUTERBOUND(#46,.T.);
#411=IFCFACEOUTERBOUND(#47,.T.);
#412=IFCFACEOUTERBOUND(#48,.T.);
#413=IFCFACEOUTERBOUND(#49,.T.);
#414=IFCFACEOUTERBOUND(#50,.T.);
#415=IFCFACEOUTERBOUND(#51,.T.);
#416=IFCFACEOUTERBOUND(#52,.T.);
#417=IFCFACEOUTERBOUND(#53,.T.);
#418=IFCFACEOUTERBOUND(#54,.T.);
#419=IFCFACEOUTERBOUND(#55,.T.);
#420=IFCFACEOUTERBOUND(#56,.T.);
#421=IFCFACEOUTERBOUND(#57,.T.);
#422=IFCFACEOUTERBOUND(#58,.T.);
#423=IFCFACEOUTERBOUND(#59,.T.);
#424=IFCFACEOUTERBOUND(#60,.T.);
#425=IFCFACEOUTERBOUND(#61,.T.);
#426=IFCFACEOUTERBOUND(#62,.T.);
#427=IFCFACEOUTERBOUND(#63,.T.);
#428=IFCFACEOUTERBOUND(#64,.T.);
#429=IFCFACEOUTERBOUND(#65,.T.);
#430=IFCFACEOUTERBOUND(#66,.T.);
#431=IFCFACEOUTERBOUND(#67,.T.);
#432=IFCFACEOUTERBOUND(#68,.T.);
#433=IFCFACEOUTERBOUND(#69,.T.);
#434=IFCFACEOUTERBOUND(#70,.T.);
#435=IFCFACEOUTERBOUND(#71,.T.);
#436=IFCFACEOUTERBOUND(#72,.T.);
#437=IFCFACEOUTERBOUND(#73,.T.);
#438=IFCFACEOUTERBOUND(#74,.T.);
#439=IFCFACEOUTERBOUND(#75,.T.);
#440=IFCFACEOUTERBOUND(#76,.T.);
#441=IFCFACEOUTERBOUND(#77,.T.);
#442=IFCFACEOUTERBOUND(#78,.T.);
#443=IFCFACEOUTERBOUND(#79,.T.);
#444=IFCFACEOUTERBOUND(#80,.T.);
#445=IFCFACEOUTERBOUND(#81,.T.);
#446=IFCFACEOUTERBOUND(#82,.T.);
#447=IFCFACEOUTERBOUND(#83,.T.);
#448=IFCFACEOUTERBOUND(#84,.T.);
#449=IFCFACEOUTERBOUND(#85,.T.);
#450=IFCFACEOUTERBOUND(#86,.T.);
#451=IFCFACEOUTERBOUND(#87,.T.);
#452=IFCFACEOUTERBOUND(#88,.T.);
#453=IFCFACEOUTERBOUND(#89,.T.);
#454=IFCFACEOUTERBOUND(#90,.T.);
#455=IFCFACEOUTERBOUND(#91,.T.);
#456=IFCFACEOUTERBOUND(#92,.T.);
#457=IFCFACEOUTERBOUND(#93,.T.);
#458=IFCFACEOUTERBOUND(#94,.T.);
#459=IFCFACEOUTERBOUND(#95,.T.);
#460=IFCFACEOUTERBOUND(#96,.T.);
#461=IFCFACEOUTERBOUND(#97,.T.);
#462=IFCFACEOUTERBOUND(#98,.T.);
#463=IFCFACEOUTERBOUND(#99,.T.);
#464=IFCFACEOUTERBOUND(#100,.T.);
#465=IFCFACEOUTERBOUND(#101,.T.);
#466=IFCFACEOUTERBOUND(#102,.T.);
#467=IFCFACEOUTERBOUND(#103,.T.);
#468=IFCFACEOUTERBOUND(#104,.T.);
#469=IFCFACEOUTERBOUND(#105,.T.);
#470=IFCFACEOUTERBOUND(#106,.T.);
#471=IFCFACEOUTERBOUND(#107,.T.);
#472=IFCFACEOUTERBOUND(#108,.T.);
#473=IFCFACEOUTERBOUND(#109,.T.);
#474=IFCFACEOUTERBOUND(#110,.T.);
#475=IFCFACEOUTERBOUND(#111,.T.);
#476=IFCFACEOUTERBOUND(#112,.T.);
#477=IFCFACEOUTERBOUND(#113,.T.);
#478=IFCFACEOUTERBOUND(#114,.T.);
#479=IFCFACEOUTERBOUND(#115,.T.);
#480=IFCFACEOUTERBOUND(#116,.T.);
#481=IFCFACEOUTERBOUND(#117,.T.);
#482=IFCFACEOUTERBOUND(#118,.T.);
#483=IFCFACEOUTERBOUND(#119,.T.);
#484=IFCFACEOUTERBOUND(#120,.T.);
#485=IFCFACEOUTERBOUND(#121,.T.);
#486=IFCFACEOUTERBOUND(#122,.T.);
#487=IFCFACEOUTERBOUND(#123,.T.);
#488=IFCFACEOUTERBOUND(#124,.T.);
#489=IFCFACEOUTERBOUND(#125,.T.);
#490=IFCFACEOUTERBOUND(#126,.T.);
#491=IFCFACEOUTERBOUND(#127,.T.);
#492=IFCFACEOUTERBOUND(#128,.T.);
#493=IFCFACEOUTERBOUND(#129,.T.);
#494=IFCFACEOUTERBOUND(#130,.T.);
#495=IFCFACEOUTERBOUND(#131,.T.);
#496=IFCFACEOUTERBOUND(#132,.T.);
#497=IFCFACEOUTERBOUND(#133,.T.);
#498=IFCFACEOUTERBOUND(#134,.T.);
#499=IFCFACEOUTERBOUND(#135,.T.);
#500=IFCFACEOUTERBOUND(#136,.T.);
#501=IFCFACEOUTERBOUND(#137,.T.);
#502=IFCFACEOUTERBOUND(#138,.T.);
#503=IFCFACEOUTERBOUND(#139,.T.);
#504=IFCFACEOUTERBOUND(#140,.T.);
#505=IFCFACEOUTERBOUND(#141,.T.);
#506=IFCFACEOUTERBOUND(#142,.T.);
#507=IFCFACEOUTERBOUND(#143,.T.);
#508=IFCFACEOUTERBOUND(#144,.T.);
#509=IFCFACEOUTERBOUND(#145,.T.);
#510=IFCFACEOUTERBOUND(#146,.T.);
#511=IFCFACEOUTERBOUND(#147,.T.);
#512=IFCFACEOUTERBOUND(#148,.T.);
#513=IFCFACEOUTERBOUND(#149,.T.);
#514=IFCFACEOUTERBOUND(#150,.T.);
#515=IFCFACEOUTERBOUND(#151,.T.);
#516=IFCFACEOUTERBOUND(#152,.T.);
#517=IFCFACEOUTERBOUND(#153,.T.);
#518=IFCFACEOUTERBOUND(#154,.T.);
#519=IFCFACEOUTERBOUND(#155,.T.);
#520=IFCFACEOUTERBOUND(#156,.T.);
#521=IFCFACEOUTERBOUND(#157,.T.);
#522=IFCFACEOUTERBOUND(#158,.T.);
#523=IFCFACEOUTERBOUND(#159,.T.);
#524=IFCFACEOUTERBOUND(#160,.T.);
#525=IFCFACEOUTERBOUND(#161,.T.);
#526=IFCFACEOUTERBOUND(#162,.T.);
#527=IFCFACEOUTERBOUND(#163,.T.);
#528=IFCFACEOUTERBOUND(#164,.T.);
#529=IFCFACEOUTERBOUND(#165,.T.);
#530=IFCFACEOUTERBOUND(#166,.T.);
#531=IFCFACEOUTERBOUND(#167,.T.);
#532=IFCFACEOUTERBOUND(#168,.T.);
#533=IFCFACEOUTERBOUND(#169,.T.);
#534=IFCFACEOUTERBOUND(#170,.T.);
#535=IFCFACEOUTERBOUND(#171,.T.);
#536=IFCFACEOUTERBOUND(#172,.T.);
#537=IFCFACEOUTERBOUND(#173,.T.);
#538=IFCFACEOUTERBOUND(#174,.T.);
#539=IFCFACEOUTERBOUND(#175,.T.);
#540=IFCFACEOUTERBOUND(#176,.T.);
#541=IFCFACEOUTERBOUND(#177,.T.);
#542=IFCFACEOUTERBOUND(#178,.T.);
#543=IFCFACEOUTERBOUND(#179,.T.);
#544=IFCFACEOUTERBOUND(#180,.T.);
#545=IFCFACEOUTERBOUND(#181,.T.);
#546=IFCFACEOUTERBOUND(#182,.T.);
#547=IFCFACEOUTERBOUND(#183,.T.);
#548=IFCFACEOUTERBOUND(#184,.T.);
#549=IFCFACEOUTERBOUND(#185,.T.);
#550=IFCFACEOUTERBOUND(#186,.T.);
#551=IFCFACEOUTERBOUND(#187,.T.);
#552=IFCFACEOUTERBOUND(#188,.T.);
#553=IFCFACEOUTERBOUND(#189,.T.);
#554=IFCFACEOUTERBOUND(#190,.T.);
#555=IFCFACEOUTERBOUND(#191,.T.);
#556=IFCFACEOUTERBOUND(#192,.T.);
#557=IFCFACEOUTERBOUND(#193,.T.);
#558=IFCFACEOUTERBOUND(#194,.T.);
#559=IFCFACEOUTERBOUND(#195,.T.);
#560=IFCFACEOUTERBOUND(#196,.T.);
#561=IFCFACEOUTERBOUND(#197,.T.);
#562=IFCFACEOUTERBOUND(#198,.T.);
#563=IFCFACEOUTERBOUND(#199,.T.);
#564=IFCFACEOUTERBOUND(#200,.T.);
#565=IFCFACEOUTERBOUND(#201,.T.);
#566=IFCFACEOUTERBOUND(#202,.T.);
#567=IFCFACEOUTERBOUND(#203,.T.);
#568=IFCFACEOUTERBOUND(#204,.T.);
#569=IFCFACEOUTERBOUND(#205,.T.);
#570=IFCFACEOUTERBOUND(#206,.T.);
#571=IFCFACEOUTERBOUND(#207,.T.);
#572=IFCFACEOUTERBOUND(#208,.T.);
#573=IFCFACEOUTERBOUND(#209,.T.);
#574=IFCFACEOUTERBOUND(#210,.T.);
#575=IFCFACEOUTERBOUND(#211,.T.);
#576=IFCFACEOUTERBOUND(#212,.T.);
#577=IFCFACEOUTERBOUND(#213,.T.);
#578=IFCFACEOUTERBOUND(#214,.T.);
#579=IFCFACEOUTERBOUND(#215,.T.);
#580=IFCFACEOUTERBOUND(#216,.T.);
#581=IFCFACEOUTERBOUND(#217,.T.);
#582=IFCFACEOUTERBOUND(#218,.T.);
#583=IFCFACEOUTERBOUND(#219,.T.);
#584=IFCFACEOUTERBOUND(#220,.T.);
#585=IFCFACEOUTERBOUND(#221,.T.);
#586=IFCFACEOUTERBOUND(#222,.T.);
#587=IFCFACEOUTERBOUND(#223,.T.);
#588=IFCFACEOUTERBOUND(#224,.T.);
#589=IFCFACEOUTERBOUND(#225,.T.);
#590=IFCFACEOUTERBOUND(#226,.T.);
#591=IFCFACEOUTERBOUND(#227,.T.);
#592=IFCFACEOUTERBOUND(#228,.T.);
#593=IFCFACEOUTERBOUND(#229,.T.);
#594=IFCFACEOUTERBOUND(#230,.T.);
#595=IFCFACEOUTERBOUND(#231,.T.);
#596=IFCFACEOUTERBOUND(#232,.T.);
#597=IFCFACEOUTERBOUND(#233,.T.);
#598=IFCFACEOUTERBOUND(#234,.T.);
#599=IFCFACEOUTERBOUND(#235,.T.);
#600=IFCFACEOUTERBOUND(#236,.T.);
#601=IFCFACEOUTERBOUND(#237,.T.);
#602=IFCFACEOUTERBOUND(#238,.T.);
#603=IFCFACEOUTERBOUND(#239,.T.);
#604=IFCFACEOUTERBOUND(#240,.T.);
#605=IFCFACEOUTERBOUND(#241,.T.);
#606=IFCFACEOUTERBOUND(#242,.T.);
#607=IFCFACEOUTERBOUND(#243,.T.);
#608=IFCFACEOUTERBOUND(#244,.T.);
#609=IFCFACEOUTERBOUND(#245,.T.);
#610=IFCFACEOUTERBOUND(#246,.T.);
#611=IFCFACEOUTERBOUND(#247,.T.);
#612=IFCFACEOUTERBOUND(#248,.T.);
#613=IFCFACEOUTERBOUND(#249,.T.);
#614=IFCFACEOUTERBOUND(#250,.T.);
#615=IFCFACEOUTERBOUND(#251,.T.);
#616=IFCFACEOUTERBOUND(#252,.T.);
#617=IFCFACEOUTERBOUND(#253,.T.);
#618=IFCFACEOUTERBOUND(#254,.T.);
#619=IFCFACEOUTERBOUND(#255,.T.);
#620=IFCFACEOUTERBOUND(#256,.T.);
#621=IFCFACEOUTERBOUND(#257,.T.);
#622=IFCFACEOUTERBOUND(#258,.T.);
#623=IFCFACEOUTERBOUND(#259,.T.);
#624=IFCFACEOUTERBOUND(#260,.T.);
#625=IFCFACEOUTERBOUND(#261,.T.);
#626=IFCFACEOUTERBOUND(#262,.T.);
#627=IFCFACEOUTERBOUND(#263,.T.);
#628=IFCFACEOUTERBOUND(#264,.T.);
#629=IFCFACEOUTERBOUND(#265,.T.);
#630=IFCFACEOUTERBOUND(#266,.T.);
#631=IFCFACEOUTERBOUND(#267,.T.);
#632=IFCFACEOUTERBOUND(#268,.T.);
#633=IFCFACEOUTERBOUND(#269,.T.);
#634=IFCFACEOUTERBOUND(#270,.T.);
#635=IFCFACEOUTERBOUND(#271,.T.);
#636=IFCFACEOUTERBOUND(#272,.T.);
#637=IFCFACEOUTERBOUND(#273,.T.);
#638=IFCFACEOUTERBOUND(#274,.T.);
#639=IFCFACEOUTERBOUND(#275,.T.);
#640=IFCFACEOUTERBOUND(#276,.T.);
#641=IFCFACEOUTERBOUND(#277,.T.);
#642=IFCFACEOUTERBOUND(#278,.T.);
#643=IFCFACEOUTERBOUND(#279,.T.);
#644=IFCFACEOUTERBOUND(#280,.T.);
#645=IFCFACEOUTERBOUND(#281,.T.);
#646=IFCFACEOUTERBOUND(#282,.T.);
#647=IFCFACEOUTERBOUND(#283,.T.);
#648=IFCFACEOUTERBOUND(#284,.T.);
#649=IFCFACEOUTERBOUND(#285,.T.);
#650=IFCFACEOUTERBOUND(#286,.T.);
#651=IFCFACEOUTERBOUND(#287,.T.);
#652=IFCFACEOUTERBOUND(#288,.T.);
#653=IFCFACEOUTERBOUND(#289,.T.);
#654=IFCFACEOUTERBOUND(#290,.T.);
#655=IFCFACEOUTERBOUND(#291,.T.);
#656=IFCFACEOUTERBOUND(#292,.T.);
#657=IFCFACEOUTERBOUND(#293,.T.);
#658=IFCFACEOUTERBOUND(#294,.T.);
#659=IFCFACEOUTERBOUND(#295,.T.);
#660=IFCFACEOUTERBOUND(#296,.T.);
#661=IFCFACEOUTERBOUND(#297,.T.);
#662=IFCFACEOUTERBOUND(#298,.T.);
#663=IFCFACEOUTERBOUND(#299,.T.);
#664=IFCFACEOUTERBOUND(#300,.T.);
#665=IFCFACEOUTERBOUND(#301,.T.);
#666=IFCFACEOUTERBOUND(#302,.T.);
#667=IFCFACEOUTERBOUND(#303,.T.);
#668=IFCFACEOUTERBOUND(#304,.T.);
#669=IFCFACEOUTERBOUND(#305,.T.);
#670=IFCFACEOUTERBOUND(#306,.T.);
#671=IFCFACEOUTERBOUND(#307,.T.);
#672=IFCFACEOUTERBOUND(#308,.T.);
#673=IFCFACEOUTERBOUND(#309,.T.);
#674=IFCFACEOUTERBOUND(#310,.T.);
#675=IFCFACEOUTERBOUND(#311,.T.);
#676=IFCFACEOUTERBOUND(#312,.T.);
#677=IFCFACEOUTERBOUND(#313,.T.);
#678=IFCFACEOUTERBOUND(#314,.T.);
#679=IFCFACEOUTERBOUND(#315,.T.);
#680=IFCFACEOUTERBOUND(#316,.T.);
#681=IFCFACEOUTERBOUND(#317,.T.);
#682=IFCFACEOUTERBOUND(#318,.T.);
#683=IFCFACEOUTERBOUND(#319,.T.);
#684=IFCFACEOUTERBOUND(#320,.T.);
#685=IFCFACEOUTERBOUND(#321,.T.);
#686=IFCFACEOUTERBOUND(#322,.T.);
#687=IFCFACEOUTERBOUND(#323,.T.);
#688=IFCFACEOUTERBOUND(#324,.T.);
#689=IFCFACEOUTERBOUND(#325,.T.);
#690=IFCFACEOUTERBOUND(#326,.T.);
#691=IFCFACEOUTERBOUND(#327,.T.);
#692=IFCFACEOUTERBOUND(#328,.T.);
#693=IFCFACEOUTERBOUND(#329,.T.);
#694=IFCFACEOUTERBOUND(#330,.T.);
#695=IFCFACEOUTERBOUND(#331,.T.);
#696=IFCFACEOUTERBOUND(#332,.T.);
#697=IFCFACEOUTERBOUND(#333,.T.);
#698=IFCFACEOUTERBOUND(#334,.T.);
#699=IFCFACEOUTERBOUND(#335,.T.);
#700=IFCFACEOUTERBOUND(#336,.T.);
#701=IFCFACEOUTERBOUND(#337,.T.);
#702=IFCFACEOUTERBOUND(#338,.T.);
#703=IFCFACEOUTERBOUND(#339,.T.);
#704=IFCFACEOUTERBOUND(#340,.T.);
#705=IFCFACEOUTERBOUND(#341,.T.);
#706=IFCFACEOUTERBOUND(#342,.T.);
#707=IFCFACEOUTERBOUND(#343,.T.);
#708=IFCFACEOUTERBOUND(#344,.T.);
#709=IFCFACEOUTERBOUND(#345,.T.);
#710=IFCFACEOUTERBOUND(#346,.T.);
#711=IFCFACEOUTERBOUND(#347,.T.);
#712=IFCFACEOUTERBOUND(#348,.T.);
#713=IFCFACEOUTERBOUND(#349,.T.);
#714=IFCFACEOUTERBOUND(#350,.T.);
#715=IFCFACEOUTERBOUND(#351,.T.);
#716=IFCFACEOUTERBOUND(#352,.T.);
#717=IFCFACEOUTERBOUND(#353,.T.);
#718=IFCFACEOUTERBOUND(#354,.T.);
#719=IFCFACEOUTERBOUND(#355,.T.);
#720=IFCFACEOUTERBOUND(#356,.T.);
#721=IFCFACEOUTERBOUND(#357,.T.);
#722=IFCFACEOUTERBOUND(#358,.T.);
#723=IFCFACEOUTERBOUND(#359,.T.);
#724=IFCFACEOUTERBOUND(#360,.T.);
#725=IFCFACEOUTERBOUND(#361,.T.);
#726=IFCFACEOUTERBOUND(#362,.T.);
#727=IFCFACEOUTERBOUND(#363,.T.);
#728=IFCFACEOUTERBOUND(#364,.T.);
#729=IFCFACEOUTERBOUND(#365,.T.);
#730=IFCFACEOUTERBOUND(#366,.T.);
#731=IFCFACEOUTERBOUND(#367,.T.);
#732=IFCFACEOUTERBOUND(#368,.T.);
#733=IFCFACEOUTERBOUND(#369,.T.);
#734=IFCFACEOUTERBOUND(#370,.T.);
#735=IFCFACEOUTERBOUND(#371,.T.);
#736=IFCFACEOUTERBOUND(#372,.T.);
#737=IFCFACEOUTERBOUND(#373,.T.);
#738=IFCFACEOUTERBOUND(#374,.T.);
#739=IFCFACEOUTERBOUND(#375,.T.);
#740=IFCFACEOUTERBOUND(#376,.T.);
#741=IFCFACEOUTERBOUND(#377,.T.);
#742=IFCFACEOUTERBOUND(#378,.T.);
#743=IFCFACEOUTERBOUND(#379,.T.);
#744=IFCFACEOUTERBOUND(#380,.T.);
#745=IFCFACEOUTERBOUND(#381,.T.);
#746=IFCFACEOUTERBOUND(#382,.T.);
#747=IFCFACEOUTERBOUND(#383,.T.);
#748=IFCFACEOUTERBOUND(#384,.T.);
#749=IFCFACEOUTERBOUND(#385,.T.);
#750=IFCFACEOUTERBOUND(#386,.T.);
#751=IFCFACEOUTERBOUND(#387,.T.);
#752=IFCFACEOUTERBOUND(#388,.T.);
#753=IFCFACEOUTERBOUND(#389,.T.);
#754=IFCFACE((#390));
#755=IFCFACE((#391));
#756=IFCFACE((#392));
#757=IFCFACE((#393));
#758=IFCFACE((#394));
#759=IFCFACE((#395));
#760=IFCFACE((#396));
#761=IFCFACE((#397));
#762=IFCFACE((#398));
#763=IFCFACE((#399));
#764=IFCFACE((#400));
#765=IFCFACE((#401));
#766=IFCFACE((#402));
#767=IFCFACE((#403));
#768=IFCFACE((#404));
#769=IFCFACE((#405));
#770=IFCFACE((#406));
#771=IFCFACE((#407));
#772=IFCFACE((#408));
#773=IFCFACE((#409));
#774=IFCFACE((#410));
#775=IFCFACE((#411));
#776=IFCFACE((#412));
#777=IFCFACE((#413));
#778=IFCFACE((#414));
#779=IFCFACE((#415));
#780=IFCFACE((#416));
#781=IFCFACE((#417));
#782=IFCFACE((#418));
#783=IFCFACE((#419));
#784=IFCFACE((#420));
#785=IFCFACE((#421));
#786=IFCFACE((#422));
#787=IFCFACE((#423));
#788=IFCFACE((#424));
#789=IFCFACE((#425));
#790=IFCFACE((#426));
#791=IFCFACE((#427));
#792=IFCFACE((#428));
#793=IFCFACE((#429));
#794=IFCFACE((#430));
#795=IFCFACE((#431));
#796=IFCFACE((#432));
#797=IFCFACE((#433));
#798=IFCFACE((#434));
#799=IFCFACE((#435));
#800=IFCFACE((#436));
#801=IFCFACE((#437));
#802=IFCFACE((#438));
#803=IFCFACE((#439));
#804=IFCFACE((#440));
#805=IFCFACE((#441));
#806=IFCFACE((#442));
#807=IFCFACE((#443));
#808=IFCFACE((#444));
#809=IFCFACE((#445));
#810=IFCFACE((#446));
#811=IFCFACE((#447));
#812=IFCFACE((#448));
#813=IFCFACE((#449));
#814=IFCFACE((#450));
#815=IFCFACE((#451));
#816=IFCFACE((#452));
#817=IFCFACE((#453));
#818=IFCFACE((#454));
#819=IFCFACE((#455));
#820=IFCFACE((#456));
#821=IFCFACE((#457));
#822=IFCFACE((#458));
#823=IFCFACE((#459));
#824=IFCFACE((#460));
#825=IFCFACE((#461));
#826=IFCFACE((#462));
#827=IFCFACE((#463));
#828=IFCFACE((#464));
#829=IFCFACE((#465));
#830=IFCFACE((#466));
#831=IFCFACE((#467));
#832=IFCFACE((#468));
#833=IFCFACE((#469));
#834=IFCFACE((#470));
#835=IFCFACE((#471));
#836=IFCFACE((#472));
#837=IFCFACE((#473));
#838=IFCFACE((#474));
#839=IFCFACE((#475));
#840=IFCFACE((#476));
#841=IFCFACE((#477));
#842=IFCFACE((#478));
#843=IFCFACE((#479));
#844=IFCFACE((#480));
#845=IFCFACE((#481));
#846=IFCFACE((#482));
#847=IFCFACE((#483));
#848=IFCFACE((#484));
#849=IFCFACE((#485));
#850=IFCFACE((#486));
#851=IFCFACE((#487));
#852=IFCFACE((#488));
#853=IFCFACE((#489));
#854=IFCFACE((#490));
#855=IFCFACE((#491));
#856=IFCFACE((#492));
#857=IFCFACE((#493));
#858=IFCFACE((#494));
#859=IFCFACE((#495));
#860=IFCFACE((#496));
#861=IFCFACE((#497));
#862=IFCFACE((#498));
#863=IFCFACE((#499));
#864=IFCFACE((#500));
#865=IFCFACE((#501));
#866=IFCFACE((#502));
#867=IFCFACE((#503));
#868=IFCFACE((#504));
#869=IFCFACE((#505));
#870=IFCFACE((#506));
#871=IFCFACE((#507));
#872=IFCFACE((#508));
#873=IFCFACE((#509));
#874=IFCFACE((#510));
#875=IFCFACE((#511));
#876=IFCFACE((#512));
#877=IFCFACE((#513));
#878=IFCFACE((#514));
#879=IFCFACE((#515));
#880=IFCFACE((#516));
#881=IFCFACE((#517));
#882=IFCFACE((#518));
#883=IFCFACE((#519));
#884=IFCFACE((#520));
#885=IFCFACE((#521));
#886=IFCFACE((#522));
#887=IFCFACE((#523));
#888=IFCFACE((#524));
#889=IFCFACE((#525));
#890=IFCFACE((#526));
#891=IFCFACE((#527));
#892=IFCFACE((#528));
#893=IFCFACE((#529));
#894=IFCFACE((#530));
#895=IFCFACE((#531));
#896=IFCFACE((#532));
#897=IFCFACE((#533));
#898=IFCFACE((#534));
#899=IFCFACE((#535));
#900=IFCFACE((#536));
#901=IFCFACE((#537));
#902=IFCFACE((#538));
#903=IFCFACE((#539));
#904=IFCFACE((#540));
#905=IFCFACE((#541));
#906=IFCFACE((#542));
#907=IFCFACE((#543));
#908=IFCFACE((#544));
#909=IFCFACE((#545));
#910=IFCFACE((#546));
#911=IFCFACE((#547));
#912=IFCFACE((#548));
#913=IFCFACE((#549));
#914=IFCFACE((#550));
#915=IFCFACE((#551));
#916=IFCFACE((#552));
#917=IFCFACE((#553));
#918=IFCFACE((#554));
#919=IFCFACE((#555));
#920=IFCFACE((#556));
#921=IFCFACE((#557));
#922=IFCFACE((#558));
#923=IFCFACE((#559));
#924=IFCFACE((#560));
#925=IFCFACE((#561));
#926=IFCFACE((#562));
#927=IFCFACE((#563));
#928=IFCFACE((#564));
#929=IFCFACE((#565));
#930=IFCFACE((#566));
#931=IFCFACE((#567));
#932=IFCFACE((#568));
#933=IFCFACE((#569));
#934=IFCFACE((#570));
#935=IFCFACE((#571));
#936=IFCFACE((#572));
#937=IFCFACE((#573));
#938=IFCFACE((#574));
#939=IFCFACE((#575));
#940=IFCFACE((#576));
#941=IFCFACE((#577));
#942=IFCFACE((#578));
#943=IFCFACE((#579));
#944=IFCFACE((#580));
#945=IFCFACE((#581));
#946=IFCFACE((#582));
#947=IFCFACE((#583));
#948=IFCFACE((#584));
#949=IFCFACE((#585));
#950=IFCFACE((#586));
#951=IFCFACE((#587));
#952=IFCFACE((#588));
#953=IFCFACE((#589));
#954=IFCFACE((#590));
#955=IFCFACE((#591));
#956=IFCFACE((#592));
#957=IFCFACE((#593));
#958=IFCFACE((#594));
#959=IFCFACE((#595));
#960=IFCFACE((#596));
#961=IFCFACE((#597));
#962=IFCFACE((#598));
#963=IFCFACE((#599));
#964=IFCFACE((#600));
#965=IFCFACE((#601));
#966=IFCFACE((#602));
#967=IFCFACE((#603));
#968=IFCFACE((#604));
#969=IFCFACE((#605));
#970=IFCFACE((#606));
#971=IFCFACE((#607));
#972=IFCFACE((#608));
#973=IFCFACE((#609));
#974=IFCFACE((#610));
#975=IFCFACE((#611));
#976=IFCFACE((#612));
#977=IFCFACE((#613));
#978=IFCFACE((#614));
#979=IFCFACE((#615));
#980=IFCFACE((#616));
#981=IFCFACE((#617));
#982=IFCFACE((#618));
#983=IFCFACE((#619));
#984=IFCFACE((#620));
#985=IFCFACE((#621));
#986=IFCFACE((#622));
#987=IFCFACE((#623));
#988=IFCFACE((#624));
#989=IFCFACE((#625));
#990=IFCFACE((#626));
#991=IFCFACE((#627));
#992=IFCFACE((#628));
#993=IFCFACE((#629));
#994=IFCFACE((#630));
#995=IFCFACE((#631));
#996=IFCFACE((#632));
#997=IFCFACE((#633));
#998=IFCFACE((#634));
#999=IFCFACE((#635));
#1000=IFCFACE((#636));
#1001=IFCFACE((#637));
#1002=IFCFACE((#638));
#1003=IFCFACE((#639));
#1004=IFCFACE((#640));
#1005=IFCFACE((#641));
#1006=IFCFACE((#642));
#1007=IFCFACE((#643));
#1008=IFCFACE((#644));
#1009=IFCFACE((#645));
#1010=IFCFACE((#646));
#1011=IFCFACE((#647));
#1012=IFCFACE((#648));
#1013=IFCFACE((#649));
#1014=IFCFACE((#650));
#1015=IFCFACE((#651));
#1016=IFCFACE((#652));
#1017=IFCFACE((#653));
#1018=IFCFACE((#654));
#1019=IFCFACE((#655));
#1020=IFCFACE((#656));
#1021=IFCFACE((#657));
#1022=IFCFACE((#658));
#1023=IFCFACE((#659));
#1024=IFCFACE((#660));
#1025=IFCFACE((#661));
#1026=IFCFACE((#662));
#1027=IFCFACE((#663));
#1028=IFCFACE((#664));
#1029=IFCFACE((#665));
#1030=IFCFACE((#666));
#1031=IFCFACE((#667));
#1032=IFCFACE((#668));
#1033=IFCFACE((#669));
#1034=IFCFACE((#670));
#1035=IFCFACE((#671));
#1036=IFCFACE((#672));
#1037=IFCFACE((#673));
#1038=IFCFACE((#674));
#1039=IFCFACE((#675));
#1040=IFCFACE((#676));
#1041=IFCFACE((#677));
#1042=IFCFACE((#678));
#1043=IFCFACE((#679));
#1044=IFCFACE((#680));
#1045=IFCFACE((#681));
#1046=IFCFACE((#682));
#1047=IFCFACE((#683));
#1048=IFCFACE((#684));
#1049=IFCFACE((#685));
#1050=IFCFACE((#686));
#1051=IFCFACE((#687));
#1052=IFCFACE((#688));
#1053=IFCFACE((#689));
#1054=IFCFACE((#690));
#1055=IFCFACE((#691));
#1056=IFCFACE((#692));
#1057=IFCFACE((#693));
#1058=IFCFACE((#694));
#1059=IFCFACE((#695));
#1060=IFCFACE((#696));
#1061=IFCFACE((#697));
#1062=IFCFACE((#698));
#1063=IFCFACE((#699));
#1064=IFCFACE((#700));
#1065=IFCFACE((#701));
#1066=IFCFACE((#702));
#1067=IFCFACE((#703));
#1068=IFCFACE((#704));
#1069=IFCFACE((#705));
#1070=IFCFACE((#706));
#1071=IFCFACE((#707));
#1072=IFCFACE((#708));
#1073=IFCFACE((#709));
#1074=IFCFACE((#710));
#1075=IFCFACE((#711));
#1076=IFCFACE((#712));
#1077=IFCFACE((#713));
#1078=IFCFACE((#714));
#1079=IFCFACE((#715));
#1080=IFCFACE((#716));
#1081=IFCFACE((#717));
#1082=IFCFACE((#718));
#1083=IFCFACE((#719));
#1084=IFCFACE((#720));
#1085=IFCFACE((#721));
#1086=IFCFACE((#722));
#1087=IFCFACE((#723));
#1088=IFCFACE((#724));
#1089=IFCFACE((#725));
#1090=IFCFACE((#726));
#1091=IFCFACE((#727));
#1092=IFCFACE((#728));
#1093=IFCFACE((#729));
#1094=IFCFACE((#730));
#1095=IFCFACE((#731));
#1096=IFCFACE((#732));
#1097=IFCFACE((#733));
#1098=IFCFACE((#734));
#1099=IFCFACE((#735));
#1100=IFCFACE((#736));
#1101=IFCFACE((#737));
#1102=IFCFACE((#738));
#1103=IFCFACE((#739));
#1104=IFCFACE((#740));
#1105=IFCFACE((#741));
#1106=IFCFACE((#742));
#1107=IFCFACE((#743));
#1108=IFCFACE((#744));
#1109=IFCFACE((#745));
#1110=IFCFACE((#746));
#1111=IFCFACE((#747));
#1112=IFCFACE((#748));
#1113=IFCFACE((#749));
#1114=IFCFACE((#750));
#1115=IFCFACE((#751));
#1116=IFCFACE((#752));
#1117=IFCFACE((#753));
#1118=IFCCLOSEDSHELL((#754,#755,#756,#757,#758,#759,#760,#761,#762,#763,
#764,#765,#766,#767,#768,#769,#770,#771,#772,#773,#774,#775,#776,#777,#778,
#779,#780,#781,#782,#783,#784,#785,#786,#787,#788,#789,#790,#791,#792,#793,
#794,#795,#796,#797,#798,#799,#800,#801,#802,#803,#804,#805,#806,#807,#808,
#809,#810,#811,#812,#813,#814,#815,#816,#817,#818,#819,#820,#821,#822,#823,
#824,#825,#826,#827,#828,#829,#830,#831,#832,#833,#834,#835,#836,#837,#838,
#839,#840,#841,#842,#843,#844,#845,#846,#847,#848,#849,#850,#851,#852,#853,
#854,#855,#856,#857,#858,#859,#860,#861,#862,#863,#864,#865,#866,#867,#868,
#869,#870,#871,#872,#873,#874,#875,#876,#877,#878,#879,#880,#881,#882,#883,
#884,#885,#886,#887,#888,#889,#890,#891,#892,#893,#894,#895,#896,#897,#898,
#899,#900,#901,#902,#903,#904,#905,#906,#907,#908,#909,#910,#911,#912,#913,
#914,#915,#916,#917,#918,#919,#920,#921,#922,#923,#924,#925,#926,#927,#928,
#929,#930,#931,#932,#933,#934,#935,#936,#937,#938,#939,#940,#941,#942,#943,
#944,#945,#946,#947,#948,#949,#950,#951,#952,#953,#954,#955,#956,#957,#958,
#959,#960,#961,#962,#963,#964,#965,#966,#967,#968,#969,#970,#971,#972,#973,
#974,#975,#976,#977,#978,#979,#980,#981,#982,#983,#984,#985,#986,#987,#988,
#989,#990,#991,#992,#993,#994,#995,#996,#997,#998,#999,#1000,#1001,#1002,
#1003,#1004,#1005,#1006,#1007,#1008,#1009,#1010,#1011,#1012,#1013,#1014,
#1015,#1016,#1017,#1018,#1019,#1020,#1021,#1022,#1023,#1024,#1025,#1026,
#1027,#1028,#1029,#1030,#1031,#1032,#1033,#1034,#1035,#1036,#1037,#1038,
#1039,#1040,#1041,#1042,#1043,#1044,#1045,#1046,#1047,#1048,#1049,#1050,
#1051,#1052,#1053,#1054,#1055,#1056,#1057,#1058,#1059,#1060,#1061,#1062,
#1063,#1064,#1065,#1066,#1067,#1068,#1069,#1070,#1071,#1072,#1073,#1074,
#1075,#1076,#1077,#1078,#1079,#1080,#1081,#1082,#1083,#1084,#1085,#1086,
#1087,#1088,#1089,#1090,#1091,#1092,#1093,#1094,#1095,#1096,#1097,#1098,
#1099,#1100,#1101,#1102,#1103,#1104,#1105,#1106,#1107,#1108,#1109,#1110,
#1111,#1112,#1113,#1114,#1115,#1116,#1117));
#1119=IFCSTYLEDITEM(#1124,(#1120),'');
#1120=IFCPRESENTATIONSTYLEASSIGNMENT((#1121));
#1121=IFCSURFACESTYLE('',.BOTH.,(#1122));
#1122=IFCSURFACESTYLERENDERING(#1123,0.,$,$,$,$,$,$,.NOTDEFINED.);
#1123=IFCCOLOURRGB('',0.506983280181885,0.531564235687256,0.550000011920929);
#1124=IFCFACETEDBREP(#1118);
#1125=IFCPROJECT('07hUkdHgGydfWsFJH56q5B',#1462,'ClGray_4211550_JCA',
' ',' ',' ',' ',(#1457),#1126);
#1126=IFCUNITASSIGNMENT((#1458,#1459,#1460,#1461));
#1127=IFCGEOMETRICREPRESENTATIONSUBCONTEXT('Body','Model',*,*,*,*,#1457,
1.,.MODEL_VIEW.,$);
#1128=IFCAXIS2PLACEMENT3D(#1134,#1130,#1131);
#1129=IFCAXIS2PLACEMENT3D(#1456,#1132,#1133);
#1130=IFCDIRECTION((0.,0.,1.));
#1131=IFCDIRECTION((1.,0.,0.));
#1132=IFCDIRECTION((0.,0.,1.));
#1133=IFCDIRECTION((1.,0.,0.));
#1134=IFCCARTESIANPOINT((0.,0.,0.));
#1135=IFCCARTESIANPOINT((2.21731087802709,12.9184402376762,3.2));
#1136=IFCCARTESIANPOINT((2.21731087802709,12.9184402376762,-3.2));
#1137=IFCCARTESIANPOINT((2.4,12.,-3.2));
#1138=IFCCARTESIANPOINT((2.4,12.,3.2));
#1139=IFCCARTESIANPOINT((1.69705627484771,13.6970562748477,3.2));
#1140=IFCCARTESIANPOINT((1.69705627484771,13.6970562748477,-3.2));
#1141=IFCCARTESIANPOINT((0.918440237676215,14.2173108780271,3.2));
#1142=IFCCARTESIANPOINT((0.918440237676215,14.2173108780271,-3.2));
#1143=IFCCARTESIANPOINT((-3.85949435922393E-16,14.4,3.2));
#1144=IFCCARTESIANPOINT((-3.85949435922393E-16,14.4,-3.2));
#1145=IFCCARTESIANPOINT((-0.918440237676215,14.2173108780271,3.2));
#1146=IFCCARTESIANPOINT((-0.918440237676215,14.2173108780271,-3.2));
#1147=IFCCARTESIANPOINT((-1.69705627484771,13.6970562748477,3.2));
#1148=IFCCARTESIANPOINT((-1.69705627484771,13.6970562748477,-3.2));
#1149=IFCCARTESIANPOINT((-2.21731087802709,12.9184402376762,3.2));
#1150=IFCCARTESIANPOINT((-2.21731087802709,12.9184402376762,-3.2));
#1151=IFCCARTESIANPOINT((-2.4,12.,3.2));
#1152=IFCCARTESIANPOINT((-2.4,12.,-3.2));
#1153=IFCCARTESIANPOINT((-2.21731087802709,11.0815597623238,3.2));
#1154=IFCCARTESIANPOINT((-2.21731087802709,11.0815597623238,-3.2));
#1155=IFCCARTESIANPOINT((-1.69705627484771,10.3029437251523,3.2));
#1156=IFCCARTESIANPOINT((-1.69705627484771,10.3029437251523,-3.2));
#1157=IFCCARTESIANPOINT((-0.918440237676215,9.78268912197291,3.2));
#1158=IFCCARTESIANPOINT((-0.918440237676215,9.78268912197291,-3.2));
#1159=IFCCARTESIANPOINT((-4.40872847693047E-16,9.6,3.2));
#1160=IFCCARTESIANPOINT((-4.40872847693047E-16,9.6,-3.2));
#1161=IFCCARTESIANPOINT((0.918440237676216,9.78268912197291,3.2));
#1162=IFCCARTESIANPOINT((0.918440237676216,9.78268912197291,-3.2));
#1163=IFCCARTESIANPOINT((1.69705627484771,10.3029437251523,3.2));
#1164=IFCCARTESIANPOINT((1.69705627484771,10.3029437251523,-3.2));
#1165=IFCCARTESIANPOINT((2.21731087802709,11.0815597623238,3.2));
#1166=IFCCARTESIANPOINT((2.21731087802709,11.0815597623238,-3.2));
#1167=IFCCARTESIANPOINT((2.86402655078499,13.1863186403318,-3.2));
#1168=IFCCARTESIANPOINT((3.1,12.,-3.2));
#1169=IFCCARTESIANPOINT((2.86402655078499,10.8136813596682,-3.2));
#1170=IFCCARTESIANPOINT((2.1920310216783,9.8079689783217,-3.2));
#1171=IFCCARTESIANPOINT((1.18631864033178,9.13597344921501,-3.2));
#1172=IFCCARTESIANPOINT((-2.1920310216783,14.1920310216783,-3.2));
#1173=IFCCARTESIANPOINT((-1.18631864033178,14.864026550785,-3.2));
#1174=IFCCARTESIANPOINT((0.,15.1,-3.2));
#1175=IFCCARTESIANPOINT((1.18631864033178,14.864026550785,-3.2));
#1176=IFCCARTESIANPOINT((2.1920310216783,14.1920310216783,-3.2));
#1177=IFCCARTESIANPOINT((5.69460761603519E-16,8.9,-3.2));
#1178=IFCCARTESIANPOINT((-1.18631864033178,9.13597344921501,-3.2));
#1179=IFCCARTESIANPOINT((-2.86402655078499,13.1863186403318,-3.2));
#1180=IFCCARTESIANPOINT((-2.1920310216783,9.8079689783217,-3.2));
#1181=IFCCARTESIANPOINT((-2.86402655078499,10.8136813596682,-3.2));
#1182=IFCCARTESIANPOINT((-3.1,12.,-3.2));
#1183=IFCCARTESIANPOINT((-2.86402655078499,13.1863186403318,-4.));
#1184=IFCCARTESIANPOINT((-3.1,12.,-4.));
#1185=IFCCARTESIANPOINT((-2.1920310216783,14.1920310216783,-4.));
#1186=IFCCARTESIANPOINT((-1.18631864033178,14.864026550785,-4.));
#1187=IFCCARTESIANPOINT((0.,15.1,-4.));
#1188=IFCCARTESIANPOINT((1.18631864033178,14.864026550785,-4.));
#1189=IFCCARTESIANPOINT((2.1920310216783,14.1920310216783,-4.));
#1190=IFCCARTESIANPOINT((2.86402655078499,13.1863186403318,-4.));
#1191=IFCCARTESIANPOINT((3.1,12.,-4.));
#1192=IFCCARTESIANPOINT((2.86402655078499,10.8136813596682,-4.));
#1193=IFCCARTESIANPOINT((2.1920310216783,9.8079689783217,-4.));
#1194=IFCCARTESIANPOINT((1.18631864033178,9.13597344921501,-4.));
#1195=IFCCARTESIANPOINT((5.69460761603519E-16,8.9,-4.));
#1196=IFCCARTESIANPOINT((-1.18631864033178,9.13597344921501,-4.));
#1197=IFCCARTESIANPOINT((-2.1920310216783,9.8079689783217,-4.));
#1198=IFCCARTESIANPOINT((-2.86402655078499,10.8136813596682,-4.));
#1199=IFCCARTESIANPOINT((-2.1920310216783,14.1920310216783,3.2));
#1200=IFCCARTESIANPOINT((-2.86402655078499,13.1863186403318,3.2));
#1201=IFCCARTESIANPOINT((-3.1,12.,3.2));
#1202=IFCCARTESIANPOINT((-2.86402655078499,10.8136813596682,3.2));
#1203=IFCCARTESIANPOINT((2.86402655078499,13.1863186403318,3.2));
#1204=IFCCARTESIANPOINT((2.1920310216783,14.1920310216783,3.2));
#1205=IFCCARTESIANPOINT((-2.1920310216783,9.8079689783217,3.2));
#1206=IFCCARTESIANPOINT((1.18631864033178,14.864026550785,3.2));
#1207=IFCCARTESIANPOINT((-4.98518021399757E-16,15.1,3.2));
#1208=IFCCARTESIANPOINT((-1.18631864033178,14.864026550785,3.2));
#1209=IFCCARTESIANPOINT((-1.18631864033178,9.13597344921501,3.2));
#1210=IFCCARTESIANPOINT((-5.69460761603519E-16,8.9,3.2));
#1211=IFCCARTESIANPOINT((1.18631864033178,9.13597344921501,3.2));
#1212=IFCCARTESIANPOINT((2.1920310216783,9.8079689783217,3.2));
#1213=IFCCARTESIANPOINT((2.86402655078499,10.8136813596682,3.2));
#1214=IFCCARTESIANPOINT((3.1,12.,3.2));
#1215=IFCCARTESIANPOINT((2.86402655078499,13.1863186403318,4.));
#1216=IFCCARTESIANPOINT((3.1,12.,4.));
#1217=IFCCARTESIANPOINT((2.1920310216783,14.1920310216783,4.));
#1218=IFCCARTESIANPOINT((1.18631864033178,14.864026550785,4.));
#1219=IFCCARTESIANPOINT((-4.98518021399757E-16,15.1,4.));
#1220=IFCCARTESIANPOINT((-1.18631864033178,14.864026550785,4.));
#1221=IFCCARTESIANPOINT((-2.1920310216783,14.1920310216783,4.));
#1222=IFCCARTESIANPOINT((-2.86402655078499,13.1863186403318,4.));
#1223=IFCCARTESIANPOINT((-3.1,12.,4.));
#1224=IFCCARTESIANPOINT((-2.86402655078499,10.8136813596682,4.));
#1225=IFCCARTESIANPOINT((-2.1920310216783,9.8079689783217,4.));
#1226=IFCCARTESIANPOINT((-1.18631864033178,9.13597344921501,4.));
#1227=IFCCARTESIANPOINT((-5.69460761603519E-16,8.9,4.));
#1228=IFCCARTESIANPOINT((1.18631864033178,9.13597344921501,4.));
#1229=IFCCARTESIANPOINT((2.1920310216783,9.8079689783217,4.));
#1230=IFCCARTESIANPOINT((2.86402655078499,10.8136813596682,4.));
#1231=IFCCARTESIANPOINT((-1.37766035651432,15.3259663170406,-4.));
#1232=IFCCARTESIANPOINT((5.78924153883589E-16,15.6,-4.));
#1233=IFCCARTESIANPOINT((1.37766035651432,15.3259663170406,-4.));
#1234=IFCCARTESIANPOINT((2.54558441227157,14.5455844122716,-4.));
#1235=IFCCARTESIANPOINT((3.32596631704063,13.3776603565143,-4.));
#1236=IFCCARTESIANPOINT((3.6,12.,-4.));
#1237=IFCCARTESIANPOINT((1.37766035651432,8.67403368295937,-4.));
#1238=IFCCARTESIANPOINT((6.61309271539571E-16,8.4,-4.));
#1239=IFCCARTESIANPOINT((-1.37766035651432,8.67403368295937,-4.));
#1240=IFCCARTESIANPOINT((3.32596631704063,10.6223396434857,-4.));
#1241=IFCCARTESIANPOINT((-2.54558441227157,9.45441558772843,-4.));
#1242=IFCCARTESIANPOINT((-3.32596631704063,13.3776603565143,-4.));
#1243=IFCCARTESIANPOINT((-2.54558441227157,14.5455844122716,-4.));
#1244=IFCCARTESIANPOINT((2.54558441227157,9.45441558772843,-4.));
#1245=IFCCARTESIANPOINT((-3.32596631704063,10.6223396434857,-4.));
#1246=IFCCARTESIANPOINT((-3.6,12.,-4.));
#1247=IFCCARTESIANPOINT((1.37766035651432,15.3259663170406,4.));
#1248=IFCCARTESIANPOINT((5.78924153883589E-16,15.6,4.));
#1249=IFCCARTESIANPOINT((-1.37766035651432,15.3259663170406,4.));
#1250=IFCCARTESIANPOINT((-2.54558441227157,14.5455844122716,4.));
#1251=IFCCARTESIANPOINT((-3.32596631704063,13.3776603565143,4.));
#1252=IFCCARTESIANPOINT((-3.6,12.,4.));
#1253=IFCCARTESIANPOINT((-1.37766035651432,8.67403368295937,4.));
#1254=IFCCARTESIANPOINT((6.61309271539571E-16,8.4,4.));
#1255=IFCCARTESIANPOINT((1.37766035651432,8.67403368295937,4.));
#1256=IFCCARTESIANPOINT((-3.32596631704063,10.6223396434857,4.));
#1257=IFCCARTESIANPOINT((2.54558441227157,9.45441558772843,4.));
#1258=IFCCARTESIANPOINT((3.32596631704063,13.3776603565143,4.));
#1259=IFCCARTESIANPOINT((2.54558441227157,14.5455844122716,4.));
#1260=IFCCARTESIANPOINT((-2.54558441227157,9.45441558772843,4.));
#1261=IFCCARTESIANPOINT((3.32596631704063,10.6223396434857,4.));
#1262=IFCCARTESIANPOINT((3.6,12.,4.));
#1263=IFCCARTESIANPOINT((-3.6,12.,0.));
#1264=IFCCARTESIANPOINT((3.6,12.,0.));
#1265=IFCCARTESIANPOINT((-3.32812817836543,10.627570465062,-1.37242953493795));
#1266=IFCCARTESIANPOINT((-3.56093644262377,11.4711033639793,-0.52889663602066));
#1267=IFCCARTESIANPOINT((-3.56093644262377,11.4711033639793,0.528896636020666));
#1268=IFCCARTESIANPOINT((-3.32812817836543,10.627570465062,1.37242953493795));
#1269=IFCCARTESIANPOINT((-3.24327199048154,10.4375702269357,1.56242977306435));
#1270=IFCCARTESIANPOINT((-2.54399818504823,9.45283034831378,1.83801767979531));
#1271=IFCCARTESIANPOINT((-1.56242977306435,8.75672800951846,3.24327199048154));
#1272=IFCCARTESIANPOINT((-2.40285088177295,9.3192710618261,1.89364465959652));
#1273=IFCCARTESIANPOINT((-1.89364465959652,8.93828317717305,2.40285088177294));
#1274=IFCCARTESIANPOINT((-0.536716173587148,8.44023375079065,3.55976624920935));
#1275=IFCCARTESIANPOINT((-1.38336461983121,8.67640220113815,3.32359779886185));
#1276=IFCCARTESIANPOINT((6.61309271539571E-16,8.4,3.6));
#1277=IFCCARTESIANPOINT((0.536716173587152,8.44023375079066,3.55976624920934));
#1278=IFCCARTESIANPOINT((1.56242977306435,8.75672800951846,3.24327199048154));
#1279=IFCCARTESIANPOINT((1.89364465959652,8.93828317717305,2.40285088177294));
#1280=IFCCARTESIANPOINT((2.40285088177295,9.3192710618261,1.89364465959652));
#1281=IFCCARTESIANPOINT((1.38336461983121,8.67640220113815,3.32359779886186));
#1282=IFCCARTESIANPOINT((2.54399818504823,9.45283034831378,1.83801767979531));
#1283=IFCCARTESIANPOINT((3.24327199048154,10.4375702269357,1.56242977306435));
#1284=IFCCARTESIANPOINT((3.32812817836543,10.627570465062,1.37242953493795));
#1285=IFCCARTESIANPOINT((3.56093644262377,11.4711033639793,0.528896636020663));
#1286=IFCCARTESIANPOINT((3.56093644262377,11.4711033639793,-0.528896636020661));
#1287=IFCCARTESIANPOINT((3.32812817836543,10.627570465062,-1.37242953493796));
#1288=IFCCARTESIANPOINT((3.24327199048154,10.4375702269357,-1.56242977306435));
#1289=IFCCARTESIANPOINT((2.54399818504823,9.45283034831378,-1.83801767979531));
#1290=IFCCARTESIANPOINT((1.56242977306435,8.75672800951846,-3.24327199048154));
#1291=IFCCARTESIANPOINT((2.40285088177294,9.3192710618261,-1.89364465959652));
#1292=IFCCARTESIANPOINT((1.89364465959652,8.93828317717305,-2.40285088177294));
#1293=IFCCARTESIANPOINT((0.536716173587152,8.44023375079066,-3.55976624920934));
#1294=IFCCARTESIANPOINT((1.38336461983121,8.67640220113815,-3.32359779886185));
#1295=IFCCARTESIANPOINT((6.61309271539571E-16,8.4,-3.6));
#1296=IFCCARTESIANPOINT((-0.536716173587151,8.44023375079066,-3.55976624920934));
#1297=IFCCARTESIANPOINT((-1.56242977306435,8.75672800951846,-3.24327199048154));
#1298=IFCCARTESIANPOINT((-1.89364465959652,8.93828317717305,-2.40285088177294));
#1299=IFCCARTESIANPOINT((-2.40285088177294,9.3192710618261,-1.89364465959652));
#1300=IFCCARTESIANPOINT((-1.38336461983121,8.67640220113815,-3.32359779886185));
#1301=IFCCARTESIANPOINT((-2.54399818504823,9.45283034831378,-1.83801767979531));
#1302=IFCCARTESIANPOINT((-3.24327199048154,10.4375702269357,-1.56242977306435));
#1303=IFCCARTESIANPOINT((-1.56242977306435,0.,3.24327199048154));
#1304=IFCCARTESIANPOINT((-1.89364465959652,0.,2.40285088177294));
#1305=IFCCARTESIANPOINT((-2.40285088177294,0.,1.89364465959652));
#1306=IFCCARTESIANPOINT((-3.24327199048154,0.,1.56242977306435));
#1307=IFCCARTESIANPOINT((-3.55976624920934,0.,0.536716173587155));
#1308=IFCCARTESIANPOINT((-3.55976624920935,0.,-0.536716173587148));
#1309=IFCCARTESIANPOINT((-3.24327199048154,0.,-1.56242977306435));
#1310=IFCCARTESIANPOINT((-2.40285088177294,0.,-1.89364465959652));
#1311=IFCCARTESIANPOINT((-1.89364465959652,0.,-2.40285088177294));
#1312=IFCCARTESIANPOINT((-1.56242977306435,0.,-3.24327199048154));
#1313=IFCCARTESIANPOINT((-0.536716173587153,0.,-3.55976624920934));
#1314=IFCCARTESIANPOINT((0.536716173587151,0.,-3.55976624920935));
#1315=IFCCARTESIANPOINT((1.56242977306435,0.,-3.24327199048154));
#1316=IFCCARTESIANPOINT((1.89364465959652,0.,-2.40285088177294));
#1317=IFCCARTESIANPOINT((2.40285088177294,0.,-1.89364465959652));
#1318=IFCCARTESIANPOINT((3.24327199048154,0.,-1.56242977306435));
#1319=IFCCARTESIANPOINT((3.55976624920935,0.,-0.536716173587151));
#1320=IFCCARTESIANPOINT((3.55976624920934,0.,0.536716173587152));
#1321=IFCCARTESIANPOINT((3.24327199048154,0.,1.56242977306435));
#1322=IFCCARTESIANPOINT((2.40285088177294,0.,1.89364465959652));
#1323=IFCCARTESIANPOINT((1.89364465959652,0.,2.40285088177294));
#1324=IFCCARTESIANPOINT((1.56242977306435,0.,3.24327199048154));
#1325=IFCCARTESIANPOINT((0.536716173587152,0.,3.55976624920934));
#1326=IFCCARTESIANPOINT((-0.536716173587151,0.,3.55976624920935));
#1327=IFCCARTESIANPOINT((1.4,0.,0.9));
#1328=IFCCARTESIANPOINT((2.15638586528478,0.,0.9));
#1329=IFCCARTESIANPOINT((-0.9,0.,1.4));
#1330=IFCCARTESIANPOINT((-0.9,0.,2.15638586528478));
#1331=IFCCARTESIANPOINT((0.895418081857297,0.,2.18630892753907));
#1332=IFCCARTESIANPOINT((0.9,0.,2.15638586528478));
#1333=IFCCARTESIANPOINT((2.18630892753907,0.,0.895418081857297));
#1334=IFCCARTESIANPOINT((2.15638586528478,0.,-0.9));
#1335=IFCCARTESIANPOINT((1.4,0.,-0.9));
#1336=IFCCARTESIANPOINT((1.20865828381746,0.,-0.938060233744357));
#1337=IFCCARTESIANPOINT((1.04644660940673,0.,-1.04644660940673));
#1338=IFCCARTESIANPOINT((0.938060233744357,0.,-1.20865828381746));
#1339=IFCCARTESIANPOINT((0.9,0.,-1.4));
#1340=IFCCARTESIANPOINT((0.9,0.,-2.15638586528478));
#1341=IFCCARTESIANPOINT((-1.4,0.,-0.9));
#1342=IFCCARTESIANPOINT((-2.15638586528478,0.,-0.9));
#1343=IFCCARTESIANPOINT((-2.18630892753907,0.,0.895418081857297));
#1344=IFCCARTESIANPOINT((-2.15638586528478,0.,0.9));
#1345=IFCCARTESIANPOINT((-2.23543793189619,0.,0.86124353651175));
#1346=IFCCARTESIANPOINT((-2.2134898893568,0.,0.882092206906518));
#1347=IFCCARTESIANPOINT((-0.895418081857297,0.,2.18630892753907));
#1348=IFCCARTESIANPOINT((0.882092206906518,0.,2.2134898893568));
#1349=IFCCARTESIANPOINT((0.834782608695652,0.,2.25014177247108));
#1350=IFCCARTESIANPOINT((0.86124353651175,0.,2.23543793189619));
#1351=IFCCARTESIANPOINT((2.2134898893568,0.,0.882092206906518));
#1352=IFCCARTESIANPOINT((2.18630892753907,0.,-0.895418081857298));
#1353=IFCCARTESIANPOINT((-2.18630892753907,0.,-0.895418081857297));
#1354=IFCCARTESIANPOINT((-0.882092206906518,0.,2.2134898893568));
#1355=IFCCARTESIANPOINT((2.25014177247108,0.,0.834782608695652));
#1356=IFCCARTESIANPOINT((2.4,0.,-1.46957615897682E-16));
#1357=IFCCARTESIANPOINT((2.23543793189619,0.,0.86124353651175));
#1358=IFCCARTESIANPOINT((0.895418081857297,0.,-2.18630892753907));
#1359=IFCCARTESIANPOINT((-2.2134898893568,0.,-0.882092206906518));
#1360=IFCCARTESIANPOINT((-2.25014177247108,0.,0.834782608695652));
#1361=IFCCARTESIANPOINT((-0.834782608695652,0.,2.25014177247108));
#1362=IFCCARTESIANPOINT((2.93915231795365E-16,0.,2.4));
#1363=IFCCARTESIANPOINT((-0.86124353651175,0.,2.23543793189619));
#1364=IFCCARTESIANPOINT((2.2134898893568,0.,-0.882092206906518));
#1365=IFCCARTESIANPOINT((-2.25014177247108,0.,-0.834782608695652));
#1366=IFCCARTESIANPOINT((-2.4,0.,2.57250105497335E-15));
#1367=IFCCARTESIANPOINT((-2.23543793189619,0.,-0.86124353651175));
#1368=IFCCARTESIANPOINT((2.25014177247108,0.,-0.834782608695652));
#1369=IFCCARTESIANPOINT((0.882092206906518,0.,-2.2134898893568));
#1370=IFCCARTESIANPOINT((2.23543793189619,0.,-0.86124353651175));
#1371=IFCCARTESIANPOINT((-0.895418081857297,0.,-2.18630892753907));
#1372=IFCCARTESIANPOINT((-0.9,0.,-2.15638586528478));
#1373=IFCCARTESIANPOINT((-0.86124353651175,0.,-2.23543793189619));
#1374=IFCCARTESIANPOINT((-0.882092206906518,0.,-2.2134898893568));
#1375=IFCCARTESIANPOINT((0.9,0.,1.4));
#1376=IFCCARTESIANPOINT((0.938060233744357,0.,1.20865828381746));
#1377=IFCCARTESIANPOINT((1.04644660940673,0.,1.04644660940673));
#1378=IFCCARTESIANPOINT((1.20865828381746,0.,0.938060233744357));
#1379=IFCCARTESIANPOINT((0.86124353651175,0.,-2.23543793189619));
#1380=IFCCARTESIANPOINT((-0.834782608695652,0.,-2.25014177247108));
#1381=IFCCARTESIANPOINT((-1.4,0.,0.9));
#1382=IFCCARTESIANPOINT((-1.20865828381746,0.,0.938060233744357));
#1383=IFCCARTESIANPOINT((-1.04644660940673,0.,1.04644660940673));
#1384=IFCCARTESIANPOINT((-0.938060233744357,0.,1.20865828381746));
#1385=IFCCARTESIANPOINT((0.834782608695652,0.,-2.25014177247108));
#1386=IFCCARTESIANPOINT((-5.87830463590729E-16,0.,-2.4));
#1387=IFCCARTESIANPOINT((-0.9,0.,-1.4));
#1388=IFCCARTESIANPOINT((-0.938060233744357,0.,-1.20865828381746));
#1389=IFCCARTESIANPOINT((-1.04644660940673,0.,-1.04644660940673));
#1390=IFCCARTESIANPOINT((-1.20865828381746,0.,-0.938060233744357));
#1391=IFCCARTESIANPOINT((0.895418081857297,8.,2.18630892753907));
#1392=IFCCARTESIANPOINT((0.9,8.,2.15638586528478));
#1393=IFCCARTESIANPOINT((0.882092206906518,8.,2.2134898893568));
#1394=IFCCARTESIANPOINT((0.86124353651175,8.,2.23543793189619));
#1395=IFCCARTESIANPOINT((0.834782608695652,8.,2.25014177247108));
#1396=IFCCARTESIANPOINT((-0.9,8.,-1.4));
#1397=IFCCARTESIANPOINT((-0.9,8.,-2.15638586528478));
#1398=IFCCARTESIANPOINT((-0.895418081857297,8.,-2.18630892753907));
#1399=IFCCARTESIANPOINT((-0.882092206906518,8.,-2.2134898893568));
#1400=IFCCARTESIANPOINT((-0.86124353651175,8.,-2.23543793189619));
#1401=IFCCARTESIANPOINT((-0.834782608695652,8.,-2.25014177247108));
#1402=IFCCARTESIANPOINT((-5.87830463590729E-16,8.,-2.4));
#1403=IFCCARTESIANPOINT((0.834782608695652,8.,-2.25014177247108));
#1404=IFCCARTESIANPOINT((0.86124353651175,8.,-2.23543793189619));
#1405=IFCCARTESIANPOINT((0.882092206906518,8.,-2.2134898893568));
#1406=IFCCARTESIANPOINT((0.895418081857297,8.,-2.18630892753907));
#1407=IFCCARTESIANPOINT((0.9,8.,-2.15638586528478));
#1408=IFCCARTESIANPOINT((0.9,8.,-1.4));
#1409=IFCCARTESIANPOINT((-1.4,8.,0.9));
#1410=IFCCARTESIANPOINT((-2.15638586528478,8.,0.9));
#1411=IFCCARTESIANPOINT((-2.18630892753907,8.,0.895418081857297));
#1412=IFCCARTESIANPOINT((-2.2134898893568,8.,0.882092206906518));
#1413=IFCCARTESIANPOINT((-2.23543793189619,8.,0.86124353651175));
#1414=IFCCARTESIANPOINT((-2.25014177247108,8.,0.834782608695652));
#1415=IFCCARTESIANPOINT((-2.4,8.,2.57250105497335E-15));
#1416=IFCCARTESIANPOINT((-2.25014177247108,8.,-0.834782608695652));
#1417=IFCCARTESIANPOINT((-2.23543793189619,8.,-0.86124353651175));
#1418=IFCCARTESIANPOINT((-2.2134898893568,8.,-0.882092206906518));
#1419=IFCCARTESIANPOINT((-2.18630892753907,8.,-0.895418081857297));
#1420=IFCCARTESIANPOINT((-2.15638586528478,8.,-0.9));
#1421=IFCCARTESIANPOINT((-1.4,8.,-0.9));
#1422=IFCCARTESIANPOINT((0.9,8.,1.4));
#1423=IFCCARTESIANPOINT((2.93915231795365E-16,8.,2.4));
#1424=IFCCARTESIANPOINT((-0.834782608695652,8.,2.25014177247108));
#1425=IFCCARTESIANPOINT((-0.86124353651175,8.,2.23543793189619));
#1426=IFCCARTESIANPOINT((-0.882092206906518,8.,2.2134898893568));
#1427=IFCCARTESIANPOINT((-0.895418081857297,8.,2.18630892753907));
#1428=IFCCARTESIANPOINT((-0.9,8.,2.15638586528478));
#1429=IFCCARTESIANPOINT((-0.9,8.,1.4));
#1430=IFCCARTESIANPOINT((1.4,8.,-0.9));
#1431=IFCCARTESIANPOINT((2.15638586528478,8.,-0.9));
#1432=IFCCARTESIANPOINT((2.18630892753907,8.,-0.895418081857298));
#1433=IFCCARTESIANPOINT((2.2134898893568,8.,-0.882092206906518));
#1434=IFCCARTESIANPOINT((2.23543793189619,8.,-0.86124353651175));
#1435=IFCCARTESIANPOINT((2.25014177247108,8.,-0.834782608695652));
#1436=IFCCARTESIANPOINT((2.4,8.,-1.46957615897682E-16));
#1437=IFCCARTESIANPOINT((2.25014177247108,8.,0.834782608695652));
#1438=IFCCARTESIANPOINT((2.23543793189619,8.,0.86124353651175));
#1439=IFCCARTESIANPOINT((2.2134898893568,8.,0.882092206906518));
#1440=IFCCARTESIANPOINT((2.18630892753907,8.,0.895418081857297));
#1441=IFCCARTESIANPOINT((2.15638586528478,8.,0.9));
#1442=IFCCARTESIANPOINT((1.4,8.,0.9));
#1443=IFCCARTESIANPOINT((0.938060233744357,8.,-1.20865828381746));
#1444=IFCCARTESIANPOINT((-0.938060233744357,8.,-1.20865828381746));
#1445=IFCCARTESIANPOINT((-1.20865828381746,8.,-0.938060233744357));
#1446=IFCCARTESIANPOINT((-1.20865828381746,8.,0.938060233744357));
#1447=IFCCARTESIANPOINT((-0.938060233744357,8.,1.20865828381746));
#1448=IFCCARTESIANPOINT((0.938060233744357,8.,1.20865828381746));
#1449=IFCCARTESIANPOINT((1.20865828381746,8.,0.938060233744357));
#1450=IFCCARTESIANPOINT((1.20865828381746,8.,-0.938060233744357));
#1451=IFCCARTESIANPOINT((-1.04644660940673,8.,-1.04644660940673));
#1452=IFCCARTESIANPOINT((-1.04644660940673,8.,1.04644660940673));
#1453=IFCCARTESIANPOINT((1.04644660940673,8.,-1.04644660940673));
#1454=IFCCARTESIANPOINT((1.04644660940673,8.,1.04644660940673));
#1455=IFCCARTESIANPOINT((0.,0.,0.));
#1456=IFCCARTESIANPOINT((0.,0.,0.));
#1457=IFCGEOMETRICREPRESENTATIONCONTEXT($,'Model',3,0.005,#1128,$);
#1458=IFCSIUNIT(*,.LENGTHUNIT.,.MILLI.,.METRE.);
#1459=IFCSIUNIT(*,.AREAUNIT.,$,.SQUARE_METRE.);
#1460=IFCSIUNIT(*,.VOLUMEUNIT.,$,.CUBIC_METRE.);
#1461=IFCSIUNIT(*,.PLANEANGLEUNIT.,$,.RADIAN.);
#1462=IFCOWNERHISTORY(#1464,#1463,$,.NOCHANGE.,0,$,$,0);
#1463=IFCAPPLICATION(#1465,' ',' ',' ');
#1464=IFCPERSONANDORGANIZATION(#1466,#1465,$);
#1465=IFCORGANIZATION($,' ',$,$,$);
#1466=IFCPERSON(' ',' ',' ',$,$,$,$,$);
ENDSEC;
END-ISO-10303-21;
