ISO-10303-21;
HEADER;
/* Generated by software containing ST-Developer
 * from STEP Tools, Inc. (www.steptools.com) 
 */
/* OPTION: strings as raw bytes, not using required /X/ escapes */

FILE_DESCRIPTION(
/* description */ ('Unknown'),
/* implementation_level */ '2;1');

FILE_NAME(
/* name */ 'ClGray_4211758_AVV',
/* time_stamp */ '2025-07-21T23:52:59+02:00',
/* author */ ('Unknown'),
/* organization */ ('Unknown'),
/* preprocessor_version */ 'ST-DEVELOPER v19.4',
/* originating_system */ 'Unknown',
/* authorisation */ 'OpenTools');

FILE_SCHEMA (('IFC2X3'));
ENDSEC;

DATA;
#10=IFCPROPERTYSINGLEVALUE('ProjectName',$,IFCTEXT(''),$);
#11=IFCPROPERTYSINGLEVALUE('PartNumber',$,IFCTEXT(''),$);
#12=IFCRELDEFINESBYPROPERTIES('3cRq1JQpSwDOm5lsE5cG83',#1778,$,$,(#14),
#13);
#13=IFCPROPERTYSET('1jOd4kXgWorA4TVRi95rqH',#1778,
'empty property set name',$,(#10,#11));
#14=IFCBUILDINGELEMENTPROXY('2GP_XOK7Wq1Pa1NGQTVWHM',#1778,
'ClGray_4211758_AVV',' ','ClGray_4211758_AVV',#19,#15,' ',.ELEMENT.);
#15=IFCPRODUCTDEFINITIONSHAPE(' ',' ',(#25));
#16=IFCRELCONTAINEDINSPATIALSTRUCTURE('3HZhfx2I0vj9Cvp1GHER_f',#1778,
' ',' ',(#14),#20);
#17=IFCRELAGGREGATES('1jF0XzMGqvEA6wZwPLSawz',#1778,$,$,#1377,(#20));
#18=IFCLOCALPLACEMENT($,#1380);
#19=IFCLOCALPLACEMENT(#18,#1381);
#20=IFCBUILDING('3G2N19bOG__grq1LV0cQPU',#1778,'Default Building',$,$,#18,
$,$,.ELEMENT.,0.,0.,$);
#21=IFCCARTESIANTRANSFORMATIONOPERATOR3D($,$,#1771,1.,$);
#22=IFCMAPPEDITEM(#23,#21);
#23=IFCREPRESENTATIONMAP(#1380,#24);
#24=IFCSHAPEREPRESENTATION(#1379,'Body','Brep',(#1376));
#25=IFCSHAPEREPRESENTATION(#1379,'Body','MappedRepresentation',(#22));
#26=IFCPOLYLOOP((#1387,#1388,#1389,#1390));
#27=IFCPOLYLOOP((#1388,#1391,#1392,#1389));
#28=IFCPOLYLOOP((#1393,#1394,#1395,#1396));
#29=IFCPOLYLOOP((#1397,#1398,#1399,#1400));
#30=IFCPOLYLOOP((#1401,#1402,#1403,#1404));
#31=IFCPOLYLOOP((#1391,#1405,#1406,#1392));
#32=IFCPOLYLOOP((#1400,#1395,#1394,#1397));
#33=IFCPOLYLOOP((#1404,#1407,#1408,#1401));
#34=IFCPOLYLOOP((#1405,#1409,#1410,#1406));
#35=IFCPOLYLOOP((#1407,#1399,#1398,#1408));
#36=IFCPOLYLOOP((#1411,#1412,#1413,#1414));
#37=IFCPOLYLOOP((#1409,#1415,#1416,#1410));
#38=IFCPOLYLOOP((#1414,#1403,#1402,#1411));
#39=IFCPOLYLOOP((#1390,#1417,#1418,#1387));
#40=IFCPOLYLOOP((#1417,#1413,#1412,#1418));
#41=IFCPOLYLOOP((#1396,#1416,#1415,#1393));
#42=IFCPOLYLOOP((#1396,#1419,#1420,#1416));
#43=IFCPOLYLOOP((#1395,#1421,#1419,#1396));
#44=IFCPOLYLOOP((#1400,#1422,#1421,#1395));
#45=IFCPOLYLOOP((#1399,#1423,#1422,#1400));
#46=IFCPOLYLOOP((#1407,#1424,#1423,#1399));
#47=IFCPOLYLOOP((#1404,#1425,#1424,#1407));
#48=IFCPOLYLOOP((#1403,#1426,#1425,#1404));
#49=IFCPOLYLOOP((#1414,#1427,#1426,#1403));
#50=IFCPOLYLOOP((#1413,#1428,#1427,#1414));
#51=IFCPOLYLOOP((#1417,#1429,#1428,#1413));
#52=IFCPOLYLOOP((#1390,#1430,#1429,#1417));
#53=IFCPOLYLOOP((#1389,#1431,#1430,#1390));
#54=IFCPOLYLOOP((#1392,#1432,#1431,#1389));
#55=IFCPOLYLOOP((#1406,#1433,#1432,#1392));
#56=IFCPOLYLOOP((#1410,#1434,#1433,#1406));
#57=IFCPOLYLOOP((#1416,#1420,#1434,#1410));
#58=IFCPOLYLOOP((#1435,#1436,#1421,#1422));
#59=IFCPOLYLOOP((#1437,#1438,#1420,#1419));
#60=IFCPOLYLOOP((#1419,#1421,#1436,#1437));
#61=IFCPOLYLOOP((#1438,#1439,#1434,#1420));
#62=IFCPOLYLOOP((#1439,#1440,#1433,#1434));
#63=IFCPOLYLOOP((#1440,#1441,#1432,#1433));
#64=IFCPOLYLOOP((#1441,#1442,#1431,#1432));
#65=IFCPOLYLOOP((#1442,#1443,#1430,#1431));
#66=IFCPOLYLOOP((#1444,#1445,#1425,#1426));
#67=IFCPOLYLOOP((#1446,#1447,#1423,#1424));
#68=IFCPOLYLOOP((#1443,#1448,#1429,#1430));
#69=IFCPOLYLOOP((#1449,#1450,#1427,#1428));
#70=IFCPOLYLOOP((#1424,#1425,#1445,#1446));
#71=IFCPOLYLOOP((#1428,#1429,#1448,#1449));
#72=IFCPOLYLOOP((#1422,#1423,#1447,#1435));
#73=IFCPOLYLOOP((#1426,#1427,#1450,#1444));
#74=IFCPOLYLOOP((#1437,#1451,#1452,#1438));
#75=IFCPOLYLOOP((#1436,#1453,#1451,#1437));
#76=IFCPOLYLOOP((#1435,#1454,#1453,#1436));
#77=IFCPOLYLOOP((#1447,#1455,#1454,#1435));
#78=IFCPOLYLOOP((#1446,#1456,#1455,#1447));
#79=IFCPOLYLOOP((#1445,#1457,#1456,#1446));
#80=IFCPOLYLOOP((#1444,#1458,#1457,#1445));
#81=IFCPOLYLOOP((#1450,#1459,#1458,#1444));
#82=IFCPOLYLOOP((#1449,#1460,#1459,#1450));
#83=IFCPOLYLOOP((#1448,#1461,#1460,#1449));
#84=IFCPOLYLOOP((#1443,#1462,#1461,#1448));
#85=IFCPOLYLOOP((#1442,#1463,#1462,#1443));
#86=IFCPOLYLOOP((#1441,#1464,#1463,#1442));
#87=IFCPOLYLOOP((#1440,#1465,#1464,#1441));
#88=IFCPOLYLOOP((#1439,#1466,#1465,#1440));
#89=IFCPOLYLOOP((#1438,#1452,#1466,#1439));
#90=IFCPOLYLOOP((#1467,#1468,#1455,#1456));
#91=IFCPOLYLOOP((#1456,#1457,#1469,#1467));
#92=IFCPOLYLOOP((#1468,#1470,#1454,#1455));
#93=IFCPOLYLOOP((#1470,#1471,#1453,#1454));
#94=IFCPOLYLOOP((#1472,#1473,#1452,#1451));
#95=IFCPOLYLOOP((#1451,#1453,#1471,#1472));
#96=IFCPOLYLOOP((#1473,#1474,#1466,#1452));
#97=IFCPOLYLOOP((#1474,#1475,#1465,#1466));
#98=IFCPOLYLOOP((#1476,#1477,#1463,#1464));
#99=IFCPOLYLOOP((#1464,#1465,#1475,#1476));
#100=IFCPOLYLOOP((#1477,#1478,#1462,#1463));
#101=IFCPOLYLOOP((#1479,#1480,#1460,#1461));
#102=IFCPOLYLOOP((#1461,#1462,#1478,#1479));
#103=IFCPOLYLOOP((#1457,#1458,#1481,#1469));
#104=IFCPOLYLOOP((#1480,#1482,#1459,#1460));
#105=IFCPOLYLOOP((#1458,#1459,#1482,#1481));
#106=IFCPOLYLOOP((#1483,#1393,#1415,#1484));
#107=IFCPOLYLOOP((#1485,#1394,#1393,#1483));
#108=IFCPOLYLOOP((#1486,#1397,#1394,#1485));
#109=IFCPOLYLOOP((#1487,#1398,#1397,#1486));
#110=IFCPOLYLOOP((#1488,#1408,#1398,#1487));
#111=IFCPOLYLOOP((#1489,#1401,#1408,#1488));
#112=IFCPOLYLOOP((#1490,#1402,#1401,#1489));
#113=IFCPOLYLOOP((#1491,#1411,#1402,#1490));
#114=IFCPOLYLOOP((#1492,#1412,#1411,#1491));
#115=IFCPOLYLOOP((#1493,#1418,#1412,#1492));
#116=IFCPOLYLOOP((#1494,#1387,#1418,#1493));
#117=IFCPOLYLOOP((#1495,#1388,#1387,#1494));
#118=IFCPOLYLOOP((#1496,#1391,#1388,#1495));
#119=IFCPOLYLOOP((#1497,#1405,#1391,#1496));
#120=IFCPOLYLOOP((#1498,#1409,#1405,#1497));
#121=IFCPOLYLOOP((#1484,#1415,#1409,#1498));
#122=IFCPOLYLOOP((#1499,#1500,#1485,#1483));
#123=IFCPOLYLOOP((#1500,#1501,#1486,#1485));
#124=IFCPOLYLOOP((#1501,#1502,#1487,#1486));
#125=IFCPOLYLOOP((#1503,#1504,#1489,#1488));
#126=IFCPOLYLOOP((#1505,#1506,#1495,#1494));
#127=IFCPOLYLOOP((#1507,#1508,#1497,#1496));
#128=IFCPOLYLOOP((#1488,#1487,#1502,#1503));
#129=IFCPOLYLOOP((#1509,#1510,#1491,#1490));
#130=IFCPOLYLOOP((#1496,#1495,#1506,#1507));
#131=IFCPOLYLOOP((#1490,#1489,#1504,#1509));
#132=IFCPOLYLOOP((#1511,#1512,#1493,#1492));
#133=IFCPOLYLOOP((#1508,#1513,#1498,#1497));
#134=IFCPOLYLOOP((#1492,#1491,#1510,#1511));
#135=IFCPOLYLOOP((#1513,#1514,#1484,#1498));
#136=IFCPOLYLOOP((#1494,#1493,#1512,#1505));
#137=IFCPOLYLOOP((#1483,#1484,#1514,#1499));
#138=IFCPOLYLOOP((#1500,#1499,#1515));
#139=IFCPOLYLOOP((#1499,#1516,#1515));
#140=IFCPOLYLOOP((#1500,#1517,#1518));
#141=IFCPOLYLOOP((#1518,#1501,#1500));
#142=IFCPOLYLOOP((#1504,#1503,#1519));
#143=IFCPOLYLOOP((#1503,#1520,#1519));
#144=IFCPOLYLOOP((#1504,#1521,#1522));
#145=IFCPOLYLOOP((#1522,#1509,#1504));
#146=IFCPOLYLOOP((#1512,#1511,#1523));
#147=IFCPOLYLOOP((#1511,#1524,#1523));
#148=IFCPOLYLOOP((#1512,#1525,#1526));
#149=IFCPOLYLOOP((#1526,#1505,#1512));
#150=IFCPOLYLOOP((#1508,#1507,#1527));
#151=IFCPOLYLOOP((#1507,#1528,#1527));
#152=IFCPOLYLOOP((#1508,#1529,#1530));
#153=IFCPOLYLOOP((#1530,#1513,#1508));
#154=IFCPOLYLOOP((#1510,#1509,#1531));
#155=IFCPOLYLOOP((#1509,#1532,#1533,#1531));
#156=IFCPOLYLOOP((#1510,#1534,#1535));
#157=IFCPOLYLOOP((#1535,#1511,#1510));
#158=IFCPOLYLOOP((#1506,#1505,#1536));
#159=IFCPOLYLOOP((#1505,#1537,#1538,#1536));
#160=IFCPOLYLOOP((#1506,#1539,#1540));
#161=IFCPOLYLOOP((#1540,#1507,#1506));
#162=IFCPOLYLOOP((#1514,#1513,#1541));
#163=IFCPOLYLOOP((#1513,#1542,#1543,#1541));
#164=IFCPOLYLOOP((#1514,#1544,#1545));
#165=IFCPOLYLOOP((#1545,#1499,#1514));
#166=IFCPOLYLOOP((#1502,#1501,#1546));
#167=IFCPOLYLOOP((#1501,#1547,#1548,#1546));
#168=IFCPOLYLOOP((#1502,#1549,#1550));
#169=IFCPOLYLOOP((#1550,#1503,#1502));
#170=IFCPOLYLOOP((#1550,#1551,#1520,#1503));
#171=IFCPOLYLOOP((#1546,#1549,#1502));
#172=IFCPOLYLOOP((#1545,#1552,#1516,#1499));
#173=IFCPOLYLOOP((#1541,#1544,#1514));
#174=IFCPOLYLOOP((#1540,#1553,#1528,#1507));
#175=IFCPOLYLOOP((#1536,#1539,#1506));
#176=IFCPOLYLOOP((#1535,#1554,#1524,#1511));
#177=IFCPOLYLOOP((#1531,#1534,#1510));
#178=IFCPOLYLOOP((#1530,#1542,#1513));
#179=IFCPOLYLOOP((#1527,#1529,#1508));
#180=IFCPOLYLOOP((#1526,#1537,#1505));
#181=IFCPOLYLOOP((#1523,#1525,#1512));
#182=IFCPOLYLOOP((#1522,#1532,#1509));
#183=IFCPOLYLOOP((#1519,#1521,#1504));
#184=IFCPOLYLOOP((#1518,#1547,#1501));
#185=IFCPOLYLOOP((#1515,#1517,#1500));
#186=IFCPOLYLOOP((#1548,#1555,#1556,#1546));
#187=IFCPOLYLOOP((#1557,#1552,#1545,#1558));
#188=IFCPOLYLOOP((#1559,#1560,#1557,#1558));
#189=IFCPOLYLOOP((#1561,#1562,#1560,#1559));
#190=IFCPOLYLOOP((#1563,#1564,#1562,#1561));
#191=IFCPOLYLOOP((#1556,#1555,#1564,#1563));
#192=IFCPOLYLOOP((#1555,#1548,#1547));
#193=IFCPOLYLOOP((#1547,#1564,#1555));
#194=IFCPOLYLOOP((#1557,#1560,#1516));
#195=IFCPOLYLOOP((#1560,#1515,#1516));
#196=IFCPOLYLOOP((#1516,#1552,#1557));
#197=IFCPOLYLOOP((#1547,#1518,#1564));
#198=IFCPOLYLOOP((#1518,#1517,#1562,#1564));
#199=IFCPOLYLOOP((#1517,#1515,#1560,#1562));
#200=IFCPOLYLOOP((#1565,#1551,#1550,#1566));
#201=IFCPOLYLOOP((#1567,#1568,#1531,#1533));
#202=IFCPOLYLOOP((#1569,#1570,#1565,#1566));
#203=IFCPOLYLOOP((#1571,#1572,#1570,#1569));
#204=IFCPOLYLOOP((#1573,#1574,#1572,#1571));
#205=IFCPOLYLOOP((#1568,#1567,#1574,#1573));
#206=IFCPOLYLOOP((#1565,#1570,#1520));
#207=IFCPOLYLOOP((#1570,#1519,#1520));
#208=IFCPOLYLOOP((#1567,#1533,#1532));
#209=IFCPOLYLOOP((#1532,#1574,#1567));
#210=IFCPOLYLOOP((#1532,#1522,#1574));
#211=IFCPOLYLOOP((#1520,#1551,#1565));
#212=IFCPOLYLOOP((#1522,#1521,#1572,#1574));
#213=IFCPOLYLOOP((#1521,#1519,#1570,#1572));
#214=IFCPOLYLOOP((#1543,#1575,#1576,#1541));
#215=IFCPOLYLOOP((#1553,#1540,#1577,#1578));
#216=IFCPOLYLOOP((#1579,#1580,#1578,#1577));
#217=IFCPOLYLOOP((#1581,#1582,#1580,#1579));
#218=IFCPOLYLOOP((#1583,#1584,#1582,#1581));
#219=IFCPOLYLOOP((#1576,#1575,#1584,#1583));
#220=IFCPOLYLOOP((#1575,#1543,#1542));
#221=IFCPOLYLOOP((#1542,#1584,#1575));
#222=IFCPOLYLOOP((#1578,#1580,#1528));
#223=IFCPOLYLOOP((#1580,#1527,#1528));
#224=IFCPOLYLOOP((#1528,#1553,#1578));
#225=IFCPOLYLOOP((#1542,#1530,#1584));
#226=IFCPOLYLOOP((#1530,#1529,#1582,#1584));
#227=IFCPOLYLOOP((#1529,#1527,#1580,#1582));
#228=IFCPOLYLOOP((#1554,#1535,#1585,#1586));
#229=IFCPOLYLOOP((#1587,#1588,#1536,#1538));
#230=IFCPOLYLOOP((#1589,#1590,#1586,#1585));
#231=IFCPOLYLOOP((#1591,#1592,#1590,#1589));
#232=IFCPOLYLOOP((#1593,#1594,#1592,#1591));
#233=IFCPOLYLOOP((#1588,#1587,#1594,#1593));
#234=IFCPOLYLOOP((#1586,#1590,#1524));
#235=IFCPOLYLOOP((#1590,#1523,#1524));
#236=IFCPOLYLOOP((#1587,#1538,#1537));
#237=IFCPOLYLOOP((#1537,#1594,#1587));
#238=IFCPOLYLOOP((#1537,#1526,#1594));
#239=IFCPOLYLOOP((#1524,#1554,#1586));
#240=IFCPOLYLOOP((#1526,#1525,#1592,#1594));
#241=IFCPOLYLOOP((#1525,#1523,#1590,#1592));
#242=IFCPOLYLOOP((#1595,#1596,#1583,#1581));
#243=IFCPOLYLOOP((#1596,#1597,#1576,#1583));
#244=IFCPOLYLOOP((#1598,#1599,#1561,#1559));
#245=IFCPOLYLOOP((#1600,#1601,#1591,#1589));
#246=IFCPOLYLOOP((#1602,#1603,#1588,#1593));
#247=IFCPOLYLOOP((#1603,#1577,#1540,#1539));
#248=IFCPOLYLOOP((#1581,#1579,#1604,#1595));
#249=IFCPOLYLOOP((#1599,#1605,#1563,#1561));
#250=IFCPOLYLOOP((#1593,#1591,#1601,#1602));
#251=IFCPOLYLOOP((#1579,#1577,#1603,#1604));
#252=IFCPOLYLOOP((#1605,#1606,#1556,#1563));
#253=IFCPOLYLOOP((#1606,#1566,#1550,#1549));
#254=IFCPOLYLOOP((#1607,#1608,#1571,#1569));
#255=IFCPOLYLOOP((#1609,#1610,#1568,#1573));
#256=IFCPOLYLOOP((#1610,#1585,#1535,#1534));
#257=IFCPOLYLOOP((#1539,#1536,#1588,#1603));
#258=IFCPOLYLOOP((#1549,#1546,#1556,#1606));
#259=IFCPOLYLOOP((#1573,#1571,#1608,#1609));
#260=IFCPOLYLOOP((#1589,#1585,#1610,#1600));
#261=IFCPOLYLOOP((#1597,#1558,#1545,#1544));
#262=IFCPOLYLOOP((#1569,#1566,#1606,#1607));
#263=IFCPOLYLOOP((#1544,#1541,#1576,#1597));
#264=IFCPOLYLOOP((#1534,#1531,#1568,#1610));
#265=IFCPOLYLOOP((#1559,#1558,#1597,#1598));
#266=IFCPOLYLOOP((#1596,#1611,#1612,#1597));
#267=IFCPOLYLOOP((#1595,#1613,#1611,#1596));
#268=IFCPOLYLOOP((#1604,#1614,#1613,#1595));
#269=IFCPOLYLOOP((#1603,#1615,#1614,#1604));
#270=IFCPOLYLOOP((#1602,#1616,#1615,#1603));
#271=IFCPOLYLOOP((#1601,#1617,#1616,#1602));
#272=IFCPOLYLOOP((#1600,#1618,#1617,#1601));
#273=IFCPOLYLOOP((#1610,#1619,#1618,#1600));
#274=IFCPOLYLOOP((#1609,#1620,#1619,#1610));
#275=IFCPOLYLOOP((#1608,#1621,#1620,#1609));
#276=IFCPOLYLOOP((#1607,#1622,#1621,#1608));
#277=IFCPOLYLOOP((#1606,#1623,#1622,#1607));
#278=IFCPOLYLOOP((#1605,#1624,#1623,#1606));
#279=IFCPOLYLOOP((#1599,#1625,#1624,#1605));
#280=IFCPOLYLOOP((#1598,#1626,#1625,#1599));
#281=IFCPOLYLOOP((#1597,#1612,#1626,#1598));
#282=IFCPOLYLOOP((#1612,#1611,#1627,#1628));
#283=IFCPOLYLOOP((#1611,#1613,#1629,#1627));
#284=IFCPOLYLOOP((#1613,#1614,#1630,#1629));
#285=IFCPOLYLOOP((#1614,#1615,#1631,#1630));
#286=IFCPOLYLOOP((#1615,#1616,#1632,#1631));
#287=IFCPOLYLOOP((#1616,#1617,#1633,#1632));
#288=IFCPOLYLOOP((#1617,#1618,#1634,#1633));
#289=IFCPOLYLOOP((#1618,#1619,#1635,#1634));
#290=IFCPOLYLOOP((#1619,#1620,#1636,#1635));
#291=IFCPOLYLOOP((#1620,#1621,#1637,#1636));
#292=IFCPOLYLOOP((#1621,#1622,#1638,#1637));
#293=IFCPOLYLOOP((#1622,#1623,#1639,#1638));
#294=IFCPOLYLOOP((#1623,#1624,#1640,#1639));
#295=IFCPOLYLOOP((#1624,#1625,#1641,#1640));
#296=IFCPOLYLOOP((#1625,#1626,#1642,#1641));
#297=IFCPOLYLOOP((#1626,#1612,#1628,#1642));
#298=IFCPOLYLOOP((#1627,#1643,#1644,#1628));
#299=IFCPOLYLOOP((#1629,#1645,#1643,#1627));
#300=IFCPOLYLOOP((#1630,#1646,#1645,#1629));
#301=IFCPOLYLOOP((#1631,#1647,#1646,#1630));
#302=IFCPOLYLOOP((#1632,#1648,#1647,#1631));
#303=IFCPOLYLOOP((#1633,#1649,#1648,#1632));
#304=IFCPOLYLOOP((#1634,#1650,#1649,#1633));
#305=IFCPOLYLOOP((#1635,#1651,#1650,#1634));
#306=IFCPOLYLOOP((#1636,#1652,#1651,#1635));
#307=IFCPOLYLOOP((#1637,#1653,#1652,#1636));
#308=IFCPOLYLOOP((#1638,#1654,#1653,#1637));
#309=IFCPOLYLOOP((#1639,#1655,#1654,#1638));
#310=IFCPOLYLOOP((#1640,#1656,#1655,#1639));
#311=IFCPOLYLOOP((#1641,#1657,#1656,#1640));
#312=IFCPOLYLOOP((#1642,#1658,#1657,#1641));
#313=IFCPOLYLOOP((#1628,#1644,#1658,#1642));
#314=IFCPOLYLOOP((#1659,#1660,#1650,#1651));
#315=IFCPOLYLOOP((#1660,#1661,#1649,#1650));
#316=IFCPOLYLOOP((#1661,#1662,#1648,#1649));
#317=IFCPOLYLOOP((#1662,#1663,#1647,#1648));
#318=IFCPOLYLOOP((#1663,#1664,#1646,#1647));
#319=IFCPOLYLOOP((#1664,#1665,#1645,#1646));
#320=IFCPOLYLOOP((#1665,#1666,#1643,#1645));
#321=IFCPOLYLOOP((#1666,#1667,#1644,#1643));
#322=IFCPOLYLOOP((#1667,#1668,#1658,#1644));
#323=IFCPOLYLOOP((#1668,#1669,#1657,#1658));
#324=IFCPOLYLOOP((#1669,#1670,#1656,#1657));
#325=IFCPOLYLOOP((#1670,#1671,#1655,#1656));
#326=IFCPOLYLOOP((#1671,#1672,#1654,#1655));
#327=IFCPOLYLOOP((#1672,#1673,#1653,#1654));
#328=IFCPOLYLOOP((#1673,#1674,#1652,#1653));
#329=IFCPOLYLOOP((#1674,#1659,#1651,#1652));
#330=IFCPOLYLOOP((#1666,#1675,#1676,#1667));
#331=IFCPOLYLOOP((#1665,#1677,#1675,#1666));
#332=IFCPOLYLOOP((#1664,#1678,#1677,#1665));
#333=IFCPOLYLOOP((#1663,#1679,#1678,#1664));
#334=IFCPOLYLOOP((#1662,#1680,#1679,#1663));
#335=IFCPOLYLOOP((#1661,#1681,#1680,#1662));
#336=IFCPOLYLOOP((#1660,#1682,#1681,#1661));
#337=IFCPOLYLOOP((#1659,#1683,#1682,#1660));
#338=IFCPOLYLOOP((#1674,#1684,#1683,#1659));
#339=IFCPOLYLOOP((#1673,#1685,#1684,#1674));
#340=IFCPOLYLOOP((#1672,#1686,#1685,#1673));
#341=IFCPOLYLOOP((#1671,#1687,#1686,#1672));
#342=IFCPOLYLOOP((#1670,#1688,#1687,#1671));
#343=IFCPOLYLOOP((#1669,#1689,#1688,#1670));
#344=IFCPOLYLOOP((#1668,#1690,#1689,#1669));
#345=IFCPOLYLOOP((#1667,#1676,#1690,#1668));
#346=IFCPOLYLOOP((#1685,#1686,#1691,#1692));
#347=IFCPOLYLOOP((#1688,#1689,#1693,#1694));
#348=IFCPOLYLOOP((#1675,#1677,#1695,#1696));
#349=IFCPOLYLOOP((#1681,#1682,#1697,#1698));
#350=IFCPOLYLOOP((#1686,#1687,#1699,#1691));
#351=IFCPOLYLOOP((#1689,#1690,#1700,#1693));
#352=IFCPOLYLOOP((#1677,#1678,#1701,#1695));
#353=IFCPOLYLOOP((#1698,#1702,#1680,#1681));
#354=IFCPOLYLOOP((#1692,#1703,#1684,#1685));
#355=IFCPOLYLOOP((#1687,#1704,#1705,#1706));
#356=IFCPOLYLOOP((#1690,#1676,#1707,#1700));
#357=IFCPOLYLOOP((#1676,#1708,#1709,#1710));
#358=IFCPOLYLOOP((#1678,#1679,#1711,#1701));
#359=IFCPOLYLOOP((#1679,#1712,#1713,#1714));
#360=IFCPOLYLOOP((#1682,#1683,#1715,#1697));
#361=IFCPOLYLOOP((#1683,#1716,#1717,#1718));
#362=IFCPOLYLOOP((#1706,#1719,#1699,#1687));
#363=IFCPOLYLOOP((#1710,#1720,#1707,#1676));
#364=IFCPOLYLOOP((#1714,#1721,#1711,#1679));
#365=IFCPOLYLOOP((#1718,#1722,#1715,#1683));
#366=IFCPOLYLOOP((#1694,#1704,#1687,#1688));
#367=IFCPOLYLOOP((#1702,#1712,#1679,#1680));
#368=IFCPOLYLOOP((#1696,#1708,#1676,#1675));
#369=IFCPOLYLOOP((#1703,#1716,#1683,#1684));
#370=IFCPOLYLOOP((#1723,#1699,#1719,#1724));
#371=IFCPOLYLOOP((#1725,#1726,#1717,#1716));
#372=IFCPOLYLOOP((#1723,#1724,#1727));
#373=IFCPOLYLOOP((#1727,#1728,#1723));
#374=IFCPOLYLOOP((#1725,#1729,#1730));
#375=IFCPOLYLOOP((#1729,#1731,#1730));
#376=IFCPOLYLOOP((#1730,#1726,#1725));
#377=IFCPOLYLOOP((#1727,#1732,#1728));
#378=IFCPOLYLOOP((#1732,#1733,#1734,#1728));
#379=IFCPOLYLOOP((#1733,#1731,#1729,#1734));
#380=IFCPOLYLOOP((#1728,#1691,#1699,#1723));
#381=IFCPOLYLOOP((#1734,#1692,#1691,#1728));
#382=IFCPOLYLOOP((#1729,#1703,#1692,#1734));
#383=IFCPOLYLOOP((#1725,#1716,#1703,#1729));
#384=IFCPOLYLOOP((#1704,#1735,#1736,#1705));
#385=IFCPOLYLOOP((#1737,#1707,#1720,#1738));
#386=IFCPOLYLOOP((#1735,#1739,#1740));
#387=IFCPOLYLOOP((#1739,#1741,#1740));
#388=IFCPOLYLOOP((#1737,#1738,#1742));
#389=IFCPOLYLOOP((#1742,#1743,#1737));
#390=IFCPOLYLOOP((#1742,#1744,#1743));
#391=IFCPOLYLOOP((#1740,#1736,#1735));
#392=IFCPOLYLOOP((#1744,#1745,#1746,#1743));
#393=IFCPOLYLOOP((#1745,#1741,#1739,#1746));
#394=IFCPOLYLOOP((#1743,#1700,#1707,#1737));
#395=IFCPOLYLOOP((#1746,#1693,#1700,#1743));
#396=IFCPOLYLOOP((#1739,#1694,#1693,#1746));
#397=IFCPOLYLOOP((#1735,#1704,#1694,#1739));
#398=IFCPOLYLOOP((#1708,#1747,#1748,#1709));
#399=IFCPOLYLOOP((#1711,#1721,#1749,#1750));
#400=IFCPOLYLOOP((#1747,#1751,#1752));
#401=IFCPOLYLOOP((#1751,#1753,#1752));
#402=IFCPOLYLOOP((#1750,#1749,#1754));
#403=IFCPOLYLOOP((#1754,#1755,#1750));
#404=IFCPOLYLOOP((#1754,#1756,#1755));
#405=IFCPOLYLOOP((#1752,#1748,#1747));
#406=IFCPOLYLOOP((#1756,#1757,#1758,#1755));
#407=IFCPOLYLOOP((#1757,#1753,#1751,#1758));
#408=IFCPOLYLOOP((#1755,#1701,#1711,#1750));
#409=IFCPOLYLOOP((#1758,#1695,#1701,#1755));
#410=IFCPOLYLOOP((#1751,#1696,#1695,#1758));
#411=IFCPOLYLOOP((#1747,#1708,#1696,#1751));
#412=IFCPOLYLOOP((#1471,#1745,#1744));
#413=IFCPOLYLOOP((#1744,#1472,#1471));
#414=IFCPOLYLOOP((#1471,#1470,#1741));
#415=IFCPOLYLOOP((#1470,#1740,#1741));
#416=IFCPOLYLOOP((#1469,#1733,#1732));
#417=IFCPOLYLOOP((#1732,#1467,#1469));
#418=IFCPOLYLOOP((#1469,#1481,#1731));
#419=IFCPOLYLOOP((#1481,#1730,#1731));
#420=IFCPOLYLOOP((#1479,#1759,#1760));
#421=IFCPOLYLOOP((#1760,#1480,#1479));
#422=IFCPOLYLOOP((#1479,#1478,#1761));
#423=IFCPOLYLOOP((#1478,#1762,#1761));
#424=IFCPOLYLOOP((#1475,#1757,#1756));
#425=IFCPOLYLOOP((#1756,#1476,#1475));
#426=IFCPOLYLOOP((#1475,#1474,#1753));
#427=IFCPOLYLOOP((#1474,#1752,#1753));
#428=IFCPOLYLOOP((#1473,#1472,#1720));
#429=IFCPOLYLOOP((#1472,#1742,#1738,#1720));
#430=IFCPOLYLOOP((#1473,#1710,#1709));
#431=IFCPOLYLOOP((#1709,#1474,#1473));
#432=IFCPOLYLOOP((#1477,#1476,#1721));
#433=IFCPOLYLOOP((#1476,#1754,#1749,#1721));
#434=IFCPOLYLOOP((#1477,#1714,#1713));
#435=IFCPOLYLOOP((#1713,#1478,#1477));
#436=IFCPOLYLOOP((#1482,#1480,#1722));
#437=IFCPOLYLOOP((#1480,#1763,#1764,#1722));
#438=IFCPOLYLOOP((#1482,#1718,#1717));
#439=IFCPOLYLOOP((#1717,#1481,#1482));
#440=IFCPOLYLOOP((#1468,#1467,#1719));
#441=IFCPOLYLOOP((#1467,#1727,#1724,#1719));
#442=IFCPOLYLOOP((#1468,#1706,#1705));
#443=IFCPOLYLOOP((#1705,#1470,#1468));
#444=IFCPOLYLOOP((#1705,#1736,#1740,#1470));
#445=IFCPOLYLOOP((#1719,#1706,#1468));
#446=IFCPOLYLOOP((#1717,#1726,#1730,#1481));
#447=IFCPOLYLOOP((#1722,#1718,#1482));
#448=IFCPOLYLOOP((#1713,#1765,#1762,#1478));
#449=IFCPOLYLOOP((#1721,#1714,#1477));
#450=IFCPOLYLOOP((#1709,#1748,#1752,#1474));
#451=IFCPOLYLOOP((#1720,#1710,#1473));
#452=IFCPOLYLOOP((#1753,#1757,#1475));
#453=IFCPOLYLOOP((#1756,#1754,#1476));
#454=IFCPOLYLOOP((#1761,#1759,#1479));
#455=IFCPOLYLOOP((#1760,#1763,#1480));
#456=IFCPOLYLOOP((#1731,#1733,#1469));
#457=IFCPOLYLOOP((#1732,#1727,#1467));
#458=IFCPOLYLOOP((#1741,#1745,#1471));
#459=IFCPOLYLOOP((#1744,#1742,#1472));
#460=IFCPOLYLOOP((#1715,#1722,#1764,#1766));
#461=IFCPOLYLOOP((#1767,#1765,#1713,#1712));
#462=IFCPOLYLOOP((#1766,#1764,#1763));
#463=IFCPOLYLOOP((#1763,#1768,#1766));
#464=IFCPOLYLOOP((#1767,#1769,#1762));
#465=IFCPOLYLOOP((#1769,#1761,#1762));
#466=IFCPOLYLOOP((#1762,#1765,#1767));
#467=IFCPOLYLOOP((#1763,#1760,#1768));
#468=IFCPOLYLOOP((#1760,#1759,#1770,#1768));
#469=IFCPOLYLOOP((#1759,#1761,#1769,#1770));
#470=IFCPOLYLOOP((#1768,#1697,#1715,#1766));
#471=IFCPOLYLOOP((#1770,#1698,#1697,#1768));
#472=IFCPOLYLOOP((#1769,#1702,#1698,#1770));
#473=IFCPOLYLOOP((#1767,#1712,#1702,#1769));
#474=IFCFACEOUTERBOUND(#26,.T.);
#475=IFCFACEOUTERBOUND(#27,.T.);
#476=IFCFACEOUTERBOUND(#28,.T.);
#477=IFCFACEOUTERBOUND(#29,.T.);
#478=IFCFACEOUTERBOUND(#30,.T.);
#479=IFCFACEOUTERBOUND(#31,.T.);
#480=IFCFACEOUTERBOUND(#32,.T.);
#481=IFCFACEOUTERBOUND(#33,.T.);
#482=IFCFACEOUTERBOUND(#34,.T.);
#483=IFCFACEOUTERBOUND(#35,.T.);
#484=IFCFACEOUTERBOUND(#36,.T.);
#485=IFCFACEOUTERBOUND(#37,.T.);
#486=IFCFACEOUTERBOUND(#38,.T.);
#487=IFCFACEOUTERBOUND(#39,.T.);
#488=IFCFACEOUTERBOUND(#40,.T.);
#489=IFCFACEOUTERBOUND(#41,.T.);
#490=IFCFACEOUTERBOUND(#42,.T.);
#491=IFCFACEOUTERBOUND(#43,.T.);
#492=IFCFACEOUTERBOUND(#44,.T.);
#493=IFCFACEOUTERBOUND(#45,.T.);
#494=IFCFACEOUTERBOUND(#46,.T.);
#495=IFCFACEOUTERBOUND(#47,.T.);
#496=IFCFACEOUTERBOUND(#48,.T.);
#497=IFCFACEOUTERBOUND(#49,.T.);
#498=IFCFACEOUTERBOUND(#50,.T.);
#499=IFCFACEOUTERBOUND(#51,.T.);
#500=IFCFACEOUTERBOUND(#52,.T.);
#501=IFCFACEOUTERBOUND(#53,.T.);
#502=IFCFACEOUTERBOUND(#54,.T.);
#503=IFCFACEOUTERBOUND(#55,.T.);
#504=IFCFACEOUTERBOUND(#56,.T.);
#505=IFCFACEOUTERBOUND(#57,.T.);
#506=IFCFACEOUTERBOUND(#58,.T.);
#507=IFCFACEOUTERBOUND(#59,.T.);
#508=IFCFACEOUTERBOUND(#60,.T.);
#509=IFCFACEOUTERBOUND(#61,.T.);
#510=IFCFACEOUTERBOUND(#62,.T.);
#511=IFCFACEOUTERBOUND(#63,.T.);
#512=IFCFACEOUTERBOUND(#64,.T.);
#513=IFCFACEOUTERBOUND(#65,.T.);
#514=IFCFACEOUTERBOUND(#66,.T.);
#515=IFCFACEOUTERBOUND(#67,.T.);
#516=IFCFACEOUTERBOUND(#68,.T.);
#517=IFCFACEOUTERBOUND(#69,.T.);
#518=IFCFACEOUTERBOUND(#70,.T.);
#519=IFCFACEOUTERBOUND(#71,.T.);
#520=IFCFACEOUTERBOUND(#72,.T.);
#521=IFCFACEOUTERBOUND(#73,.T.);
#522=IFCFACEOUTERBOUND(#74,.T.);
#523=IFCFACEOUTERBOUND(#75,.T.);
#524=IFCFACEOUTERBOUND(#76,.T.);
#525=IFCFACEOUTERBOUND(#77,.T.);
#526=IFCFACEOUTERBOUND(#78,.T.);
#527=IFCFACEOUTERBOUND(#79,.T.);
#528=IFCFACEOUTERBOUND(#80,.T.);
#529=IFCFACEOUTERBOUND(#81,.T.);
#530=IFCFACEOUTERBOUND(#82,.T.);
#531=IFCFACEOUTERBOUND(#83,.T.);
#532=IFCFACEOUTERBOUND(#84,.T.);
#533=IFCFACEOUTERBOUND(#85,.T.);
#534=IFCFACEOUTERBOUND(#86,.T.);
#535=IFCFACEOUTERBOUND(#87,.T.);
#536=IFCFACEOUTERBOUND(#88,.T.);
#537=IFCFACEOUTERBOUND(#89,.T.);
#538=IFCFACEOUTERBOUND(#90,.T.);
#539=IFCFACEOUTERBOUND(#91,.T.);
#540=IFCFACEOUTERBOUND(#92,.T.);
#541=IFCFACEOUTERBOUND(#93,.T.);
#542=IFCFACEOUTERBOUND(#94,.T.);
#543=IFCFACEOUTERBOUND(#95,.T.);
#544=IFCFACEOUTERBOUND(#96,.T.);
#545=IFCFACEOUTERBOUND(#97,.T.);
#546=IFCFACEOUTERBOUND(#98,.T.);
#547=IFCFACEOUTERBOUND(#99,.T.);
#548=IFCFACEOUTERBOUND(#100,.T.);
#549=IFCFACEOUTERBOUND(#101,.T.);
#550=IFCFACEOUTERBOUND(#102,.T.);
#551=IFCFACEOUTERBOUND(#103,.T.);
#552=IFCFACEOUTERBOUND(#104,.T.);
#553=IFCFACEOUTERBOUND(#105,.T.);
#554=IFCFACEOUTERBOUND(#106,.T.);
#555=IFCFACEOUTERBOUND(#107,.T.);
#556=IFCFACEOUTERBOUND(#108,.T.);
#557=IFCFACEOUTERBOUND(#109,.T.);
#558=IFCFACEOUTERBOUND(#110,.T.);
#559=IFCFACEOUTERBOUND(#111,.T.);
#560=IFCFACEOUTERBOUND(#112,.T.);
#561=IFCFACEOUTERBOUND(#113,.T.);
#562=IFCFACEOUTERBOUND(#114,.T.);
#563=IFCFACEOUTERBOUND(#115,.T.);
#564=IFCFACEOUTERBOUND(#116,.T.);
#565=IFCFACEOUTERBOUND(#117,.T.);
#566=IFCFACEOUTERBOUND(#118,.T.);
#567=IFCFACEOUTERBOUND(#119,.T.);
#568=IFCFACEOUTERBOUND(#120,.T.);
#569=IFCFACEOUTERBOUND(#121,.T.);
#570=IFCFACEOUTERBOUND(#122,.T.);
#571=IFCFACEOUTERBOUND(#123,.T.);
#572=IFCFACEOUTERBOUND(#124,.T.);
#573=IFCFACEOUTERBOUND(#125,.T.);
#574=IFCFACEOUTERBOUND(#126,.T.);
#575=IFCFACEOUTERBOUND(#127,.T.);
#576=IFCFACEOUTERBOUND(#128,.T.);
#577=IFCFACEOUTERBOUND(#129,.T.);
#578=IFCFACEOUTERBOUND(#130,.T.);
#579=IFCFACEOUTERBOUND(#131,.T.);
#580=IFCFACEOUTERBOUND(#132,.T.);
#581=IFCFACEOUTERBOUND(#133,.T.);
#582=IFCFACEOUTERBOUND(#134,.T.);
#583=IFCFACEOUTERBOUND(#135,.T.);
#584=IFCFACEOUTERBOUND(#136,.T.);
#585=IFCFACEOUTERBOUND(#137,.T.);
#586=IFCFACEOUTERBOUND(#138,.T.);
#587=IFCFACEOUTERBOUND(#139,.T.);
#588=IFCFACEOUTERBOUND(#140,.T.);
#589=IFCFACEOUTERBOUND(#141,.T.);
#590=IFCFACEOUTERBOUND(#142,.T.);
#591=IFCFACEOUTERBOUND(#143,.T.);
#592=IFCFACEOUTERBOUND(#144,.T.);
#593=IFCFACEOUTERBOUND(#145,.T.);
#594=IFCFACEOUTERBOUND(#146,.T.);
#595=IFCFACEOUTERBOUND(#147,.T.);
#596=IFCFACEOUTERBOUND(#148,.T.);
#597=IFCFACEOUTERBOUND(#149,.T.);
#598=IFCFACEOUTERBOUND(#150,.T.);
#599=IFCFACEOUTERBOUND(#151,.T.);
#600=IFCFACEOUTERBOUND(#152,.T.);
#601=IFCFACEOUTERBOUND(#153,.T.);
#602=IFCFACEOUTERBOUND(#154,.T.);
#603=IFCFACEOUTERBOUND(#155,.T.);
#604=IFCFACEOUTERBOUND(#156,.T.);
#605=IFCFACEOUTERBOUND(#157,.T.);
#606=IFCFACEOUTERBOUND(#158,.T.);
#607=IFCFACEOUTERBOUND(#159,.T.);
#608=IFCFACEOUTERBOUND(#160,.T.);
#609=IFCFACEOUTERBOUND(#161,.T.);
#610=IFCFACEOUTERBOUND(#162,.T.);
#611=IFCFACEOUTERBOUND(#163,.T.);
#612=IFCFACEOUTERBOUND(#164,.T.);
#613=IFCFACEOUTERBOUND(#165,.T.);
#614=IFCFACEOUTERBOUND(#166,.T.);
#615=IFCFACEOUTERBOUND(#167,.T.);
#616=IFCFACEOUTERBOUND(#168,.T.);
#617=IFCFACEOUTERBOUND(#169,.T.);
#618=IFCFACEOUTERBOUND(#170,.T.);
#619=IFCFACEOUTERBOUND(#171,.T.);
#620=IFCFACEOUTERBOUND(#172,.T.);
#621=IFCFACEOUTERBOUND(#173,.T.);
#622=IFCFACEOUTERBOUND(#174,.T.);
#623=IFCFACEOUTERBOUND(#175,.T.);
#624=IFCFACEOUTERBOUND(#176,.T.);
#625=IFCFACEOUTERBOUND(#177,.T.);
#626=IFCFACEOUTERBOUND(#178,.T.);
#627=IFCFACEOUTERBOUND(#179,.T.);
#628=IFCFACEOUTERBOUND(#180,.T.);
#629=IFCFACEOUTERBOUND(#181,.T.);
#630=IFCFACEOUTERBOUND(#182,.T.);
#631=IFCFACEOUTERBOUND(#183,.T.);
#632=IFCFACEOUTERBOUND(#184,.T.);
#633=IFCFACEOUTERBOUND(#185,.T.);
#634=IFCFACEOUTERBOUND(#186,.T.);
#635=IFCFACEOUTERBOUND(#187,.T.);
#636=IFCFACEOUTERBOUND(#188,.T.);
#637=IFCFACEOUTERBOUND(#189,.T.);
#638=IFCFACEOUTERBOUND(#190,.T.);
#639=IFCFACEOUTERBOUND(#191,.T.);
#640=IFCFACEOUTERBOUND(#192,.T.);
#641=IFCFACEOUTERBOUND(#193,.T.);
#642=IFCFACEOUTERBOUND(#194,.T.);
#643=IFCFACEOUTERBOUND(#195,.T.);
#644=IFCFACEOUTERBOUND(#196,.T.);
#645=IFCFACEOUTERBOUND(#197,.T.);
#646=IFCFACEOUTERBOUND(#198,.T.);
#647=IFCFACEOUTERBOUND(#199,.T.);
#648=IFCFACEOUTERBOUND(#200,.T.);
#649=IFCFACEOUTERBOUND(#201,.T.);
#650=IFCFACEOUTERBOUND(#202,.T.);
#651=IFCFACEOUTERBOUND(#203,.T.);
#652=IFCFACEOUTERBOUND(#204,.T.);
#653=IFCFACEOUTERBOUND(#205,.T.);
#654=IFCFACEOUTERBOUND(#206,.T.);
#655=IFCFACEOUTERBOUND(#207,.T.);
#656=IFCFACEOUTERBOUND(#208,.T.);
#657=IFCFACEOUTERBOUND(#209,.T.);
#658=IFCFACEOUTERBOUND(#210,.T.);
#659=IFCFACEOUTERBOUND(#211,.T.);
#660=IFCFACEOUTERBOUND(#212,.T.);
#661=IFCFACEOUTERBOUND(#213,.T.);
#662=IFCFACEOUTERBOUND(#214,.T.);
#663=IFCFACEOUTERBOUND(#215,.T.);
#664=IFCFACEOUTERBOUND(#216,.T.);
#665=IFCFACEOUTERBOUND(#217,.T.);
#666=IFCFACEOUTERBOUND(#218,.T.);
#667=IFCFACEOUTERBOUND(#219,.T.);
#668=IFCFACEOUTERBOUND(#220,.T.);
#669=IFCFACEOUTERBOUND(#221,.T.);
#670=IFCFACEOUTERBOUND(#222,.T.);
#671=IFCFACEOUTERBOUND(#223,.T.);
#672=IFCFACEOUTERBOUND(#224,.T.);
#673=IFCFACEOUTERBOUND(#225,.T.);
#674=IFCFACEOUTERBOUND(#226,.T.);
#675=IFCFACEOUTERBOUND(#227,.T.);
#676=IFCFACEOUTERBOUND(#228,.T.);
#677=IFCFACEOUTERBOUND(#229,.T.);
#678=IFCFACEOUTERBOUND(#230,.T.);
#679=IFCFACEOUTERBOUND(#231,.T.);
#680=IFCFACEOUTERBOUND(#232,.T.);
#681=IFCFACEOUTERBOUND(#233,.T.);
#682=IFCFACEOUTERBOUND(#234,.T.);
#683=IFCFACEOUTERBOUND(#235,.T.);
#684=IFCFACEOUTERBOUND(#236,.T.);
#685=IFCFACEOUTERBOUND(#237,.T.);
#686=IFCFACEOUTERBOUND(#238,.T.);
#687=IFCFACEOUTERBOUND(#239,.T.);
#688=IFCFACEOUTERBOUND(#240,.T.);
#689=IFCFACEOUTERBOUND(#241,.T.);
#690=IFCFACEOUTERBOUND(#242,.T.);
#691=IFCFACEOUTERBOUND(#243,.T.);
#692=IFCFACEOUTERBOUND(#244,.T.);
#693=IFCFACEOUTERBOUND(#245,.T.);
#694=IFCFACEOUTERBOUND(#246,.T.);
#695=IFCFACEOUTERBOUND(#247,.T.);
#696=IFCFACEOUTERBOUND(#248,.T.);
#697=IFCFACEOUTERBOUND(#249,.T.);
#698=IFCFACEOUTERBOUND(#250,.T.);
#699=IFCFACEOUTERBOUND(#251,.T.);
#700=IFCFACEOUTERBOUND(#252,.T.);
#701=IFCFACEOUTERBOUND(#253,.T.);
#702=IFCFACEOUTERBOUND(#254,.T.);
#703=IFCFACEOUTERBOUND(#255,.T.);
#704=IFCFACEOUTERBOUND(#256,.T.);
#705=IFCFACEOUTERBOUND(#257,.T.);
#706=IFCFACEOUTERBOUND(#258,.T.);
#707=IFCFACEOUTERBOUND(#259,.T.);
#708=IFCFACEOUTERBOUND(#260,.T.);
#709=IFCFACEOUTERBOUND(#261,.T.);
#710=IFCFACEOUTERBOUND(#262,.T.);
#711=IFCFACEOUTERBOUND(#263,.T.);
#712=IFCFACEOUTERBOUND(#264,.T.);
#713=IFCFACEOUTERBOUND(#265,.T.);
#714=IFCFACEOUTERBOUND(#266,.T.);
#715=IFCFACEOUTERBOUND(#267,.T.);
#716=IFCFACEOUTERBOUND(#268,.T.);
#717=IFCFACEOUTERBOUND(#269,.T.);
#718=IFCFACEOUTERBOUND(#270,.T.);
#719=IFCFACEOUTERBOUND(#271,.T.);
#720=IFCFACEOUTERBOUND(#272,.T.);
#721=IFCFACEOUTERBOUND(#273,.T.);
#722=IFCFACEOUTERBOUND(#274,.T.);
#723=IFCFACEOUTERBOUND(#275,.T.);
#724=IFCFACEOUTERBOUND(#276,.T.);
#725=IFCFACEOUTERBOUND(#277,.T.);
#726=IFCFACEOUTERBOUND(#278,.T.);
#727=IFCFACEOUTERBOUND(#279,.T.);
#728=IFCFACEOUTERBOUND(#280,.T.);
#729=IFCFACEOUTERBOUND(#281,.T.);
#730=IFCFACEOUTERBOUND(#282,.T.);
#731=IFCFACEOUTERBOUND(#283,.T.);
#732=IFCFACEOUTERBOUND(#284,.T.);
#733=IFCFACEOUTERBOUND(#285,.T.);
#734=IFCFACEOUTERBOUND(#286,.T.);
#735=IFCFACEOUTERBOUND(#287,.T.);
#736=IFCFACEOUTERBOUND(#288,.T.);
#737=IFCFACEOUTERBOUND(#289,.T.);
#738=IFCFACEOUTERBOUND(#290,.T.);
#739=IFCFACEOUTERBOUND(#291,.T.);
#740=IFCFACEOUTERBOUND(#292,.T.);
#741=IFCFACEOUTERBOUND(#293,.T.);
#742=IFCFACEOUTERBOUND(#294,.T.);
#743=IFCFACEOUTERBOUND(#295,.T.);
#744=IFCFACEOUTERBOUND(#296,.T.);
#745=IFCFACEOUTERBOUND(#297,.T.);
#746=IFCFACEOUTERBOUND(#298,.T.);
#747=IFCFACEOUTERBOUND(#299,.T.);
#748=IFCFACEOUTERBOUND(#300,.T.);
#749=IFCFACEOUTERBOUND(#301,.T.);
#750=IFCFACEOUTERBOUND(#302,.T.);
#751=IFCFACEOUTERBOUND(#303,.T.);
#752=IFCFACEOUTERBOUND(#304,.T.);
#753=IFCFACEOUTERBOUND(#305,.T.);
#754=IFCFACEOUTERBOUND(#306,.T.);
#755=IFCFACEOUTERBOUND(#307,.T.);
#756=IFCFACEOUTERBOUND(#308,.T.);
#757=IFCFACEOUTERBOUND(#309,.T.);
#758=IFCFACEOUTERBOUND(#310,.T.);
#759=IFCFACEOUTERBOUND(#311,.T.);
#760=IFCFACEOUTERBOUND(#312,.T.);
#761=IFCFACEOUTERBOUND(#313,.T.);
#762=IFCFACEOUTERBOUND(#314,.T.);
#763=IFCFACEOUTERBOUND(#315,.T.);
#764=IFCFACEOUTERBOUND(#316,.T.);
#765=IFCFACEOUTERBOUND(#317,.T.);
#766=IFCFACEOUTERBOUND(#318,.T.);
#767=IFCFACEOUTERBOUND(#319,.T.);
#768=IFCFACEOUTERBOUND(#320,.T.);
#769=IFCFACEOUTERBOUND(#321,.T.);
#770=IFCFACEOUTERBOUND(#322,.T.);
#771=IFCFACEOUTERBOUND(#323,.T.);
#772=IFCFACEOUTERBOUND(#324,.T.);
#773=IFCFACEOUTERBOUND(#325,.T.);
#774=IFCFACEOUTERBOUND(#326,.T.);
#775=IFCFACEOUTERBOUND(#327,.T.);
#776=IFCFACEOUTERBOUND(#328,.T.);
#777=IFCFACEOUTERBOUND(#329,.T.);
#778=IFCFACEOUTERBOUND(#330,.T.);
#779=IFCFACEOUTERBOUND(#331,.T.);
#780=IFCFACEOUTERBOUND(#332,.T.);
#781=IFCFACEOUTERBOUND(#333,.T.);
#782=IFCFACEOUTERBOUND(#334,.T.);
#783=IFCFACEOUTERBOUND(#335,.T.);
#784=IFCFACEOUTERBOUND(#336,.T.);
#785=IFCFACEOUTERBOUND(#337,.T.);
#786=IFCFACEOUTERBOUND(#338,.T.);
#787=IFCFACEOUTERBOUND(#339,.T.);
#788=IFCFACEOUTERBOUND(#340,.T.);
#789=IFCFACEOUTERBOUND(#341,.T.);
#790=IFCFACEOUTERBOUND(#342,.T.);
#791=IFCFACEOUTERBOUND(#343,.T.);
#792=IFCFACEOUTERBOUND(#344,.T.);
#793=IFCFACEOUTERBOUND(#345,.T.);
#794=IFCFACEOUTERBOUND(#346,.T.);
#795=IFCFACEOUTERBOUND(#347,.T.);
#796=IFCFACEOUTERBOUND(#348,.T.);
#797=IFCFACEOUTERBOUND(#349,.T.);
#798=IFCFACEOUTERBOUND(#350,.T.);
#799=IFCFACEOUTERBOUND(#351,.T.);
#800=IFCFACEOUTERBOUND(#352,.T.);
#801=IFCFACEOUTERBOUND(#353,.T.);
#802=IFCFACEOUTERBOUND(#354,.T.);
#803=IFCFACEOUTERBOUND(#355,.T.);
#804=IFCFACEOUTERBOUND(#356,.T.);
#805=IFCFACEOUTERBOUND(#357,.T.);
#806=IFCFACEOUTERBOUND(#358,.T.);
#807=IFCFACEOUTERBOUND(#359,.T.);
#808=IFCFACEOUTERBOUND(#360,.T.);
#809=IFCFACEOUTERBOUND(#361,.T.);
#810=IFCFACEOUTERBOUND(#362,.T.);
#811=IFCFACEOUTERBOUND(#363,.T.);
#812=IFCFACEOUTERBOUND(#364,.T.);
#813=IFCFACEOUTERBOUND(#365,.T.);
#814=IFCFACEOUTERBOUND(#366,.T.);
#815=IFCFACEOUTERBOUND(#367,.T.);
#816=IFCFACEOUTERBOUND(#368,.T.);
#817=IFCFACEOUTERBOUND(#369,.T.);
#818=IFCFACEOUTERBOUND(#370,.T.);
#819=IFCFACEOUTERBOUND(#371,.T.);
#820=IFCFACEOUTERBOUND(#372,.T.);
#821=IFCFACEOUTERBOUND(#373,.T.);
#822=IFCFACEOUTERBOUND(#374,.T.);
#823=IFCFACEOUTERBOUND(#375,.T.);
#824=IFCFACEOUTERBOUND(#376,.T.);
#825=IFCFACEOUTERBOUND(#377,.T.);
#826=IFCFACEOUTERBOUND(#378,.T.);
#827=IFCFACEOUTERBOUND(#379,.T.);
#828=IFCFACEOUTERBOUND(#380,.T.);
#829=IFCFACEOUTERBOUND(#381,.T.);
#830=IFCFACEOUTERBOUND(#382,.T.);
#831=IFCFACEOUTERBOUND(#383,.T.);
#832=IFCFACEOUTERBOUND(#384,.T.);
#833=IFCFACEOUTERBOUND(#385,.T.);
#834=IFCFACEOUTERBOUND(#386,.T.);
#835=IFCFACEOUTERBOUND(#387,.T.);
#836=IFCFACEOUTERBOUND(#388,.T.);
#837=IFCFACEOUTERBOUND(#389,.T.);
#838=IFCFACEOUTERBOUND(#390,.T.);
#839=IFCFACEOUTERBOUND(#391,.T.);
#840=IFCFACEOUTERBOUND(#392,.T.);
#841=IFCFACEOUTERBOUND(#393,.T.);
#842=IFCFACEOUTERBOUND(#394,.T.);
#843=IFCFACEOUTERBOUND(#395,.T.);
#844=IFCFACEOUTERBOUND(#396,.T.);
#845=IFCFACEOUTERBOUND(#397,.T.);
#846=IFCFACEOUTERBOUND(#398,.T.);
#847=IFCFACEOUTERBOUND(#399,.T.);
#848=IFCFACEOUTERBOUND(#400,.T.);
#849=IFCFACEOUTERBOUND(#401,.T.);
#850=IFCFACEOUTERBOUND(#402,.T.);
#851=IFCFACEOUTERBOUND(#403,.T.);
#852=IFCFACEOUTERBOUND(#404,.T.);
#853=IFCFACEOUTERBOUND(#405,.T.);
#854=IFCFACEOUTERBOUND(#406,.T.);
#855=IFCFACEOUTERBOUND(#407,.T.);
#856=IFCFACEOUTERBOUND(#408,.T.);
#857=IFCFACEOUTERBOUND(#409,.T.);
#858=IFCFACEOUTERBOUND(#410,.T.);
#859=IFCFACEOUTERBOUND(#411,.T.);
#860=IFCFACEOUTERBOUND(#412,.T.);
#861=IFCFACEOUTERBOUND(#413,.T.);
#862=IFCFACEOUTERBOUND(#414,.T.);
#863=IFCFACEOUTERBOUND(#415,.T.);
#864=IFCFACEOUTERBOUND(#416,.T.);
#865=IFCFACEOUTERBOUND(#417,.T.);
#866=IFCFACEOUTERBOUND(#418,.T.);
#867=IFCFACEOUTERBOUND(#419,.T.);
#868=IFCFACEOUTERBOUND(#420,.T.);
#869=IFCFACEOUTERBOUND(#421,.T.);
#870=IFCFACEOUTERBOUND(#422,.T.);
#871=IFCFACEOUTERBOUND(#423,.T.);
#872=IFCFACEOUTERBOUND(#424,.T.);
#873=IFCFACEOUTERBOUND(#425,.T.);
#874=IFCFACEOUTERBOUND(#426,.T.);
#875=IFCFACEOUTERBOUND(#427,.T.);
#876=IFCFACEOUTERBOUND(#428,.T.);
#877=IFCFACEOUTERBOUND(#429,.T.);
#878=IFCFACEOUTERBOUND(#430,.T.);
#879=IFCFACEOUTERBOUND(#431,.T.);
#880=IFCFACEOUTERBOUND(#432,.T.);
#881=IFCFACEOUTERBOUND(#433,.T.);
#882=IFCFACEOUTERBOUND(#434,.T.);
#883=IFCFACEOUTERBOUND(#435,.T.);
#884=IFCFACEOUTERBOUND(#436,.T.);
#885=IFCFACEOUTERBOUND(#437,.T.);
#886=IFCFACEOUTERBOUND(#438,.T.);
#887=IFCFACEOUTERBOUND(#439,.T.);
#888=IFCFACEOUTERBOUND(#440,.T.);
#889=IFCFACEOUTERBOUND(#441,.T.);
#890=IFCFACEOUTERBOUND(#442,.T.);
#891=IFCFACEOUTERBOUND(#443,.T.);
#892=IFCFACEOUTERBOUND(#444,.T.);
#893=IFCFACEOUTERBOUND(#445,.T.);
#894=IFCFACEOUTERBOUND(#446,.T.);
#895=IFCFACEOUTERBOUND(#447,.T.);
#896=IFCFACEOUTERBOUND(#448,.T.);
#897=IFCFACEOUTERBOUND(#449,.T.);
#898=IFCFACEOUTERBOUND(#450,.T.);
#899=IFCFACEOUTERBOUND(#451,.T.);
#900=IFCFACEOUTERBOUND(#452,.T.);
#901=IFCFACEOUTERBOUND(#453,.T.);
#902=IFCFACEOUTERBOUND(#454,.T.);
#903=IFCFACEOUTERBOUND(#455,.T.);
#904=IFCFACEOUTERBOUND(#456,.T.);
#905=IFCFACEOUTERBOUND(#457,.T.);
#906=IFCFACEOUTERBOUND(#458,.T.);
#907=IFCFACEOUTERBOUND(#459,.T.);
#908=IFCFACEOUTERBOUND(#460,.T.);
#909=IFCFACEOUTERBOUND(#461,.T.);
#910=IFCFACEOUTERBOUND(#462,.T.);
#911=IFCFACEOUTERBOUND(#463,.T.);
#912=IFCFACEOUTERBOUND(#464,.T.);
#913=IFCFACEOUTERBOUND(#465,.T.);
#914=IFCFACEOUTERBOUND(#466,.T.);
#915=IFCFACEOUTERBOUND(#467,.T.);
#916=IFCFACEOUTERBOUND(#468,.T.);
#917=IFCFACEOUTERBOUND(#469,.T.);
#918=IFCFACEOUTERBOUND(#470,.T.);
#919=IFCFACEOUTERBOUND(#471,.T.);
#920=IFCFACEOUTERBOUND(#472,.T.);
#921=IFCFACEOUTERBOUND(#473,.T.);
#922=IFCFACE((#474));
#923=IFCFACE((#475));
#924=IFCFACE((#476));
#925=IFCFACE((#477));
#926=IFCFACE((#478));
#927=IFCFACE((#479));
#928=IFCFACE((#480));
#929=IFCFACE((#481));
#930=IFCFACE((#482));
#931=IFCFACE((#483));
#932=IFCFACE((#484));
#933=IFCFACE((#485));
#934=IFCFACE((#486));
#935=IFCFACE((#487));
#936=IFCFACE((#488));
#937=IFCFACE((#489));
#938=IFCFACE((#490));
#939=IFCFACE((#491));
#940=IFCFACE((#492));
#941=IFCFACE((#493));
#942=IFCFACE((#494));
#943=IFCFACE((#495));
#944=IFCFACE((#496));
#945=IFCFACE((#497));
#946=IFCFACE((#498));
#947=IFCFACE((#499));
#948=IFCFACE((#500));
#949=IFCFACE((#501));
#950=IFCFACE((#502));
#951=IFCFACE((#503));
#952=IFCFACE((#504));
#953=IFCFACE((#505));
#954=IFCFACE((#506));
#955=IFCFACE((#507));
#956=IFCFACE((#508));
#957=IFCFACE((#509));
#958=IFCFACE((#510));
#959=IFCFACE((#511));
#960=IFCFACE((#512));
#961=IFCFACE((#513));
#962=IFCFACE((#514));
#963=IFCFACE((#515));
#964=IFCFACE((#516));
#965=IFCFACE((#517));
#966=IFCFACE((#518));
#967=IFCFACE((#519));
#968=IFCFACE((#520));
#969=IFCFACE((#521));
#970=IFCFACE((#522));
#971=IFCFACE((#523));
#972=IFCFACE((#524));
#973=IFCFACE((#525));
#974=IFCFACE((#526));
#975=IFCFACE((#527));
#976=IFCFACE((#528));
#977=IFCFACE((#529));
#978=IFCFACE((#530));
#979=IFCFACE((#531));
#980=IFCFACE((#532));
#981=IFCFACE((#533));
#982=IFCFACE((#534));
#983=IFCFACE((#535));
#984=IFCFACE((#536));
#985=IFCFACE((#537));
#986=IFCFACE((#538));
#987=IFCFACE((#539));
#988=IFCFACE((#540));
#989=IFCFACE((#541));
#990=IFCFACE((#542));
#991=IFCFACE((#543));
#992=IFCFACE((#544));
#993=IFCFACE((#545));
#994=IFCFACE((#546));
#995=IFCFACE((#547));
#996=IFCFACE((#548));
#997=IFCFACE((#549));
#998=IFCFACE((#550));
#999=IFCFACE((#551));
#1000=IFCFACE((#552));
#1001=IFCFACE((#553));
#1002=IFCFACE((#554));
#1003=IFCFACE((#555));
#1004=IFCFACE((#556));
#1005=IFCFACE((#557));
#1006=IFCFACE((#558));
#1007=IFCFACE((#559));
#1008=IFCFACE((#560));
#1009=IFCFACE((#561));
#1010=IFCFACE((#562));
#1011=IFCFACE((#563));
#1012=IFCFACE((#564));
#1013=IFCFACE((#565));
#1014=IFCFACE((#566));
#1015=IFCFACE((#567));
#1016=IFCFACE((#568));
#1017=IFCFACE((#569));
#1018=IFCFACE((#570));
#1019=IFCFACE((#571));
#1020=IFCFACE((#572));
#1021=IFCFACE((#573));
#1022=IFCFACE((#574));
#1023=IFCFACE((#575));
#1024=IFCFACE((#576));
#1025=IFCFACE((#577));
#1026=IFCFACE((#578));
#1027=IFCFACE((#579));
#1028=IFCFACE((#580));
#1029=IFCFACE((#581));
#1030=IFCFACE((#582));
#1031=IFCFACE((#583));
#1032=IFCFACE((#584));
#1033=IFCFACE((#585));
#1034=IFCFACE((#586));
#1035=IFCFACE((#587));
#1036=IFCFACE((#588));
#1037=IFCFACE((#589));
#1038=IFCFACE((#590));
#1039=IFCFACE((#591));
#1040=IFCFACE((#592));
#1041=IFCFACE((#593));
#1042=IFCFACE((#594));
#1043=IFCFACE((#595));
#1044=IFCFACE((#596));
#1045=IFCFACE((#597));
#1046=IFCFACE((#598));
#1047=IFCFACE((#599));
#1048=IFCFACE((#600));
#1049=IFCFACE((#601));
#1050=IFCFACE((#602));
#1051=IFCFACE((#603));
#1052=IFCFACE((#604));
#1053=IFCFACE((#605));
#1054=IFCFACE((#606));
#1055=IFCFACE((#607));
#1056=IFCFACE((#608));
#1057=IFCFACE((#609));
#1058=IFCFACE((#610));
#1059=IFCFACE((#611));
#1060=IFCFACE((#612));
#1061=IFCFACE((#613));
#1062=IFCFACE((#614));
#1063=IFCFACE((#615));
#1064=IFCFACE((#616));
#1065=IFCFACE((#617));
#1066=IFCFACE((#618));
#1067=IFCFACE((#619));
#1068=IFCFACE((#620));
#1069=IFCFACE((#621));
#1070=IFCFACE((#622));
#1071=IFCFACE((#623));
#1072=IFCFACE((#624));
#1073=IFCFACE((#625));
#1074=IFCFACE((#626));
#1075=IFCFACE((#627));
#1076=IFCFACE((#628));
#1077=IFCFACE((#629));
#1078=IFCFACE((#630));
#1079=IFCFACE((#631));
#1080=IFCFACE((#632));
#1081=IFCFACE((#633));
#1082=IFCFACE((#634));
#1083=IFCFACE((#635));
#1084=IFCFACE((#636));
#1085=IFCFACE((#637));
#1086=IFCFACE((#638));
#1087=IFCFACE((#639));
#1088=IFCFACE((#640));
#1089=IFCFACE((#641));
#1090=IFCFACE((#642));
#1091=IFCFACE((#643));
#1092=IFCFACE((#644));
#1093=IFCFACE((#645));
#1094=IFCFACE((#646));
#1095=IFCFACE((#647));
#1096=IFCFACE((#648));
#1097=IFCFACE((#649));
#1098=IFCFACE((#650));
#1099=IFCFACE((#651));
#1100=IFCFACE((#652));
#1101=IFCFACE((#653));
#1102=IFCFACE((#654));
#1103=IFCFACE((#655));
#1104=IFCFACE((#656));
#1105=IFCFACE((#657));
#1106=IFCFACE((#658));
#1107=IFCFACE((#659));
#1108=IFCFACE((#660));
#1109=IFCFACE((#661));
#1110=IFCFACE((#662));
#1111=IFCFACE((#663));
#1112=IFCFACE((#664));
#1113=IFCFACE((#665));
#1114=IFCFACE((#666));
#1115=IFCFACE((#667));
#1116=IFCFACE((#668));
#1117=IFCFACE((#669));
#1118=IFCFACE((#670));
#1119=IFCFACE((#671));
#1120=IFCFACE((#672));
#1121=IFCFACE((#673));
#1122=IFCFACE((#674));
#1123=IFCFACE((#675));
#1124=IFCFACE((#676));
#1125=IFCFACE((#677));
#1126=IFCFACE((#678));
#1127=IFCFACE((#679));
#1128=IFCFACE((#680));
#1129=IFCFACE((#681));
#1130=IFCFACE((#682));
#1131=IFCFACE((#683));
#1132=IFCFACE((#684));
#1133=IFCFACE((#685));
#1134=IFCFACE((#686));
#1135=IFCFACE((#687));
#1136=IFCFACE((#688));
#1137=IFCFACE((#689));
#1138=IFCFACE((#690));
#1139=IFCFACE((#691));
#1140=IFCFACE((#692));
#1141=IFCFACE((#693));
#1142=IFCFACE((#694));
#1143=IFCFACE((#695));
#1144=IFCFACE((#696));
#1145=IFCFACE((#697));
#1146=IFCFACE((#698));
#1147=IFCFACE((#699));
#1148=IFCFACE((#700));
#1149=IFCFACE((#701));
#1150=IFCFACE((#702));
#1151=IFCFACE((#703));
#1152=IFCFACE((#704));
#1153=IFCFACE((#705));
#1154=IFCFACE((#706));
#1155=IFCFACE((#707));
#1156=IFCFACE((#708));
#1157=IFCFACE((#709));
#1158=IFCFACE((#710));
#1159=IFCFACE((#711));
#1160=IFCFACE((#712));
#1161=IFCFACE((#713));
#1162=IFCFACE((#714));
#1163=IFCFACE((#715));
#1164=IFCFACE((#716));
#1165=IFCFACE((#717));
#1166=IFCFACE((#718));
#1167=IFCFACE((#719));
#1168=IFCFACE((#720));
#1169=IFCFACE((#721));
#1170=IFCFACE((#722));
#1171=IFCFACE((#723));
#1172=IFCFACE((#724));
#1173=IFCFACE((#725));
#1174=IFCFACE((#726));
#1175=IFCFACE((#727));
#1176=IFCFACE((#728));
#1177=IFCFACE((#729));
#1178=IFCFACE((#730));
#1179=IFCFACE((#731));
#1180=IFCFACE((#732));
#1181=IFCFACE((#733));
#1182=IFCFACE((#734));
#1183=IFCFACE((#735));
#1184=IFCFACE((#736));
#1185=IFCFACE((#737));
#1186=IFCFACE((#738));
#1187=IFCFACE((#739));
#1188=IFCFACE((#740));
#1189=IFCFACE((#741));
#1190=IFCFACE((#742));
#1191=IFCFACE((#743));
#1192=IFCFACE((#744));
#1193=IFCFACE((#745));
#1194=IFCFACE((#746));
#1195=IFCFACE((#747));
#1196=IFCFACE((#748));
#1197=IFCFACE((#749));
#1198=IFCFACE((#750));
#1199=IFCFACE((#751));
#1200=IFCFACE((#752));
#1201=IFCFACE((#753));
#1202=IFCFACE((#754));
#1203=IFCFACE((#755));
#1204=IFCFACE((#756));
#1205=IFCFACE((#757));
#1206=IFCFACE((#758));
#1207=IFCFACE((#759));
#1208=IFCFACE((#760));
#1209=IFCFACE((#761));
#1210=IFCFACE((#762));
#1211=IFCFACE((#763));
#1212=IFCFACE((#764));
#1213=IFCFACE((#765));
#1214=IFCFACE((#766));
#1215=IFCFACE((#767));
#1216=IFCFACE((#768));
#1217=IFCFACE((#769));
#1218=IFCFACE((#770));
#1219=IFCFACE((#771));
#1220=IFCFACE((#772));
#1221=IFCFACE((#773));
#1222=IFCFACE((#774));
#1223=IFCFACE((#775));
#1224=IFCFACE((#776));
#1225=IFCFACE((#777));
#1226=IFCFACE((#778));
#1227=IFCFACE((#779));
#1228=IFCFACE((#780));
#1229=IFCFACE((#781));
#1230=IFCFACE((#782));
#1231=IFCFACE((#783));
#1232=IFCFACE((#784));
#1233=IFCFACE((#785));
#1234=IFCFACE((#786));
#1235=IFCFACE((#787));
#1236=IFCFACE((#788));
#1237=IFCFACE((#789));
#1238=IFCFACE((#790));
#1239=IFCFACE((#791));
#1240=IFCFACE((#792));
#1241=IFCFACE((#793));
#1242=IFCFACE((#794));
#1243=IFCFACE((#795));
#1244=IFCFACE((#796));
#1245=IFCFACE((#797));
#1246=IFCFACE((#798));
#1247=IFCFACE((#799));
#1248=IFCFACE((#800));
#1249=IFCFACE((#801));
#1250=IFCFACE((#802));
#1251=IFCFACE((#803));
#1252=IFCFACE((#804));
#1253=IFCFACE((#805));
#1254=IFCFACE((#806));
#1255=IFCFACE((#807));
#1256=IFCFACE((#808));
#1257=IFCFACE((#809));
#1258=IFCFACE((#810));
#1259=IFCFACE((#811));
#1260=IFCFACE((#812));
#1261=IFCFACE((#813));
#1262=IFCFACE((#814));
#1263=IFCFACE((#815));
#1264=IFCFACE((#816));
#1265=IFCFACE((#817));
#1266=IFCFACE((#818));
#1267=IFCFACE((#819));
#1268=IFCFACE((#820));
#1269=IFCFACE((#821));
#1270=IFCFACE((#822));
#1271=IFCFACE((#823));
#1272=IFCFACE((#824));
#1273=IFCFACE((#825));
#1274=IFCFACE((#826));
#1275=IFCFACE((#827));
#1276=IFCFACE((#828));
#1277=IFCFACE((#829));
#1278=IFCFACE((#830));
#1279=IFCFACE((#831));
#1280=IFCFACE((#832));
#1281=IFCFACE((#833));
#1282=IFCFACE((#834));
#1283=IFCFACE((#835));
#1284=IFCFACE((#836));
#1285=IFCFACE((#837));
#1286=IFCFACE((#838));
#1287=IFCFACE((#839));
#1288=IFCFACE((#840));
#1289=IFCFACE((#841));
#1290=IFCFACE((#842));
#1291=IFCFACE((#843));
#1292=IFCFACE((#844));
#1293=IFCFACE((#845));
#1294=IFCFACE((#846));
#1295=IFCFACE((#847));
#1296=IFCFACE((#848));
#1297=IFCFACE((#849));
#1298=IFCFACE((#850));
#1299=IFCFACE((#851));
#1300=IFCFACE((#852));
#1301=IFCFACE((#853));
#1302=IFCFACE((#854));
#1303=IFCFACE((#855));
#1304=IFCFACE((#856));
#1305=IFCFACE((#857));
#1306=IFCFACE((#858));
#1307=IFCFACE((#859));
#1308=IFCFACE((#860));
#1309=IFCFACE((#861));
#1310=IFCFACE((#862));
#1311=IFCFACE((#863));
#1312=IFCFACE((#864));
#1313=IFCFACE((#865));
#1314=IFCFACE((#866));
#1315=IFCFACE((#867));
#1316=IFCFACE((#868));
#1317=IFCFACE((#869));
#1318=IFCFACE((#870));
#1319=IFCFACE((#871));
#1320=IFCFACE((#872));
#1321=IFCFACE((#873));
#1322=IFCFACE((#874));
#1323=IFCFACE((#875));
#1324=IFCFACE((#876));
#1325=IFCFACE((#877));
#1326=IFCFACE((#878));
#1327=IFCFACE((#879));
#1328=IFCFACE((#880));
#1329=IFCFACE((#881));
#1330=IFCFACE((#882));
#1331=IFCFACE((#883));
#1332=IFCFACE((#884));
#1333=IFCFACE((#885));
#1334=IFCFACE((#886));
#1335=IFCFACE((#887));
#1336=IFCFACE((#888));
#1337=IFCFACE((#889));
#1338=IFCFACE((#890));
#1339=IFCFACE((#891));
#1340=IFCFACE((#892));
#1341=IFCFACE((#893));
#1342=IFCFACE((#894));
#1343=IFCFACE((#895));
#1344=IFCFACE((#896));
#1345=IFCFACE((#897));
#1346=IFCFACE((#898));
#1347=IFCFACE((#899));
#1348=IFCFACE((#900));
#1349=IFCFACE((#901));
#1350=IFCFACE((#902));
#1351=IFCFACE((#903));
#1352=IFCFACE((#904));
#1353=IFCFACE((#905));
#1354=IFCFACE((#906));
#1355=IFCFACE((#907));
#1356=IFCFACE((#908));
#1357=IFCFACE((#909));
#1358=IFCFACE((#910));
#1359=IFCFACE((#911));
#1360=IFCFACE((#912));
#1361=IFCFACE((#913));
#1362=IFCFACE((#914));
#1363=IFCFACE((#915));
#1364=IFCFACE((#916));
#1365=IFCFACE((#917));
#1366=IFCFACE((#918));
#1367=IFCFACE((#919));
#1368=IFCFACE((#920));
#1369=IFCFACE((#921));
#1370=IFCCLOSEDSHELL((#922,#923,#924,#925,#926,#927,#928,#929,#930,#931,
#932,#933,#934,#935,#936,#937,#938,#939,#940,#941,#942,#943,#944,#945,#946,
#947,#948,#949,#950,#951,#952,#953,#954,#955,#956,#957,#958,#959,#960,#961,
#962,#963,#964,#965,#966,#967,#968,#969,#970,#971,#972,#973,#974,#975,#976,
#977,#978,#979,#980,#981,#982,#983,#984,#985,#986,#987,#988,#989,#990,#991,
#992,#993,#994,#995,#996,#997,#998,#999,#1000,#1001,#1002,#1003,#1004,#1005,
#1006,#1007,#1008,#1009,#1010,#1011,#1012,#1013,#1014,#1015,#1016,#1017,
#1018,#1019,#1020,#1021,#1022,#1023,#1024,#1025,#1026,#1027,#1028,#1029,
#1030,#1031,#1032,#1033,#1034,#1035,#1036,#1037,#1038,#1039,#1040,#1041,
#1042,#1043,#1044,#1045,#1046,#1047,#1048,#1049,#1050,#1051,#1052,#1053,
#1054,#1055,#1056,#1057,#1058,#1059,#1060,#1061,#1062,#1063,#1064,#1065,
#1066,#1067,#1068,#1069,#1070,#1071,#1072,#1073,#1074,#1075,#1076,#1077,
#1078,#1079,#1080,#1081,#1082,#1083,#1084,#1085,#1086,#1087,#1088,#1089,
#1090,#1091,#1092,#1093,#1094,#1095,#1096,#1097,#1098,#1099,#1100,#1101,
#1102,#1103,#1104,#1105,#1106,#1107,#1108,#1109,#1110,#1111,#1112,#1113,
#1114,#1115,#1116,#1117,#1118,#1119,#1120,#1121,#1122,#1123,#1124,#1125,
#1126,#1127,#1128,#1129,#1130,#1131,#1132,#1133,#1134,#1135,#1136,#1137,
#1138,#1139,#1140,#1141,#1142,#1143,#1144,#1145,#1146,#1147,#1148,#1149,
#1150,#1151,#1152,#1153,#1154,#1155,#1156,#1157,#1158,#1159,#1160,#1161,
#1162,#1163,#1164,#1165,#1166,#1167,#1168,#1169,#1170,#1171,#1172,#1173,
#1174,#1175,#1176,#1177,#1178,#1179,#1180,#1181,#1182,#1183,#1184,#1185,
#1186,#1187,#1188,#1189,#1190,#1191,#1192,#1193,#1194,#1195,#1196,#1197,
#1198,#1199,#1200,#1201,#1202,#1203,#1204,#1205,#1206,#1207,#1208,#1209,
#1210,#1211,#1212,#1213,#1214,#1215,#1216,#1217,#1218,#1219,#1220,#1221,
#1222,#1223,#1224,#1225,#1226,#1227,#1228,#1229,#1230,#1231,#1232,#1233,
#1234,#1235,#1236,#1237,#1238,#1239,#1240,#1241,#1242,#1243,#1244,#1245,
#1246,#1247,#1248,#1249,#1250,#1251,#1252,#1253,#1254,#1255,#1256,#1257,
#1258,#1259,#1260,#1261,#1262,#1263,#1264,#1265,#1266,#1267,#1268,#1269,
#1270,#1271,#1272,#1273,#1274,#1275,#1276,#1277,#1278,#1279,#1280,#1281,
#1282,#1283,#1284,#1285,#1286,#1287,#1288,#1289,#1290,#1291,#1292,#1293,
#1294,#1295,#1296,#1297,#1298,#1299,#1300,#1301,#1302,#1303,#1304,#1305,
#1306,#1307,#1308,#1309,#1310,#1311,#1312,#1313,#1314,#1315,#1316,#1317,
#1318,#1319,#1320,#1321,#1322,#1323,#1324,#1325,#1326,#1327,#1328,#1329,
#1330,#1331,#1332,#1333,#1334,#1335,#1336,#1337,#1338,#1339,#1340,#1341,
#1342,#1343,#1344,#1345,#1346,#1347,#1348,#1349,#1350,#1351,#1352,#1353,
#1354,#1355,#1356,#1357,#1358,#1359,#1360,#1361,#1362,#1363,#1364,#1365,
#1366,#1367,#1368,#1369));
#1371=IFCSTYLEDITEM(#1376,(#1372),'');
#1372=IFCPRESENTATIONSTYLEASSIGNMENT((#1373));
#1373=IFCSURFACESTYLE('',.BOTH.,(#1374));
#1374=IFCSURFACESTYLERENDERING(#1375,0.,$,$,$,$,$,$,.NOTDEFINED.);
#1375=IFCCOLOURRGB('',0.506983280181885,0.531564235687256,0.550000011920929);
#1376=IFCFACETEDBREP(#1370);
#1377=IFCPROJECT('07hUkdHgGydfWsFJH56q5B',#1778,'ClGray_4211758_AVV',
' ',' ',' ',' ',(#1773),#1378);
#1378=IFCUNITASSIGNMENT((#1774,#1775,#1776,#1777));
#1379=IFCGEOMETRICREPRESENTATIONSUBCONTEXT('Body','Model',*,*,*,*,#1773,
1.,.MODEL_VIEW.,$);
#1380=IFCAXIS2PLACEMENT3D(#1386,#1382,#1383);
#1381=IFCAXIS2PLACEMENT3D(#1772,#1384,#1385);
#1382=IFCDIRECTION((0.,0.,1.));
#1383=IFCDIRECTION((1.,0.,0.));
#1384=IFCDIRECTION((0.,0.,1.));
#1385=IFCDIRECTION((1.,0.,0.));
#1386=IFCCARTESIANPOINT((0.,0.,0.));
#1387=IFCCARTESIANPOINT((-1.18631864033178,-2.86402655078499,7.2));
#1388=IFCCARTESIANPOINT((-5.69460761603519E-16,-3.1,7.2));
#1389=IFCCARTESIANPOINT((-4.40872847693047E-16,-2.4,7.2));
#1390=IFCCARTESIANPOINT((-0.918440237676215,-2.21731087802709,7.2));
#1391=IFCCARTESIANPOINT((1.18631864033178,-2.86402655078499,7.2));
#1392=IFCCARTESIANPOINT((0.918440237676216,-2.21731087802709,7.2));
#1393=IFCCARTESIANPOINT((2.86402655078499,1.18631864033178,7.2));
#1394=IFCCARTESIANPOINT((2.1920310216783,2.1920310216783,7.2));
#1395=IFCCARTESIANPOINT((1.69705627484771,1.69705627484771,7.2));
#1396=IFCCARTESIANPOINT((2.21731087802709,0.918440237676216,7.2));
#1397=IFCCARTESIANPOINT((1.18631864033178,2.86402655078499,7.2));
#1398=IFCCARTESIANPOINT((-4.98518021399757E-16,3.1,7.2));
#1399=IFCCARTESIANPOINT((-3.85949435922393E-16,2.4,7.2));
#1400=IFCCARTESIANPOINT((0.918440237676216,2.21731087802709,7.2));
#1401=IFCCARTESIANPOINT((-2.1920310216783,2.1920310216783,7.2));
#1402=IFCCARTESIANPOINT((-2.86402655078499,1.18631864033178,7.2));
#1403=IFCCARTESIANPOINT((-2.21731087802709,0.918440237676215,7.2));
#1404=IFCCARTESIANPOINT((-1.69705627484771,1.69705627484771,7.2));
#1405=IFCCARTESIANPOINT((2.1920310216783,-2.1920310216783,7.2));
#1406=IFCCARTESIANPOINT((1.69705627484771,-1.69705627484771,7.2));
#1407=IFCCARTESIANPOINT((-0.918440237676216,2.21731087802709,7.2));
#1408=IFCCARTESIANPOINT((-1.18631864033178,2.86402655078499,7.2));
#1409=IFCCARTESIANPOINT((2.86402655078499,-1.18631864033178,7.2));
#1410=IFCCARTESIANPOINT((2.21731087802709,-0.918440237676215,7.2));
#1411=IFCCARTESIANPOINT((-3.1,3.79640507735679E-16,7.2));
#1412=IFCCARTESIANPOINT((-2.86402655078499,-1.18631864033178,7.2));
#1413=IFCCARTESIANPOINT((-2.21731087802709,-0.918440237676215,7.2));
#1414=IFCCARTESIANPOINT((-2.4,2.93915231795365E-16,7.2));
#1415=IFCCARTESIANPOINT((3.1,0.,7.2));
#1416=IFCCARTESIANPOINT((2.4,0.,7.2));
#1417=IFCCARTESIANPOINT((-1.69705627484771,-1.69705627484771,7.2));
#1418=IFCCARTESIANPOINT((-2.1920310216783,-2.1920310216783,7.2));
#1419=IFCCARTESIANPOINT((2.21731087802709,0.918440237676216,0.800000000000002));
#1420=IFCCARTESIANPOINT((2.4,0.,0.800000000000002));
#1421=IFCCARTESIANPOINT((1.69705627484771,1.69705627484771,0.800000000000002));
#1422=IFCCARTESIANPOINT((0.918440237676216,2.21731087802709,0.800000000000002));
#1423=IFCCARTESIANPOINT((-3.85949435922393E-16,2.4,0.800000000000002));
#1424=IFCCARTESIANPOINT((-0.918440237676216,2.21731087802709,0.800000000000002));
#1425=IFCCARTESIANPOINT((-1.69705627484771,1.69705627484771,0.800000000000002));
#1426=IFCCARTESIANPOINT((-2.21731087802709,0.918440237676215,0.800000000000002));
#1427=IFCCARTESIANPOINT((-2.4,2.93915231795365E-16,0.800000000000002));
#1428=IFCCARTESIANPOINT((-2.21731087802709,-0.918440237676215,0.800000000000002));
#1429=IFCCARTESIANPOINT((-1.69705627484771,-1.69705627484771,0.800000000000002));
#1430=IFCCARTESIANPOINT((-0.918440237676215,-2.21731087802709,0.800000000000002));
#1431=IFCCARTESIANPOINT((-4.40872847693047E-16,-2.4,0.800000000000002));
#1432=IFCCARTESIANPOINT((0.918440237676216,-2.21731087802709,0.800000000000002));
#1433=IFCCARTESIANPOINT((1.69705627484771,-1.69705627484771,0.800000000000002));
#1434=IFCCARTESIANPOINT((2.21731087802709,-0.918440237676215,0.800000000000002));
#1435=IFCCARTESIANPOINT((1.18631864033178,2.86402655078499,0.800000000000002));
#1436=IFCCARTESIANPOINT((2.1920310216783,2.1920310216783,0.800000000000002));
#1437=IFCCARTESIANPOINT((2.86402655078499,1.18631864033178,0.800000000000002));
#1438=IFCCARTESIANPOINT((3.1,0.,0.800000000000002));
#1439=IFCCARTESIANPOINT((2.86402655078499,-1.18631864033178,0.800000000000002));
#1440=IFCCARTESIANPOINT((2.1920310216783,-2.1920310216783,0.800000000000002));
#1441=IFCCARTESIANPOINT((1.18631864033178,-2.86402655078499,0.800000000000002));
#1442=IFCCARTESIANPOINT((-5.69460761603519E-16,-3.1,0.800000000000002));
#1443=IFCCARTESIANPOINT((-1.18631864033178,-2.86402655078499,0.800000000000002));
#1444=IFCCARTESIANPOINT((-2.86402655078499,1.18631864033178,0.800000000000002));
#1445=IFCCARTESIANPOINT((-2.1920310216783,2.1920310216783,0.800000000000002));
#1446=IFCCARTESIANPOINT((-1.18631864033178,2.86402655078499,0.800000000000002));
#1447=IFCCARTESIANPOINT((-4.98518021399757E-16,3.1,0.800000000000002));
#1448=IFCCARTESIANPOINT((-2.1920310216783,-2.1920310216783,0.800000000000002));
#1449=IFCCARTESIANPOINT((-2.86402655078499,-1.18631864033178,0.800000000000002));
#1450=IFCCARTESIANPOINT((-3.1,3.79640507735679E-16,0.800000000000002));
#1451=IFCCARTESIANPOINT((2.86402655078499,1.18631864033178,0.));
#1452=IFCCARTESIANPOINT((3.1,0.,0.));
#1453=IFCCARTESIANPOINT((2.1920310216783,2.1920310216783,0.));
#1454=IFCCARTESIANPOINT((1.18631864033178,2.86402655078499,0.));
#1455=IFCCARTESIANPOINT((-4.98518021399757E-16,3.1,0.));
#1456=IFCCARTESIANPOINT((-1.18631864033178,2.86402655078499,0.));
#1457=IFCCARTESIANPOINT((-2.1920310216783,2.1920310216783,0.));
#1458=IFCCARTESIANPOINT((-2.86402655078499,1.18631864033178,0.));
#1459=IFCCARTESIANPOINT((-3.1,3.79640507735679E-16,0.));
#1460=IFCCARTESIANPOINT((-2.86402655078499,-1.18631864033178,0.));
#1461=IFCCARTESIANPOINT((-2.1920310216783,-2.1920310216783,0.));
#1462=IFCCARTESIANPOINT((-1.18631864033178,-2.86402655078499,0.));
#1463=IFCCARTESIANPOINT((-5.69460761603519E-16,-3.1,0.));
#1464=IFCCARTESIANPOINT((1.18631864033178,-2.86402655078499,0.));
#1465=IFCCARTESIANPOINT((2.1920310216783,-2.1920310216783,0.));
#1466=IFCCARTESIANPOINT((2.86402655078499,-1.18631864033178,0.));
#1467=IFCCARTESIANPOINT((-1.37766035651433,3.32596631704064,0.));
#1468=IFCCARTESIANPOINT((-5.7892415388359E-16,3.60000000000001,0.));
#1469=IFCCARTESIANPOINT((-2.54558441227158,2.54558441227157,0.));
#1470=IFCCARTESIANPOINT((1.37766035651433,3.32596631704064,0.));
#1471=IFCCARTESIANPOINT((2.54558441227157,2.54558441227158,0.));
#1472=IFCCARTESIANPOINT((3.32596631704064,1.37766035651433,0.));
#1473=IFCCARTESIANPOINT((3.60000000000001,0.,0.));
#1474=IFCCARTESIANPOINT((3.32596631704064,-1.37766035651432,0.));
#1475=IFCCARTESIANPOINT((2.54558441227157,-2.54558441227158,0.));
#1476=IFCCARTESIANPOINT((1.37766035651433,-3.32596631704064,0.));
#1477=IFCCARTESIANPOINT((-6.61309271539572E-16,-3.60000000000001,0.));
#1478=IFCCARTESIANPOINT((-1.37766035651432,-3.32596631704064,0.));
#1479=IFCCARTESIANPOINT((-2.54558441227158,-2.54558441227157,0.));
#1480=IFCCARTESIANPOINT((-3.32596631704064,-1.37766035651433,0.));
#1481=IFCCARTESIANPOINT((-3.32596631704064,1.37766035651432,0.));
#1482=IFCCARTESIANPOINT((-3.60000000000001,4.40872847693048E-16,0.));
#1483=IFCCARTESIANPOINT((2.86402655078499,1.18631864033178,8.));
#1484=IFCCARTESIANPOINT((3.1,0.,8.));
#1485=IFCCARTESIANPOINT((2.1920310216783,2.1920310216783,8.));
#1486=IFCCARTESIANPOINT((1.18631864033178,2.86402655078499,8.));
#1487=IFCCARTESIANPOINT((-4.98518021399757E-16,3.1,8.));
#1488=IFCCARTESIANPOINT((-1.18631864033178,2.86402655078499,8.));
#1489=IFCCARTESIANPOINT((-2.1920310216783,2.1920310216783,8.));
#1490=IFCCARTESIANPOINT((-2.86402655078499,1.18631864033178,8.));
#1491=IFCCARTESIANPOINT((-3.1,3.79640507735679E-16,8.));
#1492=IFCCARTESIANPOINT((-2.86402655078499,-1.18631864033178,8.));
#1493=IFCCARTESIANPOINT((-2.1920310216783,-2.1920310216783,8.));
#1494=IFCCARTESIANPOINT((-1.18631864033178,-2.86402655078499,8.));
#1495=IFCCARTESIANPOINT((-5.69460761603519E-16,-3.1,8.));
#1496=IFCCARTESIANPOINT((1.18631864033178,-2.86402655078499,8.));
#1497=IFCCARTESIANPOINT((2.1920310216783,-2.1920310216783,8.));
#1498=IFCCARTESIANPOINT((2.86402655078499,-1.18631864033178,8.));
#1499=IFCCARTESIANPOINT((3.32596631704063,1.37766035651432,8.));
#1500=IFCCARTESIANPOINT((2.54558441227157,2.54558441227157,8.));
#1501=IFCCARTESIANPOINT((1.37766035651432,3.32596631704063,8.));
#1502=IFCCARTESIANPOINT((-5.78924153883589E-16,3.6,8.));
#1503=IFCCARTESIANPOINT((-1.37766035651432,3.32596631704063,8.));
#1504=IFCCARTESIANPOINT((-2.54558441227157,2.54558441227157,8.));
#1505=IFCCARTESIANPOINT((-1.37766035651432,-3.32596631704063,8.));
#1506=IFCCARTESIANPOINT((-6.61309271539571E-16,-3.6,8.));
#1507=IFCCARTESIANPOINT((1.37766035651432,-3.32596631704063,8.));
#1508=IFCCARTESIANPOINT((2.54558441227157,-2.54558441227157,8.));
#1509=IFCCARTESIANPOINT((-3.32596631704063,1.37766035651432,8.));
#1510=IFCCARTESIANPOINT((-3.6,4.40872847693047E-16,8.));
#1511=IFCCARTESIANPOINT((-3.32596631704063,-1.37766035651432,8.));
#1512=IFCCARTESIANPOINT((-2.54558441227157,-2.54558441227157,8.));
#1513=IFCCARTESIANPOINT((3.32596631704063,-1.37766035651432,8.));
#1514=IFCCARTESIANPOINT((3.6,0.,8.));
#1515=IFCCARTESIANPOINT((3.23316520335247,1.5832380641681,6.2));
#1516=IFCCARTESIANPOINT((3.32596631704063,1.37766035651432,6.2));
#1517=IFCCARTESIANPOINT((2.54558441227157,2.54558441227157,6.2));
#1518=IFCCARTESIANPOINT((1.5832380641681,3.23316520335247,6.2));
#1519=IFCCARTESIANPOINT((-1.5832380641681,3.23316520335247,6.2));
#1520=IFCCARTESIANPOINT((-1.37766035651432,3.32596631704063,6.2));
#1521=IFCCARTESIANPOINT((-2.54558441227157,2.54558441227157,6.2));
#1522=IFCCARTESIANPOINT((-3.23316520335247,1.5832380641681,6.2));
#1523=IFCCARTESIANPOINT((-3.23316520335247,-1.5832380641681,6.2));
#1524=IFCCARTESIANPOINT((-3.32596631704063,-1.37766035651432,6.2));
#1525=IFCCARTESIANPOINT((-2.54558441227157,-2.54558441227157,6.2));
#1526=IFCCARTESIANPOINT((-1.5832380641681,-3.23316520335247,6.2));
#1527=IFCCARTESIANPOINT((1.5832380641681,-3.23316520335247,6.2));
#1528=IFCCARTESIANPOINT((1.37766035651432,-3.32596631704063,6.2));
#1529=IFCCARTESIANPOINT((2.54558441227157,-2.54558441227157,6.2));
#1530=IFCCARTESIANPOINT((3.23316520335247,-1.5832380641681,6.2));
#1531=IFCCARTESIANPOINT((-3.54964786985977,0.6,7.2));
#1532=IFCCARTESIANPOINT((-3.32596631704063,1.37766035651432,6.2));
#1533=IFCCARTESIANPOINT((-3.54964786985977,0.6,6.2));
#1534=IFCCARTESIANPOINT((-3.6,4.40872847693047E-16,7.2));
#1535=IFCCARTESIANPOINT((-3.54964786985977,-0.600000000000002,7.2));
#1536=IFCCARTESIANPOINT((-0.599999999999997,-3.54964786985977,7.2));
#1537=IFCCARTESIANPOINT((-1.37766035651432,-3.32596631704063,6.2));
#1538=IFCCARTESIANPOINT((-0.599999999999997,-3.54964786985977,6.2));
#1539=IFCCARTESIANPOINT((-6.61309271539571E-16,-3.6,7.2));
#1540=IFCCARTESIANPOINT((0.599999999999999,-3.54964786985977,7.2));
#1541=IFCCARTESIANPOINT((3.54964786985977,-0.600000000000003,7.2));
#1542=IFCCARTESIANPOINT((3.32596631704063,-1.37766035651432,6.2));
#1543=IFCCARTESIANPOINT((3.54964786985977,-0.600000000000001,6.2));
#1544=IFCCARTESIANPOINT((3.6,0.,7.2));
#1545=IFCCARTESIANPOINT((3.54964786985977,0.6,7.2));
#1546=IFCCARTESIANPOINT((0.599999999999996,3.54964786985977,7.2));
#1547=IFCCARTESIANPOINT((1.37766035651432,3.32596631704063,6.2));
#1548=IFCCARTESIANPOINT((0.599999999999996,3.54964786985977,6.2));
#1549=IFCCARTESIANPOINT((-5.78924153883589E-16,3.6,7.2));
#1550=IFCCARTESIANPOINT((-0.600000000000001,3.54964786985977,7.2));
#1551=IFCCARTESIANPOINT((-0.600000000000004,3.54964786985977,6.2));
#1552=IFCCARTESIANPOINT((3.54964786985977,0.600000000000003,6.2));
#1553=IFCCARTESIANPOINT((0.599999999999999,-3.54964786985977,6.2));
#1554=IFCCARTESIANPOINT((-3.54964786985977,-0.600000000000002,6.2));
#1555=IFCCARTESIANPOINT((0.599999999999997,4.76235235991626,6.8));
#1556=IFCCARTESIANPOINT((0.599999999999997,4.76235235991626,7.2));
#1557=IFCCARTESIANPOINT((4.76235235991626,0.6,6.8));
#1558=IFCCARTESIANPOINT((4.76235235991626,0.6,7.2));
#1559=IFCCARTESIANPOINT((4.3108869378033,2.11098408555747,7.2));
#1560=IFCCARTESIANPOINT((4.3108869378033,2.11098408555747,6.8));
#1561=IFCCARTESIANPOINT((3.39411254969543,3.39411254969543,7.2));
#1562=IFCCARTESIANPOINT((3.39411254969543,3.39411254969543,6.8));
#1563=IFCCARTESIANPOINT((2.11098408555747,4.3108869378033,7.2));
#1564=IFCCARTESIANPOINT((2.11098408555747,4.3108869378033,6.8));
#1565=IFCCARTESIANPOINT((-0.6,4.76235235991626,6.8));
#1566=IFCCARTESIANPOINT((-0.6,4.76235235991626,7.2));
#1567=IFCCARTESIANPOINT((-4.76235235991626,0.6,6.8));
#1568=IFCCARTESIANPOINT((-4.76235235991626,0.6,7.2));
#1569=IFCCARTESIANPOINT((-2.11098408555747,4.3108869378033,7.2));
#1570=IFCCARTESIANPOINT((-2.11098408555747,4.3108869378033,6.8));
#1571=IFCCARTESIANPOINT((-3.39411254969543,3.39411254969543,7.2));
#1572=IFCCARTESIANPOINT((-3.39411254969543,3.39411254969543,6.8));
#1573=IFCCARTESIANPOINT((-4.3108869378033,2.11098408555747,7.2));
#1574=IFCCARTESIANPOINT((-4.3108869378033,2.11098408555747,6.8));
#1575=IFCCARTESIANPOINT((4.76235235991626,-0.600000000000001,6.8));
#1576=IFCCARTESIANPOINT((4.76235235991626,-0.600000000000001,7.2));
#1577=IFCCARTESIANPOINT((0.599999999999999,-4.76235235991626,7.2));
#1578=IFCCARTESIANPOINT((0.599999999999999,-4.76235235991626,6.8));
#1579=IFCCARTESIANPOINT((2.11098408555747,-4.3108869378033,7.2));
#1580=IFCCARTESIANPOINT((2.11098408555747,-4.3108869378033,6.8));
#1581=IFCCARTESIANPOINT((3.39411254969543,-3.39411254969543,7.2));
#1582=IFCCARTESIANPOINT((3.39411254969543,-3.39411254969543,6.8));
#1583=IFCCARTESIANPOINT((4.3108869378033,-2.11098408555747,7.2));
#1584=IFCCARTESIANPOINT((4.3108869378033,-2.11098408555747,6.8));
#1585=IFCCARTESIANPOINT((-4.76235235991626,-0.600000000000002,7.2));
#1586=IFCCARTESIANPOINT((-4.76235235991626,-0.600000000000002,6.8));
#1587=IFCCARTESIANPOINT((-0.599999999999997,-4.76235235991626,6.8));
#1588=IFCCARTESIANPOINT((-0.599999999999997,-4.76235235991626,7.2));
#1589=IFCCARTESIANPOINT((-4.3108869378033,-2.11098408555747,7.2));
#1590=IFCCARTESIANPOINT((-4.3108869378033,-2.11098408555747,6.8));
#1591=IFCCARTESIANPOINT((-3.39411254969543,-3.39411254969543,7.2));
#1592=IFCCARTESIANPOINT((-3.39411254969543,-3.39411254969543,6.8));
#1593=IFCCARTESIANPOINT((-2.11098408555747,-4.3108869378033,7.2));
#1594=IFCCARTESIANPOINT((-2.11098408555747,-4.3108869378033,6.8));
#1595=IFCCARTESIANPOINT((3.95979797464467,-3.95979797464467,7.2));
#1596=IFCCARTESIANPOINT((5.17372538206321,-2.1430272212445,7.2));
#1597=IFCCARTESIANPOINT((5.6,0.,7.2));
#1598=IFCCARTESIANPOINT((5.17372538206321,2.1430272212445,7.2));
#1599=IFCCARTESIANPOINT((3.95979797464467,3.95979797464467,7.2));
#1600=IFCCARTESIANPOINT((-5.17372538206321,-2.1430272212445,7.2));
#1601=IFCCARTESIANPOINT((-3.95979797464467,-3.95979797464467,7.2));
#1602=IFCCARTESIANPOINT((-2.1430272212445,-5.17372538206321,7.2));
#1603=IFCCARTESIANPOINT((-1.02870331128378E-15,-5.6,7.2));
#1604=IFCCARTESIANPOINT((2.1430272212445,-5.17372538206321,7.2));
#1605=IFCCARTESIANPOINT((2.1430272212445,5.17372538206321,7.2));
#1606=IFCCARTESIANPOINT((-9.00548683818917E-16,5.6,7.2));
#1607=IFCCARTESIANPOINT((-2.1430272212445,5.17372538206321,7.2));
#1608=IFCCARTESIANPOINT((-3.95979797464467,3.95979797464466,7.2));
#1609=IFCCARTESIANPOINT((-5.17372538206321,2.1430272212445,7.2));
#1610=IFCCARTESIANPOINT((-5.6,6.85802207522518E-16,7.2));
#1611=IFCCARTESIANPOINT((5.17372538206321,-2.1430272212445,5.2));
#1612=IFCCARTESIANPOINT((5.6,0.,5.2));
#1613=IFCCARTESIANPOINT((3.95979797464467,-3.95979797464466,5.2));
#1614=IFCCARTESIANPOINT((2.1430272212445,-5.17372538206321,5.2));
#1615=IFCCARTESIANPOINT((-1.02870331128378E-15,-5.6,5.2));
#1616=IFCCARTESIANPOINT((-2.14302722124451,-5.1737253820632,5.2));
#1617=IFCCARTESIANPOINT((-3.95979797464467,-3.95979797464467,5.2));
#1618=IFCCARTESIANPOINT((-5.17372538206321,-2.1430272212445,5.2));
#1619=IFCCARTESIANPOINT((-5.6,6.85802207522518E-16,5.2));
#1620=IFCCARTESIANPOINT((-5.17372538206321,2.1430272212445,5.2));
#1621=IFCCARTESIANPOINT((-3.95979797464467,3.95979797464467,5.2));
#1622=IFCCARTESIANPOINT((-2.1430272212445,5.17372538206321,5.2));
#1623=IFCCARTESIANPOINT((3.42901103761259E-16,5.6,5.2));
#1624=IFCCARTESIANPOINT((2.1430272212445,5.17372538206321,5.2));
#1625=IFCCARTESIANPOINT((3.95979797464467,3.95979797464467,5.2));
#1626=IFCCARTESIANPOINT((5.17372538206321,2.1430272212445,5.2));
#1627=IFCCARTESIANPOINT((3.69551813004515,-1.53073372946035,4.4));
#1628=IFCCARTESIANPOINT((4.,0.,4.4));
#1629=IFCCARTESIANPOINT((2.82842712474619,-2.82842712474619,4.4));
#1630=IFCCARTESIANPOINT((1.53073372946036,-3.69551813004515,4.4));
#1631=IFCCARTESIANPOINT((-7.34788079488412E-16,-4.,4.4));
#1632=IFCCARTESIANPOINT((-1.53073372946036,-3.69551813004515,4.4));
#1633=IFCCARTESIANPOINT((-2.82842712474619,-2.82842712474619,4.4));
#1634=IFCCARTESIANPOINT((-3.69551813004515,-1.53073372946036,4.4));
#1635=IFCCARTESIANPOINT((-4.,4.89858719658941E-16,4.4));
#1636=IFCCARTESIANPOINT((-3.69551813004515,1.53073372946036,4.4));
#1637=IFCCARTESIANPOINT((-2.82842712474619,2.82842712474619,4.4));
#1638=IFCCARTESIANPOINT((-1.53073372946036,3.69551813004515,4.4));
#1639=IFCCARTESIANPOINT((2.44929359829471E-16,4.,4.4));
#1640=IFCCARTESIANPOINT((1.53073372946036,3.69551813004515,4.4));
#1641=IFCCARTESIANPOINT((2.82842712474619,2.82842712474619,4.4));
#1642=IFCCARTESIANPOINT((3.69551813004515,1.53073372946036,4.4));
#1643=IFCCARTESIANPOINT((3.69551813004515,-1.53073372946036,3.6));
#1644=IFCCARTESIANPOINT((4.,0.,3.6));
#1645=IFCCARTESIANPOINT((2.82842712474619,-2.82842712474619,3.6));
#1646=IFCCARTESIANPOINT((1.53073372946036,-3.69551813004515,3.6));
#1647=IFCCARTESIANPOINT((7.34788079488412E-16,-4.,3.6));
#1648=IFCCARTESIANPOINT((-1.53073372946036,-3.69551813004515,3.6));
#1649=IFCCARTESIANPOINT((-2.82842712474619,-2.82842712474619,3.6));
#1650=IFCCARTESIANPOINT((-3.69551813004515,-1.53073372946035,3.6));
#1651=IFCCARTESIANPOINT((-4.,0.,3.6));
#1652=IFCCARTESIANPOINT((-3.69551813004515,1.53073372946036,3.6));
#1653=IFCCARTESIANPOINT((-2.82842712474619,2.82842712474619,3.6));
#1654=IFCCARTESIANPOINT((-1.53073372946036,3.69551813004515,3.6));
#1655=IFCCARTESIANPOINT((-2.44929359829471E-16,4.,3.6));
#1656=IFCCARTESIANPOINT((1.53073372946036,3.69551813004515,3.6));
#1657=IFCCARTESIANPOINT((2.82842712474619,2.82842712474619,3.6));
#1658=IFCCARTESIANPOINT((3.69551813004515,1.53073372946036,3.6));
#1659=IFCCARTESIANPOINT((-5.6,0.,2.8));
#1660=IFCCARTESIANPOINT((-5.17372538206321,-2.1430272212445,2.8));
#1661=IFCCARTESIANPOINT((-3.95979797464467,-3.95979797464466,2.8));
#1662=IFCCARTESIANPOINT((-2.1430272212445,-5.17372538206321,2.8));
#1663=IFCCARTESIANPOINT((1.02870331128378E-15,-5.6,2.8));
#1664=IFCCARTESIANPOINT((2.14302722124451,-5.1737253820632,2.8));
#1665=IFCCARTESIANPOINT((3.95979797464467,-3.95979797464467,2.8));
#1666=IFCCARTESIANPOINT((5.17372538206321,-2.1430272212445,2.8));
#1667=IFCCARTESIANPOINT((5.6,0.,2.8));
#1668=IFCCARTESIANPOINT((5.17372538206321,2.1430272212445,2.8));
#1669=IFCCARTESIANPOINT((3.95979797464467,3.95979797464467,2.8));
#1670=IFCCARTESIANPOINT((2.1430272212445,5.17372538206321,2.8));
#1671=IFCCARTESIANPOINT((-3.42901103761259E-16,5.6,2.8));
#1672=IFCCARTESIANPOINT((-2.1430272212445,5.17372538206321,2.8));
#1673=IFCCARTESIANPOINT((-3.95979797464467,3.95979797464467,2.8));
#1674=IFCCARTESIANPOINT((-5.17372538206321,2.1430272212445,2.8));
#1675=IFCCARTESIANPOINT((5.17372538206321,-2.1430272212445,0.800000000000002));
#1676=IFCCARTESIANPOINT((5.6,0.,0.800000000000002));
#1677=IFCCARTESIANPOINT((3.95979797464467,-3.95979797464467,0.800000000000002));
#1678=IFCCARTESIANPOINT((2.1430272212445,-5.17372538206321,0.800000000000002));
#1679=IFCCARTESIANPOINT((-1.02870331128378E-15,-5.6,0.800000000000002));
#1680=IFCCARTESIANPOINT((-2.1430272212445,-5.17372538206321,0.800000000000002));
#1681=IFCCARTESIANPOINT((-3.95979797464467,-3.95979797464467,0.800000000000002));
#1682=IFCCARTESIANPOINT((-5.17372538206321,-2.1430272212445,0.800000000000002));
#1683=IFCCARTESIANPOINT((-5.6,6.85802207522518E-16,0.800000000000002));
#1684=IFCCARTESIANPOINT((-5.17372538206321,2.1430272212445,0.800000000000002));
#1685=IFCCARTESIANPOINT((-3.95979797464467,3.95979797464467,0.800000000000002));
#1686=IFCCARTESIANPOINT((-2.1430272212445,5.17372538206321,0.800000000000002));
#1687=IFCCARTESIANPOINT((-9.00548683818917E-16,5.6,0.800000000000002));
#1688=IFCCARTESIANPOINT((2.1430272212445,5.17372538206321,0.800000000000002));
#1689=IFCCARTESIANPOINT((3.95979797464467,3.95979797464467,0.800000000000002));
#1690=IFCCARTESIANPOINT((5.17372538206321,2.1430272212445,0.800000000000002));
#1691=IFCCARTESIANPOINT((-2.11098408555747,4.3108869378033,0.800000000000002));
#1692=IFCCARTESIANPOINT((-3.39411254969543,3.39411254969543,0.800000000000002));
#1693=IFCCARTESIANPOINT((3.39411254969543,3.39411254969543,0.800000000000002));
#1694=IFCCARTESIANPOINT((2.11098408555747,4.3108869378033,0.800000000000002));
#1695=IFCCARTESIANPOINT((3.39411254969543,-3.39411254969543,0.800000000000002));
#1696=IFCCARTESIANPOINT((4.31088693780329,-2.11098408555747,0.800000000000002));
#1697=IFCCARTESIANPOINT((-4.3108869378033,-2.11098408555747,0.800000000000002));
#1698=IFCCARTESIANPOINT((-3.39411254969543,-3.39411254969543,0.800000000000002));
#1699=IFCCARTESIANPOINT((-0.6,4.76235235991626,0.800000000000002));
#1700=IFCCARTESIANPOINT((4.31088693780329,2.11098408555747,0.800000000000002));
#1701=IFCCARTESIANPOINT((2.11098408555747,-4.3108869378033,0.800000000000002));
#1702=IFCCARTESIANPOINT((-2.11098408555747,-4.31088693780329,0.800000000000002));
#1703=IFCCARTESIANPOINT((-4.3108869378033,2.11098408555747,0.800000000000002));
#1704=IFCCARTESIANPOINT((0.599999999999997,4.76235235991626,0.800000000000002));
#1705=IFCCARTESIANPOINT((0.600000000000035,3.54964786985977,0.800000000000002));
#1706=IFCCARTESIANPOINT((-5.7892415388359E-16,3.60000000000001,0.800000000000002));
#1707=IFCCARTESIANPOINT((4.76235235991626,0.6,0.800000000000002));
#1708=IFCCARTESIANPOINT((4.76235235991626,-0.600000000000001,0.800000000000002));
#1709=IFCCARTESIANPOINT((3.54964786985977,-0.600000000000039,0.800000000000002));
#1710=IFCCARTESIANPOINT((3.60000000000001,-8.81745695386096E-16,0.800000000000002));
#1711=IFCCARTESIANPOINT((0.599999999999999,-4.76235235991626,0.800000000000001));
#1712=IFCCARTESIANPOINT((-0.599999999999997,-4.76235235991626,0.800000000000001));
#1713=IFCCARTESIANPOINT((-0.599999999999997,-3.54964786985977,0.800000000000001));
#1714=IFCCARTESIANPOINT((-6.61309271539572E-16,-3.60000000000001,0.800000000000002));
#1715=IFCCARTESIANPOINT((-4.76235235991626,-0.600000000000002,0.800000000000001));
#1716=IFCCARTESIANPOINT((-4.76235235991626,0.6,0.800000000000001));
#1717=IFCCARTESIANPOINT((-3.54964786985977,0.6,0.800000000000001));
#1718=IFCCARTESIANPOINT((-3.60000000000001,4.40872847693048E-16,0.800000000000002));
#1719=IFCCARTESIANPOINT((-0.6,3.54964786985978,0.800000000000002));
#1720=IFCCARTESIANPOINT((3.54964786985977,0.6,0.800000000000001));
#1721=IFCCARTESIANPOINT((0.599999999999999,-3.54964786985977,0.800000000000001));
#1722=IFCCARTESIANPOINT((-3.54964786985978,-0.600000000000002,0.800000000000002));
#1723=IFCCARTESIANPOINT((-0.6,4.76235235991626,1.2));
#1724=IFCCARTESIANPOINT((-0.6,3.54964786985977,1.8));
#1725=IFCCARTESIANPOINT((-4.76235235991626,0.6,1.2));
#1726=IFCCARTESIANPOINT((-3.54964786985977,0.6,1.8));
#1727=IFCCARTESIANPOINT((-1.37766035651433,3.32596631704064,1.8));
#1728=IFCCARTESIANPOINT((-2.11098408555747,4.3108869378033,1.2));
#1729=IFCCARTESIANPOINT((-4.3108869378033,2.11098408555747,1.2));
#1730=IFCCARTESIANPOINT((-3.32596631704064,1.37766035651432,1.8));
#1731=IFCCARTESIANPOINT((-3.23316520335247,1.5832380641681,1.80000000000001));
#1732=IFCCARTESIANPOINT((-1.5832380641681,3.23316520335247,1.80000000000001));
#1733=IFCCARTESIANPOINT((-2.54558441227157,2.54558441227157,1.80000000000001));
#1734=IFCCARTESIANPOINT((-3.39411254969543,3.39411254969543,1.2));
#1735=IFCCARTESIANPOINT((0.599999999999997,4.76235235991626,1.2));
#1736=IFCCARTESIANPOINT((0.600000000000035,3.54964786985977,1.8));
#1737=IFCCARTESIANPOINT((4.76235235991626,0.6,1.2));
#1738=IFCCARTESIANPOINT((3.54964786985978,0.6,1.8));
#1739=IFCCARTESIANPOINT((2.11098408555747,4.3108869378033,1.2));
#1740=IFCCARTESIANPOINT((1.37766035651433,3.32596631704064,1.8));
#1741=IFCCARTESIANPOINT((1.5832380641681,3.23316520335248,1.8));
#1742=IFCCARTESIANPOINT((3.32596631704064,1.37766035651433,1.8));
#1743=IFCCARTESIANPOINT((4.3108869378033,2.11098408555747,1.2));
#1744=IFCCARTESIANPOINT((3.23316520335248,1.58323806416811,1.8));
#1745=IFCCARTESIANPOINT((2.54558441227157,2.54558441227158,1.8));
#1746=IFCCARTESIANPOINT((3.39411254969543,3.39411254969543,1.2));
#1747=IFCCARTESIANPOINT((4.76235235991626,-0.600000000000001,1.2));
#1748=IFCCARTESIANPOINT((3.54964786985977,-0.600000000000039,1.8));
#1749=IFCCARTESIANPOINT((0.599999999999999,-3.54964786985977,1.8));
#1750=IFCCARTESIANPOINT((0.599999999999999,-4.76235235991626,1.2));
#1751=IFCCARTESIANPOINT((4.3108869378033,-2.11098408555747,1.2));
#1752=IFCCARTESIANPOINT((3.32596631704064,-1.37766035651432,1.8));
#1753=IFCCARTESIANPOINT((3.23316520335247,-1.5832380641681,1.80000000000001));
#1754=IFCCARTESIANPOINT((1.37766035651433,-3.32596631704064,1.8));
#1755=IFCCARTESIANPOINT((2.11098408555747,-4.31088693780329,1.2));
#1756=IFCCARTESIANPOINT((1.5832380641681,-3.23316520335247,1.80000000000001));
#1757=IFCCARTESIANPOINT((2.54558441227157,-2.54558441227157,1.80000000000001));
#1758=IFCCARTESIANPOINT((3.39411254969543,-3.39411254969543,1.2));
#1759=IFCCARTESIANPOINT((-2.54558441227157,-2.54558441227157,1.80000000000001));
#1760=IFCCARTESIANPOINT((-3.23316520335247,-1.5832380641681,1.80000000000001));
#1761=IFCCARTESIANPOINT((-1.5832380641681,-3.23316520335247,1.80000000000001));
#1762=IFCCARTESIANPOINT((-1.37766035651432,-3.32596631704064,1.8));
#1763=IFCCARTESIANPOINT((-3.32596631704064,-1.37766035651433,1.8));
#1764=IFCCARTESIANPOINT((-3.54964786985977,-0.600000000000002,1.8));
#1765=IFCCARTESIANPOINT((-0.599999999999997,-3.54964786985978,1.8));
#1766=IFCCARTESIANPOINT((-4.76235235991626,-0.600000000000002,1.2));
#1767=IFCCARTESIANPOINT((-0.599999999999997,-4.76235235991626,1.2));
#1768=IFCCARTESIANPOINT((-4.31088693780329,-2.11098408555747,1.2));
#1769=IFCCARTESIANPOINT((-2.11098408555747,-4.31088693780329,1.2));
#1770=IFCCARTESIANPOINT((-3.39411254969543,-3.39411254969543,1.2));
#1771=IFCCARTESIANPOINT((0.,0.,0.));
#1772=IFCCARTESIANPOINT((0.,0.,0.));
#1773=IFCGEOMETRICREPRESENTATIONCONTEXT($,'Model',3,0.005,#1380,$);
#1774=IFCSIUNIT(*,.LENGTHUNIT.,.MILLI.,.METRE.);
#1775=IFCSIUNIT(*,.AREAUNIT.,$,.SQUARE_METRE.);
#1776=IFCSIUNIT(*,.VOLUMEUNIT.,$,.CUBIC_METRE.);
#1777=IFCSIUNIT(*,.PLANEANGLEUNIT.,$,.RADIAN.);
#1778=IFCOWNERHISTORY(#1780,#1779,$,.NOCHANGE.,0,$,$,0);
#1779=IFCAPPLICATION(#1781,' ',' ',' ');
#1780=IFCPERSONANDORGANIZATION(#1782,#1781,$);
#1781=IFCORGANIZATION($,' ',$,$,$);
#1782=IFCPERSON(' ',' ',' ',$,$,$,$,$);
ENDSEC;
END-ISO-10303-21;
