ISO-10303-21;
HEADER;
/* Generated by software containing ST-Developer
 * from STEP Tools, Inc. (www.steptools.com) 
 */
/* OPTION: strings as raw bytes, not using required /X/ escapes */

FILE_DESCRIPTION(
/* description */ ('Unknown'),
/* implementation_level */ '2;1');

FILE_NAME(
/* name */ 'ClGray_4211573_JCA',
/* time_stamp */ '2025-07-21T23:51:16+02:00',
/* author */ ('Unknown'),
/* organization */ ('Unknown'),
/* preprocessor_version */ 'ST-DEVELOPER v19.4',
/* originating_system */ 'Unknown',
/* authorisation */ 'OpenTools');

FILE_SCHEMA (('IFC2X3'));
ENDSEC;

DATA;
#10=IFCPROPERTYSINGLEVALUE('ProjectName',$,IFCTEXT(''),$);
#11=IFCPROPERTYSINGLEVALUE('PartNumber',$,IFCTEXT(''),$);
#12=IFCRELDEFINESBYPROPERTIES('3cRq1JQpSwDOm5lsE5cG83',#1994,$,$,(#14),
#13);
#13=IFCPROPERTYSET('1jOd4kXgWorA4TVRi95rqH',#1994,
'empty property set name',$,(#10,#11));
#14=IFCBUILDINGELEMENTPROXY('2GP_XOK7Wq1Pa1NGQTVWHM',#1994,
'ClGray_4211573_JCA',' ','ClGray_4211573_JCA',#19,#15,' ',.ELEMENT.);
#15=IFCPRODUCTDEFINITIONSHAPE(' ',' ',(#25));
#16=IFCRELCONTAINEDINSPATIALSTRUCTURE('3HZhfx2I0vj9Cvp1GHER_f',#1994,
' ',' ',(#14),#20);
#17=IFCRELAGGREGATES('1jF0XzMGqvEA6wZwPLSawz',#1994,$,$,#1497,(#20));
#18=IFCLOCALPLACEMENT($,#1500);
#19=IFCLOCALPLACEMENT(#18,#1501);
#20=IFCBUILDING('3G2N19bOG__grq1LV0cQPU',#1994,'Default Building',$,$,#18,
$,$,.ELEMENT.,0.,0.,$);
#21=IFCCARTESIANTRANSFORMATIONOPERATOR3D($,$,#1987,1.,$);
#22=IFCMAPPEDITEM(#23,#21);
#23=IFCREPRESENTATIONMAP(#1500,#24);
#24=IFCSHAPEREPRESENTATION(#1499,'Body','Brep',(#1496));
#25=IFCSHAPEREPRESENTATION(#1499,'Body','MappedRepresentation',(#22));
#26=IFCPOLYLOOP((#1507,#1508,#1509,#1510));
#27=IFCPOLYLOOP((#1508,#1511,#1512,#1509));
#28=IFCPOLYLOOP((#1511,#1513,#1514,#1512));
#29=IFCPOLYLOOP((#1513,#1515,#1516,#1514));
#30=IFCPOLYLOOP((#1515,#1517,#1518,#1516));
#31=IFCPOLYLOOP((#1517,#1519,#1520,#1518));
#32=IFCPOLYLOOP((#1519,#1521,#1522,#1520));
#33=IFCPOLYLOOP((#1521,#1523,#1524,#1522));
#34=IFCPOLYLOOP((#1523,#1525,#1526,#1524));
#35=IFCPOLYLOOP((#1525,#1527,#1528,#1526));
#36=IFCPOLYLOOP((#1527,#1529,#1530,#1528));
#37=IFCPOLYLOOP((#1529,#1531,#1532,#1530));
#38=IFCPOLYLOOP((#1531,#1533,#1534,#1532));
#39=IFCPOLYLOOP((#1533,#1535,#1536,#1534));
#40=IFCPOLYLOOP((#1535,#1537,#1538,#1536));
#41=IFCPOLYLOOP((#1537,#1507,#1510,#1538));
#42=IFCPOLYLOOP((#1510,#1509,#1539,#1540));
#43=IFCPOLYLOOP((#1509,#1512,#1541,#1539));
#44=IFCPOLYLOOP((#1512,#1514,#1542,#1541));
#45=IFCPOLYLOOP((#1514,#1516,#1543,#1542));
#46=IFCPOLYLOOP((#1516,#1518,#1544,#1543));
#47=IFCPOLYLOOP((#1518,#1520,#1545,#1544));
#48=IFCPOLYLOOP((#1520,#1522,#1546,#1545));
#49=IFCPOLYLOOP((#1522,#1524,#1547,#1546));
#50=IFCPOLYLOOP((#1524,#1526,#1548,#1547));
#51=IFCPOLYLOOP((#1526,#1528,#1549,#1548));
#52=IFCPOLYLOOP((#1528,#1530,#1550,#1549));
#53=IFCPOLYLOOP((#1530,#1532,#1551,#1550));
#54=IFCPOLYLOOP((#1532,#1534,#1552,#1551));
#55=IFCPOLYLOOP((#1534,#1536,#1553,#1552));
#56=IFCPOLYLOOP((#1536,#1538,#1554,#1553));
#57=IFCPOLYLOOP((#1538,#1510,#1540,#1554));
#58=IFCPOLYLOOP((#1540,#1539,#1555,#1556));
#59=IFCPOLYLOOP((#1539,#1541,#1557,#1555));
#60=IFCPOLYLOOP((#1541,#1542,#1558,#1557));
#61=IFCPOLYLOOP((#1542,#1543,#1559,#1558));
#62=IFCPOLYLOOP((#1543,#1544,#1560,#1559));
#63=IFCPOLYLOOP((#1544,#1545,#1561,#1560));
#64=IFCPOLYLOOP((#1545,#1546,#1562,#1561));
#65=IFCPOLYLOOP((#1546,#1547,#1563,#1562));
#66=IFCPOLYLOOP((#1547,#1548,#1564,#1563));
#67=IFCPOLYLOOP((#1548,#1549,#1565,#1564));
#68=IFCPOLYLOOP((#1549,#1550,#1566,#1565));
#69=IFCPOLYLOOP((#1550,#1551,#1567,#1566));
#70=IFCPOLYLOOP((#1551,#1552,#1568,#1567));
#71=IFCPOLYLOOP((#1552,#1553,#1569,#1568));
#72=IFCPOLYLOOP((#1553,#1554,#1570,#1569));
#73=IFCPOLYLOOP((#1554,#1540,#1556,#1570));
#74=IFCPOLYLOOP((#1556,#1555,#1571,#1572));
#75=IFCPOLYLOOP((#1555,#1557,#1573,#1571));
#76=IFCPOLYLOOP((#1557,#1558,#1574,#1573));
#77=IFCPOLYLOOP((#1558,#1559,#1575,#1574));
#78=IFCPOLYLOOP((#1559,#1560,#1576,#1575));
#79=IFCPOLYLOOP((#1560,#1561,#1577,#1576));
#80=IFCPOLYLOOP((#1561,#1562,#1578,#1577));
#81=IFCPOLYLOOP((#1562,#1563,#1579,#1578));
#82=IFCPOLYLOOP((#1563,#1564,#1580,#1579));
#83=IFCPOLYLOOP((#1564,#1565,#1581,#1580));
#84=IFCPOLYLOOP((#1565,#1566,#1582,#1581));
#85=IFCPOLYLOOP((#1566,#1567,#1583,#1582));
#86=IFCPOLYLOOP((#1567,#1568,#1584,#1583));
#87=IFCPOLYLOOP((#1568,#1569,#1585,#1584));
#88=IFCPOLYLOOP((#1569,#1570,#1586,#1585));
#89=IFCPOLYLOOP((#1570,#1556,#1572,#1586));
#90=IFCPOLYLOOP((#1572,#1571,#1587,#1588));
#91=IFCPOLYLOOP((#1571,#1573,#1589,#1587));
#92=IFCPOLYLOOP((#1573,#1574,#1590,#1589));
#93=IFCPOLYLOOP((#1574,#1575,#1591,#1590));
#94=IFCPOLYLOOP((#1575,#1576,#1592,#1591));
#95=IFCPOLYLOOP((#1576,#1577,#1593,#1592));
#96=IFCPOLYLOOP((#1577,#1578,#1594,#1593));
#97=IFCPOLYLOOP((#1578,#1579,#1595,#1594));
#98=IFCPOLYLOOP((#1579,#1580,#1596,#1595));
#99=IFCPOLYLOOP((#1580,#1581,#1597,#1596));
#100=IFCPOLYLOOP((#1581,#1582,#1598,#1597));
#101=IFCPOLYLOOP((#1582,#1583,#1599,#1598));
#102=IFCPOLYLOOP((#1583,#1584,#1600,#1599));
#103=IFCPOLYLOOP((#1584,#1585,#1601,#1600));
#104=IFCPOLYLOOP((#1585,#1586,#1602,#1601));
#105=IFCPOLYLOOP((#1586,#1572,#1588,#1602));
#106=IFCPOLYLOOP((#1603,#1594,#1595,#1604));
#107=IFCPOLYLOOP((#1605,#1593,#1594,#1603));
#108=IFCPOLYLOOP((#1606,#1592,#1593,#1605));
#109=IFCPOLYLOOP((#1607,#1591,#1592,#1606));
#110=IFCPOLYLOOP((#1608,#1590,#1591,#1607));
#111=IFCPOLYLOOP((#1609,#1589,#1590,#1608));
#112=IFCPOLYLOOP((#1610,#1587,#1589,#1609));
#113=IFCPOLYLOOP((#1611,#1588,#1587,#1610));
#114=IFCPOLYLOOP((#1612,#1602,#1588,#1611));
#115=IFCPOLYLOOP((#1613,#1601,#1602,#1612));
#116=IFCPOLYLOOP((#1614,#1600,#1601,#1613));
#117=IFCPOLYLOOP((#1615,#1599,#1600,#1614));
#118=IFCPOLYLOOP((#1616,#1598,#1599,#1615));
#119=IFCPOLYLOOP((#1617,#1597,#1598,#1616));
#120=IFCPOLYLOOP((#1618,#1596,#1597,#1617));
#121=IFCPOLYLOOP((#1604,#1595,#1596,#1618));
#122=IFCPOLYLOOP((#1619,#1620,#1603,#1604));
#123=IFCPOLYLOOP((#1620,#1621,#1605,#1603));
#124=IFCPOLYLOOP((#1621,#1622,#1606,#1605));
#125=IFCPOLYLOOP((#1622,#1623,#1607,#1606));
#126=IFCPOLYLOOP((#1623,#1624,#1608,#1607));
#127=IFCPOLYLOOP((#1624,#1625,#1609,#1608));
#128=IFCPOLYLOOP((#1625,#1626,#1610,#1609));
#129=IFCPOLYLOOP((#1626,#1627,#1611,#1610));
#130=IFCPOLYLOOP((#1627,#1628,#1612,#1611));
#131=IFCPOLYLOOP((#1628,#1629,#1613,#1612));
#132=IFCPOLYLOOP((#1629,#1630,#1614,#1613));
#133=IFCPOLYLOOP((#1630,#1631,#1615,#1614));
#134=IFCPOLYLOOP((#1631,#1632,#1616,#1615));
#135=IFCPOLYLOOP((#1632,#1633,#1617,#1616));
#136=IFCPOLYLOOP((#1633,#1634,#1618,#1617));
#137=IFCPOLYLOOP((#1634,#1619,#1604,#1618));
#138=IFCPOLYLOOP((#1627,#1626,#1635,#1636));
#139=IFCPOLYLOOP((#1626,#1625,#1637,#1635));
#140=IFCPOLYLOOP((#1625,#1624,#1638,#1637));
#141=IFCPOLYLOOP((#1624,#1623,#1639,#1638));
#142=IFCPOLYLOOP((#1623,#1622,#1640,#1639));
#143=IFCPOLYLOOP((#1622,#1621,#1641,#1640));
#144=IFCPOLYLOOP((#1621,#1620,#1642,#1641));
#145=IFCPOLYLOOP((#1620,#1619,#1643,#1642));
#146=IFCPOLYLOOP((#1619,#1634,#1644,#1643));
#147=IFCPOLYLOOP((#1634,#1633,#1645,#1644));
#148=IFCPOLYLOOP((#1633,#1632,#1646,#1645));
#149=IFCPOLYLOOP((#1632,#1631,#1647,#1646));
#150=IFCPOLYLOOP((#1631,#1630,#1648,#1647));
#151=IFCPOLYLOOP((#1630,#1629,#1649,#1648));
#152=IFCPOLYLOOP((#1629,#1628,#1650,#1649));
#153=IFCPOLYLOOP((#1628,#1627,#1636,#1650));
#154=IFCPOLYLOOP((#1636,#1635,#1651,#1652));
#155=IFCPOLYLOOP((#1635,#1637,#1653,#1651));
#156=IFCPOLYLOOP((#1637,#1638,#1654,#1653));
#157=IFCPOLYLOOP((#1638,#1639,#1655,#1654));
#158=IFCPOLYLOOP((#1639,#1640,#1656,#1655));
#159=IFCPOLYLOOP((#1640,#1641,#1657,#1656));
#160=IFCPOLYLOOP((#1641,#1642,#1658,#1657));
#161=IFCPOLYLOOP((#1642,#1643,#1659,#1658));
#162=IFCPOLYLOOP((#1643,#1644,#1660,#1659));
#163=IFCPOLYLOOP((#1644,#1645,#1661,#1660));
#164=IFCPOLYLOOP((#1645,#1646,#1662,#1661));
#165=IFCPOLYLOOP((#1646,#1647,#1663,#1662));
#166=IFCPOLYLOOP((#1647,#1648,#1664,#1663));
#167=IFCPOLYLOOP((#1648,#1649,#1665,#1664));
#168=IFCPOLYLOOP((#1649,#1650,#1666,#1665));
#169=IFCPOLYLOOP((#1650,#1636,#1652,#1666));
#170=IFCPOLYLOOP((#1652,#1651,#1667,#1668));
#171=IFCPOLYLOOP((#1651,#1653,#1669,#1667));
#172=IFCPOLYLOOP((#1653,#1654,#1670,#1669));
#173=IFCPOLYLOOP((#1654,#1655,#1671,#1670));
#174=IFCPOLYLOOP((#1655,#1656,#1672,#1671));
#175=IFCPOLYLOOP((#1656,#1657,#1673,#1672));
#176=IFCPOLYLOOP((#1657,#1658,#1674,#1673));
#177=IFCPOLYLOOP((#1658,#1659,#1675,#1674));
#178=IFCPOLYLOOP((#1659,#1660,#1676,#1675));
#179=IFCPOLYLOOP((#1660,#1661,#1677,#1676));
#180=IFCPOLYLOOP((#1661,#1662,#1678,#1677));
#181=IFCPOLYLOOP((#1662,#1663,#1679,#1678));
#182=IFCPOLYLOOP((#1663,#1664,#1680,#1679));
#183=IFCPOLYLOOP((#1664,#1665,#1681,#1680));
#184=IFCPOLYLOOP((#1665,#1666,#1682,#1681));
#185=IFCPOLYLOOP((#1666,#1652,#1668,#1682));
#186=IFCPOLYLOOP((#1668,#1667,#1683,#1684));
#187=IFCPOLYLOOP((#1667,#1669,#1685,#1683));
#188=IFCPOLYLOOP((#1669,#1670,#1686,#1685));
#189=IFCPOLYLOOP((#1670,#1671,#1687,#1686));
#190=IFCPOLYLOOP((#1671,#1672,#1688,#1687));
#191=IFCPOLYLOOP((#1672,#1673,#1689,#1688));
#192=IFCPOLYLOOP((#1673,#1674,#1690,#1689));
#193=IFCPOLYLOOP((#1674,#1675,#1691,#1690));
#194=IFCPOLYLOOP((#1675,#1676,#1692,#1691));
#195=IFCPOLYLOOP((#1676,#1677,#1693,#1692));
#196=IFCPOLYLOOP((#1677,#1678,#1694,#1693));
#197=IFCPOLYLOOP((#1678,#1679,#1695,#1694));
#198=IFCPOLYLOOP((#1679,#1680,#1696,#1695));
#199=IFCPOLYLOOP((#1680,#1681,#1697,#1696));
#200=IFCPOLYLOOP((#1681,#1682,#1698,#1697));
#201=IFCPOLYLOOP((#1682,#1668,#1684,#1698));
#202=IFCPOLYLOOP((#1521,#1699,#1700,#1523));
#203=IFCPOLYLOOP((#1519,#1701,#1699,#1521));
#204=IFCPOLYLOOP((#1517,#1702,#1701,#1519));
#205=IFCPOLYLOOP((#1515,#1703,#1702,#1517));
#206=IFCPOLYLOOP((#1513,#1704,#1703,#1515));
#207=IFCPOLYLOOP((#1511,#1705,#1704,#1513));
#208=IFCPOLYLOOP((#1508,#1706,#1705,#1511));
#209=IFCPOLYLOOP((#1507,#1707,#1706,#1508));
#210=IFCPOLYLOOP((#1537,#1708,#1707,#1507));
#211=IFCPOLYLOOP((#1535,#1709,#1708,#1537));
#212=IFCPOLYLOOP((#1533,#1710,#1709,#1535));
#213=IFCPOLYLOOP((#1531,#1711,#1710,#1533));
#214=IFCPOLYLOOP((#1529,#1712,#1711,#1531));
#215=IFCPOLYLOOP((#1527,#1713,#1712,#1529));
#216=IFCPOLYLOOP((#1525,#1714,#1713,#1527));
#217=IFCPOLYLOOP((#1523,#1700,#1714,#1525));
#218=IFCPOLYLOOP((#1715,#1716,#1717,#1718));
#219=IFCPOLYLOOP((#1716,#1719,#1720,#1717));
#220=IFCPOLYLOOP((#1719,#1721,#1722,#1720));
#221=IFCPOLYLOOP((#1721,#1723,#1724,#1722));
#222=IFCPOLYLOOP((#1723,#1725,#1726,#1724));
#223=IFCPOLYLOOP((#1725,#1727,#1728,#1726));
#224=IFCPOLYLOOP((#1727,#1729,#1730,#1728));
#225=IFCPOLYLOOP((#1729,#1731,#1732,#1730));
#226=IFCPOLYLOOP((#1731,#1733,#1734,#1732));
#227=IFCPOLYLOOP((#1733,#1735,#1736,#1734));
#228=IFCPOLYLOOP((#1735,#1737,#1738,#1736));
#229=IFCPOLYLOOP((#1737,#1739,#1740,#1738));
#230=IFCPOLYLOOP((#1739,#1741,#1742,#1740));
#231=IFCPOLYLOOP((#1741,#1743,#1744,#1742));
#232=IFCPOLYLOOP((#1743,#1745,#1746,#1744));
#233=IFCPOLYLOOP((#1745,#1715,#1718,#1746));
#234=IFCPOLYLOOP((#1718,#1717,#1747,#1748));
#235=IFCPOLYLOOP((#1717,#1720,#1749,#1747));
#236=IFCPOLYLOOP((#1720,#1722,#1750,#1749));
#237=IFCPOLYLOOP((#1722,#1724,#1751,#1750));
#238=IFCPOLYLOOP((#1724,#1726,#1752,#1751));
#239=IFCPOLYLOOP((#1726,#1728,#1753,#1752));
#240=IFCPOLYLOOP((#1728,#1730,#1754,#1753));
#241=IFCPOLYLOOP((#1730,#1732,#1755,#1754));
#242=IFCPOLYLOOP((#1732,#1734,#1756,#1755));
#243=IFCPOLYLOOP((#1734,#1736,#1757,#1756));
#244=IFCPOLYLOOP((#1736,#1738,#1758,#1757));
#245=IFCPOLYLOOP((#1738,#1740,#1759,#1758));
#246=IFCPOLYLOOP((#1740,#1742,#1760,#1759));
#247=IFCPOLYLOOP((#1742,#1744,#1761,#1760));
#248=IFCPOLYLOOP((#1744,#1746,#1762,#1761));
#249=IFCPOLYLOOP((#1746,#1718,#1748,#1762));
#250=IFCPOLYLOOP((#1748,#1747,#1763,#1764));
#251=IFCPOLYLOOP((#1747,#1749,#1765,#1763));
#252=IFCPOLYLOOP((#1749,#1750,#1766,#1765));
#253=IFCPOLYLOOP((#1750,#1751,#1767,#1766));
#254=IFCPOLYLOOP((#1751,#1752,#1768,#1767));
#255=IFCPOLYLOOP((#1752,#1753,#1769,#1768));
#256=IFCPOLYLOOP((#1753,#1754,#1770,#1769));
#257=IFCPOLYLOOP((#1754,#1755,#1771,#1770));
#258=IFCPOLYLOOP((#1755,#1756,#1772,#1771));
#259=IFCPOLYLOOP((#1756,#1757,#1773,#1772));
#260=IFCPOLYLOOP((#1757,#1758,#1774,#1773));
#261=IFCPOLYLOOP((#1758,#1759,#1775,#1774));
#262=IFCPOLYLOOP((#1759,#1760,#1776,#1775));
#263=IFCPOLYLOOP((#1760,#1761,#1777,#1776));
#264=IFCPOLYLOOP((#1761,#1762,#1778,#1777));
#265=IFCPOLYLOOP((#1762,#1748,#1764,#1778));
#266=IFCPOLYLOOP((#1764,#1763,#1706,#1707));
#267=IFCPOLYLOOP((#1763,#1765,#1705,#1706));
#268=IFCPOLYLOOP((#1765,#1766,#1704,#1705));
#269=IFCPOLYLOOP((#1766,#1767,#1703,#1704));
#270=IFCPOLYLOOP((#1767,#1768,#1702,#1703));
#271=IFCPOLYLOOP((#1768,#1769,#1701,#1702));
#272=IFCPOLYLOOP((#1769,#1770,#1699,#1701));
#273=IFCPOLYLOOP((#1770,#1771,#1700,#1699));
#274=IFCPOLYLOOP((#1771,#1772,#1714,#1700));
#275=IFCPOLYLOOP((#1772,#1773,#1713,#1714));
#276=IFCPOLYLOOP((#1773,#1774,#1712,#1713));
#277=IFCPOLYLOOP((#1774,#1775,#1711,#1712));
#278=IFCPOLYLOOP((#1775,#1776,#1710,#1711));
#279=IFCPOLYLOOP((#1776,#1777,#1709,#1710));
#280=IFCPOLYLOOP((#1777,#1778,#1708,#1709));
#281=IFCPOLYLOOP((#1778,#1764,#1707,#1708));
#282=IFCPOLYLOOP((#1779,#1690,#1691,#1780));
#283=IFCPOLYLOOP((#1781,#1689,#1690,#1779));
#284=IFCPOLYLOOP((#1782,#1688,#1689,#1781));
#285=IFCPOLYLOOP((#1783,#1687,#1688,#1782));
#286=IFCPOLYLOOP((#1784,#1686,#1687,#1783));
#287=IFCPOLYLOOP((#1785,#1685,#1686,#1784));
#288=IFCPOLYLOOP((#1786,#1683,#1685,#1785));
#289=IFCPOLYLOOP((#1787,#1684,#1683,#1786));
#290=IFCPOLYLOOP((#1788,#1698,#1684,#1787));
#291=IFCPOLYLOOP((#1789,#1697,#1698,#1788));
#292=IFCPOLYLOOP((#1790,#1696,#1697,#1789));
#293=IFCPOLYLOOP((#1791,#1695,#1696,#1790));
#294=IFCPOLYLOOP((#1792,#1694,#1695,#1791));
#295=IFCPOLYLOOP((#1793,#1693,#1694,#1792));
#296=IFCPOLYLOOP((#1794,#1692,#1693,#1793));
#297=IFCPOLYLOOP((#1780,#1691,#1692,#1794));
#298=IFCPOLYLOOP((#1787,#1786,#1795,#1796));
#299=IFCPOLYLOOP((#1786,#1785,#1797,#1795));
#300=IFCPOLYLOOP((#1785,#1784,#1798,#1797));
#301=IFCPOLYLOOP((#1784,#1783,#1799,#1798));
#302=IFCPOLYLOOP((#1783,#1782,#1800,#1799));
#303=IFCPOLYLOOP((#1782,#1781,#1801,#1800));
#304=IFCPOLYLOOP((#1781,#1779,#1802,#1801));
#305=IFCPOLYLOOP((#1779,#1780,#1803,#1802));
#306=IFCPOLYLOOP((#1780,#1794,#1804,#1803));
#307=IFCPOLYLOOP((#1794,#1793,#1805,#1804));
#308=IFCPOLYLOOP((#1793,#1792,#1806,#1805));
#309=IFCPOLYLOOP((#1792,#1791,#1807,#1806));
#310=IFCPOLYLOOP((#1791,#1790,#1808,#1807));
#311=IFCPOLYLOOP((#1790,#1789,#1809,#1808));
#312=IFCPOLYLOOP((#1789,#1788,#1810,#1809));
#313=IFCPOLYLOOP((#1788,#1787,#1796,#1810));
#314=IFCPOLYLOOP((#1796,#1795,#1811,#1812));
#315=IFCPOLYLOOP((#1795,#1797,#1813,#1811));
#316=IFCPOLYLOOP((#1797,#1798,#1814,#1813));
#317=IFCPOLYLOOP((#1798,#1799,#1815,#1814));
#318=IFCPOLYLOOP((#1799,#1800,#1816,#1815));
#319=IFCPOLYLOOP((#1800,#1801,#1817,#1816));
#320=IFCPOLYLOOP((#1801,#1802,#1818,#1817));
#321=IFCPOLYLOOP((#1802,#1803,#1819,#1818));
#322=IFCPOLYLOOP((#1803,#1804,#1820,#1819));
#323=IFCPOLYLOOP((#1804,#1805,#1821,#1820));
#324=IFCPOLYLOOP((#1805,#1806,#1822,#1821));
#325=IFCPOLYLOOP((#1806,#1807,#1823,#1822));
#326=IFCPOLYLOOP((#1807,#1808,#1824,#1823));
#327=IFCPOLYLOOP((#1808,#1809,#1825,#1824));
#328=IFCPOLYLOOP((#1809,#1810,#1826,#1825));
#329=IFCPOLYLOOP((#1810,#1796,#1812,#1826));
#330=IFCPOLYLOOP((#1812,#1811,#1827,#1828));
#331=IFCPOLYLOOP((#1811,#1813,#1829,#1827));
#332=IFCPOLYLOOP((#1813,#1814,#1830,#1829));
#333=IFCPOLYLOOP((#1814,#1815,#1831,#1830));
#334=IFCPOLYLOOP((#1815,#1816,#1832,#1831));
#335=IFCPOLYLOOP((#1816,#1817,#1833,#1832));
#336=IFCPOLYLOOP((#1817,#1818,#1834,#1833));
#337=IFCPOLYLOOP((#1818,#1819,#1835,#1834));
#338=IFCPOLYLOOP((#1819,#1820,#1836,#1835));
#339=IFCPOLYLOOP((#1820,#1821,#1837,#1836));
#340=IFCPOLYLOOP((#1821,#1822,#1838,#1837));
#341=IFCPOLYLOOP((#1822,#1823,#1839,#1838));
#342=IFCPOLYLOOP((#1823,#1824,#1840,#1839));
#343=IFCPOLYLOOP((#1824,#1825,#1841,#1840));
#344=IFCPOLYLOOP((#1825,#1826,#1842,#1841));
#345=IFCPOLYLOOP((#1826,#1812,#1828,#1842));
#346=IFCPOLYLOOP((#1828,#1827,#1843,#1844));
#347=IFCPOLYLOOP((#1827,#1829,#1845,#1843));
#348=IFCPOLYLOOP((#1829,#1830,#1846,#1845));
#349=IFCPOLYLOOP((#1830,#1831,#1847,#1846));
#350=IFCPOLYLOOP((#1831,#1832,#1848,#1847));
#351=IFCPOLYLOOP((#1832,#1833,#1849,#1848));
#352=IFCPOLYLOOP((#1833,#1834,#1850,#1849));
#353=IFCPOLYLOOP((#1834,#1835,#1851,#1850));
#354=IFCPOLYLOOP((#1835,#1836,#1852,#1851));
#355=IFCPOLYLOOP((#1836,#1837,#1853,#1852));
#356=IFCPOLYLOOP((#1837,#1838,#1854,#1853));
#357=IFCPOLYLOOP((#1838,#1839,#1855,#1854));
#358=IFCPOLYLOOP((#1839,#1840,#1856,#1855));
#359=IFCPOLYLOOP((#1840,#1841,#1857,#1856));
#360=IFCPOLYLOOP((#1841,#1842,#1858,#1857));
#361=IFCPOLYLOOP((#1842,#1828,#1844,#1858));
#362=IFCPOLYLOOP((#1857,#1859,#1860));
#363=IFCPOLYLOOP((#1845,#1861,#1862,#1863,#1864,#1865,#1866,#1867));
#364=IFCPOLYLOOP((#1853,#1868,#1869,#1870,#1871,#1872,#1873,#1874));
#365=IFCPOLYLOOP((#1860,#1875,#1876,#1877,#1878,#1879,#1880,#1857));
#366=IFCPOLYLOOP((#1845,#1881,#1861));
#367=IFCPOLYLOOP((#1853,#1882,#1868));
#368=IFCPOLYLOOP((#1880,#1883,#1857));
#369=IFCPOLYLOOP((#1867,#1884,#1845));
#370=IFCPOLYLOOP((#1845,#1846,#1885,#1886));
#371=IFCPOLYLOOP((#1874,#1887,#1853));
#372=IFCPOLYLOOP((#1857,#1888,#1859));
#373=IFCPOLYLOOP((#1886,#1881,#1845));
#374=IFCPOLYLOOP((#1849,#1889,#1890,#1891,#1892,#1893,#1894,#1895));
#375=IFCPOLYLOOP((#1853,#1896,#1882));
#376=IFCPOLYLOOP((#1883,#1897,#1857));
#377=IFCPOLYLOOP((#1858,#1898,#1899));
#378=IFCPOLYLOOP((#1884,#1900,#1845));
#379=IFCPOLYLOOP((#1849,#1901,#1889));
#380=IFCPOLYLOOP((#1849,#1850,#1902,#1903));
#381=IFCPOLYLOOP((#1887,#1904,#1853));
#382=IFCPOLYLOOP((#1854,#1905,#1906));
#383=IFCPOLYLOOP((#1899,#1888,#1857,#1858));
#384=IFCPOLYLOOP((#1846,#1907,#1885));
#385=IFCPOLYLOOP((#1903,#1901,#1849));
#386=IFCPOLYLOOP((#1906,#1896,#1853,#1854));
#387=IFCPOLYLOOP((#1897,#1908,#1856,#1857));
#388=IFCPOLYLOOP((#1900,#1909,#1843,#1845));
#389=IFCPOLYLOOP((#1849,#1910,#1911));
#390=IFCPOLYLOOP((#1850,#1912,#1902));
#391=IFCPOLYLOOP((#1904,#1913,#1852,#1853));
#392=IFCPOLYLOOP((#1908,#1914,#1856));
#393=IFCPOLYLOOP((#1909,#1915,#1843));
#394=IFCPOLYLOOP((#1895,#1910,#1849));
#395=IFCPOLYLOOP((#1913,#1916,#1852));
#396=IFCPOLYLOOP((#1858,#1844,#1917,#1898));
#397=IFCPOLYLOOP((#1846,#1847,#1918,#1907));
#398=IFCPOLYLOOP((#1911,#1919,#1848,#1849));
#399=IFCPOLYLOOP((#1854,#1855,#1920,#1905));
#400=IFCPOLYLOOP((#1915,#1917,#1844,#1843));
#401=IFCPOLYLOOP((#1919,#1921,#1848));
#402=IFCPOLYLOOP((#1914,#1920,#1855,#1856));
#403=IFCPOLYLOOP((#1850,#1851,#1922,#1912));
#404=IFCPOLYLOOP((#1921,#1918,#1847,#1848));
#405=IFCPOLYLOOP((#1916,#1922,#1851,#1852));
#406=IFCPOLYLOOP((#1743,#1923,#1924,#1925,#1926,#1927,#1928,#1929));
#407=IFCPOLYLOOP((#1735,#1930,#1931,#1932,#1933,#1934,#1935,#1936));
#408=IFCPOLYLOOP((#1743,#1937,#1923));
#409=IFCPOLYLOOP((#1735,#1938,#1930));
#410=IFCPOLYLOOP((#1929,#1939,#1743));
#411=IFCPOLYLOOP((#1936,#1940,#1735));
#412=IFCPOLYLOOP((#1743,#1941,#1937));
#413=IFCPOLYLOOP((#1735,#1942,#1938));
#414=IFCPOLYLOOP((#1727,#1943,#1944));
#415=IFCPOLYLOOP((#1727,#1945,#1946,#1947,#1948,#1949,#1950,#1951));
#416=IFCPOLYLOOP((#1719,#1952,#1953,#1954,#1955,#1956,#1957,#1958));
#417=IFCPOLYLOOP((#1939,#1959,#1743));
#418=IFCPOLYLOOP((#1741,#1960,#1961));
#419=IFCPOLYLOOP((#1940,#1962,#1735));
#420=IFCPOLYLOOP((#1733,#1963,#1964));
#421=IFCPOLYLOOP((#1944,#1965,#1729,#1727));
#422=IFCPOLYLOOP((#1727,#1966,#1945));
#423=IFCPOLYLOOP((#1719,#1967,#1968));
#424=IFCPOLYLOOP((#1719,#1969,#1952));
#425=IFCPOLYLOOP((#1961,#1941,#1743,#1741));
#426=IFCPOLYLOOP((#1964,#1942,#1735,#1733));
#427=IFCPOLYLOOP((#1951,#1943,#1727));
#428=IFCPOLYLOOP((#1727,#1725,#1970,#1971));
#429=IFCPOLYLOOP((#1958,#1967,#1719));
#430=IFCPOLYLOOP((#1959,#1972,#1745,#1743));
#431=IFCPOLYLOOP((#1962,#1973,#1737,#1735));
#432=IFCPOLYLOOP((#1971,#1966,#1727));
#433=IFCPOLYLOOP((#1719,#1974,#1969));
#434=IFCPOLYLOOP((#1716,#1975,#1976));
#435=IFCPOLYLOOP((#1972,#1977,#1745));
#436=IFCPOLYLOOP((#1973,#1978,#1737));
#437=IFCPOLYLOOP((#1725,#1979,#1970));
#438=IFCPOLYLOOP((#1976,#1974,#1719,#1716));
#439=IFCPOLYLOOP((#1741,#1739,#1980,#1960));
#440=IFCPOLYLOOP((#1733,#1731,#1981,#1963));
#441=IFCPOLYLOOP((#1725,#1723,#1982,#1979));
#442=IFCPOLYLOOP((#1968,#1983,#1721,#1719));
#443=IFCPOLYLOOP((#1978,#1980,#1739,#1737));
#444=IFCPOLYLOOP((#1965,#1984,#1729));
#445=IFCPOLYLOOP((#1716,#1715,#1985,#1975));
#446=IFCPOLYLOOP((#1984,#1981,#1731,#1729));
#447=IFCPOLYLOOP((#1983,#1986,#1721));
#448=IFCPOLYLOOP((#1986,#1982,#1723,#1721));
#449=IFCPOLYLOOP((#1977,#1985,#1715,#1745));
#450=IFCPOLYLOOP((#1881,#1967,#1958,#1861));
#451=IFCPOLYLOOP((#1886,#1968,#1967,#1881));
#452=IFCPOLYLOOP((#1885,#1983,#1968,#1886));
#453=IFCPOLYLOOP((#1907,#1986,#1983,#1885));
#454=IFCPOLYLOOP((#1859,#1939,#1929,#1860));
#455=IFCPOLYLOOP((#1888,#1959,#1939,#1859));
#456=IFCPOLYLOOP((#1899,#1972,#1959,#1888));
#457=IFCPOLYLOOP((#1898,#1977,#1972,#1899));
#458=IFCPOLYLOOP((#1908,#1961,#1960,#1914));
#459=IFCPOLYLOOP((#1897,#1941,#1961,#1908));
#460=IFCPOLYLOOP((#1883,#1937,#1941,#1897));
#461=IFCPOLYLOOP((#1880,#1923,#1937,#1883));
#462=IFCPOLYLOOP((#1882,#1940,#1936,#1868));
#463=IFCPOLYLOOP((#1896,#1962,#1940,#1882));
#464=IFCPOLYLOOP((#1906,#1973,#1962,#1896));
#465=IFCPOLYLOOP((#1905,#1978,#1973,#1906));
#466=IFCPOLYLOOP((#1913,#1964,#1963,#1916));
#467=IFCPOLYLOOP((#1904,#1942,#1964,#1913));
#468=IFCPOLYLOOP((#1887,#1938,#1942,#1904));
#469=IFCPOLYLOOP((#1874,#1930,#1938,#1887));
#470=IFCPOLYLOOP((#1901,#1943,#1951,#1889));
#471=IFCPOLYLOOP((#1903,#1944,#1943,#1901));
#472=IFCPOLYLOOP((#1902,#1965,#1944,#1903));
#473=IFCPOLYLOOP((#1912,#1984,#1965,#1902));
#474=IFCPOLYLOOP((#1919,#1970,#1979,#1921));
#475=IFCPOLYLOOP((#1911,#1971,#1970,#1919));
#476=IFCPOLYLOOP((#1910,#1966,#1971,#1911));
#477=IFCPOLYLOOP((#1895,#1945,#1966,#1910));
#478=IFCPOLYLOOP((#1909,#1976,#1975,#1915));
#479=IFCPOLYLOOP((#1900,#1974,#1976,#1909));
#480=IFCPOLYLOOP((#1884,#1969,#1974,#1900));
#481=IFCPOLYLOOP((#1867,#1952,#1969,#1884));
#482=IFCPOLYLOOP((#1893,#1947,#1946,#1894));
#483=IFCPOLYLOOP((#1892,#1948,#1947,#1893));
#484=IFCPOLYLOOP((#1891,#1949,#1948,#1892));
#485=IFCPOLYLOOP((#1890,#1950,#1949,#1891));
#486=IFCPOLYLOOP((#1872,#1932,#1931,#1873));
#487=IFCPOLYLOOP((#1871,#1933,#1932,#1872));
#488=IFCPOLYLOOP((#1870,#1934,#1933,#1871));
#489=IFCPOLYLOOP((#1869,#1935,#1934,#1870));
#490=IFCPOLYLOOP((#1878,#1925,#1924,#1879));
#491=IFCPOLYLOOP((#1877,#1926,#1925,#1878));
#492=IFCPOLYLOOP((#1876,#1927,#1926,#1877));
#493=IFCPOLYLOOP((#1875,#1928,#1927,#1876));
#494=IFCPOLYLOOP((#1865,#1954,#1953,#1866));
#495=IFCPOLYLOOP((#1864,#1955,#1954,#1865));
#496=IFCPOLYLOOP((#1863,#1956,#1955,#1864));
#497=IFCPOLYLOOP((#1862,#1957,#1956,#1863));
#498=IFCPOLYLOOP((#1920,#1980,#1978,#1905));
#499=IFCPOLYLOOP((#1914,#1960,#1980,#1920));
#500=IFCPOLYLOOP((#1868,#1936,#1935,#1869));
#501=IFCPOLYLOOP((#1930,#1874,#1873,#1931));
#502=IFCPOLYLOOP((#1922,#1981,#1984,#1912));
#503=IFCPOLYLOOP((#1916,#1963,#1981,#1922));
#504=IFCPOLYLOOP((#1889,#1951,#1950,#1890));
#505=IFCPOLYLOOP((#1945,#1895,#1894,#1946));
#506=IFCPOLYLOOP((#1918,#1982,#1986,#1907));
#507=IFCPOLYLOOP((#1921,#1979,#1982,#1918));
#508=IFCPOLYLOOP((#1861,#1958,#1957,#1862));
#509=IFCPOLYLOOP((#1952,#1867,#1866,#1953));
#510=IFCPOLYLOOP((#1917,#1985,#1977,#1898));
#511=IFCPOLYLOOP((#1915,#1975,#1985,#1917));
#512=IFCPOLYLOOP((#1860,#1929,#1928,#1875));
#513=IFCPOLYLOOP((#1923,#1880,#1879,#1924));
#514=IFCFACEOUTERBOUND(#26,.T.);
#515=IFCFACEOUTERBOUND(#27,.T.);
#516=IFCFACEOUTERBOUND(#28,.T.);
#517=IFCFACEOUTERBOUND(#29,.T.);
#518=IFCFACEOUTERBOUND(#30,.T.);
#519=IFCFACEOUTERBOUND(#31,.T.);
#520=IFCFACEOUTERBOUND(#32,.T.);
#521=IFCFACEOUTERBOUND(#33,.T.);
#522=IFCFACEOUTERBOUND(#34,.T.);
#523=IFCFACEOUTERBOUND(#35,.T.);
#524=IFCFACEOUTERBOUND(#36,.T.);
#525=IFCFACEOUTERBOUND(#37,.T.);
#526=IFCFACEOUTERBOUND(#38,.T.);
#527=IFCFACEOUTERBOUND(#39,.T.);
#528=IFCFACEOUTERBOUND(#40,.T.);
#529=IFCFACEOUTERBOUND(#41,.T.);
#530=IFCFACEOUTERBOUND(#42,.T.);
#531=IFCFACEOUTERBOUND(#43,.T.);
#532=IFCFACEOUTERBOUND(#44,.T.);
#533=IFCFACEOUTERBOUND(#45,.T.);
#534=IFCFACEOUTERBOUND(#46,.T.);
#535=IFCFACEOUTERBOUND(#47,.T.);
#536=IFCFACEOUTERBOUND(#48,.T.);
#537=IFCFACEOUTERBOUND(#49,.T.);
#538=IFCFACEOUTERBOUND(#50,.T.);
#539=IFCFACEOUTERBOUND(#51,.T.);
#540=IFCFACEOUTERBOUND(#52,.T.);
#541=IFCFACEOUTERBOUND(#53,.T.);
#542=IFCFACEOUTERBOUND(#54,.T.);
#543=IFCFACEOUTERBOUND(#55,.T.);
#544=IFCFACEOUTERBOUND(#56,.T.);
#545=IFCFACEOUTERBOUND(#57,.T.);
#546=IFCFACEOUTERBOUND(#58,.T.);
#547=IFCFACEOUTERBOUND(#59,.T.);
#548=IFCFACEOUTERBOUND(#60,.T.);
#549=IFCFACEOUTERBOUND(#61,.T.);
#550=IFCFACEOUTERBOUND(#62,.T.);
#551=IFCFACEOUTERBOUND(#63,.T.);
#552=IFCFACEOUTERBOUND(#64,.T.);
#553=IFCFACEOUTERBOUND(#65,.T.);
#554=IFCFACEOUTERBOUND(#66,.T.);
#555=IFCFACEOUTERBOUND(#67,.T.);
#556=IFCFACEOUTERBOUND(#68,.T.);
#557=IFCFACEOUTERBOUND(#69,.T.);
#558=IFCFACEOUTERBOUND(#70,.T.);
#559=IFCFACEOUTERBOUND(#71,.T.);
#560=IFCFACEOUTERBOUND(#72,.T.);
#561=IFCFACEOUTERBOUND(#73,.T.);
#562=IFCFACEOUTERBOUND(#74,.T.);
#563=IFCFACEOUTERBOUND(#75,.T.);
#564=IFCFACEOUTERBOUND(#76,.T.);
#565=IFCFACEOUTERBOUND(#77,.T.);
#566=IFCFACEOUTERBOUND(#78,.T.);
#567=IFCFACEOUTERBOUND(#79,.T.);
#568=IFCFACEOUTERBOUND(#80,.T.);
#569=IFCFACEOUTERBOUND(#81,.T.);
#570=IFCFACEOUTERBOUND(#82,.T.);
#571=IFCFACEOUTERBOUND(#83,.T.);
#572=IFCFACEOUTERBOUND(#84,.T.);
#573=IFCFACEOUTERBOUND(#85,.T.);
#574=IFCFACEOUTERBOUND(#86,.T.);
#575=IFCFACEOUTERBOUND(#87,.T.);
#576=IFCFACEOUTERBOUND(#88,.T.);
#577=IFCFACEOUTERBOUND(#89,.T.);
#578=IFCFACEOUTERBOUND(#90,.T.);
#579=IFCFACEOUTERBOUND(#91,.T.);
#580=IFCFACEOUTERBOUND(#92,.T.);
#581=IFCFACEOUTERBOUND(#93,.T.);
#582=IFCFACEOUTERBOUND(#94,.T.);
#583=IFCFACEOUTERBOUND(#95,.T.);
#584=IFCFACEOUTERBOUND(#96,.T.);
#585=IFCFACEOUTERBOUND(#97,.T.);
#586=IFCFACEOUTERBOUND(#98,.T.);
#587=IFCFACEOUTERBOUND(#99,.T.);
#588=IFCFACEOUTERBOUND(#100,.T.);
#589=IFCFACEOUTERBOUND(#101,.T.);
#590=IFCFACEOUTERBOUND(#102,.T.);
#591=IFCFACEOUTERBOUND(#103,.T.);
#592=IFCFACEOUTERBOUND(#104,.T.);
#593=IFCFACEOUTERBOUND(#105,.T.);
#594=IFCFACEOUTERBOUND(#106,.T.);
#595=IFCFACEOUTERBOUND(#107,.T.);
#596=IFCFACEOUTERBOUND(#108,.T.);
#597=IFCFACEOUTERBOUND(#109,.T.);
#598=IFCFACEOUTERBOUND(#110,.T.);
#599=IFCFACEOUTERBOUND(#111,.T.);
#600=IFCFACEOUTERBOUND(#112,.T.);
#601=IFCFACEOUTERBOUND(#113,.T.);
#602=IFCFACEOUTERBOUND(#114,.T.);
#603=IFCFACEOUTERBOUND(#115,.T.);
#604=IFCFACEOUTERBOUND(#116,.T.);
#605=IFCFACEOUTERBOUND(#117,.T.);
#606=IFCFACEOUTERBOUND(#118,.T.);
#607=IFCFACEOUTERBOUND(#119,.T.);
#608=IFCFACEOUTERBOUND(#120,.T.);
#609=IFCFACEOUTERBOUND(#121,.T.);
#610=IFCFACEOUTERBOUND(#122,.T.);
#611=IFCFACEOUTERBOUND(#123,.T.);
#612=IFCFACEOUTERBOUND(#124,.T.);
#613=IFCFACEOUTERBOUND(#125,.T.);
#614=IFCFACEOUTERBOUND(#126,.T.);
#615=IFCFACEOUTERBOUND(#127,.T.);
#616=IFCFACEOUTERBOUND(#128,.T.);
#617=IFCFACEOUTERBOUND(#129,.T.);
#618=IFCFACEOUTERBOUND(#130,.T.);
#619=IFCFACEOUTERBOUND(#131,.T.);
#620=IFCFACEOUTERBOUND(#132,.T.);
#621=IFCFACEOUTERBOUND(#133,.T.);
#622=IFCFACEOUTERBOUND(#134,.T.);
#623=IFCFACEOUTERBOUND(#135,.T.);
#624=IFCFACEOUTERBOUND(#136,.T.);
#625=IFCFACEOUTERBOUND(#137,.T.);
#626=IFCFACEOUTERBOUND(#138,.T.);
#627=IFCFACEOUTERBOUND(#139,.T.);
#628=IFCFACEOUTERBOUND(#140,.T.);
#629=IFCFACEOUTERBOUND(#141,.T.);
#630=IFCFACEOUTERBOUND(#142,.T.);
#631=IFCFACEOUTERBOUND(#143,.T.);
#632=IFCFACEOUTERBOUND(#144,.T.);
#633=IFCFACEOUTERBOUND(#145,.T.);
#634=IFCFACEOUTERBOUND(#146,.T.);
#635=IFCFACEOUTERBOUND(#147,.T.);
#636=IFCFACEOUTERBOUND(#148,.T.);
#637=IFCFACEOUTERBOUND(#149,.T.);
#638=IFCFACEOUTERBOUND(#150,.T.);
#639=IFCFACEOUTERBOUND(#151,.T.);
#640=IFCFACEOUTERBOUND(#152,.T.);
#641=IFCFACEOUTERBOUND(#153,.T.);
#642=IFCFACEOUTERBOUND(#154,.T.);
#643=IFCFACEOUTERBOUND(#155,.T.);
#644=IFCFACEOUTERBOUND(#156,.T.);
#645=IFCFACEOUTERBOUND(#157,.T.);
#646=IFCFACEOUTERBOUND(#158,.T.);
#647=IFCFACEOUTERBOUND(#159,.T.);
#648=IFCFACEOUTERBOUND(#160,.T.);
#649=IFCFACEOUTERBOUND(#161,.T.);
#650=IFCFACEOUTERBOUND(#162,.T.);
#651=IFCFACEOUTERBOUND(#163,.T.);
#652=IFCFACEOUTERBOUND(#164,.T.);
#653=IFCFACEOUTERBOUND(#165,.T.);
#654=IFCFACEOUTERBOUND(#166,.T.);
#655=IFCFACEOUTERBOUND(#167,.T.);
#656=IFCFACEOUTERBOUND(#168,.T.);
#657=IFCFACEOUTERBOUND(#169,.T.);
#658=IFCFACEOUTERBOUND(#170,.T.);
#659=IFCFACEOUTERBOUND(#171,.T.);
#660=IFCFACEOUTERBOUND(#172,.T.);
#661=IFCFACEOUTERBOUND(#173,.T.);
#662=IFCFACEOUTERBOUND(#174,.T.);
#663=IFCFACEOUTERBOUND(#175,.T.);
#664=IFCFACEOUTERBOUND(#176,.T.);
#665=IFCFACEOUTERBOUND(#177,.T.);
#666=IFCFACEOUTERBOUND(#178,.T.);
#667=IFCFACEOUTERBOUND(#179,.T.);
#668=IFCFACEOUTERBOUND(#180,.T.);
#669=IFCFACEOUTERBOUND(#181,.T.);
#670=IFCFACEOUTERBOUND(#182,.T.);
#671=IFCFACEOUTERBOUND(#183,.T.);
#672=IFCFACEOUTERBOUND(#184,.T.);
#673=IFCFACEOUTERBOUND(#185,.T.);
#674=IFCFACEOUTERBOUND(#186,.T.);
#675=IFCFACEOUTERBOUND(#187,.T.);
#676=IFCFACEOUTERBOUND(#188,.T.);
#677=IFCFACEOUTERBOUND(#189,.T.);
#678=IFCFACEOUTERBOUND(#190,.T.);
#679=IFCFACEOUTERBOUND(#191,.T.);
#680=IFCFACEOUTERBOUND(#192,.T.);
#681=IFCFACEOUTERBOUND(#193,.T.);
#682=IFCFACEOUTERBOUND(#194,.T.);
#683=IFCFACEOUTERBOUND(#195,.T.);
#684=IFCFACEOUTERBOUND(#196,.T.);
#685=IFCFACEOUTERBOUND(#197,.T.);
#686=IFCFACEOUTERBOUND(#198,.T.);
#687=IFCFACEOUTERBOUND(#199,.T.);
#688=IFCFACEOUTERBOUND(#200,.T.);
#689=IFCFACEOUTERBOUND(#201,.T.);
#690=IFCFACEOUTERBOUND(#202,.T.);
#691=IFCFACEOUTERBOUND(#203,.T.);
#692=IFCFACEOUTERBOUND(#204,.T.);
#693=IFCFACEOUTERBOUND(#205,.T.);
#694=IFCFACEOUTERBOUND(#206,.T.);
#695=IFCFACEOUTERBOUND(#207,.T.);
#696=IFCFACEOUTERBOUND(#208,.T.);
#697=IFCFACEOUTERBOUND(#209,.T.);
#698=IFCFACEOUTERBOUND(#210,.T.);
#699=IFCFACEOUTERBOUND(#211,.T.);
#700=IFCFACEOUTERBOUND(#212,.T.);
#701=IFCFACEOUTERBOUND(#213,.T.);
#702=IFCFACEOUTERBOUND(#214,.T.);
#703=IFCFACEOUTERBOUND(#215,.T.);
#704=IFCFACEOUTERBOUND(#216,.T.);
#705=IFCFACEOUTERBOUND(#217,.T.);
#706=IFCFACEOUTERBOUND(#218,.T.);
#707=IFCFACEOUTERBOUND(#219,.T.);
#708=IFCFACEOUTERBOUND(#220,.T.);
#709=IFCFACEOUTERBOUND(#221,.T.);
#710=IFCFACEOUTERBOUND(#222,.T.);
#711=IFCFACEOUTERBOUND(#223,.T.);
#712=IFCFACEOUTERBOUND(#224,.T.);
#713=IFCFACEOUTERBOUND(#225,.T.);
#714=IFCFACEOUTERBOUND(#226,.T.);
#715=IFCFACEOUTERBOUND(#227,.T.);
#716=IFCFACEOUTERBOUND(#228,.T.);
#717=IFCFACEOUTERBOUND(#229,.T.);
#718=IFCFACEOUTERBOUND(#230,.T.);
#719=IFCFACEOUTERBOUND(#231,.T.);
#720=IFCFACEOUTERBOUND(#232,.T.);
#721=IFCFACEOUTERBOUND(#233,.T.);
#722=IFCFACEOUTERBOUND(#234,.T.);
#723=IFCFACEOUTERBOUND(#235,.T.);
#724=IFCFACEOUTERBOUND(#236,.T.);
#725=IFCFACEOUTERBOUND(#237,.T.);
#726=IFCFACEOUTERBOUND(#238,.T.);
#727=IFCFACEOUTERBOUND(#239,.T.);
#728=IFCFACEOUTERBOUND(#240,.T.);
#729=IFCFACEOUTERBOUND(#241,.T.);
#730=IFCFACEOUTERBOUND(#242,.T.);
#731=IFCFACEOUTERBOUND(#243,.T.);
#732=IFCFACEOUTERBOUND(#244,.T.);
#733=IFCFACEOUTERBOUND(#245,.T.);
#734=IFCFACEOUTERBOUND(#246,.T.);
#735=IFCFACEOUTERBOUND(#247,.T.);
#736=IFCFACEOUTERBOUND(#248,.T.);
#737=IFCFACEOUTERBOUND(#249,.T.);
#738=IFCFACEOUTERBOUND(#250,.T.);
#739=IFCFACEOUTERBOUND(#251,.T.);
#740=IFCFACEOUTERBOUND(#252,.T.);
#741=IFCFACEOUTERBOUND(#253,.T.);
#742=IFCFACEOUTERBOUND(#254,.T.);
#743=IFCFACEOUTERBOUND(#255,.T.);
#744=IFCFACEOUTERBOUND(#256,.T.);
#745=IFCFACEOUTERBOUND(#257,.T.);
#746=IFCFACEOUTERBOUND(#258,.T.);
#747=IFCFACEOUTERBOUND(#259,.T.);
#748=IFCFACEOUTERBOUND(#260,.T.);
#749=IFCFACEOUTERBOUND(#261,.T.);
#750=IFCFACEOUTERBOUND(#262,.T.);
#751=IFCFACEOUTERBOUND(#263,.T.);
#752=IFCFACEOUTERBOUND(#264,.T.);
#753=IFCFACEOUTERBOUND(#265,.T.);
#754=IFCFACEOUTERBOUND(#266,.T.);
#755=IFCFACEOUTERBOUND(#267,.T.);
#756=IFCFACEOUTERBOUND(#268,.T.);
#757=IFCFACEOUTERBOUND(#269,.T.);
#758=IFCFACEOUTERBOUND(#270,.T.);
#759=IFCFACEOUTERBOUND(#271,.T.);
#760=IFCFACEOUTERBOUND(#272,.T.);
#761=IFCFACEOUTERBOUND(#273,.T.);
#762=IFCFACEOUTERBOUND(#274,.T.);
#763=IFCFACEOUTERBOUND(#275,.T.);
#764=IFCFACEOUTERBOUND(#276,.T.);
#765=IFCFACEOUTERBOUND(#277,.T.);
#766=IFCFACEOUTERBOUND(#278,.T.);
#767=IFCFACEOUTERBOUND(#279,.T.);
#768=IFCFACEOUTERBOUND(#280,.T.);
#769=IFCFACEOUTERBOUND(#281,.T.);
#770=IFCFACEOUTERBOUND(#282,.T.);
#771=IFCFACEOUTERBOUND(#283,.T.);
#772=IFCFACEOUTERBOUND(#284,.T.);
#773=IFCFACEOUTERBOUND(#285,.T.);
#774=IFCFACEOUTERBOUND(#286,.T.);
#775=IFCFACEOUTERBOUND(#287,.T.);
#776=IFCFACEOUTERBOUND(#288,.T.);
#777=IFCFACEOUTERBOUND(#289,.T.);
#778=IFCFACEOUTERBOUND(#290,.T.);
#779=IFCFACEOUTERBOUND(#291,.T.);
#780=IFCFACEOUTERBOUND(#292,.T.);
#781=IFCFACEOUTERBOUND(#293,.T.);
#782=IFCFACEOUTERBOUND(#294,.T.);
#783=IFCFACEOUTERBOUND(#295,.T.);
#784=IFCFACEOUTERBOUND(#296,.T.);
#785=IFCFACEOUTERBOUND(#297,.T.);
#786=IFCFACEOUTERBOUND(#298,.T.);
#787=IFCFACEOUTERBOUND(#299,.T.);
#788=IFCFACEOUTERBOUND(#300,.T.);
#789=IFCFACEOUTERBOUND(#301,.T.);
#790=IFCFACEOUTERBOUND(#302,.T.);
#791=IFCFACEOUTERBOUND(#303,.T.);
#792=IFCFACEOUTERBOUND(#304,.T.);
#793=IFCFACEOUTERBOUND(#305,.T.);
#794=IFCFACEOUTERBOUND(#306,.T.);
#795=IFCFACEOUTERBOUND(#307,.T.);
#796=IFCFACEOUTERBOUND(#308,.T.);
#797=IFCFACEOUTERBOUND(#309,.T.);
#798=IFCFACEOUTERBOUND(#310,.T.);
#799=IFCFACEOUTERBOUND(#311,.T.);
#800=IFCFACEOUTERBOUND(#312,.T.);
#801=IFCFACEOUTERBOUND(#313,.T.);
#802=IFCFACEOUTERBOUND(#314,.T.);
#803=IFCFACEOUTERBOUND(#315,.T.);
#804=IFCFACEOUTERBOUND(#316,.T.);
#805=IFCFACEOUTERBOUND(#317,.T.);
#806=IFCFACEOUTERBOUND(#318,.T.);
#807=IFCFACEOUTERBOUND(#319,.T.);
#808=IFCFACEOUTERBOUND(#320,.T.);
#809=IFCFACEOUTERBOUND(#321,.T.);
#810=IFCFACEOUTERBOUND(#322,.T.);
#811=IFCFACEOUTERBOUND(#323,.T.);
#812=IFCFACEOUTERBOUND(#324,.T.);
#813=IFCFACEOUTERBOUND(#325,.T.);
#814=IFCFACEOUTERBOUND(#326,.T.);
#815=IFCFACEOUTERBOUND(#327,.T.);
#816=IFCFACEOUTERBOUND(#328,.T.);
#817=IFCFACEOUTERBOUND(#329,.T.);
#818=IFCFACEOUTERBOUND(#330,.T.);
#819=IFCFACEOUTERBOUND(#331,.T.);
#820=IFCFACEOUTERBOUND(#332,.T.);
#821=IFCFACEOUTERBOUND(#333,.T.);
#822=IFCFACEOUTERBOUND(#334,.T.);
#823=IFCFACEOUTERBOUND(#335,.T.);
#824=IFCFACEOUTERBOUND(#336,.T.);
#825=IFCFACEOUTERBOUND(#337,.T.);
#826=IFCFACEOUTERBOUND(#338,.T.);
#827=IFCFACEOUTERBOUND(#339,.T.);
#828=IFCFACEOUTERBOUND(#340,.T.);
#829=IFCFACEOUTERBOUND(#341,.T.);
#830=IFCFACEOUTERBOUND(#342,.T.);
#831=IFCFACEOUTERBOUND(#343,.T.);
#832=IFCFACEOUTERBOUND(#344,.T.);
#833=IFCFACEOUTERBOUND(#345,.T.);
#834=IFCFACEOUTERBOUND(#346,.T.);
#835=IFCFACEOUTERBOUND(#347,.T.);
#836=IFCFACEOUTERBOUND(#348,.T.);
#837=IFCFACEOUTERBOUND(#349,.T.);
#838=IFCFACEOUTERBOUND(#350,.T.);
#839=IFCFACEOUTERBOUND(#351,.T.);
#840=IFCFACEOUTERBOUND(#352,.T.);
#841=IFCFACEOUTERBOUND(#353,.T.);
#842=IFCFACEOUTERBOUND(#354,.T.);
#843=IFCFACEOUTERBOUND(#355,.T.);
#844=IFCFACEOUTERBOUND(#356,.T.);
#845=IFCFACEOUTERBOUND(#357,.T.);
#846=IFCFACEOUTERBOUND(#358,.T.);
#847=IFCFACEOUTERBOUND(#359,.T.);
#848=IFCFACEOUTERBOUND(#360,.T.);
#849=IFCFACEOUTERBOUND(#361,.T.);
#850=IFCFACEOUTERBOUND(#362,.T.);
#851=IFCFACEOUTERBOUND(#363,.T.);
#852=IFCFACEOUTERBOUND(#364,.T.);
#853=IFCFACEOUTERBOUND(#365,.T.);
#854=IFCFACEOUTERBOUND(#366,.T.);
#855=IFCFACEOUTERBOUND(#367,.T.);
#856=IFCFACEOUTERBOUND(#368,.T.);
#857=IFCFACEOUTERBOUND(#369,.T.);
#858=IFCFACEOUTERBOUND(#370,.T.);
#859=IFCFACEOUTERBOUND(#371,.T.);
#860=IFCFACEOUTERBOUND(#372,.T.);
#861=IFCFACEOUTERBOUND(#373,.T.);
#862=IFCFACEOUTERBOUND(#374,.T.);
#863=IFCFACEOUTERBOUND(#375,.T.);
#864=IFCFACEOUTERBOUND(#376,.T.);
#865=IFCFACEOUTERBOUND(#377,.T.);
#866=IFCFACEOUTERBOUND(#378,.T.);
#867=IFCFACEOUTERBOUND(#379,.T.);
#868=IFCFACEOUTERBOUND(#380,.T.);
#869=IFCFACEOUTERBOUND(#381,.T.);
#870=IFCFACEOUTERBOUND(#382,.T.);
#871=IFCFACEOUTERBOUND(#383,.T.);
#872=IFCFACEOUTERBOUND(#384,.T.);
#873=IFCFACEOUTERBOUND(#385,.T.);
#874=IFCFACEOUTERBOUND(#386,.T.);
#875=IFCFACEOUTERBOUND(#387,.T.);
#876=IFCFACEOUTERBOUND(#388,.T.);
#877=IFCFACEOUTERBOUND(#389,.T.);
#878=IFCFACEOUTERBOUND(#390,.T.);
#879=IFCFACEOUTERBOUND(#391,.T.);
#880=IFCFACEOUTERBOUND(#392,.T.);
#881=IFCFACEOUTERBOUND(#393,.T.);
#882=IFCFACEOUTERBOUND(#394,.T.);
#883=IFCFACEOUTERBOUND(#395,.T.);
#884=IFCFACEOUTERBOUND(#396,.T.);
#885=IFCFACEOUTERBOUND(#397,.T.);
#886=IFCFACEOUTERBOUND(#398,.T.);
#887=IFCFACEOUTERBOUND(#399,.T.);
#888=IFCFACEOUTERBOUND(#400,.T.);
#889=IFCFACEOUTERBOUND(#401,.T.);
#890=IFCFACEOUTERBOUND(#402,.T.);
#891=IFCFACEOUTERBOUND(#403,.T.);
#892=IFCFACEOUTERBOUND(#404,.T.);
#893=IFCFACEOUTERBOUND(#405,.T.);
#894=IFCFACEOUTERBOUND(#406,.T.);
#895=IFCFACEOUTERBOUND(#407,.T.);
#896=IFCFACEOUTERBOUND(#408,.T.);
#897=IFCFACEOUTERBOUND(#409,.T.);
#898=IFCFACEOUTERBOUND(#410,.T.);
#899=IFCFACEOUTERBOUND(#411,.T.);
#900=IFCFACEOUTERBOUND(#412,.T.);
#901=IFCFACEOUTERBOUND(#413,.T.);
#902=IFCFACEOUTERBOUND(#414,.T.);
#903=IFCFACEOUTERBOUND(#415,.T.);
#904=IFCFACEOUTERBOUND(#416,.T.);
#905=IFCFACEOUTERBOUND(#417,.T.);
#906=IFCFACEOUTERBOUND(#418,.T.);
#907=IFCFACEOUTERBOUND(#419,.T.);
#908=IFCFACEOUTERBOUND(#420,.T.);
#909=IFCFACEOUTERBOUND(#421,.T.);
#910=IFCFACEOUTERBOUND(#422,.T.);
#911=IFCFACEOUTERBOUND(#423,.T.);
#912=IFCFACEOUTERBOUND(#424,.T.);
#913=IFCFACEOUTERBOUND(#425,.T.);
#914=IFCFACEOUTERBOUND(#426,.T.);
#915=IFCFACEOUTERBOUND(#427,.T.);
#916=IFCFACEOUTERBOUND(#428,.T.);
#917=IFCFACEOUTERBOUND(#429,.T.);
#918=IFCFACEOUTERBOUND(#430,.T.);
#919=IFCFACEOUTERBOUND(#431,.T.);
#920=IFCFACEOUTERBOUND(#432,.T.);
#921=IFCFACEOUTERBOUND(#433,.T.);
#922=IFCFACEOUTERBOUND(#434,.T.);
#923=IFCFACEOUTERBOUND(#435,.T.);
#924=IFCFACEOUTERBOUND(#436,.T.);
#925=IFCFACEOUTERBOUND(#437,.T.);
#926=IFCFACEOUTERBOUND(#438,.T.);
#927=IFCFACEOUTERBOUND(#439,.T.);
#928=IFCFACEOUTERBOUND(#440,.T.);
#929=IFCFACEOUTERBOUND(#441,.T.);
#930=IFCFACEOUTERBOUND(#442,.T.);
#931=IFCFACEOUTERBOUND(#443,.T.);
#932=IFCFACEOUTERBOUND(#444,.T.);
#933=IFCFACEOUTERBOUND(#445,.T.);
#934=IFCFACEOUTERBOUND(#446,.T.);
#935=IFCFACEOUTERBOUND(#447,.T.);
#936=IFCFACEOUTERBOUND(#448,.T.);
#937=IFCFACEOUTERBOUND(#449,.T.);
#938=IFCFACEOUTERBOUND(#450,.T.);
#939=IFCFACEOUTERBOUND(#451,.T.);
#940=IFCFACEOUTERBOUND(#452,.T.);
#941=IFCFACEOUTERBOUND(#453,.T.);
#942=IFCFACEOUTERBOUND(#454,.T.);
#943=IFCFACEOUTERBOUND(#455,.T.);
#944=IFCFACEOUTERBOUND(#456,.T.);
#945=IFCFACEOUTERBOUND(#457,.T.);
#946=IFCFACEOUTERBOUND(#458,.T.);
#947=IFCFACEOUTERBOUND(#459,.T.);
#948=IFCFACEOUTERBOUND(#460,.T.);
#949=IFCFACEOUTERBOUND(#461,.T.);
#950=IFCFACEOUTERBOUND(#462,.T.);
#951=IFCFACEOUTERBOUND(#463,.T.);
#952=IFCFACEOUTERBOUND(#464,.T.);
#953=IFCFACEOUTERBOUND(#465,.T.);
#954=IFCFACEOUTERBOUND(#466,.T.);
#955=IFCFACEOUTERBOUND(#467,.T.);
#956=IFCFACEOUTERBOUND(#468,.T.);
#957=IFCFACEOUTERBOUND(#469,.T.);
#958=IFCFACEOUTERBOUND(#470,.T.);
#959=IFCFACEOUTERBOUND(#471,.T.);
#960=IFCFACEOUTERBOUND(#472,.T.);
#961=IFCFACEOUTERBOUND(#473,.T.);
#962=IFCFACEOUTERBOUND(#474,.T.);
#963=IFCFACEOUTERBOUND(#475,.T.);
#964=IFCFACEOUTERBOUND(#476,.T.);
#965=IFCFACEOUTERBOUND(#477,.T.);
#966=IFCFACEOUTERBOUND(#478,.T.);
#967=IFCFACEOUTERBOUND(#479,.T.);
#968=IFCFACEOUTERBOUND(#480,.T.);
#969=IFCFACEOUTERBOUND(#481,.T.);
#970=IFCFACEOUTERBOUND(#482,.T.);
#971=IFCFACEOUTERBOUND(#483,.T.);
#972=IFCFACEOUTERBOUND(#484,.T.);
#973=IFCFACEOUTERBOUND(#485,.T.);
#974=IFCFACEOUTERBOUND(#486,.T.);
#975=IFCFACEOUTERBOUND(#487,.T.);
#976=IFCFACEOUTERBOUND(#488,.T.);
#977=IFCFACEOUTERBOUND(#489,.T.);
#978=IFCFACEOUTERBOUND(#490,.T.);
#979=IFCFACEOUTERBOUND(#491,.T.);
#980=IFCFACEOUTERBOUND(#492,.T.);
#981=IFCFACEOUTERBOUND(#493,.T.);
#982=IFCFACEOUTERBOUND(#494,.T.);
#983=IFCFACEOUTERBOUND(#495,.T.);
#984=IFCFACEOUTERBOUND(#496,.T.);
#985=IFCFACEOUTERBOUND(#497,.T.);
#986=IFCFACEOUTERBOUND(#498,.T.);
#987=IFCFACEOUTERBOUND(#499,.T.);
#988=IFCFACEOUTERBOUND(#500,.T.);
#989=IFCFACEOUTERBOUND(#501,.T.);
#990=IFCFACEOUTERBOUND(#502,.T.);
#991=IFCFACEOUTERBOUND(#503,.T.);
#992=IFCFACEOUTERBOUND(#504,.T.);
#993=IFCFACEOUTERBOUND(#505,.T.);
#994=IFCFACEOUTERBOUND(#506,.T.);
#995=IFCFACEOUTERBOUND(#507,.T.);
#996=IFCFACEOUTERBOUND(#508,.T.);
#997=IFCFACEOUTERBOUND(#509,.T.);
#998=IFCFACEOUTERBOUND(#510,.T.);
#999=IFCFACEOUTERBOUND(#511,.T.);
#1000=IFCFACEOUTERBOUND(#512,.T.);
#1001=IFCFACEOUTERBOUND(#513,.T.);
#1002=IFCFACE((#514));
#1003=IFCFACE((#515));
#1004=IFCFACE((#516));
#1005=IFCFACE((#517));
#1006=IFCFACE((#518));
#1007=IFCFACE((#519));
#1008=IFCFACE((#520));
#1009=IFCFACE((#521));
#1010=IFCFACE((#522));
#1011=IFCFACE((#523));
#1012=IFCFACE((#524));
#1013=IFCFACE((#525));
#1014=IFCFACE((#526));
#1015=IFCFACE((#527));
#1016=IFCFACE((#528));
#1017=IFCFACE((#529));
#1018=IFCFACE((#530));
#1019=IFCFACE((#531));
#1020=IFCFACE((#532));
#1021=IFCFACE((#533));
#1022=IFCFACE((#534));
#1023=IFCFACE((#535));
#1024=IFCFACE((#536));
#1025=IFCFACE((#537));
#1026=IFCFACE((#538));
#1027=IFCFACE((#539));
#1028=IFCFACE((#540));
#1029=IFCFACE((#541));
#1030=IFCFACE((#542));
#1031=IFCFACE((#543));
#1032=IFCFACE((#544));
#1033=IFCFACE((#545));
#1034=IFCFACE((#546));
#1035=IFCFACE((#547));
#1036=IFCFACE((#548));
#1037=IFCFACE((#549));
#1038=IFCFACE((#550));
#1039=IFCFACE((#551));
#1040=IFCFACE((#552));
#1041=IFCFACE((#553));
#1042=IFCFACE((#554));
#1043=IFCFACE((#555));
#1044=IFCFACE((#556));
#1045=IFCFACE((#557));
#1046=IFCFACE((#558));
#1047=IFCFACE((#559));
#1048=IFCFACE((#560));
#1049=IFCFACE((#561));
#1050=IFCFACE((#562));
#1051=IFCFACE((#563));
#1052=IFCFACE((#564));
#1053=IFCFACE((#565));
#1054=IFCFACE((#566));
#1055=IFCFACE((#567));
#1056=IFCFACE((#568));
#1057=IFCFACE((#569));
#1058=IFCFACE((#570));
#1059=IFCFACE((#571));
#1060=IFCFACE((#572));
#1061=IFCFACE((#573));
#1062=IFCFACE((#574));
#1063=IFCFACE((#575));
#1064=IFCFACE((#576));
#1065=IFCFACE((#577));
#1066=IFCFACE((#578));
#1067=IFCFACE((#579));
#1068=IFCFACE((#580));
#1069=IFCFACE((#581));
#1070=IFCFACE((#582));
#1071=IFCFACE((#583));
#1072=IFCFACE((#584));
#1073=IFCFACE((#585));
#1074=IFCFACE((#586));
#1075=IFCFACE((#587));
#1076=IFCFACE((#588));
#1077=IFCFACE((#589));
#1078=IFCFACE((#590));
#1079=IFCFACE((#591));
#1080=IFCFACE((#592));
#1081=IFCFACE((#593));
#1082=IFCFACE((#594));
#1083=IFCFACE((#595));
#1084=IFCFACE((#596));
#1085=IFCFACE((#597));
#1086=IFCFACE((#598));
#1087=IFCFACE((#599));
#1088=IFCFACE((#600));
#1089=IFCFACE((#601));
#1090=IFCFACE((#602));
#1091=IFCFACE((#603));
#1092=IFCFACE((#604));
#1093=IFCFACE((#605));
#1094=IFCFACE((#606));
#1095=IFCFACE((#607));
#1096=IFCFACE((#608));
#1097=IFCFACE((#609));
#1098=IFCFACE((#610));
#1099=IFCFACE((#611));
#1100=IFCFACE((#612));
#1101=IFCFACE((#613));
#1102=IFCFACE((#614));
#1103=IFCFACE((#615));
#1104=IFCFACE((#616));
#1105=IFCFACE((#617));
#1106=IFCFACE((#618));
#1107=IFCFACE((#619));
#1108=IFCFACE((#620));
#1109=IFCFACE((#621));
#1110=IFCFACE((#622));
#1111=IFCFACE((#623));
#1112=IFCFACE((#624));
#1113=IFCFACE((#625));
#1114=IFCFACE((#626));
#1115=IFCFACE((#627));
#1116=IFCFACE((#628));
#1117=IFCFACE((#629));
#1118=IFCFACE((#630));
#1119=IFCFACE((#631));
#1120=IFCFACE((#632));
#1121=IFCFACE((#633));
#1122=IFCFACE((#634));
#1123=IFCFACE((#635));
#1124=IFCFACE((#636));
#1125=IFCFACE((#637));
#1126=IFCFACE((#638));
#1127=IFCFACE((#639));
#1128=IFCFACE((#640));
#1129=IFCFACE((#641));
#1130=IFCFACE((#642));
#1131=IFCFACE((#643));
#1132=IFCFACE((#644));
#1133=IFCFACE((#645));
#1134=IFCFACE((#646));
#1135=IFCFACE((#647));
#1136=IFCFACE((#648));
#1137=IFCFACE((#649));
#1138=IFCFACE((#650));
#1139=IFCFACE((#651));
#1140=IFCFACE((#652));
#1141=IFCFACE((#653));
#1142=IFCFACE((#654));
#1143=IFCFACE((#655));
#1144=IFCFACE((#656));
#1145=IFCFACE((#657));
#1146=IFCFACE((#658));
#1147=IFCFACE((#659));
#1148=IFCFACE((#660));
#1149=IFCFACE((#661));
#1150=IFCFACE((#662));
#1151=IFCFACE((#663));
#1152=IFCFACE((#664));
#1153=IFCFACE((#665));
#1154=IFCFACE((#666));
#1155=IFCFACE((#667));
#1156=IFCFACE((#668));
#1157=IFCFACE((#669));
#1158=IFCFACE((#670));
#1159=IFCFACE((#671));
#1160=IFCFACE((#672));
#1161=IFCFACE((#673));
#1162=IFCFACE((#674));
#1163=IFCFACE((#675));
#1164=IFCFACE((#676));
#1165=IFCFACE((#677));
#1166=IFCFACE((#678));
#1167=IFCFACE((#679));
#1168=IFCFACE((#680));
#1169=IFCFACE((#681));
#1170=IFCFACE((#682));
#1171=IFCFACE((#683));
#1172=IFCFACE((#684));
#1173=IFCFACE((#685));
#1174=IFCFACE((#686));
#1175=IFCFACE((#687));
#1176=IFCFACE((#688));
#1177=IFCFACE((#689));
#1178=IFCFACE((#690));
#1179=IFCFACE((#691));
#1180=IFCFACE((#692));
#1181=IFCFACE((#693));
#1182=IFCFACE((#694));
#1183=IFCFACE((#695));
#1184=IFCFACE((#696));
#1185=IFCFACE((#697));
#1186=IFCFACE((#698));
#1187=IFCFACE((#699));
#1188=IFCFACE((#700));
#1189=IFCFACE((#701));
#1190=IFCFACE((#702));
#1191=IFCFACE((#703));
#1192=IFCFACE((#704));
#1193=IFCFACE((#705));
#1194=IFCFACE((#706));
#1195=IFCFACE((#707));
#1196=IFCFACE((#708));
#1197=IFCFACE((#709));
#1198=IFCFACE((#710));
#1199=IFCFACE((#711));
#1200=IFCFACE((#712));
#1201=IFCFACE((#713));
#1202=IFCFACE((#714));
#1203=IFCFACE((#715));
#1204=IFCFACE((#716));
#1205=IFCFACE((#717));
#1206=IFCFACE((#718));
#1207=IFCFACE((#719));
#1208=IFCFACE((#720));
#1209=IFCFACE((#721));
#1210=IFCFACE((#722));
#1211=IFCFACE((#723));
#1212=IFCFACE((#724));
#1213=IFCFACE((#725));
#1214=IFCFACE((#726));
#1215=IFCFACE((#727));
#1216=IFCFACE((#728));
#1217=IFCFACE((#729));
#1218=IFCFACE((#730));
#1219=IFCFACE((#731));
#1220=IFCFACE((#732));
#1221=IFCFACE((#733));
#1222=IFCFACE((#734));
#1223=IFCFACE((#735));
#1224=IFCFACE((#736));
#1225=IFCFACE((#737));
#1226=IFCFACE((#738));
#1227=IFCFACE((#739));
#1228=IFCFACE((#740));
#1229=IFCFACE((#741));
#1230=IFCFACE((#742));
#1231=IFCFACE((#743));
#1232=IFCFACE((#744));
#1233=IFCFACE((#745));
#1234=IFCFACE((#746));
#1235=IFCFACE((#747));
#1236=IFCFACE((#748));
#1237=IFCFACE((#749));
#1238=IFCFACE((#750));
#1239=IFCFACE((#751));
#1240=IFCFACE((#752));
#1241=IFCFACE((#753));
#1242=IFCFACE((#754));
#1243=IFCFACE((#755));
#1244=IFCFACE((#756));
#1245=IFCFACE((#757));
#1246=IFCFACE((#758));
#1247=IFCFACE((#759));
#1248=IFCFACE((#760));
#1249=IFCFACE((#761));
#1250=IFCFACE((#762));
#1251=IFCFACE((#763));
#1252=IFCFACE((#764));
#1253=IFCFACE((#765));
#1254=IFCFACE((#766));
#1255=IFCFACE((#767));
#1256=IFCFACE((#768));
#1257=IFCFACE((#769));
#1258=IFCFACE((#770));
#1259=IFCFACE((#771));
#1260=IFCFACE((#772));
#1261=IFCFACE((#773));
#1262=IFCFACE((#774));
#1263=IFCFACE((#775));
#1264=IFCFACE((#776));
#1265=IFCFACE((#777));
#1266=IFCFACE((#778));
#1267=IFCFACE((#779));
#1268=IFCFACE((#780));
#1269=IFCFACE((#781));
#1270=IFCFACE((#782));
#1271=IFCFACE((#783));
#1272=IFCFACE((#784));
#1273=IFCFACE((#785));
#1274=IFCFACE((#786));
#1275=IFCFACE((#787));
#1276=IFCFACE((#788));
#1277=IFCFACE((#789));
#1278=IFCFACE((#790));
#1279=IFCFACE((#791));
#1280=IFCFACE((#792));
#1281=IFCFACE((#793));
#1282=IFCFACE((#794));
#1283=IFCFACE((#795));
#1284=IFCFACE((#796));
#1285=IFCFACE((#797));
#1286=IFCFACE((#798));
#1287=IFCFACE((#799));
#1288=IFCFACE((#800));
#1289=IFCFACE((#801));
#1290=IFCFACE((#802));
#1291=IFCFACE((#803));
#1292=IFCFACE((#804));
#1293=IFCFACE((#805));
#1294=IFCFACE((#806));
#1295=IFCFACE((#807));
#1296=IFCFACE((#808));
#1297=IFCFACE((#809));
#1298=IFCFACE((#810));
#1299=IFCFACE((#811));
#1300=IFCFACE((#812));
#1301=IFCFACE((#813));
#1302=IFCFACE((#814));
#1303=IFCFACE((#815));
#1304=IFCFACE((#816));
#1305=IFCFACE((#817));
#1306=IFCFACE((#818));
#1307=IFCFACE((#819));
#1308=IFCFACE((#820));
#1309=IFCFACE((#821));
#1310=IFCFACE((#822));
#1311=IFCFACE((#823));
#1312=IFCFACE((#824));
#1313=IFCFACE((#825));
#1314=IFCFACE((#826));
#1315=IFCFACE((#827));
#1316=IFCFACE((#828));
#1317=IFCFACE((#829));
#1318=IFCFACE((#830));
#1319=IFCFACE((#831));
#1320=IFCFACE((#832));
#1321=IFCFACE((#833));
#1322=IFCFACE((#834));
#1323=IFCFACE((#835));
#1324=IFCFACE((#836));
#1325=IFCFACE((#837));
#1326=IFCFACE((#838));
#1327=IFCFACE((#839));
#1328=IFCFACE((#840));
#1329=IFCFACE((#841));
#1330=IFCFACE((#842));
#1331=IFCFACE((#843));
#1332=IFCFACE((#844));
#1333=IFCFACE((#845));
#1334=IFCFACE((#846));
#1335=IFCFACE((#847));
#1336=IFCFACE((#848));
#1337=IFCFACE((#849));
#1338=IFCFACE((#850));
#1339=IFCFACE((#851));
#1340=IFCFACE((#852));
#1341=IFCFACE((#853));
#1342=IFCFACE((#854));
#1343=IFCFACE((#855));
#1344=IFCFACE((#856));
#1345=IFCFACE((#857));
#1346=IFCFACE((#858));
#1347=IFCFACE((#859));
#1348=IFCFACE((#860));
#1349=IFCFACE((#861));
#1350=IFCFACE((#862));
#1351=IFCFACE((#863));
#1352=IFCFACE((#864));
#1353=IFCFACE((#865));
#1354=IFCFACE((#866));
#1355=IFCFACE((#867));
#1356=IFCFACE((#868));
#1357=IFCFACE((#869));
#1358=IFCFACE((#870));
#1359=IFCFACE((#871));
#1360=IFCFACE((#872));
#1361=IFCFACE((#873));
#1362=IFCFACE((#874));
#1363=IFCFACE((#875));
#1364=IFCFACE((#876));
#1365=IFCFACE((#877));
#1366=IFCFACE((#878));
#1367=IFCFACE((#879));
#1368=IFCFACE((#880));
#1369=IFCFACE((#881));
#1370=IFCFACE((#882));
#1371=IFCFACE((#883));
#1372=IFCFACE((#884));
#1373=IFCFACE((#885));
#1374=IFCFACE((#886));
#1375=IFCFACE((#887));
#1376=IFCFACE((#888));
#1377=IFCFACE((#889));
#1378=IFCFACE((#890));
#1379=IFCFACE((#891));
#1380=IFCFACE((#892));
#1381=IFCFACE((#893));
#1382=IFCFACE((#894));
#1383=IFCFACE((#895));
#1384=IFCFACE((#896));
#1385=IFCFACE((#897));
#1386=IFCFACE((#898));
#1387=IFCFACE((#899));
#1388=IFCFACE((#900));
#1389=IFCFACE((#901));
#1390=IFCFACE((#902));
#1391=IFCFACE((#903));
#1392=IFCFACE((#904));
#1393=IFCFACE((#905));
#1394=IFCFACE((#906));
#1395=IFCFACE((#907));
#1396=IFCFACE((#908));
#1397=IFCFACE((#909));
#1398=IFCFACE((#910));
#1399=IFCFACE((#911));
#1400=IFCFACE((#912));
#1401=IFCFACE((#913));
#1402=IFCFACE((#914));
#1403=IFCFACE((#915));
#1404=IFCFACE((#916));
#1405=IFCFACE((#917));
#1406=IFCFACE((#918));
#1407=IFCFACE((#919));
#1408=IFCFACE((#920));
#1409=IFCFACE((#921));
#1410=IFCFACE((#922));
#1411=IFCFACE((#923));
#1412=IFCFACE((#924));
#1413=IFCFACE((#925));
#1414=IFCFACE((#926));
#1415=IFCFACE((#927));
#1416=IFCFACE((#928));
#1417=IFCFACE((#929));
#1418=IFCFACE((#930));
#1419=IFCFACE((#931));
#1420=IFCFACE((#932));
#1421=IFCFACE((#933));
#1422=IFCFACE((#934));
#1423=IFCFACE((#935));
#1424=IFCFACE((#936));
#1425=IFCFACE((#937));
#1426=IFCFACE((#938));
#1427=IFCFACE((#939));
#1428=IFCFACE((#940));
#1429=IFCFACE((#941));
#1430=IFCFACE((#942));
#1431=IFCFACE((#943));
#1432=IFCFACE((#944));
#1433=IFCFACE((#945));
#1434=IFCFACE((#946));
#1435=IFCFACE((#947));
#1436=IFCFACE((#948));
#1437=IFCFACE((#949));
#1438=IFCFACE((#950));
#1439=IFCFACE((#951));
#1440=IFCFACE((#952));
#1441=IFCFACE((#953));
#1442=IFCFACE((#954));
#1443=IFCFACE((#955));
#1444=IFCFACE((#956));
#1445=IFCFACE((#957));
#1446=IFCFACE((#958));
#1447=IFCFACE((#959));
#1448=IFCFACE((#960));
#1449=IFCFACE((#961));
#1450=IFCFACE((#962));
#1451=IFCFACE((#963));
#1452=IFCFACE((#964));
#1453=IFCFACE((#965));
#1454=IFCFACE((#966));
#1455=IFCFACE((#967));
#1456=IFCFACE((#968));
#1457=IFCFACE((#969));
#1458=IFCFACE((#970));
#1459=IFCFACE((#971));
#1460=IFCFACE((#972));
#1461=IFCFACE((#973));
#1462=IFCFACE((#974));
#1463=IFCFACE((#975));
#1464=IFCFACE((#976));
#1465=IFCFACE((#977));
#1466=IFCFACE((#978));
#1467=IFCFACE((#979));
#1468=IFCFACE((#980));
#1469=IFCFACE((#981));
#1470=IFCFACE((#982));
#1471=IFCFACE((#983));
#1472=IFCFACE((#984));
#1473=IFCFACE((#985));
#1474=IFCFACE((#986));
#1475=IFCFACE((#987));
#1476=IFCFACE((#988));
#1477=IFCFACE((#989));
#1478=IFCFACE((#990));
#1479=IFCFACE((#991));
#1480=IFCFACE((#992));
#1481=IFCFACE((#993));
#1482=IFCFACE((#994));
#1483=IFCFACE((#995));
#1484=IFCFACE((#996));
#1485=IFCFACE((#997));
#1486=IFCFACE((#998));
#1487=IFCFACE((#999));
#1488=IFCFACE((#1000));
#1489=IFCFACE((#1001));
#1490=IFCCLOSEDSHELL((#1002,#1003,#1004,#1005,#1006,#1007,#1008,#1009,#1010,
#1011,#1012,#1013,#1014,#1015,#1016,#1017,#1018,#1019,#1020,#1021,#1022,
#1023,#1024,#1025,#1026,#1027,#1028,#1029,#1030,#1031,#1032,#1033,#1034,
#1035,#1036,#1037,#1038,#1039,#1040,#1041,#1042,#1043,#1044,#1045,#1046,
#1047,#1048,#1049,#1050,#1051,#1052,#1053,#1054,#1055,#1056,#1057,#1058,
#1059,#1060,#1061,#1062,#1063,#1064,#1065,#1066,#1067,#1068,#1069,#1070,
#1071,#1072,#1073,#1074,#1075,#1076,#1077,#1078,#1079,#1080,#1081,#1082,
#1083,#1084,#1085,#1086,#1087,#1088,#1089,#1090,#1091,#1092,#1093,#1094,
#1095,#1096,#1097,#1098,#1099,#1100,#1101,#1102,#1103,#1104,#1105,#1106,
#1107,#1108,#1109,#1110,#1111,#1112,#1113,#1114,#1115,#1116,#1117,#1118,
#1119,#1120,#1121,#1122,#1123,#1124,#1125,#1126,#1127,#1128,#1129,#1130,
#1131,#1132,#1133,#1134,#1135,#1136,#1137,#1138,#1139,#1140,#1141,#1142,
#1143,#1144,#1145,#1146,#1147,#1148,#1149,#1150,#1151,#1152,#1153,#1154,
#1155,#1156,#1157,#1158,#1159,#1160,#1161,#1162,#1163,#1164,#1165,#1166,
#1167,#1168,#1169,#1170,#1171,#1172,#1173,#1174,#1175,#1176,#1177,#1178,
#1179,#1180,#1181,#1182,#1183,#1184,#1185,#1186,#1187,#1188,#1189,#1190,
#1191,#1192,#1193,#1194,#1195,#1196,#1197,#1198,#1199,#1200,#1201,#1202,
#1203,#1204,#1205,#1206,#1207,#1208,#1209,#1210,#1211,#1212,#1213,#1214,
#1215,#1216,#1217,#1218,#1219,#1220,#1221,#1222,#1223,#1224,#1225,#1226,
#1227,#1228,#1229,#1230,#1231,#1232,#1233,#1234,#1235,#1236,#1237,#1238,
#1239,#1240,#1241,#1242,#1243,#1244,#1245,#1246,#1247,#1248,#1249,#1250,
#1251,#1252,#1253,#1254,#1255,#1256,#1257,#1258,#1259,#1260,#1261,#1262,
#1263,#1264,#1265,#1266,#1267,#1268,#1269,#1270,#1271,#1272,#1273,#1274,
#1275,#1276,#1277,#1278,#1279,#1280,#1281,#1282,#1283,#1284,#1285,#1286,
#1287,#1288,#1289,#1290,#1291,#1292,#1293,#1294,#1295,#1296,#1297,#1298,
#1299,#1300,#1301,#1302,#1303,#1304,#1305,#1306,#1307,#1308,#1309,#1310,
#1311,#1312,#1313,#1314,#1315,#1316,#1317,#1318,#1319,#1320,#1321,#1322,
#1323,#1324,#1325,#1326,#1327,#1328,#1329,#1330,#1331,#1332,#1333,#1334,
#1335,#1336,#1337,#1338,#1339,#1340,#1341,#1342,#1343,#1344,#1345,#1346,
#1347,#1348,#1349,#1350,#1351,#1352,#1353,#1354,#1355,#1356,#1357,#1358,
#1359,#1360,#1361,#1362,#1363,#1364,#1365,#1366,#1367,#1368,#1369,#1370,
#1371,#1372,#1373,#1374,#1375,#1376,#1377,#1378,#1379,#1380,#1381,#1382,
#1383,#1384,#1385,#1386,#1387,#1388,#1389,#1390,#1391,#1392,#1393,#1394,
#1395,#1396,#1397,#1398,#1399,#1400,#1401,#1402,#1403,#1404,#1405,#1406,
#1407,#1408,#1409,#1410,#1411,#1412,#1413,#1414,#1415,#1416,#1417,#1418,
#1419,#1420,#1421,#1422,#1423,#1424,#1425,#1426,#1427,#1428,#1429,#1430,
#1431,#1432,#1433,#1434,#1435,#1436,#1437,#1438,#1439,#1440,#1441,#1442,
#1443,#1444,#1445,#1446,#1447,#1448,#1449,#1450,#1451,#1452,#1453,#1454,
#1455,#1456,#1457,#1458,#1459,#1460,#1461,#1462,#1463,#1464,#1465,#1466,
#1467,#1468,#1469,#1470,#1471,#1472,#1473,#1474,#1475,#1476,#1477,#1478,
#1479,#1480,#1481,#1482,#1483,#1484,#1485,#1486,#1487,#1488,#1489));
#1491=IFCSTYLEDITEM(#1496,(#1492),'');
#1492=IFCPRESENTATIONSTYLEASSIGNMENT((#1493));
#1493=IFCSURFACESTYLE('',.BOTH.,(#1494));
#1494=IFCSURFACESTYLERENDERING(#1495,0.,$,$,$,$,$,$,.NOTDEFINED.);
#1495=IFCCOLOURRGB('',0.506983280181885,0.531564235687256,0.550000011920929);
#1496=IFCFACETEDBREP(#1490);
#1497=IFCPROJECT('07hUkdHgGydfWsFJH56q5B',#1994,'ClGray_4211573_JCA',
' ',' ',' ',' ',(#1989),#1498);
#1498=IFCUNITASSIGNMENT((#1990,#1991,#1992,#1993));
#1499=IFCGEOMETRICREPRESENTATIONSUBCONTEXT('Body','Model',*,*,*,*,#1989,
1.,.MODEL_VIEW.,$);
#1500=IFCAXIS2PLACEMENT3D(#1506,#1502,#1503);
#1501=IFCAXIS2PLACEMENT3D(#1988,#1504,#1505);
#1502=IFCDIRECTION((0.,0.,1.));
#1503=IFCDIRECTION((1.,0.,0.));
#1504=IFCDIRECTION((0.,0.,1.));
#1505=IFCDIRECTION((1.,0.,0.));
#1506=IFCCARTESIANPOINT((0.,0.,0.));
#1507=IFCCARTESIANPOINT((0.,3.08390996311773,3.6));
#1508=IFCCARTESIANPOINT((-1.37766035651432,3.08390996311773,3.32596631704063));
#1509=IFCCARTESIANPOINT((-1.37535249302686,3.04970794878516,3.3203946417091));
#1510=IFCCARTESIANPOINT((7.57654454895054E-17,3.04970794878516,3.59396926207859));
#1511=IFCCARTESIANPOINT((-2.54558441227157,3.08390996311773,2.54558441227157));
#1512=IFCCARTESIANPOINT((-2.54132003659178,3.04970794878516,2.54132003659179));
#1513=IFCCARTESIANPOINT((-3.32596631704063,3.08390996311773,1.37766035651433));
#1514=IFCCARTESIANPOINT((-3.3203946417091,3.04970794878516,1.37535249302687));
#1515=IFCCARTESIANPOINT((-3.6,3.08390996311773,1.25241280478513E-15));
#1516=IFCCARTESIANPOINT((-3.59396926207859,3.04970794878516,2.91020183236176E-15));
#1517=IFCCARTESIANPOINT((-3.32596631704063,3.08390996311773,-1.37766035651432));
#1518=IFCCARTESIANPOINT((-3.3203946417091,3.04970794878516,-1.37535249302686));
#1519=IFCCARTESIANPOINT((-2.54558441227157,3.08390996311773,-2.54558441227157));
#1520=IFCCARTESIANPOINT((-2.54132003659178,3.04970794878516,-2.54132003659178));
#1521=IFCCARTESIANPOINT((-1.37766035651432,3.08390996311773,-3.32596631704063));
#1522=IFCCARTESIANPOINT((-1.37535249302686,3.04970794878516,-3.3203946417091));
#1523=IFCCARTESIANPOINT((5.17685393284182E-16,3.08390996311773,-3.6));
#1524=IFCCARTESIANPOINT((-5.22750668193705E-16,3.04970794878516,-3.59396926207859));
#1525=IFCCARTESIANPOINT((1.37766035651432,3.08390996311773,-3.32596631704063));
#1526=IFCCARTESIANPOINT((1.37535249302686,3.04970794878516,-3.3203946417091));
#1527=IFCCARTESIANPOINT((2.54558441227157,3.08390996311773,-2.54558441227157));
#1528=IFCCARTESIANPOINT((2.54132003659178,3.04970794878516,-2.54132003659178));
#1529=IFCCARTESIANPOINT((3.32596631704063,3.08390996311773,-1.37766035651432));
#1530=IFCCARTESIANPOINT((3.3203946417091,3.04970794878516,-1.37535249302686));
#1531=IFCCARTESIANPOINT((3.6,3.08390996311773,2.13415850017122E-15));
#1532=IFCCARTESIANPOINT((3.59396926207859,3.04970794878516,1.5136642337676E-15));
#1533=IFCCARTESIANPOINT((3.32596631704063,3.08390996311773,1.37766035651432));
#1534=IFCCARTESIANPOINT((3.3203946417091,3.04970794878516,1.37535249302687));
#1535=IFCCARTESIANPOINT((2.54558441227157,3.08390996311773,2.54558441227157));
#1536=IFCCARTESIANPOINT((2.54132003659178,3.04970794878516,2.54132003659178));
#1537=IFCCARTESIANPOINT((1.37766035651432,3.08390996311773,3.32596631704063));
#1538=IFCCARTESIANPOINT((1.37535249302686,3.04970794878516,3.3203946417091));
#1539=IFCCARTESIANPOINT((-1.36870726496151,3.01963120214908,3.30435164198867));
#1540=IFCCARTESIANPOINT((7.4844641113684E-17,3.01963120214908,3.5766044443119));
#1541=IFCCARTESIANPOINT((-2.52904125619488,3.01963120214908,2.52904125619489));
#1542=IFCCARTESIANPOINT((-3.30435164198867,3.01963120214908,1.36870726496151));
#1543=IFCCARTESIANPOINT((-3.5766044443119,3.01963120214908,2.90446132286018E-15));
#1544=IFCCARTESIANPOINT((-3.30435164198867,3.01963120214908,-1.36870726496151));
#1545=IFCCARTESIANPOINT((-2.52904125619489,3.01963120214908,-2.52904125619488));
#1546=IFCCARTESIANPOINT((-1.36870726496151,3.01963120214908,-3.30435164198866));
#1547=IFCCARTESIANPOINT((-5.20779649494076E-16,3.01963120214908,-3.57660444431189));
#1548=IFCCARTESIANPOINT((1.36870726496151,3.01963120214908,-3.30435164198866));
#1549=IFCCARTESIANPOINT((2.52904125619489,3.01963120214908,-2.52904125619488));
#1550=IFCCARTESIANPOINT((3.30435164198867,3.01963120214908,-1.36870726496151));
#1551=IFCCARTESIANPOINT((3.5766044443119,3.01963120214908,1.51467131144208E-15));
#1552=IFCCARTESIANPOINT((3.30435164198867,3.01963120214908,1.36870726496151));
#1553=IFCCARTESIANPOINT((2.52904125619489,3.01963120214908,2.52904125619489));
#1554=IFCCARTESIANPOINT((1.36870726496151,3.01963120214908,3.30435164198867));
#1555=IFCCARTESIANPOINT((-1.35852618489607,2.99730742273929,3.27977234041507));
#1556=IFCCARTESIANPOINT((7.416119506102E-17,2.99730742273929,3.55));
#1557=IFCCARTESIANPOINT((-2.51022907321224,2.99730742273929,2.51022907321225));
#1558=IFCCARTESIANPOINT((-3.27977234041507,2.99730742273929,1.35852618489607));
#1559=IFCCARTESIANPOINT((-3.55,2.99730742273929,2.89639366014941E-15));
#1560=IFCCARTESIANPOINT((-3.27977234041507,2.99730742273929,-1.35852618489607));
#1561=IFCCARTESIANPOINT((-2.51022907321224,2.99730742273929,-2.51022907321224));
#1562=IFCCARTESIANPOINT((-1.35852618489607,2.99730742273929,-3.27977234041507));
#1563=IFCCARTESIANPOINT((-5.17032565551876E-16,2.99730742273929,-3.55));
#1564=IFCCARTESIANPOINT((1.35852618489607,2.99730742273929,-3.27977234041507));
#1565=IFCCARTESIANPOINT((2.51022907321224,2.99730742273929,-2.51022907321224));
#1566=IFCCARTESIANPOINT((3.27977234041507,2.99730742273929,-1.35852618489607));
#1567=IFCCARTESIANPOINT((3.55,2.99730742273929,1.51694155205266E-15));
#1568=IFCCARTESIANPOINT((3.27977234041507,2.99730742273929,1.35852618489607));
#1569=IFCCARTESIANPOINT((2.51022907321224,2.99730742273929,2.51022907321224));
#1570=IFCCARTESIANPOINT((1.35852618489607,2.99730742273929,3.27977234041507));
#1571=IFCCARTESIANPOINT((-1.34603724134316,2.98542918781651,3.24962136350994));
#1572=IFCCARTESIANPOINT((7.37975410120543E-17,2.98542918781651,3.5173648177667));
#1573=IFCCARTESIANPOINT((-2.48715251454981,2.98542918781651,2.48715251454982));
#1574=IFCCARTESIANPOINT((-3.24962136350994,2.98542918781651,1.34603724134317));
#1575=IFCCARTESIANPOINT((-3.51736481776669,2.98542918781651,1.2645776369189E-15));
#1576=IFCCARTESIANPOINT((-3.24962136350994,2.98542918781651,-1.34603724134317));
#1577=IFCCARTESIANPOINT((-2.48715251454981,2.98542918781651,-2.48715251454981));
#1578=IFCCARTESIANPOINT((-1.34603724134317,2.98542918781651,-3.24962136350994));
#1579=IFCCARTESIANPOINT((5.04550497563204E-16,2.98542918781651,-3.51736481776669));
#1580=IFCCARTESIANPOINT((1.34603724134317,2.98542918781651,-3.24962136350994));
#1581=IFCCARTESIANPOINT((2.48715251454981,2.98542918781651,-2.48715251454981));
#1582=IFCCARTESIANPOINT((3.24962136350994,2.98542918781651,-1.34603724134316));
#1583=IFCCARTESIANPOINT((3.51736481776669,2.98542918781651,2.1260835500212E-15));
#1584=IFCCARTESIANPOINT((3.24962136350994,2.98542918781651,1.34603724134317));
#1585=IFCCARTESIANPOINT((2.48715251454981,2.98542918781651,2.48715251454982));
#1586=IFCCARTESIANPOINT((1.34603724134317,2.98542918781651,3.24962136350994));
#1587=IFCCARTESIANPOINT((-1.05237943900399,2.8501220663978,2.54066871440604));
#1588=IFCCARTESIANPOINT((1.74513879584005E-16,2.8501220663978,2.75));
#1589=IFCCARTESIANPOINT((-1.944543648263,2.8501220663978,1.94454364826301));
#1590=IFCCARTESIANPOINT((-2.54066871440603,2.8501220663978,1.052379439004));
#1591=IFCCARTESIANPOINT((-2.75,2.8501220663978,3.34316613640285E-15));
#1592=IFCCARTESIANPOINT((-2.54066871440603,2.8501220663978,-1.05237943900399));
#1593=IFCCARTESIANPOINT((-1.944543648263,2.8501220663978,-1.944543648263));
#1594=IFCCARTESIANPOINT((-1.05237943900399,2.8501220663978,-2.54066871440603));
#1595=IFCCARTESIANPOINT((1.74513879584005E-16,2.8501220663978,-2.74999999999999));
#1596=IFCCARTESIANPOINT((1.052379439004,2.8501220663978,-2.54066871440603));
#1597=IFCCARTESIANPOINT((1.944543648263,2.8501220663978,-1.944543648263));
#1598=IFCCARTESIANPOINT((2.54066871440603,2.8501220663978,-1.05237943900399));
#1599=IFCCARTESIANPOINT((2.75,2.8501220663978,4.0167218759339E-15));
#1600=IFCCARTESIANPOINT((2.54066871440603,2.8501220663978,1.052379439004));
#1601=IFCCARTESIANPOINT((1.944543648263,2.8501220663978,1.94454364826301));
#1602=IFCCARTESIANPOINT((1.052379439004,2.8501220663978,2.54066871440604));
#1603=IFCCARTESIANPOINT((-1.05237943900399,1.1498779336022,-2.54066871440603));
#1604=IFCCARTESIANPOINT((7.04073911804702E-17,1.1498779336022,-2.74999999999999));
#1605=IFCCARTESIANPOINT((-1.944543648263,1.1498779336022,-1.944543648263));
#1606=IFCCARTESIANPOINT((-2.54066871440603,1.1498779336022,-1.05237943900399));
#1607=IFCCARTESIANPOINT((-2.75,1.1498779336022,4.24939325729588E-15));
#1608=IFCCARTESIANPOINT((-2.54066871440603,1.1498779336022,1.052379439004));
#1609=IFCCARTESIANPOINT((-1.944543648263,1.1498779336022,1.94454364826301));
#1610=IFCCARTESIANPOINT((-1.052379439004,1.1498779336022,2.54066871440604));
#1611=IFCCARTESIANPOINT((4.07185260945992E-16,1.1498779336022,2.75));
#1612=IFCCARTESIANPOINT((1.052379439004,1.1498779336022,2.54066871440604));
#1613=IFCCARTESIANPOINT((1.944543648263,1.1498779336022,1.94454364826301));
#1614=IFCCARTESIANPOINT((2.54066871440603,1.1498779336022,1.052379439004));
#1615=IFCCARTESIANPOINT((2.75,1.1498779336022,3.57583751776484E-15));
#1616=IFCCARTESIANPOINT((2.54066871440603,1.1498779336022,-1.05237943900399));
#1617=IFCCARTESIANPOINT((1.944543648263,1.1498779336022,-1.944543648263));
#1618=IFCCARTESIANPOINT((1.052379439004,1.1498779336022,-2.54066871440603));
#1619=IFCCARTESIANPOINT((-1.48614916932729E-17,1.0145708121835,-3.51736481776669));
#1620=IFCCARTESIANPOINT((-1.34603724134317,1.01457081218349,-3.24962136350994));
#1621=IFCCARTESIANPOINT((-2.48715251454981,1.01457081218349,-2.48715251454981));
#1622=IFCCARTESIANPOINT((-3.24962136350994,1.01457081218349,-1.34603724134317));
#1623=IFCCARTESIANPOINT((-3.51736481776669,1.01457081218349,1.17591860421357E-15));
#1624=IFCCARTESIANPOINT((-3.24962136350994,1.01457081218349,1.34603724134317));
#1625=IFCCARTESIANPOINT((-2.48715251454981,1.01457081218349,2.48715251454982));
#1626=IFCCARTESIANPOINT((-1.34603724134316,1.01457081218349,3.24962136350994));
#1627=IFCCARTESIANPOINT((-8.76367404795572E-16,1.01457081218349,3.51736481776669));
#1628=IFCCARTESIANPOINT((1.34603724134317,1.01457081218349,3.24962136350994));
#1629=IFCCARTESIANPOINT((2.48715251454981,1.01457081218349,2.48715251454981));
#1630=IFCCARTESIANPOINT((3.24962136350994,1.01457081218349,1.34603724134317));
#1631=IFCCARTESIANPOINT((3.51736481776669,1.01457081218349,2.03742451731587E-15));
#1632=IFCCARTESIANPOINT((3.24962136350994,1.01457081218349,-1.34603724134316));
#1633=IFCCARTESIANPOINT((2.48715251454981,1.01457081218349,-2.48715251454981));
#1634=IFCCARTESIANPOINT((1.34603724134317,1.01457081218349,-3.24962136350994));
#1635=IFCCARTESIANPOINT((-1.35852618489607,1.00269257726072,3.27977234041507));
#1636=IFCCARTESIANPOINT((-1.52251457422387E-17,1.00269257726072,3.55));
#1637=IFCCARTESIANPOINT((-2.51022907321224,1.00269257726072,2.51022907321225));
#1638=IFCCARTESIANPOINT((-3.27977234041507,1.00269257726072,1.35852618489607));
#1639=IFCCARTESIANPOINT((-3.55,1.00269257726072,2.80700731934615E-15));
#1640=IFCCARTESIANPOINT((-3.27977234041507,1.00269257726072,-1.35852618489607));
#1641=IFCCARTESIANPOINT((-2.51022907321224,1.00269257726072,-2.51022907321224));
#1642=IFCCARTESIANPOINT((-1.35852618489607,1.00269257726072,-3.27977234041506));
#1643=IFCCARTESIANPOINT((-6.06418906355134E-16,1.00269257726072,-3.55));
#1644=IFCCARTESIANPOINT((1.35852618489607,1.00269257726072,-3.27977234041507));
#1645=IFCCARTESIANPOINT((2.51022907321224,1.00269257726072,-2.51022907321224));
#1646=IFCCARTESIANPOINT((3.27977234041507,1.00269257726072,-1.35852618489607));
#1647=IFCCARTESIANPOINT((3.55,1.00269257726072,1.4275552112494E-15));
#1648=IFCCARTESIANPOINT((3.27977234041507,1.00269257726072,1.35852618489607));
#1649=IFCCARTESIANPOINT((2.51022907321224,1.00269257726072,2.51022907321224));
#1650=IFCCARTESIANPOINT((1.35852618489607,1.00269257726072,3.27977234041507));
#1651=IFCCARTESIANPOINT((-1.36870726496151,0.980368797850927,3.30435164198867));
#1652=IFCCARTESIANPOINT((-1.59085917949027E-17,0.980368797850927,3.5766044443119));
#1653=IFCCARTESIANPOINT((-2.52904125619488,0.980368797850927,2.52904125619489));
#1654=IFCCARTESIANPOINT((-3.30435164198866,0.980368797850927,1.36870726496151));
#1655=IFCCARTESIANPOINT((-3.5766044443119,0.980368797850927,2.8137080899516E-15));
#1656=IFCCARTESIANPOINT((-3.30435164198867,0.980368797850927,-1.36870726496151));
#1657=IFCCARTESIANPOINT((-2.52904125619489,0.980368797850927,-2.52904125619488));
#1658=IFCCARTESIANPOINT((-1.36870726496151,0.980368797850927,-3.30435164198866));
#1659=IFCCARTESIANPOINT((-6.11532882402662E-16,0.980368797850927,-3.57660444431189));
#1660=IFCCARTESIANPOINT((1.36870726496151,0.980368797850927,-3.30435164198866));
#1661=IFCCARTESIANPOINT((2.52904125619489,0.980368797850927,-2.52904125619488));
#1662=IFCCARTESIANPOINT((3.30435164198867,0.980368797850927,-1.36870726496151));
#1663=IFCCARTESIANPOINT((3.5766044443119,0.980368797850927,1.42391807853349E-15));
#1664=IFCCARTESIANPOINT((3.30435164198867,0.980368797850927,1.36870726496151));
#1665=IFCCARTESIANPOINT((2.52904125619489,0.980368797850927,2.52904125619489));
#1666=IFCCARTESIANPOINT((1.36870726496151,0.980368797850927,3.30435164198867));
#1667=IFCCARTESIANPOINT((-1.37535249302686,0.95029205121484,3.3203946417091));
#1668=IFCCARTESIANPOINT((-1.68293961707241E-17,0.95029205121484,3.59396926207859));
#1669=IFCCARTESIANPOINT((-2.54132003659178,0.95029205121484,2.54132003659179));
#1670=IFCCARTESIANPOINT((-3.3203946417091,0.95029205121484,1.37535249302687));
#1671=IFCCARTESIANPOINT((-3.59396926207859,0.95029205121484,2.81760699070153E-15));
#1672=IFCCARTESIANPOINT((-3.3203946417091,0.95029205121484,-1.37535249302686));
#1673=IFCCARTESIANPOINT((-2.54132003659178,0.95029205121484,-2.54132003659178));
#1674=IFCCARTESIANPOINT((-1.37535249302686,0.95029205121484,-3.3203946417091));
#1675=IFCCARTESIANPOINT((-6.15345509853934E-16,0.95029205121484,-3.59396926207859));
#1676=IFCCARTESIANPOINT((1.37535249302686,0.95029205121484,-3.3203946417091));
#1677=IFCCARTESIANPOINT((2.54132003659178,0.95029205121484,-2.54132003659178));
#1678=IFCCARTESIANPOINT((3.3203946417091,0.95029205121484,-1.37535249302686));
#1679=IFCCARTESIANPOINT((3.59396926207859,0.95029205121484,1.42106939210737E-15));
#1680=IFCCARTESIANPOINT((3.3203946417091,0.95029205121484,1.37535249302686));
#1681=IFCCARTESIANPOINT((2.54132003659178,0.95029205121484,2.54132003659178));
#1682=IFCCARTESIANPOINT((1.37535249302686,0.95029205121484,3.3203946417091));
#1683=IFCCARTESIANPOINT((-1.37766035651432,0.916090036882273,3.32596631704063));
#1684=IFCCARTESIANPOINT((0.,0.916090036882273,3.6));
#1685=IFCCARTESIANPOINT((-2.54558441227157,0.916090036882273,2.54558441227157));
#1686=IFCCARTESIANPOINT((-3.32596631704063,0.916090036882273,1.37766035651433));
#1687=IFCCARTESIANPOINT((-3.6,0.916090036882273,1.15772376292164E-15));
#1688=IFCCARTESIANPOINT((-3.32596631704063,0.916090036882273,-1.37766035651432));
#1689=IFCCARTESIANPOINT((-2.54558441227157,0.916090036882273,-2.54558441227157));
#1690=IFCCARTESIANPOINT((-1.37766035651432,0.916090036882273,-3.32596631704063));
#1691=IFCCARTESIANPOINT((4.22996351420693E-16,0.916090036882273,-3.6));
#1692=IFCCARTESIANPOINT((1.37766035651432,0.916090036882273,-3.32596631704063));
#1693=IFCCARTESIANPOINT((2.54558441227157,0.916090036882273,-2.54558441227157));
#1694=IFCCARTESIANPOINT((3.32596631704063,0.916090036882273,-1.37766035651432));
#1695=IFCCARTESIANPOINT((3.6,0.916090036882273,2.03946945830774E-15));
#1696=IFCCARTESIANPOINT((3.32596631704063,0.916090036882273,1.37766035651432));
#1697=IFCCARTESIANPOINT((2.54558441227157,0.916090036882273,2.54558441227157));
#1698=IFCCARTESIANPOINT((1.37766035651432,0.916090036882273,3.32596631704063));
#1699=IFCCARTESIANPOINT((-1.37766035651432,3.9,-3.32596631704063));
#1700=IFCCARTESIANPOINT((4.40872847693047E-16,3.9,-3.6));
#1701=IFCCARTESIANPOINT((-2.54558441227157,3.9,-2.54558441227157));
#1702=IFCCARTESIANPOINT((-3.32596631704063,3.9,-1.37766035651433));
#1703=IFCCARTESIANPOINT((-3.6,3.9,-6.61309271539571E-16));
#1704=IFCCARTESIANPOINT((-3.32596631704063,3.9,1.37766035651432));
#1705=IFCCARTESIANPOINT((-2.54558441227157,3.9,2.54558441227157));
#1706=IFCCARTESIANPOINT((-1.37766035651432,3.9,3.32596631704063));
#1707=IFCCARTESIANPOINT((0.,3.9,3.6));
#1708=IFCCARTESIANPOINT((1.37766035651432,3.9,3.32596631704063));
#1709=IFCCARTESIANPOINT((2.54558441227157,3.9,2.54558441227157));
#1710=IFCCARTESIANPOINT((3.32596631704063,3.9,1.37766035651432));
#1711=IFCCARTESIANPOINT((3.6,3.9,2.20436423846524E-16));
#1712=IFCCARTESIANPOINT((3.32596631704063,3.9,-1.37766035651432));
#1713=IFCCARTESIANPOINT((2.54558441227157,3.9,-2.54558441227157));
#1714=IFCCARTESIANPOINT((1.37766035651432,3.9,-3.32596631704063));
#1715=IFCCARTESIANPOINT((0.,4.,3.5));
#1716=IFCCARTESIANPOINT((-1.33939201327781,4.,3.23357836378951));
#1717=IFCCARTESIANPOINT((-1.35403667421849,3.99238795325113,3.26893370284883));
#1718=IFCCARTESIANPOINT((0.,3.99238795325113,3.53826834323651));
#1719=IFCCARTESIANPOINT((-2.47487373415292,4.,2.47487373415292));
#1720=IFCCARTESIANPOINT((-2.50193353916023,3.99238795325113,2.50193353916023));
#1721=IFCCARTESIANPOINT((-3.2335783637895,4.,1.33939201327782));
#1722=IFCCARTESIANPOINT((-3.26893370284883,3.99238795325113,1.35403667421849));
#1723=IFCCARTESIANPOINT((-3.5,4.,-6.4293956955236E-16));
#1724=IFCCARTESIANPOINT((-3.53826834323651,3.99238795325113,9.8206674549087E-16));
#1725=IFCCARTESIANPOINT((-3.2335783637895,4.,-1.33939201327782));
#1726=IFCCARTESIANPOINT((-3.26893370284883,3.99238795325113,-1.35403667421849));
#1727=IFCCARTESIANPOINT((-2.47487373415292,4.,-2.47487373415292));
#1728=IFCCARTESIANPOINT((-2.50193353916023,3.99238795325113,-2.50193353916023));
#1729=IFCCARTESIANPOINT((-1.33939201327781,4.,-3.2335783637895));
#1730=IFCCARTESIANPOINT((-1.35403667421849,3.99238795325113,-3.26893370284883));
#1731=IFCCARTESIANPOINT((4.28626379701574E-16,4.,-3.5));
#1732=IFCCARTESIANPOINT((-5.89240047294522E-16,3.99238795325113,-3.53826834323651));
#1733=IFCCARTESIANPOINT((1.33939201327781,4.,-3.2335783637895));
#1734=IFCCARTESIANPOINT((1.35403667421849,3.99238795325113,-3.26893370284883));
#1735=IFCCARTESIANPOINT((2.47487373415292,4.,-2.47487373415292));
#1736=IFCCARTESIANPOINT((2.50193353916023,3.99238795325113,-2.50193353916023));
#1737=IFCCARTESIANPOINT((3.2335783637895,4.,-1.33939201327781));
#1738=IFCCARTESIANPOINT((3.26893370284883,3.99238795325113,-1.35403667421849));
#1739=IFCCARTESIANPOINT((3.5,4.,2.14313189850787E-16));
#1740=IFCCARTESIANPOINT((3.53826834323651,3.99238795325113,-3.92826698196348E-16));
#1741=IFCCARTESIANPOINT((3.2335783637895,4.,1.33939201327781));
#1742=IFCCARTESIANPOINT((3.26893370284883,3.99238795325113,1.35403667421849));
#1743=IFCCARTESIANPOINT((2.47487373415292,4.,2.47487373415292));
#1744=IFCCARTESIANPOINT((2.50193353916023,3.99238795325113,2.50193353916023));
#1745=IFCCARTESIANPOINT((1.33939201327781,4.,3.2335783637895));
#1746=IFCCARTESIANPOINT((1.35403667421849,3.99238795325113,3.26893370284883));
#1747=IFCCARTESIANPOINT((-1.36645181828512,3.97071067811865,3.29890651203332));
#1748=IFCCARTESIANPOINT((0.,3.97071067811865,3.57071067811866));
#1749=IFCCARTESIANPOINT((-2.52487373415292,3.97071067811865,2.52487373415292));
#1750=IFCCARTESIANPOINT((-3.29890651203332,3.97071067811865,1.36645181828513));
#1751=IFCCARTESIANPOINT((-3.57071067811866,3.97071067811865,9.91071302280559E-16));
#1752=IFCCARTESIANPOINT((-3.29890651203332,3.97071067811865,-1.36645181828512));
#1753=IFCCARTESIANPOINT((-2.52487373415292,3.97071067811865,-2.52487373415292));
#1754=IFCCARTESIANPOINT((-1.36645181828512,3.97071067811865,-3.29890651203332));
#1755=IFCCARTESIANPOINT((-5.94642781368336E-16,3.97071067811865,-3.57071067811866));
#1756=IFCCARTESIANPOINT((1.36645181828512,3.97071067811865,-3.29890651203332));
#1757=IFCCARTESIANPOINT((2.52487373415292,3.97071067811865,-2.52487373415292));
#1758=IFCCARTESIANPOINT((3.29890651203332,3.97071067811865,-1.36645181828512));
#1759=IFCCARTESIANPOINT((3.57071067811866,3.97071067811865,-3.96428520912224E-16));
#1760=IFCCARTESIANPOINT((3.29890651203332,3.97071067811865,1.36645181828512));
#1761=IFCCARTESIANPOINT((2.52487373415292,3.97071067811865,2.52487373415292));
#1762=IFCCARTESIANPOINT((1.36645181828512,3.97071067811865,3.29890651203332));
#1763=IFCCARTESIANPOINT((-1.37474735233714,3.93826834323651,3.31893370284883));
#1764=IFCCARTESIANPOINT((0.,3.93826834323651,3.59238795325113));
#1765=IFCCARTESIANPOINT((-2.54020188239673,3.93826834323651,2.54020188239674));
#1766=IFCCARTESIANPOINT((-3.31893370284883,3.93826834323651,1.37474735233714));
#1767=IFCCARTESIANPOINT((-3.59238795325113,3.93826834323651,9.97087954771361E-16));
#1768=IFCCARTESIANPOINT((-3.31893370284883,3.93826834323651,-1.37474735233714));
#1769=IFCCARTESIANPOINT((-2.54020188239674,3.93826834323651,-2.54020188239673));
#1770=IFCCARTESIANPOINT((-1.37474735233714,3.93826834323651,-3.31893370284883));
#1771=IFCCARTESIANPOINT((-5.98252772862817E-16,3.93826834323651,-3.59238795325113));
#1772=IFCCARTESIANPOINT((1.37474735233714,3.93826834323651,-3.31893370284883));
#1773=IFCCARTESIANPOINT((2.54020188239674,3.93826834323651,-2.54020188239674));
#1774=IFCCARTESIANPOINT((3.31893370284883,3.93826834323651,-1.37474735233714));
#1775=IFCCARTESIANPOINT((3.59238795325113,3.93826834323651,-3.98835181908544E-16));
#1776=IFCCARTESIANPOINT((3.31893370284883,3.93826834323651,1.37474735233714));
#1777=IFCCARTESIANPOINT((2.54020188239674,3.93826834323651,2.54020188239674));
#1778=IFCCARTESIANPOINT((1.37474735233714,3.93826834323651,3.31893370284883));
#1779=IFCCARTESIANPOINT((-1.37766035651432,0.0999999999999998,-3.32596631704063));
#1780=IFCCARTESIANPOINT((4.40872847693047E-16,0.0999999999999998,-3.6));
#1781=IFCCARTESIANPOINT((-2.54558441227157,0.0999999999999998,-2.54558441227157));
#1782=IFCCARTESIANPOINT((-3.32596631704063,0.0999999999999998,-1.37766035651433));
#1783=IFCCARTESIANPOINT((-3.6,0.0999999999999998,-6.61309271539571E-16));
#1784=IFCCARTESIANPOINT((-3.32596631704063,0.0999999999999998,1.37766035651432));
#1785=IFCCARTESIANPOINT((-2.54558441227157,0.0999999999999998,2.54558441227157));
#1786=IFCCARTESIANPOINT((-1.37766035651432,0.0999999999999998,3.32596631704063));
#1787=IFCCARTESIANPOINT((0.,0.0999999999999998,3.6));
#1788=IFCCARTESIANPOINT((1.37766035651432,0.0999999999999998,3.32596631704063));
#1789=IFCCARTESIANPOINT((2.54558441227157,0.0999999999999998,2.54558441227157));
#1790=IFCCARTESIANPOINT((3.32596631704063,0.0999999999999998,1.37766035651432));
#1791=IFCCARTESIANPOINT((3.6,0.0999999999999998,2.20436423846524E-16));
#1792=IFCCARTESIANPOINT((3.32596631704063,0.0999999999999998,-1.37766035651432));
#1793=IFCCARTESIANPOINT((2.54558441227157,0.0999999999999998,-2.54558441227157));
#1794=IFCCARTESIANPOINT((1.37766035651432,0.0999999999999998,-3.32596631704063));
#1795=IFCCARTESIANPOINT((-1.37474735233714,0.0617316567634909,3.31893370284883));
#1796=IFCCARTESIANPOINT((0.,0.0617316567634909,3.59238795325113));
#1797=IFCCARTESIANPOINT((-2.54020188239673,0.0617316567634909,2.54020188239674));
#1798=IFCCARTESIANPOINT((-3.31893370284883,0.0617316567634909,1.37474735233714));
#1799=IFCCARTESIANPOINT((-3.59238795325113,0.0617316567634909,9.97087954771361E-16));
#1800=IFCCARTESIANPOINT((-3.31893370284883,0.0617316567634909,-1.37474735233714));
#1801=IFCCARTESIANPOINT((-2.54020188239674,0.0617316567634909,-2.54020188239673));
#1802=IFCCARTESIANPOINT((-1.37474735233714,0.0617316567634909,-3.31893370284883));
#1803=IFCCARTESIANPOINT((-5.98252772862817E-16,0.0617316567634909,-3.59238795325113));
#1804=IFCCARTESIANPOINT((1.37474735233714,0.0617316567634909,-3.31893370284883));
#1805=IFCCARTESIANPOINT((2.54020188239674,0.0617316567634909,-2.54020188239674));
#1806=IFCCARTESIANPOINT((3.31893370284883,0.0617316567634909,-1.37474735233714));
#1807=IFCCARTESIANPOINT((3.59238795325113,0.0617316567634909,-3.98835181908544E-16));
#1808=IFCCARTESIANPOINT((3.31893370284883,0.0617316567634909,1.37474735233714));
#1809=IFCCARTESIANPOINT((2.54020188239674,0.0617316567634909,2.54020188239674));
#1810=IFCCARTESIANPOINT((1.37474735233714,0.0617316567634909,3.31893370284883));
#1811=IFCCARTESIANPOINT((-1.36645181828512,0.0292893218813451,3.29890651203332));
#1812=IFCCARTESIANPOINT((0.,0.0292893218813451,3.57071067811866));
#1813=IFCCARTESIANPOINT((-2.52487373415292,0.0292893218813451,2.52487373415292));
#1814=IFCCARTESIANPOINT((-3.29890651203332,0.0292893218813451,1.36645181828513));
#1815=IFCCARTESIANPOINT((-3.57071067811866,0.0292893218813451,9.91071302280559E-16));
#1816=IFCCARTESIANPOINT((-3.29890651203332,0.0292893218813451,-1.36645181828512));
#1817=IFCCARTESIANPOINT((-2.52487373415292,0.0292893218813451,-2.52487373415292));
#1818=IFCCARTESIANPOINT((-1.36645181828512,0.0292893218813451,-3.29890651203332));
#1819=IFCCARTESIANPOINT((-5.94642781368336E-16,0.0292893218813451,-3.57071067811866));
#1820=IFCCARTESIANPOINT((1.36645181828512,0.0292893218813451,-3.29890651203332));
#1821=IFCCARTESIANPOINT((2.52487373415292,0.0292893218813451,-2.52487373415292));
#1822=IFCCARTESIANPOINT((3.29890651203332,0.0292893218813451,-1.36645181828512));
#1823=IFCCARTESIANPOINT((3.57071067811866,0.0292893218813451,-3.96428520912224E-16));
#1824=IFCCARTESIANPOINT((3.29890651203332,0.0292893218813451,1.36645181828512));
#1825=IFCCARTESIANPOINT((2.52487373415292,0.0292893218813451,2.52487373415292));
#1826=IFCCARTESIANPOINT((1.36645181828512,0.0292893218813451,3.29890651203332));
#1827=IFCCARTESIANPOINT((-1.35403667421849,0.0076120467488711,3.26893370284883));
#1828=IFCCARTESIANPOINT((0.,0.0076120467488711,3.53826834323651));
#1829=IFCCARTESIANPOINT((-2.50193353916023,0.0076120467488711,2.50193353916023));
#1830=IFCCARTESIANPOINT((-3.26893370284883,0.0076120467488711,1.35403667421849));
#1831=IFCCARTESIANPOINT((-3.53826834323651,0.0076120467488711,9.8206674549087E-16));
#1832=IFCCARTESIANPOINT((-3.26893370284883,0.0076120467488711,-1.35403667421849));
#1833=IFCCARTESIANPOINT((-2.50193353916023,0.0076120467488711,-2.50193353916023));
#1834=IFCCARTESIANPOINT((-1.35403667421849,0.0076120467488711,-3.26893370284883));
#1835=IFCCARTESIANPOINT((-5.89240047294522E-16,0.0076120467488711,-3.53826834323651));
#1836=IFCCARTESIANPOINT((1.35403667421849,0.0076120467488711,-3.26893370284883));
#1837=IFCCARTESIANPOINT((2.50193353916023,0.0076120467488711,-2.50193353916023));
#1838=IFCCARTESIANPOINT((3.26893370284883,0.0076120467488711,-1.35403667421849));
#1839=IFCCARTESIANPOINT((3.53826834323651,0.0076120467488711,-3.92826698196348E-16));
#1840=IFCCARTESIANPOINT((3.26893370284883,0.0076120467488711,1.35403667421849));
#1841=IFCCARTESIANPOINT((2.50193353916023,0.0076120467488711,2.50193353916023));
#1842=IFCCARTESIANPOINT((1.35403667421849,0.0076120467488711,3.26893370284883));
#1843=IFCCARTESIANPOINT((-1.33939201327781,-1.76182853028894E-16,3.23357836378951));
#1844=IFCCARTESIANPOINT((0.,0.,3.5));
#1845=IFCCARTESIANPOINT((-2.47487373415292,-1.76182853028894E-16,2.47487373415292));
#1846=IFCCARTESIANPOINT((-3.2335783637895,-1.76182853028894E-16,1.33939201327782));
#1847=IFCCARTESIANPOINT((-3.5,-1.76182853028894E-16,-6.4293956955236E-16));
#1848=IFCCARTESIANPOINT((-3.2335783637895,-1.76182853028894E-16,-1.33939201327782));
#1849=IFCCARTESIANPOINT((-2.47487373415292,-1.76182853028894E-16,-2.47487373415292));
#1850=IFCCARTESIANPOINT((-1.33939201327781,-1.76182853028894E-16,-3.2335783637895));
#1851=IFCCARTESIANPOINT((4.28626379701574E-16,-1.76182853028894E-16,-3.5));
#1852=IFCCARTESIANPOINT((1.33939201327781,-1.76182853028894E-16,-3.2335783637895));
#1853=IFCCARTESIANPOINT((2.47487373415292,-1.76182853028894E-16,-2.47487373415292));
#1854=IFCCARTESIANPOINT((3.2335783637895,-1.76182853028894E-16,-1.33939201327781));
#1855=IFCCARTESIANPOINT((3.5,-1.76182853028894E-16,2.14313189850787E-16));
#1856=IFCCARTESIANPOINT((3.2335783637895,-1.76182853028894E-16,1.33939201327781));
#1857=IFCCARTESIANPOINT((2.47487373415292,-1.76182853028894E-16,2.47487373415292));
#1858=IFCCARTESIANPOINT((1.33939201327781,-1.76182853028894E-16,3.2335783637895));
#1859=IFCCARTESIANPOINT((0.895418081857297,0.,2.18630892753907));
#1860=IFCCARTESIANPOINT((0.9,0.,2.15638586528478));
#1861=IFCCARTESIANPOINT((-2.15638586528478,0.,0.9));
#1862=IFCCARTESIANPOINT((-1.4,0.,0.9));
#1863=IFCCARTESIANPOINT((-1.20865828381746,0.,0.938060233744357));
#1864=IFCCARTESIANPOINT((-1.04644660940673,0.,1.04644660940673));
#1865=IFCCARTESIANPOINT((-0.938060233744357,0.,1.20865828381746));
#1866=IFCCARTESIANPOINT((-0.9,0.,1.4));
#1867=IFCCARTESIANPOINT((-0.9,0.,2.15638586528478));
#1868=IFCCARTESIANPOINT((2.15638586528478,0.,-0.9));
#1869=IFCCARTESIANPOINT((1.4,0.,-0.9));
#1870=IFCCARTESIANPOINT((1.20865828381746,0.,-0.938060233744357));
#1871=IFCCARTESIANPOINT((1.04644660940673,0.,-1.04644660940673));
#1872=IFCCARTESIANPOINT((0.938060233744357,0.,-1.20865828381746));
#1873=IFCCARTESIANPOINT((0.9,0.,-1.4));
#1874=IFCCARTESIANPOINT((0.9,0.,-2.15638586528478));
#1875=IFCCARTESIANPOINT((0.9,0.,1.4));
#1876=IFCCARTESIANPOINT((0.938060233744357,0.,1.20865828381746));
#1877=IFCCARTESIANPOINT((1.04644660940673,0.,1.04644660940673));
#1878=IFCCARTESIANPOINT((1.20865828381746,0.,0.938060233744357));
#1879=IFCCARTESIANPOINT((1.4,0.,0.9));
#1880=IFCCARTESIANPOINT((2.15638586528478,0.,0.9));
#1881=IFCCARTESIANPOINT((-2.18630892753907,0.,0.895418081857298));
#1882=IFCCARTESIANPOINT((2.18630892753907,0.,-0.895418081857298));
#1883=IFCCARTESIANPOINT((2.18630892753907,0.,0.895418081857298));
#1884=IFCCARTESIANPOINT((-0.895418081857298,0.,2.18630892753907));
#1885=IFCCARTESIANPOINT((-2.23543793189619,0.,0.86124353651175));
#1886=IFCCARTESIANPOINT((-2.2134898893568,0.,0.882092206906518));
#1887=IFCCARTESIANPOINT((0.895418081857298,0.,-2.18630892753907));
#1888=IFCCARTESIANPOINT((0.882092206906518,0.,2.2134898893568));
#1889=IFCCARTESIANPOINT((-0.9,0.,-2.15638586528478));
#1890=IFCCARTESIANPOINT((-0.9,0.,-1.4));
#1891=IFCCARTESIANPOINT((-0.938060233744357,0.,-1.20865828381746));
#1892=IFCCARTESIANPOINT((-1.04644660940673,0.,-1.04644660940673));
#1893=IFCCARTESIANPOINT((-1.20865828381746,0.,-0.938060233744357));
#1894=IFCCARTESIANPOINT((-1.4,0.,-0.9));
#1895=IFCCARTESIANPOINT((-2.15638586528478,0.,-0.9));
#1896=IFCCARTESIANPOINT((2.2134898893568,0.,-0.882092206906518));
#1897=IFCCARTESIANPOINT((2.2134898893568,0.,0.882092206906518));
#1898=IFCCARTESIANPOINT((0.834782608695652,0.,2.25014177247108));
#1899=IFCCARTESIANPOINT((0.86124353651175,0.,2.23543793189619));
#1900=IFCCARTESIANPOINT((-0.882092206906518,0.,2.2134898893568));
#1901=IFCCARTESIANPOINT((-0.895418081857298,0.,-2.18630892753907));
#1902=IFCCARTESIANPOINT((-0.86124353651175,0.,-2.23543793189619));
#1903=IFCCARTESIANPOINT((-0.882092206906518,0.,-2.2134898893568));
#1904=IFCCARTESIANPOINT((0.882092206906518,0.,-2.2134898893568));
#1905=IFCCARTESIANPOINT((2.25014177247108,0.,-0.834782608695652));
#1906=IFCCARTESIANPOINT((2.23543793189619,0.,-0.86124353651175));
#1907=IFCCARTESIANPOINT((-2.25014177247108,0.,0.834782608695652));
#1908=IFCCARTESIANPOINT((2.23543793189619,0.,0.86124353651175));
#1909=IFCCARTESIANPOINT((-0.86124353651175,0.,2.23543793189619));
#1910=IFCCARTESIANPOINT((-2.18630892753907,0.,-0.895418081857298));
#1911=IFCCARTESIANPOINT((-2.2134898893568,0.,-0.882092206906518));
#1912=IFCCARTESIANPOINT((-0.834782608695652,0.,-2.25014177247108));
#1913=IFCCARTESIANPOINT((0.86124353651175,0.,-2.23543793189619));
#1914=IFCCARTESIANPOINT((2.25014177247108,0.,0.834782608695652));
#1915=IFCCARTESIANPOINT((-0.834782608695652,0.,2.25014177247108));
#1916=IFCCARTESIANPOINT((0.834782608695652,0.,-2.25014177247108));
#1917=IFCCARTESIANPOINT((2.93915231795365E-16,0.,2.4));
#1918=IFCCARTESIANPOINT((-2.4,0.,4.40872847693047E-16));
#1919=IFCCARTESIANPOINT((-2.23543793189619,0.,-0.86124353651175));
#1920=IFCCARTESIANPOINT((2.4,0.,-1.46957615897682E-16));
#1921=IFCCARTESIANPOINT((-2.25014177247108,0.,-0.834782608695652));
#1922=IFCCARTESIANPOINT((-5.87830463590729E-16,0.,-2.4));
#1923=IFCCARTESIANPOINT((2.15638586528478,4.,0.9));
#1924=IFCCARTESIANPOINT((1.4,4.,0.9));
#1925=IFCCARTESIANPOINT((1.20865828381746,4.,0.938060233744357));
#1926=IFCCARTESIANPOINT((1.04644660940673,4.,1.04644660940673));
#1927=IFCCARTESIANPOINT((0.938060233744357,4.,1.20865828381746));
#1928=IFCCARTESIANPOINT((0.9,4.,1.4));
#1929=IFCCARTESIANPOINT((0.9,4.,2.15638586528478));
#1930=IFCCARTESIANPOINT((0.9,4.,-2.15638586528478));
#1931=IFCCARTESIANPOINT((0.9,4.,-1.4));
#1932=IFCCARTESIANPOINT((0.938060233744357,4.,-1.20865828381746));
#1933=IFCCARTESIANPOINT((1.04644660940673,4.,-1.04644660940673));
#1934=IFCCARTESIANPOINT((1.20865828381746,4.,-0.938060233744357));
#1935=IFCCARTESIANPOINT((1.4,4.,-0.9));
#1936=IFCCARTESIANPOINT((2.15638586528478,4.,-0.9));
#1937=IFCCARTESIANPOINT((2.18630892753907,4.,0.895418081857298));
#1938=IFCCARTESIANPOINT((0.895418081857298,4.,-2.18630892753907));
#1939=IFCCARTESIANPOINT((0.895418081857297,4.,2.18630892753907));
#1940=IFCCARTESIANPOINT((2.18630892753907,4.,-0.895418081857298));
#1941=IFCCARTESIANPOINT((2.2134898893568,4.,0.882092206906518));
#1942=IFCCARTESIANPOINT((0.882092206906518,4.,-2.2134898893568));
#1943=IFCCARTESIANPOINT((-0.895418081857298,4.,-2.18630892753907));
#1944=IFCCARTESIANPOINT((-0.882092206906518,4.,-2.2134898893568));
#1945=IFCCARTESIANPOINT((-2.15638586528478,4.,-0.9));
#1946=IFCCARTESIANPOINT((-1.4,4.,-0.9));
#1947=IFCCARTESIANPOINT((-1.20865828381746,4.,-0.938060233744357));
#1948=IFCCARTESIANPOINT((-1.04644660940673,4.,-1.04644660940673));
#1949=IFCCARTESIANPOINT((-0.938060233744357,4.,-1.20865828381746));
#1950=IFCCARTESIANPOINT((-0.9,4.,-1.4));
#1951=IFCCARTESIANPOINT((-0.9,4.,-2.15638586528478));
#1952=IFCCARTESIANPOINT((-0.9,4.,2.15638586528478));
#1953=IFCCARTESIANPOINT((-0.9,4.,1.4));
#1954=IFCCARTESIANPOINT((-0.938060233744357,4.,1.20865828381746));
#1955=IFCCARTESIANPOINT((-1.04644660940673,4.,1.04644660940673));
#1956=IFCCARTESIANPOINT((-1.20865828381746,4.,0.938060233744357));
#1957=IFCCARTESIANPOINT((-1.4,4.,0.9));
#1958=IFCCARTESIANPOINT((-2.15638586528478,4.,0.9));
#1959=IFCCARTESIANPOINT((0.882092206906518,4.,2.2134898893568));
#1960=IFCCARTESIANPOINT((2.25014177247108,4.,0.834782608695652));
#1961=IFCCARTESIANPOINT((2.23543793189619,4.,0.86124353651175));
#1962=IFCCARTESIANPOINT((2.2134898893568,4.,-0.882092206906518));
#1963=IFCCARTESIANPOINT((0.834782608695652,4.,-2.25014177247108));
#1964=IFCCARTESIANPOINT((0.86124353651175,4.,-2.23543793189619));
#1965=IFCCARTESIANPOINT((-0.86124353651175,4.,-2.23543793189619));
#1966=IFCCARTESIANPOINT((-2.18630892753907,4.,-0.895418081857298));
#1967=IFCCARTESIANPOINT((-2.18630892753907,4.,0.895418081857298));
#1968=IFCCARTESIANPOINT((-2.2134898893568,4.,0.882092206906518));
#1969=IFCCARTESIANPOINT((-0.895418081857298,4.,2.18630892753907));
#1970=IFCCARTESIANPOINT((-2.23543793189619,4.,-0.86124353651175));
#1971=IFCCARTESIANPOINT((-2.2134898893568,4.,-0.882092206906518));
#1972=IFCCARTESIANPOINT((0.86124353651175,4.,2.23543793189619));
#1973=IFCCARTESIANPOINT((2.23543793189619,4.,-0.86124353651175));
#1974=IFCCARTESIANPOINT((-0.882092206906518,4.,2.2134898893568));
#1975=IFCCARTESIANPOINT((-0.834782608695652,4.,2.25014177247108));
#1976=IFCCARTESIANPOINT((-0.86124353651175,4.,2.23543793189619));
#1977=IFCCARTESIANPOINT((0.834782608695652,4.,2.25014177247108));
#1978=IFCCARTESIANPOINT((2.25014177247108,4.,-0.834782608695652));
#1979=IFCCARTESIANPOINT((-2.25014177247108,4.,-0.834782608695652));
#1980=IFCCARTESIANPOINT((2.4,4.,-1.46957615897682E-16));
#1981=IFCCARTESIANPOINT((-5.87830463590729E-16,4.,-2.4));
#1982=IFCCARTESIANPOINT((-2.4,4.,4.40872847693047E-16));
#1983=IFCCARTESIANPOINT((-2.23543793189619,4.,0.86124353651175));
#1984=IFCCARTESIANPOINT((-0.834782608695652,4.,-2.25014177247108));
#1985=IFCCARTESIANPOINT((2.93915231795365E-16,4.,2.4));
#1986=IFCCARTESIANPOINT((-2.25014177247108,4.,0.834782608695652));
#1987=IFCCARTESIANPOINT((0.,0.,0.));
#1988=IFCCARTESIANPOINT((0.,0.,0.));
#1989=IFCGEOMETRICREPRESENTATIONCONTEXT($,'Model',3,0.005,#1500,$);
#1990=IFCSIUNIT(*,.LENGTHUNIT.,.MILLI.,.METRE.);
#1991=IFCSIUNIT(*,.AREAUNIT.,$,.SQUARE_METRE.);
#1992=IFCSIUNIT(*,.VOLUMEUNIT.,$,.CUBIC_METRE.);
#1993=IFCSIUNIT(*,.PLANEANGLEUNIT.,$,.RADIAN.);
#1994=IFCOWNERHISTORY(#1996,#1995,$,.NOCHANGE.,0,$,$,0);
#1995=IFCAPPLICATION(#1997,' ',' ',' ');
#1996=IFCPERSONANDORGANIZATION(#1998,#1997,$);
#1997=IFCORGANIZATION($,' ',$,$,$);
#1998=IFCPERSON(' ',' ',' ',$,$,$,$,$);
ENDSEC;
END-ISO-10303-21;
