ISO-10303-21;
HEADER;
/* Generated by software containing ST-Developer
 * from STEP Tools, Inc. (www.steptools.com) 
 */
/* OPTION: strings as raw bytes, not using required /X/ escapes */

FILE_DESCRIPTION(
/* description */ ('Unknown'),
/* implementation_level */ '2;1');

FILE_NAME(
/* name */ 'ClGray_4525904_b)_AVV',
/* time_stamp */ '2025-07-21T23:55:59+02:00',
/* author */ ('Unknown'),
/* organization */ ('Unknown'),
/* preprocessor_version */ 'ST-DEVELOPER v19.4',
/* originating_system */ 'Unknown',
/* authorisation */ 'OpenTools');

FILE_SCHEMA (('IFC2X3'));
ENDSEC;

DATA;
#10=IFCPROPERTYSINGLEVALUE('ProjectName',$,IFCTEXT(''),$);
#11=IFCPROPERTYSINGLEVALUE('PartNumber',$,IFCTEXT(''),$);
#12=IFCRELDEFINESBYPROPERTIES('3cRq1JQpSwDOm5lsE5cG83',#1052,$,$,(#14),
#13);
#13=IFCPROPERTYSET('1jOd4kXgWorA4TVRi95rqH',#1052,
'empty property set name',$,(#10,#11));
#14=IFCBUILDINGELEMENTPROXY('2GP_XOK7Wq1Pa1NGQTVWHM',#1052,
'ClGray_4525904_b)_AVV',' ','ClGray_4525904_b)_AVV',#19,#15,' ',
 .ELEMENT.);
#15=IFCPRODUCTDEFINITIONSHAPE(' ',' ',(#25));
#16=IFCRELCONTAINEDINSPATIALSTRUCTURE('3HZhfx2I0vj9Cvp1GHER_f',#1052,
' ',' ',(#14),#20);
#17=IFCRELAGGREGATES('1jF0XzMGqvEA6wZwPLSawz',#1052,$,$,#843,(#20));
#18=IFCLOCALPLACEMENT($,#846);
#19=IFCLOCALPLACEMENT(#18,#847);
#20=IFCBUILDING('3G2N19bOG__grq1LV0cQPU',#1052,'Default Building',$,$,#18,
$,$,.ELEMENT.,0.,0.,$);
#21=IFCCARTESIANTRANSFORMATIONOPERATOR3D($,$,#1045,1.,$);
#22=IFCMAPPEDITEM(#23,#21);
#23=IFCREPRESENTATIONMAP(#846,#24);
#24=IFCSHAPEREPRESENTATION(#845,'Body','Brep',(#842));
#25=IFCSHAPEREPRESENTATION(#845,'Body','MappedRepresentation',(#22));
#26=IFCPOLYLOOP((#853,#854,#855,#856,#857,#858,#859,#860,#861,#862,#863,
#864,#865,#866,#867,#868));
#27=IFCPOLYLOOP((#856,#869,#870));
#28=IFCPOLYLOOP((#870,#857,#856));
#29=IFCPOLYLOOP((#860,#859,#871));
#30=IFCPOLYLOOP((#871,#872,#860));
#31=IFCPOLYLOOP((#860,#873,#874));
#32=IFCPOLYLOOP((#860,#875,#873));
#33=IFCPOLYLOOP((#864,#863,#876));
#34=IFCPOLYLOOP((#863,#877,#876));
#35=IFCPOLYLOOP((#864,#878,#879));
#36=IFCPOLYLOOP((#879,#865,#864));
#37=IFCPOLYLOOP((#868,#867,#880));
#38=IFCPOLYLOOP((#880,#881,#868));
#39=IFCPOLYLOOP((#868,#882,#883));
#40=IFCPOLYLOOP((#868,#884,#882));
#41=IFCPOLYLOOP((#856,#855,#885));
#42=IFCPOLYLOOP((#855,#886,#885));
#43=IFCPOLYLOOP((#885,#869,#856));
#44=IFCPOLYLOOP((#886,#855,#854,#887));
#45=IFCPOLYLOOP((#887,#854,#853,#883));
#46=IFCPOLYLOOP((#883,#853,#868));
#47=IFCPOLYLOOP((#881,#884,#868));
#48=IFCPOLYLOOP((#880,#867,#866,#888));
#49=IFCPOLYLOOP((#888,#866,#865,#889));
#50=IFCPOLYLOOP((#879,#889,#865));
#51=IFCPOLYLOOP((#876,#878,#864));
#52=IFCPOLYLOOP((#877,#863,#862,#890));
#53=IFCPOLYLOOP((#890,#862,#861,#874));
#54=IFCPOLYLOOP((#874,#861,#860));
#55=IFCPOLYLOOP((#872,#875,#860));
#56=IFCPOLYLOOP((#871,#859,#858,#891));
#57=IFCPOLYLOOP((#891,#858,#857,#892));
#58=IFCPOLYLOOP((#870,#892,#857));
#59=IFCPOLYLOOP((#893,#887,#883));
#60=IFCPOLYLOOP((#893,#894,#885));
#61=IFCPOLYLOOP((#894,#869,#885));
#62=IFCPOLYLOOP((#885,#886,#893));
#63=IFCPOLYLOOP((#886,#887,#893));
#64=IFCPOLYLOOP((#895,#896,#884));
#65=IFCPOLYLOOP((#884,#881,#895));
#66=IFCPOLYLOOP((#896,#893,#882));
#67=IFCPOLYLOOP((#882,#884,#896));
#68=IFCPOLYLOOP((#897,#889,#879));
#69=IFCPOLYLOOP((#879,#898,#897));
#70=IFCPOLYLOOP((#897,#888,#889));
#71=IFCPOLYLOOP((#897,#881,#880));
#72=IFCPOLYLOOP((#880,#888,#897));
#73=IFCPOLYLOOP((#899,#890,#874));
#74=IFCPOLYLOOP((#899,#898,#876));
#75=IFCPOLYLOOP((#898,#878,#876));
#76=IFCPOLYLOOP((#876,#877,#899));
#77=IFCPOLYLOOP((#877,#890,#899));
#78=IFCPOLYLOOP((#900,#901,#875));
#79=IFCPOLYLOOP((#875,#872,#900));
#80=IFCPOLYLOOP((#901,#899,#873));
#81=IFCPOLYLOOP((#873,#875,#901));
#82=IFCPOLYLOOP((#902,#892,#870));
#83=IFCPOLYLOOP((#870,#894,#902));
#84=IFCPOLYLOOP((#902,#891,#892));
#85=IFCPOLYLOOP((#902,#872,#871));
#86=IFCPOLYLOOP((#871,#891,#902));
#87=IFCPOLYLOOP((#903,#904,#905));
#88=IFCPOLYLOOP((#903,#906,#907));
#89=IFCPOLYLOOP((#906,#908,#907));
#90=IFCPOLYLOOP((#907,#909,#903));
#91=IFCPOLYLOOP((#909,#904,#903));
#92=IFCPOLYLOOP((#910,#911,#912));
#93=IFCPOLYLOOP((#913,#914,#911));
#94=IFCPOLYLOOP((#913,#903,#914));
#95=IFCPOLYLOOP((#911,#910,#913));
#96=IFCPOLYLOOP((#915,#916,#917));
#97=IFCPOLYLOOP((#917,#918,#915));
#98=IFCPOLYLOOP((#915,#919,#916));
#99=IFCPOLYLOOP((#915,#912,#920));
#100=IFCPOLYLOOP((#920,#919,#915));
#101=IFCPOLYLOOP((#921,#922,#923));
#102=IFCPOLYLOOP((#921,#918,#924));
#103=IFCPOLYLOOP((#918,#925,#924));
#104=IFCPOLYLOOP((#924,#926,#921));
#105=IFCPOLYLOOP((#926,#922,#921));
#106=IFCPOLYLOOP((#927,#928,#929));
#107=IFCPOLYLOOP((#929,#930,#927));
#108=IFCPOLYLOOP((#928,#921,#931));
#109=IFCPOLYLOOP((#931,#929,#928));
#110=IFCPOLYLOOP((#932,#933,#934));
#111=IFCPOLYLOOP((#934,#906,#932));
#112=IFCPOLYLOOP((#932,#935,#933));
#113=IFCPOLYLOOP((#932,#930,#936));
#114=IFCPOLYLOOP((#936,#935,#932));
#115=IFCPOLYLOOP((#937,#938,#939));
#116=IFCPOLYLOOP((#937,#940,#941));
#117=IFCPOLYLOOP((#940,#942,#941));
#118=IFCPOLYLOOP((#941,#943,#937));
#119=IFCPOLYLOOP((#943,#938,#937));
#120=IFCPOLYLOOP((#901,#944,#945));
#121=IFCPOLYLOOP((#900,#946,#944));
#122=IFCPOLYLOOP((#900,#937,#946));
#123=IFCPOLYLOOP((#944,#901,#900));
#124=IFCPOLYLOOP((#947,#948,#949));
#125=IFCPOLYLOOP((#949,#950,#947));
#126=IFCPOLYLOOP((#947,#951,#948));
#127=IFCPOLYLOOP((#947,#945,#952));
#128=IFCPOLYLOOP((#952,#951,#947));
#129=IFCPOLYLOOP((#953,#954,#955));
#130=IFCPOLYLOOP((#953,#950,#956));
#131=IFCPOLYLOOP((#950,#957,#956));
#132=IFCPOLYLOOP((#956,#958,#953));
#133=IFCPOLYLOOP((#958,#954,#953));
#134=IFCPOLYLOOP((#913,#910,#959));
#135=IFCPOLYLOOP((#959,#960,#913));
#136=IFCPOLYLOOP((#910,#953,#961));
#137=IFCPOLYLOOP((#961,#959,#910));
#138=IFCPOLYLOOP((#962,#963,#964));
#139=IFCPOLYLOOP((#964,#940,#962));
#140=IFCPOLYLOOP((#962,#965,#963));
#141=IFCPOLYLOOP((#962,#960,#966));
#142=IFCPOLYLOOP((#966,#965,#962));
#143=IFCPOLYLOOP((#967,#968,#969));
#144=IFCPOLYLOOP((#967,#970,#971));
#145=IFCPOLYLOOP((#970,#972,#971));
#146=IFCPOLYLOOP((#971,#973,#967));
#147=IFCPOLYLOOP((#973,#968,#967));
#148=IFCPOLYLOOP((#928,#974,#975));
#149=IFCPOLYLOOP((#927,#976,#974));
#150=IFCPOLYLOOP((#927,#967,#976));
#151=IFCPOLYLOOP((#974,#928,#927));
#152=IFCPOLYLOOP((#977,#978,#979));
#153=IFCPOLYLOOP((#979,#980,#977));
#154=IFCPOLYLOOP((#977,#981,#978));
#155=IFCPOLYLOOP((#977,#975,#982));
#156=IFCPOLYLOOP((#982,#981,#977));
#157=IFCPOLYLOOP((#983,#984,#985));
#158=IFCPOLYLOOP((#983,#980,#986));
#159=IFCPOLYLOOP((#980,#987,#986));
#160=IFCPOLYLOOP((#986,#988,#983));
#161=IFCPOLYLOOP((#988,#984,#983));
#162=IFCPOLYLOOP((#896,#895,#989));
#163=IFCPOLYLOOP((#989,#990,#896));
#164=IFCPOLYLOOP((#895,#983,#991));
#165=IFCPOLYLOOP((#991,#989,#895));
#166=IFCPOLYLOOP((#992,#993,#994));
#167=IFCPOLYLOOP((#994,#970,#992));
#168=IFCPOLYLOOP((#992,#995,#993));
#169=IFCPOLYLOOP((#992,#990,#996));
#170=IFCPOLYLOOP((#996,#995,#992));
#171=IFCPOLYLOOP((#994,#972,#970));
#172=IFCPOLYLOOP((#990,#992,#896));
#173=IFCPOLYLOOP((#985,#991,#983));
#174=IFCPOLYLOOP((#979,#987,#980));
#175=IFCPOLYLOOP((#975,#977,#928));
#176=IFCPOLYLOOP((#969,#976,#967));
#177=IFCPOLYLOOP((#964,#942,#940));
#178=IFCPOLYLOOP((#960,#962,#913));
#179=IFCPOLYLOOP((#955,#961,#953));
#180=IFCPOLYLOOP((#949,#957,#950));
#181=IFCPOLYLOOP((#945,#947,#901));
#182=IFCPOLYLOOP((#939,#946,#937));
#183=IFCPOLYLOOP((#934,#908,#906));
#184=IFCPOLYLOOP((#930,#932,#927));
#185=IFCPOLYLOOP((#923,#931,#921));
#186=IFCPOLYLOOP((#917,#925,#918));
#187=IFCPOLYLOOP((#912,#915,#910));
#188=IFCPOLYLOOP((#905,#914,#903));
#189=IFCPOLYLOOP((#870,#869,#894));
#190=IFCPOLYLOOP((#872,#902,#900));
#191=IFCPOLYLOOP((#874,#873,#899));
#192=IFCPOLYLOOP((#879,#878,#898));
#193=IFCPOLYLOOP((#881,#897,#895));
#194=IFCPOLYLOOP((#883,#882,#893));
#195=IFCPOLYLOOP((#983,#895,#897,#898,#899,#901,#947,#950,#953,#910,#915,
#918,#921,#928,#977,#980));
#196=IFCPOLYLOOP((#967,#927,#932,#906,#903,#913,#962,#940,#937,#900,#902,
#894,#893,#896,#992,#970));
#197=IFCPOLYLOOP((#997,#908,#934));
#198=IFCPOLYLOOP((#934,#998,#997));
#199=IFCPOLYLOOP((#999,#1000,#936));
#200=IFCPOLYLOOP((#936,#930,#999));
#201=IFCPOLYLOOP((#999,#931,#923));
#202=IFCPOLYLOOP((#999,#929,#931));
#203=IFCPOLYLOOP((#1001,#1002,#924));
#204=IFCPOLYLOOP((#1002,#926,#924));
#205=IFCPOLYLOOP((#1001,#925,#917));
#206=IFCPOLYLOOP((#917,#1003,#1001));
#207=IFCPOLYLOOP((#1004,#1005,#920));
#208=IFCPOLYLOOP((#920,#912,#1004));
#209=IFCPOLYLOOP((#1004,#914,#905));
#210=IFCPOLYLOOP((#1004,#911,#914));
#211=IFCPOLYLOOP((#997,#1006,#907));
#212=IFCPOLYLOOP((#1006,#909,#907));
#213=IFCPOLYLOOP((#907,#908,#997));
#214=IFCPOLYLOOP((#909,#1006,#1007,#904));
#215=IFCPOLYLOOP((#904,#1007,#1008,#905));
#216=IFCPOLYLOOP((#905,#1008,#1004));
#217=IFCPOLYLOOP((#912,#911,#1004));
#218=IFCPOLYLOOP((#920,#1005,#1009,#919));
#219=IFCPOLYLOOP((#919,#1009,#1003,#916));
#220=IFCPOLYLOOP((#917,#916,#1003));
#221=IFCPOLYLOOP((#924,#925,#1001));
#222=IFCPOLYLOOP((#926,#1002,#1010,#922));
#223=IFCPOLYLOOP((#922,#1010,#1011,#923));
#224=IFCPOLYLOOP((#923,#1011,#999));
#225=IFCPOLYLOOP((#930,#929,#999));
#226=IFCPOLYLOOP((#936,#1000,#1012,#935));
#227=IFCPOLYLOOP((#935,#1012,#998,#933));
#228=IFCPOLYLOOP((#934,#933,#998));
#229=IFCPOLYLOOP((#1011,#1010,#1002,#1001,#1003,#1009,#1005,#1004,#1008,
#1007,#1006,#997,#998,#1012,#1000,#999));
#230=IFCPOLYLOOP((#1013,#942,#964));
#231=IFCPOLYLOOP((#964,#1014,#1013));
#232=IFCPOLYLOOP((#1015,#1016,#966));
#233=IFCPOLYLOOP((#966,#960,#1015));
#234=IFCPOLYLOOP((#1015,#961,#955));
#235=IFCPOLYLOOP((#1015,#959,#961));
#236=IFCPOLYLOOP((#1017,#1018,#956));
#237=IFCPOLYLOOP((#1018,#958,#956));
#238=IFCPOLYLOOP((#1017,#957,#949));
#239=IFCPOLYLOOP((#949,#1019,#1017));
#240=IFCPOLYLOOP((#1020,#1021,#952));
#241=IFCPOLYLOOP((#952,#945,#1020));
#242=IFCPOLYLOOP((#1020,#946,#939));
#243=IFCPOLYLOOP((#1020,#944,#946));
#244=IFCPOLYLOOP((#1013,#1022,#941));
#245=IFCPOLYLOOP((#1022,#943,#941));
#246=IFCPOLYLOOP((#941,#942,#1013));
#247=IFCPOLYLOOP((#943,#1022,#1023,#938));
#248=IFCPOLYLOOP((#938,#1023,#1024,#939));
#249=IFCPOLYLOOP((#939,#1024,#1020));
#250=IFCPOLYLOOP((#945,#944,#1020));
#251=IFCPOLYLOOP((#952,#1021,#1025,#951));
#252=IFCPOLYLOOP((#951,#1025,#1019,#948));
#253=IFCPOLYLOOP((#949,#948,#1019));
#254=IFCPOLYLOOP((#956,#957,#1017));
#255=IFCPOLYLOOP((#958,#1018,#1026,#954));
#256=IFCPOLYLOOP((#954,#1026,#1027,#955));
#257=IFCPOLYLOOP((#955,#1027,#1015));
#258=IFCPOLYLOOP((#960,#959,#1015));
#259=IFCPOLYLOOP((#966,#1016,#1028,#965));
#260=IFCPOLYLOOP((#965,#1028,#1014,#963));
#261=IFCPOLYLOOP((#964,#963,#1014));
#262=IFCPOLYLOOP((#1027,#1026,#1018,#1017,#1019,#1025,#1021,#1020,#1024,
#1023,#1022,#1013,#1014,#1028,#1016,#1015));
#263=IFCPOLYLOOP((#1029,#972,#994));
#264=IFCPOLYLOOP((#994,#1030,#1029));
#265=IFCPOLYLOOP((#1031,#1032,#996));
#266=IFCPOLYLOOP((#996,#990,#1031));
#267=IFCPOLYLOOP((#1031,#991,#985));
#268=IFCPOLYLOOP((#1031,#989,#991));
#269=IFCPOLYLOOP((#1033,#1034,#986));
#270=IFCPOLYLOOP((#1034,#988,#986));
#271=IFCPOLYLOOP((#1033,#987,#979));
#272=IFCPOLYLOOP((#979,#1035,#1033));
#273=IFCPOLYLOOP((#1036,#1037,#982));
#274=IFCPOLYLOOP((#982,#975,#1036));
#275=IFCPOLYLOOP((#1036,#976,#969));
#276=IFCPOLYLOOP((#1036,#974,#976));
#277=IFCPOLYLOOP((#1029,#1038,#971));
#278=IFCPOLYLOOP((#1038,#973,#971));
#279=IFCPOLYLOOP((#971,#972,#1029));
#280=IFCPOLYLOOP((#973,#1038,#1039,#968));
#281=IFCPOLYLOOP((#968,#1039,#1040,#969));
#282=IFCPOLYLOOP((#969,#1040,#1036));
#283=IFCPOLYLOOP((#975,#974,#1036));
#284=IFCPOLYLOOP((#982,#1037,#1041,#981));
#285=IFCPOLYLOOP((#981,#1041,#1035,#978));
#286=IFCPOLYLOOP((#979,#978,#1035));
#287=IFCPOLYLOOP((#986,#987,#1033));
#288=IFCPOLYLOOP((#988,#1034,#1042,#984));
#289=IFCPOLYLOOP((#984,#1042,#1043,#985));
#290=IFCPOLYLOOP((#985,#1043,#1031));
#291=IFCPOLYLOOP((#990,#989,#1031));
#292=IFCPOLYLOOP((#996,#1032,#1044,#995));
#293=IFCPOLYLOOP((#995,#1044,#1030,#993));
#294=IFCPOLYLOOP((#994,#993,#1030));
#295=IFCPOLYLOOP((#1040,#1039,#1038,#1029,#1030,#1044,#1032,#1031,#1043,
#1042,#1034,#1033,#1035,#1041,#1037,#1036));
#296=IFCFACEOUTERBOUND(#26,.T.);
#297=IFCFACEOUTERBOUND(#27,.T.);
#298=IFCFACEOUTERBOUND(#28,.T.);
#299=IFCFACEOUTERBOUND(#29,.T.);
#300=IFCFACEOUTERBOUND(#30,.T.);
#301=IFCFACEOUTERBOUND(#31,.T.);
#302=IFCFACEOUTERBOUND(#32,.T.);
#303=IFCFACEOUTERBOUND(#33,.T.);
#304=IFCFACEOUTERBOUND(#34,.T.);
#305=IFCFACEOUTERBOUND(#35,.T.);
#306=IFCFACEOUTERBOUND(#36,.T.);
#307=IFCFACEOUTERBOUND(#37,.T.);
#308=IFCFACEOUTERBOUND(#38,.T.);
#309=IFCFACEOUTERBOUND(#39,.T.);
#310=IFCFACEOUTERBOUND(#40,.T.);
#311=IFCFACEOUTERBOUND(#41,.T.);
#312=IFCFACEOUTERBOUND(#42,.T.);
#313=IFCFACEOUTERBOUND(#43,.T.);
#314=IFCFACEOUTERBOUND(#44,.T.);
#315=IFCFACEOUTERBOUND(#45,.T.);
#316=IFCFACEOUTERBOUND(#46,.T.);
#317=IFCFACEOUTERBOUND(#47,.T.);
#318=IFCFACEOUTERBOUND(#48,.T.);
#319=IFCFACEOUTERBOUND(#49,.T.);
#320=IFCFACEOUTERBOUND(#50,.T.);
#321=IFCFACEOUTERBOUND(#51,.T.);
#322=IFCFACEOUTERBOUND(#52,.T.);
#323=IFCFACEOUTERBOUND(#53,.T.);
#324=IFCFACEOUTERBOUND(#54,.T.);
#325=IFCFACEOUTERBOUND(#55,.T.);
#326=IFCFACEOUTERBOUND(#56,.T.);
#327=IFCFACEOUTERBOUND(#57,.T.);
#328=IFCFACEOUTERBOUND(#58,.T.);
#329=IFCFACEOUTERBOUND(#59,.T.);
#330=IFCFACEOUTERBOUND(#60,.T.);
#331=IFCFACEOUTERBOUND(#61,.T.);
#332=IFCFACEOUTERBOUND(#62,.T.);
#333=IFCFACEOUTERBOUND(#63,.T.);
#334=IFCFACEOUTERBOUND(#64,.T.);
#335=IFCFACEOUTERBOUND(#65,.T.);
#336=IFCFACEOUTERBOUND(#66,.T.);
#337=IFCFACEOUTERBOUND(#67,.T.);
#338=IFCFACEOUTERBOUND(#68,.T.);
#339=IFCFACEOUTERBOUND(#69,.T.);
#340=IFCFACEOUTERBOUND(#70,.T.);
#341=IFCFACEOUTERBOUND(#71,.T.);
#342=IFCFACEOUTERBOUND(#72,.T.);
#343=IFCFACEOUTERBOUND(#73,.T.);
#344=IFCFACEOUTERBOUND(#74,.T.);
#345=IFCFACEOUTERBOUND(#75,.T.);
#346=IFCFACEOUTERBOUND(#76,.T.);
#347=IFCFACEOUTERBOUND(#77,.T.);
#348=IFCFACEOUTERBOUND(#78,.T.);
#349=IFCFACEOUTERBOUND(#79,.T.);
#350=IFCFACEOUTERBOUND(#80,.T.);
#351=IFCFACEOUTERBOUND(#81,.T.);
#352=IFCFACEOUTERBOUND(#82,.T.);
#353=IFCFACEOUTERBOUND(#83,.T.);
#354=IFCFACEOUTERBOUND(#84,.T.);
#355=IFCFACEOUTERBOUND(#85,.T.);
#356=IFCFACEOUTERBOUND(#86,.T.);
#357=IFCFACEOUTERBOUND(#87,.T.);
#358=IFCFACEOUTERBOUND(#88,.T.);
#359=IFCFACEOUTERBOUND(#89,.T.);
#360=IFCFACEOUTERBOUND(#90,.T.);
#361=IFCFACEOUTERBOUND(#91,.T.);
#362=IFCFACEOUTERBOUND(#92,.T.);
#363=IFCFACEOUTERBOUND(#93,.T.);
#364=IFCFACEOUTERBOUND(#94,.T.);
#365=IFCFACEOUTERBOUND(#95,.T.);
#366=IFCFACEOUTERBOUND(#96,.T.);
#367=IFCFACEOUTERBOUND(#97,.T.);
#368=IFCFACEOUTERBOUND(#98,.T.);
#369=IFCFACEOUTERBOUND(#99,.T.);
#370=IFCFACEOUTERBOUND(#100,.T.);
#371=IFCFACEOUTERBOUND(#101,.T.);
#372=IFCFACEOUTERBOUND(#102,.T.);
#373=IFCFACEOUTERBOUND(#103,.T.);
#374=IFCFACEOUTERBOUND(#104,.T.);
#375=IFCFACEOUTERBOUND(#105,.T.);
#376=IFCFACEOUTERBOUND(#106,.T.);
#377=IFCFACEOUTERBOUND(#107,.T.);
#378=IFCFACEOUTERBOUND(#108,.T.);
#379=IFCFACEOUTERBOUND(#109,.T.);
#380=IFCFACEOUTERBOUND(#110,.T.);
#381=IFCFACEOUTERBOUND(#111,.T.);
#382=IFCFACEOUTERBOUND(#112,.T.);
#383=IFCFACEOUTERBOUND(#113,.T.);
#384=IFCFACEOUTERBOUND(#114,.T.);
#385=IFCFACEOUTERBOUND(#115,.T.);
#386=IFCFACEOUTERBOUND(#116,.T.);
#387=IFCFACEOUTERBOUND(#117,.T.);
#388=IFCFACEOUTERBOUND(#118,.T.);
#389=IFCFACEOUTERBOUND(#119,.T.);
#390=IFCFACEOUTERBOUND(#120,.T.);
#391=IFCFACEOUTERBOUND(#121,.T.);
#392=IFCFACEOUTERBOUND(#122,.T.);
#393=IFCFACEOUTERBOUND(#123,.T.);
#394=IFCFACEOUTERBOUND(#124,.T.);
#395=IFCFACEOUTERBOUND(#125,.T.);
#396=IFCFACEOUTERBOUND(#126,.T.);
#397=IFCFACEOUTERBOUND(#127,.T.);
#398=IFCFACEOUTERBOUND(#128,.T.);
#399=IFCFACEOUTERBOUND(#129,.T.);
#400=IFCFACEOUTERBOUND(#130,.T.);
#401=IFCFACEOUTERBOUND(#131,.T.);
#402=IFCFACEOUTERBOUND(#132,.T.);
#403=IFCFACEOUTERBOUND(#133,.T.);
#404=IFCFACEOUTERBOUND(#134,.T.);
#405=IFCFACEOUTERBOUND(#135,.T.);
#406=IFCFACEOUTERBOUND(#136,.T.);
#407=IFCFACEOUTERBOUND(#137,.T.);
#408=IFCFACEOUTERBOUND(#138,.T.);
#409=IFCFACEOUTERBOUND(#139,.T.);
#410=IFCFACEOUTERBOUND(#140,.T.);
#411=IFCFACEOUTERBOUND(#141,.T.);
#412=IFCFACEOUTERBOUND(#142,.T.);
#413=IFCFACEOUTERBOUND(#143,.T.);
#414=IFCFACEOUTERBOUND(#144,.T.);
#415=IFCFACEOUTERBOUND(#145,.T.);
#416=IFCFACEOUTERBOUND(#146,.T.);
#417=IFCFACEOUTERBOUND(#147,.T.);
#418=IFCFACEOUTERBOUND(#148,.T.);
#419=IFCFACEOUTERBOUND(#149,.T.);
#420=IFCFACEOUTERBOUND(#150,.T.);
#421=IFCFACEOUTERBOUND(#151,.T.);
#422=IFCFACEOUTERBOUND(#152,.T.);
#423=IFCFACEOUTERBOUND(#153,.T.);
#424=IFCFACEOUTERBOUND(#154,.T.);
#425=IFCFACEOUTERBOUND(#155,.T.);
#426=IFCFACEOUTERBOUND(#156,.T.);
#427=IFCFACEOUTERBOUND(#157,.T.);
#428=IFCFACEOUTERBOUND(#158,.T.);
#429=IFCFACEOUTERBOUND(#159,.T.);
#430=IFCFACEOUTERBOUND(#160,.T.);
#431=IFCFACEOUTERBOUND(#161,.T.);
#432=IFCFACEOUTERBOUND(#162,.T.);
#433=IFCFACEOUTERBOUND(#163,.T.);
#434=IFCFACEOUTERBOUND(#164,.T.);
#435=IFCFACEOUTERBOUND(#165,.T.);
#436=IFCFACEOUTERBOUND(#166,.T.);
#437=IFCFACEOUTERBOUND(#167,.T.);
#438=IFCFACEOUTERBOUND(#168,.T.);
#439=IFCFACEOUTERBOUND(#169,.T.);
#440=IFCFACEOUTERBOUND(#170,.T.);
#441=IFCFACEOUTERBOUND(#171,.T.);
#442=IFCFACEOUTERBOUND(#172,.T.);
#443=IFCFACEOUTERBOUND(#173,.T.);
#444=IFCFACEOUTERBOUND(#174,.T.);
#445=IFCFACEOUTERBOUND(#175,.T.);
#446=IFCFACEOUTERBOUND(#176,.T.);
#447=IFCFACEOUTERBOUND(#177,.T.);
#448=IFCFACEOUTERBOUND(#178,.T.);
#449=IFCFACEOUTERBOUND(#179,.T.);
#450=IFCFACEOUTERBOUND(#180,.T.);
#451=IFCFACEOUTERBOUND(#181,.T.);
#452=IFCFACEOUTERBOUND(#182,.T.);
#453=IFCFACEOUTERBOUND(#183,.T.);
#454=IFCFACEOUTERBOUND(#184,.T.);
#455=IFCFACEOUTERBOUND(#185,.T.);
#456=IFCFACEOUTERBOUND(#186,.T.);
#457=IFCFACEOUTERBOUND(#187,.T.);
#458=IFCFACEOUTERBOUND(#188,.T.);
#459=IFCFACEOUTERBOUND(#189,.T.);
#460=IFCFACEOUTERBOUND(#190,.T.);
#461=IFCFACEOUTERBOUND(#191,.T.);
#462=IFCFACEOUTERBOUND(#192,.T.);
#463=IFCFACEOUTERBOUND(#193,.T.);
#464=IFCFACEOUTERBOUND(#194,.T.);
#465=IFCFACEOUTERBOUND(#195,.T.);
#466=IFCFACEOUTERBOUND(#196,.T.);
#467=IFCFACEOUTERBOUND(#197,.T.);
#468=IFCFACEOUTERBOUND(#198,.T.);
#469=IFCFACEOUTERBOUND(#199,.T.);
#470=IFCFACEOUTERBOUND(#200,.T.);
#471=IFCFACEOUTERBOUND(#201,.T.);
#472=IFCFACEOUTERBOUND(#202,.T.);
#473=IFCFACEOUTERBOUND(#203,.T.);
#474=IFCFACEOUTERBOUND(#204,.T.);
#475=IFCFACEOUTERBOUND(#205,.T.);
#476=IFCFACEOUTERBOUND(#206,.T.);
#477=IFCFACEOUTERBOUND(#207,.T.);
#478=IFCFACEOUTERBOUND(#208,.T.);
#479=IFCFACEOUTERBOUND(#209,.T.);
#480=IFCFACEOUTERBOUND(#210,.T.);
#481=IFCFACEOUTERBOUND(#211,.T.);
#482=IFCFACEOUTERBOUND(#212,.T.);
#483=IFCFACEOUTERBOUND(#213,.T.);
#484=IFCFACEOUTERBOUND(#214,.T.);
#485=IFCFACEOUTERBOUND(#215,.T.);
#486=IFCFACEOUTERBOUND(#216,.T.);
#487=IFCFACEOUTERBOUND(#217,.T.);
#488=IFCFACEOUTERBOUND(#218,.T.);
#489=IFCFACEOUTERBOUND(#219,.T.);
#490=IFCFACEOUTERBOUND(#220,.T.);
#491=IFCFACEOUTERBOUND(#221,.T.);
#492=IFCFACEOUTERBOUND(#222,.T.);
#493=IFCFACEOUTERBOUND(#223,.T.);
#494=IFCFACEOUTERBOUND(#224,.T.);
#495=IFCFACEOUTERBOUND(#225,.T.);
#496=IFCFACEOUTERBOUND(#226,.T.);
#497=IFCFACEOUTERBOUND(#227,.T.);
#498=IFCFACEOUTERBOUND(#228,.T.);
#499=IFCFACEOUTERBOUND(#229,.T.);
#500=IFCFACEOUTERBOUND(#230,.T.);
#501=IFCFACEOUTERBOUND(#231,.T.);
#502=IFCFACEOUTERBOUND(#232,.T.);
#503=IFCFACEOUTERBOUND(#233,.T.);
#504=IFCFACEOUTERBOUND(#234,.T.);
#505=IFCFACEOUTERBOUND(#235,.T.);
#506=IFCFACEOUTERBOUND(#236,.T.);
#507=IFCFACEOUTERBOUND(#237,.T.);
#508=IFCFACEOUTERBOUND(#238,.T.);
#509=IFCFACEOUTERBOUND(#239,.T.);
#510=IFCFACEOUTERBOUND(#240,.T.);
#511=IFCFACEOUTERBOUND(#241,.T.);
#512=IFCFACEOUTERBOUND(#242,.T.);
#513=IFCFACEOUTERBOUND(#243,.T.);
#514=IFCFACEOUTERBOUND(#244,.T.);
#515=IFCFACEOUTERBOUND(#245,.T.);
#516=IFCFACEOUTERBOUND(#246,.T.);
#517=IFCFACEOUTERBOUND(#247,.T.);
#518=IFCFACEOUTERBOUND(#248,.T.);
#519=IFCFACEOUTERBOUND(#249,.T.);
#520=IFCFACEOUTERBOUND(#250,.T.);
#521=IFCFACEOUTERBOUND(#251,.T.);
#522=IFCFACEOUTERBOUND(#252,.T.);
#523=IFCFACEOUTERBOUND(#253,.T.);
#524=IFCFACEOUTERBOUND(#254,.T.);
#525=IFCFACEOUTERBOUND(#255,.T.);
#526=IFCFACEOUTERBOUND(#256,.T.);
#527=IFCFACEOUTERBOUND(#257,.T.);
#528=IFCFACEOUTERBOUND(#258,.T.);
#529=IFCFACEOUTERBOUND(#259,.T.);
#530=IFCFACEOUTERBOUND(#260,.T.);
#531=IFCFACEOUTERBOUND(#261,.T.);
#532=IFCFACEOUTERBOUND(#262,.T.);
#533=IFCFACEOUTERBOUND(#263,.T.);
#534=IFCFACEOUTERBOUND(#264,.T.);
#535=IFCFACEOUTERBOUND(#265,.T.);
#536=IFCFACEOUTERBOUND(#266,.T.);
#537=IFCFACEOUTERBOUND(#267,.T.);
#538=IFCFACEOUTERBOUND(#268,.T.);
#539=IFCFACEOUTERBOUND(#269,.T.);
#540=IFCFACEOUTERBOUND(#270,.T.);
#541=IFCFACEOUTERBOUND(#271,.T.);
#542=IFCFACEOUTERBOUND(#272,.T.);
#543=IFCFACEOUTERBOUND(#273,.T.);
#544=IFCFACEOUTERBOUND(#274,.T.);
#545=IFCFACEOUTERBOUND(#275,.T.);
#546=IFCFACEOUTERBOUND(#276,.T.);
#547=IFCFACEOUTERBOUND(#277,.T.);
#548=IFCFACEOUTERBOUND(#278,.T.);
#549=IFCFACEOUTERBOUND(#279,.T.);
#550=IFCFACEOUTERBOUND(#280,.T.);
#551=IFCFACEOUTERBOUND(#281,.T.);
#552=IFCFACEOUTERBOUND(#282,.T.);
#553=IFCFACEOUTERBOUND(#283,.T.);
#554=IFCFACEOUTERBOUND(#284,.T.);
#555=IFCFACEOUTERBOUND(#285,.T.);
#556=IFCFACEOUTERBOUND(#286,.T.);
#557=IFCFACEOUTERBOUND(#287,.T.);
#558=IFCFACEOUTERBOUND(#288,.T.);
#559=IFCFACEOUTERBOUND(#289,.T.);
#560=IFCFACEOUTERBOUND(#290,.T.);
#561=IFCFACEOUTERBOUND(#291,.T.);
#562=IFCFACEOUTERBOUND(#292,.T.);
#563=IFCFACEOUTERBOUND(#293,.T.);
#564=IFCFACEOUTERBOUND(#294,.T.);
#565=IFCFACEOUTERBOUND(#295,.T.);
#566=IFCFACE((#296));
#567=IFCFACE((#297));
#568=IFCFACE((#298));
#569=IFCFACE((#299));
#570=IFCFACE((#300));
#571=IFCFACE((#301));
#572=IFCFACE((#302));
#573=IFCFACE((#303));
#574=IFCFACE((#304));
#575=IFCFACE((#305));
#576=IFCFACE((#306));
#577=IFCFACE((#307));
#578=IFCFACE((#308));
#579=IFCFACE((#309));
#580=IFCFACE((#310));
#581=IFCFACE((#311));
#582=IFCFACE((#312));
#583=IFCFACE((#313));
#584=IFCFACE((#314));
#585=IFCFACE((#315));
#586=IFCFACE((#316));
#587=IFCFACE((#317));
#588=IFCFACE((#318));
#589=IFCFACE((#319));
#590=IFCFACE((#320));
#591=IFCFACE((#321));
#592=IFCFACE((#322));
#593=IFCFACE((#323));
#594=IFCFACE((#324));
#595=IFCFACE((#325));
#596=IFCFACE((#326));
#597=IFCFACE((#327));
#598=IFCFACE((#328));
#599=IFCFACE((#329));
#600=IFCFACE((#330));
#601=IFCFACE((#331));
#602=IFCFACE((#332));
#603=IFCFACE((#333));
#604=IFCFACE((#334));
#605=IFCFACE((#335));
#606=IFCFACE((#336));
#607=IFCFACE((#337));
#608=IFCFACE((#338));
#609=IFCFACE((#339));
#610=IFCFACE((#340));
#611=IFCFACE((#341));
#612=IFCFACE((#342));
#613=IFCFACE((#343));
#614=IFCFACE((#344));
#615=IFCFACE((#345));
#616=IFCFACE((#346));
#617=IFCFACE((#347));
#618=IFCFACE((#348));
#619=IFCFACE((#349));
#620=IFCFACE((#350));
#621=IFCFACE((#351));
#622=IFCFACE((#352));
#623=IFCFACE((#353));
#624=IFCFACE((#354));
#625=IFCFACE((#355));
#626=IFCFACE((#356));
#627=IFCFACE((#357));
#628=IFCFACE((#358));
#629=IFCFACE((#359));
#630=IFCFACE((#360));
#631=IFCFACE((#361));
#632=IFCFACE((#362));
#633=IFCFACE((#363));
#634=IFCFACE((#364));
#635=IFCFACE((#365));
#636=IFCFACE((#366));
#637=IFCFACE((#367));
#638=IFCFACE((#368));
#639=IFCFACE((#369));
#640=IFCFACE((#370));
#641=IFCFACE((#371));
#642=IFCFACE((#372));
#643=IFCFACE((#373));
#644=IFCFACE((#374));
#645=IFCFACE((#375));
#646=IFCFACE((#376));
#647=IFCFACE((#377));
#648=IFCFACE((#378));
#649=IFCFACE((#379));
#650=IFCFACE((#380));
#651=IFCFACE((#381));
#652=IFCFACE((#382));
#653=IFCFACE((#383));
#654=IFCFACE((#384));
#655=IFCFACE((#385));
#656=IFCFACE((#386));
#657=IFCFACE((#387));
#658=IFCFACE((#388));
#659=IFCFACE((#389));
#660=IFCFACE((#390));
#661=IFCFACE((#391));
#662=IFCFACE((#392));
#663=IFCFACE((#393));
#664=IFCFACE((#394));
#665=IFCFACE((#395));
#666=IFCFACE((#396));
#667=IFCFACE((#397));
#668=IFCFACE((#398));
#669=IFCFACE((#399));
#670=IFCFACE((#400));
#671=IFCFACE((#401));
#672=IFCFACE((#402));
#673=IFCFACE((#403));
#674=IFCFACE((#404));
#675=IFCFACE((#405));
#676=IFCFACE((#406));
#677=IFCFACE((#407));
#678=IFCFACE((#408));
#679=IFCFACE((#409));
#680=IFCFACE((#410));
#681=IFCFACE((#411));
#682=IFCFACE((#412));
#683=IFCFACE((#413));
#684=IFCFACE((#414));
#685=IFCFACE((#415));
#686=IFCFACE((#416));
#687=IFCFACE((#417));
#688=IFCFACE((#418));
#689=IFCFACE((#419));
#690=IFCFACE((#420));
#691=IFCFACE((#421));
#692=IFCFACE((#422));
#693=IFCFACE((#423));
#694=IFCFACE((#424));
#695=IFCFACE((#425));
#696=IFCFACE((#426));
#697=IFCFACE((#427));
#698=IFCFACE((#428));
#699=IFCFACE((#429));
#700=IFCFACE((#430));
#701=IFCFACE((#431));
#702=IFCFACE((#432));
#703=IFCFACE((#433));
#704=IFCFACE((#434));
#705=IFCFACE((#435));
#706=IFCFACE((#436));
#707=IFCFACE((#437));
#708=IFCFACE((#438));
#709=IFCFACE((#439));
#710=IFCFACE((#440));
#711=IFCFACE((#441));
#712=IFCFACE((#442));
#713=IFCFACE((#443));
#714=IFCFACE((#444));
#715=IFCFACE((#445));
#716=IFCFACE((#446));
#717=IFCFACE((#447));
#718=IFCFACE((#448));
#719=IFCFACE((#449));
#720=IFCFACE((#450));
#721=IFCFACE((#451));
#722=IFCFACE((#452));
#723=IFCFACE((#453));
#724=IFCFACE((#454));
#725=IFCFACE((#455));
#726=IFCFACE((#456));
#727=IFCFACE((#457));
#728=IFCFACE((#458));
#729=IFCFACE((#459));
#730=IFCFACE((#460));
#731=IFCFACE((#461));
#732=IFCFACE((#462));
#733=IFCFACE((#463));
#734=IFCFACE((#464));
#735=IFCFACE((#465));
#736=IFCFACE((#466));
#737=IFCFACE((#467));
#738=IFCFACE((#468));
#739=IFCFACE((#469));
#740=IFCFACE((#470));
#741=IFCFACE((#471));
#742=IFCFACE((#472));
#743=IFCFACE((#473));
#744=IFCFACE((#474));
#745=IFCFACE((#475));
#746=IFCFACE((#476));
#747=IFCFACE((#477));
#748=IFCFACE((#478));
#749=IFCFACE((#479));
#750=IFCFACE((#480));
#751=IFCFACE((#481));
#752=IFCFACE((#482));
#753=IFCFACE((#483));
#754=IFCFACE((#484));
#755=IFCFACE((#485));
#756=IFCFACE((#486));
#757=IFCFACE((#487));
#758=IFCFACE((#488));
#759=IFCFACE((#489));
#760=IFCFACE((#490));
#761=IFCFACE((#491));
#762=IFCFACE((#492));
#763=IFCFACE((#493));
#764=IFCFACE((#494));
#765=IFCFACE((#495));
#766=IFCFACE((#496));
#767=IFCFACE((#497));
#768=IFCFACE((#498));
#769=IFCFACE((#499));
#770=IFCFACE((#500));
#771=IFCFACE((#501));
#772=IFCFACE((#502));
#773=IFCFACE((#503));
#774=IFCFACE((#504));
#775=IFCFACE((#505));
#776=IFCFACE((#506));
#777=IFCFACE((#507));
#778=IFCFACE((#508));
#779=IFCFACE((#509));
#780=IFCFACE((#510));
#781=IFCFACE((#511));
#782=IFCFACE((#512));
#783=IFCFACE((#513));
#784=IFCFACE((#514));
#785=IFCFACE((#515));
#786=IFCFACE((#516));
#787=IFCFACE((#517));
#788=IFCFACE((#518));
#789=IFCFACE((#519));
#790=IFCFACE((#520));
#791=IFCFACE((#521));
#792=IFCFACE((#522));
#793=IFCFACE((#523));
#794=IFCFACE((#524));
#795=IFCFACE((#525));
#796=IFCFACE((#526));
#797=IFCFACE((#527));
#798=IFCFACE((#528));
#799=IFCFACE((#529));
#800=IFCFACE((#530));
#801=IFCFACE((#531));
#802=IFCFACE((#532));
#803=IFCFACE((#533));
#804=IFCFACE((#534));
#805=IFCFACE((#535));
#806=IFCFACE((#536));
#807=IFCFACE((#537));
#808=IFCFACE((#538));
#809=IFCFACE((#539));
#810=IFCFACE((#540));
#811=IFCFACE((#541));
#812=IFCFACE((#542));
#813=IFCFACE((#543));
#814=IFCFACE((#544));
#815=IFCFACE((#545));
#816=IFCFACE((#546));
#817=IFCFACE((#547));
#818=IFCFACE((#548));
#819=IFCFACE((#549));
#820=IFCFACE((#550));
#821=IFCFACE((#551));
#822=IFCFACE((#552));
#823=IFCFACE((#553));
#824=IFCFACE((#554));
#825=IFCFACE((#555));
#826=IFCFACE((#556));
#827=IFCFACE((#557));
#828=IFCFACE((#558));
#829=IFCFACE((#559));
#830=IFCFACE((#560));
#831=IFCFACE((#561));
#832=IFCFACE((#562));
#833=IFCFACE((#563));
#834=IFCFACE((#564));
#835=IFCFACE((#565));
#836=IFCCLOSEDSHELL((#566,#567,#568,#569,#570,#571,#572,#573,#574,#575,
#576,#577,#578,#579,#580,#581,#582,#583,#584,#585,#586,#587,#588,#589,#590,
#591,#592,#593,#594,#595,#596,#597,#598,#599,#600,#601,#602,#603,#604,#605,
#606,#607,#608,#609,#610,#611,#612,#613,#614,#615,#616,#617,#618,#619,#620,
#621,#622,#623,#624,#625,#626,#627,#628,#629,#630,#631,#632,#633,#634,#635,
#636,#637,#638,#639,#640,#641,#642,#643,#644,#645,#646,#647,#648,#649,#650,
#651,#652,#653,#654,#655,#656,#657,#658,#659,#660,#661,#662,#663,#664,#665,
#666,#667,#668,#669,#670,#671,#672,#673,#674,#675,#676,#677,#678,#679,#680,
#681,#682,#683,#684,#685,#686,#687,#688,#689,#690,#691,#692,#693,#694,#695,
#696,#697,#698,#699,#700,#701,#702,#703,#704,#705,#706,#707,#708,#709,#710,
#711,#712,#713,#714,#715,#716,#717,#718,#719,#720,#721,#722,#723,#724,#725,
#726,#727,#728,#729,#730,#731,#732,#733,#734,#735,#736,#737,#738,#739,#740,
#741,#742,#743,#744,#745,#746,#747,#748,#749,#750,#751,#752,#753,#754,#755,
#756,#757,#758,#759,#760,#761,#762,#763,#764,#765,#766,#767,#768,#769,#770,
#771,#772,#773,#774,#775,#776,#777,#778,#779,#780,#781,#782,#783,#784,#785,
#786,#787,#788,#789,#790,#791,#792,#793,#794,#795,#796,#797,#798,#799,#800,
#801,#802,#803,#804,#805,#806,#807,#808,#809,#810,#811,#812,#813,#814,#815,
#816,#817,#818,#819,#820,#821,#822,#823,#824,#825,#826,#827,#828,#829,#830,
#831,#832,#833,#834,#835));
#837=IFCSTYLEDITEM(#842,(#838),'');
#838=IFCPRESENTATIONSTYLEASSIGNMENT((#839));
#839=IFCSURFACESTYLE('',.BOTH.,(#840));
#840=IFCSURFACESTYLERENDERING(#841,0.,$,$,$,$,$,$,.NOTDEFINED.);
#841=IFCCOLOURRGB('',0.506983280181885,0.531564235687256,0.550000011920929);
#842=IFCFACETEDBREP(#836);
#843=IFCPROJECT('07hUkdHgGydfWsFJH56q5B',#1052,'ClGray_4525904_b)_AVV',
' ',' ',' ',' ',(#1047),#844);
#844=IFCUNITASSIGNMENT((#1048,#1049,#1050,#1051));
#845=IFCGEOMETRICREPRESENTATIONSUBCONTEXT('Body','Model',*,*,*,*,#1047,
1.,.MODEL_VIEW.,$);
#846=IFCAXIS2PLACEMENT3D(#852,#848,#849);
#847=IFCAXIS2PLACEMENT3D(#1046,#850,#851);
#848=IFCDIRECTION((0.,0.,1.));
#849=IFCDIRECTION((1.,0.,0.));
#850=IFCDIRECTION((0.,0.,1.));
#851=IFCDIRECTION((1.,0.,0.));
#852=IFCCARTESIANPOINT((0.,0.,0.));
#853=IFCCARTESIANPOINT((0.923879532511287,-3.6,1.88268343236509));
#854=IFCCARTESIANPOINT((0.707106781186547,-3.6,2.20710678118655));
#855=IFCCARTESIANPOINT((0.38268343236509,-3.6,2.42387953251129));
#856=IFCCARTESIANPOINT((-4.34664740014434E-16,-3.6,2.5));
#857=IFCCARTESIANPOINT((-0.38268343236509,-3.6,2.42387953251129));
#858=IFCCARTESIANPOINT((-0.707106781186548,-3.6,2.20710678118655));
#859=IFCCARTESIANPOINT((-0.923879532511287,-3.6,1.88268343236509));
#860=IFCCARTESIANPOINT((-1.,-3.6,1.5));
#861=IFCCARTESIANPOINT((-0.923879532511287,-3.6,1.11731656763491));
#862=IFCCARTESIANPOINT((-0.707106781186548,-3.6,0.792893218813452));
#863=IFCCARTESIANPOINT((-0.38268343236509,-3.6,0.576120467488713));
#864=IFCCARTESIANPOINT((-6.7270700270228E-17,-3.6,0.5));
#865=IFCCARTESIANPOINT((0.382683432365089,-3.6,0.576120467488713));
#866=IFCCARTESIANPOINT((0.707106781186547,-3.6,0.792893218813452));
#867=IFCCARTESIANPOINT((0.923879532511287,-3.6,1.11731656763491));
#868=IFCCARTESIANPOINT((1.,-3.6,1.5));
#869=IFCCARTESIANPOINT((-2.00952071274322E-16,-2.5,2.5));
#870=IFCCARTESIANPOINT((-0.195287784889461,-2.49236086493769,2.48074598193057));
#871=IFCCARTESIANPOINT((-0.923879532511287,-2.3230253139832,1.88268343236509));
#872=IFCCARTESIANPOINT((-0.956708580912725,-2.30969883127822,1.79104757550607));
#873=IFCCARTESIANPOINT((-0.956708580912725,-2.30969883127822,1.20895242449393));
#874=IFCCARTESIANPOINT((-0.923879532511287,-2.3230253139832,1.11731656763491));
#875=IFCCARTESIANPOINT((-1.,-2.29128784747792,1.5));
#876=IFCCARTESIANPOINT((-0.195850717457574,-2.49231669265191,0.5193662781286));
#877=IFCCARTESIANPOINT((-0.382683432365083,-2.4705370652134,0.57612046748871));
#878=IFCCARTESIANPOINT((3.76818509579835E-16,-2.5,0.5));
#879=IFCCARTESIANPOINT((0.195949572154018,-2.49230892249991,0.519386026423926));
#880=IFCCARTESIANPOINT((0.923879532511287,-2.3230253139832,1.11731656763491));
#881=IFCCARTESIANPOINT((0.956708580912724,-2.30969883127822,1.20895242449393));
#882=IFCCARTESIANPOINT((0.956708580912724,-2.30969883127822,1.79104757550607));
#883=IFCCARTESIANPOINT((0.923879532511287,-2.3230253139832,1.88268343236509));
#884=IFCCARTESIANPOINT((1.,-2.29128784747792,1.5));
#885=IFCCARTESIANPOINT((0.195888668485409,-2.49231371010132,2.48062614158456));
#886=IFCCARTESIANPOINT((0.38268343236509,-2.47053706521341,2.42387953251129));
#887=IFCCARTESIANPOINT((0.707106781186547,-2.39791576165636,2.20710678118655));
#888=IFCCARTESIANPOINT((0.707106781186547,-2.39791576165636,0.792893218813453));
#889=IFCCARTESIANPOINT((0.382683432365089,-2.47053706521341,0.576120467488713));
#890=IFCCARTESIANPOINT((-0.707106781186548,-2.39791576165636,0.792893218813452));
#891=IFCCARTESIANPOINT((-0.707106781186549,-2.39791576165636,2.20710678118655));
#892=IFCCARTESIANPOINT((-0.382683432365104,-2.47053706521341,2.42387953251128));
#893=IFCCARTESIANPOINT((0.956708580912724,-2.30969883127822,3.));
#894=IFCCARTESIANPOINT((4.59242549680257E-16,-2.5,3.));
#895=IFCCARTESIANPOINT((1.76776695296637,-1.76776695296637,0.));
#896=IFCCARTESIANPOINT((1.76776695296637,-1.76776695296637,3.));
#897=IFCCARTESIANPOINT((0.956708580912724,-2.30969883127822,0.));
#898=IFCCARTESIANPOINT((4.59242549680257E-16,-2.5,0.));
#899=IFCCARTESIANPOINT((-0.956708580912725,-2.30969883127822,0.));
#900=IFCCARTESIANPOINT((-1.76776695296637,-1.76776695296637,3.));
#901=IFCCARTESIANPOINT((-1.76776695296637,-1.76776695296637,0.));
#902=IFCCARTESIANPOINT((-0.956708580912725,-2.30969883127822,3.));
#903=IFCCARTESIANPOINT((-0.956708580912724,2.30969883127822,3.));
#904=IFCCARTESIANPOINT((-0.707106781186549,2.39791576165636,2.20710678118655));
#905=IFCCARTESIANPOINT((-0.923879532511287,2.3230253139832,1.88268343236509));
#906=IFCCARTESIANPOINT((4.02030662419159E-16,2.5,3.));
#907=IFCCARTESIANPOINT((-0.195888668485408,2.49231371010132,2.48062614158456));
#908=IFCCARTESIANPOINT((-1.77797386799976E-16,2.5,2.5));
#909=IFCCARTESIANPOINT((-0.382683432365091,2.47053706521341,2.42387953251129));
#910=IFCCARTESIANPOINT((-1.76776695296637,1.76776695296637,0.));
#911=IFCCARTESIANPOINT((-1.,2.29128784747792,1.5));
#912=IFCCARTESIANPOINT((-0.956708580912724,2.30969883127822,1.20895242449393));
#913=IFCCARTESIANPOINT((-1.76776695296637,1.76776695296637,3.));
#914=IFCCARTESIANPOINT((-0.956708580912724,2.30969883127822,1.79104757550607));
#915=IFCCARTESIANPOINT((-0.956708580912724,2.30969883127822,0.));
#916=IFCCARTESIANPOINT((-0.382683432365089,2.47053706521341,0.576120467488713));
#917=IFCCARTESIANPOINT((-0.195949572154018,2.49230892249991,0.519386026423926));
#918=IFCCARTESIANPOINT((4.02030662419159E-16,2.5,0.));
#919=IFCCARTESIANPOINT((-0.707106781186548,2.39791576165636,0.792893218813452));
#920=IFCCARTESIANPOINT((-0.923879532511287,2.3230253139832,1.11731656763491));
#921=IFCCARTESIANPOINT((0.956708580912725,2.30969883127822,0.));
#922=IFCCARTESIANPOINT((0.707106781186547,2.39791576165636,0.792893218813452));
#923=IFCCARTESIANPOINT((0.923879532511287,2.3230253139832,1.11731656763491));
#924=IFCCARTESIANPOINT((0.195850717457574,2.49231669265191,0.5193662781286));
#925=IFCCARTESIANPOINT((3.76818509579835E-16,2.5,0.5));
#926=IFCCARTESIANPOINT((0.382683432365082,2.4705370652134,0.57612046748871));
#927=IFCCARTESIANPOINT((1.76776695296637,1.76776695296637,3.));
#928=IFCCARTESIANPOINT((1.76776695296637,1.76776695296637,0.));
#929=IFCCARTESIANPOINT((1.,2.29128784747792,1.5));
#930=IFCCARTESIANPOINT((0.956708580912725,2.30969883127822,1.79104757550607));
#931=IFCCARTESIANPOINT((0.956708580912725,2.30969883127822,1.20895242449393));
#932=IFCCARTESIANPOINT((0.956708580912725,2.30969883127822,3.));
#933=IFCCARTESIANPOINT((0.382683432365104,2.47053706521341,2.42387953251128));
#934=IFCCARTESIANPOINT((0.195287784889461,2.49236086493769,2.48074598193057));
#935=IFCCARTESIANPOINT((0.707106781186547,2.39791576165636,2.20710678118655));
#936=IFCCARTESIANPOINT((0.923879532511287,2.3230253139832,1.88268343236509));
#937=IFCCARTESIANPOINT((-2.30969883127822,-0.956708580912724,3.));
#938=IFCCARTESIANPOINT((-2.39791576165636,-0.707106781186548,2.20710678118655));
#939=IFCCARTESIANPOINT((-2.3230253139832,-0.923879532511287,1.88268343236509));
#940=IFCCARTESIANPOINT((-2.5,-6.12323399573677E-16,3.));
#941=IFCCARTESIANPOINT((-2.49231371010132,-0.195888668485408,2.48062614158456));
#942=IFCCARTESIANPOINT((-2.5,-1.28366116633955E-18,2.5));
#943=IFCCARTESIANPOINT((-2.47053706521341,-0.38268343236509,2.42387953251129));
#944=IFCCARTESIANPOINT((-2.29128784747792,-1.,1.5));
#945=IFCCARTESIANPOINT((-2.30969883127822,-0.956708580912724,1.20895242449393));
#946=IFCCARTESIANPOINT((-2.30969883127822,-0.956708580912724,1.79104757550607));
#947=IFCCARTESIANPOINT((-2.30969883127822,-0.956708580912724,0.));
#948=IFCCARTESIANPOINT((-2.47053706521341,-0.382683432365089,0.576120467488713));
#949=IFCCARTESIANPOINT((-2.49230892249991,-0.195949572154017,0.519386026423926));
#950=IFCCARTESIANPOINT((-2.5,-6.12323399573677E-16,0.));
#951=IFCCARTESIANPOINT((-2.39791576165636,-0.707106781186548,0.792893218813453));
#952=IFCCARTESIANPOINT((-2.3230253139832,-0.923879532511287,1.11731656763491));
#953=IFCCARTESIANPOINT((-2.30969883127822,0.956708580912724,0.));
#954=IFCCARTESIANPOINT((-2.39791576165636,0.707106781186547,0.792893218813452));
#955=IFCCARTESIANPOINT((-2.3230253139832,0.923879532511287,1.11731656763491));
#956=IFCCARTESIANPOINT((-2.49231669265191,0.195850717457574,0.5193662781286));
#957=IFCCARTESIANPOINT((-2.5,1.22464679914735E-16,0.5));
#958=IFCCARTESIANPOINT((-2.4705370652134,0.382683432365083,0.57612046748871));
#959=IFCCARTESIANPOINT((-2.29128784747792,1.,1.5));
#960=IFCCARTESIANPOINT((-2.30969883127822,0.956708580912725,1.79104757550607));
#961=IFCCARTESIANPOINT((-2.30969883127822,0.956708580912724,1.20895242449393));
#962=IFCCARTESIANPOINT((-2.30969883127822,0.956708580912724,3.));
#963=IFCCARTESIANPOINT((-2.47053706521341,0.382683432365104,2.42387953251128));
#964=IFCCARTESIANPOINT((-2.49236086493769,0.195287784889461,2.48074598193057));
#965=IFCCARTESIANPOINT((-2.39791576165636,0.707106781186548,2.20710678118655));
#966=IFCCARTESIANPOINT((-2.3230253139832,0.923879532511287,1.88268343236509));
#967=IFCCARTESIANPOINT((2.30969883127822,0.956708580912724,3.));
#968=IFCCARTESIANPOINT((2.39791576165636,0.707106781186547,2.20710678118655));
#969=IFCCARTESIANPOINT((2.3230253139832,0.923879532511287,1.88268343236509));
#970=IFCCARTESIANPOINT((2.5,0.,3.));
#971=IFCCARTESIANPOINT((2.49231371010132,0.19588866848541,2.48062614158456));
#972=IFCCARTESIANPOINT((2.5,1.28366116633955E-18,2.5));
#973=IFCCARTESIANPOINT((2.47053706521341,0.38268343236509,2.42387953251129));
#974=IFCCARTESIANPOINT((2.29128784747792,1.,1.5));
#975=IFCCARTESIANPOINT((2.30969883127822,0.956708580912724,1.20895242449393));
#976=IFCCARTESIANPOINT((2.30969883127822,0.956708580912724,1.79104757550607));
#977=IFCCARTESIANPOINT((2.30969883127822,0.956708580912724,0.));
#978=IFCCARTESIANPOINT((2.47053706521341,0.382683432365089,0.576120467488713));
#979=IFCCARTESIANPOINT((2.49230892249991,0.195949572154018,0.519386026423926));
#980=IFCCARTESIANPOINT((2.5,0.,0.));
#981=IFCCARTESIANPOINT((2.39791576165636,0.707106781186547,0.792893218813452));
#982=IFCCARTESIANPOINT((2.3230253139832,0.923879532511287,1.11731656763491));
#983=IFCCARTESIANPOINT((2.30969883127822,-0.956708580912724,0.));
#984=IFCCARTESIANPOINT((2.39791576165636,-0.707106781186547,0.792893218813452));
#985=IFCCARTESIANPOINT((2.3230253139832,-0.923879532511287,1.11731656763491));
#986=IFCCARTESIANPOINT((2.49231669265191,-0.195850717457574,0.5193662781286));
#987=IFCCARTESIANPOINT((2.5,1.22464679914735E-16,0.5));
#988=IFCCARTESIANPOINT((2.4705370652134,-0.382683432365083,0.57612046748871));
#989=IFCCARTESIANPOINT((2.29128784747792,-1.,1.5));
#990=IFCCARTESIANPOINT((2.30969883127822,-0.956708580912724,1.79104757550607));
#991=IFCCARTESIANPOINT((2.30969883127822,-0.956708580912724,1.20895242449393));
#992=IFCCARTESIANPOINT((2.30969883127822,-0.956708580912724,3.));
#993=IFCCARTESIANPOINT((2.47053706521341,-0.382683432365104,2.42387953251128));
#994=IFCCARTESIANPOINT((2.49236086493769,-0.195287784889461,2.48074598193057));
#995=IFCCARTESIANPOINT((2.39791576165636,-0.707106781186548,2.20710678118655));
#996=IFCCARTESIANPOINT((2.3230253139832,-0.923879532511287,1.88268343236509));
#997=IFCCARTESIANPOINT((-4.34664740014434E-16,3.6,2.5));
#998=IFCCARTESIANPOINT((0.38268343236509,3.6,2.42387953251129));
#999=IFCCARTESIANPOINT((1.,3.6,1.5));
#1000=IFCCARTESIANPOINT((0.923879532511287,3.6,1.88268343236509));
#1001=IFCCARTESIANPOINT((-6.7270700270228E-17,3.6,0.5));
#1002=IFCCARTESIANPOINT((0.382683432365089,3.6,0.576120467488713));
#1003=IFCCARTESIANPOINT((-0.38268343236509,3.6,0.576120467488713));
#1004=IFCCARTESIANPOINT((-1.,3.6,1.5));
#1005=IFCCARTESIANPOINT((-0.923879532511287,3.6,1.11731656763491));
#1006=IFCCARTESIANPOINT((-0.38268343236509,3.6,2.42387953251129));
#1007=IFCCARTESIANPOINT((-0.707106781186548,3.6,2.20710678118655));
#1008=IFCCARTESIANPOINT((-0.923879532511287,3.6,1.88268343236509));
#1009=IFCCARTESIANPOINT((-0.707106781186548,3.6,0.792893218813452));
#1010=IFCCARTESIANPOINT((0.707106781186547,3.6,0.792893218813452));
#1011=IFCCARTESIANPOINT((0.923879532511287,3.6,1.11731656763491));
#1012=IFCCARTESIANPOINT((0.707106781186547,3.6,2.20710678118655));
#1013=IFCCARTESIANPOINT((-3.6,-2.44929359829471E-16,2.5));
#1014=IFCCARTESIANPOINT((-3.6,0.38268343236509,2.42387953251129));
#1015=IFCCARTESIANPOINT((-3.6,1.,1.5));
#1016=IFCCARTESIANPOINT((-3.6,0.923879532511287,1.88268343236509));
#1017=IFCCARTESIANPOINT((-3.6,1.22464679914735E-16,0.5));
#1018=IFCCARTESIANPOINT((-3.6,0.382683432365089,0.576120467488713));
#1019=IFCCARTESIANPOINT((-3.6,-0.38268343236509,0.576120467488713));
#1020=IFCCARTESIANPOINT((-3.6,-1.,1.5));
#1021=IFCCARTESIANPOINT((-3.6,-0.923879532511287,1.11731656763491));
#1022=IFCCARTESIANPOINT((-3.6,-0.38268343236509,2.42387953251129));
#1023=IFCCARTESIANPOINT((-3.6,-0.707106781186548,2.20710678118655));
#1024=IFCCARTESIANPOINT((-3.6,-0.923879532511287,1.88268343236509));
#1025=IFCCARTESIANPOINT((-3.6,-0.707106781186547,0.792893218813452));
#1026=IFCCARTESIANPOINT((-3.6,0.707106781186547,0.792893218813452));
#1027=IFCCARTESIANPOINT((-3.6,0.923879532511287,1.11731656763491));
#1028=IFCCARTESIANPOINT((-3.6,0.707106781186548,2.20710678118655));
#1029=IFCCARTESIANPOINT((3.6,-2.44929359829471E-16,2.5));
#1030=IFCCARTESIANPOINT((3.6,-0.38268343236509,2.42387953251129));
#1031=IFCCARTESIANPOINT((3.6,-1.,1.5));
#1032=IFCCARTESIANPOINT((3.6,-0.923879532511287,1.88268343236509));
#1033=IFCCARTESIANPOINT((3.6,1.22464679914735E-16,0.5));
#1034=IFCCARTESIANPOINT((3.6,-0.38268343236509,0.576120467488713));
#1035=IFCCARTESIANPOINT((3.6,0.382683432365089,0.576120467488713));
#1036=IFCCARTESIANPOINT((3.6,1.,1.5));
#1037=IFCCARTESIANPOINT((3.6,0.923879532511287,1.11731656763491));
#1038=IFCCARTESIANPOINT((3.6,0.38268343236509,2.42387953251129));
#1039=IFCCARTESIANPOINT((3.6,0.707106781186548,2.20710678118655));
#1040=IFCCARTESIANPOINT((3.6,0.923879532511287,1.88268343236509));
#1041=IFCCARTESIANPOINT((3.6,0.707106781186547,0.792893218813452));
#1042=IFCCARTESIANPOINT((3.6,-0.707106781186547,0.792893218813452));
#1043=IFCCARTESIANPOINT((3.6,-0.923879532511287,1.11731656763491));
#1044=IFCCARTESIANPOINT((3.6,-0.707106781186548,2.20710678118655));
#1045=IFCCARTESIANPOINT((0.,0.,0.));
#1046=IFCCARTESIANPOINT((0.,0.,0.));
#1047=IFCGEOMETRICREPRESENTATIONCONTEXT($,'Model',3,0.005,#846,$);
#1048=IFCSIUNIT(*,.LENGTHUNIT.,.MILLI.,.METRE.);
#1049=IFCSIUNIT(*,.AREAUNIT.,$,.SQUARE_METRE.);
#1050=IFCSIUNIT(*,.VOLUMEUNIT.,$,.CUBIC_METRE.);
#1051=IFCSIUNIT(*,.PLANEANGLEUNIT.,$,.RADIAN.);
#1052=IFCOWNERHISTORY(#1054,#1053,$,.NOCHANGE.,0,$,$,0);
#1053=IFCAPPLICATION(#1055,' ',' ',' ');
#1054=IFCPERSONANDORGANIZATION(#1056,#1055,$);
#1055=IFCORGANIZATION($,' ',$,$,$);
#1056=IFCPERSON(' ',' ',' ',$,$,$,$,$);
ENDSEC;
END-ISO-10303-21;
