ISO-10303-21;
HEADER;
/* Generated by software containing ST-Developer
 * from STEP Tools, Inc. (www.steptools.com) 
 */
/* OPTION: strings as raw bytes, not using required /X/ escapes */

FILE_DESCRIPTION(
/* description */ ('Unknown'),
/* implementation_level */ '2;1');

FILE_NAME(
/* name */ 'ClGray_4211622_JCA',
/* time_stamp */ '2025-07-21T23:52:02+02:00',
/* author */ ('Unknown'),
/* organization */ ('Unknown'),
/* preprocessor_version */ 'ST-DEVELOPER v19.4',
/* originating_system */ 'Unknown',
/* authorisation */ 'OpenTools');

FILE_SCHEMA (('IFC2X3'));
ENDSEC;

DATA;
#10=IFCPROPERTYSINGLEVALUE('ProjectName',$,IFCTEXT(''),$);
#11=IFCPROPERTYSINGLEVALUE('PartNumber',$,IFCTEXT(''),$);
#12=IFCRELDEFINESBYPROPERTIES('3cRq1JQpSwDOm5lsE5cG83',#1783,$,$,(#14),
#13);
#13=IFCPROPERTYSET('1jOd4kXgWorA4TVRi95rqH',#1783,
'empty property set name',$,(#10,#11));
#14=IFCBUILDINGELEMENTPROXY('2GP_XOK7Wq1Pa1NGQTVWHM',#1783,
'ClGray_4211622_JCA',' ','ClGray_4211622_JCA',#19,#15,' ',.ELEMENT.);
#15=IFCPRODUCTDEFINITIONSHAPE(' ',' ',(#25));
#16=IFCRELCONTAINEDINSPATIALSTRUCTURE('3HZhfx2I0vj9Cvp1GHER_f',#1783,
' ',' ',(#14),#20);
#17=IFCRELAGGREGATES('1jF0XzMGqvEA6wZwPLSawz',#1783,$,$,#1422,(#20));
#18=IFCLOCALPLACEMENT($,#1425);
#19=IFCLOCALPLACEMENT(#18,#1426);
#20=IFCBUILDING('3G2N19bOG__grq1LV0cQPU',#1783,'Default Building',$,$,#18,
$,$,.ELEMENT.,0.,0.,$);
#21=IFCCARTESIANTRANSFORMATIONOPERATOR3D($,$,#1776,1.,$);
#22=IFCMAPPEDITEM(#23,#21);
#23=IFCREPRESENTATIONMAP(#1425,#24);
#24=IFCSHAPEREPRESENTATION(#1424,'Body','Brep',(#1421));
#25=IFCSHAPEREPRESENTATION(#1424,'Body','MappedRepresentation',(#22));
#26=IFCPOLYLOOP((#1432,#1433,#1434,#1435));
#27=IFCPOLYLOOP((#1436,#1437,#1433,#1432));
#28=IFCPOLYLOOP((#1438,#1439,#1437,#1436));
#29=IFCPOLYLOOP((#1440,#1441,#1439,#1438));
#30=IFCPOLYLOOP((#1442,#1443,#1441,#1440));
#31=IFCPOLYLOOP((#1444,#1445,#1443,#1442));
#32=IFCPOLYLOOP((#1446,#1447,#1445,#1444));
#33=IFCPOLYLOOP((#1448,#1449,#1447,#1446));
#34=IFCPOLYLOOP((#1450,#1451,#1449,#1448));
#35=IFCPOLYLOOP((#1452,#1453,#1451,#1450));
#36=IFCPOLYLOOP((#1454,#1455,#1453,#1452));
#37=IFCPOLYLOOP((#1456,#1457,#1455,#1454));
#38=IFCPOLYLOOP((#1458,#1459,#1457,#1456));
#39=IFCPOLYLOOP((#1460,#1461,#1459,#1458));
#40=IFCPOLYLOOP((#1462,#1463,#1461,#1460));
#41=IFCPOLYLOOP((#1435,#1434,#1463,#1462));
#42=IFCPOLYLOOP((#1461,#1463,#1464));
#43=IFCPOLYLOOP((#1463,#1465,#1464));
#44=IFCPOLYLOOP((#1459,#1461,#1466));
#45=IFCPOLYLOOP((#1461,#1467,#1466));
#46=IFCPOLYLOOP((#1457,#1459,#1468));
#47=IFCPOLYLOOP((#1459,#1469,#1468));
#48=IFCPOLYLOOP((#1457,#1470,#1471));
#49=IFCPOLYLOOP((#1471,#1455,#1457));
#50=IFCPOLYLOOP((#1455,#1472,#1473));
#51=IFCPOLYLOOP((#1473,#1453,#1455));
#52=IFCPOLYLOOP((#1453,#1474,#1475));
#53=IFCPOLYLOOP((#1475,#1451,#1453));
#54=IFCPOLYLOOP((#1445,#1447,#1476));
#55=IFCPOLYLOOP((#1447,#1477,#1476));
#56=IFCPOLYLOOP((#1443,#1445,#1478));
#57=IFCPOLYLOOP((#1445,#1479,#1478));
#58=IFCPOLYLOOP((#1441,#1443,#1480));
#59=IFCPOLYLOOP((#1443,#1481,#1480));
#60=IFCPOLYLOOP((#1441,#1482,#1483));
#61=IFCPOLYLOOP((#1483,#1439,#1441));
#62=IFCPOLYLOOP((#1439,#1484,#1485));
#63=IFCPOLYLOOP((#1485,#1437,#1439));
#64=IFCPOLYLOOP((#1437,#1486,#1487));
#65=IFCPOLYLOOP((#1487,#1433,#1437));
#66=IFCPOLYLOOP((#1434,#1433,#1488,#1489));
#67=IFCPOLYLOOP((#1487,#1488,#1433));
#68=IFCPOLYLOOP((#1485,#1486,#1437));
#69=IFCPOLYLOOP((#1483,#1484,#1439));
#70=IFCPOLYLOOP((#1480,#1482,#1441));
#71=IFCPOLYLOOP((#1478,#1481,#1443));
#72=IFCPOLYLOOP((#1476,#1479,#1445));
#73=IFCPOLYLOOP((#1447,#1449,#1490,#1477));
#74=IFCPOLYLOOP((#1449,#1451,#1491,#1490));
#75=IFCPOLYLOOP((#1475,#1491,#1451));
#76=IFCPOLYLOOP((#1473,#1474,#1453));
#77=IFCPOLYLOOP((#1471,#1472,#1455));
#78=IFCPOLYLOOP((#1468,#1470,#1457));
#79=IFCPOLYLOOP((#1466,#1469,#1459));
#80=IFCPOLYLOOP((#1464,#1467,#1461));
#81=IFCPOLYLOOP((#1463,#1434,#1489,#1465));
#82=IFCPOLYLOOP((#1472,#1471,#1492,#1493));
#83=IFCPOLYLOOP((#1474,#1473,#1494,#1495));
#84=IFCPOLYLOOP((#1491,#1475,#1496,#1497));
#85=IFCPOLYLOOP((#1477,#1490,#1498,#1499));
#86=IFCPOLYLOOP((#1479,#1476,#1500,#1501));
#87=IFCPOLYLOOP((#1481,#1478,#1502,#1503));
#88=IFCPOLYLOOP((#1492,#1504,#1505));
#89=IFCPOLYLOOP((#1492,#1471,#1506,#1507));
#90=IFCPOLYLOOP((#1471,#1508,#1506));
#91=IFCPOLYLOOP((#1471,#1509,#1510));
#92=IFCPOLYLOOP((#1510,#1508,#1471));
#93=IFCPOLYLOOP((#1507,#1504,#1492));
#94=IFCPOLYLOOP((#1471,#1470,#1509));
#95=IFCPOLYLOOP((#1505,#1511,#1492));
#96=IFCPOLYLOOP((#1480,#1512,#1513));
#97=IFCPOLYLOOP((#1480,#1514,#1515,#1516));
#98=IFCPOLYLOOP((#1514,#1517,#1515));
#99=IFCPOLYLOOP((#1514,#1518,#1519));
#100=IFCPOLYLOOP((#1519,#1517,#1514));
#101=IFCPOLYLOOP((#1516,#1512,#1480));
#102=IFCPOLYLOOP((#1513,#1520,#1480));
#103=IFCPOLYLOOP((#1514,#1521,#1518));
#104=IFCPOLYLOOP((#1520,#1482,#1480));
#105=IFCPOLYLOOP((#1511,#1522,#1492));
#106=IFCPOLYLOOP((#1503,#1514,#1480,#1481));
#107=IFCPOLYLOOP((#1501,#1502,#1478,#1479));
#108=IFCPOLYLOOP((#1499,#1500,#1476,#1477));
#109=IFCPOLYLOOP((#1497,#1498,#1490,#1491));
#110=IFCPOLYLOOP((#1495,#1496,#1475,#1474));
#111=IFCPOLYLOOP((#1493,#1494,#1473,#1472));
#112=IFCPOLYLOOP((#1515,#1523,#1524,#1516));
#113=IFCPOLYLOOP((#1523,#1515,#1517,#1525));
#114=IFCPOLYLOOP((#1525,#1517,#1519,#1526));
#115=IFCPOLYLOOP((#1526,#1519,#1518,#1527));
#116=IFCPOLYLOOP((#1527,#1518,#1521,#1528));
#117=IFCPOLYLOOP((#1528,#1521,#1529,#1530));
#118=IFCPOLYLOOP((#1530,#1529,#1531,#1532));
#119=IFCPOLYLOOP((#1532,#1531,#1533,#1534));
#120=IFCPOLYLOOP((#1534,#1533,#1535,#1536));
#121=IFCPOLYLOOP((#1537,#1538,#1539,#1540));
#122=IFCPOLYLOOP((#1540,#1539,#1541,#1542));
#123=IFCPOLYLOOP((#1542,#1541,#1543,#1544));
#124=IFCPOLYLOOP((#1544,#1543,#1482,#1545));
#125=IFCPOLYLOOP((#1545,#1482,#1520,#1546));
#126=IFCPOLYLOOP((#1546,#1520,#1513,#1547));
#127=IFCPOLYLOOP((#1547,#1513,#1512,#1548));
#128=IFCPOLYLOOP((#1548,#1512,#1516,#1524));
#129=IFCPOLYLOOP((#1538,#1537,#1536,#1535));
#130=IFCPOLYLOOP((#1484,#1483,#1549,#1550));
#131=IFCPOLYLOOP((#1486,#1485,#1551,#1552));
#132=IFCPOLYLOOP((#1488,#1487,#1553,#1554));
#133=IFCPOLYLOOP((#1465,#1489,#1555,#1556));
#134=IFCPOLYLOOP((#1467,#1464,#1557,#1558));
#135=IFCPOLYLOOP((#1469,#1466,#1559,#1560));
#136=IFCPOLYLOOP((#1468,#1561,#1562));
#137=IFCPOLYLOOP((#1468,#1563,#1564,#1565));
#138=IFCPOLYLOOP((#1563,#1566,#1564));
#139=IFCPOLYLOOP((#1563,#1567,#1568));
#140=IFCPOLYLOOP((#1568,#1566,#1563));
#141=IFCPOLYLOOP((#1565,#1561,#1468));
#142=IFCPOLYLOOP((#1562,#1569,#1468));
#143=IFCPOLYLOOP((#1563,#1522,#1567));
#144=IFCPOLYLOOP((#1549,#1533,#1531));
#145=IFCPOLYLOOP((#1549,#1483,#1538,#1535));
#146=IFCPOLYLOOP((#1483,#1539,#1538));
#147=IFCPOLYLOOP((#1483,#1543,#1541));
#148=IFCPOLYLOOP((#1541,#1539,#1483));
#149=IFCPOLYLOOP((#1535,#1533,#1549));
#150=IFCPOLYLOOP((#1483,#1482,#1543));
#151=IFCPOLYLOOP((#1531,#1529,#1549));
#152=IFCPOLYLOOP((#1529,#1521,#1549));
#153=IFCPOLYLOOP((#1569,#1470,#1468));
#154=IFCPOLYLOOP((#1560,#1563,#1468,#1469));
#155=IFCPOLYLOOP((#1558,#1559,#1466,#1467));
#156=IFCPOLYLOOP((#1556,#1557,#1464,#1465));
#157=IFCPOLYLOOP((#1554,#1555,#1489,#1488));
#158=IFCPOLYLOOP((#1552,#1553,#1487,#1486));
#159=IFCPOLYLOOP((#1550,#1551,#1485,#1484));
#160=IFCPOLYLOOP((#1570,#1506,#1508,#1571));
#161=IFCPOLYLOOP((#1571,#1508,#1510,#1572));
#162=IFCPOLYLOOP((#1572,#1510,#1509,#1573));
#163=IFCPOLYLOOP((#1573,#1509,#1470,#1574));
#164=IFCPOLYLOOP((#1574,#1470,#1569,#1575));
#165=IFCPOLYLOOP((#1575,#1569,#1562,#1576));
#166=IFCPOLYLOOP((#1576,#1562,#1561,#1577));
#167=IFCPOLYLOOP((#1577,#1561,#1565,#1578));
#168=IFCPOLYLOOP((#1579,#1564,#1566,#1580));
#169=IFCPOLYLOOP((#1580,#1566,#1568,#1581));
#170=IFCPOLYLOOP((#1581,#1568,#1567,#1582));
#171=IFCPOLYLOOP((#1582,#1567,#1522,#1583));
#172=IFCPOLYLOOP((#1583,#1522,#1511,#1584));
#173=IFCPOLYLOOP((#1584,#1511,#1505,#1585));
#174=IFCPOLYLOOP((#1585,#1505,#1504,#1586));
#175=IFCPOLYLOOP((#1586,#1504,#1507,#1587));
#176=IFCPOLYLOOP((#1564,#1579,#1578,#1565));
#177=IFCPOLYLOOP((#1506,#1570,#1587,#1507));
#178=IFCPOLYLOOP((#1588,#1589,#1582));
#179=IFCPOLYLOOP((#1589,#1580,#1581));
#180=IFCPOLYLOOP((#1581,#1582,#1589));
#181=IFCPOLYLOOP((#1589,#1590,#1578,#1579));
#182=IFCPOLYLOOP((#1590,#1577,#1578));
#183=IFCPOLYLOOP((#1590,#1575,#1576));
#184=IFCPOLYLOOP((#1591,#1574,#1575));
#185=IFCPOLYLOOP((#1575,#1590,#1591));
#186=IFCPOLYLOOP((#1576,#1577,#1590));
#187=IFCPOLYLOOP((#1579,#1580,#1589));
#188=IFCPOLYLOOP((#1591,#1592,#1573));
#189=IFCPOLYLOOP((#1592,#1571,#1572));
#190=IFCPOLYLOOP((#1572,#1573,#1592));
#191=IFCPOLYLOOP((#1592,#1593,#1587,#1570));
#192=IFCPOLYLOOP((#1593,#1586,#1587));
#193=IFCPOLYLOOP((#1593,#1584,#1585));
#194=IFCPOLYLOOP((#1588,#1583,#1584));
#195=IFCPOLYLOOP((#1584,#1593,#1588));
#196=IFCPOLYLOOP((#1585,#1586,#1593));
#197=IFCPOLYLOOP((#1570,#1571,#1592));
#198=IFCPOLYLOOP((#1573,#1574,#1591));
#199=IFCPOLYLOOP((#1582,#1583,#1588));
#200=IFCPOLYLOOP((#1594,#1595,#1593,#1592));
#201=IFCPOLYLOOP((#1596,#1597,#1595,#1594));
#202=IFCPOLYLOOP((#1598,#1599,#1597,#1596));
#203=IFCPOLYLOOP((#1600,#1601,#1599,#1598));
#204=IFCPOLYLOOP((#1602,#1603,#1604,#1605));
#205=IFCPOLYLOOP((#1606,#1607,#1603,#1602));
#206=IFCPOLYLOOP((#1608,#1609,#1607,#1606));
#207=IFCPOLYLOOP((#1590,#1589,#1609,#1608));
#208=IFCPOLYLOOP((#1605,#1604,#1610,#1611));
#209=IFCPOLYLOOP((#1612,#1613,#1614,#1615));
#210=IFCPOLYLOOP((#1616,#1617,#1613,#1612));
#211=IFCPOLYLOOP((#1618,#1619,#1617,#1616));
#212=IFCPOLYLOOP((#1611,#1610,#1619,#1618));
#213=IFCPOLYLOOP((#1620,#1621,#1615,#1614));
#214=IFCPOLYLOOP((#1622,#1623,#1624,#1625));
#215=IFCPOLYLOOP((#1626,#1627,#1623,#1622));
#216=IFCPOLYLOOP((#1628,#1629,#1627,#1626));
#217=IFCPOLYLOOP((#1621,#1620,#1629,#1628));
#218=IFCPOLYLOOP((#1630,#1631,#1632,#1633));
#219=IFCPOLYLOOP((#1625,#1624,#1631,#1630));
#220=IFCPOLYLOOP((#1634,#1635,#1636,#1637));
#221=IFCPOLYLOOP((#1638,#1639,#1635,#1634));
#222=IFCPOLYLOOP((#1640,#1641,#1639,#1638));
#223=IFCPOLYLOOP((#1633,#1632,#1641,#1640));
#224=IFCPOLYLOOP((#1601,#1600,#1642,#1643));
#225=IFCPOLYLOOP((#1644,#1645,#1643,#1642));
#226=IFCPOLYLOOP((#1646,#1647,#1645,#1644));
#227=IFCPOLYLOOP((#1648,#1649,#1647,#1646));
#228=IFCPOLYLOOP((#1650,#1651,#1649,#1648));
#229=IFCPOLYLOOP((#1652,#1653,#1651,#1650));
#230=IFCPOLYLOOP((#1654,#1655,#1653,#1652));
#231=IFCPOLYLOOP((#1656,#1657,#1655,#1654));
#232=IFCPOLYLOOP((#1658,#1659,#1657,#1656));
#233=IFCPOLYLOOP((#1660,#1661,#1659,#1658));
#234=IFCPOLYLOOP((#1662,#1663,#1661,#1660));
#235=IFCPOLYLOOP((#1664,#1665,#1663,#1662));
#236=IFCPOLYLOOP((#1666,#1667,#1665,#1664));
#237=IFCPOLYLOOP((#1668,#1669,#1667,#1666));
#238=IFCPOLYLOOP((#1670,#1671,#1669,#1668));
#239=IFCPOLYLOOP((#1672,#1673,#1671,#1670));
#240=IFCPOLYLOOP((#1673,#1672,#1674,#1675));
#241=IFCPOLYLOOP((#1676,#1677,#1675,#1674));
#242=IFCPOLYLOOP((#1678,#1679,#1677,#1676));
#243=IFCPOLYLOOP((#1680,#1681,#1679,#1678));
#244=IFCPOLYLOOP((#1682,#1683,#1681,#1680));
#245=IFCPOLYLOOP((#1684,#1685,#1683,#1682));
#246=IFCPOLYLOOP((#1686,#1687,#1685,#1684));
#247=IFCPOLYLOOP((#1688,#1689,#1687,#1686));
#248=IFCPOLYLOOP((#1690,#1691,#1689,#1688));
#249=IFCPOLYLOOP((#1692,#1693,#1691,#1690));
#250=IFCPOLYLOOP((#1694,#1693,#1527));
#251=IFCPOLYLOOP((#1693,#1525,#1526));
#252=IFCPOLYLOOP((#1526,#1527,#1693));
#253=IFCPOLYLOOP((#1693,#1692,#1524,#1523));
#254=IFCPOLYLOOP((#1692,#1548,#1524));
#255=IFCPOLYLOOP((#1692,#1546,#1547));
#256=IFCPOLYLOOP((#1695,#1545,#1546));
#257=IFCPOLYLOOP((#1546,#1692,#1695));
#258=IFCPOLYLOOP((#1547,#1548,#1692));
#259=IFCPOLYLOOP((#1523,#1525,#1693));
#260=IFCPOLYLOOP((#1695,#1696,#1544));
#261=IFCPOLYLOOP((#1696,#1540,#1542));
#262=IFCPOLYLOOP((#1542,#1544,#1696));
#263=IFCPOLYLOOP((#1696,#1697,#1536,#1537));
#264=IFCPOLYLOOP((#1697,#1534,#1536));
#265=IFCPOLYLOOP((#1697,#1530,#1532));
#266=IFCPOLYLOOP((#1694,#1528,#1530));
#267=IFCPOLYLOOP((#1530,#1697,#1694));
#268=IFCPOLYLOOP((#1532,#1534,#1697));
#269=IFCPOLYLOOP((#1537,#1540,#1696));
#270=IFCPOLYLOOP((#1544,#1545,#1695));
#271=IFCPOLYLOOP((#1527,#1528,#1694));
#272=IFCPOLYLOOP((#1698,#1699,#1697,#1696));
#273=IFCPOLYLOOP((#1700,#1701,#1699,#1698));
#274=IFCPOLYLOOP((#1702,#1703,#1701,#1700));
#275=IFCPOLYLOOP((#1704,#1705,#1703,#1702));
#276=IFCPOLYLOOP((#1460,#1602,#1605));
#277=IFCPOLYLOOP((#1605,#1611,#1618,#1616,#1612,#1615,#1621,#1460));
#278=IFCPOLYLOOP((#1452,#1652,#1650,#1648,#1646,#1644,#1642,#1600));
#279=IFCPOLYLOOP((#1436,#1637,#1706,#1707,#1708,#1709,#1710,#1704));
#280=IFCPOLYLOOP((#1621,#1628,#1460));
#281=IFCPOLYLOOP((#1452,#1654,#1652));
#282=IFCPOLYLOOP((#1452,#1450,#1658,#1656));
#283=IFCPOLYLOOP((#1444,#1686,#1684));
#284=IFCPOLYLOOP((#1436,#1634,#1637));
#285=IFCPOLYLOOP((#1436,#1432,#1640,#1638));
#286=IFCPOLYLOOP((#1628,#1626,#1460));
#287=IFCPOLYLOOP((#1656,#1654,#1452));
#288=IFCPOLYLOOP((#1444,#1670,#1668));
#289=IFCPOLYLOOP((#1684,#1682,#1680,#1678,#1676,#1674,#1672,#1444));
#290=IFCPOLYLOOP((#1444,#1442,#1690,#1688));
#291=IFCPOLYLOOP((#1436,#1702,#1700));
#292=IFCPOLYLOOP((#1638,#1634,#1436));
#293=IFCPOLYLOOP((#1460,#1606,#1602));
#294=IFCPOLYLOOP((#1458,#1590,#1608));
#295=IFCPOLYLOOP((#1452,#1598,#1596));
#296=IFCPOLYLOOP((#1450,#1660,#1658));
#297=IFCPOLYLOOP((#1672,#1670,#1444));
#298=IFCPOLYLOOP((#1442,#1692,#1690));
#299=IFCPOLYLOOP((#1704,#1702,#1436));
#300=IFCPOLYLOOP((#1608,#1606,#1460,#1458));
#301=IFCPOLYLOOP((#1600,#1598,#1452));
#302=IFCPOLYLOOP((#1688,#1686,#1444));
#303=IFCPOLYLOOP((#1432,#1633,#1640));
#304=IFCPOLYLOOP((#1626,#1622,#1462,#1460));
#305=IFCPOLYLOOP((#1596,#1594,#1454,#1452));
#306=IFCPOLYLOOP((#1668,#1666,#1446,#1444));
#307=IFCPOLYLOOP((#1700,#1698,#1438,#1436));
#308=IFCPOLYLOOP((#1622,#1625,#1462));
#309=IFCPOLYLOOP((#1594,#1592,#1454));
#310=IFCPOLYLOOP((#1666,#1664,#1446));
#311=IFCPOLYLOOP((#1698,#1696,#1438));
#312=IFCPOLYLOOP((#1458,#1456,#1591,#1590));
#313=IFCPOLYLOOP((#1450,#1448,#1662,#1660));
#314=IFCPOLYLOOP((#1442,#1440,#1695,#1692));
#315=IFCPOLYLOOP((#1432,#1435,#1630,#1633));
#316=IFCPOLYLOOP((#1592,#1591,#1456,#1454));
#317=IFCPOLYLOOP((#1696,#1695,#1440,#1438));
#318=IFCPOLYLOOP((#1664,#1662,#1448,#1446));
#319=IFCPOLYLOOP((#1625,#1630,#1435,#1462));
#320=IFCPOLYLOOP((#1709,#1711,#1712,#1710));
#321=IFCPOLYLOOP((#1708,#1713,#1711,#1709));
#322=IFCPOLYLOOP((#1707,#1714,#1713,#1708));
#323=IFCPOLYLOOP((#1706,#1715,#1714,#1707));
#324=IFCPOLYLOOP((#1705,#1704,#1710,#1712));
#325=IFCPOLYLOOP((#1637,#1636,#1715,#1706));
#326=IFCPOLYLOOP((#1716,#1699,#1701));
#327=IFCPOLYLOOP((#1717,#1718,#1687,#1689));
#328=IFCPOLYLOOP((#1719,#1629,#1620));
#329=IFCPOLYLOOP((#1720,#1703,#1705));
#330=IFCPOLYLOOP((#1716,#1697,#1699));
#331=IFCPOLYLOOP((#1718,#1685,#1687));
#332=IFCPOLYLOOP((#1620,#1614,#1613,#1617,#1619,#1610,#1604,#1719));
#333=IFCPOLYLOOP((#1701,#1703,#1720,#1716));
#334=IFCPOLYLOOP((#1689,#1691,#1717));
#335=IFCPOLYLOOP((#1721,#1722,#1635,#1639));
#336=IFCPOLYLOOP((#1722,#1715,#1636));
#337=IFCPOLYLOOP((#1604,#1603,#1719));
#338=IFCPOLYLOOP((#1716,#1723,#1694,#1697));
#339=IFCPOLYLOOP((#1691,#1693,#1717));
#340=IFCPOLYLOOP((#1636,#1635,#1722));
#341=IFCPOLYLOOP((#1719,#1627,#1629));
#342=IFCPOLYLOOP((#1693,#1694,#1723,#1724,#1717));
#343=IFCPOLYLOOP((#1725,#1721,#1632,#1631));
#344=IFCPOLYLOOP((#1639,#1641,#1721));
#345=IFCPOLYLOOP((#1603,#1607,#1726,#1719));
#346=IFCPOLYLOOP((#1719,#1624,#1623));
#347=IFCPOLYLOOP((#1727,#1599,#1601));
#348=IFCPOLYLOOP((#1728,#1651,#1653));
#349=IFCPOLYLOOP((#1712,#1711,#1713,#1714,#1715,#1722,#1720));
#350=IFCPOLYLOOP((#1641,#1632,#1721));
#351=IFCPOLYLOOP((#1729,#1631,#1624));
#352=IFCPOLYLOOP((#1623,#1627,#1719));
#353=IFCPOLYLOOP((#1727,#1597,#1599));
#354=IFCPOLYLOOP((#1727,#1593,#1595));
#355=IFCPOLYLOOP((#1730,#1657,#1659));
#356=IFCPOLYLOOP((#1653,#1655,#1728));
#357=IFCPOLYLOOP((#1731,#1671,#1673));
#358=IFCPOLYLOOP((#1732,#1667,#1669));
#359=IFCPOLYLOOP((#1705,#1712,#1720));
#360=IFCPOLYLOOP((#1624,#1719,#1729));
#361=IFCPOLYLOOP((#1733,#1726,#1589,#1588));
#362=IFCPOLYLOOP((#1607,#1609,#1726));
#363=IFCPOLYLOOP((#1595,#1597,#1727));
#364=IFCPOLYLOOP((#1655,#1657,#1730,#1728));
#365=IFCPOLYLOOP((#1669,#1671,#1731,#1732));
#366=IFCPOLYLOOP((#1631,#1729,#1734,#1735,#1725));
#367=IFCPOLYLOOP((#1609,#1589,#1726));
#368=IFCPOLYLOOP((#1727,#1588,#1593));
#369=IFCPOLYLOOP((#1659,#1661,#1730));
#370=IFCPOLYLOOP((#1732,#1665,#1667));
#371=IFCPOLYLOOP((#1588,#1727,#1736,#1737,#1733));
#372=IFCPOLYLOOP((#1661,#1663,#1738,#1730));
#373=IFCPOLYLOOP((#1732,#1739,#1738,#1663,#1665));
#374=IFCPOLYLOOP((#1601,#1643,#1645,#1647,#1649,#1651,#1728,#1727));
#375=IFCPOLYLOOP((#1718,#1731,#1675,#1677,#1679,#1681,#1683,#1685));
#376=IFCPOLYLOOP((#1673,#1675,#1731));
#377=IFCPOLYLOOP((#1497,#1740,#1741));
#378=IFCPOLYLOOP((#1741,#1498,#1497));
#379=IFCPOLYLOOP((#1492,#1522,#1742));
#380=IFCPOLYLOOP((#1522,#1743,#1742));
#381=IFCPOLYLOOP((#1744,#1493,#1492));
#382=IFCPOLYLOOP((#1563,#1745,#1746));
#383=IFCPOLYLOOP((#1746,#1522,#1563));
#384=IFCPOLYLOOP((#1746,#1743,#1522));
#385=IFCPOLYLOOP((#1556,#1555,#1747));
#386=IFCPOLYLOOP((#1555,#1748,#1747));
#387=IFCPOLYLOOP((#1554,#1749,#1750));
#388=IFCPOLYLOOP((#1750,#1555,#1554));
#389=IFCPOLYLOOP((#1549,#1521,#1751));
#390=IFCPOLYLOOP((#1521,#1752,#1751));
#391=IFCPOLYLOOP((#1753,#1550,#1549));
#392=IFCPOLYLOOP((#1514,#1754,#1755));
#393=IFCPOLYLOOP((#1755,#1521,#1514));
#394=IFCPOLYLOOP((#1755,#1752,#1521));
#395=IFCPOLYLOOP((#1499,#1498,#1756));
#396=IFCPOLYLOOP((#1498,#1757,#1756));
#397=IFCPOLYLOOP((#1758,#1759,#1558));
#398=IFCPOLYLOOP((#1557,#1760,#1761));
#399=IFCPOLYLOOP((#1761,#1758,#1557));
#400=IFCPOLYLOOP((#1557,#1556,#1760));
#401=IFCPOLYLOOP((#1560,#1759,#1762));
#402=IFCPOLYLOOP((#1560,#1559,#1759));
#403=IFCPOLYLOOP((#1762,#1745,#1560));
#404=IFCPOLYLOOP((#1763,#1764,#1495));
#405=IFCPOLYLOOP((#1495,#1494,#1763));
#406=IFCPOLYLOOP((#1493,#1744,#1765));
#407=IFCPOLYLOOP((#1765,#1763,#1493));
#408=IFCPOLYLOOP((#1496,#1764,#1766));
#409=IFCPOLYLOOP((#1496,#1495,#1764));
#410=IFCPOLYLOOP((#1740,#1497,#1496));
#411=IFCPOLYLOOP((#1500,#1767,#1768));
#412=IFCPOLYLOOP((#1768,#1769,#1500));
#413=IFCPOLYLOOP((#1769,#1501,#1500));
#414=IFCPOLYLOOP((#1503,#1770,#1771));
#415=IFCPOLYLOOP((#1770,#1502,#1501));
#416=IFCPOLYLOOP((#1770,#1503,#1502));
#417=IFCPOLYLOOP((#1501,#1769,#1770));
#418=IFCPOLYLOOP((#1550,#1753,#1772));
#419=IFCPOLYLOOP((#1772,#1773,#1550));
#420=IFCPOLYLOOP((#1773,#1552,#1551));
#421=IFCPOLYLOOP((#1553,#1774,#1775));
#422=IFCPOLYLOOP((#1749,#1554,#1553));
#423=IFCPOLYLOOP((#1774,#1553,#1552));
#424=IFCPOLYLOOP((#1552,#1773,#1774));
#425=IFCPOLYLOOP((#1775,#1749,#1553));
#426=IFCPOLYLOOP((#1773,#1551,#1550));
#427=IFCPOLYLOOP((#1771,#1754,#1503));
#428=IFCPOLYLOOP((#1500,#1499,#1767));
#429=IFCPOLYLOOP((#1766,#1740,#1496));
#430=IFCPOLYLOOP((#1494,#1493,#1763));
#431=IFCPOLYLOOP((#1559,#1558,#1759));
#432=IFCPOLYLOOP((#1558,#1557,#1758));
#433=IFCPOLYLOOP((#1756,#1767,#1499));
#434=IFCPOLYLOOP((#1514,#1503,#1754));
#435=IFCPOLYLOOP((#1751,#1753,#1549));
#436=IFCPOLYLOOP((#1750,#1748,#1555));
#437=IFCPOLYLOOP((#1747,#1760,#1556));
#438=IFCPOLYLOOP((#1563,#1560,#1745));
#439=IFCPOLYLOOP((#1742,#1744,#1492));
#440=IFCPOLYLOOP((#1741,#1757,#1498));
#441=IFCPOLYLOOP((#1772,#1716,#1720,#1773));
#442=IFCPOLYLOOP((#1773,#1720,#1722,#1774));
#443=IFCPOLYLOOP((#1774,#1722,#1721,#1775));
#444=IFCPOLYLOOP((#1770,#1718,#1717,#1771));
#445=IFCPOLYLOOP((#1768,#1732,#1731,#1769));
#446=IFCPOLYLOOP((#1769,#1731,#1718,#1770));
#447=IFCPOLYLOOP((#1764,#1728,#1730,#1766));
#448=IFCPOLYLOOP((#1765,#1736,#1727,#1763));
#449=IFCPOLYLOOP((#1763,#1727,#1728,#1764));
#450=IFCPOLYLOOP((#1759,#1719,#1726,#1762));
#451=IFCPOLYLOOP((#1761,#1734,#1729,#1758));
#452=IFCPOLYLOOP((#1758,#1729,#1719,#1759));
#453=IFCPOLYLOOP((#1733,#1746,#1745));
#454=IFCPOLYLOOP((#1745,#1726,#1733));
#455=IFCPOLYLOOP((#1737,#1742,#1743));
#456=IFCPOLYLOOP((#1743,#1733,#1737));
#457=IFCPOLYLOOP((#1737,#1736,#1744));
#458=IFCPOLYLOOP((#1736,#1765,#1744));
#459=IFCPOLYLOOP((#1744,#1742,#1737));
#460=IFCPOLYLOOP((#1743,#1746,#1733));
#461=IFCPOLYLOOP((#1745,#1762,#1726));
#462=IFCPOLYLOOP((#1738,#1741,#1740));
#463=IFCPOLYLOOP((#1740,#1730,#1738));
#464=IFCPOLYLOOP((#1739,#1756,#1757));
#465=IFCPOLYLOOP((#1757,#1738,#1739));
#466=IFCPOLYLOOP((#1739,#1732,#1767));
#467=IFCPOLYLOOP((#1732,#1768,#1767));
#468=IFCPOLYLOOP((#1767,#1756,#1739));
#469=IFCPOLYLOOP((#1757,#1741,#1738));
#470=IFCPOLYLOOP((#1740,#1766,#1730));
#471=IFCPOLYLOOP((#1724,#1755,#1754));
#472=IFCPOLYLOOP((#1754,#1717,#1724));
#473=IFCPOLYLOOP((#1724,#1723,#1752));
#474=IFCPOLYLOOP((#1723,#1751,#1752));
#475=IFCPOLYLOOP((#1723,#1716,#1753));
#476=IFCPOLYLOOP((#1716,#1772,#1753));
#477=IFCPOLYLOOP((#1753,#1751,#1723));
#478=IFCPOLYLOOP((#1752,#1755,#1724));
#479=IFCPOLYLOOP((#1754,#1771,#1717));
#480=IFCPOLYLOOP((#1725,#1750,#1749));
#481=IFCPOLYLOOP((#1749,#1721,#1725));
#482=IFCPOLYLOOP((#1725,#1735,#1748));
#483=IFCPOLYLOOP((#1735,#1747,#1748));
#484=IFCPOLYLOOP((#1735,#1734,#1760));
#485=IFCPOLYLOOP((#1734,#1761,#1760));
#486=IFCPOLYLOOP((#1760,#1747,#1735));
#487=IFCPOLYLOOP((#1748,#1750,#1725));
#488=IFCPOLYLOOP((#1749,#1775,#1721));
#489=IFCFACEOUTERBOUND(#26,.T.);
#490=IFCFACEOUTERBOUND(#27,.T.);
#491=IFCFACEOUTERBOUND(#28,.T.);
#492=IFCFACEOUTERBOUND(#29,.T.);
#493=IFCFACEOUTERBOUND(#30,.T.);
#494=IFCFACEOUTERBOUND(#31,.T.);
#495=IFCFACEOUTERBOUND(#32,.T.);
#496=IFCFACEOUTERBOUND(#33,.T.);
#497=IFCFACEOUTERBOUND(#34,.T.);
#498=IFCFACEOUTERBOUND(#35,.T.);
#499=IFCFACEOUTERBOUND(#36,.T.);
#500=IFCFACEOUTERBOUND(#37,.T.);
#501=IFCFACEOUTERBOUND(#38,.T.);
#502=IFCFACEOUTERBOUND(#39,.T.);
#503=IFCFACEOUTERBOUND(#40,.T.);
#504=IFCFACEOUTERBOUND(#41,.T.);
#505=IFCFACEOUTERBOUND(#42,.T.);
#506=IFCFACEOUTERBOUND(#43,.T.);
#507=IFCFACEOUTERBOUND(#44,.T.);
#508=IFCFACEOUTERBOUND(#45,.T.);
#509=IFCFACEOUTERBOUND(#46,.T.);
#510=IFCFACEOUTERBOUND(#47,.T.);
#511=IFCFACEOUTERBOUND(#48,.T.);
#512=IFCFACEOUTERBOUND(#49,.T.);
#513=IFCFACEOUTERBOUND(#50,.T.);
#514=IFCFACEOUTERBOUND(#51,.T.);
#515=IFCFACEOUTERBOUND(#52,.T.);
#516=IFCFACEOUTERBOUND(#53,.T.);
#517=IFCFACEOUTERBOUND(#54,.T.);
#518=IFCFACEOUTERBOUND(#55,.T.);
#519=IFCFACEOUTERBOUND(#56,.T.);
#520=IFCFACEOUTERBOUND(#57,.T.);
#521=IFCFACEOUTERBOUND(#58,.T.);
#522=IFCFACEOUTERBOUND(#59,.T.);
#523=IFCFACEOUTERBOUND(#60,.T.);
#524=IFCFACEOUTERBOUND(#61,.T.);
#525=IFCFACEOUTERBOUND(#62,.T.);
#526=IFCFACEOUTERBOUND(#63,.T.);
#527=IFCFACEOUTERBOUND(#64,.T.);
#528=IFCFACEOUTERBOUND(#65,.T.);
#529=IFCFACEOUTERBOUND(#66,.T.);
#530=IFCFACEOUTERBOUND(#67,.T.);
#531=IFCFACEOUTERBOUND(#68,.T.);
#532=IFCFACEOUTERBOUND(#69,.T.);
#533=IFCFACEOUTERBOUND(#70,.T.);
#534=IFCFACEOUTERBOUND(#71,.T.);
#535=IFCFACEOUTERBOUND(#72,.T.);
#536=IFCFACEOUTERBOUND(#73,.T.);
#537=IFCFACEOUTERBOUND(#74,.T.);
#538=IFCFACEOUTERBOUND(#75,.T.);
#539=IFCFACEOUTERBOUND(#76,.T.);
#540=IFCFACEOUTERBOUND(#77,.T.);
#541=IFCFACEOUTERBOUND(#78,.T.);
#542=IFCFACEOUTERBOUND(#79,.T.);
#543=IFCFACEOUTERBOUND(#80,.T.);
#544=IFCFACEOUTERBOUND(#81,.T.);
#545=IFCFACEOUTERBOUND(#82,.T.);
#546=IFCFACEOUTERBOUND(#83,.T.);
#547=IFCFACEOUTERBOUND(#84,.T.);
#548=IFCFACEOUTERBOUND(#85,.T.);
#549=IFCFACEOUTERBOUND(#86,.T.);
#550=IFCFACEOUTERBOUND(#87,.T.);
#551=IFCFACEOUTERBOUND(#88,.T.);
#552=IFCFACEOUTERBOUND(#89,.T.);
#553=IFCFACEOUTERBOUND(#90,.T.);
#554=IFCFACEOUTERBOUND(#91,.T.);
#555=IFCFACEOUTERBOUND(#92,.T.);
#556=IFCFACEOUTERBOUND(#93,.T.);
#557=IFCFACEOUTERBOUND(#94,.T.);
#558=IFCFACEOUTERBOUND(#95,.T.);
#559=IFCFACEOUTERBOUND(#96,.T.);
#560=IFCFACEOUTERBOUND(#97,.T.);
#561=IFCFACEOUTERBOUND(#98,.T.);
#562=IFCFACEOUTERBOUND(#99,.T.);
#563=IFCFACEOUTERBOUND(#100,.T.);
#564=IFCFACEOUTERBOUND(#101,.T.);
#565=IFCFACEOUTERBOUND(#102,.T.);
#566=IFCFACEOUTERBOUND(#103,.T.);
#567=IFCFACEOUTERBOUND(#104,.T.);
#568=IFCFACEOUTERBOUND(#105,.T.);
#569=IFCFACEOUTERBOUND(#106,.T.);
#570=IFCFACEOUTERBOUND(#107,.T.);
#571=IFCFACEOUTERBOUND(#108,.T.);
#572=IFCFACEOUTERBOUND(#109,.T.);
#573=IFCFACEOUTERBOUND(#110,.T.);
#574=IFCFACEOUTERBOUND(#111,.T.);
#575=IFCFACEOUTERBOUND(#112,.T.);
#576=IFCFACEOUTERBOUND(#113,.T.);
#577=IFCFACEOUTERBOUND(#114,.T.);
#578=IFCFACEOUTERBOUND(#115,.T.);
#579=IFCFACEOUTERBOUND(#116,.T.);
#580=IFCFACEOUTERBOUND(#117,.T.);
#581=IFCFACEOUTERBOUND(#118,.T.);
#582=IFCFACEOUTERBOUND(#119,.T.);
#583=IFCFACEOUTERBOUND(#120,.T.);
#584=IFCFACEOUTERBOUND(#121,.T.);
#585=IFCFACEOUTERBOUND(#122,.T.);
#586=IFCFACEOUTERBOUND(#123,.T.);
#587=IFCFACEOUTERBOUND(#124,.T.);
#588=IFCFACEOUTERBOUND(#125,.T.);
#589=IFCFACEOUTERBOUND(#126,.T.);
#590=IFCFACEOUTERBOUND(#127,.T.);
#591=IFCFACEOUTERBOUND(#128,.T.);
#592=IFCFACEOUTERBOUND(#129,.T.);
#593=IFCFACEOUTERBOUND(#130,.T.);
#594=IFCFACEOUTERBOUND(#131,.T.);
#595=IFCFACEOUTERBOUND(#132,.T.);
#596=IFCFACEOUTERBOUND(#133,.T.);
#597=IFCFACEOUTERBOUND(#134,.T.);
#598=IFCFACEOUTERBOUND(#135,.T.);
#599=IFCFACEOUTERBOUND(#136,.T.);
#600=IFCFACEOUTERBOUND(#137,.T.);
#601=IFCFACEOUTERBOUND(#138,.T.);
#602=IFCFACEOUTERBOUND(#139,.T.);
#603=IFCFACEOUTERBOUND(#140,.T.);
#604=IFCFACEOUTERBOUND(#141,.T.);
#605=IFCFACEOUTERBOUND(#142,.T.);
#606=IFCFACEOUTERBOUND(#143,.T.);
#607=IFCFACEOUTERBOUND(#144,.T.);
#608=IFCFACEOUTERBOUND(#145,.T.);
#609=IFCFACEOUTERBOUND(#146,.T.);
#610=IFCFACEOUTERBOUND(#147,.T.);
#611=IFCFACEOUTERBOUND(#148,.T.);
#612=IFCFACEOUTERBOUND(#149,.T.);
#613=IFCFACEOUTERBOUND(#150,.T.);
#614=IFCFACEOUTERBOUND(#151,.T.);
#615=IFCFACEOUTERBOUND(#152,.T.);
#616=IFCFACEOUTERBOUND(#153,.T.);
#617=IFCFACEOUTERBOUND(#154,.T.);
#618=IFCFACEOUTERBOUND(#155,.T.);
#619=IFCFACEOUTERBOUND(#156,.T.);
#620=IFCFACEOUTERBOUND(#157,.T.);
#621=IFCFACEOUTERBOUND(#158,.T.);
#622=IFCFACEOUTERBOUND(#159,.T.);
#623=IFCFACEOUTERBOUND(#160,.T.);
#624=IFCFACEOUTERBOUND(#161,.T.);
#625=IFCFACEOUTERBOUND(#162,.T.);
#626=IFCFACEOUTERBOUND(#163,.T.);
#627=IFCFACEOUTERBOUND(#164,.T.);
#628=IFCFACEOUTERBOUND(#165,.T.);
#629=IFCFACEOUTERBOUND(#166,.T.);
#630=IFCFACEOUTERBOUND(#167,.T.);
#631=IFCFACEOUTERBOUND(#168,.T.);
#632=IFCFACEOUTERBOUND(#169,.T.);
#633=IFCFACEOUTERBOUND(#170,.T.);
#634=IFCFACEOUTERBOUND(#171,.T.);
#635=IFCFACEOUTERBOUND(#172,.T.);
#636=IFCFACEOUTERBOUND(#173,.T.);
#637=IFCFACEOUTERBOUND(#174,.T.);
#638=IFCFACEOUTERBOUND(#175,.T.);
#639=IFCFACEOUTERBOUND(#176,.T.);
#640=IFCFACEOUTERBOUND(#177,.T.);
#641=IFCFACEOUTERBOUND(#178,.T.);
#642=IFCFACEOUTERBOUND(#179,.T.);
#643=IFCFACEOUTERBOUND(#180,.T.);
#644=IFCFACEOUTERBOUND(#181,.T.);
#645=IFCFACEOUTERBOUND(#182,.T.);
#646=IFCFACEOUTERBOUND(#183,.T.);
#647=IFCFACEOUTERBOUND(#184,.T.);
#648=IFCFACEOUTERBOUND(#185,.T.);
#649=IFCFACEOUTERBOUND(#186,.T.);
#650=IFCFACEOUTERBOUND(#187,.T.);
#651=IFCFACEOUTERBOUND(#188,.T.);
#652=IFCFACEOUTERBOUND(#189,.T.);
#653=IFCFACEOUTERBOUND(#190,.T.);
#654=IFCFACEOUTERBOUND(#191,.T.);
#655=IFCFACEOUTERBOUND(#192,.T.);
#656=IFCFACEOUTERBOUND(#193,.T.);
#657=IFCFACEOUTERBOUND(#194,.T.);
#658=IFCFACEOUTERBOUND(#195,.T.);
#659=IFCFACEOUTERBOUND(#196,.T.);
#660=IFCFACEOUTERBOUND(#197,.T.);
#661=IFCFACEOUTERBOUND(#198,.T.);
#662=IFCFACEOUTERBOUND(#199,.T.);
#663=IFCFACEOUTERBOUND(#200,.T.);
#664=IFCFACEOUTERBOUND(#201,.T.);
#665=IFCFACEOUTERBOUND(#202,.T.);
#666=IFCFACEOUTERBOUND(#203,.T.);
#667=IFCFACEOUTERBOUND(#204,.T.);
#668=IFCFACEOUTERBOUND(#205,.T.);
#669=IFCFACEOUTERBOUND(#206,.T.);
#670=IFCFACEOUTERBOUND(#207,.T.);
#671=IFCFACEOUTERBOUND(#208,.T.);
#672=IFCFACEOUTERBOUND(#209,.T.);
#673=IFCFACEOUTERBOUND(#210,.T.);
#674=IFCFACEOUTERBOUND(#211,.T.);
#675=IFCFACEOUTERBOUND(#212,.T.);
#676=IFCFACEOUTERBOUND(#213,.T.);
#677=IFCFACEOUTERBOUND(#214,.T.);
#678=IFCFACEOUTERBOUND(#215,.T.);
#679=IFCFACEOUTERBOUND(#216,.T.);
#680=IFCFACEOUTERBOUND(#217,.T.);
#681=IFCFACEOUTERBOUND(#218,.T.);
#682=IFCFACEOUTERBOUND(#219,.T.);
#683=IFCFACEOUTERBOUND(#220,.T.);
#684=IFCFACEOUTERBOUND(#221,.T.);
#685=IFCFACEOUTERBOUND(#222,.T.);
#686=IFCFACEOUTERBOUND(#223,.T.);
#687=IFCFACEOUTERBOUND(#224,.T.);
#688=IFCFACEOUTERBOUND(#225,.T.);
#689=IFCFACEOUTERBOUND(#226,.T.);
#690=IFCFACEOUTERBOUND(#227,.T.);
#691=IFCFACEOUTERBOUND(#228,.T.);
#692=IFCFACEOUTERBOUND(#229,.T.);
#693=IFCFACEOUTERBOUND(#230,.T.);
#694=IFCFACEOUTERBOUND(#231,.T.);
#695=IFCFACEOUTERBOUND(#232,.T.);
#696=IFCFACEOUTERBOUND(#233,.T.);
#697=IFCFACEOUTERBOUND(#234,.T.);
#698=IFCFACEOUTERBOUND(#235,.T.);
#699=IFCFACEOUTERBOUND(#236,.T.);
#700=IFCFACEOUTERBOUND(#237,.T.);
#701=IFCFACEOUTERBOUND(#238,.T.);
#702=IFCFACEOUTERBOUND(#239,.T.);
#703=IFCFACEOUTERBOUND(#240,.T.);
#704=IFCFACEOUTERBOUND(#241,.T.);
#705=IFCFACEOUTERBOUND(#242,.T.);
#706=IFCFACEOUTERBOUND(#243,.T.);
#707=IFCFACEOUTERBOUND(#244,.T.);
#708=IFCFACEOUTERBOUND(#245,.T.);
#709=IFCFACEOUTERBOUND(#246,.T.);
#710=IFCFACEOUTERBOUND(#247,.T.);
#711=IFCFACEOUTERBOUND(#248,.T.);
#712=IFCFACEOUTERBOUND(#249,.T.);
#713=IFCFACEOUTERBOUND(#250,.T.);
#714=IFCFACEOUTERBOUND(#251,.T.);
#715=IFCFACEOUTERBOUND(#252,.T.);
#716=IFCFACEOUTERBOUND(#253,.T.);
#717=IFCFACEOUTERBOUND(#254,.T.);
#718=IFCFACEOUTERBOUND(#255,.T.);
#719=IFCFACEOUTERBOUND(#256,.T.);
#720=IFCFACEOUTERBOUND(#257,.T.);
#721=IFCFACEOUTERBOUND(#258,.T.);
#722=IFCFACEOUTERBOUND(#259,.T.);
#723=IFCFACEOUTERBOUND(#260,.T.);
#724=IFCFACEOUTERBOUND(#261,.T.);
#725=IFCFACEOUTERBOUND(#262,.T.);
#726=IFCFACEOUTERBOUND(#263,.T.);
#727=IFCFACEOUTERBOUND(#264,.T.);
#728=IFCFACEOUTERBOUND(#265,.T.);
#729=IFCFACEOUTERBOUND(#266,.T.);
#730=IFCFACEOUTERBOUND(#267,.T.);
#731=IFCFACEOUTERBOUND(#268,.T.);
#732=IFCFACEOUTERBOUND(#269,.T.);
#733=IFCFACEOUTERBOUND(#270,.T.);
#734=IFCFACEOUTERBOUND(#271,.T.);
#735=IFCFACEOUTERBOUND(#272,.T.);
#736=IFCFACEOUTERBOUND(#273,.T.);
#737=IFCFACEOUTERBOUND(#274,.T.);
#738=IFCFACEOUTERBOUND(#275,.T.);
#739=IFCFACEOUTERBOUND(#276,.T.);
#740=IFCFACEOUTERBOUND(#277,.T.);
#741=IFCFACEOUTERBOUND(#278,.T.);
#742=IFCFACEOUTERBOUND(#279,.T.);
#743=IFCFACEOUTERBOUND(#280,.T.);
#744=IFCFACEOUTERBOUND(#281,.T.);
#745=IFCFACEOUTERBOUND(#282,.T.);
#746=IFCFACEOUTERBOUND(#283,.T.);
#747=IFCFACEOUTERBOUND(#284,.T.);
#748=IFCFACEOUTERBOUND(#285,.T.);
#749=IFCFACEOUTERBOUND(#286,.T.);
#750=IFCFACEOUTERBOUND(#287,.T.);
#751=IFCFACEOUTERBOUND(#288,.T.);
#752=IFCFACEOUTERBOUND(#289,.T.);
#753=IFCFACEOUTERBOUND(#290,.T.);
#754=IFCFACEOUTERBOUND(#291,.T.);
#755=IFCFACEOUTERBOUND(#292,.T.);
#756=IFCFACEOUTERBOUND(#293,.T.);
#757=IFCFACEOUTERBOUND(#294,.T.);
#758=IFCFACEOUTERBOUND(#295,.T.);
#759=IFCFACEOUTERBOUND(#296,.T.);
#760=IFCFACEOUTERBOUND(#297,.T.);
#761=IFCFACEOUTERBOUND(#298,.T.);
#762=IFCFACEOUTERBOUND(#299,.T.);
#763=IFCFACEOUTERBOUND(#300,.T.);
#764=IFCFACEOUTERBOUND(#301,.T.);
#765=IFCFACEOUTERBOUND(#302,.T.);
#766=IFCFACEOUTERBOUND(#303,.T.);
#767=IFCFACEOUTERBOUND(#304,.T.);
#768=IFCFACEOUTERBOUND(#305,.T.);
#769=IFCFACEOUTERBOUND(#306,.T.);
#770=IFCFACEOUTERBOUND(#307,.T.);
#771=IFCFACEOUTERBOUND(#308,.T.);
#772=IFCFACEOUTERBOUND(#309,.T.);
#773=IFCFACEOUTERBOUND(#310,.T.);
#774=IFCFACEOUTERBOUND(#311,.T.);
#775=IFCFACEOUTERBOUND(#312,.T.);
#776=IFCFACEOUTERBOUND(#313,.T.);
#777=IFCFACEOUTERBOUND(#314,.T.);
#778=IFCFACEOUTERBOUND(#315,.T.);
#779=IFCFACEOUTERBOUND(#316,.T.);
#780=IFCFACEOUTERBOUND(#317,.T.);
#781=IFCFACEOUTERBOUND(#318,.T.);
#782=IFCFACEOUTERBOUND(#319,.T.);
#783=IFCFACEOUTERBOUND(#320,.T.);
#784=IFCFACEOUTERBOUND(#321,.T.);
#785=IFCFACEOUTERBOUND(#322,.T.);
#786=IFCFACEOUTERBOUND(#323,.T.);
#787=IFCFACEOUTERBOUND(#324,.T.);
#788=IFCFACEOUTERBOUND(#325,.T.);
#789=IFCFACEOUTERBOUND(#326,.T.);
#790=IFCFACEOUTERBOUND(#327,.T.);
#791=IFCFACEOUTERBOUND(#328,.T.);
#792=IFCFACEOUTERBOUND(#329,.T.);
#793=IFCFACEOUTERBOUND(#330,.T.);
#794=IFCFACEOUTERBOUND(#331,.T.);
#795=IFCFACEOUTERBOUND(#332,.T.);
#796=IFCFACEOUTERBOUND(#333,.T.);
#797=IFCFACEOUTERBOUND(#334,.T.);
#798=IFCFACEOUTERBOUND(#335,.T.);
#799=IFCFACEOUTERBOUND(#336,.T.);
#800=IFCFACEOUTERBOUND(#337,.T.);
#801=IFCFACEOUTERBOUND(#338,.T.);
#802=IFCFACEOUTERBOUND(#339,.T.);
#803=IFCFACEOUTERBOUND(#340,.T.);
#804=IFCFACEOUTERBOUND(#341,.T.);
#805=IFCFACEOUTERBOUND(#342,.T.);
#806=IFCFACEOUTERBOUND(#343,.T.);
#807=IFCFACEOUTERBOUND(#344,.T.);
#808=IFCFACEOUTERBOUND(#345,.T.);
#809=IFCFACEOUTERBOUND(#346,.T.);
#810=IFCFACEOUTERBOUND(#347,.T.);
#811=IFCFACEOUTERBOUND(#348,.T.);
#812=IFCFACEOUTERBOUND(#349,.T.);
#813=IFCFACEOUTERBOUND(#350,.T.);
#814=IFCFACEOUTERBOUND(#351,.T.);
#815=IFCFACEOUTERBOUND(#352,.T.);
#816=IFCFACEOUTERBOUND(#353,.T.);
#817=IFCFACEOUTERBOUND(#354,.T.);
#818=IFCFACEOUTERBOUND(#355,.T.);
#819=IFCFACEOUTERBOUND(#356,.T.);
#820=IFCFACEOUTERBOUND(#357,.T.);
#821=IFCFACEOUTERBOUND(#358,.T.);
#822=IFCFACEOUTERBOUND(#359,.T.);
#823=IFCFACEOUTERBOUND(#360,.T.);
#824=IFCFACEOUTERBOUND(#361,.T.);
#825=IFCFACEOUTERBOUND(#362,.T.);
#826=IFCFACEOUTERBOUND(#363,.T.);
#827=IFCFACEOUTERBOUND(#364,.T.);
#828=IFCFACEOUTERBOUND(#365,.T.);
#829=IFCFACEOUTERBOUND(#366,.T.);
#830=IFCFACEOUTERBOUND(#367,.T.);
#831=IFCFACEOUTERBOUND(#368,.T.);
#832=IFCFACEOUTERBOUND(#369,.T.);
#833=IFCFACEOUTERBOUND(#370,.T.);
#834=IFCFACEOUTERBOUND(#371,.T.);
#835=IFCFACEOUTERBOUND(#372,.T.);
#836=IFCFACEOUTERBOUND(#373,.T.);
#837=IFCFACEOUTERBOUND(#374,.T.);
#838=IFCFACEOUTERBOUND(#375,.T.);
#839=IFCFACEOUTERBOUND(#376,.T.);
#840=IFCFACEOUTERBOUND(#377,.T.);
#841=IFCFACEOUTERBOUND(#378,.T.);
#842=IFCFACEOUTERBOUND(#379,.T.);
#843=IFCFACEOUTERBOUND(#380,.T.);
#844=IFCFACEOUTERBOUND(#381,.T.);
#845=IFCFACEOUTERBOUND(#382,.T.);
#846=IFCFACEOUTERBOUND(#383,.T.);
#847=IFCFACEOUTERBOUND(#384,.T.);
#848=IFCFACEOUTERBOUND(#385,.T.);
#849=IFCFACEOUTERBOUND(#386,.T.);
#850=IFCFACEOUTERBOUND(#387,.T.);
#851=IFCFACEOUTERBOUND(#388,.T.);
#852=IFCFACEOUTERBOUND(#389,.T.);
#853=IFCFACEOUTERBOUND(#390,.T.);
#854=IFCFACEOUTERBOUND(#391,.T.);
#855=IFCFACEOUTERBOUND(#392,.T.);
#856=IFCFACEOUTERBOUND(#393,.T.);
#857=IFCFACEOUTERBOUND(#394,.T.);
#858=IFCFACEOUTERBOUND(#395,.T.);
#859=IFCFACEOUTERBOUND(#396,.T.);
#860=IFCFACEOUTERBOUND(#397,.T.);
#861=IFCFACEOUTERBOUND(#398,.T.);
#862=IFCFACEOUTERBOUND(#399,.T.);
#863=IFCFACEOUTERBOUND(#400,.T.);
#864=IFCFACEOUTERBOUND(#401,.T.);
#865=IFCFACEOUTERBOUND(#402,.T.);
#866=IFCFACEOUTERBOUND(#403,.T.);
#867=IFCFACEOUTERBOUND(#404,.T.);
#868=IFCFACEOUTERBOUND(#405,.T.);
#869=IFCFACEOUTERBOUND(#406,.T.);
#870=IFCFACEOUTERBOUND(#407,.T.);
#871=IFCFACEOUTERBOUND(#408,.T.);
#872=IFCFACEOUTERBOUND(#409,.T.);
#873=IFCFACEOUTERBOUND(#410,.T.);
#874=IFCFACEOUTERBOUND(#411,.T.);
#875=IFCFACEOUTERBOUND(#412,.T.);
#876=IFCFACEOUTERBOUND(#413,.T.);
#877=IFCFACEOUTERBOUND(#414,.T.);
#878=IFCFACEOUTERBOUND(#415,.T.);
#879=IFCFACEOUTERBOUND(#416,.T.);
#880=IFCFACEOUTERBOUND(#417,.T.);
#881=IFCFACEOUTERBOUND(#418,.T.);
#882=IFCFACEOUTERBOUND(#419,.T.);
#883=IFCFACEOUTERBOUND(#420,.T.);
#884=IFCFACEOUTERBOUND(#421,.T.);
#885=IFCFACEOUTERBOUND(#422,.T.);
#886=IFCFACEOUTERBOUND(#423,.T.);
#887=IFCFACEOUTERBOUND(#424,.T.);
#888=IFCFACEOUTERBOUND(#425,.T.);
#889=IFCFACEOUTERBOUND(#426,.T.);
#890=IFCFACEOUTERBOUND(#427,.T.);
#891=IFCFACEOUTERBOUND(#428,.T.);
#892=IFCFACEOUTERBOUND(#429,.T.);
#893=IFCFACEOUTERBOUND(#430,.T.);
#894=IFCFACEOUTERBOUND(#431,.T.);
#895=IFCFACEOUTERBOUND(#432,.T.);
#896=IFCFACEOUTERBOUND(#433,.T.);
#897=IFCFACEOUTERBOUND(#434,.T.);
#898=IFCFACEOUTERBOUND(#435,.T.);
#899=IFCFACEOUTERBOUND(#436,.T.);
#900=IFCFACEOUTERBOUND(#437,.T.);
#901=IFCFACEOUTERBOUND(#438,.T.);
#902=IFCFACEOUTERBOUND(#439,.T.);
#903=IFCFACEOUTERBOUND(#440,.T.);
#904=IFCFACEOUTERBOUND(#441,.T.);
#905=IFCFACEOUTERBOUND(#442,.T.);
#906=IFCFACEOUTERBOUND(#443,.T.);
#907=IFCFACEOUTERBOUND(#444,.T.);
#908=IFCFACEOUTERBOUND(#445,.T.);
#909=IFCFACEOUTERBOUND(#446,.T.);
#910=IFCFACEOUTERBOUND(#447,.T.);
#911=IFCFACEOUTERBOUND(#448,.T.);
#912=IFCFACEOUTERBOUND(#449,.T.);
#913=IFCFACEOUTERBOUND(#450,.T.);
#914=IFCFACEOUTERBOUND(#451,.T.);
#915=IFCFACEOUTERBOUND(#452,.T.);
#916=IFCFACEOUTERBOUND(#453,.T.);
#917=IFCFACEOUTERBOUND(#454,.T.);
#918=IFCFACEOUTERBOUND(#455,.T.);
#919=IFCFACEOUTERBOUND(#456,.T.);
#920=IFCFACEOUTERBOUND(#457,.T.);
#921=IFCFACEOUTERBOUND(#458,.T.);
#922=IFCFACEOUTERBOUND(#459,.T.);
#923=IFCFACEOUTERBOUND(#460,.T.);
#924=IFCFACEOUTERBOUND(#461,.T.);
#925=IFCFACEOUTERBOUND(#462,.T.);
#926=IFCFACEOUTERBOUND(#463,.T.);
#927=IFCFACEOUTERBOUND(#464,.T.);
#928=IFCFACEOUTERBOUND(#465,.T.);
#929=IFCFACEOUTERBOUND(#466,.T.);
#930=IFCFACEOUTERBOUND(#467,.T.);
#931=IFCFACEOUTERBOUND(#468,.T.);
#932=IFCFACEOUTERBOUND(#469,.T.);
#933=IFCFACEOUTERBOUND(#470,.T.);
#934=IFCFACEOUTERBOUND(#471,.T.);
#935=IFCFACEOUTERBOUND(#472,.T.);
#936=IFCFACEOUTERBOUND(#473,.T.);
#937=IFCFACEOUTERBOUND(#474,.T.);
#938=IFCFACEOUTERBOUND(#475,.T.);
#939=IFCFACEOUTERBOUND(#476,.T.);
#940=IFCFACEOUTERBOUND(#477,.T.);
#941=IFCFACEOUTERBOUND(#478,.T.);
#942=IFCFACEOUTERBOUND(#479,.T.);
#943=IFCFACEOUTERBOUND(#480,.T.);
#944=IFCFACEOUTERBOUND(#481,.T.);
#945=IFCFACEOUTERBOUND(#482,.T.);
#946=IFCFACEOUTERBOUND(#483,.T.);
#947=IFCFACEOUTERBOUND(#484,.T.);
#948=IFCFACEOUTERBOUND(#485,.T.);
#949=IFCFACEOUTERBOUND(#486,.T.);
#950=IFCFACEOUTERBOUND(#487,.T.);
#951=IFCFACEOUTERBOUND(#488,.T.);
#952=IFCFACE((#489));
#953=IFCFACE((#490));
#954=IFCFACE((#491));
#955=IFCFACE((#492));
#956=IFCFACE((#493));
#957=IFCFACE((#494));
#958=IFCFACE((#495));
#959=IFCFACE((#496));
#960=IFCFACE((#497));
#961=IFCFACE((#498));
#962=IFCFACE((#499));
#963=IFCFACE((#500));
#964=IFCFACE((#501));
#965=IFCFACE((#502));
#966=IFCFACE((#503));
#967=IFCFACE((#504));
#968=IFCFACE((#505));
#969=IFCFACE((#506));
#970=IFCFACE((#507));
#971=IFCFACE((#508));
#972=IFCFACE((#509));
#973=IFCFACE((#510));
#974=IFCFACE((#511));
#975=IFCFACE((#512));
#976=IFCFACE((#513));
#977=IFCFACE((#514));
#978=IFCFACE((#515));
#979=IFCFACE((#516));
#980=IFCFACE((#517));
#981=IFCFACE((#518));
#982=IFCFACE((#519));
#983=IFCFACE((#520));
#984=IFCFACE((#521));
#985=IFCFACE((#522));
#986=IFCFACE((#523));
#987=IFCFACE((#524));
#988=IFCFACE((#525));
#989=IFCFACE((#526));
#990=IFCFACE((#527));
#991=IFCFACE((#528));
#992=IFCFACE((#529));
#993=IFCFACE((#530));
#994=IFCFACE((#531));
#995=IFCFACE((#532));
#996=IFCFACE((#533));
#997=IFCFACE((#534));
#998=IFCFACE((#535));
#999=IFCFACE((#536));
#1000=IFCFACE((#537));
#1001=IFCFACE((#538));
#1002=IFCFACE((#539));
#1003=IFCFACE((#540));
#1004=IFCFACE((#541));
#1005=IFCFACE((#542));
#1006=IFCFACE((#543));
#1007=IFCFACE((#544));
#1008=IFCFACE((#545));
#1009=IFCFACE((#546));
#1010=IFCFACE((#547));
#1011=IFCFACE((#548));
#1012=IFCFACE((#549));
#1013=IFCFACE((#550));
#1014=IFCFACE((#551));
#1015=IFCFACE((#552));
#1016=IFCFACE((#553));
#1017=IFCFACE((#554));
#1018=IFCFACE((#555));
#1019=IFCFACE((#556));
#1020=IFCFACE((#557));
#1021=IFCFACE((#558));
#1022=IFCFACE((#559));
#1023=IFCFACE((#560));
#1024=IFCFACE((#561));
#1025=IFCFACE((#562));
#1026=IFCFACE((#563));
#1027=IFCFACE((#564));
#1028=IFCFACE((#565));
#1029=IFCFACE((#566));
#1030=IFCFACE((#567));
#1031=IFCFACE((#568));
#1032=IFCFACE((#569));
#1033=IFCFACE((#570));
#1034=IFCFACE((#571));
#1035=IFCFACE((#572));
#1036=IFCFACE((#573));
#1037=IFCFACE((#574));
#1038=IFCFACE((#575));
#1039=IFCFACE((#576));
#1040=IFCFACE((#577));
#1041=IFCFACE((#578));
#1042=IFCFACE((#579));
#1043=IFCFACE((#580));
#1044=IFCFACE((#581));
#1045=IFCFACE((#582));
#1046=IFCFACE((#583));
#1047=IFCFACE((#584));
#1048=IFCFACE((#585));
#1049=IFCFACE((#586));
#1050=IFCFACE((#587));
#1051=IFCFACE((#588));
#1052=IFCFACE((#589));
#1053=IFCFACE((#590));
#1054=IFCFACE((#591));
#1055=IFCFACE((#592));
#1056=IFCFACE((#593));
#1057=IFCFACE((#594));
#1058=IFCFACE((#595));
#1059=IFCFACE((#596));
#1060=IFCFACE((#597));
#1061=IFCFACE((#598));
#1062=IFCFACE((#599));
#1063=IFCFACE((#600));
#1064=IFCFACE((#601));
#1065=IFCFACE((#602));
#1066=IFCFACE((#603));
#1067=IFCFACE((#604));
#1068=IFCFACE((#605));
#1069=IFCFACE((#606));
#1070=IFCFACE((#607));
#1071=IFCFACE((#608));
#1072=IFCFACE((#609));
#1073=IFCFACE((#610));
#1074=IFCFACE((#611));
#1075=IFCFACE((#612));
#1076=IFCFACE((#613));
#1077=IFCFACE((#614));
#1078=IFCFACE((#615));
#1079=IFCFACE((#616));
#1080=IFCFACE((#617));
#1081=IFCFACE((#618));
#1082=IFCFACE((#619));
#1083=IFCFACE((#620));
#1084=IFCFACE((#621));
#1085=IFCFACE((#622));
#1086=IFCFACE((#623));
#1087=IFCFACE((#624));
#1088=IFCFACE((#625));
#1089=IFCFACE((#626));
#1090=IFCFACE((#627));
#1091=IFCFACE((#628));
#1092=IFCFACE((#629));
#1093=IFCFACE((#630));
#1094=IFCFACE((#631));
#1095=IFCFACE((#632));
#1096=IFCFACE((#633));
#1097=IFCFACE((#634));
#1098=IFCFACE((#635));
#1099=IFCFACE((#636));
#1100=IFCFACE((#637));
#1101=IFCFACE((#638));
#1102=IFCFACE((#639));
#1103=IFCFACE((#640));
#1104=IFCFACE((#641));
#1105=IFCFACE((#642));
#1106=IFCFACE((#643));
#1107=IFCFACE((#644));
#1108=IFCFACE((#645));
#1109=IFCFACE((#646));
#1110=IFCFACE((#647));
#1111=IFCFACE((#648));
#1112=IFCFACE((#649));
#1113=IFCFACE((#650));
#1114=IFCFACE((#651));
#1115=IFCFACE((#652));
#1116=IFCFACE((#653));
#1117=IFCFACE((#654));
#1118=IFCFACE((#655));
#1119=IFCFACE((#656));
#1120=IFCFACE((#657));
#1121=IFCFACE((#658));
#1122=IFCFACE((#659));
#1123=IFCFACE((#660));
#1124=IFCFACE((#661));
#1125=IFCFACE((#662));
#1126=IFCFACE((#663));
#1127=IFCFACE((#664));
#1128=IFCFACE((#665));
#1129=IFCFACE((#666));
#1130=IFCFACE((#667));
#1131=IFCFACE((#668));
#1132=IFCFACE((#669));
#1133=IFCFACE((#670));
#1134=IFCFACE((#671));
#1135=IFCFACE((#672));
#1136=IFCFACE((#673));
#1137=IFCFACE((#674));
#1138=IFCFACE((#675));
#1139=IFCFACE((#676));
#1140=IFCFACE((#677));
#1141=IFCFACE((#678));
#1142=IFCFACE((#679));
#1143=IFCFACE((#680));
#1144=IFCFACE((#681));
#1145=IFCFACE((#682));
#1146=IFCFACE((#683));
#1147=IFCFACE((#684));
#1148=IFCFACE((#685));
#1149=IFCFACE((#686));
#1150=IFCFACE((#687));
#1151=IFCFACE((#688));
#1152=IFCFACE((#689));
#1153=IFCFACE((#690));
#1154=IFCFACE((#691));
#1155=IFCFACE((#692));
#1156=IFCFACE((#693));
#1157=IFCFACE((#694));
#1158=IFCFACE((#695));
#1159=IFCFACE((#696));
#1160=IFCFACE((#697));
#1161=IFCFACE((#698));
#1162=IFCFACE((#699));
#1163=IFCFACE((#700));
#1164=IFCFACE((#701));
#1165=IFCFACE((#702));
#1166=IFCFACE((#703));
#1167=IFCFACE((#704));
#1168=IFCFACE((#705));
#1169=IFCFACE((#706));
#1170=IFCFACE((#707));
#1171=IFCFACE((#708));
#1172=IFCFACE((#709));
#1173=IFCFACE((#710));
#1174=IFCFACE((#711));
#1175=IFCFACE((#712));
#1176=IFCFACE((#713));
#1177=IFCFACE((#714));
#1178=IFCFACE((#715));
#1179=IFCFACE((#716));
#1180=IFCFACE((#717));
#1181=IFCFACE((#718));
#1182=IFCFACE((#719));
#1183=IFCFACE((#720));
#1184=IFCFACE((#721));
#1185=IFCFACE((#722));
#1186=IFCFACE((#723));
#1187=IFCFACE((#724));
#1188=IFCFACE((#725));
#1189=IFCFACE((#726));
#1190=IFCFACE((#727));
#1191=IFCFACE((#728));
#1192=IFCFACE((#729));
#1193=IFCFACE((#730));
#1194=IFCFACE((#731));
#1195=IFCFACE((#732));
#1196=IFCFACE((#733));
#1197=IFCFACE((#734));
#1198=IFCFACE((#735));
#1199=IFCFACE((#736));
#1200=IFCFACE((#737));
#1201=IFCFACE((#738));
#1202=IFCFACE((#739));
#1203=IFCFACE((#740));
#1204=IFCFACE((#741));
#1205=IFCFACE((#742));
#1206=IFCFACE((#743));
#1207=IFCFACE((#744));
#1208=IFCFACE((#745));
#1209=IFCFACE((#746));
#1210=IFCFACE((#747));
#1211=IFCFACE((#748));
#1212=IFCFACE((#749));
#1213=IFCFACE((#750));
#1214=IFCFACE((#751));
#1215=IFCFACE((#752));
#1216=IFCFACE((#753));
#1217=IFCFACE((#754));
#1218=IFCFACE((#755));
#1219=IFCFACE((#756));
#1220=IFCFACE((#757));
#1221=IFCFACE((#758));
#1222=IFCFACE((#759));
#1223=IFCFACE((#760));
#1224=IFCFACE((#761));
#1225=IFCFACE((#762));
#1226=IFCFACE((#763));
#1227=IFCFACE((#764));
#1228=IFCFACE((#765));
#1229=IFCFACE((#766));
#1230=IFCFACE((#767));
#1231=IFCFACE((#768));
#1232=IFCFACE((#769));
#1233=IFCFACE((#770));
#1234=IFCFACE((#771));
#1235=IFCFACE((#772));
#1236=IFCFACE((#773));
#1237=IFCFACE((#774));
#1238=IFCFACE((#775));
#1239=IFCFACE((#776));
#1240=IFCFACE((#777));
#1241=IFCFACE((#778));
#1242=IFCFACE((#779));
#1243=IFCFACE((#780));
#1244=IFCFACE((#781));
#1245=IFCFACE((#782));
#1246=IFCFACE((#783));
#1247=IFCFACE((#784));
#1248=IFCFACE((#785));
#1249=IFCFACE((#786));
#1250=IFCFACE((#787));
#1251=IFCFACE((#788));
#1252=IFCFACE((#789));
#1253=IFCFACE((#790));
#1254=IFCFACE((#791));
#1255=IFCFACE((#792));
#1256=IFCFACE((#793));
#1257=IFCFACE((#794));
#1258=IFCFACE((#795));
#1259=IFCFACE((#796));
#1260=IFCFACE((#797));
#1261=IFCFACE((#798));
#1262=IFCFACE((#799));
#1263=IFCFACE((#800));
#1264=IFCFACE((#801));
#1265=IFCFACE((#802));
#1266=IFCFACE((#803));
#1267=IFCFACE((#804));
#1268=IFCFACE((#805));
#1269=IFCFACE((#806));
#1270=IFCFACE((#807));
#1271=IFCFACE((#808));
#1272=IFCFACE((#809));
#1273=IFCFACE((#810));
#1274=IFCFACE((#811));
#1275=IFCFACE((#812));
#1276=IFCFACE((#813));
#1277=IFCFACE((#814));
#1278=IFCFACE((#815));
#1279=IFCFACE((#816));
#1280=IFCFACE((#817));
#1281=IFCFACE((#818));
#1282=IFCFACE((#819));
#1283=IFCFACE((#820));
#1284=IFCFACE((#821));
#1285=IFCFACE((#822));
#1286=IFCFACE((#823));
#1287=IFCFACE((#824));
#1288=IFCFACE((#825));
#1289=IFCFACE((#826));
#1290=IFCFACE((#827));
#1291=IFCFACE((#828));
#1292=IFCFACE((#829));
#1293=IFCFACE((#830));
#1294=IFCFACE((#831));
#1295=IFCFACE((#832));
#1296=IFCFACE((#833));
#1297=IFCFACE((#834));
#1298=IFCFACE((#835));
#1299=IFCFACE((#836));
#1300=IFCFACE((#837));
#1301=IFCFACE((#838));
#1302=IFCFACE((#839));
#1303=IFCFACE((#840));
#1304=IFCFACE((#841));
#1305=IFCFACE((#842));
#1306=IFCFACE((#843));
#1307=IFCFACE((#844));
#1308=IFCFACE((#845));
#1309=IFCFACE((#846));
#1310=IFCFACE((#847));
#1311=IFCFACE((#848));
#1312=IFCFACE((#849));
#1313=IFCFACE((#850));
#1314=IFCFACE((#851));
#1315=IFCFACE((#852));
#1316=IFCFACE((#853));
#1317=IFCFACE((#854));
#1318=IFCFACE((#855));
#1319=IFCFACE((#856));
#1320=IFCFACE((#857));
#1321=IFCFACE((#858));
#1322=IFCFACE((#859));
#1323=IFCFACE((#860));
#1324=IFCFACE((#861));
#1325=IFCFACE((#862));
#1326=IFCFACE((#863));
#1327=IFCFACE((#864));
#1328=IFCFACE((#865));
#1329=IFCFACE((#866));
#1330=IFCFACE((#867));
#1331=IFCFACE((#868));
#1332=IFCFACE((#869));
#1333=IFCFACE((#870));
#1334=IFCFACE((#871));
#1335=IFCFACE((#872));
#1336=IFCFACE((#873));
#1337=IFCFACE((#874));
#1338=IFCFACE((#875));
#1339=IFCFACE((#876));
#1340=IFCFACE((#877));
#1341=IFCFACE((#878));
#1342=IFCFACE((#879));
#1343=IFCFACE((#880));
#1344=IFCFACE((#881));
#1345=IFCFACE((#882));
#1346=IFCFACE((#883));
#1347=IFCFACE((#884));
#1348=IFCFACE((#885));
#1349=IFCFACE((#886));
#1350=IFCFACE((#887));
#1351=IFCFACE((#888));
#1352=IFCFACE((#889));
#1353=IFCFACE((#890));
#1354=IFCFACE((#891));
#1355=IFCFACE((#892));
#1356=IFCFACE((#893));
#1357=IFCFACE((#894));
#1358=IFCFACE((#895));
#1359=IFCFACE((#896));
#1360=IFCFACE((#897));
#1361=IFCFACE((#898));
#1362=IFCFACE((#899));
#1363=IFCFACE((#900));
#1364=IFCFACE((#901));
#1365=IFCFACE((#902));
#1366=IFCFACE((#903));
#1367=IFCFACE((#904));
#1368=IFCFACE((#905));
#1369=IFCFACE((#906));
#1370=IFCFACE((#907));
#1371=IFCFACE((#908));
#1372=IFCFACE((#909));
#1373=IFCFACE((#910));
#1374=IFCFACE((#911));
#1375=IFCFACE((#912));
#1376=IFCFACE((#913));
#1377=IFCFACE((#914));
#1378=IFCFACE((#915));
#1379=IFCFACE((#916));
#1380=IFCFACE((#917));
#1381=IFCFACE((#918));
#1382=IFCFACE((#919));
#1383=IFCFACE((#920));
#1384=IFCFACE((#921));
#1385=IFCFACE((#922));
#1386=IFCFACE((#923));
#1387=IFCFACE((#924));
#1388=IFCFACE((#925));
#1389=IFCFACE((#926));
#1390=IFCFACE((#927));
#1391=IFCFACE((#928));
#1392=IFCFACE((#929));
#1393=IFCFACE((#930));
#1394=IFCFACE((#931));
#1395=IFCFACE((#932));
#1396=IFCFACE((#933));
#1397=IFCFACE((#934));
#1398=IFCFACE((#935));
#1399=IFCFACE((#936));
#1400=IFCFACE((#937));
#1401=IFCFACE((#938));
#1402=IFCFACE((#939));
#1403=IFCFACE((#940));
#1404=IFCFACE((#941));
#1405=IFCFACE((#942));
#1406=IFCFACE((#943));
#1407=IFCFACE((#944));
#1408=IFCFACE((#945));
#1409=IFCFACE((#946));
#1410=IFCFACE((#947));
#1411=IFCFACE((#948));
#1412=IFCFACE((#949));
#1413=IFCFACE((#950));
#1414=IFCFACE((#951));
#1415=IFCCLOSEDSHELL((#952,#953,#954,#955,#956,#957,#958,#959,#960,#961,
#962,#963,#964,#965,#966,#967,#968,#969,#970,#971,#972,#973,#974,#975,#976,
#977,#978,#979,#980,#981,#982,#983,#984,#985,#986,#987,#988,#989,#990,#991,
#992,#993,#994,#995,#996,#997,#998,#999,#1000,#1001,#1002,#1003,#1004,#1005,
#1006,#1007,#1008,#1009,#1010,#1011,#1012,#1013,#1014,#1015,#1016,#1017,
#1018,#1019,#1020,#1021,#1022,#1023,#1024,#1025,#1026,#1027,#1028,#1029,
#1030,#1031,#1032,#1033,#1034,#1035,#1036,#1037,#1038,#1039,#1040,#1041,
#1042,#1043,#1044,#1045,#1046,#1047,#1048,#1049,#1050,#1051,#1052,#1053,
#1054,#1055,#1056,#1057,#1058,#1059,#1060,#1061,#1062,#1063,#1064,#1065,
#1066,#1067,#1068,#1069,#1070,#1071,#1072,#1073,#1074,#1075,#1076,#1077,
#1078,#1079,#1080,#1081,#1082,#1083,#1084,#1085,#1086,#1087,#1088,#1089,
#1090,#1091,#1092,#1093,#1094,#1095,#1096,#1097,#1098,#1099,#1100,#1101,
#1102,#1103,#1104,#1105,#1106,#1107,#1108,#1109,#1110,#1111,#1112,#1113,
#1114,#1115,#1116,#1117,#1118,#1119,#1120,#1121,#1122,#1123,#1124,#1125,
#1126,#1127,#1128,#1129,#1130,#1131,#1132,#1133,#1134,#1135,#1136,#1137,
#1138,#1139,#1140,#1141,#1142,#1143,#1144,#1145,#1146,#1147,#1148,#1149,
#1150,#1151,#1152,#1153,#1154,#1155,#1156,#1157,#1158,#1159,#1160,#1161,
#1162,#1163,#1164,#1165,#1166,#1167,#1168,#1169,#1170,#1171,#1172,#1173,
#1174,#1175,#1176,#1177,#1178,#1179,#1180,#1181,#1182,#1183,#1184,#1185,
#1186,#1187,#1188,#1189,#1190,#1191,#1192,#1193,#1194,#1195,#1196,#1197,
#1198,#1199,#1200,#1201,#1202,#1203,#1204,#1205,#1206,#1207,#1208,#1209,
#1210,#1211,#1212,#1213,#1214,#1215,#1216,#1217,#1218,#1219,#1220,#1221,
#1222,#1223,#1224,#1225,#1226,#1227,#1228,#1229,#1230,#1231,#1232,#1233,
#1234,#1235,#1236,#1237,#1238,#1239,#1240,#1241,#1242,#1243,#1244,#1245,
#1246,#1247,#1248,#1249,#1250,#1251,#1252,#1253,#1254,#1255,#1256,#1257,
#1258,#1259,#1260,#1261,#1262,#1263,#1264,#1265,#1266,#1267,#1268,#1269,
#1270,#1271,#1272,#1273,#1274,#1275,#1276,#1277,#1278,#1279,#1280,#1281,
#1282,#1283,#1284,#1285,#1286,#1287,#1288,#1289,#1290,#1291,#1292,#1293,
#1294,#1295,#1296,#1297,#1298,#1299,#1300,#1301,#1302,#1303,#1304,#1305,
#1306,#1307,#1308,#1309,#1310,#1311,#1312,#1313,#1314,#1315,#1316,#1317,
#1318,#1319,#1320,#1321,#1322,#1323,#1324,#1325,#1326,#1327,#1328,#1329,
#1330,#1331,#1332,#1333,#1334,#1335,#1336,#1337,#1338,#1339,#1340,#1341,
#1342,#1343,#1344,#1345,#1346,#1347,#1348,#1349,#1350,#1351,#1352,#1353,
#1354,#1355,#1356,#1357,#1358,#1359,#1360,#1361,#1362,#1363,#1364,#1365,
#1366,#1367,#1368,#1369,#1370,#1371,#1372,#1373,#1374,#1375,#1376,#1377,
#1378,#1379,#1380,#1381,#1382,#1383,#1384,#1385,#1386,#1387,#1388,#1389,
#1390,#1391,#1392,#1393,#1394,#1395,#1396,#1397,#1398,#1399,#1400,#1401,
#1402,#1403,#1404,#1405,#1406,#1407,#1408,#1409,#1410,#1411,#1412,#1413,
#1414));
#1416=IFCSTYLEDITEM(#1421,(#1417),'');
#1417=IFCPRESENTATIONSTYLEASSIGNMENT((#1418));
#1418=IFCSURFACESTYLE('',.BOTH.,(#1419));
#1419=IFCSURFACESTYLERENDERING(#1420,0.,$,$,$,$,$,$,.NOTDEFINED.);
#1420=IFCCOLOURRGB('',0.506983280181885,0.531564235687256,0.550000011920929);
#1421=IFCFACETEDBREP(#1415);
#1422=IFCPROJECT('07hUkdHgGydfWsFJH56q5B',#1783,'ClGray_4211622_JCA',
' ',' ',' ',' ',(#1778),#1423);
#1423=IFCUNITASSIGNMENT((#1779,#1780,#1781,#1782));
#1424=IFCGEOMETRICREPRESENTATIONSUBCONTEXT('Body','Model',*,*,*,*,#1778,
1.,.MODEL_VIEW.,$);
#1425=IFCAXIS2PLACEMENT3D(#1431,#1427,#1428);
#1426=IFCAXIS2PLACEMENT3D(#1777,#1429,#1430);
#1427=IFCDIRECTION((0.,0.,1.));
#1428=IFCDIRECTION((1.,0.,0.));
#1429=IFCDIRECTION((0.,0.,1.));
#1430=IFCDIRECTION((1.,0.,0.));
#1431=IFCCARTESIANPOINT((0.,0.,0.));
#1432=IFCCARTESIANPOINT((-8.,-1.37766035651432,3.32596631704063));
#1433=IFCCARTESIANPOINT((-7.,-1.37766035651432,3.32596631704063));
#1434=IFCCARTESIANPOINT((-7.,0.,3.6));
#1435=IFCCARTESIANPOINT((-8.,0.,3.6));
#1436=IFCCARTESIANPOINT((-8.,-2.54558441227157,2.54558441227157));
#1437=IFCCARTESIANPOINT((-7.,-2.54558441227157,2.54558441227157));
#1438=IFCCARTESIANPOINT((-8.,-3.32596631704063,1.37766035651432));
#1439=IFCCARTESIANPOINT((-7.,-3.32596631704063,1.37766035651432));
#1440=IFCCARTESIANPOINT((-8.,-3.6,-6.61309271539571E-16));
#1441=IFCCARTESIANPOINT((-7.,-3.6,-6.61309271539571E-16));
#1442=IFCCARTESIANPOINT((-8.,-3.32596631704063,-1.37766035651432));
#1443=IFCCARTESIANPOINT((-7.,-3.32596631704063,-1.37766035651432));
#1444=IFCCARTESIANPOINT((-8.,-2.54558441227157,-2.54558441227157));
#1445=IFCCARTESIANPOINT((-7.,-2.54558441227157,-2.54558441227157));
#1446=IFCCARTESIANPOINT((-8.,-1.37766035651432,-3.32596631704063));
#1447=IFCCARTESIANPOINT((-7.,-1.37766035651432,-3.32596631704063));
#1448=IFCCARTESIANPOINT((-8.,4.40872847693047E-16,-3.6));
#1449=IFCCARTESIANPOINT((-7.,4.40872847693047E-16,-3.6));
#1450=IFCCARTESIANPOINT((-8.,1.37766035651432,-3.32596631704063));
#1451=IFCCARTESIANPOINT((-7.,1.37766035651432,-3.32596631704063));
#1452=IFCCARTESIANPOINT((-8.,2.54558441227157,-2.54558441227157));
#1453=IFCCARTESIANPOINT((-7.,2.54558441227157,-2.54558441227157));
#1454=IFCCARTESIANPOINT((-8.,3.32596631704063,-1.37766035651432));
#1455=IFCCARTESIANPOINT((-7.,3.32596631704063,-1.37766035651432));
#1456=IFCCARTESIANPOINT((-8.,3.6,-5.78924153883589E-16));
#1457=IFCCARTESIANPOINT((-7.,3.6,2.20436423846524E-16));
#1458=IFCCARTESIANPOINT((-8.,3.32596631704063,1.37766035651432));
#1459=IFCCARTESIANPOINT((-7.,3.32596631704063,1.37766035651432));
#1460=IFCCARTESIANPOINT((-8.,2.54558441227157,2.54558441227157));
#1461=IFCCARTESIANPOINT((-7.,2.54558441227157,2.54558441227157));
#1462=IFCCARTESIANPOINT((-8.,1.37766035651432,3.32596631704063));
#1463=IFCCARTESIANPOINT((-7.,1.37766035651432,3.32596631704063));
#1464=IFCCARTESIANPOINT((-6.8501220663978,1.06434032907638,2.5356813017218));
#1465=IFCCARTESIANPOINT((-6.8501220663979,1.0523794390042,2.54066871440654));
#1466=IFCCARTESIANPOINT((-6.8501220663978,1.96278390626008,1.92613066465554));
#1467=IFCCARTESIANPOINT((-6.8501220663979,1.94454364826339,1.94454364826339));
#1468=IFCCARTESIANPOINT((-6.8501220663978,2.55529199850472,1.01635761539812));
#1469=IFCCARTESIANPOINT((-6.8501220663979,2.54066871440654,1.0523794390042));
#1470=IFCCARTESIANPOINT((-6.85012206640152,2.75000000000054,4.25080136979632E-13));
#1471=IFCCARTESIANPOINT((-6.8501220663978,2.55529199850488,-1.01635761539772));
#1472=IFCCARTESIANPOINT((-6.8501220663979,2.54066871440654,-1.0523794390042));
#1473=IFCCARTESIANPOINT((-6.8501220663978,1.96278390626038,-1.92613066465524));
#1474=IFCCARTESIANPOINT((-6.8501220663979,1.94454364826339,-1.94454364826339));
#1475=IFCCARTESIANPOINT((-6.8501220663978,1.06434032907677,-2.53568130172164));
#1476=IFCCARTESIANPOINT((-6.8501220663978,-1.06434032907638,-2.5356813017218));
#1477=IFCCARTESIANPOINT((-6.8501220663979,-1.0523794390042,-2.54066871440654));
#1478=IFCCARTESIANPOINT((-6.8501220663978,-1.96278390626008,-1.92613066465554));
#1479=IFCCARTESIANPOINT((-6.8501220663979,-1.94454364826339,-1.94454364826339));
#1480=IFCCARTESIANPOINT((-6.8501220663978,-2.55529199850472,-1.01635761539812));
#1481=IFCCARTESIANPOINT((-6.8501220663979,-2.54066871440654,-1.05237943900421));
#1482=IFCCARTESIANPOINT((-6.85012206640152,-2.75000000000054,-4.25080136979632E-13));
#1483=IFCCARTESIANPOINT((-6.8501220663978,-2.55529199850488,1.01635761539772));
#1484=IFCCARTESIANPOINT((-6.8501220663979,-2.54066871440654,1.0523794390042));
#1485=IFCCARTESIANPOINT((-6.8501220663978,-1.96278390626038,1.92613066465524));
#1486=IFCCARTESIANPOINT((-6.8501220663979,-1.94454364826339,1.94454364826339));
#1487=IFCCARTESIANPOINT((-6.8501220663978,-1.06434032907678,2.53568130172164));
#1488=IFCCARTESIANPOINT((-6.8501220663979,-1.0523794390042,2.54066871440654));
#1489=IFCCARTESIANPOINT((-6.8501220663979,-6.73555739531177E-16,2.75000000000054));
#1490=IFCCARTESIANPOINT((-6.8501220663979,3.36777869765588E-16,-2.75000000000054));
#1491=IFCCARTESIANPOINT((-6.8501220663979,1.0523794390042,-2.54066871440654));
#1492=IFCCARTESIANPOINT((-1.1498779336022,2.55529199850488,-1.01635761539772));
#1493=IFCCARTESIANPOINT((-1.1498779336022,2.54066871440603,-1.052379439004));
#1494=IFCCARTESIANPOINT((-1.1498779336022,1.96278390626038,-1.92613066465524));
#1495=IFCCARTESIANPOINT((-1.1498779336022,1.944543648263,-1.944543648263));
#1496=IFCCARTESIANPOINT((-1.1498779336022,1.06434032907677,-2.53568130172164));
#1497=IFCCARTESIANPOINT((-1.1498779336022,1.052379439004,-2.54066871440603));
#1498=IFCCARTESIANPOINT((-1.1498779336022,0.,-2.75));
#1499=IFCCARTESIANPOINT((-1.1498779336022,-1.05237943900399,-2.54066871440604));
#1500=IFCCARTESIANPOINT((-1.1498779336022,-1.06434032907638,-2.53568130172181));
#1501=IFCCARTESIANPOINT((-1.1498779336022,-1.944543648263,-1.944543648263));
#1502=IFCCARTESIANPOINT((-1.1498779336022,-1.96278390626008,-1.92613066465554));
#1503=IFCCARTESIANPOINT((-1.1498779336022,-2.54066871440603,-1.052379439004));
#1504=IFCCARTESIANPOINT((-1.39680456065616,2.72505623015472,-0.369551813004515));
#1505=IFCCARTESIANPOINT((-1.26703522112758,2.73541587331799,-0.282842712474619));
#1506=IFCCARTESIANPOINT((-6.4501220663978,2.72075357208256,-0.4));
#1507=IFCCARTESIANPOINT((-1.5498779336022,2.72075357208256,-0.400000000000007));
#1508=IFCCARTESIANPOINT((-6.60319543934384,2.72505623015472,-0.369551813004515));
#1509=IFCCARTESIANPOINT((-6.81967387940232,2.74573642990272,-0.153073372946037));
#1510=IFCCARTESIANPOINT((-6.73296477887242,2.73541587331799,-0.282842712474618));
#1511=IFCCARTESIANPOINT((-1.18032612059768,2.74573642990272,-0.153073372946036));
#1512=IFCCARTESIANPOINT((-6.60319543934384,-2.72505623015472,-0.369551813004516));
#1513=IFCCARTESIANPOINT((-6.73296477887242,-2.73541587331799,-0.28284271247462));
#1514=IFCCARTESIANPOINT((-1.1498779336022,-2.55529199850472,-1.01635761539812));
#1515=IFCCARTESIANPOINT((-1.5498779336022,-2.72075357208256,-0.4));
#1516=IFCCARTESIANPOINT((-6.4501220663978,-2.72075357208256,-0.400000000000007));
#1517=IFCCARTESIANPOINT((-1.39680456065616,-2.72505623015472,-0.369551813004514));
#1518=IFCCARTESIANPOINT((-1.18032612059768,-2.74573642990272,-0.153073372946036));
#1519=IFCCARTESIANPOINT((-1.26703522112758,-2.73541587331799,-0.282842712474618));
#1520=IFCCARTESIANPOINT((-6.81967387940232,-2.74573642990272,-0.153073372946036));
#1521=IFCCARTESIANPOINT((-1.1498779336022,-2.75,-3.04577334551403E-17));
#1522=IFCCARTESIANPOINT((-1.1498779336022,2.75,-3.04577334551403E-17));
#1523=IFCCARTESIANPOINT((-1.5498779336022,-2.36643191323985,-0.399999999999999));
#1524=IFCCARTESIANPOINT((-6.4501220663978,-2.36643191323985,-0.4));
#1525=IFCCARTESIANPOINT((-1.39680456065616,-2.37137754427782,-0.369551813004515));
#1526=IFCCARTESIANPOINT((-1.26703522112758,-2.3832750575626,-0.282842712474619));
#1527=IFCCARTESIANPOINT((-1.18032612059768,-2.39511347173676,-0.153073372946036));
#1528=IFCCARTESIANPOINT((-1.1498779336022,-2.4,-4.67030118913356E-16));
#1529=IFCCARTESIANPOINT((-1.18032612059768,-2.74573642990272,0.153073372946036));
#1530=IFCCARTESIANPOINT((-1.18032612059768,-2.39511347173676,0.153073372946036));
#1531=IFCCARTESIANPOINT((-1.26703522112758,-2.73541587331799,0.282842712474619));
#1532=IFCCARTESIANPOINT((-1.26703522112758,-2.38327505756259,0.282842712474617));
#1533=IFCCARTESIANPOINT((-1.39680456065616,-2.72505623015472,0.369551813004515));
#1534=IFCCARTESIANPOINT((-1.39680456065616,-2.37137754427781,0.369551813004514));
#1535=IFCCARTESIANPOINT((-1.5498779336022,-2.72075357208256,0.400000000000001));
#1536=IFCCARTESIANPOINT((-1.5498779336022,-2.36643191323985,0.400000000000001));
#1537=IFCCARTESIANPOINT((-6.4501220663978,-2.36643191323985,0.4));
#1538=IFCCARTESIANPOINT((-6.4501220663978,-2.72075357208256,0.4));
#1539=IFCCARTESIANPOINT((-6.60319543934384,-2.72505623015472,0.369551813004515));
#1540=IFCCARTESIANPOINT((-6.60319543934384,-2.37137754427782,0.369551813004516));
#1541=IFCCARTESIANPOINT((-6.73296477887242,-2.73541587331799,0.282842712474618));
#1542=IFCCARTESIANPOINT((-6.73296477887242,-2.3832750575626,0.28284271247462));
#1543=IFCCARTESIANPOINT((-6.81967387940232,-2.74573642990272,0.153073372946036));
#1544=IFCCARTESIANPOINT((-6.81967387940232,-2.39511347173676,0.153073372946036));
#1545=IFCCARTESIANPOINT((-6.8501220663978,-2.4,-7.84021543708942E-16));
#1546=IFCCARTESIANPOINT((-6.81967387940232,-2.39511347173676,-0.153073372946037));
#1547=IFCCARTESIANPOINT((-6.73296477887242,-2.38327505756259,-0.282842712474618));
#1548=IFCCARTESIANPOINT((-6.60319543934384,-2.37137754427781,-0.369551813004515));
#1549=IFCCARTESIANPOINT((-1.1498779336022,-2.55529199850488,1.01635761539772));
#1550=IFCCARTESIANPOINT((-1.1498779336022,-2.54066871440603,1.052379439004));
#1551=IFCCARTESIANPOINT((-1.1498779336022,-1.96278390626038,1.92613066465524));
#1552=IFCCARTESIANPOINT((-1.1498779336022,-1.944543648263,1.944543648263));
#1553=IFCCARTESIANPOINT((-1.1498779336022,-1.06434032907678,2.53568130172164));
#1554=IFCCARTESIANPOINT((-1.1498779336022,-1.052379439004,2.54066871440603));
#1555=IFCCARTESIANPOINT((-1.1498779336022,3.36777869765522E-16,2.75));
#1556=IFCCARTESIANPOINT((-1.1498779336022,1.052379439004,2.54066871440603));
#1557=IFCCARTESIANPOINT((-1.1498779336022,1.06434032907638,2.5356813017218));
#1558=IFCCARTESIANPOINT((-1.1498779336022,1.944543648263,1.944543648263));
#1559=IFCCARTESIANPOINT((-1.1498779336022,1.96278390626008,1.92613066465554));
#1560=IFCCARTESIANPOINT((-1.1498779336022,2.54066871440603,1.052379439004));
#1561=IFCCARTESIANPOINT((-6.60319543934384,2.72505623015472,0.369551813004516));
#1562=IFCCARTESIANPOINT((-6.73296477887242,2.73541587331799,0.28284271247462));
#1563=IFCCARTESIANPOINT((-1.1498779336022,2.55529199850472,1.01635761539812));
#1564=IFCCARTESIANPOINT((-1.5498779336022,2.72075357208256,0.400000000000001));
#1565=IFCCARTESIANPOINT((-6.4501220663978,2.72075357208256,0.4));
#1566=IFCCARTESIANPOINT((-1.39680456065616,2.72505623015472,0.369551813004515));
#1567=IFCCARTESIANPOINT((-1.18032612059768,2.74573642990272,0.153073372946036));
#1568=IFCCARTESIANPOINT((-1.26703522112758,2.73541587331799,0.282842712474618));
#1569=IFCCARTESIANPOINT((-6.81967387940232,2.74573642990272,0.153073372946036));
#1570=IFCCARTESIANPOINT((-6.4501220663978,2.36643191323985,-0.399999999999999));
#1571=IFCCARTESIANPOINT((-6.60319543934384,2.37137754427782,-0.369551813004516));
#1572=IFCCARTESIANPOINT((-6.73296477887242,2.3832750575626,-0.28284271247462));
#1573=IFCCARTESIANPOINT((-6.81967387940232,2.39511347173677,-0.153073372946037));
#1574=IFCCARTESIANPOINT((-6.8501220663978,2.4,-4.28750175828891E-16));
#1575=IFCCARTESIANPOINT((-6.81967387940232,2.39511347173677,0.153073372946036));
#1576=IFCCARTESIANPOINT((-6.73296477887242,2.3832750575626,0.282842712474618));
#1577=IFCCARTESIANPOINT((-6.60319543934384,2.37137754427781,0.369551813004515));
#1578=IFCCARTESIANPOINT((-6.4501220663978,2.36643191323985,0.4));
#1579=IFCCARTESIANPOINT((-1.5498779336022,2.36643191323985,0.400000000000001));
#1580=IFCCARTESIANPOINT((-1.39680456065616,2.37137754427782,0.369551813004516));
#1581=IFCCARTESIANPOINT((-1.26703522112758,2.3832750575626,0.282842712474619));
#1582=IFCCARTESIANPOINT((-1.18032612059768,2.39511347173677,0.153073372946036));
#1583=IFCCARTESIANPOINT((-1.1498779336022,2.4,-3.78212276943344E-16));
#1584=IFCCARTESIANPOINT((-1.18032612059768,2.39511347173677,-0.153073372946036));
#1585=IFCCARTESIANPOINT((-1.26703522112758,2.3832750575626,-0.282842712474617));
#1586=IFCCARTESIANPOINT((-1.39680456065616,2.37137754427781,-0.369551813004514));
#1587=IFCCARTESIANPOINT((-1.5498779336022,2.36643191323985,-0.4));
#1588=IFCCARTESIANPOINT((-3.46944695195361E-15,2.4,-3.85949435922393E-16));
#1589=IFCCARTESIANPOINT((-3.46944695195361E-15,2.25014177247108,0.834782608695652));
#1590=IFCCARTESIANPOINT((-8.,2.25014177247108,0.834782608695652));
#1591=IFCCARTESIANPOINT((-8.,2.4,-3.85949435922393E-16));
#1592=IFCCARTESIANPOINT((-8.,2.25014177247108,-0.834782608695653));
#1593=IFCCARTESIANPOINT((-3.46944695195361E-15,2.25014177247108,-0.834782608695653));
#1594=IFCCARTESIANPOINT((-8.,2.23543793189619,-0.86124353651175));
#1595=IFCCARTESIANPOINT((-3.46944695195361E-15,2.23543793189619,-0.86124353651175));
#1596=IFCCARTESIANPOINT((-8.,2.2134898893568,-0.882092206906519));
#1597=IFCCARTESIANPOINT((-3.46944695195361E-15,2.2134898893568,-0.882092206906519));
#1598=IFCCARTESIANPOINT((-8.,2.18630892753907,-0.895418081857298));
#1599=IFCCARTESIANPOINT((-3.46944695195361E-15,2.18630892753907,-0.895418081857298));
#1600=IFCCARTESIANPOINT((-8.,2.15638586528478,-0.900000000000001));
#1601=IFCCARTESIANPOINT((-3.46944695195361E-15,2.15638586528478,-0.900000000000001));
#1602=IFCCARTESIANPOINT((-8.,2.18630892753907,0.895418081857297));
#1603=IFCCARTESIANPOINT((0.,2.18630892753907,0.895418081857297));
#1604=IFCCARTESIANPOINT((0.,2.15638586528478,0.9));
#1605=IFCCARTESIANPOINT((-8.,2.15638586528478,0.9));
#1606=IFCCARTESIANPOINT((-8.,2.2134898893568,0.882092206906518));
#1607=IFCCARTESIANPOINT((0.,2.2134898893568,0.882092206906518));
#1608=IFCCARTESIANPOINT((-8.,2.23543793189619,0.86124353651175));
#1609=IFCCARTESIANPOINT((0.,2.23543793189619,0.86124353651175));
#1610=IFCCARTESIANPOINT((0.,1.4,0.9));
#1611=IFCCARTESIANPOINT((-8.,1.4,0.9));
#1612=IFCCARTESIANPOINT((-8.,0.938060233744357,1.20865828381746));
#1613=IFCCARTESIANPOINT((0.,0.938060233744357,1.20865828381746));
#1614=IFCCARTESIANPOINT((0.,0.9,1.4));
#1615=IFCCARTESIANPOINT((-8.,0.9,1.4));
#1616=IFCCARTESIANPOINT((-8.,1.04644660940673,1.04644660940673));
#1617=IFCCARTESIANPOINT((0.,1.04644660940673,1.04644660940673));
#1618=IFCCARTESIANPOINT((-8.,1.20865828381746,0.938060233744357));
#1619=IFCCARTESIANPOINT((0.,1.20865828381746,0.938060233744357));
#1620=IFCCARTESIANPOINT((0.,0.9,2.15638586528478));
#1621=IFCCARTESIANPOINT((-8.,0.9,2.15638586528478));
#1622=IFCCARTESIANPOINT((-8.,0.86124353651175,2.23543793189619));
#1623=IFCCARTESIANPOINT((0.,0.86124353651175,2.23543793189619));
#1624=IFCCARTESIANPOINT((0.,0.834782608695652,2.25014177247108));
#1625=IFCCARTESIANPOINT((-8.,0.834782608695652,2.25014177247108));
#1626=IFCCARTESIANPOINT((-8.,0.882092206906518,2.2134898893568));
#1627=IFCCARTESIANPOINT((0.,0.882092206906518,2.2134898893568));
#1628=IFCCARTESIANPOINT((-8.,0.895418081857298,2.18630892753907));
#1629=IFCCARTESIANPOINT((0.,0.895418081857298,2.18630892753907));
#1630=IFCCARTESIANPOINT((-8.,-5.87830463590729E-16,2.4));
#1631=IFCCARTESIANPOINT((0.,-5.87830463590729E-16,2.4));
#1632=IFCCARTESIANPOINT((0.,-0.834782608695651,2.25014177247108));
#1633=IFCCARTESIANPOINT((-8.,-0.834782608695651,2.25014177247108));
#1634=IFCCARTESIANPOINT((-8.,-0.895418081857297,2.18630892753907));
#1635=IFCCARTESIANPOINT((-3.46944695195361E-15,-0.895418081857297,2.18630892753907));
#1636=IFCCARTESIANPOINT((-3.46944695195361E-15,-0.899999999999999,2.15638586528478));
#1637=IFCCARTESIANPOINT((-8.,-0.899999999999999,2.15638586528478));
#1638=IFCCARTESIANPOINT((-8.,-0.882092206906518,2.2134898893568));
#1639=IFCCARTESIANPOINT((-3.46944695195361E-15,-0.882092206906518,2.2134898893568));
#1640=IFCCARTESIANPOINT((-8.,-0.861243536511749,2.23543793189619));
#1641=IFCCARTESIANPOINT((-3.46944695195361E-15,-0.861243536511749,2.23543793189619));
#1642=IFCCARTESIANPOINT((-8.,1.4,-0.900000000000001));
#1643=IFCCARTESIANPOINT((0.,1.4,-0.900000000000001));
#1644=IFCCARTESIANPOINT((-8.,1.20865828381746,-0.938060233744357));
#1645=IFCCARTESIANPOINT((0.,1.20865828381746,-0.938060233744357));
#1646=IFCCARTESIANPOINT((-8.,1.04644660940673,-1.04644660940673));
#1647=IFCCARTESIANPOINT((0.,1.04644660940673,-1.04644660940673));
#1648=IFCCARTESIANPOINT((-8.,0.938060233744357,-1.20865828381746));
#1649=IFCCARTESIANPOINT((0.,0.938060233744357,-1.20865828381746));
#1650=IFCCARTESIANPOINT((-8.,0.9,-1.4));
#1651=IFCCARTESIANPOINT((0.,0.9,-1.4));
#1652=IFCCARTESIANPOINT((-8.,0.9,-2.15638586528478));
#1653=IFCCARTESIANPOINT((0.,0.9,-2.15638586528478));
#1654=IFCCARTESIANPOINT((-8.,0.895418081857297,-2.18630892753907));
#1655=IFCCARTESIANPOINT((0.,0.895418081857297,-2.18630892753907));
#1656=IFCCARTESIANPOINT((-8.,0.882092206906518,-2.2134898893568));
#1657=IFCCARTESIANPOINT((0.,0.882092206906518,-2.2134898893568));
#1658=IFCCARTESIANPOINT((-8.,0.86124353651175,-2.23543793189619));
#1659=IFCCARTESIANPOINT((0.,0.86124353651175,-2.23543793189619));
#1660=IFCCARTESIANPOINT((-8.,0.834782608695652,-2.25014177247108));
#1661=IFCCARTESIANPOINT((-3.46944695195361E-15,0.834782608695652,-2.25014177247108));
#1662=IFCCARTESIANPOINT((-8.,2.93915231795365E-16,-2.4));
#1663=IFCCARTESIANPOINT((-3.46944695195361E-15,2.93915231795365E-16,-2.4));
#1664=IFCCARTESIANPOINT((-8.,-0.834782608695652,-2.25014177247108));
#1665=IFCCARTESIANPOINT((-3.46944695195361E-15,-0.834782608695652,-2.25014177247108));
#1666=IFCCARTESIANPOINT((-8.,-0.86124353651175,-2.23543793189619));
#1667=IFCCARTESIANPOINT((-3.46944695195361E-15,-0.86124353651175,-2.23543793189619));
#1668=IFCCARTESIANPOINT((-8.,-0.882092206906518,-2.2134898893568));
#1669=IFCCARTESIANPOINT((-3.46944695195361E-15,-0.882092206906518,-2.2134898893568));
#1670=IFCCARTESIANPOINT((-8.,-0.895418081857297,-2.18630892753907));
#1671=IFCCARTESIANPOINT((-3.46944695195361E-15,-0.895418081857297,-2.18630892753907));
#1672=IFCCARTESIANPOINT((-8.,-0.9,-2.15638586528478));
#1673=IFCCARTESIANPOINT((0.,-0.9,-2.15638586528478));
#1674=IFCCARTESIANPOINT((-8.,-0.9,-1.4));
#1675=IFCCARTESIANPOINT((0.,-0.9,-1.4));
#1676=IFCCARTESIANPOINT((-8.,-0.938060233744356,-1.20865828381746));
#1677=IFCCARTESIANPOINT((0.,-0.938060233744356,-1.20865828381746));
#1678=IFCCARTESIANPOINT((-8.,-1.04644660940673,-1.04644660940673));
#1679=IFCCARTESIANPOINT((0.,-1.04644660940673,-1.04644660940673));
#1680=IFCCARTESIANPOINT((-8.,-1.20865828381745,-0.938060233744357));
#1681=IFCCARTESIANPOINT((0.,-1.20865828381745,-0.938060233744357));
#1682=IFCCARTESIANPOINT((-8.,-1.4,-0.900000000000001));
#1683=IFCCARTESIANPOINT((0.,-1.4,-0.900000000000001));
#1684=IFCCARTESIANPOINT((-8.,-2.15638586528478,-0.900000000000001));
#1685=IFCCARTESIANPOINT((0.,-2.15638586528478,-0.900000000000001));
#1686=IFCCARTESIANPOINT((-8.,-2.18630892753907,-0.895418081857298));
#1687=IFCCARTESIANPOINT((0.,-2.18630892753907,-0.895418081857298));
#1688=IFCCARTESIANPOINT((-8.,-2.2134898893568,-0.882092206906519));
#1689=IFCCARTESIANPOINT((0.,-2.2134898893568,-0.882092206906519));
#1690=IFCCARTESIANPOINT((-8.,-2.23543793189619,-0.861243536511751));
#1691=IFCCARTESIANPOINT((0.,-2.23543793189619,-0.861243536511751));
#1692=IFCCARTESIANPOINT((-8.,-2.25014177247108,-0.834782608695653));
#1693=IFCCARTESIANPOINT((-3.46944695195361E-15,-2.25014177247108,-0.834782608695653));
#1694=IFCCARTESIANPOINT((-3.46944695195361E-15,-2.4,-4.40872847693047E-16));
#1695=IFCCARTESIANPOINT((-8.,-2.4,-4.40872847693047E-16));
#1696=IFCCARTESIANPOINT((-8.,-2.25014177247108,0.834782608695653));
#1697=IFCCARTESIANPOINT((-3.46944695195361E-15,-2.25014177247108,0.834782608695653));
#1698=IFCCARTESIANPOINT((-8.,-2.23543793189619,0.86124353651175));
#1699=IFCCARTESIANPOINT((-3.46944695195361E-15,-2.23543793189619,0.86124353651175));
#1700=IFCCARTESIANPOINT((-8.,-2.2134898893568,0.882092206906519));
#1701=IFCCARTESIANPOINT((-3.46944695195361E-15,-2.2134898893568,0.882092206906519));
#1702=IFCCARTESIANPOINT((-8.,-2.18630892753907,0.895418081857298));
#1703=IFCCARTESIANPOINT((-3.46944695195361E-15,-2.18630892753907,0.895418081857298));
#1704=IFCCARTESIANPOINT((-8.,-2.15638586528478,0.900000000000001));
#1705=IFCCARTESIANPOINT((-3.46944695195361E-15,-2.15638586528478,0.900000000000001));
#1706=IFCCARTESIANPOINT((-8.,-0.899999999999999,1.4));
#1707=IFCCARTESIANPOINT((-8.,-0.938060233744356,1.20865828381746));
#1708=IFCCARTESIANPOINT((-8.,-1.04644660940673,1.04644660940673));
#1709=IFCCARTESIANPOINT((-8.,-1.20865828381745,0.938060233744357));
#1710=IFCCARTESIANPOINT((-8.,-1.4,0.9));
#1711=IFCCARTESIANPOINT((0.,-1.20865828381745,0.938060233744357));
#1712=IFCCARTESIANPOINT((0.,-1.4,0.9));
#1713=IFCCARTESIANPOINT((0.,-1.04644660940673,1.04644660940673));
#1714=IFCCARTESIANPOINT((0.,-0.938060233744356,1.20865828381746));
#1715=IFCCARTESIANPOINT((0.,-0.899999999999999,1.4));
#1716=IFCCARTESIANPOINT((0.,-3.24327199048154,1.56242977306435));
#1717=IFCCARTESIANPOINT((0.,-3.24327199048154,-1.56242977306435));
#1718=IFCCARTESIANPOINT((0.,-2.40285088177294,-1.89364465959652));
#1719=IFCCARTESIANPOINT((0.,2.40285088177294,1.89364465959652));
#1720=IFCCARTESIANPOINT((0.,-2.40285088177294,1.89364465959652));
#1721=IFCCARTESIANPOINT((0.,-1.56242977306435,3.24327199048154));
#1722=IFCCARTESIANPOINT((0.,-1.89364465959652,2.40285088177294));
#1723=IFCCARTESIANPOINT((0.,-3.55976624920934,0.536716173587147));
#1724=IFCCARTESIANPOINT((0.,-3.55976624920934,-0.536716173587155));
#1725=IFCCARTESIANPOINT((0.,-0.536716173587152,3.55976624920934));
#1726=IFCCARTESIANPOINT((0.,3.24327199048154,1.56242977306435));
#1727=IFCCARTESIANPOINT((0.,2.40285088177294,-1.89364465959652));
#1728=IFCCARTESIANPOINT((0.,1.89364465959652,-2.40285088177294));
#1729=IFCCARTESIANPOINT((0.,1.89364465959652,2.40285088177294));
#1730=IFCCARTESIANPOINT((0.,1.56242977306435,-3.24327199048154));
#1731=IFCCARTESIANPOINT((0.,-1.89364465959652,-2.40285088177294));
#1732=IFCCARTESIANPOINT((0.,-1.56242977306435,-3.24327199048153));
#1733=IFCCARTESIANPOINT((0.,3.55976624920934,0.53671617358715));
#1734=IFCCARTESIANPOINT((0.,1.56242977306435,3.24327199048154));
#1735=IFCCARTESIANPOINT((0.,0.53671617358715,3.55976624920934));
#1736=IFCCARTESIANPOINT((0.,3.24327199048153,-1.56242977306435));
#1737=IFCCARTESIANPOINT((0.,3.55976624920934,-0.536716173587154));
#1738=IFCCARTESIANPOINT((0.,0.53671617358715,-3.55976624920934));
#1739=IFCCARTESIANPOINT((0.,-0.536716173587152,-3.55976624920934));
#1740=IFCCARTESIANPOINT((-1.,1.37766035651432,-3.32596631704063));
#1741=IFCCARTESIANPOINT((-1.,0.53671617358715,-3.55976624920934));
#1742=IFCCARTESIANPOINT((-1.,3.55976624920934,-0.536716173587154));
#1743=IFCCARTESIANPOINT((-1.,3.6,-2.20436423846524E-16));
#1744=IFCCARTESIANPOINT((-1.,3.32596631704063,-1.37766035651432));
#1745=IFCCARTESIANPOINT((-1.,3.32596631704063,1.37766035651432));
#1746=IFCCARTESIANPOINT((-1.,3.55976624920934,0.536716173587149));
#1747=IFCCARTESIANPOINT((-1.,0.53671617358715,3.55976624920934));
#1748=IFCCARTESIANPOINT((-1.,4.40872847693047E-16,3.6));
#1749=IFCCARTESIANPOINT((-1.,-1.37766035651432,3.32596631704063));
#1750=IFCCARTESIANPOINT((-1.,-0.536716173587152,3.55976624920934));
#1751=IFCCARTESIANPOINT((-1.,-3.55976624920934,0.536716173587147));
#1752=IFCCARTESIANPOINT((-1.,-3.6,6.61309271539571E-16));
#1753=IFCCARTESIANPOINT((-1.,-3.32596631704063,1.37766035651432));
#1754=IFCCARTESIANPOINT((-1.,-3.32596631704063,-1.37766035651432));
#1755=IFCCARTESIANPOINT((-1.,-3.55976624920934,-0.536716173587155));
#1756=IFCCARTESIANPOINT((-1.,-0.536716173587152,-3.55976624920934));
#1757=IFCCARTESIANPOINT((-1.,0.,-3.6));
#1758=IFCCARTESIANPOINT((-1.09533233384,1.89364465959652,2.40285088177294));
#1759=IFCCARTESIANPOINT((-1.09533233384,2.40285088177294,1.89364465959652));
#1760=IFCCARTESIANPOINT((-1.,1.37766035651432,3.32596631704063));
#1761=IFCCARTESIANPOINT((-1.,1.56242977306435,3.24327199048154));
#1762=IFCCARTESIANPOINT((-1.,3.24327199048154,1.56242977306435));
#1763=IFCCARTESIANPOINT((-1.09533233384,2.40285088177294,-1.89364465959652));
#1764=IFCCARTESIANPOINT((-1.09533233384,1.89364465959652,-2.40285088177294));
#1765=IFCCARTESIANPOINT((-1.,3.24327199048153,-1.56242977306435));
#1766=IFCCARTESIANPOINT((-1.,1.56242977306435,-3.24327199048154));
#1767=IFCCARTESIANPOINT((-1.,-1.37766035651432,-3.32596631704063));
#1768=IFCCARTESIANPOINT((-1.,-1.56242977306435,-3.24327199048153));
#1769=IFCCARTESIANPOINT((-1.09533233384,-1.89364465959652,-2.40285088177294));
#1770=IFCCARTESIANPOINT((-1.09533233384,-2.40285088177294,-1.89364465959652));
#1771=IFCCARTESIANPOINT((-1.,-3.24327199048154,-1.56242977306435));
#1772=IFCCARTESIANPOINT((-1.,-3.24327199048154,1.56242977306435));
#1773=IFCCARTESIANPOINT((-1.09533233384,-2.40285088177294,1.89364465959652));
#1774=IFCCARTESIANPOINT((-1.09533233384,-1.89364465959652,2.40285088177294));
#1775=IFCCARTESIANPOINT((-1.,-1.56242977306435,3.24327199048154));
#1776=IFCCARTESIANPOINT((0.,0.,0.));
#1777=IFCCARTESIANPOINT((0.,0.,0.));
#1778=IFCGEOMETRICREPRESENTATIONCONTEXT($,'Model',3,0.005,#1425,$);
#1779=IFCSIUNIT(*,.LENGTHUNIT.,.MILLI.,.METRE.);
#1780=IFCSIUNIT(*,.AREAUNIT.,$,.SQUARE_METRE.);
#1781=IFCSIUNIT(*,.VOLUMEUNIT.,$,.CUBIC_METRE.);
#1782=IFCSIUNIT(*,.PLANEANGLEUNIT.,$,.RADIAN.);
#1783=IFCOWNERHISTORY(#1785,#1784,$,.NOCHANGE.,0,$,$,0);
#1784=IFCAPPLICATION(#1786,' ',' ',' ');
#1785=IFCPERSONANDORGANIZATION(#1787,#1786,$);
#1786=IFCORGANIZATION($,' ',$,$,$);
#1787=IFCPERSON(' ',' ',' ',$,$,$,$,$);
ENDSEC;
END-ISO-10303-21;
