ISO-10303-21;
HEADER;
/* Generated by software containing ST-Developer
 * from STEP Tools, Inc. (www.steptools.com) 
 */
/* OPTION: strings as raw bytes, not using required /X/ escapes */

FILE_DESCRIPTION(
/* description */ ('Unknown'),
/* implementation_level */ '2;1');

FILE_NAME(
/* name */ 'ClGrey_4638507_b)_AVV',
/* time_stamp */ '2025-07-21T23:58:39+02:00',
/* author */ ('Unknown'),
/* organization */ ('Unknown'),
/* preprocessor_version */ 'ST-DEVELOPER v19.4',
/* originating_system */ 'Unknown',
/* authorisation */ 'OpenTools');

FILE_SCHEMA (('IFC2X3'));
ENDSEC;

DATA;
#10=IFCPROPERTYSINGLEVALUE('ProjectName',$,IFCTEXT(''),$);
#11=IFCPROPERTYSINGLEVALUE('PartNumber',$,IFCTEXT(''),$);
#12=IFCRELDEFINESBYPROPERTIES('3cRq1JQpSwDOm5lsE5cG83',#1013,$,$,(#14),
#13);
#13=IFCPROPERTYSET('1jOd4kXgWorA4TVRi95rqH',#1013,
'empty property set name',$,(#10,#11));
#14=IFCBUILDINGELEMENTPROXY('2GP_XOK7Wq1Pa1NGQTVWHM',#1013,
'ClGrey_4638507_b)_AVV',' ','ClGrey_4638507_b)_AVV',#19,#15,' ',
 .ELEMENT.);
#15=IFCPRODUCTDEFINITIONSHAPE(' ',' ',(#25));
#16=IFCRELCONTAINEDINSPATIALSTRUCTURE('3HZhfx2I0vj9Cvp1GHER_f',#1013,
' ',' ',(#14),#20);
#17=IFCRELAGGREGATES('1jF0XzMGqvEA6wZwPLSawz',#1013,$,$,#786,(#20));
#18=IFCLOCALPLACEMENT($,#789);
#19=IFCLOCALPLACEMENT(#18,#790);
#20=IFCBUILDING('3G2N19bOG__grq1LV0cQPU',#1013,'Default Building',$,$,#18,
$,$,.ELEMENT.,0.,0.,$);
#21=IFCCARTESIANTRANSFORMATIONOPERATOR3D($,$,#1006,1.,$);
#22=IFCMAPPEDITEM(#23,#21);
#23=IFCREPRESENTATIONMAP(#789,#24);
#24=IFCSHAPEREPRESENTATION(#788,'Body','Brep',(#785));
#25=IFCSHAPEREPRESENTATION(#788,'Body','MappedRepresentation',(#22));
#26=IFCPOLYLOOP((#796,#797,#798,#799));
#27=IFCPOLYLOOP((#797,#800,#801,#798));
#28=IFCPOLYLOOP((#800,#802,#803,#801));
#29=IFCPOLYLOOP((#804,#805,#806,#807));
#30=IFCPOLYLOOP((#807,#803,#802,#804));
#31=IFCPOLYLOOP((#808,#809,#810,#811));
#32=IFCPOLYLOOP((#811,#806,#805,#808));
#33=IFCPOLYLOOP((#809,#812,#813,#810));
#34=IFCPOLYLOOP((#814,#815,#816,#817));
#35=IFCPOLYLOOP((#818,#819,#820,#821));
#36=IFCPOLYLOOP((#817,#813,#812,#814));
#37=IFCPOLYLOOP((#799,#820,#819,#796));
#38=IFCPOLYLOOP((#815,#822,#823,#816));
#39=IFCPOLYLOOP((#822,#824,#825,#823));
#40=IFCPOLYLOOP((#821,#826,#827,#818));
#41=IFCPOLYLOOP((#826,#825,#824,#827));
#42=IFCPOLYLOOP((#828,#803,#807,#829));
#43=IFCPOLYLOOP((#830,#801,#803,#828));
#44=IFCPOLYLOOP((#831,#798,#801,#830));
#45=IFCPOLYLOOP((#832,#799,#798,#831));
#46=IFCPOLYLOOP((#833,#820,#799,#832));
#47=IFCPOLYLOOP((#834,#821,#820,#833));
#48=IFCPOLYLOOP((#835,#826,#821,#834));
#49=IFCPOLYLOOP((#836,#825,#826,#835));
#50=IFCPOLYLOOP((#837,#823,#825,#836));
#51=IFCPOLYLOOP((#838,#816,#823,#837));
#52=IFCPOLYLOOP((#839,#817,#816,#838));
#53=IFCPOLYLOOP((#840,#813,#817,#839));
#54=IFCPOLYLOOP((#841,#810,#813,#840));
#55=IFCPOLYLOOP((#842,#811,#810,#841));
#56=IFCPOLYLOOP((#843,#806,#811,#842));
#57=IFCPOLYLOOP((#829,#807,#806,#843));
#58=IFCPOLYLOOP((#844,#845,#830,#828));
#59=IFCPOLYLOOP((#846,#847,#840,#839));
#60=IFCPOLYLOOP((#845,#848,#831,#830));
#61=IFCPOLYLOOP((#849,#850,#833,#832));
#62=IFCPOLYLOOP((#847,#851,#841,#840));
#63=IFCPOLYLOOP((#852,#853,#843,#842));
#64=IFCPOLYLOOP((#832,#831,#848,#849));
#65=IFCPOLYLOOP((#854,#855,#835,#834));
#66=IFCPOLYLOOP((#842,#841,#851,#852));
#67=IFCPOLYLOOP((#834,#833,#850,#854));
#68=IFCPOLYLOOP((#856,#857,#837,#836));
#69=IFCPOLYLOOP((#853,#858,#829,#843));
#70=IFCPOLYLOOP((#836,#835,#855,#856));
#71=IFCPOLYLOOP((#839,#838,#859,#846));
#72=IFCPOLYLOOP((#838,#837,#857,#859));
#73=IFCPOLYLOOP((#828,#829,#858,#844));
#74=IFCPOLYLOOP((#853,#860,#861,#858));
#75=IFCPOLYLOOP((#852,#862,#860,#853));
#76=IFCPOLYLOOP((#851,#863,#862,#852));
#77=IFCPOLYLOOP((#847,#864,#863,#851));
#78=IFCPOLYLOOP((#846,#865,#864,#847));
#79=IFCPOLYLOOP((#859,#866,#865,#846));
#80=IFCPOLYLOOP((#857,#867,#866,#859));
#81=IFCPOLYLOOP((#856,#868,#867,#857));
#82=IFCPOLYLOOP((#855,#869,#868,#856));
#83=IFCPOLYLOOP((#854,#870,#869,#855));
#84=IFCPOLYLOOP((#850,#871,#870,#854));
#85=IFCPOLYLOOP((#849,#872,#871,#850));
#86=IFCPOLYLOOP((#848,#873,#872,#849));
#87=IFCPOLYLOOP((#845,#874,#873,#848));
#88=IFCPOLYLOOP((#844,#875,#874,#845));
#89=IFCPOLYLOOP((#858,#861,#875,#844));
#90=IFCPOLYLOOP((#812,#809,#876));
#91=IFCPOLYLOOP((#876,#877,#812));
#92=IFCPOLYLOOP((#877,#878,#812));
#93=IFCPOLYLOOP((#812,#879,#880));
#94=IFCPOLYLOOP((#812,#881,#879));
#95=IFCPOLYLOOP((#812,#882,#881));
#96=IFCPOLYLOOP((#822,#815,#883));
#97=IFCPOLYLOOP((#815,#884,#883));
#98=IFCPOLYLOOP((#822,#885,#886));
#99=IFCPOLYLOOP((#886,#824,#822));
#100=IFCPOLYLOOP((#827,#824,#887));
#101=IFCPOLYLOOP((#824,#888,#889,#887));
#102=IFCPOLYLOOP((#827,#890,#891));
#103=IFCPOLYLOOP((#891,#818,#827));
#104=IFCPOLYLOOP((#796,#819,#892));
#105=IFCPOLYLOOP((#892,#893,#796));
#106=IFCPOLYLOOP((#893,#894,#796));
#107=IFCPOLYLOOP((#796,#895,#896));
#108=IFCPOLYLOOP((#796,#897,#895));
#109=IFCPOLYLOOP((#796,#898,#897));
#110=IFCPOLYLOOP((#802,#800,#899));
#111=IFCPOLYLOOP((#800,#900,#899));
#112=IFCPOLYLOOP((#802,#901,#902));
#113=IFCPOLYLOOP((#902,#804,#802));
#114=IFCPOLYLOOP((#805,#804,#903));
#115=IFCPOLYLOOP((#804,#904,#905,#903));
#116=IFCPOLYLOOP((#805,#906,#907));
#117=IFCPOLYLOOP((#907,#808,#805));
#118=IFCPOLYLOOP((#907,#908,#808));
#119=IFCPOLYLOOP((#903,#906,#805));
#120=IFCPOLYLOOP((#902,#909,#904,#804));
#121=IFCPOLYLOOP((#899,#901,#802));
#122=IFCPOLYLOOP((#900,#800,#797,#896));
#123=IFCPOLYLOOP((#896,#797,#796));
#124=IFCPOLYLOOP((#894,#898,#796));
#125=IFCPOLYLOOP((#892,#819,#818,#910));
#126=IFCPOLYLOOP((#891,#910,#818));
#127=IFCPOLYLOOP((#887,#890,#827));
#128=IFCPOLYLOOP((#886,#911,#888,#824));
#129=IFCPOLYLOOP((#883,#885,#822));
#130=IFCPOLYLOOP((#884,#815,#814,#880));
#131=IFCPOLYLOOP((#880,#814,#812));
#132=IFCPOLYLOOP((#878,#882,#812));
#133=IFCPOLYLOOP((#876,#809,#808,#908));
#134=IFCPOLYLOOP((#912,#889,#888));
#135=IFCPOLYLOOP((#888,#911,#913,#912));
#136=IFCPOLYLOOP((#913,#914,#915,#912));
#137=IFCPOLYLOOP((#889,#912,#915,#916));
#138=IFCPOLYLOOP((#916,#917,#887,#889));
#139=IFCPOLYLOOP((#911,#886,#918,#919));
#140=IFCPOLYLOOP((#919,#914,#913,#911));
#141=IFCPOLYLOOP((#915,#914,#919,#916));
#142=IFCPOLYLOOP((#916,#919,#918,#917));
#143=IFCPOLYLOOP((#920,#905,#904));
#144=IFCPOLYLOOP((#904,#909,#921,#920));
#145=IFCPOLYLOOP((#921,#922,#923,#920));
#146=IFCPOLYLOOP((#905,#920,#923,#924));
#147=IFCPOLYLOOP((#924,#925,#903,#905));
#148=IFCPOLYLOOP((#909,#902,#926,#927));
#149=IFCPOLYLOOP((#927,#922,#921,#909));
#150=IFCPOLYLOOP((#924,#923,#922,#927));
#151=IFCPOLYLOOP((#924,#927,#926,#925));
#152=IFCPOLYLOOP((#928,#929,#930,#882,#878));
#153=IFCPOLYLOOP((#931,#932,#879,#881));
#154=IFCPOLYLOOP((#881,#882,#930,#933,#931));
#155=IFCPOLYLOOP((#932,#934,#880,#879));
#156=IFCPOLYLOOP((#878,#877,#935,#928));
#157=IFCPOLYLOOP((#936,#937,#883,#884));
#158=IFCPOLYLOOP((#938,#939,#876,#908));
#159=IFCPOLYLOOP((#884,#880,#934,#936));
#160=IFCPOLYLOOP((#877,#876,#939,#935));
#161=IFCPOLYLOOP((#908,#907,#940,#938));
#162=IFCPOLYLOOP((#941,#942,#943,#898,#894));
#163=IFCPOLYLOOP((#944,#945,#895,#897));
#164=IFCPOLYLOOP((#897,#898,#943,#946,#944));
#165=IFCPOLYLOOP((#945,#947,#896,#895));
#166=IFCPOLYLOOP((#948,#949,#892,#910));
#167=IFCPOLYLOOP((#894,#893,#950,#941));
#168=IFCPOLYLOOP((#893,#892,#949,#950));
#169=IFCPOLYLOOP((#951,#952,#899,#900));
#170=IFCPOLYLOOP((#900,#896,#947,#951));
#171=IFCPOLYLOOP((#910,#891,#953,#948));
#172=IFCPOLYLOOP((#954,#925,#926));
#173=IFCPOLYLOOP((#955,#926,#902,#901));
#174=IFCPOLYLOOP((#954,#956,#940,#925));
#175=IFCPOLYLOOP((#899,#952,#957,#955));
#176=IFCPOLYLOOP((#926,#955,#954));
#177=IFCPOLYLOOP((#956,#958,#940));
#178=IFCPOLYLOOP((#940,#907,#906));
#179=IFCPOLYLOOP((#906,#903,#925,#940));
#180=IFCPOLYLOOP((#901,#899,#955));
#181=IFCPOLYLOOP((#959,#958,#956,#960));
#182=IFCPOLYLOOP((#961,#955,#957,#962));
#183=IFCPOLYLOOP((#963,#954,#955,#961));
#184=IFCPOLYLOOP((#960,#956,#954,#963));
#185=IFCPOLYLOOP((#964,#917,#918));
#186=IFCPOLYLOOP((#965,#918,#886,#885));
#187=IFCPOLYLOOP((#964,#966,#953,#917));
#188=IFCPOLYLOOP((#883,#937,#967,#965));
#189=IFCPOLYLOOP((#918,#965,#964));
#190=IFCPOLYLOOP((#966,#968,#953));
#191=IFCPOLYLOOP((#953,#891,#890));
#192=IFCPOLYLOOP((#890,#887,#917,#953));
#193=IFCPOLYLOOP((#885,#883,#965));
#194=IFCPOLYLOOP((#969,#968,#966,#970));
#195=IFCPOLYLOOP((#971,#965,#967,#972));
#196=IFCPOLYLOOP((#973,#964,#965,#971));
#197=IFCPOLYLOOP((#970,#966,#964,#973));
#198=IFCPOLYLOOP((#962,#957,#952));
#199=IFCPOLYLOOP((#952,#974,#962));
#200=IFCPOLYLOOP((#975,#974,#951));
#201=IFCPOLYLOOP((#976,#977,#947));
#202=IFCPOLYLOOP((#947,#945,#976));
#203=IFCPOLYLOOP((#945,#944,#976));
#204=IFCPOLYLOOP((#978,#946,#943));
#205=IFCPOLYLOOP((#943,#942,#978));
#206=IFCPOLYLOOP((#978,#976,#944));
#207=IFCPOLYLOOP((#944,#946,#978));
#208=IFCPOLYLOOP((#978,#950,#949));
#209=IFCPOLYLOOP((#978,#941,#950));
#210=IFCPOLYLOOP((#949,#979,#980,#981));
#211=IFCPOLYLOOP((#979,#949,#948));
#212=IFCPOLYLOOP((#969,#982,#953));
#213=IFCPOLYLOOP((#982,#948,#953));
#214=IFCPOLYLOOP((#953,#968,#969));
#215=IFCPOLYLOOP((#948,#982,#979));
#216=IFCPOLYLOOP((#949,#981,#978));
#217=IFCPOLYLOOP((#942,#941,#978));
#218=IFCPOLYLOOP((#977,#983,#975,#947));
#219=IFCPOLYLOOP((#951,#947,#975));
#220=IFCPOLYLOOP((#952,#951,#974));
#221=IFCPOLYLOOP((#976,#978,#981,#984,#985));
#222=IFCPOLYLOOP((#985,#986,#977,#976));
#223=IFCPOLYLOOP((#983,#977,#986,#987));
#224=IFCPOLYLOOP((#988,#984,#981,#980));
#225=IFCPOLYLOOP((#989,#985,#984,#988));
#226=IFCPOLYLOOP((#987,#986,#985,#989));
#227=IFCPOLYLOOP((#990,#991,#864,#865));
#228=IFCPOLYLOOP((#991,#992,#863,#864));
#229=IFCPOLYLOOP((#993,#959,#960,#860,#862));
#230=IFCPOLYLOOP((#992,#862,#863));
#231=IFCPOLYLOOP((#973,#971,#867,#868));
#232=IFCPOLYLOOP((#865,#866,#990));
#233=IFCPOLYLOOP((#868,#869,#970,#973));
#234=IFCPOLYLOOP((#866,#971,#972,#994,#995,#996,#990));
#235=IFCPOLYLOOP((#971,#866,#867));
#236=IFCPOLYLOOP((#989,#988,#871,#872));
#237=IFCPOLYLOOP((#869,#870,#970));
#238=IFCPOLYLOOP((#988,#870,#871));
#239=IFCPOLYLOOP((#987,#872,#873));
#240=IFCPOLYLOOP((#862,#992,#997,#998,#993));
#241=IFCPOLYLOOP((#872,#987,#989));
#242=IFCPOLYLOOP((#874,#961,#962,#974,#975,#983,#987));
#243=IFCPOLYLOOP((#961,#874,#875));
#244=IFCPOLYLOOP((#988,#980,#979,#982,#969,#970,#870));
#245=IFCPOLYLOOP((#875,#861,#963,#961));
#246=IFCPOLYLOOP((#873,#874,#987));
#247=IFCPOLYLOOP((#960,#963,#861,#860));
#248=IFCPOLYLOOP((#972,#967,#937));
#249=IFCPOLYLOOP((#937,#994,#972));
#250=IFCPOLYLOOP((#995,#994,#936));
#251=IFCPOLYLOOP((#999,#1000,#934));
#252=IFCPOLYLOOP((#934,#932,#999));
#253=IFCPOLYLOOP((#932,#931,#999));
#254=IFCPOLYLOOP((#999,#929,#928));
#255=IFCPOLYLOOP((#999,#933,#930));
#256=IFCPOLYLOOP((#999,#931,#933));
#257=IFCPOLYLOOP((#930,#929,#999));
#258=IFCPOLYLOOP((#998,#939,#938));
#259=IFCPOLYLOOP((#959,#993,#940));
#260=IFCPOLYLOOP((#993,#938,#940));
#261=IFCPOLYLOOP((#1001,#935,#939));
#262=IFCPOLYLOOP((#1001,#928,#935));
#263=IFCPOLYLOOP((#939,#998,#997,#1002));
#264=IFCPOLYLOOP((#939,#1002,#1001));
#265=IFCPOLYLOOP((#940,#958,#959));
#266=IFCPOLYLOOP((#938,#993,#998));
#267=IFCPOLYLOOP((#928,#1001,#999));
#268=IFCPOLYLOOP((#1000,#996,#995,#934));
#269=IFCPOLYLOOP((#936,#934,#995));
#270=IFCPOLYLOOP((#937,#936,#994));
#271=IFCPOLYLOOP((#1001,#1002,#1003,#1004));
#272=IFCPOLYLOOP((#1004,#1005,#1000,#999,#1001));
#273=IFCPOLYLOOP((#991,#1004,#1003,#992));
#274=IFCPOLYLOOP((#990,#1005,#1004,#991));
#275=IFCPOLYLOOP((#996,#1000,#1005,#990));
#276=IFCPOLYLOOP((#992,#1003,#1002,#997));
#277=IFCFACEOUTERBOUND(#26,.T.);
#278=IFCFACEOUTERBOUND(#27,.T.);
#279=IFCFACEOUTERBOUND(#28,.T.);
#280=IFCFACEOUTERBOUND(#29,.T.);
#281=IFCFACEOUTERBOUND(#30,.T.);
#282=IFCFACEOUTERBOUND(#31,.T.);
#283=IFCFACEOUTERBOUND(#32,.T.);
#284=IFCFACEOUTERBOUND(#33,.T.);
#285=IFCFACEOUTERBOUND(#34,.T.);
#286=IFCFACEOUTERBOUND(#35,.T.);
#287=IFCFACEOUTERBOUND(#36,.T.);
#288=IFCFACEOUTERBOUND(#37,.T.);
#289=IFCFACEOUTERBOUND(#38,.T.);
#290=IFCFACEOUTERBOUND(#39,.T.);
#291=IFCFACEOUTERBOUND(#40,.T.);
#292=IFCFACEOUTERBOUND(#41,.T.);
#293=IFCFACEOUTERBOUND(#42,.T.);
#294=IFCFACEOUTERBOUND(#43,.T.);
#295=IFCFACEOUTERBOUND(#44,.T.);
#296=IFCFACEOUTERBOUND(#45,.T.);
#297=IFCFACEOUTERBOUND(#46,.T.);
#298=IFCFACEOUTERBOUND(#47,.T.);
#299=IFCFACEOUTERBOUND(#48,.T.);
#300=IFCFACEOUTERBOUND(#49,.T.);
#301=IFCFACEOUTERBOUND(#50,.T.);
#302=IFCFACEOUTERBOUND(#51,.T.);
#303=IFCFACEOUTERBOUND(#52,.T.);
#304=IFCFACEOUTERBOUND(#53,.T.);
#305=IFCFACEOUTERBOUND(#54,.T.);
#306=IFCFACEOUTERBOUND(#55,.T.);
#307=IFCFACEOUTERBOUND(#56,.T.);
#308=IFCFACEOUTERBOUND(#57,.T.);
#309=IFCFACEOUTERBOUND(#58,.T.);
#310=IFCFACEOUTERBOUND(#59,.T.);
#311=IFCFACEOUTERBOUND(#60,.T.);
#312=IFCFACEOUTERBOUND(#61,.T.);
#313=IFCFACEOUTERBOUND(#62,.T.);
#314=IFCFACEOUTERBOUND(#63,.T.);
#315=IFCFACEOUTERBOUND(#64,.T.);
#316=IFCFACEOUTERBOUND(#65,.T.);
#317=IFCFACEOUTERBOUND(#66,.T.);
#318=IFCFACEOUTERBOUND(#67,.T.);
#319=IFCFACEOUTERBOUND(#68,.T.);
#320=IFCFACEOUTERBOUND(#69,.T.);
#321=IFCFACEOUTERBOUND(#70,.T.);
#322=IFCFACEOUTERBOUND(#71,.T.);
#323=IFCFACEOUTERBOUND(#72,.T.);
#324=IFCFACEOUTERBOUND(#73,.T.);
#325=IFCFACEOUTERBOUND(#74,.T.);
#326=IFCFACEOUTERBOUND(#75,.T.);
#327=IFCFACEOUTERBOUND(#76,.T.);
#328=IFCFACEOUTERBOUND(#77,.T.);
#329=IFCFACEOUTERBOUND(#78,.T.);
#330=IFCFACEOUTERBOUND(#79,.T.);
#331=IFCFACEOUTERBOUND(#80,.T.);
#332=IFCFACEOUTERBOUND(#81,.T.);
#333=IFCFACEOUTERBOUND(#82,.T.);
#334=IFCFACEOUTERBOUND(#83,.T.);
#335=IFCFACEOUTERBOUND(#84,.T.);
#336=IFCFACEOUTERBOUND(#85,.T.);
#337=IFCFACEOUTERBOUND(#86,.T.);
#338=IFCFACEOUTERBOUND(#87,.T.);
#339=IFCFACEOUTERBOUND(#88,.T.);
#340=IFCFACEOUTERBOUND(#89,.T.);
#341=IFCFACEOUTERBOUND(#90,.T.);
#342=IFCFACEOUTERBOUND(#91,.T.);
#343=IFCFACEOUTERBOUND(#92,.T.);
#344=IFCFACEOUTERBOUND(#93,.T.);
#345=IFCFACEOUTERBOUND(#94,.T.);
#346=IFCFACEOUTERBOUND(#95,.T.);
#347=IFCFACEOUTERBOUND(#96,.T.);
#348=IFCFACEOUTERBOUND(#97,.T.);
#349=IFCFACEOUTERBOUND(#98,.T.);
#350=IFCFACEOUTERBOUND(#99,.T.);
#351=IFCFACEOUTERBOUND(#100,.T.);
#352=IFCFACEOUTERBOUND(#101,.T.);
#353=IFCFACEOUTERBOUND(#102,.T.);
#354=IFCFACEOUTERBOUND(#103,.T.);
#355=IFCFACEOUTERBOUND(#104,.T.);
#356=IFCFACEOUTERBOUND(#105,.T.);
#357=IFCFACEOUTERBOUND(#106,.T.);
#358=IFCFACEOUTERBOUND(#107,.T.);
#359=IFCFACEOUTERBOUND(#108,.T.);
#360=IFCFACEOUTERBOUND(#109,.T.);
#361=IFCFACEOUTERBOUND(#110,.T.);
#362=IFCFACEOUTERBOUND(#111,.T.);
#363=IFCFACEOUTERBOUND(#112,.T.);
#364=IFCFACEOUTERBOUND(#113,.T.);
#365=IFCFACEOUTERBOUND(#114,.T.);
#366=IFCFACEOUTERBOUND(#115,.T.);
#367=IFCFACEOUTERBOUND(#116,.T.);
#368=IFCFACEOUTERBOUND(#117,.T.);
#369=IFCFACEOUTERBOUND(#118,.T.);
#370=IFCFACEOUTERBOUND(#119,.T.);
#371=IFCFACEOUTERBOUND(#120,.T.);
#372=IFCFACEOUTERBOUND(#121,.T.);
#373=IFCFACEOUTERBOUND(#122,.T.);
#374=IFCFACEOUTERBOUND(#123,.T.);
#375=IFCFACEOUTERBOUND(#124,.T.);
#376=IFCFACEOUTERBOUND(#125,.T.);
#377=IFCFACEOUTERBOUND(#126,.T.);
#378=IFCFACEOUTERBOUND(#127,.T.);
#379=IFCFACEOUTERBOUND(#128,.T.);
#380=IFCFACEOUTERBOUND(#129,.T.);
#381=IFCFACEOUTERBOUND(#130,.T.);
#382=IFCFACEOUTERBOUND(#131,.T.);
#383=IFCFACEOUTERBOUND(#132,.T.);
#384=IFCFACEOUTERBOUND(#133,.T.);
#385=IFCFACEOUTERBOUND(#134,.T.);
#386=IFCFACEOUTERBOUND(#135,.T.);
#387=IFCFACEOUTERBOUND(#136,.T.);
#388=IFCFACEOUTERBOUND(#137,.T.);
#389=IFCFACEOUTERBOUND(#138,.T.);
#390=IFCFACEOUTERBOUND(#139,.T.);
#391=IFCFACEOUTERBOUND(#140,.T.);
#392=IFCFACEOUTERBOUND(#141,.T.);
#393=IFCFACEOUTERBOUND(#142,.T.);
#394=IFCFACEOUTERBOUND(#143,.T.);
#395=IFCFACEOUTERBOUND(#144,.T.);
#396=IFCFACEOUTERBOUND(#145,.T.);
#397=IFCFACEOUTERBOUND(#146,.T.);
#398=IFCFACEOUTERBOUND(#147,.T.);
#399=IFCFACEOUTERBOUND(#148,.T.);
#400=IFCFACEOUTERBOUND(#149,.T.);
#401=IFCFACEOUTERBOUND(#150,.T.);
#402=IFCFACEOUTERBOUND(#151,.T.);
#403=IFCFACEOUTERBOUND(#152,.T.);
#404=IFCFACEOUTERBOUND(#153,.T.);
#405=IFCFACEOUTERBOUND(#154,.T.);
#406=IFCFACEOUTERBOUND(#155,.T.);
#407=IFCFACEOUTERBOUND(#156,.T.);
#408=IFCFACEOUTERBOUND(#157,.T.);
#409=IFCFACEOUTERBOUND(#158,.T.);
#410=IFCFACEOUTERBOUND(#159,.T.);
#411=IFCFACEOUTERBOUND(#160,.T.);
#412=IFCFACEOUTERBOUND(#161,.T.);
#413=IFCFACEOUTERBOUND(#162,.T.);
#414=IFCFACEOUTERBOUND(#163,.T.);
#415=IFCFACEOUTERBOUND(#164,.T.);
#416=IFCFACEOUTERBOUND(#165,.T.);
#417=IFCFACEOUTERBOUND(#166,.T.);
#418=IFCFACEOUTERBOUND(#167,.T.);
#419=IFCFACEOUTERBOUND(#168,.T.);
#420=IFCFACEOUTERBOUND(#169,.T.);
#421=IFCFACEOUTERBOUND(#170,.T.);
#422=IFCFACEOUTERBOUND(#171,.T.);
#423=IFCFACEOUTERBOUND(#172,.T.);
#424=IFCFACEOUTERBOUND(#173,.T.);
#425=IFCFACEOUTERBOUND(#174,.T.);
#426=IFCFACEOUTERBOUND(#175,.T.);
#427=IFCFACEOUTERBOUND(#176,.T.);
#428=IFCFACEOUTERBOUND(#177,.T.);
#429=IFCFACEOUTERBOUND(#178,.T.);
#430=IFCFACEOUTERBOUND(#179,.T.);
#431=IFCFACEOUTERBOUND(#180,.T.);
#432=IFCFACEOUTERBOUND(#181,.T.);
#433=IFCFACEOUTERBOUND(#182,.T.);
#434=IFCFACEOUTERBOUND(#183,.T.);
#435=IFCFACEOUTERBOUND(#184,.T.);
#436=IFCFACEOUTERBOUND(#185,.T.);
#437=IFCFACEOUTERBOUND(#186,.T.);
#438=IFCFACEOUTERBOUND(#187,.T.);
#439=IFCFACEOUTERBOUND(#188,.T.);
#440=IFCFACEOUTERBOUND(#189,.T.);
#441=IFCFACEOUTERBOUND(#190,.T.);
#442=IFCFACEOUTERBOUND(#191,.T.);
#443=IFCFACEOUTERBOUND(#192,.T.);
#444=IFCFACEOUTERBOUND(#193,.T.);
#445=IFCFACEOUTERBOUND(#194,.T.);
#446=IFCFACEOUTERBOUND(#195,.T.);
#447=IFCFACEOUTERBOUND(#196,.T.);
#448=IFCFACEOUTERBOUND(#197,.T.);
#449=IFCFACEOUTERBOUND(#198,.T.);
#450=IFCFACEOUTERBOUND(#199,.T.);
#451=IFCFACEOUTERBOUND(#200,.T.);
#452=IFCFACEOUTERBOUND(#201,.T.);
#453=IFCFACEOUTERBOUND(#202,.T.);
#454=IFCFACEOUTERBOUND(#203,.T.);
#455=IFCFACEOUTERBOUND(#204,.T.);
#456=IFCFACEOUTERBOUND(#205,.T.);
#457=IFCFACEOUTERBOUND(#206,.T.);
#458=IFCFACEOUTERBOUND(#207,.T.);
#459=IFCFACEOUTERBOUND(#208,.T.);
#460=IFCFACEOUTERBOUND(#209,.T.);
#461=IFCFACEOUTERBOUND(#210,.T.);
#462=IFCFACEOUTERBOUND(#211,.T.);
#463=IFCFACEOUTERBOUND(#212,.T.);
#464=IFCFACEOUTERBOUND(#213,.T.);
#465=IFCFACEOUTERBOUND(#214,.T.);
#466=IFCFACEOUTERBOUND(#215,.T.);
#467=IFCFACEOUTERBOUND(#216,.T.);
#468=IFCFACEOUTERBOUND(#217,.T.);
#469=IFCFACEOUTERBOUND(#218,.T.);
#470=IFCFACEOUTERBOUND(#219,.T.);
#471=IFCFACEOUTERBOUND(#220,.T.);
#472=IFCFACEOUTERBOUND(#221,.T.);
#473=IFCFACEOUTERBOUND(#222,.T.);
#474=IFCFACEOUTERBOUND(#223,.T.);
#475=IFCFACEOUTERBOUND(#224,.T.);
#476=IFCFACEOUTERBOUND(#225,.T.);
#477=IFCFACEOUTERBOUND(#226,.T.);
#478=IFCFACEOUTERBOUND(#227,.T.);
#479=IFCFACEOUTERBOUND(#228,.T.);
#480=IFCFACEOUTERBOUND(#229,.T.);
#481=IFCFACEOUTERBOUND(#230,.T.);
#482=IFCFACEOUTERBOUND(#231,.T.);
#483=IFCFACEOUTERBOUND(#232,.T.);
#484=IFCFACEOUTERBOUND(#233,.T.);
#485=IFCFACEOUTERBOUND(#234,.T.);
#486=IFCFACEOUTERBOUND(#235,.T.);
#487=IFCFACEOUTERBOUND(#236,.T.);
#488=IFCFACEOUTERBOUND(#237,.T.);
#489=IFCFACEOUTERBOUND(#238,.T.);
#490=IFCFACEOUTERBOUND(#239,.T.);
#491=IFCFACEOUTERBOUND(#240,.T.);
#492=IFCFACEOUTERBOUND(#241,.T.);
#493=IFCFACEOUTERBOUND(#242,.T.);
#494=IFCFACEOUTERBOUND(#243,.T.);
#495=IFCFACEOUTERBOUND(#244,.T.);
#496=IFCFACEOUTERBOUND(#245,.T.);
#497=IFCFACEOUTERBOUND(#246,.T.);
#498=IFCFACEOUTERBOUND(#247,.T.);
#499=IFCFACEOUTERBOUND(#248,.T.);
#500=IFCFACEOUTERBOUND(#249,.T.);
#501=IFCFACEOUTERBOUND(#250,.T.);
#502=IFCFACEOUTERBOUND(#251,.T.);
#503=IFCFACEOUTERBOUND(#252,.T.);
#504=IFCFACEOUTERBOUND(#253,.T.);
#505=IFCFACEOUTERBOUND(#254,.T.);
#506=IFCFACEOUTERBOUND(#255,.T.);
#507=IFCFACEOUTERBOUND(#256,.T.);
#508=IFCFACEOUTERBOUND(#257,.T.);
#509=IFCFACEOUTERBOUND(#258,.T.);
#510=IFCFACEOUTERBOUND(#259,.T.);
#511=IFCFACEOUTERBOUND(#260,.T.);
#512=IFCFACEOUTERBOUND(#261,.T.);
#513=IFCFACEOUTERBOUND(#262,.T.);
#514=IFCFACEOUTERBOUND(#263,.T.);
#515=IFCFACEOUTERBOUND(#264,.T.);
#516=IFCFACEOUTERBOUND(#265,.T.);
#517=IFCFACEOUTERBOUND(#266,.T.);
#518=IFCFACEOUTERBOUND(#267,.T.);
#519=IFCFACEOUTERBOUND(#268,.T.);
#520=IFCFACEOUTERBOUND(#269,.T.);
#521=IFCFACEOUTERBOUND(#270,.T.);
#522=IFCFACEOUTERBOUND(#271,.T.);
#523=IFCFACEOUTERBOUND(#272,.T.);
#524=IFCFACEOUTERBOUND(#273,.T.);
#525=IFCFACEOUTERBOUND(#274,.T.);
#526=IFCFACEOUTERBOUND(#275,.T.);
#527=IFCFACEOUTERBOUND(#276,.T.);
#528=IFCFACE((#277));
#529=IFCFACE((#278));
#530=IFCFACE((#279));
#531=IFCFACE((#280));
#532=IFCFACE((#281));
#533=IFCFACE((#282));
#534=IFCFACE((#283));
#535=IFCFACE((#284));
#536=IFCFACE((#285));
#537=IFCFACE((#286));
#538=IFCFACE((#287));
#539=IFCFACE((#288));
#540=IFCFACE((#289));
#541=IFCFACE((#290));
#542=IFCFACE((#291));
#543=IFCFACE((#292));
#544=IFCFACE((#293));
#545=IFCFACE((#294));
#546=IFCFACE((#295));
#547=IFCFACE((#296));
#548=IFCFACE((#297));
#549=IFCFACE((#298));
#550=IFCFACE((#299));
#551=IFCFACE((#300));
#552=IFCFACE((#301));
#553=IFCFACE((#302));
#554=IFCFACE((#303));
#555=IFCFACE((#304));
#556=IFCFACE((#305));
#557=IFCFACE((#306));
#558=IFCFACE((#307));
#559=IFCFACE((#308));
#560=IFCFACE((#309));
#561=IFCFACE((#310));
#562=IFCFACE((#311));
#563=IFCFACE((#312));
#564=IFCFACE((#313));
#565=IFCFACE((#314));
#566=IFCFACE((#315));
#567=IFCFACE((#316));
#568=IFCFACE((#317));
#569=IFCFACE((#318));
#570=IFCFACE((#319));
#571=IFCFACE((#320));
#572=IFCFACE((#321));
#573=IFCFACE((#322));
#574=IFCFACE((#323));
#575=IFCFACE((#324));
#576=IFCFACE((#325));
#577=IFCFACE((#326));
#578=IFCFACE((#327));
#579=IFCFACE((#328));
#580=IFCFACE((#329));
#581=IFCFACE((#330));
#582=IFCFACE((#331));
#583=IFCFACE((#332));
#584=IFCFACE((#333));
#585=IFCFACE((#334));
#586=IFCFACE((#335));
#587=IFCFACE((#336));
#588=IFCFACE((#337));
#589=IFCFACE((#338));
#590=IFCFACE((#339));
#591=IFCFACE((#340));
#592=IFCFACE((#341));
#593=IFCFACE((#342));
#594=IFCFACE((#343));
#595=IFCFACE((#344));
#596=IFCFACE((#345));
#597=IFCFACE((#346));
#598=IFCFACE((#347));
#599=IFCFACE((#348));
#600=IFCFACE((#349));
#601=IFCFACE((#350));
#602=IFCFACE((#351));
#603=IFCFACE((#352));
#604=IFCFACE((#353));
#605=IFCFACE((#354));
#606=IFCFACE((#355));
#607=IFCFACE((#356));
#608=IFCFACE((#357));
#609=IFCFACE((#358));
#610=IFCFACE((#359));
#611=IFCFACE((#360));
#612=IFCFACE((#361));
#613=IFCFACE((#362));
#614=IFCFACE((#363));
#615=IFCFACE((#364));
#616=IFCFACE((#365));
#617=IFCFACE((#366));
#618=IFCFACE((#367));
#619=IFCFACE((#368));
#620=IFCFACE((#369));
#621=IFCFACE((#370));
#622=IFCFACE((#371));
#623=IFCFACE((#372));
#624=IFCFACE((#373));
#625=IFCFACE((#374));
#626=IFCFACE((#375));
#627=IFCFACE((#376));
#628=IFCFACE((#377));
#629=IFCFACE((#378));
#630=IFCFACE((#379));
#631=IFCFACE((#380));
#632=IFCFACE((#381));
#633=IFCFACE((#382));
#634=IFCFACE((#383));
#635=IFCFACE((#384));
#636=IFCFACE((#385));
#637=IFCFACE((#386));
#638=IFCFACE((#387));
#639=IFCFACE((#388));
#640=IFCFACE((#389));
#641=IFCFACE((#390));
#642=IFCFACE((#391));
#643=IFCFACE((#392));
#644=IFCFACE((#393));
#645=IFCFACE((#394));
#646=IFCFACE((#395));
#647=IFCFACE((#396));
#648=IFCFACE((#397));
#649=IFCFACE((#398));
#650=IFCFACE((#399));
#651=IFCFACE((#400));
#652=IFCFACE((#401));
#653=IFCFACE((#402));
#654=IFCFACE((#403));
#655=IFCFACE((#404));
#656=IFCFACE((#405));
#657=IFCFACE((#406));
#658=IFCFACE((#407));
#659=IFCFACE((#408));
#660=IFCFACE((#409));
#661=IFCFACE((#410));
#662=IFCFACE((#411));
#663=IFCFACE((#412));
#664=IFCFACE((#413));
#665=IFCFACE((#414));
#666=IFCFACE((#415));
#667=IFCFACE((#416));
#668=IFCFACE((#417));
#669=IFCFACE((#418));
#670=IFCFACE((#419));
#671=IFCFACE((#420));
#672=IFCFACE((#421));
#673=IFCFACE((#422));
#674=IFCFACE((#423));
#675=IFCFACE((#424));
#676=IFCFACE((#425));
#677=IFCFACE((#426));
#678=IFCFACE((#427));
#679=IFCFACE((#428));
#680=IFCFACE((#429));
#681=IFCFACE((#430));
#682=IFCFACE((#431));
#683=IFCFACE((#432));
#684=IFCFACE((#433));
#685=IFCFACE((#434));
#686=IFCFACE((#435));
#687=IFCFACE((#436));
#688=IFCFACE((#437));
#689=IFCFACE((#438));
#690=IFCFACE((#439));
#691=IFCFACE((#440));
#692=IFCFACE((#441));
#693=IFCFACE((#442));
#694=IFCFACE((#443));
#695=IFCFACE((#444));
#696=IFCFACE((#445));
#697=IFCFACE((#446));
#698=IFCFACE((#447));
#699=IFCFACE((#448));
#700=IFCFACE((#449));
#701=IFCFACE((#450));
#702=IFCFACE((#451));
#703=IFCFACE((#452));
#704=IFCFACE((#453));
#705=IFCFACE((#454));
#706=IFCFACE((#455));
#707=IFCFACE((#456));
#708=IFCFACE((#457));
#709=IFCFACE((#458));
#710=IFCFACE((#459));
#711=IFCFACE((#460));
#712=IFCFACE((#461));
#713=IFCFACE((#462));
#714=IFCFACE((#463));
#715=IFCFACE((#464));
#716=IFCFACE((#465));
#717=IFCFACE((#466));
#718=IFCFACE((#467));
#719=IFCFACE((#468));
#720=IFCFACE((#469));
#721=IFCFACE((#470));
#722=IFCFACE((#471));
#723=IFCFACE((#472));
#724=IFCFACE((#473));
#725=IFCFACE((#474));
#726=IFCFACE((#475));
#727=IFCFACE((#476));
#728=IFCFACE((#477));
#729=IFCFACE((#478));
#730=IFCFACE((#479));
#731=IFCFACE((#480));
#732=IFCFACE((#481));
#733=IFCFACE((#482));
#734=IFCFACE((#483));
#735=IFCFACE((#484));
#736=IFCFACE((#485));
#737=IFCFACE((#486));
#738=IFCFACE((#487));
#739=IFCFACE((#488));
#740=IFCFACE((#489));
#741=IFCFACE((#490));
#742=IFCFACE((#491));
#743=IFCFACE((#492));
#744=IFCFACE((#493));
#745=IFCFACE((#494));
#746=IFCFACE((#495));
#747=IFCFACE((#496));
#748=IFCFACE((#497));
#749=IFCFACE((#498));
#750=IFCFACE((#499));
#751=IFCFACE((#500));
#752=IFCFACE((#501));
#753=IFCFACE((#502));
#754=IFCFACE((#503));
#755=IFCFACE((#504));
#756=IFCFACE((#505));
#757=IFCFACE((#506));
#758=IFCFACE((#507));
#759=IFCFACE((#508));
#760=IFCFACE((#509));
#761=IFCFACE((#510));
#762=IFCFACE((#511));
#763=IFCFACE((#512));
#764=IFCFACE((#513));
#765=IFCFACE((#514));
#766=IFCFACE((#515));
#767=IFCFACE((#516));
#768=IFCFACE((#517));
#769=IFCFACE((#518));
#770=IFCFACE((#519));
#771=IFCFACE((#520));
#772=IFCFACE((#521));
#773=IFCFACE((#522));
#774=IFCFACE((#523));
#775=IFCFACE((#524));
#776=IFCFACE((#525));
#777=IFCFACE((#526));
#778=IFCFACE((#527));
#779=IFCCLOSEDSHELL((#528,#529,#530,#531,#532,#533,#534,#535,#536,#537,
#538,#539,#540,#541,#542,#543,#544,#545,#546,#547,#548,#549,#550,#551,#552,
#553,#554,#555,#556,#557,#558,#559,#560,#561,#562,#563,#564,#565,#566,#567,
#568,#569,#570,#571,#572,#573,#574,#575,#576,#577,#578,#579,#580,#581,#582,
#583,#584,#585,#586,#587,#588,#589,#590,#591,#592,#593,#594,#595,#596,#597,
#598,#599,#600,#601,#602,#603,#604,#605,#606,#607,#608,#609,#610,#611,#612,
#613,#614,#615,#616,#617,#618,#619,#620,#621,#622,#623,#624,#625,#626,#627,
#628,#629,#630,#631,#632,#633,#634,#635,#636,#637,#638,#639,#640,#641,#642,
#643,#644,#645,#646,#647,#648,#649,#650,#651,#652,#653,#654,#655,#656,#657,
#658,#659,#660,#661,#662,#663,#664,#665,#666,#667,#668,#669,#670,#671,#672,
#673,#674,#675,#676,#677,#678,#679,#680,#681,#682,#683,#684,#685,#686,#687,
#688,#689,#690,#691,#692,#693,#694,#695,#696,#697,#698,#699,#700,#701,#702,
#703,#704,#705,#706,#707,#708,#709,#710,#711,#712,#713,#714,#715,#716,#717,
#718,#719,#720,#721,#722,#723,#724,#725,#726,#727,#728,#729,#730,#731,#732,
#733,#734,#735,#736,#737,#738,#739,#740,#741,#742,#743,#744,#745,#746,#747,
#748,#749,#750,#751,#752,#753,#754,#755,#756,#757,#758,#759,#760,#761,#762,
#763,#764,#765,#766,#767,#768,#769,#770,#771,#772,#773,#774,#775,#776,#777,
#778));
#780=IFCSTYLEDITEM(#785,(#781),'');
#781=IFCPRESENTATIONSTYLEASSIGNMENT((#782));
#782=IFCSURFACESTYLE('',.BOTH.,(#783));
#783=IFCSURFACESTYLERENDERING(#784,0.,$,$,$,$,$,$,.NOTDEFINED.);
#784=IFCCOLOURRGB('',0.506983280181885,0.531564235687256,0.550000011920929);
#785=IFCFACETEDBREP(#779);
#786=IFCPROJECT('07hUkdHgGydfWsFJH56q5B',#1013,'ClGrey_4638507_b)_AVV',
' ',' ',' ',' ',(#1008),#787);
#787=IFCUNITASSIGNMENT((#1009,#1010,#1011,#1012));
#788=IFCGEOMETRICREPRESENTATIONSUBCONTEXT('Body','Model',*,*,*,*,#1008,
1.,.MODEL_VIEW.,$);
#789=IFCAXIS2PLACEMENT3D(#795,#791,#792);
#790=IFCAXIS2PLACEMENT3D(#1007,#793,#794);
#791=IFCDIRECTION((0.,0.,1.));
#792=IFCDIRECTION((1.,0.,0.));
#793=IFCDIRECTION((0.,0.,1.));
#794=IFCDIRECTION((1.,0.,0.));
#795=IFCCARTESIANPOINT((0.,0.,0.));
#796=IFCCARTESIANPOINT((-62.,6.5,-1.04527972228981E-15));
#797=IFCCARTESIANPOINT((-62.,6.00521696132337,2.48744231037308));
#798=IFCCARTESIANPOINT((-62.,2.21731087802709,0.918440237676215));
#799=IFCCARTESIANPOINT((-62.,2.4,-3.85949435922393E-16));
#800=IFCCARTESIANPOINT((-62.,4.59619407771256,4.59619407771256));
#801=IFCCARTESIANPOINT((-62.,1.69705627484771,1.69705627484771));
#802=IFCCARTESIANPOINT((-62.,2.48744231037308,6.00521696132337));
#803=IFCCARTESIANPOINT((-62.,0.918440237676215,2.21731087802709));
#804=IFCCARTESIANPOINT((-62.,0.,6.49999999999999));
#805=IFCCARTESIANPOINT((-62.,-2.48744231037308,6.00521696132337));
#806=IFCCARTESIANPOINT((-62.,-0.918440237676215,2.21731087802709));
#807=IFCCARTESIANPOINT((-62.,0.,2.4));
#808=IFCCARTESIANPOINT((-62.,-4.59619407771256,4.59619407771256));
#809=IFCCARTESIANPOINT((-62.,-6.00521696132337,2.48744231037309));
#810=IFCCARTESIANPOINT((-62.,-2.21731087802709,0.918440237676216));
#811=IFCCARTESIANPOINT((-62.,-1.69705627484771,1.69705627484771));
#812=IFCCARTESIANPOINT((-62.,-6.5,-1.19403062916867E-15));
#813=IFCCARTESIANPOINT((-62.,-2.4,-4.40872847693047E-16));
#814=IFCCARTESIANPOINT((-62.,-6.00521696132337,-2.48744231037308));
#815=IFCCARTESIANPOINT((-62.,-4.59619407771256,-4.59619407771256));
#816=IFCCARTESIANPOINT((-62.,-1.69705627484771,-1.69705627484771));
#817=IFCCARTESIANPOINT((-62.,-2.21731087802709,-0.918440237676215));
#818=IFCCARTESIANPOINT((-62.,4.59619407771256,-4.59619407771256));
#819=IFCCARTESIANPOINT((-62.,6.00521696132337,-2.48744231037309));
#820=IFCCARTESIANPOINT((-62.,2.21731087802709,-0.918440237676216));
#821=IFCCARTESIANPOINT((-62.,1.69705627484771,-1.69705627484771));
#822=IFCCARTESIANPOINT((-62.,-2.48744231037308,-6.00521696132337));
#823=IFCCARTESIANPOINT((-62.,-0.918440237676215,-2.21731087802709));
#824=IFCCARTESIANPOINT((-62.,7.9602041944578E-16,-6.5));
#825=IFCCARTESIANPOINT((-62.,2.93915231795365E-16,-2.4));
#826=IFCCARTESIANPOINT((-62.,0.918440237676214,-2.21731087802709));
#827=IFCCARTESIANPOINT((-62.,2.48744231037308,-6.00521696132337));
#828=IFCCARTESIANPOINT((-64.,0.918440237676215,2.21731087802709));
#829=IFCCARTESIANPOINT((-64.,0.,2.4));
#830=IFCCARTESIANPOINT((-64.,1.69705627484771,1.69705627484771));
#831=IFCCARTESIANPOINT((-64.,2.21731087802709,0.918440237676215));
#832=IFCCARTESIANPOINT((-64.,2.4,-3.85949435922393E-16));
#833=IFCCARTESIANPOINT((-64.,2.21731087802709,-0.918440237676216));
#834=IFCCARTESIANPOINT((-64.,1.69705627484771,-1.69705627484771));
#835=IFCCARTESIANPOINT((-64.,0.918440237676214,-2.21731087802709));
#836=IFCCARTESIANPOINT((-64.,2.93915231795365E-16,-2.4));
#837=IFCCARTESIANPOINT((-64.,-0.918440237676215,-2.21731087802709));
#838=IFCCARTESIANPOINT((-64.,-1.69705627484771,-1.69705627484771));
#839=IFCCARTESIANPOINT((-64.,-2.21731087802709,-0.918440237676215));
#840=IFCCARTESIANPOINT((-64.,-2.4,-4.40872847693047E-16));
#841=IFCCARTESIANPOINT((-64.,-2.21731087802709,0.918440237676216));
#842=IFCCARTESIANPOINT((-64.,-1.69705627484771,1.69705627484771));
#843=IFCCARTESIANPOINT((-64.,-0.918440237676215,2.21731087802709));
#844=IFCCARTESIANPOINT((-64.,2.48744231037308,6.00521696132336));
#845=IFCCARTESIANPOINT((-64.,4.59619407771255,4.59619407771255));
#846=IFCCARTESIANPOINT((-64.,-6.00521696132336,-2.48744231037308));
#847=IFCCARTESIANPOINT((-64.,-6.49999999999999,-1.19403062916867E-15));
#848=IFCCARTESIANPOINT((-64.,6.00521696132336,2.48744231037308));
#849=IFCCARTESIANPOINT((-64.,6.49999999999999,-1.04527972228981E-15));
#850=IFCCARTESIANPOINT((-64.,6.00521696132336,-2.48744231037308));
#851=IFCCARTESIANPOINT((-64.,-6.00521696132336,2.48744231037308));
#852=IFCCARTESIANPOINT((-64.,-4.59619407771256,4.59619407771255));
#853=IFCCARTESIANPOINT((-64.,-2.48744231037308,6.00521696132336));
#854=IFCCARTESIANPOINT((-64.,4.59619407771255,-4.59619407771256));
#855=IFCCARTESIANPOINT((-64.,2.48744231037308,-6.00521696132336));
#856=IFCCARTESIANPOINT((-64.,7.96020419445779E-16,-6.49999999999999));
#857=IFCCARTESIANPOINT((-64.,-2.48744231037308,-6.00521696132336));
#858=IFCCARTESIANPOINT((-64.,0.,6.49999999999999));
#859=IFCCARTESIANPOINT((-64.,-4.59619407771255,-4.59619407771256));
#860=IFCCARTESIANPOINT((-63.8,-2.48744231037308,6.00521696132336));
#861=IFCCARTESIANPOINT((-63.8,0.,6.49999999999999));
#862=IFCCARTESIANPOINT((-63.8,-4.59619407771256,4.59619407771255));
#863=IFCCARTESIANPOINT((-63.8,-6.00521696132336,2.48744231037308));
#864=IFCCARTESIANPOINT((-63.8,-6.49999999999999,-1.19403062916867E-15));
#865=IFCCARTESIANPOINT((-63.8,-6.00521696132336,-2.48744231037308));
#866=IFCCARTESIANPOINT((-63.8,-4.59619407771255,-4.59619407771256));
#867=IFCCARTESIANPOINT((-63.8,-2.48744231037308,-6.00521696132336));
#868=IFCCARTESIANPOINT((-63.8,7.96020419445779E-16,-6.49999999999999));
#869=IFCCARTESIANPOINT((-63.8,2.48744231037308,-6.00521696132336));
#870=IFCCARTESIANPOINT((-63.8,4.59619407771255,-4.59619407771256));
#871=IFCCARTESIANPOINT((-63.8,6.00521696132336,-2.48744231037308));
#872=IFCCARTESIANPOINT((-63.8,6.49999999999999,-1.04527972228981E-15));
#873=IFCCARTESIANPOINT((-63.8,6.00521696132336,2.48744231037308));
#874=IFCCARTESIANPOINT((-63.8,4.59619407771255,4.59619407771255));
#875=IFCCARTESIANPOINT((-63.8,2.48744231037308,6.00521696132336));
#876=IFCCARTESIANPOINT((-19.5439623081703,-6.00521696132337,2.48744231037308));
#877=IFCCARTESIANPOINT((-18.7219903941755,-6.375104322621,1.26808709310483));
#878=IFCCARTESIANPOINT((-18.5139983925127,-6.46870072336928,0.637111412142141));
#879=IFCCARTESIANPOINT((-18.7219903941755,-6.375104322621,-1.26808709310484));
#880=IFCCARTESIANPOINT((-19.5439623081703,-6.00521696132337,-2.48744231037308));
#881=IFCCARTESIANPOINT((-18.5139983925127,-6.46870072336928,-0.637111412142143));
#882=IFCCARTESIANPOINT((-18.4444444444444,-6.5,-1.19403062916867E-15));
#883=IFCCARTESIANPOINT((-24.,-4.,-5.1234753829798));
#884=IFCCARTESIANPOINT((-22.6751242717499,-4.59619407771256,-4.59619407771256));
#885=IFCCARTESIANPOINT((-24.,-2.48744231037308,-6.00521696132337));
#886=IFCCARTESIANPOINT((-24.,-0.4,-6.48768063332344));
#887=IFCCARTESIANPOINT((-24.,0.399999999999992,-6.48768063332344));
#888=IFCCARTESIANPOINT((-20.,7.9602041944578E-16,-6.5));
#889=IFCCARTESIANPOINT((-20.,0.399999999999992,-6.48768063332344));
#890=IFCCARTESIANPOINT((-24.,2.48744231037308,-6.00521696132337));
#891=IFCCARTESIANPOINT((-24.,4.,-5.1234753829798));
#892=IFCCARTESIANPOINT((-19.5439623081703,6.00521696132337,-2.48744231037308));
#893=IFCCARTESIANPOINT((-18.7219903941755,6.375104322621,-1.26808709310483));
#894=IFCCARTESIANPOINT((-18.5139983925127,6.46870072336928,-0.637111412142144));
#895=IFCCARTESIANPOINT((-18.7219903941755,6.375104322621,1.26808709310483));
#896=IFCCARTESIANPOINT((-19.5439623081703,6.00521696132337,2.48744231037308));
#897=IFCCARTESIANPOINT((-18.5139983925127,6.46870072336928,0.637111412142142));
#898=IFCCARTESIANPOINT((-18.4444444444444,6.5,3.9801020972289E-16));
#899=IFCCARTESIANPOINT((-24.,4.,5.1234753829798));
#900=IFCCARTESIANPOINT((-22.6751242717499,4.59619407771256,4.59619407771256));
#901=IFCCARTESIANPOINT((-24.,2.48744231037308,6.00521696132337));
#902=IFCCARTESIANPOINT((-24.,0.4,6.48768063332343));
#903=IFCCARTESIANPOINT((-24.,-0.399999999999995,6.48768063332344));
#904=IFCCARTESIANPOINT((-20.,0.,6.5));
#905=IFCCARTESIANPOINT((-20.,-0.399999999999995,6.48768063332344));
#906=IFCCARTESIANPOINT((-24.,-2.48744231037308,6.00521696132337));
#907=IFCCARTESIANPOINT((-24.,-4.,5.1234753829798));
#908=IFCCARTESIANPOINT((-22.6751242717499,-4.59619407771257,4.59619407771256));
#909=IFCCARTESIANPOINT((-20.,0.4,6.48768063332343));
#910=IFCCARTESIANPOINT((-22.6751242717499,4.59619407771256,-4.59619407771256));
#911=IFCCARTESIANPOINT((-20.,-0.4,-6.48768063332344));
#912=IFCCARTESIANPOINT((-20.,0.399999999999984,-7.58946638440411));
#913=IFCCARTESIANPOINT((-20.,-0.4,-7.58946638440411));
#914=IFCCARTESIANPOINT((-20.8,-0.4,-7.58946638440411));
#915=IFCCARTESIANPOINT((-20.8,0.399999999999984,-7.58946638440411));
#916=IFCCARTESIANPOINT((-20.8,0.4,-7.10000000000002));
#917=IFCCARTESIANPOINT((-24.,0.4,-7.10000000000002));
#918=IFCCARTESIANPOINT((-24.,-0.4,-7.10000000000002));
#919=IFCCARTESIANPOINT((-20.8,-0.4,-7.10000000000002));
#920=IFCCARTESIANPOINT((-20.,-0.399999999999994,7.58946638440411));
#921=IFCCARTESIANPOINT((-20.,0.4,7.58946638440411));
#922=IFCCARTESIANPOINT((-20.8,0.4,7.58946638440411));
#923=IFCCARTESIANPOINT((-20.8,-0.399999999999994,7.58946638440411));
#924=IFCCARTESIANPOINT((-20.8,-0.4,7.10000000000002));
#925=IFCCARTESIANPOINT((-24.,-0.4,7.10000000000002));
#926=IFCCARTESIANPOINT((-24.,0.4,7.10000000000002));
#927=IFCCARTESIANPOINT((-20.8,0.4,7.10000000000002));
#928=IFCCARTESIANPOINT((-16.2565801713494,-7.48453892289278,1.31972615026866));
#929=IFCCARTESIANPOINT((-16.0642673211172,-7.57107970549726,0.662383644882193));
#930=IFCCARTESIANPOINT((-16.,-7.6,-8.14625334074893E-15));
#931=IFCCARTESIANPOINT((-16.2565801713494,-7.48453892289278,-1.31972615026868));
#932=IFCCARTESIANPOINT((-17.0185246267269,-7.1416639179729,-2.59935308927509));
#933=IFCCARTESIANPOINT((-16.0642673211172,-7.57107970549726,-0.662383644882209));
#934=IFCCARTESIANPOINT((-18.2626820694184,-6.58179306876172,-3.80000000000001));
#935=IFCCARTESIANPOINT((-17.0185246267269,-7.1416639179729,2.59935308927507));
#936=IFCCARTESIANPOINT((-22.2457237128996,-4.7894243291952,-5.90096725926463));
#937=IFCCARTESIANPOINT((-24.,-4.,-6.4621977685614));
#938=IFCCARTESIANPOINT((-22.2457237128996,-4.7894243291952,5.90096725926462));
#939=IFCCARTESIANPOINT((-18.2626820694184,-6.58179306876174,3.79999999999999));
#940=IFCCARTESIANPOINT((-24.,-4.,6.4621977685614));
#941=IFCCARTESIANPOINT((-16.2565801713494,7.48453892289278,-1.31972615026867));
#942=IFCCARTESIANPOINT((-16.0642673211172,7.57107970549726,-0.662383644882204));
#943=IFCCARTESIANPOINT((-16.,7.6,-2.90971221118448E-15));
#944=IFCCARTESIANPOINT((-16.2565801713494,7.48453892289278,1.31972615026867));
#945=IFCCARTESIANPOINT((-17.0185246267269,7.1416639179729,2.59935308927508));
#946=IFCCARTESIANPOINT((-16.0642673211172,7.57107970549726,0.662383644882198));
#947=IFCCARTESIANPOINT((-18.2626820694184,6.58179306876173,3.79999999999999));
#948=IFCCARTESIANPOINT((-22.2457237128996,4.78942432919519,-5.90096725926463));
#949=IFCCARTESIANPOINT((-18.2626820694184,6.58179306876173,-3.8));
#950=IFCCARTESIANPOINT((-17.0185246267269,7.1416639179729,-2.59935308927508));
#951=IFCCARTESIANPOINT((-22.2457237128996,4.7894243291952,5.90096725926462));
#952=IFCCARTESIANPOINT((-24.,4.,6.4621977685614));
#953=IFCCARTESIANPOINT((-24.,4.,-6.4621977685614));
#954=IFCCARTESIANPOINT((-24.,-1.76349139077219E-15,7.2));
#955=IFCCARTESIANPOINT((-24.,2.46254503194481,6.76578686965854));
#956=IFCCARTESIANPOINT((-24.,-2.46254503194481,6.76578686965854));
#957=IFCCARTESIANPOINT((-24.,2.59935308927508,7.1416639179729));
#958=IFCCARTESIANPOINT((-24.,-2.59935308927508,7.1416639179729));
#959=IFCCARTESIANPOINT((-63.8,-2.59935308927508,7.1416639179729));
#960=IFCCARTESIANPOINT((-63.8,-2.46254503194481,6.76578686965854));
#961=IFCCARTESIANPOINT((-63.8,2.46254503194481,6.76578686965854));
#962=IFCCARTESIANPOINT((-63.8,2.59935308927508,7.1416639179729));
#963=IFCCARTESIANPOINT((-63.8,-1.76349139077219E-15,7.2));
#964=IFCCARTESIANPOINT((-24.,4.07918800630655E-15,-7.2));
#965=IFCCARTESIANPOINT((-24.,-2.46254503194481,-6.76578686965854));
#966=IFCCARTESIANPOINT((-24.,2.46254503194481,-6.76578686965854));
#967=IFCCARTESIANPOINT((-24.,-2.59935308927508,-7.1416639179729));
#968=IFCCARTESIANPOINT((-24.,2.59935308927508,-7.1416639179729));
#969=IFCCARTESIANPOINT((-63.8,2.59935308927508,-7.1416639179729));
#970=IFCCARTESIANPOINT((-63.8,2.46254503194482,-6.76578686965854));
#971=IFCCARTESIANPOINT((-63.8,-2.46254503194481,-6.76578686965854));
#972=IFCCARTESIANPOINT((-63.8,-2.59935308927508,-7.1416639179729));
#973=IFCCARTESIANPOINT((-63.8,4.07918800630655E-15,-7.2));
#974=IFCCARTESIANPOINT((-63.8,4.8851858336177,5.82193776770423));
#975=IFCCARTESIANPOINT((-63.8,6.58179306876173,3.8));
#976=IFCCARTESIANPOINT((-24.,7.48453892289278,1.31972615026867));
#977=IFCCARTESIANPOINT((-24.,7.1416639179729,2.59935308927508));
#978=IFCCARTESIANPOINT((-24.,7.48453892289278,-1.31972615026867));
#979=IFCCARTESIANPOINT((-63.8,6.58179306876173,-3.8));
#980=IFCCARTESIANPOINT((-63.8,7.1416639179729,-2.59935308927508));
#981=IFCCARTESIANPOINT((-24.,7.1416639179729,-2.59935308927508));
#982=IFCCARTESIANPOINT((-63.8,4.88518583361769,-5.82193776770423));
#983=IFCCARTESIANPOINT((-63.8,7.1416639179729,2.59935308927508));
#984=IFCCARTESIANPOINT((-24.,6.76578686965854,-2.46254503194481));
#985=IFCCARTESIANPOINT((-24.,7.2,4.40872847693047E-16));
#986=IFCCARTESIANPOINT((-24.,6.76578686965854,2.46254503194482));
#987=IFCCARTESIANPOINT((-63.8,6.76578686965854,2.46254503194482));
#988=IFCCARTESIANPOINT((-63.8,6.76578686965854,-2.46254503194481));
#989=IFCCARTESIANPOINT((-63.8,7.2,4.40872847693047E-16));
#990=IFCCARTESIANPOINT((-63.8,-6.76578686965854,-2.46254503194482));
#991=IFCCARTESIANPOINT((-63.8,-7.2,-1.32261854307914E-15));
#992=IFCCARTESIANPOINT((-63.8,-6.76578686965854,2.46254503194481));
#993=IFCCARTESIANPOINT((-63.8,-4.8851858336177,5.82193776770423));
#994=IFCCARTESIANPOINT((-63.8,-4.88518583361769,-5.82193776770423));
#995=IFCCARTESIANPOINT((-63.8,-6.58179306876172,-3.80000000000001));
#996=IFCCARTESIANPOINT((-63.8,-7.1416639179729,-2.59935308927508));
#997=IFCCARTESIANPOINT((-63.8,-7.1416639179729,2.59935308927508));
#998=IFCCARTESIANPOINT((-63.8,-6.58179306876173,3.79999999999999));
#999=IFCCARTESIANPOINT((-24.,-7.48453892289278,-1.31972615026868));
#1000=IFCCARTESIANPOINT((-24.,-7.1416639179729,-2.59935308927508));
#1001=IFCCARTESIANPOINT((-24.,-7.48453892289278,1.31972615026867));
#1002=IFCCARTESIANPOINT((-24.,-7.1416639179729,2.59935308927508));
#1003=IFCCARTESIANPOINT((-24.,-6.76578686965854,2.46254503194481));
#1004=IFCCARTESIANPOINT((-24.,-7.2,-1.32261854307914E-15));
#1005=IFCCARTESIANPOINT((-24.,-6.76578686965854,-2.46254503194482));
#1006=IFCCARTESIANPOINT((0.,0.,0.));
#1007=IFCCARTESIANPOINT((0.,0.,0.));
#1008=IFCGEOMETRICREPRESENTATIONCONTEXT($,'Model',3,0.005,#789,$);
#1009=IFCSIUNIT(*,.LENGTHUNIT.,.MILLI.,.METRE.);
#1010=IFCSIUNIT(*,.AREAUNIT.,$,.SQUARE_METRE.);
#1011=IFCSIUNIT(*,.VOLUMEUNIT.,$,.CUBIC_METRE.);
#1012=IFCSIUNIT(*,.PLANEANGLEUNIT.,$,.RADIAN.);
#1013=IFCOWNERHISTORY(#1015,#1014,$,.NOCHANGE.,0,$,$,0);
#1014=IFCAPPLICATION(#1016,' ',' ',' ');
#1015=IFCPERSONANDORGANIZATION(#1017,#1016,$);
#1016=IFCORGANIZATION($,' ',$,$,$);
#1017=IFCPERSON(' ',' ',' ',$,$,$,$,$);
ENDSEC;
END-ISO-10303-21;
