ISO-10303-21;
HEADER;
/* Generated by software containing ST-Developer
 * from STEP Tools, Inc. (www.steptools.com) 
 */
/* OPTION: strings as raw bytes, not using required /X/ escapes */

FILE_DESCRIPTION(
/* description */ ('Unknown'),
/* implementation_level */ '2;1');

FILE_NAME(
/* name */ 'Gray_4237267_JC',
/* time_stamp */ '2025-07-21T23:58:54+02:00',
/* author */ ('Unknown'),
/* organization */ ('Unknown'),
/* preprocessor_version */ 'ST-DEVELOPER v19.4',
/* originating_system */ 'Unknown',
/* authorisation */ 'OpenTools');

FILE_SCHEMA (('IFC2X3'));
ENDSEC;

DATA;
#10=IFCPROPERTYSINGLEVALUE('ProjectName',$,IFCTEXT(''),$);
#11=IFCPROPERTYSINGLEVALUE('PartNumber',$,IFCTEXT(''),$);
#12=IFCRELDEFINESBYPROPERTIES('3cRq1JQpSwDOm5lsE5cG83',#1878,$,$,(#14),
#13);
#13=IFCPROPERTYSET('1jOd4kXgWorA4TVRi95rqH',#1878,
'empty property set name',$,(#10,#11));
#14=IFCBUILDINGELEMENTPROXY('2GP_XOK7Wq1Pa1NGQTVWHM',#1878,
'Gray_4237267_JC',' ','Gray_4237267_JC',#19,#15,' ',.ELEMENT.);
#15=IFCPRODUCTDEFINITIONSHAPE(' ',' ',(#25));
#16=IFCRELCONTAINEDINSPATIALSTRUCTURE('3HZhfx2I0vj9Cvp1GHER_f',#1878,
' ',' ',(#14),#20);
#17=IFCRELAGGREGATES('1jF0XzMGqvEA6wZwPLSawz',#1878,$,$,#1413,(#20));
#18=IFCLOCALPLACEMENT($,#1416);
#19=IFCLOCALPLACEMENT(#18,#1417);
#20=IFCBUILDING('3G2N19bOG__grq1LV0cQPU',#1878,'Default Building',$,$,#18,
$,$,.ELEMENT.,0.,0.,$);
#21=IFCCARTESIANTRANSFORMATIONOPERATOR3D($,$,#1871,1.,$);
#22=IFCMAPPEDITEM(#23,#21);
#23=IFCREPRESENTATIONMAP(#1416,#24);
#24=IFCSHAPEREPRESENTATION(#1415,'Body','Brep',(#1412));
#25=IFCSHAPEREPRESENTATION(#1415,'Body','MappedRepresentation',(#22));
#26=IFCPOLYLOOP((#1423,#1424,#1425,#1426));
#27=IFCPOLYLOOP((#1427,#1428,#1424,#1423));
#28=IFCPOLYLOOP((#1429,#1430,#1428,#1427));
#29=IFCPOLYLOOP((#1431,#1432,#1430,#1429));
#30=IFCPOLYLOOP((#1433,#1434,#1432,#1431));
#31=IFCPOLYLOOP((#1435,#1436,#1434,#1433));
#32=IFCPOLYLOOP((#1437,#1438,#1436,#1435));
#33=IFCPOLYLOOP((#1439,#1440,#1438,#1437));
#34=IFCPOLYLOOP((#1441,#1442,#1440,#1439));
#35=IFCPOLYLOOP((#1443,#1444,#1442,#1441));
#36=IFCPOLYLOOP((#1445,#1446,#1444,#1443));
#37=IFCPOLYLOOP((#1447,#1448,#1446,#1445));
#38=IFCPOLYLOOP((#1449,#1450,#1448,#1447));
#39=IFCPOLYLOOP((#1451,#1452,#1450,#1449));
#40=IFCPOLYLOOP((#1453,#1454,#1452,#1451));
#41=IFCPOLYLOOP((#1426,#1425,#1454,#1453));
#42=IFCPOLYLOOP((#1430,#1432,#1455,#1456));
#43=IFCPOLYLOOP((#1432,#1434,#1457,#1455));
#44=IFCPOLYLOOP((#1434,#1436,#1458,#1457));
#45=IFCPOLYLOOP((#1440,#1442,#1459,#1460));
#46=IFCPOLYLOOP((#1446,#1448,#1461,#1462));
#47=IFCPOLYLOOP((#1436,#1438,#1463,#1458));
#48=IFCPOLYLOOP((#1442,#1444,#1464,#1459));
#49=IFCPOLYLOOP((#1448,#1450,#1465,#1461));
#50=IFCPOLYLOOP((#1452,#1454,#1466,#1467));
#51=IFCPOLYLOOP((#1424,#1428,#1468,#1469));
#52=IFCPOLYLOOP((#1460,#1463,#1438,#1440));
#53=IFCPOLYLOOP((#1467,#1465,#1450,#1452));
#54=IFCPOLYLOOP((#1456,#1468,#1428,#1430));
#55=IFCPOLYLOOP((#1454,#1425,#1470,#1466));
#56=IFCPOLYLOOP((#1462,#1464,#1444,#1446));
#57=IFCPOLYLOOP((#1469,#1470,#1425,#1424));
#58=IFCPOLYLOOP((#1469,#1471,#1472,#1470));
#59=IFCPOLYLOOP((#1468,#1473,#1471,#1469));
#60=IFCPOLYLOOP((#1456,#1474,#1473,#1468));
#61=IFCPOLYLOOP((#1455,#1475,#1474,#1456));
#62=IFCPOLYLOOP((#1457,#1476,#1475,#1455));
#63=IFCPOLYLOOP((#1458,#1477,#1476,#1457));
#64=IFCPOLYLOOP((#1463,#1478,#1477,#1458));
#65=IFCPOLYLOOP((#1460,#1479,#1478,#1463));
#66=IFCPOLYLOOP((#1459,#1480,#1479,#1460));
#67=IFCPOLYLOOP((#1464,#1481,#1480,#1459));
#68=IFCPOLYLOOP((#1462,#1482,#1481,#1464));
#69=IFCPOLYLOOP((#1461,#1483,#1482,#1462));
#70=IFCPOLYLOOP((#1465,#1484,#1483,#1461));
#71=IFCPOLYLOOP((#1467,#1485,#1484,#1465));
#72=IFCPOLYLOOP((#1466,#1486,#1485,#1467));
#73=IFCPOLYLOOP((#1470,#1472,#1486,#1466));
#74=IFCPOLYLOOP((#1487,#1488,#1472,#1471));
#75=IFCPOLYLOOP((#1489,#1490,#1477,#1478));
#76=IFCPOLYLOOP((#1488,#1491,#1486,#1472));
#77=IFCPOLYLOOP((#1490,#1492,#1476,#1477));
#78=IFCPOLYLOOP((#1491,#1493,#1485,#1486));
#79=IFCPOLYLOOP((#1492,#1494,#1475,#1476));
#80=IFCPOLYLOOP((#1493,#1495,#1484,#1485));
#81=IFCPOLYLOOP((#1494,#1496,#1474,#1475));
#82=IFCPOLYLOOP((#1495,#1497,#1483,#1484));
#83=IFCPOLYLOOP((#1498,#1499,#1481,#1482));
#84=IFCPOLYLOOP((#1496,#1500,#1473,#1474));
#85=IFCPOLYLOOP((#1482,#1483,#1497,#1498));
#86=IFCPOLYLOOP((#1471,#1473,#1500,#1487));
#87=IFCPOLYLOOP((#1501,#1502,#1479,#1480));
#88=IFCPOLYLOOP((#1480,#1481,#1499,#1501));
#89=IFCPOLYLOOP((#1478,#1479,#1502,#1489));
#90=IFCPOLYLOOP((#1503,#1491,#1488,#1504));
#91=IFCPOLYLOOP((#1505,#1493,#1491,#1503));
#92=IFCPOLYLOOP((#1506,#1495,#1493,#1505));
#93=IFCPOLYLOOP((#1507,#1497,#1495,#1506));
#94=IFCPOLYLOOP((#1508,#1498,#1497,#1507));
#95=IFCPOLYLOOP((#1509,#1499,#1498,#1508));
#96=IFCPOLYLOOP((#1510,#1501,#1499,#1509));
#97=IFCPOLYLOOP((#1511,#1502,#1501,#1510));
#98=IFCPOLYLOOP((#1512,#1489,#1502,#1511));
#99=IFCPOLYLOOP((#1513,#1490,#1489,#1512));
#100=IFCPOLYLOOP((#1514,#1492,#1490,#1513));
#101=IFCPOLYLOOP((#1515,#1494,#1492,#1514));
#102=IFCPOLYLOOP((#1516,#1496,#1494,#1515));
#103=IFCPOLYLOOP((#1517,#1500,#1496,#1516));
#104=IFCPOLYLOOP((#1518,#1487,#1500,#1517));
#105=IFCPOLYLOOP((#1504,#1488,#1487,#1518));
#106=IFCPOLYLOOP((#1519,#1520,#1427,#1423));
#107=IFCPOLYLOOP((#1520,#1521,#1429,#1427));
#108=IFCPOLYLOOP((#1522,#1523,#1433,#1431));
#109=IFCPOLYLOOP((#1524,#1525,#1445,#1443));
#110=IFCPOLYLOOP((#1526,#1527,#1451,#1449));
#111=IFCPOLYLOOP((#1431,#1429,#1521,#1522));
#112=IFCPOLYLOOP((#1528,#1529,#1437,#1435));
#113=IFCPOLYLOOP((#1525,#1530,#1447,#1445));
#114=IFCPOLYLOOP((#1527,#1531,#1453,#1451));
#115=IFCPOLYLOOP((#1435,#1433,#1523,#1528));
#116=IFCPOLYLOOP((#1532,#1533,#1441,#1439));
#117=IFCPOLYLOOP((#1449,#1447,#1530,#1526));
#118=IFCPOLYLOOP((#1439,#1437,#1529,#1532));
#119=IFCPOLYLOOP((#1531,#1534,#1426,#1453));
#120=IFCPOLYLOOP((#1443,#1441,#1533,#1524));
#121=IFCPOLYLOOP((#1423,#1426,#1534,#1519));
#122=IFCPOLYLOOP((#1531,#1535,#1536,#1534));
#123=IFCPOLYLOOP((#1527,#1537,#1535,#1531));
#124=IFCPOLYLOOP((#1526,#1538,#1537,#1527));
#125=IFCPOLYLOOP((#1530,#1539,#1538,#1526));
#126=IFCPOLYLOOP((#1525,#1540,#1539,#1530));
#127=IFCPOLYLOOP((#1524,#1541,#1540,#1525));
#128=IFCPOLYLOOP((#1533,#1542,#1541,#1524));
#129=IFCPOLYLOOP((#1532,#1543,#1542,#1533));
#130=IFCPOLYLOOP((#1529,#1544,#1543,#1532));
#131=IFCPOLYLOOP((#1528,#1545,#1544,#1529));
#132=IFCPOLYLOOP((#1523,#1546,#1545,#1528));
#133=IFCPOLYLOOP((#1522,#1547,#1546,#1523));
#134=IFCPOLYLOOP((#1521,#1548,#1547,#1522));
#135=IFCPOLYLOOP((#1520,#1549,#1548,#1521));
#136=IFCPOLYLOOP((#1519,#1550,#1549,#1520));
#137=IFCPOLYLOOP((#1534,#1536,#1550,#1519));
#138=IFCPOLYLOOP((#1551,#1552,#1547,#1548));
#139=IFCPOLYLOOP((#1552,#1553,#1546,#1547));
#140=IFCPOLYLOOP((#1554,#1555,#1540,#1541));
#141=IFCPOLYLOOP((#1553,#1556,#1545,#1546));
#142=IFCPOLYLOOP((#1555,#1557,#1539,#1540));
#143=IFCPOLYLOOP((#1558,#1559,#1537,#1538));
#144=IFCPOLYLOOP((#1556,#1560,#1544,#1545));
#145=IFCPOLYLOOP((#1561,#1562,#1542,#1543));
#146=IFCPOLYLOOP((#1538,#1539,#1557,#1558));
#147=IFCPOLYLOOP((#1563,#1564,#1549,#1550));
#148=IFCPOLYLOOP((#1543,#1544,#1560,#1561));
#149=IFCPOLYLOOP((#1559,#1565,#1535,#1537));
#150=IFCPOLYLOOP((#1548,#1549,#1564,#1551));
#151=IFCPOLYLOOP((#1565,#1566,#1536,#1535));
#152=IFCPOLYLOOP((#1541,#1542,#1562,#1554));
#153=IFCPOLYLOOP((#1550,#1536,#1566,#1563));
#154=IFCPOLYLOOP((#1567,#1563,#1566,#1568));
#155=IFCPOLYLOOP((#1569,#1564,#1563,#1567));
#156=IFCPOLYLOOP((#1570,#1551,#1564,#1569));
#157=IFCPOLYLOOP((#1571,#1552,#1551,#1570));
#158=IFCPOLYLOOP((#1572,#1553,#1552,#1571));
#159=IFCPOLYLOOP((#1573,#1556,#1553,#1572));
#160=IFCPOLYLOOP((#1574,#1560,#1556,#1573));
#161=IFCPOLYLOOP((#1575,#1561,#1560,#1574));
#162=IFCPOLYLOOP((#1576,#1562,#1561,#1575));
#163=IFCPOLYLOOP((#1577,#1554,#1562,#1576));
#164=IFCPOLYLOOP((#1578,#1555,#1554,#1577));
#165=IFCPOLYLOOP((#1579,#1557,#1555,#1578));
#166=IFCPOLYLOOP((#1580,#1558,#1557,#1579));
#167=IFCPOLYLOOP((#1581,#1559,#1558,#1580));
#168=IFCPOLYLOOP((#1582,#1565,#1559,#1581));
#169=IFCPOLYLOOP((#1568,#1566,#1565,#1582));
#170=IFCPOLYLOOP((#1583,#1518,#1517));
#171=IFCPOLYLOOP((#1583,#1584,#1503,#1504));
#172=IFCPOLYLOOP((#1504,#1518,#1583));
#173=IFCPOLYLOOP((#1585,#1586,#1514,#1513));
#174=IFCPOLYLOOP((#1584,#1587,#1505,#1503));
#175=IFCPOLYLOOP((#1587,#1588,#1507,#1506));
#176=IFCPOLYLOOP((#1513,#1512,#1589,#1585));
#177=IFCPOLYLOOP((#1586,#1516,#1515));
#178=IFCPOLYLOOP((#1506,#1505,#1587));
#179=IFCPOLYLOOP((#1588,#1509,#1508));
#180=IFCPOLYLOOP((#1515,#1514,#1586));
#181=IFCPOLYLOOP((#1508,#1507,#1588));
#182=IFCPOLYLOOP((#1590,#1591,#1511,#1510));
#183=IFCPOLYLOOP((#1586,#1517,#1516));
#184=IFCPOLYLOOP((#1510,#1509,#1588,#1590));
#185=IFCPOLYLOOP((#1585,#1592,#1593,#1586));
#186=IFCPOLYLOOP((#1512,#1511,#1589));
#187=IFCPOLYLOOP((#1588,#1594,#1595,#1596,#1597,#1598,#1590));
#188=IFCPOLYLOOP((#1584,#1599,#1600,#1601,#1602,#1603,#1587));
#189=IFCPOLYLOOP((#1589,#1511,#1591));
#190=IFCPOLYLOOP((#1517,#1586,#1604,#1583));
#191=IFCPOLYLOOP((#1604,#1605,#1606,#1607,#1608,#1609,#1583));
#192=IFCPOLYLOOP((#1591,#1610,#1589));
#193=IFCPOLYLOOP((#1603,#1611,#1612,#1587));
#194=IFCPOLYLOOP((#1613,#1594,#1588,#1614));
#195=IFCPOLYLOOP((#1587,#1612,#1614,#1588));
#196=IFCPOLYLOOP((#1615,#1613,#1614,#1612,#1611));
#197=IFCPOLYLOOP((#1593,#1616,#1617,#1586));
#198=IFCPOLYLOOP((#1618,#1605,#1604,#1619));
#199=IFCPOLYLOOP((#1586,#1617,#1619,#1604));
#200=IFCPOLYLOOP((#1616,#1620,#1618,#1619,#1617));
#201=IFCPOLYLOOP((#1598,#1621,#1622,#1590));
#202=IFCPOLYLOOP((#1623,#1610,#1591,#1624));
#203=IFCPOLYLOOP((#1590,#1622,#1624,#1591));
#204=IFCPOLYLOOP((#1621,#1625,#1623,#1624,#1622));
#205=IFCPOLYLOOP((#1583,#1626,#1627,#1584));
#206=IFCPOLYLOOP((#1609,#1628,#1626,#1583));
#207=IFCPOLYLOOP((#1629,#1599,#1584,#1627));
#208=IFCPOLYLOOP((#1630,#1629,#1627,#1626,#1628));
#209=IFCPOLYLOOP((#1631,#1632,#1613));
#210=IFCPOLYLOOP((#1632,#1595,#1594,#1613));
#211=IFCPOLYLOOP((#1631,#1615,#1611));
#212=IFCPOLYLOOP((#1611,#1633,#1631));
#213=IFCPOLYLOOP((#1634,#1635,#1629));
#214=IFCPOLYLOOP((#1635,#1600,#1599,#1629));
#215=IFCPOLYLOOP((#1634,#1630,#1628));
#216=IFCPOLYLOOP((#1628,#1636,#1634));
#217=IFCPOLYLOOP((#1637,#1638,#1618));
#218=IFCPOLYLOOP((#1638,#1606,#1605,#1618));
#219=IFCPOLYLOOP((#1637,#1620,#1616));
#220=IFCPOLYLOOP((#1616,#1639,#1637));
#221=IFCPOLYLOOP((#1640,#1641,#1623));
#222=IFCPOLYLOOP((#1641,#1589,#1610,#1623));
#223=IFCPOLYLOOP((#1640,#1625,#1621));
#224=IFCPOLYLOOP((#1621,#1642,#1640));
#225=IFCPOLYLOOP((#1621,#1598,#1597,#1642));
#226=IFCPOLYLOOP((#1623,#1625,#1640));
#227=IFCPOLYLOOP((#1616,#1593,#1592,#1639));
#228=IFCPOLYLOOP((#1618,#1620,#1637));
#229=IFCPOLYLOOP((#1628,#1609,#1608,#1636));
#230=IFCPOLYLOOP((#1629,#1630,#1634));
#231=IFCPOLYLOOP((#1611,#1603,#1602,#1633));
#232=IFCPOLYLOOP((#1613,#1615,#1631));
#233=IFCPOLYLOOP((#1607,#1643,#1636,#1608));
#234=IFCPOLYLOOP((#1606,#1638,#1643,#1607));
#235=IFCPOLYLOOP((#1585,#1644,#1639,#1592));
#236=IFCPOLYLOOP((#1589,#1641,#1644,#1585));
#237=IFCPOLYLOOP((#1596,#1645,#1642,#1597));
#238=IFCPOLYLOOP((#1595,#1632,#1645,#1596));
#239=IFCPOLYLOOP((#1601,#1646,#1633,#1602));
#240=IFCPOLYLOOP((#1600,#1635,#1646,#1601));
#241=IFCPOLYLOOP((#1647,#1648,#1646,#1635));
#242=IFCPOLYLOOP((#1635,#1634,#1649,#1647));
#243=IFCPOLYLOOP((#1650,#1651,#1644,#1641));
#244=IFCPOLYLOOP((#1652,#1653,#1638,#1637));
#245=IFCPOLYLOOP((#1654,#1655,#1636,#1643));
#246=IFCPOLYLOOP((#1648,#1656,#1633,#1646));
#247=IFCPOLYLOOP((#1651,#1657,#1639,#1644));
#248=IFCPOLYLOOP((#1643,#1638,#1653,#1654));
#249=IFCPOLYLOOP((#1656,#1658,#1631,#1633));
#250=IFCPOLYLOOP((#1659,#1660,#1645,#1632));
#251=IFCPOLYLOOP((#1637,#1639,#1657,#1652));
#252=IFCPOLYLOOP((#1632,#1631,#1658,#1659));
#253=IFCPOLYLOOP((#1634,#1636,#1655,#1649));
#254=IFCPOLYLOOP((#1661,#1662,#1640,#1642));
#255=IFCPOLYLOOP((#1642,#1645,#1660,#1661));
#256=IFCPOLYLOOP((#1641,#1640,#1662,#1650));
#257=IFCPOLYLOOP((#1659,#1658,#1663));
#258=IFCPOLYLOOP((#1658,#1664,#1665));
#259=IFCPOLYLOOP((#1665,#1663,#1658));
#260=IFCPOLYLOOP((#1665,#1666,#1667,#1663));
#261=IFCPOLYLOOP((#1660,#1659,#1668));
#262=IFCPOLYLOOP((#1659,#1669,#1670));
#263=IFCPOLYLOOP((#1670,#1668,#1659));
#264=IFCPOLYLOOP((#1670,#1671,#1672,#1668));
#265=IFCPOLYLOOP((#1661,#1660,#1673));
#266=IFCPOLYLOOP((#1660,#1674,#1675));
#267=IFCPOLYLOOP((#1675,#1673,#1660));
#268=IFCPOLYLOOP((#1675,#1676,#1677,#1673));
#269=IFCPOLYLOOP((#1662,#1661,#1678));
#270=IFCPOLYLOOP((#1661,#1679,#1680));
#271=IFCPOLYLOOP((#1680,#1678,#1661));
#272=IFCPOLYLOOP((#1680,#1681,#1682,#1678));
#273=IFCPOLYLOOP((#1650,#1662,#1683));
#274=IFCPOLYLOOP((#1662,#1684,#1685));
#275=IFCPOLYLOOP((#1685,#1683,#1662));
#276=IFCPOLYLOOP((#1685,#1686,#1687,#1683));
#277=IFCPOLYLOOP((#1651,#1650,#1688));
#278=IFCPOLYLOOP((#1650,#1689,#1690));
#279=IFCPOLYLOOP((#1690,#1688,#1650));
#280=IFCPOLYLOOP((#1690,#1691,#1692,#1688));
#281=IFCPOLYLOOP((#1657,#1651,#1693));
#282=IFCPOLYLOOP((#1651,#1694,#1695));
#283=IFCPOLYLOOP((#1695,#1693,#1651));
#284=IFCPOLYLOOP((#1695,#1696,#1697,#1693));
#285=IFCPOLYLOOP((#1652,#1657,#1698));
#286=IFCPOLYLOOP((#1657,#1699,#1700));
#287=IFCPOLYLOOP((#1700,#1698,#1657));
#288=IFCPOLYLOOP((#1700,#1701,#1702,#1698));
#289=IFCPOLYLOOP((#1653,#1652,#1703));
#290=IFCPOLYLOOP((#1652,#1704,#1705));
#291=IFCPOLYLOOP((#1705,#1703,#1652));
#292=IFCPOLYLOOP((#1705,#1706,#1707,#1703));
#293=IFCPOLYLOOP((#1654,#1653,#1708));
#294=IFCPOLYLOOP((#1653,#1709,#1710));
#295=IFCPOLYLOOP((#1710,#1708,#1653));
#296=IFCPOLYLOOP((#1710,#1711,#1712,#1708));
#297=IFCPOLYLOOP((#1655,#1654,#1713));
#298=IFCPOLYLOOP((#1654,#1714,#1715));
#299=IFCPOLYLOOP((#1715,#1713,#1654));
#300=IFCPOLYLOOP((#1715,#1716,#1717,#1713));
#301=IFCPOLYLOOP((#1649,#1655,#1718));
#302=IFCPOLYLOOP((#1655,#1719,#1720));
#303=IFCPOLYLOOP((#1720,#1718,#1655));
#304=IFCPOLYLOOP((#1720,#1721,#1722,#1718));
#305=IFCPOLYLOOP((#1647,#1649,#1723));
#306=IFCPOLYLOOP((#1649,#1724,#1725));
#307=IFCPOLYLOOP((#1725,#1723,#1649));
#308=IFCPOLYLOOP((#1725,#1726,#1727,#1723));
#309=IFCPOLYLOOP((#1648,#1647,#1728));
#310=IFCPOLYLOOP((#1647,#1729,#1730));
#311=IFCPOLYLOOP((#1730,#1728,#1647));
#312=IFCPOLYLOOP((#1730,#1731,#1732,#1728));
#313=IFCPOLYLOOP((#1656,#1648,#1733));
#314=IFCPOLYLOOP((#1648,#1734,#1735));
#315=IFCPOLYLOOP((#1735,#1733,#1648));
#316=IFCPOLYLOOP((#1735,#1736,#1737,#1733));
#317=IFCPOLYLOOP((#1658,#1656,#1738));
#318=IFCPOLYLOOP((#1656,#1739,#1740));
#319=IFCPOLYLOOP((#1740,#1738,#1656));
#320=IFCPOLYLOOP((#1740,#1741,#1742,#1738));
#321=IFCPOLYLOOP((#1738,#1664,#1658));
#322=IFCPOLYLOOP((#1733,#1739,#1656));
#323=IFCPOLYLOOP((#1728,#1734,#1648));
#324=IFCPOLYLOOP((#1723,#1729,#1647));
#325=IFCPOLYLOOP((#1718,#1724,#1649));
#326=IFCPOLYLOOP((#1713,#1719,#1655));
#327=IFCPOLYLOOP((#1708,#1714,#1654));
#328=IFCPOLYLOOP((#1703,#1709,#1653));
#329=IFCPOLYLOOP((#1698,#1704,#1652));
#330=IFCPOLYLOOP((#1693,#1699,#1657));
#331=IFCPOLYLOOP((#1688,#1694,#1651));
#332=IFCPOLYLOOP((#1683,#1689,#1650));
#333=IFCPOLYLOOP((#1678,#1684,#1662));
#334=IFCPOLYLOOP((#1673,#1679,#1661));
#335=IFCPOLYLOOP((#1668,#1674,#1660));
#336=IFCPOLYLOOP((#1663,#1669,#1659));
#337=IFCPOLYLOOP((#1743,#1744,#1733,#1737));
#338=IFCPOLYLOOP((#1745,#1746,#1744,#1743));
#339=IFCPOLYLOOP((#1746,#1747,#1748,#1740,#1739));
#340=IFCPOLYLOOP((#1739,#1733,#1744,#1746));
#341=IFCPOLYLOOP((#1749,#1747,#1746,#1745));
#342=IFCPOLYLOOP((#1750,#1748,#1747,#1749));
#343=IFCPOLYLOOP((#1741,#1740,#1748,#1750));
#344=IFCPOLYLOOP((#1751,#1752,#1728,#1732));
#345=IFCPOLYLOOP((#1753,#1754,#1752,#1751));
#346=IFCPOLYLOOP((#1754,#1755,#1756,#1735,#1734));
#347=IFCPOLYLOOP((#1734,#1728,#1752,#1754));
#348=IFCPOLYLOOP((#1757,#1755,#1754,#1753));
#349=IFCPOLYLOOP((#1758,#1756,#1755,#1757));
#350=IFCPOLYLOOP((#1736,#1735,#1756,#1758));
#351=IFCPOLYLOOP((#1759,#1760,#1723,#1727));
#352=IFCPOLYLOOP((#1761,#1762,#1760,#1759));
#353=IFCPOLYLOOP((#1762,#1763,#1764,#1730,#1729));
#354=IFCPOLYLOOP((#1729,#1723,#1760,#1762));
#355=IFCPOLYLOOP((#1765,#1763,#1762,#1761));
#356=IFCPOLYLOOP((#1766,#1764,#1763,#1765));
#357=IFCPOLYLOOP((#1731,#1730,#1764,#1766));
#358=IFCPOLYLOOP((#1767,#1768,#1718,#1722));
#359=IFCPOLYLOOP((#1769,#1770,#1768,#1767));
#360=IFCPOLYLOOP((#1770,#1771,#1772,#1725,#1724));
#361=IFCPOLYLOOP((#1724,#1718,#1768,#1770));
#362=IFCPOLYLOOP((#1773,#1771,#1770,#1769));
#363=IFCPOLYLOOP((#1774,#1772,#1771,#1773));
#364=IFCPOLYLOOP((#1726,#1725,#1772,#1774));
#365=IFCPOLYLOOP((#1775,#1776,#1713,#1717));
#366=IFCPOLYLOOP((#1777,#1778,#1776,#1775));
#367=IFCPOLYLOOP((#1778,#1779,#1780,#1720,#1719));
#368=IFCPOLYLOOP((#1719,#1713,#1776,#1778));
#369=IFCPOLYLOOP((#1781,#1779,#1778,#1777));
#370=IFCPOLYLOOP((#1782,#1780,#1779,#1781));
#371=IFCPOLYLOOP((#1721,#1720,#1780,#1782));
#372=IFCPOLYLOOP((#1783,#1784,#1708,#1712));
#373=IFCPOLYLOOP((#1785,#1786,#1784,#1783));
#374=IFCPOLYLOOP((#1786,#1787,#1788,#1715,#1714));
#375=IFCPOLYLOOP((#1714,#1708,#1784,#1786));
#376=IFCPOLYLOOP((#1789,#1787,#1786,#1785));
#377=IFCPOLYLOOP((#1790,#1788,#1787,#1789));
#378=IFCPOLYLOOP((#1716,#1715,#1788,#1790));
#379=IFCPOLYLOOP((#1791,#1792,#1703,#1707));
#380=IFCPOLYLOOP((#1793,#1794,#1792,#1791));
#381=IFCPOLYLOOP((#1794,#1795,#1796,#1710,#1709));
#382=IFCPOLYLOOP((#1709,#1703,#1792,#1794));
#383=IFCPOLYLOOP((#1797,#1795,#1794,#1793));
#384=IFCPOLYLOOP((#1798,#1796,#1795,#1797));
#385=IFCPOLYLOOP((#1711,#1710,#1796,#1798));
#386=IFCPOLYLOOP((#1799,#1800,#1698,#1702));
#387=IFCPOLYLOOP((#1801,#1802,#1800,#1799));
#388=IFCPOLYLOOP((#1802,#1803,#1804,#1705,#1704));
#389=IFCPOLYLOOP((#1704,#1698,#1800,#1802));
#390=IFCPOLYLOOP((#1805,#1803,#1802,#1801));
#391=IFCPOLYLOOP((#1806,#1804,#1803,#1805));
#392=IFCPOLYLOOP((#1706,#1705,#1804,#1806));
#393=IFCPOLYLOOP((#1807,#1808,#1693,#1697));
#394=IFCPOLYLOOP((#1809,#1810,#1808,#1807));
#395=IFCPOLYLOOP((#1810,#1811,#1812,#1700,#1699));
#396=IFCPOLYLOOP((#1699,#1693,#1808,#1810));
#397=IFCPOLYLOOP((#1813,#1811,#1810,#1809));
#398=IFCPOLYLOOP((#1814,#1812,#1811,#1813));
#399=IFCPOLYLOOP((#1701,#1700,#1812,#1814));
#400=IFCPOLYLOOP((#1815,#1816,#1688,#1692));
#401=IFCPOLYLOOP((#1817,#1818,#1816,#1815));
#402=IFCPOLYLOOP((#1818,#1819,#1820,#1695,#1694));
#403=IFCPOLYLOOP((#1694,#1688,#1816,#1818));
#404=IFCPOLYLOOP((#1821,#1819,#1818,#1817));
#405=IFCPOLYLOOP((#1822,#1820,#1819,#1821));
#406=IFCPOLYLOOP((#1696,#1695,#1820,#1822));
#407=IFCPOLYLOOP((#1823,#1824,#1683,#1687));
#408=IFCPOLYLOOP((#1825,#1826,#1824,#1823));
#409=IFCPOLYLOOP((#1826,#1827,#1828,#1690,#1689));
#410=IFCPOLYLOOP((#1689,#1683,#1824,#1826));
#411=IFCPOLYLOOP((#1829,#1827,#1826,#1825));
#412=IFCPOLYLOOP((#1830,#1828,#1827,#1829));
#413=IFCPOLYLOOP((#1691,#1690,#1828,#1830));
#414=IFCPOLYLOOP((#1831,#1832,#1678,#1682));
#415=IFCPOLYLOOP((#1833,#1834,#1832,#1831));
#416=IFCPOLYLOOP((#1834,#1835,#1836,#1685,#1684));
#417=IFCPOLYLOOP((#1684,#1678,#1832,#1834));
#418=IFCPOLYLOOP((#1837,#1835,#1834,#1833));
#419=IFCPOLYLOOP((#1838,#1836,#1835,#1837));
#420=IFCPOLYLOOP((#1686,#1685,#1836,#1838));
#421=IFCPOLYLOOP((#1839,#1840,#1673,#1677));
#422=IFCPOLYLOOP((#1841,#1842,#1840,#1839));
#423=IFCPOLYLOOP((#1842,#1843,#1844,#1680,#1679));
#424=IFCPOLYLOOP((#1679,#1673,#1840,#1842));
#425=IFCPOLYLOOP((#1845,#1843,#1842,#1841));
#426=IFCPOLYLOOP((#1846,#1844,#1843,#1845));
#427=IFCPOLYLOOP((#1681,#1680,#1844,#1846));
#428=IFCPOLYLOOP((#1847,#1848,#1668,#1672));
#429=IFCPOLYLOOP((#1849,#1850,#1848,#1847));
#430=IFCPOLYLOOP((#1850,#1851,#1852,#1675,#1674));
#431=IFCPOLYLOOP((#1674,#1668,#1848,#1850));
#432=IFCPOLYLOOP((#1853,#1851,#1850,#1849));
#433=IFCPOLYLOOP((#1854,#1852,#1851,#1853));
#434=IFCPOLYLOOP((#1676,#1675,#1852,#1854));
#435=IFCPOLYLOOP((#1855,#1856,#1663,#1667));
#436=IFCPOLYLOOP((#1857,#1858,#1856,#1855));
#437=IFCPOLYLOOP((#1858,#1859,#1860,#1670,#1669));
#438=IFCPOLYLOOP((#1669,#1663,#1856,#1858));
#439=IFCPOLYLOOP((#1861,#1859,#1858,#1857));
#440=IFCPOLYLOOP((#1862,#1860,#1859,#1861));
#441=IFCPOLYLOOP((#1671,#1670,#1860,#1862));
#442=IFCPOLYLOOP((#1863,#1864,#1738,#1742));
#443=IFCPOLYLOOP((#1865,#1866,#1864,#1863));
#444=IFCPOLYLOOP((#1574,#1691,#1830,#1829,#1825,#1823,#1687));
#445=IFCPOLYLOOP((#1573,#1696,#1822,#1821,#1817,#1815,#1692));
#446=IFCPOLYLOOP((#1572,#1701,#1814,#1813,#1809,#1807,#1697));
#447=IFCPOLYLOOP((#1706,#1806,#1805,#1801,#1799,#1702));
#448=IFCPOLYLOOP((#1671,#1579,#1578));
#449=IFCPOLYLOOP((#1576,#1681,#1846,#1845,#1841,#1839,#1677));
#450=IFCPOLYLOOP((#1575,#1686,#1838,#1837,#1833,#1831,#1682));
#451=IFCPOLYLOOP((#1692,#1691,#1574,#1573));
#452=IFCPOLYLOOP((#1702,#1701,#1572,#1706));
#453=IFCPOLYLOOP((#1706,#1572,#1571));
#454=IFCPOLYLOOP((#1577,#1676,#1854,#1853,#1849,#1847,#1672));
#455=IFCPOLYLOOP((#1682,#1681,#1576,#1575));
#456=IFCPOLYLOOP((#1697,#1696,#1573,#1572));
#457=IFCPOLYLOOP((#1711,#1798,#1797,#1793,#1791,#1707));
#458=IFCPOLYLOOP((#1582,#1731,#1766,#1765,#1761,#1759,#1727));
#459=IFCPOLYLOOP((#1580,#1741,#1750,#1749,#1745,#1743,#1737));
#460=IFCPOLYLOOP((#1579,#1666,#1867,#1868,#1865,#1863,#1742));
#461=IFCPOLYLOOP((#1677,#1676,#1577,#1576));
#462=IFCPOLYLOOP((#1571,#1711,#1707,#1706));
#463=IFCPOLYLOOP((#1711,#1571,#1570));
#464=IFCPOLYLOOP((#1716,#1570,#1569));
#465=IFCPOLYLOOP((#1727,#1726,#1568,#1582));
#466=IFCPOLYLOOP((#1581,#1736,#1758,#1757,#1753,#1751,#1732));
#467=IFCPOLYLOOP((#1742,#1741,#1580,#1579));
#468=IFCPOLYLOOP((#1671,#1862,#1861,#1857,#1855,#1667));
#469=IFCPOLYLOOP((#1687,#1686,#1575,#1574));
#470=IFCPOLYLOOP((#1716,#1790,#1789,#1785,#1783,#1712));
#471=IFCPOLYLOOP((#1567,#1721,#1782,#1781,#1777,#1775,#1717));
#472=IFCPOLYLOOP((#1568,#1773,#1769,#1767,#1722));
#473=IFCPOLYLOOP((#1732,#1731,#1582,#1581));
#474=IFCPOLYLOOP((#1667,#1666,#1579,#1671));
#475=IFCPOLYLOOP((#1570,#1716,#1712,#1711));
#476=IFCPOLYLOOP((#1722,#1721,#1567,#1568));
#477=IFCPOLYLOOP((#1737,#1736,#1581,#1580));
#478=IFCPOLYLOOP((#1569,#1567,#1717,#1716));
#479=IFCPOLYLOOP((#1578,#1577,#1672,#1671));
#480=IFCPOLYLOOP((#1726,#1774,#1773,#1568));
#481=IFCPOLYLOOP((#1866,#1869,#1870,#1665,#1664));
#482=IFCPOLYLOOP((#1664,#1738,#1864,#1866));
#483=IFCPOLYLOOP((#1868,#1869,#1866,#1865));
#484=IFCPOLYLOOP((#1867,#1870,#1869,#1868));
#485=IFCPOLYLOOP((#1666,#1665,#1870,#1867));
#486=IFCFACEOUTERBOUND(#26,.T.);
#487=IFCFACEOUTERBOUND(#27,.T.);
#488=IFCFACEOUTERBOUND(#28,.T.);
#489=IFCFACEOUTERBOUND(#29,.T.);
#490=IFCFACEOUTERBOUND(#30,.T.);
#491=IFCFACEOUTERBOUND(#31,.T.);
#492=IFCFACEOUTERBOUND(#32,.T.);
#493=IFCFACEOUTERBOUND(#33,.T.);
#494=IFCFACEOUTERBOUND(#34,.T.);
#495=IFCFACEOUTERBOUND(#35,.T.);
#496=IFCFACEOUTERBOUND(#36,.T.);
#497=IFCFACEOUTERBOUND(#37,.T.);
#498=IFCFACEOUTERBOUND(#38,.T.);
#499=IFCFACEOUTERBOUND(#39,.T.);
#500=IFCFACEOUTERBOUND(#40,.T.);
#501=IFCFACEOUTERBOUND(#41,.T.);
#502=IFCFACEOUTERBOUND(#42,.T.);
#503=IFCFACEOUTERBOUND(#43,.T.);
#504=IFCFACEOUTERBOUND(#44,.T.);
#505=IFCFACEOUTERBOUND(#45,.T.);
#506=IFCFACEOUTERBOUND(#46,.T.);
#507=IFCFACEOUTERBOUND(#47,.T.);
#508=IFCFACEOUTERBOUND(#48,.T.);
#509=IFCFACEOUTERBOUND(#49,.T.);
#510=IFCFACEOUTERBOUND(#50,.T.);
#511=IFCFACEOUTERBOUND(#51,.T.);
#512=IFCFACEOUTERBOUND(#52,.T.);
#513=IFCFACEOUTERBOUND(#53,.T.);
#514=IFCFACEOUTERBOUND(#54,.T.);
#515=IFCFACEOUTERBOUND(#55,.T.);
#516=IFCFACEOUTERBOUND(#56,.T.);
#517=IFCFACEOUTERBOUND(#57,.T.);
#518=IFCFACEOUTERBOUND(#58,.T.);
#519=IFCFACEOUTERBOUND(#59,.T.);
#520=IFCFACEOUTERBOUND(#60,.T.);
#521=IFCFACEOUTERBOUND(#61,.T.);
#522=IFCFACEOUTERBOUND(#62,.T.);
#523=IFCFACEOUTERBOUND(#63,.T.);
#524=IFCFACEOUTERBOUND(#64,.T.);
#525=IFCFACEOUTERBOUND(#65,.T.);
#526=IFCFACEOUTERBOUND(#66,.T.);
#527=IFCFACEOUTERBOUND(#67,.T.);
#528=IFCFACEOUTERBOUND(#68,.T.);
#529=IFCFACEOUTERBOUND(#69,.T.);
#530=IFCFACEOUTERBOUND(#70,.T.);
#531=IFCFACEOUTERBOUND(#71,.T.);
#532=IFCFACEOUTERBOUND(#72,.T.);
#533=IFCFACEOUTERBOUND(#73,.T.);
#534=IFCFACEOUTERBOUND(#74,.T.);
#535=IFCFACEOUTERBOUND(#75,.T.);
#536=IFCFACEOUTERBOUND(#76,.T.);
#537=IFCFACEOUTERBOUND(#77,.T.);
#538=IFCFACEOUTERBOUND(#78,.T.);
#539=IFCFACEOUTERBOUND(#79,.T.);
#540=IFCFACEOUTERBOUND(#80,.T.);
#541=IFCFACEOUTERBOUND(#81,.T.);
#542=IFCFACEOUTERBOUND(#82,.T.);
#543=IFCFACEOUTERBOUND(#83,.T.);
#544=IFCFACEOUTERBOUND(#84,.T.);
#545=IFCFACEOUTERBOUND(#85,.T.);
#546=IFCFACEOUTERBOUND(#86,.T.);
#547=IFCFACEOUTERBOUND(#87,.T.);
#548=IFCFACEOUTERBOUND(#88,.T.);
#549=IFCFACEOUTERBOUND(#89,.T.);
#550=IFCFACEOUTERBOUND(#90,.T.);
#551=IFCFACEOUTERBOUND(#91,.T.);
#552=IFCFACEOUTERBOUND(#92,.T.);
#553=IFCFACEOUTERBOUND(#93,.T.);
#554=IFCFACEOUTERBOUND(#94,.T.);
#555=IFCFACEOUTERBOUND(#95,.T.);
#556=IFCFACEOUTERBOUND(#96,.T.);
#557=IFCFACEOUTERBOUND(#97,.T.);
#558=IFCFACEOUTERBOUND(#98,.T.);
#559=IFCFACEOUTERBOUND(#99,.T.);
#560=IFCFACEOUTERBOUND(#100,.T.);
#561=IFCFACEOUTERBOUND(#101,.T.);
#562=IFCFACEOUTERBOUND(#102,.T.);
#563=IFCFACEOUTERBOUND(#103,.T.);
#564=IFCFACEOUTERBOUND(#104,.T.);
#565=IFCFACEOUTERBOUND(#105,.T.);
#566=IFCFACEOUTERBOUND(#106,.T.);
#567=IFCFACEOUTERBOUND(#107,.T.);
#568=IFCFACEOUTERBOUND(#108,.T.);
#569=IFCFACEOUTERBOUND(#109,.T.);
#570=IFCFACEOUTERBOUND(#110,.T.);
#571=IFCFACEOUTERBOUND(#111,.T.);
#572=IFCFACEOUTERBOUND(#112,.T.);
#573=IFCFACEOUTERBOUND(#113,.T.);
#574=IFCFACEOUTERBOUND(#114,.T.);
#575=IFCFACEOUTERBOUND(#115,.T.);
#576=IFCFACEOUTERBOUND(#116,.T.);
#577=IFCFACEOUTERBOUND(#117,.T.);
#578=IFCFACEOUTERBOUND(#118,.T.);
#579=IFCFACEOUTERBOUND(#119,.T.);
#580=IFCFACEOUTERBOUND(#120,.T.);
#581=IFCFACEOUTERBOUND(#121,.T.);
#582=IFCFACEOUTERBOUND(#122,.T.);
#583=IFCFACEOUTERBOUND(#123,.T.);
#584=IFCFACEOUTERBOUND(#124,.T.);
#585=IFCFACEOUTERBOUND(#125,.T.);
#586=IFCFACEOUTERBOUND(#126,.T.);
#587=IFCFACEOUTERBOUND(#127,.T.);
#588=IFCFACEOUTERBOUND(#128,.T.);
#589=IFCFACEOUTERBOUND(#129,.T.);
#590=IFCFACEOUTERBOUND(#130,.T.);
#591=IFCFACEOUTERBOUND(#131,.T.);
#592=IFCFACEOUTERBOUND(#132,.T.);
#593=IFCFACEOUTERBOUND(#133,.T.);
#594=IFCFACEOUTERBOUND(#134,.T.);
#595=IFCFACEOUTERBOUND(#135,.T.);
#596=IFCFACEOUTERBOUND(#136,.T.);
#597=IFCFACEOUTERBOUND(#137,.T.);
#598=IFCFACEOUTERBOUND(#138,.T.);
#599=IFCFACEOUTERBOUND(#139,.T.);
#600=IFCFACEOUTERBOUND(#140,.T.);
#601=IFCFACEOUTERBOUND(#141,.T.);
#602=IFCFACEOUTERBOUND(#142,.T.);
#603=IFCFACEOUTERBOUND(#143,.T.);
#604=IFCFACEOUTERBOUND(#144,.T.);
#605=IFCFACEOUTERBOUND(#145,.T.);
#606=IFCFACEOUTERBOUND(#146,.T.);
#607=IFCFACEOUTERBOUND(#147,.T.);
#608=IFCFACEOUTERBOUND(#148,.T.);
#609=IFCFACEOUTERBOUND(#149,.T.);
#610=IFCFACEOUTERBOUND(#150,.T.);
#611=IFCFACEOUTERBOUND(#151,.T.);
#612=IFCFACEOUTERBOUND(#152,.T.);
#613=IFCFACEOUTERBOUND(#153,.T.);
#614=IFCFACEOUTERBOUND(#154,.T.);
#615=IFCFACEOUTERBOUND(#155,.T.);
#616=IFCFACEOUTERBOUND(#156,.T.);
#617=IFCFACEOUTERBOUND(#157,.T.);
#618=IFCFACEOUTERBOUND(#158,.T.);
#619=IFCFACEOUTERBOUND(#159,.T.);
#620=IFCFACEOUTERBOUND(#160,.T.);
#621=IFCFACEOUTERBOUND(#161,.T.);
#622=IFCFACEOUTERBOUND(#162,.T.);
#623=IFCFACEOUTERBOUND(#163,.T.);
#624=IFCFACEOUTERBOUND(#164,.T.);
#625=IFCFACEOUTERBOUND(#165,.T.);
#626=IFCFACEOUTERBOUND(#166,.T.);
#627=IFCFACEOUTERBOUND(#167,.T.);
#628=IFCFACEOUTERBOUND(#168,.T.);
#629=IFCFACEOUTERBOUND(#169,.T.);
#630=IFCFACEOUTERBOUND(#170,.T.);
#631=IFCFACEOUTERBOUND(#171,.T.);
#632=IFCFACEOUTERBOUND(#172,.T.);
#633=IFCFACEOUTERBOUND(#173,.T.);
#634=IFCFACEOUTERBOUND(#174,.T.);
#635=IFCFACEOUTERBOUND(#175,.T.);
#636=IFCFACEOUTERBOUND(#176,.T.);
#637=IFCFACEOUTERBOUND(#177,.T.);
#638=IFCFACEOUTERBOUND(#178,.T.);
#639=IFCFACEOUTERBOUND(#179,.T.);
#640=IFCFACEOUTERBOUND(#180,.T.);
#641=IFCFACEOUTERBOUND(#181,.T.);
#642=IFCFACEOUTERBOUND(#182,.T.);
#643=IFCFACEOUTERBOUND(#183,.T.);
#644=IFCFACEOUTERBOUND(#184,.T.);
#645=IFCFACEOUTERBOUND(#185,.T.);
#646=IFCFACEOUTERBOUND(#186,.T.);
#647=IFCFACEOUTERBOUND(#187,.T.);
#648=IFCFACEOUTERBOUND(#188,.T.);
#649=IFCFACEOUTERBOUND(#189,.T.);
#650=IFCFACEOUTERBOUND(#190,.T.);
#651=IFCFACEOUTERBOUND(#191,.T.);
#652=IFCFACEOUTERBOUND(#192,.T.);
#653=IFCFACEOUTERBOUND(#193,.T.);
#654=IFCFACEOUTERBOUND(#194,.T.);
#655=IFCFACEOUTERBOUND(#195,.T.);
#656=IFCFACEOUTERBOUND(#196,.T.);
#657=IFCFACEOUTERBOUND(#197,.T.);
#658=IFCFACEOUTERBOUND(#198,.T.);
#659=IFCFACEOUTERBOUND(#199,.T.);
#660=IFCFACEOUTERBOUND(#200,.T.);
#661=IFCFACEOUTERBOUND(#201,.T.);
#662=IFCFACEOUTERBOUND(#202,.T.);
#663=IFCFACEOUTERBOUND(#203,.T.);
#664=IFCFACEOUTERBOUND(#204,.T.);
#665=IFCFACEOUTERBOUND(#205,.T.);
#666=IFCFACEOUTERBOUND(#206,.T.);
#667=IFCFACEOUTERBOUND(#207,.T.);
#668=IFCFACEOUTERBOUND(#208,.T.);
#669=IFCFACEOUTERBOUND(#209,.T.);
#670=IFCFACEOUTERBOUND(#210,.T.);
#671=IFCFACEOUTERBOUND(#211,.T.);
#672=IFCFACEOUTERBOUND(#212,.T.);
#673=IFCFACEOUTERBOUND(#213,.T.);
#674=IFCFACEOUTERBOUND(#214,.T.);
#675=IFCFACEOUTERBOUND(#215,.T.);
#676=IFCFACEOUTERBOUND(#216,.T.);
#677=IFCFACEOUTERBOUND(#217,.T.);
#678=IFCFACEOUTERBOUND(#218,.T.);
#679=IFCFACEOUTERBOUND(#219,.T.);
#680=IFCFACEOUTERBOUND(#220,.T.);
#681=IFCFACEOUTERBOUND(#221,.T.);
#682=IFCFACEOUTERBOUND(#222,.T.);
#683=IFCFACEOUTERBOUND(#223,.T.);
#684=IFCFACEOUTERBOUND(#224,.T.);
#685=IFCFACEOUTERBOUND(#225,.T.);
#686=IFCFACEOUTERBOUND(#226,.T.);
#687=IFCFACEOUTERBOUND(#227,.T.);
#688=IFCFACEOUTERBOUND(#228,.T.);
#689=IFCFACEOUTERBOUND(#229,.T.);
#690=IFCFACEOUTERBOUND(#230,.T.);
#691=IFCFACEOUTERBOUND(#231,.T.);
#692=IFCFACEOUTERBOUND(#232,.T.);
#693=IFCFACEOUTERBOUND(#233,.T.);
#694=IFCFACEOUTERBOUND(#234,.T.);
#695=IFCFACEOUTERBOUND(#235,.T.);
#696=IFCFACEOUTERBOUND(#236,.T.);
#697=IFCFACEOUTERBOUND(#237,.T.);
#698=IFCFACEOUTERBOUND(#238,.T.);
#699=IFCFACEOUTERBOUND(#239,.T.);
#700=IFCFACEOUTERBOUND(#240,.T.);
#701=IFCFACEOUTERBOUND(#241,.T.);
#702=IFCFACEOUTERBOUND(#242,.T.);
#703=IFCFACEOUTERBOUND(#243,.T.);
#704=IFCFACEOUTERBOUND(#244,.T.);
#705=IFCFACEOUTERBOUND(#245,.T.);
#706=IFCFACEOUTERBOUND(#246,.T.);
#707=IFCFACEOUTERBOUND(#247,.T.);
#708=IFCFACEOUTERBOUND(#248,.T.);
#709=IFCFACEOUTERBOUND(#249,.T.);
#710=IFCFACEOUTERBOUND(#250,.T.);
#711=IFCFACEOUTERBOUND(#251,.T.);
#712=IFCFACEOUTERBOUND(#252,.T.);
#713=IFCFACEOUTERBOUND(#253,.T.);
#714=IFCFACEOUTERBOUND(#254,.T.);
#715=IFCFACEOUTERBOUND(#255,.T.);
#716=IFCFACEOUTERBOUND(#256,.T.);
#717=IFCFACEOUTERBOUND(#257,.T.);
#718=IFCFACEOUTERBOUND(#258,.T.);
#719=IFCFACEOUTERBOUND(#259,.T.);
#720=IFCFACEOUTERBOUND(#260,.T.);
#721=IFCFACEOUTERBOUND(#261,.T.);
#722=IFCFACEOUTERBOUND(#262,.T.);
#723=IFCFACEOUTERBOUND(#263,.T.);
#724=IFCFACEOUTERBOUND(#264,.T.);
#725=IFCFACEOUTERBOUND(#265,.T.);
#726=IFCFACEOUTERBOUND(#266,.T.);
#727=IFCFACEOUTERBOUND(#267,.T.);
#728=IFCFACEOUTERBOUND(#268,.T.);
#729=IFCFACEOUTERBOUND(#269,.T.);
#730=IFCFACEOUTERBOUND(#270,.T.);
#731=IFCFACEOUTERBOUND(#271,.T.);
#732=IFCFACEOUTERBOUND(#272,.T.);
#733=IFCFACEOUTERBOUND(#273,.T.);
#734=IFCFACEOUTERBOUND(#274,.T.);
#735=IFCFACEOUTERBOUND(#275,.T.);
#736=IFCFACEOUTERBOUND(#276,.T.);
#737=IFCFACEOUTERBOUND(#277,.T.);
#738=IFCFACEOUTERBOUND(#278,.T.);
#739=IFCFACEOUTERBOUND(#279,.T.);
#740=IFCFACEOUTERBOUND(#280,.T.);
#741=IFCFACEOUTERBOUND(#281,.T.);
#742=IFCFACEOUTERBOUND(#282,.T.);
#743=IFCFACEOUTERBOUND(#283,.T.);
#744=IFCFACEOUTERBOUND(#284,.T.);
#745=IFCFACEOUTERBOUND(#285,.T.);
#746=IFCFACEOUTERBOUND(#286,.T.);
#747=IFCFACEOUTERBOUND(#287,.T.);
#748=IFCFACEOUTERBOUND(#288,.T.);
#749=IFCFACEOUTERBOUND(#289,.T.);
#750=IFCFACEOUTERBOUND(#290,.T.);
#751=IFCFACEOUTERBOUND(#291,.T.);
#752=IFCFACEOUTERBOUND(#292,.T.);
#753=IFCFACEOUTERBOUND(#293,.T.);
#754=IFCFACEOUTERBOUND(#294,.T.);
#755=IFCFACEOUTERBOUND(#295,.T.);
#756=IFCFACEOUTERBOUND(#296,.T.);
#757=IFCFACEOUTERBOUND(#297,.T.);
#758=IFCFACEOUTERBOUND(#298,.T.);
#759=IFCFACEOUTERBOUND(#299,.T.);
#760=IFCFACEOUTERBOUND(#300,.T.);
#761=IFCFACEOUTERBOUND(#301,.T.);
#762=IFCFACEOUTERBOUND(#302,.T.);
#763=IFCFACEOUTERBOUND(#303,.T.);
#764=IFCFACEOUTERBOUND(#304,.T.);
#765=IFCFACEOUTERBOUND(#305,.T.);
#766=IFCFACEOUTERBOUND(#306,.T.);
#767=IFCFACEOUTERBOUND(#307,.T.);
#768=IFCFACEOUTERBOUND(#308,.T.);
#769=IFCFACEOUTERBOUND(#309,.T.);
#770=IFCFACEOUTERBOUND(#310,.T.);
#771=IFCFACEOUTERBOUND(#311,.T.);
#772=IFCFACEOUTERBOUND(#312,.T.);
#773=IFCFACEOUTERBOUND(#313,.T.);
#774=IFCFACEOUTERBOUND(#314,.T.);
#775=IFCFACEOUTERBOUND(#315,.T.);
#776=IFCFACEOUTERBOUND(#316,.T.);
#777=IFCFACEOUTERBOUND(#317,.T.);
#778=IFCFACEOUTERBOUND(#318,.T.);
#779=IFCFACEOUTERBOUND(#319,.T.);
#780=IFCFACEOUTERBOUND(#320,.T.);
#781=IFCFACEOUTERBOUND(#321,.T.);
#782=IFCFACEOUTERBOUND(#322,.T.);
#783=IFCFACEOUTERBOUND(#323,.T.);
#784=IFCFACEOUTERBOUND(#324,.T.);
#785=IFCFACEOUTERBOUND(#325,.T.);
#786=IFCFACEOUTERBOUND(#326,.T.);
#787=IFCFACEOUTERBOUND(#327,.T.);
#788=IFCFACEOUTERBOUND(#328,.T.);
#789=IFCFACEOUTERBOUND(#329,.T.);
#790=IFCFACEOUTERBOUND(#330,.T.);
#791=IFCFACEOUTERBOUND(#331,.T.);
#792=IFCFACEOUTERBOUND(#332,.T.);
#793=IFCFACEOUTERBOUND(#333,.T.);
#794=IFCFACEOUTERBOUND(#334,.T.);
#795=IFCFACEOUTERBOUND(#335,.T.);
#796=IFCFACEOUTERBOUND(#336,.T.);
#797=IFCFACEOUTERBOUND(#337,.T.);
#798=IFCFACEOUTERBOUND(#338,.T.);
#799=IFCFACEOUTERBOUND(#339,.T.);
#800=IFCFACEOUTERBOUND(#340,.T.);
#801=IFCFACEOUTERBOUND(#341,.T.);
#802=IFCFACEOUTERBOUND(#342,.T.);
#803=IFCFACEOUTERBOUND(#343,.T.);
#804=IFCFACEOUTERBOUND(#344,.T.);
#805=IFCFACEOUTERBOUND(#345,.T.);
#806=IFCFACEOUTERBOUND(#346,.T.);
#807=IFCFACEOUTERBOUND(#347,.T.);
#808=IFCFACEOUTERBOUND(#348,.T.);
#809=IFCFACEOUTERBOUND(#349,.T.);
#810=IFCFACEOUTERBOUND(#350,.T.);
#811=IFCFACEOUTERBOUND(#351,.T.);
#812=IFCFACEOUTERBOUND(#352,.T.);
#813=IFCFACEOUTERBOUND(#353,.T.);
#814=IFCFACEOUTERBOUND(#354,.T.);
#815=IFCFACEOUTERBOUND(#355,.T.);
#816=IFCFACEOUTERBOUND(#356,.T.);
#817=IFCFACEOUTERBOUND(#357,.T.);
#818=IFCFACEOUTERBOUND(#358,.T.);
#819=IFCFACEOUTERBOUND(#359,.T.);
#820=IFCFACEOUTERBOUND(#360,.T.);
#821=IFCFACEOUTERBOUND(#361,.T.);
#822=IFCFACEOUTERBOUND(#362,.T.);
#823=IFCFACEOUTERBOUND(#363,.T.);
#824=IFCFACEOUTERBOUND(#364,.T.);
#825=IFCFACEOUTERBOUND(#365,.T.);
#826=IFCFACEOUTERBOUND(#366,.T.);
#827=IFCFACEOUTERBOUND(#367,.T.);
#828=IFCFACEOUTERBOUND(#368,.T.);
#829=IFCFACEOUTERBOUND(#369,.T.);
#830=IFCFACEOUTERBOUND(#370,.T.);
#831=IFCFACEOUTERBOUND(#371,.T.);
#832=IFCFACEOUTERBOUND(#372,.T.);
#833=IFCFACEOUTERBOUND(#373,.T.);
#834=IFCFACEOUTERBOUND(#374,.T.);
#835=IFCFACEOUTERBOUND(#375,.T.);
#836=IFCFACEOUTERBOUND(#376,.T.);
#837=IFCFACEOUTERBOUND(#377,.T.);
#838=IFCFACEOUTERBOUND(#378,.T.);
#839=IFCFACEOUTERBOUND(#379,.T.);
#840=IFCFACEOUTERBOUND(#380,.T.);
#841=IFCFACEOUTERBOUND(#381,.T.);
#842=IFCFACEOUTERBOUND(#382,.T.);
#843=IFCFACEOUTERBOUND(#383,.T.);
#844=IFCFACEOUTERBOUND(#384,.T.);
#845=IFCFACEOUTERBOUND(#385,.T.);
#846=IFCFACEOUTERBOUND(#386,.T.);
#847=IFCFACEOUTERBOUND(#387,.T.);
#848=IFCFACEOUTERBOUND(#388,.T.);
#849=IFCFACEOUTERBOUND(#389,.T.);
#850=IFCFACEOUTERBOUND(#390,.T.);
#851=IFCFACEOUTERBOUND(#391,.T.);
#852=IFCFACEOUTERBOUND(#392,.T.);
#853=IFCFACEOUTERBOUND(#393,.T.);
#854=IFCFACEOUTERBOUND(#394,.T.);
#855=IFCFACEOUTERBOUND(#395,.T.);
#856=IFCFACEOUTERBOUND(#396,.T.);
#857=IFCFACEOUTERBOUND(#397,.T.);
#858=IFCFACEOUTERBOUND(#398,.T.);
#859=IFCFACEOUTERBOUND(#399,.T.);
#860=IFCFACEOUTERBOUND(#400,.T.);
#861=IFCFACEOUTERBOUND(#401,.T.);
#862=IFCFACEOUTERBOUND(#402,.T.);
#863=IFCFACEOUTERBOUND(#403,.T.);
#864=IFCFACEOUTERBOUND(#404,.T.);
#865=IFCFACEOUTERBOUND(#405,.T.);
#866=IFCFACEOUTERBOUND(#406,.T.);
#867=IFCFACEOUTERBOUND(#407,.T.);
#868=IFCFACEOUTERBOUND(#408,.T.);
#869=IFCFACEOUTERBOUND(#409,.T.);
#870=IFCFACEOUTERBOUND(#410,.T.);
#871=IFCFACEOUTERBOUND(#411,.T.);
#872=IFCFACEOUTERBOUND(#412,.T.);
#873=IFCFACEOUTERBOUND(#413,.T.);
#874=IFCFACEOUTERBOUND(#414,.T.);
#875=IFCFACEOUTERBOUND(#415,.T.);
#876=IFCFACEOUTERBOUND(#416,.T.);
#877=IFCFACEOUTERBOUND(#417,.T.);
#878=IFCFACEOUTERBOUND(#418,.T.);
#879=IFCFACEOUTERBOUND(#419,.T.);
#880=IFCFACEOUTERBOUND(#420,.T.);
#881=IFCFACEOUTERBOUND(#421,.T.);
#882=IFCFACEOUTERBOUND(#422,.T.);
#883=IFCFACEOUTERBOUND(#423,.T.);
#884=IFCFACEOUTERBOUND(#424,.T.);
#885=IFCFACEOUTERBOUND(#425,.T.);
#886=IFCFACEOUTERBOUND(#426,.T.);
#887=IFCFACEOUTERBOUND(#427,.T.);
#888=IFCFACEOUTERBOUND(#428,.T.);
#889=IFCFACEOUTERBOUND(#429,.T.);
#890=IFCFACEOUTERBOUND(#430,.T.);
#891=IFCFACEOUTERBOUND(#431,.T.);
#892=IFCFACEOUTERBOUND(#432,.T.);
#893=IFCFACEOUTERBOUND(#433,.T.);
#894=IFCFACEOUTERBOUND(#434,.T.);
#895=IFCFACEOUTERBOUND(#435,.T.);
#896=IFCFACEOUTERBOUND(#436,.T.);
#897=IFCFACEOUTERBOUND(#437,.T.);
#898=IFCFACEOUTERBOUND(#438,.T.);
#899=IFCFACEOUTERBOUND(#439,.T.);
#900=IFCFACEOUTERBOUND(#440,.T.);
#901=IFCFACEOUTERBOUND(#441,.T.);
#902=IFCFACEOUTERBOUND(#442,.T.);
#903=IFCFACEOUTERBOUND(#443,.T.);
#904=IFCFACEOUTERBOUND(#444,.T.);
#905=IFCFACEOUTERBOUND(#445,.T.);
#906=IFCFACEOUTERBOUND(#446,.T.);
#907=IFCFACEOUTERBOUND(#447,.T.);
#908=IFCFACEOUTERBOUND(#448,.T.);
#909=IFCFACEOUTERBOUND(#449,.T.);
#910=IFCFACEOUTERBOUND(#450,.T.);
#911=IFCFACEOUTERBOUND(#451,.T.);
#912=IFCFACEOUTERBOUND(#452,.T.);
#913=IFCFACEOUTERBOUND(#453,.T.);
#914=IFCFACEOUTERBOUND(#454,.T.);
#915=IFCFACEOUTERBOUND(#455,.T.);
#916=IFCFACEOUTERBOUND(#456,.T.);
#917=IFCFACEOUTERBOUND(#457,.T.);
#918=IFCFACEOUTERBOUND(#458,.T.);
#919=IFCFACEOUTERBOUND(#459,.T.);
#920=IFCFACEOUTERBOUND(#460,.T.);
#921=IFCFACEOUTERBOUND(#461,.T.);
#922=IFCFACEOUTERBOUND(#462,.T.);
#923=IFCFACEOUTERBOUND(#463,.T.);
#924=IFCFACEOUTERBOUND(#464,.T.);
#925=IFCFACEOUTERBOUND(#465,.T.);
#926=IFCFACEOUTERBOUND(#466,.T.);
#927=IFCFACEOUTERBOUND(#467,.T.);
#928=IFCFACEOUTERBOUND(#468,.T.);
#929=IFCFACEOUTERBOUND(#469,.T.);
#930=IFCFACEOUTERBOUND(#470,.T.);
#931=IFCFACEOUTERBOUND(#471,.T.);
#932=IFCFACEOUTERBOUND(#472,.T.);
#933=IFCFACEOUTERBOUND(#473,.T.);
#934=IFCFACEOUTERBOUND(#474,.T.);
#935=IFCFACEOUTERBOUND(#475,.T.);
#936=IFCFACEOUTERBOUND(#476,.T.);
#937=IFCFACEOUTERBOUND(#477,.T.);
#938=IFCFACEOUTERBOUND(#478,.T.);
#939=IFCFACEOUTERBOUND(#479,.T.);
#940=IFCFACEOUTERBOUND(#480,.T.);
#941=IFCFACEOUTERBOUND(#481,.T.);
#942=IFCFACEOUTERBOUND(#482,.T.);
#943=IFCFACEOUTERBOUND(#483,.T.);
#944=IFCFACEOUTERBOUND(#484,.T.);
#945=IFCFACEOUTERBOUND(#485,.T.);
#946=IFCFACE((#486));
#947=IFCFACE((#487));
#948=IFCFACE((#488));
#949=IFCFACE((#489));
#950=IFCFACE((#490));
#951=IFCFACE((#491));
#952=IFCFACE((#492));
#953=IFCFACE((#493));
#954=IFCFACE((#494));
#955=IFCFACE((#495));
#956=IFCFACE((#496));
#957=IFCFACE((#497));
#958=IFCFACE((#498));
#959=IFCFACE((#499));
#960=IFCFACE((#500));
#961=IFCFACE((#501));
#962=IFCFACE((#502));
#963=IFCFACE((#503));
#964=IFCFACE((#504));
#965=IFCFACE((#505));
#966=IFCFACE((#506));
#967=IFCFACE((#507));
#968=IFCFACE((#508));
#969=IFCFACE((#509));
#970=IFCFACE((#510));
#971=IFCFACE((#511));
#972=IFCFACE((#512));
#973=IFCFACE((#513));
#974=IFCFACE((#514));
#975=IFCFACE((#515));
#976=IFCFACE((#516));
#977=IFCFACE((#517));
#978=IFCFACE((#518));
#979=IFCFACE((#519));
#980=IFCFACE((#520));
#981=IFCFACE((#521));
#982=IFCFACE((#522));
#983=IFCFACE((#523));
#984=IFCFACE((#524));
#985=IFCFACE((#525));
#986=IFCFACE((#526));
#987=IFCFACE((#527));
#988=IFCFACE((#528));
#989=IFCFACE((#529));
#990=IFCFACE((#530));
#991=IFCFACE((#531));
#992=IFCFACE((#532));
#993=IFCFACE((#533));
#994=IFCFACE((#534));
#995=IFCFACE((#535));
#996=IFCFACE((#536));
#997=IFCFACE((#537));
#998=IFCFACE((#538));
#999=IFCFACE((#539));
#1000=IFCFACE((#540));
#1001=IFCFACE((#541));
#1002=IFCFACE((#542));
#1003=IFCFACE((#543));
#1004=IFCFACE((#544));
#1005=IFCFACE((#545));
#1006=IFCFACE((#546));
#1007=IFCFACE((#547));
#1008=IFCFACE((#548));
#1009=IFCFACE((#549));
#1010=IFCFACE((#550));
#1011=IFCFACE((#551));
#1012=IFCFACE((#552));
#1013=IFCFACE((#553));
#1014=IFCFACE((#554));
#1015=IFCFACE((#555));
#1016=IFCFACE((#556));
#1017=IFCFACE((#557));
#1018=IFCFACE((#558));
#1019=IFCFACE((#559));
#1020=IFCFACE((#560));
#1021=IFCFACE((#561));
#1022=IFCFACE((#562));
#1023=IFCFACE((#563));
#1024=IFCFACE((#564));
#1025=IFCFACE((#565));
#1026=IFCFACE((#566));
#1027=IFCFACE((#567));
#1028=IFCFACE((#568));
#1029=IFCFACE((#569));
#1030=IFCFACE((#570));
#1031=IFCFACE((#571));
#1032=IFCFACE((#572));
#1033=IFCFACE((#573));
#1034=IFCFACE((#574));
#1035=IFCFACE((#575));
#1036=IFCFACE((#576));
#1037=IFCFACE((#577));
#1038=IFCFACE((#578));
#1039=IFCFACE((#579));
#1040=IFCFACE((#580));
#1041=IFCFACE((#581));
#1042=IFCFACE((#582));
#1043=IFCFACE((#583));
#1044=IFCFACE((#584));
#1045=IFCFACE((#585));
#1046=IFCFACE((#586));
#1047=IFCFACE((#587));
#1048=IFCFACE((#588));
#1049=IFCFACE((#589));
#1050=IFCFACE((#590));
#1051=IFCFACE((#591));
#1052=IFCFACE((#592));
#1053=IFCFACE((#593));
#1054=IFCFACE((#594));
#1055=IFCFACE((#595));
#1056=IFCFACE((#596));
#1057=IFCFACE((#597));
#1058=IFCFACE((#598));
#1059=IFCFACE((#599));
#1060=IFCFACE((#600));
#1061=IFCFACE((#601));
#1062=IFCFACE((#602));
#1063=IFCFACE((#603));
#1064=IFCFACE((#604));
#1065=IFCFACE((#605));
#1066=IFCFACE((#606));
#1067=IFCFACE((#607));
#1068=IFCFACE((#608));
#1069=IFCFACE((#609));
#1070=IFCFACE((#610));
#1071=IFCFACE((#611));
#1072=IFCFACE((#612));
#1073=IFCFACE((#613));
#1074=IFCFACE((#614));
#1075=IFCFACE((#615));
#1076=IFCFACE((#616));
#1077=IFCFACE((#617));
#1078=IFCFACE((#618));
#1079=IFCFACE((#619));
#1080=IFCFACE((#620));
#1081=IFCFACE((#621));
#1082=IFCFACE((#622));
#1083=IFCFACE((#623));
#1084=IFCFACE((#624));
#1085=IFCFACE((#625));
#1086=IFCFACE((#626));
#1087=IFCFACE((#627));
#1088=IFCFACE((#628));
#1089=IFCFACE((#629));
#1090=IFCFACE((#630));
#1091=IFCFACE((#631));
#1092=IFCFACE((#632));
#1093=IFCFACE((#633));
#1094=IFCFACE((#634));
#1095=IFCFACE((#635));
#1096=IFCFACE((#636));
#1097=IFCFACE((#637));
#1098=IFCFACE((#638));
#1099=IFCFACE((#639));
#1100=IFCFACE((#640));
#1101=IFCFACE((#641));
#1102=IFCFACE((#642));
#1103=IFCFACE((#643));
#1104=IFCFACE((#644));
#1105=IFCFACE((#645));
#1106=IFCFACE((#646));
#1107=IFCFACE((#647));
#1108=IFCFACE((#648));
#1109=IFCFACE((#649));
#1110=IFCFACE((#650));
#1111=IFCFACE((#651));
#1112=IFCFACE((#652));
#1113=IFCFACE((#653));
#1114=IFCFACE((#654));
#1115=IFCFACE((#655));
#1116=IFCFACE((#656));
#1117=IFCFACE((#657));
#1118=IFCFACE((#658));
#1119=IFCFACE((#659));
#1120=IFCFACE((#660));
#1121=IFCFACE((#661));
#1122=IFCFACE((#662));
#1123=IFCFACE((#663));
#1124=IFCFACE((#664));
#1125=IFCFACE((#665));
#1126=IFCFACE((#666));
#1127=IFCFACE((#667));
#1128=IFCFACE((#668));
#1129=IFCFACE((#669));
#1130=IFCFACE((#670));
#1131=IFCFACE((#671));
#1132=IFCFACE((#672));
#1133=IFCFACE((#673));
#1134=IFCFACE((#674));
#1135=IFCFACE((#675));
#1136=IFCFACE((#676));
#1137=IFCFACE((#677));
#1138=IFCFACE((#678));
#1139=IFCFACE((#679));
#1140=IFCFACE((#680));
#1141=IFCFACE((#681));
#1142=IFCFACE((#682));
#1143=IFCFACE((#683));
#1144=IFCFACE((#684));
#1145=IFCFACE((#685));
#1146=IFCFACE((#686));
#1147=IFCFACE((#687));
#1148=IFCFACE((#688));
#1149=IFCFACE((#689));
#1150=IFCFACE((#690));
#1151=IFCFACE((#691));
#1152=IFCFACE((#692));
#1153=IFCFACE((#693));
#1154=IFCFACE((#694));
#1155=IFCFACE((#695));
#1156=IFCFACE((#696));
#1157=IFCFACE((#697));
#1158=IFCFACE((#698));
#1159=IFCFACE((#699));
#1160=IFCFACE((#700));
#1161=IFCFACE((#701));
#1162=IFCFACE((#702));
#1163=IFCFACE((#703));
#1164=IFCFACE((#704));
#1165=IFCFACE((#705));
#1166=IFCFACE((#706));
#1167=IFCFACE((#707));
#1168=IFCFACE((#708));
#1169=IFCFACE((#709));
#1170=IFCFACE((#710));
#1171=IFCFACE((#711));
#1172=IFCFACE((#712));
#1173=IFCFACE((#713));
#1174=IFCFACE((#714));
#1175=IFCFACE((#715));
#1176=IFCFACE((#716));
#1177=IFCFACE((#717));
#1178=IFCFACE((#718));
#1179=IFCFACE((#719));
#1180=IFCFACE((#720));
#1181=IFCFACE((#721));
#1182=IFCFACE((#722));
#1183=IFCFACE((#723));
#1184=IFCFACE((#724));
#1185=IFCFACE((#725));
#1186=IFCFACE((#726));
#1187=IFCFACE((#727));
#1188=IFCFACE((#728));
#1189=IFCFACE((#729));
#1190=IFCFACE((#730));
#1191=IFCFACE((#731));
#1192=IFCFACE((#732));
#1193=IFCFACE((#733));
#1194=IFCFACE((#734));
#1195=IFCFACE((#735));
#1196=IFCFACE((#736));
#1197=IFCFACE((#737));
#1198=IFCFACE((#738));
#1199=IFCFACE((#739));
#1200=IFCFACE((#740));
#1201=IFCFACE((#741));
#1202=IFCFACE((#742));
#1203=IFCFACE((#743));
#1204=IFCFACE((#744));
#1205=IFCFACE((#745));
#1206=IFCFACE((#746));
#1207=IFCFACE((#747));
#1208=IFCFACE((#748));
#1209=IFCFACE((#749));
#1210=IFCFACE((#750));
#1211=IFCFACE((#751));
#1212=IFCFACE((#752));
#1213=IFCFACE((#753));
#1214=IFCFACE((#754));
#1215=IFCFACE((#755));
#1216=IFCFACE((#756));
#1217=IFCFACE((#757));
#1218=IFCFACE((#758));
#1219=IFCFACE((#759));
#1220=IFCFACE((#760));
#1221=IFCFACE((#761));
#1222=IFCFACE((#762));
#1223=IFCFACE((#763));
#1224=IFCFACE((#764));
#1225=IFCFACE((#765));
#1226=IFCFACE((#766));
#1227=IFCFACE((#767));
#1228=IFCFACE((#768));
#1229=IFCFACE((#769));
#1230=IFCFACE((#770));
#1231=IFCFACE((#771));
#1232=IFCFACE((#772));
#1233=IFCFACE((#773));
#1234=IFCFACE((#774));
#1235=IFCFACE((#775));
#1236=IFCFACE((#776));
#1237=IFCFACE((#777));
#1238=IFCFACE((#778));
#1239=IFCFACE((#779));
#1240=IFCFACE((#780));
#1241=IFCFACE((#781));
#1242=IFCFACE((#782));
#1243=IFCFACE((#783));
#1244=IFCFACE((#784));
#1245=IFCFACE((#785));
#1246=IFCFACE((#786));
#1247=IFCFACE((#787));
#1248=IFCFACE((#788));
#1249=IFCFACE((#789));
#1250=IFCFACE((#790));
#1251=IFCFACE((#791));
#1252=IFCFACE((#792));
#1253=IFCFACE((#793));
#1254=IFCFACE((#794));
#1255=IFCFACE((#795));
#1256=IFCFACE((#796));
#1257=IFCFACE((#797));
#1258=IFCFACE((#798));
#1259=IFCFACE((#799));
#1260=IFCFACE((#800));
#1261=IFCFACE((#801));
#1262=IFCFACE((#802));
#1263=IFCFACE((#803));
#1264=IFCFACE((#804));
#1265=IFCFACE((#805));
#1266=IFCFACE((#806));
#1267=IFCFACE((#807));
#1268=IFCFACE((#808));
#1269=IFCFACE((#809));
#1270=IFCFACE((#810));
#1271=IFCFACE((#811));
#1272=IFCFACE((#812));
#1273=IFCFACE((#813));
#1274=IFCFACE((#814));
#1275=IFCFACE((#815));
#1276=IFCFACE((#816));
#1277=IFCFACE((#817));
#1278=IFCFACE((#818));
#1279=IFCFACE((#819));
#1280=IFCFACE((#820));
#1281=IFCFACE((#821));
#1282=IFCFACE((#822));
#1283=IFCFACE((#823));
#1284=IFCFACE((#824));
#1285=IFCFACE((#825));
#1286=IFCFACE((#826));
#1287=IFCFACE((#827));
#1288=IFCFACE((#828));
#1289=IFCFACE((#829));
#1290=IFCFACE((#830));
#1291=IFCFACE((#831));
#1292=IFCFACE((#832));
#1293=IFCFACE((#833));
#1294=IFCFACE((#834));
#1295=IFCFACE((#835));
#1296=IFCFACE((#836));
#1297=IFCFACE((#837));
#1298=IFCFACE((#838));
#1299=IFCFACE((#839));
#1300=IFCFACE((#840));
#1301=IFCFACE((#841));
#1302=IFCFACE((#842));
#1303=IFCFACE((#843));
#1304=IFCFACE((#844));
#1305=IFCFACE((#845));
#1306=IFCFACE((#846));
#1307=IFCFACE((#847));
#1308=IFCFACE((#848));
#1309=IFCFACE((#849));
#1310=IFCFACE((#850));
#1311=IFCFACE((#851));
#1312=IFCFACE((#852));
#1313=IFCFACE((#853));
#1314=IFCFACE((#854));
#1315=IFCFACE((#855));
#1316=IFCFACE((#856));
#1317=IFCFACE((#857));
#1318=IFCFACE((#858));
#1319=IFCFACE((#859));
#1320=IFCFACE((#860));
#1321=IFCFACE((#861));
#1322=IFCFACE((#862));
#1323=IFCFACE((#863));
#1324=IFCFACE((#864));
#1325=IFCFACE((#865));
#1326=IFCFACE((#866));
#1327=IFCFACE((#867));
#1328=IFCFACE((#868));
#1329=IFCFACE((#869));
#1330=IFCFACE((#870));
#1331=IFCFACE((#871));
#1332=IFCFACE((#872));
#1333=IFCFACE((#873));
#1334=IFCFACE((#874));
#1335=IFCFACE((#875));
#1336=IFCFACE((#876));
#1337=IFCFACE((#877));
#1338=IFCFACE((#878));
#1339=IFCFACE((#879));
#1340=IFCFACE((#880));
#1341=IFCFACE((#881));
#1342=IFCFACE((#882));
#1343=IFCFACE((#883));
#1344=IFCFACE((#884));
#1345=IFCFACE((#885));
#1346=IFCFACE((#886));
#1347=IFCFACE((#887));
#1348=IFCFACE((#888));
#1349=IFCFACE((#889));
#1350=IFCFACE((#890));
#1351=IFCFACE((#891));
#1352=IFCFACE((#892));
#1353=IFCFACE((#893));
#1354=IFCFACE((#894));
#1355=IFCFACE((#895));
#1356=IFCFACE((#896));
#1357=IFCFACE((#897));
#1358=IFCFACE((#898));
#1359=IFCFACE((#899));
#1360=IFCFACE((#900));
#1361=IFCFACE((#901));
#1362=IFCFACE((#902));
#1363=IFCFACE((#903));
#1364=IFCFACE((#904));
#1365=IFCFACE((#905));
#1366=IFCFACE((#906));
#1367=IFCFACE((#907));
#1368=IFCFACE((#908));
#1369=IFCFACE((#909));
#1370=IFCFACE((#910));
#1371=IFCFACE((#911));
#1372=IFCFACE((#912));
#1373=IFCFACE((#913));
#1374=IFCFACE((#914));
#1375=IFCFACE((#915));
#1376=IFCFACE((#916));
#1377=IFCFACE((#917));
#1378=IFCFACE((#918));
#1379=IFCFACE((#919));
#1380=IFCFACE((#920));
#1381=IFCFACE((#921));
#1382=IFCFACE((#922));
#1383=IFCFACE((#923));
#1384=IFCFACE((#924));
#1385=IFCFACE((#925));
#1386=IFCFACE((#926));
#1387=IFCFACE((#927));
#1388=IFCFACE((#928));
#1389=IFCFACE((#929));
#1390=IFCFACE((#930));
#1391=IFCFACE((#931));
#1392=IFCFACE((#932));
#1393=IFCFACE((#933));
#1394=IFCFACE((#934));
#1395=IFCFACE((#935));
#1396=IFCFACE((#936));
#1397=IFCFACE((#937));
#1398=IFCFACE((#938));
#1399=IFCFACE((#939));
#1400=IFCFACE((#940));
#1401=IFCFACE((#941));
#1402=IFCFACE((#942));
#1403=IFCFACE((#943));
#1404=IFCFACE((#944));
#1405=IFCFACE((#945));
#1406=IFCCLOSEDSHELL((#946,#947,#948,#949,#950,#951,#952,#953,#954,#955,
#956,#957,#958,#959,#960,#961,#962,#963,#964,#965,#966,#967,#968,#969,#970,
#971,#972,#973,#974,#975,#976,#977,#978,#979,#980,#981,#982,#983,#984,#985,
#986,#987,#988,#989,#990,#991,#992,#993,#994,#995,#996,#997,#998,#999,#1000,
#1001,#1002,#1003,#1004,#1005,#1006,#1007,#1008,#1009,#1010,#1011,#1012,
#1013,#1014,#1015,#1016,#1017,#1018,#1019,#1020,#1021,#1022,#1023,#1024,
#1025,#1026,#1027,#1028,#1029,#1030,#1031,#1032,#1033,#1034,#1035,#1036,
#1037,#1038,#1039,#1040,#1041,#1042,#1043,#1044,#1045,#1046,#1047,#1048,
#1049,#1050,#1051,#1052,#1053,#1054,#1055,#1056,#1057,#1058,#1059,#1060,
#1061,#1062,#1063,#1064,#1065,#1066,#1067,#1068,#1069,#1070,#1071,#1072,
#1073,#1074,#1075,#1076,#1077,#1078,#1079,#1080,#1081,#1082,#1083,#1084,
#1085,#1086,#1087,#1088,#1089,#1090,#1091,#1092,#1093,#1094,#1095,#1096,
#1097,#1098,#1099,#1100,#1101,#1102,#1103,#1104,#1105,#1106,#1107,#1108,
#1109,#1110,#1111,#1112,#1113,#1114,#1115,#1116,#1117,#1118,#1119,#1120,
#1121,#1122,#1123,#1124,#1125,#1126,#1127,#1128,#1129,#1130,#1131,#1132,
#1133,#1134,#1135,#1136,#1137,#1138,#1139,#1140,#1141,#1142,#1143,#1144,
#1145,#1146,#1147,#1148,#1149,#1150,#1151,#1152,#1153,#1154,#1155,#1156,
#1157,#1158,#1159,#1160,#1161,#1162,#1163,#1164,#1165,#1166,#1167,#1168,
#1169,#1170,#1171,#1172,#1173,#1174,#1175,#1176,#1177,#1178,#1179,#1180,
#1181,#1182,#1183,#1184,#1185,#1186,#1187,#1188,#1189,#1190,#1191,#1192,
#1193,#1194,#1195,#1196,#1197,#1198,#1199,#1200,#1201,#1202,#1203,#1204,
#1205,#1206,#1207,#1208,#1209,#1210,#1211,#1212,#1213,#1214,#1215,#1216,
#1217,#1218,#1219,#1220,#1221,#1222,#1223,#1224,#1225,#1226,#1227,#1228,
#1229,#1230,#1231,#1232,#1233,#1234,#1235,#1236,#1237,#1238,#1239,#1240,
#1241,#1242,#1243,#1244,#1245,#1246,#1247,#1248,#1249,#1250,#1251,#1252,
#1253,#1254,#1255,#1256,#1257,#1258,#1259,#1260,#1261,#1262,#1263,#1264,
#1265,#1266,#1267,#1268,#1269,#1270,#1271,#1272,#1273,#1274,#1275,#1276,
#1277,#1278,#1279,#1280,#1281,#1282,#1283,#1284,#1285,#1286,#1287,#1288,
#1289,#1290,#1291,#1292,#1293,#1294,#1295,#1296,#1297,#1298,#1299,#1300,
#1301,#1302,#1303,#1304,#1305,#1306,#1307,#1308,#1309,#1310,#1311,#1312,
#1313,#1314,#1315,#1316,#1317,#1318,#1319,#1320,#1321,#1322,#1323,#1324,
#1325,#1326,#1327,#1328,#1329,#1330,#1331,#1332,#1333,#1334,#1335,#1336,
#1337,#1338,#1339,#1340,#1341,#1342,#1343,#1344,#1345,#1346,#1347,#1348,
#1349,#1350,#1351,#1352,#1353,#1354,#1355,#1356,#1357,#1358,#1359,#1360,
#1361,#1362,#1363,#1364,#1365,#1366,#1367,#1368,#1369,#1370,#1371,#1372,
#1373,#1374,#1375,#1376,#1377,#1378,#1379,#1380,#1381,#1382,#1383,#1384,
#1385,#1386,#1387,#1388,#1389,#1390,#1391,#1392,#1393,#1394,#1395,#1396,
#1397,#1398,#1399,#1400,#1401,#1402,#1403,#1404,#1405));
#1407=IFCSTYLEDITEM(#1412,(#1408),'');
#1408=IFCPRESENTATIONSTYLEASSIGNMENT((#1409));
#1409=IFCSURFACESTYLE('',.BOTH.,(#1410));
#1410=IFCSURFACESTYLERENDERING(#1411,0.,$,$,$,$,$,$,.NOTDEFINED.);
#1411=IFCCOLOURRGB('',0.5,0.5,0.5);
#1412=IFCFACETEDBREP(#1406);
#1413=IFCPROJECT('07hUkdHgGydfWsFJH56q5B',#1878,'Gray_4237267_JC',' ',
' ',' ',' ',(#1873),#1414);
#1414=IFCUNITASSIGNMENT((#1874,#1875,#1876,#1877));
#1415=IFCGEOMETRICREPRESENTATIONSUBCONTEXT('Body','Model',*,*,*,*,#1873,
1.,.MODEL_VIEW.,$);
#1416=IFCAXIS2PLACEMENT3D(#1422,#1418,#1419);
#1417=IFCAXIS2PLACEMENT3D(#1872,#1420,#1421);
#1418=IFCDIRECTION((0.,0.,1.));
#1419=IFCDIRECTION((1.,0.,0.));
#1420=IFCDIRECTION((0.,0.,1.));
#1421=IFCDIRECTION((1.,0.,0.));
#1422=IFCCARTESIANPOINT((0.,0.,0.));
#1423=IFCCARTESIANPOINT((2.86402655078498,1.18631864033177,8.));
#1424=IFCCARTESIANPOINT((2.86402655078498,1.18631864033177,7.2));
#1425=IFCCARTESIANPOINT((3.09999999999999,0.,7.2));
#1426=IFCCARTESIANPOINT((3.09999999999999,0.,8.));
#1427=IFCCARTESIANPOINT((2.19203102167829,2.19203102167829,8.));
#1428=IFCCARTESIANPOINT((2.19203102167829,2.19203102167829,7.2));
#1429=IFCCARTESIANPOINT((1.18631864033177,2.86402655078498,8.));
#1430=IFCCARTESIANPOINT((1.18631864033177,2.86402655078498,7.2));
#1431=IFCCARTESIANPOINT((-4.98518021399756E-16,3.09999999999999,8.));
#1432=IFCCARTESIANPOINT((-4.98518021399756E-16,3.09999999999999,7.2));
#1433=IFCCARTESIANPOINT((-1.18631864033177,2.86402655078498,8.));
#1434=IFCCARTESIANPOINT((-1.18631864033177,2.86402655078498,7.2));
#1435=IFCCARTESIANPOINT((-2.19203102167829,2.19203102167829,8.));
#1436=IFCCARTESIANPOINT((-2.19203102167829,2.19203102167829,7.2));
#1437=IFCCARTESIANPOINT((-2.86402655078498,1.18631864033177,8.));
#1438=IFCCARTESIANPOINT((-2.86402655078498,1.18631864033177,7.2));
#1439=IFCCARTESIANPOINT((-3.09999999999999,3.79640507735678E-16,8.));
#1440=IFCCARTESIANPOINT((-3.09999999999999,3.79640507735678E-16,7.2));
#1441=IFCCARTESIANPOINT((-2.86402655078498,-1.18631864033177,8.));
#1442=IFCCARTESIANPOINT((-2.86402655078498,-1.18631864033177,7.2));
#1443=IFCCARTESIANPOINT((-2.19203102167829,-2.19203102167829,8.));
#1444=IFCCARTESIANPOINT((-2.19203102167829,-2.19203102167829,7.2));
#1445=IFCCARTESIANPOINT((-1.18631864033177,-2.86402655078498,8.));
#1446=IFCCARTESIANPOINT((-1.18631864033177,-2.86402655078498,7.2));
#1447=IFCCARTESIANPOINT((-5.69460761603517E-16,-3.09999999999999,8.));
#1448=IFCCARTESIANPOINT((-5.69460761603517E-16,-3.09999999999999,7.2));
#1449=IFCCARTESIANPOINT((1.18631864033177,-2.86402655078498,8.));
#1450=IFCCARTESIANPOINT((1.18631864033177,-2.86402655078498,7.2));
#1451=IFCCARTESIANPOINT((2.19203102167829,-2.19203102167829,8.));
#1452=IFCCARTESIANPOINT((2.19203102167829,-2.19203102167829,7.2));
#1453=IFCCARTESIANPOINT((2.86402655078498,-1.18631864033177,8.));
#1454=IFCCARTESIANPOINT((2.86402655078498,-1.18631864033177,7.2));
#1455=IFCCARTESIANPOINT((-3.85949435922391E-16,2.39999999999999,7.2));
#1456=IFCCARTESIANPOINT((0.918440237676211,2.21731087802708,7.2));
#1457=IFCCARTESIANPOINT((-0.918440237676212,2.21731087802708,7.2));
#1458=IFCCARTESIANPOINT((-1.69705627484771,1.69705627484771,7.2));
#1459=IFCCARTESIANPOINT((-2.21731087802708,-0.918440237676211,7.2));
#1460=IFCCARTESIANPOINT((-2.39999999999999,2.93915231795363E-16,7.2));
#1461=IFCCARTESIANPOINT((-4.40872847693045E-16,-2.39999999999999,7.2));
#1462=IFCCARTESIANPOINT((-0.918440237676211,-2.21731087802708,7.2));
#1463=IFCCARTESIANPOINT((-2.21731087802708,0.918440237676211,7.2));
#1464=IFCCARTESIANPOINT((-1.69705627484771,-1.69705627484771,7.2));
#1465=IFCCARTESIANPOINT((0.918440237676212,-2.21731087802708,7.2));
#1466=IFCCARTESIANPOINT((2.21731087802708,-0.918440237676211,7.2));
#1467=IFCCARTESIANPOINT((1.69705627484771,-1.69705627484771,7.2));
#1468=IFCCARTESIANPOINT((1.69705627484771,1.69705627484771,7.2));
#1469=IFCCARTESIANPOINT((2.21731087802708,0.918440237676211,7.2));
#1470=IFCCARTESIANPOINT((2.39999999999999,0.,7.2));
#1471=IFCCARTESIANPOINT((2.21731087802708,0.918440237676211,0.));
#1472=IFCCARTESIANPOINT((2.39999999999999,0.,0.));
#1473=IFCCARTESIANPOINT((1.69705627484771,1.69705627484771,0.));
#1474=IFCCARTESIANPOINT((0.918440237676211,2.21731087802708,0.));
#1475=IFCCARTESIANPOINT((-3.85949435922391E-16,2.39999999999999,0.));
#1476=IFCCARTESIANPOINT((-0.918440237676212,2.21731087802708,0.));
#1477=IFCCARTESIANPOINT((-1.69705627484771,1.69705627484771,0.));
#1478=IFCCARTESIANPOINT((-2.21731087802708,0.918440237676211,0.));
#1479=IFCCARTESIANPOINT((-2.39999999999999,2.93915231795363E-16,0.));
#1480=IFCCARTESIANPOINT((-2.21731087802708,-0.918440237676211,0.));
#1481=IFCCARTESIANPOINT((-1.69705627484771,-1.69705627484771,0.));
#1482=IFCCARTESIANPOINT((-0.918440237676211,-2.21731087802708,0.));
#1483=IFCCARTESIANPOINT((-4.40872847693045E-16,-2.39999999999999,0.));
#1484=IFCCARTESIANPOINT((0.918440237676212,-2.21731087802708,0.));
#1485=IFCCARTESIANPOINT((1.69705627484771,-1.69705627484771,0.));
#1486=IFCCARTESIANPOINT((2.21731087802708,-0.918440237676211,0.));
#1487=IFCCARTESIANPOINT((3.00260848066167,1.24372115518654,0.));
#1488=IFCCARTESIANPOINT((3.24999999999999,0.,0.));
#1489=IFCCARTESIANPOINT((-3.00260848066167,1.24372115518654,0.));
#1490=IFCCARTESIANPOINT((-2.29809703885627,2.29809703885627,0.));
#1491=IFCCARTESIANPOINT((3.00260848066167,-1.24372115518654,0.));
#1492=IFCCARTESIANPOINT((-1.24372115518654,3.00260848066167,0.));
#1493=IFCCARTESIANPOINT((2.29809703885627,-2.29809703885627,0.));
#1494=IFCCARTESIANPOINT((-5.22639861144905E-16,3.24999999999999,0.));
#1495=IFCCARTESIANPOINT((1.24372115518654,-3.00260848066167,0.));
#1496=IFCCARTESIANPOINT((1.24372115518654,3.00260848066167,0.));
#1497=IFCCARTESIANPOINT((-5.97015314584333E-16,-3.24999999999999,0.));
#1498=IFCCARTESIANPOINT((-1.24372115518654,-3.00260848066167,0.));
#1499=IFCCARTESIANPOINT((-2.29809703885627,-2.29809703885627,0.));
#1500=IFCCARTESIANPOINT((2.29809703885627,2.29809703885627,0.));
#1501=IFCCARTESIANPOINT((-3.00260848066167,-1.24372115518654,0.));
#1502=IFCCARTESIANPOINT((-3.24999999999999,3.98010209722888E-16,0.));
#1503=IFCCARTESIANPOINT((3.00260848066167,-1.24372115518654,4.8));
#1504=IFCCARTESIANPOINT((3.24999999999999,0.,4.8));
#1505=IFCCARTESIANPOINT((2.29809703885627,-2.29809703885627,4.8));
#1506=IFCCARTESIANPOINT((1.24372115518654,-3.00260848066167,4.8));
#1507=IFCCARTESIANPOINT((-5.97015314584333E-16,-3.24999999999999,4.8));
#1508=IFCCARTESIANPOINT((-1.24372115518654,-3.00260848066167,4.8));
#1509=IFCCARTESIANPOINT((-2.29809703885627,-2.29809703885627,4.8));
#1510=IFCCARTESIANPOINT((-3.00260848066167,-1.24372115518654,4.8));
#1511=IFCCARTESIANPOINT((-3.24999999999999,3.98010209722888E-16,4.8));
#1512=IFCCARTESIANPOINT((-3.00260848066167,1.24372115518654,4.8));
#1513=IFCCARTESIANPOINT((-2.29809703885627,2.29809703885627,4.8));
#1514=IFCCARTESIANPOINT((-1.24372115518654,3.00260848066167,4.8));
#1515=IFCCARTESIANPOINT((-5.22639861144905E-16,3.24999999999999,4.8));
#1516=IFCCARTESIANPOINT((1.24372115518654,3.00260848066167,4.8));
#1517=IFCCARTESIANPOINT((2.29809703885627,2.29809703885627,4.8));
#1518=IFCCARTESIANPOINT((3.00260848066167,1.24372115518654,4.8));
#1519=IFCCARTESIANPOINT((3.32596631704063,1.37766035651432,8.));
#1520=IFCCARTESIANPOINT((2.54558441227157,2.54558441227157,8.));
#1521=IFCCARTESIANPOINT((1.37766035651432,3.32596631704063,8.));
#1522=IFCCARTESIANPOINT((-5.78924153883589E-16,3.6,8.));
#1523=IFCCARTESIANPOINT((-1.37766035651432,3.32596631704063,8.));
#1524=IFCCARTESIANPOINT((-2.54558441227157,-2.54558441227157,8.));
#1525=IFCCARTESIANPOINT((-1.37766035651432,-3.32596631704063,8.));
#1526=IFCCARTESIANPOINT((1.37766035651432,-3.32596631704063,8.));
#1527=IFCCARTESIANPOINT((2.54558441227157,-2.54558441227157,8.));
#1528=IFCCARTESIANPOINT((-2.54558441227157,2.54558441227157,8.));
#1529=IFCCARTESIANPOINT((-3.32596631704063,1.37766035651432,8.));
#1530=IFCCARTESIANPOINT((-6.61309271539571E-16,-3.6,8.));
#1531=IFCCARTESIANPOINT((3.32596631704063,-1.37766035651432,8.));
#1532=IFCCARTESIANPOINT((-3.6,4.40872847693047E-16,8.));
#1533=IFCCARTESIANPOINT((-3.32596631704063,-1.37766035651432,8.));
#1534=IFCCARTESIANPOINT((3.6,0.,8.));
#1535=IFCCARTESIANPOINT((3.32596631704063,-1.37766035651432,5.6));
#1536=IFCCARTESIANPOINT((3.6,0.,5.6));
#1537=IFCCARTESIANPOINT((2.54558441227157,-2.54558441227157,5.6));
#1538=IFCCARTESIANPOINT((1.37766035651432,-3.32596631704063,5.6));
#1539=IFCCARTESIANPOINT((-6.61309271539571E-16,-3.6,5.6));
#1540=IFCCARTESIANPOINT((-1.37766035651432,-3.32596631704063,5.6));
#1541=IFCCARTESIANPOINT((-2.54558441227157,-2.54558441227157,5.6));
#1542=IFCCARTESIANPOINT((-3.32596631704063,-1.37766035651432,5.6));
#1543=IFCCARTESIANPOINT((-3.6,4.40872847693047E-16,5.6));
#1544=IFCCARTESIANPOINT((-3.32596631704063,1.37766035651432,5.6));
#1545=IFCCARTESIANPOINT((-2.54558441227157,2.54558441227157,5.6));
#1546=IFCCARTESIANPOINT((-1.37766035651432,3.32596631704063,5.6));
#1547=IFCCARTESIANPOINT((-5.78924153883589E-16,3.6,5.6));
#1548=IFCCARTESIANPOINT((1.37766035651432,3.32596631704063,5.6));
#1549=IFCCARTESIANPOINT((2.54558441227157,2.54558441227157,5.6));
#1550=IFCCARTESIANPOINT((3.32596631704063,1.37766035651432,5.6));
#1551=IFCCARTESIANPOINT((2.29610059419054,5.54327719506772,5.6));
#1552=IFCCARTESIANPOINT((-9.64873589805982E-16,6.,5.6));
#1553=IFCCARTESIANPOINT((-2.29610059419054,5.54327719506772,5.6));
#1554=IFCCARTESIANPOINT((-4.24264068711929,-4.24264068711928,5.6));
#1555=IFCCARTESIANPOINT((-2.29610059419054,-5.54327719506772,5.6));
#1556=IFCCARTESIANPOINT((-4.24264068711929,4.24264068711928,5.6));
#1557=IFCCARTESIANPOINT((-1.10218211923262E-15,-6.,5.6));
#1558=IFCCARTESIANPOINT((2.29610059419054,-5.54327719506772,5.6));
#1559=IFCCARTESIANPOINT((4.24264068711928,-4.24264068711929,5.6));
#1560=IFCCARTESIANPOINT((-5.54327719506772,2.29610059419054,5.6));
#1561=IFCCARTESIANPOINT((-6.,7.34788079488412E-16,5.6));
#1562=IFCCARTESIANPOINT((-5.54327719506772,-2.29610059419054,5.6));
#1563=IFCCARTESIANPOINT((5.54327719506772,2.29610059419054,5.6));
#1564=IFCCARTESIANPOINT((4.24264068711928,4.24264068711928,5.6));
#1565=IFCCARTESIANPOINT((5.54327719506772,-2.29610059419054,5.6));
#1566=IFCCARTESIANPOINT((6.,0.,5.6));
#1567=IFCCARTESIANPOINT((5.54327719506772,2.29610059419054,6.));
#1568=IFCCARTESIANPOINT((6.,0.,6.));
#1569=IFCCARTESIANPOINT((4.24264068711928,4.24264068711928,6.));
#1570=IFCCARTESIANPOINT((2.29610059419054,5.54327719506772,6.));
#1571=IFCCARTESIANPOINT((-9.64873589805982E-16,6.,6.));
#1572=IFCCARTESIANPOINT((-2.29610059419054,5.54327719506772,6.));
#1573=IFCCARTESIANPOINT((-4.24264068711929,4.24264068711928,6.));
#1574=IFCCARTESIANPOINT((-5.54327719506772,2.29610059419054,6.));
#1575=IFCCARTESIANPOINT((-6.,7.34788079488412E-16,6.));
#1576=IFCCARTESIANPOINT((-5.54327719506772,-2.29610059419054,6.));
#1577=IFCCARTESIANPOINT((-4.24264068711929,-4.24264068711928,6.));
#1578=IFCCARTESIANPOINT((-2.29610059419054,-5.54327719506772,6.));
#1579=IFCCARTESIANPOINT((-1.10218211923262E-15,-6.,6.));
#1580=IFCCARTESIANPOINT((2.29610059419054,-5.54327719506772,6.));
#1581=IFCCARTESIANPOINT((4.24264068711928,-4.24264068711929,6.));
#1582=IFCCARTESIANPOINT((5.54327719506772,-2.29610059419054,6.));
#1583=IFCCARTESIANPOINT((5.79668198265127,0.199135549228462,4.8));
#1584=IFCCARTESIANPOINT((5.79668198265127,-0.2,4.8));
#1585=IFCCARTESIANPOINT((-4.24264068711929,4.24264068711928,4.8));
#1586=IFCCARTESIANPOINT((-0.2,5.79666574022599,4.8));
#1587=IFCCARTESIANPOINT((0.2,-5.79670350317904,4.8));
#1588=IFCCARTESIANPOINT((-0.2,-5.79670350317904,4.8));
#1589=IFCCARTESIANPOINT((-5.54327719506772,2.29610059419054,4.8));
#1590=IFCCARTESIANPOINT((-5.79666574022599,-0.2,4.8));
#1591=IFCCARTESIANPOINT((-5.79666574022599,0.193798521956524,4.8));
#1592=IFCCARTESIANPOINT((-2.29610059419054,5.54327719506772,4.8));
#1593=IFCCARTESIANPOINT((-0.2,5.99666574022598,4.8));
#1594=IFCCARTESIANPOINT((-0.199999999999999,-5.99666574022598,4.8));
#1595=IFCCARTESIANPOINT((-2.29610059419054,-5.54327719506772,4.8));
#1596=IFCCARTESIANPOINT((-4.24264068711929,-4.24264068711929,4.8));
#1597=IFCCARTESIANPOINT((-5.54327719506772,-2.29610059419054,4.8));
#1598=IFCCARTESIANPOINT((-5.99666574022598,-0.2,4.8));
#1599=IFCCARTESIANPOINT((5.99666574022598,-0.2,4.8));
#1600=IFCCARTESIANPOINT((5.54327719506772,-2.29610059419054,4.8));
#1601=IFCCARTESIANPOINT((4.24264068711929,-4.24264068711929,4.8));
#1602=IFCCARTESIANPOINT((2.29610059419054,-5.54327719506772,4.8));
#1603=IFCCARTESIANPOINT((0.2,-5.99666574022598,4.8));
#1604=IFCCARTESIANPOINT((0.193950831215165,5.79666574022599,4.8));
#1605=IFCCARTESIANPOINT((0.193562244630988,5.99687699202288,4.8));
#1606=IFCCARTESIANPOINT((2.29610059419054,5.54327719506772,4.8));
#1607=IFCCARTESIANPOINT((4.24264068711929,4.24264068711929,4.8));
#1608=IFCCARTESIANPOINT((5.54327719506772,2.29610059419054,4.8));
#1609=IFCCARTESIANPOINT((5.99668160594971,0.199523725066517,4.8));
#1610=IFCCARTESIANPOINT((-5.99688190650682,0.193409925833909,4.8));
#1611=IFCCARTESIANPOINT((0.2,-5.99666574022598,0.800000000000002));
#1612=IFCCARTESIANPOINT((0.2,-5.79670350317904,0.799999999999999));
#1613=IFCCARTESIANPOINT((-0.2,-5.99666574022598,0.800000000000002));
#1614=IFCCARTESIANPOINT((-0.2,-5.79670350317904,0.799999999999999));
#1615=IFCCARTESIANPOINT((-1.10218211923262E-15,-6.,0.800000000000002));
#1616=IFCCARTESIANPOINT((-0.2,5.99666574022598,0.800000000000002));
#1617=IFCCARTESIANPOINT((-0.2,5.79666574022599,0.799999999999999));
#1618=IFCCARTESIANPOINT((0.193562244630988,5.99687699202288,0.800000000000002));
#1619=IFCCARTESIANPOINT((0.193950831215165,5.79666574022599,0.799999999999999));
#1620=IFCCARTESIANPOINT((-9.64873589805982E-16,6.,0.800000000000002));
#1621=IFCCARTESIANPOINT((-5.99666574022598,-0.2,0.800000000000002));
#1622=IFCCARTESIANPOINT((-5.79666574022599,-0.2,0.799999999999999));
#1623=IFCCARTESIANPOINT((-5.99688190650683,0.193409925833909,0.800000000000002));
#1624=IFCCARTESIANPOINT((-5.79666574022599,0.193798521956524,0.799999999999999));
#1625=IFCCARTESIANPOINT((-6.,7.34788079488412E-16,0.800000000000002));
#1626=IFCCARTESIANPOINT((5.79668198265127,0.199135549228462,0.799999999999999));
#1627=IFCCARTESIANPOINT((5.79668198265127,-0.2,0.799999999999999));
#1628=IFCCARTESIANPOINT((5.99668160594971,0.199523725066517,0.800000000000002));
#1629=IFCCARTESIANPOINT((5.99666574022598,-0.2,0.800000000000002));
#1630=IFCCARTESIANPOINT((6.,-1.46957615897682E-15,0.800000000000002));
#1631=IFCCARTESIANPOINT((-1.10218211923262E-15,-6.,0.));
#1632=IFCCARTESIANPOINT((-2.29610059419054,-5.54327719506772,0.));
#1633=IFCCARTESIANPOINT((2.29610059419054,-5.54327719506772,0.));
#1634=IFCCARTESIANPOINT((6.00000000000001,0.,0.));
#1635=IFCCARTESIANPOINT((5.54327719506772,-2.29610059419054,0.));
#1636=IFCCARTESIANPOINT((5.54327719506772,2.29610059419054,0.));
#1637=IFCCARTESIANPOINT((-9.64873589805982E-16,6.,0.));
#1638=IFCCARTESIANPOINT((2.29610059419054,5.54327719506772,0.));
#1639=IFCCARTESIANPOINT((-2.29610059419054,5.54327719506772,0.));
#1640=IFCCARTESIANPOINT((-6.,7.34788079488412E-16,0.));
#1641=IFCCARTESIANPOINT((-5.54327719506772,2.29610059419054,0.));
#1642=IFCCARTESIANPOINT((-5.54327719506772,-2.29610059419054,0.));
#1643=IFCCARTESIANPOINT((4.24264068711929,4.24264068711929,0.));
#1644=IFCCARTESIANPOINT((-4.24264068711929,4.24264068711928,0.));
#1645=IFCCARTESIANPOINT((-4.24264068711929,-4.24264068711929,0.));
#1646=IFCCARTESIANPOINT((4.24264068711929,-4.24264068711929,0.));
#1647=IFCCARTESIANPOINT((6.28238082107675,-2.60224734008261,0.));
#1648=IFCCARTESIANPOINT((4.80832611206852,-4.80832611206852,0.));
#1649=IFCCARTESIANPOINT((6.8,0.,0.));
#1650=IFCCARTESIANPOINT((-6.28238082107675,2.60224734008261,0.));
#1651=IFCCARTESIANPOINT((-4.80832611206853,4.80832611206852,0.));
#1652=IFCCARTESIANPOINT((-1.09352340178011E-15,6.8,0.));
#1653=IFCCARTESIANPOINT((2.60224734008261,6.28238082107675,0.));
#1654=IFCCARTESIANPOINT((4.80832611206852,4.80832611206852,0.));
#1655=IFCCARTESIANPOINT((6.28238082107675,2.60224734008261,0.));
#1656=IFCCARTESIANPOINT((2.60224734008261,-6.28238082107675,0.));
#1657=IFCCARTESIANPOINT((-2.60224734008261,6.28238082107675,0.));
#1658=IFCCARTESIANPOINT((-1.2491397351303E-15,-6.8,0.));
#1659=IFCCARTESIANPOINT((-2.60224734008261,-6.28238082107675,0.));
#1660=IFCCARTESIANPOINT((-4.80832611206852,-4.80832611206852,0.));
#1661=IFCCARTESIANPOINT((-6.28238082107675,-2.60224734008261,0.));
#1662=IFCCARTESIANPOINT((-6.8,8.327598234202E-16,0.));
#1663=IFCCARTESIANPOINT((-1.84507233324463,-6.54489939434771,2.));
#1664=IFCCARTESIANPOINT((-1.2491397351303E-15,-6.8,2.));
#1665=IFCCARTESIANPOINT((-0.799999999974374,-6.75277720645669,2.));
#1666=IFCCARTESIANPOINT((-0.799999999974374,-6.75277720623128,6.));
#1667=IFCCARTESIANPOINT((-1.84507233324463,-6.54489939434771,6.));
#1668=IFCCARTESIANPOINT((-4.20924912940074,-5.34061997933545,2.));
#1669=IFCCARTESIANPOINT((-2.60224734008261,-6.28238082107675,2.));
#1670=IFCCARTESIANPOINT((-3.32327958534895,-5.93260590277181,2.));
#1671=IFCCARTESIANPOINT((-3.32327958526269,-5.93260590256356,6.));
#1672=IFCCARTESIANPOINT((-4.20924912940074,-5.34061997933545,6.));
#1673=IFCCARTESIANPOINT((-5.93260590254395,-3.32327958531003,2.));
#1674=IFCCARTESIANPOINT((-4.80832611206852,-4.80832611206852,2.));
#1675=IFCCARTESIANPOINT((-5.34061997945859,-4.20924912959636,2.));
#1676=IFCCARTESIANPOINT((-5.34061997929921,-4.20924912943697,6.));
#1677=IFCCARTESIANPOINT((-5.93260590254395,-3.32327958531003,6.));
#1678=IFCCARTESIANPOINT((-6.75277720623128,-0.800000000025623,2.));
#1679=IFCCARTESIANPOINT((-6.28238082107675,-2.60224734008261,2.));
#1680=IFCCARTESIANPOINT((-6.54489939453634,-1.84507233337824,2.));
#1681=IFCCARTESIANPOINT((-6.5448993943281,-1.84507233329198,6.));
#1682=IFCCARTESIANPOINT((-6.75277720623128,-0.800000000025623,6.));
#1683=IFCCARTESIANPOINT((-6.54489939434771,1.84507233324463,2.));
#1684=IFCCARTESIANPOINT((-6.8,8.327598234202E-16,2.));
#1685=IFCCARTESIANPOINT((-6.75277720645669,0.799999999974375,2.));
#1686=IFCCARTESIANPOINT((-6.75277720623128,0.799999999974375,6.));
#1687=IFCCARTESIANPOINT((-6.54489939434771,1.84507233324463,6.));
#1688=IFCCARTESIANPOINT((-5.34061997933545,4.20924912940074,2.));
#1689=IFCCARTESIANPOINT((-6.28238082107675,2.60224734008261,2.));
#1690=IFCCARTESIANPOINT((-5.93260590277181,3.32327958534895,2.));
#1691=IFCCARTESIANPOINT((-5.93260590256356,3.32327958526269,6.));
#1692=IFCCARTESIANPOINT((-5.34061997933545,4.20924912940074,6.));
#1693=IFCCARTESIANPOINT((-3.32327958531003,5.93260590254395,2.));
#1694=IFCCARTESIANPOINT((-4.80832611206853,4.80832611206852,2.));
#1695=IFCCARTESIANPOINT((-4.20924912959636,5.34061997945859,2.));
#1696=IFCCARTESIANPOINT((-4.20924912943697,5.34061997929921,6.));
#1697=IFCCARTESIANPOINT((-3.32327958531003,5.93260590254395,6.));
#1698=IFCCARTESIANPOINT((-0.800000000025623,6.75277720623128,2.));
#1699=IFCCARTESIANPOINT((-2.60224734008261,6.28238082107675,2.));
#1700=IFCCARTESIANPOINT((-1.84507233337823,6.54489939453634,2.));
#1701=IFCCARTESIANPOINT((-1.84507233329197,6.5448993943281,6.));
#1702=IFCCARTESIANPOINT((-0.800000000025623,6.75277720623128,6.));
#1703=IFCCARTESIANPOINT((1.84507233324462,6.54489939434771,2.));
#1704=IFCCARTESIANPOINT((-1.09352340178011E-15,6.8,2.));
#1705=IFCCARTESIANPOINT((0.799999999974375,6.75277720645669,2.));
#1706=IFCCARTESIANPOINT((0.799999999974375,6.75277720623128,6.));
#1707=IFCCARTESIANPOINT((1.84507233324462,6.54489939434771,6.));
#1708=IFCCARTESIANPOINT((4.20924912940073,5.34061997933545,2.));
#1709=IFCCARTESIANPOINT((2.60224734008261,6.28238082107675,2.));
#1710=IFCCARTESIANPOINT((3.32327958534894,5.93260590277181,2.));
#1711=IFCCARTESIANPOINT((3.32327958526268,5.93260590256357,6.));
#1712=IFCCARTESIANPOINT((4.20924912940073,5.34061997933545,6.));
#1713=IFCCARTESIANPOINT((5.93260590254395,3.32327958531004,2.));
#1714=IFCCARTESIANPOINT((4.80832611206852,4.80832611206852,2.));
#1715=IFCCARTESIANPOINT((5.34061997945859,4.20924912959636,2.));
#1716=IFCCARTESIANPOINT((5.34061997929921,4.20924912943697,6.));
#1717=IFCCARTESIANPOINT((5.93260590254395,3.32327958531004,6.));
#1718=IFCCARTESIANPOINT((6.75277720623128,0.800000000025625,2.));
#1719=IFCCARTESIANPOINT((6.28238082107675,2.60224734008261,2.));
#1720=IFCCARTESIANPOINT((6.54489939453634,1.84507233337824,2.));
#1721=IFCCARTESIANPOINT((6.5448993943281,1.84507233329198,6.));
#1722=IFCCARTESIANPOINT((6.75277720623128,0.800000000025625,6.));
#1723=IFCCARTESIANPOINT((6.54489939434771,-1.84507233324463,2.));
#1724=IFCCARTESIANPOINT((6.8,0.,2.));
#1725=IFCCARTESIANPOINT((6.75277720645669,-0.799999999974373,2.));
#1726=IFCCARTESIANPOINT((6.75277720623128,-0.799999999974373,6.));
#1727=IFCCARTESIANPOINT((6.54489939434771,-1.84507233324463,6.));
#1728=IFCCARTESIANPOINT((5.34061997933545,-4.20924912940073,2.));
#1729=IFCCARTESIANPOINT((6.28238082107675,-2.60224734008261,2.));
#1730=IFCCARTESIANPOINT((5.93260590277181,-3.32327958534894,2.));
#1731=IFCCARTESIANPOINT((5.93260590256357,-3.32327958526269,6.));
#1732=IFCCARTESIANPOINT((5.34061997933545,-4.20924912940073,6.));
#1733=IFCCARTESIANPOINT((3.32327958531004,-5.93260590254395,2.));
#1734=IFCCARTESIANPOINT((4.80832611206852,-4.80832611206852,2.));
#1735=IFCCARTESIANPOINT((4.20924912959636,-5.34061997945859,2.));
#1736=IFCCARTESIANPOINT((4.20924912943697,-5.34061997929921,6.));
#1737=IFCCARTESIANPOINT((3.32327958531004,-5.93260590254395,6.));
#1738=IFCCARTESIANPOINT((0.800000000025624,-6.75277720623128,2.));
#1739=IFCCARTESIANPOINT((2.60224734008261,-6.28238082107675,2.));
#1740=IFCCARTESIANPOINT((1.84507233337824,-6.54489939453634,2.));
#1741=IFCCARTESIANPOINT((1.84507233329198,-6.5448993943281,6.));
#1742=IFCCARTESIANPOINT((0.800000000025624,-6.75277720623128,6.));
#1743=IFCCARTESIANPOINT((3.70596301767513,-6.85648543505524,6.));
#1744=IFCCARTESIANPOINT((3.70596301767513,-6.85648543505524,2.));
#1745=IFCCARTESIANPOINT((3.7336852786296,-7.96866326533224,6.));
#1746=IFCCARTESIANPOINT((3.7336852786296,-7.96866326533224,2.));
#1747=IFCCARTESIANPOINT((2.99458165262056,-8.27481001122432,2.));
#1748=IFCCARTESIANPOINT((2.22775576565707,-7.46877892683938,2.));
#1749=IFCCARTESIANPOINT((2.99458165262056,-8.27481001122432,6.));
#1750=IFCCARTESIANPOINT((2.22775576565707,-7.46877892683938,6.));
#1751=IFCCARTESIANPOINT((6.047726760522,-4.91635591058728,6.));
#1752=IFCCARTESIANPOINT((6.047726760522,-4.91635591058728,2.));
#1753=IFCCARTESIANPOINT((6.49895081950353,-5.93326539451803,6.));
#1754=IFCCARTESIANPOINT((6.49895081950353,-5.93326539451803,2.));
#1755=IFCCARTESIANPOINT((5.93326539455428,-6.49895081946729,2.));
#1756=IFCCARTESIANPOINT((4.91635591062352,-6.04772676048575,2.));
#1757=IFCCARTESIANPOINT((5.93326539455428,-6.49895081946729,6.));
#1758=IFCCARTESIANPOINT((4.91635591062352,-6.04772676048575,6.));
#1759=IFCCARTESIANPOINT((7.468778926859,-2.22775576560972,6.));
#1760=IFCCARTESIANPOINT((7.468778926859,-2.22775576560972,2.));
#1761=IFCCARTESIANPOINT((8.27481001124393,-2.9945816525732,6.));
#1762=IFCCARTESIANPOINT((8.27481001124393,-2.9945816525732,2.));
#1763=IFCCARTESIANPOINT((7.96866326535186,-3.73368527858224,2.));
#1764=IFCCARTESIANPOINT((6.85648543507485,-3.70596301762778,2.));
#1765=IFCCARTESIANPOINT((7.96866326535186,-3.73368527858224,6.));
#1766=IFCCARTESIANPOINT((6.85648543507485,-3.70596301762778,6.));
#1767=IFCCARTESIANPOINT((7.75277720623128,0.800000000025625,6.));
#1768=IFCCARTESIANPOINT((7.75277720623128,0.800000000025625,2.));
#1769=IFCCARTESIANPOINT((8.790904390112,0.400000000025638,6.));
#1770=IFCCARTESIANPOINT((8.790904390112,0.400000000025638,2.));
#1771=IFCCARTESIANPOINT((8.790904390112,-0.399999999974379,2.));
#1772=IFCCARTESIANPOINT((7.75277720623128,-0.799999999974373,2.));
#1773=IFCCARTESIANPOINT((8.790904390112,-0.399999999974379,6.));
#1774=IFCCARTESIANPOINT((7.75277720623128,-0.799999999974373,6.));
#1775=IFCCARTESIANPOINT((6.85648543505524,3.70596301767513,6.));
#1776=IFCCARTESIANPOINT((6.85648543505524,3.70596301767513,2.));
#1777=IFCCARTESIANPOINT((7.96866326533224,3.7336852786296,6.));
#1778=IFCCARTESIANPOINT((7.96866326533224,3.7336852786296,2.));
#1779=IFCCARTESIANPOINT((8.27481001122432,2.99458165262056,2.));
#1780=IFCCARTESIANPOINT((7.46877892683938,2.22775576565707,2.));
#1781=IFCCARTESIANPOINT((8.27481001122432,2.99458165262056,6.));
#1782=IFCCARTESIANPOINT((7.46877892683938,2.22775576565707,6.));
#1783=IFCCARTESIANPOINT((4.91635591058728,6.047726760522,6.));
#1784=IFCCARTESIANPOINT((4.91635591058728,6.047726760522,2.));
#1785=IFCCARTESIANPOINT((5.93326539451803,6.49895081950353,6.));
#1786=IFCCARTESIANPOINT((5.93326539451803,6.49895081950353,2.));
#1787=IFCCARTESIANPOINT((6.49895081946728,5.93326539455428,2.));
#1788=IFCCARTESIANPOINT((6.04772676048575,4.91635591062352,2.));
#1789=IFCCARTESIANPOINT((6.49895081946728,5.93326539455428,6.));
#1790=IFCCARTESIANPOINT((6.04772676048575,4.91635591062352,6.));
#1791=IFCCARTESIANPOINT((2.22775576560971,7.468778926859,6.));
#1792=IFCCARTESIANPOINT((2.22775576560971,7.468778926859,2.));
#1793=IFCCARTESIANPOINT((2.99458165257319,8.27481001124394,6.));
#1794=IFCCARTESIANPOINT((2.99458165257319,8.27481001124394,2.));
#1795=IFCCARTESIANPOINT((3.73368527858224,7.96866326535186,2.));
#1796=IFCCARTESIANPOINT((3.70596301762777,6.85648543507485,2.));
#1797=IFCCARTESIANPOINT((3.73368527858224,7.96866326535186,6.));
#1798=IFCCARTESIANPOINT((3.70596301762777,6.85648543507485,6.));
#1799=IFCCARTESIANPOINT((-0.800000000025623,7.75277720623128,6.));
#1800=IFCCARTESIANPOINT((-0.800000000025623,7.75277720623128,2.));
#1801=IFCCARTESIANPOINT((-0.400000000025636,8.790904390112,6.));
#1802=IFCCARTESIANPOINT((-0.400000000025636,8.790904390112,2.));
#1803=IFCCARTESIANPOINT((0.399999999974381,8.790904390112,2.));
#1804=IFCCARTESIANPOINT((0.799999999974375,7.75277720623128,2.));
#1805=IFCCARTESIANPOINT((0.399999999974381,8.790904390112,6.));
#1806=IFCCARTESIANPOINT((0.799999999974375,7.75277720623128,6.));
#1807=IFCCARTESIANPOINT((-3.70596301767512,6.85648543505524,6.));
#1808=IFCCARTESIANPOINT((-3.70596301767512,6.85648543505524,2.));
#1809=IFCCARTESIANPOINT((-3.73368527862959,7.96866326533224,6.));
#1810=IFCCARTESIANPOINT((-3.73368527862959,7.96866326533224,2.));
#1811=IFCCARTESIANPOINT((-2.99458165262055,8.27481001122432,2.));
#1812=IFCCARTESIANPOINT((-2.22775576565706,7.46877892683938,2.));
#1813=IFCCARTESIANPOINT((-2.99458165262055,8.27481001122432,6.));
#1814=IFCCARTESIANPOINT((-2.22775576565706,7.46877892683938,6.));
#1815=IFCCARTESIANPOINT((-6.04772676052199,4.91635591058728,6.));
#1816=IFCCARTESIANPOINT((-6.04772676052199,4.91635591058728,2.));
#1817=IFCCARTESIANPOINT((-6.49895081950353,5.93326539451804,6.));
#1818=IFCCARTESIANPOINT((-6.49895081950353,5.93326539451804,2.));
#1819=IFCCARTESIANPOINT((-5.93326539455428,6.49895081946729,2.));
#1820=IFCCARTESIANPOINT((-4.91635591062352,6.04772676048576,2.));
#1821=IFCCARTESIANPOINT((-5.93326539455428,6.49895081946729,6.));
#1822=IFCCARTESIANPOINT((-4.91635591062352,6.04772676048576,6.));
#1823=IFCCARTESIANPOINT((-7.46877892685899,2.22775576560972,6.));
#1824=IFCCARTESIANPOINT((-7.46877892685899,2.22775576560972,2.));
#1825=IFCCARTESIANPOINT((-8.27481001124393,2.9945816525732,6.));
#1826=IFCCARTESIANPOINT((-8.27481001124393,2.9945816525732,2.));
#1827=IFCCARTESIANPOINT((-7.96866326535186,3.73368527858225,2.));
#1828=IFCCARTESIANPOINT((-6.85648543507485,3.70596301762778,2.));
#1829=IFCCARTESIANPOINT((-7.96866326535186,3.73368527858225,6.));
#1830=IFCCARTESIANPOINT((-6.85648543507485,3.70596301762778,6.));
#1831=IFCCARTESIANPOINT((-7.75277720623128,-0.800000000025622,6.));
#1832=IFCCARTESIANPOINT((-7.75277720623128,-0.800000000025622,2.));
#1833=IFCCARTESIANPOINT((-8.790904390112,-0.400000000025635,6.));
#1834=IFCCARTESIANPOINT((-8.790904390112,-0.400000000025635,2.));
#1835=IFCCARTESIANPOINT((-8.790904390112,0.399999999974382,2.));
#1836=IFCCARTESIANPOINT((-7.75277720623128,0.799999999974376,2.));
#1837=IFCCARTESIANPOINT((-8.790904390112,0.399999999974382,6.));
#1838=IFCCARTESIANPOINT((-7.75277720623128,0.799999999974376,6.));
#1839=IFCCARTESIANPOINT((-6.85648543505524,-3.70596301767512,6.));
#1840=IFCCARTESIANPOINT((-6.85648543505524,-3.70596301767512,2.));
#1841=IFCCARTESIANPOINT((-7.96866326533224,-3.7336852786296,6.));
#1842=IFCCARTESIANPOINT((-7.96866326533224,-3.7336852786296,2.));
#1843=IFCCARTESIANPOINT((-8.27481001122432,-2.99458165262055,2.));
#1844=IFCCARTESIANPOINT((-7.46877892683938,-2.22775576565707,2.));
#1845=IFCCARTESIANPOINT((-8.27481001122432,-2.99458165262055,6.));
#1846=IFCCARTESIANPOINT((-7.46877892683938,-2.22775576565707,6.));
#1847=IFCCARTESIANPOINT((-4.91635591058728,-6.04772676052199,6.));
#1848=IFCCARTESIANPOINT((-4.91635591058728,-6.04772676052199,2.));
#1849=IFCCARTESIANPOINT((-5.93326539451804,-6.49895081950353,6.));
#1850=IFCCARTESIANPOINT((-5.93326539451804,-6.49895081950353,2.));
#1851=IFCCARTESIANPOINT((-6.49895081946729,-5.93326539455428,2.));
#1852=IFCCARTESIANPOINT((-6.04772676048576,-4.91635591062352,2.));
#1853=IFCCARTESIANPOINT((-6.49895081946729,-5.93326539455428,6.));
#1854=IFCCARTESIANPOINT((-6.04772676048576,-4.91635591062352,6.));
#1855=IFCCARTESIANPOINT((-2.22775576560972,-7.46877892685899,6.));
#1856=IFCCARTESIANPOINT((-2.22775576560972,-7.46877892685899,2.));
#1857=IFCCARTESIANPOINT((-2.9945816525732,-8.27481001124393,6.));
#1858=IFCCARTESIANPOINT((-2.9945816525732,-8.27481001124393,2.));
#1859=IFCCARTESIANPOINT((-3.73368527858225,-7.96866326535186,2.));
#1860=IFCCARTESIANPOINT((-3.70596301762778,-6.85648543507485,2.));
#1861=IFCCARTESIANPOINT((-3.73368527858225,-7.96866326535186,6.));
#1862=IFCCARTESIANPOINT((-3.70596301762778,-6.85648543507485,6.));
#1863=IFCCARTESIANPOINT((0.800000000025624,-7.75277720623128,6.));
#1864=IFCCARTESIANPOINT((0.800000000025624,-7.75277720623128,2.));
#1865=IFCCARTESIANPOINT((0.400000000025637,-8.790904390112,6.));
#1866=IFCCARTESIANPOINT((0.400000000025637,-8.790904390112,2.));
#1867=IFCCARTESIANPOINT((-0.799999999974374,-7.75277720623128,6.));
#1868=IFCCARTESIANPOINT((-0.39999999997438,-8.790904390112,6.));
#1869=IFCCARTESIANPOINT((-0.39999999997438,-8.790904390112,2.));
#1870=IFCCARTESIANPOINT((-0.799999999974374,-7.75277720623128,2.));
#1871=IFCCARTESIANPOINT((0.,0.,0.));
#1872=IFCCARTESIANPOINT((0.,0.,0.));
#1873=IFCGEOMETRICREPRESENTATIONCONTEXT($,'Model',3,0.005,#1416,$);
#1874=IFCSIUNIT(*,.LENGTHUNIT.,.MILLI.,.METRE.);
#1875=IFCSIUNIT(*,.AREAUNIT.,$,.SQUARE_METRE.);
#1876=IFCSIUNIT(*,.VOLUMEUNIT.,$,.CUBIC_METRE.);
#1877=IFCSIUNIT(*,.PLANEANGLEUNIT.,$,.RADIAN.);
#1878=IFCOWNERHISTORY(#1880,#1879,$,.NOCHANGE.,0,$,$,0);
#1879=IFCAPPLICATION(#1881,' ',' ',' ');
#1880=IFCPERSONANDORGANIZATION(#1882,#1881,$);
#1881=IFCORGANIZATION($,' ',$,$,$);
#1882=IFCPERSON(' ',' ',' ',$,$,$,$,$);
ENDSEC;
END-ISO-10303-21;
