ISO-10303-21;
HEADER;
/* Generated by software containing ST-Developer
 * from STEP Tools, Inc. (www.steptools.com) 
 */
/* OPTION: strings as raw bytes, not using required /X/ escapes */

FILE_DESCRIPTION(
/* description */ ('Unknown'),
/* implementation_level */ '2;1');

FILE_NAME(
/* name */ 'Gray_4516546_JCA',
/* time_stamp */ '2025-07-21T23:59:38+02:00',
/* author */ ('Unknown'),
/* organization */ ('Unknown'),
/* preprocessor_version */ 'ST-DEVELOPER v19.4',
/* originating_system */ 'Unknown',
/* authorisation */ 'OpenTools');

FILE_SCHEMA (('IFC2X3'));
ENDSEC;

DATA;
#10=IFCPROPERTYSINGLEVALUE('ProjectName',$,IFCTEXT(''),$);
#11=IFCPROPERTYSINGLEVALUE('PartNumber',$,IFCTEXT(''),$);
#12=IFCRELDEFINESBYPROPERTIES('3cRq1JQpSwDOm5lsE5cG83',#802,$,$,(#14),#13);
#13=IFCPROPERTYSET('1jOd4kXgWorA4TVRi95rqH',#802,
'empty property set name',$,(#10,#11));
#14=IFCBUILDINGELEMENTPROXY('2GP_XOK7Wq1Pa1NGQTVWHM',#802,
'Gray_4516546_JCA',' ','Gray_4516546_JCA',#19,#15,' ',.ELEMENT.);
#15=IFCPRODUCTDEFINITIONSHAPE(' ',' ',(#25));
#16=IFCRELCONTAINEDINSPATIALSTRUCTURE('3HZhfx2I0vj9Cvp1GHER_f',#802,' ',
' ',(#14),#20);
#17=IFCRELAGGREGATES('1jF0XzMGqvEA6wZwPLSawz',#802,$,$,#609,(#20));
#18=IFCLOCALPLACEMENT($,#612);
#19=IFCLOCALPLACEMENT(#18,#613);
#20=IFCBUILDING('3G2N19bOG__grq1LV0cQPU',#802,'Default Building',$,$,#18,
$,$,.ELEMENT.,0.,0.,$);
#21=IFCCARTESIANTRANSFORMATIONOPERATOR3D($,$,#795,1.,$);
#22=IFCMAPPEDITEM(#23,#21);
#23=IFCREPRESENTATIONMAP(#612,#24);
#24=IFCSHAPEREPRESENTATION(#611,'Body','Brep',(#608));
#25=IFCSHAPEREPRESENTATION(#611,'Body','MappedRepresentation',(#22));
#26=IFCPOLYLOOP((#619,#620,#621,#622));
#27=IFCPOLYLOOP((#623,#624,#620,#619));
#28=IFCPOLYLOOP((#625,#626,#624,#623));
#29=IFCPOLYLOOP((#627,#628,#626,#625));
#30=IFCPOLYLOOP((#629,#630,#628,#627));
#31=IFCPOLYLOOP((#631,#632,#630,#629));
#32=IFCPOLYLOOP((#633,#634,#632,#631));
#33=IFCPOLYLOOP((#635,#636,#634,#633));
#34=IFCPOLYLOOP((#637,#638,#636,#635));
#35=IFCPOLYLOOP((#639,#640,#638,#637));
#36=IFCPOLYLOOP((#640,#639,#641,#642));
#37=IFCPOLYLOOP((#643,#644,#642,#641));
#38=IFCPOLYLOOP((#645,#646,#644,#643));
#39=IFCPOLYLOOP((#647,#648,#646,#645));
#40=IFCPOLYLOOP((#649,#650,#648,#647));
#41=IFCPOLYLOOP((#651,#652,#650,#649));
#42=IFCPOLYLOOP((#653,#654,#652,#651));
#43=IFCPOLYLOOP((#655,#656,#654,#653));
#44=IFCPOLYLOOP((#657,#658,#656,#655));
#45=IFCPOLYLOOP((#659,#660,#658,#657));
#46=IFCPOLYLOOP((#661,#662,#660,#659));
#47=IFCPOLYLOOP((#663,#664,#662,#661));
#48=IFCPOLYLOOP((#665,#666,#664,#663));
#49=IFCPOLYLOOP((#667,#668,#666,#665));
#50=IFCPOLYLOOP((#669,#670,#668,#667));
#51=IFCPOLYLOOP((#671,#672,#670,#669));
#52=IFCPOLYLOOP((#672,#671,#673,#674));
#53=IFCPOLYLOOP((#675,#676,#674,#673));
#54=IFCPOLYLOOP((#677,#678,#676,#675));
#55=IFCPOLYLOOP((#679,#680,#678,#677));
#56=IFCPOLYLOOP((#681,#682,#680,#679));
#57=IFCPOLYLOOP((#683,#684,#682,#681));
#58=IFCPOLYLOOP((#685,#686,#684,#683));
#59=IFCPOLYLOOP((#687,#688,#686,#685));
#60=IFCPOLYLOOP((#689,#690,#688,#687));
#61=IFCPOLYLOOP((#691,#692,#690,#689));
#62=IFCPOLYLOOP((#693,#694,#692,#691));
#63=IFCPOLYLOOP((#695,#696,#694,#693));
#64=IFCPOLYLOOP((#697,#698,#696,#695));
#65=IFCPOLYLOOP((#699,#700,#698,#697));
#66=IFCPOLYLOOP((#701,#702,#700,#699));
#67=IFCPOLYLOOP((#703,#704,#702,#701));
#68=IFCPOLYLOOP((#704,#703,#705,#706));
#69=IFCPOLYLOOP((#707,#708,#706,#705));
#70=IFCPOLYLOOP((#709,#710,#708,#707));
#71=IFCPOLYLOOP((#711,#712,#710,#709));
#72=IFCPOLYLOOP((#713,#714,#712,#711));
#73=IFCPOLYLOOP((#715,#716,#714,#713));
#74=IFCPOLYLOOP((#717,#718,#716,#715));
#75=IFCPOLYLOOP((#719,#720,#718,#717));
#76=IFCPOLYLOOP((#721,#722,#720,#719));
#77=IFCPOLYLOOP((#723,#724,#722,#721));
#78=IFCPOLYLOOP((#622,#621,#725,#726));
#79=IFCPOLYLOOP((#727,#728,#729,#730));
#80=IFCPOLYLOOP((#731,#732,#728,#727));
#81=IFCPOLYLOOP((#733,#734,#732,#731));
#82=IFCPOLYLOOP((#726,#725,#734,#733));
#83=IFCPOLYLOOP((#735,#736,#730,#729));
#84=IFCPOLYLOOP((#737,#738,#739,#740));
#85=IFCPOLYLOOP((#741,#742,#738,#737));
#86=IFCPOLYLOOP((#743,#744,#742,#741));
#87=IFCPOLYLOOP((#736,#735,#744,#743));
#88=IFCPOLYLOOP((#745,#746,#724,#723));
#89=IFCPOLYLOOP((#740,#739,#746,#745));
#90=IFCPOLYLOOP((#747,#730,#736));
#91=IFCPOLYLOOP((#748,#641,#639));
#92=IFCPOLYLOOP((#749,#619,#622));
#93=IFCPOLYLOOP((#736,#743,#747));
#94=IFCPOLYLOOP((#750,#715,#713,#711,#709,#707,#705,#703));
#95=IFCPOLYLOOP((#751,#673,#671));
#96=IFCPOLYLOOP((#752,#653,#651));
#97=IFCPOLYLOOP((#752,#657,#655));
#98=IFCPOLYLOOP((#639,#637,#748));
#99=IFCPOLYLOOP((#749,#623,#619));
#100=IFCPOLYLOOP((#749,#627,#625));
#101=IFCPOLYLOOP((#743,#741,#753,#747));
#102=IFCPOLYLOOP((#750,#717,#715));
#103=IFCPOLYLOOP((#671,#669,#751));
#104=IFCPOLYLOOP((#655,#653,#752));
#105=IFCPOLYLOOP((#637,#635,#754,#748));
#106=IFCPOLYLOOP((#625,#623,#749));
#107=IFCPOLYLOOP((#755,#753,#740,#745));
#108=IFCPOLYLOOP((#741,#737,#753));
#109=IFCPOLYLOOP((#703,#701,#750));
#110=IFCPOLYLOOP((#669,#667,#756,#751));
#111=IFCPOLYLOOP((#752,#659,#657));
#112=IFCPOLYLOOP((#757,#754,#631,#629));
#113=IFCPOLYLOOP((#635,#633,#754));
#114=IFCPOLYLOOP((#749,#629,#627));
#115=IFCPOLYLOOP((#737,#740,#753));
#116=IFCPOLYLOOP((#750,#719,#717));
#117=IFCPOLYLOOP((#758,#756,#663,#661));
#118=IFCPOLYLOOP((#667,#665,#756));
#119=IFCPOLYLOOP((#752,#661,#659));
#120=IFCPOLYLOOP((#633,#631,#754));
#121=IFCPOLYLOOP((#745,#759,#760,#761,#755));
#122=IFCPOLYLOOP((#759,#745,#723));
#123=IFCPOLYLOOP((#701,#699,#762,#750));
#124=IFCPOLYLOOP((#750,#723,#721));
#125=IFCPOLYLOOP((#763,#685,#683));
#126=IFCPOLYLOOP((#764,#689,#687));
#127=IFCPOLYLOOP((#665,#663,#756));
#128=IFCPOLYLOOP((#629,#749,#765,#766,#757));
#129=IFCPOLYLOOP((#723,#750,#759));
#130=IFCPOLYLOOP((#721,#719,#750));
#131=IFCPOLYLOOP((#687,#685,#763,#764));
#132=IFCPOLYLOOP((#661,#752,#767,#768,#758));
#133=IFCPOLYLOOP((#622,#726,#733,#731,#727,#730,#747,#749));
#134=IFCPOLYLOOP((#699,#697,#762));
#135=IFCPOLYLOOP((#764,#691,#689));
#136=IFCPOLYLOOP((#651,#649,#647,#645,#643,#641,#748,#752));
#137=IFCPOLYLOOP((#697,#695,#762));
#138=IFCPOLYLOOP((#764,#769,#770,#693,#691));
#139=IFCPOLYLOOP((#695,#693,#770,#762));
#140=IFCPOLYLOOP((#751,#763,#681,#679,#677,#675,#673));
#141=IFCPOLYLOOP((#683,#681,#763));
#142=IFCPOLYLOOP((#771,#702,#704));
#143=IFCPOLYLOOP((#772,#714,#716));
#144=IFCPOLYLOOP((#773,#656,#658));
#145=IFCPOLYLOOP((#774,#688,#690));
#146=IFCPOLYLOOP((#771,#700,#702));
#147=IFCPOLYLOOP((#771,#696,#698));
#148=IFCPOLYLOOP((#775,#720,#722));
#149=IFCPOLYLOOP((#716,#718,#772));
#150=IFCPOLYLOOP((#776,#638,#640));
#151=IFCPOLYLOOP((#773,#777,#654,#656));
#152=IFCPOLYLOOP((#777,#650,#652));
#153=IFCPOLYLOOP((#778,#670,#672));
#154=IFCPOLYLOOP((#774,#779,#686,#688));
#155=IFCPOLYLOOP((#779,#676,#678,#680,#682,#684));
#156=IFCPOLYLOOP((#698,#700,#771));
#157=IFCPOLYLOOP((#780,#775,#724,#746));
#158=IFCPOLYLOOP((#718,#720,#775,#772));
#159=IFCPOLYLOOP((#781,#744,#735));
#160=IFCPOLYLOOP((#782,#725,#621));
#161=IFCPOLYLOOP((#776,#783,#636,#638));
#162=IFCPOLYLOOP((#783,#632,#634));
#163=IFCPOLYLOOP((#784,#773,#660,#662));
#164=IFCPOLYLOOP((#652,#654,#777));
#165=IFCPOLYLOOP((#778,#668,#670));
#166=IFCPOLYLOOP((#785,#774,#692,#694));
#167=IFCPOLYLOOP((#684,#686,#779));
#168=IFCPOLYLOOP((#771,#694,#696));
#169=IFCPOLYLOOP((#722,#724,#775));
#170=IFCPOLYLOOP((#781,#742,#744));
#171=IFCPOLYLOOP((#781,#739,#738));
#172=IFCPOLYLOOP((#621,#620,#782));
#173=IFCPOLYLOOP((#634,#636,#783));
#174=IFCPOLYLOOP((#658,#660,#773));
#175=IFCPOLYLOOP((#778,#666,#668));
#176=IFCPOLYLOOP((#690,#692,#774));
#177=IFCPOLYLOOP((#746,#781,#786,#787,#780));
#178=IFCPOLYLOOP((#738,#742,#781));
#179=IFCPOLYLOOP((#620,#624,#788,#782));
#180=IFCPOLYLOOP((#783,#789,#630,#632));
#181=IFCPOLYLOOP((#662,#778,#790,#791,#784));
#182=IFCPOLYLOOP((#778,#664,#666));
#183=IFCPOLYLOOP((#704,#706,#708,#710,#712,#714,#772,#771));
#184=IFCPOLYLOOP((#781,#746,#739));
#185=IFCPOLYLOOP((#624,#626,#788));
#186=IFCPOLYLOOP((#777,#776,#642,#644,#646,#648,#650));
#187=IFCPOLYLOOP((#778,#662,#664));
#188=IFCPOLYLOOP((#735,#729,#728,#732,#734,#725,#782,#781));
#189=IFCPOLYLOOP((#626,#628,#788));
#190=IFCPOLYLOOP((#672,#674,#676,#779,#778));
#191=IFCPOLYLOOP((#628,#630,#789,#792,#788));
#192=IFCPOLYLOOP((#694,#771,#793,#794,#785));
#193=IFCPOLYLOOP((#640,#642,#776));
#194=IFCPOLYLOOP((#754,#783,#776,#748));
#195=IFCPOLYLOOP((#748,#776,#777,#752));
#196=IFCPOLYLOOP((#752,#777,#773,#767));
#197=IFCPOLYLOOP((#758,#791,#790,#756));
#198=IFCPOLYLOOP((#768,#784,#791,#758));
#199=IFCPOLYLOOP((#767,#773,#784,#768));
#200=IFCPOLYLOOP((#756,#790,#778,#751));
#201=IFCPOLYLOOP((#751,#778,#779,#763));
#202=IFCPOLYLOOP((#763,#779,#774,#764));
#203=IFCPOLYLOOP((#770,#794,#793,#762));
#204=IFCPOLYLOOP((#769,#785,#794,#770));
#205=IFCPOLYLOOP((#764,#774,#785,#769));
#206=IFCPOLYLOOP((#762,#793,#771,#750));
#207=IFCPOLYLOOP((#750,#771,#772,#759));
#208=IFCPOLYLOOP((#759,#772,#775,#760));
#209=IFCPOLYLOOP((#755,#787,#786,#753));
#210=IFCPOLYLOOP((#761,#780,#787,#755));
#211=IFCPOLYLOOP((#760,#775,#780,#761));
#212=IFCPOLYLOOP((#753,#786,#781,#747));
#213=IFCPOLYLOOP((#747,#781,#782,#749));
#214=IFCPOLYLOOP((#749,#782,#788,#765));
#215=IFCPOLYLOOP((#757,#789,#783,#754));
#216=IFCPOLYLOOP((#766,#792,#789,#757));
#217=IFCPOLYLOOP((#765,#788,#792,#766));
#218=IFCFACEOUTERBOUND(#26,.T.);
#219=IFCFACEOUTERBOUND(#27,.T.);
#220=IFCFACEOUTERBOUND(#28,.T.);
#221=IFCFACEOUTERBOUND(#29,.T.);
#222=IFCFACEOUTERBOUND(#30,.T.);
#223=IFCFACEOUTERBOUND(#31,.T.);
#224=IFCFACEOUTERBOUND(#32,.T.);
#225=IFCFACEOUTERBOUND(#33,.T.);
#226=IFCFACEOUTERBOUND(#34,.T.);
#227=IFCFACEOUTERBOUND(#35,.T.);
#228=IFCFACEOUTERBOUND(#36,.T.);
#229=IFCFACEOUTERBOUND(#37,.T.);
#230=IFCFACEOUTERBOUND(#38,.T.);
#231=IFCFACEOUTERBOUND(#39,.T.);
#232=IFCFACEOUTERBOUND(#40,.T.);
#233=IFCFACEOUTERBOUND(#41,.T.);
#234=IFCFACEOUTERBOUND(#42,.T.);
#235=IFCFACEOUTERBOUND(#43,.T.);
#236=IFCFACEOUTERBOUND(#44,.T.);
#237=IFCFACEOUTERBOUND(#45,.T.);
#238=IFCFACEOUTERBOUND(#46,.T.);
#239=IFCFACEOUTERBOUND(#47,.T.);
#240=IFCFACEOUTERBOUND(#48,.T.);
#241=IFCFACEOUTERBOUND(#49,.T.);
#242=IFCFACEOUTERBOUND(#50,.T.);
#243=IFCFACEOUTERBOUND(#51,.T.);
#244=IFCFACEOUTERBOUND(#52,.T.);
#245=IFCFACEOUTERBOUND(#53,.T.);
#246=IFCFACEOUTERBOUND(#54,.T.);
#247=IFCFACEOUTERBOUND(#55,.T.);
#248=IFCFACEOUTERBOUND(#56,.T.);
#249=IFCFACEOUTERBOUND(#57,.T.);
#250=IFCFACEOUTERBOUND(#58,.T.);
#251=IFCFACEOUTERBOUND(#59,.T.);
#252=IFCFACEOUTERBOUND(#60,.T.);
#253=IFCFACEOUTERBOUND(#61,.T.);
#254=IFCFACEOUTERBOUND(#62,.T.);
#255=IFCFACEOUTERBOUND(#63,.T.);
#256=IFCFACEOUTERBOUND(#64,.T.);
#257=IFCFACEOUTERBOUND(#65,.T.);
#258=IFCFACEOUTERBOUND(#66,.T.);
#259=IFCFACEOUTERBOUND(#67,.T.);
#260=IFCFACEOUTERBOUND(#68,.T.);
#261=IFCFACEOUTERBOUND(#69,.T.);
#262=IFCFACEOUTERBOUND(#70,.T.);
#263=IFCFACEOUTERBOUND(#71,.T.);
#264=IFCFACEOUTERBOUND(#72,.T.);
#265=IFCFACEOUTERBOUND(#73,.T.);
#266=IFCFACEOUTERBOUND(#74,.T.);
#267=IFCFACEOUTERBOUND(#75,.T.);
#268=IFCFACEOUTERBOUND(#76,.T.);
#269=IFCFACEOUTERBOUND(#77,.T.);
#270=IFCFACEOUTERBOUND(#78,.T.);
#271=IFCFACEOUTERBOUND(#79,.T.);
#272=IFCFACEOUTERBOUND(#80,.T.);
#273=IFCFACEOUTERBOUND(#81,.T.);
#274=IFCFACEOUTERBOUND(#82,.T.);
#275=IFCFACEOUTERBOUND(#83,.T.);
#276=IFCFACEOUTERBOUND(#84,.T.);
#277=IFCFACEOUTERBOUND(#85,.T.);
#278=IFCFACEOUTERBOUND(#86,.T.);
#279=IFCFACEOUTERBOUND(#87,.T.);
#280=IFCFACEOUTERBOUND(#88,.T.);
#281=IFCFACEOUTERBOUND(#89,.T.);
#282=IFCFACEOUTERBOUND(#90,.T.);
#283=IFCFACEOUTERBOUND(#91,.T.);
#284=IFCFACEOUTERBOUND(#92,.T.);
#285=IFCFACEOUTERBOUND(#93,.T.);
#286=IFCFACEOUTERBOUND(#94,.T.);
#287=IFCFACEOUTERBOUND(#95,.T.);
#288=IFCFACEOUTERBOUND(#96,.T.);
#289=IFCFACEOUTERBOUND(#97,.T.);
#290=IFCFACEOUTERBOUND(#98,.T.);
#291=IFCFACEOUTERBOUND(#99,.T.);
#292=IFCFACEOUTERBOUND(#100,.T.);
#293=IFCFACEOUTERBOUND(#101,.T.);
#294=IFCFACEOUTERBOUND(#102,.T.);
#295=IFCFACEOUTERBOUND(#103,.T.);
#296=IFCFACEOUTERBOUND(#104,.T.);
#297=IFCFACEOUTERBOUND(#105,.T.);
#298=IFCFACEOUTERBOUND(#106,.T.);
#299=IFCFACEOUTERBOUND(#107,.T.);
#300=IFCFACEOUTERBOUND(#108,.T.);
#301=IFCFACEOUTERBOUND(#109,.T.);
#302=IFCFACEOUTERBOUND(#110,.T.);
#303=IFCFACEOUTERBOUND(#111,.T.);
#304=IFCFACEOUTERBOUND(#112,.T.);
#305=IFCFACEOUTERBOUND(#113,.T.);
#306=IFCFACEOUTERBOUND(#114,.T.);
#307=IFCFACEOUTERBOUND(#115,.T.);
#308=IFCFACEOUTERBOUND(#116,.T.);
#309=IFCFACEOUTERBOUND(#117,.T.);
#310=IFCFACEOUTERBOUND(#118,.T.);
#311=IFCFACEOUTERBOUND(#119,.T.);
#312=IFCFACEOUTERBOUND(#120,.T.);
#313=IFCFACEOUTERBOUND(#121,.T.);
#314=IFCFACEOUTERBOUND(#122,.T.);
#315=IFCFACEOUTERBOUND(#123,.T.);
#316=IFCFACEOUTERBOUND(#124,.T.);
#317=IFCFACEOUTERBOUND(#125,.T.);
#318=IFCFACEOUTERBOUND(#126,.T.);
#319=IFCFACEOUTERBOUND(#127,.T.);
#320=IFCFACEOUTERBOUND(#128,.T.);
#321=IFCFACEOUTERBOUND(#129,.T.);
#322=IFCFACEOUTERBOUND(#130,.T.);
#323=IFCFACEOUTERBOUND(#131,.T.);
#324=IFCFACEOUTERBOUND(#132,.T.);
#325=IFCFACEOUTERBOUND(#133,.T.);
#326=IFCFACEOUTERBOUND(#134,.T.);
#327=IFCFACEOUTERBOUND(#135,.T.);
#328=IFCFACEOUTERBOUND(#136,.T.);
#329=IFCFACEOUTERBOUND(#137,.T.);
#330=IFCFACEOUTERBOUND(#138,.T.);
#331=IFCFACEOUTERBOUND(#139,.T.);
#332=IFCFACEOUTERBOUND(#140,.T.);
#333=IFCFACEOUTERBOUND(#141,.T.);
#334=IFCFACEOUTERBOUND(#142,.T.);
#335=IFCFACEOUTERBOUND(#143,.T.);
#336=IFCFACEOUTERBOUND(#144,.T.);
#337=IFCFACEOUTERBOUND(#145,.T.);
#338=IFCFACEOUTERBOUND(#146,.T.);
#339=IFCFACEOUTERBOUND(#147,.T.);
#340=IFCFACEOUTERBOUND(#148,.T.);
#341=IFCFACEOUTERBOUND(#149,.T.);
#342=IFCFACEOUTERBOUND(#150,.T.);
#343=IFCFACEOUTERBOUND(#151,.T.);
#344=IFCFACEOUTERBOUND(#152,.T.);
#345=IFCFACEOUTERBOUND(#153,.T.);
#346=IFCFACEOUTERBOUND(#154,.T.);
#347=IFCFACEOUTERBOUND(#155,.T.);
#348=IFCFACEOUTERBOUND(#156,.T.);
#349=IFCFACEOUTERBOUND(#157,.T.);
#350=IFCFACEOUTERBOUND(#158,.T.);
#351=IFCFACEOUTERBOUND(#159,.T.);
#352=IFCFACEOUTERBOUND(#160,.T.);
#353=IFCFACEOUTERBOUND(#161,.T.);
#354=IFCFACEOUTERBOUND(#162,.T.);
#355=IFCFACEOUTERBOUND(#163,.T.);
#356=IFCFACEOUTERBOUND(#164,.T.);
#357=IFCFACEOUTERBOUND(#165,.T.);
#358=IFCFACEOUTERBOUND(#166,.T.);
#359=IFCFACEOUTERBOUND(#167,.T.);
#360=IFCFACEOUTERBOUND(#168,.T.);
#361=IFCFACEOUTERBOUND(#169,.T.);
#362=IFCFACEOUTERBOUND(#170,.T.);
#363=IFCFACEOUTERBOUND(#171,.T.);
#364=IFCFACEOUTERBOUND(#172,.T.);
#365=IFCFACEOUTERBOUND(#173,.T.);
#366=IFCFACEOUTERBOUND(#174,.T.);
#367=IFCFACEOUTERBOUND(#175,.T.);
#368=IFCFACEOUTERBOUND(#176,.T.);
#369=IFCFACEOUTERBOUND(#177,.T.);
#370=IFCFACEOUTERBOUND(#178,.T.);
#371=IFCFACEOUTERBOUND(#179,.T.);
#372=IFCFACEOUTERBOUND(#180,.T.);
#373=IFCFACEOUTERBOUND(#181,.T.);
#374=IFCFACEOUTERBOUND(#182,.T.);
#375=IFCFACEOUTERBOUND(#183,.T.);
#376=IFCFACEOUTERBOUND(#184,.T.);
#377=IFCFACEOUTERBOUND(#185,.T.);
#378=IFCFACEOUTERBOUND(#186,.T.);
#379=IFCFACEOUTERBOUND(#187,.T.);
#380=IFCFACEOUTERBOUND(#188,.T.);
#381=IFCFACEOUTERBOUND(#189,.T.);
#382=IFCFACEOUTERBOUND(#190,.T.);
#383=IFCFACEOUTERBOUND(#191,.T.);
#384=IFCFACEOUTERBOUND(#192,.T.);
#385=IFCFACEOUTERBOUND(#193,.T.);
#386=IFCFACEOUTERBOUND(#194,.T.);
#387=IFCFACEOUTERBOUND(#195,.T.);
#388=IFCFACEOUTERBOUND(#196,.T.);
#389=IFCFACEOUTERBOUND(#197,.T.);
#390=IFCFACEOUTERBOUND(#198,.T.);
#391=IFCFACEOUTERBOUND(#199,.T.);
#392=IFCFACEOUTERBOUND(#200,.T.);
#393=IFCFACEOUTERBOUND(#201,.T.);
#394=IFCFACEOUTERBOUND(#202,.T.);
#395=IFCFACEOUTERBOUND(#203,.T.);
#396=IFCFACEOUTERBOUND(#204,.T.);
#397=IFCFACEOUTERBOUND(#205,.T.);
#398=IFCFACEOUTERBOUND(#206,.T.);
#399=IFCFACEOUTERBOUND(#207,.T.);
#400=IFCFACEOUTERBOUND(#208,.T.);
#401=IFCFACEOUTERBOUND(#209,.T.);
#402=IFCFACEOUTERBOUND(#210,.T.);
#403=IFCFACEOUTERBOUND(#211,.T.);
#404=IFCFACEOUTERBOUND(#212,.T.);
#405=IFCFACEOUTERBOUND(#213,.T.);
#406=IFCFACEOUTERBOUND(#214,.T.);
#407=IFCFACEOUTERBOUND(#215,.T.);
#408=IFCFACEOUTERBOUND(#216,.T.);
#409=IFCFACEOUTERBOUND(#217,.T.);
#410=IFCFACE((#218));
#411=IFCFACE((#219));
#412=IFCFACE((#220));
#413=IFCFACE((#221));
#414=IFCFACE((#222));
#415=IFCFACE((#223));
#416=IFCFACE((#224));
#417=IFCFACE((#225));
#418=IFCFACE((#226));
#419=IFCFACE((#227));
#420=IFCFACE((#228));
#421=IFCFACE((#229));
#422=IFCFACE((#230));
#423=IFCFACE((#231));
#424=IFCFACE((#232));
#425=IFCFACE((#233));
#426=IFCFACE((#234));
#427=IFCFACE((#235));
#428=IFCFACE((#236));
#429=IFCFACE((#237));
#430=IFCFACE((#238));
#431=IFCFACE((#239));
#432=IFCFACE((#240));
#433=IFCFACE((#241));
#434=IFCFACE((#242));
#435=IFCFACE((#243));
#436=IFCFACE((#244));
#437=IFCFACE((#245));
#438=IFCFACE((#246));
#439=IFCFACE((#247));
#440=IFCFACE((#248));
#441=IFCFACE((#249));
#442=IFCFACE((#250));
#443=IFCFACE((#251));
#444=IFCFACE((#252));
#445=IFCFACE((#253));
#446=IFCFACE((#254));
#447=IFCFACE((#255));
#448=IFCFACE((#256));
#449=IFCFACE((#257));
#450=IFCFACE((#258));
#451=IFCFACE((#259));
#452=IFCFACE((#260));
#453=IFCFACE((#261));
#454=IFCFACE((#262));
#455=IFCFACE((#263));
#456=IFCFACE((#264));
#457=IFCFACE((#265));
#458=IFCFACE((#266));
#459=IFCFACE((#267));
#460=IFCFACE((#268));
#461=IFCFACE((#269));
#462=IFCFACE((#270));
#463=IFCFACE((#271));
#464=IFCFACE((#272));
#465=IFCFACE((#273));
#466=IFCFACE((#274));
#467=IFCFACE((#275));
#468=IFCFACE((#276));
#469=IFCFACE((#277));
#470=IFCFACE((#278));
#471=IFCFACE((#279));
#472=IFCFACE((#280));
#473=IFCFACE((#281));
#474=IFCFACE((#282));
#475=IFCFACE((#283));
#476=IFCFACE((#284));
#477=IFCFACE((#285));
#478=IFCFACE((#286));
#479=IFCFACE((#287));
#480=IFCFACE((#288));
#481=IFCFACE((#289));
#482=IFCFACE((#290));
#483=IFCFACE((#291));
#484=IFCFACE((#292));
#485=IFCFACE((#293));
#486=IFCFACE((#294));
#487=IFCFACE((#295));
#488=IFCFACE((#296));
#489=IFCFACE((#297));
#490=IFCFACE((#298));
#491=IFCFACE((#299));
#492=IFCFACE((#300));
#493=IFCFACE((#301));
#494=IFCFACE((#302));
#495=IFCFACE((#303));
#496=IFCFACE((#304));
#497=IFCFACE((#305));
#498=IFCFACE((#306));
#499=IFCFACE((#307));
#500=IFCFACE((#308));
#501=IFCFACE((#309));
#502=IFCFACE((#310));
#503=IFCFACE((#311));
#504=IFCFACE((#312));
#505=IFCFACE((#313));
#506=IFCFACE((#314));
#507=IFCFACE((#315));
#508=IFCFACE((#316));
#509=IFCFACE((#317));
#510=IFCFACE((#318));
#511=IFCFACE((#319));
#512=IFCFACE((#320));
#513=IFCFACE((#321));
#514=IFCFACE((#322));
#515=IFCFACE((#323));
#516=IFCFACE((#324));
#517=IFCFACE((#325));
#518=IFCFACE((#326));
#519=IFCFACE((#327));
#520=IFCFACE((#328));
#521=IFCFACE((#329));
#522=IFCFACE((#330));
#523=IFCFACE((#331));
#524=IFCFACE((#332));
#525=IFCFACE((#333));
#526=IFCFACE((#334));
#527=IFCFACE((#335));
#528=IFCFACE((#336));
#529=IFCFACE((#337));
#530=IFCFACE((#338));
#531=IFCFACE((#339));
#532=IFCFACE((#340));
#533=IFCFACE((#341));
#534=IFCFACE((#342));
#535=IFCFACE((#343));
#536=IFCFACE((#344));
#537=IFCFACE((#345));
#538=IFCFACE((#346));
#539=IFCFACE((#347));
#540=IFCFACE((#348));
#541=IFCFACE((#349));
#542=IFCFACE((#350));
#543=IFCFACE((#351));
#544=IFCFACE((#352));
#545=IFCFACE((#353));
#546=IFCFACE((#354));
#547=IFCFACE((#355));
#548=IFCFACE((#356));
#549=IFCFACE((#357));
#550=IFCFACE((#358));
#551=IFCFACE((#359));
#552=IFCFACE((#360));
#553=IFCFACE((#361));
#554=IFCFACE((#362));
#555=IFCFACE((#363));
#556=IFCFACE((#364));
#557=IFCFACE((#365));
#558=IFCFACE((#366));
#559=IFCFACE((#367));
#560=IFCFACE((#368));
#561=IFCFACE((#369));
#562=IFCFACE((#370));
#563=IFCFACE((#371));
#564=IFCFACE((#372));
#565=IFCFACE((#373));
#566=IFCFACE((#374));
#567=IFCFACE((#375));
#568=IFCFACE((#376));
#569=IFCFACE((#377));
#570=IFCFACE((#378));
#571=IFCFACE((#379));
#572=IFCFACE((#380));
#573=IFCFACE((#381));
#574=IFCFACE((#382));
#575=IFCFACE((#383));
#576=IFCFACE((#384));
#577=IFCFACE((#385));
#578=IFCFACE((#386));
#579=IFCFACE((#387));
#580=IFCFACE((#388));
#581=IFCFACE((#389));
#582=IFCFACE((#390));
#583=IFCFACE((#391));
#584=IFCFACE((#392));
#585=IFCFACE((#393));
#586=IFCFACE((#394));
#587=IFCFACE((#395));
#588=IFCFACE((#396));
#589=IFCFACE((#397));
#590=IFCFACE((#398));
#591=IFCFACE((#399));
#592=IFCFACE((#400));
#593=IFCFACE((#401));
#594=IFCFACE((#402));
#595=IFCFACE((#403));
#596=IFCFACE((#404));
#597=IFCFACE((#405));
#598=IFCFACE((#406));
#599=IFCFACE((#407));
#600=IFCFACE((#408));
#601=IFCFACE((#409));
#602=IFCCLOSEDSHELL((#410,#411,#412,#413,#414,#415,#416,#417,#418,#419,
#420,#421,#422,#423,#424,#425,#426,#427,#428,#429,#430,#431,#432,#433,#434,
#435,#436,#437,#438,#439,#440,#441,#442,#443,#444,#445,#446,#447,#448,#449,
#450,#451,#452,#453,#454,#455,#456,#457,#458,#459,#460,#461,#462,#463,#464,
#465,#466,#467,#468,#469,#470,#471,#472,#473,#474,#475,#476,#477,#478,#479,
#480,#481,#482,#483,#484,#485,#486,#487,#488,#489,#490,#491,#492,#493,#494,
#495,#496,#497,#498,#499,#500,#501,#502,#503,#504,#505,#506,#507,#508,#509,
#510,#511,#512,#513,#514,#515,#516,#517,#518,#519,#520,#521,#522,#523,#524,
#525,#526,#527,#528,#529,#530,#531,#532,#533,#534,#535,#536,#537,#538,#539,
#540,#541,#542,#543,#544,#545,#546,#547,#548,#549,#550,#551,#552,#553,#554,
#555,#556,#557,#558,#559,#560,#561,#562,#563,#564,#565,#566,#567,#568,#569,
#570,#571,#572,#573,#574,#575,#576,#577,#578,#579,#580,#581,#582,#583,#584,
#585,#586,#587,#588,#589,#590,#591,#592,#593,#594,#595,#596,#597,#598,#599,
#600,#601));
#603=IFCSTYLEDITEM(#608,(#604),'');
#604=IFCPRESENTATIONSTYLEASSIGNMENT((#605));
#605=IFCSURFACESTYLE('',.BOTH.,(#606));
#606=IFCSURFACESTYLERENDERING(#607,0.,$,$,$,$,$,$,.NOTDEFINED.);
#607=IFCCOLOURRGB('',0.5,0.5,0.5);
#608=IFCFACETEDBREP(#602);
#609=IFCPROJECT('07hUkdHgGydfWsFJH56q5B',#802,'Gray_4516546_JCA',' ',
' ',' ',' ',(#797),#610);
#610=IFCUNITASSIGNMENT((#798,#799,#800,#801));
#611=IFCGEOMETRICREPRESENTATIONSUBCONTEXT('Body','Model',*,*,*,*,#797,1.,
 .MODEL_VIEW.,$);
#612=IFCAXIS2PLACEMENT3D(#618,#614,#615);
#613=IFCAXIS2PLACEMENT3D(#796,#616,#617);
#614=IFCDIRECTION((0.,0.,1.));
#615=IFCDIRECTION((1.,0.,0.));
#616=IFCDIRECTION((0.,0.,1.));
#617=IFCDIRECTION((1.,0.,0.));
#618=IFCCARTESIANPOINT((0.,0.,0.));
#619=IFCCARTESIANPOINT((0.895418081857297,0.,2.18630892753907));
#620=IFCCARTESIANPOINT((0.895418081857297,16.,2.18630892753907));
#621=IFCCARTESIANPOINT((0.9,16.,2.15638586528478));
#622=IFCCARTESIANPOINT((0.9,0.,2.15638586528478));
#623=IFCCARTESIANPOINT((0.882092206906518,0.,2.2134898893568));
#624=IFCCARTESIANPOINT((0.882092206906518,16.,2.2134898893568));
#625=IFCCARTESIANPOINT((0.86124353651175,0.,2.23543793189619));
#626=IFCCARTESIANPOINT((0.86124353651175,16.,2.23543793189619));
#627=IFCCARTESIANPOINT((0.834782608695652,0.,2.25014177247108));
#628=IFCCARTESIANPOINT((0.834782608695652,16.,2.25014177247108));
#629=IFCCARTESIANPOINT((2.93915231795365E-16,0.,2.4));
#630=IFCCARTESIANPOINT((2.93915231795365E-16,16.,2.4));
#631=IFCCARTESIANPOINT((-0.834782608695652,0.,2.25014177247108));
#632=IFCCARTESIANPOINT((-0.834782608695652,16.,2.25014177247108));
#633=IFCCARTESIANPOINT((-0.86124353651175,0.,2.23543793189619));
#634=IFCCARTESIANPOINT((-0.86124353651175,16.,2.23543793189619));
#635=IFCCARTESIANPOINT((-0.882092206906518,0.,2.2134898893568));
#636=IFCCARTESIANPOINT((-0.882092206906518,16.,2.2134898893568));
#637=IFCCARTESIANPOINT((-0.895418081857297,0.,2.18630892753907));
#638=IFCCARTESIANPOINT((-0.895418081857297,16.,2.18630892753907));
#639=IFCCARTESIANPOINT((-0.9,0.,2.15638586528478));
#640=IFCCARTESIANPOINT((-0.9,16.,2.15638586528478));
#641=IFCCARTESIANPOINT((-0.9,0.,1.4));
#642=IFCCARTESIANPOINT((-0.9,16.,1.4));
#643=IFCCARTESIANPOINT((-0.938060233744357,0.,1.20865828381746));
#644=IFCCARTESIANPOINT((-0.938060233744357,16.,1.20865828381746));
#645=IFCCARTESIANPOINT((-1.04644660940673,0.,1.04644660940673));
#646=IFCCARTESIANPOINT((-1.04644660940673,16.,1.04644660940673));
#647=IFCCARTESIANPOINT((-1.20865828381746,0.,0.938060233744357));
#648=IFCCARTESIANPOINT((-1.20865828381746,16.,0.938060233744357));
#649=IFCCARTESIANPOINT((-1.4,0.,0.9));
#650=IFCCARTESIANPOINT((-1.4,16.,0.9));
#651=IFCCARTESIANPOINT((-2.15638586528478,0.,0.9));
#652=IFCCARTESIANPOINT((-2.15638586528478,16.,0.9));
#653=IFCCARTESIANPOINT((-2.18630892753907,0.,0.895418081857297));
#654=IFCCARTESIANPOINT((-2.18630892753907,16.,0.895418081857297));
#655=IFCCARTESIANPOINT((-2.2134898893568,0.,0.882092206906518));
#656=IFCCARTESIANPOINT((-2.2134898893568,16.,0.882092206906518));
#657=IFCCARTESIANPOINT((-2.23543793189619,0.,0.86124353651175));
#658=IFCCARTESIANPOINT((-2.23543793189619,16.,0.86124353651175));
#659=IFCCARTESIANPOINT((-2.25014177247108,0.,0.834782608695652));
#660=IFCCARTESIANPOINT((-2.25014177247108,16.,0.834782608695652));
#661=IFCCARTESIANPOINT((-2.4,0.,2.57250105497335E-15));
#662=IFCCARTESIANPOINT((-2.4,16.,2.57250105497335E-15));
#663=IFCCARTESIANPOINT((-2.25014177247108,0.,-0.834782608695652));
#664=IFCCARTESIANPOINT((-2.25014177247108,16.,-0.834782608695652));
#665=IFCCARTESIANPOINT((-2.23543793189619,0.,-0.86124353651175));
#666=IFCCARTESIANPOINT((-2.23543793189619,16.,-0.86124353651175));
#667=IFCCARTESIANPOINT((-2.2134898893568,0.,-0.882092206906518));
#668=IFCCARTESIANPOINT((-2.2134898893568,16.,-0.882092206906518));
#669=IFCCARTESIANPOINT((-2.18630892753907,0.,-0.895418081857297));
#670=IFCCARTESIANPOINT((-2.18630892753907,16.,-0.895418081857297));
#671=IFCCARTESIANPOINT((-2.15638586528478,0.,-0.9));
#672=IFCCARTESIANPOINT((-2.15638586528478,16.,-0.9));
#673=IFCCARTESIANPOINT((-1.4,0.,-0.9));
#674=IFCCARTESIANPOINT((-1.4,16.,-0.9));
#675=IFCCARTESIANPOINT((-1.20865828381746,0.,-0.938060233744357));
#676=IFCCARTESIANPOINT((-1.20865828381746,16.,-0.938060233744357));
#677=IFCCARTESIANPOINT((-1.04644660940673,0.,-1.04644660940673));
#678=IFCCARTESIANPOINT((-1.04644660940673,16.,-1.04644660940673));
#679=IFCCARTESIANPOINT((-0.938060233744357,0.,-1.20865828381746));
#680=IFCCARTESIANPOINT((-0.938060233744357,16.,-1.20865828381746));
#681=IFCCARTESIANPOINT((-0.9,0.,-1.4));
#682=IFCCARTESIANPOINT((-0.9,16.,-1.4));
#683=IFCCARTESIANPOINT((-0.9,0.,-2.15638586528478));
#684=IFCCARTESIANPOINT((-0.9,16.,-2.15638586528478));
#685=IFCCARTESIANPOINT((-0.895418081857297,0.,-2.18630892753907));
#686=IFCCARTESIANPOINT((-0.895418081857297,16.,-2.18630892753907));
#687=IFCCARTESIANPOINT((-0.882092206906518,0.,-2.2134898893568));
#688=IFCCARTESIANPOINT((-0.882092206906518,16.,-2.2134898893568));
#689=IFCCARTESIANPOINT((-0.86124353651175,0.,-2.23543793189619));
#690=IFCCARTESIANPOINT((-0.86124353651175,16.,-2.23543793189619));
#691=IFCCARTESIANPOINT((-0.834782608695652,0.,-2.25014177247108));
#692=IFCCARTESIANPOINT((-0.834782608695652,16.,-2.25014177247108));
#693=IFCCARTESIANPOINT((-5.87830463590729E-16,0.,-2.4));
#694=IFCCARTESIANPOINT((-5.87830463590729E-16,16.,-2.4));
#695=IFCCARTESIANPOINT((0.834782608695652,0.,-2.25014177247108));
#696=IFCCARTESIANPOINT((0.834782608695652,16.,-2.25014177247108));
#697=IFCCARTESIANPOINT((0.86124353651175,0.,-2.23543793189619));
#698=IFCCARTESIANPOINT((0.86124353651175,16.,-2.23543793189619));
#699=IFCCARTESIANPOINT((0.882092206906518,0.,-2.2134898893568));
#700=IFCCARTESIANPOINT((0.882092206906518,16.,-2.2134898893568));
#701=IFCCARTESIANPOINT((0.895418081857297,0.,-2.18630892753907));
#702=IFCCARTESIANPOINT((0.895418081857297,16.,-2.18630892753907));
#703=IFCCARTESIANPOINT((0.9,0.,-2.15638586528478));
#704=IFCCARTESIANPOINT((0.9,16.,-2.15638586528478));
#705=IFCCARTESIANPOINT((0.9,0.,-1.4));
#706=IFCCARTESIANPOINT((0.9,16.,-1.4));
#707=IFCCARTESIANPOINT((0.938060233744357,0.,-1.20865828381746));
#708=IFCCARTESIANPOINT((0.938060233744357,16.,-1.20865828381746));
#709=IFCCARTESIANPOINT((1.04644660940673,0.,-1.04644660940673));
#710=IFCCARTESIANPOINT((1.04644660940673,16.,-1.04644660940673));
#711=IFCCARTESIANPOINT((1.20865828381746,0.,-0.938060233744357));
#712=IFCCARTESIANPOINT((1.20865828381746,16.,-0.938060233744357));
#713=IFCCARTESIANPOINT((1.4,0.,-0.9));
#714=IFCCARTESIANPOINT((1.4,16.,-0.9));
#715=IFCCARTESIANPOINT((2.15638586528478,0.,-0.9));
#716=IFCCARTESIANPOINT((2.15638586528478,16.,-0.9));
#717=IFCCARTESIANPOINT((2.18630892753907,0.,-0.895418081857298));
#718=IFCCARTESIANPOINT((2.18630892753907,16.,-0.895418081857298));
#719=IFCCARTESIANPOINT((2.2134898893568,0.,-0.882092206906518));
#720=IFCCARTESIANPOINT((2.2134898893568,16.,-0.882092206906518));
#721=IFCCARTESIANPOINT((2.23543793189619,0.,-0.86124353651175));
#722=IFCCARTESIANPOINT((2.23543793189619,16.,-0.86124353651175));
#723=IFCCARTESIANPOINT((2.25014177247108,0.,-0.834782608695652));
#724=IFCCARTESIANPOINT((2.25014177247108,16.,-0.834782608695652));
#725=IFCCARTESIANPOINT((0.9,16.,1.4));
#726=IFCCARTESIANPOINT((0.9,0.,1.4));
#727=IFCCARTESIANPOINT((1.20865828381746,0.,0.938060233744357));
#728=IFCCARTESIANPOINT((1.20865828381746,16.,0.938060233744357));
#729=IFCCARTESIANPOINT((1.4,16.,0.9));
#730=IFCCARTESIANPOINT((1.4,0.,0.9));
#731=IFCCARTESIANPOINT((1.04644660940673,0.,1.04644660940673));
#732=IFCCARTESIANPOINT((1.04644660940673,16.,1.04644660940673));
#733=IFCCARTESIANPOINT((0.938060233744357,0.,1.20865828381746));
#734=IFCCARTESIANPOINT((0.938060233744357,16.,1.20865828381746));
#735=IFCCARTESIANPOINT((2.15638586528478,16.,0.9));
#736=IFCCARTESIANPOINT((2.15638586528478,0.,0.9));
#737=IFCCARTESIANPOINT((2.23543793189619,0.,0.86124353651175));
#738=IFCCARTESIANPOINT((2.23543793189619,16.,0.86124353651175));
#739=IFCCARTESIANPOINT((2.25014177247108,16.,0.834782608695652));
#740=IFCCARTESIANPOINT((2.25014177247108,0.,0.834782608695652));
#741=IFCCARTESIANPOINT((2.2134898893568,0.,0.882092206906518));
#742=IFCCARTESIANPOINT((2.2134898893568,16.,0.882092206906518));
#743=IFCCARTESIANPOINT((2.18630892753907,0.,0.895418081857297));
#744=IFCCARTESIANPOINT((2.18630892753907,16.,0.895418081857297));
#745=IFCCARTESIANPOINT((2.4,0.,-1.46957615897682E-16));
#746=IFCCARTESIANPOINT((2.4,16.,-1.46957615897682E-16));
#747=IFCCARTESIANPOINT((2.40285088177294,0.,1.89364465959652));
#748=IFCCARTESIANPOINT((-1.89364465959652,0.,2.40285088177294));
#749=IFCCARTESIANPOINT((1.89364465959652,0.,2.40285088177294));
#750=IFCCARTESIANPOINT((1.89364465959652,0.,-2.40285088177294));
#751=IFCCARTESIANPOINT((-2.40285088177294,0.,-1.89364465959652));
#752=IFCCARTESIANPOINT((-2.40285088177294,0.,1.89364465959652));
#753=IFCCARTESIANPOINT((3.24327199048154,0.,1.56242977306435));
#754=IFCCARTESIANPOINT((-1.56242977306435,0.,3.24327199048154));
#755=IFCCARTESIANPOINT((3.55976624920934,0.,0.536716173587152));
#756=IFCCARTESIANPOINT((-3.24327199048154,0.,-1.56242977306435));
#757=IFCCARTESIANPOINT((-0.53671617358715,0.,3.55976624920935));
#758=IFCCARTESIANPOINT((-3.55976624920935,0.,-0.536716173587148));
#759=IFCCARTESIANPOINT((2.40285088177294,0.,-1.89364465959652));
#760=IFCCARTESIANPOINT((3.24327199048154,0.,-1.56242977306435));
#761=IFCCARTESIANPOINT((3.55976624920935,0.,-0.536716173587151));
#762=IFCCARTESIANPOINT((1.56242977306435,0.,-3.24327199048154));
#763=IFCCARTESIANPOINT((-1.89364465959652,0.,-2.40285088177294));
#764=IFCCARTESIANPOINT((-1.56242977306435,0.,-3.24327199048154));
#765=IFCCARTESIANPOINT((1.56242977306435,0.,3.24327199048154));
#766=IFCCARTESIANPOINT((0.536716173587152,0.,3.55976624920934));
#767=IFCCARTESIANPOINT((-3.24327199048154,0.,1.56242977306435));
#768=IFCCARTESIANPOINT((-3.55976624920934,0.,0.536716173587155));
#769=IFCCARTESIANPOINT((-0.536716173587153,0.,-3.55976624920934));
#770=IFCCARTESIANPOINT((0.536716173587151,0.,-3.55976624920935));
#771=IFCCARTESIANPOINT((1.89364465959652,16.,-2.40285088177294));
#772=IFCCARTESIANPOINT((2.40285088177294,16.,-1.89364465959652));
#773=IFCCARTESIANPOINT((-3.24327199048154,16.,1.56242977306435));
#774=IFCCARTESIANPOINT((-1.56242977306435,16.,-3.24327199048154));
#775=IFCCARTESIANPOINT((3.24327199048154,16.,-1.56242977306435));
#776=IFCCARTESIANPOINT((-1.89364465959652,16.,2.40285088177294));
#777=IFCCARTESIANPOINT((-2.40285088177294,16.,1.89364465959652));
#778=IFCCARTESIANPOINT((-2.40285088177294,16.,-1.89364465959652));
#779=IFCCARTESIANPOINT((-1.89364465959652,16.,-2.40285088177294));
#780=IFCCARTESIANPOINT((3.55976624920935,16.,-0.536716173587151));
#781=IFCCARTESIANPOINT((2.40285088177294,16.,1.89364465959652));
#782=IFCCARTESIANPOINT((1.89364465959652,16.,2.40285088177294));
#783=IFCCARTESIANPOINT((-1.56242977306435,16.,3.24327199048154));
#784=IFCCARTESIANPOINT((-3.55976624920934,16.,0.536716173587155));
#785=IFCCARTESIANPOINT((-0.536716173587153,16.,-3.55976624920934));
#786=IFCCARTESIANPOINT((3.24327199048154,16.,1.56242977306435));
#787=IFCCARTESIANPOINT((3.55976624920934,16.,0.536716173587152));
#788=IFCCARTESIANPOINT((1.56242977306435,16.,3.24327199048154));
#789=IFCCARTESIANPOINT((-0.53671617358715,16.,3.55976624920935));
#790=IFCCARTESIANPOINT((-3.24327199048154,16.,-1.56242977306435));
#791=IFCCARTESIANPOINT((-3.55976624920935,16.,-0.536716173587148));
#792=IFCCARTESIANPOINT((0.536716173587152,16.,3.55976624920934));
#793=IFCCARTESIANPOINT((1.56242977306435,16.,-3.24327199048154));
#794=IFCCARTESIANPOINT((0.536716173587151,16.,-3.55976624920935));
#795=IFCCARTESIANPOINT((0.,0.,0.));
#796=IFCCARTESIANPOINT((0.,0.,0.));
#797=IFCGEOMETRICREPRESENTATIONCONTEXT($,'Model',3,0.005,#612,$);
#798=IFCSIUNIT(*,.LENGTHUNIT.,.MILLI.,.METRE.);
#799=IFCSIUNIT(*,.AREAUNIT.,$,.SQUARE_METRE.);
#800=IFCSIUNIT(*,.VOLUMEUNIT.,$,.CUBIC_METRE.);
#801=IFCSIUNIT(*,.PLANEANGLEUNIT.,$,.RADIAN.);
#802=IFCOWNERHISTORY(#804,#803,$,.NOCHANGE.,0,$,$,0);
#803=IFCAPPLICATION(#805,' ',' ',' ');
#804=IFCPERSONANDORGANIZATION(#806,#805,$);
#805=IFCORGANIZATION($,' ',$,$,$);
#806=IFCPERSON(' ',' ',' ',$,$,$,$,$);
ENDSEC;
END-ISO-10303-21;
