ISO-10303-21;
HEADER;
/* Generated by software containing ST-Developer
 * from STEP Tools, Inc. (www.steptools.com) 
 */
/* OPTION: strings as raw bytes, not using required /X/ escapes */

FILE_DESCRIPTION(
/* description */ ('Unknown'),
/* implementation_level */ '2;1');

FILE_NAME(
/* name */ 'Gray_4638507_a)_AVV',
/* time_stamp */ '2025-07-22T00:01:17+02:00',
/* author */ ('Unknown'),
/* organization */ ('Unknown'),
/* preprocessor_version */ 'ST-DEVELOPER v19.4',
/* originating_system */ 'Unknown',
/* authorisation */ 'OpenTools');

FILE_SCHEMA (('IFC2X3'));
ENDSEC;

DATA;
#10=IFCPROPERTYSINGLEVALUE('ProjectName',$,IFCTEXT(''),$);
#11=IFCPROPERTYSINGLEVALUE('PartNumber',$,IFCTEXT(''),$);
#12=IFCRELDEFINESBYPROPERTIES('3cRq1JQpSwDOm5lsE5cG83',#2042,$,$,(#14),
#13);
#13=IFCPROPERTYSET('1jOd4kXgWorA4TVRi95rqH',#2042,
'empty property set name',$,(#10,#11));
#14=IFCBUILDINGELEMENTPROXY('2GP_XOK7Wq1Pa1NGQTVWHM',#2042,
'Gray_4638507_a)_AVV',' ','Gray_4638507_a)_AVV',#19,#15,' ',.ELEMENT.);
#15=IFCPRODUCTDEFINITIONSHAPE(' ',' ',(#25));
#16=IFCRELCONTAINEDINSPATIALSTRUCTURE('3HZhfx2I0vj9Cvp1GHER_f',#2042,
' ',' ',(#14),#20);
#17=IFCRELAGGREGATES('1jF0XzMGqvEA6wZwPLSawz',#2042,$,$,#1569,(#20));
#18=IFCLOCALPLACEMENT($,#1572);
#19=IFCLOCALPLACEMENT(#18,#1573);
#20=IFCBUILDING('3G2N19bOG__grq1LV0cQPU',#2042,'Default Building',$,$,#18,
$,$,.ELEMENT.,0.,0.,$);
#21=IFCCARTESIANTRANSFORMATIONOPERATOR3D($,$,#2035,1.,$);
#22=IFCMAPPEDITEM(#23,#21);
#23=IFCREPRESENTATIONMAP(#1572,#24);
#24=IFCSHAPEREPRESENTATION(#1571,'Body','Brep',(#1568));
#25=IFCSHAPEREPRESENTATION(#1571,'Body','MappedRepresentation',(#22));
#26=IFCPOLYLOOP((#1579,#1580,#1581,#1582));
#27=IFCPOLYLOOP((#1583,#1584,#1585,#1586));
#28=IFCPOLYLOOP((#1587,#1588,#1589,#1590));
#29=IFCPOLYLOOP((#1582,#1591,#1592,#1579));
#30=IFCPOLYLOOP((#1584,#1593,#1594,#1585));
#31=IFCPOLYLOOP((#1595,#1596,#1597,#1598));
#32=IFCPOLYLOOP((#1599,#1600,#1601,#1602));
#33=IFCPOLYLOOP((#1588,#1603,#1604,#1589));
#34=IFCPOLYLOOP((#1605,#1606,#1607,#1608));
#35=IFCPOLYLOOP((#1586,#1581,#1580,#1583));
#36=IFCPOLYLOOP((#1602,#1597,#1596,#1599));
#37=IFCPOLYLOOP((#1608,#1604,#1603,#1605));
#38=IFCPOLYLOOP((#1598,#1594,#1593,#1595));
#39=IFCPOLYLOOP((#1606,#1609,#1610,#1607));
#40=IFCPOLYLOOP((#1590,#1601,#1600,#1587));
#41=IFCPOLYLOOP((#1591,#1610,#1609,#1592));
#42=IFCPOLYLOOP((#1591,#1611,#1612,#1610));
#43=IFCPOLYLOOP((#1582,#1613,#1611,#1591));
#44=IFCPOLYLOOP((#1581,#1614,#1613,#1582));
#45=IFCPOLYLOOP((#1586,#1615,#1614,#1581));
#46=IFCPOLYLOOP((#1585,#1616,#1615,#1586));
#47=IFCPOLYLOOP((#1594,#1617,#1616,#1585));
#48=IFCPOLYLOOP((#1598,#1618,#1617,#1594));
#49=IFCPOLYLOOP((#1597,#1619,#1618,#1598));
#50=IFCPOLYLOOP((#1602,#1620,#1619,#1597));
#51=IFCPOLYLOOP((#1601,#1621,#1620,#1602));
#52=IFCPOLYLOOP((#1590,#1622,#1621,#1601));
#53=IFCPOLYLOOP((#1589,#1623,#1622,#1590));
#54=IFCPOLYLOOP((#1604,#1624,#1623,#1589));
#55=IFCPOLYLOOP((#1608,#1625,#1624,#1604));
#56=IFCPOLYLOOP((#1607,#1626,#1625,#1608));
#57=IFCPOLYLOOP((#1610,#1612,#1626,#1607));
#58=IFCPOLYLOOP((#1627,#1626,#1612));
#59=IFCPOLYLOOP((#1627,#1625,#1626));
#60=IFCPOLYLOOP((#1628,#1629,#1623,#1624));
#61=IFCPOLYLOOP((#1624,#1625,#1627,#1628));
#62=IFCPOLYLOOP((#1630,#1631,#1614,#1615));
#63=IFCPOLYLOOP((#1629,#1632,#1633,#1622,#1623));
#64=IFCPOLYLOOP((#1634,#1635,#1617,#1618));
#65=IFCPOLYLOOP((#1615,#1616,#1636,#1637,#1630));
#66=IFCPOLYLOOP((#1633,#1638,#1621,#1622));
#67=IFCPOLYLOOP((#1616,#1617,#1635,#1636));
#68=IFCPOLYLOOP((#1639,#1611,#1613));
#69=IFCPOLYLOOP((#1638,#1640,#1620,#1621));
#70=IFCPOLYLOOP((#1613,#1614,#1631,#1639));
#71=IFCPOLYLOOP((#1640,#1634,#1619,#1620));
#72=IFCPOLYLOOP((#1612,#1611,#1639,#1627));
#73=IFCPOLYLOOP((#1618,#1619,#1634));
#74=IFCPOLYLOOP((#1641,#1628,#1627,#1642));
#75=IFCPOLYLOOP((#1643,#1629,#1628,#1641));
#76=IFCPOLYLOOP((#1644,#1632,#1629,#1643));
#77=IFCPOLYLOOP((#1645,#1633,#1632,#1644));
#78=IFCPOLYLOOP((#1646,#1638,#1633,#1645));
#79=IFCPOLYLOOP((#1639,#1647,#1642,#1627));
#80=IFCPOLYLOOP((#1648,#1636,#1635,#1649));
#81=IFCPOLYLOOP((#1650,#1637,#1636,#1648));
#82=IFCPOLYLOOP((#1651,#1630,#1637,#1650));
#83=IFCPOLYLOOP((#1652,#1631,#1630,#1651));
#84=IFCPOLYLOOP((#1647,#1639,#1631,#1652));
#85=IFCPOLYLOOP((#1653,#1654,#1650,#1648));
#86=IFCPOLYLOOP((#1654,#1651,#1650));
#87=IFCPOLYLOOP((#1655,#1644,#1643));
#88=IFCPOLYLOOP((#1656,#1657,#1646,#1645));
#89=IFCPOLYLOOP((#1654,#1658,#1652,#1651));
#90=IFCPOLYLOOP((#1645,#1644,#1655,#1656));
#91=IFCPOLYLOOP((#1658,#1659,#1647,#1652));
#92=IFCPOLYLOOP((#1643,#1641,#1660,#1655));
#93=IFCPOLYLOOP((#1659,#1661,#1662,#1663,#1664,#1642,#1647));
#94=IFCPOLYLOOP((#1657,#1665,#1666,#1667,#1668,#1649,#1646));
#95=IFCPOLYLOOP((#1641,#1642,#1664,#1660));
#96=IFCPOLYLOOP((#1648,#1649,#1668,#1653));
#97=IFCPOLYLOOP((#1646,#1649,#1669,#1670));
#98=IFCPOLYLOOP((#1649,#1635,#1634,#1669));
#99=IFCPOLYLOOP((#1670,#1640,#1638,#1646));
#100=IFCPOLYLOOP((#1671,#1672,#1670,#1669));
#101=IFCPOLYLOOP((#1673,#1674,#1672,#1671));
#102=IFCPOLYLOOP((#1675,#1676,#1674,#1673));
#103=IFCPOLYLOOP((#1677,#1678,#1676,#1675));
#104=IFCPOLYLOOP((#1679,#1680,#1678,#1677));
#105=IFCPOLYLOOP((#1681,#1682,#1680,#1679));
#106=IFCPOLYLOOP((#1683,#1684,#1682,#1681));
#107=IFCPOLYLOOP((#1685,#1686,#1684,#1683));
#108=IFCPOLYLOOP((#1640,#1687,#1688,#1634));
#109=IFCPOLYLOOP((#1689,#1690,#1691,#1692));
#110=IFCPOLYLOOP((#1693,#1694,#1690,#1689));
#111=IFCPOLYLOOP((#1695,#1696,#1694,#1693));
#112=IFCPOLYLOOP((#1697,#1698,#1696,#1695));
#113=IFCPOLYLOOP((#1699,#1700,#1698,#1697));
#114=IFCPOLYLOOP((#1701,#1702,#1700,#1699));
#115=IFCPOLYLOOP((#1703,#1704,#1702,#1701));
#116=IFCPOLYLOOP((#1688,#1687,#1704,#1703));
#117=IFCPOLYLOOP((#1692,#1691,#1686,#1685));
#118=IFCPOLYLOOP((#1596,#1595,#1705));
#119=IFCPOLYLOOP((#1595,#1706,#1707,#1705));
#120=IFCPOLYLOOP((#1596,#1708,#1709));
#121=IFCPOLYLOOP((#1709,#1599,#1596));
#122=IFCPOLYLOOP((#1710,#1711,#1712));
#123=IFCPOLYLOOP((#1588,#1587,#1713));
#124=IFCPOLYLOOP((#1587,#1714,#1713));
#125=IFCPOLYLOOP((#1587,#1715,#1714));
#126=IFCPOLYLOOP((#1588,#1716,#1717));
#127=IFCPOLYLOOP((#1717,#1603,#1588));
#128=IFCPOLYLOOP((#1717,#1718,#1603));
#129=IFCPOLYLOOP((#1719,#1606,#1605,#1720));
#130=IFCPOLYLOOP((#1609,#1606,#1721));
#131=IFCPOLYLOOP((#1606,#1719,#1722,#1721));
#132=IFCPOLYLOOP((#1609,#1723,#1724));
#133=IFCPOLYLOOP((#1724,#1592,#1609));
#134=IFCPOLYLOOP((#1725,#1726,#1727));
#135=IFCPOLYLOOP((#1583,#1580,#1728));
#136=IFCPOLYLOOP((#1580,#1729,#1728));
#137=IFCPOLYLOOP((#1580,#1730,#1729));
#138=IFCPOLYLOOP((#1583,#1731,#1732));
#139=IFCPOLYLOOP((#1732,#1584,#1583));
#140=IFCPOLYLOOP((#1732,#1733,#1584));
#141=IFCPOLYLOOP((#1706,#1595,#1593,#1734));
#142=IFCPOLYLOOP((#1734,#1735,#1706));
#143=IFCPOLYLOOP((#1734,#1593,#1584,#1736));
#144=IFCPOLYLOOP((#1733,#1736,#1584));
#145=IFCPOLYLOOP((#1728,#1731,#1583));
#146=IFCPOLYLOOP((#1730,#1580,#1579,#1727));
#147=IFCPOLYLOOP((#1727,#1579,#1592,#1725));
#148=IFCPOLYLOOP((#1724,#1737,#1725,#1592));
#149=IFCPOLYLOOP((#1721,#1723,#1609));
#150=IFCPOLYLOOP((#1720,#1738,#1719));
#151=IFCPOLYLOOP((#1720,#1605,#1603,#1739));
#152=IFCPOLYLOOP((#1718,#1739,#1603));
#153=IFCPOLYLOOP((#1713,#1716,#1588));
#154=IFCPOLYLOOP((#1715,#1587,#1600,#1712));
#155=IFCPOLYLOOP((#1712,#1600,#1599,#1710));
#156=IFCPOLYLOOP((#1709,#1740,#1710,#1599));
#157=IFCPOLYLOOP((#1705,#1708,#1596));
#158=IFCPOLYLOOP((#1741,#1742,#1743,#1731,#1728));
#159=IFCPOLYLOOP((#1744,#1745,#1733,#1732));
#160=IFCPOLYLOOP((#1732,#1731,#1743,#1746,#1744));
#161=IFCPOLYLOOP((#1728,#1729,#1747,#1741));
#162=IFCPOLYLOOP((#1748,#1747,#1730,#1727));
#163=IFCPOLYLOOP((#1745,#1736,#1733));
#164=IFCPOLYLOOP((#1729,#1730,#1747));
#165=IFCPOLYLOOP((#1749,#1750,#1735,#1734));
#166=IFCPOLYLOOP((#1734,#1736,#1745,#1749));
#167=IFCPOLYLOOP((#1727,#1726,#1751,#1748));
#168=IFCPOLYLOOP((#1752,#1753,#1754,#1716,#1713));
#169=IFCPOLYLOOP((#1755,#1756,#1718,#1717));
#170=IFCPOLYLOOP((#1717,#1716,#1754,#1757,#1755));
#171=IFCPOLYLOOP((#1713,#1714,#1758,#1752));
#172=IFCPOLYLOOP((#1759,#1758,#1715,#1712));
#173=IFCPOLYLOOP((#1756,#1739,#1718));
#174=IFCPOLYLOOP((#1714,#1715,#1758));
#175=IFCPOLYLOOP((#1760,#1761,#1738,#1720));
#176=IFCPOLYLOOP((#1720,#1739,#1756,#1760));
#177=IFCPOLYLOOP((#1712,#1711,#1762,#1759));
#178=IFCPOLYLOOP((#1763,#1764,#1724,#1723));
#179=IFCPOLYLOOP((#1723,#1721,#1765,#1763));
#180=IFCPOLYLOOP((#1766,#1767,#1709,#1708));
#181=IFCPOLYLOOP((#1708,#1705,#1768,#1766));
#182=IFCPOLYLOOP((#1769,#1770,#1771));
#183=IFCPOLYLOOP((#1769,#1772,#1770));
#184=IFCPOLYLOOP((#1772,#1762,#1711,#1710));
#185=IFCPOLYLOOP((#1773,#1771,#1707,#1706));
#186=IFCPOLYLOOP((#1710,#1740,#1770,#1772));
#187=IFCPOLYLOOP((#1771,#1773,#1769));
#188=IFCPOLYLOOP((#1706,#1735,#1750,#1773));
#189=IFCPOLYLOOP((#1774,#1775,#1776));
#190=IFCPOLYLOOP((#1777,#1776,#1722,#1719));
#191=IFCPOLYLOOP((#1774,#1778,#1775));
#192=IFCPOLYLOOP((#1776,#1777,#1774));
#193=IFCPOLYLOOP((#1778,#1751,#1726,#1725));
#194=IFCPOLYLOOP((#1725,#1737,#1775,#1778));
#195=IFCPOLYLOOP((#1719,#1738,#1761,#1777));
#196=IFCPOLYLOOP((#1721,#1722,#1776,#1779));
#197=IFCPOLYLOOP((#1779,#1780,#1765,#1721));
#198=IFCPOLYLOOP((#1724,#1764,#1781,#1782));
#199=IFCPOLYLOOP((#1782,#1775,#1737,#1724));
#200=IFCPOLYLOOP((#1779,#1782,#1781,#1783,#1780));
#201=IFCPOLYLOOP((#1782,#1779,#1776,#1775));
#202=IFCPOLYLOOP((#1666,#1665,#1767));
#203=IFCPOLYLOOP((#1665,#1772,#1784,#1767));
#204=IFCPOLYLOOP((#1769,#1785,#1784));
#205=IFCPOLYLOOP((#1784,#1772,#1769));
#206=IFCPOLYLOOP((#1769,#1773,#1786));
#207=IFCPOLYLOOP((#1773,#1667,#1768,#1786));
#208=IFCPOLYLOOP((#1666,#1766,#1768));
#209=IFCPOLYLOOP((#1768,#1667,#1666));
#210=IFCPOLYLOOP((#1662,#1661,#1764));
#211=IFCPOLYLOOP((#1661,#1778,#1781,#1764));
#212=IFCPOLYLOOP((#1774,#1783,#1781));
#213=IFCPOLYLOOP((#1781,#1778,#1774));
#214=IFCPOLYLOOP((#1774,#1777,#1780));
#215=IFCPOLYLOOP((#1662,#1763,#1765));
#216=IFCPOLYLOOP((#1765,#1663,#1662));
#217=IFCPOLYLOOP((#1765,#1780,#1777,#1663));
#218=IFCPOLYLOOP((#1773,#1750,#1749));
#219=IFCPOLYLOOP((#1654,#1653,#1746));
#220=IFCPOLYLOOP((#1653,#1744,#1746));
#221=IFCPOLYLOOP((#1653,#1745,#1744));
#222=IFCPOLYLOOP((#1654,#1743,#1742));
#223=IFCPOLYLOOP((#1742,#1658,#1654));
#224=IFCPOLYLOOP((#1742,#1741,#1658));
#225=IFCPOLYLOOP((#1778,#1661,#1659,#1748));
#226=IFCPOLYLOOP((#1777,#1761,#1760));
#227=IFCPOLYLOOP((#1655,#1660,#1757));
#228=IFCPOLYLOOP((#1660,#1755,#1757));
#229=IFCPOLYLOOP((#1660,#1756,#1755));
#230=IFCPOLYLOOP((#1655,#1754,#1753));
#231=IFCPOLYLOOP((#1753,#1656,#1655));
#232=IFCPOLYLOOP((#1753,#1752,#1656));
#233=IFCPOLYLOOP((#1772,#1665,#1657,#1759));
#234=IFCPOLYLOOP((#1759,#1762,#1772));
#235=IFCPOLYLOOP((#1759,#1657,#1656,#1758));
#236=IFCPOLYLOOP((#1752,#1758,#1656));
#237=IFCPOLYLOOP((#1757,#1754,#1655));
#238=IFCPOLYLOOP((#1756,#1660,#1664,#1760));
#239=IFCPOLYLOOP((#1760,#1664,#1663,#1777));
#240=IFCPOLYLOOP((#1748,#1751,#1778));
#241=IFCPOLYLOOP((#1748,#1659,#1658,#1747));
#242=IFCPOLYLOOP((#1741,#1747,#1658));
#243=IFCPOLYLOOP((#1746,#1743,#1654));
#244=IFCPOLYLOOP((#1745,#1653,#1668,#1749));
#245=IFCPOLYLOOP((#1749,#1668,#1667,#1773));
#246=IFCPOLYLOOP((#1780,#1783,#1774));
#247=IFCPOLYLOOP((#1764,#1763,#1662));
#248=IFCPOLYLOOP((#1786,#1785,#1769));
#249=IFCPOLYLOOP((#1767,#1766,#1666));
#250=IFCPOLYLOOP((#1705,#1707,#1771,#1787));
#251=IFCPOLYLOOP((#1787,#1786,#1768,#1705));
#252=IFCPOLYLOOP((#1709,#1767,#1784,#1788));
#253=IFCPOLYLOOP((#1788,#1770,#1740,#1709));
#254=IFCPOLYLOOP((#1771,#1770,#1788,#1787));
#255=IFCPOLYLOOP((#1784,#1785,#1786,#1787,#1788));
#256=IFCPOLYLOOP((#1681,#1789,#1790,#1791,#1792,#1793,#1794,#1795));
#257=IFCPOLYLOOP((#1673,#1796,#1797,#1798,#1799,#1800,#1801,#1802));
#258=IFCPOLYLOOP((#1681,#1803,#1789));
#259=IFCPOLYLOOP((#1673,#1804,#1805));
#260=IFCPOLYLOOP((#1673,#1806,#1796));
#261=IFCPOLYLOOP((#1807,#1808,#1809));
#262=IFCPOLYLOOP((#1681,#1810,#1811));
#263=IFCPOLYLOOP((#1681,#1812,#1803));
#264=IFCPOLYLOOP((#1802,#1804,#1673));
#265=IFCPOLYLOOP((#1673,#1671,#1813,#1814));
#266=IFCPOLYLOOP((#1815,#1685,#1816,#1817));
#267=IFCPOLYLOOP((#1807,#1818,#1808));
#268=IFCPOLYLOOP((#1819,#1820,#1821));
#269=IFCPOLYLOOP((#1819,#1822,#1823));
#270=IFCPOLYLOOP((#1795,#1810,#1681));
#271=IFCPOLYLOOP((#1814,#1806,#1673));
#272=IFCPOLYLOOP((#1689,#1692,#1824,#1825));
#273=IFCPOLYLOOP((#1817,#1826,#1815));
#274=IFCPOLYLOOP((#1807,#1826,#1818));
#275=IFCPOLYLOOP((#1827,#1809,#1828));
#276=IFCPOLYLOOP((#1823,#1820,#1819));
#277=IFCPOLYLOOP((#1829,#1816,#1830,#1831));
#278=IFCPOLYLOOP((#1811,#1832,#1683,#1681));
#279=IFCPOLYLOOP((#1679,#1833,#1834));
#280=IFCPOLYLOOP((#1671,#1835,#1813));
#281=IFCPOLYLOOP((#1836,#1837,#1838,#1839,#1840,#1841,#1842,#1843));
#282=IFCPOLYLOOP((#1699,#1697,#1844,#1845));
#283=IFCPOLYLOOP((#1825,#1846,#1693,#1689));
#284=IFCPOLYLOOP((#1826,#1807,#1815));
#285=IFCPOLYLOOP((#1828,#1847,#1848,#1849,#1827));
#286=IFCPOLYLOOP((#1821,#1850,#1634,#1819));
#287=IFCPOLYLOOP((#1851,#1822,#1819,#1852));
#288=IFCPOLYLOOP((#1816,#1853,#1830));
#289=IFCPOLYLOOP((#1816,#1854,#1855));
#290=IFCPOLYLOOP((#1834,#1812,#1681,#1679));
#291=IFCPOLYLOOP((#1805,#1856,#1675,#1673));
#292=IFCPOLYLOOP((#1857,#1858,#1859));
#293=IFCPOLYLOOP((#1843,#1860,#1857,#1836));
#294=IFCPOLYLOOP((#1697,#1695,#1861,#1844));
#295=IFCPOLYLOOP((#1815,#1824,#1692,#1685));
#296=IFCPOLYLOOP((#1848,#1852,#1849));
#297=IFCPOLYLOOP((#1852,#1848,#1862,#1851));
#298=IFCPOLYLOOP((#1855,#1853,#1816));
#299=IFCPOLYLOOP((#1832,#1863,#1683));
#300=IFCPOLYLOOP((#1856,#1864,#1675));
#301=IFCPOLYLOOP((#1860,#1858,#1857));
#302=IFCPOLYLOOP((#1703,#1701,#1865,#1866));
#303=IFCPOLYLOOP((#1846,#1861,#1695,#1693));
#304=IFCPOLYLOOP((#1850,#1867,#1634));
#305=IFCPOLYLOOP((#1634,#1688,#1868,#1869));
#306=IFCPOLYLOOP((#1816,#1685,#1870,#1854));
#307=IFCPOLYLOOP((#1679,#1677,#1871,#1833));
#308=IFCPOLYLOOP((#1671,#1669,#1872,#1835));
#309=IFCPOLYLOOP((#1859,#1873,#1857));
#310=IFCPOLYLOOP((#1845,#1865,#1701,#1699));
#311=IFCPOLYLOOP((#1869,#1819,#1634));
#312=IFCPOLYLOOP((#1863,#1870,#1685,#1683));
#313=IFCPOLYLOOP((#1873,#1872,#1669,#1857));
#314=IFCPOLYLOOP((#1809,#1827,#1807));
#315=IFCPOLYLOOP((#1864,#1871,#1677,#1675));
#316=IFCPOLYLOOP((#1831,#1874,#1875,#1876,#1877,#1878,#1879,#1829));
#317=IFCPOLYLOOP((#1669,#1634,#1867,#1857));
#318=IFCPOLYLOOP((#1866,#1868,#1688,#1703));
#319=IFCPOLYLOOP((#1789,#1880,#1881,#1790));
#320=IFCPOLYLOOP((#1793,#1882,#1883,#1794));
#321=IFCPOLYLOOP((#1792,#1884,#1882,#1793));
#322=IFCPOLYLOOP((#1791,#1885,#1884,#1792));
#323=IFCPOLYLOOP((#1790,#1881,#1885,#1791));
#324=IFCPOLYLOOP((#1886,#1795,#1794,#1883));
#325=IFCPOLYLOOP((#1832,#1887,#1888,#1863));
#326=IFCPOLYLOOP((#1811,#1889,#1887,#1832));
#327=IFCPOLYLOOP((#1810,#1890,#1889,#1811));
#328=IFCPOLYLOOP((#1795,#1886,#1890,#1810));
#329=IFCPOLYLOOP((#1870,#1891,#1892,#1854));
#330=IFCPOLYLOOP((#1863,#1888,#1891,#1870));
#331=IFCPOLYLOOP((#1830,#1893,#1894,#1831));
#332=IFCPOLYLOOP((#1853,#1895,#1893,#1830));
#333=IFCPOLYLOOP((#1855,#1896,#1895,#1853));
#334=IFCPOLYLOOP((#1854,#1892,#1896,#1855));
#335=IFCPOLYLOOP((#1831,#1894,#1897,#1874));
#336=IFCPOLYLOOP((#1877,#1898,#1899,#1878));
#337=IFCPOLYLOOP((#1876,#1900,#1898,#1877));
#338=IFCPOLYLOOP((#1875,#1901,#1900,#1876));
#339=IFCPOLYLOOP((#1874,#1897,#1901,#1875));
#340=IFCPOLYLOOP((#1878,#1899,#1902,#1879));
#341=IFCPOLYLOOP((#1829,#1903,#1904,#1816));
#342=IFCPOLYLOOP((#1879,#1902,#1903,#1829));
#343=IFCPOLYLOOP((#1905,#1817,#1816,#1904));
#344=IFCPOLYLOOP((#1828,#1906,#1907,#1847));
#345=IFCPOLYLOOP((#1809,#1908,#1906,#1828));
#346=IFCPOLYLOOP((#1808,#1909,#1908,#1809));
#347=IFCPOLYLOOP((#1818,#1910,#1909,#1808));
#348=IFCPOLYLOOP((#1826,#1911,#1910,#1818));
#349=IFCPOLYLOOP((#1817,#1905,#1911,#1826));
#350=IFCPOLYLOOP((#1862,#1912,#1913,#1851));
#351=IFCPOLYLOOP((#1848,#1914,#1912,#1862));
#352=IFCPOLYLOOP((#1847,#1907,#1914,#1848));
#353=IFCPOLYLOOP((#1850,#1915,#1916,#1867));
#354=IFCPOLYLOOP((#1821,#1917,#1915,#1850));
#355=IFCPOLYLOOP((#1820,#1918,#1917,#1821));
#356=IFCPOLYLOOP((#1823,#1919,#1918,#1820));
#357=IFCPOLYLOOP((#1822,#1920,#1919,#1823));
#358=IFCPOLYLOOP((#1851,#1913,#1920,#1822));
#359=IFCPOLYLOOP((#1867,#1916,#1921,#1857));
#360=IFCPOLYLOOP((#1836,#1922,#1923,#1837));
#361=IFCPOLYLOOP((#1857,#1921,#1922,#1836));
#362=IFCPOLYLOOP((#1924,#1838,#1837,#1923));
#363=IFCPOLYLOOP((#1841,#1925,#1926,#1842));
#364=IFCPOLYLOOP((#1840,#1927,#1925,#1841));
#365=IFCPOLYLOOP((#1839,#1928,#1927,#1840));
#366=IFCPOLYLOOP((#1838,#1924,#1928,#1839));
#367=IFCPOLYLOOP((#1929,#1843,#1842,#1926));
#368=IFCPOLYLOOP((#1859,#1930,#1931,#1873));
#369=IFCPOLYLOOP((#1858,#1932,#1930,#1859));
#370=IFCPOLYLOOP((#1860,#1933,#1932,#1858));
#371=IFCPOLYLOOP((#1843,#1929,#1933,#1860));
#372=IFCPOLYLOOP((#1872,#1934,#1935,#1835));
#373=IFCPOLYLOOP((#1873,#1931,#1934,#1872));
#374=IFCPOLYLOOP((#1806,#1936,#1937,#1796));
#375=IFCPOLYLOOP((#1814,#1938,#1936,#1806));
#376=IFCPOLYLOOP((#1813,#1939,#1938,#1814));
#377=IFCPOLYLOOP((#1835,#1935,#1939,#1813));
#378=IFCPOLYLOOP((#1796,#1937,#1940,#1797));
#379=IFCPOLYLOOP((#1800,#1941,#1942,#1801));
#380=IFCPOLYLOOP((#1799,#1943,#1941,#1800));
#381=IFCPOLYLOOP((#1798,#1944,#1943,#1799));
#382=IFCPOLYLOOP((#1797,#1940,#1944,#1798));
#383=IFCPOLYLOOP((#1945,#1802,#1801,#1942));
#384=IFCPOLYLOOP((#1856,#1946,#1947,#1864));
#385=IFCPOLYLOOP((#1805,#1948,#1946,#1856));
#386=IFCPOLYLOOP((#1804,#1949,#1948,#1805));
#387=IFCPOLYLOOP((#1802,#1945,#1949,#1804));
#388=IFCPOLYLOOP((#1871,#1950,#1951,#1833));
#389=IFCPOLYLOOP((#1864,#1947,#1950,#1871));
#390=IFCPOLYLOOP((#1803,#1952,#1880,#1789));
#391=IFCPOLYLOOP((#1812,#1953,#1952,#1803));
#392=IFCPOLYLOOP((#1834,#1954,#1953,#1812));
#393=IFCPOLYLOOP((#1833,#1951,#1954,#1834));
#394=IFCPOLYLOOP((#1674,#1945,#1942,#1941,#1943,#1944,#1940,#1937));
#395=IFCPOLYLOOP((#1682,#1886,#1883,#1882,#1884,#1885,#1881,#1880));
#396=IFCPOLYLOOP((#1955,#1918,#1919));
#397=IFCPOLYLOOP((#1674,#1936,#1938));
#398=IFCPOLYLOOP((#1674,#1949,#1945));
#399=IFCPOLYLOOP((#1682,#1890,#1886));
#400=IFCPOLYLOOP((#1684,#1888,#1887));
#401=IFCPOLYLOOP((#1955,#1917,#1918));
#402=IFCPOLYLOOP((#1937,#1936,#1674));
#403=IFCPOLYLOOP((#1674,#1676,#1946,#1948));
#404=IFCPOLYLOOP((#1880,#1952,#1682));
#405=IFCPOLYLOOP((#1887,#1889,#1682,#1684));
#406=IFCPOLYLOOP((#1704,#1687,#1956,#1957));
#407=IFCPOLYLOOP((#1640,#1955,#1958));
#408=IFCPOLYLOOP((#1955,#1640,#1915,#1917));
#409=IFCPOLYLOOP((#1640,#1670,#1921,#1916));
#410=IFCPOLYLOOP((#1959,#1908,#1909));
#411=IFCPOLYLOOP((#1907,#1906,#1959,#1960));
#412=IFCPOLYLOOP((#1948,#1949,#1674));
#413=IFCPOLYLOOP((#1680,#1682,#1953,#1954));
#414=IFCPOLYLOOP((#1889,#1890,#1682));
#415=IFCPOLYLOOP((#1903,#1902,#1899,#1898,#1900,#1901,#1897,#1894));
#416=IFCPOLYLOOP((#1958,#1956,#1687,#1640));
#417=IFCPOLYLOOP((#1916,#1915,#1640));
#418=IFCPOLYLOOP((#1909,#1910,#1959));
#419=IFCPOLYLOOP((#1960,#1912,#1914,#1907));
#420=IFCPOLYLOOP((#1676,#1947,#1946));
#421=IFCPOLYLOOP((#1952,#1953,#1682));
#422=IFCPOLYLOOP((#1904,#1895,#1896));
#423=IFCPOLYLOOP((#1894,#1893,#1904,#1903));
#424=IFCPOLYLOOP((#1690,#1694,#1961,#1962));
#425=IFCPOLYLOOP((#1700,#1702,#1963,#1964));
#426=IFCPOLYLOOP((#1919,#1965,#1955));
#427=IFCPOLYLOOP((#1965,#1919,#1920));
#428=IFCPOLYLOOP((#1912,#1960,#1966));
#429=IFCPOLYLOOP((#1906,#1908,#1959));
#430=IFCPOLYLOOP((#1922,#1921,#1933,#1929));
#431=IFCPOLYLOOP((#1938,#1939,#1672,#1674));
#432=IFCPOLYLOOP((#1684,#1686,#1891,#1888));
#433=IFCPOLYLOOP((#1893,#1895,#1904));
#434=IFCPOLYLOOP((#1694,#1696,#1967,#1961));
#435=IFCPOLYLOOP((#1964,#1968,#1698,#1700));
#436=IFCPOLYLOOP((#1920,#1966,#1965));
#437=IFCPOLYLOOP((#1910,#1911,#1959));
#438=IFCPOLYLOOP((#1921,#1932,#1933));
#439=IFCPOLYLOOP((#1921,#1931,#1930));
#440=IFCPOLYLOOP((#1939,#1935,#1672));
#441=IFCPOLYLOOP((#1954,#1951,#1680));
#442=IFCPOLYLOOP((#1896,#1892,#1904));
#443=IFCPOLYLOOP((#1968,#1967,#1696,#1698));
#444=IFCPOLYLOOP((#1966,#1920,#1913,#1912));
#445=IFCPOLYLOOP((#1969,#1959,#1911));
#446=IFCPOLYLOOP((#1930,#1932,#1921));
#447=IFCPOLYLOOP((#1676,#1678,#1950,#1947));
#448=IFCPOLYLOOP((#1892,#1891,#1686,#1904));
#449=IFCPOLYLOOP((#1957,#1963,#1702,#1704));
#450=IFCPOLYLOOP((#1905,#1691,#1970,#1969));
#451=IFCPOLYLOOP((#1921,#1670,#1934,#1931));
#452=IFCPOLYLOOP((#1951,#1950,#1678,#1680));
#453=IFCPOLYLOOP((#1911,#1905,#1969));
#454=IFCPOLYLOOP((#1935,#1934,#1670,#1672));
#455=IFCPOLYLOOP((#1929,#1926,#1925,#1927,#1928,#1924,#1923,#1922));
#456=IFCPOLYLOOP((#1686,#1691,#1905,#1904));
#457=IFCPOLYLOOP((#1962,#1970,#1691,#1690));
#458=IFCPOLYLOOP((#1866,#1971,#1972,#1868));
#459=IFCPOLYLOOP((#1865,#1973,#1971,#1866));
#460=IFCPOLYLOOP((#1845,#1974,#1973,#1865));
#461=IFCPOLYLOOP((#1844,#1975,#1974,#1845));
#462=IFCPOLYLOOP((#1861,#1976,#1975,#1844));
#463=IFCPOLYLOOP((#1846,#1977,#1976,#1861));
#464=IFCPOLYLOOP((#1825,#1978,#1977,#1846));
#465=IFCPOLYLOOP((#1824,#1979,#1978,#1825));
#466=IFCPOLYLOOP((#1815,#1980,#1979,#1824));
#467=IFCPOLYLOOP((#1807,#1981,#1980,#1815));
#468=IFCPOLYLOOP((#1827,#1982,#1981,#1807));
#469=IFCPOLYLOOP((#1849,#1983,#1982,#1827));
#470=IFCPOLYLOOP((#1852,#1984,#1983,#1849));
#471=IFCPOLYLOOP((#1819,#1985,#1984,#1852));
#472=IFCPOLYLOOP((#1869,#1986,#1985,#1819));
#473=IFCPOLYLOOP((#1868,#1972,#1986,#1869));
#474=IFCPOLYLOOP((#1987,#1957,#1956,#1988));
#475=IFCPOLYLOOP((#1989,#1963,#1957,#1987));
#476=IFCPOLYLOOP((#1990,#1964,#1963,#1989));
#477=IFCPOLYLOOP((#1991,#1968,#1964,#1990));
#478=IFCPOLYLOOP((#1992,#1967,#1968,#1991));
#479=IFCPOLYLOOP((#1993,#1961,#1967,#1992));
#480=IFCPOLYLOOP((#1994,#1962,#1961,#1993));
#481=IFCPOLYLOOP((#1995,#1970,#1962,#1994));
#482=IFCPOLYLOOP((#1996,#1969,#1970,#1995));
#483=IFCPOLYLOOP((#1997,#1959,#1969,#1996));
#484=IFCPOLYLOOP((#1998,#1960,#1959,#1997));
#485=IFCPOLYLOOP((#1999,#1966,#1960,#1998));
#486=IFCPOLYLOOP((#2000,#1965,#1966,#1999));
#487=IFCPOLYLOOP((#2001,#1955,#1965,#2000));
#488=IFCPOLYLOOP((#2002,#1958,#1955,#2001));
#489=IFCPOLYLOOP((#1988,#1956,#1958,#2002));
#490=IFCPOLYLOOP((#1982,#1983,#2003,#2004));
#491=IFCPOLYLOOP((#1984,#1985,#2005,#2006));
#492=IFCPOLYLOOP((#1971,#1973,#2007,#2008));
#493=IFCPOLYLOOP((#1974,#1975,#2009,#2010));
#494=IFCPOLYLOOP((#1976,#1977,#2011,#2012));
#495=IFCPOLYLOOP((#1978,#1979,#2013,#2014));
#496=IFCPOLYLOOP((#1980,#1981,#2015,#2016));
#497=IFCPOLYLOOP((#2006,#2003,#1983,#1984));
#498=IFCPOLYLOOP((#2010,#2007,#1973,#1974));
#499=IFCPOLYLOOP((#2014,#2011,#1977,#1978));
#500=IFCPOLYLOOP((#2004,#2015,#1981,#1982));
#501=IFCPOLYLOOP((#1986,#1972,#2017,#2018));
#502=IFCPOLYLOOP((#2012,#2009,#1975,#1976));
#503=IFCPOLYLOOP((#2018,#2005,#1985,#1986));
#504=IFCPOLYLOOP((#2016,#2013,#1979,#1980));
#505=IFCPOLYLOOP((#2008,#2017,#1972,#1971));
#506=IFCPOLYLOOP((#1990,#1989,#2019,#2020));
#507=IFCPOLYLOOP((#1987,#1988,#2021,#2022));
#508=IFCPOLYLOOP((#2002,#2001,#2023,#2024));
#509=IFCPOLYLOOP((#1994,#1993,#2025,#2026));
#510=IFCPOLYLOOP((#1992,#1991,#2027,#2028));
#511=IFCPOLYLOOP((#2022,#2019,#1989,#1987));
#512=IFCPOLYLOOP((#2001,#2000,#2029,#2023));
#513=IFCPOLYLOOP((#1999,#1998,#2030,#2031));
#514=IFCPOLYLOOP((#2028,#2025,#1993,#1992));
#515=IFCPOLYLOOP((#2024,#2021,#1988,#2002));
#516=IFCPOLYLOOP((#1998,#1997,#2032,#2030));
#517=IFCPOLYLOOP((#1996,#1995,#2033,#2034));
#518=IFCPOLYLOOP((#2020,#2027,#1991,#1990));
#519=IFCPOLYLOOP((#2034,#2032,#1997,#1996));
#520=IFCPOLYLOOP((#2031,#2029,#2000,#1999));
#521=IFCPOLYLOOP((#2026,#2033,#1995,#1994));
#522=IFCPOLYLOOP((#2008,#2022,#2021,#2017));
#523=IFCPOLYLOOP((#2007,#2019,#2022,#2008));
#524=IFCPOLYLOOP((#2010,#2020,#2019,#2007));
#525=IFCPOLYLOOP((#2009,#2027,#2020,#2010));
#526=IFCPOLYLOOP((#2012,#2028,#2027,#2009));
#527=IFCPOLYLOOP((#2011,#2025,#2028,#2012));
#528=IFCPOLYLOOP((#2014,#2026,#2025,#2011));
#529=IFCPOLYLOOP((#2013,#2033,#2026,#2014));
#530=IFCPOLYLOOP((#2016,#2034,#2033,#2013));
#531=IFCPOLYLOOP((#2015,#2032,#2034,#2016));
#532=IFCPOLYLOOP((#2004,#2030,#2032,#2015));
#533=IFCPOLYLOOP((#2003,#2031,#2030,#2004));
#534=IFCPOLYLOOP((#2006,#2029,#2031,#2003));
#535=IFCPOLYLOOP((#2005,#2023,#2029,#2006));
#536=IFCPOLYLOOP((#2018,#2024,#2023,#2005));
#537=IFCPOLYLOOP((#2017,#2021,#2024,#2018));
#538=IFCFACEOUTERBOUND(#26,.T.);
#539=IFCFACEOUTERBOUND(#27,.T.);
#540=IFCFACEOUTERBOUND(#28,.T.);
#541=IFCFACEOUTERBOUND(#29,.T.);
#542=IFCFACEOUTERBOUND(#30,.T.);
#543=IFCFACEOUTERBOUND(#31,.T.);
#544=IFCFACEOUTERBOUND(#32,.T.);
#545=IFCFACEOUTERBOUND(#33,.T.);
#546=IFCFACEOUTERBOUND(#34,.T.);
#547=IFCFACEOUTERBOUND(#35,.T.);
#548=IFCFACEOUTERBOUND(#36,.T.);
#549=IFCFACEOUTERBOUND(#37,.T.);
#550=IFCFACEOUTERBOUND(#38,.T.);
#551=IFCFACEOUTERBOUND(#39,.T.);
#552=IFCFACEOUTERBOUND(#40,.T.);
#553=IFCFACEOUTERBOUND(#41,.T.);
#554=IFCFACEOUTERBOUND(#42,.T.);
#555=IFCFACEOUTERBOUND(#43,.T.);
#556=IFCFACEOUTERBOUND(#44,.T.);
#557=IFCFACEOUTERBOUND(#45,.T.);
#558=IFCFACEOUTERBOUND(#46,.T.);
#559=IFCFACEOUTERBOUND(#47,.T.);
#560=IFCFACEOUTERBOUND(#48,.T.);
#561=IFCFACEOUTERBOUND(#49,.T.);
#562=IFCFACEOUTERBOUND(#50,.T.);
#563=IFCFACEOUTERBOUND(#51,.T.);
#564=IFCFACEOUTERBOUND(#52,.T.);
#565=IFCFACEOUTERBOUND(#53,.T.);
#566=IFCFACEOUTERBOUND(#54,.T.);
#567=IFCFACEOUTERBOUND(#55,.T.);
#568=IFCFACEOUTERBOUND(#56,.T.);
#569=IFCFACEOUTERBOUND(#57,.T.);
#570=IFCFACEOUTERBOUND(#58,.T.);
#571=IFCFACEOUTERBOUND(#59,.T.);
#572=IFCFACEOUTERBOUND(#60,.T.);
#573=IFCFACEOUTERBOUND(#61,.T.);
#574=IFCFACEOUTERBOUND(#62,.T.);
#575=IFCFACEOUTERBOUND(#63,.T.);
#576=IFCFACEOUTERBOUND(#64,.T.);
#577=IFCFACEOUTERBOUND(#65,.T.);
#578=IFCFACEOUTERBOUND(#66,.T.);
#579=IFCFACEOUTERBOUND(#67,.T.);
#580=IFCFACEOUTERBOUND(#68,.T.);
#581=IFCFACEOUTERBOUND(#69,.T.);
#582=IFCFACEOUTERBOUND(#70,.T.);
#583=IFCFACEOUTERBOUND(#71,.T.);
#584=IFCFACEOUTERBOUND(#72,.T.);
#585=IFCFACEOUTERBOUND(#73,.T.);
#586=IFCFACEOUTERBOUND(#74,.T.);
#587=IFCFACEOUTERBOUND(#75,.T.);
#588=IFCFACEOUTERBOUND(#76,.T.);
#589=IFCFACEOUTERBOUND(#77,.T.);
#590=IFCFACEOUTERBOUND(#78,.T.);
#591=IFCFACEOUTERBOUND(#79,.T.);
#592=IFCFACEOUTERBOUND(#80,.T.);
#593=IFCFACEOUTERBOUND(#81,.T.);
#594=IFCFACEOUTERBOUND(#82,.T.);
#595=IFCFACEOUTERBOUND(#83,.T.);
#596=IFCFACEOUTERBOUND(#84,.T.);
#597=IFCFACEOUTERBOUND(#85,.T.);
#598=IFCFACEOUTERBOUND(#86,.T.);
#599=IFCFACEOUTERBOUND(#87,.T.);
#600=IFCFACEOUTERBOUND(#88,.T.);
#601=IFCFACEOUTERBOUND(#89,.T.);
#602=IFCFACEOUTERBOUND(#90,.T.);
#603=IFCFACEOUTERBOUND(#91,.T.);
#604=IFCFACEOUTERBOUND(#92,.T.);
#605=IFCFACEOUTERBOUND(#93,.T.);
#606=IFCFACEOUTERBOUND(#94,.T.);
#607=IFCFACEOUTERBOUND(#95,.T.);
#608=IFCFACEOUTERBOUND(#96,.T.);
#609=IFCFACEOUTERBOUND(#97,.T.);
#610=IFCFACEOUTERBOUND(#98,.T.);
#611=IFCFACEOUTERBOUND(#99,.T.);
#612=IFCFACEOUTERBOUND(#100,.T.);
#613=IFCFACEOUTERBOUND(#101,.T.);
#614=IFCFACEOUTERBOUND(#102,.T.);
#615=IFCFACEOUTERBOUND(#103,.T.);
#616=IFCFACEOUTERBOUND(#104,.T.);
#617=IFCFACEOUTERBOUND(#105,.T.);
#618=IFCFACEOUTERBOUND(#106,.T.);
#619=IFCFACEOUTERBOUND(#107,.T.);
#620=IFCFACEOUTERBOUND(#108,.T.);
#621=IFCFACEOUTERBOUND(#109,.T.);
#622=IFCFACEOUTERBOUND(#110,.T.);
#623=IFCFACEOUTERBOUND(#111,.T.);
#624=IFCFACEOUTERBOUND(#112,.T.);
#625=IFCFACEOUTERBOUND(#113,.T.);
#626=IFCFACEOUTERBOUND(#114,.T.);
#627=IFCFACEOUTERBOUND(#115,.T.);
#628=IFCFACEOUTERBOUND(#116,.T.);
#629=IFCFACEOUTERBOUND(#117,.T.);
#630=IFCFACEOUTERBOUND(#118,.T.);
#631=IFCFACEOUTERBOUND(#119,.T.);
#632=IFCFACEOUTERBOUND(#120,.T.);
#633=IFCFACEOUTERBOUND(#121,.T.);
#634=IFCFACEOUTERBOUND(#122,.T.);
#635=IFCFACEOUTERBOUND(#123,.T.);
#636=IFCFACEOUTERBOUND(#124,.T.);
#637=IFCFACEOUTERBOUND(#125,.T.);
#638=IFCFACEOUTERBOUND(#126,.T.);
#639=IFCFACEOUTERBOUND(#127,.T.);
#640=IFCFACEOUTERBOUND(#128,.T.);
#641=IFCFACEOUTERBOUND(#129,.T.);
#642=IFCFACEOUTERBOUND(#130,.T.);
#643=IFCFACEOUTERBOUND(#131,.T.);
#644=IFCFACEOUTERBOUND(#132,.T.);
#645=IFCFACEOUTERBOUND(#133,.T.);
#646=IFCFACEOUTERBOUND(#134,.T.);
#647=IFCFACEOUTERBOUND(#135,.T.);
#648=IFCFACEOUTERBOUND(#136,.T.);
#649=IFCFACEOUTERBOUND(#137,.T.);
#650=IFCFACEOUTERBOUND(#138,.T.);
#651=IFCFACEOUTERBOUND(#139,.T.);
#652=IFCFACEOUTERBOUND(#140,.T.);
#653=IFCFACEOUTERBOUND(#141,.T.);
#654=IFCFACEOUTERBOUND(#142,.T.);
#655=IFCFACEOUTERBOUND(#143,.T.);
#656=IFCFACEOUTERBOUND(#144,.T.);
#657=IFCFACEOUTERBOUND(#145,.T.);
#658=IFCFACEOUTERBOUND(#146,.T.);
#659=IFCFACEOUTERBOUND(#147,.T.);
#660=IFCFACEOUTERBOUND(#148,.T.);
#661=IFCFACEOUTERBOUND(#149,.T.);
#662=IFCFACEOUTERBOUND(#150,.T.);
#663=IFCFACEOUTERBOUND(#151,.T.);
#664=IFCFACEOUTERBOUND(#152,.T.);
#665=IFCFACEOUTERBOUND(#153,.T.);
#666=IFCFACEOUTERBOUND(#154,.T.);
#667=IFCFACEOUTERBOUND(#155,.T.);
#668=IFCFACEOUTERBOUND(#156,.T.);
#669=IFCFACEOUTERBOUND(#157,.T.);
#670=IFCFACEOUTERBOUND(#158,.T.);
#671=IFCFACEOUTERBOUND(#159,.T.);
#672=IFCFACEOUTERBOUND(#160,.T.);
#673=IFCFACEOUTERBOUND(#161,.T.);
#674=IFCFACEOUTERBOUND(#162,.T.);
#675=IFCFACEOUTERBOUND(#163,.T.);
#676=IFCFACEOUTERBOUND(#164,.T.);
#677=IFCFACEOUTERBOUND(#165,.T.);
#678=IFCFACEOUTERBOUND(#166,.T.);
#679=IFCFACEOUTERBOUND(#167,.T.);
#680=IFCFACEOUTERBOUND(#168,.T.);
#681=IFCFACEOUTERBOUND(#169,.T.);
#682=IFCFACEOUTERBOUND(#170,.T.);
#683=IFCFACEOUTERBOUND(#171,.T.);
#684=IFCFACEOUTERBOUND(#172,.T.);
#685=IFCFACEOUTERBOUND(#173,.T.);
#686=IFCFACEOUTERBOUND(#174,.T.);
#687=IFCFACEOUTERBOUND(#175,.T.);
#688=IFCFACEOUTERBOUND(#176,.T.);
#689=IFCFACEOUTERBOUND(#177,.T.);
#690=IFCFACEOUTERBOUND(#178,.T.);
#691=IFCFACEOUTERBOUND(#179,.T.);
#692=IFCFACEOUTERBOUND(#180,.T.);
#693=IFCFACEOUTERBOUND(#181,.T.);
#694=IFCFACEOUTERBOUND(#182,.T.);
#695=IFCFACEOUTERBOUND(#183,.T.);
#696=IFCFACEOUTERBOUND(#184,.T.);
#697=IFCFACEOUTERBOUND(#185,.T.);
#698=IFCFACEOUTERBOUND(#186,.T.);
#699=IFCFACEOUTERBOUND(#187,.T.);
#700=IFCFACEOUTERBOUND(#188,.T.);
#701=IFCFACEOUTERBOUND(#189,.T.);
#702=IFCFACEOUTERBOUND(#190,.T.);
#703=IFCFACEOUTERBOUND(#191,.T.);
#704=IFCFACEOUTERBOUND(#192,.T.);
#705=IFCFACEOUTERBOUND(#193,.T.);
#706=IFCFACEOUTERBOUND(#194,.T.);
#707=IFCFACEOUTERBOUND(#195,.T.);
#708=IFCFACEOUTERBOUND(#196,.T.);
#709=IFCFACEOUTERBOUND(#197,.T.);
#710=IFCFACEOUTERBOUND(#198,.T.);
#711=IFCFACEOUTERBOUND(#199,.T.);
#712=IFCFACEOUTERBOUND(#200,.T.);
#713=IFCFACEOUTERBOUND(#201,.T.);
#714=IFCFACEOUTERBOUND(#202,.T.);
#715=IFCFACEOUTERBOUND(#203,.T.);
#716=IFCFACEOUTERBOUND(#204,.T.);
#717=IFCFACEOUTERBOUND(#205,.T.);
#718=IFCFACEOUTERBOUND(#206,.T.);
#719=IFCFACEOUTERBOUND(#207,.T.);
#720=IFCFACEOUTERBOUND(#208,.T.);
#721=IFCFACEOUTERBOUND(#209,.T.);
#722=IFCFACEOUTERBOUND(#210,.T.);
#723=IFCFACEOUTERBOUND(#211,.T.);
#724=IFCFACEOUTERBOUND(#212,.T.);
#725=IFCFACEOUTERBOUND(#213,.T.);
#726=IFCFACEOUTERBOUND(#214,.T.);
#727=IFCFACEOUTERBOUND(#215,.T.);
#728=IFCFACEOUTERBOUND(#216,.T.);
#729=IFCFACEOUTERBOUND(#217,.T.);
#730=IFCFACEOUTERBOUND(#218,.T.);
#731=IFCFACEOUTERBOUND(#219,.T.);
#732=IFCFACEOUTERBOUND(#220,.T.);
#733=IFCFACEOUTERBOUND(#221,.T.);
#734=IFCFACEOUTERBOUND(#222,.T.);
#735=IFCFACEOUTERBOUND(#223,.T.);
#736=IFCFACEOUTERBOUND(#224,.T.);
#737=IFCFACEOUTERBOUND(#225,.T.);
#738=IFCFACEOUTERBOUND(#226,.T.);
#739=IFCFACEOUTERBOUND(#227,.T.);
#740=IFCFACEOUTERBOUND(#228,.T.);
#741=IFCFACEOUTERBOUND(#229,.T.);
#742=IFCFACEOUTERBOUND(#230,.T.);
#743=IFCFACEOUTERBOUND(#231,.T.);
#744=IFCFACEOUTERBOUND(#232,.T.);
#745=IFCFACEOUTERBOUND(#233,.T.);
#746=IFCFACEOUTERBOUND(#234,.T.);
#747=IFCFACEOUTERBOUND(#235,.T.);
#748=IFCFACEOUTERBOUND(#236,.T.);
#749=IFCFACEOUTERBOUND(#237,.T.);
#750=IFCFACEOUTERBOUND(#238,.T.);
#751=IFCFACEOUTERBOUND(#239,.T.);
#752=IFCFACEOUTERBOUND(#240,.T.);
#753=IFCFACEOUTERBOUND(#241,.T.);
#754=IFCFACEOUTERBOUND(#242,.T.);
#755=IFCFACEOUTERBOUND(#243,.T.);
#756=IFCFACEOUTERBOUND(#244,.T.);
#757=IFCFACEOUTERBOUND(#245,.T.);
#758=IFCFACEOUTERBOUND(#246,.T.);
#759=IFCFACEOUTERBOUND(#247,.T.);
#760=IFCFACEOUTERBOUND(#248,.T.);
#761=IFCFACEOUTERBOUND(#249,.T.);
#762=IFCFACEOUTERBOUND(#250,.T.);
#763=IFCFACEOUTERBOUND(#251,.T.);
#764=IFCFACEOUTERBOUND(#252,.T.);
#765=IFCFACEOUTERBOUND(#253,.T.);
#766=IFCFACEOUTERBOUND(#254,.T.);
#767=IFCFACEOUTERBOUND(#255,.T.);
#768=IFCFACEOUTERBOUND(#256,.T.);
#769=IFCFACEOUTERBOUND(#257,.T.);
#770=IFCFACEOUTERBOUND(#258,.T.);
#771=IFCFACEOUTERBOUND(#259,.T.);
#772=IFCFACEOUTERBOUND(#260,.T.);
#773=IFCFACEOUTERBOUND(#261,.T.);
#774=IFCFACEOUTERBOUND(#262,.T.);
#775=IFCFACEOUTERBOUND(#263,.T.);
#776=IFCFACEOUTERBOUND(#264,.T.);
#777=IFCFACEOUTERBOUND(#265,.T.);
#778=IFCFACEOUTERBOUND(#266,.T.);
#779=IFCFACEOUTERBOUND(#267,.T.);
#780=IFCFACEOUTERBOUND(#268,.T.);
#781=IFCFACEOUTERBOUND(#269,.T.);
#782=IFCFACEOUTERBOUND(#270,.T.);
#783=IFCFACEOUTERBOUND(#271,.T.);
#784=IFCFACEOUTERBOUND(#272,.T.);
#785=IFCFACEOUTERBOUND(#273,.T.);
#786=IFCFACEOUTERBOUND(#274,.T.);
#787=IFCFACEOUTERBOUND(#275,.T.);
#788=IFCFACEOUTERBOUND(#276,.T.);
#789=IFCFACEOUTERBOUND(#277,.T.);
#790=IFCFACEOUTERBOUND(#278,.T.);
#791=IFCFACEOUTERBOUND(#279,.T.);
#792=IFCFACEOUTERBOUND(#280,.T.);
#793=IFCFACEOUTERBOUND(#281,.T.);
#794=IFCFACEOUTERBOUND(#282,.T.);
#795=IFCFACEOUTERBOUND(#283,.T.);
#796=IFCFACEOUTERBOUND(#284,.T.);
#797=IFCFACEOUTERBOUND(#285,.T.);
#798=IFCFACEOUTERBOUND(#286,.T.);
#799=IFCFACEOUTERBOUND(#287,.T.);
#800=IFCFACEOUTERBOUND(#288,.T.);
#801=IFCFACEOUTERBOUND(#289,.T.);
#802=IFCFACEOUTERBOUND(#290,.T.);
#803=IFCFACEOUTERBOUND(#291,.T.);
#804=IFCFACEOUTERBOUND(#292,.T.);
#805=IFCFACEOUTERBOUND(#293,.T.);
#806=IFCFACEOUTERBOUND(#294,.T.);
#807=IFCFACEOUTERBOUND(#295,.T.);
#808=IFCFACEOUTERBOUND(#296,.T.);
#809=IFCFACEOUTERBOUND(#297,.T.);
#810=IFCFACEOUTERBOUND(#298,.T.);
#811=IFCFACEOUTERBOUND(#299,.T.);
#812=IFCFACEOUTERBOUND(#300,.T.);
#813=IFCFACEOUTERBOUND(#301,.T.);
#814=IFCFACEOUTERBOUND(#302,.T.);
#815=IFCFACEOUTERBOUND(#303,.T.);
#816=IFCFACEOUTERBOUND(#304,.T.);
#817=IFCFACEOUTERBOUND(#305,.T.);
#818=IFCFACEOUTERBOUND(#306,.T.);
#819=IFCFACEOUTERBOUND(#307,.T.);
#820=IFCFACEOUTERBOUND(#308,.T.);
#821=IFCFACEOUTERBOUND(#309,.T.);
#822=IFCFACEOUTERBOUND(#310,.T.);
#823=IFCFACEOUTERBOUND(#311,.T.);
#824=IFCFACEOUTERBOUND(#312,.T.);
#825=IFCFACEOUTERBOUND(#313,.T.);
#826=IFCFACEOUTERBOUND(#314,.T.);
#827=IFCFACEOUTERBOUND(#315,.T.);
#828=IFCFACEOUTERBOUND(#316,.T.);
#829=IFCFACEOUTERBOUND(#317,.T.);
#830=IFCFACEOUTERBOUND(#318,.T.);
#831=IFCFACEOUTERBOUND(#319,.T.);
#832=IFCFACEOUTERBOUND(#320,.T.);
#833=IFCFACEOUTERBOUND(#321,.T.);
#834=IFCFACEOUTERBOUND(#322,.T.);
#835=IFCFACEOUTERBOUND(#323,.T.);
#836=IFCFACEOUTERBOUND(#324,.T.);
#837=IFCFACEOUTERBOUND(#325,.T.);
#838=IFCFACEOUTERBOUND(#326,.T.);
#839=IFCFACEOUTERBOUND(#327,.T.);
#840=IFCFACEOUTERBOUND(#328,.T.);
#841=IFCFACEOUTERBOUND(#329,.T.);
#842=IFCFACEOUTERBOUND(#330,.T.);
#843=IFCFACEOUTERBOUND(#331,.T.);
#844=IFCFACEOUTERBOUND(#332,.T.);
#845=IFCFACEOUTERBOUND(#333,.T.);
#846=IFCFACEOUTERBOUND(#334,.T.);
#847=IFCFACEOUTERBOUND(#335,.T.);
#848=IFCFACEOUTERBOUND(#336,.T.);
#849=IFCFACEOUTERBOUND(#337,.T.);
#850=IFCFACEOUTERBOUND(#338,.T.);
#851=IFCFACEOUTERBOUND(#339,.T.);
#852=IFCFACEOUTERBOUND(#340,.T.);
#853=IFCFACEOUTERBOUND(#341,.T.);
#854=IFCFACEOUTERBOUND(#342,.T.);
#855=IFCFACEOUTERBOUND(#343,.T.);
#856=IFCFACEOUTERBOUND(#344,.T.);
#857=IFCFACEOUTERBOUND(#345,.T.);
#858=IFCFACEOUTERBOUND(#346,.T.);
#859=IFCFACEOUTERBOUND(#347,.T.);
#860=IFCFACEOUTERBOUND(#348,.T.);
#861=IFCFACEOUTERBOUND(#349,.T.);
#862=IFCFACEOUTERBOUND(#350,.T.);
#863=IFCFACEOUTERBOUND(#351,.T.);
#864=IFCFACEOUTERBOUND(#352,.T.);
#865=IFCFACEOUTERBOUND(#353,.T.);
#866=IFCFACEOUTERBOUND(#354,.T.);
#867=IFCFACEOUTERBOUND(#355,.T.);
#868=IFCFACEOUTERBOUND(#356,.T.);
#869=IFCFACEOUTERBOUND(#357,.T.);
#870=IFCFACEOUTERBOUND(#358,.T.);
#871=IFCFACEOUTERBOUND(#359,.T.);
#872=IFCFACEOUTERBOUND(#360,.T.);
#873=IFCFACEOUTERBOUND(#361,.T.);
#874=IFCFACEOUTERBOUND(#362,.T.);
#875=IFCFACEOUTERBOUND(#363,.T.);
#876=IFCFACEOUTERBOUND(#364,.T.);
#877=IFCFACEOUTERBOUND(#365,.T.);
#878=IFCFACEOUTERBOUND(#366,.T.);
#879=IFCFACEOUTERBOUND(#367,.T.);
#880=IFCFACEOUTERBOUND(#368,.T.);
#881=IFCFACEOUTERBOUND(#369,.T.);
#882=IFCFACEOUTERBOUND(#370,.T.);
#883=IFCFACEOUTERBOUND(#371,.T.);
#884=IFCFACEOUTERBOUND(#372,.T.);
#885=IFCFACEOUTERBOUND(#373,.T.);
#886=IFCFACEOUTERBOUND(#374,.T.);
#887=IFCFACEOUTERBOUND(#375,.T.);
#888=IFCFACEOUTERBOUND(#376,.T.);
#889=IFCFACEOUTERBOUND(#377,.T.);
#890=IFCFACEOUTERBOUND(#378,.T.);
#891=IFCFACEOUTERBOUND(#379,.T.);
#892=IFCFACEOUTERBOUND(#380,.T.);
#893=IFCFACEOUTERBOUND(#381,.T.);
#894=IFCFACEOUTERBOUND(#382,.T.);
#895=IFCFACEOUTERBOUND(#383,.T.);
#896=IFCFACEOUTERBOUND(#384,.T.);
#897=IFCFACEOUTERBOUND(#385,.T.);
#898=IFCFACEOUTERBOUND(#386,.T.);
#899=IFCFACEOUTERBOUND(#387,.T.);
#900=IFCFACEOUTERBOUND(#388,.T.);
#901=IFCFACEOUTERBOUND(#389,.T.);
#902=IFCFACEOUTERBOUND(#390,.T.);
#903=IFCFACEOUTERBOUND(#391,.T.);
#904=IFCFACEOUTERBOUND(#392,.T.);
#905=IFCFACEOUTERBOUND(#393,.T.);
#906=IFCFACEOUTERBOUND(#394,.T.);
#907=IFCFACEOUTERBOUND(#395,.T.);
#908=IFCFACEOUTERBOUND(#396,.T.);
#909=IFCFACEOUTERBOUND(#397,.T.);
#910=IFCFACEOUTERBOUND(#398,.T.);
#911=IFCFACEOUTERBOUND(#399,.T.);
#912=IFCFACEOUTERBOUND(#400,.T.);
#913=IFCFACEOUTERBOUND(#401,.T.);
#914=IFCFACEOUTERBOUND(#402,.T.);
#915=IFCFACEOUTERBOUND(#403,.T.);
#916=IFCFACEOUTERBOUND(#404,.T.);
#917=IFCFACEOUTERBOUND(#405,.T.);
#918=IFCFACEOUTERBOUND(#406,.T.);
#919=IFCFACEOUTERBOUND(#407,.T.);
#920=IFCFACEOUTERBOUND(#408,.T.);
#921=IFCFACEOUTERBOUND(#409,.T.);
#922=IFCFACEOUTERBOUND(#410,.T.);
#923=IFCFACEOUTERBOUND(#411,.T.);
#924=IFCFACEOUTERBOUND(#412,.T.);
#925=IFCFACEOUTERBOUND(#413,.T.);
#926=IFCFACEOUTERBOUND(#414,.T.);
#927=IFCFACEOUTERBOUND(#415,.T.);
#928=IFCFACEOUTERBOUND(#416,.T.);
#929=IFCFACEOUTERBOUND(#417,.T.);
#930=IFCFACEOUTERBOUND(#418,.T.);
#931=IFCFACEOUTERBOUND(#419,.T.);
#932=IFCFACEOUTERBOUND(#420,.T.);
#933=IFCFACEOUTERBOUND(#421,.T.);
#934=IFCFACEOUTERBOUND(#422,.T.);
#935=IFCFACEOUTERBOUND(#423,.T.);
#936=IFCFACEOUTERBOUND(#424,.T.);
#937=IFCFACEOUTERBOUND(#425,.T.);
#938=IFCFACEOUTERBOUND(#426,.T.);
#939=IFCFACEOUTERBOUND(#427,.T.);
#940=IFCFACEOUTERBOUND(#428,.T.);
#941=IFCFACEOUTERBOUND(#429,.T.);
#942=IFCFACEOUTERBOUND(#430,.T.);
#943=IFCFACEOUTERBOUND(#431,.T.);
#944=IFCFACEOUTERBOUND(#432,.T.);
#945=IFCFACEOUTERBOUND(#433,.T.);
#946=IFCFACEOUTERBOUND(#434,.T.);
#947=IFCFACEOUTERBOUND(#435,.T.);
#948=IFCFACEOUTERBOUND(#436,.T.);
#949=IFCFACEOUTERBOUND(#437,.T.);
#950=IFCFACEOUTERBOUND(#438,.T.);
#951=IFCFACEOUTERBOUND(#439,.T.);
#952=IFCFACEOUTERBOUND(#440,.T.);
#953=IFCFACEOUTERBOUND(#441,.T.);
#954=IFCFACEOUTERBOUND(#442,.T.);
#955=IFCFACEOUTERBOUND(#443,.T.);
#956=IFCFACEOUTERBOUND(#444,.T.);
#957=IFCFACEOUTERBOUND(#445,.T.);
#958=IFCFACEOUTERBOUND(#446,.T.);
#959=IFCFACEOUTERBOUND(#447,.T.);
#960=IFCFACEOUTERBOUND(#448,.T.);
#961=IFCFACEOUTERBOUND(#449,.T.);
#962=IFCFACEOUTERBOUND(#450,.T.);
#963=IFCFACEOUTERBOUND(#451,.T.);
#964=IFCFACEOUTERBOUND(#452,.T.);
#965=IFCFACEOUTERBOUND(#453,.T.);
#966=IFCFACEOUTERBOUND(#454,.T.);
#967=IFCFACEOUTERBOUND(#455,.T.);
#968=IFCFACEOUTERBOUND(#456,.T.);
#969=IFCFACEOUTERBOUND(#457,.T.);
#970=IFCFACEOUTERBOUND(#458,.T.);
#971=IFCFACEOUTERBOUND(#459,.T.);
#972=IFCFACEOUTERBOUND(#460,.T.);
#973=IFCFACEOUTERBOUND(#461,.T.);
#974=IFCFACEOUTERBOUND(#462,.T.);
#975=IFCFACEOUTERBOUND(#463,.T.);
#976=IFCFACEOUTERBOUND(#464,.T.);
#977=IFCFACEOUTERBOUND(#465,.T.);
#978=IFCFACEOUTERBOUND(#466,.T.);
#979=IFCFACEOUTERBOUND(#467,.T.);
#980=IFCFACEOUTERBOUND(#468,.T.);
#981=IFCFACEOUTERBOUND(#469,.T.);
#982=IFCFACEOUTERBOUND(#470,.T.);
#983=IFCFACEOUTERBOUND(#471,.T.);
#984=IFCFACEOUTERBOUND(#472,.T.);
#985=IFCFACEOUTERBOUND(#473,.T.);
#986=IFCFACEOUTERBOUND(#474,.T.);
#987=IFCFACEOUTERBOUND(#475,.T.);
#988=IFCFACEOUTERBOUND(#476,.T.);
#989=IFCFACEOUTERBOUND(#477,.T.);
#990=IFCFACEOUTERBOUND(#478,.T.);
#991=IFCFACEOUTERBOUND(#479,.T.);
#992=IFCFACEOUTERBOUND(#480,.T.);
#993=IFCFACEOUTERBOUND(#481,.T.);
#994=IFCFACEOUTERBOUND(#482,.T.);
#995=IFCFACEOUTERBOUND(#483,.T.);
#996=IFCFACEOUTERBOUND(#484,.T.);
#997=IFCFACEOUTERBOUND(#485,.T.);
#998=IFCFACEOUTERBOUND(#486,.T.);
#999=IFCFACEOUTERBOUND(#487,.T.);
#1000=IFCFACEOUTERBOUND(#488,.T.);
#1001=IFCFACEOUTERBOUND(#489,.T.);
#1002=IFCFACEOUTERBOUND(#490,.T.);
#1003=IFCFACEOUTERBOUND(#491,.T.);
#1004=IFCFACEOUTERBOUND(#492,.T.);
#1005=IFCFACEOUTERBOUND(#493,.T.);
#1006=IFCFACEOUTERBOUND(#494,.T.);
#1007=IFCFACEOUTERBOUND(#495,.T.);
#1008=IFCFACEOUTERBOUND(#496,.T.);
#1009=IFCFACEOUTERBOUND(#497,.T.);
#1010=IFCFACEOUTERBOUND(#498,.T.);
#1011=IFCFACEOUTERBOUND(#499,.T.);
#1012=IFCFACEOUTERBOUND(#500,.T.);
#1013=IFCFACEOUTERBOUND(#501,.T.);
#1014=IFCFACEOUTERBOUND(#502,.T.);
#1015=IFCFACEOUTERBOUND(#503,.T.);
#1016=IFCFACEOUTERBOUND(#504,.T.);
#1017=IFCFACEOUTERBOUND(#505,.T.);
#1018=IFCFACEOUTERBOUND(#506,.T.);
#1019=IFCFACEOUTERBOUND(#507,.T.);
#1020=IFCFACEOUTERBOUND(#508,.T.);
#1021=IFCFACEOUTERBOUND(#509,.T.);
#1022=IFCFACEOUTERBOUND(#510,.T.);
#1023=IFCFACEOUTERBOUND(#511,.T.);
#1024=IFCFACEOUTERBOUND(#512,.T.);
#1025=IFCFACEOUTERBOUND(#513,.T.);
#1026=IFCFACEOUTERBOUND(#514,.T.);
#1027=IFCFACEOUTERBOUND(#515,.T.);
#1028=IFCFACEOUTERBOUND(#516,.T.);
#1029=IFCFACEOUTERBOUND(#517,.T.);
#1030=IFCFACEOUTERBOUND(#518,.T.);
#1031=IFCFACEOUTERBOUND(#519,.T.);
#1032=IFCFACEOUTERBOUND(#520,.T.);
#1033=IFCFACEOUTERBOUND(#521,.T.);
#1034=IFCFACEOUTERBOUND(#522,.T.);
#1035=IFCFACEOUTERBOUND(#523,.T.);
#1036=IFCFACEOUTERBOUND(#524,.T.);
#1037=IFCFACEOUTERBOUND(#525,.T.);
#1038=IFCFACEOUTERBOUND(#526,.T.);
#1039=IFCFACEOUTERBOUND(#527,.T.);
#1040=IFCFACEOUTERBOUND(#528,.T.);
#1041=IFCFACEOUTERBOUND(#529,.T.);
#1042=IFCFACEOUTERBOUND(#530,.T.);
#1043=IFCFACEOUTERBOUND(#531,.T.);
#1044=IFCFACEOUTERBOUND(#532,.T.);
#1045=IFCFACEOUTERBOUND(#533,.T.);
#1046=IFCFACEOUTERBOUND(#534,.T.);
#1047=IFCFACEOUTERBOUND(#535,.T.);
#1048=IFCFACEOUTERBOUND(#536,.T.);
#1049=IFCFACEOUTERBOUND(#537,.T.);
#1050=IFCFACE((#538));
#1051=IFCFACE((#539));
#1052=IFCFACE((#540));
#1053=IFCFACE((#541));
#1054=IFCFACE((#542));
#1055=IFCFACE((#543));
#1056=IFCFACE((#544));
#1057=IFCFACE((#545));
#1058=IFCFACE((#546));
#1059=IFCFACE((#547));
#1060=IFCFACE((#548));
#1061=IFCFACE((#549));
#1062=IFCFACE((#550));
#1063=IFCFACE((#551));
#1064=IFCFACE((#552));
#1065=IFCFACE((#553));
#1066=IFCFACE((#554));
#1067=IFCFACE((#555));
#1068=IFCFACE((#556));
#1069=IFCFACE((#557));
#1070=IFCFACE((#558));
#1071=IFCFACE((#559));
#1072=IFCFACE((#560));
#1073=IFCFACE((#561));
#1074=IFCFACE((#562));
#1075=IFCFACE((#563));
#1076=IFCFACE((#564));
#1077=IFCFACE((#565));
#1078=IFCFACE((#566));
#1079=IFCFACE((#567));
#1080=IFCFACE((#568));
#1081=IFCFACE((#569));
#1082=IFCFACE((#570));
#1083=IFCFACE((#571));
#1084=IFCFACE((#572));
#1085=IFCFACE((#573));
#1086=IFCFACE((#574));
#1087=IFCFACE((#575));
#1088=IFCFACE((#576));
#1089=IFCFACE((#577));
#1090=IFCFACE((#578));
#1091=IFCFACE((#579));
#1092=IFCFACE((#580));
#1093=IFCFACE((#581));
#1094=IFCFACE((#582));
#1095=IFCFACE((#583));
#1096=IFCFACE((#584));
#1097=IFCFACE((#585));
#1098=IFCFACE((#586));
#1099=IFCFACE((#587));
#1100=IFCFACE((#588));
#1101=IFCFACE((#589));
#1102=IFCFACE((#590));
#1103=IFCFACE((#591));
#1104=IFCFACE((#592));
#1105=IFCFACE((#593));
#1106=IFCFACE((#594));
#1107=IFCFACE((#595));
#1108=IFCFACE((#596));
#1109=IFCFACE((#597));
#1110=IFCFACE((#598));
#1111=IFCFACE((#599));
#1112=IFCFACE((#600));
#1113=IFCFACE((#601));
#1114=IFCFACE((#602));
#1115=IFCFACE((#603));
#1116=IFCFACE((#604));
#1117=IFCFACE((#605));
#1118=IFCFACE((#606));
#1119=IFCFACE((#607));
#1120=IFCFACE((#608));
#1121=IFCFACE((#609));
#1122=IFCFACE((#610));
#1123=IFCFACE((#611));
#1124=IFCFACE((#612));
#1125=IFCFACE((#613));
#1126=IFCFACE((#614));
#1127=IFCFACE((#615));
#1128=IFCFACE((#616));
#1129=IFCFACE((#617));
#1130=IFCFACE((#618));
#1131=IFCFACE((#619));
#1132=IFCFACE((#620));
#1133=IFCFACE((#621));
#1134=IFCFACE((#622));
#1135=IFCFACE((#623));
#1136=IFCFACE((#624));
#1137=IFCFACE((#625));
#1138=IFCFACE((#626));
#1139=IFCFACE((#627));
#1140=IFCFACE((#628));
#1141=IFCFACE((#629));
#1142=IFCFACE((#630));
#1143=IFCFACE((#631));
#1144=IFCFACE((#632));
#1145=IFCFACE((#633));
#1146=IFCFACE((#634));
#1147=IFCFACE((#635));
#1148=IFCFACE((#636));
#1149=IFCFACE((#637));
#1150=IFCFACE((#638));
#1151=IFCFACE((#639));
#1152=IFCFACE((#640));
#1153=IFCFACE((#641));
#1154=IFCFACE((#642));
#1155=IFCFACE((#643));
#1156=IFCFACE((#644));
#1157=IFCFACE((#645));
#1158=IFCFACE((#646));
#1159=IFCFACE((#647));
#1160=IFCFACE((#648));
#1161=IFCFACE((#649));
#1162=IFCFACE((#650));
#1163=IFCFACE((#651));
#1164=IFCFACE((#652));
#1165=IFCFACE((#653));
#1166=IFCFACE((#654));
#1167=IFCFACE((#655));
#1168=IFCFACE((#656));
#1169=IFCFACE((#657));
#1170=IFCFACE((#658));
#1171=IFCFACE((#659));
#1172=IFCFACE((#660));
#1173=IFCFACE((#661));
#1174=IFCFACE((#662));
#1175=IFCFACE((#663));
#1176=IFCFACE((#664));
#1177=IFCFACE((#665));
#1178=IFCFACE((#666));
#1179=IFCFACE((#667));
#1180=IFCFACE((#668));
#1181=IFCFACE((#669));
#1182=IFCFACE((#670));
#1183=IFCFACE((#671));
#1184=IFCFACE((#672));
#1185=IFCFACE((#673));
#1186=IFCFACE((#674));
#1187=IFCFACE((#675));
#1188=IFCFACE((#676));
#1189=IFCFACE((#677));
#1190=IFCFACE((#678));
#1191=IFCFACE((#679));
#1192=IFCFACE((#680));
#1193=IFCFACE((#681));
#1194=IFCFACE((#682));
#1195=IFCFACE((#683));
#1196=IFCFACE((#684));
#1197=IFCFACE((#685));
#1198=IFCFACE((#686));
#1199=IFCFACE((#687));
#1200=IFCFACE((#688));
#1201=IFCFACE((#689));
#1202=IFCFACE((#690));
#1203=IFCFACE((#691));
#1204=IFCFACE((#692));
#1205=IFCFACE((#693));
#1206=IFCFACE((#694));
#1207=IFCFACE((#695));
#1208=IFCFACE((#696));
#1209=IFCFACE((#697));
#1210=IFCFACE((#698));
#1211=IFCFACE((#699));
#1212=IFCFACE((#700));
#1213=IFCFACE((#701));
#1214=IFCFACE((#702));
#1215=IFCFACE((#703));
#1216=IFCFACE((#704));
#1217=IFCFACE((#705));
#1218=IFCFACE((#706));
#1219=IFCFACE((#707));
#1220=IFCFACE((#708));
#1221=IFCFACE((#709));
#1222=IFCFACE((#710));
#1223=IFCFACE((#711));
#1224=IFCFACE((#712));
#1225=IFCFACE((#713));
#1226=IFCFACE((#714));
#1227=IFCFACE((#715));
#1228=IFCFACE((#716));
#1229=IFCFACE((#717));
#1230=IFCFACE((#718));
#1231=IFCFACE((#719));
#1232=IFCFACE((#720));
#1233=IFCFACE((#721));
#1234=IFCFACE((#722));
#1235=IFCFACE((#723));
#1236=IFCFACE((#724));
#1237=IFCFACE((#725));
#1238=IFCFACE((#726));
#1239=IFCFACE((#727));
#1240=IFCFACE((#728));
#1241=IFCFACE((#729));
#1242=IFCFACE((#730));
#1243=IFCFACE((#731));
#1244=IFCFACE((#732));
#1245=IFCFACE((#733));
#1246=IFCFACE((#734));
#1247=IFCFACE((#735));
#1248=IFCFACE((#736));
#1249=IFCFACE((#737));
#1250=IFCFACE((#738));
#1251=IFCFACE((#739));
#1252=IFCFACE((#740));
#1253=IFCFACE((#741));
#1254=IFCFACE((#742));
#1255=IFCFACE((#743));
#1256=IFCFACE((#744));
#1257=IFCFACE((#745));
#1258=IFCFACE((#746));
#1259=IFCFACE((#747));
#1260=IFCFACE((#748));
#1261=IFCFACE((#749));
#1262=IFCFACE((#750));
#1263=IFCFACE((#751));
#1264=IFCFACE((#752));
#1265=IFCFACE((#753));
#1266=IFCFACE((#754));
#1267=IFCFACE((#755));
#1268=IFCFACE((#756));
#1269=IFCFACE((#757));
#1270=IFCFACE((#758));
#1271=IFCFACE((#759));
#1272=IFCFACE((#760));
#1273=IFCFACE((#761));
#1274=IFCFACE((#762));
#1275=IFCFACE((#763));
#1276=IFCFACE((#764));
#1277=IFCFACE((#765));
#1278=IFCFACE((#766));
#1279=IFCFACE((#767));
#1280=IFCFACE((#768));
#1281=IFCFACE((#769));
#1282=IFCFACE((#770));
#1283=IFCFACE((#771));
#1284=IFCFACE((#772));
#1285=IFCFACE((#773));
#1286=IFCFACE((#774));
#1287=IFCFACE((#775));
#1288=IFCFACE((#776));
#1289=IFCFACE((#777));
#1290=IFCFACE((#778));
#1291=IFCFACE((#779));
#1292=IFCFACE((#780));
#1293=IFCFACE((#781));
#1294=IFCFACE((#782));
#1295=IFCFACE((#783));
#1296=IFCFACE((#784));
#1297=IFCFACE((#785));
#1298=IFCFACE((#786));
#1299=IFCFACE((#787));
#1300=IFCFACE((#788));
#1301=IFCFACE((#789));
#1302=IFCFACE((#790));
#1303=IFCFACE((#791));
#1304=IFCFACE((#792));
#1305=IFCFACE((#793));
#1306=IFCFACE((#794));
#1307=IFCFACE((#795));
#1308=IFCFACE((#796));
#1309=IFCFACE((#797));
#1310=IFCFACE((#798));
#1311=IFCFACE((#799));
#1312=IFCFACE((#800));
#1313=IFCFACE((#801));
#1314=IFCFACE((#802));
#1315=IFCFACE((#803));
#1316=IFCFACE((#804));
#1317=IFCFACE((#805));
#1318=IFCFACE((#806));
#1319=IFCFACE((#807));
#1320=IFCFACE((#808));
#1321=IFCFACE((#809));
#1322=IFCFACE((#810));
#1323=IFCFACE((#811));
#1324=IFCFACE((#812));
#1325=IFCFACE((#813));
#1326=IFCFACE((#814));
#1327=IFCFACE((#815));
#1328=IFCFACE((#816));
#1329=IFCFACE((#817));
#1330=IFCFACE((#818));
#1331=IFCFACE((#819));
#1332=IFCFACE((#820));
#1333=IFCFACE((#821));
#1334=IFCFACE((#822));
#1335=IFCFACE((#823));
#1336=IFCFACE((#824));
#1337=IFCFACE((#825));
#1338=IFCFACE((#826));
#1339=IFCFACE((#827));
#1340=IFCFACE((#828));
#1341=IFCFACE((#829));
#1342=IFCFACE((#830));
#1343=IFCFACE((#831));
#1344=IFCFACE((#832));
#1345=IFCFACE((#833));
#1346=IFCFACE((#834));
#1347=IFCFACE((#835));
#1348=IFCFACE((#836));
#1349=IFCFACE((#837));
#1350=IFCFACE((#838));
#1351=IFCFACE((#839));
#1352=IFCFACE((#840));
#1353=IFCFACE((#841));
#1354=IFCFACE((#842));
#1355=IFCFACE((#843));
#1356=IFCFACE((#844));
#1357=IFCFACE((#845));
#1358=IFCFACE((#846));
#1359=IFCFACE((#847));
#1360=IFCFACE((#848));
#1361=IFCFACE((#849));
#1362=IFCFACE((#850));
#1363=IFCFACE((#851));
#1364=IFCFACE((#852));
#1365=IFCFACE((#853));
#1366=IFCFACE((#854));
#1367=IFCFACE((#855));
#1368=IFCFACE((#856));
#1369=IFCFACE((#857));
#1370=IFCFACE((#858));
#1371=IFCFACE((#859));
#1372=IFCFACE((#860));
#1373=IFCFACE((#861));
#1374=IFCFACE((#862));
#1375=IFCFACE((#863));
#1376=IFCFACE((#864));
#1377=IFCFACE((#865));
#1378=IFCFACE((#866));
#1379=IFCFACE((#867));
#1380=IFCFACE((#868));
#1381=IFCFACE((#869));
#1382=IFCFACE((#870));
#1383=IFCFACE((#871));
#1384=IFCFACE((#872));
#1385=IFCFACE((#873));
#1386=IFCFACE((#874));
#1387=IFCFACE((#875));
#1388=IFCFACE((#876));
#1389=IFCFACE((#877));
#1390=IFCFACE((#878));
#1391=IFCFACE((#879));
#1392=IFCFACE((#880));
#1393=IFCFACE((#881));
#1394=IFCFACE((#882));
#1395=IFCFACE((#883));
#1396=IFCFACE((#884));
#1397=IFCFACE((#885));
#1398=IFCFACE((#886));
#1399=IFCFACE((#887));
#1400=IFCFACE((#888));
#1401=IFCFACE((#889));
#1402=IFCFACE((#890));
#1403=IFCFACE((#891));
#1404=IFCFACE((#892));
#1405=IFCFACE((#893));
#1406=IFCFACE((#894));
#1407=IFCFACE((#895));
#1408=IFCFACE((#896));
#1409=IFCFACE((#897));
#1410=IFCFACE((#898));
#1411=IFCFACE((#899));
#1412=IFCFACE((#900));
#1413=IFCFACE((#901));
#1414=IFCFACE((#902));
#1415=IFCFACE((#903));
#1416=IFCFACE((#904));
#1417=IFCFACE((#905));
#1418=IFCFACE((#906));
#1419=IFCFACE((#907));
#1420=IFCFACE((#908));
#1421=IFCFACE((#909));
#1422=IFCFACE((#910));
#1423=IFCFACE((#911));
#1424=IFCFACE((#912));
#1425=IFCFACE((#913));
#1426=IFCFACE((#914));
#1427=IFCFACE((#915));
#1428=IFCFACE((#916));
#1429=IFCFACE((#917));
#1430=IFCFACE((#918));
#1431=IFCFACE((#919));
#1432=IFCFACE((#920));
#1433=IFCFACE((#921));
#1434=IFCFACE((#922));
#1435=IFCFACE((#923));
#1436=IFCFACE((#924));
#1437=IFCFACE((#925));
#1438=IFCFACE((#926));
#1439=IFCFACE((#927));
#1440=IFCFACE((#928));
#1441=IFCFACE((#929));
#1442=IFCFACE((#930));
#1443=IFCFACE((#931));
#1444=IFCFACE((#932));
#1445=IFCFACE((#933));
#1446=IFCFACE((#934));
#1447=IFCFACE((#935));
#1448=IFCFACE((#936));
#1449=IFCFACE((#937));
#1450=IFCFACE((#938));
#1451=IFCFACE((#939));
#1452=IFCFACE((#940));
#1453=IFCFACE((#941));
#1454=IFCFACE((#942));
#1455=IFCFACE((#943));
#1456=IFCFACE((#944));
#1457=IFCFACE((#945));
#1458=IFCFACE((#946));
#1459=IFCFACE((#947));
#1460=IFCFACE((#948));
#1461=IFCFACE((#949));
#1462=IFCFACE((#950));
#1463=IFCFACE((#951));
#1464=IFCFACE((#952));
#1465=IFCFACE((#953));
#1466=IFCFACE((#954));
#1467=IFCFACE((#955));
#1468=IFCFACE((#956));
#1469=IFCFACE((#957));
#1470=IFCFACE((#958));
#1471=IFCFACE((#959));
#1472=IFCFACE((#960));
#1473=IFCFACE((#961));
#1474=IFCFACE((#962));
#1475=IFCFACE((#963));
#1476=IFCFACE((#964));
#1477=IFCFACE((#965));
#1478=IFCFACE((#966));
#1479=IFCFACE((#967));
#1480=IFCFACE((#968));
#1481=IFCFACE((#969));
#1482=IFCFACE((#970));
#1483=IFCFACE((#971));
#1484=IFCFACE((#972));
#1485=IFCFACE((#973));
#1486=IFCFACE((#974));
#1487=IFCFACE((#975));
#1488=IFCFACE((#976));
#1489=IFCFACE((#977));
#1490=IFCFACE((#978));
#1491=IFCFACE((#979));
#1492=IFCFACE((#980));
#1493=IFCFACE((#981));
#1494=IFCFACE((#982));
#1495=IFCFACE((#983));
#1496=IFCFACE((#984));
#1497=IFCFACE((#985));
#1498=IFCFACE((#986));
#1499=IFCFACE((#987));
#1500=IFCFACE((#988));
#1501=IFCFACE((#989));
#1502=IFCFACE((#990));
#1503=IFCFACE((#991));
#1504=IFCFACE((#992));
#1505=IFCFACE((#993));
#1506=IFCFACE((#994));
#1507=IFCFACE((#995));
#1508=IFCFACE((#996));
#1509=IFCFACE((#997));
#1510=IFCFACE((#998));
#1511=IFCFACE((#999));
#1512=IFCFACE((#1000));
#1513=IFCFACE((#1001));
#1514=IFCFACE((#1002));
#1515=IFCFACE((#1003));
#1516=IFCFACE((#1004));
#1517=IFCFACE((#1005));
#1518=IFCFACE((#1006));
#1519=IFCFACE((#1007));
#1520=IFCFACE((#1008));
#1521=IFCFACE((#1009));
#1522=IFCFACE((#1010));
#1523=IFCFACE((#1011));
#1524=IFCFACE((#1012));
#1525=IFCFACE((#1013));
#1526=IFCFACE((#1014));
#1527=IFCFACE((#1015));
#1528=IFCFACE((#1016));
#1529=IFCFACE((#1017));
#1530=IFCFACE((#1018));
#1531=IFCFACE((#1019));
#1532=IFCFACE((#1020));
#1533=IFCFACE((#1021));
#1534=IFCFACE((#1022));
#1535=IFCFACE((#1023));
#1536=IFCFACE((#1024));
#1537=IFCFACE((#1025));
#1538=IFCFACE((#1026));
#1539=IFCFACE((#1027));
#1540=IFCFACE((#1028));
#1541=IFCFACE((#1029));
#1542=IFCFACE((#1030));
#1543=IFCFACE((#1031));
#1544=IFCFACE((#1032));
#1545=IFCFACE((#1033));
#1546=IFCFACE((#1034));
#1547=IFCFACE((#1035));
#1548=IFCFACE((#1036));
#1549=IFCFACE((#1037));
#1550=IFCFACE((#1038));
#1551=IFCFACE((#1039));
#1552=IFCFACE((#1040));
#1553=IFCFACE((#1041));
#1554=IFCFACE((#1042));
#1555=IFCFACE((#1043));
#1556=IFCFACE((#1044));
#1557=IFCFACE((#1045));
#1558=IFCFACE((#1046));
#1559=IFCFACE((#1047));
#1560=IFCFACE((#1048));
#1561=IFCFACE((#1049));
#1562=IFCCLOSEDSHELL((#1050,#1051,#1052,#1053,#1054,#1055,#1056,#1057,#1058,
#1059,#1060,#1061,#1062,#1063,#1064,#1065,#1066,#1067,#1068,#1069,#1070,
#1071,#1072,#1073,#1074,#1075,#1076,#1077,#1078,#1079,#1080,#1081,#1082,
#1083,#1084,#1085,#1086,#1087,#1088,#1089,#1090,#1091,#1092,#1093,#1094,
#1095,#1096,#1097,#1098,#1099,#1100,#1101,#1102,#1103,#1104,#1105,#1106,
#1107,#1108,#1109,#1110,#1111,#1112,#1113,#1114,#1115,#1116,#1117,#1118,
#1119,#1120,#1121,#1122,#1123,#1124,#1125,#1126,#1127,#1128,#1129,#1130,
#1131,#1132,#1133,#1134,#1135,#1136,#1137,#1138,#1139,#1140,#1141,#1142,
#1143,#1144,#1145,#1146,#1147,#1148,#1149,#1150,#1151,#1152,#1153,#1154,
#1155,#1156,#1157,#1158,#1159,#1160,#1161,#1162,#1163,#1164,#1165,#1166,
#1167,#1168,#1169,#1170,#1171,#1172,#1173,#1174,#1175,#1176,#1177,#1178,
#1179,#1180,#1181,#1182,#1183,#1184,#1185,#1186,#1187,#1188,#1189,#1190,
#1191,#1192,#1193,#1194,#1195,#1196,#1197,#1198,#1199,#1200,#1201,#1202,
#1203,#1204,#1205,#1206,#1207,#1208,#1209,#1210,#1211,#1212,#1213,#1214,
#1215,#1216,#1217,#1218,#1219,#1220,#1221,#1222,#1223,#1224,#1225,#1226,
#1227,#1228,#1229,#1230,#1231,#1232,#1233,#1234,#1235,#1236,#1237,#1238,
#1239,#1240,#1241,#1242,#1243,#1244,#1245,#1246,#1247,#1248,#1249,#1250,
#1251,#1252,#1253,#1254,#1255,#1256,#1257,#1258,#1259,#1260,#1261,#1262,
#1263,#1264,#1265,#1266,#1267,#1268,#1269,#1270,#1271,#1272,#1273,#1274,
#1275,#1276,#1277,#1278,#1279,#1280,#1281,#1282,#1283,#1284,#1285,#1286,
#1287,#1288,#1289,#1290,#1291,#1292,#1293,#1294,#1295,#1296,#1297,#1298,
#1299,#1300,#1301,#1302,#1303,#1304,#1305,#1306,#1307,#1308,#1309,#1310,
#1311,#1312,#1313,#1314,#1315,#1316,#1317,#1318,#1319,#1320,#1321,#1322,
#1323,#1324,#1325,#1326,#1327,#1328,#1329,#1330,#1331,#1332,#1333,#1334,
#1335,#1336,#1337,#1338,#1339,#1340,#1341,#1342,#1343,#1344,#1345,#1346,
#1347,#1348,#1349,#1350,#1351,#1352,#1353,#1354,#1355,#1356,#1357,#1358,
#1359,#1360,#1361,#1362,#1363,#1364,#1365,#1366,#1367,#1368,#1369,#1370,
#1371,#1372,#1373,#1374,#1375,#1376,#1377,#1378,#1379,#1380,#1381,#1382,
#1383,#1384,#1385,#1386,#1387,#1388,#1389,#1390,#1391,#1392,#1393,#1394,
#1395,#1396,#1397,#1398,#1399,#1400,#1401,#1402,#1403,#1404,#1405,#1406,
#1407,#1408,#1409,#1410,#1411,#1412,#1413,#1414,#1415,#1416,#1417,#1418,
#1419,#1420,#1421,#1422,#1423,#1424,#1425,#1426,#1427,#1428,#1429,#1430,
#1431,#1432,#1433,#1434,#1435,#1436,#1437,#1438,#1439,#1440,#1441,#1442,
#1443,#1444,#1445,#1446,#1447,#1448,#1449,#1450,#1451,#1452,#1453,#1454,
#1455,#1456,#1457,#1458,#1459,#1460,#1461,#1462,#1463,#1464,#1465,#1466,
#1467,#1468,#1469,#1470,#1471,#1472,#1473,#1474,#1475,#1476,#1477,#1478,
#1479,#1480,#1481,#1482,#1483,#1484,#1485,#1486,#1487,#1488,#1489,#1490,
#1491,#1492,#1493,#1494,#1495,#1496,#1497,#1498,#1499,#1500,#1501,#1502,
#1503,#1504,#1505,#1506,#1507,#1508,#1509,#1510,#1511,#1512,#1513,#1514,
#1515,#1516,#1517,#1518,#1519,#1520,#1521,#1522,#1523,#1524,#1525,#1526,
#1527,#1528,#1529,#1530,#1531,#1532,#1533,#1534,#1535,#1536,#1537,#1538,
#1539,#1540,#1541,#1542,#1543,#1544,#1545,#1546,#1547,#1548,#1549,#1550,
#1551,#1552,#1553,#1554,#1555,#1556,#1557,#1558,#1559,#1560,#1561));
#1563=IFCSTYLEDITEM(#1568,(#1564),'');
#1564=IFCPRESENTATIONSTYLEASSIGNMENT((#1565));
#1565=IFCSURFACESTYLE('',.BOTH.,(#1566));
#1566=IFCSURFACESTYLERENDERING(#1567,0.,$,$,$,$,$,$,.NOTDEFINED.);
#1567=IFCCOLOURRGB('',0.5,0.5,0.5);
#1568=IFCFACETEDBREP(#1562);
#1569=IFCPROJECT('07hUkdHgGydfWsFJH56q5B',#2042,'Gray_4638507_a)_AVV',
' ',' ',' ',' ',(#2037),#1570);
#1570=IFCUNITASSIGNMENT((#2038,#2039,#2040,#2041));
#1571=IFCGEOMETRICREPRESENTATIONSUBCONTEXT('Body','Model',*,*,*,*,#2037,
1.,.MODEL_VIEW.,$);
#1572=IFCAXIS2PLACEMENT3D(#1578,#1574,#1575);
#1573=IFCAXIS2PLACEMENT3D(#2036,#1576,#1577);
#1574=IFCDIRECTION((0.,0.,1.));
#1575=IFCDIRECTION((1.,0.,0.));
#1576=IFCDIRECTION((0.,0.,1.));
#1577=IFCDIRECTION((1.,0.,0.));
#1578=IFCCARTESIANPOINT((0.,0.,0.));
#1579=IFCCARTESIANPOINT((-14.,4.59619407771256,4.59619407771256));
#1580=IFCCARTESIANPOINT((-14.,6.00521696132337,2.48744231037308));
#1581=IFCCARTESIANPOINT((-14.,2.86402655078499,1.18631864033178));
#1582=IFCCARTESIANPOINT((-14.,2.1920310216783,2.1920310216783));
#1583=IFCCARTESIANPOINT((-14.,6.5,-1.04527972228981E-15));
#1584=IFCCARTESIANPOINT((-14.,6.00521696132337,-2.48744231037309));
#1585=IFCCARTESIANPOINT((-14.,2.86402655078499,-1.18631864033178));
#1586=IFCCARTESIANPOINT((-14.,3.1,-4.98518021399757E-16));
#1587=IFCCARTESIANPOINT((-14.,-6.00521696132337,-2.48744231037308));
#1588=IFCCARTESIANPOINT((-14.,-6.5,-1.19403062916867E-15));
#1589=IFCCARTESIANPOINT((-14.,-3.1,-5.69460761603519E-16));
#1590=IFCCARTESIANPOINT((-14.,-2.86402655078499,-1.18631864033178));
#1591=IFCCARTESIANPOINT((-14.,1.18631864033178,2.86402655078499));
#1592=IFCCARTESIANPOINT((-14.,2.48744231037308,6.00521696132337));
#1593=IFCCARTESIANPOINT((-14.,4.59619407771256,-4.59619407771256));
#1594=IFCCARTESIANPOINT((-14.,2.1920310216783,-2.1920310216783));
#1595=IFCCARTESIANPOINT((-14.,2.48744231037308,-6.00521696132337));
#1596=IFCCARTESIANPOINT((-14.,7.9602041944578E-16,-6.5));
#1597=IFCCARTESIANPOINT((-14.,3.79640507735679E-16,-3.1));
#1598=IFCCARTESIANPOINT((-14.,1.18631864033178,-2.86402655078499));
#1599=IFCCARTESIANPOINT((-14.,-2.48744231037308,-6.00521696132337));
#1600=IFCCARTESIANPOINT((-14.,-4.59619407771256,-4.59619407771256));
#1601=IFCCARTESIANPOINT((-14.,-2.1920310216783,-2.1920310216783));
#1602=IFCCARTESIANPOINT((-14.,-1.18631864033178,-2.86402655078499));
#1603=IFCCARTESIANPOINT((-14.,-6.00521696132337,2.48744231037309));
#1604=IFCCARTESIANPOINT((-14.,-2.86402655078499,1.18631864033178));
#1605=IFCCARTESIANPOINT((-14.,-4.59619407771256,4.59619407771256));
#1606=IFCCARTESIANPOINT((-14.,-2.48744231037308,6.00521696132337));
#1607=IFCCARTESIANPOINT((-14.,-1.18631864033178,2.86402655078499));
#1608=IFCCARTESIANPOINT((-14.,-2.1920310216783,2.1920310216783));
#1609=IFCCARTESIANPOINT((-14.,0.,6.5));
#1610=IFCCARTESIANPOINT((-14.,0.,3.1));
#1611=IFCCARTESIANPOINT((0.,1.18631864033178,2.86402655078499));
#1612=IFCCARTESIANPOINT((0.,0.,3.1));
#1613=IFCCARTESIANPOINT((0.,2.1920310216783,2.1920310216783));
#1614=IFCCARTESIANPOINT((0.,2.86402655078499,1.18631864033178));
#1615=IFCCARTESIANPOINT((0.,3.1,-4.98518021399757E-16));
#1616=IFCCARTESIANPOINT((0.,2.86402655078499,-1.18631864033178));
#1617=IFCCARTESIANPOINT((0.,2.1920310216783,-2.1920310216783));
#1618=IFCCARTESIANPOINT((0.,1.18631864033178,-2.86402655078499));
#1619=IFCCARTESIANPOINT((0.,3.79640507735679E-16,-3.1));
#1620=IFCCARTESIANPOINT((0.,-1.18631864033178,-2.86402655078499));
#1621=IFCCARTESIANPOINT((0.,-2.1920310216783,-2.1920310216783));
#1622=IFCCARTESIANPOINT((0.,-2.86402655078499,-1.18631864033178));
#1623=IFCCARTESIANPOINT((0.,-3.1,-5.69460761603519E-16));
#1624=IFCCARTESIANPOINT((0.,-2.86402655078499,1.18631864033178));
#1625=IFCCARTESIANPOINT((0.,-2.1920310216783,2.1920310216783));
#1626=IFCCARTESIANPOINT((0.,-1.18631864033178,2.86402655078499));
#1627=IFCCARTESIANPOINT((-5.74923612948856E-16,-4.07921561087423,4.4));
#1628=IFCCARTESIANPOINT((0.,-5.28286694293596,2.84452401347474));
#1629=IFCCARTESIANPOINT((0.,-5.91886217794792,0.983397436674338));
#1630=IFCCARTESIANPOINT((0.,5.91886217794791,0.983397436674344));
#1631=IFCCARTESIANPOINT((0.,5.28286694293596,2.84452401347475));
#1632=IFCCARTESIANPOINT((0.,-5.91886217794791,-0.983397436674351));
#1633=IFCCARTESIANPOINT((0.,-5.28286694293596,-2.84452401347475));
#1634=IFCCARTESIANPOINT((-5.74923612948856E-16,4.,-4.4));
#1635=IFCCARTESIANPOINT((-5.74923612948856E-16,4.07921561087423,-4.4));
#1636=IFCCARTESIANPOINT((0.,5.28286694293596,-2.84452401347475));
#1637=IFCCARTESIANPOINT((0.,5.91886217794791,-0.983397436674347));
#1638=IFCCARTESIANPOINT((0.,-4.07921561087423,-4.4));
#1639=IFCCARTESIANPOINT((-5.74923612948856E-16,4.07921561087423,4.4));
#1640=IFCCARTESIANPOINT((-5.74923612948856E-16,-4.,-4.4));
#1641=IFCCARTESIANPOINT((-8.,-5.28286694293596,2.84452401347474));
#1642=IFCCARTESIANPOINT((-8.,-4.07921561087423,4.4));
#1643=IFCCARTESIANPOINT((-8.,-5.91886217794792,0.983397436674338));
#1644=IFCCARTESIANPOINT((-8.,-5.91886217794791,-0.983397436674351));
#1645=IFCCARTESIANPOINT((-8.,-5.28286694293596,-2.84452401347475));
#1646=IFCCARTESIANPOINT((-8.,-4.07921561087423,-4.4));
#1647=IFCCARTESIANPOINT((-8.,4.07921561087423,4.4));
#1648=IFCCARTESIANPOINT((-8.,5.28286694293596,-2.84452401347475));
#1649=IFCCARTESIANPOINT((-8.,4.07921561087423,-4.4));
#1650=IFCCARTESIANPOINT((-8.,5.91886217794791,-0.983397436674347));
#1651=IFCCARTESIANPOINT((-8.,5.91886217794791,0.983397436674344));
#1652=IFCCARTESIANPOINT((-8.,5.28286694293596,2.84452401347475));
#1653=IFCCARTESIANPOINT((-8.,7.02148444708578,-2.90839408597468));
#1654=IFCCARTESIANPOINT((-8.,7.6,-1.22217321375424E-15));
#1655=IFCCARTESIANPOINT((-8.,-7.6,-1.39609735102798E-15));
#1656=IFCCARTESIANPOINT((-8.,-7.02148444708578,-2.90839408597468));
#1657=IFCCARTESIANPOINT((-8.,-5.37401153701776,-5.37401153701776));
#1658=IFCCARTESIANPOINT((-8.,7.02148444708578,2.90839408597468));
#1659=IFCCARTESIANPOINT((-8.,5.37401153701776,5.37401153701776));
#1660=IFCCARTESIANPOINT((-8.,-7.02148444708577,2.90839408597468));
#1661=IFCCARTESIANPOINT((-8.,2.90839408597468,7.02148444708578));
#1662=IFCCARTESIANPOINT((-8.,0.,7.6));
#1663=IFCCARTESIANPOINT((-8.,-2.90839408597468,7.02148444708578));
#1664=IFCCARTESIANPOINT((-8.,-5.37401153701776,5.37401153701776));
#1665=IFCCARTESIANPOINT((-8.,-2.90839408597468,-7.02148444708578));
#1666=IFCCARTESIANPOINT((-8.,9.30731567351988E-16,-7.6));
#1667=IFCCARTESIANPOINT((-8.,2.90839408597468,-7.02148444708578));
#1668=IFCCARTESIANPOINT((-8.,5.37401153701776,-5.37401153701776));
#1669=IFCCARTESIANPOINT((-4.,4.,-4.4));
#1670=IFCCARTESIANPOINT((-4.,-4.,-4.4));
#1671=IFCCARTESIANPOINT((-5.37766035651432,4.,-4.67403368295937));
#1672=IFCCARTESIANPOINT((-5.37766035651432,-4.,-4.67403368295937));
#1673=IFCCARTESIANPOINT((-6.54558441227157,4.,-5.45441558772843));
#1674=IFCCARTESIANPOINT((-6.54558441227157,-4.,-5.45441558772843));
#1675=IFCCARTESIANPOINT((-7.32596631704063,4.,-6.62233964348568));
#1676=IFCCARTESIANPOINT((-7.32596631704063,-4.,-6.62233964348568));
#1677=IFCCARTESIANPOINT((-7.6,4.,-8.));
#1678=IFCCARTESIANPOINT((-7.6,-4.,-8.));
#1679=IFCCARTESIANPOINT((-7.32596631704063,4.,-9.37766035651433));
#1680=IFCCARTESIANPOINT((-7.32596631704063,-4.,-9.37766035651433));
#1681=IFCCARTESIANPOINT((-6.54558441227157,4.,-10.5455844122716));
#1682=IFCCARTESIANPOINT((-6.54558441227157,-4.,-10.5455844122716));
#1683=IFCCARTESIANPOINT((-5.37766035651432,4.,-11.3259663170406));
#1684=IFCCARTESIANPOINT((-5.37766035651432,-4.,-11.3259663170406));
#1685=IFCCARTESIANPOINT((-4.,4.,-11.6));
#1686=IFCCARTESIANPOINT((-4.,-4.,-11.6));
#1687=IFCCARTESIANPOINT((4.,-4.,-4.4));
#1688=IFCCARTESIANPOINT((4.,4.,-4.4));
#1689=IFCCARTESIANPOINT((5.37766035651432,4.,-11.3259663170406));
#1690=IFCCARTESIANPOINT((5.37766035651432,-4.,-11.3259663170406));
#1691=IFCCARTESIANPOINT((4.,-4.,-11.6));
#1692=IFCCARTESIANPOINT((4.,4.,-11.6));
#1693=IFCCARTESIANPOINT((6.54558441227157,4.,-10.5455844122716));
#1694=IFCCARTESIANPOINT((6.54558441227157,-4.,-10.5455844122716));
#1695=IFCCARTESIANPOINT((7.32596631704063,4.,-9.37766035651432));
#1696=IFCCARTESIANPOINT((7.32596631704063,-4.,-9.37766035651432));
#1697=IFCCARTESIANPOINT((7.6,4.,-8.));
#1698=IFCCARTESIANPOINT((7.6,-4.,-8.));
#1699=IFCCARTESIANPOINT((7.32596631704063,4.,-6.62233964348568));
#1700=IFCCARTESIANPOINT((7.32596631704063,-4.,-6.62233964348568));
#1701=IFCCARTESIANPOINT((6.54558441227157,4.,-5.45441558772843));
#1702=IFCCARTESIANPOINT((6.54558441227157,-4.,-5.45441558772843));
#1703=IFCCARTESIANPOINT((5.37766035651432,4.,-4.67403368295937));
#1704=IFCCARTESIANPOINT((5.37766035651432,-4.,-4.67403368295937));
#1705=IFCCARTESIANPOINT((-20.,0.4,-6.48768063332344));
#1706=IFCCARTESIANPOINT((-24.,2.48744231037308,-6.00521696132337));
#1707=IFCCARTESIANPOINT((-24.,0.4,-6.48768063332344));
#1708=IFCCARTESIANPOINT((-20.,7.9602041944578E-16,-6.5));
#1709=IFCCARTESIANPOINT((-20.,-0.4,-6.48768063332344));
#1710=IFCCARTESIANPOINT((-24.,-2.48744231037308,-6.00521696132337));
#1711=IFCCARTESIANPOINT((-24.,-4.,-5.12347538297978));
#1712=IFCCARTESIANPOINT((-22.6751242717499,-4.59619407771256,-4.59619407771256));
#1713=IFCCARTESIANPOINT((-18.5139983925127,-6.46870072336928,-0.637111412142143));
#1714=IFCCARTESIANPOINT((-18.7219903941755,-6.375104322621,-1.26808709310483));
#1715=IFCCARTESIANPOINT((-19.5439623081703,-6.00521696132337,-2.48744231037308));
#1716=IFCCARTESIANPOINT((-18.4444444444444,-6.5,-1.19403062916867E-15));
#1717=IFCCARTESIANPOINT((-18.5139983925127,-6.46870072336928,0.637111412142141));
#1718=IFCCARTESIANPOINT((-18.7219903941755,-6.375104322621,1.26808709310483));
#1719=IFCCARTESIANPOINT((-24.,-2.48744231037308,6.00521696132337));
#1720=IFCCARTESIANPOINT((-22.6751242717499,-4.59619407771256,4.59619407771256));
#1721=IFCCARTESIANPOINT((-20.,-0.4,6.48768063332344));
#1722=IFCCARTESIANPOINT((-24.,-0.4,6.48768063332344));
#1723=IFCCARTESIANPOINT((-20.,0.,6.5));
#1724=IFCCARTESIANPOINT((-20.,0.4,6.48768063332344));
#1725=IFCCARTESIANPOINT((-24.,2.48744231037308,6.00521696132337));
#1726=IFCCARTESIANPOINT((-24.,4.,5.1234753829798));
#1727=IFCCARTESIANPOINT((-22.6751242717499,4.59619407771256,4.59619407771256));
#1728=IFCCARTESIANPOINT((-18.5139983925127,6.46870072336928,0.637111412142141));
#1729=IFCCARTESIANPOINT((-18.7219903941755,6.375104322621,1.26808709310483));
#1730=IFCCARTESIANPOINT((-19.5439623081703,6.00521696132337,2.48744231037308));
#1731=IFCCARTESIANPOINT((-18.4444444444444,6.5,-1.04527972228981E-15));
#1732=IFCCARTESIANPOINT((-18.5139983925127,6.46870072336928,-0.637111412142146));
#1733=IFCCARTESIANPOINT((-18.7219903941755,6.375104322621,-1.26808709310484));
#1734=IFCCARTESIANPOINT((-22.6751242717499,4.59619407771256,-4.59619407771256));
#1735=IFCCARTESIANPOINT((-24.,4.,-5.1234753829798));
#1736=IFCCARTESIANPOINT((-19.5439623081703,6.00521696132337,-2.48744231037308));
#1737=IFCCARTESIANPOINT((-24.,0.4,6.48768063332344));
#1738=IFCCARTESIANPOINT((-24.,-4.,5.12347538297983));
#1739=IFCCARTESIANPOINT((-19.5439623081703,-6.00521696132337,2.48744231037309));
#1740=IFCCARTESIANPOINT((-24.,-0.4,-6.48768063332344));
#1741=IFCCARTESIANPOINT((-16.324515264301,7.45396813106455,1.48268644732257));
#1742=IFCCARTESIANPOINT((-16.0813246162029,7.56340392270869,0.744930266504656));
#1743=IFCCARTESIANPOINT((-16.,7.6,-1.22217321375424E-15));
#1744=IFCCARTESIANPOINT((-16.324515264301,7.45396813106455,-1.48268644732258));
#1745=IFCCARTESIANPOINT((-17.2855901175872,7.02148444708578,-2.90839408597468));
#1746=IFCCARTESIANPOINT((-16.0813246162029,7.56340392270869,-0.744930266504662));
#1747=IFCCARTESIANPOINT((-17.2855901175872,7.02148444708578,2.90839408597468));
#1748=IFCCARTESIANPOINT((-20.9466410288494,5.37401153701776,5.37401153701776));
#1749=IFCCARTESIANPOINT((-20.9466410288494,5.37401153701776,-5.37401153701776));
#1750=IFCCARTESIANPOINT((-24.,4.,-6.4621977685614));
#1751=IFCCARTESIANPOINT((-24.,4.,6.4621977685614));
#1752=IFCCARTESIANPOINT((-16.324515264301,-7.45396813106455,-1.48268644732257));
#1753=IFCCARTESIANPOINT((-16.0813246162029,-7.56340392270869,-0.744930266504659));
#1754=IFCCARTESIANPOINT((-16.,-7.6,-1.39609735102798E-15));
#1755=IFCCARTESIANPOINT((-16.324515264301,-7.45396813106455,1.48268644732257));
#1756=IFCCARTESIANPOINT((-17.2855901175872,-7.02148444708577,2.90839408597468));
#1757=IFCCARTESIANPOINT((-16.0813246162029,-7.56340392270869,0.744930266504656));
#1758=IFCCARTESIANPOINT((-17.2855901175872,-7.02148444708578,-2.90839408597468));
#1759=IFCCARTESIANPOINT((-20.9466410288494,-5.37401153701776,-5.37401153701776));
#1760=IFCCARTESIANPOINT((-20.9466410288494,-5.37401153701776,5.37401153701776));
#1761=IFCCARTESIANPOINT((-24.,-4.,6.46219776856143));
#1762=IFCCARTESIANPOINT((-24.,-4.,-6.46219776856137));
#1763=IFCCARTESIANPOINT((-20.,0.,7.6));
#1764=IFCCARTESIANPOINT((-20.,0.4,7.58946638440411));
#1765=IFCCARTESIANPOINT((-20.,-0.4,7.58946638440411));
#1766=IFCCARTESIANPOINT((-20.,9.30731567351988E-16,-7.6));
#1767=IFCCARTESIANPOINT((-20.,-0.4,-7.58946638440411));
#1768=IFCCARTESIANPOINT((-20.,0.4,-7.58946638440411));
#1769=IFCCARTESIANPOINT((-24.,9.30731567351988E-16,-7.6));
#1770=IFCCARTESIANPOINT((-24.,-0.4,-7.10000000000002));
#1771=IFCCARTESIANPOINT((-24.,0.4,-7.10000000000002));
#1772=IFCCARTESIANPOINT((-24.,-2.90839408597468,-7.02148444708578));
#1773=IFCCARTESIANPOINT((-24.,2.90839408597468,-7.02148444708578));
#1774=IFCCARTESIANPOINT((-24.,0.,7.6));
#1775=IFCCARTESIANPOINT((-24.,0.4,7.10000000000002));
#1776=IFCCARTESIANPOINT((-24.,-0.4,7.10000000000002));
#1777=IFCCARTESIANPOINT((-24.,-2.90839408597468,7.02148444708578));
#1778=IFCCARTESIANPOINT((-24.,2.90839408597468,7.02148444708578));
#1779=IFCCARTESIANPOINT((-20.8,-0.4,7.10000000000002));
#1780=IFCCARTESIANPOINT((-20.8,-0.4,7.58946638440411));
#1781=IFCCARTESIANPOINT((-20.8,0.4,7.58946638440411));
#1782=IFCCARTESIANPOINT((-20.8,0.4,7.10000000000002));
#1783=IFCCARTESIANPOINT((-20.8,-1.86146313470398E-15,7.6));
#1784=IFCCARTESIANPOINT((-20.8,-0.4,-7.58946638440411));
#1785=IFCCARTESIANPOINT((-20.8,9.30731567351988E-16,-7.6));
#1786=IFCCARTESIANPOINT((-20.8,0.4,-7.58946638440411));
#1787=IFCCARTESIANPOINT((-20.8,0.4,-7.10000000000002));
#1788=IFCCARTESIANPOINT((-20.8,-0.4,-7.10000000000002));
#1789=IFCCARTESIANPOINT((-6.15638586528478,4.,-8.9));
#1790=IFCCARTESIANPOINT((-5.4,4.,-8.9));
#1791=IFCCARTESIANPOINT((-5.20865828381746,4.,-8.93806023374436));
#1792=IFCCARTESIANPOINT((-5.04644660940673,4.,-9.04644660940673));
#1793=IFCCARTESIANPOINT((-4.93806023374436,4.,-9.20865828381745));
#1794=IFCCARTESIANPOINT((-4.9,4.,-9.4));
#1795=IFCCARTESIANPOINT((-4.9,4.,-10.1563858652848));
#1796=IFCCARTESIANPOINT((-4.9,4.,-5.84361413471522));
#1797=IFCCARTESIANPOINT((-4.9,4.,-6.6));
#1798=IFCCARTESIANPOINT((-4.93806023374436,4.,-6.79134171618255));
#1799=IFCCARTESIANPOINT((-5.04644660940673,4.,-6.95355339059327));
#1800=IFCCARTESIANPOINT((-5.20865828381746,4.,-7.06193976625564));
#1801=IFCCARTESIANPOINT((-5.4,4.,-7.1));
#1802=IFCCARTESIANPOINT((-6.15638586528478,4.,-7.1));
#1803=IFCCARTESIANPOINT((-6.18630892753907,4.,-8.8954180818573));
#1804=IFCCARTESIANPOINT((-6.18630892753907,4.,-7.1045819181427));
#1805=IFCCARTESIANPOINT((-6.2134898893568,4.,-7.11790779309348));
#1806=IFCCARTESIANPOINT((-4.8954180818573,4.,-5.81369107246093));
#1807=IFCCARTESIANPOINT((1.8079689783217,4.,-10.1920310216783));
#1808=IFCCARTESIANPOINT((1.04761355460396,4.,-10.5342606428329));
#1809=IFCCARTESIANPOINT((1.10188867290572,4.,-10.3631093271884));
#1810=IFCCARTESIANPOINT((-4.8954180818573,4.,-10.1863089275391));
#1811=IFCCARTESIANPOINT((-4.88209220690652,4.,-10.2134898893568));
#1812=IFCCARTESIANPOINT((-6.2134898893568,4.,-8.88209220690652));
#1813=IFCCARTESIANPOINT((-4.86124353651175,4.,-5.76456206810381));
#1814=IFCCARTESIANPOINT((-4.88209220690652,4.,-5.7865101106432));
#1815=IFCCARTESIANPOINT((2.81368135966822,4.,-10.864026550785));
#1816=IFCCARTESIANPOINT((-1.73725830020304,4.,-10.8));
#1817=IFCCARTESIANPOINT((0.605887450304572,4.,-10.8));
#1818=IFCCARTESIANPOINT((0.936375979913247,4.,-10.6752030540882));
#1819=IFCCARTESIANPOINT((1.8079689783217,4.,-5.8079689783217));
#1820=IFCCARTESIANPOINT((1.04761355460396,4.,-5.46573935716709));
#1821=IFCCARTESIANPOINT((0.936375979913248,4.,-5.32479694591182));
#1822=IFCCARTESIANPOINT((1.09220232790184,4.,-5.81618020411221));
#1823=IFCCARTESIANPOINT((1.10188867290572,4.,-5.63689067281161));
#1824=IFCCARTESIANPOINT((4.,4.,-11.1));
#1825=IFCCARTESIANPOINT((5.18631864033178,4.,-10.864026550785));
#1826=IFCCARTESIANPOINT((0.782520506321716,4.,-10.7677614386865));
#1827=IFCCARTESIANPOINT((1.13597344921501,4.,-9.18631864033178));
#1828=IFCCARTESIANPOINT((1.09220232790184,4.,-10.1838197958878));
#1829=IFCCARTESIANPOINT((-0.972855732866832,4.,-9.94843465016479));
#1830=IFCCARTESIANPOINT((-3.1045819181427,4.,-10.1863089275391));
#1831=IFCCARTESIANPOINT((-3.1,4.,-10.1563858652848));
#1832=IFCCARTESIANPOINT((-4.86124353651175,4.,-10.2354379318962));
#1833=IFCCARTESIANPOINT((-6.25014177247108,4.,-8.83478260869565));
#1834=IFCCARTESIANPOINT((-6.23543793189619,4.,-8.86124353651175));
#1835=IFCCARTESIANPOINT((-4.83478260869565,4.,-5.74985822752892));
#1836=IFCCARTESIANPOINT((-0.972855732866832,4.,-6.05156534983521));
#1837=IFCCARTESIANPOINT((-0.514314988413324,4.,-7.1));
#1838=IFCCARTESIANPOINT((-2.6,4.,-7.1));
#1839=IFCCARTESIANPOINT((-2.79134171618255,4.,-7.06193976625564));
#1840=IFCCARTESIANPOINT((-2.95355339059327,4.,-6.95355339059327));
#1841=IFCCARTESIANPOINT((-3.06193976625564,4.,-6.79134171618255));
#1842=IFCCARTESIANPOINT((-3.1,4.,-6.6));
#1843=IFCCARTESIANPOINT((-3.1,4.,-5.84361413471522));
#1844=IFCCARTESIANPOINT((7.1,4.,-8.));
#1845=IFCCARTESIANPOINT((6.86402655078499,4.,-6.81368135966822));
#1846=IFCCARTESIANPOINT((6.1920310216783,4.,-10.1920310216783));
#1847=IFCCARTESIANPOINT((1.01980361490158,4.,-10.0195121951219));
#1848=IFCCARTESIANPOINT((0.470706583200117,4.,-8.709991533846));
#1849=IFCCARTESIANPOINT((0.900000000000001,4.,-8.));
#1850=IFCCARTESIANPOINT((0.782520506321717,4.,-5.23223856131352));
#1851=IFCCARTESIANPOINT((1.01980361490158,4.,-5.98048780487805));
#1852=IFCCARTESIANPOINT((1.13597344921501,4.,-6.81368135966822));
#1853=IFCCARTESIANPOINT((-3.11790779309348,4.,-10.2134898893568));
#1854=IFCCARTESIANPOINT((-3.16521739130435,4.,-10.2501417724711));
#1855=IFCCARTESIANPOINT((-3.13875646348825,4.,-10.2354379318962));
#1856=IFCCARTESIANPOINT((-6.23543793189619,4.,-7.13875646348825));
#1857=IFCCARTESIANPOINT((-1.73725830020305,4.,-5.2));
#1858=IFCCARTESIANPOINT((-3.11790779309348,4.,-5.7865101106432));
#1859=IFCCARTESIANPOINT((-3.13875646348825,4.,-5.76456206810381));
#1860=IFCCARTESIANPOINT((-3.1045819181427,4.,-5.81369107246093));
#1861=IFCCARTESIANPOINT((6.86402655078499,4.,-9.18631864033178));
#1862=IFCCARTESIANPOINT((0.470706583200117,4.,-7.290008466154));
#1863=IFCCARTESIANPOINT((-4.83478260869565,4.,-10.2501417724711));
#1864=IFCCARTESIANPOINT((-6.25014177247108,4.,-7.16521739130435));
#1865=IFCCARTESIANPOINT((6.1920310216783,4.,-5.8079689783217));
#1866=IFCCARTESIANPOINT((5.18631864033178,4.,-5.13597344921501));
#1867=IFCCARTESIANPOINT((0.605887450304573,4.,-5.2));
#1868=IFCCARTESIANPOINT((4.,4.,-4.9));
#1869=IFCCARTESIANPOINT((2.81368135966822,4.,-5.13597344921501));
#1870=IFCCARTESIANPOINT((-4.,4.,-10.4));
#1871=IFCCARTESIANPOINT((-6.4,4.,-8.));
#1872=IFCCARTESIANPOINT((-4.,4.,-5.6));
#1873=IFCCARTESIANPOINT((-3.16521739130435,4.,-5.74985822752892));
#1874=IFCCARTESIANPOINT((-3.1,4.,-9.4));
#1875=IFCCARTESIANPOINT((-3.06193976625564,4.,-9.20865828381745));
#1876=IFCCARTESIANPOINT((-2.95355339059327,4.,-9.04644660940673));
#1877=IFCCARTESIANPOINT((-2.79134171618255,4.,-8.93806023374436));
#1878=IFCCARTESIANPOINT((-2.6,4.,-8.9));
#1879=IFCCARTESIANPOINT((-0.514314988413324,4.,-8.9));
#1880=IFCCARTESIANPOINT((-6.15638586528478,-4.,-8.9));
#1881=IFCCARTESIANPOINT((-5.4,-4.,-8.9));
#1882=IFCCARTESIANPOINT((-4.93806023374436,-4.,-9.20865828381745));
#1883=IFCCARTESIANPOINT((-4.9,-4.,-9.4));
#1884=IFCCARTESIANPOINT((-5.04644660940673,-4.,-9.04644660940673));
#1885=IFCCARTESIANPOINT((-5.20865828381746,-4.,-8.93806023374436));
#1886=IFCCARTESIANPOINT((-4.9,-4.,-10.1563858652848));
#1887=IFCCARTESIANPOINT((-4.86124353651175,-4.,-10.2354379318962));
#1888=IFCCARTESIANPOINT((-4.83478260869565,-4.,-10.2501417724711));
#1889=IFCCARTESIANPOINT((-4.88209220690652,-4.,-10.2134898893568));
#1890=IFCCARTESIANPOINT((-4.8954180818573,-4.,-10.1863089275391));
#1891=IFCCARTESIANPOINT((-4.,-4.,-10.4));
#1892=IFCCARTESIANPOINT((-3.16521739130435,-4.,-10.2501417724711));
#1893=IFCCARTESIANPOINT((-3.1045819181427,-4.,-10.1863089275391));
#1894=IFCCARTESIANPOINT((-3.1,-4.,-10.1563858652848));
#1895=IFCCARTESIANPOINT((-3.11790779309348,-4.,-10.2134898893568));
#1896=IFCCARTESIANPOINT((-3.13875646348825,-4.,-10.2354379318962));
#1897=IFCCARTESIANPOINT((-3.1,-4.,-9.4));
#1898=IFCCARTESIANPOINT((-2.79134171618255,-4.,-8.93806023374436));
#1899=IFCCARTESIANPOINT((-2.6,-4.,-8.9));
#1900=IFCCARTESIANPOINT((-2.95355339059327,-4.,-9.04644660940673));
#1901=IFCCARTESIANPOINT((-3.06193976625564,-4.,-9.20865828381745));
#1902=IFCCARTESIANPOINT((-0.514314988413324,-4.,-8.9));
#1903=IFCCARTESIANPOINT((-0.972855732866832,-4.,-9.94843465016479));
#1904=IFCCARTESIANPOINT((-1.73725830020304,-4.,-10.8));
#1905=IFCCARTESIANPOINT((0.605887450304572,-4.,-10.8));
#1906=IFCCARTESIANPOINT((1.09220232790184,-4.,-10.1838197958878));
#1907=IFCCARTESIANPOINT((1.01980361490158,-4.,-10.0195121951219));
#1908=IFCCARTESIANPOINT((1.10188867290572,-4.,-10.3631093271884));
#1909=IFCCARTESIANPOINT((1.04761355460396,-4.,-10.5342606428329));
#1910=IFCCARTESIANPOINT((0.936375979913247,-4.,-10.6752030540882));
#1911=IFCCARTESIANPOINT((0.782520506321716,-4.,-10.7677614386865));
#1912=IFCCARTESIANPOINT((0.470706583200117,-4.,-7.290008466154));
#1913=IFCCARTESIANPOINT((1.01980361490158,-4.,-5.98048780487805));
#1914=IFCCARTESIANPOINT((0.470706583200117,-4.,-8.709991533846));
#1915=IFCCARTESIANPOINT((0.782520506321717,-4.,-5.23223856131352));
#1916=IFCCARTESIANPOINT((0.605887450304573,-4.,-5.2));
#1917=IFCCARTESIANPOINT((0.936375979913248,-4.,-5.32479694591182));
#1918=IFCCARTESIANPOINT((1.04761355460396,-4.,-5.46573935716709));
#1919=IFCCARTESIANPOINT((1.10188867290572,-4.,-5.63689067281161));
#1920=IFCCARTESIANPOINT((1.09220232790184,-4.,-5.81618020411221));
#1921=IFCCARTESIANPOINT((-1.73725830020305,-4.,-5.2));
#1922=IFCCARTESIANPOINT((-0.972855732866832,-4.,-6.05156534983521));
#1923=IFCCARTESIANPOINT((-0.514314988413324,-4.,-7.1));
#1924=IFCCARTESIANPOINT((-2.6,-4.,-7.1));
#1925=IFCCARTESIANPOINT((-3.06193976625564,-4.,-6.79134171618255));
#1926=IFCCARTESIANPOINT((-3.1,-4.,-6.6));
#1927=IFCCARTESIANPOINT((-2.95355339059327,-4.,-6.95355339059327));
#1928=IFCCARTESIANPOINT((-2.79134171618255,-4.,-7.06193976625564));
#1929=IFCCARTESIANPOINT((-3.1,-4.,-5.84361413471522));
#1930=IFCCARTESIANPOINT((-3.13875646348825,-4.,-5.76456206810381));
#1931=IFCCARTESIANPOINT((-3.16521739130435,-4.,-5.74985822752892));
#1932=IFCCARTESIANPOINT((-3.11790779309348,-4.,-5.7865101106432));
#1933=IFCCARTESIANPOINT((-3.1045819181427,-4.,-5.81369107246093));
#1934=IFCCARTESIANPOINT((-4.,-4.,-5.6));
#1935=IFCCARTESIANPOINT((-4.83478260869565,-4.,-5.74985822752892));
#1936=IFCCARTESIANPOINT((-4.8954180818573,-4.,-5.81369107246093));
#1937=IFCCARTESIANPOINT((-4.9,-4.,-5.84361413471522));
#1938=IFCCARTESIANPOINT((-4.88209220690652,-4.,-5.7865101106432));
#1939=IFCCARTESIANPOINT((-4.86124353651175,-4.,-5.76456206810381));
#1940=IFCCARTESIANPOINT((-4.9,-4.,-6.6));
#1941=IFCCARTESIANPOINT((-5.20865828381746,-4.,-7.06193976625564));
#1942=IFCCARTESIANPOINT((-5.4,-4.,-7.1));
#1943=IFCCARTESIANPOINT((-5.04644660940673,-4.,-6.95355339059327));
#1944=IFCCARTESIANPOINT((-4.93806023374436,-4.,-6.79134171618255));
#1945=IFCCARTESIANPOINT((-6.15638586528478,-4.,-7.1));
#1946=IFCCARTESIANPOINT((-6.23543793189619,-4.,-7.13875646348825));
#1947=IFCCARTESIANPOINT((-6.25014177247108,-4.,-7.16521739130435));
#1948=IFCCARTESIANPOINT((-6.2134898893568,-4.,-7.11790779309348));
#1949=IFCCARTESIANPOINT((-6.18630892753907,-4.,-7.1045819181427));
#1950=IFCCARTESIANPOINT((-6.4,-4.,-8.));
#1951=IFCCARTESIANPOINT((-6.25014177247108,-4.,-8.83478260869565));
#1952=IFCCARTESIANPOINT((-6.18630892753907,-4.,-8.8954180818573));
#1953=IFCCARTESIANPOINT((-6.2134898893568,-4.,-8.88209220690652));
#1954=IFCCARTESIANPOINT((-6.23543793189619,-4.,-8.86124353651175));
#1955=IFCCARTESIANPOINT((1.8079689783217,-4.,-5.8079689783217));
#1956=IFCCARTESIANPOINT((4.,-4.,-4.9));
#1957=IFCCARTESIANPOINT((5.18631864033178,-4.,-5.13597344921501));
#1958=IFCCARTESIANPOINT((2.81368135966822,-4.,-5.13597344921501));
#1959=IFCCARTESIANPOINT((1.8079689783217,-4.,-10.1920310216783));
#1960=IFCCARTESIANPOINT((1.13597344921501,-4.,-9.18631864033178));
#1961=IFCCARTESIANPOINT((6.1920310216783,-4.,-10.1920310216783));
#1962=IFCCARTESIANPOINT((5.18631864033178,-4.,-10.864026550785));
#1963=IFCCARTESIANPOINT((6.1920310216783,-4.,-5.8079689783217));
#1964=IFCCARTESIANPOINT((6.86402655078499,-4.,-6.81368135966822));
#1965=IFCCARTESIANPOINT((1.13597344921501,-4.,-6.81368135966822));
#1966=IFCCARTESIANPOINT((0.900000000000001,-4.,-8.));
#1967=IFCCARTESIANPOINT((6.86402655078499,-4.,-9.18631864033178));
#1968=IFCCARTESIANPOINT((7.1,-4.,-8.));
#1969=IFCCARTESIANPOINT((2.81368135966822,-4.,-10.864026550785));
#1970=IFCCARTESIANPOINT((4.,-4.,-11.1));
#1971=IFCCARTESIANPOINT((5.18631864033178,3.2,-5.13597344921501));
#1972=IFCCARTESIANPOINT((4.,3.2,-4.9));
#1973=IFCCARTESIANPOINT((6.1920310216783,3.2,-5.8079689783217));
#1974=IFCCARTESIANPOINT((6.86402655078499,3.2,-6.81368135966822));
#1975=IFCCARTESIANPOINT((7.1,3.2,-8.));
#1976=IFCCARTESIANPOINT((6.86402655078499,3.2,-9.18631864033178));
#1977=IFCCARTESIANPOINT((6.1920310216783,3.2,-10.1920310216783));
#1978=IFCCARTESIANPOINT((5.18631864033178,3.2,-10.864026550785));
#1979=IFCCARTESIANPOINT((4.,3.2,-11.1));
#1980=IFCCARTESIANPOINT((2.81368135966822,3.2,-10.864026550785));
#1981=IFCCARTESIANPOINT((1.8079689783217,3.2,-10.1920310216783));
#1982=IFCCARTESIANPOINT((1.13597344921501,3.2,-9.18631864033178));
#1983=IFCCARTESIANPOINT((0.900000000000001,3.2,-8.));
#1984=IFCCARTESIANPOINT((1.13597344921501,3.2,-6.81368135966822));
#1985=IFCCARTESIANPOINT((1.8079689783217,3.2,-5.8079689783217));
#1986=IFCCARTESIANPOINT((2.81368135966822,3.2,-5.13597344921501));
#1987=IFCCARTESIANPOINT((5.18631864033178,-3.2,-5.13597344921501));
#1988=IFCCARTESIANPOINT((4.,-3.2,-4.9));
#1989=IFCCARTESIANPOINT((6.1920310216783,-3.2,-5.8079689783217));
#1990=IFCCARTESIANPOINT((6.86402655078499,-3.2,-6.81368135966822));
#1991=IFCCARTESIANPOINT((7.1,-3.2,-8.));
#1992=IFCCARTESIANPOINT((6.86402655078499,-3.2,-9.18631864033178));
#1993=IFCCARTESIANPOINT((6.1920310216783,-3.2,-10.1920310216783));
#1994=IFCCARTESIANPOINT((5.18631864033178,-3.2,-10.864026550785));
#1995=IFCCARTESIANPOINT((4.,-3.2,-11.1));
#1996=IFCCARTESIANPOINT((2.81368135966822,-3.2,-10.864026550785));
#1997=IFCCARTESIANPOINT((1.8079689783217,-3.2,-10.1920310216783));
#1998=IFCCARTESIANPOINT((1.13597344921501,-3.2,-9.18631864033178));
#1999=IFCCARTESIANPOINT((0.900000000000001,-3.2,-8.));
#2000=IFCCARTESIANPOINT((1.13597344921501,-3.2,-6.81368135966822));
#2001=IFCCARTESIANPOINT((1.8079689783217,-3.2,-5.8079689783217));
#2002=IFCCARTESIANPOINT((2.81368135966822,-3.2,-5.13597344921501));
#2003=IFCCARTESIANPOINT((1.6,3.2,-8.));
#2004=IFCCARTESIANPOINT((1.78268912197291,3.2,-8.91844023767622));
#2005=IFCCARTESIANPOINT((2.30294372515229,3.2,-6.30294372515229));
#2006=IFCCARTESIANPOINT((1.78268912197291,3.2,-7.08155976232378));
#2007=IFCCARTESIANPOINT((5.69705627484772,3.2,-6.30294372515229));
#2008=IFCCARTESIANPOINT((4.91844023767622,3.2,-5.78268912197291));
#2009=IFCCARTESIANPOINT((6.4,3.2,-8.));
#2010=IFCCARTESIANPOINT((6.21731087802709,3.2,-7.08155976232378));
#2011=IFCCARTESIANPOINT((5.69705627484772,3.2,-9.69705627484771));
#2012=IFCCARTESIANPOINT((6.21731087802709,3.2,-8.91844023767622));
#2013=IFCCARTESIANPOINT((4.,3.2,-10.4));
#2014=IFCCARTESIANPOINT((4.91844023767622,3.2,-10.2173108780271));
#2015=IFCCARTESIANPOINT((2.30294372515229,3.2,-9.69705627484771));
#2016=IFCCARTESIANPOINT((3.08155976232379,3.2,-10.2173108780271));
#2017=IFCCARTESIANPOINT((4.,3.2,-5.6));
#2018=IFCCARTESIANPOINT((3.08155976232379,3.2,-5.78268912197291));
#2019=IFCCARTESIANPOINT((5.69705627484772,-3.2,-6.30294372515229));
#2020=IFCCARTESIANPOINT((6.21731087802709,-3.2,-7.08155976232378));
#2021=IFCCARTESIANPOINT((4.,-3.2,-5.6));
#2022=IFCCARTESIANPOINT((4.91844023767622,-3.2,-5.78268912197291));
#2023=IFCCARTESIANPOINT((2.30294372515229,-3.2,-6.30294372515229));
#2024=IFCCARTESIANPOINT((3.08155976232379,-3.2,-5.78268912197291));
#2025=IFCCARTESIANPOINT((5.69705627484772,-3.2,-9.69705627484771));
#2026=IFCCARTESIANPOINT((4.91844023767622,-3.2,-10.2173108780271));
#2027=IFCCARTESIANPOINT((6.4,-3.2,-8.));
#2028=IFCCARTESIANPOINT((6.21731087802709,-3.2,-8.91844023767622));
#2029=IFCCARTESIANPOINT((1.78268912197291,-3.2,-7.08155976232378));
#2030=IFCCARTESIANPOINT((1.78268912197291,-3.2,-8.91844023767622));
#2031=IFCCARTESIANPOINT((1.6,-3.2,-8.));
#2032=IFCCARTESIANPOINT((2.30294372515229,-3.2,-9.69705627484771));
#2033=IFCCARTESIANPOINT((4.,-3.2,-10.4));
#2034=IFCCARTESIANPOINT((3.08155976232379,-3.2,-10.2173108780271));
#2035=IFCCARTESIANPOINT((0.,0.,0.));
#2036=IFCCARTESIANPOINT((0.,0.,0.));
#2037=IFCGEOMETRICREPRESENTATIONCONTEXT($,'Model',3,0.005,#1572,$);
#2038=IFCSIUNIT(*,.LENGTHUNIT.,.MILLI.,.METRE.);
#2039=IFCSIUNIT(*,.AREAUNIT.,$,.SQUARE_METRE.);
#2040=IFCSIUNIT(*,.VOLUMEUNIT.,$,.CUBIC_METRE.);
#2041=IFCSIUNIT(*,.PLANEANGLEUNIT.,$,.RADIAN.);
#2042=IFCOWNERHISTORY(#2044,#2043,$,.NOCHANGE.,0,$,$,0);
#2043=IFCAPPLICATION(#2045,' ',' ',' ');
#2044=IFCPERSONANDORGANIZATION(#2046,#2045,$);
#2045=IFCORGANIZATION($,' ',$,$,$);
#2046=IFCPERSON(' ',' ',' ',$,$,$,$,$);
ENDSEC;
END-ISO-10303-21;
