ISO-10303-21;
HEADER;
/* Generated by software containing ST-Developer
 * from STEP Tools, Inc. (www.steptools.com) 
 */
/* OPTION: strings as raw bytes, not using required /X/ escapes */

FILE_DESCRIPTION(
/* description */ ('Unknown'),
/* implementation_level */ '2;1');

FILE_NAME(
/* name */ 'Red_4270473_AVV',
/* time_stamp */ '2025-07-22T00:03:33+02:00',
/* author */ ('Unknown'),
/* organization */ ('Unknown'),
/* preprocessor_version */ 'ST-DEVELOPER v19.4',
/* originating_system */ 'Unknown',
/* authorisation */ 'OpenTools');

FILE_SCHEMA (('IFC2X3'));
ENDSEC;

DATA;
#10=IFCPROPERTYSINGLEVALUE('ProjectName',$,IFCTEXT(''),$);
#11=IFCPROPERTYSINGLEVALUE('PartNumber',$,IFCTEXT(''),$);
#12=IFCRELDEFINESBYPROPERTIES('3cRq1JQpSwDOm5lsE5cG83',#2196,$,$,(#14),
#13);
#13=IFCPROPERTYSET('1jOd4kXgWorA4TVRi95rqH',#2196,
'empty property set name',$,(#10,#11));
#14=IFCBUILDINGELEMENTPROXY('2GP_XOK7Wq1Pa1NGQTVWHM',#2196,
'Red_4270473_AVV',' ','Red_4270473_AVV',#19,#15,' ',.ELEMENT.);
#15=IFCPRODUCTDEFINITIONSHAPE(' ',' ',(#25));
#16=IFCRELCONTAINEDINSPATIALSTRUCTURE('3HZhfx2I0vj9Cvp1GHER_f',#2196,
' ',' ',(#14),#20);
#17=IFCRELAGGREGATES('1jF0XzMGqvEA6wZwPLSawz',#2196,$,$,#1725,(#20));
#18=IFCLOCALPLACEMENT($,#1728);
#19=IFCLOCALPLACEMENT(#18,#1729);
#20=IFCBUILDING('3G2N19bOG__grq1LV0cQPU',#2196,'Default Building',$,$,#18,
$,$,.ELEMENT.,0.,0.,$);
#21=IFCCARTESIANTRANSFORMATIONOPERATOR3D($,$,#2189,1.,$);
#22=IFCMAPPEDITEM(#23,#21);
#23=IFCREPRESENTATIONMAP(#1728,#24);
#24=IFCSHAPEREPRESENTATION(#1727,'Body','Brep',(#1724));
#25=IFCSHAPEREPRESENTATION(#1727,'Body','MappedRepresentation',(#22));
#26=IFCPOLYLOOP((#1735,#1736,#1737,#1738));
#27=IFCPOLYLOOP((#1739,#1740,#1736,#1735));
#28=IFCPOLYLOOP((#1741,#1742,#1740,#1739));
#29=IFCPOLYLOOP((#1743,#1744,#1742,#1741));
#30=IFCPOLYLOOP((#1745,#1746,#1744,#1743));
#31=IFCPOLYLOOP((#1747,#1748,#1746,#1745));
#32=IFCPOLYLOOP((#1749,#1750,#1748,#1747));
#33=IFCPOLYLOOP((#1751,#1752,#1750,#1749));
#34=IFCPOLYLOOP((#1753,#1754,#1752,#1751));
#35=IFCPOLYLOOP((#1755,#1756,#1754,#1753));
#36=IFCPOLYLOOP((#1757,#1758,#1756,#1755));
#37=IFCPOLYLOOP((#1759,#1760,#1758,#1757));
#38=IFCPOLYLOOP((#1761,#1762,#1760,#1759));
#39=IFCPOLYLOOP((#1763,#1764,#1762,#1761));
#40=IFCPOLYLOOP((#1765,#1766,#1764,#1763));
#41=IFCPOLYLOOP((#1738,#1737,#1766,#1765));
#42=IFCPOLYLOOP((#1767,#1768,#1769,#1770,#1771,#1772,#1773,#1774));
#43=IFCPOLYLOOP((#1767,#1775,#1768));
#44=IFCPOLYLOOP((#1774,#1776,#1767));
#45=IFCPOLYLOOP((#1777,#1778,#1779));
#46=IFCPOLYLOOP((#1777,#1780,#1781,#1782,#1783,#1784,#1785,#1786));
#47=IFCPOLYLOOP((#1767,#1787,#1788,#1775));
#48=IFCPOLYLOOP((#1779,#1789,#1777));
#49=IFCPOLYLOOP((#1777,#1790,#1780));
#50=IFCPOLYLOOP((#1777,#1791,#1792));
#51=IFCPOLYLOOP((#1793,#1794,#1795));
#52=IFCPOLYLOOP((#1776,#1796,#1767));
#53=IFCPOLYLOOP((#1787,#1797,#1798,#1799));
#54=IFCPOLYLOOP((#1800,#1801,#1802));
#55=IFCPOLYLOOP((#1803,#1804,#1805));
#56=IFCPOLYLOOP((#1786,#1778,#1777));
#57=IFCPOLYLOOP((#1777,#1806,#1791));
#58=IFCPOLYLOOP((#1807,#1808,#1809));
#59=IFCPOLYLOOP((#1795,#1810,#1793));
#60=IFCPOLYLOOP((#1795,#1811,#1810));
#61=IFCPOLYLOOP((#1812,#1813,#1751,#1749));
#62=IFCPOLYLOOP((#1814,#1815,#1755,#1753));
#63=IFCPOLYLOOP((#1799,#1788,#1787));
#64=IFCPOLYLOOP((#1805,#1801,#1800,#1803));
#65=IFCPOLYLOOP((#1792,#1790,#1777));
#66=IFCPOLYLOOP((#1807,#1816,#1808));
#67=IFCPOLYLOOP((#1817,#1818,#1819));
#68=IFCPOLYLOOP((#1793,#1810,#1820));
#69=IFCPOLYLOOP((#1795,#1821,#1817,#1811));
#70=IFCPOLYLOOP((#1753,#1751,#1813,#1814));
#71=IFCPOLYLOOP((#1822,#1759,#1757));
#72=IFCPOLYLOOP((#1822,#1823,#1761));
#73=IFCPOLYLOOP((#1823,#1765,#1763));
#74=IFCPOLYLOOP((#1767,#1824,#1825));
#75=IFCPOLYLOOP((#1796,#1826,#1767));
#76=IFCPOLYLOOP((#1803,#1827,#1828,#1804));
#77=IFCPOLYLOOP((#1777,#1825,#1806));
#78=IFCPOLYLOOP((#1807,#1800,#1829,#1816));
#79=IFCPOLYLOOP((#1817,#1821,#1818));
#80=IFCPOLYLOOP((#1830,#1747,#1745));
#81=IFCPOLYLOOP((#1757,#1755,#1815,#1822));
#82=IFCPOLYLOOP((#1763,#1761,#1823));
#83=IFCPOLYLOOP((#1826,#1824,#1767));
#84=IFCPOLYLOOP((#1827,#1831,#1832,#1828));
#85=IFCPOLYLOOP((#1789,#1833,#1831,#1777));
#86=IFCPOLYLOOP((#1834,#1835,#1794));
#87=IFCPOLYLOOP((#1809,#1836,#1807));
#88=IFCPOLYLOOP((#1837,#1838,#1839));
#89=IFCPOLYLOOP((#1820,#1797,#1793));
#90=IFCPOLYLOOP((#1819,#1840,#1841,#1842,#1843,#1844,#1817));
#91=IFCPOLYLOOP((#1845,#1846,#1739,#1735));
#92=IFCPOLYLOOP((#1846,#1830,#1743,#1741));
#93=IFCPOLYLOOP((#1749,#1747,#1830,#1812));
#94=IFCPOLYLOOP((#1823,#1847,#1738,#1765));
#95=IFCPOLYLOOP((#1797,#1848,#1798));
#96=IFCPOLYLOOP((#1797,#1820,#1849));
#97=IFCPOLYLOOP((#1833,#1832,#1831));
#98=IFCPOLYLOOP((#1836,#1835,#1834,#1807));
#99=IFCPOLYLOOP((#1837,#1850,#1838));
#100=IFCPOLYLOOP((#1837,#1851,#1852,#1853));
#101=IFCPOLYLOOP((#1797,#1854,#1822,#1793));
#102=IFCPOLYLOOP((#1741,#1739,#1846));
#103=IFCPOLYLOOP((#1761,#1759,#1822));
#104=IFCPOLYLOOP((#1855,#1856,#1767,#1857,#1858));
#105=IFCPOLYLOOP((#1849,#1848,#1797));
#106=IFCPOLYLOOP((#1794,#1793,#1859,#1834));
#107=IFCPOLYLOOP((#1853,#1850,#1837));
#108=IFCPOLYLOOP((#1745,#1743,#1830));
#109=IFCPOLYLOOP((#1825,#1860,#1857,#1767));
#110=IFCPOLYLOOP((#1839,#1807,#1834,#1861,#1837));
#111=IFCPOLYLOOP((#1735,#1738,#1847,#1845));
#112=IFCPOLYLOOP((#1855,#1862,#1863));
#113=IFCPOLYLOOP((#1825,#1777,#1860));
#114=IFCPOLYLOOP((#1854,#1864,#1823,#1822));
#115=IFCPOLYLOOP((#1858,#1862,#1855));
#116=IFCPOLYLOOP((#1863,#1865,#1855));
#117=IFCPOLYLOOP((#1851,#1866,#1867,#1852));
#118=IFCPOLYLOOP((#1866,#1855,#1865,#1867));
#119=IFCPOLYLOOP((#1802,#1868,#1869,#1870,#1871,#1872,#1829,#1800));
#120=IFCPOLYLOOP((#1873,#1791,#1806,#1874));
#121=IFCPOLYLOOP((#1875,#1792,#1791,#1873));
#122=IFCPOLYLOOP((#1876,#1790,#1792,#1875));
#123=IFCPOLYLOOP((#1877,#1780,#1790,#1876));
#124=IFCPOLYLOOP((#1878,#1776,#1774,#1879));
#125=IFCPOLYLOOP((#1880,#1796,#1776,#1878));
#126=IFCPOLYLOOP((#1881,#1826,#1796,#1880));
#127=IFCPOLYLOOP((#1882,#1824,#1826,#1881));
#128=IFCPOLYLOOP((#1883,#1799,#1798,#1884));
#129=IFCPOLYLOOP((#1885,#1788,#1799,#1883));
#130=IFCPOLYLOOP((#1886,#1775,#1788,#1885));
#131=IFCPOLYLOOP((#1887,#1768,#1775,#1886));
#132=IFCPOLYLOOP((#1888,#1811,#1817,#1889));
#133=IFCPOLYLOOP((#1890,#1810,#1811,#1888));
#134=IFCPOLYLOOP((#1891,#1820,#1810,#1890));
#135=IFCPOLYLOOP((#1892,#1849,#1820,#1891));
#136=IFCPOLYLOOP((#1893,#1795,#1794,#1894));
#137=IFCPOLYLOOP((#1895,#1821,#1795,#1893));
#138=IFCPOLYLOOP((#1896,#1818,#1821,#1895));
#139=IFCPOLYLOOP((#1897,#1819,#1818,#1896));
#140=IFCPOLYLOOP((#1898,#1816,#1829,#1899));
#141=IFCPOLYLOOP((#1900,#1808,#1816,#1898));
#142=IFCPOLYLOOP((#1901,#1809,#1808,#1900));
#143=IFCPOLYLOOP((#1902,#1836,#1809,#1901));
#144=IFCPOLYLOOP((#1903,#1804,#1828,#1904));
#145=IFCPOLYLOOP((#1905,#1805,#1804,#1903));
#146=IFCPOLYLOOP((#1906,#1801,#1805,#1905));
#147=IFCPOLYLOOP((#1907,#1802,#1801,#1906));
#148=IFCPOLYLOOP((#1908,#1778,#1786,#1909));
#149=IFCPOLYLOOP((#1910,#1779,#1778,#1908));
#150=IFCPOLYLOOP((#1911,#1789,#1779,#1910));
#151=IFCPOLYLOOP((#1912,#1833,#1789,#1911));
#152=IFCPOLYLOOP((#1913,#1770,#1769,#1914));
#153=IFCPOLYLOOP((#1915,#1771,#1770,#1913));
#154=IFCPOLYLOOP((#1916,#1772,#1771,#1915));
#155=IFCPOLYLOOP((#1917,#1773,#1772,#1916));
#156=IFCPOLYLOOP((#1918,#1841,#1840,#1919));
#157=IFCPOLYLOOP((#1920,#1842,#1841,#1918));
#158=IFCPOLYLOOP((#1921,#1843,#1842,#1920));
#159=IFCPOLYLOOP((#1922,#1844,#1843,#1921));
#160=IFCPOLYLOOP((#1923,#1869,#1868,#1924));
#161=IFCPOLYLOOP((#1925,#1870,#1869,#1923));
#162=IFCPOLYLOOP((#1926,#1871,#1870,#1925));
#163=IFCPOLYLOOP((#1927,#1872,#1871,#1926));
#164=IFCPOLYLOOP((#1928,#1782,#1781,#1929));
#165=IFCPOLYLOOP((#1930,#1783,#1782,#1928));
#166=IFCPOLYLOOP((#1931,#1784,#1783,#1930));
#167=IFCPOLYLOOP((#1932,#1785,#1784,#1931));
#168=IFCPOLYLOOP((#1933,#1848,#1849,#1892));
#169=IFCPOLYLOOP((#1884,#1798,#1848,#1933));
#170=IFCPOLYLOOP((#1889,#1817,#1844,#1922));
#171=IFCPOLYLOOP((#1819,#1897,#1919,#1840));
#172=IFCPOLYLOOP((#1934,#1835,#1836,#1902));
#173=IFCPOLYLOOP((#1894,#1794,#1835,#1934));
#174=IFCPOLYLOOP((#1899,#1829,#1872,#1927));
#175=IFCPOLYLOOP((#1802,#1907,#1924,#1868));
#176=IFCPOLYLOOP((#1935,#1832,#1833,#1912));
#177=IFCPOLYLOOP((#1904,#1828,#1832,#1935));
#178=IFCPOLYLOOP((#1909,#1786,#1785,#1932));
#179=IFCPOLYLOOP((#1780,#1877,#1929,#1781));
#180=IFCPOLYLOOP((#1936,#1825,#1824,#1882));
#181=IFCPOLYLOOP((#1874,#1806,#1825,#1936));
#182=IFCPOLYLOOP((#1879,#1774,#1773,#1917));
#183=IFCPOLYLOOP((#1768,#1887,#1914,#1769));
#184=IFCPOLYLOOP((#1822,#1937,#1938,#1793));
#185=IFCPOLYLOOP((#1815,#1939,#1937,#1822));
#186=IFCPOLYLOOP((#1814,#1940,#1939,#1815));
#187=IFCPOLYLOOP((#1813,#1941,#1940,#1814));
#188=IFCPOLYLOOP((#1812,#1942,#1941,#1813));
#189=IFCPOLYLOOP((#1830,#1943,#1942,#1812));
#190=IFCPOLYLOOP((#1846,#1944,#1943,#1830));
#191=IFCPOLYLOOP((#1845,#1945,#1944,#1846));
#192=IFCPOLYLOOP((#1847,#1946,#1945,#1845));
#193=IFCPOLYLOOP((#1823,#1947,#1946,#1847));
#194=IFCPOLYLOOP((#1864,#1948,#1947,#1823));
#195=IFCPOLYLOOP((#1854,#1949,#1948,#1864));
#196=IFCPOLYLOOP((#1797,#1950,#1949,#1854));
#197=IFCPOLYLOOP((#1787,#1951,#1950,#1797));
#198=IFCPOLYLOOP((#1767,#1952,#1951,#1787));
#199=IFCPOLYLOOP((#1856,#1953,#1952,#1767));
#200=IFCPOLYLOOP((#1855,#1954,#1953,#1856));
#201=IFCPOLYLOOP((#1866,#1955,#1954,#1855));
#202=IFCPOLYLOOP((#1837,#1956,#1957,#1851));
#203=IFCPOLYLOOP((#1861,#1958,#1956,#1837));
#204=IFCPOLYLOOP((#1834,#1959,#1958,#1861));
#205=IFCPOLYLOOP((#1859,#1960,#1959,#1834));
#206=IFCPOLYLOOP((#1793,#1938,#1960,#1859));
#207=IFCPOLYLOOP((#1865,#1863,#1961));
#208=IFCPOLYLOOP((#1961,#1962,#1865));
#209=IFCPOLYLOOP((#1962,#1963,#1865));
#210=IFCPOLYLOOP((#1963,#1964,#1865));
#211=IFCPOLYLOOP((#1961,#1863,#1862,#1965));
#212=IFCPOLYLOOP((#1965,#1862,#1858,#1966));
#213=IFCPOLYLOOP((#1966,#1858,#1857,#1967));
#214=IFCPOLYLOOP((#1967,#1857,#1860,#1968));
#215=IFCPOLYLOOP((#1968,#1860,#1777,#1969));
#216=IFCPOLYLOOP((#1970,#1867,#1865,#1964));
#217=IFCPOLYLOOP((#1971,#1962,#1961));
#218=IFCPOLYLOOP((#1961,#1965,#1971));
#219=IFCPOLYLOOP((#1971,#1963,#1962));
#220=IFCPOLYLOOP((#1971,#1964,#1963));
#221=IFCPOLYLOOP((#1971,#1966,#1967));
#222=IFCPOLYLOOP((#1967,#1968,#1971));
#223=IFCPOLYLOOP((#1972,#1970,#1964));
#224=IFCPOLYLOOP((#1964,#1971,#1972));
#225=IFCPOLYLOOP((#1971,#1968,#1972));
#226=IFCPOLYLOOP((#1972,#1969,#1973));
#227=IFCPOLYLOOP((#1972,#1968,#1969));
#228=IFCPOLYLOOP((#1974,#1975,#1976));
#229=IFCPOLYLOOP((#1974,#1973,#1975));
#230=IFCPOLYLOOP((#1976,#1977,#1974));
#231=IFCPOLYLOOP((#1973,#1974,#1972));
#232=IFCPOLYLOOP((#1965,#1966,#1971));
#233=IFCPOLYLOOP((#1976,#1978,#1979,#1977));
#234=IFCPOLYLOOP((#1853,#1980,#1981));
#235=IFCPOLYLOOP((#1853,#1982,#1980));
#236=IFCPOLYLOOP((#1853,#1983,#1982));
#237=IFCPOLYLOOP((#1807,#1984,#1985));
#238=IFCPOLYLOOP((#1807,#1986,#1984));
#239=IFCPOLYLOOP((#1800,#1985,#1987));
#240=IFCPOLYLOOP((#1987,#1803,#1800));
#241=IFCPOLYLOOP((#1985,#1800,#1807));
#242=IFCPOLYLOOP((#1986,#1807,#1839,#1988));
#243=IFCPOLYLOOP((#1988,#1839,#1838,#1989));
#244=IFCPOLYLOOP((#1989,#1838,#1850,#1981));
#245=IFCPOLYLOOP((#1981,#1850,#1853));
#246=IFCPOLYLOOP((#1983,#1853,#1852,#1990));
#247=IFCPOLYLOOP((#1867,#1974,#1977));
#248=IFCPOLYLOOP((#1852,#1867,#1991));
#249=IFCPOLYLOOP((#1867,#1972,#1974));
#250=IFCPOLYLOOP((#1991,#1992,#1852));
#251=IFCPOLYLOOP((#1977,#1979,#1993));
#252=IFCPOLYLOOP((#1867,#1970,#1972));
#253=IFCPOLYLOOP((#1992,#1994,#1852));
#254=IFCPOLYLOOP((#1977,#1991,#1867));
#255=IFCPOLYLOOP((#1993,#1995,#1991,#1977));
#256=IFCPOLYLOOP((#1994,#1990,#1852));
#257=IFCPOLYLOOP((#1803,#1996,#1997));
#258=IFCPOLYLOOP((#1803,#1987,#1996));
#259=IFCPOLYLOOP((#1831,#1827,#1976));
#260=IFCPOLYLOOP((#1998,#1999,#2000));
#261=IFCPOLYLOOP((#2000,#1976,#1998));
#262=IFCPOLYLOOP((#1827,#1997,#1998));
#263=IFCPOLYLOOP((#1998,#1976,#1827));
#264=IFCPOLYLOOP((#2000,#1978,#1976));
#265=IFCPOLYLOOP((#1777,#1831,#1975));
#266=IFCPOLYLOOP((#1975,#1973,#1777));
#267=IFCPOLYLOOP((#1973,#1969,#1777));
#268=IFCPOLYLOOP((#1976,#1975,#1831));
#269=IFCPOLYLOOP((#1997,#1827,#1803));
#270=IFCPOLYLOOP((#1992,#1991,#1998));
#271=IFCPOLYLOOP((#1998,#1997,#1992));
#272=IFCPOLYLOOP((#1994,#1987,#1985));
#273=IFCPOLYLOOP((#1994,#1992,#1996));
#274=IFCPOLYLOOP((#1996,#1987,#1994));
#275=IFCPOLYLOOP((#1994,#2001,#1983));
#276=IFCPOLYLOOP((#1994,#1984,#2001));
#277=IFCPOLYLOOP((#2001,#1984,#1986));
#278=IFCPOLYLOOP((#2001,#1989,#1981));
#279=IFCPOLYLOOP((#2001,#1988,#1989));
#280=IFCPOLYLOOP((#1981,#1980,#2001));
#281=IFCPOLYLOOP((#1980,#1982,#2001));
#282=IFCPOLYLOOP((#1982,#1983,#2001));
#283=IFCPOLYLOOP((#1986,#1988,#2001));
#284=IFCPOLYLOOP((#1983,#1990,#1994));
#285=IFCPOLYLOOP((#1985,#1984,#1994));
#286=IFCPOLYLOOP((#1997,#1996,#1992));
#287=IFCPOLYLOOP((#1991,#1995,#1999,#1998));
#288=IFCPOLYLOOP((#2002,#2003,#1978));
#289=IFCPOLYLOOP((#2004,#1993,#1979));
#290=IFCPOLYLOOP((#1979,#2005,#2004));
#291=IFCPOLYLOOP((#1979,#1978,#2003,#2005));
#292=IFCPOLYLOOP((#2004,#2006,#1995));
#293=IFCPOLYLOOP((#2006,#2007,#1999,#1995));
#294=IFCPOLYLOOP((#2002,#2000,#1999));
#295=IFCPOLYLOOP((#1999,#2007,#2002));
#296=IFCPOLYLOOP((#1995,#1993,#2004));
#297=IFCPOLYLOOP((#1978,#2000,#2002));
#298=IFCPOLYLOOP((#2008,#2009,#2010,#2011));
#299=IFCPOLYLOOP((#2012,#2013,#2009,#2008));
#300=IFCPOLYLOOP((#2014,#2015,#2013,#2012));
#301=IFCPOLYLOOP((#2005,#2003,#2015,#2014));
#302=IFCPOLYLOOP((#2016,#2017,#2007,#2006));
#303=IFCPOLYLOOP((#2018,#2019,#2017,#2016));
#304=IFCPOLYLOOP((#2020,#2021,#2019,#2018));
#305=IFCPOLYLOOP((#2022,#2023,#2021,#2020));
#306=IFCPOLYLOOP((#2011,#2010,#2024,#2025));
#307=IFCPOLYLOOP((#2026,#2027,#2028,#2029));
#308=IFCPOLYLOOP((#2030,#2031,#2027,#2026));
#309=IFCPOLYLOOP((#2032,#2033,#2031,#2030));
#310=IFCPOLYLOOP((#2025,#2024,#2033,#2032));
#311=IFCPOLYLOOP((#2034,#2035,#2029,#2028));
#312=IFCPOLYLOOP((#2036,#2037,#2038,#2039));
#313=IFCPOLYLOOP((#2040,#2041,#2037,#2036));
#314=IFCPOLYLOOP((#2042,#2043,#2041,#2040));
#315=IFCPOLYLOOP((#2035,#2034,#2043,#2042));
#316=IFCPOLYLOOP((#2023,#2022,#2044,#2045));
#317=IFCPOLYLOOP((#2046,#2047,#2045,#2044));
#318=IFCPOLYLOOP((#2048,#2049,#2047,#2046));
#319=IFCPOLYLOOP((#2050,#2051,#2049,#2048));
#320=IFCPOLYLOOP((#2052,#2053,#2051,#2050));
#321=IFCPOLYLOOP((#2054,#2055,#2053,#2052));
#322=IFCPOLYLOOP((#2056,#2057,#2055,#2054));
#323=IFCPOLYLOOP((#2058,#2059,#2057,#2056));
#324=IFCPOLYLOOP((#2060,#2061,#2059,#2058));
#325=IFCPOLYLOOP((#2062,#2063,#2061,#2060));
#326=IFCPOLYLOOP((#2064,#2065,#2063,#2062));
#327=IFCPOLYLOOP((#2066,#2067,#2065,#2064));
#328=IFCPOLYLOOP((#2068,#2069,#2067,#2066));
#329=IFCPOLYLOOP((#2070,#2071,#2069,#2068));
#330=IFCPOLYLOOP((#2072,#2073,#2071,#2070));
#331=IFCPOLYLOOP((#2074,#2075,#2073,#2072));
#332=IFCPOLYLOOP((#2075,#2074,#2076,#2077));
#333=IFCPOLYLOOP((#2078,#2079,#2077,#2076));
#334=IFCPOLYLOOP((#2080,#2081,#2079,#2078));
#335=IFCPOLYLOOP((#2082,#2083,#2081,#2080));
#336=IFCPOLYLOOP((#2084,#2085,#2083,#2082));
#337=IFCPOLYLOOP((#2086,#2087,#2085,#2084));
#338=IFCPOLYLOOP((#2088,#2089,#2087,#2086));
#339=IFCPOLYLOOP((#2090,#2091,#2089,#2088));
#340=IFCPOLYLOOP((#2092,#2093,#2091,#2090));
#341=IFCPOLYLOOP((#2094,#2095,#2093,#2092));
#342=IFCPOLYLOOP((#2096,#2097,#2098,#2099));
#343=IFCPOLYLOOP((#2039,#2038,#2097,#2096));
#344=IFCPOLYLOOP((#2100,#2101,#2102,#2103));
#345=IFCPOLYLOOP((#2104,#2105,#2101,#2100));
#346=IFCPOLYLOOP((#2106,#2107,#2105,#2104));
#347=IFCPOLYLOOP((#2099,#2098,#2107,#2106));
#348=IFCPOLYLOOP((#2103,#2102,#2108,#2109));
#349=IFCPOLYLOOP((#2110,#2111,#2112,#2113));
#350=IFCPOLYLOOP((#2114,#2115,#2111,#2110));
#351=IFCPOLYLOOP((#2116,#2117,#2115,#2114));
#352=IFCPOLYLOOP((#2109,#2108,#2117,#2116));
#353=IFCPOLYLOOP((#1866,#2011,#2025,#2032,#2030,#2026,#2029,#2035));
#354=IFCPOLYLOOP((#1957,#2088,#2086));
#355=IFCPOLYLOOP((#1955,#2103,#2109,#2116,#2114,#2110,#2113,#2118));
#356=IFCPOLYLOOP((#1866,#2008,#2011));
#357=IFCPOLYLOOP((#2086,#2084,#2082,#2080,#2078,#2076,#2074,#1957));
#358=IFCPOLYLOOP((#1955,#2100,#2103));
#359=IFCPOLYLOOP((#2035,#2042,#1866));
#360=IFCPOLYLOOP((#1851,#2054,#2052,#2050,#2048,#2046,#2044,#2022));
#361=IFCPOLYLOOP((#1957,#2070,#2068));
#362=IFCPOLYLOOP((#2074,#2072,#1957));
#363=IFCPOLYLOOP((#2118,#2119,#1955));
#364=IFCPOLYLOOP((#1955,#2106,#2104));
#365=IFCPOLYLOOP((#1866,#2012,#2008));
#366=IFCPOLYLOOP((#1866,#2005,#2014));
#367=IFCPOLYLOOP((#1851,#2018,#2016));
#368=IFCPOLYLOOP((#1851,#2056,#2054));
#369=IFCPOLYLOOP((#2072,#2070,#1957));
#370=IFCPOLYLOOP((#1955,#2120,#2121));
#371=IFCPOLYLOOP((#2104,#2100,#1955));
#372=IFCPOLYLOOP((#2014,#2012,#1866));
#373=IFCPOLYLOOP((#1851,#2020,#2018));
#374=IFCPOLYLOOP((#1851,#2058,#2056));
#375=IFCPOLYLOOP((#1957,#2090,#2088));
#376=IFCPOLYLOOP((#1957,#2094,#2092));
#377=IFCPOLYLOOP((#2119,#2120,#1955));
#378=IFCPOLYLOOP((#2042,#2040,#1866));
#379=IFCPOLYLOOP((#2022,#2020,#1851));
#380=IFCPOLYLOOP((#1851,#2062,#2060));
#381=IFCPOLYLOOP((#2092,#2090,#1957));
#382=IFCPOLYLOOP((#1955,#2099,#2106));
#383=IFCPOLYLOOP((#2040,#2036,#1866));
#384=IFCPOLYLOOP((#2060,#2058,#1851));
#385=IFCPOLYLOOP((#2068,#2066,#1957));
#386=IFCPOLYLOOP((#1955,#2096,#2099));
#387=IFCPOLYLOOP((#2036,#2039,#1866));
#388=IFCPOLYLOOP((#1851,#2064,#2062));
#389=IFCPOLYLOOP((#1957,#2122,#2094));
#390=IFCPOLYLOOP((#2121,#2123,#1955));
#391=IFCPOLYLOOP((#1866,#2004,#2005));
#392=IFCPOLYLOOP((#2016,#2006,#1851));
#393=IFCPOLYLOOP((#2123,#2122,#1957,#1955));
#394=IFCPOLYLOOP((#2006,#2004,#1866,#1851));
#395=IFCPOLYLOOP((#2039,#2096,#1955,#1866));
#396=IFCPOLYLOOP((#2066,#2064,#1851,#1957));
#397=IFCPOLYLOOP((#2024,#2010,#2009,#2013,#2015,#2003,#2002,#2007,#2017,
#2019,#2021,#2023,#2045));
#398=IFCPOLYLOOP((#2077,#2051,#2053));
#399=IFCPOLYLOOP((#2033,#2047,#2049));
#400=IFCPOLYLOOP((#2047,#2033,#2024));
#401=IFCPOLYLOOP((#2097,#2117,#2108));
#402=IFCPOLYLOOP((#2053,#2055,#2057,#2059,#2061,#2063,#2065,#2067,#2069,
#2071,#2073,#2075,#2077));
#403=IFCPOLYLOOP((#2045,#2047,#2024));
#404=IFCPOLYLOOP((#2097,#2083,#2115,#2117));
#405=IFCPOLYLOOP((#2112,#2083,#2085));
#406=IFCPOLYLOOP((#2077,#2079,#2051));
#407=IFCPOLYLOOP((#2051,#2081,#2031,#2033));
#408=IFCPOLYLOOP((#2083,#2097,#2038,#2037,#2041,#2043,#2034,#2028));
#409=IFCPOLYLOOP((#2083,#2111,#2115));
#410=IFCPOLYLOOP((#2085,#2087,#2089,#2091,#2093,#2095,#2124,#2125,#2126,
#2127,#2128,#2129,#2112));
#411=IFCPOLYLOOP((#2049,#2051,#2033));
#412=IFCPOLYLOOP((#2028,#2027,#2083));
#413=IFCPOLYLOOP((#2112,#2111,#2083));
#414=IFCPOLYLOOP((#2027,#2031,#2081,#2083));
#415=IFCPOLYLOOP((#2079,#2081,#2051));
#416=IFCPOLYLOOP((#2108,#2102,#2101,#2105,#2107,#2098,#2097));
#417=IFCPOLYLOOP((#2121,#2126,#2125,#2123));
#418=IFCPOLYLOOP((#2120,#2127,#2126,#2121));
#419=IFCPOLYLOOP((#2119,#2128,#2127,#2120));
#420=IFCPOLYLOOP((#2118,#2129,#2128,#2119));
#421=IFCPOLYLOOP((#2129,#2118,#2113,#2112));
#422=IFCPOLYLOOP((#2124,#2095,#2130));
#423=IFCPOLYLOOP((#2122,#2131,#2132));
#424=IFCPOLYLOOP((#2132,#2094,#2122));
#425=IFCPOLYLOOP((#2132,#2130,#2095,#2094));
#426=IFCPOLYLOOP((#2122,#2123,#2133));
#427=IFCPOLYLOOP((#2123,#2125,#2134,#2133));
#428=IFCPOLYLOOP((#2124,#2135,#2134));
#429=IFCPOLYLOOP((#2134,#2125,#2124));
#430=IFCPOLYLOOP((#2133,#2131,#2122));
#431=IFCPOLYLOOP((#2130,#2135,#2124));
#432=IFCPOLYLOOP((#2136,#2133,#2134,#2137));
#433=IFCPOLYLOOP((#2138,#2130,#2132,#2139));
#434=IFCPOLYLOOP((#2140,#2141,#2142));
#435=IFCPOLYLOOP((#2140,#2139,#2136));
#436=IFCPOLYLOOP((#2143,#2144,#2139));
#437=IFCPOLYLOOP((#2136,#2141,#2140));
#438=IFCPOLYLOOP((#2139,#2132,#2131));
#439=IFCPOLYLOOP((#2143,#2145,#2144));
#440=IFCPOLYLOOP((#2131,#2133,#2136,#2139));
#441=IFCPOLYLOOP((#2143,#2146,#2145));
#442=IFCPOLYLOOP((#2139,#2140,#2143));
#443=IFCPOLYLOOP((#2142,#2147,#2140));
#444=IFCPOLYLOOP((#2141,#2136,#2137));
#445=IFCPOLYLOOP((#2137,#2148,#2141));
#446=IFCPOLYLOOP((#2142,#2149,#2150));
#447=IFCPOLYLOOP((#2142,#2141,#2151));
#448=IFCPOLYLOOP((#2151,#2149,#2142));
#449=IFCPOLYLOOP((#2142,#2152,#2153));
#450=IFCPOLYLOOP((#2142,#2154,#2152));
#451=IFCPOLYLOOP((#2152,#2154,#2155));
#452=IFCPOLYLOOP((#2152,#2156,#2157));
#453=IFCPOLYLOOP((#2152,#2158,#2156));
#454=IFCPOLYLOOP((#2157,#2159,#2152));
#455=IFCPOLYLOOP((#2159,#2160,#2152));
#456=IFCPOLYLOOP((#2160,#2153,#2152));
#457=IFCPOLYLOOP((#2155,#2158,#2152));
#458=IFCPOLYLOOP((#2153,#2147,#2142));
#459=IFCPOLYLOOP((#2150,#2154,#2142));
#460=IFCPOLYLOOP((#2148,#2151,#2141));
#461=IFCPOLYLOOP((#2161,#2159,#2157));
#462=IFCPOLYLOOP((#2161,#2160,#2159));
#463=IFCPOLYLOOP((#2161,#2153,#2160));
#464=IFCPOLYLOOP((#2162,#2154,#2150));
#465=IFCPOLYLOOP((#2162,#2155,#2154));
#466=IFCPOLYLOOP((#2163,#2150,#2149));
#467=IFCPOLYLOOP((#2149,#2164,#2163));
#468=IFCPOLYLOOP((#2150,#2163,#2162));
#469=IFCPOLYLOOP((#2155,#2162,#2165,#2158));
#470=IFCPOLYLOOP((#2158,#2165,#2166,#2156));
#471=IFCPOLYLOOP((#2156,#2166,#2167,#2157));
#472=IFCPOLYLOOP((#2157,#2167,#2161));
#473=IFCPOLYLOOP((#2153,#2161,#2140,#2147));
#474=IFCPOLYLOOP((#1952,#1878,#1879));
#475=IFCPOLYLOOP((#1879,#1917,#1916,#1915,#1913,#1914,#1887,#1952));
#476=IFCPOLYLOOP((#1887,#1886,#1952));
#477=IFCPOLYLOOP((#1952,#1880,#1878));
#478=IFCPOLYLOOP((#2168,#1899,#1927,#1926,#1925,#1923,#1924,#1907));
#479=IFCPOLYLOOP((#1886,#1885,#1951,#1952));
#480=IFCPOLYLOOP((#1959,#1889,#1922,#1921,#1920,#1918,#1919,#1897));
#481=IFCPOLYLOOP((#2168,#1898,#1899));
#482=IFCPOLYLOOP((#2168,#1901,#1900));
#483=IFCPOLYLOOP((#1952,#1881,#1880));
#484=IFCPOLYLOOP((#1959,#1888,#1889));
#485=IFCPOLYLOOP((#1900,#1898,#2168));
#486=IFCPOLYLOOP((#1952,#1882,#1881));
#487=IFCPOLYLOOP((#2162,#1876,#1875));
#488=IFCPOLYLOOP((#1897,#1896,#1959));
#489=IFCPOLYLOOP((#2168,#1906,#1905));
#490=IFCPOLYLOOP((#2168,#1902,#1901));
#491=IFCPOLYLOOP((#1885,#1883,#1951));
#492=IFCPOLYLOOP((#2162,#2163,#1877,#1876));
#493=IFCPOLYLOOP((#1945,#1946,#1737,#1736));
#494=IFCPOLYLOOP((#1947,#1762,#1764));
#495=IFCPOLYLOOP((#1937,#1760,#1762));
#496=IFCPOLYLOOP((#1959,#1960,#1890,#1888));
#497=IFCPOLYLOOP((#2163,#1908,#1909));
#498=IFCPOLYLOOP((#2164,#1911,#1910));
#499=IFCPOLYLOOP((#1907,#1906,#2168));
#500=IFCPOLYLOOP((#1883,#1884,#1950,#1951));
#501=IFCPOLYLOOP((#1875,#1873,#2162));
#502=IFCPOLYLOOP((#1946,#1947,#1766,#1737));
#503=IFCPOLYLOOP((#1762,#1947,#1937));
#504=IFCPOLYLOOP((#1896,#1895,#1959));
#505=IFCPOLYLOOP((#1960,#1938,#1950,#1891));
#506=IFCPOLYLOOP((#1910,#1908,#2163,#2164));
#507=IFCPOLYLOOP((#1905,#1903,#2168));
#508=IFCPOLYLOOP((#1952,#1936,#1882));
#509=IFCPOLYLOOP((#1873,#1874,#2162));
#510=IFCPOLYLOOP((#1944,#1740,#1742));
#511=IFCPOLYLOOP((#1764,#1766,#1947));
#512=IFCPOLYLOOP((#1937,#1939,#1756,#1758));
#513=IFCPOLYLOOP((#1940,#1941,#1752,#1754));
#514=IFCPOLYLOOP((#1891,#1890,#1960));
#515=IFCPOLYLOOP((#2164,#2169,#1912,#1911));
#516=IFCPOLYLOOP((#1903,#1904,#2170,#2168));
#517=IFCPOLYLOOP((#1950,#1933,#1892));
#518=IFCPOLYLOOP((#1874,#1936,#1952,#2162));
#519=IFCPOLYLOOP((#1942,#1943,#1748,#1750));
#520=IFCPOLYLOOP((#1943,#1744,#1746));
#521=IFCPOLYLOOP((#1736,#1740,#1944,#1945));
#522=IFCPOLYLOOP((#1754,#1756,#1939,#1940));
#523=IFCPOLYLOOP((#1959,#1894,#1934));
#524=IFCPOLYLOOP((#1895,#1893,#1959));
#525=IFCPOLYLOOP((#2169,#1935,#1912));
#526=IFCPOLYLOOP((#2168,#1934,#1902));
#527=IFCPOLYLOOP((#1884,#1933,#1950));
#528=IFCPOLYLOOP((#1954,#2166,#2165));
#529=IFCPOLYLOOP((#1746,#1748,#1943));
#530=IFCPOLYLOOP((#1758,#1760,#1937));
#531=IFCPOLYLOOP((#1956,#2171,#2172));
#532=IFCPOLYLOOP((#1956,#1958,#1959,#2173,#2174));
#533=IFCPOLYLOOP((#1893,#1894,#1959));
#534=IFCPOLYLOOP((#1904,#1935,#2169,#2170));
#535=IFCPOLYLOOP((#2165,#2162,#1952,#1953,#1954));
#536=IFCPOLYLOOP((#1954,#1955,#2140,#2161));
#537=IFCPOLYLOOP((#1742,#1744,#1943,#1944));
#538=IFCPOLYLOOP((#1937,#1947,#1948,#1949));
#539=IFCPOLYLOOP((#2174,#2171,#1956));
#540=IFCPOLYLOOP((#1934,#2168,#2175));
#541=IFCPOLYLOOP((#1892,#1891,#1950));
#542=IFCPOLYLOOP((#2161,#2167,#1954));
#543=IFCPOLYLOOP((#1949,#1950,#1938,#1937));
#544=IFCPOLYLOOP((#1934,#2175,#2173,#1959));
#545=IFCPOLYLOOP((#2167,#2166,#1954));
#546=IFCPOLYLOOP((#2172,#2176,#1956));
#547=IFCPOLYLOOP((#1750,#1752,#1941,#1942));
#548=IFCPOLYLOOP((#1955,#1957,#2143,#2140));
#549=IFCPOLYLOOP((#1957,#1956,#2176,#2143));
#550=IFCPOLYLOOP((#1909,#1932,#1931,#1930,#1928,#1929,#1877,#2163));
#551=IFCPOLYLOOP((#2164,#2151,#2148));
#552=IFCPOLYLOOP((#2164,#2149,#2151));
#553=IFCPOLYLOOP((#2170,#2137,#2138));
#554=IFCPOLYLOOP((#2138,#2137,#2135));
#555=IFCPOLYLOOP((#2137,#2134,#2135));
#556=IFCPOLYLOOP((#2135,#2130,#2138));
#557=IFCPOLYLOOP((#2169,#2148,#2137));
#558=IFCPOLYLOOP((#2137,#2170,#2169));
#559=IFCPOLYLOOP((#2168,#2170,#2177));
#560=IFCPOLYLOOP((#2177,#2178,#2168));
#561=IFCPOLYLOOP((#2178,#2179,#2168));
#562=IFCPOLYLOOP((#2138,#2177,#2170));
#563=IFCPOLYLOOP((#2148,#2169,#2164));
#564=IFCPOLYLOOP((#2180,#2181,#2182));
#565=IFCPOLYLOOP((#2182,#2183,#2180));
#566=IFCPOLYLOOP((#2180,#2184,#2181));
#567=IFCPOLYLOOP((#2180,#2185,#2184));
#568=IFCPOLYLOOP((#2180,#2186,#2187));
#569=IFCPOLYLOOP((#2187,#2188,#2180));
#570=IFCPOLYLOOP((#2145,#2146,#2185));
#571=IFCPOLYLOOP((#2185,#2180,#2145));
#572=IFCPOLYLOOP((#2180,#2188,#2145));
#573=IFCPOLYLOOP((#2145,#2179,#2178));
#574=IFCPOLYLOOP((#2145,#2188,#2179));
#575=IFCPOLYLOOP((#2144,#2177,#2138));
#576=IFCPOLYLOOP((#2144,#2178,#2177));
#577=IFCPOLYLOOP((#2138,#2139,#2144));
#578=IFCPOLYLOOP((#2178,#2144,#2145));
#579=IFCPOLYLOOP((#2183,#2186,#2180));
#580=IFCPOLYLOOP((#2176,#2172,#2182));
#581=IFCPOLYLOOP((#2182,#2181,#2176));
#582=IFCPOLYLOOP((#2181,#2184,#2176));
#583=IFCPOLYLOOP((#2184,#2185,#2176));
#584=IFCPOLYLOOP((#2182,#2172,#2171,#2183));
#585=IFCPOLYLOOP((#2183,#2171,#2174,#2186));
#586=IFCPOLYLOOP((#2186,#2174,#2173,#2187));
#587=IFCPOLYLOOP((#2187,#2173,#2175,#2188));
#588=IFCPOLYLOOP((#2188,#2175,#2168,#2179));
#589=IFCPOLYLOOP((#2146,#2143,#2176,#2185));
#590=IFCFACEOUTERBOUND(#26,.T.);
#591=IFCFACEOUTERBOUND(#27,.T.);
#592=IFCFACEOUTERBOUND(#28,.T.);
#593=IFCFACEOUTERBOUND(#29,.T.);
#594=IFCFACEOUTERBOUND(#30,.T.);
#595=IFCFACEOUTERBOUND(#31,.T.);
#596=IFCFACEOUTERBOUND(#32,.T.);
#597=IFCFACEOUTERBOUND(#33,.T.);
#598=IFCFACEOUTERBOUND(#34,.T.);
#599=IFCFACEOUTERBOUND(#35,.T.);
#600=IFCFACEOUTERBOUND(#36,.T.);
#601=IFCFACEOUTERBOUND(#37,.T.);
#602=IFCFACEOUTERBOUND(#38,.T.);
#603=IFCFACEOUTERBOUND(#39,.T.);
#604=IFCFACEOUTERBOUND(#40,.T.);
#605=IFCFACEOUTERBOUND(#41,.T.);
#606=IFCFACEOUTERBOUND(#42,.T.);
#607=IFCFACEOUTERBOUND(#43,.T.);
#608=IFCFACEOUTERBOUND(#44,.T.);
#609=IFCFACEOUTERBOUND(#45,.T.);
#610=IFCFACEOUTERBOUND(#46,.T.);
#611=IFCFACEOUTERBOUND(#47,.T.);
#612=IFCFACEOUTERBOUND(#48,.T.);
#613=IFCFACEOUTERBOUND(#49,.T.);
#614=IFCFACEOUTERBOUND(#50,.T.);
#615=IFCFACEOUTERBOUND(#51,.T.);
#616=IFCFACEOUTERBOUND(#52,.T.);
#617=IFCFACEOUTERBOUND(#53,.T.);
#618=IFCFACEOUTERBOUND(#54,.T.);
#619=IFCFACEOUTERBOUND(#55,.T.);
#620=IFCFACEOUTERBOUND(#56,.T.);
#621=IFCFACEOUTERBOUND(#57,.T.);
#622=IFCFACEOUTERBOUND(#58,.T.);
#623=IFCFACEOUTERBOUND(#59,.T.);
#624=IFCFACEOUTERBOUND(#60,.T.);
#625=IFCFACEOUTERBOUND(#61,.T.);
#626=IFCFACEOUTERBOUND(#62,.T.);
#627=IFCFACEOUTERBOUND(#63,.T.);
#628=IFCFACEOUTERBOUND(#64,.T.);
#629=IFCFACEOUTERBOUND(#65,.T.);
#630=IFCFACEOUTERBOUND(#66,.T.);
#631=IFCFACEOUTERBOUND(#67,.T.);
#632=IFCFACEOUTERBOUND(#68,.T.);
#633=IFCFACEOUTERBOUND(#69,.T.);
#634=IFCFACEOUTERBOUND(#70,.T.);
#635=IFCFACEOUTERBOUND(#71,.T.);
#636=IFCFACEOUTERBOUND(#72,.T.);
#637=IFCFACEOUTERBOUND(#73,.T.);
#638=IFCFACEOUTERBOUND(#74,.T.);
#639=IFCFACEOUTERBOUND(#75,.T.);
#640=IFCFACEOUTERBOUND(#76,.T.);
#641=IFCFACEOUTERBOUND(#77,.T.);
#642=IFCFACEOUTERBOUND(#78,.T.);
#643=IFCFACEOUTERBOUND(#79,.T.);
#644=IFCFACEOUTERBOUND(#80,.T.);
#645=IFCFACEOUTERBOUND(#81,.T.);
#646=IFCFACEOUTERBOUND(#82,.T.);
#647=IFCFACEOUTERBOUND(#83,.T.);
#648=IFCFACEOUTERBOUND(#84,.T.);
#649=IFCFACEOUTERBOUND(#85,.T.);
#650=IFCFACEOUTERBOUND(#86,.T.);
#651=IFCFACEOUTERBOUND(#87,.T.);
#652=IFCFACEOUTERBOUND(#88,.T.);
#653=IFCFACEOUTERBOUND(#89,.T.);
#654=IFCFACEOUTERBOUND(#90,.T.);
#655=IFCFACEOUTERBOUND(#91,.T.);
#656=IFCFACEOUTERBOUND(#92,.T.);
#657=IFCFACEOUTERBOUND(#93,.T.);
#658=IFCFACEOUTERBOUND(#94,.T.);
#659=IFCFACEOUTERBOUND(#95,.T.);
#660=IFCFACEOUTERBOUND(#96,.T.);
#661=IFCFACEOUTERBOUND(#97,.T.);
#662=IFCFACEOUTERBOUND(#98,.T.);
#663=IFCFACEOUTERBOUND(#99,.T.);
#664=IFCFACEOUTERBOUND(#100,.T.);
#665=IFCFACEOUTERBOUND(#101,.T.);
#666=IFCFACEOUTERBOUND(#102,.T.);
#667=IFCFACEOUTERBOUND(#103,.T.);
#668=IFCFACEOUTERBOUND(#104,.T.);
#669=IFCFACEOUTERBOUND(#105,.T.);
#670=IFCFACEOUTERBOUND(#106,.T.);
#671=IFCFACEOUTERBOUND(#107,.T.);
#672=IFCFACEOUTERBOUND(#108,.T.);
#673=IFCFACEOUTERBOUND(#109,.T.);
#674=IFCFACEOUTERBOUND(#110,.T.);
#675=IFCFACEOUTERBOUND(#111,.T.);
#676=IFCFACEOUTERBOUND(#112,.T.);
#677=IFCFACEOUTERBOUND(#113,.T.);
#678=IFCFACEOUTERBOUND(#114,.T.);
#679=IFCFACEOUTERBOUND(#115,.T.);
#680=IFCFACEOUTERBOUND(#116,.T.);
#681=IFCFACEOUTERBOUND(#117,.T.);
#682=IFCFACEOUTERBOUND(#118,.T.);
#683=IFCFACEOUTERBOUND(#119,.T.);
#684=IFCFACEOUTERBOUND(#120,.T.);
#685=IFCFACEOUTERBOUND(#121,.T.);
#686=IFCFACEOUTERBOUND(#122,.T.);
#687=IFCFACEOUTERBOUND(#123,.T.);
#688=IFCFACEOUTERBOUND(#124,.T.);
#689=IFCFACEOUTERBOUND(#125,.T.);
#690=IFCFACEOUTERBOUND(#126,.T.);
#691=IFCFACEOUTERBOUND(#127,.T.);
#692=IFCFACEOUTERBOUND(#128,.T.);
#693=IFCFACEOUTERBOUND(#129,.T.);
#694=IFCFACEOUTERBOUND(#130,.T.);
#695=IFCFACEOUTERBOUND(#131,.T.);
#696=IFCFACEOUTERBOUND(#132,.T.);
#697=IFCFACEOUTERBOUND(#133,.T.);
#698=IFCFACEOUTERBOUND(#134,.T.);
#699=IFCFACEOUTERBOUND(#135,.T.);
#700=IFCFACEOUTERBOUND(#136,.T.);
#701=IFCFACEOUTERBOUND(#137,.T.);
#702=IFCFACEOUTERBOUND(#138,.T.);
#703=IFCFACEOUTERBOUND(#139,.T.);
#704=IFCFACEOUTERBOUND(#140,.T.);
#705=IFCFACEOUTERBOUND(#141,.T.);
#706=IFCFACEOUTERBOUND(#142,.T.);
#707=IFCFACEOUTERBOUND(#143,.T.);
#708=IFCFACEOUTERBOUND(#144,.T.);
#709=IFCFACEOUTERBOUND(#145,.T.);
#710=IFCFACEOUTERBOUND(#146,.T.);
#711=IFCFACEOUTERBOUND(#147,.T.);
#712=IFCFACEOUTERBOUND(#148,.T.);
#713=IFCFACEOUTERBOUND(#149,.T.);
#714=IFCFACEOUTERBOUND(#150,.T.);
#715=IFCFACEOUTERBOUND(#151,.T.);
#716=IFCFACEOUTERBOUND(#152,.T.);
#717=IFCFACEOUTERBOUND(#153,.T.);
#718=IFCFACEOUTERBOUND(#154,.T.);
#719=IFCFACEOUTERBOUND(#155,.T.);
#720=IFCFACEOUTERBOUND(#156,.T.);
#721=IFCFACEOUTERBOUND(#157,.T.);
#722=IFCFACEOUTERBOUND(#158,.T.);
#723=IFCFACEOUTERBOUND(#159,.T.);
#724=IFCFACEOUTERBOUND(#160,.T.);
#725=IFCFACEOUTERBOUND(#161,.T.);
#726=IFCFACEOUTERBOUND(#162,.T.);
#727=IFCFACEOUTERBOUND(#163,.T.);
#728=IFCFACEOUTERBOUND(#164,.T.);
#729=IFCFACEOUTERBOUND(#165,.T.);
#730=IFCFACEOUTERBOUND(#166,.T.);
#731=IFCFACEOUTERBOUND(#167,.T.);
#732=IFCFACEOUTERBOUND(#168,.T.);
#733=IFCFACEOUTERBOUND(#169,.T.);
#734=IFCFACEOUTERBOUND(#170,.T.);
#735=IFCFACEOUTERBOUND(#171,.T.);
#736=IFCFACEOUTERBOUND(#172,.T.);
#737=IFCFACEOUTERBOUND(#173,.T.);
#738=IFCFACEOUTERBOUND(#174,.T.);
#739=IFCFACEOUTERBOUND(#175,.T.);
#740=IFCFACEOUTERBOUND(#176,.T.);
#741=IFCFACEOUTERBOUND(#177,.T.);
#742=IFCFACEOUTERBOUND(#178,.T.);
#743=IFCFACEOUTERBOUND(#179,.T.);
#744=IFCFACEOUTERBOUND(#180,.T.);
#745=IFCFACEOUTERBOUND(#181,.T.);
#746=IFCFACEOUTERBOUND(#182,.T.);
#747=IFCFACEOUTERBOUND(#183,.T.);
#748=IFCFACEOUTERBOUND(#184,.T.);
#749=IFCFACEOUTERBOUND(#185,.T.);
#750=IFCFACEOUTERBOUND(#186,.T.);
#751=IFCFACEOUTERBOUND(#187,.T.);
#752=IFCFACEOUTERBOUND(#188,.T.);
#753=IFCFACEOUTERBOUND(#189,.T.);
#754=IFCFACEOUTERBOUND(#190,.T.);
#755=IFCFACEOUTERBOUND(#191,.T.);
#756=IFCFACEOUTERBOUND(#192,.T.);
#757=IFCFACEOUTERBOUND(#193,.T.);
#758=IFCFACEOUTERBOUND(#194,.T.);
#759=IFCFACEOUTERBOUND(#195,.T.);
#760=IFCFACEOUTERBOUND(#196,.T.);
#761=IFCFACEOUTERBOUND(#197,.T.);
#762=IFCFACEOUTERBOUND(#198,.T.);
#763=IFCFACEOUTERBOUND(#199,.T.);
#764=IFCFACEOUTERBOUND(#200,.T.);
#765=IFCFACEOUTERBOUND(#201,.T.);
#766=IFCFACEOUTERBOUND(#202,.T.);
#767=IFCFACEOUTERBOUND(#203,.T.);
#768=IFCFACEOUTERBOUND(#204,.T.);
#769=IFCFACEOUTERBOUND(#205,.T.);
#770=IFCFACEOUTERBOUND(#206,.T.);
#771=IFCFACEOUTERBOUND(#207,.T.);
#772=IFCFACEOUTERBOUND(#208,.T.);
#773=IFCFACEOUTERBOUND(#209,.T.);
#774=IFCFACEOUTERBOUND(#210,.T.);
#775=IFCFACEOUTERBOUND(#211,.T.);
#776=IFCFACEOUTERBOUND(#212,.T.);
#777=IFCFACEOUTERBOUND(#213,.T.);
#778=IFCFACEOUTERBOUND(#214,.T.);
#779=IFCFACEOUTERBOUND(#215,.T.);
#780=IFCFACEOUTERBOUND(#216,.T.);
#781=IFCFACEOUTERBOUND(#217,.T.);
#782=IFCFACEOUTERBOUND(#218,.T.);
#783=IFCFACEOUTERBOUND(#219,.T.);
#784=IFCFACEOUTERBOUND(#220,.T.);
#785=IFCFACEOUTERBOUND(#221,.T.);
#786=IFCFACEOUTERBOUND(#222,.T.);
#787=IFCFACEOUTERBOUND(#223,.T.);
#788=IFCFACEOUTERBOUND(#224,.T.);
#789=IFCFACEOUTERBOUND(#225,.T.);
#790=IFCFACEOUTERBOUND(#226,.T.);
#791=IFCFACEOUTERBOUND(#227,.T.);
#792=IFCFACEOUTERBOUND(#228,.T.);
#793=IFCFACEOUTERBOUND(#229,.T.);
#794=IFCFACEOUTERBOUND(#230,.T.);
#795=IFCFACEOUTERBOUND(#231,.T.);
#796=IFCFACEOUTERBOUND(#232,.T.);
#797=IFCFACEOUTERBOUND(#233,.T.);
#798=IFCFACEOUTERBOUND(#234,.T.);
#799=IFCFACEOUTERBOUND(#235,.T.);
#800=IFCFACEOUTERBOUND(#236,.T.);
#801=IFCFACEOUTERBOUND(#237,.T.);
#802=IFCFACEOUTERBOUND(#238,.T.);
#803=IFCFACEOUTERBOUND(#239,.T.);
#804=IFCFACEOUTERBOUND(#240,.T.);
#805=IFCFACEOUTERBOUND(#241,.T.);
#806=IFCFACEOUTERBOUND(#242,.T.);
#807=IFCFACEOUTERBOUND(#243,.T.);
#808=IFCFACEOUTERBOUND(#244,.T.);
#809=IFCFACEOUTERBOUND(#245,.T.);
#810=IFCFACEOUTERBOUND(#246,.T.);
#811=IFCFACEOUTERBOUND(#247,.T.);
#812=IFCFACEOUTERBOUND(#248,.T.);
#813=IFCFACEOUTERBOUND(#249,.T.);
#814=IFCFACEOUTERBOUND(#250,.T.);
#815=IFCFACEOUTERBOUND(#251,.T.);
#816=IFCFACEOUTERBOUND(#252,.T.);
#817=IFCFACEOUTERBOUND(#253,.T.);
#818=IFCFACEOUTERBOUND(#254,.T.);
#819=IFCFACEOUTERBOUND(#255,.T.);
#820=IFCFACEOUTERBOUND(#256,.T.);
#821=IFCFACEOUTERBOUND(#257,.T.);
#822=IFCFACEOUTERBOUND(#258,.T.);
#823=IFCFACEOUTERBOUND(#259,.T.);
#824=IFCFACEOUTERBOUND(#260,.T.);
#825=IFCFACEOUTERBOUND(#261,.T.);
#826=IFCFACEOUTERBOUND(#262,.T.);
#827=IFCFACEOUTERBOUND(#263,.T.);
#828=IFCFACEOUTERBOUND(#264,.T.);
#829=IFCFACEOUTERBOUND(#265,.T.);
#830=IFCFACEOUTERBOUND(#266,.T.);
#831=IFCFACEOUTERBOUND(#267,.T.);
#832=IFCFACEOUTERBOUND(#268,.T.);
#833=IFCFACEOUTERBOUND(#269,.T.);
#834=IFCFACEOUTERBOUND(#270,.T.);
#835=IFCFACEOUTERBOUND(#271,.T.);
#836=IFCFACEOUTERBOUND(#272,.T.);
#837=IFCFACEOUTERBOUND(#273,.T.);
#838=IFCFACEOUTERBOUND(#274,.T.);
#839=IFCFACEOUTERBOUND(#275,.T.);
#840=IFCFACEOUTERBOUND(#276,.T.);
#841=IFCFACEOUTERBOUND(#277,.T.);
#842=IFCFACEOUTERBOUND(#278,.T.);
#843=IFCFACEOUTERBOUND(#279,.T.);
#844=IFCFACEOUTERBOUND(#280,.T.);
#845=IFCFACEOUTERBOUND(#281,.T.);
#846=IFCFACEOUTERBOUND(#282,.T.);
#847=IFCFACEOUTERBOUND(#283,.T.);
#848=IFCFACEOUTERBOUND(#284,.T.);
#849=IFCFACEOUTERBOUND(#285,.T.);
#850=IFCFACEOUTERBOUND(#286,.T.);
#851=IFCFACEOUTERBOUND(#287,.T.);
#852=IFCFACEOUTERBOUND(#288,.T.);
#853=IFCFACEOUTERBOUND(#289,.T.);
#854=IFCFACEOUTERBOUND(#290,.T.);
#855=IFCFACEOUTERBOUND(#291,.T.);
#856=IFCFACEOUTERBOUND(#292,.T.);
#857=IFCFACEOUTERBOUND(#293,.T.);
#858=IFCFACEOUTERBOUND(#294,.T.);
#859=IFCFACEOUTERBOUND(#295,.T.);
#860=IFCFACEOUTERBOUND(#296,.T.);
#861=IFCFACEOUTERBOUND(#297,.T.);
#862=IFCFACEOUTERBOUND(#298,.T.);
#863=IFCFACEOUTERBOUND(#299,.T.);
#864=IFCFACEOUTERBOUND(#300,.T.);
#865=IFCFACEOUTERBOUND(#301,.T.);
#866=IFCFACEOUTERBOUND(#302,.T.);
#867=IFCFACEOUTERBOUND(#303,.T.);
#868=IFCFACEOUTERBOUND(#304,.T.);
#869=IFCFACEOUTERBOUND(#305,.T.);
#870=IFCFACEOUTERBOUND(#306,.T.);
#871=IFCFACEOUTERBOUND(#307,.T.);
#872=IFCFACEOUTERBOUND(#308,.T.);
#873=IFCFACEOUTERBOUND(#309,.T.);
#874=IFCFACEOUTERBOUND(#310,.T.);
#875=IFCFACEOUTERBOUND(#311,.T.);
#876=IFCFACEOUTERBOUND(#312,.T.);
#877=IFCFACEOUTERBOUND(#313,.T.);
#878=IFCFACEOUTERBOUND(#314,.T.);
#879=IFCFACEOUTERBOUND(#315,.T.);
#880=IFCFACEOUTERBOUND(#316,.T.);
#881=IFCFACEOUTERBOUND(#317,.T.);
#882=IFCFACEOUTERBOUND(#318,.T.);
#883=IFCFACEOUTERBOUND(#319,.T.);
#884=IFCFACEOUTERBOUND(#320,.T.);
#885=IFCFACEOUTERBOUND(#321,.T.);
#886=IFCFACEOUTERBOUND(#322,.T.);
#887=IFCFACEOUTERBOUND(#323,.T.);
#888=IFCFACEOUTERBOUND(#324,.T.);
#889=IFCFACEOUTERBOUND(#325,.T.);
#890=IFCFACEOUTERBOUND(#326,.T.);
#891=IFCFACEOUTERBOUND(#327,.T.);
#892=IFCFACEOUTERBOUND(#328,.T.);
#893=IFCFACEOUTERBOUND(#329,.T.);
#894=IFCFACEOUTERBOUND(#330,.T.);
#895=IFCFACEOUTERBOUND(#331,.T.);
#896=IFCFACEOUTERBOUND(#332,.T.);
#897=IFCFACEOUTERBOUND(#333,.T.);
#898=IFCFACEOUTERBOUND(#334,.T.);
#899=IFCFACEOUTERBOUND(#335,.T.);
#900=IFCFACEOUTERBOUND(#336,.T.);
#901=IFCFACEOUTERBOUND(#337,.T.);
#902=IFCFACEOUTERBOUND(#338,.T.);
#903=IFCFACEOUTERBOUND(#339,.T.);
#904=IFCFACEOUTERBOUND(#340,.T.);
#905=IFCFACEOUTERBOUND(#341,.T.);
#906=IFCFACEOUTERBOUND(#342,.T.);
#907=IFCFACEOUTERBOUND(#343,.T.);
#908=IFCFACEOUTERBOUND(#344,.T.);
#909=IFCFACEOUTERBOUND(#345,.T.);
#910=IFCFACEOUTERBOUND(#346,.T.);
#911=IFCFACEOUTERBOUND(#347,.T.);
#912=IFCFACEOUTERBOUND(#348,.T.);
#913=IFCFACEOUTERBOUND(#349,.T.);
#914=IFCFACEOUTERBOUND(#350,.T.);
#915=IFCFACEOUTERBOUND(#351,.T.);
#916=IFCFACEOUTERBOUND(#352,.T.);
#917=IFCFACEOUTERBOUND(#353,.T.);
#918=IFCFACEOUTERBOUND(#354,.T.);
#919=IFCFACEOUTERBOUND(#355,.T.);
#920=IFCFACEOUTERBOUND(#356,.T.);
#921=IFCFACEOUTERBOUND(#357,.T.);
#922=IFCFACEOUTERBOUND(#358,.T.);
#923=IFCFACEOUTERBOUND(#359,.T.);
#924=IFCFACEOUTERBOUND(#360,.T.);
#925=IFCFACEOUTERBOUND(#361,.T.);
#926=IFCFACEOUTERBOUND(#362,.T.);
#927=IFCFACEOUTERBOUND(#363,.T.);
#928=IFCFACEOUTERBOUND(#364,.T.);
#929=IFCFACEOUTERBOUND(#365,.T.);
#930=IFCFACEOUTERBOUND(#366,.T.);
#931=IFCFACEOUTERBOUND(#367,.T.);
#932=IFCFACEOUTERBOUND(#368,.T.);
#933=IFCFACEOUTERBOUND(#369,.T.);
#934=IFCFACEOUTERBOUND(#370,.T.);
#935=IFCFACEOUTERBOUND(#371,.T.);
#936=IFCFACEOUTERBOUND(#372,.T.);
#937=IFCFACEOUTERBOUND(#373,.T.);
#938=IFCFACEOUTERBOUND(#374,.T.);
#939=IFCFACEOUTERBOUND(#375,.T.);
#940=IFCFACEOUTERBOUND(#376,.T.);
#941=IFCFACEOUTERBOUND(#377,.T.);
#942=IFCFACEOUTERBOUND(#378,.T.);
#943=IFCFACEOUTERBOUND(#379,.T.);
#944=IFCFACEOUTERBOUND(#380,.T.);
#945=IFCFACEOUTERBOUND(#381,.T.);
#946=IFCFACEOUTERBOUND(#382,.T.);
#947=IFCFACEOUTERBOUND(#383,.T.);
#948=IFCFACEOUTERBOUND(#384,.T.);
#949=IFCFACEOUTERBOUND(#385,.T.);
#950=IFCFACEOUTERBOUND(#386,.T.);
#951=IFCFACEOUTERBOUND(#387,.T.);
#952=IFCFACEOUTERBOUND(#388,.T.);
#953=IFCFACEOUTERBOUND(#389,.T.);
#954=IFCFACEOUTERBOUND(#390,.T.);
#955=IFCFACEOUTERBOUND(#391,.T.);
#956=IFCFACEOUTERBOUND(#392,.T.);
#957=IFCFACEOUTERBOUND(#393,.T.);
#958=IFCFACEOUTERBOUND(#394,.T.);
#959=IFCFACEOUTERBOUND(#395,.T.);
#960=IFCFACEOUTERBOUND(#396,.T.);
#961=IFCFACEOUTERBOUND(#397,.T.);
#962=IFCFACEOUTERBOUND(#398,.T.);
#963=IFCFACEOUTERBOUND(#399,.T.);
#964=IFCFACEOUTERBOUND(#400,.T.);
#965=IFCFACEOUTERBOUND(#401,.T.);
#966=IFCFACEOUTERBOUND(#402,.T.);
#967=IFCFACEOUTERBOUND(#403,.T.);
#968=IFCFACEOUTERBOUND(#404,.T.);
#969=IFCFACEOUTERBOUND(#405,.T.);
#970=IFCFACEOUTERBOUND(#406,.T.);
#971=IFCFACEOUTERBOUND(#407,.T.);
#972=IFCFACEOUTERBOUND(#408,.T.);
#973=IFCFACEOUTERBOUND(#409,.T.);
#974=IFCFACEOUTERBOUND(#410,.T.);
#975=IFCFACEOUTERBOUND(#411,.T.);
#976=IFCFACEOUTERBOUND(#412,.T.);
#977=IFCFACEOUTERBOUND(#413,.T.);
#978=IFCFACEOUTERBOUND(#414,.T.);
#979=IFCFACEOUTERBOUND(#415,.T.);
#980=IFCFACEOUTERBOUND(#416,.T.);
#981=IFCFACEOUTERBOUND(#417,.T.);
#982=IFCFACEOUTERBOUND(#418,.T.);
#983=IFCFACEOUTERBOUND(#419,.T.);
#984=IFCFACEOUTERBOUND(#420,.T.);
#985=IFCFACEOUTERBOUND(#421,.T.);
#986=IFCFACEOUTERBOUND(#422,.T.);
#987=IFCFACEOUTERBOUND(#423,.T.);
#988=IFCFACEOUTERBOUND(#424,.T.);
#989=IFCFACEOUTERBOUND(#425,.T.);
#990=IFCFACEOUTERBOUND(#426,.T.);
#991=IFCFACEOUTERBOUND(#427,.T.);
#992=IFCFACEOUTERBOUND(#428,.T.);
#993=IFCFACEOUTERBOUND(#429,.T.);
#994=IFCFACEOUTERBOUND(#430,.T.);
#995=IFCFACEOUTERBOUND(#431,.T.);
#996=IFCFACEOUTERBOUND(#432,.T.);
#997=IFCFACEOUTERBOUND(#433,.T.);
#998=IFCFACEOUTERBOUND(#434,.T.);
#999=IFCFACEOUTERBOUND(#435,.T.);
#1000=IFCFACEOUTERBOUND(#436,.T.);
#1001=IFCFACEOUTERBOUND(#437,.T.);
#1002=IFCFACEOUTERBOUND(#438,.T.);
#1003=IFCFACEOUTERBOUND(#439,.T.);
#1004=IFCFACEOUTERBOUND(#440,.T.);
#1005=IFCFACEOUTERBOUND(#441,.T.);
#1006=IFCFACEOUTERBOUND(#442,.T.);
#1007=IFCFACEOUTERBOUND(#443,.T.);
#1008=IFCFACEOUTERBOUND(#444,.T.);
#1009=IFCFACEOUTERBOUND(#445,.T.);
#1010=IFCFACEOUTERBOUND(#446,.T.);
#1011=IFCFACEOUTERBOUND(#447,.T.);
#1012=IFCFACEOUTERBOUND(#448,.T.);
#1013=IFCFACEOUTERBOUND(#449,.T.);
#1014=IFCFACEOUTERBOUND(#450,.T.);
#1015=IFCFACEOUTERBOUND(#451,.T.);
#1016=IFCFACEOUTERBOUND(#452,.T.);
#1017=IFCFACEOUTERBOUND(#453,.T.);
#1018=IFCFACEOUTERBOUND(#454,.T.);
#1019=IFCFACEOUTERBOUND(#455,.T.);
#1020=IFCFACEOUTERBOUND(#456,.T.);
#1021=IFCFACEOUTERBOUND(#457,.T.);
#1022=IFCFACEOUTERBOUND(#458,.T.);
#1023=IFCFACEOUTERBOUND(#459,.T.);
#1024=IFCFACEOUTERBOUND(#460,.T.);
#1025=IFCFACEOUTERBOUND(#461,.T.);
#1026=IFCFACEOUTERBOUND(#462,.T.);
#1027=IFCFACEOUTERBOUND(#463,.T.);
#1028=IFCFACEOUTERBOUND(#464,.T.);
#1029=IFCFACEOUTERBOUND(#465,.T.);
#1030=IFCFACEOUTERBOUND(#466,.T.);
#1031=IFCFACEOUTERBOUND(#467,.T.);
#1032=IFCFACEOUTERBOUND(#468,.T.);
#1033=IFCFACEOUTERBOUND(#469,.T.);
#1034=IFCFACEOUTERBOUND(#470,.T.);
#1035=IFCFACEOUTERBOUND(#471,.T.);
#1036=IFCFACEOUTERBOUND(#472,.T.);
#1037=IFCFACEOUTERBOUND(#473,.T.);
#1038=IFCFACEOUTERBOUND(#474,.T.);
#1039=IFCFACEOUTERBOUND(#475,.T.);
#1040=IFCFACEOUTERBOUND(#476,.T.);
#1041=IFCFACEOUTERBOUND(#477,.T.);
#1042=IFCFACEOUTERBOUND(#478,.T.);
#1043=IFCFACEOUTERBOUND(#479,.T.);
#1044=IFCFACEOUTERBOUND(#480,.T.);
#1045=IFCFACEOUTERBOUND(#481,.T.);
#1046=IFCFACEOUTERBOUND(#482,.T.);
#1047=IFCFACEOUTERBOUND(#483,.T.);
#1048=IFCFACEOUTERBOUND(#484,.T.);
#1049=IFCFACEOUTERBOUND(#485,.T.);
#1050=IFCFACEOUTERBOUND(#486,.T.);
#1051=IFCFACEOUTERBOUND(#487,.T.);
#1052=IFCFACEOUTERBOUND(#488,.T.);
#1053=IFCFACEOUTERBOUND(#489,.T.);
#1054=IFCFACEOUTERBOUND(#490,.T.);
#1055=IFCFACEOUTERBOUND(#491,.T.);
#1056=IFCFACEOUTERBOUND(#492,.T.);
#1057=IFCFACEOUTERBOUND(#493,.T.);
#1058=IFCFACEOUTERBOUND(#494,.T.);
#1059=IFCFACEOUTERBOUND(#495,.T.);
#1060=IFCFACEOUTERBOUND(#496,.T.);
#1061=IFCFACEOUTERBOUND(#497,.T.);
#1062=IFCFACEOUTERBOUND(#498,.T.);
#1063=IFCFACEOUTERBOUND(#499,.T.);
#1064=IFCFACEOUTERBOUND(#500,.T.);
#1065=IFCFACEOUTERBOUND(#501,.T.);
#1066=IFCFACEOUTERBOUND(#502,.T.);
#1067=IFCFACEOUTERBOUND(#503,.T.);
#1068=IFCFACEOUTERBOUND(#504,.T.);
#1069=IFCFACEOUTERBOUND(#505,.T.);
#1070=IFCFACEOUTERBOUND(#506,.T.);
#1071=IFCFACEOUTERBOUND(#507,.T.);
#1072=IFCFACEOUTERBOUND(#508,.T.);
#1073=IFCFACEOUTERBOUND(#509,.T.);
#1074=IFCFACEOUTERBOUND(#510,.T.);
#1075=IFCFACEOUTERBOUND(#511,.T.);
#1076=IFCFACEOUTERBOUND(#512,.T.);
#1077=IFCFACEOUTERBOUND(#513,.T.);
#1078=IFCFACEOUTERBOUND(#514,.T.);
#1079=IFCFACEOUTERBOUND(#515,.T.);
#1080=IFCFACEOUTERBOUND(#516,.T.);
#1081=IFCFACEOUTERBOUND(#517,.T.);
#1082=IFCFACEOUTERBOUND(#518,.T.);
#1083=IFCFACEOUTERBOUND(#519,.T.);
#1084=IFCFACEOUTERBOUND(#520,.T.);
#1085=IFCFACEOUTERBOUND(#521,.T.);
#1086=IFCFACEOUTERBOUND(#522,.T.);
#1087=IFCFACEOUTERBOUND(#523,.T.);
#1088=IFCFACEOUTERBOUND(#524,.T.);
#1089=IFCFACEOUTERBOUND(#525,.T.);
#1090=IFCFACEOUTERBOUND(#526,.T.);
#1091=IFCFACEOUTERBOUND(#527,.T.);
#1092=IFCFACEOUTERBOUND(#528,.T.);
#1093=IFCFACEOUTERBOUND(#529,.T.);
#1094=IFCFACEOUTERBOUND(#530,.T.);
#1095=IFCFACEOUTERBOUND(#531,.T.);
#1096=IFCFACEOUTERBOUND(#532,.T.);
#1097=IFCFACEOUTERBOUND(#533,.T.);
#1098=IFCFACEOUTERBOUND(#534,.T.);
#1099=IFCFACEOUTERBOUND(#535,.T.);
#1100=IFCFACEOUTERBOUND(#536,.T.);
#1101=IFCFACEOUTERBOUND(#537,.T.);
#1102=IFCFACEOUTERBOUND(#538,.T.);
#1103=IFCFACEOUTERBOUND(#539,.T.);
#1104=IFCFACEOUTERBOUND(#540,.T.);
#1105=IFCFACEOUTERBOUND(#541,.T.);
#1106=IFCFACEOUTERBOUND(#542,.T.);
#1107=IFCFACEOUTERBOUND(#543,.T.);
#1108=IFCFACEOUTERBOUND(#544,.T.);
#1109=IFCFACEOUTERBOUND(#545,.T.);
#1110=IFCFACEOUTERBOUND(#546,.T.);
#1111=IFCFACEOUTERBOUND(#547,.T.);
#1112=IFCFACEOUTERBOUND(#548,.T.);
#1113=IFCFACEOUTERBOUND(#549,.T.);
#1114=IFCFACEOUTERBOUND(#550,.T.);
#1115=IFCFACEOUTERBOUND(#551,.T.);
#1116=IFCFACEOUTERBOUND(#552,.T.);
#1117=IFCFACEOUTERBOUND(#553,.T.);
#1118=IFCFACEOUTERBOUND(#554,.T.);
#1119=IFCFACEOUTERBOUND(#555,.T.);
#1120=IFCFACEOUTERBOUND(#556,.T.);
#1121=IFCFACEOUTERBOUND(#557,.T.);
#1122=IFCFACEOUTERBOUND(#558,.T.);
#1123=IFCFACEOUTERBOUND(#559,.T.);
#1124=IFCFACEOUTERBOUND(#560,.T.);
#1125=IFCFACEOUTERBOUND(#561,.T.);
#1126=IFCFACEOUTERBOUND(#562,.T.);
#1127=IFCFACEOUTERBOUND(#563,.T.);
#1128=IFCFACEOUTERBOUND(#564,.T.);
#1129=IFCFACEOUTERBOUND(#565,.T.);
#1130=IFCFACEOUTERBOUND(#566,.T.);
#1131=IFCFACEOUTERBOUND(#567,.T.);
#1132=IFCFACEOUTERBOUND(#568,.T.);
#1133=IFCFACEOUTERBOUND(#569,.T.);
#1134=IFCFACEOUTERBOUND(#570,.T.);
#1135=IFCFACEOUTERBOUND(#571,.T.);
#1136=IFCFACEOUTERBOUND(#572,.T.);
#1137=IFCFACEOUTERBOUND(#573,.T.);
#1138=IFCFACEOUTERBOUND(#574,.T.);
#1139=IFCFACEOUTERBOUND(#575,.T.);
#1140=IFCFACEOUTERBOUND(#576,.T.);
#1141=IFCFACEOUTERBOUND(#577,.T.);
#1142=IFCFACEOUTERBOUND(#578,.T.);
#1143=IFCFACEOUTERBOUND(#579,.T.);
#1144=IFCFACEOUTERBOUND(#580,.T.);
#1145=IFCFACEOUTERBOUND(#581,.T.);
#1146=IFCFACEOUTERBOUND(#582,.T.);
#1147=IFCFACEOUTERBOUND(#583,.T.);
#1148=IFCFACEOUTERBOUND(#584,.T.);
#1149=IFCFACEOUTERBOUND(#585,.T.);
#1150=IFCFACEOUTERBOUND(#586,.T.);
#1151=IFCFACEOUTERBOUND(#587,.T.);
#1152=IFCFACEOUTERBOUND(#588,.T.);
#1153=IFCFACEOUTERBOUND(#589,.T.);
#1154=IFCFACE((#590));
#1155=IFCFACE((#591));
#1156=IFCFACE((#592));
#1157=IFCFACE((#593));
#1158=IFCFACE((#594));
#1159=IFCFACE((#595));
#1160=IFCFACE((#596));
#1161=IFCFACE((#597));
#1162=IFCFACE((#598));
#1163=IFCFACE((#599));
#1164=IFCFACE((#600));
#1165=IFCFACE((#601));
#1166=IFCFACE((#602));
#1167=IFCFACE((#603));
#1168=IFCFACE((#604));
#1169=IFCFACE((#605));
#1170=IFCFACE((#606));
#1171=IFCFACE((#607));
#1172=IFCFACE((#608));
#1173=IFCFACE((#609));
#1174=IFCFACE((#610));
#1175=IFCFACE((#611));
#1176=IFCFACE((#612));
#1177=IFCFACE((#613));
#1178=IFCFACE((#614));
#1179=IFCFACE((#615));
#1180=IFCFACE((#616));
#1181=IFCFACE((#617));
#1182=IFCFACE((#618));
#1183=IFCFACE((#619));
#1184=IFCFACE((#620));
#1185=IFCFACE((#621));
#1186=IFCFACE((#622));
#1187=IFCFACE((#623));
#1188=IFCFACE((#624));
#1189=IFCFACE((#625));
#1190=IFCFACE((#626));
#1191=IFCFACE((#627));
#1192=IFCFACE((#628));
#1193=IFCFACE((#629));
#1194=IFCFACE((#630));
#1195=IFCFACE((#631));
#1196=IFCFACE((#632));
#1197=IFCFACE((#633));
#1198=IFCFACE((#634));
#1199=IFCFACE((#635));
#1200=IFCFACE((#636));
#1201=IFCFACE((#637));
#1202=IFCFACE((#638));
#1203=IFCFACE((#639));
#1204=IFCFACE((#640));
#1205=IFCFACE((#641));
#1206=IFCFACE((#642));
#1207=IFCFACE((#643));
#1208=IFCFACE((#644));
#1209=IFCFACE((#645));
#1210=IFCFACE((#646));
#1211=IFCFACE((#647));
#1212=IFCFACE((#648));
#1213=IFCFACE((#649));
#1214=IFCFACE((#650));
#1215=IFCFACE((#651));
#1216=IFCFACE((#652));
#1217=IFCFACE((#653));
#1218=IFCFACE((#654));
#1219=IFCFACE((#655));
#1220=IFCFACE((#656));
#1221=IFCFACE((#657));
#1222=IFCFACE((#658));
#1223=IFCFACE((#659));
#1224=IFCFACE((#660));
#1225=IFCFACE((#661));
#1226=IFCFACE((#662));
#1227=IFCFACE((#663));
#1228=IFCFACE((#664));
#1229=IFCFACE((#665));
#1230=IFCFACE((#666));
#1231=IFCFACE((#667));
#1232=IFCFACE((#668));
#1233=IFCFACE((#669));
#1234=IFCFACE((#670));
#1235=IFCFACE((#671));
#1236=IFCFACE((#672));
#1237=IFCFACE((#673));
#1238=IFCFACE((#674));
#1239=IFCFACE((#675));
#1240=IFCFACE((#676));
#1241=IFCFACE((#677));
#1242=IFCFACE((#678));
#1243=IFCFACE((#679));
#1244=IFCFACE((#680));
#1245=IFCFACE((#681));
#1246=IFCFACE((#682));
#1247=IFCFACE((#683));
#1248=IFCFACE((#684));
#1249=IFCFACE((#685));
#1250=IFCFACE((#686));
#1251=IFCFACE((#687));
#1252=IFCFACE((#688));
#1253=IFCFACE((#689));
#1254=IFCFACE((#690));
#1255=IFCFACE((#691));
#1256=IFCFACE((#692));
#1257=IFCFACE((#693));
#1258=IFCFACE((#694));
#1259=IFCFACE((#695));
#1260=IFCFACE((#696));
#1261=IFCFACE((#697));
#1262=IFCFACE((#698));
#1263=IFCFACE((#699));
#1264=IFCFACE((#700));
#1265=IFCFACE((#701));
#1266=IFCFACE((#702));
#1267=IFCFACE((#703));
#1268=IFCFACE((#704));
#1269=IFCFACE((#705));
#1270=IFCFACE((#706));
#1271=IFCFACE((#707));
#1272=IFCFACE((#708));
#1273=IFCFACE((#709));
#1274=IFCFACE((#710));
#1275=IFCFACE((#711));
#1276=IFCFACE((#712));
#1277=IFCFACE((#713));
#1278=IFCFACE((#714));
#1279=IFCFACE((#715));
#1280=IFCFACE((#716));
#1281=IFCFACE((#717));
#1282=IFCFACE((#718));
#1283=IFCFACE((#719));
#1284=IFCFACE((#720));
#1285=IFCFACE((#721));
#1286=IFCFACE((#722));
#1287=IFCFACE((#723));
#1288=IFCFACE((#724));
#1289=IFCFACE((#725));
#1290=IFCFACE((#726));
#1291=IFCFACE((#727));
#1292=IFCFACE((#728));
#1293=IFCFACE((#729));
#1294=IFCFACE((#730));
#1295=IFCFACE((#731));
#1296=IFCFACE((#732));
#1297=IFCFACE((#733));
#1298=IFCFACE((#734));
#1299=IFCFACE((#735));
#1300=IFCFACE((#736));
#1301=IFCFACE((#737));
#1302=IFCFACE((#738));
#1303=IFCFACE((#739));
#1304=IFCFACE((#740));
#1305=IFCFACE((#741));
#1306=IFCFACE((#742));
#1307=IFCFACE((#743));
#1308=IFCFACE((#744));
#1309=IFCFACE((#745));
#1310=IFCFACE((#746));
#1311=IFCFACE((#747));
#1312=IFCFACE((#748));
#1313=IFCFACE((#749));
#1314=IFCFACE((#750));
#1315=IFCFACE((#751));
#1316=IFCFACE((#752));
#1317=IFCFACE((#753));
#1318=IFCFACE((#754));
#1319=IFCFACE((#755));
#1320=IFCFACE((#756));
#1321=IFCFACE((#757));
#1322=IFCFACE((#758));
#1323=IFCFACE((#759));
#1324=IFCFACE((#760));
#1325=IFCFACE((#761));
#1326=IFCFACE((#762));
#1327=IFCFACE((#763));
#1328=IFCFACE((#764));
#1329=IFCFACE((#765));
#1330=IFCFACE((#766));
#1331=IFCFACE((#767));
#1332=IFCFACE((#768));
#1333=IFCFACE((#769));
#1334=IFCFACE((#770));
#1335=IFCFACE((#771));
#1336=IFCFACE((#772));
#1337=IFCFACE((#773));
#1338=IFCFACE((#774));
#1339=IFCFACE((#775));
#1340=IFCFACE((#776));
#1341=IFCFACE((#777));
#1342=IFCFACE((#778));
#1343=IFCFACE((#779));
#1344=IFCFACE((#780));
#1345=IFCFACE((#781));
#1346=IFCFACE((#782));
#1347=IFCFACE((#783));
#1348=IFCFACE((#784));
#1349=IFCFACE((#785));
#1350=IFCFACE((#786));
#1351=IFCFACE((#787));
#1352=IFCFACE((#788));
#1353=IFCFACE((#789));
#1354=IFCFACE((#790));
#1355=IFCFACE((#791));
#1356=IFCFACE((#792));
#1357=IFCFACE((#793));
#1358=IFCFACE((#794));
#1359=IFCFACE((#795));
#1360=IFCFACE((#796));
#1361=IFCFACE((#797));
#1362=IFCFACE((#798));
#1363=IFCFACE((#799));
#1364=IFCFACE((#800));
#1365=IFCFACE((#801));
#1366=IFCFACE((#802));
#1367=IFCFACE((#803));
#1368=IFCFACE((#804));
#1369=IFCFACE((#805));
#1370=IFCFACE((#806));
#1371=IFCFACE((#807));
#1372=IFCFACE((#808));
#1373=IFCFACE((#809));
#1374=IFCFACE((#810));
#1375=IFCFACE((#811));
#1376=IFCFACE((#812));
#1377=IFCFACE((#813));
#1378=IFCFACE((#814));
#1379=IFCFACE((#815));
#1380=IFCFACE((#816));
#1381=IFCFACE((#817));
#1382=IFCFACE((#818));
#1383=IFCFACE((#819));
#1384=IFCFACE((#820));
#1385=IFCFACE((#821));
#1386=IFCFACE((#822));
#1387=IFCFACE((#823));
#1388=IFCFACE((#824));
#1389=IFCFACE((#825));
#1390=IFCFACE((#826));
#1391=IFCFACE((#827));
#1392=IFCFACE((#828));
#1393=IFCFACE((#829));
#1394=IFCFACE((#830));
#1395=IFCFACE((#831));
#1396=IFCFACE((#832));
#1397=IFCFACE((#833));
#1398=IFCFACE((#834));
#1399=IFCFACE((#835));
#1400=IFCFACE((#836));
#1401=IFCFACE((#837));
#1402=IFCFACE((#838));
#1403=IFCFACE((#839));
#1404=IFCFACE((#840));
#1405=IFCFACE((#841));
#1406=IFCFACE((#842));
#1407=IFCFACE((#843));
#1408=IFCFACE((#844));
#1409=IFCFACE((#845));
#1410=IFCFACE((#846));
#1411=IFCFACE((#847));
#1412=IFCFACE((#848));
#1413=IFCFACE((#849));
#1414=IFCFACE((#850));
#1415=IFCFACE((#851));
#1416=IFCFACE((#852));
#1417=IFCFACE((#853));
#1418=IFCFACE((#854));
#1419=IFCFACE((#855));
#1420=IFCFACE((#856));
#1421=IFCFACE((#857));
#1422=IFCFACE((#858));
#1423=IFCFACE((#859));
#1424=IFCFACE((#860));
#1425=IFCFACE((#861));
#1426=IFCFACE((#862));
#1427=IFCFACE((#863));
#1428=IFCFACE((#864));
#1429=IFCFACE((#865));
#1430=IFCFACE((#866));
#1431=IFCFACE((#867));
#1432=IFCFACE((#868));
#1433=IFCFACE((#869));
#1434=IFCFACE((#870));
#1435=IFCFACE((#871));
#1436=IFCFACE((#872));
#1437=IFCFACE((#873));
#1438=IFCFACE((#874));
#1439=IFCFACE((#875));
#1440=IFCFACE((#876));
#1441=IFCFACE((#877));
#1442=IFCFACE((#878));
#1443=IFCFACE((#879));
#1444=IFCFACE((#880));
#1445=IFCFACE((#881));
#1446=IFCFACE((#882));
#1447=IFCFACE((#883));
#1448=IFCFACE((#884));
#1449=IFCFACE((#885));
#1450=IFCFACE((#886));
#1451=IFCFACE((#887));
#1452=IFCFACE((#888));
#1453=IFCFACE((#889));
#1454=IFCFACE((#890));
#1455=IFCFACE((#891));
#1456=IFCFACE((#892));
#1457=IFCFACE((#893));
#1458=IFCFACE((#894));
#1459=IFCFACE((#895));
#1460=IFCFACE((#896));
#1461=IFCFACE((#897));
#1462=IFCFACE((#898));
#1463=IFCFACE((#899));
#1464=IFCFACE((#900));
#1465=IFCFACE((#901));
#1466=IFCFACE((#902));
#1467=IFCFACE((#903));
#1468=IFCFACE((#904));
#1469=IFCFACE((#905));
#1470=IFCFACE((#906));
#1471=IFCFACE((#907));
#1472=IFCFACE((#908));
#1473=IFCFACE((#909));
#1474=IFCFACE((#910));
#1475=IFCFACE((#911));
#1476=IFCFACE((#912));
#1477=IFCFACE((#913));
#1478=IFCFACE((#914));
#1479=IFCFACE((#915));
#1480=IFCFACE((#916));
#1481=IFCFACE((#917));
#1482=IFCFACE((#918));
#1483=IFCFACE((#919));
#1484=IFCFACE((#920));
#1485=IFCFACE((#921));
#1486=IFCFACE((#922));
#1487=IFCFACE((#923));
#1488=IFCFACE((#924));
#1489=IFCFACE((#925));
#1490=IFCFACE((#926));
#1491=IFCFACE((#927));
#1492=IFCFACE((#928));
#1493=IFCFACE((#929));
#1494=IFCFACE((#930));
#1495=IFCFACE((#931));
#1496=IFCFACE((#932));
#1497=IFCFACE((#933));
#1498=IFCFACE((#934));
#1499=IFCFACE((#935));
#1500=IFCFACE((#936));
#1501=IFCFACE((#937));
#1502=IFCFACE((#938));
#1503=IFCFACE((#939));
#1504=IFCFACE((#940));
#1505=IFCFACE((#941));
#1506=IFCFACE((#942));
#1507=IFCFACE((#943));
#1508=IFCFACE((#944));
#1509=IFCFACE((#945));
#1510=IFCFACE((#946));
#1511=IFCFACE((#947));
#1512=IFCFACE((#948));
#1513=IFCFACE((#949));
#1514=IFCFACE((#950));
#1515=IFCFACE((#951));
#1516=IFCFACE((#952));
#1517=IFCFACE((#953));
#1518=IFCFACE((#954));
#1519=IFCFACE((#955));
#1520=IFCFACE((#956));
#1521=IFCFACE((#957));
#1522=IFCFACE((#958));
#1523=IFCFACE((#959));
#1524=IFCFACE((#960));
#1525=IFCFACE((#961));
#1526=IFCFACE((#962));
#1527=IFCFACE((#963));
#1528=IFCFACE((#964));
#1529=IFCFACE((#965));
#1530=IFCFACE((#966));
#1531=IFCFACE((#967));
#1532=IFCFACE((#968));
#1533=IFCFACE((#969));
#1534=IFCFACE((#970));
#1535=IFCFACE((#971));
#1536=IFCFACE((#972));
#1537=IFCFACE((#973));
#1538=IFCFACE((#974));
#1539=IFCFACE((#975));
#1540=IFCFACE((#976));
#1541=IFCFACE((#977));
#1542=IFCFACE((#978));
#1543=IFCFACE((#979));
#1544=IFCFACE((#980));
#1545=IFCFACE((#981));
#1546=IFCFACE((#982));
#1547=IFCFACE((#983));
#1548=IFCFACE((#984));
#1549=IFCFACE((#985));
#1550=IFCFACE((#986));
#1551=IFCFACE((#987));
#1552=IFCFACE((#988));
#1553=IFCFACE((#989));
#1554=IFCFACE((#990));
#1555=IFCFACE((#991));
#1556=IFCFACE((#992));
#1557=IFCFACE((#993));
#1558=IFCFACE((#994));
#1559=IFCFACE((#995));
#1560=IFCFACE((#996));
#1561=IFCFACE((#997));
#1562=IFCFACE((#998));
#1563=IFCFACE((#999));
#1564=IFCFACE((#1000));
#1565=IFCFACE((#1001));
#1566=IFCFACE((#1002));
#1567=IFCFACE((#1003));
#1568=IFCFACE((#1004));
#1569=IFCFACE((#1005));
#1570=IFCFACE((#1006));
#1571=IFCFACE((#1007));
#1572=IFCFACE((#1008));
#1573=IFCFACE((#1009));
#1574=IFCFACE((#1010));
#1575=IFCFACE((#1011));
#1576=IFCFACE((#1012));
#1577=IFCFACE((#1013));
#1578=IFCFACE((#1014));
#1579=IFCFACE((#1015));
#1580=IFCFACE((#1016));
#1581=IFCFACE((#1017));
#1582=IFCFACE((#1018));
#1583=IFCFACE((#1019));
#1584=IFCFACE((#1020));
#1585=IFCFACE((#1021));
#1586=IFCFACE((#1022));
#1587=IFCFACE((#1023));
#1588=IFCFACE((#1024));
#1589=IFCFACE((#1025));
#1590=IFCFACE((#1026));
#1591=IFCFACE((#1027));
#1592=IFCFACE((#1028));
#1593=IFCFACE((#1029));
#1594=IFCFACE((#1030));
#1595=IFCFACE((#1031));
#1596=IFCFACE((#1032));
#1597=IFCFACE((#1033));
#1598=IFCFACE((#1034));
#1599=IFCFACE((#1035));
#1600=IFCFACE((#1036));
#1601=IFCFACE((#1037));
#1602=IFCFACE((#1038));
#1603=IFCFACE((#1039));
#1604=IFCFACE((#1040));
#1605=IFCFACE((#1041));
#1606=IFCFACE((#1042));
#1607=IFCFACE((#1043));
#1608=IFCFACE((#1044));
#1609=IFCFACE((#1045));
#1610=IFCFACE((#1046));
#1611=IFCFACE((#1047));
#1612=IFCFACE((#1048));
#1613=IFCFACE((#1049));
#1614=IFCFACE((#1050));
#1615=IFCFACE((#1051));
#1616=IFCFACE((#1052));
#1617=IFCFACE((#1053));
#1618=IFCFACE((#1054));
#1619=IFCFACE((#1055));
#1620=IFCFACE((#1056));
#1621=IFCFACE((#1057));
#1622=IFCFACE((#1058));
#1623=IFCFACE((#1059));
#1624=IFCFACE((#1060));
#1625=IFCFACE((#1061));
#1626=IFCFACE((#1062));
#1627=IFCFACE((#1063));
#1628=IFCFACE((#1064));
#1629=IFCFACE((#1065));
#1630=IFCFACE((#1066));
#1631=IFCFACE((#1067));
#1632=IFCFACE((#1068));
#1633=IFCFACE((#1069));
#1634=IFCFACE((#1070));
#1635=IFCFACE((#1071));
#1636=IFCFACE((#1072));
#1637=IFCFACE((#1073));
#1638=IFCFACE((#1074));
#1639=IFCFACE((#1075));
#1640=IFCFACE((#1076));
#1641=IFCFACE((#1077));
#1642=IFCFACE((#1078));
#1643=IFCFACE((#1079));
#1644=IFCFACE((#1080));
#1645=IFCFACE((#1081));
#1646=IFCFACE((#1082));
#1647=IFCFACE((#1083));
#1648=IFCFACE((#1084));
#1649=IFCFACE((#1085));
#1650=IFCFACE((#1086));
#1651=IFCFACE((#1087));
#1652=IFCFACE((#1088));
#1653=IFCFACE((#1089));
#1654=IFCFACE((#1090));
#1655=IFCFACE((#1091));
#1656=IFCFACE((#1092));
#1657=IFCFACE((#1093));
#1658=IFCFACE((#1094));
#1659=IFCFACE((#1095));
#1660=IFCFACE((#1096));
#1661=IFCFACE((#1097));
#1662=IFCFACE((#1098));
#1663=IFCFACE((#1099));
#1664=IFCFACE((#1100));
#1665=IFCFACE((#1101));
#1666=IFCFACE((#1102));
#1667=IFCFACE((#1103));
#1668=IFCFACE((#1104));
#1669=IFCFACE((#1105));
#1670=IFCFACE((#1106));
#1671=IFCFACE((#1107));
#1672=IFCFACE((#1108));
#1673=IFCFACE((#1109));
#1674=IFCFACE((#1110));
#1675=IFCFACE((#1111));
#1676=IFCFACE((#1112));
#1677=IFCFACE((#1113));
#1678=IFCFACE((#1114));
#1679=IFCFACE((#1115));
#1680=IFCFACE((#1116));
#1681=IFCFACE((#1117));
#1682=IFCFACE((#1118));
#1683=IFCFACE((#1119));
#1684=IFCFACE((#1120));
#1685=IFCFACE((#1121));
#1686=IFCFACE((#1122));
#1687=IFCFACE((#1123));
#1688=IFCFACE((#1124));
#1689=IFCFACE((#1125));
#1690=IFCFACE((#1126));
#1691=IFCFACE((#1127));
#1692=IFCFACE((#1128));
#1693=IFCFACE((#1129));
#1694=IFCFACE((#1130));
#1695=IFCFACE((#1131));
#1696=IFCFACE((#1132));
#1697=IFCFACE((#1133));
#1698=IFCFACE((#1134));
#1699=IFCFACE((#1135));
#1700=IFCFACE((#1136));
#1701=IFCFACE((#1137));
#1702=IFCFACE((#1138));
#1703=IFCFACE((#1139));
#1704=IFCFACE((#1140));
#1705=IFCFACE((#1141));
#1706=IFCFACE((#1142));
#1707=IFCFACE((#1143));
#1708=IFCFACE((#1144));
#1709=IFCFACE((#1145));
#1710=IFCFACE((#1146));
#1711=IFCFACE((#1147));
#1712=IFCFACE((#1148));
#1713=IFCFACE((#1149));
#1714=IFCFACE((#1150));
#1715=IFCFACE((#1151));
#1716=IFCFACE((#1152));
#1717=IFCFACE((#1153));
#1718=IFCCLOSEDSHELL((#1154,#1155,#1156,#1157,#1158,#1159,#1160,#1161,#1162,
#1163,#1164,#1165,#1166,#1167,#1168,#1169,#1170,#1171,#1172,#1173,#1174,
#1175,#1176,#1177,#1178,#1179,#1180,#1181,#1182,#1183,#1184,#1185,#1186,
#1187,#1188,#1189,#1190,#1191,#1192,#1193,#1194,#1195,#1196,#1197,#1198,
#1199,#1200,#1201,#1202,#1203,#1204,#1205,#1206,#1207,#1208,#1209,#1210,
#1211,#1212,#1213,#1214,#1215,#1216,#1217,#1218,#1219,#1220,#1221,#1222,
#1223,#1224,#1225,#1226,#1227,#1228,#1229,#1230,#1231,#1232,#1233,#1234,
#1235,#1236,#1237,#1238,#1239,#1240,#1241,#1242,#1243,#1244,#1245,#1246,
#1247,#1248,#1249,#1250,#1251,#1252,#1253,#1254,#1255,#1256,#1257,#1258,
#1259,#1260,#1261,#1262,#1263,#1264,#1265,#1266,#1267,#1268,#1269,#1270,
#1271,#1272,#1273,#1274,#1275,#1276,#1277,#1278,#1279,#1280,#1281,#1282,
#1283,#1284,#1285,#1286,#1287,#1288,#1289,#1290,#1291,#1292,#1293,#1294,
#1295,#1296,#1297,#1298,#1299,#1300,#1301,#1302,#1303,#1304,#1305,#1306,
#1307,#1308,#1309,#1310,#1311,#1312,#1313,#1314,#1315,#1316,#1317,#1318,
#1319,#1320,#1321,#1322,#1323,#1324,#1325,#1326,#1327,#1328,#1329,#1330,
#1331,#1332,#1333,#1334,#1335,#1336,#1337,#1338,#1339,#1340,#1341,#1342,
#1343,#1344,#1345,#1346,#1347,#1348,#1349,#1350,#1351,#1352,#1353,#1354,
#1355,#1356,#1357,#1358,#1359,#1360,#1361,#1362,#1363,#1364,#1365,#1366,
#1367,#1368,#1369,#1370,#1371,#1372,#1373,#1374,#1375,#1376,#1377,#1378,
#1379,#1380,#1381,#1382,#1383,#1384,#1385,#1386,#1387,#1388,#1389,#1390,
#1391,#1392,#1393,#1394,#1395,#1396,#1397,#1398,#1399,#1400,#1401,#1402,
#1403,#1404,#1405,#1406,#1407,#1408,#1409,#1410,#1411,#1412,#1413,#1414,
#1415,#1416,#1417,#1418,#1419,#1420,#1421,#1422,#1423,#1424,#1425,#1426,
#1427,#1428,#1429,#1430,#1431,#1432,#1433,#1434,#1435,#1436,#1437,#1438,
#1439,#1440,#1441,#1442,#1443,#1444,#1445,#1446,#1447,#1448,#1449,#1450,
#1451,#1452,#1453,#1454,#1455,#1456,#1457,#1458,#1459,#1460,#1461,#1462,
#1463,#1464,#1465,#1466,#1467,#1468,#1469,#1470,#1471,#1472,#1473,#1474,
#1475,#1476,#1477,#1478,#1479,#1480,#1481,#1482,#1483,#1484,#1485,#1486,
#1487,#1488,#1489,#1490,#1491,#1492,#1493,#1494,#1495,#1496,#1497,#1498,
#1499,#1500,#1501,#1502,#1503,#1504,#1505,#1506,#1507,#1508,#1509,#1510,
#1511,#1512,#1513,#1514,#1515,#1516,#1517,#1518,#1519,#1520,#1521,#1522,
#1523,#1524,#1525,#1526,#1527,#1528,#1529,#1530,#1531,#1532,#1533,#1534,
#1535,#1536,#1537,#1538,#1539,#1540,#1541,#1542,#1543,#1544,#1545,#1546,
#1547,#1548,#1549,#1550,#1551,#1552,#1553,#1554,#1555,#1556,#1557,#1558,
#1559,#1560,#1561,#1562,#1563,#1564,#1565,#1566,#1567,#1568,#1569,#1570,
#1571,#1572,#1573,#1574,#1575,#1576,#1577,#1578,#1579,#1580,#1581,#1582,
#1583,#1584,#1585,#1586,#1587,#1588,#1589,#1590,#1591,#1592,#1593,#1594,
#1595,#1596,#1597,#1598,#1599,#1600,#1601,#1602,#1603,#1604,#1605,#1606,
#1607,#1608,#1609,#1610,#1611,#1612,#1613,#1614,#1615,#1616,#1617,#1618,
#1619,#1620,#1621,#1622,#1623,#1624,#1625,#1626,#1627,#1628,#1629,#1630,
#1631,#1632,#1633,#1634,#1635,#1636,#1637,#1638,#1639,#1640,#1641,#1642,
#1643,#1644,#1645,#1646,#1647,#1648,#1649,#1650,#1651,#1652,#1653,#1654,
#1655,#1656,#1657,#1658,#1659,#1660,#1661,#1662,#1663,#1664,#1665,#1666,
#1667,#1668,#1669,#1670,#1671,#1672,#1673,#1674,#1675,#1676,#1677,#1678,
#1679,#1680,#1681,#1682,#1683,#1684,#1685,#1686,#1687,#1688,#1689,#1690,
#1691,#1692,#1693,#1694,#1695,#1696,#1697,#1698,#1699,#1700,#1701,#1702,
#1703,#1704,#1705,#1706,#1707,#1708,#1709,#1710,#1711,#1712,#1713,#1714,
#1715,#1716,#1717));
#1719=IFCSTYLEDITEM(#1724,(#1720),'');
#1720=IFCPRESENTATIONSTYLEASSIGNMENT((#1721));
#1721=IFCSURFACESTYLE('',.BOTH.,(#1722));
#1722=IFCSURFACESTYLERENDERING(#1723,0.,$,$,$,$,$,$,.NOTDEFINED.);
#1723=IFCCOLOURRGB('',0.800000011920929,0.,0.);
#1724=IFCFACETEDBREP(#1718);
#1725=IFCPROJECT('07hUkdHgGydfWsFJH56q5B',#2196,'Red_4270473_AVV',' ',
' ',' ',' ',(#2191),#1726);
#1726=IFCUNITASSIGNMENT((#2192,#2193,#2194,#2195));
#1727=IFCGEOMETRICREPRESENTATIONSUBCONTEXT('Body','Model',*,*,*,*,#2191,
1.,.MODEL_VIEW.,$);
#1728=IFCAXIS2PLACEMENT3D(#1734,#1730,#1731);
#1729=IFCAXIS2PLACEMENT3D(#2190,#1732,#1733);
#1730=IFCDIRECTION((0.,0.,1.));
#1731=IFCDIRECTION((1.,0.,0.));
#1732=IFCDIRECTION((0.,0.,1.));
#1733=IFCDIRECTION((1.,0.,0.));
#1734=IFCCARTESIANPOINT((0.,0.,0.));
#1735=IFCCARTESIANPOINT((-0.739103626009026,9.20614675841897,0.));
#1736=IFCCARTESIANPOINT((-0.739103626009026,9.20614675841897,8.));
#1737=IFCCARTESIANPOINT((-0.799999999999997,8.90000001252689,8.));
#1738=IFCCARTESIANPOINT((-0.799999999999997,8.90000001252689,0.));
#1739=IFCCARTESIANPOINT((-0.565685424949234,9.46568543747613,0.));
#1740=IFCCARTESIANPOINT((-0.565685424949234,9.46568543747613,8.));
#1741=IFCCARTESIANPOINT((-0.306146745892069,9.63910363853592,0.));
#1742=IFCCARTESIANPOINT((-0.306146745892069,9.63910363853592,8.));
#1743=IFCCARTESIANPOINT((3.34059874796244E-15,9.70000001252689,0.));
#1744=IFCCARTESIANPOINT((3.34059874796244E-15,9.70000001252689,8.));
#1745=IFCCARTESIANPOINT((0.306146745892075,9.63910363853592,0.));
#1746=IFCCARTESIANPOINT((0.306146745892075,9.63910363853592,8.));
#1747=IFCCARTESIANPOINT((0.565685424949241,9.46568543747613,0.));
#1748=IFCCARTESIANPOINT((0.565685424949241,9.46568543747613,8.));
#1749=IFCCARTESIANPOINT((0.739103626009033,9.20614675841897,0.));
#1750=IFCCARTESIANPOINT((0.739103626009033,9.20614675841897,8.));
#1751=IFCCARTESIANPOINT((0.800000000000003,8.90000001252689,0.));
#1752=IFCCARTESIANPOINT((0.800000000000003,8.90000001252689,8.));
#1753=IFCCARTESIANPOINT((0.739103626009033,8.59385326663482,0.));
#1754=IFCCARTESIANPOINT((0.739103626009033,8.59385326663482,8.));
#1755=IFCCARTESIANPOINT((0.565685424949241,8.33431458757765,0.));
#1756=IFCCARTESIANPOINT((0.565685424949241,8.33431458757765,8.));
#1757=IFCCARTESIANPOINT((0.306146745892075,8.16089638651786,0.));
#1758=IFCCARTESIANPOINT((0.306146745892075,8.16089638651786,8.));
#1759=IFCCARTESIANPOINT((3.35890655188599E-15,8.10000001252689,0.));
#1760=IFCCARTESIANPOINT((3.35890655188599E-15,8.10000001252689,8.));
#1761=IFCCARTESIANPOINT((-0.306146745892069,8.16089638651786,0.));
#1762=IFCCARTESIANPOINT((-0.306146745892069,8.16089638651786,8.));
#1763=IFCCARTESIANPOINT((-0.565685424949235,8.33431458757765,0.));
#1764=IFCCARTESIANPOINT((-0.565685424949235,8.33431458757765,8.));
#1765=IFCCARTESIANPOINT((-0.739103626009026,8.59385326663482,0.));
#1766=IFCCARTESIANPOINT((-0.739103626009026,8.59385326663482,8.));
#1767=IFCCARTESIANPOINT((-2.81424945589406,2.24499443206437,0.));
#1768=IFCCARTESIANPOINT((-0.9,2.15638586528478,0.));
#1769=IFCCARTESIANPOINT((-0.9,1.4,0.));
#1770=IFCCARTESIANPOINT((-0.938060233744357,1.20865828381745,0.));
#1771=IFCCARTESIANPOINT((-1.04644660940673,1.04644660940673,0.));
#1772=IFCCARTESIANPOINT((-1.20865828381746,0.938060233744356,0.));
#1773=IFCCARTESIANPOINT((-1.4,0.899999999999999,0.));
#1774=IFCCARTESIANPOINT((-2.15638586528478,0.899999999999999,0.));
#1775=IFCCARTESIANPOINT((-0.895418081857298,2.18630892753907,0.));
#1776=IFCCARTESIANPOINT((-2.18630892753907,0.895418081857297,0.));
#1777=IFCCARTESIANPOINT((-2.01951219512195,-2.98019638509843,0.));
#1778=IFCCARTESIANPOINT((-0.895418081857297,-2.18630892753907,0.));
#1779=IFCCARTESIANPOINT((-0.882092206906518,-2.2134898893568,0.));
#1780=IFCCARTESIANPOINT((-2.15638586528478,-0.9,0.));
#1781=IFCCARTESIANPOINT((-1.4,-0.9,0.));
#1782=IFCCARTESIANPOINT((-1.20865828381745,-0.938060233744357,0.));
#1783=IFCCARTESIANPOINT((-1.04644660940673,-1.04644660940673,0.));
#1784=IFCCARTESIANPOINT((-0.938060233744356,-1.20865828381746,0.));
#1785=IFCCARTESIANPOINT((-0.9,-1.4,0.));
#1786=IFCCARTESIANPOINT((-0.9,-2.15638586528478,0.));
#1787=IFCCARTESIANPOINT((-1.91461498586686,3.04864715175339,0.));
#1788=IFCCARTESIANPOINT((-0.882092206906518,2.2134898893568,0.));
#1789=IFCCARTESIANPOINT((-0.861243536511749,-2.23543793189619,0.));
#1790=IFCCARTESIANPOINT((-2.18630892753907,-0.895418081857297,0.));
#1791=IFCCARTESIANPOINT((-2.23543793189619,-0.86124353651175,0.));
#1792=IFCCARTESIANPOINT((-2.2134898893568,-0.882092206906518,0.));
#1793=IFCCARTESIANPOINT((0.800000000000004,3.50998575495685,0.));
#1794=IFCCARTESIANPOINT((2.25014177247108,0.834782608695652,0.));
#1795=IFCCARTESIANPOINT((2.23543793189619,0.86124353651175,0.));
#1796=IFCCARTESIANPOINT((-2.2134898893568,0.882092206906518,0.));
#1797=IFCCARTESIANPOINT((-0.799999999999998,3.50998575495685,0.));
#1798=IFCCARTESIANPOINT((-0.834782608695652,2.25014177247108,0.));
#1799=IFCCARTESIANPOINT((-0.86124353651175,2.23543793189619,0.));
#1800=IFCCARTESIANPOINT((2.18381979588779,-2.90779767209816,0.));
#1801=IFCCARTESIANPOINT((0.895418081857297,-2.18630892753907,0.));
#1802=IFCCARTESIANPOINT((0.9,-2.15638586528478,0.));
#1803=IFCCARTESIANPOINT((2.01951219512195,-2.98019638509842,0.));
#1804=IFCCARTESIANPOINT((0.86124353651175,-2.23543793189619,0.));
#1805=IFCCARTESIANPOINT((0.882092206906518,-2.2134898893568,0.));
#1806=IFCCARTESIANPOINT((-2.25014177247108,-0.834782608695652,0.));
#1807=IFCCARTESIANPOINT((2.36310932718839,-2.89811132709428,0.));
#1808=IFCCARTESIANPOINT((2.2134898893568,-0.882092206906518,0.));
#1809=IFCCARTESIANPOINT((2.23543793189619,-0.86124353651175,0.));
#1810=IFCCARTESIANPOINT((0.882092206906518,2.2134898893568,0.));
#1811=IFCCARTESIANPOINT((0.895418081857297,2.18630892753907,0.));
#1812=IFCCARTESIANPOINT((1.43874989573113,9.60000022641133,0.));
#1813=IFCCARTESIANPOINT((1.59515903034928,9.02437532867918,0.));
#1814=IFCCARTESIANPOINT((1.52986119403946,8.43146384046665,0.));
#1815=IFCCARTESIANPOINT((1.25193196339662,7.90367298886403,0.));
#1816=IFCCARTESIANPOINT((2.18630892753907,-0.895418081857297,0.));
#1817=IFCCARTESIANPOINT((0.9,2.15638586528478,0.));
#1818=IFCCARTESIANPOINT((2.18630892753907,0.895418081857297,0.));
#1819=IFCCARTESIANPOINT((2.15638586528478,0.9,0.));
#1820=IFCCARTESIANPOINT((0.86124353651175,2.23543793189619,0.));
#1821=IFCCARTESIANPOINT((2.2134898893568,0.882092206906518,0.));
#1822=IFCCARTESIANPOINT((0.800000000000003,7.51435905289252,0.));
#1823=IFCCARTESIANPOINT((-1.53022598743948,8.43265839970146,0.));
#1824=IFCCARTESIANPOINT((-2.25014177247108,0.834782608695651,0.));
#1825=IFCCARTESIANPOINT((-2.4,2.93915231795365E-16,0.));
#1826=IFCCARTESIANPOINT((-2.23543793189619,0.861243536511749,0.));
#1827=IFCCARTESIANPOINT((0.709991533845998,-3.52929341679989,0.));
#1828=IFCCARTESIANPOINT((0.834782608695652,-2.25014177247108,0.));
#1829=IFCCARTESIANPOINT((2.15638586528478,-0.9,0.));
#1830=IFCCARTESIANPOINT((1.,10.5000000125269,0.));
#1831=IFCCARTESIANPOINT((-0.709991533845996,-3.52929341679989,0.));
#1832=IFCCARTESIANPOINT((-4.40872847693047E-16,-2.4,0.));
#1833=IFCCARTESIANPOINT((-0.834782608695652,-2.25014177247108,0.));
#1834=IFCCARTESIANPOINT((2.81424945589406,2.24499443206436,0.));
#1835=IFCCARTESIANPOINT((2.4,-5.87830463590729E-16,0.));
#1836=IFCCARTESIANPOINT((2.25014177247108,-0.834782608695652,0.));
#1837=IFCCARTESIANPOINT((3.6,3.99680288865056E-16,0.));
#1838=IFCCARTESIANPOINT((2.67520305408818,-3.06362402008675,0.));
#1839=IFCCARTESIANPOINT((2.53426064283291,-2.95238644539604,0.));
#1840=IFCCARTESIANPOINT((1.4,0.9,0.));
#1841=IFCCARTESIANPOINT((1.20865828381745,0.938060233744357,0.));
#1842=IFCCARTESIANPOINT((1.04644660940673,1.04644660940673,0.));
#1843=IFCCARTESIANPOINT((0.938060233744357,1.20865828381746,0.));
#1844=IFCCARTESIANPOINT((0.9,1.4,0.));
#1845=IFCCARTESIANPOINT((-1.43765484458369,9.60224537409579,0.));
#1846=IFCCARTESIANPOINT((-0.999999999999997,10.5000000125269,0.));
#1847=IFCCARTESIANPOINT((-1.59501176190463,9.0262430256963,0.));
#1848=IFCCARTESIANPOINT((-3.85949435922393E-16,2.4,0.));
#1849=IFCCARTESIANPOINT((0.834782608695652,2.25014177247108,0.));
#1850=IFCCARTESIANPOINT((2.76776143868648,-3.21747949367828,0.));
#1851=IFCCARTESIANPOINT((3.6,-10.4,0.));
#1852=IFCCARTESIANPOINT((2.8,-9.6,0.));
#1853=IFCCARTESIANPOINT((2.8,-3.39411254969543,0.));
#1854=IFCCARTESIANPOINT((-0.799999999999996,7.51435936647179,0.));
#1855=IFCCARTESIANPOINT((-3.6,0.,0.));
#1856=IFCCARTESIANPOINT((-3.3978889064549,1.18926489033802,0.));
#1857=IFCCARTESIANPOINT((-2.36310932718838,-2.89811132709429,0.));
#1858=IFCCARTESIANPOINT((-2.53426064283291,-2.95238644539605,0.));
#1859=IFCCARTESIANPOINT((1.91461498586686,3.04864715175339,0.));
#1860=IFCCARTESIANPOINT((-2.18381979588779,-2.90779767209816,0.));
#1861=IFCCARTESIANPOINT((3.3978889064549,1.18926489033802,0.));
#1862=IFCCARTESIANPOINT((-2.67520305408818,-3.06362402008676,0.));
#1863=IFCCARTESIANPOINT((-2.76776143868648,-3.21747949367829,0.));
#1864=IFCCARTESIANPOINT((-1.25232045394809,7.90416202389047,0.));
#1865=IFCCARTESIANPOINT((-2.8,-3.39411254969543,0.));
#1866=IFCCARTESIANPOINT((-3.6,-10.4,0.));
#1867=IFCCARTESIANPOINT((-2.8,-9.6,0.));
#1868=IFCCARTESIANPOINT((0.9,-1.4,0.));
#1869=IFCCARTESIANPOINT((0.938060233744357,-1.20865828381746,0.));
#1870=IFCCARTESIANPOINT((1.04644660940673,-1.04644660940673,0.));
#1871=IFCCARTESIANPOINT((1.20865828381746,-0.938060233744357,0.));
#1872=IFCCARTESIANPOINT((1.4,-0.9,0.));
#1873=IFCCARTESIANPOINT((-2.23543793189619,-0.86124353651175,8.));
#1874=IFCCARTESIANPOINT((-2.25014177247108,-0.834782608695652,8.));
#1875=IFCCARTESIANPOINT((-2.2134898893568,-0.882092206906518,8.));
#1876=IFCCARTESIANPOINT((-2.18630892753907,-0.895418081857297,8.));
#1877=IFCCARTESIANPOINT((-2.15638586528478,-0.9,8.));
#1878=IFCCARTESIANPOINT((-2.18630892753907,0.895418081857297,8.));
#1879=IFCCARTESIANPOINT((-2.15638586528478,0.899999999999999,8.));
#1880=IFCCARTESIANPOINT((-2.2134898893568,0.882092206906518,8.));
#1881=IFCCARTESIANPOINT((-2.23543793189619,0.861243536511749,8.));
#1882=IFCCARTESIANPOINT((-2.25014177247108,0.834782608695651,8.));
#1883=IFCCARTESIANPOINT((-0.86124353651175,2.23543793189619,8.));
#1884=IFCCARTESIANPOINT((-0.834782608695652,2.25014177247108,8.));
#1885=IFCCARTESIANPOINT((-0.882092206906518,2.2134898893568,8.));
#1886=IFCCARTESIANPOINT((-0.895418081857298,2.18630892753907,8.));
#1887=IFCCARTESIANPOINT((-0.9,2.15638586528478,8.));
#1888=IFCCARTESIANPOINT((0.895418081857297,2.18630892753907,8.));
#1889=IFCCARTESIANPOINT((0.9,2.15638586528478,8.));
#1890=IFCCARTESIANPOINT((0.882092206906518,2.2134898893568,8.));
#1891=IFCCARTESIANPOINT((0.86124353651175,2.23543793189619,8.));
#1892=IFCCARTESIANPOINT((0.834782608695652,2.25014177247108,8.));
#1893=IFCCARTESIANPOINT((2.23543793189619,0.86124353651175,8.));
#1894=IFCCARTESIANPOINT((2.25014177247108,0.834782608695652,8.));
#1895=IFCCARTESIANPOINT((2.2134898893568,0.882092206906518,8.));
#1896=IFCCARTESIANPOINT((2.18630892753907,0.895418081857297,8.));
#1897=IFCCARTESIANPOINT((2.15638586528478,0.9,8.));
#1898=IFCCARTESIANPOINT((2.18630892753907,-0.895418081857297,8.));
#1899=IFCCARTESIANPOINT((2.15638586528478,-0.9,8.));
#1900=IFCCARTESIANPOINT((2.2134898893568,-0.882092206906518,8.));
#1901=IFCCARTESIANPOINT((2.23543793189619,-0.86124353651175,8.));
#1902=IFCCARTESIANPOINT((2.25014177247108,-0.834782608695652,8.));
#1903=IFCCARTESIANPOINT((0.86124353651175,-2.23543793189619,8.));
#1904=IFCCARTESIANPOINT((0.834782608695652,-2.25014177247108,8.));
#1905=IFCCARTESIANPOINT((0.882092206906518,-2.2134898893568,8.));
#1906=IFCCARTESIANPOINT((0.895418081857297,-2.18630892753907,8.));
#1907=IFCCARTESIANPOINT((0.9,-2.15638586528478,8.));
#1908=IFCCARTESIANPOINT((-0.895418081857297,-2.18630892753907,8.));
#1909=IFCCARTESIANPOINT((-0.9,-2.15638586528478,8.));
#1910=IFCCARTESIANPOINT((-0.882092206906518,-2.2134898893568,8.));
#1911=IFCCARTESIANPOINT((-0.861243536511749,-2.23543793189619,8.));
#1912=IFCCARTESIANPOINT((-0.834782608695652,-2.25014177247108,8.));
#1913=IFCCARTESIANPOINT((-0.938060233744357,1.20865828381745,8.));
#1914=IFCCARTESIANPOINT((-0.9,1.4,8.));
#1915=IFCCARTESIANPOINT((-1.04644660940673,1.04644660940673,8.));
#1916=IFCCARTESIANPOINT((-1.20865828381746,0.938060233744356,8.));
#1917=IFCCARTESIANPOINT((-1.4,0.899999999999999,8.));
#1918=IFCCARTESIANPOINT((1.20865828381745,0.938060233744357,8.));
#1919=IFCCARTESIANPOINT((1.4,0.9,8.));
#1920=IFCCARTESIANPOINT((1.04644660940673,1.04644660940673,8.));
#1921=IFCCARTESIANPOINT((0.938060233744357,1.20865828381746,8.));
#1922=IFCCARTESIANPOINT((0.9,1.4,8.));
#1923=IFCCARTESIANPOINT((0.938060233744357,-1.20865828381746,8.));
#1924=IFCCARTESIANPOINT((0.9,-1.4,8.));
#1925=IFCCARTESIANPOINT((1.04644660940673,-1.04644660940673,8.));
#1926=IFCCARTESIANPOINT((1.20865828381746,-0.938060233744357,8.));
#1927=IFCCARTESIANPOINT((1.4,-0.9,8.));
#1928=IFCCARTESIANPOINT((-1.20865828381745,-0.938060233744357,8.));
#1929=IFCCARTESIANPOINT((-1.4,-0.9,8.));
#1930=IFCCARTESIANPOINT((-1.04644660940673,-1.04644660940673,8.));
#1931=IFCCARTESIANPOINT((-0.938060233744356,-1.20865828381746,8.));
#1932=IFCCARTESIANPOINT((-0.9,-1.4,8.));
#1933=IFCCARTESIANPOINT((-3.85949435922393E-16,2.4,8.));
#1934=IFCCARTESIANPOINT((2.4,-5.87830463590729E-16,8.));
#1935=IFCCARTESIANPOINT((-4.40872847693047E-16,-2.4,8.));
#1936=IFCCARTESIANPOINT((-2.4,2.93915231795365E-16,8.));
#1937=IFCCARTESIANPOINT((0.800000000000003,7.51435905289252,8.));
#1938=IFCCARTESIANPOINT((0.800000000000004,3.50998575495685,8.));
#1939=IFCCARTESIANPOINT((1.25193196339662,7.90367298886403,8.));
#1940=IFCCARTESIANPOINT((1.52986119403946,8.43146384046665,8.));
#1941=IFCCARTESIANPOINT((1.59515903034928,9.02437532867918,8.));
#1942=IFCCARTESIANPOINT((1.43874989573113,9.60000022641133,8.));
#1943=IFCCARTESIANPOINT((1.,10.5000000125269,8.));
#1944=IFCCARTESIANPOINT((-0.999999999999997,10.5000000125269,8.));
#1945=IFCCARTESIANPOINT((-1.43765484458369,9.60224537409579,8.));
#1946=IFCCARTESIANPOINT((-1.59501176190463,9.0262430256963,8.));
#1947=IFCCARTESIANPOINT((-1.53022598743948,8.43265839970146,8.));
#1948=IFCCARTESIANPOINT((-1.25232045394809,7.90416202389047,8.));
#1949=IFCCARTESIANPOINT((-0.799999999999996,7.51435936647179,8.));
#1950=IFCCARTESIANPOINT((-0.799999999999998,3.50998575495685,8.));
#1951=IFCCARTESIANPOINT((-1.91461498586686,3.04864715175339,8.));
#1952=IFCCARTESIANPOINT((-2.81424945589406,2.24499443206437,8.));
#1953=IFCCARTESIANPOINT((-3.3978889064549,1.18926489033802,8.));
#1954=IFCCARTESIANPOINT((-3.6,0.,8.));
#1955=IFCCARTESIANPOINT((-3.6,-10.4,8.));
#1956=IFCCARTESIANPOINT((3.6,3.99680288865056E-16,8.));
#1957=IFCCARTESIANPOINT((3.6,-10.4,8.));
#1958=IFCCARTESIANPOINT((3.3978889064549,1.18926489033802,8.));
#1959=IFCCARTESIANPOINT((2.81424945589406,2.24499443206436,8.));
#1960=IFCCARTESIANPOINT((1.91461498586686,3.04864715175339,8.));
#1961=IFCCARTESIANPOINT((-2.76776143868668,-3.21747949367779,2.60375624673944));
#1962=IFCCARTESIANPOINT((-2.7909405290773,-3.2993634235291,2.65068500224973));
#1963=IFCCARTESIANPOINT((-2.79765237480738,-3.34571715892811,2.66465690186578));
#1964=IFCCARTESIANPOINT((-2.8,-3.39411254969543,2.66958653043496));
#1965=IFCCARTESIANPOINT((-2.67520305408817,-3.06362402008676,2.43370225710519));
#1966=IFCCARTESIANPOINT((-2.53426064283291,-2.95238644539605,2.21463645321514));
#1967=IFCCARTESIANPOINT((-2.36310932718838,-2.89811132709429,1.99358172163546));
#1968=IFCCARTESIANPOINT((-2.18381979588779,-2.90779767209816,1.7997883967471));
#1969=IFCCARTESIANPOINT((-2.01951219512195,-2.98019638509843,1.64807089950531));
#1970=IFCCARTESIANPOINT((-2.8,-9.6,2.66958653043496));
#1971=IFCCARTESIANPOINT((-2.52957548569171,-3.1509551108968,2.20800450274349));
#1972=IFCCARTESIANPOINT((-2.21214342565255,-9.6,1.82826763519483));
#1973=IFCCARTESIANPOINT((-1.38180443344223,-3.32424675794674,1.22500153014106));
#1974=IFCCARTESIANPOINT((-1.38180443344222,-9.6,1.22500153014106));
#1975=IFCCARTESIANPOINT((-0.709991533845998,-3.52929341679989,0.98239962522089));
#1976=IFCCARTESIANPOINT((-0.400000000000002,-3.57770876399966,0.92591477021212));
#1977=IFCCARTESIANPOINT((-0.400000000000001,-9.6,0.925914770212119));
#1978=IFCCARTESIANPOINT((-0.400000000000001,-3.57770876399966,1.63356808676015));
#1979=IFCCARTESIANPOINT((-0.400000000000001,-9.6,1.63356808676015));
#1980=IFCCARTESIANPOINT((2.79097408195559,-3.29953744278103,2.6507544056577));
#1981=IFCCARTESIANPOINT((2.76776143868692,-3.21747949367726,2.60375624673998));
#1982=IFCCARTESIANPOINT((2.79766062726795,-3.34580209466209,2.6646741915792));
#1983=IFCCARTESIANPOINT((2.8,-3.39411254969543,2.66958653043502));
#1984=IFCCARTESIANPOINT((2.21214342565256,-2.90189184478342,1.82826763519487));
#1985=IFCCARTESIANPOINT((2.18547585734507,-2.90740501867792,1.80143335853521));
#1986=IFCCARTESIANPOINT((2.36310932718839,-2.89811132709418,1.99358172163549));
#1987=IFCCARTESIANPOINT((2.01951219512195,-2.98019638509842,1.64807089950533));
#1988=IFCCARTESIANPOINT((2.53426064283325,-2.95238644539404,2.21463645321567));
#1989=IFCCARTESIANPOINT((2.67520305408818,-3.06362402008675,2.43370225710524));
#1990=IFCCARTESIANPOINT((2.8,-9.6,2.66958653043502));
#1991=IFCCARTESIANPOINT((0.400000000000003,-9.6,0.925914770212123));
#1992=IFCCARTESIANPOINT((1.38180443344224,-9.6,1.22500153014108));
#1993=IFCCARTESIANPOINT((-1.11503809736888E-14,-9.6,1.6));
#1994=IFCCARTESIANPOINT((2.21214342565256,-9.6,1.82826763519487));
#1995=IFCCARTESIANPOINT((0.400000000000003,-9.6,1.63356808676016));
#1996=IFCCARTESIANPOINT((1.38180443344228,-3.32424675794678,1.2250015301411));
#1997=IFCCARTESIANPOINT((0.709991533846032,-3.52929341679998,0.982399625220904));
#1998=IFCCARTESIANPOINT((0.400000000000003,-3.57770876399966,0.925914770212122));
#1999=IFCCARTESIANPOINT((0.400000000000003,-3.57770876399966,1.63356808676015));
#2000=IFCCARTESIANPOINT((-1.25509075904377E-14,-3.6,1.6));
#2001=IFCCARTESIANPOINT((2.54113159846162,-3.14800219723942,2.22442961296944));
#2002=IFCCARTESIANPOINT((-1.28610110680548E-14,-2.5,1.6));
#2003=IFCCARTESIANPOINT((-0.834782608695651,-2.5,1.74985822752892));
#2004=IFCCARTESIANPOINT((-1.09576339208024E-14,-10.4,1.6));
#2005=IFCCARTESIANPOINT((-0.834782608695649,-10.4,1.74985822752892));
#2006=IFCCARTESIANPOINT((0.834782608695628,-10.4,1.74985822752892));
#2007=IFCCARTESIANPOINT((0.834782608695627,-2.5,1.74985822752892));
#2008=IFCCARTESIANPOINT((-0.895418081857295,-10.4,1.81369107246092));
#2009=IFCCARTESIANPOINT((-0.895418081857297,-2.5,1.81369107246092));
#2010=IFCCARTESIANPOINT((-0.9,-2.5,1.84361413471521));
#2011=IFCCARTESIANPOINT((-0.899999999999998,-10.4,1.84361413471521));
#2012=IFCCARTESIANPOINT((-0.882092206906516,-10.4,1.78651011064319));
#2013=IFCCARTESIANPOINT((-0.882092206906518,-2.5,1.78651011064319));
#2014=IFCCARTESIANPOINT((-0.861243536511747,-10.4,1.76456206810381));
#2015=IFCCARTESIANPOINT((-0.861243536511749,-2.5,1.76456206810381));
#2016=IFCCARTESIANPOINT((0.861243536511726,-10.4,1.76456206810381));
#2017=IFCCARTESIANPOINT((0.861243536511724,-2.5,1.76456206810381));
#2018=IFCCARTESIANPOINT((0.882092206906495,-10.4,1.78651011064319));
#2019=IFCCARTESIANPOINT((0.882092206906493,-2.5,1.78651011064319));
#2020=IFCCARTESIANPOINT((0.895418081857274,-10.4,1.81369107246092));
#2021=IFCCARTESIANPOINT((0.895418081857272,-2.5,1.81369107246092));
#2022=IFCCARTESIANPOINT((0.899999999999977,-10.4,1.84361413471521));
#2023=IFCCARTESIANPOINT((0.899999999999975,-2.5,1.84361413471521));
#2024=IFCCARTESIANPOINT((-0.9,-2.5,2.6));
#2025=IFCCARTESIANPOINT((-0.899999999999998,-10.4,2.6));
#2026=IFCCARTESIANPOINT((-1.20865828381745,-10.4,3.06193976625564));
#2027=IFCCARTESIANPOINT((-1.20865828381745,-2.5,3.06193976625564));
#2028=IFCCARTESIANPOINT((-1.4,-2.5,3.1));
#2029=IFCCARTESIANPOINT((-1.4,-10.4,3.1));
#2030=IFCCARTESIANPOINT((-1.04644660940672,-10.4,2.95355339059328));
#2031=IFCCARTESIANPOINT((-1.04644660940673,-2.5,2.95355339059328));
#2032=IFCCARTESIANPOINT((-0.938060233744355,-10.4,2.79134171618255));
#2033=IFCCARTESIANPOINT((-0.938060233744356,-2.5,2.79134171618255));
#2034=IFCCARTESIANPOINT((-2.1563858652848,-2.5,3.1));
#2035=IFCCARTESIANPOINT((-2.15638586528479,-10.4,3.1));
#2036=IFCCARTESIANPOINT((-2.2354379318962,-10.4,3.13875646348825));
#2037=IFCCARTESIANPOINT((-2.2354379318962,-2.5,3.13875646348825));
#2038=IFCCARTESIANPOINT((-2.25014177247109,-2.5,3.16521739130435));
#2039=IFCCARTESIANPOINT((-2.25014177247109,-10.4,3.16521739130435));
#2040=IFCCARTESIANPOINT((-2.21348988935681,-10.4,3.11790779309348));
#2041=IFCCARTESIANPOINT((-2.21348988935681,-2.5,3.11790779309348));
#2042=IFCCARTESIANPOINT((-2.18630892753908,-10.4,3.1045819181427));
#2043=IFCCARTESIANPOINT((-2.18630892753909,-2.5,3.1045819181427));
#2044=IFCCARTESIANPOINT((0.899999999999981,-10.4,2.6));
#2045=IFCCARTESIANPOINT((0.899999999999979,-2.5,2.6));
#2046=IFCCARTESIANPOINT((0.938060233744338,-10.4,2.79134171618255));
#2047=IFCCARTESIANPOINT((0.938060233744336,-2.5,2.79134171618255));
#2048=IFCCARTESIANPOINT((1.04644660940671,-10.4,2.95355339059328));
#2049=IFCCARTESIANPOINT((1.04644660940671,-2.5,2.95355339059328));
#2050=IFCCARTESIANPOINT((1.20865828381744,-10.4,3.06193976625564));
#2051=IFCCARTESIANPOINT((1.20865828381743,-2.5,3.06193976625564));
#2052=IFCCARTESIANPOINT((1.39999999999998,-10.4,3.1));
#2053=IFCCARTESIANPOINT((1.39999999999998,-2.5,3.1));
#2054=IFCCARTESIANPOINT((2.15638586528477,-10.4,3.1));
#2055=IFCCARTESIANPOINT((2.15638586528477,-2.5,3.1));
#2056=IFCCARTESIANPOINT((2.18630892753906,-10.4,3.1045819181427));
#2057=IFCCARTESIANPOINT((2.18630892753906,-2.5,3.1045819181427));
#2058=IFCCARTESIANPOINT((2.21348988935679,-10.4,3.11790779309348));
#2059=IFCCARTESIANPOINT((2.21348988935679,-2.5,3.11790779309348));
#2060=IFCCARTESIANPOINT((2.23543793189618,-10.4,3.13875646348825));
#2061=IFCCARTESIANPOINT((2.23543793189618,-2.5,3.13875646348825));
#2062=IFCCARTESIANPOINT((2.25014177247107,-10.4,3.16521739130435));
#2063=IFCCARTESIANPOINT((2.25014177247107,-2.5,3.16521739130435));
#2064=IFCCARTESIANPOINT((2.39999999999999,-10.4,4.));
#2065=IFCCARTESIANPOINT((2.39999999999999,-2.5,4.));
#2066=IFCCARTESIANPOINT((2.25014177247107,-10.4,4.83478260869565));
#2067=IFCCARTESIANPOINT((2.25014177247107,-2.5,4.83478260869565));
#2068=IFCCARTESIANPOINT((2.23543793189618,-10.4,4.86124353651175));
#2069=IFCCARTESIANPOINT((2.23543793189618,-2.5,4.86124353651175));
#2070=IFCCARTESIANPOINT((2.21348988935679,-10.4,4.88209220690652));
#2071=IFCCARTESIANPOINT((2.21348988935679,-2.5,4.88209220690652));
#2072=IFCCARTESIANPOINT((2.18630892753906,-10.4,4.8954180818573));
#2073=IFCCARTESIANPOINT((2.18630892753906,-2.5,4.8954180818573));
#2074=IFCCARTESIANPOINT((2.15638586528477,-10.4,4.9));
#2075=IFCCARTESIANPOINT((2.15638586528477,-2.5,4.9));
#2076=IFCCARTESIANPOINT((1.4,-10.4,4.9));
#2077=IFCCARTESIANPOINT((1.39999999999999,-2.5,4.9));
#2078=IFCCARTESIANPOINT((1.20865828381745,-10.4,4.93806023374436));
#2079=IFCCARTESIANPOINT((1.20865828381745,-2.5,4.93806023374436));
#2080=IFCCARTESIANPOINT((1.04644660940672,-10.4,5.04644660940673));
#2081=IFCCARTESIANPOINT((1.04644660940672,-2.5,5.04644660940673));
#2082=IFCCARTESIANPOINT((0.938060233744352,-10.4,5.20865828381746));
#2083=IFCCARTESIANPOINT((0.93806023374435,-2.5,5.20865828381746));
#2084=IFCCARTESIANPOINT((0.899999999999996,-10.4,5.4));
#2085=IFCCARTESIANPOINT((0.899999999999994,-2.5,5.4));
#2086=IFCCARTESIANPOINT((0.9,-10.4,6.15638586528478));
#2087=IFCCARTESIANPOINT((0.899999999999998,-2.5,6.15638586528478));
#2088=IFCCARTESIANPOINT((0.895418081857297,-10.4,6.18630892753907));
#2089=IFCCARTESIANPOINT((0.895418081857296,-2.5,6.18630892753907));
#2090=IFCCARTESIANPOINT((0.882092206906518,-10.4,6.21348988935679));
#2091=IFCCARTESIANPOINT((0.882092206906516,-2.5,6.21348988935679));
#2092=IFCCARTESIANPOINT((0.86124353651175,-10.4,6.23543793189618));
#2093=IFCCARTESIANPOINT((0.861243536511748,-2.5,6.23543793189618));
#2094=IFCCARTESIANPOINT((0.834782608695652,-10.4,6.25014177247107));
#2095=IFCCARTESIANPOINT((0.83478260869565,-2.5,6.25014177247107));
#2096=IFCCARTESIANPOINT((-2.40000000000001,-10.4,4.));
#2097=IFCCARTESIANPOINT((-2.40000000000001,-2.5,4.));
#2098=IFCCARTESIANPOINT((-2.25014177247109,-2.5,4.83478260869565));
#2099=IFCCARTESIANPOINT((-2.25014177247109,-10.4,4.83478260869565));
#2100=IFCCARTESIANPOINT((-2.18630892753908,-10.4,4.8954180818573));
#2101=IFCCARTESIANPOINT((-2.18630892753909,-2.5,4.8954180818573));
#2102=IFCCARTESIANPOINT((-2.1563858652848,-2.5,4.9));
#2103=IFCCARTESIANPOINT((-2.15638586528479,-10.4,4.9));
#2104=IFCCARTESIANPOINT((-2.21348988935681,-10.4,4.88209220690652));
#2105=IFCCARTESIANPOINT((-2.21348988935681,-2.5,4.88209220690652));
#2106=IFCCARTESIANPOINT((-2.2354379318962,-10.4,4.86124353651175));
#2107=IFCCARTESIANPOINT((-2.2354379318962,-2.5,4.86124353651175));
#2108=IFCCARTESIANPOINT((-1.4,-2.5,4.9));
#2109=IFCCARTESIANPOINT((-1.4,-10.4,4.9));
#2110=IFCCARTESIANPOINT((-0.938060233744354,-10.4,5.20865828381745));
#2111=IFCCARTESIANPOINT((-0.938060233744356,-2.5,5.20865828381745));
#2112=IFCCARTESIANPOINT((-0.9,-2.5,5.4));
#2113=IFCCARTESIANPOINT((-0.899999999999998,-10.4,5.4));
#2114=IFCCARTESIANPOINT((-1.04644660940672,-10.4,5.04644660940672));
#2115=IFCCARTESIANPOINT((-1.04644660940673,-2.5,5.04644660940672));
#2116=IFCCARTESIANPOINT((-1.20865828381745,-10.4,4.93806023374435));
#2117=IFCCARTESIANPOINT((-1.20865828381746,-2.5,4.93806023374435));
#2118=IFCCARTESIANPOINT((-0.899999999999998,-10.4,6.15638586528479));
#2119=IFCCARTESIANPOINT((-0.895418081857295,-10.4,6.18630892753908));
#2120=IFCCARTESIANPOINT((-0.882092206906515,-10.4,6.2134898893568));
#2121=IFCCARTESIANPOINT((-0.861243536511747,-10.4,6.23543793189619));
#2122=IFCCARTESIANPOINT((2.41996578647009E-15,-10.4,6.4));
#2123=IFCCARTESIANPOINT((-0.834782608695649,-10.4,6.25014177247108));
#2124=IFCCARTESIANPOINT((5.16588639217761E-16,-2.5,6.4));
#2125=IFCCARTESIANPOINT((-0.834782608695651,-2.5,6.25014177247108));
#2126=IFCCARTESIANPOINT((-0.861243536511749,-2.5,6.23543793189619));
#2127=IFCCARTESIANPOINT((-0.882092206906517,-2.5,6.2134898893568));
#2128=IFCCARTESIANPOINT((-0.895418081857297,-2.5,6.18630892753908));
#2129=IFCCARTESIANPOINT((-0.9,-2.5,6.15638586528479));
#2130=IFCCARTESIANPOINT((0.400000000000003,-3.57770876399966,6.36643191323984));
#2131=IFCCARTESIANPOINT((2.22721873358378E-15,-9.6,6.4));
#2132=IFCCARTESIANPOINT((0.400000000000003,-9.6,6.36643191323984));
#2133=IFCCARTESIANPOINT((-0.4,-9.6,6.36643191323985));
#2134=IFCCARTESIANPOINT((-0.400000000000002,-3.57770876399966,6.36643191323985));
#2135=IFCCARTESIANPOINT((8.63299729100406E-16,-3.6,6.4));
#2136=IFCCARTESIANPOINT((-0.400000000000001,-9.6,7.07408522978788));
#2137=IFCCARTESIANPOINT((-0.400000000000521,-3.57770876400067,7.07408522978906));
#2138=IFCCARTESIANPOINT((0.400000000000003,-3.57770876399966,7.07408522978788));
#2139=IFCCARTESIANPOINT((0.400000000000003,-9.6,7.07408522978788));
#2140=IFCCARTESIANPOINT((-2.8,-9.6,8.));
#2141=IFCCARTESIANPOINT((-1.38180443344222,-9.6,6.77499846985894));
#2142=IFCCARTESIANPOINT((-2.21214342565255,-9.6,6.17173236480517));
#2143=IFCCARTESIANPOINT((2.8,-9.6,8.));
#2144=IFCCARTESIANPOINT((1.38180443344224,-9.6,6.77499846985892));
#2145=IFCCARTESIANPOINT((2.21214342565256,-9.6,6.17173236480513));
#2146=IFCCARTESIANPOINT((2.8,-9.6,5.33041346956498));
#2147=IFCCARTESIANPOINT((-2.8,-9.6,5.33041346956504));
#2148=IFCCARTESIANPOINT((-0.70999153384603,-3.52929341679998,7.0176003747791));
#2149=IFCCARTESIANPOINT((-2.01951219512195,-2.98019638509843,6.3519291004947));
#2150=IFCCARTESIANPOINT((-2.18547585734507,-2.90740501867793,6.19856664146482));
#2151=IFCCARTESIANPOINT((-1.38180443344227,-3.32424675794678,6.77499846985892));
#2152=IFCCARTESIANPOINT((-2.5411315984616,-3.14800219723943,5.77557038703061));
#2153=IFCCARTESIANPOINT((-2.8,-3.39411254969543,5.33041346956504));
#2154=IFCCARTESIANPOINT((-2.21214342565255,-2.90189184478342,6.17173236480517));
#2155=IFCCARTESIANPOINT((-2.36310932718838,-2.89811132709418,6.00641827836454));
#2156=IFCCARTESIANPOINT((-2.67520305408817,-3.06362402008676,5.56629774289481));
#2157=IFCCARTESIANPOINT((-2.76776143868692,-3.21747949367726,5.39624375326008));
#2158=IFCCARTESIANPOINT((-2.53426064283325,-2.95238644539405,5.78536354678437));
#2159=IFCCARTESIANPOINT((-2.79097408195558,-3.29953744278103,5.34924559434236));
#2160=IFCCARTESIANPOINT((-2.79766062726794,-3.3458020946621,5.33532580842086));
#2161=IFCCARTESIANPOINT((-2.8,-3.39411254969543,8.));
#2162=IFCCARTESIANPOINT((-2.36310932718838,-2.89811132709429,8.));
#2163=IFCCARTESIANPOINT((-2.18381979588779,-2.90779767209816,8.));
#2164=IFCCARTESIANPOINT((-2.01951219512195,-2.98019638509843,8.));
#2165=IFCCARTESIANPOINT((-2.53426064283291,-2.95238644539605,8.));
#2166=IFCCARTESIANPOINT((-2.67520305408818,-3.06362402008676,8.));
#2167=IFCCARTESIANPOINT((-2.76776143868648,-3.21747949367829,8.));
#2168=IFCCARTESIANPOINT((2.01951219512195,-2.98019638509842,8.));
#2169=IFCCARTESIANPOINT((-0.709991533845996,-3.52929341679989,8.));
#2170=IFCCARTESIANPOINT((0.709991533845998,-3.52929341679989,8.));
#2171=IFCCARTESIANPOINT((2.67520305408818,-3.06362402008675,8.));
#2172=IFCCARTESIANPOINT((2.76776143868648,-3.21747949367828,8.));
#2173=IFCCARTESIANPOINT((2.36310932718839,-2.89811132709428,8.));
#2174=IFCCARTESIANPOINT((2.53426064283291,-2.95238644539604,8.));
#2175=IFCCARTESIANPOINT((2.18381979588779,-2.90779767209816,8.));
#2176=IFCCARTESIANPOINT((2.8,-3.39411254969543,8.));
#2177=IFCCARTESIANPOINT((0.709991533845998,-3.52929341679989,7.0176003747791));
#2178=IFCCARTESIANPOINT((1.38180443344224,-3.32424675794674,6.77499846985892));
#2179=IFCCARTESIANPOINT((2.01951219512195,-2.98019638509842,6.35192910049467));
#2180=IFCCARTESIANPOINT((2.52957548569172,-3.15095511089679,5.79199549725646));
#2181=IFCCARTESIANPOINT((2.7909405290773,-3.2993634235291,5.34931499775021));
#2182=IFCCARTESIANPOINT((2.76776143868668,-3.21747949367778,5.3962437532605));
#2183=IFCCARTESIANPOINT((2.67520305408818,-3.06362402008675,5.56629774289476));
#2184=IFCCARTESIANPOINT((2.79765237480738,-3.34571715892811,5.33534309813416));
#2185=IFCCARTESIANPOINT((2.8,-3.39411254969543,5.33041346956498));
#2186=IFCCARTESIANPOINT((2.53426064283291,-2.95238644539604,5.78536354678482));
#2187=IFCCARTESIANPOINT((2.36310932718839,-2.89811132709428,6.00641827836451));
#2188=IFCCARTESIANPOINT((2.18381979588779,-2.90779767209816,6.20021160325287));
#2189=IFCCARTESIANPOINT((0.,0.,0.));
#2190=IFCCARTESIANPOINT((0.,0.,0.));
#2191=IFCGEOMETRICREPRESENTATIONCONTEXT($,'Model',3,0.005,#1728,$);
#2192=IFCSIUNIT(*,.LENGTHUNIT.,.MILLI.,.METRE.);
#2193=IFCSIUNIT(*,.AREAUNIT.,$,.SQUARE_METRE.);
#2194=IFCSIUNIT(*,.VOLUMEUNIT.,$,.CUBIC_METRE.);
#2195=IFCSIUNIT(*,.PLANEANGLEUNIT.,$,.RADIAN.);
#2196=IFCOWNERHISTORY(#2198,#2197,$,.NOCHANGE.,0,$,$,0);
#2197=IFCAPPLICATION(#2199,' ',' ',' ');
#2198=IFCPERSONANDORGANIZATION(#2200,#2199,$);
#2199=IFCORGANIZATION($,' ',$,$,$);
#2200=IFCPERSON(' ',' ',' ',$,$,$,$,$);
ENDSEC;
END-ISO-10303-21;
