ISO-10303-21;
HEADER;
/* Generated by software containing ST-Developer
 * from STEP Tools, Inc. (www.steptools.com) 
 */
/* OPTION: strings as raw bytes, not using required /X/ escapes */

FILE_DESCRIPTION(
/* description */ ('Unknown'),
/* implementation_level */ '2;1');

FILE_NAME(
/* name */ 'Red_4278957_JC',
/* time_stamp */ '2025-07-22T00:03:48+02:00',
/* author */ ('Unknown'),
/* organization */ ('Unknown'),
/* preprocessor_version */ 'ST-DEVELOPER v19.4',
/* originating_system */ 'Unknown',
/* authorisation */ 'OpenTools');

FILE_SCHEMA (('IFC2X3'));
ENDSEC;

DATA;
#10=IFCPROPERTYSINGLEVALUE('ProjectName',$,IFCTEXT(''),$);
#11=IFCPROPERTYSINGLEVALUE('PartNumber',$,IFCTEXT(''),$);
#12=IFCRELDEFINESBYPROPERTIES('3cRq1JQpSwDOm5lsE5cG83',#1526,$,$,(#14),
#13);
#13=IFCPROPERTYSET('1jOd4kXgWorA4TVRi95rqH',#1526,
'empty property set name',$,(#10,#11));
#14=IFCBUILDINGELEMENTPROXY('2GP_XOK7Wq1Pa1NGQTVWHM',#1526,
'Red_4278957_JC',' ','Red_4278957_JC',#19,#15,' ',.ELEMENT.);
#15=IFCPRODUCTDEFINITIONSHAPE(' ',' ',(#25));
#16=IFCRELCONTAINEDINSPATIALSTRUCTURE('3HZhfx2I0vj9Cvp1GHER_f',#1526,
' ',' ',(#14),#20);
#17=IFCRELAGGREGATES('1jF0XzMGqvEA6wZwPLSawz',#1526,$,$,#1185,(#20));
#18=IFCLOCALPLACEMENT($,#1188);
#19=IFCLOCALPLACEMENT(#18,#1189);
#20=IFCBUILDING('3G2N19bOG__grq1LV0cQPU',#1526,'Default Building',$,$,#18,
$,$,.ELEMENT.,0.,0.,$);
#21=IFCCARTESIANTRANSFORMATIONOPERATOR3D($,$,#1519,1.,$);
#22=IFCMAPPEDITEM(#23,#21);
#23=IFCREPRESENTATIONMAP(#1188,#24);
#24=IFCSHAPEREPRESENTATION(#1187,'Body','Brep',(#1184));
#25=IFCSHAPEREPRESENTATION(#1187,'Body','MappedRepresentation',(#22));
#26=IFCPOLYLOOP((#1195,#1196,#1197,#1198));
#27=IFCPOLYLOOP((#1196,#1199,#1200,#1197));
#28=IFCPOLYLOOP((#1201,#1202,#1203,#1204));
#29=IFCPOLYLOOP((#1205,#1206,#1207,#1208));
#30=IFCPOLYLOOP((#1204,#1200,#1199,#1201));
#31=IFCPOLYLOOP((#1209,#1210,#1211,#1212));
#32=IFCPOLYLOOP((#1213,#1214,#1215,#1216));
#33=IFCPOLYLOOP((#1217,#1218,#1219,#1220));
#34=IFCPOLYLOOP((#1206,#1221,#1222,#1207));
#35=IFCPOLYLOOP((#1202,#1223,#1224,#1203));
#36=IFCPOLYLOOP((#1216,#1211,#1210,#1213));
#37=IFCPOLYLOOP((#1208,#1219,#1218,#1205));
#38=IFCPOLYLOOP((#1212,#1224,#1223,#1209));
#39=IFCPOLYLOOP((#1221,#1225,#1226,#1222));
#40=IFCPOLYLOOP((#1220,#1215,#1214,#1217));
#41=IFCPOLYLOOP((#1198,#1226,#1225,#1195));
#42=IFCPOLYLOOP((#1227,#1195,#1225,#1228));
#43=IFCPOLYLOOP((#1229,#1196,#1195,#1227));
#44=IFCPOLYLOOP((#1230,#1199,#1196,#1229));
#45=IFCPOLYLOOP((#1231,#1201,#1199,#1230));
#46=IFCPOLYLOOP((#1232,#1202,#1201,#1231));
#47=IFCPOLYLOOP((#1233,#1223,#1202,#1232));
#48=IFCPOLYLOOP((#1234,#1209,#1223,#1233));
#49=IFCPOLYLOOP((#1235,#1210,#1209,#1234));
#50=IFCPOLYLOOP((#1236,#1213,#1210,#1235));
#51=IFCPOLYLOOP((#1237,#1214,#1213,#1236));
#52=IFCPOLYLOOP((#1238,#1217,#1214,#1237));
#53=IFCPOLYLOOP((#1239,#1218,#1217,#1238));
#54=IFCPOLYLOOP((#1240,#1205,#1218,#1239));
#55=IFCPOLYLOOP((#1241,#1206,#1205,#1240));
#56=IFCPOLYLOOP((#1242,#1221,#1206,#1241));
#57=IFCPOLYLOOP((#1228,#1225,#1221,#1242));
#58=IFCPOLYLOOP((#1234,#1233,#1243,#1244));
#59=IFCPOLYLOOP((#1232,#1245,#1246,#1247));
#60=IFCPOLYLOOP((#1230,#1229,#1248,#1249));
#61=IFCPOLYLOOP((#1227,#1250,#1251,#1252));
#62=IFCPOLYLOOP((#1247,#1243,#1233,#1232));
#63=IFCPOLYLOOP((#1252,#1248,#1229,#1227));
#64=IFCPOLYLOOP((#1232,#1231,#1230,#1253,#1245));
#65=IFCPOLYLOOP((#1227,#1228,#1242,#1254,#1250));
#66=IFCPOLYLOOP((#1242,#1241,#1255,#1256));
#67=IFCPOLYLOOP((#1240,#1257,#1258,#1259));
#68=IFCPOLYLOOP((#1249,#1260,#1253,#1230));
#69=IFCPOLYLOOP((#1259,#1255,#1241,#1240));
#70=IFCPOLYLOOP((#1238,#1237,#1261,#1262));
#71=IFCPOLYLOOP((#1236,#1263,#1264,#1265));
#72=IFCPOLYLOOP((#1256,#1266,#1254,#1242));
#73=IFCPOLYLOOP((#1265,#1261,#1237,#1236));
#74=IFCPOLYLOOP((#1240,#1239,#1238,#1267,#1257));
#75=IFCPOLYLOOP((#1236,#1235,#1234,#1268,#1263));
#76=IFCPOLYLOOP((#1262,#1269,#1267,#1238));
#77=IFCPOLYLOOP((#1244,#1270,#1268,#1234));
#78=IFCPOLYLOOP((#1271,#1268,#1270,#1272));
#79=IFCPOLYLOOP((#1273,#1271,#1272,#1274));
#80=IFCPOLYLOOP((#1274,#1275,#1273));
#81=IFCPOLYLOOP((#1263,#1273,#1275,#1264));
#82=IFCPOLYLOOP((#1271,#1273,#1263,#1268));
#83=IFCPOLYLOOP((#1276,#1254,#1266,#1277));
#84=IFCPOLYLOOP((#1250,#1278,#1279,#1251));
#85=IFCPOLYLOOP((#1278,#1276,#1277,#1280));
#86=IFCPOLYLOOP((#1280,#1279,#1278));
#87=IFCPOLYLOOP((#1250,#1254,#1276,#1278));
#88=IFCPOLYLOOP((#1281,#1253,#1260,#1282));
#89=IFCPOLYLOOP((#1245,#1283,#1284,#1246));
#90=IFCPOLYLOOP((#1283,#1281,#1282,#1285));
#91=IFCPOLYLOOP((#1285,#1284,#1283));
#92=IFCPOLYLOOP((#1281,#1283,#1245,#1253));
#93=IFCPOLYLOOP((#1286,#1267,#1269,#1287));
#94=IFCPOLYLOOP((#1288,#1286,#1287,#1289));
#95=IFCPOLYLOOP((#1289,#1290,#1288));
#96=IFCPOLYLOOP((#1257,#1288,#1290,#1258));
#97=IFCPOLYLOOP((#1257,#1267,#1286,#1288));
#98=IFCPOLYLOOP((#1291,#1292,#1290));
#99=IFCPOLYLOOP((#1259,#1258,#1290));
#100=IFCPOLYLOOP((#1290,#1292,#1259));
#101=IFCPOLYLOOP((#1262,#1293,#1287));
#102=IFCPOLYLOOP((#1291,#1289,#1287));
#103=IFCPOLYLOOP((#1287,#1293,#1291));
#104=IFCPOLYLOOP((#1294,#1295,#1275));
#105=IFCPOLYLOOP((#1265,#1264,#1275));
#106=IFCPOLYLOOP((#1275,#1295,#1265));
#107=IFCPOLYLOOP((#1244,#1296,#1272));
#108=IFCPOLYLOOP((#1294,#1274,#1272));
#109=IFCPOLYLOOP((#1272,#1296,#1294));
#110=IFCPOLYLOOP((#1297,#1298,#1284));
#111=IFCPOLYLOOP((#1247,#1246,#1284));
#112=IFCPOLYLOOP((#1284,#1298,#1247));
#113=IFCPOLYLOOP((#1249,#1299,#1282));
#114=IFCPOLYLOOP((#1297,#1285,#1282));
#115=IFCPOLYLOOP((#1282,#1299,#1297));
#116=IFCPOLYLOOP((#1300,#1301,#1279));
#117=IFCPOLYLOOP((#1252,#1251,#1279));
#118=IFCPOLYLOOP((#1279,#1301,#1252));
#119=IFCPOLYLOOP((#1256,#1302,#1277));
#120=IFCPOLYLOOP((#1300,#1280,#1277));
#121=IFCPOLYLOOP((#1277,#1302,#1300));
#122=IFCPOLYLOOP((#1277,#1266,#1256));
#123=IFCPOLYLOOP((#1279,#1280,#1300));
#124=IFCPOLYLOOP((#1282,#1260,#1249));
#125=IFCPOLYLOOP((#1284,#1285,#1297));
#126=IFCPOLYLOOP((#1272,#1270,#1244));
#127=IFCPOLYLOOP((#1275,#1274,#1294));
#128=IFCPOLYLOOP((#1287,#1269,#1262));
#129=IFCPOLYLOOP((#1290,#1289,#1291));
#130=IFCPOLYLOOP((#1303,#1248,#1252,#1301));
#131=IFCPOLYLOOP((#1299,#1249,#1248,#1303));
#132=IFCPOLYLOOP((#1304,#1243,#1247,#1298));
#133=IFCPOLYLOOP((#1296,#1244,#1243,#1304));
#134=IFCPOLYLOOP((#1305,#1261,#1265,#1295));
#135=IFCPOLYLOOP((#1293,#1262,#1261,#1305));
#136=IFCPOLYLOOP((#1306,#1255,#1259,#1292));
#137=IFCPOLYLOOP((#1302,#1256,#1255,#1306));
#138=IFCPOLYLOOP((#1297,#1299,#1307,#1308));
#139=IFCPOLYLOOP((#1299,#1303,#1301,#1309,#1310,#1311,#1307));
#140=IFCPOLYLOOP((#1300,#1302,#1312,#1313));
#141=IFCPOLYLOOP((#1291,#1293,#1314,#1315));
#142=IFCPOLYLOOP((#1313,#1309,#1301,#1300));
#143=IFCPOLYLOOP((#1315,#1316,#1292,#1291));
#144=IFCPOLYLOOP((#1316,#1317,#1318,#1312,#1302,#1306,#1292));
#145=IFCPOLYLOOP((#1295,#1294,#1319,#1320));
#146=IFCPOLYLOOP((#1296,#1304,#1298,#1321,#1322,#1323,#1324));
#147=IFCPOLYLOOP((#1320,#1325,#1326,#1314,#1293,#1305,#1295));
#148=IFCPOLYLOOP((#1308,#1321,#1298,#1297));
#149=IFCPOLYLOOP((#1324,#1319,#1294,#1296));
#150=IFCPOLYLOOP((#1307,#1311,#1327,#1328));
#151=IFCPOLYLOOP((#1308,#1329,#1330,#1321));
#152=IFCPOLYLOOP((#1307,#1328,#1329,#1308));
#153=IFCPOLYLOOP((#1322,#1321,#1330,#1331));
#154=IFCPOLYLOOP((#1323,#1322,#1331,#1332));
#155=IFCPOLYLOOP((#1326,#1325,#1333,#1334));
#156=IFCPOLYLOOP((#1314,#1326,#1334,#1335));
#157=IFCPOLYLOOP((#1315,#1336,#1337,#1316));
#158=IFCPOLYLOOP((#1314,#1335,#1336,#1315));
#159=IFCPOLYLOOP((#1317,#1316,#1337,#1338));
#160=IFCPOLYLOOP((#1318,#1317,#1338,#1339));
#161=IFCPOLYLOOP((#1311,#1310,#1340,#1327));
#162=IFCPOLYLOOP((#1341,#1342,#1343,#1328,#1327,#1340,#1344));
#163=IFCPOLYLOOP((#1345,#1346,#1330,#1329));
#164=IFCPOLYLOOP((#1347,#1348,#1337,#1336));
#165=IFCPOLYLOOP((#1329,#1328,#1343,#1345));
#166=IFCPOLYLOOP((#1348,#1349,#1350,#1351,#1339,#1338,#1337));
#167=IFCPOLYLOOP((#1346,#1352,#1353,#1354,#1332,#1331,#1330));
#168=IFCPOLYLOOP((#1355,#1356,#1357,#1358));
#169=IFCPOLYLOOP((#1350,#1359,#1360,#1351));
#170=IFCPOLYLOOP((#1358,#1354,#1353,#1355));
#171=IFCPOLYLOOP((#1336,#1335,#1361,#1347));
#172=IFCPOLYLOOP((#1335,#1334,#1333,#1357,#1356,#1362,#1361));
#173=IFCPOLYLOOP((#1344,#1360,#1359,#1341));
#174=IFCPOLYLOOP((#1323,#1332,#1363));
#175=IFCPOLYLOOP((#1354,#1364,#1365));
#176=IFCPOLYLOOP((#1365,#1363,#1332,#1354));
#177=IFCPOLYLOOP((#1363,#1366,#1324,#1323));
#178=IFCPOLYLOOP((#1367,#1363,#1365,#1368));
#179=IFCPOLYLOOP((#1367,#1369,#1370,#1366));
#180=IFCPOLYLOOP((#1366,#1363,#1367));
#181=IFCPOLYLOOP((#1319,#1371,#1372));
#182=IFCPOLYLOOP((#1372,#1320,#1319));
#183=IFCPOLYLOOP((#1319,#1324,#1370));
#184=IFCPOLYLOOP((#1324,#1366,#1370));
#185=IFCPOLYLOOP((#1370,#1371,#1319));
#186=IFCPOLYLOOP((#1372,#1373,#1320));
#187=IFCPOLYLOOP((#1374,#1375,#1372,#1371));
#188=IFCPOLYLOOP((#1371,#1370,#1369,#1374));
#189=IFCPOLYLOOP((#1376,#1377,#1373));
#190=IFCPOLYLOOP((#1373,#1372,#1375,#1376));
#191=IFCPOLYLOOP((#1357,#1333,#1377,#1378));
#192=IFCPOLYLOOP((#1325,#1320,#1373,#1377));
#193=IFCPOLYLOOP((#1377,#1333,#1325));
#194=IFCPOLYLOOP((#1378,#1379,#1357));
#195=IFCPOLYLOOP((#1380,#1378,#1377,#1376));
#196=IFCPOLYLOOP((#1381,#1358,#1357,#1379));
#197=IFCPOLYLOOP((#1381,#1382,#1364));
#198=IFCPOLYLOOP((#1364,#1354,#1358,#1381));
#199=IFCPOLYLOOP((#1379,#1383,#1381));
#200=IFCPOLYLOOP((#1381,#1383,#1384,#1385));
#201=IFCPOLYLOOP((#1385,#1386,#1382,#1381));
#202=IFCPOLYLOOP((#1368,#1365,#1364));
#203=IFCPOLYLOOP((#1364,#1382,#1387,#1368));
#204=IFCPOLYLOOP((#1382,#1386,#1388,#1387));
#205=IFCPOLYLOOP((#1380,#1389,#1383,#1379));
#206=IFCPOLYLOOP((#1389,#1390,#1384,#1383));
#207=IFCPOLYLOOP((#1379,#1378,#1380));
#208=IFCPOLYLOOP((#1385,#1391,#1388));
#209=IFCPOLYLOOP((#1385,#1384,#1390));
#210=IFCPOLYLOOP((#1390,#1391,#1385));
#211=IFCPOLYLOOP((#1388,#1386,#1385));
#212=IFCPOLYLOOP((#1392,#1387,#1388,#1391));
#213=IFCPOLYLOOP((#1391,#1390,#1389,#1392));
#214=IFCPOLYLOOP((#1312,#1318,#1393,#1394));
#215=IFCPOLYLOOP((#1339,#1351,#1395,#1393));
#216=IFCPOLYLOOP((#1393,#1318,#1339));
#217=IFCPOLYLOOP((#1394,#1396,#1312));
#218=IFCPOLYLOOP((#1394,#1393,#1397,#1398));
#219=IFCPOLYLOOP((#1397,#1393,#1395));
#220=IFCPOLYLOOP((#1395,#1399,#1400,#1397));
#221=IFCPOLYLOOP((#1360,#1344,#1401));
#222=IFCPOLYLOOP((#1344,#1402,#1401));
#223=IFCPOLYLOOP((#1360,#1403,#1399));
#224=IFCPOLYLOOP((#1399,#1351,#1360));
#225=IFCPOLYLOOP((#1399,#1395,#1351));
#226=IFCPOLYLOOP((#1401,#1403,#1360));
#227=IFCPOLYLOOP((#1404,#1400,#1399,#1403));
#228=IFCPOLYLOOP((#1403,#1401,#1405,#1404));
#229=IFCPOLYLOOP((#1406,#1405,#1401,#1402));
#230=IFCPOLYLOOP((#1402,#1407,#1406));
#231=IFCPOLYLOOP((#1340,#1310,#1407));
#232=IFCPOLYLOOP((#1309,#1408,#1409));
#233=IFCPOLYLOOP((#1409,#1407,#1310,#1309));
#234=IFCPOLYLOOP((#1407,#1402,#1344,#1340));
#235=IFCPOLYLOOP((#1407,#1409,#1410,#1406));
#236=IFCPOLYLOOP((#1411,#1412,#1408));
#237=IFCPOLYLOOP((#1411,#1313,#1312,#1396));
#238=IFCPOLYLOOP((#1396,#1413,#1411));
#239=IFCPOLYLOOP((#1408,#1309,#1313,#1411));
#240=IFCPOLYLOOP((#1411,#1413,#1414,#1415));
#241=IFCPOLYLOOP((#1415,#1416,#1412,#1411));
#242=IFCPOLYLOOP((#1398,#1417,#1413,#1396));
#243=IFCPOLYLOOP((#1417,#1418,#1414,#1413));
#244=IFCPOLYLOOP((#1396,#1394,#1398));
#245=IFCPOLYLOOP((#1410,#1409,#1408));
#246=IFCPOLYLOOP((#1408,#1412,#1419,#1410));
#247=IFCPOLYLOOP((#1412,#1416,#1420,#1419));
#248=IFCPOLYLOOP((#1415,#1421,#1420));
#249=IFCPOLYLOOP((#1415,#1414,#1418));
#250=IFCPOLYLOOP((#1418,#1421,#1415));
#251=IFCPOLYLOOP((#1420,#1416,#1415));
#252=IFCPOLYLOOP((#1422,#1419,#1420,#1421));
#253=IFCPOLYLOOP((#1421,#1418,#1417,#1422));
#254=IFCPOLYLOOP((#1211,#1216,#1375));
#255=IFCPOLYLOOP((#1216,#1423,#1376));
#256=IFCPOLYLOOP((#1376,#1375,#1216));
#257=IFCPOLYLOOP((#1423,#1424,#1380));
#258=IFCPOLYLOOP((#1424,#1392,#1389));
#259=IFCPOLYLOOP((#1389,#1380,#1424));
#260=IFCPOLYLOOP((#1380,#1376,#1423));
#261=IFCPOLYLOOP((#1424,#1368,#1387));
#262=IFCPOLYLOOP((#1425,#1367,#1368));
#263=IFCPOLYLOOP((#1368,#1424,#1425));
#264=IFCPOLYLOOP((#1212,#1369,#1367));
#265=IFCPOLYLOOP((#1211,#1374,#1369));
#266=IFCPOLYLOOP((#1369,#1212,#1211));
#267=IFCPOLYLOOP((#1367,#1425,#1212));
#268=IFCPOLYLOOP((#1426,#1427,#1400));
#269=IFCPOLYLOOP((#1427,#1222,#1397));
#270=IFCPOLYLOOP((#1397,#1400,#1427));
#271=IFCPOLYLOOP((#1222,#1226,#1398));
#272=IFCPOLYLOOP((#1226,#1422,#1417));
#273=IFCPOLYLOOP((#1417,#1398,#1226));
#274=IFCPOLYLOOP((#1398,#1397,#1222));
#275=IFCPOLYLOOP((#1226,#1410,#1419));
#276=IFCPOLYLOOP((#1198,#1406,#1410));
#277=IFCPOLYLOOP((#1410,#1226,#1198));
#278=IFCPOLYLOOP((#1428,#1405,#1406));
#279=IFCPOLYLOOP((#1426,#1404,#1405));
#280=IFCPOLYLOOP((#1405,#1428,#1426));
#281=IFCPOLYLOOP((#1406,#1198,#1428));
#282=IFCPOLYLOOP((#1419,#1422,#1226));
#283=IFCPOLYLOOP((#1400,#1404,#1426));
#284=IFCPOLYLOOP((#1387,#1392,#1424));
#285=IFCPOLYLOOP((#1375,#1374,#1211));
#286=IFCPOLYLOOP((#1429,#1207,#1222,#1427));
#287=IFCPOLYLOOP((#1430,#1208,#1207,#1429));
#288=IFCPOLYLOOP((#1431,#1219,#1208,#1430));
#289=IFCPOLYLOOP((#1432,#1220,#1219,#1431));
#290=IFCPOLYLOOP((#1433,#1215,#1220,#1432));
#291=IFCPOLYLOOP((#1423,#1216,#1215,#1433));
#292=IFCPOLYLOOP((#1434,#1224,#1212,#1425));
#293=IFCPOLYLOOP((#1435,#1203,#1224,#1434));
#294=IFCPOLYLOOP((#1436,#1204,#1203,#1435));
#295=IFCPOLYLOOP((#1437,#1200,#1204,#1436));
#296=IFCPOLYLOOP((#1438,#1197,#1200,#1437));
#297=IFCPOLYLOOP((#1428,#1198,#1197,#1438));
#298=IFCPOLYLOOP((#1439,#1440,#1437,#1436));
#299=IFCPOLYLOOP((#1436,#1435,#1441,#1439));
#300=IFCPOLYLOOP((#1440,#1442,#1438,#1437));
#301=IFCPOLYLOOP((#1442,#1443,#1428,#1438));
#302=IFCPOLYLOOP((#1444,#1445,#1427,#1426));
#303=IFCPOLYLOOP((#1446,#1447,#1430,#1429));
#304=IFCPOLYLOOP((#1448,#1449,#1434,#1425));
#305=IFCPOLYLOOP((#1426,#1428,#1443,#1444));
#306=IFCPOLYLOOP((#1447,#1450,#1431,#1430));
#307=IFCPOLYLOOP((#1451,#1452,#1433,#1432));
#308=IFCPOLYLOOP((#1435,#1434,#1449,#1441));
#309=IFCPOLYLOOP((#1432,#1431,#1450,#1451));
#310=IFCPOLYLOOP((#1429,#1427,#1445,#1446));
#311=IFCPOLYLOOP((#1453,#1454,#1424,#1423));
#312=IFCPOLYLOOP((#1423,#1433,#1452,#1453));
#313=IFCPOLYLOOP((#1425,#1424,#1454,#1448));
#314=IFCPOLYLOOP((#1455,#1445,#1444,#1456));
#315=IFCPOLYLOOP((#1457,#1446,#1445,#1455));
#316=IFCPOLYLOOP((#1458,#1447,#1446,#1457));
#317=IFCPOLYLOOP((#1459,#1450,#1447,#1458));
#318=IFCPOLYLOOP((#1460,#1451,#1450,#1459));
#319=IFCPOLYLOOP((#1461,#1452,#1451,#1460));
#320=IFCPOLYLOOP((#1462,#1453,#1452,#1461));
#321=IFCPOLYLOOP((#1463,#1454,#1453,#1462));
#322=IFCPOLYLOOP((#1464,#1448,#1454,#1463));
#323=IFCPOLYLOOP((#1465,#1449,#1448,#1464));
#324=IFCPOLYLOOP((#1466,#1441,#1449,#1465));
#325=IFCPOLYLOOP((#1467,#1439,#1441,#1466));
#326=IFCPOLYLOOP((#1468,#1440,#1439,#1467));
#327=IFCPOLYLOOP((#1469,#1442,#1440,#1468));
#328=IFCPOLYLOOP((#1470,#1443,#1442,#1469));
#329=IFCPOLYLOOP((#1456,#1444,#1443,#1470));
#330=IFCPOLYLOOP((#1470,#1469,#1471,#1472));
#331=IFCPOLYLOOP((#1468,#1473,#1474,#1475));
#332=IFCPOLYLOOP((#1466,#1465,#1476,#1477));
#333=IFCPOLYLOOP((#1464,#1478,#1479,#1480));
#334=IFCPOLYLOOP((#1475,#1471,#1469,#1468));
#335=IFCPOLYLOOP((#1480,#1476,#1465,#1464));
#336=IFCPOLYLOOP((#1462,#1461,#1481,#1482));
#337=IFCPOLYLOOP((#1460,#1483,#1484,#1485));
#338=IFCPOLYLOOP((#1468,#1467,#1466,#1486,#1473));
#339=IFCPOLYLOOP((#1464,#1463,#1462,#1487,#1478));
#340=IFCPOLYLOOP((#1485,#1481,#1461,#1460));
#341=IFCPOLYLOOP((#1458,#1457,#1488,#1489));
#342=IFCPOLYLOOP((#1455,#1490,#1491,#1492));
#343=IFCPOLYLOOP((#1477,#1493,#1486,#1466));
#344=IFCPOLYLOOP((#1460,#1459,#1458,#1494,#1483));
#345=IFCPOLYLOOP((#1492,#1488,#1457,#1455));
#346=IFCPOLYLOOP((#1482,#1495,#1487,#1462));
#347=IFCPOLYLOOP((#1455,#1456,#1470,#1496,#1490));
#348=IFCPOLYLOOP((#1489,#1497,#1494,#1458));
#349=IFCPOLYLOOP((#1472,#1498,#1496,#1470));
#350=IFCPOLYLOOP((#1499,#1500,#1483,#1494));
#351=IFCPOLYLOOP((#1497,#1501,#1499,#1494));
#352=IFCPOLYLOOP((#1502,#1484,#1483,#1500));
#353=IFCPOLYLOOP((#1500,#1499,#1501,#1503));
#354=IFCPOLYLOOP((#1503,#1502,#1500));
#355=IFCPOLYLOOP((#1504,#1474,#1473,#1505));
#356=IFCPOLYLOOP((#1493,#1506,#1507,#1486));
#357=IFCPOLYLOOP((#1507,#1506,#1508));
#358=IFCPOLYLOOP((#1508,#1504,#1505,#1507));
#359=IFCPOLYLOOP((#1473,#1486,#1507,#1505));
#360=IFCPOLYLOOP((#1509,#1510,#1490,#1496));
#361=IFCPOLYLOOP((#1509,#1511,#1512));
#362=IFCPOLYLOOP((#1512,#1513,#1510,#1509));
#363=IFCPOLYLOOP((#1498,#1511,#1509,#1496));
#364=IFCPOLYLOOP((#1513,#1491,#1490,#1510));
#365=IFCPOLYLOOP((#1359,#1350,#1513));
#366=IFCPOLYLOOP((#1492,#1491,#1513));
#367=IFCPOLYLOOP((#1513,#1350,#1492));
#368=IFCPOLYLOOP((#1472,#1341,#1511));
#369=IFCPOLYLOOP((#1359,#1512,#1511));
#370=IFCPOLYLOOP((#1511,#1341,#1359));
#371=IFCPOLYLOOP((#1345,#1343,#1504));
#372=IFCPOLYLOOP((#1475,#1474,#1504));
#373=IFCPOLYLOOP((#1504,#1343,#1475));
#374=IFCPOLYLOOP((#1477,#1346,#1506));
#375=IFCPOLYLOOP((#1345,#1508,#1506));
#376=IFCPOLYLOOP((#1506,#1346,#1345));
#377=IFCPOLYLOOP((#1355,#1353,#1514));
#378=IFCPOLYLOOP((#1480,#1479,#1514));
#379=IFCPOLYLOOP((#1514,#1353,#1480));
#380=IFCPOLYLOOP((#1482,#1356,#1515));
#381=IFCPOLYLOOP((#1355,#1516,#1515));
#382=IFCPOLYLOOP((#1515,#1356,#1355));
#383=IFCPOLYLOOP((#1347,#1361,#1502));
#384=IFCPOLYLOOP((#1485,#1484,#1502));
#385=IFCPOLYLOOP((#1502,#1361,#1485));
#386=IFCPOLYLOOP((#1489,#1348,#1501));
#387=IFCPOLYLOOP((#1347,#1503,#1501));
#388=IFCPOLYLOOP((#1501,#1348,#1347));
#389=IFCPOLYLOOP((#1501,#1497,#1489));
#390=IFCPOLYLOOP((#1502,#1503,#1347));
#391=IFCPOLYLOOP((#1515,#1495,#1482));
#392=IFCPOLYLOOP((#1514,#1516,#1355));
#393=IFCPOLYLOOP((#1506,#1493,#1477));
#394=IFCPOLYLOOP((#1504,#1508,#1345));
#395=IFCPOLYLOOP((#1511,#1498,#1472));
#396=IFCPOLYLOOP((#1513,#1512,#1359));
#397=IFCPOLYLOOP((#1349,#1488,#1492,#1350));
#398=IFCPOLYLOOP((#1348,#1489,#1488,#1349));
#399=IFCPOLYLOOP((#1362,#1481,#1485,#1361));
#400=IFCPOLYLOOP((#1356,#1482,#1481,#1362));
#401=IFCPOLYLOOP((#1352,#1476,#1480,#1353));
#402=IFCPOLYLOOP((#1346,#1477,#1476,#1352));
#403=IFCPOLYLOOP((#1342,#1471,#1475,#1343));
#404=IFCPOLYLOOP((#1341,#1472,#1471,#1342));
#405=IFCPOLYLOOP((#1514,#1479,#1478,#1517));
#406=IFCPOLYLOOP((#1495,#1515,#1518,#1487));
#407=IFCPOLYLOOP((#1517,#1518,#1515,#1516));
#408=IFCPOLYLOOP((#1516,#1514,#1517));
#409=IFCPOLYLOOP((#1478,#1487,#1518,#1517));
#410=IFCFACEOUTERBOUND(#26,.T.);
#411=IFCFACEOUTERBOUND(#27,.T.);
#412=IFCFACEOUTERBOUND(#28,.T.);
#413=IFCFACEOUTERBOUND(#29,.T.);
#414=IFCFACEOUTERBOUND(#30,.T.);
#415=IFCFACEOUTERBOUND(#31,.T.);
#416=IFCFACEOUTERBOUND(#32,.T.);
#417=IFCFACEOUTERBOUND(#33,.T.);
#418=IFCFACEOUTERBOUND(#34,.T.);
#419=IFCFACEOUTERBOUND(#35,.T.);
#420=IFCFACEOUTERBOUND(#36,.T.);
#421=IFCFACEOUTERBOUND(#37,.T.);
#422=IFCFACEOUTERBOUND(#38,.T.);
#423=IFCFACEOUTERBOUND(#39,.T.);
#424=IFCFACEOUTERBOUND(#40,.T.);
#425=IFCFACEOUTERBOUND(#41,.T.);
#426=IFCFACEOUTERBOUND(#42,.T.);
#427=IFCFACEOUTERBOUND(#43,.T.);
#428=IFCFACEOUTERBOUND(#44,.T.);
#429=IFCFACEOUTERBOUND(#45,.T.);
#430=IFCFACEOUTERBOUND(#46,.T.);
#431=IFCFACEOUTERBOUND(#47,.T.);
#432=IFCFACEOUTERBOUND(#48,.T.);
#433=IFCFACEOUTERBOUND(#49,.T.);
#434=IFCFACEOUTERBOUND(#50,.T.);
#435=IFCFACEOUTERBOUND(#51,.T.);
#436=IFCFACEOUTERBOUND(#52,.T.);
#437=IFCFACEOUTERBOUND(#53,.T.);
#438=IFCFACEOUTERBOUND(#54,.T.);
#439=IFCFACEOUTERBOUND(#55,.T.);
#440=IFCFACEOUTERBOUND(#56,.T.);
#441=IFCFACEOUTERBOUND(#57,.T.);
#442=IFCFACEOUTERBOUND(#58,.T.);
#443=IFCFACEOUTERBOUND(#59,.T.);
#444=IFCFACEOUTERBOUND(#60,.T.);
#445=IFCFACEOUTERBOUND(#61,.T.);
#446=IFCFACEOUTERBOUND(#62,.T.);
#447=IFCFACEOUTERBOUND(#63,.T.);
#448=IFCFACEOUTERBOUND(#64,.T.);
#449=IFCFACEOUTERBOUND(#65,.T.);
#450=IFCFACEOUTERBOUND(#66,.T.);
#451=IFCFACEOUTERBOUND(#67,.T.);
#452=IFCFACEOUTERBOUND(#68,.T.);
#453=IFCFACEOUTERBOUND(#69,.T.);
#454=IFCFACEOUTERBOUND(#70,.T.);
#455=IFCFACEOUTERBOUND(#71,.T.);
#456=IFCFACEOUTERBOUND(#72,.T.);
#457=IFCFACEOUTERBOUND(#73,.T.);
#458=IFCFACEOUTERBOUND(#74,.T.);
#459=IFCFACEOUTERBOUND(#75,.T.);
#460=IFCFACEOUTERBOUND(#76,.T.);
#461=IFCFACEOUTERBOUND(#77,.T.);
#462=IFCFACEOUTERBOUND(#78,.T.);
#463=IFCFACEOUTERBOUND(#79,.T.);
#464=IFCFACEOUTERBOUND(#80,.T.);
#465=IFCFACEOUTERBOUND(#81,.T.);
#466=IFCFACEOUTERBOUND(#82,.T.);
#467=IFCFACEOUTERBOUND(#83,.T.);
#468=IFCFACEOUTERBOUND(#84,.T.);
#469=IFCFACEOUTERBOUND(#85,.T.);
#470=IFCFACEOUTERBOUND(#86,.T.);
#471=IFCFACEOUTERBOUND(#87,.T.);
#472=IFCFACEOUTERBOUND(#88,.T.);
#473=IFCFACEOUTERBOUND(#89,.T.);
#474=IFCFACEOUTERBOUND(#90,.T.);
#475=IFCFACEOUTERBOUND(#91,.T.);
#476=IFCFACEOUTERBOUND(#92,.T.);
#477=IFCFACEOUTERBOUND(#93,.T.);
#478=IFCFACEOUTERBOUND(#94,.T.);
#479=IFCFACEOUTERBOUND(#95,.T.);
#480=IFCFACEOUTERBOUND(#96,.T.);
#481=IFCFACEOUTERBOUND(#97,.T.);
#482=IFCFACEOUTERBOUND(#98,.T.);
#483=IFCFACEOUTERBOUND(#99,.T.);
#484=IFCFACEOUTERBOUND(#100,.T.);
#485=IFCFACEOUTERBOUND(#101,.T.);
#486=IFCFACEOUTERBOUND(#102,.T.);
#487=IFCFACEOUTERBOUND(#103,.T.);
#488=IFCFACEOUTERBOUND(#104,.T.);
#489=IFCFACEOUTERBOUND(#105,.T.);
#490=IFCFACEOUTERBOUND(#106,.T.);
#491=IFCFACEOUTERBOUND(#107,.T.);
#492=IFCFACEOUTERBOUND(#108,.T.);
#493=IFCFACEOUTERBOUND(#109,.T.);
#494=IFCFACEOUTERBOUND(#110,.T.);
#495=IFCFACEOUTERBOUND(#111,.T.);
#496=IFCFACEOUTERBOUND(#112,.T.);
#497=IFCFACEOUTERBOUND(#113,.T.);
#498=IFCFACEOUTERBOUND(#114,.T.);
#499=IFCFACEOUTERBOUND(#115,.T.);
#500=IFCFACEOUTERBOUND(#116,.T.);
#501=IFCFACEOUTERBOUND(#117,.T.);
#502=IFCFACEOUTERBOUND(#118,.T.);
#503=IFCFACEOUTERBOUND(#119,.T.);
#504=IFCFACEOUTERBOUND(#120,.T.);
#505=IFCFACEOUTERBOUND(#121,.T.);
#506=IFCFACEOUTERBOUND(#122,.T.);
#507=IFCFACEOUTERBOUND(#123,.T.);
#508=IFCFACEOUTERBOUND(#124,.T.);
#509=IFCFACEOUTERBOUND(#125,.T.);
#510=IFCFACEOUTERBOUND(#126,.T.);
#511=IFCFACEOUTERBOUND(#127,.T.);
#512=IFCFACEOUTERBOUND(#128,.T.);
#513=IFCFACEOUTERBOUND(#129,.T.);
#514=IFCFACEOUTERBOUND(#130,.T.);
#515=IFCFACEOUTERBOUND(#131,.T.);
#516=IFCFACEOUTERBOUND(#132,.T.);
#517=IFCFACEOUTERBOUND(#133,.T.);
#518=IFCFACEOUTERBOUND(#134,.T.);
#519=IFCFACEOUTERBOUND(#135,.T.);
#520=IFCFACEOUTERBOUND(#136,.T.);
#521=IFCFACEOUTERBOUND(#137,.T.);
#522=IFCFACEOUTERBOUND(#138,.T.);
#523=IFCFACEOUTERBOUND(#139,.T.);
#524=IFCFACEOUTERBOUND(#140,.T.);
#525=IFCFACEOUTERBOUND(#141,.T.);
#526=IFCFACEOUTERBOUND(#142,.T.);
#527=IFCFACEOUTERBOUND(#143,.T.);
#528=IFCFACEOUTERBOUND(#144,.T.);
#529=IFCFACEOUTERBOUND(#145,.T.);
#530=IFCFACEOUTERBOUND(#146,.T.);
#531=IFCFACEOUTERBOUND(#147,.T.);
#532=IFCFACEOUTERBOUND(#148,.T.);
#533=IFCFACEOUTERBOUND(#149,.T.);
#534=IFCFACEOUTERBOUND(#150,.T.);
#535=IFCFACEOUTERBOUND(#151,.T.);
#536=IFCFACEOUTERBOUND(#152,.T.);
#537=IFCFACEOUTERBOUND(#153,.T.);
#538=IFCFACEOUTERBOUND(#154,.T.);
#539=IFCFACEOUTERBOUND(#155,.T.);
#540=IFCFACEOUTERBOUND(#156,.T.);
#541=IFCFACEOUTERBOUND(#157,.T.);
#542=IFCFACEOUTERBOUND(#158,.T.);
#543=IFCFACEOUTERBOUND(#159,.T.);
#544=IFCFACEOUTERBOUND(#160,.T.);
#545=IFCFACEOUTERBOUND(#161,.T.);
#546=IFCFACEOUTERBOUND(#162,.T.);
#547=IFCFACEOUTERBOUND(#163,.T.);
#548=IFCFACEOUTERBOUND(#164,.T.);
#549=IFCFACEOUTERBOUND(#165,.T.);
#550=IFCFACEOUTERBOUND(#166,.T.);
#551=IFCFACEOUTERBOUND(#167,.T.);
#552=IFCFACEOUTERBOUND(#168,.T.);
#553=IFCFACEOUTERBOUND(#169,.T.);
#554=IFCFACEOUTERBOUND(#170,.T.);
#555=IFCFACEOUTERBOUND(#171,.T.);
#556=IFCFACEOUTERBOUND(#172,.T.);
#557=IFCFACEOUTERBOUND(#173,.T.);
#558=IFCFACEOUTERBOUND(#174,.T.);
#559=IFCFACEOUTERBOUND(#175,.T.);
#560=IFCFACEOUTERBOUND(#176,.T.);
#561=IFCFACEOUTERBOUND(#177,.T.);
#562=IFCFACEOUTERBOUND(#178,.T.);
#563=IFCFACEOUTERBOUND(#179,.T.);
#564=IFCFACEOUTERBOUND(#180,.T.);
#565=IFCFACEOUTERBOUND(#181,.T.);
#566=IFCFACEOUTERBOUND(#182,.T.);
#567=IFCFACEOUTERBOUND(#183,.T.);
#568=IFCFACEOUTERBOUND(#184,.T.);
#569=IFCFACEOUTERBOUND(#185,.T.);
#570=IFCFACEOUTERBOUND(#186,.T.);
#571=IFCFACEOUTERBOUND(#187,.T.);
#572=IFCFACEOUTERBOUND(#188,.T.);
#573=IFCFACEOUTERBOUND(#189,.T.);
#574=IFCFACEOUTERBOUND(#190,.T.);
#575=IFCFACEOUTERBOUND(#191,.T.);
#576=IFCFACEOUTERBOUND(#192,.T.);
#577=IFCFACEOUTERBOUND(#193,.T.);
#578=IFCFACEOUTERBOUND(#194,.T.);
#579=IFCFACEOUTERBOUND(#195,.T.);
#580=IFCFACEOUTERBOUND(#196,.T.);
#581=IFCFACEOUTERBOUND(#197,.T.);
#582=IFCFACEOUTERBOUND(#198,.T.);
#583=IFCFACEOUTERBOUND(#199,.T.);
#584=IFCFACEOUTERBOUND(#200,.T.);
#585=IFCFACEOUTERBOUND(#201,.T.);
#586=IFCFACEOUTERBOUND(#202,.T.);
#587=IFCFACEOUTERBOUND(#203,.T.);
#588=IFCFACEOUTERBOUND(#204,.T.);
#589=IFCFACEOUTERBOUND(#205,.T.);
#590=IFCFACEOUTERBOUND(#206,.T.);
#591=IFCFACEOUTERBOUND(#207,.T.);
#592=IFCFACEOUTERBOUND(#208,.T.);
#593=IFCFACEOUTERBOUND(#209,.T.);
#594=IFCFACEOUTERBOUND(#210,.T.);
#595=IFCFACEOUTERBOUND(#211,.T.);
#596=IFCFACEOUTERBOUND(#212,.T.);
#597=IFCFACEOUTERBOUND(#213,.T.);
#598=IFCFACEOUTERBOUND(#214,.T.);
#599=IFCFACEOUTERBOUND(#215,.T.);
#600=IFCFACEOUTERBOUND(#216,.T.);
#601=IFCFACEOUTERBOUND(#217,.T.);
#602=IFCFACEOUTERBOUND(#218,.T.);
#603=IFCFACEOUTERBOUND(#219,.T.);
#604=IFCFACEOUTERBOUND(#220,.T.);
#605=IFCFACEOUTERBOUND(#221,.T.);
#606=IFCFACEOUTERBOUND(#222,.T.);
#607=IFCFACEOUTERBOUND(#223,.T.);
#608=IFCFACEOUTERBOUND(#224,.T.);
#609=IFCFACEOUTERBOUND(#225,.T.);
#610=IFCFACEOUTERBOUND(#226,.T.);
#611=IFCFACEOUTERBOUND(#227,.T.);
#612=IFCFACEOUTERBOUND(#228,.T.);
#613=IFCFACEOUTERBOUND(#229,.T.);
#614=IFCFACEOUTERBOUND(#230,.T.);
#615=IFCFACEOUTERBOUND(#231,.T.);
#616=IFCFACEOUTERBOUND(#232,.T.);
#617=IFCFACEOUTERBOUND(#233,.T.);
#618=IFCFACEOUTERBOUND(#234,.T.);
#619=IFCFACEOUTERBOUND(#235,.T.);
#620=IFCFACEOUTERBOUND(#236,.T.);
#621=IFCFACEOUTERBOUND(#237,.T.);
#622=IFCFACEOUTERBOUND(#238,.T.);
#623=IFCFACEOUTERBOUND(#239,.T.);
#624=IFCFACEOUTERBOUND(#240,.T.);
#625=IFCFACEOUTERBOUND(#241,.T.);
#626=IFCFACEOUTERBOUND(#242,.T.);
#627=IFCFACEOUTERBOUND(#243,.T.);
#628=IFCFACEOUTERBOUND(#244,.T.);
#629=IFCFACEOUTERBOUND(#245,.T.);
#630=IFCFACEOUTERBOUND(#246,.T.);
#631=IFCFACEOUTERBOUND(#247,.T.);
#632=IFCFACEOUTERBOUND(#248,.T.);
#633=IFCFACEOUTERBOUND(#249,.T.);
#634=IFCFACEOUTERBOUND(#250,.T.);
#635=IFCFACEOUTERBOUND(#251,.T.);
#636=IFCFACEOUTERBOUND(#252,.T.);
#637=IFCFACEOUTERBOUND(#253,.T.);
#638=IFCFACEOUTERBOUND(#254,.T.);
#639=IFCFACEOUTERBOUND(#255,.T.);
#640=IFCFACEOUTERBOUND(#256,.T.);
#641=IFCFACEOUTERBOUND(#257,.T.);
#642=IFCFACEOUTERBOUND(#258,.T.);
#643=IFCFACEOUTERBOUND(#259,.T.);
#644=IFCFACEOUTERBOUND(#260,.T.);
#645=IFCFACEOUTERBOUND(#261,.T.);
#646=IFCFACEOUTERBOUND(#262,.T.);
#647=IFCFACEOUTERBOUND(#263,.T.);
#648=IFCFACEOUTERBOUND(#264,.T.);
#649=IFCFACEOUTERBOUND(#265,.T.);
#650=IFCFACEOUTERBOUND(#266,.T.);
#651=IFCFACEOUTERBOUND(#267,.T.);
#652=IFCFACEOUTERBOUND(#268,.T.);
#653=IFCFACEOUTERBOUND(#269,.T.);
#654=IFCFACEOUTERBOUND(#270,.T.);
#655=IFCFACEOUTERBOUND(#271,.T.);
#656=IFCFACEOUTERBOUND(#272,.T.);
#657=IFCFACEOUTERBOUND(#273,.T.);
#658=IFCFACEOUTERBOUND(#274,.T.);
#659=IFCFACEOUTERBOUND(#275,.T.);
#660=IFCFACEOUTERBOUND(#276,.T.);
#661=IFCFACEOUTERBOUND(#277,.T.);
#662=IFCFACEOUTERBOUND(#278,.T.);
#663=IFCFACEOUTERBOUND(#279,.T.);
#664=IFCFACEOUTERBOUND(#280,.T.);
#665=IFCFACEOUTERBOUND(#281,.T.);
#666=IFCFACEOUTERBOUND(#282,.T.);
#667=IFCFACEOUTERBOUND(#283,.T.);
#668=IFCFACEOUTERBOUND(#284,.T.);
#669=IFCFACEOUTERBOUND(#285,.T.);
#670=IFCFACEOUTERBOUND(#286,.T.);
#671=IFCFACEOUTERBOUND(#287,.T.);
#672=IFCFACEOUTERBOUND(#288,.T.);
#673=IFCFACEOUTERBOUND(#289,.T.);
#674=IFCFACEOUTERBOUND(#290,.T.);
#675=IFCFACEOUTERBOUND(#291,.T.);
#676=IFCFACEOUTERBOUND(#292,.T.);
#677=IFCFACEOUTERBOUND(#293,.T.);
#678=IFCFACEOUTERBOUND(#294,.T.);
#679=IFCFACEOUTERBOUND(#295,.T.);
#680=IFCFACEOUTERBOUND(#296,.T.);
#681=IFCFACEOUTERBOUND(#297,.T.);
#682=IFCFACEOUTERBOUND(#298,.T.);
#683=IFCFACEOUTERBOUND(#299,.T.);
#684=IFCFACEOUTERBOUND(#300,.T.);
#685=IFCFACEOUTERBOUND(#301,.T.);
#686=IFCFACEOUTERBOUND(#302,.T.);
#687=IFCFACEOUTERBOUND(#303,.T.);
#688=IFCFACEOUTERBOUND(#304,.T.);
#689=IFCFACEOUTERBOUND(#305,.T.);
#690=IFCFACEOUTERBOUND(#306,.T.);
#691=IFCFACEOUTERBOUND(#307,.T.);
#692=IFCFACEOUTERBOUND(#308,.T.);
#693=IFCFACEOUTERBOUND(#309,.T.);
#694=IFCFACEOUTERBOUND(#310,.T.);
#695=IFCFACEOUTERBOUND(#311,.T.);
#696=IFCFACEOUTERBOUND(#312,.T.);
#697=IFCFACEOUTERBOUND(#313,.T.);
#698=IFCFACEOUTERBOUND(#314,.T.);
#699=IFCFACEOUTERBOUND(#315,.T.);
#700=IFCFACEOUTERBOUND(#316,.T.);
#701=IFCFACEOUTERBOUND(#317,.T.);
#702=IFCFACEOUTERBOUND(#318,.T.);
#703=IFCFACEOUTERBOUND(#319,.T.);
#704=IFCFACEOUTERBOUND(#320,.T.);
#705=IFCFACEOUTERBOUND(#321,.T.);
#706=IFCFACEOUTERBOUND(#322,.T.);
#707=IFCFACEOUTERBOUND(#323,.T.);
#708=IFCFACEOUTERBOUND(#324,.T.);
#709=IFCFACEOUTERBOUND(#325,.T.);
#710=IFCFACEOUTERBOUND(#326,.T.);
#711=IFCFACEOUTERBOUND(#327,.T.);
#712=IFCFACEOUTERBOUND(#328,.T.);
#713=IFCFACEOUTERBOUND(#329,.T.);
#714=IFCFACEOUTERBOUND(#330,.T.);
#715=IFCFACEOUTERBOUND(#331,.T.);
#716=IFCFACEOUTERBOUND(#332,.T.);
#717=IFCFACEOUTERBOUND(#333,.T.);
#718=IFCFACEOUTERBOUND(#334,.T.);
#719=IFCFACEOUTERBOUND(#335,.T.);
#720=IFCFACEOUTERBOUND(#336,.T.);
#721=IFCFACEOUTERBOUND(#337,.T.);
#722=IFCFACEOUTERBOUND(#338,.T.);
#723=IFCFACEOUTERBOUND(#339,.T.);
#724=IFCFACEOUTERBOUND(#340,.T.);
#725=IFCFACEOUTERBOUND(#341,.T.);
#726=IFCFACEOUTERBOUND(#342,.T.);
#727=IFCFACEOUTERBOUND(#343,.T.);
#728=IFCFACEOUTERBOUND(#344,.T.);
#729=IFCFACEOUTERBOUND(#345,.T.);
#730=IFCFACEOUTERBOUND(#346,.T.);
#731=IFCFACEOUTERBOUND(#347,.T.);
#732=IFCFACEOUTERBOUND(#348,.T.);
#733=IFCFACEOUTERBOUND(#349,.T.);
#734=IFCFACEOUTERBOUND(#350,.T.);
#735=IFCFACEOUTERBOUND(#351,.T.);
#736=IFCFACEOUTERBOUND(#352,.T.);
#737=IFCFACEOUTERBOUND(#353,.T.);
#738=IFCFACEOUTERBOUND(#354,.T.);
#739=IFCFACEOUTERBOUND(#355,.T.);
#740=IFCFACEOUTERBOUND(#356,.T.);
#741=IFCFACEOUTERBOUND(#357,.T.);
#742=IFCFACEOUTERBOUND(#358,.T.);
#743=IFCFACEOUTERBOUND(#359,.T.);
#744=IFCFACEOUTERBOUND(#360,.T.);
#745=IFCFACEOUTERBOUND(#361,.T.);
#746=IFCFACEOUTERBOUND(#362,.T.);
#747=IFCFACEOUTERBOUND(#363,.T.);
#748=IFCFACEOUTERBOUND(#364,.T.);
#749=IFCFACEOUTERBOUND(#365,.T.);
#750=IFCFACEOUTERBOUND(#366,.T.);
#751=IFCFACEOUTERBOUND(#367,.T.);
#752=IFCFACEOUTERBOUND(#368,.T.);
#753=IFCFACEOUTERBOUND(#369,.T.);
#754=IFCFACEOUTERBOUND(#370,.T.);
#755=IFCFACEOUTERBOUND(#371,.T.);
#756=IFCFACEOUTERBOUND(#372,.T.);
#757=IFCFACEOUTERBOUND(#373,.T.);
#758=IFCFACEOUTERBOUND(#374,.T.);
#759=IFCFACEOUTERBOUND(#375,.T.);
#760=IFCFACEOUTERBOUND(#376,.T.);
#761=IFCFACEOUTERBOUND(#377,.T.);
#762=IFCFACEOUTERBOUND(#378,.T.);
#763=IFCFACEOUTERBOUND(#379,.T.);
#764=IFCFACEOUTERBOUND(#380,.T.);
#765=IFCFACEOUTERBOUND(#381,.T.);
#766=IFCFACEOUTERBOUND(#382,.T.);
#767=IFCFACEOUTERBOUND(#383,.T.);
#768=IFCFACEOUTERBOUND(#384,.T.);
#769=IFCFACEOUTERBOUND(#385,.T.);
#770=IFCFACEOUTERBOUND(#386,.T.);
#771=IFCFACEOUTERBOUND(#387,.T.);
#772=IFCFACEOUTERBOUND(#388,.T.);
#773=IFCFACEOUTERBOUND(#389,.T.);
#774=IFCFACEOUTERBOUND(#390,.T.);
#775=IFCFACEOUTERBOUND(#391,.T.);
#776=IFCFACEOUTERBOUND(#392,.T.);
#777=IFCFACEOUTERBOUND(#393,.T.);
#778=IFCFACEOUTERBOUND(#394,.T.);
#779=IFCFACEOUTERBOUND(#395,.T.);
#780=IFCFACEOUTERBOUND(#396,.T.);
#781=IFCFACEOUTERBOUND(#397,.T.);
#782=IFCFACEOUTERBOUND(#398,.T.);
#783=IFCFACEOUTERBOUND(#399,.T.);
#784=IFCFACEOUTERBOUND(#400,.T.);
#785=IFCFACEOUTERBOUND(#401,.T.);
#786=IFCFACEOUTERBOUND(#402,.T.);
#787=IFCFACEOUTERBOUND(#403,.T.);
#788=IFCFACEOUTERBOUND(#404,.T.);
#789=IFCFACEOUTERBOUND(#405,.T.);
#790=IFCFACEOUTERBOUND(#406,.T.);
#791=IFCFACEOUTERBOUND(#407,.T.);
#792=IFCFACEOUTERBOUND(#408,.T.);
#793=IFCFACEOUTERBOUND(#409,.T.);
#794=IFCFACE((#410));
#795=IFCFACE((#411));
#796=IFCFACE((#412));
#797=IFCFACE((#413));
#798=IFCFACE((#414));
#799=IFCFACE((#415));
#800=IFCFACE((#416));
#801=IFCFACE((#417));
#802=IFCFACE((#418));
#803=IFCFACE((#419));
#804=IFCFACE((#420));
#805=IFCFACE((#421));
#806=IFCFACE((#422));
#807=IFCFACE((#423));
#808=IFCFACE((#424));
#809=IFCFACE((#425));
#810=IFCFACE((#426));
#811=IFCFACE((#427));
#812=IFCFACE((#428));
#813=IFCFACE((#429));
#814=IFCFACE((#430));
#815=IFCFACE((#431));
#816=IFCFACE((#432));
#817=IFCFACE((#433));
#818=IFCFACE((#434));
#819=IFCFACE((#435));
#820=IFCFACE((#436));
#821=IFCFACE((#437));
#822=IFCFACE((#438));
#823=IFCFACE((#439));
#824=IFCFACE((#440));
#825=IFCFACE((#441));
#826=IFCFACE((#442));
#827=IFCFACE((#443));
#828=IFCFACE((#444));
#829=IFCFACE((#445));
#830=IFCFACE((#446));
#831=IFCFACE((#447));
#832=IFCFACE((#448));
#833=IFCFACE((#449));
#834=IFCFACE((#450));
#835=IFCFACE((#451));
#836=IFCFACE((#452));
#837=IFCFACE((#453));
#838=IFCFACE((#454));
#839=IFCFACE((#455));
#840=IFCFACE((#456));
#841=IFCFACE((#457));
#842=IFCFACE((#458));
#843=IFCFACE((#459));
#844=IFCFACE((#460));
#845=IFCFACE((#461));
#846=IFCFACE((#462));
#847=IFCFACE((#463));
#848=IFCFACE((#464));
#849=IFCFACE((#465));
#850=IFCFACE((#466));
#851=IFCFACE((#467));
#852=IFCFACE((#468));
#853=IFCFACE((#469));
#854=IFCFACE((#470));
#855=IFCFACE((#471));
#856=IFCFACE((#472));
#857=IFCFACE((#473));
#858=IFCFACE((#474));
#859=IFCFACE((#475));
#860=IFCFACE((#476));
#861=IFCFACE((#477));
#862=IFCFACE((#478));
#863=IFCFACE((#479));
#864=IFCFACE((#480));
#865=IFCFACE((#481));
#866=IFCFACE((#482));
#867=IFCFACE((#483));
#868=IFCFACE((#484));
#869=IFCFACE((#485));
#870=IFCFACE((#486));
#871=IFCFACE((#487));
#872=IFCFACE((#488));
#873=IFCFACE((#489));
#874=IFCFACE((#490));
#875=IFCFACE((#491));
#876=IFCFACE((#492));
#877=IFCFACE((#493));
#878=IFCFACE((#494));
#879=IFCFACE((#495));
#880=IFCFACE((#496));
#881=IFCFACE((#497));
#882=IFCFACE((#498));
#883=IFCFACE((#499));
#884=IFCFACE((#500));
#885=IFCFACE((#501));
#886=IFCFACE((#502));
#887=IFCFACE((#503));
#888=IFCFACE((#504));
#889=IFCFACE((#505));
#890=IFCFACE((#506));
#891=IFCFACE((#507));
#892=IFCFACE((#508));
#893=IFCFACE((#509));
#894=IFCFACE((#510));
#895=IFCFACE((#511));
#896=IFCFACE((#512));
#897=IFCFACE((#513));
#898=IFCFACE((#514));
#899=IFCFACE((#515));
#900=IFCFACE((#516));
#901=IFCFACE((#517));
#902=IFCFACE((#518));
#903=IFCFACE((#519));
#904=IFCFACE((#520));
#905=IFCFACE((#521));
#906=IFCFACE((#522));
#907=IFCFACE((#523));
#908=IFCFACE((#524));
#909=IFCFACE((#525));
#910=IFCFACE((#526));
#911=IFCFACE((#527));
#912=IFCFACE((#528));
#913=IFCFACE((#529));
#914=IFCFACE((#530));
#915=IFCFACE((#531));
#916=IFCFACE((#532));
#917=IFCFACE((#533));
#918=IFCFACE((#534));
#919=IFCFACE((#535));
#920=IFCFACE((#536));
#921=IFCFACE((#537));
#922=IFCFACE((#538));
#923=IFCFACE((#539));
#924=IFCFACE((#540));
#925=IFCFACE((#541));
#926=IFCFACE((#542));
#927=IFCFACE((#543));
#928=IFCFACE((#544));
#929=IFCFACE((#545));
#930=IFCFACE((#546));
#931=IFCFACE((#547));
#932=IFCFACE((#548));
#933=IFCFACE((#549));
#934=IFCFACE((#550));
#935=IFCFACE((#551));
#936=IFCFACE((#552));
#937=IFCFACE((#553));
#938=IFCFACE((#554));
#939=IFCFACE((#555));
#940=IFCFACE((#556));
#941=IFCFACE((#557));
#942=IFCFACE((#558));
#943=IFCFACE((#559));
#944=IFCFACE((#560));
#945=IFCFACE((#561));
#946=IFCFACE((#562));
#947=IFCFACE((#563));
#948=IFCFACE((#564));
#949=IFCFACE((#565));
#950=IFCFACE((#566));
#951=IFCFACE((#567));
#952=IFCFACE((#568));
#953=IFCFACE((#569));
#954=IFCFACE((#570));
#955=IFCFACE((#571));
#956=IFCFACE((#572));
#957=IFCFACE((#573));
#958=IFCFACE((#574));
#959=IFCFACE((#575));
#960=IFCFACE((#576));
#961=IFCFACE((#577));
#962=IFCFACE((#578));
#963=IFCFACE((#579));
#964=IFCFACE((#580));
#965=IFCFACE((#581));
#966=IFCFACE((#582));
#967=IFCFACE((#583));
#968=IFCFACE((#584));
#969=IFCFACE((#585));
#970=IFCFACE((#586));
#971=IFCFACE((#587));
#972=IFCFACE((#588));
#973=IFCFACE((#589));
#974=IFCFACE((#590));
#975=IFCFACE((#591));
#976=IFCFACE((#592));
#977=IFCFACE((#593));
#978=IFCFACE((#594));
#979=IFCFACE((#595));
#980=IFCFACE((#596));
#981=IFCFACE((#597));
#982=IFCFACE((#598));
#983=IFCFACE((#599));
#984=IFCFACE((#600));
#985=IFCFACE((#601));
#986=IFCFACE((#602));
#987=IFCFACE((#603));
#988=IFCFACE((#604));
#989=IFCFACE((#605));
#990=IFCFACE((#606));
#991=IFCFACE((#607));
#992=IFCFACE((#608));
#993=IFCFACE((#609));
#994=IFCFACE((#610));
#995=IFCFACE((#611));
#996=IFCFACE((#612));
#997=IFCFACE((#613));
#998=IFCFACE((#614));
#999=IFCFACE((#615));
#1000=IFCFACE((#616));
#1001=IFCFACE((#617));
#1002=IFCFACE((#618));
#1003=IFCFACE((#619));
#1004=IFCFACE((#620));
#1005=IFCFACE((#621));
#1006=IFCFACE((#622));
#1007=IFCFACE((#623));
#1008=IFCFACE((#624));
#1009=IFCFACE((#625));
#1010=IFCFACE((#626));
#1011=IFCFACE((#627));
#1012=IFCFACE((#628));
#1013=IFCFACE((#629));
#1014=IFCFACE((#630));
#1015=IFCFACE((#631));
#1016=IFCFACE((#632));
#1017=IFCFACE((#633));
#1018=IFCFACE((#634));
#1019=IFCFACE((#635));
#1020=IFCFACE((#636));
#1021=IFCFACE((#637));
#1022=IFCFACE((#638));
#1023=IFCFACE((#639));
#1024=IFCFACE((#640));
#1025=IFCFACE((#641));
#1026=IFCFACE((#642));
#1027=IFCFACE((#643));
#1028=IFCFACE((#644));
#1029=IFCFACE((#645));
#1030=IFCFACE((#646));
#1031=IFCFACE((#647));
#1032=IFCFACE((#648));
#1033=IFCFACE((#649));
#1034=IFCFACE((#650));
#1035=IFCFACE((#651));
#1036=IFCFACE((#652));
#1037=IFCFACE((#653));
#1038=IFCFACE((#654));
#1039=IFCFACE((#655));
#1040=IFCFACE((#656));
#1041=IFCFACE((#657));
#1042=IFCFACE((#658));
#1043=IFCFACE((#659));
#1044=IFCFACE((#660));
#1045=IFCFACE((#661));
#1046=IFCFACE((#662));
#1047=IFCFACE((#663));
#1048=IFCFACE((#664));
#1049=IFCFACE((#665));
#1050=IFCFACE((#666));
#1051=IFCFACE((#667));
#1052=IFCFACE((#668));
#1053=IFCFACE((#669));
#1054=IFCFACE((#670));
#1055=IFCFACE((#671));
#1056=IFCFACE((#672));
#1057=IFCFACE((#673));
#1058=IFCFACE((#674));
#1059=IFCFACE((#675));
#1060=IFCFACE((#676));
#1061=IFCFACE((#677));
#1062=IFCFACE((#678));
#1063=IFCFACE((#679));
#1064=IFCFACE((#680));
#1065=IFCFACE((#681));
#1066=IFCFACE((#682));
#1067=IFCFACE((#683));
#1068=IFCFACE((#684));
#1069=IFCFACE((#685));
#1070=IFCFACE((#686));
#1071=IFCFACE((#687));
#1072=IFCFACE((#688));
#1073=IFCFACE((#689));
#1074=IFCFACE((#690));
#1075=IFCFACE((#691));
#1076=IFCFACE((#692));
#1077=IFCFACE((#693));
#1078=IFCFACE((#694));
#1079=IFCFACE((#695));
#1080=IFCFACE((#696));
#1081=IFCFACE((#697));
#1082=IFCFACE((#698));
#1083=IFCFACE((#699));
#1084=IFCFACE((#700));
#1085=IFCFACE((#701));
#1086=IFCFACE((#702));
#1087=IFCFACE((#703));
#1088=IFCFACE((#704));
#1089=IFCFACE((#705));
#1090=IFCFACE((#706));
#1091=IFCFACE((#707));
#1092=IFCFACE((#708));
#1093=IFCFACE((#709));
#1094=IFCFACE((#710));
#1095=IFCFACE((#711));
#1096=IFCFACE((#712));
#1097=IFCFACE((#713));
#1098=IFCFACE((#714));
#1099=IFCFACE((#715));
#1100=IFCFACE((#716));
#1101=IFCFACE((#717));
#1102=IFCFACE((#718));
#1103=IFCFACE((#719));
#1104=IFCFACE((#720));
#1105=IFCFACE((#721));
#1106=IFCFACE((#722));
#1107=IFCFACE((#723));
#1108=IFCFACE((#724));
#1109=IFCFACE((#725));
#1110=IFCFACE((#726));
#1111=IFCFACE((#727));
#1112=IFCFACE((#728));
#1113=IFCFACE((#729));
#1114=IFCFACE((#730));
#1115=IFCFACE((#731));
#1116=IFCFACE((#732));
#1117=IFCFACE((#733));
#1118=IFCFACE((#734));
#1119=IFCFACE((#735));
#1120=IFCFACE((#736));
#1121=IFCFACE((#737));
#1122=IFCFACE((#738));
#1123=IFCFACE((#739));
#1124=IFCFACE((#740));
#1125=IFCFACE((#741));
#1126=IFCFACE((#742));
#1127=IFCFACE((#743));
#1128=IFCFACE((#744));
#1129=IFCFACE((#745));
#1130=IFCFACE((#746));
#1131=IFCFACE((#747));
#1132=IFCFACE((#748));
#1133=IFCFACE((#749));
#1134=IFCFACE((#750));
#1135=IFCFACE((#751));
#1136=IFCFACE((#752));
#1137=IFCFACE((#753));
#1138=IFCFACE((#754));
#1139=IFCFACE((#755));
#1140=IFCFACE((#756));
#1141=IFCFACE((#757));
#1142=IFCFACE((#758));
#1143=IFCFACE((#759));
#1144=IFCFACE((#760));
#1145=IFCFACE((#761));
#1146=IFCFACE((#762));
#1147=IFCFACE((#763));
#1148=IFCFACE((#764));
#1149=IFCFACE((#765));
#1150=IFCFACE((#766));
#1151=IFCFACE((#767));
#1152=IFCFACE((#768));
#1153=IFCFACE((#769));
#1154=IFCFACE((#770));
#1155=IFCFACE((#771));
#1156=IFCFACE((#772));
#1157=IFCFACE((#773));
#1158=IFCFACE((#774));
#1159=IFCFACE((#775));
#1160=IFCFACE((#776));
#1161=IFCFACE((#777));
#1162=IFCFACE((#778));
#1163=IFCFACE((#779));
#1164=IFCFACE((#780));
#1165=IFCFACE((#781));
#1166=IFCFACE((#782));
#1167=IFCFACE((#783));
#1168=IFCFACE((#784));
#1169=IFCFACE((#785));
#1170=IFCFACE((#786));
#1171=IFCFACE((#787));
#1172=IFCFACE((#788));
#1173=IFCFACE((#789));
#1174=IFCFACE((#790));
#1175=IFCFACE((#791));
#1176=IFCFACE((#792));
#1177=IFCFACE((#793));
#1178=IFCCLOSEDSHELL((#794,#795,#796,#797,#798,#799,#800,#801,#802,#803,
#804,#805,#806,#807,#808,#809,#810,#811,#812,#813,#814,#815,#816,#817,#818,
#819,#820,#821,#822,#823,#824,#825,#826,#827,#828,#829,#830,#831,#832,#833,
#834,#835,#836,#837,#838,#839,#840,#841,#842,#843,#844,#845,#846,#847,#848,
#849,#850,#851,#852,#853,#854,#855,#856,#857,#858,#859,#860,#861,#862,#863,
#864,#865,#866,#867,#868,#869,#870,#871,#872,#873,#874,#875,#876,#877,#878,
#879,#880,#881,#882,#883,#884,#885,#886,#887,#888,#889,#890,#891,#892,#893,
#894,#895,#896,#897,#898,#899,#900,#901,#902,#903,#904,#905,#906,#907,#908,
#909,#910,#911,#912,#913,#914,#915,#916,#917,#918,#919,#920,#921,#922,#923,
#924,#925,#926,#927,#928,#929,#930,#931,#932,#933,#934,#935,#936,#937,#938,
#939,#940,#941,#942,#943,#944,#945,#946,#947,#948,#949,#950,#951,#952,#953,
#954,#955,#956,#957,#958,#959,#960,#961,#962,#963,#964,#965,#966,#967,#968,
#969,#970,#971,#972,#973,#974,#975,#976,#977,#978,#979,#980,#981,#982,#983,
#984,#985,#986,#987,#988,#989,#990,#991,#992,#993,#994,#995,#996,#997,#998,
#999,#1000,#1001,#1002,#1003,#1004,#1005,#1006,#1007,#1008,#1009,#1010,
#1011,#1012,#1013,#1014,#1015,#1016,#1017,#1018,#1019,#1020,#1021,#1022,
#1023,#1024,#1025,#1026,#1027,#1028,#1029,#1030,#1031,#1032,#1033,#1034,
#1035,#1036,#1037,#1038,#1039,#1040,#1041,#1042,#1043,#1044,#1045,#1046,
#1047,#1048,#1049,#1050,#1051,#1052,#1053,#1054,#1055,#1056,#1057,#1058,
#1059,#1060,#1061,#1062,#1063,#1064,#1065,#1066,#1067,#1068,#1069,#1070,
#1071,#1072,#1073,#1074,#1075,#1076,#1077,#1078,#1079,#1080,#1081,#1082,
#1083,#1084,#1085,#1086,#1087,#1088,#1089,#1090,#1091,#1092,#1093,#1094,
#1095,#1096,#1097,#1098,#1099,#1100,#1101,#1102,#1103,#1104,#1105,#1106,
#1107,#1108,#1109,#1110,#1111,#1112,#1113,#1114,#1115,#1116,#1117,#1118,
#1119,#1120,#1121,#1122,#1123,#1124,#1125,#1126,#1127,#1128,#1129,#1130,
#1131,#1132,#1133,#1134,#1135,#1136,#1137,#1138,#1139,#1140,#1141,#1142,
#1143,#1144,#1145,#1146,#1147,#1148,#1149,#1150,#1151,#1152,#1153,#1154,
#1155,#1156,#1157,#1158,#1159,#1160,#1161,#1162,#1163,#1164,#1165,#1166,
#1167,#1168,#1169,#1170,#1171,#1172,#1173,#1174,#1175,#1176,#1177));
#1179=IFCSTYLEDITEM(#1184,(#1180),'');
#1180=IFCPRESENTATIONSTYLEASSIGNMENT((#1181));
#1181=IFCSURFACESTYLE('',.BOTH.,(#1182));
#1182=IFCSURFACESTYLERENDERING(#1183,0.,$,$,$,$,$,$,.NOTDEFINED.);
#1183=IFCCOLOURRGB('',0.800000011920929,0.,0.);
#1184=IFCFACETEDBREP(#1178);
#1185=IFCPROJECT('07hUkdHgGydfWsFJH56q5B',#1526,'Red_4278957_JC',' ',
' ',' ',' ',(#1521),#1186);
#1186=IFCUNITASSIGNMENT((#1522,#1523,#1524,#1525));
#1187=IFCGEOMETRICREPRESENTATIONSUBCONTEXT('Body','Model',*,*,*,*,#1521,
1.,.MODEL_VIEW.,$);
#1188=IFCAXIS2PLACEMENT3D(#1194,#1190,#1191);
#1189=IFCAXIS2PLACEMENT3D(#1520,#1192,#1193);
#1190=IFCDIRECTION((0.,0.,1.));
#1191=IFCDIRECTION((1.,0.,0.));
#1192=IFCDIRECTION((0.,0.,1.));
#1193=IFCDIRECTION((1.,0.,0.));
#1194=IFCCARTESIANPOINT((0.,0.,0.));
#1195=IFCCARTESIANPOINT((2.,3.06146745892072,7.39103626009029));
#1196=IFCCARTESIANPOINT((2.,5.65685424949238,5.65685424949238));
#1197=IFCCARTESIANPOINT((2.,3.67695526217005,3.67695526217005));
#1198=IFCCARTESIANPOINT((2.,1.98995384829847,4.80417356905869));
#1199=IFCCARTESIANPOINT((2.,7.39103626009029,3.06146745892072));
#1200=IFCCARTESIANPOINT((2.,4.80417356905869,1.98995384829847));
#1201=IFCCARTESIANPOINT((2.,8.,-1.46957615897682E-15));
#1202=IFCCARTESIANPOINT((2.,7.39103626009029,-3.06146745892072));
#1203=IFCCARTESIANPOINT((2.,4.80417356905869,-1.98995384829847));
#1204=IFCCARTESIANPOINT((2.,5.2,-8.36223777831851E-16));
#1205=IFCCARTESIANPOINT((2.,-7.39103626009029,3.06146745892072));
#1206=IFCCARTESIANPOINT((2.,-5.65685424949238,5.65685424949238));
#1207=IFCCARTESIANPOINT((2.,-3.67695526217005,3.67695526217005));
#1208=IFCCARTESIANPOINT((2.,-4.80417356905869,1.98995384829847));
#1209=IFCCARTESIANPOINT((2.,3.06146745892072,-7.39103626009029));
#1210=IFCCARTESIANPOINT((2.,-9.79717439317883E-16,-8.));
#1211=IFCCARTESIANPOINT((2.,6.36816335556624E-16,-5.2));
#1212=IFCCARTESIANPOINT((2.,1.98995384829846,-4.80417356905869));
#1213=IFCCARTESIANPOINT((2.,-3.06146745892072,-7.39103626009029));
#1214=IFCCARTESIANPOINT((2.,-5.65685424949238,-5.65685424949238));
#1215=IFCCARTESIANPOINT((2.,-3.67695526217005,-3.67695526217005));
#1216=IFCCARTESIANPOINT((2.,-1.98995384829847,-4.80417356905869));
#1217=IFCCARTESIANPOINT((2.,-7.39103626009029,-3.06146745892072));
#1218=IFCCARTESIANPOINT((2.,-8.,4.89858719658941E-16));
#1219=IFCCARTESIANPOINT((2.,-5.2,-9.55224503334935E-16));
#1220=IFCCARTESIANPOINT((2.,-4.80417356905869,-1.98995384829847));
#1221=IFCCARTESIANPOINT((2.,-3.06146745892072,7.39103626009029));
#1222=IFCCARTESIANPOINT((2.,-1.98995384829847,4.80417356905869));
#1223=IFCCARTESIANPOINT((2.,5.65685424949238,-5.65685424949238));
#1224=IFCCARTESIANPOINT((2.,3.67695526217005,-3.67695526217005));
#1225=IFCCARTESIANPOINT((2.,0.,8.));
#1226=IFCCARTESIANPOINT((2.,0.,5.2));
#1227=IFCCARTESIANPOINT((3.6,3.06146745892072,7.39103626009029));
#1228=IFCCARTESIANPOINT((3.6,0.,8.));
#1229=IFCCARTESIANPOINT((3.6,5.65685424949238,5.65685424949238));
#1230=IFCCARTESIANPOINT((3.6,7.39103626009029,3.06146745892072));
#1231=IFCCARTESIANPOINT((3.6,8.,-1.46957615897682E-15));
#1232=IFCCARTESIANPOINT((3.6,7.39103626009029,-3.06146745892072));
#1233=IFCCARTESIANPOINT((3.6,5.65685424949238,-5.65685424949238));
#1234=IFCCARTESIANPOINT((3.6,3.06146745892072,-7.39103626009029));
#1235=IFCCARTESIANPOINT((3.6,-9.79717439317883E-16,-8.));
#1236=IFCCARTESIANPOINT((3.6,-3.06146745892072,-7.39103626009029));
#1237=IFCCARTESIANPOINT((3.6,-5.65685424949238,-5.65685424949238));
#1238=IFCCARTESIANPOINT((3.6,-7.39103626009029,-3.06146745892072));
#1239=IFCCARTESIANPOINT((3.6,-8.,4.89858719658941E-16));
#1240=IFCCARTESIANPOINT((3.6,-7.39103626009029,3.06146745892072));
#1241=IFCCARTESIANPOINT((3.6,-5.65685424949238,5.65685424949238));
#1242=IFCCARTESIANPOINT((3.6,-3.06146745892072,7.39103626009029));
#1243=IFCCARTESIANPOINT((3.6,3.67695526217005,-3.67695526217005));
#1244=IFCCARTESIANPOINT((3.6,1.98995384829847,-4.80417356905869));
#1245=IFCCARTESIANPOINT((3.6,6.,-0.8));
#1246=IFCCARTESIANPOINT((3.6,5.13809303146605,-0.799999999999999));
#1247=IFCCARTESIANPOINT((3.6,4.80417356905869,-1.98995384829847));
#1248=IFCCARTESIANPOINT((3.6,3.67695526217005,3.67695526217005));
#1249=IFCCARTESIANPOINT((3.6,4.80417356905869,1.98995384829847));
#1250=IFCCARTESIANPOINT((3.6,0.8,6.));
#1251=IFCCARTESIANPOINT((3.6,0.8,5.13809303146605));
#1252=IFCCARTESIANPOINT((3.6,1.98995384829847,4.80417356905869));
#1253=IFCCARTESIANPOINT((3.6,6.,0.8));
#1254=IFCCARTESIANPOINT((3.6,-0.8,6.));
#1255=IFCCARTESIANPOINT((3.6,-3.67695526217005,3.67695526217005));
#1256=IFCCARTESIANPOINT((3.6,-1.98995384829847,4.80417356905869));
#1257=IFCCARTESIANPOINT((3.6,-6.,0.8));
#1258=IFCCARTESIANPOINT((3.6,-5.13809303146605,0.8));
#1259=IFCCARTESIANPOINT((3.6,-4.80417356905869,1.98995384829847));
#1260=IFCCARTESIANPOINT((3.6,5.13809303146605,0.8));
#1261=IFCCARTESIANPOINT((3.6,-3.67695526217005,-3.67695526217005));
#1262=IFCCARTESIANPOINT((3.6,-4.80417356905869,-1.98995384829847));
#1263=IFCCARTESIANPOINT((3.6,-0.8,-6.));
#1264=IFCCARTESIANPOINT((3.6,-0.8,-5.13809303146605));
#1265=IFCCARTESIANPOINT((3.6,-1.98995384829846,-4.80417356905869));
#1266=IFCCARTESIANPOINT((3.6,-0.8,5.13809303146605));
#1267=IFCCARTESIANPOINT((3.6,-6.,-0.8));
#1268=IFCCARTESIANPOINT((3.6,0.8,-6.));
#1269=IFCCARTESIANPOINT((3.6,-5.13809303146605,-0.8));
#1270=IFCCARTESIANPOINT((3.6,0.8,-5.13809303146605));
#1271=IFCCARTESIANPOINT((7.2,0.4,-6.));
#1272=IFCCARTESIANPOINT((7.2,0.4,-5.18459255872629));
#1273=IFCCARTESIANPOINT((7.2,-0.4,-6.));
#1274=IFCCARTESIANPOINT((7.2,-6.36816335556624E-16,-5.2));
#1275=IFCCARTESIANPOINT((7.2,-0.4,-5.18459255872629));
#1276=IFCCARTESIANPOINT((7.2,-0.4,6.));
#1277=IFCCARTESIANPOINT((7.2,-0.4,5.18459255872629));
#1278=IFCCARTESIANPOINT((7.2,0.4,6.));
#1279=IFCCARTESIANPOINT((7.2,0.4,5.18459255872629));
#1280=IFCCARTESIANPOINT((7.2,1.27363267111325E-15,5.2));
#1281=IFCCARTESIANPOINT((7.2,6.,0.4));
#1282=IFCCARTESIANPOINT((7.2,5.18459255872629,0.4));
#1283=IFCCARTESIANPOINT((7.2,6.,-0.4));
#1284=IFCCARTESIANPOINT((7.2,5.18459255872629,-0.4));
#1285=IFCCARTESIANPOINT((7.2,5.2,-9.55224503334935E-16));
#1286=IFCCARTESIANPOINT((7.2,-6.,-0.4));
#1287=IFCCARTESIANPOINT((7.2,-5.18459255872629,-0.4));
#1288=IFCCARTESIANPOINT((7.2,-6.,0.4));
#1289=IFCCARTESIANPOINT((7.2,-5.2,3.18408167778312E-16));
#1290=IFCCARTESIANPOINT((7.2,-5.18459255872629,0.4));
#1291=IFCCARTESIANPOINT((8.,-5.2,3.18408167778312E-16));
#1292=IFCCARTESIANPOINT((8.,-4.80417356905869,1.98995384829847));
#1293=IFCCARTESIANPOINT((8.,-4.80417356905869,-1.98995384829847));
#1294=IFCCARTESIANPOINT((8.,-6.36816335556624E-16,-5.2));
#1295=IFCCARTESIANPOINT((8.,-1.98995384829846,-4.80417356905869));
#1296=IFCCARTESIANPOINT((8.,1.98995384829847,-4.80417356905869));
#1297=IFCCARTESIANPOINT((8.,5.2,-9.55224503334935E-16));
#1298=IFCCARTESIANPOINT((8.,4.80417356905869,-1.98995384829847));
#1299=IFCCARTESIANPOINT((8.,4.80417356905869,1.98995384829847));
#1300=IFCCARTESIANPOINT((8.,0.,5.2));
#1301=IFCCARTESIANPOINT((8.,1.98995384829847,4.80417356905869));
#1302=IFCCARTESIANPOINT((8.,-1.98995384829847,4.80417356905869));
#1303=IFCCARTESIANPOINT((8.,3.67695526217005,3.67695526217005));
#1304=IFCCARTESIANPOINT((8.,3.67695526217005,-3.67695526217005));
#1305=IFCCARTESIANPOINT((8.,-3.67695526217005,-3.67695526217005));
#1306=IFCCARTESIANPOINT((8.,-3.67695526217005,3.67695526217005));
#1307=IFCCARTESIANPOINT((8.,3.76249623636754,1.35780045342465));
#1308=IFCCARTESIANPOINT((7.99999999999999,3.99999999999998,-4.53243111811838E-15));
#1309=IFCCARTESIANPOINT((8.,1.35780045342466,3.76249623636753));
#1310=IFCCARTESIANPOINT((8.,1.89364465959654,2.40285088177294));
#1311=IFCCARTESIANPOINT((8.,2.40285088177283,1.89364465959658));
#1312=IFCCARTESIANPOINT((8.,-1.35780045342463,3.76249623636753));
#1313=IFCCARTESIANPOINT((7.99999999999999,-6.54067083543259E-15,4.));
#1314=IFCCARTESIANPOINT((8.,-3.76249623636751,-1.35780045342465));
#1315=IFCCARTESIANPOINT((8.,-4.00000000000002,4.89858719658941E-16));
#1316=IFCCARTESIANPOINT((8.,-3.76249623636751,1.35780045342465));
#1317=IFCCARTESIANPOINT((8.,-2.40285088177293,1.89364465959652));
#1318=IFCCARTESIANPOINT((8.,-1.89364465959651,2.40285088177294));
#1319=IFCCARTESIANPOINT((7.99999999999999,-3.96767459594997E-15,-4.));
#1320=IFCCARTESIANPOINT((8.,-1.35780045342464,-3.76249623636752));
#1321=IFCCARTESIANPOINT((8.,3.76249623636754,-1.35780045342465));
#1322=IFCCARTESIANPOINT((8.,2.40285088177296,-1.89364465959652));
#1323=IFCCARTESIANPOINT((8.,1.89364465959654,-2.40285088177294));
#1324=IFCCARTESIANPOINT((8.,1.35780045342467,-3.76249623636752));
#1325=IFCCARTESIANPOINT((8.,-1.89364465959651,-2.40285088177294));
#1326=IFCCARTESIANPOINT((8.,-2.40285088177293,-1.89364465959652));
#1327=IFCCARTESIANPOINT((-8.,2.40285088177283,1.89364465959658));
#1328=IFCCARTESIANPOINT((-8.,3.76249623636754,1.35780045342465));
#1329=IFCCARTESIANPOINT((-8.,4.00000000000002,-4.53243111811838E-15));
#1330=IFCCARTESIANPOINT((-8.,3.76249623636754,-1.35780045342465));
#1331=IFCCARTESIANPOINT((-8.,2.40285088177296,-1.89364465959652));
#1332=IFCCARTESIANPOINT((-8.,1.89364465959654,-2.40285088177294));
#1333=IFCCARTESIANPOINT((-8.,-1.89364465959651,-2.40285088177294));
#1334=IFCCARTESIANPOINT((-8.,-2.40285088177293,-1.89364465959652));
#1335=IFCCARTESIANPOINT((-8.,-3.76249623636751,-1.35780045342465));
#1336=IFCCARTESIANPOINT((-8.,-3.99999999999998,4.89858719658941E-16));
#1337=IFCCARTESIANPOINT((-8.,-3.76249623636751,1.35780045342465));
#1338=IFCCARTESIANPOINT((-8.,-2.40285088177293,1.89364465959652));
#1339=IFCCARTESIANPOINT((-8.,-1.89364465959651,2.40285088177294));
#1340=IFCCARTESIANPOINT((-8.,1.89364465959654,2.40285088177294));
#1341=IFCCARTESIANPOINT((-8.,1.98995384829847,4.80417356905869));
#1342=IFCCARTESIANPOINT((-8.,3.67695526217005,3.67695526217005));
#1343=IFCCARTESIANPOINT((-8.,4.80417356905869,1.98995384829847));
#1344=IFCCARTESIANPOINT((-8.,1.35780045342466,3.76249623636753));
#1345=IFCCARTESIANPOINT((-8.,5.2,-8.36223777831851E-16));
#1346=IFCCARTESIANPOINT((-8.,4.80417356905869,-1.98995384829847));
#1347=IFCCARTESIANPOINT((-8.,-5.2,-9.55224503334935E-16));
#1348=IFCCARTESIANPOINT((-8.,-4.80417356905869,1.98995384829847));
#1349=IFCCARTESIANPOINT((-8.,-3.67695526217005,3.67695526217005));
#1350=IFCCARTESIANPOINT((-8.,-1.98995384829847,4.80417356905869));
#1351=IFCCARTESIANPOINT((-8.,-1.35780045342463,3.76249623636753));
#1352=IFCCARTESIANPOINT((-8.,3.67695526217005,-3.67695526217005));
#1353=IFCCARTESIANPOINT((-8.,1.98995384829846,-4.80417356905869));
#1354=IFCCARTESIANPOINT((-8.,1.35780045342467,-3.76249623636752));
#1355=IFCCARTESIANPOINT((-8.,6.36816335556624E-16,-5.2));
#1356=IFCCARTESIANPOINT((-8.,-1.98995384829847,-4.80417356905869));
#1357=IFCCARTESIANPOINT((-8.,-1.35780045342464,-3.76249623636752));
#1358=IFCCARTESIANPOINT((-8.,1.67102537856578E-14,-4.));
#1359=IFCCARTESIANPOINT((-8.,0.,5.2));
#1360=IFCCARTESIANPOINT((-8.,1.41372575461752E-14,4.));
#1361=IFCCARTESIANPOINT((-8.,-4.80417356905869,-1.98995384829847));
#1362=IFCCARTESIANPOINT((-8.,-3.67695526217005,-3.67695526217005));
#1363=IFCCARTESIANPOINT((-1.6,1.6,-3.14794169869943));
#1364=IFCCARTESIANPOINT((-1.45582293882218,1.35780045342466,-3.76249623636752));
#1365=IFCCARTESIANPOINT((-1.6,1.39384471871912,-3.67103790332423));
#1366=IFCCARTESIANPOINT((-0.631201813698627,1.35780045342465,-3.76249623636752));
#1367=IFCCARTESIANPOINT((-1.6,1.6,-4.94772675074119));
#1368=IFCCARTESIANPOINT((-1.6,1.39384471871912,-5.00971026109283));
#1369=IFCCARTESIANPOINT((1.6,0.8,-5.13809303146607));
#1370=IFCCARTESIANPOINT((1.6,0.8,-3.91918358845309));
#1371=IFCCARTESIANPOINT((1.6,9.98783864277392E-15,-4.));
#1372=IFCCARTESIANPOINT((1.6,-0.799999999999999,-3.91918358845308));
#1373=IFCCARTESIANPOINT((-0.631201813698593,-1.35780045342465,-3.76249623636752));
#1374=IFCCARTESIANPOINT((1.6,6.36816335556624E-16,-5.2));
#1375=IFCCARTESIANPOINT((1.6,-0.799999999999999,-5.13809303146605));
#1376=IFCCARTESIANPOINT((-1.6,-1.6,-4.94772675074119));
#1377=IFCCARTESIANPOINT((-1.6,-1.6,-3.14794169869941));
#1378=IFCCARTESIANPOINT((-1.6,-1.40012970505107,-3.65509044626207));
#1379=IFCCARTESIANPOINT((-1.43068299349432,-1.35780045342465,-3.76249623636752));
#1380=IFCCARTESIANPOINT((-1.6,-1.40012970505107,-5.00795734896311));
#1381=IFCCARTESIANPOINT((0.400000000000011,-1.60635734016735E-15,-4.));
#1382=IFCCARTESIANPOINT((0.40000000000001,0.893844718719115,-3.89885132042989));
#1383=IFCCARTESIANPOINT((0.40000000000001,-0.900129705051069,-3.89740510007424));
#1384=IFCCARTESIANPOINT((0.399999999999956,-0.900129705051069,-3.48565151931238));
#1385=IFCCARTESIANPOINT((0.399999999999956,-0.00324483021869985,-3.59999853764927));
#1386=IFCCARTESIANPOINT((0.399999999999956,0.89384471871912,-3.48726850397527));
#1387=IFCCARTESIANPOINT((1.40000000000001,0.643844718719117,-5.15998681957401));
#1388=IFCCARTESIANPOINT((1.40000000000001,0.643844718719117,-3.54195764771087));
#1389=IFCCARTESIANPOINT((1.40000000000001,-0.650129705051069,-5.15919871361922));
#1390=IFCCARTESIANPOINT((1.40000000000001,-0.650129705051069,-3.54080942252054));
#1391=IFCCARTESIANPOINT((1.39999999999996,-0.00324483021869985,-3.59999853764927));
#1392=IFCCARTESIANPOINT((1.40000000000001,6.36816335556624E-16,-5.2));
#1393=IFCCARTESIANPOINT((1.6,-1.6,3.14794169869944));
#1394=IFCCARTESIANPOINT((1.6,-1.39384471871912,3.67103790332423));
#1395=IFCCARTESIANPOINT((0.631201813698613,-1.35780045342465,3.76249623636753));
#1396=IFCCARTESIANPOINT((1.45582293882217,-1.35780045342466,3.76249623636753));
#1397=IFCCARTESIANPOINT((1.6,-1.6,4.94772675074119));
#1398=IFCCARTESIANPOINT((1.6,-1.39384471871912,5.00971026109283));
#1399=IFCCARTESIANPOINT((-1.6,-0.8,3.91918358845308));
#1400=IFCCARTESIANPOINT((-1.6,-0.8,5.13809303146607));
#1401=IFCCARTESIANPOINT((-1.6,0.8,3.91918358845308));
#1402=IFCCARTESIANPOINT((0.631201813698579,1.35780045342465,3.76249623636753));
#1403=IFCCARTESIANPOINT((-1.6,1.81744307451292E-16,4.));
#1404=IFCCARTESIANPOINT((-1.6,-1.27363267111325E-15,5.2));
#1405=IFCCARTESIANPOINT((-1.6,0.8,5.13809303146605));
#1406=IFCCARTESIANPOINT((1.6,1.6,4.9477267507412));
#1407=IFCCARTESIANPOINT((1.6,1.6,3.1479416986994));
#1408=IFCCARTESIANPOINT((1.4306829934943,1.35780045342464,3.76249623636753));
#1409=IFCCARTESIANPOINT((1.6,1.40012970505106,3.65509044626209));
#1410=IFCCARTESIANPOINT((1.6,1.40012970505107,5.00795734896311));
#1411=IFCCARTESIANPOINT((-0.399999999999998,1.17759402903925E-14,4.));
#1412=IFCCARTESIANPOINT((-0.4,0.900129705051069,3.89740510007424));
#1413=IFCCARTESIANPOINT((-0.4,-0.893844718719118,3.8988513204299));
#1414=IFCCARTESIANPOINT((-0.399999999999956,-0.893844718719118,3.48726850397527));
#1415=IFCCARTESIANPOINT((-0.399999999999956,0.0032448302187042,3.59999853764927));
#1416=IFCCARTESIANPOINT((-0.399999999999956,0.900129705051071,3.48565151931238));
#1417=IFCCARTESIANPOINT((-1.4,-0.643844718719117,5.15998681957401));
#1418=IFCCARTESIANPOINT((-1.4,-0.643844718719117,3.54195764771088));
#1419=IFCCARTESIANPOINT((-1.4,0.650129705051069,5.15919871361922));
#1420=IFCCARTESIANPOINT((-1.4,0.650129705051069,3.54080942252053));
#1421=IFCCARTESIANPOINT((-1.39999999999996,0.0032448302187042,3.59999853764927));
#1422=IFCCARTESIANPOINT((-1.4,0.,5.2));
#1423=IFCCARTESIANPOINT((-2.,-1.98995384829847,-4.80417356905869));
#1424=IFCCARTESIANPOINT((-2.,6.36816335556624E-16,-5.2));
#1425=IFCCARTESIANPOINT((-2.,1.98995384829846,-4.80417356905869));
#1426=IFCCARTESIANPOINT((-2.,0.,5.2));
#1427=IFCCARTESIANPOINT((-2.,-1.98995384829847,4.80417356905869));
#1428=IFCCARTESIANPOINT((-2.,1.98995384829847,4.80417356905869));
#1429=IFCCARTESIANPOINT((-2.,-3.67695526217005,3.67695526217005));
#1430=IFCCARTESIANPOINT((-2.,-4.80417356905869,1.98995384829847));
#1431=IFCCARTESIANPOINT((-2.,-5.2,-9.55224503334935E-16));
#1432=IFCCARTESIANPOINT((-2.,-4.80417356905869,-1.98995384829847));
#1433=IFCCARTESIANPOINT((-2.,-3.67695526217005,-3.67695526217005));
#1434=IFCCARTESIANPOINT((-2.,3.67695526217005,-3.67695526217005));
#1435=IFCCARTESIANPOINT((-2.,4.80417356905869,-1.98995384829847));
#1436=IFCCARTESIANPOINT((-2.,5.2,-8.36223777831851E-16));
#1437=IFCCARTESIANPOINT((-2.,4.80417356905869,1.98995384829847));
#1438=IFCCARTESIANPOINT((-2.,3.67695526217005,3.67695526217005));
#1439=IFCCARTESIANPOINT((-2.,8.,-1.28649811974131E-15));
#1440=IFCCARTESIANPOINT((-2.,7.39103626009029,3.06146745892072));
#1441=IFCCARTESIANPOINT((-2.,7.39103626009029,-3.06146745892072));
#1442=IFCCARTESIANPOINT((-2.,5.65685424949238,5.65685424949238));
#1443=IFCCARTESIANPOINT((-2.,3.06146745892072,7.39103626009029));
#1444=IFCCARTESIANPOINT((-2.,0.,8.));
#1445=IFCCARTESIANPOINT((-2.,-3.06146745892072,7.39103626009029));
#1446=IFCCARTESIANPOINT((-2.,-5.65685424949238,5.65685424949238));
#1447=IFCCARTESIANPOINT((-2.,-7.39103626009029,3.06146745892072));
#1448=IFCCARTESIANPOINT((-2.,3.06146745892072,-7.39103626009029));
#1449=IFCCARTESIANPOINT((-2.,5.65685424949238,-5.65685424949238));
#1450=IFCCARTESIANPOINT((-2.,-8.,-1.46957615897682E-15));
#1451=IFCCARTESIANPOINT((-2.,-7.39103626009029,-3.06146745892072));
#1452=IFCCARTESIANPOINT((-2.,-5.65685424949238,-5.65685424949238));
#1453=IFCCARTESIANPOINT((-2.,-3.06146745892072,-7.39103626009029));
#1454=IFCCARTESIANPOINT((-2.,9.79717439317883E-16,-8.));
#1455=IFCCARTESIANPOINT((-3.6,-3.06146745892072,7.39103626009029));
#1456=IFCCARTESIANPOINT((-3.6,0.,8.));
#1457=IFCCARTESIANPOINT((-3.6,-5.65685424949238,5.65685424949238));
#1458=IFCCARTESIANPOINT((-3.6,-7.39103626009029,3.06146745892072));
#1459=IFCCARTESIANPOINT((-3.6,-8.,-1.46957615897682E-15));
#1460=IFCCARTESIANPOINT((-3.6,-7.39103626009029,-3.06146745892072));
#1461=IFCCARTESIANPOINT((-3.6,-5.65685424949238,-5.65685424949238));
#1462=IFCCARTESIANPOINT((-3.6,-3.06146745892072,-7.39103626009029));
#1463=IFCCARTESIANPOINT((-3.6,9.79717439317883E-16,-8.));
#1464=IFCCARTESIANPOINT((-3.6,3.06146745892072,-7.39103626009029));
#1465=IFCCARTESIANPOINT((-3.6,5.65685424949238,-5.65685424949238));
#1466=IFCCARTESIANPOINT((-3.6,7.39103626009029,-3.06146745892072));
#1467=IFCCARTESIANPOINT((-3.6,8.,-1.28649811974131E-15));
#1468=IFCCARTESIANPOINT((-3.6,7.39103626009029,3.06146745892072));
#1469=IFCCARTESIANPOINT((-3.6,5.65685424949238,5.65685424949238));
#1470=IFCCARTESIANPOINT((-3.6,3.06146745892072,7.39103626009029));
#1471=IFCCARTESIANPOINT((-3.6,3.67695526217005,3.67695526217005));
#1472=IFCCARTESIANPOINT((-3.6,1.98995384829847,4.80417356905869));
#1473=IFCCARTESIANPOINT((-3.6,6.,0.8));
#1474=IFCCARTESIANPOINT((-3.6,5.13809303146605,0.8));
#1475=IFCCARTESIANPOINT((-3.6,4.80417356905869,1.98995384829847));
#1476=IFCCARTESIANPOINT((-3.6,3.67695526217005,-3.67695526217005));
#1477=IFCCARTESIANPOINT((-3.6,4.80417356905869,-1.98995384829847));
#1478=IFCCARTESIANPOINT((-3.6,0.8,-6.));
#1479=IFCCARTESIANPOINT((-3.6,0.8,-5.13809303146605));
#1480=IFCCARTESIANPOINT((-3.6,1.98995384829846,-4.80417356905869));
#1481=IFCCARTESIANPOINT((-3.6,-3.67695526217005,-3.67695526217005));
#1482=IFCCARTESIANPOINT((-3.6,-1.98995384829847,-4.80417356905869));
#1483=IFCCARTESIANPOINT((-3.6,-6.,-0.8));
#1484=IFCCARTESIANPOINT((-3.6,-5.13809303146605,-0.8));
#1485=IFCCARTESIANPOINT((-3.6,-4.80417356905869,-1.98995384829847));
#1486=IFCCARTESIANPOINT((-3.6,6.,-0.8));
#1487=IFCCARTESIANPOINT((-3.6,-0.8,-6.));
#1488=IFCCARTESIANPOINT((-3.6,-3.67695526217005,3.67695526217005));
#1489=IFCCARTESIANPOINT((-3.6,-4.80417356905869,1.98995384829847));
#1490=IFCCARTESIANPOINT((-3.6,-0.8,6.));
#1491=IFCCARTESIANPOINT((-3.6,-0.8,5.13809303146605));
#1492=IFCCARTESIANPOINT((-3.6,-1.98995384829847,4.80417356905869));
#1493=IFCCARTESIANPOINT((-3.6,5.13809303146605,-0.799999999999999));
#1494=IFCCARTESIANPOINT((-3.6,-6.,0.8));
#1495=IFCCARTESIANPOINT((-3.6,-0.8,-5.13809303146605));
#1496=IFCCARTESIANPOINT((-3.6,0.8,6.));
#1497=IFCCARTESIANPOINT((-3.6,-5.13809303146605,0.8));
#1498=IFCCARTESIANPOINT((-3.6,0.8,5.13809303146605));
#1499=IFCCARTESIANPOINT((-7.2,-6.,0.4));
#1500=IFCCARTESIANPOINT((-7.2,-6.,-0.4));
#1501=IFCCARTESIANPOINT((-7.2,-5.18459255872629,0.4));
#1502=IFCCARTESIANPOINT((-7.2,-5.18459255872629,-0.4));
#1503=IFCCARTESIANPOINT((-7.2,-5.2,-9.55224503334935E-16));
#1504=IFCCARTESIANPOINT((-7.2,5.18459255872629,0.4));
#1505=IFCCARTESIANPOINT((-7.2,6.,0.4));
#1506=IFCCARTESIANPOINT((-7.2,5.18459255872629,-0.4));
#1507=IFCCARTESIANPOINT((-7.2,6.,-0.4));
#1508=IFCCARTESIANPOINT((-7.2,5.2,-8.36223777831851E-16));
#1509=IFCCARTESIANPOINT((-7.2,0.4,6.));
#1510=IFCCARTESIANPOINT((-7.2,-0.4,6.));
#1511=IFCCARTESIANPOINT((-7.2,0.4,5.18459255872629));
#1512=IFCCARTESIANPOINT((-7.2,0.,5.2));
#1513=IFCCARTESIANPOINT((-7.2,-0.4,5.18459255872629));
#1514=IFCCARTESIANPOINT((-7.2,0.4,-5.18459255872629));
#1515=IFCCARTESIANPOINT((-7.2,-0.4,-5.18459255872629));
#1516=IFCCARTESIANPOINT((-7.2,6.36816335556624E-16,-5.2));
#1517=IFCCARTESIANPOINT((-7.2,0.4,-6.));
#1518=IFCCARTESIANPOINT((-7.2,-0.4,-6.));
#1519=IFCCARTESIANPOINT((0.,0.,0.));
#1520=IFCCARTESIANPOINT((0.,0.,0.));
#1521=IFCGEOMETRICREPRESENTATIONCONTEXT($,'Model',3,0.005,#1188,$);
#1522=IFCSIUNIT(*,.LENGTHUNIT.,.MILLI.,.METRE.);
#1523=IFCSIUNIT(*,.AREAUNIT.,$,.SQUARE_METRE.);
#1524=IFCSIUNIT(*,.VOLUMEUNIT.,$,.CUBIC_METRE.);
#1525=IFCSIUNIT(*,.PLANEANGLEUNIT.,$,.RADIAN.);
#1526=IFCOWNERHISTORY(#1528,#1527,$,.NOCHANGE.,0,$,$,0);
#1527=IFCAPPLICATION(#1529,' ',' ',' ');
#1528=IFCPERSONANDORGANIZATION(#1530,#1529,$);
#1529=IFCORGANIZATION($,' ',$,$,$);
#1530=IFCPERSON(' ',' ',' ',$,$,$,$,$);
ENDSEC;
END-ISO-10303-21;
