ISO-10303-21;
HEADER;
/* Generated by software containing ST-Developer
 * from STEP Tools, Inc. (www.steptools.com) 
 */
/* OPTION: strings as raw bytes, not using required /X/ escapes */

FILE_DESCRIPTION(
/* description */ ('Unknown'),
/* implementation_level */ '2;1');

FILE_NAME(
/* name */ 'Sand_4207456_AVV',
/* time_stamp */ '2025-07-22T00:04:03+02:00',
/* author */ ('Unknown'),
/* organization */ ('Unknown'),
/* preprocessor_version */ 'ST-DEVELOPER v19.4',
/* originating_system */ 'Unknown',
/* authorisation */ 'OpenTools');

FILE_SCHEMA (('IFC2X3'));
ENDSEC;

DATA;
#10=IFCPROPERTYSINGLEVALUE('ProjectName',$,IFCTEXT(''),$);
#11=IFCPROPERTYSINGLEVALUE('PartNumber',$,IFCTEXT(''),$);
#12=IFCRELDEFINESBYPROPERTIES('3cRq1JQpSwDOm5lsE5cG83',#1630,$,$,(#14),
#13);
#13=IFCPROPERTYSET('1jOd4kXgWorA4TVRi95rqH',#1630,
'empty property set name',$,(#10,#11));
#14=IFCBUILDINGELEMENTPROXY('2GP_XOK7Wq1Pa1NGQTVWHM',#1630,
'Sand_4207456_AVV',' ','Sand_4207456_AVV',#19,#15,' ',.ELEMENT.);
#15=IFCPRODUCTDEFINITIONSHAPE(' ',' ',(#25));
#16=IFCRELCONTAINEDINSPATIALSTRUCTURE('3HZhfx2I0vj9Cvp1GHER_f',#1630,
' ',' ',(#14),#20);
#17=IFCRELAGGREGATES('1jF0XzMGqvEA6wZwPLSawz',#1630,$,$,#1293,(#20));
#18=IFCLOCALPLACEMENT($,#1296);
#19=IFCLOCALPLACEMENT(#18,#1297);
#20=IFCBUILDING('3G2N19bOG__grq1LV0cQPU',#1630,'Default Building',$,$,#18,
$,$,.ELEMENT.,0.,0.,$);
#21=IFCCARTESIANTRANSFORMATIONOPERATOR3D($,$,#1623,1.,$);
#22=IFCMAPPEDITEM(#23,#21);
#23=IFCREPRESENTATIONMAP(#1296,#24);
#24=IFCSHAPEREPRESENTATION(#1295,'Body','Brep',(#1292));
#25=IFCSHAPEREPRESENTATION(#1295,'Body','MappedRepresentation',(#22));
#26=IFCPOLYLOOP((#1303,#1304,#1305,#1306));
#27=IFCPOLYLOOP((#1307,#1308,#1304,#1303));
#28=IFCPOLYLOOP((#1309,#1310,#1308,#1307));
#29=IFCPOLYLOOP((#1311,#1312,#1310,#1309));
#30=IFCPOLYLOOP((#1313,#1314,#1312,#1311));
#31=IFCPOLYLOOP((#1315,#1316,#1314,#1313));
#32=IFCPOLYLOOP((#1317,#1318,#1316,#1315));
#33=IFCPOLYLOOP((#1319,#1320,#1318,#1317));
#34=IFCPOLYLOOP((#1321,#1322,#1320,#1319));
#35=IFCPOLYLOOP((#1323,#1324,#1322,#1321));
#36=IFCPOLYLOOP((#1324,#1323,#1325,#1326));
#37=IFCPOLYLOOP((#1327,#1328,#1326,#1325));
#38=IFCPOLYLOOP((#1329,#1330,#1328,#1327));
#39=IFCPOLYLOOP((#1331,#1332,#1330,#1329));
#40=IFCPOLYLOOP((#1333,#1334,#1332,#1331));
#41=IFCPOLYLOOP((#1335,#1336,#1334,#1333));
#42=IFCPOLYLOOP((#1337,#1338,#1336,#1335));
#43=IFCPOLYLOOP((#1339,#1340,#1338,#1337));
#44=IFCPOLYLOOP((#1341,#1342,#1340,#1339));
#45=IFCPOLYLOOP((#1343,#1344,#1342,#1341));
#46=IFCPOLYLOOP((#1345,#1346,#1344,#1343));
#47=IFCPOLYLOOP((#1347,#1348,#1346,#1345));
#48=IFCPOLYLOOP((#1349,#1350,#1348,#1347));
#49=IFCPOLYLOOP((#1351,#1352,#1350,#1349));
#50=IFCPOLYLOOP((#1353,#1354,#1352,#1351));
#51=IFCPOLYLOOP((#1355,#1356,#1354,#1353));
#52=IFCPOLYLOOP((#1356,#1355,#1357,#1358));
#53=IFCPOLYLOOP((#1359,#1360,#1358,#1357));
#54=IFCPOLYLOOP((#1361,#1362,#1360,#1359));
#55=IFCPOLYLOOP((#1363,#1364,#1362,#1361));
#56=IFCPOLYLOOP((#1365,#1366,#1364,#1363));
#57=IFCPOLYLOOP((#1367,#1368,#1366,#1365));
#58=IFCPOLYLOOP((#1369,#1370,#1368,#1367));
#59=IFCPOLYLOOP((#1371,#1372,#1370,#1369));
#60=IFCPOLYLOOP((#1373,#1374,#1372,#1371));
#61=IFCPOLYLOOP((#1375,#1376,#1374,#1373));
#62=IFCPOLYLOOP((#1377,#1378,#1376,#1375));
#63=IFCPOLYLOOP((#1379,#1380,#1378,#1377));
#64=IFCPOLYLOOP((#1381,#1382,#1380,#1379));
#65=IFCPOLYLOOP((#1383,#1384,#1382,#1381));
#66=IFCPOLYLOOP((#1385,#1386,#1384,#1383));
#67=IFCPOLYLOOP((#1387,#1388,#1386,#1385));
#68=IFCPOLYLOOP((#1388,#1387,#1389,#1390));
#69=IFCPOLYLOOP((#1391,#1392,#1390,#1389));
#70=IFCPOLYLOOP((#1393,#1394,#1392,#1391));
#71=IFCPOLYLOOP((#1395,#1396,#1394,#1393));
#72=IFCPOLYLOOP((#1397,#1398,#1396,#1395));
#73=IFCPOLYLOOP((#1399,#1400,#1398,#1397));
#74=IFCPOLYLOOP((#1401,#1402,#1400,#1399));
#75=IFCPOLYLOOP((#1403,#1404,#1402,#1401));
#76=IFCPOLYLOOP((#1405,#1406,#1404,#1403));
#77=IFCPOLYLOOP((#1407,#1408,#1406,#1405));
#78=IFCPOLYLOOP((#1306,#1305,#1409,#1410));
#79=IFCPOLYLOOP((#1411,#1412,#1413,#1414));
#80=IFCPOLYLOOP((#1415,#1416,#1412,#1411));
#81=IFCPOLYLOOP((#1417,#1418,#1416,#1415));
#82=IFCPOLYLOOP((#1410,#1409,#1418,#1417));
#83=IFCPOLYLOOP((#1419,#1420,#1414,#1413));
#84=IFCPOLYLOOP((#1421,#1422,#1423,#1424));
#85=IFCPOLYLOOP((#1425,#1426,#1422,#1421));
#86=IFCPOLYLOOP((#1427,#1428,#1426,#1425));
#87=IFCPOLYLOOP((#1420,#1419,#1428,#1427));
#88=IFCPOLYLOOP((#1429,#1430,#1408,#1407));
#89=IFCPOLYLOOP((#1424,#1423,#1430,#1429));
#90=IFCPOLYLOOP((#1431,#1414,#1420));
#91=IFCPOLYLOOP((#1432,#1325,#1323));
#92=IFCPOLYLOOP((#1433,#1303,#1306));
#93=IFCPOLYLOOP((#1420,#1427,#1431));
#94=IFCPOLYLOOP((#1434,#1399,#1397,#1395,#1393,#1391,#1389,#1387));
#95=IFCPOLYLOOP((#1435,#1357,#1355));
#96=IFCPOLYLOOP((#1436,#1337,#1335));
#97=IFCPOLYLOOP((#1436,#1341,#1339));
#98=IFCPOLYLOOP((#1323,#1321,#1432));
#99=IFCPOLYLOOP((#1433,#1307,#1303));
#100=IFCPOLYLOOP((#1433,#1311,#1309));
#101=IFCPOLYLOOP((#1427,#1425,#1437,#1431));
#102=IFCPOLYLOOP((#1434,#1401,#1399));
#103=IFCPOLYLOOP((#1355,#1353,#1435));
#104=IFCPOLYLOOP((#1339,#1337,#1436));
#105=IFCPOLYLOOP((#1321,#1319,#1438,#1432));
#106=IFCPOLYLOOP((#1309,#1307,#1433));
#107=IFCPOLYLOOP((#1439,#1437,#1424,#1429));
#108=IFCPOLYLOOP((#1425,#1421,#1437));
#109=IFCPOLYLOOP((#1387,#1385,#1434));
#110=IFCPOLYLOOP((#1353,#1351,#1440,#1435));
#111=IFCPOLYLOOP((#1436,#1343,#1341));
#112=IFCPOLYLOOP((#1441,#1438,#1315,#1313));
#113=IFCPOLYLOOP((#1319,#1317,#1438));
#114=IFCPOLYLOOP((#1433,#1313,#1311));
#115=IFCPOLYLOOP((#1421,#1424,#1437));
#116=IFCPOLYLOOP((#1434,#1403,#1401));
#117=IFCPOLYLOOP((#1442,#1440,#1347,#1345));
#118=IFCPOLYLOOP((#1351,#1349,#1440));
#119=IFCPOLYLOOP((#1436,#1345,#1343));
#120=IFCPOLYLOOP((#1317,#1315,#1438));
#121=IFCPOLYLOOP((#1429,#1443,#1444,#1445,#1439));
#122=IFCPOLYLOOP((#1443,#1429,#1407));
#123=IFCPOLYLOOP((#1385,#1383,#1446,#1434));
#124=IFCPOLYLOOP((#1434,#1407,#1405));
#125=IFCPOLYLOOP((#1447,#1369,#1367));
#126=IFCPOLYLOOP((#1448,#1373,#1371));
#127=IFCPOLYLOOP((#1349,#1347,#1440));
#128=IFCPOLYLOOP((#1313,#1433,#1449,#1450,#1441));
#129=IFCPOLYLOOP((#1407,#1434,#1443));
#130=IFCPOLYLOOP((#1405,#1403,#1434));
#131=IFCPOLYLOOP((#1371,#1369,#1447,#1448));
#132=IFCPOLYLOOP((#1345,#1436,#1451,#1452,#1442));
#133=IFCPOLYLOOP((#1306,#1410,#1417,#1415,#1411,#1414,#1431,#1433));
#134=IFCPOLYLOOP((#1383,#1381,#1446));
#135=IFCPOLYLOOP((#1448,#1375,#1373));
#136=IFCPOLYLOOP((#1335,#1333,#1331,#1329,#1327,#1325,#1432,#1436));
#137=IFCPOLYLOOP((#1381,#1379,#1446));
#138=IFCPOLYLOOP((#1448,#1453,#1454,#1377,#1375));
#139=IFCPOLYLOOP((#1379,#1377,#1454,#1446));
#140=IFCPOLYLOOP((#1435,#1447,#1365,#1363,#1361,#1359,#1357));
#141=IFCPOLYLOOP((#1367,#1365,#1447));
#142=IFCPOLYLOOP((#1432,#1455,#1456,#1436));
#143=IFCPOLYLOOP((#1435,#1457,#1458,#1447));
#144=IFCPOLYLOOP((#1434,#1459,#1460,#1443));
#145=IFCPOLYLOOP((#1431,#1461,#1462,#1433));
#146=IFCPOLYLOOP((#1442,#1463,#1464,#1440));
#147=IFCPOLYLOOP((#1452,#1465,#1463,#1442));
#148=IFCPOLYLOOP((#1451,#1466,#1465,#1452));
#149=IFCPOLYLOOP((#1454,#1467,#1468,#1446));
#150=IFCPOLYLOOP((#1453,#1469,#1467,#1454));
#151=IFCPOLYLOOP((#1448,#1470,#1469,#1453));
#152=IFCPOLYLOOP((#1439,#1471,#1472,#1437));
#153=IFCPOLYLOOP((#1445,#1473,#1471,#1439));
#154=IFCPOLYLOOP((#1444,#1474,#1473,#1445));
#155=IFCPOLYLOOP((#1441,#1475,#1476,#1438));
#156=IFCPOLYLOOP((#1450,#1477,#1475,#1441));
#157=IFCPOLYLOOP((#1449,#1478,#1477,#1450));
#158=IFCPOLYLOOP((#1477,#1478,#1479));
#159=IFCPOLYLOOP((#1475,#1480,#1481));
#160=IFCPOLYLOOP((#1481,#1476,#1475));
#161=IFCPOLYLOOP((#1479,#1482,#1477));
#162=IFCPOLYLOOP((#1482,#1480,#1475,#1477));
#163=IFCPOLYLOOP((#1469,#1470,#1483));
#164=IFCPOLYLOOP((#1467,#1484,#1485));
#165=IFCPOLYLOOP((#1485,#1468,#1467));
#166=IFCPOLYLOOP((#1483,#1486,#1469));
#167=IFCPOLYLOOP((#1486,#1484,#1467,#1469));
#168=IFCPOLYLOOP((#1463,#1487,#1488));
#169=IFCPOLYLOOP((#1465,#1466,#1489));
#170=IFCPOLYLOOP((#1489,#1490,#1465));
#171=IFCPOLYLOOP((#1488,#1464,#1463));
#172=IFCPOLYLOOP((#1490,#1487,#1463,#1465));
#173=IFCPOLYLOOP((#1471,#1491,#1492));
#174=IFCPOLYLOOP((#1473,#1474,#1493));
#175=IFCPOLYLOOP((#1493,#1494,#1473));
#176=IFCPOLYLOOP((#1492,#1472,#1471));
#177=IFCPOLYLOOP((#1494,#1491,#1471,#1473));
#178=IFCPOLYLOOP((#1495,#1482,#1479));
#179=IFCPOLYLOOP((#1496,#1497,#1481));
#180=IFCPOLYLOOP((#1481,#1480,#1496));
#181=IFCPOLYLOOP((#1479,#1498,#1495));
#182=IFCPOLYLOOP((#1480,#1482,#1495,#1496));
#183=IFCPOLYLOOP((#1496,#1499,#1500,#1497));
#184=IFCPOLYLOOP((#1495,#1501,#1499,#1496));
#185=IFCPOLYLOOP((#1498,#1502,#1501,#1495));
#186=IFCPOLYLOOP((#1501,#1502,#1503));
#187=IFCPOLYLOOP((#1499,#1504,#1505));
#188=IFCPOLYLOOP((#1505,#1500,#1499));
#189=IFCPOLYLOOP((#1503,#1506,#1501));
#190=IFCPOLYLOOP((#1506,#1504,#1499,#1501));
#191=IFCPOLYLOOP((#1507,#1506,#1503));
#192=IFCPOLYLOOP((#1508,#1509,#1505));
#193=IFCPOLYLOOP((#1505,#1504,#1508));
#194=IFCPOLYLOOP((#1503,#1510,#1507));
#195=IFCPOLYLOOP((#1504,#1506,#1507,#1508));
#196=IFCPOLYLOOP((#1508,#1511,#1512,#1509));
#197=IFCPOLYLOOP((#1507,#1513,#1511,#1508));
#198=IFCPOLYLOOP((#1510,#1514,#1513,#1507));
#199=IFCPOLYLOOP((#1513,#1514,#1515));
#200=IFCPOLYLOOP((#1511,#1516,#1517));
#201=IFCPOLYLOOP((#1517,#1512,#1511));
#202=IFCPOLYLOOP((#1515,#1518,#1513));
#203=IFCPOLYLOOP((#1518,#1516,#1511,#1513));
#204=IFCPOLYLOOP((#1432,#1476,#1497));
#205=IFCPOLYLOOP((#1432,#1438,#1476));
#206=IFCPOLYLOOP((#1432,#1509,#1512));
#207=IFCPOLYLOOP((#1497,#1500,#1432));
#208=IFCPOLYLOOP((#1512,#1519,#1432));
#209=IFCPOLYLOOP((#1500,#1509,#1432));
#210=IFCPOLYLOOP((#1500,#1505,#1509));
#211=IFCPOLYLOOP((#1512,#1517,#1519));
#212=IFCPOLYLOOP((#1476,#1481,#1497));
#213=IFCPOLYLOOP((#1519,#1520,#1455,#1432));
#214=IFCPOLYLOOP((#1433,#1502,#1498));
#215=IFCPOLYLOOP((#1433,#1510,#1502));
#216=IFCPOLYLOOP((#1498,#1478,#1433));
#217=IFCPOLYLOOP((#1433,#1521,#1514));
#218=IFCPOLYLOOP((#1510,#1503,#1502));
#219=IFCPOLYLOOP((#1521,#1515,#1514));
#220=IFCPOLYLOOP((#1514,#1510,#1433));
#221=IFCPOLYLOOP((#1498,#1479,#1478));
#222=IFCPOLYLOOP((#1433,#1462,#1522,#1521));
#223=IFCPOLYLOOP((#1478,#1449,#1433));
#224=IFCPOLYLOOP((#1523,#1524,#1520,#1519));
#225=IFCPOLYLOOP((#1525,#1526,#1524,#1523));
#226=IFCPOLYLOOP((#1521,#1522,#1526,#1525));
#227=IFCPOLYLOOP((#1525,#1518,#1515));
#228=IFCPOLYLOOP((#1523,#1519,#1517));
#229=IFCPOLYLOOP((#1517,#1516,#1523));
#230=IFCPOLYLOOP((#1515,#1521,#1525));
#231=IFCPOLYLOOP((#1516,#1518,#1525,#1523));
#232=IFCPOLYLOOP((#1527,#1486,#1483));
#233=IFCPOLYLOOP((#1528,#1529,#1485));
#234=IFCPOLYLOOP((#1485,#1484,#1528));
#235=IFCPOLYLOOP((#1483,#1530,#1527));
#236=IFCPOLYLOOP((#1484,#1486,#1527,#1528));
#237=IFCPOLYLOOP((#1528,#1531,#1532,#1529));
#238=IFCPOLYLOOP((#1527,#1533,#1531,#1528));
#239=IFCPOLYLOOP((#1530,#1534,#1533,#1527));
#240=IFCPOLYLOOP((#1533,#1534,#1535));
#241=IFCPOLYLOOP((#1531,#1536,#1537));
#242=IFCPOLYLOOP((#1537,#1532,#1531));
#243=IFCPOLYLOOP((#1535,#1538,#1533));
#244=IFCPOLYLOOP((#1538,#1536,#1531,#1533));
#245=IFCPOLYLOOP((#1539,#1538,#1535));
#246=IFCPOLYLOOP((#1540,#1541,#1537));
#247=IFCPOLYLOOP((#1537,#1536,#1540));
#248=IFCPOLYLOOP((#1535,#1542,#1539));
#249=IFCPOLYLOOP((#1536,#1538,#1539,#1540));
#250=IFCPOLYLOOP((#1540,#1543,#1544,#1541));
#251=IFCPOLYLOOP((#1539,#1545,#1543,#1540));
#252=IFCPOLYLOOP((#1542,#1546,#1545,#1539));
#253=IFCPOLYLOOP((#1545,#1546,#1547));
#254=IFCPOLYLOOP((#1543,#1548,#1549));
#255=IFCPOLYLOOP((#1549,#1544,#1543));
#256=IFCPOLYLOOP((#1547,#1550,#1545));
#257=IFCPOLYLOOP((#1550,#1548,#1543,#1545));
#258=IFCPOLYLOOP((#1447,#1534,#1530));
#259=IFCPOLYLOOP((#1530,#1470,#1447));
#260=IFCPOLYLOOP((#1447,#1542,#1534));
#261=IFCPOLYLOOP((#1447,#1551,#1546));
#262=IFCPOLYLOOP((#1542,#1535,#1534));
#263=IFCPOLYLOOP((#1551,#1547,#1546));
#264=IFCPOLYLOOP((#1546,#1542,#1447));
#265=IFCPOLYLOOP((#1530,#1483,#1470));
#266=IFCPOLYLOOP((#1447,#1458,#1552,#1551));
#267=IFCPOLYLOOP((#1470,#1448,#1447));
#268=IFCPOLYLOOP((#1434,#1529,#1532));
#269=IFCPOLYLOOP((#1434,#1468,#1529));
#270=IFCPOLYLOOP((#1434,#1541,#1544));
#271=IFCPOLYLOOP((#1434,#1446,#1468));
#272=IFCPOLYLOOP((#1544,#1553,#1434));
#273=IFCPOLYLOOP((#1532,#1541,#1434));
#274=IFCPOLYLOOP((#1532,#1537,#1541));
#275=IFCPOLYLOOP((#1544,#1549,#1553));
#276=IFCPOLYLOOP((#1468,#1485,#1529));
#277=IFCPOLYLOOP((#1553,#1554,#1459,#1434));
#278=IFCPOLYLOOP((#1555,#1556,#1554,#1553));
#279=IFCPOLYLOOP((#1557,#1558,#1556,#1555));
#280=IFCPOLYLOOP((#1551,#1552,#1558,#1557));
#281=IFCPOLYLOOP((#1557,#1550,#1547));
#282=IFCPOLYLOOP((#1555,#1553,#1549));
#283=IFCPOLYLOOP((#1549,#1548,#1555));
#284=IFCPOLYLOOP((#1547,#1551,#1557));
#285=IFCPOLYLOOP((#1548,#1550,#1557,#1555));
#286=IFCPOLYLOOP((#1559,#1560,#1488));
#287=IFCPOLYLOOP((#1561,#1490,#1489));
#288=IFCPOLYLOOP((#1489,#1562,#1561));
#289=IFCPOLYLOOP((#1488,#1487,#1559));
#290=IFCPOLYLOOP((#1487,#1490,#1561,#1559));
#291=IFCPOLYLOOP((#1559,#1563,#1564,#1560));
#292=IFCPOLYLOOP((#1561,#1565,#1563,#1559));
#293=IFCPOLYLOOP((#1562,#1566,#1565,#1561));
#294=IFCPOLYLOOP((#1563,#1567,#1568));
#295=IFCPOLYLOOP((#1565,#1566,#1569));
#296=IFCPOLYLOOP((#1569,#1570,#1565));
#297=IFCPOLYLOOP((#1568,#1564,#1563));
#298=IFCPOLYLOOP((#1570,#1567,#1563,#1565));
#299=IFCPOLYLOOP((#1571,#1572,#1568));
#300=IFCPOLYLOOP((#1573,#1570,#1569));
#301=IFCPOLYLOOP((#1569,#1574,#1573));
#302=IFCPOLYLOOP((#1568,#1567,#1571));
#303=IFCPOLYLOOP((#1567,#1570,#1573,#1571));
#304=IFCPOLYLOOP((#1571,#1575,#1576,#1572));
#305=IFCPOLYLOOP((#1573,#1577,#1575,#1571));
#306=IFCPOLYLOOP((#1574,#1578,#1577,#1573));
#307=IFCPOLYLOOP((#1575,#1579,#1580));
#308=IFCPOLYLOOP((#1577,#1578,#1581));
#309=IFCPOLYLOOP((#1581,#1582,#1577));
#310=IFCPOLYLOOP((#1580,#1576,#1575));
#311=IFCPOLYLOOP((#1582,#1579,#1575,#1577));
#312=IFCPOLYLOOP((#1436,#1562,#1466));
#313=IFCPOLYLOOP((#1436,#1574,#1566));
#314=IFCPOLYLOOP((#1566,#1562,#1436));
#315=IFCPOLYLOOP((#1436,#1583,#1578));
#316=IFCPOLYLOOP((#1574,#1569,#1566));
#317=IFCPOLYLOOP((#1583,#1581,#1578));
#318=IFCPOLYLOOP((#1578,#1574,#1436));
#319=IFCPOLYLOOP((#1562,#1489,#1466));
#320=IFCPOLYLOOP((#1436,#1456,#1584,#1583));
#321=IFCPOLYLOOP((#1466,#1451,#1436));
#322=IFCPOLYLOOP((#1435,#1464,#1560));
#323=IFCPOLYLOOP((#1560,#1564,#1435));
#324=IFCPOLYLOOP((#1435,#1572,#1576));
#325=IFCPOLYLOOP((#1435,#1440,#1464));
#326=IFCPOLYLOOP((#1576,#1585,#1435));
#327=IFCPOLYLOOP((#1564,#1572,#1435));
#328=IFCPOLYLOOP((#1564,#1568,#1572));
#329=IFCPOLYLOOP((#1576,#1580,#1585));
#330=IFCPOLYLOOP((#1464,#1488,#1560));
#331=IFCPOLYLOOP((#1585,#1586,#1457,#1435));
#332=IFCPOLYLOOP((#1587,#1588,#1586,#1585));
#333=IFCPOLYLOOP((#1589,#1590,#1588,#1587));
#334=IFCPOLYLOOP((#1583,#1584,#1590,#1589));
#335=IFCPOLYLOOP((#1587,#1585,#1580));
#336=IFCPOLYLOOP((#1589,#1582,#1581));
#337=IFCPOLYLOOP((#1581,#1583,#1589));
#338=IFCPOLYLOOP((#1580,#1579,#1587));
#339=IFCPOLYLOOP((#1579,#1582,#1589,#1587));
#340=IFCPOLYLOOP((#1459,#1386,#1388));
#341=IFCPOLYLOOP((#1460,#1398,#1400));
#342=IFCPOLYLOOP((#1584,#1340,#1342));
#343=IFCPOLYLOOP((#1552,#1372,#1374));
#344=IFCPOLYLOOP((#1459,#1384,#1386));
#345=IFCPOLYLOOP((#1459,#1380,#1382));
#346=IFCPOLYLOOP((#1591,#1404,#1406));
#347=IFCPOLYLOOP((#1400,#1402,#1460));
#348=IFCPOLYLOOP((#1455,#1322,#1324));
#349=IFCPOLYLOOP((#1584,#1456,#1338,#1340));
#350=IFCPOLYLOOP((#1456,#1334,#1336));
#351=IFCPOLYLOOP((#1457,#1354,#1356));
#352=IFCPOLYLOOP((#1552,#1458,#1370,#1372));
#353=IFCPOLYLOOP((#1458,#1360,#1362,#1364,#1366,#1368));
#354=IFCPOLYLOOP((#1382,#1384,#1459));
#355=IFCPOLYLOOP((#1592,#1591,#1408,#1430));
#356=IFCPOLYLOOP((#1402,#1404,#1591,#1460));
#357=IFCPOLYLOOP((#1461,#1428,#1419));
#358=IFCPOLYLOOP((#1462,#1409,#1305));
#359=IFCPOLYLOOP((#1455,#1520,#1320,#1322));
#360=IFCPOLYLOOP((#1520,#1316,#1318));
#361=IFCPOLYLOOP((#1590,#1584,#1344,#1346));
#362=IFCPOLYLOOP((#1336,#1338,#1456));
#363=IFCPOLYLOOP((#1457,#1352,#1354));
#364=IFCPOLYLOOP((#1558,#1552,#1376,#1378));
#365=IFCPOLYLOOP((#1368,#1370,#1458));
#366=IFCPOLYLOOP((#1459,#1378,#1380));
#367=IFCPOLYLOOP((#1406,#1408,#1591));
#368=IFCPOLYLOOP((#1461,#1426,#1428));
#369=IFCPOLYLOOP((#1461,#1423,#1422));
#370=IFCPOLYLOOP((#1305,#1304,#1462));
#371=IFCPOLYLOOP((#1318,#1320,#1520));
#372=IFCPOLYLOOP((#1342,#1344,#1584));
#373=IFCPOLYLOOP((#1457,#1350,#1352));
#374=IFCPOLYLOOP((#1374,#1376,#1552));
#375=IFCPOLYLOOP((#1430,#1461,#1593,#1594,#1592));
#376=IFCPOLYLOOP((#1422,#1426,#1461));
#377=IFCPOLYLOOP((#1304,#1308,#1522,#1462));
#378=IFCPOLYLOOP((#1520,#1524,#1314,#1316));
#379=IFCPOLYLOOP((#1346,#1457,#1586,#1588,#1590));
#380=IFCPOLYLOOP((#1457,#1348,#1350));
#381=IFCPOLYLOOP((#1388,#1390,#1392,#1394,#1396,#1398,#1460,#1459));
#382=IFCPOLYLOOP((#1461,#1430,#1423));
#383=IFCPOLYLOOP((#1308,#1310,#1522));
#384=IFCPOLYLOOP((#1456,#1455,#1326,#1328,#1330,#1332,#1334));
#385=IFCPOLYLOOP((#1457,#1346,#1348));
#386=IFCPOLYLOOP((#1419,#1413,#1412,#1416,#1418,#1409,#1462,#1461));
#387=IFCPOLYLOOP((#1310,#1312,#1522));
#388=IFCPOLYLOOP((#1356,#1358,#1360,#1458,#1457));
#389=IFCPOLYLOOP((#1312,#1314,#1524,#1526,#1522));
#390=IFCPOLYLOOP((#1378,#1459,#1554,#1556,#1558));
#391=IFCPOLYLOOP((#1324,#1326,#1455));
#392=IFCPOLYLOOP((#1595,#1594,#1593,#1596));
#393=IFCPOLYLOOP((#1597,#1592,#1594,#1595));
#394=IFCPOLYLOOP((#1598,#1591,#1592,#1597));
#395=IFCPOLYLOOP((#1595,#1596,#1599));
#396=IFCPOLYLOOP((#1597,#1600,#1601));
#397=IFCPOLYLOOP((#1601,#1598,#1597));
#398=IFCPOLYLOOP((#1599,#1602,#1595));
#399=IFCPOLYLOOP((#1602,#1600,#1597,#1595));
#400=IFCPOLYLOOP((#1603,#1602,#1599));
#401=IFCPOLYLOOP((#1604,#1605,#1601));
#402=IFCPOLYLOOP((#1601,#1600,#1604));
#403=IFCPOLYLOOP((#1599,#1606,#1603));
#404=IFCPOLYLOOP((#1600,#1602,#1603,#1604));
#405=IFCPOLYLOOP((#1607,#1603,#1606,#1608));
#406=IFCPOLYLOOP((#1609,#1604,#1603,#1607));
#407=IFCPOLYLOOP((#1610,#1605,#1604,#1609));
#408=IFCPOLYLOOP((#1607,#1608,#1611));
#409=IFCPOLYLOOP((#1609,#1612,#1613));
#410=IFCPOLYLOOP((#1613,#1610,#1609));
#411=IFCPOLYLOOP((#1611,#1614,#1607));
#412=IFCPOLYLOOP((#1614,#1612,#1609,#1607));
#413=IFCPOLYLOOP((#1443,#1615,#1616));
#414=IFCPOLYLOOP((#1616,#1474,#1443));
#415=IFCPOLYLOOP((#1443,#1610,#1615));
#416=IFCPOLYLOOP((#1443,#1598,#1605));
#417=IFCPOLYLOOP((#1610,#1613,#1615));
#418=IFCPOLYLOOP((#1598,#1601,#1605));
#419=IFCPOLYLOOP((#1605,#1610,#1443));
#420=IFCPOLYLOOP((#1616,#1493,#1474));
#421=IFCPOLYLOOP((#1443,#1460,#1591,#1598));
#422=IFCPOLYLOOP((#1474,#1444,#1443));
#423=IFCPOLYLOOP((#1431,#1617,#1618));
#424=IFCPOLYLOOP((#1431,#1437,#1472));
#425=IFCPOLYLOOP((#1472,#1617,#1431));
#426=IFCPOLYLOOP((#1431,#1608,#1606));
#427=IFCPOLYLOOP((#1618,#1608,#1431));
#428=IFCPOLYLOOP((#1606,#1596,#1431));
#429=IFCPOLYLOOP((#1618,#1611,#1608));
#430=IFCPOLYLOOP((#1472,#1492,#1617));
#431=IFCPOLYLOOP((#1606,#1599,#1596));
#432=IFCPOLYLOOP((#1596,#1593,#1461,#1431));
#433=IFCPOLYLOOP((#1619,#1620,#1618,#1617));
#434=IFCPOLYLOOP((#1621,#1622,#1620,#1619));
#435=IFCPOLYLOOP((#1616,#1615,#1622,#1621));
#436=IFCPOLYLOOP((#1620,#1614,#1611));
#437=IFCPOLYLOOP((#1622,#1615,#1613));
#438=IFCPOLYLOOP((#1613,#1612,#1622));
#439=IFCPOLYLOOP((#1611,#1618,#1620));
#440=IFCPOLYLOOP((#1612,#1614,#1620,#1622));
#441=IFCPOLYLOOP((#1619,#1617,#1492));
#442=IFCPOLYLOOP((#1621,#1494,#1493));
#443=IFCPOLYLOOP((#1493,#1616,#1621));
#444=IFCPOLYLOOP((#1492,#1491,#1619));
#445=IFCPOLYLOOP((#1491,#1494,#1621,#1619));
#446=IFCFACEOUTERBOUND(#26,.T.);
#447=IFCFACEOUTERBOUND(#27,.T.);
#448=IFCFACEOUTERBOUND(#28,.T.);
#449=IFCFACEOUTERBOUND(#29,.T.);
#450=IFCFACEOUTERBOUND(#30,.T.);
#451=IFCFACEOUTERBOUND(#31,.T.);
#452=IFCFACEOUTERBOUND(#32,.T.);
#453=IFCFACEOUTERBOUND(#33,.T.);
#454=IFCFACEOUTERBOUND(#34,.T.);
#455=IFCFACEOUTERBOUND(#35,.T.);
#456=IFCFACEOUTERBOUND(#36,.T.);
#457=IFCFACEOUTERBOUND(#37,.T.);
#458=IFCFACEOUTERBOUND(#38,.T.);
#459=IFCFACEOUTERBOUND(#39,.T.);
#460=IFCFACEOUTERBOUND(#40,.T.);
#461=IFCFACEOUTERBOUND(#41,.T.);
#462=IFCFACEOUTERBOUND(#42,.T.);
#463=IFCFACEOUTERBOUND(#43,.T.);
#464=IFCFACEOUTERBOUND(#44,.T.);
#465=IFCFACEOUTERBOUND(#45,.T.);
#466=IFCFACEOUTERBOUND(#46,.T.);
#467=IFCFACEOUTERBOUND(#47,.T.);
#468=IFCFACEOUTERBOUND(#48,.T.);
#469=IFCFACEOUTERBOUND(#49,.T.);
#470=IFCFACEOUTERBOUND(#50,.T.);
#471=IFCFACEOUTERBOUND(#51,.T.);
#472=IFCFACEOUTERBOUND(#52,.T.);
#473=IFCFACEOUTERBOUND(#53,.T.);
#474=IFCFACEOUTERBOUND(#54,.T.);
#475=IFCFACEOUTERBOUND(#55,.T.);
#476=IFCFACEOUTERBOUND(#56,.T.);
#477=IFCFACEOUTERBOUND(#57,.T.);
#478=IFCFACEOUTERBOUND(#58,.T.);
#479=IFCFACEOUTERBOUND(#59,.T.);
#480=IFCFACEOUTERBOUND(#60,.T.);
#481=IFCFACEOUTERBOUND(#61,.T.);
#482=IFCFACEOUTERBOUND(#62,.T.);
#483=IFCFACEOUTERBOUND(#63,.T.);
#484=IFCFACEOUTERBOUND(#64,.T.);
#485=IFCFACEOUTERBOUND(#65,.T.);
#486=IFCFACEOUTERBOUND(#66,.T.);
#487=IFCFACEOUTERBOUND(#67,.T.);
#488=IFCFACEOUTERBOUND(#68,.T.);
#489=IFCFACEOUTERBOUND(#69,.T.);
#490=IFCFACEOUTERBOUND(#70,.T.);
#491=IFCFACEOUTERBOUND(#71,.T.);
#492=IFCFACEOUTERBOUND(#72,.T.);
#493=IFCFACEOUTERBOUND(#73,.T.);
#494=IFCFACEOUTERBOUND(#74,.T.);
#495=IFCFACEOUTERBOUND(#75,.T.);
#496=IFCFACEOUTERBOUND(#76,.T.);
#497=IFCFACEOUTERBOUND(#77,.T.);
#498=IFCFACEOUTERBOUND(#78,.T.);
#499=IFCFACEOUTERBOUND(#79,.T.);
#500=IFCFACEOUTERBOUND(#80,.T.);
#501=IFCFACEOUTERBOUND(#81,.T.);
#502=IFCFACEOUTERBOUND(#82,.T.);
#503=IFCFACEOUTERBOUND(#83,.T.);
#504=IFCFACEOUTERBOUND(#84,.T.);
#505=IFCFACEOUTERBOUND(#85,.T.);
#506=IFCFACEOUTERBOUND(#86,.T.);
#507=IFCFACEOUTERBOUND(#87,.T.);
#508=IFCFACEOUTERBOUND(#88,.T.);
#509=IFCFACEOUTERBOUND(#89,.T.);
#510=IFCFACEOUTERBOUND(#90,.T.);
#511=IFCFACEOUTERBOUND(#91,.T.);
#512=IFCFACEOUTERBOUND(#92,.T.);
#513=IFCFACEOUTERBOUND(#93,.T.);
#514=IFCFACEOUTERBOUND(#94,.T.);
#515=IFCFACEOUTERBOUND(#95,.T.);
#516=IFCFACEOUTERBOUND(#96,.T.);
#517=IFCFACEOUTERBOUND(#97,.T.);
#518=IFCFACEOUTERBOUND(#98,.T.);
#519=IFCFACEOUTERBOUND(#99,.T.);
#520=IFCFACEOUTERBOUND(#100,.T.);
#521=IFCFACEOUTERBOUND(#101,.T.);
#522=IFCFACEOUTERBOUND(#102,.T.);
#523=IFCFACEOUTERBOUND(#103,.T.);
#524=IFCFACEOUTERBOUND(#104,.T.);
#525=IFCFACEOUTERBOUND(#105,.T.);
#526=IFCFACEOUTERBOUND(#106,.T.);
#527=IFCFACEOUTERBOUND(#107,.T.);
#528=IFCFACEOUTERBOUND(#108,.T.);
#529=IFCFACEOUTERBOUND(#109,.T.);
#530=IFCFACEOUTERBOUND(#110,.T.);
#531=IFCFACEOUTERBOUND(#111,.T.);
#532=IFCFACEOUTERBOUND(#112,.T.);
#533=IFCFACEOUTERBOUND(#113,.T.);
#534=IFCFACEOUTERBOUND(#114,.T.);
#535=IFCFACEOUTERBOUND(#115,.T.);
#536=IFCFACEOUTERBOUND(#116,.T.);
#537=IFCFACEOUTERBOUND(#117,.T.);
#538=IFCFACEOUTERBOUND(#118,.T.);
#539=IFCFACEOUTERBOUND(#119,.T.);
#540=IFCFACEOUTERBOUND(#120,.T.);
#541=IFCFACEOUTERBOUND(#121,.T.);
#542=IFCFACEOUTERBOUND(#122,.T.);
#543=IFCFACEOUTERBOUND(#123,.T.);
#544=IFCFACEOUTERBOUND(#124,.T.);
#545=IFCFACEOUTERBOUND(#125,.T.);
#546=IFCFACEOUTERBOUND(#126,.T.);
#547=IFCFACEOUTERBOUND(#127,.T.);
#548=IFCFACEOUTERBOUND(#128,.T.);
#549=IFCFACEOUTERBOUND(#129,.T.);
#550=IFCFACEOUTERBOUND(#130,.T.);
#551=IFCFACEOUTERBOUND(#131,.T.);
#552=IFCFACEOUTERBOUND(#132,.T.);
#553=IFCFACEOUTERBOUND(#133,.T.);
#554=IFCFACEOUTERBOUND(#134,.T.);
#555=IFCFACEOUTERBOUND(#135,.T.);
#556=IFCFACEOUTERBOUND(#136,.T.);
#557=IFCFACEOUTERBOUND(#137,.T.);
#558=IFCFACEOUTERBOUND(#138,.T.);
#559=IFCFACEOUTERBOUND(#139,.T.);
#560=IFCFACEOUTERBOUND(#140,.T.);
#561=IFCFACEOUTERBOUND(#141,.T.);
#562=IFCFACEOUTERBOUND(#142,.T.);
#563=IFCFACEOUTERBOUND(#143,.T.);
#564=IFCFACEOUTERBOUND(#144,.T.);
#565=IFCFACEOUTERBOUND(#145,.T.);
#566=IFCFACEOUTERBOUND(#146,.T.);
#567=IFCFACEOUTERBOUND(#147,.T.);
#568=IFCFACEOUTERBOUND(#148,.T.);
#569=IFCFACEOUTERBOUND(#149,.T.);
#570=IFCFACEOUTERBOUND(#150,.T.);
#571=IFCFACEOUTERBOUND(#151,.T.);
#572=IFCFACEOUTERBOUND(#152,.T.);
#573=IFCFACEOUTERBOUND(#153,.T.);
#574=IFCFACEOUTERBOUND(#154,.T.);
#575=IFCFACEOUTERBOUND(#155,.T.);
#576=IFCFACEOUTERBOUND(#156,.T.);
#577=IFCFACEOUTERBOUND(#157,.T.);
#578=IFCFACEOUTERBOUND(#158,.T.);
#579=IFCFACEOUTERBOUND(#159,.T.);
#580=IFCFACEOUTERBOUND(#160,.T.);
#581=IFCFACEOUTERBOUND(#161,.T.);
#582=IFCFACEOUTERBOUND(#162,.T.);
#583=IFCFACEOUTERBOUND(#163,.T.);
#584=IFCFACEOUTERBOUND(#164,.T.);
#585=IFCFACEOUTERBOUND(#165,.T.);
#586=IFCFACEOUTERBOUND(#166,.T.);
#587=IFCFACEOUTERBOUND(#167,.T.);
#588=IFCFACEOUTERBOUND(#168,.T.);
#589=IFCFACEOUTERBOUND(#169,.T.);
#590=IFCFACEOUTERBOUND(#170,.T.);
#591=IFCFACEOUTERBOUND(#171,.T.);
#592=IFCFACEOUTERBOUND(#172,.T.);
#593=IFCFACEOUTERBOUND(#173,.T.);
#594=IFCFACEOUTERBOUND(#174,.T.);
#595=IFCFACEOUTERBOUND(#175,.T.);
#596=IFCFACEOUTERBOUND(#176,.T.);
#597=IFCFACEOUTERBOUND(#177,.T.);
#598=IFCFACEOUTERBOUND(#178,.T.);
#599=IFCFACEOUTERBOUND(#179,.T.);
#600=IFCFACEOUTERBOUND(#180,.T.);
#601=IFCFACEOUTERBOUND(#181,.T.);
#602=IFCFACEOUTERBOUND(#182,.T.);
#603=IFCFACEOUTERBOUND(#183,.T.);
#604=IFCFACEOUTERBOUND(#184,.T.);
#605=IFCFACEOUTERBOUND(#185,.T.);
#606=IFCFACEOUTERBOUND(#186,.T.);
#607=IFCFACEOUTERBOUND(#187,.T.);
#608=IFCFACEOUTERBOUND(#188,.T.);
#609=IFCFACEOUTERBOUND(#189,.T.);
#610=IFCFACEOUTERBOUND(#190,.T.);
#611=IFCFACEOUTERBOUND(#191,.T.);
#612=IFCFACEOUTERBOUND(#192,.T.);
#613=IFCFACEOUTERBOUND(#193,.T.);
#614=IFCFACEOUTERBOUND(#194,.T.);
#615=IFCFACEOUTERBOUND(#195,.T.);
#616=IFCFACEOUTERBOUND(#196,.T.);
#617=IFCFACEOUTERBOUND(#197,.T.);
#618=IFCFACEOUTERBOUND(#198,.T.);
#619=IFCFACEOUTERBOUND(#199,.T.);
#620=IFCFACEOUTERBOUND(#200,.T.);
#621=IFCFACEOUTERBOUND(#201,.T.);
#622=IFCFACEOUTERBOUND(#202,.T.);
#623=IFCFACEOUTERBOUND(#203,.T.);
#624=IFCFACEOUTERBOUND(#204,.T.);
#625=IFCFACEOUTERBOUND(#205,.T.);
#626=IFCFACEOUTERBOUND(#206,.T.);
#627=IFCFACEOUTERBOUND(#207,.T.);
#628=IFCFACEOUTERBOUND(#208,.T.);
#629=IFCFACEOUTERBOUND(#209,.T.);
#630=IFCFACEOUTERBOUND(#210,.T.);
#631=IFCFACEOUTERBOUND(#211,.T.);
#632=IFCFACEOUTERBOUND(#212,.T.);
#633=IFCFACEOUTERBOUND(#213,.T.);
#634=IFCFACEOUTERBOUND(#214,.T.);
#635=IFCFACEOUTERBOUND(#215,.T.);
#636=IFCFACEOUTERBOUND(#216,.T.);
#637=IFCFACEOUTERBOUND(#217,.T.);
#638=IFCFACEOUTERBOUND(#218,.T.);
#639=IFCFACEOUTERBOUND(#219,.T.);
#640=IFCFACEOUTERBOUND(#220,.T.);
#641=IFCFACEOUTERBOUND(#221,.T.);
#642=IFCFACEOUTERBOUND(#222,.T.);
#643=IFCFACEOUTERBOUND(#223,.T.);
#644=IFCFACEOUTERBOUND(#224,.T.);
#645=IFCFACEOUTERBOUND(#225,.T.);
#646=IFCFACEOUTERBOUND(#226,.T.);
#647=IFCFACEOUTERBOUND(#227,.T.);
#648=IFCFACEOUTERBOUND(#228,.T.);
#649=IFCFACEOUTERBOUND(#229,.T.);
#650=IFCFACEOUTERBOUND(#230,.T.);
#651=IFCFACEOUTERBOUND(#231,.T.);
#652=IFCFACEOUTERBOUND(#232,.T.);
#653=IFCFACEOUTERBOUND(#233,.T.);
#654=IFCFACEOUTERBOUND(#234,.T.);
#655=IFCFACEOUTERBOUND(#235,.T.);
#656=IFCFACEOUTERBOUND(#236,.T.);
#657=IFCFACEOUTERBOUND(#237,.T.);
#658=IFCFACEOUTERBOUND(#238,.T.);
#659=IFCFACEOUTERBOUND(#239,.T.);
#660=IFCFACEOUTERBOUND(#240,.T.);
#661=IFCFACEOUTERBOUND(#241,.T.);
#662=IFCFACEOUTERBOUND(#242,.T.);
#663=IFCFACEOUTERBOUND(#243,.T.);
#664=IFCFACEOUTERBOUND(#244,.T.);
#665=IFCFACEOUTERBOUND(#245,.T.);
#666=IFCFACEOUTERBOUND(#246,.T.);
#667=IFCFACEOUTERBOUND(#247,.T.);
#668=IFCFACEOUTERBOUND(#248,.T.);
#669=IFCFACEOUTERBOUND(#249,.T.);
#670=IFCFACEOUTERBOUND(#250,.T.);
#671=IFCFACEOUTERBOUND(#251,.T.);
#672=IFCFACEOUTERBOUND(#252,.T.);
#673=IFCFACEOUTERBOUND(#253,.T.);
#674=IFCFACEOUTERBOUND(#254,.T.);
#675=IFCFACEOUTERBOUND(#255,.T.);
#676=IFCFACEOUTERBOUND(#256,.T.);
#677=IFCFACEOUTERBOUND(#257,.T.);
#678=IFCFACEOUTERBOUND(#258,.T.);
#679=IFCFACEOUTERBOUND(#259,.T.);
#680=IFCFACEOUTERBOUND(#260,.T.);
#681=IFCFACEOUTERBOUND(#261,.T.);
#682=IFCFACEOUTERBOUND(#262,.T.);
#683=IFCFACEOUTERBOUND(#263,.T.);
#684=IFCFACEOUTERBOUND(#264,.T.);
#685=IFCFACEOUTERBOUND(#265,.T.);
#686=IFCFACEOUTERBOUND(#266,.T.);
#687=IFCFACEOUTERBOUND(#267,.T.);
#688=IFCFACEOUTERBOUND(#268,.T.);
#689=IFCFACEOUTERBOUND(#269,.T.);
#690=IFCFACEOUTERBOUND(#270,.T.);
#691=IFCFACEOUTERBOUND(#271,.T.);
#692=IFCFACEOUTERBOUND(#272,.T.);
#693=IFCFACEOUTERBOUND(#273,.T.);
#694=IFCFACEOUTERBOUND(#274,.T.);
#695=IFCFACEOUTERBOUND(#275,.T.);
#696=IFCFACEOUTERBOUND(#276,.T.);
#697=IFCFACEOUTERBOUND(#277,.T.);
#698=IFCFACEOUTERBOUND(#278,.T.);
#699=IFCFACEOUTERBOUND(#279,.T.);
#700=IFCFACEOUTERBOUND(#280,.T.);
#701=IFCFACEOUTERBOUND(#281,.T.);
#702=IFCFACEOUTERBOUND(#282,.T.);
#703=IFCFACEOUTERBOUND(#283,.T.);
#704=IFCFACEOUTERBOUND(#284,.T.);
#705=IFCFACEOUTERBOUND(#285,.T.);
#706=IFCFACEOUTERBOUND(#286,.T.);
#707=IFCFACEOUTERBOUND(#287,.T.);
#708=IFCFACEOUTERBOUND(#288,.T.);
#709=IFCFACEOUTERBOUND(#289,.T.);
#710=IFCFACEOUTERBOUND(#290,.T.);
#711=IFCFACEOUTERBOUND(#291,.T.);
#712=IFCFACEOUTERBOUND(#292,.T.);
#713=IFCFACEOUTERBOUND(#293,.T.);
#714=IFCFACEOUTERBOUND(#294,.T.);
#715=IFCFACEOUTERBOUND(#295,.T.);
#716=IFCFACEOUTERBOUND(#296,.T.);
#717=IFCFACEOUTERBOUND(#297,.T.);
#718=IFCFACEOUTERBOUND(#298,.T.);
#719=IFCFACEOUTERBOUND(#299,.T.);
#720=IFCFACEOUTERBOUND(#300,.T.);
#721=IFCFACEOUTERBOUND(#301,.T.);
#722=IFCFACEOUTERBOUND(#302,.T.);
#723=IFCFACEOUTERBOUND(#303,.T.);
#724=IFCFACEOUTERBOUND(#304,.T.);
#725=IFCFACEOUTERBOUND(#305,.T.);
#726=IFCFACEOUTERBOUND(#306,.T.);
#727=IFCFACEOUTERBOUND(#307,.T.);
#728=IFCFACEOUTERBOUND(#308,.T.);
#729=IFCFACEOUTERBOUND(#309,.T.);
#730=IFCFACEOUTERBOUND(#310,.T.);
#731=IFCFACEOUTERBOUND(#311,.T.);
#732=IFCFACEOUTERBOUND(#312,.T.);
#733=IFCFACEOUTERBOUND(#313,.T.);
#734=IFCFACEOUTERBOUND(#314,.T.);
#735=IFCFACEOUTERBOUND(#315,.T.);
#736=IFCFACEOUTERBOUND(#316,.T.);
#737=IFCFACEOUTERBOUND(#317,.T.);
#738=IFCFACEOUTERBOUND(#318,.T.);
#739=IFCFACEOUTERBOUND(#319,.T.);
#740=IFCFACEOUTERBOUND(#320,.T.);
#741=IFCFACEOUTERBOUND(#321,.T.);
#742=IFCFACEOUTERBOUND(#322,.T.);
#743=IFCFACEOUTERBOUND(#323,.T.);
#744=IFCFACEOUTERBOUND(#324,.T.);
#745=IFCFACEOUTERBOUND(#325,.T.);
#746=IFCFACEOUTERBOUND(#326,.T.);
#747=IFCFACEOUTERBOUND(#327,.T.);
#748=IFCFACEOUTERBOUND(#328,.T.);
#749=IFCFACEOUTERBOUND(#329,.T.);
#750=IFCFACEOUTERBOUND(#330,.T.);
#751=IFCFACEOUTERBOUND(#331,.T.);
#752=IFCFACEOUTERBOUND(#332,.T.);
#753=IFCFACEOUTERBOUND(#333,.T.);
#754=IFCFACEOUTERBOUND(#334,.T.);
#755=IFCFACEOUTERBOUND(#335,.T.);
#756=IFCFACEOUTERBOUND(#336,.T.);
#757=IFCFACEOUTERBOUND(#337,.T.);
#758=IFCFACEOUTERBOUND(#338,.T.);
#759=IFCFACEOUTERBOUND(#339,.T.);
#760=IFCFACEOUTERBOUND(#340,.T.);
#761=IFCFACEOUTERBOUND(#341,.T.);
#762=IFCFACEOUTERBOUND(#342,.T.);
#763=IFCFACEOUTERBOUND(#343,.T.);
#764=IFCFACEOUTERBOUND(#344,.T.);
#765=IFCFACEOUTERBOUND(#345,.T.);
#766=IFCFACEOUTERBOUND(#346,.T.);
#767=IFCFACEOUTERBOUND(#347,.T.);
#768=IFCFACEOUTERBOUND(#348,.T.);
#769=IFCFACEOUTERBOUND(#349,.T.);
#770=IFCFACEOUTERBOUND(#350,.T.);
#771=IFCFACEOUTERBOUND(#351,.T.);
#772=IFCFACEOUTERBOUND(#352,.T.);
#773=IFCFACEOUTERBOUND(#353,.T.);
#774=IFCFACEOUTERBOUND(#354,.T.);
#775=IFCFACEOUTERBOUND(#355,.T.);
#776=IFCFACEOUTERBOUND(#356,.T.);
#777=IFCFACEOUTERBOUND(#357,.T.);
#778=IFCFACEOUTERBOUND(#358,.T.);
#779=IFCFACEOUTERBOUND(#359,.T.);
#780=IFCFACEOUTERBOUND(#360,.T.);
#781=IFCFACEOUTERBOUND(#361,.T.);
#782=IFCFACEOUTERBOUND(#362,.T.);
#783=IFCFACEOUTERBOUND(#363,.T.);
#784=IFCFACEOUTERBOUND(#364,.T.);
#785=IFCFACEOUTERBOUND(#365,.T.);
#786=IFCFACEOUTERBOUND(#366,.T.);
#787=IFCFACEOUTERBOUND(#367,.T.);
#788=IFCFACEOUTERBOUND(#368,.T.);
#789=IFCFACEOUTERBOUND(#369,.T.);
#790=IFCFACEOUTERBOUND(#370,.T.);
#791=IFCFACEOUTERBOUND(#371,.T.);
#792=IFCFACEOUTERBOUND(#372,.T.);
#793=IFCFACEOUTERBOUND(#373,.T.);
#794=IFCFACEOUTERBOUND(#374,.T.);
#795=IFCFACEOUTERBOUND(#375,.T.);
#796=IFCFACEOUTERBOUND(#376,.T.);
#797=IFCFACEOUTERBOUND(#377,.T.);
#798=IFCFACEOUTERBOUND(#378,.T.);
#799=IFCFACEOUTERBOUND(#379,.T.);
#800=IFCFACEOUTERBOUND(#380,.T.);
#801=IFCFACEOUTERBOUND(#381,.T.);
#802=IFCFACEOUTERBOUND(#382,.T.);
#803=IFCFACEOUTERBOUND(#383,.T.);
#804=IFCFACEOUTERBOUND(#384,.T.);
#805=IFCFACEOUTERBOUND(#385,.T.);
#806=IFCFACEOUTERBOUND(#386,.T.);
#807=IFCFACEOUTERBOUND(#387,.T.);
#808=IFCFACEOUTERBOUND(#388,.T.);
#809=IFCFACEOUTERBOUND(#389,.T.);
#810=IFCFACEOUTERBOUND(#390,.T.);
#811=IFCFACEOUTERBOUND(#391,.T.);
#812=IFCFACEOUTERBOUND(#392,.T.);
#813=IFCFACEOUTERBOUND(#393,.T.);
#814=IFCFACEOUTERBOUND(#394,.T.);
#815=IFCFACEOUTERBOUND(#395,.T.);
#816=IFCFACEOUTERBOUND(#396,.T.);
#817=IFCFACEOUTERBOUND(#397,.T.);
#818=IFCFACEOUTERBOUND(#398,.T.);
#819=IFCFACEOUTERBOUND(#399,.T.);
#820=IFCFACEOUTERBOUND(#400,.T.);
#821=IFCFACEOUTERBOUND(#401,.T.);
#822=IFCFACEOUTERBOUND(#402,.T.);
#823=IFCFACEOUTERBOUND(#403,.T.);
#824=IFCFACEOUTERBOUND(#404,.T.);
#825=IFCFACEOUTERBOUND(#405,.T.);
#826=IFCFACEOUTERBOUND(#406,.T.);
#827=IFCFACEOUTERBOUND(#407,.T.);
#828=IFCFACEOUTERBOUND(#408,.T.);
#829=IFCFACEOUTERBOUND(#409,.T.);
#830=IFCFACEOUTERBOUND(#410,.T.);
#831=IFCFACEOUTERBOUND(#411,.T.);
#832=IFCFACEOUTERBOUND(#412,.T.);
#833=IFCFACEOUTERBOUND(#413,.T.);
#834=IFCFACEOUTERBOUND(#414,.T.);
#835=IFCFACEOUTERBOUND(#415,.T.);
#836=IFCFACEOUTERBOUND(#416,.T.);
#837=IFCFACEOUTERBOUND(#417,.T.);
#838=IFCFACEOUTERBOUND(#418,.T.);
#839=IFCFACEOUTERBOUND(#419,.T.);
#840=IFCFACEOUTERBOUND(#420,.T.);
#841=IFCFACEOUTERBOUND(#421,.T.);
#842=IFCFACEOUTERBOUND(#422,.T.);
#843=IFCFACEOUTERBOUND(#423,.T.);
#844=IFCFACEOUTERBOUND(#424,.T.);
#845=IFCFACEOUTERBOUND(#425,.T.);
#846=IFCFACEOUTERBOUND(#426,.T.);
#847=IFCFACEOUTERBOUND(#427,.T.);
#848=IFCFACEOUTERBOUND(#428,.T.);
#849=IFCFACEOUTERBOUND(#429,.T.);
#850=IFCFACEOUTERBOUND(#430,.T.);
#851=IFCFACEOUTERBOUND(#431,.T.);
#852=IFCFACEOUTERBOUND(#432,.T.);
#853=IFCFACEOUTERBOUND(#433,.T.);
#854=IFCFACEOUTERBOUND(#434,.T.);
#855=IFCFACEOUTERBOUND(#435,.T.);
#856=IFCFACEOUTERBOUND(#436,.T.);
#857=IFCFACEOUTERBOUND(#437,.T.);
#858=IFCFACEOUTERBOUND(#438,.T.);
#859=IFCFACEOUTERBOUND(#439,.T.);
#860=IFCFACEOUTERBOUND(#440,.T.);
#861=IFCFACEOUTERBOUND(#441,.T.);
#862=IFCFACEOUTERBOUND(#442,.T.);
#863=IFCFACEOUTERBOUND(#443,.T.);
#864=IFCFACEOUTERBOUND(#444,.T.);
#865=IFCFACEOUTERBOUND(#445,.T.);
#866=IFCFACE((#446));
#867=IFCFACE((#447));
#868=IFCFACE((#448));
#869=IFCFACE((#449));
#870=IFCFACE((#450));
#871=IFCFACE((#451));
#872=IFCFACE((#452));
#873=IFCFACE((#453));
#874=IFCFACE((#454));
#875=IFCFACE((#455));
#876=IFCFACE((#456));
#877=IFCFACE((#457));
#878=IFCFACE((#458));
#879=IFCFACE((#459));
#880=IFCFACE((#460));
#881=IFCFACE((#461));
#882=IFCFACE((#462));
#883=IFCFACE((#463));
#884=IFCFACE((#464));
#885=IFCFACE((#465));
#886=IFCFACE((#466));
#887=IFCFACE((#467));
#888=IFCFACE((#468));
#889=IFCFACE((#469));
#890=IFCFACE((#470));
#891=IFCFACE((#471));
#892=IFCFACE((#472));
#893=IFCFACE((#473));
#894=IFCFACE((#474));
#895=IFCFACE((#475));
#896=IFCFACE((#476));
#897=IFCFACE((#477));
#898=IFCFACE((#478));
#899=IFCFACE((#479));
#900=IFCFACE((#480));
#901=IFCFACE((#481));
#902=IFCFACE((#482));
#903=IFCFACE((#483));
#904=IFCFACE((#484));
#905=IFCFACE((#485));
#906=IFCFACE((#486));
#907=IFCFACE((#487));
#908=IFCFACE((#488));
#909=IFCFACE((#489));
#910=IFCFACE((#490));
#911=IFCFACE((#491));
#912=IFCFACE((#492));
#913=IFCFACE((#493));
#914=IFCFACE((#494));
#915=IFCFACE((#495));
#916=IFCFACE((#496));
#917=IFCFACE((#497));
#918=IFCFACE((#498));
#919=IFCFACE((#499));
#920=IFCFACE((#500));
#921=IFCFACE((#501));
#922=IFCFACE((#502));
#923=IFCFACE((#503));
#924=IFCFACE((#504));
#925=IFCFACE((#505));
#926=IFCFACE((#506));
#927=IFCFACE((#507));
#928=IFCFACE((#508));
#929=IFCFACE((#509));
#930=IFCFACE((#510));
#931=IFCFACE((#511));
#932=IFCFACE((#512));
#933=IFCFACE((#513));
#934=IFCFACE((#514));
#935=IFCFACE((#515));
#936=IFCFACE((#516));
#937=IFCFACE((#517));
#938=IFCFACE((#518));
#939=IFCFACE((#519));
#940=IFCFACE((#520));
#941=IFCFACE((#521));
#942=IFCFACE((#522));
#943=IFCFACE((#523));
#944=IFCFACE((#524));
#945=IFCFACE((#525));
#946=IFCFACE((#526));
#947=IFCFACE((#527));
#948=IFCFACE((#528));
#949=IFCFACE((#529));
#950=IFCFACE((#530));
#951=IFCFACE((#531));
#952=IFCFACE((#532));
#953=IFCFACE((#533));
#954=IFCFACE((#534));
#955=IFCFACE((#535));
#956=IFCFACE((#536));
#957=IFCFACE((#537));
#958=IFCFACE((#538));
#959=IFCFACE((#539));
#960=IFCFACE((#540));
#961=IFCFACE((#541));
#962=IFCFACE((#542));
#963=IFCFACE((#543));
#964=IFCFACE((#544));
#965=IFCFACE((#545));
#966=IFCFACE((#546));
#967=IFCFACE((#547));
#968=IFCFACE((#548));
#969=IFCFACE((#549));
#970=IFCFACE((#550));
#971=IFCFACE((#551));
#972=IFCFACE((#552));
#973=IFCFACE((#553));
#974=IFCFACE((#554));
#975=IFCFACE((#555));
#976=IFCFACE((#556));
#977=IFCFACE((#557));
#978=IFCFACE((#558));
#979=IFCFACE((#559));
#980=IFCFACE((#560));
#981=IFCFACE((#561));
#982=IFCFACE((#562));
#983=IFCFACE((#563));
#984=IFCFACE((#564));
#985=IFCFACE((#565));
#986=IFCFACE((#566));
#987=IFCFACE((#567));
#988=IFCFACE((#568));
#989=IFCFACE((#569));
#990=IFCFACE((#570));
#991=IFCFACE((#571));
#992=IFCFACE((#572));
#993=IFCFACE((#573));
#994=IFCFACE((#574));
#995=IFCFACE((#575));
#996=IFCFACE((#576));
#997=IFCFACE((#577));
#998=IFCFACE((#578));
#999=IFCFACE((#579));
#1000=IFCFACE((#580));
#1001=IFCFACE((#581));
#1002=IFCFACE((#582));
#1003=IFCFACE((#583));
#1004=IFCFACE((#584));
#1005=IFCFACE((#585));
#1006=IFCFACE((#586));
#1007=IFCFACE((#587));
#1008=IFCFACE((#588));
#1009=IFCFACE((#589));
#1010=IFCFACE((#590));
#1011=IFCFACE((#591));
#1012=IFCFACE((#592));
#1013=IFCFACE((#593));
#1014=IFCFACE((#594));
#1015=IFCFACE((#595));
#1016=IFCFACE((#596));
#1017=IFCFACE((#597));
#1018=IFCFACE((#598));
#1019=IFCFACE((#599));
#1020=IFCFACE((#600));
#1021=IFCFACE((#601));
#1022=IFCFACE((#602));
#1023=IFCFACE((#603));
#1024=IFCFACE((#604));
#1025=IFCFACE((#605));
#1026=IFCFACE((#606));
#1027=IFCFACE((#607));
#1028=IFCFACE((#608));
#1029=IFCFACE((#609));
#1030=IFCFACE((#610));
#1031=IFCFACE((#611));
#1032=IFCFACE((#612));
#1033=IFCFACE((#613));
#1034=IFCFACE((#614));
#1035=IFCFACE((#615));
#1036=IFCFACE((#616));
#1037=IFCFACE((#617));
#1038=IFCFACE((#618));
#1039=IFCFACE((#619));
#1040=IFCFACE((#620));
#1041=IFCFACE((#621));
#1042=IFCFACE((#622));
#1043=IFCFACE((#623));
#1044=IFCFACE((#624));
#1045=IFCFACE((#625));
#1046=IFCFACE((#626));
#1047=IFCFACE((#627));
#1048=IFCFACE((#628));
#1049=IFCFACE((#629));
#1050=IFCFACE((#630));
#1051=IFCFACE((#631));
#1052=IFCFACE((#632));
#1053=IFCFACE((#633));
#1054=IFCFACE((#634));
#1055=IFCFACE((#635));
#1056=IFCFACE((#636));
#1057=IFCFACE((#637));
#1058=IFCFACE((#638));
#1059=IFCFACE((#639));
#1060=IFCFACE((#640));
#1061=IFCFACE((#641));
#1062=IFCFACE((#642));
#1063=IFCFACE((#643));
#1064=IFCFACE((#644));
#1065=IFCFACE((#645));
#1066=IFCFACE((#646));
#1067=IFCFACE((#647));
#1068=IFCFACE((#648));
#1069=IFCFACE((#649));
#1070=IFCFACE((#650));
#1071=IFCFACE((#651));
#1072=IFCFACE((#652));
#1073=IFCFACE((#653));
#1074=IFCFACE((#654));
#1075=IFCFACE((#655));
#1076=IFCFACE((#656));
#1077=IFCFACE((#657));
#1078=IFCFACE((#658));
#1079=IFCFACE((#659));
#1080=IFCFACE((#660));
#1081=IFCFACE((#661));
#1082=IFCFACE((#662));
#1083=IFCFACE((#663));
#1084=IFCFACE((#664));
#1085=IFCFACE((#665));
#1086=IFCFACE((#666));
#1087=IFCFACE((#667));
#1088=IFCFACE((#668));
#1089=IFCFACE((#669));
#1090=IFCFACE((#670));
#1091=IFCFACE((#671));
#1092=IFCFACE((#672));
#1093=IFCFACE((#673));
#1094=IFCFACE((#674));
#1095=IFCFACE((#675));
#1096=IFCFACE((#676));
#1097=IFCFACE((#677));
#1098=IFCFACE((#678));
#1099=IFCFACE((#679));
#1100=IFCFACE((#680));
#1101=IFCFACE((#681));
#1102=IFCFACE((#682));
#1103=IFCFACE((#683));
#1104=IFCFACE((#684));
#1105=IFCFACE((#685));
#1106=IFCFACE((#686));
#1107=IFCFACE((#687));
#1108=IFCFACE((#688));
#1109=IFCFACE((#689));
#1110=IFCFACE((#690));
#1111=IFCFACE((#691));
#1112=IFCFACE((#692));
#1113=IFCFACE((#693));
#1114=IFCFACE((#694));
#1115=IFCFACE((#695));
#1116=IFCFACE((#696));
#1117=IFCFACE((#697));
#1118=IFCFACE((#698));
#1119=IFCFACE((#699));
#1120=IFCFACE((#700));
#1121=IFCFACE((#701));
#1122=IFCFACE((#702));
#1123=IFCFACE((#703));
#1124=IFCFACE((#704));
#1125=IFCFACE((#705));
#1126=IFCFACE((#706));
#1127=IFCFACE((#707));
#1128=IFCFACE((#708));
#1129=IFCFACE((#709));
#1130=IFCFACE((#710));
#1131=IFCFACE((#711));
#1132=IFCFACE((#712));
#1133=IFCFACE((#713));
#1134=IFCFACE((#714));
#1135=IFCFACE((#715));
#1136=IFCFACE((#716));
#1137=IFCFACE((#717));
#1138=IFCFACE((#718));
#1139=IFCFACE((#719));
#1140=IFCFACE((#720));
#1141=IFCFACE((#721));
#1142=IFCFACE((#722));
#1143=IFCFACE((#723));
#1144=IFCFACE((#724));
#1145=IFCFACE((#725));
#1146=IFCFACE((#726));
#1147=IFCFACE((#727));
#1148=IFCFACE((#728));
#1149=IFCFACE((#729));
#1150=IFCFACE((#730));
#1151=IFCFACE((#731));
#1152=IFCFACE((#732));
#1153=IFCFACE((#733));
#1154=IFCFACE((#734));
#1155=IFCFACE((#735));
#1156=IFCFACE((#736));
#1157=IFCFACE((#737));
#1158=IFCFACE((#738));
#1159=IFCFACE((#739));
#1160=IFCFACE((#740));
#1161=IFCFACE((#741));
#1162=IFCFACE((#742));
#1163=IFCFACE((#743));
#1164=IFCFACE((#744));
#1165=IFCFACE((#745));
#1166=IFCFACE((#746));
#1167=IFCFACE((#747));
#1168=IFCFACE((#748));
#1169=IFCFACE((#749));
#1170=IFCFACE((#750));
#1171=IFCFACE((#751));
#1172=IFCFACE((#752));
#1173=IFCFACE((#753));
#1174=IFCFACE((#754));
#1175=IFCFACE((#755));
#1176=IFCFACE((#756));
#1177=IFCFACE((#757));
#1178=IFCFACE((#758));
#1179=IFCFACE((#759));
#1180=IFCFACE((#760));
#1181=IFCFACE((#761));
#1182=IFCFACE((#762));
#1183=IFCFACE((#763));
#1184=IFCFACE((#764));
#1185=IFCFACE((#765));
#1186=IFCFACE((#766));
#1187=IFCFACE((#767));
#1188=IFCFACE((#768));
#1189=IFCFACE((#769));
#1190=IFCFACE((#770));
#1191=IFCFACE((#771));
#1192=IFCFACE((#772));
#1193=IFCFACE((#773));
#1194=IFCFACE((#774));
#1195=IFCFACE((#775));
#1196=IFCFACE((#776));
#1197=IFCFACE((#777));
#1198=IFCFACE((#778));
#1199=IFCFACE((#779));
#1200=IFCFACE((#780));
#1201=IFCFACE((#781));
#1202=IFCFACE((#782));
#1203=IFCFACE((#783));
#1204=IFCFACE((#784));
#1205=IFCFACE((#785));
#1206=IFCFACE((#786));
#1207=IFCFACE((#787));
#1208=IFCFACE((#788));
#1209=IFCFACE((#789));
#1210=IFCFACE((#790));
#1211=IFCFACE((#791));
#1212=IFCFACE((#792));
#1213=IFCFACE((#793));
#1214=IFCFACE((#794));
#1215=IFCFACE((#795));
#1216=IFCFACE((#796));
#1217=IFCFACE((#797));
#1218=IFCFACE((#798));
#1219=IFCFACE((#799));
#1220=IFCFACE((#800));
#1221=IFCFACE((#801));
#1222=IFCFACE((#802));
#1223=IFCFACE((#803));
#1224=IFCFACE((#804));
#1225=IFCFACE((#805));
#1226=IFCFACE((#806));
#1227=IFCFACE((#807));
#1228=IFCFACE((#808));
#1229=IFCFACE((#809));
#1230=IFCFACE((#810));
#1231=IFCFACE((#811));
#1232=IFCFACE((#812));
#1233=IFCFACE((#813));
#1234=IFCFACE((#814));
#1235=IFCFACE((#815));
#1236=IFCFACE((#816));
#1237=IFCFACE((#817));
#1238=IFCFACE((#818));
#1239=IFCFACE((#819));
#1240=IFCFACE((#820));
#1241=IFCFACE((#821));
#1242=IFCFACE((#822));
#1243=IFCFACE((#823));
#1244=IFCFACE((#824));
#1245=IFCFACE((#825));
#1246=IFCFACE((#826));
#1247=IFCFACE((#827));
#1248=IFCFACE((#828));
#1249=IFCFACE((#829));
#1250=IFCFACE((#830));
#1251=IFCFACE((#831));
#1252=IFCFACE((#832));
#1253=IFCFACE((#833));
#1254=IFCFACE((#834));
#1255=IFCFACE((#835));
#1256=IFCFACE((#836));
#1257=IFCFACE((#837));
#1258=IFCFACE((#838));
#1259=IFCFACE((#839));
#1260=IFCFACE((#840));
#1261=IFCFACE((#841));
#1262=IFCFACE((#842));
#1263=IFCFACE((#843));
#1264=IFCFACE((#844));
#1265=IFCFACE((#845));
#1266=IFCFACE((#846));
#1267=IFCFACE((#847));
#1268=IFCFACE((#848));
#1269=IFCFACE((#849));
#1270=IFCFACE((#850));
#1271=IFCFACE((#851));
#1272=IFCFACE((#852));
#1273=IFCFACE((#853));
#1274=IFCFACE((#854));
#1275=IFCFACE((#855));
#1276=IFCFACE((#856));
#1277=IFCFACE((#857));
#1278=IFCFACE((#858));
#1279=IFCFACE((#859));
#1280=IFCFACE((#860));
#1281=IFCFACE((#861));
#1282=IFCFACE((#862));
#1283=IFCFACE((#863));
#1284=IFCFACE((#864));
#1285=IFCFACE((#865));
#1286=IFCCLOSEDSHELL((#866,#867,#868,#869,#870,#871,#872,#873,#874,#875,
#876,#877,#878,#879,#880,#881,#882,#883,#884,#885,#886,#887,#888,#889,#890,
#891,#892,#893,#894,#895,#896,#897,#898,#899,#900,#901,#902,#903,#904,#905,
#906,#907,#908,#909,#910,#911,#912,#913,#914,#915,#916,#917,#918,#919,#920,
#921,#922,#923,#924,#925,#926,#927,#928,#929,#930,#931,#932,#933,#934,#935,
#936,#937,#938,#939,#940,#941,#942,#943,#944,#945,#946,#947,#948,#949,#950,
#951,#952,#953,#954,#955,#956,#957,#958,#959,#960,#961,#962,#963,#964,#965,
#966,#967,#968,#969,#970,#971,#972,#973,#974,#975,#976,#977,#978,#979,#980,
#981,#982,#983,#984,#985,#986,#987,#988,#989,#990,#991,#992,#993,#994,#995,
#996,#997,#998,#999,#1000,#1001,#1002,#1003,#1004,#1005,#1006,#1007,#1008,
#1009,#1010,#1011,#1012,#1013,#1014,#1015,#1016,#1017,#1018,#1019,#1020,
#1021,#1022,#1023,#1024,#1025,#1026,#1027,#1028,#1029,#1030,#1031,#1032,
#1033,#1034,#1035,#1036,#1037,#1038,#1039,#1040,#1041,#1042,#1043,#1044,
#1045,#1046,#1047,#1048,#1049,#1050,#1051,#1052,#1053,#1054,#1055,#1056,
#1057,#1058,#1059,#1060,#1061,#1062,#1063,#1064,#1065,#1066,#1067,#1068,
#1069,#1070,#1071,#1072,#1073,#1074,#1075,#1076,#1077,#1078,#1079,#1080,
#1081,#1082,#1083,#1084,#1085,#1086,#1087,#1088,#1089,#1090,#1091,#1092,
#1093,#1094,#1095,#1096,#1097,#1098,#1099,#1100,#1101,#1102,#1103,#1104,
#1105,#1106,#1107,#1108,#1109,#1110,#1111,#1112,#1113,#1114,#1115,#1116,
#1117,#1118,#1119,#1120,#1121,#1122,#1123,#1124,#1125,#1126,#1127,#1128,
#1129,#1130,#1131,#1132,#1133,#1134,#1135,#1136,#1137,#1138,#1139,#1140,
#1141,#1142,#1143,#1144,#1145,#1146,#1147,#1148,#1149,#1150,#1151,#1152,
#1153,#1154,#1155,#1156,#1157,#1158,#1159,#1160,#1161,#1162,#1163,#1164,
#1165,#1166,#1167,#1168,#1169,#1170,#1171,#1172,#1173,#1174,#1175,#1176,
#1177,#1178,#1179,#1180,#1181,#1182,#1183,#1184,#1185,#1186,#1187,#1188,
#1189,#1190,#1191,#1192,#1193,#1194,#1195,#1196,#1197,#1198,#1199,#1200,
#1201,#1202,#1203,#1204,#1205,#1206,#1207,#1208,#1209,#1210,#1211,#1212,
#1213,#1214,#1215,#1216,#1217,#1218,#1219,#1220,#1221,#1222,#1223,#1224,
#1225,#1226,#1227,#1228,#1229,#1230,#1231,#1232,#1233,#1234,#1235,#1236,
#1237,#1238,#1239,#1240,#1241,#1242,#1243,#1244,#1245,#1246,#1247,#1248,
#1249,#1250,#1251,#1252,#1253,#1254,#1255,#1256,#1257,#1258,#1259,#1260,
#1261,#1262,#1263,#1264,#1265,#1266,#1267,#1268,#1269,#1270,#1271,#1272,
#1273,#1274,#1275,#1276,#1277,#1278,#1279,#1280,#1281,#1282,#1283,#1284,
#1285));
#1287=IFCSTYLEDITEM(#1292,(#1288),'');
#1288=IFCPRESENTATIONSTYLEASSIGNMENT((#1289));
#1289=IFCSURFACESTYLE('',.BOTH.,(#1290));
#1290=IFCSURFACESTYLERENDERING(#1291,0.,$,$,$,$,$,$,.NOTDEFINED.);
#1291=IFCCOLOURRGB('',0.660000026226044,0.608167588710785,0.532146632671356);
#1292=IFCFACETEDBREP(#1286);
#1293=IFCPROJECT('07hUkdHgGydfWsFJH56q5B',#1630,'Sand_4207456_AVV',' ',
' ',' ',' ',(#1625),#1294);
#1294=IFCUNITASSIGNMENT((#1626,#1627,#1628,#1629));
#1295=IFCGEOMETRICREPRESENTATIONSUBCONTEXT('Body','Model',*,*,*,*,#1625,
1.,.MODEL_VIEW.,$);
#1296=IFCAXIS2PLACEMENT3D(#1302,#1298,#1299);
#1297=IFCAXIS2PLACEMENT3D(#1624,#1300,#1301);
#1298=IFCDIRECTION((0.,0.,1.));
#1299=IFCDIRECTION((1.,0.,0.));
#1300=IFCDIRECTION((0.,0.,1.));
#1301=IFCDIRECTION((1.,0.,0.));
#1302=IFCCARTESIANPOINT((0.,0.,0.));
#1303=IFCCARTESIANPOINT((0.895418081857297,0.,2.18630892753907));
#1304=IFCCARTESIANPOINT((0.895418081857297,16.,2.18630892753907));
#1305=IFCCARTESIANPOINT((0.9,16.,2.15638586528478));
#1306=IFCCARTESIANPOINT((0.9,0.,2.15638586528478));
#1307=IFCCARTESIANPOINT((0.882092206906518,0.,2.2134898893568));
#1308=IFCCARTESIANPOINT((0.882092206906518,16.,2.2134898893568));
#1309=IFCCARTESIANPOINT((0.86124353651175,0.,2.23543793189619));
#1310=IFCCARTESIANPOINT((0.86124353651175,16.,2.23543793189619));
#1311=IFCCARTESIANPOINT((0.834782608695652,0.,2.25014177247108));
#1312=IFCCARTESIANPOINT((0.834782608695652,16.,2.25014177247108));
#1313=IFCCARTESIANPOINT((2.93915231795365E-16,0.,2.4));
#1314=IFCCARTESIANPOINT((2.93915231795365E-16,16.,2.4));
#1315=IFCCARTESIANPOINT((-0.834782608695652,0.,2.25014177247108));
#1316=IFCCARTESIANPOINT((-0.834782608695652,16.,2.25014177247108));
#1317=IFCCARTESIANPOINT((-0.86124353651175,0.,2.23543793189619));
#1318=IFCCARTESIANPOINT((-0.86124353651175,16.,2.23543793189619));
#1319=IFCCARTESIANPOINT((-0.882092206906518,0.,2.2134898893568));
#1320=IFCCARTESIANPOINT((-0.882092206906518,16.,2.2134898893568));
#1321=IFCCARTESIANPOINT((-0.895418081857297,0.,2.18630892753907));
#1322=IFCCARTESIANPOINT((-0.895418081857297,16.,2.18630892753907));
#1323=IFCCARTESIANPOINT((-0.9,0.,2.15638586528478));
#1324=IFCCARTESIANPOINT((-0.9,16.,2.15638586528478));
#1325=IFCCARTESIANPOINT((-0.9,0.,1.4));
#1326=IFCCARTESIANPOINT((-0.9,16.,1.4));
#1327=IFCCARTESIANPOINT((-0.938060233744357,0.,1.20865828381746));
#1328=IFCCARTESIANPOINT((-0.938060233744357,16.,1.20865828381746));
#1329=IFCCARTESIANPOINT((-1.04644660940673,0.,1.04644660940673));
#1330=IFCCARTESIANPOINT((-1.04644660940673,16.,1.04644660940673));
#1331=IFCCARTESIANPOINT((-1.20865828381746,0.,0.938060233744357));
#1332=IFCCARTESIANPOINT((-1.20865828381746,16.,0.938060233744357));
#1333=IFCCARTESIANPOINT((-1.4,0.,0.9));
#1334=IFCCARTESIANPOINT((-1.4,16.,0.9));
#1335=IFCCARTESIANPOINT((-2.15638586528478,0.,0.9));
#1336=IFCCARTESIANPOINT((-2.15638586528478,16.,0.9));
#1337=IFCCARTESIANPOINT((-2.18630892753907,0.,0.895418081857297));
#1338=IFCCARTESIANPOINT((-2.18630892753907,16.,0.895418081857297));
#1339=IFCCARTESIANPOINT((-2.2134898893568,0.,0.882092206906518));
#1340=IFCCARTESIANPOINT((-2.2134898893568,16.,0.882092206906518));
#1341=IFCCARTESIANPOINT((-2.23543793189619,0.,0.86124353651175));
#1342=IFCCARTESIANPOINT((-2.23543793189619,16.,0.86124353651175));
#1343=IFCCARTESIANPOINT((-2.25014177247108,0.,0.834782608695652));
#1344=IFCCARTESIANPOINT((-2.25014177247108,16.,0.834782608695652));
#1345=IFCCARTESIANPOINT((-2.4,0.,2.57250105497335E-15));
#1346=IFCCARTESIANPOINT((-2.4,16.,2.57250105497335E-15));
#1347=IFCCARTESIANPOINT((-2.25014177247108,0.,-0.834782608695652));
#1348=IFCCARTESIANPOINT((-2.25014177247108,16.,-0.834782608695652));
#1349=IFCCARTESIANPOINT((-2.23543793189619,0.,-0.86124353651175));
#1350=IFCCARTESIANPOINT((-2.23543793189619,16.,-0.86124353651175));
#1351=IFCCARTESIANPOINT((-2.2134898893568,0.,-0.882092206906518));
#1352=IFCCARTESIANPOINT((-2.2134898893568,16.,-0.882092206906518));
#1353=IFCCARTESIANPOINT((-2.18630892753907,0.,-0.895418081857297));
#1354=IFCCARTESIANPOINT((-2.18630892753907,16.,-0.895418081857297));
#1355=IFCCARTESIANPOINT((-2.15638586528478,0.,-0.9));
#1356=IFCCARTESIANPOINT((-2.15638586528478,16.,-0.9));
#1357=IFCCARTESIANPOINT((-1.4,0.,-0.9));
#1358=IFCCARTESIANPOINT((-1.4,16.,-0.9));
#1359=IFCCARTESIANPOINT((-1.20865828381746,0.,-0.938060233744357));
#1360=IFCCARTESIANPOINT((-1.20865828381746,16.,-0.938060233744357));
#1361=IFCCARTESIANPOINT((-1.04644660940673,0.,-1.04644660940673));
#1362=IFCCARTESIANPOINT((-1.04644660940673,16.,-1.04644660940673));
#1363=IFCCARTESIANPOINT((-0.938060233744357,0.,-1.20865828381746));
#1364=IFCCARTESIANPOINT((-0.938060233744357,16.,-1.20865828381746));
#1365=IFCCARTESIANPOINT((-0.9,0.,-1.4));
#1366=IFCCARTESIANPOINT((-0.9,16.,-1.4));
#1367=IFCCARTESIANPOINT((-0.9,0.,-2.15638586528478));
#1368=IFCCARTESIANPOINT((-0.9,16.,-2.15638586528478));
#1369=IFCCARTESIANPOINT((-0.895418081857297,0.,-2.18630892753907));
#1370=IFCCARTESIANPOINT((-0.895418081857297,16.,-2.18630892753907));
#1371=IFCCARTESIANPOINT((-0.882092206906518,0.,-2.2134898893568));
#1372=IFCCARTESIANPOINT((-0.882092206906518,16.,-2.2134898893568));
#1373=IFCCARTESIANPOINT((-0.86124353651175,0.,-2.23543793189619));
#1374=IFCCARTESIANPOINT((-0.86124353651175,16.,-2.23543793189619));
#1375=IFCCARTESIANPOINT((-0.834782608695652,0.,-2.25014177247108));
#1376=IFCCARTESIANPOINT((-0.834782608695652,16.,-2.25014177247108));
#1377=IFCCARTESIANPOINT((-5.87830463590729E-16,0.,-2.4));
#1378=IFCCARTESIANPOINT((-5.87830463590729E-16,16.,-2.4));
#1379=IFCCARTESIANPOINT((0.834782608695652,0.,-2.25014177247108));
#1380=IFCCARTESIANPOINT((0.834782608695652,16.,-2.25014177247108));
#1381=IFCCARTESIANPOINT((0.86124353651175,0.,-2.23543793189619));
#1382=IFCCARTESIANPOINT((0.86124353651175,16.,-2.23543793189619));
#1383=IFCCARTESIANPOINT((0.882092206906518,0.,-2.2134898893568));
#1384=IFCCARTESIANPOINT((0.882092206906518,16.,-2.2134898893568));
#1385=IFCCARTESIANPOINT((0.895418081857297,0.,-2.18630892753907));
#1386=IFCCARTESIANPOINT((0.895418081857297,16.,-2.18630892753907));
#1387=IFCCARTESIANPOINT((0.9,0.,-2.15638586528478));
#1388=IFCCARTESIANPOINT((0.9,16.,-2.15638586528478));
#1389=IFCCARTESIANPOINT((0.9,0.,-1.4));
#1390=IFCCARTESIANPOINT((0.9,16.,-1.4));
#1391=IFCCARTESIANPOINT((0.938060233744357,0.,-1.20865828381746));
#1392=IFCCARTESIANPOINT((0.938060233744357,16.,-1.20865828381746));
#1393=IFCCARTESIANPOINT((1.04644660940673,0.,-1.04644660940673));
#1394=IFCCARTESIANPOINT((1.04644660940673,16.,-1.04644660940673));
#1395=IFCCARTESIANPOINT((1.20865828381746,0.,-0.938060233744357));
#1396=IFCCARTESIANPOINT((1.20865828381746,16.,-0.938060233744357));
#1397=IFCCARTESIANPOINT((1.4,0.,-0.9));
#1398=IFCCARTESIANPOINT((1.4,16.,-0.9));
#1399=IFCCARTESIANPOINT((2.15638586528478,0.,-0.9));
#1400=IFCCARTESIANPOINT((2.15638586528478,16.,-0.9));
#1401=IFCCARTESIANPOINT((2.18630892753907,0.,-0.895418081857298));
#1402=IFCCARTESIANPOINT((2.18630892753907,16.,-0.895418081857298));
#1403=IFCCARTESIANPOINT((2.2134898893568,0.,-0.882092206906518));
#1404=IFCCARTESIANPOINT((2.2134898893568,16.,-0.882092206906518));
#1405=IFCCARTESIANPOINT((2.23543793189619,0.,-0.86124353651175));
#1406=IFCCARTESIANPOINT((2.23543793189619,16.,-0.86124353651175));
#1407=IFCCARTESIANPOINT((2.25014177247108,0.,-0.834782608695652));
#1408=IFCCARTESIANPOINT((2.25014177247108,16.,-0.834782608695652));
#1409=IFCCARTESIANPOINT((0.9,16.,1.4));
#1410=IFCCARTESIANPOINT((0.9,0.,1.4));
#1411=IFCCARTESIANPOINT((1.20865828381746,0.,0.938060233744357));
#1412=IFCCARTESIANPOINT((1.20865828381746,16.,0.938060233744357));
#1413=IFCCARTESIANPOINT((1.4,16.,0.9));
#1414=IFCCARTESIANPOINT((1.4,0.,0.9));
#1415=IFCCARTESIANPOINT((1.04644660940673,0.,1.04644660940673));
#1416=IFCCARTESIANPOINT((1.04644660940673,16.,1.04644660940673));
#1417=IFCCARTESIANPOINT((0.938060233744357,0.,1.20865828381746));
#1418=IFCCARTESIANPOINT((0.938060233744357,16.,1.20865828381746));
#1419=IFCCARTESIANPOINT((2.15638586528478,16.,0.9));
#1420=IFCCARTESIANPOINT((2.15638586528478,0.,0.9));
#1421=IFCCARTESIANPOINT((2.23543793189619,0.,0.86124353651175));
#1422=IFCCARTESIANPOINT((2.23543793189619,16.,0.86124353651175));
#1423=IFCCARTESIANPOINT((2.25014177247108,16.,0.834782608695652));
#1424=IFCCARTESIANPOINT((2.25014177247108,0.,0.834782608695652));
#1425=IFCCARTESIANPOINT((2.2134898893568,0.,0.882092206906518));
#1426=IFCCARTESIANPOINT((2.2134898893568,16.,0.882092206906518));
#1427=IFCCARTESIANPOINT((2.18630892753907,0.,0.895418081857297));
#1428=IFCCARTESIANPOINT((2.18630892753907,16.,0.895418081857297));
#1429=IFCCARTESIANPOINT((2.4,0.,-1.46957615897682E-16));
#1430=IFCCARTESIANPOINT((2.4,16.,-1.46957615897682E-16));
#1431=IFCCARTESIANPOINT((2.40285088177294,0.,1.89364465959652));
#1432=IFCCARTESIANPOINT((-1.89364465959652,0.,2.40285088177294));
#1433=IFCCARTESIANPOINT((1.89364465959652,0.,2.40285088177294));
#1434=IFCCARTESIANPOINT((1.89364465959652,0.,-2.40285088177294));
#1435=IFCCARTESIANPOINT((-2.40285088177294,0.,-1.89364465959652));
#1436=IFCCARTESIANPOINT((-2.40285088177294,0.,1.89364465959652));
#1437=IFCCARTESIANPOINT((3.24327199048154,0.,1.56242977306435));
#1438=IFCCARTESIANPOINT((-1.56242977306435,0.,3.24327199048154));
#1439=IFCCARTESIANPOINT((3.55976624920934,0.,0.536716173587152));
#1440=IFCCARTESIANPOINT((-3.24327199048154,0.,-1.56242977306435));
#1441=IFCCARTESIANPOINT((-0.53671617358715,0.,3.55976624920935));
#1442=IFCCARTESIANPOINT((-3.55976624920935,0.,-0.536716173587148));
#1443=IFCCARTESIANPOINT((2.40285088177294,0.,-1.89364465959652));
#1444=IFCCARTESIANPOINT((3.24327199048154,0.,-1.56242977306435));
#1445=IFCCARTESIANPOINT((3.55976624920935,0.,-0.536716173587151));
#1446=IFCCARTESIANPOINT((1.56242977306435,0.,-3.24327199048154));
#1447=IFCCARTESIANPOINT((-1.89364465959652,0.,-2.40285088177294));
#1448=IFCCARTESIANPOINT((-1.56242977306435,0.,-3.24327199048154));
#1449=IFCCARTESIANPOINT((1.56242977306435,0.,3.24327199048154));
#1450=IFCCARTESIANPOINT((0.536716173587152,0.,3.55976624920934));
#1451=IFCCARTESIANPOINT((-3.24327199048154,0.,1.56242977306435));
#1452=IFCCARTESIANPOINT((-3.55976624920934,0.,0.536716173587155));
#1453=IFCCARTESIANPOINT((-0.536716173587153,0.,-3.55976624920934));
#1454=IFCCARTESIANPOINT((0.536716173587151,0.,-3.55976624920935));
#1455=IFCCARTESIANPOINT((-1.89364465959652,16.,2.40285088177294));
#1456=IFCCARTESIANPOINT((-2.40285088177294,16.,1.89364465959652));
#1457=IFCCARTESIANPOINT((-2.40285088177294,16.,-1.89364465959652));
#1458=IFCCARTESIANPOINT((-1.89364465959652,16.,-2.40285088177294));
#1459=IFCCARTESIANPOINT((1.89364465959652,16.,-2.40285088177294));
#1460=IFCCARTESIANPOINT((2.40285088177294,16.,-1.89364465959652));
#1461=IFCCARTESIANPOINT((2.40285088177294,16.,1.89364465959652));
#1462=IFCCARTESIANPOINT((1.89364465959652,16.,2.40285088177294));
#1463=IFCCARTESIANPOINT((-3.55976624920934,3.60000000000001,-0.536716173587148));
#1464=IFCCARTESIANPOINT((-3.24327199048154,3.60000000000001,-1.56242977306435));
#1465=IFCCARTESIANPOINT((-3.55976624920934,3.60000000000001,0.536716173587154));
#1466=IFCCARTESIANPOINT((-3.24327199048154,3.60000000000001,1.56242977306435));
#1467=IFCCARTESIANPOINT((0.536716173587151,3.60000000000001,-3.55976624920935));
#1468=IFCCARTESIANPOINT((1.56242977306435,3.60000000000001,-3.24327199048154));
#1469=IFCCARTESIANPOINT((-0.536716173587152,3.60000000000001,-3.55976624920935));
#1470=IFCCARTESIANPOINT((-1.56242977306435,3.60000000000001,-3.24327199048154));
#1471=IFCCARTESIANPOINT((3.55976624920935,3.60000000000001,0.536716173587153));
#1472=IFCCARTESIANPOINT((3.24327199048154,3.60000000000001,1.56242977306435));
#1473=IFCCARTESIANPOINT((3.55976624920935,3.60000000000001,-0.536716173587151));
#1474=IFCCARTESIANPOINT((3.24327199048154,3.60000000000001,-1.56242977306435));
#1475=IFCCARTESIANPOINT((-0.536716173587152,3.60000000000001,3.55976624920935));
#1476=IFCCARTESIANPOINT((-1.56242977306435,3.60000000000001,3.24327199048154));
#1477=IFCCARTESIANPOINT((0.53671617358715,3.60000000000001,3.55976624920935));
#1478=IFCCARTESIANPOINT((1.56242977306435,3.60000000000001,3.24327199048154));
#1479=IFCCARTESIANPOINT((1.35780045342465,4.,3.76249623636753));
#1480=IFCCARTESIANPOINT((-0.59635130398572,4.,3.95529583245483));
#1481=IFCCARTESIANPOINT((-1.35780045342465,4.,3.76249623636753));
#1482=IFCCARTESIANPOINT((0.596351303985725,4.,3.95529583245483));
#1483=IFCCARTESIANPOINT((-1.35780045342465,4.,-3.76249623636752));
#1484=IFCCARTESIANPOINT((0.596351303985723,4.,-3.95529583245482));
#1485=IFCCARTESIANPOINT((1.35780045342465,4.,-3.76249623636752));
#1486=IFCCARTESIANPOINT((-0.596351303985725,4.,-3.95529583245482));
#1487=IFCCARTESIANPOINT((-3.95529583245483,4.,-0.596351303985719));
#1488=IFCCARTESIANPOINT((-3.76249623636753,4.,-1.35780045342465));
#1489=IFCCARTESIANPOINT((-3.76249623636753,4.,1.35780045342465));
#1490=IFCCARTESIANPOINT((-3.95529583245483,4.,0.596351303985728));
#1491=IFCCARTESIANPOINT((3.95529583245483,4.,0.596351303985725));
#1492=IFCCARTESIANPOINT((3.76249623636753,4.,1.35780045342465));
#1493=IFCCARTESIANPOINT((3.76249623636753,4.,-1.35780045342465));
#1494=IFCCARTESIANPOINT((3.95529583245483,4.,-0.596351303985723));
#1495=IFCCARTESIANPOINT((0.536716173587152,4.4,3.55976624920935));
#1496=IFCCARTESIANPOINT((-0.536716173587147,4.4,3.55976624920935));
#1497=IFCCARTESIANPOINT((-1.56242977306435,4.40000000000001,3.24327199048154));
#1498=IFCCARTESIANPOINT((1.56242977306435,4.40000000000001,3.24327199048154));
#1499=IFCCARTESIANPOINT((-0.536716173587152,7.6,3.55976624920935));
#1500=IFCCARTESIANPOINT((-1.56242977306435,7.6,3.24327199048154));
#1501=IFCCARTESIANPOINT((0.536716173587151,7.6,3.55976624920935));
#1502=IFCCARTESIANPOINT((1.56242977306435,7.6,3.24327199048154));
#1503=IFCCARTESIANPOINT((1.35780045342465,8.00000000000001,3.76249623636753));
#1504=IFCCARTESIANPOINT((-0.596351303985719,8.00000000000001,3.95529583245483));
#1505=IFCCARTESIANPOINT((-1.35780045342465,8.00000000000001,3.76249623636753));
#1506=IFCCARTESIANPOINT((0.596351303985725,8.00000000000001,3.95529583245483));
#1507=IFCCARTESIANPOINT((0.536716173587152,8.4,3.55976624920935));
#1508=IFCCARTESIANPOINT((-0.536716173587147,8.4,3.55976624920935));
#1509=IFCCARTESIANPOINT((-1.56242977306435,8.40000000000001,3.24327199048154));
#1510=IFCCARTESIANPOINT((1.56242977306435,8.40000000000001,3.24327199048154));
#1511=IFCCARTESIANPOINT((-0.536716173587151,11.6,3.55976624920935));
#1512=IFCCARTESIANPOINT((-1.56242977306435,11.6,3.24327199048154));
#1513=IFCCARTESIANPOINT((0.536716173587151,11.6,3.55976624920935));
#1514=IFCCARTESIANPOINT((1.56242977306435,11.6,3.24327199048154));
#1515=IFCCARTESIANPOINT((1.35780045342465,12.,3.76249623636753));
#1516=IFCCARTESIANPOINT((-0.596351303985721,12.,3.95529583245483));
#1517=IFCCARTESIANPOINT((-1.35780045342465,12.,3.76249623636753));
#1518=IFCCARTESIANPOINT((0.596351303985725,12.,3.95529583245483));
#1519=IFCCARTESIANPOINT((-1.56242977306435,12.4,3.24327199048154));
#1520=IFCCARTESIANPOINT((-1.56242977306435,16.,3.24327199048154));
#1521=IFCCARTESIANPOINT((1.56242977306435,12.4,3.24327199048154));
#1522=IFCCARTESIANPOINT((1.56242977306435,16.,3.24327199048154));
#1523=IFCCARTESIANPOINT((-0.536716173587148,12.4,3.55976624920935));
#1524=IFCCARTESIANPOINT((-0.53671617358715,16.,3.55976624920935));
#1525=IFCCARTESIANPOINT((0.536716173587152,12.4,3.55976624920935));
#1526=IFCCARTESIANPOINT((0.536716173587152,16.,3.55976624920934));
#1527=IFCCARTESIANPOINT((-0.536716173587153,4.39999999999999,-3.55976624920935));
#1528=IFCCARTESIANPOINT((0.536716173587152,4.39999999999999,-3.55976624920935));
#1529=IFCCARTESIANPOINT((1.56242977306435,4.4,-3.24327199048154));
#1530=IFCCARTESIANPOINT((-1.56242977306435,4.4,-3.24327199048154));
#1531=IFCCARTESIANPOINT((0.536716173587152,7.6,-3.55976624920935));
#1532=IFCCARTESIANPOINT((1.56242977306435,7.6,-3.24327199048154));
#1533=IFCCARTESIANPOINT((-0.53671617358715,7.6,-3.55976624920935));
#1534=IFCCARTESIANPOINT((-1.56242977306435,7.6,-3.24327199048154));
#1535=IFCCARTESIANPOINT((-1.35780045342465,8.00000000000001,-3.76249623636752));
#1536=IFCCARTESIANPOINT((0.596351303985723,8.00000000000001,-3.95529583245482));
#1537=IFCCARTESIANPOINT((1.35780045342465,8.00000000000001,-3.76249623636752));
#1538=IFCCARTESIANPOINT((-0.596351303985724,8.00000000000001,-3.95529583245482));
#1539=IFCCARTESIANPOINT((-0.536716173587153,8.4,-3.55976624920935));
#1540=IFCCARTESIANPOINT((0.536716173587152,8.4,-3.55976624920935));
#1541=IFCCARTESIANPOINT((1.56242977306435,8.4,-3.24327199048154));
#1542=IFCCARTESIANPOINT((-1.56242977306435,8.4,-3.24327199048154));
#1543=IFCCARTESIANPOINT((0.536716173587152,11.6,-3.55976624920935));
#1544=IFCCARTESIANPOINT((1.56242977306435,11.6,-3.24327199048154));
#1545=IFCCARTESIANPOINT((-0.53671617358715,11.6,-3.55976624920935));
#1546=IFCCARTESIANPOINT((-1.56242977306435,11.6,-3.24327199048154));
#1547=IFCCARTESIANPOINT((-1.35780045342465,12.,-3.76249623636752));
#1548=IFCCARTESIANPOINT((0.596351303985724,12.,-3.95529583245482));
#1549=IFCCARTESIANPOINT((1.35780045342465,12.,-3.76249623636752));
#1550=IFCCARTESIANPOINT((-0.596351303985724,12.,-3.95529583245482));
#1551=IFCCARTESIANPOINT((-1.56242977306435,12.4,-3.24327199048154));
#1552=IFCCARTESIANPOINT((-1.56242977306435,16.,-3.24327199048154));
#1553=IFCCARTESIANPOINT((1.56242977306435,12.4,-3.24327199048154));
#1554=IFCCARTESIANPOINT((1.56242977306435,16.,-3.24327199048154));
#1555=IFCCARTESIANPOINT((0.536716173587152,12.4,-3.55976624920935));
#1556=IFCCARTESIANPOINT((0.536716173587151,16.,-3.55976624920935));
#1557=IFCCARTESIANPOINT((-0.536716173587153,12.4,-3.55976624920935));
#1558=IFCCARTESIANPOINT((-0.536716173587153,16.,-3.55976624920934));
#1559=IFCCARTESIANPOINT((-3.55976624920934,4.4,-0.536716173587147));
#1560=IFCCARTESIANPOINT((-3.24327199048154,4.4,-1.56242977306435));
#1561=IFCCARTESIANPOINT((-3.55976624920934,4.4,0.536716173587156));
#1562=IFCCARTESIANPOINT((-3.24327199048154,4.40000000000001,1.56242977306435));
#1563=IFCCARTESIANPOINT((-3.55976624920934,7.6,-0.536716173587148));
#1564=IFCCARTESIANPOINT((-3.24327199048154,7.6,-1.56242977306435));
#1565=IFCCARTESIANPOINT((-3.55976624920934,7.6,0.536716173587155));
#1566=IFCCARTESIANPOINT((-3.24327199048154,7.6,1.56242977306435));
#1567=IFCCARTESIANPOINT((-3.95529583245483,8.00000000000001,-0.596351303985719));
#1568=IFCCARTESIANPOINT((-3.76249623636753,8.00000000000001,-1.35780045342465));
#1569=IFCCARTESIANPOINT((-3.76249623636753,8.00000000000001,1.35780045342465));
#1570=IFCCARTESIANPOINT((-3.95529583245483,8.00000000000001,0.596351303985729));
#1571=IFCCARTESIANPOINT((-3.55976624920934,8.4,-0.536716173587146));
#1572=IFCCARTESIANPOINT((-3.24327199048154,8.4,-1.56242977306435));
#1573=IFCCARTESIANPOINT((-3.55976624920934,8.4,0.536716173587156));
#1574=IFCCARTESIANPOINT((-3.24327199048154,8.40000000000001,1.56242977306435));
#1575=IFCCARTESIANPOINT((-3.55976624920934,11.6,-0.536716173587148));
#1576=IFCCARTESIANPOINT((-3.24327199048154,11.6,-1.56242977306435));
#1577=IFCCARTESIANPOINT((-3.55976624920934,11.6,0.536716173587155));
#1578=IFCCARTESIANPOINT((-3.24327199048154,11.6,1.56242977306435));
#1579=IFCCARTESIANPOINT((-3.95529583245483,12.,-0.596351303985719));
#1580=IFCCARTESIANPOINT((-3.76249623636753,12.,-1.35780045342465));
#1581=IFCCARTESIANPOINT((-3.76249623636753,12.,1.35780045342465));
#1582=IFCCARTESIANPOINT((-3.95529583245483,12.,0.596351303985729));
#1583=IFCCARTESIANPOINT((-3.24327199048154,12.4,1.56242977306435));
#1584=IFCCARTESIANPOINT((-3.24327199048154,16.,1.56242977306435));
#1585=IFCCARTESIANPOINT((-3.24327199048154,12.4,-1.56242977306435));
#1586=IFCCARTESIANPOINT((-3.24327199048154,16.,-1.56242977306435));
#1587=IFCCARTESIANPOINT((-3.55976624920934,12.4,-0.536716173587146));
#1588=IFCCARTESIANPOINT((-3.55976624920935,16.,-0.536716173587148));
#1589=IFCCARTESIANPOINT((-3.55976624920934,12.4,0.536716173587156));
#1590=IFCCARTESIANPOINT((-3.55976624920934,16.,0.536716173587155));
#1591=IFCCARTESIANPOINT((3.24327199048154,16.,-1.56242977306435));
#1592=IFCCARTESIANPOINT((3.55976624920935,16.,-0.536716173587151));
#1593=IFCCARTESIANPOINT((3.24327199048154,16.,1.56242977306435));
#1594=IFCCARTESIANPOINT((3.55976624920934,16.,0.536716173587152));
#1595=IFCCARTESIANPOINT((3.55976624920935,12.4,0.536716173587153));
#1596=IFCCARTESIANPOINT((3.24327199048154,12.4,1.56242977306435));
#1597=IFCCARTESIANPOINT((3.55976624920935,12.4,-0.536716173587151));
#1598=IFCCARTESIANPOINT((3.24327199048154,12.4,-1.56242977306435));
#1599=IFCCARTESIANPOINT((3.76249623636753,12.,1.35780045342465));
#1600=IFCCARTESIANPOINT((3.95529583245483,12.,-0.596351303985723));
#1601=IFCCARTESIANPOINT((3.76249623636753,12.,-1.35780045342465));
#1602=IFCCARTESIANPOINT((3.95529583245483,12.,0.596351303985725));
#1603=IFCCARTESIANPOINT((3.55976624920935,11.6,0.536716173587153));
#1604=IFCCARTESIANPOINT((3.55976624920935,11.6,-0.536716173587151));
#1605=IFCCARTESIANPOINT((3.24327199048154,11.6,-1.56242977306435));
#1606=IFCCARTESIANPOINT((3.24327199048154,11.6,1.56242977306435));
#1607=IFCCARTESIANPOINT((3.55976624920935,8.4,0.536716173587154));
#1608=IFCCARTESIANPOINT((3.24327199048154,8.40000000000001,1.56242977306435));
#1609=IFCCARTESIANPOINT((3.55976624920935,8.4,-0.536716173587151));
#1610=IFCCARTESIANPOINT((3.24327199048154,8.4,-1.56242977306435));
#1611=IFCCARTESIANPOINT((3.76249623636753,8.00000000000001,1.35780045342465));
#1612=IFCCARTESIANPOINT((3.95529583245483,8.00000000000001,-0.596351303985724));
#1613=IFCCARTESIANPOINT((3.76249623636753,8.00000000000001,-1.35780045342465));
#1614=IFCCARTESIANPOINT((3.95529583245483,8.00000000000001,0.596351303985725));
#1615=IFCCARTESIANPOINT((3.24327199048154,7.6,-1.56242977306435));
#1616=IFCCARTESIANPOINT((3.24327199048154,4.4,-1.56242977306435));
#1617=IFCCARTESIANPOINT((3.24327199048154,4.4,1.56242977306435));
#1618=IFCCARTESIANPOINT((3.24327199048154,7.6,1.56242977306435));
#1619=IFCCARTESIANPOINT((3.55976624920935,4.4,0.536716173587153));
#1620=IFCCARTESIANPOINT((3.55976624920935,7.6,0.536716173587153));
#1621=IFCCARTESIANPOINT((3.55976624920935,4.4,-0.536716173587151));
#1622=IFCCARTESIANPOINT((3.55976624920935,7.6,-0.536716173587151));
#1623=IFCCARTESIANPOINT((0.,0.,0.));
#1624=IFCCARTESIANPOINT((0.,0.,0.));
#1625=IFCGEOMETRICREPRESENTATIONCONTEXT($,'Model',3,0.005,#1296,$);
#1626=IFCSIUNIT(*,.LENGTHUNIT.,.MILLI.,.METRE.);
#1627=IFCSIUNIT(*,.AREAUNIT.,$,.SQUARE_METRE.);
#1628=IFCSIUNIT(*,.VOLUMEUNIT.,$,.CUBIC_METRE.);
#1629=IFCSIUNIT(*,.PLANEANGLEUNIT.,$,.RADIAN.);
#1630=IFCOWNERHISTORY(#1632,#1631,$,.NOCHANGE.,0,$,$,0);
#1631=IFCAPPLICATION(#1633,' ',' ',' ');
#1632=IFCPERSONANDORGANIZATION(#1634,#1633,$);
#1633=IFCORGANIZATION($,' ',$,$,$);
#1634=IFCPERSON(' ',' ',' ',$,$,$,$,$);
ENDSEC;
END-ISO-10303-21;
