ISO-10303-21;
HEADER;
/* Generated by software containing ST-Developer
 * from STEP Tools, Inc. (www.steptools.com) 
 */
/* OPTION: strings as raw bytes, not using required /X/ escapes */

FILE_DESCRIPTION(
/* description */ ('Unknown'),
/* implementation_level */ '2;1');

FILE_NAME(
/* name */ 'Sand_4565452_AVV',
/* time_stamp */ '2025-07-22T00:04:53+02:00',
/* author */ ('Unknown'),
/* organization */ ('Unknown'),
/* preprocessor_version */ 'ST-DEVELOPER v19.4',
/* originating_system */ 'Unknown',
/* authorisation */ 'OpenTools');

FILE_SCHEMA (('IFC2X3'));
ENDSEC;

DATA;
#10=IFCPROPERTYSINGLEVALUE('ProjectName',$,IFCTEXT(''),$);
#11=IFCPROPERTYSINGLEVALUE('PartNumber',$,IFCTEXT(''),$);
#12=IFCRELDEFINESBYPROPERTIES('3cRq1JQpSwDOm5lsE5cG83',#1549,$,$,(#14),
#13);
#13=IFCPROPERTYSET('1jOd4kXgWorA4TVRi95rqH',#1549,
'empty property set name',$,(#10,#11));
#14=IFCBUILDINGELEMENTPROXY('2GP_XOK7Wq1Pa1NGQTVWHM',#1549,
'Sand_4565452_AVV',' ','Sand_4565452_AVV',#19,#15,' ',.ELEMENT.);
#15=IFCPRODUCTDEFINITIONSHAPE(' ',' ',(#25));
#16=IFCRELCONTAINEDINSPATIALSTRUCTURE('3HZhfx2I0vj9Cvp1GHER_f',#1549,
' ',' ',(#14),#20);
#17=IFCRELAGGREGATES('1jF0XzMGqvEA6wZwPLSawz',#1549,$,$,#1200,(#20));
#18=IFCLOCALPLACEMENT($,#1203);
#19=IFCLOCALPLACEMENT(#18,#1204);
#20=IFCBUILDING('3G2N19bOG__grq1LV0cQPU',#1549,'Default Building',$,$,#18,
$,$,.ELEMENT.,0.,0.,$);
#21=IFCCARTESIANTRANSFORMATIONOPERATOR3D($,$,#1542,1.,$);
#22=IFCMAPPEDITEM(#23,#21);
#23=IFCREPRESENTATIONMAP(#1203,#24);
#24=IFCSHAPEREPRESENTATION(#1202,'Body','Brep',(#1199));
#25=IFCSHAPEREPRESENTATION(#1202,'Body','MappedRepresentation',(#22));
#26=IFCPOLYLOOP((#1210,#1211,#1212,#1213));
#27=IFCPOLYLOOP((#1214,#1215,#1216,#1217));
#28=IFCPOLYLOOP((#1217,#1212,#1211,#1214));
#29=IFCPOLYLOOP((#1215,#1218,#1219,#1216));
#30=IFCPOLYLOOP((#1218,#1220,#1221,#1219));
#31=IFCPOLYLOOP((#1220,#1222,#1223,#1221));
#32=IFCPOLYLOOP((#1222,#1224,#1225,#1223));
#33=IFCPOLYLOOP((#1226,#1227,#1228,#1229));
#34=IFCPOLYLOOP((#1230,#1231,#1232,#1233));
#35=IFCPOLYLOOP((#1229,#1225,#1224,#1226));
#36=IFCPOLYLOOP((#1213,#1232,#1231,#1210));
#37=IFCPOLYLOOP((#1234,#1235,#1236,#1237));
#38=IFCPOLYLOOP((#1238,#1239,#1240,#1241));
#39=IFCPOLYLOOP((#1237,#1228,#1227,#1234));
#40=IFCPOLYLOOP((#1233,#1240,#1239,#1230));
#41=IFCPOLYLOOP((#1241,#1236,#1235,#1238));
#42=IFCPOLYLOOP((#1219,#1242,#1243,#1216));
#43=IFCPOLYLOOP((#1221,#1244,#1242,#1219));
#44=IFCPOLYLOOP((#1223,#1245,#1244,#1221));
#45=IFCPOLYLOOP((#1225,#1246,#1245,#1223));
#46=IFCPOLYLOOP((#1229,#1247,#1246,#1225));
#47=IFCPOLYLOOP((#1228,#1248,#1247,#1229));
#48=IFCPOLYLOOP((#1237,#1249,#1248,#1228));
#49=IFCPOLYLOOP((#1236,#1250,#1249,#1237));
#50=IFCPOLYLOOP((#1241,#1251,#1250,#1236));
#51=IFCPOLYLOOP((#1240,#1252,#1251,#1241));
#52=IFCPOLYLOOP((#1233,#1253,#1252,#1240));
#53=IFCPOLYLOOP((#1232,#1254,#1253,#1233));
#54=IFCPOLYLOOP((#1213,#1255,#1254,#1232));
#55=IFCPOLYLOOP((#1212,#1256,#1255,#1213));
#56=IFCPOLYLOOP((#1217,#1257,#1256,#1212));
#57=IFCPOLYLOOP((#1216,#1243,#1257,#1217));
#58=IFCPOLYLOOP((#1254,#1255,#1258,#1259));
#59=IFCPOLYLOOP((#1256,#1257,#1260,#1261));
#60=IFCPOLYLOOP((#1261,#1258,#1255,#1256));
#61=IFCPOLYLOOP((#1257,#1243,#1262,#1260));
#62=IFCPOLYLOOP((#1243,#1242,#1263,#1262));
#63=IFCPOLYLOOP((#1242,#1244,#1264,#1263));
#64=IFCPOLYLOOP((#1245,#1246,#1265,#1266));
#65=IFCPOLYLOOP((#1251,#1252,#1267,#1268));
#66=IFCPOLYLOOP((#1266,#1264,#1244,#1245));
#67=IFCPOLYLOOP((#1247,#1248,#1269,#1270));
#68=IFCPOLYLOOP((#1252,#1253,#1271,#1267));
#69=IFCPOLYLOOP((#1270,#1265,#1246,#1247));
#70=IFCPOLYLOOP((#1259,#1271,#1253,#1254));
#71=IFCPOLYLOOP((#1249,#1250,#1272,#1273));
#72=IFCPOLYLOOP((#1273,#1269,#1248,#1249));
#73=IFCPOLYLOOP((#1268,#1272,#1250,#1251));
#74=IFCPOLYLOOP((#1258,#1274,#1275));
#75=IFCPOLYLOOP((#1275,#1259,#1258));
#76=IFCPOLYLOOP((#1271,#1259,#1276));
#77=IFCPOLYLOOP((#1259,#1277,#1278,#1276));
#78=IFCPOLYLOOP((#1268,#1279,#1280));
#79=IFCPOLYLOOP((#1280,#1272,#1268));
#80=IFCPOLYLOOP((#1273,#1272,#1281));
#81=IFCPOLYLOOP((#1272,#1282,#1283,#1281));
#82=IFCPOLYLOOP((#1270,#1284,#1285));
#83=IFCPOLYLOOP((#1285,#1265,#1270));
#84=IFCPOLYLOOP((#1266,#1265,#1286));
#85=IFCPOLYLOOP((#1265,#1287,#1288,#1286));
#86=IFCPOLYLOOP((#1263,#1289,#1290));
#87=IFCPOLYLOOP((#1290,#1262,#1263));
#88=IFCPOLYLOOP((#1260,#1262,#1291));
#89=IFCPOLYLOOP((#1262,#1292,#1293,#1291));
#90=IFCPOLYLOOP((#1291,#1294,#1260));
#91=IFCPOLYLOOP((#1290,#1295,#1292,#1262));
#92=IFCPOLYLOOP((#1289,#1263,#1264,#1296));
#93=IFCPOLYLOOP((#1296,#1264,#1266,#1297));
#94=IFCPOLYLOOP((#1286,#1297,#1266));
#95=IFCPOLYLOOP((#1285,#1298,#1287,#1265));
#96=IFCPOLYLOOP((#1284,#1270,#1269,#1299));
#97=IFCPOLYLOOP((#1299,#1269,#1273,#1300));
#98=IFCPOLYLOOP((#1281,#1300,#1273));
#99=IFCPOLYLOOP((#1280,#1301,#1282,#1272));
#100=IFCPOLYLOOP((#1279,#1268,#1267,#1302));
#101=IFCPOLYLOOP((#1302,#1267,#1271,#1303));
#102=IFCPOLYLOOP((#1276,#1303,#1271));
#103=IFCPOLYLOOP((#1275,#1304,#1277,#1259));
#104=IFCPOLYLOOP((#1274,#1258,#1261,#1305));
#105=IFCPOLYLOOP((#1305,#1261,#1260,#1294));
#106=IFCPOLYLOOP((#1281,#1283,#1306,#1307));
#107=IFCPOLYLOOP((#1308,#1309,#1307,#1306));
#108=IFCPOLYLOOP((#1310,#1311,#1309,#1308));
#109=IFCPOLYLOOP((#1312,#1313,#1311,#1310));
#110=IFCPOLYLOOP((#1314,#1315,#1313,#1312));
#111=IFCPOLYLOOP((#1316,#1317,#1315,#1314));
#112=IFCPOLYLOOP((#1317,#1316,#1318,#1319));
#113=IFCPOLYLOOP((#1320,#1321,#1319,#1318));
#114=IFCPOLYLOOP((#1322,#1323,#1321,#1320));
#115=IFCPOLYLOOP((#1324,#1325,#1323,#1322));
#116=IFCPOLYLOOP((#1326,#1327,#1325,#1324));
#117=IFCPOLYLOOP((#1328,#1329,#1327,#1326));
#118=IFCPOLYLOOP((#1299,#1317,#1319,#1321,#1323,#1325,#1327,#1329));
#119=IFCPOLYLOOP((#1299,#1315,#1317));
#120=IFCPOLYLOOP((#1329,#1330,#1299));
#121=IFCPOLYLOOP((#1300,#1281,#1307,#1309));
#122=IFCPOLYLOOP((#1284,#1331,#1332));
#123=IFCPOLYLOOP((#1299,#1313,#1315));
#124=IFCPOLYLOOP((#1309,#1311,#1300));
#125=IFCPOLYLOOP((#1284,#1299,#1333,#1331));
#126=IFCPOLYLOOP((#1311,#1313,#1299,#1300));
#127=IFCPOLYLOOP((#1330,#1333,#1299));
#128=IFCPOLYLOOP((#1332,#1334,#1285,#1284));
#129=IFCPOLYLOOP((#1335,#1330,#1329,#1328));
#130=IFCPOLYLOOP((#1336,#1333,#1330,#1335));
#131=IFCPOLYLOOP((#1337,#1331,#1333,#1336));
#132=IFCPOLYLOOP((#1338,#1332,#1331,#1337));
#133=IFCPOLYLOOP((#1339,#1334,#1332,#1338));
#134=IFCPOLYLOOP((#1334,#1339,#1298,#1285));
#135=IFCPOLYLOOP((#1286,#1288,#1340,#1341));
#136=IFCPOLYLOOP((#1342,#1343,#1341,#1340));
#137=IFCPOLYLOOP((#1344,#1345,#1343,#1342));
#138=IFCPOLYLOOP((#1346,#1347,#1345,#1344));
#139=IFCPOLYLOOP((#1348,#1349,#1347,#1346));
#140=IFCPOLYLOOP((#1350,#1351,#1349,#1348));
#141=IFCPOLYLOOP((#1351,#1350,#1352,#1353));
#142=IFCPOLYLOOP((#1354,#1355,#1353,#1352));
#143=IFCPOLYLOOP((#1356,#1357,#1355,#1354));
#144=IFCPOLYLOOP((#1358,#1359,#1357,#1356));
#145=IFCPOLYLOOP((#1360,#1361,#1359,#1358));
#146=IFCPOLYLOOP((#1362,#1363,#1361,#1360));
#147=IFCPOLYLOOP((#1296,#1351,#1353,#1355,#1357,#1359,#1361,#1363));
#148=IFCPOLYLOOP((#1296,#1349,#1351));
#149=IFCPOLYLOOP((#1363,#1364,#1296));
#150=IFCPOLYLOOP((#1296,#1347,#1349));
#151=IFCPOLYLOOP((#1297,#1286,#1341,#1343));
#152=IFCPOLYLOOP((#1364,#1365,#1296));
#153=IFCPOLYLOOP((#1343,#1345,#1297));
#154=IFCPOLYLOOP((#1289,#1366,#1367));
#155=IFCPOLYLOOP((#1345,#1347,#1296,#1297));
#156=IFCPOLYLOOP((#1365,#1366,#1289,#1296));
#157=IFCPOLYLOOP((#1367,#1368,#1290,#1289));
#158=IFCPOLYLOOP((#1369,#1364,#1363,#1362));
#159=IFCPOLYLOOP((#1370,#1365,#1364,#1369));
#160=IFCPOLYLOOP((#1371,#1366,#1365,#1370));
#161=IFCPOLYLOOP((#1372,#1367,#1366,#1371));
#162=IFCPOLYLOOP((#1373,#1368,#1367,#1372));
#163=IFCPOLYLOOP((#1368,#1373,#1295,#1290));
#164=IFCPOLYLOOP((#1291,#1293,#1374,#1375));
#165=IFCPOLYLOOP((#1376,#1377,#1375,#1374));
#166=IFCPOLYLOOP((#1378,#1379,#1377,#1376));
#167=IFCPOLYLOOP((#1380,#1381,#1379,#1378));
#168=IFCPOLYLOOP((#1382,#1383,#1381,#1380));
#169=IFCPOLYLOOP((#1384,#1385,#1383,#1382));
#170=IFCPOLYLOOP((#1385,#1384,#1386,#1387));
#171=IFCPOLYLOOP((#1388,#1389,#1387,#1386));
#172=IFCPOLYLOOP((#1390,#1391,#1389,#1388));
#173=IFCPOLYLOOP((#1392,#1393,#1391,#1390));
#174=IFCPOLYLOOP((#1394,#1395,#1393,#1392));
#175=IFCPOLYLOOP((#1396,#1397,#1395,#1394));
#176=IFCPOLYLOOP((#1305,#1385,#1387,#1389,#1391,#1393,#1395,#1397));
#177=IFCPOLYLOOP((#1305,#1383,#1385));
#178=IFCPOLYLOOP((#1397,#1398,#1305));
#179=IFCPOLYLOOP((#1294,#1291,#1375,#1377));
#180=IFCPOLYLOOP((#1274,#1399,#1400));
#181=IFCPOLYLOOP((#1305,#1381,#1383));
#182=IFCPOLYLOOP((#1377,#1379,#1294));
#183=IFCPOLYLOOP((#1274,#1305,#1401,#1399));
#184=IFCPOLYLOOP((#1379,#1381,#1305,#1294));
#185=IFCPOLYLOOP((#1398,#1401,#1305));
#186=IFCPOLYLOOP((#1400,#1402,#1275,#1274));
#187=IFCPOLYLOOP((#1403,#1398,#1397,#1396));
#188=IFCPOLYLOOP((#1404,#1401,#1398,#1403));
#189=IFCPOLYLOOP((#1405,#1399,#1401,#1404));
#190=IFCPOLYLOOP((#1406,#1400,#1399,#1405));
#191=IFCPOLYLOOP((#1407,#1402,#1400,#1406));
#192=IFCPOLYLOOP((#1402,#1407,#1304,#1275));
#193=IFCPOLYLOOP((#1276,#1278,#1408,#1409));
#194=IFCPOLYLOOP((#1410,#1411,#1409,#1408));
#195=IFCPOLYLOOP((#1412,#1413,#1411,#1410));
#196=IFCPOLYLOOP((#1414,#1415,#1413,#1412));
#197=IFCPOLYLOOP((#1416,#1417,#1415,#1414));
#198=IFCPOLYLOOP((#1418,#1419,#1417,#1416));
#199=IFCPOLYLOOP((#1419,#1418,#1420,#1421));
#200=IFCPOLYLOOP((#1422,#1423,#1421,#1420));
#201=IFCPOLYLOOP((#1424,#1425,#1423,#1422));
#202=IFCPOLYLOOP((#1426,#1427,#1425,#1424));
#203=IFCPOLYLOOP((#1428,#1429,#1427,#1426));
#204=IFCPOLYLOOP((#1430,#1431,#1429,#1428));
#205=IFCPOLYLOOP((#1302,#1419,#1421,#1423,#1425,#1427,#1429,#1431));
#206=IFCPOLYLOOP((#1302,#1417,#1419));
#207=IFCPOLYLOOP((#1431,#1432,#1302));
#208=IFCPOLYLOOP((#1303,#1276,#1409,#1411));
#209=IFCPOLYLOOP((#1279,#1433,#1434));
#210=IFCPOLYLOOP((#1302,#1415,#1417));
#211=IFCPOLYLOOP((#1411,#1413,#1303));
#212=IFCPOLYLOOP((#1279,#1302,#1435,#1433));
#213=IFCPOLYLOOP((#1413,#1415,#1302,#1303));
#214=IFCPOLYLOOP((#1432,#1435,#1302));
#215=IFCPOLYLOOP((#1434,#1436,#1280,#1279));
#216=IFCPOLYLOOP((#1437,#1432,#1431,#1430));
#217=IFCPOLYLOOP((#1438,#1435,#1432,#1437));
#218=IFCPOLYLOOP((#1439,#1433,#1435,#1438));
#219=IFCPOLYLOOP((#1440,#1434,#1433,#1439));
#220=IFCPOLYLOOP((#1441,#1436,#1434,#1440));
#221=IFCPOLYLOOP((#1436,#1441,#1301,#1280));
#222=IFCPOLYLOOP((#1442,#1437,#1430));
#223=IFCPOLYLOOP((#1430,#1428,#1426,#1424,#1422,#1420,#1418,#1442));
#224=IFCPOLYLOOP((#1418,#1416,#1442));
#225=IFCPOLYLOOP((#1443,#1339,#1338));
#226=IFCPOLYLOOP((#1442,#1444,#1438,#1437));
#227=IFCPOLYLOOP((#1444,#1441,#1440));
#228=IFCPOLYLOOP((#1445,#1443,#1336,#1335));
#229=IFCPOLYLOOP((#1338,#1337,#1443));
#230=IFCPOLYLOOP((#1328,#1326,#1324,#1322,#1320,#1318,#1316));
#231=IFCPOLYLOOP((#1416,#1414,#1442));
#232=IFCPOLYLOOP((#1440,#1439,#1444));
#233=IFCPOLYLOOP((#1339,#1443,#1446,#1447));
#234=IFCPOLYLOOP((#1337,#1336,#1443));
#235=IFCPOLYLOOP((#1316,#1314,#1448,#1328));
#236=IFCPOLYLOOP((#1449,#1450,#1370,#1369));
#237=IFCPOLYLOOP((#1362,#1360,#1358,#1356,#1354,#1352,#1350));
#238=IFCPOLYLOOP((#1451,#1452,#1404,#1403));
#239=IFCPOLYLOOP((#1442,#1412,#1410));
#240=IFCPOLYLOOP((#1439,#1438,#1444));
#241=IFCPOLYLOOP((#1335,#1328,#1448,#1445));
#242=IFCPOLYLOOP((#1448,#1310,#1308));
#243=IFCPOLYLOOP((#1314,#1312,#1448));
#244=IFCPOLYLOOP((#1450,#1371,#1370));
#245=IFCPOLYLOOP((#1450,#1373,#1372));
#246=IFCPOLYLOOP((#1350,#1348,#1453,#1362));
#247=IFCPOLYLOOP((#1452,#1405,#1404));
#248=IFCPOLYLOOP((#1452,#1407,#1406));
#249=IFCPOLYLOOP((#1441,#1444,#1454,#1455));
#250=IFCPOLYLOOP((#1414,#1412,#1442));
#251=IFCPOLYLOOP((#1448,#1456,#1445));
#252=IFCPOLYLOOP((#1312,#1310,#1448));
#253=IFCPOLYLOOP((#1372,#1371,#1450));
#254=IFCPOLYLOOP((#1453,#1344,#1342));
#255=IFCPOLYLOOP((#1348,#1346,#1453));
#256=IFCPOLYLOOP((#1407,#1452,#1457,#1458));
#257=IFCPOLYLOOP((#1406,#1405,#1452));
#258=IFCPOLYLOOP((#1459,#1378,#1376));
#259=IFCPOLYLOOP((#1396,#1394,#1392,#1390,#1388,#1386,#1384));
#260=IFCPOLYLOOP((#1410,#1408,#1442));
#261=IFCPOLYLOOP((#1408,#1278,#1460,#1461));
#262=IFCPOLYLOOP((#1462,#1463,#1283,#1282));
#263=IFCPOLYLOOP((#1308,#1306,#1283,#1463,#1448));
#264=IFCPOLYLOOP((#1453,#1464,#1449));
#265=IFCPOLYLOOP((#1346,#1344,#1453));
#266=IFCPOLYLOOP((#1403,#1396,#1459,#1451));
#267=IFCPOLYLOOP((#1459,#1380,#1378));
#268=IFCPOLYLOOP((#1384,#1382,#1459,#1396));
#269=IFCPOLYLOOP((#1465,#1460,#1278,#1277));
#270=IFCPOLYLOOP((#1461,#1466,#1442,#1408));
#271=IFCPOLYLOOP((#1447,#1467,#1298,#1339));
#272=IFCPOLYLOOP((#1468,#1469,#1288,#1287));
#273=IFCPOLYLOOP((#1373,#1450,#1470,#1471));
#274=IFCPOLYLOOP((#1342,#1340,#1288,#1469,#1453));
#275=IFCPOLYLOOP((#1459,#1472,#1451));
#276=IFCPOLYLOOP((#1382,#1380,#1459));
#277=IFCPOLYLOOP((#1455,#1473,#1301,#1441));
#278=IFCPOLYLOOP((#1287,#1298,#1467,#1468));
#279=IFCPOLYLOOP((#1369,#1362,#1453,#1449));
#280=IFCPOLYLOOP((#1376,#1374,#1293,#1474,#1459));
#281=IFCPOLYLOOP((#1282,#1301,#1473,#1462));
#282=IFCPOLYLOOP((#1475,#1476,#1292,#1295));
#283=IFCPOLYLOOP((#1458,#1477,#1304,#1407));
#284=IFCPOLYLOOP((#1471,#1475,#1295,#1373));
#285=IFCPOLYLOOP((#1277,#1304,#1477,#1465));
#286=IFCPOLYLOOP((#1293,#1292,#1476,#1474));
#287=IFCPOLYLOOP((#1478,#1470,#1450,#1479));
#288=IFCPOLYLOOP((#1480,#1481,#1449,#1464));
#289=IFCPOLYLOOP((#1480,#1464,#1453,#1482));
#290=IFCPOLYLOOP((#1483,#1484,#1469,#1468));
#291=IFCPOLYLOOP((#1483,#1468,#1467,#1485));
#292=IFCPOLYLOOP((#1486,#1487,#1447,#1446));
#293=IFCPOLYLOOP((#1486,#1446,#1443,#1488));
#294=IFCPOLYLOOP((#1489,#1490,#1445,#1456));
#295=IFCPOLYLOOP((#1489,#1456,#1448,#1491));
#296=IFCPOLYLOOP((#1492,#1493,#1463,#1462));
#297=IFCPOLYLOOP((#1492,#1462,#1473,#1494));
#298=IFCPOLYLOOP((#1495,#1496,#1455,#1454));
#299=IFCPOLYLOOP((#1495,#1454,#1444,#1497));
#300=IFCPOLYLOOP((#1498,#1499,#1442,#1466));
#301=IFCPOLYLOOP((#1498,#1466,#1461,#1500));
#302=IFCPOLYLOOP((#1501,#1502,#1460,#1465));
#303=IFCPOLYLOOP((#1501,#1465,#1477,#1503));
#304=IFCPOLYLOOP((#1504,#1505,#1458,#1457));
#305=IFCPOLYLOOP((#1504,#1457,#1452,#1506));
#306=IFCPOLYLOOP((#1507,#1508,#1451,#1472));
#307=IFCPOLYLOOP((#1507,#1472,#1459,#1509));
#308=IFCPOLYLOOP((#1510,#1511,#1474,#1476));
#309=IFCPOLYLOOP((#1510,#1476,#1475,#1512));
#310=IFCPOLYLOOP((#1474,#1513,#1514,#1459));
#311=IFCPOLYLOOP((#1514,#1513,#1511,#1509));
#312=IFCPOLYLOOP((#1459,#1514,#1509));
#313=IFCPOLYLOOP((#1511,#1513,#1474));
#314=IFCPOLYLOOP((#1451,#1515,#1516,#1452));
#315=IFCPOLYLOOP((#1516,#1515,#1508,#1517,#1506));
#316=IFCPOLYLOOP((#1452,#1516,#1506));
#317=IFCPOLYLOOP((#1508,#1515,#1451));
#318=IFCPOLYLOOP((#1458,#1518,#1519,#1477));
#319=IFCPOLYLOOP((#1519,#1518,#1505,#1503));
#320=IFCPOLYLOOP((#1477,#1519,#1503));
#321=IFCPOLYLOOP((#1505,#1518,#1458));
#322=IFCPOLYLOOP((#1460,#1520,#1521,#1461));
#323=IFCPOLYLOOP((#1521,#1520,#1502,#1500));
#324=IFCPOLYLOOP((#1461,#1521,#1500));
#325=IFCPOLYLOOP((#1502,#1520,#1460));
#326=IFCPOLYLOOP((#1442,#1522,#1523,#1444));
#327=IFCPOLYLOOP((#1523,#1522,#1499,#1524,#1497));
#328=IFCPOLYLOOP((#1444,#1523,#1497));
#329=IFCPOLYLOOP((#1499,#1522,#1442));
#330=IFCPOLYLOOP((#1455,#1525,#1526,#1473));
#331=IFCPOLYLOOP((#1526,#1525,#1496,#1494));
#332=IFCPOLYLOOP((#1473,#1526,#1494));
#333=IFCPOLYLOOP((#1496,#1525,#1455));
#334=IFCPOLYLOOP((#1463,#1527,#1528,#1448));
#335=IFCPOLYLOOP((#1528,#1527,#1493,#1491));
#336=IFCPOLYLOOP((#1448,#1528,#1491));
#337=IFCPOLYLOOP((#1493,#1527,#1463));
#338=IFCPOLYLOOP((#1445,#1529,#1530,#1443));
#339=IFCPOLYLOOP((#1530,#1529,#1490,#1531,#1488));
#340=IFCPOLYLOOP((#1443,#1530,#1488));
#341=IFCPOLYLOOP((#1490,#1529,#1445));
#342=IFCPOLYLOOP((#1447,#1532,#1533,#1467));
#343=IFCPOLYLOOP((#1533,#1532,#1487,#1485));
#344=IFCPOLYLOOP((#1467,#1533,#1485));
#345=IFCPOLYLOOP((#1487,#1532,#1447));
#346=IFCPOLYLOOP((#1469,#1534,#1535,#1453));
#347=IFCPOLYLOOP((#1535,#1534,#1484,#1482));
#348=IFCPOLYLOOP((#1453,#1535,#1482));
#349=IFCPOLYLOOP((#1484,#1534,#1469));
#350=IFCPOLYLOOP((#1449,#1536,#1537,#1450));
#351=IFCPOLYLOOP((#1537,#1536,#1481,#1538,#1479));
#352=IFCPOLYLOOP((#1450,#1537,#1479));
#353=IFCPOLYLOOP((#1481,#1536,#1449));
#354=IFCPOLYLOOP((#1220,#1218,#1479));
#355=IFCPOLYLOOP((#1479,#1218,#1539));
#356=IFCPOLYLOOP((#1539,#1478,#1479));
#357=IFCPOLYLOOP((#1481,#1480,#1482));
#358=IFCPOLYLOOP((#1220,#1538,#1481));
#359=IFCPOLYLOOP((#1481,#1222,#1220));
#360=IFCPOLYLOOP((#1222,#1482,#1484));
#361=IFCPOLYLOOP((#1484,#1224,#1222));
#362=IFCPOLYLOOP((#1226,#1224,#1485));
#363=IFCPOLYLOOP((#1224,#1483,#1485));
#364=IFCPOLYLOOP((#1227,#1226,#1488));
#365=IFCPOLYLOOP((#1488,#1226,#1487));
#366=IFCPOLYLOOP((#1487,#1486,#1488));
#367=IFCPOLYLOOP((#1490,#1489,#1491));
#368=IFCPOLYLOOP((#1227,#1531,#1490));
#369=IFCPOLYLOOP((#1490,#1234,#1227));
#370=IFCPOLYLOOP((#1234,#1491,#1493));
#371=IFCPOLYLOOP((#1493,#1235,#1234));
#372=IFCPOLYLOOP((#1238,#1235,#1494));
#373=IFCPOLYLOOP((#1235,#1492,#1494));
#374=IFCPOLYLOOP((#1239,#1238,#1497));
#375=IFCPOLYLOOP((#1497,#1238,#1496));
#376=IFCPOLYLOOP((#1496,#1495,#1497));
#377=IFCPOLYLOOP((#1499,#1498,#1500));
#378=IFCPOLYLOOP((#1239,#1524,#1499));
#379=IFCPOLYLOOP((#1499,#1230,#1239));
#380=IFCPOLYLOOP((#1230,#1500,#1502));
#381=IFCPOLYLOOP((#1502,#1231,#1230));
#382=IFCPOLYLOOP((#1210,#1231,#1503));
#383=IFCPOLYLOOP((#1231,#1501,#1503));
#384=IFCPOLYLOOP((#1211,#1210,#1506));
#385=IFCPOLYLOOP((#1506,#1210,#1505));
#386=IFCPOLYLOOP((#1505,#1504,#1506));
#387=IFCPOLYLOOP((#1508,#1507,#1509));
#388=IFCPOLYLOOP((#1211,#1517,#1508));
#389=IFCPOLYLOOP((#1508,#1214,#1211));
#390=IFCPOLYLOOP((#1214,#1509,#1511));
#391=IFCPOLYLOOP((#1511,#1215,#1214));
#392=IFCPOLYLOOP((#1218,#1215,#1512));
#393=IFCPOLYLOOP((#1215,#1510,#1512));
#394=IFCPOLYLOOP((#1512,#1539,#1218));
#395=IFCPOLYLOOP((#1511,#1510,#1215));
#396=IFCPOLYLOOP((#1509,#1214,#1508));
#397=IFCPOLYLOOP((#1506,#1517,#1211));
#398=IFCPOLYLOOP((#1503,#1505,#1210));
#399=IFCPOLYLOOP((#1502,#1501,#1231));
#400=IFCPOLYLOOP((#1500,#1230,#1499));
#401=IFCPOLYLOOP((#1497,#1524,#1239));
#402=IFCPOLYLOOP((#1494,#1496,#1238));
#403=IFCPOLYLOOP((#1493,#1492,#1235));
#404=IFCPOLYLOOP((#1491,#1234,#1490));
#405=IFCPOLYLOOP((#1488,#1531,#1227));
#406=IFCPOLYLOOP((#1485,#1487,#1226));
#407=IFCPOLYLOOP((#1484,#1483,#1224));
#408=IFCPOLYLOOP((#1482,#1222,#1481));
#409=IFCPOLYLOOP((#1479,#1538,#1220));
#410=IFCPOLYLOOP((#1475,#1540,#1512));
#411=IFCPOLYLOOP((#1539,#1512,#1540,#1541));
#412=IFCPOLYLOOP((#1471,#1541,#1540,#1475));
#413=IFCPOLYLOOP((#1478,#1539,#1471,#1470));
#414=IFCPOLYLOOP((#1539,#1541,#1471));
#415=IFCFACEOUTERBOUND(#26,.T.);
#416=IFCFACEOUTERBOUND(#27,.T.);
#417=IFCFACEOUTERBOUND(#28,.T.);
#418=IFCFACEOUTERBOUND(#29,.T.);
#419=IFCFACEOUTERBOUND(#30,.T.);
#420=IFCFACEOUTERBOUND(#31,.T.);
#421=IFCFACEOUTERBOUND(#32,.T.);
#422=IFCFACEOUTERBOUND(#33,.T.);
#423=IFCFACEOUTERBOUND(#34,.T.);
#424=IFCFACEOUTERBOUND(#35,.T.);
#425=IFCFACEOUTERBOUND(#36,.T.);
#426=IFCFACEOUTERBOUND(#37,.T.);
#427=IFCFACEOUTERBOUND(#38,.T.);
#428=IFCFACEOUTERBOUND(#39,.T.);
#429=IFCFACEOUTERBOUND(#40,.T.);
#430=IFCFACEOUTERBOUND(#41,.T.);
#431=IFCFACEOUTERBOUND(#42,.T.);
#432=IFCFACEOUTERBOUND(#43,.T.);
#433=IFCFACEOUTERBOUND(#44,.T.);
#434=IFCFACEOUTERBOUND(#45,.T.);
#435=IFCFACEOUTERBOUND(#46,.T.);
#436=IFCFACEOUTERBOUND(#47,.T.);
#437=IFCFACEOUTERBOUND(#48,.T.);
#438=IFCFACEOUTERBOUND(#49,.T.);
#439=IFCFACEOUTERBOUND(#50,.T.);
#440=IFCFACEOUTERBOUND(#51,.T.);
#441=IFCFACEOUTERBOUND(#52,.T.);
#442=IFCFACEOUTERBOUND(#53,.T.);
#443=IFCFACEOUTERBOUND(#54,.T.);
#444=IFCFACEOUTERBOUND(#55,.T.);
#445=IFCFACEOUTERBOUND(#56,.T.);
#446=IFCFACEOUTERBOUND(#57,.T.);
#447=IFCFACEOUTERBOUND(#58,.T.);
#448=IFCFACEOUTERBOUND(#59,.T.);
#449=IFCFACEOUTERBOUND(#60,.T.);
#450=IFCFACEOUTERBOUND(#61,.T.);
#451=IFCFACEOUTERBOUND(#62,.T.);
#452=IFCFACEOUTERBOUND(#63,.T.);
#453=IFCFACEOUTERBOUND(#64,.T.);
#454=IFCFACEOUTERBOUND(#65,.T.);
#455=IFCFACEOUTERBOUND(#66,.T.);
#456=IFCFACEOUTERBOUND(#67,.T.);
#457=IFCFACEOUTERBOUND(#68,.T.);
#458=IFCFACEOUTERBOUND(#69,.T.);
#459=IFCFACEOUTERBOUND(#70,.T.);
#460=IFCFACEOUTERBOUND(#71,.T.);
#461=IFCFACEOUTERBOUND(#72,.T.);
#462=IFCFACEOUTERBOUND(#73,.T.);
#463=IFCFACEOUTERBOUND(#74,.T.);
#464=IFCFACEOUTERBOUND(#75,.T.);
#465=IFCFACEOUTERBOUND(#76,.T.);
#466=IFCFACEOUTERBOUND(#77,.T.);
#467=IFCFACEOUTERBOUND(#78,.T.);
#468=IFCFACEOUTERBOUND(#79,.T.);
#469=IFCFACEOUTERBOUND(#80,.T.);
#470=IFCFACEOUTERBOUND(#81,.T.);
#471=IFCFACEOUTERBOUND(#82,.T.);
#472=IFCFACEOUTERBOUND(#83,.T.);
#473=IFCFACEOUTERBOUND(#84,.T.);
#474=IFCFACEOUTERBOUND(#85,.T.);
#475=IFCFACEOUTERBOUND(#86,.T.);
#476=IFCFACEOUTERBOUND(#87,.T.);
#477=IFCFACEOUTERBOUND(#88,.T.);
#478=IFCFACEOUTERBOUND(#89,.T.);
#479=IFCFACEOUTERBOUND(#90,.T.);
#480=IFCFACEOUTERBOUND(#91,.T.);
#481=IFCFACEOUTERBOUND(#92,.T.);
#482=IFCFACEOUTERBOUND(#93,.T.);
#483=IFCFACEOUTERBOUND(#94,.T.);
#484=IFCFACEOUTERBOUND(#95,.T.);
#485=IFCFACEOUTERBOUND(#96,.T.);
#486=IFCFACEOUTERBOUND(#97,.T.);
#487=IFCFACEOUTERBOUND(#98,.T.);
#488=IFCFACEOUTERBOUND(#99,.T.);
#489=IFCFACEOUTERBOUND(#100,.T.);
#490=IFCFACEOUTERBOUND(#101,.T.);
#491=IFCFACEOUTERBOUND(#102,.T.);
#492=IFCFACEOUTERBOUND(#103,.T.);
#493=IFCFACEOUTERBOUND(#104,.T.);
#494=IFCFACEOUTERBOUND(#105,.T.);
#495=IFCFACEOUTERBOUND(#106,.T.);
#496=IFCFACEOUTERBOUND(#107,.T.);
#497=IFCFACEOUTERBOUND(#108,.T.);
#498=IFCFACEOUTERBOUND(#109,.T.);
#499=IFCFACEOUTERBOUND(#110,.T.);
#500=IFCFACEOUTERBOUND(#111,.T.);
#501=IFCFACEOUTERBOUND(#112,.T.);
#502=IFCFACEOUTERBOUND(#113,.T.);
#503=IFCFACEOUTERBOUND(#114,.T.);
#504=IFCFACEOUTERBOUND(#115,.T.);
#505=IFCFACEOUTERBOUND(#116,.T.);
#506=IFCFACEOUTERBOUND(#117,.T.);
#507=IFCFACEOUTERBOUND(#118,.T.);
#508=IFCFACEOUTERBOUND(#119,.T.);
#509=IFCFACEOUTERBOUND(#120,.T.);
#510=IFCFACEOUTERBOUND(#121,.T.);
#511=IFCFACEOUTERBOUND(#122,.T.);
#512=IFCFACEOUTERBOUND(#123,.T.);
#513=IFCFACEOUTERBOUND(#124,.T.);
#514=IFCFACEOUTERBOUND(#125,.T.);
#515=IFCFACEOUTERBOUND(#126,.T.);
#516=IFCFACEOUTERBOUND(#127,.T.);
#517=IFCFACEOUTERBOUND(#128,.T.);
#518=IFCFACEOUTERBOUND(#129,.T.);
#519=IFCFACEOUTERBOUND(#130,.T.);
#520=IFCFACEOUTERBOUND(#131,.T.);
#521=IFCFACEOUTERBOUND(#132,.T.);
#522=IFCFACEOUTERBOUND(#133,.T.);
#523=IFCFACEOUTERBOUND(#134,.T.);
#524=IFCFACEOUTERBOUND(#135,.T.);
#525=IFCFACEOUTERBOUND(#136,.T.);
#526=IFCFACEOUTERBOUND(#137,.T.);
#527=IFCFACEOUTERBOUND(#138,.T.);
#528=IFCFACEOUTERBOUND(#139,.T.);
#529=IFCFACEOUTERBOUND(#140,.T.);
#530=IFCFACEOUTERBOUND(#141,.T.);
#531=IFCFACEOUTERBOUND(#142,.T.);
#532=IFCFACEOUTERBOUND(#143,.T.);
#533=IFCFACEOUTERBOUND(#144,.T.);
#534=IFCFACEOUTERBOUND(#145,.T.);
#535=IFCFACEOUTERBOUND(#146,.T.);
#536=IFCFACEOUTERBOUND(#147,.T.);
#537=IFCFACEOUTERBOUND(#148,.T.);
#538=IFCFACEOUTERBOUND(#149,.T.);
#539=IFCFACEOUTERBOUND(#150,.T.);
#540=IFCFACEOUTERBOUND(#151,.T.);
#541=IFCFACEOUTERBOUND(#152,.T.);
#542=IFCFACEOUTERBOUND(#153,.T.);
#543=IFCFACEOUTERBOUND(#154,.T.);
#544=IFCFACEOUTERBOUND(#155,.T.);
#545=IFCFACEOUTERBOUND(#156,.T.);
#546=IFCFACEOUTERBOUND(#157,.T.);
#547=IFCFACEOUTERBOUND(#158,.T.);
#548=IFCFACEOUTERBOUND(#159,.T.);
#549=IFCFACEOUTERBOUND(#160,.T.);
#550=IFCFACEOUTERBOUND(#161,.T.);
#551=IFCFACEOUTERBOUND(#162,.T.);
#552=IFCFACEOUTERBOUND(#163,.T.);
#553=IFCFACEOUTERBOUND(#164,.T.);
#554=IFCFACEOUTERBOUND(#165,.T.);
#555=IFCFACEOUTERBOUND(#166,.T.);
#556=IFCFACEOUTERBOUND(#167,.T.);
#557=IFCFACEOUTERBOUND(#168,.T.);
#558=IFCFACEOUTERBOUND(#169,.T.);
#559=IFCFACEOUTERBOUND(#170,.T.);
#560=IFCFACEOUTERBOUND(#171,.T.);
#561=IFCFACEOUTERBOUND(#172,.T.);
#562=IFCFACEOUTERBOUND(#173,.T.);
#563=IFCFACEOUTERBOUND(#174,.T.);
#564=IFCFACEOUTERBOUND(#175,.T.);
#565=IFCFACEOUTERBOUND(#176,.T.);
#566=IFCFACEOUTERBOUND(#177,.T.);
#567=IFCFACEOUTERBOUND(#178,.T.);
#568=IFCFACEOUTERBOUND(#179,.T.);
#569=IFCFACEOUTERBOUND(#180,.T.);
#570=IFCFACEOUTERBOUND(#181,.T.);
#571=IFCFACEOUTERBOUND(#182,.T.);
#572=IFCFACEOUTERBOUND(#183,.T.);
#573=IFCFACEOUTERBOUND(#184,.T.);
#574=IFCFACEOUTERBOUND(#185,.T.);
#575=IFCFACEOUTERBOUND(#186,.T.);
#576=IFCFACEOUTERBOUND(#187,.T.);
#577=IFCFACEOUTERBOUND(#188,.T.);
#578=IFCFACEOUTERBOUND(#189,.T.);
#579=IFCFACEOUTERBOUND(#190,.T.);
#580=IFCFACEOUTERBOUND(#191,.T.);
#581=IFCFACEOUTERBOUND(#192,.T.);
#582=IFCFACEOUTERBOUND(#193,.T.);
#583=IFCFACEOUTERBOUND(#194,.T.);
#584=IFCFACEOUTERBOUND(#195,.T.);
#585=IFCFACEOUTERBOUND(#196,.T.);
#586=IFCFACEOUTERBOUND(#197,.T.);
#587=IFCFACEOUTERBOUND(#198,.T.);
#588=IFCFACEOUTERBOUND(#199,.T.);
#589=IFCFACEOUTERBOUND(#200,.T.);
#590=IFCFACEOUTERBOUND(#201,.T.);
#591=IFCFACEOUTERBOUND(#202,.T.);
#592=IFCFACEOUTERBOUND(#203,.T.);
#593=IFCFACEOUTERBOUND(#204,.T.);
#594=IFCFACEOUTERBOUND(#205,.T.);
#595=IFCFACEOUTERBOUND(#206,.T.);
#596=IFCFACEOUTERBOUND(#207,.T.);
#597=IFCFACEOUTERBOUND(#208,.T.);
#598=IFCFACEOUTERBOUND(#209,.T.);
#599=IFCFACEOUTERBOUND(#210,.T.);
#600=IFCFACEOUTERBOUND(#211,.T.);
#601=IFCFACEOUTERBOUND(#212,.T.);
#602=IFCFACEOUTERBOUND(#213,.T.);
#603=IFCFACEOUTERBOUND(#214,.T.);
#604=IFCFACEOUTERBOUND(#215,.T.);
#605=IFCFACEOUTERBOUND(#216,.T.);
#606=IFCFACEOUTERBOUND(#217,.T.);
#607=IFCFACEOUTERBOUND(#218,.T.);
#608=IFCFACEOUTERBOUND(#219,.T.);
#609=IFCFACEOUTERBOUND(#220,.T.);
#610=IFCFACEOUTERBOUND(#221,.T.);
#611=IFCFACEOUTERBOUND(#222,.T.);
#612=IFCFACEOUTERBOUND(#223,.T.);
#613=IFCFACEOUTERBOUND(#224,.T.);
#614=IFCFACEOUTERBOUND(#225,.T.);
#615=IFCFACEOUTERBOUND(#226,.T.);
#616=IFCFACEOUTERBOUND(#227,.T.);
#617=IFCFACEOUTERBOUND(#228,.T.);
#618=IFCFACEOUTERBOUND(#229,.T.);
#619=IFCFACEOUTERBOUND(#230,.T.);
#620=IFCFACEOUTERBOUND(#231,.T.);
#621=IFCFACEOUTERBOUND(#232,.T.);
#622=IFCFACEOUTERBOUND(#233,.T.);
#623=IFCFACEOUTERBOUND(#234,.T.);
#624=IFCFACEOUTERBOUND(#235,.T.);
#625=IFCFACEOUTERBOUND(#236,.T.);
#626=IFCFACEOUTERBOUND(#237,.T.);
#627=IFCFACEOUTERBOUND(#238,.T.);
#628=IFCFACEOUTERBOUND(#239,.T.);
#629=IFCFACEOUTERBOUND(#240,.T.);
#630=IFCFACEOUTERBOUND(#241,.T.);
#631=IFCFACEOUTERBOUND(#242,.T.);
#632=IFCFACEOUTERBOUND(#243,.T.);
#633=IFCFACEOUTERBOUND(#244,.T.);
#634=IFCFACEOUTERBOUND(#245,.T.);
#635=IFCFACEOUTERBOUND(#246,.T.);
#636=IFCFACEOUTERBOUND(#247,.T.);
#637=IFCFACEOUTERBOUND(#248,.T.);
#638=IFCFACEOUTERBOUND(#249,.T.);
#639=IFCFACEOUTERBOUND(#250,.T.);
#640=IFCFACEOUTERBOUND(#251,.T.);
#641=IFCFACEOUTERBOUND(#252,.T.);
#642=IFCFACEOUTERBOUND(#253,.T.);
#643=IFCFACEOUTERBOUND(#254,.T.);
#644=IFCFACEOUTERBOUND(#255,.T.);
#645=IFCFACEOUTERBOUND(#256,.T.);
#646=IFCFACEOUTERBOUND(#257,.T.);
#647=IFCFACEOUTERBOUND(#258,.T.);
#648=IFCFACEOUTERBOUND(#259,.T.);
#649=IFCFACEOUTERBOUND(#260,.T.);
#650=IFCFACEOUTERBOUND(#261,.T.);
#651=IFCFACEOUTERBOUND(#262,.T.);
#652=IFCFACEOUTERBOUND(#263,.T.);
#653=IFCFACEOUTERBOUND(#264,.T.);
#654=IFCFACEOUTERBOUND(#265,.T.);
#655=IFCFACEOUTERBOUND(#266,.T.);
#656=IFCFACEOUTERBOUND(#267,.T.);
#657=IFCFACEOUTERBOUND(#268,.T.);
#658=IFCFACEOUTERBOUND(#269,.T.);
#659=IFCFACEOUTERBOUND(#270,.T.);
#660=IFCFACEOUTERBOUND(#271,.T.);
#661=IFCFACEOUTERBOUND(#272,.T.);
#662=IFCFACEOUTERBOUND(#273,.T.);
#663=IFCFACEOUTERBOUND(#274,.T.);
#664=IFCFACEOUTERBOUND(#275,.T.);
#665=IFCFACEOUTERBOUND(#276,.T.);
#666=IFCFACEOUTERBOUND(#277,.T.);
#667=IFCFACEOUTERBOUND(#278,.T.);
#668=IFCFACEOUTERBOUND(#279,.T.);
#669=IFCFACEOUTERBOUND(#280,.T.);
#670=IFCFACEOUTERBOUND(#281,.T.);
#671=IFCFACEOUTERBOUND(#282,.T.);
#672=IFCFACEOUTERBOUND(#283,.T.);
#673=IFCFACEOUTERBOUND(#284,.T.);
#674=IFCFACEOUTERBOUND(#285,.T.);
#675=IFCFACEOUTERBOUND(#286,.T.);
#676=IFCFACEOUTERBOUND(#287,.T.);
#677=IFCFACEOUTERBOUND(#288,.T.);
#678=IFCFACEOUTERBOUND(#289,.T.);
#679=IFCFACEOUTERBOUND(#290,.T.);
#680=IFCFACEOUTERBOUND(#291,.T.);
#681=IFCFACEOUTERBOUND(#292,.T.);
#682=IFCFACEOUTERBOUND(#293,.T.);
#683=IFCFACEOUTERBOUND(#294,.T.);
#684=IFCFACEOUTERBOUND(#295,.T.);
#685=IFCFACEOUTERBOUND(#296,.T.);
#686=IFCFACEOUTERBOUND(#297,.T.);
#687=IFCFACEOUTERBOUND(#298,.T.);
#688=IFCFACEOUTERBOUND(#299,.T.);
#689=IFCFACEOUTERBOUND(#300,.T.);
#690=IFCFACEOUTERBOUND(#301,.T.);
#691=IFCFACEOUTERBOUND(#302,.T.);
#692=IFCFACEOUTERBOUND(#303,.T.);
#693=IFCFACEOUTERBOUND(#304,.T.);
#694=IFCFACEOUTERBOUND(#305,.T.);
#695=IFCFACEOUTERBOUND(#306,.T.);
#696=IFCFACEOUTERBOUND(#307,.T.);
#697=IFCFACEOUTERBOUND(#308,.T.);
#698=IFCFACEOUTERBOUND(#309,.T.);
#699=IFCFACEOUTERBOUND(#310,.T.);
#700=IFCFACEOUTERBOUND(#311,.T.);
#701=IFCFACEOUTERBOUND(#312,.T.);
#702=IFCFACEOUTERBOUND(#313,.T.);
#703=IFCFACEOUTERBOUND(#314,.T.);
#704=IFCFACEOUTERBOUND(#315,.T.);
#705=IFCFACEOUTERBOUND(#316,.T.);
#706=IFCFACEOUTERBOUND(#317,.T.);
#707=IFCFACEOUTERBOUND(#318,.T.);
#708=IFCFACEOUTERBOUND(#319,.T.);
#709=IFCFACEOUTERBOUND(#320,.T.);
#710=IFCFACEOUTERBOUND(#321,.T.);
#711=IFCFACEOUTERBOUND(#322,.T.);
#712=IFCFACEOUTERBOUND(#323,.T.);
#713=IFCFACEOUTERBOUND(#324,.T.);
#714=IFCFACEOUTERBOUND(#325,.T.);
#715=IFCFACEOUTERBOUND(#326,.T.);
#716=IFCFACEOUTERBOUND(#327,.T.);
#717=IFCFACEOUTERBOUND(#328,.T.);
#718=IFCFACEOUTERBOUND(#329,.T.);
#719=IFCFACEOUTERBOUND(#330,.T.);
#720=IFCFACEOUTERBOUND(#331,.T.);
#721=IFCFACEOUTERBOUND(#332,.T.);
#722=IFCFACEOUTERBOUND(#333,.T.);
#723=IFCFACEOUTERBOUND(#334,.T.);
#724=IFCFACEOUTERBOUND(#335,.T.);
#725=IFCFACEOUTERBOUND(#336,.T.);
#726=IFCFACEOUTERBOUND(#337,.T.);
#727=IFCFACEOUTERBOUND(#338,.T.);
#728=IFCFACEOUTERBOUND(#339,.T.);
#729=IFCFACEOUTERBOUND(#340,.T.);
#730=IFCFACEOUTERBOUND(#341,.T.);
#731=IFCFACEOUTERBOUND(#342,.T.);
#732=IFCFACEOUTERBOUND(#343,.T.);
#733=IFCFACEOUTERBOUND(#344,.T.);
#734=IFCFACEOUTERBOUND(#345,.T.);
#735=IFCFACEOUTERBOUND(#346,.T.);
#736=IFCFACEOUTERBOUND(#347,.T.);
#737=IFCFACEOUTERBOUND(#348,.T.);
#738=IFCFACEOUTERBOUND(#349,.T.);
#739=IFCFACEOUTERBOUND(#350,.T.);
#740=IFCFACEOUTERBOUND(#351,.T.);
#741=IFCFACEOUTERBOUND(#352,.T.);
#742=IFCFACEOUTERBOUND(#353,.T.);
#743=IFCFACEOUTERBOUND(#354,.T.);
#744=IFCFACEOUTERBOUND(#355,.T.);
#745=IFCFACEOUTERBOUND(#356,.T.);
#746=IFCFACEOUTERBOUND(#357,.T.);
#747=IFCFACEOUTERBOUND(#358,.T.);
#748=IFCFACEOUTERBOUND(#359,.T.);
#749=IFCFACEOUTERBOUND(#360,.T.);
#750=IFCFACEOUTERBOUND(#361,.T.);
#751=IFCFACEOUTERBOUND(#362,.T.);
#752=IFCFACEOUTERBOUND(#363,.T.);
#753=IFCFACEOUTERBOUND(#364,.T.);
#754=IFCFACEOUTERBOUND(#365,.T.);
#755=IFCFACEOUTERBOUND(#366,.T.);
#756=IFCFACEOUTERBOUND(#367,.T.);
#757=IFCFACEOUTERBOUND(#368,.T.);
#758=IFCFACEOUTERBOUND(#369,.T.);
#759=IFCFACEOUTERBOUND(#370,.T.);
#760=IFCFACEOUTERBOUND(#371,.T.);
#761=IFCFACEOUTERBOUND(#372,.T.);
#762=IFCFACEOUTERBOUND(#373,.T.);
#763=IFCFACEOUTERBOUND(#374,.T.);
#764=IFCFACEOUTERBOUND(#375,.T.);
#765=IFCFACEOUTERBOUND(#376,.T.);
#766=IFCFACEOUTERBOUND(#377,.T.);
#767=IFCFACEOUTERBOUND(#378,.T.);
#768=IFCFACEOUTERBOUND(#379,.T.);
#769=IFCFACEOUTERBOUND(#380,.T.);
#770=IFCFACEOUTERBOUND(#381,.T.);
#771=IFCFACEOUTERBOUND(#382,.T.);
#772=IFCFACEOUTERBOUND(#383,.T.);
#773=IFCFACEOUTERBOUND(#384,.T.);
#774=IFCFACEOUTERBOUND(#385,.T.);
#775=IFCFACEOUTERBOUND(#386,.T.);
#776=IFCFACEOUTERBOUND(#387,.T.);
#777=IFCFACEOUTERBOUND(#388,.T.);
#778=IFCFACEOUTERBOUND(#389,.T.);
#779=IFCFACEOUTERBOUND(#390,.T.);
#780=IFCFACEOUTERBOUND(#391,.T.);
#781=IFCFACEOUTERBOUND(#392,.T.);
#782=IFCFACEOUTERBOUND(#393,.T.);
#783=IFCFACEOUTERBOUND(#394,.T.);
#784=IFCFACEOUTERBOUND(#395,.T.);
#785=IFCFACEOUTERBOUND(#396,.T.);
#786=IFCFACEOUTERBOUND(#397,.T.);
#787=IFCFACEOUTERBOUND(#398,.T.);
#788=IFCFACEOUTERBOUND(#399,.T.);
#789=IFCFACEOUTERBOUND(#400,.T.);
#790=IFCFACEOUTERBOUND(#401,.T.);
#791=IFCFACEOUTERBOUND(#402,.T.);
#792=IFCFACEOUTERBOUND(#403,.T.);
#793=IFCFACEOUTERBOUND(#404,.T.);
#794=IFCFACEOUTERBOUND(#405,.T.);
#795=IFCFACEOUTERBOUND(#406,.T.);
#796=IFCFACEOUTERBOUND(#407,.T.);
#797=IFCFACEOUTERBOUND(#408,.T.);
#798=IFCFACEOUTERBOUND(#409,.T.);
#799=IFCFACEOUTERBOUND(#410,.T.);
#800=IFCFACEOUTERBOUND(#411,.T.);
#801=IFCFACEOUTERBOUND(#412,.T.);
#802=IFCFACEOUTERBOUND(#413,.T.);
#803=IFCFACEOUTERBOUND(#414,.T.);
#804=IFCFACE((#415));
#805=IFCFACE((#416));
#806=IFCFACE((#417));
#807=IFCFACE((#418));
#808=IFCFACE((#419));
#809=IFCFACE((#420));
#810=IFCFACE((#421));
#811=IFCFACE((#422));
#812=IFCFACE((#423));
#813=IFCFACE((#424));
#814=IFCFACE((#425));
#815=IFCFACE((#426));
#816=IFCFACE((#427));
#817=IFCFACE((#428));
#818=IFCFACE((#429));
#819=IFCFACE((#430));
#820=IFCFACE((#431));
#821=IFCFACE((#432));
#822=IFCFACE((#433));
#823=IFCFACE((#434));
#824=IFCFACE((#435));
#825=IFCFACE((#436));
#826=IFCFACE((#437));
#827=IFCFACE((#438));
#828=IFCFACE((#439));
#829=IFCFACE((#440));
#830=IFCFACE((#441));
#831=IFCFACE((#442));
#832=IFCFACE((#443));
#833=IFCFACE((#444));
#834=IFCFACE((#445));
#835=IFCFACE((#446));
#836=IFCFACE((#447));
#837=IFCFACE((#448));
#838=IFCFACE((#449));
#839=IFCFACE((#450));
#840=IFCFACE((#451));
#841=IFCFACE((#452));
#842=IFCFACE((#453));
#843=IFCFACE((#454));
#844=IFCFACE((#455));
#845=IFCFACE((#456));
#846=IFCFACE((#457));
#847=IFCFACE((#458));
#848=IFCFACE((#459));
#849=IFCFACE((#460));
#850=IFCFACE((#461));
#851=IFCFACE((#462));
#852=IFCFACE((#463));
#853=IFCFACE((#464));
#854=IFCFACE((#465));
#855=IFCFACE((#466));
#856=IFCFACE((#467));
#857=IFCFACE((#468));
#858=IFCFACE((#469));
#859=IFCFACE((#470));
#860=IFCFACE((#471));
#861=IFCFACE((#472));
#862=IFCFACE((#473));
#863=IFCFACE((#474));
#864=IFCFACE((#475));
#865=IFCFACE((#476));
#866=IFCFACE((#477));
#867=IFCFACE((#478));
#868=IFCFACE((#479));
#869=IFCFACE((#480));
#870=IFCFACE((#481));
#871=IFCFACE((#482));
#872=IFCFACE((#483));
#873=IFCFACE((#484));
#874=IFCFACE((#485));
#875=IFCFACE((#486));
#876=IFCFACE((#487));
#877=IFCFACE((#488));
#878=IFCFACE((#489));
#879=IFCFACE((#490));
#880=IFCFACE((#491));
#881=IFCFACE((#492));
#882=IFCFACE((#493));
#883=IFCFACE((#494));
#884=IFCFACE((#495));
#885=IFCFACE((#496));
#886=IFCFACE((#497));
#887=IFCFACE((#498));
#888=IFCFACE((#499));
#889=IFCFACE((#500));
#890=IFCFACE((#501));
#891=IFCFACE((#502));
#892=IFCFACE((#503));
#893=IFCFACE((#504));
#894=IFCFACE((#505));
#895=IFCFACE((#506));
#896=IFCFACE((#507));
#897=IFCFACE((#508));
#898=IFCFACE((#509));
#899=IFCFACE((#510));
#900=IFCFACE((#511));
#901=IFCFACE((#512));
#902=IFCFACE((#513));
#903=IFCFACE((#514));
#904=IFCFACE((#515));
#905=IFCFACE((#516));
#906=IFCFACE((#517));
#907=IFCFACE((#518));
#908=IFCFACE((#519));
#909=IFCFACE((#520));
#910=IFCFACE((#521));
#911=IFCFACE((#522));
#912=IFCFACE((#523));
#913=IFCFACE((#524));
#914=IFCFACE((#525));
#915=IFCFACE((#526));
#916=IFCFACE((#527));
#917=IFCFACE((#528));
#918=IFCFACE((#529));
#919=IFCFACE((#530));
#920=IFCFACE((#531));
#921=IFCFACE((#532));
#922=IFCFACE((#533));
#923=IFCFACE((#534));
#924=IFCFACE((#535));
#925=IFCFACE((#536));
#926=IFCFACE((#537));
#927=IFCFACE((#538));
#928=IFCFACE((#539));
#929=IFCFACE((#540));
#930=IFCFACE((#541));
#931=IFCFACE((#542));
#932=IFCFACE((#543));
#933=IFCFACE((#544));
#934=IFCFACE((#545));
#935=IFCFACE((#546));
#936=IFCFACE((#547));
#937=IFCFACE((#548));
#938=IFCFACE((#549));
#939=IFCFACE((#550));
#940=IFCFACE((#551));
#941=IFCFACE((#552));
#942=IFCFACE((#553));
#943=IFCFACE((#554));
#944=IFCFACE((#555));
#945=IFCFACE((#556));
#946=IFCFACE((#557));
#947=IFCFACE((#558));
#948=IFCFACE((#559));
#949=IFCFACE((#560));
#950=IFCFACE((#561));
#951=IFCFACE((#562));
#952=IFCFACE((#563));
#953=IFCFACE((#564));
#954=IFCFACE((#565));
#955=IFCFACE((#566));
#956=IFCFACE((#567));
#957=IFCFACE((#568));
#958=IFCFACE((#569));
#959=IFCFACE((#570));
#960=IFCFACE((#571));
#961=IFCFACE((#572));
#962=IFCFACE((#573));
#963=IFCFACE((#574));
#964=IFCFACE((#575));
#965=IFCFACE((#576));
#966=IFCFACE((#577));
#967=IFCFACE((#578));
#968=IFCFACE((#579));
#969=IFCFACE((#580));
#970=IFCFACE((#581));
#971=IFCFACE((#582));
#972=IFCFACE((#583));
#973=IFCFACE((#584));
#974=IFCFACE((#585));
#975=IFCFACE((#586));
#976=IFCFACE((#587));
#977=IFCFACE((#588));
#978=IFCFACE((#589));
#979=IFCFACE((#590));
#980=IFCFACE((#591));
#981=IFCFACE((#592));
#982=IFCFACE((#593));
#983=IFCFACE((#594));
#984=IFCFACE((#595));
#985=IFCFACE((#596));
#986=IFCFACE((#597));
#987=IFCFACE((#598));
#988=IFCFACE((#599));
#989=IFCFACE((#600));
#990=IFCFACE((#601));
#991=IFCFACE((#602));
#992=IFCFACE((#603));
#993=IFCFACE((#604));
#994=IFCFACE((#605));
#995=IFCFACE((#606));
#996=IFCFACE((#607));
#997=IFCFACE((#608));
#998=IFCFACE((#609));
#999=IFCFACE((#610));
#1000=IFCFACE((#611));
#1001=IFCFACE((#612));
#1002=IFCFACE((#613));
#1003=IFCFACE((#614));
#1004=IFCFACE((#615));
#1005=IFCFACE((#616));
#1006=IFCFACE((#617));
#1007=IFCFACE((#618));
#1008=IFCFACE((#619));
#1009=IFCFACE((#620));
#1010=IFCFACE((#621));
#1011=IFCFACE((#622));
#1012=IFCFACE((#623));
#1013=IFCFACE((#624));
#1014=IFCFACE((#625));
#1015=IFCFACE((#626));
#1016=IFCFACE((#627));
#1017=IFCFACE((#628));
#1018=IFCFACE((#629));
#1019=IFCFACE((#630));
#1020=IFCFACE((#631));
#1021=IFCFACE((#632));
#1022=IFCFACE((#633));
#1023=IFCFACE((#634));
#1024=IFCFACE((#635));
#1025=IFCFACE((#636));
#1026=IFCFACE((#637));
#1027=IFCFACE((#638));
#1028=IFCFACE((#639));
#1029=IFCFACE((#640));
#1030=IFCFACE((#641));
#1031=IFCFACE((#642));
#1032=IFCFACE((#643));
#1033=IFCFACE((#644));
#1034=IFCFACE((#645));
#1035=IFCFACE((#646));
#1036=IFCFACE((#647));
#1037=IFCFACE((#648));
#1038=IFCFACE((#649));
#1039=IFCFACE((#650));
#1040=IFCFACE((#651));
#1041=IFCFACE((#652));
#1042=IFCFACE((#653));
#1043=IFCFACE((#654));
#1044=IFCFACE((#655));
#1045=IFCFACE((#656));
#1046=IFCFACE((#657));
#1047=IFCFACE((#658));
#1048=IFCFACE((#659));
#1049=IFCFACE((#660));
#1050=IFCFACE((#661));
#1051=IFCFACE((#662));
#1052=IFCFACE((#663));
#1053=IFCFACE((#664));
#1054=IFCFACE((#665));
#1055=IFCFACE((#666));
#1056=IFCFACE((#667));
#1057=IFCFACE((#668));
#1058=IFCFACE((#669));
#1059=IFCFACE((#670));
#1060=IFCFACE((#671));
#1061=IFCFACE((#672));
#1062=IFCFACE((#673));
#1063=IFCFACE((#674));
#1064=IFCFACE((#675));
#1065=IFCFACE((#676));
#1066=IFCFACE((#677));
#1067=IFCFACE((#678));
#1068=IFCFACE((#679));
#1069=IFCFACE((#680));
#1070=IFCFACE((#681));
#1071=IFCFACE((#682));
#1072=IFCFACE((#683));
#1073=IFCFACE((#684));
#1074=IFCFACE((#685));
#1075=IFCFACE((#686));
#1076=IFCFACE((#687));
#1077=IFCFACE((#688));
#1078=IFCFACE((#689));
#1079=IFCFACE((#690));
#1080=IFCFACE((#691));
#1081=IFCFACE((#692));
#1082=IFCFACE((#693));
#1083=IFCFACE((#694));
#1084=IFCFACE((#695));
#1085=IFCFACE((#696));
#1086=IFCFACE((#697));
#1087=IFCFACE((#698));
#1088=IFCFACE((#699));
#1089=IFCFACE((#700));
#1090=IFCFACE((#701));
#1091=IFCFACE((#702));
#1092=IFCFACE((#703));
#1093=IFCFACE((#704));
#1094=IFCFACE((#705));
#1095=IFCFACE((#706));
#1096=IFCFACE((#707));
#1097=IFCFACE((#708));
#1098=IFCFACE((#709));
#1099=IFCFACE((#710));
#1100=IFCFACE((#711));
#1101=IFCFACE((#712));
#1102=IFCFACE((#713));
#1103=IFCFACE((#714));
#1104=IFCFACE((#715));
#1105=IFCFACE((#716));
#1106=IFCFACE((#717));
#1107=IFCFACE((#718));
#1108=IFCFACE((#719));
#1109=IFCFACE((#720));
#1110=IFCFACE((#721));
#1111=IFCFACE((#722));
#1112=IFCFACE((#723));
#1113=IFCFACE((#724));
#1114=IFCFACE((#725));
#1115=IFCFACE((#726));
#1116=IFCFACE((#727));
#1117=IFCFACE((#728));
#1118=IFCFACE((#729));
#1119=IFCFACE((#730));
#1120=IFCFACE((#731));
#1121=IFCFACE((#732));
#1122=IFCFACE((#733));
#1123=IFCFACE((#734));
#1124=IFCFACE((#735));
#1125=IFCFACE((#736));
#1126=IFCFACE((#737));
#1127=IFCFACE((#738));
#1128=IFCFACE((#739));
#1129=IFCFACE((#740));
#1130=IFCFACE((#741));
#1131=IFCFACE((#742));
#1132=IFCFACE((#743));
#1133=IFCFACE((#744));
#1134=IFCFACE((#745));
#1135=IFCFACE((#746));
#1136=IFCFACE((#747));
#1137=IFCFACE((#748));
#1138=IFCFACE((#749));
#1139=IFCFACE((#750));
#1140=IFCFACE((#751));
#1141=IFCFACE((#752));
#1142=IFCFACE((#753));
#1143=IFCFACE((#754));
#1144=IFCFACE((#755));
#1145=IFCFACE((#756));
#1146=IFCFACE((#757));
#1147=IFCFACE((#758));
#1148=IFCFACE((#759));
#1149=IFCFACE((#760));
#1150=IFCFACE((#761));
#1151=IFCFACE((#762));
#1152=IFCFACE((#763));
#1153=IFCFACE((#764));
#1154=IFCFACE((#765));
#1155=IFCFACE((#766));
#1156=IFCFACE((#767));
#1157=IFCFACE((#768));
#1158=IFCFACE((#769));
#1159=IFCFACE((#770));
#1160=IFCFACE((#771));
#1161=IFCFACE((#772));
#1162=IFCFACE((#773));
#1163=IFCFACE((#774));
#1164=IFCFACE((#775));
#1165=IFCFACE((#776));
#1166=IFCFACE((#777));
#1167=IFCFACE((#778));
#1168=IFCFACE((#779));
#1169=IFCFACE((#780));
#1170=IFCFACE((#781));
#1171=IFCFACE((#782));
#1172=IFCFACE((#783));
#1173=IFCFACE((#784));
#1174=IFCFACE((#785));
#1175=IFCFACE((#786));
#1176=IFCFACE((#787));
#1177=IFCFACE((#788));
#1178=IFCFACE((#789));
#1179=IFCFACE((#790));
#1180=IFCFACE((#791));
#1181=IFCFACE((#792));
#1182=IFCFACE((#793));
#1183=IFCFACE((#794));
#1184=IFCFACE((#795));
#1185=IFCFACE((#796));
#1186=IFCFACE((#797));
#1187=IFCFACE((#798));
#1188=IFCFACE((#799));
#1189=IFCFACE((#800));
#1190=IFCFACE((#801));
#1191=IFCFACE((#802));
#1192=IFCFACE((#803));
#1193=IFCCLOSEDSHELL((#804,#805,#806,#807,#808,#809,#810,#811,#812,#813,
#814,#815,#816,#817,#818,#819,#820,#821,#822,#823,#824,#825,#826,#827,#828,
#829,#830,#831,#832,#833,#834,#835,#836,#837,#838,#839,#840,#841,#842,#843,
#844,#845,#846,#847,#848,#849,#850,#851,#852,#853,#854,#855,#856,#857,#858,
#859,#860,#861,#862,#863,#864,#865,#866,#867,#868,#869,#870,#871,#872,#873,
#874,#875,#876,#877,#878,#879,#880,#881,#882,#883,#884,#885,#886,#887,#888,
#889,#890,#891,#892,#893,#894,#895,#896,#897,#898,#899,#900,#901,#902,#903,
#904,#905,#906,#907,#908,#909,#910,#911,#912,#913,#914,#915,#916,#917,#918,
#919,#920,#921,#922,#923,#924,#925,#926,#927,#928,#929,#930,#931,#932,#933,
#934,#935,#936,#937,#938,#939,#940,#941,#942,#943,#944,#945,#946,#947,#948,
#949,#950,#951,#952,#953,#954,#955,#956,#957,#958,#959,#960,#961,#962,#963,
#964,#965,#966,#967,#968,#969,#970,#971,#972,#973,#974,#975,#976,#977,#978,
#979,#980,#981,#982,#983,#984,#985,#986,#987,#988,#989,#990,#991,#992,#993,
#994,#995,#996,#997,#998,#999,#1000,#1001,#1002,#1003,#1004,#1005,#1006,
#1007,#1008,#1009,#1010,#1011,#1012,#1013,#1014,#1015,#1016,#1017,#1018,
#1019,#1020,#1021,#1022,#1023,#1024,#1025,#1026,#1027,#1028,#1029,#1030,
#1031,#1032,#1033,#1034,#1035,#1036,#1037,#1038,#1039,#1040,#1041,#1042,
#1043,#1044,#1045,#1046,#1047,#1048,#1049,#1050,#1051,#1052,#1053,#1054,
#1055,#1056,#1057,#1058,#1059,#1060,#1061,#1062,#1063,#1064,#1065,#1066,
#1067,#1068,#1069,#1070,#1071,#1072,#1073,#1074,#1075,#1076,#1077,#1078,
#1079,#1080,#1081,#1082,#1083,#1084,#1085,#1086,#1087,#1088,#1089,#1090,
#1091,#1092,#1093,#1094,#1095,#1096,#1097,#1098,#1099,#1100,#1101,#1102,
#1103,#1104,#1105,#1106,#1107,#1108,#1109,#1110,#1111,#1112,#1113,#1114,
#1115,#1116,#1117,#1118,#1119,#1120,#1121,#1122,#1123,#1124,#1125,#1126,
#1127,#1128,#1129,#1130,#1131,#1132,#1133,#1134,#1135,#1136,#1137,#1138,
#1139,#1140,#1141,#1142,#1143,#1144,#1145,#1146,#1147,#1148,#1149,#1150,
#1151,#1152,#1153,#1154,#1155,#1156,#1157,#1158,#1159,#1160,#1161,#1162,
#1163,#1164,#1165,#1166,#1167,#1168,#1169,#1170,#1171,#1172,#1173,#1174,
#1175,#1176,#1177,#1178,#1179,#1180,#1181,#1182,#1183,#1184,#1185,#1186,
#1187,#1188,#1189,#1190,#1191,#1192));
#1194=IFCSTYLEDITEM(#1199,(#1195),'');
#1195=IFCPRESENTATIONSTYLEASSIGNMENT((#1196));
#1196=IFCSURFACESTYLE('',.BOTH.,(#1197));
#1197=IFCSURFACESTYLERENDERING(#1198,0.,$,$,$,$,$,$,.NOTDEFINED.);
#1198=IFCCOLOURRGB('',0.660000026226044,0.608167588710785,0.532146632671356);
#1199=IFCFACETEDBREP(#1193);
#1200=IFCPROJECT('07hUkdHgGydfWsFJH56q5B',#1549,'Sand_4565452_AVV',' ',
' ',' ',' ',(#1544),#1201);
#1201=IFCUNITASSIGNMENT((#1545,#1546,#1547,#1548));
#1202=IFCGEOMETRICREPRESENTATIONSUBCONTEXT('Body','Model',*,*,*,*,#1544,
1.,.MODEL_VIEW.,$);
#1203=IFCAXIS2PLACEMENT3D(#1209,#1205,#1206);
#1204=IFCAXIS2PLACEMENT3D(#1543,#1207,#1208);
#1205=IFCDIRECTION((0.,0.,1.));
#1206=IFCDIRECTION((1.,0.,0.));
#1207=IFCDIRECTION((0.,0.,1.));
#1208=IFCDIRECTION((1.,0.,0.));
#1209=IFCCARTESIANPOINT((0.,0.,0.));
#1210=IFCCARTESIANPOINT((2.44917396713657,5.91282900807223,0.));
#1211=IFCCARTESIANPOINT((4.5254833995939,4.5254833995939,0.));
#1212=IFCCARTESIANPOINT((3.39411254969543,3.39411254969543,0.));
#1213=IFCCARTESIANPOINT((1.83688047535243,4.43462175605418,0.));
#1214=IFCCARTESIANPOINT((5.91282900807223,2.44917396713657,0.));
#1215=IFCCARTESIANPOINT((6.4,0.,0.));
#1216=IFCCARTESIANPOINT((4.8,0.,0.));
#1217=IFCCARTESIANPOINT((4.43462175605418,1.83688047535243,0.));
#1218=IFCCARTESIANPOINT((5.91282900807224,-2.44917396713657,0.));
#1219=IFCCARTESIANPOINT((4.43462175605418,-1.83688047535243,0.));
#1220=IFCCARTESIANPOINT((4.5254833995939,-4.5254833995939,0.));
#1221=IFCCARTESIANPOINT((3.39411254969543,-3.39411254969543,0.));
#1222=IFCCARTESIANPOINT((2.44917396713658,-5.91282900807223,0.));
#1223=IFCCARTESIANPOINT((1.83688047535243,-4.43462175605418,0.));
#1224=IFCCARTESIANPOINT((-1.17566092718146E-15,-6.4,0.));
#1225=IFCCARTESIANPOINT((-8.81745695386094E-16,-4.8,0.));
#1226=IFCCARTESIANPOINT((-2.44917396713657,-5.91282900807224,0.));
#1227=IFCCARTESIANPOINT((-4.5254833995939,-4.5254833995939,0.));
#1228=IFCCARTESIANPOINT((-3.39411254969543,-3.39411254969543,0.));
#1229=IFCCARTESIANPOINT((-1.83688047535243,-4.43462175605418,0.));
#1230=IFCCARTESIANPOINT((-2.44917396713657,5.91282900807223,0.));
#1231=IFCCARTESIANPOINT((-1.02919849579305E-15,6.4,0.));
#1232=IFCCARTESIANPOINT((-7.71898871844786E-16,4.8,0.));
#1233=IFCCARTESIANPOINT((-1.83688047535243,4.43462175605418,0.));
#1234=IFCCARTESIANPOINT((-5.91282900807224,-2.44917396713657,0.));
#1235=IFCCARTESIANPOINT((-6.4,7.83773951454306E-16,0.));
#1236=IFCCARTESIANPOINT((-4.8,5.87830463590729E-16,0.));
#1237=IFCCARTESIANPOINT((-4.43462175605418,-1.83688047535243,0.));
#1238=IFCCARTESIANPOINT((-5.91282900807224,2.44917396713657,0.));
#1239=IFCCARTESIANPOINT((-4.5254833995939,4.5254833995939,0.));
#1240=IFCCARTESIANPOINT((-3.39411254969543,3.39411254969543,0.));
#1241=IFCCARTESIANPOINT((-4.43462175605418,1.83688047535243,0.));
#1242=IFCCARTESIANPOINT((4.43462175605418,-1.83688047535243,-1.2));
#1243=IFCCARTESIANPOINT((4.8,0.,-1.2));
#1244=IFCCARTESIANPOINT((3.39411254969543,-3.39411254969543,-1.2));
#1245=IFCCARTESIANPOINT((1.83688047535243,-4.43462175605418,-1.2));
#1246=IFCCARTESIANPOINT((-8.81745695386094E-16,-4.8,-1.2));
#1247=IFCCARTESIANPOINT((-1.83688047535243,-4.43462175605418,-1.2));
#1248=IFCCARTESIANPOINT((-3.39411254969543,-3.39411254969543,-1.2));
#1249=IFCCARTESIANPOINT((-4.43462175605418,-1.83688047535243,-1.2));
#1250=IFCCARTESIANPOINT((-4.8,5.87830463590729E-16,-1.2));
#1251=IFCCARTESIANPOINT((-4.43462175605418,1.83688047535243,-1.2));
#1252=IFCCARTESIANPOINT((-3.39411254969543,3.39411254969543,-1.2));
#1253=IFCCARTESIANPOINT((-1.83688047535243,4.43462175605418,-1.2));
#1254=IFCCARTESIANPOINT((-7.71898871844786E-16,4.8,-1.2));
#1255=IFCCARTESIANPOINT((1.83688047535243,4.43462175605418,-1.2));
#1256=IFCCARTESIANPOINT((3.39411254969543,3.39411254969543,-1.2));
#1257=IFCCARTESIANPOINT((4.43462175605418,1.83688047535243,-1.2));
#1258=IFCCARTESIANPOINT((1.37766035651432,3.32596631704063,-1.2));
#1259=IFCCARTESIANPOINT((-5.78924153883589E-16,3.6,-1.2));
#1260=IFCCARTESIANPOINT((3.32596631704063,1.37766035651432,-1.2));
#1261=IFCCARTESIANPOINT((2.54558441227157,2.54558441227157,-1.2));
#1262=IFCCARTESIANPOINT((3.6,0.,-1.2));
#1263=IFCCARTESIANPOINT((3.32596631704063,-1.37766035651432,-1.2));
#1264=IFCCARTESIANPOINT((2.54558441227157,-2.54558441227157,-1.2));
#1265=IFCCARTESIANPOINT((-6.61309271539571E-16,-3.6,-1.2));
#1266=IFCCARTESIANPOINT((1.37766035651432,-3.32596631704063,-1.2));
#1267=IFCCARTESIANPOINT((-2.54558441227157,2.54558441227157,-1.2));
#1268=IFCCARTESIANPOINT((-3.32596631704063,1.37766035651432,-1.2));
#1269=IFCCARTESIANPOINT((-2.54558441227157,-2.54558441227157,-1.2));
#1270=IFCCARTESIANPOINT((-1.37766035651432,-3.32596631704063,-1.2));
#1271=IFCCARTESIANPOINT((-1.37766035651432,3.32596631704063,-1.2));
#1272=IFCCARTESIANPOINT((-3.6,4.40872847693047E-16,-1.2));
#1273=IFCCARTESIANPOINT((-3.32596631704063,-1.37766035651432,-1.2));
#1274=IFCCARTESIANPOINT((1.37766035651432,3.32596631704063,0.));
#1275=IFCCARTESIANPOINT((0.395808545911565,3.57817489720435,0.));
#1276=IFCCARTESIANPOINT((-0.399999999999995,3.57770876399966,0.));
#1277=IFCCARTESIANPOINT((-5.78924153883589E-16,3.6,2.8));
#1278=IFCCARTESIANPOINT((-0.399999999999995,3.57770876399966,2.8));
#1279=IFCCARTESIANPOINT((-3.32596631704063,1.37766035651432,0.));
#1280=IFCCARTESIANPOINT((-3.57770876399966,0.400000000000007,0.));
#1281=IFCCARTESIANPOINT((-3.57770876399966,-0.400000000000001,0.));
#1282=IFCCARTESIANPOINT((-3.6,4.40872847693047E-16,2.8));
#1283=IFCCARTESIANPOINT((-3.57770876399966,-0.400000000000001,2.8));
#1284=IFCCARTESIANPOINT((-1.37766035651432,-3.32596631704063,0.));
#1285=IFCCARTESIANPOINT((-0.399999999999993,-3.57770876399966,0.));
#1286=IFCCARTESIANPOINT((0.395808545911566,-3.57817489720435,0.));
#1287=IFCCARTESIANPOINT((-6.61309271539571E-16,-3.6,2.8));
#1288=IFCCARTESIANPOINT((0.395808545911566,-3.57817489720435,2.8));
#1289=IFCCARTESIANPOINT((3.32596631704063,-1.37766035651432,0.));
#1290=IFCCARTESIANPOINT((3.57770876399966,-0.4,0.));
#1291=IFCCARTESIANPOINT((3.57770876399967,0.399999999999976,0.));
#1292=IFCCARTESIANPOINT((3.6,0.,2.8));
#1293=IFCCARTESIANPOINT((3.57770876399967,0.399999999999976,2.8));
#1294=IFCCARTESIANPOINT((3.32596631704063,1.37766035651432,0.));
#1295=IFCCARTESIANPOINT((3.57770876399966,-0.4,2.8));
#1296=IFCCARTESIANPOINT((2.54558441227157,-2.54558441227157,0.));
#1297=IFCCARTESIANPOINT((1.37766035651432,-3.32596631704063,0.));
#1298=IFCCARTESIANPOINT((-0.399999999999993,-3.57770876399966,2.8));
#1299=IFCCARTESIANPOINT((-2.54558441227157,-2.54558441227157,0.));
#1300=IFCCARTESIANPOINT((-3.32596631704063,-1.37766035651432,0.));
#1301=IFCCARTESIANPOINT((-3.57770876399966,0.400000000000007,2.8));
#1302=IFCCARTESIANPOINT((-2.54558441227157,2.54558441227157,0.));
#1303=IFCCARTESIANPOINT((-1.37766035651432,3.32596631704063,0.));
#1304=IFCCARTESIANPOINT((0.395808545911565,3.57817489720435,2.8));
#1305=IFCCARTESIANPOINT((2.54558441227157,2.54558441227157,0.));
#1306=IFCCARTESIANPOINT((-2.36643191323984,-0.400000000000003,2.8));
#1307=IFCCARTESIANPOINT((-2.36643191323984,-0.400000000000003,0.));
#1308=IFCCARTESIANPOINT((-2.25014177247107,-0.834782608695656,2.8));
#1309=IFCCARTESIANPOINT((-2.25014177247107,-0.834782608695656,0.));
#1310=IFCCARTESIANPOINT((-2.23543793189618,-0.861243536511754,2.8));
#1311=IFCCARTESIANPOINT((-2.23543793189618,-0.861243536511754,0.));
#1312=IFCCARTESIANPOINT((-2.21348988935679,-0.882092206906522,2.8));
#1313=IFCCARTESIANPOINT((-2.21348988935679,-0.882092206906522,0.));
#1314=IFCCARTESIANPOINT((-2.18630892753906,-0.895418081857302,2.8));
#1315=IFCCARTESIANPOINT((-2.18630892753906,-0.895418081857302,0.));
#1316=IFCCARTESIANPOINT((-2.15638586528477,-0.900000000000004,2.8));
#1317=IFCCARTESIANPOINT((-2.15638586528477,-0.900000000000004,0.));
#1318=IFCCARTESIANPOINT((-1.39999999999999,-0.900000000000003,2.8));
#1319=IFCCARTESIANPOINT((-1.39999999999999,-0.900000000000003,0.));
#1320=IFCCARTESIANPOINT((-1.20865828381745,-0.93806023374436,2.8));
#1321=IFCCARTESIANPOINT((-1.20865828381745,-0.93806023374436,0.));
#1322=IFCCARTESIANPOINT((-1.04644660940672,-1.04644660940673,2.8));
#1323=IFCCARTESIANPOINT((-1.04644660940672,-1.04644660940673,0.));
#1324=IFCCARTESIANPOINT((-0.938060233744347,-1.20865828381746,2.8));
#1325=IFCCARTESIANPOINT((-0.938060233744347,-1.20865828381746,0.));
#1326=IFCCARTESIANPOINT((-0.89999999999999,-1.4,2.8));
#1327=IFCCARTESIANPOINT((-0.89999999999999,-1.4,0.));
#1328=IFCCARTESIANPOINT((-0.89999999999999,-2.15638586528478,2.8));
#1329=IFCCARTESIANPOINT((-0.89999999999999,-2.15638586528478,0.));
#1330=IFCCARTESIANPOINT((-0.895418081857288,-2.18630892753907,0.));
#1331=IFCCARTESIANPOINT((-0.86124353651174,-2.23543793189619,0.));
#1332=IFCCARTESIANPOINT((-0.834782608695642,-2.25014177247108,0.));
#1333=IFCCARTESIANPOINT((-0.882092206906508,-2.2134898893568,0.));
#1334=IFCCARTESIANPOINT((-0.399999999999995,-2.36643191323985,0.));
#1335=IFCCARTESIANPOINT((-0.895418081857288,-2.18630892753907,2.8));
#1336=IFCCARTESIANPOINT((-0.882092206906508,-2.2134898893568,2.8));
#1337=IFCCARTESIANPOINT((-0.86124353651174,-2.23543793189619,2.8));
#1338=IFCCARTESIANPOINT((-0.834782608695642,-2.25014177247108,2.8));
#1339=IFCCARTESIANPOINT((-0.399999999999995,-2.36643191323985,2.8));
#1340=IFCCARTESIANPOINT((0.395808545911567,-2.36713658139605,2.8));
#1341=IFCCARTESIANPOINT((0.395808545911567,-2.36713658139605,0.));
#1342=IFCCARTESIANPOINT((0.834782608695663,-2.25014177247108,2.8));
#1343=IFCCARTESIANPOINT((0.834782608695663,-2.25014177247108,0.));
#1344=IFCCARTESIANPOINT((0.86124353651176,-2.23543793189619,2.8));
#1345=IFCCARTESIANPOINT((0.86124353651176,-2.23543793189619,0.));
#1346=IFCCARTESIANPOINT((0.882092206906529,-2.2134898893568,2.8));
#1347=IFCCARTESIANPOINT((0.882092206906529,-2.2134898893568,0.));
#1348=IFCCARTESIANPOINT((0.895418081857308,-2.18630892753907,2.8));
#1349=IFCCARTESIANPOINT((0.895418081857308,-2.18630892753907,0.));
#1350=IFCCARTESIANPOINT((0.900000000000011,-2.15638586528478,2.8));
#1351=IFCCARTESIANPOINT((0.900000000000011,-2.15638586528478,0.));
#1352=IFCCARTESIANPOINT((0.90000000000001,-1.4,2.8));
#1353=IFCCARTESIANPOINT((0.90000000000001,-1.4,0.));
#1354=IFCCARTESIANPOINT((0.938060233744367,-1.20865828381746,2.8));
#1355=IFCCARTESIANPOINT((0.938060233744367,-1.20865828381746,0.));
#1356=IFCCARTESIANPOINT((1.04644660940674,-1.04644660940673,2.8));
#1357=IFCCARTESIANPOINT((1.04644660940674,-1.04644660940673,0.));
#1358=IFCCARTESIANPOINT((1.20865828381746,-0.938060233744357,2.8));
#1359=IFCCARTESIANPOINT((1.20865828381746,-0.938060233744357,0.));
#1360=IFCCARTESIANPOINT((1.40000000000001,-0.900000000000001,2.8));
#1361=IFCCARTESIANPOINT((1.40000000000001,-0.900000000000001,0.));
#1362=IFCCARTESIANPOINT((2.15638586528479,-0.9,2.8));
#1363=IFCCARTESIANPOINT((2.15638586528479,-0.9,0.));
#1364=IFCCARTESIANPOINT((2.18630892753908,-0.895418081857297,0.));
#1365=IFCCARTESIANPOINT((2.21348988935681,-0.882092206906518,0.));
#1366=IFCCARTESIANPOINT((2.2354379318962,-0.86124353651175,0.));
#1367=IFCCARTESIANPOINT((2.25014177247109,-0.834782608695652,0.));
#1368=IFCCARTESIANPOINT((2.36643191323985,-0.400000000000001,0.));
#1369=IFCCARTESIANPOINT((2.18630892753908,-0.895418081857297,2.8));
#1370=IFCCARTESIANPOINT((2.21348988935681,-0.882092206906518,2.8));
#1371=IFCCARTESIANPOINT((2.2354379318962,-0.86124353651175,2.8));
#1372=IFCCARTESIANPOINT((2.25014177247109,-0.834782608695652,2.8));
#1373=IFCCARTESIANPOINT((2.36643191323985,-0.400000000000001,2.8));
#1374=IFCCARTESIANPOINT((2.36643191323986,0.399999999999981,2.8));
#1375=IFCCARTESIANPOINT((2.36643191323986,0.399999999999981,0.));
#1376=IFCCARTESIANPOINT((2.25014177247108,0.834782608695655,2.8));
#1377=IFCCARTESIANPOINT((2.25014177247108,0.834782608695655,0.));
#1378=IFCCARTESIANPOINT((2.23543793189619,0.861243536511752,2.8));
#1379=IFCCARTESIANPOINT((2.23543793189619,0.861243536511752,0.));
#1380=IFCCARTESIANPOINT((2.21348988935681,0.882092206906521,2.8));
#1381=IFCCARTESIANPOINT((2.21348988935681,0.882092206906521,0.));
#1382=IFCCARTESIANPOINT((2.18630892753908,0.8954180818573,2.8));
#1383=IFCCARTESIANPOINT((2.18630892753908,0.8954180818573,0.));
#1384=IFCCARTESIANPOINT((2.15638586528479,0.900000000000002,2.8));
#1385=IFCCARTESIANPOINT((2.15638586528479,0.900000000000002,0.));
#1386=IFCCARTESIANPOINT((1.40000000000001,0.900000000000002,2.8));
#1387=IFCCARTESIANPOINT((1.40000000000001,0.900000000000002,0.));
#1388=IFCCARTESIANPOINT((1.20865828381746,0.938060233744358,2.8));
#1389=IFCCARTESIANPOINT((1.20865828381746,0.938060233744358,0.));
#1390=IFCCARTESIANPOINT((1.04644660940673,1.04644660940673,2.8));
#1391=IFCCARTESIANPOINT((1.04644660940673,1.04644660940673,0.));
#1392=IFCCARTESIANPOINT((0.938060233744365,1.20865828381746,2.8));
#1393=IFCCARTESIANPOINT((0.938060233744365,1.20865828381746,0.));
#1394=IFCCARTESIANPOINT((0.900000000000008,1.4,2.8));
#1395=IFCCARTESIANPOINT((0.900000000000008,1.4,0.));
#1396=IFCCARTESIANPOINT((0.900000000000008,2.15638586528478,2.8));
#1397=IFCCARTESIANPOINT((0.900000000000008,2.15638586528478,0.));
#1398=IFCCARTESIANPOINT((0.895418081857305,2.18630892753907,0.));
#1399=IFCCARTESIANPOINT((0.861243536511757,2.23543793189619,0.));
#1400=IFCCARTESIANPOINT((0.83478260869566,2.25014177247108,0.));
#1401=IFCCARTESIANPOINT((0.882092206906526,2.2134898893568,0.));
#1402=IFCCARTESIANPOINT((0.395808545911566,2.36713658139605,0.));
#1403=IFCCARTESIANPOINT((0.895418081857305,2.18630892753907,2.8));
#1404=IFCCARTESIANPOINT((0.882092206906526,2.2134898893568,2.8));
#1405=IFCCARTESIANPOINT((0.861243536511757,2.23543793189619,2.8));
#1406=IFCCARTESIANPOINT((0.83478260869566,2.25014177247108,2.8));
#1407=IFCCARTESIANPOINT((0.395808545911566,2.36713658139605,2.8));
#1408=IFCCARTESIANPOINT((-0.399999999999995,2.36643191323984,2.8));
#1409=IFCCARTESIANPOINT((-0.399999999999995,2.36643191323984,0.));
#1410=IFCCARTESIANPOINT((-0.834782608695643,2.25014177247108,2.8));
#1411=IFCCARTESIANPOINT((-0.834782608695643,2.25014177247108,0.));
#1412=IFCCARTESIANPOINT((-0.86124353651174,2.23543793189619,2.8));
#1413=IFCCARTESIANPOINT((-0.86124353651174,2.23543793189619,0.));
#1414=IFCCARTESIANPOINT((-0.882092206906509,2.2134898893568,2.8));
#1415=IFCCARTESIANPOINT((-0.882092206906509,2.2134898893568,0.));
#1416=IFCCARTESIANPOINT((-0.895418081857288,2.18630892753907,2.8));
#1417=IFCCARTESIANPOINT((-0.895418081857288,2.18630892753907,0.));
#1418=IFCCARTESIANPOINT((-0.899999999999991,2.15638586528478,2.8));
#1419=IFCCARTESIANPOINT((-0.899999999999991,2.15638586528478,0.));
#1420=IFCCARTESIANPOINT((-0.899999999999991,1.4,2.8));
#1421=IFCCARTESIANPOINT((-0.899999999999991,1.4,0.));
#1422=IFCCARTESIANPOINT((-0.938060233744347,1.20865828381745,2.8));
#1423=IFCCARTESIANPOINT((-0.938060233744347,1.20865828381745,0.));
#1424=IFCCARTESIANPOINT((-1.04644660940672,1.04644660940672,2.8));
#1425=IFCCARTESIANPOINT((-1.04644660940672,1.04644660940672,0.));
#1426=IFCCARTESIANPOINT((-1.20865828381745,0.938060233744355,2.8));
#1427=IFCCARTESIANPOINT((-1.20865828381745,0.938060233744355,0.));
#1428=IFCCARTESIANPOINT((-1.39999999999999,0.899999999999998,2.8));
#1429=IFCCARTESIANPOINT((-1.39999999999999,0.899999999999998,0.));
#1430=IFCCARTESIANPOINT((-2.15638586528477,0.899999999999997,2.8));
#1431=IFCCARTESIANPOINT((-2.15638586528477,0.899999999999997,0.));
#1432=IFCCARTESIANPOINT((-2.18630892753906,0.895418081857294,0.));
#1433=IFCCARTESIANPOINT((-2.23543793189618,0.861243536511747,0.));
#1434=IFCCARTESIANPOINT((-2.25014177247107,0.834782608695649,0.));
#1435=IFCCARTESIANPOINT((-2.21348988935679,0.882092206906515,0.));
#1436=IFCCARTESIANPOINT((-2.36643191323984,0.399999999999999,0.));
#1437=IFCCARTESIANPOINT((-2.18630892753906,0.895418081857294,2.8));
#1438=IFCCARTESIANPOINT((-2.21348988935679,0.882092206906515,2.8));
#1439=IFCCARTESIANPOINT((-2.23543793189618,0.861243536511747,2.8));
#1440=IFCCARTESIANPOINT((-2.25014177247107,0.834782608695649,2.8));
#1441=IFCCARTESIANPOINT((-2.36643191323984,0.399999999999999,2.8));
#1442=IFCCARTESIANPOINT((-2.49698723559918,3.12490875790874,2.8));
#1443=IFCCARTESIANPOINT((-2.49698723559919,-3.12490875790874,2.8));
#1444=IFCCARTESIANPOINT((-3.12490875790874,2.49698723559918,2.8));
#1445=IFCCARTESIANPOINT((-3.12490875790874,-2.49698723559918,2.8));
#1446=IFCCARTESIANPOINT((-2.61866342177568,-4.53565809443764,2.8));
#1447=IFCCARTESIANPOINT((-1.45775675105786,-3.72490875790874,2.8));
#1448=IFCCARTESIANPOINT((-3.72490875790874,-1.45775675105785,2.8));
#1449=IFCCARTESIANPOINT((2.49698723559918,-3.12490875790874,2.8));
#1450=IFCCARTESIANPOINT((3.12490875790874,-2.49698723559918,2.8));
#1451=IFCCARTESIANPOINT((3.12490875790874,2.49698723559918,2.8));
#1452=IFCCARTESIANPOINT((2.49698723559918,3.12490875790874,2.8));
#1453=IFCCARTESIANPOINT((1.45775675105785,-3.72490875790874,2.8));
#1454=IFCCARTESIANPOINT((-4.53565809443764,2.61866342177568,2.8));
#1455=IFCCARTESIANPOINT((-3.72490875790874,1.45775675105786,2.8));
#1456=IFCCARTESIANPOINT((-4.53565809443764,-2.61866342177567,2.8));
#1457=IFCCARTESIANPOINT((2.61866342177568,4.53565809443764,2.8));
#1458=IFCCARTESIANPOINT((1.45775675105786,3.72490875790874,2.8));
#1459=IFCCARTESIANPOINT((3.72490875790874,1.45775675105786,2.8));
#1460=IFCCARTESIANPOINT((-0.6,3.95474398665704,2.8));
#1461=IFCCARTESIANPOINT((-1.45775675105786,3.72490875790874,2.8));
#1462=IFCCARTESIANPOINT((-5.23732684355135,2.82803276245606E-15,2.8));
#1463=IFCCARTESIANPOINT((-3.95474398665704,-0.599999999999998,2.8));
#1464=IFCCARTESIANPOINT((2.61866342177567,-4.53565809443764,2.8));
#1465=IFCCARTESIANPOINT((1.56602139902972E-15,5.23732684355135,2.8));
#1466=IFCCARTESIANPOINT((-2.61866342177568,4.53565809443764,2.8));
#1467=IFCCARTESIANPOINT((-0.600000000000004,-3.95474398665704,2.8));
#1468=IFCCARTESIANPOINT((-5.6943162700645E-15,-5.23732684355135,2.8));
#1469=IFCCARTESIANPOINT((0.599999999999996,-3.95474398665704,2.8));
#1470=IFCCARTESIANPOINT((4.53565809443764,-2.61866342177568,2.8));
#1471=IFCCARTESIANPOINT((3.72490875790874,-1.45775675105786,2.8));
#1472=IFCCARTESIANPOINT((4.53565809443764,2.61866342177568,2.8));
#1473=IFCCARTESIANPOINT((-3.95474398665704,0.600000000000002,2.8));
#1474=IFCCARTESIANPOINT((3.95474398665704,0.6,2.8));
#1475=IFCCARTESIANPOINT((3.95474398665704,-0.6,2.8));
#1476=IFCCARTESIANPOINT((5.23732684355135,-4.01980210214385E-16,2.8));
#1477=IFCCARTESIANPOINT((0.600000000000001,3.95474398665704,2.8));
#1478=IFCCARTESIANPOINT((5.5425625842204,-3.2,1.8));
#1479=IFCCARTESIANPOINT((5.03748576307948,-3.94762424589418,0.2));
#1480=IFCCARTESIANPOINT((3.2,-5.54256258422041,1.8));
#1481=IFCCARTESIANPOINT((3.94762424589417,-5.03748576307948,0.199999999999999));
#1482=IFCCARTESIANPOINT((2.38877851908218,-5.93748576307949,0.2));
#1483=IFCCARTESIANPOINT((-6.92095606286104E-15,-6.4,1.8));
#1484=IFCCARTESIANPOINT((0.899999999999992,-6.33640276497636,0.199999999999999));
#1485=IFCCARTESIANPOINT((-0.900000000000006,-6.33640276497636,0.2));
#1486=IFCCARTESIANPOINT((-3.20000000000001,-5.5425625842204,1.8));
#1487=IFCCARTESIANPOINT((-2.38877851908219,-5.93748576307948,0.199999999999999));
#1488=IFCCARTESIANPOINT((-3.94762424589418,-5.03748576307948,0.2));
#1489=IFCCARTESIANPOINT((-5.54256258422041,-3.19999999999999,1.8));
#1490=IFCCARTESIANPOINT((-5.03748576307949,-3.94762424589417,0.199999999999999));
#1491=IFCCARTESIANPOINT((-5.93748576307949,-2.38877851908218,0.2));
#1492=IFCCARTESIANPOINT((-6.4,3.60994945257275E-15,1.8));
#1493=IFCCARTESIANPOINT((-6.33640276497636,-0.899999999999996,0.199999999999999));
#1494=IFCCARTESIANPOINT((-6.33640276497636,0.900000000000002,0.2));
#1495=IFCCARTESIANPOINT((-5.5425625842204,3.2,1.8));
#1496=IFCCARTESIANPOINT((-5.93748576307948,2.38877851908218,0.199999999999999));
#1497=IFCCARTESIANPOINT((-5.03748576307948,3.94762424589418,0.2));
#1498=IFCCARTESIANPOINT((-3.2,5.54256258422041,1.8));
#1499=IFCCARTESIANPOINT((-3.94762424589417,5.03748576307948,0.199999999999999));
#1500=IFCCARTESIANPOINT((-2.38877851908218,5.93748576307948,0.2));
#1501=IFCCARTESIANPOINT((1.62181879846671E-15,6.4,1.8));
#1502=IFCCARTESIANPOINT((-0.899999999999998,6.33640276497636,0.199999999999999));
#1503=IFCCARTESIANPOINT((0.900000000000001,6.33640276497636,0.2));
#1504=IFCCARTESIANPOINT((3.2,5.54256258422041,1.8));
#1505=IFCCARTESIANPOINT((2.38877851908218,5.93748576307948,0.199999999999999));
#1506=IFCCARTESIANPOINT((3.94762424589417,5.03748576307948,0.2));
#1507=IFCCARTESIANPOINT((5.54256258422041,3.2,1.8));
#1508=IFCCARTESIANPOINT((5.03748576307948,3.94762424589417,0.199999999999999));
#1509=IFCCARTESIANPOINT((5.93748576307948,2.38877851908218,0.2));
#1510=IFCCARTESIANPOINT((6.4,0.,1.8));
#1511=IFCCARTESIANPOINT((6.33640276497636,0.9,0.2));
#1512=IFCCARTESIANPOINT((6.33640276497636,-0.9,0.2));
#1513=IFCCARTESIANPOINT((3.95474398665704,0.6,0.199999999999999));
#1514=IFCCARTESIANPOINT((3.72490875790874,1.45775675105786,0.199999999999999));
#1515=IFCCARTESIANPOINT((3.12490875790874,2.49698723559918,0.199999999999999));
#1516=IFCCARTESIANPOINT((2.49698723559918,3.12490875790874,0.199999999999999));
#1517=IFCCARTESIANPOINT((4.5254833995939,4.5254833995939,0.199999999999999));
#1518=IFCCARTESIANPOINT((1.45775675105786,3.72490875790874,0.199999999999999));
#1519=IFCCARTESIANPOINT((0.600000000000001,3.95474398665704,0.199999999999999));
#1520=IFCCARTESIANPOINT((-0.599999999999999,3.95474398665704,0.199999999999999));
#1521=IFCCARTESIANPOINT((-1.45775675105786,3.72490875790874,0.199999999999999));
#1522=IFCCARTESIANPOINT((-2.49698723559918,3.12490875790874,0.199999999999999));
#1523=IFCCARTESIANPOINT((-3.12490875790874,2.49698723559918,0.199999999999999));
#1524=IFCCARTESIANPOINT((-4.5254833995939,4.5254833995939,0.199999999999999));
#1525=IFCCARTESIANPOINT((-3.72490875790874,1.45775675105786,0.199999999999999));
#1526=IFCCARTESIANPOINT((-3.95474398665704,0.600000000000002,0.199999999999999));
#1527=IFCCARTESIANPOINT((-3.95474398665704,-0.599999999999998,0.199999999999999));
#1528=IFCCARTESIANPOINT((-3.72490875790874,-1.45775675105785,0.199999999999999));
#1529=IFCCARTESIANPOINT((-3.12490875790874,-2.49698723559918,0.199999999999999));
#1530=IFCCARTESIANPOINT((-2.49698723559919,-3.12490875790874,0.199999999999999));
#1531=IFCCARTESIANPOINT((-4.5254833995939,-4.5254833995939,0.199999999999999));
#1532=IFCCARTESIANPOINT((-1.45775675105786,-3.72490875790874,0.199999999999999));
#1533=IFCCARTESIANPOINT((-0.600000000000004,-3.95474398665704,0.199999999999999));
#1534=IFCCARTESIANPOINT((0.599999999999996,-3.95474398665704,0.199999999999999));
#1535=IFCCARTESIANPOINT((1.45775675105785,-3.72490875790874,0.199999999999999));
#1536=IFCCARTESIANPOINT((2.49698723559918,-3.12490875790874,0.199999999999999));
#1537=IFCCARTESIANPOINT((3.12490875790874,-2.49698723559918,0.199999999999999));
#1538=IFCCARTESIANPOINT((4.5254833995939,-4.5254833995939,0.199999999999999));
#1539=IFCCARTESIANPOINT((5.93748576307948,-2.38877851908219,0.199999999999999));
#1540=IFCCARTESIANPOINT((3.95474398665704,-0.6,0.2));
#1541=IFCCARTESIANPOINT((3.72490875790874,-1.45775675105786,0.199999999999999));
#1542=IFCCARTESIANPOINT((0.,0.,0.));
#1543=IFCCARTESIANPOINT((0.,0.,0.));
#1544=IFCGEOMETRICREPRESENTATIONCONTEXT($,'Model',3,0.005,#1203,$);
#1545=IFCSIUNIT(*,.LENGTHUNIT.,.MILLI.,.METRE.);
#1546=IFCSIUNIT(*,.AREAUNIT.,$,.SQUARE_METRE.);
#1547=IFCSIUNIT(*,.VOLUMEUNIT.,$,.CUBIC_METRE.);
#1548=IFCSIUNIT(*,.PLANEANGLEUNIT.,$,.RADIAN.);
#1549=IFCOWNERHISTORY(#1551,#1550,$,.NOCHANGE.,0,$,$,0);
#1550=IFCAPPLICATION(#1552,' ',' ',' ');
#1551=IFCPERSONANDORGANIZATION(#1553,#1552,$);
#1552=IFCORGANIZATION($,' ',$,$,$);
#1553=IFCPERSON(' ',' ',' ',$,$,$,$,$);
ENDSEC;
END-ISO-10303-21;
