ISO-10303-21;
HEADER;
/* Generated by software containing ST-Developer
 * from STEP Tools, Inc. (www.steptools.com) 
 */
/* OPTION: strings as raw bytes, not using required /X/ escapes */

FILE_DESCRIPTION(
/* description */ ('Unknown'),
/* implementation_level */ '2;1');

FILE_NAME(
/* name */ 'Trans_3005740_JC',
/* time_stamp */ '2025-07-22T00:05:52+02:00',
/* author */ ('Unknown'),
/* organization */ ('Unknown'),
/* preprocessor_version */ 'ST-DEVELOPER v19.4',
/* originating_system */ 'Unknown',
/* authorisation */ 'OpenTools');

FILE_SCHEMA (('IFC2X3'));
ENDSEC;

DATA;
#10=IFCPROPERTYSINGLEVALUE('ProjectName',$,IFCTEXT(''),$);
#11=IFCPROPERTYSINGLEVALUE('PartNumber',$,IFCTEXT(''),$);
#12=IFCRELDEFINESBYPROPERTIES('3cRq1JQpSwDOm5lsE5cG83',#648,$,$,(#14),#13);
#13=IFCPROPERTYSET('1jOd4kXgWorA4TVRi95rqH',#648,
'empty property set name',$,(#10,#11));
#14=IFCBUILDINGELEMENTPROXY('2GP_XOK7Wq1Pa1NGQTVWHM',#648,
'Trans_3005740_JC',' ','Trans_3005740_JC',#19,#15,' ',.ELEMENT.);
#15=IFCPRODUCTDEFINITIONSHAPE(' ',' ',(#25));
#16=IFCRELCONTAINEDINSPATIALSTRUCTURE('3HZhfx2I0vj9Cvp1GHER_f',#648,' ',
' ',(#14),#20);
#17=IFCRELAGGREGATES('1jF0XzMGqvEA6wZwPLSawz',#648,$,$,#471,(#20));
#18=IFCLOCALPLACEMENT($,#474);
#19=IFCLOCALPLACEMENT(#18,#475);
#20=IFCBUILDING('3G2N19bOG__grq1LV0cQPU',#648,'Default Building',$,$,#18,
$,$,.ELEMENT.,0.,0.,$);
#21=IFCCARTESIANTRANSFORMATIONOPERATOR3D($,$,#641,1.,$);
#22=IFCMAPPEDITEM(#23,#21);
#23=IFCREPRESENTATIONMAP(#474,#24);
#24=IFCSHAPEREPRESENTATION(#473,'Body','Brep',(#470));
#25=IFCSHAPEREPRESENTATION(#473,'Body','MappedRepresentation',(#22));
#26=IFCPOLYLOOP((#481,#482,#483,#484,#485,#486,#487,#488,#489,#490,#491,
#492,#493,#494,#495,#496));
#27=IFCPOLYLOOP((#495,#497,#498,#496));
#28=IFCPOLYLOOP((#494,#499,#497,#495));
#29=IFCPOLYLOOP((#493,#500,#499,#494));
#30=IFCPOLYLOOP((#492,#501,#500,#493));
#31=IFCPOLYLOOP((#491,#502,#501,#492));
#32=IFCPOLYLOOP((#490,#503,#502,#491));
#33=IFCPOLYLOOP((#489,#504,#503,#490));
#34=IFCPOLYLOOP((#488,#505,#504,#489));
#35=IFCPOLYLOOP((#487,#506,#505,#488));
#36=IFCPOLYLOOP((#486,#507,#506,#487));
#37=IFCPOLYLOOP((#485,#508,#507,#486));
#38=IFCPOLYLOOP((#484,#509,#508,#485));
#39=IFCPOLYLOOP((#483,#510,#509,#484));
#40=IFCPOLYLOOP((#482,#511,#510,#483));
#41=IFCPOLYLOOP((#481,#512,#511,#482));
#42=IFCPOLYLOOP((#496,#498,#512,#481));
#43=IFCPOLYLOOP((#513,#514,#510,#511));
#44=IFCPOLYLOOP((#514,#515,#509,#510));
#45=IFCPOLYLOOP((#515,#516,#508,#509));
#46=IFCPOLYLOOP((#517,#518,#505,#506));
#47=IFCPOLYLOOP((#516,#519,#507,#508));
#48=IFCPOLYLOOP((#518,#520,#504,#505));
#49=IFCPOLYLOOP((#521,#522,#501,#502));
#50=IFCPOLYLOOP((#506,#507,#519,#517));
#51=IFCPOLYLOOP((#522,#523,#500,#501));
#52=IFCPOLYLOOP((#524,#525,#497,#499));
#53=IFCPOLYLOOP((#520,#526,#503,#504));
#54=IFCPOLYLOOP((#499,#500,#523,#524));
#55=IFCPOLYLOOP((#502,#503,#526,#521));
#56=IFCPOLYLOOP((#525,#527,#498,#497));
#57=IFCPOLYLOOP((#511,#512,#528,#513));
#58=IFCPOLYLOOP((#512,#498,#527,#528));
#59=IFCPOLYLOOP((#525,#529,#530,#527));
#60=IFCPOLYLOOP((#524,#531,#529,#525));
#61=IFCPOLYLOOP((#523,#532,#531,#524));
#62=IFCPOLYLOOP((#522,#533,#532,#523));
#63=IFCPOLYLOOP((#521,#534,#533,#522));
#64=IFCPOLYLOOP((#526,#535,#534,#521));
#65=IFCPOLYLOOP((#520,#536,#535,#526));
#66=IFCPOLYLOOP((#518,#537,#536,#520));
#67=IFCPOLYLOOP((#517,#538,#537,#518));
#68=IFCPOLYLOOP((#519,#539,#538,#517));
#69=IFCPOLYLOOP((#516,#540,#539,#519));
#70=IFCPOLYLOOP((#515,#541,#540,#516));
#71=IFCPOLYLOOP((#514,#542,#541,#515));
#72=IFCPOLYLOOP((#513,#543,#542,#514));
#73=IFCPOLYLOOP((#528,#544,#543,#513));
#74=IFCPOLYLOOP((#527,#530,#544,#528));
#75=IFCPOLYLOOP((#530,#529,#545,#546));
#76=IFCPOLYLOOP((#539,#540,#547,#548));
#77=IFCPOLYLOOP((#529,#531,#549,#545));
#78=IFCPOLYLOOP((#532,#533,#550,#551));
#79=IFCPOLYLOOP((#548,#552,#538,#539));
#80=IFCPOLYLOOP((#541,#542,#553,#554));
#81=IFCPOLYLOOP((#551,#549,#531,#532));
#82=IFCPOLYLOOP((#554,#547,#540,#541));
#83=IFCPOLYLOOP((#543,#544,#555,#556));
#84=IFCPOLYLOOP((#533,#534,#557,#550));
#85=IFCPOLYLOOP((#556,#553,#542,#543));
#86=IFCPOLYLOOP((#534,#535,#558,#557));
#87=IFCPOLYLOOP((#546,#555,#544,#530));
#88=IFCPOLYLOOP((#536,#537,#559,#560));
#89=IFCPOLYLOOP((#560,#558,#535,#536));
#90=IFCPOLYLOOP((#552,#559,#537,#538));
#91=IFCPOLYLOOP((#545,#561,#562,#546));
#92=IFCPOLYLOOP((#549,#563,#561,#545));
#93=IFCPOLYLOOP((#551,#564,#563,#549));
#94=IFCPOLYLOOP((#550,#565,#564,#551));
#95=IFCPOLYLOOP((#557,#566,#565,#550));
#96=IFCPOLYLOOP((#558,#567,#566,#557));
#97=IFCPOLYLOOP((#560,#568,#567,#558));
#98=IFCPOLYLOOP((#559,#569,#568,#560));
#99=IFCPOLYLOOP((#552,#570,#569,#559));
#100=IFCPOLYLOOP((#548,#571,#570,#552));
#101=IFCPOLYLOOP((#547,#572,#571,#548));
#102=IFCPOLYLOOP((#554,#573,#572,#547));
#103=IFCPOLYLOOP((#553,#574,#573,#554));
#104=IFCPOLYLOOP((#556,#575,#574,#553));
#105=IFCPOLYLOOP((#555,#576,#575,#556));
#106=IFCPOLYLOOP((#546,#562,#576,#555));
#107=IFCPOLYLOOP((#565,#566,#577,#578));
#108=IFCPOLYLOOP((#570,#571,#579,#580));
#109=IFCPOLYLOOP((#563,#564,#581,#582));
#110=IFCPOLYLOOP((#566,#567,#583,#577));
#111=IFCPOLYLOOP((#571,#572,#584,#579));
#112=IFCPOLYLOOP((#578,#581,#564,#565));
#113=IFCPOLYLOOP((#572,#573,#585,#584));
#114=IFCPOLYLOOP((#562,#561,#586,#587));
#115=IFCPOLYLOOP((#567,#568,#588,#583));
#116=IFCPOLYLOOP((#573,#574,#589,#585));
#117=IFCPOLYLOOP((#575,#576,#590,#591));
#118=IFCPOLYLOOP((#582,#586,#561,#563));
#119=IFCPOLYLOOP((#591,#589,#574,#575));
#120=IFCPOLYLOOP((#568,#569,#592,#588));
#121=IFCPOLYLOOP((#587,#590,#576,#562));
#122=IFCPOLYLOOP((#580,#592,#569,#570));
#123=IFCPOLYLOOP((#593,#590,#587,#594));
#124=IFCPOLYLOOP((#595,#591,#590,#593));
#125=IFCPOLYLOOP((#596,#589,#591,#595));
#126=IFCPOLYLOOP((#597,#585,#589,#596));
#127=IFCPOLYLOOP((#598,#584,#585,#597));
#128=IFCPOLYLOOP((#599,#579,#584,#598));
#129=IFCPOLYLOOP((#600,#580,#579,#599));
#130=IFCPOLYLOOP((#601,#592,#580,#600));
#131=IFCPOLYLOOP((#602,#588,#592,#601));
#132=IFCPOLYLOOP((#603,#583,#588,#602));
#133=IFCPOLYLOOP((#604,#577,#583,#603));
#134=IFCPOLYLOOP((#605,#578,#577,#604));
#135=IFCPOLYLOOP((#606,#581,#578,#605));
#136=IFCPOLYLOOP((#607,#582,#581,#606));
#137=IFCPOLYLOOP((#608,#586,#582,#607));
#138=IFCPOLYLOOP((#594,#587,#586,#608));
#139=IFCPOLYLOOP((#600,#599,#609,#610));
#140=IFCPOLYLOOP((#608,#607,#611,#612));
#141=IFCPOLYLOOP((#599,#598,#613,#609));
#142=IFCPOLYLOOP((#597,#596,#614,#615));
#143=IFCPOLYLOOP((#595,#593,#616,#617));
#144=IFCPOLYLOOP((#607,#606,#618,#611));
#145=IFCPOLYLOOP((#615,#613,#598,#597));
#146=IFCPOLYLOOP((#593,#594,#619,#616));
#147=IFCPOLYLOOP((#606,#605,#620,#618));
#148=IFCPOLYLOOP((#604,#603,#621,#622));
#149=IFCPOLYLOOP((#617,#614,#596,#595));
#150=IFCPOLYLOOP((#622,#620,#605,#604));
#151=IFCPOLYLOOP((#612,#619,#594,#608));
#152=IFCPOLYLOOP((#602,#601,#623,#624));
#153=IFCPOLYLOOP((#624,#621,#603,#602));
#154=IFCPOLYLOOP((#610,#623,#601,#600));
#155=IFCPOLYLOOP((#625,#616,#619,#626));
#156=IFCPOLYLOOP((#627,#617,#616,#625));
#157=IFCPOLYLOOP((#628,#614,#617,#627));
#158=IFCPOLYLOOP((#629,#615,#614,#628));
#159=IFCPOLYLOOP((#630,#613,#615,#629));
#160=IFCPOLYLOOP((#631,#609,#613,#630));
#161=IFCPOLYLOOP((#632,#610,#609,#631));
#162=IFCPOLYLOOP((#633,#623,#610,#632));
#163=IFCPOLYLOOP((#634,#624,#623,#633));
#164=IFCPOLYLOOP((#635,#621,#624,#634));
#165=IFCPOLYLOOP((#636,#622,#621,#635));
#166=IFCPOLYLOOP((#637,#620,#622,#636));
#167=IFCPOLYLOOP((#638,#618,#620,#637));
#168=IFCPOLYLOOP((#639,#611,#618,#638));
#169=IFCPOLYLOOP((#640,#612,#611,#639));
#170=IFCPOLYLOOP((#626,#619,#612,#640));
#171=IFCPOLYLOOP((#640,#639,#638,#637,#636,#635,#634,#633,#632,#631,#630,
#629,#628,#627,#625,#626));
#172=IFCFACEOUTERBOUND(#26,.T.);
#173=IFCFACEOUTERBOUND(#27,.T.);
#174=IFCFACEOUTERBOUND(#28,.T.);
#175=IFCFACEOUTERBOUND(#29,.T.);
#176=IFCFACEOUTERBOUND(#30,.T.);
#177=IFCFACEOUTERBOUND(#31,.T.);
#178=IFCFACEOUTERBOUND(#32,.T.);
#179=IFCFACEOUTERBOUND(#33,.T.);
#180=IFCFACEOUTERBOUND(#34,.T.);
#181=IFCFACEOUTERBOUND(#35,.T.);
#182=IFCFACEOUTERBOUND(#36,.T.);
#183=IFCFACEOUTERBOUND(#37,.T.);
#184=IFCFACEOUTERBOUND(#38,.T.);
#185=IFCFACEOUTERBOUND(#39,.T.);
#186=IFCFACEOUTERBOUND(#40,.T.);
#187=IFCFACEOUTERBOUND(#41,.T.);
#188=IFCFACEOUTERBOUND(#42,.T.);
#189=IFCFACEOUTERBOUND(#43,.T.);
#190=IFCFACEOUTERBOUND(#44,.T.);
#191=IFCFACEOUTERBOUND(#45,.T.);
#192=IFCFACEOUTERBOUND(#46,.T.);
#193=IFCFACEOUTERBOUND(#47,.T.);
#194=IFCFACEOUTERBOUND(#48,.T.);
#195=IFCFACEOUTERBOUND(#49,.T.);
#196=IFCFACEOUTERBOUND(#50,.T.);
#197=IFCFACEOUTERBOUND(#51,.T.);
#198=IFCFACEOUTERBOUND(#52,.T.);
#199=IFCFACEOUTERBOUND(#53,.T.);
#200=IFCFACEOUTERBOUND(#54,.T.);
#201=IFCFACEOUTERBOUND(#55,.T.);
#202=IFCFACEOUTERBOUND(#56,.T.);
#203=IFCFACEOUTERBOUND(#57,.T.);
#204=IFCFACEOUTERBOUND(#58,.T.);
#205=IFCFACEOUTERBOUND(#59,.T.);
#206=IFCFACEOUTERBOUND(#60,.T.);
#207=IFCFACEOUTERBOUND(#61,.T.);
#208=IFCFACEOUTERBOUND(#62,.T.);
#209=IFCFACEOUTERBOUND(#63,.T.);
#210=IFCFACEOUTERBOUND(#64,.T.);
#211=IFCFACEOUTERBOUND(#65,.T.);
#212=IFCFACEOUTERBOUND(#66,.T.);
#213=IFCFACEOUTERBOUND(#67,.T.);
#214=IFCFACEOUTERBOUND(#68,.T.);
#215=IFCFACEOUTERBOUND(#69,.T.);
#216=IFCFACEOUTERBOUND(#70,.T.);
#217=IFCFACEOUTERBOUND(#71,.T.);
#218=IFCFACEOUTERBOUND(#72,.T.);
#219=IFCFACEOUTERBOUND(#73,.T.);
#220=IFCFACEOUTERBOUND(#74,.T.);
#221=IFCFACEOUTERBOUND(#75,.T.);
#222=IFCFACEOUTERBOUND(#76,.T.);
#223=IFCFACEOUTERBOUND(#77,.T.);
#224=IFCFACEOUTERBOUND(#78,.T.);
#225=IFCFACEOUTERBOUND(#79,.T.);
#226=IFCFACEOUTERBOUND(#80,.T.);
#227=IFCFACEOUTERBOUND(#81,.T.);
#228=IFCFACEOUTERBOUND(#82,.T.);
#229=IFCFACEOUTERBOUND(#83,.T.);
#230=IFCFACEOUTERBOUND(#84,.T.);
#231=IFCFACEOUTERBOUND(#85,.T.);
#232=IFCFACEOUTERBOUND(#86,.T.);
#233=IFCFACEOUTERBOUND(#87,.T.);
#234=IFCFACEOUTERBOUND(#88,.T.);
#235=IFCFACEOUTERBOUND(#89,.T.);
#236=IFCFACEOUTERBOUND(#90,.T.);
#237=IFCFACEOUTERBOUND(#91,.T.);
#238=IFCFACEOUTERBOUND(#92,.T.);
#239=IFCFACEOUTERBOUND(#93,.T.);
#240=IFCFACEOUTERBOUND(#94,.T.);
#241=IFCFACEOUTERBOUND(#95,.T.);
#242=IFCFACEOUTERBOUND(#96,.T.);
#243=IFCFACEOUTERBOUND(#97,.T.);
#244=IFCFACEOUTERBOUND(#98,.T.);
#245=IFCFACEOUTERBOUND(#99,.T.);
#246=IFCFACEOUTERBOUND(#100,.T.);
#247=IFCFACEOUTERBOUND(#101,.T.);
#248=IFCFACEOUTERBOUND(#102,.T.);
#249=IFCFACEOUTERBOUND(#103,.T.);
#250=IFCFACEOUTERBOUND(#104,.T.);
#251=IFCFACEOUTERBOUND(#105,.T.);
#252=IFCFACEOUTERBOUND(#106,.T.);
#253=IFCFACEOUTERBOUND(#107,.T.);
#254=IFCFACEOUTERBOUND(#108,.T.);
#255=IFCFACEOUTERBOUND(#109,.T.);
#256=IFCFACEOUTERBOUND(#110,.T.);
#257=IFCFACEOUTERBOUND(#111,.T.);
#258=IFCFACEOUTERBOUND(#112,.T.);
#259=IFCFACEOUTERBOUND(#113,.T.);
#260=IFCFACEOUTERBOUND(#114,.T.);
#261=IFCFACEOUTERBOUND(#115,.T.);
#262=IFCFACEOUTERBOUND(#116,.T.);
#263=IFCFACEOUTERBOUND(#117,.T.);
#264=IFCFACEOUTERBOUND(#118,.T.);
#265=IFCFACEOUTERBOUND(#119,.T.);
#266=IFCFACEOUTERBOUND(#120,.T.);
#267=IFCFACEOUTERBOUND(#121,.T.);
#268=IFCFACEOUTERBOUND(#122,.T.);
#269=IFCFACEOUTERBOUND(#123,.T.);
#270=IFCFACEOUTERBOUND(#124,.T.);
#271=IFCFACEOUTERBOUND(#125,.T.);
#272=IFCFACEOUTERBOUND(#126,.T.);
#273=IFCFACEOUTERBOUND(#127,.T.);
#274=IFCFACEOUTERBOUND(#128,.T.);
#275=IFCFACEOUTERBOUND(#129,.T.);
#276=IFCFACEOUTERBOUND(#130,.T.);
#277=IFCFACEOUTERBOUND(#131,.T.);
#278=IFCFACEOUTERBOUND(#132,.T.);
#279=IFCFACEOUTERBOUND(#133,.T.);
#280=IFCFACEOUTERBOUND(#134,.T.);
#281=IFCFACEOUTERBOUND(#135,.T.);
#282=IFCFACEOUTERBOUND(#136,.T.);
#283=IFCFACEOUTERBOUND(#137,.T.);
#284=IFCFACEOUTERBOUND(#138,.T.);
#285=IFCFACEOUTERBOUND(#139,.T.);
#286=IFCFACEOUTERBOUND(#140,.T.);
#287=IFCFACEOUTERBOUND(#141,.T.);
#288=IFCFACEOUTERBOUND(#142,.T.);
#289=IFCFACEOUTERBOUND(#143,.T.);
#290=IFCFACEOUTERBOUND(#144,.T.);
#291=IFCFACEOUTERBOUND(#145,.T.);
#292=IFCFACEOUTERBOUND(#146,.T.);
#293=IFCFACEOUTERBOUND(#147,.T.);
#294=IFCFACEOUTERBOUND(#148,.T.);
#295=IFCFACEOUTERBOUND(#149,.T.);
#296=IFCFACEOUTERBOUND(#150,.T.);
#297=IFCFACEOUTERBOUND(#151,.T.);
#298=IFCFACEOUTERBOUND(#152,.T.);
#299=IFCFACEOUTERBOUND(#153,.T.);
#300=IFCFACEOUTERBOUND(#154,.T.);
#301=IFCFACEOUTERBOUND(#155,.T.);
#302=IFCFACEOUTERBOUND(#156,.T.);
#303=IFCFACEOUTERBOUND(#157,.T.);
#304=IFCFACEOUTERBOUND(#158,.T.);
#305=IFCFACEOUTERBOUND(#159,.T.);
#306=IFCFACEOUTERBOUND(#160,.T.);
#307=IFCFACEOUTERBOUND(#161,.T.);
#308=IFCFACEOUTERBOUND(#162,.T.);
#309=IFCFACEOUTERBOUND(#163,.T.);
#310=IFCFACEOUTERBOUND(#164,.T.);
#311=IFCFACEOUTERBOUND(#165,.T.);
#312=IFCFACEOUTERBOUND(#166,.T.);
#313=IFCFACEOUTERBOUND(#167,.T.);
#314=IFCFACEOUTERBOUND(#168,.T.);
#315=IFCFACEOUTERBOUND(#169,.T.);
#316=IFCFACEOUTERBOUND(#170,.T.);
#317=IFCFACEOUTERBOUND(#171,.T.);
#318=IFCFACE((#172));
#319=IFCFACE((#173));
#320=IFCFACE((#174));
#321=IFCFACE((#175));
#322=IFCFACE((#176));
#323=IFCFACE((#177));
#324=IFCFACE((#178));
#325=IFCFACE((#179));
#326=IFCFACE((#180));
#327=IFCFACE((#181));
#328=IFCFACE((#182));
#329=IFCFACE((#183));
#330=IFCFACE((#184));
#331=IFCFACE((#185));
#332=IFCFACE((#186));
#333=IFCFACE((#187));
#334=IFCFACE((#188));
#335=IFCFACE((#189));
#336=IFCFACE((#190));
#337=IFCFACE((#191));
#338=IFCFACE((#192));
#339=IFCFACE((#193));
#340=IFCFACE((#194));
#341=IFCFACE((#195));
#342=IFCFACE((#196));
#343=IFCFACE((#197));
#344=IFCFACE((#198));
#345=IFCFACE((#199));
#346=IFCFACE((#200));
#347=IFCFACE((#201));
#348=IFCFACE((#202));
#349=IFCFACE((#203));
#350=IFCFACE((#204));
#351=IFCFACE((#205));
#352=IFCFACE((#206));
#353=IFCFACE((#207));
#354=IFCFACE((#208));
#355=IFCFACE((#209));
#356=IFCFACE((#210));
#357=IFCFACE((#211));
#358=IFCFACE((#212));
#359=IFCFACE((#213));
#360=IFCFACE((#214));
#361=IFCFACE((#215));
#362=IFCFACE((#216));
#363=IFCFACE((#217));
#364=IFCFACE((#218));
#365=IFCFACE((#219));
#366=IFCFACE((#220));
#367=IFCFACE((#221));
#368=IFCFACE((#222));
#369=IFCFACE((#223));
#370=IFCFACE((#224));
#371=IFCFACE((#225));
#372=IFCFACE((#226));
#373=IFCFACE((#227));
#374=IFCFACE((#228));
#375=IFCFACE((#229));
#376=IFCFACE((#230));
#377=IFCFACE((#231));
#378=IFCFACE((#232));
#379=IFCFACE((#233));
#380=IFCFACE((#234));
#381=IFCFACE((#235));
#382=IFCFACE((#236));
#383=IFCFACE((#237));
#384=IFCFACE((#238));
#385=IFCFACE((#239));
#386=IFCFACE((#240));
#387=IFCFACE((#241));
#388=IFCFACE((#242));
#389=IFCFACE((#243));
#390=IFCFACE((#244));
#391=IFCFACE((#245));
#392=IFCFACE((#246));
#393=IFCFACE((#247));
#394=IFCFACE((#248));
#395=IFCFACE((#249));
#396=IFCFACE((#250));
#397=IFCFACE((#251));
#398=IFCFACE((#252));
#399=IFCFACE((#253));
#400=IFCFACE((#254));
#401=IFCFACE((#255));
#402=IFCFACE((#256));
#403=IFCFACE((#257));
#404=IFCFACE((#258));
#405=IFCFACE((#259));
#406=IFCFACE((#260));
#407=IFCFACE((#261));
#408=IFCFACE((#262));
#409=IFCFACE((#263));
#410=IFCFACE((#264));
#411=IFCFACE((#265));
#412=IFCFACE((#266));
#413=IFCFACE((#267));
#414=IFCFACE((#268));
#415=IFCFACE((#269));
#416=IFCFACE((#270));
#417=IFCFACE((#271));
#418=IFCFACE((#272));
#419=IFCFACE((#273));
#420=IFCFACE((#274));
#421=IFCFACE((#275));
#422=IFCFACE((#276));
#423=IFCFACE((#277));
#424=IFCFACE((#278));
#425=IFCFACE((#279));
#426=IFCFACE((#280));
#427=IFCFACE((#281));
#428=IFCFACE((#282));
#429=IFCFACE((#283));
#430=IFCFACE((#284));
#431=IFCFACE((#285));
#432=IFCFACE((#286));
#433=IFCFACE((#287));
#434=IFCFACE((#288));
#435=IFCFACE((#289));
#436=IFCFACE((#290));
#437=IFCFACE((#291));
#438=IFCFACE((#292));
#439=IFCFACE((#293));
#440=IFCFACE((#294));
#441=IFCFACE((#295));
#442=IFCFACE((#296));
#443=IFCFACE((#297));
#444=IFCFACE((#298));
#445=IFCFACE((#299));
#446=IFCFACE((#300));
#447=IFCFACE((#301));
#448=IFCFACE((#302));
#449=IFCFACE((#303));
#450=IFCFACE((#304));
#451=IFCFACE((#305));
#452=IFCFACE((#306));
#453=IFCFACE((#307));
#454=IFCFACE((#308));
#455=IFCFACE((#309));
#456=IFCFACE((#310));
#457=IFCFACE((#311));
#458=IFCFACE((#312));
#459=IFCFACE((#313));
#460=IFCFACE((#314));
#461=IFCFACE((#315));
#462=IFCFACE((#316));
#463=IFCFACE((#317));
#464=IFCCLOSEDSHELL((#318,#319,#320,#321,#322,#323,#324,#325,#326,#327,
#328,#329,#330,#331,#332,#333,#334,#335,#336,#337,#338,#339,#340,#341,#342,
#343,#344,#345,#346,#347,#348,#349,#350,#351,#352,#353,#354,#355,#356,#357,
#358,#359,#360,#361,#362,#363,#364,#365,#366,#367,#368,#369,#370,#371,#372,
#373,#374,#375,#376,#377,#378,#379,#380,#381,#382,#383,#384,#385,#386,#387,
#388,#389,#390,#391,#392,#393,#394,#395,#396,#397,#398,#399,#400,#401,#402,
#403,#404,#405,#406,#407,#408,#409,#410,#411,#412,#413,#414,#415,#416,#417,
#418,#419,#420,#421,#422,#423,#424,#425,#426,#427,#428,#429,#430,#431,#432,
#433,#434,#435,#436,#437,#438,#439,#440,#441,#442,#443,#444,#445,#446,#447,
#448,#449,#450,#451,#452,#453,#454,#455,#456,#457,#458,#459,#460,#461,#462,
#463));
#465=IFCSTYLEDITEM(#470,(#466),'');
#466=IFCPRESENTATIONSTYLEASSIGNMENT((#467));
#467=IFCSURFACESTYLE('',.BOTH.,(#468));
#468=IFCSURFACESTYLERENDERING(#469,0.625,$,$,$,$,$,$,.NOTDEFINED.);
#469=IFCCOLOURRGB('',1.,1.,1.);
#470=IFCFACETEDBREP(#464);
#471=IFCPROJECT('07hUkdHgGydfWsFJH56q5B',#648,'Trans_3005740_JC',' ',
' ',' ',' ',(#643),#472);
#472=IFCUNITASSIGNMENT((#644,#645,#646,#647));
#473=IFCGEOMETRICREPRESENTATIONSUBCONTEXT('Body','Model',*,*,*,*,#643,1.,
 .MODEL_VIEW.,$);
#474=IFCAXIS2PLACEMENT3D(#480,#476,#477);
#475=IFCAXIS2PLACEMENT3D(#642,#478,#479);
#476=IFCDIRECTION((0.,0.,1.));
#477=IFCDIRECTION((1.,0.,0.));
#478=IFCDIRECTION((0.,0.,1.));
#479=IFCDIRECTION((1.,0.,0.));
#480=IFCCARTESIANPOINT((0.,0.,0.));
#481=IFCCARTESIANPOINT((-2.21731087802708,4.8,0.918440237676215));
#482=IFCCARTESIANPOINT((-1.69705627484771,4.8,1.69705627484771));
#483=IFCCARTESIANPOINT((-0.918440237676211,4.8,2.21731087802709));
#484=IFCCARTESIANPOINT((3.98629211616018E-15,4.8,2.4));
#485=IFCCARTESIANPOINT((0.918440237676219,4.8,2.21731087802709));
#486=IFCCARTESIANPOINT((1.69705627484772,4.8,1.69705627484771));
#487=IFCCARTESIANPOINT((2.21731087802709,4.8,0.918440237676214));
#488=IFCCARTESIANPOINT((2.4,4.8,2.93915231795365E-16));
#489=IFCCARTESIANPOINT((2.21731087802709,4.8,-0.918440237676215));
#490=IFCCARTESIANPOINT((1.69705627484772,4.8,-1.69705627484771));
#491=IFCCARTESIANPOINT((0.918440237676218,4.8,-2.21731087802709));
#492=IFCCARTESIANPOINT((4.04121552793084E-15,4.8,-2.4));
#493=IFCCARTESIANPOINT((-0.918440237676212,4.8,-2.21731087802709));
#494=IFCCARTESIANPOINT((-1.69705627484771,4.8,-1.69705627484771));
#495=IFCCARTESIANPOINT((-2.21731087802708,4.8,-0.918440237676215));
#496=IFCCARTESIANPOINT((-2.4,4.8,0.));
#497=IFCCARTESIANPOINT((-2.21731087802708,3.2,-0.918440237676215));
#498=IFCCARTESIANPOINT((-2.4,3.2,0.));
#499=IFCCARTESIANPOINT((-1.69705627484771,3.2,-1.69705627484771));
#500=IFCCARTESIANPOINT((-0.918440237676212,3.2,-2.21731087802709));
#501=IFCCARTESIANPOINT((3.94324701962505E-15,3.2,-2.4));
#502=IFCCARTESIANPOINT((0.918440237676218,3.2,-2.21731087802709));
#503=IFCCARTESIANPOINT((1.69705627484772,3.2,-1.69705627484771));
#504=IFCCARTESIANPOINT((2.21731087802709,3.2,-0.918440237676215));
#505=IFCCARTESIANPOINT((2.4,3.2,2.93915231795365E-16));
#506=IFCCARTESIANPOINT((2.21731087802709,3.2,0.918440237676214));
#507=IFCCARTESIANPOINT((1.69705627484772,3.2,1.69705627484771));
#508=IFCCARTESIANPOINT((0.918440237676219,3.2,2.21731087802709));
#509=IFCCARTESIANPOINT((3.88832360785439E-15,3.2,2.4));
#510=IFCCARTESIANPOINT((-0.918440237676211,3.2,2.21731087802709));
#511=IFCCARTESIANPOINT((-1.69705627484771,3.2,1.69705627484771));
#512=IFCCARTESIANPOINT((-2.21731087802708,3.2,0.918440237676215));
#513=IFCCARTESIANPOINT((-2.82842712474619,3.2,2.82842712474619));
#514=IFCCARTESIANPOINT((-1.53073372946035,3.2,3.69551813004515));
#515=IFCCARTESIANPOINT((4.14562323180265E-15,3.2,4.));
#516=IFCCARTESIANPOINT((1.53073372946036,3.2,3.69551813004515));
#517=IFCCARTESIANPOINT((3.69551813004515,3.2,1.53073372946036));
#518=IFCCARTESIANPOINT((4.,3.2,4.89858719658941E-16));
#519=IFCCARTESIANPOINT((2.82842712474619,3.2,2.82842712474619));
#520=IFCCARTESIANPOINT((3.69551813004515,3.2,-1.53073372946036));
#521=IFCCARTESIANPOINT((1.53073372946036,3.2,-3.69551813004515));
#522=IFCCARTESIANPOINT((4.23716225142041E-15,3.2,-4.));
#523=IFCCARTESIANPOINT((-1.53073372946036,3.2,-3.69551813004515));
#524=IFCCARTESIANPOINT((-2.82842712474619,3.2,-2.82842712474619));
#525=IFCCARTESIANPOINT((-3.69551813004514,3.2,-1.53073372946036));
#526=IFCCARTESIANPOINT((2.82842712474619,3.2,-2.82842712474619));
#527=IFCCARTESIANPOINT((-4.,3.2,0.));
#528=IFCCARTESIANPOINT((-3.69551813004514,3.2,1.53073372946036));
#529=IFCCARTESIANPOINT((-3.69551813004514,1.6,-1.53073372946036));
#530=IFCCARTESIANPOINT((-4.,1.6,0.));
#531=IFCCARTESIANPOINT((-2.82842712474619,1.6,-2.82842712474619));
#532=IFCCARTESIANPOINT((-1.53073372946036,1.6,-3.69551813004515));
#533=IFCCARTESIANPOINT((4.13919374311462E-15,1.6,-4.));
#534=IFCCARTESIANPOINT((1.53073372946036,1.6,-3.69551813004515));
#535=IFCCARTESIANPOINT((2.82842712474619,1.6,-2.82842712474619));
#536=IFCCARTESIANPOINT((3.69551813004515,1.6,-1.53073372946036));
#537=IFCCARTESIANPOINT((4.,1.6,4.89858719658941E-16));
#538=IFCCARTESIANPOINT((3.69551813004515,1.6,1.53073372946036));
#539=IFCCARTESIANPOINT((2.82842712474619,1.6,2.82842712474619));
#540=IFCCARTESIANPOINT((1.53073372946036,1.6,3.69551813004515));
#541=IFCCARTESIANPOINT((4.04765472349686E-15,1.6,4.));
#542=IFCCARTESIANPOINT((-1.53073372946035,1.6,3.69551813004515));
#543=IFCCARTESIANPOINT((-2.82842712474619,1.6,2.82842712474619));
#544=IFCCARTESIANPOINT((-3.69551813004514,1.6,1.53073372946036));
#545=IFCCARTESIANPOINT((-2.95641450403611,1.6,-1.22458698356829));
#546=IFCCARTESIANPOINT((-3.19999999999999,1.6,0.));
#547=IFCCARTESIANPOINT((1.22458698356829,1.6,2.95641450403611));
#548=IFCCARTESIANPOINT((2.26274169979695,1.6,2.26274169979695));
#549=IFCCARTESIANPOINT((-2.26274169979695,1.6,-2.26274169979695));
#550=IFCCARTESIANPOINT((3.99223612721694E-15,1.6,-3.2));
#551=IFCCARTESIANPOINT((-1.22458698356828,1.6,-2.95641450403611));
#552=IFCCARTESIANPOINT((2.95641450403612,1.6,1.22458698356828));
#553=IFCCARTESIANPOINT((-1.22458698356828,1.6,2.95641450403612));
#554=IFCCARTESIANPOINT((3.91900491152273E-15,1.6,3.2));
#555=IFCCARTESIANPOINT((-2.95641450403611,1.6,1.22458698356829));
#556=IFCCARTESIANPOINT((-2.26274169979695,1.6,2.26274169979695));
#557=IFCCARTESIANPOINT((1.22458698356829,1.6,-2.95641450403612));
#558=IFCCARTESIANPOINT((2.26274169979695,1.6,-2.26274169979695));
#559=IFCCARTESIANPOINT((3.2,1.6,3.91886975727153E-16));
#560=IFCCARTESIANPOINT((2.95641450403612,1.6,-1.22458698356829));
#561=IFCCARTESIANPOINT((-2.95641450403611,1.81022199308763E-16,-1.22458698356829));
#562=IFCCARTESIANPOINT((-3.19999999999999,1.9593701661158E-16,0.));
#563=IFCCARTESIANPOINT((-2.26274169979695,1.3854839313151E-16,-2.26274169979695));
#564=IFCCARTESIANPOINT((-1.22458698356828,7.49818500442952E-17,-2.95641450403611));
#565=IFCCARTESIANPOINT((3.89426761891115E-15,-3.5993046034178E-32,-3.2));
#566=IFCCARTESIANPOINT((1.22458698356829,-7.49818500442951E-17,-2.95641450403612));
#567=IFCCARTESIANPOINT((2.26274169979695,-1.3854839313151E-16,-2.26274169979695));
#568=IFCCARTESIANPOINT((2.95641450403612,-1.81022199308763E-16,-1.22458698356829));
#569=IFCCARTESIANPOINT((3.2,-1.9593701661158E-16,3.91886975727153E-16));
#570=IFCCARTESIANPOINT((2.95641450403612,-1.81022199308763E-16,1.22458698356828));
#571=IFCCARTESIANPOINT((2.26274169979695,-1.3854839313151E-16,2.26274169979695));
#572=IFCCARTESIANPOINT((1.22458698356829,-7.49818500442951E-17,2.95641450403611));
#573=IFCCARTESIANPOINT((3.82103640321694E-15,-3.15090754323149E-32,3.2));
#574=IFCCARTESIANPOINT((-1.22458698356828,7.49818500442951E-17,2.95641450403612));
#575=IFCCARTESIANPOINT((-2.26274169979695,1.3854839313151E-16,2.26274169979695));
#576=IFCCARTESIANPOINT((-2.95641450403611,1.81022199308763E-16,1.22458698356829));
#577=IFCCARTESIANPOINT((0.918440237676216,-5.62363875332213E-17,-2.21731087802708));
#578=IFCCARTESIANPOINT((3.74731000301347E-15,-2.69947845256335E-32,-2.4));
#579=IFCCARTESIANPOINT((1.69705627484772,-1.03911294848632E-16,1.69705627484771));
#580=IFCCARTESIANPOINT((2.21731087802709,-1.35766649481572E-16,0.918440237676213));
#581=IFCCARTESIANPOINT((-0.918440237676211,5.62363875332213E-17,-2.21731087802708));
#582=IFCCARTESIANPOINT((-1.69705627484771,1.03911294848632E-16,-1.69705627484771));
#583=IFCCARTESIANPOINT((1.69705627484771,-1.03911294848632E-16,-1.69705627484771));
#584=IFCCARTESIANPOINT((0.918440237676217,-5.62363875332213E-17,2.21731087802708));
#585=IFCCARTESIANPOINT((3.69238659124281E-15,-2.36318065742362E-32,2.4));
#586=IFCCARTESIANPOINT((-2.21731087802708,1.35766649481572E-16,-0.918440237676213));
#587=IFCCARTESIANPOINT((-2.39999999999999,1.46952762458685E-16,0.));
#588=IFCCARTESIANPOINT((2.21731087802709,-1.35766649481572E-16,-0.918440237676214));
#589=IFCCARTESIANPOINT((-0.918440237676211,5.62363875332213E-17,2.21731087802708));
#590=IFCCARTESIANPOINT((-2.21731087802708,1.35766649481572E-16,0.918440237676214));
#591=IFCCARTESIANPOINT((-1.69705627484771,1.03911294848632E-16,1.69705627484771));
#592=IFCCARTESIANPOINT((2.4,-1.46952762458685E-16,2.93915231795364E-16));
#593=IFCCARTESIANPOINT((-2.21731087802708,1.6,0.918440237676214));
#594=IFCCARTESIANPOINT((-2.39999999999999,1.6,0.));
#595=IFCCARTESIANPOINT((-1.69705627484771,1.6,1.69705627484771));
#596=IFCCARTESIANPOINT((-0.918440237676211,1.6,2.21731087802708));
#597=IFCCARTESIANPOINT((3.7903550995486E-15,1.6,2.4));
#598=IFCCARTESIANPOINT((0.918440237676218,1.6,2.21731087802708));
#599=IFCCARTESIANPOINT((1.69705627484772,1.6,1.69705627484771));
#600=IFCCARTESIANPOINT((2.21731087802709,1.6,0.918440237676213));
#601=IFCCARTESIANPOINT((2.4,1.6,2.93915231795364E-16));
#602=IFCCARTESIANPOINT((2.21731087802709,1.6,-0.918440237676214));
#603=IFCCARTESIANPOINT((1.69705627484772,1.6,-1.69705627484771));
#604=IFCCARTESIANPOINT((0.918440237676217,1.6,-2.21731087802708));
#605=IFCCARTESIANPOINT((3.84527851131925E-15,1.6,-2.4));
#606=IFCCARTESIANPOINT((-0.918440237676211,1.6,-2.21731087802708));
#607=IFCCARTESIANPOINT((-1.69705627484771,1.6,-1.69705627484771));
#608=IFCCARTESIANPOINT((-2.21731087802708,1.6,-0.918440237676213));
#609=IFCCARTESIANPOINT((0.848528137423858,1.6,0.848528137423855));
#610=IFCCARTESIANPOINT((1.10865543901354,1.6,0.459220118838106));
#611=IFCCARTESIANPOINT((-0.848528137423851,1.6,-0.848528137423855));
#612=IFCCARTESIANPOINT((-1.10865543901354,1.6,-0.459220118838106));
#613=IFCCARTESIANPOINT((0.45922011883811,1.6,1.10865543901354));
#614=IFCCARTESIANPOINT((-0.459220118838103,1.6,1.10865543901354));
#615=IFCCARTESIANPOINT((3.5973803815874E-15,1.6,1.2));
#616=IFCCARTESIANPOINT((-1.10865543901354,1.6,0.459220118838106));
#617=IFCCARTESIANPOINT((-0.848528137423851,1.6,0.848528137423855));
#618=IFCCARTESIANPOINT((-0.459220118838103,1.6,-1.10865543901354));
#619=IFCCARTESIANPOINT((-1.19999999999999,1.6,0.));
#620=IFCCARTESIANPOINT((3.62484208747273E-15,1.6,-1.2));
#621=IFCCARTESIANPOINT((0.848528137423858,1.6,-0.848528137423855));
#622=IFCCARTESIANPOINT((0.45922011883811,1.6,-1.10865543901354));
#623=IFCCARTESIANPOINT((1.2,1.6,1.46957615897682E-16));
#624=IFCCARTESIANPOINT((1.10865543901354,1.6,-0.459220118838106));
#625=IFCCARTESIANPOINT((-1.10865543901354,2.40000000000001,0.459220118838106));
#626=IFCCARTESIANPOINT((-1.19999999999999,2.40000000000001,0.));
#627=IFCCARTESIANPOINT((-0.848528137423851,2.40000000000001,0.848528137423855));
#628=IFCCARTESIANPOINT((-0.459220118838103,2.40000000000001,1.10865543901354));
#629=IFCCARTESIANPOINT((3.6463646357403E-15,2.40000000000001,1.2));
#630=IFCCARTESIANPOINT((0.45922011883811,2.40000000000001,1.10865543901354));
#631=IFCCARTESIANPOINT((0.848528137423858,2.40000000000001,0.848528137423855));
#632=IFCCARTESIANPOINT((1.10865543901354,2.40000000000001,0.459220118838106));
#633=IFCCARTESIANPOINT((1.2,2.40000000000001,1.46957615897682E-16));
#634=IFCCARTESIANPOINT((1.10865543901354,2.40000000000001,-0.459220118838106));
#635=IFCCARTESIANPOINT((0.848528137423858,2.40000000000001,-0.848528137423855));
#636=IFCCARTESIANPOINT((0.45922011883811,2.40000000000001,-1.10865543901354));
#637=IFCCARTESIANPOINT((3.67382634162563E-15,2.40000000000001,-1.2));
#638=IFCCARTESIANPOINT((-0.459220118838103,2.40000000000001,-1.10865543901354));
#639=IFCCARTESIANPOINT((-0.848528137423851,2.40000000000001,-0.848528137423855));
#640=IFCCARTESIANPOINT((-1.10865543901354,2.40000000000001,-0.459220118838106));
#641=IFCCARTESIANPOINT((0.,0.,0.));
#642=IFCCARTESIANPOINT((0.,0.,0.));
#643=IFCGEOMETRICREPRESENTATIONCONTEXT($,'Model',3,0.005,#474,$);
#644=IFCSIUNIT(*,.LENGTHUNIT.,.MILLI.,.METRE.);
#645=IFCSIUNIT(*,.AREAUNIT.,$,.SQUARE_METRE.);
#646=IFCSIUNIT(*,.VOLUMEUNIT.,$,.CUBIC_METRE.);
#647=IFCSIUNIT(*,.PLANEANGLEUNIT.,$,.RADIAN.);
#648=IFCOWNERHISTORY(#650,#649,$,.NOCHANGE.,0,$,$,0);
#649=IFCAPPLICATION(#651,' ',' ',' ');
#650=IFCPERSONANDORGANIZATION(#652,#651,$);
#651=IFCORGANIZATION($,' ',$,$,$);
#652=IFCPERSON(' ',' ',' ',$,$,$,$,$);
ENDSEC;
END-ISO-10303-21;
