ISO-10303-21;
HEADER;
/* Generated by software containing ST-Developer
 * from STEP Tools, Inc. (www.steptools.com) 
 */
/* OPTION: strings as raw bytes, not using required /X/ escapes */

FILE_DESCRIPTION(
/* description */ ('Unknown'),
/* implementation_level */ '2;1');

FILE_NAME(
/* name */ 'Ye_4526983_MCM',
/* time_stamp */ '2025-07-22T00:09:59+02:00',
/* author */ ('Unknown'),
/* organization */ ('Unknown'),
/* preprocessor_version */ 'ST-DEVELOPER v19.4',
/* originating_system */ 'Unknown',
/* authorisation */ 'OpenTools');

FILE_SCHEMA (('IFC2X3'));
ENDSEC;

DATA;
#10=IFCPROPERTYSINGLEVALUE('ProjectName',$,IFCTEXT(''),$);
#11=IFCPROPERTYSINGLEVALUE('PartNumber',$,IFCTEXT(''),$);
#12=IFCRELDEFINESBYPROPERTIES('3cRq1JQpSwDOm5lsE5cG83',#886,$,$,(#14),#13);
#13=IFCPROPERTYSET('1jOd4kXgWorA4TVRi95rqH',#886,
'empty property set name',$,(#10,#11));
#14=IFCBUILDINGELEMENTPROXY('2GP_XOK7Wq1Pa1NGQTVWHM',#886,
'Ye_4526983_MCM',' ','Ye_4526983_MCM',#19,#15,' ',.ELEMENT.);
#15=IFCPRODUCTDEFINITIONSHAPE(' ',' ',(#25));
#16=IFCRELCONTAINEDINSPATIALSTRUCTURE('3HZhfx2I0vj9Cvp1GHER_f',#886,' ',
' ',(#14),#20);
#17=IFCRELAGGREGATES('1jF0XzMGqvEA6wZwPLSawz',#886,$,$,#669,(#20));
#18=IFCLOCALPLACEMENT($,#672);
#19=IFCLOCALPLACEMENT(#18,#673);
#20=IFCBUILDING('3G2N19bOG__grq1LV0cQPU',#886,'Default Building',$,$,#18,
$,$,.ELEMENT.,0.,0.,$);
#21=IFCCARTESIANTRANSFORMATIONOPERATOR3D($,$,#879,1.,$);
#22=IFCMAPPEDITEM(#23,#21);
#23=IFCREPRESENTATIONMAP(#672,#24);
#24=IFCSHAPEREPRESENTATION(#671,'Body','Brep',(#668));
#25=IFCSHAPEREPRESENTATION(#671,'Body','MappedRepresentation',(#22));
#26=IFCPOLYLOOP((#679,#680,#681,#682));
#27=IFCPOLYLOOP((#683,#684,#680,#679));
#28=IFCPOLYLOOP((#685,#686,#684,#683));
#29=IFCPOLYLOOP((#687,#688,#686,#685));
#30=IFCPOLYLOOP((#689,#690,#688,#687));
#31=IFCPOLYLOOP((#691,#692,#690,#689));
#32=IFCPOLYLOOP((#693,#694,#692,#691));
#33=IFCPOLYLOOP((#695,#696,#694,#693));
#34=IFCPOLYLOOP((#697,#698,#696,#695));
#35=IFCPOLYLOOP((#699,#700,#698,#697));
#36=IFCPOLYLOOP((#701,#702,#700,#699));
#37=IFCPOLYLOOP((#703,#704,#702,#701));
#38=IFCPOLYLOOP((#705,#706,#704,#703));
#39=IFCPOLYLOOP((#707,#708,#706,#705));
#40=IFCPOLYLOOP((#709,#710,#708,#707));
#41=IFCPOLYLOOP((#682,#681,#710,#709));
#42=IFCPOLYLOOP((#711,#712,#695,#693));
#43=IFCPOLYLOOP((#713,#714,#703,#701));
#44=IFCPOLYLOOP((#715,#716,#691,#689));
#45=IFCPOLYLOOP((#712,#717,#697,#695));
#46=IFCPOLYLOOP((#714,#718,#705,#703));
#47=IFCPOLYLOOP((#719,#720,#683,#679));
#48=IFCPOLYLOOP((#721,#722,#687,#685));
#49=IFCPOLYLOOP((#693,#691,#716,#711));
#50=IFCPOLYLOOP((#718,#723,#707,#705));
#51=IFCPOLYLOOP((#685,#683,#720,#721));
#52=IFCPOLYLOOP((#717,#724,#699,#697));
#53=IFCPOLYLOOP((#723,#725,#709,#707));
#54=IFCPOLYLOOP((#689,#687,#722,#715));
#55=IFCPOLYLOOP((#725,#726,#682,#709));
#56=IFCPOLYLOOP((#701,#699,#724,#713));
#57=IFCPOLYLOOP((#679,#682,#726,#719));
#58=IFCPOLYLOOP((#727,#719,#726,#728));
#59=IFCPOLYLOOP((#729,#720,#719,#727));
#60=IFCPOLYLOOP((#730,#721,#720,#729));
#61=IFCPOLYLOOP((#731,#722,#721,#730));
#62=IFCPOLYLOOP((#732,#715,#722,#731));
#63=IFCPOLYLOOP((#733,#716,#715,#732));
#64=IFCPOLYLOOP((#734,#711,#716,#733));
#65=IFCPOLYLOOP((#735,#712,#711,#734));
#66=IFCPOLYLOOP((#736,#717,#712,#735));
#67=IFCPOLYLOOP((#737,#724,#717,#736));
#68=IFCPOLYLOOP((#738,#713,#724,#737));
#69=IFCPOLYLOOP((#739,#714,#713,#738));
#70=IFCPOLYLOOP((#740,#718,#714,#739));
#71=IFCPOLYLOOP((#741,#723,#718,#740));
#72=IFCPOLYLOOP((#742,#725,#723,#741));
#73=IFCPOLYLOOP((#728,#726,#725,#742));
#74=IFCPOLYLOOP((#743,#744,#735,#734));
#75=IFCPOLYLOOP((#744,#745,#736,#735));
#76=IFCPOLYLOOP((#746,#747,#730,#729));
#77=IFCPOLYLOOP((#745,#748,#737,#736));
#78=IFCPOLYLOOP((#729,#727,#749,#746));
#79=IFCPOLYLOOP((#750,#751,#732,#731));
#80=IFCPOLYLOOP((#748,#752,#738,#737));
#81=IFCPOLYLOOP((#753,#754,#741,#740));
#82=IFCPOLYLOOP((#731,#730,#747,#750));
#83=IFCPOLYLOOP((#752,#755,#739,#738));
#84=IFCPOLYLOOP((#754,#756,#742,#741));
#85=IFCPOLYLOOP((#751,#757,#733,#732));
#86=IFCPOLYLOOP((#740,#739,#755,#753));
#87=IFCPOLYLOOP((#734,#733,#757,#743));
#88=IFCPOLYLOOP((#756,#758,#728,#742));
#89=IFCPOLYLOOP((#727,#728,#758,#749));
#90=IFCPOLYLOOP((#759,#760,#704,#706));
#91=IFCPOLYLOOP((#760,#761,#702,#704));
#92=IFCPOLYLOOP((#762,#763,#696,#698));
#93=IFCPOLYLOOP((#761,#764,#700,#702));
#94=IFCPOLYLOOP((#765,#766,#710,#681));
#95=IFCPOLYLOOP((#767,#768,#686,#688));
#96=IFCPOLYLOOP((#706,#708,#769,#759));
#97=IFCPOLYLOOP((#766,#770,#769,#708,#710));
#98=IFCPOLYLOOP((#768,#771,#684,#686));
#99=IFCPOLYLOOP((#771,#681,#680));
#100=IFCPOLYLOOP((#772,#773,#690,#692));
#101=IFCPOLYLOOP((#681,#771,#774,#775,#765));
#102=IFCPOLYLOOP((#680,#684,#771));
#103=IFCPOLYLOOP((#773,#688,#690));
#104=IFCPOLYLOOP((#688,#773,#776,#767));
#105=IFCPOLYLOOP((#692,#694,#777,#772));
#106=IFCPOLYLOOP((#694,#696,#763,#777));
#107=IFCPOLYLOOP((#698,#700,#764,#778,#762));
#108=IFCPOLYLOOP((#768,#779,#780,#771));
#109=IFCPOLYLOOP((#767,#781,#779,#768));
#110=IFCPOLYLOOP((#776,#782,#781,#767));
#111=IFCPOLYLOOP((#773,#783,#782,#776));
#112=IFCPOLYLOOP((#761,#784,#785,#764));
#113=IFCPOLYLOOP((#760,#786,#784,#761));
#114=IFCPOLYLOOP((#759,#787,#786,#760));
#115=IFCPOLYLOOP((#769,#788,#787,#759));
#116=IFCPOLYLOOP((#764,#785,#789,#778));
#117=IFCPOLYLOOP((#771,#780,#790,#774));
#118=IFCPOLYLOOP((#788,#769,#770,#791));
#119=IFCPOLYLOOP((#783,#773,#772,#792));
#120=IFCPOLYLOOP((#784,#786,#793,#794));
#121=IFCPOLYLOOP((#787,#788,#795,#796));
#122=IFCPOLYLOOP((#796,#793,#786,#787));
#123=IFCPOLYLOOP((#788,#797,#798));
#124=IFCPOLYLOOP((#799,#800,#801,#802));
#125=IFCPOLYLOOP((#783,#803,#804));
#126=IFCPOLYLOOP((#805,#806,#807,#797));
#127=IFCPOLYLOOP((#798,#795,#788));
#128=IFCPOLYLOOP((#800,#789,#785,#808,#801));
#129=IFCPOLYLOOP((#804,#809,#782,#783));
#130=IFCPOLYLOOP((#779,#781,#810,#811));
#131=IFCPOLYLOOP((#806,#790,#780,#812,#807));
#132=IFCPOLYLOOP((#802,#783,#792,#813,#799));
#133=IFCPOLYLOOP((#783,#802,#803));
#134=IFCPOLYLOOP((#797,#788,#791,#814,#805));
#135=IFCPOLYLOOP((#809,#810,#781,#782));
#136=IFCPOLYLOOP((#794,#808,#785,#784));
#137=IFCPOLYLOOP((#811,#812,#780,#779));
#138=IFCPOLYLOOP((#756,#754,#770));
#139=IFCPOLYLOOP((#754,#815,#791,#770));
#140=IFCPOLYLOOP((#816,#814,#791));
#141=IFCPOLYLOOP((#791,#815,#816));
#142=IFCPOLYLOOP((#817,#818,#790));
#143=IFCPOLYLOOP((#818,#746,#774,#790));
#144=IFCPOLYLOOP((#749,#775,#774));
#145=IFCPOLYLOOP((#774,#746,#749));
#146=IFCPOLYLOOP((#743,#757,#772));
#147=IFCPOLYLOOP((#757,#819,#792,#772));
#148=IFCPOLYLOOP((#820,#813,#792));
#149=IFCPOLYLOOP((#792,#819,#820));
#150=IFCPOLYLOOP((#821,#822,#789));
#151=IFCPOLYLOOP((#822,#748,#778,#789));
#152=IFCPOLYLOOP((#745,#762,#778));
#153=IFCPOLYLOOP((#778,#748,#745));
#154=IFCPOLYLOOP((#789,#800,#821));
#155=IFCPOLYLOOP((#762,#745,#744,#763));
#156=IFCPOLYLOOP((#763,#744,#743,#777));
#157=IFCPOLYLOOP((#772,#777,#743));
#158=IFCPOLYLOOP((#813,#820,#823,#799));
#159=IFCPOLYLOOP((#799,#823,#821,#800));
#160=IFCPOLYLOOP((#790,#806,#817));
#161=IFCPOLYLOOP((#775,#749,#758,#765));
#162=IFCPOLYLOOP((#765,#758,#756,#766));
#163=IFCPOLYLOOP((#770,#766,#756));
#164=IFCPOLYLOOP((#814,#816,#824,#805));
#165=IFCPOLYLOOP((#805,#824,#817,#806));
#166=IFCPOLYLOOP((#753,#825,#815,#754));
#167=IFCPOLYLOOP((#755,#826,#825,#753));
#168=IFCPOLYLOOP((#752,#827,#826,#755));
#169=IFCPOLYLOOP((#748,#822,#827,#752));
#170=IFCPOLYLOOP((#751,#828,#819,#757));
#171=IFCPOLYLOOP((#750,#829,#828,#751));
#172=IFCPOLYLOOP((#747,#830,#829,#750));
#173=IFCPOLYLOOP((#746,#818,#830,#747));
#174=IFCPOLYLOOP((#817,#824,#831,#832));
#175=IFCPOLYLOOP((#824,#816,#833,#831));
#176=IFCPOLYLOOP((#816,#815,#834,#833));
#177=IFCPOLYLOOP((#819,#828,#835,#836));
#178=IFCPOLYLOOP((#829,#830,#837,#838));
#179=IFCPOLYLOOP((#815,#825,#839,#834));
#180=IFCPOLYLOOP((#827,#822,#840,#841));
#181=IFCPOLYLOOP((#836,#842,#820,#819));
#182=IFCPOLYLOOP((#830,#818,#843,#837));
#183=IFCPOLYLOOP((#825,#826,#844,#839));
#184=IFCPOLYLOOP((#822,#821,#845,#840));
#185=IFCPOLYLOOP((#838,#835,#828,#829));
#186=IFCPOLYLOOP((#841,#844,#826,#827));
#187=IFCPOLYLOOP((#832,#843,#818,#817));
#188=IFCPOLYLOOP((#821,#823,#846,#845));
#189=IFCPOLYLOOP((#842,#846,#823,#820));
#190=IFCPOLYLOOP((#842,#847,#848,#846));
#191=IFCPOLYLOOP((#836,#849,#847,#842));
#192=IFCPOLYLOOP((#835,#850,#849,#836));
#193=IFCPOLYLOOP((#838,#851,#850,#835));
#194=IFCPOLYLOOP((#837,#852,#851,#838));
#195=IFCPOLYLOOP((#843,#853,#852,#837));
#196=IFCPOLYLOOP((#832,#854,#853,#843));
#197=IFCPOLYLOOP((#831,#855,#854,#832));
#198=IFCPOLYLOOP((#833,#856,#855,#831));
#199=IFCPOLYLOOP((#834,#857,#856,#833));
#200=IFCPOLYLOOP((#839,#858,#857,#834));
#201=IFCPOLYLOOP((#844,#859,#858,#839));
#202=IFCPOLYLOOP((#841,#860,#859,#844));
#203=IFCPOLYLOOP((#840,#861,#860,#841));
#204=IFCPOLYLOOP((#845,#862,#861,#840));
#205=IFCPOLYLOOP((#846,#848,#862,#845));
#206=IFCPOLYLOOP((#852,#853,#863,#864));
#207=IFCPOLYLOOP((#854,#855,#865,#866));
#208=IFCPOLYLOOP((#866,#863,#853,#854));
#209=IFCPOLYLOOP((#855,#856,#867,#865));
#210=IFCPOLYLOOP((#856,#857,#868,#867));
#211=IFCPOLYLOOP((#857,#858,#869,#868));
#212=IFCPOLYLOOP((#847,#849,#870,#871));
#213=IFCPOLYLOOP((#850,#851,#872,#873));
#214=IFCPOLYLOOP((#858,#859,#874,#869));
#215=IFCPOLYLOOP((#860,#861,#875,#876));
#216=IFCPOLYLOOP((#873,#870,#849,#850));
#217=IFCPOLYLOOP((#876,#874,#859,#860));
#218=IFCPOLYLOOP((#864,#872,#851,#852));
#219=IFCPOLYLOOP((#862,#848,#877,#878));
#220=IFCPOLYLOOP((#878,#875,#861,#862));
#221=IFCPOLYLOOP((#871,#877,#848,#847));
#222=IFCPOLYLOOP((#807,#866,#865,#797));
#223=IFCPOLYLOOP((#812,#863,#866,#807));
#224=IFCPOLYLOOP((#811,#864,#863,#812));
#225=IFCPOLYLOOP((#810,#872,#864,#811));
#226=IFCPOLYLOOP((#809,#873,#872,#810));
#227=IFCPOLYLOOP((#804,#870,#873,#809));
#228=IFCPOLYLOOP((#803,#871,#870,#804));
#229=IFCPOLYLOOP((#802,#877,#871,#803));
#230=IFCPOLYLOOP((#801,#878,#877,#802));
#231=IFCPOLYLOOP((#808,#875,#878,#801));
#232=IFCPOLYLOOP((#794,#876,#875,#808));
#233=IFCPOLYLOOP((#793,#874,#876,#794));
#234=IFCPOLYLOOP((#796,#869,#874,#793));
#235=IFCPOLYLOOP((#795,#868,#869,#796));
#236=IFCPOLYLOOP((#798,#867,#868,#795));
#237=IFCPOLYLOOP((#797,#865,#867,#798));
#238=IFCFACEOUTERBOUND(#26,.T.);
#239=IFCFACEOUTERBOUND(#27,.T.);
#240=IFCFACEOUTERBOUND(#28,.T.);
#241=IFCFACEOUTERBOUND(#29,.T.);
#242=IFCFACEOUTERBOUND(#30,.T.);
#243=IFCFACEOUTERBOUND(#31,.T.);
#244=IFCFACEOUTERBOUND(#32,.T.);
#245=IFCFACEOUTERBOUND(#33,.T.);
#246=IFCFACEOUTERBOUND(#34,.T.);
#247=IFCFACEOUTERBOUND(#35,.T.);
#248=IFCFACEOUTERBOUND(#36,.T.);
#249=IFCFACEOUTERBOUND(#37,.T.);
#250=IFCFACEOUTERBOUND(#38,.T.);
#251=IFCFACEOUTERBOUND(#39,.T.);
#252=IFCFACEOUTERBOUND(#40,.T.);
#253=IFCFACEOUTERBOUND(#41,.T.);
#254=IFCFACEOUTERBOUND(#42,.T.);
#255=IFCFACEOUTERBOUND(#43,.T.);
#256=IFCFACEOUTERBOUND(#44,.T.);
#257=IFCFACEOUTERBOUND(#45,.T.);
#258=IFCFACEOUTERBOUND(#46,.T.);
#259=IFCFACEOUTERBOUND(#47,.T.);
#260=IFCFACEOUTERBOUND(#48,.T.);
#261=IFCFACEOUTERBOUND(#49,.T.);
#262=IFCFACEOUTERBOUND(#50,.T.);
#263=IFCFACEOUTERBOUND(#51,.T.);
#264=IFCFACEOUTERBOUND(#52,.T.);
#265=IFCFACEOUTERBOUND(#53,.T.);
#266=IFCFACEOUTERBOUND(#54,.T.);
#267=IFCFACEOUTERBOUND(#55,.T.);
#268=IFCFACEOUTERBOUND(#56,.T.);
#269=IFCFACEOUTERBOUND(#57,.T.);
#270=IFCFACEOUTERBOUND(#58,.T.);
#271=IFCFACEOUTERBOUND(#59,.T.);
#272=IFCFACEOUTERBOUND(#60,.T.);
#273=IFCFACEOUTERBOUND(#61,.T.);
#274=IFCFACEOUTERBOUND(#62,.T.);
#275=IFCFACEOUTERBOUND(#63,.T.);
#276=IFCFACEOUTERBOUND(#64,.T.);
#277=IFCFACEOUTERBOUND(#65,.T.);
#278=IFCFACEOUTERBOUND(#66,.T.);
#279=IFCFACEOUTERBOUND(#67,.T.);
#280=IFCFACEOUTERBOUND(#68,.T.);
#281=IFCFACEOUTERBOUND(#69,.T.);
#282=IFCFACEOUTERBOUND(#70,.T.);
#283=IFCFACEOUTERBOUND(#71,.T.);
#284=IFCFACEOUTERBOUND(#72,.T.);
#285=IFCFACEOUTERBOUND(#73,.T.);
#286=IFCFACEOUTERBOUND(#74,.T.);
#287=IFCFACEOUTERBOUND(#75,.T.);
#288=IFCFACEOUTERBOUND(#76,.T.);
#289=IFCFACEOUTERBOUND(#77,.T.);
#290=IFCFACEOUTERBOUND(#78,.T.);
#291=IFCFACEOUTERBOUND(#79,.T.);
#292=IFCFACEOUTERBOUND(#80,.T.);
#293=IFCFACEOUTERBOUND(#81,.T.);
#294=IFCFACEOUTERBOUND(#82,.T.);
#295=IFCFACEOUTERBOUND(#83,.T.);
#296=IFCFACEOUTERBOUND(#84,.T.);
#297=IFCFACEOUTERBOUND(#85,.T.);
#298=IFCFACEOUTERBOUND(#86,.T.);
#299=IFCFACEOUTERBOUND(#87,.T.);
#300=IFCFACEOUTERBOUND(#88,.T.);
#301=IFCFACEOUTERBOUND(#89,.T.);
#302=IFCFACEOUTERBOUND(#90,.T.);
#303=IFCFACEOUTERBOUND(#91,.T.);
#304=IFCFACEOUTERBOUND(#92,.T.);
#305=IFCFACEOUTERBOUND(#93,.T.);
#306=IFCFACEOUTERBOUND(#94,.T.);
#307=IFCFACEOUTERBOUND(#95,.T.);
#308=IFCFACEOUTERBOUND(#96,.T.);
#309=IFCFACEOUTERBOUND(#97,.T.);
#310=IFCFACEOUTERBOUND(#98,.T.);
#311=IFCFACEOUTERBOUND(#99,.T.);
#312=IFCFACEOUTERBOUND(#100,.T.);
#313=IFCFACEOUTERBOUND(#101,.T.);
#314=IFCFACEOUTERBOUND(#102,.T.);
#315=IFCFACEOUTERBOUND(#103,.T.);
#316=IFCFACEOUTERBOUND(#104,.T.);
#317=IFCFACEOUTERBOUND(#105,.T.);
#318=IFCFACEOUTERBOUND(#106,.T.);
#319=IFCFACEOUTERBOUND(#107,.T.);
#320=IFCFACEOUTERBOUND(#108,.T.);
#321=IFCFACEOUTERBOUND(#109,.T.);
#322=IFCFACEOUTERBOUND(#110,.T.);
#323=IFCFACEOUTERBOUND(#111,.T.);
#324=IFCFACEOUTERBOUND(#112,.T.);
#325=IFCFACEOUTERBOUND(#113,.T.);
#326=IFCFACEOUTERBOUND(#114,.T.);
#327=IFCFACEOUTERBOUND(#115,.T.);
#328=IFCFACEOUTERBOUND(#116,.T.);
#329=IFCFACEOUTERBOUND(#117,.T.);
#330=IFCFACEOUTERBOUND(#118,.T.);
#331=IFCFACEOUTERBOUND(#119,.T.);
#332=IFCFACEOUTERBOUND(#120,.T.);
#333=IFCFACEOUTERBOUND(#121,.T.);
#334=IFCFACEOUTERBOUND(#122,.T.);
#335=IFCFACEOUTERBOUND(#123,.T.);
#336=IFCFACEOUTERBOUND(#124,.T.);
#337=IFCFACEOUTERBOUND(#125,.T.);
#338=IFCFACEOUTERBOUND(#126,.T.);
#339=IFCFACEOUTERBOUND(#127,.T.);
#340=IFCFACEOUTERBOUND(#128,.T.);
#341=IFCFACEOUTERBOUND(#129,.T.);
#342=IFCFACEOUTERBOUND(#130,.T.);
#343=IFCFACEOUTERBOUND(#131,.T.);
#344=IFCFACEOUTERBOUND(#132,.T.);
#345=IFCFACEOUTERBOUND(#133,.T.);
#346=IFCFACEOUTERBOUND(#134,.T.);
#347=IFCFACEOUTERBOUND(#135,.T.);
#348=IFCFACEOUTERBOUND(#136,.T.);
#349=IFCFACEOUTERBOUND(#137,.T.);
#350=IFCFACEOUTERBOUND(#138,.T.);
#351=IFCFACEOUTERBOUND(#139,.T.);
#352=IFCFACEOUTERBOUND(#140,.T.);
#353=IFCFACEOUTERBOUND(#141,.T.);
#354=IFCFACEOUTERBOUND(#142,.T.);
#355=IFCFACEOUTERBOUND(#143,.T.);
#356=IFCFACEOUTERBOUND(#144,.T.);
#357=IFCFACEOUTERBOUND(#145,.T.);
#358=IFCFACEOUTERBOUND(#146,.T.);
#359=IFCFACEOUTERBOUND(#147,.T.);
#360=IFCFACEOUTERBOUND(#148,.T.);
#361=IFCFACEOUTERBOUND(#149,.T.);
#362=IFCFACEOUTERBOUND(#150,.T.);
#363=IFCFACEOUTERBOUND(#151,.T.);
#364=IFCFACEOUTERBOUND(#152,.T.);
#365=IFCFACEOUTERBOUND(#153,.T.);
#366=IFCFACEOUTERBOUND(#154,.T.);
#367=IFCFACEOUTERBOUND(#155,.T.);
#368=IFCFACEOUTERBOUND(#156,.T.);
#369=IFCFACEOUTERBOUND(#157,.T.);
#370=IFCFACEOUTERBOUND(#158,.T.);
#371=IFCFACEOUTERBOUND(#159,.T.);
#372=IFCFACEOUTERBOUND(#160,.T.);
#373=IFCFACEOUTERBOUND(#161,.T.);
#374=IFCFACEOUTERBOUND(#162,.T.);
#375=IFCFACEOUTERBOUND(#163,.T.);
#376=IFCFACEOUTERBOUND(#164,.T.);
#377=IFCFACEOUTERBOUND(#165,.T.);
#378=IFCFACEOUTERBOUND(#166,.T.);
#379=IFCFACEOUTERBOUND(#167,.T.);
#380=IFCFACEOUTERBOUND(#168,.T.);
#381=IFCFACEOUTERBOUND(#169,.T.);
#382=IFCFACEOUTERBOUND(#170,.T.);
#383=IFCFACEOUTERBOUND(#171,.T.);
#384=IFCFACEOUTERBOUND(#172,.T.);
#385=IFCFACEOUTERBOUND(#173,.T.);
#386=IFCFACEOUTERBOUND(#174,.T.);
#387=IFCFACEOUTERBOUND(#175,.T.);
#388=IFCFACEOUTERBOUND(#176,.T.);
#389=IFCFACEOUTERBOUND(#177,.T.);
#390=IFCFACEOUTERBOUND(#178,.T.);
#391=IFCFACEOUTERBOUND(#179,.T.);
#392=IFCFACEOUTERBOUND(#180,.T.);
#393=IFCFACEOUTERBOUND(#181,.T.);
#394=IFCFACEOUTERBOUND(#182,.T.);
#395=IFCFACEOUTERBOUND(#183,.T.);
#396=IFCFACEOUTERBOUND(#184,.T.);
#397=IFCFACEOUTERBOUND(#185,.T.);
#398=IFCFACEOUTERBOUND(#186,.T.);
#399=IFCFACEOUTERBOUND(#187,.T.);
#400=IFCFACEOUTERBOUND(#188,.T.);
#401=IFCFACEOUTERBOUND(#189,.T.);
#402=IFCFACEOUTERBOUND(#190,.T.);
#403=IFCFACEOUTERBOUND(#191,.T.);
#404=IFCFACEOUTERBOUND(#192,.T.);
#405=IFCFACEOUTERBOUND(#193,.T.);
#406=IFCFACEOUTERBOUND(#194,.T.);
#407=IFCFACEOUTERBOUND(#195,.T.);
#408=IFCFACEOUTERBOUND(#196,.T.);
#409=IFCFACEOUTERBOUND(#197,.T.);
#410=IFCFACEOUTERBOUND(#198,.T.);
#411=IFCFACEOUTERBOUND(#199,.T.);
#412=IFCFACEOUTERBOUND(#200,.T.);
#413=IFCFACEOUTERBOUND(#201,.T.);
#414=IFCFACEOUTERBOUND(#202,.T.);
#415=IFCFACEOUTERBOUND(#203,.T.);
#416=IFCFACEOUTERBOUND(#204,.T.);
#417=IFCFACEOUTERBOUND(#205,.T.);
#418=IFCFACEOUTERBOUND(#206,.T.);
#419=IFCFACEOUTERBOUND(#207,.T.);
#420=IFCFACEOUTERBOUND(#208,.T.);
#421=IFCFACEOUTERBOUND(#209,.T.);
#422=IFCFACEOUTERBOUND(#210,.T.);
#423=IFCFACEOUTERBOUND(#211,.T.);
#424=IFCFACEOUTERBOUND(#212,.T.);
#425=IFCFACEOUTERBOUND(#213,.T.);
#426=IFCFACEOUTERBOUND(#214,.T.);
#427=IFCFACEOUTERBOUND(#215,.T.);
#428=IFCFACEOUTERBOUND(#216,.T.);
#429=IFCFACEOUTERBOUND(#217,.T.);
#430=IFCFACEOUTERBOUND(#218,.T.);
#431=IFCFACEOUTERBOUND(#219,.T.);
#432=IFCFACEOUTERBOUND(#220,.T.);
#433=IFCFACEOUTERBOUND(#221,.T.);
#434=IFCFACEOUTERBOUND(#222,.T.);
#435=IFCFACEOUTERBOUND(#223,.T.);
#436=IFCFACEOUTERBOUND(#224,.T.);
#437=IFCFACEOUTERBOUND(#225,.T.);
#438=IFCFACEOUTERBOUND(#226,.T.);
#439=IFCFACEOUTERBOUND(#227,.T.);
#440=IFCFACEOUTERBOUND(#228,.T.);
#441=IFCFACEOUTERBOUND(#229,.T.);
#442=IFCFACEOUTERBOUND(#230,.T.);
#443=IFCFACEOUTERBOUND(#231,.T.);
#444=IFCFACEOUTERBOUND(#232,.T.);
#445=IFCFACEOUTERBOUND(#233,.T.);
#446=IFCFACEOUTERBOUND(#234,.T.);
#447=IFCFACEOUTERBOUND(#235,.T.);
#448=IFCFACEOUTERBOUND(#236,.T.);
#449=IFCFACEOUTERBOUND(#237,.T.);
#450=IFCFACE((#238));
#451=IFCFACE((#239));
#452=IFCFACE((#240));
#453=IFCFACE((#241));
#454=IFCFACE((#242));
#455=IFCFACE((#243));
#456=IFCFACE((#244));
#457=IFCFACE((#245));
#458=IFCFACE((#246));
#459=IFCFACE((#247));
#460=IFCFACE((#248));
#461=IFCFACE((#249));
#462=IFCFACE((#250));
#463=IFCFACE((#251));
#464=IFCFACE((#252));
#465=IFCFACE((#253));
#466=IFCFACE((#254));
#467=IFCFACE((#255));
#468=IFCFACE((#256));
#469=IFCFACE((#257));
#470=IFCFACE((#258));
#471=IFCFACE((#259));
#472=IFCFACE((#260));
#473=IFCFACE((#261));
#474=IFCFACE((#262));
#475=IFCFACE((#263));
#476=IFCFACE((#264));
#477=IFCFACE((#265));
#478=IFCFACE((#266));
#479=IFCFACE((#267));
#480=IFCFACE((#268));
#481=IFCFACE((#269));
#482=IFCFACE((#270));
#483=IFCFACE((#271));
#484=IFCFACE((#272));
#485=IFCFACE((#273));
#486=IFCFACE((#274));
#487=IFCFACE((#275));
#488=IFCFACE((#276));
#489=IFCFACE((#277));
#490=IFCFACE((#278));
#491=IFCFACE((#279));
#492=IFCFACE((#280));
#493=IFCFACE((#281));
#494=IFCFACE((#282));
#495=IFCFACE((#283));
#496=IFCFACE((#284));
#497=IFCFACE((#285));
#498=IFCFACE((#286));
#499=IFCFACE((#287));
#500=IFCFACE((#288));
#501=IFCFACE((#289));
#502=IFCFACE((#290));
#503=IFCFACE((#291));
#504=IFCFACE((#292));
#505=IFCFACE((#293));
#506=IFCFACE((#294));
#507=IFCFACE((#295));
#508=IFCFACE((#296));
#509=IFCFACE((#297));
#510=IFCFACE((#298));
#511=IFCFACE((#299));
#512=IFCFACE((#300));
#513=IFCFACE((#301));
#514=IFCFACE((#302));
#515=IFCFACE((#303));
#516=IFCFACE((#304));
#517=IFCFACE((#305));
#518=IFCFACE((#306));
#519=IFCFACE((#307));
#520=IFCFACE((#308));
#521=IFCFACE((#309));
#522=IFCFACE((#310));
#523=IFCFACE((#311));
#524=IFCFACE((#312));
#525=IFCFACE((#313));
#526=IFCFACE((#314));
#527=IFCFACE((#315));
#528=IFCFACE((#316));
#529=IFCFACE((#317));
#530=IFCFACE((#318));
#531=IFCFACE((#319));
#532=IFCFACE((#320));
#533=IFCFACE((#321));
#534=IFCFACE((#322));
#535=IFCFACE((#323));
#536=IFCFACE((#324));
#537=IFCFACE((#325));
#538=IFCFACE((#326));
#539=IFCFACE((#327));
#540=IFCFACE((#328));
#541=IFCFACE((#329));
#542=IFCFACE((#330));
#543=IFCFACE((#331));
#544=IFCFACE((#332));
#545=IFCFACE((#333));
#546=IFCFACE((#334));
#547=IFCFACE((#335));
#548=IFCFACE((#336));
#549=IFCFACE((#337));
#550=IFCFACE((#338));
#551=IFCFACE((#339));
#552=IFCFACE((#340));
#553=IFCFACE((#341));
#554=IFCFACE((#342));
#555=IFCFACE((#343));
#556=IFCFACE((#344));
#557=IFCFACE((#345));
#558=IFCFACE((#346));
#559=IFCFACE((#347));
#560=IFCFACE((#348));
#561=IFCFACE((#349));
#562=IFCFACE((#350));
#563=IFCFACE((#351));
#564=IFCFACE((#352));
#565=IFCFACE((#353));
#566=IFCFACE((#354));
#567=IFCFACE((#355));
#568=IFCFACE((#356));
#569=IFCFACE((#357));
#570=IFCFACE((#358));
#571=IFCFACE((#359));
#572=IFCFACE((#360));
#573=IFCFACE((#361));
#574=IFCFACE((#362));
#575=IFCFACE((#363));
#576=IFCFACE((#364));
#577=IFCFACE((#365));
#578=IFCFACE((#366));
#579=IFCFACE((#367));
#580=IFCFACE((#368));
#581=IFCFACE((#369));
#582=IFCFACE((#370));
#583=IFCFACE((#371));
#584=IFCFACE((#372));
#585=IFCFACE((#373));
#586=IFCFACE((#374));
#587=IFCFACE((#375));
#588=IFCFACE((#376));
#589=IFCFACE((#377));
#590=IFCFACE((#378));
#591=IFCFACE((#379));
#592=IFCFACE((#380));
#593=IFCFACE((#381));
#594=IFCFACE((#382));
#595=IFCFACE((#383));
#596=IFCFACE((#384));
#597=IFCFACE((#385));
#598=IFCFACE((#386));
#599=IFCFACE((#387));
#600=IFCFACE((#388));
#601=IFCFACE((#389));
#602=IFCFACE((#390));
#603=IFCFACE((#391));
#604=IFCFACE((#392));
#605=IFCFACE((#393));
#606=IFCFACE((#394));
#607=IFCFACE((#395));
#608=IFCFACE((#396));
#609=IFCFACE((#397));
#610=IFCFACE((#398));
#611=IFCFACE((#399));
#612=IFCFACE((#400));
#613=IFCFACE((#401));
#614=IFCFACE((#402));
#615=IFCFACE((#403));
#616=IFCFACE((#404));
#617=IFCFACE((#405));
#618=IFCFACE((#406));
#619=IFCFACE((#407));
#620=IFCFACE((#408));
#621=IFCFACE((#409));
#622=IFCFACE((#410));
#623=IFCFACE((#411));
#624=IFCFACE((#412));
#625=IFCFACE((#413));
#626=IFCFACE((#414));
#627=IFCFACE((#415));
#628=IFCFACE((#416));
#629=IFCFACE((#417));
#630=IFCFACE((#418));
#631=IFCFACE((#419));
#632=IFCFACE((#420));
#633=IFCFACE((#421));
#634=IFCFACE((#422));
#635=IFCFACE((#423));
#636=IFCFACE((#424));
#637=IFCFACE((#425));
#638=IFCFACE((#426));
#639=IFCFACE((#427));
#640=IFCFACE((#428));
#641=IFCFACE((#429));
#642=IFCFACE((#430));
#643=IFCFACE((#431));
#644=IFCFACE((#432));
#645=IFCFACE((#433));
#646=IFCFACE((#434));
#647=IFCFACE((#435));
#648=IFCFACE((#436));
#649=IFCFACE((#437));
#650=IFCFACE((#438));
#651=IFCFACE((#439));
#652=IFCFACE((#440));
#653=IFCFACE((#441));
#654=IFCFACE((#442));
#655=IFCFACE((#443));
#656=IFCFACE((#444));
#657=IFCFACE((#445));
#658=IFCFACE((#446));
#659=IFCFACE((#447));
#660=IFCFACE((#448));
#661=IFCFACE((#449));
#662=IFCCLOSEDSHELL((#450,#451,#452,#453,#454,#455,#456,#457,#458,#459,
#460,#461,#462,#463,#464,#465,#466,#467,#468,#469,#470,#471,#472,#473,#474,
#475,#476,#477,#478,#479,#480,#481,#482,#483,#484,#485,#486,#487,#488,#489,
#490,#491,#492,#493,#494,#495,#496,#497,#498,#499,#500,#501,#502,#503,#504,
#505,#506,#507,#508,#509,#510,#511,#512,#513,#514,#515,#516,#517,#518,#519,
#520,#521,#522,#523,#524,#525,#526,#527,#528,#529,#530,#531,#532,#533,#534,
#535,#536,#537,#538,#539,#540,#541,#542,#543,#544,#545,#546,#547,#548,#549,
#550,#551,#552,#553,#554,#555,#556,#557,#558,#559,#560,#561,#562,#563,#564,
#565,#566,#567,#568,#569,#570,#571,#572,#573,#574,#575,#576,#577,#578,#579,
#580,#581,#582,#583,#584,#585,#586,#587,#588,#589,#590,#591,#592,#593,#594,
#595,#596,#597,#598,#599,#600,#601,#602,#603,#604,#605,#606,#607,#608,#609,
#610,#611,#612,#613,#614,#615,#616,#617,#618,#619,#620,#621,#622,#623,#624,
#625,#626,#627,#628,#629,#630,#631,#632,#633,#634,#635,#636,#637,#638,#639,
#640,#641,#642,#643,#644,#645,#646,#647,#648,#649,#650,#651,#652,#653,#654,
#655,#656,#657,#658,#659,#660,#661));
#663=IFCSTYLEDITEM(#668,(#664),'');
#664=IFCPRESENTATIONSTYLEASSIGNMENT((#665));
#665=IFCSURFACESTYLE('',.BOTH.,(#666));
#666=IFCSURFACESTYLERENDERING(#667,0.,$,$,$,$,$,$,.NOTDEFINED.);
#667=IFCCOLOURRGB('',0.800000011920929,0.760330617427826,0.);
#668=IFCFACETEDBREP(#662);
#669=IFCPROJECT('07hUkdHgGydfWsFJH56q5B',#886,'Ye_4526983_MCM',' ',' ',
' ',' ',(#881),#670);
#670=IFCUNITASSIGNMENT((#882,#883,#884,#885));
#671=IFCGEOMETRICREPRESENTATIONSUBCONTEXT('Body','Model',*,*,*,*,#881,1.,
 .MODEL_VIEW.,$);
#672=IFCAXIS2PLACEMENT3D(#678,#674,#675);
#673=IFCAXIS2PLACEMENT3D(#880,#676,#677);
#674=IFCDIRECTION((0.,0.,1.));
#675=IFCDIRECTION((1.,0.,0.));
#676=IFCDIRECTION((0.,0.,1.));
#677=IFCDIRECTION((1.,0.,0.));
#678=IFCCARTESIANPOINT((0.,0.,0.));
#679=IFCCARTESIANPOINT((0.918440237676216,0.799999999999999,-2.21731087802709));
#680=IFCCARTESIANPOINT((0.918440237676216,7.2,-2.21731087802709));
#681=IFCCARTESIANPOINT((0.,7.2,-2.4));
#682=IFCCARTESIANPOINT((0.,0.799999999999999,-2.4));
#683=IFCCARTESIANPOINT((1.69705627484771,0.799999999999999,-1.69705627484771));
#684=IFCCARTESIANPOINT((1.69705627484771,7.2,-1.69705627484771));
#685=IFCCARTESIANPOINT((2.21731087802709,0.799999999999999,-0.918440237676216));
#686=IFCCARTESIANPOINT((2.21731087802709,7.2,-0.918440237676216));
#687=IFCCARTESIANPOINT((2.4,0.8,0.));
#688=IFCCARTESIANPOINT((2.4,7.2,3.85949435922393E-16));
#689=IFCCARTESIANPOINT((2.21731087802709,0.799999999999999,0.918440237676216));
#690=IFCCARTESIANPOINT((2.21731087802709,7.2,0.918440237676216));
#691=IFCCARTESIANPOINT((1.69705627484771,0.799999999999999,1.69705627484771));
#692=IFCCARTESIANPOINT((1.69705627484771,7.2,1.69705627484771));
#693=IFCCARTESIANPOINT((0.918440237676215,0.799999999999999,2.21731087802709));
#694=IFCCARTESIANPOINT((0.918440237676215,7.2,2.21731087802709));
#695=IFCCARTESIANPOINT((2.93915231795365E-16,0.799999999999999,2.4));
#696=IFCCARTESIANPOINT((2.93915231795365E-16,7.2,2.4));
#697=IFCCARTESIANPOINT((-0.918440237676215,0.799999999999999,2.21731087802709));
#698=IFCCARTESIANPOINT((-0.918440237676215,7.2,2.21731087802709));
#699=IFCCARTESIANPOINT((-1.69705627484771,0.799999999999999,1.69705627484771));
#700=IFCCARTESIANPOINT((-1.69705627484771,7.2,1.69705627484771));
#701=IFCCARTESIANPOINT((-2.21731087802709,0.799999999999999,0.918440237676215));
#702=IFCCARTESIANPOINT((-2.21731087802709,7.2,0.918440237676215));
#703=IFCCARTESIANPOINT((-2.4,0.799999999999999,4.40872847693047E-16));
#704=IFCCARTESIANPOINT((-2.4,7.2,4.40872847693047E-16));
#705=IFCCARTESIANPOINT((-2.21731087802709,0.799999999999999,-0.918440237676216));
#706=IFCCARTESIANPOINT((-2.21731087802709,7.2,-0.918440237676216));
#707=IFCCARTESIANPOINT((-1.69705627484771,0.799999999999999,-1.69705627484771));
#708=IFCCARTESIANPOINT((-1.69705627484771,7.2,-1.69705627484771));
#709=IFCCARTESIANPOINT((-0.918440237676215,0.799999999999999,-2.21731087802709));
#710=IFCCARTESIANPOINT((-0.918440237676215,7.2,-2.21731087802709));
#711=IFCCARTESIANPOINT((1.18631864033178,0.8,2.86402655078499));
#712=IFCCARTESIANPOINT((3.7964050773568E-16,0.8,3.1));
#713=IFCCARTESIANPOINT((-2.86402655078499,0.8,1.18631864033178));
#714=IFCCARTESIANPOINT((-3.1,0.8,5.69460761603519E-16));
#715=IFCCARTESIANPOINT((2.86402655078499,0.8,1.18631864033178));
#716=IFCCARTESIANPOINT((2.1920310216783,0.8,2.1920310216783));
#717=IFCCARTESIANPOINT((-1.18631864033178,0.8,2.86402655078499));
#718=IFCCARTESIANPOINT((-2.86402655078499,0.8,-1.18631864033178));
#719=IFCCARTESIANPOINT((1.18631864033178,0.8,-2.86402655078499));
#720=IFCCARTESIANPOINT((2.1920310216783,0.8,-2.1920310216783));
#721=IFCCARTESIANPOINT((2.86402655078499,0.8,-1.18631864033178));
#722=IFCCARTESIANPOINT((3.1,0.8,0.));
#723=IFCCARTESIANPOINT((-2.1920310216783,0.8,-2.1920310216783));
#724=IFCCARTESIANPOINT((-2.1920310216783,0.8,2.1920310216783));
#725=IFCCARTESIANPOINT((-1.18631864033178,0.8,-2.86402655078499));
#726=IFCCARTESIANPOINT((0.,0.8,-3.1));
#727=IFCCARTESIANPOINT((1.18631864033178,0.,-2.86402655078499));
#728=IFCCARTESIANPOINT((0.,0.,-3.1));
#729=IFCCARTESIANPOINT((2.1920310216783,0.,-2.1920310216783));
#730=IFCCARTESIANPOINT((2.86402655078499,0.,-1.18631864033178));
#731=IFCCARTESIANPOINT((3.1,0.,0.));
#732=IFCCARTESIANPOINT((2.86402655078499,0.,1.18631864033178));
#733=IFCCARTESIANPOINT((2.1920310216783,0.,2.1920310216783));
#734=IFCCARTESIANPOINT((1.18631864033178,0.,2.86402655078499));
#735=IFCCARTESIANPOINT((3.7964050773568E-16,0.,3.1));
#736=IFCCARTESIANPOINT((-1.18631864033178,0.,2.86402655078499));
#737=IFCCARTESIANPOINT((-2.1920310216783,0.,2.1920310216783));
#738=IFCCARTESIANPOINT((-2.86402655078499,0.,1.18631864033178));
#739=IFCCARTESIANPOINT((-3.1,0.,5.69460761603519E-16));
#740=IFCCARTESIANPOINT((-2.86402655078499,0.,-1.18631864033178));
#741=IFCCARTESIANPOINT((-2.1920310216783,0.,-2.1920310216783));
#742=IFCCARTESIANPOINT((-1.18631864033178,0.,-2.86402655078499));
#743=IFCCARTESIANPOINT((1.37766035651432,0.,3.32596631704063));
#744=IFCCARTESIANPOINT((4.40872847693047E-16,0.,3.6));
#745=IFCCARTESIANPOINT((-1.37766035651432,0.,3.32596631704063));
#746=IFCCARTESIANPOINT((2.54558441227157,0.,-2.54558441227157));
#747=IFCCARTESIANPOINT((3.32596631704063,0.,-1.37766035651432));
#748=IFCCARTESIANPOINT((-2.54558441227157,0.,2.54558441227157));
#749=IFCCARTESIANPOINT((1.37766035651432,0.,-3.32596631704063));
#750=IFCCARTESIANPOINT((3.6,0.,0.));
#751=IFCCARTESIANPOINT((3.32596631704063,0.,1.37766035651432));
#752=IFCCARTESIANPOINT((-3.32596631704063,0.,1.37766035651432));
#753=IFCCARTESIANPOINT((-3.32596631704063,0.,-1.37766035651432));
#754=IFCCARTESIANPOINT((-2.54558441227157,0.,-2.54558441227157));
#755=IFCCARTESIANPOINT((-3.6,0.,6.61309271539571E-16));
#756=IFCCARTESIANPOINT((-1.37766035651432,0.,-3.32596631704063));
#757=IFCCARTESIANPOINT((2.54558441227157,0.,2.54558441227157));
#758=IFCCARTESIANPOINT((0.,0.,-3.6));
#759=IFCCARTESIANPOINT((-2.91976026413128,7.2,-1.04163333279997));
#760=IFCCARTESIANPOINT((-3.1,7.2,4.47258858255133E-15));
#761=IFCCARTESIANPOINT((-2.91976026413128,7.2,1.04163333279998));
#762=IFCCARTESIANPOINT((-1.37766035651432,7.2,3.32596631704063));
#763=IFCCARTESIANPOINT((4.40872847693047E-16,7.2,3.6));
#764=IFCCARTESIANPOINT((-2.4,7.2,1.96214168703486));
#765=IFCCARTESIANPOINT((-8.81745695386094E-16,7.2,-3.6));
#766=IFCCARTESIANPOINT((-1.37766035651432,7.2,-3.32596631704063));
#767=IFCCARTESIANPOINT((3.1,7.2,4.40164584234757E-15));
#768=IFCCARTESIANPOINT((2.91976026413128,7.2,-1.04163333279998));
#769=IFCCARTESIANPOINT((-2.4,7.2,-1.96214168703485));
#770=IFCCARTESIANPOINT((-2.4,7.2,-2.68328157299975));
#771=IFCCARTESIANPOINT((2.4,7.2,-1.96214168703485));
#772=IFCCARTESIANPOINT((2.4,7.2,2.68328157299975));
#773=IFCCARTESIANPOINT((2.4,7.2,1.96214168703486));
#774=IFCCARTESIANPOINT((2.4,7.2,-2.68328157299975));
#775=IFCCARTESIANPOINT((1.37766035651432,7.2,-3.32596631704063));
#776=IFCCARTESIANPOINT((2.91976026413128,7.2,1.04163333279998));
#777=IFCCARTESIANPOINT((1.37766035651432,7.2,3.32596631704063));
#778=IFCCARTESIANPOINT((-2.4,7.2,2.68328157299975));
#779=IFCCARTESIANPOINT((2.91976026413128,8.8,-1.04163333279997));
#780=IFCCARTESIANPOINT((2.4,8.8,-1.96214168703485));
#781=IFCCARTESIANPOINT((3.1,8.8,4.83532671134177E-15));
#782=IFCCARTESIANPOINT((2.91976026413128,8.8,1.04163333279998));
#783=IFCCARTESIANPOINT((2.4,8.8,1.96214168703486));
#784=IFCCARTESIANPOINT((-2.91976026413128,8.8,1.04163333279998));
#785=IFCCARTESIANPOINT((-2.4,8.8,1.96214168703486));
#786=IFCCARTESIANPOINT((-3.1,8.8,4.90626945154554E-15));
#787=IFCCARTESIANPOINT((-2.91976026413128,8.8,-1.04163333279997));
#788=IFCCARTESIANPOINT((-2.4,8.8,-1.96214168703485));
#789=IFCCARTESIANPOINT((-2.4,8.8,2.68328157299975));
#790=IFCCARTESIANPOINT((2.4,8.8,-2.68328157299975));
#791=IFCCARTESIANPOINT((-2.4,8.8,-2.68328157299975));
#792=IFCCARTESIANPOINT((2.4,8.8,2.68328157299975));
#793=IFCCARTESIANPOINT((-2.4,8.79999999999998,0.));
#794=IFCCARTESIANPOINT((-2.21731087802709,8.79999999999998,0.918440237676215));
#795=IFCCARTESIANPOINT((-1.69705627484771,8.79999999999998,-1.69705627484771));
#796=IFCCARTESIANPOINT((-2.21731087802709,8.79999999999998,-0.918440237676216));
#797=IFCCARTESIANPOINT((0.,8.79999999999998,-2.4));
#798=IFCCARTESIANPOINT((-0.918440237676215,8.79999999999998,-2.21731087802709));
#799=IFCCARTESIANPOINT((4.40872847693047E-16,8.8,3.6));
#800=IFCCARTESIANPOINT((-1.37766035651432,8.8,3.32596631704063));
#801=IFCCARTESIANPOINT((-0.918440237676215,8.79999999999998,2.21731087802709));
#802=IFCCARTESIANPOINT((2.93915231795365E-16,8.79999999999998,2.4));
#803=IFCCARTESIANPOINT((0.918440237676215,8.79999999999998,2.21731087802709));
#804=IFCCARTESIANPOINT((1.69705627484771,8.79999999999998,1.69705627484771));
#805=IFCCARTESIANPOINT((0.,8.8,-3.6));
#806=IFCCARTESIANPOINT((1.37766035651432,8.8,-3.32596631704063));
#807=IFCCARTESIANPOINT((0.918440237676216,8.79999999999998,-2.21731087802709));
#808=IFCCARTESIANPOINT((-1.69705627484771,8.79999999999998,1.69705627484771));
#809=IFCCARTESIANPOINT((2.21731087802709,8.79999999999998,0.918440237676216));
#810=IFCCARTESIANPOINT((2.4,8.79999999999998,3.85949435922393E-16));
#811=IFCCARTESIANPOINT((2.21731087802709,8.79999999999998,-0.918440237676216));
#812=IFCCARTESIANPOINT((1.69705627484771,8.79999999999998,-1.69705627484771));
#813=IFCCARTESIANPOINT((1.37766035651432,8.8,3.32596631704063));
#814=IFCCARTESIANPOINT((-1.37766035651432,8.8,-3.32596631704063));
#815=IFCCARTESIANPOINT((-2.54558441227157,16.,-2.54558441227157));
#816=IFCCARTESIANPOINT((-1.37766035651432,16.,-3.32596631704063));
#817=IFCCARTESIANPOINT((1.37766035651432,16.,-3.32596631704063));
#818=IFCCARTESIANPOINT((2.54558441227157,16.,-2.54558441227157));
#819=IFCCARTESIANPOINT((2.54558441227157,16.,2.54558441227157));
#820=IFCCARTESIANPOINT((1.37766035651432,16.,3.32596631704063));
#821=IFCCARTESIANPOINT((-1.37766035651432,16.,3.32596631704063));
#822=IFCCARTESIANPOINT((-2.54558441227157,16.,2.54558441227157));
#823=IFCCARTESIANPOINT((4.40872847693047E-16,16.,3.6));
#824=IFCCARTESIANPOINT((0.,16.,-3.6));
#825=IFCCARTESIANPOINT((-3.32596631704063,16.,-1.37766035651432));
#826=IFCCARTESIANPOINT((-3.6,16.,6.61309271539571E-16));
#827=IFCCARTESIANPOINT((-3.32596631704063,16.,1.37766035651432));
#828=IFCCARTESIANPOINT((3.32596631704063,16.,1.37766035651432));
#829=IFCCARTESIANPOINT((3.6,16.,0.));
#830=IFCCARTESIANPOINT((3.32596631704063,16.,-1.37766035651432));
#831=IFCCARTESIANPOINT((3.7964050773568E-16,16.,-3.1));
#832=IFCCARTESIANPOINT((1.18631864033178,16.,-2.86402655078499));
#833=IFCCARTESIANPOINT((-1.18631864033178,16.,-2.86402655078499));
#834=IFCCARTESIANPOINT((-2.1920310216783,16.,-2.1920310216783));
#835=IFCCARTESIANPOINT((2.86402655078499,16.,1.18631864033178));
#836=IFCCARTESIANPOINT((2.1920310216783,16.,2.1920310216783));
#837=IFCCARTESIANPOINT((2.86402655078499,16.,-1.18631864033178));
#838=IFCCARTESIANPOINT((3.1,16.,-4.98518021399757E-16));
#839=IFCCARTESIANPOINT((-2.86402655078499,16.,-1.18631864033178));
#840=IFCCARTESIANPOINT((-2.1920310216783,16.,2.1920310216783));
#841=IFCCARTESIANPOINT((-2.86402655078499,16.,1.18631864033178));
#842=IFCCARTESIANPOINT((1.18631864033178,16.,2.86402655078499));
#843=IFCCARTESIANPOINT((2.1920310216783,16.,-2.1920310216783));
#844=IFCCARTESIANPOINT((-3.1,16.,0.));
#845=IFCCARTESIANPOINT((-1.18631864033178,16.,2.86402655078499));
#846=IFCCARTESIANPOINT((0.,16.,3.1));
#847=IFCCARTESIANPOINT((1.18631864033178,15.2,2.86402655078499));
#848=IFCCARTESIANPOINT((0.,15.2,3.1));
#849=IFCCARTESIANPOINT((2.1920310216783,15.2,2.1920310216783));
#850=IFCCARTESIANPOINT((2.86402655078499,15.2,1.18631864033178));
#851=IFCCARTESIANPOINT((3.1,15.2,-4.98518021399757E-16));
#852=IFCCARTESIANPOINT((2.86402655078499,15.2,-1.18631864033178));
#853=IFCCARTESIANPOINT((2.1920310216783,15.2,-2.1920310216783));
#854=IFCCARTESIANPOINT((1.18631864033178,15.2,-2.86402655078499));
#855=IFCCARTESIANPOINT((3.7964050773568E-16,15.2,-3.1));
#856=IFCCARTESIANPOINT((-1.18631864033178,15.2,-2.86402655078499));
#857=IFCCARTESIANPOINT((-2.1920310216783,15.2,-2.1920310216783));
#858=IFCCARTESIANPOINT((-2.86402655078499,15.2,-1.18631864033178));
#859=IFCCARTESIANPOINT((-3.1,15.2,0.));
#860=IFCCARTESIANPOINT((-2.86402655078499,15.2,1.18631864033178));
#861=IFCCARTESIANPOINT((-2.1920310216783,15.2,2.1920310216783));
#862=IFCCARTESIANPOINT((-1.18631864033178,15.2,2.86402655078499));
#863=IFCCARTESIANPOINT((1.69705627484771,15.2,-1.69705627484771));
#864=IFCCARTESIANPOINT((2.21731087802709,15.2,-0.918440237676216));
#865=IFCCARTESIANPOINT((0.,15.2,-2.4));
#866=IFCCARTESIANPOINT((0.918440237676216,15.2,-2.21731087802709));
#867=IFCCARTESIANPOINT((-0.918440237676215,15.2,-2.21731087802709));
#868=IFCCARTESIANPOINT((-1.69705627484771,15.2,-1.69705627484771));
#869=IFCCARTESIANPOINT((-2.21731087802709,15.2,-0.918440237676216));
#870=IFCCARTESIANPOINT((1.69705627484771,15.2,1.69705627484771));
#871=IFCCARTESIANPOINT((0.918440237676215,15.2,2.21731087802709));
#872=IFCCARTESIANPOINT((2.4,15.2,3.85949435922393E-16));
#873=IFCCARTESIANPOINT((2.21731087802709,15.2,0.918440237676216));
#874=IFCCARTESIANPOINT((-2.4,15.2,4.40872847693047E-16));
#875=IFCCARTESIANPOINT((-1.69705627484771,15.2,1.69705627484771));
#876=IFCCARTESIANPOINT((-2.21731087802709,15.2,0.918440237676215));
#877=IFCCARTESIANPOINT((2.93915231795365E-16,15.2,2.4));
#878=IFCCARTESIANPOINT((-0.918440237676215,15.2,2.21731087802709));
#879=IFCCARTESIANPOINT((0.,0.,0.));
#880=IFCCARTESIANPOINT((0.,0.,0.));
#881=IFCGEOMETRICREPRESENTATIONCONTEXT($,'Model',3,0.005,#672,$);
#882=IFCSIUNIT(*,.LENGTHUNIT.,.MILLI.,.METRE.);
#883=IFCSIUNIT(*,.AREAUNIT.,$,.SQUARE_METRE.);
#884=IFCSIUNIT(*,.VOLUMEUNIT.,$,.CUBIC_METRE.);
#885=IFCSIUNIT(*,.PLANEANGLEUNIT.,$,.RADIAN.);
#886=IFCOWNERHISTORY(#888,#887,$,.NOCHANGE.,0,$,$,0);
#887=IFCAPPLICATION(#889,' ',' ',' ');
#888=IFCPERSONANDORGANIZATION(#890,#889,$);
#889=IFCORGANIZATION($,' ',$,$,$);
#890=IFCPERSON(' ',' ',' ',$,$,$,$,$);
ENDSEC;
END-ISO-10303-21;
