ISO-10303-21;
HEADER;
/* Generated by software containing ST-Developer
 * from STEP Tools, Inc. (www.steptools.com) 
 */
/* OPTION: strings as raw bytes, not using required /X/ escapes */

FILE_DESCRIPTION(
/* description */ ('Unknown'),
/* implementation_level */ '2;1');

FILE_NAME(
/* name */ 'Ye_4107823_AVV',
/* time_stamp */ '2025-07-22T00:06:22+02:00',
/* author */ ('Unknown'),
/* organization */ ('Unknown'),
/* preprocessor_version */ 'ST-DEVELOPER v19.4',
/* originating_system */ 'Unknown',
/* authorisation */ 'OpenTools');

FILE_SCHEMA (('IFC2X3'));
ENDSEC;

DATA;
#10=IFCPROPERTYSINGLEVALUE('ProjectName',$,IFCTEXT(''),$);
#11=IFCPROPERTYSINGLEVALUE('PartNumber',$,IFCTEXT(''),$);
#12=IFCRELDEFINESBYPROPERTIES('3cRq1JQpSwDOm5lsE5cG83',#2274,$,$,(#14),
#13);
#13=IFCPROPERTYSET('1jOd4kXgWorA4TVRi95rqH',#2274,
'empty property set name',$,(#10,#11));
#14=IFCBUILDINGELEMENTPROXY('2GP_XOK7Wq1Pa1NGQTVWHM',#2274,
'Ye_4107823_AVV',' ','Ye_4107823_AVV',#19,#15,' ',.ELEMENT.);
#15=IFCPRODUCTDEFINITIONSHAPE(' ',' ',(#25));
#16=IFCRELCONTAINEDINSPATIALSTRUCTURE('3HZhfx2I0vj9Cvp1GHER_f',#2274,
' ',' ',(#14),#20);
#17=IFCRELAGGREGATES('1jF0XzMGqvEA6wZwPLSawz',#2274,$,$,#1737,(#20));
#18=IFCLOCALPLACEMENT($,#1740);
#19=IFCLOCALPLACEMENT(#18,#1741);
#20=IFCBUILDING('3G2N19bOG__grq1LV0cQPU',#2274,'Default Building',$,$,#18,
$,$,.ELEMENT.,0.,0.,$);
#21=IFCCARTESIANTRANSFORMATIONOPERATOR3D($,$,#2267,1.,$);
#22=IFCMAPPEDITEM(#23,#21);
#23=IFCREPRESENTATIONMAP(#1740,#24);
#24=IFCSHAPEREPRESENTATION(#1739,'Body','Brep',(#1736));
#25=IFCSHAPEREPRESENTATION(#1739,'Body','MappedRepresentation',(#22));
#26=IFCPOLYLOOP((#1747,#1748,#1749,#1750));
#27=IFCPOLYLOOP((#1751,#1752,#1748,#1747));
#28=IFCPOLYLOOP((#1753,#1754,#1752,#1751));
#29=IFCPOLYLOOP((#1755,#1756,#1754,#1753));
#30=IFCPOLYLOOP((#1757,#1758,#1756,#1755));
#31=IFCPOLYLOOP((#1759,#1760,#1758,#1757));
#32=IFCPOLYLOOP((#1761,#1762,#1760,#1759));
#33=IFCPOLYLOOP((#1763,#1764,#1762,#1761));
#34=IFCPOLYLOOP((#1765,#1766,#1764,#1763));
#35=IFCPOLYLOOP((#1767,#1768,#1766,#1765));
#36=IFCPOLYLOOP((#1769,#1770,#1768,#1767));
#37=IFCPOLYLOOP((#1771,#1772,#1770,#1769));
#38=IFCPOLYLOOP((#1773,#1774,#1772,#1771));
#39=IFCPOLYLOOP((#1775,#1776,#1774,#1773));
#40=IFCPOLYLOOP((#1777,#1778,#1776,#1775));
#41=IFCPOLYLOOP((#1750,#1749,#1778,#1777));
#42=IFCPOLYLOOP((#1759,#1757,#1779,#1780));
#43=IFCPOLYLOOP((#1757,#1755,#1781,#1779));
#44=IFCPOLYLOOP((#1755,#1753,#1782,#1781));
#45=IFCPOLYLOOP((#1753,#1751,#1783,#1782));
#46=IFCPOLYLOOP((#1751,#1747,#1784,#1783));
#47=IFCPOLYLOOP((#1747,#1750,#1785,#1784));
#48=IFCPOLYLOOP((#1750,#1777,#1786,#1785));
#49=IFCPOLYLOOP((#1775,#1773,#1787,#1788));
#50=IFCPOLYLOOP((#1788,#1786,#1777,#1775));
#51=IFCPOLYLOOP((#1773,#1771,#1789,#1787));
#52=IFCPOLYLOOP((#1769,#1767,#1790,#1791));
#53=IFCPOLYLOOP((#1791,#1789,#1771,#1769));
#54=IFCPOLYLOOP((#1780,#1792,#1761,#1759));
#55=IFCPOLYLOOP((#1767,#1765,#1793,#1790));
#56=IFCPOLYLOOP((#1765,#1763,#1794,#1793));
#57=IFCPOLYLOOP((#1792,#1794,#1763,#1761));
#58=IFCPOLYLOOP((#1795,#1784,#1785,#1796));
#59=IFCPOLYLOOP((#1797,#1783,#1784,#1795));
#60=IFCPOLYLOOP((#1798,#1782,#1783,#1797));
#61=IFCPOLYLOOP((#1799,#1781,#1782,#1798));
#62=IFCPOLYLOOP((#1800,#1779,#1781,#1799));
#63=IFCPOLYLOOP((#1801,#1780,#1779,#1800));
#64=IFCPOLYLOOP((#1802,#1792,#1780,#1801));
#65=IFCPOLYLOOP((#1803,#1794,#1792,#1802));
#66=IFCPOLYLOOP((#1804,#1793,#1794,#1803));
#67=IFCPOLYLOOP((#1805,#1790,#1793,#1804));
#68=IFCPOLYLOOP((#1806,#1791,#1790,#1805));
#69=IFCPOLYLOOP((#1807,#1789,#1791,#1806));
#70=IFCPOLYLOOP((#1808,#1787,#1789,#1807));
#71=IFCPOLYLOOP((#1809,#1788,#1787,#1808));
#72=IFCPOLYLOOP((#1810,#1786,#1788,#1809));
#73=IFCPOLYLOOP((#1796,#1785,#1786,#1810));
#74=IFCPOLYLOOP((#1811,#1812,#1797,#1795));
#75=IFCPOLYLOOP((#1812,#1813,#1798,#1797));
#76=IFCPOLYLOOP((#1813,#1814,#1799,#1798));
#77=IFCPOLYLOOP((#1814,#1815,#1800,#1799));
#78=IFCPOLYLOOP((#1816,#1817,#1803,#1802));
#79=IFCPOLYLOOP((#1815,#1818,#1801,#1800));
#80=IFCPOLYLOOP((#1817,#1819,#1804,#1803));
#81=IFCPOLYLOOP((#1802,#1801,#1818,#1816));
#82=IFCPOLYLOOP((#1819,#1820,#1805,#1804));
#83=IFCPOLYLOOP((#1820,#1821,#1806,#1805));
#84=IFCPOLYLOOP((#1821,#1822,#1807,#1806));
#85=IFCPOLYLOOP((#1822,#1823,#1808,#1807));
#86=IFCPOLYLOOP((#1823,#1824,#1809,#1808));
#87=IFCPOLYLOOP((#1824,#1825,#1810,#1809));
#88=IFCPOLYLOOP((#1825,#1826,#1796,#1810));
#89=IFCPOLYLOOP((#1795,#1796,#1826,#1811));
#90=IFCPOLYLOOP((#1827,#1811,#1826,#1828));
#91=IFCPOLYLOOP((#1829,#1812,#1811,#1827));
#92=IFCPOLYLOOP((#1830,#1813,#1812,#1829));
#93=IFCPOLYLOOP((#1831,#1814,#1813,#1830));
#94=IFCPOLYLOOP((#1832,#1815,#1814,#1831));
#95=IFCPOLYLOOP((#1833,#1818,#1815,#1832));
#96=IFCPOLYLOOP((#1834,#1816,#1818,#1833));
#97=IFCPOLYLOOP((#1835,#1817,#1816,#1834));
#98=IFCPOLYLOOP((#1836,#1819,#1817,#1835));
#99=IFCPOLYLOOP((#1837,#1820,#1819,#1836));
#100=IFCPOLYLOOP((#1838,#1821,#1820,#1837));
#101=IFCPOLYLOOP((#1839,#1822,#1821,#1838));
#102=IFCPOLYLOOP((#1840,#1823,#1822,#1839));
#103=IFCPOLYLOOP((#1841,#1824,#1823,#1840));
#104=IFCPOLYLOOP((#1842,#1825,#1824,#1841));
#105=IFCPOLYLOOP((#1828,#1826,#1825,#1842));
#106=IFCPOLYLOOP((#1843,#1844,#1845));
#107=IFCPOLYLOOP((#1843,#1846,#1847,#1848,#1849,#1850,#1851,#1852));
#108=IFCPOLYLOOP((#1853,#1854,#1855));
#109=IFCPOLYLOOP((#1853,#1856,#1857));
#110=IFCPOLYLOOP((#1843,#1858,#1844));
#111=IFCPOLYLOOP((#1843,#1859,#1846));
#112=IFCPOLYLOOP((#1843,#1860,#1861,#1862));
#113=IFCPOLYLOOP((#1853,#1863,#1864));
#114=IFCPOLYLOOP((#1855,#1865,#1866,#1867,#1868,#1869,#1870,#1853));
#115=IFCPOLYLOOP((#1857,#1871,#1853));
#116=IFCPOLYLOOP((#1872,#1843,#1873));
#117=IFCPOLYLOOP((#1852,#1858,#1843));
#118=IFCPOLYLOOP((#1860,#1874,#1861));
#119=IFCPOLYLOOP((#1864,#1875,#1876,#1853));
#120=IFCPOLYLOOP((#1871,#1854,#1853));
#121=IFCPOLYLOOP((#1843,#1877,#1873));
#122=IFCPOLYLOOP((#1862,#1859,#1843));
#123=IFCPOLYLOOP((#1870,#1863,#1853));
#124=IFCPOLYLOOP((#1878,#1879,#1880));
#125=IFCPOLYLOOP((#1845,#1877,#1843));
#126=IFCPOLYLOOP((#1853,#1881,#1856));
#127=IFCPOLYLOOP((#1878,#1882,#1883,#1879));
#128=IFCPOLYLOOP((#1884,#1885,#1886));
#129=IFCPOLYLOOP((#1887,#1888,#1889,#1890));
#130=IFCPOLYLOOP((#1888,#1891,#1892,#1893,#1894,#1895,#1896,#1897));
#131=IFCPOLYLOOP((#1860,#1898,#1899,#1874));
#132=IFCPOLYLOOP((#1875,#1900,#1876));
#133=IFCPOLYLOOP((#1878,#1901,#1881));
#134=IFCPOLYLOOP((#1880,#1902,#1878));
#135=IFCPOLYLOOP((#1886,#1903,#1904,#1905,#1906,#1907,#1908,#1884));
#136=IFCPOLYLOOP((#1888,#1909,#1889));
#137=IFCPOLYLOOP((#1888,#1910,#1891));
#138=IFCPOLYLOOP((#1888,#1911,#1912));
#139=IFCPOLYLOOP((#1754,#1913,#1914,#1915));
#140=IFCPOLYLOOP((#1900,#1899,#1898,#1876));
#141=IFCPOLYLOOP((#1902,#1901,#1878));
#142=IFCPOLYLOOP((#1916,#1917,#1918,#1919,#1920,#1921,#1922,#1923,#1924,
#1925,#1926));
#143=IFCPOLYLOOP((#1927,#1928,#1929));
#144=IFCPOLYLOOP((#1884,#1930,#1885));
#145=IFCPOLYLOOP((#1931,#1932,#1933,#1934,#1935,#1936,#1937,#1938,#1939,
#1940,#1941));
#146=IFCPOLYLOOP((#1897,#1909,#1888));
#147=IFCPOLYLOOP((#1888,#1942,#1911));
#148=IFCPOLYLOOP((#1943,#1944,#1945,#1946));
#149=IFCPOLYLOOP((#1913,#1947,#1914));
#150=IFCPOLYLOOP((#1948,#1949,#1950,#1883,#1882,#1951));
#151=IFCPOLYLOOP((#1881,#1853,#1878));
#152=IFCPOLYLOOP((#1927,#1952,#1953));
#153=IFCPOLYLOOP((#1927,#1954,#1928));
#154=IFCPOLYLOOP((#1884,#1955,#1956));
#155=IFCPOLYLOOP((#1884,#1957,#1958,#1930));
#156=IFCPOLYLOOP((#1959,#1960,#1961));
#157=IFCPOLYLOOP((#1912,#1910,#1888));
#158=IFCPOLYLOOP((#1946,#1962,#1943));
#159=IFCPOLYLOOP((#1915,#1963,#1754));
#160=IFCPOLYLOOP((#1873,#1927,#1872));
#161=IFCPOLYLOOP((#1929,#1952,#1927));
#162=IFCPOLYLOOP((#1964,#1774,#1965,#1966));
#163=IFCPOLYLOOP((#1956,#1967,#1884));
#164=IFCPOLYLOOP((#1957,#1968,#1958));
#165=IFCPOLYLOOP((#1959,#1969,#1960));
#166=IFCPOLYLOOP((#1890,#1970,#1887));
#167=IFCPOLYLOOP((#1943,#1971,#1972));
#168=IFCPOLYLOOP((#1962,#1973,#1943));
#169=IFCPOLYLOOP((#1776,#1974,#1975));
#170=IFCPOLYLOOP((#1913,#1976,#1947));
#171=IFCPOLYLOOP((#1951,#1977,#1978,#1979,#1980,#1981,#1982,#1983,#1984,
#1985,#1948));
#172=IFCPOLYLOOP((#1927,#1873,#1954));
#173=IFCPOLYLOOP((#1964,#1986,#1987));
#174=IFCPOLYLOOP((#1774,#1988,#1965));
#175=IFCPOLYLOOP((#1989,#1884,#1990));
#176=IFCPOLYLOOP((#1908,#1955,#1884));
#177=IFCPOLYLOOP((#1959,#1991,#1969));
#178=IFCPOLYLOOP((#1888,#1972,#1942));
#179=IFCPOLYLOOP((#1973,#1971,#1943));
#180=IFCPOLYLOOP((#1975,#1992,#1776));
#181=IFCPOLYLOOP((#1913,#1993,#1976));
#182=IFCPOLYLOOP((#1926,#1927,#1953,#1994,#1995,#1916));
#183=IFCPOLYLOOP((#1964,#1996,#1986));
#184=IFCPOLYLOOP((#1774,#1776,#1988));
#185=IFCPOLYLOOP((#1884,#1997,#1990));
#186=IFCPOLYLOOP((#1957,#1998,#1999,#1968));
#187=IFCPOLYLOOP((#1959,#2000,#1991));
#188=IFCPOLYLOOP((#1760,#2001,#2002));
#189=IFCPOLYLOOP((#2003,#2001,#1760,#1762));
#190=IFCPOLYLOOP((#2004,#2005,#2006,#1945,#1944,#2007));
#191=IFCPOLYLOOP((#1972,#1888,#1943));
#192=IFCPOLYLOOP((#2008,#2009,#2010));
#193=IFCPOLYLOOP((#1758,#2011,#2012));
#194=IFCPOLYLOOP((#1992,#2013,#1776));
#195=IFCPOLYLOOP((#2014,#1974,#1776,#1778));
#196=IFCPOLYLOOP((#1872,#1993,#1913,#2015,#1843));
#197=IFCPOLYLOOP((#1966,#1996,#1964));
#198=IFCPOLYLOOP((#1752,#2016,#2017));
#199=IFCPOLYLOOP((#1752,#1963,#2018));
#200=IFCPOLYLOOP((#2019,#2020,#2021));
#201=IFCPOLYLOOP((#2019,#2022,#2023));
#202=IFCPOLYLOOP((#1967,#1997,#1884));
#203=IFCPOLYLOOP((#1959,#1990,#2000));
#204=IFCPOLYLOOP((#1760,#2024,#2025));
#205=IFCPOLYLOOP((#1762,#2026,#2027,#2003));
#206=IFCPOLYLOOP((#1970,#1999,#1998,#1887));
#207=IFCPOLYLOOP((#2010,#2028,#2008));
#208=IFCPOLYLOOP((#2012,#2029,#2008,#1758));
#209=IFCPOLYLOOP((#1778,#2030,#2031,#2014));
#210=IFCPOLYLOOP((#1987,#1878,#1853,#2032,#1964));
#211=IFCPOLYLOOP((#2018,#2016,#1752));
#212=IFCPOLYLOOP((#2021,#2033,#1770,#2019));
#213=IFCPOLYLOOP((#2019,#2034,#1884,#1989,#2022));
#214=IFCPOLYLOOP((#1941,#1959,#1961,#2035,#2036,#1931));
#215=IFCPOLYLOOP((#2026,#1762,#1764));
#216=IFCPOLYLOOP((#2002,#2024,#1760));
#217=IFCPOLYLOOP((#2028,#1943,#1888,#2037,#2008));
#218=IFCPOLYLOOP((#1758,#1760,#2011));
#219=IFCPOLYLOOP((#1748,#2017,#2038));
#220=IFCPOLYLOOP((#2013,#1988,#1776));
#221=IFCPOLYLOOP((#2017,#1748,#1752));
#222=IFCPOLYLOOP((#2033,#2039,#1770));
#223=IFCPOLYLOOP((#1990,#1959,#1989));
#224=IFCPOLYLOOP((#2025,#2011,#1760));
#225=IFCPOLYLOOP((#2029,#2009,#2008));
#226=IFCPOLYLOOP((#1913,#1754,#1756));
#227=IFCPOLYLOOP((#1778,#1749,#2030));
#228=IFCPOLYLOOP((#1964,#1772,#1774));
#229=IFCPOLYLOOP((#2019,#1770,#1772));
#230=IFCPOLYLOOP((#2023,#2020,#2019));
#231=IFCPOLYLOOP((#2007,#2040,#2041,#2042,#2043,#2044,#2045,#2046,#2047,
#2048,#2004));
#232=IFCPOLYLOOP((#1756,#2008,#1913));
#233=IFCPOLYLOOP((#1963,#1752,#1754));
#234=IFCPOLYLOOP((#2039,#1768,#1770));
#235=IFCPOLYLOOP((#1768,#2049,#2050));
#236=IFCPOLYLOOP((#1768,#2039,#2051));
#237=IFCPOLYLOOP((#1756,#1758,#2008));
#238=IFCPOLYLOOP((#1772,#1964,#2019));
#239=IFCPOLYLOOP((#2051,#2049,#1768));
#240=IFCPOLYLOOP((#1766,#2050,#2052));
#241=IFCPOLYLOOP((#2038,#2053,#2030,#1749,#1748));
#242=IFCPOLYLOOP((#2052,#1764,#1766));
#243=IFCPOLYLOOP((#2050,#1766,#1768));
#244=IFCPOLYLOOP((#1764,#2052,#2054,#2026));
#245=IFCPOLYLOOP((#2055,#2056,#2057,#2058,#2059,#2060,#2061,#2062));
#246=IFCPOLYLOOP((#2055,#2063,#2056));
#247=IFCPOLYLOOP((#2064,#2065,#2066));
#248=IFCPOLYLOOP((#2067,#2068,#2069));
#249=IFCPOLYLOOP((#2062,#2070,#2055));
#250=IFCPOLYLOOP((#2064,#2071,#2072));
#251=IFCPOLYLOOP((#2066,#2073,#2074,#2075,#2076,#2077,#2078,#2064));
#252=IFCPOLYLOOP((#2069,#2079,#2064,#2067));
#253=IFCPOLYLOOP((#2070,#2080,#2055));
#254=IFCPOLYLOOP((#2055,#2081,#2082));
#255=IFCPOLYLOOP((#2072,#2083,#2064));
#256=IFCPOLYLOOP((#2079,#2065,#2064));
#257=IFCPOLYLOOP((#2080,#2084,#2085,#2055));
#258=IFCPOLYLOOP((#2055,#2086,#2081));
#259=IFCPOLYLOOP((#2087,#2088,#2089));
#260=IFCPOLYLOOP((#2087,#2090,#2091));
#261=IFCPOLYLOOP((#2092,#2064,#2093));
#262=IFCPOLYLOOP((#2078,#2071,#2064));
#263=IFCPOLYLOOP((#2082,#2063,#2055));
#264=IFCPOLYLOOP((#2094,#2095,#2096,#2097));
#265=IFCPOLYLOOP((#2098,#2099,#2100,#2101,#2102,#2103,#2104,#2105,#2106,
#2107,#2108));
#266=IFCPOLYLOOP((#2087,#2109,#2110));
#267=IFCPOLYLOOP((#2089,#2111,#2112,#2113,#2114,#2115,#2116,#2087));
#268=IFCPOLYLOOP((#2091,#2117,#2087));
#269=IFCPOLYLOOP((#2064,#2118,#2093));
#270=IFCPOLYLOOP((#2067,#2119,#2120,#2068));
#271=IFCPOLYLOOP((#2084,#2121,#2085));
#272=IFCPOLYLOOP((#2097,#2122,#2094));
#273=IFCPOLYLOOP((#2123,#2124,#2125));
#274=IFCPOLYLOOP((#2110,#2126,#2127,#2087));
#275=IFCPOLYLOOP((#2117,#2088,#2087));
#276=IFCPOLYLOOP((#2128,#2129,#2130));
#277=IFCPOLYLOOP((#2083,#2118,#2064));
#278=IFCPOLYLOOP((#2055,#2131,#2086));
#279=IFCPOLYLOOP((#2094,#2132,#2131));
#280=IFCPOLYLOOP((#2122,#2133,#2094));
#281=IFCPOLYLOOP((#2123,#2134,#2124));
#282=IFCPOLYLOOP((#2116,#2109,#2087));
#283=IFCPOLYLOOP((#2128,#2135,#2136,#2129));
#284=IFCPOLYLOOP((#2121,#2120,#2119,#2085));
#285=IFCPOLYLOOP((#2133,#2132,#2094));
#286=IFCPOLYLOOP((#2123,#2137,#2134));
#287=IFCPOLYLOOP((#2138,#2139,#2140));
#288=IFCPOLYLOOP((#2138,#2141,#2142,#2143,#2144,#2145,#2146,#2147));
#289=IFCPOLYLOOP((#2087,#2148,#2090));
#290=IFCPOLYLOOP((#2128,#2149,#2148));
#291=IFCPOLYLOOP((#2130,#2150,#2128));
#292=IFCPOLYLOOP((#2151,#2152,#2153,#2096,#2095,#2154));
#293=IFCPOLYLOOP((#2131,#2055,#2094));
#294=IFCPOLYLOOP((#2123,#2155,#2137));
#295=IFCPOLYLOOP((#2138,#2156,#2139));
#296=IFCPOLYLOOP((#2138,#2157,#2141));
#297=IFCPOLYLOOP((#2138,#2158,#2159,#2160));
#298=IFCPOLYLOOP((#2126,#2161,#2127));
#299=IFCPOLYLOOP((#2150,#2149,#2128));
#300=IFCPOLYLOOP((#2162,#2163,#2164));
#301=IFCPOLYLOOP((#2093,#2123,#2092));
#302=IFCPOLYLOOP((#2123,#2093,#2155));
#303=IFCPOLYLOOP((#2165,#2138,#2166));
#304=IFCPOLYLOOP((#2147,#2156,#2138));
#305=IFCPOLYLOOP((#2158,#2167,#2159));
#306=IFCPOLYLOOP((#2168,#2169,#2170,#2171,#2172,#2173,#2174,#2175,#2176,
#2177,#2178));
#307=IFCPOLYLOOP((#2179,#2180,#2181));
#308=IFCPOLYLOOP((#2148,#2087,#2128));
#309=IFCPOLYLOOP((#2182,#1830,#2183,#2184));
#310=IFCPOLYLOOP((#1832,#2162,#2185,#2186));
#311=IFCPOLYLOOP((#2162,#2187,#2064,#2092,#2163));
#312=IFCPOLYLOOP((#2108,#2123,#2125,#2188,#2189,#2098));
#313=IFCPOLYLOOP((#2190,#2191,#2192));
#314=IFCPOLYLOOP((#1840,#2193,#2194,#2195));
#315=IFCPOLYLOOP((#2138,#2196,#2166));
#316=IFCPOLYLOOP((#2160,#2157,#2138));
#317=IFCPOLYLOOP((#2179,#2197,#2198));
#318=IFCPOLYLOOP((#2179,#2199,#2180));
#319=IFCPOLYLOOP((#2200,#2201,#2202,#2136,#2135,#2203));
#320=IFCPOLYLOOP((#2087,#2204,#2182,#2205,#2128));
#321=IFCPOLYLOOP((#1830,#2206,#2183));
#322=IFCPOLYLOOP((#2162,#2207,#2185));
#323=IFCPOLYLOOP((#2154,#2208,#2209,#2210,#2211,#2212,#2213,#2214,#2215,
#2216,#2151));
#324=IFCPOLYLOOP((#2190,#2217,#2191));
#325=IFCPOLYLOOP((#2190,#1838,#2218,#2219));
#326=IFCPOLYLOOP((#2193,#2220,#2194));
#327=IFCPOLYLOOP((#2193,#2221,#2138,#2165,#2222));
#328=IFCPOLYLOOP((#2140,#2196,#2138));
#329=IFCPOLYLOOP((#2181,#2197,#2179));
#330=IFCPOLYLOOP((#1829,#2223,#2224));
#331=IFCPOLYLOOP((#2161,#2225,#2226,#2127));
#332=IFCPOLYLOOP((#1830,#1829,#2206));
#333=IFCPOLYLOOP((#2186,#2227,#1832));
#334=IFCPOLYLOOP((#2192,#2094,#2055,#2228,#2190));
#335=IFCPOLYLOOP((#1838,#2229,#2218));
#336=IFCPOLYLOOP((#2195,#2230,#1840));
#337=IFCPOLYLOOP((#2222,#2231,#2193));
#338=IFCPOLYLOOP((#2158,#2226,#2225,#2167));
#339=IFCPOLYLOOP((#2179,#2166,#2199));
#340=IFCPOLYLOOP((#1829,#2232,#2223));
#341=IFCPOLYLOOP((#1829,#1827,#2233,#2234));
#342=IFCPOLYLOOP((#2182,#2235,#2205));
#343=IFCPOLYLOOP((#2184,#2236,#2182));
#344=IFCPOLYLOOP((#2164,#2207,#2162));
#345=IFCPOLYLOOP((#1838,#1837,#2229));
#346=IFCPOLYLOOP((#2231,#2220,#2193));
#347=IFCPOLYLOOP((#2178,#2179,#2198,#2237,#2238,#2168));
#348=IFCPOLYLOOP((#1841,#2239,#2240));
#349=IFCPOLYLOOP((#2234,#2232,#1829));
#350=IFCPOLYLOOP((#2236,#2235,#2182));
#351=IFCPOLYLOOP((#2219,#2217,#2190));
#352=IFCPOLYLOOP((#2190,#2193,#1839));
#353=IFCPOLYLOOP((#2166,#2179,#2165));
#354=IFCPOLYLOOP((#1841,#2241,#2239));
#355=IFCPOLYLOOP((#1837,#2242,#2243));
#356=IFCPOLYLOOP((#1837,#2244,#2245));
#357=IFCPOLYLOOP((#2246,#2233,#1827,#1828));
#358=IFCPOLYLOOP((#2203,#2247,#2248,#2249,#2250,#2251,#2252,#2253,#2254,
#2255,#2200));
#359=IFCPOLYLOOP((#2162,#1832,#1831));
#360=IFCPOLYLOOP((#1839,#1838,#2190));
#361=IFCPOLYLOOP((#2230,#1841,#1840));
#362=IFCPOLYLOOP((#1841,#2230,#2241));
#363=IFCPOLYLOOP((#1842,#2240,#2256));
#364=IFCPOLYLOOP((#2245,#2242,#1837));
#365=IFCPOLYLOOP((#2224,#2206,#1829));
#366=IFCPOLYLOOP((#1831,#2182,#2162));
#367=IFCPOLYLOOP((#1840,#1839,#2193));
#368=IFCPOLYLOOP((#2256,#1828,#1842));
#369=IFCPOLYLOOP((#1837,#1836,#2257,#2258,#2244));
#370=IFCPOLYLOOP((#1831,#1830,#2182));
#371=IFCPOLYLOOP((#2240,#1842,#1841));
#372=IFCPOLYLOOP((#1833,#2259,#2260));
#373=IFCPOLYLOOP((#1833,#2227,#2261));
#374=IFCPOLYLOOP((#1834,#2260,#2262));
#375=IFCPOLYLOOP((#2243,#2229,#1837));
#376=IFCPOLYLOOP((#2227,#1833,#1832));
#377=IFCPOLYLOOP((#2261,#2259,#1833));
#378=IFCPOLYLOOP((#1836,#1835,#2257));
#379=IFCPOLYLOOP((#2260,#1834,#1833));
#380=IFCPOLYLOOP((#1828,#2256,#2263,#2264,#2246));
#381=IFCPOLYLOOP((#2262,#2265,#2266,#2257,#1835,#1834));
#382=IFCPOLYLOOP((#2124,#1946,#1945,#2125));
#383=IFCPOLYLOOP((#2134,#1962,#1946,#2124));
#384=IFCPOLYLOOP((#2137,#1973,#1962,#2134));
#385=IFCPOLYLOOP((#2155,#1971,#1973,#2137));
#386=IFCPOLYLOOP((#2065,#1909,#1897,#2066));
#387=IFCPOLYLOOP((#2079,#1889,#1909,#2065));
#388=IFCPOLYLOOP((#2069,#1890,#1889,#2079));
#389=IFCPOLYLOOP((#2068,#1970,#1890,#2069));
#390=IFCPOLYLOOP((#2084,#1958,#1968,#2121));
#391=IFCPOLYLOOP((#2080,#1930,#1958,#2084));
#392=IFCPOLYLOOP((#2070,#1885,#1930,#2080));
#393=IFCPOLYLOOP((#2062,#1886,#1885,#2070));
#394=IFCPOLYLOOP((#2063,#1955,#1908,#2056));
#395=IFCPOLYLOOP((#2082,#1956,#1955,#2063));
#396=IFCPOLYLOOP((#2081,#1967,#1956,#2082));
#397=IFCPOLYLOOP((#2086,#1997,#1967,#2081));
#398=IFCPOLYLOOP((#2133,#1991,#2000,#2132));
#399=IFCPOLYLOOP((#2122,#1969,#1991,#2133));
#400=IFCPOLYLOOP((#2097,#1960,#1969,#2122));
#401=IFCPOLYLOOP((#2096,#1961,#1960,#2097));
#402=IFCPOLYLOOP((#2140,#1857,#1856,#2196));
#403=IFCPOLYLOOP((#2139,#1871,#1857,#2140));
#404=IFCPOLYLOOP((#2156,#1854,#1871,#2139));
#405=IFCPOLYLOOP((#2147,#1855,#1854,#2156));
#406=IFCPOLYLOOP((#2157,#1863,#1870,#2141));
#407=IFCPOLYLOOP((#2160,#1864,#1863,#2157));
#408=IFCPOLYLOOP((#2159,#1875,#1864,#2160));
#409=IFCPOLYLOOP((#2167,#1900,#1875,#2159));
#410=IFCPOLYLOOP((#2126,#1861,#1874,#2161));
#411=IFCPOLYLOOP((#2110,#1862,#1861,#2126));
#412=IFCPOLYLOOP((#2109,#1859,#1862,#2110));
#413=IFCPOLYLOOP((#2116,#1846,#1859,#2109));
#414=IFCPOLYLOOP((#2088,#1858,#1852,#2089));
#415=IFCPOLYLOOP((#2117,#1844,#1858,#2088));
#416=IFCPOLYLOOP((#2091,#1845,#1844,#2117));
#417=IFCPOLYLOOP((#2090,#1877,#1845,#2091));
#418=IFCPOLYLOOP((#2197,#1879,#1883,#2198));
#419=IFCPOLYLOOP((#2181,#1880,#1879,#2197));
#420=IFCPOLYLOOP((#2180,#1902,#1880,#2181));
#421=IFCPOLYLOOP((#2199,#1901,#1902,#2180));
#422=IFCPOLYLOOP((#2150,#1928,#1954,#2149));
#423=IFCPOLYLOOP((#2130,#1929,#1928,#2150));
#424=IFCPOLYLOOP((#2129,#1952,#1929,#2130));
#425=IFCPOLYLOOP((#2136,#1953,#1952,#2129));
#426=IFCPOLYLOOP((#2083,#1911,#1942,#2118));
#427=IFCPOLYLOOP((#2072,#1912,#1911,#2083));
#428=IFCPOLYLOOP((#2071,#1910,#1912,#2072));
#429=IFCPOLYLOOP((#2078,#1891,#1910,#2071));
#430=IFCPOLYLOOP((#2262,#2001,#2003,#2265));
#431=IFCPOLYLOOP((#2260,#2002,#2001,#2262));
#432=IFCPOLYLOOP((#2259,#2024,#2002,#2260));
#433=IFCPOLYLOOP((#2261,#2025,#2024,#2259));
#434=IFCPOLYLOOP((#2227,#2011,#2025,#2261));
#435=IFCPOLYLOOP((#2186,#2012,#2011,#2227));
#436=IFCPOLYLOOP((#2135,#1927,#1926,#2203));
#437=IFCPOLYLOOP((#2128,#1872,#1927,#2135));
#438=IFCPOLYLOOP((#2205,#1993,#1872,#2128));
#439=IFCPOLYLOOP((#2235,#1976,#1993,#2205));
#440=IFCPOLYLOOP((#2236,#1947,#1976,#2235));
#441=IFCPOLYLOOP((#2184,#1914,#1947,#2236));
#442=IFCPOLYLOOP((#2099,#2048,#2047,#2100));
#443=IFCPOLYLOOP((#2098,#2004,#2048,#2099));
#444=IFCPOLYLOOP((#2189,#2005,#2004,#2098));
#445=IFCPOLYLOOP((#2188,#2006,#2005,#2189));
#446=IFCPOLYLOOP((#2076,#1893,#1892,#2077));
#447=IFCPOLYLOOP((#2075,#1894,#1893,#2076));
#448=IFCPOLYLOOP((#2074,#1895,#1894,#2075));
#449=IFCPOLYLOOP((#2073,#1896,#1895,#2074));
#450=IFCPOLYLOOP((#2060,#1904,#1903,#2061));
#451=IFCPOLYLOOP((#2059,#1905,#1904,#2060));
#452=IFCPOLYLOOP((#2058,#1906,#1905,#2059));
#453=IFCPOLYLOOP((#2057,#1907,#1906,#2058));
#454=IFCPOLYLOOP((#2152,#2036,#2035,#2153));
#455=IFCPOLYLOOP((#2151,#1931,#2036,#2152));
#456=IFCPOLYLOOP((#2216,#1932,#1931,#2151));
#457=IFCPOLYLOOP((#2215,#1933,#1932,#2216));
#458=IFCPOLYLOOP((#2213,#1935,#1934,#2214));
#459=IFCPOLYLOOP((#2212,#1936,#1935,#2213));
#460=IFCPOLYLOOP((#2211,#1937,#1936,#2212));
#461=IFCPOLYLOOP((#2210,#1938,#1937,#2211));
#462=IFCPOLYLOOP((#2209,#1939,#1938,#2210));
#463=IFCPOLYLOOP((#2208,#1940,#1939,#2209));
#464=IFCPOLYLOOP((#2106,#2041,#2040,#2107));
#465=IFCPOLYLOOP((#2105,#2042,#2041,#2106));
#466=IFCPOLYLOOP((#2104,#2043,#2042,#2105));
#467=IFCPOLYLOOP((#2103,#2044,#2043,#2104));
#468=IFCPOLYLOOP((#2102,#2045,#2044,#2103));
#469=IFCPOLYLOOP((#2101,#2046,#2045,#2102));
#470=IFCPOLYLOOP((#2229,#2039,#2033,#2218));
#471=IFCPOLYLOOP((#2243,#2051,#2039,#2229));
#472=IFCPOLYLOOP((#2242,#2049,#2051,#2243));
#473=IFCPOLYLOOP((#2245,#2050,#2049,#2242));
#474=IFCPOLYLOOP((#2244,#2052,#2050,#2245));
#475=IFCPOLYLOOP((#2258,#2054,#2052,#2244));
#476=IFCPOLYLOOP((#2095,#1959,#1941,#2154));
#477=IFCPOLYLOOP((#2094,#1989,#1959,#2095));
#478=IFCPOLYLOOP((#2192,#2022,#1989,#2094));
#479=IFCPOLYLOOP((#2191,#2023,#2022,#2192));
#480=IFCPOLYLOOP((#2217,#2020,#2023,#2191));
#481=IFCPOLYLOOP((#2219,#2021,#2020,#2217));
#482=IFCPOLYLOOP((#2169,#1985,#1984,#2170));
#483=IFCPOLYLOOP((#2168,#1948,#1985,#2169));
#484=IFCPOLYLOOP((#2238,#1949,#1948,#2168));
#485=IFCPOLYLOOP((#2237,#1950,#1949,#2238));
#486=IFCPOLYLOOP((#2201,#1995,#1994,#2202));
#487=IFCPOLYLOOP((#2200,#1916,#1995,#2201));
#488=IFCPOLYLOOP((#2255,#1917,#1916,#2200));
#489=IFCPOLYLOOP((#2254,#1918,#1917,#2255));
#490=IFCPOLYLOOP((#2114,#1848,#1847,#2115));
#491=IFCPOLYLOOP((#2113,#1849,#1848,#2114));
#492=IFCPOLYLOOP((#2112,#1850,#1849,#2113));
#493=IFCPOLYLOOP((#2111,#1851,#1850,#2112));
#494=IFCPOLYLOOP((#2145,#1866,#1865,#2146));
#495=IFCPOLYLOOP((#2144,#1867,#1866,#2145));
#496=IFCPOLYLOOP((#2143,#1868,#1867,#2144));
#497=IFCPOLYLOOP((#2142,#1869,#1868,#2143));
#498=IFCPOLYLOOP((#2252,#1920,#1919,#2253));
#499=IFCPOLYLOOP((#2251,#1921,#1920,#2252));
#500=IFCPOLYLOOP((#2250,#1922,#1921,#2251));
#501=IFCPOLYLOOP((#2249,#1923,#1922,#2250));
#502=IFCPOLYLOOP((#2248,#1924,#1923,#2249));
#503=IFCPOLYLOOP((#2247,#1925,#1924,#2248));
#504=IFCPOLYLOOP((#2176,#1978,#1977,#2177));
#505=IFCPOLYLOOP((#2175,#1979,#1978,#2176));
#506=IFCPOLYLOOP((#2174,#1980,#1979,#2175));
#507=IFCPOLYLOOP((#2173,#1981,#1980,#2174));
#508=IFCPOLYLOOP((#2172,#1982,#1981,#2173));
#509=IFCPOLYLOOP((#2171,#1983,#1982,#2172));
#510=IFCPOLYLOOP((#2256,#1974,#2014,#2263));
#511=IFCPOLYLOOP((#2240,#1975,#1974,#2256));
#512=IFCPOLYLOOP((#2239,#1992,#1975,#2240));
#513=IFCPOLYLOOP((#2241,#2013,#1992,#2239));
#514=IFCPOLYLOOP((#2230,#1988,#2013,#2241));
#515=IFCPOLYLOOP((#2195,#1965,#1988,#2230));
#516=IFCPOLYLOOP((#2220,#1996,#1966,#2194));
#517=IFCPOLYLOOP((#2231,#1986,#1996,#2220));
#518=IFCPOLYLOOP((#2222,#1987,#1986,#2231));
#519=IFCPOLYLOOP((#2165,#1878,#1987,#2222));
#520=IFCPOLYLOOP((#2179,#1882,#1878,#2165));
#521=IFCPOLYLOOP((#2178,#1951,#1882,#2179));
#522=IFCPOLYLOOP((#2206,#1963,#1915,#2183));
#523=IFCPOLYLOOP((#2224,#2018,#1963,#2206));
#524=IFCPOLYLOOP((#2223,#2016,#2018,#2224));
#525=IFCPOLYLOOP((#2232,#2017,#2016,#2223));
#526=IFCPOLYLOOP((#2234,#2038,#2017,#2232));
#527=IFCPOLYLOOP((#2233,#2053,#2038,#2234));
#528=IFCPOLYLOOP((#2207,#2009,#2029,#2185));
#529=IFCPOLYLOOP((#2164,#2010,#2009,#2207));
#530=IFCPOLYLOOP((#2163,#2028,#2010,#2164));
#531=IFCPOLYLOOP((#2092,#1943,#2028,#2163));
#532=IFCPOLYLOOP((#2123,#1944,#1943,#2092));
#533=IFCPOLYLOOP((#2108,#2007,#1944,#2123));
#534=IFCPOLYLOOP((#1914,#2184,#2183,#1915));
#535=IFCPOLYLOOP((#2203,#1926,#1925,#2247));
#536=IFCPOLYLOOP((#1918,#2254,#2253,#1919));
#537=IFCPOLYLOOP((#1953,#2136,#2202,#1994));
#538=IFCPOLYLOOP((#2148,#1873,#1877,#2090));
#539=IFCPOLYLOOP((#2149,#1954,#1873,#2148));
#540=IFCPOLYLOOP((#2089,#1852,#1851,#2111));
#541=IFCPOLYLOOP((#1846,#2116,#2115,#1847));
#542=IFCPOLYLOOP((#2225,#1899,#1900,#2167));
#543=IFCPOLYLOOP((#2161,#1874,#1899,#2225));
#544=IFCPOLYLOOP((#2141,#1870,#1869,#2142));
#545=IFCPOLYLOOP((#1855,#2147,#2146,#1865));
#546=IFCPOLYLOOP((#2166,#1881,#1901,#2199));
#547=IFCPOLYLOOP((#2196,#1856,#1881,#2166));
#548=IFCPOLYLOOP((#2198,#1883,#1950,#2237));
#549=IFCPOLYLOOP((#2170,#1984,#1983,#2171));
#550=IFCPOLYLOOP((#2177,#1977,#1951,#2178));
#551=IFCPOLYLOOP((#1965,#2195,#2194,#1966));
#552=IFCPOLYLOOP((#2246,#2030,#2053,#2233));
#553=IFCPOLYLOOP((#2264,#2031,#2030,#2246));
#554=IFCPOLYLOOP((#2263,#2014,#2031,#2264));
#555=IFCPOLYLOOP((#2107,#2040,#2007,#2108));
#556=IFCPOLYLOOP((#2100,#2047,#2046,#2101));
#557=IFCPOLYLOOP((#2125,#1945,#2006,#2188));
#558=IFCPOLYLOOP((#2093,#1972,#1971,#2155));
#559=IFCPOLYLOOP((#2118,#1942,#1972,#2093));
#560=IFCPOLYLOOP((#1891,#2078,#2077,#1892));
#561=IFCPOLYLOOP((#2066,#1897,#1896,#2073));
#562=IFCPOLYLOOP((#2120,#1999,#1970,#2068));
#563=IFCPOLYLOOP((#2121,#1968,#1999,#2120));
#564=IFCPOLYLOOP((#1886,#2062,#2061,#1903));
#565=IFCPOLYLOOP((#2056,#1908,#1907,#2057));
#566=IFCPOLYLOOP((#2131,#1990,#1997,#2086));
#567=IFCPOLYLOOP((#2132,#2000,#1990,#2131));
#568=IFCPOLYLOOP((#1961,#2096,#2153,#2035));
#569=IFCPOLYLOOP((#1933,#2215,#2214,#1934));
#570=IFCPOLYLOOP((#2154,#1941,#1940,#2208));
#571=IFCPOLYLOOP((#2218,#2033,#2021,#2219));
#572=IFCPOLYLOOP((#2257,#2026,#2054,#2258));
#573=IFCPOLYLOOP((#2266,#2027,#2026,#2257));
#574=IFCPOLYLOOP((#2265,#2003,#2027,#2266));
#575=IFCPOLYLOOP((#2012,#2186,#2185,#2029));
#576=IFCPOLYLOOP((#2037,#2187,#2162,#2008));
#577=IFCPOLYLOOP((#1888,#2064,#2187,#2037));
#578=IFCPOLYLOOP((#1887,#2067,#2064,#1888));
#579=IFCPOLYLOOP((#1998,#2119,#2067,#1887));
#580=IFCPOLYLOOP((#1957,#2085,#2119,#1998));
#581=IFCPOLYLOOP((#1884,#2055,#2085,#1957));
#582=IFCPOLYLOOP((#2034,#2228,#2055,#1884));
#583=IFCPOLYLOOP((#2019,#2190,#2228,#2034));
#584=IFCPOLYLOOP((#1964,#2193,#2190,#2019));
#585=IFCPOLYLOOP((#2032,#2221,#2193,#1964));
#586=IFCPOLYLOOP((#1853,#2138,#2221,#2032));
#587=IFCPOLYLOOP((#1876,#2158,#2138,#1853));
#588=IFCPOLYLOOP((#1898,#2226,#2158,#1876));
#589=IFCPOLYLOOP((#1860,#2127,#2226,#1898));
#590=IFCPOLYLOOP((#1843,#2087,#2127,#1860));
#591=IFCPOLYLOOP((#2015,#2204,#2087,#1843));
#592=IFCPOLYLOOP((#1913,#2182,#2204,#2015));
#593=IFCPOLYLOOP((#2008,#2162,#2182,#1913));
#594=IFCFACEOUTERBOUND(#26,.T.);
#595=IFCFACEOUTERBOUND(#27,.T.);
#596=IFCFACEOUTERBOUND(#28,.T.);
#597=IFCFACEOUTERBOUND(#29,.T.);
#598=IFCFACEOUTERBOUND(#30,.T.);
#599=IFCFACEOUTERBOUND(#31,.T.);
#600=IFCFACEOUTERBOUND(#32,.T.);
#601=IFCFACEOUTERBOUND(#33,.T.);
#602=IFCFACEOUTERBOUND(#34,.T.);
#603=IFCFACEOUTERBOUND(#35,.T.);
#604=IFCFACEOUTERBOUND(#36,.T.);
#605=IFCFACEOUTERBOUND(#37,.T.);
#606=IFCFACEOUTERBOUND(#38,.T.);
#607=IFCFACEOUTERBOUND(#39,.T.);
#608=IFCFACEOUTERBOUND(#40,.T.);
#609=IFCFACEOUTERBOUND(#41,.T.);
#610=IFCFACEOUTERBOUND(#42,.T.);
#611=IFCFACEOUTERBOUND(#43,.T.);
#612=IFCFACEOUTERBOUND(#44,.T.);
#613=IFCFACEOUTERBOUND(#45,.T.);
#614=IFCFACEOUTERBOUND(#46,.T.);
#615=IFCFACEOUTERBOUND(#47,.T.);
#616=IFCFACEOUTERBOUND(#48,.T.);
#617=IFCFACEOUTERBOUND(#49,.T.);
#618=IFCFACEOUTERBOUND(#50,.T.);
#619=IFCFACEOUTERBOUND(#51,.T.);
#620=IFCFACEOUTERBOUND(#52,.T.);
#621=IFCFACEOUTERBOUND(#53,.T.);
#622=IFCFACEOUTERBOUND(#54,.T.);
#623=IFCFACEOUTERBOUND(#55,.T.);
#624=IFCFACEOUTERBOUND(#56,.T.);
#625=IFCFACEOUTERBOUND(#57,.T.);
#626=IFCFACEOUTERBOUND(#58,.T.);
#627=IFCFACEOUTERBOUND(#59,.T.);
#628=IFCFACEOUTERBOUND(#60,.T.);
#629=IFCFACEOUTERBOUND(#61,.T.);
#630=IFCFACEOUTERBOUND(#62,.T.);
#631=IFCFACEOUTERBOUND(#63,.T.);
#632=IFCFACEOUTERBOUND(#64,.T.);
#633=IFCFACEOUTERBOUND(#65,.T.);
#634=IFCFACEOUTERBOUND(#66,.T.);
#635=IFCFACEOUTERBOUND(#67,.T.);
#636=IFCFACEOUTERBOUND(#68,.T.);
#637=IFCFACEOUTERBOUND(#69,.T.);
#638=IFCFACEOUTERBOUND(#70,.T.);
#639=IFCFACEOUTERBOUND(#71,.T.);
#640=IFCFACEOUTERBOUND(#72,.T.);
#641=IFCFACEOUTERBOUND(#73,.T.);
#642=IFCFACEOUTERBOUND(#74,.T.);
#643=IFCFACEOUTERBOUND(#75,.T.);
#644=IFCFACEOUTERBOUND(#76,.T.);
#645=IFCFACEOUTERBOUND(#77,.T.);
#646=IFCFACEOUTERBOUND(#78,.T.);
#647=IFCFACEOUTERBOUND(#79,.T.);
#648=IFCFACEOUTERBOUND(#80,.T.);
#649=IFCFACEOUTERBOUND(#81,.T.);
#650=IFCFACEOUTERBOUND(#82,.T.);
#651=IFCFACEOUTERBOUND(#83,.T.);
#652=IFCFACEOUTERBOUND(#84,.T.);
#653=IFCFACEOUTERBOUND(#85,.T.);
#654=IFCFACEOUTERBOUND(#86,.T.);
#655=IFCFACEOUTERBOUND(#87,.T.);
#656=IFCFACEOUTERBOUND(#88,.T.);
#657=IFCFACEOUTERBOUND(#89,.T.);
#658=IFCFACEOUTERBOUND(#90,.T.);
#659=IFCFACEOUTERBOUND(#91,.T.);
#660=IFCFACEOUTERBOUND(#92,.T.);
#661=IFCFACEOUTERBOUND(#93,.T.);
#662=IFCFACEOUTERBOUND(#94,.T.);
#663=IFCFACEOUTERBOUND(#95,.T.);
#664=IFCFACEOUTERBOUND(#96,.T.);
#665=IFCFACEOUTERBOUND(#97,.T.);
#666=IFCFACEOUTERBOUND(#98,.T.);
#667=IFCFACEOUTERBOUND(#99,.T.);
#668=IFCFACEOUTERBOUND(#100,.T.);
#669=IFCFACEOUTERBOUND(#101,.T.);
#670=IFCFACEOUTERBOUND(#102,.T.);
#671=IFCFACEOUTERBOUND(#103,.T.);
#672=IFCFACEOUTERBOUND(#104,.T.);
#673=IFCFACEOUTERBOUND(#105,.T.);
#674=IFCFACEOUTERBOUND(#106,.T.);
#675=IFCFACEOUTERBOUND(#107,.T.);
#676=IFCFACEOUTERBOUND(#108,.T.);
#677=IFCFACEOUTERBOUND(#109,.T.);
#678=IFCFACEOUTERBOUND(#110,.T.);
#679=IFCFACEOUTERBOUND(#111,.T.);
#680=IFCFACEOUTERBOUND(#112,.T.);
#681=IFCFACEOUTERBOUND(#113,.T.);
#682=IFCFACEOUTERBOUND(#114,.T.);
#683=IFCFACEOUTERBOUND(#115,.T.);
#684=IFCFACEOUTERBOUND(#116,.T.);
#685=IFCFACEOUTERBOUND(#117,.T.);
#686=IFCFACEOUTERBOUND(#118,.T.);
#687=IFCFACEOUTERBOUND(#119,.T.);
#688=IFCFACEOUTERBOUND(#120,.T.);
#689=IFCFACEOUTERBOUND(#121,.T.);
#690=IFCFACEOUTERBOUND(#122,.T.);
#691=IFCFACEOUTERBOUND(#123,.T.);
#692=IFCFACEOUTERBOUND(#124,.T.);
#693=IFCFACEOUTERBOUND(#125,.T.);
#694=IFCFACEOUTERBOUND(#126,.T.);
#695=IFCFACEOUTERBOUND(#127,.T.);
#696=IFCFACEOUTERBOUND(#128,.T.);
#697=IFCFACEOUTERBOUND(#129,.T.);
#698=IFCFACEOUTERBOUND(#130,.T.);
#699=IFCFACEOUTERBOUND(#131,.T.);
#700=IFCFACEOUTERBOUND(#132,.T.);
#701=IFCFACEOUTERBOUND(#133,.T.);
#702=IFCFACEOUTERBOUND(#134,.T.);
#703=IFCFACEOUTERBOUND(#135,.T.);
#704=IFCFACEOUTERBOUND(#136,.T.);
#705=IFCFACEOUTERBOUND(#137,.T.);
#706=IFCFACEOUTERBOUND(#138,.T.);
#707=IFCFACEOUTERBOUND(#139,.T.);
#708=IFCFACEOUTERBOUND(#140,.T.);
#709=IFCFACEOUTERBOUND(#141,.T.);
#710=IFCFACEOUTERBOUND(#142,.T.);
#711=IFCFACEOUTERBOUND(#143,.T.);
#712=IFCFACEOUTERBOUND(#144,.T.);
#713=IFCFACEOUTERBOUND(#145,.T.);
#714=IFCFACEOUTERBOUND(#146,.T.);
#715=IFCFACEOUTERBOUND(#147,.T.);
#716=IFCFACEOUTERBOUND(#148,.T.);
#717=IFCFACEOUTERBOUND(#149,.T.);
#718=IFCFACEOUTERBOUND(#150,.T.);
#719=IFCFACEOUTERBOUND(#151,.T.);
#720=IFCFACEOUTERBOUND(#152,.T.);
#721=IFCFACEOUTERBOUND(#153,.T.);
#722=IFCFACEOUTERBOUND(#154,.T.);
#723=IFCFACEOUTERBOUND(#155,.T.);
#724=IFCFACEOUTERBOUND(#156,.T.);
#725=IFCFACEOUTERBOUND(#157,.T.);
#726=IFCFACEOUTERBOUND(#158,.T.);
#727=IFCFACEOUTERBOUND(#159,.T.);
#728=IFCFACEOUTERBOUND(#160,.T.);
#729=IFCFACEOUTERBOUND(#161,.T.);
#730=IFCFACEOUTERBOUND(#162,.T.);
#731=IFCFACEOUTERBOUND(#163,.T.);
#732=IFCFACEOUTERBOUND(#164,.T.);
#733=IFCFACEOUTERBOUND(#165,.T.);
#734=IFCFACEOUTERBOUND(#166,.T.);
#735=IFCFACEOUTERBOUND(#167,.T.);
#736=IFCFACEOUTERBOUND(#168,.T.);
#737=IFCFACEOUTERBOUND(#169,.T.);
#738=IFCFACEOUTERBOUND(#170,.T.);
#739=IFCFACEOUTERBOUND(#171,.T.);
#740=IFCFACEOUTERBOUND(#172,.T.);
#741=IFCFACEOUTERBOUND(#173,.T.);
#742=IFCFACEOUTERBOUND(#174,.T.);
#743=IFCFACEOUTERBOUND(#175,.T.);
#744=IFCFACEOUTERBOUND(#176,.T.);
#745=IFCFACEOUTERBOUND(#177,.T.);
#746=IFCFACEOUTERBOUND(#178,.T.);
#747=IFCFACEOUTERBOUND(#179,.T.);
#748=IFCFACEOUTERBOUND(#180,.T.);
#749=IFCFACEOUTERBOUND(#181,.T.);
#750=IFCFACEOUTERBOUND(#182,.T.);
#751=IFCFACEOUTERBOUND(#183,.T.);
#752=IFCFACEOUTERBOUND(#184,.T.);
#753=IFCFACEOUTERBOUND(#185,.T.);
#754=IFCFACEOUTERBOUND(#186,.T.);
#755=IFCFACEOUTERBOUND(#187,.T.);
#756=IFCFACEOUTERBOUND(#188,.T.);
#757=IFCFACEOUTERBOUND(#189,.T.);
#758=IFCFACEOUTERBOUND(#190,.T.);
#759=IFCFACEOUTERBOUND(#191,.T.);
#760=IFCFACEOUTERBOUND(#192,.T.);
#761=IFCFACEOUTERBOUND(#193,.T.);
#762=IFCFACEOUTERBOUND(#194,.T.);
#763=IFCFACEOUTERBOUND(#195,.T.);
#764=IFCFACEOUTERBOUND(#196,.T.);
#765=IFCFACEOUTERBOUND(#197,.T.);
#766=IFCFACEOUTERBOUND(#198,.T.);
#767=IFCFACEOUTERBOUND(#199,.T.);
#768=IFCFACEOUTERBOUND(#200,.T.);
#769=IFCFACEOUTERBOUND(#201,.T.);
#770=IFCFACEOUTERBOUND(#202,.T.);
#771=IFCFACEOUTERBOUND(#203,.T.);
#772=IFCFACEOUTERBOUND(#204,.T.);
#773=IFCFACEOUTERBOUND(#205,.T.);
#774=IFCFACEOUTERBOUND(#206,.T.);
#775=IFCFACEOUTERBOUND(#207,.T.);
#776=IFCFACEOUTERBOUND(#208,.T.);
#777=IFCFACEOUTERBOUND(#209,.T.);
#778=IFCFACEOUTERBOUND(#210,.T.);
#779=IFCFACEOUTERBOUND(#211,.T.);
#780=IFCFACEOUTERBOUND(#212,.T.);
#781=IFCFACEOUTERBOUND(#213,.T.);
#782=IFCFACEOUTERBOUND(#214,.T.);
#783=IFCFACEOUTERBOUND(#215,.T.);
#784=IFCFACEOUTERBOUND(#216,.T.);
#785=IFCFACEOUTERBOUND(#217,.T.);
#786=IFCFACEOUTERBOUND(#218,.T.);
#787=IFCFACEOUTERBOUND(#219,.T.);
#788=IFCFACEOUTERBOUND(#220,.T.);
#789=IFCFACEOUTERBOUND(#221,.T.);
#790=IFCFACEOUTERBOUND(#222,.T.);
#791=IFCFACEOUTERBOUND(#223,.T.);
#792=IFCFACEOUTERBOUND(#224,.T.);
#793=IFCFACEOUTERBOUND(#225,.T.);
#794=IFCFACEOUTERBOUND(#226,.T.);
#795=IFCFACEOUTERBOUND(#227,.T.);
#796=IFCFACEOUTERBOUND(#228,.T.);
#797=IFCFACEOUTERBOUND(#229,.T.);
#798=IFCFACEOUTERBOUND(#230,.T.);
#799=IFCFACEOUTERBOUND(#231,.T.);
#800=IFCFACEOUTERBOUND(#232,.T.);
#801=IFCFACEOUTERBOUND(#233,.T.);
#802=IFCFACEOUTERBOUND(#234,.T.);
#803=IFCFACEOUTERBOUND(#235,.T.);
#804=IFCFACEOUTERBOUND(#236,.T.);
#805=IFCFACEOUTERBOUND(#237,.T.);
#806=IFCFACEOUTERBOUND(#238,.T.);
#807=IFCFACEOUTERBOUND(#239,.T.);
#808=IFCFACEOUTERBOUND(#240,.T.);
#809=IFCFACEOUTERBOUND(#241,.T.);
#810=IFCFACEOUTERBOUND(#242,.T.);
#811=IFCFACEOUTERBOUND(#243,.T.);
#812=IFCFACEOUTERBOUND(#244,.T.);
#813=IFCFACEOUTERBOUND(#245,.T.);
#814=IFCFACEOUTERBOUND(#246,.T.);
#815=IFCFACEOUTERBOUND(#247,.T.);
#816=IFCFACEOUTERBOUND(#248,.T.);
#817=IFCFACEOUTERBOUND(#249,.T.);
#818=IFCFACEOUTERBOUND(#250,.T.);
#819=IFCFACEOUTERBOUND(#251,.T.);
#820=IFCFACEOUTERBOUND(#252,.T.);
#821=IFCFACEOUTERBOUND(#253,.T.);
#822=IFCFACEOUTERBOUND(#254,.T.);
#823=IFCFACEOUTERBOUND(#255,.T.);
#824=IFCFACEOUTERBOUND(#256,.T.);
#825=IFCFACEOUTERBOUND(#257,.T.);
#826=IFCFACEOUTERBOUND(#258,.T.);
#827=IFCFACEOUTERBOUND(#259,.T.);
#828=IFCFACEOUTERBOUND(#260,.T.);
#829=IFCFACEOUTERBOUND(#261,.T.);
#830=IFCFACEOUTERBOUND(#262,.T.);
#831=IFCFACEOUTERBOUND(#263,.T.);
#832=IFCFACEOUTERBOUND(#264,.T.);
#833=IFCFACEOUTERBOUND(#265,.T.);
#834=IFCFACEOUTERBOUND(#266,.T.);
#835=IFCFACEOUTERBOUND(#267,.T.);
#836=IFCFACEOUTERBOUND(#268,.T.);
#837=IFCFACEOUTERBOUND(#269,.T.);
#838=IFCFACEOUTERBOUND(#270,.T.);
#839=IFCFACEOUTERBOUND(#271,.T.);
#840=IFCFACEOUTERBOUND(#272,.T.);
#841=IFCFACEOUTERBOUND(#273,.T.);
#842=IFCFACEOUTERBOUND(#274,.T.);
#843=IFCFACEOUTERBOUND(#275,.T.);
#844=IFCFACEOUTERBOUND(#276,.T.);
#845=IFCFACEOUTERBOUND(#277,.T.);
#846=IFCFACEOUTERBOUND(#278,.T.);
#847=IFCFACEOUTERBOUND(#279,.T.);
#848=IFCFACEOUTERBOUND(#280,.T.);
#849=IFCFACEOUTERBOUND(#281,.T.);
#850=IFCFACEOUTERBOUND(#282,.T.);
#851=IFCFACEOUTERBOUND(#283,.T.);
#852=IFCFACEOUTERBOUND(#284,.T.);
#853=IFCFACEOUTERBOUND(#285,.T.);
#854=IFCFACEOUTERBOUND(#286,.T.);
#855=IFCFACEOUTERBOUND(#287,.T.);
#856=IFCFACEOUTERBOUND(#288,.T.);
#857=IFCFACEOUTERBOUND(#289,.T.);
#858=IFCFACEOUTERBOUND(#290,.T.);
#859=IFCFACEOUTERBOUND(#291,.T.);
#860=IFCFACEOUTERBOUND(#292,.T.);
#861=IFCFACEOUTERBOUND(#293,.T.);
#862=IFCFACEOUTERBOUND(#294,.T.);
#863=IFCFACEOUTERBOUND(#295,.T.);
#864=IFCFACEOUTERBOUND(#296,.T.);
#865=IFCFACEOUTERBOUND(#297,.T.);
#866=IFCFACEOUTERBOUND(#298,.T.);
#867=IFCFACEOUTERBOUND(#299,.T.);
#868=IFCFACEOUTERBOUND(#300,.T.);
#869=IFCFACEOUTERBOUND(#301,.T.);
#870=IFCFACEOUTERBOUND(#302,.T.);
#871=IFCFACEOUTERBOUND(#303,.T.);
#872=IFCFACEOUTERBOUND(#304,.T.);
#873=IFCFACEOUTERBOUND(#305,.T.);
#874=IFCFACEOUTERBOUND(#306,.T.);
#875=IFCFACEOUTERBOUND(#307,.T.);
#876=IFCFACEOUTERBOUND(#308,.T.);
#877=IFCFACEOUTERBOUND(#309,.T.);
#878=IFCFACEOUTERBOUND(#310,.T.);
#879=IFCFACEOUTERBOUND(#311,.T.);
#880=IFCFACEOUTERBOUND(#312,.T.);
#881=IFCFACEOUTERBOUND(#313,.T.);
#882=IFCFACEOUTERBOUND(#314,.T.);
#883=IFCFACEOUTERBOUND(#315,.T.);
#884=IFCFACEOUTERBOUND(#316,.T.);
#885=IFCFACEOUTERBOUND(#317,.T.);
#886=IFCFACEOUTERBOUND(#318,.T.);
#887=IFCFACEOUTERBOUND(#319,.T.);
#888=IFCFACEOUTERBOUND(#320,.T.);
#889=IFCFACEOUTERBOUND(#321,.T.);
#890=IFCFACEOUTERBOUND(#322,.T.);
#891=IFCFACEOUTERBOUND(#323,.T.);
#892=IFCFACEOUTERBOUND(#324,.T.);
#893=IFCFACEOUTERBOUND(#325,.T.);
#894=IFCFACEOUTERBOUND(#326,.T.);
#895=IFCFACEOUTERBOUND(#327,.T.);
#896=IFCFACEOUTERBOUND(#328,.T.);
#897=IFCFACEOUTERBOUND(#329,.T.);
#898=IFCFACEOUTERBOUND(#330,.T.);
#899=IFCFACEOUTERBOUND(#331,.T.);
#900=IFCFACEOUTERBOUND(#332,.T.);
#901=IFCFACEOUTERBOUND(#333,.T.);
#902=IFCFACEOUTERBOUND(#334,.T.);
#903=IFCFACEOUTERBOUND(#335,.T.);
#904=IFCFACEOUTERBOUND(#336,.T.);
#905=IFCFACEOUTERBOUND(#337,.T.);
#906=IFCFACEOUTERBOUND(#338,.T.);
#907=IFCFACEOUTERBOUND(#339,.T.);
#908=IFCFACEOUTERBOUND(#340,.T.);
#909=IFCFACEOUTERBOUND(#341,.T.);
#910=IFCFACEOUTERBOUND(#342,.T.);
#911=IFCFACEOUTERBOUND(#343,.T.);
#912=IFCFACEOUTERBOUND(#344,.T.);
#913=IFCFACEOUTERBOUND(#345,.T.);
#914=IFCFACEOUTERBOUND(#346,.T.);
#915=IFCFACEOUTERBOUND(#347,.T.);
#916=IFCFACEOUTERBOUND(#348,.T.);
#917=IFCFACEOUTERBOUND(#349,.T.);
#918=IFCFACEOUTERBOUND(#350,.T.);
#919=IFCFACEOUTERBOUND(#351,.T.);
#920=IFCFACEOUTERBOUND(#352,.T.);
#921=IFCFACEOUTERBOUND(#353,.T.);
#922=IFCFACEOUTERBOUND(#354,.T.);
#923=IFCFACEOUTERBOUND(#355,.T.);
#924=IFCFACEOUTERBOUND(#356,.T.);
#925=IFCFACEOUTERBOUND(#357,.T.);
#926=IFCFACEOUTERBOUND(#358,.T.);
#927=IFCFACEOUTERBOUND(#359,.T.);
#928=IFCFACEOUTERBOUND(#360,.T.);
#929=IFCFACEOUTERBOUND(#361,.T.);
#930=IFCFACEOUTERBOUND(#362,.T.);
#931=IFCFACEOUTERBOUND(#363,.T.);
#932=IFCFACEOUTERBOUND(#364,.T.);
#933=IFCFACEOUTERBOUND(#365,.T.);
#934=IFCFACEOUTERBOUND(#366,.T.);
#935=IFCFACEOUTERBOUND(#367,.T.);
#936=IFCFACEOUTERBOUND(#368,.T.);
#937=IFCFACEOUTERBOUND(#369,.T.);
#938=IFCFACEOUTERBOUND(#370,.T.);
#939=IFCFACEOUTERBOUND(#371,.T.);
#940=IFCFACEOUTERBOUND(#372,.T.);
#941=IFCFACEOUTERBOUND(#373,.T.);
#942=IFCFACEOUTERBOUND(#374,.T.);
#943=IFCFACEOUTERBOUND(#375,.T.);
#944=IFCFACEOUTERBOUND(#376,.T.);
#945=IFCFACEOUTERBOUND(#377,.T.);
#946=IFCFACEOUTERBOUND(#378,.T.);
#947=IFCFACEOUTERBOUND(#379,.T.);
#948=IFCFACEOUTERBOUND(#380,.T.);
#949=IFCFACEOUTERBOUND(#381,.T.);
#950=IFCFACEOUTERBOUND(#382,.T.);
#951=IFCFACEOUTERBOUND(#383,.T.);
#952=IFCFACEOUTERBOUND(#384,.T.);
#953=IFCFACEOUTERBOUND(#385,.T.);
#954=IFCFACEOUTERBOUND(#386,.T.);
#955=IFCFACEOUTERBOUND(#387,.T.);
#956=IFCFACEOUTERBOUND(#388,.T.);
#957=IFCFACEOUTERBOUND(#389,.T.);
#958=IFCFACEOUTERBOUND(#390,.T.);
#959=IFCFACEOUTERBOUND(#391,.T.);
#960=IFCFACEOUTERBOUND(#392,.T.);
#961=IFCFACEOUTERBOUND(#393,.T.);
#962=IFCFACEOUTERBOUND(#394,.T.);
#963=IFCFACEOUTERBOUND(#395,.T.);
#964=IFCFACEOUTERBOUND(#396,.T.);
#965=IFCFACEOUTERBOUND(#397,.T.);
#966=IFCFACEOUTERBOUND(#398,.T.);
#967=IFCFACEOUTERBOUND(#399,.T.);
#968=IFCFACEOUTERBOUND(#400,.T.);
#969=IFCFACEOUTERBOUND(#401,.T.);
#970=IFCFACEOUTERBOUND(#402,.T.);
#971=IFCFACEOUTERBOUND(#403,.T.);
#972=IFCFACEOUTERBOUND(#404,.T.);
#973=IFCFACEOUTERBOUND(#405,.T.);
#974=IFCFACEOUTERBOUND(#406,.T.);
#975=IFCFACEOUTERBOUND(#407,.T.);
#976=IFCFACEOUTERBOUND(#408,.T.);
#977=IFCFACEOUTERBOUND(#409,.T.);
#978=IFCFACEOUTERBOUND(#410,.T.);
#979=IFCFACEOUTERBOUND(#411,.T.);
#980=IFCFACEOUTERBOUND(#412,.T.);
#981=IFCFACEOUTERBOUND(#413,.T.);
#982=IFCFACEOUTERBOUND(#414,.T.);
#983=IFCFACEOUTERBOUND(#415,.T.);
#984=IFCFACEOUTERBOUND(#416,.T.);
#985=IFCFACEOUTERBOUND(#417,.T.);
#986=IFCFACEOUTERBOUND(#418,.T.);
#987=IFCFACEOUTERBOUND(#419,.T.);
#988=IFCFACEOUTERBOUND(#420,.T.);
#989=IFCFACEOUTERBOUND(#421,.T.);
#990=IFCFACEOUTERBOUND(#422,.T.);
#991=IFCFACEOUTERBOUND(#423,.T.);
#992=IFCFACEOUTERBOUND(#424,.T.);
#993=IFCFACEOUTERBOUND(#425,.T.);
#994=IFCFACEOUTERBOUND(#426,.T.);
#995=IFCFACEOUTERBOUND(#427,.T.);
#996=IFCFACEOUTERBOUND(#428,.T.);
#997=IFCFACEOUTERBOUND(#429,.T.);
#998=IFCFACEOUTERBOUND(#430,.T.);
#999=IFCFACEOUTERBOUND(#431,.T.);
#1000=IFCFACEOUTERBOUND(#432,.T.);
#1001=IFCFACEOUTERBOUND(#433,.T.);
#1002=IFCFACEOUTERBOUND(#434,.T.);
#1003=IFCFACEOUTERBOUND(#435,.T.);
#1004=IFCFACEOUTERBOUND(#436,.T.);
#1005=IFCFACEOUTERBOUND(#437,.T.);
#1006=IFCFACEOUTERBOUND(#438,.T.);
#1007=IFCFACEOUTERBOUND(#439,.T.);
#1008=IFCFACEOUTERBOUND(#440,.T.);
#1009=IFCFACEOUTERBOUND(#441,.T.);
#1010=IFCFACEOUTERBOUND(#442,.T.);
#1011=IFCFACEOUTERBOUND(#443,.T.);
#1012=IFCFACEOUTERBOUND(#444,.T.);
#1013=IFCFACEOUTERBOUND(#445,.T.);
#1014=IFCFACEOUTERBOUND(#446,.T.);
#1015=IFCFACEOUTERBOUND(#447,.T.);
#1016=IFCFACEOUTERBOUND(#448,.T.);
#1017=IFCFACEOUTERBOUND(#449,.T.);
#1018=IFCFACEOUTERBOUND(#450,.T.);
#1019=IFCFACEOUTERBOUND(#451,.T.);
#1020=IFCFACEOUTERBOUND(#452,.T.);
#1021=IFCFACEOUTERBOUND(#453,.T.);
#1022=IFCFACEOUTERBOUND(#454,.T.);
#1023=IFCFACEOUTERBOUND(#455,.T.);
#1024=IFCFACEOUTERBOUND(#456,.T.);
#1025=IFCFACEOUTERBOUND(#457,.T.);
#1026=IFCFACEOUTERBOUND(#458,.T.);
#1027=IFCFACEOUTERBOUND(#459,.T.);
#1028=IFCFACEOUTERBOUND(#460,.T.);
#1029=IFCFACEOUTERBOUND(#461,.T.);
#1030=IFCFACEOUTERBOUND(#462,.T.);
#1031=IFCFACEOUTERBOUND(#463,.T.);
#1032=IFCFACEOUTERBOUND(#464,.T.);
#1033=IFCFACEOUTERBOUND(#465,.T.);
#1034=IFCFACEOUTERBOUND(#466,.T.);
#1035=IFCFACEOUTERBOUND(#467,.T.);
#1036=IFCFACEOUTERBOUND(#468,.T.);
#1037=IFCFACEOUTERBOUND(#469,.T.);
#1038=IFCFACEOUTERBOUND(#470,.T.);
#1039=IFCFACEOUTERBOUND(#471,.T.);
#1040=IFCFACEOUTERBOUND(#472,.T.);
#1041=IFCFACEOUTERBOUND(#473,.T.);
#1042=IFCFACEOUTERBOUND(#474,.T.);
#1043=IFCFACEOUTERBOUND(#475,.T.);
#1044=IFCFACEOUTERBOUND(#476,.T.);
#1045=IFCFACEOUTERBOUND(#477,.T.);
#1046=IFCFACEOUTERBOUND(#478,.T.);
#1047=IFCFACEOUTERBOUND(#479,.T.);
#1048=IFCFACEOUTERBOUND(#480,.T.);
#1049=IFCFACEOUTERBOUND(#481,.T.);
#1050=IFCFACEOUTERBOUND(#482,.T.);
#1051=IFCFACEOUTERBOUND(#483,.T.);
#1052=IFCFACEOUTERBOUND(#484,.T.);
#1053=IFCFACEOUTERBOUND(#485,.T.);
#1054=IFCFACEOUTERBOUND(#486,.T.);
#1055=IFCFACEOUTERBOUND(#487,.T.);
#1056=IFCFACEOUTERBOUND(#488,.T.);
#1057=IFCFACEOUTERBOUND(#489,.T.);
#1058=IFCFACEOUTERBOUND(#490,.T.);
#1059=IFCFACEOUTERBOUND(#491,.T.);
#1060=IFCFACEOUTERBOUND(#492,.T.);
#1061=IFCFACEOUTERBOUND(#493,.T.);
#1062=IFCFACEOUTERBOUND(#494,.T.);
#1063=IFCFACEOUTERBOUND(#495,.T.);
#1064=IFCFACEOUTERBOUND(#496,.T.);
#1065=IFCFACEOUTERBOUND(#497,.T.);
#1066=IFCFACEOUTERBOUND(#498,.T.);
#1067=IFCFACEOUTERBOUND(#499,.T.);
#1068=IFCFACEOUTERBOUND(#500,.T.);
#1069=IFCFACEOUTERBOUND(#501,.T.);
#1070=IFCFACEOUTERBOUND(#502,.T.);
#1071=IFCFACEOUTERBOUND(#503,.T.);
#1072=IFCFACEOUTERBOUND(#504,.T.);
#1073=IFCFACEOUTERBOUND(#505,.T.);
#1074=IFCFACEOUTERBOUND(#506,.T.);
#1075=IFCFACEOUTERBOUND(#507,.T.);
#1076=IFCFACEOUTERBOUND(#508,.T.);
#1077=IFCFACEOUTERBOUND(#509,.T.);
#1078=IFCFACEOUTERBOUND(#510,.T.);
#1079=IFCFACEOUTERBOUND(#511,.T.);
#1080=IFCFACEOUTERBOUND(#512,.T.);
#1081=IFCFACEOUTERBOUND(#513,.T.);
#1082=IFCFACEOUTERBOUND(#514,.T.);
#1083=IFCFACEOUTERBOUND(#515,.T.);
#1084=IFCFACEOUTERBOUND(#516,.T.);
#1085=IFCFACEOUTERBOUND(#517,.T.);
#1086=IFCFACEOUTERBOUND(#518,.T.);
#1087=IFCFACEOUTERBOUND(#519,.T.);
#1088=IFCFACEOUTERBOUND(#520,.T.);
#1089=IFCFACEOUTERBOUND(#521,.T.);
#1090=IFCFACEOUTERBOUND(#522,.T.);
#1091=IFCFACEOUTERBOUND(#523,.T.);
#1092=IFCFACEOUTERBOUND(#524,.T.);
#1093=IFCFACEOUTERBOUND(#525,.T.);
#1094=IFCFACEOUTERBOUND(#526,.T.);
#1095=IFCFACEOUTERBOUND(#527,.T.);
#1096=IFCFACEOUTERBOUND(#528,.T.);
#1097=IFCFACEOUTERBOUND(#529,.T.);
#1098=IFCFACEOUTERBOUND(#530,.T.);
#1099=IFCFACEOUTERBOUND(#531,.T.);
#1100=IFCFACEOUTERBOUND(#532,.T.);
#1101=IFCFACEOUTERBOUND(#533,.T.);
#1102=IFCFACEOUTERBOUND(#534,.T.);
#1103=IFCFACEOUTERBOUND(#535,.T.);
#1104=IFCFACEOUTERBOUND(#536,.T.);
#1105=IFCFACEOUTERBOUND(#537,.T.);
#1106=IFCFACEOUTERBOUND(#538,.T.);
#1107=IFCFACEOUTERBOUND(#539,.T.);
#1108=IFCFACEOUTERBOUND(#540,.T.);
#1109=IFCFACEOUTERBOUND(#541,.T.);
#1110=IFCFACEOUTERBOUND(#542,.T.);
#1111=IFCFACEOUTERBOUND(#543,.T.);
#1112=IFCFACEOUTERBOUND(#544,.T.);
#1113=IFCFACEOUTERBOUND(#545,.T.);
#1114=IFCFACEOUTERBOUND(#546,.T.);
#1115=IFCFACEOUTERBOUND(#547,.T.);
#1116=IFCFACEOUTERBOUND(#548,.T.);
#1117=IFCFACEOUTERBOUND(#549,.T.);
#1118=IFCFACEOUTERBOUND(#550,.T.);
#1119=IFCFACEOUTERBOUND(#551,.T.);
#1120=IFCFACEOUTERBOUND(#552,.T.);
#1121=IFCFACEOUTERBOUND(#553,.T.);
#1122=IFCFACEOUTERBOUND(#554,.T.);
#1123=IFCFACEOUTERBOUND(#555,.T.);
#1124=IFCFACEOUTERBOUND(#556,.T.);
#1125=IFCFACEOUTERBOUND(#557,.T.);
#1126=IFCFACEOUTERBOUND(#558,.T.);
#1127=IFCFACEOUTERBOUND(#559,.T.);
#1128=IFCFACEOUTERBOUND(#560,.T.);
#1129=IFCFACEOUTERBOUND(#561,.T.);
#1130=IFCFACEOUTERBOUND(#562,.T.);
#1131=IFCFACEOUTERBOUND(#563,.T.);
#1132=IFCFACEOUTERBOUND(#564,.T.);
#1133=IFCFACEOUTERBOUND(#565,.T.);
#1134=IFCFACEOUTERBOUND(#566,.T.);
#1135=IFCFACEOUTERBOUND(#567,.T.);
#1136=IFCFACEOUTERBOUND(#568,.T.);
#1137=IFCFACEOUTERBOUND(#569,.T.);
#1138=IFCFACEOUTERBOUND(#570,.T.);
#1139=IFCFACEOUTERBOUND(#571,.T.);
#1140=IFCFACEOUTERBOUND(#572,.T.);
#1141=IFCFACEOUTERBOUND(#573,.T.);
#1142=IFCFACEOUTERBOUND(#574,.T.);
#1143=IFCFACEOUTERBOUND(#575,.T.);
#1144=IFCFACEOUTERBOUND(#576,.T.);
#1145=IFCFACEOUTERBOUND(#577,.T.);
#1146=IFCFACEOUTERBOUND(#578,.T.);
#1147=IFCFACEOUTERBOUND(#579,.T.);
#1148=IFCFACEOUTERBOUND(#580,.T.);
#1149=IFCFACEOUTERBOUND(#581,.T.);
#1150=IFCFACEOUTERBOUND(#582,.T.);
#1151=IFCFACEOUTERBOUND(#583,.T.);
#1152=IFCFACEOUTERBOUND(#584,.T.);
#1153=IFCFACEOUTERBOUND(#585,.T.);
#1154=IFCFACEOUTERBOUND(#586,.T.);
#1155=IFCFACEOUTERBOUND(#587,.T.);
#1156=IFCFACEOUTERBOUND(#588,.T.);
#1157=IFCFACEOUTERBOUND(#589,.T.);
#1158=IFCFACEOUTERBOUND(#590,.T.);
#1159=IFCFACEOUTERBOUND(#591,.T.);
#1160=IFCFACEOUTERBOUND(#592,.T.);
#1161=IFCFACEOUTERBOUND(#593,.T.);
#1162=IFCFACE((#594));
#1163=IFCFACE((#595));
#1164=IFCFACE((#596));
#1165=IFCFACE((#597));
#1166=IFCFACE((#598));
#1167=IFCFACE((#599));
#1168=IFCFACE((#600));
#1169=IFCFACE((#601));
#1170=IFCFACE((#602));
#1171=IFCFACE((#603));
#1172=IFCFACE((#604));
#1173=IFCFACE((#605));
#1174=IFCFACE((#606));
#1175=IFCFACE((#607));
#1176=IFCFACE((#608));
#1177=IFCFACE((#609));
#1178=IFCFACE((#610));
#1179=IFCFACE((#611));
#1180=IFCFACE((#612));
#1181=IFCFACE((#613));
#1182=IFCFACE((#614));
#1183=IFCFACE((#615));
#1184=IFCFACE((#616));
#1185=IFCFACE((#617));
#1186=IFCFACE((#618));
#1187=IFCFACE((#619));
#1188=IFCFACE((#620));
#1189=IFCFACE((#621));
#1190=IFCFACE((#622));
#1191=IFCFACE((#623));
#1192=IFCFACE((#624));
#1193=IFCFACE((#625));
#1194=IFCFACE((#626));
#1195=IFCFACE((#627));
#1196=IFCFACE((#628));
#1197=IFCFACE((#629));
#1198=IFCFACE((#630));
#1199=IFCFACE((#631));
#1200=IFCFACE((#632));
#1201=IFCFACE((#633));
#1202=IFCFACE((#634));
#1203=IFCFACE((#635));
#1204=IFCFACE((#636));
#1205=IFCFACE((#637));
#1206=IFCFACE((#638));
#1207=IFCFACE((#639));
#1208=IFCFACE((#640));
#1209=IFCFACE((#641));
#1210=IFCFACE((#642));
#1211=IFCFACE((#643));
#1212=IFCFACE((#644));
#1213=IFCFACE((#645));
#1214=IFCFACE((#646));
#1215=IFCFACE((#647));
#1216=IFCFACE((#648));
#1217=IFCFACE((#649));
#1218=IFCFACE((#650));
#1219=IFCFACE((#651));
#1220=IFCFACE((#652));
#1221=IFCFACE((#653));
#1222=IFCFACE((#654));
#1223=IFCFACE((#655));
#1224=IFCFACE((#656));
#1225=IFCFACE((#657));
#1226=IFCFACE((#658));
#1227=IFCFACE((#659));
#1228=IFCFACE((#660));
#1229=IFCFACE((#661));
#1230=IFCFACE((#662));
#1231=IFCFACE((#663));
#1232=IFCFACE((#664));
#1233=IFCFACE((#665));
#1234=IFCFACE((#666));
#1235=IFCFACE((#667));
#1236=IFCFACE((#668));
#1237=IFCFACE((#669));
#1238=IFCFACE((#670));
#1239=IFCFACE((#671));
#1240=IFCFACE((#672));
#1241=IFCFACE((#673));
#1242=IFCFACE((#674));
#1243=IFCFACE((#675));
#1244=IFCFACE((#676));
#1245=IFCFACE((#677));
#1246=IFCFACE((#678));
#1247=IFCFACE((#679));
#1248=IFCFACE((#680));
#1249=IFCFACE((#681));
#1250=IFCFACE((#682));
#1251=IFCFACE((#683));
#1252=IFCFACE((#684));
#1253=IFCFACE((#685));
#1254=IFCFACE((#686));
#1255=IFCFACE((#687));
#1256=IFCFACE((#688));
#1257=IFCFACE((#689));
#1258=IFCFACE((#690));
#1259=IFCFACE((#691));
#1260=IFCFACE((#692));
#1261=IFCFACE((#693));
#1262=IFCFACE((#694));
#1263=IFCFACE((#695));
#1264=IFCFACE((#696));
#1265=IFCFACE((#697));
#1266=IFCFACE((#698));
#1267=IFCFACE((#699));
#1268=IFCFACE((#700));
#1269=IFCFACE((#701));
#1270=IFCFACE((#702));
#1271=IFCFACE((#703));
#1272=IFCFACE((#704));
#1273=IFCFACE((#705));
#1274=IFCFACE((#706));
#1275=IFCFACE((#707));
#1276=IFCFACE((#708));
#1277=IFCFACE((#709));
#1278=IFCFACE((#710));
#1279=IFCFACE((#711));
#1280=IFCFACE((#712));
#1281=IFCFACE((#713));
#1282=IFCFACE((#714));
#1283=IFCFACE((#715));
#1284=IFCFACE((#716));
#1285=IFCFACE((#717));
#1286=IFCFACE((#718));
#1287=IFCFACE((#719));
#1288=IFCFACE((#720));
#1289=IFCFACE((#721));
#1290=IFCFACE((#722));
#1291=IFCFACE((#723));
#1292=IFCFACE((#724));
#1293=IFCFACE((#725));
#1294=IFCFACE((#726));
#1295=IFCFACE((#727));
#1296=IFCFACE((#728));
#1297=IFCFACE((#729));
#1298=IFCFACE((#730));
#1299=IFCFACE((#731));
#1300=IFCFACE((#732));
#1301=IFCFACE((#733));
#1302=IFCFACE((#734));
#1303=IFCFACE((#735));
#1304=IFCFACE((#736));
#1305=IFCFACE((#737));
#1306=IFCFACE((#738));
#1307=IFCFACE((#739));
#1308=IFCFACE((#740));
#1309=IFCFACE((#741));
#1310=IFCFACE((#742));
#1311=IFCFACE((#743));
#1312=IFCFACE((#744));
#1313=IFCFACE((#745));
#1314=IFCFACE((#746));
#1315=IFCFACE((#747));
#1316=IFCFACE((#748));
#1317=IFCFACE((#749));
#1318=IFCFACE((#750));
#1319=IFCFACE((#751));
#1320=IFCFACE((#752));
#1321=IFCFACE((#753));
#1322=IFCFACE((#754));
#1323=IFCFACE((#755));
#1324=IFCFACE((#756));
#1325=IFCFACE((#757));
#1326=IFCFACE((#758));
#1327=IFCFACE((#759));
#1328=IFCFACE((#760));
#1329=IFCFACE((#761));
#1330=IFCFACE((#762));
#1331=IFCFACE((#763));
#1332=IFCFACE((#764));
#1333=IFCFACE((#765));
#1334=IFCFACE((#766));
#1335=IFCFACE((#767));
#1336=IFCFACE((#768));
#1337=IFCFACE((#769));
#1338=IFCFACE((#770));
#1339=IFCFACE((#771));
#1340=IFCFACE((#772));
#1341=IFCFACE((#773));
#1342=IFCFACE((#774));
#1343=IFCFACE((#775));
#1344=IFCFACE((#776));
#1345=IFCFACE((#777));
#1346=IFCFACE((#778));
#1347=IFCFACE((#779));
#1348=IFCFACE((#780));
#1349=IFCFACE((#781));
#1350=IFCFACE((#782));
#1351=IFCFACE((#783));
#1352=IFCFACE((#784));
#1353=IFCFACE((#785));
#1354=IFCFACE((#786));
#1355=IFCFACE((#787));
#1356=IFCFACE((#788));
#1357=IFCFACE((#789));
#1358=IFCFACE((#790));
#1359=IFCFACE((#791));
#1360=IFCFACE((#792));
#1361=IFCFACE((#793));
#1362=IFCFACE((#794));
#1363=IFCFACE((#795));
#1364=IFCFACE((#796));
#1365=IFCFACE((#797));
#1366=IFCFACE((#798));
#1367=IFCFACE((#799));
#1368=IFCFACE((#800));
#1369=IFCFACE((#801));
#1370=IFCFACE((#802));
#1371=IFCFACE((#803));
#1372=IFCFACE((#804));
#1373=IFCFACE((#805));
#1374=IFCFACE((#806));
#1375=IFCFACE((#807));
#1376=IFCFACE((#808));
#1377=IFCFACE((#809));
#1378=IFCFACE((#810));
#1379=IFCFACE((#811));
#1380=IFCFACE((#812));
#1381=IFCFACE((#813));
#1382=IFCFACE((#814));
#1383=IFCFACE((#815));
#1384=IFCFACE((#816));
#1385=IFCFACE((#817));
#1386=IFCFACE((#818));
#1387=IFCFACE((#819));
#1388=IFCFACE((#820));
#1389=IFCFACE((#821));
#1390=IFCFACE((#822));
#1391=IFCFACE((#823));
#1392=IFCFACE((#824));
#1393=IFCFACE((#825));
#1394=IFCFACE((#826));
#1395=IFCFACE((#827));
#1396=IFCFACE((#828));
#1397=IFCFACE((#829));
#1398=IFCFACE((#830));
#1399=IFCFACE((#831));
#1400=IFCFACE((#832));
#1401=IFCFACE((#833));
#1402=IFCFACE((#834));
#1403=IFCFACE((#835));
#1404=IFCFACE((#836));
#1405=IFCFACE((#837));
#1406=IFCFACE((#838));
#1407=IFCFACE((#839));
#1408=IFCFACE((#840));
#1409=IFCFACE((#841));
#1410=IFCFACE((#842));
#1411=IFCFACE((#843));
#1412=IFCFACE((#844));
#1413=IFCFACE((#845));
#1414=IFCFACE((#846));
#1415=IFCFACE((#847));
#1416=IFCFACE((#848));
#1417=IFCFACE((#849));
#1418=IFCFACE((#850));
#1419=IFCFACE((#851));
#1420=IFCFACE((#852));
#1421=IFCFACE((#853));
#1422=IFCFACE((#854));
#1423=IFCFACE((#855));
#1424=IFCFACE((#856));
#1425=IFCFACE((#857));
#1426=IFCFACE((#858));
#1427=IFCFACE((#859));
#1428=IFCFACE((#860));
#1429=IFCFACE((#861));
#1430=IFCFACE((#862));
#1431=IFCFACE((#863));
#1432=IFCFACE((#864));
#1433=IFCFACE((#865));
#1434=IFCFACE((#866));
#1435=IFCFACE((#867));
#1436=IFCFACE((#868));
#1437=IFCFACE((#869));
#1438=IFCFACE((#870));
#1439=IFCFACE((#871));
#1440=IFCFACE((#872));
#1441=IFCFACE((#873));
#1442=IFCFACE((#874));
#1443=IFCFACE((#875));
#1444=IFCFACE((#876));
#1445=IFCFACE((#877));
#1446=IFCFACE((#878));
#1447=IFCFACE((#879));
#1448=IFCFACE((#880));
#1449=IFCFACE((#881));
#1450=IFCFACE((#882));
#1451=IFCFACE((#883));
#1452=IFCFACE((#884));
#1453=IFCFACE((#885));
#1454=IFCFACE((#886));
#1455=IFCFACE((#887));
#1456=IFCFACE((#888));
#1457=IFCFACE((#889));
#1458=IFCFACE((#890));
#1459=IFCFACE((#891));
#1460=IFCFACE((#892));
#1461=IFCFACE((#893));
#1462=IFCFACE((#894));
#1463=IFCFACE((#895));
#1464=IFCFACE((#896));
#1465=IFCFACE((#897));
#1466=IFCFACE((#898));
#1467=IFCFACE((#899));
#1468=IFCFACE((#900));
#1469=IFCFACE((#901));
#1470=IFCFACE((#902));
#1471=IFCFACE((#903));
#1472=IFCFACE((#904));
#1473=IFCFACE((#905));
#1474=IFCFACE((#906));
#1475=IFCFACE((#907));
#1476=IFCFACE((#908));
#1477=IFCFACE((#909));
#1478=IFCFACE((#910));
#1479=IFCFACE((#911));
#1480=IFCFACE((#912));
#1481=IFCFACE((#913));
#1482=IFCFACE((#914));
#1483=IFCFACE((#915));
#1484=IFCFACE((#916));
#1485=IFCFACE((#917));
#1486=IFCFACE((#918));
#1487=IFCFACE((#919));
#1488=IFCFACE((#920));
#1489=IFCFACE((#921));
#1490=IFCFACE((#922));
#1491=IFCFACE((#923));
#1492=IFCFACE((#924));
#1493=IFCFACE((#925));
#1494=IFCFACE((#926));
#1495=IFCFACE((#927));
#1496=IFCFACE((#928));
#1497=IFCFACE((#929));
#1498=IFCFACE((#930));
#1499=IFCFACE((#931));
#1500=IFCFACE((#932));
#1501=IFCFACE((#933));
#1502=IFCFACE((#934));
#1503=IFCFACE((#935));
#1504=IFCFACE((#936));
#1505=IFCFACE((#937));
#1506=IFCFACE((#938));
#1507=IFCFACE((#939));
#1508=IFCFACE((#940));
#1509=IFCFACE((#941));
#1510=IFCFACE((#942));
#1511=IFCFACE((#943));
#1512=IFCFACE((#944));
#1513=IFCFACE((#945));
#1514=IFCFACE((#946));
#1515=IFCFACE((#947));
#1516=IFCFACE((#948));
#1517=IFCFACE((#949));
#1518=IFCFACE((#950));
#1519=IFCFACE((#951));
#1520=IFCFACE((#952));
#1521=IFCFACE((#953));
#1522=IFCFACE((#954));
#1523=IFCFACE((#955));
#1524=IFCFACE((#956));
#1525=IFCFACE((#957));
#1526=IFCFACE((#958));
#1527=IFCFACE((#959));
#1528=IFCFACE((#960));
#1529=IFCFACE((#961));
#1530=IFCFACE((#962));
#1531=IFCFACE((#963));
#1532=IFCFACE((#964));
#1533=IFCFACE((#965));
#1534=IFCFACE((#966));
#1535=IFCFACE((#967));
#1536=IFCFACE((#968));
#1537=IFCFACE((#969));
#1538=IFCFACE((#970));
#1539=IFCFACE((#971));
#1540=IFCFACE((#972));
#1541=IFCFACE((#973));
#1542=IFCFACE((#974));
#1543=IFCFACE((#975));
#1544=IFCFACE((#976));
#1545=IFCFACE((#977));
#1546=IFCFACE((#978));
#1547=IFCFACE((#979));
#1548=IFCFACE((#980));
#1549=IFCFACE((#981));
#1550=IFCFACE((#982));
#1551=IFCFACE((#983));
#1552=IFCFACE((#984));
#1553=IFCFACE((#985));
#1554=IFCFACE((#986));
#1555=IFCFACE((#987));
#1556=IFCFACE((#988));
#1557=IFCFACE((#989));
#1558=IFCFACE((#990));
#1559=IFCFACE((#991));
#1560=IFCFACE((#992));
#1561=IFCFACE((#993));
#1562=IFCFACE((#994));
#1563=IFCFACE((#995));
#1564=IFCFACE((#996));
#1565=IFCFACE((#997));
#1566=IFCFACE((#998));
#1567=IFCFACE((#999));
#1568=IFCFACE((#1000));
#1569=IFCFACE((#1001));
#1570=IFCFACE((#1002));
#1571=IFCFACE((#1003));
#1572=IFCFACE((#1004));
#1573=IFCFACE((#1005));
#1574=IFCFACE((#1006));
#1575=IFCFACE((#1007));
#1576=IFCFACE((#1008));
#1577=IFCFACE((#1009));
#1578=IFCFACE((#1010));
#1579=IFCFACE((#1011));
#1580=IFCFACE((#1012));
#1581=IFCFACE((#1013));
#1582=IFCFACE((#1014));
#1583=IFCFACE((#1015));
#1584=IFCFACE((#1016));
#1585=IFCFACE((#1017));
#1586=IFCFACE((#1018));
#1587=IFCFACE((#1019));
#1588=IFCFACE((#1020));
#1589=IFCFACE((#1021));
#1590=IFCFACE((#1022));
#1591=IFCFACE((#1023));
#1592=IFCFACE((#1024));
#1593=IFCFACE((#1025));
#1594=IFCFACE((#1026));
#1595=IFCFACE((#1027));
#1596=IFCFACE((#1028));
#1597=IFCFACE((#1029));
#1598=IFCFACE((#1030));
#1599=IFCFACE((#1031));
#1600=IFCFACE((#1032));
#1601=IFCFACE((#1033));
#1602=IFCFACE((#1034));
#1603=IFCFACE((#1035));
#1604=IFCFACE((#1036));
#1605=IFCFACE((#1037));
#1606=IFCFACE((#1038));
#1607=IFCFACE((#1039));
#1608=IFCFACE((#1040));
#1609=IFCFACE((#1041));
#1610=IFCFACE((#1042));
#1611=IFCFACE((#1043));
#1612=IFCFACE((#1044));
#1613=IFCFACE((#1045));
#1614=IFCFACE((#1046));
#1615=IFCFACE((#1047));
#1616=IFCFACE((#1048));
#1617=IFCFACE((#1049));
#1618=IFCFACE((#1050));
#1619=IFCFACE((#1051));
#1620=IFCFACE((#1052));
#1621=IFCFACE((#1053));
#1622=IFCFACE((#1054));
#1623=IFCFACE((#1055));
#1624=IFCFACE((#1056));
#1625=IFCFACE((#1057));
#1626=IFCFACE((#1058));
#1627=IFCFACE((#1059));
#1628=IFCFACE((#1060));
#1629=IFCFACE((#1061));
#1630=IFCFACE((#1062));
#1631=IFCFACE((#1063));
#1632=IFCFACE((#1064));
#1633=IFCFACE((#1065));
#1634=IFCFACE((#1066));
#1635=IFCFACE((#1067));
#1636=IFCFACE((#1068));
#1637=IFCFACE((#1069));
#1638=IFCFACE((#1070));
#1639=IFCFACE((#1071));
#1640=IFCFACE((#1072));
#1641=IFCFACE((#1073));
#1642=IFCFACE((#1074));
#1643=IFCFACE((#1075));
#1644=IFCFACE((#1076));
#1645=IFCFACE((#1077));
#1646=IFCFACE((#1078));
#1647=IFCFACE((#1079));
#1648=IFCFACE((#1080));
#1649=IFCFACE((#1081));
#1650=IFCFACE((#1082));
#1651=IFCFACE((#1083));
#1652=IFCFACE((#1084));
#1653=IFCFACE((#1085));
#1654=IFCFACE((#1086));
#1655=IFCFACE((#1087));
#1656=IFCFACE((#1088));
#1657=IFCFACE((#1089));
#1658=IFCFACE((#1090));
#1659=IFCFACE((#1091));
#1660=IFCFACE((#1092));
#1661=IFCFACE((#1093));
#1662=IFCFACE((#1094));
#1663=IFCFACE((#1095));
#1664=IFCFACE((#1096));
#1665=IFCFACE((#1097));
#1666=IFCFACE((#1098));
#1667=IFCFACE((#1099));
#1668=IFCFACE((#1100));
#1669=IFCFACE((#1101));
#1670=IFCFACE((#1102));
#1671=IFCFACE((#1103));
#1672=IFCFACE((#1104));
#1673=IFCFACE((#1105));
#1674=IFCFACE((#1106));
#1675=IFCFACE((#1107));
#1676=IFCFACE((#1108));
#1677=IFCFACE((#1109));
#1678=IFCFACE((#1110));
#1679=IFCFACE((#1111));
#1680=IFCFACE((#1112));
#1681=IFCFACE((#1113));
#1682=IFCFACE((#1114));
#1683=IFCFACE((#1115));
#1684=IFCFACE((#1116));
#1685=IFCFACE((#1117));
#1686=IFCFACE((#1118));
#1687=IFCFACE((#1119));
#1688=IFCFACE((#1120));
#1689=IFCFACE((#1121));
#1690=IFCFACE((#1122));
#1691=IFCFACE((#1123));
#1692=IFCFACE((#1124));
#1693=IFCFACE((#1125));
#1694=IFCFACE((#1126));
#1695=IFCFACE((#1127));
#1696=IFCFACE((#1128));
#1697=IFCFACE((#1129));
#1698=IFCFACE((#1130));
#1699=IFCFACE((#1131));
#1700=IFCFACE((#1132));
#1701=IFCFACE((#1133));
#1702=IFCFACE((#1134));
#1703=IFCFACE((#1135));
#1704=IFCFACE((#1136));
#1705=IFCFACE((#1137));
#1706=IFCFACE((#1138));
#1707=IFCFACE((#1139));
#1708=IFCFACE((#1140));
#1709=IFCFACE((#1141));
#1710=IFCFACE((#1142));
#1711=IFCFACE((#1143));
#1712=IFCFACE((#1144));
#1713=IFCFACE((#1145));
#1714=IFCFACE((#1146));
#1715=IFCFACE((#1147));
#1716=IFCFACE((#1148));
#1717=IFCFACE((#1149));
#1718=IFCFACE((#1150));
#1719=IFCFACE((#1151));
#1720=IFCFACE((#1152));
#1721=IFCFACE((#1153));
#1722=IFCFACE((#1154));
#1723=IFCFACE((#1155));
#1724=IFCFACE((#1156));
#1725=IFCFACE((#1157));
#1726=IFCFACE((#1158));
#1727=IFCFACE((#1159));
#1728=IFCFACE((#1160));
#1729=IFCFACE((#1161));
#1730=IFCCLOSEDSHELL((#1162,#1163,#1164,#1165,#1166,#1167,#1168,#1169,#1170,
#1171,#1172,#1173,#1174,#1175,#1176,#1177,#1178,#1179,#1180,#1181,#1182,
#1183,#1184,#1185,#1186,#1187,#1188,#1189,#1190,#1191,#1192,#1193,#1194,
#1195,#1196,#1197,#1198,#1199,#1200,#1201,#1202,#1203,#1204,#1205,#1206,
#1207,#1208,#1209,#1210,#1211,#1212,#1213,#1214,#1215,#1216,#1217,#1218,
#1219,#1220,#1221,#1222,#1223,#1224,#1225,#1226,#1227,#1228,#1229,#1230,
#1231,#1232,#1233,#1234,#1235,#1236,#1237,#1238,#1239,#1240,#1241,#1242,
#1243,#1244,#1245,#1246,#1247,#1248,#1249,#1250,#1251,#1252,#1253,#1254,
#1255,#1256,#1257,#1258,#1259,#1260,#1261,#1262,#1263,#1264,#1265,#1266,
#1267,#1268,#1269,#1270,#1271,#1272,#1273,#1274,#1275,#1276,#1277,#1278,
#1279,#1280,#1281,#1282,#1283,#1284,#1285,#1286,#1287,#1288,#1289,#1290,
#1291,#1292,#1293,#1294,#1295,#1296,#1297,#1298,#1299,#1300,#1301,#1302,
#1303,#1304,#1305,#1306,#1307,#1308,#1309,#1310,#1311,#1312,#1313,#1314,
#1315,#1316,#1317,#1318,#1319,#1320,#1321,#1322,#1323,#1324,#1325,#1326,
#1327,#1328,#1329,#1330,#1331,#1332,#1333,#1334,#1335,#1336,#1337,#1338,
#1339,#1340,#1341,#1342,#1343,#1344,#1345,#1346,#1347,#1348,#1349,#1350,
#1351,#1352,#1353,#1354,#1355,#1356,#1357,#1358,#1359,#1360,#1361,#1362,
#1363,#1364,#1365,#1366,#1367,#1368,#1369,#1370,#1371,#1372,#1373,#1374,
#1375,#1376,#1377,#1378,#1379,#1380,#1381,#1382,#1383,#1384,#1385,#1386,
#1387,#1388,#1389,#1390,#1391,#1392,#1393,#1394,#1395,#1396,#1397,#1398,
#1399,#1400,#1401,#1402,#1403,#1404,#1405,#1406,#1407,#1408,#1409,#1410,
#1411,#1412,#1413,#1414,#1415,#1416,#1417,#1418,#1419,#1420,#1421,#1422,
#1423,#1424,#1425,#1426,#1427,#1428,#1429,#1430,#1431,#1432,#1433,#1434,
#1435,#1436,#1437,#1438,#1439,#1440,#1441,#1442,#1443,#1444,#1445,#1446,
#1447,#1448,#1449,#1450,#1451,#1452,#1453,#1454,#1455,#1456,#1457,#1458,
#1459,#1460,#1461,#1462,#1463,#1464,#1465,#1466,#1467,#1468,#1469,#1470,
#1471,#1472,#1473,#1474,#1475,#1476,#1477,#1478,#1479,#1480,#1481,#1482,
#1483,#1484,#1485,#1486,#1487,#1488,#1489,#1490,#1491,#1492,#1493,#1494,
#1495,#1496,#1497,#1498,#1499,#1500,#1501,#1502,#1503,#1504,#1505,#1506,
#1507,#1508,#1509,#1510,#1511,#1512,#1513,#1514,#1515,#1516,#1517,#1518,
#1519,#1520,#1521,#1522,#1523,#1524,#1525,#1526,#1527,#1528,#1529,#1530,
#1531,#1532,#1533,#1534,#1535,#1536,#1537,#1538,#1539,#1540,#1541,#1542,
#1543,#1544,#1545,#1546,#1547,#1548,#1549,#1550,#1551,#1552,#1553,#1554,
#1555,#1556,#1557,#1558,#1559,#1560,#1561,#1562,#1563,#1564,#1565,#1566,
#1567,#1568,#1569,#1570,#1571,#1572,#1573,#1574,#1575,#1576,#1577,#1578,
#1579,#1580,#1581,#1582,#1583,#1584,#1585,#1586,#1587,#1588,#1589,#1590,
#1591,#1592,#1593,#1594,#1595,#1596,#1597,#1598,#1599,#1600,#1601,#1602,
#1603,#1604,#1605,#1606,#1607,#1608,#1609,#1610,#1611,#1612,#1613,#1614,
#1615,#1616,#1617,#1618,#1619,#1620,#1621,#1622,#1623,#1624,#1625,#1626,
#1627,#1628,#1629,#1630,#1631,#1632,#1633,#1634,#1635,#1636,#1637,#1638,
#1639,#1640,#1641,#1642,#1643,#1644,#1645,#1646,#1647,#1648,#1649,#1650,
#1651,#1652,#1653,#1654,#1655,#1656,#1657,#1658,#1659,#1660,#1661,#1662,
#1663,#1664,#1665,#1666,#1667,#1668,#1669,#1670,#1671,#1672,#1673,#1674,
#1675,#1676,#1677,#1678,#1679,#1680,#1681,#1682,#1683,#1684,#1685,#1686,
#1687,#1688,#1689,#1690,#1691,#1692,#1693,#1694,#1695,#1696,#1697,#1698,
#1699,#1700,#1701,#1702,#1703,#1704,#1705,#1706,#1707,#1708,#1709,#1710,
#1711,#1712,#1713,#1714,#1715,#1716,#1717,#1718,#1719,#1720,#1721,#1722,
#1723,#1724,#1725,#1726,#1727,#1728,#1729));
#1731=IFCSTYLEDITEM(#1736,(#1732),'');
#1732=IFCPRESENTATIONSTYLEASSIGNMENT((#1733));
#1733=IFCSURFACESTYLE('',.BOTH.,(#1734));
#1734=IFCSURFACESTYLERENDERING(#1735,0.,$,$,$,$,$,$,.NOTDEFINED.);
#1735=IFCCOLOURRGB('',0.800000011920929,0.760330617427826,0.);
#1736=IFCFACETEDBREP(#1730);
#1737=IFCPROJECT('07hUkdHgGydfWsFJH56q5B',#2274,'Ye_4107823_AVV',' ',
' ',' ',' ',(#2269),#1738);
#1738=IFCUNITASSIGNMENT((#2270,#2271,#2272,#2273));
#1739=IFCGEOMETRICREPRESENTATIONSUBCONTEXT('Body','Model',*,*,*,*,#2269,
1.,.MODEL_VIEW.,$);
#1740=IFCAXIS2PLACEMENT3D(#1746,#1742,#1743);
#1741=IFCAXIS2PLACEMENT3D(#2268,#1744,#1745);
#1742=IFCDIRECTION((0.,0.,1.));
#1743=IFCDIRECTION((1.,0.,0.));
#1744=IFCDIRECTION((0.,0.,1.));
#1745=IFCDIRECTION((1.,0.,0.));
#1746=IFCCARTESIANPOINT((0.,0.,0.));
#1747=IFCCARTESIANPOINT((2.86402655078499,1.18631864033178,0.800000000000002));
#1748=IFCCARTESIANPOINT((2.86402655078499,1.18631864033178,0.));
#1749=IFCCARTESIANPOINT((3.1,0.,0.));
#1750=IFCCARTESIANPOINT((3.1,0.,0.800000000000002));
#1751=IFCCARTESIANPOINT((2.1920310216783,2.1920310216783,0.800000000000002));
#1752=IFCCARTESIANPOINT((2.1920310216783,2.1920310216783,0.));
#1753=IFCCARTESIANPOINT((1.18631864033178,2.86402655078499,0.800000000000002));
#1754=IFCCARTESIANPOINT((1.18631864033178,2.86402655078499,0.));
#1755=IFCCARTESIANPOINT((-4.98518021399757E-16,3.1,0.800000000000002));
#1756=IFCCARTESIANPOINT((-4.98518021399757E-16,3.1,0.));
#1757=IFCCARTESIANPOINT((-1.18631864033178,2.86402655078499,0.800000000000002));
#1758=IFCCARTESIANPOINT((-1.18631864033178,2.86402655078499,0.));
#1759=IFCCARTESIANPOINT((-2.1920310216783,2.1920310216783,0.800000000000002));
#1760=IFCCARTESIANPOINT((-2.1920310216783,2.1920310216783,0.));
#1761=IFCCARTESIANPOINT((-2.86402655078499,1.18631864033178,0.800000000000002));
#1762=IFCCARTESIANPOINT((-2.86402655078499,1.18631864033178,0.));
#1763=IFCCARTESIANPOINT((-3.1,3.7964050773568E-16,0.800000000000002));
#1764=IFCCARTESIANPOINT((-3.1,3.7964050773568E-16,0.));
#1765=IFCCARTESIANPOINT((-2.86402655078499,-1.18631864033178,0.800000000000002));
#1766=IFCCARTESIANPOINT((-2.86402655078499,-1.18631864033178,0.));
#1767=IFCCARTESIANPOINT((-2.1920310216783,-2.1920310216783,0.800000000000002));
#1768=IFCCARTESIANPOINT((-2.1920310216783,-2.1920310216783,0.));
#1769=IFCCARTESIANPOINT((-1.18631864033178,-2.86402655078499,0.800000000000002));
#1770=IFCCARTESIANPOINT((-1.18631864033178,-2.86402655078499,0.));
#1771=IFCCARTESIANPOINT((-5.69460761603519E-16,-3.1,0.800000000000002));
#1772=IFCCARTESIANPOINT((-5.69460761603519E-16,-3.1,0.));
#1773=IFCCARTESIANPOINT((1.18631864033178,-2.86402655078499,0.800000000000002));
#1774=IFCCARTESIANPOINT((1.18631864033178,-2.86402655078499,0.));
#1775=IFCCARTESIANPOINT((2.1920310216783,-2.1920310216783,0.800000000000002));
#1776=IFCCARTESIANPOINT((2.1920310216783,-2.1920310216783,0.));
#1777=IFCCARTESIANPOINT((2.86402655078499,-1.18631864033178,0.800000000000002));
#1778=IFCCARTESIANPOINT((2.86402655078499,-1.18631864033178,0.));
#1779=IFCCARTESIANPOINT((-0.918440237676216,2.21731087802709,0.800000000000002));
#1780=IFCCARTESIANPOINT((-1.69705627484771,1.69705627484771,0.800000000000002));
#1781=IFCCARTESIANPOINT((-3.85949435922393E-16,2.4,0.800000000000002));
#1782=IFCCARTESIANPOINT((0.918440237676215,2.21731087802709,0.800000000000002));
#1783=IFCCARTESIANPOINT((1.69705627484771,1.69705627484771,0.800000000000002));
#1784=IFCCARTESIANPOINT((2.21731087802709,0.918440237676216,0.800000000000002));
#1785=IFCCARTESIANPOINT((2.4,0.,0.800000000000002));
#1786=IFCCARTESIANPOINT((2.21731087802709,-0.918440237676215,0.800000000000002));
#1787=IFCCARTESIANPOINT((0.918440237676216,-2.21731087802709,0.800000000000002));
#1788=IFCCARTESIANPOINT((1.69705627484771,-1.69705627484771,0.800000000000002));
#1789=IFCCARTESIANPOINT((-4.40872847693047E-16,-2.4,0.800000000000002));
#1790=IFCCARTESIANPOINT((-1.69705627484771,-1.69705627484771,0.800000000000002));
#1791=IFCCARTESIANPOINT((-0.918440237676215,-2.21731087802709,0.800000000000002));
#1792=IFCCARTESIANPOINT((-2.21731087802709,0.918440237676215,0.800000000000002));
#1793=IFCCARTESIANPOINT((-2.21731087802709,-0.918440237676215,0.800000000000002));
#1794=IFCCARTESIANPOINT((-2.4,2.93915231795365E-16,0.800000000000002));
#1795=IFCCARTESIANPOINT((2.21731087802709,0.918440237676216,3.2));
#1796=IFCCARTESIANPOINT((2.4,0.,3.2));
#1797=IFCCARTESIANPOINT((1.69705627484771,1.69705627484771,3.2));
#1798=IFCCARTESIANPOINT((0.918440237676215,2.21731087802709,3.2));
#1799=IFCCARTESIANPOINT((-3.85949435922393E-16,2.4,3.2));
#1800=IFCCARTESIANPOINT((-0.918440237676216,2.21731087802709,3.2));
#1801=IFCCARTESIANPOINT((-1.69705627484771,1.69705627484771,3.2));
#1802=IFCCARTESIANPOINT((-2.21731087802709,0.918440237676215,3.2));
#1803=IFCCARTESIANPOINT((-2.4,2.93915231795365E-16,3.2));
#1804=IFCCARTESIANPOINT((-2.21731087802709,-0.918440237676215,3.2));
#1805=IFCCARTESIANPOINT((-1.69705627484771,-1.69705627484771,3.2));
#1806=IFCCARTESIANPOINT((-0.918440237676215,-2.21731087802709,3.2));
#1807=IFCCARTESIANPOINT((-4.40872847693047E-16,-2.4,3.2));
#1808=IFCCARTESIANPOINT((0.918440237676216,-2.21731087802709,3.2));
#1809=IFCCARTESIANPOINT((1.69705627484771,-1.69705627484771,3.2));
#1810=IFCCARTESIANPOINT((2.21731087802709,-0.918440237676215,3.2));
#1811=IFCCARTESIANPOINT((2.86402655078499,1.18631864033178,3.2));
#1812=IFCCARTESIANPOINT((2.1920310216783,2.1920310216783,3.2));
#1813=IFCCARTESIANPOINT((1.18631864033178,2.86402655078499,3.2));
#1814=IFCCARTESIANPOINT((-4.98518021399757E-16,3.1,3.2));
#1815=IFCCARTESIANPOINT((-1.18631864033178,2.86402655078499,3.2));
#1816=IFCCARTESIANPOINT((-2.86402655078499,1.18631864033178,3.2));
#1817=IFCCARTESIANPOINT((-3.1,3.7964050773568E-16,3.2));
#1818=IFCCARTESIANPOINT((-2.1920310216783,2.1920310216783,3.2));
#1819=IFCCARTESIANPOINT((-2.86402655078499,-1.18631864033178,3.2));
#1820=IFCCARTESIANPOINT((-2.1920310216783,-2.1920310216783,3.2));
#1821=IFCCARTESIANPOINT((-1.18631864033178,-2.86402655078499,3.2));
#1822=IFCCARTESIANPOINT((-5.69460761603519E-16,-3.1,3.2));
#1823=IFCCARTESIANPOINT((1.18631864033178,-2.86402655078499,3.2));
#1824=IFCCARTESIANPOINT((2.1920310216783,-2.1920310216783,3.2));
#1825=IFCCARTESIANPOINT((2.86402655078499,-1.18631864033178,3.2));
#1826=IFCCARTESIANPOINT((3.1,0.,3.2));
#1827=IFCCARTESIANPOINT((2.86402655078499,1.18631864033178,4.));
#1828=IFCCARTESIANPOINT((3.1,0.,4.));
#1829=IFCCARTESIANPOINT((2.1920310216783,2.1920310216783,4.));
#1830=IFCCARTESIANPOINT((1.18631864033178,2.86402655078499,4.));
#1831=IFCCARTESIANPOINT((-4.98518021399757E-16,3.1,4.));
#1832=IFCCARTESIANPOINT((-1.18631864033178,2.86402655078499,4.));
#1833=IFCCARTESIANPOINT((-2.1920310216783,2.1920310216783,4.));
#1834=IFCCARTESIANPOINT((-2.86402655078499,1.18631864033178,4.));
#1835=IFCCARTESIANPOINT((-3.1,3.7964050773568E-16,4.));
#1836=IFCCARTESIANPOINT((-2.86402655078499,-1.18631864033178,4.));
#1837=IFCCARTESIANPOINT((-2.1920310216783,-2.1920310216783,4.));
#1838=IFCCARTESIANPOINT((-1.18631864033178,-2.86402655078499,4.));
#1839=IFCCARTESIANPOINT((-5.69460761603519E-16,-3.1,4.));
#1840=IFCCARTESIANPOINT((1.18631864033178,-2.86402655078499,4.));
#1841=IFCCARTESIANPOINT((2.1920310216783,-2.1920310216783,4.));
#1842=IFCCARTESIANPOINT((2.86402655078499,-1.18631864033178,4.));
#1843=IFCCARTESIANPOINT((10.5455844122716,2.54558441227157,0.));
#1844=IFCCARTESIANPOINT((8.89322653946896,2.20917161279578,0.));
#1845=IFCCARTESIANPOINT((8.87253447254466,2.23109433733171,0.));
#1846=IFCCARTESIANPOINT((10.1563858652848,0.9,0.));
#1847=IFCCARTESIANPOINT((9.41098895999191,0.9,0.));
#1848=IFCCARTESIANPOINT((9.21964724380937,0.938060233744357,0.));
#1849=IFCCARTESIANPOINT((9.05743556939864,1.04644660940673,0.));
#1850=IFCCARTESIANPOINT((8.94904919373627,1.20865828381746,0.));
#1851=IFCCARTESIANPOINT((8.91098895999191,1.4,0.));
#1852=IFCCARTESIANPOINT((8.91098895999191,2.15227714450794,0.));
#1853=IFCCARTESIANPOINT((10.5455844122716,-2.54558441227157,0.));
#1854=IFCCARTESIANPOINT((8.90644512256853,-2.18207850397605,0.));
#1855=IFCCARTESIANPOINT((8.91098895999191,-2.15227714450794,0.));
#1856=IFCCARTESIANPOINT((8.84624934955678,-2.24585441166046,0.));
#1857=IFCCARTESIANPOINT((8.87253447254466,-2.23109433733171,0.));
#1858=IFCCARTESIANPOINT((8.90644512256853,2.18207850397605,0.));
#1859=IFCCARTESIANPOINT((10.1863089275391,0.895418081857297,0.));
#1860=IFCCARTESIANPOINT((11.3259663170406,1.37766035651432,0.));
#1861=IFCCARTESIANPOINT((10.2354379318962,0.861243536511749,0.));
#1862=IFCCARTESIANPOINT((10.2134898893568,0.882092206906518,0.));
#1863=IFCCARTESIANPOINT((10.1863089275391,-0.895418081857297,0.));
#1864=IFCCARTESIANPOINT((10.2134898893568,-0.882092206906518,0.));
#1865=IFCCARTESIANPOINT((8.91098895999191,-1.4,0.));
#1866=IFCCARTESIANPOINT((8.94904919373627,-1.20865828381746,0.));
#1867=IFCCARTESIANPOINT((9.05743556939864,-1.04644660940673,0.));
#1868=IFCCARTESIANPOINT((9.21964724380937,-0.938060233744357,0.));
#1869=IFCCARTESIANPOINT((9.41098895999191,-0.9,0.));
#1870=IFCCARTESIANPOINT((10.1563858652848,-0.9,0.));
#1871=IFCCARTESIANPOINT((8.89322653946896,-2.20917161279578,0.));
#1872=IFCCARTESIANPOINT((5.10188867290572,2.36310932718838,0.));
#1873=IFCCARTESIANPOINT((8.0122304414714,2.39996883652713,0.));
#1874=IFCCARTESIANPOINT((10.2501417724711,0.834782608695652,0.));
#1875=IFCCARTESIANPOINT((10.2354379318962,-0.861243536511749,0.));
#1876=IFCCARTESIANPOINT((11.3259663170406,-1.37766035651432,0.));
#1877=IFCCARTESIANPOINT((8.84624934955678,2.24585441166046,0.));
#1878=IFCCARTESIANPOINT((5.10188867290572,-2.36310932718839,0.));
#1879=IFCCARTESIANPOINT((7.11560904165304,-2.19047536467343,0.));
#1880=IFCCARTESIANPOINT((7.12904238354529,-2.2177436916817,0.));
#1881=IFCCARTESIANPOINT((8.0122304414714,-2.39996883652714,0.));
#1882=IFCCARTESIANPOINT((5.09220232790184,-2.18381979588779,0.));
#1883=IFCCARTESIANPOINT((7.11098895999191,-2.16043087802997,0.));
#1884=IFCCARTESIANPOINT((-10.5455844122716,-2.54558441227157,0.));
#1885=IFCCARTESIANPOINT((-10.1863089275391,-0.895418081857297,0.));
#1886=IFCCARTESIANPOINT((-10.1563858652848,-0.9,0.));
#1887=IFCCARTESIANPOINT((-11.3259663170406,1.37766035651432,0.));
#1888=IFCCARTESIANPOINT((-10.5455844122716,2.54558441227157,0.));
#1889=IFCCARTESIANPOINT((-10.2134898893568,0.882092206906518,0.));
#1890=IFCCARTESIANPOINT((-10.2354379318962,0.861243536511749,0.));
#1891=IFCCARTESIANPOINT((-8.89808465206753,2.15709547496958,0.));
#1892=IFCCARTESIANPOINT((-8.89808465206753,1.4,0.));
#1893=IFCCARTESIANPOINT((-8.93614488581188,1.20865828381746,0.));
#1894=IFCCARTESIANPOINT((-9.04453126147425,1.04644660940673,0.));
#1895=IFCCARTESIANPOINT((-9.20674293588498,0.938060233744357,0.));
#1896=IFCCARTESIANPOINT((-9.39808465206753,0.9,0.));
#1897=IFCCARTESIANPOINT((-10.1563858652848,0.9,0.));
#1898=IFCCARTESIANPOINT((11.6,7.19197869884552E-18,0.));
#1899=IFCCARTESIANPOINT((10.4,-1.02151133258493E-15,0.));
#1900=IFCCARTESIANPOINT((10.2501417724711,-0.834782608695652,0.));
#1901=IFCCARTESIANPOINT((7.17668413216548,-2.25436265533562,0.));
#1902=IFCCARTESIANPOINT((7.1500477229382,-2.23971622110398,0.));
#1903=IFCCARTESIANPOINT((-9.39808465206753,-0.9,0.));
#1904=IFCCARTESIANPOINT((-9.20674293588498,-0.938060233744357,0.));
#1905=IFCCARTESIANPOINT((-9.04453126147425,-1.04644660940673,0.));
#1906=IFCCARTESIANPOINT((-8.93614488581188,-1.20865828381746,0.));
#1907=IFCCARTESIANPOINT((-8.89808465206753,-1.4,0.));
#1908=IFCCARTESIANPOINT((-8.89808465206753,-2.15709547496958,0.));
#1909=IFCCARTESIANPOINT((-10.1863089275391,0.895418081857297,0.));
#1910=IFCCARTESIANPOINT((-8.89349608809115,2.18703972109319,0.));
#1911=IFCCARTESIANPOINT((-8.85927552186613,2.23618831569042,0.));
#1912=IFCCARTESIANPOINT((-8.88015149454931,2.21423594543554,0.));
#1913=IFCCARTESIANPOINT((8.,3.6,0.));
#1914=IFCCARTESIANPOINT((4.60588745030458,2.8,0.));
#1915=IFCCARTESIANPOINT((3.39411254969543,2.8,0.));
#1916=IFCCARTESIANPOINT((6.96454235058519,1.04644660940673,0.));
#1917=IFCCARTESIANPOINT((6.80233067617446,0.938060233744356,0.));
#1918=IFCCARTESIANPOINT((6.61098895999191,0.9,0.));
#1919=IFCCARTESIANPOINT((5.23413666281214,0.9,0.));
#1920=IFCCARTESIANPOINT((5.06744272271922,0.928605122708891,0.));
#1921=IFCCARTESIANPOINT((4.91982198507105,1.0111474786548,0.));
#1922=IFCCARTESIANPOINT((4.80816528712684,1.13818253095568,0.));
#1923=IFCCARTESIANPOINT((4.74524844307044,1.29517486657393,0.));
#1924=IFCCARTESIANPOINT((4.73827042908061,1.4641613454107,0.));
#1925=IFCCARTESIANPOINT((4.78802967294313,1.6258064516129,0.));
#1926=IFCCARTESIANPOINT((5.01980361490158,2.01951219512195,0.));
#1927=IFCCARTESIANPOINT((5.09220232790184,2.18381979588779,0.));
#1928=IFCCARTESIANPOINT((7.1500477229382,2.23971622110398,0.));
#1929=IFCCARTESIANPOINT((7.12904238354529,2.2177436916817,0.));
#1930=IFCCARTESIANPOINT((-10.2134898893568,-0.882092206906518,0.));
#1931=IFCCARTESIANPOINT((-6.9516380426608,-1.04644660940673,0.));
#1932=IFCCARTESIANPOINT((-6.78942636825007,-0.938060233744357,0.));
#1933=IFCCARTESIANPOINT((-6.59808465206753,-0.9,0.));
#1934=IFCCARTESIANPOINT((-5.23413666281214,-0.9,0.));
#1935=IFCCARTESIANPOINT((-5.06744272271922,-0.928605122708892,0.));
#1936=IFCCARTESIANPOINT((-4.91982198507105,-1.0111474786548,0.));
#1937=IFCCARTESIANPOINT((-4.80816528712684,-1.13818253095568,0.));
#1938=IFCCARTESIANPOINT((-4.74524844307044,-1.29517486657393,0.));
#1939=IFCCARTESIANPOINT((-4.73827042908061,-1.4641613454107,0.));
#1940=IFCCARTESIANPOINT((-4.78802967294313,-1.6258064516129,0.));
#1941=IFCCARTESIANPOINT((-5.01980361490158,-2.01951219512195,0.));
#1942=IFCCARTESIANPOINT((-8.83278398476612,2.25088223475087,0.));
#1943=IFCCARTESIANPOINT((-5.10188867290572,2.36310932718839,0.));
#1944=IFCCARTESIANPOINT((-5.09220232790184,2.18381979588779,0.));
#1945=IFCCARTESIANPOINT((-7.09808465206753,2.1556743201955,0.));
#1946=IFCCARTESIANPOINT((-7.10265992689195,2.18557619012306,0.));
#1947=IFCCARTESIANPOINT((4.78252050632172,2.76776143868648,0.));
#1948=IFCCARTESIANPOINT((6.96454235058519,-1.04644660940673,0.));
#1949=IFCCARTESIANPOINT((7.07292872624756,-1.20865828381746,0.));
#1950=IFCCARTESIANPOINT((7.11098895999191,-1.4,0.));
#1951=IFCCARTESIANPOINT((5.01980361490158,-2.01951219512195,0.));
#1952=IFCCARTESIANPOINT((7.11560904165304,2.19047536467343,0.));
#1953=IFCCARTESIANPOINT((7.11098895999191,2.16043087802997,0.));
#1954=IFCCARTESIANPOINT((7.17668413216548,2.25436265533562,0.));
#1955=IFCCARTESIANPOINT((-8.89349608809115,-2.18703972109319,0.));
#1956=IFCCARTESIANPOINT((-8.88015149454931,-2.21423594543554,0.));
#1957=IFCCARTESIANPOINT((-11.3259663170406,-1.37766035651432,0.));
#1958=IFCCARTESIANPOINT((-10.2354379318962,-0.86124353651175,0.));
#1959=IFCCARTESIANPOINT((-5.09220232790184,-2.18381979588779,0.));
#1960=IFCCARTESIANPOINT((-7.10265992689195,-2.18557619012306,0.));
#1961=IFCCARTESIANPOINT((-7.09808465206753,-2.1556743201955,0.));
#1962=IFCCARTESIANPOINT((-7.11596708857082,2.21274187459697,0.));
#1963=IFCCARTESIANPOINT((3.21747949367828,2.76776143868648,0.));
#1964=IFCCARTESIANPOINT((8.,-3.6,0.));
#1965=IFCCARTESIANPOINT((3.39411254969543,-2.8,0.));
#1966=IFCCARTESIANPOINT((4.60588745030458,-2.8,0.));
#1967=IFCCARTESIANPOINT((-8.85927552186613,-2.23618831569042,0.));
#1968=IFCCARTESIANPOINT((-10.2501417724711,-0.834782608695652,0.));
#1969=IFCCARTESIANPOINT((-7.11596708857082,-2.21274187459697,0.));
#1970=IFCCARTESIANPOINT((-10.2501417724711,0.834782608695652,0.));
#1971=IFCCARTESIANPOINT((-7.16321876737481,2.24939929063878,0.));
#1972=IFCCARTESIANPOINT((-7.99786826867978,2.39999905327514,0.));
#1973=IFCCARTESIANPOINT((-7.13678845866788,2.23468556417199,0.));
#1974=IFCCARTESIANPOINT((2.90779767209816,-2.18381979588779,0.));
#1975=IFCCARTESIANPOINT((2.89811132709428,-2.36310932718839,0.));
#1976=IFCCARTESIANPOINT((4.93637597991325,2.67520305408818,0.));
#1977=IFCCARTESIANPOINT((4.78802967294313,-1.6258064516129,0.));
#1978=IFCCARTESIANPOINT((4.73827042908061,-1.4641613454107,0.));
#1979=IFCCARTESIANPOINT((4.74524844307044,-1.29517486657393,0.));
#1980=IFCCARTESIANPOINT((4.80816528712684,-1.13818253095568,0.));
#1981=IFCCARTESIANPOINT((4.91982198507105,-1.0111474786548,0.));
#1982=IFCCARTESIANPOINT((5.06744272271922,-0.928605122708892,0.));
#1983=IFCCARTESIANPOINT((5.23413666281214,-0.900000000000001,0.));
#1984=IFCCARTESIANPOINT((6.61098895999191,-0.900000000000001,0.));
#1985=IFCCARTESIANPOINT((6.80233067617446,-0.938060233744357,0.));
#1986=IFCCARTESIANPOINT((4.93637597991325,-2.67520305408818,0.));
#1987=IFCCARTESIANPOINT((5.04761355460396,-2.53426064283291,0.));
#1988=IFCCARTESIANPOINT((3.21747949367828,-2.76776143868648,0.));
#1989=IFCCARTESIANPOINT((-5.10188867290572,-2.36310932718839,0.));
#1990=IFCCARTESIANPOINT((-7.99786826867978,-2.39999905327514,0.));
#1991=IFCCARTESIANPOINT((-7.13678845866788,-2.23468556417199,0.));
#1992=IFCCARTESIANPOINT((2.95238644539604,-2.53426064283291,0.));
#1993=IFCCARTESIANPOINT((5.04761355460396,2.53426064283291,0.));
#1994=IFCCARTESIANPOINT((7.11098895999191,1.4,0.));
#1995=IFCCARTESIANPOINT((7.07292872624756,1.20865828381746,0.));
#1996=IFCCARTESIANPOINT((4.78252050632172,-2.76776143868648,0.));
#1997=IFCCARTESIANPOINT((-8.83278398476612,-2.25088223475087,0.));
#1998=IFCCARTESIANPOINT((-11.6,-8.74553716687249E-16,0.));
#1999=IFCCARTESIANPOINT((-10.4,9.26048466441313E-16,0.));
#2000=IFCCARTESIANPOINT((-7.16321876737481,-2.24939929063878,0.));
#2001=IFCCARTESIANPOINT((-2.90779767209816,2.18381979588779,0.));
#2002=IFCCARTESIANPOINT((-2.89811132709428,2.36310932718839,0.));
#2003=IFCCARTESIANPOINT((-2.98019638509842,2.01951219512195,0.));
#2004=IFCCARTESIANPOINT((-6.9516380426608,1.04644660940673,0.));
#2005=IFCCARTESIANPOINT((-7.06002441832317,1.20865828381746,0.));
#2006=IFCCARTESIANPOINT((-7.09808465206753,1.4,0.));
#2007=IFCCARTESIANPOINT((-5.01980361490158,2.01951219512195,0.));
#2008=IFCCARTESIANPOINT((-8.,3.6,0.));
#2009=IFCCARTESIANPOINT((-4.78252050632172,2.76776143868648,0.));
#2010=IFCCARTESIANPOINT((-4.93637597991325,2.67520305408818,0.));
#2011=IFCCARTESIANPOINT((-3.21747949367828,2.76776143868648,0.));
#2012=IFCCARTESIANPOINT((-3.39411254969543,2.8,0.));
#2013=IFCCARTESIANPOINT((3.06362402008675,-2.67520305408818,0.));
#2014=IFCCARTESIANPOINT((2.98019638509842,-2.01951219512195,0.));
#2015=IFCCARTESIANPOINT((9.37766035651433,3.32596631704063,0.));
#2016=IFCCARTESIANPOINT((2.95238644539604,2.53426064283291,0.));
#2017=IFCCARTESIANPOINT((2.89811132709428,2.36310932718839,0.));
#2018=IFCCARTESIANPOINT((3.06362402008675,2.67520305408818,0.));
#2019=IFCCARTESIANPOINT((-8.,-3.6,0.));
#2020=IFCCARTESIANPOINT((-4.78252050632172,-2.76776143868648,0.));
#2021=IFCCARTESIANPOINT((-4.60588745030457,-2.8,0.));
#2022=IFCCARTESIANPOINT((-5.04761355460396,-2.53426064283291,0.));
#2023=IFCCARTESIANPOINT((-4.93637597991325,-2.67520305408818,0.));
#2024=IFCCARTESIANPOINT((-2.95238644539604,2.53426064283291,0.));
#2025=IFCCARTESIANPOINT((-3.06362402008675,2.67520305408818,0.));
#2026=IFCCARTESIANPOINT((-3.52929341679989,-0.709991533845997,0.));
#2027=IFCCARTESIANPOINT((-3.52929341679988,0.709991533845998,0.));
#2028=IFCCARTESIANPOINT((-5.04761355460396,2.53426064283291,0.));
#2029=IFCCARTESIANPOINT((-4.60588745030457,2.8,0.));
#2030=IFCCARTESIANPOINT((3.52929341679989,0.709991533845995,0.));
#2031=IFCCARTESIANPOINT((3.52929341679988,-0.709991533846,0.));
#2032=IFCCARTESIANPOINT((9.37766035651433,-3.32596631704063,0.));
#2033=IFCCARTESIANPOINT((-3.39411254969543,-2.8,0.));
#2034=IFCCARTESIANPOINT((-9.37766035651433,-3.32596631704063,0.));
#2035=IFCCARTESIANPOINT((-7.09808465206753,-1.4,0.));
#2036=IFCCARTESIANPOINT((-7.06002441832317,-1.20865828381746,0.));
#2037=IFCCARTESIANPOINT((-9.37766035651433,3.32596631704063,0.));
#2038=IFCCARTESIANPOINT((2.90779767209816,2.18381979588779,0.));
#2039=IFCCARTESIANPOINT((-3.21747949367828,-2.76776143868648,0.));
#2040=IFCCARTESIANPOINT((-4.78802967294313,1.6258064516129,0.));
#2041=IFCCARTESIANPOINT((-4.73827042908061,1.4641613454107,0.));
#2042=IFCCARTESIANPOINT((-4.74524844307044,1.29517486657393,0.));
#2043=IFCCARTESIANPOINT((-4.80816528712684,1.13818253095568,0.));
#2044=IFCCARTESIANPOINT((-4.91982198507105,1.0111474786548,0.));
#2045=IFCCARTESIANPOINT((-5.06744272271922,0.928605122708892,0.));
#2046=IFCCARTESIANPOINT((-5.23413666281214,0.9,0.));
#2047=IFCCARTESIANPOINT((-6.59808465206753,0.9,0.));
#2048=IFCCARTESIANPOINT((-6.78942636825007,0.938060233744357,0.));
#2049=IFCCARTESIANPOINT((-2.95238644539604,-2.53426064283291,0.));
#2050=IFCCARTESIANPOINT((-2.89811132709428,-2.36310932718839,0.));
#2051=IFCCARTESIANPOINT((-3.06362402008675,-2.67520305408818,0.));
#2052=IFCCARTESIANPOINT((-2.90779767209816,-2.18381979588779,0.));
#2053=IFCCARTESIANPOINT((2.98019638509842,2.01951219512195,0.));
#2054=IFCCARTESIANPOINT((-2.98019638509842,-2.01951219512195,0.));
#2055=IFCCARTESIANPOINT((-10.5455844122716,-2.54558441227157,4.));
#2056=IFCCARTESIANPOINT((-8.89808465206753,-2.15709547496958,4.));
#2057=IFCCARTESIANPOINT((-8.89808465206753,-1.4,4.));
#2058=IFCCARTESIANPOINT((-8.93614488581188,-1.20865828381746,4.));
#2059=IFCCARTESIANPOINT((-9.04453126147425,-1.04644660940673,4.));
#2060=IFCCARTESIANPOINT((-9.20674293588498,-0.938060233744357,4.));
#2061=IFCCARTESIANPOINT((-9.39808465206753,-0.9,4.));
#2062=IFCCARTESIANPOINT((-10.1563858652848,-0.9,4.));
#2063=IFCCARTESIANPOINT((-8.89349608809115,-2.18703972109319,4.));
#2064=IFCCARTESIANPOINT((-10.5455844122716,2.54558441227157,4.));
#2065=IFCCARTESIANPOINT((-10.1863089275391,0.895418081857297,4.));
#2066=IFCCARTESIANPOINT((-10.1563858652848,0.9,4.));
#2067=IFCCARTESIANPOINT((-11.3259663170406,1.37766035651432,4.));
#2068=IFCCARTESIANPOINT((-10.2501417724711,0.834782608695652,4.));
#2069=IFCCARTESIANPOINT((-10.2354379318962,0.861243536511749,4.));
#2070=IFCCARTESIANPOINT((-10.1863089275391,-0.895418081857297,4.));
#2071=IFCCARTESIANPOINT((-8.89349608809115,2.18703972109319,4.));
#2072=IFCCARTESIANPOINT((-8.88015149454931,2.21423594543554,4.));
#2073=IFCCARTESIANPOINT((-9.39808465206753,0.9,4.));
#2074=IFCCARTESIANPOINT((-9.20674293588498,0.938060233744357,4.));
#2075=IFCCARTESIANPOINT((-9.04453126147425,1.04644660940673,4.));
#2076=IFCCARTESIANPOINT((-8.93614488581188,1.20865828381746,4.));
#2077=IFCCARTESIANPOINT((-8.89808465206753,1.4,4.));
#2078=IFCCARTESIANPOINT((-8.89808465206753,2.15709547496958,4.));
#2079=IFCCARTESIANPOINT((-10.2134898893568,0.882092206906518,4.));
#2080=IFCCARTESIANPOINT((-10.2134898893568,-0.882092206906518,4.));
#2081=IFCCARTESIANPOINT((-8.85927552186613,-2.23618831569042,4.));
#2082=IFCCARTESIANPOINT((-8.88015149454931,-2.21423594543554,4.));
#2083=IFCCARTESIANPOINT((-8.85927552186613,2.23618831569042,4.));
#2084=IFCCARTESIANPOINT((-10.2354379318962,-0.86124353651175,4.));
#2085=IFCCARTESIANPOINT((-11.3259663170406,-1.37766035651432,4.));
#2086=IFCCARTESIANPOINT((-8.83278398476612,-2.25088223475087,4.));
#2087=IFCCARTESIANPOINT((10.5455844122716,2.54558441227157,4.));
#2088=IFCCARTESIANPOINT((8.90644512256853,2.18207850397605,4.));
#2089=IFCCARTESIANPOINT((8.91098895999191,2.15227714450794,4.));
#2090=IFCCARTESIANPOINT((8.84624934955678,2.24585441166046,4.));
#2091=IFCCARTESIANPOINT((8.87253447254466,2.23109433733171,4.));
#2092=IFCCARTESIANPOINT((-5.10188867290572,2.36310932718839,4.));
#2093=IFCCARTESIANPOINT((-7.99786826867978,2.39999905327514,4.));
#2094=IFCCARTESIANPOINT((-5.10188867290572,-2.36310932718839,4.));
#2095=IFCCARTESIANPOINT((-5.09220232790184,-2.18381979588779,4.));
#2096=IFCCARTESIANPOINT((-7.09808465206753,-2.1556743201955,4.));
#2097=IFCCARTESIANPOINT((-7.10265992689195,-2.18557619012306,4.));
#2098=IFCCARTESIANPOINT((-6.9516380426608,1.04644660940673,4.));
#2099=IFCCARTESIANPOINT((-6.78942636825007,0.938060233744357,4.));
#2100=IFCCARTESIANPOINT((-6.59808465206753,0.9,4.));
#2101=IFCCARTESIANPOINT((-5.23413666281214,0.9,4.));
#2102=IFCCARTESIANPOINT((-5.06744272271922,0.928605122708892,4.));
#2103=IFCCARTESIANPOINT((-4.91982198507105,1.0111474786548,4.));
#2104=IFCCARTESIANPOINT((-4.80816528712684,1.13818253095568,4.));
#2105=IFCCARTESIANPOINT((-4.74524844307044,1.29517486657393,4.));
#2106=IFCCARTESIANPOINT((-4.73827042908061,1.4641613454107,4.));
#2107=IFCCARTESIANPOINT((-4.78802967294313,1.6258064516129,4.));
#2108=IFCCARTESIANPOINT((-5.01980361490158,2.01951219512195,4.));
#2109=IFCCARTESIANPOINT((10.1863089275391,0.895418081857297,4.));
#2110=IFCCARTESIANPOINT((10.2134898893568,0.882092206906518,4.));
#2111=IFCCARTESIANPOINT((8.91098895999191,1.4,4.));
#2112=IFCCARTESIANPOINT((8.94904919373627,1.20865828381746,4.));
#2113=IFCCARTESIANPOINT((9.05743556939864,1.04644660940673,4.));
#2114=IFCCARTESIANPOINT((9.21964724380937,0.938060233744357,4.));
#2115=IFCCARTESIANPOINT((9.41098895999191,0.9,4.));
#2116=IFCCARTESIANPOINT((10.1563858652848,0.9,4.));
#2117=IFCCARTESIANPOINT((8.89322653946896,2.20917161279578,4.));
#2118=IFCCARTESIANPOINT((-8.83278398476612,2.25088223475087,4.));
#2119=IFCCARTESIANPOINT((-11.6,-8.74553716687249E-16,4.));
#2120=IFCCARTESIANPOINT((-10.4,9.26048466441313E-16,4.));
#2121=IFCCARTESIANPOINT((-10.2501417724711,-0.834782608695652,4.));
#2122=IFCCARTESIANPOINT((-7.11596708857082,-2.21274187459697,4.));
#2123=IFCCARTESIANPOINT((-5.09220232790184,2.18381979588779,4.));
#2124=IFCCARTESIANPOINT((-7.10265992689195,2.18557619012306,4.));
#2125=IFCCARTESIANPOINT((-7.09808465206753,2.1556743201955,4.));
#2126=IFCCARTESIANPOINT((10.2354379318962,0.861243536511749,4.));
#2127=IFCCARTESIANPOINT((11.3259663170406,1.37766035651432,4.));
#2128=IFCCARTESIANPOINT((5.10188867290572,2.36310932718838,4.));
#2129=IFCCARTESIANPOINT((7.11560904165304,2.19047536467343,4.));
#2130=IFCCARTESIANPOINT((7.12904238354529,2.2177436916817,4.));
#2131=IFCCARTESIANPOINT((-7.99786826867978,-2.39999905327514,4.));
#2132=IFCCARTESIANPOINT((-7.16321876737481,-2.24939929063878,4.));
#2133=IFCCARTESIANPOINT((-7.13678845866788,-2.23468556417199,4.));
#2134=IFCCARTESIANPOINT((-7.11596708857082,2.21274187459697,4.));
#2135=IFCCARTESIANPOINT((5.09220232790184,2.18381979588779,4.));
#2136=IFCCARTESIANPOINT((7.11098895999191,2.16043087802997,4.));
#2137=IFCCARTESIANPOINT((-7.13678845866788,2.23468556417199,4.));
#2138=IFCCARTESIANPOINT((10.5455844122716,-2.54558441227157,4.));
#2139=IFCCARTESIANPOINT((8.89322653946896,-2.20917161279578,4.));
#2140=IFCCARTESIANPOINT((8.87253447254466,-2.23109433733171,4.));
#2141=IFCCARTESIANPOINT((10.1563858652848,-0.9,4.));
#2142=IFCCARTESIANPOINT((9.41098895999191,-0.9,4.));
#2143=IFCCARTESIANPOINT((9.21964724380937,-0.938060233744357,4.));
#2144=IFCCARTESIANPOINT((9.05743556939864,-1.04644660940673,4.));
#2145=IFCCARTESIANPOINT((8.94904919373627,-1.20865828381746,4.));
#2146=IFCCARTESIANPOINT((8.91098895999191,-1.4,4.));
#2147=IFCCARTESIANPOINT((8.91098895999191,-2.15227714450794,4.));
#2148=IFCCARTESIANPOINT((8.0122304414714,2.39996883652713,4.));
#2149=IFCCARTESIANPOINT((7.17668413216548,2.25436265533562,4.));
#2150=IFCCARTESIANPOINT((7.1500477229382,2.23971622110398,4.));
#2151=IFCCARTESIANPOINT((-6.9516380426608,-1.04644660940673,4.));
#2152=IFCCARTESIANPOINT((-7.06002441832317,-1.20865828381746,4.));
#2153=IFCCARTESIANPOINT((-7.09808465206753,-1.4,4.));
#2154=IFCCARTESIANPOINT((-5.01980361490158,-2.01951219512195,4.));
#2155=IFCCARTESIANPOINT((-7.16321876737481,2.24939929063878,4.));
#2156=IFCCARTESIANPOINT((8.90644512256853,-2.18207850397605,4.));
#2157=IFCCARTESIANPOINT((10.1863089275391,-0.895418081857297,4.));
#2158=IFCCARTESIANPOINT((11.3259663170406,-1.37766035651432,4.));
#2159=IFCCARTESIANPOINT((10.2354379318962,-0.861243536511749,4.));
#2160=IFCCARTESIANPOINT((10.2134898893568,-0.882092206906518,4.));
#2161=IFCCARTESIANPOINT((10.2501417724711,0.834782608695652,4.));
#2162=IFCCARTESIANPOINT((-8.,3.6,4.));
#2163=IFCCARTESIANPOINT((-5.04761355460396,2.53426064283291,4.));
#2164=IFCCARTESIANPOINT((-4.93637597991325,2.67520305408818,4.));
#2165=IFCCARTESIANPOINT((5.10188867290572,-2.36310932718839,4.));
#2166=IFCCARTESIANPOINT((8.0122304414714,-2.39996883652714,4.));
#2167=IFCCARTESIANPOINT((10.2501417724711,-0.834782608695652,4.));
#2168=IFCCARTESIANPOINT((6.96454235058519,-1.04644660940673,4.));
#2169=IFCCARTESIANPOINT((6.80233067617446,-0.938060233744357,4.));
#2170=IFCCARTESIANPOINT((6.61098895999191,-0.900000000000001,4.));
#2171=IFCCARTESIANPOINT((5.23413666281214,-0.900000000000001,4.));
#2172=IFCCARTESIANPOINT((5.06744272271922,-0.928605122708892,4.));
#2173=IFCCARTESIANPOINT((4.91982198507105,-1.0111474786548,4.));
#2174=IFCCARTESIANPOINT((4.80816528712684,-1.13818253095568,4.));
#2175=IFCCARTESIANPOINT((4.74524844307044,-1.29517486657393,4.));
#2176=IFCCARTESIANPOINT((4.73827042908061,-1.4641613454107,4.));
#2177=IFCCARTESIANPOINT((4.78802967294313,-1.6258064516129,4.));
#2178=IFCCARTESIANPOINT((5.01980361490158,-2.01951219512195,4.));
#2179=IFCCARTESIANPOINT((5.09220232790184,-2.18381979588779,4.));
#2180=IFCCARTESIANPOINT((7.1500477229382,-2.23971622110398,4.));
#2181=IFCCARTESIANPOINT((7.12904238354529,-2.2177436916817,4.));
#2182=IFCCARTESIANPOINT((8.,3.6,4.));
#2183=IFCCARTESIANPOINT((3.39411254969543,2.8,4.));
#2184=IFCCARTESIANPOINT((4.60588745030458,2.8,4.));
#2185=IFCCARTESIANPOINT((-4.60588745030457,2.8,4.));
#2186=IFCCARTESIANPOINT((-3.39411254969543,2.8,4.));
#2187=IFCCARTESIANPOINT((-9.37766035651433,3.32596631704063,4.));
#2188=IFCCARTESIANPOINT((-7.09808465206753,1.4,4.));
#2189=IFCCARTESIANPOINT((-7.06002441832317,1.20865828381746,4.));
#2190=IFCCARTESIANPOINT((-8.,-3.6,4.));
#2191=IFCCARTESIANPOINT((-4.93637597991325,-2.67520305408818,4.));
#2192=IFCCARTESIANPOINT((-5.04761355460396,-2.53426064283291,4.));
#2193=IFCCARTESIANPOINT((8.,-3.6,4.));
#2194=IFCCARTESIANPOINT((4.60588745030458,-2.8,4.));
#2195=IFCCARTESIANPOINT((3.39411254969543,-2.8,4.));
#2196=IFCCARTESIANPOINT((8.84624934955678,-2.24585441166046,4.));
#2197=IFCCARTESIANPOINT((7.11560904165304,-2.19047536467343,4.));
#2198=IFCCARTESIANPOINT((7.11098895999191,-2.16043087802997,4.));
#2199=IFCCARTESIANPOINT((7.17668413216548,-2.25436265533562,4.));
#2200=IFCCARTESIANPOINT((6.96454235058519,1.04644660940673,4.));
#2201=IFCCARTESIANPOINT((7.07292872624756,1.20865828381746,4.));
#2202=IFCCARTESIANPOINT((7.11098895999191,1.4,4.));
#2203=IFCCARTESIANPOINT((5.01980361490158,2.01951219512195,4.));
#2204=IFCCARTESIANPOINT((9.37766035651433,3.32596631704063,4.));
#2205=IFCCARTESIANPOINT((5.04761355460396,2.53426064283291,4.));
#2206=IFCCARTESIANPOINT((3.21747949367828,2.76776143868648,4.));
#2207=IFCCARTESIANPOINT((-4.78252050632172,2.76776143868648,4.));
#2208=IFCCARTESIANPOINT((-4.78802967294313,-1.6258064516129,4.));
#2209=IFCCARTESIANPOINT((-4.73827042908061,-1.4641613454107,4.));
#2210=IFCCARTESIANPOINT((-4.74524844307044,-1.29517486657393,4.));
#2211=IFCCARTESIANPOINT((-4.80816528712684,-1.13818253095568,4.));
#2212=IFCCARTESIANPOINT((-4.91982198507105,-1.0111474786548,4.));
#2213=IFCCARTESIANPOINT((-5.06744272271922,-0.928605122708892,4.));
#2214=IFCCARTESIANPOINT((-5.23413666281214,-0.9,4.));
#2215=IFCCARTESIANPOINT((-6.59808465206753,-0.9,4.));
#2216=IFCCARTESIANPOINT((-6.78942636825007,-0.938060233744357,4.));
#2217=IFCCARTESIANPOINT((-4.78252050632172,-2.76776143868648,4.));
#2218=IFCCARTESIANPOINT((-3.39411254969543,-2.8,4.));
#2219=IFCCARTESIANPOINT((-4.60588745030457,-2.8,4.));
#2220=IFCCARTESIANPOINT((4.78252050632172,-2.76776143868648,4.));
#2221=IFCCARTESIANPOINT((9.37766035651433,-3.32596631704063,4.));
#2222=IFCCARTESIANPOINT((5.04761355460396,-2.53426064283291,4.));
#2223=IFCCARTESIANPOINT((2.95238644539604,2.53426064283291,4.));
#2224=IFCCARTESIANPOINT((3.06362402008675,2.67520305408818,4.));
#2225=IFCCARTESIANPOINT((10.4,-1.02151133258493E-15,4.));
#2226=IFCCARTESIANPOINT((11.6,7.19197869884552E-18,4.));
#2227=IFCCARTESIANPOINT((-3.21747949367828,2.76776143868648,4.));
#2228=IFCCARTESIANPOINT((-9.37766035651433,-3.32596631704063,4.));
#2229=IFCCARTESIANPOINT((-3.21747949367828,-2.76776143868648,4.));
#2230=IFCCARTESIANPOINT((3.21747949367828,-2.76776143868648,4.));
#2231=IFCCARTESIANPOINT((4.93637597991325,-2.67520305408818,4.));
#2232=IFCCARTESIANPOINT((2.89811132709428,2.36310932718839,4.));
#2233=IFCCARTESIANPOINT((2.98019638509842,2.01951219512195,4.));
#2234=IFCCARTESIANPOINT((2.90779767209816,2.18381979588779,4.));
#2235=IFCCARTESIANPOINT((4.93637597991325,2.67520305408818,4.));
#2236=IFCCARTESIANPOINT((4.78252050632172,2.76776143868648,4.));
#2237=IFCCARTESIANPOINT((7.11098895999191,-1.4,4.));
#2238=IFCCARTESIANPOINT((7.07292872624756,-1.20865828381746,4.));
#2239=IFCCARTESIANPOINT((2.95238644539604,-2.53426064283291,4.));
#2240=IFCCARTESIANPOINT((2.89811132709428,-2.36310932718839,4.));
#2241=IFCCARTESIANPOINT((3.06362402008675,-2.67520305408818,4.));
#2242=IFCCARTESIANPOINT((-2.95238644539604,-2.53426064283291,4.));
#2243=IFCCARTESIANPOINT((-3.06362402008675,-2.67520305408818,4.));
#2244=IFCCARTESIANPOINT((-2.90779767209816,-2.18381979588779,4.));
#2245=IFCCARTESIANPOINT((-2.89811132709428,-2.36310932718839,4.));
#2246=IFCCARTESIANPOINT((3.52929341679989,0.709991533845995,4.));
#2247=IFCCARTESIANPOINT((4.78802967294313,1.6258064516129,4.));
#2248=IFCCARTESIANPOINT((4.73827042908061,1.4641613454107,4.));
#2249=IFCCARTESIANPOINT((4.74524844307044,1.29517486657393,4.));
#2250=IFCCARTESIANPOINT((4.80816528712684,1.13818253095568,4.));
#2251=IFCCARTESIANPOINT((4.91982198507105,1.0111474786548,4.));
#2252=IFCCARTESIANPOINT((5.06744272271922,0.928605122708891,4.));
#2253=IFCCARTESIANPOINT((5.23413666281214,0.9,4.));
#2254=IFCCARTESIANPOINT((6.61098895999191,0.9,4.));
#2255=IFCCARTESIANPOINT((6.80233067617446,0.938060233744356,4.));
#2256=IFCCARTESIANPOINT((2.90779767209816,-2.18381979588779,4.));
#2257=IFCCARTESIANPOINT((-3.52929341679989,-0.709991533845997,4.));
#2258=IFCCARTESIANPOINT((-2.98019638509842,-2.01951219512195,4.));
#2259=IFCCARTESIANPOINT((-2.95238644539604,2.53426064283291,4.));
#2260=IFCCARTESIANPOINT((-2.89811132709428,2.36310932718839,4.));
#2261=IFCCARTESIANPOINT((-3.06362402008675,2.67520305408818,4.));
#2262=IFCCARTESIANPOINT((-2.90779767209816,2.18381979588779,4.));
#2263=IFCCARTESIANPOINT((2.98019638509842,-2.01951219512195,4.));
#2264=IFCCARTESIANPOINT((3.52929341679988,-0.709991533846,4.));
#2265=IFCCARTESIANPOINT((-2.98019638509842,2.01951219512195,4.));
#2266=IFCCARTESIANPOINT((-3.52929341679988,0.709991533845998,4.));
#2267=IFCCARTESIANPOINT((0.,0.,0.));
#2268=IFCCARTESIANPOINT((0.,0.,0.));
#2269=IFCGEOMETRICREPRESENTATIONCONTEXT($,'Model',3,0.005,#1740,$);
#2270=IFCSIUNIT(*,.LENGTHUNIT.,.MILLI.,.METRE.);
#2271=IFCSIUNIT(*,.AREAUNIT.,$,.SQUARE_METRE.);
#2272=IFCSIUNIT(*,.VOLUMEUNIT.,$,.CUBIC_METRE.);
#2273=IFCSIUNIT(*,.PLANEANGLEUNIT.,$,.RADIAN.);
#2274=IFCOWNERHISTORY(#2276,#2275,$,.NOCHANGE.,0,$,$,0);
#2275=IFCAPPLICATION(#2277,' ',' ',' ');
#2276=IFCPERSONANDORGANIZATION(#2278,#2277,$);
#2277=IFCORGANIZATION($,' ',$,$,$);
#2278=IFCPERSON(' ',' ',' ',$,$,$,$,$);
ENDSEC;
END-ISO-10303-21;
